<svg viewBox="0 0 202 117.47" xmlns="http://www.w3.org/2000/svg" xmlns:xlink="http://www.w3.org/1999/xlink" overflow="hidden"><defs></defs><g id="Layer_2"><g id="图层_1"><path d="M201 1 201 29.87 176 15.44 201 1Z" fill="#404040"/><path d="M176.07 73.05 201 29.87 201 58.74 176.14 73.09 176.07 73.05Z" fill="#00D800"/><path d="M176.34 73.21 151.29 87.68 151.29 58.91 176 73.17 176.14 73.09 176.34 73.21Z" fill="#00D800"/><path d="M176.14 73.09 176 73.17 176.07 73.05 176.14 73.09Z" fill="#00D800"/><path d="M176.07 73.05 176 73.17 151.29 58.91 151.29 58.75 176.07 73.05Z" fill="#00D800"/><path d="M176 15.44 201 29.87 176.07 73.05 151.29 58.75 151.29 58.91 151 58.74 176 15.44Z" fill="#00D800"/><path d="M151 29.87 176 15.44 151 58.74 151 29.87Z" fill="#FFFF00"/><path d="M151 58.74 151 87.61 126 102.04 151 58.74Z" fill="#FF0000"/><path d="M151 29.87 151 58.74 126 44.3 151 29.87Z" fill="#404040"/><path d="M151 58.74 126 102.04 101 87.61 126 44.3 151 58.74Z" fill="#FF0000"/><path d="M151 29.87 126 44.3 126 15.44 151 29.87Z" fill="#404040"/><rect x="76" y="15.44" width="50" height="28.86" fill="#404040"/><path d="M126 44.3 101 87.61 101 58.74 126 44.3Z" fill="#404040"/><path d="M126 15.44 76 15.44 101 1 126 15.44Z" fill="#FFFF00"/><path d="M126 44.3 101 58.74 76 44.3 126 44.3Z" fill="#FFFF00"/><path d="M126 102.04 101 116.47 101 87.61 126 102.04Z" fill="#FF0000"/><path d="M101 87.61 101 116.47 76 102.04 101 87.61Z" fill="#404040"/><path d="M101 58.74 101 87.61 76 44.3 101 58.74Z" fill="#404040"/><path d="M76 44.3 101 87.61 76 102.04 51.09 58.9 51.09 58.75 51.06 58.7 76 44.3Z" fill="#FFFF00"/><path d="M76 15.44 76 44.3 51 29.87 76 15.44Z" fill="#404040"/><path d="M51.09 58.9 76 102.04 51.09 87.66 51.09 58.9Z" fill="#404040"/><path d="M76 44.3 51.06 58.7 51 58.59 51 29.87 76 44.3Z" fill="#404040"/><path d="M51.09 87.66 51.09 87.68 26.04 73.21 51 58.8 51 87.61 51.09 87.66Z" fill="#404040"/><path d="M51.09 58.9 51.09 87.66 51 87.61 51 58.8 51.03 58.79 51.09 58.9Z" fill="#404040"/><path d="M51.09 58.75 51.09 58.9 51.03 58.79 51.09 58.75Z" fill="#FFFF00"/><path d="M51.06 58.7 51.09 58.75 51.03 58.79 51 58.74 51.06 58.7Z" fill="#FFFF00"/><path d="M51.06 58.7 51 58.74 51 58.59 51.06 58.7Z" fill="#404040"/><path d="M51 58.74 51.03 58.79 51 58.8 51 58.74Z" fill="#404040"/><path d="M51 58.74 51 58.8 26.04 73.21 1.02 29.86 26 15.44 51 58.74Z" fill="#404040"/><path d="M51 58.59 51 58.74 26 15.44 26.12 15.51 51 58.59Z" fill="#404040"/><path d="M51 29.87 51 58.59 26.12 15.51 51 29.87Z" fill="#FFFF00"/><path d="M26.04 15.37 26.12 15.51 26 15.44 25.96 15.42 26.04 15.37Z" fill="#404040"/><path d="M1.02 29.86 26.04 73.21 1 58.75 1 29.87 1.02 29.86Z" fill="#404040"/><path d="M26 15.44 1.02 29.86 1 29.83 25.96 15.42 26 15.44Z" fill="#404040"/><path d="M1 1 25.96 15.42 1 29.83 1 1Z" fill="#404040"/><path d="M1.02 29.86 1 29.87 1 29.83 1.02 29.86Z" fill="#404040"/><path d="M126 15.44 101 1 76 15.44" stroke="#000000" stroke-width="2" stroke-linejoin="round" fill="none"/><line x1="151" y1="29.87" x2="126" y2="15.44" stroke="#000000" stroke-width="2" stroke-linejoin="round" fill="none"/><line x1="76" y1="15.44" x2="51" y2="29.87" stroke="#000000" stroke-width="2" stroke-linejoin="round" fill="none"/><rect x="76" y="15.44" width="50" height="28.86" stroke="#000000" stroke-width="2" stroke-linejoin="round" fill="none"/><line x1="126" y1="44.3" x2="101" y2="58.74" stroke="#000000" stroke-width="2" stroke-linejoin="round" fill="none"/><line x1="151" y1="29.87" x2="126" y2="44.3" stroke="#000000" stroke-width="2" stroke-linejoin="round" fill="none"/><line x1="101" y1="116.47" x2="126" y2="102.04" stroke="#000000" stroke-width="2" stroke-linejoin="round" fill="none"/><path d="M126 102.04 151 87.61 151 58.74" stroke="#000000" stroke-width="2" stroke-linejoin="round" fill="none"/><path d="M126 44.3 101 87.61 126 102.04 151 58.74 126 44.3Z" stroke="#000000" stroke-width="2" stroke-linejoin="round" fill="none"/><line x1="76" y1="44.3" x2="51" y2="29.87" stroke="#000000" stroke-width="2" stroke-linejoin="round" fill="none"/><path d="M101 87.61 101 58.74 76 44.3" stroke="#000000" stroke-width="2" stroke-linejoin="round" fill="none"/><line x1="51.09" y1="87.66" x2="76" y2="102.04" stroke="#000000" stroke-width="2" stroke-linejoin="round" fill="none"/><path d="M76 102.04 101 116.47 101 87.61" stroke="#000000" stroke-width="2" stroke-linejoin="round" fill="none"/><path d="M51.09 58.9 76 102.04 101 87.61 76 44.3 51.06 58.7" stroke="#000000" stroke-width="2" stroke-linejoin="round" fill="none"/><path d="M25.96 15.42 1 1 1 29.83" stroke="#000000" stroke-width="2" stroke-linejoin="round" fill="none"/><path d="M51 58.59 51 29.87 26.12 15.51" stroke="#000000" stroke-width="2" stroke-linejoin="round" fill="none"/><path d="M1 29.87 1 58.75 26.04 73.21" stroke="#000000" stroke-width="2" stroke-linejoin="round" fill="none"/><path d="M26.04 73.21 51.09 87.68 51.09 87.66 51.09 58.9 51.09 58.75" stroke="#000000" stroke-width="2" stroke-linejoin="round" fill="none"/><path d="M51.09 58.75 51.06 58.7 51 58.59 26.12 15.51 26.04 15.37 25.96 15.42 1 29.83 1.02 29.86 26.04 73.21 51 58.8 51.03 58.79 51.09 58.75Z" stroke="#000000" stroke-width="2" stroke-linejoin="round" fill="none"/><path d="M176 15.44 151 29.87 151 58.74" stroke="#000000" stroke-width="2" stroke-linejoin="round" fill="none"/><path d="M201 29.87 201 1 176 15.44" stroke="#000000" stroke-width="2" stroke-linejoin="round" fill="none"/><path d="M151.29 58.91 151.29 87.68 176.34 73.21 176.14 73.09 176.07 73.05 151.29 58.75 151.29 58.91Z" stroke="#000000" stroke-width="2" stroke-linejoin="round" fill="none"/><path d="M176.14 73.09 201 58.74 201 29.87" stroke="#000000" stroke-width="2" stroke-linejoin="round" fill="none"/><path d="M176.07 73.05 201 29.87 176 15.44 151 58.74 151.29 58.91" stroke="#000000" stroke-width="2" stroke-linejoin="round" fill="none"/></g></g></svg>