<?xml version="1.0" encoding="UTF-8" standalone="yes"?><svg xmlns="http://www.w3.org/2000/svg" xmlns:xlink="http://www.w3.org/1999/xlink" version="1.2" baseProfile="tiny" x="0" y="0" width="128" height="128" viewBox="-0.9 -0.9 1.8 1.8"><defs/><g stroke-width="0.1" stroke-linejoin="round"><polygon fill="#000000" stroke="#000000" points="0.206844,-0.103422 0.654001,-0.50224 0.59354,0.29677 0.184643,0.78142"/><polygon fill="#000000" stroke="#000000" points="-0.161033,-0.681501 0.654001,-0.50224 0.206844,-0.103422 -0.699152,-0.349576"/><polygon fill="#000000" stroke="#000000" points="-0.699152,-0.349576 0.206844,-0.103422 0.184643,0.78142 -0.630493,0.484187"/></g><g stroke-width="0" stroke-linejoin="round" stroke-opacity="0.5"><polygon fill="#00d800" stroke="#000000" points="0.232205,-0.0974414 0.382272,-0.231286 0.369992,0.045155 0.224997,0.189821"/><polygon fill="#404040" stroke="#000000" points="0.406982,-0.254538 0.540943,-0.374017 0.524671,-0.107772 0.394701,0.0219032"/><polygon fill="#404040" stroke="#000000" points="0.563101,-0.394874 0.683416,-0.502183 0.663995,-0.245529 0.54683,-0.128629"/><polygon fill="#00d800" stroke="#000000" points="0.223354,0.237845 0.368349,0.0931789 0.356932,0.350187 0.216681,0.50379"/><polygon fill="#00d800" stroke="#000000" points="0.392278,0.0682186 0.522248,-0.0614566 0.507063,0.18701 0.380861,0.325227"/><polygon fill="#00d800" stroke="#000000" points="0.543789,-0.0839309 0.660955,-0.200831 0.642769,0.0395027 0.528605,0.164536"/><polygon fill="#404040" stroke="#000000" points="0.215154,0.548393 0.355404,0.39479 0.344762,0.634346 0.208958,0.795308"/><polygon fill="#00d800" stroke="#000000" points="0.3786,0.368411 0.504803,0.230194 0.490599,0.462605 0.367958,0.607966"/><polygon fill="#00d800" stroke="#000000" points="0.525759,0.206358 0.639923,0.0813252 0.622858,0.306846 0.511556,0.438769"/><polygon fill="#404040" stroke="#000000" points="-0.163088,-0.712077 0.0689332,-0.661046 -0.0698799,-0.565611 -0.309358,-0.621854"/><polygon fill="#fefe00" stroke="#000000" points="0.111806,-0.651282 0.357083,-0.597335 0.226865,-0.496225 -0.027007,-0.555848"/><polygon fill="#404040" stroke="#000000" points="0.402513,-0.586988 0.662215,-0.529869 0.5419,-0.42256 0.272296,-0.485878"/><polygon fill="#fefe00" stroke="#000000" points="-0.335816,-0.604576 -0.0963381,-0.548334 -0.249928,-0.44274 -0.497193,-0.505035"/><polygon fill="#fefe00" stroke="#000000" points="-0.0520068,-0.537526 0.201865,-0.477903 0.0573471,-0.365688 -0.205596,-0.431933"/><polygon fill="#fefe00" stroke="#000000" points="0.248986,-0.466414 0.51859,-0.403097 0.384629,-0.283617 0.104468,-0.3542"/><polygon fill="#404040" stroke="#000000" points="-0.526508,-0.485888 -0.279242,-0.423593 -0.4501,-0.306128 -0.705457,-0.375507"/><polygon fill="#fefe00" stroke="#000000" points="-0.233382,-0.411564 0.0295617,-0.345319 -0.13175,-0.220065 -0.404239,-0.294099"/><polygon fill="#ee0000" stroke="#000000" points="0.0784748,-0.332488 0.358636,-0.261906 0.208568,-0.128061 -0.0828369,-0.207234"/><polygon fill="#404040" stroke="#000000" points="-0.720046,-0.341518 -0.464688,-0.272139 -0.451075,0.00268423 -0.697901,-0.0726014"/><polygon fill="#404040" stroke="#000000" points="-0.418971,-0.258946 -0.146482,-0.184912 -0.14259,0.096026 -0.405358,0.0158778"/><polygon fill="#ffffff" stroke="#000000" points="-0.0977062,-0.170836 0.193699,-0.0916626 0.186491,0.1956 -0.0938144,0.110102"/><polygon fill="#ee0000" stroke="#000000" points="-0.69483,-0.0263151 -0.448004,0.0489705 -0.43534,0.304631 -0.674184,0.2244"/><polygon fill="#ee0000" stroke="#000000" points="-0.403838,0.0631333 -0.141071,0.143282 -0.137459,0.40402 -0.391174,0.318794"/><polygon fill="#ee0000" stroke="#000000" points="-0.0940598,0.158357 0.186246,0.243854 0.179573,0.509799 -0.0904479,0.419096"/><polygon fill="#ee0000" stroke="#000000" points="-0.67132,0.267561 -0.432476,0.347792 -0.420665,0.586226 -0.652026,0.501862"/><polygon fill="#ee0000" stroke="#000000" points="-0.38976,0.362762 -0.136045,0.447988 -0.132683,0.690631 -0.37795,0.601197"/><polygon fill="#404040" stroke="#000000" points="-0.0906758,0.463889 0.179345,0.554592 0.17315,0.801508 -0.0873145,0.706531"/></g></svg>
