<svg width="128" height="128" viewBox="-0.9 -0.9 1.8 1.8" xmlns="http://www.w3.org/2000/svg" xmlns:xlink="http://www.w3.org/1999/xlink" overflow="hidden"><g stroke-width="0.1" stroke-linejoin="round"><path d="M-0.522222-0.522222 0.522222-0.522222 0.522222 0.522222-0.522222 0.522222Z" id="1" stroke="#000000"/></g><g stroke-width="0" stroke-linejoin="round" stroke-opacity="0.5"><path d="M-0.541667-0.541667-0.384259-0.541667-0.384259-0.384259-0.541667-0.384259Z" id="1" stroke="#000000" fill="#FEFE00"/><path d="M-0.356481-0.541667-0.199074-0.541667-0.199074-0.384259-0.356481-0.384259Z" id="2" stroke="#000000" fill="#FEFE00"/><path d="M-0.171296-0.541667-0.0138889-0.541667-0.0138889-0.384259-0.171296-0.384259Z" id="3" stroke="#000000" fill="#FEFE00"/><path d="M0.0138889-0.541667 0.171296-0.541667 0.171296-0.384259 0.0138889-0.384259Z" id="4" stroke="#000000" fill="#FEFE00"/><path d="M0.199074-0.541667 0.356481-0.541667 0.356481-0.384259 0.199074-0.384259Z" id="5" stroke="#000000" fill="#FEFE00"/><path d="M0.384259-0.541667 0.541667-0.541667 0.541667-0.384259 0.384259-0.384259Z" id="6" stroke="#000000" fill="#FEFE00"/><path d="M-0.541667-0.356481-0.384259-0.356481-0.384259-0.199074-0.541667-0.199074Z" id="7" stroke="#000000" fill="#FEFE00"/><path d="M-0.356481-0.356481-0.199074-0.356481-0.199074-0.199074-0.356481-0.199074Z" id="8" stroke="#000000" fill="#FEFE00"/><path d="M-0.171296-0.356481-0.0138889-0.356481-0.0138889-0.199074-0.171296-0.199074Z" id="9" stroke="#000000" fill="#FEFE00"/><path d="M0.0138889-0.356481 0.171296-0.356481 0.171296-0.199074 0.0138889-0.199074Z" id="10" stroke="#000000" fill="#FEFE00"/><path d="M0.199074-0.356481 0.356481-0.356481 0.356481-0.199074 0.199074-0.199074Z" id="11" stroke="#000000" fill="#FEFE00"/><path d="M0.384259-0.356481 0.541667-0.356481 0.541667-0.199074 0.384259-0.199074Z" id="12" stroke="#000000" fill="#FEFE00"/><path d="M-0.541667-0.171296-0.384259-0.171296-0.384259-0.0138889-0.541667-0.0138889Z" id="13" stroke="#000000" fill="#FEFE00"/><path d="M-0.356481-0.171296-0.199074-0.171296-0.199074-0.0138889-0.356481-0.0138889Z" id="14" stroke="#000000" fill="#FEFE00"/><path d="M-0.171296-0.171296-0.0138889-0.171296-0.0138889-0.0138889-0.171296-0.0138889Z" id="15" stroke="#000000" fill="#FEFE00"/><path d="M0.0138889-0.171296 0.171296-0.171296 0.171296-0.0138889 0.0138889-0.0138889Z" id="16" stroke="#000000" fill="#FEFE00"/><path d="M0.199074-0.171296 0.356481-0.171296 0.356481-0.0138889 0.199074-0.0138889Z" id="17" stroke="#000000" fill="#FEFE00"/><path d="M0.384259-0.171296 0.541667-0.171296 0.541667-0.0138889 0.384259-0.0138889Z" id="18" stroke="#000000" fill="#FEFE00"/><path d="M-0.541667 0.0138889-0.384259 0.0138889-0.384259 0.171296-0.541667 0.171296Z" id="19" stroke="#000000" fill="#FEFE00"/><path d="M-0.356481 0.0138889-0.199074 0.0138889-0.199074 0.171296-0.356481 0.171296Z" id="20" stroke="#000000" fill="#FEFE00"/><path d="M-0.171296 0.0138889-0.0138889 0.0138889-0.0138889 0.171296-0.171296 0.171296Z" id="21" stroke="#000000" fill="#FEFE00"/><path d="M0.0138889 0.0138889 0.171296 0.0138889 0.171296 0.171296 0.0138889 0.171296Z" id="22" stroke="#000000" fill="#FEFE00"/><path d="M0.199074 0.0138889 0.356481 0.0138889 0.356481 0.171296 0.199074 0.171296Z" id="23" stroke="#000000" fill="#FEFE00"/><path d="M0.384259 0.0138889 0.541667 0.0138889 0.541667 0.171296 0.384259 0.171296Z" id="24" stroke="#000000" fill="#FEFE00"/><path d="M-0.541667 0.199074-0.384259 0.199074-0.384259 0.356481-0.541667 0.356481Z" id="25" stroke="#000000" fill="#FEFE00"/><path d="M-0.356481 0.199074-0.199074 0.199074-0.199074 0.356481-0.356481 0.356481Z" id="26" stroke="#000000" fill="#FEFE00"/><path d="M-0.171296 0.199074-0.0138889 0.199074-0.0138889 0.356481-0.171296 0.356481Z" id="27" stroke="#000000" fill="#FEFE00"/><path d="M0.0138889 0.199074 0.171296 0.199074 0.171296 0.356481 0.0138889 0.356481Z" id="28" stroke="#000000" fill="#FEFE00"/><path d="M0.199074 0.199074 0.356481 0.199074 0.356481 0.356481 0.199074 0.356481Z" id="29" stroke="#000000" fill="#FEFE00"/><path d="M0.384259 0.199074 0.541667 0.199074 0.541667 0.356481 0.384259 0.356481Z" id="30" stroke="#000000" fill="#FEFE00"/><path d="M-0.541667 0.384259-0.384259 0.384259-0.384259 0.541667-0.541667 0.541667Z" id="31" stroke="#000000" fill="#FEFE00"/><path d="M-0.356481 0.384259-0.199074 0.384259-0.199074 0.541667-0.356481 0.541667Z" id="32" stroke="#000000" fill="#FEFE00"/><path d="M-0.171296 0.384259-0.0138889 0.384259-0.0138889 0.541667-0.171296 0.541667Z" id="33" stroke="#000000" fill="#FEFE00"/><path d="M0.0138889 0.384259 0.171296 0.384259 0.171296 0.541667 0.0138889 0.541667Z" id="34" stroke="#000000" fill="#FEFE00"/><path d="M0.199074 0.384259 0.356481 0.384259 0.356481 0.541667 0.199074 0.541667Z" id="35" stroke="#000000" fill="#FEFE00"/><path d="M0.384259 0.384259 0.541667 0.384259 0.541667 0.541667 0.384259 0.541667Z" id="36" stroke="#000000" fill="#FEFE00"/></g><g stroke-width="0.02" stroke-linejoin="round"><path d="M-0.549603 0.55496-0.375529 0.55496-0.363095 0.73631-0.530952 0.73631Z" id="1" stroke="#000000" fill="#FFA100"/><path d="M-0.364616 0.55496-0.190542 0.55496-0.184325 0.73631-0.352183 0.73631Z" id="2" stroke="#000000" fill="#EE0000"/><path d="M-0.17963 0.55496-0.00555556 0.55496-0.00555556 0.73631-0.173413 0.73631Z" id="3" stroke="#000000" fill="#EE0000"/><path d="M0.00535714 0.55496 0.179431 0.55496 0.173214 0.73631 0.00535714 0.73631Z" id="4" stroke="#000000" fill="#EE0000"/><path d="M0.190344 0.55496 0.364418 0.55496 0.351984 0.73631 0.184127 0.73631Z" id="5" stroke="#000000" fill="#EE0000"/><path d="M0.375331 0.55496 0.549405 0.55496 0.530754 0.73631 0.362897 0.73631Z" id="6" stroke="#000000" fill="#FFA100"/><path d="M-0.55496-0.549603-0.55496-0.375529-0.73631-0.363095-0.73631-0.530952Z" id="7" stroke="#000000" fill="#00D800"/><path d="M-0.55496-0.364616-0.55496-0.190542-0.73631-0.184325-0.73631-0.352183Z" id="8" stroke="#000000" fill="#00D800"/><path d="M-0.55496-0.17963-0.55496-0.00555556-0.73631-0.00555556-0.73631-0.173413Z" id="9" stroke="#000000" fill="#00D800"/><path d="M-0.55496 0.00535714-0.55496 0.179431-0.73631 0.173214-0.73631 0.00535714Z" id="10" stroke="#000000" fill="#00D800"/><path d="M-0.55496 0.190344-0.55496 0.364418-0.73631 0.351984-0.73631 0.184127Z" id="11" stroke="#000000" fill="#00D800"/><path d="M-0.55496 0.375331-0.55496 0.549405-0.73631 0.530754-0.73631 0.362897Z" id="12" stroke="#000000" fill="#00D800"/><path d="M0.549603-0.55496 0.375529-0.55496 0.363095-0.73631 0.530952-0.73631Z" id="13" stroke="#000000" fill="#EE0000"/><path d="M0.364616-0.55496 0.190542-0.55496 0.184325-0.73631 0.352183-0.73631Z" id="14" stroke="#000000" fill="#FFA100"/><path d="M0.17963-0.55496 0.00555556-0.55496 0.00555556-0.73631 0.173413-0.73631Z" id="15" stroke="#000000" fill="#FFA100"/><path d="M-0.00535714-0.55496-0.179431-0.55496-0.173214-0.73631-0.00535714-0.73631Z" id="16" stroke="#000000" fill="#FFA100"/><path d="M-0.190344-0.55496-0.364418-0.55496-0.351984-0.73631-0.184127-0.73631Z" id="17" stroke="#000000" fill="#FFA100"/><path d="M-0.375331-0.55496-0.549405-0.55496-0.530754-0.73631-0.362897-0.73631Z" id="18" stroke="#000000" fill="#EE0000"/><path d="M0.55496 0.549603 0.55496 0.375529 0.73631 0.363095 0.73631 0.530952Z" id="19" stroke="#000000" fill="#0000F2"/><path d="M0.55496 0.364616 0.55496 0.190542 0.73631 0.184325 0.73631 0.352183Z" id="20" stroke="#000000" fill="#0000F2"/><path d="M0.55496 0.17963 0.55496 0.00555556 0.73631 0.00555556 0.73631 0.173413Z" id="21" stroke="#000000" fill="#0000F2"/><path d="M0.55496-0.00535714 0.55496-0.179431 0.73631-0.173214 0.73631-0.00535714Z" id="22" stroke="#000000" fill="#0000F2"/><path d="M0.55496-0.190344 0.55496-0.364418 0.73631-0.351984 0.73631-0.184127Z" id="23" stroke="#000000" fill="#0000F2"/><path d="M0.55496-0.375331 0.55496-0.549405 0.73631-0.530754 0.73631-0.362897Z" id="24" stroke="#000000" fill="#0000F2"/></g></svg>