<svg version="1.1" width="128" height="128" viewBox="-0.9 -0.9 1.8 1.8" xmlns="http://www.w3.org/2000/svg" xmlns:xlink="http://www.w3.org/1999/xlink" overflow="hidden"><rect x="-0.9" y="-0.9" width="1.8" height="1.8" fill="#FFFFFF"/><g stroke-width="0.1" stroke-linejoin="round" opacity="1"><path d=" M -0.47 -0.66468 L 0.47 -0.66468 L 0.547416 -6.07754e-17 L -0.547416 -6.07754e-17 Z" stroke="#000000" fill="#000000"/><path d=" M -0.547416 -6.07754e-17 L 0.547416 -6.07754e-17 L 0.47 0.66468 L -0.47 0.66468 Z" stroke="#000000" fill="#000000"/></g><g stroke-width="0" stroke-linejoin="round" stroke-opacity="0.5" opacity="1"><path d=" M -0.488103 -0.699335 L -0.346437 -0.699335 L -0.353276 -0.611252 L -0.498363 -0.611252 Z" stroke="#000000" fill="#BFBFBF"/><path d=" M -0.321135 -0.699335 L -0.179468 -0.699335 L -0.182888 -0.611252 L -0.327974 -0.611252 Z" stroke="#000000" fill="#BFBFBF"/><path d=" M -0.154167 -0.699335 L -0.0125 -0.699335 L -0.0125 -0.611252 L -0.157586 -0.611252 Z" stroke="#000000" fill="#BFBFBF"/><path d=" M 0.0128017 -0.699335 L 0.154468 -0.699335 L 0.157888 -0.611252 L 0.0128017 -0.611252 Z" stroke="#000000" fill="#BFBFBF"/><path d=" M 0.17977 -0.699335 L 0.321437 -0.699335 L 0.328276 -0.611252 L 0.18319 -0.611252 Z" stroke="#000000" fill="#BFBFBF"/><path d=" M 0.346739 -0.699335 L 0.488405 -0.699335 L 0.498664 -0.611252 L 0.353578 -0.611252 Z" stroke="#000000" fill="#BFBFBF"/><path d=" M -0.499901 -0.595323 L -0.354815 -0.595323 L -0.361993 -0.502883 L -0.510668 -0.502883 Z" stroke="#000000" fill="#BFBFBF"/><path d=" M -0.328895 -0.595323 L -0.183808 -0.595323 L -0.187397 -0.502883 L -0.336072 -0.502883 Z" stroke="#000000" fill="#404040"/><path d=" M -0.157888 -0.595323 L -0.0128017 -0.595323 L -0.0128017 -0.502883 L -0.161477 -0.502883 Z" stroke="#000000" fill="#404040"/><path d=" M 0.0131184 -0.595323 L 0.158205 -0.595323 L 0.161794 -0.502883 L 0.0131184 -0.502883 Z" stroke="#000000" fill="#404040"/><path d=" M 0.184125 -0.595323 L 0.329211 -0.595323 L 0.336389 -0.502883 L 0.187714 -0.502883 Z" stroke="#000000" fill="#00D800"/><path d=" M 0.355131 -0.595323 L 0.500218 -0.595323 L 0.510985 -0.502883 L 0.362309 -0.502883 Z" stroke="#000000" fill="#BFBFBF"/><path d=" M -0.512283 -0.486156 L -0.363608 -0.486156 L -0.37115 -0.389026 L -0.523596 -0.389026 Z" stroke="#000000" fill="#BFBFBF"/><path d=" M -0.337039 -0.486156 L -0.188363 -0.486156 L -0.192134 -0.389026 L -0.34458 -0.389026 Z" stroke="#000000" fill="#404040"/><path d=" M -0.161794 -0.486156 L -0.0131184 -0.486156 L -0.0131184 -0.389026 L -0.165565 -0.389026 Z" stroke="#000000" fill="#404040"/><path d=" M 0.0134511 -0.486156 L 0.162126 -0.486156 L 0.165897 -0.389026 L 0.0134511 -0.389026 Z" stroke="#000000" fill="#404040"/><path d=" M 0.188696 -0.486156 L 0.337371 -0.486156 L 0.344913 -0.389026 L 0.192467 -0.389026 Z" stroke="#000000" fill="#404040"/><path d=" M 0.363941 -0.486156 L 0.512616 -0.486156 L 0.523929 -0.389026 L 0.371483 -0.389026 Z" stroke="#000000" fill="#BFBFBF"/><path d=" M -0.525295 -0.371439 L -0.372848 -0.371439 L -0.380783 -0.269254 L -0.537196 -0.269254 Z" stroke="#000000" fill="#BFBFBF"/><path d=" M -0.345596 -0.371439 L -0.19315 -0.371439 L -0.197117 -0.269254 L -0.35353 -0.269254 Z" stroke="#000000" fill="#404040"/><path d=" M -0.165897 -0.371439 L -0.0134511 -0.371439 L -0.0134511 -0.269254 L -0.169865 -0.269254 Z" stroke="#000000" fill="#404040"/><path d=" M 0.0138012 -0.371439 L 0.166247 -0.371439 L 0.170215 -0.269254 L 0.0138012 -0.269254 Z" stroke="#000000" fill="#404040"/><path d=" M 0.1935 -0.371439 L 0.345946 -0.371439 L 0.35388 -0.269254 L 0.197467 -0.269254 Z" stroke="#000000" fill="#00D800"/><path d=" M 0.373198 -0.371439 L 0.525645 -0.371439 L 0.537546 -0.269254 L 0.381133 -0.269254 Z" stroke="#000000" fill="#BFBFBF"/><path d=" M -0.538984 -0.25074 L -0.38257 -0.25074 L -0.390929 -0.143094 L -0.551522 -0.143094 Z" stroke="#000000" fill="#BFBFBF"/><path d=" M -0.354599 -0.25074 L -0.198186 -0.25074 L -0.202365 -0.143094 L -0.362958 -0.143094 Z" stroke="#000000" fill="#404040"/><path d=" M -0.170215 -0.25074 L -0.0138012 -0.25074 L -0.0138012 -0.143094 L -0.174394 -0.143094 Z" stroke="#000000" fill="#404040"/><path d=" M 0.0141699 -0.25074 L 0.170583 -0.25074 L 0.174763 -0.143094 L 0.0141699 -0.143094 Z" stroke="#000000" fill="#00D800"/><path d=" M 0.198555 -0.25074 L 0.354968 -0.25074 L 0.363326 -0.143094 L 0.202734 -0.143094 Z" stroke="#000000" fill="#404040"/><path d=" M 0.382939 -0.25074 L 0.539353 -0.25074 L 0.55189 -0.143094 L 0.391298 -0.143094 Z" stroke="#000000" fill="#BFBFBF"/><path d=" M -0.553406 -0.123576 L -0.392813 -0.123576 L -0.40163 -0.0100197 L -0.566632 -0.0100197 Z" stroke="#000000" fill="#BFBFBF"/><path d=" M -0.364084 -0.123576 L -0.203492 -0.123576 L -0.2079 -0.0100197 L -0.372902 -0.0100197 Z" stroke="#000000" fill="#BFBFBF"/><path d=" M -0.174763 -0.123576 L -0.0141699 -0.123576 L -0.0141699 -0.0100197 L -0.179171 -0.0100197 Z" stroke="#000000" fill="#BFBFBF"/><path d=" M 0.0145589 -0.123576 L 0.175152 -0.123576 L 0.17956 -0.0100197 L 0.0145589 -0.0100197 Z" stroke="#000000" fill="#BFBFBF"/><path d=" M 0.203881 -0.123576 L 0.364473 -0.123576 L 0.373291 -0.0100197 L 0.208289 -0.0100197 Z" stroke="#000000" fill="#BFBFBF"/><path d=" M 0.393202 -0.123576 L 0.553795 -0.123576 L 0.567021 -0.0100197 L 0.40202 -0.0100197 Z" stroke="#000000" fill="#BFBFBF"/><path d=" M -0.567021 0.0100197 L -0.40202 0.0100197 L -0.393202 0.123576 L -0.553795 0.123576 Z" stroke="#000000" fill="#BFBFBF"/><path d=" M -0.373291 0.0100197 L -0.208289 0.0100197 L -0.203881 0.123576 L -0.364473 0.123576 Z" stroke="#000000" fill="#BFBFBF"/><path d=" M -0.17956 0.0100197 L -0.0145589 0.0100197 L -0.0145589 0.123576 L -0.175152 0.123576 Z" stroke="#000000" fill="#BFBFBF"/><path d=" M 0.0141699 0.0100197 L 0.179171 0.0100197 L 0.174763 0.123576 L 0.0141699 0.123576 Z" stroke="#000000" fill="#BFBFBF"/><path d=" M 0.2079 0.0100197 L 0.372902 0.0100197 L 0.364084 0.123576 L 0.203492 0.123576 Z" stroke="#000000" fill="#BFBFBF"/><path d=" M 0.40163 0.0100197 L 0.566632 0.0100197 L 0.553406 0.123576 L 0.392813 0.123576 Z" stroke="#000000" fill="#BFBFBF"/><path d=" M -0.55189 0.143094 L -0.391298 0.143094 L -0.382939 0.25074 L -0.539353 0.25074 Z" stroke="#000000" fill="#BFBFBF"/><path d=" M -0.363326 0.143094 L -0.202734 0.143094 L -0.198555 0.25074 L -0.354968 0.25074 Z" stroke="#000000" fill="#00D800"/><path d=" M -0.174763 0.143094 L -0.0141699 0.143094 L -0.0141699 0.25074 L -0.170583 0.25074 Z" stroke="#000000" fill="#00D800"/><path d=" M 0.0138012 0.143094 L 0.174394 0.143094 L 0.170215 0.25074 L 0.0138012 0.25074 Z" stroke="#000000" fill="#00D800"/><path d=" M 0.202365 0.143094 L 0.362958 0.143094 L 0.354599 0.25074 L 0.198186 0.25074 Z" stroke="#000000" fill="#404040"/><path d=" M 0.390929 0.143094 L 0.551522 0.143094 L 0.538984 0.25074 L 0.38257 0.25074 Z" stroke="#000000" fill="#BFBFBF"/><path d=" M -0.537546 0.269254 L -0.381133 0.269254 L -0.373198 0.371439 L -0.525645 0.371439 Z" stroke="#000000" fill="#BFBFBF"/><path d=" M -0.35388 0.269254 L -0.197467 0.269254 L -0.1935 0.371439 L -0.345946 0.371439 Z" stroke="#000000" fill="#00D800"/><path d=" M -0.170215 0.269254 L -0.0138012 0.269254 L -0.0138012 0.371439 L -0.166247 0.371439 Z" stroke="#000000" fill="#00D800"/><path d=" M 0.0134511 0.269254 L 0.169865 0.269254 L 0.165897 0.371439 L 0.0134511 0.371439 Z" stroke="#000000" fill="#00D800"/><path d=" M 0.197117 0.269254 L 0.35353 0.269254 L 0.345596 0.371439 L 0.19315 0.371439 Z" stroke="#000000" fill="#404040"/><path d=" M 0.380783 0.269254 L 0.537196 0.269254 L 0.525295 0.371439 L 0.372848 0.371439 Z" stroke="#000000" fill="#BFBFBF"/><path d=" M -0.523929 0.389026 L -0.371483 0.389026 L -0.363941 0.486156 L -0.512616 0.486156 Z" stroke="#000000" fill="#BFBFBF"/><path d=" M -0.344913 0.389026 L -0.192467 0.389026 L -0.188696 0.486156 L -0.337371 0.486156 Z" stroke="#000000" fill="#00D800"/><path d=" M -0.165897 0.389026 L -0.0134511 0.389026 L -0.0134511 0.486156 L -0.162126 0.486156 Z" stroke="#000000" fill="#00D800"/><path d=" M 0.0131184 0.389026 L 0.165565 0.389026 L 0.161794 0.486156 L 0.0131184 0.486156 Z" stroke="#000000" fill="#00D800"/><path d=" M 0.192134 0.389026 L 0.34458 0.389026 L 0.337039 0.486156 L 0.188363 0.486156 Z" stroke="#000000" fill="#404040"/><path d=" M 0.37115 0.389026 L 0.523596 0.389026 L 0.512283 0.486156 L 0.363608 0.486156 Z" stroke="#000000" fill="#BFBFBF"/><path d=" M -0.510985 0.502883 L -0.362309 0.502883 L -0.355131 0.595323 L -0.500218 0.595323 Z" stroke="#000000" fill="#BFBFBF"/><path d=" M -0.336389 0.502883 L -0.187714 0.502883 L -0.184125 0.595323 L -0.329211 0.595323 Z" stroke="#000000" fill="#00D800"/><path d=" M -0.161794 0.502883 L -0.0131184 0.502883 L -0.0131184 0.595323 L -0.158205 0.595323 Z" stroke="#000000" fill="#00D800"/><path d=" M 0.0128017 0.502883 L 0.161477 0.502883 L 0.157888 0.595323 L 0.0128017 0.595323 Z" stroke="#000000" fill="#00D800"/><path d=" M 0.187397 0.502883 L 0.336072 0.502883 L 0.328895 0.595323 L 0.183808 0.595323 Z" stroke="#000000" fill="#00D800"/><path d=" M 0.361993 0.502883 L 0.510668 0.502883 L 0.499901 0.595323 L 0.354815 0.595323 Z" stroke="#000000" fill="#BFBFBF"/><path d=" M -0.498664 0.611252 L -0.353578 0.611252 L -0.346739 0.699335 L -0.488405 0.699335 Z" stroke="#000000" fill="#BFBFBF"/><path d=" M -0.328276 0.611252 L -0.18319 0.611252 L -0.17977 0.699335 L -0.321437 0.699335 Z" stroke="#000000" fill="#BFBFBF"/><path d=" M -0.157888 0.611252 L -0.0128017 0.611252 L -0.0128017 0.699335 L -0.154468 0.699335 Z" stroke="#000000" fill="#BFBFBF"/><path d=" M 0.0125 0.611252 L 0.157586 0.611252 L 0.154167 0.699335 L 0.0125 0.699335 Z" stroke="#000000" fill="#BFBFBF"/><path d=" M 0.182888 0.611252 L 0.327974 0.611252 L 0.321135 0.699335 L 0.179468 0.699335 Z" stroke="#000000" fill="#BFBFBF"/><path d=" M 0.353276 0.611252 L 0.498363 0.611252 L 0.488103 0.699335 L 0.346437 0.699335 Z" stroke="#000000" fill="#BFBFBF"/></g></svg>