<svg version="1.1" viewBox="0 0 405 200" xmlns="http://www.w3.org/2000/svg" xmlns:xlink="http://www.w3.org/1999/xlink" overflow="hidden"><g stroke-linejoin="round"><path d=" M 100 100 L 84.8425 156.569 L 58.589 141.411 Z" stroke="#000000" stroke-width="4" fill="#FFFFFF"/><path d=" M 84.8425 156.569 L 81.0531 170.711 L 48.2362 151.764 L 58.589 141.411 Z" stroke="#000000" stroke-width="4" fill="#0000F2"/><path d=" M 100 100 L 58.589 141.411 L 22.7259 120.706 L 43.4315 84.8425 Z" stroke="#000000" stroke-width="4" fill="#FFFFFF"/><path d=" M 22.7259 120.706 L 3.40742 125.882 L 48.2362 151.764 L 58.589 141.411 Z" stroke="#000000" stroke-width="4" fill="#EE0000"/><path d=" M 22.7259 120.706 L 3.40742 125.882 L 29.2893 81.0531 L 43.4315 84.8425 Z" stroke="#000000" stroke-width="4" fill="#00D800"/><path d=" M 100 100 L 43.4315 84.8425 L 43.4315 43.4315 L 84.8425 43.4315 Z" stroke="#000000" stroke-width="4" fill="#FEFE00"/><path d=" M 43.4315 43.4315 L 29.2893 29.2893 L 29.2893 81.0531 L 43.4315 84.8425 Z" stroke="#000000" stroke-width="4" fill="#EE0000"/><path d=" M 43.4315 43.4315 L 29.2893 29.2893 L 81.0531 29.2893 L 84.8425 43.4315 Z" stroke="#000000" stroke-width="4" fill="#0000F2"/><path d=" M 100 100 L 84.8425 43.4315 L 115.157 43.4315 Z" stroke="#000000" stroke-width="4" fill="#FEFE00"/><path d=" M 84.8425 43.4315 L 81.0531 29.2893 L 118.947 29.2893 L 115.157 43.4315 Z" stroke="#000000" stroke-width="4" fill="#EE0000"/><path d=" M 100 100 L 115.157 43.4315 L 141.411 58.589 Z" stroke="#000000" stroke-width="4" fill="#FFFFFF"/><path d=" M 115.157 43.4315 L 118.947 29.2893 L 151.764 48.2362 L 141.411 58.589 Z" stroke="#000000" stroke-width="4" fill="#FFA100"/><path d=" M 100 100 L 141.411 58.589 L 177.274 79.2945 L 156.569 115.157 Z" stroke="#000000" stroke-width="4" fill="#FFFFFF"/><path d=" M 177.274 79.2945 L 196.593 74.1181 L 151.764 48.2362 L 141.411 58.589 Z" stroke="#000000" stroke-width="4" fill="#FFA100"/><path d=" M 177.274 79.2945 L 196.593 74.1181 L 170.711 118.947 L 156.569 115.157 Z" stroke="#000000" stroke-width="4" fill="#0000F2"/><path d=" M 100 100 L 156.569 115.157 L 156.569 156.569 L 115.157 156.569 Z" stroke="#000000" stroke-width="4" fill="#FEFE00"/><path d=" M 156.569 156.569 L 170.711 170.711 L 170.711 118.947 L 156.569 115.157 Z" stroke="#000000" stroke-width="4" fill="#FFA100"/><path d=" M 156.569 156.569 L 170.711 170.711 L 118.947 170.711 L 115.157 156.569 Z" stroke="#000000" stroke-width="4" fill="#00D800"/><path d=" M 100 100 L 115.157 156.569 L 84.8425 156.569 Z" stroke="#000000" stroke-width="4" fill="#FEFE00"/><path d=" M 115.157 156.569 L 118.947 170.711 L 81.0531 170.711 L 84.8425 156.569 Z" stroke="#000000" stroke-width="4" fill="#0000F2"/><path d=" M 305 100 L 320.158 43.4315 L 284.294 22.7259 L 263.589 58.589 Z" stroke="#000000" stroke-width="4" fill="#FEFE00"/><path d=" M 284.294 22.7259 L 279.118 3.40742 L 323.947 29.2893 L 320.158 43.4315 Z" stroke="#000000" stroke-width="4" fill="#00D800"/><path d=" M 284.294 22.7259 L 279.118 3.40742 L 253.236 48.2362 L 263.589 58.589 Z" stroke="#000000" stroke-width="4" fill="#EE0000"/><path d=" M 305 100 L 263.589 58.589 L 248.431 84.8425 Z" stroke="#000000" stroke-width="4" fill="#FEFE00"/><path d=" M 263.589 58.589 L 253.236 48.2362 L 234.289 81.0531 L 248.431 84.8425 Z" stroke="#000000" stroke-width="4" fill="#00D800"/><path d=" M 305 100 L 248.431 84.8425 L 248.431 115.157 Z" stroke="#000000" stroke-width="4" fill="#FFFFFF"/><path d=" M 248.431 84.8425 L 234.289 81.0531 L 234.289 118.947 L 248.431 115.157 Z" stroke="#000000" stroke-width="4" fill="#00D800"/><path d=" M 305 100 L 248.431 115.157 L 248.431 156.569 L 289.842 156.569 Z" stroke="#000000" stroke-width="4" fill="#FFFFFF"/><path d=" M 248.431 156.569 L 234.289 170.711 L 234.289 118.947 L 248.431 115.157 Z" stroke="#000000" stroke-width="4" fill="#00D800"/><path d=" M 248.431 156.569 L 234.289 170.711 L 286.053 170.711 L 289.842 156.569 Z" stroke="#000000" stroke-width="4" fill="#FFA100"/><path d=" M 305 100 L 289.842 156.569 L 325.706 177.274 L 346.411 141.411 Z" stroke="#000000" stroke-width="4" fill="#FEFE00"/><path d=" M 325.706 177.274 L 330.882 196.593 L 286.053 170.711 L 289.842 156.569 Z" stroke="#000000" stroke-width="4" fill="#0000F2"/><path d=" M 325.706 177.274 L 330.882 196.593 L 356.764 151.764 L 346.411 141.411 Z" stroke="#000000" stroke-width="4" fill="#FFA100"/><path d=" M 305 100 L 346.411 141.411 L 361.569 115.157 Z" stroke="#000000" stroke-width="4" fill="#FEFE00"/><path d=" M 346.411 141.411 L 356.764 151.764 L 375.711 118.947 L 361.569 115.157 Z" stroke="#000000" stroke-width="4" fill="#FFA100"/><path d=" M 305 100 L 361.569 115.157 L 361.569 84.8425 Z" stroke="#000000" stroke-width="4" fill="#FFFFFF"/><path d=" M 361.569 115.157 L 375.711 118.947 L 375.711 81.0531 L 361.569 84.8425 Z" stroke="#000000" stroke-width="4" fill="#EE0000"/><path d=" M 305 100 L 361.569 84.8425 L 361.569 43.4315 L 320.158 43.4315 Z" stroke="#000000" stroke-width="4" fill="#FFFFFF"/><path d=" M 361.569 43.4315 L 375.711 29.2893 L 375.711 81.0531 L 361.569 84.8425 Z" stroke="#000000" stroke-width="4" fill="#0000F2"/><path d=" M 361.569 43.4315 L 375.711 29.2893 L 323.947 29.2893 L 320.158 43.4315 Z" stroke="#000000" stroke-width="4" fill="#EE0000"/></g></svg>