<svg version="1.1" viewBox="0 0 405 200" xmlns="http://www.w3.org/2000/svg" xmlns:xlink="http://www.w3.org/1999/xlink" overflow="hidden"><g stroke-linejoin="round"><path d=" M 100 100 L 78.5641 180 L 20 180 L 20 121.436 Z" stroke="#000000" stroke-width="4" fill="#FEFE00"/><path d=" M 20 180 L 0 200 L 73.2051 200 L 78.5641 180 Z" stroke="#000000" stroke-width="4" fill="#EE0000"/><path d=" M 20 180 L 0 200 L 0 126.795 L 20 121.436 Z" stroke="#000000" stroke-width="4" fill="#0000F2"/><path d=" M 100 100 L 20 121.436 L 20 78.5641 Z" stroke="#000000" stroke-width="4" fill="#FEFE00"/><path d=" M 20 121.436 L 0 126.795 L -1.42109e-14 73.2051 L 20 78.5641 Z" stroke="#000000" stroke-width="4" fill="#0000F2"/><path d=" M 100 100 L 20 78.5641 L 20 20 L 78.5641 20 Z" stroke="#000000" stroke-width="4" fill="#FEFE00"/><path d=" M 20 20 L -1.42109e-14 0 L -1.42109e-14 73.2051 L 20 78.5641 Z" stroke="#000000" stroke-width="4" fill="#0000F2"/><path d=" M 20 20 L -1.42109e-14 0 L 73.2051 0 L 78.5641 20 Z" stroke="#000000" stroke-width="4" fill="#FFA100"/><path d=" M 100 100 L 78.5641 20 L 121.436 20 Z" stroke="#000000" stroke-width="4" fill="#FEFE00"/><path d=" M 78.5641 20 L 73.2051 0 L 126.795 -1.42109e-14 L 121.436 20 Z" stroke="#000000" stroke-width="4" fill="#EE0000"/><path d=" M 100 100 L 121.436 20 L 180 20 L 180 78.5641 Z" stroke="#000000" stroke-width="4" fill="#FEFE00"/><path d=" M 180 20 L 200 -5.68434e-14 L 126.795 -1.42109e-14 L 121.436 20 Z" stroke="#000000" stroke-width="4" fill="#FFA100"/><path d=" M 180 20 L 200 -5.68434e-14 L 200 73.2051 L 180 78.5641 Z" stroke="#000000" stroke-width="4" fill="#00D800"/><path d=" M 100 100 L 180 78.5641 L 180 121.436 Z" stroke="#000000" stroke-width="4" fill="#FEFE00"/><path d=" M 180 78.5641 L 200 73.2051 L 200 126.795 L 180 121.436 Z" stroke="#000000" stroke-width="4" fill="#FFA100"/><path d=" M 100 100 L 180 121.436 L 180 180 L 121.436 180 Z" stroke="#000000" stroke-width="4" fill="#FEFE00"/><path d=" M 180 180 L 200 200 L 200 126.795 L 180 121.436 Z" stroke="#000000" stroke-width="4" fill="#00D800"/><path d=" M 180 180 L 200 200 L 126.795 200 L 121.436 180 Z" stroke="#000000" stroke-width="4" fill="#EE0000"/><path d=" M 100 100 L 121.436 180 L 78.5641 180 Z" stroke="#000000" stroke-width="4" fill="#FEFE00"/><path d=" M 121.436 180 L 126.795 200 L 73.2051 200 L 78.5641 180 Z" stroke="#000000" stroke-width="4" fill="#00D800"/><path d=" M 305 100 L 326.436 20 L 283.564 20 Z" stroke="#000000" stroke-width="4" fill="#FFFFFF"/><path d=" M 326.436 20 L 331.795 0 L 278.205 -1.42109e-14 L 283.564 20 Z" stroke="#000000" stroke-width="4" fill="#FFA100"/><path d=" M 305 100 L 283.564 20 L 225 20 L 225 78.5641 Z" stroke="#000000" stroke-width="4" fill="#FFFFFF"/><path d=" M 225 20 L 205 -5.68434e-14 L 278.205 -1.42109e-14 L 283.564 20 Z" stroke="#000000" stroke-width="4" fill="#EE0000"/><path d=" M 225 20 L 205 -5.68434e-14 L 205 73.2051 L 225 78.5641 Z" stroke="#000000" stroke-width="4" fill="#00D800"/><path d=" M 305 100 L 225 78.5641 L 225 121.436 Z" stroke="#000000" stroke-width="4" fill="#FFFFFF"/><path d=" M 225 78.5641 L 205 73.2051 L 205 126.795 L 225 121.436 Z" stroke="#000000" stroke-width="4" fill="#0000F2"/><path d=" M 305 100 L 225 121.436 L 225 180 L 283.564 180 Z" stroke="#000000" stroke-width="4" fill="#FFFFFF"/><path d=" M 225 180 L 205 200 L 205 126.795 L 225 121.436 Z" stroke="#000000" stroke-width="4" fill="#00D800"/><path d=" M 225 180 L 205 200 L 278.205 200 L 283.564 180 Z" stroke="#000000" stroke-width="4" fill="#FFA100"/><path d=" M 305 100 L 283.564 180 L 326.436 180 Z" stroke="#000000" stroke-width="4" fill="#FFFFFF"/><path d=" M 283.564 180 L 278.205 200 L 331.795 200 L 326.436 180 Z" stroke="#000000" stroke-width="4" fill="#EE0000"/><path d=" M 305 100 L 326.436 180 L 385 180 L 385 121.436 Z" stroke="#000000" stroke-width="4" fill="#FFFFFF"/><path d=" M 385 180 L 405 200 L 331.795 200 L 326.436 180 Z" stroke="#000000" stroke-width="4" fill="#FFA100"/><path d=" M 385 180 L 405 200 L 405 126.795 L 385 121.436 Z" stroke="#000000" stroke-width="4" fill="#0000F2"/><path d=" M 305 100 L 385 121.436 L 385 78.5641 Z" stroke="#000000" stroke-width="4" fill="#FFFFFF"/><path d=" M 385 121.436 L 405 126.795 L 405 73.2051 L 385 78.5641 Z" stroke="#000000" stroke-width="4" fill="#00D800"/><path d=" M 305 100 L 385 78.5641 L 385 20 L 326.436 20 Z" stroke="#000000" stroke-width="4" fill="#FFFFFF"/><path d=" M 385 20 L 405 0 L 405 73.2051 L 385 78.5641 Z" stroke="#000000" stroke-width="4" fill="#0000F2"/><path d=" M 385 20 L 405 0 L 331.795 0 L 326.436 20 Z" stroke="#000000" stroke-width="4" fill="#EE0000"/></g></svg>