<svg version="1.1" viewBox="0 0 243.54 258.34" xmlns="http://www.w3.org/2000/svg" xmlns:xlink="http://www.w3.org/1999/xlink" overflow="hidden"><defs></defs><g id="aa1cb019-6d8a-4cc3-91ec-ac2d939b4849"><g id="fbb4fcc7-7b6c-4274-87c0-f2bdced5711f"><path d=" M 109.13 92.4 L 156.68 126.95 L 138.53 182.86 L 79.75 182.85 L 61.59 126.95 L 109.13 92.4 Z" fill="#808080"/><path d=" M 109.13 92.4 L 61.59 126.95 L 79.75 182.85 L 138.53 182.86 L 156.68 126.95 L 109.13 92.4 Z" stroke="#040000" stroke-miterlimit="10" fill="none"/><path d=" M 139.71 184.49 C 139.37 184.746 138.955 184.883 138.53 184.88 L 79.75 184.88 C 78.8859 184.874 78.1235 184.313 77.86 183.49 L 59.67 127.56 C 59.4059 126.737 59.7004 125.838 60.4 125.33 L 108 90.77 C 108.701 90.2613 109.649 90.2613 110.35 90.77 L 157.91 125.35 C 158.606 125.86 158.896 126.759 158.63 127.58 L 140.43 183.5 C 140.299 183.897 140.048 184.243 139.71 184.49 Z M 81.2 180.87 L 137.09 180.87 L 154.35 127.71 L 109.14 94.85 L 63.92 127.71 Z" stroke="#040000" stroke-miterlimit="10" fill="#211613"/><path d=" M 240.77 97.8 L 214.3 106.3 L 173.18 76.43 L 199.67 67.94 L 240.77 97.8 Z" stroke="#040000" stroke-miterlimit="10" fill="#FFA100" fill-rule="evenodd"/><path d=" M 199.06 66.05 L 172.57 74.53 C 171.853 74.7617 171.328 75.3762 171.21 76.12 C 171.11 76.8439 171.413 77.5647 172 78 L 213.12 107.87 C 213.634 108.244 214.294 108.352 214.9 108.16 L 241.37 99.66 C 241.574 99.5976 241.766 99.5031 241.94 99.38 C 241.94 99.38 241.99 99.38 242.02 99.32 C 242.722 98.8003 243.005 97.8854 242.72 97.06 C 242.543 96.6777 242.287 96.337 241.97 96.06 C 241.815 95.952 241.647 95.8646 241.47 95.8 L 200.84 66.33 C 200.325 65.9595 199.664 65.8556 199.06 66.05 Z M 236.42 97.1 L 214.65 104.1 L 177.54 77.1 L 199.32 70.1 Z" stroke="#040000" stroke-miterlimit="10" fill="#060001"/><path d=" M 199.67 67.94 L 173.18 76.43 L 152.01 61.05 L 151.91 33.24 L 199.67 67.94 Z" stroke="#040000" stroke-miterlimit="10" fill="#ADD8E6" fill-rule="evenodd"/><path d=" M 200.84 69.56 C 200.668 69.682 200.479 69.7796 200.28 69.85 L 173.79 78.33 C 173.175 78.5136 172.509 78.3909 172 78 L 150.84 62.66 C 150.322 62.2866 150.014 61.6884 150.01 61.05 L 149.91 33.25 C 149.907 32.4955 150.328 31.8033 151 31.46 C 151.67 31.1218 152.474 31.1874 153.08 31.63 L 200.37 66 C 200.771 66.1288 201.121 66.3807 201.37 66.72 C 202.017 67.6123 201.821 68.8602 200.93 69.51 Z M 173.53 74.22 L 195.31 67.22 L 153.91 37.15 L 154 60 Z" stroke="#040000" stroke-miterlimit="10" fill="#060001"/><path d=" M 152.01 61.05 L 109.07 29.86 L 108.96 2.06 L 151.91 33.24 L 152.01 61.05 Z" stroke="#040000" stroke-miterlimit="10" fill="#FFA100" fill-rule="evenodd"/><path d=" M 109.41 0.5 L 109.27 0.5 C 108.776 0.488901 108.285 0.595137 107.84 0.81 L 107.84 0.81 C 107.738 0.894816 107.624 0.96238 107.5 1.01 L 107.34 1.11 L 107.24 1.16 C 107.102 1.42659 107.023 1.72005 107.01 2.02 L 107.12 29.82 C 107.127 30.4548 107.435 31.0486 107.95 31.42 L 150.89 62.61 C 151.498 63.0493 152.302 63.1111 152.97 62.77 C 153.06 62.7226 153.147 62.6691 153.23 62.61 C 153.725 62.2239 154.01 61.6278 154 61 L 153.9 33.2 C 153.896 32.5616 153.588 31.9634 153.07 31.59 L 110.76 0.9 C 110.321 0.731963 109.87 0.598229 109.41 0.5 Z M 149.91 34.27 L 150 57.12 L 111.06 28.83 L 111 6 Z" stroke="#040000" stroke-miterlimit="10" fill="#060001"/><path d=" M 138.54 182.88 L 189.16 182.88 L 197.65 156.7 L 156.7 126.96 L 138.54 182.88 Z" stroke="#040000" stroke-miterlimit="10" fill="#808080" fill-rule="evenodd"/><path d=" M 197.65 156.7 L 214.03 106.32 L 173.07 76.58 L 156.7 126.96 L 197.65 156.7 Z" stroke="#040000" stroke-miterlimit="10" fill="#808080" fill-rule="evenodd"/><path d=" M 198.82 158.32 C 198.651 158.439 198.466 158.533 198.27 158.6 C 197.661 158.795 196.996 158.687 196.48 158.31 L 155.53 128.57 C 154.83 128.063 154.536 127.163 154.8 126.34 L 171.18 76 C 171.368 75.3873 171.847 74.9077 172.46 74.72 C 173.067 74.5222 173.732 74.6263 174.25 75 L 215.2 104.74 C 215.896 105.25 216.186 106.149 215.92 106.97 L 199.55 157.35 C 199.408 157.738 199.154 158.076 198.82 158.32 Z M 159.05 126.2 L 196.6 153.47 L 211.68 107.09 L 174.12 79.82 Z" stroke="#040000" stroke-miterlimit="10" fill="#060001"/><path d=" M 189.16 182.88 L 138.54 182.88 L 122.18 233.22 L 172.8 233.21 L 189.16 182.88 Z" stroke="#040000" stroke-miterlimit="10" fill="#808080" fill-rule="evenodd"/><path d=" M 174 234.82 C 173.662 235.071 173.251 235.204 172.83 235.2 L 122.19 235.2 C 121.55 235.202 120.948 234.897 120.57 234.38 C 120.196 233.862 120.092 233.197 120.29 232.59 L 136.64 182.25 C 136.907 181.431 137.669 180.875 138.53 180.87 L 189.16 180.87 C 189.8 180.868 190.402 181.173 190.78 181.69 C 191.154 182.208 191.258 182.873 191.06 183.48 L 174.69 233.81 C 174.581 234.215 174.338 234.571 174 234.82 Z M 125 231.22 L 171.42 231.22 L 186.48 184.89 L 140 184.89 Z" stroke="#040000" stroke-miterlimit="10" fill="#060001"/><path d=" M 79.75 182.87 L 96.1 233.22 L 122.18 233.22 L 138.54 182.88 L 79.75 182.87 Z" stroke="#040000" stroke-miterlimit="10" fill="#808080" fill-rule="evenodd"/><path d=" M 156.7 126.96 L 173.07 76.58 L 151.98 61.26 L 109.14 92.39 L 156.7 126.96 Z" stroke="#040000" stroke-miterlimit="10" fill="#808080" fill-rule="evenodd"/><path d=" M 61.57 126.95 L 18.82 158.01 L 26.9 182.87 L 79.75 182.87 L 61.57 126.95 Z" stroke="#040000" stroke-miterlimit="10" fill="#808080" fill-rule="evenodd"/><path d=" M 26.9 182.87 L 43.26 233.21 L 96.1 233.22 L 79.75 182.87 L 26.9 182.87 Z" stroke="#040000" stroke-miterlimit="10" fill="#808080" fill-rule="evenodd"/><path d=" M 151.98 61.26 L 109.23 30.2 L 66.39 61.33 L 109.14 92.39 L 151.98 61.26 Z" stroke="#040000" stroke-miterlimit="10" fill="#808080" fill-rule="evenodd"/><path d=" M 45.24 76.69 L 2.5 107.75 L 18.82 158.01 L 61.57 126.95 L 45.24 76.69 Z" stroke="#040000" stroke-miterlimit="10" fill="#808080" fill-rule="evenodd"/><path d=" M 109.14 92.39 L 66.39 61.33 L 45.24 76.69 L 61.57 126.95 L 109.14 92.39 Z" stroke="#040000" stroke-miterlimit="10" fill="#808080" fill-rule="evenodd"/><path d=" M 189.74 254.93 C 195.073 238.683 200.407 222.387 205.74 206.04 C 200.113 198.52 194.447 190.95 188.74 183.33 C 183.333 199.89 177.943 216.393 172.57 232.84 C 178.36 240.27 184.07 247.61 189.74 254.93 Z" stroke="#040000" stroke-miterlimit="10" fill="#EEE8AA" fill-rule="evenodd"/><path d=" M 190.91 256.54 C 190.662 256.718 190.379 256.841 190.08 256.9 C 189.351 257.024 188.612 256.736 188.16 256.15 L 171 234.07 C 170.596 233.543 170.48 232.85 170.69 232.22 L 186.86 182.71 C 187.208 181.662 188.34 181.094 189.389 181.443 C 189.771 181.57 190.106 181.809 190.35 182.13 L 207.35 204.84 C 207.74 205.362 207.852 206.041 207.65 206.66 L 191.6 255.55 C 191.477 255.943 191.236 256.289 190.91 256.54 Z M 174.84 232.46 L 189 250.74 L 203.56 206.4 L 189.48 187.6 Z" stroke="#040000" stroke-miterlimit="10" fill="#060001"/><path d=" M 241.72 96.73 C 232.6 99.53 223.443 102.38 214.25 105.28 C 208.53 122.793 202.83 140.26 197.15 157.68 C 206.36 154.63 215.51 151.68 224.64 148.68 C 230.32 131.413 236.013 114.097 241.72 96.73 Z" stroke="#040000" stroke-miterlimit="10" fill="#ADD8E6" fill-rule="evenodd"/><path d=" M 28.93 255.84 C 46.19 255.8 63.3233 255.767 80.33 255.74 C 85.55 248.313 90.7733 240.88 96 233.44 L 44.7 233.31 C 39.4533 240.823 34.1967 248.333 28.93 255.84 Z" stroke="#040000" stroke-miterlimit="10" fill="#FF1493" fill-rule="evenodd"/><path d=" M 96 231.44 L 44.7 231.31 C 44.0456 231.311 43.433 231.632 43.06 232.17 C 38.1467 239.243 33.2133 246.313 28.26 253.38 L 27.34 254.7 C 26.9111 255.31 26.8571 256.108 27.2 256.77 C 27.3235 256.994 27.4901 257.191 27.69 257.35 L 27.69 257.35 C 27.8387 257.387 27.9805 257.448 28.11 257.53 C 28.37 257.53 28.63 257.65 28.89 257.71 L 29.43 257.83 C 46.5233 257.783 63.49 257.75 80.33 257.73 C 80.7502 257.729 81.1596 257.596 81.5 257.35 C 81.6776 257.219 81.833 257.06 81.96 256.88 L 97.59 234.57 C 98.2146 233.659 97.9823 232.414 97.0713 231.79 C 96.7551 231.573 96.3832 231.451 96 231.44 Z M 79.29 253.75 C 63.8767 253.75 48.37 253.777 32.77 253.83 C 37.0967 247.65 41.4067 241.477 45.7 235.31 L 92.13 235.42 Z" stroke="#040000" stroke-miterlimit="10" fill="#060001"/><path d=" M 138.78 255.64 C 133.24 248.307 127.657 240.93 122.03 233.51 L 96 233.44 C 90.7933 240.887 85.5833 248.32 80.37 255.74 L 109.79 255.69 C 119.46 255.67 129.15 255.67 138.78 255.64 Z" stroke="#040000" stroke-miterlimit="10" fill="#EEE8AA" fill-rule="evenodd"/><path d=" M 140 257.26 C 139.66 257.506 139.25 257.639 138.83 257.64 L 80.37 257.74 C 79.2655 257.733 78.376 256.831 78.3833 255.727 C 78.386 255.324 78.5103 254.931 78.74 254.6 L 94.37 232.29 C 94.7432 231.759 95.3509 231.442 96 231.44 L 122.07 231.51 C 122.694 231.511 123.282 231.803 123.66 232.3 C 129.28 239.713 134.867 247.093 140.42 254.44 C 140.876 255.043 140.954 255.852 140.62 256.53 C 140.472 256.818 140.26 257.068 140 257.26 Z M 84.21 253.74 L 134.82 253.65 C 130.267 247.65 125.683 241.6 121.07 235.5 L 97.07 235.44 Z" stroke="#040000" stroke-miterlimit="10" fill="#060001"/><path d=" M 190.24 255.55 C 184.86 248.29 179.45 240.987 174.01 233.64 L 122.01 233.51 C 127.63 240.91 133.213 248.287 138.76 255.64 Z" stroke="#040000" stroke-miterlimit="10" fill="#FF1493" fill-rule="evenodd"/><path d=" M 174 231.64 L 122 231.51 C 121.243 231.508 120.551 231.934 120.21 232.61 C 119.869 233.289 119.943 234.103 120.4 234.71 C 126.027 242.117 131.613 249.497 137.16 256.85 C 137.54 257.35 138.132 257.642 138.76 257.64 L 188.89 257.54 C 189.099 257.475 189.3 257.388 189.49 257.28 L 189.77 257.14 C 189.914 257.015 190.085 256.926 190.27 256.88 C 190.402 256.738 190.572 256.637 190.76 256.59 C 191.2 256.211 191.511 255.704 191.65 255.14 C 191.689 254.931 191.786 254.737 191.93 254.58 C 191.894 254.505 191.854 254.431 191.81 254.36 L 175.58 232.45 C 175.209 231.948 174.624 231.649 174 231.64 Z M 186.26 253.56 L 139.77 253.65 C 135.217 247.65 130.643 241.603 126.05 235.51 L 172.99 235.63 Z" stroke="#040000" stroke-miterlimit="10" fill="#060001"/><path d=" M 190.33 184.49 C 189.994 184.745 189.582 184.879 189.16 184.87 L 138.54 184.87 C 137.9 184.872 137.298 184.567 136.92 184.05 C 136.546 183.532 136.442 182.867 136.64 182.26 L 154.8 126.34 C 154.986 125.728 155.467 125.251 156.08 125.07 C 156.687 124.872 157.352 124.976 157.87 125.35 L 198.82 155.09 C 199.515 155.596 199.809 156.49 199.55 157.31 L 191.06 183.49 C 190.935 183.895 190.678 184.248 190.33 184.49 Z M 141.33 180.88 L 187.75 180.88 L 195.34 157.46 L 157.78 130.19 Z" stroke="#040000" stroke-miterlimit="10" fill="#060001"/><path d=" M 123.36 234.83 C 123.023 235.082 122.611 235.216 122.19 235.21 L 96.1 235.21 C 95.2385 235.205 94.477 234.649 94.21 233.83 L 77.86 183.48 C 77.6656 182.876 77.7695 182.215 78.14 181.7 C 78.503 181.17 79.1079 180.858 79.75 180.87 L 138.53 180.87 C 139.635 180.871 140.529 181.767 140.529 182.871 C 140.528 183.082 140.495 183.29 140.43 183.49 L 124.08 233.83 C 123.951 234.231 123.699 234.581 123.36 234.83 Z M 97.55 231.22 L 120.73 231.22 L 135.79 184.87 L 82.5 184.87 Z" stroke="#040000" stroke-miterlimit="10" fill="#060001"/><path d=" M 157.87 128.58 C 157.698 128.701 157.51 128.795 157.31 128.86 C 156.704 129.052 156.044 128.944 155.53 128.57 L 108 94 C 107.108 93.3484 106.913 92.0972 107.565 91.2053 C 107.686 91.0386 107.833 90.8918 108 90.77 L 150.8 59.65 C 151.501 59.1413 152.449 59.1413 153.15 59.65 L 174.25 75 C 174.944 75.4979 175.246 76.3818 175 77.2 L 158.62 127.58 C 158.483 127.985 158.22 128.335 157.87 128.58 Z M 112.53 92.39 L 155.65 123.73 L 170.73 77.35 L 152 63.73 Z" stroke="#040000" stroke-miterlimit="10" fill="#060001"/><path d=" M 80.92 184.48 C 80.5819 184.731 80.171 184.864 79.75 184.86 L 26.9 184.86 C 26.0349 184.859 25.2682 184.303 25 183.48 L 16.92 158.62 C 16.6538 157.799 16.9441 156.9 17.64 156.39 L 60.4 125.33 C 61.2961 124.684 62.5461 124.887 63.1919 125.783 C 63.3122 125.95 63.406 126.135 63.47 126.33 L 81.65 182.25 C 81.8449 182.859 81.7371 183.524 81.36 184.04 C 81.2394 184.211 81.0906 184.359 80.92 184.48 Z M 28.35 180.87 L 77 180.87 L 60.52 130.17 L 21.16 158.77 Z" stroke="#040000" stroke-miterlimit="10" fill="#060001"/><path d=" M 97.27 234.83 C 96.9308 235.08 96.5213 235.216 96.1 235.22 L 43.25 235.22 C 42.3885 235.215 41.627 234.659 41.36 233.84 L 25 183.48 C 24.8051 182.871 24.9129 182.206 25.29 181.69 C 25.6515 181.16 26.2586 180.851 26.9 180.87 L 79.75 180.87 C 80.6152 180.871 81.3818 181.427 81.65 182.25 L 98 232.6 C 98.1949 233.209 98.0871 233.874 97.71 234.39 C 97.5922 234.563 97.4429 234.712 97.27 234.83 Z M 44.7 231.21 L 93.35 231.21 L 78.35 184.85 L 29.65 184.85 Z" stroke="#040000" stroke-miterlimit="10" fill="#060001"/><path d=" M 153.15 62.88 L 110.31 94 C 109.618 94.4896 108.692 94.4896 108 94 L 65.21 63 C 64.3181 62.3484 64.1232 61.0972 64.7747 60.2053 C 64.8965 60.0386 65.0433 59.8918 65.21 59.77 L 108.06 28.64 C 108.759 28.1361 109.701 28.1361 110.4 28.64 L 153.15 59.7 C 153.664 60.0756 153.968 60.6734 153.97 61.31 C 153.956 61.9324 153.653 62.5128 153.15 62.88 Z M 109.15 89.88 L 148.59 61.22 L 109.23 32.67 L 69.78 61.34 Z" stroke="#040000" stroke-miterlimit="10" fill="#060001"/><path d=" M 62.74 128.56 L 20 159.62 C 19.1039 160.266 17.8539 160.063 17.2081 159.167 C 17.0878 159 16.994 158.815 16.93 158.62 L 0.6 108.37 C 0.333798 107.549 0.624059 106.65 1.32 106.14 L 44.07 75.08 C 44.9661 74.4342 46.2161 74.6371 46.8619 75.5332 C 46.9822 75.7001 47.076 75.8845 47.14 76.08 L 63.47 126.33 C 63.7341 127.153 63.4396 128.052 62.74 128.56 Z M 19.86 154.78 L 59.22 126.18 L 44.22 79.92 L 4.84 108.51 Z" stroke="#040000" stroke-miterlimit="10" fill="#060001"/><path d=" M 110.31 94 L 62.74 128.56 C 62.2222 128.934 61.5572 129.038 60.95 128.84 C 60.3436 128.642 59.8681 128.166 59.67 127.56 L 43.35 77.31 C 43.0838 76.4892 43.3741 75.5902 44.07 75.08 L 65.21 59.72 C 65.9107 59.2113 66.8593 59.2113 67.56 59.72 L 110.31 90.77 C 110.824 91.1456 111.128 91.7434 111.13 92.38 C 111.132 93.0201 110.827 93.6223 110.31 94 Z M 62.62 123.72 L 105.74 92.38 L 66.38 63.8 L 47.59 77.46 Z" stroke="#040000" stroke-miterlimit="10" fill="#060001"/><path d=" M 240.4 95.05 C 231.52 97.79 222.61 100.53 213.65 103.37 C 213.034 103.565 212.549 104.045 212.35 104.66 L 195.25 157.06 C 195.031 157.766 195.22 158.535 195.74 159.06 C 196.267 159.577 197.036 159.761 197.74 159.54 C 206.17 156.74 214.57 154.02 222.93 151.3 L 225.21 150.55 C 225.413 150.493 225.603 150.398 225.77 150.27 C 226.113 150.022 226.369 149.672 226.5 149.27 L 242.95 99.27 C 243.077 98.5641 243.004 97.8368 242.74 97.17 C 242.309 96.3202 241.605 95.6404 240.74 95.24 C 240.613 95.2038 240.497 95.1388 240.4 95.05 Z M 223.06 147.11 L 221.73 147.54 C 214.61 149.86 207.45 152.18 200.27 154.54 L 215.83 106.86 C 223.46 104.45 231.05 102.1 238.62 99.76 Z" stroke="#040000" stroke-miterlimit="10" fill="#060001"/></g></g></svg>