<svg version="1.1" viewBox="0 0 257.29 296.99" xmlns="http://www.w3.org/2000/svg" xmlns:xlink="http://www.w3.org/1999/xlink" overflow="hidden"><defs></defs><g id="e3b38c82-be4d-4fb7-a203-ce576e5940cc"><g id="a3424e38-e908-4535-a826-6a6e4a06f074"><path d=" M 195.64 126.57 L 177.43 182.48 L 118.65 182.5 L 100.5 126.59 L 148.07 92.01 L 195.64 126.57 Z" fill="#808080"/><path d=" M 195.64 126.57 L 148.07 92.01 L 100.5 126.59 L 118.65 182.5 L 177.43 182.48 L 195.64 126.57 Z" stroke="#040000" stroke-miterlimit="10" fill="none"/><path d=" M 117.48 184.1 C 117.137 183.852 116.881 183.502 116.75 183.1 L 98.59 127.19 C 98.3259 126.367 98.6204 125.468 99.32 124.96 L 146.89 90.39 C 147.589 89.8861 148.531 89.8861 149.23 90.39 L 196.8 125 C 197.496 125.51 197.786 126.409 197.52 127.23 L 179.34 183.14 C 179.072 183.963 178.305 184.519 177.44 184.52 L 118.65 184.52 C 118.225 184.508 117.815 184.361 117.48 184.1 Z M 102.84 127.33 L 120.1 180.49 L 176 180.49 L 193.29 127.33 L 148.06 94.47 Z" stroke="#040000" stroke-miterlimit="10" fill="#211613"/><path d=" M 118.65 182.48 L 134.29 230.63 L 161.81 230.62 L 177.44 182.48 L 118.65 182.48 Z" stroke="#040000" stroke-miterlimit="10" fill="#808080" fill-rule="evenodd"/><path d=" M 161.81 230.62 L 214.79 230.62 L 230.41 182.49 L 177.44 182.48 L 161.81 230.62 Z" stroke="#040000" stroke-miterlimit="10" fill="#808080" fill-rule="evenodd"/><path d=" M 160.64 232.23 C 160.471 232.107 160.323 231.959 160.2 231.79 C 159.826 231.272 159.722 230.607 159.92 230 L 175.55 181.86 C 175.818 181.037 176.585 180.481 177.45 180.48 L 230.45 180.48 C 231.089 180.471 231.691 180.778 232.06 181.3 C 232.434 181.818 232.538 182.483 232.34 183.09 L 216.71 231.23 C 216.442 232.053 215.675 232.609 214.81 232.61 L 161.81 232.61 C 161.39 232.609 160.98 232.476 160.64 232.23 Z M 178.89 184.48 L 164.56 228.62 L 213.34 228.62 L 227.66 184.48 Z" stroke="#040000" stroke-miterlimit="10" fill="#060001"/><path d=" M 134.29 230.63 L 118.65 182.48 L 65.72 182.49 L 81.37 230.62 L 134.29 230.63 Z" stroke="#040000" stroke-miterlimit="10" fill="#808080" fill-rule="evenodd"/><path d=" M 80.2 232.24 C 79.8561 231.995 79.6029 231.644 79.48 231.24 L 63.83 183.1 C 63.6322 182.493 63.7363 181.828 64.11 181.31 C 64.4856 180.796 65.0834 180.492 65.72 180.49 L 118.65 180.49 C 119.512 180.489 120.278 181.041 120.55 181.86 L 136.19 230 C 136.388 230.607 136.284 231.272 135.91 231.79 C 135.532 232.307 134.93 232.612 134.29 232.61 L 81.37 232.61 C 80.95 232.618 80.539 232.488 80.2 232.24 Z M 68.47 184.48 L 82.82 228.63 L 131.54 228.63 L 117.2 184.48 Z" stroke="#040000" stroke-miterlimit="10" fill="#060001"/><path d=" M 100.49 126.57 L 57.66 157.68 L 65.72 182.49 L 118.65 182.48 L 100.49 126.57 Z" stroke="#040000" stroke-miterlimit="10" fill="#808080" fill-rule="evenodd"/><path d=" M 177.44 182.48 L 230.41 182.49 L 238.47 157.68 L 195.63 126.56 L 177.44 182.48 Z" stroke="#040000" stroke-miterlimit="10" fill="#808080" fill-rule="evenodd"/><path d=" M 148.06 92 L 105.31 60.94 L 84.17 76.31 L 100.49 126.57 L 148.06 92 Z" stroke="#040000" stroke-miterlimit="10" fill="#808080" fill-rule="evenodd"/><path d=" M 84.17 76.31 L 41.34 107.42 L 57.66 157.68 L 100.49 126.57 L 84.17 76.31 Z" stroke="#040000" stroke-miterlimit="10" fill="#808080" fill-rule="evenodd"/><path d=" M 238.47 157.68 L 254.8 107.44 L 211.95 76.3 L 195.63 126.56 L 238.47 157.68 Z" stroke="#040000" stroke-miterlimit="10" fill="#808080" fill-rule="evenodd"/><path d=" M 190.81 60.94 L 148.06 29.89 L 105.31 60.94 L 148.06 92 L 190.81 60.94 Z" stroke="#040000" stroke-miterlimit="10" fill="#808080" fill-rule="evenodd"/><path d=" M 195.63 126.56 L 211.95 76.3 L 190.81 60.94 L 148.06 92 L 195.63 126.56 Z" stroke="#040000" stroke-miterlimit="10" fill="#808080" fill-rule="evenodd"/><path d=" M 148 294.5 C 164 289.473 180.117 284.42 196.35 279.34 C 193.3 275.12 190.21 270.87 187.14 266.63 C 184.07 262.39 180.91 258.1 177.81 253.81 L 147.58 253.7 C 137.54 253.7 127.5 253.667 117.46 253.6 C 114.46 257.83 111.46 262.08 108.54 266.29 L 99.74 278.82 C 115.8 284.06 131.887 289.287 148 294.5 Z" stroke="#040000" stroke-miterlimit="10" fill="#FFA100" fill-rule="evenodd"/><path d=" M 98.52 280.44 C 98.1807 280.191 97.9288 279.841 97.8 279.44 C 97.6004 278.844 97.693 278.188 98.05 277.67 L 115.78 252.44 C 116.161 251.912 116.769 251.597 117.42 251.59 C 127.46 251.643 137.497 251.68 147.53 251.7 L 177.77 251.8 C 178.408 251.804 179.007 252.112 179.38 252.63 L 197.92 278.17 C 198.294 278.688 198.398 279.353 198.2 279.96 C 197.998 280.571 197.514 281.047 196.9 281.24 L 148.55 296.4 C 148.152 296.52 147.728 296.52 147.33 296.4 L 99.08 280.72 C 98.8787 280.659 98.6893 280.565 98.52 280.44 Z M 118.44 255.61 L 102.88 277.76 L 148 292.4 L 193.1 278.27 L 176.74 255.8 L 147.52 255.7 Z" stroke="#040000" stroke-miterlimit="10" fill="#040000"/><path d=" M 177.76 253.81 C 172.133 246.05 166.467 238.26 160.76 230.44 L 133.76 230.44 C 128.26 238.22 122.813 245.95 117.42 253.63 C 127.46 253.683 137.5 253.717 147.54 253.73 Z" stroke="#040000" stroke-miterlimit="10" fill="#FFA100" fill-rule="evenodd"/><path d=" M 116.24 255.22 C 115.986 255.036 115.777 254.797 115.63 254.52 C 115.294 253.859 115.352 253.066 115.78 252.46 L 132.12 229.25 C 132.498 228.727 133.105 228.417 133.75 228.42 L 160.75 228.42 C 161.385 228.419 161.982 228.72 162.36 229.23 C 167.607 236.41 172.82 243.563 178 250.69 L 179.41 252.64 C 180.056 253.536 179.854 254.786 178.958 255.432 C 178.618 255.677 178.209 255.81 177.79 255.81 L 147.55 255.7 C 137.51 255.7 127.47 255.667 117.43 255.6 C 117.003 255.604 116.586 255.47 116.24 255.22 Z M 134.79 232.41 L 121.24 251.63 L 147.53 251.71 L 173.83 251.8 C 169.163 245.36 164.457 238.903 159.71 232.43 Z" stroke="#040000" stroke-miterlimit="10" fill="#060001"/><path d=" M 232.47 254 C 226.98 246.19 221.47 238.37 215.85 230.51 L 160.73 230.44 C 166.47 238.26 172.137 246.05 177.73 253.81 C 195.91 253.883 214.157 253.947 232.47 254 Z" stroke="#040000" stroke-miterlimit="10" fill="#FFA100" fill-rule="evenodd"/><path d=" M 3.32 191 C 12.9733 204.133 22.5833 217.21 32.15 230.23 C 35.03 226.11 37.88 221.94 40.8 217.79 C 43.72 213.64 46.59 209.45 49.52 205.26 C 46.52 196.1 43.52 186.897 40.52 177.65 C 37.52 168.403 34.4733 159.07 31.38 149.65 C 26.55 148.19 21.74 146.7 16.93 145.24 C 12.12 143.78 7.3 142.3 2.5 140.81 C 2.77333 157.67 3.04667 174.4 3.32 191 Z" stroke="#040000" stroke-miterlimit="10" fill="#ADD8E6" fill-rule="evenodd"/><path d=" M 31 231.79 C 30.832 231.67 30.6836 231.525 30.56 231.36 C 23.0067 221.073 15.4233 210.763 7.81 200.43 L 1.71 192.13 C 1.46784 191.802 1.33176 191.408 1.32 191 L 0.5 140.85 C 0.485642 139.746 1.36936 138.839 2.47383 138.824 C 2.6791 138.822 2.88355 138.85 3.08 138.91 L 31.94 147.73 C 32.5594 147.915 33.0511 148.388 33.26 149 L 51.42 204.56 C 51.6074 205.159 51.5117 205.81 51.16 206.33 L 42.44 218.86 C 40.76 221.26 39.0933 223.653 37.44 226.04 L 33.79 231.3 C 33.4209 231.825 32.822 232.142 32.18 232.15 C 31.7586 232.157 31.3456 232.031 31 231.79 Z M 5.3 190.28 L 11 198.07 C 18.0667 207.65 25.1 217.207 32.1 226.74 L 34.16 223.74 C 35.82 221.34 37.4867 218.94 39.16 216.54 L 47.31 204.84 L 29.79 151.25 L 4.54 143.53 Z" stroke="#040000" stroke-miterlimit="10" fill="#060001"/><path d=" M 49.52 205.21 C 54.8 197.67 60.0933 190.077 65.4 182.43 L 57.4 157.61 C 48.7333 154.943 40.0667 152.277 31.4 149.61 C 34.46 158.943 37.5067 168.277 40.54 177.61 C 43.5733 186.943 46.5667 196.143 49.52 205.21 Z" stroke="#040000" stroke-miterlimit="10" fill="#ADD8E6" fill-rule="evenodd"/><path d=" M 48.35 206.82 C 48.007 206.572 47.7514 206.222 47.62 205.82 L 29.47 150.26 C 29.1206 149.212 29.6867 148.079 30.7346 147.73 C 31.1453 147.593 31.5893 147.593 32 147.73 L 58.05 155.73 C 58.6465 155.931 59.1133 156.402 59.31 157 L 67.31 181.81 C 67.5034 182.405 67.4072 183.056 67.05 183.57 C 61.7167 191.197 56.4233 198.79 51.17 206.35 C 50.5351 207.254 49.2877 207.472 48.3838 206.837 C 48.3758 206.831 48.3679 206.826 48.36 206.82 Z M 34.46 152.68 L 50.18 200.79 C 54.5067 194.59 58.84 188.36 63.18 182.1 L 55.81 159.22 Z" stroke="#040000" stroke-miterlimit="10" fill="#060001"/><path d=" M 191.37 33.32 C 191.417 42.6067 191.48 51.9067 191.56 61.22 L 212.94 76.75 L 239.59 68.37 L 215.45 50.84 Z" stroke="#040000" stroke-miterlimit="10" fill="#EEE8AA" fill-rule="evenodd"/><path d=" M 211.77 78.37 L 190.39 62.84 C 189.879 62.4665 189.575 61.8731 189.57 61.24 C 189.49 51.9067 189.423 42.6067 189.37 33.34 C 189.363 32.5819 189.785 31.8849 190.46 31.54 C 191.13 31.2018 191.934 31.2674 192.54 31.71 L 240.76 66.76 C 241.651 67.4131 241.843 68.6647 241.19 69.5555 C 240.939 69.8982 240.585 70.152 240.18 70.28 L 213.54 78.66 C 212.937 78.8481 212.281 78.7406 211.77 78.37 Z M 193.55 60.2 L 213.3 74.55 L 235.21 67.66 L 193.39 37.25 C 193.43 44.8967 193.483 52.5467 193.55 60.2 Z" stroke="#040000" stroke-miterlimit="10" fill="#060001"/><path d=" M 148 1.82 C 148.04 11.1533 148.103 20.46 148.19 29.74 L 191.52 61.22 C 191.44 51.8867 191.377 42.5867 191.33 33.32 C 176.897 22.82 162.453 12.32 148 1.82 Z" stroke="#040000" stroke-miterlimit="10" fill="#EEE8AA" fill-rule="evenodd"/><path d=" M 193.36 33.31 C 193.355 32.6769 193.051 32.0835 192.54 31.71 L 150.13 0.87 C 149.714 0.72667 149.285 0.622877 148.85 0.56 C 148.795 0.544602 148.742 0.524529 148.69 0.5 C 148.123 0.499968 147.557 0.55354 147 0.66 L 146.9 0.66 C 146.692 0.736344 146.489 0.823121 146.29 0.92 L 146.21 0.92 C 146.084 1.17905 146.016 1.46216 146.01 1.75 C 146.05 11.0833 146.113 20.39 146.2 29.67 C 146.205 30.3031 146.509 30.8965 147.02 31.27 L 190.36 62.76 C 190.971 63.2034 191.779 63.2652 192.45 62.92 C 193.118 62.5739 193.535 61.8823 193.53 61.13 C 193.47 51.8767 193.413 42.6033 193.36 33.31 Z M 150.21 28.71 C 150.14 21.05 150.1 13.41 150.06 5.71 L 189.38 34.3 C 189.42 41.94 189.47 49.5867 189.53 57.24 Z" stroke="#040000" stroke-miterlimit="10" fill="#060001"/><path d=" M 133.12 232.25 C 132.781 232.001 132.529 231.651 132.4 231.25 L 116.76 183.1 C 116.423 182.048 117.003 180.922 118.055 180.585 C 118.247 180.524 118.448 180.491 118.65 180.49 L 177.45 180.49 C 178.09 180.474 178.694 180.788 179.05 181.32 C 179.424 181.834 179.532 182.494 179.34 183.1 L 163.71 231.24 C 163.443 232.059 162.681 232.615 161.82 232.62 L 134.3 232.62 C 133.877 232.624 133.464 232.495 133.12 232.25 Z M 121.4 184.48 L 135.75 228.63 L 160.36 228.63 L 174.69 184.48 Z" stroke="#040000" stroke-miterlimit="10" fill="#060001"/><path d=" M 64.55 184.1 C 64.2039 183.858 63.9501 183.505 63.83 183.1 L 55.77 158.3 C 55.5038 157.479 55.7941 156.58 56.49 156.07 L 99.32 125 C 99.8378 124.626 100.503 124.522 101.11 124.72 C 101.729 124.9 102.215 125.382 102.4 126 L 120.55 181.9 C 120.892 182.95 120.319 184.079 119.269 184.421 C 119.069 184.487 118.86 184.52 118.65 184.52 L 65.72 184.52 C 65.2944 184.513 64.883 184.365 64.55 184.1 Z M 60 158.44 L 67.16 180.49 L 115.9 180.49 L 99.45 129.8 Z" stroke="#040000" stroke-miterlimit="10" fill="#060001"/><path d=" M 176.27 184.09 C 176.099 183.969 175.951 183.821 175.83 183.65 C 175.456 183.132 175.352 182.467 175.55 181.86 L 193.73 125.94 C 193.93 125.331 194.41 124.855 195.02 124.66 C 195.626 124.468 196.286 124.576 196.8 124.95 L 239.64 156.07 C 240.336 156.58 240.626 157.479 240.36 158.3 L 232.31 183.1 C 232.042 183.923 231.275 184.479 230.41 184.48 L 177.41 184.48 C 176.999 184.47 176.601 184.334 176.27 184.09 Z M 196.68 129.79 L 180.19 180.48 L 229 180.48 L 236.16 158.48 Z" stroke="#040000" stroke-miterlimit="10" fill="#060001"/><path d=" M 99.32 128.19 C 98.984 127.937 98.7329 127.589 98.6 127.19 L 82.27 76.92 C 82.0059 76.097 82.3004 75.1975 83 74.69 L 104.15 59.32 C 104.849 58.8161 105.791 58.8161 106.49 59.32 L 149.24 90.38 C 149.757 90.7577 150.062 91.3599 150.06 92 C 150.069 92.639 149.762 93.2411 149.24 93.61 L 101.68 128.18 C 101.164 128.557 100.499 128.665 99.89 128.47 C 99.6869 128.406 99.4947 128.312 99.32 128.19 Z M 86.51 77.07 L 101.51 123.34 L 144.67 92 L 105.31 63.4 Z" stroke="#040000" stroke-miterlimit="10" fill="#060001"/><path d=" M 56.49 159.29 C 56.147 159.042 55.8914 158.692 55.76 158.29 L 39.44 108 C 39.1807 107.18 39.4747 106.286 40.17 105.78 L 83 74.69 C 83.5178 74.3163 84.1828 74.2122 84.79 74.41 C 85.4065 74.5913 85.8887 75.0735 86.07 75.69 L 102.39 126 C 102.656 126.821 102.366 127.72 101.67 128.23 L 58.83 159.29 C 58.314 159.667 57.6487 159.775 57.04 159.58 C 56.8422 159.514 56.6565 159.416 56.49 159.29 Z M 43.68 108.18 L 58.68 154.45 L 98.12 125.81 L 83.12 79.54 Z" stroke="#040000" stroke-miterlimit="10" fill="#060001"/><path d=" M 237.29 159.3 L 194.46 128.18 C 193.756 127.671 193.461 126.766 193.73 125.94 L 210.05 75.69 C 210.248 75.0836 210.724 74.6081 211.33 74.41 C 211.937 74.2122 212.602 74.3163 213.12 74.69 L 256 105.82 C 256.696 106.33 256.986 107.229 256.72 108.05 L 240.36 158.3 C 240.162 158.906 239.686 159.382 239.08 159.58 C 238.473 159.778 237.808 159.674 237.29 159.3 Z M 198 125.8 L 237.44 154.45 L 252.44 108.2 L 213 79.53 Z" stroke="#040000" stroke-miterlimit="10" fill="#060001"/><path d=" M 146.89 93.61 L 104.13 62.55 C 103.613 62.1723 103.308 61.5701 103.31 60.93 C 103.314 60.2916 103.622 59.6934 104.14 59.32 L 146.89 28.32 C 147.589 27.8161 148.531 27.8161 149.23 28.32 L 192 59.33 C 192.524 59.7223 192.823 60.346 192.8 61 C 192.798 61.6366 192.494 62.2344 191.98 62.61 L 149.23 93.61 C 148.531 94.1139 147.589 94.1139 146.89 93.61 Z M 108.7 60.94 L 148.06 89.53 L 187.41 61 L 148.06 32.4 Z" stroke="#040000" stroke-miterlimit="10" fill="#060001"/><path d=" M 194.46 128.18 L 146.89 93.61 C 146.368 93.2411 146.061 92.639 146.07 92 C 146.072 91.3634 146.376 90.7656 146.89 90.39 L 189.64 59.33 C 190.339 58.8261 191.281 58.8261 191.98 59.33 L 213.12 74.69 C 213.816 75.2002 214.106 76.0992 213.84 76.92 L 197.52 127.18 C 197.324 127.784 196.853 128.259 196.25 128.46 C 195.643 128.658 194.978 128.554 194.46 128.18 Z M 151.46 92 L 194.58 123.33 L 209.58 77.07 L 190.81 63.41 Z" stroke="#040000" stroke-miterlimit="10" fill="#060001"/><path d=" M 233.66 252.22 C 228.31 244.62 222.95 237 217.48 229.35 C 217.109 228.818 216.498 228.507 215.85 228.52 L 160.73 228.45 C 159.625 228.457 158.735 229.357 158.742 230.462 C 158.745 230.878 158.877 231.283 159.12 231.62 C 164.373 238.78 169.58 245.907 174.74 253 L 176.15 254.94 C 176.271 255.111 176.419 255.259 176.59 255.38 C 176.931 255.627 177.339 255.763 177.76 255.77 L 230.43 255.95 C 231.139 255.854 231.807 255.563 232.36 255.11 C 233.035 254.434 233.462 253.549 233.57 252.6 C 233.57 252.468 233.601 252.338 233.66 252.22 Z M 178.79 251.82 L 177.97 250.69 C 173.563 244.63 169.13 238.547 164.67 232.44 L 214.83 232.5 C 219.497 239.02 224.093 245.517 228.62 251.99 Z" stroke="#040000" stroke-miterlimit="10" fill="#060001"/></g></g></svg>