<svg version="1.1" viewBox="0 0 243.7 256.79" xmlns="http://www.w3.org/2000/svg" xmlns:xlink="http://www.w3.org/1999/xlink" overflow="hidden"><defs></defs><g id="e190ac82-30f5-4e6f-89ce-ed47e83bd072"><g id="f1c81de5-16ec-44bf-b0ef-3480941b9eec"><path d=" M 79.17 181.37 L 61.01 125.43 L 108.56 90.87 L 156.1 125.43 L 137.94 181.37 L 79.17 181.37 Z" fill="#808080"/><path d=" M 79.17 181.37 L 137.94 181.37 L 156.1 125.43 L 108.56 90.87 L 61.01 125.43 L 79.17 181.37 Z" stroke="#040000" stroke-miterlimit="10" fill="none"/><path d=" M 108.57 88.87 C 108.99 88.8706 109.4 89.0036 109.74 89.25 L 157.3 123.81 C 157.972 124.32 158.252 125.195 158 126 L 139.85 182 C 139.583 182.819 138.821 183.375 137.96 183.38 L 79.16 183.38 C 78.2949 183.379 77.5282 182.823 77.26 182 L 59.11 126 C 58.8438 125.179 59.1341 124.28 59.83 123.77 L 107.4 89.25 C 107.737 88.9978 108.149 88.8642 108.57 88.87 Z M 153.77 126.19 L 108.57 93.33 L 63.35 126.19 L 80.61 179.36 L 136.51 179.36 Z" stroke="#040000" stroke-miterlimit="10" fill="#211613"/><path d=" M 26.05 181.51 L 42.46 231.98 L 26.21 254.53 L 9.79 204.06 L 26.05 181.51 Z" stroke="#040000" stroke-miterlimit="10" fill="#FF1493" fill-rule="evenodd"/><path d=" M 24.93 255.52 L 25.05 255.59 C 25.4463 255.887 25.9042 256.092 26.39 256.19 L 26.45 256.19 C 26.5825 256.169 26.7175 256.169 26.85 256.19 C 26.9129 256.2 26.9771 256.2 27.04 256.19 L 27.14 256.19 C 27.408 256.056 27.6435 255.865 27.83 255.63 L 44.08 233.08 C 44.4537 232.562 44.5578 231.897 44.36 231.29 L 28 180.89 C 27.7699 180.176 27.16 179.651 26.42 179.53 L 26.1 179.53 C 25.4581 179.531 24.8555 179.839 24.48 180.36 L 8.17 202.89 C 7.79967 203.409 7.69937 204.074 7.9 204.68 L 24.07 254.41 C 24.3228 254.805 24.6106 255.177 24.93 255.52 Z M 12 204.4 L 25.36 185.87 L 40.24 231.63 L 26.89 250.17 Z" stroke="#040000" stroke-miterlimit="10" fill="#060001"/><path d=" M 108.56 90.86 L 67.61 61.1 L 45.35 77.29 L 61 125.42 L 108.56 90.86 Z" stroke="#040000" stroke-miterlimit="10" fill="#808080" fill-rule="evenodd"/><path d=" M 45.35 77.29 L 2.5 108.42 L 18.15 156.55 L 61 125.42 L 45.35 77.29 Z" stroke="#040000" stroke-miterlimit="10" fill="#808080" fill-rule="evenodd"/><path d=" M 45.35 75.3 C 45.5608 75.2981 45.7704 75.332 45.97 75.4 C 46.5764 75.5981 47.0519 76.0736 47.25 76.68 L 62.9 124.81 C 63.1641 125.633 62.8696 126.532 62.17 127.04 L 19.32 158.17 C 18.8022 158.544 18.1372 158.648 17.53 158.45 C 16.9236 158.252 16.4481 157.776 16.25 157.17 L 0.6 109 C 0.335915 108.177 0.630374 107.278 1.33 106.77 L 44.18 75.68 C 44.5204 75.4336 44.9298 75.3006 45.35 75.3 Z M 58.66 124.66 L 44.3 80.52 L 4.84 109.19 L 19.2 153.33 Z" stroke="#040000" stroke-miterlimit="10" fill="#060001"/><path d=" M 67.61 61.1 L 108.56 90.86 L 151.38 59.75 L 110.43 30.01 L 67.61 61.1 Z" stroke="#040000" stroke-miterlimit="10" fill="#808080" fill-rule="evenodd"/><path d=" M 110.43 28 C 110.851 27.9957 111.262 28.1291 111.6 28.38 L 152.6 58.12 C 153.121 58.4955 153.429 59.0981 153.43 59.74 C 153.426 60.3784 153.118 60.9766 152.6 61.35 L 109.74 92.48 C 109.041 92.9839 108.099 92.9839 107.4 92.48 L 66.4 62.72 C 65.5081 62.0685 65.3132 60.8172 65.9647 59.9253 C 66.0865 59.7586 66.2333 59.6118 66.4 59.49 L 109.22 28.39 C 109.568 28.1271 109.994 27.9896 110.43 28 Z M 148 59.75 L 110.43 32.47 L 71 61.1 L 108.56 88.4 Z" stroke="#040000" stroke-miterlimit="10" fill="#060001"/><path d=" M 156.12 125.42 L 172.49 75.08 L 151.38 59.75 L 108.56 90.86 L 156.12 125.42 Z" stroke="#040000" stroke-miterlimit="10" fill="#808080" fill-rule="evenodd"/><path d=" M 61 125.42 L 18.15 156.55 L 26.21 181.35 L 79.16 181.35 L 61 125.42 Z" stroke="#040000" stroke-miterlimit="10" fill="#808080" fill-rule="evenodd"/><path d=" M 137.96 181.35 L 190.81 181.35 L 198.88 156.49 L 156.12 125.42 L 137.96 181.35 Z" stroke="#040000" stroke-miterlimit="10" fill="#808080" fill-rule="evenodd"/><path d=" M 198.88 156.49 L 215.24 106.15 L 172.49 75.08 L 156.12 125.42 L 198.88 156.49 Z" stroke="#040000" stroke-miterlimit="10" fill="#808080" fill-rule="evenodd"/><path d=" M 26.21 181.35 L 42.53 231.6 L 95.5 231.6 L 79.16 181.35 L 26.21 181.35 Z" stroke="#040000" stroke-miterlimit="10" fill="#808080" fill-rule="evenodd"/><path d=" M 121.63 231.6 L 174.47 231.6 L 190.81 181.35 L 137.96 181.35 L 121.63 231.6 Z" stroke="#040000" stroke-miterlimit="10" fill="#808080" fill-rule="evenodd"/><path d=" M 79.16 181.35 L 95.5 231.6 L 121.63 231.6 L 137.96 181.35 L 79.16 181.35 Z" stroke="#040000" stroke-miterlimit="10" fill="#808080" fill-rule="evenodd"/><path d=" M 240.13 96.26 C 226.13 86.1467 212.247 76.1033 198.48 66.13 C 189.887 69.0833 181.303 72.04 172.73 75 L 214.16 105.25 C 222.793 102.237 231.45 99.24 240.13 96.26 Z" stroke="#040000" stroke-miterlimit="10" fill="#00D800" fill-rule="evenodd"/><path d=" M 171.55 76.6 L 213 106.86 C 213.529 107.244 214.213 107.344 214.83 107.13 C 222.96 104.29 231.1 101.49 239.27 98.67 L 240.79 98.15 C 241.498 97.9074 242.011 97.2901 242.12 96.55 C 242.17 96.3025 242.17 96.0475 242.12 95.8 C 242.12 95.8 242.12 95.8 242.12 95.8 L 242.12 95.8 C 242.022 95.6841 241.944 95.5522 241.89 95.41 L 241.36 94.81 C 241.24 94.66 241.11 94.53 241 94.39 C 227.14 84.39 213.393 74.4433 199.76 64.55 C 199.42 64.3036 199.01 64.1706 198.59 64.17 C 198.369 64.1715 198.149 64.2087 197.94 64.28 L 172.08 73.1 C 171.379 73.344 170.871 73.9561 170.76 74.69 C 170.648 75.4239 170.953 76.1593 171.55 76.6 Z M 198.15 68.35 C 210.63 77.4033 223.193 86.4967 235.84 95.63 C 228.7 98.0833 221.583 100.543 214.49 103.01 L 177 75.63 Z" stroke="#040000" stroke-miterlimit="10" fill="#060001"/><path d=" M 151.14 31.85 C 151.3 41.05 151.48 50.3033 151.68 59.61 L 172.68 74.99 C 181.273 72.0233 189.857 69.07 198.43 66.13 L 174.65 48.88 C 166.79 43.19 159 37.49 151.14 31.85 Z" stroke="#040000" stroke-miterlimit="10" fill="#FFA100" fill-rule="evenodd"/><path d=" M 151.14 29.85 C 151.556 29.8498 151.961 29.9791 152.3 30.22 L 199.65 64.51 C 200.541 65.1631 200.733 66.4147 200.08 67.3055 C 199.842 67.6308 199.511 67.8764 199.13 68.01 L 173.38 76.87 C 172.763 77.0845 172.079 76.9836 171.55 76.6 L 150.5 61.22 C 149.997 60.8528 149.694 60.2724 149.68 59.65 C 149.493 50.35 149.313 41.0967 149.14 31.89 C 149.125 31.1327 149.539 30.4321 150.21 30.08 C 150.497 29.9291 150.816 29.8502 151.14 29.85 Z M 194.2 65.49 L 153.2 35.81 C 153.34 43.3567 153.49 50.9467 153.65 58.58 L 173.06 72.76 Z" stroke="#040000" stroke-miterlimit="10" fill="#060001"/><path d=" M 109.45 1.68 C 109.53 10.7133 109.613 19.8033 109.7 28.95 C 123.587 39.0767 137.587 49.2967 151.7 59.61 C 151.513 50.31 151.333 41.0567 151.16 31.85 Z" stroke="#040000" stroke-miterlimit="10" fill="#00D800" fill-rule="evenodd"/><path d=" M 108.53 30.56 L 150.53 61.22 C 151.148 61.6542 151.954 61.7156 152.63 61.38 C 153.305 61.0307 153.723 60.3295 153.71 59.57 C 153.51 50.27 153.327 41.0167 153.16 31.81 C 153.147 31.1822 152.839 30.5972 152.33 30.23 L 111.69 0.84 C 111.482 0.771215 111.268 0.724295 111.05 0.7 C 110.99 0.7 110.87 0.7 110.75 0.7 C 110.56 0.715094 110.368 0.68777 110.19 0.62 C 109.998 0.652206 109.801 0.631462 109.62 0.56 C 109.043 0.611985 108.495 0.838733 108.05 1.21 C 107.899 1.36454 107.703 1.46626 107.49 1.5 C 107.486 1.58328 107.486 1.66672 107.49 1.75 L 107.71 29 C 107.727 29.6189 108.03 30.195 108.53 30.56 Z M 111.53 5.62 L 149.19 32.88 C 149.33 40.42 149.48 48 149.64 55.62 L 111.73 27.92 Z" stroke="#040000" stroke-miterlimit="10" fill="#040000"/><path d=" M 241.37 97.55 C 232.67 100.41 223.957 103.297 215.23 106.21 C 209.73 123.15 204.223 140.123 198.71 157.13 C 207.477 154.137 216.23 151.18 224.97 148.26 C 230.43 131.32 235.897 114.417 241.37 97.55 Z" stroke="#040000" stroke-miterlimit="10" fill="#FFA100" fill-rule="evenodd"/><path d=" M 197.31 158.55 C 197.849 159.082 198.643 159.264 199.36 159.02 C 208.12 156.02 216.867 153.063 225.6 150.15 C 226.203 149.949 226.674 149.474 226.87 148.87 L 243.19 98.4 C 243.089 97.4831 242.713 96.6184 242.11 95.92 C 242.079 95.8741 242.055 95.8235 242.04 95.77 L 242.04 95.77 L 241.97 95.67 C 241.783 95.6069 241.587 95.5732 241.39 95.57 C 241.176 95.5694 240.963 95.6032 240.76 95.67 C 233.707 97.9833 226.647 100.317 219.58 102.67 L 214.58 104.31 C 213.981 104.513 213.514 104.988 213.32 105.59 L 196.8 156.52 C 196.574 157.239 196.771 158.023 197.31 158.55 Z M 216.83 107.78 L 220.83 106.46 C 226.65 104.52 232.463 102.593 238.27 100.68 L 223.39 146.68 C 216.223 149.093 209.043 151.52 201.85 153.96 Z" stroke="#040000" stroke-miterlimit="10" fill="#060001"/><path d=" M 26.49 254.25 L 77.79 254.25 C 83.3633 246.75 88.91 239.273 94.43 231.82 L 43.12 231.82 C 37.56 239.28 32 246.76 26.49 254.25 Z" stroke="#040000" stroke-miterlimit="10" fill="#EEE8AA" fill-rule="evenodd"/><path d=" M 25.05 255.59 C 25.4463 255.887 25.9042 256.092 26.39 256.19 L 26.45 256.19 C 26.5628 256.174 26.6772 256.174 26.79 256.19 C 26.8733 256.195 26.9567 256.195 27.04 256.19 L 77.79 256.19 C 78.4195 256.19 79.0123 255.894 79.39 255.39 L 96 233 C 96.6572 232.112 96.4703 230.86 95.5826 230.203 C 95.2402 229.949 94.8259 229.812 94.4 229.81 L 43.12 229.81 C 42.4887 229.812 41.8956 230.113 41.52 230.62 C 37.98 235.36 34.47 240.11 30.94 244.87 L 24.88 253.05 C 24.4301 253.657 24.3605 254.465 24.7 255.14 C 24.7798 255.285 24.8772 255.419 24.99 255.54 Z M 34.16 247.25 C 37.4933 242.77 40.8267 238.293 44.16 233.82 L 90.47 233.82 L 76.79 252.27 L 30.45 252.27 Z" stroke="#040000" stroke-miterlimit="10" fill="#060001"/><path d=" M 137.41 254.28 C 131.91 246.787 126.393 239.3 120.86 231.82 L 94.43 231.82 C 88.89 239.273 83.3433 246.753 77.79 254.26 L 107.63 254.26 Z" stroke="#040000" stroke-miterlimit="10" fill="#FF1493" fill-rule="evenodd"/><path d=" M 94.43 229.82 L 120.86 229.82 C 121.493 229.825 122.087 230.129 122.46 230.64 C 128 238.12 133.52 245.603 139.02 253.09 C 139.467 253.699 139.532 254.507 139.19 255.18 C 138.851 255.853 138.163 256.278 137.41 256.28 L 77.79 256.28 C 77.0369 256.278 76.3489 255.853 76.01 255.18 C 75.6734 254.503 75.7469 253.695 76.2 253.09 L 92.82 230.66 C 93.1913 230.138 93.7898 229.826 94.43 229.82 Z M 119.85 233.82 L 95.43 233.82 L 81.76 252.27 L 133.46 252.27 C 128.933 246.09 124.397 239.94 119.85 233.82 Z" stroke="#040000" stroke-miterlimit="10" fill="#040000"/><path d=" M 191 254.3 C 185.5 246.787 179.98 239.293 174.44 231.82 L 120.86 231.82 C 126.393 239.313 131.91 246.8 137.41 254.28 C 155.283 254.28 173.147 254.287 191 254.3 Z" stroke="#040000" stroke-miterlimit="10" fill="#EEE8AA" fill-rule="evenodd"/><path d=" M 135.8 255.47 C 136.178 255.98 136.775 256.281 137.41 256.28 L 189.85 256.28 C 190.269 256.15 190.677 255.987 191.07 255.79 C 191.122 255.769 191.175 255.752 191.23 255.74 C 191.678 255.407 192.096 255.036 192.48 254.63 C 192.48 254.63 192.48 254.56 192.53 254.53 C 192.653 254.346 192.766 254.156 192.87 253.96 C 192.87 253.96 192.87 253.96 192.87 253.89 C 192.817 253.609 192.704 253.343 192.54 253.11 C 187.033 245.603 181.513 238.11 175.98 230.63 C 175.604 230.116 175.007 229.812 174.37 229.81 L 120.86 229.81 C 119.755 229.809 118.859 230.703 118.857 231.807 C 118.857 232.237 118.995 232.655 119.25 233 C 124.79 240.487 130.307 247.977 135.8 255.47 Z M 173.41 233.82 C 177.977 239.98 182.52 246.14 187.04 252.3 L 138.42 252.3 C 133.893 246.153 129.36 240 124.82 233.84 Z" stroke="#040000" stroke-miterlimit="10" fill="#060001"/><path d=" M 67.61 59.11 C 68.031 59.1057 68.4419 59.2391 68.78 59.49 L 109.78 89.25 C 110.294 89.6256 110.598 90.2234 110.6 90.86 C 110.602 91.5001 110.297 92.1023 109.78 92.48 L 62.17 127 C 61.6622 127.388 60.9925 127.494 60.39 127.28 C 59.7836 127.082 59.3081 126.606 59.11 126 L 43.46 77.91 C 43.1938 77.0892 43.4841 76.1902 44.18 75.68 L 66.43 59.49 C 66.7732 59.2416 67.1863 59.1085 67.61 59.11 Z M 105.17 90.86 L 67.61 63.58 L 47.7 78.06 L 62.06 122.2 Z" stroke="#040000" stroke-miterlimit="10" fill="#060001"/><path d=" M 151.38 57.75 C 151.8 57.7506 152.21 57.8836 152.55 58.13 L 173.66 73.46 C 174.36 73.9716 174.651 74.8762 174.38 75.7 L 158 126 C 157.802 126.606 157.326 127.082 156.72 127.28 C 156.114 127.49 155.443 127.385 154.93 127 L 107.4 92.48 C 106.879 92.1045 106.571 91.5019 106.57 90.86 C 106.574 90.2216 106.882 89.6234 107.4 89.25 L 150.22 58.13 C 150.558 57.8855 150.963 57.7527 151.38 57.75 Z M 170.14 75.84 L 151.38 62.21 L 112 90.86 L 155.11 122.2 Z" stroke="#040000" stroke-miterlimit="10" fill="#060001"/><path d=" M 61 123.43 C 61.2109 123.427 61.4206 123.461 61.62 123.53 C 62.2264 123.728 62.7019 124.204 62.9 124.81 L 81.05 180.74 C 81.2478 181.347 81.1437 182.012 80.77 182.53 C 80.3944 183.044 79.7966 183.348 79.16 183.35 L 26.21 183.35 C 25.3449 183.349 24.5782 182.793 24.31 181.97 L 16.25 157.17 C 15.9859 156.347 16.2804 155.448 16.98 154.94 L 59.83 123.81 C 60.1704 123.564 60.5798 123.431 61 123.43 Z M 76.41 179.36 L 60 128.65 L 20.49 157.32 L 27.66 179.32 Z" stroke="#040000" stroke-miterlimit="10" fill="#060001"/><path d=" M 156.12 123.43 C 156.54 123.431 156.95 123.564 157.29 123.81 L 200 154.88 C 200.7 155.388 200.994 156.287 200.73 157.11 L 192.7 182 C 192.432 182.823 191.665 183.379 190.8 183.38 L 138 183.38 C 137.358 183.379 136.756 183.071 136.38 182.55 C 136.01 182.035 135.906 181.374 136.1 180.77 L 154.26 124.84 C 154.458 124.234 154.934 123.758 155.54 123.56 C 155.725 123.486 155.921 123.442 156.12 123.43 Z M 196.53 157.26 L 157.17 128.65 L 140.7 179.36 L 189.35 179.36 Z" stroke="#040000" stroke-miterlimit="10" fill="#060001"/><path d=" M 172.49 73.08 C 172.909 73.0864 173.317 73.2188 173.66 73.46 L 216.41 104.53 C 217.106 105.04 217.396 105.939 217.13 106.76 L 200.77 157.11 C 200.572 157.716 200.096 158.192 199.49 158.39 C 198.887 158.6 198.219 158.495 197.71 158.11 L 155 127 C 154.3 126.492 154.006 125.593 154.27 124.77 L 170.64 74.42 C 170.838 73.8136 171.314 73.3381 171.92 73.14 C 172.106 73.0908 172.298 73.0706 172.49 73.08 Z M 212.89 106.91 L 173.54 78.31 L 158.47 124.66 L 197.82 153.26 Z" stroke="#040000" stroke-miterlimit="10" fill="#060001"/><path d=" M 26.21 179.36 L 79.21 179.36 C 80.0715 179.365 80.833 179.921 81.1 180.74 L 97.39 231 C 97.7269 232.052 97.1473 233.178 96.0954 233.515 C 95.9029 233.576 95.7021 233.609 95.5 233.61 L 42.5 233.61 C 41.6385 233.605 40.877 233.049 40.61 232.23 L 24.31 182 C 23.9731 180.948 24.5528 179.822 25.6047 179.485 C 25.8004 179.423 26.0045 179.39 26.21 179.39 Z M 77.71 183.36 L 29 183.36 L 44 229.62 L 92.75 229.62 Z" stroke="#040000" stroke-miterlimit="10" fill="#060001"/><path d=" M 138 179.36 L 190.8 179.36 C 191.905 179.363 192.798 180.26 192.795 181.365 C 192.795 181.57 192.763 181.774 192.7 181.97 L 176.36 232.22 C 176.093 233.039 175.331 233.595 174.47 233.6 L 121.63 233.6 C 120.988 233.599 120.386 233.291 120.01 232.77 C 119.64 232.255 119.536 231.594 119.73 230.99 L 136.06 180.74 C 136.333 179.903 137.12 179.343 138 179.36 Z M 188.1 183.36 L 139.41 183.36 L 124.41 229.62 L 173 229.62 Z" stroke="#040000" stroke-miterlimit="10" fill="#060001"/><path d=" M 79.16 179.36 L 138 179.36 C 138.637 179.362 139.234 179.666 139.61 180.18 C 139.984 180.698 140.088 181.363 139.89 181.97 L 123.56 232.22 C 123.293 233.039 122.531 233.595 121.67 233.6 L 95.5 233.6 C 94.6348 233.599 93.8682 233.043 93.6 232.22 L 77.26 182 C 76.9231 180.948 77.5028 179.822 78.5547 179.485 C 78.7504 179.423 78.9545 179.39 79.16 179.39 Z M 135.21 183.36 L 81.9 183.36 L 96.9 229.62 L 120.13 229.62 Z" stroke="#040000" stroke-miterlimit="10" fill="#060001"/></g></g></svg>