<svg version="1.1" viewBox="0 0 270.53 228.92" xmlns="http://www.w3.org/2000/svg" xmlns:xlink="http://www.w3.org/1999/xlink" overflow="hidden"><defs></defs><g id="b265739c-1b61-472e-90eb-6071aeb6aa02"><g id="a8b521ef-e9cc-4404-ae80-0051e14e2fe8"><path d=" M 182.59 99.18 L 164.38 155.09 L 105.6 155.1 L 87.45 99.19 L 135.02 64.61 L 182.59 99.18 Z" fill="#808080"/><path d=" M 182.59 99.18 L 135.02 64.61 L 87.45 99.19 L 105.6 155.1 L 164.38 155.09 L 182.59 99.18 Z" stroke="#040000" stroke-miterlimit="10" fill="none"/><path d=" M 104.43 156.71 C 104.087 156.462 103.831 156.112 103.7 155.71 L 85.54 99.8 C 85.278 98.9749 85.5767 98.0748 86.28 97.57 L 133.84 63 C 134.541 62.4913 135.489 62.4913 136.19 63 L 183.76 97.56 C 184.456 98.0702 184.746 98.9692 184.48 99.79 L 166.29 155.7 C 166.022 156.523 165.255 157.079 164.39 157.08 L 105.6 157.08 C 105.181 157.082 104.772 156.953 104.43 156.71 Z M 89.79 99.94 L 107.05 153.1 L 163 153.1 L 180.28 99.94 L 135 67.08 Z" stroke="#040000" stroke-miterlimit="10" fill="#211613"/><path d=" M 105.6 155.09 L 121.25 203.24 L 148.77 203.23 L 164.4 155.09 L 105.6 155.09 Z" stroke="#040000" stroke-miterlimit="10" fill="#808080" fill-rule="evenodd"/><path d=" M 148.77 203.23 L 201.74 203.23 L 217.37 155.1 L 164.4 155.09 L 148.77 203.23 Z" stroke="#040000" stroke-miterlimit="10" fill="#808080" fill-rule="evenodd"/><path d=" M 147.59 204.84 C 147.421 204.717 147.273 204.569 147.15 204.4 C 146.776 203.882 146.672 203.217 146.87 202.61 L 162.5 154.47 C 162.772 153.651 163.538 153.099 164.4 153.1 L 217.4 153.1 C 218.505 153.108 219.393 154.01 219.385 155.115 C 219.384 155.317 219.352 155.518 219.29 155.71 L 203.66 203.85 C 203.393 204.669 202.631 205.225 201.77 205.23 L 148.77 205.23 C 148.345 205.229 147.932 205.092 147.59 204.84 Z M 165.84 157.09 L 151.52 201.23 L 200.29 201.23 L 214.62 157.09 Z" stroke="#040000" stroke-miterlimit="10" fill="#060001"/><path d=" M 121.25 203.24 L 105.6 155.09 L 52.67 155.1 L 68.33 203.23 L 121.25 203.24 Z" stroke="#040000" stroke-miterlimit="10" fill="#808080" fill-rule="evenodd"/><path d=" M 67.15 204.85 C 66.8107 204.601 66.5588 204.251 66.43 203.85 L 50.78 155.72 C 50.5788 155.11 50.683 154.44 51.06 153.92 C 51.4377 153.403 52.0399 153.098 52.68 153.1 L 105.61 153.1 C 106.471 153.105 107.233 153.661 107.5 154.48 L 123.14 202.62 C 123.482 203.67 122.909 204.799 121.859 205.141 C 121.659 205.207 121.45 205.24 121.24 205.24 L 68.32 205.24 C 67.8987 205.236 67.4892 205.1 67.15 204.85 Z M 55.42 157.1 L 69.77 201.24 L 118.5 201.24 L 104.15 157.09 Z" stroke="#040000" stroke-miterlimit="10" fill="#060001"/><path d=" M 87.45 99.18 L 44.61 130.29 L 52.67 155.1 L 105.6 155.09 L 87.45 99.18 Z" stroke="#040000" stroke-miterlimit="10" fill="#808080" fill-rule="evenodd"/><path d=" M 164.4 155.09 L 217.37 155.1 L 225.42 130.29 L 182.58 99.17 L 164.4 155.09 Z" stroke="#040000" stroke-miterlimit="10" fill="#808080" fill-rule="evenodd"/><path d=" M 135.01 64.61 L 92.26 33.55 L 71.12 48.92 L 87.45 99.18 L 135.01 64.61 Z" stroke="#040000" stroke-miterlimit="10" fill="#808080" fill-rule="evenodd"/><path d=" M 71.12 48.92 L 28.29 80.03 L 44.61 130.29 L 87.45 99.18 L 71.12 48.92 Z" stroke="#040000" stroke-miterlimit="10" fill="#808080" fill-rule="evenodd"/><path d=" M 225.42 130.29 L 241.75 80.05 L 198.9 48.91 L 182.58 99.17 L 225.42 130.29 Z" stroke="#040000" stroke-miterlimit="10" fill="#808080" fill-rule="evenodd"/><path d=" M 177.76 33.56 L 135.01 2.5 L 92.26 33.55 L 135.01 64.61 L 177.76 33.56 Z" stroke="#040000" stroke-miterlimit="10" fill="#808080" fill-rule="evenodd"/><path d=" M 182.58 99.17 L 198.9 48.91 L 177.76 33.56 L 135.01 64.61 L 182.58 99.17 Z" stroke="#040000" stroke-miterlimit="10" fill="#808080" fill-rule="evenodd"/><path d=" M 52.9 226.05 C 70.0133 226.117 87.1667 226.17 104.36 226.21 C 109.767 218.537 115.213 210.807 120.7 203.02 L 68.61 202.94 Z" stroke="#040000" stroke-miterlimit="10" fill="#EE0000" fill-rule="evenodd"/><path d=" M 51.73 227.67 C 51.482 227.491 51.277 227.258 51.13 226.99 C 50.7853 226.334 50.8315 225.541 51.25 224.93 L 67 201.82 C 67.3748 201.273 67.9966 200.947 68.66 200.95 L 120.75 201.03 C 121.493 201.03 122.175 201.442 122.52 202.1 C 122.86 202.764 122.802 203.562 122.37 204.17 L 106 227.36 C 105.623 227.897 105.006 228.214 104.35 228.21 L 52.89 228.05 C 52.4732 228.047 52.0676 227.914 51.73 227.67 Z M 69.67 204.94 L 56.67 224.07 L 103.34 224.22 L 116.86 205 Z" stroke="#040000" stroke-miterlimit="10" fill="#060001"/><path d=" M 164.72 226.42 C 159.08 218.66 153.413 210.87 147.72 203.05 L 120.72 203.05 C 115.22 210.83 109.773 218.56 104.38 226.24 C 114.42 226.287 124.46 226.32 134.5 226.34 Z" stroke="#040000" stroke-miterlimit="10" fill="#EE0000" fill-rule="evenodd"/><path d=" M 103.19 227.83 C 102.936 227.649 102.731 227.408 102.59 227.13 C 102.251 226.47 102.305 225.678 102.73 225.07 L 119.07 201.87 C 119.447 201.34 120.059 201.027 120.71 201.03 L 147.71 201.03 C 148.345 201.029 148.942 201.33 149.32 201.84 C 154.58 209.007 159.79 216.15 164.95 223.27 L 166.36 225.22 C 166.803 225.826 166.868 226.63 166.53 227.3 C 166.187 227.972 165.495 228.393 164.74 228.39 L 134.5 228.28 C 124.5 228.28 114.46 228.247 104.38 228.18 C 103.956 228.192 103.54 228.07 103.19 227.83 Z M 121.74 205 L 108.2 224.24 L 134.48 224.32 L 160.79 224.41 C 156.123 217.97 151.417 211.513 146.67 205.04 Z" stroke="#040000" stroke-miterlimit="10" fill="#060001"/><path d=" M 36.47 177.82 C 41.75 170.28 47.0433 162.673 52.35 155 L 44.35 130.18 C 35.6833 127.513 27.0167 124.847 18.35 122.18 C 21.41 131.513 24.4567 140.847 27.49 150.18 C 30.5233 159.513 33.5167 168.727 36.47 177.82 Z" stroke="#040000" stroke-miterlimit="10" fill="#EE0000" fill-rule="evenodd"/><path d=" M 35.3 179.43 C 34.957 179.182 34.7014 178.832 34.57 178.43 L 16.42 122.87 C 16.0803 121.819 16.657 120.692 17.7081 120.352 C 18.0949 120.227 18.5107 120.223 18.9 120.34 L 44.95 128.34 C 45.5701 128.532 46.0586 129.013 46.26 129.63 L 54.26 154.44 C 54.4534 155.035 54.3572 155.686 54 156.2 C 48.6667 163.82 43.37 171.42 38.11 179 C 37.4751 179.904 36.2277 180.122 35.3238 179.487 C 35.3158 179.481 35.3079 179.476 35.3 179.47 Z M 21.41 125.29 L 37.13 173.4 C 41.4567 167.2 45.79 160.97 50.13 154.71 L 42.76 131.83 Z" stroke="#040000" stroke-miterlimit="10" fill="#060001"/><path d=" M 52.47 226.72 C 57.71 219.387 62.9833 211.987 68.29 204.52 C 63.01 188.173 57.6967 171.667 52.35 155 C 47.0167 162.627 41.7233 170.22 36.47 177.78 C 41.85 194.24 47.1833 210.553 52.47 226.72 Z" stroke="#040000" stroke-miterlimit="10" fill="#EE0000" fill-rule="evenodd"/><path d=" M 70.19 203.9 L 54.25 154.42 C 54.0033 153.71 53.3908 153.189 52.65 153.06 C 51.8961 152.947 51.1438 153.273 50.71 153.9 C 45.3767 161.527 40.0867 169.12 34.84 176.68 C 34.4828 177.194 34.3866 177.845 34.58 178.44 L 50.16 226.08 C 50.2871 226.263 50.4347 226.431 50.6 226.58 C 50.6771 226.646 50.7475 226.72 50.81 226.8 C 50.9763 226.895 51.117 227.029 51.22 227.19 C 51.3934 227.278 51.5414 227.409 51.65 227.57 C 52.1459 227.87 52.722 228.009 53.3 227.97 C 53.511 227.937 53.7271 227.968 53.92 228.06 C 53.9817 228.005 54.0386 227.945 54.09 227.88 L 69.92 205.67 C 70.2838 205.155 70.3839 204.5 70.19 203.9 Z M 53.13 222.34 L 38.68 178.15 C 43.0067 171.963 47.34 165.743 51.68 159.49 L 66.07 204.17 Z" stroke="#040000" stroke-miterlimit="10" fill="#040000"/><path d=" M 45.17 40.24 C 53.9633 43 62.78 45.7533 71.62 48.5 C 78.7667 43.32 85.92 38.1233 93.08 32.91 C 93.17 23.66 93.22 14.43 93.32 5.17 C 85.2733 11.0567 77.2367 16.9133 69.21 22.74 C 61.1833 28.5667 53.17 34.4 45.17 40.24 Z" stroke="#040000" stroke-miterlimit="10" fill="#0000F2" fill-rule="evenodd"/><path d=" M 44 41.86 C 43.5805 41.5433 43.2978 41.0783 43.21 40.56 C 43.0928 39.8174 43.4018 39.0719 44.01 38.63 C 52.0033 32.81 60 26.9733 68 21.12 L 68.41 20.83 C 76.2833 15.11 84.1833 9.35333 92.11 3.56 C 92.7207 3.11663 93.5289 3.05475 94.2 3.4 C 94.8624 3.75346 95.28 4.43928 95.29 5.19 L 95.05 32.93 C 95.0361 33.5608 94.7339 34.1504 94.23 34.53 L 72.8 50.11 C 72.2815 50.4904 71.6117 50.5983 71 50.4 C 62.14 47.66 53.3133 44.91 44.52 42.15 C 44.3351 42.0758 44.1603 41.9783 44 41.86 Z M 91.29 9.13 C 84.43 14.13 77.5967 19.1067 70.79 24.06 L 49.55 39.52 C 56.77 41.7867 64.0067 44.0433 71.26 46.29 L 91.09 31.89 Z" stroke="#040000" stroke-miterlimit="10" fill="#060001"/><path d=" M 2.1 71.62 C 10.8133 74.42 19.5567 77.2133 28.33 80 L 71.62 48.5 C 62.7667 45.76 53.95 43.0067 45.17 40.24 C 30.79 50.7467 16.4333 61.2067 2.1 71.62 Z" stroke="#040000" stroke-miterlimit="10" fill="#0000F2" fill-rule="evenodd"/><path d=" M 73.59 48.17 C 73.4653 47.425 72.9315 46.8138 72.21 46.59 C 63.36 43.86 54.55 41.09 45.77 38.34 C 45.1658 38.1456 44.5053 38.2495 43.99 38.62 L 1.12 69.86 C 0.655735 70.6578 0.452916 71.581 0.54 72.5 C 0.546531 72.5565 0.546531 72.6135 0.54 72.67 L 0.54 72.67 C 0.54502 72.7098 0.54502 72.7502 0.54 72.79 C 0.655492 72.9521 0.793554 73.0969 0.95 73.22 C 1.12285 73.3448 1.31557 73.4395 1.52 73.5 C 8.58 75.7733 15.6667 78.0333 22.78 80.28 L 27.78 81.86 C 28.3857 82.0515 29.0464 81.9439 29.56 81.57 L 72.8 50.11 C 73.408 49.664 73.7134 48.9139 73.59 48.17 Z M 28 77.77 L 24 76.5 C 18.1467 74.64 12.31 72.78 6.49 70.92 L 45.53 42.45 C 52.7367 44.71 59.97 46.97 67.23 49.23 Z" stroke="#040000" stroke-miterlimit="10" fill="#060001"/><path d=" M 268 71.15 L 226.54 41 C 217.64 43.78 208.757 46.5733 199.89 49.38 L 241.41 79.54 C 250.283 76.7667 259.147 73.97 268 71.15 Z" stroke="#040000" stroke-miterlimit="10" fill="#0000F2" fill-rule="evenodd"/><path d=" M 270 70.91 C 269.861 70.4378 269.61 70.0059 269.27 69.65 L 269.22 69.65 C 269.125 69.5865 269.041 69.5089 268.97 69.42 L 268.78 69.26 L 268.78 69.26 L 227.78 39.42 C 227.269 39.0494 226.613 38.9419 226.01 39.13 L 199.35 47.51 C 198.634 47.7031 198.084 48.2766 197.92 49 C 197.799 49.7459 198.108 50.4964 198.72 50.94 L 240.23 81.1 C 240.741 81.4706 241.397 81.5781 242 81.39 L 258.93 76.08 L 268.64 73.02 C 269.343 72.7965 269.865 72.2047 270 71.48 C 270.025 71.3143 270.025 71.1457 270 70.98 Z M 257.74 72.31 L 241.74 77.31 L 204.24 50.07 L 226.15 43.18 L 263.63 70.43 Z" stroke="#040000" stroke-miterlimit="10" fill="#060001"/><path d=" M 178.32 5.93 C 178.373 15.2233 178.437 24.5233 178.51 33.83 L 199.89 49.37 C 208.77 46.5833 217.653 43.79 226.54 40.99 L 202.4 23.45 C 194.373 17.61 186.347 11.77 178.32 5.93 Z" stroke="#040000" stroke-miterlimit="10" fill="#0000F2" fill-rule="evenodd"/><path d=" M 198.72 51 L 177.34 35.45 C 176.829 35.0765 176.525 34.4831 176.52 33.85 C 176.44 24.5167 176.373 15.2167 176.32 5.95 C 176.317 5.1955 176.738 4.50329 177.41 4.16 C 178.078 3.81887 178.882 3.88065 179.49 4.32 L 227.72 39.37 C 228.328 39.816 228.633 40.5661 228.51 41.31 C 228.385 42.055 227.851 42.6662 227.13 42.89 L 200.5 51.27 C 199.897 51.4672 199.237 51.3671 198.72 51 Z M 180.5 32.81 L 200.25 47.16 L 222.16 40.27 L 180.34 9.87 C 180.38 17.51 180.433 25.1567 180.5 32.81 Z" stroke="#040000" stroke-miterlimit="10" fill="#040000"/><path d=" M 120.07 204.86 C 119.731 204.611 119.479 204.261 119.35 203.86 L 103.71 155.71 C 103.373 154.658 103.953 153.532 105.005 153.195 C 105.2 153.133 105.405 153.1 105.61 153.1 L 164.4 153.1 C 165.042 153.079 165.65 153.388 166.01 153.92 C 166.38 154.435 166.484 155.096 166.29 155.7 L 150.66 203.84 C 150.393 204.659 149.631 205.215 148.77 205.22 L 121.25 205.22 C 120.829 205.227 120.416 205.101 120.07 204.86 Z M 108.35 157.09 L 122.7 201.24 L 147.32 201.24 L 161.65 157.09 Z" stroke="#040000" stroke-miterlimit="10" fill="#060001"/><path d=" M 51.5 156.71 C 51.1528 156.469 50.8987 156.116 50.78 155.71 L 42.72 130.9 C 42.4538 130.079 42.7441 129.18 43.44 128.67 L 86.28 97.57 C 86.7953 97.1995 87.4558 97.0956 88.06 97.29 C 88.6794 97.47 89.1651 97.952 89.35 98.57 L 107.5 154.48 C 107.698 155.087 107.594 155.752 107.22 156.27 C 106.842 156.787 106.24 157.092 105.6 157.09 L 52.67 157.09 C 52.2483 157.099 51.836 156.965 51.5 156.71 Z M 47 131.05 L 54.16 153.05 L 102.9 153.05 L 86.4 102.41 Z" stroke="#040000" stroke-miterlimit="10" fill="#060001"/><path d=" M 163.22 156.7 C 163.049 156.579 162.901 156.431 162.78 156.26 C 162.406 155.742 162.302 155.077 162.5 154.47 L 180.69 98.56 C 181.034 97.5103 182.163 96.9381 183.213 97.2819 C 183.409 97.3459 183.593 97.4397 183.76 97.56 L 226.59 128.68 C 227.286 129.19 227.576 130.089 227.31 130.91 L 219.26 155.71 C 218.992 156.533 218.225 157.089 217.36 157.09 L 164.36 157.09 C 163.949 157.08 163.551 156.944 163.22 156.7 Z M 183.63 102.4 L 167.14 153.1 L 215.92 153.1 L 223.07 131.1 Z" stroke="#040000" stroke-miterlimit="10" fill="#060001"/><path d=" M 86.27 100.8 C 85.934 100.547 85.6829 100.199 85.55 99.8 L 69.22 49.53 C 68.9663 48.6961 69.2818 47.7939 70 47.3 L 91.09 31.94 C 91.7886 31.4361 92.7314 31.4361 93.43 31.94 L 136.19 63 C 136.704 63.3756 137.008 63.9734 137.01 64.61 C 137.006 65.2484 136.698 65.8466 136.18 66.22 L 88.62 100.79 C 87.9193 101.299 86.9707 101.299 86.27 100.79 Z M 73.46 49.68 L 88.49 96 L 131.62 64.66 L 92.26 36 Z" stroke="#040000" stroke-miterlimit="10" fill="#060001"/><path d=" M 43.44 131.91 C 43.1013 131.658 42.8467 131.309 42.71 130.91 L 26.39 80.64 C 26.1307 79.82 26.4247 78.9261 27.12 78.42 L 70 47.3 C 70.4996 46.9387 71.1379 46.828 71.73 47 C 72.3456 47.1913 72.8232 47.6801 73 48.3 L 89.34 98.56 C 89.6062 99.3808 89.3159 100.28 88.62 100.79 L 45.78 131.9 C 45.2664 132.274 44.6057 132.382 44 132.19 C 43.8004 132.125 43.6116 132.031 43.44 131.91 Z M 30.64 80.79 L 45.64 127.06 L 85.1 98.42 L 70.1 52.15 Z" stroke="#040000" stroke-miterlimit="10" fill="#060001"/><path d=" M 224.24 131.91 L 181.41 100.79 C 180.714 100.28 180.424 99.3808 180.69 98.56 L 197 48.3 C 197.347 47.2514 198.478 46.6826 199.527 47.0296 C 199.717 47.0925 199.897 47.1837 200.06 47.3 L 242.91 78.43 C 243.61 78.9375 243.904 79.837 243.64 80.66 L 227.3 130.91 C 226.956 131.96 225.827 132.532 224.777 132.188 C 224.581 132.124 224.397 132.03 224.23 131.91 Z M 184.93 98.41 L 224.37 127.07 L 239.37 80.81 L 200 52.14 Z" stroke="#040000" stroke-miterlimit="10" fill="#060001"/><path d=" M 133.84 66.23 L 91.09 35.16 C 90.2008 34.5047 90.0112 33.2526 90.6665 32.3634 C 90.7856 32.2018 90.9284 32.0591 91.09 31.94 L 133.84 0.88 C 134.541 0.371264 135.489 0.371264 136.19 0.88 L 178.93 31.94 C 179.447 32.3177 179.752 32.9199 179.75 33.56 C 179.748 34.1966 179.444 34.7944 178.93 35.17 L 136.18 66.22 C 135.484 66.7269 134.541 66.7309 133.84 66.23 Z M 95.65 33.55 L 135 62.14 L 174.36 33.56 L 135 5 Z" stroke="#040000" stroke-miterlimit="10" fill="#060001"/><path d=" M 181.41 100.79 L 133.84 66.23 C 133.323 65.8523 133.018 65.2501 133.02 64.61 C 133.022 63.9734 133.326 63.3756 133.84 63 L 176.59 31.94 C 177.289 31.4361 178.231 31.4361 178.93 31.94 L 200.07 47.3 C 200.77 47.8075 201.064 48.707 200.8 49.53 L 184.48 99.79 C 184.136 100.84 183.007 101.412 181.957 101.068 C 181.761 101.004 181.577 100.91 181.41 100.79 Z M 138.41 64.61 L 181.53 95.94 L 196.53 49.68 L 177.76 36 Z" stroke="#040000" stroke-miterlimit="10" fill="#060001"/></g></g></svg>