<svg version="1.1" viewBox="0 0 254.71 256.05" xmlns="http://www.w3.org/2000/svg" xmlns:xlink="http://www.w3.org/1999/xlink" overflow="hidden"><defs></defs><g id="b115043f-baba-4868-8390-d1ca70c2c9c7"><g id="a91962ac-fdff-4d41-95f2-a252d0098a35"><path d=" M 166.76 126.58 L 148.57 182.46 L 89.79 182.47 L 71.64 126.56 L 119.19 92.01 L 166.76 126.58 Z" fill="#808080"/><path d=" M 166.76 126.58 L 119.19 92.01 L 71.64 126.56 L 89.79 182.47 L 148.57 182.46 L 166.76 126.58 Z" stroke="#040000" stroke-miterlimit="10" fill="none"/><path d=" M 88.61 184.1 C 88.267 183.852 88.0114 183.502 87.88 183.1 L 69.72 127.19 C 69.4559 126.367 69.7504 125.468 70.45 124.96 L 118 90.39 C 118.701 89.8813 119.649 89.8813 120.35 90.39 L 167.93 125 C 168.63 125.508 168.924 126.407 168.66 127.23 L 150.47 183.14 C 150.202 183.963 149.435 184.519 148.57 184.52 L 89.78 184.52 C 89.3553 184.508 88.9455 184.361 88.61 184.1 Z M 74 127.33 L 91.26 180.49 L 147.15 180.49 L 164.44 127.33 L 119.19 94.47 Z" stroke="#040000" stroke-miterlimit="10" fill="#211613"/><path d=" M 89.78 182.48 L 105.42 230.63 L 132.95 230.62 L 148.57 182.48 L 89.78 182.48 Z" stroke="#040000" stroke-miterlimit="10" fill="#808080" fill-rule="evenodd"/><path d=" M 132.95 230.62 L 185.92 230.62 L 201.54 182.49 L 148.57 182.48 L 132.95 230.62 Z" stroke="#040000" stroke-miterlimit="10" fill="#808080" fill-rule="evenodd"/><path d=" M 131.77 232.23 C 131.601 232.107 131.453 231.959 131.33 231.79 C 130.956 231.272 130.852 230.607 131.05 230 L 146.68 181.86 C 146.948 181.037 147.715 180.481 148.58 180.48 L 201.58 180.48 C 202.219 180.471 202.821 180.778 203.19 181.3 C 203.564 181.818 203.668 182.483 203.47 183.09 L 187.84 231.23 C 187.572 232.053 186.805 232.609 185.94 232.61 L 132.94 232.61 C 132.52 232.609 132.11 232.476 131.77 232.23 Z M 150 184.48 L 135.67 228.62 L 184.45 228.62 L 198.78 184.48 Z" stroke="#040000" stroke-miterlimit="10" fill="#060001"/><path d=" M 105.42 230.63 L 89.78 182.48 L 36.85 182.49 L 52.5 230.62 L 105.42 230.63 Z" stroke="#040000" stroke-miterlimit="10" fill="#808080" fill-rule="evenodd"/><path d=" M 51.33 232.24 C 50.9907 231.991 50.7388 231.641 50.61 231.24 L 35 183.1 C 34.8022 182.493 34.9063 181.828 35.28 181.31 C 35.6556 180.796 36.2534 180.492 36.89 180.49 L 89.78 180.49 C 90.6425 180.489 91.4083 181.041 91.68 181.86 L 107.32 230 C 107.657 231.052 107.077 232.178 106.025 232.515 C 105.83 232.577 105.625 232.61 105.42 232.61 L 52.5 232.61 C 52.08 232.618 51.669 232.488 51.33 232.24 Z M 39.6 184.48 L 54 228.63 L 102.72 228.63 L 88.33 184.48 Z" stroke="#040000" stroke-miterlimit="10" fill="#060001"/><path d=" M 71.63 126.57 L 28.79 157.68 L 36.85 182.49 L 89.78 182.48 L 71.63 126.57 Z" stroke="#040000" stroke-miterlimit="10" fill="#808080" fill-rule="evenodd"/><path d=" M 148.57 182.48 L 201.54 182.49 L 209.6 157.68 L 166.76 126.56 L 148.57 182.48 Z" stroke="#040000" stroke-miterlimit="10" fill="#808080" fill-rule="evenodd"/><path d=" M 119.19 92 L 76.44 60.94 L 55.3 76.31 L 71.63 126.57 L 119.19 92 Z" stroke="#040000" stroke-miterlimit="10" fill="#808080" fill-rule="evenodd"/><path d=" M 55.3 76.31 L 12.47 107.42 L 28.79 157.68 L 71.63 126.57 L 55.3 76.31 Z" stroke="#040000" stroke-miterlimit="10" fill="#808080" fill-rule="evenodd"/><path d=" M 209.6 157.68 L 225.93 107.44 L 183.08 76.3 L 166.76 126.56 L 209.6 157.68 Z" stroke="#040000" stroke-miterlimit="10" fill="#808080" fill-rule="evenodd"/><path d=" M 161.94 60.94 L 119.19 29.89 L 76.44 60.94 L 119.19 92 L 161.94 60.94 Z" stroke="#040000" stroke-miterlimit="10" fill="#808080" fill-rule="evenodd"/><path d=" M 166.76 126.56 L 183.08 76.3 L 161.94 60.94 L 119.19 92 L 166.76 126.56 Z" stroke="#040000" stroke-miterlimit="10" fill="#808080" fill-rule="evenodd"/><path d=" M 20.65 205.21 C 25.93 197.67 31.2233 190.077 36.53 182.43 L 28.53 157.61 C 19.8633 154.943 11.1967 152.277 2.53 149.61 C 5.59 158.943 8.63667 168.277 11.67 177.61 C 14.7033 186.943 17.6967 196.143 20.65 205.21 Z" stroke="#040000" stroke-miterlimit="10" fill="#ADD8E6" fill-rule="evenodd"/><path d=" M 19.48 206.82 C 19.137 206.572 18.8814 206.222 18.75 205.82 L 0.6 150.26 C 0.260338 149.209 0.837031 148.082 1.88808 147.742 C 2.27494 147.617 2.69072 147.613 3.08 147.73 L 29.13 155.73 C 29.7456 155.918 30.2331 156.391 30.44 157 L 38.44 181.81 C 38.6334 182.405 38.5372 183.056 38.18 183.57 C 32.8467 191.197 27.5533 198.79 22.3 206.35 C 21.6651 207.254 20.4177 207.472 19.5138 206.837 C 19.5058 206.831 19.4979 206.826 19.49 206.82 Z M 5.59 152.68 L 21.31 200.79 C 25.6433 194.59 29.9767 188.36 34.31 182.1 L 27 159.22 Z" stroke="#040000" stroke-miterlimit="10" fill="#060001"/><path d=" M 36.64 254.11 C 41.8933 246.777 47.17 239.377 52.47 231.91 C 47.19 215.537 41.8767 199.043 36.53 182.43 C 31.1967 190.057 25.9033 197.65 20.65 205.21 C 26.03 221.637 31.36 237.937 36.64 254.11 Z" stroke="#040000" stroke-miterlimit="10" fill="#ADD8E6" fill-rule="evenodd"/><path d=" M 54.37 231.29 L 38.43 181.81 C 38.1833 181.1 37.5708 180.579 36.83 180.45 C 36.0781 180.335 35.3262 180.657 34.89 181.28 C 29.5567 188.92 24.2667 196.513 19.02 204.06 C 18.6536 204.57 18.5567 205.226 18.76 205.82 L 34.34 253.47 C 34.4697 253.651 34.6171 253.818 34.78 253.97 C 34.8571 254.036 34.9275 254.11 34.99 254.19 C 35.1563 254.285 35.297 254.419 35.4 254.58 C 35.5734 254.668 35.7214 254.799 35.83 254.96 C 36.3244 255.254 36.8956 255.393 37.47 255.36 C 37.6843 255.327 37.9036 255.358 38.1 255.45 C 38.1 255.39 38.22 255.34 38.27 255.27 L 54.1 233.06 C 54.4638 232.545 54.5639 231.89 54.37 231.29 Z M 37.31 249.73 L 22.86 205.54 C 27.18 199.353 31.5133 193.133 35.86 186.88 L 50.25 231.56 Z" stroke="#040000" stroke-miterlimit="10" fill="#060001"/><path d=" M 119.14 2.24 C 105.233 12.38 91.3533 22.4867 77.5 32.56 C 77.4 41.82 77.35 51.05 77.26 60.3 L 119 30 C 119 20.72 119.09 11.46 119.14 2.24 Z" stroke="#040000" stroke-miterlimit="10" fill="#FF1493" fill-rule="evenodd"/><path d=" M 120.25 0.61 L 119.98 0.61 C 119.925 0.594602 119.872 0.574529 119.82 0.55 C 119.26 0.551221 118.7 0.604787 118.15 0.71 L 118.06 0.71 L 117.53 0.94 L 112.36 4.71 C 100.36 13.4767 88.36 22.2233 76.36 30.95 C 75.8507 31.3172 75.5433 31.9022 75.53 32.53 L 75.29 60.28 C 75.2851 60.9236 75.5903 61.5303 76.11 61.91 C 76.1921 61.9705 76.279 62.024 76.37 62.07 C 77.0411 62.4152 77.8493 62.3534 78.46 61.91 L 120.2 31.57 C 120.695 31.1987 120.991 30.6189 121 30 C 121 22.36 121.07 14.7 121.11 7.07 L 121.11 2.3 C 121.126 1.62793 120.802 0.993 120.25 0.61 Z M 117.12 7 C 117.12 14.3 117.02 21.63 117 28.94 L 79.28 56.35 L 79.48 33.58 C 91.2067 25.0733 102.95 16.5233 114.71 7.93 L 117.12 6.18 Z" stroke="#040000" stroke-miterlimit="10" fill="#060001"/><path d=" M 29.35 67.63 C 38.1367 70.39 46.9533 73.14 55.8 75.88 C 62.9533 70.7 70.1067 65.5067 77.26 60.3 C 77.35 51.05 77.4 41.82 77.5 32.56 C 69.4533 38.4533 61.4167 44.31 53.39 50.13 C 45.3633 55.95 37.35 61.7833 29.35 67.63 Z" stroke="#040000" stroke-miterlimit="10" fill="#FF1493" fill-rule="evenodd"/><path d=" M 28.17 69.25 C 27.7505 68.9333 27.4678 68.4683 27.38 67.95 C 27.2525 67.2028 27.5584 66.4478 28.17 66 L 52.17 48.49 L 52.58 48.2 C 60.48 42.4933 68.3933 36.76 76.32 31 C 76.9287 30.5534 77.7371 30.4876 78.41 30.83 C 79.0812 31.1777 79.4991 31.8741 79.49 32.63 L 79.25 60.37 C 79.2453 61.0031 78.9412 61.5965 78.43 61.97 C 71.29 67.13 64.1467 72.3067 57 77.5 C 56.4938 77.8642 55.8466 77.9715 55.25 77.79 C 46.3833 75.05 37.5567 72.2967 28.77 69.53 C 28.5558 69.4706 28.3531 69.376 28.17 69.25 Z M 75.47 36.52 C 68.6233 41.5067 61.8 46.4833 55 51.45 C 47.7 56.77 40.72 61.86 33.77 66.91 C 40.99 69.1833 48.2267 71.44 55.48 73.68 L 75.31 59.28 Z" stroke="#040000" stroke-miterlimit="10" fill="#060001"/><path d=" M 252.22 98.54 C 238.38 88.4867 224.547 78.43 210.72 68.37 L 184.07 76.75 L 225.59 106.91 C 234.46 104.15 243.33 101.34 252.22 98.54 Z" stroke="#040000" stroke-miterlimit="10" fill="#EEE8AA" fill-rule="evenodd"/><path d=" M 254.17 98.3 C 254.033 97.8238 253.783 97.388 253.44 97.03 L 253.39 97.03 C 253.293 96.9652 253.209 96.8839 253.14 96.79 C 253.081 96.7346 253.018 96.6844 252.95 96.64 L 252.95 96.64 L 211.89 66.76 C 211.381 66.3926 210.73 66.2852 210.13 66.47 L 183.47 74.85 C 182.418 75.1866 181.838 76.3124 182.175 77.3644 C 182.304 77.768 182.558 78.1201 182.9 78.37 L 224.41 108.53 C 224.921 108.901 225.577 109.008 226.18 108.82 L 243.11 103.51 L 252.82 100.45 C 253.538 100.223 254.067 99.6125 254.19 98.87 C 254.21 98.7039 254.21 98.5361 254.19 98.37 Z M 241.9 99.7 L 225.9 104.7 L 188.45 77.47 L 210.36 70.58 L 247.84 97.83 Z" stroke="#040000" stroke-miterlimit="10" fill="#060001"/><path d=" M 162.5 33.32 C 162.553 42.6067 162.617 51.9067 162.69 61.22 L 184.07 76.75 L 210.72 68.37 L 186.58 50.84 Z" stroke="#040000" stroke-miterlimit="10" fill="#EEE8AA" fill-rule="evenodd"/><path d=" M 182.9 78.37 L 161.52 62.84 C 161.009 62.4665 160.705 61.8731 160.7 61.24 C 160.62 51.9067 160.553 42.6067 160.5 33.34 C 160.493 32.5819 160.915 31.8849 161.59 31.54 C 162.26 31.2018 163.064 31.2674 163.67 31.71 L 211.89 66.76 C 212.781 67.4131 212.973 68.6647 212.32 69.5555 C 212.069 69.8982 211.715 70.152 211.31 70.28 L 184.68 78.66 C 184.074 78.8515 183.414 78.7439 182.9 78.37 Z M 164.68 60.2 L 184.43 74.55 L 206.34 67.66 L 164.52 37.25 C 164.56 44.8967 164.613 52.5467 164.68 60.2 Z" stroke="#040000" stroke-miterlimit="10" fill="#060001"/><path d=" M 104.25 232.25 C 103.911 232.001 103.659 231.651 103.53 231.25 L 87.89 183.1 C 87.5531 182.048 88.1327 180.922 89.1846 180.585 C 89.3771 180.524 89.5779 180.491 89.78 180.49 L 148.58 180.49 C 149.223 180.477 149.828 180.789 150.19 181.32 C 150.56 181.835 150.664 182.496 150.47 183.1 L 134.84 231.24 C 134.573 232.059 133.811 232.615 132.95 232.62 L 105.43 232.62 C 105.007 232.624 104.594 232.495 104.25 232.25 Z M 92.53 184.48 L 106.88 228.63 L 131.5 228.63 L 145.82 184.48 Z" stroke="#040000" stroke-miterlimit="10" fill="#060001"/><path d=" M 35.68 184.1 C 35.3339 183.858 35.0801 183.505 34.96 183.1 L 26.9 158.3 C 26.6338 157.479 26.9241 156.58 27.62 156.07 L 70.45 125 C 70.9678 124.626 71.6328 124.522 72.24 124.72 C 72.8594 124.9 73.3451 125.382 73.53 126 L 91.68 181.9 C 92.0224 182.95 91.4487 184.079 90.3985 184.421 C 90.1988 184.487 89.9901 184.52 89.78 184.52 L 36.85 184.52 C 36.4244 184.513 36.013 184.365 35.68 184.1 Z M 31.14 158.44 L 38.3 180.49 L 87 180.49 L 70.58 129.8 Z" stroke="#040000" stroke-miterlimit="10" fill="#060001"/><path d=" M 147.4 184.09 C 147.229 183.969 147.081 183.821 146.96 183.65 C 146.586 183.132 146.482 182.467 146.68 181.86 L 164.87 125.94 C 165.217 124.891 166.348 124.323 167.397 124.67 C 167.587 124.733 167.767 124.824 167.93 124.94 L 210.77 156.06 C 211.466 156.57 211.756 157.469 211.49 158.29 L 203.44 183.09 C 203.172 183.913 202.405 184.469 201.54 184.47 L 148.54 184.47 C 148.13 184.463 147.732 184.331 147.4 184.09 Z M 167.81 129.79 L 151.32 180.48 L 200.09 180.48 L 207.25 158.48 Z" stroke="#040000" stroke-miterlimit="10" fill="#060001"/><path d=" M 70.45 128.19 C 70.114 127.937 69.8629 127.589 69.73 127.19 L 53.4 76.92 C 53.1338 76.0992 53.4241 75.2002 54.12 74.69 L 75.27 59.32 C 75.9686 58.8161 76.9114 58.8161 77.61 59.32 L 120.37 90.38 C 120.887 90.7577 121.192 91.3599 121.19 92 C 121.186 92.6384 120.878 93.2366 120.36 93.61 L 72.8 128.18 C 72.284 128.557 71.6187 128.665 71.01 128.47 C 70.8104 128.405 70.6216 128.311 70.45 128.19 Z M 57.64 77.07 L 72.64 123.34 L 115.8 92 L 76.44 63.4 Z" stroke="#040000" stroke-miterlimit="10" fill="#060001"/><path d=" M 27.62 159.29 C 27.277 159.042 27.0214 158.692 26.89 158.29 L 10.57 108 C 10.3107 107.18 10.6047 106.286 11.3 105.78 L 54.12 74.69 C 54.6378 74.3163 55.3028 74.2122 55.91 74.41 C 56.5265 74.5913 57.0087 75.0735 57.19 75.69 L 73.52 126 C 73.7862 126.821 73.4959 127.72 72.8 128.23 L 30 159.29 C 29.4864 159.664 28.8257 159.772 28.22 159.58 C 28.0042 159.52 27.8009 159.422 27.62 159.29 Z M 14.82 108.18 L 29.82 154.45 L 69.26 125.81 L 54.26 79.54 Z" stroke="#040000" stroke-miterlimit="10" fill="#060001"/><path d=" M 208.42 159.3 L 165.59 128.18 C 164.89 127.668 164.599 126.764 164.87 125.94 L 181.19 75.69 C 181.537 74.6414 182.668 74.0726 183.717 74.4196 C 183.907 74.4825 184.087 74.5737 184.25 74.69 L 227.1 105.82 C 227.796 106.33 228.086 107.229 227.82 108.05 L 211.49 158.3 C 211.294 158.904 210.823 159.379 210.22 159.58 C 209.61 159.781 208.94 159.677 208.42 159.3 Z M 169.11 125.8 L 208.55 154.45 L 223.55 108.2 L 184.13 79.53 Z" stroke="#040000" stroke-miterlimit="10" fill="#060001"/><path d=" M 118 93.61 L 75.26 62.55 C 74.7432 62.1723 74.4383 61.5701 74.44 60.93 C 74.4439 60.2916 74.7522 59.6934 75.27 59.32 L 118.02 28.32 C 118.719 27.8161 119.661 27.8161 120.36 28.32 L 163.11 59.38 C 163.627 59.7577 163.932 60.3599 163.93 61 C 163.928 61.6366 163.624 62.2344 163.11 62.61 L 120.36 93.61 C 119.657 94.1236 118.703 94.1236 118 93.61 Z M 79.83 60.94 L 119.19 89.53 L 158.55 61 L 119.19 32.4 Z" stroke="#040000" stroke-miterlimit="10" fill="#060001"/><path d=" M 165.59 128.18 L 118 93.61 C 117.486 93.2367 117.187 92.6353 117.2 92 C 117.202 91.3634 117.506 90.7656 118.02 90.39 L 160.77 59.33 C 161.469 58.8261 162.411 58.8261 163.11 59.33 L 184.25 74.69 C 184.95 75.1975 185.244 76.097 184.98 76.92 L 168.66 127.18 C 168.316 128.23 167.187 128.802 166.137 128.458 C 165.941 128.394 165.757 128.3 165.59 128.18 Z M 122.59 92 L 165.71 123.33 L 180.71 77.07 L 161.94 63.41 Z" stroke="#040000" stroke-miterlimit="10" fill="#060001"/></g></g></svg>