<svg viewBox="0 0 258.65 233.67" xmlns="http://www.w3.org/2000/svg" xmlns:xlink="http://www.w3.org/1999/xlink" overflow="hidden"><defs></defs><g id="图层_2"><g id="图层_1-2"><path d="M182.63 127.1 164.42 183.01 105.64 183.03 87.49 127.12 135.06 92.54 182.63 127.1Z" fill="#1B1B1B"/><path d="M182.63 127.1 135.06 92.54 87.49 127.12 105.64 183.03 164.42 183.01 182.63 127.1Z" stroke="#040000" stroke-miterlimit="10" fill="none"/><path d="M104.46 184.64C104.118 184.394 103.865 184.043 103.74 183.64L85.58 127.73C85.3159 126.907 85.6104 126.008 86.31 125.5L133.88 90.93C134.579 90.4261 135.521 90.4261 136.22 90.93L183.79 125.49C184.486 126 184.776 126.899 184.51 127.72L166.32 183.64C166.053 184.459 165.291 185.015 164.43 185.02L105.64 185.02C105.215 185.028 104.8 184.894 104.46 184.64ZM89.83 127.88 107.09 181 163 181 180.29 127.85 135.05 95Z" stroke="#040000" stroke-miterlimit="10" fill="#211613"/><path d="M105.64 183.03 121.28 231.18 148.8 231.16 164.43 183.02 105.64 183.03Z" stroke="#040000" stroke-miterlimit="10" fill="#1B1B1B" fill-rule="evenodd"/><path d="M148.8 231.16 201.77 231.17 217.4 183.03 164.43 183.02 148.8 231.16Z" stroke="#040000" stroke-miterlimit="10" fill="#1B1B1B" fill-rule="evenodd"/><path d="M147.63 232.77C147.457 232.652 147.308 232.503 147.19 232.33 146.816 231.812 146.712 231.147 146.91 230.54L162.53 182.41C162.798 181.587 163.565 181.031 164.43 181.03L217.43 181.03C218.071 181.014 218.676 181.323 219.04 181.85 219.414 182.364 219.522 183.024 219.33 183.63L203.7 231.77C203.432 232.593 202.665 233.149 201.8 233.15L148.8 233.15C148.379 233.154 147.968 233.021 147.63 232.77ZM165.88 185 151.55 229.15 200.32 229.15 214.65 185Z" stroke="#040000" stroke-miterlimit="10" fill="#060001"/><path d="M121.28 231.18 105.64 183.03 52.71 183.03 68.36 231.17 121.28 231.18Z" stroke="#040000" stroke-miterlimit="10" fill="#1B1B1B" fill-rule="evenodd"/><path d="M67.19 232.78C66.844 232.535 66.5876 232.184 66.46 231.78L50.81 183.65C50.6122 183.043 50.7163 182.378 51.09 181.86 51.4677 181.343 52.0699 181.038 52.71 181.04L105.64 181.04C106.501 181.045 107.263 181.601 107.53 182.42L123.18 230.57C123.517 231.622 122.937 232.748 121.885 233.085 121.69 233.147 121.485 233.18 121.28 233.18L68.36 233.18C67.9367 233.179 67.5256 233.038 67.19 232.78ZM55.46 185 69.81 229.14 118.53 229.14 104.19 185Z" stroke="#040000" stroke-miterlimit="10" fill="#060001"/><path d="M87.48 127.12 44.65 158.22 52.71 183.03 105.64 183.03 87.48 127.12Z" stroke="#040000" stroke-miterlimit="10" fill="#1B1B1B" fill-rule="evenodd"/><path d="M164.43 183.02 217.4 183.03 225.45 158.23 182.62 127.11 164.43 183.02Z" stroke="#040000" stroke-miterlimit="10" fill="#1B1B1B" fill-rule="evenodd"/><path d="M135.05 92.55 92.29 61.48 71.15 76.85 87.48 127.12 135.05 92.55Z" stroke="#040000" stroke-miterlimit="10" fill="#1B1B1B" fill-rule="evenodd"/><path d="M71.15 76.85 28.32 107.96 44.65 158.22 87.48 127.12 71.15 76.85Z" stroke="#040000" stroke-miterlimit="10" fill="#1B1B1B" fill-rule="evenodd"/><path d="M225.45 158.23 241.78 107.98 198.94 76.85 182.62 127.11 225.45 158.23Z" stroke="#040000" stroke-miterlimit="10" fill="#1B1B1B" fill-rule="evenodd"/><path d="M177.79 61.49 135.05 30.43 92.29 61.48 135.05 92.55 177.79 61.49Z" stroke="#040000" stroke-miterlimit="10" fill="#1B1B1B" fill-rule="evenodd"/><path d="M182.62 127.11 198.94 76.85 177.79 61.49 135.05 92.55 182.62 127.11Z" stroke="#040000" stroke-miterlimit="10" fill="#1B1B1B" fill-rule="evenodd"/><path d="M2.37 101.33C7.75 117.73 13.0833 134.017 18.37 150.19 27.06 152.85 35.72 155.51 44.42 158.19L28.66 109.33C19.9133 106.69 11.15 104.023 2.37 101.33Z" stroke="#040000" stroke-miterlimit="10" fill="#00D800" fill-rule="evenodd"/><path d="M46.3 157.54 30.56 108.71C30.3566 108.091 29.864 107.609 29.24 107.42 21 104.94 12.7533 102.433 4.5 99.9L3 99.42C2.28849 99.2088 1.51854 99.409 1 99.94 0.822453 100.122 0.686054 100.341 0.6 100.58 0.6 100.58 0.6 100.58 0.6 100.58L0.6 100.58C0.620596 100.733 0.620596 100.887 0.6 101.04 0.6 101.3 0.6 101.57 0.67 101.83 0.74 102.09 0.67 102.21 0.72 102.39 6.05333 118.617 11.33 134.74 16.55 150.76 16.6743 151.163 16.9272 151.514 17.27 151.76 17.4461 151.894 17.6464 151.992 17.86 152.05L43.86 160.05C44.9158 160.375 46.0349 159.782 46.3596 158.726 46.4807 158.333 46.4773 157.912 46.35 157.52ZM19.93 148.54C15.15 133.873 10.33 119.133 5.47 104.32 12.69 106.527 19.8933 108.717 27.08 110.89L41.33 155.09Z" stroke="#040000" stroke-miterlimit="10" fill="#060001"/><path d="M45.87 18.65C35.9567 32.13 26 45.6133 16 59.1 20.84 60.61 25.71 62.1 30.55 63.63 35.39 65.16 40.3 66.63 45.16 68.18 53.16 62.36 61.16 56.5233 69.16 50.67 77.16 44.8167 85.2233 38.96 93.35 33.1 93.4 28.01 93.43 22.89 93.47 17.79 93.51 12.69 93.55 7.59 93.61 2.49Z" stroke="#040000" stroke-miterlimit="10" fill="#00D800" fill-rule="evenodd"/><path d="M14.87 60.71C13.9784 60.0579 13.7843 58.8066 14.4363 57.915 14.4375 57.9133 14.4388 57.9117 14.44 57.91 24.44 44.41 34.38 30.93 44.26 17.47 44.5108 17.1344 44.8605 16.8861 45.26 16.76L93 0.59C94.0988 0.274551 95.2454 0.90962 95.5608 2.00847 95.6077 2.17176 95.6343 2.34021 95.64 2.51L95.38 33.12C95.3745 33.7477 95.0746 34.3365 94.57 34.71 86.6033 40.53 78.6633 46.31 70.75 52.05 62.4 58.14 54.4 64 46.37 69.79 45.8588 70.1606 45.2027 70.2681 44.6 70.08L37.76 68C35.15 67.2 32.56 66.4 29.98 65.58 26.83 64.58 23.64 63.58 20.47 62.58L15.47 61.02C15.2548 60.9492 15.0522 60.8446 14.87 60.71ZM47.1 20.34C37.8533 32.9 28.5933 45.4533 19.32 58L21.66 58.72C24.83 59.72 28.02 60.72 31.19 61.72 33.75 62.54 36.34 63.34 38.94 64.14L44.84 66C52.58 60.38 60.3233 54.7433 68.07 49.09 76.07 43.31 83.7 37.72 91.37 32.09L91.59 5.29Z" stroke="#040000" stroke-miterlimit="10" fill="#060001"/><path d="M135 2.79C121.093 12.93 107.21 23.0333 93.35 33.1 93.26 42.37 93.2 51.6 93.11 60.84L134.86 30.5C134.88 21.27 134.94 12 135 2.79Z" stroke="#040000" stroke-miterlimit="10" fill="#FFA100" fill-rule="evenodd"/><path d="M136.1 1.15 135.84 1.15 135.68 1.1C135.116 1.0968 134.553 1.15041 134 1.26L133.91 1.31 133.39 1.53 128.22 5.31C116.22 14.0833 104.22 22.8267 92.22 31.54 91.7116 31.9114 91.4078 32.5005 91.4 33.13L91.15 60.88C91.1474 61.5254 91.4565 62.1324 91.98 62.51 92.063 62.5691 92.1498 62.6226 92.24 62.67 92.9084 63.0111 93.7116 62.9493 94.32 62.51L136 32.12C136.514 31.7444 136.818 31.1466 136.82 30.51 136.82 22.87 136.89 15.2 136.93 7.57L136.93 2.8C136.939 2.14753 136.629 1.53167 136.1 1.15ZM133 7.55C133 14.85 132.91 22.18 132.89 29.49L95.14 56.9 95.34 34.12C107.067 25.6133 118.81 17.0667 130.57 8.48L133 6.73Z" stroke="#040000" stroke-miterlimit="10" fill="#060001"/><path d="M45.2 68.18C53.9933 70.94 62.8133 73.69 71.66 76.43 78.8133 71.25 85.9633 66.0533 93.11 60.84 93.2 51.6 93.26 42.37 93.35 33.1 85.3033 39.0333 77.2667 44.89 69.24 50.67 61.2133 56.45 53.2 62.2867 45.2 68.18Z" stroke="#040000" stroke-miterlimit="10" fill="#00D800" fill-rule="evenodd"/><path d="M44 69.79C43.5742 69.4818 43.2868 69.0184 43.2 68.5 43.0788 67.7541 43.3883 67.0036 44 66.56 52 60.74 60 54.9067 68 49.06L68.4 48.76C76.28 43.04 84.18 37.2833 92.1 31.49 92.713 31.0426 93.5263 30.9806 94.2 31.33 94.8616 31.6878 95.2756 32.3778 95.28 33.13L95.04 60.87C95.0322 61.4995 94.7284 62.0886 94.22 62.46 87.12 67.66 79.99 72.84 72.83 78 72.323 78.3708 71.6712 78.4819 71.07 78.3 62.21 75.5867 53.3867 72.8467 44.6 70.08 44.3846 70.0191 44.1816 69.9209 44 69.79ZM91.32 37.07C84.48 42.07 77.6467 47.0467 70.82 52 63.52 57.33 56.54 62.42 49.59 67.47 56.7967 69.73 64.03 71.9867 71.29 74.24 77.9033 69.4133 84.5167 64.6067 91.13 59.82Z" stroke="#040000" stroke-miterlimit="10" fill="#060001"/><path d="M226.23 18.78C210.23 13.4467 194.203 8.14333 178.15 2.87 178.15 8.03 178.22 13.22 178.24 18.36 178.26 23.5 178.31 28.71 178.36 33.87L202.44 51.38 226.58 68.92 241.35 64.25C246.26 62.69 251.21 61.14 256.16 59.58 246.16 45.98 236.183 32.38 226.23 18.78Z" stroke="#040000" stroke-miterlimit="10" fill="#FFA100" fill-rule="evenodd"/><path d="M225.4 70.54 177.18 35.48C176.669 35.1065 176.365 34.5131 176.36 33.88L176.15 2.88C176.155 2.23447 176.472 1.63117 177 1.26 177.516 0.89958 178.172 0.803252 178.77 1 189.99 4.73333 201.203 8.44667 212.41 12.14L226.86 16.91C227.261 17.0388 227.611 17.2907 227.86 17.63 237.92 31.35 247.86 44.9 257.79 58.43 258.445 59.3196 258.254 60.5715 257.365 61.2263 257.19 61.3547 256.996 61.4539 256.79 61.52L227.21 70.85C226.592 71.0461 225.917 70.9306 225.4 70.54ZM180.34 32.84 226.94 66.71 252.89 58.52 225 20.48 211.16 15.9C200.82 12.48 190.487 9.06 180.16 5.64Z" stroke="#040000" stroke-miterlimit="10" fill="#060001"/><path d="M178.36 33.87C178.407 43.1567 178.47 52.4567 178.55 61.77L199.93 77.3C208.803 74.5133 217.687 71.72 226.58 68.92L202.44 51.38Z" stroke="#040000" stroke-miterlimit="10" fill="#FFA100" fill-rule="evenodd"/><path d="M198.76 78.92 177.37 63.38C176.859 63.0065 176.555 62.4131 176.55 61.78 176.47 52.4467 176.407 43.1467 176.36 33.88 176.357 33.1255 176.778 32.4333 177.45 32.09 178.118 31.7489 178.922 31.8107 179.53 32.25L227.75 67.31C228.358 67.7519 228.667 68.4974 228.55 69.24 228.429 69.9888 227.894 70.6046 227.17 70.83L200.53 79.2C199.929 79.391 199.273 79.2872 198.76 78.92ZM180.54 60.74 200.29 75.09 222.2 68.21 180.37 37.8C180.423 45.4533 180.48 53.1 180.54 60.74Z" stroke="#040000" stroke-miterlimit="10" fill="#060001"/><path d="M120.11 232.79C119.764 232.548 119.51 232.195 119.39 231.79L103.74 183.65C103.398 182.6 103.971 181.471 105.021 181.129 105.221 181.063 105.43 181.03 105.64 181.03L164.43 181.03C165.071 181.012 165.677 181.321 166.04 181.85 166.414 182.368 166.518 183.033 166.32 183.64L150.7 231.78C150.432 232.603 149.665 233.159 148.8 233.16L121.28 233.16C120.86 233.167 120.449 233.037 120.11 232.79ZM108.39 185 122.73 229.15 147.35 229.15 161.68 185Z" stroke="#040000" stroke-miterlimit="10" fill="#060001"/><path d="M51.53 184.65C51.1907 184.401 50.9388 184.051 50.81 183.65L42.75 158.84C42.4859 158.017 42.7804 157.118 43.48 156.61L86.31 125.5C86.8278 125.126 87.4928 125.022 88.1 125.22 88.7127 125.408 89.1923 125.887 89.38 126.5L107.53 182.41C107.867 183.462 107.287 184.588 106.235 184.925 106.043 184.986 105.842 185.019 105.64 185.02L52.7 185.02C52.2809 185.022 51.8716 184.893 51.53 184.65ZM47 159 54.16 181 102.89 181 86.44 130.35Z" stroke="#040000" stroke-miterlimit="10" fill="#060001"/><path d="M163.26 184.64C163.089 184.516 162.94 184.364 162.82 184.19 162.446 183.676 162.338 183.016 162.53 182.41L180.72 126.49C181.064 125.44 182.193 124.868 183.243 125.212 183.439 125.276 183.623 125.37 183.79 125.49L226.63 156.61C227.326 157.12 227.616 158.019 227.35 158.84L219.35 183.64C219.082 184.463 218.315 185.019 217.45 185.02L164.45 185.02C164.023 185.024 163.606 184.89 163.26 184.64ZM183.66 130.33 167.18 181 216 181 223.16 159Z" stroke="#040000" stroke-miterlimit="10" fill="#060001"/><path d="M86.31 128.73C85.9672 128.484 85.7143 128.133 85.59 127.73L69.26 77.47C68.998 76.6449 69.2967 75.7448 70 75.24L91.12 59.87C91.8207 59.3613 92.7693 59.3613 93.47 59.87L136.22 90.93C136.737 91.3077 137.042 91.9099 137.04 92.55 137.038 93.1866 136.734 93.7844 136.22 94.16L88.65 128.73C88.1347 129.1 87.4742 129.204 86.87 129.01 86.6671 128.953 86.477 128.858 86.31 128.73ZM73.5 77.61 88.5 123.89 131.62 92.55 92.29 64Z" stroke="#040000" stroke-miterlimit="10" fill="#060001"/><path d="M43.47 159.84C43.1307 159.591 42.8788 159.241 42.75 158.84L26.42 108.58C26.1559 107.757 26.4504 106.858 27.15 106.35L70 75.24C70.5195 74.8863 71.1751 74.7975 71.77 75 72.3832 75.181 72.8642 75.6583 73.05 76.27L89.38 126.5C89.6441 127.323 89.3496 128.222 88.65 128.73L45.82 159.84C45.3022 160.214 44.6372 160.318 44.03 160.12 43.8298 160.057 43.6408 159.962 43.47 159.84ZM30.67 108.72 45.67 154.99 85.11 126.35 70.11 80.08Z" stroke="#040000" stroke-miterlimit="10" fill="#060001"/><path d="M224.28 159.84 181.44 128.72C180.744 128.21 180.454 127.311 180.72 126.49L197 76.23C197.22 75.6336 197.71 75.177 198.32 75 198.927 74.8022 199.592 74.9063 200.11 75.28L243 106.37C243.696 106.88 243.986 107.779 243.72 108.6L227.39 158.84C227.192 159.446 226.716 159.922 226.11 160.12 225.491 160.332 224.807 160.227 224.28 159.84ZM185 126.34 224.41 155 239.41 108.74 200 80.08Z" stroke="#040000" stroke-miterlimit="10" fill="#060001"/><path d="M133.87 94.16 91.12 63.1C90.6032 62.7223 90.2983 62.1201 90.3 61.48 90.3015 60.8434 90.606 60.2456 91.12 59.87L133.88 28.87C134.579 28.3661 135.521 28.3661 136.22 28.87L179 59.87C179.517 60.2477 179.822 60.8499 179.82 61.49 179.818 62.1266 179.514 62.7244 179 63.1L136.22 94.16C135.519 94.6687 134.571 94.6687 133.87 94.16ZM95.69 61.48 135.05 90.08 174.4 61.49 135.05 32.9Z" stroke="#040000" stroke-miterlimit="10" fill="#060001"/><path d="M181.44 128.72 133.87 94.16C132.978 93.5085 132.783 92.2572 133.435 91.3653 133.556 91.1986 133.703 91.0518 133.87 90.93L176.61 59.88C177.311 59.3713 178.259 59.3713 178.96 59.88L200.1 75.24C200.796 75.7502 201.086 76.6492 200.82 77.47L184.5 127.73C184.156 128.78 183.027 129.352 181.977 129.008 181.781 128.944 181.597 128.85 181.43 128.73ZM138.44 92.54 181.57 123.88 196.57 77.61 177.8 64Z" stroke="#040000" stroke-miterlimit="10" fill="#060001"/></g></g></svg>