<svg version="1.1" viewBox="0 0 257.78 258.5" xmlns="http://www.w3.org/2000/svg" xmlns:xlink="http://www.w3.org/1999/xlink" overflow="hidden"><defs></defs><g id="b2dfe98a-38e5-4d1d-a2b1-743573f5b5bb"><g id="e5081197-43b2-421b-b9e8-e0d2cc54da82"><path d=" M 101.67 127.11 L 149.25 92.56 L 196.83 127.13 L 178.65 183.03 L 119.84 183.04 L 101.67 127.11 Z" fill="#808080"/><path d=" M 101.67 127.11 L 119.84 183.04 L 178.65 183.03 L 196.83 127.13 L 149.25 92.56 L 101.67 127.11 Z" stroke="#040000" stroke-miterlimit="10" fill="none"/><path d=" M 198.73 126.5 C 198.855 126.904 198.855 127.336 198.73 127.74 L 180.55 183.64 C 180.278 184.459 179.512 185.011 178.65 185.01 L 119.85 185.01 C 118.988 185.011 118.222 184.459 117.95 183.64 L 99.78 127.73 C 99.5159 126.907 99.8104 126.008 100.51 125.5 L 148.09 91 C 148.789 90.4961 149.731 90.4961 150.43 91 L 198 125.5 C 198.343 125.748 198.599 126.098 198.73 126.5 Z M 177.2 181 L 194.48 127.86 L 149.26 95 L 104 127.87 L 121.3 181 Z" stroke="#040000" stroke-miterlimit="10" fill="#211613"/><path d=" M 58.65 68.16 L 29.25 58.74 L 58.85 18.21 L 106.52 2.6 L 106.41 33.46 L 58.65 68.16 Z" stroke="#040000" stroke-miterlimit="10" fill="#EEE8AA" fill-rule="evenodd"/><path d=" M 108.42 2 C 108.485 2.20009 108.515 2.40973 108.51 2.62 L 108.41 33.48 C 108.403 34.1148 108.095 34.7086 107.58 35.08 L 59.82 69.77 C 59.3064 70.1439 58.6457 70.2515 58.04 70.06 L 28.64 60.64 C 27.5695 60.2387 27.0271 59.0456 27.4284 57.9751 C 27.4831 57.8292 27.5541 57.69 27.64 57.56 L 57.24 17 C 57.4893 16.6607 57.8392 16.4088 58.24 16.28 L 105.3 0.9 C 105.475 0.775962 105.667 0.678254 105.87 0.61 C 106.864 0.240858 107.969 0.747454 108.338 1.74151 C 108.362 1.80651 108.383 1.87277 108.4 1.94 Z M 104.42 32.45 L 104.51 5.37 L 60.08 19.91 L 32.49 57.68 L 58.29 66 Z" stroke="#040000" stroke-miterlimit="10" fill="#060001"/><path d=" M 106.41 33.46 L 106.3 61.27 L 85.12 76.65 L 58.65 68.16 L 106.41 33.46 Z" stroke="#040000" stroke-miterlimit="10" fill="#EEE8AA" fill-rule="evenodd"/><path d=" M 108.31 32.84 C 108.374 33.044 108.408 33.2562 108.41 33.47 L 108.29 61.28 C 108.285 61.9131 107.981 62.5065 107.47 62.88 L 86.29 78.26 C 85.7781 78.6373 85.1173 78.7487 84.51 78.56 L 58 70.06 C 57.2835 69.8283 56.7578 69.2138 56.64 68.47 C 56.5267 67.7308 56.8353 66.9901 57.44 66.55 L 104.73 32.18 C 104.981 31.8444 105.331 31.5961 105.73 31.47 C 106.779 31.1284 107.907 31.7012 108.25 32.75 C 108.266 32.7822 108.287 32.8124 108.31 32.84 Z M 104.31 60.25 L 104.41 37.39 L 63 67.46 L 84.75 74.46 Z" stroke="#040000" stroke-miterlimit="10" fill="#060001"/><path d=" M 196.83 127.11 L 212.47 78.97 L 190.2 62.8 L 149.26 92.56 L 196.83 127.11 Z" stroke="#040000" stroke-miterlimit="10" fill="#808080" fill-rule="evenodd"/><path d=" M 190.2 62.8 L 147.35 31.66 L 106.41 61.42 L 149.26 92.56 L 190.2 62.8 Z" stroke="#040000" stroke-miterlimit="10" fill="#808080" fill-rule="evenodd"/><path d=" M 192.1 62.19 C 192.165 62.3867 192.195 62.593 192.19 62.8 C 192.192 63.4401 191.887 64.0423 191.37 64.42 L 150.43 94.17 C 149.731 94.6739 148.789 94.6739 148.09 94.17 L 105.24 63 C 104.713 62.6359 104.404 62.0306 104.42 61.39 C 104.422 60.7534 104.726 60.1556 105.24 59.78 L 146.18 30.02 C 146.879 29.5161 147.821 29.5161 148.52 30.02 L 191.37 61.16 C 191.718 61.4155 191.974 61.7769 192.1 62.19 Z M 149.26 90.09 L 186.8 62.8 L 147.35 34.13 L 109.81 61.42 Z" stroke="#040000" stroke-miterlimit="10" fill="#060001"/><path d=" M 212.47 78.97 L 196.83 127.11 L 239.65 158.22 L 255.28 110.08 L 212.47 78.97 Z" stroke="#040000" stroke-miterlimit="10" fill="#808080" fill-rule="evenodd"/><path d=" M 257.18 109.46 C 257.311 109.863 257.311 110.297 257.18 110.7 L 241.55 158.84 C 241.352 159.446 240.876 159.922 240.27 160.12 C 239.662 160.325 238.992 160.217 238.48 159.83 L 195.65 128.73 C 194.954 128.22 194.664 127.321 194.93 126.5 L 210.58 78.35 C 210.924 77.3003 212.053 76.7281 213.103 77.0719 C 213.299 77.1359 213.483 77.2297 213.65 77.35 L 256.45 108.46 C 256.797 108.704 257.053 109.056 257.18 109.46 Z M 238.6 155 L 252.94 110.85 L 213.52 82.2 L 199.17 126.35 Z" stroke="#040000" stroke-miterlimit="10" fill="#060001"/><path d=" M 178.65 183.02 L 231.59 183.03 L 239.65 158.22 L 196.83 127.11 L 178.65 183.02 Z" stroke="#040000" stroke-miterlimit="10" fill="#808080" fill-rule="evenodd"/><path d=" M 149.26 92.56 L 106.41 61.42 L 85.32 76.75 L 101.68 127.11 L 149.26 92.56 Z" stroke="#040000" stroke-miterlimit="10" fill="#808080" fill-rule="evenodd"/><path d=" M 119.85 183.03 L 136.18 233.29 L 162.32 233.28 L 178.65 183.02 L 119.85 183.03 Z" stroke="#040000" stroke-miterlimit="10" fill="#808080" fill-rule="evenodd"/><path d=" M 162.32 233.28 L 215.25 233.29 L 231.59 183.03 L 178.65 183.02 L 162.32 233.28 Z" stroke="#040000" stroke-miterlimit="10" fill="#808080" fill-rule="evenodd"/><path d=" M 85.32 76.75 L 42.57 107.8 L 58.94 158.18 L 101.68 127.11 L 85.32 76.75 Z" stroke="#040000" stroke-miterlimit="10" fill="#808080" fill-rule="evenodd"/><path d=" M 67.01 183.03 L 83.34 233.28 L 136.18 233.29 L 119.85 183.03 L 67.01 183.03 Z" stroke="#040000" stroke-miterlimit="10" fill="#808080" fill-rule="evenodd"/><path d=" M 101.68 127.11 L 58.94 158.18 L 67.01 183.03 L 119.85 183.03 L 101.68 127.11 Z" stroke="#040000" stroke-miterlimit="10" fill="#808080" fill-rule="evenodd"/><path d=" M 2.72 189.11 C 12.5667 202.817 22.4167 216.53 32.27 230.25 C 35.27 226.06 38.27 221.84 41.27 217.65 C 44.27 213.46 47.27 209.24 50.27 205.05 C 47.21 195.61 44.1467 186.167 41.08 176.72 L 31.86 148.34 L 17.17 143.44 C 12.28 141.82 7.36 140.16 2.45 138.51 C 2.57667 155.39 2.66667 172.257 2.72 189.11 Z" stroke="#040000" stroke-miterlimit="10" fill="#ADD8E6" fill-rule="evenodd"/><path d=" M 33.81 147.73 L 52.22 204.43 C 52.4172 205.033 52.3171 205.693 51.95 206.21 L 33.89 231.42 C 33.2422 232.315 31.9918 232.515 31.0971 231.867 C 30.9253 231.743 30.7744 231.592 30.65 231.42 C 23.77 221.807 16.8867 212.21 10 202.63 L 1.1 190.28 C 0.855549 189.942 0.722692 189.537 0.72 189.12 C 0.65 172.12 0.59 155.32 0.5 138.52 C 0.498997 137.415 1.39361 136.519 2.49818 136.518 C 2.71289 136.518 2.92622 136.552 3.13 136.62 L 32.55 146.45 C 33.1487 146.653 33.616 147.128 33.81 147.73 Z M 48.11 204.73 L 30.33 149.92 L 4.51 141.29 C 4.59 157.03 4.66 172.753 4.72 188.46 L 13.23 200.3 C 19.5767 209.14 25.91 217.98 32.23 226.82 Z" stroke="#040000" stroke-miterlimit="10" fill="#060001"/><path d=" M 50.32 205.05 C 55.74 197.497 61.1567 189.933 66.57 182.36 L 58.4 157.23 C 49.58 154.23 40.75 151.33 31.91 148.34 L 41.13 176.72 C 44.2033 186.16 47.2667 195.603 50.32 205.05 Z" stroke="#040000" stroke-miterlimit="10" fill="#ADD8E6" fill-rule="evenodd"/><path d=" M 60.3 156.61 L 68.46 181.74 C 68.6572 182.343 68.5571 183.003 68.19 183.52 C 62.7833 191.1 57.3867 198.663 52 206.21 C 51.5437 206.84 50.7636 207.148 50 207 C 49.2562 206.882 48.6417 206.357 48.41 205.64 L 30 149 C 29.6609 147.949 30.2382 146.822 31.2894 146.483 C 31.6963 146.351 32.1346 146.354 32.54 146.49 L 59 155.33 C 59.614 155.523 60.0978 155.999 60.3 156.61 Z M 64.36 182 L 56.81 158.8 L 35 151.49 L 51 200.68 C 55.46 194.46 59.9133 188.233 64.36 182 Z" stroke="#040000" stroke-miterlimit="10" fill="#060001"/><path d=" M 66.86 256 C 72.2867 248.453 77.7067 240.89 83.12 233.31 L 66.57 182.36 C 61.1633 189.94 55.7467 197.503 50.32 205.05 C 55.84 222.037 61.3533 239.02 66.86 256 Z" stroke="#040000" stroke-miterlimit="10" fill="#ADD8E6" fill-rule="evenodd"/><path d=" M 68.46 181.74 L 85 232.69 C 85.1944 233.294 85.0905 233.955 84.72 234.47 C 79.32 242.05 73.9 249.617 68.46 257.17 C 67.812 258.065 66.5615 258.264 65.667 257.616 C 65.3258 257.369 65.0713 257.02 64.94 256.62 L 64.94 256.62 L 48.4 205.62 C 48.209 205.019 48.3128 204.363 48.68 203.85 C 54.1 196.303 59.5133 188.74 64.92 181.16 C 65.3594 180.548 66.1055 180.235 66.85 180.35 C 67.609 180.466 68.2346 181.006 68.46 181.74 Z M 80.91 233 L 65.91 186.78 C 61.4567 193 57.0033 199.213 52.55 205.42 L 67.55 251.66 C 72.0167 245.433 76.47 239.213 80.91 233 Z" stroke="#040000" stroke-miterlimit="10" fill="#060001"/><path d=" M 214.37 78.35 C 214.505 78.7489 214.505 79.1811 214.37 79.58 L 198.72 127.73 C 198.522 128.336 198.046 128.812 197.44 129.01 C 196.833 129.208 196.168 129.104 195.65 128.73 L 148.09 94.17 C 147.56 93.8085 147.251 93.2014 147.27 92.56 C 147.272 91.9234 147.576 91.3256 148.09 90.95 L 189 61.19 C 189.699 60.6861 190.641 60.6861 191.34 61.19 L 213.61 77.35 C 213.964 77.5931 214.231 77.9437 214.37 78.35 Z M 195.78 123.88 L 210.12 79.73 L 190.2 65.27 L 152.66 92.57 Z" stroke="#040000" stroke-miterlimit="10" fill="#060001"/><path d=" M 241.55 157.61 C 241.685 158.009 241.685 158.441 241.55 158.84 L 233.49 183.64 C 233.222 184.463 232.455 185.019 231.59 185.02 L 178.65 185.02 C 177.545 185.017 176.652 184.12 176.655 183.015 C 176.655 182.81 176.687 182.606 176.75 182.41 L 194.93 126.51 C 195.274 125.46 196.403 124.888 197.453 125.232 C 197.649 125.296 197.833 125.39 198 125.51 L 240.82 156.62 C 241.166 156.86 241.423 157.209 241.55 157.61 Z M 230.14 181 L 237.31 159 L 197.88 130.36 L 181.4 181 Z" stroke="#040000" stroke-miterlimit="10" fill="#060001"/><path d=" M 151.16 92 C 151.225 92.1967 151.255 92.403 151.25 92.61 C 151.259 93.249 150.952 93.8511 150.43 94.22 L 102.85 128.77 C 101.954 129.416 100.704 129.213 100.058 128.317 C 99.9378 128.15 99.844 127.965 99.78 127.77 L 83.42 77.37 C 83.1559 76.547 83.4504 75.6475 84.15 75.14 L 105.24 59.81 C 105.939 59.3061 106.881 59.3061 107.58 59.81 L 150.43 91 C 150.773 91.2477 151.029 91.5978 151.16 92 Z M 102.73 123.93 L 145.86 92.61 L 106.41 63.89 L 87.66 77.51 Z" stroke="#040000" stroke-miterlimit="10" fill="#060001"/><path d=" M 180.55 182.4 C 180.679 182.8 180.679 183.23 180.55 183.63 L 164.21 233.9 C 163.943 234.719 163.181 235.275 162.32 235.28 L 136.18 235.28 C 135.318 235.281 134.552 234.729 134.28 233.91 L 118 183.65 C 117.805 183.041 117.913 182.376 118.29 181.86 C 118.659 181.338 119.261 181.031 119.9 181.04 L 178.7 181.04 C 179.337 181.042 179.934 181.346 180.31 181.86 C 180.421 182.025 180.502 182.207 180.55 182.4 Z M 160.87 231.29 L 175.87 185.02 L 122.6 185.02 L 137.6 231.29 Z" stroke="#040000" stroke-miterlimit="10" fill="#060001"/><path d=" M 233.49 182.41 C 233.621 182.813 233.621 183.247 233.49 183.65 L 217.15 233.91 C 216.878 234.729 216.112 235.281 215.25 235.28 L 162.32 235.28 C 161.683 235.278 161.086 234.974 160.71 234.46 C 160.316 233.951 160.207 233.277 160.42 232.67 L 176.76 182.41 C 177.027 181.591 177.789 181.035 178.65 181.03 L 231.59 181.03 C 232.227 181.032 232.824 181.336 233.2 181.85 C 233.327 182.02 233.425 182.209 233.49 182.41 Z M 213.8 231.29 L 228.8 185.03 L 180.1 185.03 L 165.1 231.3 Z" stroke="#040000" stroke-miterlimit="10" fill="#060001"/><path d=" M 87.22 76.14 L 103.58 126.49 C 103.844 127.313 103.55 128.212 102.85 128.72 L 60.11 159.79 C 59.2139 160.436 57.9639 160.233 57.3181 159.337 C 57.1978 159.17 57.104 158.985 57.04 158.79 L 40.67 108.42 C 40.4059 107.597 40.7004 106.698 41.4 106.19 L 84.15 75.19 C 84.6653 74.8195 85.3259 74.7156 85.93 74.91 C 86.529 75.0951 87.0066 75.5505 87.22 76.14 Z M 99.33 126.35 L 84.27 80 L 44.92 108.57 L 60 155 Z" stroke="#040000" stroke-miterlimit="10" fill="#060001"/><path d=" M 121.75 182.41 L 138.08 232.67 C 138.278 233.282 138.17 233.952 137.79 234.47 C 137.412 234.98 136.815 235.281 136.18 235.28 L 83.34 235.28 C 82.4748 235.279 81.7082 234.723 81.44 233.9 L 65.11 183.65 C 64.9117 183.038 65.0196 182.368 65.4 181.85 C 65.7671 181.327 66.3616 181.012 67 181 L 119.84 181 C 120.717 181 121.491 181.572 121.75 182.41 Z M 133.43 231.3 L 118.4 185 L 69.76 185 L 84.76 231.27 Z" stroke="#040000" stroke-miterlimit="10" fill="#060001"/><path d=" M 103.58 126.49 L 121.75 182.41 C 121.945 183.019 121.837 183.684 121.46 184.2 C 121.091 184.722 120.489 185.029 119.85 185.02 L 67 185.02 C 66.1375 185.021 65.3717 184.469 65.1 183.65 L 57 158.79 C 56.7359 157.967 57.0304 157.068 57.73 156.56 L 100.47 125.5 C 100.984 125.126 101.644 125.018 102.25 125.21 C 102.875 125.394 103.372 125.872 103.58 126.49 Z M 117.1 181 L 100.63 130.3 L 61.28 158.9 L 68.46 181 Z" stroke="#040000" stroke-miterlimit="10" fill="#060001"/></g></g></svg>