<svg version="1.1" viewBox="0 0 254.17 229.28" xmlns="http://www.w3.org/2000/svg" xmlns:xlink="http://www.w3.org/1999/xlink" overflow="hidden"><defs></defs><g id="b9eef70e-57f5-4308-a357-bd7453b3128d"><g id="b1a50347-bb55-4397-a236-861fe82a88e0"><path d=" M 105.86 153.86 L 87.7 97.92 L 135.28 63.35 L 182.83 97.92 L 164.67 153.86 L 105.86 153.86 Z" fill="#808080"/><path d=" M 105.86 153.86 L 164.67 153.86 L 182.83 97.92 L 135.28 63.35 L 87.7 97.92 L 105.86 153.86 Z" stroke="#040000" stroke-miterlimit="10" fill="none"/><path d=" M 135.27 61.36 C 135.694 61.3585 136.107 61.4916 136.45 61.74 L 184 96.3 C 184.696 96.8102 184.986 97.7092 184.72 98.53 L 166.56 154.46 C 166.292 155.283 165.525 155.839 164.66 155.84 L 105.86 155.84 C 104.999 155.835 104.237 155.279 103.97 154.46 L 85.82 98.53 C 85.5538 97.7092 85.8441 96.8102 86.54 96.3 L 134.1 61.74 C 134.438 61.4891 134.849 61.3557 135.27 61.36 Z M 180.48 98.68 L 135.27 65.82 L 90.06 98.68 L 107.32 151.85 L 163.21 151.85 Z" stroke="#040000" stroke-miterlimit="10" fill="#211613"/><path d=" M 2.56 72.09 L 28.97 80.77 L 44.67 129.11 L 18.26 120.4 L 2.56 72.09 Z" stroke="#040000" stroke-miterlimit="10" fill="#FFA100" fill-rule="evenodd"/><path d=" M 17.64 122.3 L 44.05 131 C 45.1012 131.339 46.2283 130.762 46.5676 129.711 C 46.6956 129.314 46.6965 128.887 46.57 128.49 L 30.86 80.16 C 30.6727 79.5506 30.1979 79.0721 29.59 78.88 L 3.18 70.19 C 2.98045 70.122 2.77083 70.0882 2.56 70.09 C 2.56 70.09 2.48 70.09 2.45 70.09 C 1.57676 70.0948 0.807596 70.6656 0.55 71.5 C 0.465123 71.9123 0.465123 72.3377 0.55 72.75 C 0.608647 72.931 0.692829 73.1028 0.8 73.26 L 16.37 121 C 16.5606 121.612 17.0329 122.095 17.64 122.3 Z M 5.64 75.21 L 27.35 82.36 L 41.55 126 L 19.84 118.84 Z" stroke="#040000" stroke-miterlimit="10" fill="#060001"/><path d=" M 18.26 120.4 L 44.67 129.11 L 52.76 154 L 36.5 176.55 L 18.26 120.4 Z" stroke="#040000" stroke-miterlimit="10" fill="#FFA100" fill-rule="evenodd"/><path d=" M 18.26 118.41 C 18.4708 118.408 18.6804 118.442 18.88 118.51 L 45.3 127.21 C 45.9026 127.411 46.3739 127.886 46.57 128.49 L 54.65 153.38 C 54.8506 153.986 54.7503 154.651 54.38 155.17 L 38.12 177.72 C 37.4668 178.611 36.2151 178.803 35.3244 178.15 C 34.9906 177.905 34.741 177.563 34.61 177.17 L 16.54 121.57 C 16.2936 121.23 16.1606 120.82 16.16 120.4 C 16.16 119.295 17.0554 118.4 18.16 118.4 Z M 43.09 130.69 L 21.37 123.53 L 37.19 172.19 L 50.54 153.65 Z" stroke="#040000" stroke-miterlimit="10" fill="#060001"/><path d=" M 52.76 154 L 69.17 204.47 L 52.91 227.02 L 36.5 176.55 L 52.76 154 Z" stroke="#040000" stroke-miterlimit="10" fill="#FF1493" fill-rule="evenodd"/><path d=" M 51.64 228 L 51.76 228.07 C 52.1541 228.371 52.6129 228.577 53.1 228.67 L 53.1 228.67 C 53.2325 228.649 53.3675 228.649 53.5 228.67 C 53.5629 228.68 53.6271 228.68 53.69 228.67 L 53.79 228.67 C 54.0627 228.539 54.302 228.347 54.49 228.11 L 70.74 205.56 C 71.1103 205.041 71.2106 204.376 71.01 203.77 L 54.65 153.38 C 54.4262 152.659 53.815 152.125 53.07 152 L 52.76 152 C 52.1181 152.001 51.5155 152.309 51.14 152.83 L 34.88 175.38 C 34.5097 175.899 34.4094 176.564 34.61 177.17 L 50.78 226.9 C 51.0301 227.294 51.3181 227.662 51.64 228 Z M 38.71 176.89 L 52.08 158.36 L 67 204.12 L 53.59 222.66 Z" stroke="#040000" stroke-miterlimit="10" fill="#060001"/><path d=" M 135.27 63.35 L 94.32 33.59 L 72.06 49.78 L 87.71 97.91 L 135.27 63.35 Z" stroke="#040000" stroke-miterlimit="10" fill="#808080" fill-rule="evenodd"/><path d=" M 72.06 49.78 L 29.2 80.91 L 44.85 129.04 L 87.71 97.91 L 72.06 49.78 Z" stroke="#040000" stroke-miterlimit="10" fill="#808080" fill-rule="evenodd"/><path d=" M 72.06 47.79 C 72.2708 47.7889 72.4803 47.8227 72.68 47.89 C 73.3017 48.0771 73.7938 48.5544 74 49.17 L 89.61 97.3 C 89.8741 98.123 89.5796 99.0225 88.88 99.53 L 46 130.66 C 45.4893 131.042 44.8232 131.146 44.22 130.94 C 43.6366 130.726 43.1857 130.253 43 129.66 L 27.31 81.53 C 27.0374 80.7156 27.3151 79.8181 28 79.3 L 70.89 48.17 C 71.2304 47.9236 71.6398 47.7906 72.06 47.79 Z M 85.36 97.15 L 71 53 L 31.55 81.68 L 45.9 125.82 Z" stroke="#040000" stroke-miterlimit="10" fill="#060001"/><path d=" M 94.32 33.59 L 135.27 63.35 L 178.09 32.24 L 137.13 2.5 L 94.32 33.59 Z" stroke="#040000" stroke-miterlimit="10" fill="#808080" fill-rule="evenodd"/><path d=" M 137.13 0.5 C 137.551 0.494171 137.963 0.62777 138.3 0.88 L 179.3 30.62 C 179.821 30.9955 180.129 31.5981 180.13 32.24 C 180.126 32.8784 179.818 33.4766 179.3 33.85 L 136.44 65 C 135.741 65.5039 134.799 65.5039 134.1 65 L 93.15 35.21 C 92.2581 34.5584 92.0632 33.3072 92.7147 32.4153 C 92.8365 32.2486 92.9833 32.1018 93.15 31.98 L 136 0.88 C 136.326 0.635381 136.722 0.502153 137.13 0.5 Z M 174.69 32.24 L 137.13 5 L 97.72 33.59 L 135.27 60.89 Z" stroke="#040000" stroke-miterlimit="10" fill="#060001"/><path d=" M 182.82 97.91 L 199.19 47.57 L 178.09 32.24 L 135.27 63.35 L 182.82 97.91 Z" stroke="#040000" stroke-miterlimit="10" fill="#808080" fill-rule="evenodd"/><path d=" M 87.71 97.91 L 44.85 129.04 L 52.91 153.84 L 105.86 153.84 L 87.71 97.91 Z" stroke="#040000" stroke-miterlimit="10" fill="#808080" fill-rule="evenodd"/><path d=" M 164.66 153.84 L 217.51 153.84 L 225.58 128.98 L 182.82 97.91 L 164.66 153.84 Z" stroke="#040000" stroke-miterlimit="10" fill="#808080" fill-rule="evenodd"/><path d=" M 225.58 128.98 L 241.94 78.64 L 199.19 47.57 L 182.82 97.91 L 225.58 128.98 Z" stroke="#040000" stroke-miterlimit="10" fill="#808080" fill-rule="evenodd"/><path d=" M 52.91 153.84 L 69.24 204.09 L 122.2 204.09 L 105.86 153.84 L 52.91 153.84 Z" stroke="#040000" stroke-miterlimit="10" fill="#808080" fill-rule="evenodd"/><path d=" M 148.33 204.09 L 201.17 204.09 L 217.51 153.84 L 164.66 153.84 L 148.33 204.09 Z" stroke="#040000" stroke-miterlimit="10" fill="#808080" fill-rule="evenodd"/><path d=" M 105.86 153.84 L 122.2 204.09 L 148.33 204.09 L 164.66 153.84 L 105.86 153.84 Z" stroke="#040000" stroke-miterlimit="10" fill="#808080" fill-rule="evenodd"/><path d=" M 217.46 226.43 C 222.76 210.05 228.05 193.717 233.33 177.43 C 227.97 169.88 222.59 162.43 217.22 154.85 C 211.887 171.163 206.573 187.523 201.28 203.93 C 206.69 211.41 212.09 218.94 217.46 226.43 Z" stroke="#040000" stroke-miterlimit="10" fill="#ADD8E6" fill-rule="evenodd"/><path d=" M 217.53 228.4 L 217.77 228.29 C 217.827 228.286 217.883 228.286 217.94 228.29 C 218.391 227.956 218.809 227.581 219.19 227.17 L 219.24 227.08 C 219.34 226.92 219.44 226.76 219.53 226.59 L 221.53 220.5 C 226.11 206.333 230.69 192.197 235.27 178.09 C 235.464 177.49 235.364 176.835 235 176.32 L 218.89 153.73 C 218.515 153.203 217.907 152.89 217.26 152.89 C 217.16 152.88 217.06 152.88 216.96 152.89 C 216.219 153.006 215.605 153.527 215.37 154.24 L 199.43 203.33 C 199.224 203.933 199.328 204.599 199.71 205.11 C 204.18 211.3 208.64 217.53 213.1 223.73 L 215.88 227.61 C 216.27 228.124 216.885 228.418 217.53 228.4 Z M 216.3 221.4 C 212.04 215.46 207.773 209.52 203.5 203.58 L 217.9 159.23 L 231.13 177.78 C 226.637 191.56 222.16 205.377 217.7 219.23 L 216.78 222.06 Z" stroke="#040000" stroke-miterlimit="10" fill="#060001"/><path d=" M 251.67 120.75 C 242.943 123.683 234.193 126.64 225.42 129.62 C 222.68 138.007 219.947 146.413 217.22 154.84 C 222.59 162.37 227.97 169.84 233.33 177.42 C 236.377 167.933 239.437 158.473 242.51 149.04 C 245.583 139.607 248.637 130.177 251.67 120.75 Z" stroke="#040000" stroke-miterlimit="10" fill="#ADD8E6" fill-rule="evenodd"/><path d=" M 251.67 118.75 C 252.198 118.75 252.705 118.958 253.08 119.33 C 253.6 119.855 253.789 120.624 253.57 121.33 C 250.51 130.75 247.457 140.18 244.41 149.62 L 244.26 150.1 C 241.253 159.36 238.253 168.66 235.26 178 C 235.03 178.723 234.41 179.254 233.66 179.37 C 232.913 179.468 232.17 179.155 231.72 178.55 L 215.59 156 C 215.226 155.485 215.126 154.83 215.32 154.23 L 223.52 129.01 C 223.715 128.414 224.177 127.944 224.77 127.74 C 233.55 124.747 242.307 121.787 251.04 118.86 C 251.242 118.789 251.455 118.751 251.67 118.75 Z M 232.67 173.03 C 235.263 164.95 237.867 156.907 240.48 148.9 C 243.26 140.3 245.91 132.08 248.57 123.9 C 241.397 126.3 234.217 128.727 227.03 131.18 C 224.49 138.94 221.963 146.71 219.45 154.49 Z" stroke="#040000" stroke-miterlimit="10" fill="#060001"/><path d=" M 53.2 226.74 L 104.5 226.74 C 110.067 219.26 115.61 211.78 121.13 204.3 L 69.82 204.3 C 64.2733 211.767 58.7333 219.247 53.2 226.74 Z" stroke="#040000" stroke-miterlimit="10" fill="#EEE8AA" fill-rule="evenodd"/><path d=" M 51.76 228.08 C 52.1541 228.381 52.6129 228.587 53.1 228.68 L 53.1 228.68 C 53.2161 228.664 53.3339 228.664 53.45 228.68 C 53.5299 228.685 53.6101 228.685 53.69 228.68 L 104.5 228.68 C 105.13 228.68 105.722 228.384 106.1 227.88 L 122.74 205.43 C 123.19 204.823 123.259 204.015 122.92 203.34 C 122.579 202.664 121.887 202.239 121.13 202.24 L 69.82 202.24 C 69.1887 202.242 68.5956 202.543 68.22 203.05 C 64.6867 207.79 61.1633 212.54 57.65 217.3 L 51.59 225.48 C 51.1401 226.087 51.0705 226.895 51.41 227.57 C 51.4858 227.715 51.5799 227.849 51.69 227.97 Z M 60.86 219.74 C 64.1933 215.26 67.5267 210.783 70.86 206.31 L 117.2 206.31 L 103.52 224.76 L 57.19 224.76 Z" stroke="#040000" stroke-miterlimit="10" fill="#060001"/><path d=" M 164.12 226.77 C 158.613 219.277 153.093 211.79 147.56 204.31 L 121.13 204.31 C 115.597 211.777 110.053 219.257 104.5 226.75 L 134.34 226.75 Z" stroke="#040000" stroke-miterlimit="10" fill="#FF1493" fill-rule="evenodd"/><path d=" M 121.13 202.31 L 147.56 202.31 C 148.197 202.312 148.794 202.616 149.17 203.13 C 154.697 210.61 160.213 218.093 165.72 225.58 C 166.377 226.468 166.19 227.72 165.303 228.377 C 164.96 228.631 164.546 228.768 164.12 228.77 L 104.5 228.77 C 103.395 228.766 102.503 227.867 102.507 226.763 C 102.509 226.337 102.647 225.922 102.9 225.58 L 119.53 203.15 C 119.899 202.631 120.493 202.319 121.13 202.31 Z M 146.56 206.31 L 122.14 206.31 L 108.46 224.76 L 160.17 224.76 C 155.643 218.607 151.107 212.457 146.56 206.31 Z" stroke="#040000" stroke-miterlimit="10" fill="#040000"/><path d=" M 217.69 226.79 C 212.183 219.283 206.663 211.79 201.13 204.31 L 147.56 204.31 C 153.1 211.803 158.62 219.29 164.12 226.77 C 181.98 226.77 199.837 226.777 217.69 226.79 Z" stroke="#040000" stroke-miterlimit="10" fill="#EEE8AA" fill-rule="evenodd"/><path d=" M 162.51 228 C 162.888 228.51 163.485 228.811 164.12 228.81 L 216.56 228.81 C 216.977 228.682 217.382 228.518 217.77 228.32 C 217.827 228.316 217.883 228.316 217.94 228.32 C 218.386 227.984 218.804 227.613 219.19 227.21 C 219.19 227.21 219.19 227.14 219.24 227.11 C 219.36 226.92 219.47 226.74 219.58 226.54 C 219.58 226.54 219.58 226.54 219.58 226.47 C 219.527 226.189 219.414 225.923 219.25 225.69 C 213.737 218.177 208.213 210.683 202.68 203.21 C 202.307 202.699 201.713 202.395 201.08 202.39 L 147.56 202.39 C 146.807 202.392 146.119 202.817 145.78 203.49 C 145.438 204.163 145.503 204.971 145.95 205.58 C 151.49 213.007 157.01 220.48 162.51 228 Z M 200.12 206.35 C 204.68 212.51 209.22 218.67 213.74 224.83 L 165.13 224.83 C 160.597 218.683 156.06 212.53 151.52 206.37 Z" stroke="#040000" stroke-miterlimit="10" fill="#060001"/><path d=" M 94.32 31.6 C 94.7402 31.6006 95.1496 31.7336 95.49 31.98 L 136.49 61.74 C 137.008 62.1134 137.316 62.7116 137.32 63.35 C 137.319 63.9919 137.011 64.5945 136.49 64.97 L 88.88 99.53 C 88.3676 99.9167 87.696 100.022 87.09 99.81 C 86.4874 99.6092 86.0161 99.1341 85.82 98.53 L 70.16 50.4 C 69.8938 49.5792 70.1841 48.6802 70.88 48.17 L 93.14 32 C 93.4807 31.7444 93.8941 31.6043 94.32 31.6 Z M 131.87 63.35 L 94.32 36.07 L 74.41 50.55 L 88.76 94.69 Z" stroke="#040000" stroke-miterlimit="10" fill="#060001"/><path d=" M 178.09 30.24 C 178.51 30.2406 178.92 30.3736 179.26 30.62 L 200.36 46 C 201.064 46.5089 201.359 47.414 201.09 48.24 L 184.72 98.53 C 184.522 99.1364 184.046 99.6119 183.44 99.81 C 182.834 100.02 182.163 99.915 181.65 99.53 L 134.1 65 C 133.579 64.6245 133.271 64.0219 133.27 63.38 C 133.274 62.7416 133.582 62.1434 134.1 61.77 L 176.92 30.65 C 177.257 30.3929 177.666 30.2493 178.09 30.24 Z M 196.84 48.33 L 178.09 34.7 L 138.66 63.35 L 181.77 94.69 Z" stroke="#040000" stroke-miterlimit="10" fill="#060001"/><path d=" M 87.71 95.92 C 87.9208 95.9189 88.1303 95.9527 88.33 96.02 C 88.9364 96.2181 89.4119 96.6936 89.61 97.3 L 107.76 153.23 C 108.097 154.282 107.517 155.408 106.465 155.745 C 106.27 155.807 106.065 155.84 105.86 155.84 L 52.92 155.84 C 52.0549 155.839 51.2882 155.283 51.02 154.46 L 43 129.66 C 42.7338 128.839 43.0241 127.94 43.72 127.43 L 86.54 96.3 C 86.8804 96.0536 87.2898 95.9206 87.71 95.92 Z M 103.12 151.85 L 86.66 101.14 L 47.2 129.81 L 54.37 151.81 Z" stroke="#040000" stroke-miterlimit="10" fill="#060001"/><path d=" M 182.82 95.92 C 183.24 95.9206 183.65 96.0536 183.99 96.3 L 226.75 127.37 C 227.45 127.878 227.744 128.777 227.48 129.6 L 219.4 154.46 C 219.133 155.279 218.371 155.835 217.51 155.84 L 164.66 155.84 C 164.022 155.836 163.423 155.528 163.05 155.01 C 162.668 154.499 162.564 153.833 162.77 153.23 L 180.93 97.3 C 181.123 96.686 181.599 96.2022 182.21 96 C 182.407 95.9387 182.614 95.9117 182.82 95.92 Z M 223.23 129.75 L 183.88 101.14 L 167.41 151.85 L 216.06 151.85 Z" stroke="#040000" stroke-miterlimit="10" fill="#060001"/><path d=" M 199.19 45.57 C 199.613 45.575 200.024 45.7075 200.37 45.95 L 243.12 77 C 243.816 77.5102 244.106 78.4092 243.84 79.23 L 227.48 129.6 C 227.282 130.206 226.806 130.682 226.2 130.88 C 225.594 131.09 224.923 130.985 224.41 130.6 L 181.65 99.53 C 180.954 99.0198 180.664 98.1208 180.93 97.3 L 197.3 47 C 197.498 46.3936 197.974 45.9181 198.58 45.72 C 198.773 45.6348 198.979 45.5841 199.19 45.57 Z M 239.59 79.4 L 200.24 50.8 L 185.17 97.15 L 224.53 125.75 Z" stroke="#040000" stroke-miterlimit="10" fill="#060001"/><path d=" M 52.92 151.85 L 105.86 151.85 C 106.725 151.851 107.492 152.407 107.76 153.23 L 124.1 203.48 C 124.294 204.084 124.19 204.745 123.82 205.26 C 123.444 205.781 122.842 206.089 122.2 206.09 L 69.2 206.09 C 68.3348 206.089 67.5682 205.533 67.3 204.71 L 51 154.46 C 50.6631 153.408 51.2428 152.282 52.2947 151.945 C 52.4904 151.883 52.6945 151.85 52.9 151.85 Z M 104.41 155.85 L 55.66 155.85 L 70.66 202.11 L 119.43 202.11 Z" stroke="#040000" stroke-miterlimit="10" fill="#060001"/><path d=" M 164.66 151.85 L 217.51 151.85 C 218.147 151.852 218.744 152.156 219.12 152.67 C 219.494 153.188 219.598 153.853 219.4 154.46 L 203.07 204.71 C 202.802 205.533 202.035 206.089 201.17 206.09 L 148.33 206.09 C 147.692 206.086 147.093 205.778 146.72 205.26 C 146.35 204.745 146.246 204.084 146.44 203.48 L 162.77 153.23 C 163.037 152.411 163.799 151.855 164.66 151.85 Z M 214.76 155.85 L 166.11 155.85 L 151.11 202.11 L 199.75 202.11 Z" stroke="#040000" stroke-miterlimit="10" fill="#060001"/><path d=" M 105.86 151.85 L 164.66 151.85 C 165.765 151.853 166.658 152.75 166.655 153.855 C 166.655 154.06 166.623 154.264 166.56 154.46 L 150.23 204.71 C 149.962 205.533 149.195 206.089 148.33 206.09 L 122.2 206.09 C 121.339 206.085 120.577 205.529 120.31 204.71 L 104 154.46 C 103.802 153.853 103.906 153.188 104.28 152.67 C 104.649 152.164 105.234 151.861 105.86 151.85 Z M 161.92 155.85 L 108.61 155.85 L 123.61 202.11 L 146.84 202.11 Z" stroke="#040000" stroke-miterlimit="10" fill="#060001"/></g></g></svg>