<svg version="1.1" viewBox="0 0 244.74 297.16" xmlns="http://www.w3.org/2000/svg" xmlns:xlink="http://www.w3.org/1999/xlink" overflow="hidden"><defs></defs><g id="a783fee7-c63a-43d6-a7e7-b38495cad016"><g id="ab0f43c4-234a-4c98-ab3e-ec0b4e8546dd"><path d=" M 156.79 126.75 L 138.6 182.63 L 79.82 182.65 L 61.67 126.74 L 109.22 92.19 L 156.79 126.75 Z" fill="#808080"/><path d=" M 156.79 126.75 L 109.22 92.19 L 61.67 126.74 L 79.82 182.65 L 138.6 182.63 L 156.79 126.75 Z" stroke="#040000" stroke-miterlimit="10" fill="none"/><path d=" M 78.64 184.27 C 78.294 184.025 78.0376 183.674 77.91 183.27 L 59.75 127.36 C 59.4859 126.537 59.7804 125.638 60.48 125.13 L 108.05 90.56 C 108.751 90.0513 109.699 90.0513 110.4 90.56 L 158 125.12 C 158.7 125.628 158.994 126.527 158.73 127.35 L 140.5 183.27 C 140.228 184.089 139.462 184.641 138.6 184.64 L 79.81 184.64 C 79.3901 184.647 78.9794 184.517 78.64 184.27 Z M 64 127.51 L 81.26 180.66 L 137.15 180.66 L 154.44 127.51 L 109.22 94.64 Z" stroke="#040000" stroke-miterlimit="10" fill="#211613"/><path d=" M 208.01 205.28 L 191.76 182.71 L 199.84 157.82 L 226.25 149.13 L 208.01 205.28 Z" stroke="#040000" stroke-miterlimit="10" fill="#ADD8E6" fill-rule="evenodd"/><path d=" M 206.84 206.89 C 206.662 206.771 206.509 206.618 206.39 206.44 L 190.14 183.88 C 189.77 183.365 189.666 182.704 189.86 182.1 L 198 157.21 C 198.193 156.602 198.665 156.123 199.27 155.92 L 225.68 147.23 C 226.386 147.011 227.155 147.2 227.68 147.72 C 228.197 148.247 228.381 149.016 228.16 149.72 L 210.1 205.31 C 210.093 206.415 209.193 207.305 208.088 207.298 C 207.672 207.295 207.267 207.163 206.93 206.92 Z M 194 182.36 L 207.36 200.92 L 223.17 152.26 L 201.46 159.4 Z" stroke="#040000" stroke-miterlimit="10" fill="#060001"/><path d=" M 79.81 182.66 L 95.45 230.8 L 122.98 230.79 L 138.6 182.65 L 79.81 182.66 Z" stroke="#040000" stroke-miterlimit="10" fill="#808080" fill-rule="evenodd"/><path d=" M 122.98 230.79 L 175.95 230.79 L 191.57 182.66 L 138.6 182.65 L 122.98 230.79 Z" stroke="#040000" stroke-miterlimit="10" fill="#808080" fill-rule="evenodd"/><path d=" M 121.8 232.4 C 121.631 232.277 121.483 232.129 121.36 231.96 C 120.986 231.442 120.882 230.777 121.08 230.17 L 136.71 182 C 136.982 181.181 137.748 180.629 138.61 180.63 L 191.61 180.63 C 192.248 180.634 192.847 180.942 193.22 181.46 C 193.59 181.975 193.694 182.636 193.5 183.24 L 177.87 231.38 C 177.602 232.203 176.835 232.759 175.97 232.76 L 123 232.76 C 122.572 232.772 122.151 232.645 121.8 232.4 Z M 140.05 184.65 L 125.72 228.79 L 174.5 228.79 L 188.82 184.64 Z" stroke="#040000" stroke-miterlimit="10" fill="#060001"/><path d=" M 95.45 230.8 L 79.81 182.66 L 26.88 182.66 L 42.53 230.79 L 95.45 230.8 Z" stroke="#040000" stroke-miterlimit="10" fill="#808080" fill-rule="evenodd"/><path d=" M 41.36 232.41 C 41.0172 232.164 40.7643 231.813 40.64 231.41 L 25 183.28 C 24.6631 182.228 25.2427 181.102 26.2946 180.765 C 26.4871 180.704 26.6879 180.671 26.89 180.67 L 79.81 180.67 C 80.6751 180.671 81.4418 181.227 81.71 182.05 L 97.35 230.19 C 97.6924 231.24 97.1187 232.369 96.0685 232.711 C 95.8688 232.777 95.6601 232.81 95.45 232.81 L 42.53 232.81 C 42.1075 232.804 41.698 232.664 41.36 232.41 Z M 29.63 184.66 L 44 228.8 L 92.7 228.8 L 78.36 184.65 Z" stroke="#040000" stroke-miterlimit="10" fill="#060001"/><path d=" M 61.66 126.74 L 18.82 157.85 L 26.88 182.66 L 79.81 182.66 L 61.66 126.74 Z" stroke="#040000" stroke-miterlimit="10" fill="#808080" fill-rule="evenodd"/><path d=" M 138.6 182.65 L 191.57 182.66 L 199.63 157.86 L 156.79 126.73 L 138.6 182.65 Z" stroke="#040000" stroke-miterlimit="10" fill="#808080" fill-rule="evenodd"/><path d=" M 109.22 92.17 L 66.47 61.11 L 45.33 76.48 L 61.66 126.74 L 109.22 92.17 Z" stroke="#040000" stroke-miterlimit="10" fill="#808080" fill-rule="evenodd"/><path d=" M 45.33 76.48 L 2.5 107.59 L 18.82 157.85 L 61.66 126.74 L 45.33 76.48 Z" stroke="#040000" stroke-miterlimit="10" fill="#808080" fill-rule="evenodd"/><path d=" M 199.63 157.86 L 215.96 107.61 L 173.11 76.48 L 156.79 126.73 L 199.63 157.86 Z" stroke="#040000" stroke-miterlimit="10" fill="#808080" fill-rule="evenodd"/><path d=" M 151.97 61.12 L 109.22 30.06 L 66.47 61.11 L 109.22 92.17 L 151.97 61.12 Z" stroke="#040000" stroke-miterlimit="10" fill="#808080" fill-rule="evenodd"/><path d=" M 156.79 126.73 L 173.11 76.48 L 151.97 61.12 L 109.22 92.17 L 156.79 126.73 Z" stroke="#040000" stroke-miterlimit="10" fill="#808080" fill-rule="evenodd"/><path d=" M 109.11 294.67 L 157.46 279.52 C 154.41 275.3 151.32 271.04 148.25 266.81 C 145.18 262.58 142 258.27 138.93 254 L 108.69 253.89 L 78.57 253.8 C 75.57 258.03 72.62 262.27 69.65 266.48 C 66.68 270.69 63.76 274.86 60.85 279.02 C 76.95 284.24 93.0367 289.457 109.11 294.67 Z" stroke="#040000" stroke-miterlimit="10" fill="#00D800" fill-rule="evenodd"/><path d=" M 59.68 280.61 C 58.8077 279.969 58.6038 278.75 59.22 277.86 L 76.94 252.62 C 77.3174 252.09 77.9292 251.777 78.58 251.78 L 108.69 251.88 L 138.93 251.98 C 139.568 251.984 140.167 252.292 140.54 252.81 L 159.08 278.35 C 159.73 279.243 159.534 280.494 158.641 281.144 C 158.47 281.268 158.281 281.365 158.08 281.43 L 109.73 296.58 C 109.333 296.707 108.907 296.707 108.51 296.58 L 60.24 280.89 C 60.0371 280.833 59.847 280.738 59.68 280.61 Z M 79.6 255.78 L 64 277.93 L 109.08 292.57 L 154.18 278.44 L 137.9 256 L 108.68 255.9 Z" stroke="#040000" stroke-miterlimit="10" fill="#040000"/><path d=" M 27.11 253.61 C 44.2233 253.677 61.3767 253.733 78.57 253.78 C 83.97 246.1 89.4167 238.367 94.91 230.58 L 42.82 230.5 Z" stroke="#040000" stroke-miterlimit="10" fill="#00D800" fill-rule="evenodd"/><path d=" M 25.94 255.23 C 25.692 255.051 25.487 254.818 25.34 254.55 C 24.9953 253.894 25.0415 253.101 25.46 252.49 L 41.17 229.38 C 41.5428 228.836 42.1602 228.51 42.82 228.51 L 94.91 228.59 C 96.0146 228.593 96.9072 229.492 96.9037 230.596 C 96.9024 231.006 96.7755 231.405 96.54 231.74 L 80.2 254.92 C 79.827 255.458 79.2144 255.779 78.56 255.78 L 27.1 255.61 C 26.6832 255.607 26.2776 255.474 25.94 255.23 Z M 43.88 232.5 L 30.88 251.63 L 77.54 251.78 L 91.08 232.57 Z" stroke="#040000" stroke-miterlimit="10" fill="#060001"/><path d=" M 138.93 254 C 133.29 246.24 127.623 238.45 121.93 230.63 C 112.93 230.63 103.93 230.63 94.93 230.63 C 89.43 238.41 83.9833 246.143 78.59 253.83 L 108.71 253.92 Z" stroke="#040000" stroke-miterlimit="10" fill="#00D800" fill-rule="evenodd"/><path d=" M 77.4 255.39 C 77.1464 255.209 76.9405 254.968 76.8 254.69 C 76.4612 254.03 76.5151 253.238 76.94 252.63 L 93.28 229.43 C 93.6554 228.903 94.2627 228.59 94.91 228.59 L 121.91 228.59 C 122.542 228.6 123.135 228.898 123.52 229.4 C 128.78 236.567 133.99 243.71 139.15 250.83 L 140.56 252.78 C 141.206 253.676 141.004 254.926 140.108 255.572 C 139.768 255.817 139.359 255.95 138.94 255.95 L 108.7 255.84 L 78.58 255.75 C 78.1586 255.757 77.7456 255.631 77.4 255.39 Z M 96 232.58 L 82.41 251.8 L 108.69 251.88 L 135 252 C 130.333 245.56 125.627 239.107 120.88 232.64 Z" stroke="#040000" stroke-miterlimit="10" fill="#060001"/><path d=" M 193.63 254.17 C 188.14 246.36 182.63 238.54 177.01 230.68 L 121.89 230.61 C 127.63 238.43 133.297 246.22 138.89 253.98 C 157.097 254.053 175.343 254.117 193.63 254.17 Z" stroke="#040000" stroke-miterlimit="10" fill="#ADD8E6" fill-rule="evenodd"/><path d=" M 200.41 18.41 C 184.41 13.0767 168.38 7.77333 152.32 2.5 C 152.32 7.66 152.39 12.84 152.42 17.99 C 152.45 23.14 152.49 28.34 152.53 33.49 C 160.53 39.3167 168.557 45.1567 176.61 51.01 L 200.75 68.55 C 205.67 66.99 210.6 65.42 215.52 63.88 C 220.44 62.34 225.38 60.77 230.33 59.21 C 220.343 45.61 210.37 32.01 200.41 18.41 Z" stroke="#040000" stroke-miterlimit="10" fill="#EEE8AA" fill-rule="evenodd"/><path d=" M 199.58 70.16 L 151.36 35.16 C 150.845 34.7886 150.537 34.1948 150.53 33.56 L 150.32 2.56 C 150.276 1.45631 151.135 0.525896 152.239 0.481865 C 152.498 0.471531 152.756 0.511654 153 0.6 L 186.63 11.74 L 201 16.51 C 201.401 16.6388 201.751 16.8907 202 17.23 C 212.08 31 222 44.49 231.94 58 C 232.595 58.8896 232.404 60.1415 231.515 60.7963 C 231.34 60.9247 231.146 61.0239 230.94 61.09 L 201.36 70.42 C 200.759 70.6201 200.099 70.5237 199.58 70.16 Z M 154.52 32.47 L 201.11 66.34 L 227.11 58.14 C 217.777 45.4733 208.477 32.8067 199.21 20.14 L 185.37 15.57 C 175.037 12.15 164.703 8.73 154.37 5.31 Z" stroke="#040000" stroke-miterlimit="10" fill="#060001"/><path d=" M 242.25 98.72 L 200.75 68.55 C 191.85 71.33 182.967 74.1233 174.1 76.93 L 215.61 107.09 C 224.49 104.32 233.36 101.51 242.25 98.72 Z" stroke="#040000" stroke-miterlimit="10" fill="#EEE8AA" fill-rule="evenodd"/><path d=" M 244.2 98.47 C 244.061 97.9978 243.81 97.5658 243.47 97.21 L 243.42 97.21 C 243.325 97.1465 243.241 97.0689 243.17 96.98 L 242.98 96.82 L 242.98 96.82 L 201.92 66.93 C 201.411 66.5626 200.76 66.4552 200.16 66.64 L 173.5 75 C 172.448 75.3366 171.868 76.4624 172.205 77.5144 C 172.334 77.918 172.588 78.2701 172.93 78.52 L 214.44 108.68 C 214.951 109.051 215.607 109.158 216.21 108.97 L 233.14 103.66 L 242.85 100.6 C 243.573 100.37 244.104 99.7501 244.22 99 C 244.24 98.8339 244.24 98.6661 244.22 98.5 Z M 231.93 99.87 L 215.93 104.87 L 178.48 77.64 L 200.39 70.75 L 237.87 98 Z" stroke="#040000" stroke-miterlimit="10" fill="#060001"/><path d=" M 152.53 33.49 C 152.583 42.79 152.647 52.09 152.72 61.39 L 174.1 76.93 C 182.973 74.1367 191.857 71.3433 200.75 68.55 L 176.61 51 C 168.583 45.18 160.557 39.3433 152.53 33.49 Z" stroke="#040000" stroke-miterlimit="10" fill="#EEE8AA" fill-rule="evenodd"/><path d=" M 172.93 78.54 L 151.55 63 C 151.039 62.6265 150.735 62.0331 150.73 61.4 C 150.65 52.0667 150.583 42.7667 150.53 33.5 C 150.527 32.7455 150.948 32.0533 151.62 31.71 C 152.288 31.3689 153.092 31.4307 153.7 31.87 L 201.92 66.92 C 202.532 67.3636 202.841 68.1141 202.72 68.86 C 202.595 69.605 202.061 70.2162 201.34 70.44 L 174.71 78.82 C 174.106 79.0144 173.445 78.9105 172.93 78.54 Z M 154.71 60.37 L 174.46 74.72 L 196.37 67.83 L 154.55 37.43 C 154.59 45.07 154.643 52.7167 154.71 60.37 Z" stroke="#040000" stroke-miterlimit="10" fill="#060001"/><path d=" M 94.28 232.42 C 93.9407 232.171 93.6888 231.821 93.56 231.42 L 77.92 183.27 C 77.7222 182.663 77.8263 181.998 78.2 181.48 C 78.5756 180.966 79.1734 180.662 79.81 180.66 L 138.61 180.66 C 139.251 180.643 139.857 180.951 140.22 181.48 C 140.594 181.998 140.698 182.663 140.5 183.27 L 124.87 231.4 C 124.606 232.223 123.844 232.784 122.98 232.79 L 95.46 232.79 C 95.0375 232.794 94.6244 232.665 94.28 232.42 Z M 82.56 184.65 L 96.91 228.8 L 121.53 228.8 L 135.85 184.65 Z" stroke="#040000" stroke-miterlimit="10" fill="#060001"/><path d=" M 25.71 184.27 C 25.3628 184.029 25.1087 183.676 24.99 183.27 L 16.93 158.46 C 16.6638 157.639 16.9541 156.74 17.65 156.23 L 60.48 125.12 C 60.9978 124.746 61.6628 124.642 62.27 124.84 C 62.8894 125.02 63.3752 125.502 63.56 126.12 L 81.71 182 C 82.0469 183.052 81.4672 184.178 80.4153 184.515 C 80.2196 184.577 80.0155 184.61 79.81 184.61 L 26.88 184.61 C 26.463 184.63 26.0511 184.511 25.71 184.27 Z M 21.17 158.61 L 28.33 180.67 L 77.07 180.67 L 60.61 130 Z" stroke="#040000" stroke-miterlimit="10" fill="#060001"/><path d=" M 137.43 184.27 C 137.259 184.146 137.11 183.994 136.99 183.82 C 136.616 183.302 136.512 182.637 136.71 182.03 L 154.89 126.12 C 155.087 125.508 155.568 125.027 156.18 124.83 C 156.786 124.638 157.446 124.746 157.96 125.12 L 200.8 156.24 C 201.496 156.75 201.786 157.649 201.52 158.47 L 193.47 183.27 C 193.202 184.093 192.435 184.649 191.57 184.65 L 138.57 184.65 C 138.16 184.643 137.762 184.511 137.43 184.27 Z M 157.84 130 L 141.35 180.7 L 190.12 180.7 L 197.28 158.7 Z" stroke="#040000" stroke-miterlimit="10" fill="#060001"/><path d=" M 60.48 128.36 C 60.1407 128.111 59.8888 127.761 59.76 127.36 L 43.43 77.1 C 43.1638 76.2792 43.4541 75.3802 44.15 74.87 L 65.3 59.5 C 65.9986 58.9961 66.9414 58.9961 67.64 59.5 L 110.4 90.56 C 110.917 90.9377 111.222 91.5399 111.22 92.18 C 111.213 92.8148 110.905 93.4086 110.39 93.78 L 62.83 128.36 C 62.3122 128.734 61.6472 128.838 61.04 128.64 C 60.8387 128.579 60.6493 128.485 60.48 128.36 Z M 47.67 77.24 L 62.67 123.51 L 105.8 92.17 L 66.47 63.58 Z" stroke="#040000" stroke-miterlimit="10" fill="#060001"/><path d=" M 17.65 159.47 C 17.3113 159.218 17.0567 158.869 16.92 158.47 L 0.6 108.2 C 0.35025 107.386 0.643194 106.503 1.33 106 L 44.15 74.87 C 44.666 74.4929 45.3313 74.3851 45.94 74.58 C 46.5546 74.7646 47.0354 75.2454 47.22 75.86 L 63.55 126.13 C 63.8162 126.951 63.5259 127.85 62.83 128.36 L 20 159.46 C 19.4864 159.834 18.8257 159.942 18.22 159.75 C 18.0152 159.69 17.8223 159.596 17.65 159.47 Z M 4.85 108.35 L 19.85 154.62 L 59.31 126 L 44.31 79.73 Z" stroke="#040000" stroke-miterlimit="10" fill="#060001"/><path d=" M 198.45 159.47 L 155.62 128.35 C 154.92 127.842 154.626 126.943 154.89 126.12 L 171.21 75.86 C 171.554 74.8103 172.683 74.2381 173.733 74.5819 C 173.929 74.6459 174.113 74.7397 174.28 74.86 L 217.13 106 C 217.826 106.51 218.116 107.409 217.85 108.23 L 201.52 158.48 C 201.176 159.53 200.047 160.102 198.997 159.758 C 198.801 159.694 198.617 159.6 198.45 159.48 Z M 159.14 126 L 198.58 154.66 L 213.58 108.4 L 174.16 79.7 Z" stroke="#040000" stroke-miterlimit="10" fill="#060001"/><path d=" M 108.05 93.79 L 65.29 62.72 C 64.776 62.3444 64.4715 61.7466 64.47 61.11 C 64.4739 60.4716 64.7822 59.8734 65.3 59.5 L 108.05 28.5 C 108.749 27.9961 109.691 27.9961 110.39 28.5 L 153.14 59.5 C 154.032 60.1516 154.227 61.4028 153.575 62.2947 C 153.454 62.4614 153.307 62.6082 153.14 62.73 L 110.39 93.78 C 109.694 94.2869 108.751 94.2909 108.05 93.79 Z M 69.86 61.11 L 109.22 89.7 L 148.58 61.12 L 109.22 32.53 Z" stroke="#040000" stroke-miterlimit="10" fill="#060001"/><path d=" M 155.62 128.35 L 108.05 93.79 C 107.158 93.1385 106.963 91.8872 107.615 90.9953 C 107.736 90.8286 107.883 90.6818 108.05 90.56 L 150.8 59.5 C 151.499 58.9961 152.441 58.9961 153.14 59.5 L 174.28 74.86 C 174.98 75.3675 175.274 76.267 175.01 77.09 L 158.69 127.35 C 158.346 128.4 157.217 128.972 156.167 128.628 C 155.971 128.564 155.787 128.47 155.62 128.35 Z M 112.62 92.17 L 155.74 123.5 L 170.74 77.24 L 152 63.58 Z" stroke="#040000" stroke-miterlimit="10" fill="#060001"/><path d=" M 194.82 252.39 C 189.47 244.79 184.11 237.17 178.64 229.52 C 178.262 228.997 177.655 228.687 177.01 228.69 L 121.89 228.62 C 120.785 228.623 119.892 229.52 119.895 230.625 C 119.896 231.047 120.031 231.459 120.28 231.8 C 125.54 238.96 130.747 246.097 135.9 253.21 L 137.31 255.15 C 137.433 255.321 137.581 255.473 137.75 255.6 C 138.09 255.846 138.5 255.979 138.92 255.98 L 191.59 256.16 C 192.3 256.068 192.969 255.777 193.52 255.32 C 194.201 254.648 194.629 253.761 194.73 252.81 C 194.724 252.665 194.755 252.52 194.82 252.39 Z M 140 252 L 139.18 250.87 C 134.767 244.81 130.333 238.727 125.88 232.62 L 176.04 232.68 C 180.707 239.2 185.303 245.697 189.83 252.17 Z" stroke="#040000" stroke-miterlimit="10" fill="#060001"/></g></g></svg>