<svg version="1.1" viewBox="0 0 227.14 258.33" xmlns="http://www.w3.org/2000/svg" xmlns:xlink="http://www.w3.org/1999/xlink" overflow="hidden"><defs></defs><g id="f0f65062-2153-4d8c-ad49-7f3d0a2f3cc8"><g id="e4ae1020-ac11-4cb6-a989-62eb549c892d"><path d=" M 109.14 92.37 L 156.71 126.95 L 138.53 182.88 L 79.75 182.86 L 61.56 126.93 L 109.14 92.37 Z" fill="#808080"/><path d=" M 109.14 92.37 L 61.56 126.93 L 79.75 182.86 L 138.53 182.88 L 156.71 126.95 L 109.14 92.37 Z" stroke="#040000" stroke-miterlimit="10" fill="none"/><path d=" M 139.71 184.48 C 139.367 184.728 138.954 184.862 138.53 184.86 L 79.75 184.86 C 78.8885 184.855 78.127 184.299 77.86 183.48 L 59.67 127.55 C 59.4059 126.727 59.7004 125.828 60.4 125.32 L 108 90.76 C 108.701 90.2513 109.649 90.2513 110.35 90.76 L 157.91 125.34 C 158.606 125.85 158.896 126.749 158.63 127.57 L 140.47 183.48 C 140.331 183.886 140.064 184.237 139.71 184.48 Z M 81.2 180.86 L 137.09 180.86 L 154.35 127.7 L 109.14 94.84 L 63.92 127.69 Z" stroke="#040000" stroke-miterlimit="10" fill="#211613"/><path d=" M 199.67 67.93 L 173.18 76.42 L 152.01 61.03 L 151.91 33.23 L 199.67 67.93 Z" stroke="#040000" stroke-miterlimit="10" fill="#808080" fill-rule="evenodd"/><path d=" M 200.84 69.55 C 200.669 69.6722 200.48 69.7666 200.28 69.83 L 173.79 78.32 C 173.177 78.5064 172.511 78.3874 172 78 L 150.84 62.64 C 150.31 62.2626 149.997 61.6508 150 61 L 149.9 33.2 C 149.901 32.0954 150.797 31.2009 151.902 31.2021 C 152.321 31.2025 152.73 31.3347 153.07 31.58 L 200.37 66 C 200.772 66.1314 201.122 66.387 201.37 66.73 C 202.017 67.6223 201.821 68.8702 200.93 69.52 C 200.898 69.5218 200.867 69.5321 200.84 69.55 Z M 173.53 74.2 L 195.31 67.2 L 153.91 37.13 L 154 60 Z" stroke="#040000" stroke-miterlimit="10" fill="#060001"/><path d=" M 138.54 182.86 L 189.16 182.87 L 197.65 156.69 L 156.7 126.95 L 138.54 182.86 Z" stroke="#040000" stroke-miterlimit="10" fill="#1B1B1B" fill-rule="evenodd"/><path d=" M 197.65 156.69 L 214.03 106.31 L 173.07 76.57 L 156.7 126.95 L 197.65 156.69 Z" stroke="#040000" stroke-miterlimit="10" fill="#808080" fill-rule="evenodd"/><path d=" M 198.82 158.3 C 198.653 158.423 198.467 158.517 198.27 158.58 C 197.663 158.778 196.998 158.674 196.48 158.3 L 155.53 128.56 C 154.83 128.052 154.536 127.153 154.8 126.33 L 171.18 76 C 171.366 75.3883 171.847 74.911 172.46 74.73 C 173.067 74.5322 173.732 74.6363 174.25 75.01 L 215.2 104.7 C 215.896 105.21 216.186 106.109 215.92 106.93 L 199.55 157.3 C 199.419 157.702 199.163 158.052 198.82 158.3 Z M 159.05 126.19 L 196.6 153.46 L 211.68 107.07 L 174.12 79.8 Z" stroke="#040000" stroke-miterlimit="10" fill="#060001"/><path d=" M 189.16 182.87 L 138.54 182.86 L 122.18 233.2 L 172.8 233.19 L 189.16 182.87 Z" stroke="#040000" stroke-miterlimit="10" fill="#1B1B1B" fill-rule="evenodd"/><path d=" M 174 234.81 C 173.66 235.056 173.25 235.189 172.83 235.19 L 122.19 235.19 C 121.55 235.192 120.948 234.887 120.57 234.37 C 120.196 233.852 120.092 233.187 120.29 232.58 L 136.64 182.24 C 136.907 181.421 137.669 180.865 138.53 180.86 L 189.16 180.86 C 190.265 180.863 191.158 181.76 191.155 182.865 C 191.155 183.07 191.123 183.274 191.06 183.47 L 174.69 233.8 C 174.577 234.203 174.335 234.558 174 234.81 Z M 125 231.21 L 171.42 231.21 L 186.48 184.87 L 140 184.87 Z" stroke="#040000" stroke-miterlimit="10" fill="#060001"/><path d=" M 79.75 182.85 L 96.1 233.21 L 122.18 233.2 L 138.54 182.86 L 79.75 182.85 Z" stroke="#040000" stroke-miterlimit="10" fill="#1B1B1B" fill-rule="evenodd"/><path d=" M 156.7 126.95 L 173.07 76.57 L 151.98 61.25 L 109.14 92.37 L 156.7 126.95 Z" stroke="#040000" stroke-miterlimit="10" fill="#1B1B1B" fill-rule="evenodd"/><path d=" M 61.57 126.93 L 18.82 158 L 26.9 182.85 L 79.75 182.85 L 61.57 126.93 Z" stroke="#040000" stroke-miterlimit="10" fill="#808080" fill-rule="evenodd"/><path d=" M 26.9 182.85 L 43.26 233.2 L 96.1 233.21 L 79.75 182.85 L 26.9 182.85 Z" stroke="#040000" stroke-miterlimit="10" fill="#1B1B1B" fill-rule="evenodd"/><path d=" M 151.98 61.25 L 109.23 30.19 L 66.39 61.32 L 109.14 92.37 L 151.98 61.25 Z" stroke="#040000" stroke-miterlimit="10" fill="#1B1B1B" fill-rule="evenodd"/><path d=" M 45.24 76.68 L 2.5 107.74 L 18.82 158 L 61.57 126.93 L 45.24 76.68 Z" stroke="#040000" stroke-miterlimit="10" fill="#808080" fill-rule="evenodd"/><path d=" M 109.14 92.37 L 66.39 61.32 L 45.24 76.68 L 61.57 126.93 L 109.14 92.37 Z" stroke="#040000" stroke-miterlimit="10" fill="#1B1B1B" fill-rule="evenodd"/><path d=" M 189.74 254.91 C 195.073 238.67 200.407 222.373 205.74 206.02 C 200.113 198.507 194.447 190.937 188.74 183.31 C 183.333 199.87 177.943 216.377 172.57 232.83 Z" stroke="#040000" stroke-miterlimit="10" fill="#808080" fill-rule="evenodd"/><path d=" M 190.91 256.53 C 190.662 256.705 190.379 256.825 190.08 256.88 C 189.352 257.007 188.614 256.722 188.16 256.14 L 171 234.05 C 170.599 233.525 170.483 232.837 170.69 232.21 L 186.86 182.69 C 187.212 181.643 188.346 181.08 189.393 181.432 C 189.774 181.56 190.107 181.8 190.35 182.12 L 207.35 204.82 C 207.744 205.344 207.856 206.028 207.65 206.65 L 191.6 255.54 C 191.477 255.933 191.236 256.279 190.91 256.53 Z M 174.84 232.44 L 189 250.72 L 203.56 206.39 L 189.48 187.58 Z" stroke="#040000" stroke-miterlimit="10" fill="#060001"/><path d=" M 224.64 148.68 C 215.51 151.68 206.36 154.62 197.15 157.68 C 194.363 166.24 191.573 174.787 188.78 183.32 C 194.48 190.96 200.147 198.53 205.78 206.03 C 208.927 196.503 212.06 186.967 215.18 177.42 C 218.3 167.873 221.453 158.293 224.64 148.68 Z" stroke="#040000" stroke-miterlimit="10" fill="#808080" fill-rule="evenodd"/><path d=" M 207 207.64 C 206.116 208.278 204.885 208.091 204.23 207.22 L 187.23 184.51 C 186.843 183.987 186.735 183.308 186.94 182.69 L 195.3 157.05 C 195.508 156.453 195.975 155.983 196.57 155.77 C 205.01 152.977 213.413 150.23 221.78 147.53 L 224.07 146.79 C 224.774 146.569 225.543 146.753 226.07 147.27 C 226.59 147.795 226.779 148.564 226.56 149.27 L 217.09 178 C 213.97 187.54 210.837 197.08 207.69 206.62 C 207.573 207.024 207.332 207.381 207 207.64 Z M 191 182.94 L 205.1 201.76 L 213.3 176.76 L 221.51 151.76 C 213.95 154.207 206.357 156.69 198.73 159.21 Z" stroke="#040000" stroke-miterlimit="10" fill="#060001"/><path d=" M 28.93 255.83 C 46.19 255.777 63.3233 255.743 80.33 255.73 C 85.55 248.29 90.7733 240.853 96 233.42 L 44.7 233.3 C 39.4533 240.813 34.1967 248.323 28.93 255.83 Z" stroke="#040000" stroke-miterlimit="10" fill="#808080" fill-rule="evenodd"/><path d=" M 96 231.42 L 44.7 231.3 C 44.0474 231.299 43.4352 231.616 43.06 232.15 C 38.15 239.23 33.21 246.28 28.26 253.37 L 27.34 254.68 C 26.9111 255.29 26.8571 256.088 27.2 256.75 C 27.321 256.975 27.4879 257.173 27.69 257.33 C 27.69 257.33 27.69 257.33 27.69 257.33 L 27.69 257.33 C 27.8382 257.364 27.98 257.421 28.11 257.5 L 28.89 257.68 L 29.43 257.81 C 46.5233 257.75 63.49 257.713 80.33 257.7 C 80.751 257.704 81.1619 257.571 81.5 257.32 C 81.6821 257.194 81.8383 257.035 81.96 256.85 L 97.59 234.55 C 98.2146 233.639 97.9823 232.394 97.0713 231.77 C 96.7551 231.553 96.3832 231.431 96 231.42 Z M 79.29 253.73 L 32.77 253.82 C 37.0967 247.64 41.4067 241.467 45.7 235.3 L 92.13 235.41 Z" stroke="#040000" stroke-miterlimit="10" fill="#060001"/><path d=" M 138.78 255.63 C 133.24 248.297 127.657 240.917 122.03 233.49 L 96 233.42 C 90.7933 240.873 85.5833 248.31 80.37 255.73 L 109.79 255.73 C 119.46 255.66 129.15 255.66 138.78 255.63 Z" stroke="#040000" stroke-miterlimit="10" fill="#808080" fill-rule="evenodd"/><path d=" M 140 257.25 C 139.66 257.496 139.25 257.629 138.83 257.63 L 80.37 257.72 C 79.2655 257.713 78.376 256.811 78.3833 255.707 C 78.386 255.304 78.5103 254.911 78.74 254.58 L 94.37 232.28 C 94.741 231.745 95.3491 231.424 96 231.42 L 122.07 231.49 C 122.696 231.493 123.284 231.789 123.66 232.29 C 129.28 239.69 134.867 247.07 140.42 254.43 C 140.876 255.033 140.954 255.842 140.62 256.52 C 140.469 256.806 140.258 257.055 140 257.25 Z M 84.21 253.72 L 134.82 253.64 C 130.267 247.64 125.683 241.587 121.07 235.48 L 97.07 235.42 Z" stroke="#040000" stroke-miterlimit="10" fill="#060001"/><path d=" M 108.9 2.44 C 95.06 12.5 81.2233 22.5467 67.39 32.58 C 67.28 41.91 67.21 51.22 67.12 60.52 L 108.63 30.35 C 108.74 21.06 108.81 11.76 108.9 2.44 Z" stroke="#040000" stroke-miterlimit="10" fill="#808080" fill-rule="evenodd"/><path d=" M 109.27 0.51 C 108.776 0.495403 108.286 0.598222 107.84 0.81 L 107.84 0.81 C 107.753 0.887043 107.651 0.944959 107.54 0.98 C 107.469 1.02088 107.403 1.06772 107.34 1.12 L 107.34 1.12 L 66.21 31 C 65.7016 31.3714 65.3978 31.9605 65.39 32.59 L 65.12 60.5 C 65.1147 61.2523 65.532 61.944 66.2 62.29 C 66.8711 62.6353 67.6793 62.5734 68.29 62.13 L 109.81 32 C 110.318 31.6286 110.622 31.0395 110.63 30.41 C 110.7 24.5 110.75 18.59 110.81 12.67 L 110.9 2.48 C 110.917 1.71696 110.498 1.0109 109.82 0.66 C 109.669 0.591796 109.511 0.538219 109.35 0.5 Z M 106.81 12.6 C 106.763 18.18 106.71 23.7567 106.65 29.33 L 69.15 56.57 L 69.37 33.57 L 106.87 6.34 Z" stroke="#040000" stroke-miterlimit="10" fill="#060001"/><path d=" M 19.15 67.61 C 27.9967 70.43 36.86 73.2433 45.74 76.05 L 67.12 60.52 C 67.21 51.22 67.28 41.91 67.39 32.58 L 43.25 50.12 Z" stroke="#040000" stroke-miterlimit="10" fill="#808080" fill-rule="evenodd"/><path d=" M 68.29 62.13 L 46.91 77.66 C 46.4028 78.04 45.742 78.1482 45.14 77.95 C 36.26 75.15 27.3933 72.3367 18.54 69.51 C 17.8235 69.2783 17.2978 68.6638 17.18 67.92 C 17.0711 67.1768 17.3878 66.4352 18 66 L 66.21 31 C 67.1058 30.3538 68.3559 30.5561 69.0021 31.4519 C 69.2514 31.7976 69.3838 32.2138 69.38 32.64 L 69.12 60.56 C 69.1036 61.1842 68.7966 61.7649 68.29 62.13 Z M 45.38 73.84 L 65.13 59.49 L 65.35 36.49 L 23.51 66.91 C 30.8033 69.23 38.0933 71.54 45.38 73.84 Z" stroke="#040000" stroke-miterlimit="10" fill="#040000"/><path d=" M 190.33 184.48 C 189.99 184.726 189.58 184.859 189.16 184.86 L 138.54 184.86 C 137.435 184.857 136.542 183.96 136.545 182.855 C 136.545 182.65 136.577 182.446 136.64 182.25 L 154.8 126.33 C 154.981 125.713 155.463 125.231 156.08 125.05 C 156.689 124.855 157.354 124.963 157.87 125.34 L 198.82 155.07 C 199.52 155.578 199.814 156.477 199.55 157.3 L 191.06 183.48 C 190.932 183.884 190.676 184.235 190.33 184.48 Z M 141.33 180.86 L 187.75 180.86 L 195.34 157.45 L 157.78 130.18 Z" stroke="#040000" stroke-miterlimit="10" fill="#060001"/><path d=" M 123.36 234.82 C 123.02 235.066 122.61 235.199 122.19 235.2 L 96.1 235.2 C 95.2385 235.195 94.477 234.639 94.21 233.82 L 77.86 183.47 C 77.6622 182.863 77.7663 182.198 78.14 181.68 C 78.5015 181.15 79.1086 180.841 79.75 180.86 L 138.53 180.86 C 139.635 180.863 140.528 181.76 140.525 182.865 C 140.525 183.07 140.493 183.274 140.43 183.47 L 124.08 233.81 C 123.953 234.214 123.701 234.568 123.36 234.82 Z M 97.55 231.21 L 120.73 231.21 L 135.79 184.86 L 82.5 184.86 Z" stroke="#040000" stroke-miterlimit="10" fill="#060001"/><path d=" M 157.87 128.56 C 157.703 128.688 157.513 128.783 157.31 128.84 C 156.706 129.034 156.045 128.93 155.53 128.56 L 108 94 C 107.111 93.3447 106.921 92.0926 107.577 91.2035 C 107.696 91.0419 107.838 90.8991 108 90.78 L 150.8 59.63 C 151.501 59.1213 152.449 59.1213 153.15 59.63 L 174.25 75 C 174.946 75.5102 175.236 76.4092 174.97 77.23 L 158.59 127.61 C 158.456 127.994 158.204 128.327 157.87 128.56 Z M 112.53 92.37 L 155.65 123.72 L 170.73 77.33 L 152 63.72 Z" stroke="#040000" stroke-miterlimit="10" fill="#060001"/><path d=" M 80.92 184.47 C 80.5796 184.716 80.1702 184.849 79.75 184.85 L 26.9 184.85 C 26.0375 184.851 25.2717 184.299 25 183.48 L 16.92 158.62 C 16.6538 157.799 16.9441 156.9 17.64 156.39 L 60.4 125.32 C 60.9138 124.937 61.5837 124.832 62.19 125.04 C 62.7964 125.238 63.2719 125.714 63.47 126.32 L 81.65 182.24 C 81.8415 182.846 81.7339 183.506 81.36 184.02 C 81.2397 184.194 81.0909 184.346 80.92 184.47 Z M 28.35 180.85 L 77 180.85 L 60.52 130.15 L 21.16 158.75 Z" stroke="#040000" stroke-miterlimit="10" fill="#060001"/><path d=" M 97.27 234.82 C 96.9296 235.066 96.5202 235.199 96.1 235.2 L 43.25 235.2 C 42.3859 235.194 41.6235 234.633 41.36 233.81 L 25 183.47 C 24.8051 182.861 24.9129 182.196 25.29 181.68 C 25.6515 181.15 26.2586 180.841 26.9 180.86 L 79.75 180.86 C 80.6152 180.861 81.3818 181.417 81.65 182.24 L 98 232.59 C 98.1949 233.199 98.0871 233.864 97.71 234.38 C 97.5894 234.551 97.4406 234.699 97.27 234.82 Z M 44.7 231.2 L 93.35 231.2 L 78.35 184.84 L 29.65 184.84 Z" stroke="#040000" stroke-miterlimit="10" fill="#060001"/><path d=" M 153.15 62.86 L 110.31 94 C 109.618 94.4896 108.692 94.4896 108 94 L 65.21 62.93 C 64.3208 62.2747 64.1312 61.0226 64.7866 60.1334 C 64.9056 59.9718 65.0484 59.8291 65.21 59.71 L 108.06 28.57 C 108.759 28.0661 109.701 28.0661 110.4 28.57 L 153.15 59.63 C 154.039 60.2853 154.229 61.5374 153.573 62.4266 C 153.454 62.5882 153.312 62.7309 153.15 62.85 Z M 109.15 89.86 L 148.59 61.21 L 109.23 32.66 L 69.78 61.32 Z" stroke="#040000" stroke-miterlimit="10" fill="#060001"/><path d=" M 62.74 128.55 L 20 159.61 C 19.1039 160.256 17.8539 160.053 17.2081 159.157 C 17.0878 158.99 16.994 158.805 16.93 158.61 L 0.6 108.35 C 0.333798 107.529 0.624059 106.63 1.32 106.12 L 44.07 75.06 C 44.5878 74.6863 45.2528 74.5822 45.86 74.78 C 46.4664 74.9781 46.9419 75.4536 47.14 76.06 L 63.47 126.32 C 63.7341 127.143 63.4396 128.042 62.74 128.55 Z M 19.86 154.77 L 59.22 126.17 L 44.22 79.91 L 4.84 108.5 Z" stroke="#040000" stroke-miterlimit="10" fill="#060001"/><path d=" M 110.31 94 L 62.74 128.55 C 61.8439 129.196 60.5939 128.993 59.9481 128.097 C 59.8278 127.93 59.734 127.745 59.67 127.55 L 43.35 77.3 C 43.079 76.4762 43.3697 75.5716 44.07 75.06 L 65.21 59.71 C 65.9107 59.2013 66.8593 59.2013 67.56 59.71 L 110.31 90.76 C 111.202 91.4116 111.397 92.6628 110.745 93.5547 C 110.624 93.7214 110.477 93.8682 110.31 93.99 Z M 62.62 123.7 L 105.74 92.37 L 66.38 63.79 L 47.59 77.44 Z" stroke="#040000" stroke-miterlimit="10" fill="#060001"/></g></g></svg>