<svg width="128" height="128" viewBox="-0.9 -0.9 1.8 1.8" xmlns="http://www.w3.org/2000/svg" xmlns:xlink="http://www.w3.org/1999/xlink" overflow="hidden"><g stroke-width="0.1" stroke-linejoin="round" opacity="1"><path d="M0-0.547416 0.66468-0.47 0.66468 0.47 0 0.547416Z" id="1" stroke="#000000" fill="#000000"/><path d="M-0.66468-0.47 0-0.547416 0 0.547416-0.66468 0.47Z" id="2" stroke="#000000" fill="#000000"/></g><g stroke-width="0" stroke-linejoin="round" stroke-opacity="0.5" opacity="1"><path d="M0.00469196-0.575176 0.0578676-0.568982 0.0578676-0.493781 0.00469196-0.499021Z" id="1" stroke="#000000" fill="#FFFFFF"/><path d="M0.0671355-0.567985 0.118997-0.561945 0.118997-0.487672 0.0671355-0.492783Z" id="2" stroke="#000000" fill="#FFFFFF"/><path d="M0.128037-0.560972 0.178632-0.555079 0.178632-0.481713 0.128037-0.486699Z" id="3" stroke="#000000" fill="#EE0000"/><path d="M0.187453-0.554129 0.236828-0.548379 0.236828-0.475898 0.187453-0.480764Z" id="4" stroke="#000000" fill="#EE0000"/><path d="M0.245438-0.547452 0.293636-0.541838 0.293636-0.470221 0.245438-0.474971Z" id="5" stroke="#000000" fill="#EE0000"/><path d="M0.302042-0.540934 0.349105-0.535452 0.349105-0.464678 0.302042-0.469316Z" id="6" stroke="#000000" fill="#EE0000"/><path d="M0.357314-0.534569 0.403281-0.529215 0.403281-0.459265 0.357314-0.463795Z" id="7" stroke="#000000" fill="#EE0000"/><path d="M0.4113-0.528352 0.45621-0.523121 0.45621-0.453976 0.4113-0.458402Z" id="8" stroke="#000000" fill="#EE0000"/><path d="M0.464045-0.522278 0.507934-0.517166 0.507934-0.448807 0.464045-0.453132Z" id="9" stroke="#000000" fill="#EE0000"/><path d="M0.515592-0.516342 0.558493-0.511345 0.558493-0.443755 0.515592-0.447983Z" id="10" stroke="#000000" fill="#EE0000"/><path d="M0.56598-0.51054 0.607927-0.505654 0.607927-0.438815 0.56598-0.442949Z" id="11" stroke="#000000" fill="#EE0000"/><path d="M0.615248-0.504866 0.656273-0.500088 0.656273-0.433984 0.615248-0.438027Z" id="12" stroke="#000000" fill="#FFFFFF"/><path d="M0.663434-0.499317 0.703566-0.494643 0.703566-0.429259 0.663434-0.433214Z" id="13" stroke="#000000" fill="#FFFFFF"/><path d="M0.00469196-0.485666 0.0578676-0.480426 0.0578676-0.405224 0.00469196-0.409512Z" id="14" stroke="#000000" fill="#FFFFFF"/><path d="M0.0671355-0.479594 0.118997-0.474483 0.118997-0.400211 0.0671355-0.404393Z" id="15" stroke="#000000" fill="#FFFFFF"/><path d="M0.128037-0.473672 0.178632-0.468686 0.178632-0.39532 0.128037-0.3994Z" id="16" stroke="#000000" fill="#FFFFFF"/><path d="M0.187453-0.467895 0.236828-0.463029 0.236828-0.390548 0.187453-0.394529Z" id="17" stroke="#000000" fill="#FFA100"/><path d="M0.245438-0.462257 0.293636-0.457506 0.293636-0.385889 0.245438-0.389776Z" id="18" stroke="#000000" fill="#FFFFFF"/><path d="M0.302042-0.456752 0.349105-0.452114 0.349105-0.38134 0.302042-0.385135Z" id="19" stroke="#000000" fill="#FFA100"/><path d="M0.357314-0.451378 0.403281-0.446848 0.403281-0.376897 0.357314-0.380604Z" id="20" stroke="#000000" fill="#FFFFFF"/><path d="M0.4113-0.446128 0.45621-0.441702 0.45621-0.372557 0.4113-0.376178Z" id="21" stroke="#000000" fill="#FFFFFF"/><path d="M0.464045-0.441 0.507934-0.436674 0.507934-0.368315 0.464045-0.371854Z" id="22" stroke="#000000" fill="#FFFFFF"/><path d="M0.515592-0.435987 0.558493-0.431759 0.558493-0.364169 0.515592-0.367628Z" id="23" stroke="#000000" fill="#FFA100"/><path d="M0.56598-0.431088 0.607927-0.426954 0.607927-0.360115 0.56598-0.363497Z" id="24" stroke="#000000" fill="#FFFFFF"/><path d="M0.615248-0.426297 0.656273-0.422254 0.656273-0.35615 0.615248-0.359458Z" id="25" stroke="#000000" fill="#FFFFFF"/><path d="M0.663434-0.421612 0.703566-0.417657 0.703566-0.352272 0.663434-0.355508Z" id="26" stroke="#000000" fill="#FFFFFF"/><path d="M0.00469196-0.396157 0.0578676-0.391869 0.0578676-0.316668 0.00469196-0.320003Z" id="27" stroke="#000000" fill="#FFFFFF"/><path d="M0.0671355-0.391204 0.118997-0.387022 0.118997-0.31275 0.0671355-0.316002Z" id="28" stroke="#000000" fill="#FFFFFF"/><path d="M0.128037-0.386373 0.178632-0.382293 0.178632-0.308928 0.128037-0.312101Z" id="29" stroke="#000000" fill="#FFFFFF"/><path d="M0.187453-0.38166 0.236828-0.377679 0.236828-0.305198 0.187453-0.308295Z" id="30" stroke="#000000" fill="#FFFFFF"/><path d="M0.245438-0.377061 0.293636-0.373175 0.293636-0.301557 0.245438-0.30458Z" id="31" stroke="#000000" fill="#FFA100"/><path d="M0.302042-0.372571 0.349105-0.368776 0.349105-0.298002 0.302042-0.300954Z" id="32" stroke="#000000" fill="#FFFFFF"/><path d="M0.357314-0.368187 0.403281-0.36448 0.403281-0.29453 0.357314-0.297413Z" id="33" stroke="#000000" fill="#FFA100"/><path d="M0.4113-0.363905 0.45621-0.360284 0.45621-0.291138 0.4113-0.293955Z" id="34" stroke="#000000" fill="#FFFFFF"/><path d="M0.464045-0.359721 0.507934-0.356182 0.507934-0.287823 0.464045-0.290576Z" id="35" stroke="#000000" fill="#FFA100"/><path d="M0.515592-0.355633 0.558493-0.352173 0.558493-0.284583 0.515592-0.287273Z" id="36" stroke="#000000" fill="#FFFFFF"/><path d="M0.56598-0.351636 0.607927-0.348254 0.607927-0.281415 0.56598-0.284045Z" id="37" stroke="#000000" fill="#FFFFFF"/><path d="M0.615248-0.347728 0.656273-0.34442 0.656273-0.278316 0.615248-0.280889Z" id="38" stroke="#000000" fill="#FFFFFF"/><path d="M0.663434-0.343906 0.703566-0.34067 0.703566-0.275286 0.663434-0.277802Z" id="39" stroke="#000000" fill="#FFFFFF"/><path d="M0.00469196-0.306648 0.0578676-0.303313 0.0578676-0.228111 0.00469196-0.230493Z" id="40" stroke="#000000" fill="#FFFFFF"/><path d="M0.0671355-0.302813 0.118997-0.299561 0.118997-0.225289 0.0671355-0.227612Z" id="41" stroke="#000000" fill="#EE0000"/><path d="M0.128037-0.299074 0.178632-0.295901 0.178632-0.222535 0.128037-0.224802Z" id="42" stroke="#000000" fill="#EE0000"/><path d="M0.187453-0.295426 0.236828-0.292329 0.236828-0.219848 0.187453-0.22206Z" id="43" stroke="#000000" fill="#EE0000"/><path d="M0.245438-0.291865 0.293636-0.288843 0.293636-0.217225 0.245438-0.219384Z" id="44" stroke="#000000" fill="#EE0000"/><path d="M0.302042-0.28839 0.349105-0.285438 0.349105-0.214664 0.302042-0.216772Z" id="45" stroke="#000000" fill="#EE0000"/><path d="M0.357314-0.284996 0.403281-0.282113 0.403281-0.212163 0.357314-0.214222Z" id="46" stroke="#000000" fill="#EE0000"/><path d="M0.4113-0.281681 0.45621-0.278865 0.45621-0.209719 0.4113-0.211731Z" id="47" stroke="#000000" fill="#EE0000"/><path d="M0.464045-0.278443 0.507934-0.27569 0.507934-0.207331 0.464045-0.209297Z" id="48" stroke="#000000" fill="#EE0000"/><path d="M0.515592-0.275278 0.558493-0.272587 0.558493-0.204997 0.515592-0.206919Z" id="49" stroke="#000000" fill="#EE0000"/><path d="M0.56598-0.272184 0.607927-0.269553 0.607927-0.202714 0.56598-0.204594Z" id="50" stroke="#000000" fill="#EE0000"/><path d="M0.615248-0.269159 0.656273-0.266586 0.656273-0.200482 0.615248-0.20232Z" id="51" stroke="#000000" fill="#EE0000"/><path d="M0.663434-0.266201 0.703566-0.263684 0.703566-0.198299 0.663434-0.200097Z" id="52" stroke="#000000" fill="#FFFFFF"/><path d="M0.00469196-0.217138 0.0578676-0.214756 0.0578676-0.139554 0.00469196-0.140984Z" id="53" stroke="#000000" fill="#FFFFFF"/><path d="M0.0671355-0.214423 0.118997-0.2121 0.118997-0.137827 0.0671355-0.139221Z" id="54" stroke="#000000" fill="#EE0000"/><path d="M0.128037-0.211775 0.178632-0.209508 0.178632-0.136142 0.128037-0.137502Z" id="55" stroke="#000000" fill="#FFFFFF"/><path d="M0.187453-0.209191 0.236828-0.206979 0.236828-0.134498 0.187453-0.135825Z" id="56" stroke="#000000" fill="#FFFFFF"/><path d="M0.245438-0.20667 0.293636-0.204511 0.293636-0.132893 0.245438-0.134189Z" id="57" stroke="#000000" fill="#FFFFFF"/><path d="M0.302042-0.204209 0.349105-0.2021 0.349105-0.131326 0.302042-0.132591Z" id="58" stroke="#000000" fill="#FFFFFF"/><path d="M0.357314-0.201805 0.403281-0.199746 0.403281-0.129796 0.357314-0.131031Z" id="59" stroke="#000000" fill="#EE0000"/><path d="M0.4113-0.199458 0.45621-0.197446 0.45621-0.1283 0.4113-0.129507Z" id="60" stroke="#000000" fill="#FFFFFF"/><path d="M0.464045-0.197164 0.507934-0.195198 0.507934-0.126839 0.464045-0.128019Z" id="61" stroke="#000000" fill="#FFFFFF"/><path d="M0.515592-0.194923 0.558493-0.193001 0.558493-0.125411 0.515592-0.126564Z" id="62" stroke="#000000" fill="#FFFFFF"/><path d="M0.56598-0.192732 0.607927-0.190853 0.607927-0.124014 0.56598-0.125142Z" id="63" stroke="#000000" fill="#FFFFFF"/><path d="M0.615248-0.19059 0.656273-0.188752 0.656273-0.122648 0.615248-0.123751Z" id="64" stroke="#000000" fill="#EE0000"/><path d="M0.663434-0.188495 0.703566-0.186697 0.703566-0.121312 0.663434-0.122391Z" id="65" stroke="#000000" fill="#FFFFFF"/><path d="M0.00469196-0.127629 0.0578676-0.126199 0.0578676-0.0509978 0.00469196-0.0514742Z" id="66" stroke="#000000" fill="#FFFFFF"/><path d="M0.0671355-0.126032 0.118997-0.124638 0.118997-0.0503661 0.0671355-0.0508307Z" id="67" stroke="#000000" fill="#EE0000"/><path d="M0.128037-0.124475 0.178632-0.123116 0.178632-0.0497498 0.128037-0.0502031Z" id="68" stroke="#000000" fill="#FFFFFF"/><path d="M0.187453-0.122956 0.236828-0.121629 0.236828-0.0491484 0.187453-0.0495907Z" id="69" stroke="#000000" fill="#EE0000"/><path d="M0.245438-0.121474 0.293636-0.120179 0.293636-0.0485613 0.245438-0.0489932Z" id="70" stroke="#000000" fill="#EE0000"/><path d="M0.302042-0.120027 0.349105-0.118762 0.349105-0.0479882 0.302042-0.0484098Z" id="71" stroke="#000000" fill="#EE0000"/><path d="M0.357314-0.118614 0.403281-0.117379 0.403281-0.0474284 0.357314-0.0478402Z" id="72" stroke="#000000" fill="#EE0000"/><path d="M0.4113-0.117234 0.45621-0.116027 0.45621-0.0468815 0.4113-0.0472839Z" id="73" stroke="#000000" fill="#EE0000"/><path d="M0.464045-0.115886 0.507934-0.114706 0.507934-0.0463471 0.464045-0.0467403Z" id="74" stroke="#000000" fill="#EE0000"/><path d="M0.515592-0.114568 0.558493-0.113415 0.558493-0.0458247 0.515592-0.0462091Z" id="75" stroke="#000000" fill="#EE0000"/><path d="M0.56598-0.11328 0.607927-0.112153 0.607927-0.045314 0.56598-0.0456898Z" id="76" stroke="#000000" fill="#FFFFFF"/><path d="M0.615248-0.112021 0.656273-0.110918 0.656273-0.0448145 0.615248-0.0451821Z" id="77" stroke="#000000" fill="#EE0000"/><path d="M0.663434-0.110789 0.703566-0.109711 0.703566-0.0443259 0.663434-0.0446855Z" id="78" stroke="#000000" fill="#FFFFFF"/><path d="M0.00469196-0.0381193 0.0578676-0.0376429 0.0578676 0.0375588 0.00469196 0.0380352Z" id="79" stroke="#000000" fill="#FFFFFF"/><path d="M0.0671355-0.0376418 0.118997-0.0371772 0.118997 0.0370952 0.0671355 0.0375598Z" id="80" stroke="#000000" fill="#FFFFFF"/><path d="M0.128037-0.0371762 0.178632-0.0367229 0.178632 0.0366429 0.128037 0.0370962Z" id="81" stroke="#000000" fill="#FFFFFF"/><path d="M0.187453-0.0367219 0.236828-0.0362795 0.236828 0.0362015 0.187453 0.0366438Z" id="82" stroke="#000000" fill="#FFFFFF"/><path d="M0.245438-0.0362786 0.293636-0.0358468 0.293636 0.0357706 0.245438 0.0362024Z" id="83" stroke="#000000" fill="#FFFFFF"/><path d="M0.302042-0.0358459 0.349105-0.0354242 0.349105 0.0353498 0.302042 0.0357715Z" id="84" stroke="#000000" fill="#EE0000"/><path d="M0.357314-0.0354234 0.403281-0.0350115 0.403281 0.0349388 0.357314 0.0353507Z" id="85" stroke="#000000" fill="#FFFFFF"/><path d="M0.4113-0.0350107 0.45621-0.0346083 0.45621 0.0345373 0.4113 0.0349397Z" id="86" stroke="#000000" fill="#FFFFFF"/><path d="M0.464045-0.0346075 0.507934-0.0342143 0.507934 0.0341449 0.464045 0.0345381Z" id="87" stroke="#000000" fill="#FFFFFF"/><path d="M0.515592-0.0342135 0.558493-0.0338292 0.558493 0.0337613 0.515592 0.0341457Z" id="88" stroke="#000000" fill="#FFFFFF"/><path d="M0.56598-0.0338284 0.607927-0.0334526 0.607927 0.0333863 0.56598 0.0337621Z" id="89" stroke="#000000" fill="#FFFFFF"/><path d="M0.615248-0.0334519 0.656273-0.0330843 0.656273 0.0330194 0.615248 0.033387Z" id="90" stroke="#000000" fill="#FFFFFF"/><path d="M0.663434-0.0330836 0.703566-0.032724 0.703566 0.0326606 0.663434 0.0330201Z" id="91" stroke="#000000" fill="#FFFFFF"/><path d="M0.00469196 0.0513902 0.0578676 0.0509137 0.0578676 0.126115 0.00469196 0.127545Z" id="92" stroke="#000000" fill="#FFFFFF"/><path d="M0.0671355 0.0507487 0.118997 0.0502841 0.118997 0.124556 0.0671355 0.12595Z" id="93" stroke="#000000" fill="#FFFFFF"/><path d="M0.128037 0.0501231 0.178632 0.0496698 0.178632 0.123036 0.128037 0.124395Z" id="94" stroke="#000000" fill="#FFFFFF"/><path d="M0.187453 0.0495127 0.236828 0.0490703 0.236828 0.121551 0.187453 0.122878Z" id="95" stroke="#000000" fill="#FFFFFF"/><path d="M0.245438 0.048917 0.293636 0.0484851 0.293636 0.120103 0.245438 0.121398Z" id="96" stroke="#000000" fill="#EE0000"/><path d="M0.302042 0.0483354 0.349105 0.0479138 0.349105 0.118688 0.302042 0.119953Z" id="97" stroke="#000000" fill="#FFA100"/><path d="M0.357314 0.0477675 0.403281 0.0473557 0.403281 0.117306 0.357314 0.118542Z" id="98" stroke="#000000" fill="#FFA100"/><path d="M0.4113 0.0472129 0.45621 0.0468105 0.45621 0.115956 0.4113 0.117163Z" id="99" stroke="#000000" fill="#FFA100"/><path d="M0.464045 0.0466709 0.507934 0.0462777 0.507934 0.114637 0.464045 0.115817Z" id="100" stroke="#000000" fill="#FFA100"/><path d="M0.515592 0.0461413 0.558493 0.0457569 0.558493 0.113347 0.515592 0.1145Z" id="101" stroke="#000000" fill="#FFFFFF"/><path d="M0.56598 0.0456235 0.607927 0.0452477 0.607927 0.112087 0.56598 0.113214Z" id="102" stroke="#000000" fill="#FFFFFF"/><path d="M0.615248 0.0451172 0.656273 0.0447497 0.656273 0.110853 0.615248 0.111956Z" id="103" stroke="#000000" fill="#FFFFFF"/><path d="M0.663434 0.0446221 0.703566 0.0442625 0.703566 0.109647 0.663434 0.110726Z" id="104" stroke="#000000" fill="#FFFFFF"/><path d="M0.00469196 0.1409 0.0578676 0.13947 0.0578676 0.214672 0.00469196 0.217054Z" id="105" stroke="#000000" fill="#FFFFFF"/><path d="M0.0671355 0.139139 0.118997 0.137745 0.118997 0.212018 0.0671355 0.214341Z" id="106" stroke="#000000" fill="#FFFFFF"/><path d="M0.128037 0.137422 0.178632 0.136062 0.178632 0.209428 0.128037 0.211695Z" id="107" stroke="#000000" fill="#FFFFFF"/><path d="M0.187453 0.135747 0.236828 0.13442 0.236828 0.206901 0.187453 0.209113Z" id="108" stroke="#000000" fill="#EE0000"/><path d="M0.245438 0.134113 0.293636 0.132817 0.293636 0.204434 0.245438 0.206594Z" id="109" stroke="#000000" fill="#FFA100"/><path d="M0.302042 0.132517 0.349105 0.131252 0.349105 0.202026 0.302042 0.204134Z" id="110" stroke="#000000" fill="#FFFFFF"/><path d="M0.357314 0.130958 0.403281 0.129723 0.403281 0.199673 0.357314 0.201733Z" id="111" stroke="#000000" fill="#FFFFFF"/><path d="M0.4113 0.129436 0.45621 0.128229 0.45621 0.197375 0.4113 0.199387Z" id="112" stroke="#000000" fill="#FFFFFF"/><path d="M0.464045 0.127949 0.507934 0.12677 0.507934 0.195129 0.464045 0.197095Z" id="113" stroke="#000000" fill="#FFA100"/><path d="M0.515592 0.126496 0.558493 0.125343 0.558493 0.192933 0.515592 0.194855Z" id="114" stroke="#000000" fill="#FFFFFF"/><path d="M0.56598 0.125075 0.607927 0.123948 0.607927 0.190787 0.56598 0.192666Z" id="115" stroke="#000000" fill="#FFFFFF"/><path d="M0.615248 0.123686 0.656273 0.122584 0.656273 0.188687 0.615248 0.190525Z" id="116" stroke="#000000" fill="#FFFFFF"/><path d="M0.663434 0.122328 0.703566 0.121249 0.703566 0.186634 0.663434 0.188431Z" id="117" stroke="#000000" fill="#FFFFFF"/><path d="M0.00469196 0.230409 0.0578676 0.228027 0.0578676 0.303229 0.00469196 0.306564Z" id="118" stroke="#000000" fill="#FFFFFF"/><path d="M0.0671355 0.22753 0.118997 0.225207 0.118997 0.299479 0.0671355 0.302731Z" id="119" stroke="#000000" fill="#FFFFFF"/><path d="M0.128037 0.224722 0.178632 0.222455 0.178632 0.295821 0.128037 0.298994Z" id="120" stroke="#000000" fill="#EE0000"/><path d="M0.187453 0.221982 0.236828 0.21977 0.236828 0.292251 0.187453 0.295348Z" id="121" stroke="#000000" fill="#FFFFFF"/><path d="M0.245438 0.219308 0.293636 0.217149 0.293636 0.288766 0.245438 0.291789Z" id="122" stroke="#000000" fill="#FFFFFF"/><path d="M0.302042 0.216698 0.349105 0.21459 0.349105 0.285364 0.302042 0.288315Z" id="123" stroke="#000000" fill="#FFA100"/><path d="M0.357314 0.214149 0.403281 0.21209 0.403281 0.282041 0.357314 0.284923Z" id="124" stroke="#000000" fill="#FFFFFF"/><path d="M0.4113 0.21166 0.45621 0.209648 0.45621 0.278794 0.4113 0.28161Z" id="125" stroke="#000000" fill="#FFA100"/><path d="M0.464045 0.209228 0.507934 0.207262 0.507934 0.275621 0.464045 0.278373Z" id="126" stroke="#000000" fill="#FFFFFF"/><path d="M0.515592 0.206851 0.558493 0.204929 0.558493 0.272519 0.515592 0.27521Z" id="127" stroke="#000000" fill="#FFFFFF"/><path d="M0.56598 0.204527 0.607927 0.202648 0.607927 0.269487 0.56598 0.272118Z" id="128" stroke="#000000" fill="#FFFFFF"/><path d="M0.615248 0.202255 0.656273 0.200418 0.656273 0.266521 0.615248 0.269094Z" id="129" stroke="#000000" fill="#FFFFFF"/><path d="M0.663434 0.200033 0.703566 0.198236 0.703566 0.26362 0.663434 0.266137Z" id="130" stroke="#000000" fill="#FFFFFF"/><path d="M0.00469196 0.319918 0.0578676 0.316584 0.0578676 0.391785 0.00469196 0.396073Z" id="131" stroke="#000000" fill="#FFFFFF"/><path d="M0.0671355 0.31592 0.118997 0.312668 0.118997 0.38694 0.0671355 0.391122Z" id="132" stroke="#000000" fill="#EE0000"/><path d="M0.128037 0.312021 0.178632 0.308848 0.178632 0.382213 0.128037 0.386293Z" id="133" stroke="#000000" fill="#FFFFFF"/><path d="M0.187453 0.308216 0.236828 0.30512 0.236828 0.377601 0.187453 0.381582Z" id="134" stroke="#000000" fill="#FFFFFF"/><path d="M0.245438 0.304504 0.293636 0.301481 0.293636 0.373098 0.245438 0.376985Z" id="135" stroke="#000000" fill="#FFFFFF"/><path d="M0.302042 0.300879 0.349105 0.297928 0.349105 0.368702 0.302042 0.372497Z" id="136" stroke="#000000" fill="#FFFFFF"/><path d="M0.357314 0.29734 0.403281 0.294457 0.403281 0.364408 0.357314 0.368114Z" id="137" stroke="#000000" fill="#FFA100"/><path d="M0.4113 0.293884 0.45621 0.291067 0.45621 0.360213 0.4113 0.363834Z" id="138" stroke="#000000" fill="#FFFFFF"/><path d="M0.464045 0.290506 0.507934 0.287754 0.507934 0.356113 0.464045 0.359652Z" id="139" stroke="#000000" fill="#FFFFFF"/><path d="M0.515592 0.287206 0.558493 0.284515 0.558493 0.352105 0.515592 0.355565Z" id="140" stroke="#000000" fill="#FFFFFF"/><path d="M0.56598 0.283979 0.607927 0.281348 0.607927 0.348187 0.56598 0.35157Z" id="141" stroke="#000000" fill="#FFFFFF"/><path d="M0.615248 0.280824 0.656273 0.278252 0.656273 0.344355 0.615248 0.347663Z" id="142" stroke="#000000" fill="#FFFFFF"/><path d="M0.663434 0.277739 0.703566 0.275222 0.703566 0.340607 0.663434 0.343843Z" id="143" stroke="#000000" fill="#FFFFFF"/><path d="M0.00469196 0.409428 0.0578676 0.40514 0.0578676 0.480342 0.00469196 0.485582Z" id="144" stroke="#000000" fill="#FFFFFF"/><path d="M0.0671355 0.404311 0.118997 0.400129 0.118997 0.474401 0.0671355 0.479512Z" id="145" stroke="#000000" fill="#FFFFFF"/><path d="M0.128037 0.39932 0.178632 0.39524 0.178632 0.468606 0.128037 0.473592Z" id="146" stroke="#000000" fill="#FFFFFF"/><path d="M0.187453 0.394451 0.236828 0.39047 0.236828 0.462951 0.187453 0.467817Z" id="147" stroke="#000000" fill="#FFFFFF"/><path d="M0.245438 0.389699 0.293636 0.385813 0.293636 0.45743 0.245438 0.46218Z" id="148" stroke="#000000" fill="#FFFFFF"/><path d="M0.302042 0.385061 0.349105 0.381266 0.349105 0.45204 0.302042 0.456678Z" id="149" stroke="#000000" fill="#FFA100"/><path d="M0.357314 0.380531 0.403281 0.376825 0.403281 0.446775 0.357314 0.451305Z" id="150" stroke="#000000" fill="#FFFFFF"/><path d="M0.4113 0.376107 0.45621 0.372486 0.45621 0.441631 0.4113 0.446057Z" id="151" stroke="#000000" fill="#FFA100"/><path d="M0.464045 0.371785 0.507934 0.368246 0.507934 0.436605 0.464045 0.44093Z" id="152" stroke="#000000" fill="#FFFFFF"/><path d="M0.515592 0.36756 0.558493 0.364101 0.558493 0.431692 0.515592 0.43592Z" id="153" stroke="#000000" fill="#FFFFFF"/><path d="M0.56598 0.363431 0.607927 0.360049 0.607927 0.426887 0.56598 0.431022Z" id="154" stroke="#000000" fill="#FFFFFF"/><path d="M0.615248 0.359393 0.656273 0.356085 0.656273 0.422189 0.615248 0.426232Z" id="155" stroke="#000000" fill="#FFFFFF"/><path d="M0.663434 0.355445 0.703566 0.352209 0.703566 0.417593 0.663434 0.421548Z" id="156" stroke="#000000" fill="#FFFFFF"/><path d="M0.00469196 0.498937 0.0578676 0.493697 0.0578676 0.568898 0.00469196 0.575092Z" id="157" stroke="#000000" fill="#FFFFFF"/><path d="M0.0671355 0.492701 0.118997 0.48759 0.118997 0.561863 0.0671355 0.567903Z" id="158" stroke="#000000" fill="#FFA100"/><path d="M0.128037 0.486619 0.178632 0.481633 0.178632 0.554999 0.128037 0.560892Z" id="159" stroke="#000000" fill="#FFA100"/><path d="M0.187453 0.480686 0.236828 0.47582 0.236828 0.548301 0.187453 0.554051Z" id="160" stroke="#000000" fill="#FFA100"/><path d="M0.245438 0.474895 0.293636 0.470145 0.293636 0.541762 0.245438 0.547376Z" id="161" stroke="#000000" fill="#FFA100"/><path d="M0.302042 0.469242 0.349105 0.464604 0.349105 0.535378 0.302042 0.540859Z" id="162" stroke="#000000" fill="#FFFFFF"/><path d="M0.357314 0.463722 0.403281 0.459192 0.403281 0.529142 0.357314 0.534496Z" id="163" stroke="#000000" fill="#FFFFFF"/><path d="M0.4113 0.458331 0.45621 0.453905 0.45621 0.52305 0.4113 0.528281Z" id="164" stroke="#000000" fill="#FFFFFF"/><path d="M0.464045 0.453063 0.507934 0.448738 0.507934 0.517097 0.464045 0.522209Z" id="165" stroke="#000000" fill="#FFA100"/><path d="M0.515592 0.447915 0.558493 0.443687 0.558493 0.511278 0.515592 0.516274Z" id="166" stroke="#000000" fill="#FFA100"/><path d="M0.56598 0.442883 0.607927 0.438749 0.607927 0.505588 0.56598 0.510473Z" id="167" stroke="#000000" fill="#FFA100"/><path d="M0.615248 0.437963 0.656273 0.433919 0.656273 0.500023 0.615248 0.504801Z" id="168" stroke="#000000" fill="#FFFFFF"/><path d="M0.663434 0.43315 0.703566 0.429195 0.703566 0.49458 0.663434 0.499254Z" id="169" stroke="#000000" fill="#FFFFFF"/><path d="M-0.703566-0.49458-0.663434-0.499254-0.663434-0.43315-0.703566-0.429195Z" id="170" stroke="#000000" fill="#0000F2"/><path d="M-0.656273-0.500023-0.615248-0.504801-0.615248-0.437963-0.656273-0.433919Z" id="171" stroke="#000000" fill="#0000F2"/><path d="M-0.607927-0.505588-0.56598-0.510473-0.56598-0.442883-0.607927-0.438749Z" id="172" stroke="#000000" fill="#0000F2"/><path d="M-0.558493-0.511278-0.515592-0.516274-0.515592-0.447915-0.558493-0.443687Z" id="173" stroke="#000000" fill="#0000F2"/><path d="M-0.507934-0.517097-0.464045-0.522209-0.464045-0.453063-0.507934-0.448738Z" id="174" stroke="#000000" fill="#0000F2"/><path d="M-0.45621-0.52305-0.4113-0.528281-0.4113-0.458331-0.45621-0.453905Z" id="175" stroke="#000000" fill="#0000F2"/><path d="M-0.403281-0.529142-0.357314-0.534496-0.357314-0.463722-0.403281-0.459192Z" id="176" stroke="#000000" fill="#0000F2"/><path d="M-0.349105-0.535378-0.302042-0.540859-0.302042-0.469242-0.349105-0.464604Z" id="177" stroke="#000000" fill="#0000F2"/><path d="M-0.293636-0.541762-0.245438-0.547376-0.245438-0.474895-0.293636-0.470145Z" id="178" stroke="#000000" fill="#FFA100"/><path d="M-0.236828-0.548301-0.187453-0.554051-0.187453-0.480686-0.236828-0.47582Z" id="179" stroke="#000000" fill="#0000F2"/><path d="M-0.178632-0.554999-0.128037-0.560892-0.128037-0.486619-0.178632-0.481633Z" id="180" stroke="#000000" fill="#0000F2"/><path d="M-0.118997-0.561863-0.0671355-0.567903-0.0671355-0.492701-0.118997-0.48759Z" id="181" stroke="#000000" fill="#0000F2"/><path d="M-0.0578676-0.568898-0.00469196-0.575092-0.00469196-0.498937-0.0578676-0.493697Z" id="182" stroke="#000000" fill="#0000F2"/><path d="M-0.703566-0.417593-0.663434-0.421548-0.663434-0.355445-0.703566-0.352209Z" id="183" stroke="#000000" fill="#0000F2"/><path d="M-0.656273-0.422189-0.615248-0.426232-0.615248-0.359393-0.656273-0.356085Z" id="184" stroke="#000000" fill="#0000F2"/><path d="M-0.607927-0.426887-0.56598-0.431022-0.56598-0.363431-0.607927-0.360049Z" id="185" stroke="#000000" fill="#0000F2"/><path d="M-0.558493-0.431692-0.515592-0.43592-0.515592-0.36756-0.558493-0.364101Z" id="186" stroke="#000000" fill="#0000F2"/><path d="M-0.507934-0.436605-0.464045-0.44093-0.464045-0.371785-0.507934-0.368246Z" id="187" stroke="#000000" fill="#0000F2"/><path d="M-0.45621-0.441631-0.4113-0.446057-0.4113-0.376107-0.45621-0.372486Z" id="188" stroke="#000000" fill="#0000F2"/><path d="M-0.403281-0.446775-0.357314-0.451305-0.357314-0.380531-0.403281-0.376825Z" id="189" stroke="#000000" fill="#FFA100"/><path d="M-0.349105-0.45204-0.302042-0.456678-0.302042-0.385061-0.349105-0.381266Z" id="190" stroke="#000000" fill="#0000F2"/><path d="M-0.293636-0.45743-0.245438-0.46218-0.245438-0.389699-0.293636-0.385813Z" id="191" stroke="#000000" fill="#FFA100"/><path d="M-0.236828-0.462951-0.187453-0.467817-0.187453-0.394451-0.236828-0.39047Z" id="192" stroke="#000000" fill="#0000F2"/><path d="M-0.178632-0.468606-0.128037-0.473592-0.128037-0.39932-0.178632-0.39524Z" id="193" stroke="#000000" fill="#FFA100"/><path d="M-0.118997-0.474401-0.0671355-0.479512-0.0671355-0.404311-0.118997-0.400129Z" id="194" stroke="#000000" fill="#0000F2"/><path d="M-0.0578676-0.480342-0.00469196-0.485582-0.00469196-0.409428-0.0578676-0.40514Z" id="195" stroke="#000000" fill="#0000F2"/><path d="M-0.703566-0.340607-0.663434-0.343843-0.663434-0.277739-0.703566-0.275222Z" id="196" stroke="#000000" fill="#0000F2"/><path d="M-0.656273-0.344355-0.615248-0.347663-0.615248-0.280824-0.656273-0.278252Z" id="197" stroke="#000000" fill="#0000F2"/><path d="M-0.607927-0.348187-0.56598-0.35157-0.56598-0.283979-0.607927-0.281348Z" id="198" stroke="#000000" fill="#FFA100"/><path d="M-0.558493-0.352105-0.515592-0.355565-0.515592-0.287206-0.558493-0.284515Z" id="199" stroke="#000000" fill="#FFA100"/><path d="M-0.507934-0.356113-0.464045-0.359652-0.464045-0.290506-0.507934-0.287754Z" id="200" stroke="#000000" fill="#FFA100"/><path d="M-0.45621-0.360213-0.4113-0.363834-0.4113-0.293884-0.45621-0.291067Z" id="201" stroke="#000000" fill="#FFA100"/><path d="M-0.403281-0.364408-0.357314-0.368114-0.357314-0.29734-0.403281-0.294457Z" id="202" stroke="#000000" fill="#0000F2"/><path d="M-0.349105-0.368702-0.302042-0.372497-0.302042-0.300879-0.349105-0.297928Z" id="203" stroke="#000000" fill="#0000F2"/><path d="M-0.293636-0.373098-0.245438-0.376985-0.245438-0.304504-0.293636-0.301481Z" id="204" stroke="#000000" fill="#FFA100"/><path d="M-0.236828-0.377601-0.187453-0.381582-0.187453-0.308216-0.236828-0.30512Z" id="205" stroke="#000000" fill="#0000F2"/><path d="M-0.178632-0.382213-0.128037-0.386293-0.128037-0.312021-0.178632-0.308848Z" id="206" stroke="#000000" fill="#0000F2"/><path d="M-0.118997-0.38694-0.0671355-0.391122-0.0671355-0.31592-0.118997-0.312668Z" id="207" stroke="#000000" fill="#FFA100"/><path d="M-0.0578676-0.391785-0.00469196-0.396073-0.00469196-0.319918-0.0578676-0.316584Z" id="208" stroke="#000000" fill="#0000F2"/><path d="M-0.703566-0.26362-0.663434-0.266137-0.663434-0.200033-0.703566-0.198236Z" id="209" stroke="#000000" fill="#0000F2"/><path d="M-0.656273-0.266521-0.615248-0.269094-0.615248-0.202255-0.656273-0.200418Z" id="210" stroke="#000000" fill="#0000F2"/><path d="M-0.607927-0.269487-0.56598-0.272118-0.56598-0.204527-0.607927-0.202648Z" id="211" stroke="#000000" fill="#0000F2"/><path d="M-0.558493-0.272519-0.515592-0.27521-0.515592-0.206851-0.558493-0.204929Z" id="212" stroke="#000000" fill="#0000F2"/><path d="M-0.507934-0.275621-0.464045-0.278373-0.464045-0.209228-0.507934-0.207262Z" id="213" stroke="#000000" fill="#FFA100"/><path d="M-0.45621-0.278794-0.4113-0.28161-0.4113-0.21166-0.45621-0.209648Z" id="214" stroke="#000000" fill="#0000F2"/><path d="M-0.403281-0.282041-0.357314-0.284923-0.357314-0.214149-0.403281-0.21209Z" id="215" stroke="#000000" fill="#0000F2"/><path d="M-0.349105-0.285364-0.302042-0.288315-0.302042-0.216698-0.349105-0.21459Z" id="216" stroke="#000000" fill="#0000F2"/><path d="M-0.293636-0.288766-0.245438-0.291789-0.245438-0.219308-0.293636-0.217149Z" id="217" stroke="#000000" fill="#FFA100"/><path d="M-0.236828-0.292251-0.187453-0.295348-0.187453-0.221982-0.236828-0.21977Z" id="218" stroke="#000000" fill="#0000F2"/><path d="M-0.178632-0.295821-0.128037-0.298994-0.128037-0.224722-0.178632-0.222455Z" id="219" stroke="#000000" fill="#0000F2"/><path d="M-0.118997-0.299479-0.0671355-0.302731-0.0671355-0.22753-0.118997-0.225207Z" id="220" stroke="#000000" fill="#0000F2"/><path d="M-0.0578676-0.303229-0.00469196-0.306564-0.00469196-0.230409-0.0578676-0.228027Z" id="221" stroke="#000000" fill="#0000F2"/><path d="M-0.703566-0.186634-0.663434-0.188431-0.663434-0.122328-0.703566-0.121249Z" id="222" stroke="#000000" fill="#0000F2"/><path d="M-0.656273-0.188687-0.615248-0.190525-0.615248-0.123686-0.656273-0.122584Z" id="223" stroke="#000000" fill="#0000F2"/><path d="M-0.607927-0.190787-0.56598-0.192666-0.56598-0.125075-0.607927-0.123948Z" id="224" stroke="#000000" fill="#FFFFFF"/><path d="M-0.558493-0.192933-0.515592-0.194855-0.515592-0.126496-0.558493-0.125343Z" id="225" stroke="#000000" fill="#FFFFFF"/><path d="M-0.507934-0.195129-0.464045-0.197095-0.464045-0.127949-0.507934-0.12677Z" id="226" stroke="#000000" fill="#FFFFFF"/><path d="M-0.45621-0.197375-0.4113-0.199387-0.4113-0.129436-0.45621-0.128229Z" id="227" stroke="#000000" fill="#FFFFFF"/><path d="M-0.403281-0.199673-0.357314-0.201733-0.357314-0.130958-0.403281-0.129723Z" id="228" stroke="#000000" fill="#FFFFFF"/><path d="M-0.349105-0.202026-0.302042-0.204134-0.302042-0.132517-0.349105-0.131252Z" id="229" stroke="#000000" fill="#FFFFFF"/><path d="M-0.293636-0.204434-0.245438-0.206594-0.245438-0.134113-0.293636-0.132817Z" id="230" stroke="#000000" fill="#FFFFFF"/><path d="M-0.236828-0.206901-0.187453-0.209113-0.187453-0.135747-0.236828-0.13442Z" id="231" stroke="#000000" fill="#FFFFFF"/><path d="M-0.178632-0.209428-0.128037-0.211695-0.128037-0.137422-0.178632-0.136062Z" id="232" stroke="#000000" fill="#FFFFFF"/><path d="M-0.118997-0.212018-0.0671355-0.214341-0.0671355-0.139139-0.118997-0.137745Z" id="233" stroke="#000000" fill="#FFFFFF"/><path d="M-0.0578676-0.214672-0.00469196-0.217054-0.00469196-0.1409-0.0578676-0.13947Z" id="234" stroke="#000000" fill="#0000F2"/><path d="M-0.703566-0.109647-0.663434-0.110726-0.663434-0.0446221-0.703566-0.0442625Z" id="235" stroke="#000000" fill="#0000F2"/><path d="M-0.656273-0.110853-0.615248-0.111956-0.615248-0.0451172-0.656273-0.0447497Z" id="236" stroke="#000000" fill="#0000F2"/><path d="M-0.607927-0.112087-0.56598-0.113214-0.56598-0.0456235-0.607927-0.0452477Z" id="237" stroke="#000000" fill="#0000F2"/><path d="M-0.558493-0.113347-0.515592-0.1145-0.515592-0.0461413-0.558493-0.0457569Z" id="238" stroke="#000000" fill="#0000F2"/><path d="M-0.507934-0.114637-0.464045-0.115817-0.464045-0.0466709-0.507934-0.0462777Z" id="239" stroke="#000000" fill="#FFA100"/><path d="M-0.45621-0.115956-0.4113-0.117163-0.4113-0.0472129-0.45621-0.0468105Z" id="240" stroke="#000000" fill="#0000F2"/><path d="M-0.403281-0.117306-0.357314-0.118542-0.357314-0.0477675-0.403281-0.0473557Z" id="241" stroke="#000000" fill="#0000F2"/><path d="M-0.349105-0.118688-0.302042-0.119953-0.302042-0.0483354-0.349105-0.0479138Z" id="242" stroke="#000000" fill="#0000F2"/><path d="M-0.293636-0.120103-0.245438-0.121398-0.245438-0.048917-0.293636-0.0484851Z" id="243" stroke="#000000" fill="#FFA100"/><path d="M-0.236828-0.121551-0.187453-0.122878-0.187453-0.0495127-0.236828-0.0490703Z" id="244" stroke="#000000" fill="#0000F2"/><path d="M-0.178632-0.123036-0.128037-0.124395-0.128037-0.0501231-0.178632-0.0496698Z" id="245" stroke="#000000" fill="#0000F2"/><path d="M-0.118997-0.124556-0.0671355-0.12595-0.0671355-0.0507487-0.118997-0.0502841Z" id="246" stroke="#000000" fill="#0000F2"/><path d="M-0.0578676-0.126115-0.00469196-0.127545-0.00469196-0.0513902-0.0578676-0.0509137Z" id="247" stroke="#000000" fill="#0000F2"/><path d="M-0.703566-0.0326606-0.663434-0.0330201-0.663434 0.0330836-0.703566 0.032724Z" id="248" stroke="#000000" fill="#0000F2"/><path d="M-0.656273-0.0330194-0.615248-0.033387-0.615248 0.0334519-0.656273 0.0330843Z" id="249" stroke="#000000" fill="#0000F2"/><path d="M-0.607927-0.0333863-0.56598-0.0337621-0.56598 0.0338284-0.607927 0.0334526Z" id="250" stroke="#000000" fill="#0000F2"/><path d="M-0.558493-0.0337613-0.515592-0.0341457-0.515592 0.0342135-0.558493 0.0338292Z" id="251" stroke="#000000" fill="#0000F2"/><path d="M-0.507934-0.0341449-0.464045-0.0345381-0.464045 0.0346075-0.507934 0.0342143Z" id="252" stroke="#000000" fill="#FFA100"/><path d="M-0.45621-0.0345373-0.4113-0.0349397-0.4113 0.0350107-0.45621 0.0346083Z" id="253" stroke="#000000" fill="#0000F2"/><path d="M-0.403281-0.0349388-0.357314-0.0353507-0.357314 0.0354234-0.403281 0.0350115Z" id="254" stroke="#000000" fill="#FFA100"/><path d="M-0.349105-0.0353498-0.302042-0.0357715-0.302042 0.0358459-0.349105 0.0354242Z" id="255" stroke="#000000" fill="#0000F2"/><path d="M-0.293636-0.0357706-0.245438-0.0362024-0.245438 0.0362786-0.293636 0.0358468Z" id="256" stroke="#000000" fill="#FFA100"/><path d="M-0.236828-0.0362015-0.187453-0.0366438-0.187453 0.0367219-0.236828 0.0362795Z" id="257" stroke="#000000" fill="#0000F2"/><path d="M-0.178632-0.0366429-0.128037-0.0370962-0.128037 0.0371762-0.178632 0.0367229Z" id="258" stroke="#000000" fill="#0000F2"/><path d="M-0.118997-0.0370952-0.0671355-0.0375598-0.0671355 0.0376418-0.118997 0.0371772Z" id="259" stroke="#000000" fill="#EE0000"/><path d="M-0.0578676-0.0375588-0.00469196-0.0380352-0.00469196 0.0381193-0.0578676 0.0376429Z" id="260" stroke="#000000" fill="#0000F2"/><path d="M-0.703566 0.0443259-0.663434 0.0446855-0.663434 0.110789-0.703566 0.109711Z" id="261" stroke="#000000" fill="#0000F2"/><path d="M-0.656273 0.0448145-0.615248 0.0451821-0.615248 0.112021-0.656273 0.110918Z" id="262" stroke="#000000" fill="#0000F2"/><path d="M-0.607927 0.045314-0.56598 0.0456898-0.56598 0.11328-0.607927 0.112153Z" id="263" stroke="#000000" fill="#0000F2"/><path d="M-0.558493 0.0458247-0.515592 0.0462091-0.515592 0.114568-0.558493 0.113415Z" id="264" stroke="#000000" fill="#0000F2"/><path d="M-0.507934 0.0463471-0.464045 0.0467403-0.464045 0.115886-0.507934 0.114706Z" id="265" stroke="#000000" fill="#FFA100"/><path d="M-0.45621 0.0468815-0.4113 0.0472839-0.4113 0.117234-0.45621 0.116027Z" id="266" stroke="#000000" fill="#FFA100"/><path d="M-0.403281 0.0474284-0.357314 0.0478402-0.357314 0.118614-0.403281 0.117379Z" id="267" stroke="#000000" fill="#0000F2"/><path d="M-0.349105 0.0479882-0.302042 0.0484098-0.302042 0.120027-0.349105 0.118762Z" id="268" stroke="#000000" fill="#0000F2"/><path d="M-0.293636 0.0485613-0.245438 0.0489932-0.245438 0.121474-0.293636 0.120179Z" id="269" stroke="#000000" fill="#FFA100"/><path d="M-0.236828 0.0491484-0.187453 0.0495907-0.187453 0.122956-0.236828 0.121629Z" id="270" stroke="#000000" fill="#0000F2"/><path d="M-0.178632 0.0497498-0.128037 0.0502031-0.128037 0.124475-0.178632 0.123116Z" id="271" stroke="#000000" fill="#EE0000"/><path d="M-0.118997 0.0503661-0.0671355 0.0508307-0.0671355 0.126032-0.118997 0.124638Z" id="272" stroke="#000000" fill="#0000F2"/><path d="M-0.0578676 0.0509978-0.00469196 0.0514742-0.00469196 0.127629-0.0578676 0.126199Z" id="273" stroke="#000000" fill="#0000F2"/><path d="M-0.703566 0.121312-0.663434 0.122391-0.663434 0.188495-0.703566 0.186697Z" id="274" stroke="#000000" fill="#0000F2"/><path d="M-0.656273 0.122648-0.615248 0.123751-0.615248 0.19059-0.656273 0.188752Z" id="275" stroke="#000000" fill="#0000F2"/><path d="M-0.607927 0.124014-0.56598 0.125142-0.56598 0.192732-0.607927 0.190853Z" id="276" stroke="#000000" fill="#0000F2"/><path d="M-0.558493 0.125411-0.515592 0.126564-0.515592 0.194923-0.558493 0.193001Z" id="277" stroke="#000000" fill="#FFA100"/><path d="M-0.507934 0.126839-0.464045 0.128019-0.464045 0.197164-0.507934 0.195198Z" id="278" stroke="#000000" fill="#FFA100"/><path d="M-0.45621 0.1283-0.4113 0.129507-0.4113 0.199458-0.45621 0.197446Z" id="279" stroke="#000000" fill="#0000F2"/><path d="M-0.403281 0.129796-0.357314 0.131031-0.357314 0.201805-0.403281 0.199746Z" id="280" stroke="#000000" fill="#0000F2"/><path d="M-0.349105 0.131326-0.302042 0.132591-0.302042 0.204209-0.349105 0.2021Z" id="281" stroke="#000000" fill="#0000F2"/><path d="M-0.293636 0.132893-0.245438 0.134189-0.245438 0.20667-0.293636 0.204511Z" id="282" stroke="#000000" fill="#FFA100"/><path d="M-0.236828 0.134498-0.187453 0.135825-0.187453 0.209191-0.236828 0.206979Z" id="283" stroke="#000000" fill="#EE0000"/><path d="M-0.178632 0.136142-0.128037 0.137502-0.128037 0.211775-0.178632 0.209508Z" id="284" stroke="#000000" fill="#0000F2"/><path d="M-0.118997 0.137827-0.0671355 0.139221-0.0671355 0.214423-0.118997 0.2121Z" id="285" stroke="#000000" fill="#0000F2"/><path d="M-0.0578676 0.139554-0.00469196 0.140984-0.00469196 0.217138-0.0578676 0.214756Z" id="286" stroke="#000000" fill="#0000F2"/><path d="M-0.703566 0.198299-0.663434 0.200097-0.663434 0.266201-0.703566 0.263684Z" id="287" stroke="#000000" fill="#0000F2"/><path d="M-0.656273 0.200482-0.615248 0.20232-0.615248 0.269159-0.656273 0.266586Z" id="288" stroke="#000000" fill="#0000F2"/><path d="M-0.607927 0.202714-0.56598 0.204594-0.56598 0.272184-0.607927 0.269553Z" id="289" stroke="#000000" fill="#FFA100"/><path d="M-0.558493 0.204997-0.515592 0.206919-0.515592 0.275278-0.558493 0.272587Z" id="290" stroke="#000000" fill="#0000F2"/><path d="M-0.507934 0.207331-0.464045 0.209297-0.464045 0.278443-0.507934 0.27569Z" id="291" stroke="#000000" fill="#FFA100"/><path d="M-0.45621 0.209719-0.4113 0.211731-0.4113 0.281681-0.45621 0.278865Z" id="292" stroke="#000000" fill="#0000F2"/><path d="M-0.403281 0.212163-0.357314 0.214222-0.357314 0.284996-0.403281 0.282113Z" id="293" stroke="#000000" fill="#0000F2"/><path d="M-0.349105 0.214664-0.302042 0.216772-0.302042 0.28839-0.349105 0.285438Z" id="294" stroke="#000000" fill="#0000F2"/><path d="M-0.293636 0.217225-0.245438 0.219384-0.245438 0.291865-0.293636 0.288843Z" id="295" stroke="#000000" fill="#EE0000"/><path d="M-0.236828 0.219848-0.187453 0.22206-0.187453 0.295426-0.236828 0.292329Z" id="296" stroke="#000000" fill="#FFA100"/><path d="M-0.178632 0.222535-0.128037 0.224802-0.128037 0.299074-0.178632 0.295901Z" id="297" stroke="#000000" fill="#0000F2"/><path d="M-0.118997 0.225289-0.0671355 0.227612-0.0671355 0.302813-0.118997 0.299561Z" id="298" stroke="#000000" fill="#FFA100"/><path d="M-0.0578676 0.228111-0.00469196 0.230493-0.00469196 0.306648-0.0578676 0.303313Z" id="299" stroke="#000000" fill="#0000F2"/><path d="M-0.703566 0.275286-0.663434 0.277802-0.663434 0.343906-0.703566 0.34067Z" id="300" stroke="#000000" fill="#0000F2"/><path d="M-0.656273 0.278316-0.615248 0.280889-0.615248 0.347728-0.656273 0.34442Z" id="301" stroke="#000000" fill="#FFA100"/><path d="M-0.607927 0.281415-0.56598 0.284045-0.56598 0.351636-0.607927 0.348254Z" id="302" stroke="#000000" fill="#0000F2"/><path d="M-0.558493 0.284583-0.515592 0.287273-0.515592 0.355633-0.558493 0.352173Z" id="303" stroke="#000000" fill="#0000F2"/><path d="M-0.507934 0.287823-0.464045 0.290576-0.464045 0.359721-0.507934 0.356182Z" id="304" stroke="#000000" fill="#FFA100"/><path d="M-0.45621 0.291138-0.4113 0.293955-0.4113 0.363905-0.45621 0.360284Z" id="305" stroke="#000000" fill="#0000F2"/><path d="M-0.403281 0.29453-0.357314 0.297413-0.357314 0.368187-0.403281 0.36448Z" id="306" stroke="#000000" fill="#0000F2"/><path d="M-0.349105 0.298002-0.302042 0.300954-0.302042 0.372571-0.349105 0.368776Z" id="307" stroke="#000000" fill="#EE0000"/><path d="M-0.293636 0.301557-0.245438 0.30458-0.245438 0.377061-0.293636 0.373175Z" id="308" stroke="#000000" fill="#0000F2"/><path d="M-0.236828 0.305198-0.187453 0.308295-0.187453 0.38166-0.236828 0.377679Z" id="309" stroke="#000000" fill="#0000F2"/><path d="M-0.178632 0.308928-0.128037 0.312101-0.128037 0.386373-0.178632 0.382293Z" id="310" stroke="#000000" fill="#FFA100"/><path d="M-0.118997 0.31275-0.0671355 0.316002-0.0671355 0.391204-0.118997 0.387022Z" id="311" stroke="#000000" fill="#FFA100"/><path d="M-0.0578676 0.316668-0.00469196 0.320003-0.00469196 0.396157-0.0578676 0.391869Z" id="312" stroke="#000000" fill="#0000F2"/><path d="M-0.703566 0.352272-0.663434 0.355508-0.663434 0.421612-0.703566 0.417657Z" id="313" stroke="#000000" fill="#0000F2"/><path d="M-0.656273 0.35615-0.615248 0.359458-0.615248 0.426297-0.656273 0.422254Z" id="314" stroke="#000000" fill="#0000F2"/><path d="M-0.607927 0.360115-0.56598 0.363497-0.56598 0.431088-0.607927 0.426954Z" id="315" stroke="#000000" fill="#0000F2"/><path d="M-0.558493 0.364169-0.515592 0.367628-0.515592 0.435987-0.558493 0.431759Z" id="316" stroke="#000000" fill="#FFA100"/><path d="M-0.507934 0.368315-0.464045 0.371854-0.464045 0.441-0.507934 0.436674Z" id="317" stroke="#000000" fill="#FFA100"/><path d="M-0.45621 0.372557-0.4113 0.376178-0.4113 0.446128-0.45621 0.441702Z" id="318" stroke="#000000" fill="#0000F2"/><path d="M-0.403281 0.376897-0.357314 0.380604-0.357314 0.451378-0.403281 0.446848Z" id="319" stroke="#000000" fill="#EE0000"/><path d="M-0.349105 0.38134-0.302042 0.385135-0.302042 0.456752-0.349105 0.452114Z" id="320" stroke="#000000" fill="#0000F2"/><path d="M-0.293636 0.385889-0.245438 0.389776-0.245438 0.462257-0.293636 0.457506Z" id="321" stroke="#000000" fill="#0000F2"/><path d="M-0.236828 0.390548-0.187453 0.394529-0.187453 0.467895-0.236828 0.463029Z" id="322" stroke="#000000" fill="#0000F2"/><path d="M-0.178632 0.39532-0.128037 0.3994-0.128037 0.473672-0.178632 0.468686Z" id="323" stroke="#000000" fill="#0000F2"/><path d="M-0.118997 0.400211-0.0671355 0.404393-0.0671355 0.479594-0.118997 0.474483Z" id="324" stroke="#000000" fill="#FFA100"/><path d="M-0.0578676 0.405224-0.00469196 0.409512-0.00469196 0.485666-0.0578676 0.480426Z" id="325" stroke="#000000" fill="#0000F2"/><path d="M-0.703566 0.429259-0.663434 0.433214-0.663434 0.499317-0.703566 0.494643Z" id="326" stroke="#000000" fill="#0000F2"/><path d="M-0.656273 0.433984-0.615248 0.438027-0.615248 0.504866-0.656273 0.500088Z" id="327" stroke="#000000" fill="#0000F2"/><path d="M-0.607927 0.438815-0.56598 0.442949-0.56598 0.51054-0.607927 0.505654Z" id="328" stroke="#000000" fill="#0000F2"/><path d="M-0.558493 0.443755-0.515592 0.447983-0.515592 0.516342-0.558493 0.511345Z" id="329" stroke="#000000" fill="#0000F2"/><path d="M-0.507934 0.448807-0.464045 0.453132-0.464045 0.522278-0.507934 0.517166Z" id="330" stroke="#000000" fill="#0000F2"/><path d="M-0.45621 0.453976-0.4113 0.458402-0.4113 0.528352-0.45621 0.523121Z" id="331" stroke="#000000" fill="#0000F2"/><path d="M-0.403281 0.459265-0.357314 0.463795-0.357314 0.534569-0.403281 0.529215Z" id="332" stroke="#000000" fill="#0000F2"/><path d="M-0.349105 0.464678-0.302042 0.469316-0.302042 0.540934-0.349105 0.535452Z" id="333" stroke="#000000" fill="#0000F2"/><path d="M-0.293636 0.470221-0.245438 0.474971-0.245438 0.547452-0.293636 0.541838Z" id="334" stroke="#000000" fill="#0000F2"/><path d="M-0.236828 0.475898-0.187453 0.480764-0.187453 0.554129-0.236828 0.548379Z" id="335" stroke="#000000" fill="#0000F2"/><path d="M-0.178632 0.481713-0.128037 0.486699-0.128037 0.560972-0.178632 0.555079Z" id="336" stroke="#000000" fill="#0000F2"/><path d="M-0.118997 0.487672-0.0671355 0.492783-0.0671355 0.567985-0.118997 0.561945Z" id="337" stroke="#000000" fill="#0000F2"/><path d="M-0.0578676 0.493781-0.00469196 0.499021-0.00469196 0.575176-0.0578676 0.568982Z" id="338" stroke="#000000" fill="#0000F2"/></g></svg>