<svg version="1.1" viewBox="0 0 200 190.211" xmlns="http://www.w3.org/2000/svg" xmlns:xlink="http://www.w3.org/1999/xlink" overflow="hidden"><g stroke-linejoin="round"><path d=" M 80.2229 132.367 L 68 94.7488 L 100 71.4994 L 132 94.7488 L 119.777 132.367 Z" stroke="#000000" stroke-width="4" fill="#808080"/><path d=" M 80.2229 132.367 L 93.4869 173.198 L 50.5573 173.198 L 37.2913 132.37 Z" stroke="#000000" stroke-width="4" fill="#808080"/><path d=" M 50.5573 173.198 L 38.1966 190.211 L 85.1672 190.211 L 93.4869 173.198 Z" stroke="#000000" stroke-width="4" fill="#00D800"/><path d=" M 50.5573 173.198 L 38.1966 190.211 L 23.6819 145.54 L 37.2913 132.37 Z" stroke="#000000" stroke-width="4" fill="#FFA100"/><path d=" M 119.777 132.367 L 106.513 173.198 L 93.4869 173.198 L 80.2229 132.367 Z" stroke="#000000" stroke-width="4" fill="#808080"/><path d=" M 106.513 173.198 L 93.4869 173.198 L 85.1672 190.211 L 114.833 190.211 Z" stroke="#000000" stroke-width="4" fill="#00D800"/><path d=" M 68 94.7488 L 33.266 119.981 L 20 79.1526 L 54.7308 53.9193 Z" stroke="#000000" stroke-width="4" fill="#EEE8AA"/><path d=" M 20 79.1526 L 0 72.6543 L 14.5147 117.326 L 33.266 119.981 Z" stroke="#000000" stroke-width="4" fill="#808080"/><path d=" M 20 79.1526 L 0 72.6543 L 38 45.0456 L 54.7308 53.9193 Z" stroke="#000000" stroke-width="4" fill="#FF1493"/><path d=" M 80.2229 132.367 L 37.2913 132.37 L 33.266 119.981 L 68 94.7488 Z" stroke="#000000" stroke-width="4" fill="#808080"/><path d=" M 37.2913 132.37 L 33.266 119.981 L 14.5147 117.326 L 23.6819 145.54 Z" stroke="#000000" stroke-width="4" fill="#FFA100"/><path d=" M 100 71.4994 L 65.2692 46.2626 L 100 21.0292 L 134.731 46.2626 Z" stroke="#000000" stroke-width="4" fill="#00D800"/><path d=" M 100 21.0292 L 100 0 L 62 27.6086 L 65.2692 46.2626 Z" stroke="#000000" stroke-width="4" fill="#808080"/><path d=" M 100 21.0292 L 100 0 L 138 27.6086 L 134.731 46.2626 Z" stroke="#000000" stroke-width="4" fill="#EEE8AA"/><path d=" M 68 94.7488 L 54.7308 53.9193 L 65.2692 46.2626 L 100 71.4994 Z" stroke="#000000" stroke-width="4" fill="#808080"/><path d=" M 54.7308 53.9193 L 65.2692 46.2626 L 62 27.6086 L 38 45.0456 Z" stroke="#000000" stroke-width="4" fill="#FF1493"/><path d=" M 132 94.7488 L 145.269 53.9193 L 180 79.1526 L 166.734 119.981 Z" stroke="#000000" stroke-width="4" fill="#808080"/><path d=" M 180 79.1526 L 200 72.6543 L 162 45.0456 L 145.269 53.9193 Z" stroke="#000000" stroke-width="4" fill="#FFA100"/><path d=" M 180 79.1526 L 200 72.6543 L 185.485 117.326 L 166.734 119.981 Z" stroke="#000000" stroke-width="4" fill="#ADD8E6"/><path d=" M 100 71.4994 L 134.731 46.2626 L 145.269 53.9193 L 132 94.7488 Z" stroke="#000000" stroke-width="4" fill="#808080"/><path d=" M 134.731 46.2626 L 145.269 53.9193 L 162 45.0456 L 138 27.6086 Z" stroke="#000000" stroke-width="4" fill="#EEE8AA"/><path d=" M 119.777 132.367 L 162.709 132.37 L 149.443 173.198 L 106.513 173.198 Z" stroke="#000000" stroke-width="4" fill="#FF1493"/><path d=" M 149.443 173.198 L 161.803 190.211 L 176.318 145.54 L 162.709 132.37 Z" stroke="#000000" stroke-width="4" fill="#808080"/><path d=" M 149.443 173.198 L 161.803 190.211 L 114.833 190.211 L 106.513 173.198 Z" stroke="#000000" stroke-width="4" fill="#ADD8E6"/><path d=" M 132 94.7488 L 166.734 119.981 L 162.709 132.37 L 119.777 132.367 Z" stroke="#000000" stroke-width="4" fill="#808080"/><path d=" M 166.734 119.981 L 162.709 132.37 L 176.318 145.54 L 185.485 117.326 Z" stroke="#000000" stroke-width="4" fill="#ADD8E6"/></g></svg>