<svg viewBox="0 0 405 200" xmlns="http://www.w3.org/2000/svg" xmlns:xlink="http://www.w3.org/1999/xlink" id="Layer_1" overflow="hidden"><g><path d="M100 100 84.8 156.6 43.4 156.6 43.4 115.2Z" stroke="#000000" stroke-width="4" stroke-linejoin="round" fill="#FFFFFF"/><path d="M43.4 156.6 29.3 170.7 81.1 170.7 84.8 156.6Z" stroke="#000000" stroke-width="4" stroke-linejoin="round" fill="#0000F2"/><path d="M43.4 156.6 29.3 170.7 29.3 118.9 43.4 115.2Z" stroke="#000000" stroke-width="4" stroke-linejoin="round" fill="#EE0000"/><path d="M100 100 43.4 115.2 43.4 84.8Z" stroke="#000000" stroke-width="4" stroke-linejoin="round" fill="#FFFFFF"/><path d="M43.4 115.2 29.3 118.9 29.3 81.1 43.4 84.8Z" stroke="#000000" stroke-width="4" stroke-linejoin="round" fill="#EE0000"/><path d="M100 100 43.4 84.8 43.4 43.4 84.8 43.4Z" stroke="#000000" stroke-width="4" stroke-linejoin="round" fill="#1B1B1B"/><path d="M43.4 43.4 29.3 29.3 29.3 81.1 43.4 84.8Z" stroke="#000000" stroke-width="4" stroke-linejoin="round" fill="#0000F2"/><path d="M43.4 43.4 29.3 29.3 81.1 29.3 84.8 43.4Z" stroke="#000000" stroke-width="4" stroke-linejoin="round" fill="#FFA100"/><path d="M100 100 84.8 43.4 115.2 43.4Z" stroke="#000000" stroke-width="4" stroke-linejoin="round" fill="#1B1B1B"/><path d="M84.8 43.4 81.1 29.3 118.9 29.3 115.2 43.4Z" stroke="#000000" stroke-width="4" stroke-linejoin="round" fill="#00D800"/><path d="M100 100 115.2 43.4 156.6 43.4 156.6 84.8Z" stroke="#000000" stroke-width="4" stroke-linejoin="round" fill="#1B1B1B"/><path d="M156.6 43.4 170.7 29.3 118.9 29.3 115.2 43.4Z" stroke="#000000" stroke-width="4" stroke-linejoin="round" fill="#00D800"/><path d="M156.6 43.4 170.7 29.3 170.7 81.1 156.6 84.8Z" stroke="#000000" stroke-width="4" stroke-linejoin="round" fill="#EE0000"/><path d="M100 100 156.6 84.8 177.3 120.7 141.4 141.4Z" stroke="#000000" stroke-width="4" stroke-linejoin="round" fill="#FFFFFF"/><path d="M177.3 120.7 196.6 125.9 170.7 81.1 156.6 84.8Z" stroke="#000000" stroke-width="4" stroke-linejoin="round" fill="#FFA100"/><path d="M177.3 120.7 196.6 125.9 151.8 151.8 141.4 141.4Z" stroke="#000000" stroke-width="4" stroke-linejoin="round" fill="#0000F2"/><path d="M100 100 141.4 141.4 120.7 177.3 84.8 156.6Z" stroke="#000000" stroke-width="4" stroke-linejoin="round" fill="#1B1B1B"/><path d="M120.7 177.3 125.9 196.6 151.8 151.8 141.4 141.4Z" stroke="#000000" stroke-width="4" stroke-linejoin="round" fill="#EE0000"/><path d="M120.7 177.3 125.9 196.6 81.1 170.7 84.8 156.6Z" stroke="#000000" stroke-width="4" stroke-linejoin="round" fill="#0000F2"/><path d="M305 100 320.2 43.4 284.3 22.7 263.6 58.6Z" stroke="#000000" stroke-width="4" stroke-linejoin="round" fill="#1B1B1B"/><path d="M284.3 22.7 279.1 3.4 323.9 29.3 320.2 43.4Z" stroke="#000000" stroke-width="4" stroke-linejoin="round" fill="#FFA100"/><path d="M284.3 22.7 279.1 3.4 253.2 48.2 263.6 58.6Z" stroke="#000000" stroke-width="4" stroke-linejoin="round" fill="#00D800"/><path d="M305 100 263.6 58.6 248.4 84.8Z" stroke="#000000" stroke-width="4" stroke-linejoin="round" fill="#FFFFFF"/><path d="M263.6 58.6 253.2 48.2 234.3 81.1 248.4 84.8Z" stroke="#000000" stroke-width="4" stroke-linejoin="round" fill="#FFA100"/><path d="M305 100 248.4 84.8 227.7 120.7 263.6 141.4Z" stroke="#000000" stroke-width="4" stroke-linejoin="round" fill="#FFFFFF"/><path d="M227.7 120.7 208.4 125.9 234.3 81.1 248.4 84.8Z" stroke="#000000" stroke-width="4" stroke-linejoin="round" fill="#EE0000"/><path d="M227.7 120.7 208.4 125.9 253.2 151.8 263.6 141.4Z" stroke="#000000" stroke-width="4" stroke-linejoin="round" fill="#00D800"/><path d="M305 100 263.6 141.4 289.8 156.6Z" stroke="#000000" stroke-width="4" stroke-linejoin="round" fill="#1B1B1B"/><path d="M263.6 141.4 253.2 151.8 286.1 170.7 289.8 156.6Z" stroke="#000000" stroke-width="4" stroke-linejoin="round" fill="#FFA100"/><path d="M305 100 289.8 156.6 320.2 156.6Z" stroke="#000000" stroke-width="4" stroke-linejoin="round" fill="#FFFFFF"/><path d="M289.8 156.6 286.1 170.7 323.9 170.7 320.2 156.6Z" stroke="#000000" stroke-width="4" stroke-linejoin="round" fill="#00D800"/><path d="M305 100 320.2 156.6 346.4 141.4Z" stroke="#000000" stroke-width="4" stroke-linejoin="round" fill="#1B1B1B"/><path d="M320.2 156.6 323.9 170.7 356.8 151.8 346.4 141.4Z" stroke="#000000" stroke-width="4" stroke-linejoin="round" fill="#EE0000"/><path d="M305 100 346.4 141.4 361.6 115.2Z" stroke="#000000" stroke-width="4" stroke-linejoin="round" fill="#FFFFFF"/><path d="M346.4 141.4 356.8 151.8 375.7 118.9 361.6 115.2Z" stroke="#000000" stroke-width="4" stroke-linejoin="round" fill="#0000F2"/><path d="M305 100 361.6 115.2 382.3 79.3 346.4 58.6Z" stroke="#000000" stroke-width="4" stroke-linejoin="round" fill="#FFFFFF"/><path d="M382.3 79.3 401.6 74.1 375.7 118.9 361.6 115.2Z" stroke="#000000" stroke-width="4" stroke-linejoin="round" fill="#00D800"/><path d="M382.3 79.3 401.6 74.1 356.8 48.2 346.4 58.6Z" stroke="#000000" stroke-width="4" stroke-linejoin="round" fill="#FFA100"/><path d="M305 100 346.4 58.6 320.2 43.4Z" stroke="#000000" stroke-width="4" stroke-linejoin="round" fill="#1B1B1B"/><path d="M346.4 58.6 356.8 48.2 323.9 29.3 320.2 43.4Z" stroke="#000000" stroke-width="4" stroke-linejoin="round" fill="#0000F2"/></g></svg>