<svg viewBox="0 0 271.67 256.28" xmlns="http://www.w3.org/2000/svg" xmlns:xlink="http://www.w3.org/1999/xlink" overflow="hidden"><defs></defs><g id="图层_2"><g id="图层_1-2"><path d="M195.63 126.75 177.44 182.63 118.66 182.65 100.5 126.74 148.06 92.19 195.63 126.75Z" fill="#1B1B1B"/><path d="M195.63 126.75 148.06 92.19 100.5 126.74 118.66 182.65 177.44 182.63 195.63 126.75Z" stroke="#040000" stroke-miterlimit="10" fill="none"/><path d="M117.48 184.27C117.134 184.025 116.878 183.674 116.75 183.27L98.59 127.36C98.3259 126.537 98.6204 125.638 99.32 125.13L146.89 90.56C147.589 90.0561 148.531 90.0561 149.23 90.56L196.8 125.12C197.496 125.63 197.786 126.529 197.52 127.35L179.34 183.27C179.068 184.089 178.302 184.641 177.44 184.64L118.65 184.64C118.23 184.647 117.819 184.517 117.48 184.27ZM102.84 127.51 120.1 180.66 176 180.66 193.29 127.51 148.06 94.64Z" stroke="#040000" stroke-miterlimit="10" fill="#211613"/><path d="M118.65 182.66 134.29 230.8 161.81 230.79 177.44 182.65 118.65 182.66Z" stroke="#040000" stroke-miterlimit="10" fill="#1B1B1B" fill-rule="evenodd"/><path d="M161.81 230.79 214.79 230.79 230.41 182.66 177.44 182.65 161.81 230.79Z" stroke="#040000" stroke-miterlimit="10" fill="#1B1B1B" fill-rule="evenodd"/><path d="M160.64 232.4C160.471 232.277 160.323 232.129 160.2 231.96 159.826 231.442 159.722 230.777 159.92 230.17L175.55 182C175.822 181.181 176.588 180.629 177.45 180.63L230.45 180.63C231.088 180.634 231.687 180.942 232.06 181.46 232.43 181.975 232.534 182.636 232.34 183.24L216.71 231.38C216.442 232.203 215.675 232.759 214.81 232.76L161.81 232.76C161.392 232.765 160.983 232.639 160.64 232.4ZM178.89 184.65 164.56 228.79 213.34 228.79 227.66 184.64Z" stroke="#040000" stroke-miterlimit="10" fill="#060001"/><path d="M134.29 230.8 118.65 182.66 65.72 182.66 81.37 230.79 134.29 230.8Z" stroke="#040000" stroke-miterlimit="10" fill="#1B1B1B" fill-rule="evenodd"/><path d="M80.2 232.41C79.8539 232.168 79.6001 231.815 79.48 231.41L63.83 183.28C63.4931 182.228 64.0727 181.102 65.1246 180.765 65.3171 180.704 65.5179 180.671 65.72 180.67L118.65 180.67C119.515 180.671 120.282 181.227 120.55 182.05L136.19 230.19C136.532 231.24 135.959 232.369 134.909 232.711 134.709 232.777 134.5 232.81 134.29 232.81L81.37 232.81C80.9475 232.804 80.538 232.664 80.2 232.41ZM68.47 184.66 82.82 228.8 131.54 228.8 117.2 184.65Z" stroke="#040000" stroke-miterlimit="10" fill="#060001"/><path d="M100.49 126.74 57.66 157.85 65.72 182.66 118.65 182.66 100.49 126.74Z" stroke="#040000" stroke-miterlimit="10" fill="#1B1B1B" fill-rule="evenodd"/><path d="M177.44 182.65 230.41 182.66 238.47 157.86 195.63 126.73 177.44 182.65Z" stroke="#040000" stroke-miterlimit="10" fill="#1B1B1B" fill-rule="evenodd"/><path d="M148.06 92.17 105.31 61.11 84.17 76.48 100.49 126.74 148.06 92.17Z" stroke="#040000" stroke-miterlimit="10" fill="#1B1B1B" fill-rule="evenodd"/><path d="M84.17 76.48 41.34 107.59 57.66 157.85 100.49 126.74 84.17 76.48Z" stroke="#040000" stroke-miterlimit="10" fill="#1B1B1B" fill-rule="evenodd"/><path d="M238.47 157.86 254.8 107.61 211.95 76.48 195.63 126.73 238.47 157.86Z" stroke="#040000" stroke-miterlimit="10" fill="#1B1B1B" fill-rule="evenodd"/><path d="M190.81 61.12 148.06 30.06 105.31 61.11 148.06 92.17 190.81 61.12Z" stroke="#040000" stroke-miterlimit="10" fill="#1B1B1B" fill-rule="evenodd"/><path d="M195.63 126.73 211.95 76.48 190.81 61.12 148.06 92.17 195.63 126.73Z" stroke="#040000" stroke-miterlimit="10" fill="#1B1B1B" fill-rule="evenodd"/><path d="M66 253.61C83.1133 253.677 100.267 253.733 117.46 253.78 122.86 246.1 128.307 238.367 133.8 230.58L81.71 230.5Z" stroke="#040000" stroke-miterlimit="10" fill="#00D800" fill-rule="evenodd"/><path d="M64.78 255.23C64.532 255.051 64.327 254.818 64.18 254.55 63.8353 253.894 63.8815 253.101 64.3 252.49L80 229.38C80.3728 228.836 80.9902 228.51 81.65 228.51L133.74 228.59C134.845 228.593 135.737 229.492 135.734 230.596 135.732 231.006 135.605 231.405 135.37 231.74L119 254.92C118.627 255.458 118.014 255.779 117.36 255.78L65.9 255.61C65.4969 255.599 65.1065 255.467 64.78 255.23ZM82.72 232.5 69.72 251.63 116.38 251.78 129.92 232.57Z" stroke="#040000" stroke-miterlimit="10" fill="#060001"/><path d="M3.32 191.12C12.9733 204.247 22.5833 217.323 32.15 230.35 35.03 226.23 37.88 222.06 40.8 217.92 43.72 213.78 46.59 209.57 49.52 205.38 46.52 196.22 43.52 187.02 40.52 177.78 37.52 168.54 34.4733 159.207 31.38 149.78 26.55 148.32 21.74 146.83 16.93 145.38 12.12 143.93 7.3 142.47 2.5 141 2.77333 157.847 3.04667 174.553 3.32 191.12Z" stroke="#040000" stroke-miterlimit="10" fill="#00D800" fill-rule="evenodd"/><path d="M31 232C30.8296 231.883 30.6808 231.738 30.56 231.57 23.0067 221.257 15.4233 210.937 7.81 200.61L1.71 192.31C1.46396 191.976 1.32767 191.574 1.32 191.16L0.5 141C0.485642 139.896 1.36936 138.989 2.47383 138.974 2.6791 138.971 2.88355 139 3.08 139.06L31.94 147.88C32.558 148.079 33.0467 148.557 33.26 149.17L51.42 204.73C51.6089 205.329 51.5131 205.981 51.16 206.5L42.44 219.04C40.76 221.43 39.09 223.83 37.44 226.21L33.79 231.47C33.4209 231.995 32.822 232.312 32.18 232.32 31.7629 232.339 31.3503 232.227 31 232ZM5.3 190.45 11 198.24C18.0667 207.82 25.1 217.377 32.1 226.91L34.16 224C35.82 221.6 37.4867 219.203 39.16 216.81L47.31 205.1 29.79 151.42 4.54 143.7Z" stroke="#040000" stroke-miterlimit="10" fill="#060001"/><path d="M49.52 205.38C54.8 197.84 60.0933 190.247 65.4 182.6L57.4 157.79 31.4 149.79C34.46 159.123 37.5067 168.457 40.54 177.79 43.5733 187.123 46.5667 196.32 49.52 205.38Z" stroke="#040000" stroke-miterlimit="10" fill="#00D800" fill-rule="evenodd"/><path d="M48.35 207C48.007 206.752 47.7514 206.402 47.62 206L29.47 150.43C29.2461 149.728 29.4267 148.959 29.94 148.43 30.4628 147.906 31.2322 147.714 31.94 147.93L57.99 155.93C58.6101 156.122 59.0986 156.603 59.3 157.22L67.3 182.03C67.4934 182.625 67.3972 183.276 67.04 183.79 61.7067 191.417 56.4133 199.01 51.16 206.57 50.728 207.193 49.9806 207.519 49.23 207.41 48.9092 207.342 48.6082 207.202 48.35 207ZM34.46 152.85 50.18 201C54.5067 194.8 58.84 188.57 63.18 182.31L55.81 159.43Z" stroke="#040000" stroke-miterlimit="10" fill="#060001"/><path d="M148 2.42C134.093 12.5533 120.213 22.6567 106.36 32.73 106.26 41.99 106.2 51.22 106.12 60.47L147.86 30.13C147.89 20.9 148 11.63 148 2.42Z" stroke="#040000" stroke-miterlimit="10" fill="#ADD8E6" fill-rule="evenodd"/><path d="M149.11 0.78 148.85 0.73C148.795 0.714602 148.742 0.694529 148.69 0.67 148.123 0.675336 147.558 0.728862 147 0.83L146.91 0.88 146.38 1.11 141.21 4.88C129.21 13.66 117.21 22.4067 105.21 31.12 104.698 31.4893 104.39 32.0787 104.38 32.71L104.14 60.45C104.132 61.0971 104.437 61.7082 104.96 62.09L105.22 62.25C105.893 62.5924 106.701 62.5266 107.31 62.08L149 31.75C149.514 31.3744 149.818 30.7766 149.82 30.14 149.82 22.5 149.9 14.83 149.94 7.2L149.94 2.43C149.949 1.77753 149.639 1.16167 149.11 0.78ZM146 7.17C145.947 14.5033 145.907 21.8167 145.88 29.11L108.15 56.53 108.35 33.75C120.083 25.25 131.827 16.7033 143.58 8.11L146 6.36Z" stroke="#040000" stroke-miterlimit="10" fill="#060001"/><path d="M239.25 18.41C223.25 13.0767 207.22 7.77333 191.16 2.5 191.16 7.66 191.23 12.84 191.26 17.99 191.29 23.14 191.33 28.34 191.37 33.49 199.37 39.3167 207.397 45.1567 215.45 51.01L239.59 68.55C244.51 66.99 249.44 65.42 254.36 63.88 259.28 62.34 264.22 60.77 269.17 59.21 259.183 45.61 249.21 32.01 239.25 18.41Z" stroke="#040000" stroke-miterlimit="10" fill="#ADD8E6" fill-rule="evenodd"/><path d="M238.42 70.16 190.2 35.16C189.685 34.7886 189.377 34.1948 189.37 33.56L189.16 2.56C189.126 1.45596 189.993 0.533146 191.097 0.498828 191.332 0.491518 191.567 0.525767 191.79 0.6L225.42 11.74 239.87 16.51C240.271 16.6388 240.621 16.8907 240.87 17.23 250.87 30.95 260.87 44.49 270.79 58.03 271.445 58.9196 271.254 60.1715 270.365 60.8263 270.19 60.9547 269.996 61.0539 269.79 61.12L240.21 70.45C239.601 70.6449 238.936 70.5371 238.42 70.16ZM193.36 32.47 240 66.34 266 58.14C256.667 45.4733 247.367 32.8067 238.1 20.14L224.26 15.57C213.933 12.15 203.6 8.73 193.26 5.31Z" stroke="#040000" stroke-miterlimit="10" fill="#060001"/><path d="M191.37 33.49C191.417 42.79 191.48 52.09 191.56 61.39L212.94 76.93C221.813 74.1367 230.697 71.3433 239.59 68.55L215.45 51C207.417 45.18 199.39 39.3433 191.37 33.49Z" stroke="#040000" stroke-miterlimit="10" fill="#ADD8E6" fill-rule="evenodd"/><path d="M211.77 78.54 190.39 63C189.879 62.6265 189.575 62.0331 189.57 61.4 189.49 52.0667 189.423 42.7667 189.37 33.5 189.367 32.7455 189.788 32.0533 190.46 31.71 191.128 31.3689 191.932 31.4307 192.54 31.87L240.76 66.92C241.651 67.5731 241.843 68.8247 241.19 69.7155 240.939 70.0582 240.585 70.312 240.18 70.44L213.54 78.82C212.939 79.011 212.283 78.9072 211.77 78.54ZM193.55 60.37 213.3 74.72 235.21 67.83 193.39 37.43C193.43 45.07 193.483 52.7167 193.55 60.37Z" stroke="#040000" stroke-miterlimit="10" fill="#060001"/><path d="M133.12 232.42C132.781 232.171 132.529 231.821 132.4 231.42L116.76 183.27C116.562 182.663 116.666 181.998 117.04 181.48 117.416 180.966 118.013 180.662 118.65 180.66L177.45 180.66C178.089 180.64 178.693 180.95 179.05 181.48 179.427 181.996 179.535 182.661 179.34 183.27L163.71 231.4C163.446 232.223 162.684 232.784 161.82 232.79L134.3 232.79C133.877 232.794 133.464 232.665 133.12 232.42ZM121.4 184.65 135.75 228.8 160.36 228.8 174.69 184.65Z" stroke="#040000" stroke-miterlimit="10" fill="#060001"/><path d="M64.55 184.27C64.2028 184.029 63.9487 183.676 63.83 183.27L55.77 158.46C55.5038 157.639 55.7941 156.74 56.49 156.23L99.32 125.12C99.8378 124.746 100.503 124.642 101.11 124.84 101.729 125.02 102.215 125.502 102.4 126.12L120.55 182C120.887 183.052 120.307 184.178 119.255 184.515 119.06 184.577 118.855 184.61 118.65 184.61L65.72 184.61C65.303 184.63 64.8911 184.511 64.55 184.27ZM60 158.61 67.16 180.67 115.9 180.67 99.45 130Z" stroke="#040000" stroke-miterlimit="10" fill="#060001"/><path d="M176.27 184.27C176.099 184.146 175.95 183.994 175.83 183.82 175.456 183.302 175.352 182.637 175.55 182.03L193.73 126.12C193.927 125.508 194.408 125.027 195.02 124.83 195.626 124.638 196.286 124.746 196.8 125.12L239.64 156.24C240.336 156.75 240.626 157.649 240.36 158.47L232.31 183.27C232.042 184.093 231.275 184.649 230.41 184.65L177.41 184.65C177 184.643 176.602 184.511 176.27 184.27ZM196.68 130 180.19 180.7 229 180.7 236.16 158.7Z" stroke="#040000" stroke-miterlimit="10" fill="#060001"/><path d="M99.32 128.36C98.9807 128.111 98.7288 127.761 98.6 127.36L82.27 77.1C82.0059 76.277 82.3004 75.3775 83 74.87L104.14 59.5C104.839 58.9961 105.781 58.9961 106.48 59.5L149.23 90.57C150.119 91.2253 150.309 92.4774 149.653 93.3665 149.534 93.5281 149.392 93.6709 149.23 93.79L101.67 128.37C101.152 128.744 100.487 128.848 99.88 128.65 99.678 128.586 99.4886 128.488 99.32 128.36ZM86.51 77.24 101.51 123.51 144.64 92.17 105.31 63.58Z" stroke="#040000" stroke-miterlimit="10" fill="#060001"/><path d="M56.49 159.47C56.1513 159.218 55.8968 158.869 55.76 158.47L39.44 108.2C39.1807 107.38 39.4747 106.486 40.17 105.98L83 74.87C83.516 74.4929 84.1813 74.3851 84.79 74.58 85.4046 74.7646 85.8854 75.2454 86.07 75.86L102.4 126.13C102.666 126.951 102.376 127.85 101.68 128.36L58.84 159.46C58.324 159.837 57.6587 159.945 57.05 159.75 56.8492 159.688 56.66 159.594 56.49 159.47ZM43.68 108.35 58.68 154.62 98.15 126 83.15 79.73Z" stroke="#040000" stroke-miterlimit="10" fill="#060001"/><path d="M237.29 159.47 194.46 128.35C193.76 127.842 193.466 126.943 193.73 126.12L210.05 75.86C210.394 74.8103 211.523 74.2381 212.573 74.5819 212.769 74.6459 212.953 74.7397 213.12 74.86L256 106C256.696 106.51 256.986 107.409 256.72 108.23L240.39 158.48C240.046 159.53 238.917 160.102 237.867 159.758 237.671 159.694 237.487 159.6 237.32 159.48ZM198 126 237.44 154.66 252.44 108.4 213 79.7Z" stroke="#040000" stroke-miterlimit="10" fill="#060001"/><path d="M146.89 93.79 104.13 62.72C103.616 62.3444 103.312 61.7466 103.31 61.11 103.314 60.4716 103.622 59.8734 104.14 59.5L146.89 28.5C147.589 27.9961 148.531 27.9961 149.23 28.5L192 59.5C192.892 60.1516 193.087 61.4028 192.435 62.2947 192.314 62.4614 192.167 62.6082 192 62.73L149.23 93.78C148.534 94.2869 147.591 94.2909 146.89 93.79ZM108.7 61.11 148.06 89.7 187.41 61.12 148.06 32.53Z" stroke="#040000" stroke-miterlimit="10" fill="#060001"/><path d="M194.46 128.35 146.89 93.79C145.998 93.1385 145.803 91.8872 146.455 90.9953 146.576 90.8286 146.723 90.6818 146.89 90.56L189.64 59.5C190.339 58.9961 191.281 58.9961 191.98 59.5L213.12 74.86C213.816 75.3702 214.106 76.2692 213.84 77.09L197.52 127.35C197.324 127.954 196.853 128.429 196.25 128.63 195.643 128.828 194.978 128.724 194.46 128.35ZM151.46 92.17 194.58 123.5 209.58 77.24 190.81 63.58Z" stroke="#040000" stroke-miterlimit="10" fill="#060001"/></g></g></svg>