<svg viewBox="0 0 296.91 229.1" xmlns="http://www.w3.org/2000/svg" xmlns:xlink="http://www.w3.org/1999/xlink" overflow="hidden"><defs></defs><g id="图层_2"><g id="图层_1-2"><path d="M195.65 99.17 177.44 155.08 118.65 155.09 100.5 99.19 148.08 64.61 195.65 99.17Z" fill="#1B1B1B"/><path d="M195.65 99.17 148.08 64.61 100.5 99.19 118.65 155.09 177.44 155.08 195.65 99.17Z" stroke="#040000" stroke-miterlimit="10" fill="none"/><path d="M117.48 156.71C117.134 156.465 116.878 156.114 116.75 155.71L98.59 99.8C98.3259 98.977 98.6204 98.0775 99.32 97.57L146.89 63C147.589 62.4961 148.531 62.4961 149.23 63L196.8 97.56C197.496 98.0702 197.786 98.9692 197.52 99.79L179.34 155.7C179.072 156.523 178.305 157.079 177.44 157.08L118.65 157.08C118.231 157.082 117.822 156.953 117.48 156.71ZM102.84 99.94 120.1 153.1 176 153.1 193.29 99.94 148.06 67.08Z" stroke="#040000" stroke-miterlimit="10" fill="#211613"/><path d="M265.09 121.57 294.42 111.91 294.29 162.1 264.9 202.74 246.85 177.72 265.09 121.57Z" stroke="#040000" stroke-miterlimit="10" fill="#ADD8E6" fill-rule="evenodd"/><path d="M293.79 110 264.47 119.66C263.853 119.873 263.38 120.373 263.2 121L245 177.1C244.806 177.704 244.91 178.365 245.28 178.88L263.28 203.88C263.4 204.054 263.549 204.206 263.72 204.33L263.72 204.33C263.8 204.39 263.88 204.43 263.96 204.48 264.218 204.52 264.472 204.58 264.72 204.66 265.441 204.609 266.103 204.243 266.53 203.66 266.613 203.5 266.737 203.365 266.89 203.27L295.89 163.2C296.133 162.858 296.262 162.449 296.26 162.03L296.39 111.85C296.3 110.705 295.299 109.849 294.154 109.939 294.031 109.948 293.909 109.969 293.79 110ZM292.3 161.44 264.9 199.32 249.06 177.32 266.68 123.1 292.41 114.62Z" stroke="#040000" stroke-miterlimit="10" fill="#060001"/><path d="M246.85 177.72 230.59 155.15 238.69 130.26 265.09 121.57 246.85 177.72Z" stroke="#040000" stroke-miterlimit="10" fill="#ADD8E6" fill-rule="evenodd"/><path d="M245.67 179.33C245.497 179.209 245.348 179.056 245.23 178.88L229 156.32C228.63 155.805 228.526 155.144 228.72 154.54L236.81 129.64C237.006 129.036 237.477 128.561 238.08 128.36L264.49 119.67C265.196 119.451 265.965 119.64 266.49 120.16 267.007 120.687 267.191 121.456 266.97 122.16L248.91 177.75C248.903 178.855 248.003 179.745 246.898 179.738 246.482 179.735 246.077 179.603 245.74 179.36 245.718 179.347 245.694 179.337 245.67 179.33ZM232.81 154.8 246.17 173.36 262 124.7 240.29 131.84Z" stroke="#040000" stroke-miterlimit="10" fill="#060001"/><path d="M118.65 155.09 134.29 203.24 161.81 203.23 177.44 155.09 118.65 155.09Z" stroke="#040000" stroke-miterlimit="10" fill="#1B1B1B" fill-rule="evenodd"/><path d="M161.81 203.23 214.79 203.23 230.41 155.1 177.44 155.09 161.81 203.23Z" stroke="#040000" stroke-miterlimit="10" fill="#1B1B1B" fill-rule="evenodd"/><path d="M160.64 204.84C160.471 204.717 160.323 204.569 160.2 204.4 159.826 203.882 159.722 203.217 159.92 202.61L175.55 154.47C175.822 153.651 176.588 153.099 177.45 153.1L230.45 153.1C231.087 153.102 231.684 153.406 232.06 153.92 232.434 154.438 232.538 155.103 232.34 155.71L216.71 203.85C216.442 204.673 215.675 205.229 214.81 205.23L161.81 205.23C161.389 205.226 160.979 205.09 160.64 204.84ZM178.89 157.09 164.56 201.23 213.34 201.23 227.66 157.09Z" stroke="#040000" stroke-miterlimit="10" fill="#060001"/><path d="M134.29 203.24 118.65 155.09 65.72 155.1 81.37 203.23 134.29 203.24Z" stroke="#040000" stroke-miterlimit="10" fill="#1B1B1B" fill-rule="evenodd"/><path d="M80.2 204.85C79.8561 204.605 79.6029 204.254 79.48 203.85L63.83 155.72C63.6288 155.11 63.733 154.44 64.11 153.92 64.4856 153.406 65.0834 153.102 65.72 153.1L118.65 153.1C119.515 153.101 120.282 153.657 120.55 154.48L136.19 202.62C136.532 203.67 135.959 204.799 134.909 205.141 134.709 205.207 134.5 205.24 134.29 205.24L81.37 205.24C80.9487 205.236 80.5392 205.1 80.2 204.85ZM68.47 157.1 82.82 201.24 131.54 201.24 117.2 157.09Z" stroke="#040000" stroke-miterlimit="10" fill="#060001"/><path d="M100.49 99.18 57.66 130.29 65.72 155.1 118.65 155.09 100.49 99.18Z" stroke="#040000" stroke-miterlimit="10" fill="#1B1B1B" fill-rule="evenodd"/><path d="M177.44 155.09 230.41 155.1 238.47 130.29 195.63 99.17 177.44 155.09Z" stroke="#040000" stroke-miterlimit="10" fill="#1B1B1B" fill-rule="evenodd"/><path d="M148.06 64.61 105.31 33.55 84.17 48.92 100.49 99.18 148.06 64.61Z" stroke="#040000" stroke-miterlimit="10" fill="#1B1B1B" fill-rule="evenodd"/><path d="M84.17 48.92 41.34 80.03 57.66 130.29 100.49 99.18 84.17 48.92Z" stroke="#040000" stroke-miterlimit="10" fill="#1B1B1B" fill-rule="evenodd"/><path d="M238.47 130.29 254.8 80.05 211.95 48.91 195.63 99.17 238.47 130.29Z" stroke="#040000" stroke-miterlimit="10" fill="#1B1B1B" fill-rule="evenodd"/><path d="M190.81 33.56 148.06 2.5 105.31 33.55 148.06 64.61 190.81 33.56Z" stroke="#040000" stroke-miterlimit="10" fill="#1B1B1B" fill-rule="evenodd"/><path d="M195.63 99.17 211.95 48.91 190.81 33.56 148.06 64.61 195.63 99.17Z" stroke="#040000" stroke-miterlimit="10" fill="#1B1B1B" fill-rule="evenodd"/><path d="M232.47 226.61C226.98 218.8 221.47 210.98 215.85 203.12L160.73 203.05C166.47 210.87 172.137 218.66 177.73 226.42 195.91 226.493 214.157 226.557 232.47 226.61Z" stroke="#040000" stroke-miterlimit="10" fill="#ADD8E6" fill-rule="evenodd"/><path d="M3.32 163.56C12.9733 176.687 22.5833 189.763 32.15 202.79 35.03 198.67 37.88 194.5 40.8 190.35 43.72 186.2 46.59 182.01 49.52 177.82 46.52 168.66 43.52 159.457 40.52 150.21 37.52 140.963 34.4733 131.63 31.38 122.21 26.55 120.75 21.74 119.21 16.93 117.81 12.12 116.41 7.3 114.91 2.5 113.43 2.77333 130.277 3.04667 146.987 3.32 163.56Z" stroke="#040000" stroke-miterlimit="10" fill="#FF1493" fill-rule="evenodd"/><path d="M31 204.4C30.832 204.28 30.6836 204.135 30.56 203.97 23.0067 193.683 15.4233 183.377 7.81 173.05L1.71 164.75C1.46396 164.416 1.32767 164.014 1.32 163.6L0.5 113.46C0.485642 112.356 1.36936 111.449 2.47383 111.434 2.6791 111.432 2.88355 111.46 3.08 111.52L31.94 120.34C32.564 120.529 33.0566 121.011 33.26 121.63L51.42 177.19C51.6089 177.789 51.5131 178.441 51.16 178.96L42.44 191.49C40.76 193.89 39.0933 196.283 37.44 198.67L33.79 203.93C33.4209 204.455 32.822 204.772 32.18 204.78 31.7563 204.782 31.3432 204.648 31 204.4ZM5.3 162.89 11 170.68C18.0667 180.227 25.1 189.783 32.1 199.35L34.16 196.4C35.82 194 37.4867 191.6 39.16 189.2L47.31 177.5 29.79 123.86 4.54 116.14Z" stroke="#040000" stroke-miterlimit="10" fill="#060001"/><path d="M49.52 177.82C54.8 170.28 60.0933 162.673 65.4 155L57.4 130.18C48.7333 127.513 40.0667 124.847 31.4 122.18 34.46 131.513 37.5067 140.847 40.54 150.18 43.5733 159.513 46.5667 168.727 49.52 177.82Z" stroke="#040000" stroke-miterlimit="10" fill="#FF1493" fill-rule="evenodd"/><path d="M48.35 179.43C48.007 179.182 47.7514 178.832 47.62 178.43L29.47 122.87C29.1206 121.822 29.6867 120.689 30.7346 120.34 31.1453 120.203 31.5893 120.203 32 120.34L58.05 128.34C58.6701 128.532 59.1586 129.013 59.36 129.63L67.36 154.44C67.5534 155.035 67.4572 155.686 67.1 156.2 61.7667 163.827 56.4733 171.42 51.22 178.98 50.5851 179.884 49.3377 180.102 48.4338 179.467 48.4258 179.461 48.4179 179.456 48.41 179.45ZM34.46 125.29 50.18 173.4C54.5067 167.2 58.84 160.97 63.18 154.71L55.81 131.83Z" stroke="#040000" stroke-miterlimit="10" fill="#060001"/><path d="M15.14 71.62C23.86 74.42 32.6033 77.2133 41.37 80L84.67 48.5C75.81 45.76 66.9933 43.0067 58.22 40.24 43.84 50.7467 29.48 61.2067 15.14 71.62Z" stroke="#040000" stroke-miterlimit="10" fill="#FF1493" fill-rule="evenodd"/><path d="M86.64 48.17C86.5153 47.425 85.9815 46.8138 85.26 46.59 76.41 43.86 67.6 41.09 58.82 38.34 58.2158 38.1456 57.5553 38.2495 57.04 38.62L14.16 69.86C13.7049 70.6614 13.5027 71.5816 13.58 72.5 13.5958 72.5556 13.5958 72.6144 13.58 72.67L13.58 72.81C13.6955 72.9721 13.8336 73.1169 13.99 73.24 14.1628 73.3648 14.3556 73.4595 14.56 73.52 21.6067 75.7933 28.6867 78.0533 35.8 80.3L40.8 81.88C41.4027 82.0681 42.0588 81.9606 42.57 81.59L85.87 50.11C86.4705 49.6592 86.7679 48.9099 86.64 48.17ZM41 77.77 37 76.5C31.1467 74.64 25.3133 72.78 19.5 70.92L58.58 42.45C65.7933 44.71 73.0267 46.97 80.28 49.23Z" stroke="#040000" stroke-miterlimit="10" fill="#060001"/><path d="M133.12 204.86C132.781 204.611 132.529 204.261 132.4 203.86L116.76 155.71C116.562 155.103 116.666 154.438 117.04 153.92 117.416 153.406 118.013 153.102 118.65 153.1L177.45 153.1C178.09 153.076 178.696 153.387 179.05 153.92 179.424 154.434 179.532 155.094 179.34 155.7L163.71 203.84C163.443 204.659 162.681 205.215 161.82 205.22L134.3 205.22C133.879 205.227 133.466 205.101 133.12 204.86ZM121.4 157.09 135.75 201.24 160.36 201.24 174.69 157.09Z" stroke="#040000" stroke-miterlimit="10" fill="#060001"/><path d="M64.55 156.71C64.2028 156.469 63.9487 156.116 63.83 155.71L55.77 130.9C55.5038 130.079 55.7941 129.18 56.49 128.67L99.32 97.57C99.8378 97.1963 100.503 97.0922 101.11 97.29 101.729 97.47 102.215 97.952 102.4 98.57L120.55 154.48C120.748 155.087 120.644 155.752 120.27 156.27 119.892 156.787 119.29 157.092 118.65 157.09L65.72 157.09C65.2983 157.099 64.886 156.965 64.55 156.71ZM60 131.05 67.16 153.05 115.9 153.05 99.45 102.41Z" stroke="#040000" stroke-miterlimit="10" fill="#060001"/><path d="M176.27 156.7C176.097 156.582 175.948 156.433 175.83 156.26 175.456 155.742 175.352 155.077 175.55 154.47L193.73 98.56C193.923 97.9521 194.395 97.4728 195 97.27 195.606 97.0785 196.266 97.1861 196.78 97.56L239.62 128.68C240.316 129.19 240.606 130.089 240.34 130.91L232.29 155.71C232.022 156.533 231.255 157.089 230.39 157.09L177.39 157.09C176.986 157.076 176.595 156.94 176.27 156.7ZM196.68 102.4 180.19 153.1 229 153.1 236.16 131.1Z" stroke="#040000" stroke-miterlimit="10" fill="#060001"/><path d="M99.32 100.8C98.984 100.547 98.7329 100.199 98.6 99.8L82.27 49.53C82.0059 48.707 82.3004 47.8075 83 47.3L104.15 31.94C104.849 31.4361 105.791 31.4361 106.49 31.94L149.23 63C150.119 63.6553 150.309 64.9074 149.653 65.7965 149.534 65.9581 149.392 66.1009 149.23 66.22L101.67 100.79C101.154 101.167 100.489 101.275 99.88 101.08 99.6787 101.019 99.4893 100.925 99.32 100.8ZM86.51 49.68 101.51 95.95 144.64 64.61 105.31 36Z" stroke="#040000" stroke-miterlimit="10" fill="#060001"/><path d="M56.49 131.91C56.1513 131.658 55.8968 131.309 55.76 130.91L39.44 80.64C39.1807 79.82 39.4747 78.9261 40.17 78.42L83 47.3C83.5119 46.9227 84.1727 46.8113 84.78 47 85.3946 47.1846 85.8754 47.6654 86.06 48.28L102.39 98.54C102.656 99.3608 102.366 100.26 101.67 100.77L58.83 131.9C58.314 132.277 57.6487 132.385 57.04 132.19 56.8444 132.123 56.6592 132.029 56.49 131.91ZM43.68 80.79 58.68 127.06 98.15 98.42 83.15 52.15Z" stroke="#040000" stroke-miterlimit="10" fill="#060001"/><path d="M237.29 131.91 194.46 100.79C193.76 100.282 193.466 99.383 193.73 98.56L210.05 48.3C210.243 47.686 210.719 47.2022 211.33 47 211.937 46.8022 212.602 46.9063 213.12 47.28L256 78.43C256.696 78.9402 256.986 79.8392 256.72 80.66L240.39 130.91C240.046 131.96 238.917 132.532 237.867 132.188 237.671 132.124 237.487 132.03 237.32 131.91ZM198 98.41 237.44 127.07 252.44 80.81 213 52.14Z" stroke="#040000" stroke-miterlimit="10" fill="#060001"/><path d="M146.89 66.23 104.13 35.16C103.616 34.7844 103.312 34.1866 103.31 33.55 103.314 32.9116 103.622 32.3134 104.14 31.94L146.89 0.88C147.589 0.376089 148.531 0.376089 149.23 0.88L192 31.94C192.517 32.3177 192.822 32.9199 192.82 33.56 192.818 34.1966 192.514 34.7944 192 35.17L149.23 66.22C148.534 66.7269 147.591 66.7309 146.89 66.23ZM108.7 33.55 148.06 62.14 187.41 33.56 148.06 5Z" stroke="#040000" stroke-miterlimit="10" fill="#060001"/><path d="M194.46 100.79 146.89 66.23C145.998 65.5785 145.803 64.3272 146.455 63.4353 146.576 63.2686 146.723 63.1218 146.89 63L189.64 31.94C190.339 31.4361 191.281 31.4361 191.98 31.94L213.12 47.3C213.816 47.8102 214.106 48.7092 213.84 49.53L197.52 99.79C197.324 100.394 196.853 100.869 196.25 101.07 195.643 101.268 194.978 101.164 194.46 100.79ZM151.46 64.61 194.58 95.94 209.58 49.68 190.81 36Z" stroke="#040000" stroke-miterlimit="10" fill="#060001"/><path d="M233.66 224.83C228.31 217.23 222.95 209.61 217.48 201.96 217.102 201.437 216.495 201.127 215.85 201.13L160.73 201.06C159.625 201.067 158.735 201.967 158.742 203.072 158.745 203.488 158.877 203.893 159.12 204.23 164.373 211.41 169.58 218.55 174.74 225.65L176.15 227.59C176.273 227.761 176.421 227.913 176.59 228.04 176.934 228.28 177.341 228.412 177.76 228.42L230.43 228.6C231.139 228.504 231.807 228.213 232.36 227.76 233.035 227.084 233.462 226.199 233.57 225.25 233.564 225.105 233.595 224.96 233.66 224.83ZM178.79 224.43 178 223.3C173.593 217.24 169.16 211.157 164.7 205.05L214.86 205.11C219.527 211.63 224.123 218.127 228.65 224.6Z" stroke="#040000" stroke-miterlimit="10" fill="#060001"/></g></g></svg>