<svg viewBox="0 0 300 150" xmlns="http://www.w3.org/2000/svg" xmlns:xlink="http://www.w3.org/1999/xlink" id="图层_1" overflow="hidden"><defs></defs><path d="M105.59 52.74 105.59 71.32 89.5 80.61 105.59 52.74Z" fill="#404040"/><path d="M105.59 34.16 105.59 52.74 89.5 43.45 105.59 34.16Z" fill="#404040"/><rect x="73.41" y="52.74" width="32.18" height="18.58" fill="#404040" transform="matrix(0.5 -0.866025 0.866025 0.5 -8.97 108.52)"/><path d="M105.59 34.16 89.5 43.45 89.5 24.87 105.59 34.16Z" fill="#404040"/><path d="M105.59 114.92 89.5 124.21 89.5 105.63 105.59 114.92Z" fill="#404040"/><rect x="57.32" y="105.63" width="32.18" height="18.58" fill="#FEFE00"/><rect x="57.32" y="24.87" width="32.18" height="18.58" fill="#404040"/><path d="M89.5 43.45 73.41 71.32 73.41 52.74 89.5 43.45Z" fill="#404040"/><path d="M89.5 24.87 57.32 24.87 73.41 15.57 89.5 24.87Z" fill="#404040"/><path d="M89.5 43.45 73.41 52.74 57.32 43.45 89.5 43.45Z" fill="#404040"/><path d="M89.5 80.61 73.41 89.9 73.41 71.32 89.5 80.61Z" fill="#404040"/><path d="M89.5 105.63 57.32 105.63 73.41 96.33 89.5 105.63Z" fill="#FEFE00"/><path d="M89.5 124.21 73.41 133.5 57.32 124.21 89.5 124.21Z" fill="#404040"/><path d="M90.94 101.07 90.29 102.2C89.9385 102.807 89.1615 103.014 88.5546 102.663 88.553 102.662 88.5515 102.661 88.55 102.66L76.89 95.94C76.28 95.5836 76.0741 94.8003 76.43 94.19L77.08 93.06C77.4327 92.4523 78.2093 92.2426 78.82 92.59L90.48 99.32C91.09 99.6764 91.2959 100.46 90.94 101.07Z" fill="#0000F2"/><path d="M73.41 71.32 73.41 89.9 57.32 80.61 73.41 71.32Z" fill="#404040"/><path d="M73.41 52.74 73.41 71.32 57.32 43.45 73.41 52.74Z" fill="#404040"/><rect x="48.03" y="45.94" width="18.58" height="32.18" fill="#404040" transform="matrix(0.866025 -0.5 0.5 0.866025 -23.34 36.97)"/><path d="M69.73 93 70.38 94.14C70.7339 94.7327 70.5403 95.5002 69.9475 95.854 69.9384 95.8595 69.9292 95.8648 69.92 95.87L58.27 102.6C57.6593 102.947 56.8827 102.738 56.53 102.13L55.87 101C55.5184 100.393 55.7253 99.6161 56.3322 99.2645 56.3348 99.263 56.3374 99.2615 56.34 99.26L68 92.52C68.611 92.181 69.381 92.3946 69.73 93Z" fill="#FFA100"/><path d="M57.32 105.63 57.32 124.21 41.23 114.92 57.32 105.63Z" fill="#FEFE00"/><path d="M57.32 24.87 57.32 43.45 41.23 34.16 57.32 24.87Z" fill="#404040"/><path d="M41.23 52.74 57.32 80.61 41.23 71.32 41.23 52.74Z" fill="#00D800"/><path d="M57.32 43.45 41.23 52.74 41.23 34.16 57.32 43.45Z" fill="#404040"/><path d="M54.47 104.88 42.82 111.61C42.2131 111.962 41.4361 111.755 41.0845 111.148 41.083 111.145 41.0815 111.143 41.08 111.14L40.42 110C40.0716 109.386 40.281 108.607 40.89 108.25L52.54 101.53C53.1503 101.174 53.9336 101.38 54.29 101.99L54.94 103.13C55.2937 103.742 55.0843 104.525 54.4722 104.879 54.4715 104.879 54.4707 104.88 54.47 104.88Z" fill="#FFA100"/><path d="M89.5 24.87 73.41 15.57 57.32 24.87" stroke="#000000" stroke-width="1.29" stroke-linejoin="round" fill="none"/><line x1="105.59" y1="34.15" x2="89.5" y2="24.87" stroke="#000000" stroke-width="1.29" stroke-linejoin="round" fill="none"/><line x1="57.32" y1="24.87" x2="41.23" y2="34.15" stroke="#000000" stroke-width="1.29" stroke-linejoin="round" fill="none"/><rect x="57.32" y="24.87" width="32.18" height="18.58" stroke="#000000" stroke-width="1.29" stroke-linejoin="round" fill="none"/><line x1="89.5" y1="43.45" x2="73.41" y2="52.74" stroke="#000000" stroke-width="1.29" stroke-linejoin="round" fill="none"/><path d="M105.59 52.74 105.59 34.16 89.5 43.45" stroke="#000000" stroke-width="1.29" stroke-linejoin="round" fill="none"/><line x1="73.41" y1="89.9" x2="89.5" y2="80.61" stroke="#000000" stroke-width="1.29" stroke-linejoin="round" fill="none"/><path d="M89.5 80.61 105.59 71.32 105.59 52.74" stroke="#000000" stroke-width="1.29" stroke-linejoin="round" fill="none"/><rect x="73.41" y="52.74" width="32.18" height="18.58" stroke="#000000" stroke-width="1.29" stroke-linejoin="round" fill="none" transform="matrix(0.5 -0.866025 0.866025 0.5 -8.97 108.52)"/><path d="M57.32 43.45 41.23 34.16 41.23 52.74" stroke="#000000" stroke-width="1.29" stroke-linejoin="round" fill="none"/><path d="M73.41 71.32 73.41 52.74 57.32 43.45" stroke="#000000" stroke-width="1.29" stroke-linejoin="round" fill="none"/><path d="M41.23 52.74 41.23 71.32 57.32 80.61" stroke="#000000" stroke-width="1.29" stroke-linejoin="round" fill="none"/><path d="M57.32 80.61 73.41 89.9 73.41 71.32" stroke="#000000" stroke-width="1.29" stroke-linejoin="round" fill="none"/><rect x="48.03" y="45.94" width="18.58" height="32.18" stroke="#000000" stroke-width="1.29" stroke-linejoin="round" fill="none" transform="matrix(0.866025 -0.5 0.5 0.866025 -23.34 36.97)"/><path d="M57.32 105.63 41.23 114.92 57.32 124.21" stroke="#000000" stroke-width="1.29" stroke-linejoin="round" fill="none"/><path d="M57.32 124.21 73.41 133.5 89.5 124.21" stroke="#000000" stroke-width="1.29" stroke-linejoin="round" fill="none"/><path d="M89.5 105.63 73.41 96.33 57.32 105.63" stroke="#000000" stroke-width="1.29" stroke-linejoin="round" fill="none"/><path d="M89.5 124.21 105.59 114.92 89.5 105.63" stroke="#000000" stroke-width="1.29" stroke-linejoin="round" fill="none"/><rect x="57.32" y="105.63" width="32.18" height="18.58" stroke="#000000" stroke-width="1.29" stroke-linejoin="round" fill="none"/><path d="M54.47 104.88 42.82 111.61C42.2131 111.962 41.4361 111.755 41.0845 111.148 41.083 111.145 41.0815 111.143 41.08 111.14L40.42 110C40.0716 109.386 40.281 108.607 40.89 108.25L52.54 101.53C53.1503 101.174 53.9336 101.38 54.29 101.99L54.94 103.13C55.2937 103.742 55.0843 104.525 54.4722 104.879 54.4715 104.879 54.4707 104.88 54.47 104.88Z" stroke="#000000" stroke-width="0.64" stroke-linejoin="round" fill="none"/><path d="M69.92 95.86 58.27 102.6C57.6593 102.947 56.8827 102.738 56.53 102.13L55.87 101C55.5184 100.393 55.7253 99.6161 56.3322 99.2645 56.3348 99.263 56.3374 99.2615 56.34 99.26L68 92.52C68.6107 92.1726 69.3873 92.3823 69.74 92.99L70.39 94.13C70.7416 94.7241 70.545 95.4908 69.9508 95.8423 69.9406 95.8484 69.9304 95.8543 69.92 95.86Z" stroke="#000000" stroke-width="0.64" stroke-linejoin="round" fill="none"/><path d="M78.82 92.59 90.48 99.32C91.09 99.6764 91.2959 100.46 90.94 101.07L90.29 102.2C89.9385 102.807 89.1615 103.014 88.5546 102.663 88.553 102.662 88.5515 102.661 88.55 102.66L76.89 95.94C76.28 95.5836 76.0741 94.8003 76.43 94.19L77.08 93.06C77.4327 92.4523 78.2093 92.2426 78.82 92.59Z" stroke="#000000" stroke-width="0.64" stroke-linejoin="round" fill="none"/><path d="M247 104.6C246.207 104.135 245.935 103.119 246.39 102.32L246.63 101.91C247.095 101.123 248.103 100.852 248.9 101.3L259.67 107.52C260.462 107.981 260.734 108.994 260.28 109.79L260.04 110.2C259.583 110.995 258.568 111.269 257.774 110.812 257.772 110.811 257.771 110.811 257.77 110.81Z" fill="#0000F2"/><path d="M259.58 53.15 259.58 71.44 243.74 80.58 259.58 53.15Z" fill="#EE0000"/><path d="M259.58 34.86 259.58 53.15 243.74 44.01 259.58 34.86Z" fill="#404040"/><rect x="227.91" y="53.15" width="31.67" height="18.29" fill="#404040" transform="matrix(0.5 -0.866025 0.866025 0.5 67.92 242.23)"/><path d="M259.58 34.86 243.74 44.01 243.74 25.72 259.58 34.86Z" fill="#404040"/><path d="M259.58 114.34 243.74 123.49 243.74 105.2 259.58 114.34Z" fill="#FEFE00"/><rect x="212.07" y="105.2" width="31.67" height="18.29" fill="#FEFE00"/><rect x="212.07" y="25.72" width="31.67" height="18.29" fill="#404040"/><path d="M243.74 44.01 227.91 71.44 227.91 53.15 243.74 44.01Z" fill="#404040"/><path d="M243.74 25.72 212.07 25.72 227.91 16.57 243.74 25.72Z" fill="#404040"/><path d="M243.74 44.01 227.91 53.15 212.07 44.01 243.74 44.01Z" fill="#404040"/><path d="M243.74 80.58 227.91 89.72 227.91 71.44 243.74 80.58Z" fill="#EE0000"/><path d="M243.74 105.2 212.07 105.2 227.91 96.05 243.74 105.2Z" fill="#FEFE00"/><path d="M243.74 123.49 227.91 132.63 212.07 123.49 243.74 123.49Z" fill="#FEFE00"/><path d="M244.35 98.79C245.145 99.2468 245.419 100.262 244.962 101.056 244.961 101.058 244.961 101.059 244.96 101.06L244.73 101.47C244.268 102.268 243.248 102.541 242.45 102.08L231.69 95.86C230.897 95.4107 230.619 94.4038 231.068 93.611 231.072 93.604 231.076 93.597 231.08 93.59L231.32 93.18C231.777 92.3851 232.792 92.1111 233.586 92.5679 233.588 92.5686 233.589 92.5693 233.59 92.57Z" fill="#0000F2"/><path d="M227.91 71.44 227.91 89.72 212.07 80.58 227.91 71.44Z" fill="#00D800"/><path d="M227.91 53.15 227.91 71.44 212.07 44.01 227.91 53.15Z" fill="#404040"/><rect x="202.93" y="46.46" width="18.29" height="31.67" fill="#404040" transform="matrix(0.866025 -0.5 0.5 0.866025 -2.73 114.38)"/><path d="M212.07 105.2 212.07 123.49 196.23 114.34 212.07 105.2Z" fill="#FEFE00"/><path d="M212.07 25.72 212.07 44.01 196.23 34.86 212.07 25.72Z" fill="#404040"/><path d="M196.23 53.15 212.07 80.58 196.23 71.44 196.23 53.15Z" fill="#00D800"/><path d="M212.07 44.01 196.23 53.15 196.23 34.86 212.07 44.01Z" fill="#404040"/><path d="M213.36 102C212.568 102.461 211.551 102.193 211.09 101.4 211.09 101.4 211.09 101.4 211.09 101.4L210.85 100.98C210.391 100.186 210.663 99.1709 211.456 98.7121 211.458 98.7114 211.459 98.7107 211.46 98.71L222.22 92.5C223.005 92.0368 224.016 92.2975 224.48 93.0822 224.483 93.0881 224.487 93.094 224.49 93.1L224.73 93.51C225.191 94.3081 224.918 95.3284 224.12 95.79Z" fill="#FFA100"/><path d="M198.15 110.88C197.369 111.339 196.364 111.078 195.905 110.297 195.9 110.288 195.895 110.279 195.89 110.27L195.65 109.86C195.189 109.068 195.457 108.051 196.25 107.59 196.25 107.59 196.25 107.59 196.25 107.59L207 101.37C207.794 100.911 208.809 101.183 209.268 101.976 209.269 101.978 209.269 101.979 209.27 101.98L209.5 102.39C209.965 103.18 209.702 104.198 208.912 104.663 208.908 104.665 208.904 104.668 208.9 104.67Z" fill="#FFA100"/><path d="M243.74 25.72 227.91 16.57 212.07 25.72" stroke="#000000" stroke-width="1.27" stroke-linejoin="round" fill="none"/><line x1="259.58" y1="34.86" x2="243.74" y2="25.72" stroke="#000000" stroke-width="1.27" stroke-linejoin="round" fill="none"/><line x1="212.07" y1="25.72" x2="196.23" y2="34.86" stroke="#000000" stroke-width="1.27" stroke-linejoin="round" fill="none"/><rect x="212.07" y="25.72" width="31.67" height="18.29" stroke="#000000" stroke-width="1.27" stroke-linejoin="round" fill="none"/><line x1="243.74" y1="44.01" x2="227.91" y2="53.15" stroke="#000000" stroke-width="1.27" stroke-linejoin="round" fill="none"/><path d="M259.58 53.15 259.58 34.86 243.74 44.01" stroke="#000000" stroke-width="1.27" stroke-linejoin="round" fill="none"/><line x1="227.91" y1="89.72" x2="243.74" y2="80.58" stroke="#000000" stroke-width="1.27" stroke-linejoin="round" fill="none"/><path d="M243.74 80.58 259.58 71.44 259.58 53.15" stroke="#000000" stroke-width="1.27" stroke-linejoin="round" fill="none"/><rect x="227.91" y="53.15" width="31.67" height="18.29" stroke="#000000" stroke-width="1.27" stroke-linejoin="round" fill="none" transform="matrix(0.5 -0.866025 0.866025 0.5 67.92 242.23)"/><path d="M212.07 44.01 196.23 34.86 196.23 53.15" stroke="#000000" stroke-width="1.27" stroke-linejoin="round" fill="none"/><path d="M227.91 71.44 227.91 53.15 212.07 44.01" stroke="#000000" stroke-width="1.27" stroke-linejoin="round" fill="none"/><path d="M196.23 53.15 196.23 71.44 212.07 80.58" stroke="#000000" stroke-width="1.27" stroke-linejoin="round" fill="none"/><path d="M212.07 80.58 227.91 89.72 227.91 71.44" stroke="#000000" stroke-width="1.27" stroke-linejoin="round" fill="none"/><rect x="202.93" y="46.46" width="18.29" height="31.67" stroke="#000000" stroke-width="1.27" stroke-linejoin="round" fill="none" transform="matrix(0.866025 -0.5 0.5 0.866025 -2.73 114.38)"/><path d="M212.07 105.2 196.23 114.34 212.07 123.49" stroke="#000000" stroke-width="1.27" stroke-linejoin="round" fill="none"/><path d="M212.07 123.49 227.91 132.63 243.74 123.49" stroke="#000000" stroke-width="1.27" stroke-linejoin="round" fill="none"/><path d="M243.74 105.2 227.91 96.05 212.07 105.2" stroke="#000000" stroke-width="1.27" stroke-linejoin="round" fill="none"/><path d="M243.74 123.49 259.58 114.34 243.74 105.2" stroke="#000000" stroke-width="1.27" stroke-linejoin="round" fill="none"/><rect x="212.07" y="105.2" width="31.67" height="18.29" stroke="#000000" stroke-width="1.27" stroke-linejoin="round" fill="none"/><path d="M208.92 104.67 198.15 110.88C197.369 111.339 196.364 111.078 195.905 110.297 195.9 110.288 195.895 110.279 195.89 110.27L195.65 109.86C195.189 109.068 195.457 108.051 196.25 107.59 196.25 107.59 196.25 107.59 196.25 107.59L207 101.37C207.794 100.911 208.809 101.183 209.268 101.976 209.269 101.978 209.269 101.979 209.27 101.98L209.5 102.39C209.97 103.177 209.713 104.196 208.926 104.666 208.924 104.668 208.922 104.669 208.92 104.67Z" stroke="#000000" stroke-width="0.63" stroke-linejoin="round" fill="none"/><path d="M224.12 95.8 213.36 102C212.568 102.461 211.551 102.193 211.09 101.4 211.09 101.4 211.09 101.4 211.09 101.4L210.85 100.98C210.391 100.186 210.663 99.1709 211.456 98.7121 211.458 98.7114 211.459 98.7107 211.46 98.71L222.22 92.5C223.005 92.0368 224.016 92.2975 224.48 93.0822 224.483 93.0881 224.487 93.094 224.49 93.1L224.73 93.51C225.195 94.3065 224.926 95.3292 224.13 95.7942 224.127 95.7962 224.123 95.7981 224.12 95.8Z" stroke="#000000" stroke-width="0.63" stroke-linejoin="round" fill="none"/><path d="M248.87 101.3 259.64 107.52C260.432 107.981 260.704 108.994 260.25 109.79L260.01 110.2C259.553 110.995 258.538 111.269 257.744 110.812 257.742 110.811 257.741 110.811 257.74 110.81L247 104.6C246.207 104.135 245.935 103.119 246.39 102.32L246.63 101.91C247.094 101.14 248.08 100.872 248.87 101.3Z" stroke="#000000" stroke-width="0.63" stroke-linejoin="round" fill="none"/><path d="M233.59 92.57 244.35 98.79C245.145 99.2468 245.419 100.262 244.962 101.056 244.961 101.058 244.961 101.059 244.96 101.06L244.73 101.47C244.268 102.268 243.248 102.541 242.45 102.08L231.69 95.86C230.897 95.4107 230.619 94.4038 231.068 93.611 231.072 93.604 231.076 93.597 231.08 93.59L231.32 93.18C231.777 92.3851 232.792 92.1111 233.586 92.5679 233.588 92.5686 233.589 92.5693 233.59 92.57Z" stroke="#000000" stroke-width="0.63" stroke-linejoin="round" fill="none"/><path d="M157 97.1 180.16 79.2C180.621 78.8394 180.703 78.1732 180.342 77.712 180.289 77.6442 180.228 77.5831 180.16 77.53L157 59.63C156.533 59.2765 155.869 59.3682 155.515 59.8348 155.378 60.0149 155.303 60.234 155.3 60.46L155.3 69.94 131 69.94C130.448 69.939 129.999 70.3859 129.998 70.9382 129.998 70.9588 129.999 70.9794 130 71L130 85.74C129.972 86.2916 130.397 86.7611 130.949 86.7887 130.966 86.7896 130.983 86.79 131 86.79L155.22 86.79 155.22 96.27C155.228 96.8554 155.709 97.3232 156.295 97.315 156.521 97.3118 156.74 97.2365 156.92 97.1Z"/></svg>