<svg viewBox="0 0 300 150" xmlns="http://www.w3.org/2000/svg" xmlns:xlink="http://www.w3.org/1999/xlink" id="图层_1" overflow="hidden"><defs></defs><path d="M153 97.1 176.16 79.2C176.621 78.8394 176.703 78.1732 176.342 77.712 176.289 77.6442 176.228 77.5831 176.16 77.53L153 59.63C152.533 59.2765 151.869 59.3682 151.515 59.8348 151.378 60.0149 151.303 60.234 151.3 60.46L151.3 69.94 127 69.94C126.448 69.94 126 70.3877 126 70.94L126 85.74C125.972 86.2916 126.397 86.7611 126.949 86.7887 126.966 86.7896 126.983 86.79 127 86.79L151.22 86.79 151.22 96.27C151.228 96.8554 151.709 97.3232 152.295 97.315 152.521 97.3118 152.74 97.2365 152.92 97.1Z"/><text font-family="Arial-BoldMT,Arial" font-weight="700" font-size="22.53" transform="translate(9.12 128.02)"></text><path d="M104.44 119.72 104.44 24.46 9.18 24.46 9.18 119.72" fill="none"/><path d="M104.44 119.72 104.44 24.46 9.18 24.46 9.18 119.72" fill="none"/><path d="M77.36 66.99 109.16 38.63 104.86 95.45 75.78 129.92 77.36 66.99Z" stroke="#000000" stroke-width="7.11" stroke-linejoin="round"/><path d="M51.2 25.89 109.16 38.63 77.36 66.99 12.93 49.49 51.2 25.89Z" stroke="#000000" stroke-width="7.11" stroke-linejoin="round"/><path d="M12.93 49.49 77.36 66.99 75.78 129.92 17.81 108.78 12.93 49.49Z" stroke="#000000" stroke-width="7.11" stroke-linejoin="round"/><path d="M79.16 67.42 89.83 57.9 88.96 77.56 78.65 87.85 79.16 67.42Z" fill="#404040"/><path d="M91.59 56.25 101.12 47.75 99.96 66.69 90.72 75.91 91.59 56.25Z" fill="#404040"/><path d="M102.69 46.27 111.25 38.64 109.87 56.89 101.53 65.2 102.69 46.27Z" fill="#404040"/><path d="M78.53 91.26 88.84 80.97 88.03 99.25 78.06 110.17 78.53 91.26Z" fill="#00D800"/><path d="M90.54 79.2 99.79 69.98 98.71 87.65 89.73 97.48 90.54 79.2Z" fill="#00D800"/><path d="M101.32 68.38 109.65 60.07 108.36 77.16 100.24 86.05 101.32 68.38Z" fill="#00D800"/><path d="M77.95 113.35 87.92 102.42 87.17 119.46 77.51 130.9 77.95 113.35Z" fill="#00D800"/><path d="M89.57 100.55 98.55 90.72 97.54 107.25 88.81 117.58 89.57 100.55Z" fill="#00D800"/><path d="M100.04 89.02 108.15 80.13 106.94 96.17 99.03 105.55 100.04 89.02Z" fill="#00D800"/><path d="M51.05 23.71 67.55 27.34 57.68 34.13 40.65 30.13 51.05 23.71Z" fill="#404040"/><path d="M70.6 28.04 88.04 31.87 78.78 39.06 60.73 34.82 70.6 28.04Z" fill="#404040"/><path d="M91.27 32.61 109.74 36.67 101.18 44.3 82.01 39.8 91.27 32.61Z" fill="#404040"/><path d="M38.77 31.36 55.8 35.36 44.88 42.87 27.29 38.44 38.77 31.36Z" fill="#404040"/><path d="M58.95 36.13 77 40.37 66.73 48.34 48.03 43.63 58.95 36.13Z" fill="#404040"/><path d="M80.35 41.18 99.53 45.68 90 54.18 70.08 49.16 80.35 41.18Z" fill="#404040"/><path d="M25.21 39.8 42.79 44.23 30.64 52.58 12.48 47.65 25.21 39.8Z" fill="#404040"/><path d="M46.05 45.08 64.75 49.79 53.28 58.7 33.9 53.44 46.05 45.08Z" fill="#404040"/><path d="M68.23 50.7 88.15 55.72 77.48 65.24 56.76 59.61 68.23 50.7Z" fill="#404040"/><path d="M11.45 50.06 29.6 55 30.57 74.54 13.02 69.19 11.45 50.06Z" fill="#404040"/><path d="M32.85 55.94 52.23 61.2 52.51 81.18 33.82 75.48 32.85 55.94Z" fill="#404040"/><path d="M55.7 62.2 76.42 67.83 75.91 88.26 55.98 82.18 55.7 62.2Z" fill="#404040"/><path d="M13.24 72.48 30.79 77.83 31.69 96.01 14.71 90.31 13.24 72.48Z" fill="#EE0000"/><path d="M33.93 78.84 52.62 84.54 52.87 103.08 34.83 97.02 33.93 78.84Z" fill="#404040"/><path d="M55.96 85.61 75.89 91.69 75.42 110.6 56.22 104.15 55.96 85.61Z" fill="#EE0000"/><path d="M14.91 93.38 31.89 99.08 32.73 116.04 16.28 110.04 14.91 93.38Z" fill="#EE0000"/><path d="M34.93 100.14 52.97 106.21 53.21 123.46 35.77 117.1 34.93 100.14Z" fill="#404040"/><path d="M56.2 107.34 75.4 113.79 74.96 131.34 56.44 124.59 56.2 107.34Z" fill="#EE0000"/><path d="M280.72 119.31 280.72 24.04 185.46 24.04 185.46 119.31" fill="none"/><path d="M280.72 119.31 280.72 24.04 185.46 24.04 185.46 119.31" fill="none"/><path d="M253.64 66.58 285.44 38.22 281.13 95.03 252.06 129.5 253.64 66.58Z" stroke="#000000" stroke-width="7.11" stroke-linejoin="round"/><path d="M227.48 25.47 285.44 38.22 253.64 66.58 189.21 49.07 227.48 25.47Z" stroke="#000000" stroke-width="7.11" stroke-linejoin="round"/><path d="M189.21 49.07 253.64 66.58 252.06 129.5 194.09 108.36 189.21 49.07Z" stroke="#000000" stroke-width="7.11" stroke-linejoin="round"/><path d="M255.44 67 266.11 57.48 265.24 77.14 254.93 87.43 255.44 67Z" fill="#00D800"/><path d="M267.87 55.83 277.39 47.34 276.24 66.27 267 75.49 267.87 55.83Z" fill="#404040"/><path d="M278.97 45.85 287.53 38.22 286.15 56.47 277.81 64.78 278.97 45.85Z" fill="#00D800"/><path d="M254.81 90.84 265.12 80.56 264.31 98.83 254.34 109.76 254.81 90.84Z" fill="#00D800"/><path d="M266.82 78.78 276.07 69.56 274.99 87.23 266.01 97.06 266.82 78.78Z" fill="#00D800"/><path d="M277.6 67.96 285.93 59.65 284.64 76.74 276.52 85.63 277.6 67.96Z" fill="#00D800"/><path d="M254.23 112.93 264.2 102.01 263.44 119.04 253.79 130.49 254.23 112.93Z" fill="#00D800"/><path d="M265.85 100.13 274.82 90.3 273.81 106.83 265.09 117.17 265.85 100.13Z" fill="#00D800"/><path d="M276.31 88.61 284.43 79.72 283.22 95.75 275.31 105.13 276.31 88.61Z" fill="#00D800"/><path d="M227.33 23.3 243.83 26.92 233.96 33.71 216.93 29.71 227.33 23.3Z" fill="#FEFE00"/><path d="M246.88 27.62 264.32 31.45 255.06 38.64 237.01 34.41 246.88 27.62Z" fill="#404040"/><path d="M267.55 32.19 286.02 36.25 277.46 43.88 258.29 39.38 267.55 32.19Z" fill="#FEFE00"/><path d="M215.05 30.94 232.08 34.94 221.16 42.45 203.57 38.02 215.05 30.94Z" fill="#404040"/><path d="M235.23 35.71 253.28 39.95 243.01 47.93 224.31 43.22 235.23 35.71Z" fill="#404040"/><path d="M256.63 40.76 275.81 45.27 266.28 53.76 246.36 48.74 256.63 40.76Z" fill="#404040"/><path d="M201.49 39.38 219.07 43.81 206.92 52.16 188.76 47.23 201.49 39.38Z" fill="#FEFE00"/><path d="M222.33 44.66 241.03 49.38 229.56 58.28 210.18 53.02 222.33 44.66Z" fill="#404040"/><path d="M244.51 50.29 264.43 55.31 253.76 64.83 233.04 59.2 244.51 50.29Z" fill="#FEFE00"/><path d="M187.72 49.65 205.88 54.58 206.85 74.12 189.3 68.77 187.72 49.65Z" fill="#EE0000"/><path d="M209.13 55.52 228.51 60.78 228.79 80.76 210.1 75.06 209.13 55.52Z" fill="#404040"/><path d="M231.98 61.78 252.7 67.41 252.19 87.84 232.26 81.76 231.98 61.78Z" fill="#EE0000"/><path d="M189.52 72.06 207.07 77.41 207.97 95.59 190.99 89.89 189.52 72.06Z" fill="#EE0000"/><path d="M210.21 78.42 228.9 84.12 229.15 102.66 211.11 96.6 210.21 78.42Z" fill="#404040"/><path d="M232.24 85.19 252.17 91.27 251.7 110.18 232.5 103.73 232.24 85.19Z" fill="#EE0000"/><path d="M191.19 92.96 208.17 98.66 209.01 115.62 192.56 109.62 191.19 92.96Z" fill="#EE0000"/><path d="M211.21 99.73 229.25 105.79 229.49 123.04 212.05 116.68 211.21 99.73Z" fill="#404040"/><path d="M232.48 106.92 251.68 113.37 251.24 130.93 232.72 124.17 232.48 106.92Z" fill="#EE0000"/></svg>