<svg viewBox="0 0 300 150" xmlns="http://www.w3.org/2000/svg" xmlns:xlink="http://www.w3.org/1999/xlink" id="图层_1" overflow="hidden"><defs></defs><path d="M190.91 38.37 265.19 38.37 265.19 112.64 190.91 112.64 190.91 38.37Z" stroke="#000000" stroke-width="7.11" stroke-linejoin="round"/><path d="M190.52 37.98 212.91 37.98 212.91 60.36 190.52 60.36 190.52 37.98Z" fill="#FEFE00"/><path d="M216.86 37.98 239.25 37.98 239.25 60.36 216.86 60.36 216.86 37.98Z" fill="#FEFE00"/><path d="M243.19 37.98 265.58 37.98 265.58 60.36 243.19 60.36 243.19 37.98Z" fill="#FEFE00"/><path d="M190.52 64.31 212.91 64.31 212.91 86.7 190.52 86.7 190.52 64.31Z" fill="#FEFE00"/><path d="M216.86 64.31 239.25 64.31 239.25 86.7 216.86 86.7 216.86 64.31Z" fill="#FEFE00"/><path d="M243.19 64.31 265.58 64.31 265.58 86.7 243.19 86.7 243.19 64.31Z" fill="#FEFE00"/><path d="M190.52 90.65 212.91 90.65 212.91 113.04 190.52 113.04 190.52 90.65Z" fill="#FEFE00"/><path d="M216.86 90.65 239.25 90.65 239.25 113.04 216.86 113.04 216.86 90.65Z" fill="#FEFE00"/><path d="M243.19 90.65 265.58 90.65 265.58 113.04 243.19 113.04 243.19 90.65Z" fill="#FEFE00"/><path d="M189.36 114.93 214.12 114.93 214.97 126.59 191.92 126.59 189.36 114.93Z" stroke="#000000" stroke-width="1.42" stroke-linejoin="round" fill="#EE0000"/><path d="M215.65 114.93 240.4 114.93 239.55 126.59 216.5 126.59 215.65 114.93Z" stroke="#000000" stroke-width="1.42" stroke-linejoin="round" fill="#EE0000"/><path d="M241.93 114.93 266.69 114.93 264.12 126.59 241.07 126.59 241.93 114.93Z" stroke="#000000" stroke-width="1.42" stroke-linejoin="round" fill="#EE0000"/><path d="M188.63 36.82 188.63 61.58 176.97 62.43 176.97 39.38 188.63 36.82Z" stroke="#000000" stroke-width="1.42" stroke-linejoin="round" fill="#0000F2"/><path d="M188.63 63.1 188.63 87.86 176.97 87.01 176.97 63.96 188.63 63.1Z" stroke="#000000" stroke-width="1.42" stroke-linejoin="round" fill="#0000F2"/><path d="M188.63 89.39 188.63 114.14 176.97 111.58 176.97 88.53 188.63 89.39Z" stroke="#000000" stroke-width="1.42" stroke-linejoin="round" fill="#0000F2"/><path d="M266.74 36.08 241.98 36.08 241.13 24.42 264.18 24.42 266.74 36.08Z" stroke="#000000" stroke-width="1.42" stroke-linejoin="round" fill="#FFA100"/><path d="M240.46 36.08 215.7 36.08 216.55 24.42 239.6 24.42 240.46 36.08Z" stroke="#000000" stroke-width="1.42" stroke-linejoin="round" fill="#FFA100"/><path d="M214.17 36.08 189.42 36.08 191.98 24.42 215.03 24.42 214.17 36.08Z" stroke="#000000" stroke-width="1.42" stroke-linejoin="round" fill="#FFA100"/><path d="M267.48 114.2 267.48 89.44 279.14 88.59 279.14 111.64 267.48 114.2Z" stroke="#000000" stroke-width="1.42" stroke-linejoin="round" fill="#00D800"/><path d="M267.48 87.91 267.48 63.16 279.14 64.01 279.14 87.06 267.48 87.91Z" stroke="#000000" stroke-width="1.42" stroke-linejoin="round" fill="#00D800"/><path d="M267.48 61.63 267.48 36.87 279.14 39.44 279.14 62.48 267.48 61.63Z" stroke="#000000" stroke-width="1.42" stroke-linejoin="round" fill="#00D800"/><path d="M144.3 93.88 167.46 76C167.921 75.6394 168.003 74.9732 167.642 74.512 167.589 74.4442 167.528 74.3831 167.46 74.33L144.3 56.41C143.833 56.0565 143.169 56.1482 142.815 56.6148 142.678 56.7949 142.603 57.014 142.6 57.24L142.6 66.72 118.38 66.72C117.828 66.72 117.38 67.1677 117.38 67.72L117.38 82.52C117.38 83.0723 117.828 83.52 118.38 83.52L142.6 83.52 142.6 93C142.608 93.5854 143.089 94.0532 143.675 94.045 143.901 94.0418 144.12 93.9665 144.3 93.83Z"/><path d="M23.94 40.04 98.21 40.04 98.21 114.31 23.94 114.31 23.94 40.04Z" id="_1" stroke="#000000" stroke-width="7.11" stroke-linejoin="round"/><path d="M23.54 39.65 45.93 39.65 45.93 62.03 23.54 62.03 23.54 39.65Z" id="_1-2" fill="#404040"/><path d="M49.88 39.65 72.27 39.65 72.27 62.03 49.88 62.03 49.88 39.65Z" id="_2" fill="#FEFE00"/><path d="M76.22 39.65 98.61 39.65 98.61 62.03 76.22 62.03 76.22 39.65Z" id="_3" fill="#404040"/><path d="M23.54 65.98 45.93 65.98 45.93 88.37 23.54 88.37 23.54 65.98Z" id="_4" fill="#FEFE00"/><path d="M49.88 65.98 72.27 65.98 72.27 88.37 49.88 88.37 49.88 65.98Z" id="_5" fill="#FEFE00"/><path d="M76.22 65.98 98.61 65.98 98.61 88.37 76.22 88.37 76.22 65.98Z" id="_6" fill="#FEFE00"/><path d="M23.54 92.32 45.93 92.32 45.93 114.71 23.54 114.71 23.54 92.32Z" id="_7" fill="#404040"/><path d="M49.88 92.32 72.27 92.32 72.27 114.71 49.88 114.71 49.88 92.32Z" id="_8" fill="#FEFE00"/><path d="M76.22 92.32 98.61 92.32 98.61 114.71 76.22 114.71 76.22 92.32Z" id="_9" fill="#404040"/></svg>