<svg viewBox="0 0 328.55 328.55" xmlns="http://www.w3.org/2000/svg" xmlns:xlink="http://www.w3.org/1999/xlink" overflow="hidden"><defs></defs><g id="图层_2"><g id="图层_1-2"><path d="M207.06 323.98 164.27 164.27 323.98 207.06 323.98 323.98 207.06 323.98Z" fill="#FFFFFF"/><path d="M323.98 121.47 164.27 164.27 207.06 4.56 323.98 4.56 323.98 121.47Z" fill="#1B1B1B"/><path d="M4.56 121.47 4.56 4.56 121.48 4.56 164.27 164.27 4.56 121.47Z" fill="#FFFFFF"/><path d="M4.56 207.06 164.27 164.27 121.48 323.98 4.56 323.98 4.56 207.06Z" fill="#FFFFFF"/><path d="M164.27 164.27 207.06 4.56 323.98 4.56 323.98 121.47 164.27 164.27Z" stroke="#000000" stroke-width="9.13" stroke-linejoin="round" fill="none"/><path d="M164.27 164.27 323.98 207.06 323.98 323.98 207.06 323.98 164.27 164.27Z" stroke="#000000" stroke-width="9.13" stroke-linejoin="round" fill="none"/><path d="M164.27 164.27 121.48 323.98 4.56 323.98 4.56 207.06 164.27 164.27Z" stroke="#000000" stroke-width="9.13" stroke-linejoin="round" fill="none"/><path d="M164.27 164.27 4.56 121.47 4.56 4.56 121.48 4.56 164.27 164.27Z" stroke="#000000" stroke-width="9.13" stroke-linejoin="round" fill="none"/></g></g></svg>