<svg viewBox="0 0 45.81 45.82" xmlns="http://www.w3.org/2000/svg" xmlns:xlink="http://www.w3.org/1999/xlink" overflow="hidden"><defs></defs><g id="Layer_2"><g id="图层_1"><rect x="6.48" y="6.51" width="32.86" height="32.83"/><rect x="6.48" y="6.48" width="32.83" height="32.83" stroke="#000000" stroke-width="3.14" stroke-linejoin="round" fill="none"/><rect x="6.29" y="6.29" width="9.91" height="9.91" fill="#404040"/><rect x="17.96" y="6.29" width="9.87" height="9.91" fill="#404040"/><rect x="29.6" y="6.29" width="9.91" height="9.91" fill="#404040"/><rect x="6.29" y="17.96" width="9.91" height="9.91" fill="#404040"/><rect x="17.96" y="17.96" width="9.87" height="9.91" fill="#FEFE00"/><rect x="29.6" y="17.96" width="9.91" height="9.91" fill="#404040"/><rect x="6.29" y="29.62" width="9.91" height="9.88" fill="#404040"/><rect x="17.96" y="29.62" width="9.87" height="9.88" fill="#404040"/><rect x="29.6" y="29.62" width="9.91" height="9.88" fill="#404040"/><path d="M17.8 45.5 17.42 40.34 28.37 40.34 27.99 45.5 17.8 45.5Z" fill="#FEFE00"/><path d="M17.42 40.34 28.36 40.34 27.99 45.5 17.8 45.5 17.42 40.34Z" stroke="#000000" stroke-width="0.63" stroke-linejoin="round" fill="none"/><path d="M0.31 28.01 0.31 17.79 5.47 17.41 5.47 28.38 0.31 28.01Z" fill="#FEFE00"/><path d="M5.47 17.42 5.47 28.37 0.31 27.99 0.31 17.8 5.47 17.42Z" stroke="#000000" stroke-width="0.63" stroke-linejoin="round" fill="none"/><path d="M17.43 5.48 17.84 0.32 28.03 0.32 28.38 5.48 17.43 5.48Z" fill="#FEFE00"/><path d="M28.39 5.47 17.45 5.47 17.82 0.31 28.01 0.31 28.39 5.47Z" stroke="#000000" stroke-width="0.63" stroke-linejoin="round" fill="none"/><path d="M40.33 17.45 45.52 17.82 45.52 28.02 40.33 28.39 40.33 17.45Z" fill="#FEFE00"/><path d="M40.34 28.39 40.34 17.45 45.5 17.83 45.5 28.02 40.34 28.39Z" stroke="#000000" stroke-width="0.63" stroke-linejoin="round" fill="none"/></g></g></svg>