<svg viewBox="0 0 202 117.47" xmlns="http://www.w3.org/2000/svg" xmlns:xlink="http://www.w3.org/1999/xlink" overflow="hidden"><defs></defs><g id="图层_2"><g id="图层_1-2"><path d="M101 1 126 15.43 76 15.43 101 1Z" stroke="#000000" stroke-width="2" stroke-linejoin="round" fill="#404040"/><path d="M51 29.87 76 15.43 76 44.3 51 29.87Z" stroke="#000000" stroke-width="2" stroke-linejoin="round" fill="#404040"/><path d="M151 29.87 126 44.3 126 15.43 151 29.87Z" stroke="#000000" stroke-width="2" stroke-linejoin="round" fill="#404040"/><path d="M101 58.73 76 44.3 126 44.3 101 58.73Z" stroke="#000000" stroke-width="2" stroke-linejoin="round" fill="#404040"/><path d="M126 44.3 76 44.3 76 15.43 126 15.43 126 44.3Z" stroke="#000000" stroke-width="2" stroke-linejoin="round" fill="#404040"/><path d="M101 58.73 101 87.6 76 44.3 101 58.73Z" stroke="#000000" stroke-width="2" stroke-linejoin="round" fill="#404040"/><path d="M51 29.87 76 44.3 51 58.73 51 29.87Z" stroke="#000000" stroke-width="2" stroke-linejoin="round" fill="#404040"/><path d="M101 116.47 76 102.04 101 87.6 101 116.47Z" stroke="#000000" stroke-width="2" stroke-linejoin="round" fill="#404040"/><path d="M51 87.6 51 58.73 76 102.04 51 87.6Z" stroke="#000000" stroke-width="2" stroke-linejoin="round" fill="#404040"/><path d="M76 44.3 101 87.6 76 102.04 51 58.73 76 44.3Z" stroke="#000000" stroke-width="2" stroke-linejoin="round" fill="#404040"/><path d="M151 29.87 151 58.73 126 44.3 151 29.87Z" stroke="#000000" stroke-width="2" stroke-linejoin="round" fill="#FF0000"/><path d="M101 58.73 126 44.3 101 87.6 101 58.73Z" stroke="#000000" stroke-width="2" stroke-linejoin="round" fill="#404040"/><path d="M151 87.6 126 102.04 151 58.73 151 87.6Z" stroke="#000000" stroke-width="2" stroke-linejoin="round" fill="#404040"/><path d="M101 116.47 101 87.6 126 102.04 101 116.47Z" stroke="#000000" stroke-width="2" stroke-linejoin="round" fill="#404040"/><path d="M101 87.6 126 44.3 151 58.73 126 102.04 101 87.6Z" stroke="#000000" stroke-width="2" stroke-linejoin="round" fill="#404040"/><path d="M201 1 201 29.87 176 15.43 201 1Z" stroke="#000000" stroke-width="2" stroke-linejoin="round" fill="#404040"/><path d="M151 29.87 176 15.43 151 58.73 151 29.87Z" stroke="#000000" stroke-width="2" stroke-linejoin="round" fill="#404040"/><path d="M201 58.73 176 73.17 201 29.87 201 58.73Z" stroke="#000000" stroke-width="2" stroke-linejoin="round" fill="#00D800"/><path d="M151 87.6 151 58.73 176 73.17 151 87.6Z" stroke="#000000" stroke-width="2" stroke-linejoin="round" fill="#FF0000"/><path d="M151 58.73 176 15.43 201 29.87 176 73.17 151 58.73Z" stroke="#000000" stroke-width="2" stroke-linejoin="round" fill="#404040"/><path d="M51 29.87 51 58.73 26 15.43 51 29.87Z" stroke="#000000" stroke-width="2" stroke-linejoin="round" fill="#404040"/><path d="M1 1 26 15.43 1 29.87 1 1Z" stroke="#000000" stroke-width="2" stroke-linejoin="round" fill="#00D800"/><path d="M51 87.6 26 73.17 51 58.73 51 87.6Z" stroke="#000000" stroke-width="2" stroke-linejoin="round" fill="#404040"/><path d="M1 58.73 1 29.87 26 73.17 1 58.73Z" stroke="#000000" stroke-width="2" stroke-linejoin="round" fill="#404040"/><path d="M26 15.43 51 58.73 26 73.17 1 29.87 26 15.43Z" stroke="#000000" stroke-width="2" stroke-linejoin="round" fill="#404040"/></g></g></svg>