<svg width="128" height="128" viewBox="-0.9 -0.9 1.8 1.8" xmlns="http://www.w3.org/2000/svg" xmlns:xlink="http://www.w3.org/1999/xlink" overflow="hidden"><g stroke-width="0.1" stroke-linejoin="round" opacity="1"><path d="M-0.453404-0.619362 0.453404-0.619362 0.544361-0.19925-0.544361-0.19925Z" stroke="#000000" fill="#000000"/><path d="M-0.544361-0.19925 0.544361-0.19925 0.487857 0.666425-0.487857 0.666425Z" stroke="#000000" fill="#000000"/></g><g stroke-width="0" stroke-linejoin="round" stroke-opacity="0.5" opacity="1"><path d="M-0.468625-0.653119-0.304628-0.653119-0.313133-0.587648-0.4828-0.587648Z" stroke="#000000" fill="#404040"/><path d="M-0.275187-0.653119-0.111189-0.653119-0.114024-0.587648-0.283692-0.587648Z" stroke="#000000" fill="#404040"/><path d="M-0.0817485-0.653119 0.0822488-0.653119 0.0850837-0.587648-0.0845835-0.587648Z" stroke="#000000" fill="#404040"/><path d="M0.11169-0.653119 0.275687-0.653119 0.284192-0.587648 0.114525-0.587648Z" stroke="#000000" fill="#404040"/><path d="M0.305128-0.653119 0.469125-0.653119 0.4833-0.587648 0.313633-0.587648Z" stroke="#000000" fill="#404040"/><path d="M-0.484855-0.575681-0.315188-0.575681-0.324302-0.505521-0.500045-0.505521Z" stroke="#000000" fill="#404040"/><path d="M-0.28471-0.575681-0.115043-0.575681-0.118081-0.505521-0.293824-0.505521Z" stroke="#000000" fill="#EE0000"/><path d="M-0.0845655-0.575681 0.0851017-0.575681 0.0881397-0.505521-0.0876035-0.505521Z" stroke="#000000" fill="#EE0000"/><path d="M0.115579-0.575681 0.285246-0.575681 0.29436-0.505521 0.118617-0.505521Z" stroke="#000000" fill="#EE0000"/><path d="M0.315724-0.575681 0.485391-0.575681 0.500581-0.505521 0.324838-0.505521Z" stroke="#000000" fill="#404040"/><path d="M-0.502249-0.49268-0.326506-0.49268-0.336297-0.417309-0.518567-0.417309Z" stroke="#000000" fill="#404040"/><path d="M-0.294916-0.49268-0.119173-0.49268-0.122437-0.417309-0.304707-0.417309Z" stroke="#000000" fill="#EE0000"/><path d="M-0.0875836-0.49268 0.0881596-0.49268 0.0914232-0.417309-0.0908473-0.417309Z" stroke="#000000" fill="#EE0000"/><path d="M0.119749-0.49268 0.295492-0.49268 0.305283-0.417309 0.123013-0.417309Z" stroke="#000000" fill="#00D800"/><path d="M0.327082-0.49268 0.502825-0.49268 0.519143-0.417309 0.336873-0.417309Z" stroke="#000000" fill="#404040"/><path d="M-0.520938-0.403495-0.338667-0.403495-0.349214-0.322309-0.538515-0.322309Z" stroke="#000000" fill="#404040"/><path d="M-0.305881-0.403495-0.123611-0.403495-0.127126-0.322309-0.316428-0.322309Z" stroke="#000000" fill="#00D800"/><path d="M-0.0908251-0.403495 0.0914455-0.403495 0.0949609-0.322309-0.0943405-0.322309Z" stroke="#000000" fill="#EE0000"/><path d="M0.124231-0.403495 0.306502-0.403495 0.317048-0.322309 0.127747-0.322309Z" stroke="#000000" fill="#00D800"/><path d="M0.339288-0.403495 0.521558-0.403495 0.539135-0.322309 0.349834-0.322309Z" stroke="#000000" fill="#404040"/><path d="M-0.541071-0.307407-0.35177-0.307407-0.363162-0.219706-0.560059-0.219706Z" stroke="#000000" fill="#404040"/><path d="M-0.317693-0.307407-0.128392-0.307407-0.13219-0.219706-0.329086-0.219706Z" stroke="#000000" fill="#404040"/><path d="M-0.0943157-0.307407 0.0949858-0.307407 0.0987834-0.219706-0.0981132-0.219706Z" stroke="#000000" fill="#404040"/><path d="M0.129062-0.307407 0.318364-0.307407 0.329756-0.219706 0.13286-0.219706Z" stroke="#000000" fill="#404040"/><path d="M0.35244-0.307407 0.541741-0.307407 0.560729-0.219706 0.363833-0.219706Z" stroke="#000000" fill="#404040"/><path d="M-0.561144-0.196903-0.364248-0.196903-0.357561-0.0261671-0.55-0.0261671Z" stroke="#000000" fill="#404040"/><path d="M-0.329895-0.196903-0.132998-0.196903-0.130769-0.0261671-0.323208-0.0261671Z" stroke="#000000" fill="#404040"/><path d="M-0.0986449-0.196903 0.0982516-0.196903 0.0960228-0.0261671-0.0964161-0.0261671Z" stroke="#000000" fill="#404040"/><path d="M0.132605-0.196903 0.329501-0.196903 0.322815-0.0261671 0.130376-0.0261671Z" stroke="#000000" fill="#404040"/><path d="M0.363854-0.196903 0.560751-0.196903 0.549607-0.0261671 0.357168-0.0261671Z" stroke="#000000" fill="#404040"/><path d="M-0.548453 0.00329575-0.356014 0.00329575-0.349624 0.166472-0.537802 0.166472Z" stroke="#000000" fill="#404040"/><path d="M-0.32243 0.00329575-0.129991 0.00329575-0.127861 0.166472-0.31604 0.166472Z" stroke="#000000" fill="#00D800"/><path d="M-0.0964074 0.00329575 0.0960315 0.00329575 0.0939013 0.166472-0.0942772 0.166472Z" stroke="#000000" fill="#00D800"/><path d="M0.129615 0.00329575 0.322054 0.00329575 0.315664 0.166472 0.127485 0.166472Z" stroke="#000000" fill="#EE0000"/><path d="M0.355638 0.00329575 0.548077 0.00329575 0.537426 0.166472 0.349248 0.166472Z" stroke="#000000" fill="#404040"/><path d="M-0.536323 0.194644-0.348144 0.194644-0.342031 0.350752-0.526133 0.350752Z" stroke="#000000" fill="#404040"/><path d="M-0.315296 0.194644-0.127117 0.194644-0.12508 0.350752-0.309182 0.350752Z" stroke="#000000" fill="#00D800"/><path d="M-0.0942691 0.194644 0.0939094 0.194644 0.0918716 0.350752-0.0922312 0.350752Z" stroke="#000000" fill="#00D800"/><path d="M0.126758 0.194644 0.314936 0.194644 0.308823 0.350752 0.12472 0.350752Z" stroke="#000000" fill="#EE0000"/><path d="M0.347785 0.194644 0.535963 0.194644 0.525774 0.350752 0.341671 0.350752Z" stroke="#000000" fill="#404040"/><path d="M-0.524718 0.377716-0.340615 0.377716-0.334761 0.527205-0.51496 0.527205Z" stroke="#000000" fill="#404040"/><path d="M-0.308471 0.377716-0.124368 0.377716-0.122416 0.527205-0.302616 0.527205Z" stroke="#000000" fill="#00D800"/><path d="M-0.0922236 0.377716 0.0918792 0.377716 0.0899277 0.527205-0.0902721 0.527205Z" stroke="#000000" fill="#00D800"/><path d="M0.124024 0.377716 0.308126 0.377716 0.302272 0.527205 0.122072 0.527205Z" stroke="#000000" fill="#EE0000"/><path d="M0.340271 0.377716 0.524373 0.377716 0.514616 0.527205 0.334416 0.527205Z" stroke="#000000" fill="#404040"/><path d="M-0.513604 0.553038-0.333404 0.553038-0.327793 0.69632-0.504252 0.69632Z" stroke="#000000" fill="#404040"/><path d="M-0.301935 0.553038-0.121735 0.553038-0.119864 0.69632-0.296323 0.69632Z" stroke="#000000" fill="#404040"/><path d="M-0.0902649 0.553038 0.0899348 0.553038 0.0880644 0.69632-0.0883945 0.69632Z" stroke="#000000" fill="#404040"/><path d="M0.121405 0.553038 0.301604 0.553038 0.295993 0.69632 0.119534 0.69632Z" stroke="#000000" fill="#404040"/><path d="M0.333074 0.553038 0.513274 0.553038 0.503922 0.69632 0.327463 0.69632Z" stroke="#000000" fill="#404040"/></g></svg>