<svg width="170" height="128" viewBox="0 0 170 128" xmlns="http://www.w3.org/2000/svg" xmlns:xlink="http://www.w3.org/1999/xlink" overflow="hidden"><g transform="translate(0.5 0.5)"><rect x="2" y="44" width="10" height="10" stroke="#000000" fill="#FF8000"/><rect x="12" y="44" width="10" height="10" stroke="#000000" fill="#FF8000"/><rect x="22" y="44" width="10" height="10" stroke="#000000" fill="#FF8000"/><rect x="32" y="44" width="10" height="10" stroke="#000000" fill="#FF8000"/><rect x="2" y="54" width="10" height="10" stroke="#000000" fill="#FF8000"/><rect x="12" y="54" width="10" height="10" stroke="#000000" fill="#FF8000"/><rect x="22" y="54" width="10" height="10" stroke="#000000" fill="#FF8000"/><rect x="32" y="54" width="10" height="10" stroke="#000000" fill="#FF8000"/><rect x="2" y="64" width="10" height="10" stroke="#000000" fill="#FF8000"/><rect x="12" y="64" width="10" height="10" stroke="#000000" fill="#FF8000"/><rect x="22" y="64" width="10" height="10" stroke="#000000" fill="#FF8000"/><rect x="32" y="64" width="10" height="10" stroke="#000000" fill="#FF8000"/><rect x="2" y="74" width="10" height="10" stroke="#000000" fill="#FF8000"/><rect x="12" y="74" width="10" height="10" stroke="#000000" fill="#FF8000"/><rect x="22" y="74" width="10" height="10" stroke="#000000" fill="#FF8000"/><rect x="32" y="74" width="10" height="10" stroke="#000000" fill="#FF8000"/><rect x="44" y="86" width="10" height="10" stroke="#000000" fill="#FFFF00"/><rect x="54" y="86" width="10" height="10" stroke="#000000" fill="#FFFF00"/><rect x="64" y="86" width="10" height="10" stroke="#000000" fill="#FFFF00"/><rect x="74" y="86" width="10" height="10" stroke="#000000" fill="#FFFF00"/><rect x="44" y="96" width="10" height="10" stroke="#000000" fill="#FFFF00"/><rect x="54" y="96" width="10" height="10" stroke="#000000" fill="#FFFF00"/><rect x="64" y="96" width="10" height="10" stroke="#000000" fill="#FFFF00"/><rect x="74" y="96" width="10" height="10" stroke="#000000" fill="#FFFF00"/><rect x="44" y="106" width="10" height="10" stroke="#000000" fill="#FFFF00"/><rect x="54" y="106" width="10" height="10" stroke="#000000" fill="#FFFF00"/><rect x="64" y="106" width="10" height="10" stroke="#000000" fill="#FFFF00"/><rect x="74" y="106" width="10" height="10" stroke="#000000" fill="#FFFF00"/><rect x="44" y="116" width="10" height="10" stroke="#000000" fill="#FFFF00"/><rect x="54" y="116" width="10" height="10" stroke="#000000" fill="#FFFF00"/><rect x="64" y="116" width="10" height="10" stroke="#000000" fill="#FFFF00"/><rect x="74" y="116" width="10" height="10" stroke="#000000" fill="#FFFF00"/><rect x="128" y="44" width="10" height="10" stroke="#000000" fill="#0000FF"/><rect x="138" y="44" width="10" height="10" stroke="#000000" fill="#0000FF"/><rect x="148" y="44" width="10" height="10" stroke="#000000" fill="#0000FF"/><rect x="158" y="44" width="10" height="10" stroke="#000000" fill="#0000FF"/><rect x="128" y="54" width="10" height="10" stroke="#000000" fill="#0000FF"/><rect x="138" y="54" width="10" height="10" stroke="#000000" fill="#0000FF"/><rect x="148" y="54" width="10" height="10" stroke="#000000" fill="#0000FF"/><rect x="158" y="54" width="10" height="10" stroke="#000000" fill="#0000FF"/><rect x="128" y="64" width="10" height="10" stroke="#000000" fill="#0000FF"/><rect x="138" y="64" width="10" height="10" stroke="#000000" fill="#0000FF"/><rect x="148" y="64" width="10" height="10" stroke="#000000" fill="#0000FF"/><rect x="158" y="64" width="10" height="10" stroke="#000000" fill="#0000FF"/><rect x="128" y="74" width="10" height="10" stroke="#000000" fill="#0000FF"/><rect x="138" y="74" width="10" height="10" stroke="#000000" fill="#0000FF"/><rect x="148" y="74" width="10" height="10" stroke="#000000" fill="#0000FF"/><rect x="158" y="74" width="10" height="10" stroke="#000000" fill="#0000FF"/><rect x="86" y="44" width="10" height="10" stroke="#000000" fill="#FF0000"/><rect x="96" y="44" width="10" height="10" stroke="#000000" fill="#FF0000"/><rect x="106" y="44" width="10" height="10" stroke="#000000" fill="#FF0000"/><rect x="116" y="44" width="10" height="10" stroke="#000000" fill="#FF0000"/><rect x="86" y="54" width="10" height="10" stroke="#000000" fill="#FF0000"/><rect x="96" y="54" width="10" height="10" stroke="#000000" fill="#FF0000"/><rect x="106" y="54" width="10" height="10" stroke="#000000" fill="#FF0000"/><rect x="116" y="54" width="10" height="10" stroke="#000000" fill="#FF0000"/><rect x="86" y="64" width="10" height="10" stroke="#000000" fill="#FF0000"/><rect x="96" y="64" width="10" height="10" stroke="#000000" fill="#FF0000"/><rect x="106" y="64" width="10" height="10" stroke="#000000" fill="#FF0000"/><rect x="116" y="64" width="10" height="10" stroke="#000000" fill="#FF0000"/><rect x="86" y="74" width="10" height="10" stroke="#000000" fill="#FF0000"/><rect x="96" y="74" width="10" height="10" stroke="#000000" fill="#FF0000"/><rect x="106" y="74" width="10" height="10" stroke="#000000" fill="#FF0000"/><rect x="116" y="74" width="10" height="10" stroke="#000000" fill="#FF0000"/><rect x="44" y="2" width="10" height="10" stroke="#000000" fill="#FFFFFF"/><rect x="54" y="2" width="10" height="10" stroke="#000000" fill="#FFFFFF"/><rect x="64" y="2" width="10" height="10" stroke="#000000" fill="#FFFFFF"/><rect x="74" y="2" width="10" height="10" stroke="#000000" fill="#FFFFFF"/><rect x="44" y="12" width="10" height="10" stroke="#000000" fill="#FFFFFF"/><rect x="54" y="12" width="10" height="10" stroke="#000000" fill="#FFFFFF"/><rect x="64" y="12" width="10" height="10" stroke="#000000" fill="#FFFFFF"/><rect x="74" y="12" width="10" height="10" stroke="#000000" fill="#FFFFFF"/><rect x="44" y="22" width="10" height="10" stroke="#000000" fill="#FFFFFF"/><rect x="54" y="22" width="10" height="10" stroke="#000000" fill="#FFFFFF"/><rect x="64" y="22" width="10" height="10" stroke="#000000" fill="#FFFFFF"/><rect x="74" y="22" width="10" height="10" stroke="#000000" fill="#FFFFFF"/><rect x="44" y="32" width="10" height="10" stroke="#000000" fill="#FFFFFF"/><rect x="54" y="32" width="10" height="10" stroke="#000000" fill="#FFFFFF"/><rect x="64" y="32" width="10" height="10" stroke="#000000" fill="#FFFFFF"/><rect x="74" y="32" width="10" height="10" stroke="#000000" fill="#FFFFFF"/><rect x="44" y="44" width="10" height="10" stroke="#000000" fill="#00FF00"/><rect x="54" y="44" width="10" height="10" stroke="#000000" fill="#00FF00"/><rect x="64" y="44" width="10" height="10" stroke="#000000" fill="#00FF00"/><rect x="74" y="44" width="10" height="10" stroke="#000000" fill="#00FF00"/><rect x="44" y="54" width="10" height="10" stroke="#000000" fill="#00FF00"/><rect x="54" y="54" width="10" height="10" stroke="#000000" fill="#00FF00"/><rect x="64" y="54" width="10" height="10" stroke="#000000" fill="#00FF00"/><rect x="74" y="54" width="10" height="10" stroke="#000000" fill="#00FF00"/><rect x="44" y="64" width="10" height="10" stroke="#000000" fill="#00FF00"/><rect x="54" y="64" width="10" height="10" stroke="#000000" fill="#00FF00"/><rect x="64" y="64" width="10" height="10" stroke="#000000" fill="#00FF00"/><rect x="74" y="64" width="10" height="10" stroke="#000000" fill="#00FF00"/><rect x="44" y="74" width="10" height="10" stroke="#000000" fill="#00FF00"/><rect x="54" y="74" width="10" height="10" stroke="#000000" fill="#00FF00"/><rect x="64" y="74" width="10" height="10" stroke="#000000" fill="#00FF00"/><rect x="74" y="74" width="10" height="10" stroke="#000000" fill="#00FF00"/></g></svg>