<svg width="122" height="244" viewBox="0 0 122 244" xmlns="http://www.w3.org/2000/svg" xmlns:xlink="http://www.w3.org/1999/xlink" stroke-width="2" stroke-linejoin="round" stroke-miterlimit="10" overflow="hidden"><g transform="translate(0.5 0.5)"><rect x="17.7265" y="115.6" width="86.547" height="12.8" fill="#FF0000"/><rect x="17.7265" y="115.6" width="31.6784" height="12.8" fill="#FF0000"/><rect x="17.7265" y="115.6" width="86.547" height="12.8" stroke="#000000" fill="none"/><rect x="17.7265" y="115.6" width="31.6784" height="12.8" stroke="#000000" fill="none"/><path d="M113.999 91.599 98.8564 82.8564 77 88.7128 83.4 99.7979Z" stroke="#000000" fill="#0000FF" transform="matrix(-0.258819 0.965926 -0.965926 -0.258819 135.709 17.8665)"/><path d="M93 61 105.8 61 113.999 91.599 98.8564 82.8564Z" stroke="#000000" fill="#FF0000" transform="matrix(-0.258819 0.965926 -0.965926 -0.258819 135.709 17.8665)"/><path d="M61 61 93 61 98.8564 82.8564 77 88.7128Z" stroke="#000000" fill="#FFFF00" transform="matrix(-0.258819 0.965926 -0.965926 -0.258819 135.709 17.8665)"/><path d="M93 61 105.8 61 99.7979 83.4 88.7128 77Z" stroke="#000000" fill="#0000FF" transform="matrix(-0.965926 0.258819 -0.258819 -0.965926 135.709 104.134)"/><path d="M61 61 93 61 88.7128 77Z" stroke="#000000" fill="#FFFF00" transform="matrix(-0.965926 0.258819 -0.258819 -0.965926 135.709 104.134)"/><path d="M113.999 91.599 98.8564 82.8564 77 88.7128 83.4 99.7979Z" stroke="#000000" fill="#FF8000" transform="matrix(-0.965926 -0.258819 0.258819 -0.965926 104.134 135.709)"/><path d="M93 61 105.8 61 113.999 91.599 98.8564 82.8564Z" stroke="#000000" fill="#0000FF" transform="matrix(-0.965926 -0.258819 0.258819 -0.965926 104.134 135.709)"/><path d="M61 61 93 61 98.8564 82.8564 77 88.7128Z" stroke="#000000" fill="#FFFF00" transform="matrix(-0.965926 -0.258819 0.258819 -0.965926 104.134 135.709)"/><path d="M93 61 105.8 61 99.7979 83.4 88.7128 77Z" stroke="#000000" fill="#FF8000" transform="matrix(-0.258819 -0.965926 0.965926 -0.258819 17.8665 135.709)"/><path d="M61 61 93 61 88.7128 77Z" stroke="#000000" fill="#FFFF00" transform="matrix(-0.258819 -0.965926 0.965926 -0.258819 17.8665 135.709)"/><path d="M113.999 91.599 98.8564 82.8564 77 88.7128 83.4 99.7979Z" stroke="#000000" fill="#00FF00" transform="matrix(0.258819 -0.965926 0.965926 0.258819 -13.7094 104.134)"/><path d="M93 61 105.8 61 113.999 91.599 98.8564 82.8564Z" stroke="#000000" fill="#FF8000" transform="matrix(0.258819 -0.965926 0.965926 0.258819 -13.7094 104.134)"/><path d="M61 61 93 61 98.8564 82.8564 77 88.7128Z" stroke="#000000" fill="#FFFF00" transform="matrix(0.258819 -0.965926 0.965926 0.258819 -13.7094 104.134)"/><path d="M93 61 105.8 61 99.7979 83.4 88.7128 77Z" stroke="#000000" fill="#00FF00" transform="matrix(0.965926 -0.258819 0.258819 0.965926 -13.7094 17.8665)"/><path d="M61 61 93 61 88.7128 77Z" stroke="#000000" fill="#FFFF00" transform="matrix(0.965926 -0.258819 0.258819 0.965926 -13.7094 17.8665)"/><path d="M113.999 91.599 98.8564 82.8564 77 88.7128 83.4 99.7979Z" stroke="#000000" fill="#FF0000" transform="matrix(0.965926 0.258819 -0.258819 0.965926 17.8665 -13.7094)"/><path d="M93 61 105.8 61 113.999 91.599 98.8564 82.8564Z" stroke="#000000" fill="#00FF00" transform="matrix(0.965926 0.258819 -0.258819 0.965926 17.8665 -13.7094)"/><path d="M61 61 93 61 98.8564 82.8564 77 88.7128Z" stroke="#000000" fill="#FFFF00" transform="matrix(0.965926 0.258819 -0.258819 0.965926 17.8665 -13.7094)"/><path d="M93 61 105.8 61 99.7979 83.4 88.7128 77Z" stroke="#000000" fill="#FF0000" transform="matrix(0.258819 0.965926 -0.965926 0.258819 104.134 -13.7094)"/><path d="M61 61 93 61 88.7128 77Z" stroke="#000000" fill="#FFFF00" transform="matrix(0.258819 0.965926 -0.965926 0.258819 104.134 -13.7094)"/><path d="M93 183 105.8 183 99.7979 205.4 88.7128 199Z" stroke="#000000" fill="#FF0000" transform="matrix(-0.258819 -0.965926 0.965926 -0.258819 -99.9765 289.285)"/><path d="M61 183 93 183 88.7128 199Z" stroke="#000000" fill="#FFFFFF" transform="matrix(-0.258819 -0.965926 0.965926 -0.258819 -99.9765 289.285)"/><path d="M113.999 213.599 98.8564 204.856 77 210.713 83.4 221.798Z" stroke="#000000" fill="#00FF00" transform="matrix(0.258819 -0.965926 0.965926 0.258819 -131.552 194.558)"/><path d="M93 183 105.8 183 113.999 213.599 98.8564 204.856Z" stroke="#000000" fill="#FF0000" transform="matrix(0.258819 -0.965926 0.965926 0.258819 -131.552 194.558)"/><path d="M61 183 93 183 98.8564 204.856 77 210.713Z" stroke="#000000" fill="#FFFFFF" transform="matrix(0.258819 -0.965926 0.965926 0.258819 -131.552 194.558)"/><path d="M93 183 105.8 183 99.7979 205.4 88.7128 199Z" stroke="#000000" fill="#00FF00" transform="matrix(0.965926 -0.258819 0.258819 0.965926 -45.2854 22.0235)"/><path d="M61 183 93 183 88.7128 199Z" stroke="#000000" fill="#FFFFFF" transform="matrix(0.965926 -0.258819 0.258819 0.965926 -45.2854 22.0235)"/><path d="M113.999 213.599 98.8564 204.856 77 210.713 83.4 221.798Z" stroke="#000000" fill="#FF8000" transform="matrix(0.965926 0.258819 -0.258819 0.965926 49.4424 -9.55239)"/><path d="M93 183 105.8 183 113.999 213.599 98.8564 204.856Z" stroke="#000000" fill="#00FF00" transform="matrix(0.965926 0.258819 -0.258819 0.965926 49.4424 -9.55239)"/><path d="M61 183 93 183 98.8564 204.856 77 210.713Z" stroke="#000000" fill="#FFFFFF" transform="matrix(0.965926 0.258819 -0.258819 0.965926 49.4424 -9.55239)"/><path d="M93 183 105.8 183 99.7979 205.4 88.7128 199Z" stroke="#000000" fill="#FF8000" transform="matrix(0.258819 0.965926 -0.965926 0.258819 221.976 76.7146)"/><path d="M61 183 93 183 88.7128 199Z" stroke="#000000" fill="#FFFFFF" transform="matrix(0.258819 0.965926 -0.965926 0.258819 221.976 76.7146)"/><path d="M113.999 213.599 98.8564 204.856 77 210.713 83.4 221.798Z" stroke="#000000" fill="#0000FF" transform="matrix(-0.258819 0.965926 -0.965926 -0.258819 253.552 171.442)"/><path d="M93 183 105.8 183 113.999 213.599 98.8564 204.856Z" stroke="#000000" fill="#FF8000" transform="matrix(-0.258819 0.965926 -0.965926 -0.258819 253.552 171.442)"/><path d="M61 183 93 183 98.8564 204.856 77 210.713Z" stroke="#000000" fill="#FFFFFF" transform="matrix(-0.258819 0.965926 -0.965926 -0.258819 253.552 171.442)"/><path d="M93 183 105.8 183 99.7979 205.4 88.7128 199Z" stroke="#000000" fill="#0000FF" transform="matrix(-0.965926 0.258819 -0.258819 -0.965926 167.285 343.976)"/><path d="M61 183 93 183 88.7128 199Z" stroke="#000000" fill="#FFFFFF" transform="matrix(-0.965926 0.258819 -0.258819 -0.965926 167.285 343.976)"/><path d="M113.999 213.599 98.8564 204.856 77 210.713 83.4 221.798Z" stroke="#000000" fill="#FF0000" transform="matrix(-0.965926 -0.258819 0.258819 -0.965926 72.5576 375.552)"/><path d="M93 183 105.8 183 113.999 213.599 98.8564 204.856Z" stroke="#000000" fill="#0000FF" transform="matrix(-0.965926 -0.258819 0.258819 -0.965926 72.5576 375.552)"/><path d="M61 183 93 183 98.8564 204.856 77 210.713Z" stroke="#000000" fill="#FFFFFF" transform="matrix(-0.965926 -0.258819 0.258819 -0.965926 72.5576 375.552)"/></g></svg>