<svg version="1.1" width="500" height="500" viewBox="0 0 500 500" xmlns="http://www.w3.org/2000/svg" xmlns:xlink="http://www.w3.org/1999/xlink" id="Layer_1" overflow="hidden"><defs id="defs318"></defs><rect x="29.216" y="25.6975" width="46.13" height="46.13" id="rect218" fill="#000000"/><rect x="95.0036" y="25.6964" width="46.13" height="46.1321" id="rect220" fill="#000000"/><rect x="29.216" y="92.7195" width="46.13" height="46.1311" id="rect222" fill="#000000"/><rect x="95.0036" y="92.7195" width="46.13" height="46.1321" id="rect224" fill="#000000"/><rect x="161.005" y="25.8985" width="46.1269" height="46.1311" id="rect226" fill="#000000"/><rect x="226.789" y="25.8996" width="46.1311" height="46.1311" id="rect228" fill="#000000"/><rect x="161.005" y="92.9226" width="46.1269" height="46.129" id="rect230" fill="#000000"/><rect x="226.789" y="92.9226" width="46.1311" height="46.1311" id="rect232" fill="#000000"/><rect x="29.216" y="159.944" width="46.13" height="46.1332" id="rect234" fill="#000000"/><rect x="95.0036" y="159.944" width="46.13" height="46.1332" id="rect236" fill="#000000"/><rect x="29.216" y="226.965" width="46.13" height="46.1321" id="rect238" fill="#000000"/><rect x="95.0036" y="226.969" width="46.13" height="46.128" id="rect240" fill="#000000"/><rect x="161.005" y="159.944" width="46.1269" height="46.1311" id="rect242" fill="#000000"/><rect x="226.789" y="159.944" width="46.1311" height="46.1332" id="rect244" fill="#000000"/><rect x="161.005" y="226.965" width="46.1269" height="46.1321" id="rect246" fill="#000000"/><rect x="226.789" y="226.969" width="46.1311" height="46.128" id="rect248" fill="#000000"/><rect x="292.579" y="25.8996" width="46.13" height="46.1311" id="rect250" fill="#000000"/><rect x="292.579" y="92.9226" width="46.13" height="46.1311" id="rect252" fill="#000000"/><rect x="292.579" y="159.944" width="46.13" height="46.1332" id="rect254" fill="#000000"/><rect x="292.579" y="226.969" width="46.13" height="46.128" id="rect256" fill="#000000"/><rect x="29.3217" y="293.992" width="46.13" height="46.128" id="rect258" fill="#000000"/><rect x="95.1093" y="293.992" width="46.13" height="46.128" id="rect260" fill="#000000"/><rect x="161.112" y="293.992" width="46.128" height="46.128" id="rect262" fill="#000000"/><rect x="226.895" y="293.992" width="46.1342" height="46.128" id="rect264" fill="#000000"/><rect x="292.685" y="293.992" width="46.1321" height="46.128" id="rect266" fill="#000000"/><rect x="358.47" y="25.8975" width="46.13" height="46.1311" id="rect268" fill="#000000"/><rect x="358.47" y="92.9205" width="46.13" height="46.1311" id="rect270" fill="#000000"/><rect x="358.47" y="159.943" width="46.13" height="46.1321" id="rect272" fill="#000000"/><rect x="358.47" y="226.966" width="46.13" height="46.129" id="rect274" fill="#000000"/><rect x="424.258" y="25.8975" width="46.13" height="46.1311" id="rect276" fill="#000000"/><rect x="424.258" y="92.9205" width="46.13" height="46.1311" id="rect278" fill="#000000"/><rect x="424.258" y="159.943" width="46.13" height="46.1321" id="rect280" fill="#000000"/><rect x="424.258" y="226.966" width="46.13" height="46.129" id="rect282" fill="#000000"/><rect x="358.577" y="293.99" width="46.1321" height="46.128" id="rect284" fill="#000000"/><rect x="424.365" y="293.99" width="46.13" height="46.128" id="rect286" fill="#000000"/><rect x="29.3217" y="361.013" width="46.1321" height="46.1321" id="rect288" fill="#000000"/><rect x="95.1104" y="361.015" width="46.13" height="46.13" id="rect290" fill="#000000"/><rect x="161.112" y="361.013" width="46.128" height="46.1321" id="rect292" fill="#000000"/><rect x="226.897" y="361.015" width="46.13" height="46.13" id="rect294" fill="#000000"/><rect x="292.685" y="361.015" width="46.128" height="46.13" id="rect296" fill="#000000"/><rect x="29.4275" y="428.039" width="46.1321" height="46.13" id="rect298" fill="#000000"/><rect x="95.2172" y="428.039" width="46.13" height="46.13" id="rect300" fill="#000000"/><rect x="161.218" y="428.039" width="46.128" height="46.13" id="rect302" fill="#000000"/><rect x="227.003" y="428.039" width="46.1332" height="46.13" id="rect304" fill="#000000"/><rect x="292.789" y="428.039" width="46.1321" height="46.13" id="rect306" fill="#000000"/><rect x="358.577" y="361.013" width="46.13" height="46.13" id="rect308" fill="#000000"/><rect x="424.365" y="361.013" width="46.128" height="46.13" id="rect310" fill="#000000"/><rect x="358.684" y="428.037" width="46.1321" height="46.13" id="rect312" fill="#000000"/><rect x="424.469" y="428.037" width="46.1321" height="46.13" id="rect314" fill="#000000"/></svg>