<svg version="1.1" width="500" height="500" viewBox="0 0 500 500" xmlns="http://www.w3.org/2000/svg" xmlns:xlink="http://www.w3.org/1999/xlink" id="Layer_1" overflow="hidden"><defs id="defs23"></defs><path d=" M 250 40 C 134.02 40 40 134.02 40 250 C 40 365.98 134.02 460 250 460 C 365.98 460 460 365.98 460 250 C 460 134.02 365.98 40 250 40 Z M 250 59.0938 L 300.688 236.469 L 300.656 236.469 C 301.942 241.042 302.625 245.857 302.625 250.844 C 302.625 280.03 279.071 303.688 250 303.688 C 220.929 303.688 197.375 280.03 197.375 250.844 C 197.375 245.857 198.058 241.042 199.344 236.469 L 199.281 236.469 L 250 59.0938 Z M 250 124.906 L 216.656 241.563 L 216.688 241.563 C 215.842 244.57 215.375 247.721 215.375 251 C 215.375 270.195 230.881 285.75 250 285.75 C 269.119 285.75 284.625 270.195 284.625 251 C 284.625 247.721 284.158 244.57 283.313 241.563 L 283.344 241.563 L 250 124.906 Z" id="circle17" fill="#000000"/></svg>