<svg viewBox="0 0 300 150" xmlns="http://www.w3.org/2000/svg" xmlns:xlink="http://www.w3.org/1999/xlink" id="图层_1" overflow="hidden"><defs></defs><path d="M153 97.1 176.16 79.2C176.621 78.8394 176.703 78.1732 176.342 77.712 176.289 77.6442 176.228 77.5831 176.16 77.53L153 59.63C152.533 59.2765 151.869 59.3682 151.515 59.8348 151.378 60.0149 151.303 60.234 151.3 60.46L151.3 69.94 127 69.94C126.448 69.94 126 70.3877 126 70.94L126 85.74C125.972 86.2916 126.397 86.7611 126.949 86.7887 126.966 86.7896 126.983 86.79 127 86.79L151.22 86.79 151.22 96.27C151.228 96.8554 151.709 97.3232 152.295 97.315 152.521 97.3118 152.74 97.2365 152.92 97.1Z"/><path d="M15.94 36.52 47.74 64.88 49.32 127.81 20.24 93.34 15.94 36.52Z" stroke="#000000" stroke-width="7.11" stroke-linejoin="round"/><path d="M15.94 36.52 73.9 23.78 112.16 47.38 47.74 64.88 15.94 36.52Z" stroke="#000000" stroke-width="7.11" stroke-linejoin="round"/><path d="M47.74 64.88 112.16 47.38 107.28 106.67 49.32 127.81 47.74 64.88Z" stroke="#000000" stroke-width="7.11" stroke-linejoin="round"/><path d="M13.83 36.59 22.38 44.22 23.54 63.15 15.21 54.84 13.83 36.59Z" fill="#404040"/><path d="M23.95 45.71 33.48 54.2 34.35 73.86 25.11 64.64 23.95 45.71Z" fill="#404040"/><path d="M35.23 55.86 45.9 65.38 46.41 85.81 36.1 75.52 35.23 55.86Z" fill="#404040"/><path d="M15.43 58.01 23.76 66.32 24.84 83.99 16.72 75.1 15.43 58.01Z" fill="#0000F2"/><path d="M25.29 67.92 34.53 77.14 35.34 95.42 26.36 85.59 25.29 67.92Z" fill="#0000F2"/><path d="M36.22 78.92 46.53 89.21 47.01 108.12 37.03 97.2 36.22 78.92Z" fill="#404040"/><path d="M16.92 78.06 25.04 86.96 26.05 103.48 18.14 94.1 16.92 78.06Z" fill="#0000F2"/><path d="M26.53 88.65 35.5 98.48 36.26 115.52 27.54 105.18 26.53 88.65Z" fill="#0000F2"/><path d="M37.15 100.36 47.12 111.28 47.56 128.84 37.9 117.39 37.15 100.36Z" fill="#404040"/><path d="M15.42 34.52 33.88 30.46 43.15 37.65 23.97 42.15 15.42 34.52Z" fill="#404040"/><path d="M37.11 29.73 54.55 25.89 64.42 32.68 46.37 36.92 37.11 29.73Z" fill="#404040"/><path d="M57.59 25.2 74.09 21.57 84.49 27.98 67.46 31.98 57.59 25.2Z" fill="#404040"/><path d="M25.64 43.53 44.81 39.03 55.08 47.01 35.16 52.02 25.64 43.53Z" fill="#404040"/><path d="M48.15 38.21 66.2 33.97 77.12 41.48 58.42 46.19 48.15 38.21Z" fill="#404040"/><path d="M69.34 33.21 86.38 29.21 97.85 36.29 80.27 40.72 69.34 33.21Z" fill="#404040"/><path d="M37.01 53.56 56.94 48.54 68.41 57.45 47.69 63.08 37.01 53.56Z" fill="#404040"/><path d="M60.4 47.63 79.1 42.92 91.25 51.28 71.88 56.54 60.4 47.63Z" fill="#404040"/><path d="M82.35 42.07 99.94 37.64 112.66 45.49 94.5 50.42 82.35 42.07Z" fill="#404040"/><path d="M48.6 65.68 69.32 60.05 69.05 80.03 49.12 86.11 48.6 65.68Z" fill="#404040"/><path d="M72.8 59.05 92.18 53.79 91.21 73.33 72.53 79.03 72.8 59.05Z" fill="#404040"/><path d="M95.44 52.85 113.6 47.92 112.02 67.04 94.47 72.39 95.44 52.85Z" fill="#404040"/><path d="M49.14 89.55 69.07 83.47 68.81 102.01 49.61 108.46 49.14 89.55Z" fill="#404040"/><path d="M72.42 82.4 91.11 76.7 90.21 94.88 72.16 100.94 72.42 82.4Z" fill="#404040"/><path d="M94.25 75.69 111.81 70.34 110.34 88.17 93.35 93.87 94.25 75.69Z" fill="#404040"/><path d="M49.63 111.65 68.83 105.2 68.59 122.45 50.07 129.21 49.63 111.65Z" fill="#404040"/><path d="M72.07 104.07 90.11 98.01 89.27 114.96 71.83 121.32 72.07 104.07Z" fill="#404040"/><path d="M93.15 96.94 110.14 91.24 108.77 107.9 92.31 113.9 93.15 96.94Z" fill="#404040"/><path d="M186.94 37.52 218.74 65.88 220.32 128.81 191.24 94.34 186.94 37.52Z" stroke="#000000" stroke-width="7.11" stroke-linejoin="round"/><path d="M186.94 37.52 244.9 24.78 283.16 48.38 218.74 65.88 186.94 37.52Z" stroke="#000000" stroke-width="7.11" stroke-linejoin="round"/><path d="M218.74 65.88 283.16 48.38 278.28 107.67 220.32 128.81 218.74 65.88Z" stroke="#000000" stroke-width="7.11" stroke-linejoin="round"/><path d="M184.83 37.59 193.38 45.22 194.54 64.15 186.21 55.84 184.83 37.59Z" fill="#404040"/><path d="M194.95 46.71 204.48 55.2 205.35 74.86 196.11 65.64 194.95 46.71Z" fill="#404040"/><path d="M206.23 56.86 216.9 66.38 217.41 86.81 207.1 76.52 206.23 56.86Z" fill="#404040"/><path d="M186.43 59.01 194.76 67.32 195.84 84.99 187.72 76.1 186.43 59.01Z" fill="#0000F2"/><path d="M196.28 68.92 205.53 78.14 206.34 96.42 197.36 86.59 196.28 68.92Z" fill="#0000F2"/><path d="M207.22 79.92 217.53 90.21 218.01 109.12 208.03 98.2 207.22 79.92Z" fill="#0000F2"/><path d="M187.92 79.06 196.04 87.96 197.05 104.48 189.14 95.1 187.92 79.06Z" fill="#0000F2"/><path d="M197.53 89.65 206.5 99.48 207.26 116.52 198.54 106.18 197.53 89.65Z" fill="#0000F2"/><path d="M208.15 101.36 218.12 112.28 218.56 129.84 208.9 118.39 208.15 101.36Z" fill="#0000F2"/><path d="M186.42 35.52 204.88 31.46 214.15 38.65 194.97 43.15 186.42 35.52Z" fill="#404040"/><path d="M208.11 30.73 225.55 26.89 235.42 33.68 217.37 37.92 208.11 30.73Z" fill="#404040"/><path d="M228.59 26.2 245.09 22.57 255.49 28.98 238.46 32.98 228.59 26.2Z" fill="#404040"/><path d="M196.63 44.53 215.81 40.03 226.08 48.01 206.16 53.02 196.63 44.53Z" fill="#404040"/><path d="M219.15 39.21 237.2 34.97 248.12 42.48 229.43 47.19 219.15 39.21Z" fill="#404040"/><path d="M240.34 34.21 257.38 30.21 268.85 37.29 251.27 41.72 240.34 34.21Z" fill="#404040"/><path d="M208.01 54.56 227.94 49.54 239.41 58.45 218.69 64.08 208.01 54.56Z" fill="#404040"/><path d="M231.4 48.63 250.1 43.92 262.25 52.28 242.88 57.54 231.4 48.63Z" fill="#404040"/><path d="M253.35 43.07 270.94 38.64 283.66 46.49 265.5 51.42 253.35 43.07Z" fill="#404040"/><path d="M219.6 66.68 240.32 61.05 240.05 81.03 220.12 87.11 219.6 66.68Z" fill="#404040"/><path d="M243.8 60.05 263.18 54.79 262.21 74.33 243.53 80.03 243.8 60.05Z" fill="#404040"/><path d="M266.44 53.85 284.6 48.92 283.02 68.04 265.47 73.39 266.44 53.85Z" fill="#404040"/><path d="M220.14 90.55 240.07 84.47 239.81 103.01 220.61 109.46 220.14 90.55Z" fill="#EE0000"/><path d="M243.42 83.4 262.11 77.7 261.21 95.88 243.16 101.94 243.42 83.4Z" fill="#404040"/><path d="M265.25 76.69 282.81 71.34 281.34 89.17 264.35 94.87 265.25 76.69Z" fill="#404040"/><path d="M220.63 112.65 239.83 106.2 239.59 123.45 221.07 130.21 220.63 112.65Z" fill="#EE0000"/><path d="M243.07 105.07 261.11 99.01 260.27 115.96 242.83 122.32 243.07 105.07Z" fill="#404040"/><path d="M264.15 97.94 281.14 92.24 279.76 108.9 263.31 114.9 264.15 97.94Z" fill="#404040"/></svg>