<svg viewBox="0 0 253.54 219.56" xmlns="http://www.w3.org/2000/svg" xmlns:xlink="http://www.w3.org/1999/xlink" overflow="hidden"><defs></defs><g id="图层_2"><g id="图层_1-2"><path d="M1.88 217.58 1.88 217.41 1.97 217.42 1.88 217.58Z" fill="#404040"/><path d="M1.86 217.41 1.84 217.41 1.87 217.41 1.86 217.41Z" fill="#404040"/><path d="M1.82 217.4 1.87 217.32 1.87 217.38 1.82 217.4Z" fill="#404040"/><path d="M1.88 217.41 1.86 217.41 1.87 217.41 1.87 217.4 1.88 217.41Z" fill="#404040"/><path d="M1.97 217.42 1.88 217.41 1.87 217.4 2.03 217.3 1.97 217.42Z" fill="#404040"/><path d="M1.87 217.41 1.87 217.38 1.87 217.4 1.87 217.41Z" fill="#404040"/><path d="M1.87 217.4 1.87 217.38 1.87 217.37 2.05 217.28 2.03 217.3 1.87 217.4Z" fill="#404040"/><path d="M1.87 217.38 1.87 217.32 1.88 217.31 1.87 217.37 1.87 217.38Z" fill="#404040"/><path d="M2.03 217.3 43.44 193.53 43.45 193.52 43.47 193.5 85.21 217.6 1.97 217.42 2.03 217.3Z" fill="#00D800"/><path d="M1.76 169.56 1.77 169.55 1.77 169.56 1.76 169.56Z" fill="#404040"/><path d="M43.47 193.5 43.46 193.5 43.46 193.49 43.49 193.49 43.47 193.5Z" fill="#00D800"/><path d="M43.49 193.49 126.84 193.68 85.21 217.6 43.47 193.5 43.49 193.49Z" fill="#00D800"/><path d="M43.49 193.49 85.08 169.6 85.11 169.59 126.84 193.68 43.49 193.49Z" fill="#404040"/><path d="M43.41 193.52 2.05 217.28 43.28 145.85 43.39 193.5 43.41 193.52Z" fill="#EE0000"/><path d="M85.21 217.6 126.84 193.68 126.85 193.69 168.6 217.79 85.21 217.6Z" fill="#00D800"/><path d="M43.29 97.62 1.77 169.55 1.66 121.53 43.29 97.62Z" fill="#FEFE00"/><path d="M43.28 145.85 2.05 217.28 1.87 217.37 1.88 217.31 43.17 145.79 43.28 145.71 43.28 145.85Z" fill="#404040"/><path d="M43.17 145.79 1.88 217.31 1.77 169.56 43.17 145.79Z" fill="#FEFE00"/><path d="M43.28 145.85 43.28 145.71 43.4 145.65 43.28 145.85Z" fill="#404040"/><path d="M43.17 145.79 43.28 145.59 43.28 145.71 43.17 145.79Z" fill="#404040"/><path d="M43.4 145.65 43.28 145.71 43.28 145.59 43.34 145.5 43.39 145.46 43.4 145.46 43.4 145.65Z" fill="#404040"/><path d="M43.4 145.65 43.4 145.46 43.57 145.36 43.4 145.65Z" fill="#404040"/><path d="M85.11 169.59 85.09 169.58 85.13 169.59 85.11 169.59Z" fill="#404040"/><path d="M43.39 145.46 43.34 145.5 43.4 145.38 43.39 145.46Z" fill="#404040"/><path d="M168.72 217.79 210.25 193.93 251.89 217.98 168.72 217.79Z" fill="#00D800"/><path d="M1.77 169.55 43.29 97.62 43.4 145.38 43.34 145.5 43.28 145.59 43.17 145.79 1.77 169.56 1.77 169.55Z" fill="#FEFE00"/><path d="M43.46 193.49 84.98 121.58 85.08 169.59 43.46 193.49Z" fill="#404040"/><path d="M126.85 193.69 210.15 193.87 210.23 193.92 210.25 193.93 168.72 217.79 168.6 217.8 168.6 217.79 126.85 193.69Z" fill="#00D800"/><path d="M126.85 193.69 168.44 169.8 168.47 169.81 210.15 193.87 126.85 193.69Z" fill="#404040"/><path d="M84.98 121.58 43.46 193.49 43.45 193.49 43.41 193.52 43.39 193.5 43.28 145.85 43.4 145.65 43.57 145.36 84.97 121.58 84.98 121.58Z" fill="#EE0000"/><path d="M168.44 169.8 126.85 193.69 126.84 193.68 85.11 169.59 85.13 169.59 168.39 169.77 168.44 169.8Z" fill="#404040"/><path d="M85.13 169.59 126.71 145.69 126.72 145.7 168.39 169.77 85.13 169.59Z" fill="#404040"/><path d="M84.98 121.58 84.97 121.58 84.98 121.58 84.98 121.58Z" fill="#EE0000"/><path d="M126.73 145.66 126.63 97.71 168.42 169.72 126.74 145.66 126.73 145.66Z" fill="#404040"/><path d="M210.17 193.83 168.5 169.77 168.47 169.75 168.36 121.79 210.17 193.83Z" fill="#404040"/><path d="M210.23 193.86 210.17 193.83 168.36 121.79 168.36 121.78 210.11 145.89 210.12 145.89 210.12 145.91 210.23 193.86Z" fill="#0000F2"/><path d="M210.25 193.88 210.23 193.86 210.12 145.91 251.92 217.93 210.25 193.88Z" fill="#0000F2"/><path d="M84.87 73.83 84.97 121.58 43.57 145.36 84.87 73.83Z" fill="#404040"/><path d="M168.36 121.79 168.47 169.75 168.42 169.72 126.63 97.71 126.63 97.69 168.35 121.78 168.36 121.78 168.36 121.79Z" fill="#404040"/><path d="M85.09 169.58 126.61 97.68 126.72 145.68 85.09 169.58Z" fill="#404040"/><path d="M43.18 49.62 43.29 97.62 1.66 121.53 1.66 121.52 43.17 49.62 43.18 49.62Z" fill="#FEFE00"/><path d="M84.87 73.83 43.57 145.36 43.4 145.46 43.39 145.46 43.4 145.38 84.71 73.84 84.87 73.74 84.87 73.83Z" fill="#404040"/><path d="M126.61 97.68 85.09 169.58 85.08 169.59 84.98 121.58 84.98 121.58 126.6 97.66 126.61 97.68Z" fill="#404040"/><path d="M84.71 73.84 43.4 145.38 43.29 97.62 84.71 73.84Z" fill="#404040"/><path d="M43.17 49.62 1.66 121.52 1.55 73.53 43.17 49.62Z" fill="#FEFE00"/><path d="M84.98 121.58 126.5 49.67 126.6 97.66 84.98 121.58Z" fill="#404040"/><path d="M84.71 73.84 84.87 73.56 84.87 73.74 84.71 73.84Z" fill="#404040"/><path d="M84.87 73.83 84.87 73.74 84.94 73.7 84.87 73.83Z" fill="#404040"/><path d="M168.36 121.78 168.35 121.78 168.25 73.76 210.11 145.89 168.36 121.78Z" fill="#0000F2"/><path d="M126.62 97.66 126.52 49.69 168.35 121.78 126.63 97.69 126.62 97.66Z" fill="#404040"/><path d="M84.98 73.49 84.99 73.62 84.94 73.7 84.87 73.74 84.87 73.56 84.98 73.49Z" fill="#404040"/><path d="M84.99 73.62 84.98 73.49 85.11 73.42 84.99 73.62Z" fill="#404040"/><path d="M84.87 73.56 84.98 73.36 84.98 73.49 84.87 73.56Z" fill="#404040"/><path d="M126.5 49.67 84.98 121.58 84.97 121.58 84.87 73.83 84.94 73.7 84.99 73.62 85.11 73.42 126.5 49.66 126.5 49.67Z" fill="#EE0000"/><path d="M84.82 25.7 43.29 97.62 43.18 49.62 84.82 25.7Z" fill="#FEFE00"/><path d="M43.29 97.62 84.82 25.7 84.87 25.67 84.89 25.7 84.88 25.71 84.98 73.36 84.87 73.56 84.71 73.84 43.29 97.62Z" fill="#FEFE00"/><path d="M126.5 49.67 126.5 49.66 126.5 49.65 126.52 49.63 126.5 49.67Z" fill="#404040"/><path d="M126.5 49.66 85.11 73.42 126.39 1.91 126.5 49.65 126.5 49.66Z" fill="#EE0000"/><path d="M126.53 49.63 126.55 49.63 168.21 73.68 168.25 73.76 168.35 121.78 126.52 49.69 126.52 49.63 126.53 49.63Z" fill="#0000F2"/><path d="M126.53 49.63 126.41 1.88 126.47 1.78 126.47 1.77 168.21 73.68 126.55 49.63 126.53 49.63Z" fill="#0000F2"/><path d="M126.39 1.91 85.11 73.42 84.98 73.49 84.98 73.36 126.23 1.92 126.39 1.83 126.39 1.91Z" fill="#404040"/><path d="M84.98 73.36 84.88 25.71 84.89 25.7 84.87 25.67 126.23 1.92 84.98 73.36Z" fill="#FEFE00"/><path d="M126.23 1.92 126.24 1.9 126.39 1.81 126.39 1.83 126.23 1.92Z" fill="#404040"/><path d="M126.24 1.9 126.39 1.65 126.39 1.81 126.24 1.9Z" fill="#404040"/><path d="M126.39 1.91 126.39 1.83 126.41 1.81 126.41 1.88 126.39 1.91Z" fill="#404040"/><path d="M126.41 1.88 126.41 1.81 126.47 1.78 126.41 1.88Z" fill="#404040"/><path d="M126.46 1.76 126.41 1.79 126.41 1.67 126.46 1.76Z" fill="#404040"/><path d="M126.47 1.78 126.41 1.81 126.41 1.79 126.46 1.76 126.47 1.77 126.47 1.78Z" fill="#404040"/><path d="M126.41 1.88 126.53 49.63 126.52 49.63 126.52 49.69 126.62 97.66 126.63 97.69 126.63 97.71 126.73 145.66 126.73 145.68" stroke="#000000" stroke-width="3.07" stroke-linecap="round" stroke-miterlimit="10" fill="none"/><path d="M126.41 1.6 126.41 1.67 126.41 1.79 126.41 1.81" stroke="#000000" stroke-width="3.07" stroke-linecap="round" stroke-miterlimit="10" fill="none"/><path d="M43.45 193.52 43.47 193.5 43.49 193.49 85.08 169.6 85.11 169.59 85.13 169.59 126.71 145.69 126.73 145.69" stroke="#000000" stroke-width="3.07" stroke-linecap="round" stroke-miterlimit="10" fill="none"/><line x1="2.03" y1="217.3" x2="43.44" y2="193.53" stroke="#000000" stroke-width="3.07" stroke-linecap="round" stroke-miterlimit="10" fill="none"/><path d="M1.8 217.44 1.84 217.41 1.87 217.41 1.87 217.4" stroke="#000000" stroke-width="3.07" stroke-linecap="round" stroke-miterlimit="10" fill="none"/><path d="M126.62 97.66 126.61 97.68 85.09 169.58 85.08 169.6" stroke="#000000" stroke-width="3.07" stroke-linecap="round" stroke-miterlimit="10" fill="none"/><path d="M43.46 193.5 43.45 193.52 43.44 193.53" stroke="#000000" stroke-width="3.07" stroke-linecap="round" stroke-miterlimit="10" fill="none"/><path d="M126.52 49.63 126.5 49.67 84.98 121.58 84.98 121.58 43.46 193.49" stroke="#000000" stroke-width="3.07" stroke-linecap="round" stroke-miterlimit="10" fill="none"/><path d="M84.87 73.83 84.97 121.58 84.98 121.58 85.08 169.59 85.08 169.6" stroke="#000000" stroke-width="3.07" stroke-linecap="round" stroke-miterlimit="10" fill="none"/><path d="M43.57 145.36 84.97 121.58 84.98 121.58 126.6 97.66 126.62 97.66" stroke="#000000" stroke-width="3.07" stroke-linecap="round" stroke-miterlimit="10" fill="none"/><line x1="126.5" y1="49.65" x2="126.52" y2="49.63" stroke="#000000" stroke-width="3.07" stroke-linecap="round" stroke-miterlimit="10" fill="none"/><line x1="85.1" y1="73.42" x2="126.5" y2="49.66" stroke="#000000" stroke-width="3.07" stroke-linecap="round" stroke-miterlimit="10" fill="none"/><line x1="43.28" y1="145.86" x2="43.39" y2="193.49" stroke="#000000" stroke-width="3.07" stroke-linecap="round" stroke-miterlimit="10" fill="none"/><line x1="1.82" y1="217.41" x2="1.8" y2="217.44" stroke="#000000" stroke-width="3.07" stroke-linecap="round" stroke-miterlimit="10" fill="none"/><path d="M1.88 217.31 1.87 217.32 1.82 217.4" stroke="#000000" stroke-width="3.07" stroke-linecap="round" stroke-miterlimit="10" fill="none"/><path d="M126.39 1.65 126.24 1.9 126.23 1.92" stroke="#000000" stroke-width="3.07" stroke-linecap="round" stroke-miterlimit="10" fill="none"/><line x1="126.41" y1="1.61" x2="126.39" y2="1.64" stroke="#000000" stroke-width="3.07" stroke-linecap="round" stroke-miterlimit="10" fill="none"/><path d="M251.97 218.02 251.89 217.98 210.25 193.93 210.23 193.92 210.15 193.87 168.47 169.81 168.44 169.8 168.39 169.77 126.72 145.7" stroke="#000000" stroke-width="3.07" stroke-linecap="round" stroke-miterlimit="10" fill="none"/><path d="M126.5 49.67 126.6 97.66 126.61 97.68 126.72 145.68 126.71 145.69 126.72 145.7" stroke="#000000" stroke-width="3.07" stroke-linecap="round" stroke-miterlimit="10" fill="none"/><path d="M126.39 1.91 126.5 49.65 126.5 49.66" stroke="#000000" stroke-width="3.07" stroke-linecap="round" stroke-miterlimit="10" fill="none"/><path d="M126.39 1.64 126.39 1.65 126.39 1.81 126.39 1.83" stroke="#000000" stroke-width="3.07" stroke-linecap="round" stroke-miterlimit="10" fill="none"/><path d="M168.47 169.81 168.46 169.79 168.45 169.77 168.42 169.72 126.63 97.71 126.61 97.68" stroke="#000000" stroke-width="3.07" stroke-linecap="round" stroke-miterlimit="10" fill="none"/><path d="M168.35 121.78 126.52 49.69 126.5 49.67 126.5 49.66" stroke="#000000" stroke-width="3.07" stroke-linecap="round" stroke-miterlimit="10" fill="none"/><path d="M210.23 193.92 210.2 193.88 210.17 193.83 168.36 121.79" stroke="#000000" stroke-width="3.07" stroke-linecap="round" stroke-miterlimit="10" fill="none"/><path d="M168.35 121.78 126.63 97.69 126.61 97.68" stroke="#000000" stroke-width="3.07" stroke-linecap="round" stroke-miterlimit="10" fill="none"/><line x1="210.11" y1="145.89" x2="168.36" y2="121.78" stroke="#000000" stroke-width="3.07" stroke-linecap="round" stroke-miterlimit="10" fill="none"/><path d="M168.25 73.76 168.35 121.78 168.36 121.78 168.36 121.79 168.47 169.75 168.47 169.77 168.47 169.79 168.47 169.81" stroke="#000000" stroke-width="3.07" stroke-linecap="round" stroke-miterlimit="10" fill="none"/><path d="M210.12 145.91 210.23 193.86 210.23 193.87 210.23 193.92" stroke="#000000" stroke-width="3.07" stroke-linecap="round" stroke-miterlimit="10" fill="none"/><path d="M168.3 73.73 168.21 73.68 126.55 49.63" stroke="#000000" stroke-width="3.07" stroke-linecap="round" stroke-miterlimit="10" fill="none"/><path d="M126.46 1.76 126.41 1.67 126.39 1.64 126.39 1.63" stroke="#000000" stroke-width="3.07" stroke-linecap="round" stroke-miterlimit="10" fill="none"/><path d="M251.97 218.02 251.95 217.98 251.92 217.93 210.12 145.91 210.12 145.89 210.11 145.89 168.25 73.76 168.21 73.68 126.47 1.77" stroke="#000000" stroke-width="3.07" stroke-linecap="round" stroke-miterlimit="10" fill="none"/><path d="M2.05 217.28 43.41 193.52 43.45 193.49 43.46 193.49 85.08 169.59 85.09 169.58 126.72 145.68 126.73 145.66 126.74 145.66" stroke="#000000" stroke-width="3.07" stroke-linecap="round" stroke-miterlimit="10" fill="none"/><path d="M1.82 217.41 1.82 217.4 1.87 217.38" stroke="#000000" stroke-width="3.07" stroke-linecap="round" stroke-miterlimit="10" fill="none"/><path d="M252 217.98 251.92 217.93 210.25 193.88 210.23 193.86 210.17 193.83 168.5 169.77 168.47 169.75 168.42 169.72 126.74 145.66" stroke="#000000" stroke-width="3.07" stroke-linecap="round" stroke-miterlimit="10" fill="none"/><path d="M85.09 169.58 85.13 169.59 168.39 169.77 168.45 169.77 168.47 169.77 168.5 169.77" stroke="#000000" stroke-width="3.07" stroke-linecap="round" stroke-miterlimit="10" fill="none"/><path d="M126.85 193.69 210.15 193.87 210.2 193.88 210.23 193.87 210.25 193.88" stroke="#000000" stroke-width="3.07" stroke-linecap="round" stroke-miterlimit="10" fill="none"/><path d="M43.46 193.5 43.46 193.49 43.49 193.49 126.84 193.68" stroke="#000000" stroke-width="3.07" stroke-linecap="round" stroke-miterlimit="10" fill="none"/><path d="M126.85 193.69 168.44 169.8 168.46 169.79 168.47 169.79 168.5 169.77" stroke="#000000" stroke-width="3.07" stroke-linecap="round" stroke-miterlimit="10" fill="none"/><line x1="85.21" y1="217.6" x2="126.84" y2="193.68" stroke="#000000" stroke-width="3.07" stroke-linecap="round" stroke-miterlimit="10" fill="none"/><path d="M168.6 217.79 126.85 193.69 126.84 193.68 85.11 169.59 85.09 169.58" stroke="#000000" stroke-width="3.07" stroke-linecap="round" stroke-miterlimit="10" fill="none"/><path d="M85.21 217.6 43.47 193.5 43.46 193.5 43.45 193.49" stroke="#000000" stroke-width="3.07" stroke-linecap="round" stroke-miterlimit="10" fill="none"/><path d="M168.61 217.86 168.72 217.79 210.25 193.93" stroke="#000000" stroke-width="3.07" stroke-linecap="round" stroke-miterlimit="10" fill="none"/><path d="M1.97 217.42 85.21 217.6 168.6 217.79 168.6 217.8 168.72 217.79 251.89 217.98 251.95 217.98 252 217.98" stroke="#000000" stroke-width="3.07" stroke-linecap="round" stroke-miterlimit="10" fill="none"/><path d="M1.8 217.41 1.82 217.41 1.84 217.41 1.86 217.41 1.88 217.41" stroke="#000000" stroke-width="3.07" stroke-linecap="round" stroke-miterlimit="10" fill="none"/><path d="M1.86 217.59 1.86 217.41 1.87 217.41 1.87 217.38 1.87 217.32 1.76 169.56 1.65 121.54 1.54 73.54 1.54 73.52" stroke="#000000" stroke-width="3.07" stroke-linecap="round" stroke-miterlimit="10" fill="none"/><path d="M126.47 1.77 126.46 1.76 126.41 1.79 126.39 1.81 126.24 1.9 84.83 25.68 43.19 49.59 1.56 73.5 1.54 73.52" stroke="#000000" stroke-width="3.07" stroke-linecap="round" stroke-miterlimit="10" fill="none"/><path d="M1.65 121.54 1.66 121.52 43.17 49.62 43.19 49.59" stroke="#000000" stroke-width="3.07" stroke-linecap="round" stroke-miterlimit="10" fill="none"/><path d="M1.76 169.56 1.77 169.55 43.29 97.62 84.82 25.7 84.83 25.68" stroke="#000000" stroke-width="3.07" stroke-linecap="round" stroke-miterlimit="10" fill="none"/><path d="M43.4 145.65 43.4 145.46 43.39 145.46 43.4 145.38 43.29 97.62 43.18 49.62 43.19 49.59" stroke="#000000" stroke-width="3.07" stroke-linecap="round" stroke-miterlimit="10" fill="none"/><path d="M84.94 73.7 84.87 73.74 84.71 73.84 43.29 97.62 1.66 121.53 1.65 121.54" stroke="#000000" stroke-width="3.07" stroke-linecap="round" stroke-miterlimit="10" fill="none"/><path d="M43.4 145.65 43.28 145.71 43.17 145.79 1.77 169.56 1.76 169.56" stroke="#000000" stroke-width="3.07" stroke-linecap="round" stroke-miterlimit="10" fill="none"/><path d="M84.99 73.73 84.99 73.62 84.98 73.49 84.98 73.36 84.88 25.71" stroke="#000000" stroke-width="3.07" stroke-linecap="round" stroke-miterlimit="10" fill="none"/><path d="M1.86 217.59 1.88 217.58 1.97 217.42 2.03 217.3 2.05 217.28 43.28 145.85 43.4 145.65 43.57 145.36 84.87 73.83 84.94 73.7 84.99 73.62 85.11 73.42 126.39 1.91 126.41 1.88 126.47 1.78 126.47 1.77 126.48 1.76" stroke="#000000" stroke-width="3.07" stroke-linecap="round" stroke-miterlimit="10" fill="none"/><path d="M1.88 217.58 1.88 217.41 1.87 217.4 1.87 217.38 1.87 217.37 1.88 217.31 1.77 169.56 1.77 169.55 1.66 121.53 1.66 121.52 1.55 73.53 1.56 73.5" stroke="#000000" stroke-width="3.07" stroke-linecap="round" stroke-miterlimit="10" fill="none"/><path d="M126.47 1.78 126.41 1.81 126.39 1.83 126.23 1.92 84.87 25.67 84.82 25.7 43.18 49.62 43.17 49.62 1.55 73.53 1.54 73.54" stroke="#000000" stroke-width="3.07" stroke-linecap="round" stroke-miterlimit="10" fill="none"/></g></g></svg>