<svg viewBox="0 0 360 288" xmlns="http://www.w3.org/2000/svg" xmlns:xlink="http://www.w3.org/1999/xlink" overflow="hidden"><defs></defs><g id="Layer_2"><g id="Layer_1-2"><rect x="0" y="0" width="360" height="288" fill="#FFAE00"/><path d="M148.87 288 340.05 288C334.923 281.8 330.17 275.753 325.79 269.86 318.301 259.983 311.68 249.477 306 238.46 301.67 230.033 298.491 221.063 296.55 211.79 293.784 197.505 295.415 182.718 301.23 169.38 306.23 157.61 313.66 147.24 320.53 137.67 332.53 120.97 341.05 105.58 334.78 93.67 328.31 81.27 310.52 72 293.52 63 278.15 54.86 264.72 47.85 263.3 40.6 262.16 34.71 271.19 29.48 279.78 25.08 287.65 21.08 294.37 16.72 292.49 13.08 290.13 8.62 280.79 5.55 271.49 2.08L226.53 0C234.58 3.43 242.93 6.8 243.16 10.93 243.39 15.06 234.09 18.81 223.73 22.82 212.4 27.21 200.42 31.72 198.41 38.32 196.4 44.92 206.91 52.69 219.07 60.9 232.54 70 246.86 80.09 247.51 92 247.85 98.27 244.3 105.18 238.21 112.06 231.13 120.06 221 128.15 209.72 137.2 197.38 147.11 184.09 157.77 172.38 170.2 160.17 183.11 150 198 144.85 214.8 142.105 224.002 140.773 233.568 140.9 243.17 141.149 254.562 142.764 265.883 145.71 276.89 146.63 280.52 147.7 284.23 148.87 288Z" fill="#1A1A1A"/><path d="M161.38 276.27C162.52 280.11 163.81 284.02 165.22 288L170 288C168.52 284 167.15 280 165.95 276.1 162.465 265.241 160.263 254.011 159.39 242.64 158.74 233.183 159.546 223.682 161.78 214.47 165.92 197.83 175.25 182.97 186.68 170.08 197.62 157.75 210.24 147.08 221.96 137.25 232.67 128.25 242.31 120.13 248.96 112.19 254.65 105.32 257.81 98.4 257.15 92.19 255.87 80.19 241.15 70.19 227.27 61.19 214.76 52.98 203.91 45.27 205.55 38.62 207.19 31.97 218.86 27.52 229.9 23.13 239.98 19.13 249.01 15.29 248.59 11.23 248.17 7.17 239.57 3.66 231.38 0.23L230.29 0.18C238.45 3.61 246.9 6.95 247.29 11.12 247.68 15.29 238.59 19 228.44 23 217.34 27.39 205.59 32 203.87 38.5 202.15 45 212.87 52.86 225.35 61.07 239.13 70.16 253.78 80.16 254.91 92.12 255.5 98.36 252.26 105.28 246.47 112.12 239.77 120.12 230.02 128.17 219.18 137.2 207.32 147.08 194.55 157.71 183.43 170.06 171.83 183 162.3 197.88 158 214.55 155.647 223.757 154.722 233.272 155.26 242.76 155.975 254.132 158.029 265.38 161.38 276.27Z" fill="#FFA800"/><path d="M284.75 62.76C301.34 71.76 318.75 81.11 324.57 93.43 330.25 105.51 320.67 120.87 307.65 137.61 300.16 147.23 292.08 157.61 286.31 169.47 279.702 182.655 277.191 197.516 279.1 212.14 280.499 221.423 283.192 230.464 287.1 239 292.177 250.081 298.245 260.681 305.23 270.67 309.08 276.3 313.31 282.08 317.85 288L322.31 288C317.65 282 313.31 276.19 309.36 270.5 302.277 260.536 296.102 249.957 290.91 238.89 286.925 230.376 284.142 221.35 282.64 212.07 280.552 197.513 282.886 182.664 289.34 169.45 294.96 157.62 302.91 147.23 310.27 137.62 323.08 120.89 332.45 105.52 326.65 93.47 320.7 81.14 303.21 71.82 286.54 62.81 271.47 54.66 258.28 47.58 257.2 40.38 256.33 34.38 265.66 29.27 274.51 24.87 282.6 20.87 289.59 16.55 287.84 12.87 285.69 8.42 276.44 5.34 267.23 1.87L266.16 1.82C275.34 5.27 284.57 8.35 286.67 12.82 288.38 16.47 281.33 20.75 273.18 24.82 264.27 29.21 254.86 34.35 255.67 40.33 256.63 47.51 269.76 54.61 284.75 62.76Z" fill="#FFA800"/><path d="M263 6.94C264.986 7.89367 266.73 9.28522 268.1 11.01L266.92 11.01C265.571 9.28019 263.839 7.887 261.86 6.94ZM268 15.15C266.437 16.9517 264.516 18.4091 262.36 19.43L261 19.38C263.171 18.3546 265.11 16.8984 266.7 15.1ZM252.73 24C249.12 25.6 245.48 27.21 242.14 29L240.71 28.94C244.09 27.14 247.71 25.53 251.38 23.94ZM234.2 34.66C232.476 36.3705 231.702 38.8192 232.13 41.21L230.55 41.15C230.154 38.7466 230.957 36.3014 232.7 34.6ZM237.56 48.74C241.402 51.9267 245.499 54.793 249.81 57.31L248.06 57.26C243.777 54.7441 239.71 51.8776 235.9 48.69ZM265.9 66.94C271.307 70.1375 276.477 73.7201 281.37 77.66L279.44 77.66C274.579 73.717 269.439 70.131 264.06 66.93ZM291.57 89.64C293.643 93.8507 294.14 98.6647 292.97 103.21L290.76 103.21C291.99 98.6694 291.543 93.8375 289.5 89.6ZM284.35 118.9C279.69 124.84 273.76 130.9 267.35 137.53L264.68 137.53C271.15 130.94 277.16 124.83 281.9 118.89ZM246.81 160.14C239.99 168.63 233.9 177.91 229.81 188.05L226.48 188.05C230.67 177.89 236.87 168.61 243.81 160.11ZM224.53 223C225.53 236.62 230.1 251.45 237.53 267.26L233.27 267.42C226 251.54 221.65 236.69 220.77 223Z" fill="#FFFFFF"/><path d="M249.7 1.1 254.41 3 253.31 3 248.62 1.12Z" fill="#FFFFFF"/></g></g></svg>