<svg viewBox="0 0 340 317.52" xmlns="http://www.w3.org/2000/svg" xmlns:xlink="http://www.w3.org/1999/xlink" overflow="hidden"><defs></defs><g id="Layer_2"><g id="Layer_1-2"><path d="M115.83 0C95.9975-0.00552208 79.9155 16.0675 79.91 35.9 79.9045 55.7325 95.9775 71.8145 115.81 71.82 135.643 71.8255 151.724 55.7525 151.73 35.92 151.73 35.9133 151.73 35.9067 151.73 35.9 151.73 16.073 135.657 1.52588e-06 115.83 1.52588e-06Z" fill="#15224B"/><path d="M166.3 141.07C163.581 141.378 160.843 140.692 158.59 139.14L155.27 136.86 150.2 133.38 117.68 111C112.019 107.112 104.278 108.549 100.39 114.21 96.5019 119.871 97.9391 127.612 103.6 131.5L120.69 143.24 139.44 156.12 148.98 162.67C149.4 162.96 149.84 163.24 150.27 163.5 154.619 166.098 159.673 167.266 164.72 166.84 165.99 166.727 167.25 166.52 168.49 166.22L174.91 164.63 186.06 161.87 221.53 153.12 229.39 151.17C236.042 149.506 240.1 142.781 238.47 136.12 237.033 130.45 231.847 126.541 226 126.72 225.123 126.739 224.251 126.856 223.4 127.07L193.07 134.56 167.77 140.81C167.28 140.931 166.782 141.018 166.28 141.07Z" fill="#15224B"/><path d="M59.64 105.5C57.2587 110.851 56.0287 116.643 56.03 122.5L56.03 190.22 59.64 187.62 108.64 152.45 95.47 143.45C83.2379 135.057 80.1254 118.338 88.5179 106.106 92.5541 100.223 98.7648 96.1878 105.78 94.89 107.403 94.5911 109.05 94.4405 110.7 94.44 116.121 94.4345 121.415 96.0771 125.88 99.15L149.5 115.37C145.303 95.0391 127.43 80.4334 106.67 80.37L98.27 80.37C81.5638 80.3941 66.4329 90.2372 59.64 105.5Z" fill="#15224B"/><path d="M56 214.25C56.022 222.067 62.3626 228.395 70.18 228.4L136.18 228.4C136.62 228.4 137.05 228.4 137.48 228.33L185.92 228.33 189.04 231.92 257.61 310.92C264.82 319.066 277.256 319.857 285.44 312.69L286.67 311.62C294.806 304.405 295.596 291.977 288.44 283.79L210.44 193.95C207.806 190.952 204.315 188.833 200.44 187.88L200.44 187.88 199.58 187.69 199.24 187.63C199.055 187.587 198.868 187.554 198.68 187.53L198.19 187.46 197.74 187.46 197.21 187.41 196.77 187.41 196.26 187.41 195.54 187.41 150.37 187.41 150.37 179.51C147.001 178.371 143.808 176.769 140.88 174.75L121.32 161.32 59.64 205.42 56 208 56 214.23Z" fill="#15224B"/><path d="M14.43 307.53 150.36 307.53C171.3 306.91 185.36 285.71 178.36 265.97L173.64 252.71C173.123 251.205 171.731 250.175 170.14 250.12L170.14 250.12 130.73 250.12C130.09 250.12 129.48 250.18 128.86 250.18L62.86 250.18C47.0803 250.169 34.291 237.38 34.28 221.6L34.28 129.92C34.2579 114.214 40.7804 99.2081 52.28 88.51L52.28 38C52.236 30.0436 45.7765 23.6154 37.82 23.61L14.43 23.61C6.48519 23.6318 0.0438948 30.0553 3.05176e-07 38L0 293.1C0.0219749 301.06 6.46965 307.508 14.43 307.53Z" fill="#10BED2"/><path d="M279.31 168.09C277.407 171.594 273.024 172.892 269.52 170.989 266.184 169.178 264.82 165.092 266.4 161.64 273.23 147.98 273.4 132.12 266.7 121.24 264.55 117.888 265.525 113.428 268.877 111.279 272.229 109.129 276.689 110.104 278.838 113.456 278.894 113.543 278.948 113.631 279 113.72 288.19 128.72 288.3 150.08 279.3 168.09ZM340 174.91 294.62 144.55C294.62 143.67 294.62 142.78 294.62 141.89 294.62 116.89 284.38 96.56 271.73 96.56 259.08 96.56 248.84 116.86 248.84 141.89 248.84 166.92 259.09 187.23 271.73 187.23 281 187.23 288.98 176.33 292.58 160.65L339.9 192.4 340 174.91Z" fill="#15224B"/></g></g></svg>