<svg version="1.1" viewBox="0 0 512.002 512.002" xmlns="http://www.w3.org/2000/svg" xmlns:xlink="http://www.w3.org/1999/xlink" id="Capa_1" overflow="hidden"><rect x="219.025" y="369.424" width="38.352" height="59.384" fill="#9E6B57"/><rect x="219.025" y="369.424" width="20.031" height="59.384" fill="#8C5A4B"/><rect x="255.968" y="369.424" width="36.936" height="59.384" fill="#AD7B64"/><path d=" M 374.355 189.849 C 374.355 123.512 319.795 69.918 253.101 71.491 C 188.455 73.016 136.542 127.145 137.588 191.8 C 138.38 240.824 168.978 282.593 212.046 299.81 C 213.568 300.419 214.583 301.87 214.583 303.509 L 214.583 340.978 L 297.344 340.978 L 297.344 304.155 C 297.344 302.167 298.532 300.357 300.375 299.611 C 343.752 282.045 374.355 239.526 374.355 189.849 Z" fill="#FFC850"/><path d=" M 232.047 299.811 C 188.979 282.594 158.382 240.825 157.589 191.801 C 156.582 129.534 204.696 77.04 265.995 71.883 C 261.756 71.528 257.455 71.389 253.101 71.492 C 188.455 73.017 136.542 127.146 137.588 191.801 C 138.38 240.825 168.978 282.594 212.046 299.811 C 213.568 300.419 214.583 301.871 214.583 303.51 L 214.583 340.979 L 234.584 340.979 L 234.584 303.51 C 234.584 301.87 233.569 300.419 232.047 299.811 Z" fill="#F9B428"/><path d=" M 292.9 428.81 L 262.487 499.668 C 259.59 506.417 252.337 506.417 249.44 499.668 L 219.027 428.81 L 292.9 428.81 L 292.9 428.81 Z" fill="#E4EAF8"/><path d=" M 239.055 428.81 L 219.028 428.81 L 249.441 499.669 C 252.338 506.418 259.591 506.418 262.487 499.669 L 265.977 491.537 L 239.055 428.81 Z" fill="#D8DCE5"/><path d=" M 233.818 463.27 L 249.44 499.668 C 252.337 506.417 259.59 506.417 262.487 499.668 L 278.109 463.27 L 233.818 463.27 Z" fill="#707487"/><path d=" M 262.487 499.668 L 265.977 491.536 L 253.845 463.27 L 233.819 463.27 L 249.441 499.668 C 252.318 506.372 259.574 506.456 262.487 499.668 Z" fill="#5E6377"/><path d=" M 302.153 336.627 L 209.775 336.627 C 203.955 336.627 199.192 341.389 199.192 347.21 L 199.192 360.615 C 199.192 366.435 203.954 371.198 209.775 371.198 L 302.152 371.198 C 307.972 371.198 312.735 366.436 312.735 360.615 L 312.735 347.21 C 312.735 341.389 307.973 336.627 302.153 336.627 Z" fill="#008CFF"/><path d=" M 282.213 195.764 L 229.714 195.764 C 223.88 195.764 219.106 200.537 219.106 206.372 L 219.106 219.81 C 219.106 225.644 223.879 230.418 229.714 230.418 L 282.213 230.418 C 288.047 230.418 292.822 225.645 292.822 219.81 L 292.822 206.372 C 292.822 200.537 288.048 195.764 282.213 195.764 Z" fill="#FC932B"/><path d=" M 302.153 351.196 L 209.775 351.196 C 205.106 351.196 201.124 348.129 199.729 343.912 C 199.385 344.952 199.192 346.058 199.192 347.21 L 199.192 360.615 C 199.192 366.435 203.954 371.198 209.775 371.198 L 302.152 371.198 C 307.972 371.198 312.735 366.436 312.735 360.615 L 312.735 347.21 C 312.735 346.059 312.542 344.952 312.198 343.912 C 310.803 348.128 306.821 351.196 302.153 351.196 Z" fill="#0385DD"/><path d=" M 282.213 210.417 L 229.714 210.417 C 225.025 210.417 221.025 207.331 219.635 203.091 C 219.295 204.126 219.106 205.227 219.106 206.372 L 219.106 219.81 C 219.106 225.644 223.879 230.418 229.714 230.418 L 282.213 230.418 C 288.047 230.418 292.822 225.645 292.822 219.81 L 292.822 206.372 C 292.822 205.227 292.633 204.126 292.293 203.091 C 290.902 207.329 286.903 210.417 282.213 210.417 Z" fill="#E87B18"/><path d=" M 117.854 190.839 C 117.854 186.697 114.496 183.339 110.354 183.339 L 72.662 183.339 C 68.52 183.339 65.162 186.697 65.162 190.839 C 65.162 194.981 68.52 198.339 72.662 198.339 L 110.352 198.339 C 114.496 198.34 117.854 194.982 117.854 190.839 Z"/><path d=" M 439.34 183.339 L 401.65 183.339 C 397.507 183.339 394.15 186.697 394.15 190.839 C 394.15 194.981 397.507 198.339 401.65 198.339 L 439.34 198.339 C 443.483 198.339 446.84 194.981 446.84 190.839 C 446.841 186.697 443.484 183.339 439.34 183.339 Z"/><path d=" M 256.002 52.691 C 260.145 52.691 263.502 49.333 263.502 45.191 L 263.502 7.5 C 263.502 3.358 260.145 0 256.002 0 C 251.859 0 248.502 3.358 248.502 7.5 L 248.502 45.19 C 248.501 49.334 251.858 52.691 256.002 52.691 Z"/><path d=" M 126.115 257.169 L 93.474 276.014 C 89.887 278.085 88.658 282.672 90.729 286.26 C 92.8 289.848 97.387 291.077 100.975 289.005 L 133.616 270.16 C 137.203 268.089 138.432 263.502 136.361 259.914 C 134.29 256.326 129.703 255.097 126.115 257.169 Z"/><path d=" M 385.886 124.511 L 418.528 105.666 C 422.115 103.595 423.344 99.008 421.273 95.42 C 419.203 91.833 414.613 90.604 411.027 92.675 L 378.385 111.52 C 374.798 113.591 373.569 118.178 375.64 121.766 C 377.711 125.355 382.302 126.581 385.886 124.511 Z"/><path d=" M 325.075 71.2 C 328.667 73.273 333.253 72.038 335.321 68.455 L 354.166 35.814 C 356.237 32.227 355.008 27.639 351.421 25.568 C 347.831 23.496 343.245 24.726 341.175 28.313 L 322.33 60.954 C 320.259 64.542 321.488 69.129 325.075 71.2 Z"/><path d=" M 176.682 68.454 C 178.753 72.042 183.34 73.271 186.928 71.199 C 190.515 69.128 191.744 64.541 189.673 60.953 L 170.828 28.312 C 168.756 24.725 164.169 23.496 160.582 25.567 C 156.995 27.638 155.766 32.225 157.837 35.813 L 176.682 68.454 Z"/><path d=" M 418.528 276.014 L 385.886 257.169 C 382.297 255.098 377.71 256.327 375.64 259.914 C 373.569 263.501 374.798 268.089 378.385 270.16 L 411.027 289.005 C 414.619 291.078 419.205 289.843 421.273 286.26 C 423.344 282.671 422.114 278.084 418.528 276.014 Z"/><path d=" M 93.474 105.666 L 126.115 124.511 C 129.702 126.583 134.29 125.353 136.361 121.766 C 138.432 118.179 137.203 113.591 133.616 111.52 L 100.975 92.675 C 97.387 90.603 92.8 91.833 90.729 95.42 C 88.658 99.007 89.887 103.595 93.474 105.666 Z"/><path d=" M 380.263 210.933 C 380.971 206.851 378.237 202.968 374.156 202.26 C 370.078 201.553 366.191 204.286 365.483 208.367 C 358.983 245.822 333.006 277.975 297.694 292.277 C 293.003 294.176 289.971 298.693 289.971 303.784 L 289.971 328.823 L 279.345 328.823 L 279.345 237.389 L 282.33 237.389 C 292.315 237.389 300.438 229.265 300.438 219.281 L 300.438 205.769 C 300.438 195.784 292.314 187.661 282.33 187.661 L 273.502 187.661 C 269.359 187.661 266.002 191.019 266.002 195.161 C 266.002 199.303 269.359 202.661 273.502 202.661 L 282.33 202.661 C 284.015 202.661 285.437 204.084 285.437 205.768 L 285.437 219.28 C 285.437 220.965 284.014 222.387 282.33 222.387 L 229.674 222.387 C 227.989 222.387 226.566 220.964 226.566 219.28 L 226.566 205.768 C 226.566 204.083 227.989 202.661 229.674 202.661 L 238.501 202.661 C 242.643 202.661 246.001 199.303 246.001 195.161 C 246.001 191.019 242.643 187.661 238.501 187.661 L 229.674 187.661 C 219.688 187.661 211.565 195.785 211.565 205.769 L 211.565 219.281 C 211.565 229.266 219.689 237.389 229.674 237.389 L 232.659 237.389 L 232.659 328.823 L 222.033 328.823 L 222.033 303.137 C 222.033 298.417 219.184 294.227 214.775 292.465 C 173.038 275.78 145.601 235.979 144.874 191.068 C 143.89 130.225 192.535 79.558 253.31 78.124 C 310.76 76.759 359.328 118.658 366.304 175.561 C 366.808 179.673 370.56 182.597 374.662 182.093 C 378.773 181.589 381.697 177.847 381.193 173.735 C 373.378 109.991 318.358 61.619 252.955 63.126 C 183.971 64.754 128.756 122.258 129.872 191.31 C 130.684 241.501 160.885 286.066 207.03 305.502 L 207.03 329.04 C 198.318 330.333 191.607 337.84 191.607 346.905 L 191.607 360.384 C 191.607 370.355 199.719 378.467 209.69 378.467 L 211.563 378.467 L 211.563 428.58 C 211.563 429.51 211.768 430.599 212.17 431.537 L 212.17 431.538 C 215.821 440.045 238.725 493.407 242.583 502.397 C 248.07 515.182 263.908 515.22 269.415 502.397 L 299.824 431.547 C 300.227 430.613 300.436 429.518 300.436 428.58 L 300.436 378.467 L 302.308 378.467 C 312.28 378.467 320.391 370.355 320.391 360.384 L 320.391 346.905 C 320.391 337.839 313.68 330.333 304.968 329.04 L 304.968 305.501 C 344.209 288.947 372.985 252.869 380.263 210.933 Z M 247.659 237.389 L 264.343 237.389 L 264.343 328.823 L 247.659 328.823 L 247.659 237.389 L 247.659 237.389 Z M 273.204 455.541 L 238.799 455.541 L 230.446 436.082 C 246.395 436.082 265.604 436.082 281.555 436.082 L 273.204 455.541 Z M 256.002 495.621 L 245.238 470.542 L 266.765 470.542 C 258.569 489.64 260.317 485.566 256.002 495.621 Z M 248.5 421.081 L 226.566 421.081 L 226.566 378.468 L 248.5 378.468 L 248.5 421.081 Z M 285.438 421.081 L 263.503 421.081 L 263.503 378.468 L 285.438 378.468 L 285.438 421.081 Z M 305.393 360.385 C 305.393 362.055 303.982 363.467 302.311 363.467 C 283.786 363.467 229.206 363.467 209.692 363.467 C 208.022 363.467 206.61 362.056 206.61 360.385 L 206.61 346.906 C 206.61 345.236 208.022 343.824 209.692 343.824 C 219.59 343.824 290.287 343.824 302.311 343.824 C 303.982 343.824 305.393 345.236 305.393 346.906 L 305.393 360.385 Z"/><g></g><g></g><g></g><g></g><g></g><g></g><g></g><g></g><g></g><g></g><g></g><g></g><g></g><g></g><g></g></svg>