<svg version="1.1" width="511.626" height="511.626" viewBox="0 0 511.626 511.626" xmlns="http://www.w3.org/2000/svg" xmlns:xlink="http://www.w3.org/1999/xlink" id="Capa_1" overflow="hidden"><g><g><path d=" M 234.693 270.09 C 243.447 249.345 250.868 233.071 256.959 221.27 C 261.527 212.516 265.813 205.14 269.81 199.144 C 273.803 193.148 278.66 187.295 284.368 181.586 C 290.083 175.875 296.646 171.588 304.073 168.736 C 311.492 165.881 319.77 164.453 328.911 164.453 L 401.995 164.453 L 401.995 219.271 C 401.995 221.745 402.898 223.888 404.705 225.694 C 406.512 227.503 408.654 228.406 411.125 228.406 C 413.794 228.406 415.984 227.552 417.688 225.838 L 509.053 134.479 C 510.771 132.764 511.626 130.578 511.626 127.912 C 511.626 125.246 510.771 123.059 509.053 121.338 L 417.976 30.26 C 415.697 28.358 413.404 27.411 411.124 27.411 C 408.455 27.411 406.271 28.266 404.554 29.981 C 402.85 31.694 401.994 33.881 401.994 36.546 L 401.994 91.36 L 328.91 91.36 C 315.964 91.36 303.784 92.934 292.361 96.074 C 280.938 99.214 270.801 103.209 261.952 108.065 C 253.1 112.919 244.536 119.437 236.255 127.623 C 227.975 135.805 220.931 143.707 215.129 151.32 C 209.325 158.931 203.232 168.447 196.857 179.869 C 190.483 191.289 185.343 201.283 181.441 209.847 C 177.538 218.413 172.828 228.977 167.309 241.54 C 158.552 262.286 151.129 278.562 145.039 290.362 C 140.472 299.116 136.186 306.494 132.192 312.489 C 128.196 318.485 123.339 324.337 117.63 330.046 C 111.919 335.761 105.352 340.045 97.929 342.9 C 90.508 345.754 82.226 347.184 73.091 347.184 L 9.139 347.184 C 6.473 347.184 4.283 348.033 2.572 349.75 C 0.863 351.461 0.004 353.645 0.004 356.313 L 0.004 411.136 C 0.004 413.799 0.866 415.989 2.579 417.706 C 4.293 419.418 6.484 420.273 9.146 420.273 L 73.1 420.273 C 86.046 420.273 98.225 418.699 109.647 415.557 C 121.067 412.415 131.205 408.418 140.053 403.566 C 148.906 398.71 157.47 392.19 165.75 384.004 C 174.028 375.825 181.074 367.92 186.878 360.31 C 192.68 352.695 198.772 343.181 205.149 331.762 C 211.523 320.338 216.665 310.346 220.565 301.783 C 224.464 293.217 229.173 282.656 234.693 270.09 Z"/><path d=" M 9.135 164.45 L 73.089 164.45 C 81.464 164.45 89.219 165.831 96.358 168.593 C 103.497 171.355 109.492 174.684 114.345 178.588 C 119.199 182.492 124.052 187.867 128.906 194.718 C 133.759 201.573 137.614 207.618 140.469 212.849 C 143.322 218.085 146.843 224.986 151.031 233.55 C 165.69 199.099 178.725 173.118 190.146 155.607 C 159.692 112.782 120.673 91.366 73.088 91.366 L 9.135 91.366 C 6.469 91.366 4.279 92.221 2.568 93.936 C 0.859 95.647 0 97.834 0 100.5 L 0 155.318 C 0 157.985 0.855 160.169 2.568 161.881 C 4.283 163.596 6.473 164.45 9.135 164.45 Z"/><path d=" M 417.983 286.085 C 415.697 284.183 413.411 283.238 411.125 283.238 C 408.463 283.238 406.272 284.09 404.562 285.804 C 402.851 287.515 401.996 289.705 401.996 292.367 L 401.996 347.19 L 328.905 347.19 C 320.527 347.19 312.773 345.807 305.634 343.043 C 298.495 340.284 292.499 336.955 287.647 333.05 C 282.798 329.149 277.942 323.77 273.089 316.915 C 268.233 310.063 264.376 304.017 261.522 298.78 C 258.67 293.554 255.149 286.645 250.961 278.087 C 236.306 312.346 223.365 338.327 212.133 356.03 C 217.27 363.452 222.6 370.067 228.12 375.868 C 233.638 381.672 238.874 386.764 243.822 391.144 C 248.771 395.518 254.386 399.33 260.666 402.56 C 266.949 405.797 272.466 408.508 277.229 410.699 C 282 412.888 287.989 414.648 295.219 415.982 C 302.45 417.31 308.541 418.316 313.49 418.973 C 318.438 419.637 325.197 420.116 333.762 420.404 C 342.324 420.691 349.272 420.78 354.596 420.691 C 359.931 420.595 367.641 420.493 377.73 420.404 C 387.819 420.311 395.909 420.26 402.001 420.26 L 402.001 475.079 C 402.001 477.553 402.904 479.695 404.711 481.502 C 406.518 483.31 408.66 484.213 411.131 484.213 C 413.8 484.213 415.99 483.358 417.694 481.647 L 509.059 390.289 C 510.77 388.571 511.625 386.388 511.625 383.719 C 511.625 381.053 510.77 378.866 509.052 377.156 L 417.983 286.085 Z"/></g></g><g></g><g></g><g></g><g></g><g></g><g></g><g></g><g></g><g></g><g></g><g></g><g></g><g></g><g></g><g></g></svg>