<svg version="1.1" width="370.997" height="370.996" xmlns="http://www.w3.org/2000/svg" xmlns:xlink="http://www.w3.org/1999/xlink" id="svg2" overflow="hidden"><defs id="defs3056"></defs><g id="图层_1"><g id="g3050"><path d=" M 185.497 61.132 C 254.173 61.132 309.863 116.822 309.863 185.497 C 309.863 254.173 254.173 309.864 185.497 309.864 C 116.822 309.864 61.132 254.174 61.132 185.497 C 61.132 116.823 116.822 61.132 185.497 61.132 L 185.497 61.132 Z M 166.929 83.4 L 166.929 83.4 C 172.355 83.4 176.797 87.69 176.797 92.936 L 176.797 155.835 C 176.797 161.078 172.355 165.37 166.929 165.37 L 166.929 165.37 C 166.327 165.37 165.739 165.311 165.165 165.212 C 132.551 177.54 114.178 201.835 99.192 222.054 C 92.582 230.97 76.65 221.046 85.223 208.921 C 98.76 189.779 117.855 165.413 152.09 150.453 C 153.781 149.71 155.429 149.224 157.059 149.008 L 157.059 125.895 C 135.483 131.514 121.437 142.084 103.553 155.763 C 94.734 162.512 82.16 148.571 93.751 139.29 C 112.048 124.628 131.285 113.856 156.1 107.016 C 156.422 106.924 156.741 106.848 157.06 106.775 L 157.06 92.936 C 157.059 87.69 161.5 83.4 166.929 83.4 L 166.929 83.4 Z M 204.069 83.4 L 204.066 83.4 C 198.639 83.4 194.198 87.69 194.198 92.936 L 194.198 155.835 C 194.198 161.078 198.639 165.37 204.066 165.37 L 204.069 165.37 C 204.668 165.37 205.257 165.311 205.83 165.212 C 238.444 177.54 256.818 201.835 271.805 222.054 C 278.415 230.97 294.347 221.046 285.772 208.921 C 272.236 189.779 253.14 165.413 218.905 150.453 C 217.216 149.71 215.568 149.224 213.937 149.008 L 213.937 125.895 C 235.512 131.514 249.558 142.084 267.443 155.763 C 276.261 162.512 288.837 148.571 277.245 139.29 C 258.948 124.628 239.712 113.856 214.897 107.016 C 214.575 106.924 214.256 106.848 213.937 106.775 L 213.937 92.936 C 213.937 87.69 209.496 83.4 204.069 83.4 L 204.069 83.4 Z M 185.527 243.148 C 200.998 245.878 206.205 260.904 213.662 282.685 C 217.255 293.187 235.615 285.617 230.218 271.786 C 225.092 258.657 222.029 251.56 215.071 240.977 C 209.388 232.337 197.634 228.486 195.45 223.343 C 195.372 223.166 195.295 223.001 195.217 222.853 L 195.217 204.3 C 226.023 213.31 236.68 240.189 247.145 261.207 C 252.097 271.144 270.66 262.207 263.291 249.317 C 252.35 230.175 242.158 201.774 203.877 186.809 C 200.86 185.631 198.044 185.069 195.217 185.434 L 195.217 178.472 C 195.217 173.233 190.776 168.937 185.347 168.937 L 185.347 168.937 C 179.917 168.937 175.478 173.232 175.478 178.472 L 175.478 185.353 C 172.92 185.183 170.361 185.745 167.631 186.809 C 129.353 201.774 119.161 230.175 108.216 249.317 C 100.85 262.207 119.411 271.143 124.363 261.207 C 134.734 240.376 145.3 213.788 175.478 204.546 L 175.478 223.611 C 173.001 228.62 161.565 232.493 155.985 240.977 C 149.028 251.56 145.963 258.657 140.835 271.786 C 135.438 285.617 153.797 293.187 157.393 282.685 C 164.847 260.904 170.056 245.879 185.527 243.148 L 185.527 243.148 Z M 198.753 355.801 L 198.753 355.198 C 204.671 354.277 208.599 350.867 210.54 344.948 C 209.852 345.257 209.17 345.457 208.484 345.562 C 207.915 345.764 207.235 345.816 206.435 345.719 C 201.193 345.509 198.578 342.76 198.578 337.463 C 199.148 331.86 202.28 328.95 207.974 328.75 C 214.469 329.154 217.83 333.028 218.056 340.364 C 217.144 349.533 210.706 354.687 198.753 355.801 L 198.753 355.801 Z M 205.241 335.323 C 205.013 341.337 206.211 344.187 208.826 343.881 C 209.97 343.881 210.648 343.733 210.882 343.426 C 210.882 343.322 210.882 342.866 210.882 342.048 C 210.99 341.03 211.108 340.313 211.217 339.907 C 211.217 335.937 210.935 333.283 210.363 331.961 C 209.914 330.534 209.059 329.822 207.807 329.822 C 205.752 329.717 204.896 331.556 205.241 335.323 L 205.241 335.323 Z M 160.338 348.548 C 160.385 351.827 161.627 353.525 164.042 353.666 C 166.467 353.703 167.699 352.273 167.744 349.395 C 167.888 347.182 166.13 345.084 162.475 343.104 C 162.371 343.196 162.262 343.339 162.151 343.529 C 160.865 345.047 160.262 346.725 160.338 348.548 L 160.338 348.548 Z M 161.378 332.984 C 161.341 335.201 163.048 337.148 166.493 338.842 C 167.673 337.61 168.277 336.225 168.3 334.682 C 168.242 331.705 167.058 330.147 164.743 330.009 C 162.739 330.168 161.617 331.158 161.378 332.984 L 161.378 332.984 Z M 165.394 329.011 C 170.235 329.19 172.783 331.006 173.044 334.474 C 173.004 336.878 171.14 338.578 167.436 339.577 C 171.398 341.95 173.404 344.579 173.465 347.472 C 173.071 352.172 169.876 354.528 163.877 354.523 C 158.398 354.342 155.584 352.324 155.438 348.472 C 155.379 345.394 157.47 343.362 161.696 342.372 C 157.833 340.48 155.974 338.143 156.12 335.358 C 156.404 331.224 159.492 329.105 165.394 329.011 L 165.394 329.011 Z M 290.933 53.803 L 291.502 53.177 L 307.444 67.861 L 302.627 73.163 L 301.869 72.466 C 304.422 69.085 303.659 65.714 299.588 62.345 C 298.142 60.89 297.086 60.677 296.413 61.708 L 290.845 67.836 C 293.392 70.694 296.095 70.769 298.95 68.057 L 299.596 68.653 L 291.489 77.587 L 290.839 76.989 C 293.128 73.888 292.851 71.152 289.995 68.771 L 284.148 75.213 C 282.997 76.189 283.339 77.4 285.195 78.846 C 288.512 82.161 292.337 82.822 296.659 80.825 L 297.412 81.522 L 291.329 86.03 L 275.177 71.15 L 275.74 70.526 C 277.535 72.175 278.957 72.28 280.011 70.836 L 291.618 58.057 C 292.882 56.803 292.654 55.389 290.933 53.803 L 290.933 53.803 Z M 98.572 54.699 L 99.204 55.311 C 97.433 56.99 97.492 58.543 99.38 59.969 L 102.846 63.33 C 102.192 65.691 100.335 68.585 97.281 72.012 C 91.084 77.974 84.839 78.245 78.545 72.816 C 72.924 66.548 72.792 60.226 78.153 53.866 C 79.174 52.948 80.814 51.96 83.078 50.892 C 83.904 50.462 84.417 50.14 84.621 49.932 C 85.167 49.513 85.118 48.716 84.478 47.552 L 85.197 46.812 L 91.502 52.935 L 90.888 53.565 C 85.754 51.849 81.89 52.183 79.299 54.57 C 76.036 57.931 77.309 62.372 83.126 67.877 C 88.876 73.456 93.45 74.488 96.85 70.985 C 98.756 69.162 99.009 67.636 97.606 66.418 L 94.771 63.665 C 93.58 62.231 92.058 62.53 90.228 64.558 L 89.597 63.945 L 98.572 54.699 L 98.572 54.699 Z M 61.006 112.189 L 60.315 111.665 C 61.671 109.782 61.517 108.269 59.842 107.131 L 45.867 96.623 C 43.365 96.804 42.008 97.117 41.804 97.568 L 41.107 97.045 L 45.702 90.676 L 65.867 89.645 L 56.971 82.955 C 55.161 81.354 53.484 81.545 51.927 83.533 L 51.229 83.01 L 55.911 76.523 L 56.603 77.044 C 55.531 79.027 55.774 80.422 57.332 81.226 L 74.54 94.167 L 73.944 94.993 L 48.42 96.536 L 60.202 105.399 C 62.037 107.144 63.713 106.952 65.245 104.831 L 65.94 105.353 L 61.006 112.189 L 61.006 112.189 Z M 53.215 125.629 L 54.01 125.938 L 49.515 138.273 L 48.721 137.964 C 49.467 135.64 49.028 134.221 47.408 133.686 L 31.158 127.317 C 29.574 126.698 28.338 127.467 27.451 129.626 L 26.653 129.317 L 31.151 116.977 L 31.947 117.29 C 32.001 117.419 32.008 117.527 31.976 117.615 C 31.176 119.808 31.589 121.172 33.203 121.698 L 49.458 128.067 C 51.152 128.949 52.404 128.131 53.215 125.629 L 53.215 125.629 Z M 42.594 149.489 L 43.44 149.54 L 42.742 162.116 L 41.89 162.065 C 42.006 160.017 41.777 159.028 41.207 159.092 C 40.829 159.069 40.293 159.333 39.602 159.872 L 31.014 166.264 L 31.799 167.336 L 38.878 167.758 C 40.657 168.055 41.614 166.987 41.753 164.554 L 42.605 164.604 L 41.902 177.178 L 41.049 177.128 C 41.173 174.885 40.34 173.759 38.543 173.754 L 21.134 172.722 C 19.437 172.619 18.484 173.641 18.268 175.776 L 17.418 175.727 L 18.118 163.149 L 18.969 163.2 C 18.736 165.627 19.808 166.818 22.177 166.765 L 29.958 167.226 L 22.494 158.566 C 21.696 157.542 21.063 157.065 20.586 157.131 C 19.844 156.894 19.36 157.941 19.132 160.277 L 18.282 160.226 L 18.887 149.404 L 19.737 149.455 C 19.22 151.867 21.737 156.029 27.275 161.937 L 41.639 151.339 C 42.126 151.078 42.441 150.603 42.569 149.927 C 42.58 149.734 42.586 149.583 42.594 149.489 L 42.594 149.489 Z M 19.398 216.044 L 18.554 216.077 L 17.971 194.405 L 25.13 194.163 L 25.156 195.194 C 20.953 195.724 19.067 198.619 19.49 203.882 C 19.455 205.934 20.035 206.837 21.248 206.605 L 29.523 206.326 C 29.797 202.51 27.965 200.521 24.033 200.359 L 24.007 199.48 L 36.066 199.073 L 36.087 199.952 C 32.268 200.469 30.503 202.578 30.786 206.283 L 39.483 205.991 C 40.983 206.134 41.612 205.04 41.357 202.704 C 41.421 198.016 39.228 194.812 34.785 193.104 L 34.757 192.08 L 42.228 193.296 L 42.822 215.253 L 41.977 215.285 C 41.908 212.849 40.997 211.753 39.224 212.007 L 21.97 212.59 C 20.19 212.556 19.335 213.706 19.398 216.044 L 19.398 216.044 Z M 54.853 247.616 L 54.023 247.92 C 53.57 246.94 53.194 246.353 52.913 246.144 C 52.913 246.144 52.847 246.112 52.73 246.056 C 52.121 245.544 51.092 245.56 49.626 246.095 L 34.063 251.748 C 31.792 252.36 31.056 253.766 31.86 255.971 L 31.032 256.269 L 26.878 244.846 C 24.868 238.718 25.907 234.862 30.006 233.27 C 32.42 232.49 34.614 232.946 36.572 234.622 C 38.052 235.541 39.51 238.284 40.964 242.851 L 47.574 240.451 C 49.998 239.981 50.717 238.523 49.723 236.085 L 50.552 235.781 L 54.853 247.616 L 54.853 247.616 Z M 30.361 246.698 L 39.723 243.299 C 38.683 238.999 36.222 237.661 32.341 239.279 C 28.668 240.61 27.401 242.683 28.519 245.493 C 28.92 246.597 29.537 246.999 30.361 246.698 L 30.361 246.698 Z M 248.05 338.102 C 249.505 341.038 251.357 342.035 253.601 341.118 C 255.808 340.109 256.301 338.291 255.101 335.668 C 254.276 333.61 251.787 332.479 247.634 332.269 C 247.578 332.395 247.542 332.574 247.525 332.791 C 247.017 334.714 247.194 336.489 248.05 338.102 L 248.05 338.102 Z M 242.278 323.607 C 243.203 325.621 245.583 326.642 249.423 326.688 C 249.956 325.069 249.901 323.555 249.261 322.158 C 247.92 319.492 246.183 318.596 244.036 319.473 C 242.292 320.48 241.709 321.86 242.278 323.607 L 242.278 323.607 Z M 244.189 318.29 C 248.636 316.362 251.721 316.908 253.448 319.922 C 254.448 322.11 253.499 324.447 250.587 326.945 C 255.187 327.38 258.133 328.885 259.433 331.465 C 261.107 335.879 259.232 339.382 253.816 341.966 C 248.798 344.166 245.389 343.553 243.595 340.143 C 242.215 337.386 243.225 334.657 246.616 331.939 C 242.314 331.898 239.63 330.59 238.561 328.016 C 237.032 324.161 238.906 320.918 244.189 318.29 L 244.189 318.29 Z M 122.746 342.595 L 122.353 343.403 L 109.491 337.108 L 109.885 336.305 C 112.923 338.015 114.881 337.529 115.744 334.851 L 122.166 321.72 C 122.949 320.114 122.897 319.088 122.005 318.652 C 121.425 318.48 120.355 318.291 118.796 318.083 L 119.187 317.273 L 129.597 317.717 L 130.273 318.047 L 120.704 337.614 C 119.167 339.852 119.847 341.511 122.746 342.595 L 122.746 342.595 Z M 331.208 176.503 L 330.381 176.523 L 329.649 163.423 L 330.478 163.405 C 330.7 165.832 331.64 166.979 333.288 166.851 L 350.22 166.495 C 351.866 166.46 352.672 165.276 352.634 162.946 L 353.463 162.93 L 354.197 176.029 L 353.369 176.046 C 353.268 175.946 353.222 175.849 353.218 175.754 C 353.088 173.429 352.197 172.33 350.553 172.461 L 333.624 172.815 C 331.771 172.652 330.969 173.888 331.208 176.503 L 331.208 176.503 Z M 339.046 259.667 L 338.245 259.341 C 338.225 259.112 338.202 259.043 338.167 259.145 C 338.497 257.943 338.381 257.003 337.809 256.33 L 329.744 244.843 L 323.496 242.277 C 321.328 240.95 319.861 241.628 319.096 244.318 L 318.301 243.988 L 322.962 231.057 L 323.767 231.386 C 322.766 233.866 323.413 235.46 325.694 236.175 L 330.749 238.251 L 344.511 236.063 C 345.852 235.724 346.824 235.006 347.421 233.918 L 348.218 234.247 L 343.711 246.735 L 342.913 246.411 C 343.75 244.088 343.722 242.905 342.815 242.867 C 342.465 242.726 341.908 242.715 341.142 242.851 C 340.837 242.839 340.674 242.878 340.641 242.979 L 331.042 244.206 L 335.955 250.897 C 336.791 252.236 337.638 253.143 338.487 253.603 C 339.428 254.1 340.322 253.305 341.179 251.205 L 341.979 251.535 L 339.046 259.667 L 339.046 259.667 Z M 329.573 210.833 L 328.747 210.793 L 329.31 197.402 L 330.137 197.439 C 329.835 200.175 330.887 201.455 333.283 201.274 L 351.852 202.172 C 352.041 197.659 350.174 195.108 346.247 194.529 L 346.288 193.498 L 353.304 193.983 L 352.353 216.509 L 345.328 216.311 L 345.378 215.137 C 349.438 214.843 351.507 212.533 351.598 208.204 L 333.03 207.309 C 330.662 206.81 329.509 207.977 329.573 210.833 L 329.573 210.833 Z M 341.164 142.647 L 341.011 141.674 C 344.953 139.624 346.758 136.963 346.432 133.684 C 345.855 131.208 344.542 130.093 342.494 130.317 C 340.79 130.303 339.556 131.783 338.793 134.755 L 337.105 140.296 C 335.924 143.046 333.963 144.69 331.202 145.216 C 326.513 145.483 323.657 142.943 322.63 137.594 C 322.399 136.11 322.336 134.502 322.441 132.78 C 322.542 132.194 322.603 131.707 322.642 131.324 C 322.541 130.671 322.159 130.354 321.496 130.364 L 321.344 129.386 L 329.791 128.053 L 329.943 129.026 C 325.147 131.018 323.038 133.87 323.623 137.581 C 324.045 140.269 325.568 141.548 328.196 141.42 C 330.06 141.218 331.283 139.648 331.861 136.71 L 332.738 134.144 C 333.993 129.482 336.165 127.045 339.252 126.843 C 343.913 126.392 346.684 128.658 347.562 133.657 C 347.733 134.764 347.666 136.109 347.344 137.68 C 347.183 138.462 347.132 139.045 347.192 139.412 C 347.183 139.982 347.655 140.295 348.609 140.332 L 348.781 141.441 L 341.164 142.647 L 341.164 142.647 Z M 324.606 92.008 L 316.793 97.696 C 319.426 101.816 322.312 102.558 325.461 99.903 C 328.386 97.776 328.949 95.487 327.173 93.039 C 326.215 91.567 325.361 91.221 324.606 92.008 L 324.606 92.008 Z M 316.729 118.029 L 316.016 118.545 L 311.534 112.387 L 316.444 99.214 L 315.84 98.387 L 309.917 102.695 C 307.718 103.815 307.398 105.371 308.974 107.371 L 308.263 107.889 L 300.848 97.699 L 301.562 97.181 C 302.78 99.193 304.363 99.37 306.301 97.724 L 319.691 87.983 C 321.715 86.626 322.033 85.063 320.634 83.308 L 321.343 82.79 L 328.413 92.504 C 332.407 98.169 332.705 102.305 329.282 104.909 C 326.675 106.807 323.793 106.492 320.625 103.965 L 316.462 116.417 C 316.271 117.155 316.361 117.691 316.729 118.029 L 316.729 118.029 Z M 229.566 46.17 L 229.405 46.981 L 216.46 44.871 L 216.617 44.061 C 219.037 44.368 220.354 43.694 220.585 42.059 L 223.891 25.449 C 224.214 23.831 223.228 22.792 220.947 22.323 L 221.108 21.511 L 234.056 23.621 L 233.892 24.431 C 233.777 24.507 233.67 24.531 233.58 24.519 C 231.278 24.146 230.01 24.776 229.789 26.41 L 226.482 43.018 C 225.925 44.793 226.958 45.84 229.566 46.17 L 229.566 46.17 Z M 174.024 41.149 L 174.017 40.323 C 176.557 40.273 177.768 39.287 177.659 37.365 L 177.606 20.742 C 175.801 18.951 174.636 18.099 174.104 18.201 L 174.102 17.378 L 182.672 17.204 L 196.839 31.9 L 196.802 21.323 C 197.005 19.031 195.739 17.866 192.985 17.828 L 192.981 17 L 201.704 16.83 L 201.706 17.653 C 199.279 17.981 198.227 18.963 198.552 20.6 L 198.614 41.074 L 197.506 41.092 L 179.362 22.631 L 179.404 36.648 C 179.094 39.034 180.361 40.197 183.218 40.143 L 183.219 40.965 L 174.024 41.149 L 174.024 41.149 Z M 276.223 43.298 L 275.815 44.014 C 274.282 43.256 272.798 43.517 271.371 44.806 L 253.669 58.273 L 252.746 57.75 L 254.471 34.767 C 254.626 33.063 254.064 31.805 252.795 30.977 L 253.204 30.26 L 264.515 36.665 L 264.109 37.385 C 261.919 36.145 260.705 36.034 260.473 37.057 C 260.159 37.615 260.011 38.69 260.037 40.275 L 258.902 52.41 L 268.922 44.84 C 268.968 44.757 269.102 44.625 269.328 44.436 C 270.124 43.838 270.615 43.385 270.796 43.064 C 271.384 42.238 270.684 41.216 268.717 39.993 L 269.123 39.276 L 276.223 43.298 L 276.223 43.298 Z M 155.682 19.8 L 155.877 20.601 C 153.669 21.141 152.887 22.321 153.551 24.15 L 156.219 35.092 C 156.871 38.23 156.696 40.553 155.675 42.07 C 154.301 43.835 151.943 45.101 148.62 45.862 C 145.137 46.467 142.348 46.372 140.24 45.582 C 138.006 44.718 136.582 42.813 135.971 39.86 L 133.203 28.507 C 132.884 26.331 131.559 25.478 129.228 25.947 L 129.028 25.144 L 142.282 22.487 L 142.479 23.291 C 139.586 23.687 138.578 25.005 139.447 27.253 L 142.214 38.607 C 143.119 43.183 145.539 45.032 149.477 44.147 C 154.148 43.21 155.836 40.312 154.544 35.43 L 152.005 25.017 C 151.644 22.665 150.093 21.762 147.352 22.31 L 147.156 21.508 L 155.682 19.8 L 155.682 19.8 Z M 185.497 0 C 287.928 0 370.997 83.069 370.997 185.496 C 370.997 287.929 287.929 370.996 185.497 370.996 C 83.068 370.996 0 287.929 0 185.496 C 0 83.069 83.068 0 185.497 0 L 185.497 0 Z M 185.497 7.567 C 283.748 7.567 363.429 87.248 363.429 185.496 C 363.429 283.748 283.748 363.43 185.497 363.43 C 87.248 363.43 7.567 283.748 7.567 185.496 C 7.566 87.248 87.248 7.567 185.497 7.567 L 185.497 7.567 Z M 185.497 48.74 C 261.016 48.74 322.256 109.981 322.256 185.498 C 322.256 261.017 261.016 322.256 185.497 322.256 C 109.979 322.256 48.74 261.017 48.74 185.498 C 48.74 109.98 109.979 48.74 185.497 48.74 L 185.497 48.74 Z M 185.497 52.827 C 258.758 52.827 318.169 112.238 318.169 185.498 C 318.169 258.759 258.758 318.169 185.497 318.169 C 112.237 318.169 52.827 258.759 52.827 185.498 C 52.827 112.238 112.237 52.827 185.497 52.827 L 185.497 52.827 Z" id="path3052" fill="#810000" fill-rule="evenodd"/></g></g></svg>