<svg version="1.1" viewBox="0 0 360.3 313.32" xmlns="http://www.w3.org/2000/svg" xmlns:xlink="http://www.w3.org/1999/xlink" overflow="hidden"><defs></defs><g id="图层_2"><g id="图层_1-2"><path d=" M 79.5 193.71 L 35.31 270.24 C 34.5257 271.592 34.986 273.324 36.3379 274.108 C 36.7729 274.36 37.2672 274.492 37.77 274.49 L 126.14 274.49 C 127.708 274.487 128.978 273.213 128.975 271.645 C 128.974 271.152 128.845 270.668 128.6 270.24 L 84.41 193.71 C 83.6325 192.354 81.9031 191.885 80.5472 192.663 C 80.1114 192.913 79.7499 193.274 79.5 193.71 Z" fill="#FFF000"/><path d=" M 177.69 193.71 L 133.51 270.24 C 132.726 271.592 133.186 273.324 134.538 274.108 C 134.97 274.359 135.461 274.49 135.96 274.49 L 224.34 274.49 C 225.903 274.491 227.171 273.225 227.172 271.662 C 227.172 271.163 227.041 270.672 226.79 270.24 L 182.6 193.71 C 181.823 192.354 180.093 191.885 178.737 192.663 C 178.301 192.913 177.94 193.274 177.69 193.71 Z" fill="#FFF000"/><path d=" M 275.89 193.71 L 231.7 270.24 C 230.916 271.592 231.376 273.324 232.728 274.108 C 233.163 274.36 233.657 274.492 234.16 274.49 L 322.53 274.49 C 324.098 274.487 325.368 273.213 325.365 271.645 C 325.364 271.152 325.235 270.668 324.99 270.24 L 280.8 193.71 C 280.022 192.354 278.293 191.885 276.937 192.663 C 276.501 192.913 276.14 193.274 275.89 193.71 Z" fill="#FFF000"/><path d=" M 226.79 108.67 L 182.6 185.2 C 181.821 186.562 182.294 188.297 183.655 189.075 C 184.083 189.32 184.567 189.449 185.06 189.45 L 273.43 189.45 C 274.993 189.457 276.265 188.195 276.272 186.632 C 276.274 186.129 276.142 185.635 275.89 185.2 L 231.7 108.67 C 230.923 107.314 229.193 106.845 227.837 107.623 C 227.401 107.873 227.04 108.234 226.79 108.67 Z" fill="#EE0000"/><path d=" M 128.6 108.67 L 84.41 185.2 C 83.6258 186.552 84.086 188.284 85.438 189.068 C 85.87 189.319 86.3606 189.45 86.86 189.45 L 175.24 189.45 C 176.803 189.451 178.071 188.185 178.072 186.622 C 178.072 186.123 177.941 185.632 177.69 185.2 L 133.51 108.67 C 132.732 107.314 131.003 106.845 129.647 107.623 C 129.211 107.873 128.85 108.234 128.6 108.67 Z" fill="#0000F2"/><path d=" M 177.69 185.2 L 133.51 108.67 C 132.726 107.318 133.186 105.586 134.538 104.802 C 134.97 104.551 135.461 104.42 135.96 104.42 L 224.34 104.42 C 225.903 104.419 227.171 105.685 227.172 107.248 C 227.172 107.747 227.041 108.238 226.79 108.67 L 182.6 185.2 C 181.823 186.556 180.093 187.025 178.737 186.247 C 178.301 185.997 177.94 185.636 177.69 185.2 Z" fill="#FFF000"/><path d=" M 226.79 270.24 L 182.6 193.71 C 181.816 192.352 182.281 190.615 183.64 189.83 C 184.071 189.581 184.561 189.45 185.06 189.45 L 273.43 189.45 C 274.998 189.45 276.27 190.721 276.27 192.29 C 276.271 192.788 276.139 193.278 275.89 193.71 L 231.7 270.24 C 230.923 271.596 229.193 272.065 227.837 271.287 C 227.401 271.037 227.04 270.676 226.79 270.24 Z" fill="#FFF000"/><path d=" M 128.6 270.24 L 84.41 193.71 C 83.6257 192.352 84.0911 190.615 85.4495 189.83 C 85.8784 189.583 86.3647 189.452 86.86 189.45 L 175.24 189.45 C 176.808 189.455 178.076 190.731 178.07 192.299 C 178.069 192.795 177.938 193.281 177.69 193.71 L 133.51 270.24 C 132.732 271.596 131.003 272.065 129.647 271.287 C 129.211 271.037 128.85 270.676 128.6 270.24 Z" fill="#FFF000"/><path d=" M 177.69 23.63 L 133.51 100.16 C 132.726 101.518 133.191 103.255 134.549 104.04 C 134.978 104.287 135.465 104.418 135.96 104.42 L 224.34 104.42 C 225.908 104.415 227.176 103.139 227.17 101.571 C 227.169 101.075 227.038 100.589 226.79 100.16 L 182.6 23.63 C 181.823 22.2741 180.093 21.8053 178.737 22.5828 C 178.301 22.8327 177.94 23.1942 177.69 23.63 Z" fill="#FFF000"/><line x1="180.15" y1="19.38" x2="32.86" y2="274.49" stroke="#231815" stroke-width="6" stroke-linecap="round" stroke-miterlimit="10" fill="none"/><line x1="327.44" y1="274.49" x2="32.86" y2="274.49" stroke="#231815" stroke-width="6" stroke-linecap="round" stroke-miterlimit="10" fill="none"/><line x1="180.15" y1="19.38" x2="327.44" y2="274.49" stroke="#231815" stroke-width="6" stroke-linecap="round" stroke-miterlimit="10" fill="none"/><line x1="229.25" y1="104.42" x2="131.05" y2="274.49" stroke="#231815" stroke-width="6" stroke-linecap="round" stroke-miterlimit="10" fill="none"/><line x1="229.25" y1="274.49" x2="131.05" y2="104.42" stroke="#231815" stroke-width="6" stroke-linecap="round" stroke-miterlimit="10" fill="none"/><line x1="278.34" y1="189.45" x2="81.95" y2="189.45" stroke="#231815" stroke-width="6" stroke-linecap="round" stroke-miterlimit="10" fill="none"/><line x1="131.05" y1="104.42" x2="229.25" y2="104.42" stroke="#231815" stroke-width="6" stroke-linecap="round" stroke-miterlimit="10" fill="none"/><line x1="278.34" y1="189.45" x2="229.25" y2="274.49" stroke="#231815" stroke-width="6" stroke-linecap="round" stroke-miterlimit="10" fill="none"/><line x1="81.95" y1="189.45" x2="131.05" y2="274.49" stroke="#231815" stroke-width="6" stroke-linecap="round" stroke-miterlimit="10" fill="none"/><rect x="32.86" y="274.49" rx="2.83" width="98.2" height="36.83" stroke="#231815" stroke-width="4" stroke-linejoin="round" fill="#00D800"/><rect x="131.05" y="274.49" rx="2.83" width="98.2" height="36.83" stroke="#231815" stroke-width="4" stroke-linejoin="round" fill="#00D800"/><rect x="229.25" y="274.49" rx="2.83" width="98.2" height="36.83" stroke="#231815" stroke-width="4" stroke-linejoin="round" fill="#00D800"/><rect x="-7.64" y="204.35" rx="2.83" width="98.2" height="36.83" stroke="#231815" stroke-width="4" stroke-linejoin="round" fill="#0000F2" transform="matrix(0.5,-0.866025,0.866025,0.5,-172.19,147.29)"/><rect x="41.46" y="119.32" rx="2.83" width="98.2" height="36.83" stroke="#231815" stroke-width="4" stroke-linejoin="round" fill="#FF0000" transform="matrix(0.5,-0.866025,0.866025,0.5,-74,147.29)"/><rect x="90.56" y="34.28" rx="2.83" width="98.2" height="36.83" stroke="#231815" stroke-width="4" stroke-linejoin="round" fill="#0000F2" transform="matrix(0.5,-0.866025,0.866025,0.5,24.2,147.29)"/><rect x="269.74" y="204.35" rx="2.83" width="98.2" height="36.83" stroke="#231815" stroke-width="4" stroke-linejoin="round" fill="#EE0000" transform="matrix(-0.5,-0.866025,0.866025,-0.5,285.33,610.27)"/><rect x="220.64" y="119.32" rx="2.83" width="98.2" height="36.83" stroke="#231815" stroke-width="4" stroke-linejoin="round" fill="#FEFE00" transform="matrix(-0.5,-0.866025,0.866025,-0.5,285.33,440.19)"/><rect x="171.55" y="34.28" rx="2.83" width="98.2" height="36.83" stroke="#231815" stroke-width="4" stroke-linejoin="round" fill="#EE0000" transform="matrix(-0.5,-0.866025,0.866025,-0.5,285.33,270.12)"/></g></g></svg>