<svg version="1.1" width="150" height="150" viewBox="-0.9 -0.9 1.8 1.8" xmlns="http://www.w3.org/2000/svg" xmlns:xlink="http://www.w3.org/1999/xlink" overflow="hidden"><rect x="-0.9" y="-0.9" width="1.8" height="1.8" fill="#FFFFFF"/><g stroke-width="0.1" stroke-linejoin="round" opacity="1"><path d=" M -0.457651 -0.635324 L 0.457651 -0.635324 L 0.545765 -0.147272 L -0.545765 -0.147272 Z" stroke="#000000" fill="#000000"/><path d=" M -0.545765 -0.147272 L 0.545765 -0.147272 L 0.483034 0.670563 L -0.483034 0.670563 Z" stroke="#000000" fill="#000000"/></g><g stroke-width="0" stroke-linejoin="round" stroke-opacity="0.5" opacity="1"><path d=" M -0.472987 -0.669128 L -0.307454 -0.669128 L -0.315739 -0.592644 L -0.486796 -0.592644 Z" stroke="#000000" fill="#404040"/><path d=" M -0.277755 -0.669128 L -0.112222 -0.669128 L -0.114984 -0.592644 L -0.28604 -0.592644 Z" stroke="#000000" fill="#404040"/><path d=" M -0.0825229 -0.669128 L 0.0830103 -0.669128 L 0.085772 -0.592644 L -0.0852846 -0.592644 Z" stroke="#000000" fill="#404040"/><path d=" M 0.112709 -0.669128 L 0.278243 -0.669128 L 0.286528 -0.592644 L 0.115471 -0.592644 Z" stroke="#000000" fill="#404040"/><path d=" M 0.307942 -0.669128 L 0.473475 -0.669128 L 0.487283 -0.592644 L 0.316227 -0.592644 Z" stroke="#000000" fill="#404040"/><path d=" M -0.488796 -0.578681 L -0.317739 -0.578681 L -0.326597 -0.496917 L -0.503558 -0.496917 Z" stroke="#000000" fill="#404040"/><path d=" M -0.287032 -0.578681 L -0.115975 -0.578681 L -0.118928 -0.496917 L -0.295889 -0.496917 Z" stroke="#000000" fill="#404040"/><path d=" M -0.0852678 -0.578681 L 0.0857888 -0.578681 L 0.0887412 -0.496917 L -0.0882202 -0.496917 Z" stroke="#000000" fill="#404040"/><path d=" M 0.116496 -0.578681 L 0.287553 -0.578681 L 0.29641 -0.496917 L 0.119449 -0.496917 Z" stroke="#000000" fill="#FEFE00"/><path d=" M 0.31826 -0.578681 L 0.489317 -0.578681 L 0.504079 -0.496917 L 0.327118 -0.496917 Z" stroke="#000000" fill="#404040"/><path d=" M -0.505698 -0.481972 L -0.328736 -0.481972 L -0.338227 -0.394361 L -0.521515 -0.394361 Z" stroke="#000000" fill="#404040"/><path d=" M -0.29695 -0.481972 L -0.119988 -0.481972 L -0.123152 -0.394361 L -0.30644 -0.394361 Z" stroke="#000000" fill="#404040"/><path d=" M -0.0882016 -0.481972 L 0.0887598 -0.481972 L 0.0919233 -0.394361 L -0.0913651 -0.394361 Z" stroke="#000000" fill="#FEFE00"/><path d=" M 0.120547 -0.481972 L 0.297508 -0.481972 L 0.306999 -0.394361 L 0.12371 -0.394361 Z" stroke="#000000" fill="#404040"/><path d=" M 0.329295 -0.481972 L 0.506256 -0.481972 L 0.522074 -0.394361 L 0.338785 -0.394361 Z" stroke="#000000" fill="#404040"/><path d=" M -0.523811 -0.378327 L -0.340522 -0.378327 L -0.350716 -0.284218 L -0.540801 -0.284218 Z" stroke="#000000" fill="#404040"/><path d=" M -0.307577 -0.378327 L -0.124289 -0.378327 L -0.127687 -0.284218 L -0.317772 -0.284218 Z" stroke="#000000" fill="#404040"/><path d=" M -0.0913444 -0.378327 L 0.091944 -0.378327 L 0.0953422 -0.284218 L -0.0947425 -0.284218 Z" stroke="#000000" fill="#404040"/><path d=" M 0.124889 -0.378327 L 0.308177 -0.378327 L 0.318371 -0.284218 L 0.128287 -0.284218 Z" stroke="#000000" fill="#404040"/><path d=" M 0.341122 -0.378327 L 0.52441 -0.378327 L 0.541401 -0.284218 L 0.351316 -0.284218 Z" stroke="#000000" fill="#404040"/><path d=" M -0.543269 -0.266971 L -0.353184 -0.266971 L -0.364164 -0.165615 L -0.561568 -0.165615 Z" stroke="#000000" fill="#404040"/><path d=" M -0.318994 -0.266971 L -0.12891 -0.266971 L -0.132569 -0.165615 L -0.329974 -0.165615 Z" stroke="#000000" fill="#404040"/><path d=" M -0.0947194 -0.266971 L 0.0953652 -0.266971 L 0.0990251 -0.165615 L -0.0983792 -0.165615 Z" stroke="#000000" fill="#404040"/><path d=" M 0.129555 -0.266971 L 0.31964 -0.266971 L 0.33062 -0.165615 L 0.133215 -0.165615 Z" stroke="#000000" fill="#404040"/><path d=" M 0.35383 -0.266971 L 0.543915 -0.266971 L 0.562214 -0.165615 L 0.36481 -0.165615 Z" stroke="#000000" fill="#404040"/><path d=" M -0.562521 -0.1423 L -0.365117 -0.1423 L -0.357621 0.0205839 L -0.550028 0.0205839 Z" stroke="#000000" fill="#404040"/><path d=" M -0.330722 -0.1423 L -0.133318 -0.1423 L -0.130819 0.0205839 L -0.323226 0.0205839 Z" stroke="#000000" fill="#404040"/><path d=" M -0.0989226 -0.1423 L 0.0984817 -0.1423 L 0.0959829 0.0205839 L -0.0964239 0.0205839 Z" stroke="#000000" fill="#404040"/><path d=" M 0.132877 -0.1423 L 0.330281 -0.1423 L 0.322785 0.0205839 L 0.130378 0.0205839 Z" stroke="#000000" fill="#404040"/><path d=" M 0.364676 -0.1423 L 0.56208 -0.1423 L 0.549587 0.0205839 L 0.35718 0.0205839 Z" stroke="#000000" fill="#404040"/><path d=" M -0.548297 0.0486184 L -0.35589 0.0486184 L -0.348764 0.203459 L -0.53642 0.203459 Z" stroke="#000000" fill="#404040"/><path d=" M -0.322355 0.0486184 L -0.129948 0.0486184 L -0.127573 0.203459 L -0.315229 0.203459 Z" stroke="#000000" fill="#404040"/><path d=" M -0.096413 0.0486184 L 0.0959938 0.0486184 L 0.0936185 0.203459 L -0.0940376 0.203459 Z" stroke="#000000" fill="#FEFE00"/><path d=" M 0.129529 0.0486184 L 0.321936 0.0486184 L 0.31481 0.203459 L 0.127153 0.203459 Z" stroke="#000000" fill="#404040"/><path d=" M 0.355471 0.0486184 L 0.547877 0.0486184 L 0.536001 0.203459 L 0.348345 0.203459 Z" stroke="#000000" fill="#404040"/><path d=" M -0.534773 0.230125 L -0.347117 0.230125 L -0.340335 0.377503 L -0.523469 0.377503 Z" stroke="#000000" fill="#404040"/><path d=" M -0.3144 0.230125 L -0.126744 0.230125 L -0.124483 0.377503 L -0.307618 0.377503 Z" stroke="#000000" fill="#404040"/><path d=" M -0.0940275 0.230125 L 0.0936286 0.230125 L 0.0913677 0.377503 L -0.0917667 0.377503 Z" stroke="#000000" fill="#404040"/><path d=" M 0.126345 0.230125 L 0.314002 0.230125 L 0.307219 0.377503 L 0.124085 0.377503 Z" stroke="#000000" fill="#FEFE00"/><path d=" M 0.346718 0.230125 L 0.534374 0.230125 L 0.52307 0.377503 L 0.339936 0.377503 Z" stroke="#000000" fill="#404040"/><path d=" M -0.521901 0.402899 L -0.338767 0.402899 L -0.332303 0.543342 L -0.511129 0.543342 Z" stroke="#000000" fill="#404040"/><path d=" M -0.306829 0.402899 L -0.123695 0.402899 L -0.12154 0.543342 L -0.300366 0.543342 Z" stroke="#000000" fill="#404040"/><path d=" M -0.0917573 0.402899 L 0.0913771 0.402899 L 0.0892226 0.543342 L -0.0896028 0.543342 Z" stroke="#000000" fill="#404040"/><path d=" M 0.123315 0.402899 L 0.306449 0.402899 L 0.299986 0.543342 L 0.12116 0.543342 Z" stroke="#000000" fill="#404040"/><path d=" M 0.338387 0.402899 L 0.521521 0.402899 L 0.510749 0.543342 L 0.331923 0.543342 Z" stroke="#000000" fill="#404040"/><path d=" M -0.509634 0.567557 L -0.330809 0.567557 L -0.324643 0.701543 L -0.499357 0.701543 Z" stroke="#000000" fill="#404040"/><path d=" M -0.299614 0.567557 L -0.120789 0.567557 L -0.118733 0.701543 L -0.293448 0.701543 Z" stroke="#000000" fill="#404040"/><path d=" M -0.0895941 0.567557 L 0.0892313 0.567557 L 0.0871759 0.701543 L -0.0875387 0.701543 Z" stroke="#000000" fill="#404040"/><path d=" M 0.120426 0.567557 L 0.299251 0.567557 L 0.293085 0.701543 L 0.118371 0.701543 Z" stroke="#000000" fill="#404040"/><path d=" M 0.330446 0.567557 L 0.509272 0.567557 L 0.498994 0.701543 L 0.32428 0.701543 Z" stroke="#000000" fill="#404040"/></g></svg>