<svg width="128" height="128" viewBox="-0.9 -0.9 1.8 1.8" xmlns="http://www.w3.org/2000/svg" xmlns:xlink="http://www.w3.org/1999/xlink" overflow="hidden"><g stroke-width="0.1" stroke-linejoin="round" opacity="1"><path d="M-0.522222-0.522222 0.522222-0.522222 0.522222 0.522222-0.522222 0.522222Z" stroke="#000000" fill="#000000"/></g><g stroke-width="0" stroke-linejoin="round" stroke-opacity="0.5" opacity="1"><path d="M-0.527778-0.527778-0.212963-0.527778-0.212963-0.212963-0.527778-0.212963Z" stroke="#000000" fill="#404040"/><path d="M-0.157407-0.527778 0.157407-0.527778 0.157407-0.212963-0.157407-0.212963Z" stroke="#000000" fill="#404040"/><path d="M0.212963-0.527778 0.527778-0.527778 0.527778-0.212963 0.212963-0.212963Z" stroke="#000000" fill="#404040"/><path d="M-0.527778-0.157407-0.212963-0.157407-0.212963 0.157407-0.527778 0.157407Z" stroke="#000000" fill="#0000F2"/><path d="M-0.157407-0.157407 0.157407-0.157407 0.157407 0.157407-0.157407 0.157407Z" stroke="#000000" fill="#0000F2"/><path d="M0.212963-0.157407 0.527778-0.157407 0.527778 0.157407 0.212963 0.157407Z" stroke="#000000" fill="#0000F2"/><path d="M-0.527778 0.212963-0.212963 0.212963-0.212963 0.527778-0.527778 0.527778Z" stroke="#000000" fill="#404040"/><path d="M-0.157407 0.212963 0.157407 0.212963 0.157407 0.527778-0.157407 0.527778Z" stroke="#000000" fill="#404040"/><path d="M0.212963 0.212963 0.527778 0.212963 0.527778 0.527778 0.212963 0.527778Z" stroke="#000000" fill="#404040"/></g><g stroke-width="0.02" stroke-linejoin="round" stroke-opacity="1" opacity="1"><path d="M-0.174457 0.554406 0.173691 0.554406 0.161686 0.718391-0.162452 0.718391Z" stroke="#000000" fill="#0000F2"/><path d="M0.195147 0.554406 0.543295 0.554406 0.50728 0.718391 0.183142 0.718391Z" stroke="#000000" fill="#0000F2"/><path d="M-0.554406-0.544061-0.554406-0.195913-0.718391-0.183908-0.718391-0.508046Z" stroke="#000000" fill="#0000F2"/><path d="M-0.554406 0.195147-0.554406 0.543295-0.718391 0.50728-0.718391 0.183142Z" stroke="#000000" fill="#0000F2"/><path d="M0.544061-0.554406 0.195913-0.554406 0.183908-0.718391 0.508046-0.718391Z" stroke="#000000" fill="#0000F2"/><path d="M0.174457-0.554406-0.173691-0.554406-0.161686-0.718391 0.162452-0.718391Z" stroke="#000000" fill="#0000F2"/></g></svg>