<svg viewBox="0 0 686.92 397.81" xmlns="http://www.w3.org/2000/svg" xmlns:xlink="http://www.w3.org/1999/xlink" overflow="hidden"><defs></defs><g id="图层_2"><g id="图层_1-2"><rect x="335.07" y="294.67" rx="12" width="88.71" height="88.71" fill="#1481EF"/><rect x="546.27" y="188.3" rx="12" width="88.71" height="88.71" fill="#1481EF"/><rect x="546.27" y="294.67" rx="12" width="88.71" height="88.71" fill="#1481EF"/><rect x="440.43" y="82.7" rx="12" width="88.71" height="88.71" fill="#FF1212"/><rect x="440.43" y="294.67" rx="12" width="88.71" height="88.71" fill="#FF1212"/><rect x="335.07" y="188.3" rx="12" width="88.71" height="88.71" fill="#1481EF"/><rect x="335.07" y="82.7" rx="12" width="88.71" height="88.71" fill="#FF1212"/><rect x="440.43" y="188.3" rx="12" width="88.71" height="88.71" fill="#FF1212"/><rect x="546.27" y="82.7" rx="12" width="88.71" height="88.71" fill="#FF1212"/><path d="M298.31 4.82 681.4 4.82C684.45 4.82552 686.92 7.29977 686.92 10.35L686.92 15.63C686.92 18.6802 684.45 21.1545 681.4 21.16L303.45 21.16C301.32 21.1555 299.376 22.3723 298.45 24.29L120.17 394.68C118.878 397.441 115.593 398.633 112.831 397.341 111.66 396.793 110.718 395.851 110.17 394.68L33.34 234.44C32.0076 231.686 28.6947 230.533 25.9404 231.865 25.6348 232.013 25.3434 232.189 25.07 232.39L10.59 243.09C8.47472 244.662 5.54294 244.52 3.59 242.75L1.81 241.15C-0.458573 239.105-0.639955 235.608 1.40487 233.34 1.66237 233.054 1.94896 232.796 2.26 232.57L43.26 202.8C45.7075 200.982 49.1651 201.493 50.9827 203.94 51.2272 204.27 51.4342 204.625 51.6 205L115.49 347.37C116.744 350.155 120.018 351.396 122.803 350.142 123.972 349.616 124.922 348.699 125.49 347.55L293.35 7.9C294.284 6.01474 296.206 4.82147 298.31 4.82Z" fill="#3F3F3F"/><text fill="#3F3F3F" font-family="SimSun-ExtB" font-size="219.11" transform="matrix(1.26 0 0 1 64.32 188.3)">3</text></g></g></svg>