<svg version="1.1" viewBox="0 0 512.001 512.001" xmlns="http://www.w3.org/2000/svg" xmlns:xlink="http://www.w3.org/1999/xlink" id="Layer_1" overflow="hidden"><path d=" M 431.514 281.221 L 80.488 281.221 C 68.488 281.221 58.76 290.949 58.76 302.949 L 58.76 498.128 L 453.241 498.128 L 453.241 302.949 C 453.241 290.949 443.514 281.221 431.514 281.221 Z" fill="#174461"/><path d=" M 361.905 488.272 C 355.273 443.486 328.14 262.645 311.206 185.659 C 303.961 152.725 323.248 136.728 343.667 119.792 C 359.979 106.264 376.844 92.275 376.844 69.968 C 376.844 49.215 362.32 30.547 335.949 17.403 C 313.756 6.344 284.616 0 256.001 0 C 227.385 0 198.246 6.344 176.053 17.404 C 149.681 30.548 135.158 49.215 135.158 69.969 C 135.158 92.275 152.025 106.264 168.335 119.793 C 188.754 136.729 208.041 152.725 200.796 185.66 C 183.863 262.642 157.157 443.436 150.625 488.273 L 125.302 488.273 L 136.753 512.001 L 160.894 512.001 C 166.796 512.001 171.8 507.662 172.638 501.821 C 172.958 499.591 204.847 277.692 223.971 190.758 C 234.323 143.696 204.939 119.326 183.484 101.531 C 170.285 90.584 158.887 81.13 158.887 69.971 C 158.887 45.769 205.176 23.728 256.002 23.728 C 306.828 23.728 353.117 45.769 353.117 69.97 C 353.117 81.129 341.718 90.584 328.52 101.53 C 307.065 119.325 277.68 143.697 288.033 190.757 C 307.158 277.699 339.597 499.616 339.922 501.849 C 340.773 507.678 345.771 512.001 351.662 512.001 L 375.25 512.001 L 387.254 488.273 L 361.906 488.273 L 361.906 488.272 Z" fill="#9AD7FF"/><g><path d=" M 311.482 498.128 C 311.482 505.79 305.271 512 297.61 512 L 214.392 512 C 206.73 512 200.52 505.789 200.52 498.128 L 200.52 469.115 C 200.52 461.453 206.731 455.243 214.392 455.243 L 297.61 455.243 C 305.272 455.243 311.482 461.454 311.482 469.115 L 311.482 498.128 Z" fill="#3B8BC0"/><path d=" M 150.626 498.128 C 150.626 505.79 144.415 512 136.754 512 L 53.534 512 C 45.872 512 39.662 505.789 39.662 498.128 L 39.662 469.115 C 39.662 461.453 45.873 455.243 53.534 455.243 L 136.752 455.243 C 144.414 455.243 150.624 461.454 150.624 469.115 L 150.624 498.128 L 150.626 498.128 Z" fill="#3B8BC0"/><path d=" M 472.34 498.128 C 472.34 505.79 466.129 512 458.468 512 L 375.25 512 C 367.588 512 361.378 505.789 361.378 498.128 L 361.378 469.115 C 361.378 461.453 367.589 455.243 375.25 455.243 L 458.468 455.243 C 466.13 455.243 472.34 461.454 472.34 469.115 L 472.34 498.128 L 472.34 498.128 Z" fill="#3B8BC0"/></g><g></g><g></g><g></g><g></g><g></g><g></g><g></g><g></g><g></g><g></g><g></g><g></g><g></g><g></g><g></g></svg>