<svg version="1.1" width="653.333" height="653.333" viewBox="-25 0 490 490" xmlns="http://www.w3.org/2000/svg" xmlns:xlink="http://www.w3.org/1999/xlink" overflow="hidden"><path d=" M 137.176 57.9453 C 114.742 46.8477 93.5859 33.1602 74.2734 17.2656 C 60.7695 6.13672 43.6953 0 26.1758 0 L 18.1758 0 L 18.1758 8 C 18.1758 28.8398 16.6641 49.8789 13.6797 70.5195 L 12.6641 77.4805 C 10.8711 89.9297 11.2227 102.48 13.7188 114.793 C 16.9688 130.855 23.9219 146.266 33.8477 159.352 L 44.0703 172.832 L 56.8242 163.16 L 46.6016 149.688 C 38.1289 138.504 32.1836 125.344 29.4141 111.617 C 27.2813 101.105 26.9844 90.3828 28.5117 79.7695 L 29.5195 72.8086 C 30.7852 64.0469 31.7539 55.2148 32.5039 46.3594 C 52.3047 62.7188 73.9609 76.8633 96.9531 88.3594 L 110.527 95.1523 L 117.688 80.8398 L 104.113 74.0469 C 81.8164 62.8945 60.8086 49.168 41.6719 33.2148 C 39.1055 31.0977 36.3672 29.1758 33.5508 27.4141 C 33.7109 23.7852 34.0313 20.1602 34.0977 16.5352 C 45.0625 18.0156 55.4961 22.5273 64.0977 29.6172 C 84.3438 46.3047 106.551 60.6641 130.078 72.2969 L 144 79.1758 L 151.098 64.832 Z"/><path d=" M 426.426 77.4805 L 425.414 70.5352 C 422.441 49.8789 420.93 28.8398 420.93 8 L 420.93 0 L 412.93 0 C 395.414 0 378.336 6.13672 364.832 17.2656 C 345.52 33.1602 324.352 46.8477 301.93 57.9453 L 288.008 64.8242 L 295.105 79.168 L 309.023 72.2891 C 332.551 60.6563 354.762 46.2969 375.008 29.6094 C 383.609 22.5195 394.039 18.0078 405.008 16.5273 C 405.078 20.1523 405.398 23.7773 405.551 27.4063 C 402.734 29.1758 400 31.0898 397.441 33.2148 C 378.305 49.168 357.297 62.9023 335 74.0469 L 321.426 80.8398 L 328.586 95.1523 L 342.16 88.3594 C 365.145 76.8633 386.809 62.7188 406.609 46.3516 C 407.359 55.207 408.328 64.0469 409.594 72.8086 L 410.594 79.7539 C 412.121 90.375 411.824 101.098 409.695 111.609 C 406.922 125.336 400.977 138.488 392.512 149.672 L 382.289 163.152 L 395.039 172.824 L 405.266 159.336 C 415.184 146.246 422.137 130.84 425.391 114.785 C 427.871 102.488 428.223 89.9297 426.426 77.4805 Z"/><path d=" M 439.105 325.238 L 432.199 297.633 C 428.77 283.887 423.336 270.762 416.031 258.586 C 407.734 244.754 402.574 228.961 401.121 212.91 L 400.313 204.016 C 393.594 130.152 337.84 70.168 264.734 58.1523 C 249.992 55.7539 234.414 57.5586 219.543 63.3594 C 204.594 57.543 189.047 55.7422 174.367 58.1602 C 101.258 70.168 45.5117 130.152 38.793 204.023 L 37.9844 212.902 C 36.5195 228.961 31.3672 244.754 23.0703 258.594 C 15.7773 270.762 10.3359 283.887 6.90234 297.625 L -5.41789e-14 325.238 L 36.2891 310.719 C 30.543 326.48 27.5508 343.246 27.5508 360 L 27.5508 374.945 L 51.625 358.902 C 52.3125 378.023 58.2461 396.449 68.8945 412.434 L 76.543 423.902 L 83.793 409.398 C 93.1992 425.551 104.625 440.391 117.895 453.656 L 127.887 463.648 L 135.238 434.238 L 136.633 436.098 C 145.801 448.328 159.016 457.113 173.855 460.816 C 180.625 462.512 186.879 465.488 192.449 469.664 L 219.551 490 L 246.664 469.672 C 252.223 465.496 258.488 462.512 265.246 460.824 C 280.09 457.121 293.313 448.336 302.465 436.113 L 303.863 434.246 L 311.215 463.656 L 321.207 453.664 C 334.473 440.398 345.902 425.551 355.313 409.406 L 362.559 423.91 L 370.207 412.441 C 380.855 396.457 386.793 378.023 387.48 358.91 L 411.551 374.945 L 411.551 360 C 411.551 343.246 408.559 326.48 402.816 310.719 Z M 91.5508 176 L 107.551 160 C 119.695 171.672 141.328 170.238 163.551 168 L 157.137 180.824 C 151.266 192.574 139.258 200 126.113 200 C 114.512 200 103.688 194.207 97.2578 184.551 Z M 303.648 385.641 L 294.664 392.055 C 288.953 396.137 282.344 398.656 275.449 399.559 C 275.48 399.719 275.52 399.848 275.551 400 C 275.551 400 267.551 432 219.551 432 C 171.551 432 163.551 400 163.551 400 C 163.586 399.848 163.625 399.719 163.656 399.566 C 156.762 398.656 150.145 396.137 144.441 392.063 L 135.457 385.648 C 112.922 369.551 99.5508 343.566 99.5508 315.879 C 99.5508 292.922 108.762 270.93 125.113 254.816 L 174.113 206.535 C 177.527 202.441 179.398 197.305 179.512 191.984 L 179.551 192 C 190.078 213.383 195.551 236.902 195.551 260.734 L 195.551 296 L 243.551 296 L 243.551 260.734 C 243.551 236.902 249.023 213.383 259.551 192 L 259.594 191.977 C 259.703 197.297 261.586 202.434 264.992 206.527 L 313.992 254.809 C 330.344 270.93 339.551 292.93 339.551 315.879 C 339.551 343.566 326.184 369.551 303.648 385.641 Z M 341.848 184.551 C 335.414 194.207 324.586 200 312.992 200 C 299.855 200 287.84 192.574 281.969 180.824 L 275.551 168 C 305.465 170.617 326.504 169.07 331.551 160 L 347.551 176 Z" fill="#F0BC5E"/><path d=" M 362.207 148.441 L 348.895 139.566 C 340.367 152.359 326.09 160 310.711 160 L 283.047 160 C 266.215 160 252.551 173.297 251.711 189.922 C 241.16 211.91 235.551 236.352 235.551 260.734 L 235.551 288 L 203.551 288 L 203.551 260.734 C 203.551 236.352 197.945 211.91 187.391 189.922 C 186.551 173.297 172.887 160 156.055 160 L 128.391 160 C 113.008 160 98.7344 152.359 90.207 139.559 L 76.8945 148.434 C 81.0313 154.641 86.207 159.91 92.0625 164.168 L 81.2578 174.977 L 90.6016 188.984 C 98.5273 200.887 111.809 208 126.113 208 C 142.383 208 157.008 198.961 164.289 184.406 L 166.449 180.09 C 169.559 182.922 171.551 186.969 171.551 191.496 C 171.551 195.113 170.281 198.641 168.488 200.84 L 119.488 249.121 C 101.727 266.617 91.5508 290.953 91.5508 315.879 C 91.5508 346.078 106.223 374.602 130.801 392.145 L 139.785 398.566 C 145.145 402.398 151.145 404.961 157.426 406.465 C 161.801 416.574 176.559 440 219.551 440 C 262.543 440 277.305 416.574 281.68 406.465 C 287.961 404.961 293.953 402.398 299.32 398.566 L 308.305 392.145 C 332.879 374.602 347.551 346.09 347.551 315.879 C 347.551 290.953 337.375 266.617 319.617 249.113 L 271.145 201.398 C 268.824 198.633 267.551 195.113 267.551 191.496 C 267.551 186.969 269.543 182.93 272.648 180.09 L 274.809 184.406 C 282.09 198.961 296.719 208 312.992 208 C 327.297 208 340.574 200.887 348.504 188.992 L 357.848 174.984 L 347.039 164.176 C 352.895 159.922 358.07 154.648 362.207 148.441 Z M 126.113 192 C 117.168 192 108.871 187.551 103.91 180.121 L 101.848 177.016 L 106.793 172.07 C 113.609 174.609 120.895 176 128.391 176 L 150.602 176 L 149.977 177.246 C 145.434 186.352 136.289 192 126.113 192 Z M 219.551 360 C 211.824 360 204.633 356.535 199.801 350.504 L 182.984 329.496 C 180.77 326.727 179.551 323.238 179.551 319.688 C 179.551 311.039 186.594 304 195.238 304 L 243.863 304 C 252.512 304 259.551 311.039 259.551 319.688 C 259.551 323.238 258.336 326.727 256.121 329.496 L 239.289 350.52 C 234.473 356.535 227.281 360 219.551 360 Z M 140.098 379.137 C 119.719 364.574 107.551 340.93 107.551 315.879 C 107.551 295.199 116 275.023 130.719 260.504 L 179.391 212.496 C 184.734 227.992 187.551 244.375 187.551 260.734 L 187.551 289.055 C 173.809 292.512 163.551 304.887 163.551 319.688 C 163.551 326.855 166.016 333.887 170.496 339.496 L 187.313 360.504 C 191.055 365.184 195.688 368.879 200.855 371.504 L 200.176 372.855 C 194.281 384.664 182.406 392 169.207 392 C 161.953 392 154.992 389.777 149.078 385.551 Z M 219.551 424 C 194.977 424 182.633 414.895 176.609 407.449 C 192.863 405.09 206.984 395.031 214.488 380.016 L 216.574 375.832 C 217.566 375.902 218.551 376 219.551 376 C 220.551 376 221.535 375.902 222.52 375.832 L 224.609 380.016 C 232.113 395.031 246.23 405.09 262.488 407.449 C 256.473 414.895 244.129 424 219.551 424 Z M 308.383 260.504 C 323.105 275.023 331.551 295.199 331.551 315.879 C 331.551 340.93 319.383 364.574 299.008 379.129 L 290.023 385.551 C 284.113 389.777 277.152 392 269.895 392 C 256.695 392 244.824 384.664 238.93 372.855 L 238.246 371.504 C 243.414 368.879 248.047 365.184 251.785 360.504 L 268.617 339.48 C 273.09 333.887 275.551 326.855 275.551 319.688 C 275.551 304.887 265.297 292.512 251.551 289.055 L 251.551 260.734 C 251.551 244.391 254.359 228.023 259.695 212.535 Z M 337.258 177.016 L 335.191 180.121 C 330.23 187.551 321.938 192 312.992 192 C 302.824 192 293.672 186.352 289.129 177.246 L 288.496 176 L 310.703 176 C 318.207 176 325.496 174.609 332.313 172.07 Z"/><path d=" M 249.777 112 C 239.352 112 228.91 109.559 219.551 104.945 C 203.602 112.816 184.625 114.113 167.742 108.488 L 153.016 103.586 L 158.078 88.4141 L 172.809 93.3125 C 185.816 97.6484 200.441 96.6016 212.688 90.4805 L 219.551 87.0547 L 226.406 90.4883 C 238.664 96.6172 253.273 97.6563 266.289 93.3203 L 281.016 88.4141 L 286.078 103.586 L 271.352 108.488 C 264.383 110.824 257.121 112 249.777 112 Z"/><path d=" M 249.777 144 C 239.352 144 228.91 141.559 219.551 136.945 C 203.602 144.809 184.625 146.121 167.742 140.488 L 153.016 135.586 L 158.078 120.414 L 172.809 125.313 C 185.816 129.648 200.441 128.602 212.688 122.48 L 219.551 119.055 L 226.406 122.488 C 238.664 128.617 253.273 129.648 266.289 125.32 L 281.016 120.414 L 286.078 135.586 L 271.352 140.488 C 264.383 142.824 257.121 144 249.777 144 Z"/><path d=" M 105.023 239.586 C 88.1602 233.969 72.5859 224.352 60.0078 211.762 L 45.8945 197.648 L 57.207 186.336 L 71.3203 200.449 C 82.1523 211.281 95.5586 219.566 110.09 224.406 Z"/><path d=" M 89.0234 271.586 C 72.1602 265.969 56.5859 256.352 44.0078 243.762 L 37.8945 237.648 L 49.207 226.336 L 55.3203 232.449 C 66.1523 243.281 79.5586 251.566 94.0898 256.406 Z"/><path d=" M 334.078 239.586 L 329.016 224.414 C 343.535 219.574 356.945 211.289 367.785 200.457 L 381.895 186.344 L 393.207 197.656 L 379.098 211.77 C 366.52 224.352 350.953 233.969 334.078 239.586 Z"/><path d=" M 350.078 271.586 L 345.016 256.414 C 359.535 251.574 372.945 243.289 383.785 232.457 L 389.895 226.344 L 401.207 237.656 L 395.098 243.77 C 382.52 256.352 366.953 265.969 350.078 271.586 Z"/></svg>