<!-- Generated by scripts/deskpet-originals/build-originals.mjs -->
<svg xmlns="http://www.w3.org/2000/svg" width="240" height="240" viewBox="0 0 240 240" role="img" aria-labelledby="title desc" data-character="squid" data-scene="draw" data-duration="4.6">
<title id="title">鱿鱼 画画 / Squid Drawing</title><desc id="desc">在纸上画几笔，退后看看自己的作品。 Makes a few marks, then pulls back to admire them.</desc>
<style>.op38s27-1{transform-origin:98px 86px;animation:op38s27-1 4.6s cubic-bezier(.4,0,.25,1) infinite}@keyframes op38s27-1{0%{transform:translate(0px,0px) rotate(0deg) scale(1,1);}48%{transform:translate(0px,0px) rotate(-3deg) scale(1,1);}55%{transform:translate(0px,0px) rotate(2deg) scale(1,1);}100%{transform:translate(0px,0px) rotate(0deg) scale(1,1);}}
.op38s27-2{transform-origin:145px 88px;animation:op38s27-2 4.6s cubic-bezier(.4,0,.25,1) infinite}@keyframes op38s27-2{0%{transform:translate(0px,0px) rotate(0deg) scale(1,1);}52%{transform:translate(0px,0px) rotate(3deg) scale(1,1);}59%{transform:translate(0px,0px) rotate(-2deg) scale(1,1);}100%{transform:translate(0px,0px) rotate(0deg) scale(1,1);}}
.op38s27-3{transform-origin:99px 145px;animation:op38s27-3 4.6s cubic-bezier(.4,0,.25,1) infinite}@keyframes op38s27-3{0%{transform:translate(0px,0px) rotate(0deg) scale(1,1);}100%{transform:translate(0px,0px) rotate(0deg) scale(1,1);}}
.op38s27-4{transform-origin:130px 145px;animation:op38s27-4 4.6s cubic-bezier(.4,0,.25,1) infinite}@keyframes op38s27-4{0%{transform:translate(0px,0px) rotate(0deg) scale(1,1);}100%{transform:translate(0px,0px) rotate(0deg) scale(1,1);}}
.op38s27-5{transform-origin:120px 146px;animation:op38s27-5 4.6s cubic-bezier(.4,0,.25,1) infinite}@keyframes op38s27-5{0%{transform:translate(0px,0px) rotate(0deg) scale(1,1);}30%{transform:translate(0px,0px) rotate(4deg) scale(1,1);}64%{transform:translate(0px,0px) rotate(-4deg) scale(1,1);}100%{transform:translate(0px,0px) rotate(0deg) scale(1,1);}}
.op38s27-6{transform-origin:103px 143px;animation:op38s27-6 4.6s cubic-bezier(.4,0,.25,1) infinite}@keyframes op38s27-6{0%{transform:translate(0px,0px) rotate(0deg) scale(1,1);}100%{transform:translate(0px,0px) rotate(0deg) scale(1,1);}}
.op38s27-7{transform-origin:138px 143px;animation:op38s27-7 4.6s cubic-bezier(.4,0,.25,1) infinite}@keyframes op38s27-7{0%{transform:translate(0px,0px) rotate(0deg) scale(1,1);}24%{transform:translate(0px,1px) rotate(-2deg) scale(1,1);}32%{transform:translate(1px,2px) rotate(2deg) scale(1,1);}40%{transform:translate(0px,1px) rotate(-2deg) scale(1,1);}48%{transform:translate(1px,2px) rotate(2deg) scale(1,1);}56%{transform:translate(0px,1px) rotate(-2deg) scale(1,1);}65%{transform:translate(0px,0px) rotate(0deg) scale(1,1);}100%{transform:translate(0px,0px) rotate(0deg) scale(1,1);}}
.op38s27-8{transform-origin:119px 132px;animation:op38s27-8 4.6s cubic-bezier(.4,0,.25,1) infinite}@keyframes op38s27-8{0%{transform:translate(0px,0px) rotate(0deg) scale(1,1);}38%{transform:translate(1px,0px) rotate(0deg) scale(1,1);}60%{transform:translate(-1px,0px) rotate(0deg) scale(1,1);}82%{transform:translate(0px,0px) rotate(0deg) scale(1,1);}100%{transform:translate(0px,0px) rotate(0deg) scale(1,1);}}
.op38s27-9{transform-origin:119px 132px;animation:op38s27-9 4.6s cubic-bezier(.4,0,.25,1) infinite}@keyframes op38s27-9{0%{transform:translate(0px,0px) rotate(0deg) scale(1,1);}18%{transform:translate(0px,0px) rotate(0deg) scale(1,1);}20%{transform:translate(0px,0px) rotate(0deg) scale(1,0.08);}23%{transform:translate(0px,0px) rotate(0deg) scale(1,1);}76%{transform:translate(0px,0px) rotate(0deg) scale(1,1);}78%{transform:translate(0px,0px) rotate(0deg) scale(1,0.08);}81%{transform:translate(0px,0px) rotate(0deg) scale(1,1);}100%{transform:translate(0px,0px) rotate(0deg) scale(1,1);}}
.op38s27-10{transform-origin:119px 143px;animation:op38s27-10 4.6s cubic-bezier(.4,0,.25,1) infinite}@keyframes op38s27-10{0%{transform:translate(0px,0px) rotate(0deg) scale(1,1);}100%{transform:translate(0px,0px) rotate(0deg) scale(1,1);}}
.op38s27-11{transform-origin:120px 139px;animation:op38s27-11 4.6s cubic-bezier(.4,0,.25,1) infinite}@keyframes op38s27-11{0%{transform:translate(0px,0px) rotate(0deg) scale(1,1);}22%{transform:translate(0px,0px) rotate(5deg) scale(1,1);}65%{transform:translate(0px,0px) rotate(5deg) scale(1,1);}79%{transform:translate(0px,0px) rotate(-4deg) scale(1,1);}100%{transform:translate(0px,0px) rotate(0deg) scale(1,1);}}
.op38s27-12{transform-origin:120px 117px;animation:op38s27-12 4.6s cubic-bezier(.4,0,.25,1) infinite}@keyframes op38s27-12{0%{transform:translate(0px,0px) rotate(0deg) scale(1,1);}76%{transform:translate(-3px,0px) rotate(-3deg) scale(1,1);}88%{transform:translate(-3px,0px) rotate(-3deg) scale(1,1);}100%{transform:translate(0px,0px) rotate(0deg) scale(1,1);}}
.op38s27-13{transform-origin:0px 0px;animation:op38s27-13 4.6s ease-in-out infinite}@keyframes op38s27-13{0%{opacity:0;}43%{opacity:0;}44%{opacity:1;}90%{opacity:1;}91%{opacity:0;}100%{opacity:0;}}
.op38s27-14{transform-origin:0px 0px;animation:op38s27-14 4.6s ease-in-out infinite}@keyframes op38s27-14{0%{opacity:0;}12%{opacity:0;}13%{opacity:1;}89%{opacity:1;}90%{opacity:0;}100%{opacity:0;}}
.op38s27-15{transform-origin:138px 143px;animation:op38s27-15 4.6s cubic-bezier(.4,0,.25,1) infinite}@keyframes op38s27-15{0%{transform:translate(0px,0px) rotate(0deg) scale(1,1);}24%{transform:translate(0px,1px) rotate(-2deg) scale(1,1);}32%{transform:translate(1px,2px) rotate(2deg) scale(1,1);}40%{transform:translate(0px,1px) rotate(-2deg) scale(1,1);}48%{transform:translate(1px,2px) rotate(2deg) scale(1,1);}56%{transform:translate(0px,1px) rotate(-2deg) scale(1,1);}65%{transform:translate(0px,0px) rotate(0deg) scale(1,1);}100%{transform:translate(0px,0px) rotate(0deg) scale(1,1);}}
.op38s27-16{transform-origin:120px 117px;animation:op38s27-16 4.6s cubic-bezier(.4,0,.25,1) infinite}@keyframes op38s27-16{0%{transform:translate(0px,0px) rotate(0deg) scale(1,1);}76%{transform:translate(-3px,0px) rotate(-3deg) scale(1,1);}88%{transform:translate(-3px,0px) rotate(-3deg) scale(1,1);}100%{transform:translate(0px,0px) rotate(0deg) scale(1,1);}}
.op38s27-17{transform-origin:0px 0px;animation:op38s27-17 4.6s ease-in-out infinite}@keyframes op38s27-17{0%{opacity:0;}12%{opacity:0;}13%{opacity:1;}89%{opacity:1;}90%{opacity:0;}100%{opacity:0;}}
@media(prefers-reduced-motion:reduce){g{animation-play-state:paused!important;animation-delay:-2.576s!important}}
</style><ellipse cx="120" cy="204" rx="66" ry="6" fill="#263444" opacity=".12"/>
<g data-joint="body"><g class="op38s27-12"><g data-joint="earLeft"><g class="op38s27-1"><path d="M100 68Q75 70 58 85L91 112Z" fill="#347ABB" stroke="none" stroke-width="1.8" stroke-linecap="round" stroke-linejoin="round"/></g></g><g data-joint="earRight"><g class="op38s27-2"><path d="M143 68Q166 74 182 93L150 115Z" fill="#347ABB" stroke="none" stroke-width="1.8" stroke-linecap="round" stroke-linejoin="round"/></g></g><g data-joint="footLeft"><g class="op38s27-3"><path d="M103 143Q89 164 102 178Q106 182 101 188Q88 190 91 178Q80 162 94 141Z" fill="#347ABB" stroke="none" stroke-width="1.8" stroke-linecap="round" stroke-linejoin="round"/></g></g><g data-joint="footRight"><g class="op38s27-4"><path d="M134 143Q150 160 144 181Q146 188 140 191Q127 191 135 179Q138 162 125 146Z" fill="#347ABB" stroke="none" stroke-width="1.8" stroke-linecap="round" stroke-linejoin="round"/></g></g><g data-joint="tail"><g class="op38s27-5"><path d="M114 144Q116 170 111 180Q105 193 113 196Q125 192 122 180L124 145Z" fill="#91BEE5" stroke="none" stroke-width="1.8" stroke-linecap="round" stroke-linejoin="round"/><path d="M123 146Q124 167 129 184Q137 196 127 200Q116 201 123 185Q115 167 116 146Z" fill="#FFF0D2" stroke="none" stroke-width="1.8" stroke-linecap="round" stroke-linejoin="round"/></g></g><g data-joint="left"><g class="op38s27-6"><path d="M102 140Q85 160 70 153Q59 148 59 133Q56 120 46 128Q38 138 48 146Q59 176 83 169Q99 165 110 145Z" fill="#91BEE5" stroke="none" stroke-width="1.8" stroke-linecap="round" stroke-linejoin="round"/></g></g><g data-joint="right"><g class="op38s27-7"><path d="M136 142Q153 157 159 173Q163 190 177 189Q188 190 188 182Q187 172 174 176Q167 151 143 137Z" fill="#91BEE5" stroke="none" stroke-width="1.8" stroke-linecap="round" stroke-linejoin="round"/><path d="M174 176Q187 172 188 182Q188 190 177 189Q168 190 164 181Z" fill="#EF7658" stroke="none" stroke-width="1.8" stroke-linecap="round" stroke-linejoin="round"/></g></g><path d="M122 37Q145 54 156 91Q164 127 142 145Q122 155 99 144Q76 128 85 95Q94 61 122 37Z" fill="#347ABB" stroke="#347ABB" stroke-width="0.6" stroke-linecap="round" stroke-linejoin="round"/><path d="M122 37Q138 50 147 71L126 84L111 59Z" fill="#91BEE5" stroke="#91BEE5" stroke-width="0.6" stroke-linecap="round" stroke-linejoin="round"/><path d="M110 60L126 84L90 91Q97 69 110 60Z" fill="#FFF0D2" stroke="#FFF0D2" stroke-width="0.6" stroke-linecap="round" stroke-linejoin="round"/><path d="M126 84L147 72L156 101L136 111Z" fill="#EF7658" stroke="#EF7658" stroke-width="0.6" stroke-linecap="round" stroke-linejoin="round"/><path d="M90 91L126 84L136 111L85 119Z" fill="#FFF0D2" stroke="#FFF0D2" stroke-width="0.6" stroke-linecap="round" stroke-linejoin="round"/><path d="M136 111L157 102Q160 124 146 140L128 128Z" fill="#91BEE5" stroke="#91BEE5" stroke-width="0.6" stroke-linecap="round" stroke-linejoin="round"/><path d="M85 119L128 128L146 140Q120 159 98 143Z" fill="#FFF0D2" stroke="#FFF0D2" stroke-width="0.6" stroke-linecap="round" stroke-linejoin="round"/><g data-joint="head"><g class="op38s27-11"><g data-joint="blink"><g class="op38s27-9"><ellipse cx="104" cy="132" rx="5.5" ry="6.985" fill="#FFF0D2" stroke="none" stroke-width="1.8"/><ellipse cx="134" cy="132" rx="5.5" ry="6.985" fill="#FFF0D2" stroke="none" stroke-width="1.8"/><g data-joint="gaze"><g class="op38s27-8"><ellipse cx="104" cy="132.7" rx="3.6300000000000003" ry="5.0600000000000005" fill="#253445" stroke="none" stroke-width="1.8"/><ellipse cx="103.065" cy="129.69" rx="0.99" ry="1.3199999999999998" fill="#FFF0D2" stroke="none" stroke-width="1.8"/><ellipse cx="134" cy="132.7" rx="3.6300000000000003" ry="5.0600000000000005" fill="#253445" stroke="none" stroke-width="1.8"/><ellipse cx="133.065" cy="129.69" rx="0.99" ry="1.3199999999999998" fill="#FFF0D2" stroke="none" stroke-width="1.8"/></g></g></g></g><g data-joint="mouth"><g class="op38s27-10"><path d="M114 143q5 5 10 0" fill="none" stroke="#253445" stroke-width="1.7" stroke-linecap="round" stroke-linejoin="round"/></g></g></g></g></g></g><g class="op38s27-14"><g transform="translate(179 201) scale(1) rotate(0)"><path d="M-24 1V4M24 1V4" fill="none" stroke="#2a2d36" stroke-width="2" stroke-linecap="round" stroke-linejoin="round"/><rect x="-29" y="-2" width="58" height="4" rx="2" fill="#6BD5BD"/></g><g transform="translate(179 189) scale(1) rotate(0)"><path d="M-29-10 20-15 29 12-20 16Z" fill="#fefbfa"/><g class="op38s27-13"><path d="M-13 2Q-8-10 0 0T15 0" fill="none" stroke="#6BD5BD" stroke-width="2" stroke-linecap="round" stroke-linejoin="round"/></g></g></g><g class="op38s27-17"><g class="op38s27-16"><g class="op38s27-15"><g data-prop-attached="right"><g transform="translate(179 184) scale(1) rotate(0)"><path d="M0 0 9 5" fill="none" stroke="#FFD35A" stroke-width="4" stroke-linecap="round" stroke-linejoin="round"/><path d="M7.2 4 9 5" fill="none" stroke="#2a2d36" stroke-width="2" stroke-linecap="round" stroke-linejoin="round"/></g></g></g></g></g></svg>
