<svg viewBox="0 0 247 214.36" xmlns="http://www.w3.org/2000/svg" xmlns:xlink="http://www.w3.org/1999/xlink" overflow="hidden"><defs></defs><g id="Layer_2"><g id="图层_1"><path d="M204.81 142.37 245.46 212.78 204.81 189.31 204.81 142.37Z" fill="#00D800"/><path d="M245.46 212.8 164.27 212.8 204.83 189.38 204.85 189.35 245.46 212.8Z" fill="#EE0000"/><path d="M204.81 189.33 204.85 189.35 204.83 189.38 164.27 212.8 164.17 212.8 123.51 189.33 204.81 189.33Z" fill="#EE0000"/><path d="M204.81 189.31 204.81 189.33 204.79 189.3 204.81 189.31Z" fill="#00D800"/><path d="M204.81 142.37 204.81 189.31 204.79 189.3 164.15 118.89 204.81 142.37Z" fill="#00D800"/><path d="M164.14 71.93 204.81 142.37 164.15 118.89 164.14 118.89 164.14 118.88 164.14 71.93Z" fill="#00D800"/><path d="M204.81 189.33 123.51 189.33 123.5 189.33 164.16 165.86 204.81 189.33Z" fill="#0000F2"/><path d="M164.15 118.89 204.79 189.3 164.17 165.85 164.14 165.83 164.14 118.89 164.15 118.89Z" fill="#00D800"/><path d="M164.17 212.8 82.83 212.8 123.49 189.33 123.5 189.33 123.51 189.33 164.17 212.8Z" fill="#EE0000"/><path d="M164.15 165.85 164.16 165.86 123.5 189.33 82.84 165.86 82.85 165.85 82.86 165.85 164.14 165.85 164.15 165.85Z" fill="#EE0000"/><path d="M164.14 118.88 164.14 118.89 164.14 165.83 164.12 165.82 123.52 95.48 123.52 95.43 164.14 118.88Z" fill="#00D800"/><path d="M164.14 165.83 164.14 165.84 164.12 165.82 164.14 165.83Z" fill="#404040"/><path d="M164.14 71.93 164.14 118.88 123.52 48.52 123.52 48.45 123.52 48.43 164.1 71.86 164.14 71.93Z" fill="#0000F2"/><path d="M123.52 48.52 164.14 118.88 123.52 95.43 123.52 95.41 123.52 48.52Z" fill="#EE0000"/><path d="M123.52 1.57 164.1 71.86 123.52 48.43 123.52 1.57Z" fill="#0000F2"/><path d="M164.12 165.82 123.51 142.38 123.52 142.37 123.52 95.48 164.12 165.82Z" fill="#00D800"/><path d="M82.84 165.86 123.5 189.33 123.49 189.33 42.19 189.33 82.84 165.86Z" fill="#00D800"/><path d="M123.49 142.38 123.51 142.38 164.14 165.84 164.14 165.85 82.86 165.85 82.86 165.84 123.49 142.38Z" fill="#EE0000"/><path d="M123.49 189.33 82.83 212.8 42.18 189.33 42.19 189.33 123.49 189.33Z" fill="#EE0000"/><path d="M123.48 142.37 123.49 142.38 82.88 165.82 123.48 95.48 123.48 142.37Z" fill="#0000F2"/><path d="M123.48 95.43 123.48 95.48 82.88 165.82 82.86 165.83 82.86 118.89 82.86 118.88 123.48 95.43Z" fill="#0000F2"/><path d="M123.48 95.41 123.48 95.43 82.86 118.88 123.48 48.52 123.48 95.41Z" fill="#0000F2"/><path d="M123.48 48.47 123.48 48.52 82.86 118.88 82.86 71.93 123.48 48.47Z" fill="#FEFE00"/><path d="M123.48 48.45 123.48 48.47 82.86 71.93 123.48 1.57 123.48 48.45Z" fill="#FEFE00"/><path d="M82.88 165.82 82.86 165.84 82.86 165.83 82.88 165.82Z" fill="#00D800"/><path d="M82.86 118.89 82.86 165.83 82.83 165.85 42.21 189.3 82.86 118.89Z" fill="#EE0000"/><path d="M82.86 71.93 82.86 118.88 82.86 118.89 42.19 142.37 82.86 71.93Z" fill="#0000F2"/><path d="M82.83 212.8 1.54 212.8 42.18 189.33 82.83 212.8Z" fill="#EE0000"/><path d="M42.16 189.33 42.16 189.32 42.21 189.3 42.19 189.33 42.18 189.33 1.54 212.8 1.53 212.8 1.54 212.78 42.16 189.33Z" fill="#404040"/><path d="M42.16 189.32 42.16 189.33 1.54 212.78 42.14 142.45 42.14 189.3 42.16 189.32Z" fill="#0000F2"/><path d="M42.16 189.32 42.14 189.3 42.14 142.45 42.19 142.37 82.86 118.89 42.21 189.3 42.16 189.32Z" fill="#0000F2"/><path d="M1.5 212.8 1.54 212.78 42.16 189.33 42.16 189.32 42.21 189.3 82.83 165.85 82.86 165.83 82.88 165.82 123.49 142.38 123.5 142.37" stroke="#000000" stroke-width="3" stroke-linecap="round" stroke-miterlimit="10" fill="none"/><path d="M245.5 212.8 245.46 212.78 204.81 189.31 204.79 189.3 164.17 165.85 164.14 165.83 164.12 165.82 123.51 142.38 123.5 142.37" stroke="#000000" stroke-width="3" stroke-linecap="round" stroke-miterlimit="10" fill="none"/><line x1="164.15" y1="165.85" x2="164.17" y2="165.85" stroke="#000000" stroke-width="3" stroke-linecap="round" stroke-miterlimit="10" fill="none"/><line x1="82.86" y1="165.85" x2="164.14" y2="165.85" stroke="#000000" stroke-width="3" stroke-linecap="round" stroke-miterlimit="10" fill="none"/><line x1="82.83" y1="165.85" x2="82.85" y2="165.85" stroke="#000000" stroke-width="3" stroke-linecap="round" stroke-miterlimit="10" fill="none"/><path d="M123.51 189.33 204.81 189.33 204.83 189.33" stroke="#000000" stroke-width="3" stroke-linecap="round" stroke-miterlimit="10" fill="none"/><line x1="42.19" y1="189.33" x2="123.49" y2="189.33" stroke="#000000" stroke-width="3" stroke-linecap="round" stroke-miterlimit="10" fill="none"/><path d="M82.83 212.8 123.49 189.33 123.5 189.33 164.16 165.86 164.17 165.85" stroke="#000000" stroke-width="3" stroke-linecap="round" stroke-miterlimit="10" fill="none"/><path d="M164.17 212.8 123.51 189.33 123.5 189.33 82.84 165.86 82.83 165.85" stroke="#000000" stroke-width="3" stroke-linecap="round" stroke-miterlimit="10" fill="none"/><path d="M82.83 212.8 42.18 189.33 42.17 189.33" stroke="#000000" stroke-width="3" stroke-linecap="round" stroke-miterlimit="10" fill="none"/><path d="M164.17 212.86 164.27 212.8 204.83 189.38" stroke="#000000" stroke-width="3" stroke-linecap="round" stroke-miterlimit="10" fill="none"/><line x1="245.47" y1="212.8" x2="245.5" y2="212.8" stroke="#000000" stroke-width="3" stroke-linecap="round" stroke-miterlimit="10" fill="none"/><path d="M1.54 212.8 82.83 212.8 164.17 212.8 164.27 212.8 245.46 212.8" stroke="#000000" stroke-width="3" stroke-linecap="round" stroke-miterlimit="10" fill="none"/><line x1="1.5" y1="212.8" x2="1.53" y2="212.8" stroke="#000000" stroke-width="3" stroke-linecap="round" stroke-miterlimit="10" fill="none"/><path d="M123.52 1.5 123.52 1.57 123.52 48.43 123.52 48.45 123.52 48.52 123.52 95.41 123.52 95.43 123.52 95.48 123.52 142.37" stroke="#000000" stroke-width="3" stroke-linecap="round" stroke-miterlimit="10" fill="none"/><line x1="123.51" y1="142.38" x2="123.52" y2="142.37" stroke="#000000" stroke-width="3" stroke-linecap="round" stroke-miterlimit="10" fill="none"/><line x1="82.86" y1="165.84" x2="123.49" y2="142.38" stroke="#000000" stroke-width="3" stroke-linecap="round" stroke-miterlimit="10" fill="none"/><path d="M1.53 212.8 1.54 212.8 42.18 189.33 42.19 189.33 82.84 165.86 82.85 165.85 82.86 165.85" stroke="#000000" stroke-width="3" stroke-linecap="round" stroke-miterlimit="10" fill="none"/><path d="M123.52 95.41 123.51 95.43 123.5 95.44 123.48 95.48 82.88 165.82 82.86 165.84" stroke="#000000" stroke-width="3" stroke-linecap="round" stroke-miterlimit="10" fill="none"/><path d="M82.86 118.89 42.21 189.3 42.19 189.33" stroke="#000000" stroke-width="3" stroke-linecap="round" stroke-miterlimit="10" fill="none"/><path d="M123.52 48.45 123.5 48.48 123.48 48.52 82.86 118.88" stroke="#000000" stroke-width="3" stroke-linecap="round" stroke-miterlimit="10" fill="none"/><path d="M82.86 118.89 82.86 165.83 82.86 165.84 82.86 165.85" stroke="#000000" stroke-width="3" stroke-linecap="round" stroke-miterlimit="10" fill="none"/><line x1="82.86" y1="71.93" x2="82.86" y2="118.88" stroke="#000000" stroke-width="3" stroke-linecap="round" stroke-miterlimit="10" fill="none"/><path d="M42.19 142.37 82.86 118.89 82.86 118.88 123.48 95.43 123.49 95.43 123.5 95.42 123.52 95.41" stroke="#000000" stroke-width="3" stroke-linecap="round" stroke-miterlimit="10" fill="none"/><path d="M82.86 71.93 123.48 48.47 123.49 48.47 123.52 48.45" stroke="#000000" stroke-width="3" stroke-linecap="round" stroke-miterlimit="10" fill="none"/><path d="M42.14 142.34 42.14 142.45 42.14 189.3" stroke="#000000" stroke-width="3" stroke-linecap="round" stroke-miterlimit="10" fill="none"/><path d="M123.52 1.5 123.5 1.53 123.48 1.57 82.86 71.93 42.19 142.37 42.14 142.45 1.54 212.78 1.53 212.8 1.52 212.81" stroke="#000000" stroke-width="3" stroke-linecap="round" stroke-miterlimit="10" fill="none"/><path d="M164.14 165.84 123.51 142.38 123.49 142.38 123.48 142.37" stroke="#000000" stroke-width="3" stroke-linecap="round" stroke-miterlimit="10" fill="none"/><path d="M245.47 212.8 245.46 212.8 204.85 189.35 204.81 189.33 164.16 165.86 164.15 165.85 164.14 165.85" stroke="#000000" stroke-width="3" stroke-linecap="round" stroke-miterlimit="10" fill="none"/><path d="M123.48 1.5 123.48 1.57 123.48 48.45 123.48 48.47 123.48 48.52 123.48 95.41 123.48 95.43 123.48 95.48 123.48 142.37" stroke="#000000" stroke-width="3" stroke-linecap="round" stroke-miterlimit="10" fill="none"/><path d="M164.14 165.84 164.12 165.82 123.52 95.48 123.5 95.44 123.49 95.43 123.48 95.41" stroke="#000000" stroke-width="3" stroke-linecap="round" stroke-miterlimit="10" fill="none"/><path d="M164.14 118.88 123.52 48.52 123.5 48.48 123.49 48.47 123.48 48.45" stroke="#000000" stroke-width="3" stroke-linecap="round" stroke-miterlimit="10" fill="none"/><path d="M204.81 189.33 204.79 189.3 164.15 118.89" stroke="#000000" stroke-width="3" stroke-linecap="round" stroke-miterlimit="10" fill="none"/><path d="M164.14 118.88 123.52 95.43 123.51 95.43 123.5 95.42 123.48 95.41" stroke="#000000" stroke-width="3" stroke-linecap="round" stroke-miterlimit="10" fill="none"/><path d="M204.81 142.37 164.15 118.89 164.14 118.89" stroke="#000000" stroke-width="3" stroke-linecap="round" stroke-miterlimit="10" fill="none"/><path d="M164.14 71.93 164.14 118.88 164.14 118.89 164.14 165.83 164.14 165.84 164.14 165.85" stroke="#000000" stroke-width="3" stroke-linecap="round" stroke-miterlimit="10" fill="none"/><path d="M204.81 142.37 204.81 189.31 204.81 189.33" stroke="#000000" stroke-width="3" stroke-linecap="round" stroke-miterlimit="10" fill="none"/><path d="M164.19 71.91 164.1 71.86 123.52 48.43" stroke="#000000" stroke-width="3" stroke-linecap="round" stroke-miterlimit="10" fill="none"/><path d="M245.48 212.81 245.47 212.8 245.46 212.78 204.81 142.37 164.14 71.93 164.1 71.86 123.52 1.57 123.5 1.53 123.48 1.5" stroke="#000000" stroke-width="3" stroke-linecap="round" stroke-miterlimit="10" fill="none"/></g></g></svg>