<svg viewBox="0 0 296.91 297.54" xmlns="http://www.w3.org/2000/svg" xmlns:xlink="http://www.w3.org/1999/xlink" overflow="hidden"><defs></defs><g id="图层_2"><g id="图层_1-2"><g id="箭头_25"><path d="M195.64 127.1 177.46 183.03 118.65 183.03 100.5 127.12 148.07 92.54 195.64 127.1Z" fill="#808080"/><path d="M195.64 127.1 148.07 92.54 100.5 127.12 118.65 183.03 177.46 183.03 195.64 127.1Z" stroke="#040000" stroke-miterlimit="10" fill="none"/><path d="M117.48 184.64C117.132 184.398 116.875 184.045 116.75 183.64L98.59 127.73C98.3259 126.907 98.6204 126.008 99.32 125.5L146.89 90.93C147.589 90.4261 148.531 90.4261 149.23 90.93L196.8 125.49C197.496 126 197.786 126.899 197.52 127.72L179.34 183.64C179.072 184.463 178.305 185.019 177.44 185.02L118.65 185.02C118.228 185.029 117.816 184.895 117.48 184.64ZM102.84 127.88 120.1 181 176 181 193.29 127.85 148.06 95Z" stroke="#040000" stroke-miterlimit="10" fill="#211613"/><path d="M231.15 253.97 214.89 231.42 230.59 183.09 246.85 205.65 231.15 253.97Z" stroke="#040000" stroke-miterlimit="10" fill="#FF1493" fill-rule="evenodd"/><path d="M248.47 204.48 232.21 181.92C231.771 181.308 231.025 180.995 230.28 181.11 229.54 181.231 228.93 181.756 228.7 182.47L213 230.8C212.803 231.403 212.903 232.063 213.27 232.58L229.54 255.14C229.663 255.311 229.811 255.463 229.98 255.59 229.98 255.59 230.04 255.59 230.06 255.65 230.765 256.168 231.725 256.168 232.43 255.65 232.734 255.367 232.978 255.028 233.15 254.65 233.199 254.47 233.23 254.286 233.24 254.1L248.74 206.33C248.962 205.707 248.86 205.014 248.47 204.48ZM230.47 249.61 217.1 231.07 231.28 187.45 244.64 206Z" stroke="#040000" stroke-miterlimit="10" fill="#060001"/><path d="M265.09 149.5 294.42 139.85 294.29 190.03 264.9 230.68 246.85 205.65 265.09 149.5Z" stroke="#040000" stroke-miterlimit="10" fill="#FF1493" fill-rule="evenodd"/><path d="M293.79 138 264.47 147.66C263.867 147.861 263.396 148.336 263.2 148.94L245 205C244.802 205.607 244.906 206.272 245.28 206.79L263.28 231.79C263.398 231.966 263.547 232.119 263.72 232.24L263.72 232.24C263.8 232.3 263.88 232.34 263.96 232.39 264.218 232.43 264.472 232.49 264.72 232.57 265.44 232.516 266.101 232.151 266.53 231.57 266.609 231.407 266.734 231.271 266.89 231.18L295.89 191.1C296.131 190.761 296.26 190.356 296.26 189.94L296.39 139.75C296.247 138.61 295.206 137.803 294.067 137.946 293.973 137.958 293.881 137.976 293.79 138ZM292.3 189.44 264.9 227.32 249.06 205.32 266.68 151.1 292.41 142.62Z" stroke="#040000" stroke-miterlimit="10" fill="#060001"/><path d="M246.85 205.65 230.59 183.09 238.69 158.19 265.09 149.5 246.85 205.65Z" stroke="#040000" stroke-miterlimit="10" fill="#FF1493" fill-rule="evenodd"/><path d="M245.67 207.26C245.499 207.139 245.351 206.991 245.23 206.82L229 184.25C228.63 183.735 228.526 183.074 228.72 182.47L236.81 157.58C237.003 156.972 237.475 156.493 238.08 156.29L264.49 147.61C265.541 147.271 266.668 147.848 267.008 148.899 267.136 149.296 267.136 149.723 267.01 150.12L248.95 205.72C248.938 206.825 248.033 207.71 246.928 207.698 246.516 207.693 246.115 207.561 245.78 207.32 245.78 207.32 245.72 207.29 245.67 207.26ZM232.81 182.73 246.17 201.29 262 152.63 240.29 159.77Z" stroke="#040000" stroke-miterlimit="10" fill="#060001"/><path d="M238.69 158.19 255.07 107.72 281.48 99.03 265.09 149.5 238.69 158.19Z" stroke="#040000" stroke-miterlimit="10" fill="#FFA100" fill-rule="evenodd"/><path d="M283.1 99C283.076 98.9621 283.056 98.9219 283.04 98.88 282.899 98.4056 282.649 97.9708 282.31 97.61L282.26 97.61C282.143 97.5444 282.044 97.4518 281.97 97.34L281.82 97.22 281.74 97.15C281.447 97.0807 281.143 97.0807 280.85 97.15L254.45 105.84C253.847 106.041 253.376 106.516 253.18 107.12L236.79 157.6C236.569 158.304 236.753 159.073 237.27 159.6L237.51 159.8C238.03 160.177 238.7 160.281 239.31 160.08L265.72 151.4C266.325 151.197 266.797 150.718 266.99 150.11L283.13 100.37C283.162 99.9134 283.152 99.4548 283.1 99ZM263.5 148 241.8 155.14 256.67 109.37 278.37 102.22Z" stroke="#040000" stroke-miterlimit="10" fill="#060001"/><path d="M118.65 183.03 134.29 231.18 161.81 231.16 177.44 183.02 118.65 183.03Z" stroke="#040000" stroke-miterlimit="10" fill="#808080" fill-rule="evenodd"/><path d="M161.81 231.16 214.79 231.17 230.41 183.03 177.44 183.02 161.81 231.16Z" stroke="#040000" stroke-miterlimit="10" fill="#808080" fill-rule="evenodd"/><path d="M160.64 232.77C160.469 232.649 160.321 232.501 160.2 232.33 159.826 231.812 159.722 231.147 159.92 230.54L175.55 182.41C175.818 181.587 176.585 181.031 177.45 181.03L230.45 181.03C231.09 181.018 231.694 181.325 232.06 181.85 232.43 182.365 232.534 183.026 232.34 183.63L216.71 231.77C216.442 232.593 215.675 233.149 214.81 233.15L161.81 233.15C161.39 233.149 160.98 233.016 160.64 232.77ZM178.89 185 164.56 229.15 213.34 229.15 227.66 185Z" stroke="#040000" stroke-miterlimit="10" fill="#060001"/><path d="M134.29 231.18 118.65 183.03 65.72 183.03 81.37 231.17 134.29 231.18Z" stroke="#040000" stroke-miterlimit="10" fill="#808080" fill-rule="evenodd"/><path d="M80.2 232.78C79.8539 232.538 79.6001 232.185 79.48 231.78L63.83 183.65C63.471 182.605 64.0268 181.468 65.0714 181.109 65.2801 181.037 65.4993 181 65.72 181L118.65 181C119.515 181.001 120.282 181.557 120.55 182.38L136.19 230.53C136.527 231.582 135.947 232.708 134.895 233.045 134.7 233.107 134.495 233.14 134.29 233.14L81.37 233.14C80.9513 233.15 80.5406 233.024 80.2 232.78ZM68.47 185 82.82 229.14 131.54 229.14 117.2 185Z" stroke="#040000" stroke-miterlimit="10" fill="#060001"/><path d="M100.49 127.12 57.66 158.22 65.72 183.03 118.65 183.03 100.49 127.12Z" stroke="#040000" stroke-miterlimit="10" fill="#808080" fill-rule="evenodd"/><path d="M177.44 183.02 230.41 183.03 238.47 158.23 195.63 127.11 177.44 183.02Z" stroke="#040000" stroke-miterlimit="10" fill="#808080" fill-rule="evenodd"/><path d="M148.06 92.55 105.31 61.48 84.17 76.85 100.49 127.12 148.06 92.55Z" stroke="#040000" stroke-miterlimit="10" fill="#808080" fill-rule="evenodd"/><path d="M84.17 76.85 41.34 107.96 57.66 158.22 100.49 127.12 84.17 76.85Z" stroke="#040000" stroke-miterlimit="10" fill="#808080" fill-rule="evenodd"/><path d="M238.47 158.23 254.8 107.98 211.95 76.85 195.63 127.11 238.47 158.23Z" stroke="#040000" stroke-miterlimit="10" fill="#808080" fill-rule="evenodd"/><path d="M190.81 61.49 148.06 30.43 105.31 61.48 148.06 92.55 190.81 61.49Z" stroke="#040000" stroke-miterlimit="10" fill="#808080" fill-rule="evenodd"/><path d="M195.63 127.11 211.95 76.85 190.81 61.49 148.06 92.55 195.63 127.11Z" stroke="#040000" stroke-miterlimit="10" fill="#808080" fill-rule="evenodd"/><path d="M148 295 196.35 279.85C193.3 275.63 190.21 271.38 187.14 267.14 184.07 262.9 180.91 258.61 177.81 254.31L147.58 254.21 117.46 254.11C114.46 258.34 111.46 262.58 108.54 266.79 105.62 271 102.65 275.17 99.74 279.33Z" stroke="#040000" stroke-miterlimit="10" fill="#00D800" fill-rule="evenodd"/><path d="M98.52 281C98.1807 280.751 97.9288 280.401 97.8 280 97.6004 279.404 97.693 278.748 98.05 278.23L115.78 253C116.157 252.47 116.769 252.157 117.42 252.16L147.53 252.26 177.77 252.36C178.41 252.366 179.009 252.678 179.38 253.2L197.92 278.73C198.297 279.25 198.401 279.92 198.2 280.53 197.998 281.141 197.514 281.617 196.9 281.81L148.55 297C148.153 297.127 147.727 297.127 147.33 297L99.08 281.27C98.8795 281.212 98.6902 281.121 98.52 281ZM118.44 256.17 102.88 278.3 148 292.94 193.1 278.81 176.78 256.35 147.56 256.25Z" stroke="#040000" stroke-miterlimit="10" fill="#040000"/><path d="M66 254C83.1133 254.067 100.267 254.12 117.46 254.16 122.86 246.48 128.307 238.75 133.8 230.97L81.71 230.88Z" stroke="#040000" stroke-miterlimit="10" fill="#ADD8E6" fill-rule="evenodd"/><path d="M64.78 255.6C64.532 255.421 64.327 255.188 64.18 254.92 63.8353 254.264 63.8815 253.471 64.3 252.86L80 229.75C80.3728 229.206 80.9902 228.88 81.65 228.88L133.74 228.96C134.845 228.963 135.737 229.862 135.734 230.966 135.732 231.376 135.605 231.775 135.37 232.11L119 255.3C118.625 255.834 118.013 256.151 117.36 256.15L65.94 256C65.521 255.992 65.1152 255.852 64.78 255.6ZM82.72 232.87 69.71 252 116.37 252.14 129.91 232.93Z" stroke="#040000" stroke-miterlimit="10" fill="#060001"/><path d="M177.76 254.35C172.133 246.59 166.467 238.803 160.76 230.99L133.76 230.99C128.26 238.77 122.813 246.5 117.42 254.18L147.54 254.28Z" stroke="#040000" stroke-miterlimit="10" fill="#00D800" fill-rule="evenodd"/><path d="M116.24 255.76C115.989 255.577 115.781 255.342 115.63 255.07 115.29 254.406 115.348 253.608 115.78 253L132.12 229.8C132.495 229.273 133.103 228.96 133.75 228.96L160.75 228.96C161.381 228.974 161.972 229.272 162.36 229.77 167.62 236.937 172.83 244.08 177.99 251.2L179.4 253.2C179.839 253.808 179.901 254.612 179.56 255.28 179.218 255.949 178.531 256.37 177.78 256.37L147.54 256.27 117.42 256.17C116.993 256.163 116.579 256.019 116.24 255.76ZM134.79 233 121.24 252.22 147.53 252.3 173.83 252.4C169.163 245.96 164.457 239.503 159.71 233.03Z" stroke="#040000" stroke-miterlimit="10" fill="#060001"/><path d="M232.47 254.54C226.98 246.74 221.47 238.91 215.85 231.05L160.73 231C166.47 238.813 172.137 246.6 177.73 254.36 195.91 254.427 214.157 254.487 232.47 254.54Z" stroke="#040000" stroke-miterlimit="10" fill="#00D800" fill-rule="evenodd"/><path d="M3.32 191.5C12.9733 204.62 22.5833 217.693 32.15 230.72 35.03 226.6 37.88 222.43 40.8 218.29 43.72 214.15 46.59 209.94 49.52 205.75 46.52 196.59 43.52 187.39 40.52 178.15 37.52 168.91 34.4733 159.577 31.38 150.15 26.55 148.69 21.74 147.15 16.93 145.74L2.5 141.36C2.77333 158.213 3.04667 174.927 3.32 191.5Z" stroke="#040000" stroke-miterlimit="10" fill="#FFA100" fill-rule="evenodd"/><path d="M31 232.34C30.8313 232.217 30.6828 232.069 30.56 231.9 23.0067 221.613 15.4233 211.313 7.81 201L1.71 192.7C1.46396 192.366 1.32767 191.964 1.32 191.55L0.5 141.39C0.485642 140.286 1.36936 139.379 2.47383 139.364 2.6791 139.361 2.88355 139.39 3.08 139.45L31.94 148.27C32.561 148.47 33.0507 148.952 33.26 149.57L51.42 205.13C51.6134 205.725 51.5172 206.376 51.16 206.89L42.44 219.43C40.76 221.817 39.0933 224.21 37.44 226.61L33.79 231.86C33.4231 232.389 32.8238 232.709 32.18 232.72 31.7573 232.716 31.3459 232.583 31 232.34ZM5.3 190.83 11 198.61C18.0667 208.203 25.1 217.76 32.1 227.28L34.16 224.34C35.82 221.933 37.4867 219.533 39.16 217.14L47.31 205.43 29.79 151.79 4.54 144.07Z" stroke="#040000" stroke-miterlimit="10" fill="#060001"/><path d="M15.39 101.33C20.7633 117.73 26.0967 134.017 31.39 150.19L57.39 158.19C52.1833 142.03 46.94 125.753 41.66 109.36 32.92 106.69 24.18 104 15.39 101.33Z" stroke="#040000" stroke-miterlimit="10" fill="#FFA100" fill-rule="evenodd"/><path d="M59.31 157.54 43.58 108.71C43.3746 108.088 42.8778 107.606 42.25 107.42 34.01 104.94 25.7633 102.433 17.51 99.9L16 99.42C15.2885 99.2088 14.5185 99.409 14 99.94 13.8256 100.125 13.6897 100.342 13.6 100.58 13.6 100.58 13.6 100.58 13.6 100.58L13.6 100.58C13.6255 100.732 13.6255 100.888 13.6 101.04 13.6 101.3 13.65 101.57 13.67 101.83 13.69 102.09 13.67 102.21 13.72 102.39 19.0533 118.617 24.33 134.74 29.55 150.76 29.6788 151.161 29.9307 151.511 30.27 151.76 30.4484 151.89 30.648 151.988 30.86 152.05L56.86 160.05C57.9158 160.375 59.0349 159.782 59.3596 158.726 59.4807 158.333 59.4773 157.912 59.35 157.52ZM32.94 148.54C28.1733 133.873 23.3567 119.133 18.49 104.32 25.7033 106.527 32.9033 108.717 40.09 110.89L54.34 155.09Z" stroke="#040000" stroke-miterlimit="10" fill="#060001"/><path d="M49.52 205.75C54.8 198.21 60.0933 190.627 65.4 183L57.4 158.19 31.4 150.19C34.46 159.523 37.5067 168.857 40.54 178.19 43.5733 187.523 46.5667 196.71 49.52 205.75Z" stroke="#040000" stroke-miterlimit="10" fill="#FFA100" fill-rule="evenodd"/><path d="M48.35 207.37C48.0099 207.119 47.755 206.77 47.62 206.37L29.47 150.8C29.2461 150.098 29.4267 149.329 29.94 148.8 30.4607 148.273 31.2303 148.076 31.94 148.29L57.99 156.29C58.6101 156.482 59.0986 156.963 59.3 157.58L67.3 182.4C67.4901 182.992 67.394 183.639 67.04 184.15 61.7067 191.79 56.4133 199.383 51.16 206.93 50.728 207.553 49.9806 207.879 49.23 207.77 48.9114 207.701 48.6114 207.565 48.35 207.37ZM34.46 153.22 50.18 201.33C54.5067 195.137 58.84 188.907 63.18 182.64L55.81 159.77Z" stroke="#040000" stroke-miterlimit="10" fill="#060001"/><path d="M65.51 254.65C70.7633 247.317 76.04 239.917 81.34 232.45 76.06 216.09 70.7467 199.607 65.4 183 60.0667 190.64 54.7733 198.233 49.52 205.78 54.8933 222.2 60.2233 238.49 65.51 254.65Z" stroke="#040000" stroke-miterlimit="10" fill="#EEE8AA" fill-rule="evenodd"/><path d="M83.24 231.84 67.3 182.36C67.0651 181.638 66.4414 181.111 65.69 181 64.9415 180.889 64.1945 181.211 63.76 181.83 58.4267 189.457 53.1333 197.05 47.88 204.61 47.5262 205.125 47.4337 205.777 47.63 206.37L63.21 254C63.3374 254.18 63.485 254.344 63.65 254.49L63.86 254.71C64.0263 254.805 64.167 254.939 64.27 255.1 64.4413 255.191 64.5886 255.321 64.7 255.48 65.1907 255.783 65.7648 255.923 66.34 255.88 66.5671 255.85 66.7981 255.892 67 256 67 255.94 67.12 255.89 67.17 255.82L83 233.6C83.3504 233.083 83.4392 232.432 83.24 231.84ZM66.18 250.27 51.73 206.08C56.05 199.887 60.3833 193.667 64.73 187.42L79.12 232.11Z" stroke="#040000" stroke-miterlimit="10" fill="#060001"/><path d="M58.88 18.65C48.96 32.13 39.02 45.6133 29.06 59.1 33.89 60.61 38.76 62.1 43.6 63.63 48.44 65.16 53.35 66.63 58.22 68.18 66.22 62.36 74.22 56.5233 82.22 50.67 90.22 44.8167 98.27 38.96 106.37 33.1 106.37 28.01 106.45 22.89 106.49 17.79 106.53 12.69 106.56 7.59 106.62 2.49Z" stroke="#040000" stroke-miterlimit="10" fill="#ADD8E6" fill-rule="evenodd"/><path d="M27.89 60.71C27.547 60.4623 27.2914 60.1122 27.16 59.71 26.9582 59.0953 27.0663 58.4209 27.45 57.9 37.45 44.4 47.39 30.92 57.27 17.46 57.5208 17.1244 57.8705 16.8761 58.27 16.75L106 0.59C107.1 0.28002 108.244 0.920784 108.554 2.02119 108.599 2.18049 108.624 2.3446 108.63 2.51L108.38 33.12C108.372 33.7495 108.068 34.3386 107.56 34.71 99.6067 40.53 91.6733 46.31 83.76 52.05 75.41 58.14 67.41 64 59.39 69.79 58.8764 70.1639 58.2157 70.2715 57.61 70.08L50.77 68C48.16 67.2 45.58 66.4 43 65.58 39.84 64.58 36.66 63.58 33.49 62.58L28.49 61.02C28.2734 60.9525 28.0703 60.8476 27.89 60.71ZM60.11 20.34C50.8633 32.9 41.6033 45.4533 32.33 58L34.67 58.72C37.85 59.72 41.03 60.72 44.2 61.72 46.76 62.54 49.35 63.34 51.95 64.14L57.85 66C65.5967 60.38 73.34 54.7433 81.08 49.09 89.08 43.31 96.71 37.72 104.38 32.09L104.61 5.29Z" stroke="#040000" stroke-miterlimit="10" fill="#060001"/><path d="M148 2.79C134.1 12.93 120.223 23.0333 106.37 33.1 106.27 42.37 106.21 51.6 106.13 60.84L147.87 30.5C147.89 21.27 148 12 148 2.79Z" stroke="#040000" stroke-miterlimit="10" fill="#EEE8AA" fill-rule="evenodd"/><path d="M149.11 1.15 148.85 1.15 148.69 1.1C148.129 1.09631 147.57 1.14992 147.02 1.26L146.93 1.31 146.4 1.53 141.23 5.31C129.23 14.0833 117.23 22.8267 105.23 31.54 104.718 31.9093 104.41 32.4987 104.4 33.13L104.16 60.88C104.155 61.5236 104.46 62.1303 104.98 62.51L105.24 62.67C105.911 63.0152 106.719 62.9534 107.33 62.51L149 32.12C149.514 31.7444 149.818 31.1466 149.82 30.51 149.82 22.87 149.9 15.2 149.94 7.57L149.94 2.8C149.949 2.14753 149.639 1.53167 149.11 1.15ZM146 7.55C145.95 14.85 145.9 22.18 145.88 29.49L108.15 56.9 108.35 34.12C120.083 25.6133 131.827 17.0667 143.58 8.48L146 6.73Z" stroke="#040000" stroke-miterlimit="10" fill="#060001"/><path d="M58.22 68.18C67.0133 70.94 75.83 73.69 84.67 76.43 91.8167 71.25 98.97 66.0533 106.13 60.84 106.21 51.6 106.27 42.37 106.37 33.1 98.3167 39.0333 90.28 44.89 82.26 50.67 74.24 56.45 66.2267 62.2867 58.22 68.18Z" stroke="#040000" stroke-miterlimit="10" fill="#ADD8E6" fill-rule="evenodd"/><path d="M57 69.79C56.573 69.4846 56.2879 69.0192 56.21 68.5 56.0866 67.7561 56.392 67.006 57 66.56 65 60.74 73 54.9067 81 49.06L81.41 48.76C89.36 43 97.28 37.28 105.18 31.49 105.793 31.0426 106.606 30.9806 107.28 31.33 107.951 31.6777 108.369 32.3741 108.36 33.13L108.12 60.87C108.112 61.4995 107.808 62.0886 107.3 62.46 100.153 67.66 93 72.84 85.84 78 85.3355 78.3676 84.6882 78.4786 84.09 78.3 75.2167 75.56 66.39 72.8067 57.61 70.04 57.3942 69.991 57.1881 69.9065 57 69.79ZM104.3 37.07C97.48 42.07 90.6567 47.0467 83.83 52 76.53 57.33 69.55 62.42 62.6 67.47 69.82 69.73 77.0567 71.9867 84.31 74.24 90.9233 69.4133 97.5333 64.6067 104.14 59.82Z" stroke="#040000" stroke-miterlimit="10" fill="#060001"/><path d="M15.14 99.56C23.86 102.36 32.6033 105.143 41.37 107.91 55.79 97.45 70.2233 86.9567 84.67 76.43 75.81 73.7033 66.9933 70.9533 58.22 68.18 43.84 78.6733 29.48 89.1333 15.14 99.56Z" stroke="#040000" stroke-miterlimit="10" fill="#ADD8E6" fill-rule="evenodd"/><path d="M86.64 76.11C86.5188 75.3612 85.9843 74.7454 85.26 74.52 76.42 71.7933 67.6067 69.0433 58.82 66.27 58.2143 66.0785 57.5536 66.1861 57.04 66.56L14.16 97.8C13.7037 98.6009 13.5014 99.5216 13.58 100.44 13.5944 100.496 13.5944 100.554 13.58 100.61L13.58 100.61 13.58 100.74C13.6953 100.899 13.8334 101.041 13.99 101.16 14.1648 101.284 14.3568 101.382 14.56 101.45 21.62 103.723 28.7067 105.983 35.82 108.23L40.82 109.81C41.4243 109.995 42.0805 109.884 42.59 109.51L85.84 78C86.4342 77.5653 86.7415 76.8392 86.64 76.11ZM41 105.7 37 104.43 19.5 98.86 58.58 70.39C65.7933 72.65 73.0267 74.9067 80.28 77.16Z" stroke="#040000" stroke-miterlimit="10" fill="#060001"/><path d="M239.25 18.78C223.25 13.4467 207.22 8.14333 191.16 2.87 191.16 8.03 191.23 13.22 191.26 18.36 191.29 23.5 191.33 28.71 191.37 33.87L215.45 51.38 239.59 68.92 254.36 64.25C259.27 62.69 264.22 61.14 269.17 59.58 259.183 45.98 249.21 32.38 239.25 18.78Z" stroke="#040000" stroke-miterlimit="10" fill="#EEE8AA" fill-rule="evenodd"/><path d="M238.42 70.54 190.2 35.48C189.685 35.1086 189.377 34.5148 189.37 33.88L189.16 2.88C189.163 2.23629 189.476 1.63335 190 1.26 190.518 0.879569 191.188 0.771659 191.8 0.97 203.013 4.70333 214.223 8.41667 225.43 12.11L239.88 16.88C240.281 17.0088 240.631 17.2607 240.88 17.6 250.88 31.32 260.88 44.87 270.8 58.4 271.18 58.9185 271.288 59.5883 271.09 60.2 270.891 60.8148 270.406 61.2953 269.79 61.49L240.21 70.82C239.603 71.0178 238.938 70.9137 238.42 70.54ZM193.36 32.84 240 66.71 266 58.52 238.1 20.52 224.17 15.9C213.843 12.48 203.51 9.06 193.17 5.64Z" stroke="#040000" stroke-miterlimit="10" fill="#060001"/><path d="M281.09 99.09 239.59 68.92C230.69 71.7 221.807 74.4933 212.94 77.3L254.45 107.46C263.33 104.69 272.19 101.88 281.09 99.09Z" stroke="#040000" stroke-miterlimit="10" fill="#00D800" fill-rule="evenodd"/><path d="M283 98.85C282.859 98.3756 282.609 97.9408 282.27 97.58L282.22 97.58C282.123 97.5193 282.039 97.4414 281.97 97.35L281.78 97.19 281.78 97.19 240.76 67.3C240.253 66.9292 239.601 66.8181 239 67L212.34 75.4C211.288 75.7366 210.708 76.8624 211.045 77.9144 211.174 78.318 211.428 78.6701 211.77 78.92L253.28 109.08C253.791 109.451 254.447 109.558 255.05 109.37 260.69 107.61 266.333 105.837 271.98 104.05L281.69 100.99C282.408 100.763 282.937 100.152 283.06 99.41 283.075 99.247 283.075 99.083 283.06 98.92ZM270.73 100.24C265.397 101.92 260.063 103.587 254.73 105.24L217.32 78 239.23 71.12 276.71 98.36Z" stroke="#040000" stroke-miterlimit="10" fill="#060001"/><path d="M191.37 33.87C191.417 43.1567 191.48 52.4567 191.56 61.77L212.94 77.3C221.813 74.5133 230.697 71.72 239.59 68.92L215.45 51.38Z" stroke="#040000" stroke-miterlimit="10" fill="#EEE8AA" fill-rule="evenodd"/><path d="M211.77 78.92 190.39 63.38C189.879 63.0065 189.575 62.4131 189.57 61.78 189.49 52.4467 189.423 43.1467 189.37 33.88 189.367 33.1255 189.788 32.4333 190.46 32.09 191.128 31.7489 191.932 31.8107 192.54 32.25L240.76 67.31C241.368 67.7519 241.677 68.4974 241.56 69.24 241.439 69.9888 240.904 70.6046 240.18 70.83L213.54 79.2C212.939 79.391 212.283 79.2872 211.77 78.92ZM193.55 60.74 213.3 75.09 235.21 68.21 193.39 37.8C193.43 45.4533 193.483 53.1 193.55 60.74Z" stroke="#040000" stroke-miterlimit="10" fill="#060001"/><path d="M148 2.36C148.04 11.6933 148.103 21 148.19 30.28L191.52 61.77C191.44 52.4367 191.377 43.1367 191.33 33.87 176.897 23.3633 162.453 12.86 148 2.36Z" stroke="#040000" stroke-miterlimit="10" fill="#FF1493" fill-rule="evenodd"/><path d="M193.36 33.85C193.355 33.2169 193.051 32.6235 192.54 32.25L150.13 1.42C149.714 1.27356 149.286 1.16642 148.85 1.1L148.69 1.05C148.133 1.04678 147.576 1.10039 147.03 1.21L146.93 1.26C146.722 1.33634 146.519 1.42312 146.32 1.52L146.24 1.52C146.114 1.77905 146.046 2.06216 146.04 2.35 146.08 11.6833 146.143 20.9933 146.23 30.28 146.235 30.9131 146.539 31.5065 147.05 31.88L190.39 63.36C191.001 63.8034 191.809 63.8652 192.48 63.52 193.148 63.174 193.565 62.4823 193.56 61.73 193.48 52.4367 193.413 43.1433 193.36 33.85ZM150.21 29.26C150.14 21.59 150.1 13.95 150.06 6.26L189.38 34.85C189.42 42.49 189.47 50.1333 189.53 57.78Z" stroke="#040000" stroke-miterlimit="10" fill="#060001"/><path d="M133.12 232.79C132.777 232.544 132.524 232.193 132.4 231.79L116.76 183.65C116.559 183.04 116.663 182.37 117.04 181.85 117.416 181.336 118.013 181.032 118.65 181.03L177.45 181.03C178.088 181.016 178.689 181.324 179.05 181.85 179.427 182.366 179.535 183.031 179.34 183.64L163.71 231.78C163.443 232.599 162.681 233.155 161.82 233.16L134.3 233.16C133.877 233.169 133.462 233.039 133.12 232.79ZM121.4 185 135.75 229.15 160.36 229.15 174.69 185Z" stroke="#040000" stroke-miterlimit="10" fill="#060001"/><path d="M64.55 184.65C64.2061 184.405 63.9529 184.054 63.83 183.65L55.77 158.84C55.5038 158.019 55.7941 157.12 56.49 156.61L99.32 125.5C99.8378 125.126 100.503 125.022 101.11 125.22 101.726 125.406 102.209 125.886 102.4 126.5L120.55 182.41C120.748 183.017 120.644 183.682 120.27 184.2 119.892 184.717 119.29 185.022 118.65 185.02L65.72 185.02C65.3 185.028 64.889 184.898 64.55 184.65ZM60 159 67.16 181 115.9 181 99.45 130.35Z" stroke="#040000" stroke-miterlimit="10" fill="#060001"/><path d="M176.27 184.64C176.099 184.516 175.95 184.364 175.83 184.19 175.46 183.675 175.356 183.014 175.55 182.41L193.73 126.49C193.923 125.882 194.395 125.403 195 125.2 195.606 125.008 196.266 125.116 196.78 125.49L239.62 156.61C240.316 157.12 240.606 158.019 240.34 158.84L232.29 183.64C232.022 184.463 231.255 185.019 230.39 185.02L177.39 185.02C176.987 185.009 176.596 184.877 176.27 184.64ZM196.68 130.33 180.19 181 229 181 236.16 159Z" stroke="#040000" stroke-miterlimit="10" fill="#060001"/><path d="M99.32 128.73C98.9807 128.481 98.7288 128.131 98.6 127.73L82.27 77.47C82.0059 76.647 82.3004 75.7475 83 75.24L104.15 59.87C104.849 59.3661 105.791 59.3661 106.49 59.87L149.24 90.93C150.132 91.5816 150.327 92.8328 149.675 93.7247 149.554 93.8914 149.407 94.0382 149.24 94.16L101.68 128.73C101.162 129.104 100.497 129.208 99.89 129.01 99.6836 128.955 99.4899 128.86 99.32 128.73ZM86.51 77.61 101.51 123.89 144.64 92.55 105.31 64Z" stroke="#040000" stroke-miterlimit="10" fill="#060001"/><path d="M56.49 159.84C56.147 159.592 55.8914 159.242 55.76 158.84L39.44 108.58C39.1759 107.757 39.4704 106.858 40.17 106.35L83 75.24C83.522 74.8831 84.1821 74.7941 84.78 75 85.3951 75.1778 85.8774 75.6563 86.06 76.27L102.39 126.54C102.656 127.361 102.366 128.26 101.67 128.77L58.83 159.84C58.3122 160.214 57.6472 160.318 57.04 160.12 56.8427 160.057 56.6569 159.963 56.49 159.84ZM43.68 108.72 58.68 154.99 98.12 126.35 83.12 80.08Z" stroke="#040000" stroke-miterlimit="10" fill="#060001"/><path d="M237.29 159.84 194.46 128.72C193.76 128.212 193.466 127.313 193.73 126.49L210.05 76.23C210.394 75.1803 211.523 74.6081 212.573 74.9519 212.769 75.0159 212.953 75.1097 213.12 75.23L256 106.37C256.696 106.88 256.986 107.779 256.72 108.6L240.39 158.84C240.046 159.89 238.917 160.462 237.867 160.118 237.671 160.054 237.487 159.96 237.32 159.84ZM198 126.34 237.42 155 252.42 108.74 213 80.08Z" stroke="#040000" stroke-miterlimit="10" fill="#060001"/><path d="M146.89 94.16 104.13 63.1C103.613 62.7223 103.308 62.1201 103.31 61.48 103.314 60.8416 103.622 60.2434 104.14 59.87L146.89 28.87C147.589 28.3661 148.531 28.3661 149.23 28.87L192 59.87C192.892 60.5215 193.087 61.7728 192.435 62.6647 192.314 62.8314 192.167 62.9782 192 63.1L149.23 94.16C148.531 94.6639 147.589 94.6639 146.89 94.16ZM108.7 61.48 148.06 90.08 187.41 61.49 148.06 32.9Z" stroke="#040000" stroke-miterlimit="10" fill="#060001"/><path d="M194.46 128.72 146.89 94.16C146.373 93.7823 146.068 93.1801 146.07 92.54 146.072 91.9034 146.376 91.3056 146.89 90.93L189.64 59.88C190.339 59.3761 191.281 59.3761 191.98 59.88L213.12 75.24C213.816 75.7502 214.106 76.6492 213.84 77.47L197.52 127.73C197.173 128.779 196.042 129.347 194.993 129 194.803 128.937 194.623 128.846 194.46 128.73ZM151.46 92.54 194.58 123.88 209.58 77.61 190.81 64Z" stroke="#040000" stroke-miterlimit="10" fill="#060001"/><path d="M233.66 252.77C228.31 245.16 222.95 237.54 217.48 229.89 217.102 229.367 216.495 229.057 215.85 229.06L160.73 229C159.625 229.003 158.732 229.9 158.735 231.005 158.736 231.427 158.871 231.839 159.12 232.18 164.38 239.34 169.587 246.477 174.74 253.59L176.15 255.53C176.273 255.701 176.421 255.853 176.59 255.98 176.93 256.226 177.34 256.359 177.76 256.36L230.43 256.55C231.139 256.45 231.807 256.156 232.36 255.7 233.037 255.025 233.464 254.14 233.57 253.19 233.561 253.044 233.592 252.899 233.66 252.77ZM178.79 252.36 177.97 251.23C173.563 245.17 169.13 239.09 164.67 232.99L214.83 233.05C219.497 239.557 224.093 246.05 228.62 252.53Z" stroke="#040000" stroke-miterlimit="10" fill="#060001"/><path d="M166 78.56 166 78.56 214.1 113.56 210.53 118.48 228.13 119.43 221.78 102.99 218.22 107.9 170.07 72.9C168.405 71.9178 166.259 72.4712 165.277 74.1361 164.418 75.5918 164.722 77.4534 166 78.56Z" fill="#FEFE00"/><path d="M190.32 138.42 190.32 138.42 109.12 197.42 105.55 192.5 99.2 208.94 116.8 207.99 113.23 203.08 194.43 144.08 194.43 144.08C196.037 143.005 196.468 140.831 195.393 139.225 194.318 137.618 192.144 137.187 190.538 138.262 190.463 138.312 190.39 138.365 190.32 138.42Z" fill="#FEFE00"/><path d="M116.56 171.63 116.56 171.63 147.56 76.17 153.33 78.05 148.8 61.05 135.15 72.14 140.92 74 109.92 169.46 109.92 169.46C109.324 171.299 110.331 173.274 112.17 173.87 114.009 174.466 115.984 173.459 116.58 171.62Z" fill="#FEFE00"/></g></g></g></svg>