<svg viewBox="0 0 254.58 256.49" xmlns="http://www.w3.org/2000/svg" xmlns:xlink="http://www.w3.org/1999/xlink" overflow="hidden"><defs></defs><g id="图层_2"><g id="图层_1-2"><g id="箭头_25"><path d="M182.6 126.57 164.44 182.47 105.63 182.47 87.48 126.56 135.03 92.01 182.6 126.57Z" fill="#808080"/><path d="M182.6 126.57 135.03 92.01 87.48 126.56 105.63 182.47 164.44 182.47 182.6 126.57Z" stroke="#040000" stroke-miterlimit="10" fill="none"/><path d="M104.46 184.1C104.121 183.851 103.869 183.501 103.74 183.1L85.58 127.19C85.3159 126.367 85.6104 125.468 86.31 124.96L133.88 90.39C134.579 89.8861 135.521 89.8861 136.22 90.39L183.79 125C184.486 125.51 184.776 126.409 184.51 127.23L166.32 183.14C166.053 183.959 165.291 184.515 164.43 184.52L105.64 184.52C105.212 184.51 104.798 184.363 104.46 184.1ZM89.83 127.33 107.09 180.49 163 180.49 180.29 127.33 135.05 94.47Z" stroke="#040000" stroke-miterlimit="10" fill="#211613"/><path d="M218.14 253.43 201.88 230.87 217.58 182.54 233.84 205.1 218.14 253.43Z" stroke="#040000" stroke-miterlimit="10" fill="#FF1493" fill-rule="evenodd"/><path d="M235.45 203.94 219.2 181.37C218.758 180.762 218.013 180.453 217.27 180.57 216.533 180.69 215.923 181.21 215.69 181.92L200 230.26C199.806 230.864 199.91 231.525 200.28 232.04L216.54 254.59C216.661 254.766 216.814 254.919 216.99 255.04 216.99 255.04 217.05 255.04 217.07 255.1 217.775 255.618 218.735 255.618 219.44 255.1 219.745 254.82 219.987 254.48 220.15 254.1 220.209 253.919 220.239 253.73 220.24 253.54L235.75 205.77C235.956 205.148 235.844 204.464 235.45 203.94ZM217.45 249.07 204.08 230.52 218.26 186.9 231.61 205.45Z" stroke="#040000" stroke-miterlimit="10" fill="#060001"/><path d="M233.84 205.1 217.58 182.54 225.67 157.65 252.08 148.96 233.84 205.1Z" stroke="#040000" stroke-miterlimit="10" fill="#FF1493" fill-rule="evenodd"/><path d="M232.66 206.72C232.487 206.599 232.338 206.446 232.22 206.27L216 183.71C215.63 183.191 215.529 182.526 215.73 181.92L223.78 157C223.976 156.396 224.447 155.921 225.05 155.72L251.46 147.03C252.166 146.811 252.935 147 253.46 147.52 253.98 148.045 254.169 148.814 253.95 149.52L235.89 205.11C235.881 205.53 235.745 205.938 235.5 206.28 234.85 207.171 233.602 207.367 232.71 206.72ZM219.79 182.19 233.16 200.75 249 152.08 227.3 159.23Z" stroke="#040000" stroke-miterlimit="10" fill="#060001"/><path d="M105.64 182.48 121.28 230.63 148.8 230.62 164.43 182.48 105.64 182.48Z" stroke="#040000" stroke-miterlimit="10" fill="#808080" fill-rule="evenodd"/><path d="M148.8 230.62 201.77 230.62 217.4 182.49 164.43 182.48 148.8 230.62Z" stroke="#040000" stroke-miterlimit="10" fill="#808080" fill-rule="evenodd"/><path d="M147.63 232.23C147.459 232.109 147.311 231.961 147.19 231.79 146.816 231.272 146.712 230.607 146.91 230L162.53 181.86C162.798 181.037 163.565 180.481 164.43 180.48L217.43 180.48C218.069 180.47 218.672 180.777 219.04 181.3 219.417 181.816 219.525 182.481 219.33 183.09L203.7 231.23C203.432 232.053 202.665 232.609 201.8 232.61L148.8 232.61C148.38 232.609 147.97 232.476 147.63 232.23ZM165.88 184.48 151.55 228.62 200.32 228.62 214.65 184.48Z" stroke="#040000" stroke-miterlimit="10" fill="#060001"/><path d="M121.28 230.63 105.64 182.48 52.71 182.49 68.36 230.62 121.28 230.63Z" stroke="#040000" stroke-miterlimit="10" fill="#808080" fill-rule="evenodd"/><path d="M67.19 232.24C66.847 231.992 66.5914 231.642 66.46 231.24L50.81 183.1C50.6122 182.493 50.7163 181.828 51.09 181.31 51.4677 180.793 52.0699 180.488 52.71 180.49L105.64 180.49C106.499 180.494 107.259 181.045 107.53 181.86L123.18 230C123.378 230.607 123.274 231.272 122.9 231.79 122.522 232.307 121.92 232.612 121.28 232.61L68.36 232.61C67.94 232.618 67.529 232.488 67.19 232.24ZM55.46 184.48 69.81 228.63 118.53 228.63 104.19 184.48Z" stroke="#040000" stroke-miterlimit="10" fill="#060001"/><path d="M87.48 126.57 44.65 157.68 52.71 182.49 105.64 182.48 87.48 126.57Z" stroke="#040000" stroke-miterlimit="10" fill="#808080" fill-rule="evenodd"/><path d="M164.43 182.48 217.4 182.49 225.45 157.68 182.62 126.56 164.43 182.48Z" stroke="#040000" stroke-miterlimit="10" fill="#808080" fill-rule="evenodd"/><path d="M135.05 92 92.29 60.94 71.15 76.31 87.48 126.57 135.05 92Z" stroke="#040000" stroke-miterlimit="10" fill="#808080" fill-rule="evenodd"/><path d="M71.15 76.31 28.32 107.42 44.65 157.68 87.48 126.57 71.15 76.31Z" stroke="#040000" stroke-miterlimit="10" fill="#808080" fill-rule="evenodd"/><path d="M225.45 157.68 241.78 107.44 198.94 76.3 182.62 126.56 225.45 157.68Z" stroke="#040000" stroke-miterlimit="10" fill="#808080" fill-rule="evenodd"/><path d="M177.79 60.94 135.05 29.89 92.29 60.94 135.05 92 177.79 60.94Z" stroke="#040000" stroke-miterlimit="10" fill="#808080" fill-rule="evenodd"/><path d="M182.62 126.56 198.94 76.3 177.79 60.94 135.05 92 182.62 126.56Z" stroke="#040000" stroke-miterlimit="10" fill="#808080" fill-rule="evenodd"/><path d="M164.75 253.81C159.11 246.05 153.46 238.26 147.75 230.44L120.75 230.44C115.25 238.22 109.803 245.95 104.41 253.63 114.45 253.683 124.487 253.717 134.52 253.73Z" stroke="#040000" stroke-miterlimit="10" fill="#00D800" fill-rule="evenodd"/><path d="M103.22 255.22C102.972 255.033 102.767 254.794 102.62 254.52 102.281 253.86 102.335 253.068 102.76 252.46L119.11 229.25C119.488 228.727 120.095 228.417 120.74 228.42L147.74 228.42C148.371 228.422 148.964 228.723 149.34 229.23 154.587 236.41 159.807 243.563 165 250.69L166.4 252.64C166.843 253.246 166.908 254.05 166.57 254.72 166.227 255.392 165.535 255.813 164.78 255.81L134.55 255.7C124.51 255.7 114.47 255.667 104.43 255.6 103.996 255.608 103.571 255.475 103.22 255.22ZM121.77 232.41 108.23 251.63 134.52 251.71 160.82 251.8C156.153 245.36 151.447 238.903 146.7 232.43Z" stroke="#040000" stroke-miterlimit="10" fill="#060001"/><path d="M219.46 254C213.967 246.187 208.427 238.357 202.84 230.51L147.71 230.44C153.46 238.26 159.11 246.05 164.71 253.81 182.903 253.883 201.153 253.947 219.46 254Z" stroke="#040000" stroke-miterlimit="10" fill="#00D800" fill-rule="evenodd"/><path d="M2.37 100.79C7.75 117.19 13.0833 133.473 18.37 149.64 27.06 152.31 35.72 154.96 44.42 157.64 39.2067 141.487 33.96 125.21 28.68 108.81 19.92 106.15 11.15 103.477 2.37 100.79Z" stroke="#040000" stroke-miterlimit="10" fill="#FFA100" fill-rule="evenodd"/><path d="M46.3 157 30.56 108.17C30.3593 107.547 29.8663 107.061 29.24 106.87 21 104.39 12.7533 101.883 4.5 99.35L3 98.88C2.29033 98.6663 1.52067 98.8626 1 99.39 0.827259 99.576 0.691509 99.7932 0.6 100.03L0.6 100.03C0.6 100.03 0.6 100.03 0.6 100.03 0.621066 100.179 0.621066 100.331 0.6 100.48 0.6 100.75 0.6 101.01 0.67 101.28 0.74 101.55 0.67 101.65 0.72 101.83 6.05333 118.07 11.33 134.197 16.55 150.21 16.6788 150.611 16.9307 150.961 17.27 151.21 17.4507 151.336 17.6497 151.434 17.86 151.5L43.86 159.5C44.9262 159.789 46.0245 159.159 46.3133 158.092 46.4103 157.734 46.4057 157.356 46.3 157ZM19.93 148C15.15 133.333 10.33 118.593 5.47 103.78 12.69 105.993 19.8933 108.183 27.08 110.35L41.33 154.54Z" stroke="#040000" stroke-miterlimit="10" fill="#060001"/><path d="M36.51 205.21C41.79 197.67 47.08 190.077 52.38 182.43 49.7133 174.17 47.0467 165.897 44.38 157.61 35.68 154.96 27.02 152.31 18.38 149.61 21.44 158.943 24.4867 168.277 27.52 177.61 30.5533 186.943 33.55 196.143 36.51 205.21Z" stroke="#040000" stroke-miterlimit="10" fill="#FFA100" fill-rule="evenodd"/><path d="M35.34 206.82C34.997 206.572 34.7414 206.222 34.61 205.82L16.46 150.26C16.1203 149.209 16.697 148.082 17.7481 147.742 18.1349 147.617 18.5507 147.613 18.94 147.73L44.94 155.73C45.5747 155.904 46.0832 156.379 46.3 157L54.3 181.81C54.4905 182.407 54.3906 183.058 54.03 183.57 48.6967 191.197 43.4067 198.79 38.16 206.35 37.7255 206.969 36.9785 207.291 36.23 207.18 35.9075 207.138 35.6012 207.014 35.34 206.82ZM21.45 152.68 37.17 200.79 50.17 182.1 42.8 159.22Z" stroke="#040000" stroke-miterlimit="10" fill="#060001"/><path d="M52.5 254.11C57.7533 246.777 63.0267 239.377 68.32 231.91 63.04 215.537 57.7267 199.043 52.38 182.43 47.0467 190.057 41.7567 197.65 36.51 205.21 41.8833 221.637 47.2133 237.937 52.5 254.11Z" stroke="#040000" stroke-miterlimit="10" fill="#EEE8AA" fill-rule="evenodd"/><path d="M70.22 231.29 54.29 181.81C54.0434 181.096 53.4255 180.574 52.68 180.45 51.9315 180.339 51.1845 180.661 50.75 181.28 45.4167 188.92 40.1233 196.513 34.87 204.06 34.5128 204.574 34.4166 205.225 34.61 205.82L50.19 253.47C50.3233 253.651 50.474 253.818 50.64 253.97 50.7145 254.039 50.7847 254.112 50.85 254.19 51.0134 254.285 51.1507 254.419 51.25 254.58 51.4274 254.662 51.5769 254.794 51.68 254.96 52.178 255.254 52.7525 255.394 53.33 255.36 53.541 255.323 53.7583 255.354 53.95 255.45 54.0139 255.397 54.071 255.337 54.12 255.27L70 233.06C70.3469 232.537 70.4284 231.882 70.22 231.29ZM53.22 249.73 38.72 205.54C43.04 199.353 47.3733 193.133 51.72 186.88L66.11 231.56Z" stroke="#040000" stroke-miterlimit="10" fill="#060001"/><path d="M135 2.24C121.093 12.38 107.21 22.4867 93.35 32.56 93.26 41.82 93.2 51.05 93.11 60.3L134.86 30C134.88 20.72 134.94 11.46 135 2.24Z" stroke="#040000" stroke-miterlimit="10" fill="#EEE8AA" fill-rule="evenodd"/><path d="M136.1 0.61 135.84 0.61C135.785 0.596078 135.731 0.575951 135.68 0.55 135.118 0.535242 134.555 0.572063 134 0.66 133.97 0.665232 133.94 0.665232 133.91 0.66L133.39 0.89 128.22 4.66C116.22 13.4267 104.22 22.1733 92.22 30.9 91.7069 31.2628 91.4013 31.8516 91.4 32.48L91.15 60.23C91.1474 60.8754 91.4565 61.4824 91.98 61.86 92.0606 61.9227 92.1478 61.9763 92.24 62.02 92.9084 62.3611 93.7116 62.2993 94.32 61.86L136 31.57C136.514 31.1944 136.818 30.5966 136.82 29.96 136.82 22.32 136.89 14.66 136.93 7.03L136.93 2.26C136.939 1.60753 136.629 0.991667 136.1 0.61ZM133 7C133 14.3 132.91 21.63 132.89 28.94L95.14 56.35 95.34 33.58C107.067 25.0733 118.81 16.5233 130.57 7.93L133 6.18Z" stroke="#040000" stroke-miterlimit="10" fill="#060001"/><path d="M45.2 67.63C53.9933 70.39 62.8133 73.14 71.66 75.88 78.8133 70.7 85.9633 65.5067 93.11 60.3 93.2 51.05 93.26 41.82 93.35 32.56 85.3033 38.4533 77.2667 44.31 69.24 50.13 61.2133 55.95 53.2 61.7833 45.2 67.63Z" stroke="#040000" stroke-miterlimit="10" fill="#ADD8E6" fill-rule="evenodd"/><path d="M44 69.25C43.572 68.9395 43.2843 68.4721 43.2 67.95 43.0747 67.2008 43.3847 66.4453 44 66L68 48.49 68.4 48.2C76.3267 42.4933 84.25 36.76 92.17 31 92.781 30.5493 93.5945 30.4835 94.27 30.83 94.9316 31.1878 95.3456 31.8778 95.35 32.63L95.11 60.37C95.1053 61.0031 94.8012 61.5965 94.29 61.97 87.1433 67.13 79.99 72.3067 72.83 77.5 72.3213 77.8674 71.6697 77.9748 71.07 77.79 62.21 75.05 53.3867 72.2967 44.6 69.53 44.3851 69.4727 44.182 69.3779 44 69.25ZM91.32 36.52C84.48 41.5067 77.6467 46.4833 70.82 51.45 63.52 56.77 56.54 61.86 49.59 66.91 56.7967 69.1833 64.03 71.44 71.29 73.68L91.13 59.28Z" stroke="#040000" stroke-miterlimit="10" fill="#060001"/><path d="M2.13 99C10.8433 101.8 19.5867 104.587 28.36 107.36L71.66 75.87C62.8 73.15 53.98 70.4033 45.2 67.63 30.82 78.1233 16.4633 88.58 2.13 99Z" stroke="#040000" stroke-miterlimit="10" fill="#ADD8E6" fill-rule="evenodd"/><path d="M73.63 75.56C73.4967 74.8201 72.9597 74.2174 72.24 74 63.39 71.27 54.59 68.5 45.8 65.75 45.1946 65.5402 44.5253 65.6331 44 66L1.15 97.25C0.694895 98.0514 0.492716 98.9716 0.57 99.89 0.576531 99.9465 0.576531 100.004 0.57 100.06L0.57 100.2C0.682743 100.364 0.821176 100.51 0.98 100.63 1.15081 100.752 1.33979 100.847 1.54 100.91 8.61333 103.183 15.7 105.443 22.8 107.69L27.8 109.27C28.4027 109.458 29.0588 109.351 29.57 108.98L72.83 77.5C73.4417 77.0564 73.7512 76.3059 73.63 75.56ZM28 105.16 24 103.88C18.1533 102.02 12.32 100.163 6.5 98.31L45.56 69.84C52.78 72.1 60.0133 74.3567 67.26 76.61Z" stroke="#040000" stroke-miterlimit="10" fill="#060001"/><path d="M120.11 232.25C119.766 232.005 119.513 231.654 119.39 231.25L103.74 183.1C103.542 182.493 103.646 181.828 104.02 181.31 104.398 180.793 105 180.488 105.64 180.49L164.43 180.49C165.073 180.473 165.681 180.786 166.04 181.32 166.41 181.835 166.514 182.496 166.32 183.1L150.7 231.23C150.432 232.053 149.665 232.609 148.8 232.61L121.28 232.61C120.862 232.615 120.453 232.489 120.11 232.25ZM108.39 184.48 122.73 228.63 147.35 228.63 161.68 184.48Z" stroke="#040000" stroke-miterlimit="10" fill="#060001"/><path d="M51.53 184.1C51.1907 183.851 50.9388 183.501 50.81 183.1L42.75 158.3C42.4859 157.477 42.7804 156.578 43.48 156.07L86.31 125C86.8278 124.626 87.4928 124.522 88.1 124.72 88.7165 124.901 89.1987 125.383 89.38 126L107.53 181.9C107.731 182.51 107.627 183.18 107.25 183.7 106.874 184.214 106.277 184.518 105.64 184.52L52.7 184.52C52.2753 184.508 51.8655 184.361 51.53 184.1ZM47 158.44 54.16 180.49 102.89 180.49 86.44 129.8Z" stroke="#040000" stroke-miterlimit="10" fill="#060001"/><path d="M163.26 184.09C163.089 183.969 162.941 183.821 162.82 183.65 162.443 183.134 162.335 182.469 162.53 181.86L180.72 125.94C181.064 124.89 182.193 124.318 183.243 124.662 183.439 124.726 183.623 124.82 183.79 124.94L226.63 156.06C227.326 156.57 227.616 157.469 227.35 158.29L219.35 183.09C219.082 183.913 218.315 184.469 217.45 184.47L164.45 184.47C164.022 184.479 163.604 184.345 163.26 184.09ZM183.66 129.79 167.18 180.48 216 180.48 223.16 158.48Z" stroke="#040000" stroke-miterlimit="10" fill="#060001"/><path d="M86.31 128.19C85.9707 127.941 85.7188 127.591 85.59 127.19L69.26 76.92C68.998 76.0948 69.2967 75.1948 70 74.69L91.12 59.32C91.8207 58.8113 92.7693 58.8113 93.47 59.32L136.22 90.38C137.112 91.0315 137.307 92.2828 136.655 93.1747 136.534 93.3414 136.387 93.4882 136.22 93.61L88.65 128.18C88.1364 128.554 87.4757 128.662 86.87 128.47 86.6704 128.405 86.4816 128.311 86.31 128.19ZM73.5 77.07 88.5 123.34 131.65 92 92.29 63.4Z" stroke="#040000" stroke-miterlimit="10" fill="#060001"/><path d="M43.47 159.29C43.1307 159.041 42.8788 158.691 42.75 158.29L26.42 108C26.1607 107.18 26.4547 106.286 27.15 105.78L70 74.69C70.5178 74.3163 71.1828 74.2122 71.79 74.41 72.4046 74.5946 72.8854 75.0754 73.07 75.69L89.38 126C89.6441 126.823 89.3496 127.722 88.65 128.23L45.82 159.29C45.1193 159.799 44.1707 159.799 43.47 159.29ZM30.67 108.18 45.67 154.45 85.11 125.81 70.11 79.54Z" stroke="#040000" stroke-miterlimit="10" fill="#060001"/><path d="M224.28 159.3 181.44 128.18C180.74 127.668 180.449 126.764 180.72 125.94L197 75.69C197.198 75.0836 197.674 74.6081 198.28 74.41 198.887 74.2122 199.552 74.3163 200.07 74.69L243 105.82C243.696 106.33 243.986 107.229 243.72 108.05L227.35 158.3C227.006 159.35 225.877 159.922 224.827 159.578 224.631 159.514 224.447 159.42 224.28 159.3ZM185 125.8 224.45 154.45 239.45 108.2 200 79.53Z" stroke="#040000" stroke-miterlimit="10" fill="#060001"/><path d="M133.87 93.61 91.12 62.55C90.6032 62.1723 90.2983 61.5701 90.3 60.93 90.3015 60.2934 90.606 59.6956 91.12 59.32L133.88 28.32C134.579 27.8161 135.521 27.8161 136.22 28.32L179 59.33C179.517 59.7077 179.822 60.3099 179.82 60.95 179.818 61.5866 179.514 62.1844 179 62.56L136.22 93.61C135.519 94.1187 134.571 94.1187 133.87 93.61ZM95.69 60.94 135.05 89.53 174.4 61 135.05 32.4Z" stroke="#040000" stroke-miterlimit="10" fill="#060001"/><path d="M181.44 128.18 133.87 93.61C132.981 92.9547 132.791 91.7026 133.447 90.8135 133.566 90.6519 133.708 90.5091 133.87 90.39L176.61 59.33C177.311 58.8213 178.259 58.8213 178.96 59.33L200.1 74.69C200.796 75.2002 201.086 76.0992 200.82 76.92L184.5 127.18C184.302 127.786 183.826 128.262 183.22 128.46 182.616 128.654 181.955 128.55 181.44 128.18ZM138.44 92 181.57 123.33 196.57 77.07 177.8 63.41Z" stroke="#040000" stroke-miterlimit="10" fill="#060001"/><path d="M220.65 252.22C215.3 244.62 209.93 237 204.46 229.35 204.095 228.817 203.486 228.505 202.84 228.52L147.72 228.45C146.615 228.451 145.721 229.347 145.722 230.452 145.722 230.871 145.855 231.28 146.1 231.62 151.37 238.78 156.55 245.92 161.73 253.04L163.14 254.98C163.258 255.153 163.407 255.302 163.58 255.42 163.916 255.668 164.322 255.804 164.74 255.81L217.41 255.99C218.121 255.892 218.792 255.602 219.35 255.15 220.022 254.472 220.448 253.588 220.56 252.64 220.549 252.494 220.58 252.348 220.65 252.22ZM165.78 251.82 164.96 250.69C160.553 244.63 156.12 238.547 151.66 232.44L201.81 232.5C206.46 239.02 211.04 245.5 215.61 251.99Z" stroke="#040000" stroke-miterlimit="10" fill="#060001"/></g></g></g></svg>