<svg version="1.1" viewBox="0 0 242.75 230.73" xmlns="http://www.w3.org/2000/svg" xmlns:xlink="http://www.w3.org/1999/xlink" overflow="hidden"><defs></defs><g id="b2f0c1a5-c964-44b0-9b7a-e3ef82e3630a"><g id="b30d781b-25f2-4203-81f8-23c3f340aaa6"><path d=" M 136.76 155.14 L 77.98 155.14 L 59.8 99.24 L 107.38 64.67 L 154.93 99.22 L 136.76 155.14 Z" fill="#808080"/><path d=" M 136.76 155.14 L 154.93 99.22 L 107.38 64.67 L 59.8 99.24 L 77.98 155.14 L 136.76 155.14 Z" stroke="#040000" stroke-miterlimit="10" fill="none"/><path d=" M 57.9 98.61 C 58.0314 98.2078 58.287 97.8577 58.63 97.61 L 106.19 63.07 C 106.891 62.5613 107.839 62.5613 108.54 63.07 L 156.11 97.62 C 156.81 98.1275 157.104 99.027 156.84 99.85 L 138.67 155.77 C 138.402 156.593 137.635 157.149 136.77 157.15 L 77.97 157.15 C 77.1085 157.145 76.347 156.589 76.08 155.77 L 57.9 99.84 C 57.7651 99.4411 57.7651 99.0089 57.9 98.61 Z M 107.37 67.15 L 62.14 100 L 79.42 153.16 L 135.32 153.16 L 152.6 100 Z" stroke="#040000" stroke-miterlimit="10" fill="#211613"/><path d=" M 27.09 228.14 L 43.52 205.71 L 94.34 205.71 L 77.9 228.14 L 27.09 228.14 Z" stroke="#040000" stroke-miterlimit="10" fill="#808080" fill-rule="evenodd"/><path d=" M 79.51 229.31 L 96 206.88 C 96.4426 206.274 96.5082 205.47 96.17 204.8 C 95.8283 204.131 95.1409 203.71 94.39 203.71 L 43.52 203.71 C 42.8834 203.712 42.2856 204.016 41.91 204.53 L 25.48 227 C 25.3578 227.171 25.2634 227.36 25.2 227.56 C 25.2 227.56 25.2 227.63 25.2 227.66 C 24.9373 228.493 25.245 229.399 25.96 229.9 C 26.3301 230.105 26.7387 230.231 27.16 230.27 C 27.3466 230.266 27.5318 230.236 27.71 230.18 L 77.9 230.18 C 78.5457 230.167 79.1453 229.843 79.51 229.31 Z M 31 226.15 L 44.5 207.7 L 90.4 207.7 L 76.88 226.14 Z" stroke="#040000" stroke-miterlimit="10" fill="#060001"/><path d=" M 59.8 99.22 L 18.84 128.98 L 27.36 155.15 L 77.97 155.14 L 59.8 99.22 Z" stroke="#040000" stroke-miterlimit="10" fill="#808080" fill-rule="evenodd"/><path d=" M 27.36 155.15 L 43.72 205.53 L 94.33 205.52 L 77.97 155.14 L 27.36 155.15 Z" stroke="#040000" stroke-miterlimit="10" fill="#1B1B1B" fill-rule="evenodd"/><path d=" M 25.46 154.53 C 25.5263 154.332 25.6242 154.146 25.75 153.98 C 26.1234 153.462 26.7216 153.154 27.36 153.15 L 78 153.15 C 78.8652 153.151 79.6318 153.707 79.9 154.53 L 96.23 204.9 C 96.4278 205.507 96.3237 206.172 95.95 206.69 C 95.5744 207.204 94.9766 207.508 94.34 207.51 L 43.72 207.51 C 42.8585 207.505 42.097 206.949 41.83 206.13 L 25.46 155.76 C 25.3347 155.36 25.3347 154.93 25.46 154.53 Z M 76.52 157.13 L 30.11 157.13 L 45.18 203.51 L 91.59 203.51 Z" stroke="#040000" stroke-miterlimit="10" fill="#060001"/><path d=" M 18.84 128.98 L 59.8 99.22 L 43.44 48.88 L 2.5 78.64 L 18.84 128.98 Z" stroke="#040000" stroke-miterlimit="10" fill="#808080" fill-rule="evenodd"/><path d=" M 0.6 78 C 0.728773 77.5992 0.980736 77.2493 1.32 77 L 42.32 47.24 C 43.2161 46.5942 44.4661 46.7971 45.1119 47.6932 C 45.2322 47.8601 45.326 48.0445 45.39 48.24 L 61.7 98.61 C 61.9593 99.43 61.6653 100.324 60.97 100.83 L 20 130.59 C 19.484 130.967 18.8187 131.075 18.21 130.88 C 17.6281 130.661 17.181 130.185 17 129.59 L 0.6 79.26 C 0.458264 78.852 0.458264 78.408 0.6 78 Z M 42.39 52.12 L 4.84 79.41 L 19.89 125.74 L 57.46 98.46 Z" stroke="#040000" stroke-miterlimit="10" fill="#060001"/><path d=" M 107.36 64.68 L 64.54 33.55 L 43.44 48.88 L 59.8 99.22 L 107.36 64.68 Z" stroke="#040000" stroke-miterlimit="10" fill="#808080" fill-rule="evenodd"/><path d=" M 77.97 155.14 L 94.33 205.52 L 120.41 205.51 L 136.77 155.15 L 77.97 155.14 Z" stroke="#040000" stroke-miterlimit="10" fill="#808080" fill-rule="evenodd"/><path d=" M 154.94 99.23 L 171.27 48.97 L 150.12 33.61 L 107.36 64.68 L 154.94 99.23 Z" stroke="#040000" stroke-miterlimit="10" fill="#808080" fill-rule="evenodd"/><path d=" M 150.12 33.61 L 107.3 2.5 L 64.54 33.55 L 107.36 64.68 L 150.12 33.61 Z" stroke="#040000" stroke-miterlimit="10" fill="#808080" fill-rule="evenodd"/><path d=" M 120.41 205.51 L 173.25 205.52 L 189.61 155.14 L 136.77 155.15 L 120.41 205.51 Z" stroke="#040000" stroke-miterlimit="10" fill="#808080" fill-rule="evenodd"/><path d=" M 197.69 130.29 L 214.02 80.04 L 171.27 48.97 L 154.94 99.23 L 197.69 130.29 Z" stroke="#040000" stroke-miterlimit="10" fill="#1B1B1B" fill-rule="evenodd"/><path d=" M 136.77 155.15 L 189.61 155.14 L 197.69 130.29 L 154.94 99.23 L 136.77 155.15 Z" stroke="#040000" stroke-miterlimit="10" fill="#808080" fill-rule="evenodd"/><path d=" M 240.7 71.34 C 231.873 74.26 223.043 77.1967 214.21 80.15 L 197.66 131.09 C 206.493 128.137 215.317 125.203 224.13 122.29 C 229.65 105.303 235.173 88.32 240.7 71.34 Z" stroke="#040000" stroke-miterlimit="10" fill="#808080" fill-rule="evenodd"/><path d=" M 224.76 124.18 C 225.351 123.971 225.81 123.497 226 122.9 L 242.25 73 C 242.26 72.5615 242.23 72.123 242.16 71.69 C 242.15 71.6304 242.15 71.5696 242.16 71.51 C 241.982 70.9815 241.758 70.4695 241.49 69.98 L 241.41 69.9 C 241.274 69.7274 241.127 69.5637 240.97 69.41 C 240.967 69.3868 240.967 69.3632 240.97 69.34 C 240.685 69.3019 240.395 69.3258 240.12 69.41 C 231.28 72.33 222.447 75.2667 213.62 78.22 C 213.02 78.4188 212.549 78.8897 212.35 79.49 L 195.8 130.44 C 195.581 131.146 195.77 131.915 196.29 132.44 C 196.817 132.957 197.586 133.141 198.29 132.92 C 207.123 130.007 215.947 127.093 224.76 124.18 Z M 215.76 81.72 C 223.027 79.2933 230.287 76.88 237.54 74.48 L 222.54 120.71 L 200.77 127.94 Z" stroke="#040000" stroke-miterlimit="10" fill="#060001"/><path d=" M 16.94 128.36 C 17.0714 127.958 17.327 127.608 17.67 127.36 L 58.67 97.6 C 59.186 97.2229 59.8513 97.1151 60.46 97.31 C 61.0687 97.5101 61.5446 97.9898 61.74 98.6 L 79.91 154.51 C 80.1246 155.117 80.0153 155.792 79.62 156.3 C 79.2444 156.814 78.6466 157.118 78.01 157.12 L 27.36 157.12 C 26.4975 157.121 25.7317 156.569 25.46 155.75 L 16.94 129.6 C 16.8152 129.196 16.8152 128.764 16.94 128.36 Z M 58.75 102.46 L 21.19 129.74 L 28.81 153.15 L 75.23 153.15 Z" stroke="#040000" stroke-miterlimit="10" fill="#060001"/><path d=" M 41.54 48.27 C 41.6714 47.8678 41.927 47.5177 42.27 47.27 L 63.37 31.94 C 64.0686 31.4361 65.0114 31.4361 65.71 31.94 L 108.54 63.07 C 109.054 63.4456 109.358 64.0434 109.36 64.68 C 109.362 65.3201 109.057 65.9223 108.54 66.3 L 61 100.83 C 60.488 101.217 59.8179 101.325 59.21 101.12 C 58.6036 100.922 58.1281 100.446 57.93 99.84 L 41.54 49.5 C 41.4051 49.1011 41.4051 48.6689 41.54 48.27 Z M 64.54 36 L 45.78 49.65 L 60.85 96 L 104 64.68 Z" stroke="#040000" stroke-miterlimit="10" fill="#060001"/><path d=" M 76.07 154.52 C 76.3382 153.697 77.1049 153.141 77.97 153.14 L 136.77 153.14 C 137.41 153.138 138.012 153.443 138.39 153.96 C 138.764 154.478 138.868 155.143 138.67 155.75 L 122.31 206.11 C 122.038 206.929 121.272 207.481 120.41 207.48 L 94.34 207.48 C 93.4748 207.479 92.7082 206.923 92.44 206.1 L 76.08 155.75 C 75.9475 155.351 75.944 154.921 76.07 154.52 Z M 134.07 157.15 L 80.76 157.15 L 95.83 203.54 L 119 203.54 Z" stroke="#040000" stroke-miterlimit="10" fill="#060001"/><path d=" M 105.47 64.06 C 105.594 63.6569 105.847 63.3057 106.19 63.06 L 149 32 C 149.699 31.4961 150.641 31.4961 151.34 32 L 172.49 47.36 C 173.19 47.8675 173.484 48.767 173.22 49.59 L 156.84 99.85 C 156.642 100.456 156.166 100.932 155.56 101.13 C 154.951 101.325 154.286 101.217 153.77 100.84 L 106.19 66.29 C 105.676 65.9144 105.372 65.3166 105.37 64.68 C 105.367 64.4691 105.401 64.2594 105.47 64.06 Z M 150.12 36.06 L 110.76 64.67 L 153.89 96 L 168.89 49.72 Z" stroke="#040000" stroke-miterlimit="10" fill="#060001"/><path d=" M 62.64 32.94 C 62.7714 32.5378 63.027 32.1877 63.37 31.94 L 106.13 0.94 C 106.829 0.436089 107.771 0.436089 108.47 0.94 L 151.29 32 C 151.808 32.3734 152.116 32.9716 152.12 33.61 C 152.136 34.2506 151.827 34.8559 151.3 35.22 L 108.54 66.29 C 107.839 66.7987 106.891 66.7987 106.19 66.29 L 63.37 35.16 C 62.856 34.7844 62.5515 34.1866 62.55 33.55 C 62.5449 33.343 62.5753 33.1367 62.64 32.94 Z M 107.3 5 L 67.94 33.55 L 107.36 62.21 L 146.73 33.62 Z" stroke="#040000" stroke-miterlimit="10" fill="#060001"/><path d=" M 118.51 204.89 L 134.87 154.54 C 135.138 153.717 135.905 153.161 136.77 153.16 L 189.61 153.16 C 190.715 153.163 191.608 154.06 191.605 155.165 C 191.605 155.37 191.573 155.574 191.51 155.77 L 175.14 206.14 C 174.873 206.959 174.111 207.515 173.25 207.52 L 120.41 207.52 C 119.771 207.529 119.169 207.222 118.8 206.7 C 118.416 206.179 118.308 205.505 118.51 204.89 Z M 138.22 157.15 L 123.16 203.52 L 171.8 203.52 L 186.87 157.14 Z" stroke="#040000" stroke-miterlimit="10" fill="#060001"/><path d=" M 153 98.62 L 169.33 48.35 C 169.53 47.7413 170.01 47.2654 170.62 47.07 C 171.226 46.8785 171.886 46.9861 172.4 47.36 L 215.15 78.43 C 215.842 78.9387 216.131 79.8322 215.87 80.65 L 199.55 130.91 C 199.35 131.519 198.87 131.995 198.26 132.19 C 197.654 132.382 196.994 132.274 196.48 131.9 L 153.73 100.84 C 153.035 100.334 152.741 99.44 153 98.62 Z M 172.32 52.2 L 157.32 98.47 L 196.67 127.06 L 211.67 80.8 Z" stroke="#040000" stroke-miterlimit="10" fill="#060001"/><path d=" M 134.87 154.54 L 153 98.62 C 153.2 98.0113 153.68 97.5354 154.29 97.34 C 154.894 97.1456 155.555 97.2495 156.07 97.62 L 198.82 128.68 C 199.52 129.188 199.814 130.087 199.55 130.91 L 191.47 155.76 C 191.202 156.583 190.435 157.139 189.57 157.14 L 136.77 157.14 C 135.665 157.137 134.772 156.24 134.775 155.135 C 134.775 154.93 134.807 154.726 134.87 154.53 Z M 156 102.46 L 139.53 153.16 L 188.17 153.16 L 195.35 131.06 Z" stroke="#040000" stroke-miterlimit="10" fill="#060001"/></g></g></svg>