<svg version="1.1" viewBox="0 0 242.62 256.81" xmlns="http://www.w3.org/2000/svg" xmlns:xlink="http://www.w3.org/1999/xlink" overflow="hidden"><defs></defs><g id="e242fdf8-b010-4ae6-aec2-3b6f96f8bc15"><g id="b15f27d7-32fe-4617-b8ac-630a6ac11ede"><path d=" M 79.15 181.38 L 61.02 125.44 L 108.57 90.88 L 156.11 125.44 L 137.95 181.38 L 79.15 181.38 Z" fill="#808080"/><path d=" M 79.15 181.38 L 137.95 181.38 L 156.11 125.44 L 108.57 90.88 L 61.02 125.44 L 79.15 181.38 Z" stroke="#040000" stroke-miterlimit="10" fill="none"/><path d=" M 108.57 88.88 C 108.991 88.8835 109.401 89.02 109.74 89.27 L 157.3 123.83 C 157.992 124.343 158.278 125.241 158.01 126.06 L 139.85 182 C 139.583 182.819 138.821 183.375 137.96 183.38 L 79.16 183.38 C 78.2949 183.379 77.5282 182.823 77.26 182 L 59.11 126.06 C 58.8438 125.239 59.1341 124.34 59.83 123.83 L 107.4 89.27 C 107.737 89.0149 108.148 88.8778 108.57 88.88 Z M 153.77 126.21 L 108.57 93.34 L 63.35 126.21 L 80.61 179.37 L 136.51 179.37 Z" stroke="#040000" stroke-miterlimit="10" fill="#211613"/><path d=" M 108.56 90.88 L 67.61 61.12 L 45.35 77.31 L 61 125.44 L 108.56 90.88 Z" stroke="#040000" stroke-miterlimit="10" fill="#808080" fill-rule="evenodd"/><path d=" M 45.35 77.31 L 2.5 108.44 L 18.15 156.57 L 61 125.44 L 45.35 77.31 Z" stroke="#040000" stroke-miterlimit="10" fill="#808080" fill-rule="evenodd"/><path d=" M 45.35 75.32 C 45.5608 75.3181 45.7704 75.352 45.97 75.42 C 46.5764 75.6181 47.0519 76.0936 47.25 76.7 L 62.9 124.83 C 63.1641 125.653 62.8696 126.552 62.17 127.06 L 19.32 158.19 C 18.4239 158.836 17.1739 158.633 16.5281 157.737 C 16.4078 157.57 16.314 157.385 16.25 157.19 L 0.6 109.06 C 0.335915 108.237 0.630374 107.338 1.33 106.83 L 44.18 75.7 C 44.5204 75.4536 44.9298 75.3206 45.35 75.32 Z M 58.66 124.68 L 44.3 80.54 L 4.84 109.21 L 19.2 153.34 Z" stroke="#040000" stroke-miterlimit="10" fill="#060001"/><path d=" M 67.61 61.12 L 108.56 90.88 L 151.38 59.77 L 110.43 30.02 L 67.61 61.12 Z" stroke="#040000" stroke-miterlimit="10" fill="#808080" fill-rule="evenodd"/><path d=" M 110.43 28 C 110.851 27.9957 111.262 28.1291 111.6 28.38 L 152.6 58.12 C 153.121 58.4955 153.429 59.0981 153.43 59.74 C 153.426 60.3784 153.118 60.9766 152.6 61.35 L 109.74 92.49 C 109.041 92.9939 108.099 92.9939 107.4 92.49 L 66.4 62.74 C 65.8794 62.3645 65.5707 61.7619 65.57 61.12 C 65.5739 60.4816 65.8822 59.8834 66.4 59.51 L 109.22 28.41 C 109.565 28.1399 109.992 27.9953 110.43 28 Z M 148 59.77 L 110.43 32.49 L 71 61.12 L 108.56 88.42 Z" stroke="#040000" stroke-miterlimit="10" fill="#060001"/><path d=" M 156.12 125.44 L 172.49 75.1 L 151.38 59.77 L 108.56 90.88 L 156.12 125.44 Z" stroke="#040000" stroke-miterlimit="10" fill="#808080" fill-rule="evenodd"/><path d=" M 61 125.44 L 18.15 156.57 L 26.21 181.37 L 79.16 181.37 L 61 125.44 Z" stroke="#040000" stroke-miterlimit="10" fill="#808080" fill-rule="evenodd"/><path d=" M 137.96 181.37 L 190.81 181.37 L 198.88 156.51 L 156.12 125.44 L 137.96 181.37 Z" stroke="#040000" stroke-miterlimit="10" fill="#808080" fill-rule="evenodd"/><path d=" M 198.88 156.51 L 215.24 106.16 L 172.49 75.1 L 156.12 125.44 L 198.88 156.51 Z" stroke="#040000" stroke-miterlimit="10" fill="#808080" fill-rule="evenodd"/><path d=" M 26.21 181.37 L 42.53 231.62 L 95.5 231.62 L 79.16 181.37 L 26.21 181.37 Z" stroke="#040000" stroke-miterlimit="10" fill="#808080" fill-rule="evenodd"/><path d=" M 121.63 231.62 L 174.47 231.62 L 190.81 181.37 L 137.96 181.37 L 121.63 231.62 Z" stroke="#040000" stroke-miterlimit="10" fill="#808080" fill-rule="evenodd"/><path d=" M 79.16 181.37 L 95.5 231.62 L 121.63 231.62 L 137.96 181.37 L 79.16 181.37 Z" stroke="#040000" stroke-miterlimit="10" fill="#808080" fill-rule="evenodd"/><path d=" M 109.49 2.5 C 95.61 12.5 81.7033 22.5367 67.77 32.61 C 67.9233 42.0033 68.06 51.4667 68.18 61 L 110.37 30.45 C 110.083 21.05 109.79 11.7333 109.49 2.5 Z" stroke="#040000" stroke-miterlimit="10" fill="#ADD8E6" fill-rule="evenodd"/><path d=" M 109.49 0.5 C 109.795 0.500806 110.095 0.569112 110.37 0.7 C 111.035 1.02512 111.465 1.69057 111.49 2.43 L 112.36 30.37 C 112.378 31.0277 112.071 31.6521 111.54 32.04 L 69.35 62.6 C 68.4542 63.2462 67.2041 63.0439 66.5579 62.1481 C 66.3165 61.8136 66.1845 61.4125 66.18 61 L 65.77 32.63 C 65.7674 31.9846 66.0765 31.3776 66.6 31 L 108.32 0.87 C 108.662 0.627115 109.071 0.497687 109.49 0.5 Z M 108.34 29.43 L 107.61 6.31 L 69.78 33.62 L 70.12 57.11 Z" stroke="#040000" stroke-miterlimit="10" fill="#060001"/><path d=" M 240.13 96.28 C 226.13 86.1733 212.247 76.1267 198.48 66.14 L 172.73 75 L 214.16 105.26 C 222.793 102.253 231.45 99.26 240.13 96.28 Z" stroke="#040000" stroke-miterlimit="10" fill="#EEE8AA" fill-rule="evenodd"/><path d=" M 171.55 76.62 L 213 106.87 C 213.527 107.257 214.211 107.362 214.83 107.15 C 222.96 104.31 231.1 101.51 239.27 98.69 L 240.79 98.16 C 241.495 97.919 242.007 97.3063 242.12 96.57 C 242.17 96.3192 242.17 96.0609 242.12 95.81 L 242.12 95.81 C 242.12 95.81 242.12 95.81 242.12 95.81 C 242.02 95.6992 241.942 95.5702 241.89 95.43 L 241.36 94.82 C 241.24 94.68 241.11 94.54 241 94.4 C 227.14 84.4 213.393 74.4567 199.76 64.57 C 199.42 64.3236 199.01 64.1906 198.59 64.19 C 198.369 64.1915 198.149 64.2287 197.94 64.3 L 172.18 73.16 C 171.479 73.404 170.971 74.0161 170.86 74.75 C 170.741 75.4517 171.004 76.1638 171.55 76.62 Z M 198.15 68.37 C 210.63 77.41 223.193 86.5 235.84 95.64 C 228.7 98.1 221.583 100.563 214.49 103.03 L 177 75.65 Z" stroke="#040000" stroke-miterlimit="10" fill="#060001"/><path d=" M 151.14 31.86 C 151.3 41.0667 151.48 50.3233 151.68 59.63 L 172.68 75 L 198.43 66.14 L 174.65 48.9 C 166.79 43.2 158.953 37.52 151.14 31.86 Z" stroke="#040000" stroke-miterlimit="10" fill="#ADD8E6" fill-rule="evenodd"/><path d=" M 151.14 29.87 C 151.556 29.8698 151.961 29.9991 152.3 30.24 L 199.65 64.53 C 200.541 65.1831 200.733 66.4347 200.08 67.3255 C 199.842 67.6508 199.511 67.8964 199.13 68.03 L 173.38 76.89 C 172.763 77.1045 172.079 77.0036 171.55 76.62 L 150.5 61.24 C 149.994 60.8707 149.691 60.286 149.68 59.66 C 149.493 50.3667 149.313 41.1133 149.14 31.9 C 149.125 31.1427 149.539 30.4421 150.21 30.09 C 150.5 29.9478 150.817 29.8726 151.14 29.87 Z M 194.2 65.51 L 153.2 35.83 C 153.34 43.3833 153.49 50.9733 153.65 58.6 L 173.06 72.77 Z" stroke="#040000" stroke-miterlimit="10" fill="#060001"/><path d=" M 109.45 1.7 C 109.53 10.7333 109.613 19.82 109.7 28.96 C 123.587 39.1 137.587 49.3233 151.7 59.63 C 151.513 50.2967 151.333 41.04 151.16 31.86 Z" stroke="#040000" stroke-miterlimit="10" fill="#EEE8AA" fill-rule="evenodd"/><path d=" M 108.53 30.58 L 150.53 61.24 C 151.148 61.6742 151.954 61.7356 152.63 61.4 C 153.305 61.0507 153.723 60.3495 153.71 59.59 C 153.51 50.2567 153.327 41.0033 153.16 31.83 C 153.147 31.2022 152.839 30.6172 152.33 30.25 L 111.69 0.86 C 111.482 0.791215 111.268 0.744295 111.05 0.72 L 110.75 0.66 C 110.56 0.683123 110.368 0.659078 110.19 0.59 C 109.998 0.622206 109.801 0.601462 109.62 0.53 C 109.042 0.577496 108.493 0.804784 108.05 1.18 C 107.899 1.33454 107.703 1.43626 107.49 1.47 C 107.485 1.55324 107.485 1.63676 107.49 1.72 L 107.71 29 C 107.721 29.626 108.024 30.2107 108.53 30.58 Z M 111.53 5.64 L 149.19 32.89 C 149.33 40.4367 149.48 48.0167 149.64 55.63 L 111.69 27.94 Z" stroke="#040000" stroke-miterlimit="10" fill="#040000"/><path d=" M 26.49 254.27 L 77.79 254.27 C 83.3567 246.79 88.9033 239.31 94.43 231.83 L 43.12 231.83 C 37.56 239.29 32 246.78 26.49 254.27 Z" stroke="#040000" stroke-miterlimit="10" fill="#FFA100" fill-rule="evenodd"/><path d=" M 25.05 255.61 C 25.4445 255.909 25.9034 256.111 26.39 256.2 L 26.45 256.2 C 26.5624 256.179 26.6776 256.179 26.79 256.2 L 27.05 256.2 L 77.79 256.2 C 78.4213 256.198 79.0144 255.897 79.39 255.39 L 96 233 C 96.6517 232.108 96.4571 230.857 95.5653 230.205 C 95.2268 229.958 94.8192 229.823 94.4 229.82 L 43.12 229.82 C 42.4887 229.822 41.8956 230.123 41.52 230.63 C 37.98 235.37 34.47 240.12 30.94 244.87 L 24.88 253.06 C 24.304 253.806 24.3505 254.858 24.99 255.55 Z M 34.16 247.27 C 37.4933 242.79 40.8267 238.31 44.16 233.83 L 90.47 233.83 L 76.79 252.29 L 30.45 252.29 Z" stroke="#040000" stroke-miterlimit="10" fill="#060001"/><path d=" M 191 254.31 C 185.5 246.81 179.98 239.32 174.44 231.84 L 120.86 231.84 C 126.393 239.32 131.91 246.807 137.41 254.3 Z" stroke="#040000" stroke-miterlimit="10" fill="#FFA100" fill-rule="evenodd"/><path d=" M 135.8 255.48 C 136.178 255.99 136.775 256.291 137.41 256.29 L 189.85 256.29 C 190.271 256.161 190.68 255.994 191.07 255.79 C 191.122 255.769 191.175 255.752 191.23 255.74 C 191.68 255.413 192.099 255.045 192.48 254.64 C 192.495 254.606 192.511 254.572 192.53 254.54 C 192.65 254.35 192.77 254.16 192.87 253.96 L 192.87 253.9 C 192.817 253.619 192.704 253.353 192.54 253.12 C 187.033 245.613 181.513 238.117 175.98 230.63 C 175.602 230.12 175.005 229.819 174.37 229.82 L 120.86 229.82 C 119.755 229.823 118.862 230.72 118.865 231.825 C 118.866 232.247 119.001 232.659 119.25 233 C 124.79 240.507 130.307 248 135.8 255.48 Z M 173.41 233.83 C 177.977 239.997 182.52 246.16 187.04 252.32 L 138.42 252.32 L 124.82 233.85 Z" stroke="#040000" stroke-miterlimit="10" fill="#060001"/><path d=" M 67.61 59.13 C 68.031 59.1257 68.4419 59.2591 68.78 59.51 L 109.78 89.27 C 110.669 89.9253 110.859 91.1774 110.203 92.0665 C 110.084 92.2281 109.942 92.3709 109.78 92.49 L 62.17 127.06 C 61.6622 127.448 60.9925 127.554 60.39 127.34 C 59.7836 127.142 59.3081 126.666 59.11 126.06 L 43.46 77.93 C 43.1938 77.1092 43.4841 76.2102 44.18 75.7 L 66.43 59.51 C 66.7732 59.2616 67.1863 59.1285 67.61 59.13 Z M 105.17 90.88 L 67.61 63.59 L 47.7 78.08 L 62.06 122.21 Z" stroke="#040000" stroke-miterlimit="10" fill="#060001"/><path d=" M 151.38 57.77 C 151.801 57.7642 152.213 57.8978 152.55 58.15 L 173.66 73.48 C 174.356 73.9902 174.646 74.8892 174.38 75.71 L 158 126.06 C 157.802 126.666 157.326 127.142 156.72 127.34 C 156.114 127.55 155.443 127.445 154.93 127.06 L 107.4 92.49 C 106.511 91.8347 106.321 90.5826 106.977 89.6935 C 107.096 89.5319 107.238 89.3891 107.4 89.27 L 150.22 58.15 C 150.554 57.8992 150.962 57.7656 151.38 57.77 Z M 170.14 75.86 L 151.38 62.23 L 112 90.88 L 155.11 122.21 Z" stroke="#040000" stroke-miterlimit="10" fill="#060001"/><path d=" M 61 123.45 C 61.2109 123.447 61.4206 123.481 61.62 123.55 C 62.2264 123.748 62.7019 124.224 62.9 124.83 L 81.05 180.75 C 81.2512 181.36 81.147 182.03 80.77 182.55 C 80.3944 183.064 79.7966 183.368 79.16 183.37 L 26.21 183.37 C 25.3449 183.369 24.5782 182.813 24.31 181.99 L 16.25 157.19 C 16.0092 156.375 16.31 155.496 17 155 L 59.85 123.87 C 60.18 123.613 60.5822 123.466 61 123.45 Z M 76.41 179.37 L 60 128.67 L 20.49 157.34 L 27.66 179.34 Z" stroke="#040000" stroke-miterlimit="10" fill="#060001"/><path d=" M 156.12 123.45 C 156.54 123.451 156.95 123.584 157.29 123.83 L 200 154.89 C 200.704 155.399 200.999 156.304 200.73 157.13 L 192.7 182 C 192.432 182.823 191.665 183.379 190.8 183.38 L 138 183.38 C 136.895 183.379 136.001 182.483 136.001 181.379 C 136.002 181.168 136.035 180.96 136.1 180.76 L 154.26 124.84 C 154.458 124.234 154.934 123.758 155.54 123.56 C 155.726 123.493 155.922 123.456 156.12 123.45 Z M 196.53 157.27 L 157.17 128.67 L 140.7 179.37 L 189.35 179.37 Z" stroke="#040000" stroke-miterlimit="10" fill="#060001"/><path d=" M 172.49 73.1 C 172.91 73.1006 173.32 73.2336 173.66 73.48 L 216.41 104.55 C 217.106 105.06 217.396 105.959 217.13 106.78 L 200.77 157.13 C 200.569 157.733 200.094 158.204 199.49 158.4 C 198.888 158.616 198.217 158.51 197.71 158.12 L 155 127.06 C 154.3 126.552 154.006 125.653 154.27 124.83 L 170.64 74.48 C 170.838 73.8736 171.314 73.3981 171.92 73.2 C 172.104 73.1373 172.296 73.1036 172.49 73.1 Z M 212.89 106.93 L 173.54 78.33 L 158.47 124.68 L 197.82 153.28 Z" stroke="#040000" stroke-miterlimit="10" fill="#060001"/><path d=" M 26.21 179.37 L 79.21 179.37 C 80.0715 179.375 80.833 179.931 81.1 180.75 L 97.39 231 C 97.5878 231.607 97.4837 232.272 97.11 232.79 C 96.7366 233.308 96.1384 233.616 95.5 233.62 L 42.5 233.62 C 41.6385 233.615 40.877 233.059 40.61 232.24 L 24.31 182 C 23.9676 180.95 24.5413 179.821 25.5915 179.479 C 25.7912 179.413 25.9999 179.38 26.21 179.38 Z M 77.71 183.37 L 29 183.37 L 44 229.62 L 92.75 229.62 Z" stroke="#040000" stroke-miterlimit="10" fill="#060001"/><path d=" M 138 179.37 L 190.8 179.37 C 191.905 179.371 192.799 180.267 192.799 181.371 C 192.798 181.582 192.765 181.79 192.7 181.99 L 176.36 232.24 C 176.093 233.059 175.331 233.615 174.47 233.62 L 121.63 233.62 C 120.525 233.619 119.631 232.723 119.631 231.619 C 119.632 231.408 119.665 231.2 119.73 231 L 136.06 180.75 C 136.333 179.913 137.12 179.353 138 179.37 Z M 188.1 183.37 L 139.41 183.37 L 124.41 229.62 L 173 229.62 Z" stroke="#040000" stroke-miterlimit="10" fill="#060001"/><path d=" M 79.16 179.37 L 138 179.37 C 138.638 179.374 139.237 179.682 139.61 180.2 C 139.984 180.718 140.088 181.383 139.89 181.99 L 123.56 232.24 C 123.293 233.059 122.531 233.615 121.67 233.62 L 95.5 233.62 C 94.6348 233.619 93.8682 233.063 93.6 232.24 L 77.26 182 C 76.9176 180.95 77.4913 179.821 78.5415 179.479 C 78.7412 179.413 78.9499 179.38 79.16 179.38 Z M 135.21 183.37 L 81.9 183.37 L 96.9 229.62 L 120.13 229.62 Z" stroke="#040000" stroke-miterlimit="10" fill="#060001"/></g></g></svg>