<svg version="1.1" viewBox="0 0 253.66 256.79" xmlns="http://www.w3.org/2000/svg" xmlns:xlink="http://www.w3.org/1999/xlink" overflow="hidden"><defs></defs><g id="e9c09ad9-fd51-472c-b216-fa3dfcf4eed9"><g id="bce9ddec-1de8-423c-a0b0-a97986026567"><path d=" M 90.21 181.35 L 72.05 125.42 L 119.6 90.85 L 167.18 125.42 L 149.01 181.35 L 90.21 181.35 Z" fill="#808080"/><path d=" M 90.21 181.35 L 149.01 181.35 L 167.18 125.42 L 119.6 90.85 L 72.05 125.42 L 90.21 181.35 Z" stroke="#040000" stroke-miterlimit="10" fill="none"/><path d=" M 119.61 88.87 C 120.034 88.8685 120.447 89.0016 120.79 89.25 L 168.34 123.81 C 169.036 124.32 169.326 125.219 169.06 126.04 L 150.89 182 C 150.623 182.819 149.861 183.375 149 183.38 L 90.2 183.38 C 89.3385 183.375 88.577 182.819 88.31 182 L 70.15 126 C 69.8859 125.177 70.1804 124.278 70.88 123.77 L 118.44 89.21 C 118.782 88.972 119.193 88.8526 119.61 88.87 Z M 164.81 126.19 L 119.61 93.33 L 74.4 126.19 L 91.65 179.36 L 147.55 179.36 Z" stroke="#040000" stroke-miterlimit="10" fill="#211613"/><path d=" M 2.6 147.91 L 29.01 156.62 L 37.1 181.51 L 20.84 204.06 L 2.6 147.91 Z" stroke="#040000" stroke-miterlimit="10" fill="#ADD8E6" fill-rule="evenodd"/><path d=" M 2.6 145.92 C 2.81083 145.918 3.02045 145.952 3.22 146.02 L 29.63 154.72 C 30.2326 154.921 30.7039 155.396 30.9 156 L 39 180.89 C 39.2006 181.496 39.1003 182.161 38.73 182.68 L 22.46 205.23 C 21.812 206.124 20.5615 206.324 19.667 205.676 C 19.3258 205.429 19.0713 205.08 18.94 204.68 L 0.87 149.08 C 0.22935 148.18 0.439432 146.931 1.33923 146.291 C 1.67817 146.049 2.08393 145.92 2.5 145.92 Z M 27.43 158.2 L 5.71 151 L 21.52 199.7 L 34.88 181.16 Z" stroke="#040000" stroke-miterlimit="10" fill="#060001"/><path d=" M 37.1 181.51 L 53.5 231.98 L 37.25 254.53 L 20.84 204.06 L 37.1 181.51 Z" stroke="#040000" stroke-miterlimit="10" fill="#ADD8E6" fill-rule="evenodd"/><path d=" M 36 255.52 L 36.13 255.59 C 36.5216 255.889 36.9766 256.094 37.46 256.19 L 37.52 256.19 C 37.6525 256.169 37.7875 256.169 37.92 256.19 C 37.9829 256.2 38.0471 256.2 38.11 256.19 L 38.21 256.19 C 38.4814 256.061 38.7181 255.869 38.9 255.63 L 55.16 233.08 C 55.5303 232.561 55.6306 231.896 55.43 231.29 L 39 180.89 C 38.7699 180.176 38.16 179.651 37.42 179.53 L 37.11 179.53 C 36.4669 179.537 35.864 179.844 35.48 180.36 L 19.22 202.89 C 18.8463 203.408 18.7422 204.073 18.94 204.68 L 35.12 254.41 C 35.3789 254.806 35.6734 255.178 36 255.52 Z M 23.05 204.4 L 36.42 185.87 L 51.29 231.63 L 37.93 250.17 Z" stroke="#040000" stroke-miterlimit="10" fill="#060001"/><path d=" M 119.61 90.86 L 78.65 61.1 L 56.4 77.29 L 72.05 125.42 L 119.61 90.86 Z" stroke="#040000" stroke-miterlimit="10" fill="#808080" fill-rule="evenodd"/><path d=" M 56.4 77.29 L 13.54 108.42 L 29.19 156.55 L 72.05 125.42 L 56.4 77.29 Z" stroke="#040000" stroke-miterlimit="10" fill="#808080" fill-rule="evenodd"/><path d=" M 56.4 75.3 C 56.6076 75.2981 56.8139 75.3319 57.01 75.4 C 57.6164 75.5981 58.0919 76.0736 58.29 76.68 L 73.94 124.81 C 74.2062 125.631 73.9159 126.53 73.22 127.04 L 30.36 158.17 C 29.8422 158.544 29.1772 158.648 28.57 158.45 C 27.9636 158.252 27.4881 157.776 27.29 157.17 L 11.64 109 C 11.3759 108.177 11.6704 107.278 12.37 106.77 L 55.23 75.68 C 55.5704 75.4336 55.9798 75.3006 56.4 75.3 Z M 69.7 124.66 L 55.34 80.52 L 15.89 109.19 L 30.24 153.33 Z" stroke="#040000" stroke-miterlimit="10" fill="#060001"/><path d=" M 78.65 61.1 L 119.61 90.86 L 162.43 59.75 L 121.47 30.01 L 78.65 61.1 Z" stroke="#040000" stroke-miterlimit="10" fill="#808080" fill-rule="evenodd"/><path d=" M 121.47 28 C 121.891 27.9942 122.303 28.1278 122.64 28.38 L 163.64 58.12 C 164.157 58.4977 164.462 59.0999 164.46 59.74 C 164.458 60.3766 164.154 60.9744 163.64 61.35 L 120.78 92.48 C 120.081 92.9839 119.139 92.9839 118.44 92.48 L 77.44 62.72 C 76.5481 62.0685 76.3532 60.8172 77.0047 59.9253 C 77.1265 59.7586 77.2733 59.6118 77.44 59.49 L 120.26 28.39 C 120.61 28.1319 121.035 27.9949 121.47 28 Z M 159 59.75 L 121.47 32.47 L 82.05 61.1 L 119.61 88.4 Z" stroke="#040000" stroke-miterlimit="10" fill="#060001"/><path d=" M 167.16 125.42 L 183.53 75.08 L 162.43 59.75 L 119.61 90.86 L 167.16 125.42 Z" stroke="#040000" stroke-miterlimit="10" fill="#808080" fill-rule="evenodd"/><path d=" M 72.05 125.42 L 29.19 156.55 L 37.25 181.35 L 90.2 181.35 L 72.05 125.42 Z" stroke="#040000" stroke-miterlimit="10" fill="#808080" fill-rule="evenodd"/><path d=" M 149 181.35 L 201.85 181.35 L 209.92 156.49 L 167.16 125.42 L 149 181.35 Z" stroke="#040000" stroke-miterlimit="10" fill="#808080" fill-rule="evenodd"/><path d=" M 209.92 156.49 L 226.28 106.15 L 183.53 75.08 L 167.16 125.42 L 209.92 156.49 Z" stroke="#040000" stroke-miterlimit="10" fill="#808080" fill-rule="evenodd"/><path d=" M 37.25 181.35 L 53.57 231.6 L 106.54 231.6 L 90.2 181.35 L 37.25 181.35 Z" stroke="#040000" stroke-miterlimit="10" fill="#808080" fill-rule="evenodd"/><path d=" M 132.67 231.6 L 185.51 231.6 L 201.85 181.35 L 149 181.35 L 132.67 231.6 Z" stroke="#040000" stroke-miterlimit="10" fill="#808080" fill-rule="evenodd"/><path d=" M 90.2 181.35 L 106.54 231.6 L 132.67 231.6 L 149 181.35 L 90.2 181.35 Z" stroke="#040000" stroke-miterlimit="10" fill="#808080" fill-rule="evenodd"/><path d=" M 251.17 96.26 C 237.17 86.1467 223.29 76.1033 209.53 66.13 C 200.93 69.0833 192.343 72.0367 183.77 74.99 L 225.2 105.24 C 233.84 102.233 242.497 99.24 251.17 96.26 Z" stroke="#040000" stroke-miterlimit="10" fill="#EEE8AA" fill-rule="evenodd"/><path d=" M 182.59 76.6 L 224 106.86 C 224.532 107.247 225.22 107.348 225.84 107.13 C 233.96 104.29 242.1 101.49 250.28 98.67 L 251.8 98.15 C 252.504 97.9043 253.013 97.2877 253.12 96.55 C 253.17 96.3025 253.17 96.0475 253.12 95.8 L 253.12 95.8 L 253.12 95.8 C 253.025 95.6816 252.948 95.5503 252.89 95.41 L 252.36 94.81 L 252 94.39 C 238.14 84.39 224.393 74.4433 210.76 64.55 C 210.42 64.3036 210.01 64.1706 209.59 64.17 C 209.369 64.1715 209.149 64.2087 208.94 64.28 L 183.12 73.1 C 182.076 73.4622 181.524 74.6017 181.886 75.6452 C 182.019 76.0273 182.264 76.3602 182.59 76.6 Z M 209.19 68.35 C 221.67 77.4033 234.233 86.4967 246.88 95.63 C 239.753 98.0833 232.64 100.543 225.54 103.01 L 188 75.63 Z" stroke="#040000" stroke-miterlimit="10" fill="#060001"/><path d=" M 120.5 1.68 C 120.58 10.7133 120.663 19.8033 120.75 28.95 C 134.637 39.0767 148.637 49.2967 162.75 59.61 C 162.563 50.31 162.383 41.0567 162.21 31.85 Z" stroke="#040000" stroke-miterlimit="10" fill="#EEE8AA" fill-rule="evenodd"/><path d=" M 119.57 30.56 L 161.57 61.22 C 162.181 61.6634 162.989 61.7253 163.66 61.38 C 164.335 61.0307 164.753 60.3295 164.74 59.57 C 164.553 50.27 164.37 41.0167 164.19 31.81 C 164.179 31.184 163.876 30.5993 163.37 30.23 L 122.74 0.84 C 122.528 0.772271 122.311 0.725381 122.09 0.7 C 122.03 0.7 121.91 0.7 121.79 0.7 C 121.6 0.715094 121.408 0.68777 121.23 0.62 C 121.038 0.652206 120.841 0.631462 120.66 0.56 C 120.083 0.611985 119.535 0.838733 119.09 1.21 C 118.939 1.36454 118.743 1.46626 118.53 1.5 C 118.526 1.58328 118.526 1.66672 118.53 1.75 L 118.75 29 C 118.767 29.6189 119.07 30.195 119.57 30.56 Z M 122.57 5.62 L 160.2 32.88 C 160.34 40.42 160.487 48 160.64 55.62 L 122.74 27.92 Z" stroke="#040000" stroke-miterlimit="10" fill="#040000"/><path d=" M 37.53 254.25 L 88.84 254.25 C 94.4 246.77 99.9433 239.29 105.47 231.81 L 54.16 231.81 C 48.6133 239.27 43.07 246.75 37.53 254.25 Z" stroke="#040000" stroke-miterlimit="10" fill="#FFA100" fill-rule="evenodd"/><path d=" M 36.1 255.59 C 36.4916 255.889 36.9466 256.094 37.43 256.19 L 37.49 256.19 C 37.6027 256.174 37.7173 256.174 37.83 256.19 C 37.9133 256.195 37.9967 256.195 38.08 256.19 L 88.84 256.19 C 89.4695 256.19 90.0623 255.894 90.44 255.39 L 107.08 233 C 107.737 232.112 107.55 230.86 106.663 230.203 C 106.317 229.947 105.899 229.809 105.47 229.81 L 54.16 229.81 C 53.5287 229.812 52.9356 230.113 52.56 230.62 C 49.0267 235.36 45.5033 240.11 41.99 244.87 L 35.93 253.05 C 35.4801 253.657 35.4105 254.465 35.75 255.14 C 35.8223 255.287 35.9168 255.422 36.03 255.54 Z M 45.2 247.25 C 48.5333 242.77 51.8667 238.293 55.2 233.82 L 101.55 233.82 L 87.83 252.27 L 41.49 252.27 Z" stroke="#040000" stroke-miterlimit="10" fill="#060001"/><path d=" M 148.45 254.28 C 142.95 246.76 137.433 239.273 131.9 231.82 L 105.47 231.82 C 99.93 239.273 94.3867 246.753 88.84 254.26 L 118.67 254.26 Z" stroke="#040000" stroke-miterlimit="10" fill="#FFA100" fill-rule="evenodd"/><path d=" M 105.47 229.82 L 131.9 229.82 C 132.533 229.825 133.126 230.129 133.5 230.64 C 139.04 238.12 144.56 245.603 150.06 253.09 C 150.507 253.699 150.572 254.507 150.23 255.18 C 149.891 255.853 149.203 256.278 148.45 256.28 L 88.84 256.28 C 87.7354 256.276 86.8433 255.377 86.8475 254.273 C 86.849 253.847 86.9866 253.432 87.24 253.09 L 103.86 230.66 C 104.231 230.138 104.83 229.826 105.47 229.82 Z M 130.89 233.82 L 106.48 233.82 L 92.8 252.27 L 144.51 252.27 C 139.977 246.09 135.437 239.94 130.89 233.82 Z" stroke="#040000" stroke-miterlimit="10" fill="#040000"/><path d=" M 202 254.3 C 196.493 246.787 190.97 239.293 185.43 231.82 L 131.9 231.82 C 137.44 239.313 142.957 246.8 148.45 254.28 C 166.323 254.28 184.173 254.287 202 254.3 Z" stroke="#040000" stroke-miterlimit="10" fill="#FFA100" fill-rule="evenodd"/><path d=" M 146.85 255.47 C 147.226 255.977 147.819 256.278 148.45 256.28 L 200.89 256.28 C 201.31 256.152 201.718 255.988 202.11 255.79 C 202.162 255.769 202.215 255.752 202.27 255.74 C 202.72 255.41 203.139 255.038 203.52 254.63 C 203.536 254.595 203.556 254.561 203.58 254.53 C 203.7 254.346 203.81 254.155 203.91 253.96 C 203.91 253.96 203.91 253.96 203.96 253.89 C 203.916 253.607 203.803 253.339 203.63 253.11 C 198.13 245.603 192.61 238.11 187.07 230.63 C 186.694 230.116 186.097 229.812 185.46 229.81 L 131.9 229.81 C 130.795 229.809 129.899 230.703 129.897 231.807 C 129.897 232.237 130.035 232.655 130.29 233 C 135.83 240.487 141.35 247.977 146.85 255.47 Z M 184.46 233.82 C 189.02 239.98 193.56 246.14 198.08 252.3 L 149.47 252.3 C 144.943 246.153 140.407 240 135.86 233.84 Z" stroke="#040000" stroke-miterlimit="10" fill="#060001"/><path d=" M 78.65 59.11 C 79.0712 59.1042 79.4826 59.2378 79.82 59.49 L 120.82 89.25 C 121.334 89.6256 121.638 90.2234 121.64 90.86 C 121.642 91.5001 121.337 92.1023 120.82 92.48 L 73.22 127 C 72.7076 127.387 72.036 127.492 71.43 127.28 C 70.8236 127.082 70.3481 126.606 70.15 126 L 54.5 77.91 C 54.2338 77.0892 54.5241 76.1902 55.22 75.68 L 77.48 59.49 C 77.8204 59.2436 78.2298 59.1106 78.65 59.11 Z M 116.21 90.86 L 78.65 63.58 L 58.74 78.06 L 73.1 122.2 Z" stroke="#040000" stroke-miterlimit="10" fill="#060001"/><path d=" M 162.43 57.75 C 162.85 57.7506 163.26 57.8836 163.6 58.13 L 184.7 73.46 C 185.4 73.9716 185.691 74.8762 185.42 75.7 L 169.06 126 C 168.862 126.606 168.386 127.082 167.78 127.28 C 167.176 127.474 166.515 127.37 166 127 L 118.44 92.48 C 117.919 92.1045 117.611 91.5019 117.61 90.86 C 117.614 90.2216 117.922 89.6234 118.44 89.25 L 161.26 58.13 C 161.6 57.8836 162.01 57.7506 162.43 57.75 Z M 181.18 75.84 L 162.43 62.21 L 123 90.86 L 166.11 122.2 Z" stroke="#040000" stroke-miterlimit="10" fill="#060001"/><path d=" M 72.05 123.43 C 72.2576 123.428 72.4639 123.462 72.66 123.53 C 73.2664 123.728 73.7419 124.204 73.94 124.81 L 92.1 180.74 C 92.4369 181.792 91.8572 182.918 90.8053 183.255 C 90.6096 183.317 90.4055 183.35 90.2 183.35 L 37.25 183.35 C 36.3965 183.349 35.6374 182.807 35.36 182 L 27.29 157.2 C 27.0259 156.377 27.3204 155.478 28.02 154.97 L 70.88 123.84 C 71.2167 123.583 71.6264 123.439 72.05 123.43 Z M 87.46 179.36 L 71 128.65 L 31.54 157.32 L 38.7 179.32 Z" stroke="#040000" stroke-miterlimit="10" fill="#060001"/><path d=" M 167.16 123.43 C 167.58 123.431 167.99 123.564 168.33 123.81 L 211.09 154.88 C 211.786 155.39 212.076 156.289 211.81 157.11 L 203.74 182 C 203.473 182.819 202.711 183.375 201.85 183.38 L 149 183.38 C 147.895 183.377 147.002 182.48 147.005 181.375 C 147.005 181.17 147.037 180.966 147.1 180.77 L 165.27 124.84 C 165.468 124.234 165.944 123.758 166.55 123.56 C 166.744 123.482 166.951 123.438 167.16 123.43 Z M 207.57 157.26 L 168.21 128.65 L 151.74 179.36 L 200.4 179.36 Z" stroke="#040000" stroke-miterlimit="10" fill="#060001"/><path d=" M 183.53 73.08 C 183.952 73.0863 184.363 73.2186 184.71 73.46 L 227.46 104.53 C 228.152 105.043 228.438 105.941 228.17 106.76 L 211.81 157.11 C 211.612 157.716 211.136 158.192 210.53 158.39 C 209.927 158.6 209.259 158.495 208.75 158.11 L 166 127 C 165.304 126.49 165.014 125.591 165.28 124.77 L 181.64 74.42 C 181.838 73.8136 182.314 73.3381 182.92 73.14 C 183.119 73.0873 183.325 73.067 183.53 73.08 Z M 223.93 106.91 L 184.58 78.31 L 169.51 124.66 L 208.87 153.26 Z" stroke="#040000" stroke-miterlimit="10" fill="#060001"/><path d=" M 37.25 179.36 L 90.25 179.36 C 91.1152 179.361 91.8818 179.917 92.15 180.74 L 108.43 231 C 108.638 231.603 108.533 232.27 108.15 232.78 C 107.777 233.298 107.178 233.606 106.54 233.61 L 53.54 233.61 C 52.6785 233.605 51.917 233.049 51.65 232.23 L 35.36 182 C 35.1622 181.393 35.2663 180.728 35.64 180.21 C 36.0091 179.685 36.608 179.368 37.25 179.36 Z M 88.75 183.36 L 40 183.36 L 55 229.62 L 103.77 229.62 Z" stroke="#040000" stroke-miterlimit="10" fill="#060001"/><path d=" M 149 179.36 L 201.85 179.36 C 202.955 179.368 203.843 180.27 203.835 181.375 C 203.834 181.577 203.802 181.777 203.74 181.97 L 187.41 232.22 C 187.142 233.043 186.375 233.599 185.51 233.6 L 132.67 233.6 C 132.032 233.596 131.433 233.288 131.06 232.77 C 130.677 232.26 130.572 231.593 130.78 230.99 L 147.1 180.74 C 147.368 179.917 148.135 179.361 149 179.36 Z M 199.1 183.36 L 150.45 183.36 L 135.45 229.62 L 184.1 229.62 Z" stroke="#040000" stroke-miterlimit="10" fill="#060001"/><path d=" M 90.2 179.36 L 149 179.36 C 149.637 179.362 150.234 179.666 150.61 180.18 C 150.984 180.698 151.088 181.363 150.89 181.97 L 134.57 232.22 C 134.302 233.043 133.535 233.599 132.67 233.6 L 106.54 233.6 C 105.675 233.599 104.908 233.043 104.64 232.22 L 88.31 182 C 88.1122 181.393 88.2163 180.728 88.59 180.21 C 88.9591 179.685 89.558 179.368 90.2 179.36 Z M 146.25 183.36 L 93 183.36 L 108 229.62 L 131.23 229.62 Z" stroke="#040000" stroke-miterlimit="10" fill="#060001"/></g></g></svg>