<svg viewBox="0 0 405 200" xmlns="http://www.w3.org/2000/svg" xmlns:xlink="http://www.w3.org/1999/xlink" overflow="hidden"><g stroke-linejoin="round"><path d="M100 100 84.8425 156.569 43.4315 156.569 43.4315 115.157Z" stroke="#000000" stroke-width="4" fill="#FEFE00"/><path d="M43.4315 156.569 29.2893 170.711 81.0531 170.711 84.8425 156.569Z" stroke="#000000" stroke-width="4" fill="#00D800"/><path d="M43.4315 156.569 29.2893 170.711 29.2893 118.947 43.4315 115.157Z" stroke="#000000" stroke-width="4" fill="#EE0000"/><path d="M100 100 43.4315 115.157 43.4315 84.8425Z" stroke="#000000" stroke-width="4" fill="#FEFE00"/><path d="M43.4315 115.157 29.2893 118.947 29.2893 81.0531 43.4315 84.8425Z" stroke="#000000" stroke-width="4" fill="#EE0000"/><path d="M100 100 43.4315 84.8425 43.4315 43.4315 84.8425 43.4315Z" stroke="#000000" stroke-width="4" fill="#FFFFFF"/><path d="M43.4315 43.4315 29.2893 29.2893 29.2893 81.0531 43.4315 84.8425Z" stroke="#000000" stroke-width="4" fill="#00D800"/><path d="M43.4315 43.4315 29.2893 29.2893 81.0531 29.2893 84.8425 43.4315Z" stroke="#000000" stroke-width="4" fill="#FFA100"/><path d="M100 100 84.8425 43.4315 115.157 43.4315Z" stroke="#000000" stroke-width="4" fill="#FEFE00"/><path d="M84.8425 43.4315 81.0531 29.2893 118.947 29.2893 115.157 43.4315Z" stroke="#000000" stroke-width="4" fill="#00D800"/><path d="M100 100 115.157 43.4315 156.569 43.4315 156.569 84.8425Z" stroke="#000000" stroke-width="4" fill="#FEFE00"/><path d="M156.569 43.4315 170.711 29.2893 118.947 29.2893 115.157 43.4315Z" stroke="#000000" stroke-width="4" fill="#0000F2"/><path d="M156.569 43.4315 170.711 29.2893 170.711 81.0531 156.569 84.8425Z" stroke="#000000" stroke-width="4" fill="#FFA100"/><path d="M100 100 156.569 84.8425 177.274 120.706 141.411 141.411Z" stroke="#000000" stroke-width="4" fill="#FFFFFF"/><path d="M177.274 120.706 196.593 125.882 170.711 81.0531 156.569 84.8425Z" stroke="#000000" stroke-width="4" fill="#FFA100"/><path d="M177.274 120.706 196.593 125.882 151.764 151.764 141.411 141.411Z" stroke="#000000" stroke-width="4" fill="#0000F2"/><path d="M100 100 141.411 141.411 115.157 156.569Z" stroke="#000000" stroke-width="4" fill="#FEFE00"/><path d="M141.411 141.411 151.764 151.764 118.947 170.711 115.157 156.569Z" stroke="#000000" stroke-width="4" fill="#0000F2"/><path d="M100 100 115.157 156.569 84.8425 156.569Z" stroke="#000000" stroke-width="4" fill="#FFFFFF"/><path d="M115.157 156.569 118.947 170.711 81.0531 170.711 84.8425 156.569Z" stroke="#000000" stroke-width="4" fill="#00D800"/><path d="M305 100 320.158 43.4315 284.294 22.7259 263.589 58.589Z" stroke="#000000" stroke-width="4" fill="#FEFE00"/><path d="M284.294 22.7259 279.118 3.40742 323.947 29.2893 320.158 43.4315Z" stroke="#000000" stroke-width="4" fill="#EE0000"/><path d="M284.294 22.7259 279.118 3.40742 253.236 48.2362 263.589 58.589Z" stroke="#000000" stroke-width="4" fill="#0000F2"/><path d="M305 100 263.589 58.589 227.726 79.2945 248.431 115.157Z" stroke="#000000" stroke-width="4" fill="#FFFFFF"/><path d="M227.726 79.2945 208.407 74.1181 253.236 48.2362 263.589 58.589Z" stroke="#000000" stroke-width="4" fill="#0000F2"/><path d="M227.726 79.2945 208.407 74.1181 234.289 118.947 248.431 115.157Z" stroke="#000000" stroke-width="4" fill="#EE0000"/><path d="M305 100 248.431 115.157 248.431 156.569 289.842 156.569Z" stroke="#000000" stroke-width="4" fill="#FFFFFF"/><path d="M248.431 156.569 234.289 170.711 234.289 118.947 248.431 115.157Z" stroke="#000000" stroke-width="4" fill="#EE0000"/><path d="M248.431 156.569 234.289 170.711 286.053 170.711 289.842 156.569Z" stroke="#000000" stroke-width="4" fill="#00D800"/><path d="M305 100 289.842 156.569 320.158 156.569Z" stroke="#000000" stroke-width="4" fill="#FEFE00"/><path d="M289.842 156.569 286.053 170.711 323.947 170.711 320.158 156.569Z" stroke="#000000" stroke-width="4" fill="#FFA100"/><path d="M305 100 320.158 156.569 346.411 141.411Z" stroke="#000000" stroke-width="4" fill="#FFFFFF"/><path d="M320.158 156.569 323.947 170.711 356.764 151.764 346.411 141.411Z" stroke="#000000" stroke-width="4" fill="#EE0000"/><path d="M305 100 346.411 141.411 361.569 115.157Z" stroke="#000000" stroke-width="4" fill="#FFFFFF"/><path d="M346.411 141.411 356.764 151.764 375.711 118.947 361.569 115.157Z" stroke="#000000" stroke-width="4" fill="#0000F2"/><path d="M305 100 361.569 115.157 361.569 84.8425Z" stroke="#000000" stroke-width="4" fill="#FFFFFF"/><path d="M361.569 115.157 375.711 118.947 375.711 81.0531 361.569 84.8425Z" stroke="#000000" stroke-width="4" fill="#FFA100"/><path d="M305 100 361.569 84.8425 361.569 43.4315 320.158 43.4315Z" stroke="#000000" stroke-width="4" fill="#FEFE00"/><path d="M361.569 43.4315 375.711 29.2893 375.711 81.0531 361.569 84.8425Z" stroke="#000000" stroke-width="4" fill="#FFA100"/><path d="M361.569 43.4315 375.711 29.2893 323.947 29.2893 320.158 43.4315Z" stroke="#000000" stroke-width="4" fill="#00D800"/></g></svg>