<svg viewBox="0 0 405 200" xmlns="http://www.w3.org/2000/svg" xmlns:xlink="http://www.w3.org/1999/xlink" overflow="hidden"><g stroke-linejoin="round"><path d="M100 100 84.8425 156.569 58.589 141.411Z" stroke="#000000" stroke-width="4" fill="#FEFE00"/><path d="M84.8425 156.569 81.0531 170.711 48.2362 151.764 58.589 141.411Z" stroke="#000000" stroke-width="4" fill="#EE0000"/><path d="M100 100 58.589 141.411 22.7259 120.706 43.4315 84.8425Z" stroke="#000000" stroke-width="4" fill="#FEFE00"/><path d="M22.7259 120.706 3.40742 125.882 48.2362 151.764 58.589 141.411Z" stroke="#000000" stroke-width="4" fill="#EE0000"/><path d="M22.7259 120.706 3.40742 125.882 29.2893 81.0531 43.4315 84.8425Z" stroke="#000000" stroke-width="4" fill="#0000F2"/><path d="M100 100 43.4315 84.8425 58.589 58.589Z" stroke="#000000" stroke-width="4" fill="#FEFE00"/><path d="M43.4315 84.8425 29.2893 81.0531 48.2362 48.2362 58.589 58.589Z" stroke="#000000" stroke-width="4" fill="#00D800"/><path d="M100 100 58.589 58.589 79.2945 22.7259 115.157 43.4315Z" stroke="#000000" stroke-width="4" fill="#FEFE00"/><path d="M79.2945 22.7259 74.1181 3.40742 48.2362 48.2362 58.589 58.589Z" stroke="#000000" stroke-width="4" fill="#00D800"/><path d="M79.2945 22.7259 74.1181 3.40742 118.947 29.2893 115.157 43.4315Z" stroke="#000000" stroke-width="4" fill="#EE0000"/><path d="M100 100 115.157 43.4315 141.411 58.589Z" stroke="#000000" stroke-width="4" fill="#FEFE00"/><path d="M115.157 43.4315 118.947 29.2893 151.764 48.2362 141.411 58.589Z" stroke="#000000" stroke-width="4" fill="#FFA100"/><path d="M100 100 141.411 58.589 177.274 79.2945 156.569 115.157Z" stroke="#000000" stroke-width="4" fill="#FEFE00"/><path d="M177.274 79.2945 196.593 74.1181 151.764 48.2362 141.411 58.589Z" stroke="#000000" stroke-width="4" fill="#0000F2"/><path d="M177.274 79.2945 196.593 74.1181 170.711 118.947 156.569 115.157Z" stroke="#000000" stroke-width="4" fill="#FFA100"/><path d="M100 100 156.569 115.157 141.411 141.411Z" stroke="#000000" stroke-width="4" fill="#FEFE00"/><path d="M156.569 115.157 170.711 118.947 151.764 151.764 141.411 141.411Z" stroke="#000000" stroke-width="4" fill="#0000F2"/><path d="M100 100 141.411 141.411 120.706 177.274 84.8425 156.569Z" stroke="#000000" stroke-width="4" fill="#FEFE00"/><path d="M120.706 177.274 125.882 196.593 151.764 151.764 141.411 141.411Z" stroke="#000000" stroke-width="4" fill="#FFA100"/><path d="M120.706 177.274 125.882 196.593 81.0531 170.711 84.8425 156.569Z" stroke="#000000" stroke-width="4" fill="#00D800"/><path d="M305 100 320.158 43.4315 289.842 43.4315Z" stroke="#000000" stroke-width="4" fill="#FFFFFF"/><path d="M320.158 43.4315 323.947 29.2893 286.053 29.2893 289.842 43.4315Z" stroke="#000000" stroke-width="4" fill="#0000F2"/><path d="M305 100 289.842 43.4315 248.431 43.4315 248.431 84.8425Z" stroke="#000000" stroke-width="4" fill="#FFFFFF"/><path d="M248.431 43.4315 234.289 29.2893 286.053 29.2893 289.842 43.4315Z" stroke="#000000" stroke-width="4" fill="#FFA100"/><path d="M248.431 43.4315 234.289 29.2893 234.289 81.0531 248.431 84.8425Z" stroke="#000000" stroke-width="4" fill="#0000F2"/><path d="M305 100 248.431 84.8425 248.431 115.157Z" stroke="#000000" stroke-width="4" fill="#FFFFFF"/><path d="M248.431 84.8425 234.289 81.0531 234.289 118.947 248.431 115.157Z" stroke="#000000" stroke-width="4" fill="#00D800"/><path d="M305 100 248.431 115.157 248.431 156.569 289.842 156.569Z" stroke="#000000" stroke-width="4" fill="#FFFFFF"/><path d="M248.431 156.569 234.289 170.711 234.289 118.947 248.431 115.157Z" stroke="#000000" stroke-width="4" fill="#00D800"/><path d="M248.431 156.569 234.289 170.711 286.053 170.711 289.842 156.569Z" stroke="#000000" stroke-width="4" fill="#FFA100"/><path d="M305 100 289.842 156.569 320.158 156.569Z" stroke="#000000" stroke-width="4" fill="#FFFFFF"/><path d="M289.842 156.569 286.053 170.711 323.947 170.711 320.158 156.569Z" stroke="#000000" stroke-width="4" fill="#FFA100"/><path d="M305 100 320.158 156.569 361.569 156.569 361.569 115.157Z" stroke="#000000" stroke-width="4" fill="#FFFFFF"/><path d="M361.569 156.569 375.711 170.711 323.947 170.711 320.158 156.569Z" stroke="#000000" stroke-width="4" fill="#0000F2"/><path d="M361.569 156.569 375.711 170.711 375.711 118.947 361.569 115.157Z" stroke="#000000" stroke-width="4" fill="#EE0000"/><path d="M305 100 361.569 115.157 361.569 84.8425Z" stroke="#000000" stroke-width="4" fill="#FFFFFF"/><path d="M361.569 115.157 375.711 118.947 375.711 81.0531 361.569 84.8425Z" stroke="#000000" stroke-width="4" fill="#EE0000"/><path d="M305 100 361.569 84.8425 361.569 43.4315 320.158 43.4315Z" stroke="#000000" stroke-width="4" fill="#FFFFFF"/><path d="M361.569 43.4315 375.711 29.2893 375.711 81.0531 361.569 84.8425Z" stroke="#000000" stroke-width="4" fill="#EE0000"/><path d="M361.569 43.4315 375.711 29.2893 323.947 29.2893 320.158 43.4315Z" stroke="#000000" stroke-width="4" fill="#00D800"/></g></svg>