<svg width="217" height="187" viewBox="0 0 217 187" xmlns="http://www.w3.org/2000/svg" xmlns:xlink="http://www.w3.org/1999/xlink" overflow="hidden"><g transform="translate(0.5 0.5)"><path d="M-1 0 0 1 1 0 0-1Z" stroke="#000000" stroke-width="0.0333333" fill="#0000FF" transform="matrix(25.9808 -15 25.9808 15 107.82 30)"/><path d="M-1 0-1-1 0-1Z" stroke="#000000" stroke-width="0.0333333" fill="#FF8000" transform="matrix(25.9808 -15 25.9808 15 107.82 30)"/><path d="M0-1 1-1 1 0Z" stroke="#000000" stroke-width="0.0333333" fill="#FFFFFF" transform="matrix(25.9808 -15 25.9808 15 107.82 30)"/><path d="M-1 0-1 1 0 1Z" stroke="#000000" stroke-width="0.0333333" fill="#FFFFFF" transform="matrix(25.9808 -15 25.9808 15 107.82 30)"/><path d="M0 1 1 1 1 0Z" stroke="#000000" stroke-width="0.0333333" fill="#0000FF" transform="matrix(25.9808 -15 25.9808 15 107.82 30)"/><path d="M-1 0 0 1 1 0 0-1Z" stroke="#000000" stroke-width="0.0333333" fill="#FF8000" transform="matrix(25.9808 -15 0 30 189.66 45)"/><path d="M-1 0-1-1 0-1Z" stroke="#000000" stroke-width="0.0333333" fill="#FF8000" transform="matrix(25.9808 -15 0 30 189.66 45)"/><path d="M0-1 1-1 1 0Z" stroke="#000000" stroke-width="0.0333333" fill="#0000FF" transform="matrix(25.9808 -15 0 30 189.66 45)"/><path d="M-1 0-1 1 0 1Z" stroke="#000000" stroke-width="0.0333333" fill="#FF0000" transform="matrix(25.9808 -15 0 30 189.66 45)"/><path d="M0 1 1 1 1 0Z" stroke="#000000" stroke-width="0.0333333" fill="#FFFF00" transform="matrix(25.9808 -15 0 30 189.66 45)"/><path d="M-1 0 0 1 1 0 0-1Z" stroke="#000000" stroke-width="0.0333333" fill="#FFFFFF" transform="matrix(25.9808 -15 0 30 135.1 76.5)"/><path d="M-1 0-1-1 0-1Z" stroke="#000000" stroke-width="0.0333333" fill="#FF0000" transform="matrix(25.9808 -15 0 30 135.1 76.5)"/><path d="M0-1 1-1 1 0Z" stroke="#000000" stroke-width="0.0333333" fill="#FFFF00" transform="matrix(25.9808 -15 0 30 135.1 76.5)"/><path d="M-1 0-1 1 0 1Z" stroke="#000000" stroke-width="0.0333333" fill="#FFFFFF" transform="matrix(25.9808 -15 0 30 135.1 76.5)"/><path d="M0 1 1 1 1 0Z" stroke="#000000" stroke-width="0.0333333" fill="#FFFF00" transform="matrix(25.9808 -15 0 30 135.1 76.5)"/><path d="M-1 0 0 1 1 0 0-1Z" stroke="#000000" stroke-width="0.0333333" fill="#FFFF00" transform="matrix(0 30 -25.9808 -15 80.5404 139.5)"/><path d="M-1 0-1-1 0-1Z" stroke="#000000" stroke-width="0.0333333" fill="#0000FF" transform="matrix(0 30 -25.9808 -15 80.5404 139.5)"/><path d="M0-1 1-1 1 0Z" stroke="#000000" stroke-width="0.0333333" fill="#0000FF" transform="matrix(0 30 -25.9808 -15 80.5404 139.5)"/><path d="M-1 0-1 1 0 1Z" stroke="#000000" stroke-width="0.0333333" fill="#00FF00" transform="matrix(0 30 -25.9808 -15 80.5404 139.5)"/><path d="M0 1 1 1 1 0Z" stroke="#000000" stroke-width="0.0333333" fill="#FF0000" transform="matrix(0 30 -25.9808 -15 80.5404 139.5)"/><path d="M-1 0 0 1 1 0 0-1Z" stroke="#000000" stroke-width="0.0333333" fill="#FF0000" transform="matrix(25.9808 15 0 30 80.5404 76.5)"/><path d="M-1 0-1-1 0-1Z" stroke="#000000" stroke-width="0.0333333" fill="#FFFFFF" transform="matrix(25.9808 15 0 30 80.5404 76.5)"/><path d="M0-1 1-1 1 0Z" stroke="#000000" stroke-width="0.0333333" fill="#00FF00" transform="matrix(25.9808 15 0 30 80.5404 76.5)"/><path d="M-1 0-1 1 0 1Z" stroke="#000000" stroke-width="0.0333333" fill="#FF8000" transform="matrix(25.9808 15 0 30 80.5404 76.5)"/><path d="M0 1 1 1 1 0Z" stroke="#000000" stroke-width="0.0333333" fill="#FF0000" transform="matrix(25.9808 15 0 30 80.5404 76.5)"/><path d="M-1 0 0 1 1 0 0-1Z" stroke="#000000" stroke-width="0.0333333" fill="#00FF00" transform="matrix(25.9808 15 0 30 25.9808 45)"/><path d="M-1 0-1-1 0-1Z" stroke="#000000" stroke-width="0.0333333" fill="#FF8000" transform="matrix(25.9808 15 0 30 25.9808 45)"/><path d="M0-1 1-1 1 0Z" stroke="#000000" stroke-width="0.0333333" fill="#00FF00" transform="matrix(25.9808 15 0 30 25.9808 45)"/><path d="M-1 0-1 1 0 1Z" stroke="#000000" stroke-width="0.0333333" fill="#00FF00" transform="matrix(25.9808 15 0 30 25.9808 45)"/><path d="M0 1 1 1 1 0Z" stroke="#000000" stroke-width="0.0333333" fill="#FFFF00" transform="matrix(25.9808 15 0 30 25.9808 45)"/></g></svg>