<svg width="128" height="128" viewBox="-0.9 -0.9 1.8 1.8" xmlns="http://www.w3.org/2000/svg" xmlns:xlink="http://www.w3.org/1999/xlink" overflow="hidden"><g stroke-width="0.1" stroke-linejoin="round" opacity="0.2"><path d="M0.654001-0.50224-0.161033-0.681501-0.14725 0.0736248 0.59354 0.29677Z" stroke="#808080" fill="#808080"/><path d="M-0.630493 0.484187 0.184643 0.78142 0.59354 0.29677-0.14725 0.0736248Z" stroke="#808080" fill="#808080"/><path d="M-0.161033-0.681501-0.699152-0.349576-0.630493 0.484187-0.14725 0.0736248Z" stroke="#808080" fill="#808080"/></g><g stroke-width="0" stroke-linejoin="round" stroke-opacity="0.5" opacity="1"><path d="M0.661007-0.50933 0.27694-0.593803 0.267297-0.226368 0.632346-0.130568Z" stroke="#808080" fill="#000000" opacity="0"/><path d="M0.213336-0.609055-0.139596-0.68668-0.133086-0.330002 0.203693-0.24162Z" stroke="#808080" fill="#000000" opacity="0"/><path d="M0.629042-0.067609 0.263993-0.163409 0.255208 0.171364 0.603031 0.276138Z" stroke="#808080" fill="#EE0000"/><path d="M0.203368-0.180422-0.133411-0.268803-0.127458 0.0573449 0.194582 0.154352Z" stroke="#808080" fill="#FFA100"/><path d="M-0.620432 0.50739-0.268254 0.635809-0.0503053 0.420095-0.386956 0.30903Z" stroke="#808080" fill="#FFFFFF"/><path d="M-0.20492 0.657783 0.179994 0.798139 0.378641 0.56269 0.0130291 0.44207Z" stroke="#808080" fill="#FFFFFF"/><path d="M-0.349689 0.275031-0.0130378 0.386097 0.175851 0.199146-0.146189 0.102139Z" stroke="#808080" fill="#FFFFFF"/><path d="M0.0473569 0.405142 0.412969 0.525763 0.584069 0.322964 0.236246 0.218191Z" stroke="#808080" fill="#FFFFFF"/><path d="M-0.189592-0.679611-0.414519-0.54087-0.396761-0.165201-0.183081-0.322934Z" stroke="#808080" fill="#000000" opacity="0"/><path d="M-0.456141-0.512555-0.71781-0.351151-0.685164 0.0452811-0.438383-0.136886Z" stroke="#808080" fill="#000000" opacity="0"/><path d="M-0.181083-0.261347-0.394763-0.103614-0.378629 0.237694-0.17513 0.0648017Z" stroke="#808080" fill="#0000F2"/><path d="M-0.434218-0.0721942-0.681 0.109973-0.65156 0.467474-0.418084 0.269114Z" stroke="#808080" fill="#00D800"/></g><g stroke-width="0.1" stroke-linejoin="round" opacity="0.2"><path d="M0.206844-0.103422 0.654001-0.50224 0.59354 0.29677 0.184643 0.78142Z" stroke="#808080" fill="#808080"/><path d="M-0.161033-0.681501 0.654001-0.50224 0.206844-0.103422-0.699152-0.349576Z" stroke="#808080" fill="#808080"/><path d="M-0.699152-0.349576 0.206844-0.103422 0.184643 0.78142-0.630493 0.484187Z" stroke="#808080" fill="#808080"/></g><g stroke-width="0" stroke-linejoin="round" stroke-opacity="0.5" opacity="1"><path d="M0.237489-0.0919724 0.456384-0.287204 0.435169 0.112607 0.226882 0.330776Z" stroke="#808080" fill="#000000" opacity="0"/><path d="M0.491405-0.320882 0.676854-0.486283 0.648193-0.107521 0.470189 0.0789288Z" stroke="#808080" fill="#000000" opacity="0"/><path d="M0.224261 0.399851 0.432547 0.181681 0.413439 0.541777 0.214792 0.777225Z" stroke="#808080" fill="#00D800"/><path d="M0.466022 0.144537 0.644026-0.0419128 0.618015 0.301834 0.446914 0.504632Z" stroke="#808080" fill="#0000F2"/><path d="M-0.158463-0.704811 0.194469-0.627186-0.0128484-0.475993-0.383391-0.56607Z" stroke="#808080" fill="#000000" opacity="0"/><path d="M0.261428-0.611629 0.645494-0.527157 0.460046-0.361756 0.0541105-0.460436Z" stroke="#808080" fill="#000000" opacity="0"/><path d="M-0.424666-0.5382-0.0541235-0.448123-0.296981-0.271011-0.686335-0.376797Z" stroke="#808080" fill="#000000" opacity="0"/><path d="M0.0165035-0.429869 0.422439-0.331189 0.203543-0.135957-0.226354-0.252757Z" stroke="#808080" fill="#000000" opacity="0"/><path d="M-0.708265-0.326443-0.318911-0.220658-0.305783 0.188615-0.67562 0.0699895Z" stroke="#808080" fill="#000000" opacity="0"/><path d="M-0.248718-0.199829 0.181179-0.083028 0.170572 0.33972-0.235591 0.209444Z" stroke="#808080" fill="#000000" opacity="0"/><path d="M-0.6717 0.137377-0.301863 0.256002-0.290082 0.623298-0.64226 0.494879Z" stroke="#808080" fill="#FFA100"/><path d="M-0.235268 0.278854 0.170895 0.40913 0.161427 0.786505-0.223487 0.646149Z" stroke="#808080" fill="#EE0000"/></g></svg>