<svg viewBox="0 0 81.38 81.38" xmlns="http://www.w3.org/2000/svg" xmlns:xlink="http://www.w3.org/1999/xlink" overflow="hidden"><defs></defs><g id="Layer_2"><g id="图层_1"><path d="M3.56 3.56 77.83 3.56 77.83 77.83 3.56 77.83 3.56 3.56Z" id="_1" stroke="#000000" stroke-width="7.11" stroke-linejoin="round"/><path d="M3.16 3.16 25.55 3.16 25.55 25.55 3.16 25.55 3.16 3.16Z" id="_1-2" fill="#404040"/><path d="M29.5 3.16 51.88 3.16 51.88 25.55 29.5 25.55 29.5 3.16Z" id="_2" fill="#404040"/><path d="M55.84 3.16 78.22 3.16 78.22 25.55 55.84 25.55 55.84 3.16Z" id="_3" fill="#404040"/><path d="M3.16 29.5 25.55 29.5 25.55 51.88 3.16 51.88 3.16 29.5Z" id="_4" fill="#404040"/><path d="M29.5 29.5 51.88 29.5 51.88 51.88 29.5 51.88 29.5 29.5Z" id="_5" fill="#404040"/><path d="M55.84 29.5 78.22 29.5 78.22 51.88 55.84 51.88 55.84 29.5Z" id="_6" fill="#404040"/><path d="M3.16 55.84 25.55 55.84 25.55 78.22 3.16 78.22 3.16 55.84Z" id="_7" fill="#404040"/><path d="M29.5 55.84 51.88 55.84 51.88 78.22 29.5 78.22 29.5 55.84Z" id="_8" fill="#FEFE00"/><path d="M55.84 55.84 78.22 55.84 78.22 78.22 55.84 78.22 55.84 55.84Z" id="_9" fill="#FEFE00"/></g></g></svg>