<svg viewBox="0 0 165.66 143.87" xmlns="http://www.w3.org/2000/svg" xmlns:xlink="http://www.w3.org/1999/xlink" id="_图层_1" overflow="hidden"><defs></defs><path d="M164.14 142.37 82.83 142.37 123.48 118.9 164.14 142.37Z" stroke-width="0" fill="#00FF00"/><path d="M123.48 71.94 164.13 142.35 123.5 118.89 123.47 118.87 123.47 71.94 123.48 71.94Z" stroke-width="0" fill="#0000FF"/><path d="M123.48 118.9 82.83 142.37 42.18 118.9 42.19 118.89 123.47 118.89 123.48 118.9Z" stroke-width="0" fill="#00FF00"/><path d="M123.47 71.93 123.47 71.94 123.47 118.87 123.46 118.87 82.85 48.53 82.85 48.48 123.47 71.93Z" stroke-width="0" fill="#0000FF"/><path d="M82.85 1.57 123.47 71.93 82.85 48.48 82.85 48.46 82.85 1.57Z" stroke-width="0" fill="#404040"/><path d="M123.47 118.89 42.19 118.89 82.83 95.43 123.47 118.89Z" stroke-width="0" fill="#404040"/><path d="M82.85 48.53 123.46 118.87 82.85 95.42 82.85 48.53Z" stroke-width="0" fill="#404040"/><path d="M82.83 142.37 1.52 142.37 42.18 118.9 82.83 142.37Z" stroke-width="0" fill="#404040"/><path d="M82.81 48.53 82.81 95.42 42.2 118.87 82.81 48.53Z" stroke-width="0" fill="#404040"/><path d="M82.81 48.48 82.81 48.53 42.2 118.87 42.19 118.87 42.19 71.94 42.19 71.93 82.81 48.48Z" stroke-width="0" fill="#404040"/><path d="M82.81 48.46 82.81 48.48 42.19 71.93 82.81 1.57 82.81 48.46Z" stroke-width="0" fill="#FFFF00"/><path d="M42.19 71.94 42.19 118.87 42.16 118.89 1.53 142.35 42.18 71.94 42.19 71.94Z" stroke-width="0" fill="#404040"/><path d="M1.83 141.9 1.85 141.89 28.83 126.4 28.85 126.39 55.83 110.91 55.85 110.89 55.85 110.89 82.82 95.42 82.83 95.41" stroke="#000000" stroke-width="3" stroke-linecap="round" stroke-miterlimit="10" fill="none"/><path d="M164.13 142.35 123.5 118.89 123.47 118.87 123.46 118.87 82.85 95.42 82.83 95.41" stroke="#000000" stroke-width="3" stroke-linecap="round" stroke-miterlimit="10" fill="none"/><path d="M42.16 118.89 42.19 118.89 123.47 118.89 123.5 118.89" stroke="#000000" stroke-width="3" stroke-linecap="round" stroke-miterlimit="10" fill="none"/><path d="M1.5 142.37 1.52 142.37 82.83 142.37 164.14 142.37 164.16 142.37" stroke="#000000" stroke-width="3" stroke-linecap="round" stroke-miterlimit="10" fill="none"/><path d="M84.37 141.82 103.93 130.36 123.49 118.89 123.5 118.89" stroke="#000000" stroke-width="3" stroke-linecap="round" stroke-miterlimit="10" fill="none"/><path d="M84.37 141.82 63.26 130.36 42.17 118.89 42.16 118.89" stroke="#000000" stroke-width="3" stroke-linecap="round" stroke-miterlimit="10" fill="none"/><path d="M82.85 48.46 82.84 48.48 82.83 48.49 82.81 48.53 42.2 118.87 42.19 118.89" stroke="#000000" stroke-width="3" stroke-linecap="round" stroke-miterlimit="10" fill="none"/><path d="M42.18 71.94 1.53 142.35 1.52 142.37" stroke="#000000" stroke-width="3" stroke-linecap="round" stroke-miterlimit="10" fill="#00FF00"/><path d="M82.85 1.5 82.83 1.53 82.81 1.57 42.19 71.93" stroke="#000000" stroke-width="3" stroke-linecap="round" stroke-miterlimit="10" fill="none"/><path d="M42.19 71.94 42.19 118.87 42.19 118.89" stroke="#000000" stroke-width="3" stroke-linecap="round" stroke-miterlimit="10" fill="none"/><path d="M82.81 1.9 82.81 1.95 82.81 33.07 82.81 33.09 82.81 33.12 82.81 64.25 82.81 64.26 82.81 64.29 82.81 95.42" stroke="#000000" stroke-width="3" stroke-linecap="round" stroke-miterlimit="10" fill="none"/><path d="M123.47 118.89 123.46 118.87 82.85 48.53 82.83 48.49 82.82 48.48 82.81 48.46" stroke="#000000" stroke-width="3" stroke-linecap="round" stroke-miterlimit="10" fill="none"/><path d="M123.47 71.93 82.85 1.57 82.83 1.53 82.82 1.52 82.81 1.5" stroke="#000000" stroke-width="3" stroke-linecap="round" stroke-miterlimit="10" fill="none"/><path d="M164.14 142.36 164.13 142.35 123.48 71.94" stroke="#000000" stroke-width="3" stroke-linecap="round" stroke-miterlimit="10" fill="none"/><path d="M123.47 71.93 82.85 48.48 82.84 48.48 82.83 48.47 82.81 48.46" stroke="#000000" stroke-width="3" stroke-linecap="round" stroke-miterlimit="10" fill="none"/><path d="M123.47 71.9 123.47 95.39 123.47 95.4 123.47 118.88 123.47 118.89" stroke="#000000" stroke-width="3" stroke-linecap="round" stroke-miterlimit="10" fill="none"/><path d="M41.89 72.27 82.51 48.82 82.52 48.82 82.53 48.81 82.55 48.8" stroke="#000000" stroke-width="3" stroke-linecap="round" stroke-miterlimit="10" fill="none"/></svg>