<svg viewBox="0 0 1101.86 535.84" xmlns="http://www.w3.org/2000/svg" xmlns:xlink="http://www.w3.org/1999/xlink" overflow="hidden"><defs></defs><g id="图层_2"><g id="图层_1-2"><circle cx="116.98" cy="116.98" r="75.47" stroke="#000000" stroke-width="7.55" stroke-linejoin="round" fill="none"/><circle cx="116.98" cy="418.86" r="75.47" stroke="#000000" stroke-width="7.55" stroke-linejoin="round" fill="none"/><circle cx="418.86" cy="116.98" r="75.47" stroke="#000000" stroke-width="7.55" stroke-linejoin="round" fill="none"/><circle cx="418.86" cy="418.86" r="75.47" stroke="#000000" stroke-width="7.55" stroke-linejoin="round" fill="none"/><circle cx="267.92" cy="267.92" r="264.14" fill="#55CCFF"/><circle cx="267.92" cy="267.92" r="264.14" stroke="#000000" stroke-width="7.55" stroke-linejoin="round" fill="none"/><circle cx="116.98" cy="116.98" r="71.7" fill="#55CCFF"/><circle cx="116.98" cy="418.86" r="71.7" fill="#55CCFF"/><circle cx="418.86" cy="116.98" r="71.7" fill="#55CCFF"/><circle cx="418.86" cy="418.86" r="71.7" fill="#55CCFF"/><circle cx="116.98" cy="116.98" r="52.83" fill="#3375B2"/><circle cx="116.98" cy="52.83" r="3.77" fill="#3375B2" transform="matrix(0.256627 -0.966511 0.966511 0.256627 35.89 152.33)"/><path d="M152.29 63.34C151.26 65.1238 148.978 65.7346 147.194 64.7042 147.186 64.6995 147.178 64.6948 147.17 64.69 145.396 63.6978 144.763 61.4556 145.755 59.6818 145.776 59.6441 145.798 59.6069 145.82 59.57 146.861 57.7834 149.153 57.1789 150.94 58.22 152.727 59.2611 153.331 61.5534 152.29 63.34Z" fill="#3375B2"/><path d="M174.39 88.14C172.603 89.1811 170.311 88.5766 169.27 86.79 168.229 85.0034 168.833 82.7111 170.62 81.67 172.407 80.6289 174.699 81.2334 175.74 83.02 176.781 84.8066 176.177 87.0989 174.39 88.14Z" fill="#3375B2"/><circle cx="181.13" cy="116.98" r="3.77" fill="#3375B2" transform="matrix(0.0709752 -0.997478 0.997478 0.0709752 51.6 289.36)"/><path d="M170.62 152.29C168.851 151.223 168.282 148.925 169.348 147.156 170.415 145.387 172.714 144.818 174.482 145.884 176.221 146.933 176.806 149.176 175.8 150.94 174.792 152.73 172.524 153.364 170.733 152.357 170.695 152.335 170.657 152.313 170.62 152.29Z" fill="#3375B2"/><path d="M145.82 174.39C144.779 172.603 145.383 170.311 147.17 169.27 148.957 168.229 151.249 168.833 152.29 170.62 153.331 172.407 152.727 174.699 150.94 175.74 149.153 176.781 146.861 176.177 145.82 174.39Z" fill="#3375B2"/><circle cx="116.98" cy="181.13" r="3.77" fill="#3375B2" transform="matrix(0.382683 -0.92388 0.92388 0.382683 -95.13 219.89)"/><path d="M81.67 170.62C82.7413 168.854 85.0414 168.291 86.8074 169.362 88.5734 170.433 89.1366 172.733 88.0653 174.499 87.011 176.238 84.7613 176.815 83 175.8 81.2144 174.784 80.5906 172.513 81.6067 170.727 81.6272 170.691 81.6483 170.655 81.67 170.62Z" fill="#3375B2"/><path d="M59.57 145.82C61.3078 144.766 63.5709 145.32 64.6249 147.058 64.6472 147.095 64.6689 147.132 64.69 147.17 65.7505 148.962 65.1577 151.274 63.366 152.335 61.5742 153.395 59.2619 152.802 58.2014 151.011 57.1409 149.219 57.7337 146.906 59.5254 145.846 59.5402 145.837 59.5551 145.829 59.57 145.82Z" fill="#3375B2"/><circle cx="52.83" cy="116.98" r="3.77" fill="#3375B2"/><path d="M63.34 81.67C65.1238 82.7004 65.7346 84.9817 64.7042 86.7655 64.6995 86.7737 64.6948 86.7819 64.69 86.79 63.6978 88.5638 61.4556 89.1973 59.6818 88.2051 59.6441 88.1841 59.6069 88.1624 59.57 88.14 57.7834 87.0989 57.1789 84.8066 58.22 83.02 59.2611 81.2334 61.5534 80.6289 63.34 81.67Z" fill="#3375B2"/><path d="M88.14 59.57C89.1939 61.3078 88.6396 63.5709 86.9018 64.6249 86.8649 64.6472 86.8276 64.6689 86.79 64.69 84.9982 65.7505 82.686 65.1577 81.6254 63.366 80.5649 61.5742 81.1577 59.2619 82.9495 58.2014 84.7412 57.1409 87.0535 57.7337 88.114 59.5254 88.1228 59.5402 88.1314 59.5551 88.14 59.57Z" fill="#3375B2"/><circle cx="116.98" cy="267.92" r="52.83" fill="#3375B2"/><circle cx="116.98" cy="203.77" r="3.77" fill="#3375B2"/><path d="M152.29 214.28C151.26 216.064 148.978 216.675 147.194 215.644 147.186 215.64 147.178 215.635 147.17 215.63 145.396 214.638 144.763 212.396 145.755 210.622 145.776 210.584 145.798 210.547 145.82 210.51 146.861 208.723 149.153 208.119 150.94 209.16 152.727 210.201 153.331 212.493 152.29 214.28Z" fill="#3375B2"/><path d="M174.39 239.08C172.603 240.121 170.311 239.517 169.27 237.73 168.229 235.943 168.833 233.651 170.62 232.61 172.407 231.569 174.699 232.173 175.74 233.96 176.781 235.747 176.177 238.039 174.39 239.08Z" fill="#3375B2"/><circle cx="181.13" cy="267.92" r="3.77" fill="#3375B2"/><path d="M170.62 303.23C168.838 302.207 168.223 299.934 169.246 298.152 169.254 298.138 169.262 298.124 169.27 298.11 170.262 296.336 172.504 295.703 174.278 296.695 174.316 296.716 174.353 296.738 174.39 296.76 176.177 297.801 176.781 300.093 175.74 301.88 174.699 303.667 172.407 304.271 170.62 303.23Z" fill="#3375B2"/><path d="M145.82 325.33C144.779 323.543 145.383 321.251 147.17 320.21 148.957 319.169 151.249 319.773 152.29 321.56 153.331 323.347 152.727 325.639 150.94 326.68 149.153 327.721 146.861 327.117 145.82 325.33Z" fill="#3375B2"/><circle cx="116.98" cy="332.07" r="3.77" fill="#3375B2" transform="matrix(0.38 -0.92 0.92 0.38 -234.58 313.06)"/><path d="M81.67 321.56C82.7413 319.794 85.0414 319.231 86.8074 320.302 88.5734 321.373 89.1366 323.673 88.0653 325.439 87.011 327.178 84.7613 327.755 83 326.74 81.2144 325.724 80.5906 323.453 81.6067 321.667 81.6272 321.631 81.6483 321.595 81.67 321.56Z" fill="#3375B2"/><path d="M59.57 296.76C61.3078 295.706 63.5709 296.26 64.6249 297.998 64.6472 298.035 64.6689 298.072 64.69 298.11 65.7339 299.886 65.1404 302.172 63.3645 303.216 63.3563 303.221 63.3482 303.225 63.34 303.23 61.5534 304.271 59.2611 303.667 58.22 301.88 57.1789 300.093 57.7834 297.801 59.57 296.76Z" fill="#3375B2"/><circle cx="52.83" cy="267.92" r="3.77" fill="#3375B2" transform="matrix(0.07 -1 1 0.07 -218.16 301.62)"/><path d="M63.34 232.61C65.1238 233.64 65.7346 235.922 64.7042 237.706 64.6995 237.714 64.6948 237.722 64.69 237.73 63.6978 239.504 61.4556 240.137 59.6818 239.145 59.6441 239.124 59.6069 239.102 59.57 239.08 57.7834 238.039 57.1789 235.747 58.22 233.96 59.2611 232.173 61.5534 231.569 63.34 232.61Z" fill="#3375B2"/><path d="M88.14 210.51C89.1939 212.248 88.6396 214.511 86.9018 215.565 86.8649 215.587 86.8276 215.609 86.79 215.63 84.9982 216.691 82.686 216.098 81.6254 214.306 80.5649 212.514 81.1577 210.202 82.9495 209.141 84.7412 208.081 87.0535 208.674 88.114 210.465 88.1228 210.48 88.1314 210.495 88.14 210.51Z" fill="#3375B2"/><circle cx="116.98" cy="418.86" r="52.83" fill="#3375B2"/><circle cx="116.98" cy="354.71" r="3.77" fill="#3375B2"/><path d="M152.29 365.22C151.26 367.004 148.978 367.615 147.194 366.584 147.186 366.58 147.178 366.575 147.17 366.57 145.396 365.578 144.763 363.336 145.755 361.562 145.776 361.524 145.798 361.487 145.82 361.45 146.861 359.663 149.153 359.059 150.94 360.1 152.727 361.141 153.331 363.433 152.29 365.22Z" fill="#3375B2"/><path d="M174.39 390C172.603 391.041 170.311 390.437 169.27 388.65 168.229 386.863 168.833 384.571 170.62 383.53 172.407 382.489 174.699 383.093 175.74 384.88 176.781 386.667 176.177 388.959 174.39 390Z" fill="#3375B2"/><circle cx="181.13" cy="418.86" r="3.77" fill="#3375B2" transform="matrix(0.160226 -0.98708 0.98708 0.160226 -261.33 530.55)"/><path d="M170.62 454.17C168.838 453.147 168.223 450.874 169.246 449.092 169.254 449.078 169.262 449.064 169.27 449.05 170.262 447.276 172.504 446.643 174.278 447.635 174.316 447.656 174.353 447.678 174.39 447.7 176.177 448.741 176.781 451.033 175.74 452.82 174.699 454.607 172.407 455.211 170.62 454.17Z" fill="#3375B2"/><path d="M145.82 476.27C144.766 474.532 145.32 472.269 147.058 471.215 147.095 471.193 147.132 471.171 147.17 471.15 148.937 470.102 151.219 470.684 152.267 472.451 152.275 472.464 152.283 472.477 152.29 472.49 153.409 474.232 152.904 476.552 151.162 477.672 149.42 478.791 147.1 478.286 145.98 476.544 145.923 476.455 145.869 476.364 145.82 476.27Z" fill="#3375B2"/><circle cx="116.98" cy="483.01" r="3.77" fill="#3375B2"/><path d="M81.67 472.49C82.6969 470.711 84.9719 470.1 86.7513 471.127 86.7643 471.135 86.7772 471.142 86.79 471.15 88.5638 472.142 89.1973 474.384 88.2051 476.158 88.1841 476.196 88.1624 476.233 88.14 476.27 87.1718 478.101 84.9028 478.8 83.072 477.832 81.2411 476.864 80.5418 474.595 81.5099 472.764 81.5594 472.67 81.6128 472.579 81.67 472.49Z" fill="#3375B2"/><path d="M59.57 447.7C61.3078 446.646 63.5709 447.2 64.6249 448.938 64.6472 448.975 64.6689 449.012 64.69 449.05 65.7339 450.826 65.1404 453.112 63.3645 454.156 63.3563 454.161 63.3482 454.165 63.34 454.17 61.5534 455.211 59.2611 454.607 58.22 452.82 57.1789 451.033 57.7834 448.741 59.57 447.7Z" fill="#3375B2"/><circle cx="52.83" cy="418.86" r="3.77" fill="#3375B2"/><path d="M63.34 383.55C65.1238 384.58 65.7346 386.862 64.7042 388.646 64.6995 388.654 64.6948 388.662 64.69 388.67 63.6896 390.439 61.4444 391.062 59.6753 390.062 59.6398 390.042 59.6047 390.021 59.57 390 57.7834 388.959 57.1789 386.667 58.22 384.88 59.2611 383.093 61.5534 382.489 63.34 383.53Z" fill="#3375B2"/><path d="M88.14 361.45C89.1939 363.188 88.6396 365.451 86.9018 366.505 86.8649 366.527 86.8276 366.549 86.79 366.57 84.9982 367.631 82.686 367.038 81.6254 365.246 80.5649 363.454 81.1577 361.142 82.9495 360.081 84.7412 359.021 87.0535 359.614 88.114 361.405 88.1228 361.42 88.1314 361.435 88.14 361.45Z" fill="#3375B2"/><circle cx="267.92" cy="116.98" r="52.83" fill="#3375B2"/><circle cx="267.92" cy="52.83" r="3.77" fill="#3375B2" transform="matrix(0.382683 -0.92388 0.92388 0.382683 116.58 280.14)"/><path d="M303.23 63.34C302.2 65.1238 299.918 65.7346 298.134 64.7042 298.126 64.6995 298.118 64.6948 298.11 64.69 296.336 63.6978 295.703 61.4556 296.695 59.6818 296.716 59.6441 296.738 59.6069 296.76 59.57 297.801 57.7834 300.093 57.1789 301.88 58.22 303.667 59.2611 304.271 61.5534 303.23 63.34Z" fill="#3375B2"/><path d="M325.33 88.14C323.543 89.1811 321.251 88.5766 320.21 86.79 319.169 85.0034 319.773 82.7111 321.56 81.67 323.347 80.6289 325.639 81.2334 326.68 83.02 327.721 84.8066 327.117 87.0989 325.33 88.14Z" fill="#3375B2"/><circle cx="332.07" cy="116.98" r="3.77" fill="#3375B2" transform="matrix(0.160226 -0.98708 0.98708 0.160226 163.41 426.02)"/><path d="M321.56 152.29C319.791 151.223 319.222 148.925 320.288 147.156 321.355 145.387 323.654 144.818 325.422 145.884 327.161 146.933 327.746 149.176 326.74 150.94 325.732 152.73 323.464 153.364 321.673 152.357 321.635 152.335 321.597 152.313 321.56 152.29Z" fill="#3375B2"/><path d="M296.76 174.39C295.706 172.652 296.26 170.389 297.998 169.335 298.035 169.313 298.072 169.291 298.11 169.27 299.878 168.224 302.16 168.81 303.206 170.578 303.214 170.592 303.222 170.606 303.23 170.62 304.271 172.407 303.667 174.699 301.88 175.74 300.093 176.781 297.801 176.177 296.76 174.39Z" fill="#3375B2"/><circle cx="267.92" cy="181.13" r="3.77" fill="#3375B2" transform="matrix(0.22971 -0.973259 0.973259 0.22971 30.08 400.26)"/><path d="M232.61 170.62C233.667 168.846 235.963 168.264 237.737 169.321 239.512 170.379 240.093 172.674 239.036 174.449 238 176.188 235.768 176.787 234 175.8 232.201 174.809 231.546 172.546 232.537 170.747 232.56 170.704 232.585 170.662 232.61 170.62Z" fill="#3375B2"/><path d="M210.51 145.82C212.248 144.766 214.511 145.32 215.565 147.058 215.587 147.095 215.609 147.132 215.63 147.17 216.691 148.962 216.098 151.274 214.306 152.335 212.514 153.395 210.202 152.802 209.141 151.011 208.081 149.219 208.674 146.906 210.465 145.846 210.48 145.837 210.495 145.829 210.51 145.82Z" fill="#3375B2"/><circle cx="203.77" cy="116.98" r="3.77" fill="#3375B2" transform="matrix(0.382683 -0.92388 0.92388 0.382683 17.72 260.47)"/><path d="M214.28 81.67C216.064 82.7004 216.675 84.9817 215.644 86.7655 215.64 86.7737 215.635 86.7819 215.63 86.79 214.638 88.5638 212.396 89.1973 210.622 88.2051 210.584 88.1841 210.547 88.1624 210.51 88.14 208.723 87.0989 208.119 84.8066 209.16 83.02 210.201 81.2334 212.493 80.6289 214.28 81.67Z" fill="#3375B2"/><path d="M239.08 59.57C240.134 61.3078 239.58 63.5709 237.842 64.6249 237.805 64.6472 237.768 64.6689 237.73 64.69 235.938 65.7505 233.626 65.1577 232.565 63.366 231.505 61.5742 232.098 59.2619 233.889 58.2014 235.681 57.1409 237.994 57.7337 239.054 59.5254 239.063 59.5402 239.071 59.5551 239.08 59.57Z" fill="#3375B2"/><circle cx="267.92" cy="267.92" r="52.83" fill="#3375B2"/><circle cx="267.92" cy="203.77" r="3.77" fill="#3375B2" transform="matrix(0.92388 -0.382683 0.382683 0.92388 -57.58 118.04)"/><path d="M303.23 214.28C302.2 216.064 299.918 216.675 298.134 215.644 298.126 215.64 298.118 215.635 298.11 215.63 296.336 214.638 295.703 212.396 296.695 210.622 296.716 210.584 296.738 210.547 296.76 210.51 297.801 208.723 300.093 208.119 301.88 209.16 303.667 210.201 304.271 212.493 303.23 214.28Z" fill="#3375B2"/><path d="M325.33 239.08C323.543 240.121 321.251 239.517 320.21 237.73 319.169 235.943 319.773 233.651 321.56 232.61 323.347 231.569 325.639 232.173 326.68 233.96 327.721 235.747 327.117 238.039 325.33 239.08Z" fill="#3375B2"/><circle cx="332.07" cy="267.92" r="3.77" fill="#3375B2"/><path d="M321.56 303.23C319.778 302.207 319.163 299.934 320.186 298.152 320.194 298.138 320.202 298.124 320.21 298.11 321.202 296.336 323.444 295.703 325.218 296.695 325.256 296.716 325.293 296.738 325.33 296.76 327.117 297.801 327.721 300.093 326.68 301.88 325.639 303.667 323.347 304.271 321.56 303.23Z" fill="#3375B2"/><path d="M296.76 325.33C295.706 323.592 296.26 321.329 297.998 320.275 298.035 320.253 298.072 320.231 298.11 320.21 299.878 319.164 302.16 319.75 303.206 321.518 303.214 321.532 303.222 321.546 303.23 321.56 304.271 323.347 303.667 325.639 301.88 326.68 300.093 327.721 297.801 327.117 296.76 325.33Z" fill="#3375B2"/><circle cx="267.92" cy="332.07" r="3.77" fill="#3375B2" transform="matrix(0.22971 -0.973259 0.973259 0.22971 -116.82 516.52)"/><path d="M232.61 321.56C233.677 319.791 235.975 319.222 237.744 320.288 239.513 321.355 240.082 323.654 239.016 325.422 237.967 327.161 235.723 327.746 233.96 326.74 232.17 325.732 231.536 323.464 232.543 321.673 232.565 321.635 232.587 321.597 232.61 321.56Z" fill="#3375B2"/><path d="M210.51 296.76C212.248 295.706 214.511 296.26 215.565 297.998 215.587 298.035 215.609 298.072 215.63 298.11 216.674 299.886 216.08 302.172 214.304 303.216 214.296 303.221 214.288 303.225 214.28 303.23 212.493 304.271 210.201 303.667 209.16 301.88 208.119 300.093 208.723 297.801 210.51 296.76Z" fill="#3375B2"/><circle cx="203.77" cy="267.92" r="3.77" fill="#3375B2" transform="matrix(0.160226 -0.98708 0.98708 0.160226 -93.33 426.14)"/><path d="M214.28 232.61C216.064 233.64 216.675 235.922 215.644 237.706 215.64 237.714 215.635 237.722 215.63 237.73 214.638 239.504 212.396 240.137 210.622 239.145 210.584 239.124 210.547 239.102 210.51 239.08 208.723 238.039 208.119 235.747 209.16 233.96 210.201 232.173 212.493 231.569 214.28 232.61Z" fill="#3375B2"/><path d="M239.08 210.51C240.134 212.248 239.58 214.511 237.842 215.565 237.805 215.587 237.768 215.609 237.73 215.63 235.938 216.691 233.626 216.098 232.565 214.306 231.505 212.514 232.098 210.202 233.889 209.141 235.681 208.081 237.994 208.674 239.054 210.465 239.063 210.48 239.071 210.495 239.08 210.51Z" fill="#3375B2"/><circle cx="267.92" cy="418.86" r="52.83" fill="#3375B2"/><circle cx="267.92" cy="354.71" r="3.77" fill="#3375B2"/><path d="M303.23 365.22C302.2 367.004 299.918 367.615 298.134 366.584 298.126 366.58 298.118 366.575 298.11 366.57 296.336 365.578 295.703 363.336 296.695 361.562 296.716 361.524 296.738 361.487 296.76 361.45 297.801 359.663 300.093 359.059 301.88 360.1 303.667 361.141 304.271 363.433 303.23 365.22Z" fill="#3375B2"/><path d="M325.33 390C323.543 391.041 321.251 390.437 320.21 388.65 319.169 386.863 319.773 384.571 321.56 383.53 323.347 382.489 325.639 383.093 326.68 384.88 327.721 386.667 327.117 388.959 325.33 390Z" fill="#3375B2"/><circle cx="332.07" cy="418.86" r="3.77" fill="#3375B2" transform="matrix(0.382683 -0.92388 0.92388 0.382683 -181.98 565.36)"/><path d="M321.56 454.17C319.778 453.147 319.163 450.874 320.186 449.092 320.194 449.078 320.202 449.064 320.21 449.05 321.202 447.276 323.444 446.643 325.218 447.635 325.256 447.656 325.293 447.678 325.33 447.7 327.117 448.741 327.721 451.033 326.68 452.82 325.639 454.607 323.347 455.211 321.56 454.17Z" fill="#3375B2"/><path d="M296.76 476.27C295.706 474.532 296.26 472.269 297.998 471.215 298.035 471.193 298.072 471.171 298.11 471.15 299.885 470.104 302.171 470.694 303.218 472.469 303.222 472.476 303.226 472.483 303.23 472.49 304.35 474.232 303.845 476.552 302.102 477.672 300.36 478.791 298.04 478.286 296.92 476.544 296.863 476.455 296.81 476.364 296.76 476.27Z" fill="#3375B2"/><circle cx="267.92" cy="483.01" r="3.77" fill="#3375B2"/><path d="M232.61 472.49C233.637 470.711 235.912 470.1 237.691 471.127 237.704 471.135 237.717 471.142 237.73 471.15 239.504 472.142 240.137 474.384 239.145 476.158 239.124 476.196 239.102 476.233 239.08 476.27 238.112 478.101 235.843 478.8 234.012 477.832 232.181 476.864 231.482 474.595 232.45 472.764 232.499 472.67 232.553 472.579 232.61 472.49Z" fill="#3375B2"/><path d="M210.51 447.7C212.248 446.646 214.511 447.2 215.565 448.938 215.587 448.975 215.609 449.012 215.63 449.05 216.674 450.826 216.08 453.112 214.304 454.156 214.296 454.161 214.288 454.165 214.28 454.17 212.493 455.211 210.201 454.607 209.16 452.82 208.119 451.033 208.723 448.741 210.51 447.7Z" fill="#3375B2"/><circle cx="203.77" cy="418.86" r="3.77" fill="#3375B2" transform="matrix(0.289867 -0.957067 0.957067 0.289867 -256.17 492.5)"/><path d="M214.28 383.55C216.064 384.58 216.675 386.862 215.644 388.646 215.64 388.654 215.635 388.662 215.63 388.67 214.638 390.444 212.396 391.077 210.622 390.085 210.584 390.064 210.547 390.042 210.51 390.02 208.723 388.979 208.119 386.687 209.16 384.9 210.201 383.113 212.493 382.509 214.28 383.55Z" fill="#3375B2"/><path d="M239.08 361.45C240.134 363.188 239.58 365.451 237.842 366.505 237.805 366.527 237.768 366.549 237.73 366.57 235.938 367.631 233.626 367.038 232.565 365.246 231.505 363.454 232.098 361.142 233.889 360.081 235.681 359.021 237.994 359.614 239.054 361.405 239.063 361.42 239.071 361.435 239.08 361.45Z" fill="#3375B2"/><circle cx="418.86" cy="116.98" r="52.83" fill="#3375B2"/><circle cx="418.86" cy="52.83" r="3.77" fill="#3375B2" transform="matrix(0.22971 -0.973259 0.973259 0.22971 271.21 448.34)"/><path d="M454.17 63.34C453.14 65.1238 450.858 65.7346 449.074 64.7042 449.066 64.6995 449.058 64.6948 449.05 64.69 447.276 63.6978 446.643 61.4556 447.635 59.6818 447.656 59.6441 447.678 59.6069 447.7 59.57 448.741 57.7834 451.033 57.1789 452.82 58.22 454.607 59.2611 455.211 61.5534 454.17 63.34Z" fill="#3375B2"/><path d="M476.27 88.14C474.532 89.1939 472.269 88.6396 471.215 86.9018 471.193 86.8649 471.171 86.8276 471.15 86.79 470.102 85.023 470.684 82.7409 472.451 81.6926 472.464 81.685 472.477 81.6775 472.49 81.67 474.232 80.5505 476.552 81.0555 477.672 82.798 478.791 84.5404 478.286 86.8604 476.544 87.9799 476.455 88.0371 476.364 88.0905 476.27 88.14Z" fill="#3375B2"/><circle cx="483.01" cy="116.98" r="3.77" fill="#3375B2" transform="matrix(0.160226 -0.98708 0.98708 0.160226 290.17 575.01)"/><path d="M472.49 152.29C470.711 151.263 470.1 148.988 471.127 147.209 471.135 147.196 471.142 147.183 471.15 147.17 472.142 145.396 474.384 144.763 476.158 145.755 476.196 145.776 476.233 145.798 476.27 145.82 478.101 146.788 478.8 149.057 477.832 150.888 476.864 152.719 474.595 153.418 472.764 152.45 472.67 152.401 472.579 152.347 472.49 152.29Z" fill="#3375B2"/><path d="M447.7 174.39C446.646 172.652 447.2 170.389 448.938 169.335 448.975 169.313 449.012 169.291 449.05 169.27 450.818 168.224 453.1 168.81 454.146 170.578 454.154 170.592 454.162 170.606 454.17 170.62 455.211 172.407 454.607 174.699 452.82 175.74 451.033 176.781 448.741 176.177 447.7 174.39Z" fill="#3375B2"/><circle cx="418.86" cy="181.13" r="3.77" fill="#3375B2" transform="matrix(0.92388 -0.382683 0.382683 0.92388 -37.43 174.08)"/><path d="M383.55 170.62C384.617 168.851 386.915 168.282 388.684 169.348 390.453 170.415 391.022 172.714 389.956 174.482 388.907 176.221 386.664 176.806 384.9 175.8 383.11 174.792 382.476 172.524 383.483 170.733 383.505 170.695 383.527 170.657 383.55 170.62Z" fill="#3375B2"/><path d="M361.45 145.82C363.188 144.766 365.451 145.32 366.505 147.058 366.527 147.095 366.549 147.132 366.57 147.17 367.631 148.962 367.038 151.274 365.246 152.335 363.454 153.395 361.142 152.802 360.081 151.011 359.021 149.219 359.614 146.906 361.405 145.846 361.42 145.837 361.435 145.829 361.45 145.82Z" fill="#3375B2"/><circle cx="354.71" cy="116.98" r="3.77" fill="#3375B2" transform="matrix(0.382683 -0.92388 0.92388 0.382683 110.89 399.92)"/><path d="M365.22 81.67C367.004 82.7004 367.615 84.9817 366.584 86.7655 366.58 86.7737 366.575 86.7819 366.57 86.79 365.578 88.5638 363.336 89.1973 361.562 88.2051 361.524 88.1841 361.487 88.1624 361.45 88.14 359.663 87.0989 359.059 84.8066 360.1 83.02 361.141 81.2334 363.433 80.6289 365.22 81.67Z" fill="#3375B2"/><path d="M390 59.57C391.054 61.3078 390.5 63.5709 388.762 64.6249 388.725 64.6472 388.688 64.6689 388.65 64.69 386.858 65.7505 384.546 65.1577 383.485 63.366 382.425 61.5742 383.018 59.2619 384.809 58.2014 386.601 57.1409 388.914 57.7337 389.974 59.5254 389.983 59.5402 389.991 59.5551 390 59.57Z" fill="#3375B2"/><circle cx="418.86" cy="267.92" r="52.83" fill="#3375B2"/><circle cx="418.86" cy="203.77" r="3.77" fill="#3375B2" transform="matrix(0.382683 -0.92388 0.92388 0.382683 70.31 512.76)"/><path d="M454.17 214.28C453.14 216.064 450.858 216.675 449.074 215.644 449.066 215.64 449.058 215.635 449.05 215.63 447.276 214.638 446.643 212.396 447.635 210.622 447.656 210.584 447.678 210.547 447.7 210.51 448.741 208.723 451.033 208.119 452.82 209.16 454.607 210.201 455.211 212.493 454.17 214.28Z" fill="#3375B2"/><path d="M476.27 239.08C474.532 240.134 472.269 239.58 471.215 237.842 471.193 237.805 471.171 237.768 471.15 237.73 470.102 235.963 470.684 233.681 472.451 232.633 472.464 232.625 472.477 232.617 472.49 232.61 474.232 231.491 476.552 231.996 477.672 233.738 478.791 235.48 478.286 237.8 476.544 238.92 476.455 238.977 476.364 239.031 476.27 239.08Z" fill="#3375B2"/><circle cx="483.01" cy="267.92" r="3.77" fill="#3375B2" transform="matrix(0.289867 -0.957067 0.957067 0.289867 86.62 652.56)"/><path d="M472.49 303.23C470.709 302.196 470.103 299.913 471.138 298.131 471.142 298.124 471.146 298.117 471.15 298.11 472.142 296.336 474.384 295.703 476.158 296.695 476.196 296.716 476.233 296.738 476.27 296.76 478.101 297.728 478.8 299.997 477.832 301.828 476.864 303.659 474.595 304.358 472.764 303.39 472.67 303.341 472.579 303.287 472.49 303.23Z" fill="#3375B2"/><path d="M447.7 325.33C446.646 323.592 447.2 321.329 448.938 320.275 448.975 320.253 449.012 320.231 449.05 320.21 450.818 319.164 453.1 319.75 454.146 321.518 454.154 321.532 454.162 321.546 454.17 321.56 455.211 323.347 454.607 325.639 452.82 326.68 451.033 327.721 448.741 327.117 447.7 325.33Z" fill="#3375B2"/><circle cx="418.86" cy="332.07" r="3.77" fill="#3375B2" transform="matrix(0.92388 -0.382683 0.382683 0.92388 -95.19 185.57)"/><path d="M383.55 321.56C384.617 319.791 386.915 319.222 388.684 320.288 390.453 321.355 391.022 323.654 389.956 325.422 388.907 327.161 386.664 327.746 384.9 326.74 383.11 325.732 382.476 323.464 383.483 321.673 383.505 321.635 383.527 321.597 383.55 321.56Z" fill="#3375B2"/><path d="M361.45 296.76C363.188 295.706 365.451 296.26 366.505 297.998 366.527 298.035 366.549 298.072 366.57 298.11 367.614 299.886 367.02 302.172 365.244 303.216 365.236 303.221 365.228 303.225 365.22 303.23 363.433 304.271 361.141 303.667 360.1 301.88 359.059 300.093 359.663 297.801 361.45 296.76Z" fill="#3375B2"/><circle cx="354.71" cy="267.92" r="3.77" fill="#3375B2" transform="matrix(0.160226 -0.98708 0.98708 0.160226 33.43 575.13)"/><path d="M365.22 232.61C367.004 233.64 367.615 235.922 366.584 237.706 366.58 237.714 366.575 237.722 366.57 237.73 365.578 239.504 363.336 240.137 361.562 239.145 361.524 239.124 361.487 239.102 361.45 239.08 359.663 238.039 359.059 235.747 360.1 233.96 361.141 232.173 363.433 231.569 365.22 232.61Z" fill="#3375B2"/><path d="M390 210.51C391.054 212.248 390.5 214.511 388.762 215.565 388.725 215.587 388.688 215.609 388.65 215.63 386.858 216.691 384.546 216.098 383.485 214.306 382.425 212.514 383.018 210.202 384.809 209.141 386.601 208.081 388.914 208.674 389.974 210.465 389.983 210.48 389.991 210.495 390 210.51Z" fill="#3375B2"/><circle cx="418.86" cy="418.86" r="52.83" fill="#3375B2"/><circle cx="418.86" cy="354.71" r="3.77" fill="#3375B2" transform="matrix(0.160226 -0.98708 0.98708 0.160226 1.64 711.34)"/><path d="M454.17 365.22C453.14 367.004 450.858 367.615 449.074 366.584 449.066 366.58 449.058 366.575 449.05 366.57 447.276 365.578 446.643 363.336 447.635 361.562 447.656 361.524 447.678 361.487 447.7 361.45 448.741 359.663 451.033 359.059 452.82 360.1 454.607 361.141 455.211 363.433 454.17 365.22Z" fill="#3375B2"/><path d="M476.27 390C474.532 391.054 472.269 390.5 471.215 388.762 471.193 388.725 471.171 388.688 471.15 388.65 470.102 386.883 470.684 384.601 472.451 383.553 472.464 383.545 472.477 383.537 472.49 383.53 474.232 382.411 476.552 382.916 477.672 384.658 478.791 386.4 478.286 388.72 476.544 389.84 476.455 389.897 476.364 389.951 476.27 390Z" fill="#3375B2"/><circle cx="483.01" cy="418.86" r="3.77" fill="#3375B2" transform="matrix(0.22971 -0.973259 0.973259 0.22971 -35.62 792.71)"/><path d="M472.49 454.17C470.709 453.136 470.103 450.853 471.138 449.071 471.142 449.064 471.146 449.057 471.15 449.05 472.142 447.276 474.384 446.643 476.158 447.635 476.196 447.656 476.233 447.678 476.27 447.7 478.101 448.668 478.8 450.937 477.832 452.768 476.864 454.599 474.595 455.298 472.764 454.33 472.67 454.281 472.579 454.227 472.49 454.17Z" fill="#3375B2"/><path d="M447.7 476.27C446.646 474.532 447.2 472.269 448.938 471.215 448.975 471.193 449.012 471.171 449.05 471.15 450.825 470.104 453.111 470.694 454.158 472.469 454.162 472.476 454.166 472.483 454.17 472.49 455.29 474.232 454.785 476.552 453.042 477.672 451.3 478.791 448.98 478.286 447.86 476.544 447.803 476.455 447.75 476.364 447.7 476.27Z" fill="#3375B2"/><circle cx="418.86" cy="483.01" r="3.77" fill="#3375B2" transform="matrix(0.99847 -0.0552987 0.0552987 0.99847 -26.07 23.9)"/><path d="M383.55 472.49C384.577 470.711 386.852 470.1 388.631 471.127 388.644 471.135 388.657 471.142 388.67 471.15 390.444 472.142 391.077 474.384 390.085 476.158 390.064 476.196 390.042 476.233 390.02 476.27 389.052 478.101 386.783 478.8 384.952 477.832 383.121 476.864 382.422 474.595 383.39 472.764 383.439 472.67 383.493 472.579 383.55 472.49Z" fill="#3375B2"/><path d="M361.45 447.7C363.188 446.646 365.451 447.2 366.505 448.938 366.527 448.975 366.549 449.012 366.57 449.05 367.614 450.826 367.02 453.112 365.244 454.156 365.236 454.161 365.228 454.165 365.22 454.17 363.433 455.211 361.141 454.607 360.1 452.82 359.059 451.033 359.663 448.741 361.45 447.7Z" fill="#3375B2"/><circle cx="354.71" cy="418.86" r="3.77" fill="#3375B2" transform="matrix(0.289867 -0.957067 0.957067 0.289867 -148.97 636.97)"/><path d="M365.22 383.55C367.004 384.58 367.615 386.862 366.584 388.646 366.58 388.654 366.575 388.662 366.57 388.67 365.578 390.444 363.336 391.077 361.562 390.085 361.524 390.064 361.487 390.042 361.45 390.02 359.663 388.979 359.059 386.687 360.1 384.9 361.141 383.113 363.433 382.509 365.22 383.55Z" fill="#3375B2"/><path d="M390 361.45C391.054 363.188 390.5 365.451 388.762 366.505 388.725 366.527 388.688 366.549 388.65 366.57 386.858 367.631 384.546 367.038 383.485 365.246 382.425 363.454 383.018 361.142 384.809 360.081 386.601 359.021 388.914 359.614 389.974 361.405 389.983 361.42 389.991 361.435 390 361.45Z" fill="#3375B2"/><circle cx="683" cy="116.98" r="75.47" stroke="#000000" stroke-width="7.55" stroke-linejoin="round" fill="none"/><circle cx="683" cy="418.86" r="75.47" stroke="#000000" stroke-width="7.55" stroke-linejoin="round" fill="none"/><circle cx="984.88" cy="116.98" r="75.47" stroke="#000000" stroke-width="7.55" stroke-linejoin="round" fill="none"/><circle cx="984.88" cy="418.86" r="75.47" stroke="#000000" stroke-width="7.55" stroke-linejoin="round" fill="none"/><circle cx="833.94" cy="267.92" r="264.14" fill="#3375B2"/><circle cx="833.94" cy="267.92" r="264.14" stroke="#000000" stroke-width="7.55" stroke-linejoin="round" fill="none"/><circle cx="683" cy="116.98" r="71.7" fill="#3375B2"/><circle cx="683" cy="418.86" r="71.7" fill="#3375B2"/><circle cx="984.88" cy="116.98" r="71.7" fill="#3375B2"/><circle cx="984.88" cy="418.86" r="71.7" fill="#3375B2"/><circle cx="683" cy="116.98" r="52.83" fill="#55CCFF"/><circle cx="683" cy="52.83" r="3.77" fill="#55CCFF" transform="matrix(0.22971 -0.973259 0.973259 0.22971 474.67 705.42)"/><path d="M718.31 63.34C717.28 65.1238 714.998 65.7346 713.214 64.7042 713.206 64.6995 713.198 64.6948 713.19 64.69 711.416 63.6978 710.783 61.4556 711.775 59.6818 711.796 59.6441 711.818 59.6069 711.84 59.57 712.881 57.7834 715.173 57.1789 716.96 58.22 718.747 59.2611 719.351 61.5534 718.31 63.34Z" fill="#55CCFF"/><path d="M740.41 88.14C738.672 89.1939 736.409 88.6396 735.355 86.9018 735.333 86.8649 735.311 86.8276 735.29 86.79 734.229 84.9982 734.822 82.686 736.614 81.6254 738.406 80.5649 740.718 81.1577 741.779 82.9495 742.839 84.7412 742.246 87.0535 740.455 88.114 740.44 88.1228 740.425 88.1314 740.41 88.14Z" fill="#55CCFF"/><circle cx="747.15" cy="116.98" r="3.77" fill="#55CCFF" transform="matrix(0.160226 -0.98708 0.98708 0.160226 512 835.74)"/><path d="M736.64 152.29C734.856 151.26 734.245 148.978 735.276 147.194 735.28 147.186 735.285 147.178 735.29 147.17 736.282 145.396 738.524 144.763 740.298 145.755 740.336 145.776 740.373 145.798 740.41 145.82 742.197 146.861 742.801 149.153 741.76 150.94 740.719 152.727 738.427 153.331 736.64 152.29Z" fill="#55CCFF"/><path d="M711.84 174.39C710.799 172.603 711.403 170.311 713.19 169.27 714.977 168.229 717.269 168.833 718.31 170.62 719.351 172.407 718.747 174.699 716.96 175.74 715.173 176.781 712.881 176.177 711.84 174.39Z" fill="#55CCFF"/><circle cx="683" cy="181.13" r="3.77" fill="#55CCFF" transform="matrix(0.92388 -0.382683 0.382683 0.92388 -17.32 275.16)"/><path d="M647.69 170.62C648.766 168.857 651.068 168.3 652.831 169.376 654.594 170.452 655.151 172.753 654.075 174.517 653.014 176.254 650.759 176.825 649 175.8 647.219 174.776 646.606 172.502 647.63 170.721 647.649 170.687 647.669 170.653 647.69 170.62Z" fill="#55CCFF"/><path d="M625.59 145.82C627.377 144.779 629.669 145.383 630.71 147.17 631.751 148.957 631.147 151.249 629.36 152.29 627.573 153.331 625.281 152.727 624.24 150.94 623.199 149.153 623.803 146.861 625.59 145.82Z" fill="#55CCFF"/><circle cx="618.85" cy="116.98" r="3.77" fill="#55CCFF" transform="matrix(0.707107 -0.707107 0.707107 0.707107 98.54 471.86)"/><path d="M629.36 81.67C631.126 82.7413 631.689 85.0414 630.618 86.8074 629.547 88.5734 627.247 89.1366 625.481 88.0653 623.742 87.011 623.165 84.7613 624.18 83 625.196 81.2144 627.467 80.5906 629.253 81.6067 629.289 81.6272 629.325 81.6483 629.36 81.67Z" fill="#55CCFF"/><path d="M654.16 59.57C655.214 61.3078 654.66 63.5709 652.922 64.6249 652.885 64.6472 652.848 64.6689 652.81 64.69 651.018 65.7505 648.706 65.1577 647.645 63.366 646.585 61.5742 647.178 59.2619 648.969 58.2014 650.761 57.1409 653.073 57.7337 654.134 59.5254 654.143 59.5402 654.151 59.5551 654.16 59.57Z" fill="#55CCFF"/><circle cx="683" cy="267.92" r="52.83" fill="#55CCFF"/><circle cx="683" cy="203.77" r="3.77" fill="#55CCFF" transform="matrix(0.382683 -0.92388 0.92388 0.382683 233.37 756.8)"/><path d="M718.31 214.28C717.28 216.064 714.998 216.675 713.214 215.644 713.206 215.64 713.198 215.635 713.19 215.63 711.416 214.638 710.783 212.396 711.775 210.622 711.796 210.584 711.818 210.547 711.84 210.51 712.881 208.723 715.173 208.119 716.96 209.16 718.747 210.201 719.351 212.493 718.31 214.28Z" fill="#55CCFF"/><path d="M740.41 239.08C738.672 240.134 736.409 239.58 735.355 237.842 735.333 237.805 735.311 237.768 735.29 237.73 734.229 235.938 734.822 233.626 736.614 232.565 738.406 231.505 740.718 232.098 741.779 233.889 742.839 235.681 742.246 237.994 740.455 239.054 740.44 239.063 740.425 239.071 740.41 239.08Z" fill="#55CCFF"/><circle cx="747.15" cy="267.92" r="3.77" fill="#55CCFF" transform="matrix(0.289867 -0.957067 0.957067 0.289867 274.22 905.37)"/><path d="M736.64 303.23C734.856 302.2 734.245 299.918 735.276 298.134 735.28 298.126 735.285 298.118 735.29 298.11 736.282 296.336 738.524 295.703 740.298 296.695 740.336 296.716 740.373 296.738 740.41 296.76 742.197 297.801 742.801 300.093 741.76 301.88 740.719 303.667 738.427 304.271 736.64 303.23Z" fill="#55CCFF"/><path d="M711.84 325.33C710.799 323.543 711.403 321.251 713.19 320.21 714.977 319.169 717.269 319.773 718.31 321.56 719.351 323.347 718.747 325.639 716.96 326.68 715.173 327.721 712.881 327.117 711.84 325.33Z" fill="#55CCFF"/><circle cx="683" cy="332.07" r="3.77" fill="#55CCFF" transform="matrix(0.92388 -0.382683 0.382683 0.92388 -75.09 286.65)"/><path d="M647.69 321.56C648.757 319.791 651.055 319.222 652.824 320.288 654.593 321.355 655.162 323.654 654.096 325.422 653.047 327.161 650.804 327.746 649.04 326.74 647.25 325.732 646.616 323.464 647.623 321.673 647.645 321.635 647.667 321.597 647.69 321.56Z" fill="#55CCFF"/><path d="M625.59 296.76C627.328 295.706 629.591 296.26 630.645 297.998 630.667 298.035 630.689 298.072 630.71 298.11 631.756 299.878 631.17 302.16 629.402 303.206 629.388 303.214 629.374 303.222 629.36 303.23 627.573 304.271 625.281 303.667 624.24 301.88 623.199 300.093 623.803 297.801 625.59 296.76Z" fill="#55CCFF"/><circle cx="618.85" cy="267.92" r="3.77" fill="#55CCFF" transform="matrix(0.382683 -0.92388 0.92388 0.382683 134.5 737.14)"/><path d="M629.36 232.61C631.129 233.677 631.698 235.975 630.632 237.744 629.565 239.513 627.266 240.082 625.498 239.016 623.759 237.967 623.174 235.723 624.18 233.96 625.188 232.17 627.456 231.536 629.247 232.543 629.285 232.565 629.323 232.587 629.36 232.61Z" fill="#55CCFF"/><path d="M654.16 210.51C655.214 212.248 654.66 214.511 652.922 215.565 652.885 215.587 652.848 215.609 652.81 215.63 651.018 216.691 648.706 216.098 647.645 214.306 646.585 212.514 647.178 210.202 648.969 209.141 650.761 208.081 653.073 208.674 654.134 210.465 654.143 210.48 654.151 210.495 654.16 210.51Z" fill="#55CCFF"/><circle cx="683" cy="418.86" r="52.83" fill="#55CCFF"/><circle cx="683" cy="354.71" r="3.77" fill="#55CCFF" transform="matrix(0.160226 -0.98708 0.98708 0.160226 223.47 972.07)"/><path d="M718.31 365.22C717.28 367.004 714.998 367.615 713.214 366.584 713.206 366.58 713.198 366.575 713.19 366.57 711.416 365.578 710.783 363.336 711.775 361.562 711.796 361.524 711.818 361.487 711.84 361.45 712.881 359.663 715.173 359.059 716.96 360.1 718.747 361.141 719.351 363.433 718.31 365.22Z" fill="#55CCFF"/><path d="M740.41 390C738.672 391.054 736.409 390.5 735.355 388.762 735.333 388.725 735.311 388.688 735.29 388.65 734.229 386.858 734.822 384.546 736.614 383.485 738.406 382.425 740.718 383.018 741.779 384.809 742.839 386.601 742.246 388.914 740.455 389.974 740.44 389.983 740.425 389.991 740.41 390Z" fill="#55CCFF"/><circle cx="747.15" cy="418.86" r="3.77" fill="#55CCFF" transform="matrix(0.23 -0.97 0.97 0.23 167.84 1049.79)"/><path d="M736.64 454.17C734.856 453.14 734.245 450.858 735.276 449.074 735.28 449.066 735.285 449.058 735.29 449.05 736.282 447.276 738.524 446.643 740.298 447.635 740.336 447.656 740.373 447.678 740.41 447.7 742.197 448.741 742.801 451.033 741.76 452.82 740.719 454.607 738.427 455.211 736.64 454.17Z" fill="#55CCFF"/><path d="M711.84 476.27C710.786 474.532 711.34 472.269 713.078 471.215 713.115 471.193 713.152 471.171 713.19 471.15 714.957 470.102 717.239 470.684 718.287 472.451 718.295 472.464 718.303 472.477 718.31 472.49 719.43 474.232 718.925 476.552 717.182 477.672 715.44 478.791 713.12 478.286 712 476.544 711.943 476.455 711.89 476.364 711.84 476.27Z" fill="#55CCFF"/><circle cx="683" cy="483.01" r="3.77" fill="#55CCFF" transform="matrix(1 -0.06 0.06 1 -25.67 38.51)"/><path d="M647.69 472.49C648.717 470.711 650.992 470.1 652.771 471.127 652.784 471.135 652.797 471.142 652.81 471.15 654.584 472.142 655.217 474.384 654.225 476.158 654.204 476.196 654.182 476.233 654.16 476.27 653.192 478.101 650.923 478.8 649.092 477.832 647.261 476.864 646.562 474.595 647.53 472.764 647.579 472.67 647.633 472.579 647.69 472.49Z" fill="#55CCFF"/><path d="M625.59 447.7C627.328 446.646 629.591 447.2 630.645 448.938 630.667 448.975 630.689 449.012 630.71 449.05 631.756 450.818 631.17 453.1 629.402 454.146 629.388 454.154 629.374 454.162 629.36 454.17 627.573 455.211 625.281 454.607 624.24 452.82 623.199 451.033 623.803 448.741 625.59 447.7Z" fill="#55CCFF"/><circle cx="618.85" cy="418.86" r="3.77" fill="#55CCFF" transform="matrix(0.615386 -0.788226 0.788226 0.615386 -92.14 648.87)"/><path d="M629.36 383.55C631.129 384.617 631.698 386.915 630.632 388.684 629.565 390.453 627.266 391.022 625.498 389.956 623.759 388.907 623.174 386.664 624.18 384.9 625.188 383.11 627.456 382.476 629.247 383.483 629.285 383.505 629.323 383.527 629.36 383.55Z" fill="#55CCFF"/><path d="M654.16 361.45C655.214 363.188 654.66 365.451 652.922 366.505 652.885 366.527 652.848 366.549 652.81 366.57 651.018 367.631 648.706 367.038 647.645 365.246 646.585 363.454 647.178 361.142 648.969 360.081 650.761 359.021 653.073 359.614 654.134 361.405 654.143 361.42 654.151 361.435 654.16 361.45Z" fill="#55CCFF"/><circle cx="833.94" cy="116.98" r="52.83" fill="#55CCFF" transform="matrix(0.0984514 -0.995142 0.995142 0.0984514 635.36 935.33)"/><path d="M837.71 52.83C837.71 54.9121 836.022 56.6 833.94 56.6 831.858 56.6 830.17 54.9121 830.17 52.83 830.17 50.7479 831.858 49.06 833.94 49.06 836.017 49.0545 837.704 50.7334 837.71 52.81 837.71 52.8167 837.71 52.8233 837.71 52.83Z" fill="#55CCFF"/><path d="M869.25 63.34C868.22 65.1238 865.938 65.7346 864.154 64.7042 864.146 64.6995 864.138 64.6948 864.13 64.69 862.356 63.6978 861.723 61.4556 862.715 59.6818 862.736 59.6441 862.758 59.6069 862.78 59.57 863.821 57.7834 866.113 57.1789 867.9 58.22 869.687 59.2611 870.291 61.5534 869.25 63.34Z" fill="#55CCFF"/><path d="M891.35 88.14C889.612 89.1939 887.349 88.6396 886.295 86.9018 886.273 86.8649 886.251 86.8276 886.23 86.79 885.169 84.9982 885.762 82.686 887.554 81.6254 889.346 80.5649 891.658 81.1577 892.719 82.9495 893.779 84.7412 893.186 87.0535 891.395 88.114 891.38 88.1228 891.365 88.1314 891.35 88.14Z" fill="#55CCFF"/><path d="M898.09 120.75C896.002 120.756 894.306 119.068 894.3 116.98 894.295 114.892 895.982 113.196 898.07 113.19 900.158 113.185 901.855 114.872 901.86 116.96 901.86 116.967 901.86 116.973 901.86 116.98 901.866 119.057 900.187 120.744 898.11 120.75 898.103 120.75 898.097 120.75 898.09 120.75Z" fill="#55CCFF"/><path d="M887.58 152.29C885.796 151.26 885.185 148.978 886.216 147.194 886.22 147.186 886.225 147.178 886.23 147.17 887.222 145.396 889.464 144.763 891.238 145.755 891.276 145.776 891.313 145.798 891.35 145.82 893.137 146.861 893.741 149.153 892.7 150.94 891.659 152.727 889.367 153.331 887.58 152.29Z" fill="#55CCFF"/><path d="M862.78 174.39C861.739 172.603 862.343 170.311 864.13 169.27 865.917 168.229 868.209 168.833 869.25 170.62 870.291 172.407 869.687 174.699 867.9 175.74 866.113 176.781 863.821 176.177 862.78 174.39Z" fill="#55CCFF"/><circle cx="833.94" cy="181.13" r="3.77" fill="#55CCFF" transform="matrix(0.92388 -0.382683 0.382683 0.92388 -5.83 332.92)"/><path d="M798.63 170.62C799.692 168.848 801.989 168.273 803.761 169.335 805.532 170.397 806.108 172.694 805.046 174.465 804.004 176.204 801.766 176.796 800 175.8 798.205 174.8 797.56 172.535 798.56 170.74 798.583 170.7 798.606 170.66 798.63 170.62Z" fill="#55CCFF"/><path d="M776.53 145.82C778.317 144.779 780.609 145.383 781.65 147.17 782.691 148.957 782.087 151.249 780.3 152.29 778.513 153.331 776.221 152.727 775.18 150.94 774.139 149.153 774.743 146.861 776.53 145.82Z" fill="#55CCFF"/><circle cx="769.79" cy="116.98" r="3.77" fill="#55CCFF" transform="matrix(0.707107 -0.707107 0.707107 0.707107 142.75 578.59)"/><path d="M780.3 81.67C782.064 82.7454 782.621 85.0468 781.546 86.8103 780.471 88.5738 778.169 89.1317 776.406 88.0563 774.675 87.0007 774.1 84.758 775.11 83 776.154 81.2051 778.456 80.5966 780.251 81.6409 780.267 81.6505 780.284 81.6602 780.3 81.67Z" fill="#55CCFF"/><path d="M805.1 59.57C806.154 61.3078 805.6 63.5709 803.862 64.6249 803.825 64.6472 803.788 64.6689 803.75 64.69 801.958 65.7505 799.646 65.1577 798.585 63.366 797.525 61.5742 798.118 59.2619 799.909 58.2014 801.701 57.1409 804.013 57.7337 805.074 59.5254 805.083 59.5402 805.091 59.5551 805.1 59.57Z" fill="#55CCFF"/><circle cx="833.94" cy="267.92" r="52.83" fill="#55CCFF"/><path d="M837.71 203.77C837.705 205.852 836.012 207.536 833.93 207.53 831.848 207.524 830.165 205.832 830.17 203.75 830.176 201.672 831.862 199.99 833.94 199.99 836.017 199.984 837.704 201.663 837.71 203.74 837.71 203.75 837.71 203.76 837.71 203.77Z" fill="#55CCFF"/><path d="M869.25 214.28C868.22 216.064 865.938 216.675 864.154 215.644 864.146 215.64 864.138 215.635 864.13 215.63 862.356 214.638 861.723 212.396 862.715 210.622 862.736 210.584 862.758 210.547 862.78 210.51 863.821 208.723 866.113 208.119 867.9 209.16 869.687 210.201 870.291 212.493 869.25 214.28Z" fill="#55CCFF"/><path d="M891.35 239.08C889.612 240.134 887.349 239.58 886.295 237.842 886.273 237.805 886.251 237.768 886.23 237.73 885.169 235.938 885.762 233.626 887.554 232.565 889.346 231.505 891.658 232.098 892.719 233.889 893.779 235.681 893.186 237.994 891.395 239.054 891.38 239.063 891.365 239.071 891.35 239.08Z" fill="#55CCFF"/><path d="M898.09 271.69C896.002 271.696 894.306 270.008 894.3 267.92 894.295 265.832 895.982 264.136 898.07 264.13 900.158 264.125 901.855 265.812 901.86 267.9 901.86 267.907 901.86 267.913 901.86 267.92 901.866 269.997 900.187 271.684 898.11 271.69 898.103 271.69 898.097 271.69 898.09 271.69Z" fill="#55CCFF"/><path d="M887.58 303.23C885.796 302.2 885.185 299.918 886.216 298.134 886.22 298.126 886.225 298.118 886.23 298.11 887.222 296.336 889.464 295.703 891.238 296.695 891.276 296.716 891.313 296.738 891.35 296.76 893.137 297.801 893.741 300.093 892.7 301.88 891.659 303.667 889.367 304.271 887.58 303.23Z" fill="#55CCFF"/><path d="M862.78 325.33C861.739 323.543 862.343 321.251 864.13 320.21 865.917 319.169 868.209 319.773 869.25 321.56 870.291 323.347 869.687 325.639 867.9 326.68 866.113 327.721 863.821 327.117 862.78 325.33Z" fill="#55CCFF"/><circle cx="833.94" cy="332.07" r="3.77" fill="#55CCFF" transform="matrix(0.92388 -0.382683 0.382683 0.92388 -63.6 344.41)"/><path d="M798.63 321.56C799.697 319.791 801.995 319.222 803.764 320.288 805.533 321.355 806.102 323.654 805.036 325.422 803.987 327.161 801.744 327.746 799.98 326.74 798.19 325.732 797.556 323.464 798.563 321.673 798.585 321.635 798.607 321.597 798.63 321.56Z" fill="#55CCFF"/><path d="M776.53 296.76C778.268 295.706 780.531 296.26 781.585 297.998 781.607 298.035 781.629 298.072 781.65 298.11 782.696 299.878 782.11 302.16 780.342 303.206 780.328 303.214 780.314 303.222 780.3 303.23 778.513 304.271 776.221 303.667 775.18 301.88 774.139 300.093 774.743 297.801 776.53 296.76Z" fill="#55CCFF"/><circle cx="769.79" cy="267.92" r="3.77" fill="#55CCFF" transform="matrix(0.382683 -0.92388 0.92388 0.382683 227.68 876.59)"/><path d="M780.3 232.61C782.066 233.681 782.63 235.981 781.56 237.747 780.489 239.513 778.189 240.077 776.423 239.007 774.691 237.957 774.109 235.72 775.11 233.96 776.146 232.16 778.445 231.541 780.245 232.577 780.263 232.588 780.282 232.599 780.3 232.61Z" fill="#55CCFF"/><path d="M805.1 210.51C806.154 212.248 805.6 214.511 803.862 215.565 803.825 215.587 803.788 215.609 803.75 215.63 801.958 216.691 799.646 216.098 798.585 214.306 797.525 212.514 798.118 210.202 799.909 209.141 801.701 208.081 804.013 208.674 805.074 210.465 805.083 210.48 805.091 210.495 805.1 210.51Z" fill="#55CCFF"/><circle cx="833.94" cy="418.86" r="52.83" fill="#55CCFF"/><path d="M837.71 354.71C837.705 356.792 836.012 358.475 833.93 358.47 831.848 358.464 830.165 356.772 830.17 354.69 830.176 352.612 831.862 350.93 833.94 350.93 836.017 350.924 837.704 352.603 837.71 354.68 837.71 354.69 837.71 354.7 837.71 354.71Z" fill="#55CCFF"/><path d="M869.25 365.22C868.22 367.004 865.938 367.615 864.154 366.584 864.146 366.58 864.138 366.575 864.13 366.57 862.356 365.578 861.723 363.336 862.715 361.562 862.736 361.524 862.758 361.487 862.78 361.45 863.821 359.663 866.113 359.059 867.9 360.1 869.687 361.141 870.291 363.433 869.25 365.22Z" fill="#55CCFF"/><path d="M891.35 390C889.612 391.054 887.349 390.5 886.295 388.762 886.273 388.725 886.251 388.688 886.23 388.65 885.169 386.858 885.762 384.546 887.554 383.485 889.346 382.425 891.658 383.018 892.719 384.809 893.779 386.601 893.186 388.914 891.395 389.974 891.38 389.983 891.365 389.991 891.35 390Z" fill="#55CCFF"/><path d="M898.09 422.63C896.002 422.636 894.306 420.948 894.3 418.86 894.295 416.772 895.982 415.076 898.07 415.07 900.158 415.065 901.855 416.752 901.86 418.84 901.86 418.847 901.86 418.853 901.86 418.86 901.866 420.937 900.187 422.624 898.11 422.63 898.103 422.63 898.097 422.63 898.09 422.63Z" fill="#55CCFF"/><path d="M887.58 454.17C885.796 453.14 885.185 450.858 886.216 449.074 886.22 449.066 886.225 449.058 886.23 449.05 887.222 447.276 889.464 446.643 891.238 447.635 891.276 447.656 891.313 447.678 891.35 447.7 893.137 448.741 893.741 451.033 892.7 452.82 891.659 454.607 889.367 455.211 887.58 454.17Z" fill="#55CCFF"/><path d="M862.78 476.27C861.726 474.532 862.28 472.269 864.018 471.215 864.055 471.193 864.092 471.171 864.13 471.15 865.897 470.102 868.179 470.684 869.227 472.451 869.235 472.464 869.243 472.477 869.25 472.49 870.37 474.232 869.865 476.552 868.122 477.672 866.38 478.791 864.06 478.286 862.94 476.544 862.883 476.455 862.83 476.364 862.78 476.27Z" fill="#55CCFF"/><circle cx="833.94" cy="483.01" r="3.77" fill="#55CCFF" transform="matrix(0.99847 -0.0552987 0.0552987 0.99847 -25.43 46.86)"/><path d="M798.63 472.49C799.657 470.711 801.932 470.1 803.711 471.127 803.724 471.135 803.737 471.142 803.75 471.15 805.524 472.142 806.157 474.384 805.165 476.158 805.144 476.196 805.122 476.233 805.1 476.27 804.132 478.101 801.863 478.8 800.032 477.832 798.201 476.864 797.502 474.595 798.47 472.764 798.519 472.67 798.573 472.579 798.63 472.49Z" fill="#55CCFF"/><path d="M776.53 447.7C778.268 446.646 780.531 447.2 781.585 448.938 781.607 448.975 781.629 449.012 781.65 449.05 782.696 450.818 782.11 453.1 780.342 454.146 780.328 454.154 780.314 454.162 780.3 454.17 778.513 455.211 776.221 454.607 775.18 452.82 774.139 451.033 774.743 448.741 776.53 447.7Z" fill="#55CCFF"/><circle cx="769.79" cy="418.86" r="3.77" fill="#55CCFF" transform="matrix(0.615386 -0.788226 0.788226 0.615386 -34.09 767.84)"/><path d="M780.3 383.55C782.066 384.621 782.63 386.921 781.56 388.687 780.489 390.453 778.189 391.017 776.423 389.947 774.691 388.897 774.109 386.66 775.11 384.9 776.146 383.1 778.445 382.481 780.245 383.517 780.263 383.528 780.282 383.539 780.3 383.55Z" fill="#55CCFF"/><path d="M805.1 361.45C806.154 363.188 805.6 365.451 803.862 366.505 803.825 366.527 803.788 366.549 803.75 366.57 801.958 367.631 799.646 367.038 798.585 365.246 797.525 363.454 798.118 361.142 799.909 360.081 801.701 359.021 804.013 359.614 805.074 361.405 805.083 361.42 805.091 361.435 805.1 361.45Z" fill="#55CCFF"/><circle cx="984.88" cy="116.98" r="52.83" fill="#55CCFF"/><path d="M988.65 52.83C988.65 54.9121 986.962 56.6 984.88 56.6 982.798 56.6 981.11 54.9121 981.11 52.83 981.11 50.7479 982.798 49.06 984.88 49.06 986.957 49.0545 988.644 50.7334 988.65 52.81 988.65 52.8167 988.65 52.8233 988.65 52.83Z" fill="#55CCFF"/><path d="M1020.19 63.34C1019.16 65.1238 1016.88 65.7346 1015.09 64.7042 1015.09 64.6995 1015.08 64.6948 1015.07 64.69 1013.3 63.6978 1012.66 61.4556 1013.65 59.6818 1013.68 59.6441 1013.7 59.6069 1013.72 59.57 1014.76 57.7834 1017.05 57.1789 1018.84 58.22 1020.63 59.2611 1021.23 61.5534 1020.19 63.34Z" fill="#55CCFF"/><path d="M1042.29 88.14C1040.55 89.1939 1038.29 88.6396 1037.24 86.9018 1037.21 86.8649 1037.19 86.8276 1037.17 86.79 1036.11 84.9982 1036.7 82.686 1038.49 81.6254 1040.29 80.5649 1042.6 81.1577 1043.66 82.9495 1044.72 84.7412 1044.13 87.0535 1042.33 88.114 1042.32 88.1228 1042.3 88.1314 1042.29 88.14Z" fill="#55CCFF"/><path d="M1049 120.75C1046.91 120.756 1045.22 119.068 1045.21 116.98 1045.2 114.892 1046.89 113.196 1048.98 113.19 1051.07 113.185 1052.76 114.872 1052.77 116.96 1052.77 116.967 1052.77 116.973 1052.77 116.98 1052.78 119.057 1051.1 120.744 1049.02 120.75 1049.01 120.75 1049.01 120.75 1049 120.75Z" fill="#55CCFF"/><path d="M1038.52 152.29C1036.74 151.26 1036.13 148.978 1037.16 147.194 1037.16 147.186 1037.17 147.178 1037.17 147.17 1038.16 145.396 1040.4 144.763 1042.18 145.755 1042.22 145.776 1042.25 145.798 1042.29 145.82 1044.08 146.861 1044.68 149.153 1043.64 150.94 1042.6 152.727 1040.31 153.331 1038.52 152.29Z" fill="#55CCFF"/><path d="M1013.72 174.39C1012.68 172.603 1013.28 170.311 1015.07 169.27 1016.86 168.229 1019.15 168.833 1020.19 170.62 1021.23 172.407 1020.63 174.699 1018.84 175.74 1017.05 176.781 1014.76 176.177 1013.72 174.39Z" fill="#55CCFF"/><circle cx="984.88" cy="181.13" r="3.77" fill="#55CCFF" transform="matrix(0.92388 -0.382683 0.382683 0.92388 5.66 390.69)"/><path d="M949.57 170.62C950.637 168.851 952.935 168.282 954.704 169.348 956.473 170.415 957.042 172.714 955.976 174.482 954.927 176.221 952.684 176.806 950.92 175.8 949.13 174.792 948.496 172.524 949.503 170.733 949.525 170.695 949.547 170.657 949.57 170.62Z" fill="#55CCFF"/><path d="M927.47 145.82C929.208 144.766 931.471 145.32 932.525 147.058 932.547 147.095 932.569 147.132 932.59 147.17 933.651 148.962 933.058 151.274 931.266 152.335 929.474 153.395 927.162 152.802 926.101 151.011 925.041 149.219 925.634 146.906 927.425 145.846 927.44 145.837 927.455 145.829 927.47 145.82Z" fill="#55CCFF"/><path d="M920.73 113.2C922.817 113.172 924.532 114.842 924.56 116.93 924.587 119.017 922.917 120.732 920.83 120.759 918.742 120.787 917.028 119.117 917 117.03 917 117.02 917 117.01 917 117 916.983 114.922 918.652 113.222 920.73 113.2Z" fill="#55CCFF"/><path d="M931.24 81.67C933.024 82.7004 933.635 84.9817 932.604 86.7655 932.6 86.7737 932.595 86.7819 932.59 86.79 931.598 88.5638 929.356 89.1973 927.582 88.2051 927.544 88.1841 927.507 88.1624 927.47 88.14 925.683 87.0989 925.079 84.8066 926.12 83.02 927.161 81.2334 929.453 80.6289 931.24 81.67Z" fill="#55CCFF"/><path d="M956 59.57C957.054 61.3078 956.5 63.5709 954.762 64.6249 954.725 64.6472 954.688 64.6689 954.65 64.69 952.858 65.7505 950.546 65.1577 949.485 63.366 948.425 61.5742 949.018 59.2619 950.809 58.2014 952.601 57.1409 954.913 57.7337 955.974 59.5254 955.983 59.5402 955.991 59.5551 956 59.57Z" fill="#55CCFF"/><circle cx="984.88" cy="267.92" r="52.83" fill="#55CCFF"/><path d="M988.65 203.77C988.645 205.852 986.952 207.536 984.87 207.53 982.788 207.524 981.105 205.832 981.11 203.75 981.116 201.672 982.802 199.99 984.88 199.99 986.957 199.984 988.644 201.663 988.65 203.74 988.65 203.75 988.65 203.76 988.65 203.77Z" fill="#55CCFF"/><path d="M1020.19 214.28C1019.16 216.064 1016.88 216.675 1015.09 215.644 1015.09 215.64 1015.08 215.635 1015.07 215.63 1013.3 214.638 1012.66 212.396 1013.65 210.622 1013.68 210.584 1013.7 210.547 1013.72 210.51 1014.76 208.723 1017.05 208.119 1018.84 209.16 1020.63 210.201 1021.23 212.493 1020.19 214.28Z" fill="#55CCFF"/><path d="M1042.29 239.08C1040.55 240.134 1038.29 239.58 1037.24 237.842 1037.21 237.805 1037.19 237.768 1037.17 237.73 1036.11 235.938 1036.7 233.626 1038.49 232.565 1040.29 231.505 1042.6 232.098 1043.66 233.889 1044.72 235.681 1044.13 237.994 1042.33 239.054 1042.32 239.063 1042.3 239.071 1042.29 239.08Z" fill="#55CCFF"/><path d="M1049 271.69C1046.91 271.696 1045.22 270.008 1045.21 267.92 1045.2 265.832 1046.89 264.136 1048.98 264.13 1051.07 264.125 1052.76 265.812 1052.77 267.9 1052.77 267.907 1052.77 267.913 1052.77 267.92 1052.78 269.997 1051.1 271.684 1049.02 271.69 1049.01 271.69 1049.01 271.69 1049 271.69Z" fill="#55CCFF"/><path d="M1038.52 303.23C1036.74 302.2 1036.13 299.918 1037.16 298.134 1037.16 298.126 1037.17 298.118 1037.17 298.11 1038.16 296.336 1040.4 295.703 1042.18 296.695 1042.22 296.716 1042.25 296.738 1042.29 296.76 1044.08 297.801 1044.68 300.093 1043.64 301.88 1042.6 303.667 1040.31 304.271 1038.52 303.23Z" fill="#55CCFF"/><path d="M1013.72 325.33C1012.68 323.543 1013.28 321.251 1015.07 320.21 1016.86 319.169 1019.15 319.773 1020.19 321.56 1021.23 323.347 1020.63 325.639 1018.84 326.68 1017.05 327.721 1014.76 327.117 1013.72 325.33Z" fill="#55CCFF"/><circle cx="984.88" cy="332.07" r="3.77" fill="#55CCFF" transform="matrix(0.92388 -0.382683 0.382683 0.92388 -52.11 402.17)"/><path d="M949.57 321.56C950.637 319.791 952.935 319.222 954.704 320.288 956.473 321.355 957.042 323.654 955.976 325.422 954.927 327.161 952.684 327.746 950.92 326.74 949.13 325.732 948.496 323.464 949.503 321.673 949.525 321.635 949.547 321.597 949.57 321.56Z" fill="#55CCFF"/><path d="M927.47 296.76C929.208 295.706 931.471 296.26 932.525 297.998 932.547 298.035 932.569 298.072 932.59 298.11 933.634 299.886 933.04 302.172 931.264 303.216 931.256 303.221 931.248 303.225 931.24 303.23 929.453 304.271 927.161 303.667 926.12 301.88 925.079 300.093 925.683 297.801 927.47 296.76Z" fill="#55CCFF"/><path d="M920.73 264.14C922.818 264.134 924.514 265.822 924.52 267.91 924.525 269.998 922.838 271.694 920.75 271.7 918.662 271.706 916.966 270.018 916.96 267.93 916.96 267.927 916.96 267.923 916.96 267.92 916.955 265.838 918.638 264.146 920.72 264.14 920.723 264.14 920.727 264.14 920.73 264.14Z" fill="#55CCFF"/><path d="M931.24 232.61C933.024 233.64 933.635 235.922 932.604 237.706 932.6 237.714 932.595 237.722 932.59 237.73 931.598 239.504 929.356 240.137 927.582 239.145 927.544 239.124 927.507 239.102 927.47 239.08 925.683 238.039 925.079 235.747 926.12 233.96 927.161 232.173 929.453 231.569 931.24 232.61Z" fill="#55CCFF"/><path d="M956 210.51C957.054 212.248 956.5 214.511 954.762 215.565 954.725 215.587 954.688 215.609 954.65 215.63 952.858 216.691 950.546 216.098 949.485 214.306 948.425 212.514 949.018 210.202 950.809 209.141 952.601 208.081 954.913 208.674 955.974 210.465 955.983 210.48 955.991 210.495 956 210.51Z" fill="#55CCFF"/><circle cx="984.88" cy="418.86" r="52.83" fill="#55CCFF"/><path d="M988.65 354.71C988.645 356.792 986.952 358.475 984.87 358.47 982.788 358.464 981.105 356.772 981.11 354.69 981.116 352.612 982.802 350.93 984.88 350.93 986.957 350.924 988.644 352.603 988.65 354.68 988.65 354.69 988.65 354.7 988.65 354.71Z" fill="#55CCFF"/><path d="M1020.19 365.22C1019.16 367.004 1016.88 367.615 1015.09 366.584 1015.09 366.58 1015.08 366.575 1015.07 366.57 1013.3 365.578 1012.66 363.336 1013.65 361.562 1013.68 361.524 1013.7 361.487 1013.72 361.45 1014.76 359.663 1017.05 359.059 1018.84 360.1 1020.63 361.141 1021.23 363.433 1020.19 365.22Z" fill="#55CCFF"/><path d="M1042.29 390C1040.55 391.054 1038.29 390.5 1037.24 388.762 1037.21 388.725 1037.19 388.688 1037.17 388.65 1036.11 386.858 1036.7 384.546 1038.49 383.485 1040.29 382.425 1042.6 383.018 1043.66 384.809 1044.72 386.601 1044.13 388.914 1042.33 389.974 1042.32 389.983 1042.3 389.991 1042.29 390Z" fill="#55CCFF"/><path d="M1049 422.63C1046.91 422.636 1045.22 420.948 1045.21 418.86 1045.2 416.772 1046.89 415.076 1048.98 415.07 1051.07 415.065 1052.76 416.752 1052.77 418.84 1052.77 418.847 1052.77 418.853 1052.77 418.86 1052.78 420.937 1051.1 422.624 1049.02 422.63 1049.01 422.63 1049.01 422.63 1049 422.63Z" fill="#55CCFF"/><path d="M1038.52 454.17C1036.74 453.14 1036.13 450.858 1037.16 449.074 1037.16 449.066 1037.17 449.058 1037.17 449.05 1038.16 447.276 1040.4 446.643 1042.18 447.635 1042.22 447.656 1042.25 447.678 1042.29 447.7 1044.08 448.741 1044.68 451.033 1043.64 452.82 1042.6 454.607 1040.31 455.211 1038.52 454.17Z" fill="#55CCFF"/><path d="M1013.72 476.27C1012.67 474.532 1013.22 472.269 1014.96 471.215 1015 471.193 1015.03 471.171 1015.07 471.15 1016.84 470.102 1019.12 470.684 1020.17 472.451 1020.18 472.464 1020.18 472.477 1020.19 472.49 1021.31 474.232 1020.8 476.552 1019.06 477.672 1017.32 478.791 1015 478.286 1013.88 476.544 1013.82 476.455 1013.77 476.364 1013.72 476.27Z" fill="#55CCFF"/><circle cx="984.88" cy="483.01" r="3.77" fill="#55CCFF" transform="matrix(0.99847 -0.0552987 0.0552987 0.99847 -25.2 55.2)"/><path d="M949.57 472.49C950.597 470.711 952.872 470.1 954.651 471.127 954.664 471.135 954.677 471.142 954.69 471.15 956.464 472.142 957.097 474.384 956.105 476.158 956.084 476.196 956.062 476.233 956.04 476.27 955.072 478.101 952.803 478.8 950.972 477.832 949.141 476.864 948.442 474.595 949.41 472.764 949.459 472.67 949.513 472.579 949.57 472.49Z" fill="#55CCFF"/><path d="M927.47 447.7C929.208 446.646 931.471 447.2 932.525 448.938 932.547 448.975 932.569 449.012 932.59 449.05 933.634 450.826 933.04 453.112 931.264 454.156 931.256 454.161 931.248 454.165 931.24 454.17 929.453 455.211 927.161 454.607 926.12 452.82 925.079 451.033 925.683 448.741 927.47 447.7Z" fill="#55CCFF"/><path d="M920.73 415.08C922.818 415.074 924.514 416.762 924.52 418.85 924.525 420.938 922.838 422.634 920.75 422.64 918.662 422.645 916.966 420.958 916.96 418.87 916.96 418.867 916.96 418.863 916.96 418.86 916.955 416.778 918.638 415.086 920.72 415.08 920.723 415.08 920.727 415.08 920.73 415.08Z" fill="#55CCFF"/><path d="M931.24 383.55C933.024 384.58 933.635 386.862 932.604 388.646 932.6 388.654 932.595 388.662 932.59 388.67 931.598 390.444 929.356 391.077 927.582 390.085 927.544 390.064 927.507 390.042 927.47 390.02 925.683 388.979 925.079 386.687 926.12 384.9 927.161 383.113 929.453 382.509 931.24 383.55Z" fill="#55CCFF"/><path d="M956 361.45C957.054 363.188 956.5 365.451 954.762 366.505 954.725 366.527 954.688 366.549 954.65 366.57 952.858 367.631 950.546 367.038 949.485 365.246 948.425 363.454 949.018 361.142 950.809 360.081 952.601 359.021 954.913 359.614 955.974 361.405 955.983 361.42 955.991 361.435 956 361.45Z" fill="#55CCFF"/><circle cx="116.98" cy="116.98" r="52.83" stroke="#000000" stroke-width="7.55" stroke-linejoin="round" fill="none"/><path d="M116.98 116.98 124.39 115.5 116.98 79.24 109.57 115.5 116.98 116.98Z"/><path d="M116.98 116.98 124.39 115.5 116.98 79.24 109.57 115.5 116.98 116.98Z" stroke="#FF0000" stroke-width="7.55" stroke-linejoin="round" fill="none"/><circle cx="116.98" cy="116.98" r="7.55" transform="matrix(0.0709752 -0.997478 0.997478 0.0709752 -8 225.37)"/><circle cx="116.98" cy="116.98" r="7.55" stroke="#FF0000" stroke-width="7.55" stroke-linejoin="round" fill="none" transform="matrix(0.0709752 -0.997478 0.997478 0.0709752 -8 225.37)"/><path d="M116.98 116.98 124.39 115.5 116.98 79.24 109.57 115.5 116.98 116.98Z" fill="#FFFF00"/><circle cx="116.98" cy="116.98" r="7.55" fill="#FFFF00" transform="matrix(0.0709752 -0.997478 0.997478 0.0709752 -8 225.37)"/><circle cx="267.92" cy="116.98" r="52.83" stroke="#000000" stroke-width="7.55" stroke-linejoin="round" fill="none"/><path d="M267.92 116.98 260.5 118.46 267.92 154.71 275.33 118.46 267.92 116.98Z"/><path d="M267.92 116.98 260.5 118.46 267.92 154.71 275.33 118.46 267.92 116.98Z" stroke="#FF0000" stroke-width="7.55" stroke-linejoin="round" fill="none"/><circle cx="267.92" cy="116.98" r="7.55" transform="matrix(0.160226 -0.98708 0.98708 0.160226 109.53 362.7)"/><circle cx="267.92" cy="116.98" r="7.55" stroke="#FF0000" stroke-width="7.55" stroke-linejoin="round" fill="none" transform="matrix(0.160226 -0.98708 0.98708 0.160226 109.53 362.7)"/><path d="M267.92 116.98 260.5 118.46 267.92 154.71 275.33 118.46 267.92 116.98Z" fill="#FFFF00"/><circle cx="267.92" cy="116.98" r="7.55" fill="#FFFF00" transform="matrix(0.160226 -0.98708 0.98708 0.160226 109.53 362.7)"/><circle cx="418.86" cy="116.98" r="52.83" stroke="#000000" stroke-width="7.55" stroke-linejoin="round" fill="none"/><path d="M418.86 116.98 426.27 115.5 418.86 79.24 411.44 115.5 418.86 116.98Z"/><path d="M418.86 116.98 426.27 115.5 418.86 79.24 411.44 115.5 418.86 116.98Z" stroke="#FF0000" stroke-width="7.55" stroke-linejoin="round" fill="none"/><circle cx="418.86" cy="116.98" r="7.55" transform="matrix(0.22971 -0.973259 0.973259 0.22971 208.77 497.75)"/><circle cx="418.86" cy="116.98" r="7.55" stroke="#FF0000" stroke-width="7.55" stroke-linejoin="round" fill="none" transform="matrix(0.22971 -0.973259 0.973259 0.22971 208.77 497.75)"/><path d="M418.86 116.98 426.27 115.5 418.86 79.24 411.44 115.5 418.86 116.98Z" fill="#FFFF00"/><circle cx="418.86" cy="116.98" r="7.55" fill="#FFFF00" transform="matrix(0.22971 -0.973259 0.973259 0.22971 208.77 497.75)"/><circle cx="116.98" cy="267.92" r="52.83" stroke="#000000" stroke-width="7.55" stroke-linejoin="round" fill="none"/><path d="M116.98 267.92 124.34 266.39 116.98 230.18 109.58 266.43 116.98 267.92Z"/><path d="M116.98 267.92 124.34 266.39 116.98 230.18 109.58 266.43 116.98 267.92Z" stroke="#FF0000" stroke-width="7.55" stroke-linejoin="round" fill="none"/><path d="M124.53 267.92C124.53 272.09 121.15 275.47 116.98 275.47 112.81 275.47 109.43 272.09 109.43 267.92 109.43 263.75 112.81 260.37 116.98 260.37 121.133 260.353 124.513 263.707 124.53 267.86 124.53 267.88 124.53 267.9 124.53 267.92Z"/><path d="M124.53 267.92C124.53 272.09 121.15 275.47 116.98 275.47 112.81 275.47 109.43 272.09 109.43 267.92 109.43 263.75 112.81 260.37 116.98 260.37 121.133 260.353 124.513 263.707 124.53 267.86 124.53 267.88 124.53 267.9 124.53 267.92Z" stroke="#FF0000" stroke-width="7.55" stroke-linejoin="round" fill="none"/><path d="M116.98 267.92 124.34 266.39 116.98 230.18 109.58 266.43 116.98 267.92Z" fill="#FFFF00"/><path d="M124.53 267.92C124.53 272.09 121.15 275.47 116.98 275.47 112.81 275.47 109.43 272.09 109.43 267.92 109.43 263.75 112.81 260.37 116.98 260.37 121.133 260.353 124.513 263.707 124.53 267.86 124.53 267.88 124.53 267.9 124.53 267.92Z" fill="#FFFF00"/><circle cx="267.92" cy="267.92" r="52.83" stroke="#000000" stroke-width="7.55" stroke-linejoin="round" fill="none"/><path d="M267.92 267.92 275.28 266.39 267.92 230.18 260.52 266.43 267.92 267.92Z"/><path d="M267.92 267.92 275.28 266.39 267.92 230.18 260.52 266.43 267.92 267.92Z" stroke="#FF0000" stroke-width="7.55" stroke-linejoin="round" fill="none"/><path d="M275.46 267.92C275.46 272.09 272.08 275.47 267.91 275.47 263.74 275.47 260.36 272.09 260.36 267.92 260.36 263.75 263.74 260.37 267.91 260.37 267.913 260.37 267.917 260.37 267.92 260.37 272.062 260.348 275.438 263.688 275.46 267.83 275.46 267.86 275.46 267.89 275.46 267.92Z"/><path d="M275.46 267.92C275.46 272.09 272.08 275.47 267.91 275.47 263.74 275.47 260.36 272.09 260.36 267.92 260.36 263.75 263.74 260.37 267.91 260.37 267.913 260.37 267.917 260.37 267.92 260.37 272.062 260.348 275.438 263.688 275.46 267.83 275.46 267.86 275.46 267.89 275.46 267.92Z" stroke="#FF0000" stroke-width="7.55" stroke-linejoin="round" fill="none"/><path d="M267.92 267.92 275.28 266.39 267.92 230.18 260.52 266.43 267.92 267.92Z" fill="#FFFF00"/><path d="M275.46 267.92C275.46 272.09 272.08 275.47 267.91 275.47 263.74 275.47 260.36 272.09 260.36 267.92 260.36 263.75 263.74 260.37 267.91 260.37 267.913 260.37 267.917 260.37 267.92 260.37 272.062 260.348 275.438 263.688 275.46 267.83 275.46 267.86 275.46 267.89 275.46 267.92Z" fill="#FFFF00"/><circle cx="418.86" cy="267.92" r="52.83" stroke="#000000" stroke-width="7.55" stroke-linejoin="round" fill="none"/><path d="M418.86 267.92 426.27 266.44 418.86 230.18 411.44 266.44 418.86 267.92Z"/><path d="M418.86 267.92 426.27 266.44 418.86 230.18 411.44 266.44 418.86 267.92Z" stroke="#FF0000" stroke-width="7.55" stroke-linejoin="round" fill="none"/><circle cx="418.86" cy="267.92" r="7.55" transform="matrix(0.382683 -0.92388 0.92388 0.382683 11.04 552.36)"/><circle cx="418.86" cy="267.92" r="7.55" stroke="#FF0000" stroke-width="7.55" stroke-linejoin="round" fill="none" transform="matrix(0.382683 -0.92388 0.92388 0.382683 11.04 552.36)"/><path d="M418.86 267.92 426.27 266.44 418.86 230.18 411.44 266.44 418.86 267.92Z" fill="#FFFF00"/><circle cx="418.86" cy="267.92" r="7.55" fill="#FFFF00" transform="matrix(0.382683 -0.92388 0.92388 0.382683 11.04 552.36)"/><circle cx="116.98" cy="418.86" r="52.83" stroke="#000000" stroke-width="7.55" stroke-linejoin="round" fill="none"/><path d="M116.98 418.86 124.34 417.33 116.98 381.12 109.58 417.37 116.98 418.86Z"/><path d="M116.98 418.86 124.34 417.33 116.98 381.12 109.58 417.37 116.98 418.86Z" stroke="#FF0000" stroke-width="7.55" stroke-linejoin="round" fill="none"/><path d="M124.53 418.86C124.53 423.03 121.15 426.41 116.98 426.41 112.81 426.41 109.43 423.03 109.43 418.86 109.43 414.69 112.81 411.31 116.98 411.31 121.133 411.293 124.513 414.647 124.53 418.8 124.53 418.82 124.53 418.84 124.53 418.86Z"/><path d="M124.53 418.86C124.53 423.03 121.15 426.41 116.98 426.41 112.81 426.41 109.43 423.03 109.43 418.86 109.43 414.69 112.81 411.31 116.98 411.31 121.133 411.293 124.513 414.647 124.53 418.8 124.53 418.82 124.53 418.84 124.53 418.86Z" stroke="#FF0000" stroke-width="7.55" stroke-linejoin="round" fill="none"/><path d="M116.98 418.86 124.34 417.33 116.98 381.12 109.58 417.37 116.98 418.86Z" fill="#FFFF00"/><path d="M124.53 418.86C124.53 423.03 121.15 426.41 116.98 426.41 112.81 426.41 109.43 423.03 109.43 418.86 109.43 414.69 112.81 411.31 116.98 411.31 121.133 411.293 124.513 414.647 124.53 418.8 124.53 418.82 124.53 418.84 124.53 418.86Z" fill="#FFFF00"/><circle cx="267.92" cy="418.86" r="52.83" stroke="#000000" stroke-width="7.55" stroke-linejoin="round" fill="none"/><path d="M267.92 418.86 275.28 417.33 267.92 381.12 260.52 417.37 267.92 418.86Z"/><path d="M267.92 418.86 275.28 417.33 267.92 381.12 260.52 417.37 267.92 418.86Z" stroke="#FF0000" stroke-width="7.55" stroke-linejoin="round" fill="none"/><path d="M275.46 418.86C275.46 423.03 272.08 426.41 267.91 426.41 263.74 426.41 260.36 423.03 260.36 418.86 260.36 414.69 263.74 411.31 267.91 411.31 267.913 411.31 267.917 411.31 267.92 411.31 272.062 411.288 275.438 414.628 275.46 418.77 275.46 418.8 275.46 418.83 275.46 418.86Z"/><path d="M275.46 418.86C275.46 423.03 272.08 426.41 267.91 426.41 263.74 426.41 260.36 423.03 260.36 418.86 260.36 414.69 263.74 411.31 267.91 411.31 267.913 411.31 267.917 411.31 267.92 411.31 272.062 411.288 275.438 414.628 275.46 418.77 275.46 418.8 275.46 418.83 275.46 418.86Z" stroke="#FF0000" stroke-width="7.55" stroke-linejoin="round" fill="none"/><path d="M267.92 418.86 275.28 417.33 267.92 381.12 260.52 417.37 267.92 418.86Z" fill="#FFFF00"/><path d="M275.46 418.86C275.46 423.03 272.08 426.41 267.91 426.41 263.74 426.41 260.36 423.03 260.36 418.86 260.36 414.69 263.74 411.31 267.91 411.31 267.913 411.31 267.917 411.31 267.92 411.31 272.062 411.288 275.438 414.628 275.46 418.77 275.46 418.8 275.46 418.83 275.46 418.86Z" fill="#FFFF00"/><circle cx="418.86" cy="418.86" r="52.83" stroke="#000000" stroke-width="7.55" stroke-linejoin="round" fill="none" transform="matrix(0.707107 -0.707107 0.707107 0.707107 -173.5 418.86)"/><path d="M418.86 418.86 426.22 417.33 418.86 381.12 411.46 417.37 418.86 418.86Z"/><path d="M418.86 418.86 426.22 417.33 418.86 381.12 411.46 417.37 418.86 418.86Z" stroke="#FF0000" stroke-width="7.55" stroke-linejoin="round" fill="none"/><path d="M426.4 418.86C426.4 423.03 423.02 426.41 418.85 426.41 414.68 426.41 411.3 423.03 411.3 418.86 411.3 414.69 414.68 411.31 418.85 411.31 418.853 411.31 418.857 411.31 418.86 411.31 423.008 411.293 426.383 414.642 426.4 418.79 426.4 418.813 426.4 418.837 426.4 418.86Z"/><path d="M426.4 418.86C426.4 423.03 423.02 426.41 418.85 426.41 414.68 426.41 411.3 423.03 411.3 418.86 411.3 414.69 414.68 411.31 418.85 411.31 418.853 411.31 418.857 411.31 418.86 411.31 423.008 411.293 426.383 414.642 426.4 418.79 426.4 418.813 426.4 418.837 426.4 418.86Z" stroke="#FF0000" stroke-width="7.55" stroke-linejoin="round" fill="none"/><path d="M418.86 418.86 426.22 417.33 418.86 381.12 411.46 417.37 418.86 418.86Z" fill="#FFFF00"/><path d="M426.4 418.86C426.4 423.03 423.02 426.41 418.85 426.41 414.68 426.41 411.3 423.03 411.3 418.86 411.3 414.69 414.68 411.31 418.85 411.31 418.853 411.31 418.857 411.31 418.86 411.31 423.008 411.293 426.383 414.642 426.4 418.79 426.4 418.813 426.4 418.837 426.4 418.86Z" fill="#FFFF00"/><circle cx="683" cy="116.98" r="52.83" stroke="#000000" stroke-width="7.55" stroke-linejoin="round" fill="none"/><path d="M683 116.98 690.41 115.5 683 79.24 675.59 115.5 683 116.98Z"/><path d="M683 116.98 690.41 115.5 683 79.24 675.59 115.5 683 116.98Z" stroke="#FF0000" stroke-width="7.55" stroke-linejoin="round" fill="none"/><circle cx="683" cy="116.98" r="7.55" transform="matrix(0.22971 -0.973259 0.973259 0.22971 412.23 754.83)"/><circle cx="683" cy="116.98" r="7.55" stroke="#FF0000" stroke-width="7.55" stroke-linejoin="round" fill="none" transform="matrix(0.22971 -0.973259 0.973259 0.22971 412.23 754.83)"/><path d="M683 116.98 690.41 115.5 683 79.24 675.59 115.5 683 116.98Z" fill="#FFFF00"/><circle cx="683" cy="116.98" r="7.55" fill="#FFFF00" transform="matrix(0.22971 -0.973259 0.973259 0.22971 412.23 754.83)"/><circle cx="833.94" cy="116.98" r="52.83" stroke="#000000" stroke-width="7.55" stroke-linejoin="round" fill="none" transform="matrix(0.707107 -0.707107 0.707107 0.707107 161.54 623.95)"/><path d="M833.94 116.98 841.34 115.49 833.94 79.24 826.58 115.45 833.94 116.98Z"/><path d="M833.94 116.98 841.34 115.49 833.94 79.24 826.58 115.45 833.94 116.98Z" stroke="#FF0000" stroke-width="7.55" stroke-linejoin="round" fill="none"/><path d="M841.49 117C841.49 121.17 838.11 124.55 833.94 124.55 829.77 124.55 826.39 121.17 826.39 117 826.39 112.83 829.77 109.45 833.94 109.45 838.093 109.433 841.473 112.787 841.49 116.94 841.49 116.96 841.49 116.98 841.49 117Z"/><path d="M841.49 117C841.49 121.17 838.11 124.55 833.94 124.55 829.77 124.55 826.39 121.17 826.39 117 826.39 112.83 829.77 109.45 833.94 109.45 838.093 109.433 841.473 112.787 841.49 116.94 841.49 116.96 841.49 116.98 841.49 117Z" stroke="#FF0000" stroke-width="7.55" stroke-linejoin="round" fill="none"/><path d="M833.94 116.98 841.34 115.49 833.94 79.24 826.58 115.45 833.94 116.98Z" fill="#FFFF00"/><path d="M841.49 117C841.49 121.17 838.11 124.55 833.94 124.55 829.77 124.55 826.39 121.17 826.39 117 826.39 112.83 829.77 109.45 833.94 109.45 838.093 109.433 841.473 112.787 841.49 116.94 841.49 116.96 841.49 116.98 841.49 117Z" fill="#FFFF00"/><circle cx="984.88" cy="116.98" r="52.83" stroke="#000000" stroke-width="7.55" stroke-linejoin="round" fill="none"/><path d="M984.88 116.98 992.29 115.5 984.88 79.24 977.47 115.5 984.88 116.98Z"/><path d="M984.88 116.98 992.29 115.5 984.88 79.24 977.47 115.5 984.88 116.98Z" stroke="#FF0000" stroke-width="7.55" stroke-linejoin="round" fill="none"/><circle cx="984.88" cy="116.98" r="7.55" transform="matrix(0.289867 -0.957067 0.957067 0.289867 587.52 1025.7)"/><circle cx="984.88" cy="116.98" r="7.55" stroke="#FF0000" stroke-width="7.55" stroke-linejoin="round" fill="none" transform="matrix(0.289867 -0.957067 0.957067 0.289867 587.52 1025.7)"/><path d="M984.88 116.98 992.29 115.5 984.88 79.24 977.47 115.5 984.88 116.98Z" fill="#FFFF00"/><circle cx="984.88" cy="116.98" r="7.55" fill="#FFFF00" transform="matrix(0.289867 -0.957067 0.957067 0.289867 587.52 1025.7)"/><circle cx="683" cy="267.92" r="52.83" stroke="#000000" stroke-width="7.55" stroke-linejoin="round" fill="none" transform="matrix(0.707107 -0.707107 0.707107 0.707107 10.6 561.43)"/><path d="M683 267.92 690.4 266.43 683 230.18 675.64 266.39 683 267.92Z"/><path d="M683 267.92 690.4 266.43 683 230.18 675.64 266.39 683 267.92Z" stroke="#FF0000" stroke-width="7.55" stroke-linejoin="round" fill="none"/><path d="M690.55 267.92C690.55 272.09 687.17 275.47 683 275.47 678.83 275.47 675.45 272.09 675.45 267.92 675.45 263.75 678.83 260.37 683 260.37 687.142 260.342 690.522 263.678 690.55 267.82 690.55 267.853 690.55 267.887 690.55 267.92Z"/><path d="M690.55 267.92C690.55 272.09 687.17 275.47 683 275.47 678.83 275.47 675.45 272.09 675.45 267.92 675.45 263.75 678.83 260.37 683 260.37 687.142 260.342 690.522 263.678 690.55 267.82 690.55 267.853 690.55 267.887 690.55 267.92Z" stroke="#FF0000" stroke-width="7.55" stroke-linejoin="round" fill="none"/><path d="M683 267.92 690.4 266.43 683 230.18 675.64 266.39 683 267.92Z" fill="#FFFF00"/><path d="M690.55 267.92C690.55 272.09 687.17 275.47 683 275.47 678.83 275.47 675.45 272.09 675.45 267.92 675.45 263.75 678.83 260.37 683 260.37 687.142 260.342 690.522 263.678 690.55 267.82 690.55 267.853 690.55 267.887 690.55 267.92Z" fill="#FFFF00"/><circle cx="833.94" cy="267.92" r="52.83" stroke="#000000" stroke-width="7.55" stroke-linejoin="round" fill="none" transform="matrix(0.5 -0.866025 0.866025 0.5 184.95 856.17)"/><path d="M833.94 267.92 841.34 266.43 833.94 230.18 826.58 266.39 833.94 267.92Z"/><path d="M833.94 267.92 841.34 266.43 833.94 230.18 826.58 266.39 833.94 267.92Z" stroke="#FF0000" stroke-width="7.55" stroke-linejoin="round" fill="none"/><path d="M841.49 267.92C841.49 272.09 838.11 275.47 833.94 275.47 829.77 275.47 826.39 272.09 826.39 267.92 826.39 263.75 829.77 260.37 833.94 260.37 838.082 260.342 841.462 263.678 841.49 267.82 841.49 267.853 841.49 267.887 841.49 267.92Z"/><path d="M841.49 267.92C841.49 272.09 838.11 275.47 833.94 275.47 829.77 275.47 826.39 272.09 826.39 267.92 826.39 263.75 829.77 260.37 833.94 260.37 838.082 260.342 841.462 263.678 841.49 267.82 841.49 267.853 841.49 267.887 841.49 267.92Z" stroke="#FF0000" stroke-width="7.55" stroke-linejoin="round" fill="none"/><path d="M833.94 267.92 841.34 266.43 833.94 230.18 826.58 266.39 833.94 267.92Z" fill="#FFFF00"/><path d="M841.49 267.92C841.49 272.09 838.11 275.47 833.94 275.47 829.77 275.47 826.39 272.09 826.39 267.92 826.39 263.75 829.77 260.37 833.94 260.37 838.082 260.342 841.462 263.678 841.49 267.82 841.49 267.853 841.49 267.887 841.49 267.92Z" fill="#FFFF00"/><circle cx="984.88" cy="267.92" r="52.83" stroke="#000000" stroke-width="7.55" stroke-linejoin="round" fill="none"/><path d="M984.88 267.92 992.28 266.43 984.88 230.18 977.52 266.39 984.88 267.92Z"/><path d="M984.88 267.92 992.28 266.43 984.88 230.18 977.52 266.39 984.88 267.92Z" stroke="#FF0000" stroke-width="7.55" stroke-linejoin="round" fill="none"/><path d="M992.43 267.92C992.43 272.09 989.05 275.47 984.88 275.47 980.71 275.47 977.33 272.09 977.33 267.92 977.33 263.75 980.71 260.37 984.88 260.37 989.022 260.342 992.402 263.678 992.43 267.82 992.43 267.853 992.43 267.887 992.43 267.92Z"/><path d="M992.43 267.92C992.43 272.09 989.05 275.47 984.88 275.47 980.71 275.47 977.33 272.09 977.33 267.92 977.33 263.75 980.71 260.37 984.88 260.37 989.022 260.342 992.402 263.678 992.43 267.82 992.43 267.853 992.43 267.887 992.43 267.92Z" stroke="#FF0000" stroke-width="7.55" stroke-linejoin="round" fill="none"/><path d="M984.88 267.92 992.28 266.43 984.88 230.18 977.52 266.39 984.88 267.92Z" fill="#FFFF00"/><path d="M992.43 267.92C992.43 272.09 989.05 275.47 984.88 275.47 980.71 275.47 977.33 272.09 977.33 267.92 977.33 263.75 980.71 260.37 984.88 260.37 989.022 260.342 992.402 263.678 992.43 267.82 992.43 267.853 992.43 267.887 992.43 267.92Z" fill="#FFFF00"/><circle cx="683" cy="418.86" r="52.83" stroke="#000000" stroke-width="7.55" stroke-linejoin="round" fill="none" transform="matrix(0.707107 -0.707107 0.707107 0.707107 -96.13 605.64)"/><path d="M683 418.86 690.4 417.37 683 381.12 675.64 417.33 683 418.86Z"/><path d="M683 418.86 690.4 417.37 683 381.12 675.64 417.33 683 418.86Z" stroke="#FF0000" stroke-width="7.55" stroke-linejoin="round" fill="none"/><path d="M690.55 418.86C690.55 423.03 687.17 426.41 683 426.41 678.83 426.41 675.45 423.03 675.45 418.86 675.45 414.69 678.83 411.31 683 411.31 687.148 411.288 690.528 414.632 690.55 418.78 690.55 418.807 690.55 418.833 690.55 418.86Z"/><path d="M690.55 418.86C690.55 423.03 687.17 426.41 683 426.41 678.83 426.41 675.45 423.03 675.45 418.86 675.45 414.69 678.83 411.31 683 411.31 687.148 411.288 690.528 414.632 690.55 418.78 690.55 418.807 690.55 418.833 690.55 418.86Z" stroke="#FF0000" stroke-width="7.55" stroke-linejoin="round" fill="none"/><path d="M683 418.86 690.4 417.37 683 381.12 675.64 417.33 683 418.86Z" fill="#FFFF00"/><path d="M690.55 418.86C690.55 423.03 687.17 426.41 683 426.41 678.83 426.41 675.45 423.03 675.45 418.86 675.45 414.69 678.83 411.31 683 411.31 687.148 411.288 690.528 414.632 690.55 418.78 690.55 418.807 690.55 418.833 690.55 418.86Z" fill="#FFFF00"/><circle cx="833.94" cy="418.86" r="52.83" stroke="#000000" stroke-width="7.55" stroke-linejoin="round" fill="none" transform="matrix(0.5 -0.866025 0.866025 0.5 54.23 931.64)"/><path d="M833.94 418.86 841.34 417.37 833.94 381.12 826.58 417.33 833.94 418.86Z"/><path d="M833.94 418.86 841.34 417.37 833.94 381.12 826.58 417.33 833.94 418.86Z" stroke="#FF0000" stroke-width="7.55" stroke-linejoin="round" fill="none"/><path d="M841.49 418.86C841.49 423.03 838.11 426.41 833.94 426.41 829.77 426.41 826.39 423.03 826.39 418.86 826.39 414.69 829.77 411.31 833.94 411.31 838.088 411.288 841.468 414.632 841.49 418.78 841.49 418.807 841.49 418.833 841.49 418.86Z"/><path d="M841.49 418.86C841.49 423.03 838.11 426.41 833.94 426.41 829.77 426.41 826.39 423.03 826.39 418.86 826.39 414.69 829.77 411.31 833.94 411.31 838.088 411.288 841.468 414.632 841.49 418.78 841.49 418.807 841.49 418.833 841.49 418.86Z" stroke="#FF0000" stroke-width="7.55" stroke-linejoin="round" fill="none"/><path d="M833.94 418.86 841.34 417.37 833.94 381.12 826.58 417.33 833.94 418.86Z" fill="#FFFF00"/><path d="M841.49 418.86C841.49 423.03 838.11 426.41 833.94 426.41 829.77 426.41 826.39 423.03 826.39 418.86 826.39 414.69 829.77 411.31 833.94 411.31 838.088 411.288 841.468 414.632 841.49 418.78 841.49 418.807 841.49 418.833 841.49 418.86Z" fill="#FFFF00"/><circle cx="984.88" cy="418.86" r="52.83" stroke="#000000" stroke-width="7.55" stroke-linejoin="round" fill="none"/><path d="M984.88 418.86 992.28 417.37 984.88 381.12 977.51 417.33 984.88 418.86Z"/><path d="M984.88 418.86 992.28 417.37 984.88 381.12 977.51 417.33 984.88 418.86Z" stroke="#FF0000" stroke-width="7.55" stroke-linejoin="round" fill="none"/><path d="M992.43 418.86C992.43 423.03 989.05 426.41 984.88 426.41 980.71 426.41 977.33 423.03 977.33 418.86 977.33 414.69 980.71 411.31 984.88 411.31 989.028 411.288 992.408 414.632 992.43 418.78 992.43 418.807 992.43 418.833 992.43 418.86Z"/><path d="M992.43 418.86C992.43 423.03 989.05 426.41 984.88 426.41 980.71 426.41 977.33 423.03 977.33 418.86 977.33 414.69 980.71 411.31 984.88 411.31 989.028 411.288 992.408 414.632 992.43 418.78 992.43 418.807 992.43 418.833 992.43 418.86Z" stroke="#FF0000" stroke-width="7.55" stroke-linejoin="round" fill="none"/><path d="M984.88 418.86 992.28 417.37 984.88 381.12 977.51 417.33 984.88 418.86Z" fill="#FFFF00"/><path d="M992.43 418.86C992.43 423.03 989.05 426.41 984.88 426.41 980.71 426.41 977.33 423.03 977.33 418.86 977.33 414.69 980.71 411.31 984.88 411.31 989.028 411.288 992.408 414.632 992.43 418.78 992.43 418.807 992.43 418.833 992.43 418.86Z" fill="#FFFF00"/><circle cx="192.45" cy="192.45" r="15.09" fill="#FEFE00"/><circle cx="192.45" cy="192.45" r="15.09" stroke="#000000" stroke-width="7.55" stroke-linejoin="round" fill="none"/><circle cx="343.39" cy="192.45" r="15.09" fill="#FEFE00" transform="matrix(0.92388 -0.382683 0.382683 0.92388 -47.51 146.06)"/><circle cx="343.39" cy="192.45" r="15.09" stroke="#000000" stroke-width="7.55" stroke-linejoin="round" fill="none" transform="matrix(0.92388 -0.382683 0.382683 0.92388 -47.51 146.06)"/><circle cx="192.45" cy="343.39" r="15.09" fill="#FEFE00"/><circle cx="192.45" cy="343.39" r="15.09" stroke="#000000" stroke-width="7.55" stroke-linejoin="round" fill="none"/><circle cx="343.39" cy="343.39" r="15.09" fill="#FEFE00" transform="matrix(0.92 -0.38 0.38 0.92 -105.27 157.55)"/><circle cx="343.39" cy="343.39" r="15.09" stroke="#000000" stroke-width="7.55" stroke-linejoin="round" fill="none" transform="matrix(0.92 -0.38 0.38 0.92 -105.27 157.55)"/><circle cx="758.47" cy="192.45" r="15.09" fill="#885500" transform="matrix(0.382683 -0.92388 0.92388 0.382683 290.42 819.54)"/><circle cx="758.47" cy="192.45" r="15.09" stroke="#000000" stroke-width="7.55" stroke-linejoin="round" fill="none" transform="matrix(0.382683 -0.92388 0.92388 0.382683 290.42 819.54)"/><circle cx="909.41" cy="192.45" r="15.09" fill="#885500" transform="matrix(0.995142 -0.0984514 0.0984514 0.995142 -14.54 90.55)"/><circle cx="909.41" cy="192.45" r="15.09" stroke="#000000" stroke-width="7.55" stroke-linejoin="round" fill="none" transform="matrix(0.995142 -0.0984514 0.0984514 0.995142 -14.54 90.55)"/><circle cx="758.47" cy="343.39" r="15.09" fill="#885500" transform="matrix(0.382683 -0.92388 0.92388 0.382683 150.97 912.71)"/><circle cx="758.47" cy="343.39" r="15.09" stroke="#000000" stroke-width="7.55" stroke-linejoin="round" fill="none" transform="matrix(0.382683 -0.92388 0.92388 0.382683 150.97 912.71)"/><circle cx="909.41" cy="343.39" r="15.09" fill="#885500" transform="matrix(0.995142 -0.0984514 0.0984514 0.995142 -29.41 91.28)"/><circle cx="909.41" cy="343.39" r="15.09" stroke="#000000" stroke-width="7.55" stroke-linejoin="round" fill="none" transform="matrix(0.995142 -0.0984514 0.0984514 0.995142 -29.41 91.28)"/></g></g></svg>