<svg viewBox="0 0 128 189" xmlns="http://www.w3.org/2000/svg" xmlns:xlink="http://www.w3.org/1999/xlink" id="图层_1" overflow="hidden"><defs></defs><path d="M13.53 67.89 13.53 97.05 38.77 111.63 13.53 67.89Z" fill="#404040"/><path d="M13.53 38.72 13.53 67.89 38.77 53.31 13.53 38.72Z" fill="#404040"/><rect x="24.2" y="57.22" width="29.15" height="50.51" fill="#404040" transform="matrix(0.8662 -0.499698 0.499698 0.8662 -36.02 30.41)"/><path d="M13.53 38.72 38.77 53.31 38.77 24.14 13.53 38.72Z" fill="#404040"/><rect x="38.77" y="24.14" width="50.48" height="29.17" fill="#404040"/><path d="M38.77 53.31 64.01 97.05 64.01 67.89 38.77 53.31Z" fill="#404040"/><path d="M38.77 24.14 89.25 24.14 64.01 9.55 38.77 24.14Z" fill="#404040"/><path d="M38.77 53.31 64.01 67.89 89.25 53.31 38.77 53.31Z" fill="#404040"/><path d="M38.77 111.63 64.01 126.21 64.01 97.05 38.77 111.63Z" fill="#404040"/><path d="M64.01 97.05 64.01 126.21 89.25 111.63 64.01 97.05Z" fill="#404040"/><path d="M64.01 67.89 64.01 97.05 89.25 53.31 64.01 67.89Z" fill="#404040"/><rect x="64" y="67.9" width="50.51" height="29.15" fill="#404040" transform="matrix(0.499698 -0.8662 0.8662 0.499698 -26.78 118.57)"/><path d="M89.25 24.14 89.25 53.31 114.49 38.72 89.25 24.14Z" fill="#404040"/><path d="M114.49 67.89 89.25 111.63 114.49 97.05 114.49 67.89Z" fill="#404040"/><path d="M89.25 53.31 114.49 67.89 114.49 38.72 89.25 53.31Z" fill="#404040"/><path d="M38.77 24.14 64.01 9.55 89.25 24.14" stroke="#000000" stroke-width="2.02" stroke-linejoin="round" fill="none"/><line x1="13.53" y1="38.72" x2="38.77" y2="24.14" stroke="#000000" stroke-width="2.02" stroke-linejoin="round" fill="none"/><line x1="89.25" y1="24.14" x2="114.49" y2="38.72" stroke="#000000" stroke-width="2.02" stroke-linejoin="round" fill="none"/><rect x="38.77" y="24.14" width="50.48" height="29.17" stroke="#000000" stroke-width="2.02" stroke-linejoin="round" fill="none"/><line x1="38.77" y1="53.31" x2="64.01" y2="67.89" stroke="#000000" stroke-width="2.02" stroke-linejoin="round" fill="none"/><path d="M13.53 67.89 13.53 38.72 38.77 53.31" stroke="#000000" stroke-width="2.02" stroke-linejoin="round" fill="none"/><line x1="64.01" y1="126.21" x2="38.77" y2="111.63" stroke="#000000" stroke-width="2.02" stroke-linejoin="round" fill="none"/><path d="M38.77 111.63 13.53 97.05 13.53 67.89" stroke="#000000" stroke-width="2.02" stroke-linejoin="round" fill="none"/><rect x="24.2" y="57.22" width="29.15" height="50.51" stroke="#000000" stroke-width="2.02" stroke-linejoin="round" fill="none" transform="matrix(0.8662 -0.499698 0.499698 0.8662 -36.02 30.41)"/><path d="M89.25 53.31 114.49 38.72 114.49 67.89" stroke="#000000" stroke-width="2.02" stroke-linejoin="round" fill="none"/><path d="M64.01 97.05 64.01 67.89 89.25 53.31" stroke="#000000" stroke-width="2.02" stroke-linejoin="round" fill="none"/><path d="M114.49 67.89 114.49 97.05 89.25 111.63" stroke="#000000" stroke-width="2.02" stroke-linejoin="round" fill="none"/><path d="M89.25 111.63 64.01 126.21 64.01 97.05" stroke="#000000" stroke-width="2.02" stroke-linejoin="round" fill="none"/><rect x="64" y="67.9" width="50.51" height="29.15" stroke="#000000" stroke-width="2.02" stroke-linejoin="round" fill="none" transform="matrix(0.499698 -0.8662 0.8662 0.499698 -26.78 118.57)"/><path d="M13.52 97.09 13.52 126.26 38.77 111.67 13.52 97.09Z" stroke="#000000" stroke-width="2.02" stroke-linejoin="round" fill="#88DDFF"/><path d="M64.03 126.26 38.77 111.67 64.03 155.42 64.03 126.26Z" stroke="#000000" stroke-width="2.02" stroke-linejoin="round" fill="#FFFF00"/><path d="M13.52 155.42 38.77 170.01 13.52 126.26 13.52 155.42Z" stroke="#000000" stroke-width="2.02" stroke-linejoin="round" fill="#FFFF00"/><path d="M64.03 184.59 64.03 155.42 38.77 170.01 64.03 184.59Z" stroke="#000000" stroke-width="2.02" stroke-linejoin="round" fill="#FF99FF"/><path d="M64.04 155.42 38.77 111.67 13.51 126.26 38.78 170.01 64.04 155.42Z" stroke="#000000" stroke-width="2.02" stroke-linejoin="round" fill="#FFFF00"/></svg>