<svg viewBox="0 0 667.24 697.41" xmlns="http://www.w3.org/2000/svg" xmlns:xlink="http://www.w3.org/1999/xlink" overflow="hidden"><defs></defs><g id="图层_2"><g id="图层_1-2"><path d="M388.31 274.43 422.89 380.88 332.28 446.7 241.74 380.88 276.33 274.43 388.31 274.43Z" fill="#006600"/><path d="M388.31 274.43 276.33 274.43 241.74 380.88 332.28 446.7 422.89 380.88 388.31 274.43Z" stroke="#040000" stroke-width="1.9" stroke-miterlimit="10" fill="none"/><path d="M331.19 449.42C330.385 449.421 329.6 449.165 328.95 448.69L238.4 382.87C237.07 381.905 236.517 380.191 237.03 378.63L271.62 272.12C272.121 270.556 273.577 269.496 275.22 269.5L387.22 269.5C388.866 269.491 390.328 270.552 390.83 272.12L425.4 378.63C425.918 380.193 425.359 381.911 424.02 382.87L333.45 448.69C332.797 449.175 332.003 449.432 331.19 449.42ZM245.11 378.35 331.19 440.92 417.29 378.35 384.43 277.1 278 277.1Z" stroke="#040000" stroke-width="1.9" stroke-miterlimit="10" fill="#211613"/><path d="M609.84 355.33 610.04 437.6 583.92 428.98 554.01 336.97 609.84 355.33Z" stroke="#040000" stroke-width="1.9" stroke-miterlimit="10" fill="#EE0000" fill-rule="evenodd"/><path d="M610.24 441.4 610 441.4C609.595 441.403 609.192 441.335 608.81 441.2L582.69 432.59C581.539 432.216 580.639 431.312 580.27 430.16L550.37 338.16C549.92 336.803 550.276 335.308 551.29 334.3 552.305 333.291 553.8 332.935 555.16 333.38L611 351.72C612.559 352.223 613.617 353.672 613.62 355.31L613.82 436.39C613.947 436.781 614.015 437.189 614.02 437.6 614.015 439.689 612.329 441.384 610.24 441.4ZM586.94 426 606.23 432.36 606.03 358.1 559.94 342.95Z" stroke="#040000" stroke-width="1.9" stroke-miterlimit="10" fill="#211613"/><path d="M583.92 428.98 533.63 412.44 503.72 320.4 554.01 336.97 583.92 428.98Z" stroke="#040000" stroke-width="1.9" stroke-miterlimit="10" fill="#EE0000" fill-rule="evenodd"/><path d="M583.92 432.78C583.515 432.786 583.113 432.722 582.73 432.59L532.44 416.05C531.284 415.679 530.382 414.769 530.02 413.61L500.11 321.61C499.662 320.253 500.018 318.759 501.03 317.75 502.054 316.749 503.546 316.395 504.91 316.83L555.2 333.41C556.354 333.778 557.257 334.684 557.62 335.84L587.2 426.84C588.415 428.551 588.013 430.923 586.302 432.138 585.664 432.591 584.902 432.836 584.12 432.84 584.06 432.77 584 432.8 583.92 432.78ZM536.64 409.43 578 423 551 340 509.66 326.37Z" stroke="#040000" stroke-width="1.9" stroke-miterlimit="10" fill="#060001"/><path d="M519.28 230.06 553.64 182.36 609.63 259.81 609.84 355.33 554.01 336.97 519.28 230.06Z" stroke="#040000" stroke-width="1.9" stroke-miterlimit="10" fill="#EE0000" fill-rule="evenodd"/><path d="M609.84 359.13C609.436 359.133 609.033 359.069 608.65 358.94L552.83 340.58C551.678 340.209 550.776 339.304 550.41 338.15L515.67 231.23C515.294 230.078 515.487 228.817 516.19 227.83L550.55 180.13C551.956 178.426 554.477 178.185 556.181 179.591 556.377 179.753 556.558 179.934 556.72 180.13L612.72 257.59C613.194 258.229 613.45 259.004 613.45 259.8L613.66 354.13C613.784 354.518 613.848 354.923 613.85 355.33 613.926 357.355 612.346 359.059 610.321 359.135 610.194 359.14 610.067 359.138 609.94 359.13ZM557 334 606 350.11 605.81 261.11 553.62 188.91 523.5 230.71Z" stroke="#040000" stroke-width="1.9" stroke-miterlimit="10" fill="#060001"/><path d="M610.04 436.29 609.84 355.33 660.12 371.9 662.48 454.08 610.04 436.29Z" stroke="#040000" stroke-width="1.9" stroke-miterlimit="10" fill="#EEE8AA" fill-rule="evenodd"/><path d="M662.67 457.88 662.48 457.88C662.064 457.885 661.65 457.814 661.26 457.67L608.83 439.88C607.286 439.368 606.243 437.926 606.24 436.3L606.03 355.3C606.026 354.075 606.615 352.924 607.61 352.21 608.584 351.468 609.867 351.269 611.02 351.68L661.3 368.25C662.826 368.751 663.874 370.155 663.92 371.76L666.25 452.76C666.25 453.35 666.25 453.59 666.25 454.05 665.8 455.86 664.446 457.309 662.67 457.88ZM613.84 433.56 658.53 448.72 656.39 374.72 613.65 360.63Z" stroke="#040000" stroke-width="1.9" stroke-miterlimit="10" fill="#060001"/><path d="M609.63 259.81 660.03 329.52 660.12 371.9 609.84 355.33 609.63 259.81Z" stroke="#040000" stroke-width="1.9" stroke-miterlimit="10" fill="#EEE8AA" fill-rule="evenodd"/><path d="M660.12 375.7C659.716 375.701 659.314 375.637 658.93 375.51L608.65 358.94C607.09 358.434 606.032 356.981 606.03 355.34L605.83 259.83C605.82 258.181 606.881 256.716 608.45 256.21 610.016 255.677 611.746 256.238 612.7 257.59L663.1 327.29C663.572 327.931 663.827 328.705 663.83 329.5L663.92 370.7 663.92 371.9C664.003 373.914 662.437 375.614 660.423 375.697 660.386 375.699 660.348 375.7 660.31 375.7ZM613.64 352.58 656.3 366.64 656.23 330.75 613.46 271.59Z" stroke="#040000" stroke-width="1.9" stroke-miterlimit="10" fill="#060001"/><path d="M554.01 336.97 503.72 320.4 488.32 273 519.28 230.06 554.01 336.97Z" stroke="#040000" stroke-width="1.9" stroke-miterlimit="10" fill="#EE0000" fill-rule="evenodd"/><path d="M554 340.78C553.598 340.784 553.198 340.716 552.82 340.58L502.53 324C501.374 323.629 500.472 322.719 500.11 321.56L484.71 274.16C484.328 273.009 484.521 271.744 485.23 270.76L516.23 227.82C517.069 226.656 518.493 226.064 519.91 226.29 521.317 226.514 522.478 227.512 522.91 228.87L557.3 334.75C558.51 336.472 558.094 338.848 556.372 340.058 555.739 340.503 554.984 340.744 554.21 340.75 554.139 340.749 554.068 340.759 554 340.78ZM506.72 317.39 548.09 331 518 238.36 492.57 273.65Z" stroke="#040000" stroke-width="1.9" stroke-miterlimit="10" fill="#060001"/><path d="M557.01 182.36 586.05 139.5 609.45 173.92 609.63 259.81 557.01 182.36Z" stroke="#040000" stroke-width="1.9" stroke-miterlimit="10" fill="#EE0000" fill-rule="evenodd"/><path d="M609.63 263.62C608.408 263.622 607.261 263.033 606.55 262.04L550.55 184.58C549.591 183.252 549.591 181.458 550.55 180.13L581.46 137.27C582.817 135.569 585.296 135.29 586.997 136.647 587.227 136.831 587.436 137.04 587.62 137.27L612.51 171.7C612.983 172.34 613.239 173.114 613.24 173.91L613.43 258.61C613.553 258.998 613.617 259.403 613.62 259.81 613.62 261.91 611.92 263.614 609.82 263.62ZM558.34 182.36 605.8 248 605.63 175.14 584.55 146Z" stroke="#040000" stroke-width="1.9" stroke-miterlimit="10" fill="#060001"/><path d="M609.43 173.92 659.82 243.66 660.03 329.52 609.63 259.81 609.43 173.92Z" stroke="#040000" stroke-width="1.9" stroke-miterlimit="10" fill="#EEE8AA" fill-rule="evenodd"/><path d="M660 333.32C658.78 333.326 657.632 332.741 656.92 331.75L606.55 262C606.081 261.358 605.829 260.584 605.83 259.79L605.63 173.9C605.631 171.796 607.339 170.091 609.443 170.093 610.66 170.094 611.803 170.676 612.52 171.66L662.91 241.39C663.368 242.036 663.616 242.808 663.62 243.6L663.83 328.28 663.83 329.46C663.919 331.479 662.353 333.188 660.334 333.277 660.296 333.278 660.258 333.28 660.22 333.28 660.144 333.264 660.065 333.279 660 333.32ZM613.4 258.58 656.17 317.73 656 244.89 613.25 185.71Z" stroke="#040000" stroke-width="1.9" stroke-miterlimit="10" fill="#060001"/><path d="M488.32 273 457.07 176.89 488.02 133.95 519.28 230.06 488.32 273Z" stroke="#040000" stroke-width="1.9" stroke-miterlimit="10" fill="#EE0000" fill-rule="evenodd"/><path d="M488.32 276.8C488.12 276.814 487.92 276.814 487.72 276.8 486.309 276.577 485.147 275.573 484.72 274.21L453.48 178.11C453.099 176.959 453.293 175.695 454 174.71L484.94 131.76C485.819 130.642 487.217 130.062 488.63 130.23 490.037 130.454 491.198 131.452 491.63 132.81L522.89 228.92C523.271 230.071 523.077 231.335 522.37 232.32L491.37 275.32C490.636 276.257 489.51 276.803 488.32 276.8ZM461.32 177.55 489.64 264.7 515.09 229.4 486.76 142.25Z" stroke="#040000" stroke-width="1.9" stroke-miterlimit="10" fill="#060001"/><path d="M503.32 112.74 534.19 69.86 584.54 139.5 553.64 182.36 503.32 112.74Z" stroke="#040000" stroke-width="1.9" stroke-miterlimit="10" fill="#EE0000" fill-rule="evenodd"/><path d="M553.64 186.16C552.421 186.162 551.277 185.573 550.57 184.58L500.24 115C499.285 113.667 499.285 111.873 500.24 110.54L531.1 67.63C531.819 66.6401 532.967 66.053 534.19 66.05L534.19 66.05C535.41 66.05 537.98 66.2 538.69 67.19L587.62 137.27C588.584 138.6 588.584 140.4 587.62 141.73L556.72 184.58C556.006 185.57 554.86 186.157 553.64 186.16ZM508 112.74 553.63 175.87 579.84 139.5 534.19 76.36Z" stroke="#040000" stroke-width="1.9" stroke-miterlimit="10" fill="#060001"/><path d="M519.28 230.06 488.02 133.95 503.32 112.74 553.64 182.36 519.28 230.06Z" stroke="#040000" stroke-width="1.9" stroke-miterlimit="10" fill="#EE0000" fill-rule="evenodd"/><path d="M519.28 233.86C519.082 233.858 518.885 233.841 518.69 233.81 517.284 233.584 516.124 232.587 515.69 231.23L484.43 135.12C484.059 133.968 484.252 132.709 484.95 131.72L500.25 110.51C501.607 108.809 504.086 108.53 505.787 109.887 506.017 110.071 506.226 110.28 506.41 110.51L556.74 180.13C557.696 181.459 557.696 183.251 556.74 184.58L522.38 232.28C521.662 233.275 520.508 233.863 519.28 233.86ZM492.28 134.6 520.61 221.75 549 182.36 503.37 119.23Z" stroke="#040000" stroke-width="1.9" stroke-miterlimit="10" fill="#060001"/><path d="M331.19 445.62 409.18 502.28 451.57 471.45 421.76 379.8 331.19 445.62Z" stroke="#040000" stroke-width="1.9" stroke-miterlimit="10" fill="#006600" fill-rule="evenodd"/><path d="M451.57 471.45 533.18 412.17 503.38 320.52 421.76 379.8 451.57 471.45Z" stroke="#040000" stroke-width="1.9" stroke-miterlimit="10" fill="#006600" fill-rule="evenodd"/><path d="M451.57 475.26C451.168 475.264 450.768 475.196 450.39 475.06 449.235 474.691 448.329 473.785 447.96 472.63L418.15 381C417.634 379.435 418.198 377.716 419.54 376.76L501.15 317.48C502.123 316.747 503.397 316.544 504.55 316.94 505.709 317.313 506.617 318.221 506.99 319.38L536.79 411C537.303 412.566 536.745 414.284 535.41 415.25L453.79 474.53C453.144 474.999 452.368 475.254 451.57 475.26ZM426.23 381.26 453.57 465.31 528.71 410.72 501.37 326.67Z" stroke="#040000" stroke-width="1.9" stroke-miterlimit="10" fill="#060001"/><path d="M410.29 503.38 332.3 446.72 250.75 505.97 328.75 562.6 410.29 503.38Z" stroke="#040000" stroke-width="1.9" stroke-miterlimit="10" fill="#006600" fill-rule="evenodd"/><path d="M327.64 565.3C326.841 565.307 326.062 565.055 325.42 564.58L247.42 507.94C245.722 506.726 245.329 504.365 246.543 502.667 246.785 502.328 247.082 502.032 247.42 501.79L329 442.54C330.322 441.562 332.128 441.562 333.45 442.54L411.45 499.21C413.148 500.424 413.541 502.785 412.327 504.483 412.085 504.822 411.788 505.118 411.45 505.36L329.91 564.58C329.254 565.064 328.455 565.318 327.64 565.3ZM256.13 504.87 327.64 556.81 402.71 502.28 331.19 450.28Z" stroke="#040000" stroke-width="1.9" stroke-miterlimit="10" fill="#060001"/><path d="M241.74 380.9 210.57 476.77 250.75 505.97 332.3 446.72 241.74 380.9Z" stroke="#040000" stroke-width="1.9" stroke-miterlimit="10" fill="#006600" fill-rule="evenodd"/><path d="M421.76 379.8 503.38 320.52 488.02 273.3 387.19 273.3 421.76 379.8Z" stroke="#040000" stroke-width="1.9" stroke-miterlimit="10" fill="#006600" fill-rule="evenodd"/><path d="M276.33 274.4 175.69 274.4 160.32 321.74 241.74 380.9 276.33 274.4Z" stroke="#040000" stroke-width="1.9" stroke-miterlimit="10" fill="#006600" fill-rule="evenodd"/><path d="M160.32 321.74 129.17 417.61 210.57 476.77 241.74 380.9 160.32 321.74Z" stroke="#040000" stroke-width="1.9" stroke-miterlimit="10" fill="#006600" fill-rule="evenodd"/><path d="M488.02 273.3 456.94 177.61 356.08 177.61 387.19 273.3 488.02 273.3Z" stroke="#040000" stroke-width="1.9" stroke-miterlimit="10" fill="#006600" fill-rule="evenodd"/><path d="M307.42 178.71 206.8 178.71 175.69 274.4 276.33 274.4 307.42 178.71Z" stroke="#040000" stroke-width="1.9" stroke-miterlimit="10" fill="#006600" fill-rule="evenodd"/><path d="M388.3 274.4 357.18 178.71 307.42 178.71 276.33 274.4 388.3 274.4Z" stroke="#040000" stroke-width="1.9" stroke-miterlimit="10" fill="#006600" fill-rule="evenodd"/><path d="M408.89 556.57C382.337 575.73 355.847 594.847 329.42 613.92 329.68 623.04 329.99 632.1 330.29 641.13 356.837 632.463 383.347 623.84 409.82 615.26 409.64 605.61 409.51 595.81 409.35 586.09 409.19 576.37 409 566.43 408.89 556.57Z" stroke="#040000" stroke-width="1.9" stroke-miterlimit="10" fill="#EEE8AA" fill-rule="evenodd"/><path d="M330.29 644.93C329.509 644.922 328.748 644.686 328.1 644.25 327.124 643.557 326.528 642.447 326.49 641.25L326.32 636.17C326.073 628.837 325.84 621.457 325.62 614.03 325.599 612.771 326.188 611.579 327.2 610.83L406.66 553.48C407.82 552.67 409.328 552.551 410.6 553.17 411.866 553.815 412.671 555.109 412.69 556.53L413.62 615.19C413.648 616.861 412.586 618.355 411 618.88 391 625.34 371.027 631.83 351.08 638.35L331.46 644.74C331.083 644.867 330.688 644.931 330.29 644.93ZM333.29 615.82C333.483 622.547 333.697 629.247 333.93 635.92L333.93 635.92 348.72 631.11C367.827 624.89 386.913 618.683 405.98 612.49L405.2 563.9Z" stroke="#040000" stroke-width="1.9" stroke-miterlimit="10" fill="#211613"/><path d="M330.29 641.13C330.85 658.383 331.373 675.56 331.86 692.66 358.18 684.073 384.437 675.51 410.63 666.97 410.39 649.83 410.08 632.6 409.82 615.26 383.333 623.84 356.823 632.463 330.29 641.13Z" stroke="#040000" stroke-width="1.9" stroke-miterlimit="10" fill="#EEE8AA" fill-rule="evenodd"/><path d="M331.86 696.46C329.806 696.445 328.13 694.813 328.06 692.76 327.58 675.673 327.057 658.503 326.49 641.25 326.428 639.56 327.499 638.035 329.11 637.52L348.75 631.12C368.75 624.613 388.717 618.12 408.65 611.64 410.641 610.977 412.793 612.054 413.456 614.045 413.58 614.418 413.645 614.807 413.65 615.2L414.46 666.91C414.496 668.579 413.424 670.072 411.83 670.57L333 696.27C332.633 696.395 332.248 696.459 331.86 696.46ZM334.18 643.86C334.647 658.46 335.09 672.993 335.51 687.46L406.78 664.22 406.1 620.46C387.767 626.4 369.433 632.363 351.1 638.35Z" stroke="#040000" stroke-width="1.9" stroke-miterlimit="10" fill="#060001"/><path d="M501.71 585.38C520.757 559.72 539.933 533.9 559.24 507.92L530.82 498.66C521.31 495.57 511.68 492.48 502.1 489.33L455.4 523C439.913 534.2 424.41 545.387 408.89 556.56 409.02 566.42 409.2 576.28 409.35 586.08 409.5 595.88 409.64 605.6 409.82 615.25 440.473 605.303 471.103 595.347 501.71 585.38Z" stroke="#040000" stroke-width="1.9" stroke-miterlimit="10" fill="#EEE8AA" fill-rule="evenodd"/><path d="M409.82 619.06C407.748 619.06 406.058 617.401 406.02 615.33L405.09 556.62C405.076 555.381 405.661 554.212 406.66 553.48 422.18 542.32 437.683 531.14 453.17 519.94L499.87 486.24C500.86 485.528 502.133 485.334 503.29 485.72L560.43 504.32C562.425 504.971 563.514 507.117 562.863 509.112 562.736 509.503 562.545 509.87 562.3 510.2L504.77 587.65C504.291 588.279 503.637 588.752 502.89 589.01L411 618.87C410.62 618.997 410.221 619.061 409.82 619.06ZM412.72 558.5 413.54 610.05 499.38 582.14 553 509.9 502.72 493.55 457.62 526.1C442.673 536.9 427.707 547.7 412.72 558.5Z" stroke="#040000" stroke-width="1.9" stroke-miterlimit="10" fill="#040000"/><path d="M329.42 613.92C355.86 594.893 382.35 575.777 408.89 556.57 408.623 538.69 408.36 520.69 408.1 502.57 381.22 522.023 354.44 541.417 327.76 560.75 328.313 578.617 328.867 596.34 329.42 613.92Z" stroke="#040000" stroke-width="1.9" stroke-miterlimit="10" fill="#EEE8AA" fill-rule="evenodd"/><path d="M329.43 617.72C328.849 617.719 328.275 617.589 327.75 617.34 326.489 616.714 325.671 615.447 325.62 614.04L324 560.85C323.96 559.589 324.553 558.392 325.58 557.66L405.91 499.48C407.61 498.259 409.978 498.647 411.199 500.348 411.646 500.97 411.894 501.714 411.91 502.48L412.7 556.48C412.716 557.724 412.127 558.899 411.12 559.63L331.65 617C331.005 617.469 330.228 617.722 329.43 617.72ZM331.62 562.63 333 606.63 405.06 554.63 404.4 509.88Z" stroke="#040000" stroke-width="1.9" stroke-miterlimit="10" fill="#060001"/><path d="M502.1 489.33C484.7 483.69 467.23 478.047 449.69 472.4 435.81 482.473 421.947 492.523 408.1 502.55 408.34 520.69 408.603 538.69 408.89 556.55 424.41 545.39 439.913 534.207 455.4 523Z" stroke="#040000" stroke-width="1.9" stroke-miterlimit="10" fill="#EEE8AA" fill-rule="evenodd"/><path d="M408.89 560.37C406.81 560.381 405.112 558.71 405.09 556.63L404.3 502.63C404.279 501.398 404.866 500.235 405.87 499.52L447.47 469.37C448.452 468.677 449.699 468.474 450.85 468.82 466.977 473.973 483 479.147 498.92 484.34L503.27 485.76C505.268 486.402 506.367 488.542 505.725 490.54 505.477 491.313 504.988 491.986 504.33 492.46L457.62 526.1C442.14 537.3 426.637 548.487 411.11 559.66 410.464 560.126 409.687 560.374 408.89 560.37ZM411.89 504.47 412.54 549.24C426.073 539.48 439.603 529.713 453.13 519.94L493.76 490.64C479.347 485.973 464.867 481.307 450.32 476.64Z" stroke="#040000" stroke-width="1.9" stroke-miterlimit="10" fill="#060001"/><path d="M409.82 615.26C410.08 632.6 410.39 649.83 410.63 666.97 424.077 662.537 437.523 658.14 450.97 653.78 467.81 631.113 484.723 608.313 501.71 585.38 471.143 595.3 440.513 605.26 409.82 615.26Z" stroke="#040000" stroke-width="1.9" stroke-miterlimit="10" fill="#EEE8AA" fill-rule="evenodd"/><path d="M410.62 670.77C408.545 670.77 406.853 669.105 406.82 667.03L406.02 615.32C405.99 613.65 407.059 612.158 408.65 611.65L500.54 581.76C502.546 581.124 504.687 582.235 505.323 584.241 505.691 585.402 505.482 586.669 504.76 587.65L454 656.05C453.528 656.681 452.871 657.15 452.12 657.39 438.693 661.75 425.247 666.143 411.78 670.57 411.408 670.703 411.015 670.771 410.62 670.77ZM413.67 618 414.35 661.73C425.79 657.97 437.22 654.237 448.64 650.53L491.57 592.66Z" stroke="#040000" stroke-width="1.9" stroke-miterlimit="10" fill="#060001"/><path d="M559.24 507.92C576.7 484.4 594.263 460.733 611.93 436.92 603.51 434.07 595.06 431.19 586.59 428.37 558.37 448.69 530.207 469.003 502.1 489.31 511.68 492.46 521.31 495.55 530.82 498.64Z" stroke="#040000" stroke-width="1.9" stroke-miterlimit="10" fill="#EEE8AA" fill-rule="evenodd"/><path d="M559.24 511.73C558.835 511.732 558.432 511.664 558.05 511.53L500.91 492.94C498.918 492.263 497.851 490.099 498.528 488.107 498.783 487.356 499.266 486.703 499.91 486.24L584.41 425.3C585.398 424.573 586.681 424.379 587.84 424.78 594.34 426.947 600.833 429.133 607.32 431.34L613.19 433.34C614.344 433.718 615.241 434.637 615.59 435.8 615.956 436.955 615.748 438.214 615.03 439.19L562.34 510.19C561.609 511.165 560.459 511.736 559.24 511.73ZM510.4 488 557.82 503.43 605.77 438.83 604.83 438.51C598.983 436.51 593.117 434.53 587.23 432.57Z" stroke="#040000" stroke-width="1.9" stroke-miterlimit="10" fill="#060001"/><path d="M586.59 428.39C569.397 422.51 552.1 416.65 534.7 410.81 506.287 431.39 477.953 451.92 449.7 472.4 467.3 478.02 484.77 483.663 502.11 489.33 530.203 469.11 558.363 448.797 586.59 428.39Z" stroke="#040000" stroke-width="1.9" stroke-miterlimit="10" fill="#EEE8AA" fill-rule="evenodd"/><path d="M451 653.78C478.253 644.84 505.48 635.96 532.68 627.14 549.68 604.473 566.83 581.623 584.13 558.59L501.74 585.38C484.74 608.247 467.827 631.047 451 653.78Z" stroke="#040000" stroke-width="1.9" stroke-miterlimit="10" fill="#1B1B1B" fill-rule="evenodd"/><path d="M451 657.58C448.901 657.587 447.194 655.891 447.187 653.793 447.185 652.97 447.449 652.169 447.94 651.51L498.68 583.11C499.159 582.481 499.818 582.014 500.57 581.77L582.93 555C584.503 554.462 586.242 555.034 587.19 556.4 588.156 557.751 588.135 559.571 587.14 560.9 569.873 583.86 552.723 606.71 535.69 629.45 535.214 630.068 534.562 630.528 533.82 630.77 506.66 639.59 479.44 648.463 452.16 657.39 451.786 657.514 451.394 657.578 451 657.58ZM504.08 588.58 461.17 646.4C484.27 638.847 507.333 631.333 530.36 623.86 544.747 604.653 559.243 585.32 573.85 565.86Z" stroke="#040000" stroke-width="1.9" stroke-miterlimit="10" fill="#060001"/><path d="M609.84 524.32C627.27 501.06 644.84 477.57 662.48 454.08 645.74 448.41 628.87 442.64 611.93 436.94 594.27 460.76 576.707 484.427 559.24 507.94 576.18 513.46 593.047 518.92 609.84 524.32Z" stroke="#040000" stroke-width="1.9" stroke-miterlimit="10" fill="#1B1B1B" fill-rule="evenodd"/><path d="M609.84 528.12C609.44 528.119 609.042 528.059 608.66 527.94L596.5 524C583.733 519.873 570.923 515.713 558.07 511.52 556.904 511.149 555.991 510.236 555.62 509.07 555.247 507.903 555.455 506.628 556.18 505.64L608.87 434.64C609.861 433.321 611.579 432.775 613.15 433.28 624.31 437.04 635.437 440.813 646.53 444.6L663.7 450.44C664.851 450.83 665.749 451.742 666.12 452.9 666.471 454.071 666.249 455.339 665.52 456.32L612.88 526.56C612.167 527.527 611.042 528.104 609.84 528.12ZM565.45 506C576.617 509.62 587.743 513.223 598.83 516.81L608.42 519.91 656.29 456 644.08 451.85C633.86 448.377 623.613 444.903 613.34 441.43Z" stroke="#040000" stroke-width="1.9" stroke-miterlimit="10" fill="#060001"/><path d="M501.71 585.38 584.1 558.59C592.647 547.19 601.227 535.767 609.84 524.32 593.04 518.88 576.173 513.413 559.24 507.92 539.94 533.973 520.763 559.793 501.71 585.38Z" stroke="#040000" stroke-width="1.9" stroke-miterlimit="10" fill="#1B1B1B" fill-rule="evenodd"/><path d="M501.71 589.18C500.483 589.185 499.33 588.591 498.62 587.59 497.649 586.254 497.649 584.446 498.62 583.11L556.15 505.65C557.121 504.334 558.831 503.796 560.38 504.32 573.173 508.473 585.917 512.6 598.61 516.7L610.98 520.7C612.984 521.359 614.074 523.519 613.415 525.523 613.286 525.913 613.096 526.28 612.85 526.61L587.11 560.88C586.638 561.502 585.984 561.963 585.24 562.2L502.89 589C502.509 589.123 502.11 589.184 501.71 589.18ZM560.71 512.38 511.91 578.08 581.82 555.36 603.64 526.29 596.35 523.93C584.477 520.103 572.583 516.253 560.67 512.38Z" stroke="#040000" stroke-width="1.9" stroke-miterlimit="10" fill="#060001"/><path d="M160 492.72C133.78 473.707 107.347 454.58 80.7 435.34 72.18 438.34 63.62 441.25 55.1 444.22 72.0133 466.74 88.85 489.143 105.61 511.43 114.67 508.34 123.74 505.19 132.77 502.1 141.8 499.01 150.9 495.87 160 492.72Z" stroke="#040000" stroke-width="1.9" stroke-miterlimit="10" fill="#88DDFF" fill-rule="evenodd"/><path d="M105.61 515.23C104.432 515.212 103.326 514.656 102.61 513.72L52 446.51C50.7385 444.826 51.0811 442.438 52.7652 441.176 53.0769 440.943 53.4225 440.759 53.79 440.63L79.39 431.75C80.5631 431.35 81.857 431.536 82.87 432.25 109.537 451.51 135.97 470.64 162.17 489.64 163.868 490.873 164.246 493.249 163.013 494.947 162.554 495.581 161.91 496.056 161.17 496.31L106.84 515C106.447 515.15 106.03 515.228 105.61 515.23ZM61.24 446.1 107 506.94 151.82 491.52C128.067 474.293 104.127 456.983 80 439.59Z" stroke="#040000" stroke-width="1.9" stroke-miterlimit="10" fill="#060001"/><path d="M55.06 444.22C38.6067 449.887 22.1333 455.553 5.64 461.22 22.8067 483.7 39.8233 506.033 56.69 528.22 73.0033 522.64 89.31 517.037 105.61 511.41 88.87 489.137 72.02 466.74 55.06 444.22Z" stroke="#040000" stroke-width="1.9" stroke-miterlimit="10" fill="#88DDFF" fill-rule="evenodd"/><path d="M56.69 532C55.5115 531.992 54.4033 531.438 53.69 530.5L2.69 463.5C1.5163 461.639 0.927618 459.469 1 457.27 1 455.89 0.91 455.91 1.77 455.65 14.37 451.89 29.34 449.09 41.77 444.8L53.87 440.63C55.4278 440.099 57.1509 440.622 58.15 441.93L108.69 509.14C109.954 510.808 109.626 513.186 107.958 514.45 107.632 514.697 107.268 514.889 106.88 515.02L57.93 531.83C57.5302 531.961 57.1102 532.018 56.69 532ZM11.86 463.12 58.06 523.75 99.43 509.53 53.68 448.72 44.22 452C33.44 455.7 22.6533 459.407 11.86 463.12Z" stroke="#040000" stroke-width="1.9" stroke-miterlimit="10" fill="#060001"/><path d="M163 587.76C192.567 597.173 222.01 606.557 251.33 615.91 251.15 606.35 250.88 596.73 250.73 587.08 250.58 577.43 250.32 567.74 250.14 558 235.26 547.253 220.33 536.443 205.35 525.57L160 492.72C150.94 495.87 141.85 498.96 132.81 502.1 123.77 505.24 114.71 508.34 105.65 511.43 124.903 537.09 144.02 562.533 163 587.76Z" stroke="#040000" stroke-width="1.9" stroke-miterlimit="10" fill="#88DDFF" fill-rule="evenodd"/><path d="M251.32 619.71C250.927 619.713 250.536 619.656 250.16 619.54 227.02 612.127 203.81 604.727 180.53 597.34L161.83 591.34C161.079 591.095 160.42 590.627 159.94 590L102.57 513.68C101.306 512.012 101.634 509.634 103.302 508.37 103.628 508.123 103.992 507.931 104.38 507.8L158.71 489.09C159.885 488.698 161.177 488.887 162.19 489.6L252.36 554.87C253.315 555.577 253.894 556.682 253.93 557.87L254.52 586.95C254.613 592.523 254.73 598.073 254.87 603.6L255.12 615.79C255.137 617.014 254.568 618.173 253.59 618.91 252.94 619.416 252.143 619.697 251.32 619.71ZM165.32 584.51 182.86 590.09C204.447 596.95 225.97 603.81 247.43 610.67L247.29 603.83C247.163 598.27 247.05 592.703 246.95 587.13L246.37 560 159.37 497 111.82 513.38Z" stroke="#040000" stroke-width="1.9" stroke-miterlimit="10" fill="#060001"/><path d="M80.66 435.34C107.327 454.58 133.76 473.707 159.96 492.72 176.33 487.1 192.64 481.49 208.96 475.85L130.06 418.23C113.653 423.97 97.1867 429.673 80.66 435.34Z" stroke="#040000" stroke-width="1.9" stroke-miterlimit="10" fill="#88DDFF" fill-rule="evenodd"/><path d="M160 496.52C159.198 496.519 158.417 496.263 157.77 495.79 131.55 476.777 105.117 457.657 78.47 438.43 77.3275 437.592 76.7394 436.193 76.94 434.79 77.1596 433.397 78.1343 432.242 79.47 431.79L82.36 430.79C97.93 425.41 113.43 420.08 128.9 414.68 130.079 414.279 131.379 414.472 132.39 415.2L211.29 472.82C212.986 474.046 213.368 476.415 212.142 478.112 211.681 478.749 211.034 479.227 210.29 479.48L161.24 496.35C160.839 496.477 160.42 496.534 160 496.52ZM88.87 436.52C112.957 453.953 136.867 471.277 160.6 488.49L200.89 474.62 129.47 422.48C115.957 427.187 102.41 431.873 88.83 436.54Z" stroke="#040000" stroke-width="1.9" stroke-miterlimit="10" fill="#060001"/><path d="M250.13 558C249.817 540.473 249.483 522.85 249.13 505.13 235.797 495.39 222.437 485.63 209.05 475.85 192.68 481.49 176.37 487.1 160.05 492.72L205.43 525.57C220.35 536.41 235.25 547.22 250.13 558Z" stroke="#040000" stroke-width="1.9" stroke-miterlimit="10" fill="#88DDFF" fill-rule="evenodd"/><path d="M250.13 561.8C249.331 561.8 248.552 561.552 247.9 561.09L157.73 495.79C156.034 494.564 155.652 492.195 156.878 490.498 157.339 489.861 157.986 489.383 158.73 489.13L207.78 472.26C208.952 471.859 210.247 472.053 211.25 472.78L251.33 502.06C252.285 502.766 252.86 503.873 252.89 505.06 253.263 522.76 253.597 540.38 253.89 557.92 253.922 559.354 253.15 560.685 251.89 561.37 251.344 561.646 250.742 561.793 250.13 561.8ZM168.13 493.94 246.19 550.45C245.93 536.07 245.643 521.617 245.33 507.09L208.33 480.09Z" stroke="#040000" stroke-width="1.9" stroke-miterlimit="10" fill="#060001"/><path d="M105.61 511.43C89.2833 517.037 72.9767 522.64 56.69 528.24 65.3567 539.573 73.98 550.907 82.56 562.24L163 587.76C144.033 562.513 124.903 537.07 105.61 511.43Z" stroke="#040000" stroke-width="1.9" stroke-miterlimit="10" fill="#88DDFF" fill-rule="evenodd"/><path d="M163 591.56C162.606 591.559 162.215 591.498 161.84 591.38L81.4 565.81C80.6581 565.568 80.0064 565.108 79.53 564.49L53.67 530.49C52.9335 529.52 52.7067 528.256 53.06 527.09 53.4052 525.918 54.3012 524.988 55.46 524.6L104.38 507.79C105.935 507.273 107.647 507.794 108.65 509.09L166 585.47C167.265 587.145 166.932 589.528 165.258 590.792 164.607 591.284 163.815 591.553 163 591.56ZM84.86 558.93 152.8 580.53 104.23 515.93 62.92 530.13Z" stroke="#040000" stroke-width="1.9" stroke-miterlimit="10" fill="#060001"/><path d="M251.32 615.91C277.56 624.23 303.693 632.563 329.72 640.91 329.647 632.477 329.573 624.003 329.5 615.49L250.13 558C250.31 567.74 250.54 577.45 250.72 587.08 250.9 596.71 251.14 606.35 251.32 615.91Z" stroke="#040000" stroke-width="1.9" stroke-miterlimit="10" fill="#88DDFF" fill-rule="evenodd"/><path d="M329.72 644.66C329.327 644.657 328.936 644.597 328.56 644.48 302.493 636.167 276.363 627.853 250.17 619.54 248.613 619.051 247.542 617.622 247.51 615.99L247.26 603.83C247.133 598.27 247.02 592.703 246.92 587.13L246.33 558.07C246.312 555.966 248.003 554.246 250.107 554.228 250.902 554.221 251.68 554.463 252.33 554.92L331.7 612.36C332.668 613.055 333.25 614.168 333.27 615.36L333.49 640.78C333.512 642.873 331.833 644.588 329.74 644.61 329.723 644.61 329.707 644.61 329.69 644.61ZM255.06 613.11C278.74 620.617 302.347 628.13 325.88 635.65L325.71 617.4 254.08 565.56 254.52 587C254.613 592.573 254.73 598.123 254.87 603.65Z" stroke="#040000" stroke-width="1.9" stroke-miterlimit="10" fill="#060001"/><path d="M329.5 615.44C329.353 598.24 329.197 580.933 329.03 563.52 302.583 544.22 275.937 524.757 249.09 505.13 249.463 522.843 249.797 540.467 250.09 558Z" stroke="#040000" stroke-width="1.9" stroke-miterlimit="10" fill="#88DDFF" fill-rule="evenodd"/><path d="M329.5 619.24C328.697 619.244 327.915 618.988 327.27 618.51L247.9 561.07C246.933 560.373 246.351 559.262 246.33 558.07 246.01 540.55 245.677 522.93 245.33 505.21 245.296 503.762 246.092 502.422 247.38 501.76 248.666 501.112 250.205 501.227 251.38 502.06L331.32 560.45C332.272 561.158 332.848 562.264 332.88 563.45L333.35 615.38C333.361 616.811 332.564 618.127 331.29 618.78 330.743 619.086 330.126 619.244 329.5 619.24ZM253.9 556 325.62 607.9 325.24 565.43 253.05 512.7C253.35 527.22 253.633 541.653 253.9 556Z" stroke="#040000" stroke-width="1.9" stroke-miterlimit="10" fill="#060001"/><path d="M82.56 562.19C99.8933 584.943 117.08 607.513 134.12 629.9 160.727 638.307 187.19 646.64 213.51 654.9 196.803 632.68 179.967 610.3 163 587.76Z" stroke="#040000" stroke-width="1.9" stroke-miterlimit="10" fill="#88DDFF" fill-rule="evenodd"/><path d="M213.51 658.74C213.123 658.74 212.738 658.68 212.37 658.56L132.98 633.56C132.226 633.331 131.564 632.869 131.09 632.24 114.063 609.847 96.8767 587.277 79.53 564.53 78.5303 563.209 78.5019 561.392 79.46 560.04 80.4306 558.705 82.1383 558.128 83.72 558.6L164.15 584.17C164.898 584.417 165.553 584.884 166.03 585.51 183.01 608.05 199.85 630.443 216.55 652.69 217.815 654.365 217.482 656.748 215.808 658.013 215.157 658.504 214.365 658.773 213.55 658.78ZM136.42 626.63 203.35 647.75C189.23 628.943 175.01 610.027 160.69 591L92.88 569.46C107.513 588.647 122.027 607.703 136.42 626.63Z" stroke="#040000" stroke-width="1.9" stroke-miterlimit="10" fill="#060001"/><path d="M252.33 667.17C278.33 675.31 304.277 683.47 330.17 691.65 330.05 674.78 329.89 657.88 329.72 640.86 303.647 632.547 277.513 624.213 251.32 615.86 251.66 633.033 251.997 650.137 252.33 667.17Z" stroke="#040000" stroke-width="1.9" stroke-miterlimit="10" fill="#88DDFF" fill-rule="evenodd"/><path d="M329.89 695.39C329.5 695.39 331.28 696.45 330.89 696.39L321.31 692.93C297.937 685.597 274.467 678.217 250.9 670.79 249.331 670.313 248.249 668.879 248.22 667.24L247.22 615.98C247.197 614.754 247.766 613.592 248.75 612.86 249.714 612.09 251.006 611.871 252.17 612.28 278.423 620.6 304.563 628.917 330.59 637.23 332.151 637.734 333.215 639.18 333.23 640.82L333.23 642.1C333.39 658.687 333.533 675.19 333.66 691.61 333.667 692.829 333.091 693.977 332.11 694.7 331.462 695.159 330.684 695.401 329.89 695.39ZM255.79 664.31C278.457 671.39 301.067 678.5 323.62 685.64L326.04 686.39C325.94 672.17 325.817 657.907 325.67 643.6 302.13 636.08 278.553 628.573 254.94 621.08Z" stroke="#040000" stroke-width="1.9" stroke-miterlimit="10" fill="#060001"/><path d="M163 587.76C179.967 610.3 196.807 632.693 213.52 654.94 226.52 659.04 239.43 663.08 252.34 667.17 252.007 650.13 251.673 633.043 251.34 615.91 222 606.53 192.553 597.147 163 587.76Z" stroke="#040000" stroke-width="1.9" stroke-miterlimit="10" fill="#88DDFF" fill-rule="evenodd"/><path d="M252.33 671C251.94 671 251.552 670.94 251.18 670.82L212.37 658.58C211.613 658.34 210.947 657.876 210.46 657.25 193.76 634.99 176.92 612.573 159.94 590 158.954 588.675 158.934 586.866 159.89 585.52 160.858 584.181 162.57 583.606 164.15 584.09L182.96 590.09C206.2 597.497 229.37 604.887 252.47 612.26 254.023 612.753 255.089 614.181 255.12 615.81L256.12 667.07C256.153 669.18 254.47 670.916 252.361 670.95 252.347 670.95 252.334 670.95 252.32 670.95ZM215.81 651.71 248.42 662 247.57 618.74C225.33 611.58 203.023 604.457 180.65 597.37L173.19 595C187.49 614 201.697 632.897 215.81 651.69Z" stroke="#040000" stroke-width="1.9" stroke-miterlimit="10" fill="#060001"/><path d="M144.46 228.39C154.54 197.39 164.613 166.287 174.68 135.08 169.36 127.68 164.03 120.28 158.68 112.95 142.627 135.67 126.593 158.337 110.58 180.95 116.2 188.88 121.88 196.81 127.5 204.68 133.12 212.55 138.83 220.49 144.46 228.39Z" stroke="#040000" stroke-width="1.9" stroke-miterlimit="10" fill="#A83DD9" fill-rule="evenodd"/><path d="M144.46 232.19C143.228 232.191 142.071 231.599 141.35 230.6L107.48 183.13C106.541 181.813 106.541 180.047 107.48 178.73L155.58 110.73C156.291 109.739 157.431 109.146 158.65 109.13 159.65 108.77 161.03 109.69 161.76 110.69 167.093 118.023 172.427 125.407 177.76 132.84 178.466 133.821 178.666 135.078 178.3 136.23L174.3 148.57C165.56 175.63 156.817 202.63 148.07 229.57 147.63 230.923 146.473 231.917 145.07 232.15 144.868 232.179 144.664 232.193 144.46 232.19ZM115.25 180.93 143.16 220.05C151.16 195.51 159.13 170.907 167.07 146.24L170.47 135.73C166.57 130.31 162.65 124.87 158.73 119.47Z" stroke="#040000" stroke-width="1.9" stroke-miterlimit="10" fill="#211613"/><path d="M158.68 113C148.5 98.8 138.32 84.5733 128.14 70.32 112.14 93.19 96.14 115.82 80.22 138.45 90.3133 152.617 100.433 166.793 110.58 180.98 126.593 158.327 142.627 135.667 158.68 113Z" stroke="#040000" stroke-width="1.9" stroke-miterlimit="10" fill="#A83DD9" fill-rule="evenodd"/><path d="M110.58 184.73C109.356 184.733 108.207 184.14 107.5 183.14L77.13 140.61C76.1901 139.298 76.1901 137.532 77.13 136.22L125 68.09C125.709 67.0783 126.865 66.4741 128.1 66.47L128.1 66.47C129.326 66.4704 130.477 67.0625 131.19 68.06 141.363 82.3133 151.543 96.54 161.73 110.74 162.67 112.06 162.67 113.83 161.73 115.15L113.63 183.15C112.916 184.147 111.767 184.742 110.54 184.75ZM84.88 138.39 110.57 174.39 154 113C145.367 101 136.75 88.9633 128.15 76.89Z" stroke="#040000" stroke-width="1.9" stroke-miterlimit="10" fill="#060001"/><path d="M55.12 259.28C54.9067 291.153 54.6833 323.05 54.45 354.97 63.58 351.88 72.76 348.73 81.93 345.68 91.1 342.63 100.32 339.41 109.53 336.32 115.37 318.38 121.187 300.423 126.98 282.45 132.773 264.477 138.6 246.457 144.46 228.39 138.83 220.49 133.14 212.56 127.46 204.66 121.78 196.76 116.16 188.86 110.54 180.93 92.04 207.13 73.5667 233.247 55.12 259.28Z" stroke="#040000" stroke-width="1.9" stroke-miterlimit="10" fill="#A83DD9" fill-rule="evenodd"/><path d="M54.45 358.77C53.6501 358.766 52.8711 358.515 52.22 358.05 51.2256 357.327 50.641 356.169 50.65 354.94 50.9033 322.987 51.1267 291.09 51.32 259.25 51.3251 258.472 51.5695 257.714 52.02 257.08L107.48 178.73C108.82 177.015 111.296 176.711 113.01 178.05 113.264 178.248 113.492 178.477 113.69 178.73L147.56 226.18C148.244 227.163 148.436 228.407 148.08 229.55 142.347 247.397 136.6 265.173 130.84 282.88 124.84 301.62 118.99 319.55 113.14 337.49 112.77 338.64 111.876 339.546 110.73 339.93L97.81 344.31C92.9033 345.99 88.01 347.657 83.13 349.31 77.13 351.31 71.13 353.31 65.13 355.39L55.64 358.61C55.254 358.725 54.8526 358.779 54.45 358.77ZM58.91 260.5C58.71 290.2 58.5067 319.92 58.3 349.66L62.71 348.16C68.71 346.16 74.71 344.07 80.71 342.07 85.57 340.45 90.45 338.783 95.35 337.07L106.49 333.3C112.13 315.967 117.75 298.61 123.35 281.23 129.14 263.43 134.71 246.23 140.24 229.01L110.6 187.5Z" stroke="#040000" stroke-width="1.9" stroke-miterlimit="10" fill="#060001"/><path d="M174.68 135.08C164.593 166.26 154.52 197.363 144.46 228.39 154.67 242.77 164.92 257.05 175.14 271.39L205.49 177.92C195.18 163.68 184.91 149.33 174.68 135.08Z" stroke="#040000" stroke-width="1.9" stroke-miterlimit="10" fill="#A83DD9" fill-rule="evenodd"/><path d="M175.14 275.2C173.908 275.201 172.751 274.609 172.03 273.61L141.35 230.61C140.649 229.633 140.462 228.378 140.85 227.24 149.57 200.387 158.287 173.47 167 146.49L171.05 133.92C171.722 131.926 173.883 130.854 175.877 131.525 176.635 131.781 177.294 132.269 177.76 132.92L183.07 140.3C191.55 152.11 200.07 163.97 208.56 175.76 209.28 176.743 209.482 178.013 209.1 179.17L178.75 272.63C178.314 273.985 177.155 274.982 175.75 275.21 175.547 275.223 175.343 275.219 175.14 275.2ZM148.66 227.74 173.84 263.05 201.27 178.6C193.09 167.313 184.963 156.003 176.89 144.67L175.98 143.41 174.23 148.8C165.71 175.167 157.187 201.48 148.66 227.74Z" stroke="#040000" stroke-width="1.9" stroke-miterlimit="10" fill="#060001"/><path d="M109.53 336.32C126.157 330.74 142.823 325.107 159.53 319.42 164.743 303.42 169.947 287.42 175.14 271.42 164.92 257.07 154.67 242.79 144.46 228.42 138.647 246.507 132.82 264.527 126.98 282.48 121.14 300.433 115.323 318.38 109.53 336.32Z" stroke="#040000" stroke-width="1.9" stroke-miterlimit="10" fill="#A83DD9" fill-rule="evenodd"/><path d="M109.53 340.12C107.431 340.122 105.728 338.423 105.726 336.324 105.725 335.915 105.791 335.508 105.92 335.12 111.74 317.18 117.553 299.22 123.36 281.24L123.65 280.34C129.377 262.713 135.103 245 140.83 227.2 141.265 225.842 142.423 224.842 143.83 224.61 145.248 224.416 146.658 225.01 147.51 226.16L178.19 269.16C178.884 270.139 179.077 271.387 178.71 272.53 173.51 288.53 168.303 304.53 163.09 320.53 162.725 321.671 161.843 322.571 160.71 322.96 143.99 328.66 127.323 334.297 110.71 339.87 110.333 340.016 109.934 340.101 109.53 340.12ZM145.76 236.77C140.82 252.137 135.86 267.45 130.88 282.71 125.6 299.09 120.53 314.71 115.48 330.31 129.127 325.723 142.793 321.1 156.48 316.44 161.313 301.66 166.123 286.863 170.91 272.05Z" stroke="#040000" stroke-width="1.9" stroke-miterlimit="10" fill="#060001"/><path d="M110.58 180.93C100.433 166.743 90.3133 152.567 80.22 138.4 72.0733 149.993 63.9033 161.577 55.71 173.15 55.52 201.9 55.34 230.56 55.12 259.28 73.5667 233.2 92.0533 207.083 110.58 180.93Z" stroke="#040000" stroke-width="1.9" stroke-miterlimit="10" fill="#A83DD9" fill-rule="evenodd"/><path d="M55.12 263.08C54.7399 263.075 54.3626 263.014 54 262.9 52.4199 262.389 51.3549 260.911 51.37 259.25L51.96 173.12C51.9695 172.343 52.2135 171.586 52.66 170.95 60.0267 160.563 67.36 150.143 74.66 139.69L77.11 136.22C77.8131 135.207 78.9671 134.602 80.2 134.6L80.2 134.6C81.4262 134.6 82.5769 135.193 83.29 136.19L113.65 178.72C114.59 180.04 114.59 181.81 113.65 183.13L58.22 261.48C57.5059 262.483 56.3512 263.079 55.12 263.08ZM59.5 174.37 59 247.21 105.92 181 80.25 145C73.3433 154.787 66.4267 164.577 59.5 174.37Z" stroke="#040000" stroke-width="1.9" stroke-miterlimit="10" fill="#060001"/><path d="M54.45 355C54.2567 383.627 54.0633 412.277 53.87 440.95 62.01 438.28 70.13 435.61 78.3 432.9 88.68 400.8 99.09 368.617 109.53 336.35 100.32 339.44 91.09 342.65 81.93 345.71 72.77 348.77 63.58 351.88 54.45 355Z" stroke="#040000" stroke-width="1.9" stroke-miterlimit="10" fill="#A83DD9" fill-rule="evenodd"/><path d="M53.87 444.72C51.7824 444.731 50.081 443.048 50.0697 440.96 50.0696 440.937 50.0697 440.913 50.07 440.89L50.65 354.94C50.67 353.322 51.7017 351.891 53.23 351.36L62.72 348.16C68.72 346.16 74.72 344.07 80.72 342.07 85.58 340.45 90.4567 338.783 95.35 337.07L108.35 332.67C109.71 332.248 111.191 332.597 112.22 333.58 113.258 334.578 113.644 336.075 113.22 337.45L81.92 434.05C81.5406 435.199 80.6392 436.101 79.49 436.48L55.06 444.48C54.6792 444.625 54.2772 444.706 53.87 444.72ZM58.24 357.72 57.7 435.67 75.27 429.89 103.59 342.37 97.81 344.37C92.9033 346.05 88.01 347.717 83.13 349.37 77.13 351.37 71.13 353.37 65.13 355.45Z" stroke="#040000" stroke-width="1.9" stroke-miterlimit="10" fill="#060001"/><path d="M78.3 432.87C94.86 427.443 111.447 421.95 128.06 416.39 138.553 384.143 149.043 351.81 159.53 319.39 142.817 325.09 126.15 330.723 109.53 336.29 99.1233 368.563 88.7133 400.757 78.3 432.87Z" stroke="#040000" stroke-width="1.9" stroke-miterlimit="10" fill="#A83DD9" fill-rule="evenodd"/><path d="M78.3 436.68C76.1958 436.68 74.4897 434.975 74.4894 432.871 74.4893 432.466 74.5537 432.064 74.68 431.68L105.91 335.13C106.285 333.979 107.182 333.074 108.33 332.69 124.943 327.11 141.61 321.483 158.33 315.81 160.308 315.126 162.466 316.176 163.15 318.155 163.42 318.936 163.427 319.784 163.17 320.57L131.7 417.57C131.334 418.719 130.443 419.625 129.3 420.01L119.87 423.14C106.377 427.633 92.9267 432.083 79.52 436.49 79.1278 436.625 78.7147 436.689 78.3 436.68ZM112.56 339.32 84.23 426.92C95.27 423.28 106.337 419.613 117.43 415.92L125.03 413.39 153.57 325.47C139.857 330.13 126.187 334.747 112.56 339.32Z" stroke="#040000" stroke-width="1.9" stroke-miterlimit="10" fill="#060001"/><path d="M55.71 173.15C39.19 196.643 22.6967 220.037 6.23 243.33 6.05667 271.957 5.85667 300.557 5.63 329.13 22.1033 305.943 38.6 282.66 55.12 259.28 55.34 230.56 55.52 201.9 55.71 173.15Z" stroke="#040000" stroke-width="1.9" stroke-miterlimit="10" fill="#A83DD9" fill-rule="evenodd"/><path d="M5.63 332.93C5.23038 332.933 4.83263 332.875 4.45 332.76 2.87233 332.24 1.8101 330.761 1.82 329.1 2.04667 300.527 2.25 271.927 2.43 243.3 2.4395 242.523 2.68348 241.766 3.13 241.13L5.82 237.32C21.38 215.28 36.9767 193.173 52.61 171 53.573 169.654 55.2881 169.075 56.87 169.56 58.458 170.064 59.5323 171.544 59.52 173.21L58.92 259.34C58.9149 260.118 58.6705 260.876 58.22 261.51 41.7133 284.843 25.2167 308.127 8.73 331.36 8.01048 332.353 6.85611 332.937 5.63 332.93ZM10 244.55C9.84667 268.743 9.68 292.92 9.5 317.08 23.4133 297.46 37.35 277.793 51.31 258.08L51.82 185.29C38.54 204.15 25.2667 222.957 12 241.71Z" stroke="#040000" stroke-width="1.9" stroke-miterlimit="10" fill="#060001"/><path d="M5.33 371.52C5.13667 400.12 4.95 428.66 4.77 457.14 21.07 451.807 37.4367 446.4 53.87 440.92 54.0833 412.293 54.2767 383.643 54.45 354.97 38 360.5 21.71 366 5.33 371.52Z" stroke="#040000" stroke-width="1.9" stroke-miterlimit="10" fill="#A83DD9" fill-rule="evenodd"/><path d="M4.76 460.94C2.66521 460.918 0.983346 459.205 1 457.11L1.57 371.49C1.58095 369.863 2.62633 368.424 4.17 367.91L53.27 351.36C55.2766 350.708 57.4315 351.807 58.0832 353.813 58.2077 354.196 58.2707 354.597 58.27 355L57.67 441C57.6575 442.623 56.6178 444.06 55.08 444.58 38.62 450.02 22.26 455.41 6 460.75 5.60068 460.884 5.18119 460.949 4.76 460.94ZM9.12 374.25 8.6 451.88C22.38 447.353 36.21 442.787 50.09 438.18L50.62 360.27Z" stroke="#040000" stroke-width="1.9" stroke-miterlimit="10" fill="#060001"/><path d="M55.12 259.28C38.6133 282.613 22.1167 305.897 5.63 329.13 5.51667 343.33 5.41667 357.46 5.33 371.52 21.71 366 38 360.5 54.45 355 54.7033 323 54.9267 291.093 55.12 259.28Z" stroke="#040000" stroke-width="1.9" stroke-miterlimit="10" fill="#A83DD9" fill-rule="evenodd"/><path d="M5.33 375.32C4.52871 375.315 3.74896 375.06 3.1 374.59 2.10193 373.875 1.51582 372.718 1.53 371.49L1.82 329.1C1.82838 328.326 2.07256 327.572 2.52 326.94 18.9933 303.74 35.4933 280.453 52.02 257.08 52.9903 255.744 54.7024 255.174 56.28 255.66 57.864 256.168 58.9337 257.647 58.92 259.31 58.71 291.61 58.51 323.31 58.25 355 58.2389 356.621 57.2039 358.057 55.67 358.58L6.53 375.12C6.14464 375.256 5.73858 375.323 5.33 375.32ZM9.41 330.32 9.17 366.18 50.67 352.18C50.89 325.173 51.08 298.21 51.24 271.29 37.2933 291.037 23.35 310.723 9.41 330.35Z" stroke="#040000" stroke-width="1.9" stroke-miterlimit="10" fill="#060001"/><path d="M389.79 134.45C422.357 134.45 454.923 134.45 487.49 134.45 492.983 127.03 498.457 119.617 503.91 112.21 477.577 103.803 451.243 95.3767 424.91 86.93 419.03 94.86 413.13 102.79 407.31 110.69 401.49 118.59 395.63 126.55 389.79 134.45Z" stroke="#040000" stroke-width="1.9" stroke-miterlimit="10" fill="#FFFFFF" fill-rule="evenodd"/><path d="M487.49 138.28 389.79 138.28C387.691 138.283 385.988 136.584 385.985 134.485 385.984 133.67 386.245 132.876 386.73 132.22L421.85 84.7C422.807 83.3719 424.517 82.8208 426.07 83.34 452.377 91.7667 478.71 100.19 505.07 108.61 506.233 108.99 507.146 109.899 507.53 111.06 507.911 112.226 507.702 113.505 506.97 114.49L490.55 136.74C489.833 137.711 488.697 138.283 487.49 138.28ZM397.32 130.65 485.57 130.65 497.7 114.21C473.9 106.643 450.113 99.0467 426.34 91.42Z" stroke="#040000" stroke-width="1.9" stroke-miterlimit="10" fill="#060001"/><path d="M503.91 112.24C514.47 97.98 525.05 83.7233 535.65 69.47 509.23 61 482.88 52.63 456.54 44.17L424.91 87C451.223 95.4133 477.557 103.827 503.91 112.24Z" stroke="#040000" stroke-width="1.9" stroke-miterlimit="10" fill="#FFFFFF" fill-rule="evenodd"/><path d="M503.91 116C503.517 115.997 503.126 115.937 502.75 115.82 476.417 107.42 450.083 98.9967 423.75 90.55 421.747 89.9064 420.644 87.7606 421.288 85.7572 421.415 85.3634 421.604 84.9928 421.85 84.66L453.48 41.87C454.435 40.5382 456.145 39.9829 457.7 40.5L536.8 65.81C538.796 66.44 539.904 68.5689 539.274 70.565 539.145 70.9736 538.947 71.3574 538.69 71.7 528.07 85.9867 517.507 100.25 507 114.49 506.273 115.461 505.123 116.023 503.91 116ZM431.12 85C454.887 92.62 478.67 100.227 502.47 107.82 511.437 95.72 520.42 83.6167 529.42 71.51L458 48.62Z" stroke="#040000" stroke-width="1.9" stroke-miterlimit="10" fill="#060001"/><path d="M333.14 57.59C302.52 67.3633 271.89 77.1333 241.25 86.9 247.05 94.83 252.93 102.76 258.74 110.66 264.55 118.56 270.43 126.52 276.26 134.42L332.97 134.42 389.79 134.42C395.63 126.52 401.47 118.61 407.31 110.69 413.13 102.79 419.03 94.86 424.91 86.93 394.303 77.1833 363.713 67.4033 333.14 57.59Z" stroke="#040000" stroke-width="1.9" stroke-miterlimit="10" fill="#FFFFFF" fill-rule="evenodd"/><path d="M389.79 138.25 276.26 138.25C275.055 138.244 273.923 137.674 273.2 136.71L238.2 89.18C236.968 87.4605 237.363 85.0679 239.083 83.836 239.4 83.6089 239.749 83.4315 240.12 83.31 261.54 76.4367 282.957 69.5967 304.37 62.79L332 54C332.755 53.7601 333.565 53.7601 334.32 54 365.17 63.89 395.62 73.64 426.09 83.37 428.089 84.0079 429.193 86.1459 428.555 88.1453 428.429 88.542 428.238 88.9152 427.99 89.25L392.87 136.74C392.139 137.701 390.997 138.26 389.79 138.25ZM278.18 130.62 387.87 130.62 418.69 89C390.15 79.88 361.633 70.75 333.14 61.61L306.69 70C286.943 76.3 267.197 82.5967 247.45 88.89Z" stroke="#040000" stroke-width="1.9" stroke-miterlimit="10" fill="#060001"/><path d="M487.49 134.48C454.91 134.48 422.343 134.48 389.79 134.48 379.19 148.74 368.633 162.987 358.12 177.22L455.83 177.22C466.397 163 476.95 148.753 487.49 134.48Z" stroke="#040000" stroke-width="1.9" stroke-miterlimit="10" fill="#FFFFFF" fill-rule="evenodd"/><path d="M455.83 181 358.12 181C356.021 181.003 354.318 179.304 354.315 177.205 354.314 176.39 354.575 175.596 355.06 174.94L386.75 132.19C387.453 131.236 388.565 130.669 389.75 130.66L389.75 130.66 487.45 130.66C489.549 130.657 491.252 132.356 491.255 134.455 491.256 135.27 490.995 136.064 490.51 136.72L479 152.33C472.293 161.39 465.58 170.433 458.86 179.46 458.153 180.427 457.028 180.999 455.83 181ZM365.66 173.4 453.91 173.4C460.25 164.893 466.583 156.363 472.91 147.81L479.96 138.29 391.73 138.29Z" stroke="#040000" stroke-width="1.9" stroke-miterlimit="10" fill="#060001"/><path d="M276.26 134.42C286.753 148.68 297.263 162.937 307.79 177.19L358.12 177.19C368.66 162.963 379.217 148.717 389.79 134.45L333 134.45Z" stroke="#040000" stroke-width="1.9" stroke-miterlimit="10" fill="#FFFFFF" fill-rule="evenodd"/><path d="M358.12 181 307.79 181C306.583 181.005 305.445 180.433 304.73 179.46 294.19 165.2 283.68 150.943 273.2 136.69 272.343 135.525 272.219 133.976 272.88 132.69 273.519 131.41 274.829 130.604 276.26 130.61L389.79 130.61C391.883 130.625 393.568 132.334 393.552 134.427 393.547 135.241 393.279 136.03 392.79 136.68L361.13 179.41C360.437 180.389 359.319 180.979 358.12 181ZM309.71 173.4 356.2 173.4 382.25 138.26 283.78 138.26C292.413 149.973 301.057 161.683 309.71 173.39Z" stroke="#040000" stroke-width="1.9" stroke-miterlimit="10" fill="#060001"/><path d="M424.91 87 456.54 44.21C443 39.8967 429.447 35.5633 415.88 31.21 388.28 40.03 360.7 48.84 333.14 57.64 363.713 67.4067 394.303 77.1933 424.91 87Z" stroke="#040000" stroke-width="1.9" stroke-miterlimit="10" fill="#FFFFFF" fill-rule="evenodd"/><path d="M424.91 90.76C424.517 90.7575 424.127 90.7002 423.75 90.59 393.13 80.81 362.547 71.0167 332 61.21 330.009 60.5463 328.933 58.3943 329.597 56.4033 329.975 55.2686 330.865 54.3782 332 54L414.74 27.56C415.498 27.32 416.312 27.32 417.07 27.56 430.6 31.93 444.18 36.27 457.72 40.56 458.874 40.9401 459.78 41.8456 460.16 43 460.539 44.1666 460.331 45.4447 459.6 46.43L428 89.22C427.277 90.1999 426.128 90.7729 424.91 90.76ZM345.61 57.59C371.557 65.91 397.51 74.2167 423.47 82.51L450.33 46.17C438.837 42.5233 427.353 38.8567 415.88 35.17Z" stroke="#040000" stroke-width="1.9" stroke-miterlimit="10" fill="#060001"/><path d="M241.25 86.9C213.75 95.72 186.227 104.513 158.68 113.28 163.9 120.28 169.05 127.35 174.25 134.39 208.25 134.39 242.25 134.39 276.25 134.39 270.42 126.49 264.52 118.53 258.73 110.63 252.94 102.73 247.05 94.83 241.25 86.9Z" stroke="#040000" stroke-width="1.9" stroke-miterlimit="10" fill="#FFFFFF" fill-rule="evenodd"/><path d="M276.26 138.22 174.26 138.22C173.054 138.218 171.92 137.648 171.2 136.68L155.63 115.56C154.382 113.873 154.738 111.493 156.425 110.245 156.76 109.998 157.133 109.807 157.53 109.68L240.1 83.31C241.66 82.7935 243.375 83.3528 244.33 84.69L279.33 132.2C280.578 133.88 280.228 136.254 278.548 137.502 277.889 137.992 277.09 138.254 276.27 138.25ZM176.16 130.59 268.74 130.59 239.81 91.36 164.89 115.28Z" stroke="#040000" stroke-width="1.9" stroke-miterlimit="10" fill="#060001"/><path d="M174.25 134.39C184.73 148.683 195.243 162.95 205.79 177.19L307.79 177.19C297.263 162.943 286.753 148.687 276.26 134.42 242.24 134.42 208.237 134.41 174.25 134.39Z" stroke="#040000" stroke-width="1.9" stroke-miterlimit="10" fill="#FFFFFF" fill-rule="evenodd"/><path d="M307.79 181 205.79 181C204.583 181.005 203.445 180.433 202.73 179.46 192.17 165.2 181.657 150.93 171.19 136.65 169.975 134.939 170.377 132.567 172.088 131.352 172.72 130.903 173.475 130.658 174.25 130.65L174.25 130.65 276.25 130.65C277.458 130.651 278.594 131.226 279.31 132.2 289.803 146.453 300.313 160.707 310.84 174.96 312.088 176.647 311.732 179.027 310.045 180.275 309.39 180.76 308.595 181.021 307.78 181.02ZM207.7 173.4 300.25 173.4C291.583 161.68 282.943 149.957 274.33 138.23L181.76 138.23C190.393 149.957 199.04 161.677 207.7 173.39Z" stroke="#040000" stroke-width="1.9" stroke-miterlimit="10" fill="#060001"/><path d="M415.88 31.16C388.34 22.3867 360.837 13.5833 333.37 4.75 305.79 13.5833 278.2 22.3867 250.6 31.16 278.087 39.98 305.6 48.79 333.14 57.59 360.72 48.7967 388.3 39.9867 415.88 31.16Z" stroke="#040000" stroke-width="1.9" stroke-miterlimit="10" fill="#FFFFFF" fill-rule="evenodd"/><path d="M333.14 61.39C332.746 61.3904 332.355 61.3297 331.98 61.21 304.447 52.4033 276.937 43.5933 249.45 34.78 247.448 34.1504 246.335 32.0171 246.965 30.0151 247.337 28.8304 248.265 27.9025 249.45 27.53L332.22 1.13C332.971 0.89029 333.779 0.89029 334.53 1.13L417 27.53C419.002 28.1777 420.1 30.3258 419.452 32.3278 419.076 33.4914 418.164 34.4035 417 34.78L334.3 61.21C333.924 61.3267 333.533 61.3874 333.14 61.39ZM263.08 31.17C286.413 38.6567 309.767 46.13 333.14 53.59L403.41 31.16 333.41 8.75Z" stroke="#040000" stroke-width="1.9" stroke-miterlimit="10" fill="#060001"/><path d="M209.77 44.2C182.257 52.98 154.753 61.77 127.26 70.57 137.7 84.8233 148.173 99.06 158.68 113.28 186.227 104.493 213.75 95.7 241.25 86.9 230.783 72.7067 220.29 58.4733 209.77 44.2Z" stroke="#040000" stroke-width="1.9" stroke-miterlimit="10" fill="#FFFFFF" fill-rule="evenodd"/><path d="M158.68 117.08C157.47 117.084 156.332 116.508 155.62 115.53L150.83 109.03C141.95 96.97 133.07 84.8967 124.19 72.81 123.575 71.8591 123.507 70.6544 124.01 69.64 124.38 68.47 126.57 66.81 127.26 66.57L208.61 40.57C210.165 40.0696 211.866 40.6217 212.83 41.94L244.31 84.65C245.558 86.3373 245.202 88.7168 243.515 89.9648 243.18 90.2125 242.807 90.4034 242.41 90.53L159.84 116.9C159.465 117.019 159.074 117.08 158.68 117.08ZM133.45 72.59C141.263 83.2567 149.1 93.8967 156.96 104.51L160.12 108.82 235 84.9 208.33 48.65Z" stroke="#040000" stroke-width="1.9" stroke-miterlimit="10" fill="#060001"/><path d="M333.14 57.59C305.613 48.7967 278.1 39.9867 250.6 31.16L209.77 44.16C220.27 58.4133 230.763 72.6467 241.25 86.86 271.897 77.1467 302.527 67.39 333.14 57.59Z" stroke="#040000" stroke-width="1.9" stroke-miterlimit="10" fill="#FFFFFF" fill-rule="evenodd"/><path d="M241.25 90.7C240.042 90.7081 238.903 90.1352 238.19 89.16L206.71 46.45C205.459 44.7718 205.805 42.3972 207.484 41.1462 207.824 40.8924 208.205 40.6976 208.61 40.57L249.45 27.57C250.203 27.3428 251.007 27.3428 251.76 27.57 279.253 36.3633 306.767 45.1733 334.3 54 336.299 54.6383 337.403 56.7764 336.764 58.7757 336.39 59.9476 335.472 60.8659 334.3 61.24L306.68 70C285.247 76.8467 263.823 83.68 242.41 90.5 242.034 90.6197 241.644 90.687 241.25 90.7ZM216 46.2 242.72 82.45C263.287 75.91 283.843 69.3567 304.39 62.79L320.68 57.59C297.307 50.1167 273.973 42.6367 250.68 35.15Z" stroke="#040000" stroke-width="1.9" stroke-miterlimit="10" fill="#060001"/><path d="M409.18 506.08C408.381 506.087 407.602 505.835 406.96 505.36L328.96 448.69C327.262 447.476 326.869 445.115 328.083 443.417 328.325 443.078 328.622 442.782 328.96 442.54L419.53 376.73C420.497 375.981 421.779 375.778 422.93 376.19 424.086 376.564 424.99 377.473 425.36 378.63L455.16 470.28C455.674 471.842 455.125 473.557 453.8 474.53L411.42 505.36C410.769 505.832 409.984 506.084 409.18 506.08ZM337.67 445.61 409.18 497.61 447.1 470 419.76 386Z" stroke="#040000" stroke-width="1.9" stroke-miterlimit="10" fill="#060001"/><path d="M249.65 508.67C248.85 508.674 248.071 508.417 247.43 507.94L207.24 478.75C205.905 477.784 205.347 476.066 205.86 474.5L237 378.63C237.37 377.469 238.279 376.56 239.44 376.19 240.595 375.785 241.876 375.988 242.85 376.73L333.39 442.54C335.088 443.773 335.465 446.149 334.232 447.848 333.998 448.171 333.713 448.455 333.39 448.69L251.85 507.94C251.214 508.413 250.443 508.669 249.65 508.67ZM213.94 474.22 249.65 500.17 324.73 445.61 242.64 386Z" stroke="#040000" stroke-width="1.9" stroke-miterlimit="10" fill="#060001"/><path d="M421.76 383.6C421.362 383.601 420.967 383.537 420.59 383.41 419.431 383.037 418.523 382.129 418.15 380.97L383.58 274.47C382.912 272.486 383.978 270.337 385.962 269.668 386.357 269.535 386.772 269.468 387.19 269.47L488 269.47C489.646 269.461 491.108 270.522 491.61 272.09L507 319.35C507.516 320.915 506.952 322.634 505.61 323.59L424 382.87C423.35 383.346 422.565 383.602 421.76 383.6ZM392.42 277.1 423.77 373.65 498.91 319.06 485.26 277.06Z" stroke="#040000" stroke-width="1.9" stroke-miterlimit="10" fill="#060001"/><path d="M240.64 383.6C239.838 383.6 239.057 383.344 238.41 382.87L157 323.71C155.661 322.751 155.102 321.033 155.62 319.47L171 272.12C171.502 270.552 172.964 269.491 174.61 269.5L275.22 269.5C277.313 269.49 279.018 271.178 279.028 273.272 279.03 273.689 278.963 274.104 278.83 274.5L244.25 381C243.88 382.161 242.971 383.07 241.81 383.44 241.432 383.558 241.036 383.612 240.64 383.6ZM163.69 319.18 238.63 373.65 270 277.1 177.35 277.1Z" stroke="#040000" stroke-width="1.9" stroke-miterlimit="10" fill="#060001"/><path d="M209.47 479.47C208.667 479.466 207.885 479.215 207.23 478.75L125.82 419.58C124.49 418.615 123.937 416.901 124.45 415.34L155.61 319.47C155.963 318.31 156.853 317.391 158 317 159.151 316.587 160.433 316.791 161.4 317.54L242.83 376.7C244.166 377.661 244.725 379.377 244.21 380.94L213.04 476.81C212.67 477.971 211.761 478.88 210.6 479.25 210.238 479.384 209.856 479.458 209.47 479.47ZM132.53 415.05 207.46 469.52 236.17 381.26 161.22 326.79Z" stroke="#040000" stroke-width="1.9" stroke-miterlimit="10" fill="#060001"/><path d="M488 277.1 387.19 277.1C385.542 277.104 384.081 276.04 383.58 274.47L352.47 178.78C351.813 176.781 352.9 174.628 354.899 173.971 355.28 173.845 355.679 173.781 356.08 173.78L456.94 173.78C458.587 173.779 460.046 174.842 460.55 176.41L491.63 272.1C492.298 274.084 491.232 276.233 489.248 276.902 488.853 277.035 488.438 277.102 488.02 277.1ZM390 269.5 482.8 269.5 454.18 181.41 361.31 181.41Z" stroke="#040000" stroke-width="1.9" stroke-miterlimit="10" fill="#060001"/><path d="M275.22 277.1 174.59 277.1C172.497 277.11 170.792 275.422 170.782 273.328 170.78 272.911 170.847 272.496 170.98 272.1L202.09 176.41C202.591 174.84 204.052 173.776 205.7 173.78L306.32 173.78C308.424 173.785 310.126 175.495 310.121 177.599 310.12 178.001 310.055 178.399 309.93 178.78L278.83 274.47C278.331 276.042 276.869 277.107 275.22 277.1ZM179.81 269.5 272.46 269.5 301.09 181.41 208.46 181.41Z" stroke="#040000" stroke-width="1.9" stroke-miterlimit="10" fill="#060001"/><path d="M387.19 277.1 275.19 277.1C273.097 277.105 271.396 275.412 271.392 273.318 271.391 272.904 271.458 272.493 271.59 272.1L302.68 176.41C303.184 174.842 304.643 173.779 306.29 173.78L356.05 173.78C357.697 173.779 359.156 174.842 359.66 176.41L390.77 272.1C391.438 274.084 390.372 276.233 388.388 276.902 387.993 277.035 387.578 277.102 387.16 277.1ZM280.45 269.5 382 269.5 353.36 181.41 309.08 181.41Z" stroke="#040000" stroke-width="1.9" stroke-miterlimit="10" fill="#060001"/><path d="M502.1 493.13C501.702 493.132 501.307 493.068 500.93 492.94L496.58 491.53C480.64 486.363 464.64 481.197 448.58 476.03 446.581 475.392 445.477 473.254 446.116 471.254 446.363 470.48 446.851 469.806 447.51 469.33L532.51 407.73C533.496 406.998 534.779 406.8 535.94 407.2 553.4 413.02 570.66 418.92 587.87 424.8 589.859 425.487 590.914 427.656 590.227 429.645 589.973 430.381 589.499 431.021 588.87 431.48L504.38 492.42C503.713 492.889 502.915 493.137 502.1 493.13ZM458 471.07C471.713 475.457 485.35 479.867 498.91 484.3L501.44 485.12 578.44 429.61C564.147 424.743 549.783 419.873 535.35 415Z" stroke="#040000" stroke-width="1.9" stroke-miterlimit="10" fill="#060001"/><path d="M498.59 620.67C671.12 476.06 651.21 323.13 633.37 261.33" stroke="#404040" stroke-width="14" stroke-linecap="round" stroke-miterlimit="10" fill="none"/><path d="M654.85 260.32 623.11 232.99 615.3 274.13 654.85 260.32Z" fill="#404040"/></g></g></svg>