<svg viewBox="0 0 577.09 622.9" xmlns="http://www.w3.org/2000/svg" xmlns:xlink="http://www.w3.org/1999/xlink" overflow="hidden"><defs></defs><g id="图层_2"><g id="图层_1-2"><path d="M9.66 144.01 230.97 7.5 567.94 81.62 383.96 245.71 9.66 144.01Z" fill="#FFFFFF"/><path d="M231.24 9.1 564.75 82.45 383.57 244.05 13.4 143.47 231.24 9.1M230.7 5.91 5.93 144.55 384.36 247.37 571.13 80.79 230.7 5.91Z"/><path d="M36.02 491.73 7.6 146.56 382.83 248.51 373.64 614.83 36.02 491.73Z" fill="#FFFFFF"/><path d="M9.27 148.57 381.27 249.65 372.16 612.71 37.44 490.65 9.27 148.57M5.93 144.57 34.61 492.81 375.08 617 384.36 247.41 5.93 144.55Z"/><path d="M571.13 80.78 384.36 247.37 375.08 616.96 545.88 414.52 571.13 80.78Z" stroke="#000000" stroke-width="3" stroke-miterlimit="10" fill="#FFFFFF"/><line x1="400.94" y1="43.33" x2="400.83" y2="43.33" stroke="#000000" stroke-width="3" stroke-miterlimit="10" fill="none"/><line x1="400.94" y1="43.38" x2="400.94" y2="43.33" stroke="#000000" stroke-width="3" stroke-miterlimit="10" fill="none"/><path d="M195.13 195.93 5.93 144.53 118.3 75.22 195.13 195.93Z" stroke="#000000" stroke-width="3" stroke-miterlimit="10" fill="#FFFFFF"/><path d="M477.77 164.09 477.71 164.09 195.24 195.99 195.13 195.99 195.13 195.93 118.3 75.22 118.36 75.22 400.82 43.33 400.94 43.38 477.77 164.09Z" stroke="#000000" stroke-width="3" stroke-miterlimit="10" fill="#FFFFFF"/><path d="M400.82 43.33 118.36 75.22 230.72 5.91 400.82 43.33Z" stroke="#000000" stroke-width="3" stroke-miterlimit="10" fill="#FFFFFF"/><path d="M571.11 80.8 477.77 164.09 400.94 43.38 571.11 80.8Z" stroke="#000000" stroke-width="3" stroke-miterlimit="10" fill="#FFFFFF"/><path d="M477.71 164.09 384.38 247.38 195.24 195.99 477.71 164.09Z" stroke="#000000" stroke-width="3" stroke-miterlimit="10" fill="#FFFFFF"/><path d="M379.74 432.17 204.82 554.87 20.26 318.69 195.13 195.99 379.74 432.17Z" stroke="#000000" stroke-width="3" stroke-miterlimit="10" fill="#00D800"/><path d="M195.13 195.93 195.13 195.99 20.26 318.69 5.93 144.53 195.13 195.93Z" stroke="#000000" stroke-width="3" stroke-miterlimit="10" fill="#00D800"/><path d="M204.82 554.87 34.6 492.79 20.26 318.69 204.82 554.87Z" stroke="#000000" stroke-width="3" stroke-miterlimit="10" fill="#00D800"/><path d="M477.77 164.09 379.74 432.17 384.38 247.38 477.71 164.09 477.77 164.09Z" stroke="#000000" stroke-width="3" stroke-miterlimit="10" fill="#EE0000"/><path d="M384.38 247.38 379.74 432.17 195.13 195.99 195.24 195.99 384.38 247.38Z" stroke="#000000" stroke-width="3" stroke-miterlimit="10" fill="#00D800"/><path d="M558.48 247.67 545.85 414.55 460.5 515.69 558.48 247.67Z" stroke="#000000" stroke-width="3" stroke-miterlimit="10" fill="#EE0000"/><path d="M460.5 515.69 460.5 515.75 375.1 616.96 379.74 432.17 460.5 515.69Z" stroke="#000000" stroke-width="3" stroke-miterlimit="10" fill="#EE0000"/><path d="M558.48 247.67 460.5 515.69 379.74 432.17 477.77 164.09 558.48 247.67Z" stroke="#000000" stroke-width="3" stroke-miterlimit="10" fill="#EE0000"/><path d="M571.11 80.8 558.48 247.67 477.77 164.09 571.11 80.8Z" stroke="#000000" stroke-width="3" stroke-miterlimit="10" fill="#EE0000"/><path d="M379.74 432.17 375.1 616.96 204.82 554.87 379.74 432.17Z" stroke="#000000" stroke-width="3" stroke-miterlimit="10" fill="#00D800"/><path d="M375 621.4C374.828 621.393 374.656 621.366 374.49 621.32 374.278 621.3 374.068 621.266 373.86 621.22L373.81 621.22 32.87 496.9 32.87 496.9C32.4177 496.71 32.0042 496.439 31.65 496.1 31.5449 496.011 31.4539 495.906 31.38 495.79 31.0929 495.493 30.8504 495.156 30.66 494.79 30.5687 494.596 30.5015 494.391 30.46 494.18L30.46 494.02C30.3638 493.769 30.2999 493.507 30.27 493.24L1.51 144.91C1.47935 144.691 1.47935 144.469 1.51 144.25L1.51 144.17C1.49715 144.014 1.49715 143.856 1.51 143.7L1.51 143.63 1.63 143.17 1.69 143.08C1.74722 142.932 1.81403 142.789 1.89 142.65L1.98 142.49C2.06369 142.277 2.17461 142.075 2.31 141.89L2.42 141.76C2.57454 141.575 2.74892 141.407 2.94 141.26L3.03 141.2C3.16947 141.032 3.33488 140.886 3.52 140.77L228.37 2.13C228.549 2.01997 228.745 1.93897 228.95 1.89 229.266 1.72792 229.602 1.61015 229.95 1.54 230.126 1.52511 230.304 1.52511 230.48 1.54 230.67 1.54 230.86 1.54 231.04 1.54L231.21 1.54C231.361 1.54129 231.512 1.55804 231.66 1.59L572.08 76.45C572.249 76.4933 572.413 76.5536 572.57 76.63 572.752 76.6759 572.93 76.7396 573.1 76.82 573.231 76.8834 573.355 76.9605 573.47 77.05 573.662 77.1738 573.843 77.3143 574.01 77.47 574.17 77.5692 574.314 77.6904 574.44 77.83L574.58 77.99 574.58 78.08 574.66 78.22C574.798 78.428 574.922 78.6451 575.03 78.87 575.161 79.1285 575.265 79.3999 575.34 79.68 575.404 79.946 575.444 80.217 575.46 80.49 575.46 80.56 575.46 80.66 575.46 80.79L575.46 81.07 550.3 414.86C550.284 415.062 550.24 415.26 550.17 415.45 550.127 415.682 550.064 415.91 549.98 416.13 549.866 416.411 549.722 416.68 549.55 416.93 549.48 417.093 549.386 417.245 549.27 417.38L378.32 620 378.19 620.08 377.82 620.39 377.39 620.68 377.3 620.74C377.163 620.845 377.016 620.936 376.86 621.01 376.302 621.257 375.7 621.386 375.09 621.39ZM370.79 610.68 375.05 440.85 214.36 553.63ZM379.79 604.45 454.51 516 383.89 442.92ZM205.75 548.83 373.35 431.22 194.24 202 26.64 319.63ZM191.81 545.41 25.91 333.1 38.8 489.61ZM458.74 507.56 553.38 248.74 479.48 172.26 384.84 431.08ZM473.25 493.73 541.56 412.73 551.66 279.26ZM375.59 419.68 379.83 250.68 206.83 203.68ZM384.83 405.25 467.51 179.15 388.74 249.4ZM24.06 310.6 184.86 197.76 10.86 150.49ZM383.2 242.46 464.38 170.05 218.72 197.77ZM554.82 237.46 565.82 91.46 484.09 164.35ZM197.4 191.24 470.19 160.46 398.66 48.07 125.87 78.84ZM185.25 188.67 116.92 81.3 17 143ZM478.69 157.29 561.69 83.29 410.39 50ZM137.52 68.6 373.84 41.94 231.5 10.63Z"/><path d="M230.48 3 231 3 231.36 3 571.76 77.92C571.86 77.92 571.94 78.01 572.04 78.04 572.173 78.0708 572.303 78.1109 572.43 78.16 572.504 78.2042 572.574 78.2544 572.64 78.31 572.793 78.4031 572.933 78.5139 573.06 78.64 573.151 78.6976 573.238 78.7611 573.32 78.83 573.32 78.83 573.32 78.83 573.32 78.83 573.369 78.8963 573.413 78.9665 573.45 79.04 573.557 79.186 573.648 79.3436 573.72 79.51 573.806 79.6798 573.877 79.8572 573.93 80.04 573.974 80.2134 573.997 80.3912 574 80.57 574.009 80.6965 574.009 80.8235 574 80.95 574 80.95 574 80.95 574 80.95L548.81 414.75C548.81 414.87 548.74 414.97 548.72 415.09 548.684 415.256 548.637 415.42 548.58 415.58 548.497 415.783 548.393 415.978 548.27 416.16 548.21 416.24 548.19 416.34 548.12 416.42L377.33 618.85 377.23 618.93C377.11 619.045 376.984 619.152 376.85 619.25 376.76 619.316 376.667 619.376 376.57 619.43 376.551 619.452 376.527 619.469 376.5 619.48 376.424 619.539 376.344 619.592 376.26 619.64 375.892 619.807 375.494 619.896 375.09 619.9L375 619.9 374.76 619.84C374.529 619.83 374.3 619.79 374.08 619.72L374.08 619.72 33.6 495.57 33.6 495.57C33.2322 495.439 32.8928 495.238 32.6 494.98 32.6 494.98 32.53 494.87 32.48 494.82 32.2703 494.605 32.0949 494.359 31.96 494.09 31.9016 493.945 31.858 493.794 31.83 493.64 31.757 493.456 31.7033 493.265 31.67 493.07L3 144.79C2.99021 144.647 2.99021 144.503 3 144.36 2.98477 144.184 2.98477 144.006 3 143.83 3 143.83 3 143.83 3 143.78 3 143.73 3 143.78 3 143.72 3.06118 143.558 3.13473 143.401 3.22 143.25 3.28791 143.091 3.36816 142.937 3.46 142.79L3.53 142.71C3.65441 142.574 3.79172 142.45 3.94 142.34 4.03956 142.236 4.14651 142.139 4.26 142.05L229.15 3.41C229.267 3.35788 229.387 3.31443 229.51 3.28 229.731 3.16247 229.966 3.07502 230.21 3.02L230.48 3.02M131 70.84 383 42.41 231.23 9 131 70.84M196.61 192.84 472.71 161.68 399.42 46.47 123.32 77.62 196.64 192.84M478.37 159.58 564.88 82.42 407.19 47.74 478.37 159.58M188.59 191.14 117.39 79.25 13.24 143.49 188.59 191.14M556.07 240.91 567.65 87.83 482 164.23 556.09 240.91M22.78 313.33 188.33 197.15 9.2 148.48 22.78 313.33M383.59 244.12 468.89 168 210.75 197.16 383.59 244.16M459.33 510.36 555.11 248.41 478.89 169.53 383.11 431.53 459.33 510.4M383.11 414.4 471 174.05 387.29 248.71 383.14 414.35M205.44 550.88 375.51 431.54 194.55 200 24.49 319.31 205.49 550.88M377 423.9 381.37 249.6 202.89 201.11 377 423.9M468.94 501.17 543 413.36 554 268.61 469 501.17M196.22 548.61 24 328.22 37.38 490.69 196.22 548.61M372.22 612.8 376.61 437.92 211.14 554.05 372.25 612.8M378.25 608.68 456.55 515.88 382.55 439.25 378.3 608.68M230.48 0C230.219-0.000401821 229.958 0.0196596 229.7 0.06 229.254 0.14511 228.821 0.286228 228.41 0.48 228.122 0.568263 227.847 0.692583 227.59 0.85L2.81 139.5C2.53418 139.665 2.28473 139.871 2.07 140.11 1.79451 140.311 1.54583 140.546 1.33 140.81L1.18 141C0.988625 141.27 0.824487 141.558 0.69 141.86L0.69 141.86 0.69 141.86C0.578189 142.056 0.481249 142.26 0.4 142.47 0.311655 142.638 0.244474 142.816 0.2 143L0.08 143.44 0.08 143.64C0.0723305 143.787 0.0723305 143.933 0.08 144.08 0.0154297 144.382-0.0114418 144.691-1.78814e-09 145L28.69 493.29C28.726 493.686 28.8134 494.076 28.95 494.45L28.95 494.45C29.018 494.767 29.122 495.076 29.26 495.37 29.4975 495.85 29.8003 496.294 30.16 496.69 30.2809 496.86 30.4183 497.017 30.57 497.16 31.0137 497.566 31.516 497.903 32.06 498.16L32.13 498.16 32.54 498.32 373 622.5 373.38 622.67 373.61 622.67C373.831 622.72 374.055 622.757 374.28 622.78 374.512 622.84 374.75 622.871 374.99 622.87L375.14 622.87C375.957 622.867 376.764 622.694 377.51 622.36 377.738 622.258 377.956 622.134 378.16 621.99L378.16 621.99 378.25 621.93C378.39 621.84 378.55 621.74 378.73 621.6L378.73 621.6C378.894 621.483 379.051 621.356 379.2 621.22 379.35 621.094 379.49 620.957 379.62 620.81L550.42 418.36C550.598 418.153 550.749 417.925 550.87 417.68 551.074 417.365 551.245 417.03 551.38 416.68 551.488 416.408 551.571 416.127 551.63 415.84 551.728 415.563 551.788 415.273 551.81 414.98L577.05 81.23 577.05 80.78 577 80.56C577 80.45 577 80.35 577 80.28 576.978 79.9424 576.924 79.6077 576.84 79.28 576.743 78.9015 576.602 78.5357 576.42 78.19 576.297 77.9108 576.15 77.643 575.98 77.39L575.98 77.39 575.9 77.24 575.65 76.92 575.65 76.92 575.65 76.92C575.46 76.7152 575.249 76.5308 575.02 76.37 574.83 76.2001 574.626 76.0462 574.41 75.91 574.235 75.7761 574.047 75.6589 573.85 75.56 573.634 75.4499 573.406 75.366 573.17 75.31 572.949 75.2078 572.718 75.1307 572.48 75.08L232 0.11C231.75 0.0576599 231.495 0.0308555 231.24 0.03L231.12 0.03C230.95 0.03 230.75 0.03 230.51 0.03ZM144 66.35 231.76 12.22 364.68 41.46 144 66.35ZM128.43 80.06 397.9 49.66 467.63 159.24 198.16 189.64 128.43 80.06ZM479 155 413.6 52.22 558.51 84.09 479 155ZM20.71 142.41 116.45 83.41 181.9 186.21 20.71 142.41ZM486.31 164.41 564.1 95 553.58 234 486.31 164.38ZM25.31 307.89 12.54 152.5 181.38 198.37 25.38 307.87ZM226.69 198.38 459.86 172.07 382.8 240.79 226.69 198.38ZM386.57 430.71 480.06 175 551.65 249.09 458.16 504.79 386.57 430.71ZM390.23 250.09 464.05 184.25 386.56 396.16 390.23 250.09ZM28.8 320 193.94 204.06 371.2 430.89 206.05 546.78 28.8 320ZM374.2 415.51 210.81 206.37 378.3 251.87 374.2 415.46ZM477.57 486.33 549.34 290 540.1 412.17 477.57 486.28ZM40.21 488.53 27.82 338 187.41 542.2 40.21 488.53ZM217.57 553.2 373.49 443.79 369.36 608.55 217.57 553.2ZM381.45 600.2 385.3 446.46 452.49 516 381.49 600.21Z"/></g></g></svg>