<svg viewBox="0 0 577.08 622.9" xmlns="http://www.w3.org/2000/svg" xmlns:xlink="http://www.w3.org/1999/xlink" overflow="hidden"><defs></defs><g id="图层_2"><g id="图层_1-2"><path d="M9.66 144.01 230.97 7.5 567.94 81.62 383.96 245.71 9.66 144.01Z" fill="#FFFFFF"/><path d="M231.24 9.1 564.75 82.45 383.57 244.05 13.4 143.47 231.24 9.1M230.7 5.91 5.93 144.55 384.36 247.37 571.13 80.79 230.7 5.91Z"/><path d="M36.02 491.73 7.6 146.56 382.83 248.51 373.64 614.83 36.02 491.73Z" fill="#FFFFFF"/><path d="M9.27 148.57 381.27 249.65 372.16 612.71 37.44 490.65 9.27 148.57M5.93 144.57 34.61 492.81 375.08 617 384.36 247.41 5.93 144.55Z"/><path d="M571.13 80.78 384.36 247.37 375.08 616.96 545.88 414.52 571.13 80.78Z" stroke="#000000" stroke-width="3" stroke-miterlimit="10" fill="#FFFFFF"/><line x1="400.94" y1="43.33" x2="400.83" y2="43.33" stroke="#000000" stroke-width="3" stroke-miterlimit="10" fill="none"/><line x1="400.94" y1="43.38" x2="400.94" y2="43.33" stroke="#000000" stroke-width="3" stroke-miterlimit="10" fill="none"/><path d="M195.13 195.93 5.93 144.53 118.3 75.22 195.13 195.93Z" stroke="#000000" stroke-width="3" stroke-miterlimit="10" fill="#FFFFFF"/><path d="M477.77 164.09 477.71 164.09 195.24 195.99 195.13 195.99 195.13 195.93 118.3 75.22 118.36 75.22 400.82 43.33 400.94 43.38 477.77 164.09Z" stroke="#000000" stroke-width="3" stroke-miterlimit="10" fill="#FFFFFF"/><path d="M400.82 43.33 118.36 75.22 230.72 5.91 400.82 43.33Z" stroke="#000000" stroke-width="3" stroke-miterlimit="10" fill="#EE0000"/><path d="M571.11 80.8 477.77 164.09 400.94 43.38 571.11 80.8Z" stroke="#000000" stroke-width="3" stroke-miterlimit="10" fill="#FFFFFF"/><path d="M477.71 164.09 384.38 247.38 195.24 195.99 477.71 164.09Z" stroke="#000000" stroke-width="3" stroke-miterlimit="10" fill="#FFFFFF"/><path d="M379.74 432.17 204.82 554.87 20.26 318.69 195.13 195.99 379.74 432.17Z" stroke="#000000" stroke-width="3" stroke-miterlimit="10" fill="#00D800"/><path d="M195.13 195.93 195.13 195.99 20.26 318.69 5.93 144.53 195.13 195.93Z" stroke="#000000" stroke-width="3" stroke-miterlimit="10" fill="#00D800"/><path d="M204.82 554.87 34.6 492.79 20.26 318.69 204.82 554.87Z" stroke="#000000" stroke-width="3" stroke-miterlimit="10" fill="#FFFFFF"/><path d="M477.77 164.09 379.74 432.17 384.38 247.38 477.71 164.09 477.77 164.09Z" stroke="#000000" stroke-width="3" stroke-miterlimit="10" fill="#EE0000"/><path d="M384.38 247.38 379.74 432.17 195.13 195.99 195.24 195.99 384.38 247.38Z" stroke="#000000" stroke-width="3" stroke-miterlimit="10" fill="#00D800"/><path d="M558.48 247.67 545.85 414.55 460.5 515.69 558.48 247.67Z" stroke="#000000" stroke-width="3" stroke-miterlimit="10" fill="#00D800"/><path d="M460.5 515.69 460.5 515.75 375.1 616.96 379.74 432.17 460.5 515.69Z" stroke="#000000" stroke-width="3" stroke-miterlimit="10" fill="#EE0000"/><path d="M558.48 247.67 460.5 515.69 379.74 432.17 477.77 164.09 558.48 247.67Z" stroke="#000000" stroke-width="3" stroke-miterlimit="10" fill="#EE0000"/><path d="M571.11 80.8 558.48 247.67 477.77 164.09 571.11 80.8Z" stroke="#000000" stroke-width="3" stroke-miterlimit="10" fill="#EE0000"/><path d="M379.74 432.17 375.1 616.96 204.82 554.87 379.74 432.17Z" stroke="#000000" stroke-width="3" stroke-miterlimit="10" fill="#00D800"/><path d="M375 621.4C374.828 621.393 374.656 621.366 374.49 621.32 374.278 621.3 374.068 621.266 373.86 621.22L373.72 621.22 373.48 621.1 32.87 496.9 32.87 496.9C32.4207 496.705 32.0081 496.434 31.65 496.1 31.5472 496.009 31.4565 495.904 31.38 495.79 31.096 495.491 30.8538 495.154 30.66 494.79 30.5732 494.594 30.5062 494.389 30.46 494.18L30.46 494.02C30.3638 493.769 30.2999 493.507 30.27 493.24L1.51 144.92C1.47906 144.698 1.47906 144.472 1.51 144.25 1.50045 144.07 1.50045 143.89 1.51 143.71L1.51 143.62 1.63 143.17 1.68 143.09C1.74028 142.939 1.81043 142.792 1.89 142.65L1.98 142.48C2.06637 142.271 2.17714 142.073 2.31 141.89L2.43 141.75C2.58137 141.568 2.75242 141.404 2.94 141.26L3.03 141.2C3.16947 141.032 3.33488 140.886 3.52 140.77L228.37 2.13C228.546 2.02093 228.739 1.93996 228.94 1.89 229.255 1.72558 229.591 1.60768 229.94 1.54 230.113 1.52495 230.287 1.52495 230.46 1.54 230.647 1.53042 230.833 1.53042 231.02 1.54L231.19 1.54C231.338 1.54126 231.485 1.55802 231.63 1.59L572.08 76.45C572.25 76.4916 572.414 76.552 572.57 76.63 572.753 76.6743 572.931 76.738 573.1 76.82 573.231 76.8834 573.355 76.9605 573.47 77.05 573.662 77.1738 573.843 77.3143 574.01 77.47 574.17 77.5692 574.314 77.6904 574.44 77.83L574.59 78 574.59 78.09 574.68 78.23C574.816 78.4338 574.937 78.6477 575.04 78.87 575.171 79.1285 575.275 79.3999 575.35 79.68 575.413 79.9461 575.453 80.2171 575.47 80.49 575.47 80.56 575.47 80.66 575.47 80.79L575.47 80.88 550.2 414.88C550.184 415.082 550.14 415.28 550.07 415.47 550.027 415.702 549.964 415.93 549.88 416.15 549.769 416.433 549.624 416.701 549.45 416.95 549.375 417.114 549.281 417.268 549.17 417.41L378.32 620 378.19 620.08 377.82 620.39C377.62 620.54 377.49 620.62 377.35 620.71L377.28 620.71 377.28 620.71C377.163 620.801 377.035 620.878 376.9 620.94 376.342 621.187 375.74 621.316 375.13 621.32ZM370.79 610.68 375.05 440.85 214.36 553.63ZM379.79 604.45 454.51 516 383.89 442.92ZM205.75 548.83 373.35 431.22 194.24 202 26.64 319.63ZM191.81 545.41 25.91 333.1 38.8 489.61ZM458.74 507.56 553.38 248.74 479.48 172.26 384.84 431.08ZM473.25 493.73 541.56 412.73 551.66 279.26ZM375.59 419.68 379.83 250.74 206.83 203.74ZM384.83 405.25 467.51 179.15 388.74 249.4ZM24.06 310.6 184.86 197.76 10.86 150.49ZM383.2 242.46 464.38 170.05 218.72 197.77ZM554.82 237.46 565.82 91.46 484.09 164.35ZM197.4 191.24 470.19 160.46 398.66 48.07 125.87 78.84ZM185.25 188.67 116.92 81.3 17 143ZM478.68 157.29 561.68 83.29 410.39 50ZM137.52 68.6 373.84 41.94 231.5 10.63Z"/><path d="M230.48 3 231 3 231.36 3 571.76 77.92C571.86 77.92 571.94 78.01 572.04 78.04 572.173 78.0708 572.303 78.1109 572.43 78.16 572.504 78.2042 572.574 78.2544 572.64 78.31 572.793 78.4031 572.933 78.5139 573.06 78.64 573.151 78.6976 573.238 78.7611 573.32 78.83 573.32 78.83 573.32 78.83 573.32 78.83 573.369 78.8963 573.413 78.9665 573.45 79.04 573.557 79.186 573.648 79.3436 573.72 79.51 573.806 79.6798 573.877 79.8572 573.93 80.04 573.974 80.2134 573.997 80.3912 574 80.57 574.009 80.6965 574.009 80.8235 574 80.95 574 80.95 574 80.95 574 80.95L548.81 414.75C548.81 414.87 548.74 414.97 548.72 415.09 548.684 415.256 548.637 415.42 548.58 415.58 548.497 415.783 548.393 415.978 548.27 416.16 548.21 416.24 548.19 416.34 548.12 416.42L377.33 618.85 377.23 618.93C377.11 619.045 376.984 619.152 376.85 619.25 376.76 619.316 376.667 619.376 376.57 619.43 376.551 619.452 376.527 619.469 376.5 619.48 376.424 619.539 376.344 619.592 376.26 619.64 375.892 619.807 375.494 619.896 375.09 619.9L375 619.9 374.76 619.84C374.529 619.83 374.3 619.79 374.08 619.72L374.08 619.72 33.6 495.57 33.6 495.57C33.2314 495.44 32.8917 495.24 32.6 494.98 32.6 494.98 32.53 494.87 32.48 494.82 32.2703 494.605 32.0949 494.359 31.96 494.09 31.9016 493.945 31.858 493.794 31.83 493.64 31.757 493.456 31.7033 493.265 31.67 493.07L3 144.79C2.99021 144.647 2.99021 144.503 3 144.36 2.98477 144.184 2.98477 144.006 3 143.83 3 143.83 3 143.83 3 143.78 3 143.73 3 143.78 3 143.72 3.05696 143.556 3.13069 143.399 3.22 143.25 3.28791 143.091 3.36816 142.937 3.46 142.79L3.53 142.71C3.65441 142.574 3.79172 142.45 3.94 142.34 4.03956 142.236 4.14651 142.139 4.26 142.05L229.15 3.41C229.267 3.35788 229.387 3.31443 229.51 3.28 229.731 3.16247 229.966 3.07502 230.21 3.02L230.48 3.02M131 70.84 383 42.41 231.23 9 131 70.84M196.61 192.84 472.71 161.68 399.42 46.47 123.32 77.62 196.64 192.84M478.37 159.58 564.88 82.42 407.19 47.74 478.37 159.58M188.59 191.14 117.39 79.25 13.24 143.49 188.59 191.14M556.07 240.91 567.65 87.83 482 164.23 556.09 240.91M22.78 313.33 188.33 197.15 9.2 148.48 22.78 313.33M383.59 244.12 468.89 168 210.75 197.16 383.59 244.16M459.33 510.36 555.11 248.41 478.89 169.53 383.11 431.53 459.33 510.4M383.11 414.4 471 174.05 387.29 248.71 383.14 414.35M205.44 550.88 375.51 431.54 194.55 200 24.49 319.31 205.49 550.88M377 423.9 381.37 249.6 202.89 201.11 377 423.9M468.94 501.17 543 413.36 554 268.61 469 501.17M196.22 548.61 24 328.22 37.38 490.69 196.22 548.61M372.22 612.8 376.61 437.92 211.14 554.05 372.25 612.8M378.25 608.68 456.55 515.88 382.55 439.25 378.3 608.68M230.48 0C230.222-0.000671925 229.965 0.0193927 229.71 0.06 229.26 0.143763 228.824 0.284918 228.41 0.48 228.122 0.568263 227.847 0.692583 227.59 0.85L2.81 139.5C2.53418 139.665 2.28473 139.871 2.07 140.11 1.79278 140.313 1.5439 140.551 1.33 140.82L1.19 141C0.99247 141.268 0.824806 141.556 0.69 141.86L0.69 141.86 0.69 141.86C0.57818 142.057 0.478009 142.261 0.39 142.47 0.312037 142.641 0.248483 142.818 0.2 143L0.08 143.42 0.08 143.61C0.0722718 143.76 0.0722718 143.91 0.08 144.06 0.0358316 144.392 0.0358316 144.728 0.08 145.06L28.69 493.29C28.7272 493.686 28.8146 494.076 28.95 494.45L28.95 494.45C29.0165 494.768 29.1206 495.077 29.26 495.37 29.4975 495.85 29.8003 496.294 30.16 496.69 30.2788 496.858 30.4163 497.013 30.57 497.15 31.0097 497.561 31.5128 497.899 32.06 498.15L32.13 498.21 32.56 498.37 373.05 622.54 373.41 622.66 373.52 622.66C373.754 622.713 373.991 622.753 374.23 622.78 374.459 622.84 374.694 622.87 374.93 622.87L375.09 622.87C375.907 622.867 376.714 622.694 377.46 622.36 377.687 622.261 377.901 622.137 378.1 621.99L378.1 621.99 378.19 621.93 378.67 621.6 378.67 621.6C378.79 621.5 378.96 621.38 379.14 621.21 379.292 621.086 379.433 620.949 379.56 620.8L550.36 418.35C550.541 418.142 550.692 417.91 550.81 417.66 551.02 417.349 551.192 417.013 551.32 416.66 551.428 416.388 551.511 416.107 551.57 415.82 551.668 415.546 551.728 415.26 551.75 414.97L577.05 81.23 577.05 81.23 577.05 80.79 577 80.6C577 80.4867 577 80.3967 577 80.33 576.978 79.9924 576.924 79.6577 576.84 79.33 576.742 78.9533 576.604 78.588 576.43 78.24 576.3 77.9628 576.149 77.6954 575.98 77.44L575.98 77.44 575.92 77.29 575.67 76.99 575.67 76.94 575.67 76.94C575.479 76.7324 575.264 76.5478 575.03 76.39 574.843 76.22 574.643 76.0661 574.43 75.93 574.253 75.7984 574.066 75.6813 573.87 75.58 573.654 75.4699 573.426 75.386 573.19 75.33 572.973 75.2277 572.745 75.1505 572.51 75.1L232 0.11C231.75 0.0576599 231.495 0.0308555 231.24 0.03L231.12 0.03C230.95 0.03 230.74 0.03 230.51 0.03ZM144 66.35 231.76 12.22 364.68 41.46 144 66.35ZM128.43 80.06 397.9 49.66 467.63 159.24 198.16 189.64 128.43 80.06ZM479 155 413.6 52.22 558.51 84.09 479 155ZM20.71 142.41 116.45 83.41 181.9 186.21 20.71 142.41ZM486.31 164.41 564.1 95 553.58 234 486.31 164.38ZM25.31 307.89 12.54 152.5 181.38 198.37 25.38 307.87ZM226.69 198.38 459.86 172.07 382.8 240.8 226.69 198.38ZM386.57 430.71 480.06 175 551.65 249.09 458.16 504.79 386.57 430.71ZM390.23 250.09 464.05 184.25 386.56 396.16 390.23 250.09ZM28.8 320 193.94 204.06 371.2 430.89 206.05 546.78 28.8 320ZM374.2 415.51 210.81 206.37 378.3 251.87 374.2 415.46ZM477.57 486.33 549.34 290 540.1 412.17 477.57 486.28ZM40.21 488.53 27.82 338 187.41 542.2 40.21 488.53ZM217.57 553.2 373.49 443.79 369.36 608.55 217.57 553.2ZM381.45 600.2 385.3 446.46 452.49 516 381.49 600.21Z"/><path d="M215 41.92C265.25 22.61 288.31 35.86 288.31 35.86" stroke="#404040" stroke-width="8" stroke-linecap="round" stroke-miterlimit="10" fill="none"/><path d="M222.87 51.75 199.13 48.71 213.64 29.67 222.87 51.75Z" fill="#404040"/></g></g></svg>