<svg width="150" height="150" viewBox="-0.9 -0.9 1.8 1.8" xmlns="http://www.w3.org/2000/svg" xmlns:xlink="http://www.w3.org/1999/xlink" overflow="hidden"><g stroke-width="0.1" stroke-linejoin="round" opacity="1"><path d="M-0.453404-0.619362 0.453404-0.619362 0.544361-0.19925-0.544361-0.19925Z" stroke="#000000" fill="#000000"/><path d="M-0.544361-0.19925 0.544361-0.19925 0.487857 0.666425-0.487857 0.666425Z" stroke="#000000" fill="#000000"/></g><g stroke-width="0" stroke-linejoin="round" stroke-opacity="0.5" opacity="1"><path d="M-0.470977-0.654109-0.334313-0.654109-0.342143-0.599863-0.482722-0.599863Z" stroke="#000000" fill="#404040"/><path d="M-0.30985-0.654109-0.173186-0.654109-0.177101-0.599863-0.31768-0.599863Z" stroke="#000000" fill="#404040"/><path d="M-0.148723-0.654109-0.0120586-0.654109-0.0120586-0.599863-0.152638-0.599863Z" stroke="#000000" fill="#404040"/><path d="M0.0124041-0.654109 0.149068-0.654109 0.152983-0.599863 0.0124041-0.599863Z" stroke="#000000" fill="#404040"/><path d="M0.173531-0.654109 0.310196-0.654109 0.318025-0.599863 0.177446-0.599863Z" stroke="#000000" fill="#404040"/><path d="M0.334658-0.654109 0.471323-0.654109 0.483067-0.599863 0.342488-0.599863Z" stroke="#000000" fill="#404040"/><path d="M-0.48449-0.590008-0.34391-0.590008-0.352202-0.532562-0.496927-0.532562Z" stroke="#000000" fill="#404040"/><path d="M-0.318737-0.590008-0.178157-0.590008-0.182303-0.532562-0.327028-0.532562Z" stroke="#000000" fill="#FEFE00"/><path d="M-0.152983-0.590008-0.0124041-0.590008-0.0124041-0.532562-0.157129-0.532562Z" stroke="#000000" fill="#FEFE00"/><path d="M0.0127699-0.590008 0.153349-0.590008 0.157495-0.532562 0.0127699-0.532562Z" stroke="#000000" fill="#FEFE00"/><path d="M0.178523-0.590008 0.319102-0.590008 0.327394-0.532562 0.182669-0.532562Z" stroke="#000000" fill="#FEFE00"/><path d="M0.344276-0.590008 0.484856-0.590008 0.497293-0.532562 0.352568-0.532562Z" stroke="#000000" fill="#404040"/><path d="M-0.498801-0.522116-0.354075-0.522116-0.362871-0.46118-0.511994-0.46118Z" stroke="#000000" fill="#404040"/><path d="M-0.328148-0.522116-0.183423-0.522116-0.18782-0.46118-0.336943-0.46118Z" stroke="#000000" fill="#FEFE00"/><path d="M-0.157495-0.522116-0.0127699-0.522116-0.0127699-0.46118-0.161893-0.46118Z" stroke="#000000" fill="#FEFE00"/><path d="M0.0131579-0.522116 0.157883-0.522116 0.162281-0.46118 0.0131579-0.46118Z" stroke="#000000" fill="#FEFE00"/><path d="M0.183811-0.522116 0.328536-0.522116 0.337331-0.46118 0.188208-0.46118Z" stroke="#000000" fill="#FEFE00"/><path d="M0.354464-0.522116 0.499189-0.522116 0.512382-0.46118 0.363259-0.46118Z" stroke="#000000" fill="#404040"/><path d="M-0.513983-0.450089-0.36486-0.450089-0.374207-0.385333-0.528003-0.385333Z" stroke="#000000" fill="#404040"/><path d="M-0.338132-0.450089-0.189009-0.450089-0.193682-0.385333-0.347478-0.385333Z" stroke="#000000" fill="#FEFE00"/><path d="M-0.162281-0.450089-0.0131579-0.450089-0.0131579-0.385333-0.166954-0.385333Z" stroke="#000000" fill="#FEFE00"/><path d="M0.0135703-0.450089 0.162693-0.450089 0.167366-0.385333 0.0135703-0.385333Z" stroke="#000000" fill="#FEFE00"/><path d="M0.189421-0.450089 0.338544-0.450089 0.347891-0.385333 0.194095-0.385333Z" stroke="#000000" fill="#FEFE00"/><path d="M0.365272-0.450089 0.514395-0.450089 0.528415-0.385333 0.374619-0.385333Z" stroke="#000000" fill="#404040"/><path d="M-0.530118-0.373535-0.376322-0.373535-0.386273-0.304589-0.545045-0.304589Z" stroke="#000000" fill="#404040"/><path d="M-0.348742-0.373535-0.194946-0.373535-0.199922-0.304589-0.358694-0.304589Z" stroke="#000000" fill="#FEFE00"/><path d="M-0.167366-0.373535-0.0135703-0.373535-0.0135703-0.304589-0.172342-0.304589Z" stroke="#000000" fill="#FEFE00"/><path d="M0.0140093-0.373535 0.167805-0.373535 0.172781-0.304589 0.0140093-0.304589Z" stroke="#000000" fill="#FEFE00"/><path d="M0.195385-0.373535 0.349181-0.373535 0.359133-0.304589 0.200361-0.304589Z" stroke="#000000" fill="#FEFE00"/><path d="M0.376761-0.373535 0.530557-0.373535 0.545484-0.304589 0.386712-0.304589Z" stroke="#000000" fill="#404040"/><path d="M-0.547299-0.292015-0.388527-0.292015-0.399144-0.218458-0.563225-0.218458Z" stroke="#000000" fill="#404040"/><path d="M-0.36004-0.292015-0.201268-0.292015-0.206577-0.218458-0.370657-0.218458Z" stroke="#000000" fill="#404040"/><path d="M-0.172781-0.292015-0.0140093-0.292015-0.0140093-0.218458-0.17809-0.218458Z" stroke="#000000" fill="#404040"/><path d="M0.0144777-0.292015 0.17325-0.292015 0.178558-0.218458 0.0144777-0.218458Z" stroke="#000000" fill="#404040"/><path d="M0.201737-0.292015 0.360509-0.292015 0.371126-0.218458 0.207045-0.218458Z" stroke="#000000" fill="#404040"/><path d="M0.388996-0.292015 0.547768-0.292015 0.563693-0.218458 0.399613-0.218458Z" stroke="#000000" fill="#404040"/><path d="M-0.564081-0.199366-0.400001-0.199366-0.393786-0.0565475-0.554759-0.0565475Z" stroke="#000000" fill="#404040"/><path d="M-0.37132-0.199366-0.207239-0.199366-0.204132-0.0565475-0.365105-0.0565475Z" stroke="#000000" fill="#404040"/><path d="M-0.178558-0.199366-0.0144777-0.199366-0.0144777-0.0565475-0.175451-0.0565475Z" stroke="#000000" fill="#404040"/><path d="M0.0142035-0.199366 0.178284-0.199366 0.175177-0.0565475 0.0142035-0.0565475Z" stroke="#000000" fill="#404040"/><path d="M0.206965-0.199366 0.371046-0.199366 0.364831-0.0565475 0.203858-0.0565475Z" stroke="#000000" fill="#404040"/><path d="M0.399727-0.199366 0.563807-0.199366 0.554485-0.0565475 0.393512-0.0565475Z" stroke="#000000" fill="#404040"/><path d="M-0.553409-0.0318126-0.392436-0.0318126-0.386452 0.105697-0.544433 0.105697Z" stroke="#000000" fill="#404040"/><path d="M-0.364293-0.0318126-0.20332-0.0318126-0.200328 0.105697-0.358309 0.105697Z" stroke="#000000" fill="#404040"/><path d="M-0.175177-0.0318126-0.0142035-0.0318126-0.0142035 0.105697-0.172185 0.105697Z" stroke="#000000" fill="#404040"/><path d="M0.0139395-0.0318126 0.174913-0.0318126 0.171921 0.105697 0.0139395 0.105697Z" stroke="#000000" fill="#404040"/><path d="M0.203056-0.0318126 0.364029-0.0318126 0.358045 0.105697 0.200064 0.105697Z" stroke="#000000" fill="#404040"/><path d="M0.392172-0.0318126 0.553145-0.0318126 0.544169 0.105697 0.386188 0.105697Z" stroke="#000000" fill="#404040"/><path d="M-0.543133 0.129521-0.385151 0.129521-0.379386 0.262013-0.534485 0.262013Z" stroke="#000000" fill="#404040"/><path d="M-0.357527 0.129521-0.199545 0.129521-0.196663 0.262013-0.351761 0.262013Z" stroke="#000000" fill="#404040"/><path d="M-0.171921 0.129521-0.0139395 0.129521-0.0139395 0.262013-0.169038 0.262013Z" stroke="#000000" fill="#404040"/><path d="M0.0136852 0.129521 0.171666 0.129521 0.168784 0.262013 0.0136852 0.262013Z" stroke="#000000" fill="#404040"/><path d="M0.199291 0.129521 0.357272 0.129521 0.351507 0.262013 0.196408 0.262013Z" stroke="#000000" fill="#404040"/><path d="M0.384897 0.129521 0.542878 0.129521 0.53423 0.262013 0.379132 0.262013Z" stroke="#000000" fill="#404040"/><path d="M-0.533231 0.284975-0.378133 0.284975-0.372574 0.412718-0.524893 0.412718Z" stroke="#000000" fill="#404040"/><path d="M-0.351007 0.284975-0.195909 0.284975-0.19313 0.412718-0.345449 0.412718Z" stroke="#000000" fill="#404040"/><path d="M-0.168784 0.284975-0.0136852 0.284975-0.0136852 0.412718-0.166004 0.412718Z" stroke="#000000" fill="#404040"/><path d="M0.0134399 0.284975 0.168539 0.284975 0.165759 0.412718 0.0134399 0.412718Z" stroke="#000000" fill="#404040"/><path d="M0.195664 0.284975 0.350762 0.284975 0.345204 0.412718 0.192884 0.412718Z" stroke="#000000" fill="#404040"/><path d="M0.377887 0.284975 0.532986 0.284975 0.524648 0.412718 0.372329 0.412718Z" stroke="#000000" fill="#404040"/><path d="M-0.523684 0.434864-0.371365 0.434864-0.366002 0.55811-0.51564 0.55811Z" stroke="#000000" fill="#404040"/><path d="M-0.344722 0.434864-0.192402 0.434864-0.189721 0.55811-0.339359 0.55811Z" stroke="#000000" fill="#404040"/><path d="M-0.165759 0.434864-0.0134399 0.434864-0.0134399 0.55811-0.163078 0.55811Z" stroke="#000000" fill="#404040"/><path d="M0.0132033 0.434864 0.165523 0.434864 0.162841 0.55811 0.0132033 0.55811Z" stroke="#000000" fill="#404040"/><path d="M0.192166 0.434864 0.344485 0.434864 0.339122 0.55811 0.189484 0.55811Z" stroke="#000000" fill="#404040"/><path d="M0.371128 0.434864 0.523448 0.434864 0.515403 0.55811 0.365765 0.55811Z" stroke="#000000" fill="#404040"/><path d="M-0.514473 0.579483-0.364835 0.579483-0.359658 0.698464-0.506707 0.698464Z" stroke="#000000" fill="#404040"/><path d="M-0.338657 0.579483-0.189019 0.579483-0.186431 0.698464-0.33348 0.698464Z" stroke="#000000" fill="#404040"/><path d="M-0.162841 0.579483-0.0132033 0.579483-0.0132033 0.698464-0.160252 0.698464Z" stroke="#000000" fill="#404040"/><path d="M0.0129749 0.579483 0.162613 0.579483 0.160024 0.698464 0.0129749 0.698464Z" stroke="#000000" fill="#404040"/><path d="M0.188791 0.579483 0.338429 0.579483 0.333251 0.698464 0.186202 0.698464Z" stroke="#000000" fill="#404040"/><path d="M0.364607 0.579483 0.514245 0.579483 0.506478 0.698464 0.359429 0.698464Z" stroke="#000000" fill="#404040"/></g></svg>