<svg viewBox="0 0 79.64 92.34" xmlns="http://www.w3.org/2000/svg" xmlns:xlink="http://www.w3.org/1999/xlink" overflow="hidden"><defs></defs><g id="图层_2"><g id="图层_1-2"><path d="M46.57 0 79.64 0C79.12 3.21 78.64 6.27 78.14 9.34 77.14 16.25 75.93 23.14 75.08 30.07 74.45 35.15 74.08 40.28 73.89 45.4 73.6485 54.3077 74.5253 63.2106 76.5 71.9 77.42 76.01 78.2 80.17 78.82 84.34 79.27 87.34 78.04 89.16 75.17 90.03 73.3847 90.5873 71.5298 90.8903 69.66 90.93 61.76 90.93 53.86 90.61 45.96 90.76 40.89 90.85 35.84 91.61 30.78 91.94 26.86 92.19 22.93 92.38 19.01 92.33 14.28 92.33 9.56 91.99 4.84 91.74 2.2365 91.5374 0.17582 89.4554 1.52588e-07 86.85 0 86 0.2 85.55 1.09 85.4 15.48 83 28.18 76.46 40.58 69.15 46.2 65.83 48.58 60.78 49.58 54.75 50.7341 47.3827 50.9257 39.8967 50.15 32.48 49.35 23.7 48.35 14.94 47.41 6.17 47.2 4.14 46.86 2.12 46.57 0Z" fill-rule="evenodd"/></g></g></svg>