<svg version="1.1" width="681.333" height="681.333" viewBox="0 -61 512 511" xmlns="http://www.w3.org/2000/svg" xmlns:xlink="http://www.w3.org/1999/xlink" overflow="hidden"><path d=" M 172.313 62.0703 C 165.313 62.0703 159.043 57.1484 157.621 50.0117 L 151.309 18.4727 C 149.68 10.3438 154.941 2.44531 163.07 0.820312 C 171.172 -0.894531 179.098 4.45313 180.723 12.5859 L 187.035 44.125 C 188.664 52.2539 183.402 60.1523 175.273 61.7773 C 174.277 61.9844 173.293 62.0703 172.313 62.0703 Z" fill="#3E5959"/><path d=" M 511.746 313.156 C 512.645 317.953 511.145 322.754 507.543 326.055 L 493.441 340.156 C 461.039 372.559 416.836 390.563 370.934 390.563 C 332.227 390.563 294.125 377.059 263.824 352.758 L 256.023 346.457 L 212.816 312.254 L 256.023 294.25 L 382.633 242.047 L 503.645 302.051 C 508.145 304.152 511.145 308.355 511.746 313.156 Z" fill="#FF641A"/><path d=" M 511.746 313.156 C 512.645 317.953 511.145 322.754 507.543 326.055 L 493.441 340.156 C 461.039 372.559 416.836 390.563 370.934 390.563 C 332.227 390.563 294.125 377.059 263.824 352.758 L 256.023 346.457 L 256.023 294.25 L 382.633 242.047 L 503.645 302.051 C 508.145 304.152 511.145 308.355 511.746 313.156 Z" fill="#F03800"/><path d=" M 391.035 229.75 L 391.035 255.551 C 391.035 261.551 387.434 267.25 381.734 269.352 C 339.727 286.152 298.027 299.352 256.023 309.254 C 247.32 311.656 238.621 313.457 229.918 315.254 C 218.82 317.355 207.418 319.156 196.016 320.957 C 190.918 321.855 185.516 322.457 180.414 323.359 L 130.91 40.1328 C 146.512 35.0313 163.016 32.0313 180.414 31.1289 C 184.316 30.832 187.914 30.5313 191.816 30.5313 C 193.316 30.5313 194.516 30.5313 196.016 30.832 C 217.016 31.1289 237.121 34.7305 256.02 41.332 C 334.629 68.0313 391.035 142.441 391.035 229.75 Z" fill="#537983"/><path d=" M 241.02 195.543 C 241.02 237.848 224.82 278.051 196.016 308.355 C 191.516 313.754 186.113 318.555 180.414 323.355 C 145.012 327.855 109.301 330.555 71.7969 330.555 L 23.4961 330.555 C 15.6953 330.555 9.39453 324.855 8.49219 317.355 L 3.39453 270.551 L 46.2969 240.547 L 5.49219 180.543 C 20.7969 114.836 67.3047 61.4297 130.91 40.1289 C 146.813 45.832 161.813 53.6289 175.613 63.832 C 183.117 69.5313 190.016 75.832 196.016 82.4336 C 225.117 113.035 241.02 152.641 241.02 195.543 Z" fill="#FF641A"/><path d=" M 391.035 229.75 L 391.035 255.551 C 391.035 261.551 387.434 267.25 381.734 269.352 C 339.727 286.152 298.027 299.352 256.023 309.254 L 256.023 41.332 C 334.629 68.0313 391.035 142.441 391.035 229.75 Z" fill="#3E5959"/><path d=" M 91.3008 255.551 C 91.3008 214.191 57.6523 180.543 16.2969 180.543 L 5.52734 180.543 C 0.242188 203.125 -1.44141 227.102 1.29297 251.738 L 3.38672 270.551 L 76.3008 270.551 C 84.5938 270.551 91.3008 263.84 91.3008 255.551 Z" fill="#CD0000"/></svg>