<svg version="1.1" width="682.667" height="682.667" viewBox="0 -2 512 512" xmlns="http://www.w3.org/2000/svg" xmlns:xlink="http://www.w3.org/1999/xlink" overflow="hidden"><path d=" M 365.02 125.527 C 348.84 125.527 335.676 112.363 335.676 96.1836 C 335.676 91.9141 339.133 88.457 343.402 88.457 C 347.668 88.457 351.129 91.918 351.129 96.1836 C 351.129 103.844 357.359 110.074 365.02 110.074 C 372.676 110.074 378.906 103.844 378.906 96.1836 C 378.906 88.5234 372.676 82.293 365.02 82.293 L 17.4258 82.293 C 13.1602 82.293 9.69922 78.8359 9.69922 74.5664 C 9.69922 70.3008 13.1602 66.8438 17.4258 66.8438 L 365.02 66.8438 C 381.199 66.8438 394.363 80.0039 394.363 96.1836 C 394.363 112.363 381.199 125.527 365.02 125.527 Z" fill="#A0ECFF"/><path d=" M 427.441 58.6836 L 121.191 58.6836 C 116.922 58.6836 113.465 55.2266 113.465 50.9609 C 113.465 46.6914 116.922 43.2344 121.191 43.2344 L 427.441 43.2344 C 435.098 43.2344 441.328 37.0039 441.328 29.3438 C 441.328 21.6836 435.098 15.4531 427.441 15.4531 C 419.781 15.4531 413.551 21.6836 413.551 29.3438 C 413.551 33.6094 410.09 37.0664 405.824 37.0664 C 401.559 37.0664 398.098 33.6094 398.098 29.3438 C 398.098 13.1641 411.262 0 427.441 0 C 443.621 0 456.785 13.1641 456.785 29.3438 C 456.781 45.5195 443.621 58.6836 427.441 58.6836 Z" fill="#A0ECFF"/><path d=" M 82.6211 144.832 L 55.5859 196.637 L 128.105 196.637 L 101.066 144.832 C 97.1758 137.379 86.5117 137.379 82.6211 144.832 Z" fill="#E81610"/><path d=" M 91.8438 310.656 C 129.102 310.656 159.309 280.453 159.309 243.191 L 41.1992 150.625 C 34.3711 145.273 24.3789 150.137 24.3789 158.813 L 24.3789 243.191 C 24.3789 280.453 54.5859 310.656 91.8438 310.656 Z" fill="#FC4830"/><path d=" M 91.8438 310.656 C 54.5859 310.656 24.3789 280.453 24.3789 243.191 L 142.484 150.625 C 149.313 145.273 159.309 150.137 159.309 158.813 L 159.309 243.191 C 159.309 280.453 129.102 310.656 91.8438 310.656 Z" fill="#FF756E"/><path d=" M 159.313 158.816 L 159.313 242.156 C 159.313 279.344 129.656 310.313 92.4688 310.648 C 78.3438 310.777 65.1953 306.559 54.2969 299.25 C 58.5859 300.043 63.0313 300.43 67.5664 300.367 C 104.625 299.867 134.094 268.965 134.094 231.906 L 134.094 157.211 L 142.488 150.629 C 149.316 145.277 159.313 150.141 159.313 158.816 Z" fill="#FC4830"/><path d=" M 79.7344 476.77 L 60.6211 476.77 C 27.1445 476.77 0.00390625 449.629 0.00390625 416.152 L 0.00390625 348.254 C 0.00390625 342.508 4.66016 337.848 10.4063 337.848 L 29.5156 337.848 C 62.9961 337.848 90.1367 364.988 90.1367 398.469 L 90.1367 466.367 C 90.1367 472.113 85.4766 476.77 79.7344 476.77 Z" fill="#00FBAA"/><path d=" M 90.1367 398.473 L 90.1367 466.367 C 90.1367 472.109 85.4766 476.77 79.7305 476.77 L 68.9961 476.77 L 68.9961 405.734 C 68.9961 379.914 48.0625 358.98 22.2422 358.98 L 0 358.98 L 0 348.258 C 0 342.512 4.66016 337.852 10.4023 337.852 L 29.5156 337.852 C 62.9922 337.852 90.1367 364.992 90.1367 398.473 Z" fill="#00DF97"/><path d=" M 90.1367 506.191 C 85.8672 506.191 82.4102 502.73 82.4102 498.465 L 82.4102 310.656 C 82.4102 306.387 85.8672 302.93 90.1367 302.93 C 94.4023 302.93 97.8633 306.391 97.8633 310.656 L 97.8633 498.465 C 97.8633 502.73 94.4023 506.191 90.1367 506.191 Z" fill="#BE7560"/><path d=" M 252.02 201.012 L 224.98 252.816 L 297.5 252.816 L 270.465 201.012 C 266.574 193.559 255.906 193.559 252.02 201.012 Z" fill="#E81610"/><path d=" M 261.242 366.836 C 298.5 366.836 328.703 336.629 328.703 299.371 L 210.598 206.805 C 203.77 201.449 193.777 206.316 193.777 214.992 L 193.777 299.371 C 193.777 336.633 223.98 366.836 261.242 366.836 Z" fill="#FC4830"/><path d=" M 261.242 366.836 C 223.98 366.836 193.777 336.629 193.777 299.371 L 311.883 206.805 C 318.711 201.449 328.703 206.316 328.703 214.992 L 328.703 299.371 C 328.703 336.633 298.5 366.836 261.242 366.836 Z" fill="#FF756E"/><path d=" M 328.707 214.996 L 328.707 298.336 C 328.707 335.523 299.051 366.488 261.867 366.828 C 247.738 366.957 234.594 362.734 223.695 355.43 C 227.984 356.223 232.43 356.605 236.965 356.547 C 274.02 356.047 303.488 325.145 303.488 288.086 L 303.488 213.391 L 311.887 206.809 C 318.715 201.453 328.707 206.32 328.707 214.996 Z" fill="#FC4830"/><path d=" M 249.129 476.77 L 230.02 476.77 C 196.543 476.77 169.402 449.629 169.402 416.152 L 169.402 404.434 C 169.402 398.688 174.059 394.027 179.805 394.027 L 198.914 394.027 C 232.395 394.027 259.535 421.168 259.535 454.648 L 259.535 466.367 C 259.535 472.113 254.875 476.77 249.129 476.77 Z" fill="#00FBAA"/><path d=" M 259.535 454.652 L 259.535 466.367 C 259.535 472.109 254.871 476.77 249.129 476.77 L 238.395 476.77 L 238.395 461.914 C 238.395 436.094 217.461 415.16 191.641 415.16 L 169.398 415.16 L 169.398 404.434 C 169.398 398.691 174.059 394.031 179.801 394.031 L 198.914 394.031 C 232.391 394.031 259.535 421.172 259.535 454.652 Z" fill="#00DF97"/><path d=" M 259.535 506.191 C 255.266 506.191 251.809 502.73 251.809 498.465 L 251.809 366.836 C 251.809 362.566 255.266 359.109 259.535 359.109 C 263.801 359.109 267.262 362.566 267.262 366.836 L 267.262 498.465 C 267.262 502.73 263.801 506.191 259.535 506.191 Z" fill="#BE7560"/><path d=" M 445.324 145.984 L 472.363 197.789 L 399.844 197.789 L 426.879 145.984 C 430.77 138.531 441.438 138.531 445.324 145.984 Z" fill="#E81610"/><path d=" M 436.102 311.809 C 398.844 311.809 368.641 281.605 368.641 244.348 L 486.746 151.777 C 493.574 146.426 503.566 151.289 503.566 159.965 L 503.566 244.348 C 503.566 281.605 473.363 311.809 436.102 311.809 Z" fill="#FC4830"/><path d=" M 436.102 311.809 C 473.363 311.809 503.566 281.605 503.566 244.348 L 385.461 151.777 C 378.633 146.426 368.641 151.289 368.641 159.965 L 368.641 244.348 C 368.641 281.605 398.844 311.809 436.102 311.809 Z" fill="#FF756E"/><path d=" M 368.637 159.969 L 368.637 243.309 C 368.637 280.496 398.293 311.465 435.477 311.805 C 449.605 311.93 462.754 307.711 473.648 300.402 C 469.359 301.195 464.914 301.582 460.379 301.52 C 423.324 301.023 393.855 270.121 393.855 233.059 L 393.855 158.363 L 385.457 151.781 C 378.629 146.43 368.637 151.297 368.637 159.969 Z" fill="#FC4830"/><path d=" M 446.375 460.953 L 462.102 460.953 C 489.656 460.953 511.996 438.617 511.996 411.063 L 511.996 355.176 C 511.996 350.445 508.16 346.613 503.434 346.613 L 487.703 346.613 C 460.148 346.613 437.813 368.949 437.813 396.508 L 437.813 452.391 C 437.813 457.121 441.645 460.953 446.375 460.953 Z" fill="#00FBAA"/><path d=" M 437.813 396.512 L 437.813 452.391 C 437.813 457.117 441.648 460.953 446.375 460.953 L 455.211 460.953 L 455.211 402.488 C 455.211 381.234 472.441 364.004 493.691 364.004 L 512 364.004 L 512 355.176 C 512 350.449 508.164 346.613 503.438 346.613 L 487.707 346.613 C 460.152 346.613 437.813 368.953 437.813 396.512 Z" fill="#00DF97"/><path d=" M 437.813 507.344 C 433.543 507.344 430.086 503.887 430.086 499.617 L 430.086 313.891 C 430.086 309.621 433.543 306.164 437.813 306.164 C 442.078 306.164 445.535 309.625 445.535 313.891 L 445.535 499.617 C 445.535 503.887 442.078 507.344 437.813 507.344 Z" fill="#BE7560"/><path d=" M 427.406 432.27 L 408.297 432.27 C 374.82 432.27 347.68 405.129 347.68 371.648 L 347.68 359.93 C 347.68 354.184 352.336 349.527 358.082 349.527 L 377.191 349.527 C 410.672 349.527 437.813 376.664 437.813 410.145 L 437.813 421.863 C 437.813 427.609 433.152 432.27 427.406 432.27 Z" fill="#00DF97"/><path d=" M 437.813 410.148 L 437.813 421.863 C 437.813 427.605 433.148 432.27 427.406 432.27 L 416.672 432.27 L 416.672 417.41 C 416.672 391.59 395.738 370.66 369.918 370.66 L 347.676 370.66 L 347.676 359.934 C 347.676 354.191 352.336 349.527 358.078 349.527 L 377.188 349.527 C 410.668 349.527 437.813 376.672 437.813 410.148 Z" fill="#00B579"/><path d=" M 233.828 115.664 L 233.719 115.664 C 229.453 115.664 225.992 112.203 225.992 107.938 C 225.992 103.668 229.453 100.211 233.719 100.211 L 233.828 100.211 C 238.094 100.211 241.555 103.672 241.555 107.938 C 241.555 112.203 238.094 115.664 233.828 115.664 Z" fill="#60DAFF"/><path d=" M 251.199 131.016 L 251.094 131.016 C 246.824 131.016 243.367 127.555 243.367 123.289 C 243.367 119.02 246.824 115.563 251.094 115.563 L 251.199 115.563 C 255.469 115.563 258.926 119.02 258.926 123.289 C 258.926 127.555 255.469 131.016 251.199 131.016 Z" fill="#60DAFF"/><path d=" M 437.863 91.6953 C 437.84 91.6953 437.816 91.6953 437.793 91.6953 L 437.684 91.6953 C 433.418 91.6563 429.992 88.1641 430.031 83.8945 C 430.07 79.6523 433.523 76.2422 437.754 76.2422 L 437.828 76.2422 L 437.938 76.2422 C 442.203 76.2813 445.629 79.7734 445.59 84.043 C 445.551 88.2852 442.098 91.6953 437.863 91.6953 Z" fill="#60DAFF"/><path d=" M 397.836 468.605 L 397.73 468.605 C 393.461 468.605 390.004 465.145 390.004 460.879 C 390.004 456.609 393.461 453.152 397.73 453.152 L 397.836 453.152 C 402.105 453.152 405.563 456.613 405.563 460.879 C 405.563 465.145 402.105 468.605 397.836 468.605 Z" fill="#BE7560"/><path d=" M 397.836 468.605 L 397.73 468.605 C 393.461 468.605 390.004 465.145 390.004 460.879 C 390.004 456.609 393.461 453.152 397.73 453.152 L 397.836 453.152 C 402.105 453.152 405.563 456.613 405.563 460.879 C 405.563 465.145 402.105 468.605 397.836 468.605 Z" fill="#BE7560"/><path d=" M 377.926 482.211 L 377.82 482.211 C 373.551 482.211 370.094 478.754 370.094 474.484 C 370.094 470.219 373.551 466.758 377.82 466.758 L 377.926 466.758 C 382.195 466.758 385.652 470.219 385.652 474.484 C 385.652 478.754 382.195 482.211 377.926 482.211 Z" fill="#00DF97"/><path d=" M 128.156 365.57 L 128.051 365.57 C 123.781 365.57 120.324 362.109 120.324 357.844 C 120.324 353.578 123.781 350.117 128.051 350.117 L 128.156 350.117 C 132.426 350.117 135.883 353.578 135.883 357.844 C 135.883 362.109 132.426 365.57 128.156 365.57 Z" fill="#BE7560"/><g fill="#00DF97"><path d=" M 56.8086 38.3086 C 66.5273 39.668 76.7539 36.6133 84.2422 29.125 C 91.7305 21.6367 94.7852 11.4102 93.4258 1.69141 C 83.7031 0.332031 73.4805 3.38672 65.9922 10.875 C 58.5039 18.3633 55.4492 28.5898 56.8086 38.3086 Z"/><path d=" M 330.887 155.379 C 332.242 145.656 329.188 135.434 321.699 127.945 C 314.211 120.457 303.988 117.398 294.266 118.758 C 292.906 128.48 295.965 138.703 303.449 146.191 C 310.938 153.68 321.164 156.738 330.887 155.379 Z"/><path d=" M 497.984 108.586 C 499.344 98.8633 496.289 88.6406 488.801 81.1523 C 481.313 73.6641 471.09 70.6055 461.367 71.9648 C 460.008 81.6875 463.063 91.9102 470.551 99.3984 C 478.039 106.887 488.266 109.945 497.984 108.586 Z"/><path d=" M 157.566 307.133 C 158.926 297.41 155.871 287.188 148.383 279.699 C 140.895 272.211 130.672 269.156 120.949 270.516 C 119.59 280.238 122.645 290.461 130.133 297.949 C 137.621 305.438 147.848 308.492 157.566 307.133 Z"/></g><path d=" M 184.191 27.7266 C 184.168 27.7266 184.145 27.7266 184.117 27.7266 L 184.012 27.7266 C 179.742 27.6875 176.316 24.1953 176.355 19.9258 C 176.398 15.6836 179.848 12.2734 184.082 12.2734 L 184.156 12.2734 L 184.262 12.2734 C 188.531 12.3125 191.957 15.8047 191.914 20.0742 C 191.879 24.3164 188.426 27.7266 184.191 27.7266 Z" fill="#60DAFF"/></svg>