<svg version="1.1" viewBox="0 0 58.137 58.137" xmlns="http://www.w3.org/2000/svg" xmlns:xlink="http://www.w3.org/1999/xlink" id="Capa_1" overflow="hidden"><g><path d=" M 28.782 8.906 C 28.309 8.906 27.889 8.57 27.8 8.089 C 27.244 5.093 25.899 2.662 24.372 1.895 C 23.878 1.647 23.679 1.046 23.927 0.553 C 24.175 0.059 24.775 -0.14 25.269 0.108 C 28.425 1.693 29.509 6.338 29.766 7.725 C 29.867 8.268 29.508 8.789 28.965 8.891 C 28.903 8.9 28.842 8.906 28.782 8.906 Z" fill="#659C35"/><path d=" M 28.714 11.583 C 27.786 11.583 26.89 11.252 26.219 10.581 C 25.828 10.19 25.828 9.558 26.219 9.167 C 26.61 8.776 27.242 8.776 27.633 9.167 C 27.935 9.469 28.361 9.616 28.85 9.583 C 29.386 9.545 29.911 9.294 30.329 8.876 C 30.72 8.485 31.352 8.485 31.743 8.876 C 32.134 9.267 32.134 9.899 31.743 10.29 C 30.886 11.147 29.779 11.583 28.714 11.583 Z"/><path d=" M 29.102 5.608 C 31.34 5.583 33.544 6.781 34.649 8.872 C 35.591 10.656 36.045 12.816 36.642 14.727 C 37.485 17.426 38.099 20.202 38.958 22.889 C 39.847 25.671 41.473 28.281 42.862 30.835 C 44.067 33.052 45.586 35.274 46.365 37.683 C 47.378 40.817 47.212 44.289 46.093 47.373 C 44.026 53.073 38.77 56.83 32.898 57.83 C 31.651 58.042 30.377 58.142 29.102 58.135 L 29.036 58.135 C 27.761 58.141 26.487 58.042 25.24 57.83 C 19.369 56.83 14.113 53.074 12.045 47.373 C 10.926 44.288 10.76 40.817 11.773 37.683 C 12.552 35.274 14.07 33.053 15.276 30.835 C 16.665 28.28 18.291 25.671 19.18 22.889 C 20.039 20.201 20.653 17.425 21.496 14.727 C 22.093 12.815 22.547 10.655 23.489 8.872 C 24.594 6.781 26.798 5.582 29.036 5.608" fill="#D7CC56"/><path d=" M 23.967 52.588 C 23.891 52.588 23.814 52.58 23.737 52.561 C 20.731 51.853 18.332 49.911 17.154 47.23 C 16.932 46.724 17.162 46.134 17.667 45.912 C 18.174 45.691 18.763 45.92 18.985 46.425 C 19.907 48.525 21.806 50.051 24.194 50.614 C 24.732 50.74 25.065 51.279 24.938 51.816 C 24.831 52.278 24.42 52.588 23.967 52.588 Z" fill="#E3E82A"/><path d=" M 17.265 42.308 C 17.238 42.308 17.211 42.307 17.183 42.305 C 16.633 42.261 16.223 41.779 16.267 41.228 C 16.351 40.187 16.527 39.131 16.79 38.087 C 16.926 37.551 17.47 37.23 18.005 37.362 C 18.54 37.497 18.865 38.041 18.73 38.577 C 18.494 39.513 18.335 40.458 18.26 41.389 C 18.219 41.912 17.781 42.308 17.265 42.308 Z" fill="#E3E82A"/></g><g></g><g></g><g></g><g></g><g></g><g></g><g></g><g></g><g></g><g></g><g></g><g></g><g></g><g></g><g></g></svg>