<svg version="1.1" width="512" height="512" viewBox="0 0 64 64" xmlns="http://www.w3.org/2000/svg" xmlns:xlink="http://www.w3.org/1999/xlink" overflow="hidden"><path d=" M 25.063 27.666 L 15.628 25.819 L 15.362 27.341 L 11.562 26.676 C 9.04344 26.2338 6.64329 27.9171 6.20112 30.4356 C 6.20074 30.4377 6.20037 30.4399 6.2 30.442 L 3.666 44.9 C 3.22757 47.42 4.91345 49.8188 7.433 50.26 L 11.233 50.926 L 10.833 53.208 C 9.99577 53.0433 9.18352 53.5884 9.01879 54.4257 C 8.85406 55.2629 9.39923 56.0751 10.2365 56.2399 C 10.2576 56.244 10.2787 56.2477 10.3 56.251 L 31.6 59.977 C 32.4406 60.1239 33.2411 59.5616 33.388 58.721 C 33.5349 57.8804 32.9726 57.0799 32.132 56.933 L 33 52.022 C 33 52.022 25.187 29.253 25.136 28.948 Z M 11.769 47.882 L 8.726 47.35 C 7.46596 47.13 6.62282 45.9303 6.84279 44.6702 C 6.84286 44.6698 6.84293 44.6694 6.843 44.669 L 9.105 31.735 C 9.32497 30.475 10.5247 29.6318 11.7848 29.8518 C 11.7852 29.8519 11.7856 29.8519 11.786 29.852 L 14.829 30.384 Z" fill="#CFCFCF"/><path d=" M 25 28.965 L 25.134 28.921 L 25.063 27.666 L 15.819 25.857 L 11 53 C 10.9137 53.5454 11.2857 54.0575 11.831 54.144 L 31.857 57.82 C 32.3983 57.9061 32.9081 57.5404 33 57 L 32.448 51.352 Z" fill="#F4C734"/><path d=" M 25.463 29.377 L 34.419 55.7 C 33.6116 55.9761 33.1809 56.8546 33.457 57.662 C 33.7331 58.4694 34.6116 58.9001 35.419 58.624 L 55.892 51.659 C 56.6994 51.3842 57.1313 50.5069 56.8565 49.6995 C 56.5817 48.8921 55.7044 48.4602 54.897 48.735 L 54 46.1 L 57.078 45.053 C 59.5004 44.2285 60.796 41.5966 59.972 39.174 L 55.241 25.28 C 54.4177 22.8573 51.7863 21.5608 49.3637 22.3841 C 49.3628 22.3844 49.3619 22.3847 49.361 22.385 L 46.284 23.432 L 45.937 22.412 Z M 55.346 42.377 L 53 43.177 L 47.279 26.357 L 49.625 25.557 C 50.8364 25.1453 52.1523 25.7929 52.565 27.004 L 56.794 39.434 C 57.2071 40.6451 56.5602 41.9618 55.3491 42.375 C 55.3481 42.3753 55.347 42.3757 55.346 42.376 Z" fill="#CFCFCF"/><path d=" M 46 22 L 25 28.965 L 33.661 55 C 33.8734 55.528 34.46 55.7996 35 55.62 L 54.332 49.266 C 54.8571 49.1178 55.1627 48.5719 55.0145 48.0468 C 55.01 48.0311 55.0052 48.0155 55 48 Z" fill="#F4C734"/><g fill="#F9F2CC"><path d=" M 25.093 27.112 C 25.3853 24.7545 27.4396 23.017 29.813 23.12 C 29.9036 22.9819 30.001 22.8484 30.105 22.72 C 29.9825 22.6803 29.858 22.6469 29.732 22.62 C 28.6092 22.4806 27.4703 22.5484 26.372 22.82 C 24.1335 20.2464 20.2325 19.9748 17.6589 22.2134 C 16.5888 23.1441 15.8717 24.4149 15.628 25.812 L 25.063 27.659 C 25.07 27.48 25.068 27.294 25.093 27.112 Z"/><circle cx="42" cy="5" r="2"/><circle cx="33" cy="12" r="4"/><circle cx="19" cy="13" r="3"/><circle cx="13" cy="5" r="2"/><path d=" M 25.093 27.112 C 25.0132 27.7229 25.0273 28.3424 25.135 28.949 C 25.186 29.249 25.343 29.195 25.572 29.13 C 26.126 28.972 26.672 28.756 27.226 28.567 C 27.7487 28.3889 28.3169 28.6683 28.495 29.191 L 29.125 31.044 C 29.4937 32.2097 30.6776 32.9141 31.878 32.682 C 33.1254 32.3967 33.9054 31.1542 33.6202 29.9068 C 33.6024 29.8291 33.5807 29.7524 33.555 29.677 L 34.01 31.014 C 34.3787 32.1793 35.5619 32.8835 36.762 32.652 C 38.01 32.3665 38.7902 31.1234 38.5047 29.8755 C 38.4871 29.7983 38.4655 29.722 38.44 29.647 L 37.269 26.206 C 37.0917 25.6833 37.3714 25.1157 37.894 24.938 L 45.721 22.275 C 44.624 19.0453 41.1166 17.3164 37.8869 18.4134 C 36.5438 18.8695 35.3987 19.7741 34.644 20.975 C 32.7433 20.6072 30.8149 21.4634 29.813 23.12 C 27.4468 23.0377 25.4045 24.7649 25.093 27.112 Z"/></g><path d=" M 39 5 C 39 6.65685 40.3431 8 42 8 C 43.6569 8 45 6.65685 45 5 C 45 3.34315 43.6569 2 42 2 C 40.3431 2 39 3.34315 39 5 Z M 43 5 C 43 5.55228 42.5523 6 42 6 C 41.4477 6 41 5.55228 41 5 C 41 4.44772 41.4477 4 42 4 C 42.5523 4 43 4.44772 43 5 Z"/><path d=" M 33 7 C 30.2386 7 28 9.23858 28 12 C 28 14.7614 30.2386 17 33 17 C 35.7614 17 38 14.7614 38 12 C 37.9967 9.23995 35.7601 7.00331 33 7 Z M 33 15 C 31.3431 15 30 13.6569 30 12 C 30 10.3431 31.3431 9 33 9 C 34.6569 9 36 10.3431 36 12 C 36 13.6569 34.6569 15 33 15 Z"/><path d=" M 19 17 C 21.2091 17 23 15.2091 23 13 C 23 10.7909 21.2091 9 19 9 C 16.7909 9 15 10.7909 15 13 C 15 15.2091 16.7909 17 19 17 Z M 19 11 C 20.1046 11 21 11.8954 21 13 C 21 14.1046 20.1046 15 19 15 C 17.8954 15 17 14.1046 17 13 C 17 11.8954 17.8954 11 19 11 Z"/><path d=" M 13 2 C 11.3431 2 10 3.34315 10 5 C 10 6.65685 11.3431 8 13 8 C 14.6569 8 16 6.65685 16 5 C 16 3.34315 14.6569 2 13 2 Z M 13 6 C 12.4477 6 12 5.55228 12 5 C 12 4.44772 12.4477 4 13 4 C 13.5523 4 14 4.44772 14 5 C 14 5.55228 13.5523 6 13 6 Z"/><path d=" M 40.455 33.265 L 42.454 33.265 L 42.454 53.346 L 40.455 53.346 Z" transform="matrix(0.946711,-0.322084,0.322084,0.946711,-11.739,15.66)"/><path d=" M 35.337 35.006 L 37.336 35.006 L 37.336 55.087 L 35.337 55.087 Z" transform="matrix(0.946711,-0.322084,0.322084,0.946711,-12.573,14.104)"/><path d=" M 45.574 31.524 L 47.573 31.524 L 47.573 51.605 L 45.574 51.605 Z" transform="matrix(0.946722,-0.322051,0.322051,0.946722,-10.904,17.213)"/><path d=" M 7.261 51.245 L 10.08 51.738 L 9.99 52.252 C 8.62179 52.5715 7.77161 53.9396 8.09106 55.3078 C 8.32327 56.3023 9.12772 57.0616 10.134 57.236 L 31.434 60.961 C 31.5786 60.9868 31.7251 60.9998 31.872 61 C 32.866 60.9955 33.7665 60.4129 34.178 59.508 C 34.6231 59.6096 35.0878 59.584 35.519 59.434 L 55.992 52.469 C 57.3226 52.0162 58.0342 50.5704 57.5814 49.2398 C 57.2532 48.2751 56.3811 47.5992 55.365 47.522 L 55.197 47.029 L 57.906 46.107 C 60.8493 45.1016 62.4234 41.9036 61.425 38.958 L 56.7 25.065 C 55.6984 22.1196 52.4987 20.5439 49.5533 21.5455 C 49.5529 21.5457 49.5524 21.5458 49.552 21.546 L 46.842 22.468 L 46.667 21.952 C 45.3933 18.1991 41.3183 16.1893 37.5654 17.463 C 36.2151 17.9213 35.032 18.7714 34.167 19.905 C 32.4173 19.7745 30.709 20.4791 29.56 21.805 C 29.3441 21.7344 29.1236 21.679 28.9 21.639 C 28.1607 21.5108 27.4033 21.5312 26.672 21.699 C 23.8088 18.958 19.2656 19.057 16.5246 21.9202 C 15.5403 22.9483 14.884 24.2459 14.639 25.648 L 14.545 26.185 L 11.725 25.692 C 8.66056 25.1557 5.74157 27.2051 5.20525 30.2696 C 5.20517 30.2701 5.20508 30.2705 5.205 30.271 L 2.681 44.725 C 2.14928 47.7893 4.19802 50.7058 7.261 51.245 Z M 24.037 28.345 C 24.0768 28.7227 24.1552 29.0953 24.271 29.457 L 16.253 28.057 L 16.44 26.987 Z M 26.517 29.869 L 27.548 29.519 L 27.899 30.55 L 26.867 30.901 Z M 10.957 46.725 L 8.897 46.365 C 8.1811 46.2396 7.70245 45.5575 7.82789 44.8416 C 7.82793 44.8414 7.82796 44.8412 7.828 44.841 L 10.09 31.907 C 10.2175 31.1921 10.8982 30.7141 11.614 30.837 L 13.672 31.197 Z M 31.779 58.992 L 10.479 55.266 C 10.1809 55.2244 9.973 54.9489 10.0146 54.6508 C 10.0563 54.3527 10.3317 54.1448 10.6298 54.1865 C 10.6423 54.1882 10.6547 54.1904 10.667 54.193 C 11.211 54.2879 11.729 53.924 11.824 53.38 L 15.91 30.019 L 25 31.609 L 31.969 52.1 L 31.154 56.759 C 31.1084 57.0203 31.1685 57.289 31.321 57.506 C 31.4737 57.7231 31.7065 57.8706 31.968 57.916 C 32.2646 57.9682 32.4627 58.2509 32.4105 58.5475 C 32.3583 58.8441 32.0756 59.0422 31.779 58.99 Z M 55.689 49.884 C 55.7863 50.1683 55.6347 50.4776 55.3505 50.5748 C 55.3503 50.5749 55.3502 50.5749 55.35 50.575 L 34.877 57.541 C 34.592 57.6385 34.282 57.4865 34.1845 57.2015 C 34.087 56.9165 34.239 56.6065 34.524 56.509 C 35.0469 56.3313 35.3268 55.7634 35.1492 55.2405 C 35.1491 55.2403 35.1491 55.2402 35.149 55.24 L 27.512 32.789 L 28.704 32.384 C 29.7819 33.857 31.8499 34.1773 33.3229 33.0993 C 33.5021 32.9682 33.6677 32.8193 33.817 32.655 C 34.0926 32.9493 34.4192 33.1912 34.781 33.369 C 36.4247 34.1779 38.4129 33.5011 39.2217 31.8574 C 39.61 31.0684 39.6691 30.1575 39.386 29.325 L 39.21 28.81 L 46.092 26.468 L 53.73 48.919 C 53.9075 49.442 54.4753 49.7221 54.9983 49.5446 C 54.9989 49.5444 54.9994 49.5442 55 49.544 C 55.2841 49.4486 55.5919 49.6005 55.689 49.884 Z M 38.216 25.884 L 45.1 23.543 L 45.451 24.575 L 38.57 26.916 Z M 48.483 27.284 L 50.461 26.611 C 51.149 26.3766 51.8967 26.7443 52.1311 27.4323 C 52.1314 27.4332 52.1317 27.4341 52.132 27.435 L 56.361 39.864 C 56.5946 40.5527 56.2263 41.3004 55.538 41.535 L 53.56 42.208 Z M 50.2 23.44 C 52.1004 22.7934 54.1652 23.8097 54.812 25.71 L 59.534 39.6 C 60.1775 41.4997 59.1621 43.5618 57.264 44.21 L 54.555 45.132 L 54.2 44.1 L 56.179 43.427 C 57.9116 42.8348 58.838 40.952 58.25 39.218 L 54.02 26.788 C 53.4273 25.0563 51.5459 24.1299 49.812 24.716 L 47.834 25.389 L 47.484 24.358 Z M 30.672 23.64 C 31.4567 22.3412 32.9682 21.6697 34.458 21.958 C 34.8633 22.0359 35.2748 21.8567 35.494 21.507 C 36.1202 20.5001 37.0767 19.7419 38.2 19.362 C 40.5418 18.5687 43.1179 19.54 44.353 21.682 L 36.621 24.313 C 36.0995 24.4924 35.8217 25.0601 36 25.582 L 37.492 29.969 C 37.7017 30.6655 37.307 31.4001 36.6105 31.6097 C 35.9489 31.8089 35.2457 31.4628 35 30.817 L 34.5 29.355 C 34.3391 28.8267 33.7803 28.5289 33.252 28.6898 C 32.7237 28.8508 32.4259 29.4095 32.5868 29.9379 C 32.5932 29.9588 32.6003 29.9795 32.608 30 C 32.8293 30.6929 32.4471 31.434 31.7542 31.6553 C 31.0788 31.8711 30.3537 31.5133 30.114 30.846 L 29.114 27.921 C 28.9359 27.3988 28.3684 27.1196 27.846 27.297 L 26.017 27.919 C 25.9353 26.3051 26.931 24.8319 28.459 24.306 C 28.8805 24.1625 29.3252 24.0991 29.77 24.119 C 30.1353 24.1374 30.481 23.9528 30.669 23.639 Z M 22.609 21.783 C 23.7795 21.9833 24.8439 22.5842 25.62 23.483 C 25.6727 23.5396 25.7317 23.59 25.796 23.633 C 25.0167 24.3637 24.4597 25.2996 24.189 26.333 L 16.889 25.026 C 17.7776 22.72 20.1707 21.3621 22.606 21.782 Z M 4.651 45.069 L 7.18 30.614 C 7.52414 28.6384 9.40466 27.3159 11.3803 27.66 C 11.3822 27.6603 11.3841 27.6607 11.386 27.661 L 14.204 28.153 L 14.017 29.227 L 11.959 28.867 C 10.1545 28.5512 8.43563 29.758 8.11979 31.5625 C 8.11953 31.564 8.11926 31.5655 8.119 31.567 L 5.857 44.5 C 5.54263 46.3057 6.75139 48.0243 8.557 48.339 L 10.615 48.699 L 10.428 49.773 L 7.6 49.275 C 5.62667 48.924 4.30837 47.0438 4.651 45.069 Z"/><path d=" M 13.045 44.941 L 33.126 44.941 L 33.126 46.942 L 13.045 46.942 Z" transform="matrix(0.172307,-0.985043,0.985043,0.172307,-26.146,60.766)"/><path d=" M 21.691 49.882 L 33.613 49.882 L 33.613 51.881 L 21.691 51.881 Z" transform="matrix(0.162654,-0.986683,0.986683,0.162654,-27.05,69.888)"/><path d=" M 7.72 44.009 L 27.8 44.009 L 27.8 46.01 L 7.72 46.01 Z" transform="matrix(0.172256,-0.985052,0.985052,0.172256,-29.636,54.751)"/></svg>