<svg version="1.1" width="682.667" height="682.667" viewBox="0 0 512 511" xmlns="http://www.w3.org/2000/svg" xmlns:xlink="http://www.w3.org/1999/xlink" overflow="hidden"><path d=" M 297.387 287.766 L 307.59 320.594 C 310.621 330.34 304.73 340.613 294.785 342.922 L 259.906 351.016 L 191.207 340.188 L 257.711 241.977" fill="#CDCFE0"/><path d=" M 245.043 499.441 C 243.523 499.988 241.992 500.477 240.461 500.891 C 208.363 509.832 174.336 492.609 162.879 460.742 L 100.324 286.785 L 135.078 287.918 L 238.414 291.277 L 283.742 417.289 C 295.746 450.656 278.418 487.438 245.043 499.441 Z" fill="#2B2F3A"/><path d=" M 245.043 499.441 C 243.523 499.988 241.992 500.477 240.461 500.891 C 221.098 495.496 204.551 481.102 197.23 460.742 L 135.078 287.918 L 238.414 291.277 L 283.742 417.289 C 295.746 450.656 278.418 487.438 245.043 499.441 Z" fill="#575F64"/><path d=" M 398.422 51.2461 L 504.395 51.2461 L 504.395 253.074 L 398.422 253.074 Z" fill="#575F64"/><path d=" M 398.422 193.055 L 504.395 193.055 L 504.395 253.074 L 398.422 253.074 Z" fill="#2B2F3A"/><path d=" M 441.84 279.145 L 160.23 295.949 C 77.4492 300.891 7.60547 235.086 7.60547 152.16 C 7.60547 69.2305 77.4492 3.42578 160.23 8.36719 L 441.84 25.1758 Z" fill="#BDA4E0"/><path d=" M 441.844 218.715 L 441.844 279.141 L 160.23 295.949 C 77.4492 300.887 7.60547 235.086 7.60547 152.164 L 7.60547 152.152 C 7.60547 98.793 36.5313 52.5195 79.2148 27.6211 C 76.7617 32.457 37.3086 55.2422 37.3086 131.875 C 37.3086 175.352 77.4492 230.121 160.23 227.523 Z" fill="#8E66B5"/><g fill="#2B2F3A"><path d=" M 200.641 106.289 L 108.898 106.289 C 100.668 106.289 93.9922 99.6133 93.9922 91.3789 C 93.9922 83.1484 100.668 76.4727 108.898 76.4727 L 200.641 76.4727 C 208.871 76.4727 215.547 83.1484 215.547 91.3789 C 215.547 99.6133 208.871 106.289 200.641 106.289 Z"/><path d=" M 200.641 163.625 L 108.898 163.625 C 100.668 163.625 93.9922 156.953 93.9922 148.719 C 93.9922 140.484 100.668 133.813 108.898 133.813 L 200.641 133.813 C 208.871 133.813 215.547 140.484 215.547 148.719 C 215.547 156.953 208.871 163.625 200.641 163.625 Z"/><path d=" M 200.641 220.965 L 108.898 220.965 C 100.668 220.965 93.9922 214.289 93.9922 206.055 C 93.9922 197.82 100.668 191.148 108.898 191.148 L 200.641 191.148 C 208.871 191.148 215.547 197.82 215.547 206.055 C 215.547 214.289 208.871 220.965 200.641 220.965 Z"/></g><path d=" M 504.395 76.6914 C 508.598 76.6914 512 73.2852 512 69.0859 L 512 51.2461 C 512 47.0469 508.598 43.6406 504.395 43.6406 L 449.441 43.6406 L 449.441 25.1758 C 449.441 21.1523 446.309 17.8242 442.289 17.582 L 160.684 0.777344 C 118.539 -1.73047 78.3945 12.8242 47.6602 41.7773 C 16.9258 70.7344 -2.84217e-14 109.934 -2.84217e-14 152.16 C -2.84217e-14 194.383 16.9258 233.586 47.6602 262.539 C 61.5391 275.613 77.3359 285.746 94.3672 292.703 L 124.957 377.766 C 126.074 380.867 128.996 382.801 132.113 382.801 C 132.969 382.801 133.836 382.652 134.688 382.348 C 138.637 380.926 140.691 376.57 139.27 372.621 L 112.742 298.852 C 125.203 302.133 138.148 303.816 151.352 303.816 C 154.449 303.816 157.566 303.727 160.688 303.539 L 233.191 299.211 L 276.586 419.863 C 287.152 449.23 271.848 481.719 242.477 492.285 C 213.094 502.852 180.598 487.547 170.039 458.172 L 149.395 400.762 C 147.973 396.813 143.617 394.762 139.664 396.18 C 135.715 397.602 133.66 401.957 135.082 405.91 L 155.727 463.32 C 166.25 492.586 193.93 510.84 223.383 510.84 C 231.434 510.84 239.621 509.473 247.621 506.598 C 284.887 493.191 304.301 451.973 290.898 414.715 L 269.953 356.488 L 296.504 350.324 C 303.293 348.75 309.18 344.379 312.648 338.328 C 316.117 332.281 316.922 324.992 314.852 318.332 L 307.527 294.777 L 442.293 286.734 C 446.309 286.492 449.445 283.164 449.445 279.141 L 449.445 260.676 L 504.395 260.676 C 508.598 260.676 512 257.27 512 253.07 L 512 99.5039 C 512 95.3047 508.598 91.8984 504.395 91.8984 C 500.195 91.8984 496.793 95.3047 496.793 99.5039 L 496.793 245.469 L 449.441 245.469 L 449.441 58.8477 L 496.793 58.8477 L 496.793 69.0859 C 496.793 73.2852 500.195 76.6914 504.395 76.6914 Z M 300.328 322.848 C 301.16 325.523 300.852 328.336 299.457 330.766 C 298.063 333.195 295.793 334.879 293.066 335.512 L 264.773 342.082 L 249.012 298.27 L 291.891 295.711 Z M 434.234 271.98 L 159.777 288.359 C 121.859 290.629 85.7422 277.523 58.0898 251.469 C 30.4375 225.418 15.207 190.148 15.207 152.16 C 15.207 114.168 30.4375 78.8984 58.0898 52.8477 C 83.6953 28.7266 116.547 15.707 151.383 15.707 C 154.168 15.707 156.973 15.793 159.777 15.9609 L 434.234 32.3398 Z"/><path d=" M 200.641 68.8711 L 108.898 68.8711 C 96.4883 68.8711 86.3867 78.9688 86.3867 91.3828 C 86.3867 103.797 96.4883 113.895 108.898 113.895 L 200.641 113.895 C 213.051 113.895 223.152 103.793 223.152 91.3828 C 223.152 78.9688 213.055 68.8711 200.641 68.8711 Z M 200.641 98.6836 L 108.898 98.6836 C 104.871 98.6836 101.598 95.4063 101.598 91.3789 C 101.598 87.3555 104.871 84.0781 108.898 84.0781 L 200.641 84.0781 C 204.668 84.0781 207.941 87.3516 207.941 91.3789 C 207.941 95.4102 204.668 98.6836 200.641 98.6836 Z"/><path d=" M 200.641 126.207 L 108.898 126.207 C 96.4883 126.207 86.3867 136.305 86.3867 148.719 C 86.3867 161.133 96.4883 171.23 108.898 171.23 L 200.641 171.23 C 213.051 171.23 223.152 161.133 223.152 148.719 C 223.152 136.305 213.055 126.207 200.641 126.207 Z M 200.641 156.023 L 108.898 156.023 C 104.871 156.023 101.598 152.746 101.598 148.719 C 101.598 144.691 104.871 141.414 108.898 141.414 L 200.641 141.414 C 204.668 141.414 207.941 144.691 207.941 148.719 C 207.941 152.746 204.668 156.023 200.641 156.023 Z"/><path d=" M 200.641 183.543 L 108.898 183.543 C 96.4883 183.543 86.3867 193.645 86.3867 206.055 C 86.3867 218.469 96.4883 228.566 108.898 228.566 L 200.641 228.566 C 213.051 228.566 223.152 218.469 223.152 206.055 C 223.152 193.645 213.055 183.543 200.641 183.543 Z M 200.641 213.359 L 108.898 213.359 C 104.871 213.359 101.598 210.082 101.598 206.055 C 101.598 202.027 104.871 198.75 108.898 198.75 L 200.641 198.75 C 204.668 198.75 207.941 202.027 207.941 206.055 C 207.941 210.082 204.668 213.359 200.641 213.359 Z"/></svg>