<svg version="1.1" width="469.09" height="469.089" viewBox="0 0 469.09 469.089" xmlns="http://www.w3.org/2000/svg" xmlns:xlink="http://www.w3.org/1999/xlink" id="Capa_1" overflow="hidden"><g><g><path d=" M 205.566 181.586 L 11.138 376.013 C 3.906 383.244 0.288 391.906 0.288 401.994 C 0.288 412.274 3.905 420.836 11.138 427.694 L 41.4 458.529 C 48.826 465.572 57.486 469.09 67.381 469.09 C 77.47 469.09 86.035 465.572 93.078 458.529 L 287.787 263.814 C 269.14 256.388 252.631 245.492 238.255 231.123 C 223.887 216.751 212.992 200.239 205.566 181.586 Z M 98.504 396.57 C 94.883 400.184 90.601 401.995 85.654 401.995 C 80.705 401.995 76.423 400.184 72.807 396.57 C 69.19 392.953 67.381 388.672 67.381 383.723 C 67.381 378.779 69.19 374.491 72.807 370.869 C 76.423 367.259 80.702 365.448 85.654 365.448 C 90.604 365.448 94.887 367.259 98.504 370.869 C 102.119 374.49 103.928 378.778 103.928 383.723 C 103.928 388.671 102.119 392.953 98.504 396.57 Z"/><path d=" M 466.379 132.477 C 464.761 130.571 462.523 129.621 459.672 129.621 C 457.961 129.621 451.253 133.002 439.543 139.759 C 427.839 146.514 414.94 154.221 400.858 162.883 C 386.769 171.546 379.251 176.161 378.302 176.733 L 323.196 146.183 L 323.196 82.229 L 406.847 33.975 C 409.892 31.882 411.415 29.217 411.415 25.981 C 411.415 22.747 409.892 20.083 406.847 17.989 C 398.469 12.277 388.237 7.851 376.157 4.711 C 364.07 1.571 352.504 0 341.467 0 C 306.256 0 276.135 12.518 251.109 37.546 C 226.074 62.572 213.565 92.695 213.565 127.906 C 213.565 163.118 226.081 193.24 251.109 218.268 C 276.135 243.294 306.256 255.812 341.467 255.812 C 368.307 255.812 392.909 247.859 415.273 231.97 C 437.633 216.077 453.294 195.378 462.239 169.873 C 466.613 157.122 468.802 147.032 468.802 139.611 C 468.809 136.763 467.994 134.383 466.379 132.477 Z"/></g></g><g></g><g></g><g></g><g></g><g></g><g></g><g></g><g></g><g></g><g></g><g></g><g></g><g></g><g></g><g></g></svg>