<svg version="1.1" width="512" height="512" viewBox="0 0 512 512" xmlns="http://www.w3.org/2000/svg" xmlns:xlink="http://www.w3.org/1999/xlink" id="Capa_1" overflow="hidden"><g><path d=" M 480 141.5 C 475.858 141.5 472.5 144.858 472.5 149 C 472.5 173.054 462.317 229 368 229 C 273.683 229 263.5 173.054 263.5 149 C 263.5 144.858 260.142 141.5 256 141.5 C 251.858 141.5 248.5 144.858 248.5 149 C 248.5 173.054 238.317 229 144 229 C 49.683 229 39.5 173.054 39.5 149 C 39.5 144.858 36.142 141.5 32 141.5 C 27.858 141.5 24.5 144.858 24.5 149 C 24.5 162.341 27.303 187.901 46.074 209.203 C 66.421 232.292 99.369 244 144 244 C 188.631 244 221.579 232.292 241.926 209.203 C 248.277 201.996 252.795 194.302 256 186.758 C 259.205 194.302 263.723 201.996 270.074 209.203 C 290.421 232.292 323.369 244 368 244 C 412.631 244 445.579 232.292 465.926 209.203 C 484.697 187.901 487.5 162.341 487.5 149 C 487.5 144.858 484.142 141.5 480 141.5 Z" fill="#78909C"/><path d=" M 230.5 252 L 76.5 252 C 72.082 252 68.5 248.418 68.5 244 L 68.5 230 C 68.5 225.582 72.082 222 76.5 222 L 230.5 222 C 234.918 222 238.5 225.582 238.5 230 L 238.5 244 C 238.5 248.418 234.918 252 230.5 252 Z" fill="#CFD8DC"/><path d=" M 230.5 453 L 76.5 453 C 72.082 453 68.5 449.418 68.5 445 L 68.5 431 C 68.5 426.582 72.082 423 76.5 423 L 230.5 423 C 234.918 423 238.5 426.582 238.5 431 L 238.5 445 C 238.5 449.418 234.918 453 230.5 453 Z" fill="#CFD8DC"/><path d=" M 230.5 222 L 200.5 222 C 204.918 222 208.5 225.582 208.5 230 L 208.5 244 C 208.5 248.418 204.918 252 200.5 252 L 230.5 252 C 234.918 252 238.5 248.418 238.5 244 L 238.5 230 C 238.5 225.582 234.918 222 230.5 222 Z" fill="#B0BEC5"/><path d=" M 230.5 423 L 200.5 423 C 204.918 423 208.5 426.582 208.5 431 L 208.5 445 C 208.5 449.418 204.918 453 200.5 453 L 230.5 453 C 234.918 453 238.5 449.418 238.5 445 L 238.5 431 C 238.5 426.582 234.918 423 230.5 423 Z" fill="#B0BEC5"/><rect x="81.5" y="252" width="144" height="170.5" fill="#FFC71F"/><rect x="195.5" y="252" width="30" height="170.5" fill="#FFB300"/><path d=" M 435.5 252 L 281.5 252 C 277.082 252 273.5 248.418 273.5 244 L 273.5 230 C 273.5 225.582 277.082 222 281.5 222 L 435.5 222 C 439.918 222 443.5 225.582 443.5 230 L 443.5 244 C 443.5 248.418 439.918 252 435.5 252 Z" fill="#CFD8DC"/><path d=" M 435.5 453 L 281.5 453 C 277.082 453 273.5 449.418 273.5 445 L 273.5 431 C 273.5 426.582 277.082 423 281.5 423 L 435.5 423 C 439.918 423 443.5 426.582 443.5 431 L 443.5 445 C 443.5 449.418 439.918 453 435.5 453 Z" fill="#CFD8DC"/><path d=" M 435.5 222 L 405.5 222 C 409.918 222 413.5 225.582 413.5 230 L 413.5 244 C 413.5 248.418 409.918 252 405.5 252 L 435.5 252 C 439.918 252 443.5 248.418 443.5 244 L 443.5 230 C 443.5 225.582 439.918 222 435.5 222 Z" fill="#B0BEC5"/><path d=" M 435.5 423 L 405.5 423 C 409.918 423 413.5 426.582 413.5 431 L 413.5 445 C 413.5 449.418 409.918 453 405.5 453 L 435.5 453 C 439.918 453 443.5 449.418 443.5 445 L 443.5 431 C 443.5 426.582 439.918 423 435.5 423 Z" fill="#B0BEC5"/><rect x="286.5" y="252" width="144" height="170.5" fill="#FFC71F"/><rect x="400.5" y="252" width="30" height="170.5" fill="#FFB300"/><path d=" M 137.25 279.5 C 137.25 283.64 133.89 287 129.75 287 L 81.75 287 C 81.67 287 81.58 287 81.5 286.99 L 81.5 272.01 C 81.58 272 81.67 272 81.75 272 L 129.75 272 C 133.89 272 137.25 275.36 137.25 279.5 Z" fill="#FF8F00"/><path d=" M 225.5 272.01 L 225.5 286.99 C 225.42 287 225.33 287 225.25 287 L 177.25 287 C 173.11 287 169.75 283.64 169.75 279.5 C 169.75 275.36 173.11 272 177.25 272 L 225.25 272 C 225.33 272 225.42 272 225.5 272.01 Z" fill="#FF8F00"/><path d=" M 137.25 308 C 137.25 312.14 133.89 315.5 129.75 315.5 L 81.75 315.5 C 81.67 315.5 81.58 315.5 81.5 315.49 L 81.5 300.51 C 81.58 300.5 81.67 300.5 81.75 300.5 L 129.75 300.5 C 133.89 300.5 137.25 303.86 137.25 308 Z" fill="#FF8F00"/><path d=" M 225.5 300.51 L 225.5 315.49 C 225.42 315.5 225.33 315.5 225.25 315.5 L 177.25 315.5 C 173.11 315.5 169.75 312.14 169.75 308 C 169.75 303.86 173.11 300.5 177.25 300.5 L 225.25 300.5 C 225.33 300.5 225.42 300.5 225.5 300.51 Z" fill="#FF8F00"/><path d=" M 137.25 336.5 C 137.25 340.64 133.89 344 129.75 344 L 81.75 344 C 81.67 344 81.58 344 81.5 343.99 L 81.5 329.01 C 81.58 329 81.67 329 81.75 329 L 129.75 329 C 133.89 329 137.25 332.36 137.25 336.5 Z" fill="#FF8F00"/><path d=" M 225.5 329.01 L 225.5 343.99 C 225.42 344 225.33 344 225.25 344 L 177.25 344 C 173.11 344 169.75 340.64 169.75 336.5 C 169.75 332.36 173.11 329 177.25 329 L 225.25 329 C 225.33 329 225.42 329 225.5 329.01 Z" fill="#FF8F00"/><path d=" M 137.25 365 C 137.25 369.14 133.89 372.5 129.75 372.5 L 81.75 372.5 C 81.67 372.5 81.58 372.5 81.5 372.49 L 81.5 357.51 C 81.58 357.5 81.67 357.5 81.75 357.5 L 129.75 357.5 C 133.89 357.5 137.25 360.86 137.25 365 Z" fill="#FF8F00"/><path d=" M 225.5 357.51 L 225.5 372.49 C 225.42 372.5 225.33 372.5 225.25 372.5 L 177.25 372.5 C 173.11 372.5 169.75 369.14 169.75 365 C 169.75 360.86 173.11 357.5 177.25 357.5 L 225.25 357.5 C 225.33 357.5 225.42 357.5 225.5 357.51 Z" fill="#FF8F00"/><path d=" M 137.25 393.5 C 137.25 397.64 133.89 401 129.75 401 L 81.75 401 C 81.67 401 81.58 401 81.5 400.99 L 81.5 386.01 C 81.58 386 81.67 386 81.75 386 L 129.75 386 C 133.89 386 137.25 389.36 137.25 393.5 Z" fill="#FF8F00"/><path d=" M 225.5 386.01 L 225.5 400.99 C 225.42 401 225.33 401 225.25 401 L 177.25 401 C 173.11 401 169.75 397.64 169.75 393.5 C 169.75 389.36 173.11 386 177.25 386 L 225.25 386 C 225.33 386 225.42 386 225.5 386.01 Z" fill="#FF8F00"/><path d=" M 342.25 279.5 C 342.25 283.64 338.89 287 334.75 287 L 286.75 287 C 286.67 287 286.58 287 286.5 286.99 L 286.5 272.01 C 286.58 272 286.67 272 286.75 272 L 334.75 272 C 338.89 272 342.25 275.36 342.25 279.5 Z" fill="#FF8F00"/><path d=" M 430.5 272.01 L 430.5 286.99 C 430.42 287 430.33 287 430.25 287 L 382.25 287 C 378.11 287 374.75 283.64 374.75 279.5 C 374.75 275.36 378.11 272 382.25 272 L 430.25 272 C 430.33 272 430.42 272 430.5 272.01 Z" fill="#FF8F00"/><path d=" M 342.25 308 C 342.25 312.14 338.89 315.5 334.75 315.5 L 286.75 315.5 C 286.67 315.5 286.58 315.5 286.5 315.49 L 286.5 300.51 C 286.58 300.5 286.67 300.5 286.75 300.5 L 334.75 300.5 C 338.89 300.5 342.25 303.86 342.25 308 Z" fill="#FF8F00"/><path d=" M 430.5 300.51 L 430.5 315.49 C 430.42 315.5 430.33 315.5 430.25 315.5 L 382.25 315.5 C 378.11 315.5 374.75 312.14 374.75 308 C 374.75 303.86 378.11 300.5 382.25 300.5 L 430.25 300.5 C 430.33 300.5 430.42 300.5 430.5 300.51 Z" fill="#FF8F00"/><path d=" M 342.25 336.5 C 342.25 340.64 338.89 344 334.75 344 L 286.75 344 C 286.67 344 286.58 344 286.5 343.99 L 286.5 329.01 C 286.58 329 286.67 329 286.75 329 L 334.75 329 C 338.89 329 342.25 332.36 342.25 336.5 Z" fill="#FF8F00"/><path d=" M 430.5 329.01 L 430.5 343.99 C 430.42 344 430.33 344 430.25 344 L 382.25 344 C 378.11 344 374.75 340.64 374.75 336.5 C 374.75 332.36 378.11 329 382.25 329 L 430.25 329 C 430.33 329 430.42 329 430.5 329.01 Z" fill="#FF8F00"/><path d=" M 342.25 365 C 342.25 369.14 338.89 372.5 334.75 372.5 L 286.75 372.5 C 286.67 372.5 286.58 372.5 286.5 372.49 L 286.5 357.51 C 286.58 357.5 286.67 357.5 286.75 357.5 L 334.75 357.5 C 338.89 357.5 342.25 360.86 342.25 365 Z" fill="#FF8F00"/><path d=" M 430.5 357.51 L 430.5 372.49 C 430.42 372.5 430.33 372.5 430.25 372.5 L 382.25 372.5 C 378.11 372.5 374.75 369.14 374.75 365 C 374.75 360.86 378.11 357.5 382.25 357.5 L 430.25 357.5 C 430.33 357.5 430.42 357.5 430.5 357.51 Z" fill="#FF8F00"/><path d=" M 342.25 393.5 C 342.25 397.64 338.89 401 334.75 401 L 286.75 401 C 286.67 401 286.58 401 286.5 400.99 L 286.5 386.01 C 286.58 386 286.67 386 286.75 386 L 334.75 386 C 338.89 386 342.25 389.36 342.25 393.5 Z" fill="#FF8F00"/><path d=" M 430.5 386.01 L 430.5 400.99 C 430.42 401 430.33 401 430.25 401 L 382.25 401 C 378.11 401 374.75 397.64 374.75 393.5 C 374.75 389.36 378.11 386 382.25 386 L 430.25 386 C 430.33 386 430.42 386 430.5 386.01 Z" fill="#FF8F00"/><path d=" M 267 162.5 L 245 162.5 C 242.791 162.5 241 160.709 241 158.5 L 241 116.5 C 241 114.291 242.791 112.5 245 112.5 L 267 112.5 C 269.209 112.5 271 114.291 271 116.5 L 271 158.5 C 271 160.709 269.209 162.5 267 162.5 Z" fill="#90A4AE"/><path d=" M 42 159 L 22 159 C 16.477 159 12 154.523 12 149 L 12 115 L 52 115 L 52 149 C 52 154.523 47.523 159 42 159 Z" fill="#B0BEC5"/><path d=" M 42 159 L 22 159 C 16.477 159 12 154.523 12 149 L 12 115 L 52 115 L 52 149 C 52 154.523 47.523 159 42 159 Z" fill="#B0BEC5"/><path d=" M 490 159 L 470 159 C 464.477 159 460 154.523 460 149 L 460 115 L 500 115 L 500 149 C 500 154.523 495.523 159 490 159 Z" fill="#B0BEC5"/><path d=" M 32 59 C 14.355 59 0 73.355 0 91 C 0 108.645 14.355 123 32 123 C 49.645 123 64 108.645 64 91 C 64 73.355 49.645 59 32 59 Z M 32 108 C 22.626 108 15 100.374 15 91 C 15 81.626 22.626 74 32 74 C 41.374 74 49 81.626 49 91 C 49 100.374 41.374 108 32 108 Z" fill="#78909C"/><path d=" M 480 59 C 462.355 59 448 73.355 448 91 C 448 108.645 462.355 123 480 123 C 497.645 123 512 108.645 512 91 C 512 73.355 497.645 59 480 59 Z M 480 108 C 470.626 108 463 100.374 463 91 C 463 81.626 470.626 74 480 74 C 489.374 74 497 81.626 497 91 C 497 100.374 489.374 108 480 108 Z" fill="#78909C"/></g></svg>