<svg version="1.1" viewBox="0 0 512 512" xmlns="http://www.w3.org/2000/svg" xmlns:xlink="http://www.w3.org/1999/xlink" id="Layer_1" overflow="hidden"><g><g><rect x="408" y="72" width="88" height="32" fill="#FFEBB7"/></g><g><rect x="392" y="120" width="88" height="32" fill="#FFEBB7"/></g><g><g><path d=" M 176 264 C 171.578 264 168 260.422 168 256 L 168 224 C 168 219.578 171.578 216 176 216 C 180.422 216 184 219.578 184 224 L 184 256 C 184 260.422 180.421 264 176 264 Z" fill="#5C546A"/></g></g><g><g><path d=" M 335.999 264 C 331.577 264 327.999 260.422 327.999 256 L 327.999 224 C 327.999 219.578 331.577 216 335.999 216 C 340.421 216 343.999 219.578 343.999 224 L 343.999 256 C 343.999 260.422 340.421 264 335.999 264 Z" fill="#5C546A"/></g></g><g><path d=" M 343.999 88 L 168 88 C 154.766 88 144 98.766 144 112 L 144 208 C 144 221.234 154.766 232 168 232 L 344 232 C 357.234 232 368 221.234 368 208 L 368 112 C 367.999 98.766 357.234 88 343.999 88 Z" fill="#996459"/></g><g><g><path d=" M 152 424 C 147.578 424 144 420.422 144 416 L 144 288 C 144 283.578 147.578 280 152 280 C 156.422 280 160 283.578 160 288 L 160 416 C 160 420.422 156.421 424 152 424 Z" fill="#5C546A"/></g></g><g><g><path d=" M 32 424 C 27.578 424 24 420.422 24 416 L 24 192 C 24 187.578 27.578 184 32 184 C 36.422 184 40 187.578 40 192 L 40 416 C 40 420.422 36.421 424 32 424 Z" fill="#7E5C62"/></g></g><g><path d=" M 32 408 L 32 408 C 23.163 408 16 415.163 16 424 L 16 440 C 16 444.418 19.582 448 24 448 L 40 448 C 44.418 448 48 444.418 48 440 L 48 424 C 48 415.163 40.837 408 32 408 Z" fill="#996459"/></g><g><g><path d=" M 479.999 424 C 475.577 424 471.999 420.422 471.999 416 L 471.999 192 C 471.999 187.578 475.577 184 479.999 184 C 484.421 184 487.999 187.578 487.999 192 L 487.999 416 C 487.999 420.422 484.421 424 479.999 424 Z" fill="#7E5C62"/></g></g><g><path d=" M 480 408 L 480 408 C 471.163 408 464 415.163 464 424 L 464 440 C 464 444.418 467.582 448 472 448 L 488 448 C 492.418 448 496 444.418 496 440 L 496 424 C 496 415.163 488.836 408 480 408 Z" fill="#996459"/></g><g><g><path d=" M 359.999 424 C 355.577 424 351.999 420.422 351.999 416 L 351.999 288 C 351.999 283.578 355.577 280 359.999 280 C 364.421 280 367.999 283.578 367.999 288 L 367.999 416 C 367.999 420.422 364.421 424 359.999 424 Z" fill="#5C546A"/></g></g><g><g><path d=" M 359.999 368 L 152 368 C 147.578 368 144 364.422 144 360 C 144 355.578 147.578 352 152 352 L 360 352 C 364.422 352 368 355.578 368 360 C 368 364.422 364.421 368 359.999 368 Z" fill="#5C546A"/></g></g><g><g><path d=" M 480.219 160 L 408.219 160 C 394.985 160 384.219 149.234 384.219 136 C 384.219 122.766 394.985 112 408.219 112 L 480.219 112 C 484.641 112 488.219 115.578 488.219 120 C 488.219 124.422 484.641 128 480.219 128 L 408.219 128 C 403.805 128 400.219 131.586 400.219 136 C 400.219 140.414 403.805 144 408.219 144 L 480.219 144 C 484.641 144 488.219 147.578 488.219 152 C 488.219 156.422 484.64 160 480.219 160 Z" fill="#4BB9EC"/></g></g><g><g><path d=" M 496.219 112 L 424.219 112 C 410.985 112 400.219 101.234 400.219 88 C 400.219 74.766 410.985 64 424.219 64 L 496.219 64 C 500.641 64 504.219 67.578 504.219 72 C 504.219 76.422 500.641 80 496.219 80 L 424.219 80 C 419.805 80 416.219 83.586 416.219 88 C 416.219 92.414 419.805 96 424.219 96 L 496.219 96 C 500.641 96 504.219 99.578 504.219 104 C 504.219 108.422 500.64 112 496.219 112 Z" fill="#FF4F19"/></g></g><g><g><path d=" M 96 120 C 91.578 120 88 116.422 88 112 L 88 72 C 88 67.578 91.578 64 96 64 C 100.422 64 104 67.578 104 72 L 104 112 C 104 116.422 100.422 120 96 120 Z" fill="#FF4F19"/></g></g><g><g><path d=" M 80 128 C 75.578 128 72 124.422 72 120 L 72 80 C 72 75.578 75.578 72 80 72 C 84.422 72 88 75.578 88 80 L 88 120 C 88 124.422 84.422 128 80 128 Z" fill="#00C37A"/></g></g><g><path d=" M 496 192 L 360.22 192 L 16 192 C 7.163 192 0 184.837 0 176 L 0 176 C 0 167.163 7.163 160 16 160 L 496 160 C 504.837 160 512 167.163 512 176 L 512 176 C 512 184.836 504.836 192 496 192 Z" fill="#E6BE94"/></g><g><path d=" M 151.781 408 L 151.781 408 C 142.944 408 135.781 415.163 135.781 424 L 135.781 440 C 135.781 444.418 139.363 448 143.781 448 L 159.781 448 C 164.199 448 167.781 444.418 167.781 440 L 167.781 424 C 167.781 415.163 160.617 408 151.781 408 Z" fill="#868491"/></g><g><path d=" M 359.781 408 L 359.781 408 C 350.944 408 343.781 415.163 343.781 424 L 343.781 440 C 343.781 444.418 347.363 448 351.781 448 L 367.781 448 C 372.199 448 375.781 444.418 375.781 440 L 375.781 424 C 375.781 415.163 368.617 408 359.781 408 Z" fill="#868491"/></g><g><path d=" M 368 288 L 144 288 C 135.163 288 128 280.837 128 272 L 128 264 C 128 259.582 131.582 256 136 256 L 376 256 C 380.418 256 384 259.582 384 264 L 384 272 C 384 280.836 376.836 288 368 288 Z" fill="#7E5C62"/></g><g><path d=" M 107.388 104 L 60.612 104 C 58.178 104 56.308 106.156 56.652 108.566 L 64 160 L 104 160 L 111.348 108.566 C 111.692 106.156 109.822 104 107.388 104 Z" fill="#5C546A"/></g><g><path d=" M 107.388 104 L 84 104 L 84 160 L 104 160 L 111.348 108.565 C 111.692 106.156 109.822 104 107.388 104 Z" fill="#868491"/></g></g><g></g><g></g><g></g><g></g><g></g><g></g><g></g><g></g><g></g><g></g><g></g><g></g><g></g><g></g><g></g></svg>