<svg version="1.1" width="638.667" height="638.667" viewBox="1 0 480 479" xmlns="http://www.w3.org/2000/svg" xmlns:xlink="http://www.w3.org/1999/xlink" overflow="hidden"><path d=" M 147.52 281.621 L 147.441 281.621 L 88 256.5 L 88 176.5 C 88 83.7148 163.215 8.5 256 8.5 L 272 8.5 C 341.906 8.46875 404.508 51.7891 429.121 117.219 C 431.395 123.086 433.266 129.098 434.719 135.219 C 435.281 137.141 435.758 139.059 436.16 141.059 C 436.512 142.266 436.777 143.496 436.961 144.738 C 437.121 145.461 437.199 146.102 437.359 146.82 C 438.16 151.539 438.879 156.262 439.281 161.059 C 439.52 163.301 439.68 165.539 439.758 167.859 C 439.918 170.738 440 173.621 440 176.5 L 411.758 179.461 L 332.398 187.859 C 331.613 187.91 330.836 188.043 330.078 188.262 C 305.914 191.938 288.043 212.695 288 237.141 C 288.043 250.527 284.148 263.629 276.801 274.82 C 270.191 285.02 261.035 293.316 250.238 298.898 L 248 297.844 C 222.879 286.414 195.598 280.5 168 280.5 C 162.641 280.5 157.305 280.723 152 281.164 Z" fill="#F35244"/><path d=" M 189.063 67.4375 L 180.672 53.8359 C 186.285 50.3789 192.133 47.3086 198.168 44.6523 L 204.566 59.293 C 199.223 61.6523 194.043 64.375 189.063 67.4375 Z" fill="#FC685B"/><path d=" M 128.176 169.637 L 112.176 168.789 C 114.438 127.582 134.258 89.3203 166.609 63.6992 L 176.551 76.2266 C 147.805 99.0078 130.191 133.012 128.176 169.637 Z" fill="#FC685B"/><path d=" M 440 176.5 C 440.004 149.645 433.531 123.188 421.137 99.3633 L 400 120.5 L 411.793 179.469 Z" fill="#E0E0DE"/><path d=" M 184 168.5 L 224 192.5 L 208 232.5 L 176 200.5 Z" fill="#7A432A"/><path d=" M 472 280.5 L 461.359 280.5 L 463.359 256.5 L 472 256.5 C 476.418 256.5 480 252.918 480 248.5 C 480 244.082 476.418 240.5 472 240.5 L 357.602 240.5 L 331.289 168.148 L 456.984 152.438 C 459.871 152.145 462.375 150.309 463.527 147.645 C 464.676 144.977 464.289 141.898 462.52 139.598 C 460.75 137.297 457.871 136.137 455 136.563 L 277.602 158.738 C 265.484 160.262 255.293 168.547 251.328 180.094 L 248.535 189.805 C 248.48 189.98 248.441 190.141 248.391 190.316 L 237.016 230.004 C 233.297 243.023 238.164 256.977 249.176 264.859 L 291.383 295.012 C 292.73 295.973 294.344 296.492 296 296.5 L 359.566 296.5 L 370.945 330.621 C 375.285 343.695 387.52 352.512 401.297 352.5 L 448 352.5 C 452.172 352.516 455.652 349.32 456 345.164 L 460 296.5 L 472 296.5 C 476.418 296.5 480 292.918 480 288.5 C 480 284.082 476.418 280.5 472 280.5 Z M 447.305 256.5 L 445.305 280.5 L 371.098 280.5 L 363.098 256.5 Z M 279.551 174.621 L 315.008 170.188 L 340.574 240.5 L 322.977 240.5 L 265.121 189.852 L 266.504 185.051 C 268.535 179.391 273.582 175.355 279.551 174.621 Z M 298.559 280.5 L 258.441 251.836 C 252.93 247.898 250.496 240.922 252.359 234.41 L 260.254 206.852 L 314.727 254.516 C 316.188 255.793 318.059 256.5 320 256.5 L 346.23 256.5 L 354.23 280.5 Z M 440.641 336.5 L 401.297 336.5 C 394.398 336.508 388.273 332.098 386.098 325.555 L 376.434 296.5 L 444 296.5 Z" fill="#D6D6D4"/><path d=" M 167.465 280.5 C 116.238 280.781 67.2227 301.402 31.1992 337.828 L 19.1992 350.012 C 11.9805 357.289 7.94922 367.137 8 377.387 C 8.05859 387.633 12.1797 397.434 19.4648 404.637 L 31.6563 416.684 C 68.0742 452.707 117.313 472.785 168.535 472.5 C 219.762 472.219 268.777 451.598 304.801 415.172 L 316.801 402.988 C 324.02 395.711 328.047 385.863 328 375.613 C 327.941 365.367 323.82 355.566 316.535 348.363 L 304.344 336.316 C 267.926 300.293 218.688 280.215 167.465 280.5 Z" fill="#95573A"/><path d=" M 47.7031 323.035 L 48.3047 431.301 C 60.6445 440.984 74.125 449.121 88.4414 455.539 L 87.5664 298.348 C 73.3242 304.922 59.9336 313.211 47.7031 323.035 Z" fill="#E0E0DE"/><path d=" M 247.559 297.461 L 248.434 454.652 C 262.676 448.074 276.063 439.785 288.297 429.965 L 287.695 321.699 C 275.352 312.016 261.875 303.875 247.559 297.461 Z" fill="#E0E0DE"/><path d=" M 248 408.898 C 222.992 414.008 197.527 416.555 172 416.5 C 143.734 416.582 115.551 413.434 88 407.117 L 88 455.117 C 77.3633 450.281 67.1875 444.484 57.6016 437.805 C 123.898 484.09 212.035 484.09 278.336 437.805 C 268.77 444.477 258.613 450.266 248 455.102 Z" fill="#8F4D2E"/><path d=" M 8.12891 375.211 C 8.12891 375.645 8 376.059 8 376.5 C 8 386.742 12.0703 396.566 19.3125 403.813 L 31.4336 415.934 C 36.6719 421.145 42.2031 426.055 48 430.637 L 48 394.898 C 34.1094 389.633 20.7578 383.039 8.12891 375.211 Z" fill="#8F4D2E"/><path d=" M 288 430.637 C 293.797 426.055 299.328 421.145 304.566 415.934 L 316.688 403.813 C 322.984 397.434 326.859 389.059 327.641 380.133 C 314.973 387.191 301.707 393.121 288 397.852 Z" fill="#8F4D2E"/><path d=" M 88 407.117 C 74.3984 403.973 61.0352 399.891 48 394.898 L 48 430.613 C 51.0234 433.008 54.1133 435.305 57.2656 437.508 L 57.6328 437.766 C 67.207 444.453 77.3711 450.254 88 455.102 Z" fill="#D6D6D4"/><path d=" M 248 408.898 L 248 455.102 C 258.637 450.266 268.813 444.469 278.398 437.789 L 278.77 437.531 C 281.918 435.324 285.008 433.023 288.031 430.637 L 288.031 397.836 C 274.945 402.402 261.574 406.102 248 408.898 Z" fill="#D6D6D4"/><g fill="#E0E0DE"><path d=" M 223.953 368.188 L 207.953 368.277 L 207.863 352.277 L 191.863 352.363 L 191.953 368.363 L 175.953 368.453 L 175.863 352.461 L 159.863 352.547 L 159.953 368.547 L 143.961 368.637 L 143.863 352.637 L 127.863 352.723 L 127.961 368.723 L 111.961 368.813 L 112.047 384.813 L 128.047 384.723 L 128.137 400.723 L 144.137 400.637 L 144.047 384.637 L 160.047 384.547 L 160.137 400.539 L 176.137 400.453 L 176.047 384.453 L 192.039 384.363 L 192.137 400.363 L 208.137 400.277 L 208.039 384.277 L 224.039 384.188 Z"/><path d=" M 256 120.5 L 272 120.5 L 272 136.5 L 256 136.5 Z"/><path d=" M 176 248.5 L 192 248.5 L 192 264.5 L 176 264.5 Z"/><path d=" M 147.52 281.621 L 147.441 281.621 L 88 256.5 L 88 195.699 L 131.039 225.859 C 144.156 235.027 151.98 250.016 152 266.02 L 152 281.219"/></g><path d=" M 167.465 264.5 C 162.266 264.5 157.105 264.852 151.953 265.301 C 151.953 265.547 152 265.781 152 266.027 L 152 281.172 C 157.305 280.723 162.641 280.5 168 280.5 C 195.598 280.5 222.879 286.414 248 297.844 L 250.238 298.898 C 255.078 296.344 259.609 293.246 263.742 289.66 C 234.398 273.008 201.203 264.332 167.465 264.5 Z" fill="#EA4A3B"/><path d=" M 151.953 265.301 C 141.516 266.18 131.172 267.906 121.016 270.461 L 147.414 281.66 L 147.496 281.66 L 151.977 281.203 L 151.977 266.02 C 152 265.773 152 265.539 151.953 265.301 Z" fill="#D6D6D4"/><path d=" M 204.609 59.2695 L 198.207 44.6289 C 192.172 47.2852 186.328 50.3555 180.711 53.8125 L 189.105 67.4102 C 194.082 64.3477 199.262 61.6289 204.609 59.2695 Z"/><path d=" M 112.199 168.789 L 128.199 169.637 C 130.211 133.004 147.82 98.9883 176.574 76.2031 L 166.609 63.6992 C 134.266 89.3242 114.457 127.586 112.199 168.789 Z"/><path d=" M 472 256.5 C 476.418 256.5 480 252.918 480 248.5 C 480 244.082 476.418 240.5 472 240.5 L 357.602 240.5 L 341.047 194.996 L 440.801 184.5 C 444.902 184.086 448.02 180.625 448 176.5 C 448 173.477 447.918 170.445 447.758 167.578 C 447.758 167.402 447.758 167.25 447.758 167.074 C 447.695 165.875 447.602 164.676 447.512 163.484 C 447.434 162.461 447.398 161.355 447.297 160.387 C 447.223 159.586 447.113 158.844 447.023 158.051 C 446.871 156.613 446.719 155.18 446.535 153.746 L 457.031 152.438 C 459.922 152.145 462.426 150.309 463.574 147.645 C 464.723 144.977 464.34 141.898 462.566 139.598 C 460.797 137.297 457.918 136.137 455.047 136.563 L 443.719 137.98 C 441.043 126.18 437.145 114.691 432.086 103.699 C 431.289 102.027 430.488 100.387 429.688 98.7383 C 429.191 97.7383 428.742 96.7148 428.223 95.707 C 428.168 95.5977 428.039 95.5313 427.969 95.4102 C 397.621 37.2813 337.574 0.742188 272 0.5 L 256 0.5 C 158.844 0.609375 80.1094 79.3438 80 176.5 L 80 256.5 C 80 259.715 81.9258 262.617 84.8867 263.867 L 108.887 274.012 L 115.113 259.277 L 96 251.195 L 96 211.074 L 126.449 232.41 C 135.148 238.48 141.156 247.691 143.199 258.102 L 158.895 254.98 C 156.035 240.539 147.691 227.77 135.617 219.348 L 96 191.539 L 96 176.5 C 96.1016 88.1758 167.676 16.6016 256 16.5 L 272 16.5 C 329.672 16.6719 382.828 47.7383 411.289 97.8984 L 394.344 114.844 C 392.461 116.73 391.645 119.43 392.16 122.043 L 396.52 143.852 L 277.602 158.738 C 265.484 160.262 255.293 168.547 251.328 180.094 L 248.535 189.805 C 248.48 189.98 248.441 190.141 248.391 190.316 L 237.016 230.004 C 233.297 243.023 238.164 256.977 249.176 264.859 L 291.383 295.012 C 292.73 295.973 294.344 296.492 296 296.5 L 359.566 296.5 L 370.945 330.621 C 375.285 343.695 387.52 352.512 401.297 352.5 L 448 352.5 C 452.172 352.516 455.652 349.32 456 345.164 L 460 296.5 L 472 296.5 C 476.418 296.5 480 292.918 480 288.5 C 480 284.082 476.418 280.5 472 280.5 L 461.359 280.5 L 463.359 256.5 Z M 340.574 240.5 L 322.977 240.5 L 299.688 220.125 C 304.52 209.367 313.715 201.184 324.961 197.637 Z M 418.176 170.746 L 415.551 157.613 L 430.582 155.73 L 430.582 155.844 C 431.145 160.156 431.551 164.5 431.758 168.883 L 431.758 169.316 L 420.391 170.516 Z M 408.648 123.133 L 418.68 113.102 C 419.098 114.051 419.48 115.02 419.895 115.988 C 421.055 118.789 422.152 121.586 423.137 124.445 C 423.527 125.563 423.938 126.691 424.305 127.797 C 425.191 130.555 425.902 133.348 426.648 136.148 C 426.758 136.586 426.902 137.012 427.008 137.469 C 427.246 138.27 427.465 139.066 427.688 139.973 L 412.398 141.883 Z M 402.199 172.438 L 335.391 179.492 L 331.266 168.148 L 399.633 159.605 Z M 279.52 174.621 L 314.977 170.188 L 319.496 182.621 C 305.813 187.164 294.34 196.688 287.352 209.301 L 265.121 189.852 L 266.504 185.051 C 268.535 179.391 273.582 175.355 279.551 174.621 Z M 252.32 234.41 L 260.215 206.852 L 281.352 225.348 C 280.492 229.223 280.039 233.172 280 237.141 C 280.004 246.113 278.023 254.977 274.199 263.094 L 258.441 251.836 C 252.93 247.898 250.496 240.922 252.359 234.41 Z M 298.559 280.5 L 287.266 272.43 C 292.805 261.82 295.773 250.063 295.938 238.102 L 314.727 254.547 C 316.191 255.816 318.063 256.508 320 256.5 L 346.23 256.5 L 354.23 280.5 Z M 440.641 336.5 L 401.297 336.5 C 394.398 336.508 388.273 332.098 386.098 325.555 L 376.434 296.5 L 444 296.5 Z M 445.305 280.5 L 371.098 280.5 L 363.098 256.5 L 447.305 256.5 Z"/><path d=" M 256 120.5 L 272 120.5 L 272 136.5 L 256 136.5 Z"/><path d=" M 176 248.5 L 192 248.5 L 192 264.5 L 176 264.5 Z"/><path d=" M 176.238 166.555 L 168.238 198.555 C 167.559 201.281 168.355 204.168 170.344 206.156 L 202.344 238.156 C 203.844 239.656 205.879 240.5 208 240.5 C 208.539 240.5 209.074 240.441 209.602 240.332 C 212.234 239.793 214.422 237.969 215.422 235.477 L 231.422 195.477 C 232.883 191.828 231.48 187.664 228.113 185.645 L 188.113 161.645 C 185.938 160.34 183.277 160.141 180.934 161.109 C 178.594 162.078 176.848 164.098 176.23 166.555 Z M 189.145 180.914 L 214.039 195.852 L 205.078 218.25 L 184.855 198.027 Z"/><path d=" M 25.7773 421.586 C 104.324 500.137 231.676 500.137 310.223 421.586 L 322.344 409.469 C 340.551 391.262 340.551 361.738 322.344 343.531 L 310.223 331.41 C 231.676 252.863 104.324 252.863 25.7773 331.41 L 13.6563 343.531 C -4.55078 361.738 -4.55078 391.262 13.6563 409.469 Z M 59.6406 323.699 C 62.2969 321.781 64.9453 319.828 67.6953 318.051 L 67.8086 317.988 C 71.7773 315.43 75.8398 313.027 80 310.789 L 80 442.188 C 75.8672 439.957 71.8164 437.559 67.8477 434.988 L 67.6875 434.891 C 64.9453 433.117 62.3047 431.172 59.6484 429.293 C 58.4219 428.395 57.2461 427.5 56 426.578 L 56 326.438 C 57.1992 325.516 58.3984 324.621 59.6406 323.699 Z M 256 442.188 L 256 310.813 C 260.16 313.051 264.227 315.453 268.199 318.012 L 268.305 318.066 C 271.055 319.844 273.703 321.797 276.359 323.715 C 277.582 324.605 278.758 325.5 280 326.418 L 280 426.563 C 278.793 427.484 277.602 428.379 276.352 429.277 C 273.695 431.188 271.055 433.133 268.352 434.875 L 268.191 434.973 C 264.191 437.547 260.145 439.957 256 442.188 Z M 311.031 354.844 C 322.988 366.805 322.988 386.195 311.031 398.156 L 298.91 410.277 C 297.977 411.203 296.953 412.004 296 412.914 L 296 340.117 C 296.953 341.027 297.977 341.828 298.91 342.754 Z M 240 303.027 L 240 449.973 C 193.953 469.344 142.047 469.344 96 449.973 L 96 303.027 C 142.047 283.656 193.953 283.656 240 303.027 Z M 24.9688 354.844 L 37.0859 342.723 C 38.0234 341.797 39.0469 340.996 40 340.082 L 40 412.883 C 39.0469 411.973 38.0234 411.172 37.0859 410.242 L 24.9688 398.156 C 13.0117 386.195 13.0117 366.805 24.9688 354.844 Z"/><path d=" M 112 384.5 L 128 384.5 L 128 400.5 L 144 400.5 L 144 384.5 L 160 384.5 L 160 400.5 L 176 400.5 L 176 384.5 L 192 384.5 L 192 400.5 L 208 400.5 L 208 384.5 L 224 384.5 L 224 368.5 L 208 368.5 L 208 352.5 L 192 352.5 L 192 368.5 L 176 368.5 L 176 352.5 L 160 352.5 L 160 368.5 L 144 368.5 L 144 352.5 L 128 352.5 L 128 368.5 L 112 368.5 Z"/></svg>