<svg version="1.1" width="682.667" height="682.667" viewBox="0 0 512 512.002" xmlns="http://www.w3.org/2000/svg" xmlns:xlink="http://www.w3.org/1999/xlink" overflow="hidden"><path d=" M 119.859 119.258 L 119.859 247.629 L 232.219 311.813 L 344.578 247.629 L 344.578 119.258 L 232.219 55.0742 Z" fill="#FFDA30"/><path d=" M 232.219 311.957 L 232.219 440.324 L 344.578 504.508 L 456.938 440.324 L 456.938 311.957 L 344.578 247.77 Z" fill="#F7CA00"/><path d=" M 7.5 311.957 L 7.5 440.324 L 119.859 504.508 L 232.219 440.324 L 232.219 311.957 L 119.859 247.77 Z" fill="#FFE469"/><path d=" M 309.555 188.667 L 309.555 226.167 L 275.398 245.678" stroke="#000000" stroke-width="15" stroke-linecap="round" stroke-linejoin="round" stroke-miterlimit="10" fill="#FFFFFF" transform="matrix(1,0,0,1,-0.12501,0.00123)"/><path d=" M 360.734 48.4063 C 339.941 15.918 307.785 -0.628906 288.914 11.4492 C 270.043 23.5273 271.602 59.6563 292.398 92.1445 C 313.191 124.633 345.344 141.18 364.215 129.102 C 383.086 117.023 381.527 80.8945 360.734 48.4063 Z" fill="#CBE6F7"/><path d=" M 342.223 115.551 C 265.578 113.035 202 155.164 200.211 209.645 C 198.422 264.125 259.105 310.332 335.746 312.844 C 412.391 315.359 475.973 273.234 477.758 218.75 C 479.547 164.27 418.863 118.066 342.223 115.551 Z" fill="#FFE469"/><path d=" M 359.742 116.93 C 404.801 134.594 435.02 169.094 433.75 207.77 C 431.961 262.25 368.383 304.375 291.742 301.855 C 285.801 301.664 279.949 301.203 274.223 300.5 C 292.633 307.715 313.512 312.129 335.742 312.855 C 412.383 315.375 475.965 273.25 477.75 218.77 C 479.402 168.516 427.895 125.305 359.742 116.93 Z" fill="#FFDA30"/><path d=" M 380.738 122.441 L 379.309 120.383 C 367.543 117.66 355.109 115.996 342.219 115.57 C 319.832 114.836 298.563 117.918 279.617 123.996 C 280.938 125.422 358.52 209.797 274.645 300.391 L 274.445 300.586 C 292.801 307.754 313.602 312.133 335.742 312.859 C 348.352 313.273 360.598 312.473 372.281 310.613 L 374.629 308.527 C 454.063 217.992 380.738 122.441 380.738 122.441 Z" fill="#9E9E9E"/><path d=" M 341.215 312.953 C 346.703 312.98 352.195 312.781 357.668 312.348 C 362.453 311.965 367.516 310.613 372.281 310.613 L 374.629 308.527 C 386.074 295.484 394.332 282.34 400.109 269.387 C 373.938 290.527 334.91 303.273 291.742 301.855 C 285.895 301.664 280.145 301.215 274.504 300.531 C 284.512 305.586 297.332 308.059 308.457 310.035 C 319.262 311.953 330.242 312.895 341.215 312.953 Z" fill="#828282"/><path d=" M 429.859 16.0859 C 411.824 2.79688 378.652 17.1992 355.773 48.25 C 332.891 79.3047 328.965 115.254 347.004 128.543 C 365.039 141.832 398.211 127.434 421.09 96.3789 C 443.973 65.3242 447.898 29.3789 429.859 16.0859 Z" fill="#BEE1F7"/><path d=" M 429.863 420.578 L 429.863 383.078 C 429.863 373.445 414.863 373.434 414.863 383.078 L 414.863 416.223 L 384.488 433.574 C 376.113 438.359 383.602 451.355 391.93 446.602 L 426.086 427.09 C 428.422 425.754 429.863 423.266 429.863 420.578 Z"/><path d=" M 163.496 447.02 C 164.758 447.02 166.039 446.699 167.211 446.031 L 201.367 426.52 C 203.703 425.184 205.148 422.695 205.148 420.004 L 205.148 382.508 C 205.148 372.875 190.148 372.863 190.148 382.508 L 190.148 415.652 L 159.77 433.004 C 153.27 436.719 155.957 447.02 163.496 447.02 Z"/><path d=" M 504.746 212.152 L 485.133 211.508 C 483.531 185.438 469.121 160.891 443.941 141.715 C 433.262 133.586 421.117 126.801 407.934 121.496 C 414.84 115.633 421.336 108.66 427.109 100.824 C 432.957 92.8867 437.754 84.5117 441.371 75.918 C 445.105 67.0469 431.313 61.1484 427.547 70.0977 C 424.387 77.6016 420.18 84.9453 415.031 91.9297 C 404.742 105.898 392.023 116.652 379.227 122.207 C 367.785 127.176 357.918 127.281 351.434 122.504 C 337.004 111.871 341.746 79.9063 361.789 52.6992 C 372.082 38.7305 384.801 27.9766 397.598 22.4219 C 409.035 17.457 418.906 17.3477 425.391 22.125 C 432.004 27 433.535 35.7031 433.656 42.1484 C 433.84 51.8203 448.836 51.4961 448.656 41.8711 C 448.395 27.9844 443.293 16.6836 434.285 10.0469 C 423.32 1.96875 408.172 1.47656 391.621 8.66016 C 380.086 13.6719 368.73 22.082 358.746 32.875 C 335.746 4.40234 305.023 -7.76172 284.859 5.14063 C 267.566 16.2109 263.77 42.0547 273.266 69.8828 L 235.938 48.5625 C 233.633 47.2461 230.805 47.2461 228.5 48.5625 L 116.141 112.746 C 113.805 114.082 112.359 116.566 112.359 119.258 L 112.359 243.418 L 73.2813 265.742 C 64.9102 270.523 72.2227 283.617 80.7227 278.766 L 119.859 256.41 L 224.719 316.309 L 224.719 435.973 L 119.859 495.871 L 15 435.973 L 15 316.309 L 43.7227 299.902 C 52.0938 295.121 44.7773 282.023 36.2813 286.879 L 3.78125 305.441 C 1.44531 306.777 0 309.266 0 311.957 L 0 440.324 C 0 443.016 1.44141 445.504 3.78125 446.84 L 116.141 511.023 C 118.426 512.328 121.297 512.328 123.578 511.023 L 232.219 448.965 L 340.859 511.023 C 343.145 512.328 346.012 512.328 348.297 511.023 L 366.723 500.5 C 375.094 495.715 367.777 482.625 359.281 487.473 L 344.578 495.875 L 239.719 435.973 L 239.719 316.309 L 262.117 303.516 C 283.969 313.641 309.133 319.488 335.496 320.352 C 337.766 320.426 340.031 320.465 342.289 320.465 C 372.035 320.465 400.406 314.004 424.277 301.938 L 449.438 316.309 L 449.438 435.973 L 399.281 464.621 C 390.906 469.406 398.223 482.5 406.719 477.648 L 460.656 446.836 C 462.992 445.5 464.438 443.016 464.438 440.324 L 464.438 311.957 C 464.438 309.266 462.992 306.777 460.656 305.441 L 439.27 293.227 C 465.465 275.77 481.344 252.309 484.641 226.5 L 504.254 227.145 C 513.855 227.48 514.461 212.469 504.746 212.152 Z M 392.02 298.563 C 423.215 254.246 422.027 210.219 414.766 179.793 C 410.094 160.207 402.535 144.059 396.434 133.16 C 410.66 138.242 423.664 145.133 434.852 153.648 C 458.465 171.629 471.039 194.668 470.254 218.523 C 469.473 242.379 455.414 264.543 430.676 280.934 C 419.23 288.516 406.156 294.438 392.02 298.563 Z M 335.988 305.359 C 318.742 304.797 302.344 301.93 287.383 297.215 C 326.059 250.426 324.598 205.77 316.055 175.859 C 309.93 154.422 299.574 137.746 292.531 128.102 C 305.164 124.984 318.711 123.203 332.809 122.988 C 335.156 127.59 338.391 131.523 342.539 134.582 C 348.359 138.871 355.355 141.02 363.117 141.02 C 368.902 141.02 375.109 139.809 381.563 137.418 C 387.336 147.227 395.426 163.371 400.176 183.273 C 410.727 227.477 400.242 267.941 369.02 303.547 C 358.332 305.105 347.258 305.73 335.988 305.359 Z M 298.699 88.1094 C 280.484 59.6445 277.848 27.4375 292.945 17.7773 C 295.953 15.8516 299.477 14.9414 303.34 14.9414 C 317.039 14.9414 334.969 26.418 349.02 44.7813 C 333.422 66.3555 326.395 89.7109 328.5 108.094 C 324.289 108.242 320.117 108.523 315.984 108.93 C 309.68 103.121 303.797 96.0742 298.699 88.1094 Z M 207.707 209.902 C 208.824 175.891 236.773 147.063 277.156 132.711 C 282.879 139.887 295.262 157.277 301.785 180.516 C 312.766 219.641 302.875 257.02 272.398 291.68 C 232.789 274.75 206.586 244.047 207.707 209.902 Z M 286.066 96.1953 C 289.609 101.73 293.516 106.891 297.676 111.605 C 275.973 115.863 255.926 123.777 239.004 134.988 C 210.102 154.137 193.664 180.566 192.715 209.414 C 191.77 238.254 206.438 265.707 234.023 286.711 C 237.938 289.695 242.059 292.488 246.348 295.105 L 232.219 303.176 L 127.359 243.273 L 127.359 123.613 L 232.219 63.7109 L 284.418 93.5313 C 284.957 94.4219 285.5 95.3086 286.066 96.1953 Z"/><path d=" M 267.66 206.746 C 267.344 216.383 282.328 217.012 282.652 207.238 C 283.141 192.344 271.422 179.828 256.523 179.34 C 241.637 178.836 229.109 190.57 228.621 205.465 C 228.305 215.09 243.297 215.602 243.613 205.957 C 243.832 199.328 249.43 194.102 256.031 194.332 C 262.66 194.547 267.879 200.117 267.66 206.746 Z"/></svg>