<svg version="1.1" width="682.667" height="682.667" viewBox="-73 0 512 512" xmlns="http://www.w3.org/2000/svg" xmlns:xlink="http://www.w3.org/1999/xlink" overflow="hidden"><path d=" M 130.543 196.707 C 102.727 196.707 85.6641 179.332 69.1445 162.512 C 67.3516 160.691 65.5352 158.84 63.6719 156.977 C 57.8086 151.113 57.8086 141.605 63.6719 135.742 C 69.5352 129.883 79.0391 129.883 84.9023 135.742 C 86.832 137.672 88.7148 139.586 90.5625 141.473 C 107.273 158.484 116.754 167.348 132.234 166.645 C 132.461 166.633 132.684 166.629 132.906 166.629 C 140.895 166.629 147.539 172.922 147.895 180.98 C 148.262 189.266 141.84 196.273 133.559 196.641 C 132.539 196.684 131.531 196.707 130.543 196.707 Z" fill="#CFCFCD"/><path d=" M 74.2852 346.941 C 65.9961 346.941 59.2734 340.219 59.2734 331.93 L 59.2734 146.359 C 59.2734 138.066 65.9961 131.348 74.2852 131.348 C 82.5781 131.348 89.3008 138.066 89.3008 146.359 L 89.3008 331.93 C 89.3008 340.219 82.5781 346.941 74.2852 346.941 Z" fill="#EEEEED"/><path d=" M 336.781 373.254 C 336.781 445.738 278.02 504.5 205.531 504.5 C 133.047 504.5 74.2852 445.738 74.2852 373.254 C 74.2852 300.766 133.047 242.008 205.531 242.008 C 278.02 242.008 336.781 300.766 336.781 373.254 Z" fill="#D19169"/><path d=" M 196.148 242.344 C 128.043 247.156 74.2852 303.926 74.2852 373.254 C 74.2852 442.582 128.043 499.348 196.148 504.16 C 264.254 499.348 318.008 442.582 318.008 373.254 C 318.008 303.926 264.254 247.156 196.148 242.344 Z" fill="#D6A17A"/><path d=" M 295.125 373.254 C 295.125 445.738 236.363 504.5 163.879 504.5 C 91.3945 504.5 32.6328 445.738 32.6328 373.254 C 32.6328 300.766 91.3945 242.008 163.879 242.008 C 236.363 242.008 295.125 300.766 295.125 373.254 Z" fill="#DEB48C"/><path d=" M 230.895 438.785 C 157.691 438.785 98.3477 379.441 98.3477 306.234 C 98.3477 287.68 102.164 270.016 109.051 253.98 C 63.9453 274.75 32.6328 320.34 32.6328 373.254 C 32.6328 445.738 91.3945 504.5 163.879 504.5 C 216.789 504.5 262.383 473.188 283.152 428.082 C 267.117 434.965 249.453 438.785 230.895 438.785 Z" fill="#D19169"/><path d=" M 256.684 466.059 C 307.938 414.805 307.938 331.703 256.684 280.449 C 249.848 273.609 242.438 267.695 234.617 262.68 C 225.023 270.75 218.922 282.836 218.922 296.352 C 218.922 320.641 199.23 340.332 174.938 340.332 C 150.648 340.332 130.957 360.023 130.957 384.313 C 130.957 408.605 111.266 428.297 86.9766 428.297 C 73.4609 428.297 61.3711 434.398 53.3047 443.992 C 58.3164 451.813 64.2344 459.223 71.0703 466.059 C 122.328 517.313 205.43 517.313 256.684 466.059 Z" fill="#F8EED1"/><path d=" M 230.895 438.785 C 190.602 438.785 154.512 420.801 130.199 392.426 C 126.391 412.84 108.496 428.297 86.9766 428.297 C 73.4609 428.297 61.3711 434.398 53.3047 443.992 C 58.3164 451.813 64.2344 459.223 71.0703 466.059 C 122.328 517.313 205.43 517.313 256.684 466.059 C 268.016 454.727 276.84 441.836 283.16 428.078 C 267.125 434.965 249.457 438.785 230.895 438.785 Z" fill="#EDD8A4"/><path d=" M 256.684 466.059 C 304.273 418.473 307.668 343.438 266.891 291.918 C 256.328 299.953 249.508 312.648 249.508 326.938 C 249.508 351.23 229.816 370.922 205.527 370.922 C 181.234 370.922 161.547 390.609 161.547 414.902 C 161.547 439.191 141.855 458.883 117.563 458.883 C 103.273 458.883 90.5781 465.703 82.543 476.266 C 134.063 517.043 209.098 513.648 256.684 466.059 Z" fill="#B4DE87"/><path d=" M 230.895 438.785 C 205.387 438.785 181.563 431.57 161.344 419.082 C 159.234 441.41 140.441 458.883 117.563 458.883 C 103.273 458.883 90.5781 465.703 82.543 476.266 C 134.059 517.043 209.098 513.648 256.684 466.059 C 268.016 454.727 276.836 441.836 283.156 428.078 C 267.121 434.965 249.457 438.785 230.895 438.785 Z" fill="#92D18A"/><path d=" M 218.922 373.254 C 218.922 403.652 194.277 428.293 163.879 428.293 C 133.48 428.293 108.84 403.652 108.84 373.254 C 108.84 342.855 133.48 318.211 163.879 318.211 C 194.277 318.211 218.922 342.855 218.922 373.254 Z" fill="#9894D9"/><path d=" M 74.2852 161.371 C 56.0078 161.371 38.5313 149.949 25.082 129.215 C 14.2383 112.496 7.5 91.4492 7.5 74.2852 C 7.5 37.4609 37.4609 7.5 74.2852 7.5 C 111.113 7.5 141.074 37.4609 141.074 74.2852 C 141.074 91.4492 134.336 112.496 123.492 129.215 C 110.039 149.953 92.5664 161.371 74.2852 161.371 Z M 74.2852 37.5273 C 54.0156 37.5273 37.5273 54.0156 37.5273 74.2852 C 37.5273 97.3359 56.8906 131.348 74.2852 131.348 C 91.6836 131.348 111.047 97.3359 111.047 74.2852 C 111.047 54.0156 94.5547 37.5273 74.2852 37.5273 Z" fill="#EEEEED"/><path d=" M 101.012 146.359 C 101.012 161.121 89.0469 173.086 74.2852 173.086 C 59.5273 173.086 47.5625 161.121 47.5625 146.359 C 47.5625 131.598 59.5273 119.633 74.2852 119.633 C 89.0469 119.633 101.012 131.598 101.012 146.359 Z" fill="#CFCFCD"/><path d=" M 110.199 361.098 C 109.32 365.008 108.836 369.074 108.836 373.254 C 108.836 403.652 133.48 428.297 163.879 428.297 C 168.059 428.297 172.121 427.813 176.035 426.93 C 146.926 413.68 123.453 390.207 110.199 361.098 Z" fill="#8F7ECC"/><g fill="#CFCFCD"><path d=" M 59.2734 248.992 L 89.3008 218.969 L 89.3008 198.375 L 59.2734 228.402 Z"/><path d=" M 7.73047 68.9922 L 48.1836 109.445 C 42.6055 99.7813 38.6172 88.375 37.7227 78.3906 L 11.3359 52.0039 C 9.42578 57.3867 8.19531 63.082 7.73047 68.9922 Z"/><path d=" M 137.238 52.0039 L 110.852 78.3906 C 109.953 88.375 105.969 99.7773 100.391 109.445 L 140.844 68.9883 C 140.379 63.082 139.148 57.3867 137.238 52.0039 Z"/><path d=" M 67.0078 7.90234 L 67.0078 37.5273 C 67.0078 37.7695 67.0195 38.0078 67.043 38.2461 C 69.3867 37.7773 71.8086 37.5273 74.2852 37.5273 C 76.7656 37.5273 79.1875 37.7773 81.5313 38.2461 C 81.5547 38.0078 81.5664 37.7695 81.5664 37.5273 L 81.5664 7.90234 C 79.1758 7.64453 76.7461 7.5 74.2852 7.5 C 71.8242 7.5 69.3984 7.64453 67.0078 7.90234 Z"/></g><path d=" M 256.359 232.508 C 277.02 239.992 296.172 252.254 311.742 267.957 C 313.211 269.438 315.141 270.18 317.07 270.18 C 318.98 270.18 320.887 269.453 322.352 268.004 C 325.289 265.086 325.313 260.34 322.395 257.398 C 305.27 240.125 284.203 226.641 261.469 218.406 C 257.578 216.996 253.273 219.008 251.863 222.902 C 250.453 226.797 252.465 231.098 256.359 232.508 Z M 29.7734 439.594 C 27.9297 435.887 23.4297 434.371 19.7188 436.215 C 16.0117 438.059 14.4961 442.559 16.3398 446.27 C 23.1055 459.891 31.7422 472.527 42.0039 483.828 C 43.4844 485.457 45.5195 486.285 47.5586 486.285 C 49.3594 486.285 51.1641 485.641 52.6016 484.34 C 55.6641 481.555 55.8945 476.813 53.1094 473.742 C 43.7773 463.465 35.9258 451.977 29.7734 439.594 Z M 365.484 334.195 C 361.512 317.926 355.07 302.391 346.344 288.023 C 344.195 284.48 339.578 283.355 336.039 285.508 C 332.5 287.656 331.371 292.27 333.523 295.813 C 341.453 308.867 347.305 322.977 350.91 337.754 C 351.746 341.18 354.813 343.477 358.191 343.477 C 358.781 343.477 359.379 343.406 359.977 343.262 C 364 342.281 366.465 338.223 365.484 334.195 Z M 205.535 234.508 C 198.605 234.508 191.629 235.047 184.77 236.078 C 177.953 235.047 170.977 234.508 163.879 234.508 C 139.563 234.508 116.691 240.801 96.8008 251.836 L 96.8008 195.379 C 107.539 201.355 118.512 204.207 130.539 204.207 C 131.637 204.207 132.766 204.184 133.891 204.133 C 146.289 203.586 155.934 193.051 155.387 180.648 C 154.855 168.582 144.98 159.129 132.906 159.129 C 132.578 159.129 132.242 159.137 131.895 159.152 C 125.402 159.457 120.172 157.715 113.492 152.645 C 119.398 147.363 124.855 140.898 129.781 133.297 C 141.375 115.43 148.574 92.8164 148.574 74.2852 C 148.574 33.3242 115.246 0 74.2852 0 C 33.3242 0 0 33.3242 0 74.2852 C 0 82.1563 1.24219 90.6523 3.69141 99.5352 C 4.78906 103.527 8.91797 105.871 12.9141 104.773 C 16.9063 103.672 19.2539 99.543 18.1523 95.5508 C 16.0898 88.0703 15 80.7188 15 74.2852 C 15 41.5977 41.5977 15 74.2852 15 C 106.977 15 133.574 41.5977 133.574 74.2852 C 133.574 90.0781 127.301 109.563 117.199 125.133 C 114.129 129.867 110.852 134.059 107.395 137.684 C 106 132.367 103.355 127.551 99.7969 123.57 C 110.66 110.121 118.547 89.9805 118.547 74.2852 C 118.547 49.8828 98.6914 30.0273 74.2852 30.0273 C 49.8789 30.0273 30.0234 49.8828 30.0234 74.2852 C 30.0234 89.9805 37.9102 110.121 48.7773 123.57 C 45.2188 127.555 42.5703 132.367 41.1758 137.684 C 37.7227 134.059 34.4453 129.871 31.3711 125.137 C 29.1211 121.66 24.4766 120.668 21 122.926 C 17.5234 125.18 16.5352 129.82 18.7891 133.297 C 25.6445 143.867 33.5117 152.254 42.2031 158.277 C 44.2109 163.656 47.5313 168.395 51.7734 172.105 L 51.7734 291.605 C 35.0313 314.531 25.1328 342.758 25.1328 373.254 C 25.1328 400.422 32.9844 425.785 46.5352 447.203 C 46.8047 447.773 47.1484 448.313 47.5664 448.809 C 55.6484 461.211 65.6602 472.242 77.1719 481.484 C 77.4297 481.75 77.6992 482.004 78.0039 482.234 C 78.1719 482.363 78.3516 482.457 78.5273 482.566 C 102.082 501 131.719 512 163.879 512 C 170.977 512 177.953 511.461 184.77 510.43 C 191.629 511.461 198.605 512 205.535 512 C 240.832 512 274.469 498.734 300.242 474.648 C 303.27 471.82 303.43 467.074 300.602 464.047 C 297.777 461.023 293.031 460.859 290 463.688 C 273.523 479.086 253.441 489.523 231.797 494.199 C 274.035 470.387 302.625 425.102 302.625 373.254 C 302.625 341.176 291.68 311.605 273.328 288.082 C 273.188 287.84 273.031 287.605 272.859 287.379 C 272.629 287.074 272.375 286.801 272.109 286.547 C 262.867 275.031 251.836 265.023 239.434 256.938 C 238.938 256.52 238.398 256.18 237.828 255.91 C 235.867 254.668 233.871 253.477 231.844 252.332 C 287.48 264.426 329.277 314.047 329.277 373.254 C 329.277 396.398 322.852 418.965 310.695 438.512 C 308.508 442.027 309.586 446.652 313.102 448.84 C 314.336 449.609 315.703 449.973 317.059 449.973 C 319.563 449.973 322.012 448.719 323.434 446.434 C 337.07 424.504 344.277 399.199 344.277 373.254 C 344.281 296.746 282.039 234.508 205.535 234.508 Z M 103.629 163.961 C 112.227 170.645 121.066 174.652 132.559 174.137 C 136.773 173.973 140.219 177.164 140.402 181.309 C 140.586 185.449 137.367 188.965 133.23 189.145 C 132.32 189.188 131.426 189.207 130.539 189.207 C 118.371 189.207 107.836 185.602 96.8008 177.609 L 96.8008 172.105 C 99.4727 169.766 101.785 167.02 103.629 163.961 Z M 45.0273 74.2852 C 45.0273 58.1523 58.1523 45.0273 74.2852 45.0273 C 90.4219 45.0273 103.547 58.1523 103.547 74.2852 C 103.547 86.7852 96.5352 104.121 87.5781 114.82 C 83.4922 113.09 79 112.133 74.2891 112.133 C 69.5742 112.133 65.0859 113.09 60.9961 114.82 C 52.0352 104.121 45.0273 86.7852 45.0273 74.2852 Z M 74.2852 165.586 C 63.6875 165.586 55.0625 156.961 55.0625 146.359 C 55.0625 135.758 63.6875 127.133 74.2852 127.133 C 84.8906 127.133 93.5156 135.758 93.5156 146.359 C 93.5117 156.961 84.8867 165.586 74.2852 165.586 Z M 81.8008 179.742 L 81.8008 261.461 C 76.4922 265.371 71.4688 269.648 66.7734 274.254 L 66.7734 179.742 C 69.1914 180.289 71.7031 180.586 74.2852 180.586 C 76.8672 180.586 79.3828 180.289 81.8008 179.742 Z M 40.1328 373.254 C 40.1328 305.02 95.6445 249.508 163.879 249.508 C 185.113 249.508 205.117 254.887 222.602 264.352 C 215.418 273.379 211.422 284.602 211.422 296.352 C 211.422 306.242 207.352 315.668 200.344 322.492 C 190.07 315.09 177.48 310.715 163.879 310.715 C 129.395 310.715 101.336 338.77 101.336 373.254 C 101.336 386.855 105.715 399.445 113.117 409.719 C 106.293 416.727 96.8672 420.797 86.9766 420.797 C 75.2305 420.797 64.0039 424.797 54.9766 431.977 C 45.5117 414.492 40.1328 394.488 40.1328 373.254 Z M 211.27 369.668 C 211.359 370.852 211.422 372.047 211.422 373.254 C 211.422 399.469 190.094 420.797 163.879 420.797 C 137.664 420.797 116.336 399.469 116.336 373.254 C 116.336 347.039 137.664 325.711 163.879 325.711 C 188.879 325.711 209.414 345.109 211.27 369.645 Z M 62.9805 444.82 C 69.5859 439.035 78.0703 435.797 86.9766 435.797 C 100.66 435.797 113.707 430.289 123.281 420.77 C 130.523 426.969 139.188 431.547 148.719 433.926 C 142.219 444.629 130.563 451.383 117.566 451.383 C 104.02 451.383 91.375 456.57 81.8438 465.813 C 74.793 459.555 68.4531 452.516 62.9805 444.82 Z M 265.813 303.18 C 279.563 323.113 287.625 347.258 287.625 373.254 C 287.625 441.484 232.113 497 163.879 497 C 137.887 497 113.742 488.934 93.8047 475.188 C 100.355 469.531 108.688 466.383 117.566 466.383 C 138.215 466.383 156.465 454.293 164.633 435.773 C 198.52 435.371 225.996 407.891 226.402 374.008 C 244.922 365.84 257.008 347.586 257.008 326.938 C 257.008 318.059 260.156 309.727 265.813 303.18 Z M 235.445 272.352 C 243.141 277.828 250.184 284.164 256.438 291.215 C 247.195 300.75 242.008 313.395 242.008 326.941 C 242.008 339.938 235.254 351.594 224.555 358.094 C 222.172 348.566 217.594 339.898 211.395 332.656 C 220.914 323.082 226.422 310.031 226.422 296.352 C 226.422 287.445 229.66 278.961 235.445 272.352 Z"/></svg>