<svg version="1.1" width="512" height="512" viewBox="0 0 512 512" xmlns="http://www.w3.org/2000/svg" xmlns:xlink="http://www.w3.org/1999/xlink" id="Capa_1" overflow="hidden"><g><g><g id="XMLID_179_"><g><path d=" M 268.2 35 L 275 77.49 L 237 77.51 L 243.79 35 Z" fill="#E2D3B7"/></g></g><path d=" M 311.65 79.3 C 310.99 76.76 308.7 75 306.09 75 L 205.91 75 C 203.3 75 201.01 76.76 200.35 79.3 L 194 103.5 L 194 114.254 L 318 114.254 L 318 103.5 L 311.65 79.3 Z" fill="#D6C09D"/><path d=" M 243.35 79.3 C 244.01 76.76 246.3 75 248.91 75 L 205.91 75 C 203.3 75 201.01 76.76 200.35 79.3 L 194 103.5 L 194 114.254 L 237 114.254 L 237 103.5 L 243.35 79.3 Z" fill="#CCB28B"/><g id="XMLID_175_"><path d=" M 327.68 337.69 C 359.88 294.5 365.61 237.06 342.58 188.36 L 321.59 143.98 C 319.93 140.46 319.65 136.43 320.82 132.72 L 328.74 107.51 C 329.36 105.52 327.88 103.5 325.79 103.5 L 186.21 103.5 C 184.12 103.5 182.64 105.52 183.26 107.51 L 191.18 132.72 C 192.35 136.43 192.07 140.46 190.41 143.98 L 169.42 188.36 C 146.39 237.06 152.12 294.5 184.32 337.69 L 208.07 369.54 C 211.68 374.39 212.14 380.9 209.25 386.21 L 190 421.5 L 190 435.5 L 321.745 435.5 L 322 421.5 L 302.75 386.21 C 299.86 380.9 300.32 374.39 303.93 369.54 L 327.68 337.69 Z" fill="#F2EDE2"/><path d=" M 263.25 386.21 C 266.14 380.9 265.68 374.39 262.07 369.54 L 238.32 337.69 C 206.12 294.5 200.39 237.06 223.42 188.36 L 244.41 143.98 C 246.07 140.46 246.35 136.43 245.18 132.72 L 237.26 107.51 C 236.64 105.52 238.12 103.5 240.21 103.5 L 200.322 103.5 L 186.21 103.5 C 184.12 103.5 182.64 105.52 183.26 107.51 L 191.18 132.72 C 192.35 136.43 192.07 140.46 190.41 143.98 L 169.42 188.36 C 146.39 237.06 152.12 294.5 184.32 337.69 L 208.07 369.54 C 211.68 374.39 212.14 380.9 209.25 386.21 L 190 421.5 L 190 435.5 L 200.322 435.5 L 244 435.5 L 244 421.5 L 263.25 386.21 Z" fill="#EDE2CC"/><path d=" M 191.613 134.5 C 192.214 137.692 191.808 141.016 190.41 143.98 L 182.597 160.5 L 329.404 160.5 L 321.591 143.98 C 320.193 141.016 319.787 137.692 320.388 134.5 L 191.613 134.5 Z" fill="#E2D3B7"/><path d=" M 245.613 134.5 L 191.613 134.5 C 192.214 137.692 191.808 141.016 190.41 143.98 L 182.597 160.5 L 236.597 160.5 L 244.41 143.98 C 245.808 141.016 246.214 137.692 245.613 134.5 Z" fill="#D8C5A9"/><path d=" M 166.705 193.509 C 149.715 234.175 152.158 280.107 172.757 318.491 L 339.244 318.491 C 359.843 280.107 362.286 234.175 345.296 193.509 L 166.705 193.509 Z" fill="#E2D3B7"/><path d=" M 221.115 193.509 L 166.704 193.509 C 149.714 234.175 152.157 280.107 172.756 318.491 L 226.232 318.491 C 205.955 279.996 203.817 234.07 221.115 193.509 Z" fill="#D8C5A9"/></g><g id="XMLID_177_"><g><path d=" M 310 230.72 L 310 250.28 C 310 252.06 308.56 253.5 306.78 253.5 L 269 253.5 L 269 367.28 C 269 369.06 267.56 370.5 265.78 370.5 L 246.22 370.5 C 244.44 370.5 243 369.06 243 367.28 L 243 253.5 L 206.22 253.5 C 204.44 253.5 203 252.06 203 250.28 L 203 230.72 C 203 228.94 204.44 227.5 206.22 227.5 L 243 227.5 L 243 186.72 C 243 184.94 244.44 183.5 246.22 183.5 L 265.78 183.5 C 267.56 183.5 269 184.94 269 186.72 L 269 227.5 L 306.78 227.5 C 308.56 227.5 310 228.94 310 230.72 Z" fill="#FECC63"/></g></g><g id="XMLID_176_"><g><path d=" M 344 429.21 L 344 460.5 L 168 460.5 L 168 429.21 C 168 424.95 171.45 421.5 175.71 421.5 L 336.29 421.5 C 340.55 421.5 344 424.95 344 429.21 Z" fill="#D6C09D"/></g></g><path d=" M 241.348 421.5 L 175.71 421.5 C 171.45 421.5 168 424.95 168 429.21 L 168 460.5 L 233.638 460.5 L 233.638 429.21 C 233.638 424.95 237.088 421.5 241.348 421.5 Z" fill="#CCB28B"/><g id="XMLID_178_"><g><path d=" M 368 463.91 L 368 497.328 C 368 501.289 364.789 504.5 360.828 504.5 L 151.172 504.5 C 147.211 504.5 144 501.289 144 497.328 L 144 463.91 C 144 455.952 150.452 449.5 158.41 449.5 L 353.59 449.5 C 361.548 449.5 368 455.952 368 463.91 Z" fill="#C88B38"/></g></g><path d=" M 217.403 497.328 L 217.403 463.91 C 217.403 455.952 223.855 449.5 231.813 449.5 L 158.41 449.5 C 150.452 449.5 144 455.952 144 463.91 L 144 497.328 C 144 501.289 147.211 504.5 151.172 504.5 L 224.575 504.5 C 220.614 504.5 217.403 501.289 217.403 497.328 Z" fill="#BC7B2E"/><g id="XMLID_180_"><g><path d=" M 264 7.5 C 272.28 7.5 279 14.22 279 22.5 C 279 26.64 277.32 30.39 274.6 33.1 C 271.89 35.82 268.14 37.5 264 37.5 L 248 37.5 C 239.72 37.5 233 30.78 233 22.5 C 233 18.36 234.68 14.61 237.4 11.9 C 240.11 9.18 243.86 7.5 248 7.5 L 264 7.5 Z" fill="#FECC63"/></g></g></g><path d=" M 353.586 442 L 351.5 442 L 351.5 429.213 C 351.5 420.824 344.675 414 336.286 414 L 326.452 414 L 309.337 382.623 C 307.848 379.893 308.087 376.518 309.945 374.025 L 333.69 342.171 C 349.976 320.325 360.155 294.441 363.128 267.317 C 363.579 263.2 360.607 259.496 356.49 259.045 C 352.355 258.59 348.669 261.566 348.218 265.684 C 346.446 281.851 341.819 297.522 334.658 311.983 L 276.5 311.983 L 276.5 261 L 306.782 261 C 312.692 261 317.5 256.192 317.5 250.283 L 317.5 230.718 C 317.5 224.808 312.692 220.001 306.782 220.001 L 276.5 220.001 L 276.5 186.718 C 276.5 180.808 271.692 176.001 265.782 176.001 L 246.218 176.001 C 240.308 176.001 235.5 180.809 235.5 186.718 L 235.5 220 L 206.218 220 C 200.308 220 195.5 224.808 195.5 230.717 L 195.5 250.282 C 195.5 256.192 200.308 260.999 206.218 260.999 L 235.5 260.999 L 235.5 271.499 C 235.5 275.641 238.857 278.999 243 278.999 C 247.143 278.999 250.5 275.641 250.5 271.499 L 250.5 253.499 C 250.5 249.357 247.143 245.999 243 245.999 L 210.5 245.999 L 210.5 234.999 L 243 234.999 C 247.143 234.999 250.5 231.641 250.5 227.499 L 250.5 191 L 261.5 191 L 261.5 227.5 C 261.5 231.642 264.857 235 269 235 L 302.5 235 L 302.5 246 L 269 246 C 264.857 246 261.5 249.358 261.5 253.5 L 261.5 363 L 250.5 363 L 250.5 301.5 C 250.5 297.358 247.143 294 243 294 C 238.857 294 235.5 297.358 235.5 301.5 L 235.5 311.982 L 177.31 311.982 C 160.349 277.842 158.203 238.071 171.798 202 L 206 202 C 210.143 202 213.5 198.642 213.5 194.5 C 213.5 190.358 210.143 187 206 187 L 178.362 187 L 187.346 168 L 324.653 168 L 333.637 187 L 305.694 187 C 301.551 187 298.194 190.358 298.194 194.5 C 298.194 198.642 301.551 202 305.694 202 L 340.214 202 C 344.472 213.316 347.221 225.12 348.399 237.226 C 348.8 241.348 352.467 244.366 356.589 243.965 C 360.712 243.564 363.73 239.897 363.328 235.774 C 361.616 218.169 356.915 201.137 349.356 185.152 L 328.372 140.775 C 327.51 138.952 327.368 136.889 327.973 134.966 L 335.895 109.761 C 336.902 106.558 336.317 103.03 334.33 100.323 C 332.344 97.616 329.153 96 325.796 96 L 323.788 96 L 318.908 77.394 C 317.382 71.569 312.109 67.5 306.087 67.5 L 281.33 67.5 L 276.432 41.242 C 282.495 37.207 286.5 30.314 286.5 22.5 C 286.5 10.093 276.406 0 264 0 L 248 0 C 235.594 0 225.5 10.093 225.5 22.5 C 225.5 30.311 229.503 37.202 235.563 41.238 L 230.679 67.5 L 205.914 67.5 C 199.892 67.5 194.619 71.568 193.093 77.393 L 188.213 96 L 186.205 96 C 182.848 96 179.657 97.616 177.671 100.323 C 175.684 103.03 175.099 106.558 176.106 109.761 L 184.028 134.966 C 184.632 136.889 184.491 138.953 183.629 140.776 L 162.645 185.153 C 138.373 236.484 144.375 296.65 178.311 342.172 L 202.056 374.026 C 203.914 376.519 204.153 379.894 202.664 382.624 L 185.548 414 L 175.714 414 C 167.325 414 160.5 420.825 160.5 429.213 L 160.5 442 L 158.414 442 C 146.331 442 136.5 451.831 136.5 463.914 L 136.5 504.5 C 136.5 508.642 139.857 512 144 512 L 368 512 C 372.143 512 375.5 508.642 375.5 504.5 L 375.5 463.914 C 375.5 451.831 365.669 442 353.586 442 Z M 261.967 45.499 L 265.977 66.998 L 246.029 67.004 L 250.028 45.503 L 261.967 45.499 Z M 248 15 L 264 15 C 268.136 15 271.5 18.364 271.5 22.5 C 271.5 26.636 268.136 30 264 30 L 248 30 C 243.864 30 240.5 26.636 240.5 22.5 C 240.5 18.364 243.864 15 248 15 Z M 319.781 111 L 314.752 127 L 197.248 127 L 192.219 111 L 194 111 L 318 111 L 319.781 111 Z M 194.439 153 L 197.188 147.187 C 197.977 145.518 198.532 143.775 198.9 142 L 313.1 142 C 313.467 143.774 314.022 145.517 314.812 147.187 L 317.561 153 L 194.439 153 Z M 207.261 82.5 L 304.74 82.5 L 308.28 96 L 203.721 96 L 207.261 82.5 Z M 215.831 389.805 C 220.117 381.947 219.43 372.234 214.08 365.059 L 190.335 333.205 C 188.814 331.165 187.374 329.084 185.978 326.981 L 235.5 326.981 L 235.5 367.281 C 235.5 373.191 240.308 377.998 246.218 377.998 L 265.782 377.998 C 271.692 377.998 276.5 373.19 276.5 367.281 L 276.5 326.981 L 326.021 326.981 C 324.624 329.089 323.181 331.171 321.665 333.205 L 297.92 365.058 C 292.57 372.233 291.883 381.946 296.169 389.804 L 309.366 414 L 202.634 414 L 215.831 389.805 Z M 175.5 429.213 C 175.5 429.095 175.596 429 175.714 429 L 190 429 L 322 429 L 336.286 429 C 336.404 429 336.5 429.096 336.5 429.213 L 336.5 442 L 175.5 442 L 175.5 429.213 Z M 360.5 497 L 151.5 497 L 151.5 463.914 C 151.5 460.102 154.602 457 158.414 457 L 168 457 L 344 457 L 353.586 457 C 357.399 457 360.5 460.102 360.5 463.914 L 360.5 497 Z"/></g></svg>