<svg version="1.1" width="682.667" height="682.667" viewBox="0 -24 512.001 512" xmlns="http://www.w3.org/2000/svg" xmlns:xlink="http://www.w3.org/1999/xlink" overflow="hidden"><path d=" M 256 0 C 114.617 0 0 124.207 0 265.586 C 0 406.969 114.617 281.43 256 281.43 C 397.383 281.43 512 406.969 512 265.586 C 512 124.207 397.383 0 256 0 Z M 256 241.012 L 255.992 241.012 C 238.824 241.012 224.898 227.086 224.898 209.91 C 224.898 192.742 238.824 178.816 255.992 178.816 L 256 178.816 C 273.188 178.828 287.102 192.742 287.102 209.91 C 287.102 227.086 273.188 241 256 241.012 Z" fill="#E1F1FA"/><path d=" M 512 265.586 C 512 406.969 397.383 281.43 256 281.43 L 256 241.012 C 273.188 241 287.102 227.086 287.102 209.91 C 287.102 192.742 273.188 178.828 256 178.816 L 256 0 C 397.383 0 512 124.207 512 265.586 Z" fill="#CDEBFC"/><path d=" M 127.512 231.148 C 127.512 251.973 110.629 268.855 89.8047 268.855 C 68.9844 268.855 52.1016 251.973 52.1016 231.148 C 52.1016 210.328 68.9844 193.445 89.8047 193.445 C 110.629 193.445 127.512 210.328 127.512 231.148 Z" fill="#FF5B5B"/><path d=" M 457.699 231.148 C 457.699 250.758 441.805 266.652 422.195 266.652 C 402.586 266.652 386.691 250.758 386.691 231.148 C 386.691 211.543 402.586 195.648 422.195 195.648 C 441.805 195.648 457.699 211.543 457.699 231.148 Z" fill="#FFB83D"/><path d=" M 185.605 135.313 C 185.605 155.602 169.156 172.047 148.867 172.047 C 128.578 172.047 112.133 155.602 112.133 135.313 C 112.133 115.023 128.578 98.5742 148.867 98.5742 C 169.156 98.5742 185.605 115.023 185.605 135.313 Z" fill="#E61739"/><path d=" M 399.871 135.313 C 399.871 155.602 383.422 172.047 363.133 172.047 C 342.844 172.047 326.398 155.602 326.398 135.313 C 326.398 115.023 342.844 98.5742 363.133 98.5742 C 383.422 98.5742 399.871 115.023 399.871 135.313 Z" fill="#0040A0"/><path d=" M 296.73 85.957 C 296.73 108.449 278.496 126.684 256 126.684 C 233.508 126.684 215.273 108.449 215.273 85.957 C 215.273 63.4609 233.508 45.2266 256 45.2266 C 278.496 45.2266 296.73 63.4609 296.73 85.957 Z" fill="#0095FF"/><path d=" M 296.73 85.957 C 296.73 108.453 278.5 126.684 256 126.684 L 256 45.2266 C 278.5 45.2266 296.73 63.457 296.73 85.957 Z" fill="#005FE4"/><path d=" M 512 409.137 C 512 427.723 496.922 442.73 478.43 442.73 C 478.18 442.73 477.926 442.73 477.668 442.719 L 256 437.813 L 160.898 435.711 L 115.594 434.707 L 115.594 383.57 L 161.672 382.543 L 256 380.465 L 477.668 375.559 C 496.5 375.145 512 390.297 512 409.137 Z" fill="#FFB83D"/><path d=" M 512 409.137 C 512 427.723 496.922 442.73 478.43 442.73 C 478.18 442.73 477.926 442.73 477.668 442.719 L 256 437.813 L 256 380.465 L 477.668 375.559 C 496.5 375.145 512 390.297 512 409.137 Z" fill="#FF9F22"/><path d=" M 167.949 408.402 C 167.949 439.539 142.707 464.785 111.566 464.785 C 88.4922 464.785 32.7109 433.816 5.375 417.781 C -1.79297 413.578 -1.79297 403.223 5.375 399.023 C 32.707 382.988 88.4883 352.02 111.566 352.02 C 142.707 352.02 167.949 377.262 167.949 408.402 Z" fill="#0095FF"/></svg>