<svg version="1.1" viewBox="0 0 512 512" xmlns="http://www.w3.org/2000/svg" xmlns:xlink="http://www.w3.org/1999/xlink" overflow="hidden"><path d=" M 512 210 L 256 512 L 254.469 510.199 L 0 210 L 113.488 98.2891 L 398.512 98.2891 Z" fill="#00E8F2"/><path d=" M 512 210 L 256 512 L 256 98.2891 L 398.512 98.2891 Z" fill="#00CEF5"/><path d=" M 341.75 209.75 L 170.25 209.75 L 254.469 100.281 L 256 98.2891 Z" fill="#9CFDFF"/><path d=" M 398.508 98.2891 L 340.5 209.75 L 512 209.75 Z" fill="#00F8FE"/><path d=" M 113.492 98.2891 L 171.5 209.75 L 0 209.75 Z" fill="#9CFDFF"/><path d=" M 241 0 L 271 0 L 271 62.1602 L 241 62.1602 Z" fill="#9CFDFF"/><path d=" M 316.848 63.5039 L 341.172 5.23047 L 368.855 16.7891 L 344.531 75.0586 Z" fill="#00F8FE"/><path d=" M 143.137 16.7813 L 170.82 5.22266 L 195.145 63.4961 L 167.461 75.0508 Z" fill="#9CFDFF"/><path d=" M 340.5 209.75 L 256 512 L 254.469 506.531 L 171.5 209.75 Z" fill="#00F8FE"/><path d=" M 256 0 L 271 0 L 271 62.1602 L 256 62.1602 Z" fill="#00F8FE"/><path d=" M 341.75 209.75 L 340.5 209.75 L 256 512 L 256 98.2891 Z" fill="#9CFDFF"/><path d=" M 341.75 209.75 L 256 209.75 L 256 98.2891 Z" fill="#00F8FE"/></svg>