<svg version="1.1" viewBox="0 0 511.996 511.996" xmlns="http://www.w3.org/2000/svg" xmlns:xlink="http://www.w3.org/1999/xlink" id="Layer_1" overflow="hidden"><path d=" M 483.273 293.786 C 482.323 288.048 479.648 282.774 478.483 277.049 C 477.115 270.329 469.577 268.523 464.276 271.199 C 462.096 271.292 459.983 271.476 457.781 272.301 C 454.219 273.634 450.983 274.674 447.315 275.771 C 443.429 276.934 439.675 278.471 435.822 279.729 C 432.045 280.963 428.087 281.364 424.357 282.718 C 421.175 283.874 418.869 285.391 415.545 285.508 C 410.775 285.675 406.799 286.14 402.15 287.3 C 395.178 289.042 387.135 288.792 379.908 289.401 C 376.075 289.724 372.283 289.491 368.457 290.053 C 364.5 290.634 361.028 291.562 357.009 291.651 C 348.422 291.84 341.01 293.103 332.93 295.963 C 325.174 298.709 316.725 301.963 313.665 310.391 C 312.609 313.299 311.329 316.179 310.127 319.087 C 302.678 321.698 295.316 324.521 287.699 326.824 C 277.784 329.82 267.296 332.851 257.868 337.086 C 238.761 345.67 217.754 349.952 199.022 359.225 C 189.53 363.925 179.101 366.389 169.274 370.324 C 159.08 374.405 148.908 377.655 138.474 381.024 C 127.335 384.62 116.404 388.791 105.253 392.316 C 100.625 393.779 96.216 395.866 91.717 397.703 C 91.515 397.444 91.313 397.189 91.111 396.944 C 87.826 392.949 83.957 388.519 79.6 385.001 C 78.366 383.16 77.13 381.316 75.387 379.779 C 71.903 376.709 65.895 374.87 61.506 373.592 C 50.257 370.319 39.322 371.966 32.636 382.389 C 29.86 386.716 28.886 391.528 27.139 396.25 C 25.298 401.225 22.315 405.724 20.672 410.819 C 18.97 416.097 18.084 422.18 19.865 427.571 C 20.665 429.991 21.787 431.386 23.244 432.515 C 22.73 438.443 22.425 444.356 23.961 450.08 C 26.249 458.612 31.629 468.043 36.442 475.398 C 46.792 491.217 61.53 507.647 82.224 500.921 C 85.476 499.865 87.774 497.298 88.591 494.297 C 89.27 494.16 89.927 493.89 90.503 493.428 C 93.336 491.155 95.967 488.636 98.423 485.95 C 98.426 485.947 98.428 485.946 98.431 485.945 C 103.413 482.495 107.782 478.96 108.537 472.61 C 108.547 472.53 108.545 472.455 108.551 472.375 C 110.496 469.188 112.399 465.649 114.077 462.041 C 118.285 462.33 122.441 460.209 126.734 460.114 C 130.527 460.029 134.206 461.08 137.993 460.997 C 142.469 460.899 147.181 460.056 151.492 458.874 C 164.655 455.263 176.275 447.965 187.004 439.723 C 193.565 441.129 201.63 439.195 207.944 437.778 C 216.207 435.923 224.67 435.29 232.737 432.594 C 248.982 427.166 264.977 420.196 280.797 413.64 C 296.148 407.279 311.037 399.999 326.303 393.453 C 327.269 393.039 328.247 392.634 329.228 392.233 C 336.98 396.109 347.416 394.665 355.769 392.553 C 365.082 390.199 374.637 389.089 383.532 384.837 C 392.554 380.525 401.146 373.654 407.017 365.552 C 411.231 359.736 415.46 351.921 416.776 344.183 C 417.679 342.706 418.519 341.215 419.29 339.829 C 420.728 337.25 421.62 334.704 422.079 332.155 C 422.263 331.826 422.458 331.494 422.635 331.166 C 422.892 330.688 423.137 330.204 423.374 329.717 C 423.493 329.704 423.837 329.522 424.41 329.17 C 426.788 327.918 429.21 327.061 431.519 325.64 C 435.28 323.323 438.423 320.373 442.778 319.465 C 447.132 318.556 451.172 316.984 455.213 315.292 C 459.599 313.456 464.269 310.224 468.091 307.325 C 469.447 306.297 470.623 305.283 471.704 304.226 C 477.525 307.043 484.343 300.255 483.273 293.786 Z" fill="#FFC60B"/><g><path d=" M 82.881 487.245 C 81.132 484.532 78.326 483.931 75.911 482.662 C 71.225 480.2 65.3 476.553 61.637 472.767 C 59.194 470.242 57.484 467.16 54.9 464.695 C 53.311 463.18 51.305 461.82 49.921 460.109 C 46.498 455.881 43.517 450.487 41.816 445.326 C 39.881 439.452 40.565 432.539 41.052 426.461 C 41.459 421.391 41.433 416.333 42.658 411.447 C 47.916 405.818 51.208 399.317 54.314 392.204 C 55.8 388.8 57.503 385.5 59.143 382.168 C 59.911 380.608 60.749 379.061 61.375 377.435 C 62.011 375.784 62.635 375.171 61.58 374.645 C 64.145 375.925 66.334 372.937 64.558 370.784 C 61.749 367.38 58.573 368.033 55.679 370.101 C 53.008 369.802 50.458 371.291 48.231 373.095 C 45.043 373.035 43.439 372.655 40.932 374.948 C 38.72 376.97 36.643 379.494 34.909 381.928 C 29.973 388.857 25.392 395.659 21.47 403.298 C 16.073 413.812 9.697 438.361 22.556 446.078 C 23.65 453.362 26.844 460.342 30.678 466.535 C 32.5 469.478 33.993 472.248 36.359 474.836 C 38.831 477.54 41.805 479.687 44.186 482.452 C 49.511 488.635 56.276 493.454 63.461 497.399 C 68.921 500.396 77.117 501.44 81.737 496.132 C 83.811 493.748 84.719 490.094 82.881 487.245 Z" fill="#CC9809"/><path d=" M 412.302 340.45 C 409.204 341.402 406.889 343.269 404.023 344.734 C 400.651 346.455 397.404 347.834 394.218 349.909 C 388.095 353.898 381.683 357.372 375.406 361.104 C 370.436 364.058 364.367 365.83 358.732 367.025 C 354.218 367.982 350.384 369.289 346.556 371.017 C 346.382 370.617 346.233 370.27 346.172 370.14 C 344.818 367.195 344.129 363.862 343.215 360.76 C 341.213 353.965 338.096 347.695 334.889 341.405 C 333.416 338.516 331.879 335.751 331.021 332.615 C 330.09 329.215 329.874 325.453 328.664 322.151 C 327.465 318.88 325.246 314.444 321.933 312.959 C 320.883 312.489 319.886 313.256 320.073 314.389 C 320.501 316.997 318.958 320.708 318.879 323.475 C 318.766 327.407 318.463 331.409 318.599 335.34 C 318.862 343.007 322.068 350.513 323.719 357.958 C 324.951 363.512 325.209 369.115 326.386 374.575 C 322.495 376.065 318.694 378.05 315.281 379.221 C 306.689 382.169 297.353 383.28 289.004 386.767 C 280.593 390.281 271.96 392.309 263.247 394.943 C 254.124 397.701 245.144 401.093 235.963 403.615 C 226.551 406.201 216.837 408.025 207.512 410.856 C 202.851 412.272 198.462 414.455 193.809 415.886 C 188.672 417.465 183.351 418.081 178.272 419.907 C 161.285 426.013 143.745 430.415 126.547 435.53 C 121.419 437.055 116.627 439.52 111.448 440.949 C 107.581 442.017 102.276 443.556 98.348 443.332 C 93.088 443.033 90.645 439.239 87.58 435.64 C 86.773 434.692 79.952 427.9 79.231 428.769 C 80.121 427.697 79.574 426.007 78.072 425.971 C 71.672 425.822 72.793 433.288 74.696 437.272 C 76.68 441.425 78.009 446.139 80.402 450.081 C 82.066 452.82 84.278 454.876 86.781 456.591 C 86.695 456.613 86.608 456.632 86.522 456.653 C 83.934 457.308 83.152 461.409 85.739 462.643 C 90.972 465.14 95.342 467.059 101.305 467.813 C 108.515 468.724 116.389 468.661 123.203 465.933 C 131.22 462.722 138.26 458.293 145.13 453.558 C 148.513 452.737 151.875 451.825 155.167 450.606 C 165.582 446.751 176.738 443.62 187.397 440.447 C 192.944 438.796 198.575 438.133 204.025 436.065 C 209.708 433.908 215.186 432.075 221.124 430.769 C 243.056 425.945 264.772 418.675 286.257 412.159 C 291.995 410.419 297.091 407.621 302.963 406.37 C 308.556 405.179 314.939 403.708 320.083 401.166 C 325.39 398.544 330.092 394.019 334.145 389.64 C 336.781 392.341 339.943 394.532 343.183 395.376 C 347.714 396.556 350.714 394.493 354.607 392.886 C 357.63 391.638 361.095 391.422 364.287 390.776 C 371.61 389.291 379.339 386.749 385.935 383.233 C 392.923 379.507 400.896 375.002 406.4 369.28 C 412.563 362.876 416.169 355.242 418.623 346.772 C 419.694 343.078 416.045 339.301 412.302 340.45 Z" fill="#CC9809"/></g><g><path d=" M 132.406 396.914 C 123.574 399.188 114.387 402.828 106.104 406.607 C 98.289 410.173 90.895 414.233 82.461 416.075 C 76.186 417.445 77.444 428.324 84.005 427.486 C 103.131 425.045 121.47 415.091 135.159 401.644 C 137.206 399.635 135.107 396.219 132.406 396.914 Z" fill="#EBDBB0"/><path d=" M 284.002 343.165 C 266.922 348.195 250.046 354.505 233.787 361.713 C 225.17 365.533 216.337 368.914 207.674 372.644 C 198.022 376.798 188.653 381.34 178.678 384.676 C 173.664 386.353 175.686 393.638 180.857 392.576 C 200.322 388.579 219.711 382.373 238.292 375.341 C 246.618 372.19 255.575 368.923 263.443 364.796 C 267.102 362.876 270.791 360.44 273.99 357.816 C 277.966 354.557 282.326 352.085 286.472 349.018 C 289.202 346.997 287.748 342.062 284.002 343.165 Z" fill="#EBDBB0"/><path d=" M 361.727 305.969 C 360.519 303.001 358.756 300.976 355.623 300.031 C 353.396 299.36 350.928 299.539 348.755 300.28 C 344.994 301.564 342.163 303.986 339.117 306.447 C 337.095 308.08 336.955 311.564 338.185 313.667 C 339.525 315.958 342.361 317.079 344.915 316.405 C 345.988 316.122 347.056 315.816 348.135 315.558 C 348.688 315.421 349.246 315.3 349.805 315.193 C 350.75 315.062 350.929 315.011 350.345 315.04 C 353.246 314.699 356.006 315.354 358.633 313.574 C 360.872 312.058 362.881 308.805 361.727 305.969 Z" fill="#EBDBB0"/><path d=" M 456.785 284.451 C 453.454 278.661 446.929 282.221 442.277 284.004 C 434.106 287.132 426.552 291.632 418.429 294.86 C 409.4 298.447 413.488 313.245 422.468 309.512 C 429.153 306.733 435.498 303.366 442.006 300.214 C 447.237 297.682 453.594 296.484 456.785 291.251 C 458.039 289.194 457.971 286.513 456.785 284.451 Z" fill="#EBDBB0"/></g><path d=" M 296.579 63.818 C 286.671 57.592 272.627 58.241 261.216 58.726 C 250.019 59.2 238.851 60.307 227.648 60.815 C 216.742 61.309 205.902 62.546 194.98 62.408 C 184.814 62.278 174.974 63.141 164.85 63.978 C 143.625 65.732 122.224 66.317 101.002 67.733 C 95.402 68.107 89.791 67.475 84.193 68.064 C 78.89 68.622 73.741 69.717 68.415 70.114 C 56.634 70.992 45.348 71.159 33.673 73.255 C 28.075 74.261 24.457 81.384 26.116 86.564 C 26.557 87.941 27.163 89.142 27.805 90.338 C 27.968 92.086 28.146 93.831 28.344 95.575 C 28.263 103.519 29.057 110.987 28.291 118.975 C 27.504 127.169 28.042 135.441 27.617 143.66 C 27.312 149.59 27.007 155.497 26.544 161.403 C 24.453 163.839 23.262 167.278 23.829 171.463 C 24.083 173.337 24.561 175.182 25.079 177.031 C 24.977 180.462 25.376 183.841 27.1 186.494 C 27.185 186.961 27.272 187.426 27.356 187.891 C 27.833 192.222 28.05 196.582 27.936 200.936 C 27.689 210.293 26.168 219.801 33.435 227.104 C 37.695 231.384 45.097 230.278 49.027 226.39 C 49.204 226.288 49.388 226.203 49.56 226.087 C 58.743 219.948 56.866 209.901 56.534 200.352 C 56.142 189.116 55.312 178.082 54.372 166.913 C 53.7 158.929 52.264 151.008 51.228 143.043 C 51.26 142.688 51.3 142.335 51.33 141.98 C 52.057 133.126 52.128 124.207 51.737 115.318 C 51.69 108.807 51.268 102.513 50.118 95.767 C 49.948 94.764 49.637 93.877 49.218 93.1 L 49.218 93.099 C 56.368 92.662 63.52 92.751 70.763 92.352 C 76.028 92.062 81.182 90.963 86.427 90.651 C 91.936 90.324 97.463 91.13 102.975 90.751 C 124.317 89.285 145.794 88.97 167.158 87.42 C 176.941 86.709 186.288 86.055 196.107 86.243 C 207.029 86.451 217.935 85.206 228.849 84.793 C 240.049 84.37 251.222 83.265 262.417 82.929 C 273.671 82.592 286.739 83.955 296.58 77.839 C 301.846 74.566 301.8 67.1 296.579 63.818 Z" fill="#EAA9A9"/><path d=" M 492.032 185.402 C 492.51 186.138 493.271 181.327 493.588 180.255 C 495.331 174.346 495.944 168.948 494.135 162.95 C 493.122 159.593 490.461 157.274 487.384 156.176 C 488.003 152.254 488.548 148.354 489.089 144.545 C 490.672 133.376 494.405 118.96 486.447 109.456 C 485.462 108.28 484.336 107.399 483.128 106.776 C 483.989 102.951 484.708 99.083 485.14 95.072 C 486.831 79.38 488.136 56.269 467.07 54.1 C 450.531 52.398 432.938 54.484 416.395 55.526 C 397.712 56.703 379.078 58.257 360.337 58.413 C 342.599 58.56 324.852 56.753 307.157 58.222 C 288.563 59.765 269.781 58.491 251.149 58.606 C 232.004 58.723 212.908 61.193 193.752 60.407 C 184.733 60.037 176.377 59.71 167.404 60.961 C 158.89 62.148 150.305 62.863 141.839 64.138 C 132.455 65.552 123.132 65.513 113.724 66.515 C 103.326 67.622 93.123 69.666 82.653 70.148 C 72.967 70.594 63.319 70.487 53.647 71.181 C 49.433 71.484 45.338 72.715 41.172 73.024 C 36.947 73.338 33.071 72.5 29.358 75.305 C 25.176 78.464 22.738 82.861 24.104 88.214 C 24.857 91.158 23.5 94.758 23.349 97.893 C 23.168 101.638 23.781 105.126 24.081 108.83 C 24.743 117.003 23.762 125.603 23.126 133.753 C 22.45 142.447 21.929 151.058 22.115 159.781 C 22.294 168.119 21.854 177.284 25.603 184.916 C 25.949 185.62 26.399 186.256 26.914 186.835 C 26.938 187.357 26.966 187.88 26.986 188.402 C 27.111 191.605 28.397 193.96 30.244 195.488 C 30.585 197.732 30.951 199.979 31.374 202.251 C 31.734 204.186 31.998 206.101 32.318 208.037 C 30.104 208.876 28.145 210.423 26.76 212.791 C 23.607 218.181 25.475 225.514 30.916 228.642 C 37.741 232.565 45.381 230.818 52.769 229.71 C 59.204 228.744 65.555 228.197 72.036 227.512 C 86.549 225.978 101.177 227.776 115.703 226.532 C 130.751 225.243 145.909 226.252 160.987 225.471 C 168.64 225.074 176.318 226.244 183.983 226.354 C 191.694 226.466 199.183 225.861 206.862 225.523 C 213.529 225.229 220.129 225.64 226.796 225.007 C 234.972 224.23 243.066 222.779 251.235 221.961 C 258.764 221.207 266.297 221.158 273.816 220.18 C 281.761 219.148 289.623 218.065 297.639 217.709 C 314.367 216.967 331.007 217.228 347.714 215.857 C 362.554 214.639 377.338 213.655 392.155 212.221 C 400.306 211.433 408.567 211.069 416.67 209.995 C 420.536 209.483 424.306 209.282 428.183 209.01 C 431.508 208.776 434.953 207.64 438.214 207.504 C 442.447 207.327 446.651 208.48 451.047 207.983 C 455.218 207.513 459.194 207.658 463.366 207.411 C 466.836 207.206 469.629 206.625 473.049 206.811 C 477.308 207.044 481.277 206.901 485.504 206.065 C 493.288 204.526 497.871 193.59 493.248 187.031 C 492.548 186.048 492.213 185.694 492.032 185.402 Z M 53.097 205.606 C 52.995 205.056 52.872 204.503 52.751 203.951 C 53.468 201.907 53.96 199.722 54.651 197.657 C 55.176 196.091 55.665 194.518 56.145 192.943 C 56.281 197.14 56.811 201.207 58.626 204.694 C 56.836 204.891 54.98 205.223 53.097 205.606 Z M 86.6 115.997 C 86.564 115.412 86.543 114.826 86.491 114.245 C 88.423 114.568 90.364 114.867 92.307 115.154 C 90.402 115.409 88.499 115.689 86.6 115.997 Z M 332.33 159.23 C 331.96 159.227 331.593 159.225 331.223 159.222 C 332.621 158.066 334.03 156.924 335.42 155.759 C 334.4 156.925 333.364 158.077 332.33 159.23 Z M 461.081 82.761 C 460.712 82.209 460.297 81.703 459.82 81.275 C 458.907 80.454 457.944 79.783 456.95 79.203 C 458.132 79.185 459.313 79.169 460.498 79.147 C 460.672 79.144 460.881 79.148 461.09 79.152 C 461.196 80.352 461.171 81.556 461.081 82.761 Z" fill="#7AC943"/><path d=" M 482.873 273.561 C 481.794 270.935 481.36 267.56 479.855 265.191 C 475.983 259.101 468.92 263.77 463.863 265.218 C 454.323 267.95 444.795 270.952 435.257 273.605 C 430.995 274.791 426.576 275.291 422.302 276.456 C 417.341 277.81 412.244 279.668 407.093 280.115 C 402.931 280.476 399.429 281.056 395.369 281.818 C 391.128 282.615 386.869 282.157 382.581 283.122 C 380.206 283.657 378.507 283.942 376.098 283.463 C 374.615 283.168 373.259 282.536 371.724 282.398 C 367.191 281.987 362.405 283.777 357.839 284.053 C 349.42 284.563 340.954 285.892 332.798 288.069 C 324.892 290.178 315.764 293.895 310.499 300.454 C 308.152 303.378 306.736 307.531 306.026 311.163 C 305.959 311.51 305.896 311.862 305.842 312.216 C 293.897 313.795 282.162 320.081 270.921 324.133 C 257.947 328.81 245.304 334.344 232.409 339.237 C 217.52 344.886 202.633 350.603 187.411 355.309 C 173.213 359.698 159.668 363.901 146.157 370.118 C 133.136 376.109 119.198 380.106 105.769 385.096 C 104.49 384.626 102.967 384.935 102.469 386.346 C 98.99 387.723 95.633 389.34 92.254 390.911 C 91.053 383.12 85.732 377.297 79.51 372.457 C 72.273 366.828 63.128 360.393 53.492 361.681 C 48.986 362.284 45.176 364.769 41.611 367.452 C 37.618 370.457 33.269 373.294 29.591 376.685 C 22.68 383.052 19.898 392.675 16.874 401.285 C 12.603 413.446 12.087 426.563 13.657 439.278 C 14.275 444.286 14.976 449.519 16.426 454.366 C 18.048 459.793 21.527 463.833 24.192 468.715 C 29.859 479.101 37.621 487.638 45.76 496.159 C 52.449 503.161 57.52 509.794 67.705 511.521 C 78.697 513.385 89.453 509.649 97.542 502.174 C 101.628 498.399 106.054 494.551 108.577 489.491 C 110.755 485.126 111.784 479.696 111.869 474.558 C 120.441 472.463 128.911 468.963 136.987 465.969 C 149.217 461.433 161.695 457.697 174.054 453.542 C 186.278 449.432 199.052 447.142 211.262 442.926 C 217.071 440.921 223.249 439.613 228.924 437.306 C 234.694 434.959 239.906 431.825 245.883 429.905 C 258.38 425.894 270.919 421.572 283.714 418.655 C 294.626 416.167 304.708 411.065 315.774 408.81 C 321.864 407.569 328.97 406.484 333.412 401.914 C 334.423 402.288 335.483 402.59 336.64 402.762 C 341.232 403.443 345.779 404.12 350.359 403.017 C 354.704 401.971 358.558 400.7 363.04 400.129 C 367.108 399.61 370.804 398.375 374.617 396.938 C 388.862 391.57 404.351 385.971 414.447 373.959 C 419.36 368.114 423.425 360.346 426.279 353.297 C 427.957 349.152 428.711 344.574 429.426 340.169 C 430.154 335.692 429.89 331.08 433.931 328.232 C 441.182 323.126 450.829 321.464 458.743 317.64 C 467.739 313.295 476.064 309.724 485.875 307.482 C 487.84 307.032 489.873 305.132 490.249 303.108 C 491.504 296.367 489.152 289.36 485.67 283.631 C 483.598 280.221 484.319 277.081 482.873 273.561 Z M 399.684 297.388 C 399.47 301.003 398.931 301.292 395.553 301.852 C 394.64 302.003 393.742 302.181 392.847 302.371 C 395.286 300.888 397.139 298.949 397.669 296.544 C 398.171 294.262 397.547 292.102 396.165 290.641 C 397.229 290.44 398.28 290.211 399.335 289.99 C 399.436 292.479 399.824 295.023 399.684 297.388 Z M 373.177 299.954 C 373.3 299.693 373.607 299.306 374.1 298.773 C 373.96 299.274 373.875 299.777 373.827 300.282 C 373.669 300.319 373.547 300.335 373.442 300.34 C 373.354 300.212 373.26 300.091 373.177 299.954 Z M 259.951 350.848 C 260.688 350.275 261.356 349.607 261.934 348.899 C 262.612 348.068 263.212 347.163 263.682 346.207 C 263.655 347.371 263.565 348.541 263.17 349.557 C 262.383 351.576 260.586 352.349 258.6 352.465 C 259.191 352.064 259.669 351.503 259.951 350.848 Z M 264.175 339.61 C 263.89 338.896 263.491 338.249 263.004 337.687 C 263.371 337.545 263.737 337.401 264.104 337.256 C 264.237 337.955 264.236 338.768 264.175 339.61 Z M 250.479 342.652 C 250.476 342.66 250.473 342.667 250.47 342.675 C 249.096 344.462 248.266 346.55 248.974 348.825 C 247.743 347.588 246.795 346.094 246.096 344.394 C 247.561 343.816 249.017 343.231 250.479 342.652 Z M 208.15 358.589 C 207.706 359.705 207.391 360.878 207.202 362.015 C 207.047 362.949 206.936 363.904 206.893 364.848 C 206.724 364.609 206.556 364.37 206.393 364.134 C 205.579 362.957 204.508 361.604 203.595 360.175 C 205.119 359.663 206.631 359.114 208.15 358.589 Z M 159.314 374.363 C 158.945 374.939 158.603 375.525 158.303 376.111 C 157.974 375.816 157.645 375.521 157.311 375.229 C 157.972 374.923 158.647 374.651 159.314 374.363 Z M 122.774 389.452 C 122.761 389.34 122.726 389.228 122.699 389.115 C 123.079 388.968 123.459 388.825 123.838 388.675 C 123.636 388.999 123.446 389.326 123.232 389.646 C 123.106 389.807 122.984 389.97 122.849 390.123 C 122.825 389.899 122.799 389.676 122.774 389.452 Z M 112.686 392.88 C 112.334 393.504 112.058 394.15 111.864 394.801 C 111.47 394.404 111.089 394.004 110.738 393.597 C 111.387 393.361 112.035 393.118 112.686 392.88 Z M 98.03 485.544 C 95.376 489.515 90.426 493.952 86.527 496.696 C 78.982 502.008 67.304 502.823 60.407 496.022 C 52.679 488.402 44.817 480.131 38.151 471.562 C 31.888 463.51 26.054 454.384 23.836 444.407 C 21.132 432.247 20.45 420.041 24.103 407.991 C 27.079 398.175 30.657 387.367 39.275 381.222 C 42.748 378.746 46.106 376.043 49.629 373.639 C 55.579 369.579 60.907 371.36 66.716 374.789 C 73.125 378.573 81.224 383.138 85.211 389.867 C 77.181 391.752 67.929 394.574 62.991 401.029 C 55.957 410.221 60.85 424.875 64.663 434.367 C 68.819 444.713 73.941 455.098 79.849 464.572 C 84.819 472.544 92.253 476.477 101.196 476.229 C 100.675 479.544 99.876 482.784 98.03 485.544 Z M 326.151 388.284 C 321.753 387.754 320.305 392.724 322.084 395.886 C 319.549 396.764 316.544 396.968 314.058 397.466 C 309.341 398.412 304.716 399.941 300.128 401.374 C 295.568 402.799 291.406 404.942 286.957 406.604 C 281.505 408.639 275.636 409.473 270.105 411.305 C 259.43 414.84 248.369 417.858 237.885 421.897 C 233.802 423.471 230.115 425.772 226.115 427.49 C 220.547 429.882 214.306 431.123 208.555 433.114 C 197.794 436.839 186.697 439.288 175.753 442.381 C 164.762 445.487 153.663 449.285 142.862 453.017 C 131.738 456.862 120.761 461.247 109.38 464.31 C 108.592 464.522 107.781 464.735 106.958 464.933 C 105.841 464.749 104.731 464.934 103.856 465.569 C 100.2 466.158 96.474 466.079 93.333 463.948 C 89.166 461.123 87.091 455.891 84.695 451.64 C 78.595 440.816 71.5 429.515 69.761 416.962 C 69.274 413.446 68.858 409.073 71.347 406.224 C 71.348 406.221 71.351 406.22 71.353 406.219 C 74.518 405.59 78.045 404.919 78.501 404.784 C 83.619 403.274 88.734 402.177 93.683 400.115 C 97.166 398.663 100.676 397.317 104.196 396.007 C 108.2 403.299 117.457 408.874 124.955 408.377 C 137.32 407.557 137.368 392.985 137.297 383.768 C 137.296 383.665 137.273 383.576 137.266 383.477 C 142.461 381.493 147.638 379.488 152.757 377.265 C 153.568 379.201 154.534 381.052 155.561 383.037 C 156.869 385.567 157.811 388.168 160.254 389.847 C 164.86 393.012 170.458 391.676 174.612 388.536 C 179.774 384.637 187.093 373.12 183.027 366.555 C 186.102 365.688 189.169 364.816 192.201 363.877 C 194.55 363.15 196.89 362.39 199.229 361.626 C 199.938 364.248 201.091 366.839 201.991 368.974 C 204.017 373.779 208.442 377.89 214.091 376.562 C 223.692 374.303 228.258 361.331 223.975 352.925 C 230.278 350.573 236.553 348.149 242.813 345.692 C 242.934 350.272 244.749 354.663 248.441 357.758 C 253.038 361.612 261.377 363.492 266.864 360.697 C 273.084 357.529 273.955 350.666 274.403 344.46 C 274.676 340.678 274.717 336.805 273.338 333.694 C 280.032 331.163 286.763 328.708 293.489 326.339 C 295.954 325.471 298.436 324.66 300.948 323.938 C 302.612 323.46 306.335 321.819 308.137 322.115 C 308.401 322.158 308.638 322.231 308.874 322.303 C 309.377 322.894 310.097 323.303 310.827 323.445 C 313.504 326.061 313.069 331.68 313.406 334.886 C 314.54 345.647 318.153 356.457 320.768 366.938 C 321.846 371.258 326.459 381.31 326.657 388.37 C 326.488 388.342 326.324 388.305 326.151 388.284 Z M 458.131 304.081 C 449.979 308.495 441.412 311.781 433.169 316.006 C 425.754 319.806 421.107 323.385 419.627 331.982 C 418.887 336.276 418.404 340.597 417.43 344.853 C 416.39 349.4 414.066 353.181 411.94 357.29 C 404.145 372.355 391.08 378.971 375.707 384.813 C 372.06 386.199 368.338 387.877 364.529 388.763 C 360.385 389.728 356.199 389.599 352.097 390.863 C 347.171 392.38 343.266 393.025 338.122 391.805 C 337.948 391.764 337.783 391.712 337.612 391.668 C 338.11 382.871 333.21 372.971 331.156 365.258 C 327.977 353.328 324.378 341.285 323.245 328.99 C 322.664 322.687 319.384 316.368 314.03 313.57 C 314.245 312.378 314.631 311.156 315.347 309.839 C 317.572 305.739 320.297 303.451 324.433 301.2 C 332.346 296.894 341.748 295.389 350.567 294.086 C 355.095 293.417 359.749 293.583 364.262 292.857 C 364.244 293.168 364.219 293.482 364.173 293.803 C 363.558 298.078 362.911 301.533 365.03 305.592 C 368.991 313.177 378.294 315.369 386.247 314.441 C 390.759 313.915 395.576 313.019 400.036 312.139 C 403.906 311.376 407.089 309.239 408.791 305.608 C 410.704 301.525 411.284 294.162 410.063 288.397 C 427.635 285.646 444.713 280.155 461.813 275.146 C 465.004 274.212 469.64 273.486 472.506 271.413 C 472.53 272.028 472.581 272.641 472.69 273.249 C 473.157 275.326 473.755 276.062 473.689 278.547 C 473.571 282.958 474.28 285.185 475.931 289.331 C 476.694 291.248 477.735 293.896 478.144 296.352 C 471.164 298.029 464.482 300.641 458.131 304.081 Z"/><path d=" M 498.399 203.837 C 496.718 201.413 497.65 196.577 497.805 193.882 C 498.016 190.207 498.156 186.604 498.121 182.922 C 498.031 173.265 498.496 163.532 498.201 153.89 C 498.141 151.917 497.939 150.012 497.638 148.125 C 497.806 146.981 497.592 145.776 497.002 144.793 C 496.804 143.894 496.59 142.994 496.356 142.085 C 495.335 138.125 495.672 134.274 495.208 130.255 C 494.72 126.024 493.562 122.016 493.341 117.721 C 493.11 113.198 492.953 109.088 491.805 104.675 C 490.536 99.799 490.985 94.976 490.446 90.009 C 490.174 87.496 489.64 85.323 489.508 82.87 C 489.245 78 489.689 73.11 489.4 68.239 C 489.268 65.992 488.959 60.947 487.656 56.807 C 487.54 55.91 487.215 55.027 486.635 54.234 C 485.443 51.856 483.72 50.255 481.23 50.521 C 471.366 45.976 459.958 48.91 449.276 48.82 C 442.488 48.763 435.792 46.818 428.978 46.454 C 421.165 46.037 413.349 46.446 405.538 46.67 C 404.581 46.698 403.621 46.701 402.664 46.723 C 402.435 43.992 402.285 41.251 402.241 38.451 C 402.144 32.471 401.818 26.437 402.008 20.46 C 402.189 14.821 402.933 9.507 401.647 3.937 C 400.968 0.995 397.73 -0.496 394.967 0.144 C 388.295 1.69 381.496 1.559 374.864 3.483 C 367.516 5.615 361.214 6.528 353.565 6.583 C 346.984 6.631 328.093 5.727 327.367 15.629 C 327.125 18.93 328.416 22.879 328.884 26.161 C 329.869 33.084 330.558 40.009 330.885 46.99 C 322.92 47.791 315.357 48.559 307.317 48.54 C 299.959 48.523 292.6 48.559 285.245 48.381 C 277.261 48.188 269.71 50.368 261.757 50.373 C 254.294 50.378 247.128 50.2 239.751 51.467 C 231.601 52.867 223.888 51.913 215.69 51.97 C 208.259 52.021 201.013 54.024 193.647 54.82 C 184.881 55.767 176.054 56.028 167.243 56.098 C 157.052 56.178 147.117 56.657 137.159 57.567 C 138.356 54.66 139.574 51.731 139.462 48.652 C 139.088 38.273 136.002 26.248 128.236 18.953 C 121.628 12.744 110.443 6.802 102.675 14.417 C 99.855 17.182 98.485 21.007 97.613 24.767 C 96.391 30.039 95.202 35.141 93.724 40.357 C 91.808 47.118 91.668 54.592 92.172 61.979 C 91.733 61.985 91.299 61.998 90.859 62.001 C 86.676 62.028 83.098 62.965 79.011 63.688 C 75.252 64.353 71.441 64.067 67.674 64.734 C 63.968 65.39 60.325 65.864 56.602 66.388 C 55.75 66.507 54.918 66.679 54.091 66.866 C 52.744 65.122 50.138 62.658 48.906 64.897 C 48.364 65.88 48.109 67.11 47.977 68.426 C 46.63 68.744 45.266 69.009 43.852 69.124 C 38.613 69.549 28.298 74.37 24.062 71.131 C 22.637 70.042 21.131 71.355 20.958 72.813 C 19.777 72.887 18.711 73.923 19.019 75.449 C 21.601 88.216 18.706 102.187 18.527 115.101 C 18.297 131.736 17.885 148.401 17.885 165.033 C 17.885 171.833 20.321 178.069 20.172 184.928 C 20.017 192.057 19.465 198.793 20.57 205.879 C 21.495 211.814 20.986 217.024 20.763 222.926 C 20.594 227.439 20.678 233.051 24.523 236.121 C 26.693 237.854 29.706 238.296 31.844 236.121 C 32.216 235.742 32.528 235.382 32.808 235.025 C 36.388 235.963 39.965 236.817 43.841 237.166 C 51.501 237.856 59.041 237.789 66.691 237.005 C 73.833 236.273 81.02 236.531 88.127 235.66 C 95.534 234.752 102.767 234.868 110.158 234.296 C 110.246 235.76 110.358 237.224 110.527 238.682 C 111.81 249.656 115.195 265.85 107.716 275.222 C 105.936 277.452 103.721 279.514 101.263 280.978 C 98.546 282.596 98.576 282.289 96.543 280.022 C 94.683 277.947 92.399 275.591 91.004 273.177 C 89.36 270.331 89.241 266.911 88.796 263.703 C 87.858 256.935 76.579 257.201 75.389 263.703 C 74.062 270.955 73.458 276.578 78.112 282.77 C 81.57 287.37 85.57 292.749 90.581 295.749 C 102.223 302.719 114.968 291.207 120.793 281.732 C 127.463 270.882 126.119 256.228 124.336 244.119 C 123.78 240.349 123.311 236.582 122.856 232.821 C 134.124 231.184 145.378 229 156.705 228.71 C 171.545 228.33 186.431 226.876 201.15 225.015 C 208.775 224.051 215.945 223.476 223.626 223.423 C 231.235 223.371 238.706 221.815 246.359 221.861 C 253.698 221.905 261.027 222.466 268.368 222.291 C 276.499 222.097 284.361 220.178 292.457 219.7 C 308.451 218.758 324.679 219.628 340.7 219.638 C 357.162 219.648 373.624 219.658 390.087 219.67 C 408.376 219.681 426.667 219.596 444.956 219.704 C 449.193 219.729 453.525 220.312 457.751 220.04 C 460.958 219.833 463.93 218.761 467.052 218.151 C 471.727 217.236 476.48 218.119 481.19 217.723 C 484.735 217.426 488.129 216.287 491.629 215.72 C 494.296 215.288 495.546 213.506 495.703 211.497 C 495.984 211.3 496.264 211.103 496.545 210.907 C 498.693 209.398 500.095 206.283 498.399 203.837 Z M 32.036 78.134 C 34.8 77.98 37.456 76.994 40.216 76.804 C 42.79 76.627 45.252 76.869 47.761 76.803 C 47.757 76.836 47.757 76.874 47.753 76.906 C 47.053 82.714 46.737 88.455 46.584 94.284 C 40.292 94.117 34.013 94.072 27.861 94.962 C 27.973 88.664 27.51 82.431 24.721 76.863 C 26.935 77.932 29.463 78.279 32.036 78.134 Z M 27.372 108.434 C 27.391 105.827 27.535 103.15 27.663 100.453 C 32.964 101.15 38.349 101.128 43.737 101.194 C 44.627 101.204 45.522 101.227 46.417 101.25 C 46.235 109.462 46.033 117.673 45.865 125.884 C 44.234 125.911 42.616 126.026 41.069 126.385 C 37.679 127.169 34.61 128.218 31.126 128.903 C 29.868 129.151 28.687 129.579 27.52 130.034 C 27.408 122.834 27.32 115.632 27.372 108.434 Z M 31.126 135.428 C 34.079 135.309 36.563 135.87 39.503 135.316 C 41.557 134.93 43.627 134.727 45.704 134.599 C 45.638 139.121 45.595 143.642 45.595 148.164 C 45.595 151.693 46.081 155.149 46.562 158.595 C 40.275 158.717 34.001 159.015 27.781 159.716 C 27.82 158.468 27.86 157.223 27.855 155.991 C 27.831 149.291 27.718 142.588 27.607 135.885 C 28.744 135.684 29.888 135.479 31.126 135.428 Z M 30.115 196.954 C 29.932 190.19 30.925 183.449 29.956 176.703 C 29.506 173.572 28.275 170.651 27.911 167.52 C 27.831 166.834 27.786 166.141 27.753 165.447 C 34.277 166.17 40.849 166.433 47.43 166.529 C 47.488 167.603 47.522 168.68 47.492 169.763 C 47.286 177.432 48.925 184.782 49.086 192.407 C 49.1 193.087 49.095 193.762 49.09 194.438 C 47.971 194.627 46.848 194.799 45.714 194.939 C 41.696 195.434 37.516 195.294 33.55 196.139 C 32.386 196.387 31.249 196.731 30.124 197.113 C 30.123 197.058 30.117 197.007 30.115 196.954 Z M 47.327 228.725 C 43.207 228.982 39.119 229.789 34.98 229.589 C 34.772 229.579 34.568 229.566 34.361 229.555 C 34.038 228.525 33.315 227.632 32.397 226.958 C 32.145 226.774 31.896 226.644 31.648 226.549 C 31.176 223.211 31.912 219.477 32.065 216.31 C 32.296 211.515 31.254 206.906 30.601 202.233 C 34.074 202.248 37.568 202.12 41.039 202.431 C 43.711 202.67 46.303 202.567 48.868 202.315 C 48.759 206.174 48.797 210.021 49.613 213.93 C 50.338 217.394 50.903 220.539 50.819 224.101 C 50.782 225.666 50.758 227.105 50.891 228.498 C 49.704 228.571 48.521 228.65 47.327 228.725 Z M 485.657 142.845 C 480.068 142.958 474.432 143.089 468.952 142.616 C 465.676 142.334 462.559 141.173 459.282 140.859 C 454.707 140.419 450.011 140.842 445.423 140.856 C 438.556 140.876 431.671 141.038 424.807 140.837 C 417.09 140.611 409.39 139.9 401.708 141.057 C 387.065 143.261 372.373 144.304 357.659 146.067 C 350.73 146.897 343.833 146.774 336.94 147.959 C 328.312 149.442 319.676 148.68 310.962 148.784 C 304.605 148.86 298.525 150.58 292.206 150.804 C 283.986 151.096 275.936 152.42 267.722 152.651 C 267.066 152.67 266.422 152.702 265.769 152.725 C 265.839 152.672 265.911 152.626 265.981 152.572 C 271.265 148.457 275.173 141.449 273.887 134.595 C 273.764 133.938 273.584 133.277 273.368 132.62 C 273.963 131.49 274.257 130.23 274.121 128.95 C 279.55 128.551 284.863 127.642 290.368 127.097 C 297.961 126.344 305.648 124.74 313.251 124.461 C 320.671 124.189 328.149 125.404 335.55 124.888 C 339.061 124.643 342.422 123.549 345.908 123.206 C 349.475 122.855 353.084 123.444 356.665 123.155 C 364.412 122.531 372.099 120.918 379.803 119.935 C 388.859 118.781 398.012 118.276 407.107 119.34 C 415.075 120.272 422.269 121.868 430.375 121.561 C 438.739 121.243 446.557 121.935 454.872 122.778 C 464.449 123.749 474.24 123.261 483.863 123.259 C 484.263 129.822 485.056 136.329 485.657 142.845 Z M 436.71 57.733 C 444.218 58.91 450.825 59.539 458.452 59.046 C 465.854 58.567 473.447 57.791 479.691 62.524 C 480.165 62.884 480.639 63.137 481.107 63.312 C 481.106 63.421 481.103 63.536 481.103 63.637 C 481.126 68.628 480.84 73.634 480.71 78.623 C 480.692 79.326 480.716 80.005 480.732 80.689 C 476.409 80.67 471.484 78.501 467.505 78.252 C 460.105 77.789 452.43 78.841 445.11 79.85 C 438.136 80.812 431.621 82.144 424.548 82.179 C 417.91 82.211 411.462 82.685 404.93 83.298 C 406.049 80.621 406.646 77.795 406.358 74.934 C 406.333 74.539 406.279 74.137 406.183 73.729 C 406.177 73.695 406.174 73.66 406.168 73.625 C 405.944 72.496 405.576 71.454 405.1 70.493 C 404.889 68.969 405.197 67.288 405.176 65.798 C 405.138 63.02 404.637 60.343 404.121 57.623 C 404.054 57.265 404.008 56.911 403.944 56.554 C 414.979 56.175 426.054 56.062 436.71 57.733 Z M 354.127 73.051 C 352.721 69.04 349.725 65.887 345.746 64.873 C 345.423 62.217 345.124 59.551 344.828 56.881 C 356.958 56.65 369.22 57.241 381.259 57.215 C 384.661 57.207 388.098 57.122 391.557 57.008 C 391.725 59.057 391.875 61.109 391.924 63.173 C 390.404 63.238 388.88 63.528 387.415 64.064 C 385.525 64.757 383.688 65.837 382.035 67.191 C 376.634 69.48 372.088 73.333 370.622 77.879 C 369.955 79.95 369.662 82.207 369.721 84.476 C 364.166 84.368 358.63 84.24 353.143 84.224 C 354.932 80.802 355.452 76.827 354.127 73.051 Z M 347.305 30.642 C 350.361 30.131 353.526 30.384 356.609 29.87 C 359.488 29.389 362.257 28.559 365.179 28.357 C 373.187 27.8 387.876 28.662 390.117 18.368 C 390.592 16.182 390.182 13.963 389.067 12.191 C 389.994 12.065 390.92 11.937 391.846 11.794 C 392.034 16.03 391.448 20.432 391.367 24.552 C 391.23 31.502 391.15 38.453 390.967 45.401 C 390.954 45.907 390.959 46.409 390.961 46.912 C 378.661 47.004 366.342 46.837 354.062 46.704 C 350.599 46.666 347.119 46.562 343.638 46.527 C 343.043 41.686 342.354 36.861 341.452 32.081 C 343.377 31.662 345.324 30.973 347.305 30.642 Z M 340.824 18.35 C 340.051 18.795 339.311 19.277 338.597 19.794 C 338.564 19.664 338.53 19.533 338.497 19.404 C 338.439 19.173 338.378 18.818 338.309 18.446 C 339.065 18.535 339.928 18.473 340.824 18.35 Z M 338.771 94.831 C 341.372 94.462 343.58 93.527 345.386 92.175 C 346.619 92.171 347.851 92.165 349.084 92.165 C 356.52 92.165 364.049 92.394 371.58 92.522 C 372.968 95.474 375.12 97.998 378.071 99.542 C 385.369 103.357 392.905 98.984 397.912 93.617 C 398.429 93.063 398.947 92.478 399.456 91.877 C 408.318 91.117 416.894 90.385 425.818 90.43 C 434.371 90.473 442.471 88.451 450.955 87.591 C 459.392 86.737 466.807 86.873 475.068 88.505 C 477.352 88.956 479.459 89.015 481.275 88.502 C 481.358 89.389 481.44 90.28 481.506 91.194 C 481.82 95.507 481.242 99.813 481.989 104.103 C 482.603 107.628 483.25 110.777 483.5 114.224 C 475.531 114.26 467.502 114.556 459.546 114.204 C 451.522 113.849 443.717 112.187 435.649 112.473 C 428.5 112.727 421.923 112.967 414.843 111.719 C 407 110.336 399.099 109.759 391.137 110.163 C 384.238 110.513 377.38 111.569 370.554 112.58 C 366.699 113.151 362.847 113.786 358.975 114.236 C 354.579 114.747 350.289 114.245 345.906 114.564 C 342.403 114.82 339.043 115.957 335.548 116.246 C 331.924 116.545 328.199 116.153 324.58 116.007 C 317.426 115.717 310.541 115.768 303.46 116.901 C 295.579 118.161 287.615 118.659 279.722 119.865 C 277.183 120.253 274.652 120.395 272.123 120.429 C 271.533 116.876 271.153 113.268 270.376 109.752 C 269.078 103.875 269.011 97.898 268.885 91.906 C 270.952 91.645 273.034 91.446 275.153 91.384 C 283.287 91.149 291.414 91.774 299.54 92.039 C 309.399 92.359 319.282 92.34 329.161 92.274 C 331.776 94.287 335.339 95.317 338.771 94.831 Z M 261.757 61.302 C 269.72 61.264 277.29 59.052 285.245 59.211 C 292.998 59.366 300.754 59.291 308.508 59.276 C 316.405 59.259 323.939 58.182 331.734 57.527 C 332.052 60.415 332.375 63.301 332.569 66.193 C 332.144 66.536 331.726 66.886 331.323 67.235 C 326.365 71.532 322.772 78.025 325.264 84.176 C 325.26 84.243 325.241 84.315 325.239 84.382 C 317.384 84.424 309.531 84.42 301.686 84.24 C 290.768 83.99 279.829 83.04 268.972 83.993 C 269.483 76.935 270.589 67.279 265.456 63.763 C 263.815 62.639 262 61.859 260.086 61.315 C 260.642 61.309 261.194 61.305 261.757 61.302 Z M 257.819 83.131 C 257.769 83.978 257.712 84.823 257.675 85.672 C 254.571 86.168 251.475 86.441 248.383 86.585 C 251.696 85.775 254.968 84.671 257.819 83.131 Z M 255.082 94.005 C 255.883 93.902 256.679 93.789 257.473 93.671 C 257.444 95.618 257.415 97.565 257.365 99.502 C 257.216 105.28 257.988 110.866 258.293 116.617 C 258.349 117.68 258.387 118.726 258.425 119.764 C 257.74 119.826 257.051 119.938 256.358 120.098 C 256.146 120.099 255.935 120.093 255.721 120.095 C 249.192 120.173 243.136 122.442 236.549 122.274 C 227.82 122.05 219.101 122.038 210.368 122.024 C 210.345 122.024 210.324 122.024 210.301 122.024 C 210.162 120.074 209.917 118.13 209.405 116.199 C 207.683 109.702 207.933 103.107 207.723 96.405 C 207.705 95.839 207.672 95.27 207.635 94.698 C 208.075 94.657 208.512 94.632 208.952 94.587 C 224.313 93.054 239.748 95.97 255.082 94.005 Z M 215.471 145.073 C 214.481 142.421 213.15 140.559 211.603 139.326 C 211.346 137.999 211.106 136.691 210.933 135.417 C 210.719 133.846 210.62 132.273 210.567 130.702 C 214.958 130.694 219.348 130.684 223.739 130.683 C 229.895 130.682 236.3 131.371 242.493 130.825 C 241.152 133.032 240.182 135.429 239.748 137.895 C 238.462 145.198 241.753 150.923 246.798 153.937 C 245.915 154.018 245.037 154.091 244.148 154.179 C 236.373 154.951 228.661 153.959 220.885 154.302 C 219.146 154.38 217.416 154.544 215.69 154.748 C 216.512 151.43 216.575 148.031 215.471 145.073 Z M 129.001 78.69 C 130.861 75.506 132.396 72.089 133.614 68.576 C 136.746 68.143 139.876 67.764 143.002 67.501 C 159.852 66.084 176.784 67.558 193.645 65.777 C 201.361 64.962 209.04 62.896 216.807 62.959 C 221.427 62.996 225.921 63.335 230.434 63.331 C 227.069 64.34 223.802 65.585 220.346 66.777 C 214.126 68.922 207.511 68.798 201.166 70.434 C 199.533 70.855 198.218 72.215 197.773 73.827 C 196.523 78.359 196.576 82.936 196.694 87.544 C 187.377 88.304 178.06 89.214 168.765 89.852 C 161.812 90.329 154.863 89.81 147.911 90.108 C 139.787 90.456 132.011 92.329 123.808 92.314 C 122.286 92.311 120.752 92.28 119.211 92.238 C 122.834 87.935 126.219 83.454 129.001 78.69 Z M 69.7 166.58 C 76.318 166.628 82.857 166.811 89.376 166.83 C 91.025 171.31 93.868 175.634 97.316 178.597 C 99.084 180.116 100.913 181.091 102.791 181.689 C 103.203 184.522 103.677 187.342 104.172 190.16 C 96.925 190.056 89.674 189.996 82.449 190.159 C 82.333 190.061 82.206 189.976 82.094 189.873 C 79.951 187.903 78.647 185.125 77.313 182.58 C 74.692 177.579 71.323 172.057 69.588 166.579 C 69.624 166.58 69.662 166.58 69.7 166.58 Z M 68.915 158.566 C 69.619 154.807 71.643 151.413 73.709 147.79 C 76.642 142.649 79.69 137.646 83.209 132.88 C 83.589 132.365 83.986 131.866 84.373 131.357 C 86.979 130.887 89.61 130.443 92.242 130.603 C 94.442 130.736 96.52 131.4 98.625 131.968 C 98.631 132.996 98.616 134.034 98.575 135.081 C 96.333 137.29 94.615 140.097 92.781 143.037 C 89.682 148.005 87.659 153.137 87.795 158.842 C 83.381 158.71 78.965 158.533 74.583 158.565 C 72.699 158.576 70.806 158.57 68.915 158.566 Z M 99.479 72.62 C 106.364 72.507 113.243 71.632 120.113 70.605 C 117.29 76.241 113.373 81.302 109.411 86.18 C 107.922 88.013 106.392 89.822 104.849 91.625 C 104.015 91.588 103.181 91.551 102.347 91.518 C 101.307 85.23 100.204 78.949 99.479 72.62 Z M 105.861 199.503 C 105.904 199.737 105.95 199.97 105.993 200.203 C 104.773 200.12 103.528 199.961 102.229 199.683 C 101.705 199.571 101.192 199.5 100.673 199.406 C 102.404 199.442 104.133 199.476 105.861 199.503 Z M 104.875 111.805 C 104.809 110.635 104.719 109.469 104.616 108.303 C 105.407 107.458 106.197 106.614 106.986 105.767 C 108.851 103.76 110.751 101.732 112.642 99.674 C 113.645 99.697 114.648 99.726 115.651 99.744 C 122.551 99.872 129.543 100.205 136.398 99.261 C 144.987 98.079 153.004 97.853 161.657 97.757 C 169.526 97.671 177.299 96.523 185.144 96.062 C 189.027 95.834 192.879 95.667 196.728 95.465 C 196.471 102.371 195.461 109.578 196.783 116.328 C 197.155 118.231 197.387 120.119 197.55 122.003 C 185.325 121.983 173.099 121.962 160.872 121.939 C 152.413 121.922 143.919 121.676 135.463 121.902 C 127.875 122.104 120.45 123.655 112.846 123.79 C 110.578 123.831 108.436 123.873 106.316 123.787 C 105.734 119.82 105.107 115.863 104.875 111.805 Z M 150.707 130.792 C 166.469 130.765 182.23 130.745 197.992 130.72 C 198.077 132.936 198.184 135.165 198.413 137.431 C 198.482 138.109 198.572 138.812 198.671 139.532 C 192.285 143.034 186.531 150.227 185.732 156.313 C 185.684 156.684 185.665 157.054 185.649 157.424 C 181.458 157.42 177.267 157.307 173.081 157.148 C 164.063 156.805 155.039 156.21 146.011 155.924 C 144.268 149.229 145.053 143.672 139.618 138.392 C 136.331 135.197 132.002 133.002 127.306 131.657 C 135.11 130.885 142.79 130.806 150.707 130.792 Z M 100.178 42.136 C 101.89 36.602 104.402 30.984 106.543 25.586 C 108.162 21.503 109.919 20.101 113.866 22.153 C 116.477 23.511 119.387 26.222 121.238 28.517 C 123.445 31.254 124.565 34.354 125.381 37.752 C 126.141 40.913 127.575 45.119 127.428 48.34 C 127.302 51.087 125.495 53.589 124.696 56.272 C 124.421 57.195 124.185 58.114 123.963 59.03 C 122.216 59.256 120.468 59.489 118.712 59.743 C 111.942 60.721 105.358 61.426 98.667 61.768 C 98.371 55.194 98.231 48.43 100.178 42.136 Z M 97.714 117.631 C 97.855 119.304 98.003 120.948 98.139 122.58 C 96.166 122.121 94.234 121.833 92.252 121.763 C 94.005 119.766 95.787 117.794 97.588 115.839 C 97.628 116.435 97.664 117.03 97.714 117.631 Z M 56.251 83.385 C 56.232 80.943 56.424 78.268 56.355 75.628 C 61.605 74.873 67.006 74.375 72.209 74.141 C 79.291 73.823 86.145 72.358 93.226 72.539 C 93.412 74.062 93.602 75.562 93.787 77.034 C 94.387 81.809 95.047 86.582 95.75 91.346 C 88.622 91.267 81.552 91.615 74.754 93.084 C 68.757 94.379 62.608 94.597 56.417 94.526 C 56.345 90.81 56.28 87.097 56.251 83.385 Z M 56.566 101.594 C 60.987 101.729 65.406 101.773 69.744 101.453 C 76.611 100.945 83.013 99.092 90.012 99.15 C 92.267 99.169 94.523 99.21 96.781 99.259 C 96.823 99.722 96.873 100.186 96.906 100.647 C 90.302 108.005 83.598 115.329 77.438 123.031 C 73.471 123.52 69.51 124.068 65.615 124.607 C 62.768 125.001 59.958 125.399 57.127 125.662 C 56.963 117.64 56.754 109.616 56.566 101.594 Z M 57.299 135.755 C 57.294 135.225 57.279 134.695 57.272 134.166 C 58.605 134.087 59.94 133.987 61.275 133.818 C 64.167 133.452 67.072 133.235 69.975 133.021 C 66.126 138.628 62.68 144.506 59.861 150.8 C 59.144 152.402 58.623 153.997 58.266 155.586 C 57.508 149.017 57.372 142.547 57.299 135.755 Z M 59.606 174.082 C 59.591 173.431 59.603 172.79 59.606 172.145 C 61.462 177.792 64.353 183.298 66.99 188.613 C 67.385 189.411 67.793 190.159 68.209 190.882 C 65.913 191.14 63.653 191.524 61.408 191.961 C 61.395 190.006 61.304 188.056 61.044 186.119 C 60.507 182.114 59.701 178.134 59.606 174.082 Z M 73.355 226.707 C 70.127 227.029 66.925 227.306 63.727 227.565 C 63.693 227.437 63.652 227.306 63.613 227.177 C 63.345 221.149 62.892 215.513 61.803 209.382 C 61.282 206.449 61.206 203.47 61.246 200.475 C 62.461 200.296 63.683 200.129 64.922 200.005 C 68.328 199.661 71.745 199.462 75.167 199.335 C 75.939 200.011 76.742 200.682 77.62 201.355 C 83.44 205.808 85.932 210.107 93.815 210.57 C 98.686 210.856 103.372 212.286 108.262 212.285 C 108.637 214.447 108.988 216.612 109.26 218.792 C 109.47 220.483 109.604 222.176 109.702 223.87 C 97.611 225.034 85.461 225.498 73.355 226.707 Z M 110.16 157.957 C 110.11 157.056 110.067 156.156 110.038 155.254 C 109.931 151.921 109.306 148.706 108.699 145.477 C 109.568 144.696 110.673 144.132 112.233 143.905 C 116.948 143.217 122.298 143.305 126.821 144.918 C 132.192 146.834 133.052 149.477 133.835 154.743 C 133.887 155.094 133.97 155.437 134.042 155.784 C 131.65 155.812 129.258 155.867 126.866 155.986 C 121.243 156.268 115.711 157.215 110.16 157.957 Z M 113.481 181.9 C 114.905 181.641 116.344 181.314 117.799 180.963 C 122.633 179.797 122.907 171.899 117.799 170.908 C 115.614 170.483 113.396 170.244 111.348 169.683 C 111.165 168.397 111.001 167.109 110.85 165.82 C 112.022 165.687 113.194 165.566 114.37 165.395 C 121.424 164.378 128.497 164.006 135.579 163.959 C 135.742 167.302 135.437 170.773 135.405 174.075 C 135.353 179.363 135.981 185.262 133.999 190.312 C 131.187 190.323 128.373 190.335 125.548 190.35 C 122.139 190.369 118.718 190.342 115.293 190.304 C 114.662 187.511 114.051 184.71 113.481 181.9 Z M 485.865 188.041 C 485.598 193.827 484.584 199.674 485.67 205.385 C 483.5 205.864 481.358 206.377 479.103 206.504 C 475.239 206.721 471.406 206.213 467.539 206.671 C 464.613 207.017 461.866 208.043 458.975 208.518 C 455.174 209.142 451.293 208.524 447.458 208.439 C 430.824 208.069 414.136 208.461 397.496 208.471 C 365.631 208.491 333.758 208.247 301.896 208.372 C 286.323 208.433 271.278 211.569 255.647 211.081 C 248.32 210.852 240.999 210.608 233.7 211.466 C 225.835 212.39 218.015 211.823 210.177 212.717 C 203.693 213.457 197.212 214.5 190.749 215.412 C 182.915 216.517 175.036 216.35 167.175 217.333 C 160.159 218.21 153.076 217.819 146.091 219.008 C 138.469 220.307 130.785 221 123.142 222.206 C 122.621 222.289 122.096 222.35 121.575 222.427 C 121.082 218.626 120.524 214.832 119.856 211.043 C 123.08 210.487 126.267 209.769 129.187 208.885 C 134.783 207.187 138.82 204.023 141.629 199.971 C 148.443 200.022 155.245 199.956 161.994 199.571 C 168.664 199.191 175.317 198.273 181.984 197.801 C 184.914 197.594 187.665 197.069 190.543 196.549 C 195.657 195.624 200.439 196.246 205.555 195.931 C 208.854 195.728 211.874 194.681 215.103 194.1 C 218.822 193.43 222.548 193.869 226.295 193.963 C 234.91 194.18 243.559 194.025 252.178 194.004 C 268.205 193.963 283.931 190.854 299.915 190.291 C 314.609 189.774 329.496 187.989 344.081 186.261 C 351.57 185.374 358.875 183.13 366.413 182.662 C 373.738 182.208 380.795 182.654 388.083 181.484 C 406.567 178.513 425.291 180.514 443.905 180.735 C 451.873 180.829 459.955 181.677 467.878 180.544 C 472.32 179.908 476.606 179.436 481.063 179.029 C 482.535 178.894 484.305 178.289 486.028 177.879 C 486.034 181.266 486.021 184.656 485.865 188.041 Z M 486.268 162.757 C 486.162 164.501 486.107 166.248 486.071 167.994 C 483.705 168.327 481.307 168.998 478.87 169.235 C 470.907 170.009 463.302 171.634 455.255 171.401 C 439.416 170.946 423.492 170.099 407.645 170.289 C 400.17 170.378 392.909 171.095 385.541 172.262 C 377.274 173.57 368.951 172.568 360.657 173.754 C 353.592 174.765 346.67 176.726 339.526 177.139 C 331.884 177.581 324.194 178.307 316.601 179.308 C 300.492 181.431 284.039 182.431 267.815 183.889 C 251.288 185.374 234.736 183.564 218.228 184.31 C 214.872 184.461 211.803 185.402 208.531 186.06 C 204.33 186.905 200.208 186.257 195.965 186.432 C 189.098 186.715 182.104 188.199 175.227 188.841 C 165.398 189.759 155.632 190.082 145.84 190.215 C 146.613 186.989 146.983 183.567 146.999 180.081 C 147.022 174.914 147.468 169.453 147.199 164.138 C 160.8 164.61 174.422 165.775 188.012 165.679 C 188.086 165.795 188.144 165.919 188.224 166.031 C 192.868 172.631 203.073 171.91 208.625 166.884 C 209.559 166.039 210.449 165.042 211.275 163.95 C 217.637 163.119 223.663 162.553 230.217 162.765 C 238.917 163.047 247.129 161.826 255.763 161.232 C 263.245 160.717 270.698 161.256 278.161 160.218 C 285.286 159.228 292.428 159.562 299.523 158.428 C 307.322 157.182 314.804 157.252 322.687 157.325 C 330.825 157.399 338.52 155.555 346.571 155.315 C 361.494 154.87 376.275 152.648 391.135 151.684 C 398.802 151.187 405.958 149.149 413.738 149.336 C 422.757 149.552 431.733 149.953 440.761 149.981 C 449.385 150.008 457.335 150.137 465.817 151.525 C 472.418 152.606 479.448 152.312 486.307 152.075 C 486.464 155.62 486.484 159.176 486.268 162.757 Z"/><path d=" M 130.71 441.873 C 130.147 441.606 130.216 441.755 129.781 441.354 C 129.234 440.851 128.872 440.336 128.493 439.735 C 126.582 436.71 125.629 433.181 123.092 430.548 C 120.926 428.301 116.651 431.378 118.647 433.978 C 120.68 436.626 120.811 440.666 122.214 443.695 C 123.86 447.245 129.839 451.841 132.966 447.065 C 134.432 444.825 132.809 442.869 130.71 441.873 Z"/><path d=" M 144.563 438.905 C 144.614 437.79 143.316 436.669 142.206 437.109 C 142.206 437.109 141.703 437.32 141.405 437.466 C 141.385 437.43 141.359 437.397 141.339 437.361 C 140.838 436.499 140.531 435.711 140.195 434.882 C 139.401 432.922 138.783 430.678 137.144 429.206 C 134.349 426.694 130.377 430.604 133.001 433.349 C 133.206 433.564 133.169 433.462 133.296 433.912 C 133.455 434.475 133.592 435.026 133.703 435.603 C 133.95 436.877 134.106 438.186 134.491 439.428 C 135.414 442.406 137.712 445.089 141.111 444.825 C 143.177 444.665 144.323 443.345 144.586 441.35 C 144.662 440.775 144.61 440.304 144.48 439.835 C 144.52 439.529 144.548 439.222 144.563 438.905 Z"/><path d=" M 153.869 440.626 C 153.831 440.656 153.803 440.695 153.762 440.723 C 153.917 440.614 153.93 440.596 153.869 440.626 Z"/><path d=" M 154.594 437.574 C 155.091 438.065 154.8 437.721 154.553 437.46 C 154.47 437.244 154.38 437.03 154.285 436.808 C 154.277 436.79 154.265 436.78 154.257 436.762 C 154.23 436.657 154.173 436.461 154.06 436.102 C 153.619 434.7 152.945 433.387 152.513 431.972 C 151.719 429.375 151.202 426.775 150.754 424.103 C 150.093 420.174 144.251 421.883 144.816 425.74 C 145.307 429.085 145.617 432.509 146.513 435.775 C 147.029 437.653 147.793 439.478 149.504 440.565 C 150.129 440.962 151.096 441.304 151.848 441.326 C 152.154 441.336 152.513 441.32 152.805 441.233 C 152.89 441.208 153.692 440.712 153.866 440.625 C 154.619 440.035 155.056 439.159 154.793 438.186 C 154.737 437.972 154.667 437.773 154.594 437.574 Z"/><path d=" M 161.038 426.924 C 161.41 427.33 161.069 427.78 160.784 428.549 C 160.34 429.746 160.016 430.866 159.955 432.157 C 159.769 436.07 166.097 436.104 166.058 432.157 C 166.045 430.918 166.793 429.475 166.963 428.115 C 167.215 426.099 166.491 424.327 165.041 422.922 C 162.412 420.376 158.575 424.248 161.038 426.924 Z"/><path d=" M 248.014 394.448 C 246.532 395.315 246.339 396.98 246.972 398.422 C 248.155 401.119 249.624 403.621 250.594 406.42 C 251.761 409.784 256.241 409.018 256.595 405.608 C 256.984 401.866 253.547 398.611 251.988 395.491 C 251.289 394.087 249.306 393.694 248.014 394.448 Z"/><path d=" M 267.203 396.066 C 267.16 395.992 266.815 395.467 266.786 395.449 C 266.599 395.116 266.422 394.779 266.253 394.435 C 265.994 393.905 265.717 393.075 265.474 392.185 C 265.263 391.412 265.09 390.629 264.946 389.841 C 264.373 386.702 259.078 387.388 259.337 390.6 C 259.484 392.432 259.72 394.311 260.255 396.074 C 261.024 398.608 263.483 402.271 266.497 400.077 C 267.565 399.3 267.795 398.081 267.542 397.013 C 267.466 396.691 267.373 396.357 267.203 396.066 Z"/><path d=" M 278.918 395.622 C 278.968 395.319 278.957 395.016 278.862 394.713 C 278.721 394.029 278.488 393.352 278.324 392.671 C 278 391.327 277.813 389.957 277.538 388.602 C 276.844 385.172 271.504 386.613 272.27 390.054 C 272.979 393.235 273.331 398.314 277.446 398.718 C 278.689 398.84 279.321 397.5 279.146 396.487 C 279.131 396.39 279.016 395.921 278.918 395.622 Z"/><path d=" M 366.581 365.714 C 366.126 363.811 364.88 362.081 364.902 360.093 C 364.935 357.066 360.698 357.27 360.333 360.093 C 360.043 362.334 361.265 364.275 361.155 366.449 C 361.028 368.985 360.275 371.051 360.854 373.624 C 361.179 375.076 362.719 376.17 364.176 376.154 C 365.77 376.136 366.97 375.593 367.786 374.176 C 368.582 372.794 368.207 371.233 367.201 370.267 C 366.984 368.748 366.94 367.211 366.581 365.714 Z"/><path d=" M 377.364 363.737 C 377.302 363.422 377.342 363.324 377.341 363.334 C 377.509 362.306 377.93 361.369 377.959 360.303 C 378.023 357.974 377.063 355.976 374.95 354.756 C 373.432 353.88 371.633 355.639 372.539 357.167 C 372.74 357.508 372.81 357.89 372.868 358.261 C 372.813 358.339 372.77 358.397 372.696 358.506 C 372.635 358.613 372.575 358.72 372.514 358.826 C 371.931 359.746 371.426 360.768 371.057 361.793 C 370.17 364.26 370.724 367.573 373.405 368.71 C 375.733 369.696 378.619 368.069 377.873 365.275 C 377.723 364.722 377.464 364.251 377.364 363.737 Z"/><path d=" M 388.867 353.285 C 387.392 352.863 385.313 353.8 385.05 355.452 C 384.714 357.557 383.447 359.137 382.53 361.01 C 382.034 362.022 381.636 362.998 381.486 364.118 C 381.41 364.689 381.339 365.268 381.483 365.837 C 381.135 366.689 381.586 367.673 382.528 368.003 C 382.813 368.131 383.11 368.208 383.422 368.231 C 384.363 368.384 385.288 368.128 385.799 367.264 C 385.271 368.158 386.477 366.605 386.525 366.542 C 386.727 366.272 386.905 365.925 387.077 365.633 C 387.612 364.725 388.14 363.811 388.666 362.897 C 389.707 361.087 390.735 359.194 391.036 357.103 C 391.273 355.432 390.622 353.789 388.867 353.285 Z"/><path d=" M 37.701 444.852 C 36.964 443.66 39.176 440.202 39.637 439.046 C 40.846 436.017 41.61 433.267 41.473 430.008 C 41.378 427.725 38.247 427.827 37.998 430.008 C 37.35 435.67 28.842 442.384 33.6 448.017 C 35.523 450.295 39.241 447.347 37.701 444.852 Z"/><path d=" M 48.881 456.692 C 47.159 456.575 46.411 457.753 44.76 458.155 C 43.279 458.516 43.135 458.976 43.531 456.693 C 43.717 455.624 44.182 454.618 44.563 453.612 C 45.982 449.867 49.252 445.765 49.074 441.66 C 49.031 440.662 48.255 439.786 47.212 439.798 C 46.84 439.802 46.466 439.806 46.092 439.809 C 44.478 439.826 44.137 441.528 44.967 442.506 C 42.695 447.337 33.348 455.559 39.346 460.106 C 41.566 461.789 43.241 460.027 45.248 459.308 C 48.711 458.066 47.612 460.669 47.218 462.951 C 46.989 464.273 46.704 465.525 46.796 466.873 C 46.863 467.857 47.584 468.72 48.633 468.71 C 54.45 468.656 54.652 457.083 48.881 456.692 Z"/><g></g><g></g><g></g><g></g><g></g><g></g><g></g><g></g><g></g><g></g><g></g><g></g><g></g><g></g><g></g></svg>