<svg version="1.1" viewBox="0 0 496 496" xmlns="http://www.w3.org/2000/svg" xmlns:xlink="http://www.w3.org/1999/xlink" id="Layer_1" overflow="hidden"><g><g><path d=" M 472 116.07 L 24 116.07 C 10.766 116.07 0 126.836 0 140.07 L 0 404.07 C 0 417.304 10.766 428.07 24 428.07 L 472 428.07 C 485.234 428.07 496 417.304 496 404.07 L 496 140.07 C 496 126.836 485.234 116.07 472 116.07 Z" fill="#FF4F19"/></g><g><rect x="224" y="388.07" width="48" height="40" fill="#E3001E"/></g><g><path d=" M 464.219 364.07 L 464.219 388.07 C 464.219 392.488 460.637 396.07 456.219 396.07 L 40.219 396.07 C 35.801 396.07 32.219 392.488 32.219 388.07 L 32.219 364.07 L 80 340.07 L 272 348.07 L 432 340.07 L 464.219 364.07 Z" fill="#E6BE8A"/></g><g><path d=" M 43.443 375.116 C 109.182 347.977 183.527 349.629 248.219 380.07 L 248.219 92.07 C 181.394 60.625 104.27 59.9 36.97 89.894 C 34.074 91.185 32.219 94.116 32.219 97.287 L 32.219 367.802 C 32.219 373.581 38.102 377.321 43.443 375.116 Z" fill="#FFEBB7"/></g><g><path d=" M 248.219 380.07 C 312.911 349.628 387.256 347.977 452.995 375.116 C 458.336 377.321 464.219 373.581 464.219 367.802 L 464.219 97.287 C 464.219 94.116 462.364 91.185 459.468 89.894 C 392.168 59.9 315.043 60.625 248.219 92.07 L 248.219 380.07 Z" fill="#FFD788"/></g><g><g><path d=" M 280.219 327.824 C 276.813 327.824 273.656 325.636 272.586 322.219 C 271.266 318.004 273.609 313.512 277.82 312.188 C 285.914 309.645 294.242 307.473 302.578 305.727 C 306.891 304.821 311.141 307.582 312.047 311.915 C 312.953 316.239 310.188 320.478 305.859 321.384 C 298.031 323.025 290.211 325.068 282.617 327.454 C 281.82 327.703 281.008 327.824 280.219 327.824 Z" fill="#868491"/></g></g><g><g><path d=" M 432.219 327.824 C 431.43 327.824 430.617 327.703 429.821 327.453 C 399.634 317.973 368.344 314.422 336.852 316.93 C 332.383 317.25 328.594 313.989 328.243 309.586 C 327.899 305.18 331.181 301.328 335.587 300.977 C 369.196 298.336 402.478 302.094 434.618 312.188 C 438.829 313.512 441.173 318.004 439.852 322.219 C 438.781 325.637 435.625 327.824 432.219 327.824 Z" fill="#868491"/></g></g><g><g><path d=" M 432.219 295.73 C 431.43 295.73 430.617 295.609 429.821 295.359 C 381.665 280.234 330.774 280.234 282.618 295.359 C 278.384 296.683 273.899 294.336 272.587 290.125 C 271.267 285.91 273.61 281.418 277.821 280.094 C 329.118 263.985 383.321 263.985 434.618 280.094 C 438.829 281.418 441.173 285.91 439.852 290.125 C 438.781 293.543 435.625 295.73 432.219 295.73 Z" fill="#868491"/></g></g><g><g><path d=" M 280.219 263.824 C 276.813 263.824 273.656 261.636 272.586 258.219 C 271.266 254.004 273.609 249.512 277.82 248.188 C 307.265 238.946 337.82 235.012 368.601 236.458 C 373.007 236.669 376.421 240.415 376.21 244.829 C 376.007 249.251 372.319 252.626 367.835 252.442 C 338.952 251.079 310.257 254.774 282.616 263.454 C 281.82 263.703 281.008 263.824 280.219 263.824 Z" fill="#868491"/></g></g><g><g><path d=" M 432.219 263.824 C 431.43 263.824 430.617 263.703 429.821 263.453 C 419.712 260.277 409.282 257.73 398.821 255.887 C 394.469 255.117 391.563 250.969 392.337 246.617 C 393.103 242.269 397.259 239.359 401.603 240.129 C 412.744 242.094 423.845 244.805 434.619 248.188 C 438.83 249.512 441.174 254.004 439.853 258.219 C 438.781 261.637 435.625 263.824 432.219 263.824 Z" fill="#868491"/></g></g><g><g><path d=" M 432.219 231.73 C 431.43 231.73 430.617 231.609 429.821 231.359 C 381.665 216.234 330.774 216.234 282.618 231.359 C 278.384 232.675 273.899 230.332 272.587 226.125 C 271.267 221.91 273.61 217.418 277.821 216.094 C 329.118 199.985 383.321 199.985 434.618 216.094 C 438.829 217.418 441.173 221.91 439.852 226.125 C 438.781 229.543 435.625 231.73 432.219 231.73 Z" fill="#868491"/></g></g><g><g><path d=" M 280.219 199.731 C 276.813 199.731 273.656 197.543 272.586 194.126 C 271.266 189.911 273.609 185.419 277.82 184.095 C 293.914 179.04 310.57 175.533 327.343 173.673 C 331.796 173.138 335.695 176.357 336.179 180.739 C 336.663 185.13 333.499 189.087 329.109 189.571 C 313.367 191.321 297.718 194.614 282.617 199.36 C 281.82 199.609 281.008 199.731 280.219 199.731 Z" fill="#868491"/></g></g><g><g><path d=" M 432.219 199.731 C 431.43 199.731 430.617 199.61 429.821 199.36 C 407.235 192.262 383.782 188.473 360.102 188.102 C 355.68 188.032 352.157 184.395 352.227 179.977 C 352.297 175.563 356.157 171.844 360.352 172.102 C 385.571 172.5 410.563 176.536 434.618 184.094 C 438.829 185.418 441.173 189.91 439.852 194.125 C 438.773 197.543 435.625 199.731 432.219 199.731 Z" fill="#868491"/></g></g><g><g><path d=" M 280.219 167.824 C 276.813 167.824 273.656 165.636 272.586 162.219 C 271.266 158.004 273.609 153.512 277.82 152.188 C 312.679 141.239 348.757 137.723 385.101 141.766 C 389.492 142.25 392.656 146.207 392.171 150.598 C 391.687 154.985 387.812 158.235 383.335 157.664 C 349.241 153.883 315.343 157.168 282.616 167.453 C 281.82 167.703 281.008 167.824 280.219 167.824 Z" fill="#868491"/></g></g><g><g><path d=" M 432.219 167.824 C 431.43 167.824 430.617 167.703 429.821 167.453 C 424.743 165.855 419.532 164.406 414.321 163.137 C 410.032 162.09 407.399 157.762 408.446 153.469 C 409.493 149.176 413.79 146.551 418.118 147.59 C 423.657 148.942 429.204 150.488 434.618 152.188 C 438.829 153.512 441.173 158.004 439.852 162.219 C 438.781 165.637 435.625 167.824 432.219 167.824 Z" fill="#868491"/></g></g><g><g><path d=" M 280.219 135.731 C 276.813 135.731 273.656 133.54 272.586 130.122 C 271.266 125.903 273.609 121.415 277.828 120.095 C 283.328 118.368 288.875 116.825 294.32 115.501 C 298.586 114.45 302.937 117.091 303.984 121.384 C 305.031 125.677 302.39 130.005 298.101 131.048 C 292.992 132.29 287.781 133.739 282.609 135.36 C 281.812 135.609 281.008 135.731 280.219 135.731 Z" fill="#868491"/></g></g><g><g><path d=" M 432.219 135.731 C 431.43 135.731 430.617 135.61 429.821 135.36 C 397.087 125.075 363.204 121.794 329.102 125.571 C 324.68 126.11 320.75 122.887 320.266 118.505 C 319.782 114.114 322.946 110.157 327.336 109.673 C 363.664 105.63 399.75 109.146 434.617 120.095 C 438.828 121.419 441.172 125.911 439.851 130.126 C 438.781 133.543 435.625 135.731 432.219 135.731 Z" fill="#868491"/></g></g><g><g><path d=" M 64.219 327.824 C 60.813 327.824 57.657 325.636 56.586 322.219 C 55.266 318.004 57.609 313.512 61.82 312.188 C 69.914 309.645 78.242 307.473 86.578 305.727 C 90.898 304.821 95.141 307.582 96.047 311.915 C 96.953 316.239 94.188 320.478 89.859 321.384 C 82.031 323.025 74.211 325.068 66.617 327.454 C 65.82 327.703 65.008 327.824 64.219 327.824 Z" fill="#B4B6BC"/></g></g><g><g><path d=" M 216.219 327.824 C 215.43 327.824 214.617 327.703 213.821 327.453 C 183.641 317.973 152.344 314.422 120.852 316.93 C 116.321 317.25 112.594 313.989 112.243 309.586 C 111.899 305.18 115.181 301.328 119.587 300.977 C 153.196 298.336 186.47 302.094 218.618 312.188 C 222.829 313.512 225.173 318.004 223.852 322.219 C 222.781 325.637 219.625 327.824 216.219 327.824 Z" fill="#B4B6BC"/></g></g><g><g><path d=" M 216.219 295.73 C 215.43 295.73 214.617 295.609 213.821 295.359 C 165.665 280.234 114.774 280.234 66.618 295.359 C 62.368 296.683 57.899 294.336 56.587 290.125 C 55.267 285.91 57.61 281.418 61.821 280.094 C 113.118 263.985 167.321 263.985 218.618 280.094 C 222.829 281.418 225.173 285.91 223.852 290.125 C 222.781 293.543 219.625 295.73 216.219 295.73 Z" fill="#B4B6BC"/></g></g><g><g><path d=" M 64.219 263.824 C 60.813 263.824 57.657 261.636 56.586 258.219 C 55.266 254.004 57.609 249.512 61.82 248.188 C 91.265 238.946 121.843 235.012 152.601 236.458 C 157.007 236.669 160.421 240.415 160.21 244.829 C 159.999 249.251 156.272 252.626 151.835 252.442 C 122.944 251.079 94.257 254.774 66.616 263.454 C 65.82 263.703 65.008 263.824 64.219 263.824 Z" fill="#B4B6BC"/></g></g><g><g><path d=" M 216.219 263.824 C 215.43 263.824 214.617 263.703 213.821 263.453 C 203.712 260.277 193.282 257.73 182.821 255.887 C 178.469 255.117 175.563 250.969 176.337 246.617 C 177.095 242.269 181.267 239.359 185.603 240.129 C 196.744 242.094 207.845 244.805 218.619 248.188 C 222.83 249.512 225.174 254.004 223.853 258.219 C 222.781 261.637 219.625 263.824 216.219 263.824 Z" fill="#B4B6BC"/></g></g><g><g><path d=" M 64.219 231.73 C 60.813 231.73 57.657 229.542 56.586 226.125 C 55.266 221.91 57.609 217.418 61.82 216.094 C 107.297 201.817 155.82 200.227 202.109 211.5 C 206.406 212.547 209.039 216.875 207.992 221.168 C 206.945 225.457 202.594 228.07 198.328 227.047 C 154.859 216.449 109.312 217.953 66.617 231.36 C 65.82 231.609 65.008 231.73 64.219 231.73 Z" fill="#B4B6BC"/></g></g><g><g><path d=" M 64.219 199.731 C 60.813 199.731 57.657 197.543 56.586 194.126 C 55.266 189.911 57.609 185.419 61.82 184.095 C 77.914 179.04 94.57 175.533 111.343 173.673 C 115.757 173.138 119.695 176.357 120.179 180.739 C 120.663 185.13 117.499 189.087 113.109 189.571 C 97.367 191.321 81.718 194.614 66.617 199.36 C 65.82 199.609 65.008 199.731 64.219 199.731 Z" fill="#B4B6BC"/></g></g><g><g><path d=" M 200.227 195.273 C 199.602 195.273 198.961 195.199 198.329 195.046 C 180.595 190.726 162.345 188.386 144.102 188.101 C 139.68 188.031 136.157 184.394 136.227 179.976 C 136.297 175.562 139.75 171.843 144.352 172.101 C 163.789 172.41 183.219 174.898 202.11 179.499 C 206.407 180.546 209.04 184.874 207.993 189.167 C 207.101 192.824 203.828 195.273 200.227 195.273 Z" fill="#B4B6BC"/></g></g><g><g><path d=" M 64.219 167.824 C 60.813 167.824 57.657 165.636 56.586 162.219 C 55.266 158.004 57.609 153.512 61.82 152.188 C 96.687 141.239 132.765 137.723 169.101 141.766 C 173.492 142.25 176.656 146.207 176.171 150.598 C 175.687 154.985 171.78 158.235 167.335 157.664 C 133.241 153.883 99.343 157.168 66.616 167.453 C 65.82 167.703 65.008 167.824 64.219 167.824 Z" fill="#B4B6BC"/></g></g><g><g><path d=" M 64.219 135.731 C 60.813 135.731 57.657 133.54 56.586 130.122 C 55.266 125.903 57.609 121.415 61.828 120.095 C 67.328 118.368 72.875 116.825 78.32 115.501 C 82.578 114.45 86.937 117.091 87.984 121.384 C 89.031 125.677 86.39 130.005 82.101 131.048 C 76.992 132.29 71.781 133.739 66.609 135.36 C 65.812 135.609 65.008 135.731 64.219 135.731 Z" fill="#B4B6BC"/></g></g><g><g><path d=" M 200.227 131.27 C 199.602 131.27 198.961 131.196 198.329 131.043 C 170.368 124.234 141.696 122.402 113.102 125.57 C 108.711 126.109 104.75 122.894 104.266 118.504 C 103.782 114.113 106.946 110.156 111.336 109.672 C 141.781 106.281 172.336 108.25 202.109 115.496 C 206.406 116.543 209.039 120.871 207.992 125.164 C 207.101 128.82 203.828 131.27 200.227 131.27 Z" fill="#B4B6BC"/></g></g><g><path d=" M 200.219 216.064 C 200.22 219.258 203.78 221.164 206.438 219.392 L 224.219 207.538 L 242 219.392 C 244.658 221.164 248.219 219.259 248.219 216.064 L 248.219 92.734 C 248.219 89.574 246.376 86.657 243.488 85.373 C 231.031 79.833 218.229 75.39 205.226 71.955 C 202.689 71.285 200.196 73.247 200.197 75.871 L 200.219 216.064 Z" fill="#5D647F"/></g></g><g></g><g></g><g></g><g></g><g></g><g></g><g></g><g></g><g></g><g></g><g></g><g></g><g></g><g></g><g></g></svg>