<svg version="1.1" width="512" height="512" viewBox="0 0 489.687 489.687" xmlns="http://www.w3.org/2000/svg" xmlns:xlink="http://www.w3.org/1999/xlink" id="Layer_1" overflow="hidden"><g><path d=" M 409.91 301.824 C 401.017 295.665 380.335 277.374 380.335 240.617 C 380.335 215.605 387.304 194.317 401.047 177.343 L 404.968 172.499 L 410.624 175.116 C 424.237 181.416 437.395 190.367 449.731 201.72 C 464.566 215.386 474.439 229.227 479.004 236.261 L 481.829 240.614 L 479.008 244.968 C 474.453 251.997 464.592 265.833 449.734 279.522 C 439.744 288.718 429.162 296.375 418.279 302.279 L 413.954 304.626 L 409.91 301.824 Z" fill="#F4A026"/><path d=" M 353.495 361.266 C 328.427 361.266 310.227 357.454 303.31 353.678 L 298.685 351.152 L 299.18 345.906 C 300.316 333.865 304.855 323.759 313.058 315.007 L 316.172 311.685 L 320.619 312.665 C 335.599 315.971 348.641 317.718 358.336 317.718 C 374.936 317.718 391.336 314.304 407.08 307.572 L 414.648 304.336 L 417.668 311.993 C 423.076 325.708 419.2 339.446 406.755 350.678 L 406.371 351.024 L 405.945 351.319 C 392.96 360.296 364.939 361.266 353.495 361.266 Z" fill="#F4A026"/><path d=" M 260.813 182.257 C 245.765 166.694 240.18 153.863 244.213 144.125 C 249.746 130.787 271.561 127.617 276.665 127.547 C 276.662 127.547 280.143 127.497 281.267 127.478 C 294.232 127.258 318.36 126.848 366.041 108.273 C 370.955 106.356 375.5 105.383 379.548 105.383 C 386.809 105.383 390.853 108.514 392.182 109.542 C 406.068 120.348 406.378 149.855 405.868 162.041 L 405.43 172.504 L 395.451 169.33 C 383.342 165.478 370.854 163.526 358.335 163.526 C 336.807 163.526 300.277 172.002 269.499 184.138 L 264.527 186.098 L 260.813 182.257 Z" fill="#F4A026"/><path d=" M 358.335 317.717 C 338.757 317.717 300.281 309.959 264.624 295.133 C 241.555 285.54 202.855 265.701 202.855 240.616 C 202.855 215.546 241.554 195.699 264.622 186.1 C 300.265 171.28 338.745 163.526 358.335 163.526 C 370.475 163.526 382.467 165.29 393.978 168.767 L 404.748 172.021 L 398.139 181.125 C 386.326 197.399 380.335 217.415 380.335 240.616 C 380.335 269.522 392.968 287.073 403.565 296.706 L 413.332 305.584 L 400.943 310.135 C 387.25 315.166 372.915 317.717 358.335 317.717 Z" fill="#E46A53"/><path d=" M 102.055 384.266 C 100.061 384.266 97.996 384.193 95.918 384.047 C 46.173 380.615 26.325 357.482 18.922 343.996 L 10.719 329.055 L 27.454 332.292 C 34.417 333.639 42.528 335.076 50.664 335.076 C 70.075 335.076 80.759 326.564 83.329 309.055 C 86.614 286.674 102.271 269.632 128.608 259.771 C 147.725 252.614 165.779 251.738 166.539 251.704 C 122.951 249.984 113.259 228.415 104.707 209.386 C 100.369 199.76 96.292 190.716 88.336 185.055 C 82.34 180.789 74.325 178.626 64.514 178.626 C 50.147 178.626 34.493 183.265 23.891 187.156 L 7.547 193.156 L 13.64 176.846 C 29.732 133.774 53.497 111.935 84.274 111.935 C 137.397 111.935 195.736 175.381 218.353 202.659 L 223.21 208.517 L 217.602 213.661 C 214.386 216.611 211.657 219.614 209.49 222.587 C 209.49 222.587 206.563 226.358 204.743 230.998 C 204.224 232.577 203.473 235.198 203.473 235.198 C 203.063 237.036 202.855 238.858 202.855 240.616 C 202.855 244.581 203.785 248.442 205.696 252.423 C 205.696 252.423 206.97 255.014 207.921 256.398 C 210.251 260.186 214.21 264.251 214.21 264.251 C 216.816 266.971 219.887 269.701 223.336 272.366 L 229.23 276.92 L 225.107 283.124 C 223.089 286.161 220.834 289.684 218.697 293.031 C 196.899 327.163 160.431 384.266 102.055 384.266 Z" fill="#F4A026"/><g><circle cx="410.229" cy="222.551" r="8"/><path d=" M 348.333 260.693 C 346.285 260.693 344.238 259.912 342.676 258.349 C 337.94 253.613 335.332 247.316 335.332 240.619 C 335.332 233.921 337.94 227.624 342.677 222.888 C 345.802 219.766 350.867 219.765 353.991 222.889 C 357.115 226.013 357.115 231.078 353.991 234.202 C 352.277 235.916 351.333 238.194 351.333 240.619 C 351.333 243.043 352.277 245.322 353.992 247.037 C 357.116 250.161 357.116 255.226 353.992 258.35 C 352.428 259.911 350.38 260.693 348.333 260.693 Z"/><path d=" M 311.331 260.693 C 309.283 260.693 307.236 259.912 305.674 258.349 C 295.898 248.572 295.898 232.663 305.674 222.887 C 308.798 219.764 313.863 219.764 316.987 222.887 C 320.112 226.012 320.112 231.076 316.987 234.201 C 313.449 237.739 313.449 243.497 316.987 247.036 C 320.111 250.16 320.111 255.225 316.986 258.349 C 315.426 259.911 313.379 260.693 311.331 260.693 Z"/><path d=" M 488.675 236.717 C 488.205 235.887 477.035 216.107 455.545 196.207 C 442.445 184.067 428.325 174.547 413.535 167.767 C 414.655 153.097 415.315 117.427 397.135 103.257 C 391.015 98.487 380.145 94.197 363.135 100.817 C 319.915 117.657 296.865 119.187 281.525 119.477 C 280.275 119.497 276.555 119.547 276.555 119.547 C 268.515 119.657 243.955 123.847 236.825 141.067 C 231.905 152.957 236.665 167.177 250.965 183.387 C 242.015 187.567 232.985 192.407 224.855 197.907 C 206.365 175.377 143.075 103.937 84.275 103.937 C 45.655 103.937 17.405 133.437 0.325 191.627 C -0.575 194.687 0.435 197.987 2.875 200.027 C 5.325 202.067 8.755 202.467 11.595 201.027 C 11.885 200.887 40.505 186.627 64.515 186.627 C 72.635 186.627 79.085 188.287 83.695 191.567 C 89.905 195.987 93.385 203.717 97.405 212.677 C 103.435 226.067 110.445 241.657 128.835 251.117 C 127.605 251.537 126.365 251.987 125.125 252.457 C 96.325 263.397 79.135 282.567 75.415 307.887 C 73.445 321.337 66.045 327.077 50.665 327.077 C 42.415 327.077 33.595 325.347 26.515 323.957 C 21.185 322.907 16.975 322.077 13.685 322.077 C 11.345 322.077 9.125 323.107 7.605 324.887 C 6.085 326.667 5.415 329.017 5.785 331.327 C 5.875 331.917 8.215 345.987 20.835 360.407 C 32.085 373.267 54.145 389.187 95.375 392.037 C 97.595 392.187 99.845 392.267 102.055 392.267 C 164.825 392.267 204.255 330.517 225.435 297.347 C 227.695 293.797 229.785 290.527 231.685 287.687 C 241.305 293.477 251.735 298.437 261.555 302.517 C 274.175 307.767 288.065 312.447 301.735 316.207 C 296.365 323.767 291.745 333.997 291.005 348.067 C 290.885 350.327 291.385 353.697 294.465 356.947 C 305.595 368.667 345.595 369.267 353.495 369.267 C 368.735 369.267 396.215 367.777 410.515 357.887 C 411.345 357.357 411.995 356.727 412.135 356.597 C 427.635 342.587 431.975 324.907 424.605 307.817 C 435.395 301.717 445.755 294.107 455.545 285.037 C 477.035 265.127 488.205 245.357 488.675 244.517 C 490.025 242.097 490.025 239.137 488.675 236.717 Z M 251.605 147.186 C 254.915 139.206 270.955 135.626 276.775 135.546 C 276.775 135.546 280.275 135.496 281.405 135.476 C 297.895 135.196 322.665 133.756 368.945 115.726 C 381.045 111.006 385.745 114.676 387.295 115.876 C 396.445 122.996 398.585 144.746 397.875 161.706 C 385.015 157.616 371.775 155.526 358.335 155.526 C 335.785 155.526 297.985 164.306 266.565 176.696 C 254.295 164.006 248.975 153.536 251.605 147.186 Z M 211.955 288.726 C 191.045 321.466 156.055 376.266 102.055 376.266 C 100.215 376.266 98.335 376.196 96.475 376.066 C 51.245 372.946 33.055 353.116 25.935 340.146 C 33.225 341.556 41.885 343.076 50.665 343.076 C 80.225 343.076 89.045 325.206 91.245 310.216 C 98.175 263.006 166.215 259.726 166.895 259.696 C 171.195 259.536 174.595 256.006 174.595 251.706 C 174.595 247.406 171.205 243.876 166.905 243.706 C 128.235 242.186 120.345 224.666 112.005 206.106 C 107.435 195.966 102.715 185.466 92.975 178.536 C 85.595 173.286 76.025 170.626 64.515 170.626 C 49.205 170.626 32.905 175.326 21.135 179.646 C 35.945 140.006 57.135 119.936 84.275 119.936 C 135.305 119.936 194.585 186.526 212.195 207.766 C 208.705 210.966 205.605 214.336 203.025 217.876 C 164.295 176.356 121.125 136.326 85.925 135.926 C 85.745 135.916 84.405 135.856 82.735 135.996 C 77.535 136.306 72.855 137.566 68.485 139.826 C 64.565 141.856 63.025 146.676 65.055 150.606 C 67.075 154.536 71.905 156.066 75.835 154.036 C 78.385 152.716 81.225 152.026 84.505 151.936 C 118.605 150.936 172.755 208.566 195.665 233.456 C 195.145 235.786 194.855 238.176 194.855 240.616 C 194.855 245.966 196.165 251.056 198.485 255.886 C 160.165 314.176 123.975 347.956 103.435 344.386 C 99.075 343.626 94.935 346.536 94.175 350.886 C 93.415 355.236 96.325 359.386 100.675 360.146 C 102.615 360.486 104.575 360.656 106.585 360.656 C 123.875 360.656 143.905 348.076 167.595 322.426 C 183.795 304.876 198.555 284.436 208.435 269.786 C 211.425 272.906 214.795 275.876 218.445 278.696 C 216.445 281.706 214.285 285.077 211.955 288.726 Z M 267.695 287.746 C 232.105 272.946 210.855 255.326 210.855 240.616 C 210.855 225.906 232.105 208.296 267.695 193.486 C 302.375 179.066 339.545 171.526 358.335 171.526 C 369.745 171.526 380.875 173.166 391.665 176.426 C 378.845 194.086 372.335 215.606 372.335 240.616 C 372.335 272.876 386.875 292.346 398.185 302.626 C 385.365 307.336 372.055 309.716 358.335 309.716 C 339.545 309.717 302.375 302.166 267.695 287.746 Z M 401.395 344.736 C 393.775 350.006 375.505 353.266 353.495 353.266 C 328.315 353.266 311.905 349.256 307.145 346.656 C 308.315 334.256 313.515 326.216 318.895 320.476 C 333.895 323.786 347.785 325.716 358.335 325.716 C 376.115 325.716 393.575 322.046 410.225 314.926 C 413.565 323.397 413.285 334.006 401.395 344.736 Z M 444.315 273.637 C 434.745 282.447 424.785 289.647 414.465 295.247 C 406.075 289.437 388.335 273.297 388.335 240.617 C 388.335 217.437 394.715 197.877 407.265 182.377 C 420.165 188.347 432.535 196.767 444.315 207.607 C 458.655 220.817 468.135 234.207 472.295 240.617 C 468.135 247.036 458.655 260.427 444.315 273.637 Z"/></g></g></svg>