<svg version="1.1" width="512" height="512" viewBox="0 0 510.67 510.67" xmlns="http://www.w3.org/2000/svg" xmlns:xlink="http://www.w3.org/1999/xlink" id="Capa_1" overflow="hidden"><g><path d=" M 440.211 192.857 L 70.459 192.857 C 52.303 192.857 37.531 207.628 37.531 225.785 L 37.531 317.277 C 37.531 321.42 40.888 324.777 45.031 324.777 L 465.638 324.777 C 469.781 324.777 473.138 321.42 473.138 317.277 L 473.138 225.785 C 473.139 207.629 458.367 192.857 440.211 192.857 Z" fill="#A58260"/><path d=" M 440.211 192.857 L 405.056 192.857 C 423.212 192.857 437.984 207.628 437.984 225.785 L 437.984 317.277 C 437.984 321.42 434.627 324.777 430.484 324.777 L 465.64 324.777 C 469.783 324.777 473.14 321.42 473.14 317.277 L 473.14 225.785 C 473.139 207.629 458.367 192.857 440.211 192.857 Z" fill="#8C6B50"/><path d=" M 197.835 259.888 L 118.909 259.888 C 100.873 259.888 86.2 274.561 86.2 292.597 L 86.2 317.278 C 86.2 321.421 89.557 324.778 93.7 324.778 L 223.043 324.778 C 227.186 324.778 230.543 321.421 230.543 317.278 L 230.543 292.597 C 230.543 274.561 215.87 259.888 197.835 259.888 Z" fill="#FFDF65"/><path d=" M 391.761 259.888 L 312.835 259.888 C 294.8 259.888 280.127 274.561 280.127 292.597 L 280.127 317.278 C 280.127 321.421 283.484 324.778 287.627 324.778 L 416.97 324.778 C 421.113 324.778 424.47 321.421 424.47 317.278 L 424.47 292.597 C 424.47 274.561 409.797 259.888 391.761 259.888 Z" fill="#FFDF65"/><path d=" M 197.835 259.888 L 164.231 259.888 C 182.266 259.888 196.939 274.561 196.939 292.597 L 196.939 317.278 C 196.939 321.421 193.582 324.778 189.439 324.778 L 223.043 324.778 C 227.186 324.778 230.543 321.421 230.543 317.278 L 230.543 292.597 C 230.543 274.561 215.87 259.888 197.835 259.888 Z" fill="#FFCD2C"/><path d=" M 391.761 259.888 L 358.157 259.888 C 376.193 259.888 390.866 274.561 390.866 292.597 L 390.866 317.278 C 390.866 321.421 387.509 324.778 383.366 324.778 L 416.97 324.778 C 421.113 324.778 424.47 321.421 424.47 317.278 L 424.47 292.597 C 424.47 274.561 409.797 259.888 391.761 259.888 Z" fill="#FFCD2C"/><path d=" M 503.17 364.038 L 7.5 364.038 C 3.358 364.038 0 367.395 0 371.538 L 0 464.729 C 0 468.872 3.358 472.229 7.5 472.229 L 503.17 472.229 C 507.312 472.229 510.67 468.872 510.67 464.729 L 510.67 371.538 C 510.67 367.396 507.313 364.038 503.17 364.038 Z" fill="#6E563D"/><path d=" M 503.17 364.038 L 476.169 364.038 L 476.169 371.538 L 476.169 464.729 C 476.169 468.872 472.812 472.229 468.669 472.229 L 503.17 472.229 C 507.312 472.229 510.67 468.872 510.67 464.729 L 510.67 371.538 C 510.67 367.396 507.313 364.038 503.17 364.038 Z" fill="#604B35"/><path d=" M 468.482 309.777 L 42.188 309.777 C 18.926 309.777 0 328.703 0 351.966 L 0 371.538 C 0 375.681 3.358 379.038 7.5 379.038 L 503.17 379.038 C 507.312 379.038 510.67 375.681 510.67 371.538 L 510.67 351.966 C 510.67 328.703 491.744 309.777 468.482 309.777 Z" fill="#FFBB64"/><path d=" M 468.482 309.777 L 433.981 309.777 C 457.244 309.777 476.17 328.703 476.17 351.966 L 476.17 371.538 L 476.17 379.038 L 503.171 379.038 C 507.313 379.038 510.671 375.681 510.671 371.538 L 510.671 351.966 C 510.67 328.703 491.744 309.777 468.482 309.777 Z" fill="#FFAD47"/><path d=" M 235.581 168.693 L 195.415 168.693 C 192.44 168.693 189.748 166.935 188.55 164.213 C 187.353 161.49 187.877 158.318 189.886 156.125 L 218.533 124.87 L 199.189 124.87 C 195.046 124.87 191.689 121.513 191.689 117.37 C 191.689 113.227 195.046 109.87 199.189 109.87 L 235.581 109.87 C 238.556 109.87 241.248 111.628 242.446 114.349 C 243.643 117.072 243.119 120.245 241.11 122.437 L 212.463 153.692 L 235.581 153.692 C 239.724 153.692 243.081 157.049 243.081 161.192 C 243.081 165.336 239.724 168.693 235.581 168.693 Z" fill="#8CC7EC"/><path d=" M 347.267 124.06 L 282.542 124.06 C 279.567 124.06 276.875 122.302 275.677 119.581 C 274.48 116.858 275.003 113.685 277.013 111.493 L 330.219 53.441 L 286.331 53.441 C 282.188 53.441 278.831 50.084 278.831 45.941 C 278.831 41.798 282.188 38.441 286.331 38.441 L 347.267 38.441 C 350.242 38.441 352.934 40.199 354.132 42.92 C 355.329 45.643 354.806 48.816 352.796 51.008 L 299.59 109.06 L 347.267 109.06 C 351.41 109.06 354.767 112.417 354.767 116.56 C 354.767 120.703 351.409 124.06 347.267 124.06 Z" fill="#8CC7EC"/></g></svg>