<svg version="1.1" width="682.667" height="682.667" viewBox="0 0 512.002 512" xmlns="http://www.w3.org/2000/svg" xmlns:xlink="http://www.w3.org/1999/xlink" overflow="hidden"><path d=" M 360.602 270.383 C 416.895 270.383 469.531 298.27 501.148 344.848 L 502 346.105 L 502 154.656 L 501.148 155.914 C 469.531 202.492 416.895 230.383 360.602 230.383 Z" fill="#FFCB7C"/><path d=" M 369.398 230.383 L 153.93 230.383 C 121.871 230.383 95.8867 256.367 95.8867 288.426 L 95.8867 340.426 C 95.8867 372.48 121.871 398.469 153.93 398.469 L 329.219 398.469 L 331.656 357.523 L 158.035 357.523 L 158.035 270.406 L 370.723 270.406 Z" fill="#FFCB7C"/><path d=" M 50 270.383 L 354.844 270.383 C 390.215 270.383 418.887 299.055 418.887 334.426 C 418.887 369.793 390.215 398.469 354.844 398.469 L 335.887 398.469 L 335.887 358.469 L 354.844 358.469 C 368.121 358.469 378.887 347.703 378.887 334.426 C 378.887 321.145 368.121 310.383 354.844 310.383 L 47.2695 310.383" fill="#FFCB7C"/><g fill="#FFD89E"><path d=" M 50 301.047 L 50 279.715 C 50 270.141 42.2383 262.383 32.668 262.383 L 10 262.383 L 10 318.383 L 32.668 318.383 C 42.2383 318.383 50 310.621 50 301.047 Z"/><path d=" M 315.887 421.383 C 326.934 421.383 335.887 412.426 335.887 401.383 L 335.887 310.383 L 295.887 310.383 L 295.887 401.383 C 295.887 412.426 304.84 421.383 315.887 421.383 Z"/><path d=" M 235.887 421.383 C 246.934 421.383 255.887 412.426 255.887 401.383 L 255.887 310.383 L 215.887 310.383 L 215.887 401.383 C 215.887 412.426 224.84 421.383 235.887 421.383 Z"/><path d=" M 155.887 421.383 C 166.934 421.383 175.887 412.426 175.887 401.383 L 175.887 310.383 L 135.887 310.383 L 135.887 401.383 C 135.887 412.426 144.84 421.383 155.887 421.383 Z"/><path d=" M 295.887 270.383 L 335.887 270.383 L 335.887 221.371 C 335.887 213.641 329.617 207.371 321.887 207.371 L 309.887 207.371 C 302.152 207.371 295.887 213.641 295.887 221.371 Z"/><path d=" M 215.887 270.383 L 255.887 270.383 L 255.887 221.371 C 255.887 213.641 249.617 207.371 241.887 207.371 L 229.887 207.371 C 222.152 207.371 215.887 213.641 215.887 221.371 Z"/><path d=" M 135.887 270.383 L 175.887 270.383 L 175.887 221.371 C 175.887 213.641 169.617 207.371 161.887 207.371 L 149.887 207.371 C 142.152 207.371 135.887 213.641 135.887 221.371 Z"/></g><path d=" M 408 114.102 C 408 125.148 399.047 134.102 388 134.102 C 376.953 134.102 368 125.148 368 114.102 C 368 103.059 376.953 94.1016 388 94.1016 C 399.047 94.1016 408 103.059 408 114.102 Z" fill="#B0E7F8"/><path d=" M 488 89.5 C 488 100.547 479.047 109.5 468 109.5 C 456.953 109.5 448 100.547 448 89.5 C 448 78.457 456.953 69.5 468 69.5 C 479.047 69.5 488 78.457 488 89.5 Z" fill="#B0E7F8"/><path d=" M 54 480 C 54 492.152 44.1484 502 32 502 C 19.8516 502 10 492.152 10 480 C 10 467.852 19.8516 458 32 458 C 44.1484 458 54 467.852 54 480 Z" fill="#F5737F"/><path d=" M 504.938 145.102 C 500.738 143.809 496.191 145.41 493.727 149.043 L 492.871 150.297 C 463.086 194.184 413.641 220.383 360.602 220.383 L 345.859 220.383 C 345.395 208.957 336.902 199.57 325.887 197.711 L 325.887 177.371 L 331.887 177.371 C 337.41 177.371 341.887 172.895 341.887 167.371 C 341.887 161.852 337.41 157.371 331.887 157.371 L 299.887 157.371 C 294.363 157.371 289.887 161.852 289.887 167.371 C 289.887 172.895 294.363 177.371 299.887 177.371 L 305.887 177.371 L 305.887 197.711 C 294.867 199.57 286.379 208.957 285.91 220.383 L 265.859 220.383 C 265.395 208.957 256.902 199.57 245.887 197.711 L 245.887 177.371 L 251.887 177.371 C 257.41 177.371 261.887 172.895 261.887 167.371 C 261.887 161.852 257.41 157.371 251.887 157.371 L 219.887 157.371 C 214.363 157.371 209.887 161.852 209.887 167.371 C 209.887 172.895 214.363 177.371 219.887 177.371 L 225.887 177.371 L 225.887 197.711 C 214.867 199.57 206.379 208.957 205.91 220.383 L 185.859 220.383 C 185.395 208.957 176.902 199.57 165.887 197.711 L 165.887 177.371 L 171.887 177.371 C 177.41 177.371 181.887 172.895 181.887 167.371 C 181.887 161.852 177.41 157.371 171.887 157.371 L 139.887 157.371 C 134.363 157.371 129.887 161.852 129.887 167.371 C 129.887 172.895 134.363 177.371 139.887 177.371 L 145.887 177.371 L 145.887 197.711 C 134.551 199.621 125.887 209.5 125.887 221.371 L 125.887 226.449 C 110.883 233.266 98.7734 245.379 91.9531 260.379 L 51.9688 260.379 C 47.0195 255.441 40.1953 252.379 32.6641 252.379 L 10 252.379 C 4.47656 252.379 8.52651e-14 256.859 8.52651e-14 262.379 L 8.52651e-14 318.379 C 8.52651e-14 323.902 4.47656 328.379 10 328.379 L 32.668 328.379 C 40.1953 328.379 47.0234 325.32 51.9688 320.379 L 85.8867 320.379 L 85.8867 340.422 C 85.8867 367.438 101.703 391.504 125.914 402.426 C 126.465 418.484 139.695 431.379 155.887 431.379 C 169.988 431.379 181.84 421.598 185.035 408.465 L 206.738 408.465 C 209.934 421.598 221.785 431.379 235.887 431.379 C 249.988 431.379 261.84 421.598 265.035 408.465 L 286.738 408.465 C 289.934 421.598 301.785 431.379 315.887 431.379 C 329.988 431.379 341.84 421.598 345.035 408.465 L 354.844 408.465 C 395.672 408.465 428.887 375.25 428.887 334.422 C 428.887 317.492 423.16 301.879 413.563 289.391 C 445.422 300.566 473.367 321.723 492.875 350.461 L 493.727 351.719 C 495.625 354.512 498.75 356.105 502.004 356.105 C 502.98 356.105 503.969 355.957 504.941 355.66 C 509.137 354.371 512.004 350.496 512.004 346.102 L 512.004 295.383 C 512.004 289.859 507.523 285.383 502.004 285.383 C 496.48 285.383 492.004 289.859 492.004 295.383 L 492.004 317.406 C 458.277 281.301 410.875 260.383 360.605 260.383 C 360.086 260.383 359.574 260.434 359.074 260.512 C 357.676 260.43 356.266 260.383 354.848 260.383 L 345.891 260.383 L 345.891 240.383 L 360.605 240.383 C 410.875 240.383 458.277 219.461 492.004 183.355 L 492.004 205.383 C 492.004 210.902 496.48 215.383 502.004 215.383 C 507.523 215.383 512.004 210.902 512.004 205.383 L 512.004 154.656 C 512 150.266 509.137 146.391 504.938 145.102 Z M 305.887 221.371 C 305.887 219.164 307.68 217.371 309.887 217.371 L 321.887 217.371 C 324.094 217.371 325.887 219.164 325.887 221.371 L 325.887 260.383 L 305.887 260.383 Z M 265.887 260.383 L 265.887 240.383 L 285.887 240.383 L 285.887 260.383 Z M 225.887 221.371 C 225.887 219.164 227.68 217.371 229.887 217.371 L 241.887 217.371 C 244.094 217.371 245.887 219.164 245.887 221.371 L 245.887 260.383 L 225.887 260.383 Z M 196.219 260.383 L 185.887 260.383 L 185.887 240.383 L 205.887 240.383 L 205.887 260.383 Z M 149.887 217.371 L 161.887 217.371 C 164.094 217.371 165.887 219.164 165.887 221.371 L 165.887 260.383 L 145.887 260.383 L 145.887 233.117 C 145.887 233.109 145.887 233.102 145.887 233.094 L 145.887 221.371 C 145.887 219.164 147.68 217.371 149.887 217.371 Z M 125.887 249.457 L 125.887 260.379 L 114.961 260.379 C 117.992 256.18 121.688 252.488 125.887 249.457 Z M 20 308.383 L 20 272.383 L 32.668 272.383 C 36.7109 272.383 40 275.672 40 279.715 L 40 301.047 C 40 305.09 36.7109 308.383 32.668 308.383 Z M 105.887 340.426 L 105.887 320.383 L 125.887 320.383 L 125.887 379.441 C 113.547 370.586 105.887 356.219 105.887 340.426 Z M 165.887 401.383 C 165.887 406.895 161.398 411.383 155.887 411.383 C 150.371 411.383 145.887 406.895 145.887 401.383 L 145.887 320.383 L 165.887 320.383 Z M 205.887 320.383 L 205.887 348.469 L 185.887 348.469 L 185.887 320.383 Z M 185.887 368.469 L 205.887 368.469 L 205.887 388.469 L 185.887 388.469 Z M 245.887 401.383 C 245.887 406.895 241.398 411.383 235.887 411.383 C 230.371 411.383 225.887 406.895 225.887 401.383 L 225.887 320.383 L 245.887 320.383 Z M 285.887 320.383 L 285.887 348.469 L 265.887 348.469 L 265.887 320.383 Z M 265.887 368.469 L 285.887 368.469 L 285.887 388.469 L 265.887 388.469 Z M 325.887 401.383 C 325.887 406.895 321.398 411.383 315.887 411.383 C 310.371 411.383 305.887 406.895 305.887 401.383 L 305.887 320.383 L 325.887 320.383 Z M 345.887 320.383 L 354.844 320.383 C 362.586 320.383 368.887 326.68 368.887 334.426 C 368.887 342.168 362.586 348.469 354.844 348.469 L 345.887 348.469 Z M 354.844 388.469 L 345.887 388.469 L 345.887 368.469 L 354.844 368.469 C 373.613 368.469 388.887 353.195 388.887 334.426 C 388.887 315.652 373.613 300.383 354.844 300.383 L 60 300.383 L 60 280.383 L 354.844 280.383 C 384.641 280.383 408.887 304.625 408.887 334.426 C 408.887 364.223 384.645 388.469 354.844 388.469 Z"/><path d=" M 388 144.102 C 404.543 144.102 418 130.645 418 114.102 L 418 41.9883 L 478 23.5391 L 478 61.2227 C 474.871 60.1094 471.508 59.5 468 59.5 C 451.457 59.5 438 72.957 438 89.5 C 438 106.043 451.457 119.5 468 119.5 C 484.543 119.5 498 106.043 498 89.5 L 498 10 C 498 6.82813 496.492 3.84375 493.941 1.95703 C 491.391 0.0703125 488.094 -0.488281 485.063 0.441406 L 405.063 25.043 C 400.863 26.3359 398 30.2109 398 34.6016 L 398 85.8242 C 394.871 84.7109 391.508 84.1016 388 84.1016 C 371.457 84.1016 358 97.5625 358 114.102 C 358 130.645 371.457 144.102 388 144.102 Z M 468 99.5 C 462.484 99.5 458 95.0156 458 89.5 C 458 83.9883 462.484 79.5 468 79.5 C 473.516 79.5 478 83.9883 478 89.5 C 478 95.0156 473.516 99.5 468 99.5 Z M 388 104.102 C 393.516 104.102 398 108.586 398 114.102 C 398 119.617 393.516 124.102 388 124.102 C 382.484 124.102 378 119.617 378 114.102 C 378 108.586 382.484 104.102 388 104.102 Z"/><path d=" M 72.9648 396.262 L 57.1523 391.012 C 54.1016 389.996 50.7539 390.512 48.1484 392.391 C 45.543 394.27 44 397.289 44 400.5 L 44 450.344 C 40.293 448.836 36.2422 448 32 448 C 14.3555 448 0 462.355 0 480 C 0 497.645 14.3555 512 32 512 C 49.6445 512 64 497.645 64 480 C 64 479.555 63.9844 479.113 63.9648 478.668 C 63.9805 478.449 64 478.227 64 478 L 64 414.359 L 66.6641 415.242 C 74.6875 417.906 80.668 424.398 82.6641 432.613 C 83.9727 437.98 89.3789 441.277 94.7461 439.969 C 100.113 438.66 103.406 433.254 102.102 427.887 C 98.4609 412.934 87.5703 401.109 72.9648 396.262 Z M 32 492 C 25.3828 492 20 486.617 20 480 C 20 473.383 25.3828 468 32 468 C 38.6172 468 44 473.383 44 480 C 44 486.617 38.6172 492 32 492 Z"/><path d=" M 502 240.383 C 499.371 240.383 496.789 241.449 494.93 243.313 C 493.07 245.172 492 247.75 492 250.383 C 492 253.012 493.07 255.59 494.93 257.449 C 496.789 259.309 499.371 260.383 502 260.383 C 504.629 260.383 507.211 259.313 509.07 257.449 C 510.93 255.59 512 253.012 512 250.383 C 512 247.75 510.93 245.172 509.07 243.313 C 507.211 241.449 504.629 240.383 502 240.383 Z"/></svg>