<svg version="1.1" width="682.667" height="682.667" viewBox="-24 0 512 512" xmlns="http://www.w3.org/2000/svg" xmlns:xlink="http://www.w3.org/1999/xlink" overflow="hidden"><path d=" M 276.434 42.3008 C 286.645 21.6719 307.906 7.48828 332.48 7.48828 C 367 7.48828 394.98 35.4727 394.98 69.9883 C 394.98 94.7188 380.621 116.09 359.785 126.227 L 357.836 127.199 L 275.898 43.9883 Z" fill="#935C37"/><path d=" M 346.621 98.1445 C 356.918 92.9648 363.98 82.3008 363.98 69.9883 C 363.98 52.5938 349.879 38.4883 332.48 38.4883 C 320.316 38.4883 309.762 45.3828 304.516 55.4766 L 299.813 61.9883 L 341.813 100.32 Z" fill="#704934"/><path d=" M 105.176 126.227 C 84.3398 116.09 69.9805 94.7188 69.9805 69.9883 C 69.9805 35.4727 97.9609 7.48828 132.48 7.48828 C 157.055 7.48828 178.316 21.6719 188.527 42.3008 L 189.063 43.7383 L 107.48 127.199 Z" fill="#935C37"/><path d=" M 160.445 55.4766 C 155.199 45.3828 144.645 38.4883 132.48 38.4883 C 115.082 38.4883 100.98 52.5938 100.98 69.9883 C 100.98 82.3008 108.043 92.9648 118.34 98.1445 L 120.313 99.4063 L 161.23 57.4883 Z" fill="#704934"/><path d=" M 384.141 371.445 L 416.008 394.258 C 427.883 402.758 444.414 399.902 452.75 387.91 C 459.656 377.98 458.859 364.613 450.828 355.57 L 382.23 278.348 C 368.586 262.988 349.27 253.926 328.816 253.203 L 135.434 253.23 C 115.246 254.137 96.2188 263.164 82.7344 278.348 L 14.1367 355.57 C 6.10156 364.613 5.30859 377.98 12.2109 387.91 C 20.5469 399.902 37.082 402.758 48.957 394.258 L 80.8203 371.449 L 384.141 371.449 Z" fill="#935C37"/><path d=" M 389.43 377.488 C 389.43 427.609 365.949 462.211 329.391 482.512 C 302.699 497.32 269.02 504.488 232.43 504.488 C 196.832 504.488 164 497.699 137.66 483.68 C 99.8516 463.578 75.4297 428.602 75.4297 377.488 C 75.4297 326.609 99.6406 281.379 137.172 252.691 L 232.48 206.488 L 327.699 252.691 C 365.23 281.379 389.43 326.609 389.43 377.488 Z" fill="#AA6B3F"/><path d=" M 329.391 482.508 C 302.699 497.32 269.02 504.488 232.43 504.488 C 196.832 504.488 164 497.699 137.66 483.68 L 147.648 407.777 C 155.629 368.25 190.551 338.488 232.43 338.488 C 274.242 338.488 309.109 368.141 317.18 407.559 Z" fill="#B28550"/><path d=" M 389.43 377.488 C 389.43 427.609 365.949 462.211 329.391 482.512 C 302.699 497.32 269.02 504.488 232.43 504.488 C 227.359 504.488 222.352 504.352 217.41 504.07 C 248.191 502.359 276.391 495.27 299.391 482.512 C 335.949 462.211 359.43 427.609 359.43 377.488 C 359.43 332.859 340.809 292.578 310.91 263.988 C 316.922 260.672 322.539 256.91 327.73 252.711 C 365.242 281.398 389.43 326.621 389.43 377.488 Z" fill="#99522B"/><path d=" M 329.391 482.531 C 302.699 497.34 269.02 504.512 232.43 504.512 C 231.16 504.512 229.898 504.5 228.641 504.48 C 227.602 504.473 226.57 504.449 225.539 504.422 C 224.949 504.41 224.359 504.391 223.77 504.371 C 222.891 504.34 222.012 504.313 221.129 504.27 C 219.879 504.223 218.641 504.16 217.41 504.09 C 248.191 502.383 276.391 495.289 299.391 482.531 C 309.359 477 318.352 470.402 326.16 462.711 Z" fill="#A3703D"/><path d=" M 176.98 448.988 C 176.98 479.641 152.133 504.488 121.48 504.488 C 90.8281 504.488 65.9805 479.641 65.9805 448.988 C 65.9805 418.34 90.8281 403.488 121.48 403.488 C 152.133 403.488 176.98 418.34 176.98 448.988 Z" fill="#935C37"/><path d=" M 398.98 448.988 C 398.98 479.641 374.133 504.488 343.48 504.488 C 312.828 504.488 287.98 479.641 287.98 448.988 C 287.98 418.34 312.828 403.488 343.48 403.488 C 374.133 403.488 398.98 418.34 398.98 448.988 Z" fill="#935C37"/><g fill="#593B27"><path d=" M 128.98 403.801 L 128.98 425.988 C 128.98 430.129 125.621 433.488 121.48 433.488 C 117.34 433.488 113.98 430.129 113.98 425.988 L 113.98 403.801 C 116.43 403.59 118.941 403.488 121.48 403.488 C 124.02 403.488 126.531 403.59 128.98 403.801 Z"/><path d=" M 157.98 412.852 L 157.98 431.988 C 157.98 436.129 154.621 439.488 150.48 439.488 C 146.34 439.488 142.98 436.129 142.98 431.988 L 142.98 409.488 C 142.98 408.41 143.211 407.379 143.629 406.449 C 148.891 407.98 153.719 410.109 157.98 412.852 Z"/><path d=" M 98.9805 411.488 L 98.9805 431.988 C 98.9805 436.129 95.6211 439.488 91.4805 439.488 C 87.3398 439.488 83.9805 436.129 83.9805 431.988 L 83.9805 413.512 C 87.9805 410.789 92.5313 408.621 97.4805 407.012 C 98.4297 408.258 98.9805 409.809 98.9805 411.488 Z"/><path d=" M 350.98 403.801 L 350.98 425.988 C 350.98 430.129 347.621 433.488 343.48 433.488 C 339.34 433.488 335.98 430.129 335.98 425.988 L 335.98 403.801 C 338.43 403.59 340.941 403.488 343.48 403.488 C 346.02 403.488 348.531 403.59 350.98 403.801 Z"/><path d=" M 379.98 412.852 L 379.98 431.988 C 379.98 436.129 376.621 439.488 372.48 439.488 C 368.34 439.488 364.98 436.129 364.98 431.988 L 364.98 409.488 C 364.98 408.41 365.211 407.379 365.629 406.449 C 370.891 407.98 375.719 410.109 379.98 412.852 Z"/><path d=" M 320.98 411.488 L 320.98 431.988 C 320.98 436.129 317.621 439.488 313.48 439.488 C 309.34 439.488 305.98 436.129 305.98 431.988 L 305.98 413.512 C 309.98 410.789 314.531 408.621 319.48 407.012 C 320.43 408.258 320.98 409.809 320.98 411.488 Z"/></g><path d=" M 365.98 168.988 C 365.98 242.719 306.211 282.488 232.48 282.488 C 158.75 282.488 98.9805 242.719 98.9805 168.988 C 98.9805 95.2617 158.75 35.4883 232.48 35.4883 C 306.211 35.4883 365.98 95.2617 365.98 168.988 Z" fill="#AA6B3F"/><path d=" M 269.656 215.602 C 269.656 236.133 253.012 252.777 232.48 252.777 C 211.949 252.777 195.305 236.133 195.305 215.602 C 195.305 184.719 211.949 168.988 232.48 168.988 C 253.012 168.988 269.656 184.719 269.656 215.602 Z" fill="#935C37"/><path d=" M 232.48 208.102 C 221.477 208.102 219.832 214.594 219.832 218.461 C 219.832 222.328 221.477 228.82 232.48 228.82 C 243.484 228.82 245.129 222.328 245.129 218.461 C 245.129 214.594 243.484 208.102 232.48 208.102 Z" fill="#332F2C"/><path d=" M 363.98 69.9883 C 363.98 81.25 358.07 91.1289 349.18 96.6992 C 352.23 91.8594 353.98 86.1289 353.98 79.9883 C 353.98 62.5898 339.879 48.4883 322.48 48.4883 C 316.352 48.4883 310.621 50.2383 305.781 53.2813 C 311.34 44.3906 321.23 38.4883 332.48 38.4883 C 349.879 38.4883 363.98 52.5898 363.98 69.9883 Z" fill="#664431"/><path d=" M 159.18 53.2813 C 154.34 50.2383 148.609 48.4883 142.48 48.4883 C 125.082 48.4883 110.98 62.5898 110.98 79.9883 C 110.98 86.1289 112.73 91.8594 115.781 96.6992 C 106.891 91.1289 100.98 81.25 100.98 69.9883 C 100.98 52.5898 115.082 38.4883 132.48 38.4883 C 143.73 38.4883 153.621 44.3906 159.18 53.2813 Z" fill="#664431"/><path d=" M 343.684 266.719 C 319.766 296.75 278.906 312.488 232.523 312.488 C 186.094 312.488 145.195 296.719 121.285 266.617 C 126.254 261.629 131.563 256.969 137.176 252.688 L 137.195 252.68 C 161.426 272.301 195.164 282.488 232.484 282.488 C 269.785 282.488 303.504 272.309 327.734 252.711 C 333.363 257.02 338.703 261.699 343.684 266.719 Z" fill="#99522B"/><path d=" M 232.48 260.285 C 257.113 260.285 277.156 240.246 277.156 215.613 C 277.156 178.23 254.719 161.5 232.48 161.5 C 210.242 161.5 187.805 178.23 187.805 215.613 C 187.805 240.246 207.848 260.285 232.48 260.285 Z M 232.48 176.5 C 250.785 176.5 262.156 191.488 262.156 215.613 C 262.156 231.977 248.844 245.285 232.48 245.285 C 216.117 245.285 202.805 231.977 202.805 215.613 C 202.805 191.488 214.176 176.5 232.48 176.5 Z"/><path d=" M 232.48 228.832 C 243.484 228.832 245.129 222.344 245.129 218.473 C 245.129 214.605 243.484 208.113 232.48 208.113 C 221.477 208.113 219.832 214.605 219.832 218.473 C 219.832 222.344 221.477 228.832 232.48 228.832 Z"/><path d=" M 456.434 350.602 L 447.164 340.168 C 444.414 337.07 439.672 336.789 436.578 339.543 C 433.48 342.293 433.199 347.031 435.949 350.129 L 445.219 360.563 C 450.973 367.039 451.535 376.527 446.59 383.641 C 443.715 387.777 439.395 390.531 434.426 391.387 C 429.461 392.242 424.469 391.102 420.371 388.168 L 396.809 371.305 C 395.367 331.996 380.25 295.336 354.164 266.797 C 362.648 270.672 370.344 276.273 376.621 283.34 L 412.695 323.953 C 414.18 325.621 416.238 326.473 418.305 326.473 C 420.078 326.473 421.855 325.848 423.285 324.578 C 426.383 321.828 426.664 317.086 423.91 313.988 L 387.836 273.379 C 376.305 260.398 360.879 251.449 344.105 247.684 C 363.379 226.992 373.48 200.113 373.48 169 C 373.48 155.578 371.594 142.59 368.074 130.285 C 389.43 117.723 402.48 95.1094 402.48 70 C 402.48 31.4023 371.078 1.42109e-13 332.48 1.42109e-13 C 307.648 1.42109e-13 285.191 12.8164 272.555 33.8086 C 259.844 30.0352 246.398 28 232.48 28 C 218.563 28 205.117 30.0352 192.406 33.8086 C 179.77 12.8164 157.313 1.42109e-13 132.48 1.42109e-13 C 93.8828 1.42109e-13 62.4805 31.4023 62.4805 70 C 62.4805 95.1094 75.5313 117.723 96.8867 130.285 C 93.3672 142.59 91.4805 155.578 91.4805 169 C 91.4805 200.117 101.582 226.992 120.859 247.684 C 104.086 251.457 88.6367 260.418 77.125 273.375 L 8.52734 350.602 C -1.84375 362.273 -2.85938 379.383 6.05469 392.203 C 11.2422 399.66 19.0273 404.621 27.9805 406.168 C 29.9219 406.504 31.8633 406.668 33.793 406.668 C 40.7578 406.668 47.5352 404.508 53.3203 400.363 L 68.4063 389.566 C 69.043 397.891 70.3398 405.906 72.293 413.527 C 63.4258 422.523 58.4805 434.621 58.4805 449 C 58.4805 483.738 86.7422 512 121.48 512 C 134.938 512 147.41 507.746 157.656 500.531 C 158.012 500.66 158.371 500.797 158.719 500.926 C 177.98 508.066 188.59 512 215.434 512 C 219.578 512 222.934 508.641 222.934 504.5 C 222.934 500.359 219.578 497 215.434 497 C 194.055 497 184.879 494.508 170.031 489.105 C 179.051 478.203 184.48 464.223 184.48 449 C 184.48 428.168 174.117 412.117 156.445 403.375 C 165.98 369.793 197.008 346 232.434 346 C 267.844 346 298.91 369.824 308.434 403.414 C 290.813 412.168 280.48 428.199 280.48 449 C 280.48 464.23 285.914 478.219 294.945 489.121 C 280.406 494.516 271.781 497 250.434 497 C 246.293 497 242.934 500.359 242.934 504.5 C 242.934 508.641 246.293 512 250.434 512 C 276.742 512 286.781 508.227 305.008 501.371 C 305.746 501.094 306.516 500.809 307.285 500.52 C 317.535 507.738 330.016 512 343.48 512 C 378.219 512 406.48 483.738 406.48 449 C 406.48 434.582 401.508 422.457 392.594 413.453 C 394.543 405.84 395.836 397.828 396.469 389.504 L 411.641 400.363 C 417.426 404.508 424.199 406.668 431.168 406.668 C 433.094 406.668 435.039 406.504 436.98 406.168 C 445.934 404.621 453.719 399.664 458.906 392.203 C 467.82 379.383 466.805 362.273 456.434 350.602 Z M 348.023 88.2852 C 338.809 75.1328 327.414 63.6172 314.355 54.2734 C 318.855 49.0781 325.41 46 332.48 46 C 345.715 46 356.48 56.7656 356.48 70 C 356.48 77.1797 353.332 83.7891 348.023 88.2852 Z M 332.48 15 C 362.809 15 387.48 39.6719 387.48 70 C 387.48 88.6953 378.273 105.629 363.031 115.754 C 360.969 110.715 358.625 105.82 356.012 101.09 C 365.684 93.8008 371.48 82.4258 371.48 70 C 371.48 48.4961 353.984 31 332.48 31 C 320.23 31 308.938 36.6836 301.629 46.1602 C 296.926 43.5 292.055 41.0977 287.035 38.9844 C 297.203 24.0234 314.008 15 332.48 15 Z M 77.4805 70 C 77.4805 39.6719 102.152 15 132.48 15 C 150.953 15 167.758 24.0234 177.926 38.9844 C 172.906 41.1016 168.035 43.5039 163.332 46.1602 C 156.023 36.6836 144.73 31 132.48 31 C 110.977 31 93.4805 48.4961 93.4805 70 C 93.4805 82.4258 99.2773 93.8008 108.949 101.09 C 106.336 105.82 103.992 110.715 101.93 115.754 C 86.6875 105.629 77.4805 88.6953 77.4805 70 Z M 116.938 88.2852 C 111.625 83.7891 108.48 77.1797 108.48 70 C 108.48 56.7656 119.246 46 132.48 46 C 139.551 46 146.102 49.0781 150.602 54.2734 C 137.547 63.6172 126.152 75.1328 116.938 88.2852 Z M 232.48 43 C 301.957 43 358.48 99.5234 358.48 169 C 358.48 233.395 309.023 275 232.48 275 C 155.938 275 106.48 233.395 106.48 169 C 106.48 99.5234 163.004 43 232.48 43 Z M 44.5898 388.168 C 40.4922 391.102 35.5039 392.242 30.5352 391.387 C 25.5664 390.527 21.2461 387.777 18.3711 383.641 C 13.4258 376.527 13.9883 367.035 19.7422 360.563 L 88.3398 283.336 C 94.5664 276.324 102.207 270.754 110.633 266.879 C 84.5781 295.418 69.4844 332.074 68.0586 371.367 Z M 169.48 449 C 169.48 475.469 147.949 497 121.48 497 C 95.0117 497 73.4805 475.469 73.4805 449 C 73.4805 436.879 77.8242 428.598 83.9805 422.953 L 83.9805 432 C 83.9805 436.141 87.3398 439.5 91.4805 439.5 C 95.6211 439.5 98.9805 436.141 98.9805 432 L 98.9805 414.469 C 104.281 412.688 109.574 411.801 113.98 411.375 L 113.98 426 C 113.98 430.141 117.34 433.5 121.48 433.5 C 125.621 433.5 128.98 430.141 128.98 426 L 128.98 411.375 C 133.109 411.773 138.02 412.582 142.98 414.148 L 142.98 432 C 142.98 436.141 146.34 439.5 150.48 439.5 C 154.621 439.5 157.98 436.141 157.98 432 L 157.98 422.098 C 164.656 427.75 169.48 436.238 169.48 449 Z M 343.48 497 C 317.012 497 295.48 475.469 295.48 449 C 295.48 436.879 299.824 428.598 305.98 422.953 L 305.98 432 C 305.98 436.141 309.336 439.5 313.48 439.5 C 317.625 439.5 320.98 436.141 320.98 432 L 320.98 414.469 C 326.281 412.688 331.574 411.801 335.98 411.375 L 335.98 426 C 335.98 430.141 339.336 433.5 343.48 433.5 C 347.625 433.5 350.98 430.141 350.98 426 L 350.98 411.375 C 355.109 411.773 360.02 412.582 364.98 414.148 L 364.98 432 C 364.98 436.141 368.336 439.5 372.48 439.5 C 376.625 439.5 379.98 436.141 379.98 432 L 379.98 422.098 C 386.656 427.75 391.48 436.238 391.48 449 C 391.48 475.469 369.949 497 343.48 497 Z M 343.48 396 C 335.965 396 328.98 396.813 322.594 398.348 C 310.938 358.887 274.219 331 232.434 331 C 190.621 331 153.938 358.863 142.277 398.324 C 135.914 396.805 128.961 396 121.48 396 C 107.477 396 95.2969 398.797 85.4648 403.906 C 83.7891 395.566 82.9336 386.723 82.9336 377.5 C 82.9336 332.434 102.676 290.734 137.281 262.195 C 161.969 280.152 195.547 290 232.48 290 C 269.391 290 302.949 280.168 327.629 262.234 C 362.211 290.77 381.934 332.453 381.934 377.5 C 381.934 386.707 381.086 395.539 379.418 403.867 C 369.602 398.781 357.449 396 343.48 396 Z"/><path d=" M 168.48 176 C 172.621 176 175.98 172.641 175.98 168.5 L 175.98 151.5 C 175.98 147.359 172.621 144 168.48 144 C 164.34 144 160.98 147.359 160.98 151.5 L 160.98 168.5 C 160.98 172.641 164.34 176 168.48 176 Z"/><path d=" M 296.48 176 C 300.625 176 303.98 172.641 303.98 168.5 L 303.98 151.5 C 303.98 147.359 300.625 144 296.48 144 C 292.336 144 288.98 147.359 288.98 151.5 L 288.98 168.5 C 288.98 172.641 292.336 176 296.48 176 Z"/></svg>