<svg version="1.1" width="682.667" height="682.667" viewBox="0 -61 512 512" xmlns="http://www.w3.org/2000/svg" xmlns:xlink="http://www.w3.org/1999/xlink" overflow="hidden"><path d=" M 91 300 L 91 390 L 421 390 L 421 300 Z" fill="#FF9F00"/><path d=" M 256 300 L 421 300 L 421 390 L 256 390 Z" fill="#FF7816"/><path d=" M 422.5 169.199 L 398.199 216.598 L 113.801 216.598 L 89.5 169.199 C 125.199 119.699 187.301 90 256 90 C 324.699 90 386.801 119.699 422.5 169.199 Z" fill="#FF4B00"/><path d=" M 422.5 169.199 L 398.199 216.598 L 256 216.598 L 256 90 C 324.699 90 386.801 119.699 422.5 169.199 Z" fill="#CC1E0D"/><path d=" M 477.102 139.199 L 421 330 L 91 330 L 34.8984 139.199 L 72.6992 124.801 C 89.8008 157.5 122.5 176.699 149.199 180 L 164.801 180 C 199.301 174.602 225.098 121.801 235.602 71.3984 L 276.402 71.3984 C 286.902 121.801 312.703 174.602 347.199 180 L 362.801 180 C 389.5 176.699 422.199 157.5 439.301 124.801 Z" fill="#FDBF00"/><path d=" M 477.102 139.199 L 421 330 L 256 330 L 256 71.3984 L 276.398 71.3984 C 286.902 121.801 312.699 174.602 347.199 180 L 362.801 180 C 389.5 176.699 422.199 157.5 439.301 124.801 Z" fill="#FF9F00"/><path d=" M 46 150 C 21.1875 150 0 129.813 0 105 C 0 80.1875 21.1875 60 46 60 C 70.8125 60 91 80.1875 91 105 C 91 129.813 70.8125 150 46 150 Z" fill="#FF9F00"/><path d=" M 466 150 C 441.188 150 421 129.813 421 105 C 421 80.1875 441.188 60 466 60 C 490.813 60 512 80.1875 512 105 C 512 129.813 490.813 150 466 150 Z" fill="#FF7816"/><path d=" M 256 0 C 231.098 0 211 20.0977 211 45 C 211 69.8984 231.098 90 256 90 C 280.902 90 301 69.8984 301 45 C 301 20.0977 280.902 0 256 0 Z" fill="#FF9F00"/><path d=" M 256 173.699 L 204.699 225 L 256 276.301 L 307.301 225 Z" fill="#FF4B00"/><path d=" M 346 233.785 L 367.211 254.996 L 346 276.207 L 324.789 254.996 Z" fill="#CC1E0D"/><path d=" M 166 233.785 L 187.211 254.996 L 166 276.207 L 144.789 254.996 Z" fill="#FF4B00"/><path d=" M 256 90 L 256 0 C 280.902 0 301 20.0977 301 45 C 301 69.8984 280.902 90 256 90 Z" fill="#FF7816"/><path d=" M 307.301 225 L 256 276.301 L 256 173.699 Z" fill="#CC1E0D"/></svg>