<svg version="1.1" width="597.333" height="597.333" viewBox="0 -8 448 448" xmlns="http://www.w3.org/2000/svg" xmlns:xlink="http://www.w3.org/1999/xlink" overflow="hidden"><path d=" M 216 280 L 232 280 L 232 336 L 216 336 Z" fill="#C7463B"/><path d=" M 447.129 207.91 L 442.184 192.711 L 269.602 248.801 L 416.391 142.105 L 406.992 129.168 L 260.16 235.84 L 366.84 89.0078 L 353.895 79.6016 L 247.199 226.398 L 303.289 53.793 L 288.09 48.8477 L 232 221.488 L 232 40 L 216 40 L 216 221.488 L 159.922 48.8789 L 144.719 53.8242 L 200.801 226.398 L 94.1055 79.6016 L 81.1602 89.0078 L 187.84 235.84 L 41.0078 129.168 L 31.6094 142.105 L 178.449 248.801 L 5.81641 192.695 L 0.871094 207.895 L 221.527 279.594 C 222.328 279.855 223.16 279.992 224 280 C 224.824 279.934 225.637 279.738 226.398 279.414 L 226.465 279.609 Z" fill="#5B3726"/><path d=" M 224 144 C 279.445 144.016 328.574 179.723 345.703 232.457 L 444.656 200.305 C 413.609 104.699 324.52 39.9609 224 39.9609 C 123.48 39.9609 34.3906 104.699 3.34375 200.305 L 102.297 232.457 C 119.426 179.723 168.555 144.016 224 144 Z" fill="#DC4D41"/><g fill="#C7463B"><path d=" M 444.656 200.305 C 443.855 197.754 442.793 195.305 441.879 192.793 L 342.93 224.945 C 343.91 227.426 344.871 229.902 345.703 232.457 Z"/><path d=" M 353.711 79.8555 L 292.594 164 C 297.086 166.879 301.395 170.039 305.496 173.457 L 366.656 89.2813 C 362.457 85.9844 358.145 82.8438 353.711 79.8555 Z"/><path d=" M 255.863 148.039 C 261.031 149.383 266.109 151.051 271.063 153.031 L 303.199 54.0547 C 301.602 53.4805 300.113 52.8164 298.527 52.2813 L 296.32 51.5586 C 293.574 50.6641 290.719 49.9609 287.977 49.1602 Z"/><path d=" M 322.566 190.496 C 325.98 194.613 329.129 198.938 332 203.449 L 416.168 142.297 C 413.176 137.875 410.039 133.563 406.754 129.359 Z"/><path d=" M 142.504 173.441 C 146.605 170.027 150.914 166.875 155.406 164 L 94.2891 79.8711 C 89.8672 82.8633 85.5508 86 81.3438 89.2813 Z"/><path d=" M 102.297 232.457 C 103.098 229.902 104.09 227.426 105.07 224.945 L 6.12109 192.801 C 5.20703 195.313 4.17578 197.762 3.34375 200.313 Z"/><path d=" M 216 144.328 C 218.656 144.16 221.305 144 224 144 C 226.695 144 229.344 144.16 232 144.328 L 232 40.3281 C 229.328 40.2305 226.695 40 224 40 C 221.305 40 218.672 40.2305 216 40.3281 Z"/><path d=" M 31.8711 142.297 L 116.039 203.449 C 118.898 198.938 122.035 194.613 125.434 190.496 L 41.2891 129.359 C 38.0039 133.566 34.8633 137.879 31.8711 142.297 Z"/><path d=" M 176.938 153.031 C 181.895 151.051 186.969 149.383 192.137 148.039 L 160 49.1367 C 157.215 49.9375 154.398 50.6641 151.656 51.5352 L 149.449 52.2578 C 147.848 52.793 146.344 53.457 144.777 54.0313 Z"/></g><path d=" M 248 272 C 248 285.254 237.254 296 224 296 C 210.746 296 200 285.254 200 272 C 200 258.746 210.746 248 224 248 C 237.254 248 248 258.746 248 272 Z" fill="#FBB540"/><path d=" M 224 432 C 219.582 432 216 428.418 216 424 L 216 360 C 216 355.582 219.582 352 224 352 C 228.418 352 232 355.582 232 360 L 232 424 C 232 428.418 228.418 432 224 432 Z" fill="#DC4D41"/><path d=" M 192 408 C 188.766 408 185.848 406.051 184.609 403.063 C 183.371 400.074 184.059 396.633 186.344 394.344 C 195.117 385.621 200.035 373.75 200 361.375 L 200 360 C 200 355.582 203.582 352 208 352 C 212.418 352 216 355.582 216 360 L 216 361.375 C 216.047 377.996 209.441 393.941 197.656 405.656 C 196.156 407.156 194.121 408 192 408 Z" fill="#DC4D41"/><path d=" M 256 408 C 253.879 408 251.844 407.156 250.344 405.656 C 238.559 393.941 231.953 377.996 232 361.375 L 232 360 C 232 355.582 235.582 352 240 352 C 244.418 352 248 355.582 248 360 L 248 361.375 C 247.965 373.75 252.883 385.621 261.656 394.344 C 263.941 396.633 264.629 400.074 263.391 403.063 C 262.152 406.051 259.234 408 256 408 Z" fill="#DC4D41"/><path d=" M 216 0 L 232 0 L 232 16 L 216 16 Z" fill="#FBB540"/><path d=" M 296 16 L 312 16 L 312 32 L 296 32 Z" fill="#EA9D2D"/><path d=" M 136 16 L 152 16 L 152 32 L 136 32 Z" fill="#EA9D2D"/><path d=" M 56 48 L 72 48 L 72 64 L 56 64 Z" fill="#FBB540"/><path d=" M 0 104 L 16 104 L 16 120 L 0 120 Z" fill="#EA9D2D"/><path d=" M 432 104 L 448 104 L 448 120 L 432 120 Z" fill="#EA9D2D"/><path d=" M 376 48 L 392 48 L 392 64 L 376 64 Z" fill="#FBB540"/><path d=" M 248 368 L 200 368 L 200 339.879 C 199.91 334.84 202.113 330.031 205.992 326.809 C 225.816 311.098 248 325 248 344 Z" fill="#FBB540"/></svg>