<svg version="1.1" width="682.667" height="682.667" viewBox="0 0 512 512" xmlns="http://www.w3.org/2000/svg" xmlns:xlink="http://www.w3.org/1999/xlink" overflow="hidden"><path d=" M 351.879 296.285 C 350.418 293.93 347.844 292.496 345.07 292.496 L 165.695 292.496 C 162.922 292.496 160.348 293.93 158.887 296.285 L 37.4688 492.266 C 34.1602 497.602 38 504.492 44.2773 504.492 L 466.488 504.492 C 472.766 504.492 476.602 497.602 473.297 492.266 Z" fill="#D93131"/><path d=" M 466.488 504.492 L 440.129 504.492 L 308.789 292.5 L 345.07 292.5 C 347.844 292.5 350.418 293.934 351.879 296.289 L 473.297 492.266 C 476.602 497.602 472.762 504.492 466.488 504.492 Z" fill="#C62828"/><path d=" M 98.6875 462.375 L 13.5156 462.375 C 10.1992 462.375 7.50781 459.688 7.50781 456.371 L 7.50781 432.789 C 7.50781 424.371 14.332 417.547 22.75 417.547 L 89.4531 417.547 C 97.8711 417.547 104.695 424.371 104.695 432.789 L 104.695 456.371 C 104.695 459.688 102.008 462.375 98.6875 462.375 Z" fill="#8D9CA8"/><path d=" M 104.695 432.785 L 104.695 456.371 C 104.695 459.684 102.012 462.379 98.6875 462.379 L 78.8477 462.379 C 82.1602 462.379 84.8516 459.684 84.8516 456.371 L 84.8516 432.785 C 84.8516 424.367 78.0234 417.551 69.6055 417.551 L 89.457 417.551 C 97.875 417.551 104.695 424.367 104.695 432.785 Z" fill="#7A8C98"/><path d=" M 37.5664 69.0859 L 74.6367 69.0859 L 74.6367 417.547 L 37.5664 417.547 Z" fill="#596C76"/><path d=" M 56.1016 69.0859 L 74.6367 69.0859 L 74.6367 417.547 L 56.1016 417.547 Z" fill="#465A61"/><path d=" M 99.918 51.3242 C 99.918 75.5234 80.3008 95.1367 56.1016 95.1367 C 31.9023 95.1367 12.2852 75.5234 12.2852 51.3242 C 12.2852 27.125 31.9023 7.50781 56.1016 7.50781 C 80.3008 7.50781 99.918 27.125 99.918 51.3242 Z" fill="#F7C22C"/><path d=" M 99.918 51.3242 C 99.918 75.5195 80.2969 95.1406 56.1016 95.1406 C 43.9609 95.1406 32.9766 90.207 25.0391 82.2266 C 28.625 83.1758 32.3789 83.6797 36.25 83.6797 C 60.457 83.6797 80.0664 64.0586 80.0664 39.8633 C 80.0664 27.8008 75.1914 16.8789 67.3125 8.96094 C 86.082 13.9141 99.918 31.0039 99.918 51.3242 Z" fill="#EEB900"/><path d=" M 498.109 462.375 L 412.934 462.375 C 409.617 462.375 406.93 459.688 406.93 456.371 L 406.93 432.789 C 406.93 424.371 413.754 417.547 422.172 417.547 L 488.875 417.547 C 497.293 417.547 504.117 424.371 504.117 432.789 L 504.117 456.371 C 504.117 459.688 501.43 462.375 498.109 462.375 Z" fill="#8D9CA8"/><path d=" M 504.113 432.785 L 504.113 456.371 C 504.113 459.684 501.434 462.379 498.109 462.379 L 478.266 462.379 C 481.582 462.379 484.273 459.684 484.273 456.371 L 484.273 432.785 C 484.273 424.367 477.445 417.551 469.027 417.551 L 488.879 417.551 C 497.297 417.551 504.113 424.367 504.113 432.785 Z" fill="#7A8C98"/><path d=" M 436.988 69.0859 L 474.059 69.0859 L 474.059 417.547 L 436.988 417.547 Z" fill="#596C76"/><path d=" M 455.523 69.0859 L 474.059 69.0859 L 474.059 417.547 L 455.523 417.547 Z" fill="#465A61"/><path d=" M 499.34 51.3242 C 499.34 75.5234 479.723 95.1367 455.523 95.1367 C 431.324 95.1367 411.707 75.5234 411.707 51.3242 C 411.707 27.125 431.324 7.50781 455.523 7.50781 C 479.723 7.50781 499.34 27.125 499.34 51.3242 Z" fill="#F7C22C"/><path d=" M 499.34 51.3242 C 499.34 75.5195 479.719 95.1406 455.523 95.1406 C 443.379 95.1406 432.398 90.207 424.461 82.2266 C 428.043 83.1758 431.797 83.6797 435.672 83.6797 C 459.879 83.6797 479.488 64.0586 479.488 39.8633 C 479.488 27.8008 474.613 16.8789 466.734 8.96094 C 485.504 13.9141 499.34 31.0039 499.34 51.3242 Z" fill="#EEB900"/><path d=" M 255.383 204.391 C 151.672 205.273 74.6367 145.254 74.6367 145.254 L 74.6367 173.5 C 146.77 255.586 255.383 251.172 255.383 251.172 C 255.383 251.172 363.996 255.586 436.129 173.5 L 436.129 145.254 C 436.129 145.254 359.094 205.273 255.383 204.391 Z" fill="#F7C22C"/><path d=" M 436.121 155.324 L 436.121 173.504 C 363.996 255.578 255.383 251.176 255.383 251.176 C 255.383 251.176 146.77 255.578 74.6406 173.504 L 74.6406 155.324 C 146.77 237.41 255.383 232.996 255.383 232.996 C 255.383 232.996 363.996 237.41 436.121 155.324 Z" fill="#EEB900"/><path d=" M 488.875 410.039 L 481.566 410.039 L 481.566 95.5195 C 496.684 86.582 506.848 70.1211 506.848 51.3203 C 506.848 23.0234 483.824 2.84217e-14 455.523 2.84217e-14 C 444.117 2.84217e-14 433.313 3.66406 424.285 10.5977 C 420.996 13.125 420.379 17.8359 422.902 21.1289 C 425.43 24.4141 430.145 25.0352 433.434 22.5078 C 439.813 17.6055 447.453 15.0156 455.523 15.0156 C 475.543 15.0156 491.832 31.3047 491.832 51.3242 C 491.832 71.3438 475.543 87.6289 455.523 87.6289 C 435.504 87.6289 419.215 71.3438 419.215 51.3242 C 419.215 49.8125 419.309 48.2891 419.492 46.7969 C 420.004 42.6836 417.078 38.9336 412.965 38.4258 C 408.859 37.918 405.102 40.8398 404.59 44.9531 C 404.332 47.0547 404.199 49.1992 404.199 51.3242 C 404.199 70.1211 414.363 86.582 429.48 95.5195 L 429.48 140.832 C 416.816 149.965 346.289 197.633 255.445 196.883 C 255.402 196.883 255.359 196.883 255.316 196.883 C 254.586 196.891 253.871 196.895 253.141 196.895 C 165.418 196.887 96.7852 151.824 82.1445 141.445 L 82.1445 95.5195 C 97.2578 86.582 107.426 70.1211 107.426 51.3203 C 107.426 23.0234 84.4023 2.84217e-14 56.1016 2.84217e-14 C 27.8008 2.84217e-14 4.77734 23.0234 4.77734 51.3242 C 4.77734 70.1211 14.9453 86.582 30.0586 95.5195 L 30.0586 410.039 L 22.75 410.039 C 10.207 410.039 -2.84217e-14 420.246 -2.84217e-14 432.789 L -2.84217e-14 456.371 C -2.84217e-14 463.82 6.0625 469.883 13.5156 469.883 L 42.5 469.883 L 31.0859 488.313 C 28.1211 493.094 27.9805 499.117 30.7188 504.031 C 33.457 508.945 38.6484 512 44.2734 512 L 466.488 512 C 472.113 512 477.309 508.945 480.047 504.031 C 482.781 499.117 482.641 493.094 479.68 488.313 L 468.266 469.883 L 498.113 469.883 C 505.563 469.883 511.625 463.82 511.625 456.371 L 511.625 432.789 C 511.625 420.246 501.418 410.039 488.875 410.039 Z M 444.496 101.438 C 448.051 102.223 451.738 102.645 455.523 102.645 C 459.309 102.645 462.996 102.223 466.551 101.438 L 466.551 410.039 L 444.496 410.039 Z M 74.6367 327.242 C 70.4922 327.242 67.1289 330.602 67.1289 334.75 L 67.1289 410.039 L 45.0742 410.039 L 45.0742 101.438 C 48.6289 102.223 52.3164 102.645 56.1016 102.645 C 59.8906 102.645 63.5742 102.223 67.1289 101.438 L 67.1289 300.047 C 67.1289 304.191 70.4922 307.555 74.6406 307.555 C 78.7852 307.555 82.1484 304.191 82.1484 300.047 L 82.1484 192.129 C 118.137 226.469 159.957 242.734 190.219 250.395 C 225.402 259.305 252.098 258.789 255.383 258.684 C 255.887 258.699 256.934 258.727 258.477 258.727 C 267.027 258.727 290.742 257.941 320.551 250.395 C 351.051 242.672 393.301 226.211 429.48 191.305 L 429.48 407.285 L 358.262 292.332 C 355.41 287.734 350.48 284.988 345.07 284.988 L 165.695 284.988 C 160.285 284.988 155.355 287.73 152.504 292.332 L 82.1445 405.895 L 82.1445 334.75 C 82.1445 330.602 78.7852 327.242 74.6367 327.242 Z M 122.969 181.969 C 153.055 195.875 200.438 212.344 255.383 211.898 C 310.309 212.34 357.707 195.875 387.797 181.969 C 405.625 173.727 419.535 165.488 428.617 159.605 L 428.617 170.641 C 393.059 209.977 348.613 227.734 317.34 235.715 C 282.555 244.594 255.941 243.676 255.688 243.668 C 255.582 243.664 255.484 243.664 255.379 243.664 C 255.277 243.664 255.176 243.664 255.074 243.668 C 254.039 243.711 151.121 246.973 82.1445 170.641 L 82.1445 159.605 C 91.2266 165.488 105.137 173.727 122.969 181.969 Z M 19.793 51.3242 C 19.793 31.3047 36.082 15.0156 56.1016 15.0156 C 76.1211 15.0156 92.4102 31.3047 92.4102 51.3242 C 92.4102 71.3438 76.1211 87.6289 56.1016 87.6289 C 36.082 87.6289 19.793 71.3438 19.793 51.3242 Z M 15.0156 454.867 L 15.0156 432.789 C 15.0156 428.523 18.4883 425.055 22.75 425.055 L 89.457 425.055 C 93.7188 425.055 97.1914 428.523 97.1914 432.789 L 97.1914 454.867 Z M 466.926 496.727 C 466.781 496.984 466.613 496.984 466.488 496.984 L 44.2734 496.984 C 44.1523 496.984 43.9805 496.984 43.8398 496.727 C 43.6953 496.469 43.7852 496.324 43.8516 496.219 L 60.1641 469.887 L 98.6875 469.887 C 106.141 469.887 112.203 463.824 112.203 456.371 L 112.203 432.789 C 112.203 422.719 105.625 414.16 96.5391 411.176 L 165.27 300.242 C 165.359 300.094 165.52 300.004 165.695 300.004 L 345.07 300.004 C 345.242 300.004 345.402 300.094 345.496 300.242 L 414.375 411.418 C 405.66 414.609 399.422 422.984 399.422 432.793 L 399.422 456.371 C 399.422 463.824 405.484 469.887 412.938 469.887 L 450.598 469.887 L 466.914 496.223 C 466.98 496.324 467.07 496.469 466.926 496.727 Z M 496.609 454.867 L 414.438 454.867 L 414.438 432.789 C 414.438 428.523 417.906 425.055 422.172 425.055 L 488.875 425.055 C 493.141 425.055 496.609 428.523 496.609 432.789 Z"/></svg>