<svg version="1.1" width="682.667" height="682.667" viewBox="0 1 512 511" xmlns="http://www.w3.org/2000/svg" xmlns:xlink="http://www.w3.org/1999/xlink" overflow="hidden"><g fill="#FFD89E"><path d=" M 222 10.5 L 222 140.5 L 342 180.5 L 342 50.5 Z"/><path d=" M 302 130.5 L 302 290.5 L 190 442.5 L 190 222.5 Z"/><path d=" M 190 332.5 L 30 332.5 L 30 222.5 L 190 222.5 Z"/></g><path d=" M 30 222.5 L 190 222.5 L 110 172.5 Z" fill="#FFC15A"/><path d=" M 210 502.5 L 210 342.5 L 502 342.5 L 502 502.5 Z" fill="#FFD89E"/><path d=" M 170 292.5 L 170 323.207 L 130 323.207 L 130 292.5 L 90 292.5 L 90 323.207 L 50 323.207 L 50 292.5 L 10 292.5 L 10 502.5 L 210 502.5 L 210 292.5 Z" fill="#FFC15A"/><path d=" M 482 150.5 L 322 150.5 L 322 60.5 L 482 60.5 Z" fill="#FFD89E"/><path d=" M 322 60.5 L 482 60.5 L 402 10.5 Z" fill="#FFC15A"/><path d=" M 462 110.5 L 462 141.207 L 422 141.207 L 422 110.5 L 382 110.5 L 382 141.207 L 342 141.207 L 342 110.5 L 302 110.5 L 302 290.5 L 502 290.5 L 502 110.5 Z" fill="#FFC15A"/><path d=" M 80 382.5 C 80 388.023 75.5234 392.5 70 392.5 C 64.4766 392.5 60 388.023 60 382.5 C 60 376.977 64.4766 372.5 70 372.5 C 75.5234 372.5 80 376.977 80 382.5 Z"/><path d=" M 120 382.5 C 120 388.023 115.523 392.5 110 392.5 C 104.477 392.5 100 388.023 100 382.5 C 100 376.977 104.477 372.5 110 372.5 C 115.523 372.5 120 376.977 120 382.5 Z"/><path d=" M 160 382.5 C 160 388.023 155.523 392.5 150 392.5 C 144.477 392.5 140 388.023 140 382.5 C 140 376.977 144.477 372.5 150 372.5 C 155.523 372.5 160 376.977 160 382.5 Z"/><path d=" M 150 412.5 L 70 412.5 C 64.4766 412.5 60 416.977 60 422.5 C 60 428.023 64.4766 432.5 70 432.5 L 150 432.5 C 155.523 432.5 160 428.023 160 422.5 C 160 416.977 155.523 412.5 150 412.5 Z"/><path d=" M 432 452.5 L 400 452.5 C 394.477 452.5 390 456.977 390 462.5 C 390 468.023 394.477 472.5 400 472.5 L 432 472.5 C 437.523 472.5 442 468.023 442 462.5 C 442 456.977 437.523 452.5 432 452.5 Z"/><path d=" M 250 472.5 L 282 472.5 C 287.523 472.5 292 468.023 292 462.5 C 292 456.977 287.523 452.5 282 452.5 L 250 452.5 C 244.477 452.5 240 456.977 240 462.5 C 240 468.023 244.477 472.5 250 472.5 Z"/><path d=" M 402 422.5 C 402 416.988 397.512 412.5 392 412.5 C 386.488 412.5 382 416.988 382 422.5 C 382 428.008 386.488 432.5 392 432.5 C 397.512 432.5 402 428.008 402 422.5 Z"/><path d=" M 432 432.5 L 462 432.5 C 467.512 432.5 472 428.008 472 422.5 C 472 416.988 467.512 412.5 462 412.5 L 432 412.5 C 426.488 412.5 422 416.988 422 422.5 C 422 428.008 426.488 432.5 432 432.5 Z"/><path d=" M 242 422.5 C 242 428.008 246.488 432.5 252 432.5 C 257.512 432.5 262 428.008 262 422.5 C 262 416.988 257.512 412.5 252 412.5 C 246.488 412.5 242 416.988 242 422.5 Z"/><path d=" M 282 422.5 C 282 428.008 286.488 432.5 292 432.5 L 342 432.5 C 347.512 432.5 352 428.008 352 422.5 C 352 416.988 347.512 412.5 342 412.5 L 292 412.5 C 286.488 412.5 282 416.988 282 422.5 Z"/><path d=" M 250 392.5 L 302 392.5 C 307.523 392.5 312 388.023 312 382.5 C 312 376.977 307.523 372.5 302 372.5 L 250 372.5 C 244.477 372.5 240 376.977 240 382.5 C 240 388.023 244.477 392.5 250 392.5 Z"/><path d=" M 370 392.5 L 392 392.5 C 397.523 392.5 402 388.023 402 382.5 C 402 376.977 397.523 372.5 392 372.5 L 370 372.5 C 364.477 372.5 360 376.977 360 382.5 C 360 388.023 364.477 392.5 370 392.5 Z"/><path d=" M 277.16 65.0117 L 265.16 61.0117 C 259.926 59.2656 254.258 62.0977 252.512 67.3359 C 250.766 72.5781 253.598 78.2383 258.84 79.9883 L 270.84 83.9883 C 271.887 84.3359 272.953 84.5039 274.004 84.5039 C 278.188 84.5039 282.09 81.8516 283.488 77.6602 C 285.234 72.4219 282.402 66.7578 277.16 65.0117 Z"/><path d=" M 268.426 103.797 L 264.426 102.797 C 259.066 101.457 253.637 104.719 252.297 110.074 C 250.961 115.434 254.215 120.863 259.574 122.199 L 263.574 123.199 C 264.387 123.406 265.203 123.5 266.008 123.5 C 270.488 123.5 274.566 120.469 275.699 115.926 C 277.039 110.566 273.781 105.137 268.426 103.797 Z"/><path d=" M 502 300.5 C 507.523 300.5 512 296.023 512 290.5 L 512 110.5 C 512 104.977 507.523 100.5 502 100.5 L 492 100.5 C 492 100.5 492 60.5625 492 60.5 C 492 57.0508 490.129 53.9063 487.301 52.0195 L 407.301 2.01953 C 404.059 -0.00390625 399.941 -0.00390625 396.699 2.01953 L 338.086 38.6523 L 225.16 1.01172 C 222.113 -0.00390625 218.762 0.507812 216.152 2.38672 C 213.547 4.26953 212 7.28516 212 10.5 L 212 140.5 C 212 144.805 214.754 148.625 218.84 149.988 L 249.91 160.344 L 189.207 210.211 L 115.301 164.02 C 112.059 161.992 107.941 161.992 104.699 164.02 L 24.6992 214.02 C 21.8398 215.809 20 219.125 20 222.5 L 20 282.5 L 10 282.5 C 4.47656 282.5 -5.68434e-14 286.977 -5.68434e-14 292.5 L -5.68434e-14 502.5 C -5.68434e-14 508.02 4.47656 512.5 10 512.5 L 502 512.5 C 507.523 512.5 512 508.02 512 502.5 L 512 342.5 C 512 336.977 507.523 332.5 502 332.5 L 283.473 332.5 L 307.055 300.5 Z M 402 22.293 L 447.133 50.5 L 356.867 50.5 Z M 332 70.5 L 472 70.5 L 472 100.5 L 462 100.5 C 456.477 100.5 452 104.977 452 110.5 L 452 131.207 L 432 131.207 L 432 110.5 C 432 104.977 427.523 100.5 422 100.5 L 382 100.5 C 376.477 100.5 372 104.977 372 110.5 L 372 131.207 L 352 131.207 L 352 110.5 C 352 104.977 347.523 100.5 342 100.5 L 332 100.5 Z M 342 151.207 L 382 151.207 C 387.523 151.207 392 146.73 392 141.207 L 392 120.5 L 412 120.5 L 412 141.207 C 412 146.73 416.477 151.207 422 151.207 L 462 151.207 C 467.523 151.207 472 146.73 472 141.207 L 472 120.5 L 492 120.5 L 492 280.5 L 312 280.5 L 312 120.5 L 332 120.5 L 332 141.207 C 332 146.73 336.477 151.207 342 151.207 Z M 110 184.293 L 155.133 212.5 L 64.8672 212.5 Z M 40 232.5 L 180 232.5 L 180 282.5 L 170 282.5 C 164.477 282.5 160 286.977 160 292.5 L 160 313.207 L 140 313.207 L 140 292.5 C 140 286.977 135.523 282.5 130 282.5 L 90 282.5 C 84.4766 282.5 80 286.977 80 292.5 L 80 313.207 L 60 313.207 L 60 292.5 C 60 286.977 55.5234 282.5 50 282.5 L 40 282.5 Z M 200 492.5 L 20 492.5 L 20 302.5 L 40 302.5 L 40 323.207 C 40 328.73 44.4766 333.207 50 333.207 L 90 333.207 C 95.5234 333.207 100 328.73 100 323.207 L 100 302.5 L 120 302.5 L 120 323.207 C 120 328.73 124.477 333.207 130 333.207 L 170 333.207 C 175.523 333.207 180 328.73 180 323.207 L 180 302.5 L 200 302.5 Z M 492 352.5 L 492 492.5 L 220 492.5 L 220 352.5 Z M 292 287.215 L 258.633 332.5 L 220 332.5 L 220 292.5 C 220 286.977 215.523 282.5 210 282.5 L 200 282.5 L 200 227.227 L 292 151.656 Z M 292 110.5 L 292 125.773 L 268.168 145.348 L 232 133.293 L 232 24.375 L 316.129 52.418 C 313.621 54.2422 312.063 57.2305 312.008 60.332 C 312.008 60.3906 312 60.4453 312 60.5 L 312 100.5 L 302 100.5 C 296.477 100.5 292 104.977 292 110.5 Z"/><path d=" M 452 190.5 C 452 196.023 447.523 200.5 442 200.5 C 436.477 200.5 432 196.023 432 190.5 C 432 184.977 436.477 180.5 442 180.5 C 447.523 180.5 452 184.977 452 190.5 Z"/><path d=" M 412 190.5 C 412 196.023 407.523 200.5 402 200.5 C 396.477 200.5 392 196.023 392 190.5 C 392 184.977 396.477 180.5 402 180.5 C 407.523 180.5 412 184.977 412 190.5 Z"/><path d=" M 372 190.5 C 372 196.023 367.523 200.5 362 200.5 C 356.477 200.5 352 196.023 352 190.5 C 352 184.977 356.477 180.5 362 180.5 C 367.523 180.5 372 184.977 372 190.5 Z"/><path d=" M 362 240.5 L 442 240.5 C 447.523 240.5 452 236.023 452 230.5 C 452 224.977 447.523 220.5 442 220.5 L 362 220.5 C 356.477 220.5 352 224.977 352 230.5 C 352 236.023 356.477 240.5 362 240.5 Z"/><path d=" M 230.012 255.5 C 232.289 255.5 234.531 254.699 236.309 253.258 L 237.078 252.629 C 239.148 250.949 240.449 248.559 240.719 245.898 C 241 243.242 240.219 240.641 238.539 238.559 C 236.629 236.219 233.801 234.871 230.77 234.871 C 228.48 234.871 226.25 235.66 224.469 237.109 L 223.691 237.742 C 219.422 241.219 218.762 247.531 222.238 251.809 C 224.148 254.148 226.98 255.5 230.012 255.5 Z"/><path d=" M 261.828 229.648 C 264.109 229.648 266.352 228.848 268.129 227.41 C 270.199 225.719 271.488 223.328 271.77 220.668 C 272.039 218.02 271.27 215.41 269.578 213.34 C 267.672 210.988 264.84 209.641 261.809 209.641 C 259.531 209.641 257.289 210.441 255.52 211.879 C 253.441 213.57 252.148 215.961 251.871 218.609 C 251.602 221.27 252.371 223.879 254.059 225.949 C 255.969 228.301 258.801 229.648 261.828 229.648 Z"/><path d=" M 244.313 286.934 C 246.223 288.652 248.613 289.5 250.996 289.5 C 253.734 289.5 256.461 288.383 258.434 286.188 L 267.434 276.188 C 271.129 272.086 270.797 265.762 266.691 262.066 C 262.586 258.371 256.262 258.703 252.566 262.809 L 243.566 272.809 C 239.871 276.914 240.203 283.238 244.313 286.934 Z"/></svg>