<svg version="1.1" viewBox="0 0 442.655 442.655" xmlns="http://www.w3.org/2000/svg" xmlns:xlink="http://www.w3.org/1999/xlink" id="Capa_1" overflow="hidden"><g id="XMLID_8_"><g><path d=" M 412.475 167.603 L 424.445 172.193 C 398.465 221.413 357.735 262.143 308.515 288.123 L 303.925 276.163 C 332.905 259.593 358.615 238.363 380.435 212.993 C 383.135 209.853 382.775 205.113 379.635 202.413 C 376.495 199.713 371.755 200.073 369.055 203.213 C 348.865 226.703 325.145 246.423 298.475 261.973 L 272.535 194.403 C 272.155 193.423 271.585 192.533 270.835 191.783 L 211.445 132.393 L 268.715 75.123 L 328.115 134.513 C 328.855 135.253 329.745 135.833 330.725 136.213 L 398.295 162.153 C 396.065 165.983 393.745 169.763 391.355 173.453 C 389.095 176.933 390.085 181.573 393.555 183.833 C 394.815 184.653 396.235 185.043 397.635 185.043 C 400.085 185.043 402.495 183.833 403.935 181.623 C 406.895 177.053 409.755 172.353 412.475 167.603 Z" fill="#B3B3B3"/><path d=" M 337.895 92.923 C 339.185 94.213 339.185 96.323 337.895 97.613 L 325.155 110.353 L 288.035 73.223 L 300.765 60.493 C 301.615 59.643 302.605 59.523 303.115 59.523 C 303.625 59.523 304.615 59.643 305.465 60.493 L 337.895 92.923 Z" fill="#E29E30"/><path d=" M 246.675 188.833 L 54.435 381.073 C 51.675 383.833 47.195 383.833 44.435 381.073 L 17.315 353.953 C 14.555 351.193 14.555 346.703 17.315 343.953 L 26.815 334.443 C 28.895 332.373 31.335 330.813 34.105 329.803 C 36.835 328.793 39.715 328.403 42.635 328.653 C 52.925 329.513 63.025 325.823 70.325 318.513 L 154.435 234.403 C 158.235 230.603 161.205 226.153 163.255 221.183 C 165.325 216.213 166.375 210.963 166.375 205.573 C 166.375 198.683 169.065 192.203 173.925 187.333 L 209.545 151.713 L 246.675 188.833 Z" fill="#E29E30"/><path d=" M 441.885 165.433 C 442.655 167.393 442.565 169.583 441.645 171.473 C 413.265 229.403 365.725 276.943 307.805 305.313 C 306.765 305.823 305.635 306.083 304.505 306.083 C 303.575 306.083 302.645 305.913 301.755 305.563 C 299.795 304.793 298.255 303.233 297.495 301.273 L 259.105 201.263 L 257.275 199.443 L 65.045 391.683 C 60.735 395.983 55.085 398.133 49.435 398.133 C 43.785 398.133 38.135 395.983 33.825 391.683 L 6.705 364.553 C -1.905 355.953 -1.905 341.953 6.705 333.343 L 16.205 323.843 C 19.795 320.253 24.195 317.443 28.945 315.713 C 33.725 313.953 38.755 313.273 43.885 313.703 C 49.775 314.193 55.545 312.083 59.725 307.903 L 143.825 223.803 C 146.225 221.403 148.105 218.583 149.405 215.443 C 150.715 212.293 151.375 208.973 151.375 205.573 C 151.385 194.663 155.625 184.423 163.325 176.723 L 198.945 141.103 L 195.535 137.693 C 194.125 136.293 193.335 134.383 193.335 132.393 C 193.335 130.403 194.125 128.493 195.535 127.093 L 263.415 59.213 C 266.345 56.283 271.095 56.283 274.015 59.213 L 277.425 62.623 L 290.165 49.883 C 293.625 46.423 298.225 44.523 303.115 44.523 C 308.005 44.523 312.615 46.423 316.075 49.883 L 348.495 82.313 C 355.645 89.453 355.645 101.083 348.495 108.223 L 335.765 120.953 L 337.585 122.783 L 437.595 161.173 C 439.555 161.933 441.115 163.473 441.885 165.433 Z M 424.445 172.193 L 412.475 167.603 C 409.755 172.353 406.895 177.053 403.935 181.623 C 402.495 183.833 400.085 185.043 397.635 185.043 C 396.235 185.043 394.815 184.653 393.555 183.833 C 390.085 181.573 389.095 176.933 391.355 173.453 C 393.745 169.763 396.065 165.983 398.295 162.153 L 330.725 136.213 C 329.745 135.833 328.855 135.253 328.115 134.513 L 268.715 75.123 L 211.445 132.393 L 270.835 191.783 C 271.585 192.533 272.155 193.423 272.535 194.403 L 298.475 261.973 C 325.145 246.423 348.865 226.703 369.055 203.213 C 371.755 200.073 376.495 199.713 379.635 202.413 C 382.775 205.113 383.135 209.853 380.435 212.993 C 358.615 238.363 332.905 259.593 303.925 276.163 L 308.515 288.123 C 357.735 262.143 398.465 221.413 424.445 172.193 Z M 337.895 97.613 C 339.185 96.323 339.185 94.213 337.895 92.923 L 305.465 60.493 C 304.615 59.643 303.625 59.523 303.115 59.523 C 302.605 59.523 301.615 59.643 300.765 60.493 L 288.035 73.223 L 325.155 110.353 L 337.895 97.613 Z M 54.435 381.073 L 246.675 188.833 L 209.545 151.713 L 173.925 187.333 C 169.065 192.203 166.375 198.683 166.375 205.573 C 166.375 210.963 165.325 216.213 163.255 221.183 C 161.205 226.153 158.235 230.603 154.435 234.403 L 70.325 318.513 C 63.025 325.823 52.925 329.513 42.635 328.653 C 39.715 328.403 36.835 328.793 34.105 329.803 C 31.335 330.813 28.895 332.373 26.815 334.443 L 17.315 343.953 C 14.555 346.703 14.555 351.193 17.315 353.953 L 44.435 381.073 C 47.195 383.833 51.675 383.833 54.435 381.073 Z" fill="#4D4D4D"/></g><g></g></g><g></g><g></g><g></g><g></g><g></g><g></g><g></g><g></g><g></g><g></g><g></g><g></g><g></g><g></g><g></g></svg>