<svg version="1.1" width="618.667" height="618.667" viewBox="0 0 464 464.004" xmlns="http://www.w3.org/2000/svg" xmlns:xlink="http://www.w3.org/1999/xlink" overflow="hidden"><path d=" M 72 248.004 C 67.582 248.004 64 244.422 64 240.004 L 64 200.004 C 64 195.586 67.582 192.004 72 192.004 C 76.4219 192.004 80 195.586 80 200.004 L 80 240.004 C 80 244.422 76.4219 248.004 72 248.004 Z" fill="#C06100"/><path d=" M 261.449 248.004 C 257.031 248.004 253.449 244.422 253.449 240.004 L 253.449 200.004 C 253.449 195.586 257.031 192.004 261.449 192.004 C 265.867 192.004 269.449 195.586 269.449 200.004 L 269.449 240.004 C 269.449 244.422 265.867 248.004 261.449 248.004 Z" fill="#C06100"/><path d=" M 72 0.00390625 C 61.5313 0.00390625 51.5391 4.38672 44.4492 12.0938 C 37.3594 19.7969 33.8203 30.1211 34.6914 40.5547 L 46.6914 184.723 C 47.7891 197.879 58.7852 207.996 71.9844 207.996 C 85.1875 207.996 96.1836 197.879 97.2813 184.723 L 109.281 40.5547 C 110.152 30.125 106.617 19.8086 99.5352 12.1055 C 92.4531 4.40234 82.4688 0.0117188 72 0.00390625 Z" fill="#FFA91F"/><path d=" M 289 12.0898 C 278.172 0.316406 261.055 -3.27344 246.402 3.15625 C 231.754 9.58594 222.805 24.6133 224.137 40.5547 L 236.137 184.723 C 237.234 197.879 248.234 207.996 261.434 207.996 C 274.633 207.996 285.633 197.879 286.73 184.723 L 298.73 40.5547 C 299.59 30.1289 296.063 19.8125 289 12.0898 Z" fill="#FFA91F"/><path d=" M 120 232.004 L 24 232.004 C 10.7461 232.004 0 242.75 0 256.004 L 0 336.004 C -0.0273438 357.172 9.30078 377.273 25.4883 390.914 C 26.9297 392.133 28.7539 392.801 30.6406 392.805 C 31.7422 392.801 32.832 392.578 33.8438 392.141 C 45.9844 387.098 58.9922 384.473 72.1367 384.402 C 86.7109 384.188 101.254 385.797 115.426 389.203 C 118.109 389.836 120.93 389.023 122.867 387.059 C 136.453 373.551 144.063 355.164 144 336.004 L 144 256.004 C 144 242.75 133.258 232.004 120 232.004 Z" fill="#C8C6CC"/><path d=" M 102.402 354.172 C 99.832 354.168 97.418 352.934 95.918 350.848 C 94.4141 348.762 94.0039 346.082 94.8164 343.645 C 95.6172 341.176 96.0156 338.598 96 336.004 L 96 296.004 C 96 291.586 99.582 288.004 104 288.004 C 108.422 288.004 112 291.586 112 296.004 L 112 336.004 C 112.008 340.32 111.313 344.613 109.945 348.707 C 108.859 351.957 105.828 354.152 102.402 354.172 Z" fill="#F5F5F5"/><path d=" M 40 344.004 C 35.582 344.004 32 340.422 32 336.004 L 32 272.004 C 32 267.586 35.582 264.004 40 264.004 C 44.4219 264.004 48 267.586 48 272.004 L 48 336.004 C 48 340.422 44.4219 344.004 40 344.004 Z" fill="#F5F5F5"/><path d=" M 296 232.004 L 232 232.004 C 209.922 232.031 192.027 249.922 192 272.004 L 192 363.523 C 192 367.941 195.582 371.523 200 371.523 C 204.422 371.523 208 367.941 208 363.523 L 208 312.004 C 208 303.168 215.164 296.004 224 296.004 L 224 367.203 C 224 371.621 227.582 375.203 232 375.203 C 236.422 375.203 240 371.621 240 367.203 L 240 296.004 L 256 296.004 L 256 374.484 C 256 378.902 259.582 382.484 264 382.484 C 268.422 382.484 272 378.902 272 374.484 L 272 296.004 L 288 296.004 L 288 368.723 C 288 373.141 291.582 376.723 296 376.723 C 300.422 376.723 304 373.141 304 368.723 L 304 296.004 C 312.84 296.004 320 303.168 320 312.004 L 320 370.645 C 320 375.063 323.582 378.645 328 378.645 C 332.422 378.645 336 375.063 336 370.645 L 336 272.004 C 335.977 249.922 318.082 232.031 296 232.004 Z" fill="#C8C6CC"/><path d=" M 458.402 384.363 L 453.211 382.715 C 431.453 374.957 408.875 369.727 385.922 367.125 C 376.676 366.988 367.449 368.023 358.465 370.203 L 357.664 370.418 L 355.785 370.934 C 331.805 360.695 305.328 357.805 279.707 362.621 L 279.266 362.676 C 273.441 363.699 267.68 365.055 262.012 366.738 C 250.266 362.918 238.246 360.004 226.059 358.027 C 206.398 354.719 186.336 354.613 166.641 357.715 C 159.688 358.879 152.816 360.48 146.066 362.516 C 143.273 363.363 140.57 364.293 138.066 365.203 C 131.535 367.539 125.176 370.328 119.035 373.555 C 103.531 369.891 87.6328 368.16 71.707 368.41 C 22.625 369.613 2.5625 394.012 1.73047 395.012 C 0.605469 396.434 -0.00390625 398.191 8.4599e-14 400.004 L 8.4599e-14 456.004 C 8.4599e-14 460.422 3.58203 464.004 8 464.004 L 456 464.004 C 460.422 464.004 464 460.422 464 456.004 L 464 392.004 C 464.004 388.508 461.738 385.414 458.402 384.363 Z" fill="#C06100"/><g fill="#994B00"><path d=" M 160 432.004 C 156.371 432.016 153.184 429.582 152.246 426.07 C 151.309 422.563 152.848 418.863 156 417.059 C 158.457 415.652 216.891 383.012 268.41 417.348 C 272.086 419.801 273.078 424.77 270.625 428.445 C 268.172 432.121 263.207 433.113 259.531 430.66 C 216.145 401.738 164.457 430.66 163.938 430.949 C 162.742 431.637 161.383 432 160 432.004 Z"/><path d=" M 312 431.914 C 310.727 431.918 309.473 431.609 308.348 431.012 C 304.48 429.035 302.926 424.316 304.859 420.426 C 305.297 419.547 315.883 399.082 345.465 404.555 C 349.813 405.355 352.688 409.527 351.887 413.871 C 351.086 418.219 346.914 421.09 342.57 420.293 C 325.465 417.09 319.707 426.621 319.105 427.707 C 317.68 430.297 314.957 431.906 312 431.914 Z"/><path d=" M 376 431.914 C 374.727 431.918 373.473 431.609 372.348 431.012 C 368.48 429.035 366.926 424.316 368.859 420.426 C 369.297 419.547 379.867 399.082 409.465 404.555 C 413.813 405.355 416.688 409.527 415.887 413.871 C 415.086 418.219 410.914 421.09 406.57 420.293 C 389.473 417.09 383.707 426.621 383.105 427.707 C 381.68 430.297 378.957 431.906 376 431.914 Z"/><path d=" M 96 432.004 C 93.0117 432.008 90.2695 430.344 88.8906 427.691 C 88.2422 426.508 82.4258 417.156 65.4414 420.293 C 61.0977 421.09 56.9258 418.219 56.125 413.871 C 55.3281 409.527 58.1992 405.355 62.5469 404.555 C 92.1055 399.141 102.715 419.555 103.152 420.426 C 104.395 422.906 104.262 425.852 102.805 428.207 C 101.348 430.566 98.7734 432.004 96 432.004 Z"/></g></svg>