<svg version="1.1" viewBox="0 0 496 496" xmlns="http://www.w3.org/2000/svg" xmlns:xlink="http://www.w3.org/1999/xlink" id="Capa_1" overflow="hidden"><path d=" M 330.416 44 C 312.888 44 295.512 48.576 280.864 58.208 C 272.984 63.384 262.032 68 248 68 C 233.968 68 223.016 63.384 215.136 58.208 C 200.496 48.576 183.112 44 165.584 44 L 165.584 44 C 113.904 44 72 85.904 72 137.584 L 72 158.68 C 72 214.384 88.016 268.912 118.136 315.768 C 135.264 342.408 147.92 371.672 155.6 402.4 L 164.312 437.24 C 166.48 445.912 174.272 452 183.216 452 C 192.864 452 201.056 444.944 202.488 435.4 L 220.44 315.736 C 222.488 302.096 234.208 292 248 292 C 261.792 292 273.512 302.096 275.56 315.736 L 293.512 435.4 C 294.944 444.944 303.136 452 312.784 452 C 321.728 452 329.52 445.912 331.688 437.24 L 340.4 402.4 C 348.08 371.672 360.736 342.408 377.864 315.768 C 401.216 279.448 416.088 238.512 421.592 196 L 423.016 124 C 416.44 78.752 377.488 44 330.416 44 Z" fill="#ECECEC"/><path d=" M 252 268 C 182.088 268 119.552 247.552 77.728 215.392 C 84.808 250.92 98.36 285.016 118.136 315.768 C 135.264 342.408 147.92 371.672 155.6 402.4 L 164.312 437.24 C 166.48 445.912 174.272 452 183.216 452 C 192.864 452 201.056 444.944 202.488 435.4 L 220.44 315.736 C 222.488 302.096 234.208 292 248 292 C 261.792 292 273.512 302.096 275.56 315.736 L 293.512 435.4 C 294.944 444.944 303.136 452 312.784 452 C 321.728 452 329.52 445.912 331.688 437.24 L 340.4 402.4 C 348.08 371.672 360.736 342.408 377.864 315.768 C 396.376 286.968 409.464 255.248 416.88 222.16 C 375.36 250.384 316.864 268 252 268 Z" fill="#B6C1CE"/><g><path d=" M 368 164 L 368 164 C 403.344 164 432 135.344 432 100 L 432 100 L 432 100 C 432 135.344 460.656 164 496 164 L 496 164 L 496 164 C 460.656 164 432 192.656 432 228 L 432 228 L 432 228 C 432 192.656 403.344 164 368 164 L 368 164 Z" fill="#FCD770"/><path d=" M 0 372 L 0 372 C 35.344 372 64 343.344 64 308 L 64 308 L 64 308 C 64 343.344 92.656 372 128 372 L 128 372 L 128 372 C 92.656 372 64 400.656 64 436 L 64 436 L 64 436 C 64 400.656 35.344 372 0 372 L 0 372 Z" fill="#FCD770"/></g><path d=" M 112 158.68 L 112 156 L 96 156 L 96 158.68 C 96 163.264 96.12 167.848 96.352 172.408 L 112.336 171.592 C 112.12 167.296 112 163 112 158.68 Z"/><path d=" M 97.712 188.904 C 102.288 229.2 116.336 268.584 138.328 302.784 L 151.784 294.128 C 131.112 261.976 117.92 224.96 113.608 187.088 L 97.712 188.904 Z"/><path d=" M 248 92 C 231.184 92 214.976 87.056 201.12 77.704 L 192.168 90.968 C 208.68 102.112 227.984 108 248 108 C 268.016 108 287.32 102.112 303.84 90.96 L 294.888 77.696 C 281.032 87.056 264.816 92 248 92 Z"/><path d=" M 72 308 L 56 308 C 56 338.872 30.872 364 0 364 L 0 380 C 30.872 380 56 405.128 56 436 L 72 436 C 72 405.128 97.128 380 128 380 L 128 364 C 97.128 364 72 338.872 72 308 Z M 64 403.16 C 57.12 389.8 46.2 378.88 32.84 372 C 46.2 365.12 57.12 354.2 64 340.84 C 70.88 354.2 81.8 365.12 95.16 372 C 81.8 378.88 70.88 389.8 64 403.16 Z"/><path d=" M 440 100 L 424.68 100 C 409.528 62.312 372.44 36 330.416 36 C 310.576 36 291.92 41.368 276.464 51.512 C 259.352 62.776 236.656 62.776 219.536 51.512 C 204.088 41.368 185.432 36 165.584 36 C 109.568 36 64 81.568 64 137.584 L 64 158.68 C 64 216.04 80.4 271.848 111.416 320.096 C 128.104 346.056 140.36 374.4 147.848 404.336 L 156.552 439.168 C 159.608 451.44 170.576 460 183.216 460 C 196.936 460 208.376 450.152 210.4 436.584 L 228.344 316.92 C 229.824 307.12 238.088 300 248 300 C 257.912 300 266.176 307.12 267.648 316.92 L 285.592 436.584 C 287.624 450.152 299.064 460 312.784 460 C 325.424 460 336.392 451.44 339.448 439.168 L 348.16 404.336 C 355.648 374.392 367.912 346.048 384.6 320.096 C 402.832 291.728 416.168 260.048 423.968 227.168 C 423.96 227.448 424 227.72 424 228 L 440 228 C 440 197.128 465.128 172 496 172 L 496 156 C 465.128 156 440 130.872 440 100 Z M 371.136 311.44 C 353.496 338.88 340.552 368.832 332.64 400.464 L 323.92 435.296 C 322.648 440.424 318.064 444 312.784 444 C 307.048 444 302.272 439.88 301.424 434.208 L 283.48 314.544 C 280.824 296.84 265.896 284 248 284 C 230.104 284 215.176 296.84 212.52 314.544 L 194.576 434.208 C 193.736 439.88 188.952 444 183.216 444 C 177.936 444 173.352 440.424 172.064 435.296 L 163.352 400.464 C 155.448 368.824 142.496 338.872 124.856 311.44 C 95.512 265.784 80 212.96 80 158.68 L 80 137.584 C 80 90.392 118.392 52 165.584 52 C 182.296 52 197.912 56.456 210.744 64.888 C 221.952 72.256 234.496 76 248 76 C 261.504 76 274.048 72.256 285.248 64.888 C 298.088 56.456 313.704 52 330.416 52 C 372.624 52 409.04 83.448 415.04 124.512 L 415.376 129.72 C 405.456 145.472 387.952 156 368 156 L 368 172 C 386.784 172 403.4 181.328 413.56 195.56 C 408.16 236.584 393.504 276.64 371.136 311.44 Z M 432 195.16 C 425.12 181.8 414.2 170.88 400.84 164 C 414.2 157.12 425.12 146.2 432 132.84 C 438.88 146.2 449.8 157.12 463.16 164 C 449.8 170.88 438.88 181.8 432 195.16 Z"/><g></g><g></g><g></g><g></g><g></g><g></g><g></g><g></g><g></g><g></g><g></g><g></g><g></g><g></g><g></g></svg>