<svg version="1.1" width="640" height="640" viewBox="0 -19 480 479" xmlns="http://www.w3.org/2000/svg" xmlns:xlink="http://www.w3.org/1999/xlink" overflow="hidden"><g fill="#ECAF4A"><path d=" M 272 64.5 L 288 64.5 L 288 80.5 C 288 98.1719 273.672 112.5 256 112.5 L 240 112.5 L 240 96.5 C 240 78.8281 254.328 64.5 272 64.5 Z"/><path d=" M 240 96.5 L 224 96.5 C 206.328 96.5 192 82.1719 192 64.5 L 192 48.5 L 208 48.5 C 225.672 48.5 240 62.8281 240 80.5 Z"/><path d=" M 272 112.5 L 288 112.5 L 288 128.5 C 288 146.172 273.672 160.5 256 160.5 L 240 160.5 L 240 144.5 C 240 126.828 254.328 112.5 272 112.5 Z"/><path d=" M 240 144.5 L 224 144.5 C 206.328 144.5 192 130.172 192 112.5 L 192 96.5 L 208 96.5 C 225.672 96.5 240 110.828 240 128.5 Z"/><path d=" M 272 160.5 L 288 160.5 L 288 176.5 C 288 194.172 273.672 208.5 256 208.5 L 240 208.5 L 240 192.5 C 240 174.828 254.328 160.5 272 160.5 Z"/><path d=" M 240 192.5 L 224 192.5 C 206.328 192.5 192 178.172 192 160.5 L 192 144.5 L 208 144.5 C 225.672 144.5 240 158.828 240 176.5 Z"/><path d=" M 136 96.5 L 152 96.5 L 152 112.5 C 152 130.172 137.672 144.5 120 144.5 L 104 144.5 L 104 128.5 C 104 110.828 118.328 96.5 136 96.5 Z"/><path d=" M 104 128.5 L 88 128.5 C 70.3281 128.5 56 114.172 56 96.5 L 56 80.5 L 72 80.5 C 89.6719 80.5 104 94.8281 104 112.5 Z"/><path d=" M 136 144.5 L 152 144.5 L 152 160.5 C 152 178.172 137.672 192.5 120 192.5 L 104 192.5 L 104 176.5 C 104 158.828 118.328 144.5 136 144.5 Z"/><path d=" M 104 176.5 L 88 176.5 C 70.3281 176.5 56 162.172 56 144.5 L 56 128.5 L 72 128.5 C 89.6719 128.5 104 142.828 104 160.5 Z"/><path d=" M 136 192.5 L 152 192.5 L 152 208.5 C 152 226.172 137.672 240.5 120 240.5 L 104 240.5 L 104 224.5 C 104 206.828 118.328 192.5 136 192.5 Z"/><path d=" M 104 224.5 L 88 224.5 C 70.3281 224.5 56 210.172 56 192.5 L 56 176.5 L 72 176.5 C 89.6719 176.5 104 190.828 104 208.5 Z"/><path d=" M 136 240.5 L 152 240.5 L 152 256.5 C 152 274.172 137.672 288.5 120 288.5 L 104 288.5 L 104 272.5 C 104 254.828 118.328 240.5 136 240.5 Z"/><path d=" M 104 272.5 L 88 272.5 C 70.3281 272.5 56 258.172 56 240.5 L 56 224.5 L 72 224.5 C 89.6719 224.5 104 238.828 104 256.5 Z"/><path d=" M 408 96.5 L 424 96.5 L 424 112.5 C 424 130.172 409.672 144.5 392 144.5 L 376 144.5 L 376 128.5 C 376 110.828 390.328 96.5 408 96.5 Z"/><path d=" M 376 128.5 L 360 128.5 C 342.328 128.5 328 114.172 328 96.5 L 328 80.5 L 344 80.5 C 361.672 80.5 376 94.8281 376 112.5 Z"/><path d=" M 408 144.5 L 424 144.5 L 424 160.5 C 424 178.172 409.672 192.5 392 192.5 L 376 192.5 L 376 176.5 C 376 158.828 390.328 144.5 408 144.5 Z"/><path d=" M 376 176.5 L 360 176.5 C 342.328 176.5 328 162.172 328 144.5 L 328 128.5 L 344 128.5 C 361.672 128.5 376 142.828 376 160.5 Z"/><path d=" M 408 192.5 L 424 192.5 L 424 208.5 C 424 226.172 409.672 240.5 392 240.5 L 376 240.5 L 376 224.5 C 376 206.828 390.328 192.5 408 192.5 Z"/><path d=" M 376 224.5 L 360 224.5 C 342.328 224.5 328 210.172 328 192.5 L 328 176.5 L 344 176.5 C 361.672 176.5 376 190.828 376 208.5 Z"/><path d=" M 408 240.5 L 424 240.5 L 424 256.5 C 424 274.172 409.672 288.5 392 288.5 L 376 288.5 L 376 272.5 C 376 254.828 390.328 240.5 408 240.5 Z"/><path d=" M 376 272.5 L 360 272.5 C 342.328 272.5 328 258.172 328 240.5 L 328 224.5 L 344 224.5 C 361.672 224.5 376 238.828 376 256.5 Z"/><path d=" M 56 432.5 L 218.398 284.203 C 230.621 273.047 249.332 273.047 261.551 284.203 L 424 432.5 Z"/></g><path d=" M 0 424.5 L 16 424.5 L 16 440.5 L 0 440.5 Z"/><path d=" M 480 424.5 L 427.098 424.5 L 266.969 278.293 C 251.73 264.254 228.27 264.254 213.031 278.293 L 52.9023 424.5 L 32 424.5 L 32 440.5 L 480 440.5 Z M 223.816 290.102 C 232.961 281.672 247.039 281.672 256.184 290.102 L 403.375 424.5 L 76.625 424.5 Z"/><path d=" M 192 376.5 L 208 376.5 L 208 392.5 L 192 392.5 Z"/><path d=" M 128 392.5 L 144 392.5 L 144 408.5 L 128 408.5 Z"/><path d=" M 224 312.5 L 240 312.5 L 240 328.5 L 224 328.5 Z"/><path d=" M 248 360.5 L 264 360.5 L 264 376.5 L 248 376.5 Z"/><path d=" M 312 384.5 L 328 384.5 L 328 400.5 L 312 400.5 Z"/><path d=" M 224 200.5 L 232 200.5 L 232 248.5 L 248 248.5 L 248 216.5 L 256 216.5 C 278.082 216.473 295.973 198.582 296 176.5 L 296 160.5 C 296 156.082 292.418 152.5 288 152.5 L 287.793 152.5 C 293.086 145.617 295.969 137.184 296 128.5 L 296 112.5 C 296 108.082 292.418 104.5 288 104.5 L 287.793 104.5 C 293.086 97.6172 295.969 89.1836 296 80.5 L 296 64.5 C 296 60.082 292.418 56.5 288 56.5 L 280 56.5 L 280 16.5 L 264 16.5 L 264 57.3008 C 258.18 58.5352 252.711 61.0625 248 64.6992 L 248 0.5 L 232 0.5 L 232 48.707 C 227.289 45.0703 221.82 42.543 216 41.3086 L 216 16.5 L 200 16.5 L 200 40.5 L 192 40.5 C 187.582 40.5 184 44.082 184 48.5 L 184 64.5 C 184.031 73.1836 186.914 81.6172 192.207 88.5 L 192 88.5 C 187.582 88.5 184 92.082 184 96.5 L 184 112.5 C 184.031 121.184 186.914 129.617 192.207 136.5 L 192 136.5 C 187.582 136.5 184 140.082 184 144.5 L 184 160.5 C 184.027 182.582 201.918 200.473 224 200.5 Z M 200 160.5 L 200 152.5 L 208 152.5 C 221.254 152.5 232 163.246 232 176.5 L 232 184.5 L 224 184.5 C 210.746 184.5 200 173.754 200 160.5 Z M 248 152.5 L 248 144.5 C 248 131.246 258.746 120.5 272 120.5 L 280 120.5 L 280 128.5 C 280 141.754 269.254 152.5 256 152.5 Z M 200 104.5 L 208 104.5 C 221.254 104.5 232 115.246 232 128.5 L 232 136.5 L 224 136.5 C 210.746 136.5 200 125.754 200 112.5 Z M 280 176.5 C 280 189.754 269.254 200.5 256 200.5 L 248 200.5 L 248 192.5 C 248 179.246 258.746 168.5 272 168.5 L 280 168.5 Z M 272 72.5 L 280 72.5 L 280 80.5 C 280 93.7539 269.254 104.5 256 104.5 L 248 104.5 L 248 96.5 C 248 83.2461 258.746 72.5 272 72.5 Z M 200 56.5 L 208 56.5 C 221.254 56.5 232 67.2461 232 80.5 L 232 88.5 L 224 88.5 C 210.746 88.5 200 77.7539 200 64.5 Z"/><path d=" M 88 280.5 L 96 280.5 L 96 352.5 L 112 352.5 L 112 296.5 L 120 296.5 C 142.082 296.473 159.973 278.582 160 256.5 L 160 240.5 C 160 236.082 156.418 232.5 152 232.5 L 151.793 232.5 C 157.086 225.617 159.969 217.184 160 208.5 L 160 192.5 C 160 188.082 156.418 184.5 152 184.5 L 151.793 184.5 C 157.086 177.617 159.969 169.184 160 160.5 L 160 144.5 C 160 140.082 156.418 136.5 152 136.5 L 151.793 136.5 C 157.086 129.617 159.969 121.184 160 112.5 L 160 96.5 C 160 92.082 156.418 88.5 152 88.5 L 144 88.5 L 144 48.5 L 128 48.5 L 128 89.3008 C 122.18 90.5352 116.711 93.0625 112 96.6992 L 112 32.5 L 96 32.5 L 96 80.707 C 91.2891 77.0703 85.8203 74.543 80 73.3086 L 80 48.5 L 64 48.5 L 64 72.5 L 56 72.5 C 51.582 72.5 48 76.082 48 80.5 L 48 96.5 C 48.0313 105.184 50.9141 113.617 56.207 120.5 L 56 120.5 C 51.582 120.5 48 124.082 48 128.5 L 48 144.5 C 48.0313 153.184 50.9141 161.617 56.207 168.5 L 56 168.5 C 51.582 168.5 48 172.082 48 176.5 L 48 192.5 C 48.0313 201.184 50.9141 209.617 56.207 216.5 L 56 216.5 C 51.582 216.5 48 220.082 48 224.5 L 48 240.5 C 48.0273 262.582 65.918 280.473 88 280.5 Z M 64 240.5 L 64 232.5 L 72 232.5 C 85.2539 232.5 96 243.246 96 256.5 L 96 264.5 L 88 264.5 C 74.7461 264.5 64 253.754 64 240.5 Z M 112 232.5 L 112 224.5 C 112 211.246 122.746 200.5 136 200.5 L 144 200.5 L 144 208.5 C 144 221.754 133.254 232.5 120 232.5 Z M 112 184.5 L 112 176.5 C 112 163.246 122.746 152.5 136 152.5 L 144 152.5 L 144 160.5 C 144 173.754 133.254 184.5 120 184.5 Z M 64 136.5 L 72 136.5 C 85.2539 136.5 96 147.246 96 160.5 L 96 168.5 L 88 168.5 C 74.7461 168.5 64 157.754 64 144.5 Z M 64 184.5 L 72 184.5 C 85.2539 184.5 96 195.246 96 208.5 L 96 216.5 L 88 216.5 C 74.7461 216.5 64 205.754 64 192.5 Z M 144 256.5 C 144 269.754 133.254 280.5 120 280.5 L 112 280.5 L 112 272.5 C 112 259.246 122.746 248.5 136 248.5 L 144 248.5 Z M 136 104.5 L 144 104.5 L 144 112.5 C 144 125.754 133.254 136.5 120 136.5 L 112 136.5 L 112 128.5 C 112 115.246 122.746 104.5 136 104.5 Z M 64 88.5 L 72 88.5 C 85.2539 88.5 96 99.2461 96 112.5 L 96 120.5 L 88 120.5 C 74.7461 120.5 64 109.754 64 96.5 Z"/><path d=" M 360 280.5 L 368 280.5 L 368 352.5 L 384 352.5 L 384 296.5 L 392 296.5 C 414.082 296.473 431.973 278.582 432 256.5 L 432 240.5 C 432 236.082 428.418 232.5 424 232.5 L 423.793 232.5 C 429.086 225.617 431.969 217.184 432 208.5 L 432 192.5 C 432 188.082 428.418 184.5 424 184.5 L 423.793 184.5 C 429.086 177.617 431.969 169.184 432 160.5 L 432 144.5 C 432 140.082 428.418 136.5 424 136.5 L 423.793 136.5 C 429.086 129.617 431.969 121.184 432 112.5 L 432 96.5 C 432 92.082 428.418 88.5 424 88.5 L 416 88.5 L 416 48.5 L 400 48.5 L 400 89.3008 C 394.18 90.5352 388.711 93.0625 384 96.6992 L 384 32.5 L 368 32.5 L 368 80.707 C 363.289 77.0703 357.82 74.543 352 73.3086 L 352 48.5 L 336 48.5 L 336 72.5 L 328 72.5 C 323.582 72.5 320 76.082 320 80.5 L 320 96.5 C 320.031 105.184 322.914 113.617 328.207 120.5 L 328 120.5 C 323.582 120.5 320 124.082 320 128.5 L 320 144.5 C 320.031 153.184 322.914 161.617 328.207 168.5 L 328 168.5 C 323.582 168.5 320 172.082 320 176.5 L 320 192.5 C 320.031 201.184 322.914 209.617 328.207 216.5 L 328 216.5 C 323.582 216.5 320 220.082 320 224.5 L 320 240.5 C 320.027 262.582 337.918 280.473 360 280.5 Z M 336 240.5 L 336 232.5 L 344 232.5 C 357.254 232.5 368 243.246 368 256.5 L 368 264.5 L 360 264.5 C 346.746 264.5 336 253.754 336 240.5 Z M 384 232.5 L 384 224.5 C 384 211.246 394.746 200.5 408 200.5 L 416 200.5 L 416 208.5 C 416 221.754 405.254 232.5 392 232.5 Z M 384 184.5 L 384 176.5 C 384 163.246 394.746 152.5 408 152.5 L 416 152.5 L 416 160.5 C 416 173.754 405.254 184.5 392 184.5 Z M 336 136.5 L 344 136.5 C 357.254 136.5 368 147.246 368 160.5 L 368 168.5 L 360 168.5 C 346.746 168.5 336 157.754 336 144.5 Z M 336 184.5 L 344 184.5 C 357.254 184.5 368 195.246 368 208.5 L 368 216.5 L 360 216.5 C 346.746 216.5 336 205.754 336 192.5 Z M 416 256.5 C 416 269.754 405.254 280.5 392 280.5 L 384 280.5 L 384 272.5 C 384 259.246 394.746 248.5 408 248.5 L 416 248.5 Z M 408 104.5 L 416 104.5 L 416 112.5 C 416 125.754 405.254 136.5 392 136.5 L 384 136.5 L 384 128.5 C 384 115.246 394.746 104.5 408 104.5 Z M 336 88.5 L 344 88.5 C 357.254 88.5 368 99.2461 368 112.5 L 368 120.5 L 360 120.5 C 346.746 120.5 336 109.754 336 96.5 Z"/></svg>