<svg version="1.1" width="624" height="624" viewBox="0 -70 468.953 468" xmlns="http://www.w3.org/2000/svg" xmlns:xlink="http://www.w3.org/1999/xlink" overflow="hidden"><path d=" M 460.898 195.207 C 460.922 244.086 432.496 288.504 388.102 308.957 C 343.707 329.41 291.473 322.152 254.336 290.371 C 276.328 274.359 293.711 252.836 304.738 227.969 C 322.102 189.246 322.848 145.098 306.801 105.813 C 306.129 104.082 305.41 102.398 304.641 100.719 C 301.066 92.7383 296.82 85.0703 291.957 77.8008 C 330.41 63.5352 373.41 68.9805 407.09 92.3867 C 440.77 115.793 460.867 154.191 460.906 195.207 Z" fill="#F9DB5F"/><path d=" M 335.617 69.9688 C 331.254 69.9805 326.895 70.2148 322.559 70.6758 C 386.258 77.418 434.602 131.148 434.602 195.207 C 434.602 259.266 386.258 312.996 322.559 319.738 C 368.613 324.586 413.586 303.621 439.484 265.227 C 465.379 226.832 467.977 177.281 446.227 136.395 C 424.48 95.5078 381.945 69.957 335.633 69.9688 Z" fill="#F9EF8B"/><path d=" M 337.25 100.715 C 332.543 90.1914 326.691 80.2188 319.793 70.9844 C 310.273 72.1758 300.926 74.457 291.93 77.7813 C 296.793 85.0508 301.035 92.7148 304.609 100.699 C 305.375 102.379 306.098 104.063 306.77 105.789 C 328.02 158.277 319.215 218.152 283.758 262.297 C 275.234 272.922 265.332 282.355 254.309 290.352 C 259.051 294.414 264.086 298.113 269.379 301.422 C 340.973 262.531 370.547 175.074 337.25 100.715 Z" fill="#F9B347"/><path d=" M 336.289 123.68 C 336.297 134.5 327.742 143.395 316.93 143.809 C 315.18 130.762 311.773 117.988 306.793 105.809 C 309.66 104.281 312.863 103.488 316.113 103.504 C 327.258 103.5 336.289 112.535 336.289 123.68 Z" fill="#9F371F"/><path d=" M 317.215 246.039 C 317.215 259.262 306.5 269.98 293.277 269.98 C 289.27 269.977 285.328 268.957 281.82 267.016 C 291.855 254.578 300.211 240.875 306.672 226.258 C 313.27 230.68 317.227 238.098 317.215 246.039 Z" fill="#9F371F"/><path d=" M 423.68 224.5 C 423.68 235.633 414.656 244.66 403.52 244.66 C 392.387 244.66 383.359 235.633 383.359 224.5 C 383.359 213.363 392.387 204.34 403.52 204.34 C 414.656 204.34 423.68 213.363 423.68 224.5 Z" fill="#AD4F3D"/><path d=" M 226.047 306.797 C 181.434 326.75 130.047 324.641 87.2148 301.098 C 44.3867 277.559 15.0664 235.305 8 186.941 C 31.2734 186.5 52.1563 172.539 61.4648 151.203 C 64.7695 143.68 66.4688 135.547 66.4492 127.332 C 66.4492 126.371 66.4023 125.457 66.3516 124.496 C 68.5 122.211 71.0586 120.355 73.8945 119.02 C 77.3984 118.5 80.8555 117.68 84.2188 116.57 C 104.84 110.078 121.445 94.6445 129.426 74.5547 C 137.41 54.4648 135.926 31.8477 125.391 12.9688 C 203.715 -6.07813 283.648 37.7031 309.773 113.961 C 335.898 190.219 299.602 273.816 226.047 306.797 Z" fill="#F9DB5F"/><path d=" M 304.633 100.715 C 277.297 39.668 214.07 2.86328 147.488 9.23438 C 227.52 16.832 288.656 84.0273 288.688 164.418 C 288.719 244.805 227.633 312.047 147.609 319.707 C 202.852 324.949 256.719 300.434 289.055 255.336 C 321.391 210.238 327.324 151.355 304.633 100.715 Z" fill="#F9EF8B"/><path d=" M 56.6055 228.207 C 50.707 215.078 46.668 201.188 44.6055 186.941 C 77.0625 186.297 103.047 159.809 103.066 127.344 C 103.066 126.383 103.016 125.469 102.969 124.508 C 105.117 122.227 107.676 120.367 110.508 119.031 C 114.016 118.512 117.469 117.691 120.836 116.582 C 141.457 110.09 158.059 94.6563 166.043 74.5664 C 174.027 54.4766 172.543 31.8594 162.004 12.9844 C 168.129 11.4883 174.344 10.375 180.605 9.64063 C 162.152 7.43359 143.457 8.56641 125.406 12.9844 C 135.949 31.8594 137.438 54.4766 129.453 74.5703 C 121.469 94.6641 104.863 110.094 84.2383 116.582 C 80.8711 117.691 77.4141 118.512 73.9102 119.031 C 71.0742 120.359 68.5156 122.207 66.3633 124.48 C 66.4141 125.438 66.4609 126.352 66.4609 127.316 C 66.4766 135.535 64.7734 143.668 61.4648 151.191 C 52.1602 172.531 31.2773 186.496 8 186.941 C 20.2344 270.594 96.8477 329.297 180.801 319.344 C 126.234 312.973 79.0508 278.348 56.6055 228.207 Z" fill="#F9B347"/><path d=" M 256.586 95.6484 C 262.25 108.301 256.586 123.148 243.938 128.813 C 231.289 134.477 216.441 128.813 210.777 116.164 C 205.113 103.516 210.773 88.668 223.422 83.0039 C 236.074 77.3398 250.922 83 256.586 95.6484 Z" fill="#AD4F3D"/><path d=" M 94.9023 164.605 C 88.8242 167.328 81.918 167.52 75.6992 165.141 C 69.4805 162.762 64.4648 158.008 61.7578 151.926 L 61.4688 151.207 C 64.7734 143.68 66.4688 135.551 66.4492 127.332 C 66.4492 126.371 66.4023 125.457 66.3516 124.496 C 68.5 122.211 71.0586 120.355 73.8945 119.02 C 77.3984 118.5 80.8555 117.68 84.2188 116.57 C 96.1484 116.371 106.57 124.59 109.156 136.238 C 111.742 147.883 105.777 159.738 94.8828 164.605 Z" fill="#AD4F3D"/><path d=" M 61.7539 151.926 C 66.3359 162.195 77.1992 168.16 88.3242 166.512 C 97.8281 155.672 103.066 141.746 103.059 127.332 C 103.059 126.383 103.008 125.484 102.961 124.531 C 98.1133 119.359 91.3164 116.469 84.2344 116.566 C 80.8672 117.676 77.4102 118.496 73.9063 119.016 C 71.0703 120.348 68.5117 122.199 66.3633 124.48 C 66.4141 125.438 66.4609 126.352 66.4609 127.316 C 66.4766 135.535 64.7734 143.668 61.4648 151.191 Z" fill="#9F371F"/><path d=" M 186.488 246.258 C 192.152 258.906 186.488 273.754 173.84 279.418 C 161.191 285.082 146.344 279.422 140.68 266.773 C 135.012 254.121 140.676 239.277 153.324 233.609 C 165.977 227.945 180.82 233.609 186.488 246.258 Z" fill="#AD4F3D"/><g fill="#16131B"><path d=" M 433.164 104.418 C 429.047 99.9922 424.637 95.8516 419.965 92.0195 C 416.539 89.2227 411.496 89.7305 408.699 93.1563 C 405.902 96.5781 406.414 101.621 409.836 104.418 C 413.957 107.785 417.84 111.43 421.469 115.324 C 424.48 118.555 429.543 118.734 432.777 115.723 C 436.008 112.711 436.188 107.648 433.176 104.414 Z"/><path d=" M 403.52 252.656 C 419.07 252.656 431.68 240.055 431.684 224.504 C 431.688 208.953 419.086 196.34 403.535 196.336 C 387.984 196.328 375.375 208.93 375.363 224.48 C 375.371 240.031 387.969 252.637 403.52 252.656 Z M 403.52 212.34 C 410.238 212.34 415.68 217.781 415.68 224.5 C 415.68 231.215 410.238 236.66 403.52 236.66 C 396.805 236.66 391.359 231.215 391.359 224.5 C 391.367 217.785 396.809 212.344 403.52 212.34 Z"/><path d=" M 389.02 159.648 L 404.152 144.516 C 407.184 141.375 407.141 136.387 404.055 133.301 C 400.969 130.215 395.98 130.172 392.84 133.203 L 377.707 148.336 C 375.629 150.344 374.797 153.316 375.527 156.113 C 376.258 158.91 378.445 161.098 381.242 161.828 C 384.039 162.559 387.012 161.727 389.02 159.648 Z"/><path d=" M 349.402 237.012 C 345.176 238.309 342.805 242.785 344.105 247.012 L 350.395 267.461 C 351.691 271.688 356.168 274.059 360.395 272.758 C 364.617 271.461 366.988 266.984 365.688 262.758 L 359.402 242.309 C 358.102 238.082 353.625 235.711 349.402 237.012 Z"/><path d=" M 42.875 251.797 C 41.125 249.398 39.4219 246.906 37.8086 244.391 C 36.2813 241.953 33.5625 240.523 30.6875 240.645 C 27.8164 240.766 25.2266 242.422 23.9141 244.98 C 22.5977 247.539 22.7578 250.605 24.332 253.016 C 26.1172 255.816 28.0039 258.566 29.9336 261.23 C 31.6094 263.559 34.4063 264.805 37.2578 264.504 C 40.1133 264.203 42.5859 262.398 43.7422 259.773 C 44.8984 257.148 44.5586 254.105 42.8555 251.797 Z"/><path d=" M 12.707 231.484 C 13.8438 234.141 16.3281 235.98 19.2031 236.293 C 22.0781 236.602 24.8984 235.34 26.5781 232.984 C 28.2578 230.629 28.5352 227.551 27.3047 224.934 C 22.875 215.063 19.543 204.734 17.3672 194.133 C 35.5195 191.246 51.7188 181.109 62.2578 166.051 C 71.1836 174.285 83.9023 176.965 95.3945 173.031 C 106.883 169.098 115.293 159.184 117.301 147.207 C 119.309 135.23 114.594 123.117 105.016 115.652 C 117.672 107.711 127.867 96.3984 134.449 82.9883 L 147.273 88.793 C 149.883 90.0117 152.945 89.7305 155.293 88.0625 C 157.637 86.3945 158.906 83.5898 158.613 80.7266 C 158.316 77.8633 156.504 75.375 153.867 74.2188 L 139.984 67.9336 C 144.199 51.6133 143.137 34.3711 136.949 18.6914 C 194.516 8.60938 252.617 33.418 285.148 81.9688 C 285.203 82.0625 285.238 82.168 285.297 82.2578 C 289.91 89.1641 293.938 96.4453 297.336 104.023 C 298.137 105.84 298.891 107.668 299.625 109.496 C 300.508 111.684 301.32 113.895 302.102 116.141 C 302.305 116.727 302.535 117.309 302.734 117.898 C 303.594 120.469 304.363 123.07 305.082 125.691 C 305.402 126.863 305.668 128.043 305.961 129.223 C 306.332 130.73 306.691 132.238 307.016 133.758 C 307.316 135.164 307.59 136.57 307.844 137.984 C 308.074 139.227 308.273 140.477 308.469 141.723 C 308.707 143.281 308.957 144.84 309.145 146.398 C 309.344 148.027 309.48 149.66 309.629 151.285 C 309.863 153.938 310.027 156.586 310.121 159.23 C 310.156 160.234 310.191 161.23 310.207 162.238 C 310.238 164.164 310.234 166.086 310.184 168.008 C 310.184 168.586 310.137 169.168 310.113 169.746 C 309.871 176.344 309.191 182.918 308.074 189.422 C 308.02 189.727 307.965 190.027 307.91 190.332 C 306.73 196.902 305.109 203.387 303.063 209.742 C 302.91 210.219 302.754 210.691 302.594 211.168 C 300.465 217.559 297.906 223.805 294.934 229.852 L 294.707 230.313 C 290.605 238.574 285.738 246.441 280.176 253.801 C 279.941 254.113 279.707 254.426 279.473 254.734 C 278.258 256.32 277.008 257.879 275.719 259.414 C 275.23 260.004 274.727 260.578 274.227 261.16 C 271.516 264.301 268.684 267.359 265.699 270.281 C 265.617 270.363 265.539 270.449 265.457 270.531 C 264.32 271.641 263.133 272.707 261.953 273.777 C 260.93 274.711 259.906 275.641 258.852 276.539 C 257.883 277.375 256.906 278.195 255.914 279.008 C 254.023 280.543 252.113 282.047 250.152 283.484 C 190.5 327.57 107.418 320.641 55.8945 267.277 C 53.9063 265.219 50.9727 264.375 48.1992 265.066 C 45.4219 265.758 43.2266 267.879 42.4414 270.629 C 41.6523 273.379 42.3945 276.34 44.3828 278.395 C 99.6133 335.672 188.023 344.953 253.941 300.395 C 304.961 340.105 377.133 337.441 425.09 294.078 C 473.047 250.715 482.938 179.176 448.543 124.426 C 446.191 120.684 441.254 119.559 437.512 121.91 C 433.773 124.262 432.645 129.203 434.996 132.941 C 464.82 180.406 456.859 242.348 415.996 280.723 C 375.137 319.102 312.82 323.172 267.316 290.434 C 268.18 289.715 269.008 288.949 269.859 288.215 C 270.344 287.793 270.828 287.379 271.305 286.949 C 272.996 285.449 274.656 283.91 276.285 282.332 L 276.879 281.754 C 278.68 279.996 280.438 278.199 282.152 276.355 L 282.285 276.215 L 282.449 276.023 C 285.914 277.309 289.582 277.973 293.277 277.98 C 306.316 278.016 318.059 270.102 322.922 258 C 327.781 245.902 324.781 232.063 315.344 223.066 C 316.219 220.785 317.016 218.488 317.789 216.18 C 317.957 215.676 318.121 215.176 318.281 214.672 C 320.547 207.656 322.34 200.496 323.641 193.242 C 323.711 192.844 323.789 192.441 323.855 192.043 C 324.258 189.707 324.625 187.371 324.926 185.023 C 325.582 185.898 326.41 186.629 327.359 187.168 L 345.969 197.734 C 349.813 199.918 354.695 198.57 356.879 194.73 C 359.063 190.887 357.715 186 353.871 183.82 L 335.25 173.25 C 332.234 171.559 328.473 171.992 325.926 174.328 C 325.996 173.125 326.023 171.926 326.07 170.727 C 326.102 169.902 326.148 169.078 326.168 168.25 C 326.215 166.227 326.227 164.203 326.191 162.176 C 326.191 160.883 326.129 159.586 326.082 158.289 C 325.992 155.93 325.867 153.57 325.68 151.211 C 325.652 150.879 325.617 150.543 325.586 150.211 C 339.48 145.387 347.313 130.672 343.555 116.449 C 339.793 102.23 325.715 93.3047 311.25 95.9805 C 310.313 93.9375 309.344 91.918 308.336 89.9336 C 308.176 89.6211 308.004 89.3203 307.844 89.0078 C 306.73 86.8516 305.574 84.7305 304.375 82.6445 C 304.305 82.5156 304.238 82.3789 304.164 82.2422 C 334.602 73.8008 367.156 77.957 394.496 93.7734 C 398.313 95.9336 403.152 94.6211 405.352 90.832 C 407.555 87.043 406.301 82.1875 402.535 79.9414 C 369.969 61.0781 330.949 56.8359 295.09 68.2617 C 256.066 14.2695 188.203 -10.6797 123.5 5.18359 C 121.074 5.77734 119.063 7.47266 118.066 9.76563 C 117.07 12.0547 117.203 14.6836 118.426 16.8633 C 127.809 33.6523 129.125 53.7813 122.008 71.6523 C 114.891 89.5195 100.098 103.23 81.7383 108.969 C 78.8008 109.941 75.7891 110.656 72.7344 111.109 C 71.9492 111.227 71.1914 111.457 70.4766 111.797 C 66.7344 113.563 63.3555 116.016 60.5234 119.035 C 59.043 120.629 58.2695 122.758 58.3789 124.93 C 58.4219 125.73 58.4648 126.531 58.4648 127.332 C 58.4844 134.449 57.0078 141.492 54.1367 148.004 C 46.0625 166.461 27.9961 178.539 7.85547 178.945 C 5.5625 178.988 3.39844 180.012 1.91016 181.758 C 0.421875 183.504 -0.246094 185.809 0.0820312 188.078 C 2.25781 203.063 6.50781 217.672 12.707 231.484 Z M 295.766 261.785 C 300.418 255.145 304.641 248.215 308.41 241.035 C 309.879 245.477 309.324 250.34 306.891 254.336 C 304.453 258.332 300.387 261.059 295.766 261.785 Z M 328.289 123.68 C 328.305 127.555 326.469 131.203 323.344 133.5 C 323.313 133.34 323.266 133.184 323.238 133.02 C 323.074 132.188 322.871 131.367 322.695 130.539 C 322.32 128.77 321.898 127.008 321.465 125.242 C 321.156 124 320.871 122.75 320.535 121.516 C 319.754 118.633 318.891 115.762 317.945 112.898 C 317.844 112.594 317.738 112.289 317.633 111.988 C 317.59 111.852 317.559 111.715 317.508 111.586 C 323.648 112.305 328.277 117.5 328.289 123.68 Z M 76.4063 126.723 C 78.0469 126.445 79.6602 126.105 81.2695 125.719 C 81.8477 125.578 82.4219 125.402 82.9922 125.246 C 83.793 125.027 84.6172 124.848 85.4258 124.582 C 93.3555 124.93 100.004 130.684 101.484 138.484 C 102.965 146.281 98.8867 154.074 91.6367 157.301 C 83.9023 160.75 74.8086 158.031 70.2383 150.902 C 70.4414 150.363 70.582 149.809 70.7695 149.262 C 71.0352 148.477 71.293 147.688 71.5391 146.895 C 71.9414 145.617 72.2695 144.332 72.5781 143.035 C 72.7656 142.234 72.9766 141.48 73.1172 140.691 C 73.4023 139.277 73.6133 137.852 73.8086 136.414 C 73.9023 135.734 74.0195 135.063 74.0938 134.379 C 74.3125 132.258 74.4531 130.121 74.4727 127.98 C 75.0898 127.52 75.7344 127.098 76.4063 126.723 Z"/><path d=" M 226.691 90.3008 C 229.348 89.1641 231.184 86.6836 231.496 83.8125 C 231.809 80.9375 230.543 78.1211 228.195 76.4414 C 225.844 74.7617 222.77 74.4805 220.152 75.7031 C 206.234 81.9414 198.379 96.8828 201.137 111.887 C 203.895 126.887 216.551 138.063 231.777 138.938 C 247.008 139.816 260.863 130.172 265.328 115.586 C 269.789 101.004 263.707 85.2539 250.598 77.457 C 248.133 75.8672 244.996 75.7539 242.426 77.1563 C 239.852 78.5625 238.25 81.2617 238.258 84.1914 C 238.262 87.125 239.871 89.8203 242.449 91.2148 C 249.219 95.2461 252.359 103.383 250.051 110.918 C 247.742 118.453 240.578 123.434 232.711 122.98 C 224.844 122.523 218.305 116.75 216.883 108.996 C 215.457 101.246 219.516 93.5234 226.707 90.3008 Z"/><path d=" M 156.598 240.91 C 160.551 239.059 162.293 234.379 160.508 230.395 C 158.723 226.406 154.07 224.59 150.059 226.313 C 133.375 233.781 125.91 253.363 133.383 270.043 C 140.852 286.723 160.43 294.191 177.113 286.723 C 193.793 279.25 201.262 259.672 193.793 242.992 C 191.941 239.035 187.262 237.293 183.277 239.078 C 179.289 240.863 177.473 245.516 179.191 249.531 C 183.055 258.148 179.195 268.27 170.578 272.129 C 161.957 275.988 151.84 272.129 147.98 263.512 C 144.121 254.891 147.98 244.773 156.602 240.914 Z"/><path d=" M 261.188 199.746 L 236.297 190.254 C 233.613 189.184 230.563 189.637 228.313 191.449 C 226.059 193.262 224.961 196.145 225.434 198.992 C 225.906 201.844 227.883 204.219 230.598 205.203 L 255.488 214.695 C 259.594 216.184 264.137 214.105 265.691 210.023 C 267.25 205.945 265.242 201.367 261.188 199.746 Z"/><path d=" M 99.5664 231.52 L 119.605 213.965 C 122.93 211.055 123.262 206 120.352 202.676 C 117.438 199.352 112.383 199.02 109.063 201.93 L 89.0195 219.484 C 85.6953 222.395 85.3633 227.449 88.2734 230.773 C 91.1875 234.098 96.2422 234.43 99.5664 231.52 Z"/><path d=" M 174.637 186.441 C 178.758 186.438 182.199 183.305 182.59 179.203 L 185.125 152.684 C 185.453 148.34 182.246 144.531 177.91 144.117 C 173.574 143.703 169.703 146.832 169.199 151.16 L 166.664 177.68 C 166.246 182.074 169.469 185.98 173.863 186.402 C 174.125 186.43 174.379 186.441 174.637 186.441 Z"/></g></svg>