<svg version="1.1" viewBox="0 0 512.001 512.001" xmlns="http://www.w3.org/2000/svg" xmlns:xlink="http://www.w3.org/1999/xlink" id="Layer_1" overflow="hidden"><path d=" M 213.718 322.15 L 205.882 501.36 C 205.882 502.784 204.729 503.935 203.307 503.935 L 180.062 503.935 C 178.639 503.935 177.487 502.783 177.487 501.36 L 169.649 322.15 L 213.718 322.15 Z" fill="#ED9900"/><path d=" M 177.009 490.462 L 177.485 501.359 C 177.485 502.783 178.638 503.934 180.06 503.934 L 203.305 503.934 C 204.728 503.934 205.88 502.782 205.88 501.359 L 206.356 490.462 L 177.009 490.462 Z" fill="#333E48"/><path d=" M 353.449 322.15 L 345.612 501.36 C 345.612 502.784 344.46 503.935 343.038 503.935 L 319.792 503.935 C 318.369 503.935 317.217 502.783 317.217 501.36 L 309.38 322.15 L 353.449 322.15 Z" fill="#ED9900"/><path d=" M 316.74 490.462 L 317.216 501.359 C 317.216 502.783 318.369 503.934 319.791 503.934 L 343.037 503.934 C 344.46 503.934 345.611 502.782 345.611 501.359 L 346.088 490.462 L 316.74 490.462 Z" fill="#333E48"/><g><path d=" M 389.421 44.007 C 375.642 44.007 363.177 38.386 354.193 29.31 L 354.188 29.31 C 349.631 23.861 342.785 20.392 335.127 20.392 C 334.954 20.392 334.785 20.415 334.613 20.418 L 334.613 20.392 L 312.994 20.392 C 299.794 20.392 289.028 30.691 288.223 43.688 L 288.194 43.691 L 271.095 257.89 L 190.634 257.89 C 155.145 257.89 126.375 286.66 126.375 322.148 C 126.375 357.637 155.144 386.406 190.634 386.406 L 295.717 386.406 C 331.205 386.406 359.976 357.637 359.976 322.148 L 359.976 257.89 L 348.785 81.395 L 389.422 81.395 C 399.745 81.395 408.115 73.026 408.115 62.7 C 408.114 52.376 399.743 44.007 389.421 44.007 Z" fill="#FFB648"/><path d=" M 170.445 322.15 L 162.608 501.36 C 162.608 502.784 161.455 503.935 160.033 503.935 L 136.788 503.935 C 135.365 503.935 134.213 502.783 134.213 501.36 L 126.375 322.15 L 170.445 322.15 Z" fill="#FFB648"/></g><path d=" M 133.735 490.462 L 134.211 501.359 C 134.211 502.783 135.364 503.934 136.786 503.934 L 160.031 503.934 C 161.454 503.934 162.606 502.782 162.606 501.359 L 163.082 490.462 L 133.735 490.462 Z" fill="#333E48"/><path d=" M 310.177 322.15 L 302.341 501.36 C 302.341 502.784 301.188 503.935 299.766 503.935 L 276.52 503.935 C 275.096 503.935 273.944 502.783 273.944 501.36 L 266.109 322.15 L 310.177 322.15 Z" fill="#FFB648"/><path d=" M 273.468 490.462 L 273.943 501.359 C 273.943 502.783 275.096 503.934 276.519 503.934 L 299.764 503.934 C 301.187 503.934 302.339 502.782 302.339 501.359 L 302.816 490.462 L 273.468 490.462 Z" fill="#333E48"/><g><path d=" M 224.542 257.892 L 190.634 257.892 C 190.362 257.892 190.093 257.909 189.821 257.912 C 185.233 262.414 182.38 268.678 182.38 275.616 C 182.38 289.319 193.49 300.429 207.195 300.429 C 220.9 300.429 232.008 289.319 232.008 275.616 C 232.007 268.668 229.144 262.396 224.542 257.892 Z" fill="#65513C"/><path d=" M 279.58 168.982 C 279.109 168.982 278.652 169.03 278.187 169.052 L 273.305 230.196 C 275.331 230.613 277.429 230.835 279.58 230.835 C 296.662 230.835 310.507 216.989 310.507 199.908 C 310.507 182.829 296.661 168.982 279.58 168.982 Z" fill="#65513C"/><circle cx="288.145" cy="306.544" r="30.926" fill="#65513C"/><path d=" M 351.331 121.536 C 335.952 123.324 324.011 136.379 324.011 152.234 C 324.011 169.315 337.857 183.16 354.936 183.16 C 355.038 183.16 355.135 183.147 355.236 183.145 L 351.331 121.536 Z" fill="#65513C"/><circle cx="331.265" cy="248.777" r="16.867" fill="#65513C"/><path d=" M 338.803 300.429 C 338.803 312.123 348.281 321.602 359.976 321.602 L 359.976 279.257 C 348.281 279.257 338.803 288.736 338.803 300.429 Z" fill="#65513C"/><circle cx="304.027" cy="114.856" r="14.065" fill="#65513C"/><circle cx="229.109" cy="340.685" r="14.055" fill="#65513C"/><circle cx="168.321" cy="312.565" r="14.065" fill="#65513C"/></g><path d=" M 391.967 44.2 C 385.361 53.465 381.461 64.795 381.461 77.04 C 381.461 78.508 381.533 79.956 381.643 81.394 L 389.421 81.394 C 399.744 81.394 408.115 73.025 408.115 62.699 C 408.114 53.243 401.082 45.445 391.967 44.2 Z" fill="#ED9900"/><path d=" M 283.624 41.288 C 276.919 34.583 275.268 26.499 279.701 22.065 C 284.132 17.632 292.217 19.285 298.922 25.991 C 305.628 32.696 307.278 40.779 302.846 45.212 C 298.414 49.645 290.331 47.993 283.624 41.288 Z" fill="#FFB648"/><ellipse cx="291.278" cy="33.637" rx="5.549" ry="11.098" fill="#ED9900" transform="matrix(0.7071,-0.7071,0.7071,0.7071,61.5288,215.817)"/><path d=" M 389.421 35.942 C 378.335 35.942 367.932 31.635 360.096 23.809 C 354.46 17.244 346.552 13.214 338.018 12.465 L 338.018 8.065 C 338.018 3.611 334.407 1.77636e-15 329.953 1.77636e-15 C 325.499 1.77636e-15 321.888 3.611 321.888 8.065 L 321.888 12.328 L 318.571 12.328 L 318.571 8.065 C 318.571 3.611 314.96 0 310.506 0 C 306.052 0 302.441 3.611 302.441 8.065 L 302.441 14.059 C 301.186 14.484 299.956 14.978 298.759 15.556 C 294.622 12.932 290.226 11.528 285.984 11.528 C 281.372 11.528 277.115 13.245 273.997 16.364 C 269.936 20.426 268.327 26.285 269.583 32.439 C 270.626 37.548 273.509 42.58 277.922 46.995 C 278.504 47.576 279.098 48.132 279.705 48.662 L 263.647 249.828 L 190.633 249.828 C 170.984 249.828 153.15 257.714 140.102 270.476 C 114.669 275.139 95.82 297.525 95.82 323.668 L 95.82 336.22 C 95.82 340.674 99.431 344.285 103.885 344.285 C 108.339 344.285 111.95 340.674 111.95 336.22 L 111.95 323.668 C 111.95 313.456 116.05 304.064 122.757 297.174 C 119.883 304.963 118.308 313.376 118.308 322.151 C 118.308 323.915 118.386 325.778 118.55 327.842 L 126.148 501.597 C 126.273 507.355 130.997 512.002 136.786 512.002 L 160.031 512.002 C 165.819 512.002 170.543 507.355 170.669 501.596 L 172.733 454.393 L 174.798 501.596 C 174.923 507.355 179.647 512.002 185.436 512.002 L 208.681 512.002 C 214.469 512.002 219.193 507.355 219.319 501.596 L 224.003 394.475 L 261.194 394.475 L 265.877 501.597 C 266.002 507.356 270.727 512.003 276.516 512.003 L 299.761 512.003 C 305.549 512.003 310.274 507.356 310.399 501.597 L 312.464 454.394 L 314.528 501.596 C 314.652 507.355 319.377 512.003 325.166 512.003 L 348.412 512.003 C 354.2 512.003 358.923 507.356 359.049 501.597 L 366.185 338.397 C 367.39 333.158 368.038 327.721 368.038 322.153 L 368.038 257.895 C 368.038 257.725 368.033 257.555 368.022 257.384 L 357.378 89.461 L 389.422 89.461 C 404.177 89.461 416.18 77.457 416.18 62.701 C 416.179 47.946 404.175 35.942 389.421 35.942 Z M 203.425 495.87 L 190.694 495.87 L 186.253 394.329 C 187.709 394.416 189.167 394.472 190.634 394.472 L 207.86 394.472 L 203.425 495.87 Z M 343.157 495.87 L 330.425 495.87 L 325.706 387.964 C 334.443 383.991 342.191 378.353 348.595 371.484 L 343.157 495.87 Z M 389.421 73.33 L 348.784 73.33 C 346.557 73.33 344.428 74.252 342.903 75.875 C 341.378 77.5 340.593 79.682 340.735 81.904 L 351.911 258.147 L 351.911 322.149 C 351.911 349.259 332.583 372.493 305.955 377.394 C 302.258 378.074 299.521 381.218 299.358 384.973 L 294.508 495.869 L 281.776 495.869 L 276.975 386.054 C 276.787 381.741 273.235 378.342 268.918 378.342 L 190.634 378.342 C 183.782 378.342 177.07 377.111 170.683 374.685 C 168.264 373.767 165.548 374.063 163.385 375.487 C 161.223 376.91 159.874 379.285 159.761 381.872 L 154.776 495.871 L 142.045 495.871 L 134.66 326.993 C 134.656 326.895 134.65 326.797 134.642 326.701 C 134.507 325.011 134.441 323.522 134.441 322.151 C 134.441 291.165 159.65 265.958 190.635 265.958 L 271.096 265.958 C 275.302 265.958 278.801 262.727 279.135 258.535 L 296.137 45.535 C 296.389 42.386 294.786 39.47 292.179 37.941 C 291.209 37.3 290.25 36.509 289.327 35.587 C 287.22 33.48 285.785 31.157 285.388 29.214 C 285.223 28.406 285.3 27.875 285.405 27.771 C 285.51 27.666 285.907 27.66 285.986 27.66 C 287.306 27.66 289.793 28.546 292.516 31.026 C 295.302 33.791 299.767 34.175 303.012 31.759 C 305.91 29.601 309.361 28.46 312.993 28.46 L 333.968 28.46 C 334.239 28.483 334.515 28.49 334.783 28.484 C 334.95 28.481 335.115 28.472 335.297 28.461 C 340.211 28.51 344.834 30.701 348.001 34.487 C 348.204 34.731 348.421 34.961 348.649 35.176 C 359.536 46.076 374.004 52.075 389.42 52.075 C 395.281 52.075 400.049 56.843 400.049 62.704 C 400.049 68.562 395.281 73.33 389.421 73.33 Z M 329.952 38.38 C 326.556 38.38 323.803 41.134 323.803 44.531 C 323.803 47.928 326.557 50.682 329.952 50.682 C 333.351 50.682 336.105 47.928 336.105 44.531 C 336.105 41.133 333.352 38.38 329.952 38.38 Z" fill="#1E252B"/><g></g><g></g><g></g><g></g><g></g><g></g><g></g><g></g><g></g><g></g><g></g><g></g><g></g><g></g><g></g></svg>