<svg version="1.1" viewBox="0 0 512 512" xmlns="http://www.w3.org/2000/svg" xmlns:xlink="http://www.w3.org/1999/xlink" id="Layer_1" overflow="hidden"><path d=" M 114.383 67.748 L 92.596 67.748 L 92.596 43.704 C 92.596 39.625 96.858 36.972 100.479 38.796 L 100.479 38.796 C 109.001 43.088 114.384 51.863 114.384 61.46 L 114.384 67.748 Z" fill="#C1B9B0"/><path d=" M 506.553 255.977 L 506.553 442.698 L 495.66 442.698 C 483.627 442.698 473.873 432.944 473.873 420.911 L 473.873 234.189 L 484.767 234.189 C 496.799 234.189 506.553 243.944 506.553 255.977 Z" fill="#5B564F"/><path d=" M 484.766 221.386 L 484.766 320.153 C 484.766 326.214 479.889 331.127 473.872 331.127 L 450.177 331.127 C 443.421 331.127 436.7 331.641 430.051 332.619 L 420.921 387.802 C 420.796 388.558 420.454 389.285 419.958 389.976 C 412.934 399.774 408.51 411.211 408.51 423.297 L 408.51 451.842 C 408.51 457.903 403.633 462.816 397.616 462.816 L 397.616 473.79 L 397.616 484.764 L 364.935 484.764 L 372.818 468.882 C 374.663 465.164 378.435 462.815 382.561 462.815 L 386.722 462.815 L 386.722 453.195 L 386.722 423.296 C 386.722 411.211 382.298 399.772 375.274 389.975 C 374.778 389.283 374.436 388.557 374.311 387.801 L 367.877 348.916 C 351.738 351.53 331.91 353.074 310.465 353.074 C 297.357 353.074 284.856 352.496 273.427 351.451 L 273.427 385.997 C 273.427 387.512 273.126 388.956 272.582 390.268 C 266.605 404.691 262.674 419.911 262.674 435.571 L 262.674 451.841 C 262.674 457.902 257.86 462.815 251.922 462.815 L 241.17 462.815 L 241.17 435.571 C 241.17 419.91 237.24 404.691 231.262 390.268 C 230.717 388.955 230.417 387.512 230.417 385.997 L 230.417 343.8 C 228.438 343.175 226.593 342.527 224.91 341.854 C 207.643 334.967 189.327 331.127 170.756 331.127 L 168.85 331.127 C 156.817 331.127 147.063 321.301 147.063 309.179 L 147.063 266.733 C 147.063 258.61 144.825 250.645 140.599 243.727 L 96.624 171.738 C 94.641 168.493 91.129 166.516 87.346 166.516 L 17.793 166.516 C 10.975 166.515 5.447 160.783 5.447 153.712 C 5.447 137.715 13.156 122.775 25.992 113.902 L 114.383 52.793 L 114.383 32.73 C 114.383 28.65 118.645 25.998 122.266 27.822 C 125.646 29.525 128.522 31.941 130.775 34.826 L 153.811 34.826 C 168.601 34.826 182.816 40.827 193.027 51.607 C 211.761 71.383 223.317 98.377 223.32 128.095 C 223.32 128.665 223.503 129.219 223.848 129.671 L 243.602 155.541 L 266.894 188.463 L 452.085 188.463 C 470.135 188.463 484.766 203.204 484.766 221.386 Z" fill="#E4DEDA"/><path d=" M 484.766 303.692 L 484.766 320.153 C 484.766 326.214 479.889 331.127 473.872 331.127 L 464.496 387.802 C 464.371 388.558 464.029 389.285 463.533 389.976 C 456.509 399.774 452.085 411.211 452.085 423.297 L 452.085 451.842 C 452.085 457.903 447.208 462.816 441.191 462.816 L 441.191 484.764 L 408.51 484.764 L 416.393 468.882 C 418.238 465.164 422.01 462.815 426.136 462.815 L 430.297 462.815 L 430.297 423.295 C 430.297 411.534 426.101 400.392 419.403 390.773 C 412.706 400.392 408.509 411.534 408.509 423.295 L 408.509 451.84 C 408.509 457.901 403.632 462.814 397.615 462.814 L 397.615 473.788 L 397.615 484.762 L 364.934 484.762 L 372.817 468.88 C 374.662 465.162 378.434 462.813 382.56 462.813 L 386.721 462.813 L 386.721 453.193 L 386.721 423.294 C 386.721 411.209 382.297 399.77 375.273 389.973 C 374.777 389.281 374.435 388.555 374.31 387.799 L 367.876 348.914 C 351.737 351.528 331.909 353.072 310.464 353.072 C 277.405 353.072 248.435 349.44 230.675 343.829 L 230.416 385.995 C 230.416 387.51 230.115 388.954 229.571 390.266 C 223.594 404.689 219.663 419.909 219.663 435.569 L 219.663 451.839 C 219.663 457.9 214.849 462.813 208.911 462.813 L 208.911 484.761 L 176.654 484.761 L 184.434 468.879 C 186.255 465.161 189.979 462.812 194.051 462.812 L 198.158 462.812 L 198.158 435.568 C 198.158 419.907 194.228 404.688 188.25 390.265 C 187.705 388.952 187.405 387.509 187.405 385.994 L 187.405 332.149 C 181.892 331.477 176.334 331.124 170.753 331.124 L 168.849 331.124 C 156.816 331.124 147.062 321.298 147.062 309.176 L 147.062 266.73 C 147.062 258.607 144.824 250.642 140.598 243.724 L 96.623 171.736 C 94.64 168.491 91.128 166.514 87.345 166.514 L 17.793 166.514 C 10.975 166.513 5.447 160.781 5.447 153.71 C 5.447 137.713 13.156 122.773 25.992 113.9 L 29.505 111.471 C 28.023 116.191 27.234 121.178 27.234 126.275 C 27.234 133.346 32.761 139.078 39.58 139.078 L 109.134 139.078 C 112.917 139.078 116.429 141.055 118.412 144.3 L 162.388 216.289 C 166.615 223.208 168.852 231.172 168.852 239.295 L 168.852 281.741 C 168.852 293.862 178.606 303.689 190.639 303.689 L 192.546 303.689 C 211.117 303.689 229.433 307.529 246.7 314.416 C 263.489 321.112 295.512 325.636 332.254 325.636 C 368.996 325.636 401.019 321.111 417.808 314.416 C 435.075 307.529 453.391 303.689 471.962 303.689 L 484.764 303.689 L 484.764 303.692 Z" fill="#D1C9C1"/><path d=" M 194.056 462.817 L 208.916 462.817 L 208.916 484.765 L 176.659 484.765 L 184.439 468.883 C 186.26 465.166 189.984 462.817 194.056 462.817 Z" fill="#777269"/><g><path d=" M 419.404 390.775 C 412.707 400.394 408.51 411.536 408.51 423.297 L 408.51 451.842 C 408.51 457.903 403.633 462.816 397.616 462.816 L 397.616 473.79 L 397.616 484.764 L 364.935 484.764 L 372.818 468.882 C 374.663 465.164 378.435 462.815 382.561 462.815 L 386.722 462.815 L 386.722 453.195 L 386.722 423.296 C 386.722 411.211 382.298 399.772 375.274 389.975 C 374.778 389.283 374.436 388.557 374.311 387.801 L 367.877 348.916 C 379.39 347.051 389.029 344.641 396.02 341.853 C 400.452 340.086 404.952 338.523 409.508 337.17 L 417.884 387.8 C 418.009 388.556 418.351 389.283 418.847 389.974 C 419.039 390.24 419.219 390.509 419.404 390.775 Z" fill="#968C86"/><path d=" M 280.16 328.125 C 277.552 335.714 275.362 343.499 273.633 351.458 C 273.54 351.449 273.43 385.998 273.43 385.998 C 273.43 387.513 273.129 388.957 272.585 390.269 C 266.608 404.692 262.677 419.912 262.677 435.572 L 262.677 451.842 C 262.677 457.903 257.863 462.816 251.925 462.816 L 251.925 484.764 L 219.668 484.764 L 227.448 468.882 C 229.269 465.164 232.993 462.815 237.065 462.815 L 241.172 462.815 L 241.172 435.571 C 241.172 419.91 237.242 404.691 231.264 390.268 C 230.72 388.955 230.419 387.512 230.419 385.998 L 230.419 385.997 L 230.678 343.831 C 231.789 338.529 233.083 333.296 234.52 328.124 L 280.16 328.125 L 280.16 328.125 Z" fill="#968C86"/></g><g><path d=" M 237.066 462.817 L 251.926 462.817 L 251.926 484.765 L 219.669 484.765 L 227.449 468.883 C 229.269 465.166 232.993 462.817 237.066 462.817 Z" fill="#5E574E"/><path d=" M 382.333 462.817 L 397.193 462.817 L 397.193 484.765 L 364.936 484.765 L 372.716 468.883 C 374.538 465.166 378.261 462.817 382.333 462.817 Z" fill="#5E574E"/></g><g><path d=" M 426.136 462.817 C 422.01 462.817 418.238 465.166 416.393 468.884 L 408.51 484.766 L 441.191 484.766 L 441.191 462.818 L 426.136 462.817 L 426.136 462.817 Z" fill="#777269"/><path d=" M 266.224 188.463 C 228.057 227.377 200.551 276.913 188.453 332.278 C 182.604 331.522 176.703 331.127 170.776 331.127 L 168.869 331.127 C 158.712 331.127 150.203 324.115 147.79 314.641 C 160.466 262.803 184.963 215.658 218.247 176.269 L 256 176.269 L 266.224 188.463 Z" fill="#777269"/><path d=" M 198.128 88.311 L 198.128 138.531 L 192.383 138.531 C 168.129 165.434 147.627 195.829 131.695 228.875 L 105.161 185.439 C 125.434 149.485 150.736 116.785 180.104 88.312 C 180.103 88.311 198.128 88.311 198.128 88.311 Z" fill="#777269"/><path d=" M 458.659 189.105 C 456.578 188.687 454.427 188.463 452.224 188.463 L 333.986 188.463 C 281.981 224.361 244.153 279.567 230.679 343.832 C 241.403 347.206 256.269 349.874 273.633 351.458 C 292.767 263.418 367.352 196.286 458.659 189.105 Z" fill="#777269"/><path d=" M 484.766 234.189 L 475.506 234.189 L 475.506 234.194 C 475.385 234.194 475.264 234.189 475.143 234.189 C 400.852 234.189 338.206 284.413 318.835 352.994 C 335.471 352.678 350.924 351.435 364.154 349.494 C 382.612 307.437 424.384 278.086 472.965 278.086 C 476.948 278.086 480.884 278.288 484.766 278.672 L 484.766 376.853 C 484.766 388.974 494.52 398.801 506.553 398.801 L 506.553 256.138 C 506.553 244.015 496.799 234.189 484.766 234.189 Z" fill="#777269"/></g><g><path d=" M 149.789 195.67 C 143.24 206.402 137.188 217.477 131.694 228.875 L 105.16 185.439 C 111.178 174.767 117.648 164.389 124.527 154.316 L 149.789 195.67 Z" fill="#5B564F"/><path d=" M 191.489 303.692 C 179.456 303.692 169.702 293.866 169.702 281.744 L 169.702 252.516 C 160.747 271.809 153.541 292.09 148.289 313.155 C 150.149 323.375 159.018 331.127 169.702 331.127 L 170.902 331.127 L 171.609 331.127 C 177.304 331.127 182.974 331.492 188.598 332.191 C 190.716 322.515 193.313 313.023 196.346 303.729 C 195.363 303.707 194.381 303.691 193.397 303.691 L 191.489 303.692 L 191.489 303.692 Z" fill="#5B564F"/><path d=" M 239.651 311.807 C 235.987 322.188 232.966 332.874 230.668 343.832 C 241.392 347.206 256.258 349.874 273.622 351.458 C 275.778 341.542 278.643 331.892 282.15 322.562 C 267.38 320.592 255.116 317.78 246.691 314.419 C 244.362 313.492 242.015 312.623 239.651 311.807 Z" fill="#5B564F"/><path d=" M 332.255 325.64 C 331.266 325.64 330.281 325.636 329.298 325.629 C 325.036 334.343 321.518 343.49 318.834 352.994 C 318.838 352.994 318.844 352.994 318.848 352.994 C 331.291 352.758 343.071 352.002 353.753 350.824 C 353.8 350.819 353.848 350.813 353.895 350.809 C 355.634 350.616 362.524 349.734 364.151 349.495 L 364.152 349.495 C 368.377 339.871 373.834 330.922 380.302 322.829 C 366.103 324.617 349.715 325.64 332.255 325.64 Z" fill="#5B564F"/></g><path d=" M 130.775 34.825 L 153.811 34.825 C 168.601 34.825 182.816 40.826 193.027 51.606 C 211.761 71.382 223.317 98.376 223.32 128.094 C 223.32 128.664 223.503 129.218 223.848 129.67 L 243.602 155.54 L 266.894 188.463 L 245.107 188.463 L 243.602 188.463 C 233.456 188.463 223.885 183.716 217.698 175.614 L 197.945 149.745 C 193.217 143.554 190.634 135.963 190.639 128.153 C 190.66 92.749 167.577 62.948 136.171 54.027 L 136.171 50.485 C 136.17 44.696 134.201 39.213 130.775 34.825 Z" fill="#A59C95"/><path d=" M 266.894 188.463 L 254.366 188.463 L 231.074 155.541 L 211.32 129.671 C 210.976 129.219 210.792 128.664 210.792 128.095 C 210.789 98.376 199.233 71.383 180.499 51.607 C 170.288 40.828 156.073 34.826 141.283 34.826 L 153.811 34.826 C 168.601 34.826 182.816 40.827 193.027 51.607 C 211.761 71.384 223.317 98.377 223.32 128.095 C 223.32 128.665 223.503 129.219 223.848 129.671 L 243.602 155.541 L 266.894 188.463 Z" fill="#C6BCB5"/><path d=" M 5.447 153.712 C 5.447 160.783 10.974 166.515 17.793 166.515 L 38.128 166.515 L 38.128 105.512 L 25.993 113.902 C 13.156 122.776 5.447 137.714 5.447 153.712 Z" fill="#5B564F"/><path d=" M 38.128 105.512 L 38.128 139.726 L 28.687 139.726 C 21.869 139.726 16.341 135.386 16.341 130.032 C 16.341 127.013 16.84 124.05 17.762 121.192 C 20.197 118.468 22.945 116.01 25.993 113.903 L 38.128 105.512 Z" fill="#777269"/><path d=" M 103.489 95.184 C 103.489 86.093 110.805 78.723 119.829 78.723 C 128.853 78.723 136.169 86.093 136.169 95.184 C 136.169 104.275 128.853 111.645 119.829 111.645 C 110.805 111.645 103.489 104.274 103.489 95.184 Z" fill="#D1C9C1"/><path d=" M 119.83 100.671 C 122.838 100.671 125.277 98.214 125.277 95.184 C 125.277 92.153 122.838 89.697 119.83 89.697 C 116.822 89.697 114.383 92.154 114.383 95.184 C 114.383 98.214 116.822 100.671 119.83 100.671 Z" fill="#777269"/><path d=" M 512 255.978 L 512 442.699 C 512 445.708 509.562 448.146 506.553 448.146 L 495.66 448.146 C 480.643 448.146 468.426 435.929 468.426 420.912 L 468.426 392.452 C 468.281 392.686 468.128 392.918 467.963 393.147 C 461.138 402.667 457.532 413.092 457.532 423.299 L 457.532 451.845 C 457.532 458.981 452.978 465.07 446.638 467.328 L 446.638 484.766 C 446.638 487.775 444.2 490.213 441.191 490.213 L 408.51 490.213 C 406.625 490.213 404.874 489.238 403.881 487.637 C 403.337 486.761 403.063 485.765 403.063 484.767 C 403.063 483.939 403.251 483.11 403.631 482.345 L 411.514 466.463 C 414.103 461.244 419.136 457.864 424.85 457.421 L 424.85 423.298 C 424.85 415.98 422.985 408.526 419.403 401.382 C 415.821 408.527 413.956 415.979 413.956 423.298 L 413.956 451.844 C 413.956 454.853 411.518 457.291 408.509 457.291 C 405.5 457.291 403.062 454.853 403.062 451.844 L 403.062 423.298 C 403.062 412.181 406.493 400.927 413.017 390.556 C 412.786 389.944 412.617 389.323 412.513 388.693 L 405.164 344.276 C 402.765 345.096 400.383 345.979 398.04 346.913 C 391.789 349.407 383.765 351.568 374.135 353.359 L 379.657 386.736 C 379.669 386.757 379.684 386.78 379.705 386.807 C 387.859 398.18 392.171 410.8 392.171 423.297 L 392.171 457.37 L 394.713 457.37 C 397.722 457.37 400.16 459.808 400.16 462.817 C 400.16 465.826 397.722 468.264 394.713 468.264 L 382.564 468.264 C 380.494 468.264 378.63 469.429 377.7 471.304 L 373.721 479.318 L 391.082 479.318 C 394.091 479.318 396.529 481.756 396.529 484.765 C 396.529 487.774 394.091 490.212 391.082 490.212 L 364.937 490.212 C 363.052 490.212 361.301 489.237 360.308 487.636 C 359.315 486.034 359.22 484.032 360.059 482.345 L 367.942 466.463 C 370.531 461.244 375.564 457.864 381.278 457.421 L 381.278 423.298 C 381.278 413.091 377.671 402.667 370.851 393.15 C 369.839 391.736 369.197 390.238 368.941 388.693 L 363.384 355.107 C 347.519 357.346 329.356 358.522 310.469 358.522 C 299.554 358.522 288.973 358.135 279.005 357.395 C 278.956 364.539 278.906 376.957 278.878 386.015 C 278.878 388.18 278.461 390.303 277.638 392.305 C 277.631 392.321 277.625 392.337 277.617 392.353 C 271.23 407.767 268.124 421.905 268.124 435.573 L 268.124 451.843 C 268.124 458.962 263.633 465.036 257.372 467.309 L 257.372 484.766 C 257.372 487.775 254.933 490.213 251.925 490.213 L 219.668 490.213 C 217.788 490.213 216.04 489.243 215.046 487.649 C 214.498 486.771 214.221 485.771 214.221 484.768 C 214.221 483.95 214.405 483.129 214.777 482.371 L 222.557 466.489 C 225.112 461.274 230.078 457.891 235.726 457.428 L 235.726 435.575 C 235.726 425.333 233.982 414.827 230.42 403.718 C 226.858 414.826 225.115 425.333 225.115 435.575 L 225.115 451.845 C 225.115 454.854 222.676 457.292 219.668 457.292 C 216.66 457.292 214.221 454.854 214.221 451.845 L 214.221 435.575 C 214.221 420.447 217.598 404.947 224.544 388.186 C 224.829 387.498 224.974 386.761 224.974 386 L 224.974 347.856 L 209.411 343.197 C 206.529 342.334 204.892 339.298 205.755 336.416 C 206.618 333.535 209.657 331.897 212.535 332.761 L 226.619 336.979 C 237.413 290.761 260.712 248.591 294.234 214.708 C 296.351 212.568 299.797 212.552 301.937 214.667 C 304.075 216.783 304.094 220.231 301.978 222.37 C 269.738 254.956 247.374 295.547 237.096 340.023 C 255.108 344.815 281.99 347.63 310.468 347.63 C 311.898 347.63 313.324 347.623 314.746 347.609 C 334.023 285.087 387.52 239.249 452.105 230.321 C 455.085 229.909 457.834 231.991 458.247 234.971 C 458.659 237.95 456.577 240.701 453.597 241.113 C 394.415 249.293 345.187 290.642 326.272 347.343 C 340.944 346.806 354.808 345.518 367.01 343.542 C 367.011 343.542 367.011 343.542 367.012 343.542 C 378.12 341.741 387.456 339.408 394.005 336.796 C 398.567 334.977 403.262 333.347 407.961 331.952 C 409.459 331.508 411.075 331.728 412.401 332.555 C 413.726 333.385 414.631 334.742 414.885 336.284 L 423.233 386.738 C 423.245 386.759 423.26 386.782 423.281 386.809 C 423.419 387.002 423.559 387.204 423.698 387.407 L 423.873 387.662 C 423.874 387.663 423.874 387.664 423.875 387.664 C 431.641 398.817 435.745 411.14 435.745 423.299 L 435.745 457.372 L 441.192 457.372 C 444.195 457.372 446.639 454.893 446.639 451.845 L 446.639 423.299 C 446.639 410.801 450.951 398.182 459.107 386.804 C 459.125 386.779 459.14 386.756 459.152 386.738 L 467.451 336.574 L 450.179 336.574 C 443.823 336.574 437.317 337.057 430.846 338.009 C 427.87 338.458 425.102 336.39 424.664 333.414 C 424.226 330.438 426.283 327.67 429.26 327.232 C 436.256 326.203 443.294 325.68 450.179 325.68 L 473.772 325.68 C 473.828 325.678 473.881 325.678 473.935 325.68 C 476.909 325.645 479.319 323.179 479.319 320.154 L 479.319 283.71 C 477.195 283.591 475.07 283.531 472.965 283.531 C 439.504 283.531 407.909 298.315 386.283 324.092 C 384.353 326.396 380.915 326.699 378.61 324.763 C 376.306 322.831 376.004 319.394 377.939 317.09 C 401.64 288.84 436.276 272.638 472.965 272.638 C 475.072 272.638 477.195 272.692 479.319 272.801 L 479.319 221.384 C 479.319 208.352 470.279 197.41 458.194 194.605 C 382.916 200.872 316.336 250.594 288.4 321.494 C 287.296 324.294 284.132 325.664 281.336 324.565 C 278.537 323.461 277.163 320.299 278.266 317.501 C 292.692 280.89 316.941 249.018 348.388 225.333 C 366.589 211.624 386.712 201.055 408.007 193.908 L 268.523 193.908 C 239.172 224.287 216.402 260.582 202.602 299.014 C 201.586 301.846 198.468 303.316 195.634 302.301 C 192.803 301.284 191.332 298.165 192.348 295.335 C 205.536 258.608 226.603 223.779 253.613 193.91 L 243.6 193.91 C 231.837 193.91 220.536 188.306 213.368 178.92 L 193.615 153.05 C 192.549 151.655 191.577 150.192 190.703 148.675 C 176.923 164.685 164.442 181.906 153.533 199.968 C 151.978 202.544 148.631 203.371 146.055 201.814 C 143.48 200.258 142.653 196.91 144.209 194.336 C 156.419 174.119 170.544 154.927 186.222 137.248 C 185.541 134.271 185.189 131.215 185.191 128.149 C 185.21 96.044 164.44 67.72 134.682 59.266 C 132.34 58.601 130.723 56.462 130.723 54.026 L 130.723 50.483 C 130.723 46.05 129.216 41.679 126.481 38.175 C 124.657 35.839 122.416 33.992 119.816 32.684 L 119.829 52.795 C 119.829 54.584 118.951 56.258 117.479 57.274 L 116.453 57.984 C 116.324 58.081 116.192 58.174 116.054 58.26 L 43.573 108.37 L 43.573 161.07 L 87.345 161.07 C 92.985 161.07 98.32 164.071 101.271 168.9 L 104.948 174.919 C 117.639 153.477 132.235 133.056 148.418 114.112 C 150.371 111.825 153.81 111.554 156.097 113.507 C 158.385 115.46 158.655 118.898 156.701 121.186 C 139.669 141.128 124.438 162.746 111.402 185.482 L 145.248 240.888 C 149.999 248.666 152.511 257.603 152.511 266.733 L 152.511 279.845 C 161.962 253.225 174.661 227.887 190.446 204.196 C 192.114 201.693 195.496 201.017 198 202.683 C 200.503 204.351 201.18 207.733 199.513 210.237 C 178.191 242.238 162.685 277.341 153.414 314.59 C 155.637 321.039 161.718 325.68 168.852 325.68 L 170.759 325.68 C 170.764 325.68 170.771 325.68 170.778 325.68 C 177.174 325.68 182.18 325.987 188.037 326.741 C 188.566 326.802 189.073 326.939 189.545 327.14 L 189.546 327.14 L 189.547 327.141 C 190.294 327.459 190.95 327.936 191.475 328.527 C 192.027 329.145 192.441 329.891 192.666 330.714 C 192.798 331.197 192.865 331.704 192.858 332.224 L 192.858 385.998 C 192.858 386.759 193.003 387.495 193.288 388.183 C 200.234 404.947 203.611 420.448 203.611 435.573 L 203.611 457.371 L 206.026 457.371 C 209.034 457.371 211.473 459.809 211.473 462.818 C 211.473 465.827 209.034 468.265 206.026 468.265 L 194.056 468.265 C 192.053 468.265 190.242 469.421 189.33 471.28 L 185.392 479.319 L 201.29 479.319 C 204.298 479.319 206.737 481.757 206.737 484.766 C 206.737 487.775 204.298 490.213 201.29 490.213 L 176.66 490.213 C 174.78 490.213 173.032 489.243 172.038 487.649 C 171.044 486.055 170.941 484.058 171.768 482.371 L 179.548 466.489 C 182.103 461.274 187.069 457.891 192.717 457.428 L 192.717 435.575 C 192.717 421.908 189.611 407.771 183.224 392.356 C 182.387 390.339 181.964 388.2 181.964 386 L 181.964 337.033 C 178.401 336.714 174.906 336.575 170.777 336.575 C 170.769 336.574 170.763 336.574 170.758 336.575 L 168.851 336.575 C 153.834 336.575 141.617 324.286 141.617 309.181 L 141.617 266.735 C 141.617 259.608 139.658 252.635 135.952 246.568 L 91.976 174.579 C 90.976 172.941 89.245 171.963 87.346 171.963 L 17.793 171.963 C 7.982 171.963 0 163.775 0 153.713 C 0 135.891 8.558 119.334 22.895 109.423 L 34.96 101.083 C 35.009 101.048 35.059 101.013 35.109 100.98 L 87.149 65.002 L 87.149 43.705 C 87.149 39.874 89.091 36.39 92.345 34.386 C 95.581 32.394 99.537 32.226 102.928 33.934 C 105.09 35.022 107.105 36.367 108.936 37.924 L 108.936 32.73 C 108.936 28.898 110.878 25.414 114.132 23.409 C 117.368 21.417 121.324 21.25 124.716 22.956 C 127.947 24.584 130.818 26.737 133.279 29.378 L 153.809 29.378 C 170.12 29.378 185.855 36.115 196.979 47.859 C 217.254 69.264 228.519 97.384 228.76 127.131 L 247.928 152.235 C 247.968 152.287 248.008 152.341 248.045 152.394 L 269.71 183.015 L 452.083 183.015 C 454.506 183.015 456.874 183.244 459.174 183.68 C 459.575 183.717 459.965 183.799 460.336 183.921 C 477.405 187.726 490.211 203.08 490.211 221.384 L 490.211 229.287 C 502.627 231.821 512 242.825 512 255.978 Z M 32.681 115.901 L 29.089 118.384 C 17.695 126.261 10.893 139.468 10.893 153.713 C 10.893 157.77 13.988 161.069 17.792 161.069 L 32.68 161.069 L 32.68 115.901 Z M 106.393 51.696 C 104.468 48.267 101.551 45.435 98.029 43.662 L 98.038 57.474 L 106.393 51.696 Z M 256.368 183.018 L 239.214 158.771 L 219.518 132.976 C 218.457 131.588 217.872 129.854 217.872 128.096 C 217.87 100.792 207.642 74.957 189.071 55.353 C 179.993 45.77 167.142 40.274 153.809 40.274 L 139.866 40.274 C 140.963 43.4 141.561 46.699 141.611 50.028 C 173.905 61.105 196.103 92.637 196.082 128.157 C 196.081 130.72 196.415 133.273 197.062 135.744 C 197.512 136.499 197.765 137.344 197.816 138.199 C 198.86 141.148 200.36 143.939 202.27 146.44 L 222.022 172.309 C 227.142 179.013 235.208 183.016 243.597 183.016 L 256.365 183.016 L 256.365 183.018 Z M 246.478 468.266 L 237.065 468.266 C 235.062 468.266 233.251 469.422 232.339 471.281 L 228.401 479.32 L 246.478 479.32 L 246.478 468.266 L 246.478 468.266 Z M 267.983 356.407 C 255.995 355.136 245.169 353.318 236.082 351.018 L 235.867 386.006 C 235.868 386.765 236.013 387.498 236.297 388.185 C 243.243 404.949 246.62 420.45 246.62 435.576 L 246.62 457.374 L 251.925 457.374 C 254.851 457.374 257.231 454.895 257.231 451.847 L 257.231 435.577 C 257.231 420.449 260.608 404.949 267.554 388.188 C 267.839 387.5 267.984 386.763 267.984 386.002 L 267.984 356.408 L 267.983 356.408 Z M 435.745 468.266 L 426.138 468.266 C 424.068 468.266 422.204 469.431 421.274 471.306 L 417.295 479.319 L 435.746 479.319 L 435.746 468.266 Z M 501.106 255.978 C 501.106 248.876 496.553 242.82 490.212 240.571 L 490.212 278.603 C 490.212 278.645 490.212 278.689 490.212 278.733 L 490.212 320.156 C 490.212 327.292 485.659 333.38 479.318 335.638 L 479.318 420.913 C 479.318 429.923 486.648 437.253 495.658 437.253 L 501.105 437.253 L 501.105 255.978 Z"/><g></g><g></g><g></g><g></g><g></g><g></g><g></g><g></g><g></g><g></g><g></g><g></g><g></g><g></g><g></g></svg>