<svg version="1.1" viewBox="0 0 60 60" xmlns="http://www.w3.org/2000/svg" xmlns:xlink="http://www.w3.org/1999/xlink" id="Capa_1" overflow="hidden"><rect x="16.5" y="31" width="10" height="6" fill="#871B1B"/><path d=" M 3.5 0 C 2.948 0 2.5 0.447 2.5 1 L 2.5 4 L 2.5 59 C 2.5 59.553 2.948 60 3.5 60 C 4.052 60 4.5 59.553 4.5 59 L 4.5 4 L 4.5 1 C 4.5 0.447 4.052 0 3.5 0 Z" fill="#424A60"/><rect x="4.5" y="4" width="22" height="29" fill="#DD352E"/><path d=" M 26.5 9 L 26.5 33 L 20.5 33 C 18.291 33 16.5 34.791 16.5 37 C 16.5 39.209 18.291 41 20.5 41 L 24.5 41 L 57.5 41 L 46.5 25 L 57.5 9 L 26.5 9 Z" fill="#C03A2B"/><path d=" M 16.5 37 C 16.5 39.209 18.291 41 20.5 41 L 24.5 41 L 26.5 41 L 26.5 33 L 20.5 33 C 18.291 33 16.5 34.791 16.5 37 Z" fill="#B02721"/><g></g><g></g><g></g><g></g><g></g><g></g><g></g><g></g><g></g><g></g><g></g><g></g><g></g><g></g><g></g></svg>