<svg version="1.1" viewBox="0 0 511.999 511.999" xmlns="http://www.w3.org/2000/svg" xmlns:xlink="http://www.w3.org/1999/xlink" id="Layer_1" overflow="hidden"><path d=" M 296.572 110.812 L 171.836 12.585 L 42.9 66.255 L 24.704 223.978 L 218.854 498.932 L 354.862 442.317 L 296.572 110.812 Z M 325.109 435.428 L 234.932 472.965 C 234.201 473.268 233.438 473.415 232.683 473.415 C 230.836 473.415 229.042 472.539 227.916 470.963 L 45.49 215.773 C 44.638 214.582 44.264 213.114 44.44 211.66 L 60.134 82.442 C 60.388 80.347 61.749 78.552 63.697 77.741 L 165.328 35.436 C 167.277 34.628 169.509 34.925 171.175 36.22 L 273.924 116.137 C 275.08 117.037 275.857 118.336 276.102 119.779 L 328.633 429.04 C 329.09 431.73 327.629 434.379 325.109 435.428 Z" fill="#E6E6E6"/><path d=" M 179.274 174.026 L 213.857 159.63 L 207.093 143.381 L 172.509 157.778 C 171.075 158.375 169.463 158.379 168.026 157.785 C 166.59 157.193 165.448 156.055 164.85 154.621 L 148.411 115.13 L 132.161 121.893 L 148.602 161.384 C 149.198 162.819 149.202 164.431 148.609 165.867 C 148.017 167.303 146.879 168.445 145.445 169.043 L 110.861 183.439 L 117.624 199.687 L 152.208 185.291 C 152.928 184.991 153.693 184.841 154.458 184.841 C 155.216 184.841 155.975 184.989 156.69 185.283 C 158.126 185.875 159.268 187.013 159.866 188.447 L 204.468 295.596 L 220.716 288.833 L 176.115 181.684 C 174.875 178.698 176.289 175.27 179.274 174.026 Z" fill="#333333"/><g><path d=" M 166.678 47.562 L 71.351 87.243 L 56.343 210.812 L 234.735 460.359 L 316.305 426.405 L 264.936 123.985 L 166.678 47.562 Z M 233.791 294.222 C 233.199 295.658 232.061 296.8 230.627 297.398 L 203.564 308.662 C 202.828 308.968 202.066 309.113 201.316 309.113 C 199.021 309.113 196.844 307.755 195.906 305.505 L 151.304 198.356 L 116.72 212.752 C 115.286 213.349 113.674 213.352 112.237 212.759 C 110.801 212.167 109.659 211.029 109.061 209.595 L 97.797 182.533 C 96.554 179.547 97.968 176.118 100.954 174.874 L 135.538 160.478 L 119.097 120.987 C 118.501 119.552 118.497 117.94 119.09 116.504 C 119.682 115.068 120.82 113.926 122.254 113.328 L 149.317 102.062 C 152.304 100.82 155.732 102.233 156.976 105.219 L 173.415 144.71 L 207.999 130.314 C 210.984 129.071 214.414 130.484 215.658 133.471 L 226.924 160.534 C 227.52 161.968 227.524 163.581 226.931 165.017 C 226.339 166.453 225.201 167.595 223.767 168.193 L 189.184 182.589 L 233.785 289.738 C 234.38 291.174 234.384 292.785 233.791 294.222 Z" fill="#808080"/><path d=" M 270.099 20.992 L 249.133 58.547 L 264.104 70.336 L 279.786 42.566 C 280.825 40.727 282.774 39.588 284.886 39.588 L 394.97 39.588 C 397.08 39.588 399.027 40.723 400.067 42.559 L 464.214 155.824 C 464.936 157.099 465.153 158.597 464.825 160.024 L 394.475 465.725 C 393.863 468.385 391.496 470.269 388.768 470.269 L 318.198 470.269 L 275.447 488.064 L 413.588 488.064 L 487.168 159.613 L 409.758 20.993 L 270.099 20.993 Z" fill="#808080"/></g><path d=" M 363.694 451.331 L 346.341 458.555 L 384.108 458.555 L 452.9 159.617 L 391.557 51.304 L 288.306 51.304 L 273.418 77.67 L 305.577 102.994 C 306.709 103.885 307.472 105.162 307.722 106.582 L 367.211 444.911 C 367.686 447.609 366.225 450.277 363.694 451.331 Z" fill="#333333"/><path d=" M 328.633 429.039 L 276.102 119.778 C 275.857 118.335 275.079 117.035 273.924 116.136 L 171.175 36.22 C 169.509 34.924 167.277 34.627 165.328 35.436 L 63.697 77.741 C 61.749 78.552 60.388 80.349 60.134 82.442 L 44.44 211.66 C 44.263 213.114 44.638 214.582 45.49 215.773 L 227.917 470.965 C 229.043 472.541 230.836 473.417 232.684 473.417 C 233.438 473.417 234.202 473.271 234.933 472.967 L 325.11 435.43 C 327.629 434.379 329.09 431.73 328.633 429.039 Z M 234.734 460.36 L 56.343 210.812 L 71.351 87.243 L 166.678 47.562 L 264.934 123.984 L 316.303 426.404 L 234.734 460.36 Z"/><path d=" M 189.184 182.59 L 223.767 168.194 C 225.201 167.597 226.339 166.454 226.931 165.018 C 227.523 163.582 227.52 161.97 226.924 160.535 L 215.658 133.472 C 214.414 130.485 210.984 129.073 207.999 130.315 L 173.415 144.711 L 156.976 105.22 C 155.733 102.234 152.304 100.821 149.317 102.063 L 122.254 113.329 C 120.82 113.926 119.682 115.069 119.09 116.505 C 118.498 117.941 118.501 119.553 119.097 120.988 L 135.538 160.479 L 100.954 174.877 C 97.968 176.12 96.554 179.549 97.797 182.536 L 109.061 209.598 C 109.658 211.032 110.801 212.17 112.237 212.762 C 113.674 213.354 115.286 213.352 116.72 212.755 L 151.304 198.359 L 195.906 305.508 C 196.843 307.758 199.021 309.116 201.316 309.116 C 202.066 309.116 202.829 308.971 203.564 308.665 L 230.627 297.401 C 232.061 296.804 233.199 295.661 233.791 294.225 C 234.383 292.789 234.38 291.177 233.784 289.742 L 189.184 182.59 Z M 204.471 295.597 L 159.869 188.448 C 159.272 187.014 158.129 185.876 156.693 185.284 C 155.978 184.989 155.219 184.842 154.461 184.842 C 153.696 184.842 152.93 184.992 152.211 185.292 L 117.627 199.688 L 110.864 183.44 L 145.448 169.044 C 146.883 168.447 148.02 167.304 148.612 165.868 C 149.204 164.432 149.201 162.819 148.605 161.385 L 132.164 121.894 L 148.414 115.131 L 164.853 154.622 C 165.45 156.057 166.593 157.194 168.029 157.786 C 169.466 158.379 171.078 158.376 172.512 157.779 L 207.096 143.382 L 213.86 159.631 L 179.277 174.027 C 176.291 175.271 174.877 178.699 176.12 181.686 L 220.721 288.835 L 204.471 295.597 Z"/><path d=" M 418.311 12.279 C 417.275 10.426 415.319 9.278 413.197 9.278 L 266.661 9.278 C 264.538 9.278 262.582 10.426 261.547 12.279 L 239.815 51.206 L 176.382 1.255 C 174.715 -0.058 172.467 -0.365 170.507 0.449 L 35.225 56.76 C 33.265 57.575 31.901 59.387 31.657 61.496 L 12.811 224.859 C 12.646 226.29 13.014 227.731 13.844 228.909 L 211.99 509.521 C 213.115 511.113 214.917 512 216.776 512 C 217.53 512 218.294 511.854 219.024 511.55 L 256.145 496.098 C 257.022 498.291 259.154 499.779 261.577 499.779 L 418.276 499.779 C 421.017 499.779 423.393 497.878 423.991 495.202 L 499.085 159.991 C 499.4 158.585 499.186 157.113 498.483 155.855 L 418.311 12.279 Z M 218.854 498.932 L 24.704 223.978 L 42.9 66.255 L 171.836 12.585 L 296.572 110.812 L 354.862 442.318 L 218.854 498.932 Z M 367.211 444.91 L 307.722 106.581 C 307.472 105.162 306.709 103.884 305.577 102.993 L 273.418 77.669 L 288.306 51.303 L 391.557 51.303 L 452.9 159.616 L 384.107 458.554 L 346.34 458.554 L 363.693 451.33 C 366.225 450.277 367.686 447.609 367.211 444.91 Z M 413.588 488.064 L 275.447 488.064 L 318.198 470.269 L 388.768 470.269 C 391.497 470.269 393.864 468.385 394.475 465.725 L 464.825 160.024 C 465.153 158.597 464.935 157.099 464.214 155.824 L 400.066 42.559 C 399.026 40.723 397.08 39.588 394.969 39.588 L 284.885 39.588 C 282.773 39.588 280.824 40.725 279.785 42.566 L 264.103 70.336 L 249.132 58.547 L 270.098 20.992 L 409.757 20.992 L 487.167 159.612 L 413.588 488.064 Z"/><g></g><g></g><g></g><g></g><g></g><g></g><g></g><g></g><g></g><g></g><g></g><g></g><g></g><g></g><g></g></svg>