<svg version="1.1" width="681.333" height="681.333" viewBox="-88 0 511 511.996" xmlns="http://www.w3.org/2000/svg" xmlns:xlink="http://www.w3.org/1999/xlink" overflow="hidden"><path d=" M 328.211 151.875 L 328.211 99.4297 C 328.211 84.6719 316.641 72.1992 301.891 71.793 C 286.582 71.375 274.043 83.6563 274.043 98.8672 L 274.043 68.1953 C 274.043 53.4375 262.473 40.9609 247.719 40.5586 C 232.414 40.1367 219.875 52.418 219.875 67.6289 L 219.875 35.293 C 219.875 20.082 207.336 7.80078 192.027 8.21875 C 177.277 8.62109 165.707 21.0977 165.707 35.8555 L 165.707 67.6289 C 165.707 52.418 153.164 40.1367 137.859 40.5547 C 123.105 40.9609 111.535 53.4375 111.535 68.1914 L 111.535 151.875 Z" fill="#576574"/><path d=" M 328.211 184.492 L 111.535 184.492 L 111.535 265.012 C 111.535 269.43 105.922 271.324 103.242 267.809 L 101.703 265.789 C 106.852 277.984 129.453 339.066 92.5977 394.723 C 96.875 398.957 101.125 403.168 101.125 403.168 C 108.297 410.27 110.789 424.281 111.586 437.598 C 112.43 437.402 113.309 437.293 114.207 437.293 L 287.234 437.293 C 288 437.293 288.746 437.371 289.469 437.512 C 289.469 435.66 289.469 431.5 289.469 431.496 C 289.441 392.281 328.258 395.867 328.211 347.094 Z" fill="#576574"/><path d=" M 130.535 403.168 C 130.535 403.168 113.453 386.246 113.316 386.117 L 113.316 386.109 C 109.59 382.422 106.285 378.301 103.496 374.379 C 100.645 381.176 97.0586 387.988 92.5977 394.723 C 96.875 398.957 101.125 403.168 101.125 403.168 C 108.297 410.27 110.789 424.281 111.586 437.598 C 112.43 437.402 113.309 437.293 114.207 437.293 L 140.98 437.293 C 140.16 424.07 137.652 410.215 130.535 403.168 Z" fill="#3E4B5A"/><path d=" M 262.043 339.367 L 159.973 339.367 C 153.371 339.367 147.973 333.969 147.973 327.367 L 147.973 262.141 C 147.973 255.539 153.371 250.141 159.973 250.141 L 262.043 250.141 C 268.641 250.141 274.043 255.539 274.043 262.141 L 274.043 327.367 C 274.043 333.969 268.645 339.367 262.043 339.367 Z" fill="#3E4B5A"/><path d=" M 176.801 327.367 L 176.801 262.141 C 176.801 255.539 182.203 250.141 188.801 250.141 L 159.973 250.141 C 153.371 250.141 147.973 255.539 147.973 262.141 L 147.973 327.367 C 147.973 333.969 153.371 339.367 159.973 339.367 L 188.801 339.367 C 182.203 339.367 176.801 333.969 176.801 327.367 Z" fill="#374451"/><path d=" M 10.9492 235.906 L 64.293 357.973 C 64.3828 358.172 72.0117 374.332 83.9023 386.109 L 83.9023 386.117 C 83.9805 386.188 89.1836 391.344 93.8555 395.965 C 135.781 335.715 103.242 267.809 103.242 267.809 L 60.1172 211.191 C 37.7344 179.859 -2.25 207.266 10.9492 235.906 Z" fill="#FF6B6B"/><path d=" M 83.9023 386.117 C 84 386.207 93.7617 395.875 93.8555 395.969 C 98.3672 389.484 102.012 382.914 104.93 376.348 C 97.957 366.98 93.7695 358.121 93.7031 357.973 L 40.3633 235.906 C 33.9844 222.063 40.0273 208.512 50.5039 201.738 C 28.2617 187.219 -0.640625 210.77 10.9492 235.906 L 64.293 357.973 C 67.8711 365.754 75.6953 377.984 83.9023 386.109 Z" fill="#EE5253"/><path d=" M 286.234 434.293 L 238.629 434.293 C 245.129 434.293 250.449 439.609 250.449 446.113 L 250.449 493.391 C 250.449 499.891 245.129 505.211 238.629 505.211 L 286.234 505.211 C 292.738 505.211 298.055 499.891 298.055 493.391 L 298.055 446.113 C 298.055 439.609 292.738 434.293 286.234 434.293 Z" fill="#FECA57"/><path d=" M 281.117 493.391 L 281.117 446.113 C 281.117 439.613 275.797 434.293 269.297 434.293 L 238.629 434.293 C 245.129 434.293 250.449 439.609 250.449 446.113 L 250.449 493.391 C 250.449 499.891 245.129 505.211 238.629 505.211 L 269.297 505.211 C 275.797 505.211 281.117 499.891 281.117 493.391 Z" fill="#F4B537"/><path d=" M 65.4805 277.094 C 61.457 268.477 51.2109 264.766 42.6055 268.809 L 28.2695 275.539 L 64.293 357.973 C 64.3828 358.172 72.0117 374.332 83.9063 386.109 L 83.9063 386.117 C 83.9805 386.188 89.1875 391.344 93.8555 395.965 C 102.188 383.992 107.574 371.715 110.863 359.727 C 91.6445 331.082 74.6211 296.684 65.4805 277.094 Z" fill="#FECA57"/><path d=" M 54.2734 267.742 C 50.5156 266.754 46.4023 267.023 42.6055 268.809 L 28.2695 275.539 C 28.4766 276.012 64.1758 357.719 64.3945 358.188 C 68.8672 367.461 76.4219 378.699 83.9063 386.109 L 83.9063 386.117 C 83.9922 386.199 93.7656 395.879 93.8555 395.965 C 98.3555 389.465 101.949 383.039 104.93 376.34 C 94.6406 362.527 95.6523 362.43 54.2734 267.742 Z" fill="#F4B537"/><g fill="#3E4B5A"><path d=" M 180.688 208.695 C 188.973 208.695 195.688 201.98 195.688 193.695 L 195.688 8.37109 C 194.488 8.24219 193.27 8.1875 192.027 8.21875 C 177.277 8.625 165.707 21.0977 165.707 35.8555 L 165.707 67.6289 C 165.707 67.3633 165.691 67.0977 165.684 66.8281 L 165.684 193.695 C 165.684 201.98 172.402 208.695 180.688 208.695 Z"/><path d=" M 126.328 279.07 C 134.613 279.07 141.328 272.352 141.328 264.07 L 141.328 40.6875 C 140.191 40.5742 139.035 40.5234 137.859 40.5586 C 123.105 40.9609 111.535 53.4375 111.535 68.1953 L 111.535 265.012 C 111.535 265.32 111.504 265.613 111.449 265.898 C 112.355 273.32 118.664 279.07 126.328 279.07 Z"/><path d=" M 249.883 193.695 L 249.883 40.7109 C 249.168 40.6328 248.449 40.5742 247.719 40.5547 C 232.504 40.1406 220.031 52.2734 219.883 67.3555 L 219.883 193.695 C 219.883 201.98 226.598 208.695 234.883 208.695 C 243.168 208.695 249.883 201.98 249.883 193.695 Z"/><path d=" M 304.059 193.695 L 304.059 71.9492 C 303.344 71.8711 302.621 71.8125 301.891 71.793 C 286.754 71.3789 274.332 83.3867 274.055 98.3594 L 274.055 193.695 C 274.055 201.98 280.773 208.695 289.059 208.695 C 297.344 208.695 304.059 201.98 304.059 193.695 Z"/></g><path d=" M 111.535 150.453 L 328.211 150.453 L 328.211 185.914 L 111.535 185.914 Z" fill="#FECA57"/><path d=" M 111.535 150.453 L 141 150.453 L 141 185.914 L 111.535 185.914 Z" fill="#F4B537"/><path d=" M 165.684 150.453 L 195.688 150.453 L 195.688 185.914 L 165.684 185.914 Z" fill="#F4B537"/><path d=" M 219.883 150.453 L 249.883 150.453 L 249.883 185.914 L 219.883 185.914 Z" fill="#F4B537"/><path d=" M 274.055 150.453 L 304.059 150.453 L 304.059 185.914 L 274.055 185.914 Z" fill="#F4B537"/><path d=" M 239.629 434.293 L 114.207 434.293 C 107.707 434.293 102.387 439.609 102.387 446.113 L 102.387 493.391 C 102.387 499.891 107.707 505.211 114.207 505.211 L 239.629 505.211 C 246.129 505.211 251.449 499.891 251.449 493.391 L 251.449 446.113 C 251.449 439.609 246.129 434.293 239.629 434.293 Z" fill="#FF6B6B"/><path d=" M 133.059 493.391 L 133.059 446.113 C 133.059 439.613 138.375 434.293 144.875 434.293 L 114.207 434.293 C 107.707 434.293 102.387 439.609 102.387 446.113 L 102.387 493.391 C 102.387 499.891 107.707 505.211 114.207 505.211 L 144.875 505.211 C 138.375 505.211 133.059 499.891 133.059 493.391 Z" fill="#EE5253"/><path d=" M 261.734 331.156 L 227.535 331.156 C 223.395 331.156 220.035 334.512 220.035 338.656 C 220.035 342.801 223.395 346.156 227.535 346.156 L 261.734 346.156 C 272.488 346.156 281.234 337.41 281.234 326.656 L 281.234 261.426 C 281.234 250.676 272.488 241.926 261.734 241.926 L 159.664 241.926 C 148.91 241.926 140.164 250.676 140.164 261.426 L 140.164 326.656 C 140.164 337.41 148.91 346.156 159.664 346.156 L 192.531 346.156 C 196.676 346.156 200.035 342.801 200.035 338.656 C 200.035 334.512 196.676 331.156 192.531 331.156 L 159.664 331.156 C 157.227 331.156 155.164 329.094 155.164 326.656 L 155.164 261.426 C 155.164 258.988 157.227 256.926 159.664 256.926 L 261.734 256.926 C 264.172 256.926 266.234 258.988 266.234 261.426 L 266.234 326.656 C 266.234 329.098 264.172 331.156 261.734 331.156 Z"/><path d=" M 327.906 234.539 C 332.047 234.539 335.406 231.184 335.406 227.039 C 335.406 220.977 335.406 103.98 335.406 98.7188 C 335.406 79.8555 320.324 64.0938 301.789 63.5859 C 294.344 63.3828 287.223 65.5039 281.234 69.6367 L 281.234 67.4805 C 281.234 48.6172 266.156 32.8555 247.617 32.3477 C 240.172 32.1563 233.055 34.2656 227.066 38.4023 L 227.066 34.582 C 227.066 15.2305 211.211 -0.484375 191.516 0.0117188 C 172.98 0.519531 157.898 16.2813 157.898 35.1445 L 157.898 38.4023 C 151.91 34.2656 144.781 32.1563 137.344 32.3477 C 118.809 32.8555 103.727 48.6172 103.727 67.4805 L 103.727 255.758 L 96.9453 246.852 L 65.8438 206.023 C 53.0039 188.133 33.6523 184.84 18.1875 193.82 C 4.41016 201.82 -4.72656 219.672 3.79688 238.262 L 57.1133 360.266 C 57.1289 360.305 57.1484 360.348 57.168 360.387 C 57.168 360.391 57.1797 360.414 57.1953 360.453 C 61.832 370.246 70.3594 382.965 78.3672 390.781 C 78.4102 390.82 95.5781 407.824 95.5391 407.785 C 99.7813 411.988 102.258 418.707 103.371 429.219 C 98.0859 432.672 94.5781 438.629 94.5781 445.398 L 94.5781 492.676 C 94.5781 503.328 103.246 511.996 113.898 511.996 L 286.926 511.996 C 297.578 511.996 306.246 503.328 306.246 492.676 L 306.246 445.398 C 306.246 438.32 302.41 432.137 296.715 428.77 C 297.289 414.648 303.969 407.695 312.348 399.02 C 322.633 388.375 335.43 375.125 335.406 346.383 L 335.406 262.039 C 335.406 257.895 332.047 254.539 327.902 254.539 C 323.762 254.539 320.402 257.895 320.402 262.039 L 320.402 346.387 C 320.426 369.07 311.262 378.555 301.559 388.598 C 292.93 397.535 283.234 407.57 281.832 426.078 C 273.754 426.078 125.453 426.078 118.125 426.078 C 115.715 405.945 108.516 399.523 103.188 394.246 C 125.73 358.125 127.465 313.82 113.754 274.105 C 116.852 271.879 118.727 268.316 118.727 264.297 L 118.727 192.699 L 157.898 192.699 L 157.898 192.98 C 157.898 197.125 161.254 200.48 165.398 200.48 C 169.539 200.48 172.898 197.125 172.898 192.98 L 172.898 192.699 L 212.066 192.699 L 212.066 192.98 C 212.066 197.125 215.422 200.48 219.566 200.48 C 223.711 200.48 227.066 197.125 227.066 192.98 L 227.066 192.699 L 266.234 192.699 L 266.234 192.98 C 266.234 197.125 269.59 200.48 273.734 200.48 C 277.879 200.48 281.234 197.125 281.234 192.98 L 281.234 192.699 L 320.402 192.699 L 320.402 227.039 C 320.406 231.184 323.762 234.539 327.906 234.539 Z M 301.375 78.582 C 311.867 78.8672 320.402 87.9023 320.402 98.7188 L 320.402 142.242 L 281.234 142.242 L 281.234 98.1563 C 281.234 87.1563 290.285 78.2695 301.375 78.582 Z M 247.207 47.3438 C 257.699 47.6289 266.234 56.6641 266.234 67.4805 L 266.234 142.242 L 227.066 142.242 L 227.066 66.918 C 227.066 55.8789 236.164 47.0273 247.207 47.3438 Z M 172.898 35.1445 C 172.898 24.3281 181.434 15.293 191.926 15.0039 C 203.047 14.7148 212.066 23.5898 212.066 34.582 L 212.066 142.242 L 172.898 142.242 C 172.898 129.723 172.898 47.7148 172.898 35.1445 Z M 137.758 47.3438 C 148.754 47.0156 157.898 55.8398 157.898 66.918 L 157.898 142.242 L 118.73 142.242 L 118.73 67.4805 C 118.73 56.668 127.266 47.6289 137.758 47.3438 Z M 25.7227 206.793 C 34.6133 201.629 45.543 203.414 53.707 214.84 C 53.75 214.906 53.7969 214.965 53.8438 215.027 L 96.457 270.969 C 104.355 288.84 109.391 314.973 106.77 339.102 C 91.7578 314.348 78.9492 288.168 71.9688 273.211 C 66.1875 260.828 51.4844 255.496 39.1094 261.309 L 31.75 264.766 L 17.5156 232.191 C 17.4961 232.148 17.4766 232.102 17.4531 232.055 C 12.3438 220.965 18.1563 211.184 25.7227 206.793 Z M 92.2266 383.395 C 73.0547 364.414 73.7422 360.859 37.7578 278.516 L 45.4883 274.883 C 50.3359 272.602 56.1055 274.695 58.375 279.555 C 66.7617 297.527 83.4063 331.395 102.383 360.266 C 99.9023 368.316 96.4805 376.105 92.2266 383.395 Z M 286.926 441.082 C 289.27 441.082 291.246 443.059 291.246 445.398 L 291.246 492.68 C 291.246 495.02 289.27 496.996 286.926 496.996 L 258.156 496.996 C 258.469 495.629 258.641 494.008 258.641 492.68 L 258.641 445.398 C 258.641 444.129 258.484 442.52 258.156 441.082 Z M 239.32 441.082 C 241.664 441.082 243.641 443.059 243.641 445.398 L 243.641 492.68 C 243.641 495.02 241.66 496.996 239.32 496.996 L 113.898 496.996 C 111.559 496.996 109.582 495.02 109.582 492.68 L 109.582 445.398 C 109.582 443.379 111.055 441.637 112.965 441.195 C 113.043 441.176 113.117 441.168 113.191 441.152 C 113.426 441.113 113.66 441.078 113.898 441.078 L 239.32 441.078 Z M 118.73 177.703 L 118.73 157.242 L 157.898 157.242 L 157.898 177.703 Z M 172.898 177.703 L 172.898 157.242 L 212.066 157.242 L 212.066 177.703 Z M 227.066 177.703 L 227.066 157.242 L 266.234 157.242 L 266.234 177.703 Z M 281.234 177.703 L 281.234 157.242 L 320.406 157.242 L 320.406 177.703 Z"/></svg>