<svg version="1.1" width="512" height="512" viewBox="0 0 64 64" xmlns="http://www.w3.org/2000/svg" xmlns:xlink="http://www.w3.org/1999/xlink" id="Layer_1_1_" overflow="hidden"><g><path d=" M 36.27 34.74 C 35.53 35.39 34.73 35.96 33.89 36.47 C 33.55 36.67 33.22 36.89 32.9 37.14 L 32.8 37 C 32.46 35.6 31.72 34.32 30.65 33.33 L 26.78 29.76 C 25.82 28.87 24.89 27.94 24 26.97 C 23.11 27.94 22.18 28.87 21.22 29.76 L 17.35 33.33 C 15.86 34.71 15 36.67 15 38.7 C 15 42.72 18.28 46 22.3 46 L 25.7 46 C 26.5 46 27.28 45.87 28 45.63 L 28.07 45.64 C 28.02 46.04 28 46.46 28 46.87 C 28 47.84 28.12 48.79 28.33 49.69 L 28 49.76 C 27.26 49.92 26.49 50 25.7 50 L 22.3 50 C 18.21 50 14.62 47.82 12.64 44.56 C 11.6 42.85 11 40.84 11 38.7 C 11 35.55 12.33 32.53 14.64 30.4 L 16.9 28.31 L 18.37 26.95 L 18.51 26.82 C 20.53 24.96 22.37 22.91 24 20.7 C 25.63 22.91 27.47 24.96 29.49 26.82 L 33.36 30.4 C 34.67 31.61 35.67 33.1 36.27 34.74 Z" fill="#F0BC5E"/><path d=" M 4.66 40.36 C 5.2 40.13 5.79 40 6.41 40 C 6.62 40 6.84 40.02 7.04 40.05 C 8.39 40.24 9.58 41.06 10.26 42.27 L 11.25 44.05 C 11.43 44.37 11.62 44.69 11.81 45 L 9 45 L 8 48 L 5 47 L 4 50 L 3.84 50.08 C 3.1 48.64 2.53 47.11 2.13 45.53 C 2.04 45.18 2 44.82 2 44.46 L 2 44.41 C 2 43.19 2.49 42.09 3.29 41.29 C 3.68 40.9 4.15 40.58 4.66 40.36 Z" fill="#F0BC5E"/><g><path d=" M 46.665 51.708 L 47.335 53.593 C 50.125 52.601 52 49.952 52 47 L 52 46.83 C 52 45.534 51.641 44.265 50.962 43.163 L 47.44 37.44 L 45.737 38.488 L 49.258 44.211 C 49.744 44.999 50 45.904 50 46.83 L 50 47 C 50 49.107 48.66 50.999 46.665 51.708 Z"/><path d=" M 63 46.869 C 63 42.283 60.558 37.968 56.625 35.609 C 54.086 34.086 51.984 31.912 50.546 29.325 L 48.026 24.788 C 48.091 22.262 48.625 19.807 49.655 17.491 L 51.915 12.407 L 50.087 11.595 L 47.827 16.679 C 46.614 19.405 46 22.301 46 25.285 C 46 29.208 47.087 33.049 49.144 36.391 L 52.665 42.113 C 53.538 43.533 54 45.164 54 46.831 L 54 47 C 54 51.962 49.963 56 45 56 C 40.037 56 36 51.962 36 47 L 36 46.831 C 36 45.164 36.462 43.534 37.335 42.114 L 40.856 36.392 C 42.913 33.049 44 29.208 44 25.285 C 44 22.301 43.386 19.405 42.174 16.678 L 39.914 11.594 L 38.086 12.406 L 40.346 17.49 C 41.376 19.807 41.91 22.261 41.975 24.787 L 39.455 29.323 C 39.39 29.44 39.317 29.551 39.25 29.665 C 38.537 28.594 37.712 27.602 36.757 26.72 L 32.886 23.146 C 30.166 20.636 27.821 17.752 25.913 14.576 C 25.638 14.118 25.397 13.644 25.142 13.176 C 26.555 10.413 27.656 7.501 28.411 4.481 L 28.971 2.241 L 27.03 1.758 L 26.47 3.997 C 25.874 6.383 25.031 8.69 24 10.913 C 22.969 8.69 22.126 6.383 21.529 3.998 L 20.969 1.758 L 19.03 2.242 L 19.59 4.482 C 20.345 7.502 21.446 10.413 22.859 13.176 C 22.604 13.644 22.362 14.119 22.088 14.576 C 20.181 17.753 17.835 20.636 15.115 23.146 L 11.245 26.72 C 7.911 29.797 6 34.163 6 38.699 C 6 38.807 6.011 38.912 6.014 39.02 C 5.744 39.04 5.48 39.077 5.223 39.135 C 3.763 35.594 3 31.784 3 27.938 L 3 27 L 1 27 L 1 27.938 C 1 32.056 1.819 36.135 3.386 39.925 C 1.948 40.897 1 42.543 1 44.407 L 1 44.458 C 1 44.901 1.055 45.343 1.162 45.769 C 2.422 50.811 5.405 55.305 9.563 58.422 C 13.499 61.374 18.376 63 23.296 63 C 25.874 63 28.405 62.541 30.818 61.636 L 34.545 60.239 C 35.053 60.048 35.445 59.669 35.699 59.211 C 36.448 59.483 37.217 59.673 38 59.803 L 38 63 L 52 63 L 52 59.811 C 58.228 58.788 63 53.382 63 46.869 Z M 41.429 29.888 C 40.956 31.803 40.198 33.646 39.154 35.344 L 35.633 41.066 C 34.564 42.8 34 44.794 34 46.831 L 34 47 C 34 52.099 37.492 56.386 42.207 57.627 C 41.556 57.868 40.859 58 40.131 58 C 38.61 58 37.13 57.675 35.72 57.061 C 35.373 56.425 34.732 55.971 33.958 55.901 L 33.612 55.87 C 30.725 53.774 29 50.433 29 46.869 C 29 42.981 31.07 39.324 34.404 37.324 C 37.243 35.621 39.593 33.191 41.202 30.296 L 41.429 29.888 Z M 27.172 44.805 C 26.691 44.921 26.201 45 25.699 45 L 22.301 45 C 18.826 45 16 42.173 16 38.699 C 16 36.945 16.738 35.258 18.027 34.07 L 21.897 30.497 C 22.616 29.834 23.32 29.143 24 28.436 C 24.683 29.147 25.387 29.838 26.102 30.497 L 29.974 34.07 C 30.786 34.819 31.365 35.767 31.694 36.819 C 31.069 37.346 30.497 37.927 29.985 38.554 C 29.946 37.41 29.46 36.317 28.617 35.54 C 28.617 35.54 24.699 31.923 24.676 31.902 L 24.001 31.284 L 23.326 31.9 C 23.304 31.921 19.383 35.54 19.383 35.54 C 19.081 35.818 18.822 36.137 18.613 36.487 L 20.33 37.512 C 20.441 37.326 20.578 37.158 20.739 37.01 C 20.739 37.01 22.874 35.039 24 33.999 L 27.261 37.009 C 27.73 37.443 28 38.059 28 38.699 C 28 39.968 26.968 41 25.699 41 L 22.301 41 C 21.122 41 20.116 40.082 20.01 38.91 L 18.018 39.091 C 18.217 41.283 20.098 43.001 22.301 43.001 L 25.699 43.001 C 26.459 43.001 27.164 42.786 27.784 42.438 C 27.508 43.203 27.303 43.995 27.172 44.805 Z M 12.602 28.191 L 16.473 24.617 C 19.331 21.978 21.798 18.946 23.803 15.606 C 23.873 15.489 23.931 15.366 24 15.248 C 24.069 15.366 24.127 15.489 24.197 15.606 C 26.202 18.946 28.669 21.978 31.527 24.617 L 35.398 28.191 C 36.44 29.153 37.317 30.255 38.027 31.469 C 36.753 33.111 35.187 34.517 33.396 35.594 C 32.939 34.458 32.237 33.438 31.329 32.6 L 27.457 29.026 C 26.522 28.164 25.606 27.246 24.735 26.298 L 24 25.496 L 23.264 26.298 C 22.399 27.24 21.483 28.158 20.541 29.027 L 16.671 32.6 C 14.974 34.165 14 36.388 14 38.699 C 14 43.276 17.724 47 22.301 47 L 25.699 47 C 26.138 47 26.572 46.964 27.001 46.896 C 27.008 50.119 28.202 53.189 30.295 55.558 C 26.317 55.143 22.491 53.724 19.214 51.43 C 16.302 49.391 13.849 46.671 12.122 43.562 L 11.133 41.781 C 10.451 40.553 9.325 39.667 8.023 39.257 C 8.016 39.071 8 38.887 8 38.699 C 8 34.719 9.677 30.889 12.602 28.191 Z M 33.842 58.367 L 30.116 59.763 C 23.728 62.159 16.226 60.919 10.762 56.822 C 6.971 53.979 4.25 49.882 3.101 45.283 C 3.034 45.014 3 44.737 3 44.458 L 3 44.407 C 3 43.357 3.487 42.429 4.237 41.803 C 4.519 42.375 4.815 42.941 5.132 43.496 L 6.868 42.504 C 6.592 42.021 6.337 41.529 6.09 41.032 C 6.196 41.022 6.299 41 6.407 41 C 7.643 41 8.785 41.671 9.386 42.752 L 10.375 44.533 C 12.248 47.905 14.908 50.856 18.068 53.068 C 21.714 55.621 25.988 57.184 30.423 57.588 L 33.776 57.893 C 33.903 57.904 34 58.01 34 58.137 C 34 58.239 33.936 58.332 33.842 58.367 Z M 50 61 L 40 61 L 40 59.991 C 40.058 59.991 40.114 60 40.172 60 C 41.947 60 43.628 59.408 45 58.327 C 46.373 59.408 48.059 60 49.869 60 C 49.913 60 49.956 59.994 50 59.993 L 50 61 Z M 49.828 58 C 49.12 58 48.433 57.868 47.789 57.628 C 52.506 56.389 56 52.1 56 47 L 56 46.831 C 56 44.794 55.436 42.801 54.368 41.066 L 50.847 35.344 C 49.803 33.646 49.045 31.804 48.572 29.889 L 48.798 30.296 C 50.406 33.19 52.757 35.62 55.596 37.324 C 58.93 39.324 61 42.981 61 46.869 C 61 53.006 56.007 58 49.828 58 Z"/></g></g></svg>