<svg width="200" height="200" viewBox="0 0 200 200" xmlns="http://www.w3.org/2000/svg" xmlns:xlink="http://www.w3.org/1999/xlink" overflow="hidden"><g><path d="M152 149.8 154 149.8 152 158.8 154.4 160.4 156 162.8 154.4 165.2 152 166.8 100.1 166.8 97.8 166.6 95.5 166.1 93.4 165.1 91.4 163.8 89.7 162 88.4 160 87.4 157.7 86.8 155.3 86.5 152.8 86.5 145 98.5 147 101.5 149 98.5 150.8 98.5 152.8 98.3 154 98.3 155.7 98.4 156.3 98.5 156.7 98.7 157.2 99.2 157.6 99.9 158.1 101 158.5 102.5 158.8 148 158.8ZM61.8 166.8 72 169 85.2 170.6 101.9 171.6 122.8 171.9 148.2 171.5 178.7 170.4 190.1 169.9 179.2 183.5 148.4 184 122.6 183.7 101.3 182.6 84 180.8 70.1 178.1 59.1 174.7 50.7 170.4 44.5 165.3 40.3 159.5 38.9947 156.503 37.981 157.01 37.6 157.6 35.8 160.9 33.9 163.9 31.9 166.9 27.9 172.5 25.9 175.1 23.8 177.7 22.5474 179.328 23.2 183.6 19.7 182.7 10.2 175.2 11.6 173.9 16.6 170.3 19.1 168.4 24.3 164.4 27 162.3 29.7 160.1 31 159.159 31 109 14 109 14 105 31 105 36 100 46 109 41 112 41 154.282 43.6 157 48.4 160.8 54.2 164.1 56.2727 164.836 54.3 162.3 54.9 157.8 58.5 155 60.5 154.9 62.1 154.7 63.6 154.5 64.9 154.1 66.1 153.7 67.2 153.2 68.3 152.4 69.3 151.3 70.2 149.9 70.3 148.2 72.1 148.1 72.3 150.1 72.7 152.1 72.7 154.2 72.3 156.3 71.4 158.4 70.1 160.4 68.5 162.2 66.5 163.8 64.2 165.3 61.6 166.6 60.9543 166.5ZM168.7 159.6 168 158.5 166.9 157.3 165.5 156 163.7 154.6 161.6 153.1 159.2 151.6 156.6 150 153.5 148.9 153.9 147.1 157.2 147.8 160.4 148.1 163.4 148.4 166.1 148.9 168.6 149.4 171 150 173.1 150.7 175.1 151.6 177 152.7 178.8 154.2 179.7 158.7 177.2 162.5 172.7 163.4 168.9 161 169 160.4ZM123.3 155.7 122.2 154.6 120.9 153.5 119.4 152.4 117.6 151.2 115.7 150 113.6 148.8 111.3 147.5 108.7 146.7 109.1 145 111.8 145.3 114.5 145.2 117.1 145.3 119.5 145.4 121.8 145.6 124 145.9 126.1 146.3 128.1 146.8 130 147.3 131.8 148 134.1 152 133.1 156.4 129.1 158.7 124.7 157.7 124.1 156.7ZM154.6 43.6 155.2 46.4 150.828 46.7498 150 47.4 148.4 48.6 146.6 50 144.7 51.5 142.5 53.1 140.1 54.9 138.938 55.9168 140.7 56.7 142.4 57.5 143.9 58.3 145.2 59 146.4 59.8 147.5 60.7 148.5 61.8 148.5 64.5 150.6 61.5 152.6 58.6 154.3 55.9 155.9 53.3 156.826 51.7133 156.8 51.7 157.067 51.3 157.3 50.9 157.323 50.9156 157.8 50.2 163.9 55.4 164.5 58.2 161.456 58.3218 159.9 60.1 157.7 62.6 155.2 65.2 149.7 70.7 146.6 73.6 143.3 76.6 139.908 79.5205 140.1 79.5 142.8 79.3 145.6 79 148.5 78.8 151.4 78.5 154.4 78.2 157.5 78 158.224 77.9035 158.2 77.8 157.7 76.4 157.1 74.8 156.4 73.2 155.5 71.5 154.2 70.1 155.1 69.2 156.5 70.6 158.1 71.8 159.6 72.9 161 74.2 162.2 75.4 163.3 76.7 164.3 78 165.2 79.4 165.9 80.9 165.9 53.5 174.9 55.5 177.1 57.5 174.9 59.0714 174.9 123.6 165.9 128.1 165.9 84.575 165.7 85.3 163.1 86.9 160.2 86.1 158.6 83.5 158.8 82.6 158.8 81.5 158.7 80.4 158.557 79.4733 157.9 79.7 155 80.9 152.2 82 149.4 83 146.7 83.9 144 84.9 138.6 86.5 137.814 86.7418 137.298 87.4992 144.1 90.9 151.2 90.9 155.7 84.9 161.7 90.9 161.7 94.9 144.1 94.9 144.1 98.3 159.5 98.3 159.5 102.3 144.1 102.3 144.1 106.3 159.5 106.3 159.5 109.2 164 113.7 164 117.7 157.825 117.7 163.9 126 163 126.1 162 126.2 160.9 126.2 159.8 126.3 158.6 126.4 157.3 126.5 154.5 126.7 153.743 126.747 154 127.1 155.8 129.1 157.5 130.8 159.2 132.3 161 133.5 162.7 134.5 164.4 135.2 167.6 137 160.2 142.9 158 141.2 156 139.2 154.2 137.1 152.6 134.7 151.547 132.82 150.6 133.6 148.8 135 145.2 137.6 143.4 138.8 141.7 139.9 140.512 140.626 138.9 144.2 136.3 143.1 131.7 136.2 133.5 135.6 135.4 135.2 136.1 135.016 136.1 119.75 133.713 119.989 133.8 121.9 133.8 123.8 133.9 125.5 133.9 127 133.8 128.3 133.8 129.5 133.7 130.5 133.5 131.4 133.1 132.7 131.7 134.5 130.3 136.2 128.7 137.6 127 138.8 125.2 139.9 123.3 140.7 121.4 141.2 119.4 141.6 117.3 141.7 115.1 141.7 115.1 139.7 111.1 137.9 111.1 136.2 115.1 136.2 115.1 137.6 116.9 137.4 118.5 137 119.9 136.5 121.2 135.9 122.4 135.1 123.5 134.2 124.5 133.2 125.4 132 126.2 130.7 126.8 129.575 126.8 128.1 126.9 127 126.9 125.6 126.851 124.821 126.6 125 126.6 119.5 109.7 119.5 101.7 123.5 101.7 86.3 103.9 87.4 103.9 83.6095 102 85.6 98.9 85.4 96.8 83.3 96.4 80.7 96.2087 79.871 94.4 80.7 91.9 81.7 89.5 82.7 79.1 86.3 77.9164 86.6945 77.0912 87.9456 83 90.9 89.1 90.9 93.6 84.9 99.6 90.9 99.6 94.9 83 94.9 83 98.3 96.8 98.3 96.8 102.3 83 102.3 83 106.3 96.8 106.3 96.8 110.3 96.7 110.3 100.7 114.3 100.7 118.3 94.5333 118.3 101.7 125.3 100.6 125.7 99.6 126 98.5 126.3 97.3 126.5 96.2 126.7 93.6 127.1 92.7225 127.225 93.5 128.1 96.6 131.2 98.2 132.4 99.7 133.5 101.035 134.301 101.3 133.8 101.9 133.6 102.5 133.2 103.1 132.6 103.6 131.8 104.1 130.8 104.6 129.6 105 128.2 105.3 126.6 105.5 124.8 105.4 122.8 106.2 122.8 106.3 124.7 106.7 126.6 106.9 128.3 107 129.9 107 131.4 106.8 132.9 106.4 134.3 105.9 135.6 105.2 136.8 104.3 137.8 102.4 138.3 100.914 137.371 95.7 141.3 94.2 139.5 92.7 137.6 91.4 135.6 90.1 133.4 89.896 133.009 86.9 135.3 85.3 136.6 83.6 137.7 81.9 138.9 80.3 140 79.5501 140.441 77.9 144.1 75.3 143 71.4 137.44 71.4 138.8 71.2 140.7 70.9 142.6 70.4 144.3 69.8 145.9 68.8 147.4 67.6 148.8 66 149.8 64.3 150.4 62.4 150.6 62.4 146.6 56.5 144.6 56.5 142.6 62.4 142.6 62.6 142.4 63.1 140.9 63.3 139.7 63.4 138.3 63.4 107.6 56.7 107.6 56.7 109.2 56.4 115.5 56 121.4 55.4 126.9 54.7 131.8 53.9 136.3 52.9 140.3 51.8 143.8 50.4 146.8 48.9 149.3 47.3 151.1 46.3 150.5 46.9 148.3 47.4 145.8 47.8 142.8 48.2 139.4 48.5 135.6 48.8 131.2 48.9 126.4 48.9 115.4 48.7 109.2 48.7 47.2 56.7 51.2 63.4 51.2 67.4 46.2 75.0286 53.8286 75.8 54 77.4 54.6 78.0761 54.8958 79.3 53.4 80.7 51.1 82.1 49 83.2 47 84.3 45.3 85.2 43.7 86 42.2 86.7 41 87.0944 39.9155 86.9 39.8 87.525 38.925 83.7 39.9 77.9 41.1 71.3 41.9 64 42.6 56 42.9 47.2 42.8 47 41.1 55.5 39.1 63.2 37.3 70.1 35.5 76.1 33.7 81.2 31.8 85.4 30 88.6 28.1 90.8 26.3 91.9757 24.9284 91.9 24.9 92.0714 24.5 60.9714 24.5 61 25.1 60.8 27.1 60.2 29.2 59.1 31.2 57.7 33 55.9 34.7 53.9 36.2 51.6 37.4 47 36.8 44.2 33.2 44.8 28.7 48.4 25.8 51.2 25.8 52.4 25.6 53.5 25.4 54.5 25 55.6 24.4 56.5 23.6 57.5 22.4 58.4 20.9 58.4 19.1 60.2 19 60.35 20.5 110 20.5 110 11.4 122 13.4 125 15.4 122 17.2 122 20.5 172.3 20.5 173.615 19.4038 174.2 18.6 174.8 17.6 175.168 18.11 178.3 15.5 189.3 24.5 184.3 27.5 181.036 28.86 179.1 33.7 181.2 35.1 182.6 37.2 181.2 39.3 179.1 40.7 151.075 40.7ZM167.2 138.9 176 138.9 176.2 138.8 176.3 138.8 176.3 138.7 176.5 138.5 176.7 138.1 177 137.4 177.2 136.3 177.3 135 177.4 133.4 177.4 44.7 186.4 46.7 188.6 48.7 186.4 50.2714 186.4 133.4 186.3 135.6 186.1 137.7 185.6 139.7 185 141.6 184.1 143.3 182.9 144.9 181.3 146.2 179.5 147.2 177.6 147.8 175.6 147.9 175.6 143.4 167.2 141.2ZM71.4 135.989 72.4 135.6 75 135.022 75 118.3 72.4 118.3 72.4 114.3 75 114.3 75 88.9333 73.6 88 71.4 83.4778ZM111 135.3 109.4 134.3 109 132.4 109.6 131 109.8 130.3 110 129.4 110.1 128.6 110.2 127.6 110.2 125.6 110.1 124.5 109.6 123.5 110.3 123.2 110.8 124.2 111.4 125.2 112 126.1 112.5 127.1 113.3 129.1 113.6 130.2 113.8 131.2 113.9 132.3 113.9 133.4 112.9 134.9ZM83 118.3 83 133.032 83.5 132.9 87.5 131.9 89.1166 131.515 88.9 131.1 87.9 128.6 86.9 126 86.1 123.3 85.3 120.4 84.67 118.3ZM144.1 117.7 144.1 132.975 145.2 132.7 149.4 131.5 150.728 131.138 150 129.5 148.9 126.6 148 123.5 147.3 120.2 146.712 117.7ZM115.8 128.1 115.8 127.5 115.7 126.8 115.6 126 115 124.4 114.6 123.5 113.9 122.8 114.4 122.2 115.2 123 116 123.5 116.8 124.1 118.2 125.5 118.8 126.2 119.3 127.1 119.8 127.9 120.1 128.8 120.4 129.8 119.6 131.5 117.9 132.3 116.1 131.5 115.4 129.8 115.6 129.3ZM164.1 129.6 158.7 127.4 163.9 126ZM102.6 128.8 96.9 127.7 101.7 125.3ZM120.5 125.1 120.3 124.5 120 123.8 119.7 123.2 119.3 122.5 118.8 121.8 118.3 121.2 117.5 120.7 117.8 120.1 118.7 120.5 119.6 120.7 120.4 121.1 121.3 121.4 122.9 122.4 124.3 123.8 124.9 124.5 125.4 125.4 125.3 127.3 123.8 128.5 121.9 128.4 120.7 127 120.7 126.3ZM148.169 117.7 149 119.6 150.7 122.3 152.307 124.757 152.9 123.9 153.7 122.7 154.4 121.6 155.1 120.6 155.6 119.6 156.1 118.7 156.4 117.8 156.443 117.7ZM86.1741 118.3 86.9 119.7 88.6 122 90.3 124.2 90.4888 124.448 91.1 123.4 91.7 122.3 92.5 120.3 92.8 119.4 92.899 118.608 92.4945 118.3ZM109.7 111.5 109.7 115.5 114.5 115.5 114.5 111.5ZM122.5 111.5 122.5 115.5 126.6 115.5 129.4 111.5ZM83 110.3 83 114.3 90.2 114.3 93.2 110.3ZM131.3 85.1 128.9 86.3 132.9 90.3 132.9 94.3 122.5 94.3 122.5 98.9 131.2 98.9 131.2 102.9 122.5 102.9 122.5 107.5 131.2 107.5 131.2 111.5 131.044 111.5 133.4 113.994 133.4 113.7 136.1 113.7 136.1 89.2594 135.8 89.7 133.5 88.1 131.3 83.1824ZM144.1 110.3 144.1 113.7 153.5 113.7 156.05 110.3ZM109.7 102.9 109.7 107.5 114.5 107.5 114.5 102.9ZM56.7 80.8 56.7 103.6 63.4 103.6 63.4 80.8ZM109.7 94.3 109.7 98.9 114.5 98.9 114.5 94.3ZM111.9 85.1 105.6 88.25 109.7 90.3 122.4 90.3 123.3 89.1 123.3 85.1ZM26.4 75.9 24.2 71.1 23 68.9 21.7 66.6 20.3 64.4 18.8 62.3 17.2 60.1 15.3 58.3 16.3 56.8 18.7 58.1 21.4 59.2 23.9 60.6 26.3 62.2 28.7 64 30.9 66 33.1 68.1 37.1 72.9 39 75.6 39.2 80.1 36.3 83.6 31.7 83.9 28.2 81 27.4 78.4ZM111.9 74.6 111.9 81.1 123.3 81.1 123.3 74.6ZM141.3 64.2 141 63.4 140.4 62.4 139.5 61.2 138.4 59.9 137.1 58.5 135.6 57 133.9 55.4 131.8 54 132.291 53.1 126.2 53.1 129.6 56.5 129.6 60.5 126.2 60.5 129.6 63.9 129.6 67.9 136.3 74.6 131.3 76.6 131.3 80.32 132.1 80.2 136.974 79.8251 138.3 78.2 141 74.5 143.7 71 146.2 67.7 147.257 66.2297 146.5 67.1 143.4 67.1 141.2 65.1 141.4 64.8ZM56.7 55.2 56.7 76.8 63.4 76.8 63.4 55.2ZM106.5 67.9 111.9 70.6 123.3 70.6 125.46 67.9ZM31.8 38.2 30.8 35.8 29.7 33.5 27.1 28.9 25.6 26.6 24.1 24.2 22.2 22.3 23.3 20.8 25.7 22.3 28.4 23.6 30.9 25.2 33.3 26.9 37.7 30.9 39.8 33.2 41.7 35.6 43.5 38.1 45.2 40.8 45.3 45.4 42.2 48.7 37.6 48.7 34.3 45.6 32.7 40.6ZM178.145 30.0647 172.3 32.5 172.3 29.925 171.6 30.1 169.5 30.6 167.2 31.1 164.8 31.6 162.5 32.6 161.7 31 163.8 29.7 165.5 28 167.2 26.4 169.1 24.5 138.2 24.5 138.2 27.2 138 28.5 137.9 29.5 137.9 30.8 138 31.3 138.2 31.8 138.7 32.4 139.5 32.9 140.7 33.4 142.2 33.7 175.6 33.7ZM78.6 61.8 78 60.7 77.3 59.5 76.5 58.4 75.6 57.2 74.6 56 74.5461 55.9416 71.4 57.2 71.4 80.32 72 80.2 76.8406 79.6814 76.9 79.6 79.4 75.9 81.9 72.4 84.3 69 88.7 62.6 90.8 59.5 92.7 56.5 94.6 53.6 95.7863 51.6462 95.7 51.6 96.8 50.1 102.8 55.4 103.3 58.2 100.513 58.3115 98.4 60.7 93.4 66.3 90.7 69.1 87.9 72 84.9 75 81.8 78 80.3165 79.3089 80.4 79.3 85.8 78.7 88.5 78.5 91.1 78.3 93.8 78.1 95.6759 78.0278 95.3 76.9 94.9 75.6 94.3 74.3 93.8 73 93.1 71.7 92.1 70.7 93 69.8 94.1 70.7 96.7 72.3 98 73.2 99.1 74.2 100.3 75.3 101.4 76.5 102.4 77.7 103.3 79 103.9 79.84 103.9 66.6 105.1 67.2 105.1 63.9 119.1 63.9 121.65 60.5 105.1 60.5 105.1 56.5 119.1 56.5 121.65 53.1 103.5 53.1 103.5 49.1 122.9 49.1 125.45 45.7 105.1 45.7 105.1 41.7 119.1 41.7 123.6 35.7 129.6 41.7 129.6 45.3 133.4 49.1 133.4 53.1 132.738 53.1 134.6 54.2 136.8 55.1 137.619 55.4121 139 53.9 140.7 51.4 142.3 49.2 143.7 47.2 144.8 45.4 145.9 43.7 146.7 42.3 147.3 41.1 147.445 40.7 142.2 40.7 139.8 40.8 137.6 40.7 135.4 40.2 133.3 39.3 131.3 38 129.6 36.4 128.2 34.4 127.2 32.1 126.5 29.7 126.2 27.2 126.2 24.5 95.5794 24.5 103.1 29.1 105 32.2 100.247 32.6917 97.2 35 93.3 37 88.8 38.6 88.2617 38.7372 93.8 43.9 94.2 46.7 90.1552 46.6191 89.4 47.2 87.9 48.4 86.3 49.7 84.5 51.1 82.5 52.7 80.4 54.4 79.3261 55.4739 80.5 56.1 81.9 57 83.3 58 84.5 59.1 85.7 60.4 86.8 61.7 86.9 64.7 84.9 67 81.9 67.2 79.6 65.2 79 63Z"/></g></svg>