<svg version="1.1" viewBox="0 0 512 512" xmlns="http://www.w3.org/2000/svg" xmlns:xlink="http://www.w3.org/1999/xlink" id="Layer_1" overflow="hidden"><path d=" M 67.432 130.708 C 74.405 130.708 80.458 126.958 83.853 121.427 C 84.018 121.49 84.208 121.514 84.374 121.577 C 85.616 122.06 86.915 122.441 88.242 122.756 C 88.615 122.836 88.972 122.938 89.342 123.009 C 91.013 123.328 92.721 123.532 94.487 123.532 C 101.673 123.532 108.153 120.779 113.154 116.369 C 118.685 123.578 127.304 128.311 137.092 128.311 C 144.996 128.311 152.119 125.217 157.517 120.256 C 159.725 120.794 162.005 121.165 164.378 121.165 C 167.213 121.165 169.942 120.745 172.522 119.986 C 176.178 124.592 181.764 127.607 188.111 127.607 C 193.475 127.607 198.334 125.462 201.936 122.012 C 207.925 134.151 211.385 147.936 211.385 162.648 C 211.385 210.998 174.839 265.957 129.757 265.957 C 84.676 265.957 48.132 210.998 48.132 162.648 C 48.132 149.725 50.814 137.507 55.531 126.493 C 58.805 129.078 62.906 130.708 67.432 130.708 Z" fill="#C6836F"/><g opacity="0.15"><path d=" M 73.16 162.646 C 73.16 149.723 75.842 137.505 80.558 126.491 C 83.834 129.078 87.934 130.708 92.461 130.708 C 99.433 130.708 105.485 126.958 108.882 121.427 C 109.047 121.49 109.236 121.514 109.403 121.577 C 110.645 122.06 111.943 122.441 113.271 122.756 C 113.644 122.836 114.001 122.938 114.371 123.009 C 116.042 123.328 117.749 123.532 119.516 123.532 C 119.971 123.532 120.423 123.52 120.872 123.499 C 117.912 121.581 115.3 119.164 113.155 116.369 C 108.154 120.778 101.673 123.532 94.488 123.532 C 92.722 123.532 91.014 123.328 89.343 123.009 C 88.972 122.938 88.616 122.836 88.243 122.756 C 86.916 122.441 85.618 122.06 84.375 121.577 C 84.209 121.514 84.019 121.49 83.854 121.427 C 80.458 126.958 74.406 130.708 67.433 130.708 C 62.907 130.708 58.807 129.078 55.531 126.491 C 50.814 137.506 48.132 149.723 48.132 162.646 C 48.132 210.996 84.676 265.955 129.757 265.955 C 134.012 265.955 138.191 265.464 142.271 264.537 C 103.132 255.638 73.16 206.433 73.16 162.646 Z" fill="#231F20"/></g><g><path d=" M 384.997 373.374 C 385.464 373.674 385.978 373.888 386.452 374.172 L 386.452 441.523 L 352.695 441.523 L 352.695 407.512 C 368.586 402.566 380.961 389.659 384.997 373.374 Z" fill="#EFC49A"/><path d=" M 143.353 357.095 C 151.036 361.788 160.034 364.542 169.689 364.542 C 170.44 364.542 171.176 364.463 171.921 364.429 C 173.154 368.024 174.942 371.363 177.12 374.385 L 177.12 441.522 L 143.352 441.522 L 143.352 384.547" fill="#EFC49A"/><path d=" M 66.451 92.194 C 67.97 77.966 79.871 66.855 94.488 66.855 C 97.551 66.855 100.446 67.464 103.2 68.357 C 103.169 67.764 103.026 67.195 103.026 66.586 C 103.026 50.579 116.005 37.606 132.004 37.606 C 146.986 37.606 159.163 48.994 160.691 63.571 C 161.916 63.42 163.12 63.199 164.378 63.199 C 179.041 63.199 191.022 74.12 192.97 88.236 C 201.66 90.429 208.116 98.224 208.116 107.592 C 208.116 118.64 199.157 127.606 188.111 127.606 C 181.717 127.606 176.091 124.551 172.426 119.89 C 169.863 120.634 167.188 121.165 164.379 121.165 C 162.006 121.165 159.726 120.794 157.518 120.256 C 152.12 125.216 144.998 128.311 137.093 128.311 C 127.305 128.311 118.687 123.578 113.155 116.369 C 108.154 120.778 101.673 123.532 94.488 123.532 C 90.721 123.532 87.136 122.764 83.853 121.427 C 80.457 126.958 74.405 130.708 67.432 130.708 C 56.766 130.708 48.132 122.059 48.132 111.4 C 48.132 101.088 56.258 92.716 66.451 92.194 Z" fill="#EFC49A"/></g><g opacity="0.15"><path d=" M 146.984 51.408 C 141.67 46.523 134.761 43.832 127.534 43.832 C 111.556 43.832 98.556 56.832 98.556 72.812 C 98.556 73.021 98.568 73.232 98.592 73.44 C 98.601 73.511 98.615 73.62 98.646 73.817 C 98.681 74.073 98.716 74.33 98.73 74.585 C 95.613 73.574 92.762 73.083 90.018 73.083 C 75.577 73.083 63.524 83.977 61.981 98.422 C 51.709 98.948 43.662 107.385 43.662 117.628 C 43.662 128.275 52.32 136.936 62.962 136.936 C 63.417 136.936 63.87 136.92 64.32 136.888 C 66.999 136.697 69.126 134.554 69.293 131.873 C 69.821 123.473 75.935 116.276 84.159 114.37 C 86.15 113.909 85.179 115.989 85.32 113.949 C 86.631 94.992 102.462 88.552 115.611 88.552 C 116.552 88.552 117.521 88.611 118.493 88.728 C 121.391 89.06 124.145 87.061 124.442 84.162 C 125.867 70.315 135.389 60.792 152.825 58.512 C 154.738 58.262 152.722 54.894 153.157 53.013 C 153.589 51.13 148.406 52.714 146.984 51.408 Z" fill="#231F20"/></g><g><path d=" M 211.386 162.646 C 211.386 147.935 207.926 134.15 201.937 122.01 C 201.897 122.05 201.851 122.074 201.81 122.105 C 204.446 119.629 206.36 116.416 207.34 112.815 C 217.005 118.401 241.654 136.159 250.2 176.216 C 260.931 226.458 203.907 228.161 203.336 207.84 C 203.305 206.636 203.194 205.433 203.021 204.199 C 208.323 190.755 211.386 176.449 211.386 162.646 Z" fill="#EFC49A"/><path d=" M 9.388 176.218 C 16.993 140.616 37.291 122.644 48.512 115.159 C 49.423 119.757 52.001 123.697 55.547 126.493 C 55.539 126.493 55.531 126.493 55.531 126.493 C 50.814 137.508 48.132 149.725 48.132 162.648 C 48.132 176.505 51.21 190.875 56.559 204.36 C 56.402 205.523 56.275 206.694 56.252 207.843 C 55.681 228.163 -1.335 226.46 9.388 176.218 Z" fill="#EFC49A"/></g><path d=" M 129.757 265.956 C 161.966 265.956 189.742 237.863 203.021 204.201 C 203.195 205.434 203.305 206.638 203.336 207.842 C 203.906 228.164 260.931 226.461 250.2 176.218 C 244.487 149.423 231.573 132.648 220.755 122.779 C 230.938 103.534 251.07 90.383 274.359 90.383 C 300.965 90.383 323.518 107.507 331.755 131.31 C 341.711 122.661 354.672 117.391 368.901 117.391 C 392.498 117.391 412.725 131.809 421.271 152.321 C 425.608 150.794 430.213 149.806 435.072 149.806 C 458.195 149.806 476.94 168.551 476.94 191.674 C 476.94 192.853 476.688 193.96 476.592 195.115 C 492.214 198.384 503.95 212.217 503.95 228.81 C 503.95 241.266 497.27 252.083 487.362 258.131 C 497.381 265.91 503.95 277.946 503.95 291.611 C 503.95 315.115 484.902 334.153 461.408 334.153 C 459.776 334.153 458.242 333.853 456.659 333.678 C 456.659 333.837 456.683 333.996 456.683 334.153 C 456.683 351.247 447.449 366.156 433.726 374.259 L 433.726 441.522 L 386.45 441.522 L 386.45 374.17 C 385.976 373.885 385.462 373.672 384.995 373.372 C 379.821 394.263 361.003 409.782 338.512 409.782 C 319.425 409.782 303.005 398.608 295.291 382.473 C 288.184 396.613 273.702 406.403 256.799 406.403 C 243.875 406.403 232.298 400.722 224.385 391.723 L 224.385 441.522 L 177.119 441.522 L 177.119 374.385 C 174.942 371.364 173.153 368.024 171.92 364.429 C 171.175 364.462 170.439 364.542 169.688 364.542 C 141.723 364.542 119.042 341.861 119.042 313.896 C 119.042 306.631 120.601 299.74 123.356 293.494 C 102.448 289.507 86.629 271.148 86.629 249.069 C 86.629 248.776 86.686 248.5 86.694 248.206 C 99.205 259.087 113.931 265.956 129.757 265.956 Z" fill="#EDCF9A"/><path d=" M 143.353 474.391 L 143.353 441.523 L 177.121 441.523 L 177.121 474.391 L 160.242 469.326 Z" fill="#7C797B"/><path d=" M 224.386 474.391 L 224.386 441.523 L 177.121 441.523 L 177.121 474.391 L 200.741 469.326 Z" fill="#918D8F"/><path d=" M 352.695 474.391 L 352.695 441.523 L 386.452 441.523 L 386.452 474.391 L 369.574 469.326 Z" fill="#7C797B"/><path d=" M 433.728 474.391 L 433.728 441.523 L 386.452 441.523 L 386.452 474.391 L 410.084 469.326 Z" fill="#918D8F"/><g><path d=" M 512 228.809 C 512 212.883 502.992 198.554 489.443 191.311 C 507.979 159.625 505.529 131.942 499.9 113.887 C 493.437 93.155 481.572 80.525 481.07 79.997 C 478.006 76.778 472.914 76.653 469.692 79.714 C 466.472 82.777 466.346 87.872 469.409 91.091 C 469.765 91.465 501.213 125.404 481.062 172.295 C 473.481 154.371 455.725 141.757 435.072 141.757 C 431.922 141.757 428.779 142.087 425.58 142.758 C 414.26 122.249 392.718 109.342 368.901 109.342 C 356.921 109.342 345.234 112.686 335.108 118.902 C 323.311 96.667 300.053 82.334 274.359 82.334 C 252.151 82.334 231.627 93.015 218.796 110.738 C 217.873 110.058 216.982 109.426 216.132 108.849 C 216.15 108.432 216.164 108.013 216.164 107.592 C 216.164 96.536 209.692 86.72 199.913 82.193 C 195.74 67.348 182.594 56.425 167.136 55.256 C 162.339 40.184 148.351 29.559 132.006 29.559 C 114.248 29.559 99.37 42.127 95.797 58.835 C 95.36 58.817 94.925 58.808 94.489 58.808 C 78.016 58.808 63.964 69.817 59.62 85.253 C 48.308 88.607 40.146 99.017 40.09 111.273 C 27.434 120.798 8.877 140.084 1.518 174.537 C -2.815 194.839 2.946 207.343 8.541 214.258 C 15.533 222.899 26.642 228.058 38.256 228.058 C 45.442 228.058 51.719 226.061 56.313 222.674 C 62.374 233.645 69.939 243.643 78.663 251.845 C 79.766 273.089 93.433 291.485 112.953 298.885 C 111.652 303.768 110.996 308.788 110.996 313.894 C 110.996 342.741 131.923 366.779 159.389 371.666 C 159.408 371.669 159.427 371.672 159.446 371.676 C 160.54 371.869 161.644 372.034 162.758 372.166 C 162.877 372.18 162.997 372.198 163.116 372.211 C 164.27 372.341 165.431 372.447 166.605 372.508 C 167.011 373.319 167.447 374.121 167.903 374.915 C 168.277 375.567 168.665 376.215 169.073 376.855 L 169.073 433.475 L 151.4 433.475 L 151.4 384.547 C 151.4 380.102 147.798 376.5 143.353 376.5 C 138.908 376.5 135.306 380.102 135.306 384.547 L 135.306 441.522 L 135.306 474.391 C 135.306 476.935 136.509 479.329 138.548 480.847 C 140.589 482.366 143.229 482.829 145.664 482.099 L 160.24 477.728 L 174.807 482.099 C 174.861 482.115 174.915 482.12 174.969 482.134 C 175.234 482.208 175.502 482.267 175.774 482.313 C 175.858 482.327 175.941 482.346 176.025 482.358 C 176.373 482.405 176.722 482.433 177.074 482.434 C 177.088 482.434 177.103 482.437 177.117 482.437 C 177.162 482.437 177.207 482.427 177.252 482.426 C 177.576 482.421 177.9 482.394 178.224 482.349 C 178.33 482.334 178.435 482.318 178.541 482.3 C 178.629 482.284 178.718 482.277 178.805 482.258 L 200.739 477.554 L 222.698 482.259 C 223.257 482.378 223.822 482.437 224.384 482.437 C 226.208 482.437 227.998 481.816 229.443 480.647 C 231.334 479.119 232.431 476.82 232.431 474.39 L 232.431 441.521 L 232.431 408.27 C 239.838 412.282 248.2 414.451 256.798 414.451 C 271.712 414.451 285.513 408.018 295.09 397.082 C 305.594 409.977 321.554 417.831 338.511 417.831 C 340.581 417.831 342.627 417.71 344.646 417.489 L 344.646 441.524 L 344.646 474.393 C 344.646 476.937 345.849 479.332 347.89 480.85 C 349.932 482.368 352.568 482.831 355.007 482.101 L 369.571 477.73 L 384.137 482.101 C 384.345 482.163 384.559 482.196 384.769 482.242 C 384.907 482.272 385.043 482.311 385.182 482.333 C 385.603 482.401 386.026 482.441 386.448 482.441 L 386.448 482.441 L 386.448 482.441 C 386.825 482.441 387.202 482.405 387.579 482.351 C 387.673 482.338 387.767 482.323 387.86 482.306 C 387.951 482.29 388.043 482.281 388.135 482.262 L 410.079 477.558 L 432.038 482.263 C 434.416 482.773 436.893 482.18 438.783 480.651 C 440.674 479.123 441.771 476.824 441.771 474.394 L 441.771 441.525 L 441.771 378.617 C 453.864 369.978 461.95 356.712 464.134 342.13 C 490.767 340.709 511.995 318.593 511.995 291.613 C 511.995 279.372 507.572 267.794 499.615 258.679 C 507.5 250.823 512 240.204 512 228.809 Z M 211.247 205.325 C 211.246 205.309 211.246 205.294 211.244 205.279 C 215.843 193.134 218.651 180.41 219.289 168.024 C 219.293 167.942 219.299 167.861 219.303 167.779 C 219.339 167.048 219.365 166.319 219.387 165.59 C 219.391 165.453 219.398 165.314 219.401 165.178 C 219.422 164.333 219.433 163.488 219.433 162.647 C 219.433 161.238 219.394 159.837 219.337 158.439 C 219.325 158.154 219.314 157.868 219.301 157.583 C 219.234 156.229 219.143 154.879 219.023 153.536 C 219.002 153.291 218.974 153.049 218.95 152.804 C 218.828 151.539 218.683 150.277 218.513 149.022 C 218.49 148.859 218.473 148.695 218.45 148.531 C 218.261 147.191 218.04 145.859 217.798 144.532 C 217.744 144.24 217.69 143.948 217.634 143.656 C 217.38 142.333 217.105 141.015 216.797 139.705 C 216.757 139.538 216.713 139.37 216.673 139.203 C 216.38 137.986 216.062 136.776 215.723 135.571 C 215.655 135.332 215.592 135.091 215.522 134.853 C 215.152 133.573 214.753 132.302 214.329 131.035 C 214.238 130.76 214.142 130.488 214.048 130.214 C 213.601 128.914 213.136 127.619 212.633 126.334 C 212.632 126.332 212.631 126.329 212.63 126.326 C 213.424 126.985 214.239 127.692 215.067 128.439 C 215.159 128.531 215.233 128.635 215.331 128.723 C 223.513 136.186 233.933 148.951 240.009 168.894 C 240.011 168.903 240.014 168.911 240.017 168.919 C 240.442 170.316 240.845 171.75 241.226 173.219 C 241.246 173.296 241.265 173.377 241.285 173.454 C 241.656 174.901 242.008 176.38 242.331 177.897 C 242.582 179.074 242.784 180.222 242.953 181.352 C 243.012 181.748 243.067 182.142 243.116 182.531 C 243.293 183.933 243.405 185.295 243.452 186.617 C 243.711 193.812 242.063 199.779 238.54 204.134 C 234.573 209.037 228.141 211.965 221.334 211.965 C 216.005 211.965 211.447 209.973 211.381 207.63 C 211.361 206.873 211.316 206.107 211.247 205.325 Z M 66.863 100.23 C 70.815 100.028 74.033 96.983 74.453 93.048 C 75.557 82.703 84.171 74.902 94.488 74.902 C 96.375 74.902 98.414 75.266 100.72 76.012 C 103.245 76.831 106.005 76.352 108.104 74.737 C 110.206 73.122 111.378 70.576 111.237 67.929 C 111.212 67.447 111.157 66.971 111.09 66.496 L 111.075 66.382 C 111.184 54.933 120.531 45.652 132.005 45.652 C 142.676 45.652 151.568 53.716 152.689 64.409 C 152.914 66.556 153.993 68.524 155.682 69.868 C 157.373 71.211 159.535 71.827 161.675 71.556 C 162.01 71.515 162.343 71.47 162.677 71.424 C 163.345 71.332 163.976 71.245 164.379 71.245 C 174.711 71.245 183.577 79.022 184.999 89.334 C 185.447 92.583 187.822 95.235 191.002 96.037 C 196.341 97.386 200.069 102.137 200.069 107.592 C 200.069 108.387 199.987 109.164 199.838 109.916 C 199.738 110.173 199.647 110.434 199.574 110.704 C 198.986 112.867 197.853 114.781 196.299 116.24 C 196.256 116.281 196.22 116.325 196.178 116.366 C 194.522 117.89 192.53 118.911 190.394 119.334 C 190.304 119.351 190.211 119.361 190.12 119.376 C 189.841 119.424 189.561 119.471 189.278 119.499 C 188.894 119.537 188.504 119.558 188.111 119.558 C 187.66 119.558 187.214 119.531 186.772 119.48 C 186.359 119.432 185.95 119.358 185.547 119.265 C 185.521 119.259 185.494 119.257 185.469 119.251 C 182.893 118.646 180.557 117.162 178.826 114.982 C 178.565 114.654 178.282 114.351 177.979 114.073 C 175.926 112.113 172.963 111.355 170.182 112.16 C 167.937 112.811 166.092 113.116 164.378 113.116 C 162.902 113.116 161.325 112.9 159.421 112.436 C 156.808 111.798 154.052 112.509 152.072 114.33 C 147.908 118.155 142.588 120.262 137.092 120.262 C 130.225 120.262 123.826 117.057 119.539 111.469 C 118.182 109.701 116.152 108.574 113.933 108.359 C 111.717 108.147 109.505 108.858 107.832 110.332 C 105.167 112.682 100.687 115.484 94.487 115.484 C 93.382 115.484 92.192 115.36 90.875 115.108 L 90.624 115.047 C 90.431 115 90.238 114.954 90.04 114.91 C 88.983 114.657 88.081 114.383 87.215 114.046 C 86.828 113.899 86.496 113.802 86.2 113.728 C 85.779 113.599 85.353 113.511 84.927 113.454 C 84.9 113.451 84.874 113.444 84.848 113.441 C 84.446 113.391 84.043 113.376 83.642 113.386 C 83.596 113.387 83.55 113.386 83.504 113.388 C 83.116 113.405 82.731 113.453 82.353 113.525 C 82.298 113.536 82.244 113.544 82.19 113.556 C 81.818 113.634 81.452 113.741 81.095 113.871 C 81.04 113.891 80.987 113.911 80.933 113.932 C 80.578 114.07 80.232 114.233 79.9 114.421 C 79.853 114.448 79.806 114.477 79.758 114.504 C 79.424 114.701 79.102 114.92 78.799 115.166 C 78.763 115.195 78.728 115.227 78.693 115.257 C 78.385 115.514 78.092 115.793 77.822 116.099 C 77.802 116.122 77.783 116.147 77.763 116.171 C 77.484 116.494 77.225 116.839 76.996 117.213 C 74.903 120.622 71.328 122.657 67.433 122.657 C 64.37 122.657 62.037 121.351 60.595 120.23 C 60.571 120.211 60.552 120.187 60.527 120.168 C 58.371 118.47 56.908 116.135 56.405 113.592 C 56.4 113.566 56.391 113.543 56.386 113.518 C 56.254 112.83 56.179 112.122 56.179 111.397 C 56.179 105.443 60.872 100.538 66.863 100.23 Z M 48.207 207.616 C 48.14 209.973 43.584 211.967 38.257 211.967 C 31.451 211.967 25.019 209.039 21.052 204.137 C 16.189 198.126 14.877 189.052 17.258 177.899 C 22.75 152.185 35.303 136.518 45.444 127.643 C 45.654 127.927 45.872 128.204 46.093 128.48 C 46.067 128.549 46.047 128.619 46.022 128.688 C 45.583 129.9 45.167 131.12 44.776 132.346 C 44.746 132.44 44.714 132.534 44.684 132.628 C 44.292 133.869 43.931 135.119 43.589 136.374 C 43.532 136.584 43.473 136.795 43.417 137.005 C 43.092 138.231 42.789 139.463 42.511 140.7 C 42.464 140.908 42.42 141.117 42.375 141.327 C 42.097 142.602 41.839 143.88 41.611 145.164 C 41.597 145.242 41.585 145.322 41.572 145.401 C 41.352 146.663 41.159 147.929 40.988 149.2 C 40.965 149.363 40.942 149.524 40.92 149.687 C 40.756 150.953 40.621 152.223 40.505 153.498 C 40.484 153.736 40.462 153.974 40.442 154.214 C 40.337 155.478 40.252 156.746 40.195 158.018 C 40.185 158.225 40.18 158.431 40.171 158.638 C 40.118 159.971 40.084 161.307 40.084 162.649 C 40.084 163.491 40.096 164.337 40.116 165.183 C 40.12 165.351 40.129 165.522 40.134 165.692 C 40.154 166.384 40.179 167.077 40.213 167.771 C 40.221 167.917 40.23 168.063 40.239 168.209 C 40.279 168.946 40.324 169.684 40.378 170.424 C 40.384 170.504 40.391 170.586 40.397 170.668 C 40.459 171.491 40.531 172.315 40.613 173.14 C 40.613 173.141 40.613 173.143 40.613 173.144 C 41.676 183.951 44.332 194.916 48.333 205.443 C 48.27 206.133 48.222 206.869 48.207 207.616 Z M 64.092 201.557 C 64.072 201.502 64.06 201.446 64.038 201.393 C 60.509 192.494 58.123 183.391 56.972 174.553 C 56.964 174.493 56.957 174.433 56.949 174.373 C 56.861 173.684 56.781 172.999 56.708 172.313 C 56.689 172.132 56.67 171.951 56.652 171.77 C 56.594 171.201 56.543 170.635 56.495 170.069 C 56.476 169.842 56.457 169.615 56.44 169.388 C 56.4 168.863 56.366 168.341 56.336 167.819 C 56.322 167.577 56.306 167.333 56.294 167.09 C 56.267 166.562 56.248 166.037 56.231 165.513 C 56.223 165.291 56.214 165.068 56.207 164.847 C 56.189 164.111 56.177 163.377 56.177 162.647 C 56.177 161.376 56.215 160.109 56.27 158.847 C 56.287 158.469 56.312 158.094 56.333 157.717 C 56.387 156.794 56.454 155.874 56.538 154.955 C 56.573 154.571 56.606 154.187 56.646 153.804 C 56.765 152.67 56.904 151.54 57.068 150.415 C 57.085 150.297 57.097 150.179 57.115 150.061 C 57.302 148.823 57.523 147.591 57.764 146.364 C 57.833 146.014 57.911 145.667 57.984 145.318 C 58.175 144.41 58.381 143.506 58.603 142.605 C 58.695 142.231 58.786 141.856 58.884 141.483 C 59.153 140.449 59.443 139.42 59.753 138.395 C 59.808 138.214 59.856 138.03 59.912 137.849 C 59.926 137.804 59.944 137.759 59.958 137.713 C 61.141 138.05 62.356 138.311 63.598 138.486 C 63.642 138.492 63.686 138.497 63.731 138.503 C 64.245 138.573 64.763 138.627 65.286 138.668 C 65.421 138.679 65.556 138.691 65.693 138.699 C 66.268 138.735 66.845 138.76 67.429 138.76 C 67.889 138.76 68.347 138.748 68.805 138.726 C 68.969 138.717 69.131 138.7 69.294 138.69 C 69.586 138.671 69.878 138.654 70.167 138.625 C 70.305 138.611 70.442 138.59 70.58 138.574 C 70.892 138.538 71.206 138.503 71.515 138.457 C 71.648 138.437 71.779 138.41 71.912 138.387 C 72.223 138.335 72.535 138.285 72.844 138.223 C 72.989 138.194 73.133 138.156 73.276 138.124 C 73.57 138.06 73.864 137.997 74.155 137.923 C 74.293 137.888 74.429 137.845 74.566 137.808 C 74.86 137.729 75.154 137.65 75.444 137.561 C 75.583 137.518 75.719 137.468 75.857 137.423 C 76.142 137.33 76.429 137.238 76.711 137.137 C 76.85 137.087 76.987 137.029 77.125 136.975 C 77.401 136.87 77.678 136.766 77.95 136.652 C 78.098 136.59 78.243 136.519 78.391 136.455 C 78.65 136.341 78.909 136.23 79.164 136.107 C 79.31 136.037 79.452 135.96 79.596 135.887 C 79.848 135.76 80.1 135.637 80.348 135.503 C 80.49 135.427 80.627 135.342 80.768 135.263 C 81.014 135.125 81.262 134.987 81.503 134.84 C 81.642 134.755 81.779 134.663 81.916 134.575 C 82.153 134.426 82.391 134.278 82.623 134.121 C 82.761 134.028 82.894 133.928 83.031 133.831 C 83.258 133.671 83.488 133.512 83.711 133.345 C 83.844 133.245 83.971 133.139 84.102 133.037 C 84.323 132.865 84.545 132.695 84.762 132.516 C 84.888 132.412 85.008 132.3 85.132 132.194 C 85.348 132.008 85.565 131.824 85.776 131.632 C 85.891 131.526 86.001 131.414 86.115 131.306 C 86.317 131.115 86.52 130.926 86.716 130.729 C 88.726 131.175 90.763 131.441 92.819 131.536 C 93.379 131.566 93.934 131.581 94.485 131.581 C 100.651 131.581 106.699 129.966 112.08 126.947 C 118.988 132.998 127.776 136.36 137.09 136.36 C 145.235 136.36 153.122 133.726 159.698 128.872 C 161.45 129.121 163.115 129.234 164.782 129.212 C 166.488 129.197 168.162 129.055 169.843 128.803 C 174.268 132.654 179.739 135.012 185.583 135.541 C 186.418 135.617 187.261 135.656 188.109 135.656 C 188.568 135.656 189.025 135.643 189.481 135.622 C 189.669 135.612 189.854 135.595 190.04 135.582 C 190.302 135.564 190.565 135.548 190.824 135.522 C 191.064 135.498 191.304 135.467 191.542 135.438 C 191.742 135.413 191.942 135.391 192.141 135.362 C 192.416 135.322 192.687 135.275 192.959 135.228 C 193.116 135.2 193.272 135.174 193.429 135.143 C 193.732 135.085 194.033 135.02 194.332 134.951 C 194.449 134.924 194.566 134.898 194.682 134.871 C 195.014 134.791 195.343 134.704 195.67 134.612 C 195.746 134.591 195.822 134.569 195.899 134.547 C 196.263 134.442 196.623 134.329 196.981 134.21 C 197.01 134.2 197.04 134.19 197.069 134.18 C 197.458 134.048 197.845 133.909 198.227 133.76 C 198.272 133.882 198.315 134.006 198.359 134.129 C 198.688 135.037 199.002 135.949 199.298 136.866 C 199.356 137.045 199.417 137.224 199.474 137.405 C 199.794 138.417 200.092 139.435 200.372 140.458 C 200.434 140.684 200.494 140.912 200.554 141.139 C 200.831 142.183 201.094 143.229 201.329 144.284 C 201.331 144.295 201.334 144.307 201.337 144.318 C 201.573 145.38 201.782 146.449 201.976 147.52 C 202.018 147.753 202.061 147.985 202.102 148.217 C 202.283 149.266 202.447 150.32 202.589 151.379 C 202.613 151.556 202.632 151.734 202.654 151.911 C 202.777 152.884 202.884 153.862 202.974 154.841 C 202.991 155.022 203.01 155.204 203.026 155.385 C 203.116 156.455 203.185 157.53 203.235 158.608 C 203.246 158.844 203.254 159.08 203.264 159.317 C 203.307 160.425 203.336 161.536 203.336 162.652 C 203.336 163.382 203.325 164.114 203.306 164.852 C 203.301 165.054 203.291 165.256 203.285 165.458 C 203.267 166.005 203.246 166.555 203.218 167.106 C 203.207 167.315 203.193 167.524 203.182 167.734 C 203.149 168.298 203.113 168.863 203.069 169.43 C 203.056 169.605 203.041 169.78 203.027 169.955 C 202.974 170.597 202.915 171.24 202.85 171.885 C 202.84 171.978 202.831 172.072 202.821 172.166 C 201.816 181.685 199.346 191.582 195.531 201.255 C 195.53 201.257 195.53 201.259 195.529 201.263 C 185.454 226.797 164.29 252.537 138.109 257.175 C 138.068 257.183 138.026 257.19 137.986 257.198 C 136.295 257.493 134.582 257.694 132.851 257.807 C 132.656 257.82 132.46 257.832 132.264 257.841 C 131.431 257.885 130.594 257.915 129.753 257.915 C 128.993 257.915 128.234 257.892 127.473 257.855 C 127.353 257.85 127.234 257.84 127.115 257.834 C 115.122 257.142 103.026 251.755 91.972 242.141 C 91.659 241.868 91.326 241.628 90.982 241.411 C 79.542 231.097 70.203 216.901 64.092 201.557 Z M 157.93 461.619 L 151.4 463.577 L 151.4 449.57 L 169.074 449.57 L 169.074 463.575 L 162.555 461.619 C 161.047 461.167 159.439 461.166 157.93 461.619 Z M 216.339 464.438 L 202.426 461.457 C 201.869 461.339 201.305 461.279 200.74 461.279 C 200.175 461.279 199.608 461.339 199.053 461.458 L 185.167 464.435 L 185.167 449.569 L 216.339 449.569 L 216.339 464.437 L 216.339 464.437 Z M 378.405 401.125 L 378.405 433.475 L 360.742 433.475 L 360.742 413.235 C 367.372 410.368 373.37 406.251 378.405 401.125 Z M 369.574 461.279 C 368.794 461.279 368.015 461.392 367.261 461.618 L 360.744 463.574 L 360.744 449.569 L 378.407 449.569 L 378.407 463.574 L 371.888 461.618 C 371.132 461.392 370.353 461.279 369.574 461.279 Z M 425.681 464.438 L 411.769 461.457 C 411.212 461.339 410.648 461.279 410.083 461.279 C 409.518 461.279 408.952 461.339 408.396 461.458 L 394.499 464.435 L 394.499 449.569 L 425.681 449.569 L 425.681 464.437 L 425.681 464.437 Z M 482.429 264.487 C 490.992 271.136 495.905 281.022 495.905 291.611 C 495.905 310.632 480.43 326.106 461.41 326.106 C 460.805 326.106 460.032 326.001 459.139 325.881 C 458.61 325.81 458.081 325.738 457.547 325.679 C 455.275 325.416 452.999 326.154 451.295 327.682 C 449.59 329.208 448.616 331.388 448.616 333.677 C 448.616 333.9 448.625 334.123 448.639 334.358 C 448.566 347.824 441.3 360.444 429.638 367.328 C 427.187 368.775 425.682 371.411 425.682 374.257 L 425.682 433.473 L 394.5 433.473 L 394.5 387.23 C 398.227 388.271 402.167 388.809 406.272 388.809 C 407.084 388.809 407.904 388.788 408.727 388.746 C 413.167 388.522 416.582 384.743 416.358 380.304 C 416.134 375.865 412.347 372.439 407.916 372.673 C 402.016 372.971 396.854 371.69 392.516 368.904 C 391.969 368.273 391.331 367.713 390.594 367.27 C 390.225 367.049 389.846 366.847 389.463 366.652 L 389.258 366.545 C 389.203 366.511 389.144 366.486 389.088 366.453 C 388.912 366.349 388.734 366.251 388.553 366.162 C 388.469 366.12 388.386 366.08 388.3 366.042 C 388.103 365.953 387.903 365.874 387.701 365.802 C 387.626 365.775 387.552 365.746 387.476 365.721 C 387.23 365.642 386.982 365.574 386.732 365.519 C 386.698 365.511 386.663 365.5 386.628 365.493 C 386.342 365.434 386.054 365.392 385.764 365.364 C 385.686 365.356 385.607 365.356 385.529 365.351 C 385.322 365.337 385.116 365.328 384.909 365.331 C 384.797 365.332 384.687 365.34 384.575 365.345 C 384.397 365.355 384.219 365.369 384.042 365.39 C 383.928 365.404 383.815 365.419 383.701 365.437 C 383.513 365.468 383.327 365.507 383.141 365.551 C 383.046 365.574 382.95 365.593 382.856 365.619 C 382.288 365.776 381.737 365.995 381.211 366.276 C 381.141 366.312 381.076 366.354 381.007 366.394 C 380.818 366.502 380.633 366.616 380.451 366.741 C 380.369 366.797 380.291 366.855 380.212 366.913 C 380.054 367.03 379.9 367.154 379.748 367.285 C 379.666 367.355 379.586 367.424 379.508 367.497 C 379.37 367.627 379.237 367.765 379.106 367.907 C 379.05 367.967 378.988 368.02 378.934 368.082 C 378.916 368.103 378.901 368.127 378.883 368.149 C 378.863 368.173 378.841 368.193 378.821 368.217 C 378.693 368.37 378.58 368.53 378.465 368.69 C 378.425 368.745 378.381 368.796 378.343 368.852 C 378.172 369.102 378.019 369.36 377.881 369.621 C 377.856 369.667 377.837 369.716 377.813 369.763 C 377.701 369.985 377.599 370.209 377.509 370.439 C 377.479 370.515 377.453 370.594 377.425 370.671 C 377.35 370.88 377.283 371.092 377.228 371.305 C 377.215 371.351 377.197 371.395 377.185 371.442 C 377.18 371.462 377.174 371.482 377.169 371.502 C 376.979 372.262 376.764 373.012 376.531 373.755 C 376.5 373.855 376.469 373.953 376.437 374.053 C 372.495 386.228 362.695 395.975 350.304 399.832 C 349.905 399.956 349.523 400.114 349.156 400.293 C 345.754 401.233 342.184 401.739 338.513 401.739 C 323.036 401.739 309.256 393.029 302.551 379.005 C 301.227 376.235 298.441 374.46 295.371 374.429 C 295.344 374.429 295.317 374.429 295.292 374.429 C 292.252 374.429 289.469 376.142 288.102 378.862 C 282.057 390.888 270.063 398.358 256.8 398.358 C 246.718 398.358 237.106 394.003 230.429 386.411 C 228.218 383.897 224.682 383.016 221.547 384.196 C 218.413 385.378 216.339 388.376 216.339 391.726 L 216.339 433.477 L 185.169 433.477 L 185.169 390.94 C 189.666 393.279 195.064 395.157 201.55 396.156 C 201.966 396.22 202.378 396.251 202.785 396.251 C 206.689 396.251 210.116 393.406 210.728 389.429 C 211.405 385.035 208.393 380.927 204.001 380.25 C 190.534 378.175 184.206 370.857 181.486 366.218 C 181.452 366.154 181.411 366.091 181.378 366.027 C 181.339 365.959 181.302 365.893 181.264 365.826 C 180.578 364.516 180 363.177 179.534 361.82 C 179.523 361.788 179.505 361.76 179.494 361.728 C 179.361 361.356 179.205 360.997 179.025 360.656 C 179.004 360.615 178.979 360.577 178.956 360.536 C 178.554 359.81 178.048 359.163 177.462 358.606 C 177.448 358.593 177.434 358.579 177.419 358.566 C 175.877 357.124 173.799 356.314 171.625 356.395 C 171.604 356.396 171.582 356.392 171.561 356.393 C 171.54 356.394 171.518 356.396 171.497 356.396 C 171.471 356.397 171.447 356.399 171.421 356.4 C 171.132 356.414 170.846 356.431 170.559 356.451 C 170.27 356.47 169.983 356.496 169.69 356.496 C 168.792 356.496 167.897 356.46 167.003 356.403 C 166.821 356.391 166.639 356.375 166.457 356.361 C 165.624 356.297 164.795 356.215 163.969 356.101 C 163.933 356.096 163.896 356.092 163.86 356.087 C 158.126 355.282 152.573 353.297 147.548 350.229 C 147.39 350.132 147.228 350.052 147.066 349.967 C 135.078 342.421 127.09 329.078 127.09 313.897 C 127.09 307.973 128.311 302.203 130.72 296.743 C 131.709 294.5 131.622 291.927 130.482 289.755 C 129.341 287.583 127.274 286.05 124.864 285.591 C 113.436 283.412 104.06 276.1 98.928 266.323 C 106.69 270.292 114.985 272.87 123.66 273.703 C 123.828 273.719 123.997 273.734 124.165 273.749 C 124.63 273.79 125.095 273.828 125.562 273.86 C 125.916 273.884 126.27 273.901 126.624 273.919 C 126.953 273.935 127.282 273.954 127.611 273.966 C 128.326 273.991 129.04 274.006 129.755 274.006 C 130.613 274.006 131.467 273.986 132.319 273.951 C 132.506 273.943 132.691 273.93 132.877 273.92 C 133.57 273.886 134.26 273.844 134.948 273.787 C 135.101 273.774 135.255 273.758 135.409 273.744 C 136.163 273.676 136.914 273.597 137.663 273.504 C 137.736 273.494 137.809 273.486 137.882 273.476 C 144.985 272.565 151.82 270.488 158.302 267.441 C 158.406 267.393 158.51 267.346 158.614 267.296 C 159.145 267.044 159.671 266.781 160.197 266.516 C 177.119 258.048 192.271 242.785 203.254 222.68 C 203.295 222.71 203.341 222.736 203.382 222.765 C 203.888 223.133 204.413 223.485 204.958 223.819 C 205.036 223.867 205.117 223.913 205.195 223.961 C 205.749 224.291 206.321 224.605 206.912 224.9 C 206.991 224.94 207.073 224.977 207.154 225.016 C 207.756 225.308 208.373 225.581 209.01 225.835 C 209.088 225.866 209.168 225.895 209.246 225.925 C 209.895 226.176 210.56 226.408 211.244 226.617 C 211.316 226.64 211.389 226.659 211.461 226.68 C 212.158 226.888 212.871 227.076 213.602 227.238 C 213.665 227.252 213.73 227.264 213.792 227.278 C 214.538 227.439 215.297 227.579 216.074 227.692 C 216.123 227.7 216.174 227.704 216.222 227.711 C 217.018 227.823 217.828 227.912 218.654 227.97 C 218.682 227.972 218.71 227.972 218.737 227.974 C 219.587 228.032 220.452 228.064 221.33 228.064 C 232.947 228.064 244.058 222.904 251.048 214.262 C 256.643 207.347 262.402 194.842 258.066 174.543 C 257.748 173.057 257.406 171.604 257.049 170.174 C 256.951 169.783 256.846 169.404 256.745 169.017 C 256.468 167.95 256.183 166.896 255.885 165.86 C 255.782 165.504 255.676 165.152 255.571 164.799 C 255.241 163.69 254.898 162.597 254.545 161.524 C 254.473 161.307 254.402 161.088 254.329 160.874 C 248.393 143.197 239.47 130.417 230.925 121.466 C 240.682 107.127 256.838 98.433 274.358 98.433 C 296.79 98.433 316.799 112.704 324.149 133.944 C 325.022 136.47 327.094 138.397 329.676 139.087 C 332.253 139.78 335.015 139.143 337.03 137.389 C 345.9 129.684 357.217 125.442 368.9 125.442 C 388.613 125.442 406.253 137.209 413.842 155.419 C 415.483 159.357 419.912 161.337 423.942 159.914 C 427.876 158.53 431.517 157.856 435.072 157.856 C 453.722 157.856 468.893 173.029 468.893 191.677 C 468.893 191.854 468.828 192.327 468.776 192.709 C 468.698 193.287 468.62 193.867 468.573 194.456 C 468.238 198.502 470.971 202.164 474.944 202.994 C 487.089 205.536 495.903 216.394 495.903 228.812 C 495.903 238.004 491.142 246.399 483.17 251.265 C 480.913 252.643 479.477 255.042 479.328 257.682 C 479.183 260.322 480.34 262.866 482.429 264.487 Z" fill="#231F20"/><path d=" M 93.525 180.139 C 97.912 180.139 101.462 176.589 101.462 172.212 C 101.462 167.827 97.912 164.277 93.525 164.277 C 89.14 164.277 85.592 167.828 85.592 172.212 C 85.591 176.588 89.14 180.139 93.525 180.139 Z" fill="#231F20"/><path d=" M 162.722 180.131 C 167.108 180.131 170.657 176.58 170.657 172.204 C 170.657 167.818 167.107 164.269 162.722 164.269 C 158.337 164.269 154.787 167.818 154.787 172.204 C 154.787 176.581 158.337 180.131 162.722 180.131 Z" fill="#231F20"/><path d=" M 123.167 209.856 C 124.673 212.006 127.134 213.286 129.759 213.286 C 132.384 213.286 134.844 212.006 136.351 209.856 L 141.533 202.457 C 143.254 199.999 143.465 196.788 142.079 194.125 C 140.694 191.464 137.943 189.794 134.942 189.794 L 124.577 189.794 C 121.576 189.794 118.825 191.465 117.44 194.125 C 116.054 196.787 116.264 199.999 117.986 202.457 L 123.167 209.856 Z" fill="#231F20"/></g><g opacity="0.15"><rect x="143.356" y="363.179" width="17.167" height="103.99" fill="#231F20"/></g><g opacity="0.15"><rect x="360.766" y="398.501" width="17.167" height="68.218" fill="#231F20"/></g><g opacity="0.15"><rect x="394.521" y="385.625" width="17.167" height="81.093" fill="#231F20"/></g><g opacity="0.15"><path d=" M 190.875 342.515 L 190.878 342.506 C 165.18 340.17 144.794 318.225 144.794 292.08 C 144.794 286.94 145.572 281.862 147.105 276.991 C 147.989 274.183 146.447 271.189 143.647 270.278 C 140.76 269.338 137.946 268.095 135.286 266.58 C 134.393 266.07 133.373 265.826 132.347 265.885 C 131.421 265.934 130.573 265.958 129.757 265.958 C 118.417 265.958 107.204 262.453 96.434 255.54 C 94.554 254.334 92.124 254.419 90.332 255.751 C 88.541 257.084 87.761 259.388 88.378 261.535 C 93.116 278.039 106.518 290.286 123.356 293.496 C 120.494 299.985 119.043 306.849 119.043 313.898 C 119.043 341.825 141.764 364.544 169.689 364.544 C 170.111 364.544 170.527 364.52 170.944 364.491 L 171.097 364.48 C 171.374 364.461 171.651 364.442 171.92 364.43 L 171.92 364.431 C 173.11 367.899 174.86 371.249 177.119 374.386 L 177.119 467.274 C 177.119 470.237 179.52 472.639 182.484 472.639 L 197.505 472.639 C 200.468 472.639 202.87 470.238 202.87 467.274 L 202.87 358.533 C 202.872 344.405 190.875 342.515 190.875 342.515 Z" fill="#231F20"/></g><g></g><g></g><g></g><g></g><g></g><g></g><g></g><g></g><g></g><g></g><g></g><g></g><g></g><g></g><g></g></svg>