<svg version="1.1" width="682.667" height="682.667" viewBox="0 0 512 512" xmlns="http://www.w3.org/2000/svg" xmlns:xlink="http://www.w3.org/1999/xlink" overflow="hidden"><path d=" M 504.5 256 C 504.5 393.242 393.242 504.5 256 504.5 C 118.758 504.5 7.5 393.242 7.5 256 C 7.5 118.758 118.758 7.5 256 7.5 C 393.242 7.5 504.5 118.758 504.5 256 Z" fill="#D9DFE9"/><g fill="#FFFFFF"><path d=" M 458.707 504.5 L 53.293 504.5 C 47.5742 504.5 42.9375 499.863 42.9375 494.145 L 42.9375 88.7305 C 42.9375 83.0117 47.5742 78.375 53.293 78.375 L 458.711 78.375 C 464.426 78.375 469.063 83.0117 469.063 88.7305 L 469.063 494.145 C 469.063 499.863 464.426 504.5 458.707 504.5 Z"/><path d=" M 82.2148 78.375 C 67.1211 93.1406 53.8984 109.82 42.9414 128.023 L 42.9414 88.7266 C 42.9414 83.0117 47.5781 78.375 53.2969 78.375 Z"/><path d=" M 256 504.5 L 53.2969 504.5 C 47.5781 504.5 42.9414 499.863 42.9414 494.145 L 42.9414 383.977 C 86.418 456.199 165.566 504.5 256 504.5 Z"/><path d=" M 469.059 88.7266 L 469.059 128.023 C 458.102 109.82 444.883 93.1406 429.785 78.375 L 458.703 78.375 C 464.422 78.375 469.059 83.0117 469.059 88.7266 Z"/><path d=" M 469.059 383.977 L 469.059 494.145 C 469.059 499.863 464.422 504.5 458.703 504.5 L 256 504.5 C 346.434 504.5 425.582 456.199 469.059 383.977 Z"/></g><path d=" M 369.73 460.602 C 357.066 430.426 326.25 357.023 300.398 295.691 L 260.344 295.691 L 341.98 472.813 C 345.398 480.223 354.066 483.602 361.598 480.453 C 369.328 477.219 372.973 468.328 369.73 460.602 Z" fill="#76FFD9"/><path d=" M 211.602 295.691 C 185.75 357.023 154.934 430.426 142.27 460.602 C 139.027 468.328 142.672 477.223 150.402 480.453 C 157.934 483.602 166.602 480.223 170.02 472.813 L 251.656 295.691 Z" fill="#76FFD9"/><path d=" M 448.277 100.934 C 445.023 94.6211 437.27 92.1445 430.957 95.3984 L 256 185.59 L 81.043 95.3984 C 74.7305 92.1445 66.9766 94.6211 63.7227 100.934 C 60.6875 106.82 62.6172 114.047 68.1836 117.637 L 196.094 200.09 L 315.906 200.09 L 443.813 117.637 C 449.379 114.047 451.313 106.82 448.277 100.934 Z" fill="#76FFD9"/><path d=" M 455.813 170.48 L 281.328 170.48 C 274.355 170.48 268.707 164.828 268.707 157.859 C 268.707 153.371 271.125 149.27 274.973 146.961 C 286.492 140.043 293.93 127.02 292.801 112.367 C 291.41 94.293 276.727 79.7266 258.641 78.4688 C 237.059 76.9648 219.086 94.0273 219.086 115.289 C 219.086 128.824 226.371 140.66 237.234 147.086 C 241.023 149.324 243.293 153.453 243.293 157.859 C 243.293 164.828 237.641 170.48 230.672 170.48 L 56.1836 170.48 C 49.3516 170.48 43.4219 175.645 42.9648 182.465 C 42.5 189.465 47.6758 195.473 54.5547 196.137 L 206.527 210.863 C 205.953 213.68 205.617 425.758 205.535 486.164 C 205.523 494.547 212.313 501.336 220.695 501.336 C 228.855 501.336 235.555 494.875 235.848 486.719 L 241.313 342.738 L 270.684 342.738 L 276.148 486.719 C 276.441 494.875 283.141 501.336 291.301 501.336 C 299.684 501.336 306.473 494.547 306.461 486.164 C 306.379 425.758 306.039 213.68 305.469 210.863 L 457.441 196.137 C 464.32 195.473 469.496 189.465 469.031 182.465 C 468.578 175.645 462.648 170.48 455.813 170.48 Z" fill="#FFC843"/><path d=" M 476.563 125.863 L 476.563 88.7305 C 476.563 78.8828 468.555 70.875 458.711 70.875 L 432.813 70.875 C 384.969 25.1289 322.418 0 256 0 C 224.988 0 194.652 5.50391 165.824 16.3555 C 161.949 17.8125 159.988 22.1406 161.449 26.0156 C 162.91 29.8945 167.23 31.8516 171.109 30.3906 C 198.238 20.1797 226.801 15 256 15 C 313.055 15 367.07 34.707 410.313 70.875 L 101.684 70.875 C 113.578 60.9531 126.52 52.0938 140.414 44.4844 C 144.047 42.4922 145.379 37.9375 143.391 34.3047 C 141.398 30.6719 136.84 29.3359 133.207 31.3281 C 113.27 42.2461 95.168 55.5938 79.1797 70.875 L 53.293 70.875 C 43.4453 70.875 35.4375 78.8828 35.4375 88.7266 L 35.4375 126.055 C 12.6328 164.762 2.84217e-14 209.453 2.84217e-14 256 C 2.84217e-14 302.516 12.3359 347.137 35.4375 386.137 L 35.4375 494.145 C 35.4375 503.992 43.4453 512 53.293 512 L 458.711 512 C 468.555 512 476.563 503.992 476.563 494.145 L 476.563 386.137 C 499.664 347.137 512 302.516 512 256 C 512 209.484 499.664 164.863 476.563 125.863 Z M 35.4375 353.441 C 22.043 323.148 15 290.117 15 256 C 15 221.969 22.1758 188.988 35.4375 158.887 Z M 458.707 85.875 C 460.281 85.875 461.563 87.1563 461.563 88.7305 L 461.563 103.348 C 457.086 97.3438 452.316 91.5195 447.285 85.875 Z M 50.4375 88.7305 C 50.4375 87.1563 51.7188 85.875 53.293 85.875 L 64.7109 85.875 C 59.6875 91.5234 54.9258 97.3789 50.4375 103.43 Z M 53.293 497 C 51.7188 497 50.4375 495.719 50.4375 494.145 L 50.4375 408.652 C 57.8594 418.602 66.0469 428.086 74.9805 437.02 C 102.094 464.133 134.223 484.414 169.27 497 Z M 461.563 494.145 C 461.563 495.719 460.281 497 458.711 497 L 342.73 497 C 377.777 484.414 409.906 464.133 437.02 437.02 C 445.953 428.086 454.141 418.602 461.563 408.652 Z M 469.063 291.828 C 464.922 291.828 461.563 295.188 461.563 299.328 L 461.563 381.941 C 451.742 397.898 439.996 412.828 426.414 426.414 C 411.785 441.039 395.602 453.543 378.246 463.793 L 339.445 482.211 C 331.004 485.32 322.383 487.957 313.609 490.098 L 271.141 496.516 C 266.121 496.824 261.074 497 256 497 C 250.926 497 245.883 496.824 240.859 496.516 L 198.391 490.098 C 189.613 487.957 180.992 485.32 172.555 482.211 L 133.754 463.793 C 116.398 453.543 100.215 441.039 85.5898 426.414 C 72.0039 412.828 60.2578 397.898 50.4375 381.941 L 50.4375 130.211 C 52.9297 126.137 55.5469 122.141 58.2773 118.219 L 83.1016 88.1055 C 83.8281 87.3594 84.5547 86.6133 85.2891 85.875 L 426.695 85.875 C 427.434 86.6133 428.152 87.3672 428.879 88.1133 L 453.762 118.164 C 456.488 122.059 459.082 126.027 461.563 130.059 L 461.563 266.672 C 461.563 270.813 464.922 274.172 469.063 274.172 C 473.207 274.172 476.563 270.813 476.563 266.672 L 476.563 158.559 C 489.957 188.852 497 221.883 497 256 C 497 290.117 489.957 323.148 476.563 353.441 L 476.563 299.328 C 476.563 295.188 473.203 291.828 469.063 291.828 Z" fill="#474D54"/><path d=" M 213.879 212.359 C 213.918 212.16 213.949 211.965 213.973 211.762 C 213.945 212.055 213.898 212.25 213.879 212.359 Z" fill="#474D54"/><path d=" M 298.121 212.359 C 298.102 212.25 298.055 212.051 298.027 211.766 C 298.051 211.961 298.082 212.16 298.121 212.359 Z" fill="#474D54"/><path d=" M 352.492 262.648 L 365.617 262.648 C 369.762 262.648 373.117 259.289 373.117 255.148 C 373.117 251.008 369.762 247.648 365.617 247.648 L 352.492 247.648 C 348.348 247.648 344.992 251.008 344.992 255.148 C 344.992 259.289 348.348 262.648 352.492 262.648 Z" fill="#C2C7D0"/><path d=" M 406.641 274.848 L 352.492 274.848 C 348.352 274.848 344.992 278.207 344.992 282.348 C 344.992 286.488 348.352 289.848 352.492 289.848 L 406.641 289.848 C 410.781 289.848 414.141 286.488 414.141 282.348 C 414.141 278.207 410.781 274.848 406.641 274.848 Z" fill="#C2C7D0"/><path d=" M 390.641 294.227 L 352.492 294.227 C 348.352 294.227 344.992 297.586 344.992 301.727 C 344.992 305.867 348.352 309.227 352.492 309.227 L 390.641 309.227 C 394.781 309.227 398.141 305.867 398.141 301.727 C 398.141 297.586 394.781 294.227 390.641 294.227 Z" fill="#C2C7D0"/></svg>