<svg version="1.1" width="682.667" height="682.667" viewBox="0 -10 512 512" xmlns="http://www.w3.org/2000/svg" xmlns:xlink="http://www.w3.org/1999/xlink" overflow="hidden"><path d=" M 79.9961 59.6289 L 128.238 107.875 C 121.711 114.434 115.688 121.492 110.227 128.984 L 61.5469 80.3086 C 67.3125 73.0742 73.4727 66.1719 79.9961 59.6289 Z" fill="#FFB655"/><path d=" M 128.238 107.871 L 79.9961 59.6289 C 79.9961 59.6289 80 59.625 80 59.625 L 55.0898 59.625 C 49.4648 53.9961 46.3086 50.8438 40.6797 45.2148 L 40.6797 35.5586 L 107.832 35.5586 C 121.895 25.0977 137.09 16.0703 153.219 8.73438 L 172.477 24.1328 L 172.766 24.0195 C 191.754 16.543 212 11.5625 233.09 9.44922 L 233.09 56.2031 C 192.324 61.375 155.809 80.1719 128.238 107.871 Z" fill="#FFE477"/><path d=" M 432.004 59.6289 L 383.758 107.875 C 390.285 114.434 396.313 121.492 401.773 128.984 L 450.453 80.3086 C 444.688 73.0742 438.527 66.1719 432.004 59.6289 Z" fill="#FFB655"/><path d=" M 383.762 107.871 L 432.004 59.6289 C 432.004 59.6289 432 59.625 432 59.625 L 456.91 59.625 C 462.539 53.9961 465.691 50.8398 471.32 45.2148 L 471.32 35.5586 L 404.168 35.5586 C 390.109 25.0977 374.91 16.0703 358.781 8.73438 L 339.523 24.1328 L 339.238 24.0195 C 320.246 16.543 300 11.5586 278.91 9.44922 L 278.91 56.2031 C 319.676 61.375 356.191 80.1719 383.762 107.871 Z" fill="#FFE477"/><path d=" M 401.434 128.535 C 401.543 128.688 401.664 128.832 401.773 128.984 L 450.445 80.3125 C 484.27 122.762 504.5 176.52 504.5 235.016 C 504.5 372.258 393.242 483.516 256 483.516 C 118.758 483.516 7.5 372.258 7.5 235.016 C 7.5 176.52 27.7227 122.754 61.5469 80.3086 L 110.227 128.984 C 88.543 158.742 75.7422 195.383 75.7422 235.016 C 75.7422 334.566 156.445 415.273 256 415.273 C 355.555 415.273 436.258 334.57 436.258 235.016 C 436.258 195.176 423.316 158.371 401.434 128.535 Z" fill="#C6C5CA"/><path d=" M 81.5469 80.3086 C 84.3672 76.7656 87.2852 73.3047 90.293 69.9258 L 79.9961 59.6289 C 73.4727 66.1719 67.3125 73.0742 61.5469 80.3086 L 110.227 128.984 C 113.023 125.145 115.969 121.418 119.055 117.816 Z" fill="#FF7956"/><path d=" M 164.852 18.0352 L 153.219 8.73438 C 137.09 16.0703 121.891 25.0938 107.832 35.5586 L 137.832 35.5586 C 146.43 29.1602 155.453 23.3008 164.852 18.0352 Z" fill="#FFB655"/><path d=" M 109.996 59.6289 C 109.996 59.6289 109.996 59.625 110 59.625 L 85.0898 59.625 C 79.4648 53.9961 76.3086 50.8438 70.6797 45.2148 L 70.6797 35.5586 L 40.6797 35.5586 L 40.6797 45.2148 C 46.3086 50.8438 49.4648 53.9961 55.0898 59.625 L 80 59.625 C 80 59.625 79.9961 59.6289 79.9961 59.6289 L 128.238 107.875 C 133.238 102.852 138.527 98.125 144.082 93.7188 Z" fill="#FFB655"/><path d=" M 403.762 107.871 L 441.707 69.9258 C 438.57 66.4023 435.332 62.9688 432.004 59.6289 L 383.758 107.875 C 390.285 114.434 396.313 121.492 401.773 128.984 L 412.941 117.816 C 410.008 114.387 406.941 111.07 403.762 107.871 Z" fill="#FF7956"/><path d=" M 308.91 56.2031 L 308.91 14.4922 C 299.137 12.168 289.121 10.4727 278.91 9.44922 L 278.91 56.2031 C 319.676 61.375 356.191 80.168 383.762 107.871 L 397.918 93.7148 C 372.816 73.8047 342.289 60.4375 308.91 56.2031 Z" fill="#FFB655"/><path d=" M 271 414.656 C 275.945 415.063 280.949 415.27 286 415.27 C 385.551 415.27 466.254 334.566 466.254 235.016 C 466.254 195.176 453.32 158.371 431.434 128.535 C 431.543 128.684 431.664 128.832 431.773 128.984 L 463.094 97.668 C 459.121 91.6953 454.902 85.9063 450.445 80.3125 L 401.773 128.984 C 401.664 128.832 401.543 128.688 401.434 128.535 C 423.316 158.371 436.254 195.176 436.254 235.016 C 436.254 329.516 363.535 407.035 271 414.656 Z" fill="#898890"/><path d=" M 37.5 235.016 C 37.5 184.227 52.7422 137.004 78.8984 97.6602 L 61.5469 80.3086 C 27.7227 122.754 7.5 176.52 7.5 235.016 C 7.5 372.258 118.758 483.516 256 483.516 C 261.035 483.516 266.039 483.367 271 483.07 C 140.742 475.316 37.5 367.223 37.5 235.016 Z" fill="#898890"/><path d=" M 378.445 113.164 C 389.051 123.824 394.785 132.129 400.879 140.488 L 460.492 80.875 C 456.145 75.4141 453.602 72.1484 449.23 67.125 L 460.016 67.125 L 478.82 48.3203 L 478.82 28.0586 L 406.633 28.0586 C 388.785 15.0469 373.883 7.36328 357.695 3.55271e-15 L 338.199 15.5898 C 307.82 4.23828 284.156 2.4375 271.41 1.16016 L 271.41 62.8125 L 277.965 63.6445 C 315.75 68.4375 351.434 86.0234 378.445 113.164 Z M 402.527 117.629 C 399.879 114.328 397.113 111.109 394.25 107.992 L 431.914 70.3281 C 434.805 73.4141 437.621 76.582 440.344 79.8086 Z M 340.809 32.707 L 359.828 17.5 C 376.02 25.2461 388.672 33.3789 401.684 43.0586 L 462.867 43.0586 L 453.801 52.125 L 417.988 52.125 L 422.355 58.6758 L 383.668 97.3633 C 356.664 72.3398 322.586 55.6406 286.41 49.7188 L 286.41 40.832 C 299.789 42.9063 312.926 46.3555 325.559 51.1211 L 330.852 37.0859 C 316.527 31.6836 301.605 27.8516 286.41 25.668 L 286.41 17.8984 C 307.184 20.7695 322.922 25.6289 340.809 32.707 Z"/><path d=" M 468.629 92.457 L 456.184 100.82 C 482.887 140.559 497 186.961 497 235.016 C 497 253.645 494.875 271.789 490.855 289.215 C 469.891 306.527 445.617 320.492 419.199 327.781 C 427.715 312.852 434.246 296.652 438.422 279.539 C 451.383 271.422 461.91 262.355 472.105 251.598 L 461.215 241.281 C 455.129 247.707 449.234 253.219 442.285 258.582 C 443.254 250.863 443.754 243 443.754 235.016 C 443.754 225.332 443.004 215.684 441.527 206.172 C 449.711 195.086 456.477 183.039 461.66 170.316 L 447.77 164.656 C 444.801 171.945 441.258 178.992 437.18 185.73 C 433.086 170.656 427.121 156.105 419.383 142.48 L 406.34 149.887 C 421.004 175.715 428.754 205.152 428.754 235.016 C 428.754 330.273 351.258 407.773 256 407.773 C 160.742 407.773 83.2422 330.273 83.2422 235.016 C 83.2422 205.145 90.9922 175.703 105.656 149.879 L 92.6094 142.473 C 83.7695 158.043 77.2422 174.82 73.1797 192.211 C 50.082 206.844 30.7344 226.078 15.4336 249.586 C 14.0586 226.629 15.9102 203.098 21.3281 179.926 C 25.8203 176.043 30.457 172.316 35.125 168.836 C 56.7773 152.758 82.3867 142.301 109.219 138.582 L 111.121 140.488 C 117.156 132.211 122.906 123.867 133.555 113.164 C 160.566 86.0195 196.25 68.4336 234.035 63.6406 L 240.59 62.8086 L 240.59 1.16016 C 229.074 2.3125 204.723 4.03516 173.801 15.5898 L 154.305 5.86198e-14 C 138.133 7.35547 123.324 14.9648 105.367 28.0586 L 33.1797 28.0586 L 33.1797 48.3203 L 51.9844 67.125 L 62.7695 67.125 C 58.4102 72.1367 55.8828 75.3828 51.5039 80.875 L 96.2266 125.594 C 71.8867 130.547 48.75 140.598 28.5898 155.039 C 35.2852 136.008 44.3984 117.801 55.8125 100.816 L 43.3633 92.4492 C 14.9961 134.66 0 183.961 0 235.016 C 0 376.508 114.496 491.016 256 491.016 C 397.492 491.016 512 376.52 512 235.016 C 512 183.973 497.004 134.676 468.629 92.457 Z M 49.1289 43.0586 L 110.316 43.0586 C 123.402 33.3203 136.051 25.2109 152.172 17.5 L 171.191 32.707 C 188.891 25.7109 204.609 20.7969 225.594 17.8945 L 225.594 25.6641 C 210.395 27.8477 195.477 31.6797 181.148 37.082 L 186.441 51.1172 C 199.078 46.3516 212.211 42.9023 225.594 40.832 L 225.594 49.7148 C 189.414 55.6406 155.34 72.3398 128.336 97.3594 L 90.6016 59.6289 L 98.1055 52.125 L 58.1992 52.125 Z M 80.0859 70.3281 L 117.75 107.992 C 114.887 111.109 112.121 114.328 109.477 117.629 L 71.6563 79.8086 C 74.3789 76.582 77.1914 73.4141 80.0859 70.3281 Z M 407.516 345.781 C 435.234 340.902 460.73 329.223 483.992 313.176 C 476.328 335.469 465.48 356.297 451.992 375.113 C 424.75 384.285 397.113 387.051 371.043 383.301 C 384.867 372.551 397.156 359.914 407.516 345.781 Z M 285.879 420.395 C 308.922 435.934 333.965 446.559 360.59 452.117 C 340.309 461.93 318.449 468.977 295.512 472.777 C 270.508 459.77 249.871 442.563 233.953 421.484 C 250.672 423.449 268.246 423.227 285.879 420.395 Z M 145.238 386.535 C 150.117 414.184 161.773 439.707 177.848 463.012 C 155.555 455.348 134.723 444.5 115.91 431.016 C 106.734 403.773 103.965 376.133 107.711 350.059 C 118.465 363.883 131.102 376.172 145.238 386.535 Z M 69.543 212.957 C 67.5273 230.016 67.8711 247.242 70.4805 264.004 C 54.9492 285.438 44.0078 311.469 38.7031 339.207 C 28.9961 319.039 22.0117 297.324 18.2383 274.535 C 31.2344 249.535 48.4453 228.891 69.543 212.957 Z M 50.7734 361.25 C 53.1719 333.574 61.5898 306.98 74.8867 284.59 C 79.5898 301.75 86.6719 317.938 95.7539 332.77 C 89.4961 358.988 89.5586 386.98 95.8477 414.961 C 78.3555 399.375 63.1406 381.281 50.7734 361.25 Z M 201.813 469.875 C 184.582 449.008 170.574 424.746 163.246 398.219 C 178.672 407.02 195.461 413.699 213.211 417.852 C 227.828 440.934 247.059 460.277 270.57 475.582 C 248.242 476.918 225.027 475.227 201.813 469.875 Z M 382.023 440.371 C 355.293 437.367 330.074 429.113 306.824 415.781 C 323.523 411.082 339.285 404.125 353.762 395.258 C 378.602 401.195 406.516 401.785 435.941 395.172 C 420.301 412.727 402.137 427.984 382.023 440.371 Z"/><g fill="#FFFFFF"><path d=" M 489.207 271.559 L 474.383 269.266 C 476.121 258.023 477 246.5 477 235.016 C 477 208.445 472.418 182.613 463.383 158.238 L 477.445 153.023 C 487.102 179.074 492 206.66 492 235.016 C 492 247.266 491.059 259.559 489.207 271.559 Z M 459.82 149.254 C 457.953 144.828 455.906 140.402 453.738 136.098 L 467.133 129.352 C 469.449 133.953 471.641 138.684 473.637 143.418 Z M 449.199 127.559 C 446.848 123.367 444.324 119.188 441.695 115.145 L 454.273 106.973 C 457.082 111.289 459.777 115.75 462.285 120.227 Z"/><path d=" M 378.082 79.4727 C 367.219 70.9609 355.414 63.5547 342.992 57.457 L 349.598 43.9922 C 362.957 50.5469 375.652 58.5117 387.332 67.668 Z"/></g></svg>