<svg version="1.1" width="128" height="128" viewBox="-0.9 -0.9 1.8 1.8" xmlns="http://www.w3.org/2000/svg" xmlns:xlink="http://www.w3.org/1999/xlink" overflow="hidden"><g stroke-width="0.1" stroke-linejoin="round" opacity="1"><path d=" M -0.522222 -0.522222 L 0.522222 -0.522222 L 0.522222 0.522222 L -0.522222 0.522222 Z" stroke="#000000" fill="#000000"/></g><g stroke-width="0" stroke-linejoin="round" stroke-opacity="0.5" opacity="1"><path d=" M -0.534722 -0.534722 L -0.298611 -0.534722 L -0.298611 -0.298611 L -0.534722 -0.298611 Z" stroke="#000000" fill="#404040"/><path d=" M -0.256944 -0.534722 L -0.0208333 -0.534722 L -0.0208333 -0.298611 L -0.256944 -0.298611 Z" stroke="#000000" fill="#FEFE00"/><path d=" M 0.0208333 -0.534722 L 0.256944 -0.534722 L 0.256944 -0.298611 L 0.0208333 -0.298611 Z" stroke="#000000" fill="#FEFE00"/><path d=" M 0.298611 -0.534722 L 0.534722 -0.534722 L 0.534722 -0.298611 L 0.298611 -0.298611 Z" stroke="#000000" fill="#404040"/><path d=" M -0.534722 -0.256944 L -0.298611 -0.256944 L -0.298611 -0.0208333 L -0.534722 -0.0208333 Z" stroke="#000000" fill="#404040"/><path d=" M -0.256944 -0.256944 L -0.0208333 -0.256944 L -0.0208333 -0.0208333 L -0.256944 -0.0208333 Z" stroke="#000000" fill="#FEFE00"/><path d=" M 0.0208333 -0.256944 L 0.256944 -0.256944 L 0.256944 -0.0208333 L 0.0208333 -0.0208333 Z" stroke="#000000" fill="#FEFE00"/><path d=" M 0.298611 -0.256944 L 0.534722 -0.256944 L 0.534722 -0.0208333 L 0.298611 -0.0208333 Z" stroke="#000000" fill="#404040"/><path d=" M -0.534722 0.0208333 L -0.298611 0.0208333 L -0.298611 0.256944 L -0.534722 0.256944 Z" stroke="#000000" fill="#404040"/><path d=" M -0.256944 0.0208333 L -0.0208333 0.0208333 L -0.0208333 0.256944 L -0.256944 0.256944 Z" stroke="#000000" fill="#FEFE00"/><path d=" M 0.0208333 0.0208333 L 0.256944 0.0208333 L 0.256944 0.256944 L 0.0208333 0.256944 Z" stroke="#000000" fill="#FEFE00"/><path d=" M 0.298611 0.0208333 L 0.534722 0.0208333 L 0.534722 0.256944 L 0.298611 0.256944 Z" stroke="#000000" fill="#404040"/><path d=" M -0.534722 0.298611 L -0.298611 0.298611 L -0.298611 0.534722 L -0.534722 0.534722 Z" stroke="#000000" fill="#404040"/><path d=" M -0.256944 0.298611 L -0.0208333 0.298611 L -0.0208333 0.534722 L -0.256944 0.534722 Z" stroke="#000000" fill="#404040"/><path d=" M 0.0208333 0.298611 L 0.256944 0.298611 L 0.256944 0.534722 L 0.0208333 0.534722 Z" stroke="#000000" fill="#404040"/><path d=" M 0.298611 0.298611 L 0.534722 0.298611 L 0.534722 0.534722 L 0.298611 0.534722 Z" stroke="#000000" fill="#404040"/></g><g stroke-width="0.02" stroke-linejoin="round" stroke-opacity="1" opacity="1"><path d=" M -0.546784 0.554678 L -0.285673 0.554678 L -0.27193 0.727193 L -0.519298 0.727193 Z" stroke="#000000" fill="#FEFE00"/><path d=" M -0.269444 0.554678 L -0.00833333 0.554678 L -0.00833333 0.727193 L -0.255702 0.727193 Z" stroke="#000000" fill="#FEFE00"/><path d=" M 0.00789474 0.554678 L 0.269006 0.554678 L 0.255263 0.727193 L 0.00789474 0.727193 Z" stroke="#000000" fill="#FEFE00"/><path d=" M -0.554678 -0.269444 L -0.554678 -0.00833333 L -0.727193 -0.00833333 L -0.727193 -0.255702 Z" stroke="#000000" fill="#FEFE00"/><path d=" M -0.554678 0.00789474 L -0.554678 0.269006 L -0.727193 0.255263 L -0.727193 0.00789474 Z" stroke="#000000" fill="#FEFE00"/><path d=" M -0.285234 -0.554678 L -0.546345 -0.554678 L -0.51886 -0.727193 L -0.271491 -0.727193 Z" stroke="#000000" fill="#FEFE00"/><path d=" M 0.554678 0.546784 L 0.554678 0.285673 L 0.727193 0.27193 L 0.727193 0.519298 Z" stroke="#000000" fill="#FEFE00"/><path d=" M 0.554678 0.269444 L 0.554678 0.00833333 L 0.727193 0.00833333 L 0.727193 0.255702 Z" stroke="#000000" fill="#FEFE00"/><path d=" M 0.554678 -0.00789474 L 0.554678 -0.269006 L 0.727193 -0.255263 L 0.727193 -0.00789474 Z" stroke="#000000" fill="#FEFE00"/><path d=" M 0.554678 -0.285234 L 0.554678 -0.546345 L 0.727193 -0.51886 L 0.727193 -0.271491 Z" stroke="#000000" fill="#FEFE00"/></g></svg>