<svg version="1.1" width="128" height="128" viewBox="-0.9 -0.9 1.8 1.8" xmlns="http://www.w3.org/2000/svg" xmlns:xlink="http://www.w3.org/1999/xlink" overflow="hidden"><rect x="-0.9" y="-0.9" width="1.8" height="1.8" fill="#FFFFFF"/><g stroke-width="0.1" stroke-linejoin="round" opacity="1"><path d=" M -4.91654e-17 -0.717342 L 0.70405 -0.412727 L 6.31085e-17 -0.0217251 L -0.70405 -0.412727 Z" stroke="#000000" fill="#000000"/><path d=" M 6.31085e-17 -0.0217251 L 0.70405 -0.412727 L 0.62948 0.369013 L 5.55895e-17 0.811071 Z" stroke="#000000" fill="#000000"/><path d=" M -0.70405 -0.412727 L 6.31085e-17 -0.0217251 L 5.55895e-17 0.811071 L -0.62948 0.369013 Z" stroke="#000000" fill="#000000"/></g><g stroke-width="0" stroke-linejoin="round" stroke-opacity="0.5" opacity="1"><path d=" M -5.23923e-17 -0.758708 L 0.0572638 -0.733932 L -5.33967e-17 -0.708597 L -0.0572638 -0.733932 Z" stroke="#000000" fill="#FEFE00"/><path d=" M 0.0674846 -0.729459 L 0.126042 -0.704124 L 0.0687932 -0.678209 L 0.0102208 -0.704124 Z" stroke="#000000" fill="#FEFE00"/><path d=" M 0.136497 -0.699549 L 0.196392 -0.673635 L 0.139174 -0.647121 L 0.0792476 -0.673635 Z" stroke="#000000" fill="#FEFE00"/><path d=" M 0.207088 -0.668954 L 0.268369 -0.64244 L 0.211198 -0.615307 L 0.14987 -0.64244 Z" stroke="#000000" fill="#FEFE00"/><path d=" M 0.279315 -0.63765 L 0.342028 -0.610517 L 0.284923 -0.582741 L 0.222144 -0.610517 Z" stroke="#000000" fill="#FEFE00"/><path d=" M 0.353234 -0.605613 L 0.417431 -0.577837 L 0.36041 -0.549397 L 0.296128 -0.577837 Z" stroke="#000000" fill="#FEFE00"/><path d=" M 0.428905 -0.572816 L 0.494639 -0.544376 L 0.437724 -0.515246 L 0.371884 -0.544376 Z" stroke="#000000" fill="#FEFE00"/><path d=" M 0.506391 -0.539233 L 0.573719 -0.510103 L 0.516932 -0.480258 L 0.449476 -0.510103 Z" stroke="#000000" fill="#FEFE00"/><path d=" M 0.585759 -0.504834 L 0.654738 -0.474989 L 0.598103 -0.444403 L 0.528972 -0.474989 Z" stroke="#000000" fill="#FEFE00"/><path d=" M 0.667078 -0.469589 L 0.73777 -0.439003 L 0.681312 -0.407648 L 0.610442 -0.439003 Z" stroke="#000000" fill="#FEFE00"/><path d=" M -0.0674846 -0.729459 L -0.0102208 -0.704124 L -0.0687932 -0.678209 L -0.126042 -0.704124 Z" stroke="#000000" fill="#FEFE00"/><path d=" M -5.1526e-17 -0.699549 L 0.0585723 -0.673635 L -2.93202e-17 -0.647121 L -0.0585723 -0.673635 Z" stroke="#000000" fill="#FEFE00"/><path d=" M 0.0690295 -0.668954 L 0.128956 -0.64244 L 0.0703992 -0.615307 L 0.0104572 -0.64244 Z" stroke="#000000" fill="#FEFE00"/><path d=" M 0.139658 -0.63765 L 0.200985 -0.610517 L 0.142461 -0.582741 L 0.081101 -0.610517 Z" stroke="#000000" fill="#FEFE00"/><path d=" M 0.21194 -0.605613 L 0.274719 -0.577837 L 0.216246 -0.549397 L 0.153417 -0.577837 Z" stroke="#000000" fill="#FEFE00"/><path d=" M 0.285937 -0.572816 L 0.350219 -0.544376 L 0.291816 -0.515246 L 0.227464 -0.544376 Z" stroke="#000000" fill="#FEFE00"/><path d=" M 0.361708 -0.539233 L 0.427548 -0.510103 L 0.369237 -0.480258 L 0.303306 -0.510103 Z" stroke="#000000" fill="#FEFE00"/><path d=" M 0.439319 -0.504834 L 0.506775 -0.474989 L 0.448577 -0.444403 L 0.381008 -0.474989 Z" stroke="#000000" fill="#FEFE00"/><path d=" M 0.518838 -0.469589 L 0.587969 -0.439003 L 0.529909 -0.407648 L 0.460641 -0.439003 Z" stroke="#000000" fill="#FEFE00"/><path d=" M 0.600336 -0.433468 L 0.671206 -0.402113 L 0.613309 -0.369959 L 0.542276 -0.402113 Z" stroke="#000000" fill="#FEFE00"/><path d=" M -0.136497 -0.699549 L -0.0792476 -0.673635 L -0.139174 -0.647121 L -0.196392 -0.673635 Z" stroke="#000000" fill="#FEFE00"/><path d=" M -0.0690295 -0.668954 L -0.0104572 -0.64244 L -0.0703992 -0.615307 L -0.128956 -0.64244 Z" stroke="#000000" fill="#FEFE00"/><path d=" M -2.74094e-17 -0.63765 L 0.0599421 -0.610517 L -2.79597e-17 -0.582741 L -0.0599421 -0.610517 Z" stroke="#000000" fill="#FEFE00"/><path d=" M 0.0706467 -0.605613 L 0.132007 -0.577837 L 0.0720821 -0.549397 L 0.0107047 -0.577837 Z" stroke="#000000" fill="#FEFE00"/><path d=" M 0.142968 -0.572816 L 0.205798 -0.544376 L 0.145908 -0.515246 L 0.0830432 -0.544376 Z" stroke="#000000" fill="#FEFE00"/><path d=" M 0.217025 -0.539233 L 0.281377 -0.510103 L 0.221542 -0.480258 L 0.157135 -0.510103 Z" stroke="#000000" fill="#FEFE00"/><path d=" M 0.29288 -0.504834 L 0.358811 -0.474989 L 0.299051 -0.444403 L 0.233044 -0.474989 Z" stroke="#000000" fill="#FEFE00"/><path d=" M 0.370599 -0.469589 L 0.438168 -0.439003 L 0.378506 -0.407648 L 0.310839 -0.439003 Z" stroke="#000000" fill="#FEFE00"/><path d=" M 0.450252 -0.433468 L 0.51952 -0.402113 L 0.459982 -0.369959 L 0.390591 -0.402113 Z" stroke="#000000" fill="#FEFE00"/><path d=" M 0.531913 -0.396436 L 0.602945 -0.364282 L 0.543555 -0.331299 L 0.472374 -0.364282 Z" stroke="#000000" fill="#FEFE00"/><path d=" M -0.207088 -0.668954 L -0.14987 -0.64244 L -0.211198 -0.615307 L -0.268369 -0.64244 Z" stroke="#000000" fill="#FEFE00"/><path d=" M -0.139658 -0.63765 L -0.081101 -0.610517 L -0.142461 -0.582741 L -0.200985 -0.610517 Z" stroke="#000000" fill="#FEFE00"/><path d=" M -0.0706467 -0.605613 L -0.0107047 -0.577837 L -0.0720821 -0.549397 L -0.132007 -0.577837 Z" stroke="#000000" fill="#FEFE00"/><path d=" M -2.69834e-17 -0.572816 L 0.0613774 -0.544376 L -1.53684e-17 -0.515246 L -0.0613774 -0.544376 Z" stroke="#000000" fill="#FEFE00"/><path d=" M 0.0723416 -0.539233 L 0.135207 -0.510103 L 0.0738474 -0.480258 L 0.0109642 -0.510103 Z" stroke="#000000" fill="#FEFE00"/><path d=" M 0.14644 -0.504834 L 0.210847 -0.474989 L 0.149526 -0.444403 L 0.0850806 -0.474989 Z" stroke="#000000" fill="#FEFE00"/><path d=" M 0.222359 -0.469589 L 0.288366 -0.439003 L 0.227104 -0.407648 L 0.161038 -0.439003 Z" stroke="#000000" fill="#FEFE00"/><path d=" M 0.300168 -0.433468 L 0.367835 -0.402113 L 0.306654 -0.369959 L 0.238906 -0.402113 Z" stroke="#000000" fill="#FEFE00"/><path d=" M 0.379938 -0.396436 L 0.449328 -0.364282 L 0.388253 -0.331299 L 0.318757 -0.364282 Z" stroke="#000000" fill="#FEFE00"/><path d=" M 0.461743 -0.358458 L 0.532924 -0.325475 L 0.471981 -0.29163 L 0.400668 -0.325475 Z" stroke="#000000" fill="#FEFE00"/><path d=" M -0.279315 -0.63765 L -0.222144 -0.610517 L -0.284923 -0.582741 L -0.342028 -0.610517 Z" stroke="#000000" fill="#FEFE00"/><path d=" M -0.21194 -0.605613 L -0.153417 -0.577837 L -0.216246 -0.549397 L -0.274719 -0.577837 Z" stroke="#000000" fill="#FEFE00"/><path d=" M -0.142968 -0.572816 L -0.0830432 -0.544376 L -0.145908 -0.515246 L -0.205798 -0.544376 Z" stroke="#000000" fill="#FEFE00"/><path d=" M -0.0723416 -0.539233 L -0.0109642 -0.510103 L -0.0738474 -0.480258 L -0.135207 -0.510103 Z" stroke="#000000" fill="#FEFE00"/><path d=" M -1.32678e-17 -0.504834 L 0.0628832 -0.474989 L -1.07576e-18 -0.444403 L -0.0628832 -0.474989 Z" stroke="#000000" fill="#FEFE00"/><path d=" M 0.0741198 -0.469589 L 0.138565 -0.439003 L 0.0757013 -0.407648 L 0.0112366 -0.439003 Z" stroke="#000000" fill="#FEFE00"/><path d=" M 0.150084 -0.433468 L 0.21615 -0.402113 L 0.153327 -0.369959 L 0.0872205 -0.402113 Z" stroke="#000000" fill="#FEFE00"/><path d=" M 0.227963 -0.396436 L 0.295711 -0.364282 L 0.232952 -0.331299 L 0.16514 -0.364282 Z" stroke="#000000" fill="#FEFE00"/><path d=" M 0.307829 -0.358458 L 0.377325 -0.325475 L 0.314654 -0.29163 L 0.24507 -0.325475 Z" stroke="#000000" fill="#FEFE00"/><path d=" M 0.38976 -0.3195 L 0.461073 -0.285654 L 0.398516 -0.250913 L 0.327089 -0.285654 Z" stroke="#000000" fill="#FEFE00"/><path d=" M -0.353234 -0.605613 L -0.296128 -0.577837 L -0.36041 -0.549397 L -0.417431 -0.577837 Z" stroke="#000000" fill="#FEFE00"/><path d=" M -0.285937 -0.572816 L -0.227464 -0.544376 L -0.291816 -0.515246 L -0.350219 -0.544376 Z" stroke="#000000" fill="#FEFE00"/><path d=" M -0.217025 -0.539233 L -0.157135 -0.510103 L -0.221542 -0.480258 L -0.281377 -0.510103 Z" stroke="#000000" fill="#FEFE00"/><path d=" M -0.14644 -0.504834 L -0.0850806 -0.474989 L -0.149526 -0.444403 L -0.210847 -0.474989 Z" stroke="#000000" fill="#FEFE00"/><path d=" M -0.0741198 -0.469589 L -0.0112366 -0.439003 L -0.0757013 -0.407648 L -0.138565 -0.439003 Z" stroke="#000000" fill="#FEFE00"/><path d=" M 1.13056e-18 -0.433468 L 0.0644647 -0.402113 L 1.39436e-17 -0.369959 L -0.0644647 -0.402113 Z" stroke="#000000" fill="#FEFE00"/><path d=" M 0.0759876 -0.396436 L 0.142094 -0.364282 L 0.0776507 -0.331299 L 0.0115229 -0.364282 Z" stroke="#000000" fill="#FEFE00"/><path d=" M 0.153914 -0.358458 L 0.221727 -0.325475 L 0.157327 -0.29163 L 0.0894709 -0.325475 Z" stroke="#000000" fill="#FEFE00"/><path d=" M 0.233856 -0.3195 L 0.30344 -0.285654 L 0.239109 -0.250913 L 0.169456 -0.285654 Z" stroke="#000000" fill="#FEFE00"/><path d=" M 0.315891 -0.27952 L 0.387318 -0.244779 L 0.323082 -0.209105 L 0.25156 -0.244779 Z" stroke="#000000" fill="#FEFE00"/><path d=" M -0.428905 -0.572816 L -0.371884 -0.544376 L -0.437724 -0.515246 L -0.494639 -0.544376 Z" stroke="#000000" fill="#FEFE00"/><path d=" M -0.361708 -0.539233 L -0.303306 -0.510103 L -0.369237 -0.480258 L -0.427548 -0.510103 Z" stroke="#000000" fill="#FEFE00"/><path d=" M -0.29288 -0.504834 L -0.233044 -0.474989 L -0.299051 -0.444403 L -0.358811 -0.474989 Z" stroke="#000000" fill="#FEFE00"/><path d=" M -0.222359 -0.469589 L -0.161038 -0.439003 L -0.227104 -0.407648 L -0.288366 -0.439003 Z" stroke="#000000" fill="#FEFE00"/><path d=" M -0.150084 -0.433468 L -0.0872205 -0.402113 L -0.153327 -0.369959 L -0.21615 -0.402113 Z" stroke="#000000" fill="#FEFE00"/><path d=" M -0.0759876 -0.396436 L -0.0115229 -0.364282 L -0.0776507 -0.331299 L -0.142094 -0.364282 Z" stroke="#000000" fill="#FEFE00"/><path d=" M 1.62639e-17 -0.358458 L 0.0661278 -0.325475 L 2.97467e-17 -0.29163 L -0.0661278 -0.325475 Z" stroke="#000000" fill="#FEFE00"/><path d=" M 0.0779519 -0.3195 L 0.145808 -0.285654 L 0.0797031 -0.250913 L 0.0118241 -0.285654 Z" stroke="#000000" fill="#FEFE00"/><path d=" M 0.157945 -0.27952 L 0.227599 -0.244779 L 0.161541 -0.209105 L 0.0918405 -0.244779 Z" stroke="#000000" fill="#FEFE00"/><path d=" M 0.240062 -0.23848 L 0.311584 -0.202806 L 0.245601 -0.166162 L 0.174004 -0.202806 Z" stroke="#000000" fill="#FEFE00"/><path d=" M -0.506391 -0.539233 L -0.449476 -0.510103 L -0.516932 -0.480258 L -0.573719 -0.510103 Z" stroke="#000000" fill="#FEFE00"/><path d=" M -0.439319 -0.504834 L -0.381008 -0.474989 L -0.448577 -0.444403 L -0.506775 -0.474989 Z" stroke="#000000" fill="#FEFE00"/><path d=" M -0.370599 -0.469589 L -0.310839 -0.439003 L -0.378506 -0.407648 L -0.438168 -0.439003 Z" stroke="#000000" fill="#FEFE00"/><path d=" M -0.300168 -0.433468 L -0.238906 -0.402113 L -0.306654 -0.369959 L -0.367835 -0.402113 Z" stroke="#000000" fill="#FEFE00"/><path d=" M -0.227963 -0.396436 L -0.16514 -0.364282 L -0.232952 -0.331299 L -0.295711 -0.364282 Z" stroke="#000000" fill="#FEFE00"/><path d=" M -0.153914 -0.358458 L -0.0894709 -0.325475 L -0.157327 -0.29163 L -0.221727 -0.325475 Z" stroke="#000000" fill="#FEFE00"/><path d=" M -0.0779519 -0.3195 L -0.0118241 -0.285654 L -0.0797031 -0.250913 L -0.145808 -0.285654 Z" stroke="#000000" fill="#FEFE00"/><path d=" M 3.09986e-17 -0.27952 L 0.067879 -0.244779 L 3.17043e-17 -0.209105 L -0.067879 -0.244779 Z" stroke="#000000" fill="#FEFE00"/><path d=" M 0.0800206 -0.23848 L 0.149721 -0.202806 L 0.0818671 -0.166162 L 0.0121416 -0.202806 Z" stroke="#000000" fill="#FEFE00"/><path d=" M 0.162193 -0.196336 L 0.23379 -0.159691 L 0.165987 -0.122036 L 0.094339 -0.159691 Z" stroke="#000000" fill="#FEFE00"/><path d=" M -0.585759 -0.504834 L -0.528972 -0.474989 L -0.598103 -0.444403 L -0.654738 -0.474989 Z" stroke="#000000" fill="#FEFE00"/><path d=" M -0.518838 -0.469589 L -0.460641 -0.439003 L -0.529909 -0.407648 L -0.587969 -0.439003 Z" stroke="#000000" fill="#FEFE00"/><path d=" M -0.450252 -0.433468 L -0.390591 -0.402113 L -0.459982 -0.369959 L -0.51952 -0.402113 Z" stroke="#000000" fill="#FEFE00"/><path d=" M -0.379938 -0.396436 L -0.318757 -0.364282 L -0.388253 -0.331299 L -0.449328 -0.364282 Z" stroke="#000000" fill="#FEFE00"/><path d=" M -0.307829 -0.358458 L -0.24507 -0.325475 L -0.314654 -0.29163 L -0.377325 -0.325475 Z" stroke="#000000" fill="#FEFE00"/><path d=" M -0.233856 -0.3195 L -0.169456 -0.285654 L -0.239109 -0.250913 L -0.30344 -0.285654 Z" stroke="#000000" fill="#FEFE00"/><path d=" M -0.157945 -0.27952 L -0.0918405 -0.244779 L -0.161541 -0.209105 L -0.227599 -0.244779 Z" stroke="#000000" fill="#FEFE00"/><path d=" M -0.0800206 -0.23848 L -0.0121416 -0.202806 L -0.0818671 -0.166162 L -0.149721 -0.202806 Z" stroke="#000000" fill="#FEFE00"/><path d=" M 3.42805e-17 -0.196336 L 0.0697255 -0.159691 L 6.27714e-17 -0.122036 L -0.0697255 -0.159691 Z" stroke="#000000" fill="#FEFE00"/><path d=" M 0.082202 -0.153043 L 0.15385 -0.115388 L 0.0841518 -0.0766798 L 0.0124765 -0.115388 Z" stroke="#000000" fill="#FEFE00"/><path d=" M -0.667078 -0.469589 L -0.610442 -0.439003 L -0.681312 -0.407648 L -0.73777 -0.439003 Z" stroke="#000000" fill="#FEFE00"/><path d=" M -0.600336 -0.433468 L -0.542276 -0.402113 L -0.613309 -0.369959 L -0.671206 -0.402113 Z" stroke="#000000" fill="#FEFE00"/><path d=" M -0.531913 -0.396436 L -0.472374 -0.364282 L -0.543555 -0.331299 L -0.602945 -0.364282 Z" stroke="#000000" fill="#FEFE00"/><path d=" M -0.461743 -0.358458 L -0.400668 -0.325475 L -0.471981 -0.29163 L -0.532924 -0.325475 Z" stroke="#000000" fill="#FEFE00"/><path d=" M -0.38976 -0.3195 L -0.327089 -0.285654 L -0.398516 -0.250913 L -0.461073 -0.285654 Z" stroke="#000000" fill="#FEFE00"/><path d=" M -0.315891 -0.27952 L -0.25156 -0.244779 L -0.323082 -0.209105 L -0.387318 -0.244779 Z" stroke="#000000" fill="#FEFE00"/><path d=" M -0.240062 -0.23848 L -0.174004 -0.202806 L -0.245601 -0.166162 L -0.311584 -0.202806 Z" stroke="#000000" fill="#FEFE00"/><path d=" M -0.162193 -0.196336 L -0.094339 -0.159691 L -0.165987 -0.122036 L -0.23379 -0.159691 Z" stroke="#000000" fill="#FEFE00"/><path d=" M -0.082202 -0.153043 L -0.0124765 -0.115388 L -0.0841518 -0.0766798 L -0.15385 -0.115388 Z" stroke="#000000" fill="#FEFE00"/><path d=" M 6.54241e-17 -0.108553 L 0.0716752 -0.0698451 L 6.69979e-17 -0.0300395 L -0.0716752 -0.0698451 Z" stroke="#000000" fill="#FEFE00"/><path d=" M 0.00624105 -0.0192378 L 0.0779163 -0.0590434 L 0.0769729 0.0246677 L 0.00624105 0.0651132 Z" stroke="#000000" fill="#EE0000"/><path d=" M 0.0903117 -0.0660272 L 0.16001 -0.104735 L 0.158175 -0.0216608 L 0.0893684 0.0176838 Z" stroke="#000000" fill="#EE0000"/><path d=" M 0.172068 -0.111529 L 0.239871 -0.149184 L 0.237192 -0.0667427 L 0.170233 -0.0284546 Z" stroke="#000000" fill="#EE0000"/><path d=" M 0.251605 -0.155795 L 0.317588 -0.192439 L 0.314111 -0.110627 L 0.248926 -0.073354 Z" stroke="#000000" fill="#EE0000"/><path d=" M 0.329011 -0.198876 L 0.393247 -0.23455 L 0.389014 -0.153362 L 0.325534 -0.117064 Z" stroke="#000000" fill="#EE0000"/><path d=" M 0.404371 -0.240817 L 0.466928 -0.275559 L 0.461979 -0.194992 L 0.400138 -0.15963 Z" stroke="#000000" fill="#EE0000"/><path d=" M 0.477765 -0.281665 L 0.538708 -0.31551 L 0.533082 -0.235559 L 0.472817 -0.201098 Z" stroke="#000000" fill="#EE0000"/><path d=" M 0.549269 -0.321461 L 0.60866 -0.354444 L 0.602391 -0.275102 L 0.543643 -0.241509 Z" stroke="#000000" fill="#EE0000"/><path d=" M 0.618955 -0.360245 L 0.676852 -0.392399 L 0.669975 -0.313662 L 0.612687 -0.280903 Z" stroke="#000000" fill="#EE0000"/><path d=" M 0.686891 -0.398055 L 0.74335 -0.42941 L 0.735897 -0.351273 L 0.680014 -0.319318 Z" stroke="#000000" fill="#EE0000"/><path d=" M 0.00615997 0.0797503 L 0.0768918 0.0393048 L 0.075973 0.120841 L 0.00615997 0.16188 Z" stroke="#000000" fill="#EE0000"/><path d=" M 0.0891273 0.0322123 L 0.157934 -0.00713234 L 0.156146 0.0738126 L 0.0882085 0.113748 Z" stroke="#000000" fill="#EE0000"/><path d=" M 0.169841 -0.0140343 L 0.236799 -0.0523223 L 0.234188 0.0280337 L 0.168052 0.0669107 Z" stroke="#000000" fill="#EE0000"/><path d=" M 0.24839 -0.0590412 L 0.313575 -0.0963148 L 0.310184 -0.0165449 L 0.245779 0.0213148 Z" stroke="#000000" fill="#EE0000"/><path d=" M 0.324863 -0.102858 L 0.388342 -0.139157 L 0.384214 -0.0599698 L 0.321472 -0.023088 Z" stroke="#000000" fill="#EE0000"/><path d=" M 0.399339 -0.145531 L 0.46118 -0.180892 L 0.456351 -0.102285 L 0.39521 -0.0663439 Z" stroke="#000000" fill="#EE0000"/><path d=" M 0.471895 -0.187104 L 0.53216 -0.221565 L 0.526669 -0.143533 L 0.467067 -0.108497 Z" stroke="#000000" fill="#EE0000"/><path d=" M 0.542606 -0.22762 L 0.601355 -0.261213 L 0.595235 -0.183753 L 0.537115 -0.149588 Z" stroke="#000000" fill="#EE0000"/><path d=" M 0.611541 -0.267118 L 0.66883 -0.299876 L 0.662114 -0.222984 L 0.605421 -0.189658 Z" stroke="#000000" fill="#EE0000"/><path d=" M 0.678765 -0.305636 L 0.734648 -0.33759 L 0.727367 -0.261261 L 0.672049 -0.228744 Z" stroke="#000000" fill="#EE0000"/><path d=" M 0.00608098 0.176136 L 0.075894 0.135097 L 0.0749987 0.214542 L 0.00608098 0.25613 Z" stroke="#000000" fill="#EE0000"/><path d=" M 0.0879736 0.127904 L 0.155911 0.0879684 L 0.154168 0.166865 L 0.0870784 0.207349 Z" stroke="#000000" fill="#EE0000"/><path d=" M 0.16767 0.080966 L 0.233806 0.0420891 L 0.23126 0.120438 L 0.165927 0.159862 Z" stroke="#000000" fill="#EE0000"/><path d=" M 0.245257 0.03527 L 0.309662 -0.00258965 L 0.306355 0.0752136 L 0.242711 0.113619 Z" stroke="#000000" fill="#EE0000"/><path d=" M 0.320817 -0.00923247 L 0.383559 -0.0461142 L 0.37953 0.0311453 L 0.31751 0.0685708 Z" stroke="#000000" fill="#EE0000"/><path d=" M 0.394429 -0.0525876 L 0.455571 -0.0885289 L 0.450859 -0.0118107 L 0.390401 0.0246719 Z" stroke="#000000" fill="#EE0000"/><path d=" M 0.466168 -0.0948391 L 0.52577 -0.129875 L 0.520409 -0.0536959 L 0.461455 -0.0181209 Z" stroke="#000000" fill="#EE0000"/><path d=" M 0.536103 -0.136029 L 0.594223 -0.170194 L 0.588247 -0.0945498 L 0.530742 -0.0598492 Z" stroke="#000000" fill="#EE0000"/><path d=" M 0.604302 -0.176196 L 0.660995 -0.209522 L 0.654435 -0.13441 L 0.598326 -0.100552 Z" stroke="#000000" fill="#EE0000"/><path d=" M 0.670829 -0.215378 L 0.726146 -0.247896 L 0.719032 -0.173313 L 0.664269 -0.140267 Z" stroke="#000000" fill="#EE0000"/><path d=" M 0.00600398 0.270021 L 0.0749217 0.228433 L 0.0740491 0.305866 L 0.00600398 0.347962 Z" stroke="#000000" fill="#EE0000"/><path d=" M 0.0868494 0.221147 L 0.153939 0.180662 L 0.152239 0.257587 L 0.0859768 0.29858 Z" stroke="#000000" fill="#EE0000"/><path d=" M 0.165554 0.173567 L 0.230887 0.134142 L 0.228403 0.210559 L 0.163854 0.250491 Z" stroke="#000000" fill="#EE0000"/><path d=" M 0.242201 0.12723 L 0.305846 0.0888246 L 0.302619 0.164733 L 0.239718 0.203646 Z" stroke="#000000" fill="#EE0000"/><path d=" M 0.316871 0.0820889 L 0.378892 0.0446634 L 0.37496 0.120065 L 0.313645 0.157997 Z" stroke="#000000" fill="#EE0000"/><path d=" M 0.38964 0.0380975 L 0.450097 0.00161482 L 0.445497 0.0765112 L 0.385708 0.113499 Z" stroke="#000000" fill="#EE0000"/><path d=" M 0.460578 -0.00478763 L 0.519531 -0.0403626 L 0.514296 0.0340302 L 0.455977 0.0701087 Z" stroke="#000000" fill="#EE0000"/><path d=" M 0.529754 -0.0466076 L 0.587259 -0.0813083 L 0.581421 -0.00741704 L 0.524518 0.0277851 Z" stroke="#000000" fill="#EE0000"/><path d=" M 0.597233 -0.0874017 L 0.653342 -0.12126 L 0.646931 -0.0478678 L 0.591395 -0.0135104 Z" stroke="#000000" fill="#EE0000"/><path d=" M 0.663076 -0.127207 L 0.717839 -0.160253 L 0.710886 -0.0873576 L 0.656666 -0.0538149 Z" stroke="#000000" fill="#EE0000"/><path d=" M 0.00592892 0.361501 L 0.0739741 0.319405 L 0.0731233 0.394902 L 0.00592892 0.437467 Z" stroke="#000000" fill="#EE0000"/><path d=" M 0.0857536 0.312032 L 0.152016 0.271039 L 0.150358 0.346065 L 0.0849028 0.387529 Z" stroke="#000000" fill="#EE0000"/><path d=" M 0.163491 0.263857 L 0.22804 0.223924 L 0.225617 0.298479 L 0.161833 0.338883 Z" stroke="#000000" fill="#EE0000"/><path d=" M 0.239221 0.216926 L 0.302122 0.178012 L 0.298973 0.252095 L 0.236798 0.29148 Z" stroke="#000000" fill="#EE0000"/><path d=" M 0.313021 0.17119 L 0.374337 0.133258 L 0.370498 0.206868 L 0.309872 0.245272 Z" stroke="#000000" fill="#EE0000"/><path d=" M 0.384965 0.126606 L 0.444753 0.0896177 L 0.440261 0.162756 L 0.381126 0.200216 Z" stroke="#000000" fill="#EE0000"/><path d=" M 0.45512 0.0831291 L 0.513439 0.0470506 L 0.508325 0.119719 L 0.450627 0.156268 Z" stroke="#000000" fill="#EE0000"/><path d=" M 0.523553 0.0407197 L 0.580455 0.00551751 L 0.574751 0.0777163 L 0.518439 0.113388 Z" stroke="#000000" fill="#EE0000"/><path d=" M 0.590327 -0.000661372 L 0.645864 -0.0350188 L 0.639598 0.0367123 L 0.584623 0.0715374 Z" stroke="#000000" fill="#EE0000"/><path d=" M 0.655501 -0.041051 L 0.70972 -0.0745937 L 0.702923 -0.00332846 L 0.649236 0.03068 Z" stroke="#000000" fill="#EE0000"/><path d=" M 0.0058557 0.450667 L 0.0730501 0.408102 L 0.0722203 0.481734 L 0.0058557 0.524732 Z" stroke="#000000" fill="#EE0000"/><path d=" M 0.084685 0.400649 L 0.150141 0.359185 L 0.148524 0.432382 L 0.0838552 0.474281 Z" stroke="#000000" fill="#EE0000"/><path d=" M 0.161478 0.351923 L 0.225262 0.311518 L 0.222897 0.384278 L 0.159861 0.42512 Z" stroke="#000000" fill="#EE0000"/><path d=" M 0.236313 0.304439 L 0.298488 0.265054 L 0.295414 0.337375 L 0.233949 0.377199 Z" stroke="#000000" fill="#EE0000"/><path d=" M 0.309264 0.258152 L 0.36989 0.219747 L 0.366142 0.291629 L 0.30619 0.330472 Z" stroke="#000000" fill="#EE0000"/><path d=" M 0.380401 0.213015 L 0.439535 0.175555 L 0.435147 0.246997 L 0.376652 0.284896 Z" stroke="#000000" fill="#EE0000"/><path d=" M 0.44979 0.168986 L 0.507487 0.132437 L 0.502491 0.20344 L 0.445402 0.240428 Z" stroke="#000000" fill="#EE0000"/><path d=" M 0.517496 0.126026 L 0.573808 0.0903544 L 0.568233 0.160918 L 0.512499 0.197029 Z" stroke="#000000" fill="#EE0000"/><path d=" M 0.583579 0.0840955 L 0.638555 0.0492704 L 0.63243 0.119396 L 0.578004 0.154659 Z" stroke="#000000" fill="#EE0000"/><path d=" M 0.648096 0.0431583 L 0.701783 0.00914976 L 0.695136 0.0788386 L 0.641972 0.113284 Z" stroke="#000000" fill="#EE0000"/><path d=" M 0.00578427 0.537606 L 0.0721489 0.494608 L 0.0713394 0.566443 L 0.00578427 0.609841 Z" stroke="#000000" fill="#EE0000"/><path d=" M 0.0836428 0.487081 L 0.148311 0.445182 L 0.146733 0.516615 L 0.0828333 0.558917 Z" stroke="#000000" fill="#EE0000"/><path d=" M 0.159515 0.437845 L 0.222551 0.397004 L 0.220243 0.468032 L 0.157937 0.509279 Z" stroke="#000000" fill="#EE0000"/><path d=" M 0.233475 0.38985 L 0.29494 0.350026 L 0.291938 0.420648 L 0.231167 0.460879 Z" stroke="#000000" fill="#EE0000"/><path d=" M 0.305595 0.343049 L 0.365548 0.304205 L 0.361886 0.374419 L 0.302594 0.413671 Z" stroke="#000000" fill="#EE0000"/><path d=" M 0.375943 0.297398 L 0.434438 0.259499 L 0.43015 0.329303 L 0.372282 0.367611 Z" stroke="#000000" fill="#EE0000"/><path d=" M 0.444584 0.252855 L 0.501673 0.215866 L 0.496789 0.28526 L 0.440296 0.322659 Z" stroke="#000000" fill="#EE0000"/><path d=" M 0.511577 0.20938 L 0.567311 0.17327 L 0.561861 0.242254 L 0.506694 0.278774 Z" stroke="#000000" fill="#EE0000"/><path d=" M 0.576983 0.166936 L 0.63141 0.131673 L 0.62542 0.200247 L 0.571533 0.23592 Z" stroke="#000000" fill="#EE0000"/><path d=" M 0.640857 0.125486 L 0.694021 0.0910406 L 0.687519 0.159205 L 0.634868 0.19406 Z" stroke="#000000" fill="#EE0000"/><path d=" M 0.00571457 0.6224 L 0.0712696 0.579003 L 0.0704796 0.649107 L 0.00571457 0.692872 Z" stroke="#000000" fill="#EE0000"/><path d=" M 0.0826259 0.571408 L 0.146526 0.529107 L 0.144985 0.59884 L 0.0818359 0.641513 Z" stroke="#000000" fill="#EE0000"/><path d=" M 0.157598 0.521702 L 0.219905 0.480455 L 0.217651 0.549814 L 0.156058 0.591435 Z" stroke="#000000" fill="#EE0000"/><path d=" M 0.230705 0.473233 L 0.291476 0.433002 L 0.288544 0.501984 L 0.228451 0.542591 Z" stroke="#000000" fill="#EE0000"/><path d=" M 0.302013 0.425955 L 0.361306 0.386703 L 0.357729 0.455306 L 0.299081 0.494937 Z" stroke="#000000" fill="#EE0000"/><path d=" M 0.37159 0.379826 L 0.429457 0.341518 L 0.425267 0.409739 L 0.368012 0.448428 Z" stroke="#000000" fill="#EE0000"/><path d=" M 0.439496 0.334804 L 0.495989 0.297405 L 0.491215 0.365245 L 0.435306 0.403025 Z" stroke="#000000" fill="#EE0000"/><path d=" M 0.505793 0.290849 L 0.56096 0.254329 L 0.55563 0.321785 L 0.501019 0.358689 Z" stroke="#000000" fill="#EE0000"/><path d=" M 0.570535 0.247925 L 0.624422 0.212252 L 0.618564 0.279324 L 0.565206 0.315381 Z" stroke="#000000" fill="#EE0000"/><path d=" M 0.633778 0.205995 L 0.686429 0.17114 L 0.680068 0.237829 L 0.62792 0.273067 Z" stroke="#000000" fill="#EE0000"/><path d=" M 0.00564652 0.705129 L 0.0704116 0.661364 L 0.0696404 0.729799 L 0.00564652 0.773901 Z" stroke="#000000" fill="#EE0000"/><path d=" M 0.0816334 0.653707 L 0.144782 0.611034 L 0.143278 0.679127 L 0.0808622 0.722142 Z" stroke="#000000" fill="#EE0000"/><path d=" M 0.155728 0.603566 L 0.21732 0.561945 L 0.215119 0.629692 L 0.154223 0.671659 Z" stroke="#000000" fill="#EE0000"/><path d=" M 0.227999 0.554658 L 0.288092 0.51405 L 0.285227 0.581448 L 0.225797 0.622406 Z" stroke="#000000" fill="#EE0000"/><path d=" M 0.298514 0.506939 L 0.357162 0.467308 L 0.353666 0.534354 L 0.295649 0.574338 Z" stroke="#000000" fill="#EE0000"/><path d=" M 0.367335 0.460366 L 0.42459 0.421677 L 0.420493 0.488369 L 0.363839 0.527413 Z" stroke="#000000" fill="#EE0000"/><path d=" M 0.434524 0.414898 L 0.490434 0.377117 L 0.485765 0.443454 L 0.430428 0.48159 Z" stroke="#000000" fill="#EE0000"/><path d=" M 0.500137 0.370496 L 0.554749 0.333592 L 0.549536 0.399571 L 0.495469 0.436832 Z" stroke="#000000" fill="#EE0000"/><path d=" M 0.56423 0.327123 L 0.617588 0.291066 L 0.611857 0.356687 L 0.559017 0.393102 Z" stroke="#000000" fill="#EE0000"/><path d=" M 0.626854 0.284744 L 0.679002 0.249505 L 0.672777 0.314766 L 0.621123 0.350364 Z" stroke="#000000" fill="#EE0000"/><path d=" M 0.00558007 0.785865 L 0.0695739 0.741763 L 0.0688209 0.808587 L 0.00558007 0.852999 Z" stroke="#000000" fill="#EE0000"/><path d=" M 0.0806645 0.734049 L 0.14308 0.691034 L 0.141611 0.757544 L 0.0799115 0.800873 Z" stroke="#000000" fill="#EE0000"/><path d=" M 0.153901 0.683507 L 0.214796 0.64154 L 0.212645 0.707732 L 0.152431 0.750017 Z" stroke="#000000" fill="#EE0000"/><path d=" M 0.225356 0.634195 L 0.284786 0.593238 L 0.281986 0.659107 L 0.223205 0.700386 Z" stroke="#000000" fill="#EE0000"/><path d=" M 0.295095 0.586068 L 0.353111 0.546085 L 0.349694 0.611627 L 0.292295 0.651936 Z" stroke="#000000" fill="#EE0000"/><path d=" M 0.363178 0.539083 L 0.419831 0.500039 L 0.415825 0.565253 L 0.35976 0.604625 Z" stroke="#000000" fill="#EE0000"/><path d=" M 0.429663 0.4932 L 0.485001 0.455063 L 0.480435 0.519946 L 0.425657 0.558414 Z" stroke="#000000" fill="#EE0000"/><path d=" M 0.494607 0.448381 L 0.548674 0.41112 L 0.543574 0.475669 L 0.490041 0.513264 Z" stroke="#000000" fill="#EE0000"/><path d=" M 0.558062 0.40459 L 0.610902 0.368174 L 0.605294 0.432389 L 0.552962 0.469139 Z" stroke="#000000" fill="#EE0000"/><path d=" M 0.620079 0.361791 L 0.671733 0.326193 L 0.66564 0.390071 L 0.614471 0.426005 Z" stroke="#000000" fill="#EE0000"/><path d=" M -0.743401 -0.429357 L -0.686942 -0.398002 L -0.680065 -0.319265 L -0.735948 -0.35122 Z" stroke="#000000" fill="#0000F2"/><path d=" M -0.676906 -0.392345 L -0.619009 -0.360191 L -0.61274 -0.28085 L -0.670029 -0.313608 Z" stroke="#000000" fill="#0000F2"/><path d=" M -0.608717 -0.35439 L -0.549326 -0.321407 L -0.543699 -0.241455 L -0.602448 -0.275049 Z" stroke="#000000" fill="#0000F2"/><path d=" M -0.538768 -0.315456 L -0.477825 -0.281611 L -0.472876 -0.201044 L -0.533141 -0.235504 Z" stroke="#000000" fill="#0000F2"/><path d=" M -0.466991 -0.275504 L -0.404435 -0.240763 L -0.400201 -0.159576 L -0.462042 -0.194937 Z" stroke="#000000" fill="#0000F2"/><path d=" M -0.393314 -0.234494 L -0.329078 -0.198821 L -0.3256 -0.117009 L -0.38908 -0.153307 Z" stroke="#000000" fill="#0000F2"/><path d=" M -0.317659 -0.192384 L -0.251676 -0.15574 L -0.248996 -0.0732985 L -0.314181 -0.110572 Z" stroke="#000000" fill="#0000F2"/><path d=" M -0.239945 -0.149128 L -0.172143 -0.111473 L -0.170307 -0.0283987 L -0.237266 -0.0666868 Z" stroke="#000000" fill="#0000F2"/><path d=" M -0.160089 -0.104679 L -0.0903904 -0.0659711 L -0.0894471 0.01774 L -0.158254 -0.0216046 Z" stroke="#000000" fill="#0000F2"/><path d=" M -0.0779995 -0.0589869 L -0.00632428 -0.0191813 L -0.00632428 0.0651697 L -0.0770562 0.0247241 Z" stroke="#000000" fill="#0000F2"/><path d=" M -0.734698 -0.337541 L -0.678815 -0.305586 L -0.672099 -0.228694 L -0.727416 -0.261211 Z" stroke="#000000" fill="#0000F2"/><path d=" M -0.668882 -0.299826 L -0.611593 -0.267068 L -0.605474 -0.189608 L -0.662166 -0.222934 Z" stroke="#000000" fill="#0000F2"/><path d=" M -0.60141 -0.261163 L -0.542662 -0.227569 L -0.53717 -0.149538 L -0.59529 -0.183703 Z" stroke="#000000" fill="#0000F2"/><path d=" M -0.532219 -0.221514 L -0.471954 -0.187053 L -0.467125 -0.108446 L -0.526728 -0.143482 Z" stroke="#000000" fill="#0000F2"/><path d=" M -0.461241 -0.180841 L -0.3994 -0.14548 L -0.395271 -0.0662928 L -0.456413 -0.102234 Z" stroke="#000000" fill="#0000F2"/><path d=" M -0.388408 -0.139105 L -0.324928 -0.102806 L -0.321537 -0.0230366 L -0.384279 -0.0599183 Z" stroke="#000000" fill="#0000F2"/><path d=" M -0.313644 -0.096263 L -0.248459 -0.0589895 L -0.245848 0.0213665 L -0.310253 -0.0164932 Z" stroke="#000000" fill="#0000F2"/><path d=" M -0.236872 -0.0522704 L -0.169913 -0.0139823 L -0.168125 0.0669627 L -0.234261 0.0280857 Z" stroke="#000000" fill="#0000F2"/><path d=" M -0.158011 -0.00708018 L -0.0892041 0.0322645 L -0.0882852 0.113801 L -0.156222 0.0738648 Z" stroke="#000000" fill="#0000F2"/><path d=" M -0.0769729 0.0393571 L -0.00624105 0.0798026 L -0.00624105 0.161932 L -0.0760541 0.120893 Z" stroke="#000000" fill="#0000F2"/><path d=" M -0.726195 -0.247849 L -0.670878 -0.215332 L -0.664318 -0.14022 L -0.719081 -0.173266 Z" stroke="#000000" fill="#0000F2"/><path d=" M -0.661046 -0.209475 L -0.604354 -0.176149 L -0.598377 -0.100505 L -0.654486 -0.134363 Z" stroke="#000000" fill="#0000F2"/><path d=" M -0.594277 -0.170147 L -0.536157 -0.135981 L -0.530796 -0.0598019 L -0.588301 -0.0945026 Z" stroke="#000000" fill="#0000F2"/><path d=" M -0.525827 -0.129828 L -0.466225 -0.0947916 L -0.461513 -0.0180734 L -0.520466 -0.0536484 Z" stroke="#000000" fill="#0000F2"/><path d=" M -0.455631 -0.0884811 L -0.39449 -0.0525398 L -0.390461 0.0247197 L -0.450919 -0.0117629 Z" stroke="#000000" fill="#0000F2"/><path d=" M -0.383622 -0.0460663 L -0.320881 -0.00918449 L -0.317574 0.0686188 L -0.379594 0.0311933 Z" stroke="#000000" fill="#0000F2"/><path d=" M -0.309729 -0.0025415 L -0.245324 0.0353182 L -0.242778 0.113667 L -0.306422 0.0752618 Z" stroke="#000000" fill="#0000F2"/><path d=" M -0.233877 0.0421374 L -0.167741 0.0810143 L -0.165998 0.159911 L -0.23133 0.120486 Z" stroke="#000000" fill="#0000F2"/><path d=" M -0.155986 0.0880168 L -0.0880484 0.127953 L -0.0871532 0.207398 L -0.154243 0.166913 Z" stroke="#000000" fill="#0000F2"/><path d=" M -0.075973 0.135146 L -0.00615997 0.176185 L -0.00615997 0.256179 L -0.0750777 0.214591 Z" stroke="#000000" fill="#0000F2"/><path d=" M -0.717887 -0.160209 L -0.663124 -0.127163 L -0.656714 -0.0537711 L -0.710934 -0.0873138 Z" stroke="#000000" fill="#0000F2"/><path d=" M -0.653392 -0.121216 L -0.597283 -0.0873576 L -0.591445 -0.0134664 L -0.646982 -0.0478237 Z" stroke="#000000" fill="#0000F2"/><path d=" M -0.587312 -0.0812641 L -0.529807 -0.0465634 L -0.524572 0.0278294 L -0.581474 -0.00737279 Z" stroke="#000000" fill="#0000F2"/><path d=" M -0.519587 -0.0403181 L -0.460634 -0.0047432 L -0.456033 0.0701531 L -0.514352 0.0340746 Z" stroke="#000000" fill="#0000F2"/><path d=" M -0.450156 0.00165942 L -0.389699 0.0381421 L -0.385767 0.113544 L -0.445556 0.0765558 Z" stroke="#000000" fill="#0000F2"/><path d=" M -0.378954 0.0447081 L -0.316934 0.0821336 L -0.313707 0.158042 L -0.375022 0.12011 Z" stroke="#000000" fill="#0000F2"/><path d=" M -0.305911 0.0888694 L -0.242267 0.127275 L -0.239784 0.203691 L -0.302684 0.164778 Z" stroke="#000000" fill="#0000F2"/><path d=" M -0.230956 0.134187 L -0.165623 0.173611 L -0.163924 0.250536 L -0.228472 0.210603 Z" stroke="#000000" fill="#0000F2"/><path d=" M -0.154012 0.180707 L -0.0869224 0.221191 L -0.0860498 0.298625 L -0.152312 0.257632 Z" stroke="#000000" fill="#0000F2"/><path d=" M -0.0749987 0.228478 L -0.00608098 0.270066 L -0.00608098 0.348007 L -0.0741261 0.305911 Z" stroke="#000000" fill="#0000F2"/><path d=" M -0.709768 -0.0745526 L -0.655548 -0.0410099 L -0.649283 0.0307211 L -0.70297 -0.00328736 Z" stroke="#000000" fill="#0000F2"/><path d=" M -0.645913 -0.0349775 L -0.590376 -0.000620102 L -0.584672 0.0715787 L -0.639648 0.0367536 Z" stroke="#000000" fill="#0000F2"/><path d=" M -0.580507 0.00555891 L -0.523605 0.0407611 L -0.518491 0.113429 L -0.574803 0.0777577 Z" stroke="#000000" fill="#0000F2"/><path d=" M -0.513493 0.0470921 L -0.455175 0.0831706 L -0.450682 0.156309 L -0.50838 0.11976 Z" stroke="#000000" fill="#0000F2"/><path d=" M -0.444811 0.0896593 L -0.385022 0.126647 L -0.381184 0.200257 L -0.440319 0.162798 Z" stroke="#000000" fill="#0000F2"/><path d=" M -0.374397 0.1333 L -0.313082 0.171232 L -0.309933 0.245314 L -0.370559 0.20691 Z" stroke="#000000" fill="#0000F2"/><path d=" M -0.302186 0.178054 L -0.239285 0.216967 L -0.236862 0.291522 L -0.299037 0.252136 Z" stroke="#000000" fill="#0000F2"/><path d=" M -0.228107 0.223966 L -0.163558 0.263899 L -0.161901 0.338925 L -0.225684 0.29852 Z" stroke="#000000" fill="#0000F2"/><path d=" M -0.152087 0.271081 L -0.0858247 0.312074 L -0.084974 0.38757 L -0.15043 0.346107 Z" stroke="#000000" fill="#0000F2"/><path d=" M -0.0740491 0.319446 L -0.00600398 0.361542 L -0.00600398 0.437508 L -0.0731984 0.394943 Z" stroke="#000000" fill="#0000F2"/><path d=" M -0.701829 0.00918832 L -0.648143 0.0431968 L -0.642018 0.113323 L -0.695182 0.0788771 Z" stroke="#000000" fill="#0000F2"/><path d=" M -0.638603 0.049309 L -0.583627 0.0841341 L -0.578052 0.154698 L -0.632478 0.119435 Z" stroke="#000000" fill="#0000F2"/><path d=" M -0.573859 0.0903931 L -0.517547 0.126065 L -0.51255 0.197067 L -0.568284 0.160957 Z" stroke="#000000" fill="#0000F2"/><path d=" M -0.507541 0.132476 L -0.449844 0.169025 L -0.445455 0.240467 L -0.502544 0.203479 Z" stroke="#000000" fill="#0000F2"/><path d=" M -0.439592 0.175594 L -0.380457 0.213053 L -0.376709 0.284935 L -0.435203 0.247036 Z" stroke="#000000" fill="#0000F2"/><path d=" M -0.369949 0.219786 L -0.309323 0.25819 L -0.306249 0.330511 L -0.366201 0.291668 Z" stroke="#000000" fill="#0000F2"/><path d=" M -0.298551 0.265093 L -0.236376 0.304478 L -0.234011 0.377238 L -0.295476 0.337414 Z" stroke="#000000" fill="#0000F2"/><path d=" M -0.225328 0.311557 L -0.161544 0.351962 L -0.159927 0.425158 L -0.222963 0.384316 Z" stroke="#000000" fill="#0000F2"/><path d=" M -0.15021 0.359224 L -0.0847545 0.400687 L -0.0839247 0.47432 L -0.148593 0.43242 Z" stroke="#000000" fill="#0000F2"/><path d=" M -0.0731233 0.40814 L -0.00592892 0.450705 L -0.00592892 0.52477 L -0.0722935 0.481772 Z" stroke="#000000" fill="#0000F2"/><path d=" M -0.694067 0.0910768 L -0.640903 0.125522 L -0.634913 0.194096 L -0.687564 0.159241 Z" stroke="#000000" fill="#0000F2"/><path d=" M -0.631457 0.131709 L -0.577031 0.166972 L -0.571581 0.235956 L -0.625468 0.200283 Z" stroke="#000000" fill="#0000F2"/><path d=" M -0.567361 0.173306 L -0.511627 0.209417 L -0.506744 0.278811 L -0.561911 0.24229 Z" stroke="#000000" fill="#0000F2"/><path d=" M -0.501725 0.215903 L -0.444636 0.252891 L -0.440348 0.322695 L -0.496842 0.285297 Z" stroke="#000000" fill="#0000F2"/><path d=" M -0.434493 0.259535 L -0.375999 0.297434 L -0.372338 0.367647 L -0.430205 0.329339 Z" stroke="#000000" fill="#0000F2"/><path d=" M -0.365606 0.304241 L -0.305654 0.343085 L -0.302652 0.413707 L -0.361945 0.374455 Z" stroke="#000000" fill="#0000F2"/><path d=" M -0.295002 0.350062 L -0.233536 0.389886 L -0.231228 0.460915 L -0.292 0.420684 Z" stroke="#000000" fill="#0000F2"/><path d=" M -0.222615 0.397039 L -0.159579 0.437881 L -0.158001 0.509315 L -0.220307 0.468068 Z" stroke="#000000" fill="#0000F2"/><path d=" M -0.148379 0.445217 L -0.0837106 0.487117 L -0.0829011 0.558952 L -0.146801 0.516651 Z" stroke="#000000" fill="#0000F2"/><path d=" M -0.0722203 0.494643 L -0.0058557 0.537641 L -0.0058557 0.609876 L -0.0714108 0.566479 Z" stroke="#000000" fill="#0000F2"/><path d=" M -0.686474 0.171174 L -0.633823 0.206029 L -0.627965 0.273101 L -0.680112 0.237862 Z" stroke="#000000" fill="#0000F2"/><path d=" M -0.624469 0.212286 L -0.570582 0.247959 L -0.565253 0.315415 L -0.618611 0.279358 Z" stroke="#000000" fill="#0000F2"/><path d=" M -0.561009 0.254363 L -0.505842 0.290883 L -0.501068 0.358722 L -0.555679 0.321819 Z" stroke="#000000" fill="#0000F2"/><path d=" M -0.496041 0.297439 L -0.439548 0.334838 L -0.435357 0.403059 L -0.491267 0.365278 Z" stroke="#000000" fill="#0000F2"/><path d=" M -0.429511 0.341551 L -0.371644 0.37986 L -0.368067 0.448462 L -0.425321 0.409773 Z" stroke="#000000" fill="#0000F2"/><path d=" M -0.361363 0.386737 L -0.30207 0.425989 L -0.299138 0.49497 L -0.357786 0.455339 Z" stroke="#000000" fill="#0000F2"/><path d=" M -0.291536 0.433035 L -0.230764 0.473266 L -0.22851 0.542625 L -0.288604 0.502017 Z" stroke="#000000" fill="#0000F2"/><path d=" M -0.219968 0.480488 L -0.157661 0.521735 L -0.156121 0.591468 L -0.217714 0.549847 Z" stroke="#000000" fill="#0000F2"/><path d=" M -0.146592 0.52914 L -0.0826921 0.571441 L -0.0819021 0.641546 L -0.145051 0.598873 Z" stroke="#000000" fill="#0000F2"/><path d=" M -0.0713394 0.579035 L -0.00578427 0.622433 L -0.00578427 0.692905 L -0.0705493 0.64914 Z" stroke="#000000" fill="#0000F2"/><path d=" M -0.679045 0.249537 L -0.626898 0.284776 L -0.621166 0.350396 L -0.67282 0.314798 Z" stroke="#000000" fill="#0000F2"/><path d=" M -0.617634 0.291098 L -0.564276 0.327155 L -0.559063 0.393134 L -0.611903 0.356718 Z" stroke="#000000" fill="#0000F2"/><path d=" M -0.554797 0.333624 L -0.500185 0.370528 L -0.495517 0.436864 L -0.549584 0.399603 Z" stroke="#000000" fill="#0000F2"/><path d=" M -0.490484 0.377149 L -0.434575 0.414929 L -0.430478 0.481622 L -0.485816 0.443485 Z" stroke="#000000" fill="#0000F2"/><path d=" M -0.424643 0.421708 L -0.367388 0.460397 L -0.363892 0.527444 L -0.420546 0.4884 Z" stroke="#000000" fill="#0000F2"/><path d=" M -0.357217 0.467339 L -0.298569 0.50697 L -0.295705 0.574369 L -0.353721 0.534386 Z" stroke="#000000" fill="#0000F2"/><path d=" M -0.288151 0.514081 L -0.228057 0.554689 L -0.225856 0.622436 L -0.285286 0.581479 Z" stroke="#000000" fill="#0000F2"/><path d=" M -0.217382 0.561975 L -0.155789 0.603596 L -0.154285 0.671689 L -0.21518 0.629722 Z" stroke="#000000" fill="#0000F2"/><path d=" M -0.144847 0.611064 L -0.0816981 0.653737 L -0.0809269 0.722172 L -0.143343 0.679157 Z" stroke="#000000" fill="#0000F2"/><path d=" M -0.0704796 0.661394 L -0.00571457 0.705158 L -0.00571457 0.773931 L -0.0697084 0.729828 Z" stroke="#000000" fill="#0000F2"/><path d=" M -0.671776 0.326222 L -0.620122 0.36182 L -0.614514 0.426035 L -0.665683 0.390101 Z" stroke="#000000" fill="#0000F2"/><path d=" M -0.610947 0.368204 L -0.558107 0.404619 L -0.553007 0.469169 L -0.605338 0.432419 Z" stroke="#000000" fill="#0000F2"/><path d=" M -0.548721 0.411149 L -0.494654 0.44841 L -0.490088 0.513293 L -0.543621 0.475699 Z" stroke="#000000" fill="#0000F2"/><path d=" M -0.48505 0.455092 L -0.429713 0.493229 L -0.425707 0.558443 L -0.480484 0.519975 Z" stroke="#000000" fill="#0000F2"/><path d=" M -0.419883 0.500068 L -0.363229 0.539112 L -0.359812 0.604654 L -0.415877 0.565282 Z" stroke="#000000" fill="#0000F2"/><path d=" M -0.353166 0.546113 L -0.295149 0.586096 L -0.292349 0.651965 L -0.349748 0.611656 Z" stroke="#000000" fill="#0000F2"/><path d=" M -0.284843 0.593267 L -0.225413 0.634224 L -0.223262 0.700415 L -0.282043 0.659135 Z" stroke="#000000" fill="#0000F2"/><path d=" M -0.214856 0.641569 L -0.153961 0.683536 L -0.152491 0.750046 L -0.212705 0.70776 Z" stroke="#000000" fill="#0000F2"/><path d=" M -0.143144 0.691062 L -0.0807277 0.734076 L -0.0799747 0.800901 L -0.141674 0.757572 Z" stroke="#000000" fill="#0000F2"/><path d=" M -0.0696404 0.74179 L -0.00564652 0.785893 L -0.00564652 0.853026 L -0.0688873 0.808615 Z" stroke="#000000" fill="#0000F2"/></g></svg>