<svg viewBox="0 0 405 200" xmlns="http://www.w3.org/2000/svg" xmlns:xlink="http://www.w3.org/1999/xlink" overflow="hidden"><g stroke-linejoin="round"><path d="M100 100 73.2051 200 0 200 1.42109e-14 126.795Z" stroke="#000000" stroke-width="4" fill="#FEFE00"/><path d="M100 100 1.42109e-14 126.795 0 73.2051Z" stroke="#000000" stroke-width="4" fill="#FEFE00"/><path d="M100 100 0 73.2051-1.42109e-14 0 73.2051 1.42109e-14Z" stroke="#000000" stroke-width="4" fill="#FEFE00"/><path d="M100 100 73.2051 1.42109e-14 126.795 0Z" stroke="#000000" stroke-width="4" fill="#FEFE00"/><path d="M100 100 126.795 0 200-5.68434e-14 200 73.2051Z" stroke="#000000" stroke-width="4" fill="#FEFE00"/><path d="M100 100 200 73.2051 200 126.795Z" stroke="#000000" stroke-width="4" fill="#FEFE00"/><path d="M100 100 200 126.795 200 200 126.795 200Z" stroke="#000000" stroke-width="4" fill="#FEFE00"/><path d="M100 100 126.795 200 73.2051 200Z" stroke="#000000" stroke-width="4" fill="#FEFE00"/><path d="M305 100 331.795 1.42109e-14 278.205 0Z" stroke="#000000" stroke-width="4" fill="#FFFFFF"/><path d="M305 100 278.205 0 205-5.68434e-14 205 73.2051Z" stroke="#000000" stroke-width="4" fill="#FFFFFF"/><path d="M305 100 205 73.2051 205 126.795Z" stroke="#000000" stroke-width="4" fill="#FFFFFF"/><path d="M305 100 205 126.795 205 200 278.205 200Z" stroke="#000000" stroke-width="4" fill="#FFFFFF"/><path d="M305 100 278.205 200 331.795 200Z" stroke="#000000" stroke-width="4" fill="#FFFFFF"/><path d="M305 100 331.795 200 405 200 405 126.795Z" stroke="#000000" stroke-width="4" fill="#FFFFFF"/><path d="M305 100 405 126.795 405 73.2051Z" stroke="#000000" stroke-width="4" fill="#FFFFFF"/><path d="M305 100 405 73.2051 405 0 331.795 1.42109e-14Z" stroke="#000000" stroke-width="4" fill="#FFFFFF"/></g></svg>