<svg version="1.1" width="150" height="150" viewBox="-0.9 -0.9 1.8 1.8" xmlns="http://www.w3.org/2000/svg" xmlns:xlink="http://www.w3.org/1999/xlink" overflow="hidden"><rect x="-0.9" y="-0.9" width="1.8" height="1.8" fill="#FFFFFF"/><g stroke-width="0.1" stroke-linejoin="round" opacity="1"><path d=" M -0.623613 -0.521219 L -0.27151 -0.193479 L -0.246614 0.748443 L -0.575081 0.303738 Z" stroke="#000000" fill="#000000"/><path d=" M -0.623613 -0.521219 L 0.21085 -0.639903 L 0.683439 -0.360968 L -0.27151 -0.193479 Z" stroke="#000000" fill="#000000"/><path d=" M -0.27151 -0.193479 L 0.683439 -0.360968 L 0.625581 0.522864 L -0.246614 0.748443 Z" stroke="#000000" fill="#000000"/></g><g stroke-width="0" stroke-linejoin="round" stroke-opacity="0.5" opacity="1"><path d=" M -0.658742 -0.53874 L -0.613134 -0.496288 L -0.605746 -0.360259 L -0.65092 -0.405789 Z" stroke="#000000" fill="#404040"/><path d=" M -0.604896 -0.488295 L -0.55665 -0.443388 L -0.549759 -0.304141 L -0.597508 -0.352266 Z" stroke="#000000" fill="#404040"/><path d=" M -0.547933 -0.43493 L -0.496813 -0.387348 L -0.490492 -0.244735 L -0.541042 -0.295683 Z" stroke="#000000" fill="#404040"/><path d=" M -0.487573 -0.378382 L -0.433316 -0.327879 L -0.427646 -0.181742 L -0.481251 -0.235769 Z" stroke="#000000" fill="#404040"/><path d=" M -0.423504 -0.318359 L -0.36581 -0.264657 L -0.360889 -0.114828 L -0.417834 -0.172222 Z" stroke="#000000" fill="#404040"/><path d=" M -0.355372 -0.254529 L -0.293905 -0.197315 L -0.289843 -0.0436145 L -0.350451 -0.1047 Z" stroke="#000000" fill="#404040"/><path d=" M -0.649597 -0.382393 L -0.604422 -0.336862 L -0.597242 -0.204657 L -0.641989 -0.25308 Z" stroke="#000000" fill="#404040"/><path d=" M -0.596266 -0.328332 L -0.548517 -0.280207 L -0.541825 -0.144984 L -0.589086 -0.196127 Z" stroke="#000000" fill="#0000F2"/><path d=" M -0.539892 -0.271187 L -0.489342 -0.220239 L -0.483208 -0.0818668 L -0.5332 -0.135965 Z" stroke="#000000" fill="#0000F2"/><path d=" M -0.480208 -0.210686 L -0.426604 -0.156659 L -0.421108 -0.0149968 L -0.474075 -0.0723139 Z" stroke="#000000" fill="#0000F2"/><path d=" M -0.416914 -0.146525 L -0.359968 -0.0891307 L -0.355202 0.0559703 L -0.411418 -0.00486215 Z" stroke="#000000" fill="#0000F2"/><path d=" M -0.34967 -0.0783593 L -0.289062 -0.017274 L -0.285132 0.131423 L -0.344904 0.0667417 Z" stroke="#000000" fill="#404040"/><path d=" M -0.640702 -0.230328 L -0.595954 -0.181905 L -0.588973 -0.0533642 L -0.6333 -0.104505 Z" stroke="#000000" fill="#404040"/><path d=" M -0.587878 -0.17287 L -0.540617 -0.121728 L -0.534116 0.00964316 L -0.580897 -0.0443293 Z" stroke="#000000" fill="#0000F2"/><path d=" M -0.532085 -0.112182 L -0.482093 -0.0580837 L -0.476138 0.0762348 L -0.525583 0.0191892 Z" stroke="#000000" fill="#0000F2"/><path d=" M -0.473063 -0.0479819 L -0.420096 0.0093352 L -0.414766 0.146726 L -0.467109 0.0863366 Z" stroke="#000000" fill="#0000F2"/><path d=" M -0.410525 0.0200428 L -0.35431 0.0808752 L -0.349692 0.221469 L -0.405195 0.157433 Z" stroke="#000000" fill="#0000F2"/><path d=" M -0.344148 0.0922447 L -0.284375 0.156926 L -0.280571 0.30086 L -0.33953 0.232838 Z" stroke="#000000" fill="#404040"/><path d=" M -0.632048 -0.0823715 L -0.587721 -0.0312304 L -0.58093 0.0937963 L -0.624843 0.0401005 Z" stroke="#000000" fill="#404040"/><path d=" M -0.579724 -0.0217215 L -0.532942 0.032251 L -0.526624 0.159932 L -0.572933 0.103305 Z" stroke="#000000" fill="#FFA100"/><path d=" M -0.524499 0.0422902 L -0.475055 0.0993358 L -0.469272 0.229776 L -0.518181 0.169971 Z" stroke="#000000" fill="#FFA100"/><path d=" M -0.466127 0.109951 L -0.413784 0.17034 L -0.408613 0.303649 L -0.460345 0.240391 Z" stroke="#000000" fill="#FFA100"/><path d=" M -0.40433 0.181582 L -0.348827 0.245617 L -0.34435 0.38191 L -0.399158 0.314891 Z" stroke="#000000" fill="#FFA100"/><path d=" M -0.338797 0.257543 L -0.279839 0.325565 L -0.276154 0.464961 L -0.334321 0.393836 Z" stroke="#000000" fill="#FFFFFF"/><path d=" M -0.623624 0.0616411 L -0.579712 0.115337 L -0.573104 0.236992 L -0.616609 0.180894 Z" stroke="#000000" fill="#404040"/><path d=" M -0.571792 0.125291 L -0.525482 0.181918 L -0.519339 0.306063 L -0.565185 0.246946 Z" stroke="#000000" fill="#FFA100"/><path d=" M -0.517127 0.192419 L -0.468219 0.252224 L -0.462601 0.378952 L -0.510984 0.316564 Z" stroke="#000000" fill="#FFA100"/><path d=" M -0.459392 0.263319 L -0.40766 0.326577 L -0.402639 0.455983 L -0.453774 0.390046 Z" stroke="#000000" fill="#FFA100"/><path d=" M -0.398319 0.338317 L -0.343511 0.405336 L -0.339169 0.537522 L -0.393299 0.467724 Z" stroke="#000000" fill="#FFA100"/><path d=" M -0.333611 0.417779 L -0.275444 0.488905 L -0.271875 0.623974 L -0.329269 0.549965 Z" stroke="#000000" fill="#404040"/><path d=" M -0.615422 0.201865 L -0.571918 0.257962 L -0.565487 0.37638 L -0.608589 0.318025 Z" stroke="#000000" fill="#404040"/><path d=" M -0.564074 0.268335 L -0.518228 0.327452 L -0.512252 0.448205 L -0.557643 0.386752 Z" stroke="#000000" fill="#404040"/><path d=" M -0.50996 0.338386 L -0.461577 0.400774 L -0.456117 0.523945 L -0.503984 0.459139 Z" stroke="#000000" fill="#404040"/><path d=" M -0.452848 0.412317 L -0.401713 0.478254 L -0.396838 0.603927 L -0.447388 0.535488 Z" stroke="#000000" fill="#404040"/><path d=" M -0.392484 0.490459 L -0.338355 0.560257 L -0.334142 0.68852 L -0.387608 0.616132 Z" stroke="#000000" fill="#404040"/><path d=" M -0.328581 0.573182 L -0.271186 0.647191 L -0.267725 0.778132 L -0.324368 0.701445 Z" stroke="#000000" fill="#404040"/><path d=" M -0.647324 -0.552515 L -0.513648 -0.571528 L -0.464921 -0.530152 L -0.601715 -0.510063 Z" stroke="#000000" fill="#404040"/><path d=" M -0.490091 -0.574932 L -0.359738 -0.593472 L -0.308064 -0.553132 L -0.441364 -0.533557 Z" stroke="#000000" fill="#404040"/><path d=" M -0.336771 -0.596792 L -0.20962 -0.614876 L -0.155159 -0.575534 L -0.285097 -0.556452 Z" stroke="#000000" fill="#404040"/><path d=" M -0.187221 -0.618114 L -0.0631534 -0.635759 L -0.00605729 -0.597379 L -0.13276 -0.578772 Z" stroke="#000000" fill="#404040"/><path d=" M -0.0413017 -0.638918 L 0.0797921 -0.656141 L 0.13938 -0.618686 L 0.0157944 -0.600537 Z" stroke="#000000" fill="#404040"/><path d=" M 0.101116 -0.659223 L 0.219342 -0.676038 L 0.281287 -0.639476 L 0.160704 -0.621768 Z" stroke="#000000" fill="#404040"/><path d=" M -0.593146 -0.502458 L -0.456352 -0.522547 L -0.404845 -0.47881 L -0.5449 -0.45755 Z" stroke="#000000" fill="#404040"/><path d=" M -0.432249 -0.526146 L -0.298948 -0.545722 L -0.244364 -0.50311 L -0.380741 -0.482409 Z" stroke="#000000" fill="#FEFE00"/><path d=" M -0.275465 -0.549228 L -0.145527 -0.56831 L -0.0880381 -0.526782 L -0.220881 -0.506617 Z" stroke="#000000" fill="#FEFE00"/><path d=" M -0.12264 -0.571728 L 0.00406245 -0.590335 L 0.0642918 -0.549848 L -0.0651515 -0.530199 Z" stroke="#000000" fill="#FEFE00"/><path d=" M 0.026375 -0.593667 L 0.149961 -0.611816 L 0.212777 -0.572332 L 0.0866043 -0.55318 Z" stroke="#000000" fill="#FEFE00"/><path d=" M 0.17172 -0.615065 L 0.292303 -0.632773 L 0.357562 -0.594256 L 0.234537 -0.575581 Z" stroke="#000000" fill="#404040"/><path d=" M -0.535832 -0.449502 L -0.395776 -0.470761 L -0.341243 -0.424455 L -0.484712 -0.40192 Z" stroke="#000000" fill="#404040"/><path d=" M -0.371101 -0.474572 L -0.234724 -0.495273 L -0.176976 -0.450193 L -0.316568 -0.428266 Z" stroke="#000000" fill="#FEFE00"/><path d=" M -0.210702 -0.498983 L -0.0778593 -0.519148 L -0.0170839 -0.475245 L -0.152954 -0.453902 Z" stroke="#000000" fill="#FEFE00"/><path d=" M -0.0544648 -0.522761 L 0.0749785 -0.54241 L 0.138606 -0.499638 L 0.00631061 -0.478857 Z" stroke="#000000" fill="#FEFE00"/><path d=" M 0.09777 -0.545929 L 0.223943 -0.565082 L 0.290258 -0.523399 L 0.161398 -0.503158 Z" stroke="#000000" fill="#FEFE00"/><path d=" M 0.246154 -0.568512 L 0.369179 -0.587186 L 0.438026 -0.546551 L 0.312469 -0.526829 Z" stroke="#000000" fill="#404040"/><path d=" M -0.475099 -0.393388 L -0.33163 -0.415924 L -0.273797 -0.366815 L -0.420841 -0.342885 Z" stroke="#000000" fill="#404040"/><path d=" M -0.306357 -0.419965 L -0.166765 -0.441892 L -0.105571 -0.394121 L -0.248524 -0.370856 Z" stroke="#000000" fill="#FEFE00"/><path d=" M -0.142181 -0.445823 L -0.0063104 -0.467165 L 0.0580421 -0.420678 L -0.0809871 -0.398052 Z" stroke="#000000" fill="#FEFE00"/><path d=" M 0.0176133 -0.470991 L 0.149909 -0.491771 L 0.217231 -0.446516 L 0.0819659 -0.424503 Z" stroke="#000000" fill="#FEFE00"/><path d=" M 0.173198 -0.495495 L 0.302058 -0.515736 L 0.372172 -0.471666 L 0.24052 -0.450241 Z" stroke="#000000" fill="#FEFE00"/><path d=" M 0.324738 -0.519363 L 0.450295 -0.539085 L 0.523034 -0.496153 L 0.394852 -0.475292 Z" stroke="#000000" fill="#404040"/><path d=" M -0.410633 -0.333825 L -0.263588 -0.357755 L -0.202145 -0.305582 L -0.352939 -0.280124 Z" stroke="#000000" fill="#404040"/><path d=" M -0.23769 -0.362049 L -0.0947369 -0.385313 L -0.0297789 -0.334604 L -0.176247 -0.309875 Z" stroke="#000000" fill="#FEFE00"/><path d=" M -0.0695652 -0.389486 L 0.0694641 -0.412112 L 0.137719 -0.362805 L -0.00460723 -0.338777 Z" stroke="#000000" fill="#FEFE00"/><path d=" M 0.0939394 -0.41617 L 0.229204 -0.438183 L 0.300552 -0.390222 L 0.162194 -0.366863 Z" stroke="#000000" fill="#FEFE00"/><path d=" M 0.253012 -0.44213 L 0.384664 -0.463555 L 0.458912 -0.416885 L 0.32436 -0.394169 Z" stroke="#000000" fill="#FEFE00"/><path d=" M 0.40783 -0.467395 L 0.536012 -0.488256 L 0.612982 -0.442826 L 0.482079 -0.420726 Z" stroke="#000000" fill="#404040"/><path d=" M -0.342078 -0.270485 L -0.191284 -0.295944 L -0.125884 -0.240409 L -0.280611 -0.213271 Z" stroke="#000000" fill="#404040"/><path d=" M -0.16473 -0.300514 L -0.0182622 -0.325242 L 0.0508183 -0.271314 L -0.09933 -0.244979 Z" stroke="#000000" fill="#00D800"/><path d=" M 0.00752351 -0.32968 L 0.14985 -0.353708 L 0.222374 -0.301318 L 0.076604 -0.275752 Z" stroke="#000000" fill="#404040"/><path d=" M 0.1749 -0.35802 L 0.313258 -0.381379 L 0.389004 -0.330461 L 0.247424 -0.30563 Z" stroke="#000000" fill="#404040"/><path d=" M 0.337605 -0.385569 L 0.472157 -0.408285 L 0.550918 -0.358779 L 0.41335 -0.334651 Z" stroke="#000000" fill="#404040"/><path d=" M 0.495829 -0.412359 L 0.626732 -0.434459 L 0.708314 -0.386307 L 0.57459 -0.362853 Z" stroke="#000000" fill="#404040"/><path d=" M -0.275057 -0.194823 L -0.12033 -0.22196 L -0.11885 -0.0700883 L -0.270995 -0.0411221 Z" stroke="#000000" fill="#404040"/><path d=" M -0.0936436 -0.226836 L 0.0565048 -0.253171 L 0.0555512 -0.103087 L -0.0921636 -0.0749643 Z" stroke="#000000" fill="#FFFFFF"/><path d=" M 0.0824128 -0.257905 L 0.228182 -0.283472 L 0.224934 -0.135136 L 0.0814591 -0.107821 Z" stroke="#000000" fill="#404040"/><path d=" M 0.253346 -0.288069 L 0.394925 -0.312901 L 0.389513 -0.166277 L 0.250098 -0.139734 Z" stroke="#000000" fill="#404040"/><path d=" M 0.419376 -0.317369 L 0.556944 -0.341497 L 0.54949 -0.196547 L 0.413964 -0.170745 Z" stroke="#000000" fill="#404040"/><path d=" M 0.580711 -0.34584 L 0.714435 -0.369294 L 0.705054 -0.225982 L 0.573257 -0.20089 Z" stroke="#000000" fill="#404040"/><path d=" M -0.27051 -0.0145897 L -0.118365 -0.0435559 L -0.116932 0.103444 L -0.26658 0.134107 Z" stroke="#000000" fill="#404040"/><path d=" M -0.0921145 -0.0487398 L 0.0556003 -0.0768626 L 0.0546768 0.0684757 L -0.0906819 0.0982602 Z" stroke="#000000" fill="#FFA100"/><path d=" M 0.0810973 -0.0818978 L 0.224573 -0.109213 L 0.221426 0.0344975 L 0.0801739 0.0634405 Z" stroke="#000000" fill="#FFA100"/><path d=" M 0.249348 -0.114106 L 0.388764 -0.140649 L 0.383518 0.001468 L 0.246201 0.0296046 Z" stroke="#000000" fill="#FFA100"/><path d=" M 0.412848 -0.145405 L 0.548374 -0.171208 L 0.541146 -0.030652 L 0.407603 -0.00328843 Z" stroke="#000000" fill="#FFA100"/><path d=" M 0.571796 -0.175833 L 0.703593 -0.200925 L 0.694492 -0.0618994 L 0.564568 -0.0352776 Z" stroke="#000000" fill="#0000F2"/><path d=" M -0.266111 0.159789 L -0.116463 0.129125 L -0.115076 0.271484 L -0.262306 0.303723 Z" stroke="#000000" fill="#404040"/><path d=" M -0.0906345 0.123656 L 0.0547243 0.093871 L 0.0538296 0.234685 L -0.0892472 0.266014 Z" stroke="#000000" fill="#FFA100"/><path d=" M 0.0798233 0.0885556 L 0.221075 0.0596126 L 0.218025 0.198912 L 0.0789285 0.22937 Z" stroke="#000000" fill="#FFA100"/><path d=" M 0.245475 0.0544451 L 0.382792 0.0263085 L 0.377705 0.164123 L 0.242425 0.193745 Z" stroke="#000000" fill="#FFA100"/><path d=" M 0.406521 0.0212829 L 0.540065 -0.00608065 L 0.533052 0.130277 L 0.401434 0.159097 Z" stroke="#000000" fill="#FFA100"/><path d=" M 0.563151 -0.0109701 L 0.693075 -0.0375919 L 0.684242 0.0973374 L 0.556139 0.125388 Z" stroke="#000000" fill="#0000F2"/><path d=" M -0.261852 0.328593 L -0.114622 0.296355 L -0.113277 0.434288 L -0.258168 0.467989 Z" stroke="#000000" fill="#00D800"/><path d=" M -0.0892013 0.290619 L 0.0538754 0.25929 L 0.0530081 0.395788 L -0.0878572 0.428553 Z" stroke="#000000" fill="#00D800"/><path d=" M 0.0785886 0.253714 L 0.217685 0.223256 L 0.214727 0.358345 L 0.0777213 0.390212 Z" stroke="#000000" fill="#00D800"/><path d=" M 0.24172 0.217833 L 0.377 0.188211 L 0.372065 0.321916 L 0.238762 0.352921 Z" stroke="#000000" fill="#00D800"/><path d=" M 0.400385 0.182935 L 0.532003 0.154115 L 0.525197 0.28646 L 0.39545 0.316639 Z" stroke="#000000" fill="#00D800"/><path d=" M 0.554763 0.148979 L 0.682867 0.120929 L 0.67429 0.25194 L 0.547957 0.281325 Z" stroke="#000000" fill="#0000F2"/><path d=" M -0.257728 0.492087 L -0.112837 0.458386 L -0.111534 0.592098 L -0.254158 0.627156 Z" stroke="#000000" fill="#404040"/><path d=" M -0.0878128 0.452404 L 0.0530525 0.419639 L 0.0522114 0.552016 L -0.0865098 0.586115 Z" stroke="#000000" fill="#00D800"/><path d=" M 0.0773915 0.41382 L 0.214397 0.381953 L 0.211527 0.513018 L 0.0765504 0.546197 Z" stroke="#000000" fill="#00D800"/><path d=" M 0.238079 0.376292 L 0.371381 0.345286 L 0.366591 0.475061 L 0.235209 0.507357 Z" stroke="#000000" fill="#00D800"/><path d=" M 0.394431 0.339776 L 0.524179 0.309597 L 0.51757 0.438104 L 0.389641 0.469551 Z" stroke="#000000" fill="#00D800"/><path d=" M 0.546622 0.304231 L 0.672955 0.274846 L 0.664624 0.402108 L 0.540013 0.432739 Z" stroke="#000000" fill="#0000F2"/><path d=" M -0.253731 0.650517 L -0.111108 0.615458 L -0.109844 0.745139 L -0.25027 0.781458 Z" stroke="#000000" fill="#404040"/><path d=" M -0.0864668 0.609246 L 0.0522544 0.575147 L 0.0514383 0.703587 L -0.0852031 0.738927 Z" stroke="#000000" fill="#404040"/><path d=" M 0.0762304 0.569103 L 0.211207 0.535924 L 0.208422 0.663143 L 0.0754143 0.697543 Z" stroke="#000000" fill="#404040"/><path d=" M 0.234545 0.530041 L 0.365927 0.497745 L 0.361276 0.623762 L 0.231759 0.65726 Z" stroke="#000000" fill="#404040"/><path d=" M 0.388652 0.492016 L 0.516581 0.46057 L 0.510161 0.585404 L 0.384 0.618034 Z" stroke="#000000" fill="#404040"/><path d=" M 0.538716 0.45499 L 0.663326 0.424359 L 0.655231 0.548029 L 0.532296 0.579824 Z" stroke="#000000" fill="#404040"/></g></svg>