<svg viewBox="0 0 202 117.47" xmlns="http://www.w3.org/2000/svg" xmlns:xlink="http://www.w3.org/1999/xlink" overflow="hidden"><defs></defs><g id="Layer_2"><g id="图层_1"><path d="M201 29.87 201 58.73 176.14 73.09 176.07 73.05 201 29.87Z" fill="#FFA100"/><path d="M201 1 201 29.87 176 15.43 201 1Z" fill="#404040"/><path d="M201 29.87 176.07 73.05 151.29 58.75 151.29 58.9 151 58.73 176 15.43 201 29.87Z" fill="#00D800"/><path d="M176.34 73.21 151.29 87.67 151.29 58.9 176 73.17 176.14 73.09 176.34 73.21Z" fill="#FFA100"/><path d="M176.14 73.09 176 73.17 176.07 73.05 176.14 73.09Z" fill="#FFA100"/><path d="M176.07 73.05 176 73.17 151.29 58.9 151.29 58.75 176.07 73.05Z" fill="#FFA100"/><path d="M176 15.43 151 58.73 151 29.87 176 15.43Z" fill="#FFFF00"/><path d="M151 58.73 151 87.6 126 102.04 151 58.73Z" fill="#00D800"/><path d="M151 29.87 151 58.73 126 44.3 151 29.87Z" fill="#404040"/><path d="M151 58.73 126 102.04 101 87.6 126 44.3 151 58.73Z" fill="#FFA100"/><path d="M151 29.87 126 44.3 126 15.43 151 29.87Z" fill="#404040"/><rect x="76" y="15.43" width="50" height="28.87" fill="#404040"/><path d="M126 44.3 101 87.6 101 58.73 126 44.3Z" fill="#404040"/><path d="M126 15.43 76 15.43 101 1 126 15.43Z" fill="#FFFF00"/><path d="M126 44.3 101 58.73 76 44.3 126 44.3Z" fill="#FFFF00"/><path d="M126 102.04 101 116.47 101 87.6 126 102.04Z" fill="#00D800"/><path d="M101 87.6 101 116.47 76 102.04 101 87.6Z" fill="#FF0000"/><path d="M101 58.73 101 87.6 76 44.3 101 58.73Z" fill="#404040"/><path d="M76 44.3 101 87.6 76 102.04 51.09 58.89 51.09 58.75 51.06 58.7 76 44.3Z" fill="#FF0000"/><path d="M76 15.43 76 44.3 51 29.87 76 15.43Z" fill="#404040"/><path d="M51.09 58.89 76 102.04 51.09 87.65 51.09 58.89Z" fill="#FF0000"/><path d="M76 44.3 51.06 58.7 51 58.59 51 29.87 76 44.3Z" fill="#404040"/><path d="M51.09 87.65 51.09 87.67 26.05 73.21 51 58.8 51 87.6 51.09 87.65Z" fill="#404040"/><path d="M51.09 58.89 51.09 87.65 51 87.6 51 58.8 51.03 58.78 51.09 58.89Z" fill="#FF0000"/><path d="M51.09 58.75 51.09 58.89 51.03 58.78 51.09 58.75Z" fill="#FF0000"/><path d="M51.06 58.7 51.09 58.75 51.03 58.78 51 58.73 51.06 58.7Z" fill="#FF0000"/><path d="M51 58.59 51.06 58.7 51 58.73 51 58.59Z" fill="#FFFF00"/><path d="M51 58.73 51.03 58.78 51 58.8 51 58.73Z" fill="#FF0000"/><path d="M51 58.73 51 58.8 26.05 73.21 1.02 29.86 26 15.43 51 58.73Z" fill="#FFFF00"/><path d="M51 58.59 51 58.73 26 15.43 26.14 15.51 51 58.59Z" fill="#FFFF00"/><path d="M51 29.87 51 58.59 26.14 15.51 51 29.87Z" fill="#FFFF00"/><path d="M26.14 15.51 26 15.43 25.96 15.41 26.05 15.36 26.14 15.51Z" fill="#FFFF00"/><path d="M1.02 29.86 26.05 73.21 1 58.75 1 29.87 1.02 29.86Z" fill="#404040"/><path d="M26 15.43 1.02 29.86 1 29.82 25.96 15.41 26 15.43Z" fill="#FFFF00"/><path d="M1 1 25.96 15.41 1 29.82 1 1Z" fill="#404040"/><path d="M1 29.82 1.02 29.86 1 29.87 1 29.82Z" fill="#404040"/><path d="M126 15.43 101 1 76 15.43" stroke="#000000" stroke-width="2" stroke-linejoin="round" fill="none"/><line x1="151" y1="29.87" x2="126" y2="15.43" stroke="#000000" stroke-width="2" stroke-linejoin="round" fill="none"/><line x1="76" y1="15.43" x2="51" y2="29.87" stroke="#000000" stroke-width="2" stroke-linejoin="round" fill="none"/><rect x="76" y="15.43" width="50" height="28.87" stroke="#000000" stroke-width="2" stroke-linejoin="round" fill="none"/><line x1="126" y1="44.3" x2="101" y2="58.73" stroke="#000000" stroke-width="2" stroke-linejoin="round" fill="none"/><line x1="151" y1="29.87" x2="126" y2="44.3" stroke="#000000" stroke-width="2" stroke-linejoin="round" fill="none"/><line x1="101" y1="116.47" x2="126" y2="102.04" stroke="#000000" stroke-width="2" stroke-linejoin="round" fill="none"/><path d="M126 102.04 151 87.6 151 58.73" stroke="#000000" stroke-width="2" stroke-linejoin="round" fill="none"/><path d="M126 44.3 101 87.6 126 102.04 151 58.73 126 44.3Z" stroke="#000000" stroke-width="2" stroke-linejoin="round" fill="none"/><line x1="76" y1="44.3" x2="51" y2="29.87" stroke="#000000" stroke-width="2" stroke-linejoin="round" fill="none"/><path d="M101 87.6 101 58.73 76 44.3" stroke="#000000" stroke-width="2" stroke-linejoin="round" fill="none"/><line x1="51.09" y1="87.65" x2="76" y2="102.04" stroke="#000000" stroke-width="2" stroke-linejoin="round" fill="none"/><path d="M76 102.04 101 116.47 101 87.6" stroke="#000000" stroke-width="2" stroke-linejoin="round" fill="none"/><path d="M51.09 58.89 76 102.04 101 87.6 76 44.3 51.06 58.7" stroke="#000000" stroke-width="2" stroke-linejoin="round" fill="none"/><path d="M25.96 15.41 1 1 1 29.82" stroke="#000000" stroke-width="2" stroke-linejoin="round" fill="none"/><path d="M51 58.59 51 29.87 26.14 15.51" stroke="#000000" stroke-width="2" stroke-linejoin="round" fill="none"/><path d="M1 29.87 1 58.75 26.05 73.21" stroke="#000000" stroke-width="2" stroke-linejoin="round" fill="none"/><path d="M26.05 73.21 51.09 87.67 51.09 87.65 51.09 58.89 51.09 58.75" stroke="#000000" stroke-width="2" stroke-linejoin="round" fill="none"/><path d="M51.09 58.75 51.06 58.7 51 58.59 26.14 15.51 26.05 15.36 25.96 15.41 1 29.82 1.02 29.86 26.05 73.21 51 58.8 51.03 58.78 51.09 58.75Z" stroke="#000000" stroke-width="2" stroke-linejoin="round" fill="none"/><path d="M176 15.43 151 29.87 151 58.73" stroke="#000000" stroke-width="2" stroke-linejoin="round" fill="none"/><path d="M201 29.87 201 1 176 15.43" stroke="#000000" stroke-width="2" stroke-linejoin="round" fill="none"/><path d="M151.29 58.9 151.29 87.67 176.34 73.21 176.14 73.09 176.07 73.05 151.29 58.75 151.29 58.9Z" stroke="#000000" stroke-width="2" stroke-linejoin="round" fill="none"/><path d="M176.14 73.09 201 58.73 201 29.87" stroke="#000000" stroke-width="2" stroke-linejoin="round" fill="none"/><path d="M176.07 73.05 201 29.87 176 15.43 151 58.73 151.29 58.9" stroke="#000000" stroke-width="2" stroke-linejoin="round" fill="none"/></g></g></svg>