<svg viewBox="0 0 577.07 622.9" xmlns="http://www.w3.org/2000/svg" xmlns:xlink="http://www.w3.org/1999/xlink" overflow="hidden"><defs></defs><g id="图层_2"><g id="图层_1-2"><path d="M9.66 144.01 230.97 7.51 567.94 81.62 383.96 245.71 9.66 144.01Z" fill="#FFFFFF"/><path d="M231.24 9.1 564.75 82.45 383.57 244.05 13.4 143.47 231.24 9.1M230.7 5.91 5.93 144.55 384.36 247.37 571.13 80.79 230.7 5.91Z"/><path d="M36.02 491.73 7.6 146.56 382.83 248.51 373.64 614.83 36.02 491.73Z" fill="#FFFFFF"/><path d="M9.27 148.57 381.27 249.65 372.16 612.71 37.44 490.65 9.27 148.57M5.93 144.57 34.61 492.81 375.08 617 384.36 247.41 5.93 144.55Z"/><path d="M571.13 80.78 384.36 247.37 375.08 616.96 545.88 414.52 571.13 80.78Z" stroke="#000000" stroke-width="3" stroke-miterlimit="10" fill="#FFFFFF"/><line x1="400.94" y1="43.33" x2="400.83" y2="43.33" stroke="#000000" stroke-width="3" stroke-miterlimit="10" fill="none"/><line x1="400.94" y1="43.38" x2="400.94" y2="43.33" stroke="#000000" stroke-width="3" stroke-miterlimit="10" fill="none"/><path d="M195.13 195.93 5.93 144.53 118.3 75.22 195.13 195.93Z" stroke="#000000" stroke-width="3" stroke-miterlimit="10" fill="#0000F2"/><path d="M477.77 164.09 477.71 164.09 195.24 195.99 195.13 195.99 195.13 195.93 118.3 75.22 118.36 75.22 400.82 43.33 400.94 43.38 477.77 164.09Z" stroke="#000000" stroke-width="3" stroke-miterlimit="10" fill="#FFFFFF"/><path d="M400.82 43.33 118.36 75.22 230.72 5.91 400.82 43.33Z" stroke="#000000" stroke-width="3" stroke-miterlimit="10" fill="#FFFFFF"/><path d="M571.11 80.8 477.77 164.09 400.94 43.38 571.11 80.8Z" stroke="#000000" stroke-width="3" stroke-miterlimit="10" fill="#FFFFFF"/><path d="M477.71 164.09 384.38 247.38 195.24 195.99 477.71 164.09Z" stroke="#000000" stroke-width="3" stroke-miterlimit="10" fill="#FFFFFF"/><path d="M379.74 432.17 204.82 554.87 20.26 318.69 195.13 195.99 379.74 432.17Z" stroke="#000000" stroke-width="3" stroke-miterlimit="10" fill="#FFA100"/><path d="M195.13 195.93 195.13 195.99 20.26 318.69 5.93 144.53 195.13 195.93Z" stroke="#000000" stroke-width="3" stroke-miterlimit="10" fill="#FFA100"/><path d="M204.82 554.87 34.6 492.79 20.26 318.69 204.82 554.87Z" stroke="#000000" stroke-width="3" stroke-miterlimit="10" fill="#FFA100"/><path d="M477.77 164.09 379.74 432.17 384.38 247.38 477.71 164.09 477.77 164.09Z" stroke="#000000" stroke-width="3" stroke-miterlimit="10" fill="#EE0000"/><path d="M384.38 247.38 379.74 432.17 195.13 195.99 195.24 195.99 384.38 247.38Z" stroke="#000000" stroke-width="3" stroke-miterlimit="10" fill="#00D800"/><path d="M558.48 247.67 545.85 414.55 460.5 515.69 558.48 247.67Z" stroke="#000000" stroke-width="3" stroke-miterlimit="10" fill="#EE0000"/><path d="M460.5 515.69 460.5 515.75 375.1 616.96 379.74 432.17 460.5 515.69Z" stroke="#000000" stroke-width="3" stroke-miterlimit="10" fill="#FFFFFF"/><path d="M558.48 247.67 460.5 515.69 379.74 432.17 477.77 164.09 558.48 247.67Z" stroke="#000000" stroke-width="3" stroke-miterlimit="10" fill="#EE0000"/><path d="M571.11 80.8 558.48 247.67 477.77 164.09 571.11 80.8Z" stroke="#000000" stroke-width="3" stroke-miterlimit="10" fill="#EE0000"/><path d="M379.74 432.17 375.1 616.96 204.82 554.87 379.74 432.17Z" stroke="#000000" stroke-width="3" stroke-miterlimit="10" fill="#FFA100"/><path d="M375 621.4C374.828 621.393 374.656 621.366 374.49 621.32 374.278 621.3 374.068 621.266 373.86 621.22L373.68 621.22 373.44 621.08 32.88 496.9 32.88 496.9C32.4221 496.705 32.0023 496.431 31.64 496.09 31.5372 495.999 31.4465 495.894 31.37 495.78 31.0856 495.483 30.8463 495.146 30.66 494.78 30.5657 494.579 30.4952 494.367 30.45 494.15L30.45 494C30.3538 493.749 30.2899 493.487 30.26 493.22L1.51 144.91C1.47935 144.691 1.47935 144.469 1.51 144.25 1.50044 144.067 1.50044 143.883 1.51 143.7L1.51 143.63 1.63 143.17 1.69 143.08C1.74943 142.933 1.81619 142.79 1.89 142.65L1.97 142.49C2.062 142.279 2.17596 142.078 2.31 141.89L2.4 141.77C2.56128 141.578 2.74605 141.406 2.95 141.26L3.03 141.19C3.16975 141.031 3.33137 140.893 3.51 140.78L228.37 2.13C228.549 2.01997 228.745 1.93897 228.95 1.89 229.264 1.72298 229.601 1.60494 229.95 1.54 230.123 1.52495 230.297 1.52495 230.47 1.54 230.66 1.54 230.85 1.54 231.03 1.54L231.2 1.54C231.351 1.54129 231.502 1.55804 231.65 1.59L572.08 76.45C572.249 76.4933 572.413 76.5536 572.57 76.63 572.749 76.6762 572.923 76.7398 573.09 76.82 573.226 76.881 573.353 76.9582 573.47 77.05 573.663 77.1731 573.843 77.3137 574.01 77.47 574.17 77.5692 574.314 77.6904 574.44 77.83L574.57 77.98 574.57 78.06C574.611 78.1173 574.648 78.1774 574.68 78.24 574.818 78.4391 574.939 78.6499 575.04 78.87 575.175 79.1269 575.279 79.3988 575.35 79.68 575.413 79.9461 575.453 80.2171 575.47 80.49 575.47 80.56 575.47 80.67 575.47 80.8L575.47 80.87 575.47 81.09 550.3 414.86C550.284 415.062 550.24 415.26 550.17 415.45 550.127 415.682 550.064 415.91 549.98 416.13 549.866 416.411 549.722 416.68 549.55 416.93 549.475 417.094 549.381 417.248 549.27 417.39L378.32 620 378.19 620.08C378.07 620.2 377.94 620.3 377.81 620.41 377.664 620.523 377.51 620.627 377.35 620.72L377.28 620.72 377.28 620.72C377.163 620.811 377.035 620.888 376.9 620.95 376.342 621.196 375.74 621.325 375.13 621.33ZM370.79 610.68 375.05 440.85 214.36 553.63ZM379.79 604.45 454.51 516 383.89 442.92ZM205.75 548.83 373.35 431.22 194.24 202 26.64 319.63ZM191.81 545.41 25.91 333.1 38.8 489.61ZM458.74 507.56 553.38 248.74 479.48 172.26 384.84 431.08ZM473.25 493.73 541.56 412.73 551.66 279.26ZM375.59 419.68 379.83 250.74 206.83 203.74ZM384.83 405.25 467.51 179.15 388.74 249.4ZM24.06 310.6 184.86 197.76 10.86 150.49ZM383.2 242.46 464.38 170.05 218.72 197.77ZM554.82 237.46 565.82 91.46 484.09 164.35ZM197.4 191.24 470.19 160.46 398.66 48.07 125.87 78.84ZM185.25 188.67 116.92 81.3 17 143ZM478.69 157.29 561.69 83.29 410.39 50ZM137.52 68.6 373.84 41.94 231.5 10.63Z"/><path d="M230.48 3 231 3 231.36 3 571.76 77.92C571.86 77.92 571.94 78.01 572.04 78.04 572.173 78.0708 572.303 78.1109 572.43 78.16 572.504 78.2042 572.574 78.2544 572.64 78.31 572.793 78.4031 572.933 78.5139 573.06 78.64 573.151 78.6976 573.238 78.7611 573.32 78.83L573.32 78.83C573.369 78.8963 573.413 78.9665 573.45 79.04 573.557 79.186 573.648 79.3436 573.72 79.51 573.806 79.6798 573.877 79.8572 573.93 80.04 573.974 80.2134 573.997 80.3912 574 80.57 574 80.7 574 80.83 574 80.95 574 81.07 574 80.95 574 80.95L548.81 414.75C548.81 414.87 548.74 414.97 548.72 415.09 548.684 415.256 548.637 415.42 548.58 415.58 548.497 415.783 548.393 415.978 548.27 416.16 548.21 416.24 548.19 416.34 548.12 416.42L377.33 618.85 377.23 618.93C377.11 619.045 376.984 619.152 376.85 619.25 376.76 619.32 376.67 619.37 376.58 619.43L376.5 619.48C376.41 619.48 376.35 619.6 376.26 619.64 375.892 619.807 375.494 619.896 375.09 619.9L375 619.9 374.76 619.84C374.529 619.83 374.3 619.79 374.08 619.72L374.08 619.72 33.6 495.57 33.6 495.57C33.2305 495.442 32.8905 495.242 32.6 494.98 32.54 494.98 32.52 494.87 32.47 494.82 32.2603 494.605 32.0849 494.359 31.95 494.09 31.8962 493.943 31.8527 493.793 31.82 493.64 31.747 493.456 31.6933 493.265 31.66 493.07L3 144.79C2.99021 144.647 2.99021 144.503 3 144.36 2.98477 144.184 2.98477 144.006 3 143.83 3 143.83 3 143.83 3 143.78 3 143.73 3 143.78 3 143.72 3.06118 143.558 3.13473 143.401 3.22 143.25 3.28791 143.091 3.36816 142.937 3.46 142.79L3.53 142.71C3.65441 142.574 3.79172 142.45 3.94 142.34 4.03956 142.236 4.14651 142.139 4.26 142.05L229.15 3.41C229.267 3.35788 229.387 3.31443 229.51 3.28 229.731 3.16247 229.966 3.07502 230.21 3.02L230.48 3.02M131 70.84 383 42.41 231.23 9 131 70.84M196.61 192.84 472.71 161.68 399.42 46.47 123.32 77.62 196.64 192.84M478.37 159.58 564.88 82.42 407.19 47.74 478.37 159.58M188.59 191.14 117.39 79.25 13.24 143.49 188.59 191.14M556.07 240.91 567.65 87.83 482 164.23 556.09 240.91M22.78 313.33 188.33 197.15 9.2 148.48 22.78 313.33M383.59 244.12 468.89 168 210.75 197.16 383.59 244.16M459.33 510.36 555.11 248.41 478.89 169.53 383.11 431.53 459.33 510.4M383.11 414.4 471 174.05 387.29 248.71 383.14 414.35M205.44 550.88 375.51 431.54 194.55 200 24.49 319.31 205.49 550.88M377 423.9 381.37 249.6 202.89 201.11 377 423.9M468.94 501.17 543 413.36 554 268.61 469 501.17M196.22 548.61 24 328.22 37.38 490.69 196.22 548.61M372.22 612.8 376.61 437.92 211.14 554.05 372.25 612.8M378.25 608.68 456.55 515.88 382.55 439.25 378.3 608.68M230.48 0C230.219-0.000401821 229.958 0.0196596 229.7 0.06 229.254 0.14511 228.821 0.286228 228.41 0.48 228.122 0.568263 227.847 0.692583 227.59 0.85L2.81 139.5C2.53837 139.671 2.28969 139.876 2.07 140.11 1.79262 140.312 1.54372 140.551 1.33 140.82L1.19 141C0.99247 141.268 0.824806 141.556 0.69 141.86L0.69 141.86 0.69 141.86C0.57818 142.057 0.478009 142.261 0.39 142.47 0.312037 142.641 0.248483 142.818 0.2 143L0.08 143.42 0.08 143.61C0.0722718 143.76 0.0722718 143.91 0.08 144.06 0.0358316 144.392 0.0358316 144.728 0.08 145.06L28.69 493.29C28.7272 493.686 28.8146 494.076 28.95 494.45L28.95 494.45C29.018 494.767 29.122 495.076 29.26 495.37 29.4975 495.85 29.8003 496.294 30.16 496.69 30.2809 496.86 30.4183 497.017 30.57 497.16 31.0119 497.569 31.5145 497.906 32.06 498.16L32.13 498.22 32.56 498.38 373.05 622.54 373.13 622.54 373.44 622.65 373.51 622.65C373.747 622.71 373.987 622.753 374.23 622.78 374.459 622.84 374.694 622.87 374.93 622.87L375.09 622.87C375.907 622.869 376.715 622.695 377.46 622.36 377.686 622.26 377.901 622.136 378.1 621.99L378.1 621.99 378.2 621.93 378.68 621.6 378.68 621.6C378.844 621.483 379.001 621.356 379.15 621.22 379.302 621.096 379.443 620.959 379.57 620.81L550.37 418.36C550.551 418.152 550.702 417.92 550.82 417.67 551.028 417.358 551.199 417.022 551.33 416.67 551.438 416.398 551.521 416.117 551.58 415.83 551.678 415.553 551.738 415.263 551.76 414.97L577.05 81.23 577.05 80.72 577.05 80.55C577.05 80.44 577.05 80.35 577.05 80.28 577.026 79.9426 576.973 79.608 576.89 79.28 576.792 78.9033 576.654 78.538 576.48 78.19 576.346 77.9128 576.192 77.6455 576.02 77.39L576.02 77.39 575.93 77.22 575.67 76.91 575.67 76.91 575.67 76.91C575.479 76.7024 575.264 76.5178 575.03 76.36 574.843 76.19 574.643 76.0361 574.43 75.9 574.255 75.7661 574.067 75.6489 573.87 75.55 573.654 75.4399 573.426 75.356 573.19 75.3 572.973 75.1964 572.745 75.1192 572.51 75.07L232 0.11C231.75 0.0576599 231.495 0.0308555 231.24 0.03L231.12 0.03C230.95 0.03 230.74 0.03 230.51 0.03ZM144 66.35 231.76 12.22 364.68 41.46 144 66.35ZM128.43 80.06 397.9 49.66 467.63 159.24 198.16 189.64 128.43 80.06ZM479 155 413.6 52.22 558.51 84.09 479 155ZM20.71 142.41 116.45 83.41 181.9 186.21 20.71 142.41ZM486.31 164.41 564.1 95 553.58 234 486.31 164.38ZM25.31 307.89 12.54 152.5 181.38 198.37 25.38 307.87ZM226.69 198.38 459.86 172.07 382.8 240.8 226.69 198.38ZM386.57 430.71 480.06 175 551.65 249.09 458.16 504.79 386.57 430.71ZM390.23 250.09 464.05 184.25 386.56 396.16 390.23 250.09ZM28.8 320 193.94 204.06 371.2 430.89 206.05 546.78 28.8 320ZM374.2 415.51 210.81 206.37 378.3 251.87 374.2 415.46ZM477.57 486.33 549.34 290 540.1 412.17 477.57 486.28ZM40.21 488.53 27.82 338 187.41 542.2 40.21 488.53ZM217.57 553.2 373.49 443.79 369.36 608.55 217.57 553.2ZM381.45 600.2 385.3 446.46 452.49 516 381.49 600.21Z"/><path d="M300.27 535.36C69.07 291.26 98 132 98 132" stroke="#404040" stroke-width="15" stroke-linecap="round" stroke-miterlimit="10" fill="none"/><path d="M311.93 514.99 322.76 558.53 279.63 546.14 311.93 514.99Z" fill="#404040"/></g></g></svg>