<svg viewBox="0 0 202 117.47" xmlns="http://www.w3.org/2000/svg" xmlns:xlink="http://www.w3.org/1999/xlink" overflow="hidden"><defs></defs><g id="Layer_2"><g id="图层_1"><path d="M201 29.87 201 58.74 176 73.17 201 29.87Z" fill="#404040"/><path d="M201 1 201 29.87 176 15.44 201 1Z" fill="#404040"/><rect x="151" y="29.87" width="50" height="28.87" fill="#404040" transform="matrix(0.5 -0.866025 0.866025 0.5 49.63 174.57)"/><path d="M176 15.44 151 58.74 151 29.87 176 15.44Z" fill="#404040"/><path d="M176 73.17 151 87.61 151 58.74 176 73.17Z" fill="#404040"/><path d="M151 58.74 151 87.61 126 102.04 151 58.74Z" fill="#404040"/><path d="M151 29.87 151 58.74 126 44.31 151 29.87Z" fill="#404040"/><rect x="101" y="58.74" width="50" height="28.87" fill="#FFA100" transform="matrix(0.5 -0.866025 0.866025 0.5 -0.37 145.71)"/><path d="M151 29.87 126 44.31 126 15.44 151 29.87Z" fill="#FFFF00"/><rect x="76" y="15.44" width="50" height="28.87" fill="#FF0000"/><path d="M126 44.31 101 87.61 101 58.74 126 44.31Z" fill="#FFA100"/><path d="M126 15.44 76 15.44 101 1 126 15.44Z" fill="#FF0000"/><path d="M126 44.31 101 58.74 76 44.31 126 44.31Z" fill="#404040"/><path d="M126 102.04 101 116.47 101 87.61 126 102.04Z" fill="#404040"/><path d="M101 87.61 101 116.47 76 102.04 101 87.61Z" fill="#404040"/><path d="M101 58.74 101 87.61 76 44.31 101 58.74Z" fill="#FFFF00"/><rect x="61.57" y="48.18" width="28.87" height="50" fill="#404040" transform="matrix(0.866025 -0.5 0.5 0.866025 -26.41 47.8)"/><path d="M76 15.44 76 44.31 51 29.87 76 15.44Z" fill="#FFFF00"/><path d="M51 58.74 76 102.04 51 87.61 51 58.74Z" fill="#404040"/><path d="M76 44.31 51 58.74 51 29.87 76 44.31Z" fill="#404040"/><path d="M51 58.74 51 87.61 26 73.17 51 58.74Z" fill="#404040"/><path d="M51 29.87 51 58.74 26 15.44 51 29.87Z" fill="#404040"/><rect x="11.57" y="19.31" width="28.87" height="50" fill="#FFFF00" transform="matrix(0.866025 -0.5 0.5 0.866025 -18.67 18.94)"/><path d="M1 29.87 26 73.17 1 58.74 1 29.87Z" fill="#404040"/><path d="M26 15.44 1 29.87 1 1 26 15.44Z" fill="#FFFF00"/><path d="M126 15.44 101 1 76 15.44" stroke="#000000" stroke-width="2" stroke-linejoin="round" fill="none"/><line x1="151" y1="29.87" x2="126" y2="15.44" stroke="#000000" stroke-width="2" stroke-linejoin="round" fill="none"/><line x1="76" y1="15.44" x2="51" y2="29.87" stroke="#000000" stroke-width="2" stroke-linejoin="round" fill="none"/><rect x="76" y="15.44" width="50" height="28.87" stroke="#000000" stroke-width="2" stroke-linejoin="round" fill="none"/><line x1="126" y1="44.31" x2="101" y2="58.74" stroke="#000000" stroke-width="2" stroke-linejoin="round" fill="none"/><line x1="151" y1="29.87" x2="126" y2="44.31" stroke="#000000" stroke-width="2" stroke-linejoin="round" fill="none"/><line x1="101" y1="116.47" x2="126" y2="102.04" stroke="#000000" stroke-width="2" stroke-linejoin="round" fill="none"/><line x1="126" y1="102.04" x2="151" y2="87.61" stroke="#000000" stroke-width="2" stroke-linejoin="round" fill="none"/><rect x="101" y="58.74" width="50" height="28.87" stroke="#000000" stroke-width="2" stroke-linejoin="round" fill="none" transform="matrix(0.5 -0.866025 0.866025 0.5 -0.37 145.71)"/><line x1="76" y1="44.31" x2="51" y2="29.87" stroke="#000000" stroke-width="2" stroke-linejoin="round" fill="none"/><path d="M101 87.61 101 58.74 76 44.31" stroke="#000000" stroke-width="2" stroke-linejoin="round" fill="none"/><line x1="51" y1="87.61" x2="76" y2="102.04" stroke="#000000" stroke-width="2" stroke-linejoin="round" fill="none"/><path d="M76 102.04 101 116.47 101 87.61" stroke="#000000" stroke-width="2" stroke-linejoin="round" fill="none"/><rect x="61.57" y="48.18" width="28.87" height="50" stroke="#000000" stroke-width="2" stroke-linejoin="round" fill="none" transform="matrix(0.866025 -0.5 0.5 0.866025 -26.41 47.8)"/><path d="M26 15.44 1 1 1 29.87" stroke="#000000" stroke-width="2" stroke-linejoin="round" fill="none"/><path d="M51 58.74 51 29.87 26 15.44" stroke="#000000" stroke-width="2" stroke-linejoin="round" fill="none"/><path d="M1 29.87 1 58.74 26 73.17" stroke="#000000" stroke-width="2" stroke-linejoin="round" fill="none"/><path d="M26 73.17 51 87.61 51 58.74" stroke="#000000" stroke-width="2" stroke-linejoin="round" fill="none"/><rect x="11.57" y="19.31" width="28.87" height="50" stroke="#000000" stroke-width="2" stroke-linejoin="round" fill="none" transform="matrix(0.866025 -0.5 0.5 0.866025 -18.67 18.94)"/><path d="M176 15.44 151 29.87 151 58.74" stroke="#000000" stroke-width="2" stroke-linejoin="round" fill="none"/><path d="M201 29.87 201 1 176 15.44" stroke="#000000" stroke-width="2" stroke-linejoin="round" fill="none"/><path d="M151 58.74 151 87.61 176 73.17" stroke="#000000" stroke-width="2" stroke-linejoin="round" fill="none"/><path d="M176 73.17 201 58.74 201 29.87" stroke="#000000" stroke-width="2" stroke-linejoin="round" fill="none"/><rect x="151" y="29.87" width="50" height="28.87" stroke="#000000" stroke-width="2" stroke-linejoin="round" fill="none" transform="matrix(0.5 -0.866025 0.866025 0.5 49.63 174.57)"/></g></g></svg>