<svg viewBox="0 0 483.2 483.2" xmlns="http://www.w3.org/2000/svg" xmlns:xlink="http://www.w3.org/1999/xlink" id="Capa_1" overflow="hidden"><path d="M90.4 316.8 51.2 230.4C47.2 232 43.2 232.8 39.2 232.8 30.4 232.8 23.2 229.6 16.8 223.2 11.2 217.6 8 209.6 8 200.8 8 183.2 22.4 169.6 39.2 169.6 56.8 169.6 70.4 184 70.4 200.8 70.4 205.6 69.6 210.4 67.2 214.4 83.2 219.2 99.2 221.6 115.2 221.6 171.2 221.6 208.8 189.6 230.4 162.4 218.4 158.4 211.2 147.2 210.4 134.4 210.4 126.4 213.6 118.4 219.2 112 224.8 106.4 232.8 102.4 240.8 102.4 253.6 102.4 264.8 110.4 269.6 122.4 272.8 130.4 272 138.4 268.8 146.4 265.6 154.4 259.2 160 251.2 162.4 273.6 188.8 311.2 220.8 366.4 220.8 383.2 220.8 399.2 218.4 415.2 212.8 412.8 208.8 412 204 412 199.2 412 181.6 426.4 168 443.2 168 447.2 168 451.2 168.8 454.4 170.4 470.4 176.8 478.4 195.2 472 211.2 467.2 223.2 456 230.4 443.2 230.4 439.2 230.4 435.2 229.6 431.2 228L391.2 314.4 249.6 314.4 241.6 314.4 90.4 314.4 90.4 316.8Z" fill="#FED14F"/><path d="M455.2 172.8C451.2 171.2 448 170.4 444 170.4 427.2 170.4 412.8 184 412.8 201.6 412.8 206.4 413.6 211.2 416 215.2 400 220 384 222.4 367.2 223.2 312 223.2 274.4 191.2 252 164.8 260 161.6 265.6 156 269.6 148.8 272.8 140.8 273.6 132.8 270.4 124.8 265.6 112.8 254.4 104.8 241.6 104.8L241.6 318.4 249.6 318.4 392.8 318.4 432.8 232C436.8 233.6 440.8 234.4 444.8 234.4 457.6 234.4 468.8 226.4 473.6 215.2 479.2 196.8 471.2 179.2 455.2 172.8Z" fill="#FCB129"/><path d="M215.2 252.8 241.6 287.2 268 252.8 241.6 218.4 215.2 252.8Z" fill="#63CDF8"/><path d="M248 209.6C245.6 206.4 240 205.6 236.8 208 236 208.8 236 208.8 235.2 209.6L205.6 247.2C203.2 250.4 203.2 254.4 205.6 256.8L235.2 294.4C237.6 297.6 243.2 298.4 246.4 296L248 294.4 277.6 256.8C280 253.6 280 249.6 277.6 247.2L248 209.6ZM241.6 277.6 222.4 252.8 241.6 228 260.8 252.8 241.6 277.6Z"/><path d="M241.6 316.8 392.8 316.8 392.8 377.6 241.6 377.6 241.6 316.8Z" fill="#FCB129"/><path d="M90.4 316.8 241.6 316.8 241.6 377.6 90.4 377.6 90.4 316.8Z" fill="#FED14F"/><path d="M444 162.4C422.4 162.4 404.8 180 404.8 201.6 404.8 204 404.8 207.2 405.6 209.6 393.6 212.8 380.8 214.4 368 214.4 328.8 213.6 291.2 196 265.6 166.4 276 159.2 281.6 147.2 281.6 135.2 281.6 113.6 264 96 242.4 96 220.8 96 203.2 113.6 203.2 135.2 203.2 147.2 208.8 159.2 219.2 166.4 192.8 196.8 155.2 214.4 115.2 215.2 102.4 215.2 89.6 213.6 77.6 210.4 78.4 208 78.4 204.8 78.4 202.4 78.4 180.8 60.8 163.2 39.2 163.2 17.6 163.2 0 180.8 0 202.4 0 224 17.6 241.6 39.2 241.6 41.6 241.6 44 241.6 46.4 240.8L82.4 320 82.4 379.2C82.4 384 85.6 387.2 90.4 387.2L392.8 387.2C397.6 387.2 400.8 384 400.8 379.2L400.8 320 436.8 240.8 444 240.8C465.6 240.8 483.2 223.2 483.2 201.6 483.2 180 465.6 162.4 444 162.4L444 162.4ZM384.8 369.6 98.4 369.6 98.4 324.8 384.8 324.8 384.8 369.6ZM444 224.8C440.8 224.8 437.6 224 435.2 223.2 431.2 221.6 426.4 223.2 424.8 227.2L387.2 308.8 96 308.8 58.4 227.2C56.8 223.2 52 221.6 48 223.2 36 228 22.4 222.4 17.6 210.4 12.8 198.4 18.4 184.8 30.4 180 41.6 175.2 55.2 180.8 60.8 192.8 61.6 196 62.4 198.4 62.4 201.6 62.4 204.8 61.6 208.8 60 212 58.4 216 60 220.8 64 222.4 64 222.4 64.8 222.4 64.8 223.2 80.8 228.8 98.4 231.2 115.2 231.2 177.6 231.2 217.6 192.8 236.8 168.8 239.2 165.6 238.4 160 235.2 157.6 234.4 157.6 234.4 156.8 233.6 156.8 221.6 152 216 138.4 220 126.4 224.8 114.4 238.4 108.8 250.4 112.8 262.4 117.6 268 131.2 264 143.2 261.6 149.6 256.8 154.4 250.4 156.8 246.4 158.4 244 163.2 245.6 167.2 245.6 168 246.4 168.8 246.4 168.8 265.6 192 305.6 231.2 368 231.2 384.8 231.2 402.4 228.8 418.4 223.2 422.4 221.6 424.8 217.6 424 212.8 424 212 424 212 423.2 212 421.6 208.8 420.8 205.6 420.8 201.6 420.8 188.8 431.2 178.4 444 178.4 456.8 178.4 467.2 188.8 467.2 201.6 467.2 214.4 456.8 224.8 444 224.8L444 224.8Z"/><g></g><g></g><g></g><g></g><g></g><g></g><g></g><g></g><g></g><g></g><g></g><g></g><g></g><g></g><g></g></svg>