<?xml version="1.0" encoding="UTF-8" standalone="yes"?><svg xmlns="http://www.w3.org/2000/svg" xmlns:xlink="http://www.w3.org/1999/xlink" version="1.2" baseProfile="tiny" x="0" y="0" width="128" height="128" viewBox="-0.9 -0.9 1.8 1.8"><defs/><g stroke-width="0.1" stroke-linejoin="round"><polygon fill="#000000" stroke="#000000" points="0.206844,-0.103422 0.654001,-0.50224 0.59354,0.29677 0.184643,0.78142"/><polygon fill="#000000" stroke="#000000" points="-0.161033,-0.681501 0.654001,-0.50224 0.206844,-0.103422 -0.699152,-0.349576"/><polygon fill="#000000" stroke="#000000" points="-0.699152,-0.349576 0.206844,-0.103422 0.184643,0.78142 -0.630493,0.484187"/></g><g stroke-width="0" stroke-linejoin="round" stroke-opacity="0.5"><polygon fill="#ffa100" stroke="#000000" points="0.237489,-0.0919724 0.456384,-0.287204 0.435169,0.112607 0.226882,0.330776"/><polygon fill="#404040" stroke="#000000" points="0.491405,-0.320882 0.676854,-0.486283 0.648193,-0.107521 0.470189,0.0789288"/><polygon fill="#ee0000" stroke="#000000" points="0.224261,0.399851 0.432547,0.181681 0.413439,0.541777 0.214792,0.777225"/><polygon fill="#404040" stroke="#000000" points="0.466022,0.144537 0.644026,-0.0419128 0.618015,0.301834 0.446914,0.504632"/><polygon fill="#404040" stroke="#000000" points="-0.158463,-0.704811 0.194469,-0.627186 -0.0128484,-0.475993 -0.383391,-0.56607"/><polygon fill="#404040" stroke="#000000" points="0.261428,-0.611629 0.645494,-0.527157 0.460046,-0.361756 0.0541105,-0.460436"/><polygon fill="#404040" stroke="#000000" points="-0.424667,-0.5382 -0.0541235,-0.448123 -0.296981,-0.271011 -0.686335,-0.376797"/><polygon fill="#00d800" stroke="#000000" points="0.0165035,-0.429869 0.422439,-0.331189 0.203543,-0.135957 -0.226354,-0.252757"/><polygon fill="#404040" stroke="#000000" points="-0.708265,-0.326443 -0.318911,-0.220658 -0.305783,0.188615 -0.67562,0.0699895"/><polygon fill="#ffffff" stroke="#000000" points="-0.248718,-0.199829 0.181179,-0.083028 0.170572,0.33972 -0.235591,0.209444"/><polygon fill="#ee0000" stroke="#000000" points="-0.6717,0.137377 -0.301863,0.256002 -0.290082,0.623298 -0.64226,0.494879"/><polygon fill="#ffffff" stroke="#000000" points="-0.235268,0.278854 0.170895,0.40913 0.161427,0.786505 -0.223487,0.646149"/></g></svg>
