<svg width="128" height="128" viewBox="-0.9 -0.9 1.8 1.8" xmlns="http://www.w3.org/2000/svg" xmlns:xlink="http://www.w3.org/1999/xlink" overflow="hidden"><g stroke-width="0.1" stroke-linejoin="round" opacity="0.5"><path d="M0.654001-0.50224-0.161033-0.681501-0.14725 0.0736248 0.59354 0.29677Z" id="1" stroke="#BFBFBF" fill="#BFBFBF"/><path d="M-0.630493 0.484187 0.184643 0.78142 0.59354 0.29677-0.14725 0.0736248Z" id="2" stroke="#BFBFBF" fill="#BFBFBF"/><path d="M-0.161033-0.681501-0.699152-0.349576-0.630493 0.484187-0.14725 0.0736248Z" id="3" stroke="#BFBFBF" fill="#BFBFBF"/></g><g stroke-width="0" stroke-linejoin="round" stroke-opacity="0.5" opacity="1"><path d="M0.687467-0.528347 0.599219-0.547757 0.593642-0.460915 0.680849-0.440881Z" id="1" stroke="#BFBFBF" fill="#000000" opacity="0"/><path d="M0.583884-0.551204 0.497333-0.57024 0.49276-0.484015 0.578308-0.464362Z" id="2" stroke="#BFBFBF" fill="#FFA100"/><path d="M0.48229-0.573621 0.397388-0.592295 0.39378-0.506679 0.477717-0.487396Z" id="3" stroke="#BFBFBF" fill="#FFA100"/><path d="M0.382628-0.595612 0.299327-0.613934 0.296651-0.528919 0.379021-0.509996Z" id="4" stroke="#BFBFBF" fill="#FFA100"/><path d="M0.284843-0.617189 0.203099-0.635168 0.20132-0.550747 0.282167-0.532174Z" id="5" stroke="#BFBFBF" fill="#FFA100"/><path d="M0.188883-0.638363 0.108652-0.65601 0.107739-0.572175 0.187105-0.553943Z" id="6" stroke="#BFBFBF" fill="#FFA100"/><path d="M0.0946974-0.659146 0.0159383-0.676469 0.0158582-0.593214 0.0937836-0.575312Z" id="7" stroke="#BFBFBF" fill="#FFA100"/><path d="M0.00223693-0.679548-0.0750905-0.696556-0.0743667-0.613873 0.00215679-0.596294Z" id="8" stroke="#BFBFBF" fill="#FFA100"/><path d="M-0.0885452-0.69958-0.16448-0.716281-0.162981-0.634164-0.0878214-0.616898Z" id="9" stroke="#BFBFBF" fill="#000000" opacity="0"/><path d="M0.679783-0.425669 0.592577-0.445703 0.587123-0.360765 0.673311-0.340139Z" id="10" stroke="#BFBFBF" fill="#000000" opacity="0"/><path d="M0.577421-0.449256 0.491873-0.468909 0.487399-0.384557 0.571966-0.364319Z" id="11" stroke="#BFBFBF" fill="#000000" opacity="0"/><path d="M0.477002-0.472396 0.393065-0.491679 0.389536-0.407905 0.472528-0.388043Z" id="12" stroke="#BFBFBF" fill="#000000" opacity="0"/><path d="M0.378472-0.4951 0.296102-0.514023 0.293483-0.430821 0.374942-0.411326Z" id="13" stroke="#BFBFBF" fill="#000000" opacity="0"/><path d="M0.281778-0.517381 0.200931-0.535955 0.199189-0.453317 0.279159-0.434179Z" id="14" stroke="#BFBFBF" fill="#000000" opacity="0"/><path d="M0.186869-0.539251 0.107503-0.557484 0.106608-0.475405 0.185128-0.456614Z" id="15" stroke="#BFBFBF" fill="#000000" opacity="0"/><path d="M0.093696-0.560721 0.0157706-0.578623 0.0156922-0.497095 0.0928013-0.478642Z" id="16" stroke="#BFBFBF" fill="#000000" opacity="0"/><path d="M0.00221226-0.581802-0.0743113-0.599382-0.0736024-0.518399 0.00213378-0.500274Z" id="17" stroke="#BFBFBF" fill="#000000" opacity="0"/><path d="M-0.087628-0.602504-0.162787-0.61977-0.161319-0.539326-0.0869192-0.521521Z" id="18" stroke="#BFBFBF" fill="#000000" opacity="0"/><path d="M0.672269-0.32526 0.586081-0.345886 0.580745-0.262791 0.665939-0.241602Z" id="19" stroke="#BFBFBF" fill="#000000" opacity="0"/><path d="M0.571099-0.349541 0.486531-0.369779 0.482153-0.287239 0.565762-0.266445Z" id="20" stroke="#BFBFBF" fill="#000000" opacity="0"/><path d="M0.471828-0.373366 0.388836-0.393227 0.385382-0.311237 0.46745-0.290826Z" id="21" stroke="#BFBFBF" fill="#000000" opacity="0"/><path d="M0.374405-0.396748 0.292945-0.416242 0.290381-0.334795 0.37095-0.314757Z" id="22" stroke="#BFBFBF" fill="#000000" opacity="0"/><path d="M0.278777-0.419699 0.198808-0.438837 0.197103-0.357926 0.276213-0.338251Z" id="23" stroke="#BFBFBF" fill="#000000" opacity="0"/><path d="M0.184897-0.44223 0.106377-0.461021 0.105501-0.380642 0.183192-0.36132Z" id="24" stroke="#BFBFBF" fill="#000000" opacity="0"/><path d="M0.0927155-0.464354 0.0156064-0.482807 0.0155296-0.402953 0.0918393-0.383975Z" id="25" stroke="#BFBFBF" fill="#000000" opacity="0"/><path d="M0.00218813-0.48608-0.0735481-0.504205-0.0728537-0.424871 0.00211126-0.406227Z" id="26" stroke="#BFBFBF" fill="#000000" opacity="0"/><path d="M-0.0867297-0.507421-0.161129-0.525226-0.159691-0.446405-0.0860353-0.428086Z" id="27" stroke="#BFBFBF" fill="#000000" opacity="0"/><path d="M0.66492-0.227046 0.579725-0.248234 0.574503-0.166921 0.658727-0.1452Z" id="28" stroke="#BFBFBF" fill="#000000" opacity="0"/><path d="M0.564913-0.251985 0.481304-0.272779 0.477019-0.191994 0.559692-0.170672Z" id="29" stroke="#BFBFBF" fill="#000000" opacity="0"/><path d="M0.466765-0.276461 0.384697-0.296872 0.381316-0.216608 0.46248-0.195676Z" id="30" stroke="#BFBFBF" fill="#000000" opacity="0"/><path d="M0.370424-0.300486 0.289855-0.320524 0.287345-0.240777 0.367042-0.220223Z" id="31" stroke="#BFBFBF" fill="#000000" opacity="0"/><path d="M0.27584-0.324073 0.19673-0.343748 0.19506-0.264512 0.27333-0.244326Z" id="32" stroke="#BFBFBF" fill="#000000" opacity="0"/><path d="M0.182966-0.347234 0.105275-0.366556 0.104416-0.287825 0.181296-0.267997Z" id="33" stroke="#BFBFBF" fill="#000000" opacity="0"/><path d="M0.0917554-0.36998 0.0154456-0.388958 0.0153703-0.310727 0.0908971-0.291249Z" id="34" stroke="#BFBFBF" fill="#000000" opacity="0"/><path d="M0.00216452-0.392322-0.0728004-0.410966-0.07212-0.333229 0.00208921-0.31409Z" id="35" stroke="#BFBFBF" fill="#000000" opacity="0"/><path d="M-0.0858496-0.41427-0.159505-0.432589-0.158095-0.355341-0.0851692-0.336534Z" id="36" stroke="#BFBFBF" fill="#000000" opacity="0"/><path d="M0.657729-0.130956 0.573506-0.152677 0.568395-0.0730905 0.651669-0.0508635Z" id="37" stroke="#BFBFBF" fill="#000000" opacity="0"/><path d="M0.558861-0.156519 0.476188-0.177841 0.471993-0.0987547 0.55375-0.0769326Z" id="38" stroke="#BFBFBF" fill="#000000" opacity="0"/><path d="M0.46181-0.181613 0.380645-0.202546 0.377334-0.123955 0.457615-0.102527Z" id="39" stroke="#BFBFBF" fill="#000000" opacity="0"/><path d="M0.366527-0.206249 0.28683-0.226804 0.284371-0.148704 0.363216-0.127659Z" id="40" stroke="#BFBFBF" fill="#000000" opacity="0"/><path d="M0.272964-0.230441 0.194694-0.250627 0.193059-0.173013 0.270505-0.152341Z" id="41" stroke="#BFBFBF" fill="#000000" opacity="0"/><path d="M0.181075-0.2542 0.104195-0.274028 0.103354-0.196894 0.179439-0.176586Z" id="42" stroke="#BFBFBF" fill="#000000" opacity="0"/><path d="M0.0908149-0.277538 0.0152881-0.297016 0.0152143-0.220359 0.0899741-0.200405Z" id="43" stroke="#BFBFBF" fill="#000000" opacity="0"/><path d="M0.00214141-0.300465-0.0720678-0.319604-0.0714009-0.243418 0.00206762-0.223808Z" id="44" stroke="#BFBFBF" fill="#000000" opacity="0"/><path d="M-0.0849872-0.322993-0.157913-0.341801-0.156531-0.266081-0.0843203-0.246807Z" id="45" stroke="#BFBFBF" fill="#000000" opacity="0"/><path d="M0.650692-0.0369216 0.567419-0.0591486 0.562415 0.0187666 0.64476 0.0414732Z" id="46" stroke="#BFBFBF" fill="#000000" opacity="0"/><path d="M0.552936-0.0630772 0.47118-0.0848994 0.467072-0.00745928 0.547933 0.014838Z" id="47" stroke="#BFBFBF" fill="#000000" opacity="0"/><path d="M0.456959-0.0887571 0.376678-0.110185 0.373435-0.0332159 0.452851-0.011317Z" id="48" stroke="#BFBFBF" fill="#000000" opacity="0"/><path d="M0.362711-0.113974 0.283866-0.135019 0.281458-0.0585159 0.359468-0.0370047Z" id="49" stroke="#BFBFBF" fill="#000000" opacity="0"/><path d="M0.270147-0.138741 0.192701-0.159412 0.191098-0.0833711 0.267739-0.0622375Z" id="50" stroke="#BFBFBF" fill="#000000" opacity="0"/><path d="M0.179222-0.163069 0.103137-0.183377 0.102313-0.107793 0.17762-0.0870273Z" id="51" stroke="#BFBFBF" fill="#000000" opacity="0"/><path d="M0.0898935-0.186969 0.0151337-0.206924 0.0150614-0.131794 0.0890695-0.111386Z" id="52" stroke="#BFBFBF" fill="#000000" opacity="0"/><path d="M0.00211878-0.210455-0.0713498-0.230065-0.0706961-0.155383 0.00204646-0.135324Z" id="53" stroke="#BFBFBF" fill="#000000" opacity="0"/><path d="M-0.0841419-0.233535-0.156352-0.252809-0.154997-0.178572-0.0834882-0.158853Z" id="54" stroke="#BFBFBF" fill="#000000" opacity="0"/><path d="M0.643804 0.0551223 0.561459 0.0324158 0.55656 0.108711 0.637997 0.131873Z" id="55" stroke="#BFBFBF" fill="#000000" opacity="0"/><path d="M0.547136 0.028405 0.466276 0.00610778 0.462253 0.0819526 0.542237 0.104701Z" id="56" stroke="#BFBFBF" fill="#000000" opacity="0"/><path d="M0.452208 0.00216868 0.372792-0.0197302 0.369616 0.0556675 0.448185 0.0780134Z" id="57" stroke="#BFBFBF" fill="#000000" opacity="0"/><path d="M0.358974-0.0235996 0.280964-0.0451108 0.278605 0.0298439 0.355797 0.0517981Z" id="58" stroke="#BFBFBF" fill="#000000" opacity="0"/><path d="M0.267388-0.0489123 0.190747-0.0700459 0.189177 0.00446957 0.265029 0.0260423Z" id="59" stroke="#BFBFBF" fill="#000000" opacity="0"/><path d="M0.177408-0.0737813 0.1021-0.0945472 0.101293-0.020467 0.175838 0.000734146Z" id="60" stroke="#BFBFBF" fill="#000000" opacity="0"/><path d="M0.0889906-0.0982183 0.0149824-0.118626 0.0149115-0.0449771 0.088183-0.0241381Z" id="61" stroke="#BFBFBF" fill="#000000" opacity="0"/><path d="M0.00209663-0.122234-0.0706459-0.142293-0.070005-0.0690716 0.00202574-0.0485854Z" id="62" stroke="#BFBFBF" fill="#000000" opacity="0"/><path d="M-0.0833133-0.14584-0.154822-0.165559-0.153494-0.0927609-0.0826724-0.0726187Z" id="63" stroke="#BFBFBF" fill="#000000" opacity="0"/><path d="M0.637061 0.145238 0.555624 0.122077 0.550825 0.196803 0.631374 0.220396Z" id="64" stroke="#BFBFBF" fill="#000000" opacity="0"/><path d="M0.541457 0.117988 0.461473 0.0952403 0.457532 0.169539 0.536658 0.192715Z" id="65" stroke="#BFBFBF" fill="#000000" opacity="0"/><path d="M0.447556 0.0912239 0.368986 0.068878 0.365874 0.142752 0.443615 0.165522Z" id="66" stroke="#BFBFBF" fill="#000000" opacity="0"/><path d="M0.355313 0.064932 0.27812 0.0429778 0.275808 0.116431 0.352201 0.138806Z" id="67" stroke="#BFBFBF" fill="#000000" opacity="0"/><path d="M0.264685 0.0391003 0.188834 0.0175275 0.187295 0.0905628 0.262373 0.112553Z" id="68" stroke="#BFBFBF" fill="#000000" opacity="0"/><path d="M0.175629 0.0137168 0.101085-0.00748438 0.100293 0.0651368 0.17409 0.0867521Z" id="69" stroke="#BFBFBF" fill="#000000" opacity="0"/><path d="M0.0881057-0.01123 0.0148341-0.0320691 0.0147646 0.0401415 0.087314 0.0613912Z" id="70" stroke="#BFBFBF" fill="#000000" opacity="0"/><path d="M0.00207494-0.0357514-0.0699558-0.0562376-0.0693273 0.0155659 0.00200543 0.0364592Z" id="71" stroke="#BFBFBF" fill="#000000" opacity="0"/><path d="M-0.0825008-0.0598581-0.153322-0.0800002-0.152019-0.00860045-0.0818723 0.0119454Z" id="72" stroke="#BFBFBF" fill="#000000" opacity="0"/><path d="M0.630457 0.233487 0.549909 0.209894 0.545208 0.283098 0.624887 0.3071Z" id="73" stroke="#BFBFBF" fill="#000000" opacity="0"/><path d="M0.535894 0.205731 0.456768 0.182555 0.452906 0.255354 0.531193 0.278936Z" id="74" stroke="#BFBFBF" fill="#000000" opacity="0"/><path d="M0.442998 0.178466 0.365257 0.155695 0.362207 0.228091 0.439137 0.251264Z" id="75" stroke="#BFBFBF" fill="#000000" opacity="0"/><path d="M0.351726 0.151677 0.275334 0.129301 0.273068 0.201297 0.348676 0.224072Z" id="76" stroke="#BFBFBF" fill="#000000" opacity="0"/><path d="M0.262036 0.125352 0.186958 0.103361 0.185449 0.17496 0.259769 0.197347Z" id="77" stroke="#BFBFBF" fill="#000000" opacity="0"/><path d="M0.173886 0.0994792 0.100089 0.0778639 0.0993124 0.149069 0.172378 0.171078Z" id="78" stroke="#BFBFBF" fill="#000000" opacity="0"/><path d="M0.0872382 0.0740472 0.0146888 0.0527975 0.0146206 0.123612 0.086462 0.145252Z" id="79" stroke="#BFBFBF" fill="#000000" opacity="0"/><path d="M0.00205369 0.0490448-0.069279 0.0281515-0.0686626 0.0985778 0.00198552 0.119859Z" id="80" stroke="#BFBFBF" fill="#000000" opacity="0"/><path d="M-0.0817041 0.0244612-0.15185 0.0039153-0.150572 0.073957-0.0810876 0.0948875Z" id="81" stroke="#BFBFBF" fill="#000000" opacity="0"/><path d="M-0.65929 0.513339-0.583641 0.540924-0.529548 0.493474-0.604482 0.466775Z" id="82" stroke="#BFBFBF" fill="#000000" opacity="0"/><path d="M-0.570229 0.545759-0.493123 0.573875-0.439783 0.525514-0.516136 0.498309Z" id="83" stroke="#BFBFBF" fill="#000000" opacity="0"/><path d="M-0.479454 0.578802-0.400848 0.607465-0.3483 0.558167-0.426114 0.530441Z" id="84" stroke="#BFBFBF" fill="#000000" opacity="0"/><path d="M-0.386914 0.612487-0.306764 0.641713-0.255049 0.59145-0.334366 0.563189Z" id="85" stroke="#BFBFBF" fill="#000000" opacity="0"/><path d="M-0.292557 0.646834-0.210818 0.67664-0.159979 0.625384-0.240842 0.596571Z" id="86" stroke="#BFBFBF" fill="#000000" opacity="0"/><path d="M-0.19633 0.681862-0.112953 0.712265-0.0630355 0.659985-0.145491 0.630606Z" id="87" stroke="#BFBFBF" fill="#000000" opacity="0"/><path d="M-0.0981755 0.717592-0.013111 0.74861 0.0358373 0.695276-0.0482585 0.665312Z" id="88" stroke="#BFBFBF" fill="#000000" opacity="0"/><path d="M0.001964 0.754044 0.0887677 0.785696 0.136697 0.731276 0.0509122 0.70071Z" id="89" stroke="#BFBFBF" fill="#000000" opacity="0"/><path d="M0.10415 0.791241 0.192746 0.823547 0.239605 0.768006 0.152079 0.73682Z" id="90" stroke="#BFBFBF" fill="#000000" opacity="0"/><path d="M-0.595026 0.458613-0.520092 0.485313-0.46773 0.439381-0.541955 0.413525Z" id="91" stroke="#BFBFBF" fill="#000000" opacity="0"/><path d="M-0.506809 0.489993-0.430456 0.517198-0.378838 0.470398-0.454447 0.444061Z" id="92" stroke="#BFBFBF" fill="#000000" opacity="0"/><path d="M-0.416922 0.521966-0.339108 0.549691-0.288273 0.502-0.365304 0.475167Z" id="93" stroke="#BFBFBF" fill="#000000" opacity="0"/><path d="M-0.325316 0.55455-0.246 0.582812-0.195987 0.534202-0.274481 0.506859Z" id="94" stroke="#BFBFBF" fill="#000000" opacity="0"/><path d="M-0.231943 0.587764-0.151079 0.616576-0.10193 0.567022-0.181929 0.539155Z" id="95" stroke="#BFBFBF" fill="#000000" opacity="0"/><path d="M-0.136749 0.621625-0.054293 0.651005-0.00605011 0.600478-0.087599 0.572071Z" id="96" stroke="#BFBFBF" fill="#000000" opacity="0"/><path d="M-0.0396813 0.656153 0.0444144 0.686116 0.091705 0.634589 0.00856158 0.605626Z" id="97" stroke="#BFBFBF" fill="#000000" opacity="0"/><path d="M0.0593157 0.691366 0.145101 0.721932 0.191391 0.669373 0.106606 0.639839Z" id="98" stroke="#BFBFBF" fill="#000000" opacity="0"/><path d="M0.1603 0.727287 0.247826 0.758473 0.293067 0.704852 0.206591 0.674728Z" id="99" stroke="#BFBFBF" fill="#000000" opacity="0"/><path d="M-0.532798 0.405621-0.458573 0.431477-0.407859 0.386991-0.481383 0.36194Z" id="100" stroke="#BFBFBF" fill="#000000" opacity="0"/><path d="M-0.445417 0.43601-0.369808 0.462347-0.319831 0.417035-0.394704 0.391524Z" id="101" stroke="#BFBFBF" fill="#000000" opacity="0"/><path d="M-0.356408 0.466964-0.279377 0.493798-0.230172 0.447636-0.306431 0.421652Z" id="102" stroke="#BFBFBF" fill="#000000" opacity="0"/><path d="M-0.265726 0.498501-0.187231 0.525844-0.138837 0.478808-0.216521 0.452339Z" id="103" stroke="#BFBFBF" fill="#000000" opacity="0"/><path d="M-0.173321 0.530636-0.0933215 0.558504-0.0457777 0.510569-0.124927 0.4836Z" id="104" stroke="#BFBFBF" fill="#000000" opacity="0"/><path d="M-0.079146 0.563388 0.00240295 0.591795 0.0490546 0.542935-0.0316021 0.515453Z" id="105" stroke="#BFBFBF" fill="#000000" opacity="0"/><path d="M0.016852 0.596773 0.0999954 0.625735 0.145711 0.575924 0.0635037 0.547913Z" id="106" stroke="#BFBFBF" fill="#000000" opacity="0"/><path d="M0.114726 0.63081 0.199511 0.660345 0.244245 0.609553 0.160442 0.580999Z" id="107" stroke="#BFBFBF" fill="#000000" opacity="0"/><path d="M0.214532 0.66552 0.301007 0.695643 0.344712 0.643842 0.259266 0.614728Z" id="108" stroke="#BFBFBF" fill="#000000" opacity="0"/><path d="M-0.47251 0.354282-0.398987 0.379334-0.349845 0.336227-0.422675 0.311942Z" id="109" stroke="#BFBFBF" fill="#000000" opacity="0"/><path d="M-0.385957 0.383725-0.311084 0.409237-0.26267 0.365342-0.336815 0.340619Z" id="110" stroke="#BFBFBF" fill="#000000" opacity="0"/><path d="M-0.297817 0.413709-0.221558 0.439693-0.173906 0.394988-0.249402 0.369814Z" id="111" stroke="#BFBFBF" fill="#000000" opacity="0"/><path d="M-0.208045 0.444248-0.130361 0.470717-0.0835083 0.425179-0.160393 0.399543Z" id="112" stroke="#BFBFBF" fill="#000000" opacity="0"/><path d="M-0.116597 0.475357-0.0374474 0.502325 0.00856799 0.455931-0.0697439 0.429819Z" id="113" stroke="#BFBFBF" fill="#000000" opacity="0"/><path d="M-0.0234243 0.507052 0.0572324 0.534534 0.10237 0.48726 0.0225911 0.460658Z" id="114" stroke="#BFBFBF" fill="#000000" opacity="0"/><path d="M0.0715216 0.539351 0.153729 0.567361 0.197947 0.519181 0.116659 0.492077Z" id="115" stroke="#BFBFBF" fill="#000000" opacity="0"/><path d="M0.168292 0.57227 0.252095 0.600825 0.29535 0.551713 0.21251 0.52409Z" id="116" stroke="#BFBFBF" fill="#000000" opacity="0"/><path d="M0.26694 0.605828 0.352386 0.634943 0.394632 0.584871 0.310195 0.556716Z" id="117" stroke="#BFBFBF" fill="#000000" opacity="0"/><path d="M-0.414074 0.304519-0.341244 0.328803-0.293603 0.287012-0.365747 0.26346Z" id="118" stroke="#BFBFBF" fill="#000000" opacity="0"/><path d="M-0.328339 0.333061-0.254194 0.357785-0.207271 0.315241-0.280698 0.29127Z" id="119" stroke="#BFBFBF" fill="#000000" opacity="0"/><path d="M-0.241057 0.362119-0.16556 0.387293-0.119389 0.343977-0.194133 0.319576Z" id="120" stroke="#BFBFBF" fill="#000000" opacity="0"/><path d="M-0.152184 0.391706-0.0752992 0.417343-0.0299154 0.373233-0.106013 0.34839Z" id="121" stroke="#BFBFBF" fill="#000000" opacity="0"/><path d="M-0.0616781 0.421837 0.0166338 0.447949 0.0611933 0.403024-0.0162943 0.377727Z" id="122" stroke="#BFBFBF" fill="#000000" opacity="0"/><path d="M0.0305068 0.452527 0.110286 0.479128 0.153982 0.433364 0.0750663 0.407601Z" id="123" stroke="#BFBFBF" fill="#000000" opacity="0"/><path d="M0.124418 0.483791 0.205706 0.510896 0.248499 0.464269 0.168114 0.438026Z" id="124" stroke="#BFBFBF" fill="#000000" opacity="0"/><path d="M0.220104 0.515647 0.302944 0.543269 0.344792 0.495755 0.262897 0.469019Z" id="125" stroke="#BFBFBF" fill="#000000" opacity="0"/><path d="M0.317616 0.54811 0.402053 0.576265 0.442911 0.527838 0.359464 0.500596Z" id="126" stroke="#BFBFBF" fill="#000000" opacity="0"/><path d="M-0.357406 0.256261-0.285261 0.279813-0.239052 0.239278-0.310519 0.216426Z" id="127" stroke="#BFBFBF" fill="#000000" opacity="0"/><path d="M-0.272479 0.283943-0.199052 0.307914-0.153552 0.266661-0.22627 0.243408Z" id="128" stroke="#BFBFBF" fill="#000000" opacity="0"/><path d="M-0.186044 0.312117-0.111299 0.336518-0.0665407 0.294527-0.140544 0.270864Z" id="129" stroke="#BFBFBF" fill="#000000" opacity="0"/><path d="M-0.0980581 0.340796-0.0219606 0.365639 0.0220222 0.322891-0.0532995 0.298806Z" id="130" stroke="#BFBFBF" fill="#000000" opacity="0"/><path d="M-0.00848059 0.369994 0.069007 0.395291 0.112179 0.351764 0.0355023 0.327246Z" id="131" stroke="#BFBFBF" fill="#000000" opacity="0"/><path d="M0.0827324 0.399726 0.161649 0.425489 0.203972 0.381162 0.125904 0.356199Z" id="132" stroke="#BFBFBF" fill="#000000" opacity="0"/><path d="M0.175626 0.430005 0.256011 0.456247 0.297446 0.411099 0.217949 0.385678Z" id="133" stroke="#BFBFBF" fill="#000000" opacity="0"/><path d="M0.270247 0.460847 0.352142 0.487582 0.39265 0.441589 0.311683 0.415699Z" id="134" stroke="#BFBFBF" fill="#000000" opacity="0"/><path d="M0.366645 0.492268 0.450092 0.51951 0.48963 0.472648 0.407153 0.446275Z" id="135" stroke="#BFBFBF" fill="#000000" opacity="0"/><path d="M-0.302426 0.209441-0.230959 0.232293-0.186118 0.192959-0.256916 0.170776Z" id="136" stroke="#BFBFBF" fill="#000000" opacity="0"/><path d="M-0.218298 0.236301-0.14558 0.259553-0.101439 0.219533-0.173458 0.196967Z" id="137" stroke="#BFBFBF" fill="#000000" opacity="0"/><path d="M-0.132699 0.263631-0.0586957 0.287294-0.015286 0.246569-0.0885577 0.22361Z" id="138" stroke="#BFBFBF" fill="#000000" opacity="0"/><path d="M-0.0455874 0.291443 0.0297344 0.315528 0.0723801 0.27408-0.00217766 0.250718Z" id="139" stroke="#BFBFBF" fill="#000000" opacity="0"/><path d="M0.0430755 0.319751 0.119752 0.34427 0.161599 0.302078 0.0857213 0.278303Z" id="140" stroke="#BFBFBF" fill="#000000" opacity="0"/><path d="M0.133332 0.348568 0.2114 0.373531 0.252413 0.330577 0.17518 0.306377Z" id="141" stroke="#BFBFBF" fill="#000000" opacity="0"/><path d="M0.225226 0.377908 0.304723 0.403328 0.344865 0.359589 0.266239 0.334953Z" id="142" stroke="#BFBFBF" fill="#000000" opacity="0"/><path d="M0.318801 0.407784 0.399767 0.433675 0.438999 0.38913 0.358943 0.364046Z" id="143" stroke="#BFBFBF" fill="#000000" opacity="0"/><path d="M0.414105 0.438213 0.496582 0.464586 0.534862 0.419213 0.453337 0.393669Z" id="144" stroke="#BFBFBF" fill="#000000" opacity="0"/><path d="M-0.249059 0.163995-0.178262 0.186178-0.13473 0.147992-0.204867 0.126449Z" id="145" stroke="#BFBFBF" fill="#000000" opacity="0"/><path d="M-0.165721 0.190069-0.0937026 0.212635-0.0508611 0.173792-0.12219 0.151883Z" id="146" stroke="#BFBFBF" fill="#000000" opacity="0"/><path d="M-0.0809464 0.216592-0.00767463 0.239551 0.0344463 0.200035-0.038105 0.17775Z" id="147" stroke="#BFBFBF" fill="#000000" opacity="0"/><path d="M0.00530279 0.243577 0.0798606 0.266939 0.121229 0.226731 0.0474237 0.204061Z" id="148" stroke="#BFBFBF" fill="#000000" opacity="0"/><path d="M0.0930651 0.271035 0.168943 0.29481 0.209527 0.253893 0.134434 0.230828Z" id="149" stroke="#BFBFBF" fill="#000000" opacity="0"/><path d="M0.182381 0.298979 0.259614 0.323179 0.299378 0.281534 0.222964 0.258062Z" id="150" stroke="#BFBFBF" fill="#000000" opacity="0"/><path d="M0.273291 0.327422 0.351917 0.352059 0.390825 0.309665 0.313055 0.285777Z" id="151" stroke="#BFBFBF" fill="#000000" opacity="0"/><path d="M0.365839 0.356378 0.445895 0.381462 0.48391 0.3383 0.404747 0.313984Z" id="152" stroke="#BFBFBF" fill="#000000" opacity="0"/><path d="M0.46007 0.38586 0.541596 0.411405 0.578678 0.367453 0.498085 0.342697Z" id="153" stroke="#BFBFBF" fill="#000000" opacity="0"/><path d="M-0.197237 0.119864-0.1271 0.141407-0.0848213 0.10432-0.154306 0.0833894Z" id="154" stroke="#BFBFBF" fill="#000000" opacity="0"/><path d="M-0.114678 0.145186-0.0433496 0.167095-0.00175101 0.12938-0.0723991 0.108099Z" id="155" stroke="#BFBFBF" fill="#000000" opacity="0"/><path d="M-0.030717 0.170938 0.0418343 0.193223 0.082723 0.154863 0.0108816 0.133222Z" id="156" stroke="#BFBFBF" fill="#000000" opacity="0"/><path d="M0.0546828 0.197131 0.128488 0.219801 0.168637 0.18078 0.0955715 0.158771Z" id="157" stroke="#BFBFBF" fill="#000000" opacity="0"/><path d="M0.141558 0.223777 0.216651 0.246843 0.256027 0.207143 0.181707 0.184756Z" id="158" stroke="#BFBFBF" fill="#000000" opacity="0"/><path d="M0.229948 0.250887 0.306362 0.274359 0.344932 0.233963 0.269324 0.211188Z" id="159" stroke="#BFBFBF" fill="#000000" opacity="0"/><path d="M0.319892 0.278475 0.397663 0.302363 0.435393 0.261252 0.358463 0.238079Z" id="160" stroke="#BFBFBF" fill="#000000" opacity="0"/><path d="M0.411432 0.306551 0.490595 0.330867 0.527449 0.289023 0.449162 0.265441Z" id="161" stroke="#BFBFBF" fill="#000000" opacity="0"/><path d="M0.504611 0.33513 0.585204 0.359885 0.621144 0.317287 0.541464 0.293286Z" id="162" stroke="#BFBFBF" fill="#000000" opacity="0"/><path d="M-0.1753-0.715099-0.222511-0.685978-0.220495-0.602877-0.173801-0.632981Z" id="163" stroke="#BFBFBF" fill="#000000" opacity="0"/><path d="M-0.230928-0.680667-0.27966-0.650608-0.277094-0.566503-0.228912-0.597566Z" id="164" stroke="#BFBFBF" fill="#000000" opacity="0"/><path d="M-0.288349-0.645126-0.338676-0.614083-0.335526-0.528951-0.285783-0.561021Z" id="165" stroke="#BFBFBF" fill="#000000" opacity="0"/><path d="M-0.34765-0.608421-0.399652-0.576345-0.395879-0.490164-0.3445-0.523289Z" id="166" stroke="#BFBFBF" fill="#000000" opacity="0"/><path d="M-0.408926-0.570494-0.462688-0.537333-0.458252-0.450079-0.405153-0.484313Z" id="167" stroke="#BFBFBF" fill="#000000" opacity="0"/><path d="M-0.472276-0.531283-0.527889-0.49698-0.522747-0.408631-0.46784-0.44403Z" id="168" stroke="#BFBFBF" fill="#000000" opacity="0"/><path d="M-0.537808-0.490722-0.595369-0.455217-0.589473-0.365748-0.532666-0.402373Z" id="169" stroke="#BFBFBF" fill="#000000" opacity="0"/><path d="M-0.605636-0.448739-0.665249-0.411968-0.65855-0.321355-0.599741-0.35927Z" id="170" stroke="#BFBFBF" fill="#000000" opacity="0"/><path d="M-0.675884-0.405258-0.737661-0.367153-0.730103-0.275371-0.669185-0.314645Z" id="171" stroke="#BFBFBF" fill="#000000" opacity="0"/><path d="M-0.173494-0.618555-0.220189-0.58845-0.218214-0.507069-0.172026-0.538111Z" id="172" stroke="#BFBFBF" fill="#000000" opacity="0"/><path d="M-0.228513-0.582969-0.276695-0.551905-0.274183-0.469568-0.226538-0.501588Z" id="173" stroke="#BFBFBF" fill="#000000" opacity="0"/><path d="M-0.285285-0.546248-0.335027-0.514179-0.331944-0.430865-0.282773-0.463911Z" id="174" stroke="#BFBFBF" fill="#000000" opacity="0"/><path d="M-0.343896-0.508338-0.395276-0.475213-0.391585-0.390902-0.340813-0.425024Z" id="175" stroke="#BFBFBF" fill="#000000" opacity="0"/><path d="M-0.404437-0.46918-0.457536-0.434946-0.453199-0.349618-0.400746-0.384869Z" id="176" stroke="#BFBFBF" fill="#000000" opacity="0"/><path d="M-0.467005-0.42871-0.521912-0.393312-0.516885-0.306945-0.462668-0.343382Z" id="177" stroke="#BFBFBF" fill="#000000" opacity="0"/><path d="M-0.531704-0.386863-0.588511-0.350239-0.58275-0.262812-0.526677-0.300496Z" id="178" stroke="#BFBFBF" fill="#000000" opacity="0"/><path d="M-0.598643-0.343566-0.657452-0.305651-0.650908-0.217142-0.592883-0.256139Z" id="179" stroke="#BFBFBF" fill="#000000" opacity="0"/><path d="M-0.667942-0.298743-0.72886-0.259468-0.721481-0.169855-0.661399-0.210234Z" id="180" stroke="#BFBFBF" fill="#000000" opacity="0"/><path d="M-0.171726-0.523979-0.217914-0.492938-0.21598-0.413224-0.170287-0.445158Z" id="181" stroke="#BFBFBF" fill="#000000" opacity="0"/><path d="M-0.226147-0.487293-0.273792-0.455273-0.271332-0.374648-0.224213-0.407579Z" id="182" stroke="#BFBFBF" fill="#000000" opacity="0"/><path d="M-0.282285-0.44945-0.331456-0.416404-0.328438-0.33485-0.279826-0.368825Z" id="183" stroke="#BFBFBF" fill="#000000" opacity="0"/><path d="M-0.340222-0.410394-0.390994-0.376272-0.387382-0.293771-0.337204-0.32884Z" id="184" stroke="#BFBFBF" fill="#000000" opacity="0"/><path d="M-0.400046-0.370065-0.452498-0.334814-0.448255-0.251348-0.396435-0.287565Z" id="185" stroke="#BFBFBF" fill="#000000" opacity="0"/><path d="M-0.461851-0.328402-0.516068-0.291964-0.511153-0.207514-0.457608-0.244936Z" id="186" stroke="#BFBFBF" fill="#000000" opacity="0"/><path d="M-0.525737-0.285336-0.58181-0.247651-0.576179-0.162196-0.520822-0.200885Z" id="187" stroke="#BFBFBF" fill="#000000" opacity="0"/><path d="M-0.59181-0.240795-0.649836-0.201798-0.643442-0.11532-0.586179-0.15534Z" id="188" stroke="#BFBFBF" fill="#000000" opacity="0"/><path d="M-0.660185-0.194702-0.720268-0.154323-0.71306-0.0668016-0.653792-0.108224Z" id="189" stroke="#BFBFBF" fill="#000000" opacity="0"/><path d="M-0.169993-0.431312-0.215686-0.399378-0.213791-0.32128-0.168583-0.354065Z" id="190" stroke="#BFBFBF" fill="#000000" opacity="0"/><path d="M-0.22383-0.393578-0.270949-0.360647-0.26854-0.281682-0.221935-0.31548Z" id="191" stroke="#BFBFBF" fill="#000000" opacity="0"/><path d="M-0.279348-0.354666-0.32796-0.320691-0.325005-0.240843-0.276939-0.275701Z" id="192" stroke="#BFBFBF" fill="#000000" opacity="0"/><path d="M-0.336626-0.314519-0.386804-0.279451-0.383269-0.198703-0.333671-0.234671Z" id="193" stroke="#BFBFBF" fill="#000000" opacity="0"/><path d="M-0.39575-0.27308-0.44757-0.236863-0.443419-0.155199-0.392215-0.192332Z" id="194" stroke="#BFBFBF" fill="#000000" opacity="0"/><path d="M-0.456809-0.230283-0.510355-0.192861-0.505547-0.110263-0.452658-0.148619Z" id="195" stroke="#BFBFBF" fill="#000000" opacity="0"/><path d="M-0.519902-0.186061-0.575259-0.147373-0.569754-0.0638248-0.515095-0.103464Z" id="196" stroke="#BFBFBF" fill="#000000" opacity="0"/><path d="M-0.585131-0.140343-0.642394-0.100322-0.636145-0.0158064-0.579626-0.0567945Z" id="197" stroke="#BFBFBF" fill="#000000" opacity="0"/><path d="M-0.652606-0.0930492-0.711875-0.051627-0.704834 0.0338739-0.646358-0.00853335Z" id="198" stroke="#BFBFBF" fill="#000000" opacity="0"/><path d="M-0.168295-0.340496-0.213503-0.307711-0.211647-0.23118-0.166913-0.264777Z" id="199" stroke="#BFBFBF" fill="#000000" opacity="0"/><path d="M-0.22156-0.301763-0.268165-0.267965-0.265805-0.19061-0.219703-0.225233Z" id="200" stroke="#BFBFBF" fill="#000000" opacity="0"/><path d="M-0.276471-0.261834-0.324537-0.226976-0.321644-0.14878-0.274111-0.184478Z" id="201" stroke="#BFBFBF" fill="#000000" opacity="0"/><path d="M-0.333105-0.220651-0.382703-0.184682-0.379242-0.105632-0.330211-0.142455Z" id="202" stroke="#BFBFBF" fill="#000000" opacity="0"/><path d="M-0.391544-0.178155-0.442748-0.141022-0.438685-0.0611019-0.388083-0.0991049Z" id="203" stroke="#BFBFBF" fill="#000000" opacity="0"/><path d="M-0.451877-0.134283-0.504766-0.0959278-0.500063-0.0151229-0.447814-0.0543631Z" id="204" stroke="#BFBFBF" fill="#000000" opacity="0"/><path d="M-0.514196-0.0889665-0.568855-0.0493275-0.563471 0.0323772-0.509492-0.00816163Z" id="205" stroke="#BFBFBF" fill="#000000" opacity="0"/><path d="M-0.578601-0.0421326-0.635121-0.0011445-0.629012 0.0814752-0.573217 0.0395721Z" id="206" stroke="#BFBFBF" fill="#000000" opacity="0"/><path d="M-0.645199 0.00629598-0.703676 0.0487032-0.696796 0.132253-0.639091 0.0889157Z" id="207" stroke="#BFBFBF" fill="#000000" opacity="0"/><path d="M-0.16663-0.251477-0.211364-0.217881-0.209544-0.142871-0.165275-0.17724Z" id="208" stroke="#BFBFBF" fill="#000000" opacity="0"/><path d="M-0.219336-0.211792-0.265437-0.177169-0.263125-0.101374-0.217516-0.136782Z" id="209" stroke="#BFBFBF" fill="#000000" opacity="0"/><path d="M-0.273653-0.170894-0.321185-0.135196-0.318351-0.0586019-0.271341-0.0950984Z" id="210" stroke="#BFBFBF" fill="#000000" opacity="0"/><path d="M-0.329657-0.128726-0.378688-0.0919022-0.375299-0.0144961-0.326822-0.0521314Z" id="211" stroke="#BFBFBF" fill="#000000" opacity="0"/><path d="M-0.387427-0.0852271-0.438029-0.0472241-0.434052 0.0310072-0.384038-0.00782094Z" id="212" stroke="#BFBFBF" fill="#000000" opacity="0"/><path d="M-0.447049-0.0403346-0.499298-0.00109436-0.494696 0.0779755-0.443072 0.0378968Z" id="213" stroke="#BFBFBF" fill="#000000" opacity="0"/><path d="M-0.508613 0.00602013-0.562591 0.046559-0.557325 0.126481-0.504011 0.08509Z" id="214" stroke="#BFBFBF" fill="#000000" opacity="0"/><path d="M-0.572215 0.0539096-0.62801 0.0958127-0.622037 0.176599-0.566949 0.133831Z" id="215" stroke="#BFBFBF" fill="#000000" opacity="0"/><path d="M-0.637958 0.103411-0.695663 0.146749-0.688938 0.228414-0.631985 0.184198Z" id="216" stroke="#BFBFBF" fill="#000000" opacity="0"/><path d="M-0.164998-0.164201-0.209267-0.129832-0.207483-0.0562984-0.163669-0.0914033Z" id="217" stroke="#BFBFBF" fill="#000000" opacity="0"/><path d="M-0.217155-0.12361-0.262764-0.0882009-0.260498-0.0139192-0.215371-0.0500756Z" id="218" stroke="#BFBFBF" fill="#000000" opacity="0"/><path d="M-0.270891-0.0817893-0.317902-0.0452928-0.315125 0.0297485-0.268625-0.00750756Z" id="219" stroke="#BFBFBF" fill="#000000" opacity="0"/><path d="M-0.326279-0.0386837-0.374756-0.00104842-0.371437 0.0747641-0.323502 0.0363576Z" id="220" stroke="#BFBFBF" fill="#000000" opacity="0"/><path d="M-0.383396 0.00576744-0.433409 0.0445956-0.429516 0.121191-0.380077 0.08158Z" id="221" stroke="#BFBFBF" fill="#000000" opacity="0"/><path d="M-0.442324 0.0516281-0.493948 0.0917069-0.489444 0.169097-0.43843 0.128224Z" id="222" stroke="#BFBFBF" fill="#000000" opacity="0"/><path d="M-0.50315 0.0989665-0.556464 0.140357-0.551312 0.218554-0.498646 0.176357Z" id="223" stroke="#BFBFBF" fill="#000000" opacity="0"/><path d="M-0.565968 0.147855-0.621057 0.190623-0.615215 0.269637-0.560816 0.226052Z" id="224" stroke="#BFBFBF" fill="#000000" opacity="0"/><path d="M-0.630878 0.198371-0.687831 0.242587-0.681256 0.32243-0.625036 0.277385Z" id="225" stroke="#BFBFBF" fill="#000000" opacity="0"/><path d="M-0.163398-0.0786181-0.207212-0.0435132-0.205463 0.0285879-0.162094-0.00721832Z" id="226" stroke="#BFBFBF" fill="#000000" opacity="0"/><path d="M-0.215018-0.0371627-0.260145-0.00100619-0.257924 0.0718068-0.213269 0.0349385Z" id="227" stroke="#BFBFBF" fill="#000000" opacity="0"/><path d="M-0.268185 0.00553511-0.314685 0.0427912-0.311963 0.116326-0.265964 0.0783481Z" id="228" stroke="#BFBFBF" fill="#000000" opacity="0"/><path d="M-0.32297 0.0495319-0.370905 0.0879384-0.367654 0.162206-0.320249 0.123067Z" id="229" stroke="#BFBFBF" fill="#000000" opacity="0"/><path d="M-0.379448 0.0948879-0.428886 0.134499-0.425073 0.20951-0.376196 0.169156Z" id="230" stroke="#BFBFBF" fill="#000000" opacity="0"/><path d="M-0.437697 0.141667-0.488711 0.18254-0.484301 0.258304-0.433884 0.216678Z" id="231" stroke="#BFBFBF" fill="#000000" opacity="0"/><path d="M-0.497803 0.189938-0.550469 0.232134-0.545427 0.308661-0.493394 0.265701Z" id="232" stroke="#BFBFBF" fill="#000000" opacity="0"/><path d="M-0.559857 0.239772-0.614256 0.283357-0.608541 0.360657-0.554814 0.316298Z" id="233" stroke="#BFBFBF" fill="#000000" opacity="0"/><path d="M-0.623954 0.291247-0.680173 0.336291-0.673744 0.414372-0.618239 0.368546Z" id="234" stroke="#BFBFBF" fill="#000000" opacity="0"/><path d="M-0.161828 0.00532077-0.205196 0.041127-0.203481 0.111837-0.160549 0.0753625Z" id="235" stroke="#BFBFBF" fill="#000000" opacity="0"/><path d="M-0.212922 0.0475993-0.257577 0.0844675-0.255399 0.155855-0.211207 0.118309Z" id="236" stroke="#BFBFBF" fill="#000000" opacity="0"/><path d="M-0.265533 0.0911322-0.311532 0.12911-0.308865 0.201184-0.263355 0.162519Z" id="237" stroke="#BFBFBF" fill="#000000" opacity="0"/><path d="M-0.319728 0.135976-0.367133 0.175115-0.363947 0.247885-0.31706 0.20805Z" id="238" stroke="#BFBFBF" fill="#000000" opacity="0"/><path d="M-0.37558 0.182192-0.424456 0.222546-0.420721 0.29602-0.372394 0.254961Z" id="239" stroke="#BFBFBF" fill="#000000" opacity="0"/><path d="M-0.433166 0.229842-0.483584 0.271468-0.479266 0.345656-0.429431 0.303316Z" id="240" stroke="#BFBFBF" fill="#000000" opacity="0"/><path d="M-0.492569 0.278996-0.544602 0.321956-0.539666 0.396865-0.488251 0.353183Z" id="241" stroke="#BFBFBF" fill="#000000" opacity="0"/><path d="M-0.553876 0.329724-0.607603 0.374083-0.60201 0.449722-0.54894 0.404634Z" id="242" stroke="#BFBFBF" fill="#000000" opacity="0"/><path d="M-0.617179 0.382106-0.672684 0.427932-0.666395 0.50431-0.611587 0.457745Z" id="243" stroke="#BFBFBF" fill="#000000" opacity="0"/></g><g stroke-width="0.1" stroke-linejoin="round" opacity="0.5"><path d="M0.206844-0.103422 0.654001-0.50224 0.59354 0.29677 0.184643 0.78142Z" id="1" stroke="#BFBFBF" fill="#BFBFBF"/><path d="M-0.161033-0.681501 0.654001-0.50224 0.206844-0.103422-0.699152-0.349576Z" id="2" stroke="#BFBFBF" fill="#BFBFBF"/><path d="M-0.699152-0.349576 0.206844-0.103422 0.184643 0.78142-0.630493 0.484187Z" id="3" stroke="#BFBFBF" fill="#BFBFBF"/></g><g stroke-width="0" stroke-linejoin="round" stroke-opacity="0.5" opacity="1"><path d="M0.224361-0.105558 0.276349-0.151926 0.273259-0.0549538 0.221896-0.00727946Z" id="1" stroke="#BFBFBF" fill="#000000" opacity="0"/><path d="M0.285296-0.160064 0.335281-0.204645 0.331616-0.108952 0.282206-0.0630916Z" id="2" stroke="#BFBFBF" fill="#000000" opacity="0"/><path d="M0.343888-0.212474 0.391983-0.25537 0.387788-0.16093 0.340223-0.116781Z" id="3" stroke="#BFBFBF" fill="#000000" opacity="0"/><path d="M0.40027-0.262908 0.446581-0.304212 0.441897-0.210997 0.396075-0.168467Z" id="4" stroke="#BFBFBF" fill="#000000" opacity="0"/><path d="M0.454565-0.311474 0.499188-0.351274 0.494053-0.259259 0.44988-0.218259Z" id="5" stroke="#BFBFBF" fill="#000000" opacity="0"/><path d="M0.506885-0.358275 0.549912-0.396651 0.544361-0.30581 0.50175-0.26626Z" id="6" stroke="#BFBFBF" fill="#000000" opacity="0"/><path d="M0.557338-0.403405 0.598852-0.440432 0.592917-0.350741 0.551786-0.312565Z" id="7" stroke="#BFBFBF" fill="#000000" opacity="0"/><path d="M0.606021-0.446952 0.646101-0.4827 0.639811-0.394134 0.600085-0.357261Z" id="8" stroke="#BFBFBF" fill="#000000" opacity="0"/><path d="M0.653026-0.488999 0.691745-0.523533 0.685127-0.436066 0.646735-0.400432Z" id="9" stroke="#BFBFBF" fill="#000000" opacity="0"/><path d="M0.221412 0.0097302 0.272776-0.0379441 0.269765 0.0565531 0.219011 0.105451Z" id="10" stroke="#BFBFBF" fill="#000000" opacity="0"/><path d="M0.281618-0.0463031 0.331028-0.0921637 0.327455 0.00113279 0.278607 0.0481941Z" id="11" stroke="#BFBFBF" fill="#000000" opacity="0"/><path d="M0.339539-0.10021 0.387104-0.144358 0.383011-0.0522389 0.335965-0.00691307Z" id="12" stroke="#BFBFBF" fill="#000000" opacity="0"/><path d="M0.395301-0.152108 0.441123-0.194638 0.436552-0.103674 0.391209-0.0599889Z" id="13" stroke="#BFBFBF" fill="#000000" opacity="0"/><path d="M0.449025-0.202108 0.493197-0.243108 0.488183-0.153275 0.444453-0.111144Z" id="14" stroke="#BFBFBF" fill="#000000" opacity="0"/><path d="M0.500818-0.250313 0.543429-0.289863 0.538007-0.201139 0.495805-0.16048Z" id="15" stroke="#BFBFBF" fill="#000000" opacity="0"/><path d="M0.550785-0.296817 0.591915-0.334993 0.586115-0.247355 0.545362-0.208093Z" id="16" stroke="#BFBFBF" fill="#000000" opacity="0"/><path d="M0.599019-0.341709 0.638744-0.378581 0.632595-0.292008 0.593219-0.254071Z" id="17" stroke="#BFBFBF" fill="#000000" opacity="0"/><path d="M0.645609-0.385071 0.684001-0.420705 0.677529-0.335175 0.639459-0.298497Z" id="18" stroke="#BFBFBF" fill="#000000" opacity="0"/><path d="M0.21854 0.122025 0.269294 0.0731269 0.266359 0.165242 0.2162 0.215288Z" id="19" stroke="#BFBFBF" fill="#000000" opacity="0"/><path d="M0.278034 0.0645605 0.326881 0.0174992 0.323396 0.108488 0.275099 0.156676Z" id="20" stroke="#BFBFBF" fill="#000000" opacity="0"/><path d="M0.335298 0.00924971 0.382344-0.0360761 0.378351 0.0538056 0.331813 0.100238Z" id="21" stroke="#BFBFBF" fill="#000000" opacity="0"/><path d="M0.390454-0.0440259 0.435797-0.0877106 0.431335 0.0010843 0.386462 0.0458558Z" id="22" stroke="#BFBFBF" fill="#000000" opacity="0"/><path d="M0.443618-0.0953767 0.487348-0.137508 0.482452-0.0497797 0.439156-0.00658181Z" id="23" stroke="#BFBFBF" fill="#000000" opacity="0"/><path d="M0.494895-0.144905 0.537097-0.185564 0.5318-0.0988829 0.489999-0.0571771Z" id="24" stroke="#BFBFBF" fill="#000000" opacity="0"/><path d="M0.544384-0.192706 0.585136-0.231969 0.579468-0.146315 0.539086-0.106025Z" id="25" stroke="#BFBFBF" fill="#000000" opacity="0"/><path d="M0.592176-0.238869 0.631553-0.276806 0.625541-0.19216 0.586507-0.153216Z" id="26" stroke="#BFBFBF" fill="#000000" opacity="0"/><path d="M0.638358-0.283477 0.676427-0.320154 0.670097-0.236497 0.632346-0.198831Z" id="27" stroke="#BFBFBF" fill="#000000" opacity="0"/><path d="M0.215741 0.231442 0.2659 0.181397 0.263037 0.27122 0.21346 0.322339Z" id="28" stroke="#BFBFBF" fill="#000000" opacity="0"/><path d="M0.27454 0.172636 0.322837 0.124448 0.319437 0.213213 0.271677 0.262459Z" id="29" stroke="#BFBFBF" fill="#000000" opacity="0"/><path d="M0.331161 0.116007 0.3777 0.0695745 0.373803 0.1573 0.327761 0.204773Z" id="30" stroke="#BFBFBF" fill="#000000" opacity="0"/><path d="M0.385725 0.0614368 0.430598 0.0166652 0.426241 0.103367 0.381828 0.149162Z" id="31" stroke="#BFBFBF" fill="#000000" opacity="0"/><path d="M0.43834 0.00881446 0.481636-0.0343834 0.476854 0.0513127 0.433983 0.0955164Z" id="32" stroke="#BFBFBF" fill="#000000" opacity="0"/><path d="M0.48911-0.0419622 0.530911-0.083668 0.525734 0.00103973 0.484327 0.043734Z" id="33" stroke="#BFBFBF" fill="#000000" opacity="0"/><path d="M0.53813-0.0909885 0.578511-0.131278 0.572969-0.0475416 0.532953-0.00628085Z" id="34" stroke="#BFBFBF" fill="#000000" opacity="0"/><path d="M0.585488-0.138354 0.624522-0.177298 0.618642-0.0945154 0.579947-0.0546171Z" id="35" stroke="#BFBFBF" fill="#000000" opacity="0"/><path d="M0.631269-0.18414 0.66902-0.221806 0.662827-0.13996 0.625389-0.101358Z" id="36" stroke="#BFBFBF" fill="#000000" opacity="0"/><path d="M0.213013 0.33809 0.26259 0.286971 0.259798 0.374585 0.210789 0.42671Z" id="37" stroke="#BFBFBF" fill="#000000" opacity="0"/><path d="M0.271132 0.278028 0.318892 0.228782 0.315574 0.315405 0.26834 0.365642Z" id="38" stroke="#BFBFBF" fill="#000000" opacity="0"/><path d="M0.327126 0.220162 0.373167 0.172689 0.369362 0.258334 0.323808 0.306785Z" id="39" stroke="#BFBFBF" fill="#000000" opacity="0"/><path d="M0.381108 0.164374 0.425522 0.11858 0.421266 0.203262 0.377304 0.250019Z" id="40" stroke="#BFBFBF" fill="#000000" opacity="0"/><path d="M0.433187 0.110555 0.476057 0.0663512 0.471384 0.150085 0.428931 0.195237Z" id="41" stroke="#BFBFBF" fill="#000000" opacity="0"/><path d="M0.483459 0.0586014 0.524865 0.0159071 0.519805 0.0987081 0.478786 0.142335Z" id="42" stroke="#BFBFBF" fill="#000000" opacity="0"/><path d="M0.532018 0.00841833 0.572034-0.0328425 0.566615 0.0490406 0.526958 0.0912193Z" id="43" stroke="#BFBFBF" fill="#000000" opacity="0"/><path d="M0.57895-0.0400832 0.617645-0.0799816 0.611893 0.000998637 0.573531 0.0417998Z" id="44" stroke="#BFBFBF" fill="#000000" opacity="0"/><path d="M0.624335-0.0869864 0.661773-0.125589 0.655713-0.0454962 0.618584-0.00600622Z" id="45" stroke="#BFBFBF" fill="#000000" opacity="0"/><path d="M0.210353 0.442072 0.259361 0.389948 0.256637 0.475434 0.208184 0.5285Z" id="46" stroke="#BFBFBF" fill="#000000" opacity="0"/><path d="M0.267808 0.380834 0.315042 0.330596 0.311804 0.415153 0.265084 0.46632Z" id="47" stroke="#BFBFBF" fill="#000000" opacity="0"/><path d="M0.323187 0.321808 0.368742 0.273357 0.365026 0.356995 0.319949 0.406364Z" id="48" stroke="#BFBFBF" fill="#000000" opacity="0"/><path d="M0.376601 0.264876 0.420564 0.218119 0.416406 0.300851 0.372886 0.348514Z" id="49" stroke="#BFBFBF" fill="#000000" opacity="0"/><path d="M0.428153 0.20993 0.470605 0.164778 0.466038 0.246617 0.423995 0.292662Z" id="50" stroke="#BFBFBF" fill="#000000" opacity="0"/><path d="M0.477937 0.156867 0.518956 0.11324 0.514009 0.194198 0.47337 0.238706Z" id="51" stroke="#BFBFBF" fill="#000000" opacity="0"/><path d="M0.526044 0.105592 0.565701 0.0634133 0.560401 0.143504 0.521096 0.18655Z" id="52" stroke="#BFBFBF" fill="#000000" opacity="0"/><path d="M0.572556 0.0560162 0.610918 0.015215 0.60529 0.094451 0.567256 0.136107Z" id="53" stroke="#BFBFBF" fill="#000000" opacity="0"/><path d="M0.617553 0.00805629 0.654682-0.0314337 0.64875 0.0469611 0.611925 0.0872922Z" id="54" stroke="#BFBFBF" fill="#000000" opacity="0"/><path d="M0.207758 0.543488 0.256211 0.490422 0.253553 0.573858 0.205643 0.627805Z" id="55" stroke="#BFBFBF" fill="#000000" opacity="0"/><path d="M0.264564 0.481148 0.311284 0.429981 0.308122 0.512545 0.261906 0.564584Z" id="56" stroke="#BFBFBF" fill="#000000" opacity="0"/><path d="M0.319343 0.421034 0.36442 0.371665 0.360791 0.453366 0.31618 0.503598Z" id="57" stroke="#BFBFBF" fill="#000000" opacity="0"/><path d="M0.3722 0.363028 0.41572 0.315364 0.411657 0.396213 0.36857 0.444729Z" id="58" stroke="#BFBFBF" fill="#000000" opacity="0"/><path d="M0.423234 0.307022 0.465277 0.260976 0.460812 0.340983 0.419171 0.38787Z" id="59" stroke="#BFBFBF" fill="#000000" opacity="0"/><path d="M0.47254 0.252913 0.513179 0.208405 0.50834 0.287581 0.468074 0.33292Z" id="60" stroke="#BFBFBF" fill="#000000" opacity="0"/><path d="M0.520202 0.200607 0.559506 0.157561 0.554321 0.235917 0.515363 0.279783Z" id="61" stroke="#BFBFBF" fill="#000000" opacity="0"/><path d="M0.566302 0.150016 0.604337 0.10836 0.598829 0.185908 0.561116 0.228372Z" id="62" stroke="#BFBFBF" fill="#000000" opacity="0"/><path d="M0.610915 0.101056 0.647741 0.0607246 0.641933 0.137475 0.605407 0.178603Z" id="63" stroke="#BFBFBF" fill="#000000" opacity="0"/><path d="M0.205227 0.642432 0.253137 0.588485 0.250541 0.669942 0.203163 0.724713Z" id="64" stroke="#BFBFBF" fill="#000000" opacity="0"/><path d="M0.261399 0.579061 0.307615 0.527022 0.304526 0.607662 0.258803 0.660519Z" id="65" stroke="#BFBFBF" fill="#000000" opacity="0"/><path d="M0.315588 0.517927 0.360199 0.467695 0.356653 0.547526 0.3125 0.598567Z" id="66" stroke="#BFBFBF" fill="#000000" opacity="0"/><path d="M0.367899 0.458911 0.410987 0.410395 0.407015 0.489424 0.364353 0.538742Z" id="67" stroke="#BFBFBF" fill="#000000" opacity="0"/><path d="M0.418428 0.401907 0.460068 0.35502 0.455702 0.433256 0.414456 0.480936Z" id="68" stroke="#BFBFBF" fill="#000000" opacity="0"/><path d="M0.467263 0.346813 0.507528 0.301474 0.502795 0.378926 0.462897 0.425049Z" id="69" stroke="#BFBFBF" fill="#000000" opacity="0"/><path d="M0.514488 0.293535 0.553446 0.249668 0.548371 0.326346 0.509755 0.370986Z" id="70" stroke="#BFBFBF" fill="#000000" opacity="0"/><path d="M0.560183 0.241984 0.597895 0.19952 0.592503 0.275432 0.555108 0.318661Z" id="71" stroke="#BFBFBF" fill="#000000" opacity="0"/><path d="M0.60442 0.192077 0.640945 0.150949 0.635258 0.226106 0.599028 0.267989Z" id="72" stroke="#BFBFBF" fill="#000000" opacity="0"/><path d="M0.202757 0.738992 0.250135 0.684222 0.247601 0.76377 0.200741 0.81931Z" id="73" stroke="#BFBFBF" fill="#000000" opacity="0"/><path d="M0.258308 0.674657 0.304031 0.621801 0.301013 0.700584 0.255773 0.754206Z" id="74" stroke="#BFBFBF" fill="#000000" opacity="0"/><path d="M0.311921 0.612567 0.356074 0.561525 0.352608 0.639549 0.308904 0.69135Z" id="75" stroke="#BFBFBF" fill="#000000" opacity="0"/><path d="M0.363698 0.552604 0.40636 0.503286 0.402477 0.580556 0.360232 0.630627Z" id="76" stroke="#BFBFBF" fill="#000000" opacity="0"/><path d="M0.413729 0.494661 0.454975 0.446981 0.450704 0.523504 0.409846 0.571931Z" id="77" stroke="#BFBFBF" fill="#000000" opacity="0"/><path d="M0.462103 0.438639 0.502001 0.392516 0.49737 0.468299 0.457832 0.515162Z" id="78" stroke="#BFBFBF" fill="#000000" opacity="0"/><path d="M0.508899 0.384443 0.547515 0.339802 0.542548 0.414854 0.504268 0.460226Z" id="79" stroke="#BFBFBF" fill="#000000" opacity="0"/><path d="M0.554195 0.331985 0.59159 0.288756 0.58631 0.363084 0.549228 0.407037Z" id="80" stroke="#BFBFBF" fill="#000000" opacity="0"/><path d="M0.59806 0.281183 0.634291 0.2393 0.628721 0.312913 0.592781 0.355511Z" id="81" stroke="#BFBFBF" fill="#000000" opacity="0"/><path d="M-0.168709-0.72091-0.0927744-0.704209-0.139207-0.674552-0.21592-0.691789Z" id="82" stroke="#BFBFBF" fill="#000000" opacity="0"/><path d="M-0.0791794-0.701186-0.00185198-0.684178-0.0474692-0.65397-0.125612-0.671529Z" id="83" stroke="#BFBFBF" fill="#FEFE00"/><path d="M0.0119957-0.681099 0.0907548-0.663777 0.0459918-0.633002-0.0336215-0.650891Z" id="84" stroke="#BFBFBF" fill="#FEFE00"/><path d="M0.104862-0.66064 0.185093-0.642994 0.141225-0.611636 0.0600993-0.629865Z" id="85" stroke="#BFBFBF" fill="#FEFE00"/><path d="M0.199468-0.639797 0.281212-0.621818 0.238281-0.589862 0.1556-0.60844Z" id="86" stroke="#BFBFBF" fill="#FEFE00"/><path d="M0.295862-0.618561 0.379163-0.600239 0.337213-0.567666 0.25293-0.586604Z" id="87" stroke="#BFBFBF" fill="#FEFE00"/><path d="M0.394095-0.596919 0.478998-0.578245 0.438075-0.545038 0.352145-0.564346Z" id="88" stroke="#BFBFBF" fill="#FEFE00"/><path d="M0.494221-0.57486 0.580772-0.555824 0.540926-0.521963 0.453299-0.541652Z" id="89" stroke="#BFBFBF" fill="#FEFE00"/><path d="M0.596295-0.552372 0.684543-0.532963 0.645823-0.498429 0.556448-0.518511Z" id="90" stroke="#BFBFBF" fill="#000000" opacity="0"/><path d="M-0.224316-0.686518-0.147603-0.66928-0.195546-0.638659-0.273048-0.656459Z" id="91" stroke="#BFBFBF" fill="#000000" opacity="0"/><path d="M-0.133866-0.666159-0.0557234-0.6486-0.102838-0.617401-0.181809-0.635538Z" id="92" stroke="#BFBFBF" fill="#000000" opacity="0"/><path d="M-0.0417271-0.64542 0.0378862-0.627531-0.00835981-0.595737-0.0888414-0.614221Z" id="93" stroke="#BFBFBF" fill="#000000" opacity="0"/><path d="M0.0521494-0.62429 0.133275-0.606062 0.0879393-0.573655 0.00590336-0.592496Z" id="94" stroke="#BFBFBF" fill="#000000" opacity="0"/><path d="M0.147813-0.602758 0.230494-0.58418 0.186113-0.551144 0.102477-0.570352Z" id="95" stroke="#BFBFBF" fill="#000000" opacity="0"/><path d="M0.245315-0.580812 0.329597-0.561874 0.286216-0.52819 0.200933-0.547777Z" id="96" stroke="#BFBFBF" fill="#000000" opacity="0"/><path d="M0.344708-0.558441 0.430639-0.539132 0.388306-0.504781 0.301327-0.524757Z" id="97" stroke="#BFBFBF" fill="#000000" opacity="0"/><path d="M0.446049-0.535631 0.533677-0.515941 0.492444-0.480902 0.403717-0.501279Z" id="98" stroke="#BFBFBF" fill="#000000" opacity="0"/><path d="M0.549396-0.512369 0.638771-0.492287 0.59869-0.456539 0.508163-0.47733Z" id="99" stroke="#BFBFBF" fill="#000000" opacity="0"/><path d="M-0.281718-0.651015-0.204215-0.633216-0.253742-0.601582-0.332045-0.619972Z" id="100" stroke="#BFBFBF" fill="#000000" opacity="0"/><path d="M-0.190335-0.629991-0.111364-0.611854-0.16005-0.579614-0.239861-0.598358Z" id="101" stroke="#BFBFBF" fill="#000000" opacity="0"/><path d="M-0.0972165-0.608568-0.016735-0.590084-0.064539-0.557219-0.145903-0.576327Z" id="102" stroke="#BFBFBF" fill="#000000" opacity="0"/><path d="M-0.00231348-0.586734 0.0797224-0.567893 0.0328444-0.534385-0.0501175-0.553869Z" id="103" stroke="#BFBFBF" fill="#000000" opacity="0"/><path d="M0.0944263-0.564478 0.178062-0.54527 0.132156-0.511099 0.0475482-0.530969Z" id="104" stroke="#BFBFBF" fill="#000000" opacity="0"/><path d="M0.193057-0.541786 0.278339-0.5222 0.233453-0.487347 0.14715-0.507615Z" id="105" stroke="#BFBFBF" fill="#000000" opacity="0"/><path d="M0.293633-0.518647 0.380612-0.498671 0.336796-0.463115 0.248747-0.483794Z" id="106" stroke="#BFBFBF" fill="#000000" opacity="0"/><path d="M0.396215-0.495047 0.484941-0.474669 0.442248-0.438389 0.352399-0.459491Z" id="107" stroke="#BFBFBF" fill="#000000" opacity="0"/><path d="M0.500862-0.470971 0.591389-0.45018 0.549874-0.413153 0.458169-0.434691Z" id="108" stroke="#BFBFBF" fill="#000000" opacity="0"/><path d="M-0.341003-0.614348-0.2627-0.595958-0.31389-0.563262-0.393005-0.582272Z" id="109" stroke="#BFBFBF" fill="#000000" opacity="0"/><path d="M-0.248673-0.592625-0.168862-0.573881-0.2192-0.540547-0.299864-0.559929Z" id="110" stroke="#BFBFBF" fill="#000000" opacity="0"/><path d="M-0.154561-0.570483-0.0731974-0.551375-0.12264-0.517383-0.204899-0.537149Z" id="111" stroke="#BFBFBF" fill="#000000" opacity="0"/><path d="M-0.058615-0.54791 0.0243469-0.528426-0.0241536-0.493758-0.108057-0.513918Z" id="112" stroke="#BFBFBF" fill="#000000" opacity="0"/><path d="M0.0392197-0.524892 0.123827-0.505021 0.0763162-0.469656-0.00928074-0.490224Z" id="113" stroke="#BFBFBF" fill="#000000" opacity="0"/><path d="M0.138999-0.501416 0.225302-0.481148 0.17883-0.445064 0.0914883-0.466051Z" id="114" stroke="#BFBFBF" fill="#000000" opacity="0"/><path d="M0.240782-0.47747 0.328832-0.456791 0.283452-0.419966 0.194311-0.441386Z" id="115" stroke="#BFBFBF" fill="#000000" opacity="0"/><path d="M0.34463-0.453037 0.434479-0.431935 0.390247-0.394347 0.29925-0.416212Z" id="116" stroke="#BFBFBF" fill="#000000" opacity="0"/><path d="M0.450605-0.428104 0.54231-0.406566 0.499283-0.368191 0.406373-0.390516Z" id="117" stroke="#BFBFBF" fill="#000000" opacity="0"/><path d="M-0.402264-0.576458-0.32315-0.557448-0.37609-0.523635-0.456026-0.543297Z" id="118" stroke="#BFBFBF" fill="#000000" opacity="0"/><path d="M-0.308976-0.554001-0.228312-0.534619-0.280387-0.500134-0.361916-0.520188Z" id="119" stroke="#BFBFBF" fill="#000000" opacity="0"/><path d="M-0.213856-0.531104-0.131596-0.511338-0.182762-0.476161-0.265931-0.496619Z" id="120" stroke="#BFBFBF" fill="#000000" opacity="0"/><path d="M-0.11685-0.507752-0.0329463-0.487592-0.0831549-0.451702-0.168016-0.472576Z" id="121" stroke="#BFBFBF" fill="#000000" opacity="0"/><path d="M-0.0179015-0.483933 0.0676955-0.463365 0.018494-0.426742-0.0681101-0.448044Z" id="122" stroke="#BFBFBF" fill="#000000" opacity="0"/><path d="M0.0830483-0.459632 0.17039-0.438645 0.122248-0.401264 0.0338468-0.423008Z" id="123" stroke="#BFBFBF" fill="#000000" opacity="0"/><path d="M0.186061-0.434834 0.275202-0.413415 0.228174-0.375253 0.137919-0.397453Z" id="124" stroke="#BFBFBF" fill="#000000" opacity="0"/><path d="M0.2912-0.409525 0.382197-0.38766 0.336341-0.348692 0.244172-0.371363Z" id="125" stroke="#BFBFBF" fill="#000000" opacity="0"/><path d="M0.398533-0.383687 0.491443-0.361362 0.44682-0.321563 0.352677-0.344719Z" id="126" stroke="#BFBFBF" fill="#000000" opacity="0"/><path d="M-0.465603-0.537283-0.385668-0.517621-0.440449-0.482632-0.521216-0.50298Z" id="127" stroke="#BFBFBF" fill="#000000" opacity="0"/><path d="M-0.371343-0.514055-0.289815-0.494001-0.34372-0.458305-0.426125-0.479065Z" id="128" stroke="#BFBFBF" fill="#000000" opacity="0"/><path d="M-0.275201-0.490362-0.192031-0.469905-0.245013-0.43348-0.329106-0.454666Z" id="129" stroke="#BFBFBF" fill="#000000" opacity="0"/><path d="M-0.177119-0.466192-0.0922585-0.445318-0.144267-0.408142-0.230101-0.429767Z" id="130" stroke="#BFBFBF" fill="#000000" opacity="0"/><path d="M-0.0770388-0.441528 0.00956521-0.420226-0.0414186-0.382276-0.129047-0.404353Z" id="131" stroke="#BFBFBF" fill="#000000" opacity="0"/><path d="M0.0251021-0.416358 0.113504-0.394613 0.0635991-0.355864-0.0258817-0.378407Z" id="132" stroke="#BFBFBF" fill="#000000" opacity="0"/><path d="M0.129368-0.390663 0.219623-0.368463 0.170856-0.328889 0.0794633-0.351914Z" id="133" stroke="#BFBFBF" fill="#000000" opacity="0"/><path d="M0.235825-0.364428 0.327994-0.341758 0.280423-0.301332 0.187057-0.324854Z" id="134" stroke="#BFBFBF" fill="#000000" opacity="0"/><path d="M0.344544-0.337637 0.438687-0.31448 0.392377-0.273176 0.296973-0.297211Z" id="135" stroke="#BFBFBF" fill="#000000" opacity="0"/><path d="M-0.531128-0.496757-0.45036-0.476409-0.50708-0.440181-0.588688-0.461252Z" id="136" stroke="#BFBFBF" fill="#000000" opacity="0"/><path d="M-0.435884-0.472716-0.35348-0.451955-0.409311-0.414983-0.492604-0.436488Z" id="137" stroke="#BFBFBF" fill="#000000" opacity="0"/><path d="M-0.338706-0.448186-0.254613-0.427-0.309508-0.38926-0.394538-0.411214Z" id="138" stroke="#BFBFBF" fill="#000000" opacity="0"/><path d="M-0.239532-0.423153-0.153698-0.401528-0.207605-0.362995-0.294427-0.385412Z" id="139" stroke="#BFBFBF" fill="#000000" opacity="0"/><path d="M-0.138301-0.3976-0.0506721-0.375524-0.103537-0.336173-0.192208-0.359067Z" id="140" stroke="#BFBFBF" fill="#000000" opacity="0"/><path d="M-0.0349478-0.371512 0.054533-0.348969 0.00276758-0.308774-0.0878126-0.332161Z" id="141" stroke="#BFBFBF" fill="#000000" opacity="0"/><path d="M0.0705947-0.344871 0.161987-0.321846 0.111381-0.28078 0.0188292-0.304677Z" id="142" stroke="#BFBFBF" fill="#000000" opacity="0"/><path d="M0.178397-0.31766 0.271762-0.294138 0.222379-0.252172 0.127791-0.276594Z" id="143" stroke="#BFBFBF" fill="#000000" opacity="0"/><path d="M0.288532-0.289859 0.383936-0.265824 0.335841-0.222928 0.239148-0.247894Z" id="144" stroke="#BFBFBF" fill="#000000" opacity="0"/><path d="M-0.598952-0.454808-0.517344-0.433737-0.576106-0.396204-0.658565-0.418037Z" id="145" stroke="#BFBFBF" fill="#000000" opacity="0"/><path d="M-0.502714-0.429911-0.419422-0.408405-0.477286-0.370087-0.561477-0.392378Z" id="146" stroke="#BFBFBF" fill="#000000" opacity="0"/><path d="M-0.404486-0.404499-0.319456-0.382545-0.376371-0.343416-0.46235-0.366181Z" id="147" stroke="#BFBFBF" fill="#000000" opacity="0"/><path d="M-0.304204-0.378556-0.217383-0.356139-0.273294-0.316173-0.361119-0.339427Z" id="148" stroke="#BFBFBF" fill="#000000" opacity="0"/><path d="M-0.201804-0.352065-0.113133-0.32917-0.167985-0.288341-0.257716-0.312099Z" id="149" stroke="#BFBFBF" fill="#000000" opacity="0"/><path d="M-0.0972182-0.325008-0.00663806-0.301621-0.0603705-0.259899-0.15207-0.284178Z" id="150" stroke="#BFBFBF" fill="#000000" opacity="0"/><path d="M0.0096249-0.297367 0.102176-0.273471 0.0496259-0.230827-0.0441075-0.255645Z" id="151" stroke="#BFBFBF" fill="#000000" opacity="0"/><path d="M0.118799-0.269124 0.213387-0.244702 0.162084-0.201105 0.0662483-0.22648Z" id="152" stroke="#BFBFBF" fill="#000000" opacity="0"/><path d="M0.230381-0.240257 0.327073-0.215292 0.277088-0.17071 0.179078-0.196661Z" id="153" stroke="#BFBFBF" fill="#000000" opacity="0"/><path d="M-0.6692-0.411359-0.586741-0.389527-0.64766-0.350618-0.730976-0.373254Z" id="154" stroke="#BFBFBF" fill="#000000" opacity="0"/><path d="M-0.571957-0.38556-0.487766-0.363269-0.547775-0.32353-0.632875-0.346651Z" id="155" stroke="#BFBFBF" fill="#000000" opacity="0"/><path d="M-0.472666-0.359218-0.386687-0.336453-0.445734-0.295857-0.532676-0.319479Z" id="156" stroke="#BFBFBF" fill="#000000" opacity="0"/><path d="M-0.371261-0.332314-0.283436-0.309061-0.341466-0.267581-0.430309-0.291719Z" id="157" stroke="#BFBFBF" fill="#000000" opacity="0"/><path d="M-0.267674-0.304832-0.177944-0.281074-0.234896-0.23868-0.325704-0.263352Z" id="158" stroke="#BFBFBF" fill="#000000" opacity="0"/><path d="M-0.161834-0.276752-0.0701351-0.252472-0.125949-0.209134-0.218787-0.234358Z" id="159" stroke="#BFBFBF" fill="#000000" opacity="0"/><path d="M-0.0536671-0.248054 0.0400664-0.223236-0.0145427-0.178922-0.109481-0.204716Z" id="160" stroke="#BFBFBF" fill="#000000" opacity="0"/><path d="M0.0569055-0.218718 0.152741-0.193344 0.0994063-0.14802 0.00229646-0.174404Z" id="161" stroke="#BFBFBF" fill="#000000" opacity="0"/><path d="M0.169964-0.188723 0.267974-0.162772 0.215986-0.116404 0.116629-0.143399Z" id="162" stroke="#BFBFBF" fill="#000000" opacity="0"/><path d="M-0.735842-0.361733-0.652526-0.339096-0.645895-0.246627-0.728284-0.269951Z" id="163" stroke="#BFBFBF" fill="#000000" opacity="0"/><path d="M-0.637751-0.334997-0.552651-0.311876-0.546989-0.218712-0.63112-0.242528Z" id="164" stroke="#BFBFBF" fill="#000000" opacity="0"/><path d="M-0.53756-0.30769-0.450619-0.284068-0.445969-0.1902-0.531898-0.214526Z" id="165" stroke="#BFBFBF" fill="#000000" opacity="0"/><path d="M-0.435202-0.279791-0.346359-0.255653-0.342767-0.161072-0.430552-0.185923Z" id="166" stroke="#BFBFBF" fill="#000000" opacity="0"/><path d="M-0.330605-0.251283-0.239797-0.226611-0.237311-0.131308-0.327013-0.156702Z" id="167" stroke="#BFBFBF" fill="#000000" opacity="0"/><path d="M-0.223695-0.222144-0.130857-0.19692-0.129526-0.100887-0.221209-0.126841Z" id="168" stroke="#BFBFBF" fill="#000000" opacity="0"/><path d="M-0.114395-0.192353-0.0194567-0.166559-0.0193352-0.0697865-0.113065-0.0963201Z" id="169" stroke="#BFBFBF" fill="#000000" opacity="0"/><path d="M-0.00262282-0.161889 0.094487-0.135505 0.0933441-0.0379838-0.00250132-0.0651164Z" id="170" stroke="#BFBFBF" fill="#000000" opacity="0"/><path d="M0.111706-0.130728 0.211063-0.103734 0.208597-0.00545479 0.110563-0.033207Z" id="171" stroke="#BFBFBF" fill="#000000" opacity="0"/><path d="M-0.727046-0.253888-0.644657-0.230565-0.638184-0.140303-0.719666-0.164274Z" id="172" stroke="#BFBFBF" fill="#000000" opacity="0"/><path d="M-0.630048-0.226347-0.545916-0.202531-0.540391-0.111614-0.623575-0.136086Z" id="173" stroke="#BFBFBF" fill="#000000" opacity="0"/><path d="M-0.530998-0.198225-0.445069-0.173899-0.440533-0.0823188-0.525473-0.107307Z" id="174" stroke="#BFBFBF" fill="#000000" opacity="0"/><path d="M-0.429833-0.169501-0.342048-0.14465-0.338544-0.0523988-0.425297-0.0779205Z" id="175" stroke="#BFBFBF" fill="#000000" opacity="0"/><path d="M-0.326482-0.140157-0.23678-0.114763-0.234356-0.0218334-0.322979-0.0479056Z" id="176" stroke="#BFBFBF" fill="#000000" opacity="0"/><path d="M-0.220875-0.110172-0.129193-0.0842176-0.127896 0.00939831-0.218451-0.0172422Z" id="177" stroke="#BFBFBF" fill="#000000" opacity="0"/><path d="M-0.112937-0.0795251-0.0192073-0.0529915-0.0190889 0.0413185-0.11164 0.0140908Z" id="178" stroke="#BFBFBF" fill="#000000" opacity="0"/><path d="M-0.00258885-0.0481943 0.0932566-0.0210616 0.0921431 0.0739501-0.00247044 0.0461157Z" id="179" stroke="#BFBFBF" fill="#000000" opacity="0"/><path d="M0.11025-0.0161562 0.208284 0.011596 0.205882 0.107317 0.109136 0.0788555Z" id="180" stroke="#BFBFBF" fill="#000000" opacity="0"/><path d="M-0.718458-0.148591-0.636976-0.124619-0.630656-0.0364872-0.71125-0.0610697Z" id="181" stroke="#BFBFBF" fill="#000000" opacity="0"/><path d="M-0.622528-0.120291-0.539344-0.0958186-0.53395-0.00706831-0.616208-0.0321582Z" id="182" stroke="#BFBFBF" fill="#000000" opacity="0"/><path d="M-0.524595-0.0913993-0.439655-0.0664107-0.435228 0.0229642-0.519201-0.00264903Z" id="183" stroke="#BFBFBF" fill="#000000" opacity="0"/><path d="M-0.424595-0.0618982-0.337842-0.0363764-0.334424 0.0536297-0.420168 0.0274767Z" id="184" stroke="#BFBFBF" fill="#000000" opacity="0"/><path d="M-0.322461-0.0317677-0.233838-0.00569563-0.231473 0.0849484-0.319043 0.0582383Z" id="185" stroke="#BFBFBF" fill="#000000" opacity="0"/><path d="M-0.218125-0.000987637-0.12757 0.0256529-0.126306 0.116942-0.215761 0.0896564Z" id="186" stroke="#BFBFBF" fill="#000000" opacity="0"/><path d="M-0.111515 0.0304634-0.0189643 0.0576911-0.0188489 0.149631-0.110251 0.121752Z" id="187" stroke="#BFBFBF" fill="#000000" opacity="0"/><path d="M-0.00255574 0.0626075 0.0920578 0.090442 0.0909726 0.18304-0.00244031 0.154547Z" id="188" stroke="#BFBFBF" fill="#000000" opacity="0"/><path d="M0.108832 0.095468 0.205578 0.12393 0.203238 0.217192 0.107747 0.188066Z" id="189" stroke="#BFBFBF" fill="#000000" opacity="0"/><path d="M-0.71007-0.0457522-0.629475-0.0211696-0.623303 0.0649079-0.703029 0.0397487Z" id="190" stroke="#BFBFBF" fill="#000000" opacity="0"/><path d="M-0.615186-0.0167354-0.532928 0.00835454-0.527662 0.0950145-0.609014 0.0693421Z" id="191" stroke="#BFBFBF" fill="#000000" opacity="0"/><path d="M-0.518344 0.0128802-0.434371 0.0384934-0.430049 0.125742-0.513077 0.0995402Z" id="192" stroke="#BFBFBF" fill="#000000" opacity="0"/><path d="M-0.419483 0.0431134-0.333739 0.0692664-0.330403 0.157108-0.415161 0.130362Z" id="193" stroke="#BFBFBF" fill="#000000" opacity="0"/><path d="M-0.318538 0.0739837-0.230968 0.100694-0.228661 0.189136-0.315202 0.161826Z" id="194" stroke="#BFBFBF" fill="#000000" opacity="0"/><path d="M-0.215443 0.105512-0.125988 0.132797-0.124755 0.221844-0.213136 0.193953Z" id="195" stroke="#BFBFBF" fill="#000000" opacity="0"/><path d="M-0.110129 0.137718-0.0187274 0.165597-0.0186148 0.255255-0.108896 0.226765Z" id="196" stroke="#BFBFBF" fill="#000000" opacity="0"/><path d="M-0.00252347 0.170625 0.0908894 0.199118 0.0898314 0.289392-0.0024109 0.260283Z" id="197" stroke="#BFBFBF" fill="#000000" opacity="0"/><path d="M0.10745 0.204256 0.202941 0.233383 0.20066 0.324279 0.106392 0.294531Z" id="198" stroke="#BFBFBF" fill="#000000" opacity="0"/><path d="M-0.701876 0.054713-0.62215 0.0798721-0.61612 0.163966-0.694996 0.138263Z" id="199" stroke="#BFBFBF" fill="#000000" opacity="0"/><path d="M-0.608015 0.0844057-0.526663 0.110078-0.521519 0.194721-0.601985 0.168499Z" id="200" stroke="#BFBFBF" fill="#000000" opacity="0"/><path d="M-0.51224 0.114704-0.429212 0.140905-0.424992 0.226102-0.507096 0.199347Z" id="201" stroke="#BFBFBF" fill="#000000" opacity="0"/><path d="M-0.414492 0.145627-0.329735 0.172373-0.326478 0.258129-0.410272 0.230823Z" id="202" stroke="#BFBFBF" fill="#000000" opacity="0"/><path d="M-0.314709 0.177193-0.228168 0.204503-0.225916 0.290821-0.311452 0.262948Z" id="203" stroke="#BFBFBF" fill="#000000" opacity="0"/><path d="M-0.212826 0.209423-0.124445 0.237314-0.123241 0.324201-0.210574 0.295742Z" id="204" stroke="#BFBFBF" fill="#000000" opacity="0"/><path d="M-0.108777 0.242339-0.0184963 0.270829-0.0183864 0.358289-0.107573 0.329226Z" id="205" stroke="#BFBFBF" fill="#000000" opacity="0"/><path d="M-0.00249201 0.275962 0.0897503 0.305071 0.0887185 0.393109-0.00238219 0.363423Z" id="206" stroke="#BFBFBF" fill="#000000" opacity="0"/><path d="M0.106102 0.310316 0.20037 0.340064 0.198147 0.428684 0.10507 0.398354Z" id="207" stroke="#BFBFBF" fill="#000000" opacity="0"/><path d="M-0.693869 0.152886-0.614993 0.178589-0.6091 0.260767-0.687144 0.234551Z" id="208" stroke="#BFBFBF" fill="#000000" opacity="0"/><path d="M-0.60101 0.183216-0.520544 0.209437-0.515518 0.292132-0.595117 0.265394Z" id="209" stroke="#BFBFBF" fill="#000000" opacity="0"/><path d="M-0.506279 0.214158-0.424174 0.240913-0.420052 0.324129-0.501253 0.296852Z" id="210" stroke="#BFBFBF" fill="#000000" opacity="0"/><path d="M-0.409619 0.245729-0.325825 0.273035-0.322645 0.356777-0.405497 0.328945Z" id="211" stroke="#BFBFBF" fill="#000000" opacity="0"/><path d="M-0.310971 0.27795-0.225435 0.305824-0.223236 0.390095-0.30779 0.361692Z" id="212" stroke="#BFBFBF" fill="#000000" opacity="0"/><path d="M-0.210272 0.310841-0.122939 0.3393-0.121764 0.424105-0.208073 0.395112Z" id="213" stroke="#BFBFBF" fill="#000000" opacity="0"/><path d="M-0.107458 0.344423-0.0182708 0.373486-0.0181636 0.458828-0.106283 0.429228Z" id="214" stroke="#BFBFBF" fill="#000000" opacity="0"/><path d="M-0.00246132 0.378718 0.0886394 0.408404 0.0876329 0.494287-0.00235416 0.46406Z" id="215" stroke="#BFBFBF" fill="#000000" opacity="0"/><path d="M0.104788 0.413748 0.197865 0.444079 0.195696 0.530507 0.103781 0.499631Z" id="216" stroke="#BFBFBF" fill="#000000" opacity="0"/><path d="M-0.686042 0.248844-0.607998 0.27506-0.602238 0.355386-0.679467 0.328687Z" id="217" stroke="#BFBFBF" fill="#000000" opacity="0"/><path d="M-0.594164 0.279775-0.514565 0.306514-0.509653 0.387327-0.588404 0.360102Z" id="218" stroke="#BFBFBF" fill="#000000" opacity="0"/><path d="M-0.500454 0.311323-0.419253 0.3386-0.415226 0.419904-0.495543 0.392137Z" id="219" stroke="#BFBFBF" fill="#000000" opacity="0"/><path d="M-0.404859 0.343506-0.322007 0.371337-0.3189 0.453135-0.400832 0.42481Z" id="220" stroke="#BFBFBF" fill="#000000" opacity="0"/><path d="M-0.30732 0.376342-0.222766 0.404745-0.220619 0.487041-0.304214 0.458141Z" id="221" stroke="#BFBFBF" fill="#000000" opacity="0"/><path d="M-0.207778 0.409854-0.121469 0.438846-0.120322 0.521642-0.205631 0.492149Z" id="222" stroke="#BFBFBF" fill="#000000" opacity="0"/><path d="M-0.10617 0.444061-0.0180508 0.473661-0.0179462 0.556961-0.105023 0.526857Z" id="223" stroke="#BFBFBF" fill="#000000" opacity="0"/><path d="M-0.00243137 0.478985 0.0875557 0.509212 0.0865735 0.593019-0.00232678 0.562285Z" id="224" stroke="#BFBFBF" fill="#000000" opacity="0"/><path d="M0.103506 0.514649 0.195421 0.545524 0.193305 0.62984 0.102524 0.598456Z" id="225" stroke="#BFBFBF" fill="#000000" opacity="0"/><path d="M-0.67839 0.342662-0.601161 0.369361-0.59553 0.447898-0.67196 0.420743Z" id="226" stroke="#BFBFBF" fill="#000000" opacity="0"/><path d="M-0.587472 0.37416-0.508721 0.401385-0.503921 0.480381-0.58184 0.452697Z" id="227" stroke="#BFBFBF" fill="#000000" opacity="0"/><path d="M-0.494762 0.406278-0.414445 0.434045-0.410509 0.513503-0.489962 0.485274Z" id="228" stroke="#BFBFBF" fill="#000000" opacity="0"/><path d="M-0.400209 0.439036-0.318277 0.467361-0.315242 0.547283-0.396273 0.518493Z" id="229" stroke="#BFBFBF" fill="#000000" opacity="0"/><path d="M-0.303755 0.472451-0.22016 0.501352-0.218063 0.581741-0.300719 0.552373Z" id="230" stroke="#BFBFBF" fill="#000000" opacity="0"/><path d="M-0.205343 0.506545-0.120034 0.536038-0.118914 0.616897-0.203246 0.586934Z" id="231" stroke="#BFBFBF" fill="#000000" opacity="0"/><path d="M-0.104913 0.541339-0.017836 0.571443-0.0177338 0.652773-0.103793 0.622197Z" id="232" stroke="#BFBFBF" fill="#000000" opacity="0"/><path d="M-0.00240215 0.576853 0.0864981 0.607587 0.0855394 0.689392-0.00230003 0.658183Z" id="233" stroke="#BFBFBF" fill="#000000" opacity="0"/><path d="M0.102255 0.61311 0.193036 0.644495 0.190972 0.726776 0.101296 0.694915Z" id="234" stroke="#BFBFBF" fill="#000000" opacity="0"/><path d="M-0.670907 0.43441-0.594476 0.461565-0.588969 0.538372-0.664617 0.510787Z" id="235" stroke="#BFBFBF" fill="#000000" opacity="0"/><path d="M-0.580929 0.466442-0.503009 0.494126-0.498315 0.571365-0.575421 0.543249Z" id="236" stroke="#BFBFBF" fill="#000000" opacity="0"/><path d="M-0.489198 0.499098-0.409746 0.527327-0.405899 0.604999-0.484504 0.576336Z" id="237" stroke="#BFBFBF" fill="#000000" opacity="0"/><path d="M-0.395664 0.532396-0.314633 0.561186-0.311667 0.639295-0.391816 0.610069Z" id="238" stroke="#BFBFBF" fill="#000000" opacity="0"/><path d="M-0.300271 0.566356-0.217614 0.595723-0.215565 0.674271-0.297304 0.644465Z" id="239" stroke="#BFBFBF" fill="#000000" opacity="0"/><path d="M-0.202964 0.600997-0.118632 0.63096-0.117538 0.709947-0.200915 0.679545Z" id="240" stroke="#BFBFBF" fill="#000000" opacity="0"/><path d="M-0.103685 0.63634-0.0176262 0.666916-0.0175265 0.746346-0.102591 0.715328Z" id="241" stroke="#BFBFBF" fill="#000000" opacity="0"/><path d="M-0.00237362 0.672407 0.0854658 0.703616 0.0845298 0.783489-0.00227389 0.751837Z" id="242" stroke="#BFBFBF" fill="#000000" opacity="0"/><path d="M0.101034 0.70922 0.19071 0.741081 0.188694 0.8214 0.100098 0.789093Z" id="243" stroke="#BFBFBF" fill="#000000" opacity="0"/></g></svg>