<svg viewBox="0 0 51.73 23.29" xmlns="http://www.w3.org/2000/svg" xmlns:xlink="http://www.w3.org/1999/xlink" overflow="hidden"><defs></defs><g id="图层_2"><g id="图层_1-2"><path d="M11.58 11.72 8.62 22.74 0.55 22.74 0.55 14.67 11.58 11.72" fill="#1B1B1B" fill-rule="evenodd"/><path d="M11.58 11.72 8.62 22.74 0.55 22.74 0.55 14.67 11.58 11.72" stroke="#000000" stroke-width="1.1" stroke-linecap="round" stroke-linejoin="round" fill="none"/><path d="M11.58 11.72 0.55 14.67 0.55 8.76 11.58 11.72" fill="#1B1B1B" fill-rule="evenodd"/><path d="M11.58 11.72 0.55 14.67 0.55 8.76 11.58 11.72" stroke="#000000" stroke-width="1.1" stroke-linecap="round" stroke-linejoin="round" fill="none"/><path d="M11.58 11.72 0.55 8.76 0.55 0.69 8.62 0.69 11.58 11.72" fill="#1B1B1B" fill-rule="evenodd"/><path d="M11.58 11.72 0.55 8.76 0.55 0.69 8.62 0.69 11.58 11.72" stroke="#000000" stroke-width="1.1" stroke-linecap="round" stroke-linejoin="round" fill="none"/><path d="M11.58 11.72 8.62 0.69 14.53 0.69 11.58 11.72" fill="#1B1B1B" fill-rule="evenodd"/><path d="M11.58 11.72 8.62 0.69 14.53 0.69 11.58 11.72" stroke="#000000" stroke-width="1.1" stroke-linecap="round" stroke-linejoin="round" fill="none"/><path d="M11.58 11.72 14.53 0.69 22.6 0.69 22.6 8.76 11.58 11.72" fill="#FFFFFF" fill-rule="evenodd"/><path d="M11.58 11.72 14.53 0.69 22.6 0.69 22.6 8.76 11.58 11.72" stroke="#000000" stroke-width="1.1" stroke-linecap="round" stroke-linejoin="round" fill="none"/><path d="M11.58 11.72 22.6 8.76 22.6 14.67 11.58 11.72" fill="#1B1B1B" fill-rule="evenodd"/><path d="M11.58 11.72 22.6 8.76 22.6 14.67 11.58 11.72" stroke="#000000" stroke-width="1.1" stroke-linecap="round" stroke-linejoin="round" fill="none"/><path d="M11.58 11.72 22.6 14.67 22.6 22.74 14.53 22.74 11.58 11.72" fill="#FFFFFF" fill-rule="evenodd"/><path d="M11.58 11.72 22.6 14.67 22.6 22.74 14.53 22.74 11.58 11.72" stroke="#000000" stroke-width="1.1" stroke-linecap="round" stroke-linejoin="round" fill="none"/><path d="M11.58 11.72 14.53 22.74 8.62 22.74 11.58 11.72" fill="#FFFFFF" fill-rule="evenodd"/><path d="M11.58 11.72 14.53 22.74 8.62 22.74 11.58 11.72" stroke="#000000" stroke-width="1.1" stroke-linecap="round" stroke-linejoin="round" fill="none"/><path d="M40.15 11.57 43.1 22.6 37.2 22.6 40.15 11.57" fill="#FFFFFF" fill-rule="evenodd"/><path d="M40.15 11.57 43.1 22.6 37.2 22.6 40.15 11.57" stroke="#000000" stroke-width="1.1" stroke-linecap="round" stroke-linejoin="round" fill="none"/><path d="M40.15 11.57 37.2 22.6 29.13 22.6 29.13 14.53 40.15 11.57" fill="#FFFFFF" fill-rule="evenodd"/><path d="M40.15 11.57 37.2 22.6 29.13 22.6 29.13 14.53 40.15 11.57" stroke="#000000" stroke-width="1.1" stroke-linecap="round" stroke-linejoin="round" fill="none"/><path d="M40.15 11.57 29.13 14.53 29.13 8.62 40.15 11.57" fill="#1B1B1B" fill-rule="evenodd"/><path d="M40.15 11.57 29.13 14.53 29.13 8.62 40.15 11.57" stroke="#000000" stroke-width="1.1" stroke-linecap="round" stroke-linejoin="round" fill="none"/><path d="M40.15 11.57 29.13 8.62 29.13 0.55 37.2 0.55 40.15 11.57" fill="#1B1B1B" fill-rule="evenodd"/><path d="M40.15 11.57 29.13 8.62 29.13 0.55 37.2 0.55 40.15 11.57" stroke="#000000" stroke-width="1.1" stroke-linecap="round" stroke-linejoin="round" fill="none"/><path d="M40.15 11.57 37.2 0.55 43.1 0.55 40.15 11.57" fill="#FFFFFF" fill-rule="evenodd"/><path d="M40.15 11.57 37.2 0.55 43.1 0.55 40.15 11.57" stroke="#000000" stroke-width="1.1" stroke-linecap="round" stroke-linejoin="round" fill="none"/><path d="M40.15 11.57 43.1 0.55 51.18 0.55 51.18 8.62 40.15 11.57" fill="#FFFFFF" fill-rule="evenodd"/><path d="M40.15 11.57 43.1 0.55 51.18 0.55 51.18 8.62 40.15 11.57" stroke="#000000" stroke-width="1.1" stroke-linecap="round" stroke-linejoin="round" fill="none"/><path d="M40.15 11.57 51.18 8.62 51.18 14.53 40.15 11.57" fill="#FFFFFF" fill-rule="evenodd"/><path d="M40.15 11.57 51.18 8.62 51.18 14.53 40.15 11.57" stroke="#000000" stroke-width="1.1" stroke-linecap="round" stroke-linejoin="round" fill="none"/><path d="M40.15 11.57 51.18 14.53 51.18 22.6 43.1 22.6 40.15 11.57" fill="#1B1B1B" fill-rule="evenodd"/><path d="M40.15 11.57 51.18 14.53 51.18 22.6 43.1 22.6 40.15 11.57" stroke="#000000" stroke-width="1.1" stroke-linecap="round" stroke-linejoin="round" fill="none"/></g></g></svg>