<svg viewBox="0 0 81.38 81.38" xmlns="http://www.w3.org/2000/svg" xmlns:xlink="http://www.w3.org/1999/xlink" overflow="hidden"><defs></defs><g id="Layer_2"><g id="图层_1"><path d="M3.56 3.56 77.83 3.56 77.83 77.83 3.56 77.83 3.56 3.56Z" stroke="#000000" stroke-width="7.11" stroke-linejoin="round"/><path d="M2.67 2.67 19.46 2.67 19.46 19.46 2.67 19.46 2.67 2.67Z" fill="#404040"/><path d="M22.42 2.67 39.21 2.67 39.21 19.46 22.42 19.46 22.42 2.67Z" fill="#FEFE00"/><path d="M42.17 2.67 58.96 2.67 58.96 19.46 42.17 19.46 42.17 2.67Z" fill="#FEFE00"/><path d="M61.93 2.67 78.72 2.67 78.72 19.46 61.93 19.46 61.93 2.67Z" fill="#404040"/><path d="M2.67 22.42 19.46 22.42 19.46 39.21 2.67 39.21 2.67 22.42Z" fill="#FEFE00"/><path d="M22.42 22.42 39.21 22.42 39.21 39.21 22.42 39.21 22.42 22.42Z" fill="#FEFE00"/><path d="M42.17 22.42 58.96 22.42 58.96 39.21 42.17 39.21 42.17 22.42Z" fill="#FEFE00"/><path d="M61.93 22.42 78.72 22.42 78.72 39.21 61.93 39.21 61.93 22.42Z" fill="#FEFE00"/><path d="M2.67 42.17 19.46 42.17 19.46 58.96 2.67 58.96 2.67 42.17Z" fill="#FEFE00"/><path d="M22.42 42.17 39.21 42.17 39.21 58.96 22.42 58.96 22.42 42.17Z" fill="#FEFE00"/><path d="M42.17 42.17 58.96 42.17 58.96 58.96 42.17 58.96 42.17 42.17Z" fill="#FEFE00"/><path d="M61.93 42.17 78.72 42.17 78.72 58.96 61.93 58.96 61.93 42.17Z" fill="#FEFE00"/><path d="M2.67 61.93 19.46 61.93 19.46 78.72 2.67 78.72 2.67 61.93Z" fill="#404040"/><path d="M22.42 61.93 39.21 61.93 39.21 78.72 22.42 78.72 22.42 61.93Z" fill="#404040"/><path d="M42.17 61.93 58.96 61.93 58.96 78.72 42.17 78.72 42.17 61.93Z" fill="#404040"/><path d="M61.93 61.93 78.72 61.93 78.72 78.72 61.93 78.72 61.93 61.93Z" fill="#404040"/></g></g></svg>