<svg viewBox="0 0 128 189" xmlns="http://www.w3.org/2000/svg" xmlns:xlink="http://www.w3.org/1999/xlink" id="图层_1" overflow="hidden"><defs></defs><path d="M38.78 24.13 89.25 24.13 64.02 9.55 38.78 24.13Z" fill="#404040"/><path d="M89.25 24.13 89.25 53.3 114.5 38.72 89.25 24.13Z" fill="#404040"/><path d="M13.54 67.88 13.54 97.05 38.78 111.64 13.54 67.88Z" fill="#404040"/><path d="M13.54 38.72 13.54 67.88 38.78 53.3 13.54 38.72Z" fill="#404040"/><path d="M13.54 67.88 38.78 111.64 64.02 97.05 38.78 53.3 13.54 67.88Z" fill="#404040"/><path d="M13.54 38.72 38.78 53.3 38.78 24.13 13.54 38.72Z" fill="#404040"/><rect x="38.78" y="24.13" width="50.48" height="29.17" fill="#404040"/><path d="M38.78 53.3 64.02 97.05 64.02 67.88 38.78 53.3Z" fill="#404040"/><path d="M38.78 53.3 64.02 67.88 89.25 53.3 38.78 53.3Z" fill="#404040"/><path d="M38.78 111.64 64.02 126.22 64.02 97.05 38.78 111.64Z" fill="#404040"/><path d="M64.02 97.05 64.02 126.22 89.25 111.64 64.02 97.05Z" fill="#404040"/><path d="M64.02 67.88 64.02 97.05 89.25 53.3 64.02 67.88Z" fill="#404040"/><path d="M89.25 53.3 64.02 97.05 89.25 111.64 114.5 67.88 89.25 53.3Z" fill="#404040"/><path d="M114.5 67.88 89.25 111.64 114.5 97.05 114.5 67.88Z" fill="#404040"/><path d="M89.25 53.3 114.5 67.88 114.5 38.72 89.25 53.3Z" fill="#404040"/><path d="M38.78 24.13 64.02 9.55 89.25 24.13" stroke="#000000" stroke-width="2.02" stroke-linejoin="round" fill="none"/><line x1="13.54" y1="38.72" x2="38.78" y2="24.13" stroke="#000000" stroke-width="2.02" stroke-linejoin="round" fill="none"/><line x1="89.26" y1="24.13" x2="114.5" y2="38.72" stroke="#000000" stroke-width="2.02" stroke-linejoin="round" fill="none"/><rect x="38.78" y="24.13" width="50.48" height="29.17" stroke="#000000" stroke-width="2.02" stroke-linejoin="round" fill="none"/><line x1="38.78" y1="53.3" x2="64.02" y2="67.88" stroke="#000000" stroke-width="2.02" stroke-linejoin="round" fill="none"/><path d="M13.54 67.88 13.54 38.72 38.78 53.3" stroke="#000000" stroke-width="2.02" stroke-linejoin="round" fill="none"/><line x1="64.02" y1="126.22" x2="38.78" y2="111.64" stroke="#000000" stroke-width="2.02" stroke-linejoin="round" fill="none"/><path d="M38.78 111.64 13.54 97.05 13.54 67.88" stroke="#000000" stroke-width="2.02" stroke-linejoin="round" fill="none"/><path d="M38.78 53.3 64.02 97.05 38.78 111.64 13.54 67.88 38.78 53.3Z" stroke="#000000" stroke-width="2.02" stroke-linejoin="round" fill="none"/><path d="M89.25 53.3 114.5 38.72 114.5 67.88" stroke="#000000" stroke-width="2.02" stroke-linejoin="round" fill="none"/><path d="M64.02 97.05 64.02 67.88 89.25 53.3" stroke="#000000" stroke-width="2.02" stroke-linejoin="round" fill="none"/><path d="M114.5 67.88 114.5 97.05 89.25 111.64" stroke="#000000" stroke-width="2.02" stroke-linejoin="round" fill="none"/><path d="M89.25 111.64 64.02 126.22 64.02 97.05" stroke="#000000" stroke-width="2.02" stroke-linejoin="round" fill="none"/><path d="M64.02 97.05 89.25 53.3 114.5 67.88 89.25 111.64 64.02 97.05Z" stroke="#000000" stroke-width="2.02" stroke-linejoin="round" fill="none"/><path d="M13.52 97.09 13.52 126.26 38.77 111.67 13.52 97.09Z" stroke="#000000" stroke-width="2.02" stroke-linejoin="round" fill="#FFFF00"/><path d="M64.03 126.26 38.77 111.67 64.03 155.42 64.03 126.26Z" stroke="#000000" stroke-width="2.02" stroke-linejoin="round" fill="#404040"/><path d="M13.52 155.42 38.77 170.01 13.52 126.26 13.52 155.42Z" stroke="#000000" stroke-width="2.02" stroke-linejoin="round" fill="#FFFF00"/><path d="M64.03 184.59 64.03 155.42 38.77 170.01 64.03 184.59Z" stroke="#000000" stroke-width="2.02" stroke-linejoin="round" fill="#FFFF00"/><path d="M64.03 155.42 38.77 111.67 13.52 126.26 38.77 170.01 64.03 155.42Z" stroke="#000000" stroke-width="2.02" stroke-linejoin="round" fill="#FFFF00"/></svg>