<svg width="129.5" height="129.5" viewBox="0 0 129.5 129.5" xmlns="http://www.w3.org/2000/svg" xmlns:xlink="http://www.w3.org/1999/xlink" overflow="visible"><defs></defs><path d="M96.7 64.8 80.8 80.8 80.7 48.8Z" fill="#404040"/><path d="M80.4 47.9C80.8 47.8 81.2 47.8 81.4 48.1L97.4 64.1C97.8 64.5 97.8 65.1 97.4 65.4L81.5 81.4C81.2 81.7 80.8 81.8 80.5 81.6 80.2 81.4 79.9 81.1 79.9 80.7L79.8 48.7C79.8 48.7 79.8 48.7 79.8 48.7 79.8 48.4 80 48.1 80.4 47.9ZM95.4 64.8 81.7 51.1 81.8 78.6 95.4 64.8Z"/><path d="M80.8 80.8 64.8 96.7 48.8 80.7Z" fill="#404040"/><path d="M47.9 80.4C48 80 48.4 79.8 48.8 79.8L80.8 79.9C81.2 79.9 81.5 80.1 81.7 80.5 81.8 80.9 81.8 81.3 81.5 81.5L65.5 97.4C65.1 97.8 64.5 97.8 64.2 97.4L48.2 81.4C48 81.2 47.9 81 47.9 80.7 47.9 80.6 47.9 80.5 47.9 80.4ZM78.5 81.7 51 81.6 64.7 95.3 78.5 81.7Z"/><path d="M48.8 80.7 32.9 64.8 48.9 48.9Z" fill="#404040"/><path d="M31.9 64.8C31.9 64.6 32 64.3 32.2 64.1L48.2 48.2C48.5 47.9 48.9 47.9 49.2 48 49.5 48.1 49.8 48.5 49.8 48.9 49.8 48.9 49.8 48.9 49.8 48.9L49.7 80.7C49.7 81.1 49.5 81.4 49.1 81.6 48.7 81.7 48.3 81.7 48.1 81.4L32.1 65.4C32 65.3 31.9 65 31.9 64.8 31.9 64.8 31.9 64.8 31.9 64.8ZM48 51.1 34.2 64.8 47.9 78.5 48 51.1Z"/><path d="M64.8 32.9 48.9 48.9 80.7 48.8Z" fill="#404040"/><path d="M48.2 48.2 64.1 32.2C64.3 32 64.5 31.9 64.8 31.9 65 31.9 65.3 32 65.5 32.2L81.5 48.2C81.8 48.5 81.8 48.9 81.7 49.2 81.6 49.6 81.2 49.8 80.8 49.8L49 49.9C48.6 49.9 48.3 49.7 48.1 49.3 48.1 49.2 48 49.1 48 48.9 48 48.6 48.1 48.4 48.2 48.2ZM64.8 34.2 51.1 47.9 78.4 47.8 64.8 34.2Z"/><path d="M80.7 48.8 80.8 80.8 48.8 80.7 48.9 48.9Z" fill="#FF0000"/><path d="M47.9 80.7 48 48.9C48 48.4 48.4 48 48.9 48L80.7 47.9C80.9 47.9 81.2 48 81.4 48.2 81.6 48.4 81.7 48.6 81.7 48.9L81.8 80.9C81.8 80.9 81.8 80.9 81.8 80.9 81.8 81.1 81.7 81.4 81.5 81.6 81.3 81.8 81.1 81.9 80.8 81.9L48.8 81.8C48.6 81.8 48.3 81.7 48.1 81.5 48 81.2 47.9 81 47.9 80.7 47.9 80.7 47.9 80.7 47.9 80.7ZM79.8 49.8 49.8 49.9 49.7 79.9 79.8 80 79.8 49.8Z"/><path d="M128.6 96.7 112.7 112.7 112.6 80.7Z" fill="#FFA100"/><path d="M112.3 79.9C112.7 79.8 113.1 79.8 113.3 80.1L129.3 96.1C129.7 96.5 129.7 97.1 129.3 97.4L113.4 113.4C113.1 113.7 112.7 113.8 112.4 113.6 112.1 113.4 111.8 113.1 111.8 112.7L111.7 80.7C111.7 80.7 111.7 80.7 111.7 80.7 111.7 80.3 111.9 80 112.3 79.9ZM127.3 96.7 113.6 83 113.7 110.5 127.3 96.7Z"/><path d="M112.7 112.7 96.7 128.6 80.7 112.6Z" fill="#FFA100"/><path d="M79.9 112.3C80 111.9 80.4 111.7 80.8 111.7L112.8 111.8C113.2 111.8 113.5 112 113.7 112.4 113.8 112.8 113.8 113.2 113.5 113.4L97.5 129.3C97.1 129.7 96.5 129.7 96.2 129.3L80.2 113.3C80 113.1 79.9 112.9 79.9 112.6 79.8 112.5 79.8 112.4 79.9 112.3ZM110.5 113.7 83 113.6 96.7 127.3 110.5 113.7Z"/><path d="M80.7 112.6 64.8 96.7 80.8 80.8Z" fill="#404040"/><path d="M63.8 96.7C63.8 96.5 63.9 96.2 64.1 96L80.1 80.1C80.4 79.8 80.8 79.8 81.1 79.9 81.4 80 81.7 80.4 81.7 80.8 81.7 80.8 81.7 80.8 81.7 80.8L81.6 112.6C81.6 113 81.4 113.3 81 113.5 80.6 113.6 80.2 113.6 80 113.3L64 97.3C63.9 97.2 63.8 96.9 63.8 96.7 63.8 96.7 63.8 96.7 63.8 96.7ZM79.9 83.1 66.1 96.7 79.8 110.4 79.9 83.1Z"/><path d="M96.7 64.8 80.8 80.8 112.6 80.7Z" fill="#404040"/><path d="M80.1 80.1 96 64.1C96.2 63.9 96.4 63.8 96.7 63.8 96.9 63.8 97.2 63.9 97.4 64.1L113.4 80.1C113.7 80.4 113.7 80.8 113.6 81.1 113.5 81.5 113.1 81.7 112.7 81.7L80.9 81.8C80.5 81.8 80.2 81.6 80 81.2 80 81.1 79.9 81 79.9 80.8 79.9 80.6 80 80.3 80.1 80.1ZM96.7 66.1 83.1 79.9 110.4 79.8 96.7 66.1Z"/><path d="M112.6 80.7 112.7 112.7 80.7 112.6 80.8 80.8Z" fill="#00D800"/><path d="M79.8 112.6 79.9 80.8C79.9 80.3 80.3 79.9 80.8 79.9L112.6 79.8C112.8 79.8 113.1 79.9 113.3 80.1 113.5 80.3 113.6 80.5 113.6 80.8L113.7 112.8C113.7 112.8 113.7 112.8 113.7 112.8 113.7 113 113.6 113.3 113.4 113.5 113.2 113.7 113 113.8 112.7 113.8L80.7 113.7C80.5 113.7 80.2 113.6 80 113.4 79.9 113.1 79.8 112.9 79.8 112.6 79.8 112.6 79.8 112.6 79.8 112.6ZM111.7 81.7 81.7 81.8 81.6 111.8 111.7 111.9 111.7 81.7Z"/><path d="M128.6 32.9 112.7 48.9 112.6 16.9Z" fill="#0000F2"/><path d="M112.3 16C112.7 15.9 113.1 15.9 113.3 16.2L129.3 32.2C129.7 32.6 129.7 33.2 129.3 33.5L113.4 49.5C113.1 49.8 112.7 49.9 112.4 49.7 112.1 49.5 111.8 49.2 111.8 48.8L111.7 16.8C111.7 16.8 111.7 16.8 111.7 16.8 111.7 16.5 111.9 16.2 112.3 16ZM127.3 32.9 113.6 19.2 113.7 46.7 127.3 32.9Z"/><path d="M112.7 48.9 96.7 64.8 80.7 48.8Z" fill="#404040"/><path d="M79.9 48.5C80 48.1 80.4 47.9 80.8 47.9L112.8 48C113.2 48 113.5 48.2 113.7 48.6 113.8 49 113.8 49.4 113.5 49.6L97.5 65.5C97.1 65.9 96.5 65.9 96.2 65.5L80.2 49.5C80 49.3 79.9 49.1 79.9 48.8 79.8 48.7 79.8 48.6 79.9 48.5ZM110.5 49.8 83 49.8 96.7 63.5 110.5 49.8Z"/><path d="M80.7 48.8 64.8 32.9 80.8 17Z" fill="#404040"/><path d="M63.8 32.9C63.8 32.7 63.9 32.4 64.1 32.2L80.1 16.3C80.4 16 80.8 16 81.1 16.1 81.4 16.2 81.7 16.6 81.7 17 81.7 17 81.7 17 81.7 17L81.6 48.8C81.6 49.2 81.4 49.5 81 49.7 80.6 49.8 80.2 49.8 80 49.5L64 33.5C63.9 33.3 63.8 33.1 63.8 32.9 63.8 32.9 63.8 32.9 63.8 32.9ZM79.9 19.2 66.1 32.9 79.8 46.6 79.9 19.2Z"/><path d="M96.7 0.9 80.8 17 112.6 16.9Z" fill="#0000F2"/><path d="M80.1 16.3 96 0.3C96.2 0.1 96.4 0 96.7 0 96.9 0 97.2 0.1 97.4 0.3L113.4 16.3C113.7 16.6 113.7 17 113.6 17.3 113.5 17.7 113.1 17.9 112.7 17.9L80.9 18C80.5 18 80.2 17.8 80 17.4 80 17.3 79.9 17.2 79.9 17 79.9 16.7 80 16.5 80.1 16.3ZM96.7 2.3 83.1 16 110.4 15.9 96.7 2.3Z"/><path d="M112.6 16.9 112.7 48.9 80.7 48.8 80.8 17Z" fill="#FFFF00"/><path d="M79.8 48.8 79.9 17C79.9 16.5 80.3 16.1 80.8 16.1L112.6 16C112.8 16 113.1 16.1 113.3 16.3 113.5 16.5 113.6 16.7 113.6 17L113.7 49C113.7 49 113.7 49 113.7 49 113.7 49.2 113.6 49.5 113.4 49.7 113.2 49.9 113 50 112.7 50L80.7 49.9C80.5 49.9 80.2 49.8 80 49.6 79.9 49.3 79.8 49.1 79.8 48.8 79.8 48.8 79.8 48.8 79.8 48.8ZM111.7 17.8 81.7 17.9 81.6 47.9 111.7 48 111.7 17.8Z"/><path d="M64.8 96.7 48.9 112.7 48.8 80.7Z" fill="#404040"/><path d="M48.5 79.9C48.9 79.8 49.3 79.8 49.5 80.1L65.5 96.1C65.9 96.5 65.9 97.1 65.5 97.4L49.6 113.4C49.3 113.7 48.9 113.8 48.6 113.6 48.3 113.4 48 113.1 48 112.7L47.9 80.7C47.9 80.7 47.9 80.7 47.9 80.7 47.9 80.3 48.1 80 48.5 79.9ZM63.4 96.7 49.8 83 49.9 110.5 63.4 96.7Z"/><path d="M48.9 112.7 32.9 128.6 16.9 112.6Z" fill="#00D800"/><path d="M16 112.3C16.1 111.9 16.5 111.7 16.9 111.7L48.9 111.8C49.3 111.8 49.6 112 49.8 112.4 49.9 112.8 49.9 113.2 49.6 113.4L33.6 129.3C33.2 129.7 32.6 129.7 32.3 129.3L16.3 113.3C16.1 113.1 16 112.9 16 112.6 16 112.5 16 112.4 16 112.3ZM46.6 113.7 19.1 113.6 32.8 127.3 46.6 113.7Z"/><path d="M16.9 112.6 0.9 96.7 17 80.8Z" fill="#00D800"/><path d="M0 96.7C0 96.5 0.1 96.2 0.3 96L16.3 80.1C16.6 79.8 17 79.8 17.3 79.9 17.6 80 17.9 80.4 17.9 80.8 17.9 80.8 17.9 80.8 17.9 80.8L17.8 112.6C17.8 113 17.6 113.3 17.2 113.5 16.8 113.6 16.4 113.6 16.2 113.3L0.2 97.3C0.1 97.2 0 96.9 0 96.7 0 96.7 0 96.7 0 96.7ZM16 83.1 2.3 96.7 16 110.4 16 83.1Z"/><path d="M32.9 64.8 17 80.8 48.8 80.7Z" fill="#404040"/><path d="M16.3 80.1 32.2 64.1C32.4 63.9 32.6 63.8 32.9 63.8 33.1 63.8 33.4 63.9 33.6 64.1L49.6 80.1C49.9 80.4 50 80.8 49.8 81.1 49.7 81.5 49.3 81.7 48.9 81.7L17 81.7C16.6 81.7 16.3 81.5 16.1 81.1 16.1 81 16 80.9 16 80.7 16 80.6 16.1 80.3 16.3 80.1ZM32.9 66.1 19.2 79.9 46.5 79.8 32.9 66.1Z"/><path d="M48.8 80.7 48.9 112.7 16.9 112.6 17 80.8Z" fill="#0000F2"/><path d="M16 112.6 16 80.8C16 80.3 16.4 79.9 16.9 79.9L48.7 79.8C48.9 79.8 49.2 79.9 49.4 80.1 49.6 80.3 49.7 80.5 49.7 80.8L49.8 112.8C49.8 112.8 49.8 112.8 49.8 112.8 49.8 113 49.7 113.3 49.5 113.5 49.3 113.7 49.1 113.8 48.8 113.8L16.8 113.7C16.6 113.7 16.3 113.6 16.1 113.4 16.1 113.1 16 112.9 16 112.6 16 112.6 16 112.6 16 112.6ZM47.9 81.7 17.9 81.8 17.8 111.8 47.9 111.9 47.9 81.7Z"/><path d="M64.8 32.9 48.9 48.9 48.8 16.9Z" fill="#404040"/><path d="M48.5 16.1C48.9 16 49.3 16 49.5 16.3L65.5 32.3C65.9 32.7 65.9 33.3 65.5 33.6L49.6 49.6C49.3 49.9 48.9 50 48.6 49.8 48.3 49.6 48 49.3 48 48.9L47.9 16.9C47.9 16.9 47.9 16.9 47.9 16.9 47.9 16.6 48.1 16.2 48.5 16.1ZM63.4 32.9 49.8 19.2 49.9 46.7 63.4 32.9Z"/><path d="M48.9 48.9 32.9 64.8 16.9 48.9Z" fill="#404040"/><path d="M16 48.5C16.1 48.1 16.5 47.9 16.9 47.9L48.9 48C49.3 48 49.6 48.2 49.8 48.6 49.9 49 49.9 49.4 49.6 49.6L33.6 65.5C33.2 65.9 32.6 65.9 32.3 65.5L16.3 49.5C16.1 49.3 16 49.1 16 48.8 16 48.7 16 48.6 16 48.5ZM46.6 49.9 19.1 49.8 32.8 63.5 46.6 49.9Z"/><path d="M16.9 48.9 0.9 32.9 17 17Z" fill="#FF0000"/><path d="M0.3 32.2 16.3 16.3C16.6 16 17 16 17.3 16.1 17.6 16.2 17.9 16.6 17.9 17 17.9 17 17.9 17 17.9 17L17.8 48.8C17.8 49.2 17.6 49.5 17.2 49.7 16.8 49.8 16.4 49.8 16.2 49.5L0.2 33.5C0.1 33.4 0 33.1 0 32.9 0 32.6 0.1 32.4 0.3 32.2ZM16 19.3 2.3 32.9 16 46.6 16 19.3Z"/><path d="M32.9 1 17 17 48.8 16.9Z" fill="#FF0000"/><path d="M16.3 16.4 32.2 0.4C32.4 0.1 32.6 0 32.9 0 33.1 0 33.4 0.1 33.6 0.3L49.6 16.3C49.9 16.6 50 17 49.8 17.3 49.7 17.7 49.3 17.9 48.9 17.9L17 18C16.6 18 16.3 17.8 16.1 17.4 16.1 17.3 16 17.2 16 17 16 16.8 16.1 16.5 16.3 16.4ZM32.9 2.3 19.2 16.1 46.6 16 32.9 2.3Z"/><path d="M48.8 16.9 48.9 48.9 16.9 48.9 17 17Z" fill="#FFA100"/><path d="M16 48.8 16 17C16 16.5 16.4 16.1 16.9 16.1L48.8 16C49 16 49.3 16.1 49.5 16.3 49.7 16.5 49.8 16.7 49.8 17L49.9 49C49.9 49 49.9 49 49.9 49 49.9 49.2 49.8 49.5 49.6 49.7 49.4 49.9 49.2 50 48.9 50L16.9 49.9C16.7 49.9 16.4 49.8 16.2 49.6 16.1 49.3 16 49.1 16 48.8 16 48.8 16 48.8 16 48.8ZM47.9 17.9 17.9 18 17.8 48 48 48 47.9 17.9Z"/><g><g><path d="M68.6 61.1C87.6 42.1 93.7 35.9 93.7 35.9" stroke="#A83DD9" stroke-width="2.1972" stroke-linecap="round" stroke-miterlimit="10" fill="none"/><g><path d="M71.6 62.8 65.2 64.5 66.9 58.1Z" fill="#A83DD9"/></g></g></g><g><g><path d="M37.7 37.7C56.7 56.7 62.9 62.8 62.9 62.8" stroke="#A83DD9" stroke-width="2.1972" stroke-linecap="round" stroke-miterlimit="10" fill="none"/><g><path d="M36.1 40.7 34.4 34.3 40.8 36Z" fill="#A83DD9"/></g></g></g><g><g><path d="M40.6 97.1C80.9 97.1 93.9 97.1 93.9 97.1" stroke="#A83DD9" stroke-width="2.1972" stroke-linecap="round" stroke-miterlimit="10" fill="none"/><g><path d="M41.6 100.4 35.9 97.1 41.6 93.8Z" fill="#A83DD9"/></g></g></g><g><g><path d="M89.7 32.2C35.5 48.8 36.2 93.1 36.2 93.1" stroke="#A83DD9" stroke-width="2.1972" stroke-linecap="round" stroke-miterlimit="10" fill="none"/><g><path d="M87.9 29.3 94.2 30.9 89.7 35.6Z" fill="#A83DD9"/></g></g></g><g><g><path d="M87.8 91.8C33 77.4 31.8 33.2 31.8 33.2" stroke="#A83DD9" stroke-width="2.1972" stroke-linecap="round" stroke-miterlimit="10" fill="none"/><g><path d="M87.6 88.4 92.4 92.9 86 94.8Z" fill="#A83DD9"/></g></g></g></svg>