<svg width="202" height="117.5" viewBox="0 0 202 117.5" xmlns="http://www.w3.org/2000/svg" xmlns:xlink="http://www.w3.org/1999/xlink" overflow="visible"><defs></defs><path d="M101 1 126 15.4 76 15.4Z" fill="#404040"/><path d="M126 16.4 76 16.4C75.5 16.4 75.2 16.1 75 15.7 74.8 15.3 75.1 14.8 75.5 14.6L100.5 0.2C100.8 -7.21645e-16 101.2 -7.21645e-16 101.5 0.2L126.5 14.6C126.9 14.8 127.1 15.3 127 15.7 126.9 16.1 126.5 16.4 126 16.4ZM79.7 14.4 122.2 14.4 101 2.2 79.7 14.4Z"/><path d="M51 29.9 76 15.4 76 44.3Z" fill="#404040"/><path d="M76 45.3C75.8 45.3 75.7 45.3 75.5 45.2L50.5 30.8C50.2 30.6 50 30.3 50 29.9 50 29.5 50.2 29.2 50.5 29L75.5 14.6C75.8 14.4 76.2 14.4 76.5 14.6 76.8 14.8 77 15.1 77 15.5L77 44.4C77 44.8 76.8 45.1 76.5 45.3 76.3 45.3 76.2 45.3 76 45.3ZM53 29.9 75 42.6 75 17.2 53 29.9Z"/><path d="M151 29.9 126 44.3 126 15.4Z" fill="#404040"/><path d="M126 45.3C125.8 45.3 125.7 45.3 125.5 45.2 125.2 45 125 44.7 125 44.3L125 15.4C125 15 125.2 14.7 125.5 14.5 125.8 14.3 126.2 14.3 126.5 14.5L151.5 28.9C151.8 29.1 152 29.4 152 29.8 152 30.2 151.8 30.5 151.5 30.7L126.5 45.1C126.3 45.3 126.2 45.3 126 45.3ZM127 17.2 127 42.6 149 29.9 127 17.2Z"/><path d="M101 58.7 76 44.3 126 44.3Z" fill="#404040"/><path d="M101 59.7C100.8 59.7 100.7 59.7 100.5 59.6L75.5 45.2C75.1 45 74.9 44.5 75 44.1 75.1 43.7 75.5 43.4 76 43.4L126 43.4C126.5 43.4 126.8 43.7 127 44.1 127.2 44.5 126.9 45 126.5 45.2L101.5 59.6C101.3 59.7 101.2 59.7 101 59.7ZM79.7 45.3 101 57.6 122.3 45.3 79.7 45.3Z"/><path d="M126 44.3 76 44.3 76 15.4 126 15.4Z" fill="#FFFF00"/><path d="M126 45.3 76 45.3C75.4 45.3 75 44.9 75 44.3L75 15.4C75 14.8 75.4 14.4 76 14.4L126 14.4C126.6 14.4 127 14.8 127 15.4L127 44.3C127 44.9 126.6 45.3 126 45.3ZM77 43.3 125 43.3 125 16.4 77 16.4 77 43.3Z"/><path d="M101 58.7 101 87.6 76 44.3Z" fill="#404040"/><path d="M101 88.6C100.6 88.6 100.3 88.4 100.1 88.1L75.1 44.8C74.9 44.4 74.9 43.9 75.3 43.6 75.7 43.3 76.1 43.2 76.5 43.4L101.5 57.8C101.8 58 102 58.3 102 58.7L102 87.6C102 88.1 101.7 88.4 101.3 88.6 101.2 88.6 101.1 88.6 101 88.6ZM78.7 47 100 83.9 100 59.3 78.7 47Z"/><path d="M51 29.9 76 44.3 51 58.7Z" fill="#404040"/><path d="M51 59.7C50.8 59.7 50.7 59.7 50.5 59.6 50.2 59.4 50 59.1 50 58.7L50 29.9C50 29.5 50.2 29.2 50.5 29 50.8 28.8 51.2 28.8 51.5 29L76.5 43.4C76.8 43.6 77 43.9 77 44.3 77 44.7 76.8 45 76.5 45.2L51.5 59.6C51.3 59.7 51.2 59.7 51 59.7ZM52 31.6 52 57 74 44.3 52 31.6Z"/><path d="M101 116.5 76 102 101 87.6Z" fill="#FF0000"/><path d="M101 117.5C100.8 117.5 100.7 117.5 100.5 117.4L75.5 103C75.2 102.8 75 102.5 75 102.1 75 101.7 75.2 101.4 75.5 101.2L100.5 86.8C100.8 86.6 101.2 86.6 101.5 86.8 101.8 87 102 87.3 102 87.7L102 116.6C102 117 101.8 117.3 101.5 117.5 101.3 117.4 101.2 117.5 101 117.5ZM78 102 100 114.7 100 89.3 78 102Z"/><path d="M51 87.6 51 58.7 76 102Z" fill="#FF0000"/><path d="M76 103C75.8 103 75.7 103 75.5 102.9L50.5 88.5C50.2 88.3 50 88 50 87.6L50 58.7C50 58.2 50.3 57.9 50.7 57.7 51.1 57.6 51.6 57.8 51.8 58.2L76.8 101.5C77 101.9 77 102.4 76.6 102.7 76.5 102.9 76.3 103 76 103ZM52 87 73.3 99.3 52 62.5 52 87Z"/><path d="M76 44.3 101 87.6 76 102 51 58.7Z" fill="#FF0000"/><path d="M76 103C75.9 103 75.8 103 75.7 103 75.4 102.9 75.2 102.8 75.1 102.5L50.1 59.2C50 59 50 58.7 50 58.5 50 58.3 50.2 58 50.5 57.9L75.5 43.5C76 43.2 76.6 43.4 76.9 43.9L101.9 87.2C102.2 87.7 102 88.3 101.5 88.6L76.5 103C76.3 103 76.2 103 76 103ZM52.4 59.1 76.4 100.7 99.7 87.3 75.7 45.7 52.4 59.1Z"/><path d="M151 29.9 151 58.7 126 44.3Z" fill="#404040"/><path d="M151 59.7C150.8 59.7 150.7 59.7 150.5 59.6L125.5 45.2C125.2 45 125 44.7 125 44.3 125 43.9 125.2 43.6 125.5 43.4L150.5 29C150.8 28.8 151.2 28.8 151.5 29 151.8 29.2 152 29.5 152 29.9L152 58.8C152 59.2 151.8 59.5 151.5 59.7 151.3 59.7 151.2 59.7 151 59.7ZM128 44.3 150 57 150 31.6 128 44.3Z"/><path d="M101 58.7 126 44.3 101 87.6Z" fill="#404040"/><path d="M101 88.6C100.9 88.6 100.8 88.6 100.7 88.6 100.3 88.5 100 88.1 100 87.6L100 58.7C100 58.3 100.2 58 100.5 57.8L125.5 43.4C125.9 43.2 126.4 43.2 126.7 43.6 127 44 127.1 44.4 126.9 44.8L101.9 88.1C101.7 88.4 101.4 88.6 101 88.6ZM102 59.3 102 83.9 123.3 47 102 59.3Z"/><path d="M151 87.6 126 102 151 58.7Z" fill="#00D800"/><path d="M126 103C125.7 103 125.5 102.9 125.3 102.7 125 102.4 124.9 101.9 125.1 101.5L150.1 58.2C150.3 57.8 150.8 57.6 151.2 57.7 151.6 57.8 151.9 58.2 151.9 58.7L151.9 87.6C151.9 88 151.7 88.3 151.4 88.5L126.4 102.9C126.3 103 126.2 103 126 103ZM150 62.5 128.7 99.3 150 87 150 62.5Z"/><path d="M101 116.5 101 87.6 126 102Z" fill="#00D800"/><path d="M101 117.5C100.8 117.5 100.7 117.5 100.5 117.4 100.2 117.2 100 116.9 100 116.5L100 87.6C100 87.2 100.2 86.9 100.5 86.7 100.8 86.5 101.2 86.5 101.5 86.7L126.5 101.1C126.8 101.3 127 101.6 127 102 127 102.4 126.8 102.7 126.5 102.9L101.5 117.3C101.3 117.4 101.2 117.5 101 117.5ZM102 89.3 102 114.7 124 102 102 89.3Z"/><path d="M101 87.6 126 44.3 151 58.7 126 102Z" fill="#0000F2"/><path d="M126 103C125.8 103 125.7 103 125.5 102.9L100.5 88.5C100 88.2 99.9 87.6 100.1 87.1L125.1 43.8C125.4 43.3 126 43.2 126.5 43.4L151.5 57.8C151.7 57.9 151.9 58.2 152 58.4 152.1 58.6 152 58.9 151.9 59.2L126.9 102.5C126.8 102.7 126.5 102.9 126.3 103 126.2 103 126.1 103 126 103ZM102.4 87.2 125.7 100.6 149.7 59 126.4 45.6 102.4 87.2Z"/><path d="M201 1 201 29.9 176 15.4Z" fill="#404040"/><path d="M201 30.9C200.8 30.9 200.7 30.9 200.5 30.8L175.5 16.4C175.2 16.2 175 15.9 175 15.5 175 15.1 175.2 14.8 175.5 14.6L200.5 0.2C200.8-2.498e-15 201.2-2.498e-15 201.5 0.2 201.8 0.4 202 0.7 202 1.1L202 30C202 30.4 201.8 30.7 201.5 30.9 201.3 30.8 201.2 30.9 201 30.9ZM178 15.4 200 28.1 200 2.7 178 15.4Z"/><path d="M151 29.9 176 15.4 151 58.7Z" fill="#404040"/><path d="M151 59.7C150.9 59.7 150.8 59.7 150.7 59.7 150.3 59.6 150 59.2 150 58.7L150 29.9C150 29.5 150.2 29.2 150.5 29L175.5 14.6C175.9 14.4 176.4 14.4 176.7 14.8 177 15.1 177.1 15.6 176.9 16L151.9 59.3C151.7 59.5 151.4 59.7 151 59.7ZM152 30.4 152 55 173.3 18.2 152 30.4Z"/><path d="M201 58.7 176 73.2 201 29.9Z" fill="#FFA100"/><path d="M176 74.2C175.7 74.2 175.5 74.1 175.3 73.9 175 73.6 174.9 73.1 175.1 72.7L200.1 29.4C200.3 29 200.8 28.8 201.2 28.9 201.6 29 201.9 29.4 201.9 29.9L201.9 58.8C201.9 59.2 201.7 59.5 201.4 59.7L176.4 74.1C176.3 74.1 176.2 74.2 176 74.2ZM200 33.6 178.7 70.4 200 58.2 200 33.6Z"/><path d="M151 87.6 151 58.7 176 73.2Z" fill="#FFA100"/><path d="M151 88.6C150.8 88.6 150.7 88.6 150.5 88.5 150.2 88.3 150 88 150 87.6L150 58.7C150 58.3 150.2 58 150.5 57.8 150.8 57.6 151.2 57.6 151.5 57.8L176.5 72.2C176.8 72.4 177 72.7 177 73.1 177 73.5 176.8 73.8 176.5 74L151.5 88.4C151.3 88.6 151.2 88.6 151 88.6ZM152 60.5 152 85.9 174 73.2 152 60.5Z"/><path d="M151 58.7 176 15.4 201 29.9 176 73.2Z" fill="#00D800"/><path d="M176 74.2C175.8 74.2 175.7 74.2 175.5 74.1L150.5 59.7C150.3 59.6 150.1 59.3 150 59.1 149.9 58.9 150 58.6 150.1 58.3L175.1 15C175.4 14.5 176 14.4 176.5 14.6L201.5 29C201.7 29.1 201.9 29.4 202 29.6 202.1 29.8 202 30.1 201.9 30.4L176.9 73.7C176.7 74 176.3 74.2 176 74.2ZM152.4 58.4 175.7 71.8 199.7 30.2 176.4 16.8 152.4 58.4Z"/><path d="M51 29.9 51 58.7 26 15.4Z" fill="#404040"/><path d="M51 59.7C50.6 59.7 50.3 59.5 50.1 59.2L25.1 15.9C24.9 15.5 24.9 15 25.3 14.7 25.6 14.4 26.1 14.3 26.5 14.5L51.5 28.9C51.8 29.1 52 29.4 52 29.8L52 58.7C52 59.2 51.7 59.5 51.3 59.7 51.2 59.7 51.1 59.7 51 59.7ZM28.7 18.2 50 55 50 30.4 28.7 18.2Z"/><path d="M1 1 26 15.4 1 29.9Z" fill="#404040"/><path d="M1 30.9C0.8 30.9 0.7 30.9 0.5 30.8 0.2 30.6 0 30.2 0 29.9L0 1C0 0.6 0.2 0.3 0.5 0.1 0.8-0.1 1.2-0.1 1.5 0.1L26.5 14.5C26.8 14.7 27 15 27 15.4 27 15.8 26.8 16.1 26.5 16.3L1.5 30.7C1.3 30.8 1.2 30.9 1 30.9ZM2 2.7 2 28.1 24 15.4 2 2.7Z"/><path d="M51 87.6 26 73.2 51 58.7Z" fill="#0000F2"/><path d="M51 88.6C50.8 88.6 50.7 88.6 50.5 88.5L25.5 74C25.2 73.8 25 73.5 25 73.1 25 72.7 25.2 72.4 25.5 72.2L50.5 57.8C50.8 57.6 51.2 57.6 51.5 57.8 51.8 58 52 58.3 52 58.7L52 87.6C52 88 51.8 88.3 51.5 88.5 51.3 88.6 51.2 88.6 51 88.6ZM28 73.2 50 85.9 50 60.5 28 73.2Z"/><path d="M1 58.7 1 29.9 26 73.2Z" fill="#0000F2"/><path d="M26 74.2C25.8 74.2 25.7 74.2 25.5 74.1L0.5 59.7C0.2 59.4 0 59.1 0 58.7L0 29.9C0 29.4 0.3 29.1 0.7 28.9 1.1 28.8 1.6 29 1.8 29.4L26.8 72.7C27 73.1 27 73.6 26.6 73.9 26.5 74.1 26.3 74.2 26 74.2ZM2 58.2 23.3 70.5 2 33.6 2 58.2Z"/><path d="M26 15.4 51 58.7 26 73.2 1 29.9Z" fill="#FFA100"/><path d="M26 74.2C25.7 74.2 25.3 74 25.1 73.7L0.1 30.4C0 30.1 0 29.9 0 29.6 0 29.3 0.2 29.1 0.5 29L25.5 14.6C26 14.3 26.6 14.5 26.9 15L51.9 58.3C52 58.5 52 58.7 52 59 52 59.3 51.8 59.5 51.5 59.6L26.5 74C26.3 74.1 26.2 74.2 26 74.2ZM2.4 30.2 26.4 71.8 49.7 58.4 25.7 16.8 2.4 30.2Z"/></svg>