<svg width="128" height="128" viewBox="-0.9 -0.9 1.8 1.8" xmlns="http://www.w3.org/2000/svg" xmlns:xlink="http://www.w3.org/1999/xlink" overflow="hidden"><g stroke-width="0.1" stroke-linejoin="round" opacity="0.5"><path d="M0.427273-0.427273-0.427273-0.427273-0.427273 0.427273 0.427273 0.427273Z" id="1" stroke="#BFBFBF" fill="#BFBFBF"/><path d="M-0.427273-0.427273 0.427273-0.427273 0.522222-0.522222-0.522222-0.522222Z" id="2" stroke="#BFBFBF" fill="#BFBFBF"/><path d="M0.522222-0.522222 0.427273-0.427273 0.427273 0.427273 0.522222 0.522222Z" id="3" stroke="#BFBFBF" fill="#BFBFBF"/></g><g stroke-width="0" stroke-linejoin="round" stroke-opacity="0.5"><path d="M0.431818-0.431818 0.174242-0.431818 0.174242-0.174242 0.431818-0.174242Z" id="1" stroke="#BFBFBF" fill="#00D800"/><path d="M0.128788-0.431818-0.128788-0.431818-0.128788-0.174242 0.128788-0.174242Z" id="2" stroke="#BFBFBF" fill="#0000F2"/><path d="M-0.174242-0.431818-0.431818-0.431818-0.431818-0.174242-0.174242-0.174242Z" id="3" stroke="#BFBFBF" fill="#00D800"/><path d="M0.431818-0.128788 0.174242-0.128788 0.174242 0.128788 0.431818 0.128788Z" id="4" stroke="#BFBFBF" opacity="0"/><path d="M0.128788-0.128788-0.128788-0.128788-0.128788 0.128788 0.128788 0.128788Z" id="5" stroke="#BFBFBF" opacity="0"/><path d="M-0.174242-0.128788-0.431818-0.128788-0.431818 0.128788-0.174242 0.128788Z" id="6" stroke="#BFBFBF" opacity="0"/><path d="M0.431818 0.174242 0.174242 0.174242 0.174242 0.431818 0.431818 0.431818Z" id="7" stroke="#BFBFBF" opacity="0"/><path d="M0.128788 0.174242-0.128788 0.174242-0.128788 0.431818 0.128788 0.431818Z" id="8" stroke="#BFBFBF" opacity="0"/><path d="M-0.174242 0.174242-0.431818 0.174242-0.431818 0.431818-0.174242 0.431818Z" id="9" stroke="#BFBFBF" opacity="0"/><path d="M-0.432551-0.456745-0.174976-0.456745-0.183284-0.481672-0.457478-0.481672Z" id="10" stroke="#BFBFBF" opacity="0"/><path d="M-0.128055-0.456745 0.129521-0.456745 0.13783-0.481672-0.136364-0.481672Z" id="11" stroke="#BFBFBF" opacity="0"/><path d="M0.176442-0.456745 0.434018-0.456745 0.458944-0.481672 0.184751-0.481672Z" id="12" stroke="#BFBFBF" opacity="0"/><path d="M-0.460512-0.486374-0.186318-0.486374-0.195773-0.514739-0.488877-0.514739Z" id="13" stroke="#BFBFBF" opacity="0"/><path d="M-0.136263-0.486374 0.137931-0.486374 0.147386-0.514739-0.145717-0.514739Z" id="14" stroke="#BFBFBF" opacity="0"/><path d="M0.187987-0.486374 0.46218-0.486374 0.490545-0.514739 0.197442-0.514739Z" id="15" stroke="#BFBFBF" opacity="0"/><path d="M-0.492337-0.520115-0.199234-0.520115-0.210089-0.552682-0.524904-0.552682Z" id="16" stroke="#BFBFBF" opacity="0"/><path d="M-0.145594-0.520115 0.14751-0.520115 0.158365-0.552682-0.15645-0.552682Z" id="17" stroke="#BFBFBF" opacity="0"/><path d="M0.201149-0.520115 0.494253-0.520115 0.52682-0.552682 0.212005-0.552682Z" id="18" stroke="#BFBFBF" opacity="0"/><path d="M0.552682-0.52682 0.520115-0.494253 0.520115-0.201149 0.552682-0.212005Z" id="19" stroke="#BFBFBF" opacity="0"/><path d="M0.514739-0.490545 0.486374-0.46218 0.486374-0.187987 0.514739-0.197442Z" id="20" stroke="#BFBFBF" opacity="0"/><path d="M0.481672-0.458944 0.456745-0.434018 0.456745-0.176442 0.481672-0.184751Z" id="21" stroke="#BFBFBF" opacity="0"/><path d="M0.552682-0.158365 0.520115-0.14751 0.520115 0.145594 0.552682 0.15645Z" id="22" stroke="#BFBFBF" opacity="0"/><path d="M0.514739-0.147386 0.486374-0.137931 0.486374 0.136263 0.514739 0.145717Z" id="23" stroke="#BFBFBF" opacity="0"/><path d="M0.481672-0.13783 0.456745-0.129521 0.456745 0.128055 0.481672 0.136364Z" id="24" stroke="#BFBFBF" opacity="0"/><path d="M0.552682 0.210089 0.520115 0.199234 0.520115 0.492337 0.552682 0.524904Z" id="25" stroke="#BFBFBF" opacity="0"/><path d="M0.514739 0.195773 0.486374 0.186318 0.486374 0.460512 0.514739 0.488877Z" id="26" stroke="#BFBFBF" opacity="0"/><path d="M0.481672 0.183284 0.456745 0.174976 0.456745 0.432551 0.481672 0.457478Z" id="27" stroke="#BFBFBF" opacity="0"/></g><g stroke-width="0.1" stroke-linejoin="round" opacity="0.5"><path d="M-0.522222 0.522222 0.522222 0.522222 0.427273 0.427273-0.427273 0.427273Z" id="1" stroke="#BFBFBF" fill="#BFBFBF"/><path d="M-0.427273-0.427273-0.522222-0.522222-0.522222 0.522222-0.427273 0.427273Z" id="2" stroke="#BFBFBF" fill="#BFBFBF"/><path d="M-0.522222-0.522222 0.522222-0.522222 0.522222 0.522222-0.522222 0.522222Z" id="3" stroke="#BFBFBF" fill="#BFBFBF"/></g><g stroke-width="0" stroke-linejoin="round" stroke-opacity="0.5"><path d="M-0.52682 0.552682-0.212005 0.552682-0.201149 0.520115-0.494253 0.520115Z" id="1" stroke="#BFBFBF" opacity="0"/><path d="M-0.158365 0.552682 0.15645 0.552682 0.145594 0.520115-0.14751 0.520115Z" id="2" stroke="#BFBFBF" opacity="0"/><path d="M0.210089 0.552682 0.524904 0.552682 0.492337 0.520115 0.199234 0.520115Z" id="3" stroke="#BFBFBF" opacity="0"/><path d="M-0.490545 0.514739-0.197442 0.514739-0.187987 0.486374-0.46218 0.486374Z" id="4" stroke="#BFBFBF" opacity="0"/><path d="M-0.147386 0.514739 0.145717 0.514739 0.136263 0.486374-0.137931 0.486374Z" id="5" stroke="#BFBFBF" opacity="0"/><path d="M0.195773 0.514739 0.488877 0.514739 0.460512 0.486374 0.186318 0.486374Z" id="6" stroke="#BFBFBF" opacity="0"/><path d="M-0.458944 0.481672-0.184751 0.481672-0.176442 0.456745-0.434018 0.456745Z" id="7" stroke="#BFBFBF" opacity="0"/><path d="M-0.13783 0.481672 0.136364 0.481672 0.128055 0.456745-0.129521 0.456745Z" id="8" stroke="#BFBFBF" opacity="0"/><path d="M0.183284 0.481672 0.457478 0.481672 0.432551 0.456745 0.174976 0.456745Z" id="9" stroke="#BFBFBF" opacity="0"/><path d="M-0.456745-0.432551-0.481672-0.457478-0.481672-0.183284-0.456745-0.174976Z" id="10" stroke="#BFBFBF" opacity="0"/><path d="M-0.486374-0.460512-0.514739-0.488877-0.514739-0.195773-0.486374-0.186318Z" id="11" stroke="#BFBFBF" opacity="0"/><path d="M-0.520115-0.492337-0.552682-0.524904-0.552682-0.210089-0.520115-0.199234Z" id="12" stroke="#BFBFBF" opacity="0"/><path d="M-0.456745-0.128055-0.481672-0.136364-0.481672 0.13783-0.456745 0.129521Z" id="13" stroke="#BFBFBF" opacity="0"/><path d="M-0.486374-0.136263-0.514739-0.145717-0.514739 0.147386-0.486374 0.137931Z" id="14" stroke="#BFBFBF" opacity="0"/><path d="M-0.520115-0.145594-0.552682-0.15645-0.552682 0.158365-0.520115 0.14751Z" id="15" stroke="#BFBFBF" opacity="0"/><path d="M-0.456745 0.176442-0.481672 0.184751-0.481672 0.458944-0.456745 0.434018Z" id="16" stroke="#BFBFBF" opacity="0"/><path d="M-0.486374 0.187987-0.514739 0.197442-0.514739 0.490545-0.486374 0.46218Z" id="17" stroke="#BFBFBF" opacity="0"/><path d="M-0.520115 0.201149-0.552682 0.212005-0.552682 0.52682-0.520115 0.494253Z" id="18" stroke="#BFBFBF" opacity="0"/><path d="M-0.527778-0.527778-0.212963-0.527778-0.212963-0.212963-0.527778-0.212963Z" id="19" stroke="#BFBFBF" opacity="0"/><path d="M-0.157407-0.527778 0.157407-0.527778 0.157407-0.212963-0.157407-0.212963Z" id="20" stroke="#BFBFBF" opacity="0"/><path d="M0.212963-0.527778 0.527778-0.527778 0.527778-0.212963 0.212963-0.212963Z" id="21" stroke="#BFBFBF" opacity="0"/><path d="M-0.527778-0.157407-0.212963-0.157407-0.212963 0.157407-0.527778 0.157407Z" id="22" stroke="#BFBFBF" opacity="0"/><path d="M-0.157407-0.157407 0.157407-0.157407 0.157407 0.157407-0.157407 0.157407Z" id="23" stroke="#BFBFBF" opacity="0"/><path d="M0.212963-0.157407 0.527778-0.157407 0.527778 0.157407 0.212963 0.157407Z" id="24" stroke="#BFBFBF" opacity="0"/><path d="M-0.527778 0.212963-0.212963 0.212963-0.212963 0.527778-0.527778 0.527778Z" id="25" stroke="#BFBFBF" opacity="0"/><path d="M-0.157407 0.212963 0.157407 0.212963 0.157407 0.527778-0.157407 0.527778Z" id="26" stroke="#BFBFBF" fill="#00D800"/><path d="M0.212963 0.212963 0.527778 0.212963 0.527778 0.527778 0.212963 0.527778Z" id="27" stroke="#BFBFBF" opacity="0"/></g></svg>