<svg width="128" height="128" viewBox="-0.9 -0.9 1.8 1.8" xmlns="http://www.w3.org/2000/svg" xmlns:xlink="http://www.w3.org/1999/xlink" overflow="hidden"><g stroke-width="0.1" stroke-linejoin="round"><path d="M-0.453404-0.619362 0.453404-0.619362 0.544361-0.19925-0.544361-0.19925Z" id="1" stroke="#000000"/><path d="M-0.544361-0.19925 0.544361-0.19925 0.487857 0.666425-0.487857 0.666425Z" id="2" stroke="#000000"/></g><g stroke-width="0" stroke-linejoin="round" stroke-opacity="0.5"><path d="M-0.458939-0.64904-0.18561-0.64904-0.193671-0.537348-0.483121-0.537348Z" id="1" stroke="#000000" fill="#FEFE00"/><path d="M-0.135953-0.64904 0.137376-0.64904 0.145436-0.537348-0.144014-0.537348Z" id="2" stroke="#000000" fill="#404040"/><path d="M0.187033-0.64904 0.460361-0.64904 0.484543-0.537348 0.195093-0.537348Z" id="3" stroke="#000000" fill="#FEFE00"/><path d="M-0.486055-0.516403-0.196605-0.516403-0.205676-0.39071-0.513268-0.39071Z" id="4" stroke="#000000" fill="#404040"/><path d="M-0.143925-0.516403 0.145525-0.516403 0.154597-0.39071-0.152996-0.39071Z" id="5" stroke="#000000" fill="#404040"/><path d="M0.198206-0.516403 0.487656-0.516403 0.514869-0.39071 0.207277-0.39071Z" id="6" stroke="#000000" fill="#404040"/><path d="M-0.516577-0.367045-0.208985-0.367045-0.219269-0.224542-0.54743-0.224542Z" id="7" stroke="#000000" fill="#FEFE00"/><path d="M-0.152889-0.367045 0.154704-0.367045 0.164988-0.224542-0.163173-0.224542Z" id="8" stroke="#000000" fill="#404040"/><path d="M0.2108-0.367045 0.518392-0.367045 0.549245-0.224542 0.221084-0.224542Z" id="9" stroke="#000000" fill="#FEFE00"/><path d="M-0.549614-0.187233-0.221453-0.187233-0.215354 0.0930958-0.531316 0.0930958Z" id="10" stroke="#000000" fill="#EE0000"/><path d="M-0.164619-0.187233 0.163542-0.187233 0.157443 0.0930958-0.158519 0.0930958Z" id="11" stroke="#000000" fill="#404040"/><path d="M0.220377-0.187233 0.548538-0.187233 0.53024 0.0930958 0.214278 0.0930958Z" id="12" stroke="#000000" fill="#EE0000"/><path d="M-0.529202 0.140793-0.21324 0.140793-0.207578 0.401028-0.512216 0.401028Z" id="13" stroke="#000000" fill="#EE0000"/><path d="M-0.158481 0.140793 0.157482 0.140793 0.15182 0.401028-0.152819 0.401028Z" id="14" stroke="#000000" fill="#404040"/><path d="M0.212241 0.140793 0.528203 0.140793 0.511217 0.401028 0.206579 0.401028Z" id="15" stroke="#000000" fill="#EE0000"/><path d="M-0.510252 0.445363-0.205614 0.445363-0.200344 0.68759-0.494442 0.68759Z" id="16" stroke="#000000" fill="#EE0000"/><path d="M-0.152784 0.445363 0.151854 0.445363 0.146584 0.68759-0.147514 0.68759Z" id="17" stroke="#000000" fill="#404040"/><path d="M0.204684 0.445363 0.509322 0.445363 0.493512 0.68759 0.199414 0.68759Z" id="18" stroke="#000000" fill="#EE0000"/></g></svg>