<svg xmlns="http://www.w3.org/2000/svg" xmlns:xlink="http://www.w3.org/1999/xlink" viewBox="-15 -25 45 45" width="500" height="500">
  <!--
    Idle twist — Clawd holding a standard 3x3 cube (WCA colours).
    Generated by scripts/deskpet-cube. Do not hand-edit; edit the engine/config and rebuild.
  -->
  <defs>
    <style>
      #ground-shadow { transform-box: view-box; transform-origin: 7.5px 15.5px; animation: sh1 8s infinite ease-in-out; }
      .breathe { transform-box: view-box; transform-origin: 7.5px 13px; animation: br1 8s infinite ease-in-out; }
      .arm-l { transform-box: fill-box; transform-origin: 100% 50%; animation: arml1 8s infinite ease-in-out; }
      .arm-r { transform-box: fill-box; transform-origin: 0% 50%; animation: armr1 8s infinite ease-in-out; }
      .eyes { transform-box: view-box; transform-origin: 7.5px 9px; animation: ey1 8s infinite ease-in-out; }
      @keyframes sh1 { 0%,100%{opacity:.5;transform:scaleX(1);} 50%{opacity:.46;transform:scaleX(.97);} }
      @keyframes br1 { 0%,100%{transform:scale(1,1) translateY(0);} 50%{transform:scale(1.008,.992) translateY(.12px);} }
      @keyframes arml1 { 0%,100%{transform:rotate(8deg) translateY(-.1px);} 50%{transform:rotate(11deg) translateY(.05px);} }
      @keyframes armr1 { 0%,100%{transform:rotate(-8deg) translateY(-.1px);} 50%{transform:rotate(-11deg) translateY(.05px);} }
      @keyframes ey1 { 0%,100%{transform:translateX(.18px);} 25%{transform:translateX(.05px);} 50%{transform:translateX(-.18px);} 75%{transform:translateX(.05px);} }
    </style>
  </defs>

  <rect id="ground-shadow" x="3" y="15" width="9" height="1" fill="#000" opacity="0.5"/>

  <g fill="#DE886D">
    <rect x="3" y="13" width="1" height="2"/><rect x="5" y="13" width="1" height="2"/>
    <rect x="9" y="13" width="1" height="2"/><rect x="11" y="13" width="1" height="2"/>
  </g>

  <g class="breathe">
    <rect x="2" y="6" width="11" height="7" fill="#DE886D"/>
    <g class="eyes" fill="#000">
      <rect x="4" y="8" width="1" height="2"/>
      <rect x="10" y="8" width="1" height="2"/>
    </g>
    <g class="arm-l" fill="#DE886D"><rect x="0" y="10.2" width="2" height="2"/><rect x="1.6" y="10.6" width="2" height="1.3"/></g>
    <g class="arm-r" fill="#DE886D"><rect x="13" y="10.2" width="2" height="2"/><rect x="11.4" y="10.6" width="2" height="1.3"/></g>

    <!-- ===== standard 3x3 cube ===== -->
    <g id="cube">
    <g id="f0" opacity="1">
      <polygon points="7.118,8.614 7.843,8.365 8.409,8.683 7.684,8.931" fill="#252530"/>
      <polygon points="7.172,8.611 7.836,8.384 8.356,8.675 7.691,8.903" fill="#ffffff"/>
      <polygon points="5.621,11.661 5.621,10.834 6.187,11.152 6.187,11.978" fill="#141419"/>
      <polygon points="5.640,11.641 5.640,10.883 6.159,11.174 6.159,11.933" fill="#e69100"/>
      <polygon points="6.370,8.870 7.094,8.622 7.661,8.939 6.936,9.188" fill="#252530"/>
      <polygon points="6.423,8.868 7.088,8.640 7.607,8.931 6.942,9.159" fill="#ffffff"/>
      <polygon points="8.854,12.122 9.579,11.874 9.579,11.047 8.854,11.295" fill="#18181f"/>
      <polygon points="8.888,12.079 9.552,11.852 9.552,11.093 8.888,11.321" fill="#00d200"/>
      <polygon points="7.703,8.942 8.428,8.694 8.994,9.011 8.269,9.259" fill="#252530"/>
      <polygon points="7.757,8.939 8.421,8.712 8.941,9.003 8.276,9.231" fill="#ffffff"/>
      <polygon points="5.621,10.807 5.621,9.980 6.187,10.298 6.187,11.124" fill="#141419"/>
      <polygon points="5.640,10.787 5.640,10.029 6.159,10.320 6.159,11.079" fill="#e69100"/>
      <polygon points="6.206,11.989 6.206,11.162 6.772,11.480 6.772,12.306" fill="#141419"/>
      <polygon points="6.225,11.969 6.225,11.211 6.744,11.502 6.744,12.261" fill="#e69100"/>
      <polygon points="5.621,9.126 6.346,8.878 6.912,9.196 6.187,9.444" fill="#252530"/>
      <polygon points="8.854,11.268 9.579,11.020 9.579,10.193 8.854,10.441" fill="#18181f"/>
      <polygon points="5.674,9.124 6.339,8.896 6.859,9.188 6.194,9.416" fill="#ffffff"/>
      <polygon points="8.888,11.226 9.552,10.998 9.552,10.240 8.888,10.467" fill="#00d200"/>
      <polygon points="5.621,9.953 5.621,9.126 6.187,9.444 6.187,10.271" fill="#141419"/>
      <polygon points="5.640,9.933 5.640,9.175 6.159,9.467 6.159,10.225" fill="#e69100"/>
      <polygon points="8.106,12.378 8.830,12.130 8.830,11.303 8.106,11.552" fill="#18181f"/>
      <polygon points="8.139,12.336 8.804,12.108 8.804,11.350 8.139,11.578" fill="#00d200"/>
      <polygon points="6.955,9.198 7.679,8.950 8.245,9.268 7.521,9.516" fill="#252530"/>
      <polygon points="7.008,9.196 7.673,8.968 8.192,9.260 7.527,9.487" fill="#ffffff"/>
      <polygon points="8.288,9.270 9.013,9.022 9.579,9.339 8.854,9.588" fill="#252530"/>
      <polygon points="8.341,9.268 9.006,9.040 9.526,9.331 8.861,9.559" fill="#ffffff"/>
      <polygon points="6.206,11.135 6.206,10.308 6.772,10.626 6.772,11.453" fill="#141419"/>
      <polygon points="6.225,11.115 6.225,10.357 6.744,10.649 6.744,11.407" fill="#e69100"/>
      <polygon points="8.854,10.414 9.579,10.166 9.579,9.339 8.854,9.588" fill="#18181f"/>
      <polygon points="8.888,10.372 9.552,10.144 9.552,9.386 8.888,9.613" fill="#00d200"/>
      <polygon points="8.106,11.524 8.830,11.276 8.830,10.450 8.106,10.698" fill="#18181f"/>
      <polygon points="8.139,11.482 8.804,11.254 8.804,10.496 8.139,10.724" fill="#00d200"/>
      <polygon points="6.791,12.317 6.791,11.490 7.357,11.808 7.357,12.635" fill="#141419"/>
      <polygon points="6.810,12.297 6.810,11.539 7.329,11.831 7.329,12.589" fill="#e69100"/>
      <polygon points="7.357,12.635 8.082,12.386 8.082,11.560 7.357,11.808" fill="#18181f"/>
      <polygon points="7.390,12.592 8.055,12.364 8.055,11.606 7.390,11.834" fill="#00d200"/>
      <polygon points="6.206,9.455 6.931,9.206 7.497,9.524 6.772,9.772" fill="#252530"/>
      <polygon points="6.259,9.452 6.924,9.225 7.443,9.516 6.779,9.744" fill="#ffffff"/>
      <polygon points="6.206,10.281 6.206,9.455 6.772,9.772 6.772,10.599" fill="#141419"/>
      <polygon points="6.225,10.262 6.225,9.503 6.744,9.795 6.744,10.553" fill="#e69100"/>
      <polygon points="7.539,9.526 8.264,9.278 8.830,9.596 8.106,9.844" fill="#252530"/>
      <polygon points="7.593,9.524 8.258,9.296 8.777,9.588 8.112,9.815" fill="#ffffff"/>
      <polygon points="8.106,10.671 8.830,10.422 8.830,9.596 8.106,9.844" fill="#18181f"/>
      <polygon points="8.139,10.628 8.804,10.400 8.804,9.642 8.139,9.870" fill="#00d200"/>
      <polygon points="6.791,11.463 6.791,10.637 7.357,10.954 7.357,11.781" fill="#141419"/>
      <polygon points="6.810,11.444 6.810,10.685 7.329,10.977 7.329,11.735" fill="#e69100"/>
      <polygon points="7.357,11.781 8.082,11.533 8.082,10.706 7.357,10.954" fill="#18181f"/>
      <polygon points="7.390,11.738 8.055,11.511 8.055,10.752 7.390,10.980" fill="#00d200"/>
      <polygon points="6.791,9.783 7.516,9.535 8.082,9.852 7.357,10.100" fill="#252530"/>
      <polygon points="6.844,9.780 7.509,9.553 8.028,9.844 7.364,10.072" fill="#ffffff"/>
      <polygon points="6.791,10.609 6.791,9.783 7.357,10.100 7.357,10.927" fill="#141419"/>
      <polygon points="6.810,10.590 6.810,9.832 7.329,10.123 7.329,10.881" fill="#e69100"/>
      <polygon points="7.357,10.927 8.082,10.679 8.082,9.852 7.357,10.100" fill="#18181f"/>
      <polygon points="7.390,10.884 8.055,10.657 8.055,9.899 7.390,10.126" fill="#00d200"/>
    </g>
    <g id="f1" opacity="0">
      <polygon points="7.118,9.467 7.843,9.219 8.409,9.537 7.684,9.785" fill="#252530"/>
      <polygon points="7.029,8.628 7.716,8.360 8.327,8.661 7.640,8.929" fill="#252530"/>
      <polygon points="7.082,8.625 7.713,8.379 8.273,8.655 7.643,8.901" fill="#ffffff"/>
      <polygon points="6.370,9.724 7.094,9.476 7.661,9.793 6.936,10.041" fill="#252530"/>
      <polygon points="7.703,9.796 8.428,9.547 8.994,9.865 8.269,10.113" fill="#252530"/>
      <polygon points="5.621,11.661 5.621,10.834 6.187,11.152 6.187,11.978" fill="#141419"/>
      <polygon points="5.640,11.641 5.640,10.883 6.159,11.174 6.159,11.933" fill="#e69100"/>
      <polygon points="6.319,8.905 7.006,8.637 7.618,8.938 6.931,9.206" fill="#252530"/>
      <polygon points="6.373,8.902 7.003,8.656 7.564,8.932 6.934,9.178" fill="#ffffff"/>
      <polygon points="7.660,8.939 8.347,8.671 8.959,8.973 8.272,9.241" fill="#252530"/>
      <polygon points="7.714,8.936 8.344,8.690 8.905,8.966 8.275,9.212" fill="#ffffff"/>
      <polygon points="5.621,9.980 6.346,9.732 6.912,10.050 6.187,10.298" fill="#252530"/>
      <polygon points="8.854,12.122 9.579,11.874 9.579,11.047 8.854,11.295" fill="#18181f"/>
      <polygon points="8.888,12.079 9.552,11.852 9.552,11.093 8.888,11.321" fill="#00d200"/>
      <polygon points="5.621,10.807 5.621,9.980 6.187,10.298 6.187,11.124" fill="#141419"/>
      <polygon points="5.640,10.787 5.640,10.029 6.159,10.320 6.159,11.079" fill="#e69100"/>
      <polygon points="8.288,10.124 9.013,9.876 9.579,10.193 8.854,10.441" fill="#252530"/>
      <polygon points="6.206,11.989 6.206,11.162 6.772,11.480 6.772,12.306" fill="#141419"/>
      <polygon points="6.225,11.969 6.225,11.211 6.744,11.502 6.744,12.261" fill="#e69100"/>
      <polygon points="8.854,11.268 9.579,11.020 9.579,10.193 8.854,10.441" fill="#18181f"/>
      <polygon points="8.888,11.226 9.552,10.998 9.552,10.240 8.888,10.467" fill="#00d200"/>
      <polygon points="5.610,9.182 6.296,8.914 6.908,9.215 6.221,9.483" fill="#252530"/>
      <polygon points="5.663,9.178 6.293,8.933 6.854,9.209 6.224,9.455" fill="#ffffff"/>
      <polygon points="8.106,12.378 8.830,12.130 8.830,11.303 8.106,11.552" fill="#18181f"/>
      <polygon points="8.139,12.336 8.804,12.108 8.804,11.350 8.139,11.578" fill="#00d200"/>
      <polygon points="6.951,9.216 7.638,8.948 8.249,9.249 7.562,9.517" fill="#252530"/>
      <polygon points="7.004,9.213 7.635,8.967 8.196,9.243 7.565,9.489" fill="#ffffff"/>
      <polygon points="8.292,9.251 8.979,8.982 9.590,9.284 8.904,9.552" fill="#252530"/>
      <polygon points="8.346,9.247 8.976,9.001 9.537,9.277 8.907,9.523" fill="#ffffff"/>
      <polygon points="6.206,10.308 6.931,10.060 7.497,10.378 6.772,10.626" fill="#252530"/>
      <polygon points="5.610,10.009 5.610,9.182 6.221,9.483 6.221,10.310" fill="#141419"/>
      <polygon points="5.631,9.989 5.631,9.230 6.192,9.507 6.192,10.265" fill="#e69100"/>
      <polygon points="6.206,11.135 6.206,10.308 6.772,10.626 6.772,11.453" fill="#141419"/>
      <polygon points="6.225,11.115 6.225,10.357 6.744,10.649 6.744,11.407" fill="#e69100"/>
      <polygon points="8.904,10.378 9.590,10.110 9.590,9.284 8.904,9.552" fill="#18181f"/>
      <polygon points="8.936,10.335 9.566,10.089 9.566,9.331 8.936,9.577" fill="#00d200"/>
      <polygon points="7.539,10.380 8.264,10.132 8.830,10.450 8.106,10.698" fill="#252530"/>
      <polygon points="8.106,11.524 8.830,11.276 8.830,10.450 8.106,10.698" fill="#18181f"/>
      <polygon points="8.139,11.482 8.804,11.254 8.804,10.496 8.139,10.724" fill="#00d200"/>
      <polygon points="6.791,12.317 6.791,11.490 7.357,11.808 7.357,12.635" fill="#141419"/>
      <polygon points="6.810,12.297 6.810,11.539 7.329,11.831 7.329,12.589" fill="#e69100"/>
      <polygon points="7.357,12.635 8.082,12.386 8.082,11.560 7.357,11.808" fill="#18181f"/>
      <polygon points="7.390,12.592 8.055,12.364 8.055,11.606 7.390,11.834" fill="#00d200"/>
      <polygon points="6.241,9.493 6.928,9.225 7.540,9.526 6.853,9.794" fill="#252530"/>
      <polygon points="6.295,9.489 6.925,9.244 7.486,9.520 6.856,9.766" fill="#ffffff"/>
      <polygon points="7.582,9.527 8.269,9.259 8.881,9.560 8.194,9.829" fill="#252530"/>
      <polygon points="7.636,9.524 8.266,9.278 8.827,9.554 8.197,9.800" fill="#ffffff"/>
      <polygon points="8.194,10.655 8.881,10.387 8.881,9.560 8.194,9.829" fill="#18181f"/>
      <polygon points="8.226,10.612 8.856,10.366 8.856,9.608 8.226,9.853" fill="#00d200"/>
      <polygon points="6.791,10.637 7.516,10.388 8.082,10.706 7.357,10.954" fill="#252530"/>
      <polygon points="6.241,10.320 6.241,9.493 6.853,9.794 6.853,10.621" fill="#141419"/>
      <polygon points="6.262,10.300 6.262,9.541 6.823,9.818 6.823,10.576" fill="#e69100"/>
      <polygon points="6.791,11.463 6.791,10.637 7.357,10.954 7.357,11.781" fill="#141419"/>
      <polygon points="6.810,11.444 6.810,10.685 7.329,10.977 7.329,11.735" fill="#e69100"/>
      <polygon points="7.357,11.781 8.082,11.533 8.082,10.706 7.357,10.954" fill="#18181f"/>
      <polygon points="7.390,11.738 8.055,11.511 8.055,10.752 7.390,10.980" fill="#00d200"/>
      <polygon points="6.873,9.804 7.560,9.536 8.171,9.837 7.484,10.105" fill="#252530"/>
      <polygon points="6.927,9.801 7.557,9.555 8.118,9.831 7.487,10.077" fill="#ffffff"/>
      <polygon points="6.873,10.631 6.873,9.804 7.484,10.105 7.484,10.932" fill="#141419"/>
      <polygon points="6.894,10.611 6.894,9.853 7.455,10.129 7.455,10.887" fill="#e69100"/>
      <polygon points="7.484,10.932 8.171,10.664 8.171,9.837 7.484,10.105" fill="#18181f"/>
      <polygon points="7.516,10.889 8.147,10.643 8.147,9.884 7.516,10.130" fill="#00d200"/>
    </g>
    <g id="f2" opacity="0">
      <polygon points="7.118,9.467 7.843,9.219 8.409,9.537 7.684,9.785" fill="#252530"/>
      <polygon points="6.776,8.687 7.333,8.367 8.065,8.611 7.507,8.932" fill="#252530"/>
      <polygon points="6.829,8.679 7.340,8.385 8.011,8.609 7.500,8.903" fill="#ffffff"/>
      <polygon points="6.370,9.724 7.094,9.476 7.661,9.793 6.936,10.041" fill="#252530"/>
      <polygon points="7.703,9.796 8.428,9.547 8.994,9.865 8.269,10.113" fill="#252530"/>
      <polygon points="5.621,11.661 5.621,10.834 6.187,11.152 6.187,11.978" fill="#141419"/>
      <polygon points="5.640,11.641 5.640,10.883 6.159,11.174 6.159,11.933" fill="#e69100"/>
      <polygon points="7.531,8.940 8.089,8.619 8.820,8.863 8.263,9.184" fill="#252530"/>
      <polygon points="7.585,8.932 8.096,8.637 8.767,8.861 8.256,9.156" fill="#ffffff"/>
      <polygon points="5.621,9.980 6.346,9.732 6.912,10.050 6.187,10.298" fill="#252530"/>
      <polygon points="8.854,12.122 9.579,11.874 9.579,11.047 8.854,11.295" fill="#18181f"/>
      <polygon points="8.888,12.079 9.552,11.852 9.552,11.093 8.888,11.321" fill="#00d200"/>
      <polygon points="6.200,9.019 6.757,8.698 7.489,8.942 6.931,9.263" fill="#252530"/>
      <polygon points="6.253,9.010 6.765,8.716 7.436,8.940 6.924,9.234" fill="#ffffff"/>
      <polygon points="5.621,10.807 5.621,9.980 6.187,10.298 6.187,11.124" fill="#141419"/>
      <polygon points="5.640,10.787 5.640,10.029 6.159,10.320 6.159,11.079" fill="#e69100"/>
      <polygon points="8.288,10.124 9.013,9.876 9.579,10.193 8.854,10.441" fill="#252530"/>
      <polygon points="6.206,11.989 6.206,11.162 6.772,11.480 6.772,12.306" fill="#141419"/>
      <polygon points="6.225,11.969 6.225,11.211 6.744,11.502 6.744,12.261" fill="#e69100"/>
      <polygon points="8.287,9.192 8.844,8.872 9.576,9.116 9.018,9.437" fill="#252530"/>
      <polygon points="8.340,9.184 8.852,8.890 9.523,9.114 9.011,9.408" fill="#ffffff"/>
      <polygon points="8.854,11.268 9.579,11.020 9.579,10.193 8.854,10.441" fill="#18181f"/>
      <polygon points="8.888,11.226 9.552,10.998 9.552,10.240 8.888,10.467" fill="#00d200"/>
      <polygon points="9.018,10.263 9.576,9.942 9.576,9.116 9.018,9.437" fill="#18181f"/>
      <polygon points="9.046,10.217 9.557,9.923 9.557,9.165 9.046,9.459" fill="#00d200"/>
      <polygon points="8.106,12.378 8.830,12.130 8.830,11.303 8.106,11.552" fill="#18181f"/>
      <polygon points="8.139,12.336 8.804,12.108 8.804,11.350 8.139,11.578" fill="#00d200"/>
      <polygon points="6.956,9.271 7.513,8.950 8.244,9.195 7.687,9.515" fill="#252530"/>
      <polygon points="7.009,9.263 7.520,8.969 8.191,9.193 7.680,9.487" fill="#ffffff"/>
      <polygon points="6.206,10.308 6.931,10.060 7.497,10.378 6.772,10.626" fill="#252530"/>
      <polygon points="5.624,9.350 6.182,9.029 6.913,9.274 6.356,9.594" fill="#252530"/>
      <polygon points="6.206,11.135 6.206,10.308 6.772,10.626 6.772,11.453" fill="#141419"/>
      <polygon points="5.677,9.342 6.189,9.047 6.860,9.272 6.348,9.566" fill="#ffffff"/>
      <polygon points="6.225,11.115 6.225,10.357 6.744,10.649 6.744,11.407" fill="#e69100"/>
      <polygon points="7.539,10.380 8.264,10.132 8.830,10.450 8.106,10.698" fill="#252530"/>
      <polygon points="5.624,10.176 5.624,9.350 6.356,9.594 6.356,10.421" fill="#141419"/>
      <polygon points="5.651,10.154 5.651,9.396 6.322,9.620 6.322,10.378" fill="#e69100"/>
      <polygon points="8.106,11.524 8.830,11.276 8.830,10.450 8.106,10.698" fill="#18181f"/>
      <polygon points="8.139,11.482 8.804,11.254 8.804,10.496 8.139,10.724" fill="#00d200"/>
      <polygon points="6.791,12.317 6.791,11.490 7.357,11.808 7.357,12.635" fill="#141419"/>
      <polygon points="6.810,12.297 6.810,11.539 7.329,11.831 7.329,12.589" fill="#e69100"/>
      <polygon points="7.357,12.635 8.082,12.386 8.082,11.560 7.357,11.808" fill="#18181f"/>
      <polygon points="7.390,12.592 8.055,12.364 8.055,11.606 7.390,11.834" fill="#00d200"/>
      <polygon points="7.711,9.523 8.269,9.203 9.000,9.447 8.443,9.768" fill="#252530"/>
      <polygon points="7.764,9.515 8.276,9.221 8.947,9.445 8.435,9.739" fill="#ffffff"/>
      <polygon points="8.443,10.594 9.000,10.274 9.000,9.447 8.443,9.768" fill="#18181f"/>
      <polygon points="8.470,10.548 8.982,10.254 8.982,9.496 8.470,9.790" fill="#00d200"/>
      <polygon points="6.380,9.602 6.937,9.282 7.669,9.526 7.111,9.847" fill="#252530"/>
      <polygon points="6.433,9.594 6.944,9.300 7.615,9.524 7.104,9.818" fill="#ffffff"/>
      <polygon points="6.791,10.637 7.516,10.388 8.082,10.706 7.357,10.954" fill="#252530"/>
      <polygon points="6.380,10.429 6.380,9.602 7.111,9.847 7.111,10.673" fill="#141419"/>
      <polygon points="6.407,10.407 6.407,9.649 7.078,9.873 7.078,10.631" fill="#e69100"/>
      <polygon points="6.791,11.463 6.791,10.637 7.357,10.954 7.357,11.781" fill="#141419"/>
      <polygon points="6.810,11.444 6.810,10.685 7.329,10.977 7.329,11.735" fill="#e69100"/>
      <polygon points="7.357,11.781 8.082,11.533 8.082,10.706 7.357,10.954" fill="#18181f"/>
      <polygon points="7.390,11.738 8.055,11.511 8.055,10.752 7.390,10.980" fill="#00d200"/>
      <polygon points="7.135,9.855 7.693,9.534 8.424,9.778 7.867,10.099" fill="#252530"/>
      <polygon points="7.189,9.846 7.700,9.552 8.371,9.776 7.860,10.071" fill="#ffffff"/>
      <polygon points="7.867,10.926 8.424,10.605 8.424,9.778 7.867,10.099" fill="#18181f"/>
      <polygon points="7.894,10.880 8.406,10.586 8.406,9.827 7.894,10.121" fill="#00d200"/>
      <polygon points="7.135,10.681 7.135,9.855 7.867,10.099 7.867,10.926" fill="#141419"/>
      <polygon points="7.162,10.659 7.162,9.901 7.833,10.125 7.833,10.883" fill="#e69100"/>
    </g>
    <g id="f3" opacity="0">
      <polygon points="7.118,9.467 7.843,9.219 8.409,9.537 7.684,9.785" fill="#252530"/>
      <polygon points="6.370,9.724 7.094,9.476 7.661,9.793 6.936,10.041" fill="#252530"/>
      <polygon points="6.426,8.829 6.724,8.448 7.594,8.579 7.295,8.960" fill="#252530"/>
      <polygon points="6.474,8.814 6.748,8.464 7.546,8.584 7.272,8.934" fill="#ffffff"/>
      <polygon points="7.703,9.796 8.428,9.547 8.994,9.865 8.269,10.113" fill="#252530"/>
      <polygon points="5.621,11.661 5.621,10.834 6.187,11.152 6.187,11.978" fill="#141419"/>
      <polygon points="5.640,11.641 5.640,10.883 6.159,11.174 6.159,11.933" fill="#e69100"/>
      <polygon points="7.324,8.964 7.623,8.583 8.492,8.714 8.194,9.095" fill="#252530"/>
      <polygon points="7.372,8.949 7.646,8.599 8.444,8.719 8.170,9.069" fill="#ffffff"/>
      <polygon points="5.621,9.980 6.346,9.732 6.912,10.050 6.187,10.298" fill="#252530"/>
      <polygon points="8.854,12.122 9.579,11.874 9.579,11.047 8.854,11.295" fill="#18181f"/>
      <polygon points="8.888,12.079 9.552,11.852 9.552,11.093 8.888,11.321" fill="#00d200"/>
      <polygon points="8.223,9.099 8.521,8.718 9.391,8.849 9.093,9.230" fill="#252530"/>
      <polygon points="8.271,9.084 8.545,8.734 9.343,8.854 9.069,9.204" fill="#ffffff"/>
      <polygon points="5.621,10.807 5.621,9.980 6.187,10.298 6.187,11.124" fill="#141419"/>
      <polygon points="5.640,10.787 5.640,10.029 6.159,10.320 6.159,11.079" fill="#e69100"/>
      <polygon points="6.117,9.223 6.416,8.842 7.286,8.972 6.987,9.354" fill="#252530"/>
      <polygon points="6.166,9.207 6.439,8.858 7.237,8.978 6.963,9.328" fill="#ffffff"/>
      <polygon points="8.288,10.124 9.013,9.876 9.579,10.193 8.854,10.441" fill="#252530"/>
      <polygon points="9.093,10.057 9.391,9.675 9.391,8.849 9.093,9.230" fill="#18181f"/>
      <polygon points="9.110,10.008 9.384,9.658 9.384,8.900 9.110,9.249" fill="#00d200"/>
      <polygon points="6.206,11.989 6.206,11.162 6.772,11.480 6.772,12.306" fill="#141419"/>
      <polygon points="6.225,11.969 6.225,11.211 6.744,11.502 6.744,12.261" fill="#e69100"/>
      <polygon points="8.854,11.268 9.579,11.020 9.579,10.193 8.854,10.441" fill="#18181f"/>
      <polygon points="8.888,11.226 9.552,10.998 9.552,10.240 8.888,10.467" fill="#00d200"/>
      <polygon points="8.106,12.378 8.830,12.130 8.830,11.303 8.106,11.552" fill="#18181f"/>
      <polygon points="8.139,12.336 8.804,12.108 8.804,11.350 8.139,11.578" fill="#00d200"/>
      <polygon points="7.016,9.358 7.314,8.977 8.184,9.108 7.886,9.489" fill="#252530"/>
      <polygon points="7.064,9.343 7.338,8.993 8.136,9.113 7.862,9.463" fill="#ffffff"/>
      <polygon points="6.206,10.308 6.931,10.060 7.497,10.378 6.772,10.626" fill="#252530"/>
      <polygon points="6.206,11.135 6.206,10.308 6.772,10.626 6.772,11.453" fill="#141419"/>
      <polygon points="6.225,11.115 6.225,10.357 6.744,10.649 6.744,11.407" fill="#e69100"/>
      <polygon points="7.539,10.380 8.264,10.132 8.830,10.450 8.106,10.698" fill="#252530"/>
      <polygon points="8.784,10.451 9.083,10.069 9.083,9.243 8.784,9.624" fill="#18181f"/>
      <polygon points="8.802,10.402 9.076,10.052 9.076,9.294 8.802,9.643" fill="#00d200"/>
      <polygon points="7.914,9.493 8.213,9.112 9.083,9.243 8.784,9.624" fill="#252530"/>
      <polygon points="7.963,9.478 8.237,9.128 9.034,9.248 8.761,9.598" fill="#ffffff"/>
      <polygon points="8.106,11.524 8.830,11.276 8.830,10.450 8.106,10.698" fill="#18181f"/>
      <polygon points="8.139,11.482 8.804,11.254 8.804,10.496 8.139,10.724" fill="#00d200"/>
      <polygon points="6.791,12.317 6.791,11.490 7.357,11.808 7.357,12.635" fill="#141419"/>
      <polygon points="6.810,12.297 6.810,11.539 7.329,11.831 7.329,12.589" fill="#e69100"/>
      <polygon points="7.357,12.635 8.082,12.386 8.082,11.560 7.357,11.808" fill="#18181f"/>
      <polygon points="7.390,12.592 8.055,12.364 8.055,11.606 7.390,11.834" fill="#00d200"/>
      <polygon points="5.809,9.617 6.107,9.236 6.977,9.366 6.679,9.748" fill="#252530"/>
      <polygon points="5.857,9.601 6.131,9.252 6.929,9.372 6.655,9.721" fill="#ffffff"/>
      <polygon points="5.809,10.443 5.809,9.617 6.679,9.748 6.679,10.574" fill="#141419"/>
      <polygon points="5.843,10.417 5.843,9.659 6.641,9.779 6.641,10.537" fill="#e69100"/>
      <polygon points="6.791,10.637 7.516,10.388 8.082,10.706 7.357,10.954" fill="#252530"/>
      <polygon points="6.708,9.752 7.006,9.371 7.876,9.502 7.577,9.883" fill="#252530"/>
      <polygon points="6.756,9.737 7.030,9.387 7.828,9.507 7.554,9.857" fill="#ffffff"/>
      <polygon points="6.791,11.463 6.791,10.637 7.357,10.954 7.357,11.781" fill="#141419"/>
      <polygon points="6.810,11.444 6.810,10.685 7.329,10.977 7.329,11.735" fill="#e69100"/>
      <polygon points="7.357,11.781 8.082,11.533 8.082,10.706 7.357,10.954" fill="#18181f"/>
      <polygon points="7.390,11.738 8.055,11.511 8.055,10.752 7.390,10.980" fill="#00d200"/>
      <polygon points="6.708,10.579 6.708,9.752 7.577,9.883 7.577,10.709" fill="#141419"/>
      <polygon points="6.742,10.552 6.742,9.794 7.540,9.914 7.540,10.672" fill="#e69100"/>
      <polygon points="8.476,10.845 8.774,10.463 8.774,9.637 8.476,10.018" fill="#18181f"/>
      <polygon points="8.494,10.795 8.767,10.446 8.767,9.687 8.494,10.037" fill="#00d200"/>
      <polygon points="7.606,9.887 7.905,9.506 8.774,9.637 8.476,10.018" fill="#252530"/>
      <polygon points="7.654,9.872 7.928,9.522 8.726,9.642 8.452,9.992" fill="#ffffff"/>
      <polygon points="7.606,10.714 7.606,9.887 8.476,10.018 8.476,10.845" fill="#141419"/>
      <polygon points="7.640,10.687 7.640,9.929 8.438,10.049 8.438,10.807" fill="#e69100"/>
    </g>
    <g id="f4" opacity="0">
      <polygon points="7.118,9.467 7.843,9.219 8.409,9.537 7.684,9.785" fill="#252530"/>
      <polygon points="6.370,9.724 7.094,9.476 7.661,9.793 6.936,10.041" fill="#252530"/>
      <polygon points="7.703,9.796 8.428,9.547 8.994,9.865 8.269,10.113" fill="#252530"/>
      <polygon points="5.621,11.661 5.621,10.834 6.187,11.152 6.187,11.978" fill="#141419"/>
      <polygon points="8.046,9.000 7.967,8.599 8.883,8.564 8.962,8.966" fill="#252530"/>
      <polygon points="5.640,11.641 5.640,10.883 6.159,11.174 6.159,11.933" fill="#e69100"/>
      <polygon points="8.081,8.977 8.008,8.609 8.849,8.577 8.921,8.945" fill="#ffffff"/>
      <polygon points="7.100,9.036 7.021,8.635 7.937,8.600 8.016,9.001" fill="#252530"/>
      <polygon points="7.134,9.013 7.062,8.645 7.902,8.613 7.975,8.981" fill="#ffffff"/>
      <polygon points="6.153,9.072 6.074,8.670 6.990,8.636 7.069,9.037" fill="#252530"/>
      <polygon points="6.188,9.049 6.115,8.680 6.956,8.649 7.028,9.017" fill="#ffffff"/>
      <polygon points="5.621,9.980 6.346,9.732 6.912,10.050 6.187,10.298" fill="#252530"/>
      <polygon points="6.153,9.899 6.074,9.497 6.074,8.670 6.153,9.072" fill="#111116"/>
      <polygon points="6.144,9.848 6.072,9.480 6.072,8.721 6.144,9.090" fill="#0000eb"/>
      <polygon points="8.854,12.122 9.579,11.874 9.579,11.047 8.854,11.295" fill="#18181f"/>
      <polygon points="8.888,12.079 9.552,11.852 9.552,11.093 8.888,11.321" fill="#00d200"/>
      <polygon points="5.621,10.807 5.621,9.980 6.187,10.298 6.187,11.124" fill="#141419"/>
      <polygon points="5.640,10.787 5.640,10.029 6.159,10.320 6.159,11.079" fill="#e69100"/>
      <polygon points="8.288,10.124 9.013,9.876 9.579,10.193 8.854,10.441" fill="#252530"/>
      <polygon points="6.206,11.989 6.206,11.162 6.772,11.480 6.772,12.306" fill="#141419"/>
      <polygon points="6.225,11.969 6.225,11.211 6.744,11.502 6.744,12.261" fill="#e69100"/>
      <polygon points="8.854,11.268 9.579,11.020 9.579,10.193 8.854,10.441" fill="#18181f"/>
      <polygon points="8.888,11.226 9.552,10.998 9.552,10.240 8.888,10.467" fill="#00d200"/>
      <polygon points="8.128,9.415 8.049,9.014 8.965,8.979 9.044,9.380" fill="#252530"/>
      <polygon points="8.163,9.392 8.090,9.024 8.930,8.992 9.003,9.360" fill="#ffffff"/>
      <polygon points="8.106,12.378 8.830,12.130 8.830,11.303 8.106,11.552" fill="#18181f"/>
      <polygon points="8.139,12.336 8.804,12.108 8.804,11.350 8.139,11.578" fill="#00d200"/>
      <polygon points="7.181,9.451 7.102,9.049 8.019,9.015 8.098,9.416" fill="#252530"/>
      <polygon points="7.216,9.428 7.143,9.059 7.984,9.028 8.057,9.396" fill="#ffffff"/>
      <polygon points="6.235,9.487 6.156,9.085 7.072,9.051 7.151,9.452" fill="#252530"/>
      <polygon points="6.270,9.464 6.197,9.095 7.037,9.063 7.110,9.432" fill="#ffffff"/>
      <polygon points="6.206,10.308 6.931,10.060 7.497,10.378 6.772,10.626" fill="#252530"/>
      <polygon points="6.235,10.313 6.156,9.912 6.156,9.085 6.235,9.487" fill="#111116"/>
      <polygon points="6.226,10.263 6.153,9.894 6.153,9.136 6.226,9.505" fill="#0000eb"/>
      <polygon points="6.206,11.135 6.206,10.308 6.772,10.626 6.772,11.453" fill="#141419"/>
      <polygon points="6.225,11.115 6.225,10.357 6.744,10.649 6.744,11.407" fill="#e69100"/>
      <polygon points="7.539,10.380 8.264,10.132 8.830,10.450 8.106,10.698" fill="#252530"/>
      <polygon points="8.106,11.524 8.830,11.276 8.830,10.450 8.106,10.698" fill="#18181f"/>
      <polygon points="8.139,11.482 8.804,11.254 8.804,10.496 8.139,10.724" fill="#00d200"/>
      <polygon points="6.791,12.317 6.791,11.490 7.357,11.808 7.357,12.635" fill="#141419"/>
      <polygon points="6.810,12.297 6.810,11.539 7.329,11.831 7.329,12.589" fill="#e69100"/>
      <polygon points="7.357,12.635 8.082,12.386 8.082,11.560 7.357,11.808" fill="#18181f"/>
      <polygon points="7.390,12.592 8.055,12.364 8.055,11.606 7.390,11.834" fill="#00d200"/>
      <polygon points="6.317,10.728 6.238,10.327 6.238,9.500 6.317,9.902" fill="#111116"/>
      <polygon points="6.308,10.678 6.235,10.309 6.235,9.551 6.308,9.920" fill="#0000eb"/>
      <polygon points="8.210,9.830 8.131,9.428 9.047,9.394 9.126,9.795" fill="#252530"/>
      <polygon points="8.244,9.807 8.172,9.439 9.012,9.407 9.085,9.775" fill="#ffffff"/>
      <polygon points="6.791,10.637 7.516,10.388 8.082,10.706 7.357,10.954" fill="#252530"/>
      <polygon points="6.791,11.463 6.791,10.637 7.357,10.954 7.357,11.781" fill="#141419"/>
      <polygon points="6.810,11.444 6.810,10.685 7.329,10.977 7.329,11.735" fill="#e69100"/>
      <polygon points="7.263,9.866 7.184,9.464 8.100,9.430 8.179,9.831" fill="#252530"/>
      <polygon points="7.298,9.843 7.225,9.474 8.066,9.443 8.138,9.811" fill="#ffffff"/>
      <polygon points="7.357,11.781 8.082,11.533 8.082,10.706 7.357,10.954" fill="#18181f"/>
      <polygon points="7.390,11.738 8.055,11.511 8.055,10.752 7.390,10.980" fill="#00d200"/>
      <polygon points="6.317,9.902 6.238,9.500 7.154,9.465 7.233,9.867" fill="#252530"/>
      <polygon points="6.351,9.879 6.279,9.510 7.119,9.478 7.192,9.847" fill="#ffffff"/>
      <polygon points="8.210,10.657 8.210,9.830 9.126,9.795 9.126,10.622" fill="#141419"/>
      <polygon points="8.248,10.624 8.248,9.865 9.089,9.833 9.089,10.592" fill="#e69100"/>
      <polygon points="7.263,10.692 7.263,9.866 8.179,9.831 8.179,10.658" fill="#141419"/>
      <polygon points="7.302,10.659 7.302,9.901 8.142,9.869 8.142,10.628" fill="#e69100"/>
      <polygon points="6.317,10.728 6.317,9.902 7.233,9.867 7.233,10.694" fill="#141419"/>
      <polygon points="6.355,10.695 6.355,9.937 7.196,9.905 7.196,10.663" fill="#e69100"/>
    </g>
    <g id="f5" opacity="0">
      <polygon points="7.118,9.467 7.843,9.219 8.409,9.537 7.684,9.785" fill="#252530"/>
      <polygon points="7.856,8.951 7.492,8.580 8.337,8.421 8.701,8.791" fill="#252530"/>
      <polygon points="7.876,8.923 7.542,8.584 8.317,8.438 8.651,8.777" fill="#ffffff"/>
      <polygon points="6.370,9.724 7.094,9.476 7.661,9.793 6.936,10.041" fill="#252530"/>
      <polygon points="7.703,9.796 8.428,9.547 8.994,9.865 8.269,10.113" fill="#252530"/>
      <polygon points="5.621,11.661 5.621,10.834 6.187,11.152 6.187,11.978" fill="#141419"/>
      <polygon points="5.640,11.641 5.640,10.883 6.159,11.174 6.159,11.933" fill="#e69100"/>
      <polygon points="6.984,9.115 6.620,8.745 7.465,8.586 7.828,8.956" fill="#252530"/>
      <polygon points="7.004,9.088 6.670,8.749 7.445,8.602 7.778,8.942" fill="#ffffff"/>
      <polygon points="5.621,9.980 6.346,9.732 6.912,10.050 6.187,10.298" fill="#252530"/>
      <polygon points="8.854,12.122 9.579,11.874 9.579,11.047 8.854,11.295" fill="#18181f"/>
      <polygon points="8.888,12.079 9.552,11.852 9.552,11.093 8.888,11.321" fill="#00d200"/>
      <polygon points="5.621,10.807 5.621,9.980 6.187,10.298 6.187,11.124" fill="#141419"/>
      <polygon points="5.640,10.787 5.640,10.029 6.159,10.320 6.159,11.079" fill="#e69100"/>
      <polygon points="6.111,10.107 5.747,9.736 5.747,8.910 6.111,9.280" fill="#111116"/>
      <polygon points="6.091,10.058 5.757,9.718 5.757,8.960 6.091,9.300" fill="#0000eb"/>
      <polygon points="6.111,9.280 5.747,8.910 6.592,8.750 6.956,9.121" fill="#252530"/>
      <polygon points="6.131,9.253 5.797,8.913 6.572,8.767 6.906,9.107" fill="#ffffff"/>
      <polygon points="8.232,9.333 7.868,8.963 8.713,8.803 9.077,9.173" fill="#252530"/>
      <polygon points="8.252,9.306 7.918,8.966 8.693,8.820 9.027,9.160" fill="#ffffff"/>
      <polygon points="8.288,10.124 9.013,9.876 9.579,10.193 8.854,10.441" fill="#252530"/>
      <polygon points="6.206,11.989 6.206,11.162 6.772,11.480 6.772,12.306" fill="#141419"/>
      <polygon points="6.225,11.969 6.225,11.211 6.744,11.502 6.744,12.261" fill="#e69100"/>
      <polygon points="8.854,11.268 9.579,11.020 9.579,10.193 8.854,10.441" fill="#18181f"/>
      <polygon points="8.888,11.226 9.552,10.998 9.552,10.240 8.888,10.467" fill="#00d200"/>
      <polygon points="8.106,12.378 8.830,12.130 8.830,11.303 8.106,11.552" fill="#18181f"/>
      <polygon points="8.139,12.336 8.804,12.108 8.804,11.350 8.139,11.578" fill="#00d200"/>
      <polygon points="7.360,9.498 6.996,9.128 7.840,8.968 8.204,9.338" fill="#252530"/>
      <polygon points="7.379,9.471 7.046,9.131 7.821,8.985 8.154,9.324" fill="#ffffff"/>
      <polygon points="6.206,10.308 6.931,10.060 7.497,10.378 6.772,10.626" fill="#252530"/>
      <polygon points="6.206,11.135 6.206,10.308 6.772,10.626 6.772,11.453" fill="#141419"/>
      <polygon points="6.225,11.115 6.225,10.357 6.744,10.649 6.744,11.407" fill="#e69100"/>
      <polygon points="7.539,10.380 8.264,10.132 8.830,10.450 8.106,10.698" fill="#252530"/>
      <polygon points="6.487,10.489 6.123,10.119 6.123,9.292 6.487,9.663" fill="#111116"/>
      <polygon points="6.467,10.441 6.133,10.101 6.133,9.343 6.467,9.682" fill="#0000eb"/>
      <polygon points="6.487,9.663 6.123,9.292 6.968,9.133 7.332,9.503" fill="#252530"/>
      <polygon points="6.507,9.635 6.173,9.296 6.948,9.150 7.282,9.489" fill="#ffffff"/>
      <polygon points="8.106,11.524 8.830,11.276 8.830,10.450 8.106,10.698" fill="#18181f"/>
      <polygon points="8.139,11.482 8.804,11.254 8.804,10.496 8.139,10.724" fill="#00d200"/>
      <polygon points="6.791,12.317 6.791,11.490 7.357,11.808 7.357,12.635" fill="#141419"/>
      <polygon points="6.810,12.297 6.810,11.539 7.329,11.831 7.329,12.589" fill="#e69100"/>
      <polygon points="8.608,9.715 8.244,9.345 9.089,9.186 9.453,9.556" fill="#252530"/>
      <polygon points="8.628,9.688 8.294,9.349 9.069,9.202 9.403,9.542" fill="#ffffff"/>
      <polygon points="7.357,12.635 8.082,12.386 8.082,11.560 7.357,11.808" fill="#18181f"/>
      <polygon points="7.390,12.592 8.055,12.364 8.055,11.606 7.390,11.834" fill="#00d200"/>
      <polygon points="8.608,10.542 8.608,9.715 9.453,9.556 9.453,10.382" fill="#141419"/>
      <polygon points="8.645,10.504 8.645,9.745 9.420,9.599 9.420,10.357" fill="#e69100"/>
      <polygon points="6.791,10.637 7.516,10.388 8.082,10.706 7.357,10.954" fill="#252530"/>
      <polygon points="7.735,9.880 7.372,9.510 8.216,9.350 8.580,9.721" fill="#252530"/>
      <polygon points="7.755,9.853 7.422,9.514 8.196,9.367 8.530,9.707" fill="#ffffff"/>
      <polygon points="6.791,11.463 6.791,10.637 7.357,10.954 7.357,11.781" fill="#141419"/>
      <polygon points="6.810,11.444 6.810,10.685 7.329,10.977 7.329,11.735" fill="#e69100"/>
      <polygon points="7.357,11.781 8.082,11.533 8.082,10.706 7.357,10.954" fill="#18181f"/>
      <polygon points="7.390,11.738 8.055,11.511 8.055,10.752 7.390,10.980" fill="#00d200"/>
      <polygon points="7.735,10.707 7.735,9.880 8.580,9.721 8.580,10.547" fill="#141419"/>
      <polygon points="7.773,10.668 7.773,9.910 8.547,9.764 8.547,10.522" fill="#e69100"/>
      <polygon points="6.863,10.872 6.499,10.501 6.499,9.675 6.863,10.045" fill="#111116"/>
      <polygon points="6.843,10.823 6.509,10.483 6.509,9.725 6.843,10.065" fill="#0000eb"/>
      <polygon points="6.863,10.045 6.499,9.675 7.344,9.515 7.708,9.885" fill="#252530"/>
      <polygon points="6.883,10.018 6.549,9.678 7.324,9.532 7.658,9.872" fill="#ffffff"/>
      <polygon points="6.863,10.872 6.863,10.045 7.708,9.885 7.708,10.712" fill="#141419"/>
      <polygon points="6.900,10.833 6.900,10.075 7.675,9.929 7.675,10.687" fill="#e69100"/>
    </g>
    <g id="f6" opacity="0">
      <polygon points="7.118,9.467 7.843,9.219 8.409,9.537 7.684,9.785" fill="#252530"/>
      <polygon points="7.728,8.934 7.210,8.601 7.969,8.374 8.488,8.707" fill="#252530"/>
      <polygon points="7.738,8.906 7.263,8.601 7.959,8.392 8.435,8.697" fill="#ffffff"/>
      <polygon points="6.370,9.724 7.094,9.476 7.661,9.793 6.936,10.041" fill="#252530"/>
      <polygon points="7.703,9.796 8.428,9.547 8.994,9.865 8.269,10.113" fill="#252530"/>
      <polygon points="5.621,11.661 5.621,10.834 6.187,11.152 6.187,11.978" fill="#141419"/>
      <polygon points="5.640,11.641 5.640,10.883 6.159,11.174 6.159,11.933" fill="#e69100"/>
      <polygon points="6.944,9.169 6.425,8.836 7.185,8.609 7.703,8.942" fill="#252530"/>
      <polygon points="6.954,9.141 6.478,8.835 7.175,8.627 7.650,8.932" fill="#ffffff"/>
      <polygon points="5.621,9.980 6.346,9.732 6.912,10.050 6.187,10.298" fill="#252530"/>
      <polygon points="8.854,12.122 9.579,11.874 9.579,11.047 8.854,11.295" fill="#18181f"/>
      <polygon points="8.888,12.079 9.552,11.852 9.552,11.093 8.888,11.321" fill="#00d200"/>
      <polygon points="5.621,10.807 5.621,9.980 6.187,10.298 6.187,11.124" fill="#141419"/>
      <polygon points="5.640,10.787 5.640,10.029 6.159,10.320 6.159,11.079" fill="#e69100"/>
      <polygon points="8.264,9.278 7.746,8.945 8.505,8.718 9.024,9.051" fill="#252530"/>
      <polygon points="8.274,9.250 7.798,8.944 8.495,8.736 8.971,9.041" fill="#ffffff"/>
      <polygon points="8.288,10.124 9.013,9.876 9.579,10.193 8.854,10.441" fill="#252530"/>
      <polygon points="6.206,11.989 6.206,11.162 6.772,11.480 6.772,12.306" fill="#141419"/>
      <polygon points="6.225,11.969 6.225,11.211 6.744,11.502 6.744,12.261" fill="#e69100"/>
      <polygon points="6.159,9.404 5.641,9.071 6.400,8.844 6.919,9.177" fill="#252530"/>
      <polygon points="6.169,9.376 5.694,9.070 6.390,8.862 6.866,9.167" fill="#ffffff"/>
      <polygon points="6.159,10.230 5.641,9.898 5.641,9.071 6.159,9.404" fill="#111116"/>
      <polygon points="6.133,10.184 5.657,9.879 5.657,9.120 6.133,9.426" fill="#0000eb"/>
      <polygon points="8.854,11.268 9.579,11.020 9.579,10.193 8.854,10.441" fill="#18181f"/>
      <polygon points="8.888,11.226 9.552,10.998 9.552,10.240 8.888,10.467" fill="#00d200"/>
      <polygon points="8.106,12.378 8.830,12.130 8.830,11.303 8.106,11.552" fill="#18181f"/>
      <polygon points="8.139,12.336 8.804,12.108 8.804,11.350 8.139,11.578" fill="#00d200"/>
      <polygon points="7.480,9.513 6.961,9.180 7.720,8.953 8.239,9.286" fill="#252530"/>
      <polygon points="7.490,9.485 7.014,9.179 7.710,8.971 8.186,9.276" fill="#ffffff"/>
      <polygon points="6.206,10.308 6.931,10.060 7.497,10.378 6.772,10.626" fill="#252530"/>
      <polygon points="6.206,11.135 6.206,10.308 6.772,10.626 6.772,11.453" fill="#141419"/>
      <polygon points="6.225,11.115 6.225,10.357 6.744,10.649 6.744,11.407" fill="#e69100"/>
      <polygon points="8.800,9.622 8.281,9.289 9.041,9.062 9.559,9.395" fill="#252530"/>
      <polygon points="8.810,9.594 8.334,9.288 9.031,9.080 9.506,9.385" fill="#ffffff"/>
      <polygon points="7.539,10.380 8.264,10.132 8.830,10.450 8.106,10.698" fill="#252530"/>
      <polygon points="8.800,10.449 8.800,9.622 9.559,9.395 9.559,10.221" fill="#141419"/>
      <polygon points="8.834,10.407 8.834,9.649 9.531,9.440 9.531,10.199" fill="#e69100"/>
      <polygon points="8.106,11.524 8.830,11.276 8.830,10.450 8.106,10.698" fill="#18181f"/>
      <polygon points="8.139,11.482 8.804,11.254 8.804,10.496 8.139,10.724" fill="#00d200"/>
      <polygon points="6.791,12.317 6.791,11.490 7.357,11.808 7.357,12.635" fill="#141419"/>
      <polygon points="6.810,12.297 6.810,11.539 7.329,11.831 7.329,12.589" fill="#e69100"/>
      <polygon points="6.695,9.748 6.176,9.415 6.936,9.188 7.454,9.521" fill="#252530"/>
      <polygon points="6.705,9.720 6.229,9.414 6.926,9.206 7.402,9.511" fill="#ffffff"/>
      <polygon points="7.357,12.635 8.082,12.386 8.082,11.560 7.357,11.808" fill="#18181f"/>
      <polygon points="7.390,12.592 8.055,12.364 8.055,11.606 7.390,11.834" fill="#00d200"/>
      <polygon points="6.695,10.574 6.176,10.241 6.176,9.415 6.695,9.748" fill="#111116"/>
      <polygon points="6.669,10.528 6.193,10.222 6.193,9.464 6.669,9.770" fill="#0000eb"/>
      <polygon points="8.015,9.857 7.497,9.524 8.256,9.297 8.775,9.630" fill="#252530"/>
      <polygon points="8.025,9.829 7.550,9.523 8.246,9.315 8.722,9.620" fill="#ffffff"/>
      <polygon points="6.791,10.637 7.516,10.388 8.082,10.706 7.357,10.954" fill="#252530"/>
      <polygon points="6.791,11.463 6.791,10.637 7.357,10.954 7.357,11.781" fill="#141419"/>
      <polygon points="6.810,11.444 6.810,10.685 7.329,10.977 7.329,11.735" fill="#e69100"/>
      <polygon points="8.015,10.683 8.015,9.857 8.775,9.630 8.775,10.456" fill="#141419"/>
      <polygon points="8.050,10.642 8.050,9.884 8.747,9.675 8.747,10.433" fill="#e69100"/>
      <polygon points="7.357,11.781 8.082,11.533 8.082,10.706 7.357,10.954" fill="#18181f"/>
      <polygon points="7.390,11.738 8.055,11.511 8.055,10.752 7.390,10.980" fill="#00d200"/>
      <polygon points="7.231,10.092 6.712,9.759 7.472,9.532 7.990,9.864" fill="#252530"/>
      <polygon points="7.241,10.063 6.765,9.758 7.462,9.550 7.937,9.855" fill="#ffffff"/>
      <polygon points="7.231,10.918 6.712,10.585 6.712,9.759 7.231,10.092" fill="#111116"/>
      <polygon points="7.205,10.872 6.729,10.566 6.729,9.808 7.205,10.114" fill="#0000eb"/>
      <polygon points="7.231,10.918 7.231,10.092 7.990,9.864 7.990,10.691" fill="#141419"/>
      <polygon points="7.265,10.877 7.265,10.119 7.962,9.910 7.962,10.668" fill="#e69100"/>
    </g>
    <g id="f7" opacity="0">
      <polygon points="7.684,8.931 7.118,8.614 7.843,8.365 8.409,8.683" fill="#252530"/>
      <polygon points="7.691,8.903 7.172,8.611 7.836,8.384 8.356,8.675" fill="#ffffff"/>
      <polygon points="5.621,11.661 5.621,10.834 6.187,11.152 6.187,11.978" fill="#141419"/>
      <polygon points="5.640,11.641 5.640,10.883 6.159,11.174 6.159,11.933" fill="#e69100"/>
      <polygon points="6.936,9.188 6.370,8.870 7.094,8.622 7.661,8.939" fill="#252530"/>
      <polygon points="6.942,9.159 6.423,8.868 7.088,8.640 7.607,8.931" fill="#ffffff"/>
      <polygon points="8.854,12.122 9.579,11.874 9.579,11.047 8.854,11.295" fill="#18181f"/>
      <polygon points="8.888,12.079 9.552,11.852 9.552,11.093 8.888,11.321" fill="#00d200"/>
      <polygon points="8.269,9.259 7.703,8.942 8.428,8.694 8.994,9.011" fill="#252530"/>
      <polygon points="8.276,9.231 7.757,8.939 8.421,8.712 8.941,9.003" fill="#ffffff"/>
      <polygon points="5.621,10.807 5.621,9.980 6.187,10.298 6.187,11.124" fill="#141419"/>
      <polygon points="5.640,10.787 5.640,10.029 6.159,10.320 6.159,11.079" fill="#e69100"/>
      <polygon points="6.206,11.989 6.206,11.162 6.772,11.480 6.772,12.306" fill="#141419"/>
      <polygon points="6.225,11.969 6.225,11.211 6.744,11.502 6.744,12.261" fill="#e69100"/>
      <polygon points="6.187,9.444 5.621,9.126 6.346,8.878 6.912,9.196" fill="#252530"/>
      <polygon points="8.854,11.268 9.579,11.020 9.579,10.193 8.854,10.441" fill="#18181f"/>
      <polygon points="6.194,9.416 5.674,9.124 6.339,8.896 6.859,9.188" fill="#ffffff"/>
      <polygon points="8.888,11.226 9.552,10.998 9.552,10.240 8.888,10.467" fill="#00d200"/>
      <polygon points="6.187,10.271 5.621,9.953 5.621,9.126 6.187,9.444" fill="#111116"/>
      <polygon points="6.159,10.225 5.640,9.933 5.640,9.175 6.159,9.467" fill="#0000eb"/>
      <polygon points="8.106,12.378 8.830,12.130 8.830,11.303 8.106,11.552" fill="#18181f"/>
      <polygon points="8.139,12.336 8.804,12.108 8.804,11.350 8.139,11.578" fill="#00d200"/>
      <polygon points="7.521,9.516 6.955,9.198 7.679,8.950 8.245,9.268" fill="#252530"/>
      <polygon points="7.527,9.487 7.008,9.196 7.673,8.968 8.192,9.260" fill="#ffffff"/>
      <polygon points="8.854,9.588 8.288,9.270 9.013,9.022 9.579,9.339" fill="#252530"/>
      <polygon points="8.861,9.559 8.341,9.268 9.006,9.040 9.526,9.331" fill="#ffffff"/>
      <polygon points="6.206,11.135 6.206,10.308 6.772,10.626 6.772,11.453" fill="#141419"/>
      <polygon points="6.225,11.115 6.225,10.357 6.744,10.649 6.744,11.407" fill="#e69100"/>
      <polygon points="8.854,10.414 8.854,9.588 9.579,9.339 9.579,10.166" fill="#141419"/>
      <polygon points="8.888,10.372 8.888,9.613 9.552,9.386 9.552,10.144" fill="#e69100"/>
      <polygon points="8.106,11.524 8.830,11.276 8.830,10.450 8.106,10.698" fill="#18181f"/>
      <polygon points="8.139,11.482 8.804,11.254 8.804,10.496 8.139,10.724" fill="#00d200"/>
      <polygon points="6.791,12.317 6.791,11.490 7.357,11.808 7.357,12.635" fill="#141419"/>
      <polygon points="6.810,12.297 6.810,11.539 7.329,11.831 7.329,12.589" fill="#e69100"/>
      <polygon points="7.357,12.635 8.082,12.386 8.082,11.560 7.357,11.808" fill="#18181f"/>
      <polygon points="7.390,12.592 8.055,12.364 8.055,11.606 7.390,11.834" fill="#00d200"/>
      <polygon points="6.772,9.772 6.206,9.455 6.931,9.206 7.497,9.524" fill="#252530"/>
      <polygon points="6.779,9.744 6.259,9.452 6.924,9.225 7.443,9.516" fill="#ffffff"/>
      <polygon points="6.772,10.599 6.206,10.281 6.206,9.455 6.772,9.772" fill="#111116"/>
      <polygon points="6.744,10.553 6.225,10.262 6.225,9.503 6.744,9.795" fill="#0000eb"/>
      <polygon points="8.106,9.844 7.539,9.526 8.264,9.278 8.830,9.596" fill="#252530"/>
      <polygon points="8.112,9.815 7.593,9.524 8.258,9.296 8.777,9.588" fill="#ffffff"/>
      <polygon points="8.106,10.671 8.106,9.844 8.830,9.596 8.830,10.422" fill="#141419"/>
      <polygon points="8.139,10.628 8.139,9.870 8.804,9.642 8.804,10.400" fill="#e69100"/>
      <polygon points="6.791,11.463 6.791,10.637 7.357,10.954 7.357,11.781" fill="#141419"/>
      <polygon points="6.810,11.444 6.810,10.685 7.329,10.977 7.329,11.735" fill="#e69100"/>
      <polygon points="7.357,11.781 8.082,11.533 8.082,10.706 7.357,10.954" fill="#18181f"/>
      <polygon points="7.390,11.738 8.055,11.511 8.055,10.752 7.390,10.980" fill="#00d200"/>
      <polygon points="7.357,10.100 6.791,9.783 7.516,9.535 8.082,9.852" fill="#252530"/>
      <polygon points="7.364,10.072 6.844,9.780 7.509,9.553 8.028,9.844" fill="#ffffff"/>
      <polygon points="7.357,10.927 6.791,10.609 6.791,9.783 7.357,10.100" fill="#111116"/>
      <polygon points="7.329,10.881 6.810,10.590 6.810,9.832 7.329,10.123" fill="#0000eb"/>
      <polygon points="7.357,10.927 7.357,10.100 8.082,9.852 8.082,10.679" fill="#141419"/>
      <polygon points="7.390,10.884 7.390,10.126 8.055,9.899 8.055,10.657" fill="#e69100"/>
    </g>
    <g id="f8" opacity="0">
      <polygon points="7.118,9.467 7.843,9.219 8.409,9.537 7.684,9.785" fill="#252530"/>
      <polygon points="7.728,8.934 7.210,8.601 7.969,8.374 8.488,8.707" fill="#252530"/>
      <polygon points="7.738,8.906 7.263,8.601 7.959,8.392 8.435,8.697" fill="#ffffff"/>
      <polygon points="6.370,9.724 7.094,9.476 7.661,9.793 6.936,10.041" fill="#252530"/>
      <polygon points="7.703,9.796 8.428,9.547 8.994,9.865 8.269,10.113" fill="#252530"/>
      <polygon points="5.621,11.661 5.621,10.834 6.187,11.152 6.187,11.978" fill="#141419"/>
      <polygon points="5.640,11.641 5.640,10.883 6.159,11.174 6.159,11.933" fill="#e69100"/>
      <polygon points="6.944,9.169 6.425,8.836 7.185,8.609 7.703,8.942" fill="#252530"/>
      <polygon points="6.954,9.141 6.478,8.835 7.175,8.627 7.650,8.932" fill="#ffffff"/>
      <polygon points="5.621,9.980 6.346,9.732 6.912,10.050 6.187,10.298" fill="#252530"/>
      <polygon points="8.854,12.122 9.579,11.874 9.579,11.047 8.854,11.295" fill="#18181f"/>
      <polygon points="8.888,12.079 9.552,11.852 9.552,11.093 8.888,11.321" fill="#00d200"/>
      <polygon points="5.621,10.807 5.621,9.980 6.187,10.298 6.187,11.124" fill="#141419"/>
      <polygon points="5.640,10.787 5.640,10.029 6.159,10.320 6.159,11.079" fill="#e69100"/>
      <polygon points="8.264,9.278 7.746,8.945 8.505,8.718 9.024,9.051" fill="#252530"/>
      <polygon points="8.274,9.250 7.798,8.944 8.495,8.736 8.971,9.041" fill="#ffffff"/>
      <polygon points="8.288,10.124 9.013,9.876 9.579,10.193 8.854,10.441" fill="#252530"/>
      <polygon points="6.206,11.989 6.206,11.162 6.772,11.480 6.772,12.306" fill="#141419"/>
      <polygon points="6.225,11.969 6.225,11.211 6.744,11.502 6.744,12.261" fill="#e69100"/>
      <polygon points="6.159,9.404 5.641,9.071 6.400,8.844 6.919,9.177" fill="#252530"/>
      <polygon points="6.169,9.376 5.694,9.070 6.390,8.862 6.866,9.167" fill="#ffffff"/>
      <polygon points="6.159,10.230 5.641,9.898 5.641,9.071 6.159,9.404" fill="#111116"/>
      <polygon points="6.133,10.184 5.657,9.879 5.657,9.120 6.133,9.426" fill="#0000eb"/>
      <polygon points="8.854,11.268 9.579,11.020 9.579,10.193 8.854,10.441" fill="#18181f"/>
      <polygon points="8.888,11.226 9.552,10.998 9.552,10.240 8.888,10.467" fill="#00d200"/>
      <polygon points="8.106,12.378 8.830,12.130 8.830,11.303 8.106,11.552" fill="#18181f"/>
      <polygon points="8.139,12.336 8.804,12.108 8.804,11.350 8.139,11.578" fill="#00d200"/>
      <polygon points="7.480,9.513 6.961,9.180 7.720,8.953 8.239,9.286" fill="#252530"/>
      <polygon points="7.490,9.485 7.014,9.179 7.710,8.971 8.186,9.276" fill="#ffffff"/>
      <polygon points="6.206,10.308 6.931,10.060 7.497,10.378 6.772,10.626" fill="#252530"/>
      <polygon points="6.206,11.135 6.206,10.308 6.772,10.626 6.772,11.453" fill="#141419"/>
      <polygon points="6.225,11.115 6.225,10.357 6.744,10.649 6.744,11.407" fill="#e69100"/>
      <polygon points="8.800,9.622 8.281,9.289 9.041,9.062 9.559,9.395" fill="#252530"/>
      <polygon points="8.810,9.594 8.334,9.288 9.031,9.080 9.506,9.385" fill="#ffffff"/>
      <polygon points="7.539,10.380 8.264,10.132 8.830,10.450 8.106,10.698" fill="#252530"/>
      <polygon points="8.800,10.449 8.800,9.622 9.559,9.395 9.559,10.221" fill="#141419"/>
      <polygon points="8.834,10.407 8.834,9.649 9.531,9.440 9.531,10.199" fill="#e69100"/>
      <polygon points="8.106,11.524 8.830,11.276 8.830,10.450 8.106,10.698" fill="#18181f"/>
      <polygon points="8.139,11.482 8.804,11.254 8.804,10.496 8.139,10.724" fill="#00d200"/>
      <polygon points="6.791,12.317 6.791,11.490 7.357,11.808 7.357,12.635" fill="#141419"/>
      <polygon points="6.810,12.297 6.810,11.539 7.329,11.831 7.329,12.589" fill="#e69100"/>
      <polygon points="6.695,9.748 6.176,9.415 6.936,9.188 7.454,9.521" fill="#252530"/>
      <polygon points="6.705,9.720 6.229,9.414 6.926,9.206 7.402,9.511" fill="#ffffff"/>
      <polygon points="7.357,12.635 8.082,12.386 8.082,11.560 7.357,11.808" fill="#18181f"/>
      <polygon points="7.390,12.592 8.055,12.364 8.055,11.606 7.390,11.834" fill="#00d200"/>
      <polygon points="6.695,10.574 6.176,10.241 6.176,9.415 6.695,9.748" fill="#111116"/>
      <polygon points="6.669,10.528 6.193,10.222 6.193,9.464 6.669,9.770" fill="#0000eb"/>
      <polygon points="8.015,9.857 7.497,9.524 8.256,9.297 8.775,9.630" fill="#252530"/>
      <polygon points="8.025,9.829 7.550,9.523 8.246,9.315 8.722,9.620" fill="#ffffff"/>
      <polygon points="6.791,10.637 7.516,10.388 8.082,10.706 7.357,10.954" fill="#252530"/>
      <polygon points="6.791,11.463 6.791,10.637 7.357,10.954 7.357,11.781" fill="#141419"/>
      <polygon points="6.810,11.444 6.810,10.685 7.329,10.977 7.329,11.735" fill="#e69100"/>
      <polygon points="8.015,10.683 8.015,9.857 8.775,9.630 8.775,10.456" fill="#141419"/>
      <polygon points="8.050,10.642 8.050,9.884 8.747,9.675 8.747,10.433" fill="#e69100"/>
      <polygon points="7.357,11.781 8.082,11.533 8.082,10.706 7.357,10.954" fill="#18181f"/>
      <polygon points="7.390,11.738 8.055,11.511 8.055,10.752 7.390,10.980" fill="#00d200"/>
      <polygon points="7.231,10.092 6.712,9.759 7.472,9.532 7.990,9.864" fill="#252530"/>
      <polygon points="7.241,10.063 6.765,9.758 7.462,9.550 7.937,9.855" fill="#ffffff"/>
      <polygon points="7.231,10.918 6.712,10.585 6.712,9.759 7.231,10.092" fill="#111116"/>
      <polygon points="7.205,10.872 6.729,10.566 6.729,9.808 7.205,10.114" fill="#0000eb"/>
      <polygon points="7.231,10.918 7.231,10.092 7.990,9.864 7.990,10.691" fill="#141419"/>
      <polygon points="7.265,10.877 7.265,10.119 7.962,9.910 7.962,10.668" fill="#e69100"/>
    </g>
    <g id="f9" opacity="0">
      <polygon points="7.118,9.467 7.843,9.219 8.409,9.537 7.684,9.785" fill="#252530"/>
      <polygon points="7.856,8.951 7.492,8.580 8.337,8.421 8.701,8.791" fill="#252530"/>
      <polygon points="7.876,8.923 7.542,8.584 8.317,8.438 8.651,8.777" fill="#ffffff"/>
      <polygon points="6.370,9.724 7.094,9.476 7.661,9.793 6.936,10.041" fill="#252530"/>
      <polygon points="7.703,9.796 8.428,9.547 8.994,9.865 8.269,10.113" fill="#252530"/>
      <polygon points="5.621,11.661 5.621,10.834 6.187,11.152 6.187,11.978" fill="#141419"/>
      <polygon points="5.640,11.641 5.640,10.883 6.159,11.174 6.159,11.933" fill="#e69100"/>
      <polygon points="6.984,9.115 6.620,8.745 7.465,8.586 7.828,8.956" fill="#252530"/>
      <polygon points="7.004,9.088 6.670,8.749 7.445,8.602 7.778,8.942" fill="#ffffff"/>
      <polygon points="5.621,9.980 6.346,9.732 6.912,10.050 6.187,10.298" fill="#252530"/>
      <polygon points="8.854,12.122 9.579,11.874 9.579,11.047 8.854,11.295" fill="#18181f"/>
      <polygon points="8.888,12.079 9.552,11.852 9.552,11.093 8.888,11.321" fill="#00d200"/>
      <polygon points="5.621,10.807 5.621,9.980 6.187,10.298 6.187,11.124" fill="#141419"/>
      <polygon points="5.640,10.787 5.640,10.029 6.159,10.320 6.159,11.079" fill="#e69100"/>
      <polygon points="6.111,10.107 5.747,9.736 5.747,8.910 6.111,9.280" fill="#111116"/>
      <polygon points="6.091,10.058 5.757,9.718 5.757,8.960 6.091,9.300" fill="#0000eb"/>
      <polygon points="6.111,9.280 5.747,8.910 6.592,8.750 6.956,9.121" fill="#252530"/>
      <polygon points="6.131,9.253 5.797,8.913 6.572,8.767 6.906,9.107" fill="#ffffff"/>
      <polygon points="8.232,9.333 7.868,8.963 8.713,8.803 9.077,9.173" fill="#252530"/>
      <polygon points="8.252,9.306 7.918,8.966 8.693,8.820 9.027,9.160" fill="#ffffff"/>
      <polygon points="8.288,10.124 9.013,9.876 9.579,10.193 8.854,10.441" fill="#252530"/>
      <polygon points="6.206,11.989 6.206,11.162 6.772,11.480 6.772,12.306" fill="#141419"/>
      <polygon points="6.225,11.969 6.225,11.211 6.744,11.502 6.744,12.261" fill="#e69100"/>
      <polygon points="8.854,11.268 9.579,11.020 9.579,10.193 8.854,10.441" fill="#18181f"/>
      <polygon points="8.888,11.226 9.552,10.998 9.552,10.240 8.888,10.467" fill="#00d200"/>
      <polygon points="8.106,12.378 8.830,12.130 8.830,11.303 8.106,11.552" fill="#18181f"/>
      <polygon points="8.139,12.336 8.804,12.108 8.804,11.350 8.139,11.578" fill="#00d200"/>
      <polygon points="7.360,9.498 6.996,9.128 7.840,8.968 8.204,9.338" fill="#252530"/>
      <polygon points="7.379,9.471 7.046,9.131 7.821,8.985 8.154,9.324" fill="#ffffff"/>
      <polygon points="6.206,10.308 6.931,10.060 7.497,10.378 6.772,10.626" fill="#252530"/>
      <polygon points="6.206,11.135 6.206,10.308 6.772,10.626 6.772,11.453" fill="#141419"/>
      <polygon points="6.225,11.115 6.225,10.357 6.744,10.649 6.744,11.407" fill="#e69100"/>
      <polygon points="7.539,10.380 8.264,10.132 8.830,10.450 8.106,10.698" fill="#252530"/>
      <polygon points="6.487,10.489 6.123,10.119 6.123,9.292 6.487,9.663" fill="#111116"/>
      <polygon points="6.467,10.441 6.133,10.101 6.133,9.343 6.467,9.682" fill="#0000eb"/>
      <polygon points="6.487,9.663 6.123,9.292 6.968,9.133 7.332,9.503" fill="#252530"/>
      <polygon points="6.507,9.635 6.173,9.296 6.948,9.150 7.282,9.489" fill="#ffffff"/>
      <polygon points="8.106,11.524 8.830,11.276 8.830,10.450 8.106,10.698" fill="#18181f"/>
      <polygon points="8.139,11.482 8.804,11.254 8.804,10.496 8.139,10.724" fill="#00d200"/>
      <polygon points="6.791,12.317 6.791,11.490 7.357,11.808 7.357,12.635" fill="#141419"/>
      <polygon points="6.810,12.297 6.810,11.539 7.329,11.831 7.329,12.589" fill="#e69100"/>
      <polygon points="8.608,9.715 8.244,9.345 9.089,9.186 9.453,9.556" fill="#252530"/>
      <polygon points="8.628,9.688 8.294,9.349 9.069,9.202 9.403,9.542" fill="#ffffff"/>
      <polygon points="7.357,12.635 8.082,12.386 8.082,11.560 7.357,11.808" fill="#18181f"/>
      <polygon points="7.390,12.592 8.055,12.364 8.055,11.606 7.390,11.834" fill="#00d200"/>
      <polygon points="8.608,10.542 8.608,9.715 9.453,9.556 9.453,10.382" fill="#141419"/>
      <polygon points="8.645,10.504 8.645,9.745 9.420,9.599 9.420,10.357" fill="#e69100"/>
      <polygon points="6.791,10.637 7.516,10.388 8.082,10.706 7.357,10.954" fill="#252530"/>
      <polygon points="7.735,9.880 7.372,9.510 8.216,9.350 8.580,9.721" fill="#252530"/>
      <polygon points="7.755,9.853 7.422,9.514 8.196,9.367 8.530,9.707" fill="#ffffff"/>
      <polygon points="6.791,11.463 6.791,10.637 7.357,10.954 7.357,11.781" fill="#141419"/>
      <polygon points="6.810,11.444 6.810,10.685 7.329,10.977 7.329,11.735" fill="#e69100"/>
      <polygon points="7.357,11.781 8.082,11.533 8.082,10.706 7.357,10.954" fill="#18181f"/>
      <polygon points="7.390,11.738 8.055,11.511 8.055,10.752 7.390,10.980" fill="#00d200"/>
      <polygon points="7.735,10.707 7.735,9.880 8.580,9.721 8.580,10.547" fill="#141419"/>
      <polygon points="7.773,10.668 7.773,9.910 8.547,9.764 8.547,10.522" fill="#e69100"/>
      <polygon points="6.863,10.872 6.499,10.501 6.499,9.675 6.863,10.045" fill="#111116"/>
      <polygon points="6.843,10.823 6.509,10.483 6.509,9.725 6.843,10.065" fill="#0000eb"/>
      <polygon points="6.863,10.045 6.499,9.675 7.344,9.515 7.708,9.885" fill="#252530"/>
      <polygon points="6.883,10.018 6.549,9.678 7.324,9.532 7.658,9.872" fill="#ffffff"/>
      <polygon points="6.863,10.872 6.863,10.045 7.708,9.885 7.708,10.712" fill="#141419"/>
      <polygon points="6.900,10.833 6.900,10.075 7.675,9.929 7.675,10.687" fill="#e69100"/>
    </g>
    <g id="f10" opacity="0">
      <polygon points="7.118,9.467 7.843,9.219 8.409,9.537 7.684,9.785" fill="#252530"/>
      <polygon points="6.370,9.724 7.094,9.476 7.661,9.793 6.936,10.041" fill="#252530"/>
      <polygon points="7.703,9.796 8.428,9.547 8.994,9.865 8.269,10.113" fill="#252530"/>
      <polygon points="5.621,11.661 5.621,10.834 6.187,11.152 6.187,11.978" fill="#141419"/>
      <polygon points="8.046,9.000 7.967,8.599 8.883,8.564 8.962,8.966" fill="#252530"/>
      <polygon points="5.640,11.641 5.640,10.883 6.159,11.174 6.159,11.933" fill="#e69100"/>
      <polygon points="8.081,8.977 8.008,8.609 8.849,8.577 8.921,8.945" fill="#ffffff"/>
      <polygon points="7.100,9.036 7.021,8.635 7.937,8.600 8.016,9.001" fill="#252530"/>
      <polygon points="7.134,9.013 7.062,8.645 7.902,8.613 7.975,8.981" fill="#ffffff"/>
      <polygon points="6.153,9.072 6.074,8.670 6.990,8.636 7.069,9.037" fill="#252530"/>
      <polygon points="6.188,9.049 6.115,8.680 6.956,8.649 7.028,9.017" fill="#ffffff"/>
      <polygon points="5.621,9.980 6.346,9.732 6.912,10.050 6.187,10.298" fill="#252530"/>
      <polygon points="6.153,9.899 6.074,9.497 6.074,8.670 6.153,9.072" fill="#111116"/>
      <polygon points="6.144,9.848 6.072,9.480 6.072,8.721 6.144,9.090" fill="#0000eb"/>
      <polygon points="8.854,12.122 9.579,11.874 9.579,11.047 8.854,11.295" fill="#18181f"/>
      <polygon points="8.888,12.079 9.552,11.852 9.552,11.093 8.888,11.321" fill="#00d200"/>
      <polygon points="5.621,10.807 5.621,9.980 6.187,10.298 6.187,11.124" fill="#141419"/>
      <polygon points="5.640,10.787 5.640,10.029 6.159,10.320 6.159,11.079" fill="#e69100"/>
      <polygon points="8.288,10.124 9.013,9.876 9.579,10.193 8.854,10.441" fill="#252530"/>
      <polygon points="6.206,11.989 6.206,11.162 6.772,11.480 6.772,12.306" fill="#141419"/>
      <polygon points="6.225,11.969 6.225,11.211 6.744,11.502 6.744,12.261" fill="#e69100"/>
      <polygon points="8.854,11.268 9.579,11.020 9.579,10.193 8.854,10.441" fill="#18181f"/>
      <polygon points="8.888,11.226 9.552,10.998 9.552,10.240 8.888,10.467" fill="#00d200"/>
      <polygon points="8.128,9.415 8.049,9.014 8.965,8.979 9.044,9.380" fill="#252530"/>
      <polygon points="8.163,9.392 8.090,9.024 8.930,8.992 9.003,9.360" fill="#ffffff"/>
      <polygon points="8.106,12.378 8.830,12.130 8.830,11.303 8.106,11.552" fill="#18181f"/>
      <polygon points="8.139,12.336 8.804,12.108 8.804,11.350 8.139,11.578" fill="#00d200"/>
      <polygon points="7.181,9.451 7.102,9.049 8.019,9.015 8.098,9.416" fill="#252530"/>
      <polygon points="7.216,9.428 7.143,9.059 7.984,9.028 8.057,9.396" fill="#ffffff"/>
      <polygon points="6.235,9.487 6.156,9.085 7.072,9.051 7.151,9.452" fill="#252530"/>
      <polygon points="6.270,9.464 6.197,9.095 7.037,9.063 7.110,9.432" fill="#ffffff"/>
      <polygon points="6.206,10.308 6.931,10.060 7.497,10.378 6.772,10.626" fill="#252530"/>
      <polygon points="6.235,10.313 6.156,9.912 6.156,9.085 6.235,9.487" fill="#111116"/>
      <polygon points="6.226,10.263 6.153,9.894 6.153,9.136 6.226,9.505" fill="#0000eb"/>
      <polygon points="6.206,11.135 6.206,10.308 6.772,10.626 6.772,11.453" fill="#141419"/>
      <polygon points="6.225,11.115 6.225,10.357 6.744,10.649 6.744,11.407" fill="#e69100"/>
      <polygon points="7.539,10.380 8.264,10.132 8.830,10.450 8.106,10.698" fill="#252530"/>
      <polygon points="8.106,11.524 8.830,11.276 8.830,10.450 8.106,10.698" fill="#18181f"/>
      <polygon points="8.139,11.482 8.804,11.254 8.804,10.496 8.139,10.724" fill="#00d200"/>
      <polygon points="6.791,12.317 6.791,11.490 7.357,11.808 7.357,12.635" fill="#141419"/>
      <polygon points="6.810,12.297 6.810,11.539 7.329,11.831 7.329,12.589" fill="#e69100"/>
      <polygon points="7.357,12.635 8.082,12.386 8.082,11.560 7.357,11.808" fill="#18181f"/>
      <polygon points="7.390,12.592 8.055,12.364 8.055,11.606 7.390,11.834" fill="#00d200"/>
      <polygon points="6.317,10.728 6.238,10.327 6.238,9.500 6.317,9.902" fill="#111116"/>
      <polygon points="6.308,10.678 6.235,10.309 6.235,9.551 6.308,9.920" fill="#0000eb"/>
      <polygon points="8.210,9.830 8.131,9.428 9.047,9.394 9.126,9.795" fill="#252530"/>
      <polygon points="8.244,9.807 8.172,9.439 9.012,9.407 9.085,9.775" fill="#ffffff"/>
      <polygon points="6.791,10.637 7.516,10.388 8.082,10.706 7.357,10.954" fill="#252530"/>
      <polygon points="6.791,11.463 6.791,10.637 7.357,10.954 7.357,11.781" fill="#141419"/>
      <polygon points="6.810,11.444 6.810,10.685 7.329,10.977 7.329,11.735" fill="#e69100"/>
      <polygon points="7.263,9.866 7.184,9.464 8.100,9.430 8.179,9.831" fill="#252530"/>
      <polygon points="7.298,9.843 7.225,9.474 8.066,9.443 8.138,9.811" fill="#ffffff"/>
      <polygon points="7.357,11.781 8.082,11.533 8.082,10.706 7.357,10.954" fill="#18181f"/>
      <polygon points="7.390,11.738 8.055,11.511 8.055,10.752 7.390,10.980" fill="#00d200"/>
      <polygon points="6.317,9.902 6.238,9.500 7.154,9.465 7.233,9.867" fill="#252530"/>
      <polygon points="6.351,9.879 6.279,9.510 7.119,9.478 7.192,9.847" fill="#ffffff"/>
      <polygon points="8.210,10.657 8.210,9.830 9.126,9.795 9.126,10.622" fill="#141419"/>
      <polygon points="8.248,10.624 8.248,9.865 9.089,9.833 9.089,10.592" fill="#e69100"/>
      <polygon points="7.263,10.692 7.263,9.866 8.179,9.831 8.179,10.658" fill="#141419"/>
      <polygon points="7.302,10.659 7.302,9.901 8.142,9.869 8.142,10.628" fill="#e69100"/>
      <polygon points="6.317,10.728 6.317,9.902 7.233,9.867 7.233,10.694" fill="#141419"/>
      <polygon points="6.355,10.695 6.355,9.937 7.196,9.905 7.196,10.663" fill="#e69100"/>
    </g>
    <g id="f11" opacity="0">
      <polygon points="7.118,9.467 7.843,9.219 8.409,9.537 7.684,9.785" fill="#252530"/>
      <polygon points="6.370,9.724 7.094,9.476 7.661,9.793 6.936,10.041" fill="#252530"/>
      <polygon points="6.426,8.829 6.724,8.448 7.594,8.579 7.295,8.960" fill="#252530"/>
      <polygon points="6.474,8.814 6.748,8.464 7.546,8.584 7.272,8.934" fill="#ffffff"/>
      <polygon points="7.703,9.796 8.428,9.547 8.994,9.865 8.269,10.113" fill="#252530"/>
      <polygon points="5.621,11.661 5.621,10.834 6.187,11.152 6.187,11.978" fill="#141419"/>
      <polygon points="5.640,11.641 5.640,10.883 6.159,11.174 6.159,11.933" fill="#e69100"/>
      <polygon points="7.324,8.964 7.623,8.583 8.492,8.714 8.194,9.095" fill="#252530"/>
      <polygon points="7.372,8.949 7.646,8.599 8.444,8.719 8.170,9.069" fill="#ffffff"/>
      <polygon points="5.621,9.980 6.346,9.732 6.912,10.050 6.187,10.298" fill="#252530"/>
      <polygon points="8.854,12.122 9.579,11.874 9.579,11.047 8.854,11.295" fill="#18181f"/>
      <polygon points="8.888,12.079 9.552,11.852 9.552,11.093 8.888,11.321" fill="#00d200"/>
      <polygon points="8.223,9.099 8.521,8.718 9.391,8.849 9.093,9.230" fill="#252530"/>
      <polygon points="8.271,9.084 8.545,8.734 9.343,8.854 9.069,9.204" fill="#ffffff"/>
      <polygon points="5.621,10.807 5.621,9.980 6.187,10.298 6.187,11.124" fill="#141419"/>
      <polygon points="5.640,10.787 5.640,10.029 6.159,10.320 6.159,11.079" fill="#e69100"/>
      <polygon points="6.117,9.223 6.416,8.842 7.286,8.972 6.987,9.354" fill="#252530"/>
      <polygon points="6.166,9.207 6.439,8.858 7.237,8.978 6.963,9.328" fill="#ffffff"/>
      <polygon points="8.288,10.124 9.013,9.876 9.579,10.193 8.854,10.441" fill="#252530"/>
      <polygon points="9.093,10.057 9.391,9.675 9.391,8.849 9.093,9.230" fill="#18181f"/>
      <polygon points="9.110,10.008 9.384,9.658 9.384,8.900 9.110,9.249" fill="#00d200"/>
      <polygon points="6.206,11.989 6.206,11.162 6.772,11.480 6.772,12.306" fill="#141419"/>
      <polygon points="6.225,11.969 6.225,11.211 6.744,11.502 6.744,12.261" fill="#e69100"/>
      <polygon points="8.854,11.268 9.579,11.020 9.579,10.193 8.854,10.441" fill="#18181f"/>
      <polygon points="8.888,11.226 9.552,10.998 9.552,10.240 8.888,10.467" fill="#00d200"/>
      <polygon points="8.106,12.378 8.830,12.130 8.830,11.303 8.106,11.552" fill="#18181f"/>
      <polygon points="8.139,12.336 8.804,12.108 8.804,11.350 8.139,11.578" fill="#00d200"/>
      <polygon points="7.016,9.358 7.314,8.977 8.184,9.108 7.886,9.489" fill="#252530"/>
      <polygon points="7.064,9.343 7.338,8.993 8.136,9.113 7.862,9.463" fill="#ffffff"/>
      <polygon points="6.206,10.308 6.931,10.060 7.497,10.378 6.772,10.626" fill="#252530"/>
      <polygon points="6.206,11.135 6.206,10.308 6.772,10.626 6.772,11.453" fill="#141419"/>
      <polygon points="6.225,11.115 6.225,10.357 6.744,10.649 6.744,11.407" fill="#e69100"/>
      <polygon points="7.539,10.380 8.264,10.132 8.830,10.450 8.106,10.698" fill="#252530"/>
      <polygon points="8.784,10.451 9.083,10.069 9.083,9.243 8.784,9.624" fill="#18181f"/>
      <polygon points="8.802,10.402 9.076,10.052 9.076,9.294 8.802,9.643" fill="#00d200"/>
      <polygon points="7.914,9.493 8.213,9.112 9.083,9.243 8.784,9.624" fill="#252530"/>
      <polygon points="7.963,9.478 8.237,9.128 9.034,9.248 8.761,9.598" fill="#ffffff"/>
      <polygon points="8.106,11.524 8.830,11.276 8.830,10.450 8.106,10.698" fill="#18181f"/>
      <polygon points="8.139,11.482 8.804,11.254 8.804,10.496 8.139,10.724" fill="#00d200"/>
      <polygon points="6.791,12.317 6.791,11.490 7.357,11.808 7.357,12.635" fill="#141419"/>
      <polygon points="6.810,12.297 6.810,11.539 7.329,11.831 7.329,12.589" fill="#e69100"/>
      <polygon points="7.357,12.635 8.082,12.386 8.082,11.560 7.357,11.808" fill="#18181f"/>
      <polygon points="7.390,12.592 8.055,12.364 8.055,11.606 7.390,11.834" fill="#00d200"/>
      <polygon points="5.809,9.617 6.107,9.236 6.977,9.366 6.679,9.748" fill="#252530"/>
      <polygon points="5.857,9.601 6.131,9.252 6.929,9.372 6.655,9.721" fill="#ffffff"/>
      <polygon points="5.809,10.443 5.809,9.617 6.679,9.748 6.679,10.574" fill="#141419"/>
      <polygon points="5.843,10.417 5.843,9.659 6.641,9.779 6.641,10.537" fill="#e69100"/>
      <polygon points="6.791,10.637 7.516,10.388 8.082,10.706 7.357,10.954" fill="#252530"/>
      <polygon points="6.708,9.752 7.006,9.371 7.876,9.502 7.577,9.883" fill="#252530"/>
      <polygon points="6.756,9.737 7.030,9.387 7.828,9.507 7.554,9.857" fill="#ffffff"/>
      <polygon points="6.791,11.463 6.791,10.637 7.357,10.954 7.357,11.781" fill="#141419"/>
      <polygon points="6.810,11.444 6.810,10.685 7.329,10.977 7.329,11.735" fill="#e69100"/>
      <polygon points="7.357,11.781 8.082,11.533 8.082,10.706 7.357,10.954" fill="#18181f"/>
      <polygon points="7.390,11.738 8.055,11.511 8.055,10.752 7.390,10.980" fill="#00d200"/>
      <polygon points="6.708,10.579 6.708,9.752 7.577,9.883 7.577,10.709" fill="#141419"/>
      <polygon points="6.742,10.552 6.742,9.794 7.540,9.914 7.540,10.672" fill="#e69100"/>
      <polygon points="8.476,10.845 8.774,10.463 8.774,9.637 8.476,10.018" fill="#18181f"/>
      <polygon points="8.494,10.795 8.767,10.446 8.767,9.687 8.494,10.037" fill="#00d200"/>
      <polygon points="7.606,9.887 7.905,9.506 8.774,9.637 8.476,10.018" fill="#252530"/>
      <polygon points="7.654,9.872 7.928,9.522 8.726,9.642 8.452,9.992" fill="#ffffff"/>
      <polygon points="7.606,10.714 7.606,9.887 8.476,10.018 8.476,10.845" fill="#141419"/>
      <polygon points="7.640,10.687 7.640,9.929 8.438,10.049 8.438,10.807" fill="#e69100"/>
    </g>
    <g id="f12" opacity="0">
      <polygon points="7.118,9.467 7.843,9.219 8.409,9.537 7.684,9.785" fill="#252530"/>
      <polygon points="6.776,8.687 7.333,8.367 8.065,8.611 7.507,8.932" fill="#252530"/>
      <polygon points="6.829,8.679 7.340,8.385 8.011,8.609 7.500,8.903" fill="#ffffff"/>
      <polygon points="6.370,9.724 7.094,9.476 7.661,9.793 6.936,10.041" fill="#252530"/>
      <polygon points="7.703,9.796 8.428,9.547 8.994,9.865 8.269,10.113" fill="#252530"/>
      <polygon points="5.621,11.661 5.621,10.834 6.187,11.152 6.187,11.978" fill="#141419"/>
      <polygon points="5.640,11.641 5.640,10.883 6.159,11.174 6.159,11.933" fill="#e69100"/>
      <polygon points="7.531,8.940 8.089,8.619 8.820,8.863 8.263,9.184" fill="#252530"/>
      <polygon points="7.585,8.932 8.096,8.637 8.767,8.861 8.256,9.156" fill="#ffffff"/>
      <polygon points="5.621,9.980 6.346,9.732 6.912,10.050 6.187,10.298" fill="#252530"/>
      <polygon points="8.854,12.122 9.579,11.874 9.579,11.047 8.854,11.295" fill="#18181f"/>
      <polygon points="8.888,12.079 9.552,11.852 9.552,11.093 8.888,11.321" fill="#00d200"/>
      <polygon points="6.200,9.019 6.757,8.698 7.489,8.942 6.931,9.263" fill="#252530"/>
      <polygon points="6.253,9.010 6.765,8.716 7.436,8.940 6.924,9.234" fill="#ffffff"/>
      <polygon points="5.621,10.807 5.621,9.980 6.187,10.298 6.187,11.124" fill="#141419"/>
      <polygon points="5.640,10.787 5.640,10.029 6.159,10.320 6.159,11.079" fill="#e69100"/>
      <polygon points="8.288,10.124 9.013,9.876 9.579,10.193 8.854,10.441" fill="#252530"/>
      <polygon points="6.206,11.989 6.206,11.162 6.772,11.480 6.772,12.306" fill="#141419"/>
      <polygon points="6.225,11.969 6.225,11.211 6.744,11.502 6.744,12.261" fill="#e69100"/>
      <polygon points="8.287,9.192 8.844,8.872 9.576,9.116 9.018,9.437" fill="#252530"/>
      <polygon points="8.340,9.184 8.852,8.890 9.523,9.114 9.011,9.408" fill="#ffffff"/>
      <polygon points="8.854,11.268 9.579,11.020 9.579,10.193 8.854,10.441" fill="#18181f"/>
      <polygon points="8.888,11.226 9.552,10.998 9.552,10.240 8.888,10.467" fill="#00d200"/>
      <polygon points="9.018,10.263 9.576,9.942 9.576,9.116 9.018,9.437" fill="#18181f"/>
      <polygon points="9.046,10.217 9.557,9.923 9.557,9.165 9.046,9.459" fill="#00d200"/>
      <polygon points="8.106,12.378 8.830,12.130 8.830,11.303 8.106,11.552" fill="#18181f"/>
      <polygon points="8.139,12.336 8.804,12.108 8.804,11.350 8.139,11.578" fill="#00d200"/>
      <polygon points="6.956,9.271 7.513,8.950 8.244,9.195 7.687,9.515" fill="#252530"/>
      <polygon points="7.009,9.263 7.520,8.969 8.191,9.193 7.680,9.487" fill="#ffffff"/>
      <polygon points="6.206,10.308 6.931,10.060 7.497,10.378 6.772,10.626" fill="#252530"/>
      <polygon points="5.624,9.350 6.182,9.029 6.913,9.274 6.356,9.594" fill="#252530"/>
      <polygon points="6.206,11.135 6.206,10.308 6.772,10.626 6.772,11.453" fill="#141419"/>
      <polygon points="5.677,9.342 6.189,9.047 6.860,9.272 6.348,9.566" fill="#ffffff"/>
      <polygon points="6.225,11.115 6.225,10.357 6.744,10.649 6.744,11.407" fill="#e69100"/>
      <polygon points="7.539,10.380 8.264,10.132 8.830,10.450 8.106,10.698" fill="#252530"/>
      <polygon points="5.624,10.176 5.624,9.350 6.356,9.594 6.356,10.421" fill="#141419"/>
      <polygon points="5.651,10.154 5.651,9.396 6.322,9.620 6.322,10.378" fill="#e69100"/>
      <polygon points="8.106,11.524 8.830,11.276 8.830,10.450 8.106,10.698" fill="#18181f"/>
      <polygon points="8.139,11.482 8.804,11.254 8.804,10.496 8.139,10.724" fill="#00d200"/>
      <polygon points="6.791,12.317 6.791,11.490 7.357,11.808 7.357,12.635" fill="#141419"/>
      <polygon points="6.810,12.297 6.810,11.539 7.329,11.831 7.329,12.589" fill="#e69100"/>
      <polygon points="7.357,12.635 8.082,12.386 8.082,11.560 7.357,11.808" fill="#18181f"/>
      <polygon points="7.390,12.592 8.055,12.364 8.055,11.606 7.390,11.834" fill="#00d200"/>
      <polygon points="7.711,9.523 8.269,9.203 9.000,9.447 8.443,9.768" fill="#252530"/>
      <polygon points="7.764,9.515 8.276,9.221 8.947,9.445 8.435,9.739" fill="#ffffff"/>
      <polygon points="8.443,10.594 9.000,10.274 9.000,9.447 8.443,9.768" fill="#18181f"/>
      <polygon points="8.470,10.548 8.982,10.254 8.982,9.496 8.470,9.790" fill="#00d200"/>
      <polygon points="6.380,9.602 6.937,9.282 7.669,9.526 7.111,9.847" fill="#252530"/>
      <polygon points="6.433,9.594 6.944,9.300 7.615,9.524 7.104,9.818" fill="#ffffff"/>
      <polygon points="6.791,10.637 7.516,10.388 8.082,10.706 7.357,10.954" fill="#252530"/>
      <polygon points="6.380,10.429 6.380,9.602 7.111,9.847 7.111,10.673" fill="#141419"/>
      <polygon points="6.407,10.407 6.407,9.649 7.078,9.873 7.078,10.631" fill="#e69100"/>
      <polygon points="6.791,11.463 6.791,10.637 7.357,10.954 7.357,11.781" fill="#141419"/>
      <polygon points="6.810,11.444 6.810,10.685 7.329,10.977 7.329,11.735" fill="#e69100"/>
      <polygon points="7.357,11.781 8.082,11.533 8.082,10.706 7.357,10.954" fill="#18181f"/>
      <polygon points="7.390,11.738 8.055,11.511 8.055,10.752 7.390,10.980" fill="#00d200"/>
      <polygon points="7.135,9.855 7.693,9.534 8.424,9.778 7.867,10.099" fill="#252530"/>
      <polygon points="7.189,9.846 7.700,9.552 8.371,9.776 7.860,10.071" fill="#ffffff"/>
      <polygon points="7.867,10.926 8.424,10.605 8.424,9.778 7.867,10.099" fill="#18181f"/>
      <polygon points="7.894,10.880 8.406,10.586 8.406,9.827 7.894,10.121" fill="#00d200"/>
      <polygon points="7.135,10.681 7.135,9.855 7.867,10.099 7.867,10.926" fill="#141419"/>
      <polygon points="7.162,10.659 7.162,9.901 7.833,10.125 7.833,10.883" fill="#e69100"/>
    </g>
    <g id="f13" opacity="0">
      <polygon points="7.118,9.467 7.843,9.219 8.409,9.537 7.684,9.785" fill="#252530"/>
      <polygon points="7.029,8.628 7.716,8.360 8.327,8.661 7.640,8.929" fill="#252530"/>
      <polygon points="7.082,8.625 7.713,8.379 8.273,8.655 7.643,8.901" fill="#ffffff"/>
      <polygon points="6.370,9.724 7.094,9.476 7.661,9.793 6.936,10.041" fill="#252530"/>
      <polygon points="7.703,9.796 8.428,9.547 8.994,9.865 8.269,10.113" fill="#252530"/>
      <polygon points="5.621,11.661 5.621,10.834 6.187,11.152 6.187,11.978" fill="#141419"/>
      <polygon points="5.640,11.641 5.640,10.883 6.159,11.174 6.159,11.933" fill="#e69100"/>
      <polygon points="6.319,8.905 7.006,8.637 7.618,8.938 6.931,9.206" fill="#252530"/>
      <polygon points="6.373,8.902 7.003,8.656 7.564,8.932 6.934,9.178" fill="#ffffff"/>
      <polygon points="7.660,8.939 8.347,8.671 8.959,8.973 8.272,9.241" fill="#252530"/>
      <polygon points="7.714,8.936 8.344,8.690 8.905,8.966 8.275,9.212" fill="#ffffff"/>
      <polygon points="5.621,9.980 6.346,9.732 6.912,10.050 6.187,10.298" fill="#252530"/>
      <polygon points="8.854,12.122 9.579,11.874 9.579,11.047 8.854,11.295" fill="#18181f"/>
      <polygon points="8.888,12.079 9.552,11.852 9.552,11.093 8.888,11.321" fill="#00d200"/>
      <polygon points="5.621,10.807 5.621,9.980 6.187,10.298 6.187,11.124" fill="#141419"/>
      <polygon points="5.640,10.787 5.640,10.029 6.159,10.320 6.159,11.079" fill="#e69100"/>
      <polygon points="8.288,10.124 9.013,9.876 9.579,10.193 8.854,10.441" fill="#252530"/>
      <polygon points="6.206,11.989 6.206,11.162 6.772,11.480 6.772,12.306" fill="#141419"/>
      <polygon points="6.225,11.969 6.225,11.211 6.744,11.502 6.744,12.261" fill="#e69100"/>
      <polygon points="8.854,11.268 9.579,11.020 9.579,10.193 8.854,10.441" fill="#18181f"/>
      <polygon points="8.888,11.226 9.552,10.998 9.552,10.240 8.888,10.467" fill="#00d200"/>
      <polygon points="5.610,9.182 6.296,8.914 6.908,9.215 6.221,9.483" fill="#252530"/>
      <polygon points="5.663,9.178 6.293,8.933 6.854,9.209 6.224,9.455" fill="#ffffff"/>
      <polygon points="8.106,12.378 8.830,12.130 8.830,11.303 8.106,11.552" fill="#18181f"/>
      <polygon points="8.139,12.336 8.804,12.108 8.804,11.350 8.139,11.578" fill="#00d200"/>
      <polygon points="6.951,9.216 7.638,8.948 8.249,9.249 7.562,9.517" fill="#252530"/>
      <polygon points="7.004,9.213 7.635,8.967 8.196,9.243 7.565,9.489" fill="#ffffff"/>
      <polygon points="8.292,9.251 8.979,8.982 9.590,9.284 8.904,9.552" fill="#252530"/>
      <polygon points="8.346,9.247 8.976,9.001 9.537,9.277 8.907,9.523" fill="#ffffff"/>
      <polygon points="6.206,10.308 6.931,10.060 7.497,10.378 6.772,10.626" fill="#252530"/>
      <polygon points="5.610,10.009 5.610,9.182 6.221,9.483 6.221,10.310" fill="#141419"/>
      <polygon points="5.631,9.989 5.631,9.230 6.192,9.507 6.192,10.265" fill="#e69100"/>
      <polygon points="6.206,11.135 6.206,10.308 6.772,10.626 6.772,11.453" fill="#141419"/>
      <polygon points="6.225,11.115 6.225,10.357 6.744,10.649 6.744,11.407" fill="#e69100"/>
      <polygon points="8.904,10.378 9.590,10.110 9.590,9.284 8.904,9.552" fill="#18181f"/>
      <polygon points="8.936,10.335 9.566,10.089 9.566,9.331 8.936,9.577" fill="#00d200"/>
      <polygon points="7.539,10.380 8.264,10.132 8.830,10.450 8.106,10.698" fill="#252530"/>
      <polygon points="8.106,11.524 8.830,11.276 8.830,10.450 8.106,10.698" fill="#18181f"/>
      <polygon points="8.139,11.482 8.804,11.254 8.804,10.496 8.139,10.724" fill="#00d200"/>
      <polygon points="6.791,12.317 6.791,11.490 7.357,11.808 7.357,12.635" fill="#141419"/>
      <polygon points="6.810,12.297 6.810,11.539 7.329,11.831 7.329,12.589" fill="#e69100"/>
      <polygon points="7.357,12.635 8.082,12.386 8.082,11.560 7.357,11.808" fill="#18181f"/>
      <polygon points="7.390,12.592 8.055,12.364 8.055,11.606 7.390,11.834" fill="#00d200"/>
      <polygon points="6.241,9.493 6.928,9.225 7.540,9.526 6.853,9.794" fill="#252530"/>
      <polygon points="6.295,9.489 6.925,9.244 7.486,9.520 6.856,9.766" fill="#ffffff"/>
      <polygon points="7.582,9.527 8.269,9.259 8.881,9.560 8.194,9.829" fill="#252530"/>
      <polygon points="7.636,9.524 8.266,9.278 8.827,9.554 8.197,9.800" fill="#ffffff"/>
      <polygon points="8.194,10.655 8.881,10.387 8.881,9.560 8.194,9.829" fill="#18181f"/>
      <polygon points="8.226,10.612 8.856,10.366 8.856,9.608 8.226,9.853" fill="#00d200"/>
      <polygon points="6.791,10.637 7.516,10.388 8.082,10.706 7.357,10.954" fill="#252530"/>
      <polygon points="6.241,10.320 6.241,9.493 6.853,9.794 6.853,10.621" fill="#141419"/>
      <polygon points="6.262,10.300 6.262,9.541 6.823,9.818 6.823,10.576" fill="#e69100"/>
      <polygon points="6.791,11.463 6.791,10.637 7.357,10.954 7.357,11.781" fill="#141419"/>
      <polygon points="6.810,11.444 6.810,10.685 7.329,10.977 7.329,11.735" fill="#e69100"/>
      <polygon points="7.357,11.781 8.082,11.533 8.082,10.706 7.357,10.954" fill="#18181f"/>
      <polygon points="7.390,11.738 8.055,11.511 8.055,10.752 7.390,10.980" fill="#00d200"/>
      <polygon points="6.873,9.804 7.560,9.536 8.171,9.837 7.484,10.105" fill="#252530"/>
      <polygon points="6.927,9.801 7.557,9.555 8.118,9.831 7.487,10.077" fill="#ffffff"/>
      <polygon points="6.873,10.631 6.873,9.804 7.484,10.105 7.484,10.932" fill="#141419"/>
      <polygon points="6.894,10.611 6.894,9.853 7.455,10.129 7.455,10.887" fill="#e69100"/>
      <polygon points="7.484,10.932 8.171,10.664 8.171,9.837 7.484,10.105" fill="#18181f"/>
      <polygon points="7.516,10.889 8.147,10.643 8.147,9.884 7.516,10.130" fill="#00d200"/>
    </g>
    <g id="f14" opacity="0">
      <polygon points="7.118,8.614 7.843,8.365 8.409,8.683 7.684,8.931" fill="#252530"/>
      <polygon points="7.172,8.611 7.836,8.384 8.356,8.675 7.691,8.903" fill="#ffffff"/>
      <polygon points="5.621,11.661 5.621,10.834 6.187,11.152 6.187,11.978" fill="#141419"/>
      <polygon points="5.640,11.641 5.640,10.883 6.159,11.174 6.159,11.933" fill="#e69100"/>
      <polygon points="6.370,8.870 7.094,8.622 7.661,8.939 6.936,9.188" fill="#252530"/>
      <polygon points="6.423,8.868 7.088,8.640 7.607,8.931 6.942,9.159" fill="#ffffff"/>
      <polygon points="8.854,12.122 9.579,11.874 9.579,11.047 8.854,11.295" fill="#18181f"/>
      <polygon points="8.888,12.079 9.552,11.852 9.552,11.093 8.888,11.321" fill="#00d200"/>
      <polygon points="7.703,8.942 8.428,8.694 8.994,9.011 8.269,9.259" fill="#252530"/>
      <polygon points="7.757,8.939 8.421,8.712 8.941,9.003 8.276,9.231" fill="#ffffff"/>
      <polygon points="5.621,10.807 5.621,9.980 6.187,10.298 6.187,11.124" fill="#141419"/>
      <polygon points="5.640,10.787 5.640,10.029 6.159,10.320 6.159,11.079" fill="#e69100"/>
      <polygon points="6.206,11.989 6.206,11.162 6.772,11.480 6.772,12.306" fill="#141419"/>
      <polygon points="6.225,11.969 6.225,11.211 6.744,11.502 6.744,12.261" fill="#e69100"/>
      <polygon points="5.621,9.126 6.346,8.878 6.912,9.196 6.187,9.444" fill="#252530"/>
      <polygon points="8.854,11.268 9.579,11.020 9.579,10.193 8.854,10.441" fill="#18181f"/>
      <polygon points="5.674,9.124 6.339,8.896 6.859,9.188 6.194,9.416" fill="#ffffff"/>
      <polygon points="8.888,11.226 9.552,10.998 9.552,10.240 8.888,10.467" fill="#00d200"/>
      <polygon points="5.621,9.953 5.621,9.126 6.187,9.444 6.187,10.271" fill="#141419"/>
      <polygon points="5.640,9.933 5.640,9.175 6.159,9.467 6.159,10.225" fill="#e69100"/>
      <polygon points="8.106,12.378 8.830,12.130 8.830,11.303 8.106,11.552" fill="#18181f"/>
      <polygon points="8.139,12.336 8.804,12.108 8.804,11.350 8.139,11.578" fill="#00d200"/>
      <polygon points="6.955,9.198 7.679,8.950 8.245,9.268 7.521,9.516" fill="#252530"/>
      <polygon points="7.008,9.196 7.673,8.968 8.192,9.260 7.527,9.487" fill="#ffffff"/>
      <polygon points="8.288,9.270 9.013,9.022 9.579,9.339 8.854,9.588" fill="#252530"/>
      <polygon points="8.341,9.268 9.006,9.040 9.526,9.331 8.861,9.559" fill="#ffffff"/>
      <polygon points="6.206,11.135 6.206,10.308 6.772,10.626 6.772,11.453" fill="#141419"/>
      <polygon points="6.225,11.115 6.225,10.357 6.744,10.649 6.744,11.407" fill="#e69100"/>
      <polygon points="8.854,10.414 9.579,10.166 9.579,9.339 8.854,9.588" fill="#18181f"/>
      <polygon points="8.888,10.372 9.552,10.144 9.552,9.386 8.888,9.613" fill="#00d200"/>
      <polygon points="8.106,11.524 8.830,11.276 8.830,10.450 8.106,10.698" fill="#18181f"/>
      <polygon points="8.139,11.482 8.804,11.254 8.804,10.496 8.139,10.724" fill="#00d200"/>
      <polygon points="6.791,12.317 6.791,11.490 7.357,11.808 7.357,12.635" fill="#141419"/>
      <polygon points="6.810,12.297 6.810,11.539 7.329,11.831 7.329,12.589" fill="#e69100"/>
      <polygon points="7.357,12.635 8.082,12.386 8.082,11.560 7.357,11.808" fill="#18181f"/>
      <polygon points="7.390,12.592 8.055,12.364 8.055,11.606 7.390,11.834" fill="#00d200"/>
      <polygon points="6.206,9.455 6.931,9.206 7.497,9.524 6.772,9.772" fill="#252530"/>
      <polygon points="6.259,9.452 6.924,9.225 7.443,9.516 6.779,9.744" fill="#ffffff"/>
      <polygon points="6.206,10.281 6.206,9.455 6.772,9.772 6.772,10.599" fill="#141419"/>
      <polygon points="6.225,10.262 6.225,9.503 6.744,9.795 6.744,10.553" fill="#e69100"/>
      <polygon points="7.539,9.526 8.264,9.278 8.830,9.596 8.106,9.844" fill="#252530"/>
      <polygon points="7.593,9.524 8.258,9.296 8.777,9.588 8.112,9.815" fill="#ffffff"/>
      <polygon points="8.106,10.671 8.830,10.422 8.830,9.596 8.106,9.844" fill="#18181f"/>
      <polygon points="8.139,10.628 8.804,10.400 8.804,9.642 8.139,9.870" fill="#00d200"/>
      <polygon points="6.791,11.463 6.791,10.637 7.357,10.954 7.357,11.781" fill="#141419"/>
      <polygon points="6.810,11.444 6.810,10.685 7.329,10.977 7.329,11.735" fill="#e69100"/>
      <polygon points="7.357,11.781 8.082,11.533 8.082,10.706 7.357,10.954" fill="#18181f"/>
      <polygon points="7.390,11.738 8.055,11.511 8.055,10.752 7.390,10.980" fill="#00d200"/>
      <polygon points="6.791,9.783 7.516,9.535 8.082,9.852 7.357,10.100" fill="#252530"/>
      <polygon points="6.844,9.780 7.509,9.553 8.028,9.844 7.364,10.072" fill="#ffffff"/>
      <polygon points="6.791,10.609 6.791,9.783 7.357,10.100 7.357,10.927" fill="#141419"/>
      <polygon points="6.810,10.590 6.810,9.832 7.329,10.123 7.329,10.881" fill="#e69100"/>
      <polygon points="7.357,10.927 8.082,10.679 8.082,9.852 7.357,10.100" fill="#18181f"/>
      <polygon points="7.390,10.884 8.055,10.657 8.055,9.899 7.390,10.126" fill="#00d200"/>
    </g>
    </g>
  </g>

  <g>
      <animate xlink:href="#f0" attributeName="opacity" dur="6s" repeatCount="indefinite" calcMode="discrete" keyTimes="0.00000;0.14286;1.00000" values="1;0;1"/>
      <animate xlink:href="#f1" attributeName="opacity" dur="6s" repeatCount="indefinite" calcMode="discrete" keyTimes="0.00000;0.14286;0.17857;1.00000" values="0;1;0;0"/>
      <animate xlink:href="#f2" attributeName="opacity" dur="6s" repeatCount="indefinite" calcMode="discrete" keyTimes="0.00000;0.17857;0.21429;1.00000" values="0;1;0;0"/>
      <animate xlink:href="#f3" attributeName="opacity" dur="6s" repeatCount="indefinite" calcMode="discrete" keyTimes="0.00000;0.21429;0.25000;1.00000" values="0;1;0;0"/>
      <animate xlink:href="#f4" attributeName="opacity" dur="6s" repeatCount="indefinite" calcMode="discrete" keyTimes="0.00000;0.25000;0.28571;1.00000" values="0;1;0;0"/>
      <animate xlink:href="#f5" attributeName="opacity" dur="6s" repeatCount="indefinite" calcMode="discrete" keyTimes="0.00000;0.28571;0.32143;1.00000" values="0;1;0;0"/>
      <animate xlink:href="#f6" attributeName="opacity" dur="6s" repeatCount="indefinite" calcMode="discrete" keyTimes="0.00000;0.32143;0.35714;1.00000" values="0;1;0;0"/>
      <animate xlink:href="#f7" attributeName="opacity" dur="6s" repeatCount="indefinite" calcMode="discrete" keyTimes="0.00000;0.35714;0.50000;1.00000" values="0;1;0;0"/>
      <animate xlink:href="#f8" attributeName="opacity" dur="6s" repeatCount="indefinite" calcMode="discrete" keyTimes="0.00000;0.50000;0.53571;1.00000" values="0;1;0;0"/>
      <animate xlink:href="#f9" attributeName="opacity" dur="6s" repeatCount="indefinite" calcMode="discrete" keyTimes="0.00000;0.53571;0.57143;1.00000" values="0;1;0;0"/>
      <animate xlink:href="#f10" attributeName="opacity" dur="6s" repeatCount="indefinite" calcMode="discrete" keyTimes="0.00000;0.57143;0.60714;1.00000" values="0;1;0;0"/>
      <animate xlink:href="#f11" attributeName="opacity" dur="6s" repeatCount="indefinite" calcMode="discrete" keyTimes="0.00000;0.60714;0.64286;1.00000" values="0;1;0;0"/>
      <animate xlink:href="#f12" attributeName="opacity" dur="6s" repeatCount="indefinite" calcMode="discrete" keyTimes="0.00000;0.64286;0.67857;1.00000" values="0;1;0;0"/>
      <animate xlink:href="#f13" attributeName="opacity" dur="6s" repeatCount="indefinite" calcMode="discrete" keyTimes="0.00000;0.67857;0.71429;1.00000" values="0;1;0;0"/>
      <animate xlink:href="#f14" attributeName="opacity" dur="6s" repeatCount="indefinite" calcMode="discrete" keyTimes="0.00000;0.71429;1.00000" values="0;1;0"/>
  </g>
</svg>
