<svg width="128" height="128" viewBox="-0.9 -0.9 1.8 1.8" xmlns="http://www.w3.org/2000/svg" xmlns:xlink="http://www.w3.org/1999/xlink" overflow="hidden"><g stroke-width="0.1" stroke-linejoin="round" opacity="0.5"><path d="M0.161033-0.681501-0.654001-0.50224-0.59354 0.29677 0.14725 0.0736248Z" stroke="#BFBFBF" fill="#BFBFBF"/><path d="M-0.184643 0.78142 0.630493 0.484187 0.14725 0.0736248-0.59354 0.29677Z" stroke="#BFBFBF" fill="#BFBFBF"/><path d="M0.699152-0.349576 0.161033-0.681501 0.14725 0.0736248 0.630493 0.484187Z" stroke="#BFBFBF" fill="#BFBFBF"/></g><g stroke-width="0" stroke-linejoin="round" stroke-opacity="0.5"><path d="M0.151076-0.698766-0.0809445-0.647735-0.0782597-0.401442 0.14667-0.457383Z" stroke="#BFBFBF" opacity="0"/><path d="M-0.122361-0.638023-0.367638-0.584076-0.357047-0.332695-0.119677-0.391731Z" stroke="#BFBFBF" opacity="0"/><path d="M-0.411416-0.573811-0.671117-0.516691-0.651696-0.260037-0.400825-0.32243Z" stroke="#BFBFBF" opacity="0"/><path d="M0.146504-0.415663-0.0784258-0.359722-0.0759028-0.128274 0.142357-0.188459Z" stroke="#BFBFBF" opacity="0"/><path d="M-0.118563-0.349191-0.355933-0.290156-0.345998-0.0543322-0.11604-0.117743Z" stroke="#BFBFBF" opacity="0"/><path d="M-0.398285-0.279044-0.649157-0.216651-0.630971 0.0236827-0.38835-0.04322Z" stroke="#BFBFBF" opacity="0"/><path d="M0.142201-0.149184-0.0760592-0.0889994-0.0736838 0.128907 0.13829 0.0650548Z" stroke="#BFBFBF" opacity="0"/><path d="M-0.114993-0.0777621-0.344951-0.0143514-0.335612 0.207316-0.112618 0.140144Z" stroke="#BFBFBF" opacity="0"/><path d="M-0.385967-0.00251313-0.628589 0.0643896-0.611524 0.289911-0.376628 0.219154Z" stroke="#BFBFBF" opacity="0"/><path d="M-0.186224 0.809535 0.0742405 0.714559-0.0705711 0.562893-0.322028 0.648572Z" stroke="#BFBFBF" opacity="0"/><path d="M0.118178 0.699038 0.363444 0.609604 0.210856 0.466452-0.0266339 0.547373Z" stroke="#BFBFBF" opacity="0"/><path d="M0.404908 0.594959 0.636268 0.510595 0.476975 0.37526 0.25232 0.451807Z" stroke="#BFBFBF" fill="#FFFFFF"/><path d="M-0.345584 0.622249-0.0941265 0.53657-0.225284 0.399205-0.468224 0.476888Z" stroke="#BFBFBF" fill="#FFFFFF"/><path d="M-0.0516392 0.522519 0.185851 0.441599 0.0472691 0.311587-0.182797 0.385154Z" stroke="#BFBFBF" opacity="0"/><path d="M0.226058 0.428302 0.450713 0.351755 0.305664 0.228522 0.087476 0.298291Z" stroke="#BFBFBF" fill="#0000F2"/><path d="M-0.489576 0.453033-0.246636 0.37535-0.365983 0.250353-0.600879 0.32111Z" stroke="#BFBFBF" opacity="0"/><path d="M-0.205524 0.362568 0.0245417 0.289002-0.101878 0.1704-0.324871 0.237572Z" stroke="#BFBFBF" opacity="0"/><path d="M0.0635452 0.276877 0.281733 0.207108 0.1491 0.0944231-0.0628742 0.158275Z" stroke="#BFBFBF" opacity="0"/><path d="M0.726658-0.358761 0.547708-0.469142 0.532624-0.209975 0.704513-0.0898441Z" stroke="#BFBFBF" opacity="0"/><path d="M0.518194-0.488473 0.356818-0.588014 0.347566-0.338014 0.50311-0.229307Z" stroke="#BFBFBF" opacity="0"/><path d="M0.3301-0.605518 0.183829-0.695741 0.179423-0.454359 0.320848-0.355519Z" stroke="#BFBFBF" opacity="0"/><path d="M0.701314-0.0447215 0.529425-0.164853 0.515312 0.0776199 0.680668 0.205994Z" stroke="#BFBFBF" opacity="0"/><path d="M0.501013-0.185736 0.345469-0.294443 0.336785-0.0598053 0.4869 0.0567369Z" stroke="#BFBFBF" opacity="0"/><path d="M0.319666-0.313412 0.178241-0.412252 0.174094-0.185048 0.310982-0.0787743Z" stroke="#BFBFBF" opacity="0"/><path d="M0.677679 0.248176 0.512323 0.119801 0.499091 0.347142 0.658385 0.482477Z" stroke="#BFBFBF" fill="#0000F2"/><path d="M0.484935 0.0976007 0.33482-0.0189415 0.326654 0.201709 0.471703 0.324942Z" stroke="#BFBFBF" fill="#FFA100"/><path d="M0.309871-0.0391674 0.172983-0.145441 0.169072 0.0687979 0.301706 0.181483Z" stroke="#BFBFBF" opacity="0"/></g><g stroke-width="0.1" stroke-linejoin="round" opacity="0.5"><path d="M-0.654001-0.50224-0.206844-0.103422-0.184643 0.78142-0.59354 0.29677Z" stroke="#BFBFBF" fill="#BFBFBF"/><path d="M-0.654001-0.50224 0.161033-0.681501 0.699152-0.349576-0.206844-0.103422Z" stroke="#BFBFBF" fill="#BFBFBF"/><path d="M-0.206844-0.103422 0.699152-0.349576 0.630493 0.484187-0.184643 0.78142Z" stroke="#BFBFBF" fill="#BFBFBF"/></g><g stroke-width="0" stroke-linejoin="round" stroke-opacity="0.5"><path d="M-0.683694-0.501337-0.563379-0.394028-0.547108-0.127783-0.664273-0.244682Z" stroke="#BFBFBF" opacity="0"/><path d="M-0.541295-0.373118-0.407334-0.253639-0.395054 0.0228028-0.525024-0.106872Z" stroke="#BFBFBF" opacity="0"/><path d="M-0.38272-0.230332-0.232652-0.0964866-0.225445 0.190776-0.37044 0.0461098Z" stroke="#BFBFBF" opacity="0"/><path d="M-0.66122-0.200113-0.544054-0.0832132-0.528869 0.165253-0.643034 0.0402203Z" stroke="#BFBFBF" opacity="0"/><path d="M-0.522581-0.0607029-0.39261 0.0689723-0.381193 0.325981-0.507396 0.187764Z" stroke="#BFBFBF" fill="#0000F2"/><path d="M-0.368767 0.0939674-0.223772 0.238633-0.2171 0.504578-0.35735 0.350976Z" stroke="#BFBFBF" opacity="0"/><path d="M-0.640176 0.0819331-0.526012 0.206966-0.511808 0.439377-0.623111 0.307454Z" stroke="#BFBFBF" opacity="0"/><path d="M-0.505117 0.230824-0.378915 0.369042-0.368273 0.608597-0.490913 0.463236Z" stroke="#BFBFBF" fill="#0000F2"/><path d="M-0.355796 0.39544-0.215546 0.549042-0.209351 0.795958-0.345155 0.634995Z" stroke="#BFBFBF" opacity="0"/><path d="M-0.661341-0.530416-0.40164-0.587535-0.271422-0.486425-0.541026-0.423107Z" stroke="#BFBFBF" opacity="0"/><path d="M-0.356324-0.597836-0.111048-0.651783 0.0277654-0.556349-0.226107-0.496726Z" stroke="#BFBFBF" opacity="0"/><path d="M-0.0682752-0.661506 0.163746-0.712537 0.310016-0.622314 0.0705379-0.566071Z" stroke="#BFBFBF" opacity="0"/><path d="M-0.517658-0.403738-0.248054-0.467055-0.103536-0.354841-0.383697-0.284258Z" stroke="#BFBFBF" opacity="0"/><path d="M-0.201065-0.478487 0.0528072-0.53811 0.206397-0.432517-0.0565467-0.366273Z" stroke="#BFBFBF" opacity="0"/><path d="M0.0970252-0.548868 0.336503-0.60511 0.49788-0.505569 0.250615-0.443274Z" stroke="#BFBFBF" opacity="0"/><path d="M-0.357644-0.262664-0.0774827-0.333246 0.083829-0.207992-0.207576-0.128819Z" stroke="#BFBFBF" opacity="0"/><path d="M-0.0287194-0.346007 0.234224-0.412251 0.405081-0.294786 0.132592-0.220752Z" stroke="#BFBFBF" opacity="0"/><path d="M0.279956-0.424218 0.527222-0.486513 0.706171-0.376132 0.450814-0.306753Z" stroke="#BFBFBF" opacity="0"/><path d="M-0.194678-0.0922206 0.0967269-0.171394 0.0928351 0.109544-0.187471 0.195042Z" stroke="#BFBFBF" opacity="0"/><path d="M0.145624-0.185451 0.418114-0.259485 0.4045 0.0153383 0.141733 0.0954865Z" stroke="#BFBFBF" opacity="0"/><path d="M0.463936-0.27266 0.719293-0.34204 0.697148-0.0731226 0.450322 0.00216307Z" stroke="#BFBFBF" opacity="0"/><path d="M-0.187153 0.243395 0.0931524 0.157897 0.0895404 0.418636-0.180481 0.50934Z" stroke="#BFBFBF" opacity="0"/><path d="M0.140272 0.142833 0.40304 0.0626853 0.390376 0.318346 0.13666 0.403572Z" stroke="#BFBFBF" opacity="0"/><path d="M0.4473 0.0485342 0.694125-0.0267515 0.673479 0.223964 0.434636 0.304195Z" stroke="#BFBFBF" opacity="0"/><path d="M-0.180189 0.554215 0.0898326 0.463512 0.0864713 0.706154-0.173993 0.801131Z" stroke="#BFBFBF" opacity="0"/><path d="M0.135299 0.447617 0.389015 0.362391 0.377204 0.600825 0.131938 0.69026Z" stroke="#BFBFBF" opacity="0"/><path d="M0.431816 0.347427 0.67066 0.267196 0.651365 0.501498 0.420005 0.585862Z" stroke="#BFBFBF" fill="#FFA100"/></g></svg>