<svg viewBox="0 0 250.58 290.1" xmlns="http://www.w3.org/2000/svg" xmlns:xlink="http://www.w3.org/1999/xlink" overflow="hidden"><defs></defs><g id="图层_2"><g id="图层_1-2"><path d="M249.02 216.79 248.9 216.86 248.85 216.79 249.02 216.79Z" fill="#404040"/><path d="M248.93 216.92 248.82 216.92 248.88 216.89 248.93 216.92Z" fill="#404040"/><path d="M248.9 216.87 248.92 216.9 248.89 216.88 248.9 216.87Z" fill="#404040"/><path d="M248.9 216.87 248.89 216.88 248.87 216.88 248.9 216.86 248.9 216.87Z" fill="#404040"/><path d="M248.9 216.86 248.87 216.88 248.72 216.79 248.85 216.79 248.9 216.86Z" fill="#404040"/><path d="M248.88 216.89 248.82 216.92 248.79 216.92 248.86 216.88 248.87 216.88 248.88 216.89Z" fill="#404040"/><path d="M248.72 216.79 248.87 216.88 248.86 216.88 248.7 216.79 248.72 216.79Z" fill="#404040"/><path d="M248.86 216.88 248.79 216.92 166.8 216.92 166.69 216.86 166.81 216.79 248.7 216.79 248.86 216.88Z" fill="#404040"/><path d="M207.69 145.13 248.85 216.79 248.72 216.79 207.71 192.99 207.69 192.97 207.69 145.13Z" fill="#0000F2"/><path d="M248.79 216.92 207.79 240.71 166.8 216.92 248.79 216.92Z" fill="#FEFE00"/><path d="M207.73 193.01 248.7 216.79 166.81 216.79 207.71 193.05 207.73 193.01Z" fill="#00D800"/><path d="M207.81 240.72 207.78 240.72 207.79 240.71 207.81 240.72Z" fill="#404040"/><path d="M166.58 216.92 166.8 216.92 207.79 240.71 207.78 240.72 125.34 240.72 166.34 216.92 166.48 216.92 166.58 216.92Z" fill="#FEFE00"/><path d="M207.78 240.72 166.55 264.64 125.34 240.72 207.78 240.72Z" fill="#0000F2"/><path d="M207.73 193.01 207.71 193.05 166.81 216.79 166.57 216.79 166.25 216.79 125.24 192.99 207.69 192.99 207.73 193.01Z" fill="#00D800"/><path d="M166.46 73.33 207.69 145.13 166.46 121.19 166.45 121.19 166.45 121.18 166.45 73.33 166.46 73.33Z" fill="#FEFE00"/><path d="M207.69 145.13 207.69 192.97 207.68 192.97 166.46 121.19 207.69 145.13Z" fill="#0000F2"/><path d="M207.69 192.99 125.24 192.99 166.46 169.06 207.69 192.99Z" fill="#0000F2"/><path d="M166.46 121.19 207.68 192.97 166.48 169.05 166.45 169.03 166.45 121.19 166.46 121.19Z" fill="#00D800"/><path d="M166.81 216.79 166.69 216.86 166.57 216.79 166.81 216.79Z" fill="#404040"/><path d="M166.8 216.92 166.58 216.92 166.69 216.86 166.8 216.92Z" fill="#404040"/><path d="M166.69 216.86 166.58 216.92 166.48 216.92 166.42 216.88 166.57 216.79 166.69 216.86Z" fill="#404040"/><path d="M166.57 216.79 166.42 216.88 166.41 216.88 166.25 216.79 166.57 216.79Z" fill="#404040"/><path d="M166.55 264.64 166.54 264.65 84.13 264.65 84.12 264.64 125.34 240.72 166.55 264.64Z" fill="#EE0000"/><path d="M166.54 264.65 125.34 288.57 84.13 264.65 166.54 264.65Z" fill="#EE0000"/><path d="M166.48 216.92 166.34 216.92 166.41 216.88 166.42 216.88 166.48 216.92Z" fill="#404040"/><path d="M166.41 73.25 166.46 73.33 166.45 73.33 166.45 121.18 125.26 49.46 125.26 49.39 125.26 49.36 166.41 73.25Z" fill="#FEFE00"/><path d="M166.46 169.06 125.24 192.99 84.02 169.06 84.03 169.05 166.45 169.05 166.46 169.06Z" fill="#EE0000"/><path d="M166.45 121.18 166.45 121.19 166.45 169.03 166.44 169.03 125.26 97.33 125.26 97.28 166.45 121.18Z" fill="#00D800"/><path d="M166.45 169.03 166.45 169.05 166.44 169.03 166.45 169.03Z" fill="#404040"/><path d="M125.26 49.46 166.45 121.18 125.26 97.28 125.26 97.26 125.26 49.46Z" fill="#EE0000"/><path d="M166.45 169.05 84.03 169.05 125.24 145.14 166.45 169.05Z" fill="#EE0000"/><path d="M125.26 97.33 166.44 169.03 125.26 145.13 125.26 97.33Z" fill="#00D800"/><path d="M125.26 1.6 166.41 73.25 125.26 49.36 125.26 1.6Z" fill="#FEFE00"/><path d="M166.41 216.88 166.34 216.92 84.33 216.92 84.16 216.83 84.16 216.82 84.23 216.79 166.25 216.79 166.41 216.88Z" fill="#404040"/><path d="M166.34 216.92 125.34 240.72 84.33 216.92 166.34 216.92Z" fill="#00D800"/><path d="M125.24 192.99 166.25 216.79 84.23 216.79 125.24 192.99Z" fill="#FEFE00"/><path d="M125.34 240.72 84.12 264.64 42.89 240.72 125.34 240.72Z" fill="#EE0000"/><path d="M125.34 240.72 42.89 240.72 42.84 240.69 42.86 240.66 83.76 216.92 84 216.92 84.33 216.92 125.34 240.72Z" fill="#FEFE00"/><path d="M84 216.79 83.76 216.79 42.78 193 42.79 192.99 125.24 192.99 84.23 216.79 84.1 216.79 84 216.79Z" fill="#00D800"/><path d="M125.24 192.99 42.79 192.99 84.02 169.06 125.24 192.99Z" fill="#EE0000"/><path d="M125.22 97.33 125.22 145.13 84.04 169.03 125.22 97.33Z" fill="#0000F2"/><path d="M125.22 97.28 125.22 97.33 84.04 169.03 84.03 169.03 84.03 121.19 84.03 121.18 125.22 97.28Z" fill="#0000F2"/><path d="M125.22 97.26 125.22 97.28 84.03 121.18 125.22 49.46 125.22 97.26Z" fill="#0000F2"/><path d="M125.22 49.41 125.22 49.46 84.03 121.18 84.03 73.33 125.22 49.41Z" fill="#0000F2"/><path d="M125.22 49.39 125.22 49.41 84.03 73.33 84.02 73.33 125.22 1.6 125.22 49.39Z" fill="#0000F2"/><path d="M84.33 216.92 84 216.92 84.16 216.83 84.33 216.92Z" fill="#404040"/><path d="M84.23 216.79 84.16 216.82 84.1 216.79 84.23 216.79Z" fill="#404040"/><path d="M84.16 216.82 84.16 216.83 84 216.92 83.89 216.85 84 216.79 84.1 216.79 84.16 216.82Z" fill="#404040"/><path d="M84.04 169.03 84.03 169.05 84.03 169.03 84.04 169.03Z" fill="#404040"/><path d="M84.03 121.19 84.03 169.03 84 169.05 42.8 192.97 84.02 121.19 84.03 121.19Z" fill="#00D800"/><path d="M84.03 73.33 84.03 121.18 84.03 121.19 84.02 121.19 42.79 145.13 84.02 73.33 84.03 73.33Z" fill="#FEFE00"/><path d="M84.02 121.19 42.8 192.97 42.77 192.99 42.74 192.97 42.74 145.2 42.79 145.13 84.02 121.19Z" fill="#EE0000"/><path d="M84 216.79 83.89 216.85 83.76 216.79 84 216.79Z" fill="#404040"/><path d="M84 216.92 83.76 216.92 83.89 216.85 84 216.92Z" fill="#404040"/><path d="M83.89 216.85 83.76 216.92 1.88 216.92 1.71 216.83 1.78 216.79 83.76 216.79 83.89 216.85Z" fill="#404040"/><path d="M42.78 193 83.76 216.79 1.78 216.79 42.78 193Z" fill="#00D800"/><path d="M83.76 216.92 42.86 240.66 42.84 240.69 1.88 216.92 83.76 216.92Z" fill="#FEFE00"/><path d="M42.79 192.99 42.78 193 42.77 192.99 42.79 192.99Z" fill="#404040"/><path d="M42.77 192.99 1.76 216.79 1.65 216.79 1.63 216.79 42.74 145.2 42.74 192.97 42.77 192.99Z" fill="#EE0000"/><path d="M1.88 216.92 1.86 216.92 1.71 216.83 1.88 216.92Z" fill="#404040"/><path d="M1.86 216.92 1.54 216.92 1.7 216.83 1.71 216.83 1.86 216.92Z" fill="#404040"/><path d="M1.78 216.79 1.71 216.83 1.7 216.82 1.76 216.79 1.78 216.79Z" fill="#404040"/><path d="M1.76 216.79 1.7 216.82 1.65 216.79 1.76 216.79Z" fill="#404040"/><path d="M1.7 216.82 1.69 216.83 1.63 216.79 1.65 216.79 1.7 216.82Z" fill="#404040"/><path d="M1.63 216.79 1.69 216.83 1.55 216.9 1.63 216.79Z" fill="#404040"/><path d="M1.76 216.79 42.77 192.99 42.8 192.97 84 169.05 84.03 169.03 84.04 169.03 125.22 145.13 125.24 145.12" stroke="#000000" stroke-width="3.05" stroke-linecap="round" stroke-miterlimit="10" fill="none"/><path d="M1.52 216.92 1.55 216.9 1.69 216.83 1.7 216.82" stroke="#000000" stroke-width="3.05" stroke-linecap="round" stroke-miterlimit="10" fill="none"/><path d="M207.68 192.97 166.48 169.05 166.45 169.03 166.44 169.03 125.26 145.13 125.24 145.12" stroke="#000000" stroke-width="3.05" stroke-linecap="round" stroke-miterlimit="10" fill="none"/><path d="M248.72 216.79 207.71 192.99 207.69 192.97" stroke="#000000" stroke-width="3.05" stroke-linecap="round" stroke-miterlimit="10" fill="none"/><path d="M248.95 216.92 248.92 216.9 248.89 216.88 248.87 216.88" stroke="#000000" stroke-width="3.05" stroke-linecap="round" stroke-miterlimit="10" fill="none"/><path d="M84 169.05 84.03 169.05 166.45 169.05 166.48 169.05" stroke="#000000" stroke-width="3.05" stroke-linecap="round" stroke-miterlimit="10" fill="none"/><path d="M42.77 192.99 42.79 192.99 125.24 192.99 207.69 192.99 207.71 192.99" stroke="#000000" stroke-width="3.05" stroke-linecap="round" stroke-miterlimit="10" fill="none"/><path d="M84.23 216.79 125.24 192.99 166.46 169.06 166.48 169.05" stroke="#000000" stroke-width="3.05" stroke-linecap="round" stroke-miterlimit="10" fill="none"/><path d="M166.25 216.79 125.24 192.99 84.02 169.06 84 169.05" stroke="#000000" stroke-width="3.05" stroke-linecap="round" stroke-miterlimit="10" fill="none"/><path d="M83.76 216.79 42.78 193 42.77 192.99" stroke="#000000" stroke-width="3.05" stroke-linecap="round" stroke-miterlimit="10" fill="none"/><line x1="166.81" y1="216.79" x2="207.71" y2="193.05" stroke="#000000" stroke-width="3.05" stroke-linecap="round" stroke-miterlimit="10" fill="none"/><path d="M248.79 216.92 248.82 216.92 248.93 216.92 248.95 216.92" stroke="#000000" stroke-width="3.05" stroke-linecap="round" stroke-miterlimit="10" fill="none"/><path d="M1.52 216.92 1.54 216.92 1.86 216.92 1.88 216.92" stroke="#000000" stroke-width="3.05" stroke-linecap="round" stroke-miterlimit="10" fill="none"/><path d="M125.26 1.52 125.26 1.6 125.26 49.36 125.26 49.39 125.26 49.46 125.26 97.26 125.26 97.28 125.26 97.33 125.26 145.13" stroke="#000000" stroke-width="3.05" stroke-linecap="round" stroke-miterlimit="10" fill="none"/><path d="M1.78 216.79 42.78 193 42.79 192.99 84.02 169.06 84.03 169.05 125.24 145.14 125.26 145.13" stroke="#000000" stroke-width="3.05" stroke-linecap="round" stroke-miterlimit="10" fill="none"/><line x1="1.55" y1="216.92" x2="1.7" y2="216.83" stroke="#000000" stroke-width="3.05" stroke-linecap="round" stroke-miterlimit="10" fill="none"/><path d="M125.26 97.26 125.25 97.28 125.24 97.29 125.22 97.33 84.04 169.03 84.03 169.05" stroke="#000000" stroke-width="3.05" stroke-linecap="round" stroke-miterlimit="10" fill="none"/><path d="M84.02 121.19 42.8 192.97 42.79 192.99" stroke="#000000" stroke-width="3.05" stroke-linecap="round" stroke-miterlimit="10" fill="none"/><path d="M125.26 49.39 125.24 49.42 125.22 49.46 84.03 121.18" stroke="#000000" stroke-width="3.05" stroke-linecap="round" stroke-miterlimit="10" fill="none"/><path d="M84.03 121.19 84.03 169.03 84.03 169.05" stroke="#000000" stroke-width="3.05" stroke-linecap="round" stroke-miterlimit="10" fill="none"/><line x1="84.03" y1="73.33" x2="84.03" y2="121.18" stroke="#000000" stroke-width="3.05" stroke-linecap="round" stroke-miterlimit="10" fill="none"/><path d="M42.79 145.13 84.02 121.19 84.03 121.19 84.03 121.18 125.22 97.28 125.23 97.28 125.24 97.27 125.26 97.26" stroke="#000000" stroke-width="3.05" stroke-linecap="round" stroke-miterlimit="10" fill="none"/><path d="M84.03 73.33 125.22 49.41 125.23 49.41 125.26 49.39" stroke="#000000" stroke-width="3.05" stroke-linecap="round" stroke-miterlimit="10" fill="none"/><path d="M42.74 145.1 42.74 145.2 42.74 192.97" stroke="#000000" stroke-width="3.05" stroke-linecap="round" stroke-miterlimit="10" fill="none"/><path d="M125.26 1.52 125.24 1.56 125.22 1.6 84.02 73.33 42.79 145.13 42.74 145.2 1.63 216.79 1.55 216.9 1.54 216.92" stroke="#000000" stroke-width="3.05" stroke-linecap="round" stroke-miterlimit="10" fill="none"/><path d="M248.7 216.79 207.73 193.01 207.69 192.99 166.46 169.06 166.45 169.05 125.24 145.14 125.22 145.13" stroke="#000000" stroke-width="3.05" stroke-linecap="round" stroke-miterlimit="10" fill="none"/><path d="M248.93 216.92 248.88 216.89 248.87 216.88" stroke="#000000" stroke-width="3.05" stroke-linecap="round" stroke-miterlimit="10" fill="none"/><path d="M125.22 1.52 125.22 1.6 125.22 49.39 125.22 49.41 125.22 49.46 125.22 97.26 125.22 97.28 125.22 97.33 125.22 145.13" stroke="#000000" stroke-width="3.05" stroke-linecap="round" stroke-miterlimit="10" fill="none"/><path d="M166.45 169.05 166.44 169.03 125.26 97.33 125.24 97.29 125.23 97.28 125.22 97.26" stroke="#000000" stroke-width="3.05" stroke-linecap="round" stroke-miterlimit="10" fill="none"/><path d="M166.45 121.18 125.26 49.46 125.24 49.42 125.23 49.41 125.22 49.39" stroke="#000000" stroke-width="3.05" stroke-linecap="round" stroke-miterlimit="10" fill="none"/><path d="M207.69 192.97 207.68 192.97 166.46 121.19" stroke="#000000" stroke-width="3.05" stroke-linecap="round" stroke-miterlimit="10" fill="none"/><path d="M166.45 121.18 125.26 97.28 125.25 97.28 125.24 97.27 125.22 97.26" stroke="#000000" stroke-width="3.05" stroke-linecap="round" stroke-miterlimit="10" fill="none"/><path d="M207.69 145.13 166.46 121.19 166.45 121.19" stroke="#000000" stroke-width="3.05" stroke-linecap="round" stroke-miterlimit="10" fill="none"/><path d="M166.45 73.33 166.45 121.18 166.45 121.19 166.45 169.03 166.45 169.05" stroke="#000000" stroke-width="3.05" stroke-linecap="round" stroke-miterlimit="10" fill="none"/><path d="M207.69 145.13 207.69 192.97 207.69 192.99" stroke="#000000" stroke-width="3.05" stroke-linecap="round" stroke-miterlimit="10" fill="none"/><path d="M166.5 73.3 166.41 73.25 125.26 49.36" stroke="#000000" stroke-width="3.05" stroke-linecap="round" stroke-miterlimit="10" fill="none"/><path d="M248.85 216.79 207.69 145.13 166.46 73.33 166.41 73.25 125.26 1.6 125.24 1.56 125.22 1.52" stroke="#000000" stroke-width="3.05" stroke-linecap="round" stroke-miterlimit="10" fill="none"/><path d="M248.93 216.92 248.92 216.9 248.9 216.87 248.9 216.86" stroke="#000000" stroke-width="3.05" stroke-linecap="round" stroke-miterlimit="10" fill="none"/><path d="M249.05 216.79 248.9 216.87 248.89 216.88 248.88 216.89 248.82 216.92 207.81 240.72 166.57 264.65 125.35 288.57 125.34 288.58" stroke="#000000" stroke-width="3.05" stroke-linecap="round" stroke-miterlimit="10" fill="none"/><path d="M84.11 264.65 125.32 288.57 125.33 288.58" stroke="#000000" stroke-width="3.05" stroke-linecap="round" stroke-miterlimit="10" fill="none"/><line x1="42.87" y1="240.72" x2="84.1" y2="264.65" stroke="#000000" stroke-width="3.05" stroke-linecap="round" stroke-miterlimit="10" fill="none"/><path d="M1.63 216.79 1.69 216.83 1.7 216.83 1.71 216.83 1.86 216.92 42.86 240.72" stroke="#000000" stroke-width="3.05" stroke-linecap="round" stroke-miterlimit="10" fill="none"/><path d="M166.57 264.65 166.54 264.65 84.13 264.65 84.11 264.65" stroke="#000000" stroke-width="3.05" stroke-linecap="round" stroke-miterlimit="10" fill="none"/><path d="M207.81 240.72 207.78 240.72 125.34 240.72 42.89 240.72 42.87 240.72 42.86 240.72" stroke="#000000" stroke-width="3.05" stroke-linecap="round" stroke-miterlimit="10" fill="none"/><path d="M166.57 216.79 166.42 216.88 166.41 216.88 166.34 216.92 125.34 240.72 84.12 264.64 84.11 264.65 84.1 264.65" stroke="#000000" stroke-width="3.05" stroke-linecap="round" stroke-miterlimit="10" fill="none"/><path d="M84.1 216.79 84.16 216.82 84.16 216.83 84.33 216.92 125.34 240.72 166.55 264.64 166.57 264.65" stroke="#000000" stroke-width="3.05" stroke-linecap="round" stroke-miterlimit="10" fill="none"/><path d="M166.57 216.79 166.69 216.86 166.8 216.92 207.79 240.71 207.81 240.72" stroke="#000000" stroke-width="3.05" stroke-linecap="round" stroke-miterlimit="10" fill="none"/><path d="M84.1 216.72 84 216.79 83.89 216.85 83.76 216.92 42.86 240.66" stroke="#000000" stroke-width="3.05" stroke-linecap="round" stroke-miterlimit="10" fill="none"/><path d="M249.05 216.79 249.02 216.79 248.85 216.79 248.72 216.79 248.7 216.79 166.81 216.79 166.57 216.79 166.25 216.79 84.23 216.79 84.1 216.79 84 216.79 83.76 216.79 1.78 216.79 1.76 216.79 1.65 216.79 1.63 216.79" stroke="#000000" stroke-width="3.05" stroke-linecap="round" stroke-miterlimit="10" fill="none"/><path d="M249.02 216.79 248.9 216.86 248.87 216.88 248.86 216.88 248.79 216.92 207.79 240.71 207.78 240.72 166.55 264.64 166.54 264.65 125.34 288.57 125.32 288.57 125.31 288.58" stroke="#000000" stroke-width="3.05" stroke-linecap="round" stroke-miterlimit="10" fill="none"/><path d="M1.65 216.79 1.7 216.82 1.71 216.83 1.88 216.92 42.84 240.69 42.89 240.72 84.12 264.64 84.13 264.65 125.34 288.57 125.35 288.57 125.36 288.58" stroke="#000000" stroke-width="3.05" stroke-linecap="round" stroke-miterlimit="10" fill="none"/></g></g></svg>