<svg viewBox="0 0 103.34 116.8" xmlns="http://www.w3.org/2000/svg" xmlns:xlink="http://www.w3.org/1999/xlink" overflow="hidden"><defs></defs><g id="Layer_2"><g id="图层_1"><path d="M67.98 50.32 99.78 21.96 95.48 78.78 66.4 113.25 67.98 50.32Z" stroke="#000000" stroke-width="7.11" stroke-linejoin="round"/><path d="M41.82 9.21 99.78 21.96 67.98 50.32 3.56 32.82 41.82 9.21Z" stroke="#000000" stroke-width="7.11" stroke-linejoin="round"/><path d="M3.56 32.82 67.98 50.32 66.4 113.25 8.44 92.11 3.56 32.82Z" stroke="#000000" stroke-width="7.11" stroke-linejoin="round"/><path d="M69.78 50.75 80.46 41.23 79.58 60.89 69.27 71.18 69.78 50.75Z" fill="#404040"/><path d="M82.21 39.58 91.74 31.08 90.58 50.01 81.34 59.23 82.21 39.58Z" fill="#404040"/><path d="M93.32 29.6 101.87 21.97 100.49 40.22 92.16 48.53 93.32 29.6Z" fill="#A83DD9"/><path d="M69.16 74.59 79.47 64.3 78.66 82.58 68.68 93.5 69.16 74.59Z" fill="#404040"/><path d="M81.17 62.53 90.41 53.31 89.33 70.98 80.36 80.81 81.17 62.53Z" fill="#808080"/><path d="M91.94 51.71 100.27 43.4 98.98 60.49 90.86 69.38 91.94 51.71Z" fill="#404040"/><path d="M68.57 96.67 78.55 85.75 77.79 102.79 68.13 114.23 68.57 96.67Z" fill="#404040"/><path d="M80.2 83.88 89.17 74.05 88.16 90.57 79.44 100.91 80.2 83.88Z" fill="#808080"/><path d="M90.66 72.35 98.78 63.46 97.56 79.5 89.65 88.88 90.66 72.35Z" fill="#404040"/><path d="M41.68 7.04 58.17 10.67 48.3 17.46 31.27 13.46 41.68 7.04Z" fill="#404040"/><path d="M61.22 11.36 78.67 15.2 69.41 22.39 51.35 18.15 61.22 11.36Z" fill="#404040"/><path d="M81.9 15.94 100.36 20 91.81 27.63 72.64 23.13 81.9 15.94Z" fill="#404040"/><path d="M29.39 14.69 46.42 18.68 35.5 26.19 17.92 21.76 29.39 14.69Z" fill="#404040"/><path d="M49.58 19.45 67.63 23.69 57.35 31.67 38.65 26.96 49.58 19.45Z" fill="#404040"/><path d="M70.98 24.51 90.15 29.01 80.62 37.51 60.7 32.49 70.98 24.51Z" fill="#404040"/><path d="M15.83 23.13 33.42 27.55 21.27 35.91 3.11 30.98 15.83 23.13Z" fill="#404040"/><path d="M36.68 28.41 55.38 33.12 43.9 42.03 24.53 36.76 36.68 28.41Z" fill="#404040"/><path d="M58.85 34.03 78.78 39.05 68.11 48.57 47.38 42.94 58.85 34.03Z" fill="#404040"/><path d="M2.07 33.39 20.23 38.33 21.2 57.87 3.64 52.52 2.07 33.39Z" fill="#A83DD9"/><path d="M23.48 39.26 42.86 44.53 43.13 64.51 24.45 58.81 23.48 39.26Z" fill="#404040"/><path d="M46.33 45.53 67.05 51.16 66.53 71.59 46.6 65.51 46.33 45.53Z" fill="#A83DD9"/><path d="M3.86 55.81 21.41 61.16 22.32 79.34 5.33 73.64 3.86 55.81Z" fill="#404040"/><path d="M24.56 62.17 43.24 67.87 43.5 86.41 25.46 80.35 24.56 62.17Z" fill="#808080"/><path d="M46.58 68.94 66.52 75.02 66.04 93.93 46.84 87.48 46.58 68.94Z" fill="#404040"/><path d="M5.54 76.7 22.52 82.41 23.36 99.36 6.91 93.36 5.54 76.7Z" fill="#404040"/><path d="M25.56 83.47 43.6 89.53 43.84 106.79 26.4 100.43 25.56 83.47Z" fill="#808080"/><path d="M46.83 90.67 66.03 97.11 65.59 114.67 47.06 107.92 46.83 90.67Z" fill="#404040"/><path d="M28 12.5 14.27 7.3C13.41 6.97 13.27 6.3 14.02 5.91L22.35 0.84C23.2354 0.38502 24.2676 0.309227 25.21 0.63L39 5.83C39.86 6.15 40 6.83 39.25 7.22L30.93 12.29C30.0228 12.7567 28.9644 12.8325 28 12.5Z" stroke="#000000" stroke-width="0.87" stroke-miterlimit="10" fill="#A83DD9"/></g></g></svg>