<svg width="102" height="117.5" viewBox="0 0 102 117.5" xmlns="http://www.w3.org/2000/svg" xmlns:xlink="http://www.w3.org/1999/xlink" overflow="visible"><defs></defs><path d="M51 1 76 15.4 26 15.4Z" fill="#404040"/><path d="M76 16.4 26 16.4C25.5 16.4 25.2 16.1 25 15.7 24.8 15.3 25.1 14.8 25.5 14.6L50.5 0.2C50.8 -7.21645e-16 51.2 -7.21645e-16 51.5 0.2L76.5 14.6C76.9 14.8 77.1 15.3 77 15.7 76.9 16.1 76.5 16.4 76 16.4ZM29.7 14.4 72.2 14.4 51 2.2 29.7 14.4Z"/><path d="M1 29.9 26 15.4 26 44.3Z" fill="#404040"/><path d="M26 45.3C25.8 45.3 25.7 45.3 25.5 45.2L0.5 30.8C0.2 30.6 0 30.2 0 29.9 0 29.6 0.2 29.2 0.5 29L25.5 14.6C25.8 14.4 26.2 14.4 26.5 14.6 26.8 14.8 27 15.1 27 15.5L27 44.4C27 44.8 26.8 45.1 26.5 45.3 26.3 45.3 26.2 45.3 26 45.3ZM3 29.9 25 42.6 25 17.2 3 29.9Z"/><path d="M101 29.9 76 44.3 76 15.4Z" fill="#404040"/><path d="M76 45.3C75.8 45.3 75.7 45.3 75.5 45.2 75.2 45 75 44.7 75 44.3L75 15.4C75 15 75.2 14.7 75.5 14.5 75.8 14.3 76.2 14.3 76.5 14.5L101.5 28.9C101.8 29.1 102 29.4 102 29.8 102 30.2 101.8 30.5 101.5 30.7L76.5 45.1C76.3 45.3 76.2 45.3 76 45.3ZM77 17.2 77 42.6 99 29.9 77 17.2Z"/><path d="M51 58.7 26 44.3 76 44.3Z" fill="#404040"/><path d="M51 59.7C50.8 59.7 50.7 59.7 50.5 59.6L25.5 45.2C25.1 45 24.9 44.5 25 44.1 25.1 43.7 25.5 43.4 26 43.4L76 43.4C76.5 43.4 76.8 43.7 77 44.1 77.2 44.5 76.9 45 76.5 45.2L51.5 59.6C51.3 59.7 51.2 59.7 51 59.7ZM29.7 45.3 51 57.6 72.3 45.3 29.7 45.3Z"/><path d="M76 44.3 26 44.3 26 15.4 76 15.4Z" fill="#404040"/><path d="M76 45.3 26 45.3C25.4 45.3 25 44.9 25 44.3L25 15.4C25 14.8 25.4 14.4 26 14.4L76 14.4C76.6 14.4 77 14.8 77 15.4L77 44.3C77 44.9 76.6 45.3 76 45.3ZM27 43.3 75 43.3 75 16.4 27 16.4 27 43.3Z"/><path d="M51 58.7 51 87.6 26 44.3Z" fill="#404040"/><path d="M51 88.6C50.6 88.6 50.3 88.4 50.1 88.1L25.1 44.8C24.9 44.4 24.9 43.9 25.3 43.6 25.7 43.3 26.1 43.2 26.5 43.4L51.5 57.8C51.8 58 52 58.3 52 58.7L52 87.6C52 88.1 51.7 88.4 51.3 88.6 51.2 88.6 51.1 88.6 51 88.6ZM28.7 47 50 83.9 50 59.3 28.7 47Z"/><path d="M1 29.9 26 44.3 1 58.7Z" fill="#404040"/><path d="M1 59.7C0.8 59.7 0.7 59.7 0.5 59.6 0.2 59.4 0 59.1 0 58.7L0 29.9C0 29.5 0.2 29.2 0.5 29 0.8 28.8 1.2 28.8 1.5 29L26.5 43.4C26.8 43.6 27 43.9 27 44.3 27 44.7 26.8 45 26.5 45.2L1.5 59.6C1.3 59.7 1.2 59.7 1 59.7ZM2 31.6 2 57 24 44.3 2 31.6Z"/><path d="M51 116.5 26 102 51 87.6Z" fill="#0000F2"/><path d="M51 117.5C50.8 117.5 50.7 117.5 50.5 117.4L25.5 103C25.2 102.8 25 102.5 25 102.1 25 101.7 25.2 101.4 25.5 101.2L50.5 86.8C50.8 86.6 51.2 86.6 51.5 86.8 51.8 87 52 87.3 52 87.7L52 116.6C52 117 51.8 117.3 51.5 117.5 51.3 117.4 51.2 117.5 51 117.5ZM28 102 50 114.7 50 89.3 28 102Z"/><path d="M1 87.6 1 58.7 26 102Z" fill="#0000F2"/><path d="M26 103C25.8 103 25.7 103 25.5 102.9L0.5 88.5C0.2 88.3 0 88 0 87.6L0 58.7C0 58.2 0.3 57.9 0.7 57.7 1.1 57.6 1.6 57.8 1.8 58.2L26.8 101.5C27 101.9 27 102.4 26.6 102.7 26.5 102.9 26.3 103 26 103ZM2 87 23.3 99.3 2 62.5 2 87Z"/><path d="M26 44.3 51 87.6 26 102 1 58.7Z" fill="#FF0000"/><path d="M26 103C25.9 103 25.8 103 25.7 103 25.4 102.9 25.2 102.8 25.1 102.5L0.1 59.2C0 59 0 58.7 0 58.5 0 58.3 0.2 58 0.5 57.9L25.5 43.5C26 43.2 26.6 43.4 26.9 43.9L51.9 87.2C52.2 87.7 52 88.3 51.5 88.6L26.5 103C26.3 103 26.2 103 26 103ZM2.4 59.1 26.4 100.7 49.7 87.3 25.7 45.7 2.4 59.1Z"/><path d="M101 29.9 101 58.7 76 44.3Z" fill="#404040"/><path d="M101 59.7C100.8 59.7 100.7 59.7 100.5 59.6L75.5 45.2C75.2 45 75 44.7 75 44.3 75 43.9 75.2 43.6 75.5 43.4L100.5 29C100.8 28.8 101.2 28.8 101.5 29 101.8 29.2 102 29.5 102 29.9L102 58.8C102 59.2 101.8 59.5 101.5 59.7 101.3 59.7 101.2 59.7 101 59.7ZM78 44.3 100 57 100 31.6 78 44.3Z"/><path d="M51 58.7 76 44.3 51 87.6Z" fill="#404040"/><path d="M51 88.6C50.9 88.6 50.8 88.6 50.7 88.6 50.3 88.5 50 88.1 50 87.6L50 58.7C50 58.3 50.2 58 50.5 57.8L75.5 43.4C75.9 43.2 76.4 43.2 76.7 43.6 77 44 77.1 44.4 76.9 44.8L51.9 88.1C51.7 88.4 51.4 88.6 51 88.6ZM52 59.3 52 83.9 73.3 47 52 59.3Z"/><path d="M101 87.6 76 102 101 58.7Z" fill="#FF0000"/><path d="M76 103C75.7 103 75.5 102.9 75.3 102.7 75 102.4 74.9 101.9 75.1 101.5L100.1 58.2C100.3 57.8 100.8 57.6 101.2 57.7 101.6 57.8 101.9 58.2 101.9 58.7L101.9 87.6C101.9 88 101.7 88.3 101.4 88.5L76.4 102.9C76.3 103 76.2 103 76 103ZM100 62.5 78.7 99.3 100 87 100 62.5Z"/><path d="M51 116.5 51 87.6 76 102Z" fill="#FF0000"/><path d="M51 117.5C50.8 117.5 50.7 117.5 50.5 117.4 50.2 117.2 50 116.9 50 116.5L50 87.6C50 87.2 50.2 86.9 50.5 86.7 50.8 86.5 51.2 86.5 51.5 86.7L76.5 101.1C76.8 101.3 77 101.6 77 102 77 102.4 76.8 102.7 76.5 102.9L51.5 117.3C51.3 117.4 51.2 117.5 51 117.5ZM52 89.3 52 114.7 74 102 52 89.3Z"/><path d="M51 87.6 76 44.3 101 58.7 76 102Z" fill="#0000F2"/><path d="M76 103C75.8 103 75.7 103 75.5 102.9L50.5 88.5C50 88.2 49.9 87.6 50.1 87.1L75.1 43.8C75.4 43.3 76 43.2 76.5 43.4L101.5 57.8C101.7 57.9 101.9 58.2 102 58.4 102.1 58.6 102 58.9 101.9 59.2L76.9 102.5C76.8 102.7 76.5 102.9 76.3 103 76.2 103 76.1 103 76 103ZM52.4 87.2 75.7 100.6 99.7 59 76.4 45.7 52.4 87.2Z"/></svg>