<svg version="1.1" viewBox="0 0 202 117.47" xmlns="http://www.w3.org/2000/svg" xmlns:xlink="http://www.w3.org/1999/xlink" overflow="hidden"><defs></defs><g id="acc24732-6849-423b-bad3-4921baca84ea"><g id="b79dd0eb-7b28-4c85-a894-84174fd53930"><path d=" M 101 1 L 76 15.43 L 126 15.43 L 101 1 Z" stroke="#000000" stroke-width="2" stroke-linejoin="round" fill="#404040"/><path d=" M 151 29.87 L 126 15.43 L 126 44.3 L 151 29.87 Z" stroke="#000000" stroke-width="2" stroke-linejoin="round" fill="#404040"/><path d=" M 51 29.87 L 76 44.3 L 76 15.43 L 51 29.87 Z" stroke="#000000" stroke-width="2" stroke-linejoin="round" fill="#404040"/><path d=" M 101 58.73 L 126 44.3 L 76 44.3 L 101 58.73 Z" stroke="#000000" stroke-width="2" stroke-linejoin="round" fill="#404040"/><path d=" M 76 44.3 L 126 44.3 L 126 15.43 L 76 15.43 L 76 44.3 Z" stroke="#000000" stroke-width="2" stroke-linejoin="round" fill="#404040"/><path d=" M 101 58.73 L 101 87.6 L 126 44.3 L 101 58.73 Z" stroke="#000000" stroke-width="2" stroke-linejoin="round" fill="#404040"/><path d=" M 151 29.87 L 126 44.3 L 151 58.73 L 151 29.87 Z" stroke="#000000" stroke-width="2" stroke-linejoin="round" fill="#404040"/><path d=" M 101 116.47 L 126 102.04 L 101 87.6 L 101 116.47 Z" stroke="#000000" stroke-width="2" stroke-linejoin="round" fill="#00D800"/><path d=" M 151 87.6 L 151 58.73 L 126 102.04 L 151 87.6 Z" stroke="#000000" stroke-width="2" stroke-linejoin="round" fill="#00D800"/><path d=" M 126 44.3 L 101 87.6 L 126 102.04 L 151 58.73 L 126 44.3 Z" stroke="#000000" stroke-width="2" stroke-linejoin="round" fill="#404040"/><path d=" M 51 29.87 L 51 58.73 L 76 44.3 L 51 29.87 Z" stroke="#000000" stroke-width="2" stroke-linejoin="round" fill="#404040"/><path d=" M 101 58.73 L 76 44.3 L 101 87.6 L 101 58.73 Z" stroke="#000000" stroke-width="2" stroke-linejoin="round" fill="#404040"/><path d=" M 51 87.6 L 76 102.04 L 51 58.73 L 51 87.6 Z" stroke="#000000" stroke-width="2" stroke-linejoin="round" fill="#EE0000"/><path d=" M 101 116.47 L 101 87.6 L 76 102.04 L 101 116.47 Z" stroke="#000000" stroke-width="2" stroke-linejoin="round" fill="#EE0000"/><path d=" M 101 87.6 L 76 44.3 L 51 58.73 L 76 102.04 L 101 87.6 Z" stroke="#000000" stroke-width="2" stroke-linejoin="round" fill="#404040"/><path d=" M 1 1 L 1 29.87 L 26 15.43 L 1 1 Z" stroke="#000000" stroke-width="2" stroke-linejoin="round" fill="#404040"/><path d=" M 51 29.87 L 26 15.43 L 51 58.73 L 51 29.87 Z" stroke="#000000" stroke-width="2" stroke-linejoin="round" fill="#404040"/><path d=" M 1 58.73 L 26 73.17 L 1 29.87 L 1 58.73 Z" stroke="#000000" stroke-width="2" stroke-linejoin="round" fill="#0000F2"/><path d=" M 51 87.6 L 51 58.73 L 26 73.17 L 51 87.6 Z" stroke="#000000" stroke-width="2" stroke-linejoin="round" fill="#0000F2"/><path d=" M 51 58.73 L 26 15.43 L 1 29.87 L 26 73.17 L 51 58.73 Z" stroke="#000000" stroke-width="2" stroke-linejoin="round" fill="#404040"/><path d=" M 151 29.87 L 151 58.73 L 176 15.43 L 151 29.87 Z" stroke="#000000" stroke-width="2" stroke-linejoin="round" fill="#404040"/><path d=" M 201 1 L 176 15.43 L 201 29.87 L 201 1 Z" stroke="#000000" stroke-width="2" stroke-linejoin="round" fill="#404040"/><path d=" M 151 87.6 L 176 73.17 L 151 58.73 L 151 87.6 Z" stroke="#000000" stroke-width="2" stroke-linejoin="round" fill="#FFA100"/><path d=" M 201 58.73 L 201 29.87 L 176 73.17 L 201 58.73 Z" stroke="#000000" stroke-width="2" stroke-linejoin="round" fill="#FFA100"/><path d=" M 176 15.43 L 151 58.73 L 176 73.17 L 201 29.87 L 176 15.43 Z" stroke="#000000" stroke-width="2" stroke-linejoin="round" fill="#404040"/></g></g></svg>