<svg version="1.1" width="150" height="150" viewBox="-0.9 -0.9 1.8 1.8" xmlns="http://www.w3.org/2000/svg" xmlns:xlink="http://www.w3.org/1999/xlink" overflow="hidden"><g stroke-width="0.1" stroke-linejoin="round" opacity="1"><path d=" M -0.457651 -0.635324 L 0.457651 -0.635324 L 0.545765 -0.147272 L -0.545765 -0.147272 Z" stroke="#000000" fill="#000000"/><path d=" M -0.545765 -0.147272 L 0.545765 -0.147272 L 0.483034 0.670563 L -0.483034 0.670563 Z" stroke="#000000" fill="#000000"/></g><g stroke-width="0" stroke-linejoin="round" stroke-opacity="0.5" opacity="1"><path d=" M -0.469373 -0.66737 L -0.262456 -0.66737 L -0.271159 -0.570961 L -0.486779 -0.570961 Z" stroke="#000000" fill="#404040"/><path d=" M -0.225174 -0.66737 L -0.0182573 -0.66737 L -0.0182573 -0.570961 L -0.233877 -0.570961 Z" stroke="#000000" fill="#404040"/><path d=" M 0.0190252 -0.66737 L 0.225942 -0.66737 L 0.234645 -0.570961 L 0.0190252 -0.570961 Z" stroke="#000000" fill="#404040"/><path d=" M 0.263224 -0.66737 L 0.470141 -0.66737 L 0.487547 -0.570961 L 0.271927 -0.570961 Z" stroke="#000000" fill="#404040"/><path d=" M -0.48915 -0.553201 L -0.273531 -0.553201 L -0.282998 -0.448325 L -0.508084 -0.448325 Z" stroke="#000000" fill="#404040"/><path d=" M -0.234645 -0.553201 L -0.0190252 -0.553201 L -0.0190252 -0.448325 L -0.244112 -0.448325 Z" stroke="#000000" fill="#EE0000"/><path d=" M 0.0198606 -0.553201 L 0.23548 -0.553201 L 0.244947 -0.448325 L 0.0198606 -0.448325 Z" stroke="#000000" fill="#00D800"/><path d=" M 0.274366 -0.553201 L 0.489985 -0.553201 L 0.50892 -0.448325 L 0.283833 -0.448325 Z" stroke="#000000" fill="#404040"/><path d=" M -0.510667 -0.428968 L -0.285581 -0.428968 L -0.295917 -0.31446 L -0.531341 -0.31446 Z" stroke="#000000" fill="#404040"/><path d=" M -0.244947 -0.428968 L -0.0198606 -0.428968 L -0.0198606 -0.31446 L -0.255284 -0.31446 Z" stroke="#000000" fill="#00D800"/><path d=" M 0.0207727 -0.428968 L 0.245859 -0.428968 L 0.256196 -0.31446 L 0.0207727 -0.31446 Z" stroke="#000000" fill="#00D800"/><path d=" M 0.286493 -0.428968 L 0.511579 -0.428968 L 0.532253 -0.31446 L 0.296829 -0.31446 Z" stroke="#000000" fill="#404040"/><path d=" M -0.534165 -0.29328 L -0.298741 -0.29328 L -0.310073 -0.167748 L -0.556828 -0.167748 Z" stroke="#000000" fill="#404040"/><path d=" M -0.256196 -0.29328 L -0.0207727 -0.29328 L -0.0207727 -0.167748 L -0.267528 -0.167748 Z" stroke="#000000" fill="#404040"/><path d=" M 0.0217725 -0.29328 L 0.257196 -0.29328 L 0.268528 -0.167748 L 0.0217725 -0.167748 Z" stroke="#000000" fill="#404040"/><path d=" M 0.299741 -0.29328 L 0.535165 -0.29328 L 0.557828 -0.167748 L 0.311073 -0.167748 Z" stroke="#000000" fill="#404040"/><path d=" M -0.558144 -0.13882 L -0.311388 -0.13882 L -0.303629 0.0635044 L -0.542625 0.0635044 Z" stroke="#000000" fill="#404040"/><path d=" M -0.268528 -0.13882 L -0.0217725 -0.13882 L -0.0217725 0.0635044 L -0.260768 0.0635044 Z" stroke="#000000" fill="#404040"/><path d=" M 0.0210879 -0.13882 L 0.267843 -0.13882 L 0.260084 0.0635044 L 0.0210879 0.0635044 Z" stroke="#000000" fill="#404040"/><path d=" M 0.310704 -0.13882 L 0.557459 -0.13882 L 0.54194 0.0635044 L 0.302944 0.0635044 Z" stroke="#000000" fill="#404040"/><path d=" M -0.540613 0.0981201 L -0.301617 0.0981201 L -0.29433 0.288108 L -0.52604 0.288108 Z" stroke="#000000" fill="#A83DD9"/><path d=" M -0.260084 0.0981201 L -0.0210879 0.0981201 L -0.0210879 0.288108 L -0.252797 0.288108 Z" stroke="#000000" fill="#EE0000"/><path d=" M 0.020445 0.0981201 L 0.259441 0.0981201 L 0.252155 0.288108 L 0.020445 0.288108 Z" stroke="#000000" fill="#EE0000"/><path d=" M 0.300974 0.0981201 L 0.53997 0.0981201 L 0.525397 0.288108 L 0.293687 0.288108 Z" stroke="#000000" fill="#404040"/><path d=" M -0.524149 0.320643 L -0.29244 0.320643 L -0.285584 0.499389 L -0.510439 0.499389 Z" stroke="#000000" fill="#A83DD9"/><path d=" M -0.252155 0.320643 L -0.020445 0.320643 L -0.020445 0.499389 L -0.245299 0.499389 Z" stroke="#000000" fill="#EE0000"/><path d=" M 0.0198401 0.320643 L 0.25155 0.320643 L 0.244695 0.499389 L 0.0198401 0.499389 Z" stroke="#000000" fill="#00D800"/><path d=" M 0.291835 0.320643 L 0.523544 0.320643 L 0.509834 0.499389 L 0.28498 0.499389 Z" stroke="#000000" fill="#404040"/><path d=" M -0.508659 0.530026 L -0.283805 0.530026 L -0.277343 0.6985 L -0.495737 0.6985 Z" stroke="#000000" fill="#404040"/><path d=" M -0.244695 0.530026 L -0.0198401 0.530026 L -0.0198401 0.6985 L -0.238233 0.6985 Z" stroke="#000000" fill="#404040"/><path d=" M 0.01927 0.530026 L 0.244124 0.530026 L 0.237663 0.6985 L 0.01927 0.6985 Z" stroke="#000000" fill="#404040"/><path d=" M 0.283235 0.530026 L 0.508089 0.530026 L 0.495167 0.6985 L 0.276773 0.6985 Z" stroke="#000000" fill="#404040"/></g></svg>