<svg viewBox="0 0 409.82 87.07" xmlns="http://www.w3.org/2000/svg" xmlns:xlink="http://www.w3.org/1999/xlink" overflow="hidden"><defs></defs><g id="图层_2"><g id="图层_1-2"><text fill="#393939" font-family="Orbitron-Bold,Orbitron" font-weight="700" font-size="48.13" transform="matrix(0.97 0 0 1 154.53 64.36)">C<tspan letter-spacing="-0.02em" x="39.56" y="0">u</tspan><tspan letter-spacing="0em" x="72.29" y="0">beR</tspan><tspan letter-spacing="-0.02em" x="177.41" y="0">o</tspan><tspan letter-spacing="-0.02em" x="209.61" y="0">o</tspan><tspan x="241.71" y="0">t</tspan></text><path d="M148.81 0 148.81 3.78 147.68 3.78C120.487 3.78 93.2967 3.78 66.11 3.78 65.4384 3.70607 64.812 4.1293 64.63 4.78 55.6167 24.0133 46.5833 43.2633 37.53 62.53L26.86 85.24C26.43 86.16 26.02 87.05 24.77 87.07 23.9669 87.1066 23.2399 86.5974 23 85.83 21.48 82.36 19.94 78.9 18.41 75.44L6.63 48.83C6.52 48.59 6.39 48.35 6.23 48.03 5 49 3.85 49.88 2.67 50.78 2.20278 51.1649 1.69672 51.5 1.16 51.78 0.86 51.91 0.16 51.84 0.16 51.69-0.0213904 51.2861-0.0213904 50.8239 0.16 50.42 0.698651 49.8437 1.29512 49.3243 1.94 48.87 4.26 47.05 6.58 45.25 8.94 43.44L9.33 43.15C10.46 42.42 10.97 42.49 11.52 43.67 12.34 45.43 13.1 47.23 13.89 49.02 18.03 58.44 22.1733 67.8567 26.32 77.27 26.39 77.43 26.49 77.57 26.63 77.82L29.46 71.82C33.9733 62.14 38.4867 52.4533 43 42.76L61.77 2.67C61.87 2.46 61.99 2.26 62.08 2.04 62.5389 0.714044 63.8556-0.116687 65.25 0.04 92.7033 0.08 120.153 0.08 147.6 0.04Z"/><path d="M18.44 37.32C19.3447 37.8226 20.3 38.2282 21.29 38.53 23.0315 38.9259 24.8143 39.1105 26.6 39.08 30.87 38.85 32.67 35.49 32.28 31.6 31.83 27.24 29 25.28 24.28 25.85 23.9445 25.8808 23.6063 25.8538 23.28 25.77 22.78 25.67 21.86 25.95 21.87 25 21.87 24.36 22.26 24.31 22.73 24.27 23.9392 24.2242 25.1446 24.1074 26.34 23.92 29.5408 23.0594 31.6266 19.9819 31.24 16.69 31.0267 14.7803 29.5669 13.2469 27.67 12.94 25.4367 12.5094 23.1242 12.8037 21.07 13.78 20.5234 14.0754 19.9988 14.4096 19.5 14.78 20.4881 15.0204 21.2596 15.7919 21.5 16.78 21.843 18.1003 21.0508 19.4487 19.7304 19.7917 19.6544 19.8115 19.5775 19.8276 19.5 19.84 18.1864 20.0169 16.9781 19.0954 16.8012 17.7818 16.7886 17.6884 16.7815 17.5943 16.78 17.5 16.689 15.8398 17.441 14.2457 18.78 13.26 20.5208 11.9665 22.6127 11.2308 24.78 11.15 27.3844 10.8476 30.0202 11.3171 32.36 12.5 36.47 14.65 37.08 19.19 33.6 22.35 32.4253 23.2796 31.1817 24.1187 29.88 24.86 30.55 25.11 31.41 25.37 32.22 25.76 34.53 26.85 36.46 28.36 37.12 31.04 37.6733 33.3129 36.9763 35.7086 35.29 37.33 33.1019 39.5984 30.0917 40.889 26.94 40.91 24.479 41.0925 22.0078 40.7341 19.7 39.86 17.78 39.1 16.1 38 15.55 35.79 15.3635 35.0127 15.3464 34.2044 15.5 33.42 15.796 32.3033 16.8484 31.5583 18 31.65 19.1512 31.7045 20.1227 32.5244 20.37 33.65 20.7113 34.8644 20.1457 36.1506 19.02 36.72 18.82 36.82 18.61 36.9 18.4 36.98Z"/><path d="M73.29 15.74 92.89 15.74 92.89 35.34 73.29 35.34 73.29 15.74Z" fill="#EE0000"/><path d="M96.35 15.74 115.94 15.74 115.94 35.34 96.35 35.34 96.35 15.74Z" fill="#EE0000"/><path d="M119.4 15.74 139 15.74 139 35.34 119.4 35.34 119.4 15.74Z" fill="#EE0000"/><path d="M73.29 38.8 92.89 38.8 92.89 58.4 73.29 58.4 73.29 38.8Z" fill="#0000F2"/><path d="M96.35 38.8 115.94 38.8 115.94 58.4 96.35 58.4 96.35 38.8Z" fill="#EE0000"/><path d="M119.4 38.8 139 38.8 139 58.4 119.4 58.4 119.4 38.8Z" fill="#0000F2"/><path d="M73.29 61.85 92.89 61.85 92.89 81.45 73.29 81.45 73.29 61.85Z" fill="#0000F2"/><path d="M96.35 61.85 115.94 61.85 115.94 81.45 96.35 81.45 96.35 61.85Z" fill="#EE0000"/><path d="M119.4 61.85 139 61.85 139 81.45 119.4 81.45 119.4 61.85Z" fill="#0000F2"/></g></g></svg>