<svg version="1.1" viewBox="0 0 138.56 81.07" xmlns="http://www.w3.org/2000/svg" xmlns:xlink="http://www.w3.org/1999/xlink" overflow="hidden"><defs></defs><g id="图层_2"><g id="图层_1-2"><path d=" M 106.77 43 L 99.66 18.16 L 92.55 43 L 92.55 43 C 91.4477 46.924 93.7352 50.9986 97.6592 52.1008 C 101.583 53.2031 105.658 50.9157 106.76 46.9917 C 107.127 45.6864 107.127 44.3053 106.76 43 Z" fill="none"/><path d=" M 99.66 15.48 C 83.3952 15.48 70.21 28.6652 70.21 44.93 C 70.21 61.1948 83.3952 74.38 99.66 74.38 C 115.925 74.38 129.11 61.1948 129.11 44.93 C 129.104 28.6675 115.923 15.4855 99.66 15.48 Z M 99.66 52.48 C 95.5676 52.4717 92.2567 49.1474 92.265 45.055 C 92.2664 44.3596 92.3657 43.6678 92.56 43 L 92.56 43 L 99.67 18.13 L 106.77 43 L 106.77 43 C 107.869 46.9593 105.551 51.0599 101.591 52.1591 C 100.962 52.3338 100.313 52.4248 99.66 52.43 Z" fill="#0000F2"/><path d=" M 104.34 44.09 L 99.66 27.73 L 95 44.09 L 95 44.09 C 94.8787 44.5194 94.8181 44.9638 94.82 45.41 C 94.6983 48.0913 96.7733 50.3637 99.4546 50.4854 C 102.136 50.6071 104.408 48.5321 104.53 45.8508 C 104.537 45.7039 104.537 45.5569 104.53 45.41 C 104.529 44.9633 104.465 44.519 104.34 44.09 Z" fill="#EE0000"/><path d=" M 138.56 0 L 138.56 3.52 L 137.51 3.52 C 112.177 3.52 86.86 3.52 61.56 3.52 C 60.9462 3.44778 60.3674 3.82106 60.18 4.41 C 51.78 22.35 43.3667 40.2867 34.94 58.22 L 25 79.37 C 24.6 80.23 24.21 81.05 23 81.07 C 22.2444 81.1157 21.5569 80.6352 21.34 79.91 C 19.92 76.69 18.4933 73.4667 17.06 70.24 L 6.06 45.46 C 5.96 45.24 5.84 45.02 5.69 44.72 C 4.57 45.59 3.48 46.44 2.38 47.28 C 1.94293 47.643 1.47057 47.9613 0.97 48.23 C 0.69 48.36 0.06 48.29 -0.03 48.14 C -0.135767 47.753 -0.074082 47.3393 0.14 47 C 0.63713 46.45 1.19389 45.957 1.8 45.53 C 3.95 43.83 6.12 42.15 8.28 40.46 L 8.65 40.19 C 9.65 39.51 10.18 39.58 10.65 40.68 C 11.42 42.32 12.12 44 12.86 45.68 C 16.74 54.44 20.61 63.2133 24.47 72 C 24.54 72.15 24.63 72.28 24.75 72.51 C 25.66 70.59 26.53 68.76 27.39 66.91 C 31.6167 57.89 35.84 48.8667 40.06 39.84 L 57.52 2.49 C 57.61 2.29 57.72 2.1 57.8 1.9 C 58.2125 0.627291 59.4731 -0.171064 60.8 -2.38419e-08 C 86.3333 0.04 111.877 0.04 137.43 0 Z"/></g></g></svg>