<svg version="1.1" viewBox="0 0 401.01 320.77" xmlns="http://www.w3.org/2000/svg" xmlns:xlink="http://www.w3.org/1999/xlink" id="图层_1" overflow="hidden"><defs></defs><path d=" M 625 121.11 L 625 121.11 L 625 121.11 Z M 623.07 125.38 L 619.85 125.38 C 546.99 125.38 474.127 125.353 401.26 125.3 C 397.04 125.3 394.38 126.8 392.84 130.71 C 392.61 131.29 392.29 131.84 392.03 132.4 L 342.24 238.8 C 330.2 264.52 318.163 290.253 306.13 316 C 303.67 321.25 301.18 326.48 298.61 331.95 C 298.24 331.29 297.99 330.95 297.8 330.49 L 264.8 255.49 C 262.72 250.75 260.7 245.97 258.51 241.28 C 257.06 238.17 255.68 237.97 252.71 239.91 C 252.35 240.15 252 240.41 251.65 240.67 C 245.477 245.483 239.313 250.297 233.16 255.11 C 231.445 256.308 229.859 257.682 228.43 259.21 C 227.86 259.91 227.98 261.58 228.36 262.57 C 228.53 262.99 230.36 263.17 231.11 262.82 C 232.539 262.063 233.881 261.151 235.11 260.1 C 238.24 257.72 241.35 255.3 244.56 252.82 C 244.99 253.68 245.32 254.29 245.56 254.93 L 276.79 325.57 C 280.93 334.75 285 343.933 289 353.12 C 289.94 355.26 291.24 356.44 293.74 356.41 C 297.06 356.41 298.14 354.01 299.29 351.57 L 327.61 291.27 C 351.61 240.13 375.61 188.98 399.61 137.82 C 400.137 136.137 401.789 135.069 403.54 135.28 C 475.713 135.347 547.887 135.367 620.06 135.34 L 623.06 135.34 Z M 277 224.36 L 277 223.45 C 277.55 223.22 278.11 223.01 278.64 222.76 C 281.57 221.37 282.93 218.26 282.23 214.59 C 281.555 211.614 278.978 209.455 275.93 209.31 C 272.68 209.15 269.65 210.99 269.06 214.04 C 268.663 216.119 268.707 218.259 269.19 220.32 C 270.65 226.19 275.11 229.12 280.19 231.14 C 286.316 233.463 292.877 234.412 299.41 233.92 C 307.82 233.42 315.58 230.92 321.57 224.42 C 325.86 219.74 328.04 214.22 326.44 207.73 C 324.68 200.61 319.55 196.59 313.44 193.73 C 311.3 192.73 309.02 192.02 307.24 191.35 C 310.41 189.24 314.13 187.35 317.11 184.68 C 326.34 176.29 324.73 164.24 313.8 158.53 C 307.587 155.397 300.591 154.159 293.68 154.97 C 287.96 155.49 282.47 156.81 277.81 160.56 C 274.277 163.195 272.304 167.43 272.56 171.83 C 272.615 175.331 275.498 178.124 278.999 178.069 C 279.257 178.065 279.514 178.045 279.77 178.01 C 283.64 177.49 285.97 173.9 285.17 169.91 C 284.61 167.12 282.74 165.71 279.93 164.6 C 281.266 163.612 282.665 162.713 284.12 161.91 C 289.57 159.321 295.706 158.543 301.63 159.69 C 306.678 160.512 310.554 164.605 311.1 169.69 C 312.31 178.09 306.23 187.24 298.1 188.89 C 294.921 189.384 291.715 189.688 288.5 189.8 C 287.27 189.91 286.23 190.04 286.22 191.75 C 286.22 194.27 288.64 193.51 289.96 193.75 C 290.807 193.956 291.682 194.023 292.55 193.95 C 305.01 192.46 312.55 197.64 313.72 209.23 C 314.72 219.54 309.98 228.47 298.65 229.09 C 293.907 229.169 289.173 228.672 284.55 227.61 C 281.93 227.06 279.5 225.49 277 224.36 Z" fill="#FFFFFF" transform="matrix(1,0,0,1,-224.6,-121.11)"/><path d=" M 623.05 125.38 L 623.05 135.38 L 620.05 135.38 C 547.883 135.38 475.71 135.36 403.53 135.32 C 401.779 135.109 400.127 136.177 399.6 137.86 C 375.66 189.04 351.66 240.19 327.6 291.31 L 299.28 351.61 C 298.13 354.05 297.05 356.41 293.73 356.45 C 291.23 356.45 289.93 355.3 288.99 353.16 C 284.95 343.96 280.89 334.77 276.81 325.59 L 245.58 254.95 C 245.29 254.31 244.96 253.7 244.58 252.84 C 241.37 255.32 238.26 257.74 235.13 260.12 C 233.901 261.171 232.559 262.083 231.13 262.84 C 230.35 263.19 228.55 263.01 228.38 262.59 C 228 261.59 227.88 259.93 228.45 259.23 C 229.879 257.702 231.465 256.328 233.18 255.13 C 239.327 250.297 245.49 245.483 251.67 240.69 C 252.02 240.43 252.37 240.17 252.73 239.93 C 255.73 237.99 257.08 238.19 258.53 241.3 C 260.72 245.99 262.74 250.77 264.82 255.51 L 297.82 330.51 C 298.01 330.93 298.26 331.31 298.63 331.97 C 301.2 326.5 303.69 321.27 306.15 316.02 C 318.19 290.287 330.227 264.56 342.26 238.84 L 392 132.4 C 392.26 131.84 392.58 131.29 392.81 130.71 C 394.35 126.8 397.01 125.3 401.23 125.3 C 474.09 125.413 546.953 125.44 619.82 125.38 Z" transform="matrix(1,0,0,1,-224.6,-121.11)"/><path d=" M 277 224.36 C 279.51 225.49 281.94 227.06 284.56 227.57 C 289.183 228.632 293.917 229.129 298.66 229.05 C 309.99 228.43 314.78 219.5 313.73 209.19 C 312.55 197.6 305.02 192.42 292.56 193.91 C 291.692 193.983 290.817 193.916 289.97 193.71 C 288.65 193.43 286.21 194.19 286.23 191.71 C 286.23 190 287.23 189.87 288.51 189.76 C 291.725 189.648 294.931 189.344 298.11 188.85 C 306.23 187.2 312.31 178.05 311.11 169.65 C 310.564 164.565 306.688 160.472 301.64 159.65 C 295.716 158.503 289.58 159.281 284.13 161.87 C 282.675 162.673 281.276 163.572 279.94 164.56 C 282.75 165.67 284.62 167.08 285.18 169.87 C 285.98 173.87 283.65 177.45 279.78 177.97 C 276.312 178.451 273.11 176.029 272.629 172.561 C 272.594 172.305 272.574 172.048 272.57 171.79 C 272.314 167.39 274.287 163.155 277.82 160.52 C 282.48 156.77 287.97 155.45 293.69 154.93 C 300.601 154.119 307.597 155.357 313.81 158.49 C 324.74 164.2 326.35 176.25 317.12 184.64 C 314.12 187.35 310.42 189.2 307.25 191.31 C 309.03 191.98 311.31 192.67 313.45 193.69 C 319.58 196.58 324.71 200.6 326.45 207.69 C 328.05 214.18 325.87 219.69 321.58 224.38 C 315.58 230.9 307.83 233.38 299.42 233.88 C 292.887 234.372 286.326 233.423 280.2 231.1 C 275.1 229.1 270.64 226.15 269.2 220.28 C 268.717 218.219 268.673 216.079 269.07 214 C 269.66 211 272.69 209.11 275.94 209.27 C 278.988 209.415 281.565 211.574 282.24 214.55 C 282.94 218.22 281.58 221.33 278.65 222.72 C 278.12 222.97 277.56 223.18 277.01 223.41 Z" transform="matrix(1,0,0,1,-224.6,-121.11)"/><text fill="#393939" font-family="orbitron-bold,orbitron" font-weight="700" font-size="75.6" transform="matrix(0.97,0,0,1,0,303.38)">C<tspan letter-spacing="-0.02em" x="62.15" y="0">u</tspan><tspan x="113.56" y="0">beR</tspan><tspan letter-spacing="-0.02em" x="278.68" y="0">o</tspan><tspan letter-spacing="-0.02em" x="329.26" y="0">o</tspan><tspan x="379.68" y="0">t</tspan></text><path d=" M 197.98 45.98 L 250 45.98 L 250 98 L 197.98 98 L 197.98 45.98 Z" fill="#EE0000"/><path d=" M 259.18 45.98 L 311.2 45.98 L 311.2 98 L 259.18 98 L 259.18 45.98 Z" fill="#EE0000"/><path d=" M 320.38 45.98 L 372.4 45.98 L 372.4 98 L 320.38 98 L 320.38 45.98 Z" fill="#EE0000"/><path d=" M 197.98 107.18 L 250 107.18 L 250 159.2 L 197.98 159.2 L 197.98 107.18 Z" fill="#0000F2"/><path d=" M 259.18 107.18 L 311.2 107.18 L 311.2 159.2 L 259.18 159.2 L 259.18 107.18 Z" fill="#EE0000"/><path d=" M 320.38 107.18 L 372.4 107.18 L 372.4 159.2 L 320.38 159.2 L 320.38 107.18 Z" fill="#0000F2"/><path d=" M 197.98 168.38 L 250 168.38 L 250 220.4 L 197.98 220.4 L 197.98 168.38 Z" fill="#0000F2"/><path d=" M 259.18 168.38 L 311.2 168.38 L 311.2 220.4 L 259.18 220.4 L 259.18 168.38 Z" fill="#EE0000"/><path d=" M 320.38 168.38 L 372.4 168.38 L 372.4 220.4 L 320.38 220.4 L 320.38 168.38 Z" fill="#0000F2"/></svg>