<svg viewBox="0 0 300 150" xmlns="http://www.w3.org/2000/svg" xmlns:xlink="http://www.w3.org/1999/xlink" id="图层_1" overflow="hidden"><defs></defs><path d="M153.3 93.88 176.46 76C176.921 75.6394 177.003 74.9732 176.642 74.512 176.589 74.4442 176.528 74.3831 176.46 74.33L153.3 56.41C152.833 56.0565 152.169 56.1482 151.815 56.6148 151.678 56.7949 151.603 57.014 151.6 57.24L151.6 66.72 127.38 66.72C126.828 66.72 126.38 67.1677 126.38 67.72L126.38 82.52C126.38 83.0723 126.828 83.52 127.38 83.52L151.6 83.52 151.6 93C151.608 93.5854 152.089 94.0532 152.675 94.045 152.901 94.0418 153.12 93.9665 153.3 93.83Z"/><path d="M221.66 26.67 268.97 37.67 265.13 98.64 241.44 126.64 195.41 109.64 191.92 46.66 221.66 26.67Z" stroke="#000000" stroke-width="2" stroke-linejoin="round"/><path d="M243.94 61.32 252.06 54.08 251.46 69.1 243.55 76.79 243.94 61.32Z" fill="#00D800"/><path d="M253.41 52.81 260.86 46.17 260.09 60.77 252.82 67.84 253.41 52.81Z" fill="#00D800"/><path d="M262.11 45.01 268.97 38.9 268.05 53.09 261.34 59.61 262.11 45.01Z" fill="#00D800"/><path d="M243.47 79.41 251.37 71.72 250.81 85.92 243.1 94 243.47 79.41Z" fill="#00D800"/><path d="M252.7 70.38 259.97 63.32 259.24 77.15 252.13 84.59 252.7 70.38Z" fill="#00D800"/><path d="M261.19 62.09 267.9 55.56 267.02 69.04 260.46 75.92 261.19 62.09Z" fill="#00D800"/><path d="M243.02 96.47 250.73 88.4 250.19 101.85 242.67 110.26 243.02 96.47Z" fill="#00D800"/><path d="M252.02 87 259.12 79.56 258.43 92.69 251.49 100.46 252.02 87Z" fill="#00D800"/><path d="M260.32 78.27 266.89 71.39 266.05 84.21 259.62 91.4 260.32 78.27Z" fill="#00D800"/><path d="M242.6 112.6 250.12 104.2 249.61 116.96 242.27 125.65 242.6 112.6Z" fill="#00D800"/><path d="M251.38 102.74 258.32 94.98 257.66 107.46 250.87 115.5 251.38 102.74Z" fill="#00D800"/><path d="M259.49 93.64 265.92 86.44 265.13 98.64 258.83 106.11 259.49 93.64Z" fill="#00D800"/><path d="M221.66 26.67 234.79 29.7 227.14 35.28 213.68 32.01 221.66 26.67Z" fill="#FEFE00"/><path d="M237.2 30.27 250.92 33.44 243.64 39.28 229.55 35.85 237.2 30.27Z" fill="#FEFE00"/><path d="M253.43 34.04 267.78 37.35 260.93 43.47 246.16 39.88 253.43 34.04Z" fill="#FEFE00"/><path d="M212.24 33.01 225.71 36.29 217.43 42.33 203.61 38.78 212.24 33.01Z" fill="#FEFE00"/><path d="M228.18 36.9 242.27 40.33 234.38 46.66 219.9 42.94 228.18 36.9Z" fill="#FEFE00"/><path d="M244.86 40.98 259.63 44.57 252.18 51.21 236.97 47.31 244.86 40.98Z" fill="#FEFE00"/><path d="M202.06 39.87 215.87 43.41 206.88 49.97 192.71 46.12 202.06 39.87Z" fill="#FEFE00"/><path d="M218.41 44.08 232.9 47.8 224.31 54.69 209.42 50.64 218.41 44.08Z" fill="#FEFE00"/><path d="M235.56 48.5 250.77 52.41 242.65 59.65 226.98 55.39 235.56 48.5Z" fill="#FEFE00"/><path d="M191.92 47.99 206.1 51.84 206.58 66.8 192.78 62.7 191.92 47.99Z" fill="#EE0000"/><path d="M208.63 52.56 223.53 56.61 223.59 71.82 209.11 67.52 208.63 52.56Z" fill="#EE0000"/><path d="M226.19 57.36 241.86 61.62 241.47 77.09 226.25 72.57 226.19 57.36Z" fill="#EE0000"/><path d="M192.89 65.24 206.7 69.34 207.15 83.49 193.7 79.17 192.89 65.24Z" fill="#EE0000"/><path d="M209.16 70.1 223.64 74.4 223.71 88.77 209.61 84.25 209.16 70.1Z" fill="#EE0000"/><path d="M226.23 75.2 241.44 79.72 241.08 94.31 226.29 89.57 226.23 75.2Z" fill="#EE0000"/><path d="M193.81 81.59 207.26 85.9 207.69 99.31 194.57 94.8 193.81 81.59Z" fill="#EE0000"/><path d="M209.66 86.7 223.75 91.22 223.81 104.81 210.09 100.1 209.66 86.7Z" fill="#EE0000"/><path d="M226.26 92.05 241.05 96.8 240.71 110.58 226.32 105.65 226.26 92.05Z" fill="#EE0000"/><path d="M194.68 97.09 207.79 101.59 208.2 114.31 195.41 109.64 194.68 97.09Z" fill="#EE0000"/><path d="M210.13 102.42 223.85 107.13 223.91 120.01 210.54 115.14 210.13 102.42Z" fill="#EE0000"/><path d="M226.3 108 240.68 112.94 240.35 125.98 226.36 120.88 226.3 108Z" fill="#EE0000"/><path d="M61.66 27.67 108.97 38.67 105.13 99.64 81.44 127.64 35.41 110.64 31.92 47.66 61.66 27.67Z" stroke="#000000" stroke-width="2" stroke-linejoin="round"/><path d="M83.94 62.32 92.06 55.08 91.46 70.1 83.55 77.79 83.94 62.32Z" fill="#404040"/><path d="M93.42 53.81 100.86 47.17 100.09 61.77 92.82 68.84 93.42 53.81Z" fill="#404040"/><path d="M102.11 46.01 108.97 39.9 108.05 54.09 101.34 60.61 102.11 46.01Z" fill="#404040"/><path d="M83.47 80.41 91.37 72.72 90.81 86.92 83.1 95 83.47 80.41Z" fill="#00D800"/><path d="M92.7 71.38 99.97 64.32 99.24 78.15 92.13 85.59 92.7 71.38Z" fill="#00D800"/><path d="M101.19 63.09 107.9 56.56 107.03 70.04 100.46 76.92 101.19 63.09Z" fill="#00D800"/><path d="M83.02 97.47 90.73 89.4 90.19 102.85 82.67 111.26 83.02 97.47Z" fill="#00D800"/><path d="M92.02 88 99.12 80.56 98.43 93.69 91.48 101.46 92.02 88Z" fill="#00D800"/><path d="M100.32 79.27 106.89 72.39 106.05 85.21 99.62 92.4 100.32 79.27Z" fill="#00D800"/><path d="M82.6 113.6 90.12 105.2 89.61 117.96 82.27 126.65 82.6 113.6Z" fill="#00D800"/><path d="M91.38 103.74 98.32 95.98 97.66 108.46 90.87 116.5 91.38 103.74Z" fill="#00D800"/><path d="M99.49 94.64 105.92 87.44 105.13 99.64 98.83 107.11 99.49 94.64Z" fill="#00D800"/><path d="M61.66 27.67 74.8 30.7 67.14 36.28 53.67 33.01 61.66 27.67Z" fill="#FEFE00"/><path d="M77.2 31.27 90.92 34.44 83.64 40.28 69.55 36.85 77.2 31.27Z" fill="#FEFE00"/><path d="M93.43 35.04 107.78 38.35 100.93 44.47 86.16 40.88 93.43 35.04Z" fill="#FEFE00"/><path d="M52.24 34.01 65.71 37.29 57.43 43.33 43.61 39.78 52.24 34.01Z" fill="#FEFE00"/><path d="M68.17 37.9 82.27 41.33 74.38 47.66 59.9 43.94 68.17 37.9Z" fill="#FEFE00"/><path d="M84.86 41.98 99.63 45.57 92.18 52.21 76.97 48.31 84.86 41.98Z" fill="#FEFE00"/><path d="M42.06 40.87 55.87 44.41 46.88 50.97 32.71 47.12 42.06 40.87Z" fill="#FEFE00"/><path d="M58.41 45.08 72.9 48.8 64.31 55.69 49.42 51.64 58.41 45.08Z" fill="#FEFE00"/><path d="M75.56 49.5 90.77 53.41 82.65 60.65 66.98 56.39 75.56 49.5Z" fill="#FEFE00"/><path d="M31.92 48.99 46.1 52.84 46.58 67.8 32.78 63.7 31.92 48.99Z" fill="#404040"/><path d="M48.63 53.56 63.53 57.61 63.59 72.82 49.11 68.52 48.63 53.56Z" fill="#404040"/><path d="M66.19 58.36 81.86 62.62 81.47 78.09 66.25 73.57 66.19 58.36Z" fill="#404040"/><path d="M32.89 66.24 46.7 70.34 47.15 84.49 33.7 80.17 32.89 66.24Z" fill="#EE0000"/><path d="M49.16 71.1 63.64 75.4 63.71 89.77 49.61 85.25 49.16 71.1Z" fill="#EE0000"/><path d="M66.23 76.2 81.44 80.72 81.08 95.31 66.29 90.57 66.23 76.2Z" fill="#EE0000"/><path d="M33.81 82.59 47.26 86.9 47.69 100.31 34.58 95.8 33.81 82.59Z" fill="#EE0000"/><path d="M49.66 87.7 63.75 92.22 63.81 105.81 50.09 101.1 49.66 87.7Z" fill="#EE0000"/><path d="M66.27 93.05 81.05 97.8 80.71 111.58 66.33 106.65 66.27 93.05Z" fill="#EE0000"/><path d="M34.68 98.09 47.79 102.59 48.2 115.31 35.41 110.64 34.68 98.09Z" fill="#EE0000"/><path d="M50.13 103.42 63.85 108.13 63.91 121.01 50.54 116.14 50.13 103.42Z" fill="#EE0000"/><path d="M66.3 109 80.68 113.94 80.36 126.98 66.36 121.88 66.3 109Z" fill="#EE0000"/></svg>