<svg viewBox="0 0 450 150" xmlns="http://www.w3.org/2000/svg" xmlns:xlink="http://www.w3.org/1999/xlink" id="图层_1" overflow="hidden"><defs></defs><path d="M212.2 65.27 244 36.91 239.7 93.73 210.62 128.19 212.2 65.27Z" stroke="#000000" stroke-width="7.11" stroke-linejoin="round"/><path d="M186.04 24.16 244 36.91 212.2 65.27 147.77 47.77 186.04 24.16Z" stroke="#000000" stroke-width="7.11" stroke-linejoin="round"/><path d="M147.77 47.77 212.2 65.27 210.62 128.19 152.66 107.06 147.77 47.77Z" stroke="#000000" stroke-width="7.11" stroke-linejoin="round"/><path d="M214 65.69 224.68 56.18 223.8 75.83 213.49 86.12 214 65.69Z" fill="#FFFFFF"/><path d="M226.43 54.52 235.96 46.03 234.8 64.96 225.56 74.18 226.43 54.52Z" fill="#404040"/><path d="M237.53 44.55 246.09 36.91 244.71 55.16 236.38 63.48 237.53 44.55Z" fill="#404040"/><path d="M213.37 89.54 223.69 79.25 222.87 97.53 212.9 108.45 213.37 89.54Z" fill="#404040"/><path d="M225.39 77.48 234.63 68.25 233.55 85.92 224.57 95.75 225.39 77.48Z" fill="#00D800"/><path d="M236.16 66.66 244.49 58.34 243.2 75.43 235.08 84.33 236.16 66.66Z" fill="#00D800"/><path d="M212.79 111.62 222.76 100.7 222.01 117.73 212.35 129.18 212.79 111.62Z" fill="#404040"/><path d="M224.41 98.82 233.39 88.99 232.38 105.52 223.66 115.86 224.41 98.82Z" fill="#00D800"/><path d="M234.88 87.3 243 78.41 241.78 94.44 233.87 103.83 234.88 87.3Z" fill="#00D800"/><path d="M185.89 21.99 202.39 25.62 192.52 32.4 175.49 28.4 185.89 21.99Z" fill="#404040"/><path d="M205.44 26.31 222.88 30.15 213.62 37.34 195.57 33.1 205.44 26.31Z" fill="#EE0000"/><path d="M226.11 30.88 244.58 34.95 236.03 42.58 216.85 38.07 226.11 30.88Z" fill="#404040"/><path d="M173.61 29.63 190.64 33.63 179.72 41.14 162.13 36.71 173.61 29.63Z" fill="#404040"/><path d="M193.79 34.4 211.85 38.64 201.57 46.62 182.87 41.91 193.79 34.4Z" fill="#404040"/><path d="M215.2 39.46 234.37 43.96 224.84 52.46 204.92 47.44 215.2 39.46Z" fill="#404040"/><path d="M160.05 38.07 177.63 42.5 165.48 50.85 147.32 45.92 160.05 38.07Z" fill="#404040"/><path d="M180.9 43.36 199.59 48.07 188.12 56.98 168.75 51.71 180.9 43.36Z" fill="#404040"/><path d="M203.07 48.98 222.99 54 212.32 63.52 191.6 57.89 203.07 48.98Z" fill="#00D800"/><path d="M146.29 48.34 164.45 53.27 165.41 72.81 147.86 67.46 146.29 48.34Z" fill="#404040"/><path d="M167.7 54.21 187.07 59.48 187.35 79.45 168.67 73.75 167.7 54.21Z" fill="#404040"/><path d="M190.54 60.48 211.26 66.11 210.75 86.53 190.82 80.45 190.54 60.48Z" fill="#EE0000"/><path d="M148.08 70.75 165.63 76.11 166.53 94.29 149.55 88.58 148.08 70.75Z" fill="#EE0000"/><path d="M168.77 77.11 187.46 82.81 187.72 101.36 169.67 95.29 168.77 77.11Z" fill="#EE0000"/><path d="M190.8 83.89 210.74 89.97 210.26 108.88 191.06 102.43 190.8 83.89Z" fill="#404040"/><path d="M149.75 91.65 166.74 97.36 167.58 114.31 151.13 108.31 149.75 91.65Z" fill="#EE0000"/><path d="M169.78 98.42 187.82 104.48 188.06 121.74 170.62 115.38 169.78 98.42Z" fill="#EE0000"/><path d="M191.04 105.61 210.25 112.06 209.8 129.62 191.28 122.87 191.04 105.61Z" fill="#404040"/><path d="M97.35 65.51 129.15 37.15 124.85 93.96 95.77 128.43 97.35 65.51Z" stroke="#000000" stroke-width="7.11" stroke-linejoin="round"/><path d="M71.19 24.4 129.15 37.15 97.35 65.51 32.93 48 71.19 24.4Z" stroke="#000000" stroke-width="7.11" stroke-linejoin="round"/><path d="M32.93 48 97.35 65.51 95.77 128.43 37.81 107.29 32.93 48Z" stroke="#000000" stroke-width="7.11" stroke-linejoin="round"/><path d="M99.16 65.93 109.83 56.41 108.95 76.07 98.64 86.36 99.16 65.93Z" fill="#00D800"/><path d="M111.58 54.76 121.11 46.26 119.95 65.2 110.71 74.42 111.58 54.76Z" fill="#00D800"/><path d="M122.69 44.78 131.24 37.15 129.86 55.4 121.53 63.71 122.69 44.78Z" fill="#404040"/><path d="M98.53 89.77 108.84 79.49 108.03 97.76 98.05 108.69 98.53 89.77Z" fill="#404040"/><path d="M110.54 77.71 119.78 68.49 118.7 86.16 109.73 95.99 110.54 77.71Z" fill="#00D800"/><path d="M121.31 66.89 129.65 58.58 128.35 75.67 120.23 84.56 121.31 66.89Z" fill="#00D800"/><path d="M97.94 111.86 107.92 100.94 107.16 117.97 97.5 129.42 97.94 111.86Z" fill="#404040"/><path d="M109.57 99.06 118.54 89.23 117.53 105.76 108.81 116.09 109.57 99.06Z" fill="#00D800"/><path d="M120.03 87.53 128.15 78.64 126.94 94.68 119.02 104.06 120.03 87.53Z" fill="#00D800"/><path d="M71.05 22.22 87.55 25.85 77.67 32.64 60.65 28.64 71.05 22.22Z" fill="#404040"/><path d="M90.59 26.55 108.04 30.38 98.78 37.57 80.72 33.33 90.59 26.55Z" fill="#404040"/><path d="M111.27 31.12 129.74 35.18 121.18 42.81 102.01 38.31 111.27 31.12Z" fill="#404040"/><path d="M58.76 29.87 75.79 33.87 64.87 41.38 47.29 36.95 58.76 29.87Z" fill="#404040"/><path d="M78.95 34.64 97 38.88 86.72 46.86 68.02 42.15 78.95 34.64Z" fill="#404040"/><path d="M100.35 39.69 119.52 44.2 110 52.69 90.07 47.67 100.35 39.69Z" fill="#EE0000"/><path d="M45.2 38.31 62.79 42.74 50.64 51.09 32.48 46.16 45.2 38.31Z" fill="#404040"/><path d="M66.05 43.59 84.75 48.3 73.28 57.21 53.9 51.95 66.05 43.59Z" fill="#404040"/><path d="M88.22 49.22 108.15 54.24 97.48 63.75 76.75 58.12 88.22 49.22Z" fill="#EE0000"/><path d="M31.44 48.58 49.6 53.51 50.57 73.05 33.02 67.7 31.44 48.58Z" fill="#404040"/><path d="M52.85 54.45 72.23 59.71 72.5 79.69 53.82 73.99 52.85 54.45Z" fill="#404040"/><path d="M75.7 60.71 96.42 66.34 95.91 86.77 75.97 80.69 75.7 60.71Z" fill="#FFFFFF"/><path d="M33.23 70.99 50.79 76.34 51.69 94.52 34.7 88.82 33.23 70.99Z" fill="#EE0000"/><path d="M53.93 77.35 72.61 83.05 72.87 101.59 54.83 95.53 53.93 77.35Z" fill="#EE0000"/><path d="M75.95 84.12 95.89 90.2 95.41 109.11 76.21 102.66 75.95 84.12Z" fill="#404040"/><path d="M34.91 91.89 51.89 97.59 52.73 114.55 36.28 108.55 34.91 91.89Z" fill="#EE0000"/><path d="M54.93 98.66 72.97 104.72 73.21 121.97 55.77 115.61 54.93 98.66Z" fill="#EE0000"/><path d="M76.2 105.85 95.4 112.3 94.96 129.86 76.44 123.1 76.2 105.85Z" fill="#404040"/><path d="M287.7 99.62 310.87 81.72C311.331 81.3594 311.413 80.6932 311.052 80.232 310.999 80.1642 310.938 80.1031 310.87 80.05L287.7 62.15C287.233 61.7965 286.568 61.8883 286.215 62.355 286.074 62.5405 285.999 62.7672 286 63L286 72.48 261.79 72.48C261.21 72.4745 260.736 72.9401 260.73 73.52 260.73 73.5233 260.73 73.5267 260.73 73.53L260.73 88.26C260.757 88.8242 261.225 89.266 261.79 89.26L286 89.26 286 98.74C286.008 99.3254 286.489 99.7932 287.075 99.785 287.301 99.7818 287.52 99.7065 287.7 99.57Z"/><path d="M387.37 64.62 419.16 36.26 414.86 93.08 385.79 127.54 387.37 64.62Z" stroke="#000000" stroke-width="7.11" stroke-linejoin="round"/><path d="M361.2 23.51 419.16 36.26 387.37 64.62 322.94 47.11 361.2 23.51Z" stroke="#000000" stroke-width="7.11" stroke-linejoin="round"/><path d="M322.94 47.11 387.37 64.62 385.79 127.54 327.82 106.4 322.94 47.11Z" stroke="#000000" stroke-width="7.11" stroke-linejoin="round"/><path d="M389.17 65.04 399.84 55.52 398.97 75.18 388.66 85.47 389.17 65.04Z" fill="#404040"/><path d="M401.6 53.87 411.12 45.37 409.97 64.31 400.72 73.53 401.6 53.87Z" fill="#404040"/><path d="M412.7 43.89 421.25 36.26 419.87 54.51 411.54 62.82 412.7 43.89Z" fill="#404040"/><path d="M388.54 88.88 398.85 78.6 398.04 96.87 388.06 107.8 388.54 88.88Z" fill="#00D800"/><path d="M400.55 76.82 409.79 67.6 408.71 85.27 399.74 95.1 400.55 76.82Z" fill="#00D800"/><path d="M411.33 66 419.66 57.69 418.37 74.78 410.25 83.67 411.33 66Z" fill="#00D800"/><path d="M387.96 110.97 397.93 100.05 397.17 117.08 387.52 128.53 387.96 110.97Z" fill="#00D800"/><path d="M399.58 98.17 408.55 88.34 407.54 104.87 398.82 115.2 399.58 98.17Z" fill="#00D800"/><path d="M410.04 86.64 418.16 77.75 416.95 93.79 409.03 103.17 410.04 86.64Z" fill="#00D800"/><path d="M361.06 21.33 377.56 24.96 367.69 31.75 350.66 27.75 361.06 21.33Z" fill="#404040"/><path d="M380.61 25.66 398.05 29.49 388.79 36.68 370.74 32.44 380.61 25.66Z" fill="#FEFE00"/><path d="M401.28 30.23 419.75 34.29 411.19 41.92 392.02 37.42 401.28 30.23Z" fill="#404040"/><path d="M348.78 28.98 365.81 32.98 354.88 40.49 337.3 36.06 348.78 28.98Z" fill="#FEFE00"/><path d="M368.96 33.75 387.01 37.99 376.74 45.97 358.04 41.26 368.96 33.75Z" fill="#FEFE00"/><path d="M390.36 38.8 409.53 43.31 400.01 51.8 380.08 46.78 390.36 38.8Z" fill="#FEFE00"/><path d="M335.22 37.42 352.8 41.85 340.65 50.2 322.49 45.27 335.22 37.42Z" fill="#404040"/><path d="M356.06 42.7 374.76 47.41 363.29 56.32 343.91 51.06 356.06 42.7Z" fill="#FEFE00"/><path d="M378.24 48.33 398.16 53.35 387.49 62.86 366.77 57.23 378.24 48.33Z" fill="#404040"/><path d="M321.45 47.69 339.61 52.62 340.58 72.16 323.03 66.81 321.45 47.69Z" fill="#404040"/><path d="M342.86 53.56 362.24 58.82 362.52 78.8 343.83 73.1 342.86 53.56Z" fill="#404040"/><path d="M365.71 59.82 386.43 65.45 385.92 85.88 365.99 79.8 365.71 59.82Z" fill="#404040"/><path d="M323.25 70.1 340.8 75.45 341.7 93.63 324.71 87.93 323.25 70.1Z" fill="#EE0000"/><path d="M343.94 76.46 362.63 82.16 362.88 100.7 344.84 94.64 343.94 76.46Z" fill="#EE0000"/><path d="M365.97 83.23 385.9 89.31 385.43 108.22 366.23 101.77 365.97 83.23Z" fill="#EE0000"/><path d="M324.92 91 341.9 96.7 342.74 113.66 326.29 107.66 324.92 91Z" fill="#EE0000"/><path d="M344.94 97.77 362.98 103.83 363.22 121.08 345.78 114.72 344.94 97.77Z" fill="#EE0000"/><path d="M366.21 104.96 385.41 111.41 384.97 128.97 366.45 122.21 366.21 104.96Z" fill="#EE0000"/></svg>