<svg viewBox="0 0 300 150" xmlns="http://www.w3.org/2000/svg" xmlns:xlink="http://www.w3.org/1999/xlink" id="图层_1" overflow="hidden"><defs></defs><path d="M248.91 65.35 280.7 36.99 276.4 93.81 247.33 128.27 248.91 65.35Z" stroke="#000000" stroke-width="7.11" stroke-linejoin="round"/><path d="M222.75 24.24 280.7 36.99 248.91 65.35 184.48 47.84 222.75 24.24Z" stroke="#000000" stroke-width="7.11" stroke-linejoin="round"/><path d="M184.48 47.84 248.91 65.35 247.33 128.27 189.36 107.13 184.48 47.84Z" stroke="#000000" stroke-width="7.11" stroke-linejoin="round"/><path d="M250.71 65.77 261.38 56.26 260.51 75.91 250.2 86.2 250.71 65.77Z" fill="#404040"/><path d="M263.14 54.6 272.66 46.11 271.51 65.04 262.26 74.26 263.14 54.6Z" fill="#404040"/><path d="M274.24 44.62 282.8 36.99 281.41 55.24 273.08 63.56 274.24 44.62Z" fill="#404040"/><path d="M250.08 89.62 260.39 79.33 259.58 97.61 249.6 108.53 250.08 89.62Z" fill="#00D800"/><path d="M262.09 77.55 271.33 68.33 270.25 86 261.28 95.83 262.09 77.55Z" fill="#00D800"/><path d="M272.87 66.73 281.2 58.42 279.9 75.51 271.79 84.4 272.87 66.73Z" fill="#00D800"/><path d="M249.5 111.7 259.47 100.78 258.71 117.81 249.06 129.26 249.5 111.7Z" fill="#00D800"/><path d="M261.12 98.9 270.09 89.07 269.08 105.6 260.36 115.94 261.12 98.9Z" fill="#00D800"/><path d="M271.58 87.38 279.7 78.49 278.49 94.52 270.57 103.91 271.58 87.38Z" fill="#00D800"/><path d="M222.6 22.07 239.1 25.7 229.23 32.48 212.2 28.48 222.6 22.07Z" fill="#FEFE00"/><path d="M242.15 26.39 259.59 30.23 250.33 37.42 232.28 33.18 242.15 26.39Z" fill="#FEFE00"/><path d="M262.82 30.96 281.29 35.02 272.73 42.65 253.56 38.15 262.82 30.96Z" fill="#FEFE00"/><path d="M210.32 29.71 227.35 33.71 216.42 41.22 198.84 36.79 210.32 29.71Z" fill="#FEFE00"/><path d="M230.5 34.48 248.55 38.72 238.28 46.7 219.58 41.99 230.5 34.48Z" fill="#FEFE00"/><path d="M251.9 39.54 271.07 44.04 261.55 52.53 241.63 47.52 251.9 39.54Z" fill="#FEFE00"/><path d="M196.76 38.15 214.34 42.58 202.19 50.93 184.03 46 196.76 38.15Z" fill="#FEFE00"/><path d="M217.6 43.44 236.3 48.15 224.83 57.05 205.45 51.79 217.6 43.44Z" fill="#FEFE00"/><path d="M239.78 49.06 259.7 54.08 249.03 63.6 228.31 57.97 239.78 49.06Z" fill="#FEFE00"/><path d="M182.99 48.42 201.15 53.35 202.12 72.89 184.57 67.54 182.99 48.42Z" fill="#404040"/><path d="M204.4 54.29 223.78 59.55 224.06 79.53 205.37 73.83 204.4 54.29Z" fill="#404040"/><path d="M227.25 60.55 247.97 66.19 247.46 86.61 227.53 80.53 227.25 60.55Z" fill="#404040"/><path d="M184.79 70.83 202.34 76.19 203.24 94.37 186.25 88.66 184.79 70.83Z" fill="#EE0000"/><path d="M205.48 77.19 224.16 82.89 224.42 101.43 206.38 95.37 205.48 77.19Z" fill="#EE0000"/><path d="M227.51 83.96 247.44 90.04 246.97 108.96 227.76 102.51 227.51 83.96Z" fill="#EE0000"/><path d="M186.46 91.73 203.44 97.44 204.28 114.39 187.83 108.39 186.46 91.73Z" fill="#EE0000"/><path d="M206.48 98.5 224.52 104.56 224.76 121.81 207.32 115.45 206.48 98.5Z" fill="#EE0000"/><path d="M227.75 105.69 246.95 112.14 246.51 129.7 227.99 122.94 227.75 105.69Z" fill="#EE0000"/><path d="M151.23 98.24 174.4 80.34C174.649 80.136 174.796 79.8322 174.8 79.51 174.803 79.1833 174.656 78.8734 174.4 78.67L151.23 60.77C150.763 60.4165 150.099 60.5082 149.745 60.9748 149.608 61.1549 149.533 61.374 149.53 61.6L149.53 71.08 125.31 71.08C124.746 71.1069 124.304 71.5752 124.31 72.14L124.31 86.88C124.282 87.4316 124.707 87.9011 125.259 87.9287 125.276 87.9296 125.293 87.93 125.31 87.93L149.53 87.93 149.53 97.41C149.538 97.9954 150.019 98.4632 150.605 98.455 150.831 98.4518 151.05 98.3765 151.23 98.24Z"/><path d="M79.3 65.39 111.1 37.03 106.8 93.85 77.72 128.31 79.3 65.39Z" stroke="#000000" stroke-width="7.11" stroke-linejoin="round"/><path d="M53.14 24.28 111.1 37.03 79.3 65.39 14.88 47.88 53.14 24.28Z" stroke="#000000" stroke-width="7.11" stroke-linejoin="round"/><path d="M14.88 47.88 79.3 65.39 77.72 128.31 19.76 107.17 14.88 47.88Z" stroke="#000000" stroke-width="7.11" stroke-linejoin="round"/><path d="M81.11 65.81 91.78 56.3 90.9 75.95 80.59 86.24 81.11 65.81Z" fill="#FFFFFF"/><path d="M93.53 54.64 103.06 46.15 101.9 65.08 92.66 74.3 93.53 54.64Z" fill="#FEFE00"/><path d="M104.64 44.66 113.19 37.03 111.81 55.28 103.48 63.6 104.64 44.66Z" fill="#404040"/><path d="M80.48 89.66 90.79 79.37 89.97 97.64 80 108.57 80.48 89.66Z" fill="#FEFE00"/><path d="M92.49 77.59 101.73 68.37 100.65 86.04 91.68 95.87 92.49 77.59Z" fill="#00D800"/><path d="M103.26 66.77 111.59 58.46 110.3 75.55 102.18 84.44 103.26 66.77Z" fill="#00D800"/><path d="M79.89 111.74 89.87 100.82 89.11 117.85 79.45 129.3 79.89 111.74Z" fill="#404040"/><path d="M91.52 98.94 100.49 89.11 99.48 105.64 90.76 115.98 91.52 98.94Z" fill="#00D800"/><path d="M101.98 87.42 110.1 78.53 108.89 94.56 100.97 103.94 101.98 87.42Z" fill="#00D800"/><path d="M53 22.11 69.5 25.73 59.62 32.52 42.59 28.52 53 22.11Z" fill="#404040"/><path d="M72.54 26.43 89.99 30.27 80.73 37.45 62.67 33.22 72.54 26.43Z" fill="#EE0000"/><path d="M93.22 31 111.68 35.06 103.13 42.69 83.96 38.19 93.22 31Z" fill="#404040"/><path d="M40.71 29.75 57.74 33.75 46.82 41.26 29.24 36.83 40.71 29.75Z" fill="#404040"/><path d="M60.9 34.52 78.95 38.76 68.67 46.74 49.97 42.03 60.9 34.52Z" fill="#FEFE00"/><path d="M82.3 39.58 101.47 44.08 91.94 52.57 72.02 47.55 82.3 39.58Z" fill="#404040"/><path d="M27.15 38.19 44.74 42.62 32.59 50.97 14.43 46.04 27.15 38.19Z" fill="#404040"/><path d="M48 43.48 66.7 48.19 55.23 57.09 35.85 51.83 48 43.48Z" fill="#404040"/><path d="M70.17 49.1 90.1 54.12 79.42 63.64 58.7 58.01 70.17 49.1Z" fill="#00D800"/><path d="M13.39 48.46 31.55 53.39 32.52 72.93 14.96 67.58 13.39 48.46Z" fill="#404040"/><path d="M34.8 54.33 54.18 59.59 54.45 79.57 35.77 73.87 34.8 54.33Z" fill="#FEFE00"/><path d="M57.65 60.59 78.37 66.22 77.86 86.65 57.92 80.57 57.65 60.59Z" fill="#EE0000"/><path d="M15.18 70.87 32.73 76.22 33.64 94.41 16.65 88.7 15.18 70.87Z" fill="#EE0000"/><path d="M35.88 77.23 54.56 82.93 54.82 101.47 36.78 95.41 35.88 77.23Z" fill="#EE0000"/><path d="M57.91 84 77.84 90.08 77.36 109 58.16 102.55 57.91 84Z" fill="#404040"/><path d="M16.86 91.77 33.84 97.47 34.68 114.43 18.23 108.43 16.86 91.77Z" fill="#EE0000"/><path d="M36.88 98.54 54.92 104.6 55.16 121.85 37.72 115.49 36.88 98.54Z" fill="#EE0000"/><path d="M58.15 105.73 77.35 112.18 76.91 129.74 58.38 122.98 58.15 105.73Z" fill="#404040"/></svg>