<svg viewBox="0 0 269.84 92.68" xmlns="http://www.w3.org/2000/svg" xmlns:xlink="http://www.w3.org/1999/xlink" overflow="hidden"><defs></defs><g id="图层_2"><g id="图层_1-2"><path d="M266.34 56.58C266.639 56.1994 266.844 55.7542 266.94 55.28L269.84 16.48 269.84 15.38 269.84 15.38C269.84 15.28 269.84 15.28 269.74 15.18 269.64 15.08 269.74 14.98 269.64 14.98 269.54 14.98 269.54 14.78 269.54 14.68 269.54 14.58 269.44 14.58 269.44 14.48 269.44 14.38 269.34 14.28 269.24 14.18 269.24 14.1248 269.195 14.08 269.14 14.08 269.04 13.98 268.94 13.78 268.84 13.68L268.74 13.58C268.64 13.48 268.54 13.38 268.44 13.38 268.386 13.3257 268.316 13.2906 268.24 13.28 268.14 13.18 268.04 13.18 267.94 13.08L267.94 13.08C267.885 13.08 267.84 13.0352 267.84 12.98 267.74 12.98 267.64 12.88 267.54 12.88 267.44 12.88 267.44 12.88 267.34 12.78L267.14 12.78 209.14 0.08C208.253-0.0909588 207.334 0.0503781 206.54 0.48L168.14 24.08C168.04 24.18 167.84 24.28 167.74 24.38L167.74 24.38C167.545 24.5542 167.376 24.7564 167.24 24.98L167.14 25.08C167.04 25.28 166.84 25.48 166.74 25.68L166.74 25.78C166.628 25.9978 166.56 26.2357 166.54 26.48L166.54 26.48 166.54 27.38 169.94 68.88C169.999 69.7625 170.595 70.5175 171.44 70.78L232.84 91.48C233.658 91.7419 234.554 91.5082 235.14 90.88Z"/><path d="M236.24 45.08 246.94 35.58 246.04 55.18 235.74 65.48 236.24 45.08Z" fill="#00D800"/><path d="M248.64 33.88 258.24 25.38 257.04 44.28 247.84 53.58 248.64 33.88Z" fill="#00D800"/><path d="M259.74 23.88 268.34 16.28 266.94 34.48 258.64 42.88 259.74 23.88Z" fill="#00D800"/><path d="M235.64 68.88 245.94 58.58 245.14 76.88 235.14 87.78 235.64 68.88Z" fill="#00D800"/><path d="M247.64 56.88 256.84 47.58 255.84 65.28 246.84 75.08 247.64 56.88Z" fill="#00D800"/><path d="M258.44 45.98 266.74 37.68 265.44 54.78 257.34 63.68 258.44 45.98Z" fill="#00D800"/><path d="M208.14 1.38 224.64 4.98 214.74 11.78 197.74 7.78 208.14 1.38Z" fill="#FEFE00"/><path d="M227.74 5.68 245.14 9.48 235.84 16.68 217.84 12.48 227.74 5.68Z" fill="#FEFE00"/><path d="M248.34 10.28 266.84 14.28 258.24 21.98 239.14 17.38 248.34 10.28Z" fill="#FEFE00"/><path d="M195.84 8.98 212.84 12.98 201.94 20.48 184.34 16.08 195.84 8.98Z" fill="#FEFE00"/><path d="M216.04 13.78 234.14 17.98 223.84 25.98 205.14 21.28 216.04 13.78Z" fill="#FEFE00"/><path d="M237.44 18.78 256.64 23.28 247.14 31.78 227.14 26.78 237.44 18.78Z" fill="#FEFE00"/><path d="M182.34 17.38 199.84 21.88 187.74 30.18 169.54 25.28 182.34 17.38Z" fill="#FEFE00"/><path d="M203.14 22.68 221.84 27.38 210.34 36.38 191.04 31.08 203.14 22.68Z" fill="#FEFE00"/><path d="M225.34 28.38 245.24 33.38 234.54 42.88 213.84 37.28 225.34 28.38Z" fill="#FEFE00"/><path d="M168.54 27.68 186.74 32.58 187.64 52.18 170.14 46.78 168.54 27.68Z" fill="#EE0000"/><path d="M189.94 33.58 209.34 38.88 209.64 58.78 190.94 53.08 189.94 33.58Z" fill="#EE0000"/><path d="M212.84 39.88 233.54 45.48 233.04 65.88 213.04 59.78 212.84 39.88Z" fill="#EE0000"/><path d="M170.34 50.08 187.84 55.48 188.74 73.68 171.84 67.98 170.34 50.08Z" fill="#EE0000"/><path d="M191.04 56.48 209.74 62.18 209.94 80.68 191.94 74.68 191.04 56.48Z" fill="#EE0000"/><path d="M213.04 63.28 232.94 69.28 232.54 88.28 213.34 81.78 213.04 63.28Z" fill="#EE0000"/><path d="M99.8 57.66C100.099 57.2794 100.304 56.8342 100.4 56.36L103.3 17.56 103.3 16.46 103.3 16.46C103.3 16.36 103.3 16.36 103.2 16.26 103.1 16.16 103.2 16.06 103.1 16.06 103 16.06 103 15.86 103 15.76 103 15.66 102.9 15.66 102.9 15.56 102.9 15.46 102.8 15.36 102.7 15.26 102.7 15.2048 102.655 15.16 102.6 15.16 102.5 15.06 102.4 14.86 102.3 14.76L102.2 14.66C102.1 14.56 102 14.46 101.9 14.46 101.846 14.4057 101.776 14.3706 101.7 14.36 101.6 14.26 101.5 14.26 101.4 14.16L101.4 14.16C101.345 14.16 101.3 14.1152 101.3 14.06 101.2 14.06 101.1 13.96 101 13.96 100.9 13.96 100.9 13.96 100.8 13.86L100.6 13.86 42.6 1.16C41.7131 0.989041 40.7945 1.13038 40 1.56L1.6 25.16C1.5 25.26 1.3 25.36 1.2 25.46L1.2 25.46C1.00461 25.6342 0.836118 25.8364 0.7 26.06L0.6 26.16C0.5 26.36 0.3 26.56 0.2 26.76L0.2 26.86C0.0876276 27.0778 0.0196449 27.3157 2.98023e-09 27.56L0 27.56 0 28.46 3.4 70C3.45933 70.8825 4.05541 71.6375 4.9 71.9L66.3 92.6C67.1182 92.8619 68.014 92.6282 68.6 92Z"/><path d="M69.7 46.16 80.4 36.66 79.5 56.26 69.2 66.56 69.7 46.16Z" fill="#404040"/><path d="M82.1 34.96 91.7 26.46 90.5 45.36 81.3 54.66 82.1 34.96Z" fill="#404040"/><path d="M93.2 24.96 101.8 17.36 100.4 35.56 92.1 43.96 93.2 24.96Z" fill="#404040"/><path d="M69.1 69.96 79.4 59.66 78.6 77.96 68.6 88.86 69.1 69.96Z" fill="#00D800"/><path d="M81.1 57.96 90.3 48.66 89.3 66.36 80.3 76.16 81.1 57.96Z" fill="#00D800"/><path d="M91.9 47.06 100.2 38.76 98.9 55.86 90.8 64.76 91.9 47.06Z" fill="#00D800"/><path d="M41.6 2.46 58.1 6.06 48.2 12.86 31.2 8.86 41.6 2.46Z" fill="#FEFE00"/><path d="M61.2 6.76 78.6 10.56 69.3 17.76 51.3 13.56 61.2 6.76Z" fill="#FEFE00"/><path d="M81.8 11.36 100.3 15.36 91.7 23.06 72.6 18.46 81.8 11.36Z" fill="#FEFE00"/><path d="M29.3 10.06 46.3 14.06 35.4 21.56 17.8 17.16 29.3 10.06Z" fill="#FEFE00"/><path d="M49.5 14.86 67.6 19.06 57.3 27.06 38.6 22.36 49.5 14.86Z" fill="#FEFE00"/><path d="M70.9 19.86 90.1 24.36 80.6 32.86 60.6 27.86 70.9 19.86Z" fill="#FEFE00"/><path d="M15.8 18.46 33.3 22.96 21.2 31.26 3 26.36 15.8 18.46Z" fill="#FEFE00"/><path d="M36.6 23.76 55.3 28.46 43.8 37.46 24.5 32.16 36.6 23.76Z" fill="#FEFE00"/><path d="M58.8 29.46 78.7 34.46 68 43.96 47.3 38.36 58.8 29.46Z" fill="#FEFE00"/><path d="M2 28.76 20.2 33.66 21.1 53.26 3.6 47.86 2 28.76Z" fill="#404040"/><path d="M23.4 34.66 42.8 39.96 43.1 59.86 24.4 54.16 23.4 34.66Z" fill="#404040"/><path d="M46.3 40.96 67 46.56 66.5 66.96 46.5 60.86 46.3 40.96Z" fill="#404040"/><path d="M3.8 51.16 21.3 56.56 22.2 74.76 5.3 69.06 3.8 51.16Z" fill="#EE0000"/><path d="M24.5 57.56 43.2 63.26 43.4 81.76 25.4 75.76 24.5 57.56Z" fill="#EE0000"/><path d="M46.5 64.36 66.4 70.36 66 89.36 46.8 82.86 46.5 64.36Z" fill="#EE0000"/><path d="M136.75 62 159.92 44.1C160.381 43.7394 160.463 43.0732 160.102 42.612 160.049 42.5442 159.988 42.4831 159.92 42.43L136.75 24.53C136.283 24.1765 135.619 24.2682 135.265 24.7348 135.128 24.915 135.053 25.134 135.05 25.36L135.05 34.84 110.83 34.84C110.278 34.84 109.83 35.2877 109.83 35.84L109.83 50.65C109.802 51.2016 110.227 51.6711 110.779 51.6988 110.796 51.6996 110.813 51.7 110.83 51.7L135.05 51.7 135.05 61.18C135.058 61.7654 135.539 62.2332 136.125 62.225 136.351 62.2218 136.57 62.1465 136.75 62.01Z"/></g></g></svg>