<svg xmlns="http://www.w3.org/2000/svg" viewBox="0 0 96 100" preserveAspectRatio="xMidYMid meet"><path d="M57.0,66.6L57.2,67.2L57.1,68.1L54.4,68.1L54.4,72.1L55.2,73.2L56.1,74.0L53.7,74.5L50.6,74.3L49.8,73.7L44.6,73.8L43.6,73.3L42.8,73.2L42.1,73.4L41.4,73.7L41.3,72.9L41.5,71.8L41.9,70.6L42.4,68.9L43.5,67.5L43.9,67.0L44.0,66.0L43.9,65.3L43.2,64.1L42.9,63.3L43.4,62.5L43.0,61.3L42.7,60.5L42.1,59.7L42.7,59.2L43.5,59.1L47.3,59.1L47.6,60.1L48.0,60.8L48.8,61.9L49.6,61.8L50.7,61.8L51.2,60.8L52.0,60.7L52.7,60.5L54.2,60.9L54.2,61.7L54.3,63.0L54.4,63.8L54.7,65.8L55.6,65.7L56.4,65.5L57.1,66.0L57.0,66.6Z M42.0,59.0L41.7,58.1L42.2,57.5L43.0,57.7L42.4,58.3L42.0,59.0Z M63.9,57.4L63.8,55.8L63.5,55.2L64.3,55.3L64.7,54.6L65.3,54.7L65.7,55.5L65.4,56.2L64.9,56.8L64.4,57.3L63.9,57.4Z M29.9,43.6L28.9,43.8L28.5,42.9L28.6,40.0L28.3,39.1L27.5,38.3L27.6,37.6L28.3,36.9L29.2,36.4L30.1,36.0L31.1,36.8L31.3,37.9L31.2,38.8L30.6,39.6L29.9,40.8L30.0,41.6L29.9,43.6Z M29.2,36.4L28.3,36.9L27.6,37.6L26.5,37.6L25.5,37.7L22.7,37.6L22.7,38.4L22.9,39.3L22.0,39.0L21.0,39.4L20.2,38.7L19.5,37.7L19.8,37.1L20.8,35.6L21.0,34.8L22.0,34.6L22.7,34.0L23.7,33.5L25.1,32.5L25.8,32.4L27.0,32.6L27.0,33.8L27.7,34.6L29.3,35.5L29.2,36.4Z M64.0,79.8L62.2,80.7L61.1,81.7L60.6,82.5L59.6,83.1L59.3,83.7L58.4,84.4L57.3,84.4L56.7,84.0L55.6,84.1L55.3,84.8L54.7,85.1L54.0,85.7L53.1,85.8L52.9,84.6L52.2,83.4L51.8,79.5L53.1,79.4L53.1,74.9L54.1,74.9L56.1,74.4L56.5,74.9L57.4,74.4L58.5,74.2L59.2,75.3L59.8,76.2L61.3,77.6L61.8,78.2L62.2,79.0L63.2,79.2L64.0,79.8Z M46.0,42.2L47.0,42.1L47.8,42.1L49.4,41.6L49.9,41.1L50.6,40.6L52.1,40.1L53.3,39.5L54.2,38.2L54.8,37.6L55.6,37.4L56.5,38.8L56.3,39.8L56.8,40.6L57.8,41.1L58.5,41.7L59.4,42.7L59.9,43.3L60.2,44.0L61.2,44.6L60.1,45.1L59.2,44.9L58.5,45.3L57.6,45.1L56.2,45.8L55.4,45.7L55.0,46.5L54.1,46.2L53.2,46.1L52.4,45.6L51.3,45.2L50.6,45.6L50.1,46.3L50.0,47.2L49.2,47.1L48.3,46.9L47.6,47.6L46.9,48.7L46.7,47.8L46.1,47.4L45.6,46.7L44.9,45.6L44.9,44.7L45.0,43.7L46.0,42.2Z M19.6,38.4L20.4,39.1L21.4,39.1L22.9,39.3L23.2,41.1L22.7,42.2L22.3,43.7L22.9,44.8L22.3,45.3L21.4,45.0L20.5,45.0L19.0,45.3L18.2,45.6L16.9,46.1L16.7,45.0L16.8,44.4L16.3,43.8L15.5,43.4L15.7,42.2L16.0,41.3L16.5,40.7L16.2,39.7L16.0,38.7L16.8,38.7L17.7,38.7L18.6,38.2L19.6,38.4Z M46.0,42.2L45.3,43.5L44.9,44.7L44.9,45.6L45.5,46.3L46.1,47.4L46.7,47.8L46.9,48.7L46.8,49.4L45.8,49.1L44.8,48.8L43.1,48.7L42.2,48.8L41.5,48.7L38.8,48.7L39.0,47.7L38.5,46.9L37.6,46.1L37.6,44.6L38.2,43.4L39.4,42.7L40.6,43.2L41.5,42.7L41.9,41.7L42.1,41.0L42.7,40.5L43.0,39.6L43.4,38.7L43.8,37.9L44.9,36.9L45.1,36.2L44.6,35.7L45.5,36.0L45.6,36.9L45.5,37.7L46.2,38.9L45.5,38.9L44.5,38.8L44.3,39.5L45.0,40.2L45.8,40.9L46.2,41.8L46.0,42.2Z M57.0,65.6L55.6,65.7L54.7,65.8L54.8,64.2L54.3,63.0L54.5,62.2L54.2,60.9L52.6,60.9L52.1,60.5L51.2,60.8L50.9,61.5L50.0,61.6L48.8,61.9L48.3,61.3L47.6,60.1L47.3,59.1L43.5,59.1L42.7,59.2L42.0,59.0L42.4,58.3L43.0,57.7L43.8,57.4L44.5,57.4L45.1,58.0L45.8,57.2L46.6,56.5L46.8,55.1L47.4,53.8L48.0,53.2L48.8,52.6L49.0,51.7L49.1,50.5L49.3,49.4L49.5,48.6L49.9,47.9L50.0,47.2L50.1,46.3L50.6,45.6L51.3,45.2L52.4,45.6L53.2,46.1L54.1,46.2L55.0,46.5L55.4,45.7L56.2,45.8L57.6,45.1L58.5,45.3L59.2,44.9L60.1,45.1L61.0,45.1L62.2,46.0L63.1,45.9L64.4,45.8L65.8,47.2L65.7,48.6L65.3,49.6L64.8,50.3L64.6,50.9L64.5,51.9L64.2,53.3L63.8,54.5L63.5,55.2L63.8,55.8L63.9,57.4L64.1,58.5L64.0,59.2L64.2,59.9L65.0,60.7L65.7,62.3L63.5,62.3L62.8,63.3L62.8,65.4L62.7,66.7L63.9,67.4L64.3,68.5L63.4,68.5L62.8,67.8L62.4,67.3L61.4,67.1L61.1,66.4L60.3,66.8L59.3,66.7L58.9,66.1L58.1,66.0L57.4,65.6L57.0,65.6Z M43.0,57.7L42.6,57.3L41.7,58.1L40.6,56.7L41.6,56.0L41.1,55.2L42.4,54.7L43.2,54.7L44.3,54.8L44.7,54.2L44.9,53.3L44.7,52.3L44.1,51.6L44.7,50.1L43.4,50.0L43.1,49.3L44.8,48.8L45.8,49.1L46.8,49.4L46.9,48.7L47.6,47.6L48.3,46.9L49.2,47.1L50.0,47.2L49.9,47.9L49.5,48.6L49.3,49.4L49.1,50.5L49.2,51.3L49.0,52.2L48.0,53.2L47.4,53.8L46.8,55.1L46.9,56.1L45.8,57.2L45.1,58.0L44.5,57.4L43.8,57.4L43.4,57.9L43.0,57.7Z M81.4,35.4L81.7,36.4L80.9,36.7L81.5,37.0L81.0,37.7L79.7,37.5L79.6,36.8L80.0,36.2L80.5,35.6L81.4,35.4Z M31.9,27.2L30.5,27.3L30.5,26.5L29.1,25.9L28.8,25.3L24.5,22.6L20.2,19.8L15.4,16.7L15.4,14.9L17.5,13.9L18.7,13.7L19.8,13.4L20.3,12.7L21.8,12.2L21.8,11.3L22.6,11.2L23.1,10.7L24.8,10.5L24.7,9.7L24.3,8.4L24.2,7.6L23.7,6.8L24.9,6.1L26.3,5.9L27.1,5.3L28.3,4.9L30.5,4.7L32.6,4.6L33.3,4.8L34.5,4.3L35.8,4.3L37.2,4.5L37.0,5.2L37.2,6.4L36.9,7.4L36.1,8.1L36.2,9.1L37.2,9.9L38.0,10.7L38.6,13.0L39.0,14.1L38.8,15.7L38.8,17.0L38.9,17.8L38.4,18.4L39.1,19.3L39.6,20.5L40.2,20.3L41.2,20.9L41.8,21.7L37.4,24.1L33.7,26.6L31.9,27.2Z M73.5,23.6L68.4,23.6L63.5,23.6L58.4,23.6L58.4,18.9L58.4,14.3L58.0,13.3L58.3,12.5L58.6,11.4L60.3,11.4L61.5,11.7L62.8,12.1L64.3,11.9L64.9,11.5L66.0,11.4L66.9,11.5L67.2,12.2L68.5,12.1L69.5,12.1L70.2,11.8L70.9,13.7L70.7,14.5L70.4,15.5L70.0,16.1L69.3,16.0L68.7,15.4L67.8,13.6L68.2,15.0L69.0,16.3L70.0,18.3L70.4,19.0L70.8,19.7L72.0,21.1L71.8,22.2L73.3,23.3L73.5,23.6Z M81.4,35.4L80.5,35.6L79.5,34.5L79.0,34.1L77.5,33.1L76.6,33.1L75.6,33.1L74.8,32.6L74.4,33.5L72.9,33.2L73.3,30.9L73.5,30.0L74.8,29.4L75.5,28.7L76.2,30.2L76.5,31.3L77.2,31.9L79.0,33.1L79.7,33.9L80.4,34.6L81.4,35.4Z M80.5,35.6L80.0,36.2L79.6,36.8L79.7,37.5L80.4,37.6L80.7,38.1L81.2,38.8L81.7,39.5L82.2,39.9L86.3,41.4L87.4,41.4L83.8,45.3L82.2,45.3L81.0,46.2L80.2,46.2L79.0,46.6L78.5,46.2L77.3,46.7L76.9,47.3L76.1,47.2L75.1,47.0L73.5,46.0L72.6,46.0L72.2,44.8L71.5,44.6L70.7,43.2L70.2,42.9L69.3,41.8L68.5,41.7L68.9,41.0L69.6,40.9L69.8,39.4L70.2,38.1L70.8,37.7L71.4,36.2L72.2,35.6L72.7,34.3L72.9,33.2L74.4,33.5L74.8,32.6L75.6,33.1L76.3,32.8L77.5,33.1L78.6,33.6L79.5,34.5L80.0,35.2L80.5,35.6Z M40.9,48.7L42.2,48.8L43.0,48.7L43.4,50.0L44.4,49.8L44.1,51.6L44.7,52.3L44.9,53.3L44.7,54.2L44.3,54.8L43.2,54.7L42.5,54.1L41.5,54.8L41.6,56.0L40.6,56.7L39.3,55.4L38.5,54.4L37.7,53.0L38.0,52.2L38.3,51.3L38.6,50.3L40.9,50.3L40.9,48.7Z M22.9,39.3L22.7,38.4L22.7,37.6L24.9,37.6L25.9,37.5L26.4,38.0L26.9,38.6L26.9,39.6L27.1,40.6L27.1,42.2L27.2,42.8L27.5,43.6L25.8,44.8L25.1,45.3L24.0,45.6L22.8,45.3L22.3,43.7L22.7,42.2L23.2,41.1L22.9,39.3Z M16.2,38.6L15.9,39.1L16.5,40.7L15.9,41.0L15.9,41.8L15.1,42.3L14.5,42.0L14.0,40.7L13.1,41.0L12.9,40.2L12.7,39.3L11.3,38.8L10.6,39.1L10.3,39.7L9.6,40.3L9.0,39.5L8.5,39.0L7.9,38.6L7.6,37.8L7.7,36.9L8.5,36.7L8.8,36.1L9.6,35.6L10.5,35.9L11.6,35.8L12.4,36.1L13.0,36.4L13.9,36.2L14.6,35.9L15.3,36.6L15.8,37.1L15.5,37.8L16.2,38.6Z M5.0,34.9L6.6,34.3L7.2,33.9L8.1,34.3L8.8,34.4L7.7,34.7L6.7,34.7L5.0,34.9Z M9.0,35.6L9.0,36.6L8.1,37.0L7.2,37.6L6.5,37.0L5.7,36.6L5.2,35.8L5.9,35.6L6.6,35.5L9.0,35.6Z M38.8,48.7L40.9,48.7L40.9,50.3L39.0,50.3L38.3,50.1L38.8,48.7Z M71.5,44.6L72.2,44.8L72.2,45.5L73.5,46.0L75.1,47.0L75.8,47.0L76.9,47.3L77.3,46.7L78.5,46.2L79.0,46.6L79.8,46.6L78.7,48.1L78.8,52.7L79.5,53.8L78.6,54.3L77.8,54.9L77.6,55.8L77.2,56.3L77.0,57.2L76.5,57.6L74.6,56.3L74.5,55.6L69.9,53.0L69.7,51.5L70.7,50.1L71.2,49.2L70.6,47.7L70.4,47.1L69.8,46.2L70.6,45.4L71.5,44.6Z M15.7,41.8L15.8,42.8L15.9,43.7L16.8,44.4L16.7,45.0L16.6,46.1L15.0,45.5L13.8,44.5L12.7,43.8L11.9,43.0L12.3,42.2L12.8,41.5L13.4,40.9L14.6,41.5L14.7,42.3L15.4,41.8L15.7,41.8Z M41.8,21.7L41.2,20.9L40.2,20.3L39.6,20.5L39.2,19.8L38.4,18.4L38.9,17.8L38.8,17.0L38.9,16.3L39.0,14.7L38.6,13.0L39.2,12.7L39.2,11.6L40.0,11.1L41.1,10.4L41.1,9.4L42.6,9.8L44.2,9.9L45.9,10.5L46.5,11.6L47.7,11.9L49.5,12.4L50.8,13.0L51.4,12.7L52.0,12.1L51.8,11.1L52.2,10.5L53.1,9.9L53.9,9.7L55.7,10.0L56.1,10.6L57.0,10.8L58.3,11.0L58.1,12.0L58.0,13.3L58.4,14.3L58.4,18.9L58.4,23.6L58.4,26.1L56.9,26.1L51.8,24.2L46.7,21.8L45.4,22.5L44.5,22.9L43.8,22.2L41.8,21.7Z M63.4,88.6L63.5,89.6L62.6,90.2L61.9,90.7L60.9,89.7L61.6,88.9L62.3,88.4L62.9,88.2L63.4,88.6Z M23.7,6.8L24.2,7.6L24.3,8.4L24.7,9.7L24.8,10.5L23.1,10.7L22.6,11.2L21.8,11.3L21.8,12.2L20.3,12.7L19.8,13.4L18.7,13.7L17.5,13.9L15.4,14.9L15.4,16.4L15.3,17.0L14.5,17.1L13.5,17.4L11.9,17.3L11.5,18.3L10.5,20.0L8.8,21.4L8.3,23.2L7.8,23.8L4.8,24.3L5.3,23.4L5.7,22.7L6.1,21.4L6.8,20.6L7.6,19.6L7.6,18.9L8.1,18.1L8.9,17.7L9.7,16.4L10.4,15.9L11.6,15.7L12.6,14.9L13.2,14.5L14.3,13.5L14.0,11.9L14.4,10.8L14.6,10.1L15.4,9.2L16.7,8.7L17.7,8.1L18.5,6.8L18.9,6.0L19.9,6.0L20.6,6.6L21.8,6.5L23.2,6.8L23.7,6.8Z M89.7,67.5L90.0,68.1L90.3,68.9L90.5,70.4L90.8,71.0L90.5,72.0L90.1,71.3L90.1,72.6L89.6,73.4L89.5,74.5L89.0,76.0L88.4,77.8L87.6,80.2L87.1,82.0L86.5,83.4L85.5,83.7L84.4,84.3L83.6,84.0L82.6,83.5L82.3,82.8L82.2,81.7L81.8,80.7L81.6,79.8L81.9,78.8L82.5,78.2L83.1,77.2L83.2,76.4L82.9,75.8L82.6,75.0L82.5,73.8L83.0,73.1L83.2,72.3L84.5,72.0L85.5,71.8L86.3,71.0L87.3,70.2L87.7,69.6L88.8,68.3L88.8,67.6L89.2,67.0L89.7,67.5Z M27.0,32.6L26.1,32.6L25.1,32.5L23.9,33.1L22.7,34.0L22.0,34.6L21.4,34.4L20.8,35.6L19.8,36.7L19.5,37.7L19.6,38.4L18.8,38.8L18.2,38.4L16.8,38.7L15.8,38.2L15.5,37.4L15.3,36.6L14.8,35.9L13.9,36.2L13.0,36.4L12.4,36.1L11.8,35.8L11.7,34.9L11.0,33.8L11.0,33.0L11.6,32.0L12.9,32.3L13.6,32.1L14.3,31.9L19.4,31.9L19.7,31.0L18.9,25.3L18.2,19.8L20.2,19.8L24.5,22.6L28.8,25.3L29.1,25.9L29.9,26.3L30.5,27.3L31.9,27.2L31.9,30.1L31.2,31.0L31.1,31.8L30.0,32.0L28.2,32.1L27.8,32.5L27.0,32.6Z M70.5,66.3L71.5,66.2L73.0,66.6L74.3,66.4L75.5,66.0L76.9,65.5L77.9,64.8L78.0,66.6L78.2,67.7L78.2,69.7L78.5,70.4L78.1,71.3L77.6,72.2L76.8,73.0L75.6,73.4L74.2,74.1L72.7,75.4L71.4,76.6L70.7,77.8L71.3,78.7L71.6,79.5L71.8,81.0L71.9,81.9L71.2,82.8L70.1,83.3L68.6,84.0L68.0,84.4L68.5,85.1L68.3,85.7L67.4,85.7L67.1,84.6L67.2,82.7L66.9,81.8L66.3,80.0L67.6,78.6L67.9,77.6L68.3,76.8L68.1,75.4L68.4,74.6L68.4,72.9L67.7,72.5L66.8,72.1L66.2,71.9L65.2,71.9L65.0,70.5L68.8,69.4L69.6,70.1L70.4,70.3L70.2,71.4L70.3,72.3L71.2,73.1L71.5,72.2L72.0,70.3L71.4,69.3L70.5,68.9L70.2,67.3L70.5,66.3Z M15.4,16.7L20.2,19.8L18.2,19.8L18.9,25.3L19.5,30.8L19.4,31.9L14.3,31.9L13.6,32.1L12.9,32.3L12.0,32.0L11.4,32.8L10.1,32.1L9.3,31.2L8.5,30.8L7.9,30.5L7.2,30.5L6.6,30.8L5.9,30.6L5.7,29.7L5.9,28.5L5.7,27.3L5.6,26.6L5.7,26.0L5.4,25.4L4.7,24.8L10.0,24.4L9.7,22.6L10.1,21.9L11.3,21.8L11.2,18.6L15.4,18.6L15.4,16.7Z M70.5,66.3L70.2,67.3L70.5,68.9L71.4,69.3L72.0,70.3L72.1,71.9L71.2,73.1L70.3,72.3L70.2,71.4L70.5,70.8L69.9,69.9L68.8,69.4L68.2,69.1L68.5,67.9L68.7,66.4L69.0,65.4L68.9,64.0L68.3,63.4L69.5,63.6L70.2,64.6L70.5,66.3Z M41.4,73.7L42.1,73.4L42.8,73.2L43.6,73.3L44.4,73.8L49.8,73.7L50.6,74.3L53.7,74.5L56.1,74.0L57.1,73.7L58.0,73.8L58.5,74.2L57.7,74.4L56.5,74.9L56.1,74.4L54.1,74.9L53.1,74.9L53.1,79.4L51.8,79.5L51.8,83.2L51.8,87.9L50.7,88.6L50.0,88.7L49.2,88.4L48.4,87.8L47.3,88.1L46.4,87.1L45.9,86.2L45.6,84.9L45.3,84.0L44.8,82.0L44.8,80.5L44.7,79.8L44.2,79.3L43.5,78.2L42.8,76.7L42.6,75.9L41.5,74.7L41.4,73.7Z M31.1,36.8L30.1,36.0L29.2,36.4L29.3,35.5L27.8,35.2L27.0,33.8L27.0,32.6L27.8,32.5L28.2,32.1L30.0,32.0L31.1,31.8L31.2,31.0L31.9,30.1L31.9,27.2L33.7,26.6L37.4,24.1L41.8,21.7L43.8,22.2L44.5,22.9L45.4,22.5L45.7,24.5L46.2,25.2L46.8,25.6L46.0,28.8L45.9,30.4L44.3,31.6L43.7,33.3L44.3,33.8L44.3,34.6L45.1,34.6L44.6,35.3L43.5,34.3L42.2,35.0L41.2,34.6L40.5,34.6L39.4,34.7L38.6,35.2L38.0,35.3L36.4,34.6L35.8,34.9L35.2,34.9L34.7,34.4L33.4,33.9L32.0,34.1L31.5,35.1L31.1,36.8Z M29.9,43.6L30.0,41.6L29.9,40.8L30.2,40.0L31.2,38.8L31.3,37.9L31.0,37.2L31.2,35.6L31.7,34.4L33.4,33.9L34.7,34.4L35.2,34.9L35.8,34.9L36.4,34.6L38.0,35.3L38.6,35.2L39.4,34.7L40.1,34.7L41.2,34.6L42.2,35.0L43.2,34.3L44.3,35.7L45.1,36.2L44.9,36.9L43.8,37.9L43.4,38.7L43.3,39.3L42.7,40.5L42.1,41.0L41.9,41.7L41.5,42.7L40.6,43.2L39.9,42.6L38.6,43.4L37.6,44.6L37.3,45.5L36.0,46.0L35.0,46.2L34.0,46.2L33.3,45.4L32.9,44.5L32.0,43.6L31.0,43.6L29.9,43.6Z M65.3,54.7L64.7,54.6L64.3,55.3L63.5,55.2L63.6,54.6L63.8,53.7L64.5,53.5L65.3,53.1L65.8,53.8L65.7,54.5L65.3,54.7Z M15.4,16.4L15.4,18.6L11.2,18.6L11.3,21.8L10.1,21.9L9.7,22.6L10.0,24.4L5.0,24.4L7.7,24.2L8.3,23.2L8.8,21.4L10.5,20.0L11.1,18.4L11.9,17.3L13.0,17.2L14.1,17.4L15.3,17.0L15.2,16.4L15.4,16.4Z M57.8,41.1L56.8,40.6L56.3,39.8L56.5,38.8L55.8,38.0L55.6,37.1L55.2,36.0L54.4,35.6L54.9,34.6L55.2,33.7L55.3,32.6L55.8,31.6L56.9,31.7L56.9,26.7L58.4,26.1L58.4,23.6L63.5,23.6L68.4,23.6L73.5,23.6L73.9,24.8L73.8,26.4L74.3,27.9L75.5,28.7L74.8,29.4L73.9,29.6L73.3,30.9L72.8,32.7L72.7,34.3L72.2,35.6L71.4,36.2L70.9,37.2L70.2,38.1L69.8,39.4L69.8,40.6L69.8,39.6L69.6,38.9L68.8,38.0L68.7,37.0L68.8,36.1L68.1,36.3L67.4,36.4L67.8,37.5L67.1,38.2L66.5,39.1L65.8,39.3L64.7,38.5L64.1,39.1L63.5,39.4L62.1,39.6L61.0,39.3L60.2,39.4L59.6,38.7L58.4,38.5L58.1,39.1L57.8,40.3L56.9,40.6L57.8,41.1Z M61.4,45.0L60.2,44.0L59.9,43.3L59.4,42.7L58.5,42.1L57.8,41.1L56.9,40.6L57.8,40.3L58.1,39.1L58.4,38.5L59.4,38.4L60.2,39.4L61.0,39.3L62.0,39.4L63.4,39.6L64.1,39.1L64.7,38.5L65.8,39.3L66.5,39.1L67.1,38.2L67.8,37.5L67.7,36.7L68.2,36.0L68.7,37.0L68.8,38.0L69.5,38.5L69.6,39.5L69.8,40.6L68.9,41.0L68.5,41.7L69.3,41.8L69.9,42.4L70.7,43.2L71.5,44.6L70.6,45.4L69.8,46.2L69.1,46.8L68.2,46.8L67.1,47.1L66.3,46.8L64.7,46.3L63.7,46.0L62.7,46.2L61.4,45.0Z M11.8,35.8L10.9,35.7L9.6,35.6L6.6,35.5L5.9,35.6L5.2,35.8L5.0,34.9L6.2,34.9L7.2,34.4L8.3,34.7L8.6,34.0L7.7,34.2L6.8,34.0L5.2,34.3L4.6,33.3L4.0,32.8L5.2,31.7L5.5,31.1L6.6,30.8L7.2,30.5L7.9,30.5L8.5,30.8L9.3,31.2L10.1,32.1L11.0,33.0L11.0,33.8L11.3,34.5L11.9,35.4L11.8,35.8Z M9.6,40.3L10.3,39.7L10.6,39.1L11.3,38.8L12.3,38.8L12.9,39.8L13.1,40.5L12.8,41.5L12.3,42.2L11.9,43.0L10.6,42.4L10.0,41.7L9.6,40.3Z M81.0,37.7L81.5,37.0L82.2,37.8L82.7,38.3L84.6,38.0L86.0,37.8L87.1,37.4L87.7,37.4L88.9,37.1L88.9,38.9L88.9,39.6L88.3,40.4L87.4,41.4L86.3,41.4L82.2,39.9L81.7,39.5L81.2,38.8L80.7,38.1L81.0,37.7Z M79.8,46.6L81.0,46.2L82.2,45.3L83.8,45.3L87.4,41.4L88.3,40.4L88.9,39.6L88.9,38.9L88.9,37.6L89.3,37.1L90.6,36.7L91.2,36.3L91.6,37.4L91.6,38.1L90.9,39.9L90.3,41.3L89.5,43.0L88.4,44.8L87.4,46.2L85.9,48.0L84.6,49.0L82.7,50.3L81.5,51.3L80.1,52.8L79.8,53.5L78.8,52.7L78.7,48.1L79.8,46.6Z M67.1,84.6L67.4,85.7L66.4,86.4L65.6,85.7L65.9,84.8L66.4,84.4L67.1,84.6Z M55.6,37.4L54.8,37.6L54.2,38.2L53.3,39.5L52.1,40.1L50.8,40.1L49.9,41.1L49.4,41.6L47.8,42.1L47.0,42.1L46.0,42.2L45.8,40.9L45.0,40.2L44.3,39.5L44.5,38.8L45.5,38.9L46.2,38.9L45.5,37.7L45.6,36.9L45.5,36.0L45.0,35.2L44.3,34.6L44.3,33.8L43.7,33.3L44.3,31.6L45.9,30.4L46.0,28.8L46.5,26.2L46.2,25.2L45.7,24.5L45.4,22.5L46.7,21.8L51.8,24.2L56.9,26.7L56.9,31.7L55.8,31.6L55.3,32.6L54.9,33.4L54.8,34.0L54.6,35.1L55.2,36.0L55.2,36.7L55.6,37.4Z M27.6,37.6L27.5,38.3L28.3,39.1L28.6,40.0L28.5,42.9L28.9,43.8L27.8,44.1L27.2,42.8L27.1,42.2L27.4,41.0L26.9,39.6L26.9,38.6L26.4,38.0L27.6,37.6Z M38.6,13.0L38.0,10.7L37.2,10.2L36.2,9.1L36.1,8.1L36.9,7.4L37.2,6.4L37.0,5.2L37.2,4.5L38.6,4.0L39.5,4.2L39.5,4.8L40.5,4.3L40.0,5.2L40.4,6.1L40.3,7.2L39.4,7.9L39.7,8.5L40.3,8.6L40.6,9.2L41.1,10.4L40.4,10.7L39.2,11.6L39.2,12.7L38.6,13.0Z M63.9,57.4L64.9,56.8L65.4,56.2L65.7,55.5L65.3,54.7L65.8,53.8L65.3,53.1L67.1,52.9L69.7,52.8L74.5,55.6L74.6,56.3L76.5,57.6L75.9,59.2L76.0,59.9L76.8,60.4L76.5,61.5L76.4,62.4L76.9,63.2L77.4,64.5L76.9,65.5L75.5,66.0L74.7,66.0L73.4,66.4L71.5,66.2L70.5,66.3L70.2,64.6L69.8,64.0L68.3,63.4L67.5,63.0L66.7,62.8L65.7,62.3L65.0,60.7L64.2,59.9L64.0,59.2L64.1,58.5L63.9,57.4Z M64.2,53.3L64.2,52.4L64.6,50.9L64.8,50.3L65.3,49.6L66.2,48.8L65.8,47.2L67.1,47.1L68.2,46.8L69.1,46.8L69.8,46.2L70.4,47.1L70.6,47.7L71.2,49.2L70.7,50.1L70.1,51.0L69.7,52.8L67.1,52.9L65.7,52.9L64.5,53.5L64.2,53.3Z M51.8,83.2L52.9,84.6L52.8,85.4L54.0,85.7L54.7,85.1L55.3,84.8L55.6,84.1L56.2,83.9L57.3,84.4L58.4,84.4L59.2,84.1L59.6,83.1L60.3,83.0L61.1,81.7L62.2,80.7L64.0,79.8L65.1,80.0L66.3,80.0L66.9,81.8L67.2,82.7L67.0,84.1L66.1,84.4L65.6,85.3L66.4,86.4L67.1,86.3L68.3,85.7L68.0,86.7L67.9,87.7L67.5,88.3L66.7,88.9L65.9,89.8L65.5,90.4L64.8,91.3L63.4,92.7L62.5,93.4L61.5,94.0L60.2,94.5L59.5,94.6L58.6,94.7L57.9,95.0L56.6,94.7L55.8,94.9L53.9,95.3L52.9,95.5L52.1,96.0L51.0,95.6L50.0,95.0L49.7,94.1L49.3,93.2L49.7,92.0L48.9,90.8L48.2,89.7L47.3,88.1L47.9,87.4L48.6,88.3L50.0,88.7L50.7,88.6L51.8,87.9L51.8,83.2Z M56.1,74.0L55.2,73.2L54.4,72.1L54.4,68.1L57.1,68.1L57.2,67.2L57.0,66.6L57.0,65.6L57.5,66.0L58.9,66.1L59.3,66.7L60.3,66.8L61.1,66.4L61.4,67.1L62.4,67.3L62.8,67.8L63.4,68.5L64.3,68.5L64.2,67.2L63.0,66.9L62.8,65.4L63.0,63.9L63.1,62.5L65.2,62.1L66.2,62.6L67.5,63.0L68.3,63.4L68.9,64.0L69.2,65.1L68.7,66.4L68.9,67.5L68.2,69.1L68.8,69.4L65.0,70.5L65.1,71.4L64.1,71.6L63.4,72.1L62.8,72.6L61.7,73.7L61.0,74.5L60.1,74.4L58.7,74.2L58.0,73.8L57.1,73.7L56.1,74.0Z M64.0,79.8L63.2,79.2L62.2,79.0L61.8,78.2L61.3,77.6L59.8,76.2L59.4,75.5L58.7,74.2L60.1,74.4L61.0,74.5L61.7,73.7L62.8,72.6L63.4,72.1L64.1,71.6L65.1,71.4L66.2,71.9L66.8,72.1L67.7,72.5L68.4,72.9L68.4,74.6L68.1,75.4L68.1,76.4L68.1,77.5L67.6,78.6L66.3,80.0L65.6,79.9L64.5,79.8L64.0,79.8Z" fill="#a8b3cf" stroke="none"/></svg>
