<svg xmlns="http://www.w3.org/2000/svg" viewBox="0 0 175 100" preserveAspectRatio="xMidYMid meet"><path d="M53.2,31.6L54.6,32.1L55.7,32.0L57.1,31.1L57.9,30.7L58.2,29.6L59.3,29.3L60.2,29.2L61.4,29.2L62.5,29.5L63.9,29.2L64.8,28.9L65.7,28.9L66.0,28.1L66.6,27.6L67.4,28.0L67.5,29.6L68.1,30.1L69.2,29.7L70.1,29.0L71.0,29.1L72.5,29.1L71.9,29.7L71.2,30.0L69.6,30.1L68.1,30.4L67.3,31.0L67.8,32.3L67.1,32.9L66.7,33.9L65.4,33.9L66.0,34.8L65.1,35.2L64.5,36.0L64.6,36.9L63.5,37.1L62.4,37.3L61.2,37.7L60.4,38.5L60.4,39.7L58.6,40.3L57.6,40.1L56.5,40.3L55.1,40.5L52.7,39.8L54.0,38.5L53.9,37.6L52.8,37.4L52.7,36.5L52.3,35.4L52.9,34.6L52.6,33.4L53.2,31.6Z M39.7,47.6L41.1,47.7L42.3,47.7L43.1,47.7L44.1,46.8L45.1,45.9L46.0,45.0L46.5,46.6L45.8,46.6L45.6,47.5L45.3,48.6L44.8,49.2L44.5,50.0L40.3,49.3L39.8,47.9L39.7,47.6Z M28.5,24.0L30.5,23.8L31.3,24.4L31.8,25.2L32.0,26.0L32.6,27.2L31.6,26.5L30.5,25.9L29.7,25.5L28.6,25.2L28.5,24.0Z M32.6,27.2L32.6,26.3L31.4,25.7L31.0,24.7L30.5,23.8L31.9,24.0L32.6,24.0L32.1,23.1L32.9,23.0L33.8,23.8L34.7,23.6L35.5,23.0L36.3,23.7L37.0,24.7L38.1,25.2L36.9,25.3L36.7,26.4L35.9,27.2L35.6,27.9L34.7,27.2L35.2,26.5L34.3,26.2L32.6,27.2Z M30.2,25.9L30.9,26.3L32.1,27.3L31.2,27.1L30.5,26.5L30.2,25.9Z M97.2,50.7L97.2,51.7L96.8,52.6L96.4,51.8L96.3,51.1L96.1,50.5L95.5,49.6L94.2,49.6L93.9,50.9L93.1,50.9L92.1,50.6L91.9,49.5L91.4,48.4L91.7,47.6L90.8,47.2L92.0,46.2L91.0,45.4L91.5,44.5L92.6,45.1L93.4,46.1L94.7,46.3L96.0,46.3L96.8,46.6L96.2,47.7L95.1,48.6L95.9,49.3L96.1,48.4L97.2,50.7Z M127.4,75.2L127.9,74.6L129.1,73.9L129.0,75.5L128.0,75.9L127.4,75.2Z M95.9,42.6L96.4,43.1L96.3,43.9L95.2,44.0L94.0,43.9L93.1,44.1L91.9,43.6L92.8,42.3L93.5,41.9L94.5,42.2L95.3,42.3L95.9,42.6Z M72.7,29.5L72.3,28.3L71.5,27.5L70.7,26.3L72.2,25.0L73.2,24.7L74.6,24.9L75.2,24.0L77.0,23.9L77.5,23.3L79.7,22.6L79.8,21.4L80.7,21.1L79.5,18.6L82.2,18.1L82.9,17.8L84.0,15.3L86.7,15.7L87.5,15.1L87.6,13.7L88.7,13.6L89.8,12.6L90.7,13.5L91.9,14.2L93.9,14.8L94.9,15.9L94.3,17.5L94.8,18.1L96.5,18.4L98.4,18.6L100.1,19.4L100.9,19.6L101.6,20.9L102.4,21.7L103.9,21.7L106.8,22.0L108.7,21.8L110.1,22.0L112.1,22.9L113.8,22.9L114.4,23.3L116.1,22.5L118.3,22.1L120.4,22.0L122.1,21.5L123.1,20.8L124.0,20.3L123.4,19.3L124.1,18.4L124.9,18.5L126.3,18.8L127.7,18.1L129.9,17.5L130.9,16.6L131.9,16.2L133.9,16.0L135.0,16.2L133.9,14.7L132.8,14.2L131.7,14.8L130.3,14.5L129.5,14.7L130.1,12.7L130.8,11.7L132.5,12.2L134.5,11.3L135.7,9.2L136.5,8.8L136.5,8.0L135.7,7.7L136.9,7.0L138.6,6.7L140.5,6.7L142.6,7.1L143.8,7.6L144.7,9.0L145.2,9.6L145.7,10.5L146.2,11.9L148.6,12.3L150.3,13.3L150.9,14.6L153.0,14.6L154.2,14.1L156.5,13.7L155.8,14.9L155.2,15.4L154.7,17.0L153.8,18.3L152.1,18.1L150.9,18.6L151.3,19.8L151.1,21.4L150.4,21.5L150.4,22.2L149.5,21.4L148.9,22.1L146.7,22.7L147.0,23.5L145.8,23.4L145.1,23.0L144.1,24.0L142.6,24.7L141.4,25.6L139.5,26.0L138.5,26.7L137.0,27.1L137.7,26.4L138.5,24.9L137.8,24.2L136.6,24.7L135.0,25.7L134.1,26.6L132.7,26.6L132.0,27.3L132.8,28.2L133.9,28.5L135.1,29.5L136.6,28.5L137.9,29.1L138.8,29.1L139.0,29.8L137.0,30.2L136.4,31.0L135.0,31.7L134.3,32.7L135.8,33.4L136.3,34.8L137.2,36.1L138.1,37.2L138.1,38.2L137.2,38.6L137.6,39.3L138.4,39.8L138.2,40.9L137.8,42.0L137.1,42.1L136.0,43.6L134.9,45.5L133.6,47.2L131.7,48.4L129.7,49.6L128.2,49.8L127.3,50.4L126.0,50.6L124.1,51.3L122.6,51.6L122.1,53.0L121.3,53.1L121.0,52.1L119.4,51.1L117.3,51.0L116.7,50.4L116.9,49.6L115.6,49.4L114.9,48.8L113.8,49.6L112.4,49.7L111.3,49.7L110.5,50.1L109.8,50.3L110.0,51.9L109.3,51.8L109.1,50.9L108.1,51.3L106.4,50.6L106.8,49.4L105.9,49.1L105.6,47.8L104.1,48.1L104.3,46.4L105.6,45.2L105.7,44.1L105.6,43.0L104.6,41.9L103.8,42.0L102.2,41.7L102.7,41.2L102.1,40.3L101.1,40.9L99.9,40.5L98.3,41.4L97.0,42.5L95.9,42.6L95.3,42.3L94.5,42.2L93.5,41.9L92.8,42.3L91.8,43.3L91.7,42.2L90.9,42.5L89.2,42.4L87.7,42.0L86.5,41.4L85.4,41.1L85.0,40.5L84.2,40.3L82.8,39.4L81.6,38.9L79.1,38.3L77.7,37.4L77.3,35.9L78.4,36.0L78.4,35.3L77.8,34.6L78.0,33.5L76.5,31.8L74.2,31.3L73.8,30.2L72.7,29.5Z M122.0,55.4L120.7,56.0L119.6,55.6L119.6,54.4L120.3,53.8L121.8,53.4L122.6,53.4L122.3,54.6L122.0,55.4Z M13.4,32.3L14.7,32.0L15.9,31.6L15.0,32.2L14.3,32.3L13.4,32.3Z M13.4,32.3L14.3,32.3L15.1,32.4L13.7,33.1L13.0,32.9L13.4,32.3Z M30.5,23.8L28.5,24.0L27.2,23.3L25.7,23.4L25.6,21.8L24.8,21.3L24.0,21.2L24.8,20.8L26.9,21.0L28.8,21.7L29.9,21.7L31.2,22.0L31.6,22.6L32.5,22.9L32.8,23.9L31.9,24.0L30.8,23.6L30.5,23.8Z M136.5,95.8L134.0,94.9L135.3,94.6L136.1,95.0L136.5,95.8Z M142.4,93.9L142.6,94.6L141.7,95.7L140.5,96.0L141.0,94.5L142.4,93.9Z M132.5,92.8L133.9,93.1L132.6,94.0L131.7,94.2L130.9,94.1L131.4,93.3L132.2,93.3L132.5,92.8Z M139.5,92.8L139.3,93.6L137.2,94.0L135.4,93.8L136.5,93.0L137.4,93.4L138.3,93.3L139.5,92.8Z M119.6,91.0L122.2,91.1L125.1,91.2L125.7,92.1L127.8,92.4L129.5,93.2L127.9,93.7L126.3,93.2L125.1,93.2L123.6,93.1L122.3,92.9L120.7,92.3L119.7,92.2L116.5,91.8L115.0,91.1L116.0,89.8L117.7,89.8L118.8,90.4L119.6,91.0Z M156.1,90.2L155.4,91.2L155.2,90.1L155.8,89.1L156.1,90.2Z M145.6,86.3L145.1,86.8L144.1,86.6L145.3,85.9L145.6,86.3Z M150.1,85.8L150.6,86.9L149.5,86.3L148.3,86.2L147.5,86.3L146.5,86.3L146.9,85.5L148.6,85.4L150.1,85.8Z M164.9,85.1L164.9,89.7L164.9,94.3L163.7,93.1L162.2,92.8L160.1,93.3L160.7,92.1L161.6,91.7L161.2,90.2L160.6,89.1L157.9,87.9L156.7,87.7L154.6,86.5L154.2,87.1L153.3,86.7L152.3,85.4L153.8,84.9L154.8,85.0L152.6,84.6L152.0,83.8L150.8,83.5L150.2,82.8L152.1,82.5L152.8,82.0L155.0,82.6L155.7,85.4L157.1,86.2L158.3,84.7L159.9,83.9L161.1,83.9L162.3,84.4L163.4,84.9L164.9,85.1Z M142.8,79.5L141.7,80.9L140.6,81.2L139.3,80.9L137.0,81.0L135.7,81.2L135.5,82.2L136.8,83.5L137.5,82.8L140.2,82.4L139.4,82.8L138.8,83.6L137.6,84.2L138.9,86.0L139.9,88.1L139.9,89.0L139.2,89.4L138.6,88.9L139.3,87.7L137.9,88.3L137.7,87.4L136.7,86.5L136.8,85.2L135.9,85.6L136.0,87.2L136.1,89.2L135.2,89.4L134.6,89.0L135.0,87.7L134.8,86.4L133.8,85.4L134.3,84.5L134.5,83.4L135.2,81.3L136.7,79.7L137.8,80.1L139.6,80.3L141.2,80.2L142.6,79.2L142.8,79.5Z M147.6,79.9L147.6,81.1L146.8,81.0L146.6,81.9L147.2,82.6L146.2,81.9L145.8,80.1L146.1,79.0L147.5,79.3L147.6,79.9Z M121.0,78.7L121.2,79.6L122.2,80.4L123.1,80.1L124.0,80.2L124.8,79.5L126.8,79.8L128.0,79.5L128.7,77.6L129.2,77.1L129.7,75.5L131.3,75.5L132.5,75.7L131.7,77.0L132.7,78.3L134.1,80.2L132.4,80.4L131.9,81.4L132.0,82.6L130.7,83.6L130.6,85.0L130.1,87.1L128.3,87.2L127.7,86.4L126.7,86.3L126.0,85.9L124.4,86.4L123.9,85.7L123.0,85.8L121.8,85.6L121.6,83.7L120.9,83.3L120.2,82.1L120.0,80.9L120.2,79.6L121.0,78.7Z M115.6,89.7L114.1,89.7L112.9,88.6L111.1,87.4L110.5,86.6L109.4,85.4L108.8,84.4L107.7,82.4L106.5,81.2L106.0,80.0L105.5,79.0L104.3,78.1L103.5,76.9L102.5,76.1L101.0,74.5L100.9,73.8L101.8,73.9L104.0,74.2L105.2,75.5L106.3,76.5L107.1,77.1L108.4,78.6L109.8,78.6L111.0,79.5L111.8,80.7L112.9,81.4L112.3,82.5L113.1,83.0L113.8,84.0L114.3,84.8L115.4,84.9L116.0,85.8L115.7,87.5L115.6,89.7Z M97.2,50.7L96.5,48.4L95.9,49.3L95.1,48.6L95.6,47.8L96.8,46.6L96.0,46.3L94.7,46.3L93.4,46.1L93.3,45.2L91.5,44.5L91.0,45.4L92.0,46.2L91.1,46.7L91.7,47.6L91.4,48.4L91.9,49.5L92.1,50.6L91.0,51.1L89.3,51.4L89.3,52.5L88.6,53.3L86.6,54.2L85.0,55.9L84.0,56.8L82.6,57.7L81.9,58.7L80.6,59.2L79.5,60.3L79.8,62.1L79.9,63.3L79.3,64.6L79.3,67.0L78.6,67.1L77.9,68.1L77.1,69.0L76.6,70.0L74.7,69.0L74.1,67.1L73.6,65.7L73.1,65.0L72.3,63.7L72.0,61.9L71.7,61.0L70.5,59.1L69.9,56.4L69.5,54.6L69.5,52.9L69.2,51.6L67.2,52.5L66.2,52.3L64.3,50.6L65.0,50.1L63.0,48.3L63.9,47.4L67.0,47.4L66.7,46.2L65.9,45.5L65.7,44.4L64.8,43.8L66.4,42.3L68.0,42.4L69.5,41.0L70.3,39.6L71.7,38.2L71.7,37.2L72.9,36.3L71.7,35.7L71.3,34.7L70.8,33.5L71.4,32.9L73.6,33.2L75.1,33.0L76.5,31.8L78.0,33.5L77.8,34.6L78.4,35.3L78.4,36.0L77.3,35.9L77.7,37.4L79.1,38.3L81.1,39.3L80.2,39.9L79.6,41.2L81.0,41.7L82.3,42.4L84.1,43.2L86.0,43.4L86.9,44.1L87.9,44.2L89.6,44.6L90.8,44.5L90.8,43.1L91.7,42.2L91.8,43.3L93.1,44.1L94.0,43.9L95.2,44.0L96.3,43.9L96.4,43.1L95.9,42.6L97.0,42.5L98.3,41.4L99.9,40.5L101.1,40.9L102.1,40.3L102.7,41.2L102.2,41.7L103.8,42.0L103.4,42.7L103.5,43.6L102.5,43.4L100.7,44.3L100.7,45.1L99.9,46.3L99.2,48.1L98.2,47.8L98.1,49.3L97.9,50.3L97.2,50.7Z M53.2,31.6L52.6,33.4L52.3,34.4L52.3,35.4L52.7,36.5L52.8,37.4L53.9,37.6L54.0,38.5L52.7,39.8L53.4,40.5L54.0,41.3L55.3,42.0L55.4,43.2L56.0,43.4L54.1,44.8L53.6,46.4L51.0,46.0L49.5,45.7L47.9,45.5L47.3,43.8L46.6,43.5L45.5,43.8L44.1,44.4L42.4,44.0L41.0,42.9L39.7,42.5L38.7,41.2L37.7,39.3L36.9,39.5L36.0,39.1L35.5,39.6L34.7,38.9L34.7,38.1L34.5,37.1L33.8,36.1L32.1,35.3L31.1,34.0L31.4,32.9L32.1,32.4L32.0,31.6L31.1,31.2L30.2,29.5L29.4,28.4L29.3,26.3L30.2,25.9L31.2,27.1L32.1,27.3L34.3,26.2L35.2,26.5L34.7,27.2L35.6,27.9L36.4,28.9L37.7,29.2L38.7,29.9L40.7,30.1L42.9,29.8L44.2,29.2L45.2,28.4L46.2,28.4L47.8,28.3L49.3,29.0L50.4,29.1L52.0,30.4L53.1,30.4L53.2,31.6Z M30.2,29.5L31.1,31.2L32.0,31.6L32.1,32.4L31.4,32.9L31.1,34.0L32.1,35.3L33.8,36.1L34.5,37.1L34.3,38.1L34.7,38.9L35.5,39.6L34.7,39.6L33.7,39.4L32.7,40.8L30.1,40.7L26.2,37.9L24.1,36.9L22.4,36.5L21.8,34.8L24.9,33.3L25.5,31.6L25.3,30.6L26.1,30.3L26.8,29.4L29.0,29.4L30.2,29.5Z M16.3,39.9L15.5,37.8L16.2,36.6L16.5,35.6L17.2,35.2L17.3,36.2L16.5,36.9L16.4,37.6L17.1,38.0L16.4,40.2L16.3,39.9Z M21.8,34.8L22.4,36.5L19.3,37.4L20.7,38.8L20.0,39.5L19.0,39.7L18.0,40.6L16.5,40.4L17.1,38.0L17.3,37.0L17.3,36.2L19.1,36.3L21.8,34.8Z M156.0,33.7L155.4,35.0L154.8,34.6L154.1,34.9L153.7,35.7L152.8,35.3L153.6,33.8L154.4,34.0L154.9,33.4L156.0,33.7Z M164.8,29.5L164.3,30.6L164.5,31.3L163.8,32.3L162.0,33.0L159.6,33.1L157.6,34.7L156.6,34.1L156.6,33.1L154.1,33.4L152.5,34.1L150.9,34.1L152.3,35.1L151.3,37.5L150.4,38.1L149.8,37.5L150.1,36.3L149.2,35.9L148.6,34.9L150.0,34.5L150.7,33.6L152.1,32.9L153.1,31.9L155.9,31.5L157.4,31.8L158.9,29.3L159.8,30.0L161.9,28.6L162.7,28.0L163.5,26.3L163.3,24.7L163.9,23.9L165.4,23.6L166.1,25.5L166.1,26.7L164.8,28.1L164.8,29.5Z M168.9,19.7L169.9,20.0L170.9,19.4L171.2,21.0L169.1,21.3L167.9,22.7L165.7,21.8L165.0,23.3L163.4,23.3L163.2,21.9L163.9,20.9L165.4,20.8L165.8,18.9L166.2,17.8L167.9,19.2L168.9,19.7Z M89.8,12.6L88.7,13.6L87.6,13.7L87.5,15.1L86.7,15.7L84.0,15.3L82.9,17.8L82.2,18.1L79.5,18.6L80.7,21.1L79.8,21.4L79.9,22.2L79.0,22.0L78.3,21.5L76.2,21.4L73.9,21.3L71.4,20.9L70.6,21.2L70.4,22.0L68.1,21.5L67.2,21.7L66.1,22.6L64.2,23.6L63.6,24.6L62.7,23.9L60.9,23.9L60.6,22.7L60.1,21.3L58.4,20.3L56.0,20.4L54.3,20.6L53.0,19.4L51.9,18.8L49.7,17.8L45.8,18.5L45.9,23.7L45.2,23.8L44.2,22.7L43.2,22.3L41.6,22.6L41.0,23.0L41.3,22.1L39.4,21.1L38.8,19.9L38.0,19.5L39.3,19.2L39.4,18.2L40.6,18.0L41.8,18.2L42.0,16.8L41.8,15.9L40.4,16.0L39.2,15.7L37.6,16.3L36.3,16.6L35.6,16.3L35.7,15.6L34.8,14.7L33.8,14.7L32.6,13.8L33.4,12.7L34.1,10.9L35.5,11.7L35.7,10.7L38.6,9.2L40.8,9.1L43.9,10.1L45.5,10.7L47.0,10.1L49.2,10.0L51.0,10.8L53.4,10.4L53.7,9.8L51.5,8.8L52.8,8.1L53.9,7.4L52.9,6.4L53.5,5.9L58.8,5.4L59.4,5.1L62.9,4.6L64.2,4.0L66.7,4.3L67.2,5.8L68.6,5.4L70.4,5.9L70.3,6.7L71.6,6.6L75.2,5.3L76.4,6.8L79.6,10.3L80.3,9.6L82.2,10.4L84.2,10.0L85.0,10.3L85.7,11.1L86.7,11.4L87.3,12.0L89.1,11.8L89.8,12.6Z M79.9,22.2L77.5,23.3L77.0,23.9L75.2,24.0L74.6,24.9L73.2,24.7L72.2,25.0L70.9,25.7L68.0,26.5L66.3,26.1L64.8,26.2L64.9,25.4L66.4,25.6L68.0,25.3L69.8,24.3L68.1,23.6L67.1,23.9L66.1,23.4L67.3,22.5L67.2,21.7L68.1,21.5L70.4,22.0L70.6,21.2L71.4,20.9L73.4,21.5L76.2,21.4L78.3,21.5L79.0,22.0L79.9,22.2Z M111.1,64.4L110.8,62.8L111.7,61.6L113.5,61.3L114.8,61.5L115.9,62.1L116.6,61.1L117.8,61.6L118.1,62.6L118.0,64.2L115.6,65.3L116.2,66.2L114.8,66.3L113.6,66.8L112.4,66.6L111.8,65.9L111.1,64.4Z M147.2,27.5L148.4,29.1L148.7,30.0L148.7,31.6L148.2,32.4L146.9,32.7L145.8,33.3L144.6,33.4L144.4,32.6L144.7,31.6L144.0,30.1L145.1,29.9L144.1,28.7L144.8,28.6L145.4,28.0L146.4,27.9L147.2,27.5Z M32.7,40.8L33.7,39.4L34.7,39.6L34.9,40.5L35.3,41.5L34.3,41.6L34.0,40.9L32.7,40.8Z M109.1,51.5L110.0,51.9L109.8,50.3L110.5,50.1L111.3,51.2L112.0,52.4L113.7,52.5L114.2,53.7L113.3,54.0L114.6,55.4L115.8,57.0L116.7,58.3L117.7,59.2L118.1,60.2L117.8,61.6L116.6,61.1L115.9,62.1L114.8,61.5L115.2,60.9L115.3,59.7L114.2,58.5L114.1,57.1L113.0,56.0L112.0,55.9L110.9,56.4L109.0,57.0L108.9,55.7L109.3,54.3L108.3,54.2L108.3,53.4L107.7,52.9L109.1,51.5Z M17.7,34.9L16.7,35.2L17.2,34.1L17.9,33.1L18.8,33.6L18.0,34.2L17.7,34.9Z M82.0,71.0L81.8,72.4L81.2,72.8L80.0,73.2L79.3,72.0L79.1,70.0L79.7,67.8L80.7,68.5L81.3,69.5L82.0,71.0Z M96.8,52.6L96.7,51.5L97.2,50.7L97.9,50.3L98.1,49.3L98.2,47.8L99.2,48.1L99.9,47.0L100.7,45.1L100.7,44.3L102.5,43.4L103.5,43.6L103.4,42.7L103.8,42.0L104.6,41.9L105.0,42.7L105.7,44.1L105.6,45.2L104.3,46.4L104.1,48.1L105.6,47.8L105.9,49.1L106.8,49.4L106.4,50.6L107.5,51.1L109.1,50.9L108.0,52.4L106.9,53.3L106.0,53.9L105.0,53.9L104.4,55.4L104.5,56.9L105.4,57.9L106.0,58.9L105.4,60.1L105.3,61.0L106.2,62.2L106.4,62.9L106.9,64.9L106.1,66.2L105.5,67.6L105.3,66.6L105.8,65.5L105.3,64.7L105.4,63.1L104.8,62.4L104.4,60.7L104.1,59.0L103.5,57.8L102.6,58.5L101.0,59.5L100.2,59.4L99.4,59.1L99.8,57.3L99.5,56.0L98.5,54.4L97.8,53.7L96.8,52.6Z M130.8,11.7L130.1,12.7L129.2,14.1L130.3,14.5L131.7,14.8L132.8,14.2L133.9,14.7L135.2,15.7L133.9,16.0L131.9,16.2L130.9,16.6L129.9,17.5L127.7,18.1L126.3,18.8L124.9,18.5L124.1,18.4L123.4,19.3L124.0,20.3L123.1,20.8L122.1,21.5L120.4,22.0L118.3,22.1L116.1,22.5L114.4,23.3L113.8,22.9L112.1,22.9L110.1,22.0L108.7,21.8L106.8,22.0L103.9,21.7L102.4,21.7L101.6,20.9L100.9,19.6L100.1,19.4L98.4,18.6L96.5,18.4L94.8,18.1L94.3,17.5L94.9,15.9L93.9,14.8L91.9,14.2L90.7,13.5L90.4,12.5L91.8,12.3L94.5,11.1L96.6,10.4L97.8,10.8L99.3,10.9L100.2,11.5L101.6,11.6L103.7,11.9L105.0,10.9L104.4,10.1L105.9,8.7L107.5,9.2L108.7,9.4L110.4,9.8L110.6,10.8L112.6,11.4L114.0,11.2L115.7,11.0L117.1,11.2L118.5,11.8L119.4,12.5L120.6,12.5L122.4,12.8L123.7,12.4L125.5,12.2L127.6,11.2L128.4,11.3L129.2,11.8L130.8,11.7Z M127.4,75.2L128.0,75.9L129.0,75.5L129.0,74.6L130.2,72.9L130.9,71.8L132.2,72.5L133.2,73.5L134.3,73.9L133.3,74.6L133.5,75.2L132.5,75.7L131.3,75.5L129.7,75.5L129.2,77.1L128.7,77.6L128.0,79.5L126.8,79.8L125.5,79.4L124.0,80.2L123.1,80.1L122.2,80.4L121.2,79.6L121.0,78.7L122.0,79.2L123.1,78.9L123.4,77.7L125.7,77.2L126.7,76.1L127.4,75.2Z M110.5,72.8L111.6,73.8L112.2,74.7L112.3,75.7L112.3,76.8L112.4,77.6L113.4,79.2L112.4,79.8L111.1,78.8L109.4,77.6L109.3,76.9L108.5,76.0L108.3,74.8L107.8,74.1L107.9,73.1L107.9,72.2L109.0,72.8L109.1,73.5L110.0,73.4L110.5,72.8Z M81.1,39.3L82.8,39.4L84.2,40.3L85.0,40.5L85.4,41.1L86.5,41.4L87.7,42.0L89.2,42.4L90.9,42.5L90.9,44.0L89.6,44.6L87.9,44.2L86.9,44.1L86.0,43.4L84.1,43.2L82.3,42.4L81.0,41.7L79.6,41.2L80.2,39.9L81.1,39.3Z M46.3,45.5L46.4,44.6L46.5,45.3L46.3,45.5Z M44.8,49.7L45.3,48.6L45.9,47.7L45.8,46.6L46.5,46.6L47.1,47.6L47.9,48.1L48.9,48.3L49.7,48.5L50.4,49.3L51.2,50.0L50.7,51.1L49.9,52.0L49.4,52.9L48.5,53.2L48.3,53.9L48.4,54.8L47.6,55.0L46.8,55.5L46.3,56.5L45.4,56.5L44.9,57.4L44.2,57.8L43.5,57.7L42.5,58.1L41.4,57.2L40.3,54.9L44.5,53.5L45.5,50.7L44.8,49.7Z M52.7,39.8L55.1,40.5L56.5,40.3L57.3,40.4L58.6,40.3L60.4,39.7L60.4,38.5L61.2,37.7L62.3,37.7L63.5,37.1L64.6,36.9L64.5,36.0L65.1,35.2L66.0,34.8L65.4,33.9L66.7,33.9L67.1,32.9L67.8,32.3L67.6,31.6L68.1,30.4L69.6,30.1L71.2,30.0L71.9,29.7L72.7,29.5L73.8,30.2L74.2,31.3L76.5,31.8L75.1,33.0L73.6,33.2L71.4,32.9L70.8,33.5L71.3,34.7L71.7,35.7L72.9,36.3L71.7,37.2L71.7,38.2L70.3,39.6L69.5,41.0L68.0,42.4L66.4,42.3L64.8,43.8L65.7,44.4L65.9,45.5L66.7,46.2L67.0,47.4L63.9,47.4L63.0,48.3L61.9,48.0L61.5,47.0L60.4,45.9L57.9,46.2L55.6,46.2L53.6,46.4L54.1,44.8L56.2,44.1L55.4,43.2L55.3,42.0L54.0,41.3L53.4,40.5L52.7,39.8Z M144.4,69.7L144.5,70.7L144.6,71.4L144.1,72.7L143.6,71.3L143.0,72.0L143.4,73.0L143.0,73.7L141.4,72.9L141.0,71.9L141.4,71.2L140.5,70.5L140.1,71.1L138.4,71.8L138.7,70.3L139.6,69.9L140.4,69.3L140.9,70.0L141.9,69.6L143.1,68.9L143.1,67.8L144.2,68.5L144.3,69.2L144.4,69.7Z M141.1,67.1L140.1,68.5L138.8,67.9L139.4,67.1L139.6,66.3L140.4,66.2L140.1,67.1L141.2,65.8L141.1,67.1Z M133.4,68.5L131.5,69.8L132.2,68.8L133.2,68.0L134.1,67.0L134.8,65.6L135.0,66.7L134.1,67.5L133.4,68.5Z M138.1,64.9L139.0,65.3L139.8,65.3L139.2,66.5L138.3,66.9L138.3,65.5L138.1,64.9Z M143.2,64.5L143.6,66.0L142.5,65.7L142.9,67.0L142.2,67.3L142.1,66.3L141.5,65.4L142.3,65.5L141.4,63.9L142.8,64.0L143.2,64.5Z M137.6,63.2L137.2,64.4L136.6,63.7L135.9,62.7L137.1,62.7L137.6,63.2Z M137.3,55.6L138.2,56.0L139.0,57.6L138.6,58.7L137.8,59.2L137.6,60.3L137.9,61.5L138.6,61.6L141.0,62.2L140.9,63.0L141.2,64.0L140.1,63.3L139.6,62.5L138.3,62.2L137.1,62.4L136.4,62.1L136.9,61.2L135.6,60.6L135.3,58.6L135.9,59.1L136.0,56.9L136.5,55.6L137.3,55.6Z M141.4,25.6L142.6,24.7L144.1,24.0L145.1,23.0L145.8,23.4L147.0,23.5L146.7,22.7L148.9,22.1L149.5,21.4L150.4,22.2L149.4,22.8L149.1,24.3L148.3,24.6L147.6,25.3L146.6,25.5L146.0,25.9L145.8,26.6L147.2,27.5L146.4,27.9L145.4,28.0L144.8,28.6L144.1,28.7L143.4,28.4L142.4,28.4L142.5,27.6L143.0,26.4L142.1,26.0L141.4,25.6Z M150.6,22.4L150.6,22.4Z M17.1,37.4L16.5,36.9L16.8,36.0L17.3,37.0L17.1,37.4Z M38.7,46.9L38.6,45.8L38.9,45.1L39.7,45.4L39.8,46.2L39.5,47.0L38.7,46.9Z M39.7,47.6L40.3,49.3L44.5,50.0L45.5,50.7L44.5,53.5L40.3,54.9L36.3,55.5L35.0,56.1L34.0,57.6L33.0,57.3L31.1,57.2L29.2,57.1L28.3,56.9L27.9,57.6L27.4,58.6L26.8,57.6L26.0,56.5L25.2,55.4L24.8,54.2L23.9,53.3L22.3,51.7L22.2,50.7L22.2,49.9L21.4,48.4L20.8,47.8L20.0,47.5L19.5,46.7L19.2,45.7L18.3,44.3L17.4,43.2L16.7,42.2L16.2,41.5L16.5,40.4L18.0,40.6L18.6,40.2L20.0,39.5L20.7,38.8L19.3,37.4L22.1,36.7L24.1,36.9L26.2,37.9L30.1,40.7L32.7,40.8L34.0,40.9L34.3,41.6L35.3,41.5L35.9,42.8L36.5,43.1L37.7,44.2L37.7,45.2L38.3,46.1L38.7,46.9L39.5,47.0L39.7,47.6Z M26.8,29.4L26.1,30.3L25.3,30.6L25.5,31.6L24.9,33.3L21.8,34.8L19.1,36.3L17.5,35.7L17.7,34.9L18.0,34.2L18.8,33.6L17.9,33.0L17.8,32.0L18.5,31.1L19.0,30.0L21.0,29.9L21.7,30.1L22.9,30.1L24.5,29.6L25.2,29.6L26.8,29.4Z M114.8,61.5L113.5,61.3L111.7,61.6L110.8,62.8L111.1,64.4L109.9,63.8L108.7,63.8L108.9,62.7L107.6,62.7L107.5,64.3L106.8,66.3L106.3,67.6L106.4,68.6L107.3,68.6L107.9,69.9L108.1,71.1L108.9,71.9L109.8,72.1L110.5,72.8L110.0,73.4L109.1,73.5L109.0,72.8L107.9,72.2L107.1,71.9L106.8,71.2L106.1,70.4L105.4,69.8L105.2,70.6L104.9,69.8L105.1,68.9L105.5,67.6L106.1,66.2L106.9,64.9L106.4,63.6L106.2,62.2L105.3,61.0L105.0,60.3L106.0,58.9L105.4,57.9L104.5,56.9L103.8,55.7L105.0,53.9L106.0,53.9L106.9,53.3L107.7,52.9L108.3,53.4L108.3,54.2L109.3,54.3L108.9,55.7L109.0,57.0L110.4,56.2L111.7,56.4L113.0,56.0L114.1,57.1L114.2,58.5L115.3,59.7L115.2,60.9L114.8,61.5Z M72.5,29.1L71.0,29.1L70.1,29.0L69.2,29.7L68.1,30.1L67.5,29.6L67.7,28.5L66.6,27.6L66.0,28.1L65.7,28.9L64.8,28.9L64.4,29.5L62.9,29.7L63.3,28.1L63.0,27.1L61.9,26.7L62.3,26.1L63.5,26.2L64.1,25.4L64.6,24.5L66.4,24.2L66.2,24.8L66.9,25.2L64.9,25.4L64.8,26.2L66.3,26.1L68.0,26.5L70.7,26.3L71.0,27.6L72.3,27.8L72.5,29.1Z M60.6,29.2L59.6,28.8L58.2,29.6L57.9,30.7L57.1,31.1L56.0,31.3L54.6,32.1L53.2,31.6L53.1,30.4L52.0,30.4L50.4,29.1L49.3,29.0L47.8,28.3L46.8,28.2L45.2,28.4L44.2,29.2L43.0,29.4L42.8,28.5L43.0,27.0L41.9,26.5L42.2,25.6L41.3,25.5L41.6,24.3L42.9,24.6L44.2,24.2L43.1,23.4L42.7,22.6L41.6,22.9L41.5,23.9L41.0,23.0L41.6,22.6L43.2,22.3L44.2,22.7L45.2,23.8L45.9,23.7L47.5,23.7L47.2,23.0L48.4,22.5L49.6,21.7L51.5,22.4L51.6,23.5L53.7,23.8L54.8,25.5L56.4,26.4L57.4,27.1L58.8,27.8L60.7,28.4L60.6,29.2Z M142.6,94.6L142.4,93.9L143.8,93.3L144.8,93.3L145.7,93.3L143.8,94.2L142.6,94.6Z M28.5,24.0L28.6,25.2L29.7,25.5L29.3,26.3L29.7,27.9L30.2,29.5L29.5,29.7L27.4,29.2L25.2,29.6L24.5,29.6L22.9,30.1L21.7,30.1L21.0,29.9L19.4,30.3L18.9,30.8L18.1,31.4L17.6,30.7L18.2,30.2L17.3,30.3L16.1,30.0L15.2,30.8L13.0,31.0L11.9,30.2L10.4,30.2L9.1,30.9L7.8,30.2L6.2,30.2L5.4,28.8L4.4,28.0L5.1,26.9L4.2,26.3L5.7,24.9L7.9,24.9L8.5,23.8L11.1,24.0L12.8,23.1L14.5,22.7L16.8,22.7L19.2,23.7L21.2,24.2L22.8,24.0L24.1,24.1L25.7,23.4L27.2,23.3L28.5,24.0Z M4.1,23.0L5.5,22.5L6.7,22.7L8.1,23.7L6.2,24.1L5.6,24.6L4.4,25.3L4.0,24.7L4.8,23.3L4.1,23.0Z M138.0,47.4L137.1,49.6L136.5,50.8L135.8,49.6L135.6,48.5L136.4,47.2L137.6,46.1L138.2,46.5L138.0,47.4Z M62.5,29.5L61.4,29.2L60.6,29.2L60.7,28.4L58.8,27.8L57.4,27.1L56.4,26.4L54.8,25.5L54.2,24.0L52.2,23.8L51.5,22.4L49.6,21.7L48.4,22.5L47.2,23.0L47.5,23.7L45.9,23.7L45.8,18.5L49.4,17.7L51.9,18.8L53.0,19.4L54.3,20.6L56.0,20.4L58.4,20.3L60.1,21.3L59.9,22.7L60.9,23.9L62.7,23.9L63.1,24.6L64.2,23.6L66.1,22.6L66.9,22.4L66.1,23.4L67.1,23.9L68.1,23.6L69.8,24.3L68.0,25.3L66.9,25.2L66.2,24.8L66.4,24.2L64.6,24.5L64.1,25.4L63.5,26.2L62.3,26.1L61.9,26.7L63.0,27.1L63.3,28.1L62.5,29.5Z M110.5,50.1L111.3,49.7L112.4,49.7L113.8,49.6L114.9,48.8L115.6,49.4L116.9,49.6L116.7,50.4L117.3,51.0L118.8,51.3L116.9,52.5L115.7,53.9L115.4,54.8L116.5,56.3L117.8,58.1L119.1,59.0L119.9,60.1L120.6,62.7L120.4,65.2L119.2,66.1L117.6,67.0L116.5,68.2L114.7,69.5L114.2,68.6L114.6,67.6L113.6,66.8L114.8,66.3L116.2,66.2L115.6,65.3L118.0,64.2L118.1,62.6L117.8,61.6L118.1,60.2L117.7,59.2L116.7,58.3L115.8,57.0L114.6,55.4L112.9,54.5L114.2,53.7L113.7,52.5L112.0,52.4L111.3,51.2L110.5,50.1Z M40.3,54.9L41.4,57.2L41.9,58.2L40.9,58.6L40.6,59.7L39.2,60.3L36.9,60.9L35.7,61.9L34.6,61.9L33.8,62.5L32.9,62.8L31.8,62.8L31.1,63.3L30.5,63.7L29.4,63.9L28.4,63.8L28.0,63.0L28.1,62.2L27.6,60.8L27.2,60.2L27.3,59.5L27.4,58.6L28.0,58.2L28.3,56.9L29.2,57.1L30.8,57.1L32.4,57.4L33.3,57.8L35.0,56.1L36.3,55.5L40.3,54.9Z" fill="#a8b3cf" stroke="none"/></svg>
