<!-- Generated by scripts/deskpet-originals/build-originals.mjs -->
<svg xmlns="http://www.w3.org/2000/svg" width="240" height="240" viewBox="0 0 240 240" role="img" aria-labelledby="title desc" data-character="fox" data-scene="wind" data-duration="4.1">
<title id="title">狐狸 起风了 / Fox A gust of wind</title><desc id="desc">被风吹得歪一下，稳住后抖掉一片叶子。 Leans into the wind, then shakes off a leaf.</desc>
<style>.op14s37-1{transform-origin:146px 163px;animation:op14s37-1 4.1s cubic-bezier(.4,0,.25,1) infinite}@keyframes op14s37-1{0%{transform:translate(0px,0px) rotate(0deg) scale(1,1);}24%{transform:translate(0px,0px) rotate(-18deg) scale(1,1);}49%{transform:translate(0px,0px) rotate(-18deg) scale(1,1);}71%{transform:translate(0px,0px) rotate(6deg) scale(1,1);}100%{transform:translate(0px,0px) rotate(0deg) scale(1,1);}}
.op14s37-2{transform-origin:140px 166px;animation:op14s37-2 4.1s cubic-bezier(.4,0,.25,1) infinite}@keyframes op14s37-2{0%{transform:translate(0px,0px) rotate(0deg) scale(1,1);}100%{transform:translate(0px,0px) rotate(0deg) scale(1,1);}}
.op14s37-3{transform-origin:103px 165px;animation:op14s37-3 4.1s cubic-bezier(.4,0,.25,1) infinite}@keyframes op14s37-3{0%{transform:translate(0px,0px) rotate(0deg) scale(1,1);}100%{transform:translate(0px,0px) rotate(0deg) scale(1,1);}}
.op14s37-4{transform-origin:106px 149px;animation:op14s37-4 4.1s cubic-bezier(.4,0,.25,1) infinite}@keyframes op14s37-4{0%{transform:translate(0px,0px) rotate(0deg) scale(1,1);}100%{transform:translate(0px,0px) rotate(0deg) scale(1,1);}}
.op14s37-5{transform-origin:134px 149px;animation:op14s37-5 4.1s cubic-bezier(.4,0,.25,1) infinite}@keyframes op14s37-5{0%{transform:translate(0px,0px) rotate(0deg) scale(1,1);}100%{transform:translate(0px,0px) rotate(0deg) scale(1,1);}}
.op14s37-6{transform-origin:80px 95px;animation:op14s37-6 4.1s cubic-bezier(.4,0,.25,1) infinite}@keyframes op14s37-6{0%{transform:translate(0px,0px) rotate(0deg) scale(1,1);}22%{transform:translate(0px,0px) rotate(-15deg) scale(1,1);}49%{transform:translate(0px,0px) rotate(-15deg) scale(1,1);}73%{transform:translate(0px,0px) rotate(0deg) scale(1,1);}100%{transform:translate(0px,0px) rotate(0deg) scale(1,1);}}
.op14s37-7{transform-origin:138px 94px;animation:op14s37-7 4.1s cubic-bezier(.4,0,.25,1) infinite}@keyframes op14s37-7{0%{transform:translate(0px,0px) rotate(0deg) scale(1,1);}22%{transform:translate(0px,0px) rotate(-15deg) scale(1,1);}49%{transform:translate(0px,0px) rotate(-15deg) scale(1,1);}73%{transform:translate(0px,0px) rotate(0deg) scale(1,1);}100%{transform:translate(0px,0px) rotate(0deg) scale(1,1);}}
.op14s37-8{transform-origin:115px 112px;animation:op14s37-8 4.1s cubic-bezier(.4,0,.25,1) infinite}@keyframes op14s37-8{0%{transform:translate(0px,0px) rotate(0deg) scale(1,1);}38%{transform:translate(1px,0px) rotate(0deg) scale(1,1);}60%{transform:translate(-1px,0px) rotate(0deg) scale(1,1);}82%{transform:translate(0px,0px) rotate(0deg) scale(1,1);}100%{transform:translate(0px,0px) rotate(0deg) scale(1,1);}}
.op14s37-9{transform-origin:115px 112px;animation:op14s37-9 4.1s cubic-bezier(.4,0,.25,1) infinite}@keyframes op14s37-9{0%{transform:translate(0px,0px) rotate(0deg) scale(1,1);}18%{transform:translate(0px,0px) rotate(0deg) scale(1,1);}20%{transform:translate(0px,0px) rotate(0deg) scale(1,0.08);}23%{transform:translate(0px,0px) rotate(0deg) scale(1,1);}76%{transform:translate(0px,0px) rotate(0deg) scale(1,1);}78%{transform:translate(0px,0px) rotate(0deg) scale(1,0.08);}81%{transform:translate(0px,0px) rotate(0deg) scale(1,1);}100%{transform:translate(0px,0px) rotate(0deg) scale(1,1);}}
.op14s37-10{transform-origin:115px 123px;animation:op14s37-10 4.1s cubic-bezier(.4,0,.25,1) infinite}@keyframes op14s37-10{0%{transform:translate(0px,0px) rotate(0deg) scale(1,1);}100%{transform:translate(0px,0px) rotate(0deg) scale(1,1);}}
.op14s37-11{transform-origin:117px 138px;animation:op14s37-11 4.1s cubic-bezier(.4,0,.25,1) infinite}@keyframes op14s37-11{0%{transform:translate(0px,0px) rotate(0deg) scale(1,1);}42%{transform:translate(0px,0px) rotate(1deg) scale(1,1);}72%{transform:translate(0px,0px) rotate(-1deg) scale(1,1);}100%{transform:translate(0px,0px) rotate(0deg) scale(1,1);}}
.op14s37-12{transform-origin:121px 160px;animation:op14s37-12 4.1s cubic-bezier(.4,0,.25,1) infinite}@keyframes op14s37-12{0%{transform:translate(0px,0px) rotate(0deg) scale(1,1);}22%{transform:translate(-3px,0px) rotate(-7deg) scale(1,1);}44%{transform:translate(-4px,0px) rotate(-9deg) scale(1,1);}59%{transform:translate(-2px,0px) rotate(-5deg) scale(1,1);}73%{transform:translate(0px,0px) rotate(3deg) scale(1,1);}81%{transform:translate(0px,0px) rotate(-2deg) scale(1,1);}100%{transform:translate(0px,0px) rotate(0deg) scale(1,1);}}
.op14s37-13{transform-origin:0px 0px;animation:op14s37-13 4.1s ease-in-out infinite}@keyframes op14s37-13{0%{transform:translate(0px,0px) rotate(0deg) scale(1,1);}22%{transform:translate(4px,2px) rotate(-12deg) scale(1,1);}40%{transform:translate(-25px,5px) rotate(60deg) scale(1,1);}63%{transform:translate(-70px,16px) rotate(120deg) scale(1,1);}78%{transform:translate(-135px,24px) rotate(230deg) scale(1,1);}100%{transform:translate(0px,0px) rotate(0deg) scale(1,1);}}
.op14s37-14{transform-origin:0px 0px;animation:op14s37-14 4.1s ease-in-out infinite}@keyframes op14s37-14{0%{opacity:0;}16%{opacity:0;}17%{opacity:1;}79%{opacity:1;}80%{opacity:0;}100%{opacity:0;}}
.op14s37-15{transform-origin:0px 0px;animation:op14s37-15 4.1s ease-in-out infinite}@keyframes op14s37-15{0%{opacity:0;}23%{opacity:0;}24%{opacity:1;}60%{opacity:1;}61%{opacity:0;}100%{opacity:0;}}
@media(prefers-reduced-motion:reduce){g{animation-play-state:paused!important;animation-delay:-2.296s!important}}
</style><ellipse cx="120" cy="198" rx="66" ry="6" fill="#263444" opacity=".12"/>
<g data-joint="body"><g class="op14s37-12"><g data-joint="tail"><g class="op14s37-1"><path d="M140 166C184 180 213 143 189 108C186 124 170 121 162 131L164 138L157 136L151 147L156 149L145 154L147 159Z" fill="#FFF0D2" stroke="#68503E" stroke-width="1.8" stroke-linecap="round" stroke-linejoin="round"/><path d="M189 108Q189 122 175 127L174 134L167 134L174 142L184 139L183 149Q201 139 189 108Z" fill="#E56D3E" stroke="none" stroke-width="1.8" stroke-linecap="round" stroke-linejoin="round"/></g></g><g data-joint="footRight"><g class="op14s37-2"><path d="M135 160Q155 159 157 180Q157 187 151 189Q148 196 133 193Q126 188 139 185Q130 174 135 160Z" fill="#FFF0D2" stroke="#68503E" stroke-width="1.8" stroke-linecap="round" stroke-linejoin="round"/><path d="M142 190v3m6-4v3" fill="none" stroke="#68503E" stroke-width="1.2" stroke-linecap="round" stroke-linejoin="round"/></g></g><g data-joint="footLeft"><g class="op14s37-3"><path d="M101 161Q87 168 93 185Q82 188 88 192Q100 196 107 188L111 169Z" fill="#FFF0D2" stroke="#68503E" stroke-width="1.8" stroke-linecap="round" stroke-linejoin="round"/></g></g><path d="M100 134Q122 126 140 143Q156 155 148 179Q135 190 108 180Q96 173 94 159Z" fill="#FFF0D2" stroke="#68503E" stroke-width="1.8" stroke-linecap="round" stroke-linejoin="round"/><path d="M101 140L109 157L115 151L118 163L125 155L130 158L135 140Z" fill="#F8DDBC" stroke="none" stroke-width="1.8" stroke-linecap="round" stroke-linejoin="round"/><g data-joint="left"><g class="op14s37-4"><path d="M102 146Q99 159 102 181Q95 190 103 193Q112 195 115 190L114 152" fill="#FFF0D2" stroke="#68503E" stroke-width="1.8" stroke-linecap="round" stroke-linejoin="round"/><path d="M104 189v4m5-4v4" fill="none" stroke="#68503E" stroke-width="1.2" stroke-linecap="round" stroke-linejoin="round"/></g></g><g data-joint="right"><g class="op14s37-5"><path d="M129 146Q135 159 130 184Q124 191 131 194Q140 194 142 189L140 154" fill="#FFF0D2" stroke="#68503E" stroke-width="1.8" stroke-linecap="round" stroke-linejoin="round"/><path d="M131 190v3m5-4v4" fill="none" stroke="#68503E" stroke-width="1.2" stroke-linecap="round" stroke-linejoin="round"/></g></g><g data-joint="head"><g class="op14s37-11"><g data-joint="earLeft"><g class="op14s37-6"><path d="M75 107Q58 85 61 55Q87 61 100 88Z" fill="#FFF0D2" stroke="#68503E" stroke-width="1.8" stroke-linecap="round" stroke-linejoin="round"/><path d="M64 61L69 86L85 77Z" fill="#E56D3E" stroke="none" stroke-width="1.8" stroke-linecap="round" stroke-linejoin="round"/></g></g><g data-joint="earRight"><g class="op14s37-7"><path d="M119 88Q127 57 153 44Q161 80 146 104Z" fill="#FFF0D2" stroke="#68503E" stroke-width="1.8" stroke-linecap="round" stroke-linejoin="round"/><path d="M150 50L134 71L155 73Z" fill="#E56D3E" stroke="none" stroke-width="1.8" stroke-linecap="round" stroke-linejoin="round"/></g></g><path d="M74 87Q104 77 127 87Q147 84 155 103L165 113L157 116L159 124L150 125L151 132Q114 153 76 132L68 126L75 121L66 115L75 111Q69 100 74 87Z" fill="#FFF0D2" stroke="#68503E" stroke-width="1.8" stroke-linecap="round" stroke-linejoin="round"/><g data-joint="blink"><g class="op14s37-9"><ellipse cx="95" cy="112" rx="7" ry="8.89" fill="#FFF0D2" stroke="none" stroke-width="1.8"/><ellipse cx="135" cy="112" rx="7" ry="8.89" fill="#FFF0D2" stroke="none" stroke-width="1.8"/><g data-joint="gaze"><g class="op14s37-8"><ellipse cx="95" cy="112.7" rx="4.62" ry="6.44" fill="#68503E" stroke="none" stroke-width="1.8"/><ellipse cx="93.81" cy="109.06" rx="1.26" ry="1.68" fill="#FFF0D2" stroke="none" stroke-width="1.8"/><ellipse cx="135" cy="112.7" rx="4.62" ry="6.44" fill="#68503E" stroke="none" stroke-width="1.8"/><ellipse cx="133.81" cy="109.06" rx="1.26" ry="1.68" fill="#FFF0D2" stroke="none" stroke-width="1.8"/></g></g></g></g><g data-joint="mouth"><g class="op14s37-10"><path d="M110 123q5 5 10 0" fill="none" stroke="#68503E" stroke-width="1.7" stroke-linecap="round" stroke-linejoin="round"/></g></g><ellipse cx="115" cy="124" rx="3.5" ry="2.5" fill="#68503E" stroke="none" stroke-width="1.8"/><path d="M115 126v4" fill="none" stroke="#68503E" stroke-width="1.5" stroke-linecap="round" stroke-linejoin="round"/><path d="M91 90l9-6l-1 7l10-7l-2 8" fill="#FFF0D2" stroke="#68503E" stroke-width="1.5" stroke-linecap="round" stroke-linejoin="round"/></g></g></g></g><g class="op14s37-14"><g transform="translate(214 118) scale(1) rotate(0)"><g class="op14s37-13"><path d="M-15 8Q-14-13 15-13 17 11-15 8Z" fill="#6BD5BD"/><path d="M-13 7 10-8" fill="none" stroke="#387C70" stroke-width="1.3" stroke-linecap="round" stroke-linejoin="round"/></g></g></g><g class="op14s37-15"><path d="M194 63q-22-8-47 0M214 85q-18-7-31-1" fill="none" stroke="#fefbfa" stroke-width="1.5" stroke-linecap="round" stroke-linejoin="round"/></g></svg>
