<svg viewBox="0 0 300 150" xmlns="http://www.w3.org/2000/svg" xmlns:xlink="http://www.w3.org/1999/xlink" id="图层_1" overflow="hidden"><defs></defs><path d="M30.53 38.02 105.1 38.02 105.1 112.59 30.53 112.59 30.53 38.02Z" id="_1" stroke="#000000" stroke-width="7.11" stroke-linejoin="round"/><path d="M30.13 37.62 52.61 37.62 52.61 60.1 30.13 60.1 30.13 37.62Z" id="_1-2" fill="#404040"/><path d="M56.58 37.62 79.06 37.62 79.06 60.1 56.58 60.1 56.58 37.62Z" id="_2" fill="#404040"/><path d="M83.02 37.62 105.5 37.62 105.5 60.1 83.02 60.1 83.02 37.62Z" id="_3" fill="#404040"/><path d="M30.13 64.07 52.61 64.07 52.61 86.55 30.13 86.55 30.13 64.07Z" id="_4" fill="#404040"/><path d="M56.58 64.07 79.06 64.07 79.06 86.55 56.58 86.55 56.58 64.07Z" id="_5" fill="#404040"/><path d="M83.02 64.07 105.5 64.07 105.5 86.55 83.02 86.55 83.02 64.07Z" id="_6" fill="#404040"/><path d="M30.13 90.51 52.61 90.51 52.61 112.99 30.13 112.99 30.13 90.51Z" id="_7" fill="#404040"/><path d="M56.58 90.51 79.06 90.51 79.06 112.99 56.58 112.99 56.58 90.51Z" id="_8" fill="#404040"/><path d="M83.02 90.51 105.5 90.51 105.5 112.99 83.02 112.99 83.02 90.51Z" id="_9" fill="#404040"/><path d="M144.3 93.88 167.46 76C167.921 75.6394 168.003 74.9732 167.642 74.512 167.589 74.4442 167.528 74.3831 167.46 74.33L144.3 56.41C143.833 56.0565 143.169 56.1482 142.815 56.6148 142.678 56.7949 142.603 57.014 142.6 57.24L142.6 66.72 118.38 66.72C117.828 66.72 117.38 67.1677 117.38 67.72L117.38 82.52C117.38 83.0723 117.828 83.52 118.38 83.52L142.6 83.52 142.6 93C142.608 93.5854 143.089 94.0532 143.675 94.045 143.901 94.0418 144.12 93.9665 144.3 93.83Z"/><path d="M185.66 38.86 259.94 38.86 259.94 113.13 185.66 113.13 185.66 38.86Z" stroke="#000000" stroke-width="7.11" stroke-linejoin="round"/><path d="M185.27 38.47 207.66 38.47 207.66 60.85 185.27 60.85 185.27 38.47Z" fill="#FEFE00"/><path d="M211.61 38.47 233.99 38.47 233.99 60.85 211.61 60.85 211.61 38.47Z" fill="#FEFE00"/><path d="M237.94 38.47 260.33 38.47 260.33 60.85 237.94 60.85 237.94 38.47Z" fill="#FEFE00"/><path d="M185.27 64.8 207.66 64.8 207.66 87.19 185.27 87.19 185.27 64.8Z" fill="#FEFE00"/><path d="M211.61 64.8 233.99 64.8 233.99 87.19 211.61 87.19 211.61 64.8Z" fill="#FEFE00"/><path d="M237.94 64.8 260.33 64.8 260.33 87.19 237.94 87.19 237.94 64.8Z" fill="#FEFE00"/><path d="M185.27 91.14 207.66 91.14 207.66 113.53 185.27 113.53 185.27 91.14Z" fill="#FEFE00"/><path d="M211.61 91.14 233.99 91.14 233.99 113.53 211.61 113.53 211.61 91.14Z" fill="#FEFE00"/><path d="M237.94 91.14 260.33 91.14 260.33 113.53 237.94 113.53 237.94 91.14Z" fill="#FEFE00"/><path d="M184.11 115.42 208.87 115.42 209.72 127.08 186.67 127.08 184.11 115.42Z" stroke="#000000" stroke-width="1.42" stroke-linejoin="round" fill="#EE0000"/><path d="M236.68 115.42 261.43 115.42 258.87 127.08 235.82 127.08 236.68 115.42Z" stroke="#000000" stroke-width="1.42" stroke-linejoin="round" fill="#FFA100"/><path d="M183.38 37.31 183.38 62.06 171.71 62.92 171.71 39.87 183.38 37.31Z" stroke="#000000" stroke-width="1.42" stroke-linejoin="round" fill="#00D800"/><path d="M183.38 89.87 183.38 114.63 171.71 112.07 171.71 89.02 183.38 89.87Z" stroke="#000000" stroke-width="1.42" stroke-linejoin="round" fill="#0000F2"/><path d="M261.49 36.57 236.73 36.57 235.88 24.91 258.93 24.91 261.49 36.57Z" stroke="#000000" stroke-width="1.42" stroke-linejoin="round" fill="#FFA100"/><path d="M208.92 36.57 184.16 36.57 186.73 24.91 209.78 24.91 208.92 36.57Z" stroke="#000000" stroke-width="1.42" stroke-linejoin="round" fill="#EE0000"/><path d="M262.22 114.69 262.22 89.93 273.88 89.07 273.88 112.12 262.22 114.69Z" stroke="#000000" stroke-width="1.42" stroke-linejoin="round" fill="#0000F2"/><path d="M262.22 62.12 262.22 37.36 273.88 39.92 273.88 62.97 262.22 62.12Z" stroke="#000000" stroke-width="1.42" stroke-linejoin="round" fill="#00D800"/><path d="M196.46 49.66 249.14 102.33" stroke="#404040" stroke-width="2.84" stroke-linecap="round" stroke-miterlimit="284.44" fill="none"/><path d="M252.33 105.52 244.78 103.52 250.31 98Z" fill="#404040"/><path d="M249.14 102.33 196.46 49.66" stroke="#404040" stroke-width="2.84" stroke-linecap="round" stroke-miterlimit="284.44" fill="none"/><path d="M193.27 46.47 200.82 48.47 195.29 54Z" fill="#404040"/><line x1="138" y1="52" x2="121" y2="98" stroke="#000000" stroke-width="5" stroke-miterlimit="10" fill="none"/></svg>