<svg version="1.1" viewBox="0 0 204.09 67.05" xmlns="http://www.w3.org/2000/svg" xmlns:xlink="http://www.w3.org/1999/xlink" id="Layer_1" overflow="hidden"><defs><clipPath id="clip-path"><path d=" M 0 25.08 C 0 32.64 4.06 39.45 10.4 44.08 C 10.9339 44.4552 11.2512 45.0674 11.25 45.72 C 11.2435 45.9374 11.2065 46.1529 11.14 46.36 C 10.64 48.25 9.82 51.28 9.79 51.42 C 9.69929 51.6541 9.64206 51.8999 9.62 52.15 C 9.62 52.7023 10.0677 53.15 10.62 53.15 C 10.8256 53.1407 11.0253 53.0787 11.2 52.97 L 17.79 49.16 C 18.274 48.8695 18.8256 48.7109 19.39 48.7 C 19.6912 48.7025 19.9907 48.7463 20.28 48.83 C 23.4755 49.7498 26.7848 50.2144 30.11 50.21 C 46.74 50.21 60.22 38.98 60.22 25.12 C 60.22 11.26 46.75 0 30.12 0 C 13.49 0 0 11.23 0 25.08" fill="none"/></clipPath><linearGradient x1="-198.52" y1="794.24" x2="-197.6" y2="794.24" gradientUnits="userSpaceOnUse" id="未命名的渐变_3" gradientTransform="matrix(3.07325e-15,-50.19,50.19,3.07325e-15,-39832.8,-9903)"><stop offset="0" stop-color="#7BC142"/><stop offset="0.03" stop-color="#7BC142"/><stop offset="0.96" stop-color="#A7D168"/><stop offset="1" stop-color="#A7D168"/></linearGradient><clipPath id="clip-path-2"><path d=" M 33 43.71 C 33 55.24 44.23 64.59 58.08 64.59 C 60.8499 64.5955 63.6069 64.2117 66.27 63.45 C 66.5099 63.3771 66.7593 63.3401 67.01 63.34 C 67.4788 63.349 67.9372 63.48 68.34 63.72 L 73.83 66.89 C 73.9719 66.9871 74.1382 67.0426 74.31 67.05 C 74.7717 67.0446 75.1446 66.6717 75.15 66.21 C 75.124 66.0015 75.0737 65.7968 75 65.6 L 73.87 61.39 C 73.8163 61.2182 73.786 61.0399 73.78 60.86 C 73.7805 60.3152 74.0452 59.8045 74.49 59.49 C 79.77 55.67 83.15 50 83.15 43.71 C 83.15 32.17 71.92 22.82 58.07 22.82 C 44.22 22.82 33 32.17 33 43.71" fill="none"/></clipPath><linearGradient x1="-198.72" y1="794.2" x2="-197.79" y2="794.2" gradientUnits="userSpaceOnUse" id="未命名的渐变_30" gradientTransform="matrix(2.90486e-15,-47.44,47.44,2.90486e-15,-37618.4,-9359.96)"><stop offset="0" stop-color="#D3D3D3"/><stop offset="0" stop-color="#E4E7E8"/><stop offset="1" stop-color="#F1F0F0"/></linearGradient></defs><rect x="172.29" y="22.5" width="28.78" height="2.58" fill="#4E4E4E"/><path d=" M 187.18 14.24 L 188.98 13.24 L 189.04 13.24 L 189.04 13.17 C 188.83 12.69 188.3 11.56 187.73 10.37 C 187.16 9.18 186.62 8 186.35 7.44 L 186.35 7.36 L 183.78 8.84 L 183.78 8.91 C 184.7 10.64 185.49 12.22 186.19 13.75 C 186.273 13.9049 186.337 14.0695 186.38 14.24 L 169.47 14.24 L 169.47 17 L 204.09 17 L 204.09 14.24 Z" fill="#4E4E4E"/><path d=" M 132.2 12.12 L 129.62 12.12 L 129.62 21.2 L 124.75 21.2 L 124.75 8.29 L 122.17 8.29 L 122.17 21.2 L 117.09 21.2 L 117.09 12.12 L 114.51 12.12 L 114.51 23.78 L 132.2 23.78 L 132.2 12.12 Z" fill="#4E4E4E"/><path d=" M 103.31 23.19 C 107.39 19.1043 110.768 14.3742 113.31 9.19 L 110.9 7.8 C 108.646 12.5524 105.561 16.8636 101.79 20.53 Z" fill="#4E4E4E"/><rect x="172.29" y="30.56" width="28.78" height="2.78" fill="#4E4E4E"/><path d=" M 173 54.41 L 200.32 54.41 L 200.32 38.83 L 173 38.83 Z M 197.54 51.82 L 175.8 51.82 L 175.8 41.41 L 197.56 41.41 Z" fill="#4E4E4E"/><path d=" M 166.07 7.55 L 166.07 7.55 C 163.734 16.0536 160.039 24.1242 155.13 31.45 L 156.67 34.09 C 158.29 31.69 159.99 28.88 161.6 25.92 L 161.6 56 L 164.39 56 L 164.39 20.18 C 166.058 16.5538 167.478 12.8186 168.64 9 Z" fill="#4E4E4E"/><rect x="115.31" y="28.85" width="15.68" height="2.58" fill="#4E4E4E"/><path d=" M 134.44 45.08 L 133.19 42.93 L 133.14 42.84 L 129.14 46.24 L 129.14 36.51 L 115.92 36.51 L 115.92 40.43 C 116.29 45.79 114.92 49.63 111.92 51.83 L 111.86 51.83 L 113.3 54.33 L 113.3 54.41 L 113.38 54.35 C 117.14 51.25 118.91 46.89 118.64 41.35 L 118.64 39.09 L 126.54 39.09 L 126.54 44.85 C 126.44 46.85 126.34 47.48 125.65 48.44 L 125.65 48.44 L 127.24 51.19 L 127.31 51.13 C 128.7 50.01 131.07 47.98 134.31 45.13 Z" fill="#4E4E4E"/><path d=" M 113 22.4 L 110.52 21 L 110.52 21.09 C 108.292 26.7853 105.117 32.063 101.13 36.7 L 101.13 36.75 L 102.56 39.23 L 102.62 39.33 L 102.69 39.24 C 104.22 37.46 105.69 35.58 107.13 33.66 L 107.13 56 L 109.71 56 L 109.71 29.36 C 110.956 27.1237 112.078 24.8202 113.07 22.46 Z" fill="#4E4E4E"/><path d=" M 139.68 17.16 C 140.802 14.0852 141.645 10.9158 142.2 7.69 L 139.5 7.69 C 138.126 14.7293 135.584 21.4892 131.98 27.69 L 133.61 30.51 L 134.8 28.12 C 135.25 27.33 135.62 26.66 135.89 26.12 C 136.7 33.12 138.11 38.68 140.08 42.77 C 137.752 46.619 134.825 50.0723 131.41 53 L 131.41 53 L 132.9 55.57 L 132.95 55.66 L 133.03 55.59 C 137.11 51.77 139.94 48.41 141.43 45.59 C 143.647 49.2766 146.314 52.6727 149.37 55.7 L 149.45 55.78 L 150.98 53.13 L 150.98 53.07 L 150.93 53.07 C 147.764 50.1688 145.065 46.7956 142.93 43.07 C 145.86 37.73 147.69 29.89 148.36 19.77 L 151.19 19.77 L 151.19 17.16 Z M 141.59 39.81 C 139.89 35.42 138.59 29.46 137.84 22.09 C 138.117 21.284 138.451 20.4987 138.84 19.74 L 145.76 19.74 C 145.23 28.16 143.83 34.91 141.62 39.81" fill="#4E4E4E"/><g clip-path="url(#clip-path)"><rect x="0" y="0" width="60.23" height="53.11"/></g><g clip-path="url(#clip-path-2)"><rect x="32.99" y="22.82" width="50.16" height="44.23"/></g><path d=" M 24.07 17 C 24.07 19.2091 22.2791 21 20.07 21 C 17.8609 21 16.07 19.2091 16.07 17 C 16.07 14.7909 17.8609 13 20.07 13 C 22.2791 13 24.07 14.7909 24.07 17" fill="#227B3D"/><path d=" M 44.21 17 C 44.21 19.2091 42.4191 21 40.21 21 C 38.0009 21 36.21 19.2091 36.21 17 C 36.21 14.7909 38.0009 13 40.21 13 C 42.4191 13 44.21 14.7909 44.21 17" fill="#227B3D"/><path d=" M 63.35 37.33 C 63.3334 39.1856 64.8243 40.7033 66.6799 40.7199 C 68.5355 40.7364 70.0532 39.2456 70.0697 37.39 C 70.0863 35.5344 68.5955 34.0167 66.7399 34.0001 C 66.7266 34 66.7133 34 66.7 34 C 64.8499 34 63.35 35.4998 63.35 37.35 C 63.35 37.3533 63.35 37.3567 63.35 37.36" fill="#8C8C8C"/><path d=" M 46.56 37.33 C 46.5434 39.1856 48.0343 40.7033 49.8899 40.7199 C 51.7455 40.7364 53.2632 39.2456 53.2797 37.39 C 53.2963 35.5344 51.8055 34.0167 49.9499 34.0001 C 49.9399 34 49.93 34 49.92 34 C 48.0643 34 46.56 35.5043 46.56 37.36" fill="#8C8C8C"/></svg>