<svg width="512" height="512" viewBox="0 0 511 511" xmlns="http://www.w3.org/2000/svg" xmlns:xlink="http://www.w3.org/1999/xlink" id="Capa_1" overflow="hidden"><g><g id="Filled_2_"><path d="M491.5 347.5 229.5 347.5 125.241 454.8C111.484 468.945 87.5 459.205 87.5 439.473 87.5 433.783 89.706 428.315 93.655 424.218L167.5 347.5 30 347.5C18.126 347.5 8.5 337.874 8.5 326 8.5 314.126 18.126 304.5 30 304.5L491.5 304.5Z" fill="#D4B981"/><path d="M56.997 234.5 127.5 234.5C149.591 234.5 167.5 216.591 167.5 194.5L167.5 64.5C129.083 64.5 92.239 79.761 65.074 106.926L21.998 150.002C12.715 159.285 7.501 171.874 7.501 185.002 7.5 212.339 29.661 234.5 56.997 234.5Z" fill="#D8FC7E"/><path d="M127.5 204.5 56.997 204.5C34.901 204.5 16.193 190.019 9.83 170.031 8.306 174.83 7.5 179.874 7.5 185.002 7.5 212.339 29.661 234.5 56.997 234.5L127.5 234.5C149.591 234.5 167.5 216.591 167.5 194.5L167.5 164.5C167.5 186.591 149.591 204.5 127.5 204.5Z" fill="#C3F839"/><circle cx="103" cy="150" r="27.5" fill="#57758D"/><path d="M167.5 124.5C167.5 116.05 186.389 103.676 193.398 94.5 198.745 87.5 197.382 77.968 206.5 71.89 214.077 66.84 229.489 72.933 239.5 69.255 248.178 66.067 257.63 51.966 268.029 50.278 277.224 48.785 288.033 59.886 298.5 59.886 308.945 59.886 319.777 48.488 329.613 49.573 340.041 50.723 348.051 64.261 357.636 66.524 367.909 68.95 381.22 60.558 390.329 64.13 400.231 68.014 400.223 80.428 408.499 85.5 417.636 91.099 430.499 82.5 440.499 88.5 446.909 92.346 446.288 105.63 450.499 111.5 454.894 117.627 471.499 114.5 477.499 120.5 482.957 125.958 482.499 140.5 487.499 146.5 492.731 152.778 497.499 151.5 501.499 162.5 506.061 175.044 496.499 215.5 496.499 215.5 423.863 125.979 307.986 105.573 167.5 124.5Z" fill="#AFD2D7"/><g fill="#D8FC7E"><path d="M312.5 90.5C248.5 90.5 167.5 124.5 167.5 124.5L167.5 194.5C167.5 216.591 185.409 234.5 207.5 234.5L374.735 234.5C411.448 234.5 441.952 262.86 444.561 299.48 445.945 318.907 444.973 339.319 438.501 355.5 424.501 390.5 389.501 404.5 359.501 404.5 329.501 404.5 276.501 383.5 276.501 383.5 276.501 383.5 308.501 448.5 366.501 448.5 424.501 448.5 452.607 422.889 471.501 397.5 503.501 354.5 503.501 277.5 503.501 252.5 503.5 171.5 410.5 90.5 312.5 90.5Z"/><path d="M210.5 206.5 233.5 247.5 212.5 270.5 206.5 270.5C187.722 270.5 172.5 285.722 172.5 304.5L232.5 304.5 274.5 252.5 268.5 198.5C242.724 175.303 193.5 172.5 210.5 206.5Z"/><path d="M383.5 184.5 358.469 201.396C349.26 207.612 344.24 218.41 345.424 229.457L349.5 269.5 344.059 270.46C327.542 273.375 315.5 287.727 315.5 304.5L369.5 304.5C380.546 304.5 389.5 295.546 389.5 284.5L389.5 259.281C389.5 249.402 394.363 240.156 402.504 234.56L421.5 221.5Z"/></g><g fill="#C3F839"><path d="M354.626 204.5 269.167 204.5 272.5 234.5 345.964 234.5 345.424 229.457C344.418 220.067 347.906 210.869 354.626 204.5Z"/><path d="M444.56 269.48C443.204 250.444 434.298 233.652 420.913 221.903L402.504 234.559C400.833 235.708 399.309 237.017 397.928 238.447 423.308 247.361 442.141 270.499 444.48 298.648 445.354 289.112 445.251 279.174 444.56 269.48Z"/><path d="M207.5 234.5 226.207 234.5 210.5 206.5C210.158 205.817 209.853 205.154 209.564 204.5L207.5 204.5C185.409 204.5 167.5 186.591 167.5 164.5L167.5 194.5C167.5 216.591 185.409 234.5 207.5 234.5Z"/></g><path d="M389.5 284.5 389.5 274.5 332.898 274.5C322.393 280.515 315.5 291.813 315.5 304.5L369.5 304.5C380.546 304.5 389.5 295.545 389.5 284.5Z" fill="#C3F839"/><path d="M190.496 274.5C179.788 280.224 172.5 291.509 172.5 304.5L232.5 304.5 256.731 274.5Z" fill="#C3F839"/></g><g fill="#FFFFFF"><path d="M222.5 141 237.5 141 237.5 156 222.5 156Z"/><path d="M443.5 220 458.5 220 458.5 235 443.5 235Z"/><path d="M388.5 151 403.5 151 403.5 166 388.5 166Z"/></g><g id="Outline_2_"><path d="M41.5 195 56.5 195 56.5 210 41.5 210Z"/><path d="M103 185C122.299 185 138 169.299 138 150 138 130.701 122.299 115 103 115 83.701 115 68 130.7 68 150 68 169.3 83.701 185 103 185ZM103 130C114.028 130 123 138.972 123 150 123 161.028 114.028 170 103 170 91.972 170 83 161.028 83 150 83 138.972 91.972 130 103 130Z"/><path d="M504.604 213.696C507.175 202.086 513.039 172.285 508.549 159.937 505.184 150.684 500.798 147.607 497.274 145.135 495.73 144.052 494.511 143.197 493.262 141.699 491.991 140.174 490.947 135.728 490.109 132.157 488.652 125.954 487.146 119.539 482.804 115.198 478.06 110.454 470.941 109.496 464.66 108.651 462.053 108.3 457.748 107.721 456.466 106.936 455.609 105.545 454.821 102.348 454.184 99.755 452.668 93.593 450.783 85.924 444.359 82.07 437.048 77.683 429.224 78.661 422.941 79.447 418.5 80.003 414.664 80.482 412.42 79.106 410.375 77.853 408.913 75.105 407.221 71.923 404.458 66.73 401.021 60.267 393.069 57.149 386.152 54.435 378.626 56.203 371.988 57.765 367.355 58.855 362.566 59.983 359.361 59.225 356.65 58.585 353.123 55.588 349.711 52.69 344.357 48.141 338.287 42.984 330.438 42.119 323.093 41.309 316.306 44.83 310.314 47.935 306.09 50.123 301.723 52.387 298.502 52.387 295.243 52.387 290.92 50.215 286.739 48.114 280.766 45.114 273.996 41.714 266.829 42.875 258.827 44.174 252.195 50.019 246.343 55.174 242.919 58.191 239.379 61.311 236.915 62.216 233.728 63.387 228.642 63.016 223.725 62.657 216.238 62.112 208.498 61.547 202.342 65.65 194.689 70.752 192.389 77.552 190.541 83.016 189.605 85.783 188.797 88.172 187.44 89.948 185.293 92.76 181.295 96.404 177.43 99.929 176.613 100.674 175.804 101.414 175.002 102.152L175.002 57 167.502 57C126.807 57 88.548 72.848 59.773 101.623L16.697 144.699C5.929 155.464-7.4607e-14 169.778-7.4607e-14 185.002-7.4607e-14 216.431 25.569 242 56.998 242L127.5 242C144.282 242 159.048 233.244 167.5 220.068 175.952 233.244 190.718 242 207.5 242L221.815 242 224.308 246.444 209.192 263 206.5 263C186.178 263 169.234 277.686 165.692 297L30 297C14.009 297 1 310.009 1 326 1 341.991 14.009 355 30 355L82.573 355 82.573 340 30 340C22.28 340 16 333.72 16 326 16 318.28 22.28 312 30 312L165 312 169.855 312 184.855 312 236.083 312 308 312 369.5 312 437.586 312C437.596 312.75 437.608 313.505 437.608 314.242 437.608 323.823 436.821 332.436 435.265 340L384.419 340 384.419 355 430.56 355C416.911 385.903 385.136 397 359.5 397 331.289 397 279.779 376.732 279.262 376.527L261.184 369.368 269.772 386.812C271.162 389.637 304.545 456 366.5 456 370.047 456 373.573 455.906 376.981 455.72L376.165 440.742C373.028 440.913 369.776 440.999 366.5 440.999 332.583 440.999 307.884 415.918 294.553 397.97 313.183 404.189 340.388 412 359.5 412 390.671 412 429.622 397.889 445.464 358.286 450.204 346.435 452.608 331.617 452.608 314.242 452.608 309.369 452.418 304.224 452.043 298.948 450.16 272.518 435.081 249.358 412.486 236.8L425.75 227.681 417.252 215.321 398.256 228.381C388.076 235.377 382 246.928 382 259.281L382 284.5C382 291.393 376.393 297 369.5 297L324.052 297C326.845 287.27 334.958 279.682 345.363 277.846L357.668 275.674 352.882 228.658C351.992 220.35 355.741 212.286 362.666 207.612L387.697 190.716 379.304 178.283 354.273 195.179C343.632 202.362 337.506 214.351 337.773 226.999L279.214 226.999 275.955 197.671 261.047 199.327 266.701 250.219 228.917 297 184.855 297 181.08 297C184.323 286.029 194.492 278 206.499 278L215.807 278 242.691 248.556 217.04 202.831 203.958 210.17 213.401 227 207.5 227C189.58 227 175 212.42 175 194.5L175 186 193.5 186 193.5 171 175 171 175 156 207.5 156 207.5 141 175 141 175 129.572C192.867 122.565 259.318 98 312.5 98 330.285 98 348.365 100.778 366.237 106.257L370.633 91.916C351.336 86 331.777 83 312.5 83 269.924 83 220.866 97.335 191.289 107.559 194.399 104.656 197.227 101.842 199.358 99.052 202.213 95.315 203.56 91.333 204.748 87.82 206.352 83.079 207.417 80.292 210.66 78.13 212.535 76.88 218.133 77.289 222.632 77.616 228.833 78.068 235.861 78.58 242.087 76.294 247.187 74.42 251.798 70.357 256.258 66.427 260.589 62.611 265.498 58.286 269.232 57.679 271.615 57.295 276.068 59.537 280.003 61.514 285.479 64.265 291.685 67.384 298.5 67.384 305.376 67.384 311.665 64.126 317.213 61.251 321.517 59.021 325.97 56.715 328.791 57.026 332.074 57.388 336.103 60.81 339.998 64.12 344.762 68.167 349.687 72.352 355.912 73.822 362.558 75.389 369.391 73.783 375.421 72.364 380.144 71.253 385.028 70.106 387.591 71.111 390.251 72.154 391.68 74.648 393.977 78.965 396.238 83.215 399.051 88.504 404.581 91.893 411.307 96.015 418.787 95.08 424.801 94.329 429.613 93.726 433.771 93.207 436.624 94.919 437.758 95.773 438.968 100.692 439.618 103.336 440.696 107.721 441.811 112.255 444.406 115.872 448.525 121.614 456.034 122.624 462.659 123.516 465.793 123.938 471.036 124.643 472.196 125.804 473.518 127.126 474.714 132.217 475.505 135.586 476.829 141.224 478.198 147.054 481.738 151.303 484.263 154.333 486.701 156.043 488.659 157.416 491.35 159.304 492.701 160.251 494.451 165.064 495.89 169.02 495.29 178.562 493.835 188.992 488.52 179.253 482.009 169.698 474.334 160.441 451.529 132.939 419.914 110.41 385.312 97.005L379.894 110.992C434.193 132.026 476.469 174.853 490.76 220L473.5 220 473.5 235 494.447 235C495.32 240.007 495.838 245.015 495.967 250L483.5 250 483.5 265 495.925 265C495.445 296.704 491.886 357.545 465.484 393.022 451.809 411.397 430.915 433.265 390.378 439.318L392.593 454.154C438.557 447.291 462.122 422.665 477.518 401.977 511 356.984 511 278.342 511 252.5 511 239.576 508.832 226.561 504.604 213.696ZM160 194.5C160 212.42 145.42 227 127.5 227L56.998 227C33.84 227 15 208.16 15 185.002 15 173.784 19.369 163.238 27.301 155.305L70.377 112.229C94.544 88.062 126.129 74.01 160 72.199ZM397 284.5 397 259.281C397 255.054 398.19 250.985 400.343 247.488 420.317 256.431 434.17 275.142 436.784 297L393.983 297C395.907 293.246 397 289 397 284.5ZM282.3 254.78 280.88 242 339.162 242 341.336 263.35C324.417 266.929 311.659 280.377 308.671 297L248.2 297Z"/><path d="M369.419 340 226.33 340 140.44 428.395 151.198 438.848 232.67 355 369.419 355Z"/><path d="M119.865 449.57C116.303 453.231 112.343 454 109.648 454 102.448 454 95.001 448.566 95.001 439.473 95.001 435.705 96.441 432.136 99.06 429.419L185.129 340 97.573 340 97.573 355 149.871 355 88.255 419.013C82.932 424.536 80 431.803 80 439.473 80 455.754 93.3 469 109.647 469 117.543 469 124.99 465.814 130.619 460.026L140.744 449.606 129.986 439.153Z"/><path d="M323.5 128 361.5 128 361.5 143 323.5 143Z"/><path d="M289.5 164 314.5 164 314.5 179 289.5 179Z"/></g></g></svg>