<svg viewBox="0 0 512 512" xmlns="http://www.w3.org/2000/svg" xmlns:xlink="http://www.w3.org/1999/xlink" id="Capa_1" overflow="hidden"><path d="M0 512 0 481.989 66.116 481.722C109.119 481.498 144.12 446.3 144.12 403.262L144.12 391.516C144.12 361.299 159.714 327.757 182.923 308.052L202.335 330.933C185.723 345.038 174.12 369.951 174.12 391.516L174.12 403.262C174.12 462.763 125.731 511.423 66.254 511.734L0 512Z" fill="#00DDC1"/><path d="M148.5 362.557C145.664 372.183 144.12 382.013 144.12 391.515L144.12 403.261C144.12 446.3 109.119 481.497 66.116 481.721L28.017 481.875 0 509.622 0 512 66.254 511.733C125.732 511.422 174.12 462.762 174.12 403.261L174.12 391.515C174.12 369.95 185.723 345.037 202.335 330.932L192.335 319.146 173.303 338.824 148.5 362.557Z" fill="#00CCB2"/><path d="M243.513 0 173.304 338.824 512 268.588 512 0Z" fill="#FF001E"/><path d="M512 0 243.513 0 377.541 134.514Z" fill="#FFBB00"/><path d="M173.304 338.824 512 268.588 512 0Z" fill="#C30010"/><path d="M377.53 134.514 173.304 338.824 511.412 268.009Z" fill="#FFBB00"/><path d="M377.537 134.514 173.304 338.824 512 268.588Z" fill="#EFAA1C"/><path d="M213.761 385.971C213.761 385.971 162.02 377.943 162.103 377.84L117.117 359.597 105.236 399.981 155.509 407.55 201.88 426.356 213.761 385.971Z" fill="#00607F"/><path d="M162.103 377.84 141.504 369.486 109.989 400.696 155.509 407.55 201.88 426.356 213.761 385.971C213.761 385.971 162.02 377.944 162.103 377.84Z" fill="#00465F"/><g></g><g></g><g></g><g></g><g></g><g></g><g></g><g></g><g></g><g></g><g></g><g></g><g></g><g></g><g></g></svg>