<svg viewBox="0 0 542.39 317.33" xmlns="http://www.w3.org/2000/svg" xmlns:xlink="http://www.w3.org/1999/xlink" overflow="hidden"><defs></defs><g id="Layer_2"><g id="图层_1"><path d="M542.39 0.1 542.39 13.77 538.27 13.77C439.17 13.77 340.067 13.7467 240.96 13.7 238.14 13.7 236.81 14.54 235.57 17.19 202.71 87.4633 169.777 157.697 136.77 227.89 123.817 255.49 110.86 283.087 97.9 310.68 96.32 314.04 94.83 317.27 90.27 317.33 86.84 317.33 85.05 315.76 83.76 312.82 78.2067 300.193 72.62 287.587 67 275 52.7333 242.647 38.45 210.313 24.15 178 23.76 177.13 23.3 176.28 22.72 175.1 18.3 178.51 14.04 181.83 9.72 185.1 8.02469 186.548 6.17325 187.802 4.2 188.84 3.13 189.32 0.66 189.07 0.43 188.49-0.09 187.13-0.26 184.84 0.53 183.89 2.48506 181.776 4.65323 179.869 7 178.2 15.4467 171.573 23.9133 164.97 32.4 158.39 32.87 158.02 33.4 157.66 33.84 157.39 37.93 154.72 39.84 155 41.84 159.27 44.84 165.72 47.62 172.27 50.48 178.78 65.58 213.113 80.6867 247.447 95.8 281.78 96.05 282.35 96.4 282.87 96.9 283.78 100.44 276.28 103.85 269.09 107.22 261.88 123.76 226.547 140.29 191.213 156.81 155.88L225.15 9.75C225.51 8.97 225.95 8.22 226.26 7.42 228.37 2.05 232 0 237.82 0 337.873 0.14 437.933 0.173333 538 0.1Z"/><path d="M67.22 136C70.66 137.55 73.99 139.71 77.59 140.4 83.96 141.64 90.59 142.79 96.96 142.4 112.52 141.55 119.09 129.3 117.65 115.13 116.03 99.22 105.65 92.13 88.59 94.13 87.3905 94.2607 86.1776 94.1931 85 93.93 83.19 93.55 79.84 94.58 79.86 91.13 79.86 88.78 81.31 88.59 83 88.45 87.4 88.09 91.87 88.07 96.18 87.2 107.33 84.94 115.67 72.37 114.01 60.84 113.241 53.8796 107.923 48.2873 101.01 47.17 92.8782 45.5904 84.4546 46.6412 76.96 50.17 74.962 51.272 73.0409 52.5082 71.21 53.87 75.07 55.39 77.64 57.32 78.41 61.15 79.5 66.63 76.31 71.56 70.99 72.28 66.2192 72.9379 61.8184 69.6038 61.1605 64.833 61.1128 64.4873 61.0859 64.139 61.08 63.79 60.8 57.36 63.43 52.24 68.3 48.32 74.7 43.16 82.24 41.32 90.09 40.64 99.7 39.76 109.02 40.99 117.72 45.53 132.72 53.37 134.94 69.91 122.25 81.44 118.16 85.16 113.07 87.7 108.7 90.59 111.15 91.52 114.28 92.47 117.23 93.86 125.63 97.86 132.68 103.35 135.1 113.14 137.3 122.04 134.3 129.62 128.41 136.04 120.19 145.04 109.53 148.41 97.99 149.04 89.0169 149.726 80.0029 148.425 71.59 145.23 64.59 142.46 58.46 138.44 56.47 130.38 55.7973 127.549 55.7325 124.608 56.28 121.75 57.1 117.56 61.28 115.03 65.71 115.26 69.8965 115.454 73.4372 118.422 74.36 122.51 75.36 127.51 73.46 131.82 69.44 133.72 68.7 134.07 67.94 134.36 67.19 134.67Z"/><path d="M267.13 57.38 338.56 57.38 338.56 128.81 267.13 128.81 267.13 57.38Z" fill="#EE0000"/><path d="M351.16 57.38 422.59 57.38 422.59 128.81 351.16 128.81 351.16 57.38Z" fill="#EE0000"/><path d="M435.19 57.38 506.62 57.38 506.62 128.81 435.19 128.81 435.19 57.38Z" fill="#EE0000"/><path d="M267.13 141.41 338.56 141.41 338.56 212.84 267.13 212.84 267.13 141.41Z" fill="#0000F2"/><path d="M351.16 141.41 422.59 141.41 422.59 212.84 351.16 212.84 351.16 141.41Z" fill="#EE0000"/><path d="M435.19 141.41 506.62 141.41 506.62 212.84 435.19 212.84 435.19 141.41Z" fill="#0000F2"/><path d="M267.13 225.45 338.56 225.45 338.56 296.87 267.13 296.87 267.13 225.45Z" fill="#0000F2"/><path d="M351.16 225.45 422.59 225.45 422.59 296.87 351.16 296.87 351.16 225.45Z" fill="#EE0000"/><path d="M435.19 225.45 506.62 225.45 506.62 296.87 435.19 296.87 435.19 225.45Z" fill="#0000F2"/><text stroke="#000000" stroke-width="3" stroke-miterlimit="10" font-family="Orbitron-Light,Orbitron" font-weight="300" font-size="70" transform="translate(273.3 117.53)">2</text><text stroke="#000000" stroke-width="3" stroke-miterlimit="10" font-family="Orbitron-Light,Orbitron" font-weight="300" font-size="70" transform="translate(358.5 117.1)">2</text><text stroke="#000000" stroke-width="3" stroke-miterlimit="10" font-family="Orbitron-Light,Orbitron" font-weight="300" font-size="70" transform="translate(442.4 117.67)">2</text><text stroke="#000000" stroke-width="3" stroke-miterlimit="10" font-family="Orbitron-Light,Orbitron" font-weight="300" font-size="70" transform="translate(358.4 202.17)">2</text><text stroke="#000000" stroke-width="3" stroke-miterlimit="10" font-family="Orbitron-Light,Orbitron" font-weight="300" font-size="70" transform="translate(358.4 287.34)">2</text></g></g></svg>