<svg version="1.1" width="512" height="512" viewBox="0 0 512 512" xmlns="http://www.w3.org/2000/svg" xmlns:xlink="http://www.w3.org/1999/xlink" id="Capa_1" overflow="hidden"><path d=" M 278.5 90 C 253.687 90 233.5 69.813 233.5 45 C 233.5 20.187 253.687 0 278.5 0 C 303.313 0 323.5 20.187 323.5 45 C 323.5 69.813 303.313 90 278.5 90 Z"/><path d=" M 383.5 150 C 350.416 150 323.5 123.084 323.5 90 C 323.5 56.916 350.416 30 383.5 30 C 416.584 30 443.5 56.916 443.5 90 C 443.5 123.084 416.584 150 383.5 150 Z"/><path d=" M 188.5 75 C 171.958 75 158.5 61.542 158.5 45 C 158.5 28.458 171.958 15 188.5 15 C 205.042 15 218.5 28.458 218.5 45 C 218.5 61.542 205.042 75 188.5 75 Z"/><path d=" M 128.5 105 C 111.958 105 98.5 91.542 98.5 75 C 98.5 58.458 111.958 45 128.5 45 C 145.042 45 158.5 58.458 158.5 75 C 158.5 91.542 145.042 105 128.5 105 Z"/><path d=" M 98.5 165 C 81.958 165 68.5 151.542 68.5 135 C 68.5 118.458 81.958 105 98.5 105 C 115.042 105 128.5 118.458 128.5 135 C 128.5 151.542 115.042 165 98.5 165 Z"/><path d=" M 203.5 512 C 153.874 512 113.5 471.626 113.5 422 L 113.5 210 C 113.5 141.55 164.842 105 233.5 105 C 302.128 105 341.8 140.641 351.595 184.854 C 361.154 228.006 341.134 271.885 303.993 289.188 C 282.611 299.149 268.104 317.576 264.191 339.745 C 261.298 356.129 264.86 372.145 273.262 380.548 C 292.48 399.766 297.158 429.229 285.473 457.439 C 271.744 490.584 239.568 512 203.5 512 Z"/></svg>