<svg version="1.1" viewBox="0 0 96 96" xmlns="http://www.w3.org/2000/svg" xmlns:xlink="http://www.w3.org/1999/xlink" id="Icons_RaisedHand" overflow="hidden"><path d=" M 24.5 23 C 27 23 29 25 29 27.5 L 29 47 C 29 47.5 29.5 48 30 48 C 30.5 48 31 47.5 31 47 L 31 17.5 C 31 15 33 13 35.5 13 C 38 13 40 15 40 17.5 L 40 47 C 40 47.5 40.5 48 41 48 C 41.5 48 42 47.5 42 47 L 42 11.4 L 42 11.4 C 42 9 44 7 46.5 7 C 49 7 51 9 51 11.4 L 51 11.4 L 51 47 C 51 47.5 51.5 48 52 48 C 52.5 48 53 47.5 53 47 L 53 17.5 C 53 15 55 13 57.5 13 C 60 13 62 15 62 17.5 L 62 47 L 62 58.5 L 66.1 40 C 66.7 37.3 69.4 35.6 72.1 36.2 C 74.8 36.8 76.5 39.5 75.9 42.2 L 69.9 69.2 C 69.6 70.2 69 71.2 68 72 L 57 80.5 L 57 88 L 28 88 L 28 83 C 28 75.9 20 75.4 20 62 C 20 61.5 20 27.5 20 27.5 C 20 25 22 23 24.5 23 Z"/></svg>