<svg version="1.1" width="500" height="500" viewBox="0 0 500 500" xmlns="http://www.w3.org/2000/svg" xmlns:xlink="http://www.w3.org/1999/xlink" id="Layer_1" overflow="hidden"><path d=" M 233.65 349.13 C 262.614 269.467 291.399 190.297 320.336 110.709 C 360.317 111.342 396.039 124.311 427.076 149.554 C 398.222 228.919 369.491 307.951 340.545 387.567 C 308.165 366.093 272.492 353.19 233.65 349.13 Z" fill="#000000" fill-rule="evenodd" clip-rule="evenodd"/><path d=" M 330.838 80.083 C 335.258 68.056 339.401 56.625 343.716 45.257 C 344.208 43.961 345.455 42.508 346.704 42.013 C 360.257 36.636 374.175 32.884 388.904 32.576 C 409.853 32.139 424.779 42.957 436.954 58.454 C 442.187 65.117 446.388 72.6 450.94 79.784 C 451.544 80.735 451.954 82.304 451.605 83.285 C 447.439 95.009 443.113 106.676 438.693 118.731 C 405.896 96.998 370.288 84.203 330.838 80.083 Z" fill="#000000" fill-rule="evenodd" clip-rule="evenodd"/><path d=" M 251.47 466.013 C 250.634 464.217 250.044 462.955 249.455 461.691 C 239.309 439.934 229.162 418.177 219.019 396.42 C 217.542 393.249 219.254 382.785 221.856 380.582 C 222.664 379.897 224.185 379.812 225.368 379.848 C 263.192 381.01 296.981 393.303 326.785 416.633 C 328.832 418.235 329.118 419.602 328.478 422.195 C 326.758 429.167 322.822 433.146 316.097 436.096 C 294.57 445.542 273.393 455.79 251.47 466.013 Z" fill="#000000" fill-rule="evenodd" clip-rule="evenodd"/><rect x="71.597" y="62.5" width="100" height="100" fill="#000000"/><rect x="72.097" y="202.5" width="100" height="100" fill="#000000"/><rect x="72.347" y="342.5" width="100" height="100" fill="#000000"/></svg>