<svg version="1.1" width="500" height="500" viewBox="0 0 500 500" xmlns="http://www.w3.org/2000/svg" xmlns:xlink="http://www.w3.org/1999/xlink" id="Layer_1" overflow="hidden"><defs id="defs213"></defs><rect x="21.8487" y="18.5284" width="55.985" height="55.9838" id="rect139" fill="#000000"/><rect x="101.693" y="18.5284" width="55.9838" height="55.985" id="rect141" fill="#000000"/><rect x="21.8487" y="99.8711" width="55.985" height="55.9827" id="rect143" fill="#000000"/><rect x="101.693" y="99.87" width="55.9838" height="55.9838" id="rect145" fill="#000000"/><rect x="182.448" y="18.773" width="55.9827" height="55.985" id="rect147" fill="#000000"/><rect x="262.287" y="18.773" width="55.9873" height="55.985" id="rect149" fill="#000000"/><rect x="182.448" y="100.116" width="55.9827" height="55.9827" id="rect151" fill="#000000"/><rect x="262.287" y="100.116" width="55.9873" height="55.9838" id="rect153" fill="#000000"/><rect x="21.8487" y="181.456" width="55.985" height="55.9862" id="rect155" fill="#000000"/><rect x="101.693" y="181.456" width="55.9838" height="55.9862" id="rect157" fill="#000000"/><rect x="21.8487" y="262.799" width="55.985" height="55.9838" id="rect159" fill="#000000"/><rect x="101.693" y="262.801" width="55.9838" height="55.9827" id="rect161" fill="#000000"/><rect x="182.448" y="181.456" width="55.9827" height="55.985" id="rect163" fill="#000000"/><rect x="262.287" y="181.455" width="55.9873" height="55.9873" id="rect165" fill="#000000"/><rect x="182.448" y="262.798" width="55.9827" height="55.985" id="rect167" fill="#000000"/><rect x="262.287" y="262.8" width="55.9873" height="55.9827" id="rect169" fill="#000000"/><rect x="341.476" y="18.7742" width="55.985" height="55.985" id="rect171" fill="#000000"/><rect x="341.476" y="100.117" width="55.985" height="55.9838" id="rect173" fill="#000000"/><rect x="341.476" y="181.456" width="55.985" height="55.9862" id="rect175" fill="#000000"/><rect x="341.476" y="262.801" width="55.985" height="55.9827" id="rect177" fill="#000000"/><rect x="21.9792" y="344.143" width="55.9838" height="55.9838" id="rect179" fill="#000000"/><rect x="101.822" y="344.143" width="55.9838" height="55.9838" id="rect181" fill="#000000"/><rect x="182.577" y="344.143" width="55.9838" height="55.9838" id="rect183" fill="#000000"/><rect x="262.416" y="344.142" width="55.9873" height="55.9838" id="rect185" fill="#000000"/><rect x="341.604" y="344.143" width="55.9873" height="55.9838" id="rect187" fill="#000000"/><rect x="421.445" y="18.773" width="55.9873" height="55.9838" id="rect189" fill="#000000"/><rect x="422.164" y="100.115" width="55.9873" height="55.9838" id="rect191" fill="#000000"/><rect x="422.164" y="181.456" width="55.9873" height="55.9862" id="rect193" fill="#000000"/><rect x="422.164" y="262.799" width="55.9873" height="55.9827" id="rect195" fill="#000000"/><rect x="421.575" y="344.14" width="55.9873" height="55.9838" id="rect197" fill="#000000"/><rect x="22.5685" y="425.488" width="55.9838" height="55.9838" id="rect199" fill="#000000"/><rect x="102.411" y="425.49" width="55.985" height="55.9815" id="rect201" fill="#000000"/><rect x="182.512" y="425.488" width="55.9838" height="55.9838" id="rect203" fill="#000000"/><rect x="262.352" y="425.49" width="55.9873" height="55.9815" id="rect205" fill="#000000"/><rect x="342.195" y="425.49" width="55.985" height="55.9815" id="rect207" fill="#000000"/><rect x="422.164" y="425.488" width="55.9873" height="55.9838" id="rect209" fill="#000000"/></svg>