<svg version="1.1" width="500" height="500" viewBox="0 0 500 500" xmlns="http://www.w3.org/2000/svg" xmlns:xlink="http://www.w3.org/1999/xlink" id="Layer_1" overflow="hidden"><path d=" M 298.473 332.997 C 298.473 330.195 298.473 327.755 298.473 324.785 C 283.751 324.785 269.299 324.8 254.847 324.782 C 235.69 324.759 216.531 324.854 197.375 324.616 C 187.073 324.487 179.083 317.4 177.047 307.33 C 175.194 298.167 180.081 288.251 189.059 284.344 C 192.44 282.872 196.461 282.307 200.194 282.293 C 241.007 282.154 281.823 282.302 322.637 282.132 C 331.76 282.094 338.012 286.355 344.266 292.525 C 369.526 317.444 395.221 341.922 420.754 366.566 C 424.35 370.037 427.658 373.879 431.592 376.911 C 437.807 381.698 439.85 387.491 439.635 395.36 C 439.082 415.503 439.449 435.672 439.451 455.83 C 439.451 458.257 439.451 460.684 439.451 464.311 C 429.928 455.15 421.763 446.623 412.887 438.913 C 399.205 427.028 385.092 415.636 371.051 404.169 C 362.528 397.207 352.266 394.772 341.629 394.859 C 318.496 395.051 295.368 396.096 272.235 396.293 C 243.914 396.535 215.583 395.927 187.267 396.372 C 174.635 396.571 164.266 391.87 155.786 383.611 C 125.951 354.553 96.579 325.021 67.023 295.678 C 60.419 289.121 58.795 281.216 61.803 272.731 C 64.715 264.515 71.071 259.846 79.806 258.981 C 86.685 258.299 92.402 260.981 97.41 265.675 C 117.098 284.131 136.87 302.5 156.612 320.899 C 160.389 324.42 164.08 328.043 168.008 331.385 C 169.276 332.465 171.174 333.39 172.786 333.394 C 214.104 333.479 255.422 333.434 296.739 333.396 C 297.211 333.396 297.681 333.186 298.473 332.997 Z" fill="#000000" fill-rule="evenodd" clip-rule="evenodd"/><rect x="131.259" y="43.322" width="55.921" height="55.921" fill="#000000"/><rect x="209.549" y="43.322" width="55.921" height="55.921" fill="#000000"/><rect x="287.838" y="43.322" width="55.922" height="55.921" fill="#000000"/><rect x="131.539" y="121.612" width="55.921" height="55.921" fill="#000000"/><rect x="209.828" y="121.612" width="55.922" height="55.921" fill="#000000"/><rect x="288.117" y="121.612" width="55.922" height="55.921" fill="#000000"/><rect x="131.679" y="199.901" width="55.921" height="55.921" fill="#000000"/><rect x="209.968" y="199.901" width="55.92" height="55.921" fill="#000000"/><rect x="288.258" y="199.901" width="55.92" height="55.921" fill="#000000"/></svg>