<svg width="571.988" height="571.987" viewBox="0 0 571.988 571.987" xmlns="http://www.w3.org/2000/svg" xmlns:xlink="http://www.w3.org/1999/xlink" id="Capa_1" overflow="hidden"><g><g><path d="M428.098 391.477C430.241 396.674 430.853 397.959 433.504 399.375 434.336 399.828 434.969 399.95 435.434 400.04 436.161 400.183 436.556 400.261 437.935 403.101 440.252 407.826 440.555 408.433 443.652 409.98 444.145 410.228 444.606 410.441 445.027 410.632 446.977 411.529 447.434 411.79 447.466 413.125 447.584 417.67 451.775 422.929 454.414 422.929 455.181 422.929 456.001 422.501 456.319 421.367 456.988 421.837 457.747 422.212 458.53 422.603 460.963 423.815 463.475 425.072 464.789 429.384 464.94 429.881 465.414 431.4 466.658 431.4 467.029 431.4 467.572 431.253 468.024 430.555 468.93 429.176 469.297 425.814 468.449 423.86 465.14 416.169 459.959 410.441 457.042 409.543 454.521 408.789 453.182 408.315 452.717 406.594 451.95 403.799 450.718 400.446 448.017 399.299 445.128 398.091 443.452 396.247 443.036 393.831 442.701 391.845 440.183 389.074 437.263 385.867 434.652 382.999 431.698 379.751 430.605 377.299 425.248 362.183 420.54 344.451 415.986 327.299 409.152 301.546 402.698 277.217 394.746 264.202 394.493 263.794 394.289 263.109 394.085 262.448 393.881 261.787 393.669 261.106 393.388 260.563 393.008 259.836 392.401 259.204 391.572 258.678 390.564 258.046 388.884 257.74 386.435 257.74 374.424 257.74 343.143 265.937 328.059 279.336 327.345 279.968 326.778 280.413 326.488 280.601 326.304 280.54 325.941 280.385 325.24 280.021 324.779 279.785 324.289 279.05 324.294 278.279 324.338 273.163 323.616 270.474 322.523 268.006 322.502 267.961 322.487 267.92 322.47 267.887 322.556 267.883 322.629 267.879 322.629 267.879 327.897 268.336 330.919 266.569 332.494 265.108 333.657 264.027 334.718 263.203 335.403 262.848 356.227 252.056 393.539 190.159 397.941 174.177 398.162 173.382 398.908 172.545 399.614 172.308 403.25 171.104 408.913 168.44 415.249 162.569 415.485 162.357 415.714 161.839 415.686 161.525 415.662 161.207 415.527 160.97 415.343 160.77 416.437 159.917 418.179 158.709 419.884 157.535 422.536 155.703 425.045 153.973 426.098 152.916 426.347 152.659 426.518 152.096 426.424 151.749 426.257 151.125 425.694 150.86 425.078 150.664 427.358 148.469 429.81 146.348 431.826 144.605 435.779 141.19 436.277 140.721 436.138 139.868 436.13 139.819 436.117 139.77 436.097 139.717 437.199 138.848 437.46 138.55 437.541 137.877 437.61 137.314 438.781 135.686 440.932 133.157 441.777 132.141 442.564 131.288 443.315 130.591 444.331 129.64 444.836 129.159 444.551 128.383 444.486 128.208 444.347 128.045 444.175 127.918 444.208 127.767 444.281 127.559 444.445 127.326 446.477 124.478 451.247 123.822 454.731 123.34 457.53 122.952 459.218 122.719 459.521 121.382 459.786 120.227 458.643 119.285 457.367 118.436 454.797 116.739 451.789 115.804 448.892 115.804 443.898 115.804 439.822 118.428 437.652 123.013 437.366 122.776 437.023 122.654 436.665 122.654 435.648 122.654 434.788 123.56 433.78 125.681 433.4 126.489 431.463 130.699 430.569 134.4 430.463 134.845 430.385 134.939 430.177 135.192 429.993 135.417 429.781 135.678 429.529 136.13 429.357 136.44 429.153 136.824 428.928 137.256 428.01 138.998 426.68 141.52 425.007 143.531 424.66 142.736 424.253 141.883 423.355 141.883 423.098 141.883 422.674 142.062 422.482 142.242 421.075 143.589 419.659 145.698 418.154 147.93 417.113 149.485 416.045 151.072 414.959 152.434 414.91 152.275 414.837 152.128 414.719 151.997 414.368 151.593 413.503 151.577 413.095 151.912 411.569 153.16 409.852 154.706 408.08 156.298 405.461 158.656 402.76 161.092 400.438 162.761 399.578 163.377 397.978 164.185 397.023 164.666 389.41 168.497 386.631 173.605 377.439 190.533 374.926 195.164 371.918 200.692 368.198 207.339 346.182 246.641 335.456 252.512 331.021 252.512 330.515 252.512 330.03 252.435 329.577 252.283 328.483 251.924 327.427 251.741 326.415 251.741 322.73 251.741 320.397 254.067 318.524 255.935L317.765 256.645C317.737 256.637 317.619 256.551 317.533 256.282 313.269 242.663 300.956 230.721 293.779 224.67 308.275 222.891 314.587 216.478 322.518 206.926 335.497 191.226 323.595 159.1 317.793 145.84L317.508 145.293C317.508 145.208 317.557 144.816 318.23 143.551 318.781 142.523 319.058 141.474 319.058 140.442L319.063 138.182C319.067 137.215 319.417 135.62 319.83 134.698 321.589 130.773 323.273 126.848 324.934 122.976 331.747 107.101 338.181 92.107 347.72 81.85 348.169 81.369 348.696 80.499 349.327 79.198 349.862 78.092 350.453 76.268 350.723 75.138 353.375 63.881 361.311 25.611 352.119 5.851 349.754 0.759 346.719 0 345.116 0 343.251 0 341.383 0.988 339.987 2.709 338.164 4.953 337.4 8.103 337.996 10.926 344.275 41.285 346.437 61.987 344.434 72.444 344.243 73.44 343.569 75.006 343.063 75.851 341.965 77.671 340.378 80.205 339.037 81.959 330.114 93.701 323.794 110.005 315.797 130.646 315.557 131.254 314.704 131.796 313.892 131.85 313.231 131.895 312.615 132.001 312.048 132.156 311.269 132.377 310.6 132.242 310.293 131.789 308.103 128.444 305.846 125.759 303.394 123.588 302.762 123.029 302.268 121.882 302.313 121.087 302.456 118.7 302.371 116.934 302.056 115.84 301.91 115.321 301.464 113.735 296.331 110.316 295.332 109.651 294.459 109.716 293.953 110.337 293.601 110.761 293.512 111.373 293.676 112.201 293.884 113.274 293.969 114.963 293.223 116.901 293.023 117.403 292.174 117.786 291.427 117.668 289.898 117.415 288.29 117.28 286.736 117.415 286.328 117.452 285.667 117.452 285.263 117.415 283.7 117.285 282.096 117.419 280.571 117.668 279.845 117.778 278.972 117.411 278.784 116.905 278.025 114.963 278.115 113.274 278.323 112.205 278.486 111.373 278.396 110.761 278.046 110.337 277.536 109.721 276.663 109.655 275.667 110.32 270.53 113.739 270.09 115.326 269.947 115.841 269.629 116.943 269.539 118.709 269.686 121.092 269.735 121.896 269.241 123.042 268.609 123.597 266.161 125.759 263.904 128.444 261.706 131.794 261.404 132.255 260.731 132.39 259.947 132.165 259.384 132.006 258.764 131.904 258.099 131.859 257.295 131.806 256.443 131.263 256.206 130.66 248.205 110.019 241.881 93.716 232.958 81.969 231.62 80.219 230.029 77.681 228.935 75.862 228.429 75.017 227.756 73.45 227.564 72.455 225.561 61.998 227.723 41.3 234.002 10.94 234.598 8.117 233.835 4.967 232.011 2.719 230.615 0.997 228.747 0.01 226.882 0.01 225.279 0.01 222.243 0.769 219.881 5.861 210.689 25.62 218.62 63.891 221.277 75.147 221.542 76.273 222.138 78.101 222.672 79.203 223.3 80.505 223.827 81.373 224.279 81.855 233.818 92.112 240.253 107.106 247.066 122.981 248.727 126.849 250.412 130.774 252.17 134.699 252.582 135.621 252.933 137.217 252.937 138.183L252.941 140.439C252.941 141.471 253.218 142.52 253.769 143.548 254.406 144.743 254.483 145.16 254.524 145.16 254.524 145.16 254.528 145.16 254.532 145.156L254.12 146.013C248.404 159.097 236.503 191.223 249.477 206.928 257.409 216.479 263.72 222.893 278.212 224.672 271.04 230.727 258.726 242.669 254.462 256.288 254.384 256.537 254.266 256.643 254.038 256.516L253.463 255.949C251.586 254.08 249.256 251.755 245.568 251.755 244.556 251.755 243.495 251.939 242.402 252.302 241.957 252.453 241.468 252.526 240.962 252.526 236.527 252.526 225.8 246.659 203.785 207.353 200.064 200.707 197.061 195.178 194.544 190.547 185.352 173.619 182.573 168.511 174.96 164.68 174.005 164.199 172.406 163.39 171.545 162.775 169.224 161.102 166.523 158.666 163.903 156.312 162.132 154.721 160.419 153.17 158.881 151.918 158.473 151.591 157.612 151.612 157.265 152.012 157.151 152.147 157.073 152.289 157.024 152.449 155.935 151.082 154.87 149.495 153.829 147.945 152.328 145.714 150.908 143.604 149.492 142.249 149.304 142.074 148.888 141.898 148.631 141.898 147.729 141.898 147.325 142.747 146.979 143.546 145.306 141.534 143.976 139.013 143.058 137.271 142.829 136.839 142.63 136.455 142.454 136.145 142.201 135.692 141.993 135.431 141.809 135.207 141.601 134.954 141.527 134.86 141.417 134.415 140.523 130.714 138.585 126.504 138.202 125.692 137.199 123.571 136.338 122.669 135.322 122.669 134.963 122.669 134.62 122.792 134.335 123.028 132.165 118.438 128.088 115.819 123.095 115.819 120.198 115.819 117.191 116.754 114.621 118.451 113.344 119.3 112.197 120.238 112.467 121.397 112.769 122.735 114.458 122.968 117.257 123.355 120.741 123.836 125.507 124.493 127.543 127.341 127.706 127.574 127.784 127.786 127.812 127.937 127.641 128.063 127.502 128.227 127.437 128.402 127.152 129.177 127.658 129.658 128.71 130.646 129.42 131.307 130.208 132.16 131.06 133.184 133.202 135.705 134.373 137.337 134.442 137.896 134.528 138.569 134.785 138.867 135.886 139.736 135.866 139.785 135.853 139.834 135.845 139.887 135.706 140.736 136.204 141.205 140.157 144.624 142.177 146.37 144.629 148.492 146.905 150.683 146.289 150.879 145.726 151.144 145.559 151.768 145.469 152.119 145.641 152.686 145.898 152.943 146.942 153.992 149.447 155.722 152.104 157.553 153.805 158.728 155.556 159.932 156.641 160.789 156.47 160.977 156.327 161.217 156.303 161.548 156.274 161.862 156.503 162.376 156.731 162.588 163.076 168.459 168.739 171.128 172.374 172.331 173.076 172.563 173.826 173.404 174.046 174.204 178.457 190.19 215.773 252.087 236.585 262.867 237.271 263.218 238.331 264.046 239.498 265.132 241.069 266.592 244.088 268.371 249.359 267.902L249.489 266.902 249.493 266.902 249.55 267.726C249.55 267.726 249.554 267.816 249.464 268.024 248.371 270.492 247.652 273.185 247.693 278.297 247.697 279.068 247.207 279.802 246.746 280.039 246.028 280.41 245.665 280.561 245.502 280.622 245.22 280.434 244.645 279.99 243.927 279.349 228.847 265.954 197.566 257.758 185.551 257.758 183.103 257.758 181.422 258.064 180.41 258.7 179.586 259.222 178.974 259.855 178.598 260.581 178.317 261.123 178.104 261.805 177.901 262.466 177.697 263.131 177.489 263.817 177.244 264.22 169.288 277.236 162.834 301.565 156 327.318 151.446 344.47 146.738 362.202 141.41 377.245 140.292 379.766 137.334 383.018 134.723 385.883 131.802 389.089 129.284 391.856 128.95 393.843 128.534 396.262 126.857 398.102 123.964 399.314 121.267 400.457 120.035 403.815 119.268 406.614 118.807 408.332 117.469 408.804 114.935 409.563 112.03 410.46 106.849 416.189 103.539 423.872 102.686 425.831 103.058 429.192 103.963 430.571 104.416 431.269 104.959 431.416 105.33 431.416 106.575 431.416 107.044 429.898 107.203 429.396 108.513 425.087 111.03 423.835 113.457 422.62 114.232 422.232 114.979 421.86 115.668 421.375 115.982 422.514 116.802 422.946 117.573 422.946 120.213 422.946 124.403 417.686 124.521 413.137 124.554 411.807 125.011 411.546 126.961 410.649 127.381 410.457 127.842 410.245 128.336 409.996 131.437 408.45 131.734 407.842 134.052 403.113 135.431 400.277 135.831 400.2 136.553 400.057 137.014 399.967 137.65 399.844 138.479 399.396 141.135 397.976 141.747 396.691 143.889 391.493 145.077 388.613 144.636 386.972 144.342 385.888 144.105 385.023 144.093 384.97 145.109 384.326 145.721 383.938 146.194 383.909 146.737 383.881 149.385 383.731 150.515 382.669 152.767 371.323 155.215 358.89 161.955 341.049 168.479 323.799 176.039 303.795 183.856 283.105 185.158 270.388 185.199 269.972 185.354 269.972 185.427 269.972 185.492 269.972 185.598 269.984 185.758 270.049 186.035 270.168 186.329 270.278 186.631 270.388 187.9 270.849 189.883 271.147 190.85 271.245 199.614 272.167 202.376 274.138 206.199 276.867 210.475 279.923 215.795 283.725 231.054 287.932 235.007 288.691 238.079 290.491 240.887 292.269 241.576 292.706 242.462 293.758 243.111 294.525L243.429 294.897C244.404 296.035 246.228 297.447 249.373 297.712 250.112 297.776 250.809 298.307 250.956 298.927 251.45 300.996 251.976 302.759 252.4 304.174 252.588 304.807 252.245 305.704 251.65 306.129 249.569 307.626 247.66 309.425 246.542 310.935 246.232 311.355 245.963 311.772 245.747 312.115 245.653 312.265 245.572 312.4 245.498 312.502 245.441 312.519 245.384 312.539 245.327 312.56 216.828 323.674 191.357 348.566 191.267 360.398 191.267 361.329 191.296 362.136 191.377 362.797 191.438 363.266 191.569 363.817 191.704 364.392 191.879 365.13 192.079 365.963 192.063 366.522 191.855 375.686 192.846 386.829 193.993 399.725 195.898 421.153 198.269 447.82 196.409 479.252 196.364 480.056 195.744 481.288 195.058 481.944 190.701 486.078 187.061 492.438 186.955 496.131 186.89 498.885 185.348 501.182 182.377 502.961 179.623 504.585 178.819 508.412 178.423 511.565 178.17 513.568 176.697 514.352 174.107 515.559 171.112 516.951 166.379 523.956 163.976 532.846 163.389 535.009 164.221 538.363 165.323 539.807 165.76 540.378 166.257 540.667 166.792 540.667 167.75 540.667 168.367 539.855 168.616 538.252 169.383 533.311 172.068 531.454 174.43 529.822 175.262 529.243 176.066 528.688 176.751 528.023 177.265 529.357 178.249 529.529 178.709 529.529 179.611 529.529 180.565 528.962 181.557 527.847 183.564 525.583 185.38 521.421 184.952 517.856 184.781 516.337 185.25 515.97 187.269 514.665 187.693 514.392 188.158 514.09 188.664 513.739 191.777 511.56 191.997 510.863 193.76 505.408 194.849 502.029 195.29 501.879 196.086 501.596 196.567 501.425 197.224 501.197 198.044 500.588 200.712 498.602 201.173 497.12 202.683 491.172 203.238 488.981 203.295 487.401 203.336 486.251 203.414 484.244 203.43 483.705 205.935 482.322 206.959 481.755 207.579 481.661 207.955 481.608 208.286 481.559 208.787 481.486 209.089 480.996 209.407 480.474 209.248 480.001 208.983 479.222 208.579 478.034 207.637 475.256 206.601 468.785 204.724 457.161 205.181 440.339 205.666 422.534 206.311 398.792 206.98 374.243 201.705 362.068 201.387 361.33 201.489 360.224 201.929 359.698 207.984 352.46 215.564 348.747 223.59 344.822 232.277 340.571 242.126 335.748 251.652 325.622 252.182 325.047 252.623 324.491 252.99 323.961 253.471 323.26 254.524 322.578 255.332 322.44 255.826 322.354 256.335 322.244 256.846 322.097 256.981 322.056 257.115 322.035 257.25 322.035 257.507 322.035 257.968 322.113 258.144 322.627 260.894 330.701 263.22 336.104 265.056 338.682 265.501 339.311 265.88 340.22 265.611 340.898 264.861 342.77 263.735 345.957 262.616 350.506 261.735 353.937 261.968 357.136 263.346 360.568 263.575 361.134 263.362 361.758 262.848 362.012 237.062 374.823 222.848 396.034 220.604 425.064 218.372 453.951 228.801 482.441 235.214 496.852 236.255 499.194 237.238 501.633 238.217 504.069 241.11 511.246 244.1 518.664 248.47 523.119 249.001 523.666 249.812 524.869 250.702 526.42 251.102 527.113 251.49 527.986 251.975 529.064 252.991 531.312 254.378 534.388 256.949 538.543 257.373 539.257 258.483 540.615 259.654 542.056 260.617 543.244 261.616 544.467 261.926 544.965 263.007 546.747 263.558 548.049 264.093 549.306 264.607 550.509 265.089 551.648 265.962 553.055 266.553 554.006 267.741 555.046 268.887 556.054 269.658 556.732 270.458 557.429 270.776 557.862 274.342 562.791 276.227 565.018 278.405 567.601 279.054 568.368 279.731 569.171 280.494 570.085 281.208 570.95 282.379 571.57 283.786 571.827 284.382 571.933 285.17 571.994 286.006 571.994 286.842 571.994 287.63 571.933 288.225 571.827 289.632 571.574 290.803 570.954 291.517 570.089 292.281 569.171 292.957 568.367 293.606 567.601 295.785 565.018 297.67 562.787 301.232 557.866 301.554 557.429 302.35 556.727 303.126 556.051 304.272 555.043 305.459 554.003 306.055 553.048 306.924 551.645 307.406 550.506 307.92 549.303 308.454 548.042 309.009 546.741 310.082 544.966 310.392 544.46 311.392 543.236 312.358 542.048 313.529 540.609 314.639 539.249 315.055 538.552 317.633 534.386 319.021 531.31 320.036 529.062 320.521 527.981 320.913 527.108 321.309 526.415 322.198 524.864 323.01 523.665 323.54 523.118 327.905 518.658 330.9 511.241 333.793 504.064 334.772 501.632 335.756 499.193 336.796 496.846 343.21 482.436 353.638 453.941 351.406 425.059 349.158 396.03 334.947 374.818 309.162 362.006 308.647 361.753 308.435 361.133 308.668 360.562 310.043 357.13 310.275 353.936 309.398 350.513 308.276 345.951 307.146 342.765 306.399 340.897 306.13 340.215 306.509 339.301 306.959 338.677 308.791 336.098 311.12 330.697 313.866 322.626 314.046 322.107 314.499 322.03 314.76 322.03 314.891 322.03 315.026 322.051 315.172 322.092 315.682 322.238 316.184 322.349 316.678 322.434 317.486 322.574 318.538 323.254 319.02 323.953 319.387 324.487 319.828 325.042 320.366 325.626 329.886 335.744 339.734 340.566 348.421 344.818 356.446 348.743 364.023 352.456 370.081 359.693 370.518 360.219 370.624 361.325 370.306 362.064 365.031 374.239 365.7 398.788 366.344 422.529 366.83 440.339 367.287 457.156 365.41 468.784 364.374 475.251 363.431 478.034 363.027 479.222 362.761 480.001 362.602 480.474 362.921 480.996 363.223 481.49 363.725 481.563 364.056 481.608 364.431 481.661 365.051 481.754 366.076 482.322 368.577 483.705 368.597 484.244 368.675 486.251 368.716 487.401 368.773 488.98 369.328 491.176 370.837 497.124 371.294 498.602 373.971 500.588 374.787 501.192 375.444 501.425 375.925 501.596 376.721 501.873 377.165 502.029 378.251 505.407 380.013 510.858 380.233 511.56 383.351 513.739 383.853 514.086 384.318 514.387 384.743 514.661 386.763 515.967 387.231 516.334 387.06 517.848 386.635 521.418 388.447 525.583 390.455 527.844 391.446 528.957 392.405 529.525 393.303 529.525 393.764 529.525 394.747 529.358 395.257 528.024 395.939 528.685 396.746 529.24 397.583 529.823 399.945 531.455 402.626 533.307 403.396 538.253 403.649 539.857 404.261 540.668 405.22 540.668 405.758 540.668 406.252 540.378 406.689 539.808 407.794 538.364 408.623 535.009 408.035 532.847 405.629 523.956 400.899 516.951 397.905 515.56 395.314 514.352 393.841 513.569 393.588 511.562 393.192 508.413 392.389 504.585 389.639 502.965 386.665 501.182 385.122 498.885 385.057 496.123 384.952 492.438 381.312 486.078 376.954 481.944 376.268 481.292 375.652 480.059 375.603 479.252 373.743 447.819 376.113 421.152 378.019 399.725 379.161 386.824 380.153 375.686 379.949 366.518 379.932 365.967 380.133 365.13 380.307 364.392 380.442 363.821 380.573 363.266 380.634 362.796 380.719 362.131 380.743 361.327 380.743 360.39 380.653 348.566 355.182 323.673 326.659 312.547 326.61 312.531 326.565 312.515 326.512 312.498 326.439 312.396 326.362 312.262 326.264 312.11 326.043 311.767 325.778 311.347 325.472 310.931 324.354 309.421 322.441 307.622 320.356 306.124 319.76 305.695 319.421 304.803 319.609 304.17 320.034 302.75 320.56 300.991 321.053 298.923 321.2 298.303 321.894 297.773 322.636 297.707 325.782 297.437 327.606 296.026 328.581 294.892L328.899 294.521C329.547 293.754 330.432 292.706 331.122 292.265 333.93 290.486 337.002 288.687 341.037 287.908 356.219 283.718 361.535 279.915 365.81 276.859 369.633 274.13 372.391 272.155 381.159 271.237 382.127 271.135 384.105 270.841 385.374 270.376 385.676 270.266 385.974 270.152 386.252 270.038 386.41 269.973 386.517 269.96 386.582 269.96 386.659 269.96 386.814 269.96 386.852 270.376 388.153 283.098 395.97 303.783 403.531 323.787 410.054 341.042 416.795 358.88 419.243 371.315 421.495 382.658 422.621 383.722 425.273 383.869 425.82 383.898 426.289 383.927 426.901 384.314 427.917 384.959 427.905 385.011 427.669 385.876 427.352 386.956 426.912 388.592 428.098 391.477Z"/></g></g><g></g><g></g><g></g><g></g><g></g><g></g><g></g><g></g><g></g><g></g><g></g><g></g><g></g><g></g><g></g></svg>