<svg width="120" height="120" viewBox="-0.9 -0.9 1.8 1.8" xmlns="http://www.w3.org/2000/svg" xmlns:xlink="http://www.w3.org/1999/xlink" overflow="hidden"><g stroke-width="0.1" stroke-linejoin="round"><path d="M-4.91654e-17-0.717342 0.70405-0.412727 6.31085e-17-0.0217251-0.70405-0.412727Z" stroke="#000000"/><path d="M6.31085e-17-0.0217251 0.70405-0.412727 0.62948 0.369013 5.55895e-17 0.811071Z" stroke="#000000"/><path d="M-0.70405-0.412727 6.31085e-17-0.0217251 5.55895e-17 0.811071-0.62948 0.369013Z" stroke="#000000"/></g><g stroke-width="0" stroke-linejoin="round" stroke-opacity="0.5"><path d="M-4.94395e-17-0.747571 0.195988-0.662775 -1.69796e-17-0.571237-0.195988-0.662775Z" stroke="#000000" fill="#FEFE00"/><path d="M0.232005-0.646547 0.443574-0.55501 0.248232-0.455894 0.0360178-0.55501Z" stroke="#000000" fill="#FEFE00"/><path d="M0.482584-0.537432 0.711669-0.438316 0.517783-0.33064 0.287241-0.438316Z" stroke="#000000" fill="#00D800"/><path d="M-0.232005-0.646547-0.0360178-0.55501-0.248232-0.455894-0.443574-0.55501Z" stroke="#000000" fill="#FFFFFF"/><path d="M-1.19067e-17-0.537432 0.212214-0.438316 1.31258e-17-0.33064-0.212214-0.438316Z" stroke="#000000" fill="#FFFFFF"/><path d="M0.251353-0.419212 0.481896-0.311536 0.270509-0.19414 0.0391397-0.311536Z" stroke="#000000" fill="#FFA100"/><path d="M-0.482584-0.537432-0.287241-0.438316-0.517783-0.33064-0.711669-0.438316Z" stroke="#000000" fill="#FFA100"/><path d="M-0.251353-0.419212-0.0391397-0.311536-0.270509-0.19414-0.481896-0.311536Z" stroke="#000000" fill="#0000F2"/><path d="M1.92197e-17-0.290697 0.231369-0.173301 6.32516e-17-0.0448079-0.231369-0.173301Z" stroke="#000000" fill="#FEFE00"/><path d="M0.0195723-0.0109627 0.250942-0.139456 0.241392 0.126728 0.0195723 0.261716Z" stroke="#000000" fill="#0000F2"/><path d="M0.289305-0.161717 0.500692-0.279112 0.483175-0.0193241 0.279756 0.104467Z" stroke="#000000" fill="#FFFFFF"/><path d="M0.535863-0.299524 0.729748-0.4072 0.705564-0.153667 0.518346-0.0397354Z" stroke="#000000" fill="#FFFFFF"/><path d="M0.0187965 0.307401 0.240616 0.172412 0.231823 0.417493 0.0187965 0.557525Z" stroke="#000000" fill="#EE0000"/><path d="M0.277485 0.149132 0.480904 0.0253404 0.464721 0.265355 0.268692 0.394213Z" stroke="#000000" fill="#EE0000"/><path d="M0.514823 0.00392025 0.70204-0.110011 0.679626 0.124964 0.498639 0.243935Z" stroke="#000000" fill="#00D800"/><path d="M0.0180798 0.599571 0.231107 0.459539 0.222984 0.685932 0.0180798 0.829828Z" stroke="#000000" fill="#EE0000"/><path d="M0.266593 0.435463 0.462622 0.306605 0.447625 0.52902 0.258471 0.661855Z" stroke="#000000" fill="#EE0000"/><path d="M0.495373 0.284382 0.67636 0.165411 0.655529 0.383795 0.480376 0.506797Z" stroke="#000000" fill="#00D800"/><path d="M-0.730337-0.406648-0.536451-0.298972-0.518934-0.0391834-0.706152-0.153115Z" stroke="#000000" fill="#0000F2"/><path d="M-0.501395-0.278548-0.290008-0.161152-0.280459 0.105031-0.483878-0.0187598Z" stroke="#000000" fill="#FFFFFF"/><path d="M-0.251784-0.138883-0.0204149-0.0103896-0.0204149 0.262289-0.242234 0.127301Z" stroke="#000000" fill="#FFA100"/><path d="M-0.70259-0.109567-0.515373 0.00436485-0.499189 0.244379-0.680176 0.125409Z" stroke="#000000" fill="#00D800"/><path d="M-0.481557 0.0257875-0.278137 0.149579-0.269344 0.39466-0.465373 0.265802Z" stroke="#000000" fill="#00D800"/><path d="M-0.241392 0.172857-0.0195723 0.307846-0.0195723 0.55797-0.232599 0.417938Z" stroke="#000000" fill="#00D800"/><path d="M-0.676875 0.165767-0.495888 0.284737-0.480891 0.507153-0.656043 0.384151Z" stroke="#000000" fill="#00D800"/><path d="M-0.463228 0.306955-0.2672 0.435813-0.259078 0.662206-0.448232 0.529371Z" stroke="#000000" fill="#00D800"/><path d="M-0.231823 0.45988-0.0187965 0.599912-0.0187965 0.830168-0.223701 0.686273Z" stroke="#000000" fill="#00D800"/></g></svg>