<svg version="1.1" viewBox="0 0 231.3 298.03" xmlns="http://www.w3.org/2000/svg" xmlns:xlink="http://www.w3.org/1999/xlink" overflow="hidden"><defs></defs><g id="bb4b91a3-9b4a-4c0e-a53a-4412ef46496b"><g id="a32e7edf-9252-4bb0-aeff-4209d7b23e89"><path d=" M 151.56 182.24 L 92.75 182.23 L 74.57 126.33 L 122.15 91.76 L 169.73 126.32 L 151.56 182.24 Z" fill="#808080"/><path d=" M 151.56 182.24 L 169.73 126.32 L 122.15 91.76 L 74.57 126.33 L 92.75 182.23 L 151.56 182.24 Z" stroke="#040000" stroke-miterlimit="10" fill="none"/><path d=" M 72.69 125.7 C 72.8188 125.299 73.0707 124.949 73.41 124.7 L 121 90.16 C 121.699 89.6561 122.641 89.6561 123.34 90.16 L 170.92 124.72 C 171.62 125.228 171.914 126.127 171.65 126.95 L 153.48 182.87 C 153.208 183.689 152.442 184.241 151.58 184.24 L 92.76 184.24 C 91.8949 184.239 91.1282 183.683 90.86 182.86 L 72.69 126.93 C 72.5551 126.531 72.5551 126.099 72.69 125.7 Z M 122.15 94.24 L 76.93 127.08 L 94.21 180.24 L 150.11 180.24 L 167.38 127.08 Z" stroke="#040000" stroke-miterlimit="10" fill="#211613"/><path d=" M 151.72 255.24 L 169.97 280.14 L 122.2 295.53 L 74.46 280.13 L 92.69 255.23 L 151.72 255.24 Z" stroke="#040000" stroke-miterlimit="10" fill="#FFA100" fill-rule="evenodd"/><path d=" M 171.58 279 L 153.33 254.1 C 152.954 253.586 152.357 253.282 151.72 253.28 L 92.72 253.28 C 92.0834 253.282 91.4856 253.586 91.11 254.1 L 72.85 279 C 72.7243 279.17 72.6264 279.359 72.56 279.56 L 72.56 279.56 C 72.5285 279.651 72.5051 279.745 72.49 279.84 C 72.5298 280.095 72.5499 280.352 72.55 280.61 C 72.92 281.26 73.34 281.89 74.05 282.03 C 74.2253 282.064 74.3898 282.139 74.53 282.25 L 121.6 297.43 C 121.997 297.557 122.423 297.557 122.82 297.43 L 170.58 282 C 171.642 281.576 172.159 280.372 171.735 279.31 C 171.692 279.203 171.64 279.099 171.58 279 Z M 122.2 293.43 L 77.71 279.08 L 93.71 257.23 L 150.71 257.23 L 166.71 279.08 Z" stroke="#040000" stroke-miterlimit="10" fill="#060001"/><path d=" M 92.69 255.23 L 109.13 232.8 L 135.3 232.81 L 151.72 255.24 L 92.69 255.23 Z" stroke="#040000" stroke-miterlimit="10" fill="#FFA100" fill-rule="evenodd"/><path d=" M 90.79 254.62 C 90.8522 254.417 90.9504 254.228 91.08 254.06 L 107.52 231.63 C 107.893 231.119 108.487 230.815 109.12 230.81 L 135.3 230.81 C 135.935 230.809 136.532 231.11 136.91 231.62 L 153.33 254.06 C 153.976 254.956 153.774 256.206 152.878 256.852 C 152.541 257.095 152.136 257.228 151.72 257.23 L 93.27 257.23 C 92.2175 257.565 91.0926 256.983 90.7576 255.931 C 90.6311 255.534 90.632 255.107 90.76 254.71 Z M 110.14 234.8 L 96.62 253.24 L 147.79 253.24 L 134.29 234.81 Z" stroke="#040000" stroke-miterlimit="10" fill="#060001"/><path d=" M 135.3 232.81 L 188.37 232.8 L 204.79 255.22 L 151.72 255.24 L 135.3 232.81 Z" stroke="#040000" stroke-miterlimit="10" fill="#FFA100" fill-rule="evenodd"/><path d=" M 205.34 256.75 C 205.372 256.712 205.409 256.678 205.45 256.65 C 205.867 256.373 206.21 255.999 206.45 255.56 C 206.45 255.56 206.45 255.56 206.45 255.51 C 206.486 255.378 206.544 255.253 206.62 255.14 C 206.62 255.08 206.62 255.03 206.69 254.97 C 206.688 254.937 206.688 254.903 206.69 254.87 C 206.655 254.572 206.548 254.288 206.38 254.04 L 190 231.62 C 189.624 231.106 189.027 230.802 188.39 230.8 L 135.3 230.8 C 134.549 230.8 133.862 231.221 133.52 231.89 C 133.472 231.983 133.431 232.08 133.4 232.18 C 133.199 232.79 133.303 233.46 133.68 233.98 L 150.11 256.41 C 150.488 256.92 151.085 257.221 151.72 257.22 L 204.02 257.22 C 204.473 257.104 204.915 256.947 205.34 256.75 Z M 152.73 253.24 L 139.23 234.8 L 187.36 234.8 L 200.86 253.23 Z" stroke="#040000" stroke-miterlimit="10" fill="#060001"/><path d=" M 74.59 126.32 L 33.63 156.08 L 42.15 182.25 L 92.76 182.23 L 74.59 126.32 Z" stroke="#040000" stroke-miterlimit="10" fill="#808080" fill-rule="evenodd"/><path d=" M 42.15 182.25 L 58.51 232.63 L 109.12 232.62 L 92.76 182.23 L 42.15 182.25 Z" stroke="#040000" stroke-miterlimit="10" fill="#808080" fill-rule="evenodd"/><path d=" M 40.25 181.63 C 40.3143 181.428 40.4123 181.239 40.54 181.07 C 40.9156 180.556 41.5134 180.252 42.15 180.25 L 92.76 180.25 C 93.6252 180.251 94.3918 180.807 94.66 181.63 L 111 232 C 111.209 232.608 111.1 233.279 110.71 233.79 C 110.334 234.304 109.737 234.608 109.1 234.61 L 58.51 234.61 C 57.6449 234.609 56.8782 234.053 56.61 233.23 L 40.25 182.86 C 40.1208 182.46 40.1208 182.03 40.25 181.63 Z M 91.31 184.23 L 44.89 184.23 L 60 230.63 L 106.42 230.63 Z" stroke="#040000" stroke-miterlimit="10" fill="#060001"/><path d=" M 33.63 156.08 L 74.59 126.32 L 58.23 75.98 L 17.29 105.74 L 33.63 156.08 Z" stroke="#040000" stroke-miterlimit="10" fill="#808080" fill-rule="evenodd"/><path d=" M 15.39 105.13 C 15.5122 104.726 15.7656 104.374 16.11 104.13 L 57.05 74.37 C 57.566 73.9929 58.2313 73.8851 58.84 74.08 C 59.4487 74.2801 59.9246 74.7598 60.12 75.37 L 76.48 125.71 C 76.7414 126.528 76.4516 127.421 75.76 127.93 L 34.76 157.69 C 33.8639 158.336 32.6139 158.133 31.9681 157.237 C 31.8478 157.07 31.754 156.885 31.69 156.69 L 15.39 106.36 C 15.2551 105.961 15.2551 105.529 15.39 105.13 Z M 57.18 79.22 L 19.63 106.5 L 34.68 152.84 L 72.24 125.56 Z" stroke="#040000" stroke-miterlimit="10" fill="#060001"/><path d=" M 122.15 91.78 L 79.33 60.65 L 58.23 75.98 L 74.59 126.32 L 122.15 91.78 Z" stroke="#040000" stroke-miterlimit="10" fill="#808080" fill-rule="evenodd"/><path d=" M 92.76 182.23 L 109.12 232.62 L 135.2 232.61 L 151.56 182.25 L 92.76 182.23 Z" stroke="#040000" stroke-miterlimit="10" fill="#808080" fill-rule="evenodd"/><path d=" M 169.73 126.33 L 186.06 76.07 L 164.91 60.71 L 122.15 91.78 L 169.73 126.33 Z" stroke="#040000" stroke-miterlimit="10" fill="#808080" fill-rule="evenodd"/><path d=" M 164.91 60.71 L 122.08 29.59 L 79.33 60.65 L 122.15 91.78 L 164.91 60.71 Z" stroke="#040000" stroke-miterlimit="10" fill="#808080" fill-rule="evenodd"/><path d=" M 135.2 232.61 L 188.03 232.61 L 204.4 182.24 L 151.56 182.25 L 135.2 232.61 Z" stroke="#040000" stroke-miterlimit="10" fill="#808080" fill-rule="evenodd"/><path d=" M 212.47 157.39 L 228.8 107.14 L 186.06 76.07 L 169.73 126.33 L 212.47 157.39 Z" stroke="#040000" stroke-miterlimit="10" fill="#808080" fill-rule="evenodd"/><path d=" M 151.56 182.25 L 204.4 182.24 L 212.47 157.39 L 169.73 126.33 L 151.56 182.25 Z" stroke="#040000" stroke-miterlimit="10" fill="#808080" fill-rule="evenodd"/><path d=" M 30.89 19.25 C 21.39 32.49 11.9267 45.67 2.5 58.79 C 7.3 60.26 12.15 61.68 16.99 63.18 C 21.83 64.68 26.72 66.11 31.61 67.6 C 39.4033 61.9133 47.2267 56.21 55.08 50.49 L 78.85 33.16 C 78.75 28.16 78.68 23.08 78.57 18.06 C 78.46 13.04 78.4 8 78.32 3 C 62.38 8.44667 46.57 13.8633 30.89 19.25 Z" stroke="#040000" stroke-miterlimit="10" fill="#EEE8AA" fill-rule="evenodd"/><path d=" M 0.6 58.18 C 0.659319 57.9831 0.75053 57.7973 0.87 57.63 C 8.33 47.27 15.7933 36.8767 23.26 26.45 L 29.26 18.08 C 29.5092 17.7407 29.8592 17.4888 30.26 17.36 L 77.67 1.09 C 78.7146 0.730967 79.8524 1.28672 80.2115 2.33131 C 80.2854 2.54642 80.3221 2.77256 80.32 3 L 80.85 33.17 C 80.829 33.806 80.5152 34.3966 80 34.77 L 32.79 69.21 C 32.283 69.5808 31.6312 69.6919 31.03 69.51 L 16.42 65.09 C 13.62 64.23 10.83 63.3867 8.05 62.56 L 1.92 60.7 C 1.30442 60.5121 0.816883 60.0395 0.61 59.43 C 0.466553 59.0262 0.463031 58.586 0.6 58.18 Z M 32.14 20.93 L 26.51 28.78 C 19.5767 38.4533 12.6567 48.09 5.75 57.69 L 9.19 58.69 C 11.99 59.5233 14.7867 60.37 17.58 61.23 L 31.24 65.4 L 76.84 32.16 L 76.37 5.75 Z" stroke="#040000" stroke-miterlimit="10" fill="#060001"/><path d=" M 31.61 67.6 C 40.4233 70.2667 49.2833 72.9533 58.19 75.66 L 79.31 60.39 C 79.15 51.3 79 42.24 78.85 33.16 L 55.08 50.49 C 47.2267 56.2167 39.4033 61.92 31.61 67.6 Z" stroke="#040000" stroke-miterlimit="10" fill="#EEE8AA" fill-rule="evenodd"/><path d=" M 29.71 67 C 29.8446 66.6022 30.0954 66.2538 30.43 66 L 77.67 31.55 C 78.5657 30.9036 79.8158 31.1056 80.4622 32.0013 C 80.6998 32.3305 80.8315 32.7241 80.84 33.13 L 81.31 60.36 C 81.3158 61.009 81.0064 61.6204 80.48 62 L 59.36 77.28 C 58.8513 77.6474 58.1997 77.7548 57.6 77.57 C 48.7 74.9033 39.8433 72.2167 31.03 69.51 C 30.3046 69.2894 29.7664 68.6776 29.64 67.93 C 29.5957 67.6186 29.6195 67.3013 29.71 67 Z M 76.91 37 L 36 66.86 C 43.2267 69.06 50.4933 71.26 57.8 73.46 L 77.3 59.38 Z" stroke="#040000" stroke-miterlimit="10" fill="#060001"/><path d=" M 165.14 33.35 C 165.227 42.5633 165.337 51.8 165.47 61.06 C 172.597 66.26 179.747 71.4567 186.92 76.65 C 195.74 73.88 204.54 71.08 213.38 68.31 C 205.293 62.47 197.24 56.6367 189.22 50.81 C 181.2 44.9833 173.173 39.1633 165.14 33.35 Z" stroke="#040000" stroke-miterlimit="10" fill="#00D800" fill-rule="evenodd"/><path d=" M 163.24 32.73 C 163.409 32.2297 163.768 31.8163 164.24 31.58 C 164.908 31.2389 165.712 31.3007 166.32 31.74 C 174.32 37.56 182.347 43.3767 190.4 49.19 L 190.8 49.48 C 198.68 55.2133 206.597 60.95 214.55 66.69 C 215.166 67.1312 215.479 67.8821 215.36 68.63 C 215.222 69.3642 214.704 69.9697 214 70.22 L 187.54 78.56 C 186.94 78.7448 186.289 78.6374 185.78 78.27 C 178.593 73.0833 171.433 67.8867 164.3 62.68 C 163.791 62.3128 163.483 61.7278 163.47 61.1 C 163.343 51.82 163.233 42.5767 163.14 33.37 C 163.142 33.153 163.176 32.9374 163.24 32.73 Z M 209 67.6 C 202.133 62.64 195.29 57.68 188.47 52.72 C 181.15 47.42 174.15 42.35 167.2 37.3 C 167.28 44.86 167.37 52.44 167.47 60.04 L 187.3 74.45 Z" stroke="#040000" stroke-miterlimit="10" fill="#060001"/><path d=" M 122 2.09 C 122 11.2433 122.05 20.4167 122.15 29.61 C 136.563 40.0767 151.007 50.56 165.48 61.06 C 165.34 51.8 165.23 42.5633 165.15 33.35 C 150.723 22.9233 136.34 12.5033 122 2.09 Z" stroke="#040000" stroke-miterlimit="10" fill="#00D800" fill-rule="evenodd"/><path d=" M 166.38 62.84 C 167.064 62.4859 167.485 61.7702 167.46 61 C 167.32 51.74 167.23 42.51 167.14 33.31 C 167.138 32.6734 166.834 32.0756 166.32 31.7 L 123.36 0.61 C 122.458 0.419657 121.519 0.510399 120.67 0.87 C 120.614 0.878811 120.556 0.878811 120.5 0.87 L 120.5 0.87 L 120.38 0.87 C 120.265 1.02914 120.174 1.20435 120.11 1.39 C 120.042 1.58955 120.008 1.79917 120.01 2.01 C 120.01 9.43 120.05 16.87 120.13 24.33 L 120.13 29.55 C 120.135 30.1831 120.439 30.7765 120.95 31.15 L 164.3 62.68 C 164.908 63.1193 165.712 63.1811 166.38 62.84 Z M 124.13 28.59 L 124.13 24.38 C 124.13 18.24 124.04 12.12 124.02 6.01 L 163.17 34.38 C 163.25 41.94 163.34 49.5167 163.44 57.11 Z" stroke="#040000" stroke-miterlimit="10" fill="#060001"/><path d=" M 31.73 155.46 C 31.8542 155.054 32.1113 154.702 32.46 154.46 L 73.41 124.7 C 74.3061 124.054 75.5561 124.257 76.2019 125.153 C 76.3222 125.32 76.416 125.505 76.48 125.7 L 94.66 181.61 C 94.8689 182.218 94.7601 182.889 94.37 183.4 C 93.9944 183.914 93.3966 184.218 92.76 184.22 L 42.15 184.22 C 41.2875 184.221 40.5217 183.669 40.25 182.85 L 31.73 156.7 C 31.5986 156.297 31.5986 155.863 31.73 155.46 Z M 73.54 129.55 L 36 156.84 L 43.62 180.25 L 90.03 180.25 Z" stroke="#040000" stroke-miterlimit="10" fill="#060001"/><path d=" M 56.33 75.37 C 56.4588 74.9692 56.7107 74.6193 57.05 74.37 L 78.15 59 C 78.8507 58.4913 79.7993 58.4913 80.5 59 L 123.32 90.12 C 123.837 90.4977 124.142 91.0999 124.14 91.74 C 124.159 92.3815 123.85 92.9885 123.32 93.35 L 75.76 127.93 C 74.8639 128.576 73.6139 128.373 72.9681 127.477 C 72.8478 127.31 72.754 127.125 72.69 126.93 L 56.33 76.6 C 56.1951 76.2011 56.1951 75.7689 56.33 75.37 Z M 79.33 63.12 L 60.57 76.74 L 75.63 123.09 L 118.75 91.78 Z" stroke="#040000" stroke-miterlimit="10" fill="#060001"/><path d=" M 90.86 181.62 C 90.9264 181.419 91.0243 181.23 91.15 181.06 C 91.5256 180.546 92.1234 180.242 92.76 180.24 L 151.56 180.24 C 152.2 180.238 152.802 180.543 153.18 181.06 C 153.554 181.578 153.658 182.243 153.46 182.85 L 137.1 233.23 C 136.828 234.049 136.062 234.601 135.2 234.6 L 109.12 234.6 C 108.255 234.599 107.488 234.043 107.22 233.22 L 90.86 182.85 C 90.7308 182.45 90.7308 182.02 90.86 181.62 Z M 148.86 184.24 L 95.5 184.24 L 110.57 230.63 L 133.75 230.63 Z" stroke="#040000" stroke-miterlimit="10" fill="#060001"/><path d=" M 120.25 91.16 C 120.381 90.7579 120.637 90.4077 120.98 90.16 L 163.74 59.1 C 164.439 58.5961 165.381 58.5961 166.08 59.1 L 187.23 74.46 C 187.93 74.9675 188.224 75.867 187.96 76.69 L 171.63 127 C 171.286 128.05 170.157 128.622 169.107 128.278 C 168.911 128.214 168.727 128.12 168.56 128 L 121 93.39 C 120.486 93.0144 120.182 92.4166 120.18 91.78 C 120.168 91.5708 120.191 91.3611 120.25 91.16 Z M 164.91 63.16 L 125.55 91.77 L 168.68 123.1 L 183.68 76.83 Z" stroke="#040000" stroke-miterlimit="10" fill="#060001"/><path d=" M 77.43 60 C 77.565 59.5997 77.8199 59.2506 78.16 59 L 120.91 28 C 121.611 27.4913 122.559 27.4913 123.26 28 L 166.08 59.1 C 166.602 59.4689 166.909 60.071 166.9 60.71 C 166.921 61.3519 166.612 61.9597 166.08 62.32 L 123.32 93.39 C 122.621 93.8939 121.679 93.8939 120.98 93.39 L 78.16 62.26 C 77.6382 61.8911 77.3315 61.289 77.34 60.65 C 77.3259 60.4295 77.3565 60.2084 77.43 60 Z M 122.09 32 L 82.72 60.65 L 122.15 89.31 L 161.51 60.72 Z" stroke="#040000" stroke-miterlimit="10" fill="#060001"/><path d=" M 133.3 232 L 149.66 181.64 C 149.932 180.821 150.698 180.269 151.56 180.27 L 204.4 180.27 C 205.039 180.261 205.641 180.568 206.01 181.09 C 206.387 181.606 206.495 182.271 206.3 182.88 L 189.93 233.25 C 189.662 234.073 188.895 234.629 188.03 234.63 L 135.2 234.63 C 134.095 234.627 133.202 233.73 133.205 232.625 C 133.205 232.42 133.237 232.216 133.3 232.02 Z M 153 184.25 L 137.93 230.62 L 186.57 230.62 L 201.64 184.24 Z" stroke="#040000" stroke-miterlimit="10" fill="#060001"/><path d=" M 167.83 125.71 L 184.16 75.45 C 184.504 74.4003 185.633 73.8281 186.683 74.1719 C 186.879 74.2359 187.063 74.3297 187.23 74.45 L 230 105.52 C 230.7 106.028 230.994 106.927 230.73 107.75 L 214.37 158 C 214.026 159.05 212.897 159.622 211.847 159.278 C 211.651 159.214 211.467 159.12 211.3 159 L 168.56 127.94 C 167.86 127.432 167.566 126.533 167.83 125.71 Z M 187.11 79.3 L 172.11 125.57 L 211.45 154.16 L 226.45 107.9 Z" stroke="#040000" stroke-miterlimit="10" fill="#060001"/><path d=" M 149.66 181.63 L 167.83 125.71 C 168.174 124.66 169.303 124.088 170.353 124.432 C 170.549 124.496 170.733 124.59 170.9 124.71 L 213.65 155.77 C 214.346 156.28 214.636 157.179 214.37 158 L 206.3 182.85 C 206.028 183.669 205.262 184.221 204.4 184.22 L 151.56 184.22 C 150.921 184.229 150.319 183.922 149.95 183.4 C 149.579 182.889 149.472 182.233 149.66 181.63 Z M 170.78 129.56 L 154.31 180.26 L 203 180.26 L 210.18 158.16 Z" stroke="#040000" stroke-miterlimit="10" fill="#060001"/></g></g></svg>