<svg version="1.1" viewBox="0 0 255.9 269.98" xmlns="http://www.w3.org/2000/svg" xmlns:xlink="http://www.w3.org/1999/xlink" overflow="hidden"><defs></defs><g id="b0cf0181-8c4e-470b-9500-187875bf8479"><g id="b985f7ed-32eb-4ed4-9f75-a6edbc4b425b"><path d=" M 148.52 64.69 L 196.08 99.24 L 177.93 155.15 L 119.12 155.16 L 100.95 99.26 L 148.52 64.69 Z" fill="#808080"/><path d=" M 148.52 64.69 L 100.95 99.26 L 119.12 155.16 L 177.93 155.15 L 196.08 99.24 L 148.52 64.69 Z" stroke="#040000" stroke-miterlimit="10" fill="none"/><path d=" M 179.09 156.79 C 178.75 157.036 178.34 157.169 177.92 157.17 L 119.13 157.17 C 118.269 157.165 117.507 156.609 117.24 155.79 L 99.06 99.86 C 98.7938 99.0392 99.0841 98.1402 99.78 97.63 L 147.35 63.06 C 148.049 62.5561 148.991 62.5561 149.69 63.06 L 197.25 97.63 C 197.95 98.1375 198.244 99.037 197.98 99.86 L 179.81 155.78 C 179.689 156.187 179.436 156.543 179.09 156.79 Z M 120.58 153.16 L 176.47 153.16 L 193.73 100 L 148.52 67.15 L 103.3 100 Z" stroke="#040000" stroke-miterlimit="10" fill="#211613"/><path d=" M 177.92 155.17 L 228.54 155.17 L 237.03 128.99 L 196.08 99.26 L 177.92 155.17 Z" stroke="#040000" stroke-miterlimit="10" fill="#808080" fill-rule="evenodd"/><path d=" M 237.03 128.99 L 253.41 78.62 L 212.46 48.88 L 196.08 99.26 L 237.03 128.99 Z" stroke="#040000" stroke-miterlimit="10" fill="#808080" fill-rule="evenodd"/><path d=" M 238.21 130.61 C 238.039 130.732 237.85 130.827 237.65 130.89 C 237.043 131.088 236.378 130.984 235.86 130.61 L 194.86 100.87 C 194.164 100.36 193.874 99.4608 194.14 98.64 L 210.51 48.26 C 210.724 47.6497 211.219 47.1803 211.84 47 C 212.449 46.8051 213.114 46.9129 213.63 47.29 L 254.63 77.03 C 255.326 77.5402 255.616 78.4392 255.35 79.26 L 238.98 129.63 C 238.834 130.03 238.564 130.374 238.21 130.61 Z M 198.43 98.49 L 236 125.76 L 251.07 79.38 L 213.5 52.11 Z" stroke="#040000" stroke-miterlimit="10" fill="#060001"/><path d=" M 228.54 155.17 L 177.92 155.17 L 161.57 205.51 L 212.18 205.5 L 228.54 155.17 Z" stroke="#040000" stroke-miterlimit="10" fill="#808080" fill-rule="evenodd"/><path d=" M 213.35 207.12 C 213.011 207.368 212.6 207.498 212.18 207.49 L 161.57 207.49 C 160.93 207.492 160.328 207.187 159.95 206.67 C 159.573 206.15 159.469 205.48 159.67 204.87 L 176 154.55 C 176.272 153.731 177.038 153.179 177.9 153.18 L 228.52 153.18 C 229.625 153.183 230.518 154.08 230.515 155.185 C 230.515 155.39 230.483 155.594 230.42 155.79 L 214.06 206.12 C 213.934 206.519 213.686 206.869 213.35 207.12 Z M 164.35 203.51 L 210.76 203.51 L 225.82 157.17 L 179.37 157.17 Z" stroke="#040000" stroke-miterlimit="10" fill="#060001"/><path d=" M 119.13 155.16 L 135.48 205.51 L 161.57 205.51 L 177.92 155.17 L 119.13 155.16 Z" stroke="#040000" stroke-miterlimit="10" fill="#808080" fill-rule="evenodd"/><path d=" M 196.08 99.26 L 212.46 48.88 L 191.36 33.56 L 148.52 64.68 L 196.08 99.26 Z" stroke="#040000" stroke-miterlimit="10" fill="#808080" fill-rule="evenodd"/><path d=" M 100.95 99.24 L 58.2 130.3 L 66.28 155.16 L 119.13 155.16 L 100.95 99.24 Z" stroke="#040000" stroke-miterlimit="10" fill="#808080" fill-rule="evenodd"/><path d=" M 66.28 155.16 L 82.64 205.51 L 135.48 205.51 L 119.13 155.16 L 66.28 155.16 Z" stroke="#040000" stroke-miterlimit="10" fill="#808080" fill-rule="evenodd"/><path d=" M 191.36 33.56 L 148.62 2.5 L 105.77 33.63 L 148.52 64.68 L 191.36 33.56 Z" stroke="#040000" stroke-miterlimit="10" fill="#808080" fill-rule="evenodd"/><path d=" M 84.63 48.99 L 41.88 80.05 L 58.2 130.3 L 100.95 99.24 L 84.63 48.99 Z" stroke="#040000" stroke-miterlimit="10" fill="#808080" fill-rule="evenodd"/><path d=" M 148.52 64.68 L 105.77 33.63 L 84.63 48.99 L 100.95 99.24 L 148.52 64.68 Z" stroke="#040000" stroke-miterlimit="10" fill="#808080" fill-rule="evenodd"/><path d=" M 149.61 267.72 C 165.203 262.573 180.737 257.43 196.21 252.29 C 193.15 248.29 190.04 244.21 186.98 240.12 C 183.92 236.03 180.78 231.97 177.67 227.85 C 167.95 227.85 158.18 227.85 148.39 227.9 L 118.73 227.9 C 115.83 232.07 112.89 236.22 110 240.38 C 107.11 244.54 104.19 248.69 101.27 252.83 Z" stroke="#040000" stroke-miterlimit="10" fill="#FFA100" fill-rule="evenodd"/><path d=" M 197.72 253.79 C 197.555 253.91 197.373 254.005 197.18 254.07 C 185.06 258.07 172.913 262.09 160.74 266.13 L 151 269.38 C 150.606 269.5 150.184 269.5 149.79 269.38 L 101.85 254.66 C 100.808 254.294 100.259 253.153 100.625 252.111 C 100.68 251.952 100.756 251.8 100.85 251.66 L 118.16 226.94 C 118.533 226.402 119.146 226.081 119.8 226.08 L 178.25 225.98 C 178.878 225.978 179.47 226.27 179.85 226.77 L 189 238.9 C 190.75 241.24 192.52 243.56 194.28 245.9 L 198.15 251 C 198.537 251.515 198.653 252.185 198.46 252.8 C 198.328 253.202 198.068 253.55 197.72 253.79 Z M 150.31 265.39 L 159.48 262.34 L 193.27 251.16 L 191.1 248.29 C 189.32 245.97 187.553 243.637 185.8 241.29 L 177.18 229.92 L 120.75 230.01 L 105.61 251.64 Z" stroke="#040000" stroke-miterlimit="10" fill="#060001"/><path d=" M 177.67 227.85 C 172.083 220.443 166.45 213.003 160.77 205.53 L 134.49 205.46 L 118.73 228 L 148.39 228 C 158.18 227.88 168 227.88 177.67 227.85 Z" stroke="#040000" stroke-miterlimit="10" fill="#FFA100" fill-rule="evenodd"/><path d=" M 179.34 229.55 C 179.001 229.8 178.591 229.936 178.17 229.94 L 119.71 230.03 C 118.605 230.023 117.716 229.121 117.723 228.017 C 117.726 227.614 117.85 227.221 118.08 226.89 L 133.71 204.58 C 134.085 204.046 134.697 203.729 135.35 203.73 L 161.41 203.8 C 162.036 203.803 162.624 204.099 163 204.6 C 168.62 212 174.207 219.377 179.76 226.73 C 180.22 227.335 180.298 228.149 179.96 228.83 C 179.814 229.116 179.602 229.363 179.34 229.55 Z M 123.56 226 L 174.17 225.92 L 160.42 207.76 L 136.42 207.7 Z" stroke="#040000" stroke-miterlimit="10" fill="#060001"/><path d=" M 3.12 161.22 C 12.8733 174.833 22.6233 188.453 32.37 202.08 C 35.3 197.95 38.22 193.78 41.17 189.65 C 44.12 185.52 47.05 181.31 50.01 177.16 C 46.9633 167.72 43.8933 158.297 40.8 148.89 C 37.7067 139.483 34.62 130.03 31.54 120.53 L 17 115.68 C 12.18 114.07 7.32 112.45 2.49 110.82 C 2.71 127.673 2.92 144.473 3.12 161.22 Z" stroke="#040000" stroke-miterlimit="10" fill="#ADD8E6" fill-rule="evenodd"/><path d=" M 33.54 203.7 C 32.6425 204.343 31.3936 204.137 30.75 203.24 C 20.99 189.593 11.2367 175.973 1.49 162.38 C 1.25496 162.05 1.12592 161.655 1.12 161.25 L 0.5 110.84 C 0.536644 109.703 1.48816 108.811 2.62528 108.847 C 2.79966 108.853 2.97262 108.881 3.14 108.93 L 32.14 118.63 C 32.7365 118.831 33.2033 119.302 33.4 119.9 C 36.48 129.233 39.5267 138.567 42.54 147.9 C 45.76 157.72 48.83 167.14 51.88 176.56 C 52.0772 177.163 51.9771 177.823 51.61 178.34 L 47.47 184.19 C 45.9 186.42 44.34 188.63 42.77 190.84 C 40.84 193.53 38.92 196.25 37.01 198.96 L 34.01 203.26 C 33.8781 203.431 33.7194 203.58 33.54 203.7 Z M 5.1 160.57 C 14.1933 173.237 23.28 185.927 32.36 198.64 L 33.77 196.64 C 35.69 193.92 37.6167 191.203 39.55 188.49 C 41.11 186.31 42.67 184.09 44.24 181.87 L 47.8 176.87 C 44.8533 167.757 41.8833 158.647 38.89 149.54 C 35.89 140.19 32.89 131.17 29.95 122.14 L 4.53 113.6 Z" stroke="#040000" stroke-miterlimit="10" fill="#060001"/><path d=" M 15.57 71.55 C 20.9033 87.91 26.2367 104.243 31.57 120.55 C 40.35 123.55 49.11 126.41 57.88 129.35 C 52.5467 113.03 47.2133 96.67 41.88 80.27 C 33.11 77.37 24.32 74.45 15.57 71.55 Z" stroke="#040000" stroke-miterlimit="10" fill="#ADD8E6" fill-rule="evenodd"/><path d=" M 59 130.94 C 58.4774 131.32 57.8031 131.425 57.19 131.22 L 30.88 122.42 C 30.2813 122.217 29.814 121.742 29.62 121.14 C 25.0533 107.047 20.4567 92.92 15.83 78.76 L 13.67 72.17 C 13.3329 71.1181 13.9124 69.9921 14.9643 69.6551 C 15.3664 69.5263 15.7989 69.528 16.2 69.66 L 20.73 71.16 C 28 73.56 35.25 76 42.51 78.35 C 43.1164 78.5481 43.5919 79.0236 43.79 79.63 L 59.79 128.71 C 60.0088 129.416 59.8203 130.185 59.3 130.71 C 59.2106 130.8 59.1097 130.877 59 130.94 Z M 33.1 118.94 L 54.7 126.17 L 40.31 81.84 C 33.31 79.56 26.41 77.24 19.47 74.95 L 18.7 74.69 L 19.62 77.52 C 24.14 91.36 28.64 105.187 33.12 119 Z" stroke="#040000" stroke-miterlimit="10" fill="#060001"/><path d=" M 50 177.16 C 55.3333 169.653 60.6667 162.117 66 154.55 C 63.3333 146.183 60.6167 137.777 57.85 129.33 C 49.08 126.39 40.32 123.48 31.54 120.53 C 34.6467 130.003 37.7333 139.457 40.8 148.89 C 43.8667 158.323 46.9333 167.747 50 177.16 Z" stroke="#040000" stroke-miterlimit="10" fill="#ADD8E6" fill-rule="evenodd"/><path d=" M 51.19 178.77 C 50.2939 179.416 49.0439 179.213 48.3981 178.317 C 48.2778 178.15 48.184 177.965 48.12 177.77 C 45.0533 168.363 41.9767 158.94 38.89 149.5 L 38.74 149.03 C 35.74 139.77 32.7067 130.477 29.64 121.15 C 29.4212 120.444 29.6097 119.675 30.13 119.15 C 30.6759 118.63 31.4602 118.447 32.18 118.67 L 58.48 127.47 C 59.0826 127.671 59.5539 128.146 59.75 128.75 C 62.4767 137.15 65.2033 145.557 67.93 153.97 C 68.1234 154.565 68.0272 155.216 67.67 155.73 C 62.3367 163.317 57.0033 170.86 51.67 178.36 C 51.5337 178.522 51.3715 178.661 51.19 178.77 Z M 34.68 123.68 C 37.3467 131.74 39.9667 139.777 42.54 147.79 C 45.35 156.38 48.03 164.6 50.69 172.79 C 55.07 166.617 59.45 160.43 63.83 154.23 C 61.3167 146.47 58.7933 138.7 56.26 130.92 Z" stroke="#040000" stroke-miterlimit="10" fill="#060001"/><path d=" M 229.72 156.79 C 229.38 157.036 228.97 157.169 228.55 157.17 L 177.92 157.17 C 176.815 157.169 175.921 156.273 175.921 155.169 C 175.922 154.958 175.955 154.75 176.02 154.55 L 194.19 98.64 C 194.368 98.0215 194.852 97.538 195.47 97.36 C 196.074 97.1656 196.735 97.2695 197.25 97.64 L 238.2 127.38 C 238.9 127.888 239.194 128.787 238.93 129.61 L 230.45 155.79 C 230.315 156.19 230.06 156.539 229.72 156.79 Z M 180.67 153.17 L 227.09 153.17 L 234.69 129.76 L 197.13 102.49 Z" stroke="#040000" stroke-miterlimit="10" fill="#060001"/><path d=" M 162.74 207.13 C 162.4 207.376 161.99 207.509 161.57 207.51 L 135.49 207.51 C 134.625 207.509 133.858 206.953 133.59 206.13 L 117.24 155.78 C 117.042 155.173 117.146 154.508 117.52 153.99 C 117.889 153.461 118.496 153.15 119.14 153.16 L 177.92 153.16 C 179.025 153.168 179.913 154.07 179.905 155.175 C 179.904 155.377 179.872 155.577 179.81 155.77 L 163.46 206.11 C 163.335 206.518 163.083 206.876 162.74 207.13 Z M 136.93 203.51 L 160.12 203.51 L 175.12 157.16 L 121.88 157.16 Z" stroke="#040000" stroke-miterlimit="10" fill="#060001"/><path d=" M 197.25 100.87 C 197.083 100.993 196.897 101.087 196.7 101.15 C 196.093 101.348 195.428 101.244 194.91 100.87 L 147.35 66.29 C 146.458 65.6385 146.263 64.3872 146.915 63.4953 C 147.036 63.3286 147.183 63.1818 147.35 63.06 L 190.18 31.94 C 190.881 31.4313 191.829 31.4313 192.53 31.94 L 213.63 47.27 C 214.326 47.7802 214.616 48.6792 214.35 49.5 L 198 99.87 C 197.867 100.277 197.603 100.629 197.25 100.87 Z M 151.92 64.68 L 195 96 L 210.07 49.61 L 191.36 36 Z" stroke="#040000" stroke-miterlimit="10" fill="#060001"/><path d=" M 120.31 156.78 C 119.97 157.026 119.56 157.159 119.14 157.16 L 66.28 157.16 C 65.4212 157.156 64.6605 156.605 64.39 155.79 L 56.3 130.92 C 56.0338 130.099 56.3241 129.2 57.02 128.69 L 99.78 97.63 C 100.676 96.9842 101.926 97.1871 102.572 98.0832 C 102.692 98.2501 102.786 98.4345 102.85 98.63 L 121 154.55 C 121.194 155.154 121.09 155.815 120.72 156.33 C 120.606 156.499 120.468 156.651 120.31 156.78 Z M 67.73 153.16 L 116.38 153.16 L 99.91 102.46 L 60.54 131.06 Z" stroke="#040000" stroke-miterlimit="10" fill="#060001"/><path d=" M 136.66 207.13 C 136.317 207.378 135.904 207.512 135.48 207.51 L 82.63 207.51 C 81.7685 207.505 81.007 206.949 80.74 206.13 L 64.39 155.78 C 64.1922 155.173 64.2963 154.508 64.67 153.99 C 65.0328 153.461 65.639 153.153 66.28 153.17 L 119.13 153.17 C 119.995 153.171 120.762 153.727 121.03 154.55 L 137.38 204.9 C 137.574 205.504 137.47 206.165 137.1 206.68 C 136.977 206.851 136.829 207.003 136.66 207.13 Z M 84.09 203.51 L 132.73 203.51 L 117.73 157.15 L 69 157.15 Z" stroke="#040000" stroke-miterlimit="10" fill="#060001"/><path d=" M 192.53 35.17 L 149.69 66.29 C 148.991 66.7939 148.049 66.7939 147.35 66.29 L 104.6 35.24 C 104.082 34.8666 103.774 34.2684 103.77 33.63 C 103.768 32.9899 104.073 32.3877 104.59 32.01 L 147.44 0.88 C 148.141 0.371264 149.089 0.371264 149.79 0.88 L 192.53 31.94 C 193.044 32.3156 193.348 32.9134 193.35 33.55 C 193.352 34.1901 193.047 34.7923 192.53 35.17 Z M 148.53 62.17 L 188 33.56 L 148.62 5 L 109.16 33.63 Z" stroke="#040000" stroke-miterlimit="10" fill="#060001"/><path d=" M 102.13 100.86 L 59.37 131.92 C 58.4739 132.566 57.2239 132.363 56.5781 131.467 C 56.4578 131.3 56.364 131.115 56.3 130.92 L 40 80.66 C 39.7338 79.8392 40.0241 78.9402 40.72 78.43 L 83.45 47.37 C 83.9678 46.9963 84.6328 46.8922 85.24 47.09 C 85.8464 47.2881 86.3219 47.7636 86.52 48.37 L 102.85 98.62 C 103.121 99.4438 102.83 100.348 102.13 100.86 Z M 59.25 127.07 L 98.61 98.48 L 83.61 52.22 L 44.23 80.81 Z" stroke="#040000" stroke-miterlimit="10" fill="#060001"/><path d=" M 149.69 66.29 L 102.13 100.86 C 101.61 101.237 100.94 101.341 100.33 101.14 C 99.7274 100.939 99.2561 100.464 99.06 99.86 L 82.73 49.6 C 82.4638 48.7792 82.7541 47.8802 83.45 47.37 L 104.59 32 C 105.291 31.4913 106.239 31.4913 106.94 32 L 149.69 63.05 C 150.204 63.4256 150.508 64.0234 150.51 64.66 C 150.525 65.306 150.218 65.9171 149.69 66.29 Z M 102 96 L 145.13 64.67 L 105.77 36.1 L 87 49.75 Z" stroke="#040000" stroke-miterlimit="10" fill="#060001"/></g></g></svg>