<svg version="1.1" viewBox="0 0 244.28 229.1" xmlns="http://www.w3.org/2000/svg" xmlns:xlink="http://www.w3.org/1999/xlink" overflow="hidden"><defs></defs><g id="bace90a9-0abe-4019-83ec-bc97599996ba"><g id="edc3f224-488d-4b59-bfcd-d5f802251c2c"><path d=" M 182.62 99.18 L 164.45 155.09 L 105.64 155.08 L 87.49 99.17 L 135.04 64.62 L 182.62 99.18 Z" fill="#808080"/><path d=" M 182.62 99.18 L 135.04 64.62 L 87.49 99.17 L 105.64 155.08 L 164.45 155.09 L 182.62 99.18 Z" stroke="#040000" stroke-miterlimit="10" fill="none"/><path d=" M 104.46 156.71 C 104.121 156.461 103.869 156.111 103.74 155.71 L 85.58 99.8 C 85.3159 98.977 85.6104 98.0775 86.31 97.57 L 133.88 63 C 134.579 62.4961 135.521 62.4961 136.22 63 L 183.79 97.56 C 184.486 98.0702 184.776 98.9692 184.51 99.79 L 166.32 155.7 C 166.053 156.519 165.291 157.075 164.43 157.08 L 105.64 157.08 C 105.217 157.084 104.804 156.955 104.46 156.71 Z M 89.83 99.94 L 107.09 153.1 L 163 153.1 L 180.29 99.94 L 135.05 67.08 Z" stroke="#040000" stroke-miterlimit="10" fill="#211613"/><path d=" M 105.64 155.09 L 121.28 203.24 L 148.8 203.23 L 164.43 155.09 L 105.64 155.09 Z" stroke="#040000" stroke-miterlimit="10" fill="#808080" fill-rule="evenodd"/><path d=" M 148.8 203.23 L 201.77 203.23 L 217.4 155.1 L 164.43 155.09 L 148.8 203.23 Z" stroke="#040000" stroke-miterlimit="10" fill="#808080" fill-rule="evenodd"/><path d=" M 147.63 204.84 C 147.459 204.719 147.311 204.571 147.19 204.4 C 146.816 203.882 146.712 203.217 146.91 202.61 L 162.53 154.47 C 162.802 153.651 163.568 153.099 164.43 153.1 L 217.43 153.1 C 218.067 153.102 218.664 153.406 219.04 153.92 C 219.417 154.436 219.525 155.101 219.33 155.71 L 203.7 203.85 C 203.432 204.673 202.665 205.229 201.8 205.23 L 148.8 205.23 C 148.379 205.226 147.969 205.09 147.63 204.84 Z M 165.88 157.09 L 151.55 201.23 L 200.32 201.23 L 214.65 157.09 Z" stroke="#040000" stroke-miterlimit="10" fill="#060001"/><path d=" M 121.28 203.24 L 105.64 155.09 L 52.71 155.1 L 68.36 203.23 L 121.28 203.24 Z" stroke="#040000" stroke-miterlimit="10" fill="#808080" fill-rule="evenodd"/><path d=" M 67.19 204.85 C 66.847 204.602 66.5914 204.252 66.46 203.85 L 50.81 155.72 C 50.4676 154.67 51.0413 153.541 52.0915 153.199 C 52.2912 153.133 52.4999 153.1 52.71 153.1 L 105.64 153.1 C 106.501 153.105 107.263 153.661 107.53 154.48 L 123.18 202.62 C 123.522 203.67 122.949 204.799 121.899 205.141 C 121.699 205.207 121.49 205.24 121.28 205.24 L 68.36 205.24 C 67.9387 205.236 67.5292 205.1 67.19 204.85 Z M 55.46 157.1 L 69.81 201.24 L 118.53 201.24 L 104.19 157.09 Z" stroke="#040000" stroke-miterlimit="10" fill="#060001"/><path d=" M 87.48 99.18 L 44.65 130.29 L 52.71 155.1 L 105.64 155.09 L 87.48 99.18 Z" stroke="#040000" stroke-miterlimit="10" fill="#808080" fill-rule="evenodd"/><path d=" M 164.43 155.09 L 217.4 155.1 L 225.45 130.29 L 182.62 99.17 L 164.43 155.09 Z" stroke="#040000" stroke-miterlimit="10" fill="#808080" fill-rule="evenodd"/><path d=" M 135.05 64.61 L 92.29 33.55 L 71.15 48.92 L 87.48 99.18 L 135.05 64.61 Z" stroke="#040000" stroke-miterlimit="10" fill="#808080" fill-rule="evenodd"/><path d=" M 71.15 48.92 L 28.32 80.03 L 44.65 130.29 L 87.48 99.18 L 71.15 48.92 Z" stroke="#040000" stroke-miterlimit="10" fill="#808080" fill-rule="evenodd"/><path d=" M 225.45 130.29 L 241.78 80.05 L 198.94 48.91 L 182.62 99.17 L 225.45 130.29 Z" stroke="#040000" stroke-miterlimit="10" fill="#808080" fill-rule="evenodd"/><path d=" M 177.79 33.56 L 135.05 2.5 L 92.29 33.55 L 135.05 64.61 L 177.79 33.56 Z" stroke="#040000" stroke-miterlimit="10" fill="#808080" fill-rule="evenodd"/><path d=" M 182.62 99.17 L 198.94 48.91 L 177.79 33.56 L 135.05 64.61 L 182.62 99.17 Z" stroke="#040000" stroke-miterlimit="10" fill="#808080" fill-rule="evenodd"/><path d=" M 52.94 226.05 C 70.04 226.117 87.1933 226.17 104.4 226.21 C 109.8 218.537 115.247 210.807 120.74 203.02 L 68.65 202.94 C 63.3633 210.713 58.1267 218.417 52.94 226.05 Z" stroke="#040000" stroke-miterlimit="10" fill="#00D800" fill-rule="evenodd"/><path d=" M 51.76 227.67 C 51.5175 227.488 51.3165 227.256 51.17 226.99 C 50.8224 226.336 50.8647 225.543 51.28 224.93 L 67 201.82 C 67.3728 201.276 67.9902 200.95 68.65 200.95 L 120.74 201.03 C 121.845 201.037 122.734 201.939 122.727 203.043 C 122.724 203.446 122.6 203.839 122.37 204.17 L 106 227.36 C 105.625 227.894 105.013 228.211 104.36 228.21 L 52.9 228.05 C 52.49 228.043 52.0921 227.911 51.76 227.67 Z M 69.7 204.94 L 56.7 224.07 L 103.36 224.22 L 116.89 205 Z" stroke="#040000" stroke-miterlimit="10" fill="#060001"/><path d=" M 164.75 226.42 C 159.11 218.66 153.46 210.87 147.75 203.05 L 120.75 203.05 C 115.25 210.83 109.803 218.56 104.41 226.24 C 114.45 226.287 124.487 226.32 134.52 226.34 Z" stroke="#040000" stroke-miterlimit="10" fill="#00D800" fill-rule="evenodd"/><path d=" M 103.22 227.83 C 102.972 227.643 102.767 227.404 102.62 227.13 C 102.281 226.47 102.335 225.678 102.76 225.07 L 119.11 201.87 C 119.485 201.343 120.093 201.03 120.74 201.03 L 147.74 201.03 C 148.371 201.032 148.964 201.333 149.34 201.84 C 154.6 209.007 159.813 216.15 164.98 223.27 L 166.38 225.22 C 166.823 225.826 166.888 226.63 166.55 227.3 C 166.207 227.972 165.515 228.393 164.76 228.39 L 134.53 228.28 C 124.49 228.28 114.45 228.247 104.41 228.18 C 103.986 228.192 103.57 228.07 103.22 227.83 Z M 121.77 205 L 108.23 224.22 L 134.52 224.3 L 160.82 224.39 C 156.153 217.95 151.447 211.493 146.7 205.02 Z" stroke="#040000" stroke-miterlimit="10" fill="#060001"/><path d=" M 219.46 226.61 C 213.967 218.797 208.427 210.967 202.84 203.12 L 147.71 203.05 C 153.46 210.87 159.11 218.66 164.71 226.42 C 182.903 226.493 201.153 226.557 219.46 226.61 Z" stroke="#040000" stroke-miterlimit="10" fill="#ADD8E6" fill-rule="evenodd"/><path d=" M 2.37 73.4 C 7.75 89.8 13.0833 106.083 18.37 122.25 C 27.06 124.92 35.72 127.57 44.42 130.25 C 39.1933 114.083 33.94 97.7967 28.66 81.39 C 19.9133 78.7633 11.15 76.1 2.37 73.4 Z" stroke="#040000" stroke-miterlimit="10" fill="#ADD8E6" fill-rule="evenodd"/><path d=" M 46.3 129.61 L 30.56 80.78 C 30.3593 80.1567 29.8663 79.6711 29.24 79.48 C 21 77 12.7533 74.5067 4.5 72 L 3 71.49 C 2.29033 71.2763 1.52067 71.4726 1 72 C 0.824809 72.1803 0.688645 72.3948 0.6 72.63 C 0.6 72.63 0.6 72.63 0.6 72.63 L 0.6 72.63 C 0.621066 72.7793 0.621066 72.9307 0.6 73.08 C 0.6 73.35 0.6 73.61 0.67 73.88 C 0.74 74.15 0.67 74.25 0.72 74.43 C 6.05333 90.67 11.33 106.797 16.55 122.81 C 16.6788 123.211 16.9307 123.561 17.27 123.81 C 17.4484 123.94 17.648 124.038 17.86 124.1 L 43.86 132.1 C 44.9164 132.423 46.0344 131.828 46.3571 130.772 C 46.4759 130.383 46.4734 129.967 46.35 129.58 Z M 19.93 120.61 C 15.15 105.943 10.33 91.2033 5.47 76.39 C 12.69 78.63 19.8933 80.8333 27.08 83 L 41.33 127.19 Z" stroke="#040000" stroke-miterlimit="10" fill="#060001"/><path d=" M 36.51 177.82 C 41.79 170.28 47.08 162.673 52.38 155 C 49.7133 146.74 47.0467 138.467 44.38 130.18 C 35.68 127.53 27.02 124.88 18.38 122.18 L 27.52 150.18 C 30.5067 159.433 33.5033 168.647 36.51 177.82 Z" stroke="#040000" stroke-miterlimit="10" fill="#FFA100" fill-rule="evenodd"/><path d=" M 35.34 179.43 C 34.997 179.182 34.7414 178.832 34.61 178.43 L 16.46 122.87 C 16.1203 121.819 16.697 120.692 17.7481 120.352 C 18.1349 120.227 18.5507 120.223 18.94 120.34 L 44.94 128.34 C 45.564 128.529 46.0566 129.011 46.26 129.63 L 54.26 154.44 C 54.4505 155.037 54.3506 155.688 53.99 156.2 C 48.6567 163.827 43.3667 171.42 38.12 178.98 C 37.6855 179.599 36.9385 179.921 36.19 179.81 C 35.8797 179.755 35.5876 179.625 35.34 179.43 Z M 21.45 125.29 L 37.17 173.4 C 41.49 167.2 45.8233 160.97 50.17 154.71 L 42.8 131.83 Z" stroke="#040000" stroke-miterlimit="10" fill="#060001"/><path d=" M 52.5 226.72 C 57.7533 219.387 63.0267 211.987 68.32 204.52 C 63.04 188.173 57.7267 171.667 52.38 155 C 47.0467 162.627 41.7567 170.22 36.51 177.78 C 41.8833 194.24 47.2133 210.553 52.5 226.72 Z" stroke="#040000" stroke-miterlimit="10" fill="#FFA100" fill-rule="evenodd"/><path d=" M 70.22 203.9 L 54.29 154.42 C 54.0434 153.706 53.4255 153.184 52.68 153.06 C 51.9294 152.951 51.182 153.277 50.75 153.9 C 45.4167 161.527 40.1233 169.12 34.87 176.68 C 34.5128 177.194 34.4166 177.845 34.61 178.44 L 50.19 226.08 C 50.3208 226.263 50.4717 226.431 50.64 226.58 C 50.7145 226.649 50.7847 226.722 50.85 226.8 C 51.0134 226.895 51.1507 227.029 51.25 227.19 C 51.4274 227.272 51.5769 227.404 51.68 227.57 C 52.1763 227.868 52.7521 228.008 53.33 227.97 C 53.541 227.933 53.7583 227.964 53.95 228.06 C 54.0139 228.007 54.071 227.947 54.12 227.88 L 70 205.67 C 70.3469 205.147 70.4284 204.492 70.22 203.9 Z M 53.22 222.34 L 38.72 178.15 C 43.04 171.963 47.3733 165.743 51.72 159.49 L 66.11 204.17 Z" stroke="#040000" stroke-miterlimit="10" fill="#040000"/><path d=" M 45.2 40.24 C 53.9933 43 62.8133 45.7533 71.66 48.5 C 78.8133 43.32 85.9633 38.1233 93.11 32.91 C 93.2 23.66 93.26 14.43 93.35 5.17 C 85.3033 11.0567 77.2667 16.9133 69.24 22.74 C 61.2133 28.5667 53.2 34.4 45.2 40.24 Z" stroke="#040000" stroke-miterlimit="10" fill="#EEE8AA" fill-rule="evenodd"/><path d=" M 44 41.86 C 43.572 41.5495 43.2843 41.0821 43.2 40.56 C 43.0828 39.8174 43.3918 39.0719 44 38.63 C 52 32.81 60 26.9733 68 21.12 L 68.4 20.83 C 76.28 15.11 84.18 9.35333 92.1 3.56 C 92.713 3.11257 93.5263 3.0506 94.2 3.4 C 94.868 3.74605 95.2853 4.4377 95.28 5.19 L 95.04 32.93 C 95.0353 33.5631 94.7312 34.1565 94.22 34.53 C 87.12 39.7233 79.99 44.9167 72.83 50.11 C 72.3213 50.4774 71.6697 50.5848 71.07 50.4 C 62.21 47.66 53.3867 44.91 44.6 42.15 C 44.3864 42.0845 44.184 41.9867 44 41.86 Z M 91.32 9.13 C 84.48 14.13 77.6467 19.1067 70.82 24.06 C 63.52 29.39 56.54 34.47 49.59 39.52 C 56.7967 41.7867 64.03 44.0433 71.29 46.29 L 91.13 31.89 Z" stroke="#040000" stroke-miterlimit="10" fill="#060001"/><path d=" M 2.13 71.62 C 10.8433 74.42 19.5867 77.2133 28.36 80 L 71.66 48.5 C 62.8 45.76 53.98 43.0067 45.2 40.24 C 30.82 50.7467 16.4633 61.2067 2.13 71.62 Z" stroke="#040000" stroke-miterlimit="10" fill="#EEE8AA" fill-rule="evenodd"/><path d=" M 73.63 48.17 C 73.5036 47.4224 72.9654 46.8106 72.24 46.59 C 63.39 43.86 54.59 41.09 45.8 38.34 C 45.1958 38.1456 44.5353 38.2495 44.02 38.62 L 1.15 69.86 C 0.694895 70.6614 0.492716 71.5816 0.57 72.5 C 0.576531 72.5565 0.576531 72.6135 0.57 72.67 L 0.57 72.81 C 0.682743 72.9744 0.821176 73.1196 0.98 73.24 C 1.15081 73.3622 1.33979 73.4566 1.54 73.52 C 8.61333 75.7933 15.7 78.0533 22.8 80.3 L 27.8 81.88 C 28.4027 82.0681 29.0588 81.9606 29.57 81.59 L 72.87 50.11 C 73.4668 49.6568 73.7601 48.908 73.63 48.17 Z M 28 77.77 L 24 76.5 C 18.1533 74.64 12.32 72.78 6.5 70.92 L 45.56 42.45 C 52.78 44.71 60.0133 46.97 67.26 49.23 Z" stroke="#040000" stroke-miterlimit="10" fill="#060001"/><path d=" M 120.11 204.86 C 119.766 204.615 119.513 204.264 119.39 203.86 L 103.74 155.71 C 103.403 154.658 103.983 153.532 105.035 153.195 C 105.23 153.133 105.435 153.1 105.64 153.1 L 164.43 153.1 C 165.073 153.073 165.684 153.384 166.04 153.92 C 166.41 154.435 166.514 155.096 166.32 155.7 L 150.7 203.84 C 150.432 204.663 149.665 205.219 148.8 205.22 L 121.28 205.22 C 120.862 205.225 120.453 205.099 120.11 204.86 Z M 108.39 157.09 L 122.73 201.24 L 147.35 201.24 L 161.68 157.09 Z" stroke="#040000" stroke-miterlimit="10" fill="#060001"/><path d=" M 51.53 156.71 C 51.1907 156.461 50.9388 156.111 50.81 155.71 L 42.75 130.9 C 42.4859 130.077 42.7804 129.178 43.48 128.67 L 86.31 97.57 C 86.8278 97.1963 87.4928 97.0922 88.1 97.29 C 88.7165 97.4713 89.1987 97.9535 89.38 98.57 L 107.53 154.48 C 107.728 155.087 107.624 155.752 107.25 156.27 C 106.874 156.784 106.277 157.088 105.64 157.09 L 52.7 157.09 C 52.2788 157.096 51.8674 156.962 51.53 156.71 Z M 47 131.05 L 54.16 153.05 L 102.89 153.05 L 86.44 102.41 Z" stroke="#040000" stroke-miterlimit="10" fill="#060001"/><path d=" M 163.26 156.7 C 163.087 156.582 162.938 156.433 162.82 156.26 C 162.443 155.744 162.335 155.079 162.53 154.47 L 180.72 98.56 C 181.064 97.5103 182.193 96.9381 183.243 97.2819 C 183.439 97.3459 183.623 97.4397 183.79 97.56 L 226.63 128.68 C 227.326 129.19 227.616 130.089 227.35 130.91 L 219.35 155.71 C 219.082 156.533 218.315 157.089 217.45 157.09 L 164.45 157.09 C 164.021 157.096 163.602 156.959 163.26 156.7 Z M 183.66 102.4 L 167.18 153.1 L 216 153.1 L 223.16 131.1 Z" stroke="#040000" stroke-miterlimit="10" fill="#060001"/><path d=" M 86.31 100.8 C 85.9707 100.551 85.7188 100.201 85.59 99.8 L 69.26 49.53 C 68.998 48.7048 69.2967 47.8048 70 47.3 L 91.12 31.94 C 91.8207 31.4313 92.7693 31.4313 93.47 31.94 L 136.22 63 C 136.742 63.3689 137.049 63.971 137.04 64.61 C 137.038 65.2466 136.734 65.8444 136.22 66.22 L 88.65 100.79 C 88.1364 101.164 87.4757 101.272 86.87 101.08 C 86.6687 101.019 86.4793 100.925 86.31 100.8 Z M 73.5 49.68 L 88.53 96 L 131.65 64.66 L 92.29 36 Z" stroke="#040000" stroke-miterlimit="10" fill="#060001"/><path d=" M 43.47 131.91 C 43.1341 131.657 42.8829 131.309 42.75 130.91 L 26.42 80.64 C 26.1607 79.82 26.4547 78.9261 27.15 78.42 L 70 47.3 C 70.5095 46.9259 71.1657 46.8147 71.77 47 C 72.3827 47.1877 72.8623 47.6673 73.05 48.28 L 89.38 98.56 C 89.6441 99.383 89.3496 100.282 88.65 100.79 L 45.82 131.9 C 45.304 132.277 44.6387 132.385 44.03 132.19 C 43.8312 132.123 43.6428 132.029 43.47 131.91 Z M 30.67 80.79 L 45.67 127.06 L 85.13 98.42 L 70.13 52.15 Z" stroke="#040000" stroke-miterlimit="10" fill="#060001"/><path d=" M 224.28 131.91 L 181.44 100.79 C 180.744 100.28 180.454 99.3808 180.72 98.56 L 197 48.3 C 197.344 47.2503 198.473 46.6781 199.523 47.0219 C 199.719 47.0859 199.903 47.1797 200.07 47.3 L 243 78.43 C 243.696 78.9402 243.986 79.8392 243.72 80.66 L 227.39 130.91 C 227.046 131.96 225.917 132.532 224.867 132.188 C 224.671 132.124 224.487 132.03 224.32 131.91 Z M 185 98.41 L 224.45 127.07 L 239.45 80.81 L 200 52.14 Z" stroke="#040000" stroke-miterlimit="10" fill="#060001"/><path d=" M 133.87 66.23 L 91.12 35.16 C 90.2308 34.5047 90.0412 33.2526 90.6966 32.3634 C 90.8157 32.2018 90.9584 32.0591 91.12 31.94 L 133.88 0.88 C 134.579 0.376089 135.521 0.376089 136.22 0.88 L 179 31.94 C 179.892 32.5915 180.087 33.8428 179.435 34.7347 C 179.314 34.9014 179.167 35.0482 179 35.17 L 136.22 66.22 C 135.521 66.7317 134.573 66.7358 133.87 66.23 Z M 95.69 33.55 L 135.05 62.14 L 174.4 33.56 L 135.05 5 Z" stroke="#040000" stroke-miterlimit="10" fill="#060001"/><path d=" M 181.44 100.79 L 133.87 66.23 C 133.353 65.8523 133.048 65.2501 133.05 64.61 C 133.054 63.9716 133.362 63.3734 133.88 63 L 176.62 31.94 C 177.321 31.4313 178.269 31.4313 178.97 31.94 L 200.11 47.3 C 200.806 47.8102 201.096 48.7092 200.83 49.53 L 184.51 99.79 C 184.312 100.396 183.836 100.872 183.23 101.07 C 182.623 101.268 181.958 101.164 181.44 100.79 Z M 138.44 64.61 L 181.57 95.94 L 196.57 49.68 L 177.8 36 Z" stroke="#040000" stroke-miterlimit="10" fill="#060001"/><path d=" M 220.65 224.83 C 215.3 217.23 209.93 209.61 204.46 201.96 C 204.093 201.43 203.485 201.119 202.84 201.13 L 147.72 201.06 C 146.615 201.061 145.721 201.957 145.722 203.062 C 145.722 203.481 145.855 203.89 146.1 204.23 C 151.37 211.39 156.55 218.53 161.73 225.65 L 163.14 227.59 C 163.26 227.764 163.409 227.916 163.58 228.04 C 163.919 228.281 164.324 228.413 164.74 228.42 L 217.41 228.6 C 218.121 228.502 218.792 228.212 219.35 227.76 C 220.022 227.082 220.448 226.198 220.56 225.25 C 220.549 225.104 220.58 224.958 220.65 224.83 Z M 165.78 224.43 L 165 223.3 C 160.593 217.24 156.16 211.157 151.7 205.05 L 201.85 205.11 C 206.5 211.63 211.08 218.11 215.65 224.6 Z" stroke="#040000" stroke-miterlimit="10" fill="#060001"/></g></g></svg>