<svg version="1.1" viewBox="0 0 231.65 297.79" xmlns="http://www.w3.org/2000/svg" xmlns:xlink="http://www.w3.org/1999/xlink" overflow="hidden"><defs></defs><g id="a35a6e8d-8beb-48db-9e68-083329c0c182"><g id="adef2333-8fff-4b10-9961-60ed3895ccbd"><path d=" M 109.14 92.52 L 156.69 127.07 L 138.54 182.98 L 79.76 182.96 L 61.59 127.06 L 109.14 92.52 Z" fill="#808080"/><path d=" M 109.14 92.52 L 61.59 127.06 L 79.76 182.96 L 138.54 182.98 L 156.69 127.07 L 109.14 92.52 Z" stroke="#040000" stroke-miterlimit="10" fill="none"/><path d=" M 139.71 184.6 C 139.37 184.856 138.955 184.993 138.53 184.99 L 79.75 184.99 C 78.8885 184.985 78.127 184.429 77.86 183.61 L 59.67 127.67 C 59.4059 126.847 59.7004 125.948 60.4 125.44 L 108 90.88 C 108.701 90.3713 109.649 90.3713 110.35 90.88 L 157.91 125.46 C 158.606 125.97 158.896 126.869 158.63 127.69 L 140.47 183.61 C 140.329 184.013 140.062 184.36 139.71 184.6 Z M 81.2 181 L 137.09 181 L 154.35 127.83 L 109.14 95 L 63.92 127.82 Z" stroke="#040000" stroke-miterlimit="10" fill="#211613"/><path d=" M 151.91 33.35 L 151.78 2.48 L 199.47 18.11 L 229.05 58.62 L 199.67 68.06 L 151.91 33.35 Z" stroke="#040000" stroke-miterlimit="10" fill="#EEE8AA" fill-rule="evenodd"/><path d=" M 230.22 60.24 C 230.049 60.3622 229.86 60.4566 229.66 60.52 L 200.28 70 C 199.674 70.1915 199.014 70.0839 198.5 69.71 L 150.74 35 C 150.222 34.6266 149.914 34.0284 149.91 33.39 L 149.78 2.52 C 149.816 1.37734 150.772 0.480271 151.914 0.516341 C 152.079 0.521526 152.242 0.546253 152.4 0.59 L 200.09 16.22 C 200.489 16.3461 200.839 16.5944 201.09 16.93 L 230.29 56.93 C 230.459 57.0594 230.611 57.2107 230.74 57.38 C 231.4 58.2099 231.262 59.4178 230.432 60.0778 C 230.377 60.1217 230.32 60.1625 230.26 60.2 Z M 200 65.85 L 225.78 57.57 L 198.24 19.81 L 153.79 5.24 L 153.9 32.33 Z" stroke="#040000" stroke-miterlimit="10" fill="#060001"/><path d=" M 199.67 68.06 L 173.18 76.54 L 152.01 61.16 L 151.91 33.35 L 199.67 68.06 Z" stroke="#040000" stroke-miterlimit="10" fill="#EEE8AA" fill-rule="evenodd"/><path d=" M 200.84 69.67 C 200.67 69.7957 200.481 69.8936 200.28 69.96 L 173.79 78.44 C 173.184 78.6315 172.524 78.5239 172.01 78.15 L 150.84 62.77 C 150.322 62.3966 150.014 61.7984 150.01 61.16 L 149.91 33.36 C 149.91 32.6091 150.331 31.9217 151 31.58 C 151.668 31.2389 152.472 31.3007 153.08 31.74 L 200.37 66.1 C 201.418 66.4495 201.984 67.5822 201.634 68.6301 C 201.503 69.0228 201.254 69.3652 200.92 69.61 Z M 173.53 74.33 L 195.31 67.33 L 153.91 37.25 L 154 60.13 Z" stroke="#040000" stroke-miterlimit="10" fill="#060001"/><path d=" M 138.54 182.99 L 189.16 182.99 L 197.65 156.81 L 156.7 127.07 L 138.54 182.99 Z" stroke="#040000" stroke-miterlimit="10" fill="#808080" fill-rule="evenodd"/><path d=" M 197.65 156.81 L 214.03 106.44 L 173.07 76.7 L 156.7 127.07 L 197.65 156.81 Z" stroke="#040000" stroke-miterlimit="10" fill="#808080" fill-rule="evenodd"/><path d=" M 198.82 158.43 C 198.651 158.549 198.466 158.643 198.27 158.71 C 197.661 158.905 196.996 158.797 196.48 158.42 L 155.53 128.69 C 154.826 128.181 154.531 127.276 154.8 126.45 L 171.18 76.08 C 171.368 75.4673 171.847 74.9877 172.46 74.8 C 173.067 74.6022 173.732 74.7063 174.25 75.08 L 215.2 104.82 C 215.896 105.33 216.186 106.229 215.92 107.05 L 199.55 157.43 C 199.413 157.829 199.159 158.178 198.82 158.43 Z M 159.05 126.31 L 196.6 153.58 L 211.68 107.2 L 174.12 79.93 Z" stroke="#040000" stroke-miterlimit="10" fill="#060001"/><path d=" M 189.16 182.99 L 138.54 182.99 L 122.18 233.33 L 172.8 233.32 L 189.16 182.99 Z" stroke="#040000" stroke-miterlimit="10" fill="#808080" fill-rule="evenodd"/><path d=" M 174 234.93 C 173.664 235.185 173.252 235.319 172.83 235.31 L 122.19 235.31 C 121.55 235.312 120.948 235.007 120.57 234.49 C 120.196 233.972 120.092 233.307 120.29 232.7 L 136.64 182.36 C 136.911 181.545 137.671 180.994 138.53 180.99 L 189.16 180.99 C 189.8 180.988 190.402 181.293 190.78 181.81 C 191.154 182.328 191.258 182.993 191.06 183.6 L 174.69 233.93 C 174.579 234.331 174.336 234.684 174 234.93 Z M 125 231.33 L 171.42 231.33 L 186.41 185 L 140 185 Z" stroke="#040000" stroke-miterlimit="10" fill="#060001"/><path d=" M 79.75 182.98 L 96.1 233.33 L 122.18 233.33 L 138.54 182.99 L 79.75 182.98 Z" stroke="#040000" stroke-miterlimit="10" fill="#808080" fill-rule="evenodd"/><path d=" M 156.7 127.07 L 173.07 76.7 L 151.98 61.38 L 109.14 92.5 L 156.7 127.07 Z" stroke="#040000" stroke-miterlimit="10" fill="#808080" fill-rule="evenodd"/><path d=" M 61.57 127.06 L 18.82 158.12 L 26.9 182.98 L 79.75 182.98 L 61.57 127.06 Z" stroke="#040000" stroke-miterlimit="10" fill="#808080" fill-rule="evenodd"/><path d=" M 26.9 182.98 L 43.26 233.32 L 96.1 233.33 L 79.75 182.98 L 26.9 182.98 Z" stroke="#040000" stroke-miterlimit="10" fill="#808080" fill-rule="evenodd"/><path d=" M 151.98 61.38 L 109.23 30.31 L 66.39 61.45 L 109.14 92.5 L 151.98 61.38 Z" stroke="#040000" stroke-miterlimit="10" fill="#808080" fill-rule="evenodd"/><path d=" M 45.24 76.81 L 2.5 107.86 L 18.82 158.12 L 61.57 127.06 L 45.24 76.81 Z" stroke="#040000" stroke-miterlimit="10" fill="#808080" fill-rule="evenodd"/><path d=" M 109.14 92.5 L 66.39 61.45 L 45.24 76.81 L 61.57 127.06 L 109.14 92.5 Z" stroke="#040000" stroke-miterlimit="10" fill="#808080" fill-rule="evenodd"/><path d=" M 110.22 295.54 C 125.82 290.367 141.353 285.223 156.82 280.11 C 153.82 276.11 150.66 272.03 147.59 267.94 C 144.52 263.85 141.4 259.78 138.29 255.67 L 109.01 255.67 L 79.34 255.73 C 76.44 259.89 73.51 264.05 70.62 268.21 C 67.73 272.37 64.8 276.52 61.89 280.66 C 78.13 285.68 94.24 290.64 110.22 295.54 Z" stroke="#040000" stroke-miterlimit="10" fill="#00D800" fill-rule="evenodd"/><path d=" M 158.34 281.61 C 158.172 281.731 157.987 281.826 157.79 281.89 C 145.683 285.89 133.54 289.91 121.36 293.95 L 111.58 297.19 C 111.183 297.317 110.757 297.317 110.36 297.19 L 62.43 282.49 C 61.3814 282.143 60.8126 281.012 61.1596 279.963 C 61.2225 279.773 61.3137 279.593 61.43 279.43 L 78.74 254.71 C 79.1152 254.176 79.7274 253.859 80.38 253.86 L 138.83 253.76 C 139.458 253.758 140.05 254.05 140.43 254.55 L 149.65 266.72 C 151.41 269.06 153.173 271.393 154.94 273.72 L 158.81 278.82 C 159.197 279.335 159.313 280.005 159.12 280.62 C 158.973 281.025 158.7 281.373 158.34 281.61 Z M 110.92 293.2 L 120.1 290.2 C 131.367 286.427 142.627 282.693 153.88 279 L 151.71 276.13 C 149.937 273.81 148.173 271.477 146.42 269.13 L 137.8 257.76 L 81.37 257.85 L 66.22 279.48 Z" stroke="#040000" stroke-miterlimit="10" fill="#060001"/><path d=" M 138.29 255.67 C 132.697 248.263 127.063 240.82 121.39 233.34 L 95.11 233.27 C 89.85 240.777 84.5933 248.277 79.34 255.77 L 109.01 255.71 Z" stroke="#040000" stroke-miterlimit="10" fill="#00D800" fill-rule="evenodd"/><path d=" M 140 257.37 C 139.658 257.614 139.25 257.75 138.83 257.76 L 80.37 257.85 C 79.2655 257.843 78.376 256.941 78.3833 255.837 C 78.386 255.434 78.5103 255.041 78.74 254.71 L 94.33 232.4 C 94.7032 231.869 95.3109 231.552 95.96 231.55 L 122.03 231.62 C 122.654 231.621 123.242 231.913 123.62 232.41 C 129.24 239.817 134.827 247.197 140.38 254.55 C 140.836 255.153 140.914 255.962 140.58 256.64 C 140.444 256.924 140.246 257.173 140 257.37 Z M 84.21 253.85 L 134.82 253.77 C 130.267 247.77 125.683 241.717 121.07 235.61 L 97.07 235.55 Z" stroke="#040000" stroke-miterlimit="10" fill="#060001"/><path d=" M 190.17 255.57 C 184.75 248.237 179.297 240.873 173.81 233.48 C 156.477 233.44 139.003 233.393 121.39 233.34 C 127.063 240.813 132.697 248.257 138.29 255.67 Z" stroke="#040000" stroke-miterlimit="10" fill="#00D800" fill-rule="evenodd"/><path d=" M 191.41 257.27 C 191.073 257.524 190.661 257.657 190.24 257.65 L 138.79 257.75 C 138.162 257.752 137.57 257.46 137.19 256.96 C 131.65 249.627 126.063 242.247 120.43 234.82 C 119.977 234.215 119.903 233.407 120.24 232.73 C 120.586 232.058 121.274 231.632 122.03 231.62 L 174.03 231.75 C 174.661 231.752 175.254 232.053 175.63 232.56 L 191.86 254.47 C 192.303 255.076 192.368 255.88 192.03 256.55 C 191.89 256.84 191.676 257.088 191.41 257.27 Z M 139.78 253.76 L 186.27 253.67 L 173 235.75 L 126.06 235.62 C 130.687 241.693 135.26 247.74 139.78 253.76 Z" stroke="#040000" stroke-miterlimit="10" fill="#060001"/><path d=" M 190.33 184.61 C 189.991 184.858 189.58 184.988 189.16 184.98 L 138.54 184.98 C 137.9 184.982 137.298 184.677 136.92 184.16 C 136.546 183.642 136.442 182.977 136.64 182.37 L 154.8 126.45 C 154.986 125.838 155.467 125.361 156.08 125.18 C 156.687 124.982 157.352 125.086 157.87 125.46 L 198.82 155.2 C 199.52 155.708 199.814 156.607 199.55 157.43 L 191.06 183.6 C 190.93 184.006 190.675 184.36 190.33 184.61 Z M 141.33 180.99 L 187.75 180.99 L 195.34 157.57 L 157.74 130.3 Z" stroke="#040000" stroke-miterlimit="10" fill="#060001"/><path d=" M 123.36 234.94 C 123.023 235.192 122.611 235.326 122.19 235.32 L 96.1 235.32 C 95.2543 235.324 94.4975 234.795 94.21 234 L 77.86 183.6 C 77.6622 182.993 77.7663 182.328 78.14 181.81 C 78.503 181.28 79.1079 180.968 79.75 180.98 L 138.53 180.98 C 139.17 180.978 139.772 181.283 140.15 181.8 C 140.524 182.318 140.628 182.983 140.43 183.59 L 124.08 234 C 123.94 234.379 123.689 234.707 123.36 234.94 Z M 97.55 231.33 L 120.73 231.33 L 135.79 185 L 82.5 185 Z" stroke="#040000" stroke-miterlimit="10" fill="#060001"/><path d=" M 157.87 128.69 C 157.701 128.815 157.511 128.909 157.31 128.97 C 156.706 129.164 156.045 129.06 155.53 128.69 L 108 94.11 C 107.479 93.7345 107.171 93.1319 107.17 92.49 C 107.172 91.8534 107.476 91.2556 107.99 90.88 L 150.8 59.76 C 151.501 59.2513 152.449 59.2513 153.15 59.76 L 174.25 75.08 C 174.95 75.5916 175.241 76.4962 174.97 77.32 L 158.59 127.69 C 158.466 128.093 158.213 128.444 157.87 128.69 Z M 112.53 92.5 L 155.65 123.84 L 170.73 77.46 L 152 63.84 Z" stroke="#040000" stroke-miterlimit="10" fill="#060001"/><path d=" M 80.92 184.59 C 80.5819 184.841 80.171 184.974 79.75 184.97 L 26.9 184.97 C 26.0349 184.969 25.2682 184.413 25 183.59 L 16.92 158.74 C 16.6538 157.919 16.9441 157.02 17.64 156.51 L 60.4 125.44 C 61.2961 124.794 62.5461 124.997 63.1919 125.893 C 63.3122 126.06 63.406 126.245 63.47 126.44 L 81.65 182.36 C 81.8449 182.969 81.7371 183.634 81.36 184.15 C 81.2422 184.323 81.0929 184.472 80.92 184.59 Z M 28.35 181 L 77 181 L 60.52 130.3 L 21.16 158.88 Z" stroke="#040000" stroke-miterlimit="10" fill="#060001"/><path d=" M 97.27 235 C 96.9275 235.242 96.5195 235.375 96.1 235.38 L 43.25 235.38 C 42.3885 235.375 41.627 234.819 41.36 234 L 25 183.59 C 24.8085 182.984 24.9161 182.324 25.29 181.81 C 25.6575 181.288 26.2617 180.984 26.9 181 L 79.75 181 C 80.6125 180.999 81.3783 181.551 81.65 182.37 L 98 232.71 C 98.1949 233.319 98.0871 233.984 97.71 234.5 C 97.5943 234.692 97.4453 234.861 97.27 235 Z M 44.7 231.33 L 93.35 231.33 L 78.3 185 L 29.65 185 Z" stroke="#040000" stroke-miterlimit="10" fill="#060001"/><path d=" M 153.15 63 L 110.31 94.11 C 109.611 94.6139 108.669 94.6139 107.97 94.11 L 65.21 63.11 C 64.3181 62.4585 64.1232 61.2072 64.7747 60.3153 C 64.8965 60.1486 65.0433 60.0018 65.21 59.88 L 108.06 28.7 C 108.759 28.1961 109.701 28.1961 110.4 28.7 L 153.15 59.76 C 154.042 60.4115 154.237 61.6628 153.585 62.5547 C 153.464 62.7214 153.317 62.8682 153.15 62.99 Z M 109.15 90 L 148.59 61.34 L 109.23 32.78 L 69.78 61.45 Z" stroke="#040000" stroke-miterlimit="10" fill="#060001"/><path d=" M 62.74 128.67 L 20 159.74 C 19.4822 160.114 18.8172 160.218 18.21 160.02 C 17.6036 159.822 17.1281 159.346 16.93 158.74 L 0.6 108.48 C 0.333798 107.659 0.624059 106.76 1.32 106.25 L 44.07 75.19 C 44.9661 74.5442 46.2161 74.7471 46.8619 75.6432 C 46.9822 75.8101 47.076 75.9945 47.14 76.19 L 63.47 126.44 C 63.7341 127.263 63.4396 128.162 62.74 128.67 Z M 19.86 154.89 L 59.22 126.3 L 44.2 80 L 4.84 108.63 Z" stroke="#040000" stroke-miterlimit="10" fill="#060001"/><path d=" M 110.31 94.11 L 62.74 128.67 C 62.247 129.054 61.5993 129.177 61 129 C 60.3936 128.802 59.9181 128.326 59.72 127.72 L 43.35 77.42 C 43.0838 76.5992 43.3741 75.7002 44.07 75.19 L 65.21 59.83 C 65.9107 59.3213 66.8593 59.3213 67.56 59.83 L 110.31 90.88 C 110.824 91.2556 111.128 91.8534 111.13 92.49 C 111.132 93.1301 110.827 93.7323 110.31 94.11 Z M 62.62 123.83 L 105.74 92.5 L 66.38 63.91 L 47.59 77.57 Z" stroke="#040000" stroke-miterlimit="10" fill="#060001"/></g></g></svg>