<svg version="1.1" viewBox="0 0 512 512" xmlns="http://www.w3.org/2000/svg" xmlns:xlink="http://www.w3.org/1999/xlink" id="Layer_1" overflow="hidden"><g><path d=" M 167.385 393.846 L 118.154 393.846 C 91.01 393.846 68.923 415.933 68.923 443.077 C 68.923 470.221 91.01 492.308 118.154 492.308 L 167.385 492.308 L 167.385 393.846 Z" fill="#E7E5D0"/><path d=" M 324.923 83.692 C 324.923 50.089 298.847 22.509 265.846 19.945 L 265.846 29.538 C 265.846 34.98 261.442 39.384 256 39.384 C 250.558 39.384 246.154 34.98 246.154 29.538 L 246.154 19.945 C 213.153 22.509 187.077 50.089 187.077 83.692 L 187.077 147.692 L 324.923 147.692 L 324.923 83.692 Z" fill="#E7E5D0"/><path d=" M 324.923 384 L 324.923 167.385 L 187.077 167.385 L 187.077 384 L 187.077 492.308 L 324.923 492.308 Z" fill="#E7E5D0"/><path d=" M 393.846 393.846 L 344.615 393.846 L 344.615 492.308 L 393.846 492.308 C 420.99 492.308 443.077 470.221 443.077 443.077 C 443.077 415.933 420.99 393.846 393.846 393.846 Z" fill="#E7E5D0"/></g><path d=" M 393.846 374.154 L 344.615 374.154 L 344.615 157.538 L 344.615 83.692 C 344.615 37.548 307.039 0 260.846 0 L 251.154 0 C 204.962 0 167.385 37.548 167.385 83.692 L 167.385 157.538 L 167.385 374.153 L 118.154 374.153 C 80.154 374.153 49.231 405.076 49.231 443.076 C 49.231 481.076 80.154 512 118.154 512 L 177.231 512 L 334.769 512 L 393.846 512 C 431.846 512 462.769 481.077 462.769 443.077 C 462.769 405.077 431.846 374.154 393.846 374.154 Z M 187.077 83.692 C 187.077 50.089 213.153 22.509 246.154 19.945 L 246.154 29.538 C 246.154 34.98 250.558 39.384 256 39.384 C 261.442 39.384 265.846 34.98 265.846 29.538 L 265.846 19.945 C 298.847 22.509 324.923 50.089 324.923 83.692 L 324.923 147.692 L 187.077 147.692 L 187.077 83.692 Z M 68.923 443.077 C 68.923 415.933 91.01 393.846 118.154 393.846 L 167.385 393.846 L 167.385 492.308 L 118.154 492.308 C 91.01 492.308 68.923 470.221 68.923 443.077 Z M 187.077 384 L 187.077 167.385 L 324.923 167.385 L 324.923 384 L 324.923 492.308 L 187.077 492.308 L 187.077 384 Z M 393.846 492.308 L 344.615 492.308 L 344.615 393.846 L 393.846 393.846 C 420.99 393.846 443.077 415.933 443.077 443.077 C 443.077 470.221 420.99 492.308 393.846 492.308 Z" fill="#314E55"/><g></g><g></g><g></g><g></g><g></g><g></g><g></g><g></g><g></g><g></g><g></g><g></g><g></g><g></g><g></g></svg>