<svg version="1.1" width="682.667" height="682.667" viewBox="0 -1 512.001 512" xmlns="http://www.w3.org/2000/svg" xmlns:xlink="http://www.w3.org/1999/xlink" overflow="hidden"><path d=" M 407.023 253.926 C 389.625 253.93 372.336 247.383 359.211 234.254 L 457.293 136.172 C 470.207 149.086 477.203 166.344 476.992 184.773 C 476.785 203.07 469.48 220.336 456.426 233.391 C 442.75 247.066 424.828 253.926 407.023 253.926 Z" fill="#FED843"/><path d=" M 129.125 216.523 L 257.879 113.059 L 276.641 136.41 L 147.891 239.875 Z" fill="#BCDBFD"/><path d=" M 101.063 282.441 L 131.02 282.441 L 131.02 442.766 L 101.063 442.766 Z" fill="#BCDBFD"/><path d=" M 302.332 180.992 L 244.102 122.762 C 216.063 94.7227 216.063 49.1016 244.102 21.0625 C 257.684 7.48047 275.742 0 294.949 0 C 314.156 0 332.215 7.48047 345.797 21.0625 L 404.031 79.2969 Z" fill="#0D54C0"/><path d=" M 323.828 290.816 L 289.914 252.582 C 277.23 238.285 270.398 219.883 270.68 200.773 C 270.957 181.66 278.328 163.469 291.426 149.547 L 291.742 149.223 L 372.598 68.3789 C 386.188 55.6133 403.941 48.4844 422.586 48.3008 C 441.23 48.1016 459.121 54.8984 472.961 67.3945 L 512 102.648 Z" fill="#1C3E91"/><path d=" M 323.969 159.355 L 404.031 79.2969 L 345.797 21.0625 C 339.402 14.6641 332.004 9.64453 323.969 6.09766 Z" fill="#1C3E91"/><path d=" M 323.969 290.676 L 512 102.645 L 472.957 67.3945 C 459.121 54.8984 441.23 48.1016 422.586 48.3008 C 403.941 48.4844 386.188 55.6133 372.594 68.3789 L 323.969 116.996 Z" fill="#2D2F73"/><path d=" M 116.043 297.422 C 90.2617 297.422 69.2891 276.449 69.2891 250.668 C 69.2891 224.891 90.2617 203.918 116.043 203.918 C 141.82 203.918 162.793 224.891 162.793 250.668 C 162.793 276.449 141.82 297.422 116.043 297.422 Z" fill="#0D54C0"/><path d=" M 116.043 297.422 L 116.043 203.918 C 141.82 203.918 162.793 224.891 162.793 250.668 C 162.793 276.449 141.82 297.422 116.043 297.422 Z" fill="#1C3E91"/><path d=" M 231.652 510.52 L 0 510.52 L 0 495.543 C 0 457.77 30.7305 427.039 68.5039 427.039 L 163.148 427.039 C 200.922 427.039 231.652 457.77 231.652 495.543 Z" fill="#0D54C0"/><path d=" M 163.152 427.039 L 115.828 427.039 L 115.828 510.52 L 231.652 510.52 L 231.652 495.543 C 231.652 457.77 200.922 427.039 163.152 427.039 Z" fill="#1C3E91"/></svg>