<svg version="1.1" width="682.667" height="682.667" viewBox="-26 0 512 512" xmlns="http://www.w3.org/2000/svg" xmlns:xlink="http://www.w3.org/1999/xlink" overflow="hidden"><path d=" M 330 336 C 341.051 336 350 344.949 350 356 C 350 367.051 341.051 376 330 376 C 312.184 376 154.809 376 130 376 C 118.949 376 110 367.051 110 356 C 110 344.949 118.949 336 130 336 Z" fill="#FFF5F5"/><path d=" M 327.141 376 L 312.449 484.828 C 311.051 494.68 302.609 502 292.648 502 L 167.352 502 C 157.391 502 148.949 494.68 147.551 484.828 L 132.859 376 Z" fill="#C6715A"/><path d=" M 408.57 51.5195 C 408.461 51.3984 408.34 51.2695 408.219 51.1484 C 408.102 51.0313 407.969 50.9102 407.852 50.8008 C 388.961 32.3281 347.68 24.7891 310 44.8984 C 290.77 55.1602 272.48 72.6094 258.559 99.4805 C 251.129 113.828 244.949 130.859 240.551 150.91 L 240.5 151.18 C 237.629 150.637 232.242 149.855 229.48 150.012 C 224.969 150.102 214.871 151.379 203.031 155.941 L 202.691 155.051 C 196.762 134.348 184.43 115.43 169.5 100.5 C 130.449 61.4492 76.6289 51.9492 49.2891 79.2891 C 21.9492 106.629 31.4492 160.449 70.5 199.5 C 92.0313 221.031 118.051 233.57 141.648 235.922 L 142.34 236.02 C 139.879 251.949 139.699 270.77 142.762 293 C 144.551 306.109 147.48 320.41 151.719 336 L 308.281 336 C 314.789 312.078 318.211 291.211 319.23 273 C 320.328 253.523 318.863 233.473 312.797 215.129 L 314.102 214.691 C 461.578 171.02 429.73 73.4102 408.57 51.5195 Z" fill="#7FE881"/><path d=" M 419.539 160 L 450 160 C 455.523 160 460 155.523 460 150 C 460 144.477 455.523 140 450 140 L 430.266 140 C 431.73 136.305 432.891 132.707 433.801 129.258 C 442.762 95.1875 430.484 57.5078 414.473 43.3086 C 395.586 25.1875 357.91 15.7109 320 29.5234 L 320 10 C 320 4.47656 315.523 0 310 0 C 304.477 0 300 4.47656 300 10 L 300 39.1016 C 282.777 49.4609 268.156 64.2305 256.371 83.1484 L 245.594 72.3672 C 241.688 68.4648 235.355 68.4648 231.449 72.3672 C 227.543 76.2734 227.543 82.6055 231.449 86.5117 L 246.438 101.5 C 240.957 113.234 236.41 126.168 232.852 140.105 C 225.309 139.625 217.496 141.066 209.328 143.344 C 205.914 134.281 201.301 125.297 195.664 116.758 L 204.852 107.574 C 208.758 103.668 208.758 97.3359 204.852 93.4297 C 200.945 89.5234 194.613 89.5234 190.707 93.4297 L 183.402 100.738 C 181.199 98.2305 178.926 95.7813 176.57 93.4297 C 165.469 82.3281 153.027 73.2539 140 66.5742 L 140 40 C 140 34.4766 135.523 30 130 30 C 124.477 30 120 34.4766 120 40 L 120 58.3789 C 115.594 57.0195 111.168 55.9336 106.742 55.1523 C 80.7266 50.5586 57.8164 56.6211 42.2188 72.2188 C 24.3711 90.0664 20.6602 115.418 25.8008 140 L 10 140 C 4.47656 140 -2.84217e-14 144.477 -2.84217e-14 150 C -2.84217e-14 155.523 4.47656 160 10 160 L 31.957 160 C 38.7578 176.645 49.5156 192.656 63.4297 206.57 C 65.8008 208.941 68.2383 211.219 70.7344 213.402 L 63.4297 220.707 C 59.5234 224.613 59.5234 230.945 63.4297 234.852 C 67.3359 238.758 73.6641 238.758 77.5703 234.852 L 86.7734 225.652 C 100.926 234.996 116.168 241.48 131.242 244.461 C 130.152 256.441 130.25 269.34 131.539 283 L 110 283 C 104.477 283 100 287.477 100 293 C 100 298.523 104.477 303 110 303 L 134.18 303 C 135.418 310.422 136.98 318.105 138.855 326 L 130 326 C 113.457 326 100 339.457 100 356 C 100 370.5 110.344 382.633 124.039 385.402 L 125.699 397.699 C 126.375 402.719 130.668 406.363 135.594 406.363 C 136.039 406.363 136.492 406.332 136.945 406.273 C 142.418 405.531 146.258 400.496 145.52 395.023 L 144.301 386 L 315.699 386 L 302.551 483.422 C 301.855 488.313 297.598 492 292.648 492 L 167.352 492 C 162.402 492 158.145 488.313 157.461 483.492 L 156.223 474.313 C 155.48 468.836 150.445 465.004 144.973 465.738 C 139.5 466.477 135.66 471.512 136.402 476.988 L 137.648 486.238 C 139.738 500.926 152.508 512 167.352 512 L 292.648 512 C 307.492 512 320.262 500.926 322.359 486.168 L 335.961 385.402 C 349.656 382.633 360 370.5 360 356 C 360 339.457 346.543 326 330 326 L 321.148 326 C 324.746 310.871 327.199 296.484 328.488 283 L 350 283 C 355.523 283 360 278.523 360 273 C 360 267.477 355.523 263 350 263 L 329.547 263 C 329.664 248.102 328.172 234.293 325.086 221.754 C 344.43 215.488 360.48 208.293 373.781 200.566 L 389.141 215.922 C 393.043 219.828 399.375 219.828 403.281 215.922 C 407.188 212.016 407.188 205.684 403.281 201.777 L 390.824 189.32 C 403.508 179.793 412.789 169.805 419.539 160 Z M 304.145 178.039 C 297.422 169.625 289.473 162.445 280.379 156.566 C 290.129 142.98 302.398 128.691 316.301 114.789 C 335.066 96.0234 354.859 79.9766 372.031 69.5977 C 389.496 59.043 398.496 57.875 401.027 58.3438 C 401.496 60.8711 400.336 69.8672 389.781 87.3359 C 379.402 104.512 363.352 124.309 344.578 143.078 C 331.168 156.488 317.328 168.441 304.145 178.039 Z M 203.785 326 C 201.391 310.348 200 291.184 200 273 C 200 242.492 204.035 212.316 211.074 190.215 C 218.047 168.32 226.141 160.152 229.883 160.004 C 229.895 160.004 229.906 160 229.918 160 L 230.082 160 C 230.094 160 230.105 160.004 230.117 160.004 C 233.859 160.152 241.953 168.324 248.926 190.215 C 255.965 212.316 260 242.492 260 273 C 260 291.184 258.609 310.348 256.215 326 Z M 375.523 45.0234 C 350.387 56.7813 321.098 81.7109 302.16 100.648 C 286.707 116.102 273.098 132.09 262.441 147.277 C 258.938 145.867 255.605 144.734 252.551 143.832 C 256.367 129.211 261.336 115.883 267.406 104.148 C 267.418 104.125 267.43 104.102 267.441 104.078 C 292.969 54.8008 337.262 35.957 375.523 45.0234 Z M 162.43 107.57 C 175.578 120.719 185.078 135.633 190.641 150.461 C 186.586 152.449 182.691 154.688 178.969 157.148 C 170.285 145.348 159.801 133.23 148.281 121.719 C 130.773 104.207 107.57 84.8555 85.2578 73.8828 C 113.332 71.6055 142.586 87.7305 162.43 107.57 Z M 144.199 196.57 C 131.723 187.926 118.395 176.668 105.859 164.137 C 88.6133 146.895 74.1445 128.605 65.1094 112.633 C 55.6523 95.8984 55.7695 87.9648 56.3906 86.3906 C 57.9648 85.7695 65.8984 85.6523 82.6328 95.1094 C 98.6055 104.145 116.898 118.613 134.141 135.863 C 145.227 146.938 155.25 158.559 163.438 169.793 C 155.691 177.516 149.258 186.473 144.199 196.57 Z M 43.8828 115.258 C 54.8398 137.539 74.1719 160.738 91.7188 178.281 C 106.574 193.141 122.008 205.941 136.684 215.633 C 135.801 218.582 135.008 221.602 134.313 224.688 C 114.578 220.617 94.3047 209.16 77.5703 192.43 C 51.707 166.566 42.1328 136.855 43.8828 115.258 Z M 152.223 237.535 C 153.477 229.367 155.453 221.66 158.102 214.625 C 165.605 194.641 178.844 179.125 197.551 169.371 C 185.957 195.094 180 234.309 180 273 C 180 290.973 181.305 309.945 183.57 326 L 159.449 326 C 152.453 298.164 147.781 266.313 152.223 237.535 Z M 340 356 C 340 361.516 335.516 366 330 366 L 130 366 C 124.484 366 120 361.516 120 356 C 120 350.484 124.484 346 130 346 L 330 346 C 335.516 346 340 350.484 340 356 Z M 276.43 326 C 278.695 309.945 280 290.973 280 273 C 280 234.234 274.02 194.945 262.383 169.227 C 281.914 179.32 295.906 195.883 303.301 218.281 C 308.262 233.234 310.281 250.883 309.324 270.742 C 308.813 272.973 309.301 291.242 300.559 326 Z M 318.797 202.758 C 317.641 200.043 316.398 197.398 315.063 194.832 C 329.348 184.512 344.305 171.637 358.723 157.223 C 377.563 138.383 402.336 109.293 414.168 84.2422 C 417.199 95.5977 418.32 109.492 414.457 124.168 C 405.469 158.336 372.449 185.406 318.797 202.758 Z"/><path d=" M 151 436 C 151 430.48 146.52 426 141 426 C 135.48 426 131 430.48 131 436 C 131 441.52 135.48 446 141 446 C 146.52 446 151 441.52 151 436 Z"/></svg>