<svg version="1.1" viewBox="0 0 512 512" xmlns="http://www.w3.org/2000/svg" xmlns:xlink="http://www.w3.org/1999/xlink" id="Capa_1" overflow="hidden"><path d=" M 54.211 249.7 C 54.211 249.7 74.439 279.417 116.835 304.571 C 116.835 304.571 86.13 45.069 286.193 -5.68434e-14 C 234.936 188.121 351.393 241.174 393.844 141.786 C 464.737 236.437 410.91 319.015 410.91 319.015 C 439.979 323.203 464.397 291.445 464.397 291.445 C 464.615 295.357 464.737 299.296 464.737 303.263 C 464.738 418.545 371.283 512 256 512 C 140.717 512 47.262 418.545 47.262 303.262 C 47.262 284.744 49.686 266.794 54.211 249.7 Z" fill="#FF6536"/><path d=" M 464.398 291.445 C 464.398 291.445 439.98 323.203 410.911 319.015 C 410.911 319.015 464.738 236.437 393.845 141.786 C 351.394 241.174 234.937 188.121 286.194 0 C 275.479 2.414 265.431 5.447 256 9.018 L 256 512 C 371.283 512 464.738 418.545 464.738 303.262 C 464.738 299.295 464.616 295.357 464.398 291.445 Z" fill="#FF421D"/><path d=" M 164.456 420.456 C 164.456 471.014 205.442 512 256 512 C 306.558 512 347.544 471.014 347.544 420.456 C 347.544 393.395 335.803 369.077 317.136 352.318 C 281.742 400.403 231.304 327.462 270.612 274.196 C 270.612 274.196 164.456 287.499 164.456 420.456 Z" fill="#FBBF00"/><path d=" M 347.544 420.456 C 347.544 393.395 335.803 369.077 317.136 352.318 C 281.742 400.403 231.304 327.462 270.612 274.196 C 270.612 274.196 264.844 274.921 256 277.712 L 256 512 C 306.558 512 347.544 471.014 347.544 420.456 Z" fill="#FFA900"/><g></g><g></g><g></g><g></g><g></g><g></g><g></g><g></g><g></g><g></g><g></g><g></g><g></g><g></g><g></g></svg>