<svg version="1.1" width="485.213" height="485.213" viewBox="0 0 485.213 485.213" xmlns="http://www.w3.org/2000/svg" xmlns:xlink="http://www.w3.org/1999/xlink" id="Capa_1" overflow="hidden"><g><g><path d=" M 471.882 407.567 L 360.567 296.243 C 343.981 322.038 322.031 343.977 296.236 360.564 L 407.56 471.888 C 425.332 489.656 454.147 489.656 471.881 471.888 C 489.654 454.149 489.654 425.334 471.882 407.567 Z"/><path d=" M 363.909 181.955 C 363.909 81.473 282.44 0 181.956 0 C 81.474 0 0.001 81.473 0.001 181.955 C 0.001 282.437 81.474 363.906 181.956 363.906 C 282.44 363.906 363.909 282.437 363.909 181.955 Z M 181.956 318.416 C 106.704 318.416 45.491 257.208 45.491 181.956 C 45.491 106.704 106.704 45.491 181.956 45.491 C 257.206 45.491 318.424 106.704 318.424 181.956 C 318.424 257.208 257.206 318.416 181.956 318.416 Z"/><path d=" M 75.817 181.955 L 106.139 181.955 C 106.139 140.152 140.153 106.141 181.955 106.141 L 181.955 75.816 C 123.438 75.816 75.817 123.437 75.817 181.955 Z"/></g></g><g></g><g></g><g></g><g></g><g></g><g></g><g></g><g></g><g></g><g></g><g></g><g></g><g></g><g></g><g></g></svg>