<svg version="1.1" viewBox="0 0 512 512" xmlns="http://www.w3.org/2000/svg" xmlns:xlink="http://www.w3.org/1999/xlink" id="Capa_1" overflow="hidden"><path d=" M 59.915 138.874 C 59.915 138.874 137.384 300.268 137.384 493.941 L 217.62 493.941 C 217.62 493.941 224.076 231.099 59.915 138.874 Z" fill="#33BC00"/><path d=" M 452.237 138.874 C 452.237 138.874 374.768 300.268 374.768 493.941 L 294.532 493.941 C 294.532 493.941 288.076 231.099 452.237 138.874 Z" fill="#008100"/><path d=" M 512 286.434 C 512 286.434 453.932 355.603 453.932 493.941 L 373.696 493.941 C 373.697 493.941 359.828 332.547 512 286.434 Z" fill="#015901"/><path d=" M 0 286.434 C 0 286.434 58.068 355.603 58.068 493.941 L 138.304 493.941 C 138.303 493.941 152.172 332.547 0 286.434 Z" fill="#79D60D"/><path d=" M 380.185 18.059 C 380.185 18.059 296.26 219.11 296.26 493.941 L 216.024 493.941 C 216.024 493.941 201.268 170.231 380.185 18.059 Z" fill="#00AC00"/><g></g><g></g><g></g><g></g><g></g><g></g><g></g><g></g><g></g><g></g><g></g><g></g><g></g><g></g><g></g></svg>