<svg version="1.1" viewBox="0 0 512 512" xmlns="http://www.w3.org/2000/svg" xmlns:xlink="http://www.w3.org/1999/xlink" id="Layer_1" overflow="hidden"><path d=" M 503.83 362.322 L 503.83 394.894 L 256 460.125 L 8.17 416.55 L 8.17 264.284 L 29.957 231.603 L 8.17 198.922 L 8.17 166.241 L 503.83 166.241 L 503.83 198.922 L 482.043 275.118 Z" fill="#AAC36D"/><path d=" M 503.83 394.894 L 503.83 503.83 L 471.149 503.83 L 427.575 449.351 L 471.149 394.894 C 471.149 394.872 503.83 394.894 503.83 394.894 Z" fill="#55B9D3"/><path d=" M 471.149 394.894 L 471.149 503.83 L 8.17 503.83 L 8.17 416.55 L 324.085 416.55 C 324.085 404.513 333.835 394.763 345.872 394.763 C 345.872 394.763 471.149 394.872 471.149 394.894 Z" fill="#8CE6FE"/><path d=" M 503.83 198.917 L 503.83 362.322 L 471.149 362.322 L 416.681 280.62 L 471.149 198.917 Z" fill="#55B9D3"/><path d=" M 471.149 198.917 L 471.149 362.321 L 258.723 362.321 C 222.622 362.321 193.361 333.061 193.361 296.959 C 193.361 278.919 178.731 264.278 160.68 264.278 L 8.17 264.278 L 8.17 198.916 L 471.149 198.916 Z" fill="#8CE6FE"/><g><path d=" M 503.83 305.135 L 351.319 305.135 C 346.807 305.135 343.149 301.477 343.149 296.965 C 343.149 292.453 346.807 288.795 351.319 288.795 L 503.83 288.795 C 508.342 288.795 512 292.453 512 296.965 C 512 301.477 508.342 305.135 503.83 305.135 Z" fill="#FFFFFF"/><path d=" M 384 239.773 L 106.213 239.773 C 101.701 239.773 98.043 236.115 98.043 231.603 C 98.043 227.091 101.701 223.433 106.213 223.433 L 384 223.433 C 388.512 223.433 392.17 227.091 392.17 231.603 C 392.17 236.115 388.512 239.773 384 239.773 Z" fill="#FFFFFF"/><path d=" M 318.638 305.135 L 285.957 305.135 C 281.445 305.135 277.787 301.477 277.787 296.965 C 277.787 292.453 281.445 288.795 285.957 288.795 L 318.638 288.795 C 323.15 288.795 326.808 292.453 326.808 296.965 C 326.808 301.477 323.15 305.135 318.638 305.135 Z" fill="#FFFFFF"/><path d=" M 503.83 337.815 L 384 337.815 C 379.488 337.815 375.83 334.157 375.83 329.645 C 375.83 325.133 379.488 321.475 384 321.475 L 503.83 321.475 C 508.342 321.475 512 325.133 512 329.645 C 512 334.157 508.342 337.815 503.83 337.815 Z" fill="#FFFFFF"/><path d=" M 471.149 468.539 L 324.085 468.539 C 319.573 468.539 315.915 464.881 315.915 460.369 C 315.915 455.857 319.573 452.199 324.085 452.199 L 471.149 452.199 C 475.661 452.199 479.319 455.857 479.319 460.369 C 479.319 464.881 475.661 468.539 471.149 468.539 Z" fill="#FFFFFF"/><path d=" M 73.532 239.773 L 8.17 239.773 C 3.658 239.773 0 236.115 0 231.603 C 0 227.091 3.658 223.433 8.17 223.433 L 73.532 223.433 C 78.044 223.433 81.702 227.091 81.702 231.603 C 81.702 236.115 78.044 239.773 73.532 239.773 Z" fill="#FFFFFF"/><path d=" M 291.404 468.539 L 204.255 468.539 C 199.743 468.539 196.085 464.881 196.085 460.369 C 196.085 455.857 199.743 452.199 204.255 452.199 L 291.404 452.199 C 295.916 452.199 299.574 455.857 299.574 460.369 C 299.574 464.881 295.916 468.539 291.404 468.539 Z" fill="#FFFFFF"/></g><path d=" M 476.596 79.092 L 443.915 79.092 L 443.915 133.56 L 476.596 133.56 C 491.64 133.56 503.83 121.37 503.83 106.326 C 503.83 91.282 491.64 79.092 476.596 79.092 Z" fill="#D9F7FF"/><path d=" M 443.915 79.092 C 458.959 79.092 471.149 91.282 471.149 106.326 C 471.149 121.37 458.959 133.56 443.915 133.56 L 348.596 133.56 C 333.552 133.56 321.362 121.37 321.362 106.326 C 321.362 91.282 333.552 79.092 348.596 79.092 L 443.915 79.092 Z" fill="#FFFFFF"/><g><path d=" M 272.34 35.404 L 239.66 35.404 L 239.66 89.872 L 272.341 89.872 C 287.385 89.872 299.575 77.682 299.575 62.638 C 299.575 47.594 287.384 35.404 272.34 35.404 Z" fill="#D9F7FF"/><path d=" M 209.702 35.404 L 149.787 57.191 L 149.787 8.17 L 182.468 8.17 C 197.512 8.17 209.702 20.36 209.702 35.404 Z" fill="#D9F7FF"/></g><path d=" M 239.66 35.404 C 254.704 35.404 266.894 47.594 266.894 62.638 C 266.894 77.682 254.704 89.872 239.66 89.872 L 125.277 89.872 C 110.233 89.872 98.043 77.682 98.043 62.638 L 35.404 62.638 C 20.36 62.638 8.17 50.448 8.17 35.404 C 8.17 20.36 20.36 8.17 35.404 8.17 L 149.787 8.17 C 164.831 8.17 177.021 20.36 177.021 35.404 L 209.702 35.404 L 239.66 35.404 Z" fill="#FFFFFF"/><path d=" M 503.83 158.071 L 8.17 158.071 C 3.658 158.071 0 161.729 0 166.241 C 0 170.753 3.658 174.411 8.17 174.411 L 503.83 174.411 C 508.342 174.411 512 170.753 512 166.241 C 512 161.729 508.342 158.071 503.83 158.071 Z"/><path d=" M 384 190.752 L 8.17 190.752 C 3.658 190.752 0 194.41 0 198.922 C 0 203.434 3.658 207.092 8.17 207.092 L 384 207.092 C 388.512 207.092 392.17 203.434 392.17 198.922 C 392.17 194.41 388.512 190.752 384 190.752 Z"/><path d=" M 503.83 190.752 L 416.681 190.752 C 412.169 190.752 408.511 194.41 408.511 198.922 C 408.511 203.434 412.169 207.092 416.681 207.092 L 503.83 207.092 C 508.342 207.092 512 203.434 512 198.922 C 512 194.41 508.342 190.752 503.83 190.752 Z"/><path d=" M 503.83 354.156 L 258.723 354.156 C 227.187 354.156 201.532 328.5 201.532 296.965 C 201.532 274.439 183.207 256.114 160.681 256.114 L 8.17 256.114 C 3.658 256.114 0 259.772 0 264.284 C 0 268.796 3.658 272.454 8.17 272.454 L 160.681 272.454 C 174.197 272.454 185.192 283.449 185.192 296.965 C 185.192 337.511 218.178 370.497 258.724 370.497 L 503.83 370.497 C 508.342 370.497 512 366.839 512 362.327 C 512 357.814 508.342 354.156 503.83 354.156 Z"/><path d=" M 503.836 386.723 L 345.872 386.587 C 332.184 386.587 320.612 395.814 317.048 408.374 L 204.255 408.374 C 199.743 408.374 196.085 412.032 196.085 416.544 C 196.085 421.056 199.743 424.714 204.255 424.714 L 324.085 424.714 C 328.597 424.714 332.255 421.056 332.255 416.544 C 332.255 409.035 338.363 402.927 345.865 402.927 L 503.822 403.063 C 508.339 403.063 511.995 399.409 511.999 394.899 C 512.003 390.388 508.348 386.727 503.836 386.723 Z"/><path d=" M 171.574 365.049 C 167.062 365.049 163.404 368.707 163.404 373.219 L 163.404 408.374 L 114.383 408.374 L 114.383 373.22 C 114.383 368.708 110.725 365.05 106.213 365.05 C 101.701 365.05 98.043 368.708 98.043 373.22 L 98.043 408.375 L 81.703 408.375 L 81.703 373.22 C 81.703 368.708 78.045 365.05 73.533 365.05 C 69.021 365.05 65.363 368.708 65.363 373.22 L 65.363 408.375 L 49.023 408.375 L 49.023 373.22 C 49.023 368.708 45.365 365.05 40.853 365.05 C 36.341 365.05 32.683 368.708 32.683 373.22 L 32.683 408.375 L 8.17 408.375 C 3.658 408.375 0 412.033 0 416.545 C 0 421.057 3.658 424.715 8.17 424.715 L 32.681 424.715 L 32.681 503.83 C 32.681 508.342 36.339 512 40.851 512 C 45.363 512 49.021 508.342 49.021 503.83 L 49.021 424.715 L 65.361 424.715 L 65.361 503.83 C 65.361 508.342 69.019 512 73.531 512 C 78.043 512 81.701 508.342 81.701 503.83 L 81.701 424.715 L 98.041 424.715 L 98.041 503.83 C 98.041 508.342 101.699 512 106.211 512 C 110.723 512 114.381 508.342 114.381 503.83 L 114.381 424.715 L 163.402 424.715 L 163.402 503.83 C 163.402 508.342 167.06 512 171.572 512 C 176.084 512 179.742 508.342 179.742 503.83 L 179.742 373.22 C 179.745 368.708 176.087 365.049 171.574 365.049 Z"/><path d=" M 348.596 141.73 L 476.596 141.73 C 496.117 141.73 512 125.847 512 106.326 C 512 86.805 496.117 70.922 476.596 70.922 L 348.596 70.922 C 329.075 70.922 313.192 86.805 313.192 106.326 C 313.192 125.847 329.074 141.73 348.596 141.73 Z M 348.596 87.262 L 476.596 87.262 C 487.107 87.262 495.66 95.815 495.66 106.326 C 495.66 116.837 487.107 125.39 476.596 125.39 L 348.596 125.39 C 338.085 125.39 329.532 116.837 329.532 106.326 C 329.532 95.815 338.085 87.262 348.596 87.262 Z"/><path d=" M 35.404 70.809 L 90.824 70.809 C 94.521 86.405 108.565 98.043 125.276 98.043 L 217.872 98.043 C 222.384 98.043 226.042 94.385 226.042 89.873 C 226.042 85.361 222.384 81.703 217.872 81.703 L 125.276 81.703 C 114.765 81.703 106.212 73.15 106.212 62.639 C 106.212 58.127 102.554 54.469 98.042 54.469 L 35.404 54.469 C 24.893 54.469 16.34 45.916 16.34 35.405 C 16.34 24.894 24.893 16.34 35.404 16.34 L 182.468 16.34 C 192.979 16.34 201.532 24.893 201.532 35.404 C 201.532 39.916 205.19 43.574 209.702 43.574 L 272.34 43.574 C 282.851 43.574 291.404 52.127 291.404 62.638 C 291.404 73.149 282.851 81.702 272.34 81.702 L 250.553 81.702 C 246.041 81.702 242.383 85.36 242.383 89.872 C 242.383 94.384 246.041 98.042 250.553 98.042 L 272.34 98.042 C 291.861 98.042 307.744 82.159 307.744 62.638 C 307.744 43.117 291.861 27.234 272.34 27.234 L 216.92 27.234 C 213.223 11.638 199.179 0 182.468 0 L 35.404 0 C 15.883 0 0 15.883 0 35.404 C 0 54.925 15.883 70.809 35.404 70.809 Z"/><g></g><g></g><g></g><g></g><g></g><g></g><g></g><g></g><g></g><g></g><g></g><g></g><g></g><g></g><g></g></svg>