<svg version="1.1" viewBox="0 0 470 470" xmlns="http://www.w3.org/2000/svg" xmlns:xlink="http://www.w3.org/1999/xlink" id="Capa_1" overflow="hidden"><g><path d=" M 217.657 189.359 C 214.152 209.513 203.023 273.919 197.565 310.173 C 196.642 316.312 195.833 321.874 195.156 326.725 C 194.634 330.476 191.421 333.191 187.738 333.191 C 187.392 333.191 187.045 333.167 186.693 333.118 C 182.59 332.546 179.728 328.757 180.3 324.655 C 180.753 321.403 181.266 317.832 181.83 313.999 C 179.618 313.433 177.336 313.138 174.999 313.138 C 159.834 313.138 147.497 325.475 147.497 340.64 C 147.497 355.805 159.834 368.142 174.999 368.142 C 176.722 368.142 178.416 367.977 180.077 367.666 C 178.948 364.021 178.174 360.27 177.789 356.438 C 177.376 352.316 180.382 348.64 184.504 348.227 C 188.622 347.807 192.302 350.819 192.715 354.941 C 193.208 359.86 194.543 364.607 196.683 369.051 C 203.738 383.691 218.773 393.141 234.999 393.141 C 251.225 393.141 266.261 383.691 273.31 369.064 C 275.456 364.606 276.79 359.86 277.283 354.943 C 277.696 350.821 281.37 347.819 285.493 348.227 C 289.615 348.64 292.621 352.315 292.209 356.437 C 291.825 360.268 291.052 364.02 289.922 367.666 C 291.583 367.976 293.277 368.142 295 368.142 C 310.165 368.142 322.502 355.805 322.502 340.64 C 322.502 325.475 310.165 313.138 295 313.138 C 292.663 313.138 290.381 313.434 288.169 314 C 288.735 317.847 289.249 321.419 289.699 324.658 C 290.269 328.761 287.407 332.549 283.304 333.12 C 282.953 333.169 282.605 333.193 282.26 333.193 C 278.576 333.193 275.364 330.478 274.841 326.726 C 274.17 321.904 273.361 316.342 272.436 310.194 C 266.977 273.921 255.847 209.515 252.342 189.361 L 217.657 189.361 Z" fill="#FFAD85"/><path d=" M 408.086 94.183 C 392.6 82.85 374.243 76.859 355 76.859 C 311 76.859 272.765 109.594 266.061 153.004 C 265.497 156.661 262.349 159.359 258.649 159.359 L 211.352 159.359 C 207.652 159.359 204.504 156.66 203.94 153.004 C 197.235 109.594 159 76.859 115 76.859 C 65.374 76.859 25 117.233 25 166.859 C 25 216.485 65.374 256.859 115 256.859 C 158.835 256.859 196.939 224.366 203.853 181.199 C 203.919 180.823 203.957 180.604 203.964 180.565 C 203.977 180.492 203.998 180.423 204.013 180.352 C 204.043 180.208 204.073 180.064 204.111 179.923 C 204.138 179.823 204.168 179.726 204.199 179.628 C 204.24 179.498 204.282 179.368 204.329 179.242 C 204.366 179.142 204.406 179.044 204.447 178.946 C 204.497 178.827 204.551 178.709 204.607 178.593 C 204.654 178.496 204.702 178.399 204.753 178.305 C 204.813 178.193 204.878 178.084 204.943 177.976 C 204.998 177.886 205.052 177.795 205.111 177.707 C 205.185 177.597 205.263 177.491 205.342 177.385 C 205.4 177.307 205.457 177.227 205.518 177.151 C 205.616 177.029 205.721 176.913 205.827 176.798 C 205.875 176.746 205.92 176.69 205.97 176.639 C 206.294 176.305 206.649 176.003 207.029 175.735 C 207.063 175.711 207.1 175.69 207.134 175.666 C 207.29 175.56 207.449 175.457 207.613 175.363 C 207.668 175.331 207.725 175.303 207.78 175.273 C 207.927 175.193 208.075 175.116 208.228 175.046 C 208.297 175.014 208.368 174.986 208.439 174.956 C 208.58 174.896 208.722 174.84 208.868 174.789 C 208.951 174.76 209.035 174.734 209.119 174.707 C 209.254 174.665 209.39 174.626 209.528 174.591 C 209.624 174.567 209.721 174.545 209.818 174.524 C 209.946 174.497 210.075 174.475 210.205 174.455 C 210.313 174.438 210.421 174.423 210.53 174.41 C 210.654 174.396 210.778 174.388 210.904 174.381 C 211.018 174.374 211.132 174.367 211.247 174.365 C 211.283 174.365 211.318 174.36 211.354 174.36 L 258.651 174.36 C 258.683 174.36 258.714 174.364 258.747 174.364 C 258.875 174.365 259.002 174.373 259.128 174.381 C 259.238 174.388 259.347 174.395 259.456 174.407 C 259.581 174.42 259.704 174.438 259.827 174.458 C 259.939 174.476 260.05 174.495 260.16 174.518 C 260.275 174.542 260.388 174.568 260.501 174.596 C 260.62 174.626 260.737 174.66 260.853 174.695 C 260.955 174.726 261.056 174.758 261.156 174.794 C 261.281 174.838 261.404 174.888 261.526 174.939 C 261.615 174.976 261.704 175.012 261.791 175.053 C 261.922 175.114 262.05 175.18 262.177 175.248 C 262.252 175.288 262.328 175.326 262.402 175.368 C 262.542 175.449 262.678 175.538 262.813 175.628 C 262.869 175.666 262.928 175.7 262.983 175.739 C 263.161 175.865 263.334 175.999 263.501 176.141 C 263.703 176.312 263.869 176.469 264.029 176.634 C 264.086 176.693 264.138 176.757 264.194 176.818 C 264.292 176.926 264.391 177.034 264.483 177.148 C 264.546 177.226 264.604 177.308 264.664 177.389 C 264.742 177.493 264.819 177.597 264.891 177.706 C 264.95 177.794 265.004 177.884 265.059 177.975 C 265.125 178.084 265.19 178.194 265.251 178.307 C 265.301 178.4 265.348 178.495 265.395 178.591 C 265.452 178.709 265.507 178.829 265.558 178.95 C 265.598 179.046 265.637 179.142 265.673 179.24 C 265.721 179.37 265.765 179.501 265.806 179.634 C 265.836 179.73 265.866 179.825 265.892 179.922 C 265.93 180.064 265.961 180.21 265.991 180.355 C 266.005 180.426 266.026 180.494 266.039 180.566 C 266.046 180.604 266.084 180.824 266.15 181.2 C 273.064 224.367 311.168 256.86 355.003 256.86 C 404.629 256.86 445.003 216.486 445.003 166.86 C 445.003 147.617 439.013 129.26 427.679 113.774 C 425.289 110.509 425.935 105.961 429.081 103.472 C 425.799 99.639 422.224 96.065 418.392 92.783 C 415.898 95.927 411.35 96.572 408.086 94.183 Z M 115 241.859 C 73.645 241.859 40 208.214 40 166.859 C 40 125.504 73.645 91.859 115 91.859 C 156.355 91.859 190 125.504 190 166.859 C 190 208.214 156.355 241.859 115 241.859 Z M 430 166.859 C 430 208.214 396.355 241.859 355 241.859 C 313.645 241.859 280 208.214 280 166.859 C 280 125.504 313.645 91.859 355 91.859 C 396.355 91.859 430 125.504 430 166.859 Z" fill="#1F717A"/><path d=" M 115 91.859 C 73.645 91.859 40 125.504 40 166.859 C 40 208.214 73.645 241.859 115 241.859 C 156.355 241.859 190 208.214 190 166.859 C 190 125.504 156.355 91.859 115 91.859 Z M 115 226.859 C 81.916 226.859 55 199.943 55 166.859 C 55 133.775 81.916 106.859 115 106.859 C 148.084 106.859 175 133.775 175 166.859 C 175 199.943 148.084 226.859 115 226.859 Z" fill="#081C1F"/><path d=" M 355 91.859 C 313.645 91.859 280 125.504 280 166.859 C 280 208.214 313.645 241.859 355 241.859 C 396.355 241.859 430 208.214 430 166.859 C 430 125.504 396.355 91.859 355 91.859 Z M 355 226.859 C 321.916 226.859 295 199.943 295 166.859 C 295 133.775 321.916 106.859 355 106.859 C 388.084 106.859 415 133.775 415 166.859 C 415 199.943 388.084 226.859 355 226.859 Z" fill="#081C1F"/><path d=" M 462.5 159.359 L 459.725 159.359 C 458.342 139.655 451.527 120.964 439.782 104.914 C 437.335 101.571 432.643 100.844 429.3 103.291 C 429.223 103.348 429.154 103.411 429.079 103.47 C 425.933 105.959 425.287 110.507 427.677 113.772 C 439.01 129.259 445 147.616 445 166.859 C 445 216.485 404.626 256.859 355 256.859 C 311.165 256.859 273.061 224.366 266.147 181.199 C 266.081 180.823 266.043 180.604 266.036 180.565 C 266.023 180.493 266.002 180.425 265.988 180.354 C 265.958 180.208 265.927 180.063 265.889 179.921 C 265.863 179.824 265.833 179.729 265.803 179.633 C 265.762 179.5 265.718 179.368 265.67 179.239 C 265.634 179.141 265.595 179.045 265.555 178.949 C 265.504 178.827 265.45 178.708 265.392 178.59 C 265.346 178.494 265.298 178.4 265.248 178.306 C 265.187 178.193 265.123 178.084 265.056 177.974 C 265.001 177.883 264.947 177.793 264.888 177.705 C 264.816 177.596 264.738 177.492 264.661 177.388 C 264.601 177.307 264.543 177.225 264.48 177.147 C 264.388 177.033 264.289 176.925 264.191 176.817 C 264.135 176.756 264.083 176.692 264.026 176.633 C 263.866 176.469 263.7 176.311 263.526 176.162 C 263.331 175.999 263.158 175.865 262.98 175.738 C 262.925 175.699 262.866 175.665 262.81 175.627 C 262.675 175.537 262.54 175.448 262.399 175.367 C 262.325 175.324 262.249 175.287 262.174 175.247 C 262.047 175.179 261.919 175.112 261.788 175.052 C 261.701 175.011 261.612 174.976 261.523 174.938 C 261.401 174.887 261.278 174.838 261.153 174.793 C 261.053 174.757 260.951 174.725 260.85 174.694 C 260.734 174.658 260.617 174.625 260.498 174.595 C 260.385 174.566 260.271 174.54 260.157 174.517 C 260.047 174.494 259.936 174.475 259.824 174.457 C 259.701 174.437 259.577 174.42 259.453 174.406 C 259.344 174.394 259.235 174.387 259.125 174.38 C 258.998 174.372 258.872 174.364 258.744 174.363 C 258.712 174.363 258.681 174.359 258.648 174.359 L 211.351 174.359 C 211.315 174.359 211.28 174.363 211.244 174.364 C 211.129 174.365 211.015 174.373 210.901 174.38 C 210.776 174.387 210.651 174.396 210.527 174.409 C 210.418 174.421 210.31 174.437 210.202 174.454 C 210.072 174.474 209.943 174.497 209.815 174.523 C 209.718 174.544 209.621 174.565 209.525 174.59 C 209.387 174.625 209.251 174.663 209.116 174.706 C 209.032 174.732 208.948 174.759 208.865 174.788 C 208.72 174.839 208.578 174.896 208.436 174.955 C 208.365 174.985 208.295 175.013 208.225 175.045 C 208.073 175.115 207.924 175.192 207.777 175.272 C 207.721 175.302 207.665 175.33 207.61 175.362 C 207.446 175.456 207.287 175.559 207.131 175.665 C 207.096 175.689 207.06 175.71 207.026 175.734 C 206.646 176.002 206.291 176.305 205.967 176.638 C 205.917 176.689 205.872 176.745 205.824 176.797 C 205.718 176.912 205.613 177.028 205.515 177.15 C 205.454 177.226 205.397 177.306 205.339 177.384 C 205.26 177.49 205.181 177.596 205.108 177.706 C 205.05 177.794 204.995 177.884 204.94 177.975 C 204.874 178.083 204.81 178.192 204.75 178.304 C 204.699 178.399 204.651 178.495 204.604 178.592 C 204.548 178.708 204.495 178.825 204.444 178.945 C 204.403 179.043 204.363 179.141 204.326 179.241 C 204.279 179.368 204.236 179.497 204.196 179.627 C 204.166 179.725 204.135 179.822 204.108 179.922 C 204.07 180.063 204.04 180.207 204.01 180.351 C 203.995 180.423 203.974 180.492 203.961 180.564 C 203.954 180.602 203.916 180.822 203.85 181.198 C 196.936 224.365 158.832 256.858 114.997 256.858 C 65.371 256.858 24.997 216.484 24.997 166.858 C 24.997 117.232 65.371 76.858 114.997 76.858 C 158.997 76.858 197.232 109.593 203.936 153.003 C 204.5 156.66 207.648 159.358 211.348 159.358 L 258.645 159.358 C 262.345 159.358 265.493 156.659 266.057 153.003 C 272.765 109.594 311 76.859 355 76.859 C 374.243 76.859 392.6 82.85 408.086 94.183 C 411.35 96.572 415.898 95.928 418.388 92.781 C 418.447 92.706 418.511 92.637 418.568 92.56 C 421.014 89.217 420.287 84.525 416.945 82.079 C 398.87 68.851 377.45 61.859 355 61.859 C 329.779 61.859 305.396 70.935 286.344 87.414 C 269.132 102.302 257.242 122.333 252.421 144.359 L 217.579 144.359 C 212.758 122.334 200.868 102.302 183.656 87.414 C 164.604 70.935 140.221 61.859 115 61.859 C 59.625 61.859 14.13 104.949 10.271 159.359 L 7.5 159.359 C 3.357 159.359 0 162.717 0 166.859 C 0 171.001 3.357 174.359 7.5 174.359 L 10.271 174.359 C 14.13 228.769 59.625 271.859 115 271.859 C 140.222 271.859 164.604 262.783 183.656 246.304 C 187.573 242.916 191.199 239.25 194.544 235.366 C 190.946 256.626 187.011 280.321 184.087 299.106 C 181.128 298.461 178.093 298.137 175 298.137 C 151.564 298.137 132.498 317.203 132.498 340.639 C 132.498 364.075 151.564 383.141 175 383.141 C 178.942 383.141 182.797 382.611 186.521 381.561 C 196.993 397.898 215.352 408.141 235 408.141 C 254.648 408.141 273.008 397.898 283.479 381.561 C 287.203 382.611 291.057 383.141 295 383.141 C 318.436 383.141 337.502 364.075 337.502 340.639 C 337.502 317.203 318.436 298.137 295 298.137 C 291.907 298.137 288.872 298.462 285.913 299.106 C 282.989 280.321 279.054 256.626 275.456 235.366 C 278.801 239.25 282.427 242.916 286.344 246.304 C 305.397 262.783 329.779 271.859 355 271.859 C 410.375 271.859 455.87 228.769 459.729 174.359 L 462.5 174.359 C 466.643 174.359 470 171.001 470 166.859 C 470 162.717 466.643 159.359 462.5 159.359 Z M 272.435 310.173 C 273.362 316.339 274.171 321.901 274.842 326.724 C 275.364 330.476 278.577 333.191 282.261 333.191 C 282.606 333.191 282.954 333.167 283.305 333.118 C 287.408 332.547 290.27 328.759 289.7 324.656 C 289.249 321.417 288.736 317.845 288.17 313.998 C 290.382 313.432 292.664 313.136 295.001 313.136 C 310.166 313.136 322.503 325.473 322.503 340.638 C 322.503 355.803 310.166 368.14 295.001 368.14 C 293.278 368.14 291.584 367.975 289.923 367.664 C 291.052 364.018 291.826 360.267 292.21 356.435 C 292.622 352.313 289.616 348.638 285.494 348.225 C 281.371 347.817 277.697 350.819 277.284 354.941 C 276.792 359.858 275.457 364.605 273.317 369.049 C 266.262 383.689 251.227 393.139 235.001 393.139 C 218.775 393.139 203.739 383.689 196.69 369.062 C 194.545 364.605 193.21 359.858 192.716 354.939 C 192.303 350.817 188.623 347.805 184.505 348.225 C 180.383 348.638 177.377 352.314 177.79 356.436 C 178.175 360.267 178.949 364.019 180.078 367.664 C 178.417 367.974 176.723 368.14 175 368.14 C 159.835 368.14 147.498 355.803 147.498 340.638 C 147.498 325.473 159.835 313.136 175 313.136 C 177.337 313.136 179.619 313.432 181.831 313.997 C 181.267 317.83 180.754 321.401 180.301 324.653 C 179.729 328.756 182.591 332.545 186.694 333.116 C 187.046 333.165 187.393 333.189 187.739 333.189 C 191.422 333.189 194.635 330.475 195.157 326.723 C 195.834 321.873 196.643 316.31 197.564 310.19 C 203.023 273.917 214.153 209.511 217.658 189.357 L 252.344 189.357 C 255.847 209.513 266.977 273.919 272.435 310.173 Z" fill="#081C1F"/></g><g></g><g></g><g></g><g></g><g></g><g></g><g></g><g></g><g></g><g></g><g></g><g></g><g></g><g></g><g></g></svg>