<svg version="1.1" viewBox="0 0 504.124 504.124" xmlns="http://www.w3.org/2000/svg" xmlns:xlink="http://www.w3.org/1999/xlink" id="Layer_1" overflow="hidden"><path d=" M 454.892 397.785 L 49.231 397.785 L 49.231 444.259 C 49.231 477.342 140.209 504.124 252.062 504.124 C 363.915 504.124 454.893 477.342 454.893 444.259 L 454.893 397.785 L 454.892 397.785 Z" fill="#CE5E55"/><path d=" M 252.062 338.708 C 363.914 338.708 454.893 365.096 454.893 397.785 C 454.893 430.474 363.915 456.862 252.062 456.862 C 140.209 456.862 49.231 430.474 49.231 397.785 C 49.231 365.096 140.209 338.708 252.062 338.708 Z" fill="#DE655B"/><path d=" M 381.243 374.154 L 289.871 28.751 C 285.538 11.815 269.785 0 252.455 0 L 251.667 0 C 233.944 0 218.584 11.815 214.252 28.751 L 122.88 374.154 C 122.092 376.123 121.305 377.699 121.305 379.668 C 121.305 401.33 179.988 419.053 252.062 419.053 C 324.136 419.053 382.819 401.33 382.819 379.668 C 382.819 377.698 382.425 376.123 381.243 374.154 Z" fill="#E66B62"/><path d=" M 144.935 379.668 C 144.935 377.699 145.723 375.73 146.51 374.154 L 237.882 28.751 C 241.427 15.754 251.273 5.514 263.876 1.969 C 260.332 0.788 256.394 0 252.455 0 L 251.667 0 C 233.944 0 218.584 11.815 214.252 28.751 L 122.88 374.154 C 122.092 376.123 121.305 377.699 121.305 379.668 C 121.305 401.33 179.988 419.053 252.062 419.053 L 263.877 419.053 C 197.317 417.083 144.935 400.148 144.935 379.668 Z" fill="#D4635A"/><path d=" M 362.338 302.868 L 338.707 213.465 C 315.47 219.767 285.144 223.311 252.061 223.311 C 218.978 223.311 188.258 219.766 165.415 213.465 L 141.784 302.868 C 165.021 313.896 205.587 320.985 252.061 320.985 C 298.535 320.985 339.102 313.502 362.338 302.868 Z M 324.923 161.477 L 303.655 81.132 C 287.901 83.889 270.178 85.464 252.061 85.464 C 233.944 85.464 216.221 83.889 200.467 81.132 L 179.2 161.477 C 200.074 166.991 225.28 170.142 252.062 170.142 C 278.844 170.142 304.049 166.991 324.923 161.477 Z" fill="#FFFFFF"/><path d=" M 179.2 161.477 C 186.289 163.446 193.772 165.022 201.649 166.203 L 223.311 84.283 C 215.434 83.495 207.951 82.708 200.468 81.526 L 179.2 161.477 Z M 187.865 218.191 C 179.988 217.009 172.505 215.04 165.416 213.465 L 141.785 302.868 C 147.693 305.625 155.176 308.382 163.447 310.745 L 187.865 218.191 Z" fill="#EBEBEB"/><g></g><g></g><g></g><g></g><g></g><g></g><g></g><g></g><g></g><g></g><g></g><g></g><g></g><g></g><g></g></svg>