<svg version="1.1" width="682.667" height="682.667" viewBox="0 -36 512.001 512" xmlns="http://www.w3.org/2000/svg" xmlns:xlink="http://www.w3.org/1999/xlink" overflow="hidden"><g fill-rule="evenodd"><path d=" M 59.6914 205.223 C 71.4453 203.5 82.3242 196.617 88.7266 185.531 C 96.168 172.637 95.6641 157.336 88.7266 145.305 C 74.8398 145.316 61.3359 152.527 53.8945 165.418 C 49.5117 173.008 47.8828 181.43 48.7031 189.531 C 49.2734 195.191 51.0391 200.695 53.8906 205.645 C 55.8359 205.645 57.7734 205.5 59.6914 205.223 Z" fill="#CBE557"/><path d=" M 108.68 253.859 C 91.9648 242.457 75.543 226.441 59.6914 205.223 C 57.7734 205.5 55.8359 205.645 53.8906 205.645 C 51.0352 200.695 49.2734 195.191 48.7031 189.531 C 35.2734 169.117 22.3164 144.734 10.0039 115.992 L 10.0039 207.195 C 20.7813 224.16 31.9336 238.961 43.3828 251.738 C 56.8594 266.777 70.75 279.016 84.918 288.68 C 90.3281 292.367 95.7734 295.691 101.246 298.652 C 137.25 318.152 174.449 322.191 211.051 314.23 C 219.172 312.461 227.242 310.098 235.238 307.172 C 248.082 302.48 260.738 296.348 273.129 288.941 C 291.582 277.914 309.445 264.063 326.445 247.93 C 334.328 240.453 342.035 232.469 349.539 224.035 C 370.738 200.219 390.316 172.824 407.602 143.172 C 426.379 110.961 442.449 76.0781 454.949 40.2188 C 458.438 30.2109 461.648 20.125 464.563 10.0039 L 420.52 10.0039 C 407.668 51.1406 389.699 91.1953 368.105 127.273 C 368.008 130.363 367.563 133.441 366.758 136.449 C 365.145 136.879 363.508 137.207 361.859 137.434 C 342.652 167.875 320.852 195.148 297.402 217.402 C 283.516 230.578 269.109 241.922 254.398 251.016 C 241.941 258.719 229.266 264.809 216.508 269.027 C 211.727 270.609 206.934 271.93 202.137 272.973 C 171.023 279.742 139.207 274.68 108.68 253.859 Z" fill="#D29976"/><path d=" M 161.988 109.766 C 176.723 167.645 195.32 222.152 216.508 269.027 C 229.266 264.809 241.941 258.719 254.398 251.012 C 231.926 201.238 212.441 141.875 197.68 78.7695 C 196.902 78.6094 196.129 78.4297 195.355 78.2227 C 194.074 73.4219 193.695 68.4297 194.223 63.5156 C 190.348 45.8906 186.844 28.0078 183.75 10.0039 L 141.074 10.0039 C 146.684 43.8164 153.73 77.3203 161.988 109.766 Z" fill="#78D0A9"/><path d=" M 197.68 78.7695 C 210.473 81.3867 224.289 77.7305 234.215 67.8086 C 244.738 57.2813 248.211 42.3711 244.625 28.9531 C 231.207 25.3711 216.301 28.8398 205.773 39.3672 C 199.012 46.1289 195.16 54.6992 194.223 63.5156 C 193.695 68.4297 194.078 73.4219 195.355 78.2227 C 196.129 78.4297 196.902 78.6094 197.68 78.7695 Z" fill="#90D9B8"/><path d=" M 317.488 87.1797 C 313.906 100.598 317.379 115.504 327.902 126.031 C 337.164 135.293 349.816 139.094 361.859 137.434 C 363.508 137.207 365.145 136.879 366.758 136.449 C 367.563 133.441 368.008 130.363 368.105 127.273 C 368.434 116.57 364.512 105.762 356.344 97.5938 C 345.82 87.0664 330.91 83.5938 317.488 87.1797 Z" fill="#CBE557"/><path d=" M 430.723 319.918 C 423.277 307.023 409.777 299.813 395.887 299.801 C 388.953 311.836 388.449 327.137 395.891 340.027 C 401.875 350.395 411.777 357.09 422.648 359.32 C 425.301 359.863 428.004 360.141 430.727 360.145 C 434.07 354.34 435.922 347.77 436.102 341.082 C 436.297 333.906 434.574 326.59 430.723 319.918 Z" fill="#90D9B8"/><path d=" M 422.648 359.316 C 418.922 363.727 415.176 367.641 411.418 371.063 C 394.676 386.313 378.105 390.492 362.23 385.871 C 343.684 380.465 324.48 364.141 305.582 339.684 C 294.383 325.188 283.52 308.109 273.129 288.941 C 260.738 296.352 248.082 302.48 235.238 307.176 C 247.027 329.207 259.422 348.832 272.246 365.426 C 296.488 396.801 322.879 418.25 350.516 426.301 C 380.828 435.133 411.035 428.453 439.805 402.254 C 461.484 382.508 482.457 350.664 502 304.582 L 502 167.168 C 481.664 249.008 459.313 305.465 436.102 341.078 C 435.922 347.77 434.07 354.336 430.727 360.145 C 428.004 360.141 425.301 359.863 422.648 359.316 Z" fill="#78D0A9"/></g><path d=" M 39.1289 193.148 C 40.0586 199.223 42.0742 205.168 45.2266 210.641 C 47.0117 213.738 50.3164 215.645 53.8906 215.645 L 53.8984 215.645 C 54.2813 215.645 54.6563 215.617 55.0352 215.605 C 70.1328 235.039 86.2656 250.676 103.047 262.121 C 126.18 277.898 150.715 285.824 176.289 285.824 C 185.484 285.824 194.816 284.801 204.266 282.742 C 237.668 275.477 271.32 255.934 304.285 224.656 C 327.121 202.988 348.531 176.676 367.977 146.426 C 368.43 146.316 368.887 146.23 369.34 146.109 C 372.797 145.188 375.496 142.484 376.422 139.027 C 377.188 136.152 377.668 133.238 377.914 130.32 C 399.355 94.1133 417.375 53.6055 430.066 12.9844 C 431.711 7.71484 428.773 2.10547 423.504 0.457031 C 418.23 -1.1875 412.625 1.75 410.977 7.02344 C 400.926 39.1914 387.414 71.2813 371.457 101.059 C 369.281 97.25 366.59 93.6992 363.418 90.5234 C 350.781 77.8867 332.195 72.8984 314.91 77.5195 C 311.453 78.4414 308.754 81.1445 307.832 84.6016 C 303.215 101.883 308.195 120.469 320.836 133.105 C 327.344 139.613 335.43 144.09 344.102 146.27 C 327.457 170.707 309.48 192.152 290.52 210.148 C 280.066 220.066 269.434 228.754 258.773 236.141 C 254.484 226.188 250.281 215.809 246.227 205.148 C 244.266 199.988 238.488 197.395 233.324 199.355 C 228.164 201.32 225.57 207.098 227.531 212.258 C 232.07 224.195 236.801 235.797 241.629 246.875 C 235.008 250.578 228.398 253.762 221.848 256.398 C 190.859 185.43 165.777 97.793 150.941 8.36719 C 150.039 2.91797 144.887 -0.761719 139.441 0.140625 C 133.992 1.04297 130.309 6.19141 131.211 11.6406 C 136.715 44.8086 143.613 77.7539 151.688 109.742 C 148.648 122.645 148.863 135.25 152.332 148.195 C 155.254 159.098 155.254 169.258 152.332 180.16 C 150.141 188.344 151.18 196.301 152.102 203.324 C 152.867 209.199 153.594 214.746 152.332 219.461 C 150.902 224.797 154.066 230.277 159.402 231.707 C 160.27 231.941 161.141 232.051 161.996 232.051 C 166.41 232.051 170.453 229.105 171.648 224.637 C 173.941 216.09 172.871 207.93 171.93 200.73 C 171.156 194.805 170.484 189.684 171.648 185.34 C 171.949 184.227 172.215 183.117 172.465 182.008 C 181.707 210.445 191.855 237.5 202.73 262.578 C 201.82 262.797 200.918 263.004 200.012 263.203 C 169.887 269.758 141.051 263.836 114.316 245.598 C 101.266 236.699 88.5547 224.844 76.4102 210.273 C 85.0469 205.934 92.4141 199.141 97.3867 190.531 C 106.32 175.055 106.324 155.813 97.3945 140.313 C 95.6094 137.215 92.3047 135.305 88.7266 135.305 C 88.7266 135.305 88.7227 135.305 88.7188 135.305 C 70.832 135.32 54.168 144.945 45.2344 160.422 C 44.8086 161.156 44.4219 161.906 44.0391 162.656 C 35.3906 147.371 27.0703 130.441 19.1953 112.059 C 17.0195 106.98 11.1445 104.629 6.06641 106.805 C 0.988281 108.98 -1.36328 114.859 0.8125 119.934 C 12.6797 147.629 25.5664 172.242 39.1289 193.148 Z M 326.18 95.8672 C 334.68 95.3867 343.145 98.5313 349.273 104.664 C 355.406 110.793 358.543 119.254 358.07 127.758 C 349.57 128.23 341.105 125.094 334.977 118.961 C 328.844 112.832 325.707 104.367 326.18 95.8672 Z M 62.5508 170.422 C 66.8867 162.91 74.25 157.691 82.5859 155.945 C 85.2422 164.035 84.4023 173.02 80.0625 180.531 C 75.7305 188.039 68.3672 193.262 60.0313 195.008 C 57.3789 186.914 58.2188 177.93 62.5508 170.422 Z"/><path d=" M 184.145 64.2148 C 183.742 69.7227 184.234 75.3281 185.695 80.8008 C 186.258 82.9102 187.488 84.7266 189.141 86.043 C 192.336 99.4336 195.762 112.785 199.367 125.797 C 200.598 130.227 204.617 133.129 209 133.129 C 209.883 133.129 210.781 133.012 211.676 132.762 C 217 131.289 220.117 125.777 218.641 120.453 C 215.813 110.25 213.094 99.8242 210.512 89.3438 C 221.973 88.2422 232.93 83.2344 241.285 74.8789 C 253.922 62.2422 258.906 43.6563 254.289 26.375 C 253.367 22.9141 250.664 20.2148 247.207 19.293 C 229.926 14.6758 211.34 19.6602 198.703 32.2969 C 198.5 32.5 198.316 32.7148 198.117 32.9219 C 196.527 24.7188 195.016 16.5 193.605 8.30859 C 192.672 2.86719 187.504 -0.789062 182.059 0.148438 C 176.617 1.08203 172.961 6.25 173.898 11.6953 C 176.906 29.2227 180.359 46.8789 184.145 64.2148 Z M 235.941 37.6406 C 236.41 46.1445 233.273 54.6055 227.145 60.7383 C 221.012 66.8711 212.555 70.0156 204.047 69.5352 C 203.574 61.0313 206.711 52.5703 212.844 46.4375 C 218.977 40.3086 227.438 37.1719 235.941 37.6406 Z"/><path d=" M 505.902 295.375 C 500.816 293.219 494.949 295.594 492.793 300.676 C 474.551 343.695 454.457 375.383 433.07 394.859 C 407.836 417.84 381.746 424.988 353.313 416.699 C 328.641 409.512 304.027 390.203 280.16 359.313 C 269.777 345.879 259.48 330.102 249.473 312.316 C 256.117 309.48 262.738 306.273 269.328 302.688 C 278.566 318.906 288.074 333.383 297.668 345.797 C 318.629 372.926 339.41 389.637 359.434 395.469 C 363.727 396.719 368.746 397.613 374.332 397.613 C 386.754 397.613 401.965 393.195 418.148 378.457 C 420.977 375.883 423.805 373.023 426.605 369.953 C 427.969 370.066 429.336 370.145 430.719 370.145 L 430.727 370.145 C 434.301 370.145 437.605 368.234 439.391 365.137 C 443.113 358.672 445.262 351.555 445.879 344.336 C 453.469 332.402 460.914 318.406 468.02 302.633 C 470.289 297.598 468.047 291.676 463.012 289.406 C 457.977 287.137 452.055 289.383 449.785 294.414 C 446.445 301.828 443.039 308.789 439.59 315.309 C 439.516 315.18 439.453 315.047 439.383 314.918 C 430.445 299.441 413.781 289.816 395.895 289.801 C 395.891 289.801 395.887 289.801 395.887 289.801 C 392.309 289.801 389.008 291.711 387.219 294.809 C 378.289 310.309 378.293 329.551 387.227 345.027 C 391.621 352.633 397.883 358.816 405.234 363.148 C 405.051 363.32 404.867 363.504 404.684 363.672 C 391.16 375.984 378.191 380.105 365.027 376.27 C 349.375 371.711 331.555 356.941 313.492 333.57 C 304.398 321.801 295.344 307.992 286.512 292.445 C 302.34 282.188 317.969 269.758 333.328 255.184 C 334.777 253.809 336.219 252.398 337.656 250.988 C 338.113 254.793 338.848 258.613 339.879 262.465 C 342.801 273.371 342.801 283.527 339.879 294.434 C 337.688 302.613 338.73 310.574 339.648 317.598 C 340.418 323.469 341.145 329.02 339.879 333.734 C 338.449 339.066 341.613 344.551 346.949 345.98 C 347.816 346.211 348.688 346.324 349.543 346.324 C 353.961 346.324 358 343.375 359.199 338.91 C 361.488 330.363 360.422 322.203 359.48 315 C 358.703 309.074 358.035 303.957 359.199 299.609 C 363.012 285.371 363.012 271.527 359.199 257.289 C 356.621 247.68 356.449 238.32 358.672 228.742 C 372.109 213.445 385.047 196.602 397.191 178.57 C 397.422 179.578 397.668 180.59 397.941 181.602 C 400.863 192.508 400.863 202.664 397.941 213.57 C 395.75 221.75 396.789 229.711 397.707 236.734 C 398.477 242.609 399.203 248.156 397.941 252.871 C 396.512 258.207 399.676 263.688 405.012 265.117 C 405.879 265.352 406.75 265.461 407.605 265.461 C 412.02 265.461 416.063 262.516 417.258 258.047 C 419.551 249.5 418.48 241.34 417.539 234.141 C 416.766 228.211 416.094 223.094 417.258 218.75 C 421.074 204.512 421.074 190.664 417.258 176.426 C 414.602 166.516 414.508 156.867 416.953 146.973 C 417.027 146.848 417.102 146.727 417.172 146.602 C 428.094 127.73 438.105 107.883 447.031 87.543 C 447.98 95.2188 447.402 102.723 445.289 110.617 C 443.098 118.797 444.141 126.754 445.059 133.777 C 445.828 139.652 446.555 145.199 445.289 149.914 C 443.859 155.25 447.023 160.73 452.359 162.164 C 453.227 162.395 454.098 162.504 454.953 162.504 C 459.371 162.504 463.41 159.559 464.609 155.09 C 466.898 146.543 465.832 138.383 464.891 131.184 C 464.113 125.258 463.445 120.137 464.609 115.793 C 468.422 101.555 468.422 87.7109 464.609 73.4727 C 461.844 63.1563 461.844 53.125 464.609 42.8047 C 464.609 42.8008 464.609 42.793 464.613 42.7891 C 468.086 32.8008 471.289 22.7813 474.168 12.7695 C 475.695 7.46094 472.633 1.92188 467.324 0.394531 C 462.02 -1.13281 456.477 1.93359 454.949 7.23828 C 428.93 97.6602 378.32 184.926 319.563 240.676 C 284.039 274.387 245.777 296.441 208.922 304.461 C 167.105 313.559 127.277 305.469 90.5508 280.422 C 64.5703 262.703 40.3125 236.262 18.4414 201.836 C 15.4805 197.176 9.30078 195.797 4.64063 198.758 C -0.0234375 201.719 -1.40234 207.898 1.55859 212.563 C 11.3867 228.027 21.7148 241.992 32.4844 254.441 C 30.0859 266.398 30.4961 278.137 33.7227 290.168 C 36.6445 301.074 36.6445 311.23 33.7227 322.137 C 31.5273 330.316 32.5703 338.277 33.4883 345.301 C 34.2578 351.176 34.9844 356.723 33.7227 361.438 C 32.2891 366.77 35.457 372.254 40.793 373.684 C 41.6602 373.918 42.5313 374.027 43.3867 374.027 C 47.8008 374.027 51.8438 371.082 53.0391 366.613 C 55.332 358.066 54.2617 349.906 53.3203 342.707 C 52.5469 336.777 51.875 331.66 53.0391 327.316 C 56.8555 313.078 56.8555 299.234 53.0391 284.992 C 52.0547 281.316 51.4258 277.68 51.1445 274.047 C 60.2617 282.715 69.6484 290.371 79.2813 296.945 C 82.7969 299.344 86.3398 301.598 89.9102 303.719 C 88.0156 314.863 88.5742 325.848 91.5859 337.086 C 94.5078 347.992 94.5078 358.148 91.5859 369.055 C 89.3906 377.234 90.4336 385.191 91.3516 392.215 C 92.1211 398.09 92.8477 403.637 91.5859 408.352 C 90.1563 413.688 93.3203 419.168 98.6563 420.602 C 99.5234 420.832 100.395 420.941 101.25 420.941 C 105.664 420.941 109.707 417.996 110.902 413.527 C 113.195 404.98 112.125 396.82 111.184 389.621 C 110.41 383.691 109.738 378.574 110.902 374.23 C 114.719 359.992 114.719 346.148 110.902 331.91 C 109.254 325.75 108.598 319.691 108.918 313.613 C 122.895 319.879 137.223 324.113 151.855 326.316 C 150.629 336.25 151.352 346.09 154.043 356.133 C 156.965 367.035 156.965 377.195 154.043 388.102 C 151.852 396.281 152.895 404.238 153.813 411.262 C 154.582 417.137 155.309 422.684 154.043 427.398 C 152.613 432.734 155.781 438.215 161.113 439.648 C 161.98 439.879 162.852 439.988 163.711 439.988 C 168.125 439.988 172.164 437.043 173.363 432.574 C 175.652 424.027 174.586 415.867 173.645 408.668 C 172.867 402.742 172.199 397.621 173.363 393.277 C 177.176 379.039 177.176 365.195 173.363 350.957 C 171.297 343.242 170.777 335.691 171.797 328.059 C 173.156 328.094 174.512 328.117 175.871 328.117 C 187.777 328.117 199.859 326.813 212.102 324.223 C 210.855 334.191 211.574 344.07 214.277 354.152 C 217.199 365.059 217.199 375.215 214.277 386.121 C 212.086 394.301 213.129 402.258 214.047 409.281 C 214.816 415.156 215.543 420.703 214.277 425.418 C 212.848 430.754 216.012 436.238 221.348 437.668 C 222.215 437.898 223.086 438.008 223.941 438.008 C 228.359 438.008 232.398 435.063 233.598 430.594 C 235.887 422.047 234.82 413.887 233.875 406.688 C 233.102 400.762 232.434 395.641 233.598 391.297 C 237.41 377.059 237.41 363.215 233.598 348.977 C 231.254 340.227 230.902 331.684 232.535 323 C 242.867 341.273 253.535 357.57 264.332 371.543 C 290.844 405.855 318.898 427.508 347.719 435.906 C 357.184 438.664 366.508 440.039 375.676 440.039 C 400.586 440.039 424.324 429.875 446.535 409.648 C 470.074 388.215 491.832 354.18 511.207 308.484 C 513.359 303.398 510.984 297.531 505.902 295.375 Z M 402.031 310.441 C 410.367 312.188 417.727 317.406 422.063 324.918 C 426.398 332.426 427.238 341.414 424.582 349.504 C 416.246 347.758 408.887 342.539 404.551 335.027 C 400.215 327.52 399.375 318.535 402.031 310.441 Z"/><path d=" M 486.57 223.438 C 487.512 223.715 488.465 223.848 489.398 223.848 C 493.719 223.848 497.707 221.023 498.988 216.668 C 503.324 201.918 507.605 186.078 511.703 169.582 C 513.035 164.219 509.77 158.797 504.41 157.465 C 499.047 156.133 493.625 159.398 492.293 164.758 C 488.262 180.98 484.059 196.547 479.801 211.023 C 478.242 216.32 481.273 221.879 486.57 223.438 Z"/><path d=" M 219.379 156.582 C 214.043 158.004 210.871 163.488 212.293 168.824 C 213.488 173.297 217.531 176.25 221.949 176.25 C 222.805 176.25 223.672 176.141 224.531 175.91 C 229.867 174.488 233.043 169.008 231.617 163.672 L 231.617 163.664 C 230.191 158.328 224.715 155.156 219.379 156.582 Z"/><path d=" M 466.383 252.75 C 464.207 257.828 466.559 263.707 471.637 265.879 C 472.918 266.43 474.254 266.691 475.57 266.691 C 479.449 266.691 483.141 264.422 484.766 260.629 L 484.77 260.621 C 486.945 255.547 484.59 249.672 479.516 247.496 C 474.441 245.316 468.559 247.672 466.383 252.75 Z"/></svg>