<svg version="1.1" width="682.667" height="682.667" viewBox="0 -35 512.001 512" xmlns="http://www.w3.org/2000/svg" xmlns:xlink="http://www.w3.org/1999/xlink" overflow="hidden"><path d=" M 329.109 304.449 L 346.82 394.34 L 111.16 158.68 C 71.457 118.977 60.2344 58.9648 82.8945 7.60547 L 239.109 163.82 L 300.52 225.227 L 361.828 286.535 Z" fill="#CDCFE0"/><path d=" M 341.918 266.629 L 330.047 377.563 L 177.711 225.227 L 239.109 163.82 Z" fill="#ABAEC4"/><path d=" M 150.09 286.535 L 191.535 309.234 L 165.094 394.336 L 400.754 158.676 C 440.453 118.98 451.68 58.9688 429.02 7.60547 Z" fill="#CDCFE0"/><path d=" M 480.203 294.504 L 446.656 260.957 C 430.555 244.855 409.457 236.805 388.348 236.805 C 367.25 236.805 346.152 244.855 330.051 260.957 C 297.844 293.156 297.844 345.359 330.051 377.559 L 363.59 411.109 C 395.789 443.309 448.004 443.309 480.203 411.109 C 512.402 378.906 512.402 326.703 480.203 294.504 Z M 451.523 382.438 C 443.613 390.344 433.09 394.703 421.898 394.703 C 410.703 394.703 400.18 390.344 392.273 382.438 L 358.723 348.887 C 342.391 332.555 342.391 305.973 358.723 289.629 C 366.641 281.719 377.156 277.359 388.348 277.359 C 399.543 277.359 410.066 281.719 417.984 289.629 L 451.523 323.176 C 459.441 331.094 463.801 341.609 463.801 352.801 C 463.801 363.992 459.441 374.52 451.523 382.438 Z" fill="#FC4549"/><path d=" M 181.867 260.957 C 165.766 244.855 144.66 236.805 123.563 236.805 C 102.461 236.805 81.3555 244.855 65.2539 260.957 L 31.7148 294.504 C -0.484375 326.703 -0.484375 378.906 31.7148 411.109 C 63.9141 443.309 116.121 443.309 148.32 411.109 L 181.867 377.559 C 214.066 345.359 214.066 293.156 181.867 260.957 Z M 153.188 348.887 L 119.648 382.438 C 111.73 390.344 101.207 394.703 90.0117 394.703 C 78.8281 394.703 68.3047 390.344 60.3867 382.438 C 52.4805 374.52 48.1211 363.992 48.1211 352.801 C 48.1211 341.609 52.4805 331.094 60.3867 323.176 L 93.9375 289.629 C 101.844 281.719 112.367 277.359 123.563 277.359 C 134.754 277.359 145.277 281.719 153.188 289.629 C 169.527 305.973 169.527 332.555 153.188 348.887 Z" fill="#FC4549"/><path d=" M 274.289 244.383 C 274.289 255.879 264.973 265.195 253.48 265.195 C 241.988 265.195 232.668 255.879 232.668 244.383 C 232.668 232.891 241.988 223.574 253.48 223.574 C 264.973 223.574 274.289 232.891 274.289 244.383 Z" fill="#575F64"/><path d=" M 505.234 318.617 C 503.645 314.73 499.203 312.871 495.316 314.465 C 491.43 316.059 489.57 320.496 491.164 324.383 C 502.645 352.395 496.23 384.328 474.824 405.734 C 445.641 434.918 398.152 434.918 368.969 405.734 L 335.426 372.188 C 321.289 358.051 313.5 339.254 313.5 319.262 C 313.5 299.27 321.289 280.473 335.426 266.336 C 349.563 252.199 368.359 244.41 388.352 244.41 C 408.344 244.41 427.141 252.199 441.277 266.336 L 474.824 299.879 C 477.793 302.848 482.609 302.848 485.578 299.879 C 488.547 296.91 488.547 292.094 485.578 289.125 L 452.031 255.582 C 435.023 238.57 412.406 229.203 388.352 229.203 C 368.34 229.203 349.34 235.707 333.719 247.676 L 328.117 242.074 L 406.137 164.059 C 426.699 143.484 440.398 117.504 445.746 88.9141 C 451.094 60.3203 447.715 31.1445 435.969 4.53516 C 434.957 2.24219 432.879 0.59375 430.41 0.132812 C 427.945 -0.328125 425.41 0.457031 423.637 2.23047 L 255.953 169.91 L 176.973 90.9297 C 174.004 87.9609 169.188 87.9609 166.223 90.9297 C 163.25 93.8984 163.25 98.7148 166.223 101.684 L 245.203 180.664 L 194.551 231.316 L 116.539 153.301 C 98.1484 134.91 85.8984 111.68 81.1172 86.1133 C 77.0313 64.2773 78.6406 42.0547 85.7422 21.2031 L 143.43 78.8906 C 146.398 81.8594 151.215 81.8594 154.184 78.8906 C 157.152 75.9219 157.152 71.1055 154.184 68.1367 L 88.2734 2.22656 C 86.4961 0.453125 83.9609 -0.332031 81.4961 0.128906 C 79.0313 0.589844 76.9492 2.23828 75.9375 4.53516 C 64.1992 31.1445 60.8203 60.3242 66.168 88.9141 C 71.5156 117.504 85.2148 143.488 105.785 164.055 L 183.797 242.07 L 178.191 247.676 C 162.57 235.703 143.57 229.203 123.563 229.203 C 99.5078 229.203 76.8906 238.57 59.8789 255.582 L 26.3359 289.125 C -8.77734 324.238 -8.77734 381.371 26.3359 416.484 C 43.8906 434.043 66.9531 442.82 90.0156 442.82 C 113.078 442.82 136.141 434.043 153.699 416.484 L 255.961 314.23 L 358.215 416.484 C 375.223 433.496 397.84 442.863 421.895 442.863 C 445.953 442.863 468.566 433.496 485.578 416.484 C 511.328 390.734 519.047 352.316 505.234 318.617 Z M 426.168 21.2031 C 433.273 42.0508 434.883 64.2734 430.797 86.1133 C 426.016 111.676 413.77 134.91 395.383 153.301 L 211.852 336.832 C 217.285 309.316 209.813 279.758 189.461 257.914 L 261.23 186.145 C 261.266 186.109 261.301 186.082 261.336 186.047 C 261.371 186.012 261.402 185.973 261.438 185.938 Z M 142.945 405.73 C 113.762 434.914 66.2734 434.914 37.0898 405.73 C 7.90625 376.547 7.90625 329.063 37.0898 299.879 L 70.6328 266.332 C 84.7695 252.195 103.566 244.41 123.563 244.41 C 143.555 244.41 162.352 252.195 176.488 266.332 C 205.672 295.516 205.672 343.004 176.488 372.188 Z M 317.363 252.828 L 322.449 257.914 C 306.859 274.633 298.293 296.281 298.293 319.262 C 298.293 325.199 298.871 331.047 299.984 336.75 L 266.715 303.477 Z"/><path d=" M 388.352 269.758 C 375.129 269.758 362.695 274.906 353.348 284.254 C 334.043 303.559 334.043 334.965 353.348 354.266 L 386.891 387.809 C 396.242 397.16 408.672 402.309 421.895 402.309 C 435.117 402.309 447.551 397.16 456.898 387.809 C 466.25 378.461 471.398 366.027 471.398 352.805 C 471.398 339.582 466.25 327.152 456.898 317.801 L 423.355 284.258 C 414.004 274.906 401.574 269.758 388.352 269.758 Z M 456.191 352.805 C 456.191 361.965 452.625 370.578 446.148 377.055 C 439.668 383.535 431.055 387.102 421.895 387.102 C 412.734 387.102 404.125 383.535 397.645 377.055 L 364.102 343.512 C 350.73 330.141 350.73 308.383 364.102 295.008 C 370.578 288.531 379.191 284.965 388.352 284.965 C 397.512 284.965 406.125 288.531 412.602 295.008 L 446.148 328.555 C 452.625 335.031 456.191 343.645 456.191 352.805 Z"/><path d=" M 123.563 269.758 C 110.34 269.758 97.9063 274.906 88.5586 284.254 L 55.0117 317.801 C 45.6602 327.152 40.5117 339.582 40.5117 352.805 C 40.5117 366.027 45.6602 378.461 55.0117 387.809 C 64.3633 397.16 76.793 402.309 90.0156 402.309 C 103.238 402.309 115.672 397.16 125.02 387.809 L 158.566 354.266 C 167.902 344.926 173.047 332.496 173.047 319.262 C 173.047 306.023 167.902 293.594 158.566 284.258 C 149.215 274.906 136.785 269.758 123.563 269.758 Z M 147.813 343.512 L 114.27 377.055 C 107.789 383.535 99.1758 387.102 90.0156 387.102 C 80.8555 387.102 72.2422 383.535 65.7656 377.055 C 59.2891 370.578 55.7188 361.965 55.7188 352.805 C 55.7188 343.645 59.2891 335.031 65.7656 328.555 L 99.3086 295.012 C 105.785 288.531 114.398 284.965 123.563 284.965 C 132.723 284.965 141.336 288.531 147.813 295.012 C 154.277 301.477 157.836 310.09 157.836 319.262 C 157.836 328.434 154.277 337.047 147.813 343.512 Z"/><path d=" M 253.48 215.973 C 237.813 215.973 225.066 228.719 225.066 244.383 C 225.066 260.051 237.813 272.797 253.48 272.797 C 269.145 272.797 281.891 260.051 281.891 244.383 C 281.891 228.719 269.145 215.973 253.48 215.973 Z M 253.48 257.59 C 246.199 257.59 240.273 251.668 240.273 244.383 C 240.273 237.102 246.199 231.18 253.48 231.18 C 260.762 231.18 266.684 237.105 266.684 244.383 C 266.684 251.668 260.762 257.59 253.48 257.59 Z"/></svg>