<svg version="1.1" width="682.667" height="682.667" viewBox="0 -128 512 512" xmlns="http://www.w3.org/2000/svg" xmlns:xlink="http://www.w3.org/1999/xlink" overflow="hidden"><path d=" M 309.094 7.48438 L 250.73 7.48438 C 244.305 7.48438 239.098 12.6914 239.098 19.1172 L 239.098 51.3672 L 320.727 51.3672 L 320.727 19.1172 C 320.727 12.6914 315.52 7.48438 309.094 7.48438 Z" fill="#FFD500"/><path d=" M 309.117 7.48438 L 287.109 7.48438 C 293.52 7.48438 298.719 12.6836 298.719 19.0938 L 298.719 51.3672 L 320.727 51.3672 L 320.727 19.0938 C 320.727 12.6836 315.531 7.48438 309.117 7.48438 Z" fill="#FBC700"/><path d=" M 130.848 116.246 L 201.234 60.3906 C 208.406 54.6992 217.289 51.6016 226.445 51.6016 L 331.246 51.6016 C 339.637 51.6016 347.816 54.2031 354.668 59.0469 L 435.527 116.246 Z" fill="#5A5A5A"/><path d=" M 354.668 59.0469 C 347.816 54.2031 339.637 51.6016 331.246 51.6016 L 275.027 51.6016 C 283.418 51.6016 291.602 54.2031 298.449 59.0469 L 379.313 116.246 L 435.527 116.246 Z" fill="#444444"/><path d=" M 493.004 215.008 L 18.9961 215.008 C 12.6406 215.008 7.48438 209.855 7.48438 203.496 L 7.48438 151.648 C 7.48438 139.512 15.6563 128.898 27.3906 125.793 L 101.992 105.813 C 111.371 103.297 121.043 102.027 130.754 102.027 L 488.477 102.027 C 497.336 102.027 504.516 109.207 504.516 118.063 L 504.516 203.496 C 504.516 209.855 499.359 215.008 493.004 215.008 Z" fill="#FFD500"/><path d=" M 504.516 158.516 L 470.313 158.516 C 462.191 158.516 455.609 151.934 455.609 143.813 C 455.609 135.691 462.191 129.109 470.313 129.109 L 504.516 129.109 Z" fill="#FF6930"/><path d=" M 52.7305 154.063 C 55.2188 159.344 49.3633 167.34 39.6484 171.922 C 29.9297 176.508 23.293 174.406 20.8008 169.129 C 18.3125 163.848 20.9102 157.391 30.625 152.805 C 40.3438 148.223 50.2383 148.785 52.7305 154.063 Z" fill="#E7E7E7"/><path d=" M 488.477 102.023 L 472.91 102.023 L 472.91 179.078 C 472.91 185.438 467.758 190.59 461.398 190.59 L 7.48438 190.59 L 7.48438 203.496 C 7.48438 209.855 12.6406 215.008 18.9961 215.008 L 493.004 215.008 C 499.359 215.008 504.516 209.855 504.516 203.496 L 504.516 118.063 C 504.516 109.203 497.336 102.023 488.477 102.023 Z" fill="#FBC700"/><path d=" M 472.91 129.109 L 504.516 129.109 L 504.516 158.516 L 472.91 158.516 Z" fill="#FF5426"/><path d=" M 149.367 212.445 C 149.367 232.652 132.988 249.035 112.781 249.035 C 92.5742 249.035 76.1914 232.652 76.1914 212.445 C 76.1914 192.238 92.5742 175.855 112.781 175.855 C 132.988 175.855 149.367 192.238 149.367 212.445 Z" fill="#9C9C9C"/><path d=" M 125.16 178.008 C 129.371 183.969 131.852 191.234 131.852 199.086 C 131.852 219.293 115.469 235.676 95.2617 235.676 C 90.9141 235.676 86.7461 234.914 82.8828 233.523 C 89.5078 242.902 100.426 249.035 112.781 249.035 C 132.988 249.035 149.371 232.652 149.371 212.445 C 149.367 196.586 139.273 183.086 125.16 178.008 Z" fill="#838383"/><path d=" M 122.641 212.445 C 122.641 217.891 118.227 222.305 112.781 222.305 C 107.332 222.305 102.918 217.891 102.918 212.445 C 102.918 207 107.332 202.586 112.781 202.586 C 118.227 202.586 122.641 207 122.641 212.445 Z"/><path d=" M 431.465 212.445 C 431.465 232.652 415.086 249.035 394.879 249.035 C 374.668 249.035 358.289 232.652 358.289 212.445 C 358.289 192.238 374.668 175.855 394.879 175.855 C 415.086 175.855 431.465 192.238 431.465 212.445 Z" fill="#9C9C9C"/><path d=" M 407.258 178.008 C 411.469 183.969 413.949 191.234 413.949 199.086 C 413.949 219.293 397.566 235.676 377.359 235.676 C 373.012 235.676 368.844 234.914 364.977 233.523 C 371.602 242.902 382.52 249.035 394.879 249.035 C 415.086 249.035 431.469 232.652 431.469 212.445 C 431.465 196.586 421.371 183.086 407.258 178.008 Z" fill="#838383"/><path d=" M 404.738 212.445 C 404.738 217.891 400.324 222.305 394.879 222.305 C 389.43 222.305 385.016 217.891 385.016 212.445 C 385.016 207 389.43 202.586 394.879 202.586 C 400.324 202.586 404.738 207 404.738 212.445 Z"/><path d=" M 488.477 94.5391 L 417.805 94.5391 L 358.988 52.9375 C 350.832 47.168 341.238 44.1172 331.246 44.1172 L 328.211 44.1172 L 328.211 19.0938 C 328.211 8.56641 319.648 0 309.117 0 L 250.707 0 C 240.176 0 231.609 8.56641 231.609 19.0938 L 231.609 44.1172 L 226.445 44.1172 C 215.645 44.1172 205.039 47.8125 196.578 54.5234 L 146.156 94.5391 L 130.754 94.5391 C 120.391 94.5391 110.063 95.8984 100.055 98.5781 L 25.4766 118.559 C 10.4766 122.523 5.68434e-14 136.133 5.68434e-14 151.648 L 5.68434e-14 203.496 C 5.68434e-14 213.973 8.51953 222.492 18.9961 222.492 L 69.875 222.492 C 74.4336 241.969 91.9336 256.52 112.781 256.52 C 133.625 256.52 151.125 241.969 155.688 222.492 L 304.906 222.492 C 309.039 222.492 312.391 219.141 312.391 215.008 C 312.391 210.875 309.039 207.523 304.906 207.523 L 156.574 207.523 C 154.117 185.531 135.418 168.371 112.781 168.371 C 90.1406 168.371 71.4414 185.531 68.9883 207.523 L 18.9961 207.523 C 16.7773 207.523 14.9727 205.719 14.9727 203.496 L 14.9727 174.027 C 17.8398 178.625 23.0117 181.906 29.9805 181.906 C 33.7656 181.906 38.082 180.938 42.8438 178.691 C 56.7305 172.141 63.8906 160.18 59.5 150.871 C 55.1094 141.563 41.3203 139.484 27.4336 146.035 C 21.6484 148.766 17.4727 152.277 14.9727 156.461 L 14.9727 151.652 C 14.9727 142.922 20.8672 135.266 29.332 133.023 L 103.934 113.043 C 112.676 110.699 121.699 109.512 130.758 109.512 L 187.801 109.512 C 191.934 109.512 195.285 106.16 195.285 102.027 C 195.285 97.8906 191.934 94.5391 187.801 94.5391 L 170.242 94.5391 L 205.887 66.2539 C 211.711 61.6328 219.012 59.0859 226.445 59.0859 L 269.215 59.0859 L 269.215 94.5391 L 223.395 94.5391 C 219.262 94.5391 215.91 97.8906 215.91 102.023 C 215.91 106.16 219.262 109.512 223.395 109.512 L 488.477 109.512 C 493.191 109.512 497.027 113.348 497.027 118.063 L 497.027 121.621 L 470.313 121.621 C 458.078 121.621 448.125 131.578 448.125 143.813 C 448.125 156.047 458.078 166.004 470.313 166.004 L 497.027 166.004 L 497.027 203.496 C 497.027 205.719 495.223 207.523 493.004 207.523 L 438.668 207.523 C 436.211 185.527 417.512 168.371 394.875 168.371 C 372.238 168.371 353.539 185.527 351.082 207.523 L 339.504 207.523 C 335.367 207.523 332.02 210.871 332.02 215.008 C 332.02 219.141 335.367 222.492 339.504 222.492 L 351.973 222.492 C 356.531 241.969 374.031 256.52 394.875 256.52 C 415.723 256.52 433.223 241.969 437.781 222.492 L 493.004 222.492 C 503.48 222.492 512 213.973 512 203.496 L 512 118.063 C 512 105.094 501.449 94.5391 488.477 94.5391 Z M 246.582 19.0938 C 246.582 16.8203 248.434 14.9727 250.707 14.9727 L 309.117 14.9727 C 311.391 14.9727 313.242 16.8203 313.242 19.0938 L 313.242 43.8828 L 246.582 43.8828 Z M 112.781 183.344 C 128.828 183.344 141.883 196.398 141.883 212.445 C 141.883 228.492 128.828 241.551 112.781 241.551 C 96.7344 241.551 83.6758 228.492 83.6758 212.445 C 83.6758 196.398 96.7305 183.344 112.781 183.344 Z M 27.7109 164.289 C 28.1133 163.547 29.5195 161.605 33.8203 159.574 C 37.6953 157.746 41.043 157.188 43.3242 157.188 C 44.2813 157.188 45.0508 157.285 45.5898 157.43 C 44.8047 159.152 41.9492 162.559 36.4531 165.152 C 32.0703 167.223 28.3359 167.551 27.5703 165.934 C 27.3867 165.539 27.2578 165.117 27.7109 164.289 Z M 284.188 59.0859 L 331.246 59.0859 C 338.125 59.0859 344.727 61.1875 350.344 65.1602 L 391.879 94.5391 L 284.188 94.5391 Z M 394.875 241.551 C 378.828 241.551 365.773 228.492 365.773 212.445 C 365.773 196.398 378.828 183.34 394.875 183.34 C 410.922 183.34 423.98 196.398 423.98 212.445 C 423.98 228.492 410.926 241.551 394.875 241.551 Z M 470.313 151.031 C 466.336 151.031 463.098 147.793 463.098 143.813 C 463.098 139.832 466.336 136.594 470.313 136.594 L 497.027 136.594 L 497.027 151.031 Z"/><path d=" M 261.348 178.258 L 242.328 178.258 C 240.672 178.258 239.328 176.914 239.328 175.258 L 239.328 153.234 L 264.348 153.234 L 264.348 175.258 C 264.348 176.914 263.008 178.258 261.348 178.258 Z"/><path d=" M 311.391 178.258 L 292.371 178.258 C 290.715 178.258 289.371 176.914 289.371 175.258 L 289.371 153.234 L 314.391 153.234 L 314.391 175.258 C 314.391 176.914 313.051 178.258 311.391 178.258 Z"/><path d=" M 239.328 153.234 L 217.305 153.234 C 215.648 153.234 214.305 151.891 214.305 150.234 L 214.305 131.215 C 214.305 129.555 215.648 128.215 217.305 128.215 L 236.328 128.215 C 237.984 128.215 239.328 129.555 239.328 131.215 Z"/><path d=" M 289.371 153.234 L 264.348 153.234 L 264.348 131.215 C 264.348 129.555 265.691 128.215 267.348 128.215 L 286.371 128.215 C 288.027 128.215 289.371 129.555 289.371 131.215 Z"/><path d=" M 336.414 153.234 L 314.391 153.234 L 314.391 131.215 C 314.391 129.555 315.734 128.215 317.391 128.215 L 336.414 128.215 C 338.07 128.215 339.414 129.555 339.414 131.215 L 339.414 150.234 C 339.414 151.891 338.07 153.234 336.414 153.234 Z"/></svg>