<svg version="1.1" width="640" height="640" viewBox="0 -7 480 480" xmlns="http://www.w3.org/2000/svg" xmlns:xlink="http://www.w3.org/1999/xlink" overflow="hidden"><path d=" M 8 192 L 192 8 L 374.664 190.664 Z" fill="#FFD77F"/><path d=" M 88 192 L 192 8 L 8 192 Z" fill="#F7AB48"/><path d=" M 112 208 L 296 24 L 480 208 Z" fill="#FFD77F"/><path d=" M 192 208 L 296 24 L 112 208 Z" fill="#F7AB48"/><g fill="#DE9941"><path d=" M 336 136 L 360 136 L 360 152 L 336 152 Z"/><path d=" M 376 152 L 400 152 L 400 168 L 376 168 Z"/><path d=" M 344 168 L 368 168 L 368 184 L 344 184 Z"/><path d=" M 296 136 L 320 136 L 320 152 L 296 152 Z"/><path d=" M 424 192 L 448 192 L 448 208 L 424 208 Z"/><path d=" M 264 120 L 288 120 L 288 136 L 264 136 Z"/><path d=" M 312 184 L 336 184 L 336 200 L 312 200 Z"/><path d=" M 264 168 L 288 168 L 288 184 L 264 184 Z"/><path d=" M 232 192 L 256 192 L 256 208 L 232 208 Z"/><path d=" M 376 184 L 400 184 L 400 200 L 376 200 Z"/><path d=" M 296 104 L 320 104 L 320 120 L 296 120 Z"/><path d=" M 312 88 L 336 88 L 336 104 L 312 104 Z"/><path d=" M 184 72 L 208 72 L 208 88 L 184 88 Z"/><path d=" M 152 112 L 176 112 L 176 128 L 152 128 Z"/></g><path d=" M 0 304 L 168 248 L 353.406 302.535 Z" fill="#FFD77F"/><path d=" M 224 264 L 352 216 L 480 256 Z" fill="#F7AB48"/><path d=" M 64 384 L 168 344 L 264 386.664 Z" fill="#F7AB48"/><path d=" M 456 24 C 456 37.2539 445.254 48 432 48 C 418.746 48 408 37.2539 408 24 C 408 10.7461 418.746 0 432 0 C 445.254 0 456 10.7461 456 24 Z" fill="#FF2904"/><path d=" M 368 464 L 352 464 L 352 417.535 L 336.566 378.977 L 351.434 373.023 L 367.434 413.023 C 367.809 413.973 368 414.98 368 416 Z" fill="#38190A"/><path d=" M 431.887 465.32 L 416.113 462.68 L 423.68 417.246 L 408.84 387.574 L 423.16 380.426 L 439.16 412.426 C 439.914 413.938 440.168 415.652 439.887 417.32 Z" fill="#38190A"/><path d=" M 327.887 465.32 L 312.113 462.68 L 319.863 416.137 L 312.16 377.602 L 327.84 374.465 L 335.84 414.465 C 336.031 415.414 336.047 416.395 335.887 417.352 Z" fill="#6F3114"/><path d=" M 424 392 L 360 392 C 359.461 392.004 358.926 391.953 358.398 391.84 L 318.398 383.84 C 318.074 383.781 317.754 383.699 317.441 383.594 L 293.441 375.594 C 292.766 375.359 292.125 375.047 291.527 374.656 L 267.527 358.656 C 266.652 358.07 265.898 357.316 265.313 356.441 L 251.719 336 L 224 336 L 224 320 L 235.719 320 L 249.32 299.559 C 251.32 296.559 255.082 295.27 258.504 296.406 L 282.504 304.406 C 284.516 305.078 286.18 306.516 287.137 308.406 L 294.551 323.246 L 306.145 334.832 L 321.648 329.656 L 328.391 309.457 C 329.488 306.188 332.555 303.988 336 304 L 360 304 C 362.121 304 364.156 304.844 365.656 306.344 L 371.313 312 L 380.688 312 L 386.344 306.344 C 388.484 304.203 391.652 303.453 394.527 304.406 L 418.527 312.406 C 420.539 313.078 422.203 314.516 423.16 316.406 L 431.16 332.406 C 431.328 332.746 431.473 333.098 431.586 333.457 L 439.586 357.457 C 440.145 359.094 440.145 360.875 439.586 362.512 L 431.586 386.512 C 430.5 389.785 427.445 391.996 424 392 Z" fill="#6F3114"/><path d=" M 399.586 466.527 L 384.383 461.473 L 400 414.703 L 400 384 L 416 384 L 416 416 C 415.996 416.859 415.859 417.715 415.586 418.527 Z" fill="#6F3114"/><path d=" M 448.84 363.574 L 442.328 350.543 L 421.473 343.594 L 426.527 328.391 L 450.527 336.391 C 452.539 337.063 454.203 338.5 455.16 340.391 L 463.16 356.391 Z" fill="#6F3114"/></svg>