<svg version="1.1" viewBox="0 0 511.998 511.998" xmlns="http://www.w3.org/2000/svg" xmlns:xlink="http://www.w3.org/1999/xlink" id="Layer_1" overflow="hidden"><g><rect x="344.018" y="115.907" width="127.28" height="15.691" fill="#FF9811" transform="matrix(-0.3353,-0.9421,0.9421,-0.3353,427.759,549.306)"/><rect x="455.612" y="60.108" width="15.691" height="127.28" fill="#FF9811" transform="matrix(-0.9421,-0.3353,0.3353,-0.9421,858.592,395.732)"/></g><circle cx="386.333" cy="63.792" r="27.601" fill="#FFA733"/><path d=" M 386.328 80.931 C 376.878 80.931 369.189 73.242 369.189 63.792 C 369.189 54.341 376.878 46.652 386.328 46.652 C 395.779 46.652 403.468 54.341 403.468 63.792 C 403.468 73.243 395.779 80.931 386.328 80.931 Z" fill="#FFFFFF"/><path d=" M 386.328 70.47 C 382.646 70.47 379.651 67.475 379.651 63.793 C 379.651 60.11 382.646 57.115 386.328 57.115 C 390.011 57.115 393.006 60.11 393.006 63.793 C 393.006 67.475 390.01 70.47 386.328 70.47 Z" fill="#57565C"/><circle cx="484.397" cy="63.792" r="27.601" fill="#FFA733"/><path d=" M 484.399 80.931 C 474.949 80.931 467.26 73.242 467.26 63.792 C 467.26 54.341 474.949 46.652 484.399 46.652 C 493.85 46.652 501.539 54.341 501.539 63.792 C 501.539 73.243 493.85 80.931 484.399 80.931 Z" fill="#FFFFFF"/><path d=" M 484.399 70.47 C 480.717 70.47 477.722 67.475 477.722 63.793 C 477.722 60.11 480.717 57.115 484.399 57.115 C 488.082 57.115 491.077 60.11 491.077 63.793 C 491.077 67.475 488.081 70.47 484.399 70.47 Z" fill="#57565C"/><path d=" M 489.799 258.538 C 489.086 216.694 482.253 184.151 469.492 161.81 C 469.052 161.04 468.563 160.299 468.03 159.59 C 466.134 157.078 455.803 144.545 438.426 144.545 C 430.894 144.545 419.598 147.053 408.564 158.997 C 399.945 168.328 392.44 181.418 391.339 199.394 C 386.277 282.03 317.739 277.231 255.701 310.174 C 144.232 369.367 10.841 417.984 10.841 417.984 C 3.184 422.196 -1.049 430.724 0.226 439.368 C 1.501 448.014 8.014 454.956 16.561 456.78 C 20.204 457.556 106.909 475.804 205.23 475.806 C 205.238 475.806 205.237 475.806 205.247 475.806 C 277.757 475.806 337.545 465.795 382.93 446.051 C 411.861 433.465 435.252 416.732 452.451 396.316 C 471.919 373.208 483.654 345.257 487.331 313.235 C 487.562 311.29 490.299 287.843 489.799 258.538 Z" fill="#FFB655"/><path d=" M 487.016 219.582 L 487.016 219.582 C 484.434 250.63 479.253 274.854 478.805 276.91 C 471.434 311.672 455.644 341.126 431.87 364.459 C 410.866 385.074 383.452 401.002 350.388 411.801 C 298.521 428.742 231.859 433.503 152.279 425.949 C 152.269 425.948 152.27 425.948 152.261 425.948 C 110.092 421.944 70.185 415.068 36.948 408.102 C 20.569 414.436 10.839 417.984 10.839 417.984 C 3.182 422.196 -1.051 430.724 0.224 439.368 C 1.499 448.014 8.012 454.956 16.559 456.78 C 20.202 457.556 106.907 475.804 205.228 475.806 C 205.236 475.806 205.235 475.806 205.245 475.806 C 277.755 475.806 337.543 465.795 382.928 446.051 C 411.859 433.465 435.25 416.732 452.449 396.316 C 471.917 373.208 483.652 345.257 487.329 313.235 C 487.563 311.291 490.299 287.845 489.799 258.538 C 489.559 244.491 488.627 231.498 487.016 219.582 Z" fill="#FFA733"/><path d=" M 32.555 295.439 C 13.145 214.209 63.26 132.624 144.49 113.215 C 246.028 88.952 348.008 151.596 372.271 253.134 C 372.271 253.134 336.095 327.029 248.202 319.779 C 238.333 351.191 212.688 376.779 178.336 384.988 C 113.35 400.516 48.083 360.423 32.555 295.439 Z" fill="#CC7400"/><path d=" M 182.04 140.588 C 229.912 129.15 277.876 137.034 317.754 159.199 C 272.961 117.256 208.641 97.885 144.491 113.214 C 63.26 132.623 13.145 214.208 32.555 295.438 C 41.469 332.745 66.78 361.842 99.017 376.927 C 85.319 362.17 75.117 343.792 70.104 322.813 C 50.695 241.583 100.81 159.998 182.04 140.588 Z" fill="#AA6100"/><path d=" M 96.534 288.826 C 91.822 269.105 95.07 248.728 105.684 231.45 C 116.299 214.173 133.002 202.062 152.725 197.35 C 202.562 185.441 252.797 216.298 264.706 266.137 C 268.972 283.99 268.872 302.539 264.477 320.208 C 259.306 320.368 253.932 320.244 248.346 319.789 C 253.005 303.556 253.398 286.328 249.443 269.784 C 239.545 228.362 197.793 202.715 156.37 212.613 C 140.724 216.351 127.472 225.958 119.054 239.664 C 110.635 253.37 108.056 269.534 111.795 285.18 C 117.767 310.175 142.962 325.651 167.957 319.679 C 172.171 318.672 176.404 321.272 177.412 325.487 C 178.419 329.701 175.818 333.933 171.604 334.942 C 138.194 342.924 104.517 322.237 96.534 288.826 Z" fill="#663A00"/><g><path d=" M 327.872 268.956 C 324.037 268.956 320.684 266.142 320.117 262.235 C 316.937 240.285 307.249 220.575 291.326 203.651 C 288.356 200.495 288.508 195.529 291.663 192.56 C 294.818 189.589 299.784 189.741 302.754 192.897 C 320.929 212.213 331.996 234.784 335.648 259.983 C 336.269 264.272 333.296 268.252 329.008 268.874 C 328.626 268.929 328.246 268.956 327.872 268.956 Z" fill="#AA6100"/><path d=" M 274.395 186.676 C 272.846 186.676 271.28 186.218 269.912 185.263 C 254.846 174.749 242.391 170.198 242.267 170.153 C 238.191 168.683 236.078 164.187 237.549 160.11 C 239.02 156.033 243.519 153.922 247.592 155.392 C 248.179 155.603 262.14 160.705 278.892 172.395 C 282.445 174.874 283.316 179.766 280.836 183.319 C 279.311 185.506 276.872 186.676 274.395 186.676 Z" fill="#AA6100"/></g><g></g><g></g><g></g><g></g><g></g><g></g><g></g><g></g><g></g><g></g><g></g><g></g><g></g><g></g><g></g></svg>