<svg version="1.1" viewBox="0 0 57.996 57.996" xmlns="http://www.w3.org/2000/svg" xmlns:xlink="http://www.w3.org/1999/xlink" id="Capa_1" overflow="hidden"><g><path d=" M 17.775 17.594 L 4.667 30.702 C -1.556 36.925 -1.556 47.107 4.667 53.329 L 4.667 53.329 C 10.89 59.552 21.072 59.552 27.294 53.329 L 40.402 40.221 L 17.775 17.594 Z" fill="#DD352E"/><path d=" M 40.422 40.202 L 53.33 27.295 C 59.552 21.072 59.552 10.89 53.33 4.668 L 53.33 4.668 C 47.107 -1.555 36.925 -1.555 30.703 4.668 L 17.794 17.574 L 40.422 40.202 Z" fill="#EBBA16"/><path d=" M 22.046 21.826 L 4.936 38.936 C 4.35 39.521 4.35 40.472 4.936 41.057 C 5.229 41.35 5.613 41.496 5.997 41.496 C 6.381 41.496 6.765 41.35 7.058 41.057 L 24.168 23.947 L 22.046 21.826 Z" fill="#F46767"/><path d=" M 24.165 23.948 L 40.057 8.057 C 40.643 7.472 40.643 6.521 40.057 5.936 C 39.471 5.35 38.522 5.35 37.936 5.936 L 22.044 21.827 L 24.165 23.948 Z" fill="#FCD770"/></g><g></g><g></g><g></g><g></g><g></g><g></g><g></g><g></g><g></g><g></g><g></g><g></g><g></g><g></g><g></g></svg>