<svg version="1.1" width="625.333" height="625.333" viewBox="0 0 469 469.333" xmlns="http://www.w3.org/2000/svg" xmlns:xlink="http://www.w3.org/1999/xlink" overflow="hidden"><path d=" M 0.167969 469.332 L 469.5 320 C 469.5 143.27 326.23 0 149.5 0 Z" fill="#F59707"/><path d=" M 245.5 213.313 C 231.352 213.355 217.773 207.738 207.793 197.707 L 222.875 182.625 C 234.957 194.688 256.082 194.688 268.125 182.625 C 280.598 170.121 280.598 149.879 268.125 137.375 L 283.207 122.293 C 298.465 137.539 303.031 160.477 294.773 180.406 C 286.52 200.332 267.07 213.32 245.5 213.313 Z" fill="#EF7F00"/><path d=" M 26.5078 416.063 L 441.344 284.301 L 454.262 324.969 L 39.4258 456.73 Z" fill="#E76400"/><path d=" M 384.168 320 C 384.168 190.605 278.895 85.332 149.5 85.332 C 140.664 85.3203 132.055 82.543 124.875 77.3867 L 111.707 118.781 C 123.414 124.758 136.355 127.914 149.5 128 C 255.375 128 341.5 214.137 341.5 320 C 341.582 333.145 344.742 346.086 350.719 357.793 L 392.109 344.625 C 386.957 337.445 384.18 328.836 384.168 320 Z" fill="#E76400"/><path d=" M 149.5 0 C 125.938 0 106.832 19.1016 106.832 42.668 C 106.832 66.2305 125.938 85.332 149.5 85.332 C 279.102 85.332 384.168 190.398 384.168 320 C 384.168 343.563 403.27 362.668 426.832 362.668 C 450.398 362.668 469.5 343.563 469.5 320 C 469.5 143.27 326.23 0 149.5 0 Z" fill="#FDCF6D"/><path d=" M 469.5 320 C 469.5 343.563 450.398 362.668 426.832 362.668 C 403.27 362.668 384.168 343.563 384.168 320 C 384.168 296.438 403.27 277.332 426.832 277.332 C 450.398 277.332 469.5 296.438 469.5 320 Z" fill="#FDBC34"/><path d=" M 448.168 320 C 448.168 331.781 438.617 341.332 426.832 341.332 C 415.051 341.332 405.5 331.781 405.5 320 C 405.5 308.219 415.051 298.668 426.832 298.668 C 438.617 298.668 448.168 308.219 448.168 320 Z" fill="#FDAB00"/><path d=" M 138.832 170.668 L 138.832 128 C 144.727 128.004 149.512 123.227 149.512 117.332 C 149.512 111.438 144.727 106.66 138.832 106.668 L 138.832 64 C 168.289 64 192.168 87.8789 192.168 117.332 C 192.168 146.789 168.289 170.668 138.832 170.668 Z" fill="#C82E25"/><path d=" M 96.168 320 C 66.7109 320 42.832 296.121 42.832 266.668 C 42.832 237.211 66.7109 213.332 96.168 213.332 L 96.168 256 C 90.2773 256 85.5 260.777 85.5 266.668 C 85.5 272.559 90.2773 277.332 96.168 277.332 Z" fill="#C82E25"/><path d=" M 309.5 277.332 C 280.059 277.301 256.199 253.441 256.168 224 L 298.832 224 C 298.828 229.895 303.605 234.676 309.5 234.676 C 315.395 234.676 320.172 229.895 320.168 224 L 362.832 224 C 362.801 253.441 338.941 277.301 309.5 277.332 Z" fill="#C82E25"/><path d=" M 170.832 319.98 C 153.855 320.031 137.559 313.285 125.582 301.25 L 140.668 286.168 C 156.75 302.25 184.918 302.25 201 286.168 C 217.641 269.496 217.641 242.504 201 225.832 L 216.082 210.75 C 234.391 229.047 239.867 256.574 229.961 280.488 C 220.055 304.398 196.715 319.988 170.832 319.98 Z" fill="#EF7F00"/><g fill="#8B2800"><path d=" M 213.5 256 C 213.5 279.563 194.398 298.668 170.832 298.668 C 147.27 298.668 128.168 279.563 128.168 256 C 128.168 232.438 147.27 213.332 170.832 213.332 C 194.398 213.332 213.5 232.438 213.5 256 Z"/><path d=" M 277.5 330.668 C 277.5 348.34 263.172 362.668 245.5 362.668 C 227.828 362.668 213.5 348.34 213.5 330.668 C 213.5 312.992 227.828 298.668 245.5 298.668 C 263.172 298.668 277.5 312.992 277.5 330.668 Z"/><path d=" M 85.5 384 C 85.5 395.781 75.9492 405.332 64.168 405.332 C 52.3828 405.332 42.832 395.781 42.832 384 C 42.832 372.219 52.3828 362.668 64.168 362.668 C 75.9492 362.668 85.5 372.219 85.5 384 Z"/><path d=" M 277.5 160 C 277.5 177.672 263.172 192 245.5 192 C 227.828 192 213.5 177.672 213.5 160 C 213.5 142.328 227.828 128 245.5 128 C 263.172 128 277.5 142.328 277.5 160 Z"/></g><path d=" M 384.813 239.844 C 384.625 239.113 363.77 160.707 286.043 102.395 C 230.293 60.5938 138.52 54.875 137.605 54.8242 L 140.063 12.2188 C 144.332 12.4688 245.707 18.8125 311.625 68.2695 C 401.98 136.031 425.25 225.707 426.188 229.488 Z" fill="#FEE3AA"/></svg>