<svg version="1.1" width="681.333" height="681.333" viewBox="-22 0 511 511.996" xmlns="http://www.w3.org/2000/svg" xmlns:xlink="http://www.w3.org/1999/xlink" overflow="hidden"><path d=" M 404.715 84.8516 L 383.5 63.6406 L 447.141 0 L 468.352 21.2148 Z" fill="#5A5A5A"/><path d=" M 404.715 84.8516 L 394.109 74.2461 L 457.746 10.6055 L 468.352 21.2109 Z" fill="#444444"/><path d=" M 319.859 148.488 L 319.859 190.914 L 277.434 233.34 L 235.004 233.34 L 235.004 190.914 L 277.434 148.488 Z" fill="#5A5A5A"/><path d=" M 235.004 233.34 L 319.859 148.488 L 319.859 190.914 L 277.434 233.34 Z" fill="#444444"/><path d=" M 235.004 190.914 L 213.793 169.703 L 54.6914 265.16 L 107.727 318.195 L 192.578 275.77 Z" fill="#5A5A5A"/><path d=" M 150.152 318.195 L 150.152 360.621 L 85.3516 511.996 L 0.496094 427.145 L 107.727 318.195 Z" fill="#FF9F00"/><path d=" M 21.7109 448.355 L 150.152 318.195 L 150.152 360.621 L 85.3516 511.996 Z" fill="#FF7816"/><path d=" M 362.285 318.195 L 319.859 360.621 L 277.434 318.195 L 272.129 281.07 L 319.859 275.77 Z" fill="#444444"/><path d=" M 235.004 190.914 L 319.859 275.77 L 235.004 360.621 L 256.219 445.473 L 192.578 466.688 L 171.367 381.832 L 107.727 318.195 Z" fill="#6E6E6E"/><path d=" M 128.938 339.406 L 256.219 212.129 L 319.859 275.77 L 235.004 360.621 L 256.219 445.473 L 192.578 466.688 L 171.367 381.832 Z" fill="#5A5A5A"/><path d=" M 181.969 307.586 L 224.395 265.16 L 245.609 286.375 L 203.184 328.801 Z" fill="#444444"/><path d=" M 383.496 42.4219 L 425.926 84.8477 L 341.07 212.129 L 277.434 148.488 Z" fill="#FF9F00"/><path d=" M 404.711 63.6367 L 425.926 84.8477 L 341.07 212.129 L 298.645 169.703 Z" fill="#FF7816"/></svg>