<svg version="1.1" width="681.333" height="681.333" viewBox="0 1 511 512" xmlns="http://www.w3.org/2000/svg" xmlns:xlink="http://www.w3.org/1999/xlink" overflow="hidden"><path d=" M 494.414 102.047 L 409.348 16.9805 C 405.539 13.1719 405.539 6.99219 409.348 3.17969 L 409.672 2.85938 C 413.48 -0.953125 419.66 -0.953125 423.473 2.85938 L 508.535 87.9219 C 512.348 91.7344 512.348 97.9141 508.535 101.723 L 508.215 102.047 C 504.402 105.855 498.223 105.855 494.414 102.047 Z" fill="#737373"/><path d=" M 8.16016 512 C 6.19922 512 4.23828 511.25 2.74219 509.754 C -0.25 506.766 -0.25 501.914 2.74219 498.922 L 106.871 394.793 C 109.863 391.801 114.715 391.801 117.707 394.793 C 120.695 397.785 120.695 402.637 117.707 405.625 L 13.5781 509.754 C 12.082 511.25 10.1211 512 8.16016 512 Z" fill="#737373"/><path d=" M 161.707 384.715 L 141.051 405.371 C 134.766 411.652 124.582 411.652 118.301 405.371 L 106.023 393.09 C 99.7422 386.809 99.7422 376.625 106.023 370.344 L 126.68 349.688" fill="#D7E4EF"/><path d=" M 252.633 350.207 C 228.918 373.922 196.016 386.074 162.578 383.465 C 144.07 382.023 129.367 367.32 127.926 348.813 C 125.32 315.379 137.473 282.477 161.188 258.762 L 324.074 95.875 L 415.52 187.316 Z" fill="#D7E4EF"/><path d=" M 395.094 166.891 L 361.656 200.328 L 343.188 218.793 L 232.203 329.777 C 208.488 353.492 175.586 365.645 142.152 363.039 C 138.109 362.723 134.25 361.777 130.668 360.297 C 135.973 373.109 148.113 382.34 162.578 383.465 C 196.016 386.074 228.918 373.918 252.633 350.207 L 363.613 239.223 L 415.52 187.316 Z" fill="#C1CCD6"/><path d=" M 312.758 290.082 C 312.758 290.082 284.215 291.637 264.297 247.094 C 244.383 202.555 218.578 201.375 218.578 201.375 L 161.188 258.762 C 137.473 282.477 125.32 315.379 127.926 348.816 C 129.371 367.324 144.07 382.027 162.578 383.469 C 196.016 386.074 228.918 373.922 252.633 350.207 Z" fill="#5B9ED6"/><path d=" M 284.789 277.195 L 232.203 329.777 C 208.488 353.492 175.586 365.645 142.152 363.039 C 138.109 362.723 134.25 361.777 130.668 360.297 C 135.973 373.109 148.113 382.34 162.578 383.465 C 196.016 386.074 228.918 373.918 252.633 350.207 L 312.758 290.078 C 312.758 290.082 299.523 290.797 284.789 277.195 Z" fill="#4F8ABA"/><path d=" M 429.383 201.184 L 310.211 82.0078 C 305.52 77.3164 305.52 69.7109 310.211 65.0234 L 310.605 64.6289 C 315.297 59.9375 322.902 59.9375 327.594 64.6289 L 446.766 183.801 C 451.457 188.492 451.457 196.098 446.766 200.785 L 446.371 201.184 C 441.68 205.871 434.074 205.871 429.383 201.184 Z" fill="#B1BAC4"/><path d=" M 434.152 171.184 L 416.77 188.566 L 429.188 200.984 C 433.988 205.785 441.77 205.785 446.57 200.984 C 451.371 196.184 451.371 188.402 446.57 183.602 Z" fill="#8F969E"/><path d=" M 354.828 91.8633 L 419.527 27.1641 L 484.227 91.8633 L 419.527 156.563 Z" fill="#BDBDBD"/><path d=" M 419.531 27.1641 L 408.551 38.1406 L 442.516 72.1055 C 449.559 79.1523 449.559 90.5703 442.516 97.6133 L 401.551 138.582 L 354.832 91.8633 L 419.531 156.563 L 484.23 91.8633 Z" fill="#A1A1A1"/><g fill="#737373"><path d=" M 315.25 158.559 C 313.289 158.559 311.332 157.809 309.836 156.313 L 287.289 133.766 C 284.297 130.777 284.297 125.926 287.289 122.934 C 290.281 119.941 295.129 119.941 298.121 122.934 L 320.668 145.48 C 323.66 148.473 323.66 153.324 320.668 156.313 C 319.172 157.809 317.211 158.559 315.25 158.559 Z"/><path d=" M 288.324 185.48 C 286.367 185.48 284.406 184.734 282.91 183.238 L 260.363 160.691 C 257.371 157.699 257.371 152.848 260.363 149.859 C 263.355 146.867 268.207 146.867 271.195 149.859 L 293.742 172.406 C 296.734 175.398 296.734 180.246 293.742 183.238 C 292.246 184.734 290.289 185.48 288.324 185.48 Z"/><path d=" M 281.68 232.684 C 279.723 232.684 277.762 231.938 276.266 230.441 L 233.438 187.617 C 230.449 184.625 230.449 179.773 233.438 176.781 C 236.43 173.793 241.281 173.793 244.273 176.781 L 287.098 219.609 C 290.09 222.602 290.09 227.449 287.098 230.441 C 285.602 231.938 283.641 232.684 281.68 232.684 Z"/><path d=" M 234.477 239.332 C 232.516 239.332 230.555 238.582 229.059 237.086 L 206.516 214.543 C 203.523 211.551 203.523 206.699 206.516 203.707 C 209.504 200.715 214.355 200.715 217.348 203.707 L 239.895 226.254 C 242.883 229.246 242.883 234.098 239.895 237.086 C 238.398 238.582 236.438 239.332 234.477 239.332 Z"/><path d=" M 207.555 266.254 C 205.594 266.254 203.633 265.508 202.137 264.012 L 179.59 241.465 C 176.598 238.473 176.598 233.621 179.59 230.633 C 182.582 227.641 187.434 227.641 190.422 230.633 L 212.969 253.18 C 215.961 256.168 215.961 261.02 212.969 264.012 C 211.473 265.508 209.512 266.254 207.555 266.254 Z"/><path d=" M 200.906 313.461 C 198.945 313.461 196.984 312.711 195.488 311.215 L 152.664 268.391 C 149.672 265.398 149.672 260.547 152.664 257.559 C 155.656 254.566 160.508 254.566 163.5 257.559 L 206.324 300.383 C 209.316 303.375 209.316 308.227 206.324 311.215 C 204.828 312.711 202.867 313.461 200.906 313.461 Z"/></g></svg>