<svg version="1.1" viewBox="0 0 512.002 512.002" xmlns="http://www.w3.org/2000/svg" xmlns:xlink="http://www.w3.org/1999/xlink" id="Capa_1" overflow="hidden"><path d=" M 502.441 287.219 L 436.289 233.493 L 436.287 233.51 L 436.287 233.495 L 75.714 233.495 L 75.714 233.509 L 75.712 233.493 L 9.56 287.219 C 8.288 288.252 7.55 289.803 7.55 291.441 L 7.55 318.487 C 7.55 323.009 12.747 325.557 16.322 322.787 L 75.715 276.918 L 75.715 450.699 C 75.715 459.546 82.891 466.723 91.739 466.723 L 420.264 466.723 C 429.111 466.723 436.288 459.547 436.288 450.699 L 436.288 276.972 L 495.681 322.788 C 499.256 325.558 504.453 323.009 504.453 318.488 L 504.453 291.442 C 504.451 289.804 503.712 288.253 502.441 287.219 Z" fill="#97D57E"/><g><path d=" M 127.227 182.445 L 127.227 415.05 L 75.714 415.05 L 75.714 182.445 C 75.714 174.765 81.944 168.535 89.624 168.535 L 113.307 168.535 C 120.997 168.535 127.227 174.765 127.227 182.445 Z" fill="#DCD2CD"/><path d=" M 178.73 87.833 L 178.73 320.438 L 127.227 320.438 L 127.227 87.833 C 127.227 80.153 133.447 73.923 141.137 73.923 L 164.82 73.923 C 172.51 73.923 178.73 80.153 178.73 87.833 Z" fill="#DCD2CD"/><path d=" M 230.243 211.09 L 230.243 443.695 L 178.73 443.695 L 178.73 211.09 C 178.73 203.41 184.96 197.18 192.64 197.18 L 216.333 197.18 C 224.013 197.18 230.243 203.411 230.243 211.09 Z" fill="#DCD2CD"/><path d=" M 281.757 59.188 L 281.757 291.793 L 230.244 291.793 L 230.244 59.188 C 230.244 51.508 236.474 45.278 244.154 45.278 L 267.847 45.278 C 275.526 45.278 281.757 51.508 281.757 59.188 Z" fill="#DCD2CD"/><path d=" M 333.27 117.757 L 333.27 350.362 L 281.757 350.362 L 281.757 117.757 C 281.757 110.067 287.987 103.847 295.667 103.847 L 319.36 103.847 C 327.04 103.847 333.27 110.067 333.27 117.757 Z" fill="#DCD2CD"/><path d=" M 384.773 182.445 L 384.773 415.05 L 333.27 415.05 L 333.27 182.445 C 333.27 174.765 339.49 168.535 347.18 168.535 L 370.863 168.535 C 378.553 168.535 384.773 174.765 384.773 182.445 Z" fill="#DCD2CD"/><path d=" M 436.286 117.757 L 436.286 350.362 L 384.773 350.362 L 384.773 117.757 C 384.773 110.067 391.003 103.847 398.693 103.847 L 422.376 103.847 C 430.056 103.847 436.286 110.067 436.286 117.757 Z" fill="#DCD2CD"/></g><g><path d=" M 127.227 182.445 L 127.227 415.05 L 98.864 415.05 L 98.864 182.445 C 98.864 174.765 105.094 168.535 112.774 168.535 L 113.307 168.535 C 120.997 168.535 127.227 174.765 127.227 182.445 Z" fill="#EBE1DC"/><path d=" M 178.73 87.833 L 178.73 320.438 L 150.377 320.438 L 150.377 87.833 C 150.377 80.153 156.597 73.923 164.287 73.923 L 164.82 73.923 C 172.51 73.923 178.73 80.153 178.73 87.833 Z" fill="#EBE1DC"/><path d=" M 230.243 211.09 L 230.243 443.695 L 201.88 443.695 L 201.88 211.09 C 201.88 203.41 208.11 197.18 215.79 197.18 L 216.334 197.18 C 224.013 197.18 230.243 203.411 230.243 211.09 Z" fill="#EBE1DC"/><path d=" M 281.757 59.188 L 281.757 291.793 L 253.394 291.793 L 253.394 59.188 C 253.394 51.508 259.624 45.278 267.304 45.278 L 267.848 45.278 C 275.526 45.278 281.757 51.508 281.757 59.188 Z" fill="#EBE1DC"/><path d=" M 333.27 117.757 L 333.27 350.362 L 304.907 350.362 L 304.907 117.757 C 304.907 110.067 311.137 103.847 318.817 103.847 L 319.361 103.847 C 327.04 103.847 333.27 110.067 333.27 117.757 Z" fill="#EBE1DC"/><path d=" M 384.773 182.445 L 384.773 415.05 L 356.42 415.05 L 356.42 182.445 C 356.42 174.765 362.64 168.535 370.33 168.535 L 370.863 168.535 C 378.553 168.535 384.773 174.765 384.773 182.445 Z" fill="#EBE1DC"/><path d=" M 436.286 117.757 L 436.286 350.362 L 407.923 350.362 L 407.923 117.757 C 407.923 110.067 414.153 103.847 421.843 103.847 L 422.376 103.847 C 430.056 103.847 436.286 110.067 436.286 117.757 Z" fill="#EBE1DC"/></g><path d=" M 436.286 233.495 L 436.286 450.7 C 436.286 459.547 429.11 466.724 420.262 466.724 L 91.737 466.724 C 82.89 466.724 75.713 459.548 75.713 450.7 L 75.713 233.495 L 436.286 233.495 Z" fill="#5CA33B"/><path d=" M 436.286 233.495 L 436.286 432.311 L 129.069 432.311 C 120.222 432.311 113.045 425.135 113.045 416.287 L 113.045 233.495 L 436.286 233.495 L 436.286 233.495 Z" fill="#6DC54A"/><g><path d=" M 7.549 291.442 L 7.549 318.488 C 7.549 323.01 12.746 325.558 16.321 322.788 L 75.712 276.773 L 75.712 233.493 L 9.56 287.219 C 8.288 288.253 7.549 289.804 7.549 291.442 Z" fill="#97D57E"/><path d=" M 504.451 291.442 L 504.451 318.488 C 504.451 323.01 499.254 325.558 495.679 322.788 L 436.288 276.773 L 436.288 233.493 L 502.44 287.219 C 503.712 288.253 504.451 289.804 504.451 291.442 Z" fill="#97D57E"/></g><path d=" M 507.2 281.359 L 443.835 229.898 L 443.835 203.058 C 443.835 198.881 440.453 195.509 436.286 195.509 C 432.119 195.509 428.737 198.881 428.737 203.058 L 428.737 225.946 L 392.321 225.946 L 392.321 213.646 L 392.321 183.451 L 392.321 182.444 L 392.321 117.756 C 392.321 114.243 395.179 111.395 398.692 111.395 L 422.375 111.395 C 425.888 111.395 428.736 114.243 428.736 117.756 L 428.736 172.862 C 428.736 177.029 432.118 180.411 436.285 180.411 C 440.452 180.411 443.834 177.029 443.834 172.862 L 443.834 117.756 C 443.834 105.919 434.212 96.297 422.375 96.297 L 398.692 96.297 C 386.855 96.297 377.223 105.919 377.223 117.756 L 377.223 161.952 C 375.22 161.318 373.076 160.986 370.862 160.986 L 347.18 160.986 C 344.966 160.986 342.822 161.318 340.819 161.952 L 340.819 117.756 C 340.819 105.919 331.187 96.297 319.36 96.297 L 295.667 96.297 C 293.453 96.297 291.309 96.629 289.306 97.263 L 289.306 59.188 C 289.306 47.351 279.674 37.729 267.847 37.729 L 244.154 37.729 C 232.327 37.729 222.695 47.351 222.695 59.188 L 222.695 190.598 C 220.692 189.964 218.548 189.632 216.334 189.632 L 192.64 189.632 C 190.426 189.632 188.292 189.964 186.279 190.598 L 186.279 87.833 C 186.279 76.006 176.657 66.374 164.82 66.374 L 141.137 66.374 C 129.3 66.374 119.678 76.006 119.678 87.833 L 119.678 110.258 C 119.678 114.425 123.05 117.807 127.227 117.807 C 131.394 117.807 134.776 114.425 134.776 110.258 L 134.776 87.833 C 134.776 84.33 137.624 81.472 141.137 81.472 L 164.82 81.472 C 168.333 81.472 171.181 84.33 171.181 87.833 L 171.181 211.09 L 171.181 225.946 L 134.775 225.946 L 134.775 182.445 L 134.775 140.453 C 134.775 136.286 131.393 132.904 127.226 132.904 C 123.049 132.904 119.677 136.286 119.677 140.453 L 119.677 161.952 C 117.664 161.328 115.53 160.986 113.306 160.986 L 89.624 160.986 C 77.787 160.986 68.165 170.608 68.165 182.445 L 68.165 229.898 L 4.8 281.36 C 1.749 283.837 0 287.512 0 291.442 L 0 318.487 C 0 325.654 5.838 331.486 13.013 331.486 C 15.897 331.486 18.639 330.542 20.944 328.754 L 68.165 292.169 L 68.165 415.049 L 68.165 450.7 C 68.165 463.694 78.733 474.272 91.737 474.272 L 420.262 474.272 C 433.266 474.272 443.835 463.694 443.835 450.7 C 443.835 427.185 443.835 315.497 443.835 292.169 L 491.054 328.753 C 493.361 330.541 496.104 331.486 498.987 331.486 C 506.162 331.486 512 325.654 512 318.487 L 512 291.442 C 512 287.512 510.251 283.837 507.2 281.359 Z M 68.163 273.073 L 15.098 314.186 L 15.098 292.445 L 68.163 249.349 L 68.163 273.073 Z M 340.819 182.445 C 340.819 178.932 343.667 176.084 347.18 176.084 L 370.863 176.084 C 374.376 176.084 377.224 178.932 377.224 182.445 L 377.224 183.452 L 377.224 213.647 L 377.224 225.947 L 340.819 225.947 L 340.819 182.445 Z M 289.305 117.757 C 289.305 114.244 292.153 111.396 295.666 111.396 L 319.359 111.396 C 322.862 111.396 325.72 114.244 325.72 117.757 L 325.72 182.445 L 325.72 225.946 L 289.304 225.946 L 289.305 117.757 L 289.305 117.757 Z M 186.279 211.09 C 186.279 207.587 189.137 204.729 192.64 204.729 L 216.333 204.729 C 219.846 204.729 222.694 207.587 222.694 211.09 L 222.694 225.946 L 186.278 225.946 L 186.279 211.09 L 186.279 211.09 Z M 83.263 182.445 C 83.263 178.932 86.111 176.084 89.624 176.084 L 113.307 176.084 C 116.82 176.084 119.678 178.932 119.678 182.445 L 119.678 225.946 L 83.263 225.946 L 83.263 182.445 Z M 428.737 450.7 C 428.737 455.37 424.932 459.175 420.262 459.175 L 91.737 459.175 C 87.067 459.175 83.262 455.37 83.262 450.7 L 83.262 422.598 L 83.262 241.044 C 209.693 241.044 123.009 241.044 241.566 241.044 C 245.733 241.044 249.115 237.662 249.115 233.495 C 249.115 229.328 245.733 225.946 241.566 225.946 L 237.792 225.946 C 237.792 218.918 237.792 67.599 237.792 59.187 C 237.792 55.674 240.65 52.826 244.153 52.826 L 267.846 52.826 C 271.349 52.826 274.207 55.674 274.207 59.187 L 274.207 117.756 L 274.207 225.946 L 271.761 225.946 C 267.584 225.946 264.212 229.328 264.212 233.495 C 264.212 237.662 267.584 241.044 271.761 241.044 C 364.447 241.044 375.395 241.044 428.736 241.044 C 428.737 248.529 428.737 444.44 428.737 450.7 Z M 496.902 314.186 L 443.837 273.073 L 443.837 249.35 L 496.902 292.446 L 496.902 314.186 Z"/><path d=" M 263.369 359.769 L 235.934 372.917 C 235.509 373.119 235.114 373.219 234.723 373.219 C 233.338 373.219 232.029 371.919 232.029 370.544 C 232.029 370.193 232.112 369.819 232.274 369.434 L 252.362 321.608 C 253.305 319.359 253.783 317.019 253.783 314.654 C 253.783 305.021 245.632 296.882 235.985 296.882 C 233.236 296.882 230.558 297.521 228.021 298.782 L 125.245 349.904 C 121.513 351.761 119.991 356.292 121.848 360.024 C 123.705 363.758 128.236 365.279 131.969 363.421 L 234.742 312.3 C 235.176 312.085 235.581 311.98 235.983 311.98 C 237.371 311.98 238.683 313.279 238.683 314.654 C 238.683 315.004 238.599 315.38 238.438 315.765 L 218.351 363.588 C 217.407 365.834 216.929 368.175 216.929 370.543 C 216.929 380.176 225.077 388.316 234.721 388.316 C 237.381 388.316 239.983 387.715 242.455 386.532 L 269.89 373.384 C 270.313 373.182 270.708 373.083 271.098 373.083 C 272.483 373.083 273.793 374.381 273.793 375.754 C 273.793 376.099 273.719 376.451 273.564 376.832 C 272.687 379.001 272.242 381.26 272.242 383.547 C 272.242 393.348 280.207 401.323 289.996 401.323 C 291.923 401.323 293.848 401.006 295.718 400.379 C 317.272 393.147 350.4 384.485 383.191 385.343 C 387.323 385.447 390.826 382.166 390.938 377.999 C 391.049 373.831 387.76 370.363 383.592 370.252 C 381.911 370.207 380.205 370.185 378.523 370.185 C 345.244 370.185 312.513 378.822 290.917 386.067 C 290.599 386.174 290.288 386.228 289.995 386.228 C 288.605 386.228 287.339 384.951 287.339 383.55 C 287.339 383.211 287.413 382.856 287.559 382.494 C 288.442 380.312 288.889 378.045 288.889 375.756 C 288.889 366.125 280.74 357.987 271.096 357.987 C 268.44 357.986 265.84 358.586 263.369 359.769 Z"/><g></g><g></g><g></g><g></g><g></g><g></g><g></g><g></g><g></g><g></g><g></g><g></g><g></g><g></g><g></g></svg>