<svg version="1.1" viewBox="0 0 512 512" xmlns="http://www.w3.org/2000/svg" xmlns:xlink="http://www.w3.org/1999/xlink" id="Layer_1" overflow="hidden"><rect x="39.848" y="191.95" width="408.29" height="240.175" fill="#5A5A28"/><path d=" M 39.846 432.125 L 39.846 191.954 L 448.137 191.954" fill="#7B7B53"/><g><rect x="111.899" y="184.126" width="264.189" height="15.647" fill="#1D1D1B"/><path d=" M 79.874 167.755 L 31.84 167.755 C 14.284 167.755 0 153.471 0 135.914 C 0 118.357 14.284 104.074 31.84 104.074 L 39.845 104.074 C 44.36 104.074 48.033 100.401 48.033 95.886 C 48.033 91.371 44.36 87.698 39.845 87.698 C 35.33 87.698 31.657 91.371 31.657 95.886 L 16.01 95.886 C 16.01 82.743 26.702 72.051 39.845 72.051 C 52.988 72.051 63.68 82.743 63.68 95.886 C 63.68 109.029 52.988 119.721 39.845 119.721 L 31.84 119.721 C 22.912 119.721 15.647 126.986 15.647 135.914 C 15.647 144.843 22.912 152.108 31.84 152.108 L 79.874 152.108 L 79.874 167.755 Z" fill="#1D1D1B"/><rect x="88.063" y="135.912" width="15.647" height="88.063" fill="#1D1D1B"/></g><rect x="79.874" y="216.151" width="32.023" height="15.647" fill="#FBB049"/><rect x="384.276" y="135.912" width="15.647" height="88.063" fill="#1D1D1B"/><rect x="376.088" y="216.151" width="32.023" height="15.647" fill="#FBB049"/><g><rect x="111.899" y="152.112" width="264.189" height="15.647" fill="#1D1D1B"/><path d=" M 512 304.034 L 496.353 304.034 L 496.353 167.755 L 408.108 167.755 L 408.108 152.108 L 512 152.108 Z" fill="#1D1D1B"/></g><g><path d=" M 135.914 272.193 L 111.898 272.193 L 111.898 287.84 L 135.914 287.84 C 140.429 287.84 144.102 291.513 144.102 296.028 C 144.102 300.543 140.429 304.216 135.914 304.216 L 127.726 304.216 L 127.726 296.028 L 112.079 296.028 L 112.079 328.051 L 127.726 328.051 L 127.726 319.863 L 135.914 319.863 C 140.429 319.863 144.102 323.536 144.102 328.051 C 144.102 332.566 140.429 336.239 135.914 336.239 L 111.898 336.239 L 111.898 351.886 L 135.914 351.886 C 149.057 351.886 159.749 341.194 159.749 328.051 C 159.749 321.893 157.402 316.274 153.556 312.04 C 157.402 307.806 159.749 302.186 159.749 296.029 C 159.749 282.886 149.057 272.193 135.914 272.193 Z" fill="#FFFFFF"/><path d=" M 375.903 296.028 C 375.903 282.885 365.211 272.193 352.068 272.193 L 328.051 272.193 L 328.051 287.84 L 352.068 287.84 C 356.583 287.84 360.256 291.513 360.256 296.028 C 360.256 300.543 356.583 304.216 352.068 304.216 L 343.88 304.216 L 343.88 296.028 L 328.233 296.028 L 328.233 304.216 L 328.05 304.216 L 328.05 319.863 L 328.233 319.863 L 328.233 352.068 L 343.88 352.068 L 343.88 319.863 L 348.827 319.863 L 360.256 331.292 L 360.256 352.068 L 375.903 352.068 L 375.903 324.81 L 366.258 315.165 C 372.107 310.818 375.903 303.858 375.903 296.028 Z" fill="#FFFFFF"/><path d=" M 184.131 351.886 L 231.983 351.886 L 231.983 336.239 L 199.778 336.239 L 199.778 319.863 L 223.977 319.863 L 223.977 304.216 L 199.778 304.216 L 199.778 287.841 L 231.983 287.841 L 231.983 272.193 L 184.131 272.193 Z" fill="#FFFFFF"/><path d=" M 256.181 351.886 L 304.035 351.886 L 304.035 336.239 L 271.83 336.239 L 271.83 319.863 L 296.029 319.863 L 296.029 304.216 L 271.83 304.216 L 271.83 287.841 L 304.035 287.841 L 304.035 272.193 L 256.181 272.193 Z" fill="#FFFFFF"/></g><g><rect x="79.874" y="304.214" width="16.011" height="15.647" fill="#1D1D1B"/><path d=" M 408.108 184.13 L 408.108 199.778 L 440.312 199.778 L 440.312 304.216 L 424.12 304.216 L 424.12 319.863 L 440.312 319.863 L 440.312 424.302 L 47.67 424.302 L 47.67 319.863 L 63.864 319.863 L 63.864 304.216 L 47.67 304.216 L 47.67 199.778 L 79.876 199.778 L 79.876 184.13 L 32.023 184.13 L 32.023 439.949 L 455.96 439.949 L 455.96 184.13 Z" fill="#1D1D1B"/><rect x="392.1" y="304.214" width="16.012" height="15.647" fill="#1D1D1B"/><rect x="191.95" y="376.264" width="104.075" height="15.647" fill="#1D1D1B"/></g><g><rect x="472.339" y="255.999" width="15.647" height="16.011" fill="#FBB049"/><rect x="472.339" y="223.975" width="15.647" height="16.011" fill="#FBB049"/><rect x="472.339" y="191.95" width="15.647" height="16.011" fill="#FBB049"/></g><g></g><g></g><g></g><g></g><g></g><g></g><g></g><g></g><g></g><g></g><g></g><g></g><g></g><g></g><g></g></svg>