<svg version="1.1" width="682.667" height="682.667" viewBox="0 0 512 512" xmlns="http://www.w3.org/2000/svg" xmlns:xlink="http://www.w3.org/1999/xlink" overflow="hidden"><path d=" M 159.602 512 C 115.891 512 80.332 476.441 80.332 432.734 C 80.332 432.375 80.3359 432.016 80.3398 431.66 C 79.9805 431.664 79.625 431.664 79.2656 431.664 C 35.5586 431.668 0 396.109 0 352.398 C 0 308.691 35.5586 273.133 79.2656 273.133 C 95.3438 273.133 110.691 277.891 123.707 286.746 L 286.746 123.699 C 277.895 110.688 273.137 95.3398 273.137 79.2656 C 273.133 35.5586 308.691 -2.84217e-14 352.398 -2.84217e-14 C 396.109 -2.84217e-14 431.668 35.5586 431.668 79.2656 C 431.668 79.625 431.664 79.9844 431.66 80.3398 C 432.016 80.3359 432.375 80.3359 432.734 80.3359 C 476.441 80.3359 512 115.895 512 159.602 C 512 203.309 476.441 238.867 432.734 238.867 C 416.656 238.867 401.309 234.105 388.289 225.25 L 225.254 388.293 C 234.105 401.309 238.867 416.656 238.867 432.734 C 238.867 476.441 203.309 512 159.602 512 Z M 112.496 418.258 C 111.063 422.91 110.336 427.781 110.336 432.734 C 110.336 459.898 132.434 482 159.602 482 C 186.766 482 208.867 459.898 208.867 432.734 C 208.867 419.582 203.742 407.211 194.43 397.902 C 188.574 392.047 188.574 382.547 194.43 376.691 L 376.691 194.422 C 382.547 188.563 392.051 188.57 397.902 194.422 C 407.219 203.734 419.586 208.867 432.734 208.867 C 459.898 208.867 482 186.766 482 159.598 C 482 132.434 459.898 110.332 432.734 110.332 C 427.789 110.332 422.914 111.059 418.254 112.496 C 406.758 116.027 395.965 105.242 399.504 93.7461 C 400.938 89.082 401.668 84.2109 401.668 79.2656 C 401.668 52.1016 379.566 30 352.398 30 C 325.234 30 303.133 52.1016 303.133 79.2656 C 303.133 92.4141 308.262 104.781 317.57 114.09 C 323.43 119.945 323.422 129.449 317.57 135.301 L 135.309 317.57 C 129.453 323.43 119.949 323.422 114.098 317.57 C 104.785 308.262 92.418 303.133 79.2656 303.133 C 52.1016 303.133 30 325.234 30 352.398 C 30 379.566 52.1016 401.668 79.2656 401.668 C 84.1914 401.668 89.0703 400.938 93.7656 399.496 C 106.188 395.691 115.758 407.672 112.496 418.258 Z"/></svg>