<svg version="1.1" viewBox="0 0 512.002 512.002" xmlns="http://www.w3.org/2000/svg" xmlns:xlink="http://www.w3.org/1999/xlink" id="Layer_1" overflow="hidden"><path d=" M 316.242 196.931 L 316.242 231.373 L 195.765 231.373 L 195.765 196.931 L 230.963 196.931 L 281.044 196.931 Z" fill="#F2F2F2"/><path d=" M 281.044 157.965 L 281.044 196.931 L 230.963 196.931 L 230.963 157.965 L 256.004 157.965 Z" fill="#B3B3B3"/><g><path d=" M 256.004 157.953 L 108.964 157.953 L 108.964 125.271 C 108.964 113.802 120.456 105.9 131.169 110.011 L 190.462 132.783 L 256.004 157.953 Z" fill="#F4550F"/><path d=" M 403.043 125.271 L 403.043 157.953 L 256.003 157.953 L 321.556 132.783 L 380.837 110.011 C 391.551 105.9 403.043 113.802 403.043 125.271 Z" fill="#F4550F"/><path d=" M 321.557 101.483 L 321.557 132.783 L 256.004 157.953 L 190.462 132.783 L 190.462 101.483 Z" fill="#F4550F"/></g><g><path d=" M 381.345 271.336 L 381.345 370.552 L 381.333 370.552 L 352.407 370.552 L 352.407 271.336 L 381.333 271.336 Z" fill="#CCCCCC"/><rect x="130.658" y="271.332" width="28.938" height="99.216" fill="#CCCCCC"/></g><g><path d=" M 130.66 370.552 L 130.66 387.383 C 130.66 398.025 122.038 406.647 111.396 406.647 C 100.754 406.647 92.132 398.025 92.132 387.383 L 92.132 370.552 L 92.132 271.336 L 92.132 254.505 C 92.132 243.875 100.754 235.241 111.396 235.241 C 116.723 235.241 121.53 237.402 125.015 240.887 C 128.511 244.371 130.661 249.19 130.661 254.506 L 130.661 271.337 L 130.661 370.552 Z" fill="#E6E6E6"/><path d=" M 419.874 370.552 L 419.874 387.383 C 419.874 398.025 411.252 406.647 400.61 406.647 C 389.968 406.647 381.346 398.025 381.346 387.383 L 381.346 370.552 L 381.346 271.336 L 381.346 254.505 C 381.346 243.875 389.968 235.241 400.61 235.241 C 405.937 235.241 410.744 237.402 414.229 240.887 C 417.725 244.371 419.875 249.19 419.875 254.506 L 419.875 271.337 L 419.875 370.552 Z" fill="#E6E6E6"/></g><path d=" M 352.407 370.552 L 352.407 393.667 C 352.407 402.974 344.86 410.522 335.552 410.522 L 176.453 410.522 C 167.146 410.522 159.598 402.974 159.598 393.667 L 159.598 370.552 L 159.598 271.336 L 159.598 248.221 C 159.598 238.914 167.145 231.366 176.453 231.366 L 256.003 231.366 L 335.553 231.366 C 344.86 231.366 352.408 238.913 352.408 248.221 L 352.408 271.336 L 352.408 370.552 Z" fill="#B3B3B3"/><g><path d=" M 503.144 271.336 L 503.144 370.552 L 419.885 370.552 L 419.874 370.552 L 419.874 271.336 L 419.885 271.336 Z" fill="#F2F2F2"/><rect x="8.861" y="271.332" width="83.27" height="99.216" fill="#F2F2F2"/></g><g><rect x="352.405" y="312.672" width="28.938" height="57.876" fill="#B3B3B3"/><rect x="130.658" y="312.672" width="28.938" height="57.876" fill="#B3B3B3"/></g><g><path d=" M 130.66 329.508 L 130.66 387.384 C 130.66 398.026 122.038 406.648 111.396 406.648 C 100.754 406.648 92.132 398.026 92.132 387.384 L 92.132 329.508 C 92.132 340.15 100.754 348.772 111.396 348.772 C 122.038 348.772 130.66 340.15 130.66 329.508 Z" fill="#CCCCCC"/><path d=" M 419.874 329.508 L 419.874 387.384 C 419.874 398.026 411.252 406.648 400.61 406.648 C 389.968 406.648 381.346 398.026 381.346 387.384 L 381.346 329.508 C 381.346 340.15 389.968 348.772 400.61 348.772 C 411.251 348.772 419.874 340.15 419.874 329.508 Z" fill="#CCCCCC"/></g><path d=" M 352.407 335.791 L 352.407 393.667 C 352.407 402.974 344.86 410.522 335.552 410.522 L 176.453 410.522 C 167.146 410.522 159.598 402.974 159.598 393.667 L 159.598 335.791 C 159.598 345.098 167.145 352.646 176.453 352.646 L 335.552 352.646 C 344.859 352.646 352.407 345.099 352.407 335.791 Z" fill="#999999"/><g><rect x="419.871" y="312.672" width="83.27" height="57.876" fill="#E6E6E6"/><rect x="8.861" y="312.672" width="83.27" height="57.876" fill="#E6E6E6"/></g><path d=" M 503.141 262.48 L 428.736 262.48 L 428.736 254.509 C 428.736 239.001 416.119 226.384 400.611 226.384 C 385.103 226.384 372.486 239.001 372.486 254.509 L 372.486 262.482 L 361.263 262.482 L 361.263 248.22 C 361.263 234.043 349.729 222.508 335.551 222.508 L 325.097 222.508 L 325.097 196.933 C 325.097 192.041 321.131 188.074 316.238 188.074 L 289.896 188.074 L 289.896 166.82 L 403.047 166.815 C 407.939 166.815 411.906 162.849 411.906 157.956 L 411.906 125.27 C 411.906 116.965 407.819 109.199 400.975 104.496 C 394.13 99.793 385.416 98.762 377.662 101.74 L 330.412 119.888 L 330.412 101.479 C 330.412 96.587 326.446 92.62 321.553 92.62 L 190.459 92.62 C 185.567 92.62 181.6 96.586 181.6 101.479 L 181.6 119.889 L 134.345 101.74 C 126.592 98.761 117.876 99.792 111.032 104.496 C 104.187 109.199 100.101 116.965 100.101 125.271 L 100.101 157.958 C 100.101 162.85 104.067 166.817 108.96 166.817 L 222.111 166.822 L 222.111 188.077 L 195.769 188.077 C 190.877 188.077 186.91 192.043 186.91 196.936 L 186.91 222.511 L 176.456 222.511 C 162.279 222.511 150.744 234.046 150.744 248.223 L 150.744 262.484 L 139.52 262.484 L 139.52 254.511 C 139.52 239.003 126.903 226.386 111.395 226.386 C 95.887 226.386 83.27 239 83.27 254.509 L 83.27 262.48 L 8.859 262.48 C 3.967 262.48 0 266.446 0 271.339 L 0 370.555 C 0 375.447 3.966 379.414 8.859 379.414 L 83.27 379.414 L 83.27 387.382 C 83.27 402.89 95.887 415.507 111.395 415.507 C 126.903 415.507 139.52 402.89 139.52 387.382 L 139.52 379.416 L 150.744 379.416 L 150.744 393.67 C 150.744 407.847 162.278 419.382 176.456 419.382 L 335.552 419.382 C 349.729 419.382 361.264 407.848 361.264 393.67 L 361.264 379.416 L 372.487 379.416 L 372.487 387.382 C 372.487 402.89 385.104 415.507 400.612 415.507 C 416.12 415.507 428.737 402.89 428.737 387.382 L 428.737 379.414 L 503.142 379.414 C 508.034 379.414 512.001 375.448 512.001 370.555 L 512.001 271.339 C 512 266.447 508.034 262.48 503.141 262.48 Z M 384.015 118.28 C 386.355 117.381 388.878 117.68 390.942 119.099 C 393.007 120.518 394.19 122.766 394.19 125.272 L 394.19 149.1 L 303.775 149.1 L 384.015 118.28 Z M 199.317 110.338 L 312.695 110.338 L 312.695 126.693 L 256.004 148.467 L 199.318 126.695 L 199.317 110.338 L 199.317 110.338 Z M 117.819 125.27 C 117.819 122.766 119.002 120.516 121.067 119.097 C 123.132 117.678 125.656 117.381 127.993 118.278 L 208.234 149.097 L 117.819 149.097 L 117.819 125.27 Z M 239.828 166.82 L 272.181 166.82 L 272.181 188.075 L 239.828 188.075 L 239.828 166.82 Z M 204.628 205.792 L 230.97 205.792 L 281.04 205.792 L 307.382 205.792 L 307.382 222.509 L 204.628 222.509 L 204.628 205.792 Z M 17.717 361.696 L 17.717 280.197 L 83.27 280.197 L 83.27 361.696 L 17.717 361.696 Z M 121.804 387.38 C 121.804 393.119 117.135 397.788 111.396 397.788 C 105.657 397.788 100.988 393.119 100.988 387.38 L 100.988 254.509 C 100.988 248.77 105.657 244.101 111.396 244.101 C 117.135 244.101 121.804 248.77 121.804 254.509 C 121.804 254.509 121.804 387.38 121.804 387.38 Z M 139.521 361.697 L 139.521 280.198 L 150.745 280.198 L 150.745 361.697 L 139.521 361.697 Z M 343.546 393.669 C 343.546 398.077 339.959 401.664 335.551 401.664 L 176.456 401.664 C 172.048 401.664 168.461 398.078 168.461 393.669 L 168.461 248.22 C 168.461 243.812 172.047 240.225 176.456 240.225 L 335.552 240.225 C 339.96 240.225 343.547 243.812 343.547 248.22 L 343.547 393.669 L 343.546 393.669 Z M 361.263 361.697 L 361.263 280.198 L 372.486 280.198 L 372.486 361.697 L 361.263 361.697 Z M 411.02 387.38 C 411.02 393.119 406.351 397.788 400.612 397.788 C 394.873 397.788 390.204 393.119 390.204 387.38 L 390.204 254.509 C 390.204 248.77 394.873 244.101 400.612 244.101 C 406.351 244.101 411.02 248.77 411.02 254.509 L 411.02 387.38 Z M 494.283 361.696 L 428.737 361.696 L 428.737 280.197 L 494.283 280.197 L 494.283 361.696 Z" fill="#333333"/><path d=" M 274.171 280.716 C 270.711 277.256 265.102 277.256 261.644 280.716 C 258.184 284.176 258.184 289.785 261.644 293.243 L 280.487 312.086 L 210.138 312.086 C 205.246 312.086 201.279 316.052 201.279 320.945 C 201.279 325.838 205.245 329.804 210.138 329.804 L 280.487 329.804 L 261.645 348.646 C 258.185 352.106 258.185 357.715 261.645 361.173 C 263.374 362.903 265.642 363.768 267.909 363.768 C 270.176 363.768 272.443 362.903 274.173 361.173 L 308.138 327.209 C 309.8 325.548 310.733 323.295 310.733 320.945 C 310.733 318.595 309.8 316.342 308.138 314.681 L 274.171 280.716 Z" fill="#FFFFFF"/><g></g><g></g><g></g><g></g><g></g><g></g><g></g><g></g><g></g><g></g><g></g><g></g><g></g><g></g><g></g></svg>