<svg version="1.1" width="564" height="564" viewBox="-17 0 423 423.242" xmlns="http://www.w3.org/2000/svg" xmlns:xlink="http://www.w3.org/1999/xlink" overflow="hidden"><path d=" M 304.41 208.203 C 304.41 277.953 247.867 334.496 178.117 334.496 C 108.367 334.496 51.8242 277.953 51.8242 208.203 C 51.8242 138.453 108.367 81.9102 178.117 81.9102 C 247.867 81.9102 304.41 138.453 304.41 208.203 Z" fill="#E7D1C4"/><path d=" M 107.762 205.656 L 214.48 312.375 L 130.961 395.891 L 24.2461 289.176 Z" fill="#B5A19C"/><path d=" M 130.965 402.723 C 129.219 402.723 127.469 402.055 126.137 400.719 L 19.418 294.008 C 18.1367 292.727 17.418 290.992 17.418 289.18 C 17.418 287.367 18.1367 285.637 19.418 284.355 L 102.938 200.836 C 105.605 198.168 109.926 198.168 112.59 200.836 L 219.309 307.555 C 220.59 308.832 221.313 310.566 221.313 312.379 C 221.313 314.191 220.59 315.926 219.309 317.207 L 135.789 400.719 C 134.457 402.055 132.711 402.723 130.965 402.723 Z M 33.8945 289.18 L 130.965 386.242 L 204.828 312.383 L 107.762 215.316 Z" fill="#4C241D"/><path d=" M 169.348 413.191 L 130.965 395.898 L 214.48 312.379 L 231.773 350.766 Z" fill="#6B4F5B"/><path d=" M 169.348 420.016 C 168.402 420.016 167.441 419.816 166.543 419.414 L 128.156 402.121 C 126.117 401.195 124.648 399.328 124.25 397.121 C 123.844 394.914 124.551 392.652 126.137 391.066 L 209.656 307.551 C 211.242 305.965 213.516 305.227 215.711 305.668 C 217.918 306.066 219.781 307.535 220.711 309.574 L 238.004 347.961 C 239.164 350.547 238.609 353.586 236.605 355.594 L 174.176 418.012 C 172.867 419.32 171.121 420.016 169.348 420.016 Z M 142.781 393.734 L 167.855 405.027 L 223.613 349.273 L 212.316 324.203 Z" fill="#4C241D"/><path d=" M 69.375 188.367 L 107.762 205.66 L 24.2422 289.18 L 6.95313 250.793 Z" fill="#6B4F5B"/><path d=" M 24.2422 296.008 C 23.8359 296.008 23.4219 295.973 23.0156 295.895 C 20.8086 295.496 18.9414 294.027 18.0156 291.988 L 0.71875 253.602 C -0.441406 251.016 0.113281 247.977 2.12109 245.969 L 64.5469 183.543 C 66.5469 181.535 69.5938 180.98 72.1797 182.145 L 110.566 199.438 C 112.605 200.363 114.074 202.23 114.473 204.438 C 114.879 206.645 114.172 208.902 112.586 210.492 L 29.0664 294.012 C 27.7773 295.301 26.0352 296.008 24.2422 296.008 Z M 15.1094 252.289 L 26.4102 277.359 L 95.9414 207.828 L 70.8711 196.527 Z" fill="#4C241D"/><path d=" M 355.234 103.266 C 352.598 103.266 350.09 101.734 348.969 99.1602 C 347.461 95.707 349.051 91.6797 352.508 90.1797 L 365.281 84.6289 C 371.004 82.1484 374.695 76.5156 374.695 70.2891 C 374.695 64.6602 371.648 59.4453 366.75 56.6719 L 294.32 15.7344 C 290.273 13.4492 285.422 13.0195 281.016 14.5664 C 276.621 16.1055 273.102 19.4805 271.375 23.8008 C 269.734 27.8906 269.828 32.3672 271.625 36.3945 C 273.422 40.4141 276.691 43.4609 280.832 44.9727 L 327.152 61.8984 C 330.691 63.1914 332.512 67.1133 331.219 70.6602 C 329.918 74.1992 325.984 76 322.457 74.7266 L 276.145 57.8008 C 268.512 55.0117 262.477 49.3867 259.156 41.9688 C 255.844 34.5391 255.68 26.2852 258.695 18.7344 C 261.891 10.7461 268.379 4.53516 276.492 1.67969 C 284.605 -1.16016 293.551 -0.378906 301.043 3.84766 L 373.473 44.7969 C 382.652 49.9805 388.352 59.75 388.352 70.2891 C 388.352 81.9648 381.434 92.5117 370.727 97.1484 L 357.953 102.703 C 357.063 103.09 356.141 103.266 355.234 103.266 Z" fill="#4C241D"/><path d=" M 349.039 75.7422 C 341.352 68.0547 328.887 68.0547 321.199 75.7422 L 316.559 80.3828 L 344.398 108.223 L 349.039 103.582 C 356.727 95.8945 356.727 83.4297 349.039 75.7422 Z" fill="#B5A19C"/><path d=" M 344.402 115.047 C 342.656 115.047 340.91 114.383 339.574 113.047 L 311.738 85.207 C 309.07 82.543 309.07 78.2188 311.738 75.5547 L 316.379 70.9141 C 326.703 60.5859 343.516 60.5742 353.871 70.9141 C 364.211 81.2539 364.211 98.0664 353.871 108.406 L 349.23 113.047 C 347.895 114.383 346.148 115.047 344.402 115.047 Z M 326.215 80.3828 L 344.402 98.5664 C 349.23 93.5352 349.168 85.5195 344.215 80.5664 C 339.27 75.6211 331.254 75.5625 326.215 80.3828 Z" fill="#4C241D"/><path d=" M 149.52 247.418 L 168.078 228.859 L 195.918 256.699 L 177.359 275.258 Z" fill="#B5A19C"/><path d=" M 177.363 282.09 C 175.617 282.09 173.867 281.422 172.535 280.09 L 144.695 252.25 C 142.031 249.582 142.031 245.262 144.695 242.598 L 163.258 224.035 C 165.922 221.371 170.242 221.371 172.91 224.035 L 200.75 251.875 C 203.414 254.543 203.414 258.863 200.75 261.527 L 182.188 280.09 C 180.855 281.422 179.109 282.09 177.363 282.09 Z M 159.176 247.422 L 177.363 265.605 L 186.27 256.699 L 168.082 238.516 Z" fill="#4C241D"/><path d=" M 168.078 228.859 L 316.555 80.3828 L 344.395 108.223 L 195.918 256.699 Z" fill="#BF7E68"/><g fill="#4C241D"><path d=" M 195.922 263.527 C 194.176 263.527 192.43 262.859 191.098 261.527 L 163.258 233.688 C 160.59 231.023 160.59 226.703 163.258 224.035 L 311.738 75.5547 C 314.402 72.8906 318.723 72.8906 321.391 75.5547 L 349.23 103.395 C 351.895 106.063 351.895 110.383 349.23 113.047 L 200.75 261.527 C 199.414 262.859 197.668 263.527 195.922 263.527 Z M 177.734 228.859 L 195.922 247.047 L 334.75 108.219 L 316.563 90.0352 Z"/><path d=" M 325.844 133.609 C 324.098 133.609 322.348 132.941 321.016 131.609 L 293.176 103.77 C 290.512 101.102 290.512 96.7813 293.176 94.1172 C 295.844 91.4492 300.164 91.4492 302.828 94.1172 L 330.668 121.957 C 333.336 124.621 333.336 128.941 330.668 131.609 C 329.336 132.941 327.59 133.609 325.844 133.609 Z"/><path d=" M 307.281 152.168 C 305.535 152.168 303.789 151.5 302.457 150.168 L 274.617 122.328 C 271.949 119.66 271.949 115.34 274.617 112.676 C 277.281 110.008 281.605 110.008 284.27 112.676 L 312.109 140.516 C 314.773 143.18 314.773 147.5 312.109 150.168 C 310.777 151.5 309.031 152.168 307.281 152.168 Z"/><path d=" M 288.723 170.73 C 286.977 170.73 285.23 170.063 283.895 168.727 L 256.055 140.891 C 253.391 138.223 253.391 133.902 256.055 131.234 C 258.723 128.57 263.043 128.57 265.711 131.234 L 293.547 159.074 C 296.215 161.742 296.215 166.063 293.547 168.727 C 292.215 170.063 290.469 170.73 288.723 170.73 Z"/><path d=" M 270.164 189.289 C 268.418 189.289 266.668 188.621 265.336 187.289 L 237.496 159.449 C 234.832 156.785 234.832 152.461 237.496 149.797 C 240.164 147.129 244.484 147.129 247.148 149.797 L 274.988 177.637 C 277.656 180.301 277.656 184.621 274.988 187.289 C 273.656 188.621 271.91 189.289 270.164 189.289 Z"/><path d=" M 251.602 207.848 C 249.855 207.848 248.109 207.18 246.777 205.848 L 218.938 178.008 C 216.27 175.344 216.27 171.023 218.938 168.355 C 221.602 165.691 225.922 165.691 228.59 168.355 L 256.43 196.195 C 259.094 198.859 259.094 203.184 256.43 205.848 C 255.098 207.18 253.352 207.848 251.602 207.848 Z"/><path d=" M 233.043 226.41 C 231.297 226.41 229.547 225.742 228.215 224.41 L 200.375 196.57 C 197.711 193.902 197.711 189.582 200.375 186.918 C 203.043 184.25 207.363 184.25 210.031 186.918 L 237.867 214.754 C 240.535 217.422 240.535 221.742 237.867 224.41 C 236.535 225.742 234.789 226.41 233.043 226.41 Z"/><path d=" M 214.48 244.969 C 212.734 244.969 210.988 244.301 209.656 242.969 L 181.816 215.129 C 179.152 212.465 179.152 208.141 181.816 205.477 C 184.484 202.809 188.805 202.809 191.469 205.477 L 219.309 233.316 C 221.973 235.98 221.973 240.301 219.309 242.969 C 217.977 244.301 216.23 244.969 214.48 244.969 Z"/></g><path d=" M 144.879 279.898 C 132.066 267.086 111.293 267.086 98.4805 279.898 C 85.668 292.711 85.668 313.484 98.4805 326.297 C 111.293 339.109 132.066 339.109 144.879 326.297 C 157.691 313.484 157.691 292.711 144.879 279.898 Z" fill="#EDEBDC"/><path d=" M 121.684 342.723 C 111.527 342.723 101.383 338.855 93.6563 331.129 C 78.2031 315.676 78.2031 290.527 93.6563 275.074 C 109.109 259.621 134.254 259.621 149.711 275.074 C 165.164 290.527 165.164 315.676 149.711 331.129 C 141.984 338.855 131.836 342.723 121.684 342.723 Z M 121.684 277.129 C 115.031 277.129 108.375 279.66 103.309 284.727 C 93.1758 294.859 93.1758 311.34 103.309 321.473 C 113.441 331.605 129.922 331.609 140.055 321.473 C 150.188 311.34 150.188 294.859 140.055 284.727 C 134.988 279.66 128.336 277.129 121.684 277.129 Z" fill="#4C241D"/><path d=" M 304.41 423.242 L 24.5156 423.242 C 20.7422 423.242 17.6914 420.188 17.6914 416.414 C 17.6914 412.641 20.7422 409.59 24.5156 409.59 L 304.41 409.59 C 308.184 409.59 311.238 412.641 311.238 416.414 C 311.238 420.188 308.184 423.242 304.41 423.242 Z" fill="#4C241D"/><path d=" M 81.3672 150.301 C 77.9414 150.301 74.9844 147.727 74.5898 144.242 L 68.8438 93.2734 L 60.4102 109.641 C 59.0938 112.195 56.3477 113.586 53.4688 113.289 C 50.625 112.914 48.3047 110.801 47.6836 108 L 36.0898 55.9609 C 35.2695 52.2813 37.582 48.6289 41.2617 47.8086 C 44.9297 47.0313 48.5898 49.3086 49.4102 52.9883 L 56.9102 86.6289 L 67.0313 66.9766 C 68.4023 64.3008 71.3438 62.8008 74.3281 63.3867 C 77.2891 63.9258 79.543 66.3477 79.8828 69.332 L 88.1641 142.707 C 88.582 146.453 85.8906 149.832 82.1445 150.262 C 81.8828 150.289 81.6211 150.301 81.3672 150.301 Z" fill="#4C241D"/></svg>