<svg version="1.1" width="658.667" height="658.667" viewBox="-2 0 494 494.944" xmlns="http://www.w3.org/2000/svg" xmlns:xlink="http://www.w3.org/1999/xlink" overflow="hidden"><path d=" M 480.473 472 L 467.434 460.801 C 453.434 448.801 437.754 438.879 421.113 431.359 C 404.473 423.84 386.711 418.559 368.473 416 L 370.152 419.359 C 379.594 438.238 384.473 458.961 384.473 480 L 369.754 470.16 C 358.871 462.961 347.113 457.441 334.793 453.68 C 322.391 449.922 309.512 448 296.473 448 L 304.473 480 L 279.352 469.922 C 269.512 466 259.031 464 248.473 464 C 237.91 464 227.434 466 217.594 469.922 L 192.473 480 L 200.473 448 C 174.391 448 148.871 455.762 127.191 470.16 L 112.473 480 C 112.473 458.961 117.352 438.238 126.793 419.359 L 128.473 416 C 91.9102 421.199 57.5938 436.801 29.5117 460.801 L 16.4727 472 C 21.4336 427.281 49.4336 388.48 90.2305 369.68 L 121.031 355.441 L 121.113 355.359 C 149.594 392.238 194.23 416 244.473 416 C 279.273 416 311.512 404.559 337.434 385.199 C 343.113 381.039 348.391 376.48 353.434 371.602 C 359.434 365.762 364.953 359.441 369.91 352.641 L 406.711 369.68 C 427.113 379.039 444.313 393.441 457.031 411.121 C 469.754 428.801 477.992 449.602 480.473 472 Z" fill="#ECC19C"/><path d=" M 128.473 240 L 128.711 240.961 C 114.793 244.398 104.473 257.039 104.473 272 C 97.3516 272 90.7109 274.398 85.3516 278.398 L 66.6328 269.039 C 50.3906 261.039 36.0703 249.762 24.4727 235.922 C 23.7539 235.039 22.9531 234.16 22.2305 233.199 C 13.3516 222.078 8.47266 208.238 8.47266 194 C 8.47266 177.359 15.1133 161.359 26.8711 149.602 L 32.4727 144 L 34.1523 151.602 C 39.7539 176.801 54.1523 198.641 74.0703 213.68 L 74.1523 213.602 C 85.4336 225.922 100.551 234.398 117.113 237.762 Z" fill="#EF7385"/><path d=" M 107.352 334.398 L 104.473 336 L 92.793 336 C 83.6719 336 74.8711 334.238 66.6328 330.801 C 58.3906 327.359 50.8711 322.398 44.4727 316 C 31.6719 303.199 24.4727 285.84 24.4727 267.68 L 24.4727 235.922 C 36.0703 249.762 50.3906 261.039 66.6328 269.039 L 85.3516 278.398 C 77.5117 284.16 72.4727 293.52 72.4727 304 L 94.793 304 C 97.9102 314.641 102.152 324.801 107.352 334.398 Z" fill="#E6E9ED"/><path d=" M 160.473 208 L 160.711 208.961 C 146.793 212.398 136.473 225.039 136.473 240 C 133.832 240 131.191 240.32 128.711 240.961 L 128.473 240 L 117.113 237.762 C 100.551 234.398 85.4336 225.922 74.1523 213.602 C 72.7109 212.16 71.4336 210.719 70.2305 209.199 C 61.3516 198.078 56.4727 184.238 56.4727 170 C 56.4727 153.359 63.1133 137.359 74.8711 125.602 L 80.4727 120 L 82.1523 127.602 C 90.9531 167.039 121.273 198.16 160.473 208 Z" fill="#FCD770"/><path d=" M 136.473 240 C 136.473 225.039 146.793 212.398 160.711 208.961 C 163.191 208.32 165.832 208 168.473 208 L 256.473 208 C 261.754 208 266.871 208.879 271.594 210.48 C 278.793 212.801 285.191 216.801 290.391 222.078 C 299.113 230.719 304.473 242.719 304.473 256 C 304.473 282.48 282.953 304 256.473 304 L 72.4727 304 C 72.4727 293.52 77.5117 284.16 85.3516 278.398 C 90.7109 274.398 97.3516 272 104.473 272 C 104.473 257.039 114.793 244.398 128.711 240.961 C 131.191 240.32 133.832 240 136.473 240 Z" fill="#EF7385"/><path d=" M 352.473 304 C 352.473 330.398 347.434 356.641 337.594 381.121 L 336.473 384 L 337.434 385.199 C 311.512 404.559 279.273 416 244.473 416 C 194.23 416 149.594 392.238 121.113 355.359 C 115.992 348.801 111.352 341.762 107.352 334.398 C 102.152 324.801 97.9102 314.641 94.793 304 L 256.473 304 C 282.953 304 304.473 282.48 304.473 256 C 304.473 282.398 299.434 308.641 289.594 333.121 L 288.473 336 L 307.992 332.719 C 326.152 329.68 342.23 319.281 352.473 304 Z" fill="#FCD770"/><path d=" M 400.473 263.602 L 400.391 264 C 399.594 297.199 388.391 327.762 369.91 352.641 C 364.953 359.441 359.434 365.762 353.434 371.602 C 348.391 376.48 343.113 381.039 337.434 385.199 L 336.473 384 L 337.594 381.121 C 347.434 356.641 352.473 330.398 352.473 304 C 342.23 319.281 326.152 329.68 307.992 332.719 L 288.473 336 L 289.594 333.121 C 299.434 308.641 304.473 282.398 304.473 256 C 304.473 242.719 299.113 230.719 290.391 222.078 C 285.191 216.801 278.793 212.801 271.594 210.48 L 272.473 208 L 272.473 136 C 272.473 124.48 275.512 113.602 280.953 104.238 C 292.633 83.8398 315.191 70.4805 340.711 72.1602 C 362.633 73.5195 381.191 86.4805 391.512 104.559 C 397.273 114.48 400.473 126.078 400.473 138.16 L 400.473 200 L 415.992 191.121 L 416.473 192 L 416.473 193.922 C 416.473 208.559 418.793 223.039 423.434 236.961 C 424.152 238.961 424.473 241.121 424.473 243.281 L 424.473 244 C 424.473 255.039 415.512 264 404.473 264 C 403.113 264 401.754 263.84 400.473 263.602 Z" fill="#E6E9ED"/><path d=" M 392.473 40 C 410.152 40 424.473 54.3203 424.473 72 C 424.473 89.6797 410.152 104 392.473 104 L 391.512 104.559 C 381.191 86.4805 362.633 73.5195 340.711 72.1602 C 315.191 70.4805 292.633 83.8398 280.953 104.238 L 280.473 104 C 262.793 104 248.473 89.6797 248.473 72 C 248.473 54.3203 262.793 40 280.473 40 C 280.473 22.3203 294.793 8 312.473 8 C 322.07 8 330.633 12.3203 336.473 19.0391 C 342.313 12.3203 350.871 8 360.473 8 C 378.152 8 392.473 22.3203 392.473 40 Z" fill="#EF7385"/><path d=" M 400.473 136 L 400.473 200 L 456.473 168 Z" fill="#FCD770"/><path d=" M 344.473 120 L 360.473 120 L 360.473 136 L 344.473 136 Z"/><path d=" M 490.664 491.281 L 488.426 471.113 C 483.176 423.938 453.145 382.273 410.047 362.367 L 382.121 349.48 C 396.734 326.879 405.879 300.383 407.871 271.648 C 421.695 269.953 432.473 258.215 432.473 243.238 C 432.473 240.223 431.984 237.246 431.031 234.391 C 426.84 221.816 424.688 208.727 424.527 195.473 L 472.602 168 L 408.152 131.168 C 407.488 123.879 405.742 116.902 403.168 110.359 C 420.008 105.648 432.473 90.3281 432.473 72 C 432.473 52.4492 418.367 36.1289 399.801 32.6719 C 396.344 14.1055 380.023 5.68434e-14 360.473 5.68434e-14 C 351.777 5.68434e-14 343.367 2.90234 336.473 8.15234 C 329.574 2.90234 321.168 5.68434e-14 312.473 5.68434e-14 C 292.922 5.68434e-14 276.602 14.1055 273.145 32.6719 C 254.574 36.1289 240.473 52.4492 240.473 72 C 240.473 90.1758 252.727 105.383 269.359 110.23 C 266.223 118.398 264.473 127.121 264.473 136 L 264.473 200.641 C 261.848 200.266 259.191 200 256.473 200 L 168.473 200 C 166.359 200 164.336 200.305 162.313 200.625 L 162.406 200.238 C 125.895 191.105 98.1367 162.617 89.9688 125.863 L 85.1211 104.031 L 69.1914 119.969 C 56.0234 133.137 48.7188 150.594 48.5117 169.184 C 45.7109 163.008 43.457 156.566 41.9766 149.871 L 37.1289 128.039 L 21.1914 143.969 C 7.83203 157.328 0.472656 175.098 0.472656 193.992 C 0.472656 209.992 5.97656 225.688 15.9766 238.184 C 16.1289 238.383 16.3125 238.551 16.4727 238.742 L 16.4727 267.719 C 16.4727 288.098 24.4063 307.246 38.8164 321.656 C 53.2227 336.063 72.375 344 92.7539 344 L 103.703 344 C 105.383 346.793 107.152 349.512 108.984 352.184 L 86.8945 362.375 C 43.8008 382.273 13.7695 423.938 8.51953 471.121 L 6.28125 491.289 L 34.7266 466.895 C 57.8477 447.09 85.2656 433.344 114.77 426.664 C 108 443.566 104.473 461.801 104.473 480 L 104.473 494.945 L 131.633 476.84 C 149.199 465.129 169.238 458.16 190.129 456.426 L 180.93 493.23 L 220.594 477.375 C 238.426 470.23 258.543 470.23 276.375 477.375 L 316.039 493.23 L 306.84 456.426 C 327.719 458.16 347.762 465.129 365.336 476.84 L 392.473 494.945 L 392.473 480 C 392.473 461.801 388.945 443.566 382.184 426.656 C 411.688 433.336 439.105 447.09 462.215 466.879 Z M 408.473 149.793 L 440.344 168 L 408.473 186.207 Z M 256.473 72 C 256.473 58.7695 267.238 48 280.473 48 L 288.473 48 L 288.473 40 C 288.473 26.7695 299.238 16 312.473 16 C 319.383 16 325.77 18.9531 330.449 24.3047 L 336.473 31.1914 L 342.496 24.3047 C 347.176 18.9531 353.559 16 360.473 16 C 373.703 16 384.473 26.7695 384.473 40 L 384.473 48 L 392.473 48 C 405.703 48 416.473 58.7695 416.473 72 C 416.473 84.2148 407.266 94.2148 395.449 95.6953 C 383.313 77.8086 363.754 65.6172 341.246 64.1523 C 321.168 62.9023 301.922 69.6953 287.238 83.457 C 283.32 87.1289 279.895 91.2383 276.93 95.6406 C 265.375 93.9102 256.473 84.0156 256.473 72 Z M 280.473 136 C 280.473 120.352 286.762 105.832 298.184 95.1367 C 309.602 84.4336 324.559 79.0625 340.215 80.1289 C 369.52 82.0234 392.473 107.527 392.473 138.191 L 392.473 213.785 L 408.887 204.398 C 409.754 216.32 412.063 228.07 415.855 239.449 C 416.273 240.672 416.473 241.945 416.473 244 C 416.473 250.617 411.09 256 404.473 256 C 397.855 256 392.473 250.617 392.473 244 L 392.473 232 L 376.473 232 L 376.473 244 C 376.473 254.953 382.855 264.359 392.039 268.961 C 389.922 304.816 375.434 336.895 352.695 361.223 C 357.824 342.625 360.473 323.473 360.473 304 L 360.473 277.586 L 345.816 299.559 C 336.863 312.984 322.617 322.199 306.703 324.848 L 300.863 325.824 C 308.574 303.336 312.473 279.895 312.473 256 C 312.473 233.719 299.359 214.496 280.473 205.48 Z M 309.328 340.633 C 321.824 338.551 333.512 333.289 343.313 325.551 C 341.367 343.566 336.977 361.191 330.176 378.176 L 329.031 381.031 L 329.625 381.266 C 305.594 398.09 276.305 408 244.473 408 C 182.84 408 127.367 369.016 105.922 312 L 256.473 312 C 269.703 312 281.863 307.359 291.457 299.656 C 289.137 310.008 286.168 320.223 282.184 330.184 L 275.777 346.23 Z M 256.473 216 C 278.527 216 296.473 233.945 296.473 256 C 296.473 278.055 278.527 296 256.473 296 L 81.8398 296 C 85.1445 286.688 94.0391 280 104.473 280 L 208.473 280 L 208.473 264 L 113.945 264 C 117.258 254.711 126.055 248 136.473 248 L 240.473 248 L 240.473 232 L 145.945 232 C 149.258 222.711 158.055 216 168.473 216 Z M 76.1055 136.23 C 85.7852 169.984 110.008 196.922 142.008 210.238 C 135.672 215.879 131.039 223.383 129.281 232 L 118.68 229.879 C 102.063 226.559 87.0625 217.434 76.4727 204.184 C 68.7266 194.512 64.4727 182.375 64.4727 169.992 C 64.4727 157.594 68.5664 145.832 76.1055 136.23 Z M 28.1133 160.23 C 34.9023 183.785 49.1445 204.633 68.7031 219.586 C 79.4805 231 93.1289 239.359 108.184 243.754 C 102.594 249.359 98.7109 256.633 97.207 264.727 C 92.8086 265.543 88.7344 267.16 84.9609 269.289 L 70.1836 261.895 C 54.1211 253.871 39.6875 242.215 28.4727 228.176 C 20.7266 218.512 16.4727 206.375 16.4727 193.992 C 16.4727 181.594 20.5664 169.832 28.1133 160.23 Z M 92.7539 328 C 76.6484 328 61.5195 321.727 50.1289 310.344 C 38.7422 298.953 32.4727 283.824 32.4727 267.719 L 32.4727 255.258 C 41.7539 263.504 51.9766 270.695 63.0234 276.215 L 72.0625 280.734 C 67.3359 287.313 64.4727 295.305 64.4727 304 L 64.4727 312 L 89.0313 312 C 90.8633 317.473 92.9453 322.816 95.3203 328 Z M 363 422.953 C 369.488 435.91 373.719 450.016 375.496 464.406 L 374.184 463.535 C 351.098 448.145 324.223 440 296.473 440 L 286.223 440 L 292.922 466.77 L 282.305 462.52 C 260.695 453.879 236.258 453.879 214.648 462.52 L 204.031 466.77 L 210.719 440 L 200.473 440 C 172.719 440 145.848 448.145 122.754 463.527 L 121.441 464.398 C 123.223 450.008 127.457 435.902 133.938 422.945 L 142.449 405.91 L 127.328 408.07 C 91.2148 413.238 57.3594 427.969 29.0234 450.816 C 39.0234 418.543 62.4414 391.281 93.5859 376.902 L 118.879 365.23 C 149.48 401.488 195.191 424 244.473 424 C 296.602 424 342.648 400.184 372.609 362.719 L 403.352 376.902 C 434.504 391.281 457.91 418.543 467.91 450.809 C 439.574 427.977 405.719 413.238 369.609 408.07 L 354.488 405.91 Z"/></svg>