<svg version="1.1" width="598.667" height="598.667" viewBox="0 -81 449.634 449" xmlns="http://www.w3.org/2000/svg" xmlns:xlink="http://www.w3.org/1999/xlink" overflow="hidden"><path d=" M 279.969 153.926 L 281.57 105.926 L 108.809 105.926 C 105.652 105.926 102.566 106.859 99.9375 108.613 L 65.6719 131.453 C 59.9805 135.078 56.375 141.211 55.9766 147.949 C 55.7539 155.418 59.7109 162.391 66.2383 166.027 C 72.7695 169.66 80.7773 169.355 87.0117 165.23 L 17.6719 211.453 C 11.9805 215.074 8.37109 221.211 7.97656 227.949 C 7.75391 235.418 11.7109 242.391 18.2383 246.027 C 24.7695 249.66 32.7773 249.355 39.0117 245.23 L 64.8594 227.996 C 57.4336 232.93 54.168 242.184 56.8594 250.684 C 58.6602 256.945 63.4531 261.902 69.6523 263.91 C 75.8516 265.918 82.6406 264.711 87.7695 260.691 L 103.93 249.926 L 257.531 249.926 C 284.039 249.926 305.531 228.434 305.531 201.926 L 305.531 153.926 Z" fill="#FFB1B5"/><g fill="#C0F5F9"><path d=" M 105.531 64.2539 L 121.531 64.2539 L 121.531 80.2539 L 105.531 80.2539 Z"/><path d=" M 137.531 64.2539 L 185.531 64.2539 L 185.531 80.2539 L 137.531 80.2539 Z"/><path d=" M 73.5313 64.2539 L 89.5313 64.2539 L 89.5313 80.2539 L 73.5313 80.2539 Z"/><path d=" M 137.531 272.254 L 153.531 272.254 L 153.531 288.254 L 137.531 288.254 Z"/><path d=" M 169.531 272.254 L 185.531 272.254 L 185.531 288.254 L 169.531 288.254 Z"/><path d=" M 201.531 272.254 L 217.531 272.254 L 217.531 288.254 L 201.531 288.254 Z"/></g><path d=" M 89.5313 171.551 C 86.0039 171.555 82.8906 169.246 81.8633 165.871 C 80.8398 162.496 82.1484 158.848 85.082 156.895 L 99.4805 147.293 C 100.797 146.418 102.34 145.949 103.922 145.949 L 137.531 145.949 C 141.949 145.949 145.531 149.531 145.531 153.949 C 145.531 158.367 141.949 161.949 137.531 161.949 L 106.387 161.949 L 93.9688 170.23 C 92.6523 171.098 91.1094 171.555 89.5313 171.551 Z" fill="#DE9A9E"/><path d=" M 233.531 161.926 L 169.531 161.926 C 165.113 161.926 161.531 158.344 161.531 153.926 C 161.531 149.508 165.113 145.926 169.531 145.926 L 233.531 145.926 C 237.949 145.926 241.531 149.508 241.531 153.926 C 241.531 158.344 237.949 161.926 233.531 161.926 Z" fill="#DE9A9E"/><path d=" M 249.531 209.926 L 201.531 209.926 C 197.113 209.926 193.531 206.344 193.531 201.926 C 193.531 197.508 197.113 193.926 201.531 193.926 L 249.531 193.926 C 253.949 193.926 257.531 197.508 257.531 201.926 C 257.531 206.344 253.949 209.926 249.531 209.926 Z" fill="#DE9A9E"/><path d=" M 169.531 209.926 L 145.531 209.926 C 141.113 209.926 137.531 206.344 137.531 201.926 C 137.531 197.508 141.113 193.926 145.531 193.926 L 169.531 193.926 C 173.949 193.926 177.531 197.508 177.531 201.926 C 177.531 206.344 173.949 209.926 169.531 209.926 Z" fill="#DE9A9E"/><path d=" M 81.5313 224.875 C 78.0039 224.883 74.8906 222.574 73.8633 219.199 C 72.8398 215.824 74.1484 212.176 77.082 210.223 L 99.5234 195.27 C 101.898 193.625 104.98 193.391 107.578 194.656 C 110.18 195.922 111.891 198.492 112.059 201.379 C 112.23 204.266 110.828 207.02 108.395 208.582 L 85.9922 223.531 C 84.6719 224.414 83.1172 224.883 81.5313 224.875 Z" fill="#DE9A9E"/><path d=" M 310.34 54.6992 L 372.785 137.867 C 383.395 152 380.543 172.059 366.41 182.672 L 289.641 240.309 C 282.57 245.617 272.543 244.188 267.238 237.121 L 185.578 128.363 C 180.273 121.297 181.703 111.27 188.77 105.965 L 265.539 48.3242 C 279.672 37.7109 299.73 40.5664 310.34 54.6992 Z" fill="#A88E74"/><path d=" M 239.93 67.5391 L 188.73 105.941 C 181.66 111.242 180.227 121.273 185.531 128.34 L 267.227 237.125 C 272.527 244.195 282.555 245.625 289.625 240.324 L 340.824 201.926 Z" fill="#EBEBEB"/><path d=" M 214.352 86.7578 L 239.941 67.543 L 340.813 201.891 L 315.223 221.105 Z" fill="#CBCBCB"/><path d=" M 435.125 21.0234 C 445.738 35.1563 442.883 55.2148 428.75 65.8281 L 358.379 118.664 L 319.949 67.4844 L 390.324 14.6484 C 404.457 4.03516 424.516 6.89063 435.125 21.0234 Z" fill="#9A826A"/><path d=" M 319.941 67.5 L 331.426 58.875 L 369.852 110.055 L 358.367 118.68 Z" fill="#917B64"/><path d=" M 398.328 38.6641 L 411.121 29.0586 L 420.73 41.8516 L 407.934 51.4609 Z" fill="#746250"/><path d=" M 145.531 209.926 L 169.531 209.926 C 173.949 209.926 177.531 206.344 177.531 201.926 C 177.531 197.508 173.949 193.926 169.531 193.926 L 145.531 193.926 C 141.113 193.926 137.531 197.508 137.531 201.926 C 137.531 206.344 141.113 209.926 145.531 209.926 Z"/><path d=" M 81.5313 224.875 C 83.1055 224.875 84.6484 224.406 85.9609 223.531 L 108.363 208.582 C 110.797 207.02 112.199 204.266 112.027 201.379 C 111.859 198.492 110.145 195.922 107.547 194.656 C 104.949 193.391 101.867 193.625 99.4883 195.27 L 77.0898 210.223 C 74.1563 212.176 72.8477 215.824 73.8711 219.195 C 74.8945 222.57 78.0039 224.879 81.5313 224.875 Z"/><path d=" M 0.0195312 227.66 C -0.355469 238.148 5.17578 247.957 14.3438 253.063 C 23.5078 258.168 34.7656 257.707 43.4805 251.867 L 48.2813 248.668 C 48.5039 250.145 48.8398 251.598 49.2813 253.02 C 51.7383 261.398 58.0234 268.117 66.2188 271.125 C 69.1289 272.152 72.1953 272.68 75.2813 272.676 C 81.332 272.609 87.2305 270.758 92.2344 267.348 L 106.328 257.934 L 257.531 257.934 C 266.766 257.93 275.855 255.617 283.969 251.203 C 287.77 250.574 291.359 249.035 294.434 246.719 L 320.035 227.516 L 345.633 208.316 L 371.234 189.117 C 388.883 175.848 392.461 150.797 379.234 133.117 L 369.633 120.316 L 433.633 72.3164 C 451.309 59.0625 454.887 33.9883 441.633 16.3164 C 428.379 -1.35547 403.309 -4.9375 385.633 8.31641 L 321.633 56.3164 L 316.832 49.918 C 303.578 32.2422 278.508 28.6602 260.832 41.918 L 227.809 66.6523 L 209.531 80.3555 L 186.129 97.957 L 108.809 97.957 C 104.074 97.9844 99.4492 99.3711 95.4805 101.957 L 61.2969 124.797 C 53.3906 129.793 48.4297 138.348 48.0195 147.691 C 47.6484 157.832 52.8242 167.371 61.5313 172.59 L 37.0742 188.895 L 13.2969 204.766 C 5.39063 209.762 0.429688 218.316 0.0195312 227.66 Z M 238.328 78.75 L 329.609 200.293 L 316.809 209.895 L 225.531 88.3477 Z M 395.129 21.0547 C 405.734 13.1016 420.777 15.25 428.73 25.8516 C 436.684 36.457 434.535 51.5 423.93 59.4531 L 359.93 107.453 L 331.129 69.0547 Z M 270.328 54.7344 C 274.477 51.6016 279.535 49.918 284.73 49.9336 C 285.879 49.9336 287.023 50.0117 288.16 50.1719 C 294.449 51.0664 300.121 54.4258 303.93 59.5078 L 320.195 81.1719 L 351.969 123.453 L 366.371 142.652 C 374.324 153.258 372.172 168.301 361.57 176.254 L 342.371 190.652 L 251.129 69.1406 Z M 193.531 112.371 L 212.73 97.9727 L 304.02 219.508 L 284.816 233.91 C 281.281 236.559 276.27 235.844 273.617 232.309 L 191.969 123.566 C 189.32 120.031 190.035 115.016 193.57 112.363 Z M 22.1289 218.109 L 91 172.195 L 91.1211 172.109 L 91.4414 171.887 L 91.5313 171.836 L 92.5313 171.164 L 93.9688 170.203 L 106.387 161.926 L 137.531 161.926 C 141.949 161.926 145.531 158.344 145.531 153.926 C 145.531 149.508 141.949 145.926 137.531 145.926 L 103.969 145.926 C 102.391 145.926 100.844 146.391 99.5313 147.27 L 85.1289 156.867 L 85.0898 156.867 L 83.5469 157.918 L 82.4648 158.637 C 78.7148 161.078 73.9141 161.215 70.0352 158.988 C 66.1523 156.762 63.8477 152.547 64.0664 148.078 C 64.375 143.945 66.6563 140.219 70.1953 138.063 L 104.273 115.285 C 105.641 114.398 107.234 113.914 108.867 113.895 L 175.02 113.895 C 174.914 114.383 174.738 114.844 174.664 115.348 C 173.75 121.648 175.395 128.055 179.234 133.133 L 188.832 145.934 L 169.531 145.934 C 165.113 145.934 161.531 149.516 161.531 153.934 C 161.531 158.352 165.113 161.934 169.531 161.934 L 200.77 161.934 L 224.77 193.934 L 201.531 193.934 C 197.113 193.934 193.531 197.516 193.531 201.934 C 193.531 206.352 197.113 209.934 201.531 209.934 L 236.801 209.934 L 260.672 241.727 C 259.633 241.813 258.586 241.934 257.531 241.934 L 103.93 241.934 C 102.348 241.934 100.797 242.402 99.4805 243.285 L 83.3359 254.07 C 79.9336 256.551 75.5625 257.293 71.5313 256.078 C 68.0625 254.762 65.4531 251.844 64.5313 248.254 C 62.8906 243.207 64.8008 237.691 69.2031 234.734 L 69.3203 234.652 C 72.9805 232.203 73.9727 227.258 71.5391 223.586 C 69.1055 219.914 64.1641 218.902 60.4805 221.316 L 60.2969 221.438 L 34.6328 238.539 C 30.8984 241.074 26.0547 241.285 22.1133 239.082 C 18.1758 236.883 15.8125 232.648 16.0117 228.141 C 16.3125 224.004 18.5898 220.27 22.1289 218.109 Z"/><path d=" M 398.328 38.6641 L 411.121 29.0586 L 420.73 41.8516 L 407.934 51.4609 Z"/><path d=" M 105.531 64.2539 L 121.531 64.2539 L 121.531 80.2539 L 105.531 80.2539 Z"/><path d=" M 137.531 64.2539 L 185.531 64.2539 L 185.531 80.2539 L 137.531 80.2539 Z"/><path d=" M 73.5313 64.2539 L 89.5313 64.2539 L 89.5313 80.2539 L 73.5313 80.2539 Z"/><path d=" M 137.531 272.254 L 153.531 272.254 L 153.531 288.254 L 137.531 288.254 Z"/><path d=" M 169.531 272.254 L 185.531 272.254 L 185.531 288.254 L 169.531 288.254 Z"/><path d=" M 201.531 272.254 L 217.531 272.254 L 217.531 288.254 L 201.531 288.254 Z"/></svg>