<svg version="1.1" width="682.667" height="682.667" viewBox="0 -36 512 512" xmlns="http://www.w3.org/2000/svg" xmlns:xlink="http://www.w3.org/1999/xlink" overflow="hidden"><path d=" M 462 410 C 462 421.047 453.047 430 442 430 C 430.953 430 422 421.047 422 410 C 422 398.953 430.953 390 442 390 C 453.047 390 462 398.953 462 410 Z" fill="#537983"/><path d=" M 90 410 C 90 421.047 81.0469 430 70 430 C 58.9531 430 50 421.047 50 410 C 50 398.953 58.9531 390 70 390 C 81.0469 390 90 398.953 90 410 Z" fill="#537983"/><path d=" M 491.328 342 L 276 184.84 L 276 130 C 262.012 130 249.988 130 236 130 L 236 184.84 L 20.6719 342 C 13.9492 347.039 10 354.941 10 363.328 C 10 378.059 21.9414 390 36.6719 390 L 475.328 390 C 490.059 390 502 378.07 502 363.328 C 502 354.941 498.051 347.039 491.328 342 Z M 76.6602 350 L 256 220 L 435.34 350 Z" fill="#FFC66C"/><path d=" M 497.328 334 C 497.297 333.973 286 179.758 286 179.758 L 286 130 C 286 124.477 281.523 120 276 120 L 266 120 L 266 107.031 C 266 102.598 268.441 98.5664 271.797 97.4492 C 292.254 90.6406 306 71.5742 306 50 C 306 22.4297 283.57 0 256 0 C 228.43 0 206 22.4297 206 50 C 206 55.5234 210.477 60 216 60 C 221.523 60 226 55.5234 226 50 C 226 33.457 239.457 20 256 20 C 272.543 20 286 33.457 286 50 C 286 62.9453 277.754 74.3906 265.477 78.4727 C 253.828 82.3555 246 93.832 246 107.031 L 246 120 L 236 120 C 230.477 120 226 124.477 226 130 L 226 179.758 C 226 179.758 14.7031 333.973 14.6719 334 C 5.48438 340.891 0 351.855 0 363.328 C 0 383.551 16.4492 399.988 36.6719 399.988 L 41.7188 399.988 C 40.6094 403.121 40 406.492 40 410 C 40 426.543 53.457 440 70 440 C 86.543 440 100 426.543 100 410 C 100 406.492 99.3906 403.121 98.2813 399.988 L 413.719 399.988 C 412.609 403.121 412 406.492 412 410 C 412 426.543 425.457 440 442 440 C 458.543 440 472 426.543 472 410 C 472 406.492 471.391 403.129 470.281 400 L 475.328 400 C 495.602 400 512 383.602 512 363.328 C 512 351.855 506.516 340.891 497.328 334 Z M 246 140 L 266 140 L 266 166.758 C 259.543 164.492 252.457 164.492 246 166.758 Z M 70 420 C 64.4844 420 60 415.516 60 410 C 60 404.484 64.4844 400 70 400 C 75.5156 400 80 404.484 80 410 C 80 415.516 75.5156 420 70 420 Z M 442 420 C 436.484 420 432 415.516 432 410 C 432 404.484 436.484 400 442 400 C 447.516 400 452 404.484 452 410 C 452 415.516 447.516 420 442 420 Z M 475.328 380 L 36.6719 380 C 27.4766 380 20 372.52 20 363.328 C 20 358.137 22.4766 353.168 26.625 350.035 C 36.375 342.918 249.965 187.027 250 187 C 253.531 184.352 258.469 184.352 262.004 187 C 262.035 187.027 464.844 335.066 485.375 350.035 C 489.523 353.168 492 358.137 492 363.328 C 492 372.547 484.551 380 475.328 380 Z"/><path d=" M 226 350 C 226 355.523 221.523 360 216 360 C 210.477 360 206 355.523 206 350 C 206 344.477 210.477 340 216 340 C 221.523 340 226 344.477 226 350 Z"/><path d=" M 441.211 341.902 L 261.867 211.902 C 258.367 209.367 253.633 209.367 250.133 211.902 L 70.7891 341.902 C 67.2813 344.445 65.8125 348.961 67.1484 353.086 C 68.4844 357.207 72.3242 360 76.6602 360 L 175.996 360 C 181.52 360 185.996 355.523 185.996 350 C 185.996 344.477 181.52 340 175.996 340 L 107.492 340 L 256 232.352 L 404.508 340 L 256 340 C 250.477 340 246 344.477 246 350 C 246 355.523 250.477 360 256 360 L 435.34 360 C 439.676 360 443.516 357.207 444.852 353.086 C 446.188 348.961 444.719 344.445 441.211 341.902 Z"/></svg>