<svg version="1.1" width="640" height="640" viewBox="0 0 480.011 480" xmlns="http://www.w3.org/2000/svg" xmlns:xlink="http://www.w3.org/1999/xlink" overflow="hidden"><g fill="#B39A7C"><path d=" M 101.449 416.004 L 88.25 472.004 L 8.01172 472.004 L 22.0117 416.004 Z"/><path d=" M 36.0117 360.004 L 114.57 360.004 L 101.449 416.004 L 22.0117 416.004 Z"/><path d=" M 125.852 312.004 L 114.57 360.004 L 36.0117 360.004 L 48.0117 312.004 Z"/><path d=" M 192.012 312.004 L 192.012 360.004 L 114.57 360.004 L 125.852 312.004 Z"/><path d=" M 192.012 360.004 L 192.012 416.004 L 101.449 416.004 L 114.57 360.004 Z"/><path d=" M 192.012 472.004 L 88.25 472.004 L 101.449 416.004 L 192.012 416.004 Z"/><path d=" M 192.012 416.004 L 288.012 416.004 L 288.012 472.004 L 192.012 472.004 Z"/><path d=" M 192.012 312.004 L 288.012 312.004 L 288.012 360.004 L 192.012 360.004 Z"/><path d=" M 192.012 360.004 L 288.012 360.004 L 288.012 416.004 L 192.012 416.004 Z"/><path d=" M 382.25 416.004 L 398.332 472.004 L 288.012 472.004 L 288.012 416.004 Z"/><path d=" M 366.172 360.004 L 288.012 360.004 L 288.012 312.004 L 352.332 312.004 Z"/><path d=" M 366.172 360.004 L 382.25 416.004 L 288.012 416.004 L 288.012 360.004 Z"/><path d=" M 458.012 416.004 L 472.012 472.004 L 398.332 472.004 L 382.25 416.004 Z"/><path d=" M 458.012 416.004 L 382.25 416.004 L 366.172 360.004 L 444.012 360.004 Z"/><path d=" M 432.012 312.004 L 444.012 360.004 L 366.172 360.004 L 352.332 312.004 Z"/></g><path d=" M 384.012 112.004 C 384.012 134.098 366.102 152.004 344.012 152.004 C 321.918 152.004 304.012 134.098 304.012 112.004 C 304.012 89.9141 321.918 72.0039 344.012 72.0039 C 366.102 72.0039 384.012 89.9141 384.012 112.004 Z" fill="#FFDA44"/><path d=" M 88.0117 248.004 C 43.8516 248.004 8.01172 203.207 8.01172 148.004 C 7.50391 120.363 17.3125 93.5234 35.5313 72.7266 C 43.3711 36.8867 63.8516 8.00391 88.0117 8.00391 C 112.172 8.00391 132.652 36.8867 140.492 72.7266 C 158.707 93.5234 168.52 120.363 168.012 148.004 C 168.012 203.207 132.172 248.004 88.0117 248.004 Z" fill="#5EAC24"/><path d=" M 479.77 470.063 L 439.77 310.063 C 438.879 306.504 435.68 304.004 432.012 304.004 L 96.0117 304.004 L 96.0117 255.508 C 140.813 250.527 176.012 204.246 176.012 148.004 C 176.402 119.117 166.414 91.0508 147.867 68.9023 C 138.211 27.5977 114.324 0.00390625 88.0117 0.00390625 C 61.6992 0.00390625 37.8125 27.5977 28.1563 68.9023 C 9.60547 91.0508 -0.378906 119.117 0.0117188 148.004 C 0.0117188 204.246 35.2109 250.527 80.0117 255.508 L 80.0117 304.004 L 48.0117 304.004 C 44.3398 304.004 41.1445 306.504 40.25 310.063 L 0.25 470.063 C -0.347656 472.453 0.1875 474.984 1.70313 476.926 C 3.21875 478.871 5.54688 480.004 8.01172 480.004 L 472.012 480.004 C 474.477 480.004 476.801 478.871 478.316 476.926 C 479.832 474.984 480.371 472.453 479.77 470.063 Z M 16.0117 148.004 C 15.5664 122.395 24.5859 97.5195 41.3477 78.1484 C 42.3242 77.0781 43.0078 75.7734 43.3242 74.3555 C 50.7695 40.543 69.5625 16.0039 88.0117 16.0039 C 106.461 16.0039 125.25 40.543 132.699 74.3555 C 133.016 75.7734 133.695 77.0781 134.676 78.1484 C 151.434 97.5195 160.457 122.395 160.012 148.004 C 160.012 195.277 131.953 234.293 96.0117 239.406 L 96.0117 204.805 L 116.395 194.719 C 120.348 192.754 121.969 187.961 120.012 184.004 C 118.051 180.047 113.25 178.43 109.293 180.391 L 96.0117 186.965 L 96.0117 136.004 C 96.0117 131.586 92.4297 128.004 88.0117 128.004 C 83.5938 128.004 80.0117 131.586 80.0117 136.004 L 80.0117 146.254 L 67.3008 135.207 C 63.9609 132.309 58.9063 132.668 56.0117 136.004 C 53.1133 139.344 53.4727 144.398 56.8125 147.293 L 80.0117 167.445 L 80.0117 239.445 C 44.0664 234.293 16.0117 195.277 16.0117 148.004 Z M 296.012 408.004 L 296.012 368.004 L 360.121 368.004 L 371.629 408.004 Z M 376.234 424.004 L 387.738 464.004 L 296.012 464.004 L 296.012 424.004 Z M 111.508 408.004 L 120.891 368.004 L 184.012 368.004 L 184.012 408.004 Z M 184.012 424.004 L 184.012 464.004 L 98.4102 464.004 L 107.797 424.004 Z M 95.0664 408.004 L 32.2578 408.004 L 42.2578 368.004 L 104.461 368.004 Z M 124.668 352.004 L 132.18 320.004 L 184.012 320.004 L 184.012 352.004 Z M 200.012 368.004 L 280.012 368.004 L 280.012 408.004 L 200.012 408.004 Z M 296.012 352.004 L 296.012 320.004 L 346.309 320.004 L 355.516 352.004 Z M 376.813 368.004 L 437.805 368.004 L 447.805 408.004 L 388.273 408.004 Z M 433.805 352.004 L 372.203 352.004 L 362.996 320.004 L 425.805 320.004 Z M 280.012 320.004 L 280.012 352.004 L 200.012 352.004 L 200.012 320.004 Z M 54.2578 320.004 L 115.715 320.004 L 108.211 352.004 L 46.2578 352.004 Z M 28.2578 424.004 L 91.3164 424.004 L 81.9297 464.004 L 18.2578 464.004 Z M 200.012 464.004 L 200.012 424.004 L 280.012 424.004 L 280.012 464.004 Z M 404.387 464.004 L 392.883 424.004 L 451.762 424.004 L 461.762 464.004 Z"/><path d=" M 344.012 160.004 C 370.52 160.004 392.012 138.516 392.012 112.004 C 392.012 85.4961 370.52 64.0039 344.012 64.0039 C 317.5 64.0039 296.012 85.4961 296.012 112.004 C 296.039 138.504 317.512 159.98 344.012 160.004 Z M 344.012 80.0039 C 361.684 80.0039 376.012 94.332 376.012 112.004 C 376.012 129.68 361.684 144.004 344.012 144.004 C 326.34 144.004 312.012 129.68 312.012 112.004 C 312.012 94.332 326.34 80.0039 344.012 80.0039 Z"/><path d=" M 336.012 32.0039 L 352.012 32.0039 L 352.012 48.0039 L 336.012 48.0039 Z"/><path d=" M 270.734 78.9297 L 278.734 65.0742 L 292.59 73.0742 L 284.59 86.9297 Z"/><path d=" M 270.734 145.07 L 284.59 137.07 L 292.59 150.93 L 278.734 158.926 Z"/><path d=" M 336.012 176.004 L 352.012 176.004 L 352.012 192.004 L 336.012 192.004 Z"/><path d=" M 395.441 150.938 L 403.441 137.082 L 417.297 145.082 L 409.297 158.938 Z"/><path d=" M 395.438 73.0742 L 409.297 65.0742 L 417.293 78.9336 L 403.438 86.9297 Z"/><path d=" M 216.012 328.004 L 232.012 328.004 L 232.012 344.004 L 216.012 344.004 Z"/><path d=" M 56.0117 376.004 L 72.0117 376.004 L 72.0117 392.004 L 56.0117 392.004 Z"/><path d=" M 144.012 440.004 L 160.012 440.004 L 160.012 456.004 L 144.012 456.004 Z"/><path d=" M 248.012 440.004 L 264.012 440.004 L 264.012 456.004 L 248.012 456.004 Z"/><path d=" M 400.012 384.004 L 416.012 384.004 L 416.012 400.004 L 400.012 400.004 Z"/></svg>