<svg version="1.1" viewBox="0 0 512.005 512.005" xmlns="http://www.w3.org/2000/svg" xmlns:xlink="http://www.w3.org/1999/xlink" id="Capa_1" overflow="hidden"><path d=" M 377.919 278.328 C 370.37 278.328 364.249 284.447 364.249 291.998 C 364.249 302.201 364.249 309.024 364.249 319.273 L 391.588 319.273 C 391.588 309.032 391.588 302.206 391.588 291.998 C 391.588 284.448 385.469 278.328 377.919 278.328 Z" fill="#666666"/><path d=" M 377.919 291.998 C 377.919 286.941 380.672 282.537 384.753 280.172 C 375.735 274.947 364.249 281.413 364.249 291.998 L 364.249 297.622 C 364.249 302.865 364.249 314.147 364.249 319.273 L 377.919 319.273 C 377.919 309.032 377.919 302.206 377.919 291.998 Z" fill="#535454"/><rect x="200.233" y="134.618" width="63.787" height="272.564" fill="#F94A46"/><rect x="200.233" y="134.618" width="24.395" height="272.564" fill="#E84242"/><path d=" M 276.174 461.165 L 188.085 461.165 L 188.085 403.009 C 188.085 396.326 193.552 390.858 200.236 390.858 L 264.023 390.858 C 270.706 390.858 276.174 396.325 276.174 403.009 L 276.174 461.165 Z" fill="#B6B6B7"/><path d=" M 226.568 390.858 L 200.237 390.858 C 193.554 390.858 188.086 396.325 188.086 403.009 L 188.086 461.165 L 214.417 461.165 L 214.417 403.009 C 214.417 396.326 219.884 390.858 226.568 390.858 Z" fill="#9E9E9E"/><path d=" M 358.69 494.163 L 356.024 480.353 C 354.374 471.803 347.422 465.278 338.786 464.175 L 276.175 456.167 L 232.13 456.167 L 232.13 456.167 L 188.086 456.167 L 125.475 464.175 C 116.838 465.28 109.886 471.804 108.236 480.353 L 105.571 494.163 C 104.536 499.525 108.645 504.503 114.106 504.503 C 147.707 504.503 316.186 504.503 350.155 504.503 C 355.617 504.502 359.725 499.525 358.69 494.163 Z" fill="#666666"/><path d=" M 201.804 476.03 C 203.387 467.829 208.061 460.82 214.531 456.165 L 188.086 456.165 L 125.475 464.173 C 116.838 465.278 109.885 471.802 108.236 480.351 L 105.571 494.162 C 104.536 499.524 108.645 504.502 114.106 504.502 C 127.09 504.502 160.215 504.502 197.932 504.502 C 196.259 498.991 198.344 496.344 201.804 476.03 Z" fill="#535454"/><path d=" M 264.024 150.948 L 200.236 150.948 C 193.553 150.948 188.085 145.481 188.085 138.797 L 188.085 130.445 C 188.085 123.762 193.552 118.294 200.236 118.294 L 264.024 118.294 C 270.706 118.294 276.175 123.761 276.175 130.445 L 276.175 138.797 C 276.175 145.48 270.707 150.948 264.024 150.948 Z" fill="#666666"/><path d=" M 213.916 138.797 L 213.916 130.445 C 213.916 123.762 219.384 118.294 226.067 118.294 L 200.236 118.294 C 193.553 118.294 188.085 123.761 188.085 130.445 L 188.085 138.797 C 188.085 145.48 193.552 150.948 200.236 150.948 L 226.067 150.948 C 219.384 150.948 213.916 145.48 213.916 138.797 Z" fill="#535454"/><path d=" M 417.223 346.301 L 351.728 346.301 C 346.561 346.301 342.334 342.073 342.334 336.907 L 342.334 313.648 L 417.224 313.648 C 422.257 313.648 426.373 317.766 426.373 322.797 L 426.373 337.152 C 426.372 342.184 422.254 346.301 417.223 346.301 Z" fill="#F94A46"/><path d=" M 377.919 336.907 L 377.919 313.648 L 342.333 313.648 L 342.333 336.907 C 342.333 342.074 346.561 346.301 351.728 346.301 L 387.314 346.301 C 382.146 346.301 377.919 342.074 377.919 336.907 Z" fill="#E84242"/><path d=" M 369.409 16.334 L 286.68 7.86 C 277.323 6.901 267.869 7.949 258.949 10.934 L 239.099 17.575 C 234.577 19.088 229.686 19.088 225.164 17.575 C 205.889 11.126 194.936 6.082 177.581 7.86 L 94.852 16.334 C 90.017 16.829 86.342 20.902 86.342 25.76 L 86.342 40.943 C 86.342 46.474 90.826 50.958 96.357 50.958 L 199.692 50.958 C 203.972 50.958 207.586 54.135 208.136 58.378 L 211.282 82.646 C 211.635 85.371 213.956 87.411 216.703 87.411 L 232.13 87.411 L 247.715 87.411 C 250.373 87.411 252.617 85.438 252.958 82.803 L 256.124 58.378 C 256.674 54.134 260.289 50.958 264.568 50.958 L 367.903 50.958 C 373.434 50.958 377.918 46.474 377.918 40.943 L 377.918 25.761 C 377.919 20.902 374.243 16.83 369.409 16.334 Z" fill="#666666"/><path d=" M 264.024 390.858 L 200.237 390.858 C 193.554 390.858 188.086 396.325 188.086 403.009 L 188.086 423.512 L 276.175 423.512 L 276.175 403.009 C 276.174 396.326 270.707 390.858 264.024 390.858 Z" fill="#CCCCCC"/><path d=" M 226.568 390.858 L 200.237 390.858 C 193.554 390.858 188.086 396.325 188.086 403.009 L 188.086 423.512 L 214.417 423.512 L 214.417 403.009 C 214.417 396.326 219.884 390.858 226.568 390.858 Z" fill="#B6B6B7"/><path d=" M 205.313 10.934 C 196.393 7.949 186.939 6.901 177.582 7.86 L 94.853 16.334 C 90.018 16.83 86.343 20.902 86.343 25.761 L 86.343 40.944 C 86.343 46.475 90.827 50.959 96.358 50.959 L 199.693 50.959 C 203.973 50.959 207.587 54.136 208.137 58.379 L 211.283 82.647 C 211.636 85.372 213.957 87.412 216.704 87.412 C 226.254 87.412 222.58 87.412 232.131 87.412 L 232.131 66.556 C 232.13 30.916 206.65 12.734 205.313 10.934 Z" fill="#535454"/><path d=" M 224.276 177.964 L 224.276 363.601 C 224.276 367.744 227.634 371.1 231.775 371.1 C 235.917 371.1 239.274 367.743 239.274 363.601 L 239.274 177.964 C 239.274 173.821 235.916 170.465 231.775 170.465 C 227.634 170.465 224.276 173.823 224.276 177.964 Z"/><path d=" M 341.979 291.021 C 337.836 291.021 334.48 294.378 334.48 298.52 C 334.48 311.674 334.48 323.499 334.48 336.908 C 334.48 346.222 342.058 353.801 351.374 353.801 L 416.869 353.801 C 426.049 353.801 433.517 346.333 433.517 337.154 L 433.517 322.8 C 433.517 313.62 426.048 306.152 416.869 306.152 L 398.734 306.152 L 398.734 292.001 C 398.734 282.972 393.042 275.266 385.064 272.23 L 385.064 148.263 C 385.064 127.574 368.233 110.744 347.544 110.744 C 327.755 110.744 311.654 126.844 311.654 146.634 L 311.654 411.6 C 311.654 422.249 302.99 430.913 292.34 430.913 L 283.319 430.913 C 283.319 424.299 283.319 409.617 283.319 403.008 C 283.319 394.829 278.292 387.806 271.169 384.852 L 271.169 363.8 C 271.169 359.657 267.812 356.301 263.67 356.301 C 259.527 356.301 256.171 359.658 256.171 363.8 L 256.171 383.357 L 207.383 383.357 L 207.383 158.447 L 256.171 158.447 L 256.171 328.804 C 256.171 332.946 259.528 336.303 263.67 336.303 C 267.813 336.303 271.169 332.945 271.169 328.804 L 271.169 156.952 C 278.293 153.998 283.32 146.976 283.32 138.797 L 283.32 130.445 C 283.32 119.61 274.505 110.795 263.67 110.795 L 239.275 110.795 L 239.275 94.911 L 252.006 94.911 C 255.775 94.911 258.959 92.113 259.443 88.376 L 263.207 59.344 C 263.272 58.839 263.705 58.459 264.214 58.459 L 309.194 58.459 C 313.337 58.459 316.693 55.102 316.693 50.96 C 316.693 46.818 313.336 43.461 309.194 43.461 L 264.214 43.461 C 256.192 43.461 249.363 49.46 248.333 57.417 L 245.416 79.914 L 218.135 79.914 L 215.219 57.417 C 214.188 49.461 207.361 43.461 199.338 43.461 L 96.002 43.461 C 94.615 43.461 93.486 42.332 93.486 40.945 L 93.486 25.761 C 93.486 24.743 94.249 23.898 95.261 23.794 C 174.638 17.074 182.646 11.379 202.579 18.045 C 217.744 22.083 227.086 29.385 241.122 24.686 C 256.396 20.36 267.111 13.432 285.56 15.32 L 368.29 23.795 C 369.302 23.899 370.064 24.744 370.064 25.762 L 370.064 40.945 C 370.064 42.332 368.935 43.461 367.548 43.461 L 344.19 43.461 C 340.047 43.461 336.691 46.818 336.691 50.96 C 336.691 55.102 340.048 58.459 344.19 58.459 L 367.549 58.459 C 377.206 58.459 385.063 50.603 385.063 40.945 L 385.063 25.761 C 385.063 17.024 378.509 9.763 369.818 8.874 L 287.088 0.399 C 256.63 -2.718 238.948 14.397 227.188 10.463 C 212.415 6.374 199 -1.909 176.463 0.399 L 93.733 8.875 C 85.042 9.765 78.487 17.024 78.487 25.762 L 78.487 40.945 C 78.487 50.602 86.344 58.459 96.001 58.459 C 204.581 58.855 200.121 57.625 200.344 59.344 L 204.108 88.376 C 204.593 92.114 207.776 94.911 211.545 94.911 L 224.276 94.911 L 224.276 110.796 L 199.881 110.796 C 189.046 110.796 180.231 119.611 180.231 130.446 L 180.231 138.798 C 180.231 146.977 185.258 154 192.382 156.953 L 192.382 384.854 C 185.258 387.809 180.231 394.83 180.231 403.01 C 180.231 412.756 180.231 439.828 180.231 449.566 L 124.168 456.737 C 112.29 458.256 102.785 467.175 100.516 478.933 L 97.851 492.742 C 95.921 502.74 103.586 512.003 113.75 512.003 L 145.208 512.003 C 149.35 512.003 152.707 508.646 152.707 504.504 C 152.707 500.362 149.349 497.005 145.208 497.005 L 113.75 497.005 C 112.997 497.005 112.435 496.324 112.578 495.585 L 115.243 481.775 C 116.282 476.394 120.632 472.31 126.071 471.615 L 188.209 463.667 L 275.342 463.667 L 337.48 471.615 C 342.916 472.31 347.268 476.394 348.307 481.775 L 350.972 495.587 C 351.527 498.459 357.073 496.304 180.206 497.006 C 176.064 497.006 172.707 500.363 172.707 504.505 C 172.707 508.647 176.065 512.004 180.206 512.004 L 349.8 512.004 C 359.98 512.004 367.625 502.723 365.698 492.744 L 363.033 478.934 C 360.763 467.176 351.259 458.256 339.381 456.738 L 283.318 449.567 L 283.318 445.916 L 292.339 445.916 C 311.259 445.916 326.652 430.523 326.652 411.604 L 326.652 146.633 C 326.652 135.114 336.023 125.742 347.543 125.742 C 359.962 125.742 370.064 135.845 370.064 148.263 L 370.064 272.226 C 362.088 275.263 356.394 282.968 356.394 291.997 L 356.394 306.148 L 349.477 306.148 L 349.477 298.519 C 349.478 294.377 346.121 291.021 341.979 291.021 Z M 195.23 130.446 C 195.23 127.925 197.36 125.794 199.882 125.794 L 263.67 125.794 C 266.191 125.794 268.322 127.925 268.322 130.446 L 268.322 138.798 C 268.322 141.319 266.191 143.449 263.67 143.449 C 255.555 143.449 207.408 143.449 199.882 143.449 C 197.361 143.449 195.23 141.319 195.23 138.798 L 195.23 130.446 L 195.23 130.446 Z M 268.321 448.666 L 195.231 448.666 L 195.231 431.01 L 268.321 431.01 L 268.321 448.666 Z M 268.321 416.012 L 195.231 416.012 L 195.231 403.008 C 195.231 400.488 197.358 398.36 199.877 398.356 C 201.458 398.356 264.488 398.357 263.677 398.356 C 266.196 398.36 268.322 400.488 268.322 403.008 L 268.321 416.012 L 268.321 416.012 Z M 371.394 291.998 C 371.394 288.596 374.163 285.828 377.564 285.828 C 380.965 285.828 383.734 288.597 383.734 291.998 L 383.734 306.149 L 371.393 306.149 L 371.394 291.998 L 371.394 291.998 Z M 416.868 321.147 C 417.763 321.147 418.518 321.903 418.518 322.797 L 418.518 337.152 C 418.518 338.047 417.762 338.801 416.868 338.801 L 351.373 338.801 C 350.346 338.801 349.477 337.934 349.477 336.906 L 349.477 321.145 C 373.58 321.147 393.074 321.147 416.868 321.147 Z"/><g></g><g></g><g></g><g></g><g></g><g></g><g></g><g></g><g></g><g></g><g></g><g></g><g></g><g></g><g></g></svg>