<svg version="1.1" width="674.667" height="674.667" viewBox="0 -1 506.944 506" xmlns="http://www.w3.org/2000/svg" xmlns:xlink="http://www.w3.org/1999/xlink" overflow="hidden"><path d=" M 380.984 358.457 C 379.313 358.457 377.793 357.484 377.098 355.969 C 376.402 354.449 376.656 352.664 377.75 351.398 L 387.816 339.734 L 368.91 350.648 C 367.027 351.742 364.625 351.242 363.332 349.492 C 362.039 347.738 362.273 345.297 363.875 343.82 L 382.543 326.523 L 366.98 335.512 C 365.078 336.602 362.66 336.07 361.387 334.285 C 360.109 332.504 360.398 330.043 362.047 328.598 L 378.66 314.09 L 378.082 314.426 C 376.242 315.488 373.902 315.035 372.59 313.363 C 371.281 311.691 371.398 309.309 372.867 307.777 L 392.18 287.699 L 383.262 292.816 C 381.398 293.906 379.016 293.434 377.707 291.715 C 376.402 289.992 376.59 287.57 378.141 286.066 L 389.84 274.676 L 384.602 277.688 C 382.723 278.75 380.344 278.238 379.066 276.5 C 377.785 274.762 378.008 272.34 379.582 270.863 L 386.898 264.137 L 385.762 264.793 C 383.879 265.902 381.461 265.41 380.164 263.652 C 378.863 261.895 379.105 259.441 380.719 257.969 L 388.816 250.441 L 386.965 251.508 C 385.121 252.57 382.777 252.113 381.469 250.438 C 380.16 248.758 380.289 246.371 381.77 244.844 L 394.203 232.043 L 388.406 235.379 C 386.563 236.445 384.219 235.988 382.91 234.309 C 381.602 232.629 381.73 230.242 383.211 228.715 L 391.02 220.703 L 387.563 222.691 C 385.809 223.695 383.59 223.328 382.25 221.816 C 380.91 220.301 380.816 218.055 382.023 216.438 L 393.887 200.699 L 382.629 207.195 C 380.879 208.211 378.652 207.852 377.305 206.34 C 376.035 204.848 375.945 202.676 377.094 201.086 L 387.664 186.895 L 376.129 193.551 C 374.293 194.598 371.965 194.145 370.66 192.484 C 369.352 190.824 369.457 188.457 370.906 186.918 L 374.848 182.789 L 371.332 184.813 C 369.535 185.852 367.25 185.449 365.918 183.855 C 364.59 182.262 364.598 179.945 365.938 178.359 L 372.227 170.945 L 366.449 174.273 C 364.684 175.297 362.438 174.922 361.094 173.379 C 359.754 171.836 359.695 169.559 360.957 167.949 L 365.445 162.23 C 363.793 161.766 362.582 160.359 362.367 158.656 C 362.152 156.957 362.977 155.293 364.461 154.434 L 378.191 146.516 C 379.961 145.492 382.207 145.867 383.547 147.41 C 384.891 148.953 384.949 151.227 383.688 152.836 L 381.332 155.832 L 389.227 151.277 C 391.023 150.234 393.309 150.637 394.637 152.23 C 395.969 153.824 395.961 156.145 394.621 157.727 L 388.34 165.133 L 396.242 160.578 C 398.074 159.527 400.402 159.98 401.711 161.641 C 403.016 163.301 402.914 165.668 401.465 167.207 L 397.504 171.363 L 401.309 169.172 C 403.063 168.152 405.285 168.508 406.633 170.02 C 407.984 171.531 408.082 173.781 406.875 175.406 L 396.293 189.598 L 407.805 182.961 C 409.559 181.945 411.785 182.309 413.129 183.824 C 414.473 185.34 414.566 187.594 413.352 189.215 L 401.488 204.949 L 413.434 198.039 C 415.277 196.973 417.625 197.434 418.934 199.109 C 420.242 200.789 420.113 203.176 418.633 204.703 L 410.816 212.723 L 416.559 209.414 C 418.402 208.348 420.746 208.805 422.055 210.484 C 423.363 212.164 423.238 214.551 421.754 216.078 L 409.348 228.879 L 417.18 224.355 C 419.063 223.246 421.48 223.738 422.781 225.496 C 424.078 227.254 423.84 229.707 422.227 231.184 L 414.082 238.734 L 416.148 237.555 C 418.027 236.492 420.406 237.004 421.684 238.746 C 422.965 240.484 422.742 242.906 421.168 244.383 L 413.879 251.09 L 415.141 250.355 C 417.008 249.266 419.391 249.742 420.695 251.461 C 422 253.18 421.813 255.605 420.262 257.105 L 408.59 268.414 L 414.008 265.281 C 415.848 264.219 418.191 264.672 419.5 266.348 C 420.813 268.023 420.688 270.406 419.211 271.938 L 399.902 292.016 L 412.48 284.762 C 414.379 283.691 416.777 284.227 418.047 286 C 419.313 287.773 419.039 290.215 417.41 291.664 L 400.789 306.172 L 411.27 300.121 C 413.148 299.031 415.555 299.527 416.844 301.281 C 418.137 303.031 417.902 305.473 416.301 306.949 L 397.641 324.219 L 405.398 319.742 C 407.199 318.703 409.488 319.113 410.813 320.715 C 412.141 322.316 412.121 324.641 410.766 326.219 L 396.871 342.313 C 398.273 343.016 399.18 344.43 399.227 346 C 399.273 347.566 398.453 349.035 397.094 349.82 L 383.117 357.895 C 382.469 358.27 381.73 358.465 380.984 358.457 Z" fill="#5EC3E7"/><path d=" M 126.059 358.68 C 124.402 358.676 122.895 357.719 122.195 356.215 C 121.496 354.715 121.727 352.941 122.789 351.672 L 123.688 350.598 L 117.867 353.961 C 116.137 354.969 113.938 354.637 112.578 353.168 C 111.223 351.695 111.07 349.477 112.219 347.832 L 121.605 334.352 L 108.762 341.758 C 107.02 342.754 104.82 342.402 103.477 340.914 C 102.129 339.426 102.004 337.199 103.172 335.57 L 113.559 321.184 L 101.465 328.172 C 99.668 329.211 97.3828 328.805 96.0508 327.211 C 94.7227 325.613 94.7344 323.293 96.082 321.711 L 106.434 309.52 L 95.8516 315.617 C 93.9727 316.641 91.6289 316.113 90.3711 314.387 C 89.1094 312.664 89.3164 310.273 90.8594 308.793 L 93.5195 306.367 C 91.75 306.652 89.9922 305.801 89.1211 304.238 C 88.2461 302.672 88.4414 300.73 89.6133 299.371 L 103.699 283.004 L 93.6758 288.789 C 91.8203 289.82 89.4922 289.332 88.207 287.648 C 86.9219 285.961 87.0703 283.59 88.5547 282.074 L 96.0703 274.582 L 92.7266 276.512 C 90.8477 277.559 88.4844 277.043 87.2109 275.309 C 85.9375 273.574 86.1563 271.164 87.7188 269.684 L 90.3633 267.285 C 88.8359 267.461 87.3281 266.813 86.4023 265.578 C 85.1094 263.84 85.3281 261.406 86.9063 259.922 L 90.7734 256.285 C 88.9141 257.125 86.7227 256.527 85.543 254.867 C 84.3633 253.203 84.5234 250.938 85.9258 249.461 L 96.8828 238.094 L 90.0547 242.055 C 88.1758 243.129 85.7852 242.625 84.5 240.879 C 83.2148 239.133 83.4414 236.703 85.0313 235.227 L 94.7656 226.273 L 89.0742 229.559 C 87.1953 230.609 84.832 230.094 83.5586 228.359 C 82.2852 226.621 82.5039 224.211 84.0664 222.734 L 106.5 202.254 L 91.5 210.906 C 89.6328 211.957 87.2773 211.461 85.9922 209.75 C 84.707 208.035 84.8906 205.637 86.4219 204.141 L 111.551 180.059 L 100.176 186.629 C 98.3828 187.66 96.1094 187.254 94.7813 185.668 C 93.4531 184.082 93.4531 181.77 94.7852 180.188 L 109.77 162.395 C 108.281 161.758 107.281 160.34 107.188 158.723 C 107.09 157.109 107.914 155.582 109.316 154.773 L 123.32 146.691 C 125.113 145.652 127.398 146.051 128.73 147.641 C 130.063 149.23 130.059 151.551 128.723 153.137 L 116.969 167.078 L 138.148 154.859 C 140.02 153.809 142.375 154.305 143.66 156.023 C 144.941 157.738 144.754 160.141 143.219 161.637 L 118.012 185.723 L 136.297 175.117 C 138.176 174.07 140.543 174.586 141.816 176.32 C 143.09 178.055 142.871 180.465 141.309 181.945 L 118.883 202.383 L 123.848 199.516 C 125.73 198.438 128.117 198.941 129.402 200.688 C 130.688 202.434 130.461 204.863 128.875 206.34 L 119.078 215.344 C 120.945 214.449 123.184 215.023 124.387 216.703 C 125.594 218.387 125.422 220.688 123.977 222.172 L 113.07 233.512 L 118.191 230.551 C 120.074 229.422 122.504 229.91 123.813 231.672 C 125.117 233.438 124.871 235.906 123.242 237.375 L 119.402 240.988 C 121.313 240.039 123.629 240.652 124.824 242.418 C 126.023 244.18 125.734 246.559 124.148 247.984 L 121.586 250.332 C 123.109 250.133 124.621 250.758 125.563 251.969 C 126.863 253.668 126.703 256.07 125.188 257.582 L 117.68 265.066 L 121.145 263.07 C 122.941 262.043 125.219 262.457 126.543 264.051 C 127.867 265.645 127.852 267.961 126.512 269.539 L 112.465 285.898 L 122.703 280 C 124.582 278.969 126.938 279.488 128.203 281.219 C 129.469 282.949 129.258 285.348 127.707 286.828 L 125.035 289.258 C 126.801 288.969 128.559 289.813 129.438 291.371 C 130.32 292.926 130.133 294.867 128.977 296.23 L 118.617 308.426 L 126.613 303.809 C 128.355 302.805 130.563 303.152 131.91 304.648 C 133.258 306.141 133.379 308.375 132.203 310.004 L 121.793 324.398 L 133.875 317.43 C 135.605 316.43 137.797 316.762 139.148 318.23 C 140.504 319.703 140.656 321.914 139.516 323.555 L 130.129 337.047 L 140.301 331.176 C 142.094 330.156 144.359 330.566 145.684 332.148 C 147.004 333.73 147.008 336.035 145.684 337.617 L 141.496 342.629 C 142.961 343.277 143.938 344.699 144.023 346.301 C 144.109 347.906 143.285 349.418 141.895 350.223 L 128.199 358.113 C 127.551 358.492 126.809 358.688 126.059 358.68 Z" fill="#5EC3E7"/><path d=" M 317.965 308.211 C 316.035 308.211 314.344 306.914 313.844 305.051 C 313.344 303.184 314.16 301.215 315.832 300.25 L 413.027 244.137 C 414.922 243.043 417.336 243.559 418.617 245.328 C 419.898 247.102 419.633 249.555 418 251.012 L 386.785 278.934 L 413.086 263.754 C 414.957 262.609 417.395 263.07 418.715 264.82 C 420.039 266.57 419.82 269.039 418.207 270.527 L 406.32 281.895 L 413.145 277.961 C 414.621 277.105 416.465 277.211 417.832 278.23 C 419.203 279.25 419.832 280.988 419.434 282.645 L 416.234 296.043 C 417.969 296.406 419.293 297.805 419.57 299.551 C 419.848 301.301 419.016 303.039 417.48 303.918 L 412.266 306.922 C 410.789 307.777 408.945 307.672 407.578 306.652 C 406.211 305.633 405.578 303.898 405.977 302.238 L 408.828 290.293 L 380.027 306.898 C 378.16 307.965 375.789 307.473 374.5 305.75 C 373.211 304.027 373.402 301.617 374.949 300.121 L 386.813 288.738 L 355.367 306.898 C 353.492 307.891 351.168 307.355 349.918 305.641 C 348.668 303.926 348.871 301.551 350.391 300.07 L 381.598 272.148 L 320.098 307.648 C 319.449 308.02 318.711 308.215 317.965 308.211 Z" fill="#CAD0D6"/><path d=" M 226.07 384.5 C 224.234 384.5 222.602 383.324 222.02 381.582 C 221.441 379.84 222.039 377.922 223.508 376.82 L 234.723 368.465 L 212.926 381.043 C 210.949 382.18 208.426 381.559 207.203 379.633 C 205.98 377.707 206.484 375.16 208.355 373.852 L 216.691 368.031 L 212.926 370.199 C 210.938 371.281 208.445 370.617 207.258 368.691 C 206.066 366.762 206.594 364.238 208.457 362.945 L 288.313 310.516 L 212.918 354.035 C 210.926 355.168 208.395 354.527 207.184 352.578 C 205.977 350.629 206.523 348.074 208.422 346.793 L 284.703 295.934 L 212.918 337.379 C 210.938 338.512 208.41 337.883 207.191 335.949 C 205.973 334.02 206.492 331.469 208.371 330.168 L 284.359 277.883 L 209.727 320.969 C 207.723 322.09 205.191 321.422 204 319.461 C 202.809 317.5 203.383 314.945 205.301 313.684 L 207.859 312.063 L 204.582 313.945 C 202.59 315.102 200.043 314.465 198.824 312.512 C 197.605 310.559 198.156 307.992 200.066 306.711 L 250.348 272.824 L 190.219 307.539 C 188.227 308.672 185.695 308.027 184.484 306.078 C 183.277 304.133 183.824 301.574 185.723 300.293 L 231.453 269.754 L 167.02 306.977 C 165.023 308.09 162.508 307.438 161.305 305.492 C 160.105 303.551 160.648 301.004 162.539 299.723 L 202.926 273.27 L 144.371 307.07 C 142.383 308.203 139.855 307.566 138.641 305.625 C 137.426 303.684 137.961 301.133 139.848 299.84 L 211.691 251.262 L 114.871 307.152 C 112.887 308.289 110.363 307.656 109.145 305.727 C 107.926 303.793 108.445 301.246 110.324 299.941 L 198.559 239.355 L 93.4609 300.02 C 91.4766 301.152 88.9531 300.523 87.7344 298.594 C 86.5156 296.66 87.0352 294.109 88.9141 292.809 L 173.469 234.672 L 93.4609 280.863 C 91.4805 282.016 88.9375 281.395 87.7109 279.461 C 86.4844 277.523 87.0078 274.961 88.8945 273.66 L 148.109 232.656 L 93.4961 264.23 C 91.5273 265.305 89.0664 264.672 87.8594 262.785 C 86.6523 260.898 87.1094 258.402 88.9023 257.063 L 117.824 236.652 L 93.4609 250.664 C 92 251.508 90.1797 251.41 88.8164 250.418 C 87.4492 249.426 86.8008 247.723 87.1563 246.074 L 89.8516 233.41 C 88.3086 232.832 87.2344 231.418 87.0938 229.777 C 86.957 228.137 87.7734 226.559 89.1953 225.73 L 93.4609 223.27 C 94.9219 222.422 96.7461 222.516 98.1133 223.508 C 99.4805 224.504 100.133 226.211 99.7773 227.863 L 97.5039 238.504 L 194.785 182.328 C 196.758 181.219 199.25 181.844 200.469 183.75 C 201.688 185.652 201.207 188.18 199.375 189.504 L 170.434 209.906 L 233.758 173.352 C 235.738 172.234 238.246 172.863 239.461 174.785 C 240.676 176.707 240.172 179.242 238.313 180.555 L 179.137 221.512 L 263 173.105 C 264.98 171.984 267.488 172.617 268.703 174.539 C 269.922 176.457 269.414 178.996 267.559 180.305 L 182.969 238.469 L 289.215 177.191 C 291.199 176.059 293.723 176.688 294.941 178.621 C 296.16 180.551 295.641 183.102 293.766 184.402 L 205.527 244.945 L 311.395 183.832 C 313.379 182.715 315.891 183.352 317.098 185.281 C 318.309 187.211 317.793 189.746 315.926 191.051 L 244.066 239.688 L 328.59 190.844 C 330.578 189.762 333.07 190.422 334.262 192.352 C 335.449 194.281 334.922 196.805 333.059 198.098 L 292.723 224.551 L 340.398 197.031 C 342.391 195.898 344.926 196.543 346.133 198.488 C 347.344 200.438 346.797 202.992 344.895 204.277 L 299.234 234.773 L 352.465 204.055 C 354.449 202.953 356.949 203.602 358.152 205.527 C 359.352 207.453 358.84 209.98 356.98 211.281 L 306.633 245.211 L 364.754 211.648 C 366.762 210.473 369.344 211.121 370.555 213.109 C 371.766 215.102 371.156 217.691 369.191 218.938 L 366.715 220.516 L 373.543 216.563 C 375.523 215.445 378.031 216.078 379.246 218 C 380.461 219.918 379.957 222.457 378.098 223.766 L 302.074 276.059 L 395.09 222.383 C 397.082 221.25 399.613 221.895 400.824 223.844 C 402.031 225.789 401.484 228.344 399.586 229.629 L 323.324 280.445 L 412.973 228.68 C 414.973 227.547 417.512 228.195 418.715 230.152 C 419.922 232.109 419.359 234.672 417.445 235.941 L 302.953 311.164 C 303.453 311.488 303.875 311.918 304.191 312.418 C 305.422 314.348 304.91 316.906 303.031 318.215 L 294.227 324.355 C 296.219 323.566 298.492 324.379 299.531 326.258 C 300.57 328.137 300.051 330.496 298.32 331.766 L 287.125 340.102 L 293.543 336.406 C 295.355 335.371 297.648 335.797 298.969 337.414 C 300.285 339.035 300.238 341.371 298.859 342.934 L 280.758 363.219 L 293.637 355.785 C 295.137 354.918 297.008 355.047 298.379 356.105 C 299.75 357.164 300.344 358.945 299.883 360.617 L 296.578 372.504 C 298.355 372.801 299.754 374.188 300.07 375.961 C 300.387 377.734 299.551 379.516 297.988 380.414 L 292.176 383.758 C 290.676 384.621 288.805 384.492 287.438 383.43 C 286.066 382.367 285.477 380.586 285.938 378.918 L 288.867 368.391 L 262.09 383.844 C 260.273 384.891 257.965 384.465 256.645 382.84 C 255.324 381.215 255.375 378.871 256.773 377.305 L 274.863 357.016 L 228.203 383.93 C 227.555 384.305 226.82 384.504 226.07 384.5 Z" fill="#CAD0D6"/><path d=" M 215.453 469.883 C 213.594 469.883 211.949 468.676 211.391 466.902 C 210.832 465.129 211.484 463.199 213.004 462.129 L 223.363 454.848 L 204.395 465.762 C 202.438 466.875 199.957 466.277 198.719 464.398 C 197.484 462.516 197.922 460 199.719 458.645 L 241.531 427.695 L 204.41 449.113 C 202.477 450.203 200.031 449.625 198.789 447.789 C 197.543 445.953 197.914 443.469 199.641 442.074 L 246.184 405.449 L 204.41 429.555 C 202.496 430.637 200.078 430.086 198.816 428.281 C 197.559 426.48 197.875 424.02 199.547 422.594 L 226 400.543 L 204.41 413 C 202.574 414.051 200.246 413.594 198.941 411.934 C 197.633 410.27 197.742 407.898 199.199 406.363 L 214.25 390.637 L 204.41 396.309 C 202.777 397.273 200.703 397.047 199.32 395.746 C 197.938 394.449 197.578 392.395 198.438 390.703 L 202.891 381.828 C 200.973 381.797 199.309 380.484 198.828 378.625 C 198.352 376.766 199.176 374.813 200.844 373.859 L 210.469 368.313 C 212.105 367.344 214.184 367.574 215.566 368.875 C 216.953 370.176 217.309 372.234 216.445 373.926 L 212.492 381.797 L 235.848 368.313 C 237.684 367.262 240.012 367.719 241.32 369.383 C 242.625 371.047 242.516 373.414 241.063 374.953 L 226.02 390.688 L 264.742 368.34 C 266.656 367.258 269.078 367.809 270.336 369.609 C 271.594 371.414 271.277 373.875 269.605 375.301 L 243.152 397.352 L 293.422 368.34 C 295.355 367.25 297.801 367.828 299.047 369.664 C 300.293 371.5 299.922 373.984 298.191 375.379 L 251.637 412.02 L 302.043 382.93 C 303.996 381.816 306.48 382.414 307.715 384.297 C 308.953 386.176 308.516 388.691 306.719 390.047 L 264.965 420.973 L 302.094 399.535 C 304.066 398.414 306.574 399.039 307.797 400.953 C 309.016 402.867 308.523 405.402 306.676 406.723 L 296.297 414.008 L 302.117 410.656 C 304.078 409.52 306.586 410.117 307.824 412.016 C 309.063 413.914 308.605 416.449 306.777 417.789 L 300.078 422.695 L 302.145 421.5 C 304.027 420.336 306.492 420.805 307.813 422.586 C 309.137 424.363 308.875 426.859 307.211 428.328 L 290.957 443.688 L 302.195 437.195 C 303.852 436.234 305.945 436.496 307.313 437.832 C 308.684 439.172 308.996 441.258 308.074 442.938 L 301.957 454.098 L 302.246 453.938 C 303.57 453.094 305.246 453.047 306.613 453.813 C 307.984 454.574 308.824 456.027 308.801 457.594 C 308.781 459.16 307.902 460.59 306.512 461.316 L 293.031 469.098 C 291.375 470.059 289.281 469.797 287.91 468.461 C 286.535 467.117 286.227 465.02 287.16 463.34 L 293.262 452.188 L 263.863 469.16 C 261.977 470.324 259.516 469.855 258.191 468.074 C 256.871 466.293 257.133 463.801 258.793 462.332 L 275.066 446.922 L 236.488 469.195 C 234.527 470.328 232.02 469.73 230.781 467.832 C 229.543 465.934 230.004 463.398 231.828 462.059 L 238.504 457.172 L 217.586 469.246 C 216.945 469.648 216.211 469.867 215.453 469.883 Z" fill="#AAB0BA"/><path d=" M 40.3242 316.285 C 38.4883 316.285 36.8555 315.109 36.2773 313.367 C 35.6953 311.625 36.293 309.707 37.7656 308.605 L 44.1133 303.75 L 41.3555 305.344 C 39.4102 306.469 36.9219 305.891 35.6719 304.02 C 34.4258 302.148 34.8438 299.629 36.6289 298.262 L 44.5742 292.188 L 40.3828 294.602 C 38.4883 295.695 36.0742 295.18 34.793 293.406 C 33.5117 291.637 33.7773 289.18 35.4102 287.723 L 65.4727 260.945 L 38.6836 276.375 C 36.7266 277.496 34.2344 276.898 32.9961 275.012 C 31.7578 273.121 32.207 270.598 34.0195 269.25 L 36.9375 267.09 C 35.0195 267.676 32.9531 266.844 31.9688 265.098 C 30.9883 263.348 31.3594 261.152 32.8555 259.82 L 51.3594 243.52 L 36.457 252.105 C 34.7188 253.113 32.5117 252.77 31.1602 251.281 C 29.8086 249.793 29.6797 247.563 30.8516 245.926 L 40.8359 231.957 L 34.9297 235.371 C 33.4609 236.219 31.6289 236.113 30.2617 235.105 C 28.8984 234.098 28.2617 232.375 28.6406 230.723 L 30.0508 224.637 C 28.5938 223.977 27.6289 222.559 27.5508 220.961 C 27.4727 219.367 28.293 217.859 29.6758 217.059 L 33.7266 214.723 C 35.1992 213.867 37.0352 213.969 38.4023 214.98 C 39.7695 215.988 40.4063 217.715 40.0234 219.371 L 39.1719 223.066 L 53.6797 214.711 C 55.4141 213.723 57.6094 214.07 58.9531 215.551 C 60.2969 217.031 60.4297 219.25 59.2773 220.883 L 49.2578 234.859 L 84.1602 214.711 C 86.0547 213.648 88.4453 214.176 89.7148 215.941 C 90.9805 217.707 90.7227 220.141 89.1094 221.598 L 70.6094 237.898 L 97.0625 222.613 C 99.0195 221.492 101.516 222.09 102.75 223.977 C 103.988 225.867 103.539 228.391 101.73 229.738 L 98.3164 232.301 C 100 231.914 101.754 232.566 102.781 233.953 C 104.063 235.727 103.797 238.18 102.164 239.637 L 72.1289 266.398 L 97.2227 251.891 C 99.1719 250.789 101.637 251.379 102.875 253.238 C 104.117 255.102 103.707 257.602 101.941 258.977 L 94.0313 265.035 L 97.2227 263.191 C 99.1719 262.09 101.637 262.676 102.875 264.539 C 104.117 266.398 103.707 268.902 101.941 270.273 L 95.5703 275.145 L 97.2227 274.191 C 99.1367 273.098 101.566 273.641 102.832 275.441 C 104.098 277.246 103.785 279.719 102.105 281.145 L 98.043 284.559 C 99.8789 283.961 101.883 284.672 102.938 286.285 C 103.988 287.902 103.828 290.023 102.539 291.461 L 98.8359 295.602 C 100.535 295.379 102.199 296.207 103.043 297.699 C 104.223 299.738 103.527 302.348 101.492 303.527 L 80.832 315.508 C 79.0195 316.543 76.7227 316.117 75.4063 314.5 C 74.0859 312.879 74.1328 310.543 75.5156 308.98 L 78.4766 305.652 L 61.2031 315.602 C 59.2773 316.801 56.7461 316.277 55.4531 314.41 C 54.1563 312.547 54.5469 309.996 56.3398 308.605 L 59.9844 305.523 L 42.4336 315.688 C 41.793 316.07 41.0664 316.277 40.3242 316.285 Z" fill="#AAB0BA"/><path d=" M 420.738 316.039 C 418.918 316.043 417.293 314.887 416.699 313.164 C 416.102 311.441 416.668 309.531 418.102 308.41 L 419.809 307.051 L 411.047 312.113 C 409.086 313.234 406.594 312.637 405.355 310.746 C 404.121 308.859 404.566 306.336 406.379 304.988 L 408.16 303.664 C 406.18 304.195 404.102 303.246 403.211 301.398 C 402.32 299.551 402.867 297.332 404.52 296.113 L 407.617 293.844 C 406.035 294.09 404.453 293.406 403.555 292.086 C 402.277 290.285 402.586 287.809 404.262 286.375 L 435.836 259.301 L 409.152 274.703 C 407.258 275.793 404.848 275.277 403.566 273.512 C 402.285 271.742 402.543 269.293 404.168 267.832 L 432.645 242.23 L 409.152 255.793 C 407.25 256.852 404.852 256.309 403.594 254.531 C 402.332 252.758 402.613 250.316 404.246 248.871 L 411.07 242.828 L 409.238 243.887 C 407.621 244.813 405.59 244.578 404.223 243.313 C 402.855 242.047 402.465 240.043 403.262 238.359 L 408.102 228.195 C 406.484 228.316 404.941 227.488 404.152 226.07 C 402.973 224.031 403.672 221.422 405.711 220.242 L 415.34 214.738 C 416.957 213.813 418.984 214.047 420.352 215.313 C 421.719 216.578 422.109 218.582 421.313 220.266 L 416.824 229.715 L 442.977 214.609 C 444.875 213.512 447.293 214.031 448.574 215.809 C 449.855 217.586 449.582 220.043 447.945 221.496 L 441.117 227.539 L 463.695 214.508 C 465.574 213.5 467.906 214.031 469.16 215.75 C 470.414 217.473 470.211 219.855 468.68 221.336 L 440.203 246.934 L 471.402 228.93 C 473.309 227.832 475.738 228.363 477.012 230.156 C 478.285 231.953 477.984 234.422 476.316 235.859 L 444.746 262.926 L 469.68 248.539 C 471.633 247.465 474.086 248.078 475.305 249.945 C 476.523 251.813 476.102 254.305 474.328 255.664 L 470.531 258.453 C 472.102 258.262 473.637 259.008 474.449 260.367 C 475.688 262.258 475.234 264.789 473.418 266.133 L 469.617 268.926 C 471.156 268.781 472.641 269.5 473.484 270.793 C 474.742 272.648 474.352 275.16 472.59 276.543 L 468.629 279.641 C 470.063 279.535 471.461 280.137 472.367 281.254 C 473.68 282.922 473.566 285.301 472.102 286.836 L 465.965 293.289 C 467.586 292.5 469.523 292.809 470.816 294.066 C 472.105 295.324 472.465 297.254 471.719 298.895 L 469.023 304.797 C 469.648 305.172 470.172 305.699 470.531 306.336 C 471.102 307.316 471.254 308.48 470.961 309.578 C 470.668 310.672 469.953 311.605 468.969 312.172 L 463.277 315.441 C 461.676 316.332 459.68 316.098 458.324 314.859 C 456.969 313.621 456.559 311.656 457.305 309.977 L 458.449 307.496 L 444.609 315.43 C 442.773 316.492 440.434 316.047 439.121 314.379 C 437.809 312.715 437.918 310.34 439.375 308.801 L 445.504 302.367 L 422.875 315.43 C 422.23 315.82 421.492 316.031 420.738 316.039 Z" fill="#AAB0BA"/><path d=" M 243.359 280.316 C 241.578 280.316 239.988 279.219 239.359 277.555 C 238.734 275.891 239.203 274.012 240.543 272.84 L 251.063 263.59 L 233.996 273.438 C 232.113 274.531 229.711 274.031 228.418 272.281 C 227.129 270.531 227.363 268.086 228.961 266.613 L 250.176 246.926 L 224.926 261.5 C 223.043 262.629 220.609 262.141 219.305 260.379 C 218 258.613 218.246 256.145 219.875 254.676 L 239.152 236.66 L 221.563 246.805 C 219.762 247.844 217.477 247.438 216.148 245.84 C 214.82 244.242 214.836 241.918 216.188 240.34 L 228.133 226.41 C 226.094 226.773 224.09 225.621 223.379 223.676 C 222.668 221.73 223.457 219.555 225.25 218.52 L 244.961 207.133 C 246.762 206.094 249.047 206.504 250.375 208.102 C 251.707 209.699 251.688 212.023 250.336 213.602 L 238.902 226.949 L 267.156 210.641 C 269.039 209.516 271.473 210 272.777 211.766 C 274.082 213.531 273.836 215.996 272.207 217.469 L 252.914 235.5 L 278.711 220.609 C 280.594 219.516 282.996 220.016 284.289 221.766 C 285.578 223.516 285.348 225.961 283.746 227.434 L 262.539 247.164 L 284.086 234.723 C 285.984 233.641 288.395 234.164 289.668 235.941 C 290.941 237.715 290.672 240.168 289.035 241.617 L 278.508 250.832 L 283.703 247.84 C 285.027 246.996 286.703 246.949 288.07 247.715 C 289.441 248.477 290.281 249.93 290.258 251.496 C 290.238 253.063 289.359 254.492 287.969 255.219 L 245.523 279.746 C 244.867 280.129 244.117 280.328 243.359 280.316 Z" fill="#5EC3E7"/><path d=" M 402.195 397.121 C 400.359 397.121 398.73 395.945 398.148 394.203 C 397.57 392.461 398.168 390.543 399.637 389.441 L 423.02 372.281 C 421.063 372.68 419.09 371.672 418.273 369.848 C 417.453 368.027 418.008 365.883 419.605 364.688 L 433.855 354.055 C 431.98 354.199 430.234 353.105 429.547 351.355 C 428.863 349.605 429.402 347.613 430.879 346.449 L 446.238 334.266 L 443.813 335.664 C 441.906 336.762 439.477 336.23 438.203 334.434 C 436.93 332.641 437.23 330.172 438.898 328.734 L 460.555 310.133 L 451.441 315.387 C 449.52 316.488 447.074 315.93 445.816 314.105 C 444.559 312.285 444.902 309.801 446.613 308.391 L 455.676 300.957 L 454.898 301.41 C 453.004 302.508 450.582 301.992 449.301 300.215 C 448.02 298.438 448.293 295.977 449.934 294.523 L 465.684 280.617 L 458.348 284.883 C 456.465 285.973 454.063 285.473 452.773 283.723 C 451.484 281.965 451.723 279.52 453.328 278.047 L 467.641 264.949 L 459.582 269.598 C 457.734 270.617 455.418 270.125 454.137 268.449 C 452.855 266.77 452.996 264.406 454.465 262.891 L 472.078 245.297 L 460.395 252.039 C 458.57 253.098 456.25 252.668 454.926 251.023 C 453.605 249.383 453.68 247.02 455.105 245.465 L 474.141 224.566 L 458.859 233.332 C 457.02 234.422 454.656 233.98 453.332 232.301 C 452.008 230.617 452.137 228.219 453.629 226.684 L 467.391 212.641 L 456.965 218.656 C 455.086 219.66 452.758 219.129 451.5 217.41 C 450.246 215.691 450.449 213.309 451.98 211.828 L 456.758 207.563 L 454.523 208.84 C 452.672 209.91 450.316 209.441 449.012 207.75 C 447.707 206.059 447.855 203.66 449.359 202.145 L 460.691 190.715 L 451.375 196.102 C 449.5 197.094 447.18 196.559 445.93 194.844 C 444.68 193.129 444.879 190.754 446.398 189.273 L 448.805 187.133 L 448.492 187.305 C 446.641 188.375 444.285 187.91 442.977 186.219 C 441.668 184.531 441.813 182.137 443.313 180.613 L 452.773 171.031 L 443.789 176.211 C 441.992 177.238 439.715 176.828 438.391 175.234 C 437.066 173.645 437.074 171.332 438.414 169.75 L 452.305 153.469 L 437.723 161.891 C 435.84 162.953 433.465 162.441 432.184 160.703 C 430.906 158.961 431.129 156.543 432.703 155.063 L 435.094 152.879 L 432.918 154.133 C 431.035 155.211 428.645 154.707 427.359 152.961 C 426.074 151.215 426.305 148.785 427.891 147.309 L 430.707 144.746 L 428.02 146.293 C 426.141 147.313 423.801 146.785 422.539 145.063 C 421.277 143.336 421.484 140.945 423.027 139.465 L 424.383 138.246 L 423.359 138.832 C 421.516 139.898 419.168 139.438 417.859 137.758 C 416.551 136.074 416.684 133.688 418.172 132.16 L 426.422 123.672 L 416.277 129.523 C 414.473 130.563 412.18 130.145 410.855 128.539 C 409.535 126.93 409.563 124.602 410.926 123.031 L 421.781 110.578 L 407.273 118.969 C 405.434 120.031 403.094 119.578 401.781 117.906 C 400.473 116.234 400.59 113.855 402.059 112.32 L 410.227 103.789 L 399.355 110.051 C 397.547 111.09 395.254 110.668 393.934 109.055 C 392.613 107.441 392.648 105.109 394.023 103.539 L 404.246 91.7461 L 388.621 100.758 C 386.781 101.797 384.461 101.332 383.164 99.6719 C 381.863 98.0078 381.973 95.6445 383.422 94.1094 L 391.488 85.7305 L 379.301 92.7695 C 377.484 93.8203 375.176 93.3906 373.855 91.7617 C 372.535 90.1328 372.594 87.7852 373.996 86.2266 L 384.234 74.8516 L 367.297 84.6211 C 365.512 85.6445 363.25 85.25 361.918 83.6797 C 360.59 82.1094 360.566 79.8164 361.867 78.2227 L 373.617 63.9297 L 353.047 75.7813 C 351.285 76.7891 349.055 76.418 347.719 74.8906 C 346.379 73.3633 346.301 71.1055 347.531 69.4922 L 360.266 52.9219 L 335.074 67.4688 C 333.18 68.5625 330.766 68.0469 329.484 66.2773 C 328.199 64.5039 328.469 62.0469 330.098 60.5938 L 332.949 58.0313 L 324.414 62.9453 C 322.641 63.9766 320.383 63.5938 319.043 62.0391 C 317.703 60.4805 317.664 58.1914 318.945 56.5898 L 332.273 39.9414 L 302.93 56.8711 C 301.152 57.8984 298.895 57.5117 297.555 55.957 C 296.219 54.3984 296.18 52.1055 297.469 50.5039 L 311.699 32.6953 L 277.566 52.4258 C 275.738 53.4844 273.406 53.0469 272.09 51.3906 C 270.773 49.7344 270.867 47.3672 272.313 45.8203 L 286.816 30.2813 L 250.977 50.9844 C 249.098 52.0156 246.746 51.4961 245.48 49.7656 C 244.211 48.0352 244.426 45.6367 245.977 44.1563 L 259.074 32.3047 L 222.691 53.3125 C 220.758 54.4453 218.281 53.8945 217.016 52.0508 C 215.746 50.207 216.117 47.6953 217.867 46.2969 L 228.543 37.6797 L 180.602 65.3516 C 178.578 66.4141 176.074 65.6875 174.934 63.707 C 173.789 61.7266 174.406 59.1992 176.336 57.9727 L 271.516 3.00781 C 273.445 1.90625 275.895 2.46094 277.156 4.29297 C 278.414 6.12109 278.059 8.60938 276.34 10.0156 L 265.656 18.6602 L 289.496 4.89453 C 291.375 3.85938 293.73 4.38281 294.996 6.11328 C 296.262 7.83984 296.051 10.2422 294.496 11.7227 L 281.406 23.5898 L 307.453 8.55469 C 309.285 7.48047 311.625 7.91797 312.949 9.58203 C 314.27 11.2461 314.168 13.625 312.707 15.168 L 298.203 30.6992 L 327.035 14.0352 C 328.813 13.0039 331.07 13.3867 332.406 14.9453 C 333.746 16.5 333.789 18.7891 332.504 20.3906 L 318.262 38.1992 L 347.617 21.2539 C 349.395 20.2266 351.652 20.6055 352.988 22.1641 C 354.328 23.7188 354.371 26.0078 353.086 27.6094 L 339.766 44.2656 L 364.754 29.8477 C 366.645 28.7734 369.039 29.293 370.316 31.0547 C 371.59 32.8164 371.34 35.2539 369.727 36.7148 L 366.867 39.2773 L 374.625 34.8125 C 376.387 33.8047 378.613 34.1758 379.953 35.7031 C 381.289 37.2305 381.367 39.4883 380.137 41.1016 L 367.406 57.6563 L 389.738 44.7891 C 391.523 43.7656 393.785 44.1602 395.113 45.7305 C 396.445 47.3008 396.469 49.5938 395.164 51.1875 L 383.391 65.4727 L 403.129 54.082 C 404.945 53.0352 407.254 53.4609 408.574 55.0898 C 409.895 56.7188 409.836 59.0664 408.434 60.625 L 398.273 72 L 413.52 63.2031 C 415.359 62.1523 417.691 62.6094 418.996 64.2773 C 420.301 65.9453 420.188 68.3164 418.727 69.8516 L 410.645 78.2305 L 422.695 71.2773 C 424.504 70.2266 426.809 70.6484 428.133 72.2656 C 429.457 73.8867 429.414 76.2266 428.027 77.7969 L 417.727 89.4414 L 431.969 81.2266 C 433.809 80.1641 436.148 80.6172 437.461 82.2852 C 438.773 83.957 438.652 86.3398 437.184 87.8711 L 429.027 96.4063 L 439.691 90.2539 C 441.496 89.2148 443.789 89.6328 445.113 91.2383 C 446.438 92.8477 446.406 95.1758 445.043 96.7461 L 434.207 109.188 L 448.711 100.793 C 450.555 99.7305 452.902 100.188 454.211 101.863 C 455.52 103.543 455.391 105.93 453.91 107.457 L 445.664 115.988 L 455.172 110.496 C 457.051 109.477 459.391 110 460.652 111.727 C 461.914 113.449 461.703 115.84 460.164 117.32 L 458.789 118.551 L 459.832 117.961 C 461.711 116.883 464.102 117.391 465.387 119.133 C 466.672 120.879 466.445 123.313 464.855 124.789 L 462.059 127.348 L 464.711 125.82 C 466.594 124.758 468.969 125.27 470.25 127.008 C 471.527 128.75 471.305 131.168 469.73 132.648 L 467.348 134.824 L 469.535 133.57 C 471.332 132.551 473.598 132.965 474.918 134.555 C 476.238 136.145 476.23 138.449 474.902 140.027 L 461 156.328 L 475.832 147.793 C 477.68 146.727 480.031 147.191 481.34 148.879 C 482.645 150.57 482.5 152.965 481.004 154.484 L 471.555 164.059 L 480.523 158.887 C 482.414 157.813 484.813 158.332 486.086 160.094 C 487.363 161.855 487.109 164.297 485.5 165.758 L 483.102 167.891 L 484.09 167.328 C 485.938 166.324 488.242 166.813 489.52 168.484 C 490.797 170.156 490.664 172.508 489.211 174.027 L 477.871 185.461 L 487.684 179.793 C 489.559 178.785 491.891 179.316 493.148 181.039 C 494.402 182.758 494.199 185.141 492.668 186.621 L 487.914 190.887 L 490.125 189.605 C 491.969 188.555 494.305 189.02 495.609 190.699 C 496.91 192.375 496.781 194.754 495.305 196.281 L 481.559 210.359 L 493.547 203.441 C 495.367 202.379 497.691 202.809 499.016 204.453 C 500.336 206.094 500.262 208.457 498.836 210.012 L 479.816 230.898 L 495.859 221.641 C 497.707 220.625 500.023 221.113 501.305 222.793 C 502.586 224.469 502.445 226.832 500.98 228.348 L 483.375 245.945 L 497.148 237.992 C 499.027 236.93 501.406 237.441 502.684 239.18 C 503.961 240.918 503.738 243.34 502.164 244.816 L 487.871 257.918 L 497.762 252.207 C 499.66 251.109 502.078 251.629 503.359 253.406 C 504.641 255.184 504.367 257.641 502.727 259.094 L 487.063 273.02 L 496.762 267.414 C 498.688 266.316 501.133 266.871 502.391 268.695 C 503.648 270.52 503.305 273.004 501.594 274.41 L 492.504 281.859 L 495.918 279.891 C 497.828 278.773 500.273 279.297 501.555 281.102 C 502.832 282.902 502.523 285.387 500.844 286.82 L 479.191 305.414 L 492.598 297.672 C 494.535 296.566 496.996 297.133 498.25 298.98 C 499.504 300.824 499.121 303.324 497.379 304.715 L 482.02 316.906 L 489.605 312.531 C 491.559 311.426 494.031 312.023 495.266 313.898 C 496.5 315.77 496.07 318.277 494.289 319.637 L 482.957 328.102 L 484.816 327.027 C 486.777 325.895 489.285 326.492 490.523 328.391 C 491.762 330.285 491.301 332.82 489.477 334.16 L 467.723 350.109 L 479.074 343.559 C 481.113 342.398 483.703 343.102 484.879 345.133 C 486.051 347.164 485.363 349.762 483.34 350.945 L 404.332 396.539 C 403.684 396.922 402.945 397.121 402.195 397.121 Z" fill="#767D84"/><path d=" M 250.125 503.301 C 248.324 503.305 246.715 502.18 246.105 500.484 C 245.492 498.793 246.008 496.898 247.395 495.75 L 269.008 477.828 L 228.594 501.152 C 226.727 502.277 224.309 501.809 222.992 500.07 C 221.676 498.328 221.883 495.875 223.477 494.383 L 240.992 477.566 L 206.434 497.523 C 204.621 498.57 202.313 498.148 200.988 496.52 C 199.668 494.895 199.723 492.551 201.117 490.988 L 216.871 473.398 L 184.266 492.227 C 182.355 493.313 179.93 492.773 178.664 490.973 C 177.398 489.176 177.707 486.711 179.375 485.277 L 182.676 482.48 L 172.727 488.215 C 170.961 489.219 168.734 488.84 167.398 487.309 C 166.066 485.777 165.996 483.52 167.23 481.906 L 181.125 463.988 L 152.836 480.313 C 151.004 481.371 148.672 480.93 147.355 479.273 C 146.039 477.613 146.141 475.242 147.59 473.699 L 158.484 462.094 L 138.953 473.367 C 137.176 474.383 134.926 473.992 133.594 472.438 C 132.262 470.883 132.223 468.602 133.5 467 L 145.848 451.641 L 123.66 464.441 C 121.902 465.453 119.676 465.09 118.336 463.57 C 116.992 462.051 116.902 459.797 118.121 458.176 L 130.844 441.332 L 108.523 454.219 C 106.707 455.266 104.398 454.836 103.078 453.207 C 101.758 451.582 101.813 449.234 103.215 447.672 L 113.258 436.484 L 97.625 445.504 C 95.7422 446.598 93.3398 446.098 92.0469 444.348 C 90.7578 442.598 90.9922 440.152 92.5898 438.68 L 95.7813 435.707 L 90.1758 438.941 C 88.3164 440 85.9609 439.52 84.668 437.816 C 83.375 436.117 83.5391 433.719 85.0547 432.211 L 91.0703 426.363 L 81.8984 431.664 C 80.0195 432.695 77.668 432.176 76.3984 430.445 C 75.1328 428.719 75.3477 426.316 76.8984 424.836 L 78.375 423.508 L 75.8125 424.957 C 73.9883 426.004 71.6719 425.563 70.3594 423.918 C 69.043 422.277 69.125 419.918 70.5508 418.367 L 79.9375 408.129 L 67.5469 415.27 C 65.7773 416.297 63.5313 415.922 62.1914 414.383 C 60.8477 412.844 60.7852 410.566 62.043 408.957 L 74.7734 392.555 L 56.9375 402.863 C 55.0781 403.938 52.707 403.461 51.4102 401.75 C 50.1094 400.039 50.2852 397.629 51.8164 396.121 L 58.0391 390.031 L 51.2109 393.98 C 49.332 395.043 46.957 394.531 45.6758 392.793 C 44.3984 391.051 44.6211 388.633 46.1953 387.152 L 48.8828 384.688 L 46.3242 386.148 C 44.4688 387.23 42.1016 386.766 40.7891 385.066 C 39.4805 383.363 39.6406 380.953 41.1602 379.441 L 48.8398 371.762 L 40.4453 376.598 C 38.6016 377.66 36.2539 377.203 34.9453 375.527 C 33.6367 373.848 33.7656 371.461 35.2461 369.934 L 44.3945 360.547 L 34.625 366.18 C 32.7305 367.273 30.3164 366.758 29.0313 364.984 C 27.75 363.211 28.0156 360.758 29.6484 359.301 L 31.3398 357.707 L 31.0469 357.867 C 29.2383 358.918 26.9375 358.5 25.6094 356.883 C 24.2852 355.266 24.3242 352.926 25.707 351.355 L 39.0703 336.16 L 25.2383 344.145 C 23.4102 345.207 21.082 344.77 19.7617 343.117 C 18.4453 341.465 18.5313 339.098 19.9727 337.551 L 33.1992 323.281 L 20.1758 330.793 C 18.3359 331.84 16.0039 331.383 14.6992 329.711 C 13.3945 328.039 13.5156 325.668 14.9805 324.137 L 27.875 310.816 L 16.832 317.188 C 14.9609 318.316 12.5469 317.848 11.2266 316.109 C 9.91016 314.367 10.1211 311.914 11.7109 310.422 L 21.6172 300.926 L 13.9375 305.379 C 12.1133 306.426 9.80078 305.988 8.48438 304.348 C 7.16797 302.707 7.24609 300.352 8.66406 298.801 L 26.7578 279.07 L 10.9766 288.184 C 9.14844 289.234 6.82422 288.785 5.51563 287.129 C 4.20313 285.477 4.30078 283.113 5.73828 281.57 L 25.7734 260.238 L 9.48438 269.625 C 7.60156 270.77 5.15234 270.293 3.83984 268.52 C 2.52734 266.746 2.78125 264.266 4.42578 262.797 L 20.7305 247.387 L 8.47656 254.453 C 6.57813 255.539 4.16406 255.012 2.89063 253.23 C 1.61719 251.453 1.89453 248.996 3.53516 247.547 L 17.2344 235.559 L 9.44922 240.047 C 7.51563 241.156 5.05078 240.586 3.80078 238.742 C 2.54688 236.895 2.92578 234.398 4.67188 233.008 L 8.64844 229.867 C 7.06641 230.059 5.50391 229.387 4.55078 228.109 C 3.27734 226.309 3.58594 223.836 5.26172 222.402 L 23.793 206.527 L 12.5664 213.098 C 10.6563 214.168 8.25391 213.621 6.99219 211.836 C 5.73438 210.047 6.02734 207.598 7.67578 206.16 L 32.1484 185.367 L 16.3633 194.48 C 14.4414 195.594 11.9844 195.043 10.7188 193.219 C 9.45313 191.395 9.79688 188.902 11.5156 187.492 L 48.3008 157.105 L 23.8281 171.219 C 21.8633 172.328 19.3672 171.715 18.1445 169.816 C 16.918 167.918 17.3867 165.391 19.2109 164.059 L 45.2305 145.438 L 30.8438 153.734 C 28.8398 154.805 26.3516 154.117 25.1797 152.176 C 24.0078 150.23 24.5625 147.711 26.4414 146.438 L 71.5469 117.969 L 39.5039 136.469 C 37.5117 137.57 35.0039 136.906 33.8125 134.969 C 32.6172 133.027 33.1602 130.492 35.043 129.207 L 99.5273 86.9766 L 54.4648 112.996 C 52.4766 114.109 49.9609 113.465 48.7539 111.527 C 47.5508 109.594 48.0781 107.051 49.957 105.758 L 87.8281 80.3789 L 75.0273 87.7773 C 73.0547 88.8984 70.5469 88.2773 69.3281 86.3633 C 68.1055 84.4492 68.5977 81.9141 70.4453 80.5938 L 100.68 59.4297 C 99.6797 58.5195 99.1719 57.1875 99.3125 55.8398 C 99.4531 54.4922 100.223 53.293 101.387 52.6055 L 153.492 22.5156 C 155.469 21.3594 158.008 21.9727 159.242 23.9023 C 160.473 25.832 159.965 28.3906 158.082 29.6992 L 155.422 31.5625 L 194.582 8.90625 C 196.57 7.78906 199.086 8.4375 200.289 10.3711 C 201.496 12.3086 200.965 14.8477 199.086 16.1406 L 161.215 41.5117 L 226.922 3.58203 C 228.918 2.48047 231.422 3.14453 232.617 5.08203 C 233.809 7.02344 233.266 9.55859 231.387 10.8438 L 166.934 53.0391 L 255.465 1.93359 C 257.477 0.808594 260.016 1.48047 261.207 3.45313 C 262.395 5.42578 261.805 7.98828 259.871 9.23828 L 122.441 95.9531 C 123.52 97.8555 122.988 100.266 121.211 101.535 L 90.3555 123.629 C 92.1523 123.633 93.7539 124.766 94.3594 126.461 C 94.9609 128.156 94.4414 130.047 93.0508 131.188 L 56.2461 161.594 L 68.6797 154.414 C 70.5898 153.328 73.0156 153.867 74.2813 155.668 C 75.5469 157.465 75.2383 159.93 73.5703 161.363 L 49.1055 182.148 L 59.4805 176.176 C 61.3906 175.074 63.8242 175.605 65.0977 177.406 C 66.3711 179.207 66.0625 181.68 64.3867 183.113 L 45.8438 198.953 L 53.5859 194.488 C 55.5195 193.379 57.9844 193.949 59.2344 195.793 C 60.4883 197.641 60.1094 200.141 58.3633 201.527 L 52.8086 205.914 C 54.5742 205.938 56.1445 207.047 56.7539 208.703 C 57.3672 210.363 56.8945 212.227 55.5664 213.391 L 41.8672 225.406 L 47.918 221.906 C 49.8047 220.738 52.2656 221.211 53.5898 222.992 C 54.9102 224.77 54.6484 227.266 52.9883 228.734 L 36.6797 244.117 L 46.5859 238.402 C 48.418 237.352 50.7422 237.801 52.0508 239.453 C 53.3633 241.109 53.2656 243.473 51.8281 245.016 L 31.8086 266.348 L 46.5039 257.855 C 48.3281 256.797 50.6523 257.23 51.9727 258.875 C 53.293 260.52 53.2148 262.883 51.7852 264.438 L 33.6953 284.156 L 47.9688 275.922 C 49.8438 274.777 52.2773 275.238 53.6016 276.988 C 54.9258 278.738 54.7031 281.211 53.0898 282.699 L 43.1836 292.117 L 50.0078 288.176 C 51.8516 287.113 54.1953 287.566 55.5039 289.242 C 56.8125 290.918 56.6914 293.301 55.2148 294.832 L 42.3125 308.16 L 53.4063 301.777 C 55.2305 300.73 57.5469 301.172 58.8633 302.816 C 60.1758 304.461 60.0938 306.816 58.6719 308.367 L 45.418 322.633 L 57.2617 315.809 C 59.0703 314.758 61.375 315.176 62.6992 316.793 C 64.0273 318.41 63.9844 320.75 62.6055 322.316 L 49.2578 337.508 L 63.0898 329.527 C 64.9648 328.535 67.2891 329.07 68.5391 330.785 C 69.7891 332.5 69.5859 334.875 68.0664 336.355 L 66.3242 337.961 L 66.6055 337.797 C 68.4531 336.734 70.8008 337.191 72.1055 338.875 C 73.4141 340.555 73.2813 342.945 71.793 344.469 L 62.6133 353.898 L 72.1602 348.395 C 74.0078 347.391 76.3125 347.883 77.5898 349.555 C 78.8672 351.223 78.7344 353.574 77.2813 355.094 L 69.6445 362.773 L 78.0508 357.938 C 79.9297 356.887 82.293 357.402 83.5664 359.137 C 84.8398 360.875 84.6211 363.285 83.0586 364.762 L 80.3867 367.219 L 82.9492 365.762 C 84.8086 364.688 87.1797 365.164 88.4766 366.875 C 89.7773 368.586 89.6016 370.996 88.0664 372.504 L 81.8555 378.594 L 89.3242 374.328 C 91.0859 373.313 93.3242 373.688 94.6641 375.223 C 96.0039 376.754 96.0703 379.023 94.8281 380.633 L 82.1016 397.02 L 100.023 386.703 C 101.848 385.668 104.152 386.109 105.461 387.746 C 106.773 389.383 106.699 391.73 105.289 393.281 L 95.9023 403.52 L 108.785 396.078 C 110.664 395.047 113.02 395.566 114.285 397.297 C 115.551 399.027 115.34 401.426 113.789 402.906 L 112.32 404.238 L 115.914 402.164 C 117.773 401.09 120.141 401.57 121.441 403.281 C 122.742 404.992 122.566 407.402 121.031 408.906 L 115.059 414.793 L 124.367 409.418 C 126.25 408.34 128.641 408.844 129.926 410.59 C 131.211 412.336 130.98 414.77 129.395 416.242 L 126.203 419.215 L 132.305 415.688 C 134.121 414.641 136.43 415.07 137.75 416.699 C 139.07 418.328 139.012 420.672 137.613 422.234 L 127.543 433.449 L 144.832 423.473 C 146.59 422.461 148.816 422.824 150.156 424.344 C 151.5 425.863 151.59 428.117 150.371 429.734 L 137.648 446.578 L 161.387 432.875 C 163.164 431.848 165.422 432.234 166.758 433.793 C 168.098 435.352 168.133 437.641 166.848 439.242 L 154.508 454.602 L 179.051 440.359 C 180.879 439.313 183.199 439.758 184.512 441.406 C 185.824 443.059 185.734 445.418 184.297 446.965 L 173.402 458.621 L 195.699 445.754 C 197.465 444.746 199.691 445.125 201.027 446.656 C 202.359 448.188 202.43 450.449 201.195 452.059 L 187.313 469.977 L 219.539 451.367 C 221.453 450.254 223.902 450.793 225.176 452.602 C 226.449 454.414 226.125 456.898 224.43 458.32 L 221.121 461.121 L 235.746 452.672 C 237.563 451.625 239.871 452.055 241.191 453.68 C 242.512 455.309 242.453 457.656 241.055 459.219 L 225.301 476.789 L 267.215 452.598 C 269.086 451.469 271.504 451.938 272.82 453.676 C 274.137 455.418 273.93 457.871 272.336 459.363 L 254.836 476.148 L 308.289 445.301 C 310.211 444.172 312.676 444.711 313.949 446.539 C 315.223 448.367 314.875 450.867 313.152 452.281 L 291.555 470.199 L 466.309 369.293 C 468.309 368.223 470.801 368.91 471.973 370.852 C 473.145 372.797 472.59 375.316 470.711 376.59 L 455.906 385.934 C 457.91 384.984 460.309 385.73 461.422 387.648 C 462.535 389.566 461.992 392.02 460.172 393.289 L 404.047 431.484 L 433.258 414.641 C 435.227 413.543 437.707 414.168 438.926 416.063 C 440.141 417.961 439.676 420.477 437.859 421.809 L 405.363 444.848 C 405.848 445.199 406.254 445.648 406.551 446.172 C 407.723 448.211 407.023 450.813 404.988 451.988 L 352.934 482.055 C 350.965 483.148 348.484 482.527 347.266 480.629 C 346.051 478.734 346.52 476.219 348.336 474.887 L 358.891 467.383 L 308.621 496.398 C 306.641 497.473 304.168 496.824 302.973 494.918 C 301.773 493.012 302.262 490.504 304.09 489.188 L 360.18 451 L 272.738 501.527 C 270.734 502.629 268.215 501.953 267.031 499.996 C 265.848 498.039 266.418 495.492 268.324 494.23 L 282.832 485.098 L 252.301 502.73 C 251.641 503.113 250.887 503.313 250.125 503.301 Z" fill="#767D84"/><path d=" M 76.9648 429.777 C 75.2422 429.781 73.6875 428.746 73.0234 427.156 C 72.3555 425.566 72.7148 423.73 73.9297 422.508 L 81.4805 414.887 L 71.6836 420.543 C 69.8789 421.582 67.5859 421.164 66.2617 419.555 C 64.9414 417.941 64.9727 415.613 66.3438 414.043 L 77.4961 401.301 L 62.5625 409.922 C 60.7344 410.98 58.4102 410.547 57.0898 408.898 C 55.7695 407.25 55.8555 404.883 57.2891 403.332 L 67.1797 392.563 L 54.4805 399.91 C 52.6797 400.949 50.3945 400.543 49.0664 398.945 C 47.7383 397.344 47.7539 395.023 49.1055 393.441 L 61.6914 378.723 L 46.6992 387.359 C 44.8828 388.395 42.5859 387.965 41.2695 386.344 C 39.9531 384.723 40.0039 382.387 41.3906 380.82 L 52.8867 367.973 L 39.4688 375.711 C 37.6094 376.785 35.2422 376.305 33.9414 374.594 C 32.6406 372.883 32.8164 370.473 34.3516 368.969 L 41.5781 361.914 L 34.2305 366.18 C 32.3633 367.285 29.9648 366.816 28.6523 365.086 C 27.3438 363.355 27.5391 360.918 29.1094 359.422 L 36.5781 352.203 L 29.9297 356.043 C 28.0625 357.168 25.6445 356.699 24.3281 354.961 C 23.0117 353.219 23.2188 350.766 24.8086 349.273 L 32.125 342.234 L 25.6563 345.973 C 23.7695 347.117 21.3242 346.641 20.0117 344.867 C 18.6992 343.094 18.9492 340.613 20.5938 339.145 L 27.4219 332.711 L 21.5 336.125 C 19.6797 337.172 17.3711 336.742 16.0508 335.109 C 14.7305 333.48 14.7969 331.129 16.1992 329.57 L 31.6445 312.563 L 17.3789 320.797 C 15.5313 321.801 13.2266 321.313 11.9492 319.641 C 10.6758 317.969 10.8047 315.617 12.2578 314.102 L 24.957 301.301 L 14.1445 307.547 C 12.2617 308.633 9.85938 308.129 8.57031 306.379 C 7.28125 304.621 7.51953 302.176 9.125 300.703 L 17.8047 292.766 L 11.4219 296.453 C 9.55469 297.559 7.15625 297.09 5.84375 295.359 C 4.53516 293.629 4.73047 291.191 6.30078 289.695 L 20.3984 276.086 L 10.1602 281.973 C 8.28125 282.98 5.94922 282.449 4.69531 280.727 C 3.44141 279.008 3.64453 276.625 5.17578 275.145 L 15.9766 265.469 L 9.20313 269.352 C 7.32422 270.414 4.94531 269.902 3.66797 268.164 C 2.38672 266.422 2.60938 264.004 4.18359 262.523 L 18.75 249.16 L 8.17188 255.27 C 6.23828 256.387 3.77344 255.828 2.51172 253.988 C 1.25391 252.145 1.625 249.645 3.36719 248.25 L 7.63281 244.836 C 6 245.16 4.32422 244.492 3.36719 243.129 C 2.07422 241.336 2.36328 238.859 4.03125 237.41 L 18.3672 225.113 L 9.90234 229.996 C 7.98047 231.109 5.52344 230.563 4.25781 228.734 C 2.99219 226.91 3.33984 224.418 5.05469 223.008 L 18.7109 211.777 L 11.8125 215.754 C 9.86719 216.879 7.37891 216.297 6.13281 214.426 C 4.88281 212.559 5.30078 210.039 7.08594 208.672 L 12.9648 204.184 C 11.0313 204.551 9.09375 203.543 8.28125 201.746 C 7.47266 199.949 7.99609 197.832 9.55469 196.621 L 22.4023 186.688 L 17.2227 189.684 C 15.2734 190.801 12.7891 190.215 11.5469 188.336 C 10.3047 186.461 10.7305 183.945 12.5234 182.586 L 30.0742 169.348 L 22.8203 173.531 C 20.8945 174.605 18.4609 174.031 17.2188 172.207 C 15.9727 170.383 16.3281 167.91 18.0352 166.508 L 56.8711 135.566 L 32.6602 149.492 C 30.75 150.566 28.332 150.02 27.0742 148.223 C 25.8164 146.426 26.125 143.969 27.7891 142.539 L 53.3867 121.086 L 45.6563 125.539 C 43.75 126.625 41.3281 126.082 40.0625 124.289 C 38.7969 122.496 39.0977 120.035 40.7578 118.602 L 54.7969 106.656 C 54.125 106.355 53.5391 105.891 53.0898 105.305 C 51.7891 103.613 51.9414 101.215 53.4492 99.6992 L 69.6172 83.4023 C 69.3008 81.6289 70.1289 79.8438 71.6914 78.9453 L 77.6641 75.5352 C 79.5156 74.5156 81.832 75.0078 83.1133 76.6836 C 84.3945 78.3633 84.2539 80.7227 82.7852 82.2422 L 81.9336 83.0938 L 84.0313 81.8828 C 85.9414 80.7734 88.3828 81.3086 89.6563 83.1172 C 90.9297 84.9219 90.6133 87.3984 88.9297 88.8281 L 81.9336 94.8008 L 91.4883 89.2969 C 93.4023 88.2227 95.8164 88.7734 97.0742 90.5703 C 98.3359 92.3633 98.0273 94.8242 96.3633 96.2539 L 70.7617 117.695 L 101.969 99.6758 C 103.902 98.5508 106.379 99.1094 107.637 100.961 C 108.898 102.809 108.516 105.316 106.766 106.707 L 67.9453 137.598 L 85.9531 127.195 C 87.9023 126.078 90.3867 126.664 91.6289 128.539 C 92.8711 130.418 92.4453 132.934 90.6523 134.293 L 73.1523 147.52 L 73.3242 147.426 C 75.2656 146.32 77.7344 146.898 78.9805 148.754 C 80.2266 150.609 79.8281 153.113 78.0664 154.492 L 65.0469 164.52 C 67.0273 163.656 69.3438 164.418 70.4297 166.285 C 71.5195 168.152 71.0391 170.539 69.3125 171.84 L 60.8789 178.285 C 62.6523 178.344 64.2031 179.5 64.7734 181.18 C 65.3438 182.859 64.8125 184.719 63.4414 185.844 L 49.8711 197.039 L 53.7734 194.797 C 55.6797 193.715 58.0938 194.254 59.3594 196.043 C 60.625 197.828 60.332 200.285 58.6797 201.723 L 44.3438 214.031 L 49.8047 210.871 C 51.7383 209.73 54.2227 210.285 55.4922 212.137 C 56.7617 213.988 56.3789 216.504 54.6172 217.895 L 49.7539 221.813 C 51.2852 221.602 52.8086 222.258 53.7031 223.52 C 54.9922 225.273 54.75 227.715 53.1484 229.184 L 38.6445 242.531 L 46.9297 237.754 C 48.8047 236.746 51.1367 237.277 52.3906 238.996 C 53.6484 240.715 53.4414 243.098 51.9141 244.578 L 41.1602 254.254 L 46.2813 251.336 C 48.1484 250.23 50.5469 250.699 51.8555 252.43 C 53.168 254.16 52.9727 256.598 51.3984 258.098 L 37.25 271.688 L 47.4141 265.836 C 49.2969 264.773 51.6719 265.285 52.9531 267.023 C 54.2305 268.762 54.0078 271.184 52.4336 272.664 L 43.7383 280.598 L 48.4063 277.945 C 50.2539 276.941 52.5547 277.434 53.832 279.102 C 55.1094 280.773 54.9805 283.125 53.5234 284.645 L 40.8086 297.441 L 51.0508 291.531 C 52.8672 290.48 55.1797 290.91 56.4961 292.543 C 57.8164 294.176 57.7539 296.523 56.3477 298.082 L 40.957 315.074 L 54.9258 307.016 C 56.8086 305.891 59.2383 306.375 60.5469 308.141 C 61.8516 309.906 61.6055 312.371 59.9766 313.844 L 53.1484 320.27 L 58.168 317.375 C 60.0352 316.25 62.4531 316.719 63.7695 318.457 C 65.0859 320.199 64.8789 322.652 63.2891 324.145 L 55.9727 331.184 L 62.4688 327.445 C 64.3359 326.34 66.7344 326.809 68.0469 328.539 C 69.3555 330.27 69.1602 332.707 67.5898 334.203 L 60.1289 341.406 L 66.7773 337.566 C 68.6367 336.492 71.0078 336.973 72.3047 338.684 C 73.6055 340.395 73.4297 342.805 71.8984 344.309 L 64.6445 351.383 L 71.7773 347.277 C 73.5938 346.23 75.8984 346.656 77.2227 348.281 C 78.543 349.906 78.4883 352.25 77.0938 353.813 L 65.5586 366.633 L 78.9609 358.891 C 80.7617 357.852 83.0508 358.262 84.3789 359.859 C 85.707 361.457 85.6914 363.781 84.3398 365.359 L 71.7422 380.078 L 87.0508 371.238 C 88.8789 370.18 91.207 370.613 92.5234 372.262 C 93.8438 373.91 93.7617 376.277 92.3242 377.828 L 82.4453 388.57 L 95.5703 380.992 C 97.375 379.957 99.668 380.375 100.988 381.984 C 102.313 383.594 102.277 385.926 100.91 387.496 L 89.7578 400.234 L 104.785 391.559 C 106.633 390.492 108.988 390.957 110.293 392.645 C 111.598 394.332 111.453 396.727 109.957 398.246 L 88.1445 420.262 C 88.668 422.137 87.8555 424.125 86.1719 425.102 L 79.125 429.18 C 78.4727 429.574 77.7266 429.777 76.9648 429.777 Z" fill="#5EC3E7"/><path d=" M 426.535 429.523 C 424.809 429.523 423.254 428.492 422.59 426.898 C 421.926 425.309 422.281 423.477 423.496 422.25 L 424.902 420.828 L 422.141 422.422 C 420.266 423.566 417.832 423.105 416.508 421.355 C 415.184 419.605 415.406 417.137 417.02 415.648 L 440.16 393.535 L 410.297 410.773 C 408.332 411.891 405.84 411.285 404.609 409.391 C 403.379 407.496 403.836 404.973 405.652 403.633 L 408.633 401.465 L 403.723 404.297 C 401.781 405.414 399.301 404.836 398.055 402.969 C 396.809 401.105 397.215 398.598 398.988 397.223 L 430.773 372.844 L 417.977 380.227 C 416.023 381.344 413.539 380.754 412.297 378.879 C 411.055 377.004 411.48 374.484 413.273 373.125 L 432.047 359.012 L 431.91 359.086 C 429.996 360.184 427.559 359.641 426.293 357.832 C 425.027 356.023 425.352 353.547 427.039 352.125 L 455.137 328.531 L 443.875 335.023 C 441.945 336.148 439.477 335.598 438.211 333.762 C 436.941 331.922 437.305 329.418 439.043 328.02 L 453.371 316.402 L 450.605 317.992 C 448.707 319.078 446.293 318.551 445.02 316.77 C 443.746 314.992 444.023 312.535 445.664 311.086 L 463.176 295.805 L 454.898 300.582 C 453.035 301.672 450.652 301.199 449.348 299.477 C 448.043 297.758 448.227 295.336 449.777 293.832 L 472.938 271.254 L 458.492 279.59 C 456.609 280.699 454.191 280.207 452.895 278.449 C 451.594 276.691 451.836 274.238 453.449 272.766 L 468.809 258.488 L 459.789 263.684 C 457.906 264.777 455.504 264.281 454.211 262.527 C 452.922 260.777 453.152 258.332 454.754 256.859 L 467.598 244.91 L 459.918 249.359 C 458.055 250.43 455.688 249.953 454.387 248.242 C 453.086 246.531 453.262 244.121 454.797 242.617 L 469.063 228.621 L 458.715 234.594 C 456.805 235.699 454.367 235.164 453.098 233.363 C 451.824 231.563 452.129 229.09 453.805 227.656 L 456.887 225.02 C 455.035 225.527 453.07 224.73 452.09 223.078 C 451.113 221.422 451.359 219.32 452.699 217.938 L 466.539 203.559 L 454.59 210.387 C 452.777 211.27 450.594 210.758 449.355 209.164 C 448.117 207.57 448.168 205.328 449.473 203.789 L 462.867 189.719 L 451.246 196.426 C 449.434 197.461 447.137 197.031 445.816 195.41 C 444.5 193.789 444.551 191.453 445.938 189.891 L 459.797 174.461 L 446.145 182.313 C 444.301 183.387 441.941 182.938 440.629 181.254 C 439.313 179.57 439.445 177.176 440.938 175.648 L 451.742 164.555 L 441.176 170.645 C 439.316 171.719 436.949 171.242 435.648 169.531 C 434.348 167.82 434.523 165.41 436.059 163.906 L 443.574 156.531 L 436.637 160.543 C 434.754 161.637 432.352 161.137 431.063 159.387 C 429.77 157.633 430.004 155.191 431.602 153.715 L 435.398 150.184 L 431.57 152.395 C 429.793 153.41 427.543 153.02 426.211 151.465 C 424.879 149.91 424.84 147.629 426.117 146.027 L 440.129 128.637 L 423.02 138.527 C 421.191 139.574 418.871 139.133 417.559 137.484 C 416.246 135.836 416.332 133.477 417.762 131.93 L 427.719 121.238 L 415.16 128.484 C 413.387 129.504 411.137 129.117 409.801 127.566 C 408.465 126.02 408.418 123.738 409.688 122.133 L 422.762 105.75 L 404.508 116.289 C 402.723 117.324 400.453 116.93 399.117 115.359 C 397.785 113.785 397.766 111.484 399.074 109.891 L 418.828 85.7813 L 418.727 85.6016 C 417.547 83.5664 418.242 80.957 420.277 79.7734 L 427.574 75.5586 C 429.359 74.5352 431.621 74.9336 432.953 76.5 C 434.281 78.0703 434.305 80.3672 433.004 81.9609 L 420.457 97.1992 L 437.977 87.0859 C 439.75 86.0703 442 86.4531 443.336 88.0039 C 444.672 89.5508 444.719 91.832 443.445 93.4375 L 430.418 109.777 L 448.07 99.5391 C 449.902 98.4766 452.234 98.918 453.551 100.574 C 454.867 102.227 454.773 104.598 453.328 106.145 L 443.371 116.836 L 455.691 109.727 C 457.469 108.699 459.727 109.086 461.066 110.645 C 462.402 112.203 462.441 114.492 461.152 116.094 L 447.141 133.484 L 463.867 123.824 C 465.75 122.73 468.152 123.23 469.445 124.98 C 470.734 126.734 470.504 129.176 468.902 130.652 L 465.113 134.184 L 468.645 132.145 C 470.508 131.07 472.875 131.547 474.176 133.258 C 475.477 134.969 475.301 137.379 473.766 138.887 L 466.238 146.25 L 474.066 141.734 C 475.906 140.684 478.242 141.148 479.547 142.82 C 480.848 144.496 480.723 146.871 479.254 148.398 L 468.469 159.492 L 478.707 153.52 C 480.523 152.473 482.832 152.898 484.152 154.527 C 485.473 156.156 485.414 158.504 484.016 160.066 L 470.156 175.5 L 484.168 167.402 C 486.008 166.328 488.355 166.773 489.672 168.445 C 490.992 170.117 490.875 172.508 489.398 174.043 L 476.02 188.285 L 488.539 181.059 C 490.379 179.992 492.723 180.449 494.031 182.125 C 495.34 183.797 495.219 186.184 493.742 187.711 L 479.816 202.109 L 491.805 195.195 C 493.711 194.117 496.125 194.656 497.391 196.441 C 498.66 198.23 498.363 200.688 496.711 202.125 L 494.152 204.277 C 496.039 203.34 498.324 203.922 499.535 205.641 C 500.746 207.363 500.523 209.711 499.008 211.172 L 484.73 225.156 L 495.969 218.68 C 497.852 217.586 500.254 218.086 501.547 219.836 C 502.84 221.59 502.605 224.031 501.004 225.508 L 488.203 237.453 L 497.027 232.332 C 498.91 231.223 501.328 231.715 502.625 233.473 C 503.926 235.23 503.684 237.688 502.07 239.16 L 486.711 253.461 L 498.129 246.867 C 499.992 245.777 502.375 246.25 503.68 247.973 C 504.984 249.691 504.801 252.113 503.25 253.617 L 480.113 276.18 L 496.934 266.469 C 498.836 265.359 501.273 265.879 502.551 267.672 C 503.832 269.465 503.539 271.938 501.875 273.379 L 484.348 288.664 L 495.746 282.082 C 497.676 280.977 500.125 281.535 501.387 283.367 C 502.645 285.195 502.289 287.684 500.57 289.09 L 486.25 300.711 L 493 296.82 C 494.91 295.746 497.328 296.293 498.586 298.09 C 499.844 299.887 499.535 302.344 497.871 303.773 L 469.781 327.379 L 488.434 316.609 C 490.387 315.492 492.871 316.078 494.113 317.957 C 495.355 319.832 494.93 322.348 493.137 323.707 L 474.363 337.824 L 482.898 332.898 C 484.84 331.781 487.32 332.363 488.566 334.227 C 489.813 336.09 489.406 338.602 487.633 339.973 L 455.82 364.387 L 474.824 353.422 C 476.789 352.305 479.281 352.91 480.512 354.805 C 481.742 356.699 481.285 359.223 479.465 360.563 L 469.414 367.859 C 471.027 368.098 472.363 369.23 472.859 370.785 C 473.355 372.34 472.922 374.039 471.742 375.164 L 448.523 397.352 C 450.398 396.578 452.559 397.23 453.691 398.914 C 454.824 400.598 454.613 402.844 453.191 404.289 L 437.832 419.82 C 438.398 421.711 437.59 423.746 435.879 424.734 L 428.633 428.918 C 427.996 429.297 427.273 429.504 426.535 429.523 Z" fill="#5EC3E7"/><g fill="#262626"><path d=" M 293.594 243.266 C 290.879 192.918 213.293 194.516 212.816 244.238 C 212.32 295.266 290.957 292.324 293.594 243.266 Z M 251.84 214.25 C 268.051 214.777 280.961 228.008 281.082 244.23 C 280.23 260.023 269.215 275.094 251.645 273.242 C 236.676 271.105 225.504 258.375 225.328 243.258 C 224.801 227.988 236.586 215.102 251.84 214.262 Z"/><path d=" M 300.566 499.82 C 419.168 476.082 505.133 372.801 506.945 251.859 C 505.699 185.996 479.715 123.016 434.156 75.4414 C 433.742 74.4883 432.969 73.7383 432.004 73.3594 C 405.402 46.4688 372.926 26.1133 337.129 13.8906 C 238.813 -19.0977 130.297 9.95703 61.6133 87.6602 C -9.3125 169.781 -20.0664 287.957 34.8789 381.531 C 90.1523 472.457 196.008 519.586 300.566 499.82 Z M 253.719 495.082 C 190.824 494.621 130.617 469.543 85.9961 425.223 L 107.941 403.266 C 133.055 426.348 163.223 443.227 196.031 452.555 C 196.371 453.109 197.508 453.348 199.043 453.297 C 215.969 457.922 233.379 460.531 250.918 461.07 C 251.176 461.051 251.434 461.012 251.688 460.957 C 251.953 461 252.227 461.031 252.496 461.043 C 305.625 459.762 356.34 438.617 394.645 401.781 L 419.707 426.844 C 375.66 470.77 315.922 495.328 253.719 495.082 Z M 251.719 51.75 C 347.484 52.9727 429.285 121.133 447.766 215.105 C 440.563 214.488 433.332 214.27 426.105 214.449 C 420.73 190.281 407.504 140.336 375.539 148.785 C 364.66 150.313 356.766 159.918 357.363 170.887 C 358.516 178.922 365.77 186.594 369.371 193.797 C 372.859 200.887 375.715 208.273 377.902 215.863 C 359.293 207.145 341.781 193.465 323.383 186.168 C 299.699 176.523 274.23 172.031 248.672 172.992 C 227.066 174.121 205.797 178.852 185.75 186.988 C 168.078 193.984 147.348 209.09 127.449 217.641 C 130.051 207.805 133.773 198.301 138.543 189.316 C 143.004 183.359 146.5 176.734 148.902 169.691 C 149.832 163.59 148.055 157.383 144.027 152.703 C 140.004 148.023 134.133 145.336 127.961 145.344 C 114.469 144.84 106.961 154.246 100.602 164.766 C 91.375 180.34 84.6406 197.262 80.6445 214.918 L 58.2266 214.918 C 75.5313 124.473 154.824 51.75 251.719 51.75 Z M 310.602 443.551 L 310.602 413.785 C 311.922 402.16 311.922 390.426 310.602 378.801 C 309.332 374.762 306.176 371.594 302.145 370.309 C 302.145 358.43 301.691 346.469 302.145 334.605 C 301.836 327.172 304.773 319.973 310.199 314.883 C 315.621 309.789 322.992 307.309 330.391 308.086 L 371.195 308.086 C 368.594 313.684 365.668 319.125 362.434 324.383 C 359.367 328.406 357.512 333.223 357.09 338.266 C 357.105 348.387 364.398 357.027 374.371 358.746 C 398.305 363.414 410.449 334.309 417.695 315.594 C 425.734 315.859 433.781 315.574 441.781 314.738 C 421.379 376.328 372.531 424.293 310.582 443.578 Z M 255.059 453.039 C 239.23 452.52 223.516 450.23 208.199 446.215 C 208.199 425.949 208.199 405.684 208.199 385.422 C 208.199 375.898 206.785 375.754 215.82 374.473 C 228.07 373.641 240.359 373.641 252.609 374.473 C 263.898 373.574 275.246 373.574 286.535 374.473 C 296 376.078 297.391 379.449 298.242 388.734 C 299.262 408.148 299.289 427.605 298.328 447.023 C 284.152 450.551 269.641 452.578 255.039 453.066 Z M 186.789 300.523 C 168.57 299.516 150.141 299.824 131.758 300.164 C 128.973 298.492 125.48 298.551 122.746 300.309 C 117.168 300.406 111.602 300.465 106.055 300.48 C 107.07 289.375 106.984 278.195 105.809 267.105 C 107.199 254.418 107.539 241.633 106.824 228.887 C 109.383 228.586 111.945 228.074 114.504 227.547 C 118.371 229.23 122.891 228.016 125.395 224.621 C 129.176 223.371 132.883 221.898 136.484 220.199 C 179.777 199.48 210.008 174.297 263.504 178.906 C 299.406 181.996 328.051 198.219 358.285 215.602 C 365.406 219.824 372.965 223.258 380.828 225.84 C 381.129 226.273 381.895 226.48 383.023 226.461 C 388.859 228.129 394.875 229.098 400.941 229.348 C 400.113 236.938 400.039 244.594 400.723 252.199 C 399.48 267.684 399.113 283.223 399.621 298.75 C 373.844 297.492 348.02 297.535 322.25 298.875 C 284.84 302.195 289.086 339.078 289.641 367.52 C 275.727 367.203 261.805 367.695 247.949 368.996 C 237.598 368.195 227.211 367.98 216.836 368.355 C 217.031 341.422 223.594 302.633 186.766 300.551 Z M 129.719 323.367 C 133.703 330.195 143.047 343.422 130.949 349.086 C 116.793 355.707 104.434 322.777 100.227 311.633 L 100.305 311.633 C 102 310.207 103.336 308.402 104.195 306.359 C 109.84 306.316 115.488 306.25 121.145 306.164 C 123.652 312.07 126.508 317.824 129.695 323.395 Z M 114 222.266 C 111.234 222.953 108.418 223.418 105.578 223.664 C 104.844 221.023 103.289 218.684 101.133 216.992 C 98.6602 215.559 95.8555 214.813 93 214.824 C 95.4844 203.82 99.0742 193.098 103.719 182.816 C 106.004 177.84 108.539 172.984 111.313 168.266 C 113.02 165.273 114.855 162.352 116.816 159.5 C 126.418 152.711 132.918 154.258 136.316 164.145 C 138.789 173.531 126.305 188.039 122.602 196.281 C 118.941 204.656 116.059 213.355 114 222.266 Z M 380.574 188.133 C 375.891 179.215 359.992 160.277 377.16 155.348 C 394.996 150.227 409.133 198.703 413.395 216.418 C 412.422 216.711 411.414 216.941 410.484 217.273 C 407.367 218.43 404.727 220.586 402.973 223.406 C 399.488 223.008 396.043 222.332 392.664 221.387 C 390.031 209.855 385.969 198.699 380.574 188.172 Z M 383.621 308.023 L 401.77 308.023 C 402.887 309.961 404.523 311.543 406.496 312.59 C 402.07 324.316 390.574 355.52 376.758 348.738 C 367.695 344.289 368.855 334.332 373.305 327.172 C 377.125 321.02 380.57 314.637 383.621 308.066 Z M 443.215 310.039 C 431.457 310.969 416.637 311.66 412.984 301.504 C 409.332 291.352 412.984 272.133 412.984 261.484 L 412.984 237.777 C 412.984 237.043 412.422 230.723 412.055 225.992 C 412.668 225.301 412.719 224.703 411.934 224.285 C 411.801 223.102 411.75 221.91 411.789 220.719 C 412.566 220.215 413.48 219.961 414.406 219.996 C 415.047 220.848 417.883 220.695 420.723 219.996 C 425.305 220.215 430.109 220.738 431.227 220.738 L 448.773 220.738 C 453.773 250.559 451.875 281.129 443.215 310.098 Z M 68.707 221.359 C 71.0625 221.359 75.6172 220.746 79.8828 220.508 C 80.8672 222.871 85.1563 222.973 88.418 221.531 C 98.0078 226.957 93.3945 253.105 93.3945 261.141 C 93.3945 273.09 97.1406 292.766 93.3945 304.184 C 93.0508 305.313 92.5352 306.383 91.875 307.359 C 90.6133 307.668 89.4453 308.27 88.4609 309.117 C 86.5664 309.219 84.0234 308.766 80.1992 308.766 L 63.1094 308.766 C 59.6484 297.293 57.2266 285.531 55.8711 273.625 C 53.9297 256.215 54.332 238.621 57.0664 221.316 Z M 88.1875 315.902 C 95.4844 334.844 107.676 365.66 132.449 358.301 C 141.469 355.766 148.094 348.074 149.27 338.777 C 149.523 333.984 148.242 329.23 145.617 325.211 C 141.855 318.75 138.254 312.555 135.051 305.906 C 148.168 305.73 161.285 305.711 174.305 306.422 C 211.41 308.426 204.711 343.871 204.402 371.547 C 200.109 373.508 196.957 377.344 195.871 381.941 C 194.605 393.625 194.605 405.414 195.871 417.098 L 195.871 442.699 C 134.836 423.316 86.5117 376.289 65.4727 315.809 C 73.0195 316.602 80.6328 316.633 88.1875 315.902 Z M 494.375 252.754 C 493.004 314.332 469.281 373.309 427.625 418.684 L 403.734 394.793 C 403.336 394.434 402.844 394.199 402.316 394.117 C 424.48 370.762 441.324 342.887 451.691 312.402 C 454.516 311.02 456.426 309.492 453.148 309.492 L 452.723 309.492 C 476.91 238.465 458.57 159.867 405.449 106.875 L 426.434 85.8828 C 468.746 131.297 492.93 190.656 494.398 252.711 Z M 419.75 78.9375 L 398.418 100.23 C 395.855 97.8828 393.477 95.5 390.805 93.2227 C 303.824 19.1367 185.023 35.5391 110.988 102.098 L 86.5508 77.6172 C 179.047 -13.7383 327.98 -13.1445 419.75 78.9375 Z M 78.5977 85.6953 L 102.684 109.777 L 102.789 109.777 C 64.1641 147.668 42.3438 199.461 42.2109 253.563 C 42.0742 307.668 63.6367 359.57 102.07 397.648 L 80.3125 419.41 C -10.0859 326.785 -10.8398 179.191 78.6055 85.6445 Z"/><path d=" M 189 249.953 L 174.152 249.953 L 174.152 234.801 C 174.152 228.125 161.59 229.789 161.59 235.652 L 161.59 249.973 L 154.867 249.973 C 151.785 249.852 148.738 250.656 146.121 252.285 C 144.617 253.555 143.988 254.59 146.742 254.59 L 161.59 254.59 L 161.59 269.754 C 161.59 276.426 174.152 274.762 174.152 268.898 L 174.152 254.605 L 180.875 254.605 C 183.957 254.727 187.008 253.918 189.625 252.285 C 191.125 250.996 191.766 249.953 189 249.953 Z"/><path d=" M 344.727 273.07 L 353.258 273.07 C 356.375 273.332 359.418 272.035 361.391 269.605 C 362.746 267.117 360.238 265.629 357.977 265.629 L 349.445 265.629 C 346.328 265.371 343.285 266.668 341.313 269.094 C 339.93 271.586 342.438 273.07 344.727 273.07 Z"/><path d=" M 317.426 246.125 L 325.961 246.125 C 329.035 246.141 332.055 245.32 334.699 243.75 C 336.516 242.566 336.566 241.344 334.051 241.344 L 325.516 241.344 C 322.438 241.34 319.418 242.172 316.777 243.75 C 314.961 244.902 314.91 246.125 317.426 246.125 Z"/><path d=" M 264.109 333.992 L 247.043 333.992 C 243.934 333.742 240.898 335.016 238.895 337.406 C 237.512 339.871 240.07 341.227 242.309 341.227 L 259.375 341.227 C 262.484 341.477 265.52 340.203 267.523 337.813 C 268.898 335.348 266.336 333.992 264.109 333.992 Z"/></g></svg>