<svg version="1.1" width="640" height="640" viewBox="0 -152 480 480" xmlns="http://www.w3.org/2000/svg" xmlns:xlink="http://www.w3.org/1999/xlink" overflow="hidden"><path d=" M 232.238 41.9453 L 225.754 16 L 166.246 16 L 159.762 41.9453 L 144.238 38.0547 L 152.238 6.05469 C 153.133 2.49609 156.332 -8.88178e-16 160 -8.88178e-16 L 232 -8.88178e-16 C 235.668 -8.88178e-16 238.867 2.49609 239.762 6.05469 L 247.762 38.0547 Z" fill="#787D82"/><path d=" M 208 128 C 204.863 128 202.02 126.168 200.719 123.313 C 198.613 118.723 197.523 113.734 197.52 108.688 L 197.52 96 C 197.52 91.582 201.102 88 205.52 88 C 209.938 88 213.52 91.582 213.52 96 L 213.52 108.688 C 213.516 111.449 214.109 114.176 215.258 116.688 C 216.379 119.16 216.172 122.035 214.707 124.32 C 213.242 126.605 210.715 127.992 208 128 Z" fill="#6F7478"/><path d=" M 128 88 L 80 96 L 48 120 L 8 120 L 8 40 L 144 40 L 136 88 Z" fill="#6F7478"/><path d=" M 80 88 L 128 80 L 136 80 L 142.664 40 L 8 40 L 8 112 L 48 112 Z" fill="#62666A"/><path d=" M 264 96 L 144 96 L 128 88 L 128 40 L 144 32 L 248 32 L 264 40 Z" fill="#62666A"/><path d=" M 336 40 L 472 40 L 472 72 L 336 72 Z" fill="#787D82"/><path d=" M 264 40 L 336 40 L 336 88 L 264 88 Z" fill="#62666A"/><path d=" M 128 64 L 128 88 L 144 96 L 123.512 157.473 C 122.699 159.91 123.109 162.59 124.609 164.676 C 126.113 166.762 128.527 168 131.098 168 L 160 168 L 184 96 L 264 96 L 264 64 Z" fill="#787D82"/><path d=" M 280 160 L 248 160 L 246.313 156.625 C 236.898 137.801 231.996 117.047 232 96 L 264 96 C 263.996 117.047 268.898 137.801 278.313 156.625 Z" fill="#B9B9B9"/><path d=" M 264 96 L 240 96 C 240 117.047 244.898 137.801 254.313 156.625 L 256 160 L 280 160 L 278.313 156.625 C 268.898 137.801 264 117.047 264 96 Z" fill="#8E9499"/><path d=" M 384 40 L 384 8 L 360 8 L 344 40 Z" fill="#62666A"/><path d=" M 280 40 L 288 40 L 288 88 L 280 88 Z" fill="#6F7478"/><path d=" M 312 40 L 320 40 L 320 88 L 312 88 Z" fill="#6F7478"/><path d=" M 440 40 L 472 40 L 472 72 L 440 72 Z" fill="#62666A"/><path d=" M 216 64 L 264 64 L 264 96 L 216 96 Z" fill="#969CA2"/><path d=" M 400 40 L 416 40 L 416 72 L 400 72 Z" fill="#62666A"/><path d=" M 145.754 32 L 162.246 32 L 164.246 24 L 147.754 24 Z" fill="#565A5D"/><path d=" M 244.246 24 L 227.754 24 L 229.754 32 L 246.246 32 Z" fill="#565A5D"/><path d=" M 138.664 112 L 178.664 112 L 184 96 L 144 96 Z" fill="#6F7478"/><path d=" M 264.961 112 C 264.324 106.691 264.004 101.348 264 96 L 240 96 C 240.004 101.348 240.324 106.691 240.961 112 Z" fill="#898E93"/><path d=" M 240.961 112 C 240.324 106.691 240.004 101.348 240 96 L 232 96 C 232.004 101.348 232.324 106.691 232.961 112 Z" fill="#AEAEAE"/><path d=" M 348 32 L 344 40 L 384 40 L 384 32 Z" fill="#565A5D"/><path d=" M 336 40 L 344 40 L 344 72 L 336 72 Z" fill="#6D7276"/><path d=" M 472 32 L 392 32 L 392 8 C 392 3.58203 388.418 0 384 0 L 360 0 C 356.953 -0.015625 354.16 1.69922 352.801 4.42578 L 339.055 32 L 265.887 32 L 251.574 24.8398 C 250.465 24.2852 249.242 24 248 24 L 244.246 24 L 239.762 6.05469 C 238.867 2.49609 235.668 -8.88178e-16 232 -8.88178e-16 L 160 -8.88178e-16 C 156.332 -8.88178e-16 153.133 2.49609 152.238 6.05469 L 147.754 24 L 144 24 C 142.758 24 141.535 24.2852 140.426 24.8398 L 126.113 32 L 8 32 C 3.58203 32 -2.84217e-14 35.582 -2.84217e-14 40 L -2.84217e-14 120 C -2.84217e-14 124.418 3.58203 128 8 128 L 48 128 C 49.7305 128 51.4141 127.438 52.8008 126.398 L 83.2383 103.566 L 126.742 96.3203 L 134.215 100.055 L 115.922 154.938 C 114.293 159.816 115.109 165.18 118.117 169.352 C 121.121 173.527 125.953 176 131.098 176 L 160 176 C 163.445 176 166.504 173.797 167.594 170.527 L 189.77 104 L 197.543 104 L 197.543 108.688 C 197.547 113.734 198.637 118.723 200.742 123.313 C 202.633 127.23 207.305 128.918 211.262 127.117 C 215.219 125.316 217.016 120.684 215.305 116.688 C 214.156 114.176 213.566 111.449 213.566 108.688 L 213.566 104 L 224.258 104 C 225.371 123.551 230.457 142.672 239.199 160.191 L 240.879 163.574 C 242.23 166.277 244.98 167.988 248 168 L 280 168 C 282.781 168.016 285.367 166.586 286.836 164.227 C 288.305 161.863 288.441 158.91 287.199 156.426 L 285.512 153.039 C 276.66 135.328 272.031 115.801 272 96 L 336 96 C 340.418 96 344 92.418 344 88 L 344 80 L 472 80 C 476.418 80 480 76.418 480 72 L 480 40 C 480 35.582 476.418 32 472 32 Z M 120 64 L 120 81.2227 L 78.6797 88.1133 C 77.418 88.3242 76.2227 88.832 75.1992 89.6016 L 45.3359 112 L 16 112 L 16 48 L 120 48 Z M 166.246 16 L 225.754 16 L 227.754 24 L 164.246 24 Z M 154.246 160 L 131.105 160 L 149.77 104 L 172.902 104 Z M 208 88 L 145.887 88 L 136 83.0547 L 136 72 L 208 72 Z M 136 56 L 136 44.9453 L 145.887 40 L 246.113 40 L 256 44.9453 L 256 56 Z M 232 88 L 224 88 L 224 72 L 256 72 L 256 88 Z M 252.953 152 C 245.633 136.98 241.32 120.676 240.258 104 L 256.258 104 C 257.199 120.52 260.973 136.754 267.406 152 Z M 280 80 L 272 80 L 272 48 L 280 48 Z M 304 80 L 296 80 L 296 48 L 304 48 Z M 328 72 L 328 80 L 320 80 L 320 48 L 328 48 Z M 364.945 16 L 376 16 L 376 32 L 356.945 32 Z M 400 64 L 344 64 L 344 48 L 400 48 Z M 432 64 L 416 64 L 416 48 L 432 48 Z M 464 64 L 448 64 L 448 48 L 464 48 Z"/></svg>