<svg version="1.1" width="640" height="640" viewBox="0 0 480 480" xmlns="http://www.w3.org/2000/svg" xmlns:xlink="http://www.w3.org/1999/xlink" overflow="hidden"><path d=" M 98.7617 284 C 99.1992 283.711 99.6953 283.504 100.16 283.199 C 99.6953 283.52 99.1992 283.727 98.7617 284 Z" fill="#FFCD00"/><path d=" M 231.055 281.777 C 231.648 281.535 232.289 281.391 232.902 281.191 C 232.289 281.391 231.648 281.527 231.055 281.777 Z" fill="#FFCD00"/><path d=" M 235.809 280.426 C 236.496 280.305 237.215 280.273 237.93 280.207 C 237.215 280.273 236.504 280.305 235.809 280.426 Z" fill="#FFCD00"/><path d=" M 373.809 280.801 C 374.281 280.922 374.727 281.09 375.191 281.23 C 374.734 281.063 374.281 280.91 373.809 280.801 Z" fill="#FFCD00"/><path d=" M 354.762 284 C 355.199 283.711 355.695 283.504 356.16 283.199 C 355.695 283.52 355.199 283.727 354.762 284 Z" fill="#FFCD00"/><path d=" M 103.055 281.777 C 103.648 281.535 104.289 281.391 104.902 281.191 C 104.289 281.391 103.648 281.527 103.055 281.777 Z" fill="#FFCD00"/><path d=" M 369.762 280.063 C 369.48 280.063 369.215 280.063 368.961 280.063 C 369.762 280.063 370.48 280.191 371.23 280.289 C 370.719 280.258 370.266 280.098 369.762 280.063 Z" fill="#FFCD00"/><path d=" M 363.809 280.426 C 364.496 280.305 365.215 280.273 365.93 280.207 C 365.215 280.273 364.504 280.305 363.809 280.426 Z" fill="#FFCD00"/><path d=" M 359.055 281.777 C 359.648 281.535 360.289 281.391 360.902 281.191 C 360.289 281.391 359.648 281.527 359.055 281.777 Z" fill="#FFCD00"/><path d=" M 245.809 280.801 C 246.281 280.922 246.727 281.09 247.191 281.23 C 246.734 281.063 246.281 280.91 245.809 280.801 Z" fill="#FFCD00"/><path d=" M 107.809 280.426 C 108.496 280.305 109.215 280.273 109.93 280.207 C 109.215 280.273 108.504 280.305 107.809 280.426 Z" fill="#FFCD00"/><path d=" M 226.762 284 C 227.199 283.711 227.695 283.504 228.16 283.199 C 227.695 283.52 227.199 283.727 226.762 284 Z" fill="#FFCD00"/><path d=" M 113.762 280.063 C 113.48 280.063 113.215 280.063 112.961 280.063 C 113.762 280.063 114.48 280.191 115.23 280.289 C 114.719 280.258 114.266 280.098 113.762 280.063 Z" fill="#FFCD00"/><path d=" M 117.809 280.801 C 118.281 280.922 118.727 281.09 119.191 281.23 C 118.734 281.063 118.281 280.91 117.809 280.801 Z" fill="#FFCD00"/><path d=" M 241.762 280.063 C 241.48 280.063 241.215 280.063 240.961 280.063 C 241.762 280.063 242.48 280.191 243.23 280.289 C 242.719 280.258 242.266 280.098 241.762 280.063 Z" fill="#FFCD00"/><path d=" M 403.68 364.32 C 396.199 356.793 392 346.613 392 336 L 392 305.352 C 392.098 294.555 385.359 284.875 375.199 281.215 C 374.734 281.07 374.289 280.902 373.816 280.785 C 372.961 280.586 372.094 280.43 371.223 280.32 C 370.473 280.223 369.719 280.129 368.953 280.098 C 367.945 280.07 366.938 280.105 365.938 280.207 C 365.223 280.273 364.504 280.305 363.816 280.426 C 362.832 280.633 361.863 280.898 360.91 281.223 C 360.297 281.426 359.656 281.566 359.063 281.809 C 358.066 282.234 357.098 282.727 356.168 283.289 C 355.703 283.551 355.207 283.762 354.77 284.09 C 353.43 284.969 352.184 285.984 351.047 287.113 C 346.555 291.586 344.02 297.66 344 304 L 344 320 C 344 342.09 326.09 360 304 360 C 281.91 360 264 342.09 264 320 L 264 305.352 C 264.098 294.555 257.359 284.875 247.199 281.215 C 246.734 281.07 246.289 280.902 245.816 280.785 C 244.961 280.586 244.094 280.43 243.223 280.32 C 242.473 280.223 241.719 280.129 240.953 280.098 C 239.945 280.07 238.938 280.105 237.938 280.207 C 237.223 280.273 236.504 280.305 235.816 280.426 C 234.832 280.633 233.863 280.898 232.91 281.223 C 232.297 281.426 231.656 281.566 231.063 281.809 C 230.066 282.234 229.098 282.727 228.168 283.289 C 227.703 283.551 227.207 283.762 226.77 284.09 C 225.43 284.969 224.184 285.984 223.047 287.113 C 218.555 291.586 216.02 297.66 216 304 L 216 352 C 216 374.09 198.09 392 176 392 C 153.91 392 136 374.09 136 352 L 136 305.352 C 136.098 294.555 129.359 284.875 119.199 281.215 C 118.734 281.07 118.289 280.902 117.816 280.785 C 116.961 280.586 116.094 280.43 115.223 280.32 C 114.473 280.223 113.719 280.129 112.953 280.098 C 111.945 280.07 110.938 280.105 109.938 280.207 C 109.223 280.273 108.504 280.305 107.816 280.426 C 106.832 280.633 105.863 280.898 104.91 281.223 C 104.297 281.426 103.656 281.566 103.063 281.809 C 102.066 282.234 101.098 282.727 100.168 283.289 C 99.7031 283.551 99.207 283.762 98.7695 284.09 C 97.4297 284.969 96.1836 285.984 95.0469 287.113 C 90.5547 291.586 88.0195 297.66 88 304 L 88 336 C 88.0313 346.617 83.8281 356.813 76.3203 364.32 C 68.8125 371.828 58.6172 376.031 48 376 C 42.5 375.996 37.0586 374.879 32 372.719 L 32 472 L 448 472 L 448 372.719 C 442.941 374.879 437.5 375.996 432 376 C 421.387 376 411.207 371.801 403.68 364.32 Z" fill="#FFCD00"/><path d=" M 440 232 L 40 232 C 22.3281 232 8 246.328 8 264 L 8 336 C 8 346.613 12.1992 356.793 19.6797 364.32 C 27.1758 371.848 37.3789 376.055 48 376 C 58.6172 376.031 68.8125 371.828 76.3203 364.32 C 83.8281 356.813 88.0313 346.617 88 336 L 88 304 C 88 297.637 90.5313 291.531 95.0391 287.039 C 96.1758 285.91 97.4219 284.898 98.7617 284.016 C 99.1992 283.727 99.6953 283.52 100.16 283.215 C 101.09 282.656 102.059 282.16 103.055 281.734 C 103.648 281.488 104.289 281.352 104.902 281.152 C 105.855 280.828 106.824 280.559 107.809 280.352 C 108.504 280.23 109.215 280.199 109.93 280.137 C 110.641 280.07 111.289 280 112 280 C 112.32 280 112.625 280.078 112.945 280.098 C 113.266 280.113 113.48 280.039 113.742 280.098 C 114.246 280.098 114.703 280.289 115.199 280.352 C 116.07 280.461 116.938 280.617 117.793 280.816 C 118.266 280.945 118.719 281.098 119.176 281.246 C 129.16 284.332 135.977 293.551 136 304 L 136 352 C 136 374.09 153.91 392 176 392 C 198.09 392 216 374.09 216 352 L 216 304 C 216 297.637 218.531 291.531 223.039 287.039 C 224.176 285.91 225.422 284.898 226.762 284.016 C 227.199 283.727 227.695 283.52 228.16 283.215 C 229.09 282.656 230.059 282.16 231.055 281.734 C 231.648 281.488 232.289 281.352 232.902 281.152 C 233.855 280.828 234.824 280.559 235.809 280.352 C 236.504 280.23 237.215 280.199 237.93 280.137 C 238.641 280.07 239.289 280 240 280 C 240.32 280 240.625 280.078 240.945 280.098 C 241.266 280.113 241.48 280.039 241.742 280.098 C 242.246 280.098 242.703 280.289 243.199 280.352 C 244.07 280.461 244.938 280.617 245.793 280.816 C 246.266 280.945 246.719 281.098 247.176 281.246 C 257.16 284.332 263.977 293.551 264 304 L 264 320 C 264 342.09 281.91 360 304 360 C 326.09 360 344 342.09 344 320 L 344 304 C 344 297.637 346.531 291.531 351.039 287.039 C 352.176 285.91 353.422 284.898 354.762 284.016 C 355.199 283.727 355.695 283.52 356.16 283.215 C 357.09 282.656 358.059 282.16 359.055 281.734 C 359.648 281.488 360.289 281.352 360.902 281.152 C 361.855 280.828 362.824 280.559 363.809 280.352 C 364.504 280.23 365.215 280.199 365.93 280.137 C 366.641 280.07 367.289 280 368 280 C 368.32 280 368.625 280.078 368.945 280.098 C 369.266 280.113 369.48 280.039 369.742 280.098 C 370.246 280.098 370.703 280.289 371.199 280.352 C 372.07 280.461 372.938 280.617 373.793 280.816 C 374.266 280.945 374.719 281.098 375.176 281.246 C 385.16 284.332 391.977 293.551 392 304 L 392 336 C 391.969 346.617 396.172 356.813 403.68 364.32 C 411.188 371.828 421.383 376.031 432 376 C 437.5 375.996 442.941 374.879 448 372.719 C 462.555 366.301 471.965 351.91 472 336 L 472 264 C 472 246.328 457.672 232 440 232 Z" fill="#FF3051"/><path d=" M 76.3203 364.32 C 83.8008 356.793 88 346.613 88 336 L 88 352 C 88.0313 362.617 83.8281 372.813 76.3203 380.32 C 68.8125 387.828 58.6172 392.031 48 392 C 37.3789 392.055 27.1758 387.848 19.6797 380.32 C 12.1992 372.793 8 362.613 8 352 L 8 336 C 8 346.613 12.1992 356.793 19.6797 364.32 C 27.1758 371.848 37.3789 376.055 48 376 C 58.6133 376 68.793 371.801 76.3203 364.32 Z" fill="#E52B49"/><path d=" M 204.32 380.32 C 211.801 372.793 216 362.613 216 352 L 216 368 C 216 390.09 198.09 408 176 408 C 153.91 408 136 390.09 136 368 L 136 352 C 136.02 368.18 145.77 382.758 160.711 388.953 C 175.656 395.145 192.863 391.742 204.32 380.32 Z" fill="#E52B49"/><path d=" M 332.32 348.32 C 339.801 340.793 344 330.613 344 320 L 344 336 C 344 358.09 326.09 376 304 376 C 281.91 376 264 358.09 264 336 L 264 320 C 264.02 336.18 273.77 350.758 288.711 356.953 C 303.656 363.145 320.863 359.742 332.32 348.32 Z" fill="#E52B49"/><path d=" M 472 336 L 472 352 C 471.965 367.91 462.555 382.301 448 388.719 C 442.941 390.879 437.5 391.996 432 392 C 421.383 392.031 411.188 387.828 403.68 380.32 C 396.172 372.813 391.969 362.617 392 352 L 392 336 C 391.969 346.617 396.172 356.813 403.68 364.32 C 411.188 371.828 421.383 376.031 432 376 C 437.5 375.996 442.941 374.879 448 372.719 C 462.555 366.301 471.965 351.91 472 336 Z" fill="#E52B49"/><path d=" M 472 480 L 8 480 C 3.58203 480 0 476.418 0 472 C 0 467.582 3.58203 464 8 464 L 472 464 C 476.418 464 480 467.582 480 472 C 480 476.418 476.418 480 472 480 Z" fill="#BCBEC0"/><g fill="#FFCD00"><path d=" M 351.039 287.039 C 352.176 285.91 353.422 284.898 354.762 284.016 C 353.422 284.898 352.176 285.91 351.039 287.039 Z"/><path d=" M 136 305.352 L 136 304 C 135.992 293.547 129.184 284.313 119.199 281.215 C 129.359 284.875 136.098 294.555 136 305.352 Z"/><path d=" M 243.199 280.32 C 244.07 280.43 244.938 280.586 245.793 280.785 C 244.938 280.586 244.07 280.43 243.199 280.32 Z"/><path d=" M 264 305.352 L 264 304 C 263.992 293.547 257.184 284.313 247.199 281.215 C 257.359 284.875 264.098 294.555 264 305.352 Z"/><path d=" M 392 305.352 L 392 304 C 391.992 293.547 385.184 284.313 375.199 281.215 C 385.359 284.875 392.098 294.555 392 305.352 Z"/><path d=" M 232.902 281.191 C 233.855 280.867 234.824 280.602 235.809 280.391 C 234.824 280.602 233.855 280.867 232.902 281.191 Z"/><path d=" M 112 280 C 111.289 280 110.625 280.152 109.93 280.207 C 110.93 280.105 111.938 280.07 112.945 280.098 C 112.625 280.078 112.32 280 112 280 Z"/><path d=" M 115.199 280.32 C 116.07 280.43 116.938 280.586 117.793 280.785 C 116.938 280.586 116.07 280.43 115.199 280.32 Z"/><path d=" M 368 280 C 367.289 280 366.625 280.152 365.93 280.207 C 366.93 280.105 367.938 280.07 368.945 280.098 C 368.625 280.078 368.32 280 368 280 Z"/><path d=" M 100.16 283.258 C 101.09 282.695 102.059 282.203 103.055 281.777 C 102.059 282.203 101.09 282.695 100.16 283.258 Z"/><path d=" M 356.16 283.258 C 357.09 282.695 358.059 282.203 359.055 281.777 C 358.059 282.203 357.09 282.695 356.16 283.258 Z"/><path d=" M 360.902 281.191 C 361.855 280.867 362.824 280.602 363.809 280.391 C 362.824 280.602 361.855 280.867 360.902 281.191 Z"/><path d=" M 95.0391 287.039 C 96.1758 285.91 97.4219 284.898 98.7617 284.016 C 97.4219 284.898 96.1758 285.91 95.0391 287.039 Z"/><path d=" M 104.902 281.191 C 105.855 280.867 106.824 280.602 107.809 280.391 C 106.824 280.602 105.855 280.867 104.902 281.191 Z"/><path d=" M 240 280 C 239.289 280 238.625 280.152 237.93 280.207 C 238.93 280.105 239.938 280.07 240.945 280.098 C 240.625 280.078 240.32 280 240 280 Z"/><path d=" M 223.039 287.039 C 224.176 285.91 225.422 284.898 226.762 284.016 C 225.422 284.898 224.176 285.91 223.039 287.039 Z"/><path d=" M 371.199 280.32 C 372.07 280.43 372.938 280.586 373.793 280.785 C 372.938 280.586 372.07 280.43 371.199 280.32 Z"/><path d=" M 228.16 283.258 C 229.09 282.695 230.059 282.203 231.055 281.777 C 230.059 282.203 229.09 282.695 228.16 283.258 Z"/></g><path d=" M 216 128 L 264 128 L 264 232 L 216 232 Z" fill="#FF9811"/><path d=" M 208 64 C 208 81.6719 222.328 96 240 96 C 257.672 96 272 81.6719 272 64 C 272 46.3281 240 0 240 0 C 240 0 208 46.3281 208 64 Z" fill="#FF6243"/><path d=" M 352 144 L 400 144 L 400 232 L 352 232 Z" fill="#FF9811"/><path d=" M 344 80 C 344 97.6719 358.328 112 376 112 C 393.672 112 408 97.6719 408 80 C 408 62.3281 376 16 376 16 C 376 16 344 62.3281 344 80 Z" fill="#FF6243"/><path d=" M 80 144 L 128 144 L 128 232 L 80 232 Z" fill="#FF9811"/><path d=" M 136 80 C 135.988 96.0977 124.043 109.688 108.078 111.762 L 108 111.762 C 106.672 111.922 105.336 112.004 104 112 C 86.3281 112 72 97.6719 72 80 C 72 62.3203 104 16 104 16 C 104 16 105.602 18.3203 108 22 C 116.641 35.1211 136 66.2383 136 80 Z" fill="#FF6243"/><path d=" M 108 111.762 C 106.672 111.922 105.336 112.004 104 112 C 86.3281 112 72 97.6719 72 80 C 72 62.3203 104 16 104 16 C 104 16 105.602 18.3203 108 22 C 99.3594 35.1211 80 66.2383 80 80 C 80.0195 96.1211 92.0078 109.719 108 111.762 Z" fill="#E5583C"/><path d=" M 244 95.7617 C 242.672 95.9219 241.336 96.0039 240 96 C 222.328 96 208 81.6719 208 64 C 208 46.3203 240 0 240 0 C 240 0 241.602 2.32031 244 6 C 235.359 19.1211 216 50.2383 216 64 C 216.02 80.1211 228.008 93.7188 244 95.7617 Z" fill="#E5583C"/><path d=" M 380 111.762 C 378.672 111.922 377.336 112.004 376 112 C 358.328 112 344 97.6719 344 80 C 344 62.3203 376 16 376 16 C 376 16 377.602 18.3203 380 22 C 371.359 35.1211 352 66.2383 352 80 C 352.02 96.1211 364.008 109.719 380 111.762 Z" fill="#E5583C"/><path d=" M 80 144 L 128 144 L 128 160 L 80 160 Z" fill="#E5890F"/><path d=" M 216 128 L 264 128 L 264 144 L 216 144 Z" fill="#E5890F"/><path d=" M 352 144 L 400 144 L 400 160 L 352 160 Z" fill="#E5890F"/></svg>