<svg version="1.1" width="682.667" height="682.667" viewBox="-18 0 512 512" xmlns="http://www.w3.org/2000/svg" xmlns:xlink="http://www.w3.org/1999/xlink" overflow="hidden"><path d=" M 229.602 25.0117 L 221.648 55.5 L 255.496 55.5 L 247.539 25.0117 C 245.129 15.7734 232.012 15.7734 229.602 25.0117 Z" fill="#00DF97"/><path d=" M 455.133 250.664 C 440.82 241.727 423.906 236.563 405.793 236.563 C 372.625 236.563 343.496 253.871 326.961 279.945 C 325.176 282.758 322.277 284.199 319.332 284.277 C 316.254 284.371 313.141 282.973 311.176 280.113 C 295.32 257.008 268.719 241.848 238.57 241.848 C 208.422 241.848 181.824 257.008 165.965 280.113 C 164.004 282.973 160.887 284.371 157.809 284.277 C 154.863 284.199 151.969 282.758 150.184 279.945 C 142.734 268.203 132.738 258.242 120.969 250.836 C 106.602 241.789 89.5859 236.563 71.3477 236.563 C 53.2344 236.563 36.3203 241.727 22.0117 250.664 C 15.0352 255.023 6.21875 249.117 7.66406 241.016 C 23.125 154.273 86.2539 84.0469 168.988 58.3906 C 190.969 51.5664 214.34 47.8945 238.57 47.8945 C 353.973 47.8945 449.914 131.223 469.48 241.016 C 470.926 249.117 462.109 255.023 455.133 250.664 Z" fill="#00FBAA"/><path d=" M 236.348 47.9141 C 212.91 48.1328 190.297 51.7734 168.984 58.3906 C 148.344 101.754 131.523 169.102 120.969 250.832 C 132.738 258.242 142.734 268.199 150.184 279.941 C 151.969 282.758 154.863 284.199 157.809 284.277 C 160.887 284.371 164.004 282.973 165.965 280.113 C 181.43 257.574 207.117 242.605 236.348 241.883 Z" fill="#00DF97"/><path d=" M 455.133 250.664 C 441.586 242.207 425.719 237.129 408.703 236.609 C 391.496 154.754 344.102 87.2148 281.473 51.8086 C 377.109 69.4805 452.395 145.164 469.48 241.016 C 470.926 249.117 462.109 255.023 455.133 250.664 Z" fill="#00DF97"/><path d=" M 319.332 284.273 C 316.254 284.367 313.141 282.969 311.176 280.109 C 295.32 257.004 268.719 241.844 238.57 241.844 C 208.422 241.844 181.824 257.004 165.965 280.109 C 164.004 282.969 160.887 284.367 157.809 284.273 C 167.91 147.746 200.238 47.8906 238.57 47.8906 C 276.902 47.8906 309.23 147.746 319.332 284.273 Z" fill="#DDE9ED"/><path d=" M 319.332 284.277 C 316.254 284.371 313.141 282.973 311.176 280.113 C 301.746 266.371 288.516 255.441 272.996 248.832 C 263.027 155.988 242.367 84.875 217.012 58.7578 C 223.895 51.668 231.125 47.8945 238.57 47.8945 C 276.902 47.8945 309.23 147.75 319.332 284.277 Z" fill="#C4E1E8"/><path d=" M 269.992 504.5 C 246.16 504.5 226.773 485.113 226.773 461.281 L 226.773 405.863 C 226.773 399.348 232.055 394.066 238.57 394.066 C 245.09 394.066 250.371 399.348 250.371 405.863 L 250.371 461.281 C 250.371 472.102 259.172 480.902 269.992 480.902 C 280.813 480.902 289.613 472.102 289.613 461.281 C 289.613 454.766 294.898 449.48 301.414 449.48 C 307.93 449.48 313.215 454.766 313.215 461.281 C 313.211 485.113 293.824 504.5 269.992 504.5 Z" fill="#00FBAA"/><path d=" M 342.035 80.2891 C 352.527 85.668 362.508 91.8047 371.922 98.625 L 371.922 131.547 C 371.922 135.688 375.281 139.047 379.422 139.047 C 383.566 139.047 386.922 135.688 386.922 131.547 L 386.922 110.496 C 407.891 128.574 425.441 150.41 438.766 175.23 C 440.117 177.754 442.703 179.188 445.379 179.188 C 446.574 179.188 447.789 178.898 448.918 178.293 C 452.566 176.336 453.941 171.785 451.98 168.137 C 435.754 137.902 413.637 111.813 386.922 91.1211 L 386.922 55.4961 C 386.922 51.3555 383.566 47.9961 379.422 47.9961 C 375.281 47.9961 371.922 51.3555 371.922 55.4961 L 371.922 80.3945 C 364.531 75.5195 356.844 71.0234 348.883 66.9414 C 345.195 65.0508 340.676 66.5039 338.785 70.1914 C 336.895 73.8789 338.348 78.3984 342.035 80.2891 Z"/><path d=" M 476.867 239.695 C 474.395 225.828 470.676 212.094 465.813 198.871 C 464.379 194.984 460.074 192.996 456.184 194.422 C 452.293 195.852 450.305 200.16 451.734 204.051 C 456.297 216.445 459.785 229.324 462.098 242.324 C 462.246 243.156 461.977 243.813 461.289 244.273 C 460.805 244.605 460.027 244.879 459.102 244.297 C 443.137 234.324 424.707 229.059 405.793 229.059 C 373.992 229.059 344.613 243.766 325.598 268.789 C 320.203 207.363 310.035 152.301 296.645 112.492 C 288.355 87.8438 279.148 69.4688 269.102 57.4336 C 284.074 59.4492 298.785 62.9375 313.078 67.9023 C 316.992 69.2617 321.262 67.1875 322.621 63.2773 C 323.98 59.3633 321.91 55.0898 317.996 53.7305 C 299.086 47.1641 279.496 43.0039 259.535 41.2891 L 254.797 23.1172 C 252.84 15.6211 246.316 10.582 238.57 10.582 C 230.82 10.582 224.301 15.6211 222.344 23.1172 L 217.598 41.3047 C 183.383 44.2773 150.063 54.4805 120.184 71.2695 C 120.039 71.3516 119.898 71.4375 119.754 71.5195 L 119.754 21.4844 C 119.754 17.3398 116.395 13.9844 112.254 13.9844 C 108.109 13.9844 104.754 17.3398 104.754 21.4844 L 104.754 80.7539 C 76.5391 99.5273 52.3242 124.156 34.1094 152.824 C 31.8906 156.32 32.9258 160.957 36.4219 163.18 C 37.668 163.969 39.0586 164.348 40.4375 164.348 C 42.918 164.348 45.3438 163.117 46.7734 160.867 C 62.3828 136.297 82.1094 115.414 104.754 98.8672 L 104.754 128.914 C 104.754 133.059 108.109 136.414 112.254 136.414 C 116.395 136.414 119.754 133.059 119.754 128.914 L 119.754 88.8008 C 146.414 72.4258 176.398 61.6602 208.031 57.4258 C 197.984 69.4648 188.781 87.8477 180.496 112.492 C 167.105 152.301 156.938 207.363 151.543 268.793 C 132.527 243.766 103.148 229.059 71.3477 229.059 C 52.4375 229.059 34.0039 234.328 18.0391 244.297 C 17.1133 244.879 16.3398 244.605 15.8516 244.273 C 15.1641 243.813 14.8945 243.156 15.043 242.324 C 18.25 224.324 23.6523 206.73 31.1016 190.035 C 32.7891 186.254 31.0898 181.816 27.3086 180.133 C 23.5273 178.445 19.0898 180.141 17.4023 183.926 C 9.46094 201.73 3.69531 220.492 0.273438 239.695 C -0.917969 246.387 1.83203 252.902 7.44922 256.703 C 13.0898 260.516 20.1914 260.641 25.9844 257.02 C 39.5625 248.539 55.25 244.059 71.3477 244.059 C 100.898 244.059 128 258.977 143.848 283.961 C 146.883 288.754 152.086 291.676 157.762 291.781 C 163.523 291.906 168.887 289.109 172.152 284.352 C 185.766 264.508 207.398 251.906 231.07 249.695 L 231.07 388.082 C 224.145 391.016 219.27 397.883 219.27 405.863 L 219.27 461.281 C 219.27 489.246 242.023 512 269.992 512 C 297.957 512 320.711 489.246 320.711 461.281 C 320.711 450.641 312.055 441.98 301.41 441.98 C 290.77 441.98 282.113 450.641 282.113 461.281 C 282.113 467.965 276.676 473.402 269.992 473.402 C 263.305 473.402 257.871 467.965 257.871 461.281 L 257.871 405.863 C 257.871 397.883 252.996 391.016 246.07 388.082 L 246.07 249.695 C 269.742 251.906 291.375 264.508 304.988 284.352 C 308.195 289.023 313.438 291.785 319.066 291.781 L 319.379 291.781 C 325.055 291.676 330.254 288.754 333.293 283.961 C 349.137 258.977 376.238 244.059 405.793 244.059 C 421.891 244.059 437.578 248.539 451.156 257.02 C 456.949 260.637 464.051 260.516 469.688 256.703 C 475.309 252.902 478.059 246.387 476.867 239.695 Z M 236.859 26.9063 C 236.953 26.5469 237.207 25.5859 238.57 25.5859 C 239.938 25.5859 240.188 26.5469 240.285 26.9063 L 243.816 40.4453 C 242.07 40.4102 240.32 40.3906 238.57 40.3906 C 236.82 40.3906 235.07 40.4141 233.324 40.4531 Z M 269.992 488.402 C 284.945 488.402 297.113 476.234 297.113 461.281 C 297.113 458.91 299.043 456.98 301.414 456.98 C 303.781 456.98 305.711 458.91 305.711 461.281 C 305.711 480.977 289.688 497 269.992 497 C 250.297 497 234.273 480.977 234.273 461.281 L 234.273 405.863 C 234.273 403.496 236.203 401.566 238.57 401.566 C 240.941 401.566 242.871 403.496 242.871 405.863 L 242.871 461.281 C 242.871 476.234 255.039 488.402 269.992 488.402 Z M 238.57 234.344 C 210.895 234.344 184.797 246.336 166.77 266.883 C 179.172 129.367 212.391 55.3906 238.57 55.3906 C 253.219 55.3906 269.203 77.9453 282.43 117.273 C 295.223 155.309 305.016 207.922 310.375 266.887 C 292.348 246.336 266.25 234.344 238.57 234.344 Z"/><path d=" M 416.602 59.3125 C 420.746 59.3125 424.102 55.9531 424.102 51.8125 L 424.102 18.0859 C 424.102 13.9414 420.746 10.5859 416.602 10.5859 C 412.461 10.5859 409.102 13.9414 409.102 18.0859 L 409.102 51.8125 C 409.102 55.9531 412.461 59.3125 416.602 59.3125 Z"/><path d=" M 82.9336 81.1914 C 87.0781 81.1914 90.4336 77.8359 90.4336 73.6914 L 90.4336 54.6172 C 90.4336 50.4727 87.0781 47.1172 82.9336 47.1172 C 78.7891 47.1172 75.4336 50.4727 75.4336 54.6172 L 75.4336 73.6914 C 75.4336 77.8359 78.793 81.1914 82.9336 81.1914 Z"/><path d=" M 313.211 35.1914 C 317.355 35.1914 320.711 31.8359 320.711 27.6914 L 320.711 7.5 C 320.711 3.35547 317.355 0 313.211 0 C 309.066 0 305.711 3.35547 305.711 7.5 L 305.711 27.6914 C 305.711 31.8359 309.066 35.1914 313.211 35.1914 Z"/><path d=" M 456.113 131.047 C 460.258 131.047 463.613 127.688 463.613 123.547 L 463.613 103.352 C 463.613 99.2109 460.258 95.8516 456.113 95.8516 C 451.973 95.8516 448.613 99.2109 448.613 103.352 L 448.613 123.547 C 448.613 127.688 451.973 131.047 456.113 131.047 Z"/><path d=" M 21.0273 131.047 C 25.1719 131.047 28.5273 127.688 28.5273 123.547 L 28.5273 103.352 C 28.5273 99.2109 25.1719 95.8516 21.0273 95.8516 C 16.8867 95.8516 13.5273 99.2109 13.5273 103.352 L 13.5273 123.547 C 13.5273 127.688 16.8867 131.047 21.0273 131.047 Z"/></svg>