<svg version="1.1" width="661.333" height="661.333" viewBox="-32 0 496 496" xmlns="http://www.w3.org/2000/svg" xmlns:xlink="http://www.w3.org/1999/xlink" overflow="hidden"><path d=" M 8 376 L 8 440 C 8 448.801 15.1992 456 24 456 L 408 456 C 416.801 456 424 448.801 424 440 L 424 376 Z" fill="#CCD1D9"/><path d=" M 8 296 L 8 376 L 424 376 L 424 296 Z" fill="#CCD1D9"/><path d=" M 352 168 L 216 168 L 216 296 L 424 296 L 424 168 Z" fill="#969FAA"/><path d=" M 424 24 L 424 40 L 8 40 L 8 24 C 8 15.1992 15.1992 8 24 8 L 408 8 C 416.801 8 424 15.1992 424 24 Z" fill="#838F9B"/><path d=" M 408 456 L 392 488 L 40 488 L 24 456 Z" fill="#838F9B"/><path d=" M 384 200 L 384 296 L 328 296 L 328 248 L 304 248 L 304 200 Z" fill="#FCD770"/><path d=" M 328 40 L 216 40 L 216 168 L 424 168 L 424 40 Z" fill="#AAB2BD"/><path d=" M 348.238 88.2383 C 349.441 88.0781 350.719 88 352 88 C 374.078 88 392 105.922 392 128 C 392 150.078 374.078 168 352 168 C 329.922 168 312 150.078 312 128 C 312 119.039 314.961 110.801 319.922 104.152 C 326.48 95.2813 336.641 89.2813 348.238 88.2383 Z" fill="#FF826E"/><path d=" M 284.238 88.2383 C 285.441 88.0781 286.719 88 288 88 C 301.121 88 312.641 94.3984 319.922 104.152 C 314.961 110.801 312 119.039 312 128 C 312 150.078 329.922 168 352 168 L 288 168 C 265.922 168 248 150.078 248 128 C 248 107.199 263.922 90.0781 284.238 88.2383 Z" fill="#FF826E"/><path d=" M 328 248 L 328 296 L 248 296 L 248 248 Z" fill="#FFEAA7"/><path d=" M 280 376 L 280 392 C 280 400.801 272.801 408 264 408 L 168 408 C 159.199 408 152 400.801 152 392 L 152 376 Z" fill="#838F9B"/><path d=" M 280 296 L 280 312 C 280 320.801 272.801 328 264 328 L 168 328 C 159.199 328 152 320.801 152 312 L 152 296 Z" fill="#838F9B"/><path d=" M 8 40 L 8 296 L 216 296 L 216 40 Z" fill="#CCD1D9"/><path d=" M 216 168 L 216 248 L 200 248 C 191.199 248 184 240.801 184 232 L 184 104 C 184 95.1992 191.199 88 200 88 L 216 88 Z" fill="#838F9B"/><path d=" M 408 0 L 24 0 C 10.7695 0 0 10.7695 0 24 L 0 440 C 0 451.426 8.03906 460.969 18.7422 463.375 L 35.0547 496 L 396.945 496 L 413.258 463.375 C 423.961 460.969 432 451.426 432 440 L 432 24 C 432 10.7695 421.23 0 408 0 Z M 24 16 L 408 16 C 412.406 16 416 19.5859 416 24 L 416 32 L 16 32 L 16 24 C 16 19.5859 19.5938 16 24 16 Z M 160 384 L 272 384 L 272 392 C 272 396.414 268.406 400 264 400 L 168 400 C 163.594 400 160 396.414 160 392 Z M 16 368 L 16 304 L 144 304 L 144 312 C 144 325.23 154.77 336 168 336 L 264 336 C 277.23 336 288 325.23 288 312 L 288 304 L 416 304 L 416 368 Z M 376 288 L 336 288 L 336 240 L 312 240 L 312 208 L 376 208 Z M 320 256 L 320 288 L 256 288 L 256 256 Z M 272 304 L 272 312 C 272 316.414 268.406 320 264 320 L 168 320 C 163.594 320 160 316.414 160 312 L 160 304 Z M 208 240 L 200 240 C 195.594 240 192 236.414 192 232 L 192 104 C 192 99.5859 195.594 96 200 96 L 208 96 Z M 208 80 L 200 80 C 186.77 80 176 90.7695 176 104 L 176 232 C 176 245.23 186.77 256 200 256 L 208 256 L 208 288 L 16 288 L 16 48 L 208 48 Z M 392 288 L 392 192 L 296 192 L 296 240 L 240 240 L 240 288 L 224 288 L 224 176 L 416 176 L 416 288 Z M 256 128 C 256 113.688 265.504 101.688 278.48 97.6094 C 279.465 102.297 280 107.105 280 112 L 296 112 C 296 106.832 295.48 101.754 294.594 96.7773 C 300.352 98 305.551 100.879 309.871 105.031 C 306.129 111.855 304 119.688 304 128 C 304 140.305 308.688 151.496 316.32 160 L 288 160 C 270.352 160 256 145.648 256 128 Z M 344 112 L 360 112 C 360 106.809 359.48 101.695 358.574 96.6953 C 373.07 99.7344 384 112.609 384 128 C 384 145.648 369.648 160 352 160 C 334.352 160 320 145.648 320 128 C 320 113.688 329.504 101.688 342.48 97.6094 C 343.465 102.297 344 107.105 344 112 Z M 387.68 160 C 395.313 151.496 400 140.305 400 128 C 400 102.145 379.441 81.0547 353.816 80.0898 C 349.586 69.6016 343.273 59.9609 335.031 51.7188 L 333.664 50.3438 L 322.336 61.6406 L 323.711 63.0234 C 329.406 68.7188 333.91 75.2656 337.273 82.3281 C 330.77 84.4336 324.895 87.9023 319.93 92.3828 C 311.641 84.8633 301.129 80.5273 289.816 80.1055 C 285.586 69.6094 279.273 59.9688 271.031 51.7266 L 269.664 50.3516 L 258.336 61.6484 L 259.711 63.0313 C 265.406 68.7266 269.91 75.2734 273.273 82.3359 C 253.992 88.5664 240 106.672 240 128 C 240 140.305 244.688 151.496 252.32 160 L 224 160 L 224 48 L 416 48 L 416 160 Z M 44.9453 480 L 36.9453 464 L 395.055 464 L 387.055 480 Z M 408 448 L 24 448 C 19.5938 448 16 444.414 16 440 L 16 384 L 144 384 L 144 392 C 144 405.23 154.77 416 168 416 L 264 416 C 277.23 416 288 405.23 288 392 L 288 384 L 416 384 L 416 440 C 416 444.414 412.406 448 408 448 Z"/></svg>