<svg version="1.1" width="512" height="512" viewBox="0 0 256 256" xmlns="http://www.w3.org/2000/svg" xmlns:xlink="http://www.w3.org/1999/xlink" id="Layer_1" overflow="hidden"><g><g><path d=" M 243.63 62.398 L 211.285 62.398 L 211.285 88.106 L 243.63 88.106 C 248.252 88.106 252 82.351 252 75.252 C 252 68.153 248.253 62.398 243.63 62.398 Z" fill="#DEA42E"/></g><g><path d=" M 243.63 90.106 L 211.285 90.106 C 210.181 90.106 209.285 89.21 209.285 88.106 L 209.285 62.397 C 209.285 61.293 210.181 60.397 211.285 60.397 L 243.63 60.397 C 249.445 60.397 254 66.921 254 75.251 C 254 83.581 249.445 90.106 243.63 90.106 Z M 213.285 86.106 L 243.63 86.106 C 247.083 86.106 250 81.135 250 75.252 C 250 69.369 247.083 64.398 243.63 64.398 L 213.285 64.398 L 213.285 86.106 Z" fill="#690589"/></g><g><path d=" M 195.646 21.974 L 52.976 21.974 L 52.976 128.53 L 195.646 128.53 C 214.805 128.53 230.337 104.677 230.337 75.252 C 230.337 45.827 214.805 21.974 195.646 21.974 Z" fill="#F4EFED"/></g><g><path d=" M 52.976 128.53 L 113.59 128.53 L 113.59 127.344 L 113.59 89.273 L 52.976 89.273 Z" fill="#D6D1CF"/></g><g><path d=" M 195.646 21.974 L 179.08 21.974 C 198.239 21.974 213.771 45.827 213.771 75.252 C 213.771 104.677 198.239 128.53 179.08 128.53 L 195.646 128.53 C 214.805 128.53 230.337 104.677 230.337 75.252 C 230.337 45.827 214.805 21.974 195.646 21.974 Z" fill="#D6D1CF"/></g><g><path d=" M 195.646 130.53 L 52.976 130.53 C 51.872 130.53 50.976 129.634 50.976 128.53 L 50.976 21.974 C 50.976 20.87 51.872 19.974 52.976 19.974 L 195.645 19.974 C 215.876 19.974 232.336 44.772 232.336 75.252 C 232.336 105.732 215.877 130.53 195.646 130.53 Z M 54.976 126.53 L 195.645 126.53 C 213.671 126.53 228.336 103.527 228.336 75.252 C 228.336 46.977 213.671 23.974 195.645 23.974 L 54.976 23.974 L 54.976 126.53 Z" fill="#690589"/></g><g><ellipse cx="52.976" cy="75.252" rx="34.691" ry="53.278" fill="#FFFFFF"/></g><g><ellipse cx="52.976" cy="75.252" rx="16.74" ry="25.708" fill="#7BAC51"/></g><g><path d=" M 52.976 130.53 C 32.745 130.53 16.285 105.732 16.285 75.252 C 16.285 44.772 32.744 19.974 52.976 19.974 C 73.208 19.974 89.667 44.772 89.667 75.252 C 89.667 105.732 73.208 130.53 52.976 130.53 Z M 52.976 23.974 C 34.95 23.974 20.285 46.977 20.285 75.252 C 20.285 103.527 34.95 126.53 52.976 126.53 C 71.002 126.53 85.667 103.527 85.667 75.252 C 85.667 46.977 71.001 23.974 52.976 23.974 Z" fill="#690589"/></g><g><path d=" M 52.976 102.961 C 42.643 102.961 34.237 90.53 34.237 75.252 C 34.237 59.974 42.643 47.544 52.976 47.544 C 63.309 47.544 71.716 59.974 71.716 75.252 C 71.716 90.53 63.309 102.961 52.976 102.961 Z M 52.976 51.544 C 44.849 51.544 38.237 62.18 38.237 75.252 C 38.237 88.325 44.849 98.961 52.976 98.961 C 61.103 98.961 67.716 88.325 67.716 75.252 C 67.715 62.18 61.103 51.544 52.976 51.544 Z" fill="#690589"/></g><g><path d=" M 12.37 88.106 L 67.47 88.106 C 68.895 84.324 69.715 79.936 69.715 75.252 C 69.715 70.568 68.895 66.18 67.47 62.398 L 12.37 62.398 L 12.37 88.106 Z" fill="#FCC24C"/></g><g><path d=" M 67.47 90.106 L 12.37 90.106 C 11.266 90.106 10.37 89.21 10.37 88.106 L 10.37 62.397 C 10.37 61.293 11.266 60.397 12.37 60.397 L 67.47 60.397 C 68.303 60.397 69.048 60.913 69.342 61.692 C 70.895 65.812 71.716 70.502 71.716 75.252 C 71.716 80.002 70.895 84.691 69.342 88.812 C 69.048 89.591 68.303 90.106 67.47 90.106 Z M 14.37 86.106 L 66.053 86.106 C 67.143 82.753 67.716 79.031 67.716 75.252 C 67.716 71.473 67.144 67.75 66.053 64.398 L 14.37 64.398 L 14.37 86.106 Z" fill="#690589"/></g><g><ellipse cx="12.37" cy="75.252" rx="8.37" ry="12.854" fill="#FCE06A"/></g><g><path d=" M 12.37 90.106 C 6.555 90.106 2 83.582 2 75.252 C 2 66.922 6.555 60.398 12.37 60.398 C 18.185 60.398 22.74 66.922 22.74 75.252 C 22.74 83.582 18.185 90.106 12.37 90.106 Z M 12.37 64.397 C 8.917 64.397 6 69.368 6 75.252 C 6 81.136 8.917 86.106 12.37 86.106 C 15.823 86.106 18.74 81.135 18.74 75.252 C 18.74 69.369 15.823 64.397 12.37 64.397 Z" fill="#690589"/></g><g><path d=" M 230.337 75.252 L 230.337 234.026 L 230.332 234.026 L 224.394 227.392 L 218.452 220.754 L 212.509 227.392 L 206.571 234.026 L 206.563 234.026 L 200.625 227.392 L 194.682 220.754 L 188.74 227.392 L 182.802 234.026 L 182.793 234.026 L 176.855 227.392 L 170.913 220.754 L 164.97 227.392 L 159.032 234.026 L 159.024 234.026 L 153.085 227.392 L 147.143 220.754 L 141.201 227.392 L 135.262 234.026 L 135.254 234.026 L 129.316 227.392 L 123.373 220.754 L 117.431 227.392 L 111.493 234.026 L 111.484 234.026 L 105.546 227.392 L 99.604 220.754 L 93.661 227.392 L 87.723 234.026 L 87.667 234.026 L 87.667 75.252 Z" fill="#F4EFED"/></g><g><path d=" M 213.77 74.283 L 213.77 225.984 L 218.452 220.754 L 224.394 227.392 L 230.332 234.026 L 230.337 234.026 L 230.337 75.252 Z" fill="#D6D1CF"/></g><g><path d=" M 230.336 236.026 C 229.767 236.026 229.221 235.784 228.842 235.36 L 218.451 223.753 L 208.061 235.36 C 207.302 236.208 205.831 236.208 205.072 235.36 L 194.681 223.753 L 184.291 235.36 C 183.532 236.208 182.061 236.208 181.302 235.36 L 170.911 223.753 L 160.521 235.36 C 159.762 236.208 158.291 236.208 157.532 235.36 L 147.142 223.753 L 136.751 235.36 C 135.992 236.208 134.521 236.208 133.762 235.36 L 123.372 223.753 L 112.981 235.36 C 112.222 236.208 110.751 236.208 109.992 235.36 L 99.602 223.753 L 89.213 235.36 C 88.834 235.784 88.292 236.026 87.723 236.026 C 86.619 236.026 85.667 235.13 85.667 234.026 L 85.667 75.252 C 85.667 74.148 86.563 73.252 87.667 73.252 C 88.771 73.252 89.667 74.148 89.667 75.252 L 89.667 228.856 L 98.114 219.419 C 98.873 218.571 100.336 218.571 101.094 219.419 L 111.489 231.031 L 121.884 219.419 C 122.643 218.571 124.106 218.571 124.864 219.419 L 135.259 231.031 L 145.654 219.419 C 146.413 218.571 147.876 218.571 148.634 219.419 L 159.029 231.031 L 169.424 219.419 C 170.183 218.571 171.646 218.571 172.404 219.419 L 182.799 231.031 L 193.194 219.419 C 193.953 218.571 195.416 218.571 196.174 219.419 L 206.569 231.031 L 216.964 219.419 C 217.723 218.571 219.186 218.571 219.944 219.419 L 228.339 228.797 L 228.339 75.252 C 228.339 74.148 229.235 73.252 230.339 73.252 C 231.443 73.252 232.339 74.148 232.339 75.252 L 232.339 234.026 C 232.336 235.131 231.441 236.026 230.336 236.026 Z" fill="#690589"/></g><g><path d=" M 95.417 145.177 C 94.313 145.177 93.417 144.281 93.417 143.177 L 93.417 128.53 C 93.417 127.426 94.313 126.53 95.417 126.53 C 96.521 126.53 97.417 127.426 97.417 128.53 L 97.417 143.176 C 97.417 144.281 96.521 145.177 95.417 145.177 Z" fill="#690589"/></g><g><path d=" M 224.576 102.961 L 216.576 102.961 C 215.472 102.961 214.576 102.065 214.576 100.961 C 214.576 99.857 215.472 98.961 216.576 98.961 L 224.576 98.961 C 225.68 98.961 226.576 99.857 226.576 100.961 C 226.576 102.065 225.681 102.961 224.576 102.961 Z M 208.576 102.961 L 200.576 102.961 C 199.472 102.961 198.576 102.065 198.576 100.961 C 198.576 99.857 199.472 98.961 200.576 98.961 L 208.576 98.961 C 209.68 98.961 210.576 99.857 210.576 100.961 C 210.576 102.065 209.681 102.961 208.576 102.961 Z M 192.576 102.961 L 184.576 102.961 C 183.472 102.961 182.576 102.065 182.576 100.961 C 182.576 99.857 183.472 98.961 184.576 98.961 L 192.576 98.961 C 193.68 98.961 194.576 99.857 194.576 100.961 C 194.576 102.065 193.681 102.961 192.576 102.961 Z M 176.576 102.961 L 168.576 102.961 C 167.472 102.961 166.576 102.065 166.576 100.961 C 166.576 99.857 167.472 98.961 168.576 98.961 L 176.576 98.961 C 177.68 98.961 178.576 99.857 178.576 100.961 C 178.576 102.065 177.681 102.961 176.576 102.961 Z M 160.576 102.961 L 152.576 102.961 C 151.472 102.961 150.576 102.065 150.576 100.961 C 150.576 99.857 151.472 98.961 152.576 98.961 L 160.576 98.961 C 161.68 98.961 162.576 99.857 162.576 100.961 C 162.576 102.065 161.681 102.961 160.576 102.961 Z M 144.576 102.961 L 136.576 102.961 C 135.472 102.961 134.576 102.065 134.576 100.961 C 134.576 99.857 135.472 98.961 136.576 98.961 L 144.576 98.961 C 145.68 98.961 146.576 99.857 146.576 100.961 C 146.576 102.065 145.681 102.961 144.576 102.961 Z M 128.576 102.961 L 120.576 102.961 C 119.472 102.961 118.576 102.065 118.576 100.961 C 118.576 99.857 119.472 98.961 120.576 98.961 L 128.576 98.961 C 129.68 98.961 130.576 99.857 130.576 100.961 C 130.576 102.065 129.681 102.961 128.576 102.961 Z M 112.576 102.961 L 104.576 102.961 C 103.472 102.961 102.576 102.065 102.576 100.961 C 102.576 99.857 103.472 98.961 104.576 98.961 L 112.576 98.961 C 113.68 98.961 114.576 99.857 114.576 100.961 C 114.576 102.065 113.681 102.961 112.576 102.961 Z M 96.576 102.961 L 88.576 102.961 C 87.472 102.961 86.576 102.065 86.576 100.961 C 86.576 99.857 87.472 98.961 88.576 98.961 L 96.576 98.961 C 97.68 98.961 98.576 99.857 98.576 100.961 C 98.576 102.065 97.681 102.961 96.576 102.961 Z" fill="#690589"/></g></g></svg>