<svg version="1.1" width="661.333" height="661.333" viewBox="0 0 496 496" xmlns="http://www.w3.org/2000/svg" xmlns:xlink="http://www.w3.org/1999/xlink" overflow="hidden"><path d=" M 90.4805 486.266 L 206.703 404.902 C 231.496 387.551 264.488 387.551 289.281 404.902 L 405.504 486.266 C 407.137 487.391 409.055 488 411.031 488 C 417.488 488 422.113 481.77 420.238 475.594 L 370.84 354.031 C 355.543 316.391 370.887 273.273 406.512 253.754 L 483.504 211.574 C 486.344 209.32 488 205.887 488 202.258 C 488 196.359 483.688 191.352 477.863 190.48 L 461.098 190.625 C 368.887 191.434 288.078 129.098 265.457 39.6953 L 259.281 15.2969 C 257.289 10.8555 252.871 8 248 8 C 243.129 8 238.711 10.8555 236.719 15.2969 L 230.695 39.0898 C 208 128.762 126.777 191.176 34.2813 190 L 18.5742 189.801 C 12.5039 190.688 8 195.895 8 202.031 C 8 205.801 9.71875 209.359 12.6719 211.711 L 89.4648 253.762 C 125.105 273.273 140.457 316.406 125.16 354.047 L 75.7617 475.594 C 73.8867 481.77 78.5117 488 84.9688 488 C 86.9453 488 88.8633 487.391 90.4805 486.266 Z" fill="#F0D365"/><g fill="#E8EFF4"><path d=" M 280 240 C 280 257.672 265.672 272 248 272 C 230.328 272 216 257.672 216 240 C 216 222.328 230.328 208 248 208 C 265.672 208 280 222.328 280 240 Z"/><path d=" M 264 168 C 264 176.836 256.836 184 248 184 C 239.164 184 232 176.836 232 168 C 232 159.164 239.164 152 248 152 C 256.836 152 264 159.164 264 168 Z"/><path d=" M 264 112 C 264 120.836 256.836 128 248 128 C 239.164 128 232 120.836 232 112 C 232 103.164 239.164 96 248 96 C 256.836 96 264 103.164 264 112 Z"/><path d=" M 336 240 C 336 248.836 328.836 256 320 256 C 311.164 256 304 248.836 304 240 C 304 231.164 311.164 224 320 224 C 328.836 224 336 231.164 336 240 Z"/><path d=" M 392 224 C 392 232.836 384.836 240 376 240 C 367.164 240 360 232.836 360 224 C 360 215.164 367.164 208 376 208 C 384.836 208 392 215.164 392 224 Z"/><path d=" M 192 240 C 192 248.836 184.836 256 176 256 C 167.164 256 160 248.836 160 240 C 160 231.164 167.164 224 176 224 C 184.836 224 192 231.164 192 240 Z"/><path d=" M 136 224 C 136 232.836 128.836 240 120 240 C 111.164 240 104 232.836 104 224 C 104 215.164 111.164 208 120 208 C 128.836 208 136 215.164 136 224 Z"/><path d=" M 224 304 C 224 312.836 216.836 320 208 320 C 199.164 320 192 312.836 192 304 C 192 295.164 199.164 288 208 288 C 216.836 288 224 295.164 224 304 Z"/><path d=" M 192 352 C 192 360.836 184.836 368 176 368 C 167.164 368 160 360.836 160 352 C 160 343.164 167.164 336 176 336 C 184.836 336 192 343.164 192 352 Z"/><path d=" M 304 304 C 304 312.836 296.836 320 288 320 C 279.164 320 272 312.836 272 304 C 272 295.164 279.164 288 288 288 C 296.836 288 304 295.164 304 304 Z"/><path d=" M 336 352 C 336 360.836 328.836 368 320 368 C 311.164 368 304 360.836 304 352 C 304 343.164 311.164 336 320 336 C 328.836 336 336 343.164 336 352 Z"/></g><path d=" M 411.031 496 C 407.398 496 403.902 494.895 400.93 492.816 L 284.703 411.465 C 262.754 396.09 233.246 396.09 211.297 411.465 L 95.0703 492.816 C 87.4805 498.137 76.3359 496.32 70.8164 488.879 C 67.4648 484.352 66.4805 478.664 68.1133 473.273 L 117.742 351.047 C 131.52 317.16 117.711 278.352 85.625 260.785 L 8.82422 218.734 C 8.42578 218.52 8.04688 218.266 7.6875 217.984 C 2.80859 214.098 -8.88178e-16 208.289 -8.88178e-16 202.031 C -8.88178e-16 192 7.49609 183.336 17.4258 181.887 C 17.8398 181.832 18.2656 181.793 18.6797 181.809 L 34.3828 182.008 C 35.2148 182.016 36.0469 182.023 36.8789 182.023 C 124.984 182.023 201.273 122.762 222.945 37.1289 L 228.969 13.3359 C 229.09 12.8789 229.238 12.4414 229.434 12.0156 C 232.711 4.71094 240 3.01981e-14 248 3.01981e-14 C 256 3.01981e-14 263.289 4.71094 266.574 12.0078 C 266.762 12.4336 266.922 12.8711 267.039 13.3281 L 273.215 37.7266 C 294.855 123.258 371.23 182.625 459.305 182.625 C 459.871 182.625 460.449 182.625 461.023 182.617 L 477.793 182.473 C 478.223 182.473 478.625 182.504 479.039 182.559 C 488.711 184.008 496 192.48 496 202.258 C 496 208.367 493.258 214.047 488.48 217.84 C 488.121 218.121 487.742 218.367 487.344 218.594 L 410.359 260.777 C 378.281 278.344 364.48 317.145 378.246 351.016 L 427.648 472.574 C 429.52 478.656 428.535 484.344 425.184 488.871 C 421.832 493.398 416.672 496 411.031 496 Z M 248 383.938 C 264.078 383.938 280.16 388.742 293.871 398.352 L 410.098 479.703 C 410.953 480.297 411.992 479.785 412.32 479.344 C 412.543 479.047 412.77 478.551 412.566 477.922 L 363.406 357.039 C 346.574 315.633 363.457 268.207 402.656 246.734 L 478.879 204.977 C 479.602 204.246 480 203.289 480 202.258 C 480 200.488 478.793 198.945 477.129 198.488 L 461.168 198.625 C 460.551 198.625 459.922 198.633 459.305 198.633 C 363.879 198.641 281.152 134.328 257.703 41.6641 L 251.742 18.1211 C 250.184 15.5195 245.824 15.5195 244.258 18.1211 L 238.449 41.0547 C 214.977 133.809 132.313 198.016 36.8711 198.016 C 35.9766 198.016 35.0703 198.016 34.1758 198 L 19.2734 197.809 C 17.375 198.305 16 200.039 16 202.031 C 16 203.199 16.457 204.289 17.2656 205.105 L 93.3125 246.742 C 132.52 268.215 149.398 315.641 132.566 357.063 L 83.1758 478.602 C 83.1602 478.602 83.4336 479.023 83.6719 479.344 C 84 479.785 85.0391 480.297 85.8945 479.703 L 202.121 398.352 C 215.84 388.742 231.922 383.938 248 383.938 Z"/><path d=" M 248 280 C 225.945 280 208 262.055 208 240 C 208 217.945 225.945 200 248 200 C 270.055 200 288 217.945 288 240 C 288 262.055 270.055 280 248 280 Z M 248 216 C 234.77 216 224 226.77 224 240 C 224 253.23 234.77 264 248 264 C 261.23 264 272 253.23 272 240 C 272 226.77 261.23 216 248 216 Z"/><path d=" M 248 192 C 234.77 192 224 181.23 224 168 C 224 154.77 234.77 144 248 144 C 261.23 144 272 154.77 272 168 C 272 181.23 261.23 192 248 192 Z M 248 160 C 243.586 160 240 163.594 240 168 C 240 172.406 243.586 176 248 176 C 252.414 176 256 172.406 256 168 C 256 163.594 252.414 160 248 160 Z"/><path d=" M 248 136 C 234.77 136 224 125.23 224 112 C 224 98.7695 234.77 88 248 88 C 261.23 88 272 98.7695 272 112 C 272 125.23 261.23 136 248 136 Z M 248 104 C 243.586 104 240 107.594 240 112 C 240 116.406 243.586 120 248 120 C 252.414 120 256 116.406 256 112 C 256 107.594 252.414 104 248 104 Z"/><path d=" M 320 264 C 306.77 264 296 253.23 296 240 C 296 226.77 306.77 216 320 216 C 333.23 216 344 226.77 344 240 C 344 253.23 333.23 264 320 264 Z M 320 232 C 315.586 232 312 235.594 312 240 C 312 244.406 315.586 248 320 248 C 324.414 248 328 244.406 328 240 C 328 235.594 324.414 232 320 232 Z"/><path d=" M 376 248 C 362.77 248 352 237.23 352 224 C 352 210.77 362.77 200 376 200 C 389.23 200 400 210.77 400 224 C 400 237.23 389.23 248 376 248 Z M 376 216 C 371.586 216 368 219.594 368 224 C 368 228.406 371.586 232 376 232 C 380.414 232 384 228.406 384 224 C 384 219.594 380.414 216 376 216 Z"/><path d=" M 176 264 C 162.77 264 152 253.23 152 240 C 152 226.77 162.77 216 176 216 C 189.23 216 200 226.77 200 240 C 200 253.23 189.23 264 176 264 Z M 176 232 C 171.586 232 168 235.594 168 240 C 168 244.406 171.586 248 176 248 C 180.414 248 184 244.406 184 240 C 184 235.594 180.414 232 176 232 Z"/><path d=" M 120 248 C 106.77 248 96 237.23 96 224 C 96 210.77 106.77 200 120 200 C 133.23 200 144 210.77 144 224 C 144 237.23 133.23 248 120 248 Z M 120 216 C 115.586 216 112 219.594 112 224 C 112 228.406 115.586 232 120 232 C 124.414 232 128 228.406 128 224 C 128 219.594 124.414 216 120 216 Z"/><path d=" M 208 328 C 194.77 328 184 317.23 184 304 C 184 290.77 194.77 280 208 280 C 221.23 280 232 290.77 232 304 C 232 317.23 221.23 328 208 328 Z M 208 296 C 203.586 296 200 299.586 200 304 C 200 308.414 203.586 312 208 312 C 212.414 312 216 308.414 216 304 C 216 299.586 212.414 296 208 296 Z"/><path d=" M 176 376 C 162.77 376 152 365.23 152 352 C 152 338.77 162.77 328 176 328 C 189.23 328 200 338.77 200 352 C 200 365.23 189.23 376 176 376 Z M 176 344 C 171.586 344 168 347.586 168 352 C 168 356.414 171.586 360 176 360 C 180.414 360 184 356.414 184 352 C 184 347.586 180.414 344 176 344 Z"/><path d=" M 136 392 L 152 392 L 152 408 L 136 408 Z"/><path d=" M 288 328 C 274.77 328 264 317.23 264 304 C 264 290.77 274.77 280 288 280 C 301.23 280 312 290.77 312 304 C 312 317.23 301.23 328 288 328 Z M 288 296 C 283.586 296 280 299.586 280 304 C 280 308.414 283.586 312 288 312 C 292.414 312 296 308.414 296 304 C 296 299.586 292.414 296 288 296 Z"/><path d=" M 320 376 C 306.77 376 296 365.23 296 352 C 296 338.77 306.77 328 320 328 C 333.23 328 344 338.77 344 352 C 344 365.23 333.23 376 320 376 Z M 320 344 C 315.586 344 312 347.586 312 352 C 312 356.414 315.586 360 320 360 C 324.414 360 328 356.414 328 352 C 328 347.586 324.414 344 320 344 Z"/><path d=" M 344 392 L 360 392 L 360 408 L 344 408 Z"/><path d=" M 240 352 L 256 352 L 256 368 L 240 368 Z"/><path d=" M 240 320 L 256 320 L 256 336 L 240 336 Z"/><path d=" M 266.34 218.344 L 338.34 146.344 L 349.652 157.656 L 277.652 229.656 Z"/><path d=" M 146.34 157.656 L 157.656 146.344 L 229.652 218.344 L 218.34 229.656 Z"/></svg>