<svg width="231" height="79" viewBox="0 0 231 79" xmlns="http://www.w3.org/2000/svg" xmlns:xlink="http://www.w3.org/1999/xlink" id="Layer_1" xml:space="preserve" overflow="hidden"><rect x="0.78" y="0.761" width="229.339" height="77.776" id="rect2223" fill="#FFFFFF" fill-opacity="0"/><g id="g2225" transform="translate(1.55968 -5.45889)"><path d="M89.241 47.789C96.991 46.124 95.933 36.852 95.706 34.826 95.324 31.701 91.651 26.244 86.667 26.68 80.392 27.239 79.476 36.303 79.476 36.303 78.626 40.5 81.504 49.458 89.241 47.789M103.633 32.246C107.911 32.246 111.369 27.316 111.369 21.226 111.369 15.135 107.911 10.213 103.633 10.213 99.353 10.213 95.886 15.135 95.886 21.226 95.886 27.316 99.352 32.246 103.633 32.246M122.077 32.971C127.804 33.721 131.473 27.612 132.207 22.983 132.957 18.36 129.257 12.983 125.212 12.06 121.149 11.126 116.077 17.63 115.62 21.873 115.063 27.063 116.356 32.238 122.077 32.971M144.756 40.748C144.756 38.534 142.923 31.86 136.097 31.86 129.257 31.86 128.353 38.158 128.353 42.608 128.353 46.855 128.707 52.779 137.201 52.595 145.686 52.407 144.756 42.977 144.756 40.748M136.097 60.184C136.097 60.184 127.244 53.336 122.077 45.932 115.061 35.015 105.107 39.461 101.779 45.005 98.461 50.563 93.303 54.073 92.565 55.005 91.82 55.918 81.873 61.293 84.08 71.108 86.292 80.915 94.049 80.729 94.049 80.729 94.049 80.729 99.766 81.288 106.396 79.805 113.04 78.326 118.756 80.168 118.756 80.168 118.756 80.168 134.254 85.365 138.489 75.365 142.729 65.373 136.097 60.184 136.097 60.184" id="path2227" fill="#2319DC"/><path d="M105.008 50.637 105.008 57.225 99.64 57.225C99.64 57.225 94.275 57.67 92.397 63.751 91.742 67.811 92.975 70.202 93.19 70.713 93.407 71.223 95.141 74.193 99.495 75.065L109.568 75.065 109.568 50.709 105.008 50.637ZM104.927 71.067 100.869 71.067C100.869 71.067 98.042 70.92 97.181 67.665 96.737 66.223 97.247 64.557 97.471 63.902 97.676 63.246 98.625 61.73 100.582 61.146L104.926 61.146 104.927 71.067 104.927 71.067Z" id="path2229" fill="#FFFFFF"/><path d="M112.037 57.816 112.037 70.64C112.037 70.64 112.247 73.831 116.747 74.994L128.339 74.994 128.339 57.814 123.336 57.814 123.336 70.711 118.562 70.711C118.562 70.711 117.036 70.489 116.749 69.263L116.749 57.74 112.037 57.816Z" id="path2231" fill="#FFFFFF"/><path d="M183.57 49.396 183.57 43.99 147.958 43.99 147.912 49.476 163.222 49.476 161.786 52.757 148.766 52.757 148.766 79.886 179.695 79.886C182.928 79.886 182.641 76.62 182.641 76.62L182.641 52.758 169.602 52.758 170.748 49.399 183.569 49.399 183.569 49.396ZM176.654 74.094C176.654 74.094 176.279 74.995 175.749 74.995L155.226 74.995 155.226 68.667 176.657 68.667 176.654 74.094 176.654 74.094ZM176.619 63.441 155.223 63.441 155.223 57.507 176.619 57.507 176.619 63.441 176.619 63.441Z" id="path2233" fill="#E10601"/><path d="M224.263 44.135 210.29 44.135 210.29 41.398 203.737 41.398 203.737 44 187.709 44 187.709 79.831 193.476 79.831 193.476 48.622 224.263 48.622 224.263 44.135ZM220.494 51.551 220.494 49.477 214.861 49.477 214.861 51.551 203.272 51.551 203.272 49.551 197.936 49.551 197.936 51.551 194.331 51.551 194.402 55.61 197.936 55.61 197.936 63.233 217.428 63.233C220.133 63.233 220.491 60.379 220.491 60.379L220.491 55.608 224.616 55.608 224.616 51.548 220.492 51.548 220.494 51.551 220.494 51.551ZM214.861 58.381C214.861 58.381 214.358 59.305 213.715 59.305L203.21 59.305 203.21 55.53 214.858 55.53 214.858 58.383 214.861 58.383 214.861 58.381ZM195.118 68.788 204.091 73.992C203.38 74.773 200.316 75.765 200.316 75.765L194.334 75.765 194.334 79.765 202.456 79.765C204.88 79.269 209.366 76.989 209.366 76.989 211.222 78.694 214.791 79.404 214.791 79.404L224.049 79.404 224.049 75.414 217.07 75.414C215.189 75.133 213.5 74.06 213.5 74.06L224.051 68.002 224.051 64.722 195.121 64.722 195.121 68.786 195.118 68.788 195.118 68.788ZM213.788 68.721 208.656 71.428 203.952 68.721 213.788 68.721Z" id="path2235" fill="#E10601"/><path d="M68.72 49.84 76.493 49.84 76.493 42.992 68.72 42.992 68.72 49.84ZM68.72 79.685 76.493 79.685 76.493 52.823 68.72 52.823 68.72 79.685Z" id="path2237" fill="#E10601"/><path d="M56.081 52.846 39.497 52.803 39.497 58.45 54.039 58.45C54.039 58.45 57.5 59.304 57.5 61.5L57.5 63.489 44.341 63.489C44.341 63.489 39.166 63.967 37.504 70.148 37.218 73.044 37.599 74.466 37.794 74.994 37.981 75.517 39.497 78.932 44.01 79.785L64.963 79.785 64.963 60.542C64.963 60.543 63.965 53.939 56.081 52.846M57.5 74.469 46.91 74.469C45.487 73.895 45.013 72.948 44.913 72.708 44.815 72.475 44.485 71.624 44.869 70.764 45.726 69.106 47.146 68.723 47.146 68.723L57.5 68.723 57.5 74.469Z" id="path2239" fill="#E10601"/><path d="M35.795 70.264C36.024 63.723 30.156 61.461 30.156 61.461 35.123 58.863 34.492 52.315 34.492 52.315 33.954 42.294 21.71 42.762 21.71 42.762L2.791 42.762 2.791 80.109 24.153 80.109C36.698 80.059 35.795 70.264 35.795 70.264M23.724 73.167 23.724 73.184 10.927 73.184 10.927 65.126 23.661 65.126 24.092 65.213C24.092 65.213 26.515 65.656 27.393 67.835 27.393 67.835 27.901 69.883 26.804 71.404 26.804 71.404 25.997 72.81 23.724 73.167M26.437 55.851C26.437 55.851 25.577 57.431 23.295 57.773L10.927 57.773 10.927 50.044 23.242 50.044C23.242 50.044 25.918 49.921 26.804 52.046 26.804 52.047 27.336 54.305 26.437 55.851" id="path2241" fill="#E10601"/></g></svg>