<svg version="1.1" width="681.333" height="681.333" viewBox="0 -10 512 511" xmlns="http://www.w3.org/2000/svg" xmlns:xlink="http://www.w3.org/1999/xlink" overflow="hidden"><path d=" M 288.313 234.563 C 288.313 252.406 273.844 266.875 256 266.875 C 238.152 266.875 223.684 252.406 223.684 234.563 C 223.684 216.715 238.152 202.246 256 202.246 C 273.844 202.246 288.313 216.715 288.313 234.563 Z" fill="#FFC15A"/><path d=" M 234.008 264.855 L 179.73 339.563 C 145.527 386.641 161.719 453.156 213.73 479.246 C 213.773 479.266 213.816 479.285 213.859 479.309 C 221.168 482.961 230.016 481.398 235.793 475.621 L 256 455.414 L 276.203 475.621 C 281.984 481.398 290.828 482.961 298.137 479.309 C 298.18 479.289 298.223 479.266 298.266 479.246 C 350.277 453.156 366.469 386.641 332.27 339.563 L 277.988 264.855 Z" fill="#FBC2C7"/><path d=" M 278.016 264.836 L 332.293 339.547 C 366.496 386.621 434.758 391.777 475.645 350.371 C 475.68 350.336 475.711 350.305 475.746 350.27 C 481.477 344.449 482.723 335.551 479.016 328.27 L 466.043 302.809 L 491.504 289.836 C 498.781 286.129 503.004 278.195 501.789 270.117 C 501.781 270.07 501.777 270.023 501.77 269.977 C 493.031 212.445 434.773 176.492 379.43 194.473 L 291.605 223.012 Z" fill="#FBC2C7"/><path d=" M 291.598 222.98 L 379.422 194.441 C 434.762 176.461 460.758 113.133 434.016 61.4531 C 433.992 61.4102 433.969 61.3672 433.949 61.3242 C 430.184 54.0742 422.105 50.1406 414.035 51.418 L 385.813 55.8867 L 381.344 27.6641 C 380.063 19.5938 373.828 13.1289 365.766 11.7891 C 365.719 11.7813 365.672 11.7695 365.625 11.7656 C 308.211 2.29688 256.016 46.5938 256.016 104.785 L 256.016 197.129 Z" fill="#FBC2C7"/><path d=" M 255.984 197.129 L 255.984 104.785 C 255.984 46.5938 203.789 2.29688 146.371 11.7656 C 146.324 11.7734 146.277 11.7813 146.23 11.7891 C 138.172 13.1289 131.934 19.5938 130.656 27.6641 L 126.188 55.8867 L 97.9609 51.418 C 89.8906 50.1406 81.8164 54.0742 78.0508 61.3242 C 78.0273 61.3672 78.0039 61.4102 77.9844 61.4531 C 51.2383 113.133 77.2383 176.461 132.578 194.441 L 220.402 222.98 Z" fill="#FBC2C7"/><path d=" M 220.391 223.008 L 132.566 194.473 C 77.2266 176.492 18.9688 212.445 10.2305 269.973 C 10.2227 270.02 10.2148 270.066 10.2109 270.117 C 8.99609 278.195 13.2148 286.125 20.4961 289.836 L 45.957 302.809 L 32.9844 328.27 C 29.2773 335.551 30.5234 344.445 36.2539 350.27 C 36.2891 350.301 36.3203 350.336 36.3555 350.371 C 77.2383 391.773 145.504 386.621 179.707 339.543 L 233.984 264.836 Z" fill="#FBC2C7"/><g fill="#FFC15A"><path d=" M 276.125 348.727 C 276.125 359.773 267.172 368.727 256.125 368.727 C 245.082 368.727 236.125 359.773 236.125 348.727 C 236.125 337.68 245.082 328.727 256.125 328.727 C 267.172 328.727 276.125 337.68 276.125 348.727 Z"/><path d=" M 384.617 269.719 C 384.617 280.766 375.66 289.719 364.617 289.719 C 353.57 289.719 344.617 280.766 344.617 269.719 C 344.617 258.672 353.57 249.719 364.617 249.719 C 375.66 249.719 384.617 258.672 384.617 269.719 Z"/><path d=" M 343 142.125 C 343 153.172 334.047 162.125 323 162.125 C 311.957 162.125 303 153.172 303 142.125 C 303 131.078 311.957 122.125 323 122.125 C 334.047 122.125 343 131.078 343 142.125 Z"/><path d=" M 208.793 142.273 C 208.793 153.32 199.836 162.273 188.793 162.273 C 177.746 162.273 168.793 153.32 168.793 142.273 C 168.793 131.23 177.746 122.273 188.793 122.273 C 199.836 122.273 208.793 131.23 208.793 142.273 Z"/><path d=" M 167.461 269.961 C 167.461 281.004 158.508 289.961 147.461 289.961 C 136.414 289.961 127.461 281.004 127.461 269.961 C 127.461 258.914 136.414 249.961 147.461 249.961 C 158.508 249.961 167.461 258.914 167.461 269.961 Z"/></g><path d=" M 511.68 268.641 L 511.656 268.473 C 507.047 238.145 489.434 211.508 463.328 195.398 C 450.512 187.488 436.348 182.555 421.797 180.691 C 432.473 170.633 441.031 158.313 446.75 144.383 C 458.402 116.004 456.996 84.1016 442.918 56.8984 L 442.824 56.7148 C 437.086 45.6719 424.895 39.5703 412.473 41.5391 L 394.125 44.4453 L 391.219 26.1016 C 389.254 13.6836 379.684 3.96484 367.41 1.92188 L 367.25 1.89453 C 336.98 -3.09375 306.211 5.42578 282.82 25.2773 C 271.336 35.0234 262.266 46.9688 256 60.2344 C 249.73 46.9688 240.66 35.0234 229.18 25.2773 C 205.789 5.42969 175.012 -3.09375 144.746 1.89844 L 144.59 1.92188 C 132.316 3.96484 122.746 13.6836 120.777 26.1016 L 117.875 44.4453 L 99.5273 41.5391 C 87.1094 39.5703 74.9102 45.6719 69.1758 56.7148 L 69.1016 56.8555 C 55.0039 84.1016 53.5977 116.004 65.2461 144.383 C 70.9688 158.313 79.5273 170.633 90.2031 180.691 C 75.6523 182.555 61.4883 187.488 48.6719 195.395 C 22.5664 211.508 4.95313 238.145 0.335938 268.516 C 0.335938 268.531 0.324219 268.609 0.320312 268.629 C -1.53125 280.934 4.75391 293.035 15.957 298.742 L 32.5078 307.18 L 24.0742 323.73 C 18.3672 334.93 20.3984 348.414 29.082 357.234 C 29.1445 357.305 29.2148 357.371 29.2813 357.438 C 48.9688 377.355 75.6172 388.406 103.387 388.406 C 106.012 388.406 108.648 388.309 111.289 388.109 C 126.305 386.977 140.664 382.641 153.531 375.594 C 150.805 390.012 151.121 405.008 154.684 419.637 C 161.938 449.445 181.828 474.43 209.27 488.195 L 209.387 488.25 L 209.387 488.254 C 220.516 493.816 233.969 491.582 242.863 482.691 L 256 469.555 L 269.133 482.691 C 274.766 488.32 282.23 491.281 289.773 491.281 C 294.137 491.281 298.527 490.293 302.609 488.254 L 302.75 488.184 C 330.172 474.43 350.059 449.445 357.316 419.641 C 360.875 405.008 361.191 390.012 358.465 375.598 C 371.332 382.645 385.695 386.977 400.711 388.109 C 403.352 388.309 405.984 388.41 408.609 388.41 C 436.375 388.41 463.027 377.355 482.715 357.441 L 482.871 357.285 C 491.602 348.418 493.633 334.93 487.922 323.73 L 479.488 307.18 L 496.039 298.746 C 507.242 293.035 513.527 280.934 511.68 268.641 Z M 256.125 338.727 C 261.641 338.727 266.125 343.211 266.125 348.727 C 266.125 354.242 261.641 358.727 256.125 358.727 C 250.613 358.727 246.125 354.242 246.125 348.727 C 246.125 343.211 250.613 338.727 256.125 338.727 Z M 256 256.875 C 243.695 256.875 233.684 246.863 233.684 234.563 C 233.684 222.258 243.695 212.246 256 212.246 C 268.301 212.246 278.313 222.258 278.313 234.563 C 278.313 246.863 268.305 256.875 256 256.875 Z M 83.75 136.785 C 74.332 113.852 75.4688 88.0664 86.8672 66.043 C 86.8867 66.0078 86.9023 65.9727 86.9219 65.9375 C 88.6875 62.5391 92.4961 60.6758 96.3984 61.293 L 124.621 65.7656 C 127.242 66.1797 129.922 65.5391 132.063 63.9805 C 134.211 62.418 135.648 60.0742 136.063 57.4531 L 140.531 29.2305 C 141.152 25.3242 144.102 22.2813 147.875 21.6523 L 148 21.6328 C 172.465 17.5977 197.336 24.4844 216.238 40.5273 C 235.141 56.5703 245.984 79.9883 245.984 104.781 L 245.984 120.379 C 245.984 120.59 246.004 120.793 246.016 121 L 246.016 122.277 C 246.016 127.801 250.492 132.277 256.016 132.277 C 261.535 132.277 266.016 127.801 266.016 122.277 L 266.016 104.785 C 266.016 79.9922 276.855 56.5703 295.762 40.5273 C 314.664 24.4844 339.535 17.5977 364 21.6328 C 364.059 21.6406 364.063 21.6445 364.125 21.6523 C 367.895 22.2813 370.848 25.3242 371.465 29.2305 L 375.934 57.4531 C 376.352 60.0742 377.789 62.4219 379.934 63.9805 C 382.082 65.5391 384.758 66.1797 387.375 65.7656 L 415.602 61.293 C 419.5 60.6758 423.313 62.5391 425.074 65.9375 C 425.094 65.9727 425.113 66.0117 425.133 66.0469 C 436.531 88.0703 437.664 113.852 428.25 136.785 C 418.832 159.723 399.91 177.27 376.332 184.934 L 291.988 212.34 C 290.867 210.531 289.613 208.816 288.242 207.199 L 314.602 170.918 C 317.301 171.707 320.098 172.133 322.938 172.133 C 324.516 172.133 326.105 172.008 327.695 171.758 C 335.609 170.504 342.563 166.242 347.273 159.762 C 351.984 153.277 353.887 145.348 352.633 137.434 C 351.379 129.52 347.117 122.566 340.637 117.855 C 334.152 113.148 326.227 111.242 318.309 112.496 C 310.395 113.75 303.441 118.012 298.73 124.492 C 294.023 130.977 292.117 138.906 293.371 146.82 C 294.094 151.363 295.805 155.586 298.359 159.25 L 272.074 195.43 C 267.113 193.383 261.688 192.25 256 192.25 C 250.313 192.25 244.887 193.383 239.93 195.43 L 213.594 159.184 C 216.063 155.566 217.719 151.422 218.426 146.969 C 219.68 139.055 217.773 131.125 213.063 124.641 C 203.34 111.258 184.543 108.285 171.16 118.008 C 157.777 127.727 154.801 146.527 164.523 159.91 C 170.387 167.977 179.547 172.262 188.836 172.262 C 191.727 172.262 194.629 171.832 197.449 170.984 L 223.762 207.199 C 222.391 208.813 221.137 210.527 220.016 212.336 L 135.672 184.93 C 112.09 177.27 93.1641 159.723 83.75 136.785 Z M 317.121 150.215 C 314.961 148.645 313.543 146.328 313.125 143.691 C 312.707 141.051 313.34 138.41 314.91 136.25 C 316.48 134.086 318.797 132.668 321.438 132.25 C 321.965 132.164 322.496 132.125 323.02 132.125 C 325.117 132.125 327.152 132.781 328.875 134.035 C 331.039 135.605 332.457 137.922 332.875 140.563 C 333.293 143.199 332.66 145.84 331.09 148.004 C 329.52 150.164 327.203 151.582 324.563 152 C 321.93 152.422 319.281 151.785 317.121 150.215 Z M 180.699 148.152 C 177.461 143.691 178.453 137.426 182.914 134.184 C 187.375 130.941 193.641 131.938 196.883 136.395 C 198.453 138.559 199.086 141.199 198.668 143.836 C 198.25 146.477 196.832 148.793 194.668 150.363 C 190.211 153.605 183.941 152.613 180.699 148.152 Z M 109.781 368.168 C 85.0664 370.035 60.8906 360.988 43.4688 343.344 C 43.4219 343.297 43.3711 343.246 43.3203 343.199 L 43.3789 343.254 C 40.6992 340.531 40.1016 336.332 41.8945 332.809 L 54.8672 307.352 C 57.375 302.43 55.4219 296.406 50.5 293.898 L 25.0391 280.926 C 21.5156 279.133 19.5313 275.383 20.1016 271.59 C 20.1016 271.578 20.1172 271.488 20.1211 271.477 C 23.8438 246.965 38.0781 225.438 59.1797 212.418 C 80.2734 199.395 105.898 196.32 129.48 203.984 L 213.82 231.387 C 213.742 232.438 213.688 233.492 213.688 234.563 C 213.688 235.637 213.742 236.699 213.82 237.754 L 171.207 251.598 C 168.531 248.137 165.098 245.277 161.082 243.234 C 153.945 239.594 145.816 238.957 138.195 241.43 C 130.574 243.906 124.371 249.203 120.734 256.344 C 117.098 263.48 116.457 271.609 118.934 279.23 C 121.41 286.852 126.703 293.055 133.844 296.691 C 138.125 298.875 142.762 299.977 147.434 299.977 C 150.551 299.977 153.684 299.484 156.734 298.492 C 164.355 296.016 170.555 290.723 174.195 283.582 C 176.281 279.484 177.379 275.063 177.469 270.594 L 220.008 256.773 C 221.125 258.582 222.383 260.297 223.754 261.91 L 171.617 333.668 C 157.043 353.727 134.504 366.301 109.781 368.168 Z M 156.371 274.5 C 155.156 276.879 153.094 278.645 150.551 279.473 C 148.008 280.297 145.301 280.082 142.922 278.871 C 140.543 277.656 138.773 275.59 137.949 273.051 C 137.125 270.512 137.34 267.801 138.551 265.422 C 139.766 263.043 141.832 261.273 144.371 260.449 C 145.387 260.121 146.434 259.957 147.473 259.957 C 149.027 259.957 150.574 260.324 152 261.051 C 154.379 262.266 156.145 264.332 156.973 266.871 C 157.797 269.41 157.582 272.121 156.371 274.5 Z M 337.883 414.91 C 332.02 438.988 315.957 459.176 293.754 470.32 C 293.727 470.332 293.695 470.348 293.668 470.363 C 290.246 472.07 286.07 471.34 283.277 468.547 L 263.07 448.34 C 261.195 446.465 258.652 445.414 256 445.414 C 253.348 445.414 250.805 446.465 248.93 448.34 L 228.723 468.547 C 225.926 471.344 221.75 472.07 218.332 470.363 C 218.273 470.336 218.223 470.309 218.168 470.281 L 218.215 470.305 C 196.055 459.188 179.98 438.996 174.117 414.91 C 168.25 390.82 173.246 365.5 187.82 345.441 L 239.941 273.699 C 241.891 274.504 243.914 275.164 246 275.668 L 246 320.488 C 234.426 324.652 226.125 335.738 226.125 348.727 C 226.125 365.266 239.582 378.727 256.125 378.727 C 272.668 378.727 286.125 365.266 286.125 348.727 C 286.125 335.641 277.703 324.496 266 320.402 L 266 275.668 C 268.082 275.164 270.105 274.504 272.055 273.699 L 324.18 345.441 C 338.75 365.5 343.746 390.82 337.883 414.91 Z M 486.961 280.926 L 461.5 293.898 C 456.582 296.406 454.625 302.43 457.133 307.348 L 470.105 332.809 C 471.891 336.316 471.309 340.492 468.594 343.277 C 468.574 343.301 468.551 343.324 468.531 343.344 C 451.109 360.988 426.922 370.031 402.219 368.168 C 377.496 366.301 354.957 353.727 340.383 333.668 L 288.25 261.91 C 289.621 260.297 290.875 258.578 291.996 256.77 L 334.613 270.621 C 334.742 274.996 335.84 279.324 337.887 283.34 C 341.523 290.48 347.727 295.773 355.348 298.25 C 358.398 299.242 361.531 299.734 364.648 299.734 C 369.316 299.734 373.957 298.629 378.234 296.449 C 385.375 292.813 390.672 286.609 393.148 278.988 C 395.625 271.367 394.984 263.238 391.348 256.098 C 387.707 248.961 381.508 243.664 373.887 241.188 C 366.266 238.711 358.137 239.352 350.996 242.988 C 346.898 245.078 343.414 248.012 340.715 251.57 L 298.18 237.75 C 298.258 236.695 298.313 235.637 298.313 234.563 C 298.313 233.492 298.262 232.434 298.18 231.383 L 382.52 203.98 C 406.098 196.32 431.723 199.395 452.824 212.414 C 473.922 225.438 488.156 246.961 491.871 271.418 L 491.902 271.602 C 492.469 275.383 490.484 279.129 486.961 280.926 Z M 355.105 266.629 C 355.93 264.09 357.695 262.023 360.078 260.809 C 361.504 260.082 363.047 259.715 364.605 259.715 C 365.645 259.715 366.688 259.879 367.707 260.211 C 370.246 261.035 372.313 262.801 373.523 265.18 C 374.738 267.559 374.953 270.27 374.125 272.809 C 373.301 275.352 371.535 277.418 369.156 278.629 C 366.777 279.844 364.066 280.055 361.527 279.23 C 358.984 278.406 356.918 276.641 355.707 274.258 C 354.492 271.879 354.281 269.168 355.105 266.629 Z"/><path d=" M 256 172.277 C 258.629 172.277 261.207 171.211 263.066 169.348 C 264.926 167.477 266 164.91 266 162.277 C 266 159.648 264.93 157.07 263.066 155.199 C 261.207 153.34 258.629 152.277 256 152.277 C 253.367 152.277 250.789 153.34 248.93 155.199 C 247.07 157.07 246 159.648 246 162.277 C 246 164.91 247.066 167.477 248.93 169.348 C 250.789 171.211 253.367 172.277 256 172.277 Z"/></svg>