<svg version="1.1" width="661.333" height="661.333" viewBox="0 0 496 496.01" xmlns="http://www.w3.org/2000/svg" xmlns:xlink="http://www.w3.org/1999/xlink" overflow="hidden"><path d=" M 56.0039 96.0117 C 56.0039 104.848 48.8398 112.012 40.0039 112.012 C 31.168 112.012 24.0039 104.848 24.0039 96.0117 C 24.0039 87.1758 31.168 80.0117 40.0039 80.0117 C 48.8398 80.0117 56.0039 87.1758 56.0039 96.0117 Z" fill="#F5C70C"/><path d=" M 472.004 376.012 L 464.004 488.012 L 432.004 488.012 L 424.004 376.012 Z" fill="#736357"/><path d=" M 424.004 376.012 L 432.004 488.012 L 448.004 488.012 L 456.004 376.012 Z" fill="#998675"/><path d=" M 72.0039 376.012 L 64.0039 488.012 L 32.0039 488.012 L 24.0039 376.012 Z" fill="#736357"/><path d=" M 24.0039 376.012 L 32.0039 488.012 L 48.0039 488.012 L 56.0039 376.012 Z" fill="#998675"/><path d=" M 8.00391 328.012 L 488.004 328.012 L 488.004 376.012 L 8.00391 376.012 Z" fill="#736357"/><path d=" M 8.00391 328.012 L 464.004 328.012 L 464.004 376.012 L 8.00391 376.012 Z" fill="#998675"/><path d=" M 24.0039 232.012 L 472.004 232.012 L 472.004 328.012 L 24.0039 328.012 Z" fill="#736357"/><path d=" M 24.0039 232.012 L 448.004 232.012 L 448.004 328.012 L 24.0039 328.012 Z" fill="#998675"/><path d=" M 88.0039 232.012 L 288.004 32.0117 L 264.004 8.01172 L 40.0039 232.012 Z" fill="#736357"/><path d=" M 40.0039 232.012 L 64.0039 232.012 L 272.004 24.0117 L 260.004 12.0117 Z" fill="#998675"/><path d=" M 472.004 336.012 L 24.0039 336.012 C 19.5898 336.012 16.0039 332.434 16.0039 328.012 L 16.0039 232.012 C 16.0039 227.586 19.5898 224.012 24.0039 224.012 L 184.004 224.012 L 184.004 240.012 L 32.0039 240.012 L 32.0039 320.012 L 464.004 320.012 L 464.004 240.012 L 312.004 240.012 L 312.004 224.012 L 472.004 224.012 C 476.422 224.012 480.004 227.586 480.004 232.012 L 480.004 328.012 C 480.004 332.434 476.422 336.012 472.004 336.012 Z"/><path d=" M 93.6602 237.668 L 82.3477 226.355 L 276.691 32.0117 L 264.004 19.3242 L 45.6602 237.668 L 34.3477 226.355 L 258.348 2.35547 C 261.477 -0.773438 266.531 -0.773438 269.66 2.35547 L 293.66 26.3555 C 296.789 29.4805 296.789 34.5391 293.66 37.668 Z"/><path d=" M 250.348 69.6719 L 261.66 58.3555 L 429.656 226.352 L 418.344 237.668 Z"/><path d=" M 56.0039 296.012 L 440.004 296.012 L 440.004 328.012 L 56.0039 328.012 Z" fill="#FFFFFF"/><path d=" M 96.0039 296.012 L 112.004 296.012 L 112.004 328.012 L 96.0039 328.012 Z"/><path d=" M 128.004 296.012 L 144.004 296.012 L 144.004 328.012 L 128.004 328.012 Z"/><path d=" M 384.004 296.012 L 400.004 296.012 L 400.004 328.012 L 384.004 328.012 Z"/><path d=" M 352.004 296.012 L 368.004 296.012 L 368.004 328.012 L 352.004 328.012 Z"/><path d=" M 320.004 296.012 L 336.004 296.012 L 336.004 328.012 L 320.004 328.012 Z"/><path d=" M 160.004 296.012 L 176.004 296.012 L 176.004 328.012 L 160.004 328.012 Z"/><path d=" M 288.004 296.012 L 304.004 296.012 L 304.004 328.012 L 288.004 328.012 Z"/><path d=" M 192.004 296.012 L 208.004 296.012 L 208.004 328.012 L 192.004 328.012 Z"/><path d=" M 256.004 296.012 L 272.004 296.012 L 272.004 328.012 L 256.004 328.012 Z"/><path d=" M 224.004 296.012 L 240.004 296.012 L 240.004 328.012 L 224.004 328.012 Z"/><path d=" M 312.004 208.012 L 312.004 264.012 L 184.004 264.012 L 184.004 184.012 L 288.004 184.012 Z" fill="#00FFFF"/><path d=" M 272.004 184.012 L 184.004 184.012 L 184.004 264.012 L 296.004 264.012 L 296.004 208.012 Z" fill="#FFFFFF"/><path d=" M 64.0039 496.012 L 32.0039 496.012 C 27.8125 496.012 24.3242 492.77 24.0195 488.578 L 16.0195 376.578 C 15.8594 374.363 16.6367 372.18 18.1484 370.555 C 19.668 368.93 21.7813 368.012 24.0039 368.012 L 72.0039 368.012 C 74.2305 368.012 76.3398 368.93 77.8594 370.555 C 79.375 372.18 80.1406 374.363 79.9883 376.578 L 71.9883 488.578 C 71.6836 492.77 68.1953 496.012 64.0039 496.012 Z M 39.4531 480.012 L 56.5586 480.012 L 63.4141 384.012 L 32.5977 384.012 Z"/><path d=" M 464.004 496.012 L 432.004 496.012 C 427.813 496.012 424.324 492.77 424.02 488.578 L 416.02 376.578 L 431.98 375.434 L 439.453 480.012 L 456.559 480.012 L 464.027 375.441 L 479.988 376.586 L 471.988 488.586 C 471.684 492.77 468.195 496.012 464.004 496.012 Z"/><path d=" M 32.0039 448.012 L 64.0039 448.012 L 64.0039 464.012 L 32.0039 464.012 Z"/><path d=" M 432.004 448.012 L 464.004 448.012 L 464.004 464.012 L 432.004 464.012 Z"/><path d=" M 384.004 96.0117 C 384.004 104.848 376.84 112.012 368.004 112.012 C 359.168 112.012 352.004 104.848 352.004 96.0117 C 352.004 87.1758 359.168 80.0117 368.004 80.0117 C 376.84 80.0117 384.004 87.1758 384.004 96.0117 Z" fill="#F5C70C"/><path d=" M 448.004 80.0117 C 448.004 88.8477 440.84 96.0117 432.004 96.0117 C 423.168 96.0117 416.004 88.8477 416.004 80.0117 C 416.004 71.1758 423.168 64.0117 432.004 64.0117 C 440.84 64.0117 448.004 71.1758 448.004 80.0117 Z" fill="#F5C70C"/><path d=" M 432.004 104.012 C 418.773 104.012 408.004 93.2422 408.004 80.0117 C 408.004 66.7773 418.773 56.0117 432.004 56.0117 C 445.238 56.0117 456.004 66.7773 456.004 80.0117 C 456.004 93.2422 445.238 104.012 432.004 104.012 Z M 432.004 72.0117 C 427.598 72.0117 424.004 75.5938 424.004 80.0117 C 424.004 84.4258 427.598 88.0117 432.004 88.0117 C 436.414 88.0117 440.004 84.4258 440.004 80.0117 C 440.004 75.5938 436.414 72.0117 432.004 72.0117 Z"/><path d=" M 368.004 120.012 C 354.773 120.012 344.004 109.242 344.004 96.0117 C 344.004 82.7773 354.773 72.0117 368.004 72.0117 C 381.238 72.0117 392.004 82.7773 392.004 96.0117 C 392.004 109.242 381.238 120.012 368.004 120.012 Z M 368.004 88.0117 C 363.598 88.0117 360.004 91.5938 360.004 96.0117 C 360.004 100.426 363.598 104.012 368.004 104.012 C 372.414 104.012 376.004 100.426 376.004 96.0117 C 376.004 91.5938 372.414 88.0117 368.004 88.0117 Z"/><path d=" M 392.004 96.0117 L 376.004 96.0117 L 376.004 32.0117 C 376.004 28.6758 378.078 25.6914 381.195 24.5156 L 445.195 0.515625 C 447.66 -0.414062 450.398 -0.0625 452.566 1.42578 C 454.719 2.92969 456.004 5.38672 456.004 8.01172 L 456.004 80.0117 L 440.004 80.0117 L 440.004 19.5547 L 392.004 37.5547 Z"/><path d=" M 40.0039 120.012 C 33.5977 120.012 27.5664 117.516 23.0273 112.977 C 13.6758 103.617 13.6758 88.4023 23.0273 79.043 C 32.0938 69.9766 47.9023 69.9766 56.9648 79.043 C 66.3164 88.4023 66.3164 103.617 56.9648 112.977 C 52.4453 117.516 46.4141 120.012 40.0039 120.012 Z M 40.0039 88.0117 C 37.8711 88.0117 35.8594 88.8438 34.3477 90.3555 C 31.2305 93.4727 31.2305 98.5469 34.3477 101.668 C 37.375 104.699 42.6445 104.699 45.6602 101.668 C 48.7813 98.5469 48.7813 93.4727 45.6602 90.3555 C 44.1484 88.8438 42.1406 88.0117 40.0039 88.0117 Z"/><path d=" M 64.0039 96.0117 L 48.0039 96.0117 L 48.0039 8.01172 C 48.0039 4.77734 49.957 1.85156 52.9414 0.617188 C 55.9258 -0.636719 59.3633 0.0585938 61.6602 2.35547 L 101.66 42.3555 L 90.3477 53.668 L 64.0039 27.3242 Z"/><path d=" M 8.00391 136.012 L 40.0039 136.012 L 40.0039 152.012 L 8.00391 152.012 Z"/><path d=" M 88.0039 80.0117 L 104.004 80.0117 L 104.004 112.012 L 88.0039 112.012 Z"/><path d=" M 112.004 16.0117 L 144.004 16.0117 L 144.004 32.0117 L 112.004 32.0117 Z"/><path d=" M 328.004 8.01172 L 344.004 8.01172 L 344.004 40.0117 L 328.004 40.0117 Z"/><path d=" M 424.004 120.012 L 456.004 120.012 L 456.004 136.012 L 424.004 136.012 Z"/><path d=" M 480.004 72.0117 L 496.004 72.0117 L 496.004 104.012 L 480.004 104.012 Z"/><path d=" M 394.348 157.672 L 405.66 146.355 L 429.66 170.359 L 418.348 181.672 Z"/><path d=" M 312.004 272.012 L 184.004 272.012 C 179.59 272.012 176.004 268.434 176.004 264.012 L 176.004 184.012 C 176.004 179.586 179.59 176.012 184.004 176.012 L 288.004 176.012 C 290.125 176.012 292.164 176.852 293.66 178.355 L 317.66 202.355 C 319.164 203.852 320.004 205.883 320.004 208.012 L 320.004 264.012 C 320.004 268.434 316.422 272.012 312.004 272.012 Z M 192.004 256.012 L 304.004 256.012 L 304.004 211.324 L 284.691 192.012 L 192.004 192.012 Z"/><path d=" M 240.004 184.012 L 256.004 184.012 L 256.004 264.012 L 240.004 264.012 Z"/><path d=" M 448.004 328.012 L 432.004 328.012 L 432.004 304.012 L 64.0039 304.012 L 64.0039 328.012 L 48.0039 328.012 L 48.0039 296.012 C 48.0039 291.586 51.5898 288.012 56.0039 288.012 L 440.004 288.012 C 444.422 288.012 448.004 291.586 448.004 296.012 Z"/><path d=" M 488.004 384.012 L 8.00391 384.012 C 3.58984 384.012 0.00390625 380.434 0.00390625 376.012 L 0.00390625 328.012 C 0.00390625 323.586 3.58984 320.012 8.00391 320.012 L 488.004 320.012 C 492.422 320.012 496.004 323.586 496.004 328.012 L 496.004 376.012 C 496.004 380.434 492.422 384.012 488.004 384.012 Z M 16.0039 368.012 L 480.004 368.012 L 480.004 336.012 L 16.0039 336.012 Z"/></svg>