<svg version="1.1" viewBox="0 0 512.001 512.001" xmlns="http://www.w3.org/2000/svg" xmlns:xlink="http://www.w3.org/1999/xlink" id="Layer_1" overflow="hidden"><path d=" M 112.668 288.673 L 10.005 350.672 L 46.005 375.344 L 162.668 497.343 L 227.339 403.344 Z" fill="#FFCE54"/><path d=" M 143.004 266.673 L 118.676 284.345 L 227.339 393 L 242.675 368.672 Z" fill="#CCD1D9"/><path d=" M 215.675 256.001 L 203.339 256.001 L 153.004 254.001 L 145.676 265.329 L 245.675 366.672 L 256.003 365 L 256.003 286.673 Z" fill="#ED5564"/><path d=" M 480.673 10.331 L 456.346 21.644 L 227.339 251.673 L 236.05 271.501 L 259.003 284.673 L 507.673 32.331 Z" fill="#FFE1C5"/><path d=" M 512.001 32.003 C 512.001 23.456 508.673 15.409 502.626 9.378 C 496.595 3.331 488.548 0.003 480.001 0.003 C 471.454 0.003 463.423 3.331 457.377 9.378 L 217.918 248.845 L 155.137 241.861 C 151.918 241.502 148.707 242.627 146.418 244.923 L 131.816 259.532 C 125.488 264.391 61.856 312.985 5.903 340.97 C 2.833 342.501 0.692 345.408 0.137 348.797 C -0.409 352.188 0.699 355.625 3.129 358.031 L 27.895 382.812 C 27.918 382.843 27.942 382.859 27.965 382.874 L 123.691 478.607 C 123.707 478.623 123.73 478.654 123.746 478.654 L 153.957 508.873 C 155.973 510.889 158.691 511.998 161.496 511.998 C 162.066 511.998 162.637 511.951 163.207 511.857 C 166.59 511.31 169.504 509.169 171.043 506.091 C 199.019 450.138 247.612 386.498 252.48 380.186 L 267.082 365.592 C 269.371 363.295 270.496 360.092 270.137 356.873 L 263.168 294.093 L 502.626 54.628 C 508.673 48.581 512.001 40.534 512.001 32.003 Z M 157.879 263.626 L 216.933 270.188 L 229.371 282.626 L 241.808 295.064 L 248.37 354.126 L 244.456 358.032 L 153.957 267.549 L 157.879 263.626 Z M 137.926 281.689 L 146.418 290.173 L 146.418 290.173 C 142.254 294.345 142.254 301.095 146.418 305.251 C 148.496 307.345 151.23 308.376 153.957 308.376 C 156.691 308.376 159.418 307.345 161.496 305.251 L 161.504 305.251 L 176.582 320.345 C 172.418 324.501 172.418 331.251 176.582 335.407 C 178.668 337.501 181.394 338.532 184.121 338.532 C 186.855 338.532 189.582 337.501 191.668 335.423 L 191.668 335.407 L 206.746 350.5 L 206.746 350.5 C 202.582 354.672 202.582 361.422 206.746 365.594 C 208.832 367.672 211.558 368.719 214.293 368.719 C 217.02 368.719 219.746 367.672 221.832 365.594 L 221.832 365.594 L 230.324 374.078 C 228.527 376.469 226.355 379.375 223.894 382.734 L 129.269 288.11 C 132.621 285.642 135.535 283.47 137.926 281.689 Z M 158.754 483.499 L 144.066 468.811 C 157.855 439.702 184.909 402.437 185.206 402.031 C 188.667 397.281 187.62 390.593 182.862 387.125 C 178.104 383.657 171.433 384.719 167.964 389.469 C 166.808 391.063 143.261 423.484 128.144 452.906 L 101.168 425.906 L 116.253 410.844 C 120.417 406.672 120.417 399.907 116.253 395.751 C 112.082 391.595 105.332 391.595 101.168 395.751 L 86.082 410.844 L 53.934 378.689 C 66.363 372.658 84.715 362.939 100.012 351.501 C 104.731 347.97 105.692 341.299 102.168 336.58 C 98.644 331.861 91.957 330.892 87.238 334.424 C 70.355 347.032 48.582 357.736 37.903 362.657 L 28.497 353.251 C 58.84 336.877 89.442 316.471 111.731 300.736 L 211.269 400.282 C 195.535 422.562 175.136 453.155 158.754 483.499 Z M 487.548 39.534 L 251.995 275.095 L 244.456 267.548 L 236.917 260.001 L 472.47 24.456 C 474.486 22.44 477.158 21.331 480.001 21.331 C 482.86 21.331 485.532 22.44 487.548 24.456 C 489.564 26.472 490.673 29.159 490.673 32.003 C 490.673 34.847 489.563 37.534 487.548 39.534 Z"/><g></g><g></g><g></g><g></g><g></g><g></g><g></g><g></g><g></g><g></g><g></g><g></g><g></g><g></g><g></g></svg>