<svg version="1.1" viewBox="0 0 470 470" xmlns="http://www.w3.org/2000/svg" xmlns:xlink="http://www.w3.org/1999/xlink" id="Capa_1" overflow="hidden"><g><path d=" M 235 447.5 C 353.798 447.5 450.906 352.85 454.874 235 L 15.126 235 C 19.094 352.85 116.202 447.5 235 447.5 Z M 122.27 361.75 C 126.416 361.75 129.774 365.108 129.774 369.25 C 129.774 373.392 126.416 376.75 122.274 376.75 C 118.13 376.75 114.77 373.39 114.77 369.25 C 114.77 365.11 118.13 361.75 122.27 361.75 Z M 92.27 331.75 C 96.416 331.75 99.774 335.108 99.774 339.25 C 99.774 343.392 96.416 346.75 92.274 346.75 C 88.13 346.75 84.77 343.39 84.77 339.25 C 84.77 335.11 88.13 331.75 92.27 331.75 Z" fill="#19ABBF"/><path d=" M 438.696 220 C 436.924 215.02 433.428 210.717 428.718 207.999 C 426.697 206.834 425.334 204.795 425.03 202.481 C 424.726 200.168 425.515 197.846 427.165 196.197 C 432.848 190.518 435.09 182.182 433.016 174.442 C 430.942 166.702 424.832 160.603 417.07 158.526 C 414.817 157.922 412.972 156.305 412.08 154.151 C 411.187 151.996 411.349 149.548 412.516 147.529 C 416.536 140.572 416.544 131.939 412.537 125 C 408.532 118.062 401.056 113.754 393.024 113.754 C 390.681 113.754 388.482 112.67 387.063 110.82 C 385.643 108.969 385.165 106.563 385.77 104.31 C 387.852 96.549 385.625 88.208 379.959 82.543 C 374.292 76.876 365.952 74.647 358.191 76.731 C 355.939 77.335 353.532 76.857 351.682 75.437 C 349.832 74.017 348.747 71.817 348.748 69.484 C 348.75 61.45 344.441 53.969 337.502 49.963 C 330.562 45.956 321.929 45.965 314.973 49.984 C 312.954 51.15 310.507 51.311 308.35 50.419 C 306.195 49.526 304.578 47.683 303.975 45.429 C 301.898 37.668 295.799 31.558 288.059 29.483 C 280.32 27.409 271.983 29.652 266.303 35.336 C 264.655 36.985 262.33 37.774 260.019 37.47 C 257.706 37.165 255.667 35.802 254.501 33.782 C 250.485 26.823 243.014 22.5 235 22.5 C 226.986 22.5 219.515 26.823 215.5 33.782 C 214.334 35.803 212.295 37.166 209.982 37.47 C 207.671 37.774 205.347 36.987 203.698 35.336 C 198.017 29.651 189.68 27.411 181.941 29.483 C 174.201 31.558 168.102 37.669 166.025 45.429 C 165.422 47.683 163.805 49.527 161.65 50.419 C 159.494 51.313 157.047 51.151 155.027 49.984 C 148.07 45.964 139.439 45.957 132.498 49.963 C 125.559 53.969 121.249 61.449 121.252 69.484 C 121.253 71.817 120.168 74.017 118.318 75.437 C 116.467 76.855 114.061 77.333 111.809 76.731 C 104.05 74.65 95.707 76.876 90.042 82.542 C 84.375 88.208 82.149 96.549 84.231 104.31 C 84.835 106.563 84.357 108.969 82.938 110.82 C 81.519 112.67 79.319 113.754 76.988 113.754 C 68.945 113.754 61.469 118.063 57.464 125 C 53.457 131.939 53.465 140.572 57.485 147.529 C 58.652 149.549 58.813 151.996 57.921 154.151 C 57.028 156.305 55.184 157.922 52.931 158.526 C 45.169 160.603 39.059 166.702 36.985 174.442 C 34.911 182.182 37.153 190.518 42.836 196.197 C 44.486 197.846 45.275 200.169 44.971 202.481 C 44.666 204.794 43.303 206.834 41.283 207.999 C 36.573 210.717 33.077 215.02 31.305 220 L 438.696 220 Z M 334.27 144.5 C 338.416 144.5 341.774 147.858 341.774 152 C 341.774 156.142 338.416 159.5 334.274 159.5 C 330.13 159.5 326.77 156.14 326.77 152 C 326.77 147.86 330.13 144.5 334.27 144.5 Z M 134.27 114.5 C 138.416 114.5 141.774 117.858 141.774 122 C 141.774 126.142 138.416 129.5 134.274 129.5 C 130.13 129.5 126.77 126.14 126.77 122 C 126.77 117.86 130.13 114.5 134.27 114.5 Z M 134.27 174.5 C 138.416 174.5 141.774 177.858 141.774 182 C 141.774 186.142 138.416 189.5 134.274 189.5 C 130.13 189.5 126.77 186.14 126.77 182 C 126.77 177.86 130.13 174.5 134.27 174.5 Z M 104.27 144.5 C 108.416 144.5 111.774 147.858 111.774 152 C 111.774 156.142 108.416 159.5 104.274 159.5 C 100.13 159.5 96.77 156.14 96.77 152 C 96.77 147.86 100.13 144.5 104.27 144.5 Z" fill="#FFFFFF"/><path d=" M 470 227.5 C 470 223.357 466.642 220 462.5 220 L 454.231 220 C 452.664 212.386 448.758 205.415 443.088 200.104 C 448.507 191.389 450.213 180.67 447.504 170.559 C 444.795 160.449 437.958 152.019 428.907 147.181 C 431.887 137.359 430.761 126.565 425.526 117.499 C 420.292 108.433 411.508 102.06 401.512 99.73 C 401.848 89.472 397.966 79.336 390.564 71.936 C 383.162 64.533 373.031 60.633 362.769 60.987 C 360.439 50.991 354.066 42.207 345 36.973 C 335.935 31.739 325.14 30.615 315.319 33.591 C 310.481 24.54 302.052 17.704 291.94 14.994 C 281.829 12.285 271.111 13.99 262.396 19.41 C 255.38 11.922 245.468 7.5 235 7.5 C 224.532 7.5 214.62 11.922 207.604 19.412 C 198.889 13.993 188.169 12.286 178.059 14.996 C 167.948 17.706 159.518 24.542 154.681 33.593 C 144.861 30.614 134.065 31.74 125 36.975 C 115.934 42.208 109.561 50.993 107.231 60.989 C 96.965 60.643 86.837 64.535 79.436 71.937 C 72.034 79.338 68.152 89.474 68.488 99.732 C 58.493 102.062 49.708 108.435 44.474 117.501 C 39.24 126.566 38.113 137.36 41.093 147.183 C 32.042 152.021 25.205 160.451 22.496 170.562 C 19.787 180.673 21.493 191.391 26.912 200.106 C 21.242 205.416 17.336 212.387 15.769 220.002 L 7.5 220.002 C 3.358 220.002 0 223.359 0 227.502 C 0 290.273 24.444 349.286 68.83 393.672 C 92.863 417.704 121.189 435.877 152.073 447.502 L 147.5 447.502 C 143.358 447.502 140 450.859 140 455.002 C 140 459.145 143.358 462.502 147.5 462.502 L 322.5 462.502 C 326.642 462.502 330 459.145 330 455.002 C 330 450.859 326.642 447.502 322.5 447.502 L 317.927 447.502 C 348.811 435.877 377.137 417.704 401.17 393.672 C 445.556 349.284 470 290.271 470 227.5 Z M 41.283 207.999 C 43.304 206.834 44.667 204.795 44.971 202.481 C 45.275 200.168 44.486 197.846 42.836 196.197 C 37.153 190.518 34.911 182.182 36.985 174.442 C 39.059 166.702 45.169 160.603 52.931 158.526 C 55.184 157.922 57.029 156.305 57.921 154.151 C 58.814 151.996 58.652 149.548 57.485 147.529 C 53.465 140.572 53.457 131.939 57.464 125 C 61.469 118.062 68.945 113.754 76.977 113.754 C 79.32 113.754 81.519 112.67 82.938 110.82 C 84.358 108.969 84.836 106.563 84.231 104.31 C 82.149 96.549 84.376 88.208 90.042 82.542 C 95.708 76.876 104.05 74.65 111.809 76.731 C 114.061 77.334 116.468 76.855 118.318 75.437 C 120.168 74.017 121.253 71.817 121.252 69.484 C 121.25 61.45 125.559 53.969 132.498 49.963 C 139.439 45.957 148.07 45.965 155.027 49.984 C 157.047 51.151 159.494 51.312 161.65 50.419 C 163.805 49.526 165.422 47.683 166.025 45.429 C 168.102 37.668 174.201 31.558 181.941 29.483 C 189.68 27.411 198.017 29.651 203.698 35.336 C 205.346 36.986 207.671 37.774 209.982 37.47 C 212.295 37.165 214.334 35.802 215.5 33.782 C 219.515 26.823 226.986 22.5 235 22.5 C 243.014 22.5 250.485 26.823 254.5 33.782 C 255.666 35.803 257.705 37.166 260.018 37.47 C 262.329 37.774 264.653 36.986 266.302 35.336 C 271.983 29.652 280.319 27.409 288.058 29.483 C 295.798 31.558 301.897 37.669 303.974 45.429 C 304.577 47.683 306.194 49.527 308.349 50.419 C 310.505 51.312 312.953 51.15 314.972 49.984 C 321.929 45.964 330.561 45.956 337.501 49.963 C 344.44 53.969 348.749 61.449 348.747 69.484 C 348.746 71.817 349.831 74.017 351.681 75.437 C 353.531 76.857 355.938 77.335 358.19 76.731 C 365.951 74.646 374.291 76.876 379.958 82.543 C 385.624 88.208 387.851 96.549 385.769 104.31 C 385.165 106.563 385.643 108.969 387.062 110.82 C 388.482 112.67 390.681 113.754 393.012 113.754 C 401.054 113.754 408.531 118.063 412.536 125 C 416.543 131.939 416.535 140.572 412.515 147.529 C 411.348 149.549 411.187 151.996 412.079 154.151 C 412.972 156.305 414.816 157.922 417.069 158.526 C 424.831 160.603 430.941 166.702 433.015 174.442 C 435.089 182.182 432.847 190.518 427.164 196.197 C 425.514 197.846 424.725 200.169 425.029 202.481 C 425.334 204.794 426.697 206.834 428.717 207.999 C 433.427 210.717 436.923 215.02 438.695 220 L 31.304 220 C 33.077 215.02 36.573 210.717 41.283 207.999 Z M 454.874 235 C 450.906 352.85 353.798 447.5 235 447.5 C 116.202 447.5 19.094 352.85 15.126 235 L 454.874 235 Z" fill="#1C1918"/><circle cx="122.274" cy="369.25" r="7.5" fill="#1C1918"/><circle cx="92.274" cy="339.25" r="7.5" fill="#1C1918"/><circle cx="134.274" cy="182" r="7.5" fill="#1C1918"/><circle cx="104.274" cy="152" r="7.5" fill="#1C1918"/><circle cx="334.274" cy="152" r="7.5" fill="#1C1918"/><circle cx="134.274" cy="122" r="7.5" fill="#1C1918"/></g><g></g><g></g><g></g><g></g><g></g><g></g><g></g><g></g><g></g><g></g><g></g><g></g><g></g><g></g><g></g></svg>