<svg version="1.1" viewBox="0 0 512 512" xmlns="http://www.w3.org/2000/svg" xmlns:xlink="http://www.w3.org/1999/xlink" id="Capa_1" overflow="hidden"><path d=" M 469.438 42.562 L 469.438 42.562 C 512.928 86.052 512.928 156.561 469.438 200.05 L 200.051 469.438 C 156.562 512.927 86.053 512.927 42.563 469.438 L 42.563 469.438 C -0.926 425.949 -0.926 355.439 42.563 311.95 L 311.95 42.562 C 355.44 -0.927 425.95 -0.927 469.438 42.562 Z" fill="#FCB17E"/><path d=" M 121.307 512 C 90.228 512 59.15 500.17 35.49 476.511 C -11.83 429.19 -11.83 352.196 35.49 304.877 L 304.878 35.489 C 352.199 -11.83 429.192 -11.829 476.511 35.489 C 523.831 82.81 523.831 159.804 476.511 207.123 L 372.825 310.81 C 368.919 314.716 362.586 314.716 358.679 310.81 C 354.773 306.904 354.773 300.571 358.679 296.664 L 462.366 192.977 C 501.886 153.457 501.886 89.155 462.366 49.635 C 422.846 10.115 358.543 10.115 319.023 49.635 L 49.636 319.023 C 10.116 358.543 10.116 422.845 49.636 462.365 C 89.156 501.885 153.459 501.885 192.979 462.365 L 302.383 352.961 C 306.289 349.055 312.622 349.055 316.529 352.961 C 320.436 356.867 320.435 363.2 316.529 367.107 L 207.125 476.511 C 183.464 500.17 152.386 512 121.307 512 Z"/><path d=" M 238.502 348.099 L 163.902 273.499 C 156.272 265.869 156.272 253.5 163.902 245.87 L 246.79 162.982 C 254.42 155.352 266.789 155.352 274.419 162.982 L 349.019 237.582 C 356.649 245.212 356.649 257.581 349.019 265.211 L 266.131 348.099 C 258.502 355.728 246.132 355.728 238.502 348.099 Z" fill="#FDCEAE"/><path d=" M 252.317 363.823 C 244.427 363.823 237.009 360.75 231.429 355.171 L 156.829 280.571 C 151.25 274.992 148.177 267.573 148.177 259.683 C 148.177 251.793 151.25 244.375 156.829 238.795 L 239.717 155.907 C 251.237 144.39 269.975 144.39 281.492 155.907 L 356.092 230.507 C 367.609 242.025 367.609 260.764 356.092 272.282 L 273.203 355.17 C 267.625 360.749 260.207 363.823 252.317 363.823 Z M 260.606 167.265 C 258.164 167.265 255.723 168.194 253.863 170.054 L 170.976 252.942 C 169.175 254.742 168.183 257.137 168.183 259.684 C 168.183 262.231 169.175 264.625 170.976 266.425 L 245.576 341.025 C 247.376 342.826 249.771 343.818 252.318 343.818 C 254.865 343.818 257.259 342.826 259.06 341.025 L 341.949 258.137 C 345.666 254.419 345.666 248.37 341.949 244.653 L 267.349 170.053 C 265.489 168.195 263.047 167.265 260.606 167.265 Z"/><path d=" M 128.032 309.242 C 125.391 309.242 122.821 308.182 120.95 306.311 C 119.09 304.451 118.019 301.88 118.019 299.239 C 118.019 296.608 119.089 294.028 120.95 292.167 C 122.82 290.307 125.391 289.236 128.032 289.236 C 130.663 289.236 133.233 290.306 135.104 292.167 C 136.964 294.027 138.035 296.608 138.035 299.239 C 138.035 301.88 136.965 304.45 135.104 306.311 C 133.233 308.182 130.663 309.242 128.032 309.242 Z"/><path d=" M 169.471 350.691 C 166.84 350.691 164.26 349.621 162.399 347.76 C 160.539 345.9 159.468 343.319 159.468 340.688 C 159.468 338.057 160.538 335.477 162.399 333.616 C 164.259 331.756 166.84 330.685 169.471 330.685 C 172.102 330.685 174.682 331.755 176.543 333.616 C 178.403 335.476 179.474 338.057 179.474 340.688 C 179.474 343.319 178.404 345.899 176.543 347.76 C 174.683 349.62 172.102 350.691 169.471 350.691 Z"/><path d=" M 210.921 392.129 C 208.28 392.129 205.71 391.069 203.839 389.198 C 201.979 387.338 200.918 384.767 200.918 382.126 C 200.918 379.495 201.978 376.915 203.839 375.054 C 205.699 373.194 208.28 372.123 210.921 372.123 C 213.552 372.123 216.132 373.193 217.993 375.054 C 219.853 376.914 220.924 379.495 220.924 382.126 C 220.924 384.767 219.854 387.337 217.993 389.198 C 216.122 391.07 213.551 392.129 210.921 392.129 Z"/><path d=" M 72.77 364.504 C 70.139 364.504 67.559 363.434 65.698 361.573 C 63.838 359.713 62.767 357.132 62.767 354.501 C 62.767 351.87 63.837 349.29 65.698 347.429 C 67.558 345.569 70.139 344.498 72.77 344.498 C 75.401 344.498 77.981 345.568 79.842 347.429 C 81.702 349.289 82.773 351.87 82.773 354.501 C 82.773 357.132 81.703 359.712 79.842 361.573 C 77.981 363.434 75.401 364.504 72.77 364.504 Z"/><path d=" M 114.209 405.953 C 111.578 405.953 108.998 404.883 107.137 403.022 C 105.277 401.152 104.206 398.581 104.206 395.95 C 104.206 393.309 105.276 390.739 107.137 388.868 C 108.997 387.008 111.578 385.947 114.209 385.947 C 116.85 385.947 119.42 387.007 121.281 388.868 C 123.151 390.738 124.212 393.309 124.212 395.95 C 124.212 398.581 123.152 401.151 121.281 403.022 C 119.42 404.882 116.85 405.953 114.209 405.953 Z"/><path d=" M 120.461 358.263 C 117.83 358.263 115.25 357.193 113.389 355.332 C 111.529 353.472 110.458 350.891 110.458 348.26 C 110.458 345.619 111.528 343.049 113.389 341.188 C 115.249 339.318 117.83 338.257 120.461 338.257 C 123.092 338.257 125.672 339.317 127.533 341.188 C 129.393 343.048 130.464 345.619 130.464 348.26 C 130.464 350.891 129.394 353.471 127.533 355.332 C 125.672 357.193 123.091 358.263 120.461 358.263 Z"/><path d=" M 161.9 399.702 C 159.269 399.702 156.689 398.632 154.828 396.771 C 152.968 394.911 151.897 392.33 151.897 389.699 C 151.897 387.068 152.967 384.488 154.828 382.627 C 156.688 380.767 159.269 379.696 161.9 379.696 C 164.531 379.696 167.111 380.766 168.972 382.627 C 170.842 384.487 171.903 387.068 171.903 389.699 C 171.903 392.33 170.843 394.91 168.972 396.771 C 167.111 398.631 164.53 399.702 161.9 399.702 Z"/><path d=" M 155.658 447.392 C 153.027 447.392 150.447 446.322 148.586 444.461 C 146.726 442.601 145.655 440.02 145.655 437.389 C 145.655 434.758 146.725 432.178 148.586 430.317 C 150.446 428.457 153.017 427.386 155.658 427.386 C 158.289 427.386 160.869 428.456 162.73 430.317 C 164.59 432.177 165.661 434.758 165.661 437.389 C 165.661 440.02 164.591 442.6 162.73 444.461 C 160.87 446.322 158.289 447.392 155.658 447.392 Z"/><path d=" M 383.979 222.763 C 381.338 222.763 378.758 221.693 376.897 219.832 C 375.037 217.972 373.966 215.391 373.966 212.76 C 373.966 210.129 375.036 207.549 376.897 205.688 C 378.767 203.818 381.338 202.757 383.979 202.757 C 386.61 202.757 389.18 203.817 391.051 205.688 C 392.911 207.548 393.982 210.129 393.982 212.76 C 393.982 215.391 392.912 217.971 391.051 219.832 C 389.19 221.693 386.61 222.763 383.979 222.763 Z"/><path d=" M 342.53 181.312 C 339.899 181.312 337.319 180.242 335.458 178.381 C 333.598 176.521 332.527 173.94 332.527 171.309 C 332.527 168.678 333.597 166.098 335.458 164.237 C 337.318 162.377 339.899 161.306 342.53 161.306 C 345.161 161.306 347.741 162.376 349.602 164.237 C 351.462 166.097 352.533 168.678 352.533 171.309 C 352.533 173.95 351.463 176.52 349.602 178.381 C 347.741 180.243 345.161 181.312 342.53 181.312 Z"/><path d=" M 301.091 139.874 C 298.45 139.874 295.88 138.804 294.009 136.943 C 292.149 135.073 291.088 132.502 291.088 129.871 C 291.088 127.23 292.148 124.66 294.009 122.789 C 295.879 120.929 298.45 119.868 301.091 119.868 C 303.722 119.868 306.302 120.928 308.163 122.789 C 310.023 124.659 311.094 127.23 311.094 129.871 C 311.094 132.502 310.024 135.072 308.163 136.943 C 306.292 138.803 303.721 139.874 301.091 139.874 Z"/><path d=" M 439.232 167.5 C 436.601 167.5 434.021 166.43 432.16 164.569 C 430.3 162.709 429.229 160.128 429.229 157.497 C 429.229 154.866 430.299 152.286 432.16 150.425 C 434.02 148.565 436.601 147.494 439.232 147.494 C 441.873 147.494 444.443 148.564 446.304 150.425 C 448.164 152.285 449.235 154.866 449.235 157.497 C 449.235 160.128 448.165 162.708 446.304 164.569 C 444.443 166.43 441.872 167.5 439.232 167.5 Z"/><path d=" M 397.792 126.05 C 395.151 126.05 392.581 124.99 390.72 123.129 C 388.86 121.269 387.789 118.688 387.789 116.047 C 387.789 113.416 388.859 110.836 390.72 108.975 C 392.58 107.115 395.151 106.054 397.792 106.054 C 400.423 106.054 403.003 107.114 404.864 108.975 C 406.724 110.845 407.795 113.416 407.795 116.047 C 407.795 118.688 406.725 121.258 404.864 123.129 C 403.003 124.991 400.423 126.05 397.792 126.05 Z"/><path d=" M 391.541 173.742 C 388.91 173.742 386.33 172.682 384.469 170.811 C 382.609 168.951 381.538 166.38 381.538 163.739 C 381.538 161.108 382.608 158.528 384.469 156.667 C 386.329 154.807 388.91 153.746 391.541 153.746 C 394.172 153.746 396.752 154.806 398.613 156.667 C 400.483 158.527 401.544 161.108 401.544 163.739 C 401.544 166.38 400.484 168.95 398.613 170.811 C 396.752 172.682 394.172 173.742 391.541 173.742 Z"/><path d=" M 350.102 132.302 C 347.461 132.302 344.891 131.232 343.03 129.371 C 341.16 127.511 340.099 124.93 340.099 122.299 C 340.099 119.668 341.159 117.088 343.03 115.227 C 344.89 113.367 347.461 112.296 350.102 112.296 C 352.733 112.296 355.313 113.366 357.174 115.227 C 359.034 117.087 360.105 119.668 360.105 122.299 C 360.105 124.93 359.035 127.51 357.174 129.371 C 355.313 131.231 352.732 132.302 350.102 132.302 Z"/><path d=" M 356.343 84.612 C 353.712 84.612 351.132 83.542 349.271 81.681 C 347.411 79.821 346.34 77.24 346.34 74.609 C 346.34 71.978 347.41 69.398 349.271 67.537 C 351.131 65.677 353.712 64.606 356.343 64.606 C 358.984 64.606 361.554 65.676 363.415 67.537 C 365.275 69.397 366.346 71.978 366.346 74.609 C 366.346 77.24 365.276 79.82 363.415 81.681 C 361.554 83.541 358.984 84.612 356.343 84.612 Z"/><path d=" M 336.749 342.749 C 334.108 342.749 331.538 341.679 329.677 339.818 C 327.807 337.958 326.746 335.377 326.746 332.746 C 326.746 330.105 327.806 327.535 329.677 325.674 C 331.537 323.804 334.108 322.743 336.749 322.743 C 339.38 322.743 341.96 323.803 343.821 325.674 C 345.681 327.534 346.752 330.115 346.752 332.746 C 346.752 335.377 345.682 337.957 343.821 339.818 C 341.96 341.679 339.379 342.749 336.749 342.749 Z"/><g></g><g></g><g></g><g></g><g></g><g></g><g></g><g></g><g></g><g></g><g></g><g></g><g></g><g></g><g></g></svg>