<svg version="1.1" width="682.667" height="682.667" viewBox="-65 0 511 512" xmlns="http://www.w3.org/2000/svg" xmlns:xlink="http://www.w3.org/1999/xlink" overflow="hidden"><g fill-rule="evenodd"><path d=" M 50.5 50 L 330.5 50 L 330.5 502 L 370.5 502 L 370.5 10 L 10.5 10 L 10.5 502 L 50.5 502 Z" fill="#C58965"/><path d=" M 330.5 50 L 50.5 50 L 50.5 502 L 330.5 502 Z M 150.5 276 L 150.5 150 C 150.5 128 168.5 110 190.5 110 C 212.5 110 230.5 128.004 230.5 150 L 230.5 442 L 150.5 442 Z M 280.496 255.996 C 291.543 255.996 300.496 264.953 300.496 276 C 300.496 287.043 291.543 296 280.496 296 C 269.449 296 260.496 287.047 260.496 276 C 260.496 264.953 269.449 255.996 280.496 255.996 Z" fill="#DCA98A"/><path d=" M 230.5 150 C 230.5 128.004 212.5 110 190.5 110 C 168.5 110 150.5 128 150.5 150 L 150.5 276 L 230.5 276 Z" fill="#CEE3FF"/><path d=" M 150.5 276 L 230.5 276 L 230.5 442 L 150.5 442 Z" fill="#CEE3FF"/><path d=" M 300.5 276 C 300.5 287.047 291.543 296 280.496 296 C 269.453 296 260.496 287.047 260.496 276 C 260.496 264.953 269.453 256 280.496 256 C 291.543 256 300.5 264.953 300.5 276 Z" fill="#FFC059"/></g><path d=" M 370.5 0 L 130.5 0 C 124.977 0 120.5 4.47656 120.5 10 C 120.5 15.5234 124.977 20 130.5 20 L 360.5 20 L 360.5 492 L 340.5 492 L 340.5 481.992 C 340.5 476.473 336.023 471.996 330.5 471.996 C 324.977 471.996 320.5 476.473 320.5 481.992 L 320.5 492 L 60.5 492 L 60.5 60 L 320.5 60 L 320.5 401.996 C 320.5 407.516 324.977 411.996 330.5 411.996 C 336.023 411.996 340.5 407.516 340.5 401.996 L 340.5 50 C 340.5 44.4766 336.023 40 330.5 40 L 50.5 40 C 44.9766 40 40.5 44.4766 40.5 50 L 40.5 492 L 20.5 492 L 20.5 20 L 50.5 20 C 56.0234 20 60.5 15.5234 60.5 10 C 60.5 4.47656 56.0234 -5.68434e-14 50.5 -5.68434e-14 L 10.5 -5.68434e-14 C 4.97656 -5.68434e-14 0.5 4.47656 0.5 10 L 0.5 502 C 0.5 507.523 4.97656 512 10.5 512 L 370.5 512 C 376.023 512 380.5 507.523 380.5 502 L 380.5 10 C 380.5 4.47656 376.023 -5.68434e-14 370.5 -5.68434e-14 Z"/><path d=" M 250.496 276 C 250.496 292.543 263.953 306 280.496 306 C 297.039 306 310.5 292.543 310.5 276 C 310.5 259.457 297.039 246 280.496 246 C 263.953 246 250.496 259.457 250.496 276 Z M 290.5 276 C 290.5 281.516 286.012 286 280.496 286 C 274.984 286 270.496 281.516 270.496 276 C 270.496 270.484 274.984 266 280.496 266 C 286.012 266 290.5 270.484 290.5 276 Z"/><path d=" M 140.5 150 L 140.5 442 C 140.5 447.52 144.977 452 150.5 452 L 230.5 452 C 236.023 452 240.5 447.52 240.5 442 L 240.5 150 C 240.5 122.43 218.07 100 190.5 100 C 162.93 100 140.5 122.43 140.5 150 Z M 160.5 432 L 160.5 286 L 220.5 286 L 220.5 432 Z M 220.5 150 L 220.5 266 L 160.5 266 L 160.5 150 C 160.5 133.461 173.957 120 190.5 120 C 207.043 120 220.5 133.461 220.5 150 Z"/><path d=" M 90.5039 20 C 96.0273 20 100.504 15.5234 100.504 10 C 100.504 4.47656 96.0273 0 90.5039 0 L 90.4961 0 C 84.9727 0 80.5 4.47656 80.5 10 C 80.5 15.5234 84.9805 20 90.5039 20 Z"/><path d=" M 330.5 431.996 C 324.977 431.996 320.5 436.477 320.5 442 C 320.5 447.52 324.977 452 330.5 452 C 336.023 452 340.5 447.52 340.5 442 L 340.5 441.992 C 340.5 436.469 336.023 431.996 330.5 431.996 Z"/></svg>