<svg version="1.1" viewBox="0 0 512 512" xmlns="http://www.w3.org/2000/svg" xmlns:xlink="http://www.w3.org/1999/xlink" id="Layer_1" overflow="hidden"><ellipse cx="191.369" cy="83.667" rx="145.548" ry="75.474" fill="#F9B04E"/><path d=" M 288.836 56.524 C 295.821 62.97 299.741 70.214 299.741 77.873 C 299.741 104.763 251.388 126.558 191.737 126.558 C 132.086 126.558 83.733 104.763 83.733 77.873 C 83.733 50.98 132.086 29.184 191.737 29.184 C 220.4 29.184 246.453 34.216 265.787 42.426" fill="#F9BF73"/><path d=" M 213.036 98.798 C 206.343 99.616 199.181 100.06 191.737 100.06 C 154.662 100.06 124.607 89.067 124.607 75.51 C 124.607 61.95 154.662 50.957 191.737 50.957 C 228.814 50.957 258.869 61.95 258.869 75.51 C 258.869 82.124 251.717 88.127 240.086 92.542" fill="#F9D19B"/><path d=" M 276.268 429.463 C 282.276 371.278 280.386 314.225 280.386 314.225 C 280.386 314.225 284.169 432.37 324.504 477.073 C 355.595 461.739 374.655 441.045 374.655 418.254 C 334.207 384.754 336.962 283.378 336.962 283.378 L 336.962 278.437 C 336.962 245.561 360.269 240.863 360.269 240.863 C 384.448 236.809 402.934 215.746 402.934 190.435 L 402.934 73.485 C 402.934 67.473 394.488 62.598 384.071 62.598 C 373.652 62.598 365.208 67.471 365.208 73.485 L 365.208 173.884 C 365.208 206.22 336.962 203.854 336.962 203.854 L 336.962 83.669 L 336.922 83.669 C 336.922 125.349 271.754 159.14 191.369 159.14 C 110.982 159.14 45.818 125.349 45.818 83.669 L 45.778 83.669 L 45.778 283.379 C 45.778 283.379 48.534 384.755 8.085 418.254 C 8.085 465.501 89.848 503.805 191.369 503.805 C 217.402 503.805 242.118 501.271 264.508 496.729 C 268.075 483.96 270.868 469.795 273.054 455.161" fill="#A67A4B"/><path d=" M 40.428 418.254 C 80.876 384.755 78.12 283.379 78.12 283.379 L 78.12 131.072 C 57.922 118.115 45.817 101.625 45.817 83.667 L 45.777 83.667 L 45.777 283.378 C 45.777 283.378 48.533 384.754 8.084 418.253 C 8.084 465.5 89.847 503.804 191.368 503.804 C 196.735 503.804 202.032 503.67 207.278 503.46 C 113.511 499.59 40.428 462.923 40.428 418.254 Z" fill="#996B42"/><path d=" M 336.922 271.414 C 336.922 271.414 340.581 317.82 375.192 356.457 C 397.324 381.169 370.11 399.485 359.09 398.935" fill="#7C5637"/><ellipse cx="384.075" cy="73.481" rx="18.863" ry="10.887" fill="#FEC76D"/><path d=" M 503.916 160.221 C 499.107 145.173 486.641 133.02 470.095 129.403 C 453.551 125.785 437.15 131.62 426.497 143.288 C 431.306 158.338 443.772 170.488 460.316 174.107 C 476.861 177.725 493.263 171.889 503.916 160.221 Z" fill="#AFC64F"/><path d=" M 437.214 166.74 C 436.921 165.822 437.141 164.816 437.791 164.105 C 446.974 154.044 460.013 148.275 473.565 148.275 C 477.037 148.275 480.532 148.654 483.955 149.404 C 490.833 150.907 497.176 153.903 502.65 158.021 C 496.563 143.608 483.783 132.836 468.372 129.468 C 464.951 128.719 461.454 128.339 457.982 128.339 C 444.431 128.339 431.392 134.108 422.209 144.168 C 421.558 144.879 421.338 145.886 421.632 146.803 C 424.74 156.529 430.825 164.858 438.749 170.817 C 438.186 169.484 437.659 168.133 437.214 166.74 Z" fill="#A4B53E"/><g><path d=" M 294.318 50.583 C 291.039 47.554 285.923 47.761 282.894 51.042 C 279.865 54.323 280.071 59.437 283.353 62.466 C 288.862 67.55 291.656 72.734 291.656 77.873 C 291.656 97.077 250.621 118.474 191.736 118.474 C 132.851 118.474 91.816 97.077 91.816 77.872 C 91.816 58.667 132.851 37.268 191.736 37.268 C 218.318 37.268 243.494 41.742 262.627 49.868 C 266.736 51.613 271.483 49.698 273.228 45.587 C 274.973 41.477 273.057 36.731 268.947 34.986 C 247.861 26.032 220.441 21.101 191.736 21.101 C 161.764 21.101 133.462 26.419 112.042 36.075 C 88.574 46.652 75.649 61.498 75.649 77.872 C 75.649 94.245 88.574 109.089 112.044 119.668 C 133.465 129.323 161.767 134.641 191.738 134.641 C 221.709 134.641 250.011 129.323 271.432 119.668 C 294.901 109.088 307.827 94.245 307.827 77.872 C 307.825 68.174 303.155 58.737 294.318 50.583 Z" fill="#231F20"/><path d=" M 237.218 84.984 C 233.043 86.569 230.945 91.237 232.528 95.41 C 234.111 99.585 238.782 101.686 242.954 100.1 C 262.789 92.572 266.953 82.572 266.953 75.51 C 266.953 54.083 229.115 42.872 191.736 42.872 C 154.359 42.872 116.522 54.082 116.522 75.51 C 116.522 96.935 154.36 108.144 191.736 108.144 C 199.343 108.144 206.839 107.7 214.016 106.821 C 218.447 106.28 221.601 102.249 221.059 97.816 C 220.517 93.385 216.476 90.222 212.054 90.773 C 205.525 91.571 198.69 91.975 191.736 91.975 C 153.381 91.975 132.69 80.287 132.69 75.509 C 132.69 70.729 153.381 59.04 191.736 59.04 C 230.093 59.04 250.784 70.73 250.784 75.509 C 250.785 76.632 248.293 80.779 237.218 84.984 Z" fill="#231F20"/><path d=" M 329.039 273.806 C 328.941 275.305 328.877 276.84 328.877 278.439 L 328.877 283.274 C 328.755 288.04 327.425 358.439 351.701 402.198 C 351.916 402.682 352.175 403.142 352.477 403.571 C 356.424 410.439 361.02 416.615 366.385 421.715 C 364.651 438.003 350.722 453.81 326.58 466.898 C 292.336 421.653 288.499 315.074 288.463 313.963 C 288.463 313.96 288.463 313.957 288.463 313.955 C 288.314 309.493 284.565 305.994 280.12 306.142 C 275.659 306.288 272.16 310.02 272.303 314.481 C 272.303 314.484 272.303 314.486 272.303 314.49 C 272.322 315.055 274.107 371.653 268.224 428.63 C 267.765 433.071 270.993 437.044 275.434 437.501 C 279.871 437.962 283.847 434.733 284.305 430.291 C 284.941 424.143 285.487 418 285.959 411.927 C 292.835 438.921 303.126 465.45 318.498 482.487 C 320.921 485.172 324.832 485.923 328.076 484.322 C 363.324 466.938 382.736 443.474 382.736 418.252 C 382.736 415.845 381.662 413.561 379.808 412.026 C 376.944 409.655 374.316 406.882 371.904 403.79 C 378.746 400.43 385.367 394.627 388.929 387.16 C 392.124 380.464 395.369 366.87 381.209 351.061 C 353.425 320.045 346.65 283.204 345.282 273.312 C 347.152 253.287 359.808 249.304 361.858 248.791 C 390.356 243.888 411.015 219.386 411.015 190.433 L 411.015 155.996 C 413.339 154.42 416.566 152.166 419.991 149.104 C 426.542 165.708 441.042 178.164 458.585 182.001 C 462.383 182.832 466.267 183.252 470.125 183.252 L 470.126 183.252 C 485.189 183.252 499.681 176.843 509.883 165.666 C 511.834 163.53 512.494 160.512 511.613 157.754 C 505.774 139.482 490.525 125.589 471.818 121.499 C 468.02 120.668 464.136 120.246 460.277 120.246 C 451.581 120.246 443.081 122.394 435.481 126.351 C 437.224 121.271 438.303 115.491 438.303 108.917 C 438.303 104.451 434.685 100.833 430.219 100.833 C 425.753 100.833 422.135 104.451 422.135 108.917 C 422.135 121.329 416.736 129.703 411.015 135.37 L 411.015 73.48 C 411.015 62.665 399.43 54.509 384.068 54.509 C 368.706 54.509 357.121 62.664 357.121 73.48 L 357.121 173.879 C 357.121 181.737 355.181 187.537 351.353 191.119 C 349.424 192.924 347.164 194.038 345.043 194.725 L 345.043 83.668 C 345.043 83.346 345.019 83.03 344.982 82.717 C 344.535 59.756 327.902 38.624 298.007 23.123 C 269.39 8.283 231.517 0.11 191.367 0.11 C 151.217 0.11 113.344 8.283 84.725 23.123 C 54.836 38.621 38.203 59.752 37.752 82.712 C 37.714 83.027 37.691 83.345 37.691 83.668 L 37.691 283.379 C 37.691 283.45 37.692 283.525 37.694 283.597 C 37.719 284.571 39.863 381.437 2.925 412.028 C 1.074 413.564 0 415.847 0 418.254 C 0 470.76 84.059 511.89 191.368 511.89 C 217.295 511.89 242.443 509.455 266.115 504.653 C 269.091 504.048 271.478 501.829 272.293 498.905 C 275.716 486.649 278.661 472.335 281.048 456.356 C 281.707 451.94 278.662 447.827 274.245 447.167 C 269.837 446.516 265.715 449.552 265.056 453.97 C 263.076 467.228 260.709 479.24 258.004 489.762 C 236.823 493.719 214.431 495.723 191.367 495.723 C 99.025 495.723 20.614 462.178 16.349 421.72 C 55.803 384.21 54.002 288.85 53.86 283.275 L 53.86 121.517 C 54.039 121.712 54.226 121.904 54.408 122.098 C 54.6 122.303 54.793 122.509 54.988 122.713 C 55.367 123.11 55.755 123.505 56.148 123.899 C 56.327 124.079 56.503 124.26 56.685 124.439 C 57.207 124.954 57.739 125.466 58.282 125.976 C 58.337 126.028 58.389 126.079 58.444 126.131 C 59.045 126.693 59.66 127.249 60.286 127.803 C 60.469 127.965 60.658 128.125 60.844 128.286 C 61.291 128.676 61.743 129.064 62.203 129.45 C 62.439 129.647 62.678 129.843 62.918 130.041 C 63.344 130.391 63.773 130.739 64.208 131.085 C 64.462 131.288 64.718 131.489 64.975 131.69 C 65.421 132.038 65.874 132.384 66.33 132.729 C 66.577 132.915 66.823 133.103 67.073 133.288 C 67.605 133.683 68.147 134.074 68.692 134.464 C 68.872 134.593 69.049 134.723 69.231 134.852 C 69.964 135.369 70.708 135.882 71.464 136.39 C 71.621 136.496 71.783 136.599 71.942 136.705 C 72.546 137.106 73.155 137.506 73.772 137.901 C 74.037 138.07 74.306 138.237 74.573 138.405 C 75.1 138.736 75.629 139.067 76.167 139.393 C 76.463 139.573 76.761 139.753 77.061 139.932 C 77.589 140.248 78.122 140.562 78.66 140.874 C 78.962 141.049 79.263 141.224 79.568 141.398 C 80.147 141.728 80.732 142.054 81.322 142.38 C 81.588 142.527 81.851 142.675 82.12 142.821 C 82.979 143.289 83.848 143.752 84.731 144.209 C 87.868 145.836 91.133 147.366 94.483 148.831 L 94.483 282.123 C 94.483 286.589 98.101 290.207 102.567 290.207 C 107.033 290.207 110.651 286.589 110.651 282.123 L 110.651 155 C 123.676 159.316 137.814 162.546 152.666 164.594 L 152.666 207.298 C 152.666 211.764 156.284 215.382 160.75 215.382 C 165.216 215.382 168.834 211.764 168.834 207.298 L 168.834 166.35 C 176.234 166.927 183.762 167.224 191.373 167.224 C 231.522 167.224 269.395 159.051 298.016 144.211 C 298.899 143.754 299.766 143.29 300.626 142.823 C 300.895 142.676 301.158 142.528 301.426 142.381 C 302.015 142.055 302.6 141.73 303.178 141.4 C 303.483 141.225 303.785 141.05 304.088 140.875 C 304.625 140.563 305.156 140.251 305.682 139.935 C 305.984 139.755 306.283 139.574 306.582 139.392 C 307.118 139.065 307.646 138.737 308.171 138.407 C 308.438 138.239 308.708 138.072 308.972 137.903 C 309.597 137.503 310.213 137.1 310.823 136.694 C 310.974 136.594 311.129 136.495 311.279 136.394 C 312.038 135.884 312.785 135.37 313.52 134.85 C 313.695 134.726 313.864 134.601 314.037 134.477 C 314.59 134.081 315.139 133.685 315.679 133.285 C 315.924 133.104 316.163 132.921 316.404 132.739 C 316.867 132.39 317.326 132.038 317.778 131.686 C 318.031 131.489 318.282 131.29 318.531 131.091 C 318.97 130.742 319.403 130.39 319.831 130.038 C 320.068 129.843 320.306 129.648 320.54 129.452 C 321 129.066 321.452 128.677 321.9 128.287 C 322.085 128.125 322.275 127.965 322.458 127.803 C 323.082 127.251 323.695 126.696 324.295 126.137 C 324.367 126.069 324.436 126.001 324.508 125.933 C 325.032 125.44 325.547 124.946 326.052 124.448 C 326.245 124.257 326.432 124.064 326.623 123.873 C 327 123.494 327.374 123.114 327.74 122.732 C 327.95 122.513 328.155 122.293 328.362 122.073 C 328.536 121.888 328.714 121.704 328.885 121.518 L 328.885 203.855 C 328.885 208.058 332.106 211.56 336.294 211.911 C 337.83 212.044 351.588 212.886 362.215 203.112 C 369.569 196.348 373.299 186.516 373.299 173.886 L 373.299 90.986 C 376.568 91.936 380.203 92.456 384.078 92.456 C 387.953 92.456 391.588 91.935 394.857 90.986 L 394.857 190.437 C 394.857 211.549 379.751 229.403 358.939 232.893 C 358.852 232.908 358.765 232.923 358.678 232.94 C 349.638 234.763 333.534 244.366 329.716 267.783 M 191.368 151.054 C 116.853 151.054 53.901 120.195 53.901 83.667 C 53.901 47.138 116.853 16.278 191.368 16.278 C 265.884 16.278 328.837 47.138 328.837 83.667 C 328.838 120.195 265.884 151.054 191.368 151.054 Z M 374.34 380.2 C 372.029 385.043 367.126 388.384 363.384 389.915 C 354.902 372.63 350.313 350.795 347.846 331.41 C 353.28 341.473 360.244 351.888 369.169 361.851 C 375.198 368.58 376.938 374.754 374.34 380.2 Z M 373.73 73.486 C 373.734 73.482 373.739 73.478 373.743 73.474 C 373.896 73.349 374.083 73.217 374.287 73.084 C 374.325 73.059 374.36 73.035 374.399 73.011 C 374.61 72.878 374.848 72.743 375.108 72.607 C 375.157 72.581 375.208 72.556 375.259 72.53 C 375.535 72.391 375.832 72.253 376.158 72.118 C 376.199 72.101 376.243 72.085 376.284 72.068 C 376.624 71.931 376.985 71.797 377.375 71.672 C 377.392 71.667 377.407 71.66 377.426 71.655 C 377.819 71.53 378.244 71.414 378.686 71.306 C 378.755 71.289 378.822 71.272 378.892 71.255 C 379.326 71.154 379.787 71.064 380.265 70.987 C 380.352 70.973 380.441 70.959 380.529 70.946 C 381.019 70.873 381.53 70.811 382.065 70.767 C 382.142 70.761 382.222 70.757 382.3 70.752 C 382.868 70.711 383.454 70.684 384.07 70.684 C 384.684 70.684 385.271 70.711 385.84 70.752 C 385.918 70.757 385.997 70.762 386.075 70.767 C 386.609 70.81 387.117 70.872 387.608 70.946 C 387.699 70.96 387.788 70.973 387.877 70.988 C 388.355 71.066 388.812 71.155 389.245 71.255 C 389.317 71.272 389.387 71.291 389.458 71.308 C 389.898 71.416 390.32 71.53 390.712 71.655 C 390.734 71.661 390.752 71.669 390.773 71.675 C 391.158 71.799 391.515 71.93 391.85 72.066 C 391.895 72.084 391.943 72.102 391.986 72.12 C 392.31 72.254 392.606 72.392 392.881 72.53 C 392.933 72.556 392.984 72.582 393.034 72.608 C 393.295 72.744 393.533 72.88 393.744 73.012 C 393.782 73.036 393.816 73.059 393.853 73.082 C 394.061 73.218 394.251 73.351 394.405 73.478 C 394.408 73.481 394.411 73.483 394.415 73.487 C 393.032 74.622 389.411 76.288 384.074 76.288 C 378.733 76.286 375.113 74.621 373.73 73.486 Z M 470.128 167.088 C 467.429 167.088 464.709 166.793 462.043 166.21 C 450.549 163.696 440.921 155.889 435.976 145.36 C 442.748 139.632 451.374 136.421 460.28 136.421 C 462.979 136.421 465.7 136.716 468.367 137.301 C 479.861 139.814 489.491 147.62 494.435 158.15 C 487.662 163.876 479.036 167.088 470.128 167.088 Z" fill="#231F20"/></g><g></g><g></g><g></g><g></g><g></g><g></g><g></g><g></g><g></g><g></g><g></g><g></g><g></g><g></g><g></g></svg>