<svg version="1.1" viewBox="0 0 464 464" xmlns="http://www.w3.org/2000/svg" xmlns:xlink="http://www.w3.org/1999/xlink" id="Capa_1" overflow="hidden"><circle cx="232" cy="232" r="232" fill="#D9D9D9"/><circle cx="232" cy="232" r="160" fill="#F7E4BA"/><path d=" M 63.48 175.88 C 63.132 180.09 63.627 184.327 64.936 188.344 C 40.972 195.015 26.954 219.849 33.625 243.813 C 37.108 256.326 45.825 266.726 57.536 272.344 C 55.544 276.063 54.315 280.143 53.92 284.344 C 52.818 303.371 67.327 319.698 86.352 320.84 C 91.717 321.284 97.115 320.553 102.168 318.696 L 128.496 249 L 128 192 L 117.024 150.52 C 112.375 147.8 107.187 146.129 101.824 145.624 C 82.884 143.403 65.725 156.943 63.48 175.88 Z" fill="#6B9777"/><path d=" M 384 112 C 384.058 94.384 369.824 80.057 352.209 80 C 340.482 79.962 329.68 86.361 324.08 96.664 C 284.548 76.578 236.219 92.343 216.133 131.875 C 196.047 171.407 211.812 219.736 251.344 239.822 C 290.876 259.908 339.205 244.143 359.291 204.611 C 369.197 185.115 370.721 162.422 363.512 141.776 C 375.841 137.042 383.984 125.207 384 112 L 384 112 Z" fill="#EBEBEB"/><circle cx="280" cy="168" r="36" fill="#FBB540"/><circle cx="160" cy="320" r="80" fill="#F7BA61"/><g><circle cx="120" cy="215.992" r="32" fill="#DC4D41"/><circle cx="124.88" cy="149.432" r="32" fill="#DC4D41"/></g><g><path d=" M 398.456 265.264 C 394.038 265.266 390.454 261.686 390.452 257.268 C 390.452 256.962 390.469 256.656 390.504 256.352 L 395.248 215.088 C 395.748 210.698 399.712 207.545 404.102 208.045 C 405.537 208.208 406.9 208.757 408.048 209.632 L 444.848 237.632 C 448.364 240.307 449.046 245.327 446.37 248.843 C 445.378 250.147 444.008 251.115 442.448 251.616 L 400.896 264.896 C 400.108 265.149 399.284 265.274 398.456 265.264 L 398.456 265.264 Z" fill="#8F563B"/><path d=" M 261.296 442.472 C 258.61 442.471 256.104 441.121 254.624 438.88 L 231.688 404.248 C 229.248 400.564 230.257 395.6 233.94 393.161 C 235.139 392.367 236.531 391.91 237.968 391.84 L 284.152 389.568 C 288.565 389.353 292.317 392.756 292.532 397.169 C 292.612 398.812 292.183 400.441 291.304 401.832 L 268.104 438.736 C 266.658 441.032 264.146 442.439 261.432 442.472 L 261.296 442.472 Z" fill="#8F563B"/></g><g><path d=" M 176 280 L 192 280 L 192 296 L 176 296 L 176 280 Z" fill="#F26B32"/><path d=" M 200 304 L 216 304 L 216 320 L 200 320 L 200 304 Z" fill="#F26B32"/><path d=" M 176 336 L 192 336 L 192 352 L 176 352 L 176 336 Z" fill="#F26B32"/><path d=" M 112 336 L 128 336 L 128 352 L 112 352 L 112 336 Z" fill="#F26B32"/><path d=" M 128 280 L 144 280 L 144 296 L 128 296 L 128 280 Z" fill="#F26B32"/><path d=" M 144 360 L 160 360 L 160 376 L 144 376 L 144 360 Z" fill="#F26B32"/><path d=" M 144 312 L 160 312 L 160 328 L 144 328 L 144 312 Z" fill="#F26B32"/></g><path d=" M 299.576 410.216 C 291.139 410.229 283.134 406.485 277.736 400 L 277.68 399.936 C 267.465 387.744 269.069 369.579 281.261 359.364 C 281.995 358.749 282.76 358.171 283.552 357.632 L 301.768 342.76 C 322.104 326.205 338.641 305.47 350.256 281.96 L 358.48 265.384 C 365.048 250.322 382.582 243.436 397.644 250.004 C 412.706 256.572 419.592 274.106 413.024 289.168 L 413.024 289.168 L 402.048 312.312 C 387.834 342.221 366.438 368.147 339.768 387.776 L 315.36 405.672 C 310.62 408.617 305.156 410.19 299.576 410.216 L 299.576 410.216 Z" fill="#8F563B"/><g></g><g></g><g></g><g></g><g></g><g></g><g></g><g></g><g></g><g></g><g></g><g></g><g></g><g></g><g></g></svg>