<svg version="1.1" width="682.667" height="682.667" viewBox="-80 0 512 512" xmlns="http://www.w3.org/2000/svg" xmlns:xlink="http://www.w3.org/1999/xlink" overflow="hidden"><path d=" M 343.984 280 L 343.984 472 C 343.984 489.68 329.664 504 311.984 504 L 232.063 504 C 214.383 504 200.063 489.68 200.063 472 L 200.063 280 Z" fill="#656D78"/><path d=" M 327.969 280 L 327.969 472 C 327.969 489.68 313.648 504 295.969 504 L 311.984 504 C 329.664 504 343.984 489.68 343.984 472 L 343.984 280 Z" fill="#545C66"/><path d=" M 200.063 256 L 343.984 256 L 343.984 280 L 200.063 280 Z" fill="#CCD1D9"/><path d=" M 327.969 256 L 343.984 256 L 343.984 280 L 327.969 280 Z" fill="#AAB2BD"/><path d=" M 119.984 8 C 119.984 52.2383 84.2227 88 39.9844 88 C 39.9844 43.7617 75.8242 8 119.984 8 Z" fill="#DA4453"/><path d=" M 119.984 8 L 119.984 167.922 L 39.9844 167.922 L 39.9844 88 C 84.2227 88 119.984 52.2383 119.984 8 Z" fill="#ED5565"/><path d=" M 23.9844 167.922 L 135.984 167.922 L 135.984 296 L 23.9844 296 Z" fill="#545C66"/><path d=" M 119.984 167.922 L 111.961 167.922 L 119.969 169.441 L 119.969 296 L 135.984 296 L 135.984 167.922 Z" fill="#434A54"/><path d=" M 151.984 296 L 151.984 472 C 151.984 489.68 137.664 504 119.984 504 L 39.9844 504 C 22.3047 504 7.98438 489.68 7.98438 472 L 7.98438 296 Z" fill="#656D78"/><path d=" M 135.984 296 L 135.969 296 L 135.969 472 C 135.969 489.68 121.648 504 103.969 504 L 119.984 504 C 137.664 504 151.984 489.68 151.984 472 L 151.984 296 Z" fill="#545C66"/><path d=" M 40 512 C 17.9453 512 0 494.055 0 472 C 0 467.574 3.57422 464 8 464 C 12.4258 464 16 467.574 16 472 C 16 485.23 26.7695 496 40 496 C 44.4258 496 48 499.574 48 504 C 48 508.426 44.4258 512 40 512 Z"/><path d=" M 119.922 512 C 115.496 512 111.922 508.426 111.922 504 C 111.922 499.574 115.496 496 119.922 496 C 133.152 496 143.922 485.23 143.922 472 C 143.922 467.574 147.496 464 151.922 464 C 156.344 464 159.922 467.574 159.922 472 C 159.922 494.055 141.977 512 119.922 512 Z"/><path d=" M 119.922 512 L 40 512 C 35.5742 512 32 508.426 32 504 C 32 499.574 35.5742 496 40 496 L 119.922 496 C 124.344 496 127.922 499.574 127.922 504 C 127.922 508.426 124.344 512 119.922 512 Z"/><path d=" M 8 480.016 C 3.57422 480.016 0 476.441 0 472.016 L 0 296.023 C 0 291.602 3.57422 288.023 8 288.023 C 12.4258 288.023 16 291.602 16 296.023 L 16 472.016 C 16 476.441 12.4258 480.016 8 480.016 Z"/><path d=" M 151.938 480.016 C 147.512 480.016 143.938 476.441 143.938 472.016 L 143.938 296.023 C 143.938 291.602 147.512 288.023 151.938 288.023 C 156.359 288.023 159.938 291.602 159.938 296.023 L 159.938 472.016 C 159.938 476.441 156.359 480.016 151.938 480.016 Z"/><path d=" M 232.031 512 C 209.977 512 192.031 494.055 192.031 472 C 192.031 467.574 195.609 464 200.031 464 C 204.457 464 208.031 467.574 208.031 472 C 208.031 485.23 218.801 496 232.031 496 C 236.457 496 240.031 499.574 240.031 504 C 240.031 508.426 236.457 512 232.031 512 Z"/><path d=" M 311.953 512 C 307.527 512 303.953 508.426 303.953 504 C 303.953 499.574 307.527 496 311.953 496 C 325.184 496 335.953 485.23 335.953 472 C 335.953 467.574 339.527 464 343.953 464 C 348.375 464 351.953 467.574 351.953 472 C 351.953 494.055 334.008 512 311.953 512 Z"/><path d=" M 311.938 512 L 232.031 512 C 227.609 512 224.031 508.426 224.031 504 C 224.031 499.574 227.609 496 232.031 496 L 311.938 496 C 316.359 496 319.938 499.574 319.938 504 C 319.938 508.426 316.359 512 311.938 512 Z"/><path d=" M 200.031 480.016 C 195.609 480.016 192.031 476.441 192.031 472.016 L 192.031 255.984 C 192.031 251.559 195.609 247.984 200.031 247.984 C 204.457 247.984 208.031 251.559 208.031 255.984 L 208.031 472.016 C 208.031 476.441 204.457 480.016 200.031 480.016 Z"/><path d=" M 343.969 480.016 C 339.543 480.016 335.969 476.441 335.969 472.016 L 335.969 255.984 C 335.969 251.559 339.543 247.984 343.969 247.984 C 348.391 247.984 351.969 251.559 351.969 255.984 L 351.969 472.016 C 351.969 476.441 348.391 480.016 343.969 480.016 Z"/><path d=" M 151.938 304.023 L 8 304.023 C 3.57422 304.023 0 300.449 0 296.023 C 0 291.602 3.57422 288.023 8 288.023 L 151.938 288.023 C 156.359 288.023 159.938 291.602 159.938 296.023 C 159.938 300.449 156.359 304.023 151.938 304.023 Z"/><path d=" M 24 304.023 C 19.5742 304.023 16 300.449 16 296.023 L 16 167.93 C 16 163.504 19.5742 159.93 24 159.93 C 28.4258 159.93 32 163.504 32 167.93 L 32 296.023 C 32 300.449 28.4258 304.023 24 304.023 Z"/><path d=" M 136 175.93 L 24 175.93 C 19.5742 175.93 16 172.352 16 167.93 C 16 163.504 19.5742 159.93 24 159.93 L 136 159.93 C 140.426 159.93 144 163.504 144 167.93 C 144 172.352 140.426 175.93 136 175.93 Z"/><path d=" M 136 304.023 C 131.574 304.023 128 300.449 128 296.023 L 128 169.465 C 128 165.039 131.574 161.465 136 161.465 C 140.426 161.465 144 165.039 144 169.465 L 144 296.023 C 144 300.449 140.426 304.023 136 304.023 Z"/><path d=" M 40 175.93 C 35.5742 175.93 32 172.352 32 167.93 L 32 88 C 32 83.5742 35.5742 80 40 80 C 44.4258 80 48 83.5742 48 88 L 48 167.93 C 48 172.352 44.4258 175.93 40 175.93 Z"/><path d=" M 120 175.93 C 115.574 175.93 112 172.352 112 167.93 L 112 8 C 112 3.57422 115.574 0 120 0 C 124.426 0 128 3.57422 128 8 L 128 167.93 C 128 172.352 124.426 175.93 120 175.93 Z"/><path d=" M 40 96 C 35.5742 96 32 92.4258 32 88 C 32 83.5742 35.5742 80 40 80 C 79.7031 80 112 47.7031 112 8 C 112 3.57422 115.574 0 120 0 C 124.426 0 128 3.57422 128 8 C 128 56.5195 88.5195 96 40 96 Z"/><path d=" M 40 96 C 35.5742 96 32 92.4258 32 88 C 32 39.4805 71.4805 0 120 0 C 124.426 0 128 3.57422 128 8 C 128 12.4258 124.426 16 120 16 C 80.2969 16 48 48.2969 48 88 C 48 92.4258 44.4258 96 40 96 Z"/><path d=" M 343.969 263.984 L 200.031 263.984 C 195.609 263.984 192.031 260.406 192.031 255.984 C 192.031 251.559 195.609 247.984 200.031 247.984 L 343.969 247.984 C 348.391 247.984 351.969 251.559 351.969 255.984 C 351.969 260.406 348.391 263.984 343.969 263.984 Z"/><path d=" M 343.969 287.961 L 200.031 287.961 C 195.609 287.961 192.031 284.383 192.031 279.961 C 192.031 275.535 195.609 271.961 200.031 271.961 L 343.969 271.961 C 348.391 271.961 351.969 275.535 351.969 279.961 C 351.969 284.383 348.391 287.961 343.969 287.961 Z"/></svg>