<svg version="1.1" viewBox="0 0 400.174 400.174" xmlns="http://www.w3.org/2000/svg" xmlns:xlink="http://www.w3.org/1999/xlink" id="Capa_1" overflow="hidden"><path d=" M 201.38 88.422 C 314.5 75.982 351.26 4.422 351.38 4.422 C 353.236 0.855 357.632 -0.531 361.199 1.325 C 362.998 2.261 364.325 3.906 364.86 5.862 C 402.46 133.382 381.94 221.302 338.78 273.462 C 322.071 293.793 300.67 309.758 276.42 319.982 C 254.081 329.456 229.833 333.566 205.62 331.982 C 159.26 328.742 116.94 303.982 97.3 259.622 C 92.268 248.282 89.016 236.234 87.66 223.902 C 84.917 199.185 89.743 174.217 101.5 152.302 C 114.122 128.917 134.219 110.439 158.58 99.822 C 172.173 93.833 186.611 89.988 201.38 88.422 L 201.38 88.422 Z" fill="#45B549"/><path d=" M 350.58 7.102 C 350.679 3.083 354.017 -0.096 358.036 0.003 C 362.055 0.102 365.234 3.44 365.135 7.459 C 365.128 7.755 365.102 8.049 365.059 8.342 C 365.059 8.702 358.699 92.342 277.059 176.982 L 276.299 177.782 C 257.119 197.455 236.073 215.218 213.459 230.822 L 262.499 239.942 C 266.408 240.885 268.812 244.818 267.869 248.726 C 267.015 252.264 263.68 254.628 260.059 254.262 L 196.059 242.262 C 137.699 279.222 38.779 313.342 30.139 393.862 C 29.604 397.847 25.94 400.644 21.955 400.109 C 18.162 399.6 15.411 396.241 15.659 392.422 C 25.979 295.902 124.059 271.062 190.219 228.862 L 191.139 228.262 C 217.542 211.552 242 191.951 264.059 169.822 L 258.259 112.422 C 257.724 108.437 260.521 104.773 264.506 104.238 C 268.491 103.703 272.155 106.5 272.69 110.485 C 272.712 110.65 272.729 110.816 272.739 110.982 L 277.139 155.542 C 345.18 79.142 350.54 7.422 350.58 7.102 L 350.58 7.102 Z" fill="#009549"/><g></g><g></g><g></g><g></g><g></g><g></g><g></g><g></g><g></g><g></g><g></g><g></g><g></g><g></g><g></g></svg>