<svg version="1.1" width="682.667" height="682.667" viewBox="0 -64 512 512" xmlns="http://www.w3.org/2000/svg" xmlns:xlink="http://www.w3.org/1999/xlink" overflow="hidden"><path d=" M 504.484 191.875 C 504.484 159.813 504.484 103.703 488.453 63.625 C 504.484 39.5781 496.469 7.51563 496.469 7.51563 C 496.469 7.51563 464.406 7.51563 440.359 31.5625 C 392.266 15.5313 304.094 7.51563 256 7.51563 C 207.906 7.51563 119.734 15.5313 71.6406 31.5625 C 47.5938 7.51563 15.5313 7.51563 15.5313 7.51563 C 15.5313 7.51563 7.51563 39.5781 23.5469 63.625 C 7.51563 103.703 7.51563 159.813 7.51563 191.875 C 7.51563 223.938 7.51563 280.047 23.5469 320.125 C 7.51563 344.172 15.5313 376.234 15.5313 376.234 C 15.5313 376.234 47.5938 376.234 71.6406 352.188 C 119.734 368.219 207.906 376.234 256 376.234 C 304.094 376.234 392.266 368.219 440.359 352.188 C 464.406 376.234 496.469 376.234 496.469 376.234 C 496.469 376.234 504.484 344.172 488.453 320.125 C 504.484 280.047 504.484 223.938 504.484 191.875 Z" fill="#F4F0F9"/><path d=" M 494.813 300.469 C 226.898 393.434 71.6406 312.109 71.6406 312.109 C 25.0859 208.047 53.3789 92.7656 75.9688 30.1758 C 74.4922 30.6289 73.0469 31.0938 71.6406 31.5625 C 47.5938 7.51563 15.5313 7.51563 15.5313 7.51563 C 15.5313 7.51563 7.51563 39.5781 23.5469 63.625 C 7.51563 103.703 7.51563 159.813 7.51563 191.875 C 7.51563 223.938 7.51563 280.047 23.5469 320.125 C 7.51563 344.172 15.5313 376.234 15.5313 376.234 C 15.5313 376.234 47.5938 376.234 71.6406 352.188 C 119.734 368.219 207.906 376.234 256 376.234 C 304.094 376.234 392.266 368.219 440.359 352.188 C 464.406 376.234 496.469 376.234 496.469 376.234 C 496.469 376.234 504.484 344.172 488.453 320.125 C 490.941 313.91 493.039 307.309 494.813 300.469 Z" fill="#E8E2F3"/><path d=" M 440.359 63.625 C 440.359 63.625 368.219 159.813 440.359 320.125 C 440.359 320.125 504.484 191.875 440.359 63.625 Z" fill="#EA9DBE"/><path d=" M 512 191.875 C 512 159.309 512 105.43 496.805 64.4023 C 511.695 38.4648 504.105 7.07031 503.762 5.69141 C 502.922 2.34766 499.918 8.88178e-16 496.469 8.88178e-16 C 495.094 8.88178e-16 463.855 0.273438 438.426 23.0508 C 387.656 7.33594 300.465 0 256 0 C 211.535 0 124.344 7.33594 73.5742 23.0508 C 48.1445 0.273438 16.9063 0 15.5313 0 C 12.082 0 9.07813 2.34766 8.23828 5.69141 C 7.89453 7.07031 0.304688 38.4648 15.1953 64.4023 C -8.34888e-14 105.43 -8.34888e-14 159.309 -8.34888e-14 191.875 C -8.34888e-14 224.441 -8.34888e-14 278.32 15.1953 319.348 C 0.304688 345.285 7.89453 376.676 8.23828 378.059 C 9.07813 381.402 12.082 383.75 15.5313 383.75 C 16.9063 383.75 48.1445 383.477 73.5742 360.699 C 124.344 376.414 211.535 383.75 256 383.75 C 300.465 383.75 387.656 376.414 438.426 360.699 C 463.855 383.477 495.094 383.75 496.469 383.75 C 499.918 383.75 502.922 381.402 503.762 378.059 C 504.105 376.676 511.695 345.285 496.805 319.348 C 512 278.32 512 224.441 512 191.875 Z M 482.203 324.293 C 492.207 339.301 491.477 358.457 490.242 368.168 C 480.469 366.832 461.09 362.289 445.672 346.875 C 443.66 344.863 440.684 344.16 437.984 345.059 C 389.559 361.199 300.766 368.719 256 368.719 C 211.234 368.719 122.441 361.199 74.0156 345.059 C 71.3438 344.168 68.3203 344.883 66.3281 346.875 C 50.9063 362.293 31.5195 366.832 21.7578 368.168 C 20.5234 358.449 19.793 339.301 29.7969 324.293 C 31.1719 322.234 31.4414 319.633 30.5234 317.332 C 15.0313 278.602 15.0313 224.313 15.0313 191.875 C 15.0313 159.438 15.0313 105.148 30.5234 66.4141 C 31.4414 64.1172 31.1719 61.5156 29.7969 59.457 C 19.793 44.4492 20.5234 25.293 21.7578 15.582 C 31.5313 16.918 50.9102 21.457 66.3281 36.875 C 68.3398 38.8867 71.3164 39.5898 74.0156 38.6914 C 122.441 22.5508 211.234 15.0313 256 15.0313 C 300.766 15.0313 389.559 22.5508 437.984 38.6914 C 440.684 39.5898 443.66 38.8867 445.672 36.875 C 461.094 21.4531 480.48 16.918 490.242 15.582 C 491.477 25.2969 492.207 44.4492 482.203 59.457 C 480.828 61.5156 480.559 64.1172 481.477 66.4141 C 496.969 105.148 496.969 159.438 496.969 191.875 C 496.969 224.313 496.969 278.602 481.477 317.332 C 480.559 319.633 480.828 322.234 482.203 324.293 Z"/><path d=" M 441.035 56.1406 C 438.445 55.9023 435.91 57.0313 434.348 59.1172 C 433.727 59.9453 418.996 79.8516 409.234 116.301 C 408.16 120.309 410.539 124.43 414.547 125.504 C 418.555 126.582 422.68 124.199 423.75 120.191 C 428.605 102.063 434.813 88.3359 439.496 79.5391 C 465.535 139.539 463.66 198.359 457.078 238.234 C 452.633 265.145 445.547 287.082 440.328 300.859 C 419.438 248.73 411.832 198.488 417.715 151.281 C 418.227 147.164 415.305 143.406 411.188 142.895 C 407.07 142.379 403.313 145.305 402.801 149.422 C 395.965 204.27 406.293 262.738 433.504 323.211 C 436.051 328.871 444.301 329.043 447.078 323.484 C 447.754 322.137 463.711 289.852 471.816 241.203 C 479.313 196.223 481.109 128.32 447.078 60.2656 C 445.918 57.9336 443.629 56.375 441.035 56.1406 Z"/><path d=" M 206.734 196.785 C 205.516 194.102 202.84 192.375 199.891 192.375 L 143.781 192.375 C 139.629 192.375 136.266 195.742 136.266 199.891 C 136.266 204.039 139.629 207.406 143.781 207.406 L 183.328 207.406 L 138.125 259.066 C 133.957 263.832 137.461 271.531 143.781 271.531 L 199.891 271.531 C 204.039 271.531 207.406 268.164 207.406 264.016 C 207.406 259.867 204.039 256.5 199.891 256.5 L 160.34 256.5 L 205.547 204.84 C 207.488 202.621 207.953 199.469 206.734 196.785 Z"/><path d=" M 264.016 184.359 L 238.539 184.359 L 270.129 140.133 C 273.621 135.246 270 128.25 264.016 128.25 L 223.938 128.25 C 219.789 128.25 216.422 131.613 216.422 135.766 C 216.422 139.914 219.789 143.281 223.938 143.281 L 249.414 143.281 L 217.824 187.508 C 214.332 192.395 217.953 199.391 223.938 199.391 L 264.016 199.391 C 268.164 199.391 271.531 196.023 271.531 191.875 C 271.531 187.727 268.164 184.359 264.016 184.359 Z"/><path d=" M 312.109 120.234 L 303.094 120.234 L 318.121 100.195 C 321.77 95.332 318.176 88.1719 312.109 88.1719 L 288.063 88.1719 C 283.914 88.1719 280.547 91.5352 280.547 95.6875 C 280.547 99.8359 283.914 103.203 288.063 103.203 L 297.082 103.203 L 282.051 123.242 C 278.402 128.102 281.996 135.266 288.063 135.266 L 312.109 135.266 C 316.258 135.266 319.625 131.898 319.625 127.75 C 319.625 123.598 316.258 120.234 312.109 120.234 Z"/></svg>