<svg version="1.1" viewBox="0 0 259.728 259.728" xmlns="http://www.w3.org/2000/svg" xmlns:xlink="http://www.w3.org/1999/xlink" id="Layer_1" overflow="hidden"><g><path d=" M 139.02 91.273 C 139.542 91.353 140.145 91.715 140.788 92.197 C 143.521 89.424 146.293 86.611 149.106 83.838 C 146.253 81.146 143.44 78.453 140.627 75.72 C 137.854 78.292 135.122 80.864 132.349 83.395 C 131.907 83.757 131.344 83.194 131.706 82.752 C 134.157 79.939 136.689 77.166 139.221 74.393 C 138.056 73.228 136.81 72.062 135.645 70.937 C 135.042 70.374 135.926 69.53 136.489 70.053 C 137.695 71.178 138.981 72.223 140.186 73.348 C 143.963 69.209 147.861 65.11 151.84 61.091 C 151.318 60.649 150.835 60.207 150.353 59.725 C 149.469 58.921 150.755 57.635 151.639 58.439 C 152.161 58.881 152.684 59.323 153.166 59.725 C 157.787 55.104 162.489 50.523 167.311 46.062 C 166.105 44.816 164.94 43.53 163.735 42.285 C 163.012 41.481 164.177 40.276 164.981 41.079 C 166.187 42.325 167.432 43.57 168.678 44.816 C 176.273 37.864 184.029 31.193 191.905 24.884 C 193.07 23.919 194.758 25.487 193.593 26.572 C 186.199 33.524 178.724 40.476 171.29 47.428 C 174.183 50.281 177.077 53.174 179.97 56.108 C 185.234 51.808 190.619 47.709 196.044 43.771 C 193.552 41.038 191.101 38.265 188.569 35.533 C 188.127 35.051 188.81 34.368 189.292 34.81 C 192.065 37.422 194.757 40.074 197.45 42.807 C 202.152 39.472 206.934 36.217 211.756 33.243 C 212.881 32.52 214.248 34.248 213.203 35.132 C 208.823 38.668 204.443 42.165 200.103 45.661 C 202.474 48.193 204.805 50.724 207.055 53.336 C 210.149 50.483 213.244 47.63 216.338 44.776 C 217.463 43.771 219.151 45.419 218.026 46.504 C 214.972 49.478 211.878 52.411 208.783 55.345 C 211.234 58.238 213.646 61.212 215.976 64.186 C 221.08 59.846 226.264 55.546 231.488 51.407 C 232.694 50.483 234.422 52.09 233.256 53.175 C 228.152 57.716 223.089 62.297 218.026 66.838 C 218.508 67.481 218.991 68.044 219.433 68.687 C 219.915 69.29 218.87 70.053 218.388 69.491 C 217.946 68.928 217.423 68.366 216.981 67.803 C 212.36 71.942 207.778 76.081 203.197 80.22 C 206.09 83.435 208.943 86.65 211.676 89.945 C 218.186 84.078 224.897 78.452 231.769 73.348 C 232.814 72.544 234.1 74.272 233.176 75.156 C 226.907 81.184 220.517 87.091 214.048 92.918 C 215.294 94.485 216.58 96.012 217.785 97.62 C 218.468 98.504 217.021 99.509 216.258 98.785 C 214.851 97.459 213.485 96.052 212.079 94.686 C 208.543 97.901 205.006 101.035 201.43 104.21 C 203.962 107.144 206.373 110.117 208.583 113.252 C 208.663 113.372 208.663 113.493 208.663 113.654 C 226.907 99.509 243.705 81.626 255.158 71.097 C 255.037 70.977 254.917 70.896 254.796 70.735 C 246.437 58.077 238.119 45.941 227.389 35.05 C 222.526 30.107 217.383 25.446 212.078 20.945 C 209.466 18.735 206.773 16.525 204.041 14.354 C 202.715 13.269 199.299 9.291 197.41 7.563 C 197.37 7.643 197.37 7.724 197.33 7.764 C 168.075 31.875 100.161 66.556 129.818 114.176 C 150.313 147.048 180.372 135.233 207.417 114.618 C 207.296 114.578 207.136 114.538 207.015 114.417 C 204.403 111.684 201.751 109.032 199.098 106.34 C 195.481 109.555 191.945 112.77 188.368 115.985 C 188.89 116.467 189.453 116.95 190.016 117.432 C 190.86 118.236 189.654 119.361 188.77 118.678 C 188.167 118.196 187.605 117.673 187.002 117.191 C 185.555 118.517 184.068 119.803 182.622 121.129 C 182.059 121.651 181.256 120.848 181.778 120.245 C 183.024 118.879 184.35 117.472 185.636 116.066 C 181.778 112.932 177.92 109.797 174.183 106.542 C 170.004 110.279 165.865 114.016 161.725 117.794 C 161.203 118.316 160.479 117.553 160.961 117.03 C 161.885 116.025 162.89 115.021 163.854 113.976 C 163.814 113.976 163.734 114.016 163.693 113.976 C 160.317 111.484 157.022 108.913 153.807 106.26 C 152.2 107.707 150.632 109.194 149.025 110.64 C 148.462 111.162 147.578 110.318 148.181 109.756 C 149.668 108.269 151.195 106.822 152.682 105.376 C 151.717 104.532 150.713 103.728 149.708 102.884 C 146.855 100.433 142.675 97.58 139.822 94.405 C 139.541 94.405 139.3 94.124 139.34 93.802 C 138.657 92.998 138.054 92.154 137.612 91.311 C 137.451 91.03 137.491 90.668 137.733 90.427 C 138.255 89.905 138.376 89.824 139.099 90.025 C 139.744 90.188 139.663 91.273 139.02 91.273 Z M 258.091 69.694 C 259.457 70.096 260.422 71.824 259.096 73.029 C 231.488 98.024 176.354 164.813 135.766 127.199 C 118.124 146.81 97.509 164.17 78.783 182.776 C 79.506 183.821 79.989 184.906 79.948 185.951 C 79.908 186.152 79.827 186.273 79.787 186.433 C 79.908 186.955 79.867 187.558 79.385 188.04 C 68.977 199.011 59.011 210.343 49.165 221.796 C 41.49 230.717 34.256 242.009 25.054 249.363 C 18.303 254.748 7.252 256.154 4.238 248.961 C -6.612 240.964 6.046 229.792 12.476 223.403 C 29.434 206.525 46.915 188.441 66.687 174.778 C 66.848 174.537 67.089 174.336 67.37 174.255 C 67.45 174.215 67.531 174.175 67.611 174.094 C 68.093 173.772 68.535 174.094 68.696 174.536 C 69.46 174.978 70.223 175.42 70.987 175.902 C 87.704 155.488 107.596 135.114 128.051 118.436 C 93.812 71.663 161.323 27.941 195.12 6.642 C 195.12 6.28 195.281 5.959 195.642 5.919 C 203.518 4.513 220.477 22.917 225.741 27.9 C 238.158 39.674 250.335 53.458 257.89 68.93 C 258.01 69.211 258.05 69.453 258.091 69.694 Z M 214.77 65.193 C 212.359 62.34 209.907 59.487 207.456 56.634 C 202.835 61.054 198.133 65.395 193.471 69.775 C 195.922 72.347 198.374 74.919 200.745 77.531 C 205.367 73.351 210.028 69.252 214.77 65.193 Z M 205.729 54.584 C 203.398 51.972 201.067 49.36 198.737 46.748 C 193.513 50.927 188.289 55.066 183.065 59.206 C 185.958 62.059 188.811 64.953 191.624 67.886 C 196.325 63.465 200.987 58.964 205.729 54.584 Z M 209.426 92.077 C 206.372 88.983 203.398 85.848 200.424 82.674 C 196.968 85.808 193.512 88.983 190.056 92.118 C 193.271 95.252 196.325 98.508 199.299 101.803 C 202.594 98.507 205.97 95.252 209.426 92.077 Z M 198.053 80.102 C 195.642 77.49 193.271 74.838 190.86 72.226 C 187.163 75.682 183.466 79.098 179.728 82.554 C 182.421 84.925 185.073 87.376 187.685 89.828 C 191.101 86.572 194.557 83.317 198.053 80.102 Z M 196.928 104.173 C 193.753 100.958 190.538 97.743 187.283 94.609 C 183.505 98.065 179.688 101.521 175.87 104.977 C 179.567 108.192 183.224 111.447 186.881 114.702 C 190.177 111.165 193.512 107.629 196.928 104.173 Z M 189.092 70.256 C 186.359 67.162 183.587 64.067 180.854 60.973 C 176.313 64.59 171.853 68.206 167.352 71.823 C 170.888 74.837 174.425 77.851 177.921 80.945 C 181.657 77.369 185.354 73.793 189.092 70.256 Z M 185.033 92.439 C 182.461 89.907 179.849 87.376 177.237 84.884 C 173.299 88.501 169.321 92.077 165.382 95.694 C 168.275 98.226 171.169 100.798 174.062 103.369 C 177.679 99.672 181.336 96.015 185.033 92.439 Z M 175.509 83.236 C 172.093 79.981 168.677 76.766 165.221 73.551 C 160.881 77.047 156.581 80.543 152.321 84.08 C 156.219 87.536 160.037 91.032 163.975 94.448 C 167.834 90.711 171.611 86.933 175.509 83.236 Z M 177.96 57.759 C 175.267 54.745 172.535 51.731 169.843 48.798 C 165.101 53.178 160.359 57.518 155.657 61.858 C 158.55 64.39 161.484 66.881 164.498 69.413 C 168.919 65.434 173.379 61.536 177.96 57.759 Z M 172.415 105.017 C 169.481 102.445 166.548 99.873 163.655 97.261 C 160.882 99.793 158.109 102.324 155.336 104.896 C 158.471 107.428 161.645 110 164.82 112.531 C 164.9 112.611 164.9 112.732 164.94 112.853 C 167.432 110.241 169.883 107.589 172.415 105.017 Z M 162.609 71.1 C 159.796 68.488 156.983 65.876 154.13 63.264 C 149.991 67.082 145.852 70.899 141.753 74.717 C 144.646 77.329 147.58 79.901 150.473 82.473 C 154.452 78.655 158.47 74.837 162.609 71.1 Z M 154.17 103.932 C 156.862 101.32 159.595 98.668 162.288 96.056 C 158.43 92.52 154.572 88.983 150.795 85.367 C 147.741 87.899 144.727 90.43 141.753 93.002 C 143.32 94.409 144.968 96.257 145.892 97.061 C 147.901 98.789 149.87 100.437 151.88 102.124 C 152.643 102.726 153.407 103.329 154.17 103.932 Z M 134.64 126.114 C 133.033 124.547 131.465 122.859 129.898 120.97 C 129.617 120.568 129.376 120.206 129.094 119.845 C 111.372 139.536 92.204 158.946 73.196 177.391 C 73.96 177.994 74.763 178.556 75.487 179.24 C 75.849 179.562 76.21 179.923 76.612 180.325 C 95.178 161.88 113.744 141.948 134.64 126.114 Z M 76.291 186.152 C 75.929 185.67 75.648 185.147 75.286 184.585 C 74.603 183.58 73.839 182.616 73.036 181.732 C 71.308 179.763 69.379 178.155 67.209 176.749 C 64.436 179.602 61.623 182.375 58.73 185.108 C 59.132 185.148 59.453 185.63 59.092 185.952 C 57.806 186.957 56.44 187.68 55.033 188.484 C 48.282 194.673 41.37 200.741 34.699 207.01 C 28.912 212.475 4.72 230.76 4.64 242.373 C 12.958 251.254 19.91 251.736 25.496 243.779 C 27.626 241.328 29.756 238.876 31.805 236.425 C 36.708 230.678 41.57 224.892 46.513 219.145 C 56.158 207.892 66.043 196.881 76.291 186.152 Z" fill="#1D1D1B"/><path d=" M 254.795 70.738 C 254.916 70.899 255.036 70.979 255.157 71.1 C 243.704 81.629 226.906 99.511 208.662 113.657 C 208.662 113.496 208.662 113.376 208.582 113.255 C 206.372 110.121 203.961 107.147 201.429 104.213 C 205.006 101.038 208.542 97.904 212.078 94.689 C 213.484 96.055 214.851 97.462 216.257 98.788 C 217.021 99.511 218.467 98.507 217.784 97.623 C 216.578 96.016 215.292 94.489 214.047 92.921 C 220.517 87.094 226.906 81.187 233.175 75.159 C 234.099 74.275 232.813 72.547 231.768 73.351 C 224.896 78.455 218.185 84.081 211.675 89.948 C 208.942 86.653 206.089 83.438 203.196 80.223 C 207.777 76.084 212.358 71.945 216.98 67.806 C 217.422 68.369 217.944 68.931 218.387 69.494 C 218.869 70.057 219.914 69.293 219.432 68.69 C 218.99 68.047 218.508 67.484 218.025 66.841 C 223.088 62.3 228.152 57.719 233.255 53.178 C 234.42 52.093 232.692 50.486 231.487 51.41 C 226.263 55.549 221.079 59.849 215.975 64.189 C 213.644 61.215 211.233 58.242 208.782 55.348 C 211.876 52.414 214.971 49.481 218.025 46.507 C 219.15 45.422 217.462 43.774 216.337 44.779 C 213.243 47.632 210.148 50.485 207.054 53.339 C 204.804 50.727 202.473 48.195 200.102 45.664 C 204.442 42.168 208.822 38.672 213.202 35.135 C 214.247 34.251 212.88 32.523 211.755 33.246 C 206.933 36.22 202.151 39.475 197.449 42.81 C 194.757 40.077 192.064 37.425 189.291 34.813 C 188.809 34.371 188.126 35.054 188.568 35.536 C 191.1 38.269 193.551 41.041 196.043 43.774 C 190.618 47.712 185.233 51.811 179.969 56.111 C 177.076 53.177 174.182 50.284 171.289 47.431 C 178.723 40.479 186.198 33.527 193.592 26.575 C 194.757 25.49 193.07 23.923 191.904 24.887 C 184.028 31.196 176.272 37.867 168.677 44.819 C 167.431 43.573 166.185 42.328 164.98 41.082 C 164.176 40.278 163.011 41.484 163.734 42.288 C 164.939 43.534 166.105 44.82 167.31 46.065 C 162.488 50.526 157.786 55.107 153.165 59.728 C 152.683 59.326 152.16 58.884 151.638 58.442 C 150.754 57.638 149.468 58.924 150.352 59.728 C 150.834 60.21 151.317 60.652 151.839 61.094 C 147.861 65.113 143.963 69.212 140.185 73.351 C 138.979 72.226 137.693 71.181 136.488 70.056 C 135.925 69.534 135.041 70.377 135.644 70.94 C 136.809 72.065 138.055 73.231 139.22 74.396 C 136.688 77.169 134.157 79.942 131.705 82.755 C 131.343 83.197 131.906 83.76 132.348 83.398 C 135.121 80.866 137.853 78.294 140.626 75.723 C 143.439 78.456 146.252 81.148 149.105 83.841 C 146.292 86.614 143.519 89.427 140.787 92.2 C 140.144 91.718 139.541 91.356 139.019 91.276 C 139.662 91.276 139.742 90.191 139.099 90.03 C 138.376 89.829 138.255 89.909 137.733 90.432 C 137.492 90.673 137.452 91.035 137.612 91.316 C 138.054 92.16 138.657 93.004 139.34 93.807 C 139.3 94.129 139.541 94.41 139.822 94.41 C 142.675 97.585 146.855 100.438 149.708 102.889 C 150.713 103.733 151.717 104.537 152.682 105.381 C 151.195 106.828 149.668 108.274 148.181 109.761 C 147.578 110.324 148.462 111.168 149.025 110.645 C 150.632 109.198 152.2 107.711 153.807 106.265 C 157.022 108.917 160.317 111.489 163.693 113.981 C 163.733 114.021 163.813 113.981 163.854 113.981 C 162.89 115.026 161.885 116.03 160.961 117.035 C 160.479 117.557 161.202 118.321 161.725 117.799 C 165.864 114.021 170.003 110.284 174.183 106.547 C 177.92 109.802 181.778 112.936 185.636 116.071 C 184.35 117.478 183.024 118.884 181.778 120.25 C 181.256 120.853 182.059 121.656 182.622 121.134 C 184.069 119.808 185.556 118.522 187.002 117.196 C 187.605 117.678 188.167 118.201 188.77 118.683 C 189.654 119.366 190.86 118.241 190.016 117.437 C 189.453 116.955 188.891 116.472 188.368 115.99 C 191.945 112.775 195.481 109.56 199.098 106.345 C 201.75 109.037 204.403 111.69 207.015 114.422 C 207.136 114.542 207.296 114.583 207.417 114.623 C 180.372 135.238 150.313 147.053 129.818 114.181 C 100.161 66.561 168.075 31.881 197.33 7.769 C 197.37 7.729 197.37 7.648 197.41 7.568 C 199.299 9.296 202.715 13.274 204.041 14.359 C 206.774 16.529 209.466 18.739 212.078 20.95 C 217.383 25.451 222.526 30.112 227.389 35.055 C 238.118 45.944 246.437 58.08 254.795 70.738 Z M 250.455 72.185 C 251.259 71.663 250.535 70.497 249.691 70.899 C 247.24 71.984 245.632 73.792 244.628 76.244 C 244.266 77.048 245.633 77.61 246.034 76.847 C 247.08 74.918 248.607 73.351 250.455 72.185 Z M 244.387 72.868 C 244.789 72.386 244.106 71.703 243.704 72.185 C 242.659 73.31 241.695 74.516 240.69 75.721 C 240.328 76.163 240.931 76.806 241.333 76.364 C 242.378 75.199 243.423 74.074 244.387 72.868 Z M 205.889 23.239 C 206.492 23.922 207.376 22.958 206.813 22.315 C 204.924 19.984 202.754 18.176 200.142 16.649 C 199.419 16.247 198.776 17.372 199.499 17.814 C 201.831 19.381 203.96 21.23 205.889 23.239 Z M 161.404 127.199 C 162.529 127.038 162.248 125.15 161.123 125.23 C 159.516 125.351 157.948 125.23 156.381 124.868 C 155.135 124.546 154.653 126.355 155.859 126.757 C 157.707 127.36 159.475 127.481 161.404 127.199 Z M 160.359 131.539 C 161.203 131.338 161.042 129.932 160.158 130.012 C 157.144 130.293 154.17 129.972 151.438 128.726 C 150.474 128.284 149.63 129.65 150.594 130.132 C 153.688 131.7 156.943 132.303 160.359 131.539 Z" fill="#CCECF8"/><path d=" M 249.692 70.899 C 250.536 70.497 251.259 71.663 250.456 72.185 C 248.607 73.35 247.08 74.918 246.036 76.847 C 245.634 77.611 244.268 77.048 244.63 76.244 C 245.633 73.793 247.24 71.984 249.692 70.899 Z" fill="#1D1D1B"/><path d=" M 243.704 72.185 C 244.106 71.703 244.789 72.386 244.387 72.868 C 243.423 74.074 242.378 75.199 241.333 76.364 C 240.931 76.806 240.328 76.163 240.69 75.721 C 241.695 74.516 242.659 73.31 243.704 72.185 Z" fill="#1D1D1B"/><path d=" M 207.457 56.633 C 209.908 59.486 212.36 62.339 214.771 65.192 C 210.029 69.251 205.367 73.35 200.746 77.529 C 198.375 74.917 195.924 72.345 193.472 69.773 C 198.134 65.394 202.835 61.054 207.457 56.633 Z" fill="#CCECF8"/><path d=" M 206.814 22.315 C 207.377 22.958 206.492 23.922 205.89 23.239 C 203.961 21.23 201.831 19.381 199.501 17.814 C 198.778 17.372 199.421 16.247 200.144 16.649 C 202.755 18.176 204.925 19.984 206.814 22.315 Z" fill="#1D1D1B"/><path d=" M 198.736 46.748 C 201.067 49.36 203.397 51.972 205.728 54.584 C 200.986 58.964 196.325 63.465 191.623 67.886 C 188.81 64.952 185.957 62.059 183.064 59.206 C 188.288 55.066 193.512 50.927 198.736 46.748 Z" fill="#CCECF8"/><path d=" M 200.424 82.674 C 203.398 85.849 206.371 88.983 209.426 92.077 C 205.97 95.252 202.594 98.507 199.299 101.802 C 196.325 98.507 193.271 95.252 190.056 92.117 C 193.512 88.983 196.968 85.808 200.424 82.674 Z" fill="#CCECF8"/><path d=" M 190.86 72.225 C 193.271 74.837 195.642 77.489 198.053 80.101 C 194.557 83.316 191.101 86.571 187.685 89.826 C 185.073 87.375 182.421 84.923 179.728 82.552 C 183.466 79.097 187.163 75.681 190.86 72.225 Z" fill="#CCECF8"/><path d=" M 187.283 94.609 C 190.538 97.743 193.753 100.958 196.928 104.173 C 193.512 107.629 190.177 111.165 186.882 114.702 C 183.225 111.447 179.568 108.192 175.871 104.977 C 179.688 101.521 183.506 98.065 187.283 94.609 Z" fill="#CCECF8"/><path d=" M 180.854 60.973 C 183.587 64.067 186.36 67.162 189.092 70.256 C 185.355 73.792 181.658 77.369 177.92 80.945 C 174.424 77.851 170.887 74.837 167.351 71.823 C 171.852 68.207 176.313 64.59 180.854 60.973 Z" fill="#CCECF8"/><path d=" M 177.237 84.884 C 179.849 87.376 182.461 89.907 185.033 92.439 C 181.336 96.015 177.679 99.672 174.062 103.369 C 171.169 100.797 168.275 98.225 165.382 95.694 C 169.32 92.077 173.299 88.501 177.237 84.884 Z" fill="#CCECF8"/><path d=" M 165.221 73.551 C 168.677 76.766 172.093 79.981 175.509 83.236 C 171.611 86.933 167.834 90.71 163.976 94.448 C 160.038 91.032 156.22 87.536 152.322 84.08 C 156.582 80.544 160.881 77.048 165.221 73.551 Z" fill="#CCECF8"/><path d=" M 169.843 48.797 C 172.535 51.73 175.268 54.744 177.96 57.758 C 173.379 61.535 168.918 65.433 164.498 69.412 C 161.484 66.88 158.551 64.389 155.657 61.857 C 160.359 57.517 165.101 53.177 169.843 48.797 Z" fill="#CCECF8"/><path d=" M 163.654 97.261 C 166.547 99.873 169.481 102.445 172.414 105.017 C 169.882 107.589 167.431 110.241 164.939 112.853 C 164.899 112.733 164.899 112.612 164.819 112.531 C 161.644 109.999 158.47 107.427 155.335 104.896 C 158.109 102.324 160.881 99.793 163.654 97.261 Z" fill="#CCECF8"/><path d=" M 154.13 63.264 C 156.983 65.876 159.796 68.488 162.609 71.1 C 158.47 74.837 154.451 78.655 150.473 82.473 C 147.58 79.901 144.646 77.329 141.753 74.717 C 145.852 70.899 149.991 67.082 154.13 63.264 Z" fill="#CCECF8"/><path d=" M 162.288 96.055 C 159.595 98.667 156.863 101.319 154.17 103.931 C 153.406 103.328 152.643 102.725 151.879 102.123 C 149.87 100.435 147.901 98.787 145.891 97.06 C 144.967 96.256 143.319 94.408 141.752 93.001 C 144.726 90.429 147.74 87.897 150.794 85.366 C 154.572 88.983 158.43 92.519 162.288 96.055 Z" fill="#CCECF8"/><path d=" M 161.123 125.23 C 162.248 125.15 162.529 127.038 161.404 127.199 C 159.475 127.48 157.707 127.36 155.858 126.757 C 154.652 126.355 155.135 124.547 156.38 124.868 C 157.948 125.23 159.515 125.351 161.123 125.23 Z" fill="#1D1D1B"/><path d=" M 160.158 130.012 C 161.042 129.932 161.203 131.338 160.359 131.539 C 156.943 132.303 153.688 131.7 150.594 130.133 C 149.63 129.651 150.474 128.284 151.438 128.727 C 154.17 129.972 157.144 130.294 160.158 130.012 Z" fill="#1D1D1B"/><path d=" M 129.898 120.971 C 131.465 122.86 133.033 124.548 134.64 126.115 C 113.743 141.948 95.178 161.88 76.612 180.325 C 76.21 179.923 75.849 179.562 75.487 179.24 C 74.764 178.557 73.96 177.994 73.196 177.391 C 92.204 158.946 111.372 139.536 129.094 119.845 C 129.376 120.207 129.617 120.569 129.898 120.971 Z M 123.549 128.847 C 124.272 127.963 123.107 126.798 122.263 127.561 C 120.736 129.048 119.289 130.615 117.843 132.182 C 117.12 132.986 118.245 134.151 119.049 133.388 C 120.575 131.901 122.102 130.414 123.549 128.847 Z" fill="#CCECF8"/><path d=" M 122.263 127.561 C 123.107 126.797 124.272 127.963 123.549 128.847 C 122.102 130.414 120.575 131.901 119.048 133.388 C 118.244 134.151 117.119 132.986 117.842 132.182 C 119.289 130.615 120.736 129.048 122.263 127.561 Z" fill="#1D1D1B"/><path d=" M 75.286 184.585 C 75.648 185.148 75.929 185.67 76.291 186.152 C 66.044 196.882 56.158 207.892 46.513 219.144 C 41.57 224.891 36.708 230.677 31.805 236.424 C 29.756 238.875 27.626 241.327 25.496 243.778 C 19.91 251.735 12.958 251.253 4.64 242.372 C 4.72 230.758 28.912 212.474 34.699 207.009 C 41.37 200.74 48.282 194.672 55.033 188.483 C 56.44 187.679 57.806 186.956 59.092 185.951 C 59.454 185.629 59.132 185.147 58.73 185.107 C 61.623 182.374 64.436 179.602 67.209 176.748 C 69.379 178.154 71.308 179.762 73.036 181.731 C 73.839 182.615 74.603 183.58 75.286 184.585 Z M 65.882 185.428 C 66.445 184.705 65.239 183.74 64.596 184.423 C 62.908 186.432 61.261 188.442 59.653 190.531 C 59.01 191.295 60.095 192.46 60.778 191.656 C 62.507 189.608 64.235 187.558 65.882 185.428 Z M 60.618 187.478 C 61.1 186.875 60.337 186.031 59.774 186.634 C 57.725 188.724 55.796 190.853 54.068 193.184 C 53.666 193.747 54.51 194.349 54.992 193.907 C 57.001 191.898 58.85 189.728 60.618 187.478 Z M 25.898 238.152 C 26.42 237.589 25.657 236.906 25.094 237.348 C 23.045 238.955 20.553 239.88 17.981 239.92 C 17.177 239.96 17.177 241.126 17.981 241.166 C 21.035 241.286 23.728 240.322 25.898 238.152 Z M 21.075 243.657 C 21.437 243.054 20.633 242.492 20.151 242.934 C 17.74 245.104 14.163 245.225 11.873 242.854 C 11.27 242.291 10.225 243.055 10.708 243.738 C 13.119 247.154 18.865 247.395 21.075 243.657 Z" fill="#33B3E2"/><path d=" M 64.597 184.424 C 65.24 183.741 66.445 184.705 65.883 185.429 C 64.235 187.559 62.507 189.608 60.779 191.658 C 60.096 192.462 59.011 191.296 59.654 190.533 C 61.261 188.442 62.909 186.433 64.597 184.424 Z" fill="#1D1D1B"/><path d=" M 59.774 186.634 C 60.337 186.031 61.1 186.875 60.618 187.478 C 58.85 189.728 57.001 191.899 54.992 193.908 C 54.51 194.35 53.666 193.747 54.068 193.185 C 55.796 190.853 57.725 188.724 59.774 186.634 Z" fill="#1D1D1B"/><path d=" M 25.094 237.348 C 25.657 236.906 26.42 237.589 25.898 238.152 C 23.728 240.322 21.036 241.286 17.981 241.166 C 17.177 241.126 17.177 239.96 17.981 239.92 C 20.553 239.88 23.045 238.956 25.094 237.348 Z" fill="#1D1D1B"/><path d=" M 20.151 242.934 C 20.633 242.492 21.437 243.055 21.075 243.657 C 18.865 247.394 13.118 247.153 10.707 243.737 C 10.225 243.054 11.27 242.29 11.872 242.853 C 14.164 245.225 17.74 245.104 20.151 242.934 Z" fill="#1D1D1B"/></g><g></g><g></g><g></g><g></g><g></g><g></g><g></g><g></g><g></g><g></g><g></g><g></g><g></g><g></g><g></g></svg>