<svg version="1.1" width="681.333" height="681.333" viewBox="0 -77 512 511" xmlns="http://www.w3.org/2000/svg" xmlns:xlink="http://www.w3.org/1999/xlink" overflow="hidden"><path d=" M 468.719 22.457 C 467.484 14.1563 460.359 8.01172 451.969 8.01172 L 59.9922 8.01172 C 51.6016 8.01172 44.4727 14.1563 43.2422 22.457 L 7.5 263.227 L 7.5 338.305 C 7.5 345.09 13.0039 350.594 19.7891 350.594 L 492.172 350.594 C 498.957 350.594 504.461 345.09 504.461 338.305 L 504.461 263.227 Z" fill="#8FD143"/><path d=" M 468.719 22.457 C 467.484 14.1563 460.359 8.01172 451.969 8.01172 L 387.871 8.01172 C 396.266 8.01172 403.391 14.1563 404.625 22.457 L 440.363 263.227 L 440.363 338.305 C 440.363 345.09 434.863 350.594 428.074 350.594 L 492.172 350.594 C 498.957 350.594 504.461 345.09 504.461 338.305 L 504.461 263.227 Z" fill="#7BB72E"/><path d=" M 442.508 119.387 C 442.508 136.422 412.816 157.199 390.395 169.648 C 372.344 179.672 349.234 180.5 321.684 185.359 C 302.109 188.813 287.434 210.277 265.012 210.277 C 239.672 210.277 208.098 195.391 186.535 191.039 C 166.379 186.977 128.559 189.535 113.672 182.527 C 85.9023 169.457 69.4531 129.238 69.4531 110.043 C 69.4531 89.8398 107.559 85.9805 137.973 72.7188 C 153.246 66.0547 176.906 82.2227 197.125 78.4922 C 217.344 74.7695 234.125 51.1484 257.469 51.1484 C 294.449 51.1484 320.039 69.7227 347.844 78.4922 C 363.188 83.3359 385.195 75.8711 396.035 82.6406 C 415.039 94.5078 442.508 103.832 442.508 119.387 Z" fill="#575D60"/><path d=" M 243.523 130.715 C 176.996 130.715 119.191 143.469 89.8906 162.211 C 96.4375 170.805 104.422 178.176 113.672 182.527 C 128.563 189.539 166.379 186.977 186.535 191.039 C 208.098 195.391 239.672 210.277 265.012 210.277 C 287.434 210.277 302.109 188.813 321.684 185.359 C 349.234 180.504 372.344 179.676 390.395 169.648 C 393.477 167.938 396.691 166.066 399.949 164.074 C 371.645 144.32 312.238 130.715 243.523 130.715 Z" fill="#464C50"/><path d=" M 492.172 350.594 L 19.7891 350.594 C 13.0039 350.594 7.5 345.09 7.5 338.305 L 7.5 263.227 L 504.461 263.227 L 504.461 338.305 C 504.461 345.09 498.957 350.594 492.172 350.594 Z" fill="#E88C38"/><path d=" M 504.461 338.305 L 504.461 263.227 L 440.363 263.227 L 440.363 338.305 C 440.363 345.09 434.863 350.594 428.074 350.594 L 492.172 350.594 C 498.957 350.594 504.461 345.09 504.461 338.305 Z" fill="#CC7A2F"/><path d=" M 116.242 299.715 L 175.492 299.715 C 179.637 299.715 182.992 296.355 182.992 292.215 C 182.992 288.07 179.637 284.715 175.492 284.715 L 116.242 284.715 C 112.102 284.715 108.742 288.07 108.742 292.215 C 108.742 296.355 112.102 299.715 116.242 299.715 Z"/><path d=" M 225.926 299.715 L 285.176 299.715 C 289.316 299.715 292.676 296.355 292.676 292.215 C 292.676 288.07 289.316 284.715 285.176 284.715 L 225.926 284.715 C 221.781 284.715 218.426 288.07 218.426 292.215 C 218.422 296.355 221.781 299.715 225.926 299.715 Z"/><path d=" M 335.605 299.715 L 394.855 299.715 C 399 299.715 402.355 296.355 402.355 292.215 C 402.355 288.07 398.996 284.715 394.855 284.715 L 335.605 284.715 C 331.461 284.715 328.105 288.07 328.105 292.215 C 328.105 296.355 331.461 299.715 335.605 299.715 Z"/><path d=" M 511.914 262.129 L 484.488 77.3789 C 483.879 73.2813 480.063 70.4453 475.969 71.0586 C 471.871 71.668 469.043 75.4844 469.648 79.5781 L 495.797 255.73 L 16.1992 255.73 L 23.1563 208.879 C 23.7617 204.781 20.9336 200.965 16.8359 200.355 C 12.7266 199.754 8.92188 202.578 8.31641 206.676 C -0.417969 265.559 0.00390625 262.398 0.00390625 263.23 L 0.00390625 338.313 C 0.00390625 349.227 8.88281 358.102 19.793 358.102 L 492.203 358.102 C 503.117 358.102 511.996 349.227 511.996 338.313 C 511.996 337.703 512.031 262.91 511.914 262.129 Z M 492.207 343.102 L 19.793 343.102 C 17.1523 343.102 15.0039 340.953 15.0039 338.313 L 15.0039 299.715 L 65.8125 299.715 C 69.957 299.715 73.3125 296.355 73.3125 292.215 C 73.3125 288.07 69.957 284.715 65.8125 284.715 L 15.0039 284.715 L 15.0039 270.73 L 496.996 270.73 L 496.996 284.715 L 445.285 284.715 C 441.145 284.715 437.785 288.07 437.785 292.215 C 437.785 296.355 441.145 299.715 445.285 299.715 L 496.996 299.715 L 496.996 338.313 C 496.996 340.953 494.844 343.102 492.207 343.102 Z"/><path d=" M 120.652 318.387 L 61.4023 318.387 C 57.2617 318.387 53.9023 321.746 53.9023 325.887 C 53.9023 330.031 57.2617 333.387 61.4023 333.387 L 120.652 333.387 C 124.797 333.387 128.152 330.031 128.152 325.887 C 128.152 321.746 124.797 318.387 120.652 318.387 Z"/><path d=" M 230.332 318.387 L 171.082 318.387 C 166.941 318.387 163.582 321.746 163.582 325.887 C 163.582 330.031 166.941 333.387 171.082 333.387 L 230.332 333.387 C 234.477 333.387 237.832 330.031 237.832 325.887 C 237.836 321.746 234.477 318.387 230.332 318.387 Z"/><path d=" M 340.016 318.387 L 280.766 318.387 C 276.621 318.387 273.266 321.746 273.266 325.887 C 273.266 330.031 276.621 333.387 280.766 333.387 L 340.016 333.387 C 344.156 333.387 347.516 330.031 347.516 325.887 C 347.516 321.746 344.156 318.387 340.016 318.387 Z"/><path d=" M 449.695 318.387 L 390.445 318.387 C 386.301 318.387 382.945 321.746 382.945 325.887 C 382.945 330.031 386.305 333.387 390.445 333.387 L 449.695 333.387 C 453.84 333.387 457.195 330.031 457.195 325.887 C 457.195 321.746 453.84 318.387 449.695 318.387 Z"/><path d=" M 20.1602 185.539 C 23.8164 185.539 27.0195 182.863 27.5703 179.137 L 50.668 23.5508 C 51.3477 18.9609 55.3594 15.5 60 15.5 L 452 15.5 C 456.641 15.5 460.652 18.9609 461.332 23.5508 L 465.148 49.2539 C 465.758 53.3516 469.57 56.1836 473.668 55.5703 C 477.766 54.9609 480.594 51.1484 479.988 47.0508 L 476.172 21.3477 C 474.41 9.46484 464.016 0.5 452 0.5 L 60 0.5 C 47.9844 0.5 37.5938 9.46094 35.8281 21.3477 L 12.7305 176.938 C 12.0625 181.445 15.5469 185.539 20.1602 185.539 Z"/><path d=" M 400.035 76.2695 C 386.328 67.7109 364.102 75.7422 350.125 71.3359 C 323.094 62.8086 296.203 43.6445 257.488 43.6445 C 231.395 43.6445 213.688 67.8125 195.781 71.1133 C 177.527 74.4766 153.59 57.7227 134.984 65.8359 C 103.387 79.6172 61.9609 83.0938 61.9609 110.039 C 61.9609 134.09 81.6875 175.762 110.488 189.316 C 127.297 197.23 165.305 194.406 185.066 198.395 C 206.074 202.633 238.211 217.781 265.031 217.781 C 290.168 217.781 305.75 195.793 323.012 192.746 C 364.004 185.52 375.102 188.137 404.125 170.324 C 407.004 168.414 418.789 161.469 429.809 151.898 C 443.422 140.078 450.043 129.441 450.043 119.387 C 450.039 98.4141 419.988 88.7305 400.035 76.2695 Z M 320.406 177.973 C 298.84 181.777 284.461 202.777 265.031 202.777 C 241.297 202.777 210 188.121 188.031 183.688 C 167.992 179.648 129.641 181.754 116.875 175.742 C 111.203 173.074 106.043 169.035 101.441 164.215 C 132.332 148.063 185.504 138.211 243.543 138.211 C 300.863 138.211 354.352 148.121 385.133 163.957 C 368.676 172.363 346.582 173.355 320.406 177.973 Z M 435.039 119.383 C 435.039 127.852 421.438 141.543 400.074 155.184 C 333.559 113.867 164.789 112.359 92.0586 152.227 C 82.3906 137.344 76.9609 119.938 76.9609 110.039 C 76.9609 97.0586 113.719 91.4766 140.98 79.5859 C 152.582 74.5273 176.789 89.8672 198.5 85.8633 C 220.527 81.8047 237.289 58.6445 257.488 58.6445 C 292.551 58.6445 317.352 76.7266 345.613 85.6406 C 361.773 90.7422 384.418 84.2031 392.09 88.9961 C 408.227 99.0742 435.039 109.66 435.039 119.383 Z"/></svg>