<svg version="1.1" viewBox="0 0 512 512" xmlns="http://www.w3.org/2000/svg" xmlns:xlink="http://www.w3.org/1999/xlink" id="Capa_1" overflow="hidden"><g><path d=" M 194.751 10.441 C 193.817 8.314 191.49 7.126 189.217 7.606 C 161.679 13.413 129.38 54.726 130.381 82.841 C 130.464 85.162 132.178 87.134 134.467 87.528 C 178.097 95.031 212.552 50.98 194.751 10.441 Z" fill="#9CDD05"/><path d=" M 254.553 137.227 C 254.749 135.099 253.405 133.106 251.362 132.479 C 226.609 124.883 182.204 143.743 170.482 166.818 C 169.514 168.723 170.015 171.074 171.682 172.411 C 203.454 197.892 250.816 177.789 254.553 137.227 Z" fill="#9CDD05"/><path d=" M 8.668 87.338 C 8.472 85.21 9.816 83.217 11.859 82.59 C 36.612 74.994 81.017 93.854 92.739 116.929 C 93.707 118.834 93.206 121.185 91.539 122.522 C 59.766 148.004 12.405 127.901 8.668 87.338 Z" fill="#9CDD05"/><path d=" M 254.553 237.005 C 254.749 234.877 253.405 232.884 251.362 232.257 C 226.609 224.661 182.204 243.521 170.482 266.596 C 169.514 268.501 170.015 270.852 171.682 272.189 C 203.454 297.67 250.816 277.566 254.553 237.005 Z" fill="#9CDD05"/><path d=" M 8.668 187.116 C 8.472 184.988 9.816 182.995 11.859 182.368 C 36.612 174.772 81.017 193.632 92.739 216.707 C 93.707 218.612 93.206 220.963 91.539 222.3 C 59.766 247.78 12.405 227.678 8.668 187.116 Z" fill="#9CDD05"/><path d=" M 8.668 289.486 C 8.472 287.358 9.816 285.365 11.859 284.738 C 36.612 277.142 81.017 296.002 92.739 319.077 C 93.707 320.982 93.206 323.333 91.539 324.67 C 59.766 350.151 12.405 330.049 8.668 289.486 Z" fill="#9CDD05"/><path d=" M 440.992 85.231 C 440.233 83.502 438.34 82.536 436.492 82.925 C 414.1 87.647 387.837 121.24 388.651 144.102 C 388.718 145.989 390.112 147.593 391.973 147.913 C 427.451 154.016 455.467 118.196 440.992 85.231 Z" fill="#9CDD05"/><path d=" M 490.103 188.327 C 490.262 186.597 489.17 184.976 487.509 184.466 C 467.382 178.289 431.273 193.625 421.742 212.389 C 420.955 213.938 421.362 215.85 422.718 216.937 C 448.554 237.656 487.065 221.31 490.103 188.327 Z" fill="#9CDD05"/><path d=" M 290.165 147.76 C 290.006 146.03 291.098 144.409 292.759 143.899 C 312.886 137.722 348.995 153.058 358.526 171.822 C 359.313 173.371 358.906 175.283 357.55 176.37 C 331.714 197.09 293.203 180.743 290.165 147.76 Z" fill="#9CDD05"/><path d=" M 290.165 228.893 C 290.006 227.163 291.098 225.542 292.759 225.032 C 312.886 218.855 348.995 234.191 358.526 252.955 C 359.313 254.504 358.906 256.416 357.55 257.503 C 331.714 278.222 293.203 261.876 290.165 228.893 Z" fill="#9CDD05"/></g><path d=" M 415.463 412.086 C 404.829 386.682 378.162 368.658 346.925 368.658 C 326.987 368.658 308.915 376.009 295.676 387.924 C 283.558 383.921 270.61 381.742 257.15 381.742 C 228.786 381.742 202.675 391.368 181.89 407.525 C 175.605 404.19 168.44 402.294 160.829 402.294 C 148.059 402.294 136.541 407.621 128.351 416.164 C 119.731 413.507 110.582 412.06 101.09 412.06 C 51.386 412.06 10.844 451.287 8.735 500.472 C 8.641 502.671 10.418 504.501 12.619 504.501 L 501.679 504.501 C 503.88 504.501 505.657 502.67 505.563 500.472 C 503.485 452.031 464.133 413.251 415.463 412.086 Z" fill="#9B6F43"/><g><path d=" M 150.326 82.84 C 149.523 60.299 170.841 27.088 195.775 12.957 C 195.452 12.112 195.116 11.272 194.751 10.441 C 193.817 8.315 191.49 7.127 189.217 7.606 C 161.679 13.413 129.38 54.726 130.381 82.841 C 130.464 85.162 132.178 87.134 134.467 87.528 C 140.946 88.642 147.554 88.586 153.968 87.411 C 151.909 86.851 150.403 85.006 150.326 82.84 Z" fill="#94C609"/><path d=" M 191.627 172.412 C 189.96 171.075 189.459 168.724 190.427 166.819 C 198.749 150.437 224.333 135.401 248.102 131.678 C 222.342 126.491 181.558 145.016 170.482 166.819 C 169.514 168.724 170.015 171.075 171.682 172.412 C 183.291 181.722 198.666 185.705 213.686 182.691 C 205.644 181.085 198.056 177.569 191.627 172.412 Z" fill="#94C609"/><path d=" M 28.613 87.338 C 28.417 85.21 29.761 83.217 31.804 82.59 C 32.836 82.273 33.935 82.016 35.064 81.789 C 26.151 80.393 18.084 80.68 11.859 82.59 C 9.816 83.217 8.473 85.21 8.668 87.338 C 11.476 117.829 40.047 138.678 69.481 132.802 C 47.1 128.312 30.676 109.731 28.613 87.338 Z" fill="#94C609"/><path d=" M 191.627 272.189 C 189.96 270.852 189.459 268.501 190.427 266.596 C 198.757 250.198 224.355 235.175 248.102 231.455 C 222.344 226.268 181.558 244.793 170.482 266.596 C 169.514 268.501 170.015 270.852 171.682 272.189 C 183.291 281.499 198.665 285.482 213.685 282.468 C 205.644 280.862 198.056 277.346 191.627 272.189 Z" fill="#94C609"/><path d=" M 28.613 187.116 C 28.417 184.988 29.761 182.995 31.804 182.368 C 32.836 182.051 33.935 181.794 35.064 181.567 C 26.151 180.171 18.084 180.458 11.859 182.368 C 9.816 182.995 8.473 184.988 8.668 187.116 C 11.476 217.599 40.039 238.458 69.481 232.58 C 47.14 228.098 30.68 209.548 28.613 187.116 Z" fill="#94C609"/><path d=" M 28.613 289.486 C 28.417 287.358 29.761 285.365 31.804 284.738 C 32.836 284.421 33.935 284.164 35.064 283.937 C 26.151 282.541 18.084 282.828 11.859 284.738 C 9.816 285.365 8.473 287.358 8.668 289.486 C 11.476 319.967 40.039 340.828 69.481 334.95 C 47.134 330.468 30.679 311.912 28.613 289.486 Z" fill="#94C609"/><path d=" M 408.596 144.102 C 407.965 126.39 423.839 101.343 442.474 89.147 C 442.034 87.824 441.556 86.513 440.993 85.231 C 440.234 83.502 438.341 82.536 436.493 82.925 C 414.102 87.647 387.838 121.239 388.652 144.102 C 388.719 145.989 390.113 147.593 391.974 147.913 C 398.101 148.967 404.367 148.726 410.365 147.269 C 409.332 146.567 408.642 145.408 408.596 144.102 Z" fill="#94C609"/><path d=" M 442.662 216.937 C 441.307 215.85 440.899 213.938 441.686 212.389 C 448.149 199.665 467.568 187.775 486.469 184.186 C 465.955 178.808 431.06 194.047 421.742 212.389 C 420.955 213.938 421.362 215.85 422.718 216.937 C 432.638 224.893 445.939 228.049 458.734 224.861 C 452.891 223.412 447.39 220.729 442.662 216.937 Z" fill="#94C609"/><path d=" M 310.109 147.76 C 309.95 146.03 311.042 144.409 312.703 143.899 C 313.039 143.796 313.394 143.711 313.743 143.619 C 305.661 142.085 298.308 142.196 292.759 143.899 C 291.098 144.409 290.005 146.03 290.165 147.76 C 292.508 173.199 316.898 190.389 341.479 184.294 C 323.681 179.859 311.681 164.823 310.109 147.76 Z" fill="#94C609"/><path d=" M 310.109 228.893 C 309.95 227.163 311.042 225.542 312.703 225.032 C 313.039 224.929 313.394 224.844 313.743 224.752 C 305.661 223.217 298.308 223.328 292.759 225.032 C 291.098 225.542 290.005 227.162 290.165 228.893 C 292.508 254.331 316.898 271.522 341.479 265.426 C 323.681 260.992 311.681 245.956 310.109 228.893 Z" fill="#94C609"/></g><path d=" M 28.681 500.469 C 30.647 454.632 65.994 417.449 111.027 412.599 C 107.763 412.247 104.45 412.057 101.091 412.057 C 51.387 412.057 10.845 451.284 8.736 500.469 C 8.642 502.668 10.419 504.498 12.62 504.498 L 32.565 504.498 C 30.364 504.499 28.586 502.668 28.681 500.469 Z" fill="#875E39"/><path d=" M 419.273 404.813 C 413.909 394.007 406.072 384.793 396.526 377.653 L 396.526 264.189 C 396.526 244.322 409.672 230.351 417.905 223.547 C 448.568 246.893 492.932 227.36 496.463 189.014 C 496.945 183.77 493.639 178.841 488.601 177.295 C 465.788 170.294 427.685 185.83 415.061 206.979 C 411.564 209.26 403.743 214.9 396.526 223.776 L 396.526 155.942 C 414.187 157.134 430.905 149.452 441.536 135.858 L 441.536 135.858 C 453.493 120.567 456.066 100.013 448.251 82.217 C 446.074 77.257 440.64 74.467 435.335 75.588 C 409.67 80.999 381.244 116.98 381.544 143.518 C 381.537 143.652 381.524 143.783 381.524 143.919 L 381.524 183.259 C 374.345 174.428 366.563 168.798 363.039 166.494 C 350.437 145.254 312.228 129.74 289.449 136.73 C 284.41 138.276 281.102 143.204 281.586 148.45 C 283.247 166.477 294.617 182.065 311.257 189.131 L 311.257 189.131 C 327.47 196.014 346.071 193.697 360.143 182.983 C 368.37 189.73 381.523 203.647 381.523 223.672 L 381.523 264.3 C 374.27 255.378 366.41 249.729 362.938 247.471 C 350.255 226.344 312.218 210.88 289.448 217.865 C 284.409 219.411 281.102 224.339 281.585 229.585 C 283.246 247.613 294.616 263.201 311.257 270.266 L 311.257 270.266 C 327.491 277.159 346.119 274.829 360.203 264.073 C 368.435 270.839 381.523 284.738 381.523 304.714 L 381.523 368.801 C 353.48 356.046 318.301 359.001 292.851 379.537 C 256.09 368.712 214.057 374.112 179.886 398.824 C 166.75 393.366 151.497 393.334 137.999 399.478 L 137.999 330.189 C 137.999 304.251 155.632 286.321 165.912 278.072 C 202.267 307.182 256.621 284.244 260.91 237.696 C 261.429 232.056 257.872 226.754 252.451 225.09 C 225.072 216.687 178.891 235.609 163.905 260.985 C 159.51 263.799 147.78 272.05 137.999 285.525 L 137.999 230.528 C 137.999 204.53 155.715 186.575 165.984 178.352 C 202.318 207.354 256.621 184.465 260.909 137.92 C 261.429 132.279 257.871 126.977 252.449 125.314 C 225.047 116.905 178.698 135.883 163.805 161.387 C 159.334 164.261 147.704 172.492 137.997 185.864 L 137.997 95.534 C 160.616 97.721 182.136 87.672 195.085 69.821 C 197.518 66.468 196.772 61.778 193.419 59.345 C 190.065 56.912 185.376 57.657 182.943 61.011 C 182.605 61.477 182.256 61.939 181.898 62.397 C 171.437 75.774 154.784 82.574 138.016 80.453 C 138.89 56.57 165.878 22.061 188.845 15.456 C 190.732 20.336 191.804 25.468 192.036 30.743 C 192.219 34.882 195.739 38.088 199.858 37.906 C 203.996 37.724 207.203 34.221 207.021 30.084 C 206.675 22.224 204.902 14.599 201.752 7.424 C 199.399 2.068 193.533 -0.945 187.803 0.266 C 157.083 6.744 122.632 50.268 123.018 82.126 C 123.008 82.288 122.993 82.449 122.993 82.613 L 122.993 136.027 C 113.322 122.705 101.743 114.485 97.234 111.581 C 82.395 86.011 35.958 67.006 8.549 75.42 C 3.129 77.084 -0.429 82.385 0.09 88.027 C 4.366 134.455 58.541 157.524 94.978 128.486 C 105.242 136.696 123.001 154.662 123.001 180.692 L 123.001 235.689 C 113.256 222.265 101.578 214.025 97.143 211.181 C 82.186 185.711 35.902 166.8 8.549 175.198 C 3.129 176.862 -0.429 182.163 0.09 187.805 C 4.374 234.327 58.708 257.295 95.077 228.188 C 105.349 236.377 123.001 254.244 123.001 280.354 L 123.001 339.6 C 114.09 327.324 103.563 319.385 98.435 315.941 C 98.394 315.855 98.36 315.766 98.317 315.681 C 84.921 289.312 36.781 268.901 8.548 277.569 C 3.128 279.233 -0.43 284.534 0.089 290.176 C 4.323 336.153 57.534 359.297 94.059 331.339 C 104.139 339.181 122.999 357.436 122.999 384.266 L 122.999 407.251 C 62.052 392.833 2.835 437.167 0.134 500.147 C -0.143 506.584 5.032 512 11.511 512 L 239.607 512 C 243.749 512 247.107 508.642 247.107 504.5 C 247.107 500.358 243.749 497 239.607 497 L 15.366 497 C 20.056 443.004 73.398 407.409 125.032 423.33 C 127.744 424.165 130.693 423.401 132.656 421.354 C 144.689 408.804 162.968 406.563 177.266 414.151 C 179.874 415.534 183.052 415.259 185.386 413.447 C 217.116 388.781 257.419 383.55 292.215 395.047 C 294.774 395.891 297.585 395.3 299.585 393.5 C 333.643 362.849 390.566 374.682 407.437 414.982 C 408.58 417.711 411.219 419.513 414.176 419.584 C 457.419 420.619 492.97 454.307 496.714 496.999 L 274.61 496.999 C 270.468 496.999 267.11 500.357 267.11 504.499 C 267.11 508.641 270.468 511.999 274.61 511.999 L 500.571 511.999 C 507.026 511.999 512.226 506.607 511.949 500.147 C 509.771 449.404 469.473 408.397 419.273 404.813 Z M 481.06 190.939 C 478.939 202.04 471.453 211.42 460.93 215.888 L 460.93 215.888 C 450.406 220.355 438.459 219.226 428.999 213.043 C 438.631 199.519 464.6 188.477 481.06 190.939 Z M 435.62 91.059 C 444.596 116.893 423.872 143.402 396.631 140.916 C 398.318 122.336 418.03 97.162 435.62 91.059 Z M 317.121 175.321 L 317.121 175.321 C 306.599 170.854 299.113 161.472 296.991 150.371 C 313.41 147.913 339.398 158.918 349.052 172.475 C 339.593 178.66 327.645 179.79 317.121 175.321 Z M 317.121 256.454 L 317.121 256.454 C 306.598 251.987 299.112 242.605 296.991 231.504 C 313.409 229.042 339.4 240.056 349.053 253.608 C 339.593 259.793 327.645 260.923 317.121 256.454 Z M 245.672 238.817 C 240.848 270.954 203.767 286.724 177.274 267.858 C 188.754 249.577 224.588 234.39 245.672 238.817 Z M 245.672 139.04 C 240.849 171.176 203.768 186.948 177.273 168.081 C 188.752 149.803 224.588 134.609 245.672 139.04 Z M 15.331 89.15 C 36.455 84.713 72.272 99.947 83.729 118.19 C 57.258 137.042 20.158 121.316 15.331 89.15 Z M 15.331 188.928 C 36.453 184.491 72.271 199.723 83.729 217.968 C 57.258 236.819 20.158 221.093 15.331 188.928 Z M 15.331 291.298 C 36.453 286.861 72.271 302.093 83.729 320.338 C 57.258 339.189 20.158 323.463 15.331 291.298 Z"/><g></g><g></g><g></g><g></g><g></g><g></g><g></g><g></g><g></g><g></g><g></g><g></g><g></g><g></g><g></g></svg>