<svg version="1.1" width="682.667" height="682.667" viewBox="-87 0 512 512" xmlns="http://www.w3.org/2000/svg" xmlns:xlink="http://www.w3.org/1999/xlink" overflow="hidden"><path d=" M 290.301 150.289 L 169.441 208.07 L 48.582 150.285 C 40.0156 146.191 34.5625 137.543 34.5625 128.047 L 34.5625 7.5 L 304.316 7.5 L 304.316 128.051 C 304.316 137.543 298.863 146.191 290.301 150.289 Z" fill="#FC5B8C"/><path d=" M 304.316 369.621 C 304.316 444.113 243.93 504.5 169.441 504.5 C 94.9492 504.5 34.5625 444.113 34.5625 369.621 C 34.5625 295.133 94.9492 234.746 169.441 234.746 C 243.93 234.746 304.316 295.133 304.316 369.621 Z" fill="#FF8533"/><path d=" M 267.637 369.621 C 267.637 423.855 223.672 467.82 169.441 467.82 C 115.207 467.82 71.2422 423.855 71.2422 369.621 C 71.2422 315.391 115.207 271.426 169.441 271.426 C 223.672 271.426 267.637 315.391 267.637 369.621 Z" fill="#FCDF6C"/><path d=" M 169.441 271.426 C 160.371 271.426 151.598 272.66 143.262 274.961 C 184.785 286.418 215.281 324.457 215.281 369.625 C 215.281 414.789 184.785 452.828 143.262 464.289 C 151.598 466.59 160.375 467.824 169.441 467.824 C 223.672 467.824 267.637 423.859 267.637 369.625 C 267.637 315.391 223.672 271.426 169.441 271.426 Z" fill="#F4B425"/><path d=" M 114.938 182.012 L 169.441 208.07 L 223.945 182.012 L 223.945 7.5 L 114.938 7.5 Z" fill="#E4EAF7"/><path d=" M 223.945 7.5 L 223.945 182.012 L 290.301 150.289 C 298.863 146.191 304.316 137.543 304.316 128.051 L 304.316 7.5 Z" fill="#66BBDD"/><path d=" M 251.957 7.5 L 251.957 102.664 C 251.957 112.156 246.508 120.809 237.941 124.902 L 223.945 131.594 L 223.945 182.012 L 290.301 150.289 C 298.863 146.191 304.316 137.543 304.316 128.051 L 304.316 7.5 Z" fill="#52A7C9"/><path d=" M 318.234 33.7891 L 20.6445 33.7891 C 13.3867 33.7891 7.5 27.9063 7.5 20.6445 C 7.5 13.3867 13.3828 7.5 20.6445 7.5 L 318.234 7.5 C 325.496 7.5 331.383 13.3828 331.383 20.6445 C 331.379 27.9063 325.496 33.7891 318.234 33.7891 Z" fill="#FF8533"/><path d=" M 117.082 182.684 L 114.938 181.66 L 114.938 182.012 L 169.441 208.07 L 223.945 182.012 L 223.945 131.594 Z" fill="#C3C8D0"/><path d=" M 140.484 397.98 L 140.484 410.895 C 140.484 413.691 144.078 415.555 146.742 415.555 L 194.137 415.555 C 196.535 415.555 198.797 412.492 198.797 409.164 C 198.797 405.836 196.535 403.039 194.137 403.039 L 154.996 403.039 L 154.996 397.98 C 154.996 382.672 198.133 373.352 198.133 344.73 C 198.133 328.754 185.086 318.234 169.641 318.234 C 155.129 318.234 142.348 327.555 142.348 341.801 C 142.348 347.789 145.012 349.652 148.738 349.652 C 153.398 349.652 156.195 346.992 156.195 344.328 C 156.195 335.277 162.188 331.148 169.641 331.148 C 179.762 331.148 184.02 338.605 184.02 345.129 C 184.02 365.633 140.484 376.414 140.484 397.98 Z"/><path d=" M 100.266 289.703 C 81.2734 306.152 68.7344 328.824 64.957 353.535 C 64.332 357.629 67.1445 361.457 71.2383 362.082 C 71.6211 362.141 72.0039 362.172 72.3828 362.172 C 76.0234 362.172 79.2188 359.512 79.7852 355.801 C 83.0234 334.609 93.7852 315.16 110.086 301.039 C 126.551 286.777 147.629 278.926 169.441 278.926 C 191.223 278.926 212.281 286.762 228.738 300.992 C 245.027 315.078 255.801 334.492 259.07 355.648 C 259.703 359.742 263.535 362.551 267.629 361.914 C 271.723 361.281 274.527 357.453 273.895 353.359 C 270.082 328.688 257.531 306.059 238.551 289.645 C 219.371 273.059 194.828 263.926 169.441 263.926 C 144.023 263.926 119.457 273.078 100.266 289.703 Z"/><path d=" M 267.641 377.164 C 263.551 376.539 259.719 379.352 259.094 383.445 C 255.855 404.637 245.094 424.086 228.793 438.207 C 212.328 452.469 191.25 460.32 169.438 460.32 C 147.637 460.32 126.563 452.473 110.102 438.219 C 93.8047 424.109 83.0391 404.672 79.7891 383.484 C 79.1641 379.391 75.3359 376.586 71.2422 377.211 C 67.1484 377.836 64.3359 381.664 64.9648 385.758 C 68.75 410.461 81.293 433.117 100.281 449.559 C 119.469 466.172 144.027 475.32 169.438 475.32 C 194.855 475.32 219.422 466.168 238.613 449.547 C 257.605 433.094 270.145 410.426 273.922 385.711 C 274.547 381.617 271.734 377.789 267.641 377.164 Z"/><path d=" M 318.234 0 L 20.6445 0 C 9.26172 0 -2.84217e-14 9.26172 -2.84217e-14 20.6445 C -2.84217e-14 32.0313 9.26172 41.293 20.6445 41.293 L 27.0625 41.293 L 27.0625 128.051 C 27.0625 140.359 34.2422 151.746 45.3477 157.055 L 139.066 201.863 C 130.094 205.012 123.641 213.57 123.641 223.605 L 123.641 234.805 C 67.5313 253.914 27.0625 307.133 27.0625 369.625 C 27.0625 448.129 90.9336 512 169.441 512 C 247.945 512 311.816 448.129 311.816 369.625 C 311.816 307.133 271.348 253.914 215.242 234.805 L 215.242 223.605 C 215.242 213.57 208.789 205.012 199.816 201.863 L 293.535 157.055 C 304.641 151.746 311.816 140.359 311.816 128.051 L 311.816 41.2891 L 318.234 41.2891 C 329.617 41.2891 338.883 32.0273 338.883 20.6445 C 338.883 9.26172 329.617 0 318.234 0 Z M 42.0625 128.047 L 42.0625 41.2891 L 107.438 41.2891 L 107.438 60.1641 C 107.438 64.3047 110.793 67.6641 114.938 67.6641 C 119.078 67.6641 122.438 64.3047 122.438 60.1641 L 122.438 41.2891 L 216.445 41.2891 L 216.445 177.285 L 169.441 199.758 L 122.438 177.285 L 122.438 90.1602 C 122.438 86.0195 119.078 82.6602 114.938 82.6602 C 110.793 82.6602 107.438 86.0195 107.438 90.1602 L 107.438 170.113 L 51.8164 143.52 C 45.8906 140.688 42.0625 134.613 42.0625 128.047 Z M 296.816 369.625 C 296.816 439.859 239.676 497 169.441 497 C 99.2031 497 42.0625 439.859 42.0625 369.625 C 42.0625 299.391 99.2031 242.246 169.441 242.246 C 239.676 242.246 296.816 299.387 296.816 369.625 Z M 200.242 230.602 C 190.32 228.406 180.012 227.246 169.441 227.246 C 158.867 227.246 148.563 228.406 138.641 230.602 L 138.641 223.605 C 138.641 219.176 142.242 215.57 146.672 215.57 L 192.207 215.57 C 196.637 215.57 200.238 219.176 200.238 223.605 L 200.238 230.602 Z M 296.816 128.047 C 296.816 134.613 292.988 140.688 287.063 143.52 L 231.445 170.113 L 231.445 41.2891 L 296.816 41.2891 Z M 318.234 26.2891 L 20.6445 26.2891 C 17.5313 26.2891 15 23.7578 15 20.6445 C 15 17.5313 17.5313 15 20.6445 15 L 318.234 15 C 321.348 15 323.883 17.5313 323.883 20.6445 C 323.883 23.7578 321.348 26.2891 318.234 26.2891 Z"/></svg>