<svg version="1.1" width="94.039" height="94.038" viewBox="0 0 94.039 94.038" xmlns="http://www.w3.org/2000/svg" xmlns:xlink="http://www.w3.org/1999/xlink" id="Capa_1" overflow="hidden"><g><g><path d=" M 50.632 23.056 L 49.764 23.056 C 49.719 23.056 49.69 23.089 49.666 23.128 C 49.978 23.183 50.297 23.215 50.632 23.229 C 50.755 23.233 50.755 23.056 50.632 23.056 Z"/><path d=" M 90.572 80.966 C 90.54 80.848 90.598 80.805 90.701 80.871 C 90.704 80.873 90.707 80.875 90.71 80.876 C 90.814 80.94 90.872 80.898 90.838 80.781 C 90.184 78.477 88.945 76.495 88.184 74.3 C 88.144 74.184 88.172 74.169 88.246 74.267 C 88.411 74.486 88.576 74.705 88.742 74.922 C 88.816 75.02 88.889 75.09 88.906 75.079 C 88.923 75.067 88.885 74.974 88.823 74.869 C 87.911 73.339 86.999 71.809 86.087 70.28 C 86.025 70.175 86.007 70.068 86.049 70.042 C 86.091 70.016 86.183 70.075 86.254 70.174 C 86.455 70.451 86.655 70.729 86.857 71.006 C 86.928 71.105 87.002 71.18 87.019 71.174 C 87.036 71.168 87.025 71.081 86.992 70.98 C 86.959 70.879 86.952 70.778 86.977 70.752 C 87.001 70.727 87.09 70.777 87.176 70.864 C 87.583 71.281 87.995 71.703 88.452 72.171 C 88.538 72.259 88.558 72.241 88.498 72.134 C 88.394 71.947 88.301 71.778 88.212 71.619 C 88.152 71.512 88.121 71.394 88.143 71.369 C 88.164 71.344 88.261 71.36 88.363 71.43 C 88.867 71.784 89.375 72.098 89.915 72.476 C 90.016 72.546 90.062 72.441 90.019 72.342 C 89.976 72.242 90.272 72.078 90.156 72.055 C 89.606 71.947 89.133 71.217 89.133 71.217 C 88.358 69.988 87.378 68.85 86.622 67.609 C 85.59 65.913 84.831 64.078 84.483 62.107 C 84.44 61.863 84.415 61.612 84.401 61.362 C 84.394 61.24 84.363 61.208 84.343 61.292 C 84.324 61.375 84.273 61.349 84.233 61.232 C 83.743 59.824 83.274 58.476 82.807 57.133 C 82.767 57.017 82.743 56.918 82.753 56.911 C 82.765 56.904 82.818 56.987 82.873 57.096 C 83.071 57.492 83.269 57.886 83.467 58.283 C 83.523 58.391 83.584 58.473 83.608 58.466 C 83.629 58.458 83.625 58.368 83.594 58.267 C 83.576 58.205 83.557 58.144 83.528 58.088 C 82.314 55.703 81.109 53.314 79.867 50.944 C 79.623 50.477 79.279 50.039 78.897 49.674 C 77.738 48.569 76.532 47.512 75.358 46.422 C 74.941 46.035 74.566 45.602 74.165 45.196 C 73.958 44.987 73.759 44.758 73.517 44.599 C 71.923 43.557 70.5 42.353 69.311 40.837 C 67.726 38.816 65.565 37.462 63.414 36.12 C 62.897 35.798 62.386 35.452 61.832 35.208 C 61.096 34.884 60.34 34.534 59.559 34.404 C 58.437 34.217 57.276 34.274 56.147 34.119 C 55.333 34.007 54.526 33.768 53.746 33.498 C 51.881 32.853 50.04 32.14 48.178 31.488 C 46.956 31.06 46.271 29.994 45.354 29.202 C 45.3 29.155 45.269 29.081 45.243 29.001 C 45.206 28.884 45.199 28.767 45.228 28.739 C 45.257 28.711 45.369 28.732 45.479 28.786 C 45.775 28.933 46.074 29.081 46.394 29.24 C 46.504 29.294 46.534 29.259 46.461 29.16 C 46.383 29.053 46.308 28.951 46.234 28.851 C 46.161 28.752 46.112 28.654 46.124 28.632 C 46.136 28.61 46.236 28.633 46.347 28.684 C 46.847 28.911 47.347 29.139 47.847 29.366 C 47.958 29.417 48.069 29.439 48.093 29.417 C 48.118 29.394 48.085 29.291 48.021 29.187 C 47.963 29.093 47.898 28.987 47.815 28.853 C 47.751 28.749 47.791 28.701 47.905 28.746 C 48.71 29.066 49.425 29.35 50.132 29.631 C 50.246 29.676 50.343 29.701 50.35 29.686 C 50.358 29.671 50.275 29.612 50.166 29.555 C 49.558 29.229 48.95 28.904 48.342 28.578 C 48.235 28.52 48.161 28.441 48.179 28.402 C 48.198 28.363 48.306 28.363 48.422 28.402 C 48.672 28.486 48.921 28.57 49.171 28.654 C 49.287 28.693 49.391 28.703 49.403 28.675 C 49.415 28.648 49.348 28.563 49.254 28.485 C 49.192 28.434 49.13 28.384 49.068 28.333 C 48.972 28.256 48.904 28.166 48.913 28.132 C 48.922 28.098 49.028 28.084 49.149 28.101 C 49.32 28.124 49.494 28.148 49.679 28.172 C 49.8 28.188 49.823 28.138 49.729 28.06 C 49.676 28.017 49.624 27.973 49.568 27.927 C 49.473 27.849 49.484 27.737 49.598 27.696 C 50.299 27.443 50.929 27.82 51.625 27.932 C 51.746 27.951 51.764 27.9 51.664 27.83 C 51 27.364 50.385 26.934 49.775 26.506 C 49.674 26.436 49.597 26.368 49.603 26.354 C 49.608 26.34 49.704 26.367 49.817 26.413 L 50.963 26.878 C 51.076 26.924 51.181 26.939 51.196 26.91 C 51.211 26.882 51.138 26.807 51.035 26.742 C 50.582 26.461 50.129 26.181 49.676 25.9 C 49.572 25.837 49.494 25.761 49.503 25.733 C 49.512 25.705 49.614 25.71 49.732 25.744 C 49.844 25.776 49.961 25.809 50.086 25.845 C 50.204 25.878 50.254 25.817 50.185 25.716 C 49.681 25 48.78 24.867 48.183 24.313 C 48.094 24.23 48.124 24.184 48.241 24.222 C 48.358 24.261 48.483 24.302 48.629 24.35 C 48.745 24.388 48.761 24.359 48.663 24.285 C 48.597 24.235 48.537 24.189 48.476 24.142 C 48.378 24.068 48.399 24 48.521 23.992 C 48.683 23.981 48.835 23.97 49.004 23.958 C 49.126 23.95 49.131 23.91 49.015 23.871 C 48.803 23.8 48.617 23.734 48.438 23.674 C 48.322 23.635 48.232 23.579 48.238 23.555 C 48.244 23.531 48.345 23.52 48.466 23.544 C 48.787 23.609 49.11 23.656 49.433 23.696 C 49.494 23.703 49.558 23.634 49.623 23.601 C 49.721 23.552 49.742 23.382 49.672 23.331 C 49.627 23.298 49.634 23.197 49.674 23.127 C 49.179 23.039 48.715 22.872 48.303 22.491 C 48.213 22.408 48.244 22.341 48.367 22.348 C 48.474 22.354 48.585 22.359 48.705 22.366 C 48.827 22.373 48.835 22.339 48.723 22.29 C 48.701 22.28 48.678 22.27 48.658 22.261 C 48.546 22.212 48.548 22.138 48.663 22.096 C 49.122 21.928 49.589 21.758 50.058 21.587 C 50.173 21.545 50.261 21.488 50.255 21.46 C 50.249 21.432 50.145 21.404 50.023 21.399 C 49.989 21.397 49.954 21.396 49.916 21.394 C 49.794 21.388 49.755 21.305 49.829 21.208 C 49.978 21.013 50.111 20.838 50.229 20.683 C 50.302 20.586 50.307 20.447 50.243 20.369 C 50.196 20.312 50.157 20.253 50.17 20.208 C 50.208 20.079 50.367 19.944 50.505 19.895 C 50.773 19.801 51.05 19.739 51.32 19.608 C 51.429 19.555 51.415 19.496 51.292 19.49 C 50.563 19.456 49.835 19.421 49.106 19.387 C 48.984 19.381 48.88 19.344 48.876 19.304 C 48.872 19.264 48.915 19.204 48.973 19.171 C 49.032 19.138 48.982 19.091 48.862 19.066 C 48.737 19.04 48.612 19.015 48.489 18.99 C 48.369 18.965 48.271 18.92 48.271 18.889 C 48.271 18.858 48.369 18.825 48.491 18.816 C 48.761 18.796 49.039 18.776 49.357 18.752 C 49.479 18.743 49.48 18.719 49.36 18.698 C 48.841 18.608 48.367 18.526 47.899 18.444 C 47.778 18.423 47.676 18.375 47.672 18.336 C 47.667 18.297 47.76 18.244 47.879 18.216 C 47.928 18.205 47.977 18.194 48.026 18.183 C 48.144 18.156 48.157 18.084 48.051 18.022 C 47.187 17.516 46.308 17.002 45.314 16.42 C 45.208 16.358 45.221 16.318 45.343 16.332 C 46.11 16.426 46.788 16.592 47.414 16.29 C 47.524 16.237 47.509 16.164 47.388 16.143 C 47.159 16.104 46.918 16.062 46.676 16.02 C 46.555 15.999 46.47 15.958 46.486 15.929 C 46.502 15.899 46.42 15.846 46.303 15.81 C 45.942 15.698 45.582 15.586 45.221 15.473 C 45.104 15.437 45.014 15.369 45.02 15.322 C 45.026 15.275 45.129 15.228 45.251 15.217 C 45.526 15.192 45.8 15.167 46.075 15.142 C 46.197 15.131 46.294 15.104 46.293 15.082 C 46.292 15.06 46.192 15.026 46.071 15.007 C 45.754 14.956 45.436 14.906 45.119 14.855 C 44.998 14.836 44.901 14.784 44.903 14.739 C 44.905 14.694 45.004 14.643 45.125 14.624 C 45.329 14.593 45.533 14.562 45.737 14.53 C 45.858 14.512 45.904 14.455 45.839 14.404 C 45.774 14.353 45.716 14.272 45.709 14.223 C 45.702 14.174 45.792 14.111 45.911 14.082 C 46.761 13.871 47.614 13.658 48.518 13.433 C 48.637 13.403 48.634 13.39 48.513 13.403 C 47.45 13.516 47.173 13.536 47.045 13.406 C 46.959 13.319 47.028 13.168 47.139 13.116 C 47.386 12.998 47.62 12.865 47.564 12.5 C 47.545 12.379 47.408 12.292 47.285 12.297 C 47.085 12.306 46.857 12.316 46.631 12.344 C 45.781 12.449 45.707 12.463 45.378 11.841 C 45.321 11.733 45.365 11.603 45.476 11.551 C 45.851 11.377 46.226 11.202 46.6 11.028 C 46.711 10.976 46.791 10.909 46.778 10.878 C 46.765 10.847 46.662 10.856 46.548 10.902 C 46.273 11.013 46.001 11.132 45.716 11.198 C 45.347 11.284 44.922 11.566 44.615 11.056 C 44.595 11.023 44.517 11.025 44.467 11.009 C 42.815 10.459 41.162 9.913 39.513 9.356 C 39.223 9.258 38.943 9.133 38.677 8.946 C 38.577 8.876 38.6 8.817 38.722 8.825 L 38.849 8.833 C 38.971 8.841 39.08 8.829 39.092 8.808 C 39.104 8.787 39.026 8.722 38.917 8.665 C 38.489 8.439 38.06 8.214 37.632 7.988 C 37.519 7.931 37.439 7.867 37.447 7.845 C 37.456 7.823 37.561 7.815 37.683 7.829 C 37.718 7.833 37.752 7.837 37.784 7.84 C 37.906 7.853 37.914 7.823 37.802 7.773 C 36.851 7.343 35.816 6.875 34.775 6.404 C 34.663 6.354 34.58 6.277 34.59 6.233 C 34.599 6.189 34.706 6.158 34.828 6.164 C 35.089 6.177 35.365 6.19 35.704 6.207 C 35.826 6.213 35.829 6.196 35.709 6.169 C 35.51 6.125 35.347 6.088 35.175 6.05 C 35.055 6.023 35.047 5.956 35.156 5.899 C 35.679 5.628 36.153 5.383 36.607 5.148 C 36.716 5.092 36.706 5.06 36.585 5.08 C 35.994 5.179 35.399 5.275 34.804 5.375 C 34.683 5.395 34.575 5.367 34.562 5.323 C 34.549 5.28 34.598 5.187 34.671 5.141 C 34.744 5.095 34.705 4.997 34.586 4.972 C 34.266 4.905 33.956 4.766 33.648 4.702 C 33.648 4.702 34.453 4.462 33.293 4.298 C 32.208 4.144 31.284 3.741 30.366 3.147 C 29.62 2.664 28.725 2.384 27.866 2.107 C 26.841 1.776 25.782 1.55 24.742 1.266 C 24.355 1.161 23.984 0.955 23.593 0.913 C 23.101 0.861 22.601 0.886 22.155 0.895 C 22.033 0.897 21.851 0.842 21.754 0.767 C 21.65 0.686 21.551 0.613 21.451 0.611 C 19.296 0.572 17.143 0.613 15.042 1.171 C 14.623 1.282 14.238 1.513 13.824 1.65 C 13.665 1.703 13.421 1.722 13.303 1.637 C 12.874 1.324 12.479 0.964 12.078 0.615 C 11.894 0.455 11.716 0.285 11.538 0.117 C 11.449 0.033 11.348 -0.017 11.312 0.004 C 11.276 0.025 11.247 0.132 11.248 0.243 C 11.249 0.311 11.252 0.378 11.269 0.442 C 11.371 0.835 11.492 1.223 11.607 1.612 C 11.845 2.42 11.84 2.405 11.035 2.667 C 10.688 2.78 10.315 2.913 10.047 3.145 C 9.686 3.452 9.321 3.435 8.915 3.418 C 8.569 3.404 8.22 3.453 7.872 3.457 C 6.749 3.469 5.68 3.244 4.676 2.724 C 4.619 2.694 4.551 2.685 4.482 2.68 C 4.371 2.672 4.287 2.757 4.294 2.869 C 4.298 2.94 4.309 3.01 4.343 3.062 C 4.783 3.75 5.244 4.407 6.057 4.73 C 6.499 4.906 6.917 5.16 7.317 5.422 C 8.016 5.881 8.174 6.425 7.944 7.23 C 7.596 8.453 7.198 9.67 6.975 10.916 C 6.867 11.517 7.104 12.181 7.196 12.815 C 7.238 13.104 7.365 13.389 7.361 13.675 C 7.323 16.219 6.911 18.707 6.205 21.15 C 6.085 21.563 6 21.986 5.924 22.342 C 5.899 22.462 5.846 22.612 5.826 22.685 C 5.814 22.73 5.807 22.775 5.807 22.82 C 5.807 22.87 5.814 22.917 5.825 22.961 C 5.846 23.037 5.896 23.138 5.927 23.19 C 5.957 23.242 6.001 23.316 6.023 23.359 C 6.036 23.384 6.05 23.408 6.068 23.433 C 6.191 23.609 6.331 23.766 6.472 23.924 C 6.554 24.015 6.564 24.173 6.489 24.269 C 6.429 24.346 6.366 24.422 6.302 24.498 C 6.253 24.557 6.219 24.621 6.197 24.688 C 6.16 24.803 6.158 24.917 6.149 24.937 C 6.142 24.951 6.138 24.964 6.138 24.976 C 6.138 25.108 6.202 25.301 6.303 25.361 C 6.775 25.64 7.262 25.892 7.78 26.168 C 7.888 26.225 7.895 26.33 7.795 26.402 C 7.75 26.434 7.706 26.466 7.66 26.499 C 7.56 26.57 7.553 26.696 7.653 26.766 C 8.17 27.127 8.724 27.107 9.306 27.015 C 9.58 26.972 9.867 27.016 10.147 27.013 C 10.271 27.012 10.443 27.039 10.509 26.971 C 10.904 26.569 11.391 26.527 11.918 26.465 C 12.647 26.379 13.285 25.484 13.184 24.744 C 13.051 23.774 13.333 23.041 14.013 22.303 C 14.583 21.685 14.872 20.813 15.318 20.073 C 15.435 19.878 15.651 19.699 15.862 19.615 C 16.195 19.483 16.484 19.608 16.578 19.987 C 16.806 20.912 17.181 21.836 17.203 22.767 C 17.236 24.161 17.063 25.566 16.892 26.955 C 16.7 28.514 15.92 29.833 15.049 31.114 C 14.069 32.555 13.508 34.113 13.814 35.918 C 13.98 36.897 13.999 37.902 14.043 38.897 C 14.051 39.086 13.918 39.374 13.762 39.463 C 10.973 41.059 8.545 43.132 6.107 45.195 C 5.7 45.54 5.23 45.812 4.833 46.167 C 3.797 47.091 3.666 48.286 3.905 49.562 C 3.959 49.849 4.038 50.155 4.192 50.396 C 4.916 51.539 4.948 52.747 4.634 54.012 C 4.146 55.979 3.697 57.956 3.187 59.917 C 3.039 60.487 3.107 60.989 3.396 61.454 C 4.059 62.519 4.492 63.667 4.715 64.895 C 4.902 65.927 5.464 66.763 6.06 67.593 C 6.522 68.238 6.928 68.921 7.374 69.576 C 7.746 70.123 8.115 70.274 8.692 69.966 C 9.164 69.713 9.662 69.374 9.951 68.941 C 10.761 67.726 10.976 66.348 10.7 64.914 C 10.646 64.635 10.53 64.32 10.338 64.124 C 9.618 63.389 8.879 62.67 8.1 61.999 C 7.591 61.56 7.416 60.893 7.703 60.286 C 7.871 59.931 7.982 59.529 8.024 59.138 C 8.071 58.695 8.046 58.242 8.039 57.72 C 8.037 57.598 8.12 57.554 8.219 57.626 C 8.946 58.155 9.482 58.755 9.607 59.571 C 9.833 61.051 10.75 61.704 12.081 62.123 C 14.4 62.852 16.722 63.435 19.182 63.349 C 20.32 63.309 20.332 63.374 20.248 62.221 C 20.126 60.543 19.294 59.178 18.285 57.905 C 18.175 57.765 17.942 57.647 17.767 57.648 C 17.214 57.653 16.659 57.696 16.112 57.774 C 15.94 57.799 15.779 57.973 15.634 58.102 C 15.363 58.344 15.102 58.598 14.818 58.869 C 14.729 58.954 14.615 58.95 14.561 58.863 C 14.52 58.797 14.492 58.751 14.472 58.701 C 14.088 57.733 14.089 57.715 13.092 57.716 C 12.345 57.717 11.767 57.343 11.425 56.777 C 10.645 55.487 9.955 54.138 9.271 52.793 C 9.177 52.608 9.258 52.265 9.374 52.061 C 9.581 51.697 9.843 51.345 10.149 51.06 C 10.328 50.893 10.635 50.795 10.889 50.787 C 13.14 50.702 15.396 50.706 17.642 50.559 C 19.683 50.426 21.715 50.148 23.748 49.911 C 24.005 49.881 24.32 49.765 24.478 49.58 C 25.011 48.956 25.611 48.972 26.273 49.281 C 27.578 49.888 28.861 50.546 30.186 51.105 C 32.088 51.91 34.032 52.614 35.936 53.415 C 39.597 54.955 43.526 55.4 47.354 56.254 C 48.162 56.434 48.997 56.495 49.823 56.585 C 50.198 56.626 50.465 56.788 50.559 57.145 C 50.69 57.64 50.868 58.147 50.869 58.649 C 50.874 60.475 51.41 62.13 52.302 63.699 C 52.612 64.242 52.915 64.798 53.129 65.382 C 53.606 66.679 53.384 67.887 52.506 68.959 C 50.791 71.054 48.782 72.85 46.745 74.616 C 46.118 75.16 45.489 75.705 44.907 76.295 C 44.706 76.499 44.556 76.834 44.535 77.121 C 44.419 78.763 44.25 80.392 43.75 81.972 C 43.391 83.107 43.878 84.098 44.337 85.083 C 44.729 85.924 45.134 86.758 45.588 87.707 C 45.641 87.816 45.75 87.833 45.833 87.743 C 46.345 87.186 46.824 86.701 47.249 86.171 C 48.117 85.09 48.681 83.841 49.041 82.514 C 49.15 82.112 49.064 81.632 48.972 81.207 C 48.858 80.673 48.6 80.168 48.498 79.633 C 48.463 79.448 48.669 79.073 48.839 79.018 C 49.528 78.796 49.777 78.214 50.171 77.707 C 50.927 76.735 51.798 75.853 52.647 74.956 C 53.555 73.995 54.637 73.28 55.817 72.669 C 57.076 72.017 58.284 71.26 59.475 70.487 C 59.771 70.296 59.969 69.953 60.209 69.623 C 60.281 69.523 60.436 69.484 60.545 69.54 C 61.486 70.007 62.195 70.82 62.68 71.931 C 63.641 74.128 63.252 76.203 62.245 78.221 C 61.331 80.053 60.326 81.84 59.353 83.643 C 58.757 84.747 57.814 85.508 56.811 86.214 C 56.53 86.412 56.238 86.64 56.051 86.922 C 54.759 88.881 53.733 90.982 52.776 93.119 C 52.522 93.686 52.566 93.855 53.196 93.937 C 53.977 94.041 54.778 94.061 55.566 94.026 C 56.917 93.966 58.196 93.635 59.259 92.731 C 60.064 92.047 60.527 91.206 60.434 90.116 C 60.428 90.06 60.433 90.004 60.42 89.95 C 60.206 88.954 60.457 88.281 61.542 87.954 C 62.363 87.706 62.807 86.948 63.169 86.215 C 64.217 84.099 65.194 81.948 66.272 79.848 C 67.114 78.207 68.047 76.613 68.97 75.017 C 69.58 73.963 70.224 72.927 70.892 71.91 C 71.539 70.921 71.37 70.036 70.766 69.09 C 69.962 67.833 69.249 66.519 68.493 65.232 C 67.822 64.091 68.128 62.931 68.839 62.072 C 70.647 59.887 71.482 57.225 72.727 54.765 C 72.824 54.574 72.884 54.361 72.986 54.161 C 73.041 54.052 73.088 54.069 73.072 54.19 C 73.052 54.327 73.036 54.462 73.042 54.597 C 73.116 56.316 73.221 58.035 73.273 59.755 C 73.296 60.566 73.132 61.39 73.22 62.19 C 73.352 63.394 73.627 64.583 73.844 65.777 C 73.894 66.048 73.948 66.318 74.046 66.583 C 74.089 66.698 74.122 66.687 74.11 66.566 C 74.094 66.416 74.08 66.264 74.065 66.113 C 74.052 65.992 74.067 65.99 74.095 66.108 C 74.565 68.045 74.994 69.99 76.058 71.717 C 76.121 71.821 76.144 71.81 76.105 71.695 C 76.087 71.645 76.07 71.593 76.051 71.541 C 76.011 71.425 76.042 71.408 76.119 71.503 C 76.723 72.248 77.307 72.971 77.96 73.776 C 78.037 73.872 78.12 73.851 78.145 73.731 C 78.16 73.659 78.171 73.597 78.184 73.535 C 78.207 73.415 78.318 73.359 78.429 73.409 C 78.716 73.536 78.991 73.648 79.241 73.805 C 79.521 73.982 79.788 74.202 80.061 74.437 C 80.154 74.517 80.229 74.513 80.229 74.428 C 80.229 74.343 80.268 74.281 80.314 74.296 C 80.351 74.309 80.364 74.319 80.389 74.34 C 81.743 75.439 82.917 76.687 83.854 78.185 C 84.468 79.171 85.272 80.082 86.153 80.839 C 86.483 81.123 86.758 81.455 87.124 81.72 C 87.224 81.792 87.259 81.757 87.197 81.651 C 87.108 81.5 87.019 81.347 86.929 81.196 C 86.867 81.091 86.833 80.993 86.853 80.975 C 86.872 80.959 86.953 81.021 87.033 81.113 C 87.27 81.387 87.512 81.669 87.787 81.984 C 87.867 82.078 87.913 82.054 87.89 81.934 C 87.887 81.926 87.886 81.919 87.885 81.912 C 87.862 81.792 87.923 81.753 88.023 81.824 C 88.608 82.244 89.17 82.648 89.772 83.08 C 89.871 83.15 89.959 83.109 89.966 82.987 C 89.982 82.757 89.994 82.572 90.005 82.403 C 90.013 82.282 90.058 82.176 90.103 82.17 C 90.148 82.164 90.247 82.234 90.324 82.33 C 90.342 82.352 90.36 82.375 90.378 82.397 C 90.454 82.494 90.529 82.566 90.545 82.561 C 90.562 82.556 90.535 82.46 90.488 82.347 C 90.407 82.153 90.327 81.96 90.246 81.766 C 90.199 81.653 90.179 81.551 90.202 81.539 C 90.225 81.526 90.303 81.596 90.376 81.694 C 90.502 81.864 90.628 82.033 90.755 82.202 C 90.828 82.3 90.902 82.373 90.92 82.364 C 90.939 82.354 90.927 82.253 90.896 82.135 C 90.787 81.756 90.684 81.378 90.572 80.966 Z"/></g></g><g></g><g></g><g></g><g></g><g></g><g></g><g></g><g></g><g></g><g></g><g></g><g></g><g></g><g></g><g></g></svg>