<svg version="1.1" width="644" height="644" viewBox="0 -41 483.464 483" xmlns="http://www.w3.org/2000/svg" xmlns:xlink="http://www.w3.org/1999/xlink" overflow="hidden"><path d=" M 377.734 72.2305 L 473.734 320.23 C 473.734 320.23 369.734 392.23 241.734 392.23 C 113.734 392.23 9.73438 320.23 9.73438 320.23 L 105.734 72.2305 L 110.398 56.2305 L 372.734 56.2305 Z" fill="#FFEAA7"/><g fill="#FF826E"><path d=" M 161.734 72.2305 L 105.734 72.2305 C 101.313 72.2305 97.7344 68.6563 97.7344 64.2305 L 97.7344 32.2305 C 97.7344 27.8086 101.313 24.2305 105.734 24.2305 L 377.734 24.2305 C 382.16 24.2305 385.734 27.8086 385.734 32.2305 L 385.734 64.2305 C 385.734 68.6563 382.16 72.2305 377.734 72.2305 Z"/><path d=" M 265.734 72.2305 L 265.734 64.2305 L 241.734 64.2305 L 241.734 72.2305 L 265.734 208.23 L 313.734 160.23 Z"/><path d=" M 217.734 64.2305 L 217.734 72.2305 L 169.734 160.23 L 217.734 208.23 L 241.734 72.2305 L 241.734 64.2305 Z"/><path d=" M 217.734 72.2305 L 195.633 87.0898 C 194.391 87.8398 192.969 88.2305 191.52 88.2305 L 169.734 88.2305 C 165.313 88.2305 161.734 84.6563 161.734 80.2305 L 161.734 16.2305 C 161.734 11.8086 165.313 8.23047 169.734 8.23047 L 191.52 8.23047 C 192.977 8.23047 194.391 8.625 195.641 9.375 L 217.734 24.2305 L 265.734 24.2305 L 287.84 9.375 C 289.078 8.625 290.504 8.23047 291.953 8.23047 L 313.734 8.23047 C 318.16 8.23047 321.734 11.8086 321.734 16.2305 L 321.734 80.2305 C 321.734 84.6563 318.16 88.2305 313.734 88.2305 L 291.953 88.2305 C 290.496 88.2305 289.078 87.8398 287.832 87.0898 L 265.734 72.2305 Z"/></g><path d=" M 257.734 72.2305 L 225.734 72.2305 C 221.313 72.2305 217.734 68.6563 217.734 64.2305 L 217.734 32.2305 C 217.734 27.8086 221.313 24.2305 225.734 24.2305 L 257.734 24.2305 C 262.16 24.2305 265.734 27.8086 265.734 32.2305 L 265.734 64.2305 C 265.734 68.6563 262.16 72.2305 257.734 72.2305 Z" fill="#FC6E51"/><path d=" M 473.734 320.23 L 461.559 288.777 C 430.543 309.398 343.77 360.23 241.734 360.23 C 139.703 360.23 52.9297 309.398 21.9102 288.777 L 21.9023 288.777 L 9.73438 320.23 C 9.73438 320.23 113.734 392.23 241.734 392.23 C 369.734 392.23 473.734 320.23 473.734 320.23 Z" fill="#FF826E"/><path d=" M 145.23 24.2305 L 161.734 24.2305 L 161.734 72.2305 L 145.23 72.2305 Z" fill="#FC6E51"/><path d=" M 321.734 24.2305 L 338.23 24.2305 L 338.23 72.2305 L 321.734 72.2305 Z" fill="#FC6E51"/><path d=" M 387.945 76.4492 C 391.457 73.5117 393.734 69.1523 393.734 64.2305 L 393.734 32.2305 C 393.734 23.4063 386.559 16.2305 377.734 16.2305 L 329.734 16.2305 C 329.734 7.40625 322.559 0.230469 313.734 0.230469 L 291.953 0.230469 C 289.055 0.230469 286.207 1.02344 283.375 2.72656 L 262.223 16.9531 C 260.793 16.5273 259.305 16.2305 257.734 16.2305 L 225.734 16.2305 C 224.168 16.2305 222.68 16.5273 221.246 16.9531 L 199.754 2.51172 C 197.266 1.02344 194.414 0.230469 191.52 0.230469 L 169.734 0.230469 C 160.91 0.230469 153.734 7.40625 153.734 16.2305 L 105.734 16.2305 C 96.9102 16.2305 89.7344 23.4063 89.7344 32.2305 L 89.7344 64.2305 C 89.7344 69.1523 92.0156 73.5117 95.5273 76.4492 L 5.68434e-14 323.223 L 5.17578 326.816 C 9.51172 329.809 112.719 400.23 241.734 400.23 C 370.754 400.23 473.961 329.809 478.289 326.809 L 483.465 323.215 Z M 407 310.727 L 330.168 80.2305 L 372.258 80.2305 L 451.762 285.609 C 440.895 292.574 425.641 301.566 407 310.727 Z M 377.734 32.2305 L 377.734 64.2305 L 329.734 64.2305 L 329.734 32.2305 Z M 318.375 95.4648 L 392.406 317.566 C 375.246 325.258 355.84 332.641 334.711 338.633 L 298.543 186.727 L 323.617 161.656 L 287.594 95.6172 C 289.016 96.0156 290.473 96.2305 291.953 96.2305 L 313.734 96.2305 C 315.359 96.2305 316.902 95.9219 318.375 95.4648 Z M 222.945 224.754 L 233.734 163.602 L 233.734 351.992 C 209.398 351.344 186.055 347.887 164.23 342.672 L 198.199 200.016 Z M 303.848 158.809 L 270.945 191.711 L 251.273 80.2305 L 257.734 80.2305 C 258.793 80.2305 259.816 80.1211 260.816 79.9219 Z M 249.734 163.602 L 260.527 224.762 L 285.273 200.016 L 319.238 342.672 C 297.414 347.887 274.07 351.344 249.734 351.992 Z M 291.953 16.2305 L 313.734 16.2305 L 313.734 80.2305 L 292.305 80.4492 L 273.336 67.6953 C 273.586 66.5742 273.734 65.4258 273.734 64.2305 L 273.734 32.2305 C 273.734 31.0391 273.586 29.8789 273.336 28.7617 Z M 225.734 32.2305 L 257.734 32.2305 L 257.742 64.2305 L 225.734 64.2305 Z M 232.199 80.2305 L 212.527 191.711 L 179.625 158.809 L 222.656 79.9219 C 223.656 80.1211 224.68 80.2305 225.734 80.2305 Z M 169.734 16.2305 L 191.168 16.0156 L 210.137 28.7695 C 209.887 29.8867 209.734 31.0391 209.734 32.2305 L 209.734 64.2305 C 209.734 65.4258 209.887 66.5859 210.137 67.7031 L 191.52 80.2305 L 169.734 80.2305 Z M 191.52 96.2305 C 192.984 96.2305 194.434 96.0234 195.871 95.6094 L 159.848 161.656 L 184.922 186.727 L 148.754 338.633 C 127.633 332.641 108.215 325.258 91.0547 317.566 L 165.09 95.4648 C 166.566 95.9219 168.113 96.2305 169.734 96.2305 Z M 153.305 80.2305 L 76.4727 310.727 C 57.832 301.574 42.5742 292.586 31.7188 285.617 L 111.215 80.2305 Z M 105.734 32.2305 L 153.734 32.2305 L 153.734 64.2305 L 105.734 64.2305 Z M 241.734 384.23 C 133.785 384.23 42.0234 331.168 19.543 317.055 L 25.832 300.816 C 63.6484 324.664 145.84 368.23 241.734 368.23 C 337.633 368.23 419.824 324.664 457.641 300.816 L 463.93 317.063 C 441.48 331.176 349.848 384.23 241.734 384.23 Z"/></svg>