<svg version="1.1" width="682.667" height="682.667" viewBox="0 0 512 512" xmlns="http://www.w3.org/2000/svg" xmlns:xlink="http://www.w3.org/1999/xlink" overflow="hidden"><path d=" M 36.0625 501.863 L 10.1367 475.938 C -3.37891 462.422 -3.37891 440.422 10.1367 426.906 L 37.7578 399.289 C 43.6758 393.367 53.2734 393.367 59.1914 399.289 L 112.711 452.809 C 118.633 458.727 118.633 468.324 112.711 474.246 L 85.0938 501.863 C 71.5781 515.379 49.582 515.379 36.0625 501.863 Z" fill="#802D0D"/><path d=" M 112.711 452.809 L 85.9531 426.051 L 23.1016 488.902 L 36.0625 501.863 C 49.582 515.379 71.5781 515.379 85.0938 501.863 L 112.711 474.246 C 118.633 468.324 118.633 458.727 112.711 452.809 Z" fill="#571908"/><path d=" M 101.992 484.965 L 27.0391 410.008 L 90.0469 346.996 L 165.004 421.953 Z" fill="#B04617"/><path d=" M 101.992 484.965 L 64.5156 447.488 L 127.523 384.48 L 165 421.957 Z" fill="#8C3200"/><path d=" M 185.406 402.41 L 109.586 326.59 C 103.805 320.809 103.648 311.48 109.242 305.512 L 390.84 4.79688 C 393.805 1.62891 397.984 -0.113281 402.32 0.00390625 L 494.703 2.55859 C 502.746 2.78125 509.215 9.25 509.438 17.2891 L 511.988 109.672 C 512.109 114.012 510.363 118.191 507.199 121.156 L 206.484 402.758 C 200.516 408.348 191.191 408.195 185.406 402.41 Z" fill="#FFF780"/><path d=" M 509.438 17.2891 C 509.328 13.2695 507.656 9.64453 505.008 6.99609 L 147.5 364.504 L 185.406 402.41 C 191.191 408.195 200.516 408.348 206.488 402.758 L 507.199 121.156 C 510.367 118.191 512.109 114.012 511.988 109.676 Z" fill="#FFC02E"/><path d=" M 147.5 364.504 C 141.578 358.582 141.578 348.988 147.5 343.066 L 403.297 87.2695 C 409.215 81.3516 418.813 81.3516 424.734 87.2695 C 430.652 93.1914 430.652 102.785 424.734 108.707 L 168.938 364.504 C 163.016 370.422 153.418 370.422 147.5 364.504 Z" fill="#FFC02E"/><path d=" M 168.938 364.504 L 424.734 108.707 C 430.652 102.785 430.652 93.1914 424.734 87.2695 L 147.5 364.504 C 153.418 370.422 163.016 370.422 168.938 364.504 Z" fill="#FFA73B"/><path d=" M 145.711 441.246 L 70.7539 366.289 L 131.457 305.59 L 206.414 380.543 Z" fill="#802D0D"/><path d=" M 145.711 441.25 L 108.234 403.773 L 168.934 343.07 L 206.41 380.547 Z" fill="#571908"/><path d=" M 206.75 423.754 L 88.2422 305.246 C 82.3242 299.328 82.3242 289.73 88.2422 283.809 C 94.1641 277.891 103.758 277.891 109.68 283.809 L 228.188 402.316 C 234.105 408.234 234.105 417.832 228.188 423.754 C 222.266 429.672 212.668 429.672 206.75 423.754 Z" fill="#FFA73B"/><path d=" M 228.188 402.316 L 168.938 343.066 L 147.5 364.504 L 206.75 423.754 C 212.668 429.672 222.266 429.672 228.188 423.754 C 234.105 417.832 234.105 408.234 228.188 402.316 Z" fill="#FF7B00"/></svg>