<svg version="1.1" viewBox="0 0 511.999 511.999" xmlns="http://www.w3.org/2000/svg" xmlns:xlink="http://www.w3.org/1999/xlink" id="Layer_1" overflow="hidden"><path d=" M 398.644 65.619 L 452.038 119.013 L 135.2 435.851 L 81.806 382.457 C -5.686 294.965 -5.686 153.111 81.806 65.619 C 169.298 -21.873 311.152 -21.873 398.644 65.619 Z M 345.251 119.013 L 345.251 119.013 C 287.34 61.102 193.111 61.102 135.2 119.013 C 77.288 176.925 77.288 271.153 135.199 329.065 L 135.199 329.065 L 345.251 119.013 Z" fill="#B4B4B4"/><path d=" M 135.2 329.064 C 77.289 271.153 77.289 176.924 135.2 119.012 L 81.806 65.619 C -5.686 153.111 -5.686 294.965 81.806 382.457 L 135.2 435.851 L 293.619 277.433 L 240.225 224.039 L 135.2 329.064 Z" fill="#E0E0E0"/><path d=" M 122.87 84.516 L 93.282 54.928 C 89.372 58.332 85.544 61.883 81.822 65.604 L 81.792 65.634 C 78.071 69.356 74.52 73.184 71.116 77.094 L 100.705 106.682 L 122.87 84.516 Z" fill="#666666"/><g><path d=" M 78.41 140.047 L 39.698 124.012 C 38.073 127.269 36.533 130.556 35.076 133.873 L 31.613 142.233 C 30.22 145.789 28.922 149.373 27.718 152.981 L 66.412 169.009 L 78.41 140.047 Z" fill="#B4B4B4"/><path d=" M 58.585 208.364 L 16.737 208.364 C 16.374 213.571 16.187 218.788 16.187 224.006 L 16.187 224.071 C 16.188 229.288 16.374 234.506 16.737 239.713 L 58.585 239.713 C 58.585 239.712 58.585 208.364 58.585 208.364 Z" fill="#B4B4B4"/><path d=" M 66.413 279.068 L 27.719 295.095 C 28.924 298.706 30.223 302.293 31.616 305.851 L 35.074 314.199 C 36.531 317.517 38.072 320.806 39.698 324.064 L 78.409 308.028 L 66.413 279.068 Z" fill="#B4B4B4"/><path d=" M 122.87 363.56 L 100.704 341.394 L 71.115 370.982 C 74.518 374.891 78.067 378.717 81.786 382.437 L 92.89 393.54 L 122.87 363.56 Z" fill="#B4B4B4"/></g><g><path d=" M 379.748 106.683 L 409.727 76.704 L 398.644 65.62 C 394.918 61.894 391.085 58.338 387.169 54.929 L 357.581 84.517 L 379.748 106.683 Z" fill="#666666"/><path d=" M 324.218 62.222 L 340.252 23.511 C 336.991 21.884 333.698 20.342 330.377 18.883 L 322.037 15.429 C 318.479 14.036 314.894 12.736 311.282 11.532 L 295.255 50.227 L 324.218 62.222 Z" fill="#666666"/><path d=" M 255.899 42.399 L 255.899 0.551 C 250.682 0.187 245.453 0 240.225 0 C 234.997 0 229.768 0.187 224.551 0.551 L 224.551 42.399 L 255.899 42.399 Z" fill="#666666"/><path d=" M 185.196 50.226 L 169.169 11.532 C 165.552 12.738 161.962 14.039 158.399 15.435 L 150.078 18.881 C 146.756 20.34 143.462 21.883 140.2 23.511 L 156.235 62.223 L 185.196 50.226 Z" fill="#666666"/></g><path d=" M 163.459 464.109 L 185.625 486.275 L 383.325 288.575 C 406.578 307.567 434.592 319.171 464.463 322.184 L 464.463 511.999 L 495.811 511.999 L 495.811 131.754 L 163.459 464.109 Z M 405.639 266.263 L 464.465 207.437 L 464.465 290.63 C 442.966 287.891 422.778 279.528 405.639 266.263 Z" fill="#3B67AA"/><g></g><g></g><g></g><g></g><g></g><g></g><g></g><g></g><g></g><g></g><g></g><g></g><g></g><g></g><g></g></svg>