<svg version="1.1" viewBox="0 0 512 512" xmlns="http://www.w3.org/2000/svg" xmlns:xlink="http://www.w3.org/1999/xlink" id="Layer_1" overflow="hidden"><path d=" M 405.163 186.2 C 391.253 186.2 381.555 195.079 381.483 195.143 L 207.044 365.706 L 207.044 268.814 C 207.044 258.675 198.825 250.455 188.686 250.455 L 18.359 250.455 C 8.219 250.455 0 258.675 0 268.814 C 0 268.951 0 369.787 0 369.787 C 0 449.34 63.178 477.898 120.351 477.898 C 210.104 477.898 269.172 401.428 269.172 401.428 L 422.25 231.076 L 459.985 231.076 L 459.985 186.199 L 405.163 186.2 L 405.163 186.2 Z" fill="#7F5030"/><path d=" M 52.016 369.787 C 52.016 369.787 52.016 268.951 52.016 268.814 C 52.016 258.675 60.235 250.455 70.375 250.455 L 18.359 250.455 C 8.219 250.455 0 258.675 0 268.814 C 0 268.951 0 369.787 0 369.787 C 0 449.34 63.178 477.898 120.351 477.898 C 129.193 477.898 137.732 477.146 145.952 475.808 C 97.341 467.962 52.016 437.169 52.016 369.787 Z" fill="#704528"/><rect x="0" y="298.391" width="207.04" height="37.737" fill="#FFC33E"/><rect x="0" y="298.391" width="52.02" height="37.737" fill="#F9A832"/><path d=" M 493.643 231.077 C 503.781 231.077 512 222.667 512 212.291 L 512 204.988 C 512 194.61 503.78 186.202 493.643 186.202 L 458.954 186.202 L 458.954 231.077 L 493.643 231.077 L 493.643 231.077 Z" fill="#603A21"/><path d=" M 196.334 113.656 C 191.631 113.656 62.295 113.656 57.628 113.656 C 50.107 113.656 43.988 107.538 43.988 100.018 C 43.988 92.498 50.107 86.38 57.628 86.38 C 68.031 86.38 142.153 86.38 152.731 86.38 C 191.456 86.38 204.223 34.103 179.251 34.103 C 172.138 34.103 166.371 39.87 166.371 46.982 C 166.371 54.502 160.252 60.62 152.731 60.62 C 142.328 60.62 68.206 60.62 57.628 60.62 C 35.903 60.62 18.229 78.293 18.229 100.017 C 18.229 121.741 35.903 139.414 57.628 139.414 C 61.36 139.414 192.589 139.414 196.334 139.414 C 203.855 139.414 209.974 145.532 209.974 153.052 C 209.974 160.572 203.855 166.69 196.334 166.69 C 188.266 166.69 131.499 166.69 123.921 166.69 C 102.197 166.69 84.523 184.363 84.523 206.085 C 84.523 213.198 90.29 218.965 97.402 218.965 C 104.515 218.965 110.281 213.198 110.281 206.085 C 110.281 198.566 116.4 192.449 123.92 192.449 C 131.497 192.449 188.263 192.449 196.333 192.449 C 218.058 192.449 235.732 174.776 235.732 153.052 C 235.732 131.328 218.059 113.656 196.334 113.656 Z" fill="#C4BEBB"/><g></g><g></g><g></g><g></g><g></g><g></g><g></g><g></g><g></g><g></g><g></g><g></g><g></g><g></g><g></g></svg>