<svg version="1.1" viewBox="0 0 57 57" xmlns="http://www.w3.org/2000/svg" xmlns:xlink="http://www.w3.org/1999/xlink" id="Capa_1" overflow="hidden"><path d=" M 16.5 15.82 L 16.5 12.601 C 16.5 6.77 21.675 2 28 2 L 28 2 C 34.325 2 39.5 6.77 39.5 12.601 L 39.5 25" stroke="#424A60" stroke-width="4" stroke-linecap="round" stroke-miterlimit="10" fill="none"/><rect x="7.5" y="25" width="42" height="32" fill="#EBBA16"/><path d=" M 28.5 45 L 28.5 45 C 26.85 45 25.5 43.65 25.5 42 L 25.5 36 C 25.5 34.35 26.85 33 28.5 33 L 28.5 33 C 30.15 33 31.5 34.35 31.5 36 L 31.5 42 C 31.5 43.65 30.15 45 28.5 45 Z" fill="#424A60"/><rect x="7.5" y="51" width="42" height="6" fill="#38454F"/><g></g><g></g><g></g><g></g><g></g><g></g><g></g><g></g><g></g><g></g><g></g><g></g><g></g><g></g><g></g></svg>