<svg version="1.1" viewBox="0 0 512.003 512.003" xmlns="http://www.w3.org/2000/svg" xmlns:xlink="http://www.w3.org/1999/xlink" id="Capa_1" overflow="hidden"><path d=" M 109.811 468.657 C 145.93 503.694 220.745 521.027 273.21 470.134 C 325.675 419.241 361.242 324.367 391.353 318.286 C 421.464 312.205 454.213 285.81 459.468 271.301 C 464.723 256.792 460.277 243.068 471.596 237.97 C 482.915 232.872 495.001 219.317 483.367 199.757 C 471.731 180.196 498.806 179.272 501.708 168.493 C 504.61 157.714 485.206 135.755 489.788 126.083 C 494.369 116.41 503.139 97.207 488.171 82.687 C 473.203 68.168 453.811 104.254 438.853 94.451 C 423.896 84.648 418.227 112.087 411.36 113.269 C 404.493 114.451 381.856 110.529 385.899 128.568 C 389.942 146.607 374.176 135.234 366.092 142.293 C 358.008 149.352 332.944 135.235 332.54 153.665 C 332.136 172.095 315.856 158.657 310.252 170.474 C 304.648 182.291 290.499 211.701 271.904 217.191 C 253.308 222.681 232.693 232.484 227.437 254.835 C 222.182 277.186 196.041 274.572 175.02 302.283 C 153.999 329.994 158.311 350.907 157.772 367.115 C 157.233 383.323 134.447 397.041 120.238 395.672 C 106.029 394.303 120.043 416.261 108.185 424.627 C 96.325 432.989 89.938 449.381 109.811 468.657 Z" fill="#A5DC69"/><path d=" M 108.183 424.625 C 120.041 416.259 106.027 394.301 120.236 395.67 C 134.445 397.039 157.231 383.321 157.77 367.113 C 158.309 350.905 153.997 329.992 175.018 302.281 C 196.039 274.57 222.18 277.185 227.435 254.833 C 232.69 232.481 253.306 222.679 271.901 217.189 C 290.497 211.699 304.644 182.29 310.249 170.472 C 315.854 158.655 332.132 172.094 332.537 153.663 C 332.941 135.232 358.004 149.349 366.089 142.291 C 374.174 135.233 389.939 146.605 385.896 128.566 C 381.854 110.528 404.491 114.449 411.357 113.267 C 418.103 112.106 423.701 85.63 438.077 93.993 L 438.347 93.685 C 442.856 81.601 456.379 67.366 444.58 58.761 C 427.999 46.668 409.994 57.562 400.948 63.204 C 391.902 68.846 367.269 53.6 356.886 57.813 C 346.502 62.026 349.299 87.637 328.133 79.373 C 306.967 71.109 295.069 84.35 291.525 95.705 C 287.981 107.06 273.641 104.761 259.85 111.702 C 246.058 118.643 228.68 153.717 222.212 182.275 C 205.39 256.551 130.251 257.973 86.552 314.352 C 44.672 368.385 68.302 433.123 105.565 464.107 C 91.009 446.821 97.271 432.322 108.183 424.625 Z" fill="#D7FA91"/><path d=" M 86.554 314.352 C 130.253 257.973 205.392 256.551 222.214 182.275 C 228.682 153.716 246.06 118.643 259.852 111.702 C 273.644 104.761 287.983 107.06 291.527 95.705 C 295.071 84.35 306.969 71.11 328.135 79.373 C 349.301 87.636 346.505 62.025 356.888 57.813 C 367.271 53.6 391.904 68.846 400.95 63.204 C 405.599 60.304 412.618 56.024 420.59 54.183 L 420.59 54.183 C 420.59 54.183 419.033 32.219 407.594 21.123 C 392.956 6.924 372.988 9.983 363.465 19.221 C 349.19 33.068 344.624 10.008 328.048 10.008 C 307.286 10.008 307.286 53.637 287.3 34.25 C 272.402 19.799 248.382 30.679 240.756 69.706 C 235.603 96.076 208.738 121.172 177.384 123.528 C 125.839 127.401 154.795 168.398 124.221 198.055 C 100.057 221.495 74.77 225.072 37.167 265.104 C -11.945 317.387 13.891 375.608 49.213 409.873 L 103.91 462.931 L 104.019 462.79 C 67.66 431.321 45.257 367.634 86.554 314.352 Z" fill="#A5DC69"/><path d=" M 115.018 473.358 L 115.018 473.358 C 186.295 422.508 253.503 366.499 316.067 305.81 L 422.166 202.89 L 268.628 392.757 C 237.185 431.64 200.252 466.034 158.919 494.923 L 158.919 494.923 L 115.018 473.358 Z" fill="#D7FA91"/><path d=" M 504.491 143.284 C 502.495 139.187 499.206 132.436 499.083 129.816 C 503.809 119.816 515.088 94.868 495.132 75.51 C 481.363 62.153 465.821 72.975 456.497 79.499 C 457.516 77.091 458.358 74.631 458.842 72.095 C 460.495 63.428 457.523 55.823 450.474 50.682 C 443.29 45.442 435.969 43.437 429.043 43.294 C 427.185 34.585 423.158 22.289 414.558 13.946 C 396.022 -4.033 369.992 -1.041 356.502 12.045 C 355.744 12.78 355.187 13.205 354.826 13.443 C 353.775 12.803 352.029 11.315 350.805 10.272 C 346.011 6.185 338.764 0.01 328.048 0.01 C 312.99 0.01 305.367 13.055 300.321 21.687 C 299.052 23.858 297.28 26.89 295.957 28.554 C 295.517 28.219 294.952 27.743 294.263 27.075 C 285.865 18.929 274.942 16.171 264.282 19.512 C 248.098 24.586 235.948 42.182 230.944 67.79 C 226.385 91.119 202.023 111.65 176.636 113.558 C 138.666 116.411 134.787 138.973 131.671 157.101 C 129.571 169.319 127.587 180.859 117.258 190.879 C 107.992 199.867 98.466 205.738 87.436 212.535 C 71.178 222.554 52.752 233.908 29.877 258.259 C -23.374 314.951 3.262 379.231 42.25 417.052 C 42.25 417.052 101.325 474.359 102.847 475.835 C 123.435 495.806 153.995 509.172 184.593 511.588 C 188.013 511.859 191.411 511.992 194.791 511.992 C 226.902 511.991 256.909 499.877 280.172 477.312 C 291.375 466.444 302.717 452.831 314.845 435.692 C 318.035 431.184 316.966 424.943 312.458 421.753 C 307.95 418.563 301.709 419.632 298.519 424.14 C 287.112 440.261 276.556 452.957 266.247 462.957 C 240.062 488.358 209.003 494.949 180.925 491.288 C 216.493 464.447 248.551 433.489 276.405 399.045 L 381.244 269.399 C 391.752 265.485 404.126 267.622 412.586 275.828 C 416.55 279.673 422.882 279.578 426.727 275.613 C 430.573 271.649 430.476 265.318 426.512 261.472 C 418.658 253.853 408.782 249.369 398.545 248.005 L 429.944 209.176 C 433.27 205.063 432.818 199.072 428.914 195.505 C 425.009 191.938 419.002 192.027 415.206 195.71 L 353.137 255.919 C 352.273 241.47 346.08 228.01 335.458 217.705 C 331.493 213.859 325.163 213.955 321.317 217.92 C 317.471 221.885 317.568 228.215 321.532 232.061 C 329.091 239.393 333.253 249.108 333.253 259.416 C 333.253 268.663 329.895 277.426 323.751 284.425 L 309.106 298.631 C 302.279 305.253 295.378 311.816 288.428 318.337 C 288.543 316.678 288.623 315.012 288.623 313.333 C 288.623 293.895 280.827 275.629 266.673 261.897 C 262.709 258.052 256.378 258.147 252.532 262.112 C 248.686 266.076 248.783 272.407 252.747 276.253 C 262.985 286.185 268.624 299.353 268.624 313.333 C 268.624 327.313 262.985 340.48 252.747 350.412 C 252.202 350.94 251.738 351.519 251.34 352.128 C 208.269 390.233 163.14 426.323 116.499 459.965 C 116.459 459.935 116.425 459.902 116.385 459.873 C 115.117 458.949 113.872 457.983 112.646 456.986 C 108.67 452.071 106.75 447.419 107.069 443.34 C 107.478 438.098 111.556 434.482 113.951 432.793 C 124.103 425.631 123.633 413.85 123.351 406.812 C 123.338 406.484 123.324 406.122 123.31 405.746 C 133.609 405.432 145.431 400.501 154.484 392.55 C 162.754 385.286 167.47 376.369 167.767 367.443 C 167.861 364.641 167.823 361.856 167.783 358.908 C 167.593 344.843 167.377 328.902 182.988 308.322 C 191.717 296.814 201.294 291.372 210.553 286.11 C 221.79 279.723 233.409 273.118 237.171 257.12 C 240.489 243.005 252.426 233.364 274.735 226.778 C 286.891 223.189 296.791 212.953 304.918 200.827 C 305.073 200.6 305.22 200.368 305.371 200.138 C 310.701 192.073 315.264 183.223 319.19 174.958 C 319.942 174.805 321.311 174.714 322.274 174.651 C 327.699 174.293 342.11 173.341 342.537 153.882 C 342.538 153.826 342.539 153.773 342.542 153.721 C 344.508 153.522 348.065 153.828 350.355 154.025 C 357.788 154.662 366.207 155.387 372.575 149.904 C 373.365 149.587 375.786 149.596 377.248 149.604 C 381.782 149.622 388.594 149.652 393.205 143.916 C 397.679 138.353 396.747 131.243 395.656 126.379 C 395.485 125.615 395.431 125.082 395.421 124.74 C 397.635 123.738 403.695 123.621 406.089 123.574 C 408.713 123.523 410.98 123.48 413.057 123.122 C 419.896 121.946 423.554 116.051 427.092 110.351 C 428.557 107.99 431.181 103.762 432.842 102.497 C 432.983 102.571 433.16 102.673 433.374 102.813 C 446.127 111.172 458.71 102.364 467.896 95.933 C 471.746 93.239 475.725 90.453 478.696 89.486 C 480.291 88.967 480.447 89.123 481.21 89.863 C 489.552 97.955 487.06 108.483 480.752 121.8 C 476.331 131.136 481.508 141.762 486.515 152.04 C 488.511 156.135 491.768 162.821 492 165.632 C 490.978 166.623 488.405 168.182 486.637 169.255 C 482.014 172.058 476.775 175.235 473.439 180.647 C 470.405 185.57 468.172 193.769 474.775 204.867 C 477.873 210.074 478.81 214.718 477.564 218.671 C 476.034 223.521 471.359 227.109 467.493 228.85 C 455.148 234.41 453.765 245.802 452.654 254.954 C 452.133 259.248 451.593 263.687 450.07 267.892 C 446.377 278.087 417.546 302.792 389.378 308.481 C 374.109 311.564 360.347 328.463 344.379 352.886 C 341.357 357.509 342.654 363.706 347.277 366.728 C 351.898 369.749 358.096 368.452 361.119 363.83 C 366.566 355.498 383.141 330.143 393.337 328.085 C 425.993 321.49 462.167 293.221 468.875 274.703 C 471.173 268.357 471.913 262.262 472.508 257.365 C 473.502 249.177 474.083 247.816 475.706 247.085 C 485.977 242.459 493.607 234.294 496.637 224.687 C 498.724 218.072 499.607 207.49 491.964 194.643 C 490.687 192.497 490.509 191.39 490.485 191.101 C 491.191 189.884 494.961 187.598 497.008 186.356 C 502.465 183.047 509.257 178.928 511.366 171.091 C 513.739 162.266 509.038 152.616 504.491 143.284 Z M 44.456 271.953 C 65.508 249.541 82.732 238.927 97.929 229.562 C 109.459 222.457 120.349 215.745 131.185 205.235 C 146.195 190.675 149.072 173.939 151.382 160.49 C 154.369 143.115 155.733 135.185 178.134 133.502 C 212.477 130.921 244.295 103.743 250.571 71.627 C 254.693 50.535 263.447 40.735 270.263 38.597 C 273.851 37.473 277.239 38.426 280.336 41.431 C 282.604 43.631 289.504 50.327 298.718 49.066 C 308.246 47.763 313.209 39.272 317.588 31.78 C 321.485 25.111 324.731 20.01 328.048 20.01 C 331.236 20.01 333.844 22.094 337.834 25.494 C 343.629 30.431 355.683 40.702 370.428 26.4 C 376.348 20.657 390.138 18.123 400.632 28.302 C 405.362 32.891 408.057 40.991 409.44 47.363 C 403.795 49.706 399.141 52.55 396.066 54.465 C 393.446 54.827 385.979 52.577 381.457 51.216 C 371.603 48.251 361.414 45.186 353.127 48.548 C 345.627 51.591 342.416 58.604 339.836 64.239 C 338.849 66.394 337.012 70.406 335.977 70.974 C 335.71 71.059 334.368 71.075 331.77 70.06 C 317.707 64.571 307.224 67.039 300.903 70.076 C 292.04 74.336 285.142 82.592 281.979 92.727 C 281.467 94.365 279.177 95.193 272.086 97.008 C 267.296 98.234 261.335 99.76 255.353 102.77 C 235.804 112.609 218.201 154.711 212.458 180.066 C 203.411 220.011 175.972 236.557 144.199 255.714 C 121.263 269.545 97.545 283.845 78.649 308.225 C 59.161 333.369 51.146 362.809 55.472 393.364 C 55.975 396.917 56.661 400.461 57.501 403.984 L 56.174 402.697 C 44.422 391.295 -11.388 331.403 44.456 271.953 Z M 310.696 324.833 L 260.853 386.47 C 230.591 423.892 195.166 457.037 155.546 485.051 C 146.983 481.929 139.039 477.952 132.014 473.441 C 194.748 427.933 254.744 378.04 310.696 324.833 Z M 410.095 99.807 C 409.392 100.939 408.447 102.463 407.698 103.535 C 407.034 103.556 406.317 103.569 405.699 103.581 C 397.889 103.732 386.086 103.96 379.419 112.455 C 376.912 115.649 374.335 121.175 375.902 129.605 C 371.391 129.628 365.295 130.031 360.021 134.331 C 358.461 134.651 354.495 134.31 352.063 134.101 C 344.627 133.461 335.377 132.668 328.667 138.693 C 324.738 142.221 322.677 147.185 322.539 153.446 C 322.529 153.894 322.507 154.271 322.477 154.586 C 321.959 154.631 321.404 154.668 320.953 154.698 C 318.152 154.883 313.581 155.188 309.271 157.511 C 306.285 150.478 301.524 144.252 295.266 139.358 C 290.914 135.956 284.631 136.726 281.228 141.075 C 277.827 145.426 278.595 151.711 282.946 155.113 C 288.518 159.47 291.991 165.653 292.726 172.524 C 293.285 177.755 292.204 182.931 289.662 187.503 C 288.92 188.667 288.182 189.785 287.449 190.851 C 287.252 191.105 287.056 191.359 286.85 191.608 C 286.411 192.135 286.037 192.694 285.724 193.276 C 279.862 201.259 274.295 206.059 269.07 207.602 C 258.225 210.804 225.223 220.546 217.7 252.548 C 216.011 259.731 210.979 262.867 200.667 268.728 C 190.685 274.402 178.262 281.463 167.051 296.241 C 147.282 322.301 147.571 343.619 147.781 359.184 C 147.818 361.892 147.852 364.449 147.775 366.783 C 147.665 370.084 145.298 374.002 141.281 377.53 C 134.534 383.457 125.882 386.17 121.195 385.72 C 114.562 385.084 110.472 387.494 108.21 389.632 C 102.848 394.702 103.134 401.862 103.363 407.617 C 103.49 410.783 103.681 415.567 102.418 416.458 C 96.823 420.406 92.62 425.336 90.031 430.859 C 82.473 418.528 77.263 404.617 75.274 390.567 C 71.723 365.49 78.357 341.255 94.458 320.484 C 111.068 299.053 133.162 285.732 154.527 272.848 C 187.224 253.131 221.036 232.744 231.964 184.49 C 238.51 155.586 255.239 125.223 264.344 120.641 C 268.392 118.604 272.791 117.478 277.045 116.389 C 286.004 114.096 297.153 111.242 301.069 98.691 C 301.629 96.897 303.896 90.831 309.565 88.107 C 313.557 86.189 318.582 86.387 324.496 88.695 C 346.669 97.355 354.623 79.987 358.018 72.57 C 358.851 70.751 360.071 68.088 360.892 67.067 C 363.666 66.764 371.146 69.004 375.694 70.372 C 386.527 73.631 397.728 77.002 406.24 71.694 C 412.096 68.042 417.46 65.26 422.469 64.004 C 422.764 63.948 423.055 63.883 423.34 63.802 C 428.816 62.617 433.872 63.333 438.688 66.846 C 439.049 67.11 439.225 67.295 439.297 67.38 C 439.579 69.462 436.028 76.009 434.31 79.178 C 433.743 80.224 433.174 81.284 432.612 82.351 C 431.151 82.354 429.845 82.529 428.733 82.775 C 419.386 84.837 414.016 93.489 410.095 99.807 Z"/><path d=" M 336.312 384.464 C 331.632 381.526 325.461 382.938 322.526 387.615 L 322.42 387.786 C 319.507 392.478 320.976 398.602 325.668 401.515 C 327.299 402.528 329.11 403.009 330.903 403.009 C 334.267 403.009 337.563 401.313 339.464 398.252 C 342.401 393.572 340.99 387.399 336.312 384.464 Z"/><path d=" M 70.693 296.6 C 88.47 277.676 101.604 269.582 116.833 260.198 C 119.292 258.682 121.769 257.156 124.26 255.585 C 128.931 252.638 130.329 246.463 127.383 241.792 C 124.436 237.12 118.261 235.724 113.59 238.669 C 111.158 240.203 108.74 241.692 106.322 243.183 C 90.581 252.883 75.714 262.046 56.116 282.907 C 44.987 294.756 38.458 307.705 36.712 321.398 C 36.014 326.877 39.889 331.884 45.367 332.583 C 45.797 332.638 46.222 332.665 46.644 332.665 C 51.603 332.665 55.907 328.978 56.551 323.929 C 57.753 314.504 62.512 305.311 70.693 296.6 Z"/><path d=" M 149.112 234.066 C 151.615 234.066 154.12 233.132 156.061 231.256 L 156.237 231.086 C 160.208 227.248 160.315 220.917 156.476 216.946 C 152.637 212.974 146.307 212.868 142.336 216.706 L 142.16 216.876 C 138.189 220.714 138.082 227.045 141.921 231.016 C 143.884 233.046 146.496 234.066 149.112 234.066 Z"/><g></g><g></g><g></g><g></g><g></g><g></g><g></g><g></g><g></g><g></g><g></g><g></g><g></g><g></g><g></g></svg>