<svg version="1.1" width="661.333" height="661.333" viewBox="-39 0 495 496" xmlns="http://www.w3.org/2000/svg" xmlns:xlink="http://www.w3.org/1999/xlink" overflow="hidden"><path d=" M 408.906 208 C 408.828 194.641 408.188 181.281 407.148 168 C 406.027 151.84 404.27 135.762 401.867 119.84 C 399.547 103.762 396.59 87.8398 393.066 72 L 313.066 112 L 314.906 128.32 C 316.348 141.602 317.547 154.879 318.508 168.16 C 319.227 178.719 319.867 189.359 320.27 200 C 320.828 213.281 321.066 226.641 321.066 240 L 409.066 240 L 409.066 217.762 C 409.066 214.48 409.066 211.281 408.906 208 Z" fill="#CCD1D9"/><path d=" M 272.906 216 C 272.668 200.078 271.867 184.16 270.508 168.32 C 269.227 152.559 267.309 136.879 264.988 121.199 C 264.906 120.801 264.906 120.48 264.828 120.078 C 262.027 101.762 258.508 83.5195 254.348 65.4414 C 250.508 48.8008 246.109 32.3203 241.066 16 L 129.066 96 C 132.906 106.16 136.27 116.48 139.148 126.879 C 142.109 137.602 144.668 148.48 146.668 159.441 C 149.707 175.441 151.629 191.68 152.508 208 C 152.906 214.719 153.066 221.52 153.066 228.32 L 153.066 248 L 273.066 248 L 273.066 228.801 C 273.066 224.559 273.066 220.238 272.906 216 Z" fill="#AAB2BD"/><path d=" M 104.906 224 C 104.828 210.641 104.188 197.281 103.148 184 C 102.027 167.84 100.27 151.762 97.8672 135.84 C 95.5469 119.762 92.5898 103.84 89.0664 88 L 9.06641 128 L 10.9063 144.32 C 12.3477 157.602 13.5469 170.879 14.5078 184.16 C 15.2266 194.719 15.8672 205.359 16.2695 216 C 16.8281 229.281 17.0664 242.641 17.0664 256 L 105.066 256 L 105.066 233.762 C 105.066 230.48 105.066 227.281 104.906 224 Z" fill="#CCD1D9"/><path d=" M 233.066 280 L 401.066 280 L 387.707 360.398 L 385.066 360 L 29.0664 360 L 17.0664 296 L 97.0664 296 L 109.867 328 L 212.508 328 Z" fill="#D3A06C"/><path d=" M 385.066 360 L 209.066 360 C 232.828 360 253.629 372.961 264.59 392.238 C 269.949 401.602 273.066 412.398 273.066 424 L 336.43 424 C 357.066 424 374.988 410.879 381.707 392 C 382.668 389.441 383.309 386.719 383.789 383.922 L 387.707 360.398 Z" fill="#DFB28B"/><path d=" M 33.707 384.879 C 34.1875 387.359 34.8281 389.68 35.707 392 C 42.2695 410.879 60.2695 424 80.9063 424 L 145.066 424 C 145.066 412.398 148.188 401.602 153.547 392.238 C 164.508 372.961 185.309 360 209.066 360 L 29.0664 360 Z" fill="#DFB28B"/><path d=" M 264.59 392.238 C 269.949 401.602 273.066 412.398 273.066 424 C 273.066 459.359 244.43 488 209.066 488 C 173.707 488 145.066 459.359 145.066 424 C 145.066 412.398 148.188 401.602 153.547 392.238 C 164.508 372.961 185.309 360 209.066 360 C 232.828 360 253.629 372.961 264.59 392.238 Z" fill="#FCD770"/><path d=" M 193.066 408 L 225.066 408 L 225.066 440 L 193.066 440 Z" fill="#FFC729"/><path d=" M 185.066 448 L 233.066 448 L 233.066 400 L 185.066 400 Z M 201.066 416 L 217.066 416 L 217.066 432 L 201.066 432 Z"/><path d=" M 297.066 304 L 313.066 304 L 313.066 320 L 297.066 320 Z"/><path d=" M 329.066 304 L 345.066 304 L 345.066 320 L 329.066 320 Z"/><path d=" M 265.066 304 L 281.066 304 L 281.066 320 L 265.066 320 Z"/><path d=" M 417.066 248 L 417.066 217.762 C 417.066 168.246 411.621 118.617 400.875 70.2656 L 398.652 60.2656 L 361.066 79.0547 L 361.066 48 L 345.066 48 L 345.066 87.0547 L 304.5 107.336 L 306.934 129.223 C 311.004 165.879 313.066 203.16 313.066 240 L 313.066 248 L 345.066 248 L 345.066 272 L 227.797 272 L 207.227 320 L 193.066 320 L 193.066 256 L 281.066 256 L 281.066 228.816 C 281.066 155.816 270.18 83.4141 248.715 13.6484 L 245.453 3.03906 L 193.066 40.457 L 193.066 0 L 177.066 0 L 177.066 51.8867 L 119.422 93.0625 L 121.578 98.8164 C 137.164 140.375 145.066 183.953 145.066 228.352 L 145.066 256 L 177.066 256 L 177.066 320 L 115.285 320 L 102.484 288 L 57.0664 288 L 57.0664 264 L 113.066 264 L 113.066 233.762 C 113.066 184.246 107.621 134.617 96.875 86.2656 L 94.6523 76.2656 L 57.0664 95.0547 L 57.0664 64 L 41.0664 64 L 41.0664 103.055 L 0.5 123.336 L 2.93359 145.223 C 7.00391 181.879 9.06641 219.16 9.06641 256 L 9.06641 264 L 41.0664 264 L 41.0664 288 L 7.42969 288 L 25.8672 386.32 C 30.8281 412.793 53.9727 432 80.9063 432 L 137.539 432 C 141.539 467.945 172.074 496 209.066 496 C 246.059 496 276.605 467.945 280.598 432 L 336.402 432 C 363.898 432 387.125 412.32 391.645 385.199 L 410.516 272 L 361.066 272 L 361.066 248 Z M 265.066 240 L 193.066 240 L 193.066 218.688 L 264.973 223.48 C 264.988 225.258 265.066 227.031 265.066 228.816 Z M 193.066 135.566 L 193.066 107.199 L 248.867 77.4414 C 251.539 89.7852 253.789 102.199 255.797 114.656 Z M 258.277 130.695 C 259.691 140.91 260.828 151.16 261.797 161.434 L 193.066 170.594 L 193.066 152.426 Z M 177.066 140.902 L 152.773 149 C 151.5 142.953 150.109 136.938 148.539 130.945 L 177.066 115.734 Z M 177.066 157.762 L 177.066 172.727 L 157.363 175.352 C 156.875 171.848 156.363 168.344 155.781 164.855 Z M 159.219 191.246 L 177.066 188.871 L 177.066 201.586 L 159.988 200.449 C 159.766 197.375 159.516 194.313 159.219 191.246 Z M 193.066 186.734 L 263.211 177.383 C 263.934 187.375 264.395 197.391 264.691 207.426 L 193.066 202.648 Z M 236.613 29.0156 C 239.723 39.7188 242.492 50.5039 245.094 61.3125 L 193.066 89.0625 L 193.066 60.1211 Z M 177.066 71.543 L 177.066 97.5938 L 144.059 115.199 C 142.387 109.762 140.598 104.344 138.676 98.9688 Z M 161.066 240 L 161.066 228.352 C 161.066 224.406 160.941 220.473 160.82 216.535 L 177.066 217.617 L 177.066 240 Z M 97.0664 248 L 57.0664 248 L 57.0664 227.672 L 97.0039 231.305 C 97.0039 232.121 97.0664 232.945 97.0664 233.762 Z M 41.0664 176 L 21.8516 176 C 21.6211 173.039 21.4102 170.078 21.1484 167.129 L 41.0664 161.152 Z M 57.0664 156.352 L 91.0508 146.16 C 92.3711 156.09 93.5 166.023 94.3711 176 L 57.0664 176 Z M 23.0117 192 L 41.0664 192 L 41.0664 210.145 L 23.875 208.586 C 23.6211 203.055 23.3555 197.527 23.0117 192 Z M 57.0664 192 L 95.5977 192 C 96.0859 199.727 96.3789 207.457 96.5977 215.191 L 57.0664 211.602 Z M 83.4023 99.7773 C 85.4766 109.84 87.2422 119.961 88.8516 130.113 L 57.0664 139.648 L 57.0664 112.945 Z M 41.0664 120.945 L 41.0664 144.449 L 19.5625 150.895 C 19.3086 148.414 19.1094 145.93 18.8359 143.457 L 17.6367 132.656 Z M 25.0352 248 C 24.9727 240.246 24.7891 232.488 24.5469 224.711 L 41.0664 226.215 L 41.0664 248 Z M 149.242 384 L 41.7734 384 C 41.7227 383.785 41.6367 383.586 41.5977 383.367 L 38.707 368 L 163.906 368 C 158.262 372.566 153.301 377.953 149.242 384 Z M 49.0742 400 L 141.27 400 C 139.453 405.105 138.156 410.441 137.539 416 L 80.9063 416 C 68.0117 416 56.4453 409.754 49.0742 400 Z M 209.066 480 C 178.188 480 153.066 454.871 153.066 424 C 153.066 393.129 178.188 368 209.066 368 C 239.949 368 265.066 393.129 265.066 424 C 265.066 454.871 239.949 480 209.066 480 Z M 375.492 384 L 268.891 384 C 264.836 377.953 259.875 372.566 254.219 368 L 378.285 368 L 375.852 382.574 C 375.781 383.07 375.59 383.512 375.492 384 Z M 336.402 416 L 280.598 416 C 279.98 410.441 278.676 405.105 276.867 400 L 368.293 400 C 360.957 409.77 349.395 416 336.402 416 Z M 380.957 352 L 35.707 352 L 26.707 304 L 91.6523 304 L 104.453 336 L 217.773 336 L 238.34 288 L 391.621 288 Z M 401.066 232 L 361.066 232 L 361.066 211.672 L 401.004 215.305 C 401.004 216.121 401.066 216.945 401.066 217.762 Z M 345.066 160 L 325.852 160 C 325.621 157.039 325.41 154.078 325.148 151.129 L 345.066 145.152 Z M 361.066 140.352 L 395.051 130.16 C 396.371 140.09 397.5 150.023 398.371 160 L 361.066 160 Z M 327.012 176 L 345.066 176 L 345.066 194.145 L 327.875 192.586 C 327.621 187.055 327.355 181.527 327.012 176 Z M 361.066 176 L 399.598 176 C 400.086 183.727 400.379 191.457 400.598 199.191 L 361.066 195.602 Z M 387.402 83.7773 C 389.477 93.8398 391.242 103.961 392.852 114.113 L 361.066 123.648 L 361.066 96.9453 Z M 345.066 104.945 L 345.066 128.449 L 323.563 134.895 C 323.309 132.414 323.109 129.93 322.836 127.457 L 321.637 116.656 Z M 329.035 232 C 328.973 224.246 328.789 216.488 328.547 208.711 L 345.066 210.215 L 345.066 232 Z"/></svg>