<svg version="1.1" width="682.667" height="682.667" viewBox="0 0 512 512.001" xmlns="http://www.w3.org/2000/svg" xmlns:xlink="http://www.w3.org/1999/xlink" overflow="hidden"><path d=" M 474.281 104.109 L 380.418 343.039 C 372.707 362.602 353.824 375.461 332.801 375.469 C 305.398 375.578 282.801 354.031 281.602 326.656 C 281.25 319.461 282.445 312.277 285.098 305.578 L 378.965 66.6445 C 389.309 40.3242 419.035 27.375 445.355 37.7188 C 471.676 48.0625 484.629 77.7852 474.281 104.109 Z" fill="#BDC3C7"/><path d=" M 332.801 375.469 L 85.332 375.469 C 75.918 375.441 68.2969 367.816 68.2656 358.402 L 68.2656 332.801 C 68.2656 299.813 95.0117 273.066 128 273.066 L 221.867 273.066 C 252.469 273.082 278.113 296.219 281.258 326.656 L 281.602 326.656 C 282.801 354.031 305.398 375.578 332.801 375.469 Z" fill="#95A5A5"/><path d=" M 349.867 324.285 C 349.867 333.711 342.227 341.352 332.801 341.352 C 323.375 341.352 315.734 333.711 315.734 324.285 C 315.734 314.859 323.375 307.219 332.801 307.219 C 342.227 307.219 349.867 314.859 349.867 324.285 Z" fill="#7F8C8D"/><path d=" M 93.8672 418.133 L 341.332 418.133 C 346.047 418.133 349.867 421.953 349.867 426.668 L 349.867 494.934 C 349.867 499.648 346.047 503.469 341.332 503.469 L 93.8672 503.469 C 89.1563 503.469 85.332 499.648 85.332 494.934 L 85.332 426.668 C 85.332 421.953 89.1563 418.133 93.8672 418.133 Z" fill="#7F8C8D"/><path d=" M 341.332 375.469 L 324.266 418.133 L 110.934 418.133 L 93.8672 375.469 Z" fill="#35495E"/><path d=" M 266.684 36.9766 C 255.688 14.25 232.609 -0.136719 207.359 0 L 151.039 0 C 125.793 -0.136719 102.715 14.25 91.7148 36.9766 C 87.4844 45.6055 85.3008 55.0977 85.332 64.7109 L 85.332 157.16 C 85.457 174.457 92.4492 190.996 104.773 203.133 C 117.098 215.27 133.742 222.012 151.039 221.867 L 207.359 221.867 C 224.488 221.934 240.961 215.297 253.262 203.375 C 265.91 191.332 273.07 174.625 273.066 157.16 L 273.066 64.7109 C 273.102 55.0977 270.918 45.6055 266.684 36.9766 Z" fill="#7F8C8D"/><path d=" M 258.73 42.668 L 99.668 42.668 C 109.504 21.793 130.523 8.48828 153.602 8.53516 L 204.801 8.53516 C 227.875 8.48828 248.898 21.793 258.73 42.668 Z" fill="#95A5A5"/><path d=" M 264.535 68.2695 L 264.535 136.535 C 264.535 127.109 256.895 119.469 247.469 119.469 C 238.043 119.469 230.402 127.109 230.402 136.535 C 230.391 139.598 231.219 142.609 232.789 145.238 C 232 145.098 231.199 145.039 230.402 145.066 C 216.262 145.066 204.801 156.527 204.801 170.668 C 204.801 184.805 216.262 196.27 230.402 196.27 L 246.527 196.27 C 235.414 207.238 220.418 213.375 204.801 213.336 L 153.602 213.336 C 120.609 213.336 93.8672 186.59 93.8672 153.602 L 93.8672 68.2695 C 93.832 59.4063 95.8164 50.6484 99.668 42.668 L 258.73 42.668 C 262.582 50.6484 264.566 59.4063 264.535 68.2695 Z" fill="#67B9CC"/><path d=" M 187.734 128 C 187.734 142.141 176.273 153.602 162.133 153.602 L 119.469 153.602 C 108.23 153.59 98.3125 146.254 95.0156 135.508 C 91.7188 124.766 95.8164 113.125 105.117 106.816 C 114.418 100.508 126.742 101 135.512 108.031 C 128.777 103.48 126.188 94.8125 129.32 87.3125 C 132.453 79.8164 140.441 75.5664 148.41 77.1563 C 156.379 78.75 162.121 85.7383 162.133 93.8672 C 162.145 96.9336 161.316 99.9414 159.746 102.57 C 160.531 102.43 161.332 102.371 162.133 102.402 C 176.273 102.402 187.734 113.863 187.734 128 Z" fill="#ECF0F1"/><path d=" M 264.535 136.535 L 264.535 153.602 C 264.559 169.676 258.063 185.07 246.527 196.27 L 230.402 196.27 C 216.262 196.27 204.801 184.805 204.801 170.668 C 204.801 156.527 216.262 145.066 230.402 145.066 C 231.199 145.039 232 145.098 232.789 145.238 C 231.219 142.609 230.391 139.598 230.402 136.535 C 230.402 127.109 238.043 119.469 247.469 119.469 C 256.895 119.469 264.535 127.109 264.535 136.535 Z" fill="#ECF0F1"/><path d=" M 503.469 512 L 8.53516 512 C 3.82031 512 -2.84217e-14 508.18 -2.84217e-14 503.469 C -2.84217e-14 498.754 3.82031 494.934 8.53516 494.934 L 503.469 494.934 C 508.18 494.934 512 498.754 512 503.469 C 512 508.18 508.18 512 503.469 512 Z" fill="#35495E"/></svg>