<svg version="1.1" width="682.667" height="682.667" viewBox="0 -61 512 512" xmlns="http://www.w3.org/2000/svg" xmlns:xlink="http://www.w3.org/1999/xlink" overflow="hidden"><path d=" M 355.898 382.695 C 342.5 382.695 331.637 371.836 331.637 358.438 L 331.637 335.516 L 380.156 302.816 L 380.156 358.438 C 380.156 371.836 369.297 382.695 355.898 382.695 Z" fill="#AFACB3"/><path d=" M 149.996 382.695 C 136.598 382.695 125.738 371.836 125.738 358.438 L 125.738 335.516 L 174.258 302.141 L 174.258 358.438 C 174.258 371.836 163.395 382.695 149.996 382.695 Z" fill="#AFACB3"/><path d=" M 435.527 149.781 L 432.09 161.297 L 381.871 329.754 L 380.16 335.512 L 331.637 335.512 L 331.637 358.438 C 331.637 362.277 330.742 365.918 329.141 369.141 C 327.965 371.547 326.395 373.727 324.527 375.59 C 320.137 379.98 314.074 382.699 307.383 382.699 C 293.98 382.699 283.121 371.828 283.121 358.438 L 283.121 335.512 L 125.738 335.512 L 125.738 358.438 C 125.738 360.465 125.484 362.441 125.02 364.328 C 122.383 374.879 112.84 382.699 101.477 382.699 C 88.082 382.699 77.2227 371.828 77.2227 358.438 L 77.2227 335.512 L 30.8086 335.512 L 42.3867 281.848 L 7.60156 281.848 C 7.60156 252.313 43.6055 212.227 43.6055 212.227 L 7.60156 212.227 C 7.60156 172.148 60.4844 138.445 60.4844 138.445 L 26.5898 129.961 C 45.5078 89.8086 104.84 72.9375 104.84 72.9375 L 68.7773 60.3477 C 83.5508 22.3672 169.07 40.3945 169.07 40.3945 L 142.617 13.9297 C 180.59 -6.57813 233.32 34.4414 233.32 34.4414 L 233.32 7.60547 C 290.277 7.60547 316.59 47.957 316.59 47.957 L 316.59 17.1641 C 363.988 26.7148 384.094 84.668 384.094 84.668 L 406.309 62.457 C 433.73 89.8711 435.527 149.781 435.527 149.781 Z" fill="#7C4242"/><path d=" M 432.484 167.391 L 384.082 329.754 L 78.6719 329.754 L 88.793 282.832 L 58.3867 282.832 C 58.3867 257.02 89.8555 221.977 89.8555 221.977 L 58.3867 221.977 C 58.3867 186.938 104.609 157.477 104.609 157.477 L 74.9844 150.055 C 91.5313 114.953 143.391 100.203 143.391 100.203 L 111.867 89.1914 C 124.773 55.9961 199.547 71.7539 199.547 71.7539 L 176.422 48.625 C 209.617 30.6914 255.715 66.5508 255.715 66.5508 L 255.715 43.0898 C 305.508 43.0898 328.504 78.3633 328.504 78.3633 L 328.504 51.4453 C 369.938 59.8008 387.52 110.461 387.52 110.461 L 406.934 91.0352 C 425.914 110.016 430.852 146.789 432.09 161.297 C 432.414 165.121 432.484 167.391 432.484 167.391 Z" fill="#936A60"/><path d=" M 504.395 218.652 C 466.363 218.652 435.531 187.82 435.531 149.785 L 375.984 150.707 C 352.598 150.969 331.992 159.906 316.586 174.438 C 311.434 170.992 305.242 168.984 298.582 168.984 C 280.664 168.984 266.137 183.508 266.137 201.426 C 266.137 215.766 275.445 227.926 288.344 232.211 C 287.953 235.785 287.75 239.422 287.75 243.109 C 287.75 294.145 329.121 335.516 380.156 335.516 L 387.531 335.516 C 452.074 335.516 504.395 283.195 504.395 218.652 Z" fill="#E6E6E6"/><path d=" M 393.957 289.215 L 380.16 335.512 L 331.637 335.512 L 331.637 358.434 C 331.637 365.125 328.918 371.199 324.527 375.59 C 320.137 379.977 314.074 382.695 307.383 382.695 C 293.98 382.695 283.121 371.828 283.121 358.434 L 283.121 335.512 L 125.738 335.512 L 125.738 358.434 C 125.738 371.828 114.879 382.695 101.477 382.695 C 88.082 382.695 77.2227 371.828 77.2227 358.434 L 77.2227 335.512 C 87.0195 243.844 300.063 289.215 300.063 289.215 Z" fill="#C4BECC"/><path d=" M 501.938 242.645 C 500.648 248.801 498.887 254.781 496.676 260.539 L 496.664 260.539 C 479.824 304.391 437.313 335.516 387.531 335.516 L 380.16 335.516 C 354.641 335.516 331.535 325.176 314.816 308.457 C 298.098 291.727 287.758 268.629 287.758 243.113 L 287.758 242.961 C 287.797 255.957 298.129 267.727 314.816 276.246 C 331.535 284.781 354.641 290.063 380.16 290.063 L 387.531 290.063 C 437.313 290.063 479.824 274.176 496.664 251.781 L 496.676 251.781 C 498.887 248.84 500.648 245.789 501.938 242.645 Z" fill="#C4BECC"/><path d=" M 504.398 218.652 C 504.398 233.414 501.66 247.539 496.672 260.535 L 496.664 260.535 C 476.832 256.895 461.816 239.527 461.816 218.652 C 461.816 214.059 462.547 209.641 463.895 205.492 C 475.262 213.777 489.262 218.652 504.398 218.652 Z" fill="#4F5263"/><path d=" M 405.039 237.926 C 405.039 245.207 399.137 251.109 391.859 251.109 C 384.578 251.109 378.68 245.207 378.68 237.926 C 378.68 230.648 384.578 224.746 391.859 224.746 C 399.137 224.746 405.039 230.648 405.039 237.926 Z" fill="#4F5263"/><path d=" M 512 218.652 C 512 214.453 508.598 211.047 504.395 211.047 C 470.617 211.047 443.133 183.566 443.133 149.785 C 443.133 149.75 443.129 149.711 443.129 149.676 C 443.129 149.637 443.133 149.598 443.129 149.555 C 443.051 146.988 440.902 86.293 411.684 57.0742 C 408.711 54.1055 403.898 54.1055 400.93 57.0742 L 386.668 71.3359 C 383.434 64.5664 378.43 55.418 371.473 46.1797 C 368.945 42.8242 364.176 42.1563 360.82 44.6836 C 357.469 47.2109 356.797 51.9766 359.324 55.332 C 371.227 71.125 376.852 87.0078 376.906 87.1602 C 377.766 89.6328 379.836 91.4922 382.387 92.0781 C 384.945 92.6641 387.613 91.8945 389.465 90.043 L 405.91 73.6016 C 421.316 94.1094 426.016 127.355 427.391 142.305 L 375.898 143.102 C 353.559 143.352 332.352 151.145 315.582 165.16 C 310.293 162.676 304.512 161.379 298.582 161.379 C 276.5 161.379 258.535 179.344 258.535 201.426 C 258.535 216.645 267.078 230.305 280.316 237.07 C 280.203 239.09 280.145 241.105 280.145 243.109 C 280.145 255.746 282.508 267.844 286.805 278.984 C 257.836 273.977 192.414 264.953 141.047 274.684 C 136.922 275.465 134.211 279.441 134.988 283.57 C 135.773 287.695 139.758 290.406 143.875 289.625 C 200.715 278.855 278.82 292.82 295.332 296.027 C 303.648 309.309 314.988 320.512 328.387 328.648 C 325.816 329.871 324.035 332.48 324.035 335.516 L 324.035 358.438 C 324.035 367.621 316.563 375.09 307.379 375.09 C 298.191 375.09 290.723 367.621 290.723 358.438 L 290.723 335.516 C 290.723 331.316 287.32 327.91 283.117 327.91 L 125.738 327.91 C 121.539 327.91 118.133 331.316 118.133 335.516 L 118.133 358.438 C 118.133 367.621 110.664 375.09 101.48 375.09 C 92.293 375.09 84.8242 367.621 84.8242 358.438 L 84.8242 335.98 C 86.8672 318.008 98.0547 305.141 119.023 296.66 C 122.914 295.086 124.793 290.652 123.219 286.758 C 121.648 282.867 117.215 280.984 113.32 282.563 C 89.4727 292.207 75.1875 307.445 70.75 327.91 L 40.2266 327.91 L 49.8203 283.445 C 50.3047 281.199 49.7461 278.855 48.3047 277.066 C 46.8594 275.281 44.6836 274.238 42.3867 274.238 L 16.0664 274.238 C 20.4844 253.172 40.8438 226.695 49.2578 217.309 C 51.2656 215.078 51.7695 211.875 50.5469 209.133 C 49.3242 206.391 46.6016 204.625 43.6016 204.625 L 15.9375 204.625 C 22.0195 172.422 64.1133 145.152 64.5664 144.863 C 67.1289 143.23 68.4727 140.23 67.9844 137.23 C 67.5 134.234 65.2734 131.813 62.3281 131.074 L 38.1563 125.016 C 59.0273 94.2617 106.406 80.3984 106.918 80.2539 C 110.109 79.3438 112.344 76.4766 112.441 73.1641 C 112.535 69.8477 110.477 66.8516 107.348 65.7578 L 80.2344 56.2891 C 89.6406 46.4102 108.676 43.918 124.32 43.7344 C 146.492 43.4805 167.301 47.7891 167.508 47.832 C 170.797 48.5273 174.156 46.9727 175.762 44.0156 C 177.363 41.0586 176.832 37.3945 174.453 35.0156 L 156.313 16.8789 C 188.426 9.66797 228.219 40.1094 228.656 40.4453 C 230.949 42.2305 234.059 42.5508 236.664 41.2734 C 239.273 40 240.93 37.3477 240.93 34.4414 L 240.93 15.4648 C 287.566 18.6758 309.281 50.6953 310.215 52.1094 C 312.055 54.9297 315.527 56.2031 318.75 55.2461 C 321.977 54.2852 324.188 51.3242 324.188 47.957 L 324.188 27.2344 C 330.523 29.6172 336.625 33.1211 342.406 37.7031 C 345.699 40.3125 350.48 39.7578 353.09 36.4648 C 355.695 33.1758 355.145 28.3906 351.852 25.7813 C 341.445 17.5352 330.086 12.1289 318.086 9.70703 C 315.855 9.25781 313.535 9.83203 311.77 11.2773 C 310.004 12.7227 308.98 14.8828 308.98 17.1641 L 308.98 28.2266 C 294.961 15.625 270.148 8.52651e-14 233.324 8.52651e-14 C 229.125 8.52651e-14 225.719 3.40625 225.719 7.60547 L 225.719 20.1289 C 206.754 8.53906 169.445 -9.20313 139 7.24219 C 136.887 8.38281 135.438 10.457 135.09 12.832 C 134.742 15.2109 135.539 17.6094 137.238 19.3086 L 147.523 29.5938 C 140.586 28.9219 132.625 28.4414 124.387 28.5234 C 90.1484 28.8789 69.0547 38.6563 61.6953 57.5859 C 60.9453 59.5078 61.0117 61.6523 61.875 63.5273 C 62.7383 65.3984 64.3281 66.8398 66.2734 67.5234 L 82.4844 73.1836 C 62.3438 82.0625 32.6992 99.1602 19.7109 126.715 C 18.7422 128.773 18.7461 131.156 19.7188 133.211 C 20.6914 135.27 22.5352 136.781 24.7422 137.332 L 42.9922 141.906 C 26.2852 155.496 2.84217e-14 181.73 2.84217e-14 212.227 C 2.84217e-14 216.426 3.40234 219.832 7.60547 219.832 L 27.668 219.832 C 25.0508 223.309 22.1523 227.355 19.2461 231.789 C 6.47656 251.246 2.84217e-14 268.086 2.84217e-14 281.844 C 2.84217e-14 286.043 3.40234 289.445 7.60547 289.445 L 32.9688 289.445 L 23.375 333.914 C 22.8906 336.16 23.4492 338.504 24.8945 340.293 C 26.3359 342.078 28.5117 343.117 30.8086 343.117 L 69.6133 343.117 L 69.6133 358.434 C 69.6133 376.004 83.9102 390.297 101.48 390.297 C 111.324 390.297 120.141 385.809 125.992 378.766 C 131.844 385.809 140.656 390.297 150.504 390.297 C 168.074 390.297 182.371 376.004 182.371 358.434 L 182.371 343.117 L 275.516 343.117 L 275.516 358.434 C 275.516 376.004 289.813 390.297 307.379 390.297 C 317.227 390.297 326.043 385.809 331.895 378.766 C 337.742 385.809 346.559 390.297 356.406 390.297 C 373.977 390.297 388.27 376.004 388.27 358.434 L 388.27 343.109 C 456.563 342.711 512 287.039 512 218.652 Z M 167.16 358.438 C 167.16 367.621 159.688 375.09 150.504 375.09 C 141.32 375.09 133.848 367.621 133.848 358.438 L 133.848 343.121 L 167.16 343.121 Z M 491.809 251.301 C 478.527 246.203 469.422 233.352 469.422 218.652 C 469.422 218.359 469.445 218.07 469.453 217.777 C 477.73 222.047 486.875 224.867 496.559 225.855 C 495.98 234.66 494.355 243.184 491.809 251.301 Z M 373.063 358.438 C 373.063 367.621 365.59 375.09 356.406 375.09 C 347.219 375.09 339.75 367.621 339.75 358.438 L 339.75 343.121 L 373.059 343.121 L 373.059 358.438 Z M 387.531 327.91 L 380.16 327.91 C 333.398 327.91 295.355 289.871 295.355 243.109 C 295.355 239.773 295.539 236.383 295.902 233.035 C 296.293 229.477 294.141 226.129 290.742 224.996 C 280.574 221.617 273.742 212.145 273.742 201.426 C 273.742 187.73 284.883 176.586 298.582 176.586 C 303.512 176.586 308.277 178.031 312.359 180.758 C 315.309 182.727 319.227 182.398 321.801 179.969 C 336.578 166.031 355.344 158.543 376.102 158.309 L 428.313 157.5 C 430.359 177.852 440.422 195.867 455.285 208.348 C 454.578 211.727 454.215 215.172 454.215 218.652 C 454.215 239.699 467.238 258.109 486.25 265.457 C 468.688 302.352 431.039 327.91 387.531 327.91 Z"/><path d=" M 391.859 217.145 C 380.398 217.145 371.074 226.469 371.074 237.926 C 371.074 249.387 380.398 258.711 391.859 258.711 C 403.32 258.711 412.645 249.387 412.645 237.926 C 412.645 226.469 403.32 217.145 391.859 217.145 Z M 391.859 243.504 C 388.785 243.504 386.281 241.004 386.281 237.926 C 386.281 234.852 388.785 232.352 391.859 232.352 C 394.934 232.352 397.434 234.852 397.434 237.926 C 397.434 241.004 394.934 243.504 391.859 243.504 Z"/></svg>