<svg version="1.1" width="682.667" height="682.667" viewBox="0 -27 512 512" xmlns="http://www.w3.org/2000/svg" xmlns:xlink="http://www.w3.org/1999/xlink" overflow="hidden"><path d=" M 477.914 16 L 457.809 16 L 457.809 158.438 L 228.207 158.438 L 228.207 152.438 L 192.207 152.438 L 192.207 16 L 172.996 16 L 148.07 193.758 L 148.07 409.043 L 187.027 448 L 457.043 448 L 502 403.043 L 502 187.758 Z M 403.324 370.445 L 371.961 401.813 L 338.199 435.57 C 329.629 444.145 315.73 444.145 307.156 435.57 L 208.93 337.348 C 203.141 331.555 200.605 323.27 202.172 315.23 L 204.223 304.664 C 205.785 296.625 203.254 288.34 197.465 282.547 L 189.906 274.992 L 242.746 222.152 L 250.301 229.711 C 256.09 235.496 264.379 238.031 272.418 236.469 L 282.984 234.414 C 291.023 232.855 299.309 235.387 305.102 241.176 L 403.324 339.402 C 411.895 347.977 411.895 361.875 403.324 370.445 Z" fill="#FFC66C"/><g fill="#72D8FF"><path d=" M 46 381.332 L 46 425.332 C 46 435.066 51.3516 443.543 59.2656 448 L 133.852 448 C 148.211 448 159.852 436.359 159.852 422 L 159.852 378 C 159.852 368.27 154.504 359.789 146.586 355.332 L 72 355.332 C 57.6406 355.332 46 366.973 46 381.332 Z"/><path d=" M 133.855 256 L 64.1602 256 C 52.6133 258.652 44 268.984 44 281.332 L 44 325.332 C 44 339.691 55.6406 351.332 70 351.332 L 139.691 351.332 C 151.238 348.684 159.852 338.352 159.852 326 L 159.852 282 C 159.855 267.641 148.215 256 133.855 256 Z"/><path d=" M 42.668 188 L 42.668 232 C 42.668 242.813 49.2656 252.078 58.6563 256 L 133.855 256 C 148.215 256 159.855 244.359 159.855 230 L 159.855 186 C 159.855 175.188 153.254 165.922 143.863 162 L 68.668 162 C 54.3086 162 42.668 173.641 42.668 188 Z"/><path d=" M 114.367 56.668 L 91.4727 56.668 L 65.6797 82.5625 C 51.3672 96.9336 43.332 116.387 43.332 136.664 C 43.332 146.906 49.2578 155.762 57.8594 160 L 133.852 160 C 148.211 160 159.852 148.359 159.852 134 C 159.852 113.719 151.816 94.2656 137.508 79.8945 Z"/></g><path d=" M 111.715 10 L 78.6953 10 C 76.918 10.8281 75.6758 12.6211 75.6758 14.7148 L 75.6758 48.2852 C 75.6758 51.1641 78.0117 53.5 80.8906 53.5 L 113.91 53.5 C 115.688 52.668 116.93 50.8789 116.93 48.7852 L 116.93 15.2148 C 116.926 12.3359 114.594 10 111.715 10 Z" fill="#898998"/><path d=" M 211.773 203.352 L 162.105 253.02 C 159.105 256.02 159.105 260.883 162.105 263.883 L 177.625 279.406 C 180.625 282.406 185.488 282.406 188.488 279.406 L 238.156 229.738 C 241.156 226.738 241.156 221.871 238.156 218.871 L 222.637 203.352 C 219.637 200.352 214.773 200.352 211.773 203.352 Z" fill="#898998"/><path d=" M 335.199 441.57 L 368.961 407.813 L 400.324 376.445 C 400.387 376.383 400.441 376.313 400.504 376.25 L 306.098 281.844 C 300.309 276.055 292.02 273.52 283.984 275.082 L 273.414 277.137 C 265.379 278.699 257.09 276.164 251.301 270.375 L 243.742 262.82 L 201.648 304.914 C 201.73 306.82 201.598 308.746 201.227 310.664 L 199.172 321.23 C 199.016 322.023 198.914 322.82 198.84 323.613 C 203.801 328.801 206.227 335.863 205.559 342.945 C 205.684 343.078 205.805 343.215 205.934 343.348 L 304.156 441.57 C 312.73 450.145 326.629 450.145 335.199 441.57 Z" fill="#72D8FF"/><path d=" M 326 162.441 C 328.629 162.441 331.211 161.371 333.07 159.512 C 334.93 157.648 336 155.07 336 152.441 C 336 149.809 334.93 147.23 333.07 145.371 C 331.211 143.512 328.629 142.441 326 142.441 C 323.371 142.441 320.789 143.512 318.93 145.371 C 317.07 147.23 316 149.809 316 152.441 C 316 155.07 317.07 157.648 318.93 159.512 C 320.789 161.371 323.371 162.441 326 162.441 Z"/><path d=" M 511.902 186.371 L 486.977 8.60938 C 486.285 3.67188 482.059 0 477.074 0 L 421.813 0 C 416.289 0 411.813 4.47656 411.813 10 L 411.813 142.438 L 366 142.438 C 360.477 142.438 356 146.914 356 152.438 C 356 157.961 360.477 162.438 366 162.438 L 421.813 162.438 C 427.336 162.438 431.813 157.961 431.813 152.438 L 431.813 20 L 468.379 20 L 492 188.457 L 492 398.898 L 452.898 438 L 352.914 438 L 407.395 383.52 C 413.43 377.484 416.754 369.461 416.754 360.926 C 416.754 352.391 413.43 344.367 407.395 338.332 L 309.168 240.105 C 301.016 231.953 289.395 228.398 278.074 230.602 L 267.508 232.652 C 262.727 233.582 257.816 232.082 254.371 228.641 L 250.383 224.648 C 250.473 220.008 248.766 215.336 245.23 211.801 L 229.711 196.281 C 226.367 192.941 221.93 191.102 217.203 191.102 C 212.48 191.102 208.039 192.941 204.703 196.281 L 169.824 231.156 C 169.836 230.773 169.855 230.391 169.855 230 L 169.855 186 C 169.855 175.785 165.57 166.559 158.715 160 C 165.57 153.441 169.855 144.215 169.855 134 C 169.855 110.918 160.883 89.1953 144.594 72.8398 L 134.91 63.1211 C 137.945 61.7578 140.238 58.9258 140.734 55.3906 L 145.695 20 L 182.211 20 L 182.211 152.438 C 182.211 157.961 186.688 162.438 192.211 162.438 L 286 162.438 C 291.523 162.438 296 157.961 296 152.438 C 296 146.914 291.523 142.438 286 142.438 L 202.211 142.438 L 202.211 10 C 202.211 4.47656 197.73 2.84217e-14 192.211 2.84217e-14 L 137 2.84217e-14 C 132.016 2.84217e-14 127.789 3.67188 127.098 8.60938 L 126.605 12.1094 C 125.168 5.20313 119.039 2.84217e-14 111.715 2.84217e-14 L 58.1406 2.84217e-14 C 49.75 2.84217e-14 42.9258 6.82422 42.9258 15.2148 L 42.9258 48.7852 C 42.9258 50.6641 43.2852 52.4531 43.9102 54.1172 L 25.2617 72.8398 C 8.97266 89.1953 0 110.914 0 134 C 0 144.215 4.28125 153.441 11.1406 160 C 4.28125 166.559 0 175.785 0 186 L 0 230 C 0 240.215 4.28125 249.441 11.1406 256 C 4.28125 262.559 0 271.785 0 282 L 0 326 C 0 336.215 4.28125 345.441 11.1406 352 C 4.28125 358.559 0 367.785 0 378 L 0 422 C 0 441.852 16.1484 458 36 458 L 133.855 458 C 139.406 458 144.668 456.734 149.367 454.48 L 149.961 455.07 C 151.836 456.945 154.379 458 157.031 458 L 457.043 458 C 459.695 458 462.238 456.945 464.113 455.07 L 509.07 410.113 C 510.945 408.238 512 405.695 512 403.043 L 512 187.758 C 512 187.293 511.969 186.828 511.902 186.371 Z M 271.324 252.285 L 281.891 250.234 C 286.676 249.305 291.582 250.805 295.027 254.25 L 393.254 352.477 C 397.914 357.137 397.914 364.719 393.254 369.375 L 328.129 434.5 C 323.469 439.16 315.887 439.16 311.227 434.5 L 213.004 336.273 C 209.559 332.828 208.059 327.922 208.984 323.137 L 211.039 312.57 C 213.238 301.254 209.688 289.629 201.531 281.477 L 201.047 280.988 L 239.742 242.293 L 240.23 242.781 C 248.383 250.934 260.008 254.488 271.324 252.285 Z M 217.203 212.063 L 229.449 224.305 L 183.059 270.695 L 170.813 258.453 Z M 183.059 291.656 C 183.176 291.656 183.293 291.641 183.41 291.641 L 187.391 295.617 C 190.836 299.063 192.336 303.973 191.406 308.754 L 189.355 319.32 C 187.156 330.641 190.707 342.262 198.859 350.418 L 286.445 438 L 166.09 438 C 168.492 433.176 169.855 427.746 169.855 422 L 169.855 378 C 169.855 367.785 165.57 358.559 158.715 352 C 165.57 345.441 169.855 336.215 169.855 326 L 169.855 285.777 L 170.555 286.477 C 173.895 289.816 178.336 291.656 183.059 291.656 Z M 62.9258 20 L 106.926 20 L 106.926 44 L 62.9258 44 Z M 20 134 C 20 116.242 26.9023 99.5352 39.4336 86.9531 L 62.293 64 L 107.559 64 L 130.422 86.9531 C 142.953 99.5352 149.855 116.242 149.855 134 C 149.855 142.82 142.676 150 133.855 150 L 36 150 C 27.1797 150 20 142.82 20 134 Z M 20 230 L 20 186 C 20 177.18 27.1797 170 36 170 L 133.855 170 C 142.676 170 149.855 177.18 149.855 186 L 149.855 230 C 149.855 238.82 142.676 246 133.855 246 L 36 246 C 27.1797 246 20 238.82 20 230 Z M 20 326 L 20 282 C 20 273.18 27.1797 266 36 266 L 133.855 266 C 142.676 266 149.855 273.18 149.855 282 L 149.855 326 C 149.855 334.82 142.676 342 133.855 342 L 36 342 C 27.1797 342 20 334.82 20 326 Z M 36 438 C 27.1797 438 20 430.82 20 422 L 20 378 C 20 369.18 27.1797 362 36 362 L 133.855 362 C 142.676 362 149.855 369.18 149.855 378 L 149.855 422 C 149.855 430.82 142.676 438 133.855 438 Z"/><path d=" M 472 298.074 L 472 213.332 C 472 207.809 467.523 203.332 462 203.332 C 456.477 203.332 452 207.809 452 213.332 L 452 298.074 C 452 303.598 456.477 308.074 462 308.074 C 467.523 308.074 472 303.598 472 298.074 Z"/><path d=" M 454.93 345.148 C 456.789 347.008 459.371 348.078 462 348.078 C 464.629 348.078 467.211 347.012 469.07 345.148 C 470.93 343.281 472 340.711 472 338.078 C 472 335.438 470.93 332.871 469.07 331 C 467.211 329.141 464.629 328.078 462 328.078 C 459.371 328.078 456.789 329.141 454.93 331 C 453.07 332.871 452 335.438 452 338.078 C 452 340.711 453.07 343.281 454.93 345.148 Z"/></svg>