<svg version="1.1" width="682.667" height="682.667" viewBox="0 -16 512 511" xmlns="http://www.w3.org/2000/svg" xmlns:xlink="http://www.w3.org/1999/xlink" overflow="hidden"><path d=" M 504 8.48438 L 504 32.4844 L 8 32.4844 L 8 8.48438 Z" fill="#E6E9ED"/><path d=" M 55.9219 384.484 L 55.9219 472.484 L 16 472.484 L 16 344.563 C 38.0781 344.645 55.8398 362.402 55.8398 384.484 Z" fill="#5D9CEC"/><path d=" M 48 344.563 L 56 344.563 C 78 344.563 95.9219 362.402 95.9219 384.484 L 96 384.484 L 96 472.484 L 55.9219 472.484 L 55.9219 384.484 L 55.8398 384.484 C 55.8398 362.402 38.0703 344.645 16 344.563 Z" fill="#4A89DC"/><path d=" M 96 344.563 C 118.078 344.563 135.922 362.402 135.922 384.484 L 136 384.484 L 136 472.484 L 96 472.484 L 96 384.484 L 95.9219 384.484 C 95.9219 362.402 78 344.563 56 344.563 Z" fill="#5D9CEC"/><path d=" M 432 344.563 L 456 344.563 C 433.922 344.563 416.078 362.402 416.078 384.484 L 416 384.484 L 416 472.484 L 375.922 472.484 L 375.922 384.484 L 376.078 384.484 C 376.078 362.402 393.922 344.563 416 344.563 Z" fill="#5D9CEC"/><path d=" M 496 344.563 C 473.922 344.645 456.16 362.402 456.16 384.484 L 456 384.484 L 456 472.484 L 416 472.484 L 416 384.484 L 416.078 384.484 C 416.078 362.402 433.922 344.563 456 344.563 Z" fill="#4A89DC"/><path d=" M 496 344.563 L 496 472.484 L 456 472.484 L 456 384.484 L 456.16 384.484 C 456.16 362.402 473.922 344.645 496 344.563 Z" fill="#5D9CEC"/><path d=" M 496 56.4844 L 496 344.563 C 460.641 344.563 432 315.926 432 280.484 L 432.16 280.484 L 432.16 56.4844 Z" fill="#5D9CEC"/><path d=" M 464 344.563 C 410.879 344.563 367.922 301.605 367.922 248.484 L 368.078 248.484 L 368.078 56.4844 L 432.16 56.4844 L 432.16 280.484 L 432 280.484 C 432 315.926 460.641 344.563 496 344.563 Z" fill="#4A89DC"/><path d=" M 456 344.563 L 432 344.563 C 361.199 344.563 304 287.285 304 216.563 L 304 56.4844 L 368.078 56.4844 L 368.078 248.484 L 367.922 248.484 C 367.922 301.605 410.879 344.563 464 344.563 Z" fill="#5D9CEC"/><path d=" M 48 344.563 C 101.039 344.563 144.078 301.605 144.078 248.484 L 143.922 248.484 L 143.922 56.4844 L 208 56.4844 L 208 216.563 C 208 287.285 150.719 344.563 80 344.563 Z" fill="#5D9CEC"/><path d=" M 144.078 248.484 C 144.078 301.605 101.039 344.563 48 344.563 L 16 344.563 C 51.4414 344.484 80 315.926 80 280.484 L 79.8398 280.484 L 79.8398 56.4844 L 143.922 56.4844 L 143.922 248.484 Z" fill="#4A89DC"/><path d=" M 79.8398 280.484 L 80 280.484 C 80 315.926 51.4414 344.484 16 344.563 L 16 56.4844 L 79.8398 56.4844 Z" fill="#5D9CEC"/><path d=" M 504 40.5 L 8 40.5 C 3.57422 40.5 0 36.9258 0 32.5 C 0 28.0742 3.57422 24.5 8 24.5 L 504 24.5 C 508.426 24.5 512 28.0742 512 32.5 C 512 36.9258 508.426 40.5 504 40.5 Z"/><path d=" M 504 16.5 L 8 16.5 C 3.57422 16.5 0 12.9258 0 8.5 C 0 4.07422 3.57422 0.5 8 0.5 L 504 0.5 C 508.426 0.5 512 4.07422 512 8.5 C 512 12.9258 508.426 16.5 504 16.5 Z"/><path d=" M 207.984 224.531 C 203.559 224.531 199.984 220.957 199.984 216.531 L 199.984 56.5156 C 199.984 52.0938 203.559 48.5156 207.984 48.5156 C 212.406 48.5156 215.984 52.0938 215.984 56.5156 L 215.984 216.531 C 215.984 220.957 212.406 224.531 207.984 224.531 Z"/><path d=" M 79.9844 352.547 C 75.5586 352.547 71.9844 348.973 71.9844 344.547 C 71.9844 340.125 75.5586 336.547 79.9844 336.547 C 146.16 336.547 200.008 282.715 200.008 216.531 C 200.008 212.109 203.586 208.531 208.008 208.531 C 212.434 208.531 216.008 212.109 216.008 216.531 C 216.008 291.531 154.984 352.547 79.9844 352.547 Z"/><path d=" M 79.9844 352.547 C 75.5586 352.547 71.9844 348.973 71.9844 344.547 C 71.9844 340.125 75.5586 336.547 79.9844 336.547 C 146.16 336.547 200.008 282.715 200.008 216.531 C 200.008 212.109 203.586 208.531 208.008 208.531 C 212.434 208.531 216.008 212.109 216.008 216.531 C 216.008 291.531 154.984 352.547 79.9844 352.547 Z"/><path d=" M 15.9297 352.547 C 11.5039 352.547 7.92969 348.973 7.92969 344.547 C 7.92969 340.125 11.5039 336.547 15.9297 336.547 C 46.8242 336.547 71.9609 311.41 71.9609 280.516 C 71.9609 276.094 75.5352 272.516 79.9609 272.516 C 84.3828 272.516 87.9609 276.094 87.9609 280.516 C 87.9609 320.234 55.6484 352.547 15.9297 352.547 Z"/><path d=" M 47.9688 352.547 C 43.543 352.547 39.9688 348.973 39.9688 344.547 C 39.9688 340.125 43.543 336.547 47.9688 336.547 C 96.5352 336.547 136.047 297.043 136.047 248.469 C 136.047 244.043 139.625 240.469 144.047 240.469 C 148.473 240.469 152.047 244.043 152.047 248.469 C 152.047 305.859 105.359 352.547 47.9688 352.547 Z"/><path d=" M 143.922 256.469 C 139.496 256.469 135.922 252.891 135.922 248.469 L 135.922 56.5156 C 135.922 52.0938 139.496 48.5156 143.922 48.5156 C 148.344 48.5156 151.922 52.0938 151.922 56.5156 L 151.922 248.469 C 151.922 252.891 148.344 256.469 143.922 256.469 Z"/><path d=" M 79.832 288.516 C 75.4063 288.516 71.832 284.941 71.832 280.516 L 71.832 56.5156 C 71.832 52.0938 75.4063 48.5156 79.832 48.5156 C 84.2578 48.5156 87.832 52.0938 87.832 56.5156 L 87.832 280.516 C 87.832 284.941 84.2578 288.516 79.832 288.516 Z"/><path d=" M 207.984 64.5156 L 16 64.5156 C 11.5742 64.5156 8 60.9414 8 56.5156 C 8 52.0938 11.5742 48.5156 16 48.5156 L 207.984 48.5156 C 212.406 48.5156 215.984 52.0938 215.984 56.5156 C 215.984 60.9414 212.406 64.5156 207.984 64.5156 Z"/><path d=" M 16 480.469 C 11.5742 480.469 8 476.891 8 472.469 L 8 56.5156 C 8 52.0938 11.5742 48.5156 16 48.5156 C 20.4258 48.5156 24 52.0938 24 56.5156 L 24 472.469 C 24 476.891 20.4258 480.469 16 480.469 Z"/><path d=" M 96 352.547 L 16 352.547 C 11.5742 352.547 8 348.973 8 344.547 C 8 340.125 11.5742 336.547 16 336.547 L 96 336.547 C 100.426 336.547 104 340.125 104 344.547 C 104 348.973 100.426 352.547 96 352.547 Z"/><path d=" M 55.8398 392.469 C 51.4141 392.469 47.8398 388.891 47.8398 384.469 C 47.8398 366.867 33.5195 352.547 15.9219 352.547 C 11.4961 352.547 7.92188 348.973 7.92188 344.547 C 7.92188 340.125 11.4961 336.547 15.9219 336.547 C 42.3438 336.547 63.8398 358.051 63.8398 384.469 C 63.8398 388.891 60.2656 392.469 55.8398 392.469 Z"/><path d=" M 55.9453 480.469 C 51.5195 480.469 47.9453 476.891 47.9453 472.469 L 47.9453 384.469 C 47.9453 380.043 51.5195 376.469 55.9453 376.469 C 60.3672 376.469 63.9453 380.043 63.9453 384.469 L 63.9453 472.469 C 63.9453 476.891 60.3672 480.469 55.9453 480.469 Z"/><path d=" M 95.8789 392.469 C 91.457 392.469 87.8789 388.891 87.8789 384.469 C 87.8789 366.867 73.5586 352.547 55.9609 352.547 C 51.5352 352.547 47.9609 348.973 47.9609 344.547 C 47.9609 340.125 51.5352 336.547 55.9609 336.547 C 82.3828 336.547 103.879 358.051 103.879 384.469 C 103.879 388.891 100.305 392.469 95.8789 392.469 Z"/><path d=" M 95.9844 480.469 C 91.5586 480.469 87.9844 476.891 87.9844 472.469 L 87.9844 384.469 C 87.9844 380.043 91.5586 376.469 95.9844 376.469 C 100.406 376.469 103.984 380.043 103.984 384.469 L 103.984 472.469 C 103.984 476.891 100.406 480.469 95.9844 480.469 Z"/><path d=" M 135.922 392.469 C 131.496 392.469 127.922 388.891 127.922 384.469 C 127.922 366.867 113.602 352.547 96 352.547 C 91.5742 352.547 88 348.973 88 344.547 C 88 340.125 91.5742 336.547 96 336.547 C 122.426 336.547 143.922 358.051 143.922 384.469 C 143.922 388.891 140.344 392.469 135.922 392.469 Z"/><path d=" M 136.023 480.469 C 131.602 480.469 128.023 476.891 128.023 472.469 L 128.023 384.469 C 128.023 380.043 131.602 376.469 136.023 376.469 C 140.449 376.469 144.023 380.043 144.023 384.469 L 144.023 472.469 C 144.023 476.891 140.449 480.469 136.023 480.469 Z"/><path d=" M 136.023 480.469 L 16 480.469 C 11.5742 480.469 8 476.891 8 472.469 C 8 468.043 11.5742 464.469 16 464.469 L 136.023 464.469 C 140.449 464.469 144.023 468.043 144.023 472.469 C 144.023 476.891 140.449 480.469 136.023 480.469 Z"/><path d=" M 16 48.5 C 11.5742 48.5 8 44.9258 8 40.5 L 8 32.5 C 8 28.0742 11.5742 24.5 16 24.5 C 20.4258 24.5 24 28.0742 24 32.5 L 24 40.5 C 24 44.9258 20.4258 48.5 16 48.5 Z"/><path d=" M 79.9922 48.5 C 75.5664 48.5 71.9922 44.9258 71.9922 40.5 L 71.9922 32.5 C 71.9922 28.0742 75.5664 24.5 79.9922 24.5 C 84.4141 24.5 87.9922 28.0742 87.9922 32.5 L 87.9922 40.5 C 87.9922 44.9258 84.4141 48.5 79.9922 48.5 Z"/><path d=" M 143.922 48.5 C 139.496 48.5 135.922 44.9258 135.922 40.5 L 135.922 32.5 C 135.922 28.0742 139.496 24.5 143.922 24.5 C 148.344 24.5 151.922 28.0742 151.922 32.5 L 151.922 40.5 C 151.922 44.9258 148.344 48.5 143.922 48.5 Z"/><path d=" M 207.848 48.5 C 203.426 48.5 199.848 44.9258 199.848 40.5 L 199.848 32.5 C 199.848 28.0742 203.426 24.5 207.848 24.5 C 212.273 24.5 215.848 28.0742 215.848 32.5 L 215.848 40.5 C 215.848 44.9258 212.273 48.5 207.848 48.5 Z"/><path d=" M 303.984 224.531 C 299.559 224.531 295.984 220.957 295.984 216.531 L 295.984 56.5156 C 295.984 52.0938 299.559 48.5156 303.984 48.5156 C 308.406 48.5156 311.984 52.0938 311.984 56.5156 L 311.984 216.531 C 311.984 220.957 308.406 224.531 303.984 224.531 Z"/><path d=" M 431.984 352.547 C 356.984 352.547 295.961 291.531 295.961 216.531 C 295.961 212.109 299.535 208.531 303.961 208.531 C 308.383 208.531 311.961 212.109 311.961 216.531 C 311.961 282.707 365.801 336.547 431.984 336.547 C 436.406 336.547 439.984 340.125 439.984 344.547 C 439.984 348.973 436.406 352.547 431.984 352.547 Z"/><path d=" M 431.984 352.547 C 356.984 352.547 295.961 291.531 295.961 216.531 C 295.961 212.109 299.535 208.531 303.961 208.531 C 308.383 208.531 311.961 212.109 311.961 216.531 C 311.961 282.707 365.801 336.547 431.984 336.547 C 436.406 336.547 439.984 340.125 439.984 344.547 C 439.984 348.973 436.406 352.547 431.984 352.547 Z"/><path d=" M 496.039 352.547 C 456.32 352.547 424.008 320.234 424.008 280.516 C 424.008 276.094 427.586 272.516 432.008 272.516 C 436.434 272.516 440.008 276.094 440.008 280.516 C 440.008 311.41 465.145 336.547 496.039 336.547 C 500.465 336.547 504.039 340.125 504.039 344.547 C 504.039 348.973 500.465 352.547 496.039 352.547 Z"/><path d=" M 464 352.547 C 406.609 352.547 359.922 305.859 359.922 248.469 C 359.922 244.043 363.496 240.469 367.922 240.469 C 372.344 240.469 375.922 244.043 375.922 248.469 C 375.922 297.035 415.426 336.547 464 336.547 C 468.426 336.547 472 340.125 472 344.547 C 472 348.973 468.426 352.547 464 352.547 Z"/><path d=" M 368.047 256.469 C 363.625 256.469 360.047 252.891 360.047 248.469 L 360.047 56.5156 C 360.047 52.0938 363.625 48.5156 368.047 48.5156 C 372.473 48.5156 376.047 52.0938 376.047 56.5156 L 376.047 248.469 C 376.047 252.891 372.473 256.469 368.047 256.469 Z"/><path d=" M 432.137 288.516 C 427.711 288.516 424.137 284.941 424.137 280.516 L 424.137 56.5156 C 424.137 52.0938 427.711 48.5156 432.137 48.5156 C 436.559 48.5156 440.137 52.0938 440.137 56.5156 L 440.137 280.516 C 440.137 284.941 436.551 288.516 432.137 288.516 Z"/><path d=" M 495.969 64.5156 L 303.984 64.5156 C 299.559 64.5156 295.984 60.9414 295.984 56.5156 C 295.984 52.0938 299.559 48.5156 303.984 48.5156 L 495.969 48.5156 C 500.391 48.5156 503.969 52.0938 503.969 56.5156 C 503.969 60.9414 500.391 64.5156 495.969 64.5156 Z"/><path d=" M 495.969 480.469 C 491.543 480.469 487.969 476.891 487.969 472.469 L 487.969 56.5156 C 487.969 52.0938 491.543 48.5156 495.969 48.5156 C 500.391 48.5156 503.969 52.0938 503.969 56.5156 L 503.969 472.469 C 503.969 476.891 500.391 480.469 495.969 480.469 Z"/><path d=" M 495.969 352.547 L 415.969 352.547 C 411.543 352.547 407.969 348.973 407.969 344.547 C 407.969 340.125 411.543 336.547 415.969 336.547 L 495.969 336.547 C 500.391 336.547 503.969 340.125 503.969 344.547 C 503.969 348.973 500.391 352.547 495.969 352.547 Z"/><path d=" M 456.129 392.469 C 451.703 392.469 448.129 388.891 448.129 384.469 C 448.129 358.043 469.633 336.547 496.047 336.547 C 500.473 336.547 504.047 340.125 504.047 344.547 C 504.047 348.973 500.473 352.547 496.047 352.547 C 478.449 352.547 464.129 366.867 464.129 384.469 C 464.129 388.891 460.543 392.469 456.129 392.469 Z"/><path d=" M 456.023 480.469 C 451.602 480.469 448.023 476.891 448.023 472.469 L 448.023 384.469 C 448.023 380.043 451.602 376.469 456.023 376.469 C 460.449 376.469 464.023 380.043 464.023 384.469 L 464.023 472.469 C 464.023 476.891 460.449 480.469 456.023 480.469 Z"/><path d=" M 416.09 392.469 C 411.664 392.469 408.09 388.891 408.09 384.469 C 408.09 358.043 429.594 336.547 456.008 336.547 C 460.434 336.547 464.008 340.125 464.008 344.547 C 464.008 348.973 460.434 352.547 456.008 352.547 C 438.406 352.547 424.09 366.867 424.09 384.469 C 424.09 388.891 420.504 392.469 416.09 392.469 Z"/><path d=" M 415.984 480.469 C 411.559 480.469 407.984 476.891 407.984 472.469 L 407.984 384.469 C 407.984 380.043 411.559 376.469 415.984 376.469 C 420.406 376.469 423.984 380.043 423.984 384.469 L 423.984 472.469 C 423.984 476.891 420.406 480.469 415.984 480.469 Z"/><path d=" M 376.047 392.469 C 371.625 392.469 368.047 388.891 368.047 384.469 C 368.047 358.043 389.551 336.547 415.969 336.547 C 420.391 336.547 423.969 340.125 423.969 344.547 C 423.969 348.973 420.391 352.547 415.969 352.547 C 398.367 352.547 384.047 366.867 384.047 384.469 C 384.047 388.891 380.473 392.469 376.047 392.469 Z"/><path d=" M 375.945 480.469 C 371.52 480.469 367.945 476.891 367.945 472.469 L 367.945 384.469 C 367.945 380.043 371.52 376.469 375.945 376.469 C 380.367 376.469 383.945 380.043 383.945 384.469 L 383.945 472.469 C 383.945 476.891 380.367 480.469 375.945 480.469 Z"/><path d=" M 495.969 480.469 L 375.945 480.469 C 371.52 480.469 367.945 476.891 367.945 472.469 C 367.945 468.043 371.52 464.469 375.945 464.469 L 495.969 464.469 C 500.391 464.469 503.969 468.043 503.969 472.469 C 503.969 476.891 500.391 480.469 495.969 480.469 Z"/><path d=" M 495.969 48.5 C 491.543 48.5 487.969 44.9258 487.969 40.5 L 487.969 32.5 C 487.969 28.0742 491.543 24.5 495.969 24.5 C 500.391 24.5 503.969 28.0742 503.969 32.5 L 503.969 40.5 C 503.969 44.9258 500.391 48.5 495.969 48.5 Z"/><path d=" M 431.977 48.5 C 427.551 48.5 423.977 44.9258 423.977 40.5 L 423.977 32.5 C 423.977 28.0742 427.551 24.5 431.977 24.5 C 436.398 24.5 439.977 28.0742 439.977 32.5 L 439.977 40.5 C 439.977 44.9258 436.398 48.5 431.977 48.5 Z"/><path d=" M 368.047 48.5 C 363.625 48.5 360.047 44.9258 360.047 40.5 L 360.047 32.5 C 360.047 28.0742 363.625 24.5 368.047 24.5 C 372.473 24.5 376.047 28.0742 376.047 32.5 L 376.047 40.5 C 376.047 44.9258 372.473 48.5 368.047 48.5 Z"/><path d=" M 304.121 48.5 C 299.695 48.5 296.121 44.9258 296.121 40.5 L 296.121 32.5 C 296.121 28.0742 299.695 24.5 304.121 24.5 C 308.543 24.5 312.121 28.0742 312.121 32.5 L 312.121 40.5 C 312.121 44.9258 308.535 48.5 304.121 48.5 Z"/></svg>