<svg version="1.1" viewBox="0 0 87.679 87.679" xmlns="http://www.w3.org/2000/svg" xmlns:xlink="http://www.w3.org/1999/xlink" overflow="hidden"><g><path d=" M 49.179 16.149 C 49.563 16.149 49.947 16.003 50.24 15.71 L 57.03 8.92 C 57.616 8.335 57.616 7.384 57.03 6.799 C 56.444 6.213 55.495 6.213 54.909 6.799 L 48.119 13.589 C 47.533 14.174 47.533 15.125 48.119 15.71 C 48.411 16.003 48.795 16.149 49.179 16.149 Z"/><path d=" M 55.738 23.33 C 56.031 23.623 56.415 23.769 56.799 23.769 C 57.183 23.769 57.567 23.623 57.86 23.33 L 65.52 15.67 C 66.106 15.085 66.106 14.135 65.52 13.549 C 64.934 12.963 63.985 12.963 63.399 13.549 L 55.739 21.209 C 55.152 21.794 55.152 22.744 55.738 23.33 Z"/><path d=" M 68.149 12.419 C 68.533 12.419 68.917 12.273 69.21 11.98 L 72.52 8.67 C 73.106 8.085 73.106 7.134 72.52 6.549 C 71.934 5.963 70.985 5.963 70.399 6.549 L 67.089 9.859 C 66.503 10.444 66.503 11.395 67.089 11.98 C 67.382 12.272 67.766 12.419 68.149 12.419 Z"/><path d=" M 87.239 7.069 C 86.653 6.483 85.704 6.483 85.118 7.069 L 63.358 28.829 C 62.772 29.414 62.772 30.365 63.358 30.95 C 63.651 31.243 64.035 31.389 64.419 31.389 C 64.803 31.389 65.187 31.243 65.48 30.95 L 87.24 9.19 C 87.825 8.604 87.825 7.654 87.239 7.069 Z"/><path d=" M 62.434 47.433 C 62.101 43.807 61.154 40.316 59.619 37.058 C 59.618 37.056 59.618 37.055 59.617 37.053 C 58.099 33.813 56.032 30.871 53.48 28.32 C 52.962 27.79 52.461 27.325 51.985 26.927 C 50.528 25.635 48.931 24.469 47.236 23.461 C 47.234 23.46 47.233 23.459 47.232 23.458 C 46.275 22.893 45.35 22.408 44.406 21.977 C 41.665 20.716 38.754 19.867 35.751 19.453 C 35.061 19.359 34.371 19.286 33.668 19.233 C 33.082 19.191 32.461 19.32 31.941 19.314 C 29.959 19.272 27.964 18.909 26.017 19.909 C 26.012 19.909 26.008 19.909 26.003 19.909 C 22.043 19.909 18.312 21.635 14.923 23.754 C 13.285 24.762 11.715 25.909 10.258 26.909 C 10.258 26.909 10.257 26.909 10.257 26.909 C 10.256 26.909 10.255 27.143 10.254 27.144 C 10.251 27.147 10.247 27.266 10.243 27.27 C 10.242 27.271 10.242 27.33 10.241 27.33 C 9.926 27.613 9.612 27.935 9.309 28.239 C 9.168 28.38 9.019 28.547 8.886 28.709 C 6.534 31.143 4.463 33.909 3.041 36.912 C 1.643 39.823 1.12 42.928 0.12 46.126 C 0.12 46.126 0.12 46.127 0.12 46.128 C 0.12 47.883 -0.049 49.69 0.016 51.535 L 0.155 52.601 C 0.369 55.71 1.074 58.714 2.169 61.534 C 2.17 61.536 2.189 61.538 2.19 61.541 C 2.192 61.547 2.205 61.553 2.207 61.559 C 2.209 61.564 2.215 61.57 2.217 61.575 C 2.218 61.576 2.221 61.578 2.222 61.579 C 2.469 62.255 2.764 62.95 3.123 63.702 C 4.366 66.326 5.972 68.762 7.926 70.979 C 7.993 71.058 8.061 71.134 8.134 71.207 C 8.475 71.613 8.857 72.028 9.268 72.439 C 11.221 74.392 13.422 76.078 15.842 77.467 C 15.953 77.531 16.064 77.592 16.175 77.65 C 16.179 77.652 16.183 77.656 16.187 77.658 C 20.095 79.843 24.548 81.166 29.055 81.484 C 29.788 81.54 30.532 81.568 31.277 81.568 C 31.65 81.568 32.024 81.56 32.396 81.547 C 32.4 81.547 32.404 81.546 32.408 81.545 C 35.897 81.437 39.304 80.756 42.535 79.519 C 43.031 79.33 43.525 79.128 44.021 78.908 C 44.069 78.886 44.116 78.862 44.161 78.836 C 47.187 77.486 49.97 75.654 52.434 73.389 C 52.474 73.356 52.514 73.316 52.553 73.279 C 52.827 73.05 53.098 72.79 53.329 72.549 L 53.244 72.461 C 57.105 68.61 60.118 63.815 61.118 58.594 C 61.118 58.593 61.118 58.593 61.118 58.592 C 61.118 58.591 61.118 58.908 61.118 58.908 C 61.118 58.908 61.292 58.908 61.292 58.908 L 61.379 58.908 C 61.669 57.908 61.942 56.622 62.105 55.594 C 62.108 55.576 62.132 55.479 62.134 55.461 C 62.531 53.086 62.652 50.597 62.475 48.179 C 62.466 47.948 62.455 47.666 62.434 47.433 Z M 51.349 30.43 C 53.474 32.555 55.202 34.98 56.534 37.623 L 50.67 47.051 L 42.337 47.863 L 34.472 39.4 L 35.527 31.883 L 47.113 27.168 C 47.171 27.145 47.215 27.103 47.269 27.074 C 48.222 27.73 49.152 28.424 50.027 29.2 C 50.461 29.563 50.89 29.961 51.349 30.43 Z M 15.647 62.442 L 4.769 59.767 C 3.932 57.427 3.402 54.957 3.227 52.413 L 3.168 51.397 C 3.121 50.042 3.19 48.697 3.328 47.374 L 13.193 43.356 L 19.608 46.426 L 20.966 57.709 L 15.647 62.442 Z M 16.504 26.381 C 19.334 24.612 22.423 23.388 25.692 22.72 L 32.632 30.935 L 31.518 38.871 L 20.978 43.755 L 14.512 40.661 L 13.626 28.589 C 13.623 28.543 13.602 28.503 13.595 28.458 C 14.527 27.699 15.498 27 16.504 26.381 Z M 18.354 75.408 L 17.569 64.749 L 22.901 60.006 L 34.367 62.271 L 36.814 68.7 L 30.696 78.561 C 30.221 78.551 29.746 78.53 29.275 78.494 C 25.406 78.22 21.738 77.176 18.354 75.408 Z M 51.641 69.974 L 39.358 66.954 L 37.1 61.02 L 42.782 50.835 L 51.149 50.02 L 58.347 58.545 C 57.07 62.815 54.769 66.741 51.641 69.974 Z"/></g></svg>