<svg version="1.1" width="512" height="512" viewBox="0 0 64 64" xmlns="http://www.w3.org/2000/svg" xmlns:xlink="http://www.w3.org/1999/xlink" overflow="hidden"><g id="Filled_outline"><rect x="3" y="10" width="58" height="12" fill="#E97131"/><rect x="9" y="22" width="4" height="28" fill="#7D8D9C"/><rect x="6" y="50" width="10" height="4" fill="#E97131"/><rect x="51" y="22" width="4" height="28" fill="#7D8D9C"/><rect x="48" y="50" width="10" height="4" fill="#E97131"/><rect x="6" y="13" width="2" height="2" fill="#FFFFFF"/><rect x="6" y="17" width="2" height="2" fill="#FFFFFF"/><rect x="10" y="13" width="2" height="2" fill="#FFFFFF"/><rect x="10" y="17" width="2" height="2" fill="#FFFFFF"/><rect x="56" y="13" width="2" height="2" fill="#FFFFFF"/><rect x="56" y="17" width="2" height="2" fill="#FFFFFF"/><rect x="52" y="13" width="2" height="2" fill="#FFFFFF"/><rect x="52" y="17" width="2" height="2" fill="#FFFFFF"/><rect x="17" y="10" width="10" height="12" fill="#F3BB59"/><rect x="37" y="10" width="10" height="12" fill="#F3BB59"/><rect x="16" y="50" width="32" height="4" fill="#F3BB59"/><rect x="2" y="53" width="60" height="2" fill="#C45C24"/><path d=" M 61 9 L 3 9 C 2.44772 9 2 9.44771 2 10 L 2 22 C 2 22.5523 2.44772 23 3 23 L 8 23 L 8 49 L 6 49 C 5.44772 49 5 49.4477 5 50 L 5 53 L 2 53 L 2 55 L 62 55 L 62 53 L 59 53 L 59 50 C 59 49.4477 58.5523 49 58 49 L 56 49 L 56 23 L 61 23 C 61.5523 23 62 22.5523 62 22 L 62 10 C 62 9.44771 61.5523 9 61 9 Z M 38 11 L 46 11 L 46 21 L 38 21 Z M 28 11 L 36 11 L 36 21 L 28 21 Z M 18 11 L 26 11 L 26 21 L 18 21 Z M 4 21 L 4 11 L 16 11 L 16 21 Z M 12 23 L 12 49 L 10 49 L 10 23 Z M 15 53 L 7 53 L 7 51 L 15 51 Z M 47 53 L 17 53 L 17 51 L 47 51 Z M 14 49 L 14 23 L 50 23 L 50 49 Z M 57 51 L 57 53 L 49 53 L 49 51 Z M 52 49 L 52 23 L 54 23 L 54 49 Z M 60 21 L 48 21 L 48 11 L 60 11 Z"/><rect x="6" y="13" width="2" height="2"/><rect x="6" y="17" width="2" height="2"/><rect x="10" y="13" width="2" height="2"/><rect x="10" y="17" width="2" height="2"/><rect x="56" y="13" width="2" height="2"/><rect x="56" y="17" width="2" height="2"/><rect x="52" y="13" width="2" height="2"/><rect x="52" y="17" width="2" height="2"/></g></svg>