<svg version="1.1" width="682.667" height="682.667" viewBox="0 0 512.001 512" xmlns="http://www.w3.org/2000/svg" xmlns:xlink="http://www.w3.org/1999/xlink" overflow="hidden"><path d=" M 484.211 88.3594 L 484.211 62.1016 L 425.641 7.57422 L 86.3398 7.57422 L 27.7695 62.1016 L 27.7695 88.3594 Z" fill="#757574"/><path d=" M 425.641 7.57422 L 386.258 7.57422 L 426.043 44.6133 C 432.754 50.8633 428.332 62.1016 419.16 62.1016 L 27.7695 62.1016 L 27.7695 88.3594 L 484.211 88.3594 L 484.211 62.1016 Z" fill="#565656"/><path d=" M 27.7695 132.793 L 484.211 132.793 L 484.211 459.973 L 27.7695 459.973 Z" fill="#E1EBEF"/><path d=" M 484.211 212.695 L 457.992 196.309 C 446.227 188.953 431.301 188.938 419.52 196.27 L 412.531 200.617 C 400.773 207.934 385.879 207.934 374.121 200.617 L 367.09 196.242 C 355.332 188.926 340.438 188.926 328.68 196.242 L 321.438 200.746 C 309.789 207.996 295.051 208.07 283.332 200.934 L 274.891 195.797 C 263.281 188.73 248.699 188.73 237.09 195.797 L 228.648 200.934 C 216.93 208.07 202.191 207.996 190.539 200.746 L 183.301 196.242 C 171.543 188.926 156.648 188.926 144.891 196.242 L 137.859 200.617 C 126.102 207.934 111.207 207.934 99.4492 200.617 L 92.4609 196.27 C 80.6797 188.941 65.7539 188.953 53.9883 196.309 L 27.7695 212.695 L 27.7695 459.973 L 484.211 459.973 Z" fill="#64AEF7"/><path d=" M 504.406 459.973 C 504.406 459.973 504.238 504.238 504.406 504.406 L 7.57422 504.406 L 7.57422 459.973 Z" fill="#757574"/><path d=" M 504.406 459.973 L 484.152 459.973 C 484.141 465.191 484.133 470.633 484.137 475.121 C 484.141 480.703 479.617 485.219 474.039 485.219 L 7.57422 485.219 L 7.57422 504.406 L 504.406 504.406 C 504.238 504.238 504.406 459.973 504.406 459.973 Z" fill="#565656"/><path d=" M 504.406 88.3594 C 504.406 88.3594 504.238 132.625 504.406 132.793 L 7.57422 132.793 L 7.57422 88.3594 Z" fill="#757574"/><path d=" M 504.406 88.3594 L 484.152 88.3594 C 484.141 93.5742 484.133 99.0156 484.137 103.508 C 484.141 109.086 479.617 113.605 474.039 113.605 L 7.57422 113.605 L 7.57422 132.793 L 504.406 132.793 C 504.238 132.621 504.406 88.3594 504.406 88.3594 Z" fill="#565656"/><path d=" M 262.805 307.891 C 262.805 307.891 264.934 353.395 309.125 376.387 C 353.32 399.379 391.805 375.008 391.805 375.008 C 391.805 375.008 389.676 329.504 345.48 306.512 C 301.285 283.52 262.805 307.891 262.805 307.891 Z" fill="#F47B00"/><path d=" M 430.324 395.047 L 413.547 427.297 L 391.805 375.008 L 447.102 362.797 Z" fill="#FFD432"/><path d=" M 262.805 307.891 C 262.805 307.891 264.402 341.938 293.438 366.012 C 304.461 360.504 314.406 350.918 321.031 338.188 C 327.656 325.453 329.797 311.805 327.98 299.621 C 291.602 289.66 262.805 307.891 262.805 307.891 Z" fill="#FFD432"/><g fill="#8ACAFF"><path d=" M 249.93 255.988 C 249.93 266.027 241.793 274.168 231.754 274.168 C 221.715 274.168 213.578 266.027 213.578 255.988 C 213.578 245.949 221.715 237.813 231.754 237.813 C 241.793 237.813 249.93 245.949 249.93 255.988 Z"/><path d=" M 271.137 405.445 C 271.137 415.48 263 423.621 252.961 423.621 C 242.922 423.621 234.785 415.48 234.785 405.445 C 234.785 395.406 242.922 387.266 252.961 387.266 C 263 387.266 271.137 395.406 271.137 405.445 Z"/><path d=" M 446.848 251.949 C 446.848 261.988 438.707 270.129 428.672 270.129 C 418.633 270.129 410.492 261.988 410.492 251.949 C 410.492 241.91 418.633 233.773 428.672 233.773 C 438.707 233.773 446.848 241.91 446.848 251.949 Z"/></g><path d=" M 106.633 435.93 C 102.09 443.23 100.367 451.746 101.469 459.973 L 155 459.973 C 153.898 451.746 155.617 443.23 160.164 435.93 L 164.668 428.688 C 171.984 416.93 171.984 402.035 164.668 390.277 L 160.293 383.246 C 152.977 371.488 152.977 356.594 160.293 344.836 L 164.641 337.848 C 171.973 326.066 171.957 311.141 164.602 299.375 L 154.883 283.824 C 150.734 277.188 143.465 273.156 135.637 273.156 L 125.602 273.156 C 112.145 273.156 103.938 287.961 111.07 299.375 C 118.426 311.141 118.441 326.066 111.109 337.848 L 106.762 344.836 C 99.4453 356.594 99.4453 371.488 106.762 383.246 L 111.137 390.277 C 118.453 402.035 118.453 416.93 111.137 428.688 Z" fill="#6EC030"/><path d=" M 164.668 390.277 L 160.293 383.246 C 152.977 371.488 152.977 356.594 160.293 344.836 L 164.641 337.848 C 171.973 326.066 171.957 311.141 164.602 299.375 L 154.883 283.824 C 150.734 277.188 143.465 273.156 135.637 273.156 L 125.602 273.156 C 123.984 273.156 122.441 273.375 120.992 273.773 C 126.742 275.133 131.82 278.695 135.027 283.824 L 144.746 299.375 C 152.102 311.141 152.117 326.066 144.785 337.848 L 140.438 344.836 C 133.121 356.594 133.121 371.488 140.438 383.246 L 144.813 390.277 C 152.129 402.035 152.129 416.93 144.813 428.688 L 140.309 435.93 C 135.762 443.23 134.043 451.746 135.145 459.973 L 155 459.973 C 153.898 451.746 155.617 443.23 160.164 435.93 L 164.668 428.688 C 171.984 416.93 171.984 402.035 164.668 390.277 Z" fill="#378900"/><path d=" M 511.945 503.48 C 511.863 499.535 511.922 475.148 511.98 460 C 511.988 457.988 511.191 456.055 509.773 454.629 C 508.352 453.199 506.422 452.398 504.406 452.398 L 491.781 452.398 L 491.781 282.246 C 491.781 278.063 488.391 274.672 484.211 274.672 C 480.027 274.672 476.637 278.059 476.637 282.246 L 476.637 452.398 L 162.41 452.398 C 162.832 448 164.234 443.715 166.594 439.93 L 171.098 432.691 C 180.004 418.375 180.004 400.59 171.098 386.277 L 166.723 379.246 C 160.887 369.867 160.887 358.215 166.723 348.836 L 171.07 341.848 C 179.863 327.719 179.844 309.473 171.023 295.363 L 161.305 279.809 C 155.738 270.902 146.141 265.582 135.637 265.582 L 125.602 265.582 C 116.488 265.582 108.406 270.344 103.988 278.316 C 99.5703 286.285 99.8164 295.66 104.648 303.387 C 110.426 312.633 110.438 324.59 104.68 333.848 L 100.332 340.836 C 91.4258 355.148 91.4258 372.934 100.332 387.246 L 104.707 394.277 C 110.543 403.656 110.543 415.309 104.707 424.688 L 100.203 431.926 C 96.3477 438.121 94.1289 445.18 93.6719 452.398 L 35.3438 452.398 L 35.3438 216.891 L 58.0039 202.73 C 67.2461 196.953 79.2031 196.941 88.4609 202.699 L 95.4492 207.047 C 109.762 215.953 127.547 215.953 141.863 207.047 L 148.891 202.672 C 158.27 196.836 169.922 196.836 179.301 202.672 L 186.543 207.176 C 200.699 215.988 218.344 216.074 232.59 207.402 L 241.027 202.266 C 250.258 196.652 261.727 196.648 270.953 202.266 L 279.395 207.402 C 293.637 216.074 311.281 215.984 325.441 207.176 L 332.68 202.672 C 342.059 196.836 353.711 196.836 363.09 202.672 L 370.121 207.047 C 384.434 215.953 402.219 215.953 416.535 207.047 L 423.523 202.699 C 432.781 196.941 444.734 196.949 453.98 202.73 L 476.637 216.891 L 476.637 246.902 C 476.637 251.086 480.027 254.477 484.211 254.477 C 488.395 254.477 491.785 251.086 491.785 246.902 L 491.785 140.363 L 504.41 140.363 C 507.469 140.363 510.23 138.523 511.402 135.695 C 511.883 134.539 512.059 133.313 511.953 132.121 C 511.863 129.133 511.922 103.906 511.984 88.3867 C 511.988 86.375 511.195 84.4414 509.773 83.0117 C 508.352 81.5859 506.422 80.7852 504.41 80.7852 L 491.785 80.7852 L 491.785 62.1016 C 491.785 60 490.91 57.9922 489.371 56.5586 L 430.805 2.03125 C 429.402 0.726562 427.559 0 425.641 0 L 86.3398 0 C 84.4258 0 82.582 0.726562 81.1797 2.03125 L 22.6094 56.5586 C 21.0703 57.9922 20.1953 60 20.1953 62.1016 L 20.1953 80.7852 L 7.57422 80.7852 C 3.39063 80.7852 8.61533e-14 84.1758 8.61533e-14 88.3594 L 8.61533e-14 132.793 C 8.61533e-14 136.973 3.39063 140.367 7.57422 140.367 L 20.1953 140.367 L 20.1953 452.398 L 7.57422 452.398 C 3.39063 452.398 8.61533e-14 455.789 8.61533e-14 459.973 L 8.61533e-14 504.406 C 8.61533e-14 508.59 3.39063 511.98 7.57422 511.98 L 504.406 511.98 C 504.414 511.977 504.422 511.977 504.426 511.98 C 508.609 511.98 512 508.59 512 504.406 C 512 504.094 511.98 503.785 511.945 503.48 Z M 511.895 131.66 C 511.844 131.316 511.77 130.977 511.672 130.645 C 511.781 131.031 511.852 131.375 511.895 131.66 Z M 511.391 129.859 C 511.301 129.652 511.203 129.445 511.098 129.246 C 511.207 129.453 511.305 129.66 511.391 129.859 Z M 510.973 129.031 C 510.898 128.902 510.824 128.766 510.738 128.641 C 510.824 128.77 510.898 128.902 510.973 129.031 Z M 510.527 128.348 C 510.457 128.246 510.391 128.148 510.313 128.051 C 510.391 128.148 510.457 128.25 510.527 128.348 Z M 15.1484 95.9336 L 99.4688 95.9336 C 103.648 95.9336 107.039 92.543 107.039 88.3594 C 107.039 84.1758 103.648 80.7852 99.4688 80.7852 L 35.3438 80.7852 L 35.3438 65.4023 L 89.3203 15.1484 L 422.66 15.1484 L 476.637 65.4023 L 476.637 80.7852 L 134.813 80.7852 C 130.629 80.7852 127.238 84.1758 127.238 88.3594 C 127.238 92.543 130.629 95.9336 134.813 95.9336 L 496.809 95.9336 C 496.793 100.004 496.777 105.25 496.77 110.5 C 496.762 115.801 496.754 121.109 496.762 125.219 L 15.1484 125.219 Z M 476.637 140.363 L 476.637 199.027 L 462.008 189.883 C 447.895 181.066 429.648 181.047 415.516 189.836 L 408.531 194.184 C 399.152 200.023 387.5 200.02 378.121 194.184 L 371.09 189.809 C 356.773 180.902 338.988 180.902 324.676 189.809 L 317.438 194.316 C 308.16 200.09 296.602 200.145 287.27 194.465 L 278.828 189.328 C 264.742 180.75 247.238 180.75 233.148 189.328 L 224.711 194.465 C 215.379 200.145 203.82 200.09 194.543 194.316 L 187.305 189.809 C 172.988 180.902 155.203 180.906 140.891 189.809 L 133.859 194.184 C 124.48 200.023 112.828 200.023 103.449 194.184 L 96.4609 189.836 C 82.332 181.047 64.0859 181.066 49.9727 189.883 L 35.3438 199.027 L 35.3438 140.363 Z M 113.063 439.93 L 117.566 432.691 C 126.473 418.375 126.473 400.59 117.566 386.277 L 113.191 379.246 C 107.355 369.867 107.355 358.215 113.191 348.836 L 117.539 341.848 C 126.332 327.719 126.313 309.473 117.492 295.363 C 115.625 292.371 115.527 288.742 117.238 285.66 C 118.949 282.574 122.074 280.73 125.602 280.73 L 135.637 280.73 C 140.883 280.73 145.68 283.387 148.461 287.84 L 158.18 303.391 C 163.957 312.633 163.969 324.59 158.211 333.848 L 153.863 340.836 C 144.953 355.148 144.953 372.934 153.863 387.246 L 158.238 394.281 C 164.074 403.656 164.074 415.309 158.234 424.688 L 153.73 431.926 C 149.879 438.121 147.645 445.18 147.191 452.402 L 108.855 452.402 C 109.277 448 110.707 443.719 113.063 439.93 Z M 496.77 482.113 C 496.762 487.414 496.754 492.723 496.762 496.832 L 15.1484 496.832 L 15.1484 467.547 L 496.809 467.547 C 496.793 471.617 496.777 476.863 496.77 482.113 Z"/><path d=" M 305.633 383.105 C 319.313 390.223 333.832 393.832 348.781 393.832 L 348.785 393.832 C 365.879 393.832 379.793 389.102 387.953 385.473 L 406.555 430.203 C 407.684 432.922 410.281 434.738 413.223 434.863 C 413.332 434.867 413.438 434.871 413.547 434.871 C 416.363 434.871 418.957 433.305 420.266 430.793 L 453.82 366.293 C 455.18 363.684 454.902 360.523 453.113 358.188 C 451.324 355.852 448.344 354.762 445.469 355.402 L 398.188 365.84 C 395.207 350.395 384.82 318.441 348.977 299.793 C 342.805 296.582 336.461 294.09 329.988 292.316 C 329.984 292.316 329.98 292.316 329.977 292.316 C 329.945 292.305 329.914 292.297 329.883 292.289 C 328.965 292.039 328.039 291.805 327.117 291.582 C 327.02 291.559 326.922 291.535 326.82 291.512 C 325.938 291.305 325.055 291.109 324.164 290.926 C 324.063 290.906 323.961 290.887 323.855 290.867 C 322.961 290.684 322.063 290.52 321.164 290.367 C 321.078 290.352 320.992 290.336 320.906 290.32 C 319.98 290.168 319.055 290.027 318.125 289.902 C 318.063 289.891 317.996 289.883 317.934 289.875 C 316.973 289.746 316.012 289.633 315.047 289.535 C 315.012 289.531 314.98 289.527 314.945 289.523 C 311.926 289.223 308.883 289.063 305.824 289.063 C 279.633 289.063 260.902 300.164 258.902 301.395 C 258.832 301.438 258.777 301.473 258.75 301.492 L 258.746 301.492 C 257.313 302.402 256.246 303.75 255.684 305.297 C 255.676 305.324 255.672 305.355 255.66 305.383 C 255.563 305.664 255.473 305.953 255.406 306.246 C 255.273 306.859 255.219 307.492 255.238 308.137 C 255.238 308.172 255.234 308.207 255.234 308.242 L 255.234 308.246 C 255.234 308.246 255.238 308.254 255.238 308.254 C 255.238 308.305 255.242 308.379 255.25 308.469 L 255.25 308.496 C 255.504 312.727 259.328 359.016 305.633 383.105 Z M 299.965 304.438 C 301.859 304.297 303.813 304.219 305.82 304.219 C 307.055 304.219 308.285 304.25 309.516 304.309 C 309.586 304.313 309.652 304.316 309.723 304.32 C 310.957 304.383 312.191 304.473 313.422 304.598 C 313.438 304.598 313.453 304.602 313.469 304.602 C 315.922 304.848 318.355 305.215 320.77 305.699 C 320.836 305.711 320.902 305.727 320.969 305.738 C 321.41 315.367 319.105 325.477 314.313 334.691 C 309.516 343.906 302.563 351.594 294.422 356.762 C 277.551 340.711 272.449 320.926 270.957 312.129 C 276.391 309.539 286.816 305.434 299.965 304.438 Z M 432.898 373.691 L 414.313 409.414 L 402.27 380.453 Z M 383.699 370.77 C 377.547 373.73 364.848 378.688 348.781 378.688 C 336.289 378.688 324.125 375.652 312.621 369.668 C 310.648 368.641 308.77 367.566 306.977 366.453 C 315.426 360.066 322.613 351.563 327.75 341.684 C 332.891 331.809 335.73 321.043 336.109 310.465 C 338.086 311.305 340.047 312.223 341.984 313.23 C 374.152 329.965 381.883 359.414 383.699 370.77 Z"/><path d=" M 298.402 322.637 C 298.402 325.426 296.141 327.688 293.352 327.688 C 290.566 327.688 288.305 325.426 288.305 322.637 C 288.305 319.848 290.566 317.59 293.352 317.59 C 296.141 317.59 298.402 319.848 298.402 322.637 Z"/><path d=" M 257.504 255.988 C 257.504 241.789 245.953 230.238 231.754 230.238 C 217.559 230.238 206.004 241.793 206.004 255.988 C 206.004 270.188 217.559 281.738 231.754 281.738 C 245.953 281.738 257.504 270.188 257.504 255.988 Z M 231.754 266.594 C 225.906 266.594 221.152 261.836 221.152 255.988 C 221.152 250.141 225.906 245.387 231.754 245.387 C 237.602 245.387 242.355 250.141 242.355 255.988 C 242.355 261.836 237.602 266.594 231.754 266.594 Z"/><path d=" M 252.961 431.195 C 267.16 431.195 278.711 419.641 278.711 405.445 C 278.711 391.246 267.16 379.695 252.961 379.695 C 238.762 379.695 227.211 391.246 227.211 405.445 C 227.211 419.641 238.762 431.195 252.961 431.195 Z M 252.961 394.84 C 258.809 394.84 263.563 399.598 263.563 405.445 C 263.563 411.289 258.809 416.047 252.961 416.047 C 247.113 416.047 242.359 411.289 242.359 405.445 C 242.355 399.598 247.113 394.84 252.961 394.84 Z"/><path d=" M 454.422 251.949 C 454.422 237.75 442.867 226.199 428.672 226.199 C 414.473 226.199 402.922 237.754 402.922 251.949 C 402.922 266.148 414.473 277.699 428.672 277.699 C 442.867 277.699 454.422 266.148 454.422 251.949 Z M 418.066 251.949 C 418.066 246.102 422.824 241.348 428.668 241.348 C 434.516 241.348 439.273 246.102 439.273 251.949 C 439.273 257.797 434.516 262.555 428.668 262.555 C 422.824 262.555 418.066 257.797 418.066 251.949 Z"/></svg>