<svg version="1.1" width="682.667" height="682.667" viewBox="-31 0 512 512" xmlns="http://www.w3.org/2000/svg" xmlns:xlink="http://www.w3.org/1999/xlink" overflow="hidden"><path d=" M 450 30 L 450 90 L 240 90 L 225 75 L 210 90 L 120 90 L 101.699 75 L 90 90 L 0 90 L 0 30 L 90 30 L 102.301 45 L 120 30 L 150 30 L 165 45 L 180 30 L 210 30 L 225 45 L 240 30 Z" fill="#725D57"/><path d=" M 450 30 L 450 90 L 240 90 L 225 75 L 210 90 L 165 90 L 165 45 L 180 30 L 210 30 L 225 45 L 240 30 Z" fill="#53433F"/><path d=" M 420 452 L 420 512 L 450 512 L 450 482 Z" fill="#3E322E"/><path d=" M 0 482 L 30 452 L 30 512 L 0 512 Z" fill="#53433F"/><path d=" M 330 0 L 390 0 L 390 452 L 330 452 Z" fill="#3E322E"/><path d=" M 90 30 L 120 30 L 120 90 L 90 90 Z" fill="#FDBF00"/><path d=" M 210 30 L 240 30 L 240 90 L 210 90 Z" fill="#FF9100"/><path d=" M 150 30 L 180 30 L 180 165 L 150 165 Z" fill="#FDBF00"/><path d=" M 165 30 L 180 30 L 180 165 L 165 165 Z" fill="#FF9100"/><path d=" M 165 150 C 139.801 150 120 176.398 120 210 C 120 243.602 139.801 270 165 270 C 190.199 270 210 243.602 210 210 C 210 176.398 190.199 150 165 150 Z M 165 240 C 159 240 150 228.301 150 210 C 150 191.699 159 180 165 180 C 171 180 180 191.699 180 210 C 180 228.301 171 240 165 240 Z" fill="#FDBF00"/><path d=" M 210 210 C 210 243.602 190.199 270 165 270 L 165 240 C 171 240 180 228.301 180 210 C 180 191.699 171 180 165 180 L 165 150 C 190.199 150 210 176.398 210 210 Z" fill="#FF9100"/><path d=" M 0 422 L 0 482 L 450 482 L 450 422 Z" fill="#725D57"/><path d=" M 165 422 L 450 422 L 450 482 L 165 482 Z" fill="#53433F"/></svg>