<svg version="1.1" viewBox="0 0 512 512" xmlns="http://www.w3.org/2000/svg" xmlns:xlink="http://www.w3.org/1999/xlink" id="Layer_1" overflow="hidden"><rect x="122.67" y="383.65" width="266" height="71" fill="#FC6E51"/><path d=" M 468 135.988 L 429 92.988 L 350 64.988 L 279 52.988 L 220 52.988 L 169 58.988 L 117 75.988 L 72 101.988 L 42 133.988 L 22 173.988 L 10 229.145 L 29 289.996 L 59 331.996 L 132 388.996 L 217 439.996 L 261 460.996 L 358 405.309 L 427 351.996 L 475 303.996 L 500 255.988 L 500 213.988 Z" fill="#FFCE54"/><path d=" M 329.5 383.496 C 326 381.996 279 374.496 279 374.496 L 228 374.496 L 198 379.496 L 163 404.496 L 203.5 434.996 L 262.5 460.496 L 328.5 422.496 L 352 396.996 C 352 396.996 333 384.996 329.5 383.496 Z" fill="#F5F7FA"/><path d=" M 490.547 148.331 C 477.156 124.925 457.844 104.425 433.141 87.44 C 414.407 74.565 392.907 63.987 369.407 55.94 C 369.173 55.846 368.938 55.768 368.704 55.69 C 334.688 44.113 296.485 37.8 256.376 37.363 C 256.251 37.363 256.126 37.332 256.001 37.332 C 255.907 37.332 255.813 37.348 255.72 37.348 C 254.423 37.332 253.142 37.317 251.845 37.317 C 217.314 37.317 184.548 41.614 154.439 50.114 C 124.016 58.675 97.125 71.285 74.5 87.582 C 63.562 95.457 53.766 104.129 45.125 113.504 C 44.984 113.629 44.875 113.77 44.75 113.895 C 34.969 124.567 26.688 136.145 20.016 148.583 C 6.734 173.315 0 200.925 0 230.645 C 0 259.426 13.75 290.309 40.844 322.465 C 57.672 342.403 79.766 362.996 106.672 383.84 L 106.672 421.34 C 106.672 450.746 130.594 474.684 160 474.684 L 352 474.684 C 381.406 474.684 405.328 450.746 405.328 421.34 L 405.328 383.84 C 432.234 362.996 454.328 342.402 471.156 322.465 C 498.25 290.309 512 259.426 512 230.645 C 512 200.925 504.781 173.238 490.547 148.331 Z M 256 452.09 C 244.453 446.278 212.75 429.746 176.281 406.528 C 178.093 403.622 181.015 399.966 185.687 396.278 C 195.875 388.247 216.343 378.684 255.999 378.684 C 295.858 378.684 317.171 388.372 328.03 396.528 C 332.249 399.684 335.218 402.84 337.28 405.528 C 300.188 429.246 267.719 446.184 256 452.09 Z M 51.312 139.27 L 187.968 370.059 C 184.921 371.528 182.156 373.059 179.609 374.621 L 21.641 220.598 C 23.438 190.145 33.516 162.706 51.312 139.27 Z M 266.672 357.559 L 266.672 58.957 C 297.047 60.113 326.016 64.863 352.438 72.863 L 274.063 357.996 C 271.672 357.84 269.203 357.684 266.672 357.559 Z M 245.328 357.59 C 242.797 357.684 240.328 357.84 237.937 358.028 L 159.062 71.035 C 185.531 63.457 214.671 59.238 245.328 58.707 L 245.328 357.59 Z M 332.812 374.215 C 330.171 372.684 327.312 371.184 324.203 369.746 L 459.797 140.785 C 478.078 163.988 488.453 190.926 490.344 220.613 L 332.812 374.215 Z M 444.781 124.27 L 303.625 362.652 C 301.016 361.996 298.266 361.371 295.422 360.808 L 372.641 79.8 C 390.344 86.659 406.61 95.097 421.047 105.019 C 429.75 111.004 437.672 117.426 444.781 124.27 Z M 86.969 104.895 C 102.125 93.989 119.563 84.864 138.781 77.707 L 216.593 360.871 C 213.749 361.433 211.015 362.059 208.421 362.715 L 66.141 122.441 C 72.453 116.207 79.391 110.363 86.969 104.895 Z M 24.875 253.55 L 163.234 388.464 C 161.343 390.683 159.781 392.839 158.484 394.87 C 152.218 390.651 145.875 386.276 139.546 381.745 C 75.391 335.715 36.312 291.934 24.875 253.55 Z M 160 442.684 C 154.719 442.684 150.344 446.528 149.5 451.559 C 137 447.215 128 435.309 128 421.34 L 128 399.715 C 159.156 421.965 189.953 440.434 213 453.34 L 170.672 453.34 C 170.672 447.465 165.891 442.684 160 442.684 Z M 362.5 451.559 C 361.656 446.528 357.281 442.684 352 442.684 C 346.109 442.684 341.328 447.465 341.328 453.34 L 299 453.34 C 322.047 440.434 352.844 421.965 384 399.715 L 384 421.34 C 384 435.309 375 447.215 362.5 451.559 Z M 372.672 381.59 C 366.797 385.809 360.922 389.871 355.078 393.809 C 353.609 391.809 351.859 389.653 349.781 387.465 L 487.125 253.55 C 475.688 291.871 436.703 335.621 372.672 381.59 Z" fill="#080808"/><g></g><g></g><g></g><g></g><g></g><g></g><g></g><g></g><g></g><g></g><g></g><g></g><g></g><g></g><g></g></svg>