<svg version="1.1" width="200" height="200" viewBox="-0.9 -0.9 1.8 1.8" xmlns="http://www.w3.org/2000/svg" xmlns:xlink="http://www.w3.org/1999/xlink" overflow="hidden"><rect x="-0.9" y="-0.9" width="1.8" height="1.8" fill="#FFFFFF"/><g stroke-width="0.1" stroke-linejoin="round" opacity="1"><path d=" M 0.217866 -0.108933 L 0.657063 -0.504591 L 0.582541 0.29127 L 0.18809 0.796008 Z" stroke="#000000" fill="#000000"/><path d=" M -0.1585 -0.670779 L 0.657063 -0.504591 L 0.217866 -0.108933 L -0.715056 -0.357528 Z" stroke="#000000" fill="#000000"/><path d=" M -0.715056 -0.357528 L 0.217866 -0.108933 L 0.18809 0.796008 L -0.627673 0.482021 Z" stroke="#000000" fill="#000000"/></g><g stroke-width="0" stroke-linejoin="round" stroke-opacity="0.5" opacity="1"><path d=" M 0.243732 -0.102761 L 0.395533 -0.239514 L 0.379273 0.0459846 L 0.233857 0.197348 Z" stroke="#000000" fill="#404040"/><path d=" M 0.420081 -0.263191 L 0.551136 -0.381254 L 0.530228 -0.10927 L 0.40382 0.0223083 Z" stroke="#000000" fill="#FFFFFF"/><path d=" M 0.572485 -0.401857 L 0.686775 -0.504817 L 0.662475 -0.245307 L 0.551577 -0.129873 Z" stroke="#000000" fill="#404040"/><path d=" M 0.231679 0.246775 L 0.377094 0.0954118 L 0.362282 0.355478 L 0.222747 0.518236 Z" stroke="#000000" fill="#404040"/><path d=" M 0.400695 0.0694939 L 0.527103 -0.0620844 L 0.50794 0.187188 L 0.385883 0.32956 Z" stroke="#000000" fill="#404040"/><path d=" M 0.547757 -0.0847758 L 0.658655 -0.20021 L 0.636265 0.0389062 L 0.528594 0.164496 Z" stroke="#000000" fill="#404040"/><path d=" M 0.220763 0.563179 L 0.360299 0.40042 L 0.34675 0.638306 L 0.212645 0.809906 Z" stroke="#000000" fill="#404040"/><path d=" M 0.383021 0.372738 L 0.505078 0.230366 L 0.487452 0.459657 L 0.369472 0.610625 Z" stroke="#000000" fill="#00D800"/><path d=" M 0.525077 0.205994 L 0.632748 0.080404 L 0.61205 0.30144 L 0.507451 0.435285 Z" stroke="#000000" fill="#404040"/><path d=" M -0.160607 -0.701638 L 0.0683111 -0.654991 L -0.0698305 -0.566125 L -0.307863 -0.618757 Z" stroke="#000000" fill="#404040"/><path d=" M 0.111107 -0.645878 L 0.356331 -0.595909 L 0.229067 -0.500385 L -0.0270346 -0.557012 Z" stroke="#000000" fill="#404040"/><path d=" M 0.402348 -0.586109 L 0.665684 -0.532449 L 0.551394 -0.429489 L 0.275085 -0.490585 Z" stroke="#000000" fill="#404040"/><path d=" M -0.334693 -0.602542 L -0.096661 -0.54991 L -0.253485 -0.449025 L -0.501115 -0.508873 Z" stroke="#000000" fill="#404040"/><path d=" M -0.052033 -0.539556 L 0.204069 -0.482929 L 0.0588947 -0.373961 L -0.208857 -0.438672 Z" stroke="#000000" fill="#404040"/><path d=" M 0.252292 -0.471739 L 0.528601 -0.410643 L 0.397546 -0.29258 L 0.107118 -0.362771 Z" stroke="#000000" fill="#EE0000"/><path d=" M -0.531644 -0.490416 L -0.284013 -0.430568 L -0.463584 -0.31505 L -0.721235 -0.383706 Z" stroke="#000000" fill="#404040"/><path d=" M -0.237443 -0.4187 L 0.0303087 -0.353989 L -0.136842 -0.228525 L -0.417013 -0.303182 Z" stroke="#000000" fill="#404040"/><path d=" M 0.0809141 -0.34109 L 0.371342 -0.270899 L 0.21954 -0.134146 L -0.0862369 -0.215626 Z" stroke="#000000" fill="#404040"/><path d=" M -0.736381 -0.349291 L -0.47873 -0.280634 L -0.460792 0.00270321 L -0.707706 -0.0737902 Z" stroke="#000000" fill="#404040"/><path d=" M -0.432397 -0.267265 L -0.152226 -0.192609 L -0.147001 0.09893 L -0.414459 0.0160721 Z" stroke="#000000" fill="#404040"/><path d=" M -0.101857 -0.178076 L 0.20392 -0.0965952 L 0.194046 0.203514 L -0.0966317 0.113463 Z" stroke="#000000" fill="#404040"/><path d=" M -0.703733 -0.0266853 L -0.456819 0.0498081 L -0.440463 0.308163 L -0.677493 0.225417 Z" stroke="#000000" fill="#404040"/><path d=" M -0.412457 0.0644383 L -0.144999 0.147296 L -0.140253 0.412109 L -0.396101 0.322794 Z" stroke="#000000" fill="#404040"/><path d=" M -0.0969588 0.16314 L 0.193719 0.253191 L 0.184787 0.524652 L -0.0922127 0.427952 Z" stroke="#000000" fill="#404040"/><path d=" M -0.673857 0.268532 L -0.436826 0.351279 L -0.421851 0.587816 L -0.649755 0.500096 Z" stroke="#000000" fill="#404040"/><path d=" M -0.394276 0.366907 L -0.138428 0.456223 L -0.134098 0.697824 L -0.379301 0.603445 Z" stroke="#000000" fill="#404040"/><path d=" M -0.0925102 0.473088 L 0.184489 0.569788 L 0.176371 0.816515 L -0.0881801 0.714689 Z" stroke="#000000" fill="#404040"/></g></svg>