<svg version="1.1" width="336" height="336" viewBox="0 0 252 252" xmlns="http://www.w3.org/2000/svg" xmlns:xlink="http://www.w3.org/1999/xlink" overflow="hidden"><g id="surface1"><path d=" M 35.1602 122.203 C 35.0469 123.027 34.9883 123.609 34.9766 123.961 C 34.9648 124.289 34.9844 124.867 35.0391 125.688 C 34.332 125.992 33.6133 126.32 32.8594 126.684 C 32.1094 127.047 31.2148 127.473 30.1719 127.98 C 30.7734 128.391 31.5117 128.875 32.375 129.441 C 33.2422 130.008 34.0703 130.547 34.8516 131.047 C 34.7539 131.52 34.6992 131.84 34.6953 132.012 C 34.6797 132.391 34.7109 132.715 34.7813 132.984 L 34.6563 132.98 L 32.1484 131.051 C 31.7969 130.785 31.4453 130.52 31.0977 130.254 C 30.7422 129.992 30.3945 129.723 30.043 129.457 C 29.6914 129.188 29.3398 128.926 28.9922 128.66 L 28.5234 128.918 C 27.9297 129.219 27.3242 129.527 26.707 129.844 C 26.0898 130.16 25.4961 130.465 24.9336 130.754 C 24.3672 131.039 23.7734 131.332 23.1445 131.637 C 22.5234 131.938 21.9102 132.223 21.3086 132.484 C 21.3242 132.293 21.3516 132.012 21.3867 131.645 C 21.4258 131.277 21.4531 130.992 21.4609 130.801 C 21.4648 130.605 21.4609 130.316 21.4453 129.938 C 21.4375 129.559 21.4297 129.273 21.4258 129.098 C 21.9922 128.852 22.7109 128.512 23.5859 128.094 C 24.457 127.668 25.4219 127.203 26.4844 126.695 L 23.7305 124.785 L 22.2734 123.914 C 22.1563 123.848 22.043 123.773 21.9258 123.688 C 21.8086 123.605 21.707 123.539 21.6211 123.496 C 21.6992 122.953 21.7422 122.664 21.7461 122.621 C 21.7578 122.258 21.7383 121.93 21.6875 121.621 C 22.2148 121.996 23.1094 122.645 24.3633 123.559 C 25.6172 124.477 26.7461 125.281 27.75 125.984 Z M 32.9219 140.371 C 32.5 140.391 31.8867 140.406 31.082 140.43 C 30.2773 140.449 29.6094 140.477 29.082 140.512 C 28.5117 140.551 27.8086 140.621 26.9648 140.719 C 26.1172 140.813 25.4648 140.879 25.0078 140.922 C 24.6797 140.957 24.1953 141.016 23.5547 141.094 C 22.9102 141.18 22.4297 141.238 22.1211 141.273 C 22.1172 141.105 22.1133 140.848 22.1133 140.492 C 22.1133 140.145 22.1133 139.883 22.1016 139.723 C 22.0625 139.133 21.9883 138.555 21.8867 137.984 C 24.0078 138.02 26.4219 137.938 29.1328 137.75 L 30.1836 137.676 C 30.6055 137.648 31.0664 137.609 31.5586 137.563 C 32.0469 137.516 32.4297 137.484 32.6914 137.465 C 33.8438 137.344 34.7227 137.23 35.3438 137.133 C 35.3164 137.91 35.3164 138.445 35.3359 138.738 C 35.3555 139.035 35.4336 139.566 35.5703 140.332 C 34.3945 140.332 33.5117 140.348 32.9219 140.371 Z M 35.1445 146.957 C 35.0742 146.813 35.0352 146.688 35.0156 146.586 C 34.957 146.246 35.0273 145.898 35.2305 145.531 C 35.4336 145.203 35.7578 145.004 36.2031 144.922 C 36.8789 144.805 37.375 144.984 37.6836 145.473 C 37.8242 145.695 37.9219 145.961 37.9727 146.25 C 38.082 146.859 37.9219 147.348 37.4922 147.719 C 37.1914 147.934 36.8477 148.078 36.4648 148.145 C 35.457 148.324 34.5234 148.156 33.6641 147.652 C 33.0039 147.242 32.5352 146.676 32.2656 145.957 L 33.0664 145.816 C 33.2109 146.168 33.5313 146.48 34.0391 146.758 C 34.3789 146.961 34.75 147.027 35.1445 146.957 Z M 24.6094 155.168 L 28.2578 155.508 C 32.4375 155.918 36.0508 156.18 39.0898 156.289 C 39.1055 156.355 39.1211 156.438 39.1367 156.527 C 39.1484 156.621 39.1641 156.711 39.1836 156.805 C 39.1992 156.902 39.2188 156.98 39.2383 157.043 C 39.2734 157.141 39.3203 157.254 39.3789 157.367 C 39.4414 157.484 39.5 157.598 39.5469 157.703 L 39.2813 157.949 C 35.7109 160.816 32.1719 163.773 28.6523 166.82 L 28.4922 166.992 L 28.3164 167.055 C 28.2656 166.867 28.1914 166.594 28.1055 166.234 C 28.0117 165.879 27.9414 165.605 27.8789 165.418 C 27.7109 164.895 27.5117 164.383 27.2852 163.887 C 28.8242 162.793 29.9688 161.941 30.6953 161.34 C 30.6211 161.113 30.5195 160.762 30.3906 160.297 C 30.2578 159.832 30.1563 159.48 30.082 159.246 C 29.9219 158.766 29.6602 158.016 29.2852 156.996 L 28.9961 156.992 C 28.3438 156.973 27.668 156.953 26.9648 156.934 C 26.2695 156.914 25.625 156.93 25.0391 156.973 C 25.0039 156.668 24.9375 156.363 24.8359 156.051 C 24.7422 155.77 24.6211 155.492 24.4688 155.215 Z M 30.5703 157.113 L 31.6875 160.547 C 32.6953 159.77 33.9727 158.73 35.5156 157.449 C 33.7734 157.277 32.1875 157.172 30.7578 157.121 Z M 31.2734 173.02 C 31.1914 172.758 31.0938 172.516 30.9883 172.293 C 30.8594 172.023 30.6953 171.766 30.5078 171.52 C 31.832 171.023 33.1953 170.465 34.5859 169.848 C 35.9805 169.227 37.4805 168.523 39.082 167.742 C 39.3984 167.586 39.8711 167.352 40.5039 167.031 C 41.125 166.715 41.6055 166.477 41.9297 166.32 C 42.293 166.141 42.5664 165.996 42.7617 165.879 C 42.875 166.301 42.9688 166.578 43.0352 166.723 C 43.1133 166.879 43.2852 167.137 43.543 167.48 C 43.1133 168.563 42.7227 169.566 42.3594 170.496 C 42.0039 171.43 41.6094 172.469 41.1641 173.613 C 40.7227 174.762 40.3477 175.742 40.0273 176.555 C 39.707 177.367 39.3438 178.266 38.9336 179.246 L 42.8242 177.348 L 44.8125 176.379 C 45.1016 176.238 45.4688 176.039 45.8984 175.789 C 46.332 175.539 46.6563 175.352 46.8789 175.234 L 47.2227 175.027 C 47.3398 175.449 47.4297 175.73 47.5 175.871 C 47.5586 175.992 47.6406 176.125 47.7422 176.277 C 47.8438 176.43 47.9258 176.551 47.9844 176.648 C 47.5195 176.828 47.1875 176.969 46.9727 177.074 C 46.082 177.422 45.3125 177.734 44.6719 178.023 C 44.293 178.195 43.9844 178.336 43.7539 178.438 C 43.5117 178.543 43.2227 178.664 42.8945 178.809 C 42.5625 178.953 42.2539 179.094 41.9688 179.227 C 41.6875 179.352 41.457 179.461 41.2656 179.555 L 39.4727 180.43 L 35.7422 182.246 C 35.7422 182.199 35.7188 182.133 35.6758 182.043 C 35.6367 181.922 35.5664 181.754 35.4609 181.539 C 35.3047 181.215 35.1641 180.973 35.0391 180.809 C 36.5234 177.41 37.7461 174.414 38.7148 171.824 L 39.7969 168.934 C 38.6914 169.426 37.8906 169.793 37.4063 170.027 L 35.7695 170.828 C 33.75 171.813 32.2656 172.59 31.3047 173.148 Z M 40.0039 192.613 C 40.7344 193.238 41.5234 193.262 42.3711 192.691 C 43.1836 192.152 44.0703 191.512 45.0469 190.75 C 45.3594 190.504 45.8281 190.141 46.4531 189.668 C 47.0742 189.195 47.5352 188.84 47.8281 188.609 C 48.0625 188.43 48.4102 188.164 48.8828 187.809 C 49.3594 187.449 49.7109 187.18 49.9531 186.992 C 50.1289 186.852 50.3828 186.652 50.7148 186.379 C 51.043 186.105 51.2969 185.902 51.4648 185.77 C 51.6641 185.59 51.9805 185.32 52.3984 184.969 C 52.8164 184.613 53.125 184.348 53.3242 184.164 C 53.7617 184.859 54.0664 185.316 54.2344 185.527 C 54.4531 185.809 54.8203 186.215 55.3359 186.738 C 54.3906 187.379 53.6914 187.863 53.2383 188.191 C 52.8125 188.5 52.1719 188.984 51.332 189.645 C 51.1875 189.727 50.9922 189.863 50.7383 190.063 C 50.3359 190.375 49.7773 190.824 49.0664 191.414 C 48.3438 192.004 47.7227 192.5 47.1953 192.914 L 46.2461 193.656 C 45.2188 194.457 44.3203 194.906 43.5547 194.992 C 42.0547 195.18 40.6953 194.652 39.4727 193.41 Z M 58.7773 194.609 C 58.4648 194.891 57.9961 195.289 57.3867 195.816 C 56.7734 196.336 56.2695 196.777 55.8828 197.141 C 55.4648 197.527 54.9609 198.023 54.3672 198.633 C 53.7656 199.238 53.3008 199.703 52.9766 200.02 C 52.7422 200.254 52.4023 200.605 51.9531 201.07 C 51.5078 201.539 51.1719 201.891 50.9492 202.113 C 50.8438 201.98 50.6797 201.785 50.457 201.508 C 50.2344 201.238 50.0703 201.035 49.9609 200.918 C 49.5586 200.488 49.1406 200.082 48.6992 199.699 C 50.3672 198.391 52.1953 196.813 54.1836 194.961 L 54.9531 194.242 C 55.2656 193.953 55.5938 193.633 55.9492 193.289 C 56.2969 192.941 56.5781 192.68 56.7695 192.5 C 57.5859 191.684 58.2031 191.035 58.625 190.57 C 59.0898 191.191 59.4258 191.609 59.625 191.824 C 59.8281 192.039 60.2227 192.406 60.8086 192.914 C 59.8984 193.656 59.2188 194.227 58.7773 194.609 Z M 54.6797 205.918 L 57.8984 204.156 C 61.5898 202.16 64.7305 200.355 67.3125 198.75 C 67.3672 198.797 67.4258 198.852 67.4883 198.922 C 67.5469 198.992 67.6133 199.059 67.6797 199.125 C 67.7461 199.195 67.8086 199.25 67.8594 199.289 C 67.9414 199.355 68.043 199.422 68.1563 199.48 C 68.2734 199.547 68.3828 199.602 68.4844 199.66 L 68.4023 200.02 C 67.0469 204.391 65.7617 208.82 64.5508 213.316 L 64.5156 213.551 L 64.3984 213.699 C 64.2539 213.57 64.043 213.387 63.7656 213.141 C 63.4922 212.891 63.2773 212.707 63.1211 212.586 C 62.6914 212.246 62.2383 211.934 61.7773 211.648 C 62.4414 209.879 62.9102 208.535 63.1797 207.629 C 62.9883 207.48 62.707 207.25 62.3438 206.938 C 61.9727 206.625 61.6914 206.391 61.4961 206.242 C 61.0977 205.926 60.4609 205.453 59.5781 204.816 L 59.3398 204.973 C 58.7852 205.324 58.2148 205.688 57.6211 206.063 C 57.0313 206.438 56.5117 206.809 56.0469 207.172 C 55.8516 206.941 55.6211 206.727 55.3633 206.52 C 55.1289 206.336 54.8711 206.176 54.5898 206.035 Z M 60.7109 204.199 L 63.5547 206.418 C 63.957 205.207 64.4375 203.637 65 201.711 C 63.457 202.539 62.0859 203.34 60.8711 204.098 Z M 79.4063 221.539 C 77.5313 221.848 75.6602 221.441 73.8047 220.328 C 71.8633 219.164 70.668 217.68 70.2188 215.875 C 69.7539 214.145 70.0703 212.363 71.1641 210.543 C 72.2852 208.676 73.8555 207.57 75.8867 207.223 C 77.7695 206.941 79.6328 207.352 81.4648 208.457 C 83.0195 209.387 84.0938 210.551 84.6992 211.957 C 85.1992 213.125 85.3672 214.219 85.207 215.234 C 85.0586 216.262 84.6953 217.258 84.1172 218.223 C 83.5977 219.086 82.9258 219.809 82.1133 220.391 C 81.2891 220.977 80.3867 221.355 79.4063 221.539 Z M 78.6836 219.262 C 79.7188 218.645 80.6602 217.633 81.5078 216.223 C 81.9648 215.453 82.293 214.633 82.4766 213.758 C 82.6602 212.883 82.6211 212.059 82.3516 211.273 C 82.0898 210.492 81.5625 209.859 80.7617 209.379 C 80.0234 208.938 79.2773 208.746 78.5234 208.813 C 77.7734 208.871 77.0977 209.098 76.4922 209.496 C 75.5273 210.125 74.5859 211.195 73.6719 212.719 C 73.2031 213.5 72.8828 214.305 72.7188 215.137 C 72.5547 215.969 72.6094 216.762 72.8828 217.512 C 73.1602 218.262 73.6953 218.879 74.4922 219.359 C 75.7773 220.129 77.1758 220.098 78.6836 219.262 Z M 94.668 217.762 C 94.4609 218.273 94.1445 219.031 93.7148 220.031 C 93.2891 221.035 92.9727 221.789 92.7734 222.293 C 92.6719 222.547 92.5195 222.934 92.3203 223.449 C 92.1211 223.969 91.9688 224.363 91.8555 224.637 C 91.7305 224.949 91.5508 225.441 91.3086 226.113 C 91.0703 226.785 90.8867 227.277 90.7617 227.594 C 90.625 227.527 90.3945 227.414 90.0664 227.258 C 89.7305 227.094 89.4805 226.977 89.3047 226.906 C 89.1484 226.844 88.8984 226.758 88.5625 226.648 C 88.2227 226.535 87.9648 226.449 87.7891 226.391 C 87.918 226.102 88.1094 225.676 88.375 225.113 C 88.6406 224.551 88.8281 224.125 88.9414 223.852 C 90.0781 221.266 90.9492 219.211 91.5664 217.688 C 91.7852 217.148 92.0781 216.363 92.4531 215.336 C 92.0977 215.191 91.5547 214.992 90.8203 214.742 C 90.1133 214.523 89.4961 214.359 88.9727 214.223 C 89.0977 214.078 89.2305 213.836 89.3633 213.5 C 89.4844 213.199 89.5625 212.984 89.5977 212.84 C 89.5977 212.82 89.6016 212.777 89.6133 212.719 C 89.6289 212.656 89.6328 212.617 89.6328 212.594 C 90.2188 212.875 90.6758 213.074 90.9883 213.203 C 92.293 213.777 93.3867 214.242 94.2773 214.602 L 96.1641 215.363 C 96.4766 215.488 96.9453 215.656 97.5547 215.863 C 98.168 216.063 98.6602 216.242 99.043 216.398 C 98.8828 216.625 98.7617 216.859 98.668 217.098 C 98.5508 217.387 98.4531 217.695 98.3867 218.027 C 97.3711 217.418 96.3242 216.898 95.2539 216.469 Z M 111 231.23 C 109.34 232.164 107.445 232.422 105.316 232.012 C 103.098 231.578 101.469 230.594 100.426 229.051 C 99.3984 227.582 99.082 225.801 99.4922 223.715 C 99.9063 221.578 101.004 220.004 102.793 218.984 C 104.465 218.074 106.355 217.824 108.457 218.23 C 110.238 218.574 111.645 219.305 112.691 220.418 C 113.563 221.344 114.094 222.313 114.289 223.32 C 114.504 224.34 114.504 225.398 114.289 226.504 C 114.094 227.492 113.715 228.402 113.145 229.227 C 112.574 230.055 111.855 230.723 111 231.23 Z M 109.539 229.336 C 110.301 228.406 110.84 227.133 111.152 225.516 C 111.32 224.637 111.348 223.75 111.219 222.867 C 111.094 221.984 110.773 221.223 110.254 220.574 C 109.742 219.934 109.027 219.52 108.113 219.344 C 107.266 219.176 106.5 219.254 105.813 219.574 C 105.133 219.887 104.57 220.332 104.141 220.91 C 103.449 221.832 102.93 223.16 102.594 224.906 C 102.418 225.797 102.395 226.664 102.523 227.5 C 102.652 228.34 102.977 229.063 103.488 229.68 C 104.004 230.289 104.719 230.688 105.633 230.863 C 107.105 231.148 108.406 230.641 109.539 229.336 Z M 120.324 233.535 C 120.055 233.488 119.793 233.457 119.551 233.449 C 119.25 233.438 118.941 233.457 118.641 233.508 C 118.824 232.105 118.969 230.641 119.078 229.121 C 119.184 227.598 119.266 225.945 119.328 224.164 C 119.34 223.809 119.355 223.285 119.371 222.578 C 119.383 221.879 119.395 221.344 119.41 220.98 C 119.422 220.582 119.422 220.266 119.414 220.043 C 119.836 220.141 120.129 220.188 120.285 220.195 C 120.461 220.199 120.766 220.172 121.195 220.105 C 121.945 220.988 122.652 221.809 123.301 222.566 C 123.953 223.316 124.691 224.152 125.492 225.082 C 126.297 226.008 126.988 226.801 127.555 227.469 C 128.125 228.129 128.746 228.875 129.418 229.699 L 129.57 225.371 L 129.645 223.16 C 129.656 222.836 129.652 222.422 129.633 221.926 C 129.617 221.426 129.602 221.051 129.602 220.801 L 129.586 220.398 C 130.012 220.496 130.305 220.547 130.461 220.551 C 130.594 220.555 130.746 220.547 130.93 220.527 C 131.113 220.508 131.262 220.492 131.371 220.488 C 131.313 220.98 131.281 221.344 131.273 221.578 C 131.164 222.531 131.078 223.355 131.031 224.059 C 131.008 224.473 130.988 224.809 130.969 225.059 C 130.945 225.32 130.918 225.633 130.891 225.992 C 130.863 226.355 130.84 226.691 130.824 227.004 C 130.805 227.313 130.793 227.57 130.785 227.781 L 130.715 229.777 L 130.57 233.926 C 130.527 233.902 130.457 233.891 130.359 233.887 C 130.23 233.863 130.051 233.848 129.813 233.836 C 129.449 233.824 129.172 233.836 128.969 233.871 C 126.664 230.965 124.594 228.477 122.762 226.406 L 120.715 224.09 C 120.633 225.301 120.582 226.176 120.563 226.719 L 120.5 228.539 C 120.422 230.781 120.406 232.457 120.453 233.57 Z M 146.262 220.98 C 145.129 219.883 143.734 219.496 142.086 219.816 C 140.5 220.125 139.363 221.055 138.672 222.602 C 138.168 223.805 138.07 225.199 138.383 226.801 C 138.539 227.613 138.844 228.383 139.289 229.121 C 139.734 229.852 140.285 230.395 140.934 230.75 C 141.34 230.965 141.676 231.102 141.934 231.156 C 142.195 231.219 142.578 231.262 143.078 231.289 C 143.531 231.285 143.879 231.258 144.113 231.211 C 144.461 231.145 144.891 231.012 145.395 230.809 C 145.473 230.793 145.613 230.742 145.801 230.648 C 145.992 230.559 146.098 230.492 146.129 230.449 C 146.137 230.438 146.141 230.402 146.141 230.348 C 146.137 230.289 146.141 230.258 146.152 230.254 L 145.867 228.773 C 145.723 228.043 145.488 227.051 145.156 225.793 C 145.648 225.758 146.141 225.695 146.629 225.598 C 147.164 225.496 147.672 225.367 148.16 225.211 C 148.238 226.121 148.395 227.18 148.629 228.391 C 148.727 228.883 148.887 229.605 149.109 230.551 C 147.203 231.496 145.57 232.102 144.223 232.367 C 143.184 232.566 142.172 232.625 141.191 232.543 C 140.207 232.461 139.305 232.219 138.477 231.816 C 137.652 231.414 136.957 230.84 136.387 230.098 C 135.82 229.355 135.434 228.445 135.223 227.352 C 134.996 226.199 135 225.129 135.227 224.148 C 135.457 223.16 135.875 222.301 136.492 221.551 C 137.102 220.801 137.863 220.18 138.773 219.691 C 139.688 219.199 140.703 218.852 141.82 218.633 C 143.547 218.297 145.164 218.383 146.684 218.887 C 146.574 219.777 146.527 220.453 146.531 220.926 Z M 167.504 213.688 C 167.582 213.883 167.695 214.184 167.852 214.594 C 168.004 215 168.125 215.309 168.203 215.5 C 168.293 215.727 168.418 216.063 168.582 216.52 C 168.746 216.977 168.871 217.32 168.961 217.539 C 169.492 218.965 169.809 220.102 169.914 220.949 C 170.016 221.797 169.762 222.684 169.152 223.609 C 168.52 224.605 167.496 225.391 166.082 225.961 C 165.293 226.281 164.504 226.488 163.715 226.586 C 162.93 226.688 162.176 226.613 161.453 226.375 C 160.73 226.141 160.109 225.684 159.59 225.02 C 159.438 224.84 159.25 224.539 159.031 224.105 C 158.887 223.855 158.699 223.449 158.465 222.867 C 158.313 222.492 158.148 222.09 157.957 221.656 C 157.773 221.23 157.629 220.887 157.523 220.629 L 156.594 218.324 C 156.5 218.102 156.355 217.754 156.16 217.293 C 155.957 216.824 155.813 216.477 155.723 216.258 C 155.691 216.176 155.637 216.051 155.559 215.879 C 155.477 215.711 155.418 215.574 155.379 215.48 C 156.129 215.266 156.645 215.102 156.941 214.98 C 157.242 214.859 157.715 214.625 158.359 214.277 C 158.395 214.371 158.438 214.523 158.5 214.734 C 158.559 214.945 158.602 215.102 158.637 215.215 C 159.191 216.84 159.719 218.281 160.227 219.539 C 160.898 221.199 161.398 222.336 161.727 222.949 C 162.059 223.441 162.344 223.809 162.574 224.043 C 162.813 224.281 163.141 224.477 163.551 224.633 C 164.316 224.934 165.121 224.914 165.957 224.574 C 166.801 224.234 167.402 223.789 167.77 223.242 C 168.137 222.699 168.324 221.969 168.332 221.063 C 168.316 220.434 167.91 219.129 167.109 217.148 C 166.117 214.699 165.328 212.883 164.738 211.699 C 165.211 211.598 165.531 211.512 165.703 211.438 C 165.887 211.367 166.188 211.203 166.594 210.953 C 166.625 211.09 166.68 211.281 166.754 211.516 C 166.836 211.758 166.914 212.008 167.008 212.27 C 167.094 212.535 167.176 212.758 167.246 212.941 C 167.309 213.129 167.395 213.379 167.504 213.688 Z M 178.602 219.551 C 178.352 219.664 178.121 219.789 177.918 219.922 C 177.664 220.086 177.426 220.277 177.207 220.492 C 176.551 219.238 175.832 217.953 175.051 216.648 C 174.262 215.34 173.379 213.938 172.41 212.441 C 172.219 212.145 171.926 211.707 171.535 211.121 C 171.145 210.539 170.848 210.09 170.652 209.793 C 170.43 209.453 170.254 209.195 170.117 209.02 C 170.52 208.855 170.785 208.73 170.918 208.645 C 171.066 208.547 171.297 208.348 171.609 208.047 C 172.734 208.344 173.781 208.609 174.746 208.855 C 175.715 209.09 176.797 209.359 177.984 209.66 C 179.176 209.957 180.195 210.207 181.043 210.43 C 181.887 210.648 182.824 210.898 183.852 211.191 L 181.492 207.559 L 180.285 205.703 C 180.109 205.43 179.867 205.094 179.566 204.699 C 179.266 204.297 179.043 203.996 178.898 203.793 L 178.652 203.477 C 179.059 203.309 179.328 203.184 179.457 203.098 C 179.566 203.027 179.688 202.93 179.828 202.809 C 179.969 202.688 180.078 202.59 180.168 202.52 C 180.402 202.961 180.582 203.277 180.711 203.477 C 181.168 204.316 181.574 205.039 181.934 205.641 C 182.152 205.996 182.332 206.285 182.461 206.5 C 182.59 206.727 182.75 207 182.93 207.309 C 183.117 207.621 183.293 207.91 183.457 208.176 C 183.617 208.441 183.754 208.66 183.871 208.836 L 184.957 210.508 L 187.219 213.992 C 187.172 213.996 187.105 214.023 187.023 214.082 C 186.906 214.133 186.746 214.223 186.547 214.352 C 186.246 214.551 186.023 214.719 185.875 214.863 C 182.32 213.805 179.199 212.953 176.508 212.309 L 173.504 211.586 C 174.129 212.625 174.594 213.375 174.887 213.824 L 175.879 215.355 C 177.102 217.238 178.051 218.617 178.727 219.504 Z M 187.605 199.867 C 187.883 200.191 188.273 200.664 188.793 201.285 C 189.297 201.906 189.73 202.414 190.082 202.809 C 190.465 203.234 190.953 203.746 191.551 204.352 C 192.145 204.961 192.602 205.434 192.914 205.766 C 193.145 206.008 193.488 206.352 193.945 206.805 C 194.41 207.258 194.754 207.602 194.969 207.828 C 194.84 207.934 194.637 208.094 194.359 208.313 C 194.082 208.523 193.879 208.688 193.758 208.797 C 193.324 209.191 192.906 209.605 192.52 210.035 C 191.242 208.344 189.695 206.492 187.875 204.473 L 187.172 203.688 C 186.887 203.371 186.574 203.035 186.238 202.676 C 185.898 202.32 185.637 202.035 185.461 201.84 C 184.66 201.012 184.023 200.383 183.563 199.953 C 184.191 199.5 184.617 199.168 184.836 198.973 C 185.055 198.773 185.43 198.387 185.949 197.809 C 186.672 198.734 187.227 199.422 187.605 199.867 Z M 203.836 199.191 C 203.77 199.25 203.66 199.344 203.508 199.473 C 203.355 199.598 203.242 199.699 203.168 199.777 C 202.957 200 202.781 200.238 202.633 200.48 C 200.59 199.613 198.41 198.719 196.102 197.805 C 193.789 196.891 191.48 196.004 189.18 195.141 C 189.797 194.602 190.219 194.207 190.449 193.957 C 190.68 193.711 191.043 193.262 191.535 192.613 C 192.484 193.086 193.449 193.531 194.426 193.953 C 195.402 194.371 196.527 194.84 197.813 195.367 C 199.094 195.891 200.195 196.344 201.109 196.73 C 199.453 193.098 197.898 189.969 196.453 187.34 C 196.5 187.313 196.539 187.285 196.566 187.266 C 196.59 187.254 196.613 187.234 196.637 187.223 C 197.121 186.707 197.461 186.313 197.672 186.035 C 198.215 187.25 198.883 188.73 199.668 190.469 C 200.449 192.207 201.188 193.801 201.871 195.25 C 202.566 196.699 203.215 198.016 203.836 199.191 Z M 199.113 183.316 C 199.324 183.035 199.625 182.637 200.027 182.129 C 200.426 181.617 200.754 181.184 200.996 180.836 C 201.379 180.293 201.82 179.633 202.316 178.871 C 202.82 178.109 203.207 177.527 203.477 177.129 C 203.738 177.332 204.125 177.617 204.656 177.988 C 204.719 178.008 204.789 178.043 204.875 178.102 C 203.637 179.586 202.711 180.77 202.098 181.645 C 202.465 181.93 203.023 182.332 203.77 182.855 C 203.969 182.996 204.258 183.203 204.652 183.492 C 205.043 183.777 205.336 183.988 205.531 184.125 L 207.988 180.363 C 208.27 180.664 208.496 180.871 208.664 180.984 C 208.809 181.086 209.039 181.199 209.352 181.32 C 208.52 182.336 207.801 183.27 207.207 184.117 C 207.152 184.191 207.059 184.324 206.926 184.496 C 206.793 184.668 206.695 184.805 206.633 184.895 L 208.691 186.34 L 210.719 187.758 C 211.418 186.766 212.215 185.469 213.117 183.875 C 213.367 184.078 213.758 184.359 214.285 184.734 C 214.348 184.75 214.418 184.789 214.504 184.848 C 214.27 185.16 213.914 185.637 213.43 186.266 C 212.949 186.887 212.598 187.367 212.371 187.688 C 212.219 187.902 212.004 188.23 211.715 188.664 C 211.43 189.109 211.219 189.426 211.078 189.633 C 210.867 189.93 210.551 190.422 210.121 191.105 C 210.027 191.027 209.879 190.902 209.672 190.75 C 209.473 190.598 209.328 190.484 209.238 190.402 C 208.938 190.18 208.453 189.828 207.781 189.324 C 207.117 188.828 206.609 188.461 206.262 188.219 C 206 188.035 205.598 187.75 205.059 187.359 C 204.52 186.969 204.113 186.68 203.844 186.488 L 201.957 185.168 C 201.684 184.973 201.246 184.688 200.652 184.316 C 200.063 183.945 199.625 183.664 199.336 183.473 Z M 214.633 174.699 C 214.012 174.734 213.625 174.762 213.484 174.781 C 213.391 174.789 213.328 174.816 213.305 174.867 C 213.277 174.922 213.301 174.969 213.375 175 C 213.719 175.168 214.242 175.414 214.953 175.738 C 215.66 176.063 216.188 176.305 216.531 176.473 L 217.02 176.711 C 217.504 176.926 218.141 177.18 218.945 177.477 C 218.855 177.637 218.723 177.871 218.543 178.18 C 218.367 178.484 218.234 178.719 218.156 178.879 C 218.082 179.031 217.98 179.281 217.84 179.621 C 217.707 179.957 217.602 180.203 217.535 180.359 L 217.227 180.172 C 217.09 180.102 216.945 180.023 216.797 179.941 C 216.652 179.859 216.531 179.789 216.453 179.746 C 216.371 179.695 216.254 179.629 216.09 179.523 C 215.359 179.098 214.203 178.504 212.645 177.742 C 212.293 177.57 211.758 177.313 211.035 176.973 C 210.309 176.629 209.773 176.375 209.418 176.203 C 208.59 175.797 207.262 175.195 205.445 174.395 L 206.09 173.195 C 206.227 172.918 206.426 172.492 206.68 171.922 C 206.938 171.352 207.141 170.922 207.277 170.637 C 207.969 169.223 208.551 168.328 209.031 167.957 C 210.133 167.207 211.25 167.109 212.375 167.66 C 213.215 168.07 213.789 168.652 214.102 169.41 C 214.41 170.176 214.445 171.023 214.219 171.961 C 215.254 171.906 217.422 171.68 220.723 171.258 L 222.039 171.133 C 221.945 171.297 221.801 171.559 221.602 171.914 C 221.402 172.262 221.258 172.527 221.172 172.695 C 220.918 173.219 220.684 173.77 220.473 174.34 L 215.855 174.613 Z M 209.859 173.219 L 211.25 173.898 C 211.813 174.172 212.234 174.391 212.52 174.551 C 212.992 173.586 213.121 172.781 212.918 172.145 C 212.715 171.5 212.188 170.973 211.332 170.555 C 210.984 170.387 210.672 170.27 210.395 170.199 C 210.012 170.105 209.688 170.094 209.414 170.172 C 209.148 170.242 208.922 170.379 208.738 170.57 C 208.555 170.77 208.383 171.02 208.227 171.316 C 208.066 171.621 207.914 171.914 207.762 172.199 Z M 215.434 157.375 C 214.238 157.434 213.477 157.98 213.141 159.02 C 212.941 159.641 212.941 160.191 213.148 160.676 C 213.363 161.152 213.738 161.477 214.262 161.648 C 214.703 161.789 215.148 161.719 215.586 161.445 C 216.031 161.164 216.598 160.684 217.293 159.996 C 217.988 159.313 218.582 158.785 219.07 158.414 C 219.559 158.039 220.074 157.828 220.621 157.785 C 221.129 157.715 221.723 157.793 222.387 158.012 C 222.961 158.195 223.5 158.531 224.008 159.008 C 224.66 159.637 225.047 160.496 225.176 161.59 C 225.281 162.391 225.172 163.289 224.848 164.285 C 224.469 165.449 223.883 166.371 223.086 167.055 C 222.238 166.477 221.512 166.043 220.895 165.742 L 221.008 165.391 C 221.684 165.453 222.273 165.305 222.773 164.957 C 223.273 164.609 223.633 164.105 223.844 163.453 C 224.043 162.836 224.051 162.266 223.859 161.738 C 223.672 161.203 223.277 160.844 222.684 160.648 C 222.156 160.477 221.602 160.551 221.016 160.879 C 220.406 161.336 219.785 161.91 219.152 162.598 C 218.957 162.789 218.699 163.012 218.375 163.273 C 218.051 163.535 217.84 163.707 217.742 163.793 C 217.34 164.121 216.844 164.309 216.25 164.352 C 215.656 164.398 215.078 164.332 214.504 164.148 C 213.293 163.754 212.465 162.957 212.027 161.773 C 211.816 161.23 211.715 160.719 211.727 160.23 C 211.742 159.75 211.844 159.195 212.051 158.57 C 212.398 157.488 212.953 156.633 213.703 156.012 C 213.742 156.008 213.793 155.977 213.871 155.91 C 214.391 156.301 214.941 156.691 215.527 157.086 Z" stroke="none" fill="#C92B2F" fill-rule="nonzero" fill-opacity="1"/><path d=" M 217.785 148.32 C 218.195 148.426 218.785 148.586 219.566 148.801 C 220.34 149.02 220.984 149.188 221.5 149.309 C 222.059 149.438 222.75 149.578 223.586 149.73 C 224.426 149.891 225.07 150.016 225.516 150.105 C 225.84 150.172 226.32 150.258 226.957 150.367 C 227.598 150.473 228.074 150.559 228.383 150.617 C 228.336 150.777 228.262 151.027 228.16 151.363 C 228.055 151.699 227.98 151.945 227.945 152.102 C 227.813 152.68 227.715 153.254 227.641 153.832 C 225.625 153.18 223.293 152.547 220.648 151.934 L 219.617 151.699 C 219.203 151.602 218.758 151.504 218.273 151.402 C 217.789 151.309 217.414 151.227 217.16 151.168 C 216.023 150.945 215.148 150.797 214.523 150.711 C 214.777 149.977 214.934 149.461 215 149.176 C 215.066 148.887 215.148 148.355 215.242 147.582 C 216.367 147.926 217.219 148.172 217.785 148.32 Z M 219.676 137.883 C 220.23 137.938 221.043 138.035 222.125 138.172 C 223.207 138.305 224.02 138.398 224.555 138.457 C 224.828 138.484 225.238 138.523 225.793 138.57 C 226.348 138.621 226.77 138.66 227.059 138.688 C 227.398 138.727 227.922 138.766 228.633 138.809 C 229.344 138.855 229.867 138.895 230.203 138.926 C 230.18 139.078 230.137 139.332 230.074 139.691 C 230.008 140.059 229.965 140.332 229.945 140.516 C 229.926 140.684 229.914 140.949 229.906 141.301 C 229.891 141.66 229.879 141.93 229.867 142.117 C 229.555 142.074 229.094 142.004 228.48 141.906 C 227.867 141.805 227.406 141.742 227.109 141.711 C 224.313 141.328 222.094 141.059 220.461 140.887 C 219.887 140.824 219.051 140.758 217.953 140.68 C 217.914 141.063 217.875 141.641 217.832 142.41 C 217.824 143.152 217.832 143.793 217.848 144.332 C 217.672 144.254 217.402 144.195 217.043 144.156 C 216.719 144.121 216.492 144.109 216.344 144.113 C 216.324 144.121 216.281 144.129 216.223 144.133 C 216.16 144.133 216.117 144.141 216.098 144.148 C 216.207 143.504 216.273 143.012 216.309 142.676 C 216.504 141.266 216.648 140.082 216.746 139.129 L 216.957 137.105 C 216.996 136.77 217.027 136.273 217.055 135.633 C 217.082 134.988 217.113 134.465 217.16 134.055 C 217.422 134.141 217.684 134.195 217.938 134.223 C 218.246 134.254 218.57 134.262 218.906 134.234 C 218.602 135.379 218.391 136.527 218.273 137.672 Z M 217.457 130.23 C 217.445 129.875 217.387 129.289 217.273 128.484 C 217.559 128.34 217.836 128.191 218.125 128.039 C 218.406 127.895 218.691 127.746 218.977 127.605 C 219.395 127.391 220 127.066 220.797 126.633 C 221.168 126.434 221.73 126.141 222.484 125.754 C 222.848 125.535 223.055 125.398 223.109 125.336 C 223.109 125.34 223.102 125.344 223.098 125.344 C 223.074 125.344 222.938 125.234 222.703 125.016 C 222.527 124.91 222.32 124.809 222.086 124.711 C 221.656 124.484 220.867 124.129 219.719 123.633 C 219.332 123.449 218.785 123.227 218.082 122.969 C 217.906 122.898 217.719 122.824 217.508 122.738 C 217.301 122.652 217.156 122.59 217.066 122.551 C 217.078 122.531 217.086 122.492 217.098 122.445 C 217.105 122.398 217.113 122.359 217.121 122.336 C 217.145 122.188 217.145 121.977 217.133 121.695 C 217.125 121.391 217.082 121.059 217.004 120.703 C 217.684 121.035 218.871 121.641 220.574 122.531 C 222.277 123.426 223.629 124.09 224.625 124.531 C 225.633 124.535 226.391 124.531 226.898 124.508 C 227.535 124.488 228.773 124.375 230.617 124.16 C 230.613 124.344 230.605 124.629 230.594 125.008 C 230.582 125.387 230.578 125.676 230.582 125.867 C 230.605 126.43 230.652 126.984 230.734 127.531 C 229.297 127.434 227.801 127.414 226.242 127.469 C 225.988 127.457 225.609 127.461 225.125 127.477 C 224.512 127.875 223.902 128.246 223.297 128.602 C 222.699 128.961 222.066 129.332 221.398 129.711 C 220.727 130.09 220.027 130.484 219.293 130.898 C 218.559 131.32 217.922 131.68 217.398 131.996 C 217.449 131.176 217.469 130.59 217.457 130.23 Z" stroke="none" fill="#C92B2F" fill-rule="nonzero" fill-opacity="1"/><path d=" M 126 0 C 195.574 0 252 56.4258 252 126 C 252 195.574 195.574 252 126 252 C 56.4219 252 0 195.574 0 126 C 0 56.4258 56.4219 0 126 0 Z M 126 4.73828 C 192.961 4.73828 247.262 59.0391 247.262 126 C 247.262 192.961 192.961 247.262 126 247.262 C 59.0391 247.262 4.73828 192.961 4.73828 126 C 4.73828 59.0391 59.0391 4.73828 126 4.73828 Z" stroke="none" fill="#C92B2F" fill-rule="evenodd" fill-opacity="1"/><path d=" M 126 7.92969 C 158.598 7.92969 188.117 21.1484 209.484 42.5156 C 230.852 63.8828 244.07 93.4023 244.07 126 C 244.07 158.598 230.852 188.117 209.484 209.484 C 188.117 230.852 158.598 244.07 126 244.07 C 93.4023 244.07 63.8828 230.852 42.5156 209.484 C 21.1484 188.117 7.92969 158.598 7.92969 126 C 7.92969 93.4023 21.1484 63.8828 42.5156 42.5156 C 63.8828 21.1484 93.4023 7.92969 126 7.92969 Z M 207.742 44.2578 C 186.82 23.3359 157.918 10.3945 126 10.3945 C 94.082 10.3945 65.1797 23.3359 44.2578 44.2578 C 23.3359 65.1797 10.3906 94.082 10.3906 126 C 10.3906 157.918 23.3359 186.82 44.2578 207.742 C 65.1797 228.664 94.082 241.609 126 241.609 C 157.918 241.609 186.82 228.664 207.742 207.742 C 228.664 186.82 241.605 157.918 241.605 126 C 241.605 94.082 228.664 65.1797 207.742 44.2578 Z" stroke="none" fill="#C92B2F" fill-rule="nonzero" fill-opacity="1"/><path d=" M 130.742 44.9805 L 131.68 53.9805 C 134.211 54.1797 136.703 54.5117 139.148 54.9648 L 142.391 46.5078 C 145.512 47.1523 148.566 47.9805 151.551 48.9727 L 150.129 57.9141 C 152.504 58.7617 154.82 59.7266 157.074 60.8047 L 162.387 53.4844 C 165.223 54.918 167.965 56.5117 170.598 58.25 L 166.91 66.5156 C 168.973 67.9414 170.957 69.4688 172.859 71.0938 L 179.883 65.3984 C 182.25 67.5078 184.492 69.75 186.602 72.1172 L 180.906 79.1406 C 182.531 81.043 184.059 83.0273 185.484 85.0898 L 193.746 81.4023 C 195.488 84.0352 197.082 86.7773 198.512 89.6133 L 191.191 94.9258 C 192.273 97.1797 193.234 99.4961 194.086 101.871 L 203.027 100.449 C 204.02 103.43 204.848 106.488 205.492 109.609 L 197.035 112.848 C 197.488 115.297 197.82 117.789 198.02 120.32 L 207.02 121.258 C 207.109 122.828 207.16 124.41 207.16 126 C 207.16 127.59 207.109 129.172 207.02 130.742 L 198.02 131.684 C 197.82 134.211 197.488 136.703 197.035 139.152 L 205.492 142.391 C 204.848 145.512 204.02 148.566 203.027 151.551 L 194.082 150.129 C 193.234 152.504 192.273 154.82 191.191 157.074 L 198.512 162.387 C 197.082 165.223 195.488 167.965 193.746 170.598 L 185.484 166.91 C 184.059 168.973 182.531 170.957 180.902 172.859 L 186.602 179.883 C 184.492 182.25 182.25 184.492 179.883 186.602 L 172.859 180.906 C 170.957 182.531 168.973 184.059 166.91 185.484 L 170.598 193.75 C 167.965 195.488 165.223 197.082 162.387 198.516 L 157.074 191.195 C 154.82 192.273 152.504 193.238 150.129 194.086 L 151.551 203.027 C 148.566 204.02 145.512 204.848 142.391 205.492 L 139.148 197.035 C 136.703 197.492 134.207 197.82 131.68 198.02 L 130.742 207.02 C 129.172 207.113 127.59 207.16 126 207.16 C 124.406 207.16 122.824 207.113 121.254 207.02 L 120.316 198.02 C 117.789 197.82 115.297 197.488 112.848 197.035 L 109.609 205.492 C 106.488 204.848 103.43 204.02 100.449 203.027 L 101.871 194.086 C 99.4961 193.238 97.1797 192.273 94.9258 191.195 L 89.6133 198.516 C 86.7773 197.082 84.0352 195.488 81.4023 193.75 L 85.0898 185.484 C 83.0273 184.059 81.0391 182.531 79.1367 180.906 L 72.1133 186.602 C 69.7461 184.492 67.5078 182.25 65.3984 179.883 L 71.0938 172.859 C 69.4688 170.957 67.9414 168.973 66.5156 166.91 L 58.25 170.598 C 56.5078 167.965 54.918 165.223 53.4844 162.387 L 60.8047 157.074 C 59.7266 154.82 58.7617 152.504 57.9141 150.129 L 48.9727 151.551 C 47.9766 148.57 47.1523 145.512 46.5039 142.391 L 54.9609 139.152 C 54.5078 136.703 54.1797 134.211 53.9805 131.684 L 44.9805 130.742 C 44.8867 129.172 44.8359 127.59 44.8359 126 C 44.8359 124.41 44.8867 122.828 44.9805 121.258 L 53.9805 120.32 C 54.1797 117.789 54.5078 115.297 54.9609 112.848 L 46.5039 109.609 C 47.1523 106.488 47.9805 103.434 48.9727 100.449 L 57.9141 101.871 C 58.7617 99.4961 59.7266 97.1797 60.8047 94.9258 L 53.4844 89.6133 C 54.9141 86.7773 56.5117 84.0352 58.25 81.4023 L 66.5156 85.0898 C 67.9414 83.0273 69.4688 81.043 71.0938 79.1406 L 65.3984 72.1172 C 67.5039 69.75 69.7461 67.5078 72.1133 65.3984 L 79.1367 71.0938 C 81.0391 69.4688 83.0273 67.9414 85.0859 66.5156 L 81.4023 58.25 C 84.0352 56.5117 86.7773 54.918 89.6133 53.4844 L 94.9258 60.8047 C 97.1797 59.7266 99.4961 58.7617 101.871 57.9141 L 100.449 48.9727 C 103.43 47.9805 106.488 47.1523 109.609 46.5078 L 112.848 54.9648 C 115.297 54.5078 117.789 54.1797 120.316 53.9805 L 121.254 44.9805 C 122.824 44.8867 124.406 44.8398 126 44.8398 C 127.59 44.8398 129.172 44.8867 130.742 44.9805 Z M 126 61.1836 C 161.699 61.1836 190.816 90.3008 190.816 126 C 190.816 161.699 161.699 190.816 126 190.816 C 90.3008 190.816 61.1836 161.699 61.1836 126 C 61.1836 90.3008 90.3008 61.1836 126 61.1836 Z" stroke="none" fill="#C92B2F" fill-rule="evenodd" fill-opacity="1"/><path d=" M 87.8281 109.617 C 107.68 109.617 127 109.617 146.828 109.617 L 148.184 111.336 C 148.184 111.371 148.184 111.41 148.184 111.445 C 148.184 116.391 148.184 121.281 148.184 126.242 C 143.586 127.645 140.359 128.434 139.715 133.578 C 139.195 138.973 142.684 142.352 145.879 146.016 C 146.996 147.297 148.5 148.277 149.594 149.695 C 149.617 149.73 149.645 149.723 149.594 149.723 C 137.918 149.621 116.207 149.707 104.539 149.73 C 104.043 149.234 109.41 146.73 110.266 145.711 C 112.336 142.07 113.742 136.5 111.969 132.707 C 111.727 132.191 110.445 130.242 109.957 129.789 C 107.652 128.281 105.367 126.563 102.738 125.617 C 102.898 124.453 103.332 123.141 103.633 122.055 C 104.57 118.648 105.16 117.465 106.109 114.047 C 106.613 112.559 102.895 110.211 101.871 113.207 C 100.453 117.352 99.1289 120.105 97.6211 124.488 C 95.5156 124.051 95.0586 123.805 92.8359 123.762 C 92.4023 123.754 91.2148 123.387 90.8203 123.219 C 89.7734 122.789 89.1836 122.492 88.7188 121.449 C 88.6289 121.242 88.3945 120.664 88.3906 120.449 C 88.3359 117.012 87.8008 113.539 87.8281 109.617 Z" stroke="none" fill="#C92B2F" fill-rule="evenodd" fill-opacity="1"/><path d=" M 149.348 110.406 L 167.969 110.406 C 167.984 110.363 168 110.32 168.012 110.281 C 168.137 109.898 168.219 109.852 168.609 109.664 C 168.953 109.504 169.82 109.18 170.188 109.176 C 170.625 109.168 171.645 109.25 172.32 109.441 C 172.641 109.531 172.789 110.168 172.996 110.406 L 176.66 110.406 L 176.66 110.418 C 176.352 111.305 176.301 111.387 175.285 112.25 C 175.012 112.48 174.488 112.73 174.027 112.938 C 173.801 113.039 173.695 112.992 173.438 113.195 C 173.422 113.207 173.418 113.293 173.414 113.395 C 173.438 113.98 173.363 114.551 173.41 115.078 C 173.523 116.484 172.656 117.707 171.379 117.957 C 171.379 118.953 171.379 120.691 171.379 122.109 C 171.668 122.125 171.957 122.148 172.25 122.184 C 173.195 122.703 173.406 123.219 173.523 123.973 C 173.77 125.547 173.637 127.566 173.75 129.125 C 173.719 130.504 172.934 131.352 172.102 131.77 C 172.027 131.805 171.754 131.832 171.406 131.844 C 171.406 133.211 171.406 134.582 171.406 135.953 C 172.23 135.996 172.816 136.168 173.219 137.016 C 173.82 138.293 173.723 142.352 173.426 143.902 C 173.262 144.77 172.605 145.297 171.906 145.559 C 171.668 145.68 169.789 145.727 169.461 145.637 C 168.793 145.445 168.363 145.195 168.082 144.813 C 166.973 143.305 167.102 137.965 168.039 136.703 C 168.316 136.328 168.68 136.086 169.164 136.027 C 169.383 136 169.605 135.98 169.828 135.965 C 169.828 134.59 169.828 133.219 169.828 131.844 C 169.559 131.836 169.344 131.816 169.262 131.793 C 168.59 131.605 168.164 131.355 167.883 130.969 C 167.598 130.586 167.348 130.074 167.355 129.348 C 167.375 127.938 167.457 126.047 167.355 124.551 C 167.609 123.238 167.742 122.719 168.945 122.211 C 169.156 122.184 169.59 122.137 169.809 122.125 L 169.809 117.672 C 169.781 117.656 169.75 117.641 169.723 117.625 C 169.633 117.57 169.754 117.262 169.668 117.199 C 169.617 117.164 169.523 117.148 169.426 117.137 C 169.426 117.141 169.426 117.141 169.422 117.141 C 169.418 117.137 169.414 117.137 169.406 117.137 C 169.379 117.137 169.012 117.078 169.012 117.082 C 169 117.25 169.082 117.438 168.945 117.559 C 168.918 117.574 168.891 117.594 168.863 117.617 C 168.598 117.73 167.934 118.09 167.129 119.082 C 167.047 119.137 166.969 119.191 166.883 119.246 C 164.449 120.84 161.848 122.109 159.488 122.992 C 158.934 123.199 158.367 123.344 157.816 123.48 C 154.988 124.188 152.59 124.664 151.117 125.012 C 150.207 125.223 149.563 125.203 149.348 125.219 Z M 171.406 137.266 C 171.406 137.418 171.406 137.566 171.406 137.719 C 171.406 138.508 169.828 138.473 169.828 137.758 C 169.828 137.609 169.828 137.461 169.828 137.309 C 169.629 137.324 169.449 137.281 169.313 137.297 C 168.434 137.363 168.27 143.012 169 144.086 C 169.465 144.602 171.973 144.797 172.262 143.813 C 172.648 142.508 172.789 137.895 171.969 137.301 C 171.813 137.281 171.621 137.27 171.406 137.266 Z M 171.379 123.426 C 171.379 123.48 171.379 123.531 171.379 123.582 C 171.285 124.281 169.734 124.254 169.809 123.621 L 169.809 123.469 C 169.547 123.418 169.102 123.43 169.039 123.512 C 168.324 124.004 168.582 127.602 168.57 128.391 C 168.563 128.824 168.609 130.035 168.797 130.246 C 168.949 130.41 169.348 130.543 169.828 130.613 C 169.828 130.598 169.828 130.586 169.828 130.57 C 169.828 129.57 171.406 129.402 171.406 130.566 C 171.406 130.578 171.406 130.594 171.406 130.605 C 171.918 130.512 172.27 130.313 172.367 129.969 C 172.504 129.508 172.648 128.906 172.609 128.285 C 172.563 127.48 172.527 126.422 172.547 125.691 C 172.488 124.91 172.641 123.945 171.969 123.461 C 171.809 123.441 171.605 123.426 171.379 123.426 Z" stroke="none" fill="#C92B2F" fill-rule="evenodd" fill-opacity="1"/><path d=" M 103.418 150.531 C 118.91 150.531 134.406 150.531 149.91 150.531 C 150.969 150.664 151.109 151.145 151.434 151.559 C 151.434 152.852 151.434 154.148 151.434 155.449 C 151.188 155.449 150.934 155.453 150.684 155.453 C 150.32 155.457 149.828 155.07 149.465 155.07 C 134.328 155.129 119.973 155.098 104.848 155.164 C 104.602 155.164 103.703 155.648 103.457 155.648 C 103.074 155.652 102.688 155.652 102.305 155.652 C 102.285 154.883 101.824 150.531 103.418 150.531 Z" stroke="none" fill="#C92B2F" fill-rule="evenodd" fill-opacity="1"/><path d=" M 101.527 102.672 L 124.457 102.672 L 124.457 108.395 L 101.527 108.395 Z M 121.719 103.313 L 122.305 103.313 L 122.305 107.754 L 121.719 107.754 Z" stroke="none" fill="#C92B2F" fill-rule="evenodd" fill-opacity="1"/><path d=" M 101.527 95.9688 L 124.457 95.9688 L 124.457 101.691 L 101.527 101.691 Z M 121.719 96.6094 L 122.305 96.6094 L 122.305 101.047 L 121.719 101.047 Z" stroke="none" fill="#C92B2F" fill-rule="evenodd" fill-opacity="1"/><path d=" M 101.527 89.2656 L 124.457 89.2656 L 124.457 94.9844 L 101.527 94.9844 Z M 121.719 89.9063 L 122.305 89.9063 L 122.305 94.3477 L 121.719 94.3477 Z" stroke="none" fill="#C92B2F" fill-rule="evenodd" fill-opacity="1"/><path d=" M 132.789 76.7578 L 132.789 108.293 L 125.961 108.293 C 125.961 97.8281 125.961 87.3594 125.961 76.8906 C 125.961 75.4141 132.156 75.1211 132.789 76.7578 Z" stroke="none" fill="#C92B2F" fill-rule="evenodd" fill-opacity="1"/><path d=" M 139.457 78.8516 L 139.457 108.293 L 133.781 108.293 C 133.781 98.5195 133.781 88.75 133.781 78.9727 C 133.781 77.5977 138.934 77.3203 139.457 78.8516 Z" stroke="none" fill="#C92B2F" fill-rule="evenodd" fill-opacity="1"/><path d=" M 144.141 83.2422 L 159.66 107.324 L 154.449 110.688 C 149.297 102.691 144.145 94.6992 138.992 86.7031 C 138.266 85.5781 142.852 82.3008 144.141 83.2422 Z" stroke="none" fill="#C92B2F" fill-rule="evenodd" fill-opacity="1"/><path d=" M 76.6055 172.617 L 174.902 172.617 C 174.488 173.223 174.063 173.824 173.633 174.414 C 173.379 174.762 173.121 175.109 172.863 175.453 C 172.797 175.539 172.734 175.625 172.668 175.711 C 172.504 175.926 172.344 176.137 172.18 176.348 L 79.3242 176.348 C 79.2031 176.188 79.0781 176.027 78.9531 175.863 C 78.8086 175.672 78.6641 175.48 78.5156 175.285 C 78.3164 175.02 78.1211 174.754 77.9219 174.48 C 77.4766 173.867 77.0391 173.246 76.6055 172.617 Z" stroke="none" fill="#C92B2F" fill-rule="evenodd" fill-opacity="1"/><path d=" M 121.129 88.707 C 118.875 88.707 116.617 88.6211 114.363 88.5898 C 112.23 88.5898 110.105 88.5898 107.984 88.5898 C 107.434 88.1758 107.125 87.9766 106.949 87.5273 C 106.91 87.4219 106.879 87.4375 106.996 87.4297 C 115.75 86.6758 116.418 86.6406 116.383 86.4648 C 110.387 86.2695 105 86.8633 99.4023 88.7305 C 98.207 89.0078 96.9609 89.3633 95.7188 89.3359 C 96.2734 87.6992 97.0742 87.4258 97.2227 85.4141 C 104.008 83.9961 110.492 82.875 117.605 83.3281 C 120.109 79.3438 126.953 81.9531 123.996 87.1836 C 123.059 88.2813 122.512 88.3359 121.129 88.707 Z M 119.617 87.125 C 119.867 86.6602 120.484 86.3711 120.773 85.8789 C 120.941 85.8516 121.105 85.8203 121.27 85.8086 C 121.105 84.4023 121.035 84.5664 120.539 83.4688 C 123.305 83.9805 122.832 85.6055 121.277 86.6133 C 120.566 87.0742 120.285 86.9766 119.617 87.125 Z" stroke="none" fill="#C92B2F" fill-rule="evenodd" fill-opacity="1"/><path d=" M 84.9531 162.109 C 86.0625 159.102 103.191 112.563 103.102 112.605 L 105.168 113.539 C 105.168 113.539 105.34 113.438 104.813 115.137 C 104.285 116.836 98.6289 132.598 98.6289 132.598 L 87.7148 163.156 Z" stroke="none" fill="#C92B2F" fill-rule="evenodd" fill-opacity="1"/><path d=" M 88.0938 162.363 C 89.6953 162.996 91.2148 163.602 92.3984 164.078 C 92.418 164.242 92.4336 164.406 92.4531 164.57 C 92.6211 164.855 92.6445 165.18 92.8984 165.355 C 93.3164 165.652 93.9375 165.742 93.8008 166.078 C 92.9805 168.113 92.1563 170.145 91.332 172.18 C 91.2266 172.449 90.6328 172.129 90.0977 172.055 C 89.8516 172.023 89.6641 172.148 89.457 172.219 C 89.3047 172.313 89.1484 172.406 88.9961 172.5 C 85.8477 171.227 80.3359 169.074 77.1875 167.801 C 77.168 167.656 77.1523 167.512 77.1328 167.367 C 77.0625 167.203 77.0508 166.922 76.9336 166.813 C 76.4297 166.332 75.5391 166.414 75.7539 165.879 C 76.5703 163.867 77.3828 161.852 78.1992 159.84 C 78.3125 159.555 78.875 159.809 79.4219 159.891 C 79.668 159.926 79.918 159.82 80.1094 159.801 C 80.2539 159.691 80.4492 159.496 80.5938 159.383 C 81.8867 159.91 83.582 160.578 85.3477 161.277 Z" stroke="none" fill="#C92B2F" fill-rule="evenodd" fill-opacity="1"/><path d=" M 95.4063 156.207 L 158.258 156.207 L 158.258 170.977 L 95.4063 170.977 Z M 113.34 158.445 L 111.113 158.445 C 110.813 159.969 109.793 160.727 108.051 160.727 L 108.051 162.785 L 110.387 162.785 L 110.387 168.629 L 113.34 168.629 Z M 122.184 166.684 C 121.105 166.828 120.531 166.438 120.457 165.512 C 120.457 164.66 120.922 164.234 121.852 164.234 C 122.703 164.27 123.148 164.699 123.188 165.512 C 123.188 166.219 122.852 166.605 122.184 166.684 Z M 121.797 162.621 C 120.977 162.582 120.551 162.23 120.516 161.559 C 120.551 160.859 120.996 160.484 121.852 160.449 C 122.633 160.484 123.039 160.859 123.074 161.559 C 123.039 162.23 122.609 162.582 121.797 162.621 Z M 119.121 163.398 C 117.973 163.844 117.418 164.586 117.453 165.625 C 117.527 167.629 118.996 168.668 121.852 168.742 C 124.598 168.668 126.023 167.629 126.133 165.625 C 126.133 164.547 125.578 163.77 124.465 163.285 C 125.355 162.953 125.801 162.266 125.801 161.227 C 125.652 159.484 124.355 158.559 121.906 158.445 C 119.273 158.559 117.898 159.5 117.789 161.285 C 117.75 162.25 118.199 162.953 119.121 163.398 Z M 132.035 163.285 C 131.254 163.25 130.848 162.805 130.809 161.949 C 130.848 161.059 131.273 160.598 132.09 160.563 C 132.906 160.637 133.352 161.059 133.426 161.84 C 133.426 162.73 132.961 163.215 132.035 163.285 Z M 128.082 166.184 C 128.414 167.887 129.77 168.742 132.145 168.742 C 134.965 168.668 136.426 166.98 136.539 163.676 C 136.539 160.191 134.984 158.445 131.867 158.445 C 129.23 158.52 127.879 159.707 127.805 162.008 C 127.992 164.047 129.121 165.121 131.199 165.234 C 132.09 165.273 132.883 165.027 133.59 164.516 C 133.59 166.031 133.07 166.793 132.035 166.793 C 131.402 166.793 130.992 166.531 130.809 166.012 Z M 142.773 164.012 C 143.586 164.047 144.016 164.496 144.055 165.344 C 144.016 166.238 143.57 166.699 142.719 166.738 C 141.902 166.664 141.453 166.219 141.383 165.402 C 141.418 164.473 141.883 164.012 142.773 164.012 Z M 146.723 161.117 C 146.391 159.336 145.035 158.445 142.664 158.445 C 139.844 158.559 138.375 160.281 138.266 163.621 C 138.266 167.035 139.844 168.742 142.996 168.742 C 145.59 168.668 146.93 167.516 147 165.289 C 146.816 163.25 145.684 162.176 143.605 162.063 C 142.719 162.027 141.938 162.266 141.27 162.785 C 141.234 161.266 141.734 160.484 142.773 160.449 C 143.402 160.449 143.813 160.727 143.996 161.285 Z" stroke="none" fill="#C92B2F" fill-rule="evenodd" fill-opacity="1"/><path d=" M 169.246 22.5742 C 167.621 21.9141 165.699 21.4297 164.582 22.9063 C 163.438 24.7266 162.891 26.4141 163.535 26.9727 C 163.918 27.4023 165.777 28.3906 168.035 29.4688 L 167.617 30.3906 L 166.469 29.8398 C 163.504 28.9219 160.953 30.5977 157.965 33.8711 C 156.039 34.7656 153.203 33.3086 154.516 31.6563 C 156.113 31.3047 156.965 30.6875 157.43 29.4648 C 157.855 27.293 158.039 25.1406 159.254 24.4219 C 163.633 22.9102 162.898 20.168 160.844 18.3281 C 159.086 17.0234 157.348 16.8359 157.637 18.5039 C 158.184 20.1406 159.152 22.0938 156.586 21.8125 L 149.379 19.6602 C 147.336 18.9531 146.047 21.7617 148.707 22.9648 C 150.152 23.5273 151.781 23.6133 153.063 23.8125 C 154.871 23.9648 154.742 25.7031 152.586 25.3594 L 147.371 24.9102 C 145.574 24.8086 144.582 27.4844 148.254 27.7891 C 149.859 27.918 151.594 27.5273 153.234 27.1172 C 154.66 27.1016 154.836 28.2227 153.852 28.9375 C 152.805 29.5195 151.387 29.6172 149.75 29.6289 C 147.723 29.5195 146.098 30.0391 146.289 32.125 L 144.656 36.4727 C 143.656 39.1094 144.582 40.4336 146.266 40.1406 L 151.039 41.2539 C 160.875 43.0156 166.527 45.8984 170.227 52.3555 C 171.367 54.1328 174.094 54.4805 173.957 51.9922 C 173.645 50.8398 173.008 49.7813 172.082 48.6914 C 173.918 45.9844 175.465 43.043 176.352 40.1406 C 177.645 36 174.781 34.293 173.281 33.0938 L 171.766 32.3711 L 172.223 31.3789 C 174.762 32.4961 177.035 33.4023 177.688 33.5352 C 179.047 33.8398 179.551 32.3828 180.359 30.0508 C 180.996 28.1953 179.172 27.25 176.262 25.7227 Z M 170.668 34.0781 C 170.121 33.6953 169.871 34.125 169.715 34.8086 C 169.633 35.418 170.918 36.1406 171.551 36.3242 C 172.355 35.5781 171.297 34.6406 170.668 34.0781 Z M 165.305 32.0234 C 164.914 32.0625 164.441 32.0586 164.594 32.9297 C 164.777 33.4375 166.125 33.8516 166.367 33.2891 C 166.664 32.5391 166.105 32.168 165.305 32.0234 Z M 168.824 38.2578 C 168.746 37.2344 170.43 37.8555 171.191 38.5352 C 171.613 38.957 172.465 39.6797 172.289 40.2344 C 171.586 41.6445 169.113 40.0195 168.824 38.2578 Z M 162.82 34.7461 C 162.367 34.6875 161.973 34.9688 161.898 35.8633 C 161.961 36.4961 164.004 37.3516 164.781 36.9063 C 166.273 35.832 163.559 34.9023 162.82 34.7461 Z M 167.086 41.2109 C 165.965 40.793 164.68 41.9648 164.988 43.7266 C 165.359 44.7656 167.516 45.332 168.613 45.9141 C 169.613 46.0547 170.523 44.5898 170.355 43.5859 C 169.859 42.875 168.25 42.0469 167.086 41.2109 Z M 158.879 38.6602 C 157.902 39.5742 158.266 40.4102 159.207 41.2813 C 159.938 41.8555 161.051 42.1484 162.008 41.8945 C 162.766 41.4648 163.184 40.0938 162.852 39.4141 C 162.391 38.4961 160.117 37.543 158.879 38.6602 Z M 154.34 36.5586 C 153.398 36.4219 152.801 37 152.754 37.9297 C 152.746 38.8711 153.785 39.4922 154.754 39 C 155.664 38.2773 155.875 37.0625 154.34 36.5586 Z M 148.953 33.8828 L 147.688 37.2148 C 147.883 38.2422 149.313 38.1875 149.574 37.5078 L 150.855 34.1992 C 150.813 32.9844 149.523 32.8672 148.953 33.8828 Z M 168.281 24.9492 C 167.293 24.6797 166.848 25.6445 167.16 26.5273 C 167.547 27.1133 172.871 29.1836 175.652 30.3711 C 177.301 30.1523 176.605 28.7109 175.109 28.0313 Z" stroke="none" fill="#C92B2F" fill-rule="evenodd" fill-opacity="1"/><path d=" M 69.6172 34.3398 C 65.0273 35.9102 65.3672 40.4063 70.75 37.1211 C 73.7383 35.2539 76.7969 33.4922 79.8516 31.9531 L 79.8477 31.9609 C 80.5781 32.2813 80.9258 32.9297 81.0039 33.6172 C 76.6836 37.207 71.6836 42.4766 70.2813 51.5117 C 69.9102 54.1211 73.5703 56.4141 74.3789 52.1992 C 74.7734 44.9063 78.4883 39.7773 81.332 36.9063 C 83.5195 35.2422 86.5586 33.3281 90.9766 33.9219 C 96.1445 34.0859 98.8672 37.0195 102.797 39.8477 C 104.859 40.6523 106.938 38.4297 103.93 35.4492 C 99.8594 31.7188 91.9609 29.6289 84.7266 31.3867 C 84.7266 31.3867 84.043 30.4883 84.4844 29.8086 L 84.4766 29.8086 C 87.7148 28.4453 90.9023 27.4063 93.9375 26.8359 C 97.8867 26.5547 98.5664 22.8555 93.9844 23.0117 C 90.6992 23.0156 82.6367 29.9258 81.0586 25.5273 C 79.7383 21.875 75.168 22.7773 78.1875 27.25 C 80.4219 30.4414 73.5195 32.0391 69.6172 34.3398 Z" stroke="none" fill="#C92B2F" fill-rule="evenodd" fill-opacity="1"/><path d=" M 21.9258 77.6602 C 22.1445 77.0234 23.0859 75.1445 23.6602 74.9141 C 24.5039 74.6289 25.4922 75.0586 24.3633 76.7578 C 22.457 79.7383 24.207 82.3164 25.0781 79.6445 C 25.6875 76.3438 27.9805 75.2031 27.5352 78.3945 C 27.1211 80.2305 27.6836 81.2188 28.4141 80.2813 C 28.8203 79.9727 29.1133 78.2578 29.7734 77.7891 C 31.668 76.8711 31.6523 79.8125 30.1992 82.1836 C 29.125 84.5117 26.625 84.6836 23.6055 83.2461 C 20.9453 81.8242 21.2383 79.9805 21.9258 77.6602 Z M 47.0117 72.2656 C 46.8672 67.8672 50.9414 71.25 50.4805 73.1211 C 49.8594 75.8359 48.7266 78.3008 47.4531 80.1289 C 48.6836 81.7266 49.2539 83.6172 48.5625 85.582 C 47.4805 87.9727 45.207 88.3516 45.4648 86.5977 C 46.5156 84.0156 45.0391 83.2734 43.6719 84.5 C 42.7148 85.4688 41.7266 88.0352 39.4727 87.9375 C 36.668 87.5625 39.1641 84.8867 39.9961 83.7773 L 40.4297 83.4258 C 39.9336 83.6875 39.2344 83.75 38.1641 83.3438 C 36.2383 82.3594 37.293 79.4258 38.5156 76.9336 C 39.8555 74.2188 40.9102 72.168 42.293 71.8594 C 45.3711 71.8281 45.5703 74.3086 44.668 76.4648 C 45.5313 80.0078 47.4023 74.8906 47.0117 72.2656 Z M 40.9805 82.9805 L 40.9883 82.9727 C 42.5547 83.0273 44.0547 80.6328 42.5742 80.4297 L 41.5586 82.1367 C 41.3984 82.3906 41.2227 82.707 40.9805 82.9805 Z M 40.0352 77.5703 C 39.6758 78.5547 39.2383 79.5742 39.6641 79.9805 C 40.6289 80.7383 41.7891 78.75 42.5703 76.6289 C 43.0859 73.4375 41.2031 74.9414 40.0352 77.5703 Z M 34.8945 93.7969 C 37.582 96.3008 38.7773 93.2813 36.3867 90.918 C 32.2383 85.0586 35.1758 79.8398 37.5352 75.2539 C 40.2422 70.7344 44.2656 66.168 49.5586 67.3516 C 54.0508 68.3672 54.1914 63.6758 50.3672 63.6211 C 44.6133 62.8398 41.4492 66.3633 37.6875 71.7852 L 36.875 71.25 L 38.9336 67.8477 C 39.5508 66.1563 40.0156 63.9766 37.293 61.3477 C 35.6094 59.8711 33.7344 58.8242 32.1094 60.0977 C 30.7109 61.6445 29.8242 63.5859 29.1016 65.4922 C 29.1016 65.7109 29.1289 65.8672 29.1875 65.9727 L 28.6172 66.2969 C 28.1719 66.6602 27.3359 67.1016 27.2461 68.1094 C 27.4063 68.9102 27.7695 69.2891 27.5625 70.3359 L 26.2539 72.1094 C 25.4219 73.1641 25.668 74.3867 26.8672 74.0898 C 27.8711 73.6445 28.418 73.7969 28.8203 74.1328 L 29.1563 75.4453 C 29.3086 76.4102 29.6797 76.8398 31.0586 75.9023 C 31.8398 75.6797 33.2148 76.2813 34.0234 77.4258 C 30.8711 83.1523 30.0234 88.9922 34.8945 93.7969 Z M 36.4727 73.5547 L 35.5234 74.9609 C 35.2773 75.332 35.0352 75.7109 34.8008 76.0898 C 32.793 74.1016 35.2344 72.7227 36.4727 73.5547 Z M 35.5234 70.3672 C 34.875 71.1055 33.2539 71.5703 32.8477 70.1211 C 33 68.0898 31.8125 67.625 30.9961 69.2188 C 30.5039 69.8438 29.3438 69.4375 29.5977 68.0664 L 30.4648 65.7031 C 30.8711 65.4375 31.332 65.1055 31.7656 64.8633 C 32.8906 62.4961 34.9805 62.0195 34.1797 64.6719 C 33.5586 66.1914 34.2422 68.082 35.3711 66.7148 C 36.4688 65.3047 37.5664 65.6563 37.1328 67.1016 C 36.2969 68.4922 35.957 69.3789 35.5234 70.3672 Z" stroke="none" fill="#C92B2F" fill-rule="evenodd" fill-opacity="1"/><path d=" M 224.883 74.1523 C 228.863 72.2891 227.027 68.5039 222.633 70.2539 C 220.375 70.3555 213.898 64.8906 211.316 62.5156 C 209.457 60.2617 206.68 61.7305 208.863 64.2305 C 211.852 67.375 216.035 70.5273 220.129 72.2422 C 221.445 72.8203 222.305 74.6797 221.949 76.1484 C 221.293 80.3438 222.254 88.1758 222.965 90.6055 C 223.477 92.4844 226.883 92.9336 226.113 90.4297 C 224.625 85.1289 224.664 75.4414 224.883 74.1523 Z" stroke="none" fill="#C92B2F" fill-rule="evenodd" fill-opacity="1"/><path d=" M 215.301 70.2148 C 212.637 69.457 210.73 68.543 208.34 66.3086 C 206.402 64.6797 204.258 65.8594 206.539 68.7148 C 209.207 71.4961 213.094 72.8086 215.883 73.3164 C 217.855 73.25 217.793 70.9258 215.301 70.2148 Z" stroke="none" fill="#C92B2F" fill-rule="evenodd" fill-opacity="1"/><path d=" M 221.184 80.7461 C 220.328 83.3789 220.031 85.4727 220.559 88.7031 C 220.836 91.2148 218.664 92.3438 217.555 88.8594 C 216.73 85.0938 217.805 81.1367 218.93 78.5352 C 220.078 76.9336 221.98 78.2773 221.184 80.7461 Z" stroke="none" fill="#C92B2F" fill-rule="evenodd" fill-opacity="1"/><path d=" M 214.816 73.0938 C 212.414 77.3789 215.602 80.3828 218.395 79.8945 L 217.453 83.6016 C 216.563 82.4531 214.773 80.2813 214.172 83.7461 C 213.965 87.8984 213.594 93.582 212.051 96.1289 C 210.305 98.3945 207.727 97.2422 208.605 94.6563 C 209.832 90.5938 211.129 86.7383 211.07 81.9063 C 210.922 80.3555 210.684 78.5 207.938 77.0859 C 204.734 75.6094 201.504 74.25 198.121 72.9023 C 194.875 71.3555 196.766 68.6172 198.77 69.3086 C 202.133 70.4531 205.387 72.2031 208.016 74.2344 C 210.852 76.3281 210.941 73.6641 211.223 71.8945 Z" stroke="none" fill="#C92B2F" fill-rule="evenodd" fill-opacity="1"/><path d=" M 216.426 70.0898 C 216.113 70.4297 215.609 70.3203 214.953 70.1133 L 214.816 73.0938 L 216.32 73.2578 C 217.379 72.9492 218.102 72.2617 218.465 71.4688 Z" stroke="none" fill="#C92B2F" fill-rule="evenodd" fill-opacity="1"/><path d=" M 221.879 77.3242 C 221.207 77.668 219.68 77.3789 218.93 78.5352 L 221.035 81.2109 C 221.449 80.5859 221.457 80.0898 221.926 79.8281 Z" stroke="none" fill="#C92B2F" fill-rule="evenodd" fill-opacity="1"/></g></svg>