<svg version="1.1" viewBox="0 0 202 117.47" xmlns="http://www.w3.org/2000/svg" xmlns:xlink="http://www.w3.org/1999/xlink" overflow="hidden"><defs></defs><g id="f5f53f96-73d5-4e1e-9a87-685af032449a"><g id="fe1ef07b-eaa1-4077-96de-408e5d12d0ac"><path d=" M 51.2 58.91 L 51.13 58.95 L 51.12 58.95 L 51 58.73 L 76 44.3 L 101 87.6 L 76 102.03 L 51.2 59.07 L 51.2 58.91 Z" fill="#00D800"/><path d=" M 26 72.99 L 26.14 73.08 L 26 73.16 L 1 29.86 L 26 15.43 L 51 58.73 L 35.2 67.85 L 26 72.99 Z" fill="#EE0000"/><path d=" M 51.2 58.91 L 51.2 59.07 L 51.13 58.95 L 51.2 58.91 Z" fill="#00D800"/><path d=" M 51 72.99 L 50.79 87.78 L 26.14 73.08 L 35.2 67.85 L 51 59.02 L 51 72.99 Z" fill="#EE0000"/><path d=" M 35.2 67.85 L 26.14 73.08 L 26 72.99 L 35.2 67.85 Z" fill="#EE0000"/><path d=" M 51 87.6 L 51 72.99 L 51.2 59.07 L 76 102.03 L 51 87.6 Z" fill="#00D800"/><path d=" M 51 58.73 L 51.12 58.95 L 51 59.02 L 51 58.73 Z" fill="#00D800"/><path d=" M 51 72.99 L 51 59.02 L 51.12 58.95 L 51.13 58.95 L 51.2 59.07 L 51 72.99 Z" fill="#00D800"/><path d=" M 201 29.86 L 201 58.73 L 176 73.16 L 201 29.86 Z" fill="#0000F2"/><path d=" M 201 1 L 201 29.86 L 176 15.43 L 201 1 Z" fill="#0000F2"/><rect x="151" y="29.86" width="50" height="28.87" fill="#0000F2" transform="matrix(0.5,-0.87,0.87,0.5,49.64,174.57)"/><path d=" M 176 15.43 L 151 58.73 L 151 29.86 L 176 15.43 Z" fill="#0000F2"/><path d=" M 176 73.16 L 151 87.6 L 151 58.73 L 176 73.16 Z" fill="#0000F2"/><path d=" M 151 58.73 L 151 87.6 L 126 102.03 L 151 58.73 Z" fill="#FFA100"/><path d=" M 151 29.86 L 151 58.73 L 126 44.3 L 151 29.86 Z" fill="#FFA100"/><rect x="101" y="58.73" width="50" height="28.87" fill="#FFA100" transform="matrix(0.5,-0.87,0.87,0.5,-0.36,145.7)"/><path d=" M 151 29.86 L 126 44.3 L 126 15.43 L 151 29.86 Z" fill="#FEFE00"/><rect x="76" y="15.43" width="50" height="28.87" fill="#FEFE00"/><path d=" M 126 44.3 L 101 87.6 L 101 58.73 L 126 44.3 Z" fill="#FFA100"/><path d=" M 126 15.43 L 76 15.43 L 101 1 L 126 15.43 Z" fill="#FEFE00"/><path d=" M 126 44.3 L 101 58.73 L 76 44.3 L 126 44.3 Z" fill="#FEFE00"/><path d=" M 126 102.03 L 101 116.47 L 101 87.6 L 126 102.03 Z" fill="#FFA100"/><path d=" M 101 87.6 L 101 116.47 L 76 102.03 L 101 87.6 Z" fill="#00D800"/><path d=" M 101 58.73 L 101 87.6 L 76 44.3 L 101 58.73 Z" fill="#00D800"/><path d=" M 76 15.43 L 76 44.3 L 51 29.86 L 76 15.43 Z" fill="#FEFE00"/><path d=" M 76 44.3 L 51 58.73 L 51 29.86 L 76 44.3 Z" fill="#00D800"/><path d=" M 51 29.86 L 51 58.73 L 26 15.43 L 51 29.86 Z" fill="#EE0000"/><path d=" M 1 29.86 L 26 73.16 L 1 58.73 L 1 29.86 Z" fill="#EE0000"/><path d=" M 26 15.43 L 1 29.86 L 1 1 L 26 15.43 Z" fill="#EE0000"/><path d=" M 126 15.43 L 101 1 L 76 15.43" stroke="#000000" stroke-width="2" stroke-linejoin="round" fill="none"/><line x1="151" y1="29.86" x2="126" y2="15.43" stroke="#000000" stroke-width="2" stroke-linejoin="round" fill="none"/><line x1="76" y1="15.43" x2="51" y2="29.86" stroke="#000000" stroke-width="2" stroke-linejoin="round" fill="none"/><rect x="76" y="15.43" width="50" height="28.87" stroke="#000000" stroke-width="2" stroke-linejoin="round" fill="none"/><line x1="126" y1="44.3" x2="101" y2="58.73" stroke="#000000" stroke-width="2" stroke-linejoin="round" fill="none"/><line x1="151" y1="29.86" x2="126" y2="44.3" stroke="#000000" stroke-width="2" stroke-linejoin="round" fill="none"/><line x1="101" y1="116.47" x2="126" y2="102.03" stroke="#000000" stroke-width="2" stroke-linejoin="round" fill="none"/><line x1="126" y1="102.03" x2="151" y2="87.6" stroke="#000000" stroke-width="2" stroke-linejoin="round" fill="none"/><rect x="101" y="58.73" width="50" height="28.87" stroke="#000000" stroke-width="2" stroke-linejoin="round" fill="none" transform="matrix(0.5,-0.87,0.87,0.5,-0.36,145.7)"/><line x1="76" y1="44.3" x2="51" y2="29.86" stroke="#000000" stroke-width="2" stroke-linejoin="round" fill="none"/><path d=" M 101 87.6 L 101 58.73 L 76 44.3" stroke="#000000" stroke-width="2" stroke-linejoin="round" fill="none"/><line x1="51" y1="58.73" x2="51" y2="59.02" stroke="#000000" stroke-width="2" stroke-linejoin="round" fill="none"/><path d=" M 51 72.99 L 51 87.6 L 76 102.03" stroke="#000000" stroke-width="2" stroke-linejoin="round" fill="none"/><path d=" M 76 102.03 L 101 116.47 L 101 87.6" stroke="#000000" stroke-width="2" stroke-linejoin="round" fill="none"/><path d=" M 51.2 59.07 L 76 102.03 L 101 87.6 L 76 44.3 L 51 58.73 L 51.12 58.95" stroke="#000000" stroke-width="2" stroke-linejoin="round" fill="none"/><path d=" M 26 15.43 L 1 1 L 1 29.86" stroke="#000000" stroke-width="2" stroke-linejoin="round" fill="none"/><path d=" M 51 58.73 L 51 29.86 L 26 15.43" stroke="#000000" stroke-width="2" stroke-linejoin="round" fill="none"/><path d=" M 1 29.86 L 1 58.73 L 26 73.16" stroke="#000000" stroke-width="2" stroke-linejoin="round" fill="none"/><path d=" M 51.12 58.95 L 51 59.02 L 35.2 67.85 L 26 72.99 L 26.14 73.08 L 50.79 87.78 L 51 72.99 L 51.2 59.07 L 51.2 58.91 L 51.13 58.95" stroke="#000000" stroke-width="2" stroke-linejoin="round" fill="none"/><path d=" M 35.2 67.85 L 51 58.73 L 26 15.43 L 1 29.86 L 26 73.16 L 26.14 73.08" stroke="#000000" stroke-width="2" stroke-linejoin="round" fill="none"/><path d=" M 176 15.43 L 151 29.86 L 151 58.73" stroke="#000000" stroke-width="2" stroke-linejoin="round" fill="none"/><path d=" M 201 29.86 L 201 1 L 176 15.43" stroke="#000000" stroke-width="2" stroke-linejoin="round" fill="none"/><path d=" M 151 58.73 L 151 87.6 L 176 73.16" stroke="#000000" stroke-width="2" stroke-linejoin="round" fill="none"/><path d=" M 176 73.16 L 201 58.73 L 201 29.86" stroke="#000000" stroke-width="2" stroke-linejoin="round" fill="none"/><rect x="151" y="29.86" width="50" height="28.87" stroke="#000000" stroke-width="2" stroke-linejoin="round" fill="none" transform="matrix(0.5,-0.87,0.87,0.5,49.64,174.57)"/></g></g></svg>