<svg viewBox="0 0 256 128" xmlns="http://www.w3.org/2000/svg" xmlns:xlink="http://www.w3.org/1999/xlink" id="图层_1" overflow="hidden"><defs></defs><rect x="133" y="47.17" rx="1" width="36.17" height="36.17" stroke="#000000" stroke-width="1.81" stroke-miterlimit="10" fill="#0000F2"/><rect x="169.17" y="47.17" rx="1" width="36.17" height="36.17" stroke="#000000" stroke-width="1.81" stroke-miterlimit="10" fill="#EE0000"/><rect x="205.33" y="47.17" rx="1" width="36.17" height="36.17" stroke="#000000" stroke-width="1.81" stroke-miterlimit="10" fill="#00D800"/><rect x="169.17" y="11" rx="1" width="36.17" height="36.17" stroke="#000000" stroke-width="1.81" stroke-miterlimit="10" fill="#FEFE00"/><rect x="169.17" y="83.33" rx="1" width="36.17" height="36.17" stroke="#000000" stroke-width="1.81" stroke-miterlimit="10" fill="#FFFFFF"/><rect x="205.33" y="11" rx="1" width="36.17" height="36.17" stroke="#000000" stroke-width="1.81" stroke-miterlimit="10" fill="#FFA100"/><text fill="#1E1D1D" font-family="ArialMT,Arial" font-size="17.36" transform="translate(182.29 34.3)">1</text><text fill="#FFFFFF" font-family="ArialMT,Arial" font-size="17.36" transform="translate(146.56 68.86)">2</text><path d="M175.3 19.36C174.571 20.2851 174.73 21.626 175.655 22.355 176.58 23.084 177.921 22.9251 178.65 22 182.476 17.1608 189.501 16.3396 194.34 20.1657 199.179 23.9919 200 31.0165 196.174 35.8556 192.817 40.1015 186.899 41.3295 182.13 38.77L184.13 35.15C184.198 34.999 184.131 34.8213 183.98 34.753 183.927 34.7289 183.868 34.7209 183.81 34.73L173.31 36C173.167 36.0138 173.062 36.1409 173.076 36.2838 173.079 36.3137 173.087 36.3429 173.1 36.37L177.51 46C177.593 46.1436 177.776 46.193 177.92 46.1103 177.966 46.0839 178.004 46.0459 178.03 46L180.03 42.38C187.514 46.4436 196.876 43.6707 200.939 36.1865 205.003 28.7023 202.23 19.3409 194.746 15.2773 188.148 11.695 179.929 13.385 175.28 19.28Z" fill="#1E1D1D"/><path d="M138.83 54.93C138.109 55.8551 138.275 57.1893 139.2 57.91 140.125 58.6307 141.459 58.4651 142.18 57.54 146.006 52.7008 153.031 51.8796 157.87 55.7057 162.709 59.5319 163.53 66.5565 159.704 71.3956 156.347 75.6415 150.429 76.8695 145.66 74.31L147.66 70.69C147.728 70.539 147.661 70.3613 147.51 70.293 147.457 70.2689 147.398 70.2609 147.34 70.27L136.83 71.59C136.687 71.6038 136.582 71.7309 136.596 71.8738 136.599 71.9037 136.607 71.9329 136.62 71.96L141 81.6C141.062 81.7535 141.237 81.8275 141.391 81.7652 141.448 81.742 141.497 81.7018 141.53 81.65L143.53 78.03C151.014 82.0936 160.376 79.3207 164.439 71.8365 168.503 64.3523 165.73 54.9909 158.246 50.9273 151.648 47.345 143.429 49.035 138.78 54.93Z" fill="#FFFFFF"/><path d="M175.35 55.11C174.676 56.0741 174.911 57.4021 175.875 58.0761 176.772 58.7027 177.997 58.5488 178.71 57.72 182.538 52.8825 189.563 52.0643 194.401 55.8925 199.238 59.7207 200.056 66.7457 196.228 71.5832 192.869 75.8285 186.948 77.0535 182.18 74.49L184.18 70.87C184.248 70.719 184.181 70.5413 184.03 70.473 183.977 70.4489 183.918 70.4409 183.86 70.45L173.35 71.77C173.207 71.7838 173.102 71.9109 173.116 72.0538 173.119 72.0837 173.127 72.1129 173.14 72.14L177.54 81.78C177.618 81.9264 177.799 81.982 177.946 81.9044 177.999 81.8763 178.042 81.833 178.07 81.78L180.07 78.16C187.556 82.2197 196.916 79.442 200.976 71.9557 205.036 64.4694 202.258 55.1095 194.772 51.0497 188.173 47.4714 179.956 49.1645 175.31 55.06Z" fill="#FFFFFF"/><path d="M175.35 90.92C174.632 91.8478 174.802 93.182 175.73 93.9 176.658 94.618 177.992 94.4478 178.71 93.52 182.538 88.6825 189.563 87.8643 194.401 91.6925 199.238 95.5207 200.056 102.546 196.228 107.383 192.869 111.628 186.948 112.853 182.18 110.29L184.18 106.68C184.248 106.529 184.181 106.351 184.03 106.283 183.977 106.259 183.918 106.251 183.86 106.26L173.35 107.57C173.202 107.592 173.101 107.729 173.123 107.877 173.126 107.898 173.132 107.92 173.14 107.94L177.54 117.58C177.599 117.735 177.772 117.813 177.927 117.754 177.985 117.732 178.035 117.692 178.07 117.64L180.07 114.01C187.555 118.073 196.916 115.299 200.979 107.814 205.041 100.33 202.267 90.9685 194.783 86.9057 188.181 83.3219 179.957 85.0173 175.31 90.92Z"/><path d="M210.8 55.27C210.082 56.1951 210.25 57.527 211.175 58.245 212.1 58.963 213.432 58.7951 214.15 57.87 217.976 53.0308 225.001 52.2096 229.84 56.0357 234.679 59.8619 235.5 66.8865 231.674 71.7256 228.317 75.9715 222.399 77.1995 217.63 74.64L219.63 71.02C219.698 70.8752 219.637 70.7023 219.492 70.6339 219.438 70.6086 219.378 70.6002 219.32 70.61L208.8 71.92C208.652 71.9419 208.551 72.0792 208.573 72.2267 208.576 72.2484 208.582 72.2697 208.59 72.29L213 81.93C213.064 82.0829 213.24 82.155 213.392 82.0911 213.443 82.0698 213.488 82.0348 213.52 81.99L215.52 78.36C223.003 82.4267 232.365 79.6575 236.432 72.175 240.498 64.6925 237.729 55.33 230.247 51.2633 223.645 47.6756 215.419 49.3678 210.77 55.27Z"/><path d="M210.8 19.31C210.082 20.2351 210.25 21.567 211.175 22.285 212.1 23.003 213.432 22.8351 214.15 21.91 217.976 17.0708 225.001 16.2496 229.84 20.0757 234.679 23.9019 235.5 30.9265 231.674 35.7656 228.317 40.0115 222.399 41.2395 217.63 38.68L219.63 35.07C219.697 34.9187 219.63 34.7413 219.478 34.6738 219.429 34.6517 219.374 34.6435 219.32 34.65L208.81 36C208.662 36.0219 208.561 36.1592 208.583 36.3067 208.586 36.3284 208.592 36.3497 208.6 36.37L213 46C213.064 46.1529 213.24 46.225 213.392 46.1611 213.443 46.1398 213.488 46.1048 213.52 46.06L215.52 42.43C223.003 46.4967 232.365 43.7275 236.432 36.245 240.498 28.7625 237.729 19.4 230.247 15.3333 223.645 11.7456 215.419 13.4378 210.77 19.34Z"/><text fill="#FFFFFF" font-family="ArialMT,Arial" font-size="17.36" transform="translate(182.53 69.85)">3</text><text font-family="ArialMT,Arial" font-size="17.36" transform="translate(218.34 69.85)">4</text><text font-family="ArialMT,Arial" font-size="17.36" transform="translate(218.7 33.68)">5</text><text font-family="ArialMT,Arial" font-size="17.36" transform="translate(183.26 106.38)">6</text><path d="M83.77 54.11 115.56 25.75 111.27 82.57 82.19 117.03 83.77 54.11Z" stroke="#000000" stroke-width="7.11" stroke-linejoin="round"/><path d="M57.61 13.01 115.56 25.75 83.77 54.11 19.34 36.61 57.61 13.01Z" stroke="#000000" stroke-width="7.11" stroke-linejoin="round"/><path d="M19.34 36.61 83.77 54.11 82.19 117.03 24.22 95.9 19.34 36.61Z" stroke="#000000" stroke-width="7.11" stroke-linejoin="round"/><path d="M85.57 54.54 96.24 45.02 95.37 64.68 85.06 74.97 85.57 54.54Z" fill="#00D800"/><path d="M98 43.37 107.53 34.87 106.37 53.8 97.13 63.02 98 43.37Z" fill="#00D800"/><path d="M109.1 33.39 117.66 25.76 116.28 44.01 107.94 52.32 109.1 33.39Z" fill="#404040"/><path d="M84.94 78.38 95.25 68.09 94.44 86.37 84.47 97.29 84.94 78.38Z" fill="#404040"/><path d="M96.95 66.32 106.2 57.1 105.12 74.77 96.14 84.59 96.95 66.32Z" fill="#00D800"/><path d="M107.73 55.5 116.06 47.19 114.77 64.28 106.65 73.17 107.73 55.5Z" fill="#00D800"/><path d="M84.36 100.46 94.33 89.54 93.58 106.58 83.92 118.02 84.36 100.46Z" fill="#404040"/><path d="M95.98 87.67 104.95 77.84 103.94 94.36 95.22 104.7 95.98 87.67Z" fill="#00D800"/><path d="M106.44 76.14 114.56 67.25 113.35 83.29 105.44 92.67 106.44 76.14Z" fill="#00D800"/><path d="M57.39 10.87 73.94 14.28 64.16 21.2 47.08 17.43 57.39 10.87Z" fill="#404040"/><path d="M77.01 15.15 94.45 18.99 85.19 26.18 67.14 21.94 77.01 15.15Z" fill="#404040"/><path d="M97.68 19.73 116.15 23.79 107.59 31.42 88.42 26.92 97.68 19.73Z" fill="#404040"/><path d="M45.18 18.48 62.21 22.47 51.28 29.98 33.7 25.55 45.18 18.48Z" fill="#404040"/><path d="M65.36 23.24 83.41 27.48 73.14 35.46 54.44 30.75 65.36 23.24Z" fill="#404040"/><path d="M86.76 28.3 105.94 32.8 96.41 41.3 76.49 36.28 86.76 28.3Z" fill="#EE0000"/><path d="M31.62 26.91 49.2 31.34 37.05 39.7 18.89 34.76 31.62 26.91Z" fill="#404040"/><path d="M52.46 32.2 71.16 36.91 59.69 45.82 40.31 40.55 52.46 32.2Z" fill="#404040"/><path d="M74.64 37.82 94.56 42.84 83.89 52.36 63.17 46.73 74.64 37.82Z" fill="#EE0000"/><path d="M17.86 37.18 36.01 42.12 36.98 61.66 19.43 56.3 17.86 37.18Z" fill="#404040"/><path d="M39.27 43.05 58.64 48.32 58.92 68.3 40.23 62.6 39.27 43.05Z" fill="#404040"/><path d="M62.11 49.32 82.83 54.95 82.32 75.38 62.39 69.3 62.11 49.32Z" fill="#FFFFFF"/><path d="M19.65 59.6 37.2 64.95 38.1 83.13 21.12 77.42 19.65 59.6Z" fill="#EE0000"/><path d="M40.34 65.96 59.03 71.66 59.28 90.2 41.24 84.14 40.34 65.96Z" fill="#EE0000"/><path d="M62.37 72.73 82.3 78.81 81.83 97.72 62.63 91.27 62.37 72.73Z" fill="#404040"/><path d="M21.32 80.49 38.3 86.2 39.14 103.15 22.69 97.16 21.32 80.49Z" fill="#EE0000"/><path d="M41.34 87.26 59.38 93.32 59.62 110.58 42.18 104.22 41.34 87.26Z" fill="#EE0000"/><path d="M62.61 94.45 81.81 100.91 81.37 118.46 62.85 111.71 62.61 94.45Z" fill="#404040"/></svg>