<svg viewBox="0 0 450 150" xmlns="http://www.w3.org/2000/svg" xmlns:xlink="http://www.w3.org/1999/xlink" id="图层_1" overflow="hidden"><defs></defs><path d="M224.67 26.32 202.98 38.84 246.36 38.84 224.67 26.32Z" stroke="#000000" stroke-width="1.74" stroke-linejoin="round" fill="#FEFE00"/><path d="M268.05 51.36 246.36 38.84 246.36 63.88 268.05 51.36Z" stroke="#000000" stroke-width="1.74" stroke-linejoin="round" fill="#FEFE00"/><path d="M181.29 51.36 202.98 63.88 202.98 38.84 181.29 51.36Z" stroke="#000000" stroke-width="1.74" stroke-linejoin="round" fill="#FEFE00"/><path d="M224.67 76.41 246.36 63.88 202.98 63.88 224.67 76.41Z" stroke="#000000" stroke-width="1.74" stroke-linejoin="round" fill="#FEFE00"/><path d="M202.98 63.88 246.36 63.88 246.36 38.84 202.98 38.84 202.98 63.88Z" stroke="#000000" stroke-width="1.74" stroke-linejoin="round" fill="#FEFE00"/><path d="M224.67 76.41 224.67 101.45 246.36 63.88 224.67 76.41Z" stroke="#000000" stroke-width="1.74" stroke-linejoin="round" fill="#00D800"/><path d="M268.05 51.36 246.36 63.88 268.05 76.41 268.05 51.36Z" stroke="#000000" stroke-width="1.74" stroke-linejoin="round" fill="#00D800"/><path d="M224.67 126.5 246.36 113.98 224.67 101.45 224.67 126.5Z" stroke="#000000" stroke-width="1.74" stroke-linejoin="round" fill="#00D800"/><path d="M268.05 101.45 268.05 76.41 246.36 113.98 268.05 101.45Z" stroke="#000000" stroke-width="1.74" stroke-linejoin="round" fill="#00D800"/><path d="M246.36 63.88 224.67 101.45 246.36 113.98 268.05 76.41 246.36 63.88Z" stroke="#000000" stroke-width="1.74" stroke-linejoin="round" fill="#404040"/><path d="M181.29 51.36 181.29 76.41 202.98 63.88 181.29 51.36Z" stroke="#000000" stroke-width="1.74" stroke-linejoin="round" fill="#EE0000"/><path d="M224.67 76.41 202.98 63.88 224.67 101.45 224.67 76.41Z" stroke="#000000" stroke-width="1.74" stroke-linejoin="round" fill="#EE0000"/><path d="M181.29 101.45 202.98 113.98 181.29 76.41 181.29 101.45Z" stroke="#000000" stroke-width="1.74" stroke-linejoin="round" fill="#EE0000"/><path d="M224.67 126.5 224.67 101.45 202.98 113.98 224.67 126.5Z" stroke="#000000" stroke-width="1.74" stroke-linejoin="round" fill="#EE0000"/><path d="M224.67 101.45 202.98 63.88 181.29 76.41 202.98 113.98 224.67 101.45Z" stroke="#000000" stroke-width="1.74" stroke-linejoin="round" fill="#404040"/><path d="M313.7 95.62 336.87 77.72C337.331 77.3594 337.413 76.6932 337.052 76.232 336.999 76.1642 336.938 76.1031 336.87 76.05L313.7 58.15C313.233 57.7965 312.568 57.8883 312.215 58.355 312.074 58.5405 311.999 58.7672 312 59L312 68.48 287.79 68.48C287.21 68.4745 286.736 68.9401 286.73 69.52 286.73 69.5233 286.73 69.5267 286.73 69.53L286.73 84.26C286.757 84.8242 287.225 85.266 287.79 85.26L312 85.26 312 94.74C312.008 95.3254 312.489 95.7932 313.075 95.785 313.301 95.7818 313.52 95.7065 313.7 95.57Z"/><path d="M145.62 95.25 168.79 77.34C169.248 77.032 169.37 76.4106 169.062 75.9522 168.99 75.8447 168.898 75.7523 168.79 75.68L145.62 57.78C145.311 57.5223 144.877 57.475 144.52 57.66 144.144 57.8484 143.913 58.2397 143.93 58.66L143.93 68.14 119.71 68.14C119.147 68.1391 118.682 68.5781 118.65 69.14L118.65 83.88C118.655 84.4615 119.128 84.93 119.71 84.93L143.93 84.93 143.93 94.41C143.926 94.9899 144.392 95.4634 144.972 95.4676 145.206 95.4693 145.434 95.3927 145.62 95.25Z"/><path d="M85.33 37.3 41.59 37.3 63.46 24.67 85.33 37.3Z" fill="#FFFFFF"/><path d="M63.46 24.67 41.59 37.3 85.33 37.3 63.46 24.67Z" stroke="#000000" stroke-width="1.75" stroke-linejoin="round" fill="none"/><path d="M107.19 49.93 85.33 37.3 85.33 62.55 107.19 49.93Z" stroke="#000000" stroke-width="1.75" stroke-linejoin="round" fill="#FFFFFF"/><path d="M19.72 49.93 41.59 62.55 41.59 37.3 19.72 49.93Z" stroke="#000000" stroke-width="1.75" stroke-linejoin="round" fill="#FFFFFF"/><path d="M63.46 75.18 85.33 62.55 41.59 62.55 63.46 75.18Z" stroke="#000000" stroke-width="1.75" stroke-linejoin="round" fill="#FFFFFF"/><rect x="41.6" y="37.3" width="43.73" height="25.25" fill="#FFFFFF"/><rect x="41.6" y="37.3" width="43.73" height="25.25" stroke="#000000" stroke-width="1.75" stroke-linejoin="round" fill="none"/><path d="M63.46 75.18 63.46 100.43 85.33 62.55 63.46 75.18Z" stroke="#000000" stroke-width="1.75" stroke-linejoin="round" fill="#EE0000"/><path d="M107.19 49.93 85.33 62.55 107.19 75.18 107.19 49.93Z" stroke="#000000" stroke-width="1.75" stroke-linejoin="round" fill="#EE0000"/><path d="M63.46 125.68 85.33 113.05 63.46 100.43 63.46 125.68Z" stroke="#000000" stroke-width="1.75" stroke-linejoin="round" fill="#404040"/><path d="M107.19 100.43 107.19 75.18 85.33 113.05 107.19 100.43Z" stroke="#000000" stroke-width="1.75" stroke-linejoin="round" fill="#404040"/><rect x="63.46" y="75.18" width="43.73" height="25.25" fill="#404040" transform="matrix(0.5 -0.866025 0.866025 0.5 -33.38 117.8)"/><rect x="63.46" y="75.18" width="43.73" height="25.25" stroke="#000000" stroke-width="1.75" stroke-linejoin="round" fill="none" transform="matrix(0.5 -0.87 0.87 0.5 -33.38 117.8)"/><path d="M19.72 49.93 19.72 75.18 41.59 62.55 19.72 49.93Z" stroke="#000000" stroke-width="1.75" stroke-linejoin="round" fill="#00D800"/><path d="M63.46 75.18 41.59 62.55 63.46 100.43 63.46 75.18Z" stroke="#000000" stroke-width="1.75" stroke-linejoin="round" fill="#00D800"/><path d="M19.72 100.43 41.59 113.05 19.72 75.18 19.72 100.43Z" stroke="#000000" stroke-width="1.75" stroke-linejoin="round" fill="#404040"/><path d="M63.46 125.68 63.46 100.43 41.59 113.05 63.46 125.68Z" stroke="#000000" stroke-width="1.75" stroke-linejoin="round" fill="#404040"/><path d="M63.46 100.43 41.59 62.55 19.72 75.18 41.59 113.05 63.46 100.43Z" stroke="#000000" stroke-width="1.75" stroke-linejoin="round" fill="#404040"/><path d="M389.76 25.94 368.07 38.47 411.45 38.47 389.76 25.94Z" stroke="#000000" stroke-width="1.74" stroke-linejoin="round" fill="#FEFE00"/><path d="M433.14 50.99 411.45 38.47 411.45 63.51 433.14 50.99Z" stroke="#000000" stroke-width="1.74" stroke-linejoin="round" fill="#FEFE00"/><path d="M346.38 50.99 368.07 63.51 368.07 38.47 346.38 50.99Z" stroke="#000000" stroke-width="1.74" stroke-linejoin="round" fill="#FEFE00"/><path d="M389.76 76.03 411.45 63.51 368.07 63.51 389.76 76.03Z" stroke="#000000" stroke-width="1.74" stroke-linejoin="round" fill="#FEFE00"/><path d="M368.07 63.51 411.45 63.51 411.45 38.47 368.07 38.47 368.07 63.51Z" stroke="#000000" stroke-width="1.74" stroke-linejoin="round" fill="#FEFE00"/><path d="M389.76 76.03 389.76 101.08 411.45 63.51 389.76 76.03Z" stroke="#000000" stroke-width="1.74" stroke-linejoin="round" fill="#00D800"/><path d="M433.14 50.99 411.45 63.51 433.14 76.03 433.14 50.99Z" stroke="#000000" stroke-width="1.74" stroke-linejoin="round" fill="#00D800"/><path d="M389.76 126.13 411.45 113.6 389.76 101.08 389.76 126.13Z" stroke="#000000" stroke-width="1.74" stroke-linejoin="round" fill="#00D800"/><path d="M433.14 101.08 433.14 76.03 411.45 113.6 433.14 101.08Z" stroke="#000000" stroke-width="1.74" stroke-linejoin="round" fill="#00D800"/><path d="M411.45 63.51 389.76 101.08 411.45 113.6 433.14 76.03 411.45 63.51Z" stroke="#000000" stroke-width="1.74" stroke-linejoin="round" fill="#00D800"/><path d="M346.38 50.99 346.38 76.03 368.07 63.51 346.38 50.99Z" stroke="#000000" stroke-width="1.74" stroke-linejoin="round" fill="#EE0000"/><path d="M389.76 76.03 368.07 63.51 389.76 101.08 389.76 76.03Z" stroke="#000000" stroke-width="1.74" stroke-linejoin="round" fill="#EE0000"/><path d="M346.38 101.08 368.07 113.6 346.38 76.03 346.38 101.08Z" stroke="#000000" stroke-width="1.74" stroke-linejoin="round" fill="#EE0000"/><path d="M389.76 126.13 389.76 101.08 368.07 113.6 389.76 126.13Z" stroke="#000000" stroke-width="1.74" stroke-linejoin="round" fill="#EE0000"/><path d="M389.76 101.08 368.07 63.51 346.38 76.03 368.07 113.6 389.76 101.08Z" stroke="#000000" stroke-width="1.74" stroke-linejoin="round" fill="#EE0000"/></svg>