<svg width="101.93" height="117.47" viewBox="0 0 101.93 117.47" xmlns="http://www.w3.org/2000/svg" xmlns:xlink="http://www.w3.org/1999/xlink"><defs></defs><g id="XMLID_1_"><g><path d="M100.93 58.74 100.93 87.6 75.94 102.04Z" fill="#FF99FF"/><path d="M100.93 29.87 100.93 58.74 75.94 44.3Z" fill="#404040"/><rect x="50.95" y="58.74" width="49.99" height="28.85" fill="#404040" transform="matrix(0.4997 -0.8662 0.8662 0.4997 -25.3855 102.386)"/><path d="M100.93 29.87 75.94 44.3 75.94 15.44Z" fill="#404040"/><rect x="25.98" y="15.44" width="49.96" height="28.86" fill="#404040"/><path d="M75.94 44.3 50.96 87.6 50.96 58.74Z" fill="#404040"/><path d="M75.94 15.44 25.98 15.44 50.96 1Z" fill="#404040"/><path d="M75.94 44.3 50.96 58.74 25.98 44.3Z" fill="#404040"/><path d="M75.94 102.04 50.96 116.47 50.96 87.6Z" fill="#404040"/><path d="M50.96 87.6 50.96 116.47 25.98 102.04Z" fill="#404040"/><path d="M50.96 58.74 50.96 87.6 25.98 44.3Z" fill="#88DDFF"/><rect x="11.55" y="48.17" width="28.85" height="49.99" fill="#404040" transform="matrix(0.8662 -0.4997 0.4997 0.8662 -33.0886 22.7755)"/><path d="M25.98 15.44 25.98 44.3 1 29.87Z" fill="#404040"/><path d="M1 58.74 25.98 102.04 1 87.6Z" fill="#404040"/><path d="M25.98 44.3 1 58.74 1 29.87Z" fill="#404040"/></g><g><path d="M75.94 15.44 50.96 1 25.98 15.44" stroke="#000000" stroke-width="1.9993" stroke-linejoin="round" fill="none"/><line x1="100.93" y1="29.87" x2="75.94" y2="15.44" stroke="#000000" stroke-width="1.9993" stroke-linejoin="round" fill="none"/><line x1="25.98" y1="15.44" x2="1" y2="29.87" stroke="#000000" stroke-width="1.9993" stroke-linejoin="round" fill="none"/><rect x="25.98" y="15.44" width="49.96" height="28.86" stroke="#000000" stroke-width="1.9993" stroke-linejoin="round" fill="none"/><line x1="75.94" y1="44.3" x2="50.96" y2="58.74" stroke="#000000" stroke-width="1.9993" stroke-linejoin="round" fill="none"/><path d="M100.93 58.74 100.93 29.87 75.94 44.3" stroke="#000000" stroke-width="1.9993" stroke-linejoin="round" fill="none"/><line x1="50.96" y1="116.47" x2="75.94" y2="102.04" stroke="#000000" stroke-width="1.9993" stroke-linejoin="round" fill="none"/><path d="M75.94 102.04 100.93 87.6 100.93 58.74" stroke="#000000" stroke-width="1.9993" stroke-linejoin="round" fill="none"/><rect x="50.95" y="58.74" width="49.99" height="28.85" stroke="#000000" stroke-width="1.9993" stroke-linejoin="round" fill="none" transform="matrix(0.4997 -0.8662 0.8662 0.4997 -25.3855 102.386)"/><path d="M25.98 44.3 1 29.87 1 58.74" stroke="#000000" stroke-width="1.9993" stroke-linejoin="round" fill="none"/><path d="M50.96 87.6 50.96 58.74 25.98 44.3" stroke="#000000" stroke-width="1.9993" stroke-linejoin="round" fill="none"/><path d="M1 58.74 1 87.6 25.98 102.04" stroke="#000000" stroke-width="1.9993" stroke-linejoin="round" fill="none"/><path d="M25.98 102.04 50.96 116.47 50.96 87.6" stroke="#000000" stroke-width="1.9993" stroke-linejoin="round" fill="none"/><rect x="11.55" y="48.17" width="28.85" height="49.99" stroke="#000000" stroke-width="1.9993" stroke-linejoin="round" fill="none" transform="matrix(0.8662 -0.4997 0.4997 0.8662 -33.0886 22.7755)"/></g></g></svg>