<svg viewBox="0 0 128 128" xmlns="http://www.w3.org/2000/svg" xmlns:xlink="http://www.w3.org/1999/xlink" id="图层_1" overflow="hidden"><defs></defs><path d="M115.03 67.18 115.03 96.04 90.05 110.48 115.03 67.18Z" fill="#404040"/><path d="M115.03 38.31 115.03 67.18 90.05 52.74 115.03 38.31Z" fill="#404040"/><rect x="65.06" y="67.18" width="49.99" height="28.85" fill="#404040" transform="matrix(0.499698 -0.8662 0.8662 0.499698 -25.64 118.83)"/><path d="M115.03 38.31 90.05 52.74 90.05 23.88 115.03 38.31Z" fill="#FFFF00"/><rect x="40.09" y="23.88" width="49.96" height="28.86" fill="#404040"/><path d="M90.05 52.74 65.07 96.04 65.07 67.18 90.05 52.74Z" fill="#88DDFF"/><path d="M90.05 23.88 40.09 23.88 65.07 9.44 90.05 23.88Z" fill="#FF99FF"/><path d="M90.05 52.74 65.07 67.18 40.09 52.74 90.05 52.74Z" fill="#404040"/><path d="M90.05 110.48 65.07 124.91 65.07 96.04 90.05 110.48Z" fill="#404040"/><path d="M65.07 96.04 65.07 124.91 40.09 110.48 65.07 96.04Z" fill="#404040"/><path d="M65.07 67.18 65.07 96.04 40.09 52.74 65.07 67.18Z" fill="#404040"/><rect x="25.66" y="56.62" width="28.85" height="49.99" fill="#404040" transform="matrix(0.8662 -0.499698 0.499698 0.8662 -35.42 30.96)"/><path d="M40.09 23.88 40.09 52.74 15.11 38.31 40.09 23.88Z" fill="#404040"/><path d="M15.11 67.18 40.09 110.48 15.11 96.04 15.11 67.18Z" fill="#404040"/><path d="M40.09 52.74 15.11 67.18 15.11 38.31 40.09 52.74Z" fill="#404040"/><path d="M90.05 23.88 65.07 9.44 40.09 23.88" stroke="#000000" stroke-width="2" stroke-linejoin="round" fill="none"/><line x1="115.04" y1="38.31" x2="90.05" y2="23.88" stroke="#000000" stroke-width="2" stroke-linejoin="round" fill="none"/><line x1="40.09" y1="23.88" x2="15.11" y2="38.31" stroke="#000000" stroke-width="2" stroke-linejoin="round" fill="none"/><rect x="40.09" y="23.88" width="49.96" height="28.86" stroke="#000000" stroke-width="2" stroke-linejoin="round" fill="none"/><line x1="90.05" y1="52.74" x2="65.07" y2="67.18" stroke="#000000" stroke-width="2" stroke-linejoin="round" fill="none"/><path d="M115.03 67.18 115.03 38.31 90.05 52.74" stroke="#000000" stroke-width="2" stroke-linejoin="round" fill="none"/><line x1="65.07" y1="124.91" x2="90.05" y2="110.48" stroke="#000000" stroke-width="2" stroke-linejoin="round" fill="none"/><path d="M90.05 110.48 115.03 96.04 115.03 67.18" stroke="#000000" stroke-width="2" stroke-linejoin="round" fill="none"/><rect x="65.06" y="67.18" width="49.99" height="28.85" stroke="#000000" stroke-width="2" stroke-linejoin="round" fill="none" transform="matrix(0.499698 -0.8662 0.8662 0.499698 -25.64 118.83)"/><path d="M40.09 52.74 15.11 38.31 15.11 67.18" stroke="#000000" stroke-width="2" stroke-linejoin="round" fill="none"/><path d="M65.07 96.04 65.07 67.18 40.09 52.74" stroke="#000000" stroke-width="2" stroke-linejoin="round" fill="none"/><path d="M15.11 67.18 15.11 96.04 40.09 110.48" stroke="#000000" stroke-width="2" stroke-linejoin="round" fill="none"/><path d="M40.09 110.48 65.07 124.91 65.07 96.04" stroke="#000000" stroke-width="2" stroke-linejoin="round" fill="none"/><rect x="25.66" y="56.62" width="28.85" height="49.99" stroke="#000000" stroke-width="2" stroke-linejoin="round" fill="none" transform="matrix(0.8662 -0.499698 0.499698 0.8662 -35.42 30.96)"/></svg>