<svg viewBox="0 0 350.39 366.23" xmlns="http://www.w3.org/2000/svg" xmlns:xlink="http://www.w3.org/1999/xlink" overflow="hidden"><defs></defs><g id="图层_2"><g id="图层_1-2"><path d="M203.34 143.52 221.47 199.46 173.93 233.99 126.38 199.46 144.54 143.52 203.34 143.52Z" fill="#FF6666"/><path d="M203.34 143.52 144.54 143.52 126.38 199.46 173.93 233.99 221.47 199.46 203.34 143.52Z" stroke="#040000" stroke-miterlimit="10" fill="none"/><path d="M173.92 236C173.496 236.002 173.083 235.868 172.74 235.62L125.19 201.06C124.494 200.55 124.204 199.651 124.47 198.83L142.63 142.9C142.898 142.077 143.665 141.521 144.53 141.52L203.33 141.52C204.191 141.525 204.953 142.081 205.22 142.9L223.38 198.83C223.644 199.653 223.35 200.552 222.65 201.06L175.09 235.62C174.752 235.871 174.341 236.004 173.92 236ZM128.71 198.68 173.92 231.54 219.13 198.68 201.88 145.51 146 145.51Z" stroke="#040000" stroke-miterlimit="10" fill="#211613"/><path d="M320.24 186.59 320.35 229.79 306.64 225.27 290.93 176.96 320.24 186.59Z" stroke="#040000" stroke-miterlimit="10" fill="#EEE8AA" fill-rule="evenodd"/><path d="M320.45 231.79 320.35 231.79C320.139 231.792 319.93 231.758 319.73 231.69L306 227.17C305.397 226.969 304.926 226.494 304.73 225.89L289 177.57C288.779 176.866 288.963 176.097 289.48 175.57 290.007 175.053 290.776 174.869 291.48 175.09L320.8 184.73C321.615 185.001 322.166 185.761 322.17 186.62L322.28 229.19C322.343 229.398 322.377 229.613 322.38 229.83 322.359 230.892 321.512 231.753 320.45 231.79ZM308.22 223.7 318.35 227 318.25 188 294.04 180Z" stroke="#040000" stroke-miterlimit="10" fill="#211613"/><path d="M306.64 225.27 280.22 216.59 264.52 168.25 290.93 176.96 306.64 225.27Z" stroke="#040000" stroke-miterlimit="10" fill="#808080" fill-rule="evenodd"/><path d="M306.64 227.27C306.426 227.272 306.213 227.238 306.01 227.17L279.6 218.48C278.992 218.288 278.517 217.809 278.33 217.2L262.62 168.87C262.285 167.817 262.867 166.693 263.919 166.358 264.316 166.231 264.743 166.232 265.14 166.36L291.55 175.06C292.156 175.258 292.632 175.734 292.83 176.34L308.36 224.1C308.599 224.443 308.728 224.851 308.73 225.27 308.73 226.375 307.835 227.27 306.73 227.27 306.73 227.27 306.67 227.28 306.64 227.27ZM281.81 215 303.52 222.15 289.35 178.54 267.64 171.38Z" stroke="#040000" stroke-miterlimit="10" fill="#060001"/><path d="M272.69 120.81 290.74 95.76 320.13 136.44 320.24 186.59 290.93 176.96 272.69 120.81Z" stroke="#040000" stroke-miterlimit="10" fill="#EEE8AA" fill-rule="evenodd"/><path d="M320.24 188.59C320.029 188.592 319.82 188.558 319.62 188.49L290.31 178.85C289.702 178.658 289.227 178.179 289.04 177.57L270.8 121.43C270.599 120.824 270.7 120.159 271.07 119.64L289.07 94.64C289.791 93.7453 291.1 93.6041 291.995 94.3246 292.111 94.4181 292.216 94.5239 292.31 94.64L321.71 135.32C321.954 135.658 322.087 136.063 322.09 136.48L322.2 186.01C322.262 186.214 322.296 186.426 322.3 186.64 322.345 187.699 321.523 188.595 320.464 188.64 320.409 188.642 320.354 188.642 320.3 188.64ZM292.51 175.37 318.24 183.83 318.14 137.08 290.74 99.17 274.91 121.17Z" stroke="#040000" stroke-miterlimit="10" fill="#060001"/><path d="M320.35 229.11 320.24 186.59 346.65 195.3 347.89 238.45 320.35 229.11Z" stroke="#040000" stroke-miterlimit="10" fill="#EEE8AA" fill-rule="evenodd"/><path d="M348 240.45 347.9 240.45C347.682 240.453 347.465 240.416 347.26 240.34L319.71 231C318.906 230.724 318.365 229.97 318.36 229.12L318.25 186.6C318.248 185.96 318.553 185.358 319.07 184.98 319.583 184.586 320.261 184.481 320.87 184.7L347.27 193.4C348.068 193.664 348.615 194.4 348.64 195.24L349.87 237.77C349.87 238.08 349.87 238.21 349.87 238.45 349.629 239.392 348.924 240.146 348 240.45ZM322.36 227.67 345.82 235.67 344.7 196.78 322.26 189.38Z" stroke="#040000" stroke-miterlimit="10" fill="#060001"/><path d="M320.13 136.44 346.6 173.04 346.65 195.3 320.24 186.59 320.13 136.44Z" stroke="#040000" stroke-miterlimit="10" fill="#EEE8AA" fill-rule="evenodd"/><path d="M346.65 197.29C346.436 197.291 346.223 197.257 346.02 197.19L319.62 188.49C318.805 188.219 318.254 187.459 318.25 186.6L318.14 136.44C318.141 135.575 318.697 134.808 319.52 134.54 320.343 134.276 321.243 134.57 321.75 135.27L348.22 171.87C348.464 172.208 348.597 172.613 348.6 173.03L348.6 194.67C348.6 195.08 348.6 195.08 348.6 195.3 348.65 196.354 347.836 197.248 346.782 197.298 346.755 197.299 346.727 197.3 346.7 197.3ZM322.24 185.15 344.64 192.54 344.64 173.69 322.19 142.62Z" stroke="#040000" stroke-miterlimit="10" fill="#060001"/><path d="M290.93 176.96 264.52 168.25 256.43 143.36 272.69 120.81 290.93 176.96Z" stroke="#040000" stroke-miterlimit="10" fill="#808080" fill-rule="evenodd"/><path d="M290.93 179C290.719 179.002 290.51 178.968 290.31 178.9L263.89 170.2C263.287 169.999 262.816 169.524 262.62 168.92L254.54 144C254.339 143.394 254.44 142.729 254.81 142.21L271.07 119.66C271.718 118.766 272.969 118.566 273.863 119.214 274.204 119.461 274.459 119.81 274.59 120.21L292.65 175.81C292.89 176.16 293.012 176.576 293 177 293 178.105 292.105 179 291 179ZM266.1 166.67 287.82 173.83 272 125.17 258.65 143.7Z" stroke="#040000" stroke-miterlimit="10" fill="#060001"/><path d="M292.5 95.76 307.76 73.26 320.04 91.33 320.13 136.44 292.5 95.76Z" stroke="#040000" stroke-miterlimit="10" fill="#EEE8AA" fill-rule="evenodd"/><path d="M320.13 138.43C319.493 138.428 318.896 138.124 318.52 137.61L289.12 96.93C288.616 96.2314 288.616 95.2886 289.12 94.59L305.35 72.09C306.062 71.1953 307.364 71.0469 308.259 71.7586 308.381 71.8562 308.492 71.9673 308.59 72.09L321.66 90.16C321.904 90.4976 322.037 90.9032 322.04 91.32L322.14 135.81C322.204 136.014 322.238 136.226 322.24 136.44 322.24 137.545 321.345 138.44 320.24 138.44ZM293.2 95.76 318.12 130.24 318 92 307 76.66Z" stroke="#040000" stroke-miterlimit="10" fill="#060001"/><path d="M320.03 91.33 346.49 127.95 346.6 173.04 320.13 136.44 320.03 91.33Z" stroke="#040000" stroke-miterlimit="10" fill="#EEE8AA" fill-rule="evenodd"/><path d="M346.6 175C345.962 174.996 345.363 174.688 344.99 174.17L318.52 137.57C318.274 137.23 318.141 136.82 318.14 136.4L318.04 91.3C318.041 90.4349 318.597 89.6682 319.42 89.4 320.244 89.129 321.148 89.4197 321.66 90.12L348.11 126.74C348.354 127.078 348.487 127.483 348.49 127.9L348.6 172.37 348.6 173C348.639 174.065 347.807 174.96 346.741 174.999 346.728 174.999 346.714 175 346.7 175 346.669 174.984 346.631 174.984 346.6 175ZM322.13 135.75 344.59 166.81 344.5 128.56 322 97.52Z" stroke="#040000" stroke-miterlimit="10" fill="#060001"/><path d="M256.43 143.36 240.02 92.89 256.28 70.34 272.69 120.81 256.43 143.36Z" stroke="#040000" stroke-miterlimit="10" fill="#EEE8AA" fill-rule="evenodd"/><path d="M256.43 145.36 256.12 145.36C255.383 145.24 254.773 144.72 254.54 144.01L238.13 93.51C237.929 92.9044 238.03 92.2395 238.4 91.72L254.65 69.17C255.111 68.5812 255.848 68.2775 256.59 68.37 257.327 68.4896 257.937 69.0102 258.17 69.72L274.59 120.19C274.788 120.797 274.684 121.462 274.31 121.98L258.05 144.53C257.674 145.051 257.072 145.359 256.43 145.36ZM242.24 93.23 257.11 139 270.48 120.47 255.6 74.7Z" stroke="#040000" stroke-miterlimit="10" fill="#060001"/><path d="M264.31 59.2 280.52 36.68 306.96 73.26 290.74 95.76 264.31 59.2Z" stroke="#040000" stroke-miterlimit="10" fill="#808080" fill-rule="evenodd"/><path d="M290.74 97.76C290.098 97.7593 289.496 97.4506 289.12 96.93L262.69 60.37C262.186 59.6714 262.186 58.7286 262.69 58.03L278.9 35.51C279.278 34.9932 279.88 34.6883 280.52 34.69L280.52 34.69C281.16 34.69 282.52 34.76 282.88 35.28L308.58 72.09C309.084 72.7886 309.084 73.7314 308.58 74.43L292.35 96.93C291.977 97.4478 291.378 97.7561 290.74 97.76ZM266.74 59.2 290.74 92.35 304.5 73.26 280.5 40.1Z" stroke="#040000" stroke-miterlimit="10" fill="#060001"/><path d="M272.69 120.81 256.28 70.34 264.31 59.2 290.74 95.76 272.69 120.81Z" stroke="#040000" stroke-miterlimit="10" fill="#EEE8AA" fill-rule="evenodd"/><path d="M272.69 122.81 272.38 122.81C271.643 122.69 271.033 122.17 270.8 121.46L254.38 71C254.179 70.3944 254.28 69.7295 254.65 69.21L262.65 58.07C263.365 57.1781 264.668 57.0347 265.56 57.7499 265.678 57.8445 265.785 57.9519 265.88 58.07L292.31 94.63C292.814 95.3286 292.814 96.2714 292.31 96.97L274.26 121.97C273.897 122.48 273.316 122.791 272.69 122.81ZM258.49 70.68 273.37 116.45 288.27 95.76 264.27 62.61Z" stroke="#040000" stroke-miterlimit="10" fill="#060001"/><path d="M173.92 234.01 214.88 263.76 237.13 247.57 221.48 199.44 173.92 234.01Z" stroke="#040000" stroke-miterlimit="10" fill="#FF6666" fill-rule="evenodd"/><path d="M237.13 247.57 279.99 216.44 264.34 168.31 221.48 199.44 237.13 247.57Z" stroke="#040000" stroke-miterlimit="10" fill="#808080" fill-rule="evenodd"/><path d="M237.13 249.57C236.922 249.572 236.716 249.538 236.52 249.47 235.914 249.272 235.438 248.796 235.24 248.19L219.59 200.06C219.324 199.239 219.614 198.34 220.31 197.83L263.17 166.7C263.681 166.318 264.347 166.214 264.95 166.42 265.556 166.618 266.032 167.094 266.23 167.7L281.88 215.83C282.146 216.651 281.856 217.55 281.16 218.06L238.3 249.19C237.96 249.436 237.55 249.569 237.13 249.57ZM223.83 200.21 238.18 244.35 277.64 215.68 263.29 171.54Z" stroke="#040000" stroke-miterlimit="10" fill="#060001"/><path d="M214.88 263.76 173.92 234.01 131.1 265.12 172.06 294.86 214.88 263.76Z" stroke="#040000" stroke-miterlimit="10" fill="#FF6666" fill-rule="evenodd"/><path d="M172.06 296.86C171.64 296.859 171.23 296.726 170.89 296.48L129.89 266.74C129.369 266.364 129.061 265.762 129.06 265.12 129.064 264.482 129.372 263.883 129.89 263.51L172.71 232.39C173.409 231.886 174.351 231.886 175.05 232.39L216.05 262.15C216.564 262.526 216.868 263.123 216.87 263.76 216.872 264.4 216.567 265.002 216.05 265.38L173.23 296.48C172.89 296.726 172.48 296.859 172.06 296.86ZM134.5 265.12 172.06 292.4 211.48 263.76 173.92 236.47Z" stroke="#040000" stroke-miterlimit="10" fill="#060001"/><path d="M126.37 199.44 110 249.79 131.1 265.12 173.92 234.01 126.37 199.44Z" stroke="#040000" stroke-miterlimit="10" fill="#FF6666" fill-rule="evenodd"/><path d="M221.48 199.44 264.34 168.31 256.28 143.52 203.33 143.52 221.48 199.44Z" stroke="#040000" stroke-miterlimit="10" fill="#1B1B1B" fill-rule="evenodd"/><path d="M144.53 143.52 91.68 143.52 83.61 168.38 126.37 199.44 144.53 143.52Z" stroke="#040000" stroke-miterlimit="10" fill="#FF6666" fill-rule="evenodd"/><path d="M83.61 168.38 67.25 218.72 110 249.79 126.37 199.44 83.61 168.38Z" stroke="#040000" stroke-miterlimit="10" fill="#FF6666" fill-rule="evenodd"/><path d="M256.28 143.52 239.95 93.27 186.99 93.27 203.33 143.52 256.28 143.52Z" stroke="#040000" stroke-miterlimit="10" fill="#EE0000" fill-rule="evenodd"/><path d="M160.86 93.27 108.02 93.27 91.68 143.52 144.53 143.52 160.86 93.27Z" stroke="#040000" stroke-miterlimit="10" fill="#808080" fill-rule="evenodd"/><path d="M203.33 143.52 186.99 93.27 160.86 93.27 144.53 143.52 203.33 143.52Z" stroke="#040000" stroke-miterlimit="10" fill="#1B1B1B" fill-rule="evenodd"/><path d="M214.72 292.27C200.78 302.33 186.873 312.37 173 322.39 173.13 327.18 173.3 331.93 173.45 336.68 187.397 332.14 201.32 327.61 215.22 323.09 215.13 318.02 215.06 312.88 214.97 307.78 214.88 302.68 214.79 297.45 214.72 292.27Z" stroke="#040000" stroke-miterlimit="10" fill="#EE0000" fill-rule="evenodd"/><path d="M173.44 338.67C172.362 338.671 171.478 337.817 171.44 336.74L171.35 334.07C171.22 330.21 171.09 326.34 170.99 322.44 170.972 321.782 171.279 321.158 171.81 320.77L213.54 290.65C214.146 290.215 214.944 290.153 215.61 290.49 216.276 290.826 216.7 291.504 216.71 292.25L217.2 323.05C217.217 323.93 216.657 324.717 215.82 324.99 205.327 328.39 194.837 331.8 184.35 335.22L174.05 338.57C173.854 338.637 173.647 338.671 173.44 338.67ZM175 323.39C175.1 326.92 175.22 330.44 175.33 333.94L175.33 333.94 183.1 331.42C193.14 328.153 203.163 324.893 213.17 321.64L212.77 296.12Z" stroke="#040000" stroke-miterlimit="10" fill="#211613"/><path d="M173.44 336.68C173.74 345.74 174.017 354.76 174.27 363.74 188.09 359.247 201.877 354.747 215.63 350.24 215.51 341.24 215.34 332.24 215.21 323.09 201.303 327.603 187.38 332.133 173.44 336.68Z" stroke="#040000" stroke-miterlimit="10" fill="#EE0000" fill-rule="evenodd"/><path d="M174.27 365.73C173.188 365.73 172.302 364.871 172.27 363.79 172.03 354.79 171.74 345.79 171.45 336.74 171.406 335.838 171.971 335.019 172.83 334.74L183.14 331.38 214.59 321.15C215.64 320.807 216.769 321.381 217.112 322.431 217.174 322.621 217.207 322.82 217.21 323.02L217.63 350.17C217.642 351.046 217.083 351.828 216.25 352.1L174.89 365.59C174.693 365.671 174.483 365.718 174.27 365.73ZM175.49 338.11C175.74 345.78 175.98 353.4 176.19 361.01L213.61 348.8 213.25 325.8C203.63 328.92 194.003 332.053 184.37 335.2Z" stroke="#040000" stroke-miterlimit="10" fill="#060001"/><path d="M263.47 307.4 293.68 266.73 278.75 261.86C273.75 260.24 268.7 258.62 263.67 256.96L239.14 274.65C231.013 280.53 222.873 286.403 214.72 292.27 214.79 297.45 214.88 302.63 214.96 307.78 215.04 312.93 215.12 318.02 215.21 323.09 231.31 317.87 247.397 312.64 263.47 307.4Z" stroke="#040000" stroke-miterlimit="10" fill="#EE0000" fill-rule="evenodd"/><path d="M215.21 325.09C214.793 325.087 214.388 324.954 214.05 324.71 213.537 324.345 213.226 323.76 213.21 323.13L212.72 292.3C212.719 291.649 213.027 291.037 213.55 290.65 221.697 284.79 229.847 278.907 238 273L262.53 255.3C263.049 254.93 263.714 254.829 264.32 255.03L294.32 264.79C295.372 265.127 295.951 266.253 295.614 267.305 295.548 267.511 295.448 267.706 295.32 267.88L265.07 308.6C264.812 308.928 264.465 309.175 264.07 309.31L215.83 325C215.63 325.064 215.42 325.094 215.21 325.09ZM216.73 293.29 217.16 320.36 262.24 305.7 290.42 267.76 264 259.18 240.3 276.27C232.46 281.937 224.603 287.61 216.73 293.29Z" stroke="#040000" stroke-miterlimit="10" fill="#040000"/><path d="M173 322.39C186.88 312.39 200.79 302.35 214.73 292.27 214.59 282.883 214.453 273.43 214.32 263.91 200.2 274.117 186.137 284.3 172.13 294.46 172.41 303.85 172.7 313.14 173 322.39Z" stroke="#040000" stroke-miterlimit="10" fill="#EE0000" fill-rule="evenodd"/><path d="M173 324.39C171.918 324.391 171.032 323.531 171 322.45L170.12 294.52C170.101 293.857 170.412 293.228 170.95 292.84L213.14 262.29C213.742 261.855 214.535 261.79 215.2 262.12 215.866 262.456 216.29 263.134 216.3 263.88L216.72 292.24C216.732 292.896 216.422 293.516 215.89 293.9L174.16 324C173.824 324.248 173.418 324.384 173 324.39ZM174.16 295.46 174.88 318.58 212.72 291.27 212.37 267.77Z" stroke="#040000" stroke-miterlimit="10" fill="#060001"/><path d="M263.67 257C254.54 254 245.39 251.06 236.15 248.11 228.863 253.403 221.583 258.683 214.31 263.95 214.43 273.47 214.567 282.923 214.72 292.31 222.867 286.45 231.007 280.577 239.14 274.69Z" stroke="#040000" stroke-miterlimit="10" fill="#EE0000" fill-rule="evenodd"/><path d="M214.72 294.27C214.408 294.271 214.099 294.199 213.82 294.06 213.157 293.726 212.733 293.052 212.72 292.31L212.31 263.93C212.304 263.281 212.614 262.67 213.14 262.29L235 246.46C235.518 246.098 236.173 245.991 236.78 246.17 245.247 248.883 253.66 251.6 262.02 254.32L264.3 255.07C265.014 255.3 265.539 255.91 265.66 256.65 265.781 257.396 265.472 258.146 264.86 258.59L240.33 276.27C232.203 282.15 224.063 288.027 215.91 293.9 215.563 294.147 215.146 294.277 214.72 294.27ZM216.32 264.91 216.66 288.42C223.773 283.3 230.887 278.16 238 273L259.34 257.61C251.78 255.203 244.167 252.76 236.5 250.28Z" stroke="#040000" stroke-miterlimit="10" fill="#060001"/><path d="M215.21 323.09C215.34 332.2 215.51 341.25 215.63 350.24 222.697 347.92 229.76 345.613 236.82 343.32 245.66 331.4 254.543 319.427 263.47 307.4 247.41 312.613 231.323 317.843 215.21 323.09Z" stroke="#040000" stroke-miterlimit="10" fill="#EE0000" fill-rule="evenodd"/><path d="M215.63 352.24C215.214 352.24 214.809 352.111 214.47 351.87 213.958 351.501 213.65 350.911 213.64 350.28L213.21 323.12C213.202 322.247 213.76 321.47 214.59 321.2L262.85 305.5C263.903 305.166 265.027 305.748 265.362 306.801 265.556 307.414 265.444 308.084 265.06 308.6L238.43 344.51C238.176 344.842 237.827 345.09 237.43 345.22 230.377 347.507 223.317 349.813 216.25 352.14 216.05 352.206 215.841 352.24 215.63 352.24ZM217.23 324.53 217.59 347.53C223.59 345.53 229.59 343.6 235.59 341.65L258.13 311.26Z" stroke="#040000" stroke-miterlimit="10" fill="#060001"/><path d="M293.68 266.73C302.853 254.377 312.073 241.95 321.34 229.45 316.92 227.96 312.48 226.45 308.04 224.96 293.22 235.627 278.43 246.293 263.67 256.96 268.67 258.62 273.76 260.24 278.75 261.86Z" stroke="#040000" stroke-miterlimit="10" fill="#EE0000" fill-rule="evenodd"/><path d="M293.68 268.72C293.466 268.722 293.253 268.688 293.05 268.62L263.05 258.86C262.341 258.622 261.824 258.009 261.71 257.27 261.593 256.527 261.902 255.782 262.51 255.34L306.88 223.34C307.402 222.966 308.071 222.866 308.68 223.07 312.1 224.2 315.5 225.36 318.91 226.51L321.99 227.57C322.595 227.773 323.067 228.252 323.26 228.86 323.449 229.467 323.337 230.128 322.96 230.64L295.29 267.92C294.91 268.426 294.313 268.723 293.68 268.72ZM268 256.29 292.9 264.39 318.08 230.47 317.59 230.29 308.34 227.18Z" stroke="#040000" stroke-miterlimit="10" fill="#060001"/><path d="M308 225C299 221.91 289.91 218.83 280.75 215.77L236.11 248.11C245.35 251.11 254.5 254.04 263.63 257 278.41 246.333 293.2 235.667 308 225Z" stroke="#040000" stroke-miterlimit="10" fill="#808080" fill-rule="evenodd"/><path d="M236.82 343.32C251.127 338.653 265.423 333.987 279.71 329.32 288.643 317.4 297.643 305.4 306.71 293.32L263.47 307.4C254.543 319.413 245.66 331.387 236.82 343.32Z" stroke="#040000" stroke-miterlimit="10" fill="#EE0000" fill-rule="evenodd"/><path d="M236.82 345.32C235.715 345.321 234.819 344.427 234.817 343.323 234.817 342.893 234.955 342.475 235.21 342.13L261.86 306.21C262.112 305.878 262.462 305.633 262.86 305.51L306.12 291.44C306.946 291.171 307.851 291.466 308.36 292.17 308.878 292.875 308.878 293.835 308.36 294.54 299.293 306.587 290.293 318.587 281.36 330.54 281.105 330.869 280.756 331.112 280.36 331.24 266.093 335.867 251.797 340.533 237.47 345.24 237.26 345.305 237.04 345.332 236.82 345.32ZM264.69 309.1 242.16 339.47C254.293 335.47 266.403 331.523 278.49 327.63 286.05 317.543 293.663 307.397 301.33 297.19Z" stroke="#040000" stroke-miterlimit="10" fill="#060001"/><path d="M320.24 275.34C329.413 263.113 338.63 250.817 347.89 238.45 339.1 235.45 330.24 232.45 321.34 229.45 312.073 241.963 302.853 254.39 293.68 266.73 302.57 269.63 311.42 272.48 320.24 275.34Z" stroke="#040000" stroke-miterlimit="10" fill="#EE0000" fill-rule="evenodd"/><path d="M320.24 277.33C320.033 277.329 319.828 277.299 319.63 277.24L313.24 275.17C306.527 272.997 299.8 270.813 293.06 268.62 292.45 268.425 291.97 267.949 291.77 267.34 291.579 266.723 291.691 266.052 292.07 265.53L319.74 228.27C320.254 227.573 321.158 227.287 321.98 227.56 327.853 229.56 333.697 231.54 339.51 233.5L348.51 236.56C349.562 236.897 350.141 238.023 349.804 239.075 349.738 239.281 349.638 239.476 349.51 239.65L321.86 276.54C321.476 277.046 320.875 277.339 320.24 277.33ZM296.93 265.69 314.47 271.37 319.47 273 344.61 239.46 338.2 237.28C332.83 235.46 327.45 233.62 322.05 231.81Z" stroke="#040000" stroke-miterlimit="10" fill="#060001"/><path d="M263.47 307.4 306.73 293.33C311.223 287.33 315.727 281.33 320.24 275.33 311.42 272.47 302.57 269.62 293.68 266.72Z" stroke="#040000" stroke-miterlimit="10" fill="#EE0000" fill-rule="evenodd"/><path d="M263.47 309.4C262.365 309.401 261.469 308.507 261.467 307.403 261.467 306.973 261.605 306.555 261.86 306.21L292.07 265.53C292.584 264.846 293.476 264.564 294.29 264.83 301.01 267.023 307.7 269.193 314.36 271.34L320.86 273.43C321.914 273.761 322.5 274.883 322.17 275.937 322.101 276.154 321.997 276.358 321.86 276.54L308.35 294.54C308.093 294.865 307.745 295.105 307.35 295.23L264.08 309.3C263.884 309.367 263.677 309.401 263.47 309.4ZM294.42 269.07 268.8 303.57 305.51 291.63 317 276.37 313.17 275.13C306.93 273.123 300.68 271.103 294.42 269.07Z" stroke="#040000" stroke-miterlimit="10" fill="#060001"/><path d="M84 258.74C70.2333 248.74 56.3533 238.697 42.36 228.61L28.91 233.27C37.81 245.09 46.66 256.857 55.46 268.57 60.22 266.95 64.98 265.29 69.72 263.67 74.46 262.05 79.24 260.39 84 258.74Z" stroke="#040000" stroke-miterlimit="10" fill="#0000F2" fill-rule="evenodd"/><path d="M55.46 270.56C54.8322 270.562 54.2398 270.27 53.86 269.77L27.32 234.47C26.9391 233.964 26.8204 233.307 27 232.7 27.1859 232.087 27.6544 231.6 28.26 231.39L41.7 226.72C42.3175 226.506 43.0008 226.606 43.53 226.99 57.53 237.097 71.41 247.143 85.17 257.13 86.0621 257.781 86.2573 259.033 85.606 259.925 85.3688 260.25 85.0391 260.495 84.66 260.63L56.11 270.45C55.9017 270.525 55.6815 270.563 55.46 270.56ZM32.16 234.26 56.16 266.21 79.7 258.11C67.2333 249.063 54.6667 239.973 42 230.84Z" stroke="#040000" stroke-miterlimit="10" fill="#060001"/><path d="M28.91 233.27C20.27 236.27 11.62 239.27 2.96 242.21 11.98 254.023 20.9167 265.753 29.77 277.4L55.46 268.57C46.6733 256.857 37.8233 245.09 28.91 233.27Z" stroke="#040000" stroke-miterlimit="10" fill="#0000F2" fill-rule="evenodd"/><path d="M29.77 279.39C29.1458 279.389 28.5577 279.097 28.18 278.6L1.38 243.42C0.769648 242.434 0.463561 241.289 0.5 240.13 0.5 239.4 0.5 239.41 0.91 239.28 7.53 237.28 15.38 235.83 21.91 233.58L28.27 231.39C29.0852 231.11 29.9878 231.384 30.51 232.07L57.06 267.37C57.4407 267.88 57.5558 268.541 57.37 269.15 57.1814 269.759 56.7133 270.242 56.11 270.45L30.42 279.28C30.2119 279.356 29.9916 279.393 29.77 279.39ZM6.23 243.2 30.49 275 52.21 267.53 28.21 235.6 23.21 237.31Z" stroke="#040000" stroke-miterlimit="10" fill="#060001"/><path d="M85.59 308.65C101.123 313.59 116.583 318.517 131.97 323.43 131.88 318.43 131.74 313.36 131.66 308.29 131.58 303.22 131.44 298.14 131.35 293.02 123.54 287.38 115.7 281.68 107.83 276.02L84 258.74C79.24 260.39 74.47 262.02 69.72 263.67 64.97 265.32 60.22 266.95 55.46 268.57 65.58 282.043 75.6233 295.403 85.59 308.65Z" stroke="#040000" stroke-miterlimit="10" fill="#0000F2" fill-rule="evenodd"/><path d="M132 325.43C131.797 325.429 131.595 325.399 131.4 325.34 119.247 321.453 107.057 317.567 94.83 313.68L85 310.55C84.6019 310.427 84.2522 310.182 84 309.85L53.86 269.77C53.476 269.257 53.3608 268.592 53.55 267.98 53.7386 267.37 54.2067 266.888 54.81 266.68L83.35 256.85C83.9661 256.642 84.6449 256.746 85.17 257.13L132.52 291.4C133.029 291.767 133.337 292.352 133.35 292.98L133.66 308.25C133.713 311.177 133.773 314.09 133.84 316.99L133.97 323.4C133.98 324.04 133.682 324.646 133.17 325.03 132.832 325.284 132.422 325.424 132 325.43ZM86.8 306.94 96 309.87 129.91 320.68 129.84 317.09C129.76 314.17 129.7 311.247 129.66 308.32L129.37 294.06 83.67 261 58.67 269.61Z" stroke="#040000" stroke-miterlimit="10" fill="#060001"/><path d="M42.36 228.61C56.36 238.717 70.24 248.76 84 258.74 92.5933 255.787 101.18 252.833 109.76 249.88L68.33 219.63C59.69 222.643 51.0333 225.637 42.36 228.61Z" stroke="#040000" stroke-miterlimit="10" fill="#0000F2" fill-rule="evenodd"/><path d="M84 260.74C83.5798 260.739 83.1704 260.606 82.83 260.36 69.0633 250.36 55.1833 240.317 41.19 230.23 40.5888 229.792 40.2807 229.056 40.39 228.32 40.4974 227.582 41.0062 226.966 41.71 226.72L43.23 226.2C51.4 223.38 59.55 220.58 67.67 217.74 68.2875 217.526 68.9708 217.626 69.5 218.01L110.93 248.27C111.819 248.925 112.01 250.177 111.355 251.066 111.115 251.392 110.782 251.637 110.4 251.77L84.65 260.63C84.4406 260.701 84.2212 260.738 84 260.74ZM46.65 229.24C59.3167 238.387 71.88 247.48 84.34 256.52L105.49 249.24 68 221.86C60.8933 224.333 53.7767 226.793 46.65 229.24Z" stroke="#040000" stroke-miterlimit="10" fill="#060001"/><path d="M131.35 293C131.19 283.8 131.007 274.547 130.8 265.24 123.8 260.127 116.8 255 109.8 249.86 101.2 252.827 92.6133 255.78 84.04 258.72L107.83 276C115.7 281.68 123.54 287.38 131.35 293Z" stroke="#040000" stroke-miterlimit="10" fill="#0000F2" fill-rule="evenodd"/><path d="M131.35 295C130.93 294.999 130.52 294.866 130.18 294.62L82.83 260.36C81.9355 259.712 81.7356 258.462 82.3836 257.567 82.6245 257.234 82.9619 256.984 83.35 256.85L109.11 248C109.725 247.789 110.403 247.89 110.93 248.27L131.93 263.65C132.433 264.017 132.736 264.598 132.75 265.22 132.95 274.52 133.133 283.773 133.3 292.98 133.315 293.737 132.901 294.438 132.23 294.79 131.956 294.924 131.655 294.996 131.35 295ZM88.29 259.38 129.29 289.06C129.15 281.5 129 273.91 128.84 266.29L109.43 252.11Z" stroke="#040000" stroke-miterlimit="10" fill="#060001"/><path d="M55.46 268.57 29.77 277.4C34.31 283.353 38.84 289.293 43.36 295.22 57.5067 299.74 71.5833 304.217 85.59 308.65 75.63 295.39 65.5867 282.03 55.46 268.57Z" stroke="#040000" stroke-miterlimit="10" fill="#0000F2" fill-rule="evenodd"/><path d="M85.59 310.65C85.3826 310.65 85.1765 310.616 84.98 310.55L42.75 297.12C42.3501 297.006 41.9988 296.763 41.75 296.43L28.18 278.6C27.5164 277.717 27.6942 276.463 28.5772 275.8 28.7421 275.676 28.9252 275.578 29.12 275.51L54.81 266.68C55.6303 266.398 56.539 266.676 57.06 267.37L87.19 307.45C87.8527 308.334 87.6737 309.587 86.79 310.25 86.4438 310.51 86.0227 310.65 85.59 310.65ZM44.59 293.51 80.27 304.85 54.73 270.93 33 278.39Z" stroke="#040000" stroke-miterlimit="10" fill="#060001"/><path d="M132 323.43C145.78 327.803 159.507 332.173 173.18 336.54 173.14 332.107 173.1 327.657 173.06 323.19L131.35 293C131.44 298.12 131.57 303.22 131.66 308.27 131.75 313.32 131.88 318.41 132 323.43Z" stroke="#040000" stroke-miterlimit="10" fill="#0000F2" fill-rule="evenodd"/><path d="M173.15 338.53C172.943 338.529 172.738 338.499 172.54 338.44 158.853 334.067 145.13 329.7 131.37 325.34 130.554 325.079 129.995 324.327 129.98 323.47L129.85 317.09C129.77 314.17 129.71 311.247 129.67 308.32L129.35 293.06C129.335 291.956 130.217 291.048 131.322 291.032 131.751 291.026 132.172 291.159 132.52 291.41L174.2 321.57C174.715 321.941 175.023 322.535 175.03 323.17L175.14 336.52C175.14 337.625 174.245 338.52 173.14 338.52ZM133.94 322C146.38 325.953 158.777 329.9 171.13 333.84L171.04 324.26 133.42 297 133.66 308.26C133.713 311.187 133.773 314.1 133.84 317Z" stroke="#040000" stroke-miterlimit="10" fill="#060001"/><path d="M173 323.19C172.92 314.15 172.837 305.06 172.75 295.92 158.857 285.793 144.857 275.573 130.75 265.26 130.95 274.593 131.133 283.847 131.3 293.02Z" stroke="#040000" stroke-miterlimit="10" fill="#0000F2" fill-rule="evenodd"/><path d="M173 325.18C172.579 325.184 172.168 325.051 171.83 324.8L130.15 294.64C129.641 294.273 129.333 293.688 129.32 293.06 129.16 283.86 128.98 274.607 128.78 265.3 128.765 264.543 129.179 263.842 129.85 263.49 130.526 263.154 131.332 263.216 131.95 263.65L173.95 294.31C174.458 294.681 174.762 295.27 174.77 295.9L175.02 323.17C175.023 323.925 174.602 324.617 173.93 324.96 173.642 325.107 173.323 325.183 173 325.18ZM133.33 292 171 319.25 170.79 296.95 132.89 269.25C133.043 276.863 133.19 284.447 133.33 292Z" stroke="#040000" stroke-miterlimit="10" fill="#060001"/><path d="M43.36 295.22C52.4533 307.173 61.4767 319.027 70.43 330.78L112.12 343.93C103.373 332.25 94.53 320.49 85.59 308.65 71.5633 304.217 57.4867 299.74 43.36 295.22Z" stroke="#040000" stroke-miterlimit="10" fill="#0000F2" fill-rule="evenodd"/><path d="M112.12 345.92C111.917 345.921 111.714 345.89 111.52 345.83L69.83 332.68C69.4311 332.564 69.0804 332.322 68.83 331.99 59.89 320.23 50.8667 308.377 41.76 296.43 41.2513 295.729 41.2513 294.781 41.76 294.08 42.2594 293.369 43.1605 293.062 43.99 293.32L86.2 306.75C86.5981 306.873 86.9478 307.118 87.2 307.45 96.1067 319.29 104.95 331.05 113.73 342.73 114.387 343.618 114.2 344.87 113.313 345.527 112.97 345.781 112.556 345.918 112.13 345.92ZM71.64 329.07 106.79 340.15C99.37 330.27 91.9 320.34 84.38 310.36L48.78 299C56.46 309.107 64.08 319.13 71.64 329.07Z" stroke="#040000" stroke-miterlimit="10" fill="#060001"/><path d="M132.5 350.35C146.167 354.63 159.793 358.917 173.38 363.21 173.32 354.35 173.243 345.46 173.15 336.54 159.45 332.18 145.733 327.81 132 323.43 132.16 332.43 132.327 341.403 132.5 350.35Z" stroke="#040000" stroke-miterlimit="10" fill="#0000F2" fill-rule="evenodd"/><path d="M173.23 365.17C173.03 365.17 173.97 365.73 173.77 365.67L168.77 363.85C156.497 359.99 144.163 356.117 131.77 352.23 130.95 351.972 130.386 351.219 130.37 350.36L129.84 323.44C129.83 322.8 130.128 322.194 130.64 321.81 131.144 321.399 131.827 321.281 132.44 321.5 146.22 325.873 159.947 330.24 173.62 334.6 174.443 334.864 175.004 335.626 175.01 336.49L175.01 337.16C175.097 345.867 175.173 354.533 175.24 363.16 175.244 363.798 174.943 364.4 174.43 364.78 174.083 365.036 173.662 365.173 173.23 365.17ZM134.32 348.85C146.233 352.57 158.107 356.303 169.94 360.05L171.21 360.45C171.16 352.98 171.09 345.5 171.02 337.97 158.66 334.03 146.28 330.09 133.88 326.15Z" stroke="#040000" stroke-miterlimit="10" fill="#060001"/><path d="M85.59 308.65C94.53 320.49 103.373 332.25 112.12 343.93 118.93 346.08 125.73 348.2 132.5 350.35 132.333 341.397 132.157 332.423 131.97 323.43 116.57 318.477 101.11 313.55 85.59 308.65Z" stroke="#040000" stroke-miterlimit="10" fill="#0000F2" fill-rule="evenodd"/><path d="M132.5 352.35C132.297 352.349 132.095 352.319 131.9 352.26L111.52 345.83C111.122 345.707 110.772 345.462 110.52 345.13 101.753 333.45 92.9133 321.69 84 309.85 83.4913 309.149 83.4913 308.201 84 307.5 84.5035 306.789 85.4097 306.485 86.24 306.75L96.12 309.89C108.32 313.777 120.487 317.657 132.62 321.53 133.432 321.795 133.987 322.546 134 323.4L134.53 350.32C134.54 350.96 134.242 351.566 133.73 351.95 133.376 352.216 132.943 352.357 132.5 352.35ZM113.33 342.22 130.45 347.62 130 324.9 94.86 313.7 91 312.46C98.4733 322.433 105.917 332.353 113.33 342.22Z" stroke="#040000" stroke-miterlimit="10" fill="#060001"/><path d="M75.86 119.94C81.1533 103.653 86.4433 87.32 91.73 70.94 88.9367 67.06 86.1367 63.1867 83.33 59.32 74.9033 71.24 66.4833 83.1333 58.07 95 61.07 99.17 64.01 103.33 66.95 107.46Z" stroke="#040000" stroke-miterlimit="10" fill="#1B1B1B" fill-rule="evenodd"/><path d="M75.86 121.93C75.2146 121.933 74.6076 121.623 74.23 121.1L56.44 96.17C55.9504 95.4778 55.9504 94.5522 56.44 93.86L81.7 58.16C82.0713 57.6385 82.6698 57.3262 83.31 57.32 83.84 57.13 84.56 57.61 84.94 58.14 87.7533 62 90.5567 65.8767 93.35 69.77 93.7205 70.2853 93.8244 70.9458 93.63 71.55L91.53 78C86.9367 92.2133 82.3433 106.387 77.75 120.52 77.5183 121.237 76.9038 121.762 76.16 121.88ZM60.52 95 75.18 115.54C79.3733 102.667 83.56 89.7533 87.74 76.8L89.52 71.28C87.4733 68.4267 85.4167 65.58 83.35 62.74Z" stroke="#040000" stroke-miterlimit="10" fill="#211613"/><path d="M83.33 59.31C77.9967 51.8567 72.6633 44.3867 67.33 36.9 58.9 48.9 50.52 60.8 42.16 72.68 47.4933 80.12 52.8267 87.5633 58.16 95.01 66.5133 83.13 74.9033 71.23 83.33 59.31Z" stroke="#040000" stroke-miterlimit="10" fill="#808080" fill-rule="evenodd"/><path d="M58.07 97C57.4263 96.997 56.8234 96.6844 56.45 96.16L40.45 73.83C39.9604 73.1378 39.9604 72.2122 40.45 71.52L65.65 35.76C66.0232 35.229 66.6309 34.912 67.28 34.91L67.28 34.91C67.9219 34.9107 68.5245 35.2194 68.9 35.74 74.2333 43.2267 79.5667 50.6967 84.9 58.15 85.3944 58.8443 85.3944 59.7757 84.9 60.47L59.7 96.17C59.3266 96.6944 58.7237 97.007 58.08 97.01ZM44.57 72.67 58.06 91.57 80.88 59.32C76.3467 53.0067 71.82 46.6733 67.3 40.32Z" stroke="#040000" stroke-miterlimit="10" fill="#060001"/><path d="M29 136.16C28.8933 152.893 28.7733 169.643 28.64 186.41 33.44 184.79 38.26 183.13 43.07 181.53 47.88 179.93 52.73 178.23 57.57 176.61 60.63 167.19 63.6833 157.76 66.73 148.32 69.7767 138.88 72.8367 129.42 75.91 119.94L67 107.47C64 103.34 61 99.18 58.07 95 48.3433 108.767 38.6533 122.487 29 136.16Z" stroke="#040000" stroke-miterlimit="10" fill="#00D800" fill-rule="evenodd"/><path d="M28.59 188.4C28.1698 188.399 27.7604 188.266 27.42 188.02 26.9003 187.64 26.5951 187.034 26.6 186.39 26.7333 169.61 26.85 152.86 26.95 136.14 26.9539 135.731 27.083 135.333 27.32 135L56.44 93.86C57.1447 92.9598 58.4457 92.8013 59.3459 93.5059 59.4778 93.6092 59.5967 93.7281 59.7 93.86L77.49 118.77C77.8538 119.285 77.9539 119.94 77.76 120.54 74.7467 129.92 71.73 139.253 68.71 148.54 65.53 158.38 62.49 167.8 59.41 177.22 59.216 177.822 58.7487 178.297 58.15 178.5L51.36 180.8C48.78 181.68 46.22 182.55 43.65 183.41 40.51 184.41 37.36 185.53 34.22 186.6L29.22 188.29C29.0173 188.36 28.8045 188.397 28.59 188.4ZM30.93 136.8C30.83 152.387 30.7233 167.993 30.61 183.62L32.93 182.83C36.08 181.76 39.24 180.68 42.39 179.63 44.94 178.78 47.51 177.91 50.08 177.03L55.93 175.03C58.89 165.917 61.84 156.8 64.78 147.68 67.78 138.34 70.78 129.3 73.65 120.26L58.08 98.46Z" stroke="#040000" stroke-miterlimit="10" fill="#060001"/><path d="M91.73 70.93C86.3967 87.31 81.1067 103.643 75.86 119.93 81.1933 127.47 86.5633 134.997 91.97 142.51 97.27 126.197 102.583 109.837 107.91 93.43 102.5 86 97.1 78.42 91.73 70.93Z" stroke="#040000" stroke-miterlimit="10" fill="#808080" fill-rule="evenodd"/><path d="M92 144.52C91.3528 144.52 90.7454 144.207 90.37 143.68L74.23 121.09C73.8662 120.575 73.7661 119.92 73.96 119.32 78.54 105.22 83.12 91.0833 87.7 76.91L89.83 70.32C90.1743 69.2705 91.3042 68.6987 92.3537 69.043 92.7541 69.1743 93.1028 69.4288 93.35 69.77L96.13 73.65C100.59 79.85 105.05 86.08 109.52 92.27 109.902 92.7807 110.006 93.4468 109.8 94.05L93.86 143.14C93.6252 143.853 93.0113 144.374 92.27 144.49ZM78.1 119.59 91.32 138.14 105.72 93.79C101.41 87.86 97.15 81.9 92.89 76L92.41 75.34 91.49 78.17C87.0233 92.0033 82.55 105.81 78.07 119.59Z" stroke="#040000" stroke-miterlimit="10" fill="#060001"/><path d="M57.52 176.61C66.2467 173.677 74.9967 170.72 83.77 167.74 86.51 159.35 89.25 150.92 91.97 142.52 86.6367 134.993 81.2667 127.467 75.86 119.94 72.8067 129.433 69.7467 138.893 66.68 148.32 63.6133 157.747 60.56 167.177 57.52 176.61Z" stroke="#040000" stroke-miterlimit="10" fill="#00D800" fill-rule="evenodd"/><path d="M57.52 178.61C56.4154 178.607 55.5221 177.71 55.5247 176.605 55.5252 176.4 55.5573 176.196 55.62 176 58.68 166.58 61.7333 157.147 64.78 147.7L64.93 147.23C67.9367 137.97 70.9367 128.67 73.93 119.33 74.1758 118.617 74.8023 118.102 75.55 118 76.2975 117.902 77.0397 118.215 77.49 118.82L93.6 141.36C93.9671 141.877 94.0672 142.537 93.87 143.14 91.1433 151.54 88.41 159.943 85.67 168.35 85.478 168.95 85.0149 169.424 84.42 169.63 75.64 172.623 66.8833 175.583 58.15 178.51 57.947 178.578 57.7341 178.612 57.52 178.61ZM76.52 124.33C73.9267 132.403 71.3233 140.447 68.71 148.46 65.94 157.06 63.28 165.28 60.62 173.46 67.79 171.05 74.97 168.64 82.16 166.18 84.7 158.42 87.2267 150.65 89.74 142.87Z" stroke="#040000" stroke-miterlimit="10" fill="#060001"/><path d="M58.07 95C52.7367 87.5533 47.4033 80.11 42.07 72.67 37.8233 78.7567 33.5533 84.8433 29.26 90.93 29.16 106.02 29.06 121.07 28.95 136.16 38.63 122.46 48.3367 108.74 58.07 95Z" stroke="#040000" stroke-miterlimit="10" fill="#00D800" fill-rule="evenodd"/><path d="M29 138.15C28.7901 138.15 28.5812 138.12 28.38 138.06 27.5504 137.79 26.9919 137.013 27 136.14L27.31 90.91C27.3139 90.5011 27.443 90.1032 27.68 89.77 31.5533 84.31 35.4133 78.84 39.26 73.36L40.54 71.53C40.9132 70.999 41.5209 70.682 42.17 70.68L42.17 70.68C42.8172 70.6797 43.4246 70.9927 43.8 71.52L59.69 93.85C60.1844 94.5443 60.1844 95.4757 59.69 96.17L30.58 137.31C30.2149 137.823 29.6295 138.134 29 138.15ZM31.3 91.57 31 129.82 55.62 95 42.14 76.13C38.5067 81.2833 34.8767 86.43 31.25 91.57Z" stroke="#040000" stroke-miterlimit="10" fill="#060001"/><path d="M28.59 186.41C28.49 201.41 28.4 216.51 28.29 231.54L41.12 227.32C46.5733 210.44 52.04 193.537 57.52 176.61 52.68 178.23 47.83 179.92 43.02 181.53 38.21 183.14 33.39 184.79 28.59 186.41Z" stroke="#040000" stroke-miterlimit="10" fill="#00D800" fill-rule="evenodd"/><path d="M28.29 233.54C27.8663 233.542 27.4532 233.408 27.11 233.16 26.5978 232.774 26.2947 232.171 26.29 231.53L26.6 186.39C26.6121 185.527 27.1765 184.769 28 184.51L33 182.83C36.14 181.76 39.3 180.68 42.45 179.63 45 178.78 47.57 177.91 50.13 177.03L56.95 174.72C57.6527 174.507 58.4156 174.686 58.95 175.19 59.4739 175.713 59.6662 176.482 59.45 177.19L43 227.93C42.8019 228.536 42.3264 229.012 41.72 229.21L28.89 233.44C28.6968 233.506 28.4941 233.54 28.29 233.54ZM30.58 187.84 30.3 228.77 39.53 225.77 54.4 179.77 51.4 180.77C48.82 181.65 46.26 182.52 43.69 183.38 40.55 184.38 37.4 185.5 34.26 186.57Z" stroke="#040000" stroke-miterlimit="10" fill="#060001"/><path d="M41.12 227.32C49.7867 224.46 58.4967 221.573 67.25 218.66 72.7633 201.72 78.27 184.747 83.77 167.74 75.0033 170.727 66.2533 173.683 57.52 176.61 52.0533 193.537 46.5867 210.44 41.12 227.32Z" stroke="#040000" stroke-miterlimit="10" fill="#00D800" fill-rule="evenodd"/><path d="M41.12 229.31C40.0154 229.307 39.1221 228.41 39.1247 227.305 39.1252 227.1 39.1573 226.896 39.22 226.7L55.61 176C55.8081 175.394 56.2836 174.918 56.89 174.72 65.61 171.787 74.3567 168.83 83.13 165.85 84.1778 165.5 85.3106 166.066 85.6602 167.114 85.7938 167.515 85.7973 167.947 85.67 168.35L69.14 219.28C68.9433 219.878 68.4765 220.349 67.88 220.55L62.93 222.2C55.85 224.56 48.7867 226.893 41.74 229.2 41.541 229.271 41.3314 229.309 41.12 229.31ZM59.12 178.19 44.24 224.19C50.04 222.28 55.85 220.34 61.68 218.41L65.68 217.08 80.68 170.91C73.46 173.363 66.27 175.79 59.11 178.19Z" stroke="#040000" stroke-miterlimit="10" fill="#060001"/><path d="M29.26 90.93C20.5933 103.263 11.9267 115.547 3.26 127.78 3.18 142.82 3.09333 157.84 3 172.84 11.6667 160.66 20.3333 148.433 29 136.16 29.06 121.07 29.16 106 29.26 90.93Z" stroke="#040000" stroke-miterlimit="10" fill="#00D800" fill-rule="evenodd"/><path d="M3 174.83C2.7934 174.829 2.58795 174.799 2.39 174.74 1.55647 174.473 0.993315 173.695 1 172.82 1.11333 157.82 1.22 142.8 1.32 127.76 1.32299 127.356 1.44851 126.962 1.68 126.63L3.1 124.63C11.2733 113.057 19.4633 101.443 27.67 89.79 28.1571 89.0809 29.0431 88.7628 29.87 89 30.6996 89.2705 31.2581 90.0475 31.25 90.92L30.94 136.15C30.939 136.558 30.8134 136.956 30.58 137.29 21.9133 149.55 13.2467 161.777 4.58 173.97 4.21925 174.491 3.63314 174.81 3 174.83ZM5.31 128.42C5.19667 141.12 5.09333 153.817 5 166.51L27 135.51 27.26 97.28C20.28 107.187 13.3133 117.067 6.36 126.92Z" stroke="#040000" stroke-miterlimit="10" fill="#060001"/><path d="M2.8 195.09C2.7 210.11 2.6 225.11 2.5 240.09 11.06 237.277 19.6567 234.437 28.29 231.57 28.4 216.57 28.49 201.47 28.59 186.44 20 189.31 11.4 192.21 2.8 195.09Z" stroke="#040000" stroke-miterlimit="10" fill="#00D800" fill-rule="evenodd"/><path d="M2.5 242.05C2.07635 242.052 1.66316 241.918 1.32 241.67 0.792405 241.28 0.489712 240.656 0.51 240L0.8 195C0.807786 194.145 1.35838 193.389 2.17 193.12L28 184.51C28.6092 184.298 29.2838 184.403 29.8 184.79 30.3235 185.168 30.6326 185.775 30.63 186.42L30.33 231.56C30.3222 232.415 29.7716 233.171 28.96 233.44 20.32 236.313 11.71 239.167 3.13 242 2.92398 242.05 2.71132 242.067 2.5 242.05ZM4.79 196.53 4.51 237.3C11.75 234.92 19.0133 232.52 26.3 230.1L26.58 189.19Z" stroke="#040000" stroke-miterlimit="10" fill="#060001"/><path d="M29 136.16C20.3333 148.413 11.6667 160.64 3 172.84 2.95 180.29 2.89 187.72 2.85 195.09 11.45 192.21 20.02 189.31 28.64 186.41 28.7467 169.623 28.8667 152.873 29 136.16Z" stroke="#040000" stroke-miterlimit="10" fill="#00D800" fill-rule="evenodd"/><path d="M2.8 197.09C1.69543 197.09 0.8 196.195 0.8 195.09L1 172.82C1.00407 172.413 1.1294 172.016 1.36 171.68 10.0267 159.5 18.6933 147.273 27.36 135 27.8621 134.293 28.7627 133.99 29.59 134.25 30.4235 134.517 30.9867 135.295 30.98 136.17 30.87 153.17 30.76 169.76 30.63 186.42 30.6237 187.272 30.0777 188.027 29.27 188.3L3.43 197C3.22643 197.065 3.01353 197.095 2.8 197.09ZM4.94 173.48 4.82 192.31 26.61 185C26.7167 170.82 26.8167 156.663 26.91 142.53 19.5767 152.843 12.2533 163.16 4.94 173.48Z" stroke="#040000" stroke-miterlimit="10" fill="#060001"/><path d="M204.69 70.6C221.79 70.6 238.89 70.6 255.99 70.6 258.877 66.7 261.753 62.8067 264.62 58.92 250.787 54.5133 236.957 50.09 223.13 45.65 220.05 49.81 216.95 53.97 213.89 58.12 210.83 62.27 207.76 66.46 204.69 70.6Z" stroke="#040000" stroke-miterlimit="10" fill="#FF6666" fill-rule="evenodd"/><path d="M256 72.62 204.7 72.62C203.595 72.6173 202.702 71.7198 202.705 70.6152 202.706 70.1926 202.841 69.7812 203.09 69.44L221.54 44.5C222.047 43.8126 222.935 43.5234 223.75 43.78L265.23 57C266.281 57.3406 266.856 58.4685 266.516 59.5192 266.451 59.7201 266.354 59.9093 266.23 60.08L257.6 71.81C257.224 72.3174 256.631 72.6176 256 72.62ZM208.66 68.62 255 68.62 261.36 60C248.867 56 236.373 52 223.88 48Z" stroke="#040000" stroke-miterlimit="10" fill="#060001"/><path d="M264.62 58.94C270.16 51.4533 275.713 43.9667 281.28 36.48 267.413 32.04 253.567 27.61 239.74 23.19L223.13 45.67C236.95 50.1033 250.78 54.5267 264.62 58.94Z" stroke="#040000" stroke-miterlimit="10" fill="#808080" fill-rule="evenodd"/><path d="M264.62 60.94C264.413 60.9361 264.207 60.9024 264.01 60.84 250.19 56.4267 236.363 52.0033 222.53 47.57 221.478 47.2327 220.899 46.1066 221.236 45.0548 221.302 44.8486 221.402 44.6544 221.53 44.48L238.14 22C238.635 21.2964 239.535 21.0033 240.35 21.28L281.89 34.57C282.942 34.9073 283.521 36.0334 283.184 37.0852 283.118 37.2914 283.018 37.4856 282.89 37.66 277.317 45.1467 271.767 52.63 266.24 60.11 265.864 60.6306 265.262 60.9393 264.62 60.94ZM226.39 44.61 263.86 56.61C268.567 50.25 273.287 43.8933 278.02 37.54L240.5 25.54Z" stroke="#040000" stroke-miterlimit="10" fill="#060001"/><path d="M174.94 30.24C158.86 35.3667 142.777 40.5 126.69 45.64 129.74 49.8 132.82 53.96 135.87 58.11 138.92 62.26 142.01 66.44 145.07 70.59L204.69 70.59C207.76 66.45 210.82 62.28 213.89 58.13 216.96 53.98 220.05 49.82 223.13 45.66Z" stroke="#040000" stroke-miterlimit="10" fill="#1B1B1B" fill-rule="evenodd"/><path d="M204.69 72.6 145.07 72.6C144.437 72.5953 143.844 72.2912 143.47 71.78L125.07 46.78C124.42 45.8871 124.616 44.6362 125.509 43.9859 125.68 43.8616 125.869 43.7651 126.07 43.7L159.84 33 174.33 28.37C174.727 28.2429 175.153 28.2429 175.55 28.37 191.75 33.56 207.74 38.69 223.74 43.79 224.792 44.1273 225.371 45.2534 225.034 46.3052 224.968 46.5114 224.868 46.7056 224.74 46.88L206.3 71.79C205.922 72.3002 205.325 72.6008 204.69 72.6ZM146.08 68.6 203.69 68.6 219.87 46.71 174.94 32.34 161.05 36.78 130 46.7Z" stroke="#040000" stroke-miterlimit="10" fill="#060001"/><path d="M256 70.62C238.9 70.62 221.8 70.62 204.7 70.62 199.133 78.1133 193.59 85.5967 188.07 93.07L239.38 93.07C244.927 85.5967 250.467 78.1133 256 70.62Z" stroke="#040000" stroke-miterlimit="10" fill="#FF6666" fill-rule="evenodd"/><path d="M239.37 95 188.06 95C187.303 95.0015 186.611 94.5758 186.27 93.9 185.935 93.2279 186.004 92.4245 186.45 91.82L203.09 69.37C203.468 68.8664 204.06 68.57 204.69 68.57L256 68.57C257.105 68.5686 258.001 69.4629 258.003 70.5675 258.003 70.9968 257.865 71.4149 257.61 71.76L251.54 80C248.02 84.7533 244.507 89.5 241 94.24 240.608 94.7371 240.003 95.019 239.37 95ZM192.02 91 238.36 91C241.693 86.5333 245.027 82.0567 248.36 77.57L252.06 72.57 205.73 72.57Z" stroke="#040000" stroke-miterlimit="10" fill="#060001"/><path d="M145.07 70.59C150.583 78.0767 156.103 85.5633 161.63 93.05L188.06 93.05C193.593 85.5833 199.137 78.1 204.69 70.6L145.07 70.6Z" stroke="#040000" stroke-miterlimit="10" fill="#808080" fill-rule="evenodd"/><path d="M188.06 95 161.63 95C160.995 95.0008 160.398 94.7002 160.02 94.19 154.493 86.73 148.977 79.2567 143.47 71.77 142.818 70.8782 143.013 69.6269 143.905 68.9752 144.243 68.7278 144.651 68.5931 145.07 68.59L204.69 68.59C205.795 68.5941 206.687 69.4929 206.683 70.5974 206.681 71.0234 206.543 71.4377 206.29 71.78L189.66 94.23C189.276 94.7223 188.684 95.0071 188.06 95ZM162.64 91 187.05 91 200.73 72.6 149 72.6C153.547 78.7533 158.093 84.9033 162.64 91.05Z" stroke="#040000" stroke-miterlimit="10" fill="#060001"/><path d="M223.13 45.67 239.74 23.19C232.627 20.93 225.51 18.6533 218.39 16.36L174.94 30.24Z" stroke="#040000" stroke-miterlimit="10" fill="#808080" fill-rule="evenodd"/><path d="M223.13 47.66C222.927 47.6595 222.725 47.6292 222.53 47.57 206.45 42.4433 190.383 37.3 174.33 32.14 173.281 31.7951 172.71 30.6648 173.055 29.6155 173.253 29.0119 173.726 28.5384 174.33 28.34L217.78 14.46C218.18 14.3308 218.61 14.3308 219.01 14.46 226.11 16.75 233.24 19.03 240.35 21.29 241.402 21.6273 241.981 22.7534 241.644 23.8052 241.578 24.0114 241.478 24.2056 241.35 24.38L224.74 46.85C224.362 47.3602 223.765 47.6608 223.13 47.66ZM181.49 30.24C195.117 34.6133 208.747 38.9767 222.38 43.33L236.48 24.25C230.48 22.33 224.45 20.4 218.39 18.46Z" stroke="#040000" stroke-miterlimit="10" fill="#060001"/><path d="M126.69 45.64C112.23 50.2733 97.7767 54.89 83.33 59.49 86.07 63.18 88.77 66.88 91.5 70.57 109.34 70.57 127.197 70.57 145.07 70.57 142.01 66.42 138.91 62.24 135.87 58.09 132.83 53.94 129.74 49.8 126.69 45.64Z" stroke="#040000" stroke-miterlimit="10" fill="#808080" fill-rule="evenodd"/><path d="M145.07 72.59 91.5 72.59C90.8687 72.5876 90.2756 72.2874 89.9 71.78L81.72 60.67C81.3396 60.1515 81.2317 59.4817 81.43 58.87 81.6274 58.2575 82.1075 57.7774 82.72 57.58L126.08 43.73C126.9 43.4707 127.794 43.7647 128.3 44.46L146.68 69.4C147.337 70.2878 147.15 71.5402 146.263 72.1975 145.917 72.4529 145.499 72.5906 145.07 72.59ZM92.51 68.59 141.12 68.59 125.93 48 86.59 60.54Z" stroke="#040000" stroke-miterlimit="10" fill="#060001"/><path d="M91.5 70.57C97.0133 78.0833 102.533 85.5767 108.06 93.05L161.63 93.05C156.09 85.5633 150.57 78.0767 145.07 70.59 127.21 70.59 109.353 70.5833 91.5 70.57Z" stroke="#040000" stroke-miterlimit="10" fill="#808080" fill-rule="evenodd"/><path d="M161.63 95 108.06 95C107.429 94.9976 106.836 94.6974 106.46 94.19 100.913 86.73 95.3933 79.25 89.9 71.75 89.2538 70.8542 89.4561 69.6041 90.3519 68.9579 90.6864 68.7165 91.0875 68.5845 91.5 68.58L145.07 68.58C145.705 68.5792 146.302 68.8798 146.68 69.39 152.187 76.8767 157.707 84.3633 163.24 91.85 163.686 92.4545 163.755 93.2579 163.42 93.93 163.071 94.5941 162.38 95.0072 161.63 95ZM109.07 91 157.67 91C153.123 84.8533 148.587 78.7 144.06 72.54L95.45 72.54C99.9833 78.7267 104.523 84.8967 109.07 91.05Z" stroke="#040000" stroke-miterlimit="10" fill="#060001"/><path d="M218.39 16.36 175.07 2.5 131.6 16.36C146.033 20.9933 160.48 25.62 174.94 30.24Z" stroke="#040000" stroke-miterlimit="10" fill="#808080" fill-rule="evenodd"/><path d="M174.94 32.24C174.733 32.2409 174.526 32.2071 174.33 32.14 159.877 27.5333 145.433 22.9067 131 18.26 129.951 17.9151 129.38 16.7848 129.725 15.7355 129.923 15.1319 130.396 14.6584 131 14.46L174.46 0.59C174.854 0.470092 175.276 0.470092 175.67 0.59L219 14.46C220.049 14.8049 220.62 15.9352 220.275 16.9845 220.077 17.5881 219.604 18.0616 219 18.26L175.55 32.14C175.354 32.2071 175.147 32.2409 174.94 32.24ZM138.15 16.37C150.41 20.3033 162.673 24.2267 174.94 28.14L211.84 16.36 175.07 4.59Z" stroke="#040000" stroke-miterlimit="10" fill="#060001"/><path d="M110.16 23.21 66.83 37.06C72.31 44.54 77.81 52.0167 83.33 59.49 97.7767 54.87 112.23 50.2533 126.69 45.64Z" stroke="#040000" stroke-miterlimit="10" fill="#808080" fill-rule="evenodd"/><path d="M83.33 61.48C82.6952 61.4808 82.0977 61.1802 81.72 60.67L79.2 57.25 65.2 38.25C64.885 37.7458 64.8511 37.1152 65.11 36.58 65.5134 35.894 66.1123 35.3438 66.83 35L109.55 21.35C110.363 21.0912 111.25 21.3763 111.76 22.06L128.29 44.49C128.674 45.0068 128.785 45.6767 128.59 46.29 128.393 46.9025 127.912 47.3826 127.3 47.58L83.94 61.39C83.7419 61.4485 83.5366 61.4788 83.33 61.48ZM70.08 38.12C74.18 43.7133 78.2933 49.3 82.42 54.88L84.09 57.15 123.43 44.58 109.43 25.58Z" stroke="#040000" stroke-miterlimit="10" fill="#060001"/><path d="M174.94 30.24C160.48 25.62 146.033 20.9933 131.6 16.36L110.16 23.21 126.69 45.64C142.777 40.5467 158.86 35.4133 174.94 30.24Z" stroke="#040000" stroke-miterlimit="10" fill="#808080" fill-rule="evenodd"/><path d="M126.69 47.63C126.055 47.6308 125.458 47.3302 125.08 46.82L108.55 24.39C108.166 23.8732 108.055 23.2033 108.25 22.59 108.452 21.979 108.936 21.5027 109.55 21.31L131 14.46C131.397 14.3329 131.823 14.3329 132.22 14.46 146.647 19.0933 161.093 23.72 175.56 28.34 176.609 28.6849 177.18 29.8152 176.835 30.8645 176.637 31.4681 176.164 31.9416 175.56 32.14L161.06 36.78 127.3 47.54C127.102 47.5985 126.897 47.6288 126.69 47.63ZM113.41 24.26 127.41 43.26 159.83 33 168.38 30.27 131.6 18.46Z" stroke="#040000" stroke-miterlimit="10" fill="#060001"/><path d="M214.88 265.76C214.459 265.766 214.047 265.632 213.71 265.38L172.71 235.62C172.192 235.247 171.884 234.648 171.88 234.01 171.881 233.368 172.189 232.766 172.71 232.39L220.27 197.83C220.78 197.438 221.455 197.333 222.06 197.55 222.666 197.748 223.142 198.224 223.34 198.83L239 247C239.266 247.821 238.976 248.72 238.28 249.23L216.02 265.42C215.683 265.646 215.286 265.765 214.88 265.76ZM177.32 234 214.88 261.28 234.78 246.8 220.43 202.66Z" stroke="#040000" stroke-miterlimit="10" fill="#060001"/><path d="M131.1 267.12C130.68 267.119 130.27 266.986 129.93 266.74L108.83 251.4C108.13 250.892 107.836 249.993 108.1 249.17L124.47 198.83C124.668 198.224 125.144 197.748 125.75 197.55 126.356 197.335 127.029 197.44 127.54 197.83L175.09 232.39C175.611 232.766 175.919 233.368 175.92 234.01 175.916 234.648 175.608 235.247 175.09 235.62L132.27 266.74C131.93 266.986 131.52 267.119 131.1 267.12ZM112.35 249 131.1 262.63 170.53 234 127.42 202.66Z" stroke="#040000" stroke-miterlimit="10" fill="#060001"/><path d="M221.48 201.44C221.269 201.441 221.06 201.407 220.86 201.34 220.257 201.139 219.786 200.664 219.59 200.06L201.43 144.13C201.093 143.078 201.673 141.952 202.725 141.615 202.92 141.553 203.125 141.52 203.33 141.52L256.28 141.52C257.141 141.525 257.903 142.081 258.17 142.9L266.23 167.7C266.496 168.521 266.206 169.42 265.51 169.93L222.65 201.06C222.31 201.306 221.9 201.439 221.48 201.44ZM206.07 145.51 222.53 196.22 262 167.55 254.84 145.55Z" stroke="#040000" stroke-miterlimit="10" fill="#060001"/><path d="M126.37 201.44C125.95 201.439 125.54 201.306 125.2 201.06L82.44 170C81.7441 169.49 81.4538 168.591 81.72 167.77L89.79 142.91C90.057 142.091 90.8185 141.535 91.68 141.53L144.53 141.53C145.168 141.534 145.767 141.842 146.14 142.36 146.522 142.871 146.626 143.537 146.42 144.14L128.26 200.07C128.062 200.676 127.586 201.152 126.98 201.35 126.783 201.415 126.577 201.445 126.37 201.44ZM86 167.61 125.35 196.22 141.82 145.51 93.13 145.51Z" stroke="#040000" stroke-miterlimit="10" fill="#060001"/><path d="M110 251.79C109.576 251.785 109.164 251.648 108.82 251.4L66.07 220.34C65.3741 219.83 65.0838 218.931 65.35 218.11L81.72 167.76C81.9181 167.154 82.3936 166.678 83 166.48 83.6056 166.265 84.2791 166.37 84.79 166.76L127.55 197.83C128.246 198.34 128.536 199.239 128.27 200.06L111.9 250.41C111.699 251.013 111.224 251.484 110.62 251.68 110.421 251.752 110.211 251.789 110 251.79ZM69.6 218 109 246.56 124 200.21 84.64 171.61Z" stroke="#040000" stroke-miterlimit="10" fill="#060001"/><path d="M256.28 145.51 203.33 145.51C202.465 145.509 201.698 144.953 201.43 144.13L185.09 93.88C184.753 92.8281 185.333 91.7022 186.385 91.3653 186.58 91.3026 186.785 91.2705 186.99 91.27L239.99 91.27C240.855 91.2706 241.622 91.8275 241.89 92.65L258.21 142.9C258.408 143.507 258.304 144.172 257.93 144.69 257.546 145.215 256.931 145.521 256.28 145.51ZM204.78 141.51 253.53 141.51 238.53 95.25 189.73 95.25Z" stroke="#040000" stroke-miterlimit="10" fill="#060001"/><path d="M144.53 145.51 91.68 145.51C91.0434 145.508 90.4456 145.204 90.07 144.69 89.6963 144.172 89.5922 143.507 89.79 142.9L106.12 92.65C106.388 91.8275 107.155 91.2706 108.02 91.27L160.86 91.27C161.498 91.2739 162.097 91.5822 162.47 92.1 162.853 92.61 162.958 93.277 162.75 93.88L146.42 144.13C146.153 144.949 145.391 145.505 144.53 145.51ZM94.43 141.51 143.08 141.51 158.08 95.25 109.47 95.25Z" stroke="#040000" stroke-miterlimit="10" fill="#060001"/><path d="M203.33 145.51 144.53 145.51C143.425 145.507 142.532 144.61 142.535 143.505 142.535 143.3 142.567 143.096 142.63 142.9L159 92.65C159.268 91.8275 160.035 91.2706 160.9 91.27L187 91.27C187.861 91.2749 188.623 91.831 188.89 92.65L205.23 142.9C205.567 143.952 204.987 145.078 203.935 145.415 203.743 145.476 203.542 145.509 203.34 145.51ZM147.27 141.51 200.58 141.51 185.58 95.25 162.31 95.25Z" stroke="#040000" stroke-miterlimit="10" fill="#060001"/><path d="M263.67 259C263.459 259.002 263.25 258.968 263.05 258.9L260.77 258.16C252.4 255.44 244.01 252.72 235.54 250.02 234.489 249.68 233.913 248.552 234.254 247.501 234.384 247.099 234.638 246.749 234.98 246.5L279.62 214.15C280.14 213.773 280.81 213.669 281.42 213.87 290.59 216.93 299.65 220.03 308.69 223.11 309.734 223.471 310.288 224.61 309.927 225.654 309.793 226.042 309.543 226.379 309.21 226.62L264.84 258.62C264.497 258.862 264.089 258.994 263.67 259ZM240.52 247.41C247.707 249.723 254.867 252.04 262 254.36L263.33 254.79 303.74 225.64C296.24 223.08 288.703 220.527 281.13 217.98Z" stroke="#040000" stroke-miterlimit="10" fill="#060001"/></g></g></svg>