<svg width="200" height="170" viewBox="0 0 200 170" xmlns="http://www.w3.org/2000/svg" xmlns:xlink="http://www.w3.org/1999/xlink" stroke-width="2" stroke-linejoin="round" stroke-miterlimit="10" overflow="hidden"><g transform="translate(0.5 0.5)"><path d="M100 5.96152 114.722 31.4615 85.2776 31.4615Z" stroke="#000000" fill="#00FF00"/><path d="M114.722 31.4615 85.2776 31.4615 100 56.9615Z" stroke="#000000" fill="#00FF00"/><path d="M114.722 31.4615 129.445 56.9615 100 56.9615Z" stroke="#000000" fill="#00FF00"/><path d="M144.167 82.4615 114.722 82.4615 129.445 56.9615Z" stroke="#000000" fill="#00FF00"/><path d="M114.722 82.4615 129.445 56.9615 100 56.9615Z" stroke="#000000" fill="#00FF00"/><path d="M114.722 82.4615 85.2776 82.4615 100 56.9615Z" stroke="#000000" fill="#00FF00"/><path d="M55.8327 82.4615 70.5551 56.9615 85.2776 82.4615Z" stroke="#000000" fill="#00FF00"/><path d="M70.5551 56.9615 85.2776 82.4615 100 56.9615Z" stroke="#000000" fill="#00FF00"/><path d="M70.5551 56.9615 85.2776 31.4615 100 56.9615Z" stroke="#000000" fill="#00FF00"/><path d="M55.8327 88.423 85.2776 88.423 70.5551 113.923Z" stroke="#000000" fill="#FFFF00"/><path d="M85.2776 88.423 70.5551 113.923 100 113.923Z" stroke="#000000" fill="#FFFF00"/><path d="M85.2776 88.423 114.722 88.423 100 113.923Z" stroke="#000000" fill="#FFFF00"/><path d="M144.167 88.423 129.445 113.923 114.722 88.423Z" stroke="#000000" fill="#FFFF00"/><path d="M129.445 113.923 114.722 88.423 100 113.923Z" stroke="#000000" fill="#FFFF00"/><path d="M129.445 113.923 114.722 139.423 100 113.923Z" stroke="#000000" fill="#FFFF00"/><path d="M100 164.923 85.2776 139.423 114.722 139.423Z" stroke="#000000" fill="#FFFF00"/><path d="M85.2776 139.423 114.722 139.423 100 113.923Z" stroke="#000000" fill="#FFFF00"/><path d="M85.2776 139.423 70.5551 113.923 100 113.923Z" stroke="#000000" fill="#FFFF00"/><path d="M5.8327 5.48076 35.2776 5.48076 20.5551 30.9808Z" stroke="#000000" fill="#FF0000"/><path d="M35.2776 5.48076 20.5551 30.9808 50 30.9808Z" stroke="#000000" fill="#FF0000"/><path d="M35.2776 5.48076 64.7224 5.48076 50 30.9808Z" stroke="#000000" fill="#FF0000"/><path d="M94.1673 5.48076 79.4449 30.9808 64.7224 5.48076Z" stroke="#000000" fill="#FF0000"/><path d="M79.4449 30.9808 64.7224 5.48076 50 30.9808Z" stroke="#000000" fill="#FF0000"/><path d="M79.4449 30.9808 64.7224 56.4808 50 30.9808Z" stroke="#000000" fill="#FF0000"/><path d="M50 81.9808 35.2776 56.4808 64.7224 56.4808Z" stroke="#000000" fill="#FF0000"/><path d="M35.2776 56.4808 64.7224 56.4808 50 30.9808Z" stroke="#000000" fill="#FF0000"/><path d="M35.2776 56.4808 20.5551 30.9808 50 30.9808Z" stroke="#000000" fill="#FF0000"/><path d="M105.833 5.48076 135.278 5.48076 120.555 30.9808Z" stroke="#000000" fill="#0000FF"/><path d="M135.278 5.48076 120.555 30.9808 150 30.9808Z" stroke="#000000" fill="#0000FF"/><path d="M135.278 5.48076 164.722 5.48076 150 30.9808Z" stroke="#000000" fill="#0000FF"/><path d="M194.167 5.48076 179.445 30.9808 164.722 5.48076Z" stroke="#000000" fill="#0000FF"/><path d="M179.445 30.9808 164.722 5.48076 150 30.9808Z" stroke="#000000" fill="#0000FF"/><path d="M179.445 30.9808 164.722 56.4808 150 30.9808Z" stroke="#000000" fill="#0000FF"/><path d="M150 81.9808 135.278 56.4808 164.722 56.4808Z" stroke="#000000" fill="#0000FF"/><path d="M135.278 56.4808 164.722 56.4808 150 30.9808Z" stroke="#000000" fill="#0000FF"/><path d="M135.278 56.4808 120.555 30.9808 150 30.9808Z" stroke="#000000" fill="#0000FF"/></g></svg>