<svg viewBox="0 0 128 128" xmlns="http://www.w3.org/2000/svg" xmlns:xlink="http://www.w3.org/1999/xlink" id="图层_1" overflow="hidden"><defs></defs><path d="M95.63 86.46 89.82 104.27 71.1 104.25 76.91 86.44 95.63 86.46Z" fill="#1B1B1B"/><path d="M69.56 105.9 75.56 114.17 52.11 114.14 58.12 105.88 69.56 105.9Z" fill="#1B1B1B"/><path d="M99.61 74.29 96.17 84.82 77.45 84.8 84.48 63.27 99.61 74.29Z" fill="#1B1B1B"/><path d="M75.19 86.44 69.38 104.26 58.3 104.25 52.53 86.41 75.19 86.44Z" fill="#808080"/><path d="M105.96 54.87 100.16 72.67 85.02 61.64 90.82 43.84 105.96 54.87Z" fill="#1B1B1B"/><path d="M50.81 86.42 56.58 104.25 37.87 104.23 37.87 104.23 32.1 86.4 50.81 86.42Z" fill="#1B1B1B"/><path d="M90.52 41.62 90.52 41.62 81.3 34.91 81.32 24.68 100.25 38.48 90.52 41.62Z" fill="#1B1B1B"/><path d="M89.43 42.85 83.62 60.64 65.33 47.31 80.48 36.33 89.43 42.85Z" fill="#808080"/><path d="M83.08 62.27 75.73 84.81 52.01 84.78 44.72 62.25 63.94 48.32 83.08 62.27Z" fill="#1B1B1B"/><path d="M43.33 63.26 50.3 84.79 31.58 84.77 28.18 74.24 43.33 63.26Z" fill="#1B1B1B"/><path d="M37.04 43.79 42.81 61.61 27.66 72.59 21.89 54.77 37.04 43.79Z" fill="#1B1B1B"/><path d="M79.08 35.33 63.93 46.31 48.79 35.28 63.94 24.3 79.08 35.33Z" fill="#1B1B1B"/><path d="M62.54 47.32 44.2 60.61 38.44 42.78 47.4 36.29 62.54 47.32Z" fill="#1B1B1B"/><line x1="37.48" y1="42.47" x2="47.4" y2="35.28" stroke="#000000" stroke-width="2.5" stroke-linecap="round" stroke-miterlimit="10" fill="#808080"/><line x1="47.4" y1="35.28" x2="63.94" y2="23.29" stroke="#000000" stroke-width="2.5" stroke-linecap="round" stroke-miterlimit="10" fill="#808080"/><line x1="37.48" y1="42.47" x2="20.93" y2="54.46" stroke="#000000" stroke-width="2.5" stroke-linecap="round" stroke-miterlimit="10" fill="#808080"/><line x1="63.94" y1="23.29" x2="80.46" y2="35.32" stroke="#000000" stroke-width="2.5" stroke-linecap="round" stroke-miterlimit="10" fill="#808080"/><line x1="80.49" y1="35.32" x2="90.39" y2="42.54" stroke="#000000" stroke-width="2.5" stroke-linecap="round" stroke-miterlimit="10" fill="#808080"/><line x1="90.4" y1="42.52" x2="106.91" y2="54.55" stroke="#000000" stroke-width="2.5" stroke-linecap="round" stroke-miterlimit="10" fill="#808080"/><line x1="20.93" y1="54.46" x2="27.22" y2="73.9" stroke="#000000" stroke-width="2.5" stroke-linecap="round" stroke-miterlimit="10" fill="#808080"/><line x1="27.22" y1="73.92" x2="30.99" y2="85.59" stroke="#000000" stroke-width="2.5" stroke-linecap="round" stroke-miterlimit="10" fill="#808080"/><line x1="30.97" y1="85.58" x2="37.26" y2="105.02" stroke="#000000" stroke-width="2.5" stroke-linecap="round" stroke-miterlimit="10" fill="#808080"/><line x1="37.26" y1="105.05" x2="57.69" y2="105.07" stroke="#000000" stroke-width="2.5" stroke-linecap="round" stroke-miterlimit="10" fill="#808080"/><line x1="57.71" y1="105.06" x2="69.96" y2="105.08" stroke="#000000" stroke-width="2.5" stroke-linecap="round" stroke-miterlimit="10" fill="#808080"/><line x1="69.96" y1="105.06" x2="90.39" y2="105.09" stroke="#000000" stroke-width="2.5" stroke-linecap="round" stroke-miterlimit="10" fill="#808080"/><line x1="90.41" y1="105.08" x2="96.75" y2="85.66" stroke="#000000" stroke-width="2.5" stroke-linecap="round" stroke-miterlimit="10" fill="#808080"/><line x1="96.76" y1="85.64" x2="100.57" y2="73.99" stroke="#000000" stroke-width="2.5" stroke-linecap="round" stroke-miterlimit="10" fill="#808080"/><line x1="100.59" y1="73.99" x2="106.92" y2="54.57" stroke="#000000" stroke-width="2.5" stroke-linecap="round" stroke-miterlimit="10" fill="#808080"/><line x1="27.22" y1="73.92" x2="43.76" y2="61.94" stroke="#000000" stroke-width="2.5" stroke-linecap="round" stroke-miterlimit="10" fill="#808080"/><line x1="80.49" y1="35.32" x2="63.94" y2="47.31" stroke="#000000" stroke-width="2.5" stroke-linecap="round" stroke-miterlimit="10" fill="#808080"/><line x1="37.48" y1="42.47" x2="43.76" y2="61.91" stroke="#000000" stroke-width="2.5" stroke-linecap="round" stroke-miterlimit="10" fill="#808080"/><line x1="57.71" y1="105.06" x2="51.42" y2="85.63" stroke="#000000" stroke-width="2.5" stroke-linecap="round" stroke-miterlimit="10" fill="#808080"/><line x1="30.97" y1="85.58" x2="51.4" y2="85.61" stroke="#000000" stroke-width="2.5" stroke-linecap="round" stroke-miterlimit="10" fill="#808080"/><line x1="96.76" y1="85.64" x2="76.33" y2="85.62" stroke="#000000" stroke-width="2.5" stroke-linecap="round" stroke-miterlimit="10" fill="#808080"/><line x1="47.4" y1="35.28" x2="63.91" y2="47.31" stroke="#000000" stroke-width="2.5" stroke-linecap="round" stroke-miterlimit="10" fill="#808080"/><line x1="100.59" y1="73.99" x2="84.07" y2="61.96" stroke="#000000" stroke-width="2.5" stroke-linecap="round" stroke-miterlimit="10" fill="#808080"/><line x1="90.4" y1="42.52" x2="84.06" y2="61.94" stroke="#000000" stroke-width="2.5" stroke-linecap="round" stroke-miterlimit="10" fill="#808080"/><line x1="76.32" y1="85.62" x2="69.98" y2="105.05" stroke="#000000" stroke-width="2.5" stroke-linecap="round" stroke-miterlimit="10" fill="#808080"/><line x1="57.71" y1="105.06" x2="50.49" y2="114.97" stroke="#000000" stroke-width="2.5" stroke-linecap="round" stroke-miterlimit="10" fill="#808080"/><line x1="69.96" y1="105.06" x2="77.16" y2="114.99" stroke="#000000" stroke-width="2.5" stroke-linecap="round" stroke-miterlimit="10" fill="#808080"/><line x1="80.49" y1="35.32" x2="80.5" y2="23.06" stroke="#000000" stroke-width="2.5" stroke-linecap="round" stroke-miterlimit="10" fill="#808080"/><line x1="90.4" y1="42.52" x2="102.06" y2="38.75" stroke="#000000" stroke-width="2.5" stroke-linecap="round" stroke-miterlimit="10" fill="#808080"/><line x1="43.76" y1="61.94" x2="63.94" y2="47.31" stroke="#000000" stroke-width="2.5" stroke-linecap="round" stroke-miterlimit="10" fill="#808080"/><line x1="84.04" y1="61.96" x2="63.9" y2="47.28" stroke="#000000" stroke-width="2.5" stroke-linecap="round" stroke-miterlimit="10" fill="#808080"/><line x1="43.76" y1="61.94" x2="51.43" y2="85.65" stroke="#000000" stroke-width="2.5" stroke-linecap="round" stroke-miterlimit="10" fill="#808080"/><line x1="76.32" y1="85.62" x2="51.39" y2="85.59" stroke="#000000" stroke-width="2.5" stroke-linecap="round" stroke-miterlimit="10" fill="#808080"/><line x1="84.04" y1="61.96" x2="76.31" y2="85.65" stroke="#000000" stroke-width="2.5" stroke-linecap="round" stroke-miterlimit="10" fill="#808080"/><line x1="80.48" y1="23.06" x2="102.02" y2="38.75" stroke="#000000" stroke-width="2.5" stroke-linecap="round" stroke-miterlimit="10" fill="#808080"/><line x1="77.16" y1="114.99" x2="50.52" y2="114.95" stroke="#000000" stroke-width="2.5" stroke-linecap="round" stroke-miterlimit="10" fill="#808080"/></svg>