{
  "asset": {
    "generator": "Khronos glTF Blender I/O v1.6.16 / meshoptimizer 1.0.1, boundary-preserving 0.3% simplification",
    "version": "2.0"
  },
  "scene": 0,
  "scenes": [
    {
      "name": "Scene",
      "nodes": [
        0,
        1,
        2
      ]
    }
  ],
  "nodes": [
    {
      "mesh": 0,
      "name": "potted_plant_02_pot"
    },
    {
      "mesh": 1,
      "name": "potted_plant_02_leaves",
      "translation": [
        -0.0029038283973932266,
        0.30528968572616577,
        0.0006859108689241111
      ]
    },
    {
      "mesh": 2,
      "name": "potted_plant_02_dirt",
      "translation": [
        -0.12862031161785126,
        0.31752803921699524,
        -0.13355804979801178
      ]
    }
  ],
  "materials": [
    {
      "doubleSided": true,
      "name": "potted_plant_02_pot",
      "normalTexture": {
        "index": 0
      },
      "pbrMetallicRoughness": {
        "baseColorTexture": {
          "index": 1
        },
        "metallicFactor": 0,
        "metallicRoughnessTexture": {
          "index": 2
        }
      }
    },
    {
      "alphaCutoff": 0.5,
      "alphaMode": "MASK",
      "doubleSided": true,
      "name": "potted_plant_02_leaves",
      "normalTexture": {
        "index": 3
      },
      "pbrMetallicRoughness": {
        "baseColorTexture": {
          "index": 4
        },
        "metallicFactor": 0,
        "metallicRoughnessTexture": {
          "index": 5
        }
      }
    }
  ],
  "meshes": [
    {
      "name": "Circle",
      "primitives": [
        {
          "attributes": {
            "POSITION": 0,
            "NORMAL": 1,
            "TEXCOORD_0": 2
          },
          "indices": 3,
          "material": 0
        }
      ]
    },
    {
      "name": "Circle.001",
      "primitives": [
        {
          "attributes": {
            "POSITION": 4,
            "NORMAL": 5,
            "TEXCOORD_0": 6
          },
          "indices": 7,
          "material": 1
        }
      ]
    },
    {
      "name": "low.008",
      "primitives": [
        {
          "attributes": {
            "POSITION": 8,
            "NORMAL": 9,
            "TEXCOORD_0": 10
          },
          "indices": 11,
          "material": 0
        }
      ]
    }
  ],
  "textures": [
    {
      "sampler": 0,
      "source": 0
    },
    {
      "sampler": 0,
      "source": 1
    },
    {
      "sampler": 0,
      "source": 2
    },
    {
      "sampler": 0,
      "source": 3
    },
    {
      "sampler": 0,
      "source": 4
    },
    {
      "sampler": 0,
      "source": 5
    }
  ],
  "images": [
    {
      "mimeType": "image/jpeg",
      "name": "potted_plant_02_pot_nor_gl",
      "uri": "textures/potted_plant_02_pot_nor_gl_1k.jpg"
    },
    {
      "mimeType": "image/jpeg",
      "name": "potted_plant_02_pot_diff",
      "uri": "textures/potted_plant_02_pot_diff_1k.jpg"
    },
    {
      "mimeType": "image/jpeg",
      "name": "potted_plant_02_pot_rough",
      "uri": "textures/potted_plant_02_pot_rough_1k.jpg"
    },
    {
      "mimeType": "image/jpeg",
      "name": "potted_plant_02_leaves_nor_gl",
      "uri": "textures/potted_plant_02_leaves_nor_gl_1k.jpg"
    },
    {
      "mimeType": "image/jpeg",
      "name": "potted_plant_02_leaves_diff",
      "uri": "textures/potted_plant_02_leaves_diff_1k.jpg"
    },
    {
      "mimeType": "image/jpeg",
      "name": "potted_plant_02_leaves_rough",
      "uri": "textures/potted_plant_02_leaves_rough_1k.jpg"
    }
  ],
  "accessors": [
    {
      "bufferView": 0,
      "componentType": 5126,
      "count": 1605,
      "type": "VEC3",
      "min": [
        -0.23707397282123566,
        0.00042371705058030784,
        -0.23707395792007446
      ],
      "max": [
        0.23707397282123566,
        0.33619487285614014,
        0.23707397282123566
      ]
    },
    {
      "bufferView": 1,
      "componentType": 5126,
      "count": 1605,
      "type": "VEC3",
      "min": [
        -0.999969482421875,
        -0.9847712516784668,
        -0.999969482421875
      ],
      "max": [
        0.999969482421875,
        0.9998779296875,
        0.999969482421875
      ]
    },
    {
      "bufferView": 2,
      "componentType": 5126,
      "count": 1605,
      "type": "VEC2",
      "min": [
        0.002489738166332245,
        0.0024857521057128906
      ],
      "max": [
        0.604002058506012,
        0.9975152611732483
      ]
    },
    {
      "bufferView": 3,
      "componentType": 5123,
      "count": 8640,
      "type": "SCALAR"
    },
    {
      "bufferView": 4,
      "componentType": 5126,
      "count": 3199,
      "type": "VEC3",
      "min": [
        -0.3937562108039856,
        -0.09663186967372894,
        -0.4209985136985779
      ],
      "max": [
        0.30740082263946533,
        0.535942018032074,
        0.22222481667995453
      ]
    },
    {
      "bufferView": 5,
      "componentType": 5126,
      "count": 3199,
      "type": "VEC3",
      "min": [
        -0.9973449110984802,
        -0.9989623427391052,
        -0.9981994032859802
      ],
      "max": [
        0.9978331923484802,
        0.99993896484375,
        0.99969482421875
      ]
    },
    {
      "bufferView": 6,
      "componentType": 5126,
      "count": 3199,
      "type": "VEC2",
      "min": [
        0.028099555522203445,
        0.006080746650695801
      ],
      "max": [
        0.9953081607818604,
        0.9976317286491394
      ]
    },
    {
      "bufferView": 7,
      "componentType": 5123,
      "count": 10398,
      "type": "SCALAR"
    },
    {
      "bufferView": 8,
      "componentType": 5126,
      "count": 18930,
      "type": "VEC3",
      "min": [
        -0.07898939400911331,
        -0.020643368363380432,
        -0.0743584930896759
      ],
      "max": [
        0.3351912200450897,
        0.02323356457054615,
        0.33649539947509766
      ]
    },
    {
      "bufferView": 9,
      "componentType": 5126,
      "count": 18930,
      "type": "VEC3",
      "min": [
        -0.99981689453125,
        -0.9998779296875,
        -0.999267578125
      ],
      "max": [
        0.9998779296875,
        1,
        0.99993896484375
      ]
    },
    {
      "bufferView": 10,
      "componentType": 5126,
      "count": 18930,
      "type": "VEC2",
      "min": [
        0.6126246452331543,
        0.009814679622650146
      ],
      "max": [
        0.8291684985160828,
        0.5039085149765015
      ]
    },
    {
      "bufferView": 11,
      "componentType": 5123,
      "count": 80124,
      "type": "SCALAR"
    }
  ],
  "bufferViews": [
    {
      "buffer": 0,
      "byteOffset": 0,
      "byteLength": 19260
    },
    {
      "buffer": 0,
      "byteOffset": 19260,
      "byteLength": 19260
    },
    {
      "buffer": 0,
      "byteOffset": 38520,
      "byteLength": 12840
    },
    {
      "buffer": 0,
      "byteOffset": 51360,
      "byteLength": 17280
    },
    {
      "buffer": 0,
      "byteOffset": 68640,
      "byteLength": 38388
    },
    {
      "buffer": 0,
      "byteOffset": 107028,
      "byteLength": 38388
    },
    {
      "buffer": 0,
      "byteOffset": 145416,
      "byteLength": 25592
    },
    {
      "buffer": 0,
      "byteOffset": 171008,
      "byteLength": 20796
    },
    {
      "buffer": 0,
      "byteOffset": 191804,
      "byteLength": 227160
    },
    {
      "buffer": 0,
      "byteOffset": 418964,
      "byteLength": 227160
    },
    {
      "buffer": 0,
      "byteOffset": 646124,
      "byteLength": 151440
    },
    {
      "buffer": 0,
      "byteOffset": 797564,
      "byteLength": 160248
    }
  ],
  "samplers": [
    {
      "magFilter": 9729,
      "minFilter": 9987
    }
  ],
  "buffers": [
    {
      "uri": "model-lite.bin",
      "byteLength": 957812
    }
  ]
}
