<svg viewBox="0 0 270.64 229.1" xmlns="http://www.w3.org/2000/svg" xmlns:xlink="http://www.w3.org/1999/xlink" overflow="hidden"><defs></defs><g id="图层_2"><g id="图层_1-2"><g id="箭头_25"><path d="M182.6 99.17 164.42 155.1 105.66 155.09 87.46 99.19 135.03 64.61 182.6 99.17Z" fill="#808080"/><path d="M182.6 99.17 135.03 64.61 87.46 99.19 105.66 155.09 164.42 155.1 182.6 99.17Z" stroke="#040000" stroke-miterlimit="10" fill="none"/><path d="M104.46 156.71C104.121 156.461 103.869 156.111 103.74 155.71L85.58 99.8C85.3159 98.977 85.6104 98.0775 86.31 97.57L133.88 63C134.579 62.4961 135.521 62.4961 136.22 63L183.79 97.56C184.486 98.0702 184.776 98.9692 184.51 99.79L166.32 155.7C166.053 156.519 165.291 157.075 164.43 157.08L105.64 157.08C105.217 157.084 104.804 156.955 104.46 156.71ZM89.83 99.94 107.09 153.1 163 153.1 180.29 99.94 135.05 67.08Z" stroke="#040000" stroke-miterlimit="10" fill="#211613"/><path d="M218.14 226.04 201.88 203.48 217.58 155.15 233.84 177.72 218.14 226.04Z" stroke="#040000" stroke-miterlimit="10" fill="#FF1493" fill-rule="evenodd"/><path d="M235.45 176.55 219.2 154C218.758 153.392 218.013 153.083 217.27 153.2 216.53 153.321 215.92 153.846 215.69 154.56L200 202.87C199.806 203.474 199.91 204.135 200.28 204.65L216.54 227.2C216.661 227.376 216.814 227.529 216.99 227.65 216.99 227.65 217.05 227.65 217.07 227.71 217.775 228.228 218.735 228.228 219.44 227.71 219.745 227.43 219.987 227.09 220.15 226.71 220.21 226.529 220.24 226.34 220.24 226.15L235.75 178.38C235.956 177.758 235.844 177.074 235.45 176.55ZM217.45 221.68 204.08 203.13 218.26 159.51 231.61 178.07Z" stroke="#040000" stroke-miterlimit="10" fill="#060001"/><path d="M233.84 177.72 217.58 155.15 225.67 130.26 252.08 121.57 233.84 177.72Z" stroke="#040000" stroke-miterlimit="10" fill="#FF1493" fill-rule="evenodd"/><path d="M232.66 179.33C232.487 179.209 232.338 179.056 232.22 178.88L216 156.32C215.633 155.803 215.533 155.143 215.73 154.54L223.82 129.64C224.016 129.036 224.487 128.561 225.09 128.36L251.5 119.67C252.551 119.329 253.679 119.904 254.02 120.954 254.15 121.356 254.15 121.788 254.02 122.19L235.96 177.78C235.956 178.201 235.82 178.611 235.57 178.95 234.92 179.841 233.672 180.037 232.78 179.39ZM219.79 154.8 233.16 173.36 249 124.7 227.3 131.84Z" stroke="#040000" stroke-miterlimit="10" fill="#060001"/><path d="M225.67 130.26 242.06 79.79 268.47 71.09 252.08 121.57 225.67 130.26Z" stroke="#040000" stroke-miterlimit="10" fill="#EEE8AA" fill-rule="evenodd"/><path d="M270.09 71C270.064 70.9596 270.044 70.9159 270.03 70.87 269.883 70.399 269.63 69.968 269.29 69.61L269.29 69.61C269.175 69.5387 269.073 69.4473 268.99 69.34L268.85 69.22 268.77 69.15C268.477 69.0803 268.173 69.0803 267.88 69.15L241.48 77.85C240.877 78.0508 240.406 78.5259 240.21 79.13L223.82 129.6C223.599 130.304 223.783 131.073 224.3 131.6 224.372 131.675 224.453 131.742 224.54 131.8 225.058 132.18 225.728 132.288 226.34 132.09L252.75 123.4C253.353 123.199 253.824 122.724 254.02 122.12L270.16 72.38C270.18 71.9188 270.157 71.4568 270.09 71ZM250.49 120 228.78 127.14 243.65 81.37 265.35 74.23Z" stroke="#040000" stroke-miterlimit="10" fill="#060001"/><path d="M105.64 155.09 121.28 203.24 148.8 203.23 164.43 155.09 105.64 155.09Z" stroke="#040000" stroke-miterlimit="10" fill="#808080" fill-rule="evenodd"/><path d="M148.8 203.23 201.77 203.23 217.4 155.1 164.43 155.09 148.8 203.23Z" stroke="#040000" stroke-miterlimit="10" fill="#808080" fill-rule="evenodd"/><path d="M147.63 204.84C147.459 204.719 147.311 204.571 147.19 204.4 146.816 203.882 146.712 203.217 146.91 202.61L162.53 154.47C162.802 153.651 163.568 153.099 164.43 153.1L217.43 153.1C218.067 153.102 218.664 153.406 219.04 153.92 219.417 154.436 219.525 155.101 219.33 155.71L203.7 203.85C203.432 204.673 202.665 205.229 201.8 205.23L148.8 205.23C148.379 205.226 147.969 205.09 147.63 204.84ZM165.88 157.09 151.55 201.23 200.32 201.23 214.65 157.09Z" stroke="#040000" stroke-miterlimit="10" fill="#060001"/><path d="M121.28 203.24 105.64 155.09 52.71 155.1 68.36 203.23 121.28 203.24Z" stroke="#040000" stroke-miterlimit="10" fill="#808080" fill-rule="evenodd"/><path d="M67.19 204.85C66.847 204.602 66.5914 204.252 66.46 203.85L50.81 155.72C50.4676 154.67 51.0413 153.541 52.0915 153.199 52.2912 153.133 52.4999 153.1 52.71 153.1L105.64 153.1C106.501 153.105 107.263 153.661 107.53 154.48L123.18 202.62C123.522 203.67 122.949 204.799 121.899 205.141 121.699 205.207 121.49 205.24 121.28 205.24L68.36 205.24C67.9387 205.236 67.5292 205.1 67.19 204.85ZM55.46 157.1 69.81 201.24 118.53 201.24 104.19 157.09Z" stroke="#040000" stroke-miterlimit="10" fill="#060001"/><path d="M87.48 99.18 44.65 130.29 52.71 155.1 105.64 155.09 87.48 99.18Z" stroke="#040000" stroke-miterlimit="10" fill="#808080" fill-rule="evenodd"/><path d="M164.43 155.09 217.4 155.1 225.45 130.29 182.62 99.17 164.43 155.09Z" stroke="#040000" stroke-miterlimit="10" fill="#808080" fill-rule="evenodd"/><path d="M135.05 64.61 92.29 33.55 71.15 48.92 87.48 99.18 135.05 64.61Z" stroke="#040000" stroke-miterlimit="10" fill="#808080" fill-rule="evenodd"/><path d="M71.15 48.92 28.32 80.03 44.65 130.29 87.48 99.18 71.15 48.92Z" stroke="#040000" stroke-miterlimit="10" fill="#808080" fill-rule="evenodd"/><path d="M225.45 130.29 241.78 80.05 198.94 48.91 182.62 99.17 225.45 130.29Z" stroke="#040000" stroke-miterlimit="10" fill="#808080" fill-rule="evenodd"/><path d="M177.79 33.56 135.05 2.5 92.29 33.55 135.05 64.61 177.79 33.56Z" stroke="#040000" stroke-miterlimit="10" fill="#808080" fill-rule="evenodd"/><path d="M182.62 99.17 198.94 48.91 177.79 33.56 135.05 64.61 182.62 99.17Z" stroke="#040000" stroke-miterlimit="10" fill="#808080" fill-rule="evenodd"/><path d="M52.94 226.05C70.04 226.117 87.1933 226.17 104.4 226.21 109.8 218.537 115.247 210.807 120.74 203.02L68.65 202.94C63.3633 210.713 58.1267 218.417 52.94 226.05Z" stroke="#040000" stroke-miterlimit="10" fill="#EEE8AA" fill-rule="evenodd"/><path d="M51.76 227.67C51.5175 227.488 51.3165 227.256 51.17 226.99 50.8224 226.336 50.8647 225.543 51.28 224.93L67 201.82C67.3728 201.276 67.9902 200.95 68.65 200.95L120.74 201.03C121.845 201.037 122.734 201.939 122.727 203.043 122.724 203.446 122.6 203.839 122.37 204.17L106 227.36C105.625 227.894 105.013 228.211 104.36 228.21L52.9 228.05C52.49 228.043 52.0921 227.911 51.76 227.67ZM69.7 204.94 56.7 224.07 103.36 224.22 116.89 205Z" stroke="#040000" stroke-miterlimit="10" fill="#060001"/><path d="M164.75 226.42C159.11 218.66 153.46 210.87 147.75 203.05L120.75 203.05C115.25 210.83 109.803 218.56 104.41 226.24 114.45 226.287 124.487 226.32 134.52 226.34Z" stroke="#040000" stroke-miterlimit="10" fill="#00D800" fill-rule="evenodd"/><path d="M103.22 227.83C102.972 227.643 102.767 227.404 102.62 227.13 102.281 226.47 102.335 225.678 102.76 225.07L119.11 201.87C119.485 201.343 120.093 201.03 120.74 201.03L147.74 201.03C148.371 201.032 148.964 201.333 149.34 201.84 154.6 209.007 159.813 216.15 164.98 223.27L166.38 225.22C166.823 225.826 166.888 226.63 166.55 227.3 166.207 227.972 165.515 228.393 164.76 228.39L134.53 228.28C124.49 228.28 114.45 228.247 104.41 228.18 103.986 228.192 103.57 228.07 103.22 227.83ZM121.77 205 108.23 224.22 134.52 224.3 160.82 224.39C156.153 217.95 151.447 211.493 146.7 205.02Z" stroke="#040000" stroke-miterlimit="10" fill="#060001"/><path d="M219.46 226.61C213.967 218.797 208.427 210.967 202.84 203.12L147.71 203.05C153.46 210.87 159.11 218.66 164.71 226.42 182.903 226.493 201.153 226.557 219.46 226.61Z" stroke="#040000" stroke-miterlimit="10" fill="#00D800" fill-rule="evenodd"/><path d="M2.37 73.4C7.75 89.8 13.0833 106.083 18.37 122.25 27.06 124.92 35.72 127.57 44.42 130.25 39.1933 114.083 33.94 97.7967 28.66 81.39 19.9133 78.7633 11.15 76.1 2.37 73.4Z" stroke="#040000" stroke-miterlimit="10" fill="#FFA100" fill-rule="evenodd"/><path d="M46.3 129.61 30.56 80.78C30.3593 80.1567 29.8663 79.6711 29.24 79.48 21 77 12.7533 74.5067 4.5 72L3 71.49C2.29033 71.2763 1.52067 71.4726 1 72 0.824809 72.1803 0.688645 72.3948 0.6 72.63 0.6 72.63 0.6 72.63 0.6 72.63L0.6 72.63C0.621066 72.7793 0.621066 72.9307 0.6 73.08 0.6 73.35 0.6 73.61 0.67 73.88 0.74 74.15 0.67 74.25 0.72 74.43 6.05333 90.67 11.33 106.797 16.55 122.81 16.6788 123.211 16.9307 123.561 17.27 123.81 17.4484 123.94 17.648 124.038 17.86 124.1L43.86 132.1C44.9164 132.423 46.0344 131.828 46.3571 130.772 46.4759 130.383 46.4734 129.967 46.35 129.58ZM19.93 120.61C15.15 105.943 10.33 91.2033 5.47 76.39 12.69 78.63 19.8933 80.8333 27.08 83L41.33 127.19Z" stroke="#040000" stroke-miterlimit="10" fill="#060001"/><path d="M36.51 177.82C41.79 170.28 47.08 162.673 52.38 155 49.7133 146.74 47.0467 138.467 44.38 130.18 35.68 127.53 27.02 124.88 18.38 122.18L27.52 150.18C30.5067 159.433 33.5033 168.647 36.51 177.82Z" stroke="#040000" stroke-miterlimit="10" fill="#FFA100" fill-rule="evenodd"/><path d="M35.34 179.43C34.997 179.182 34.7414 178.832 34.61 178.43L16.46 122.87C16.1203 121.819 16.697 120.692 17.7481 120.352 18.1349 120.227 18.5507 120.223 18.94 120.34L44.94 128.34C45.564 128.529 46.0566 129.011 46.26 129.63L54.26 154.44C54.4505 155.037 54.3506 155.688 53.99 156.2 48.6567 163.827 43.3667 171.42 38.12 178.98 37.6855 179.599 36.9385 179.921 36.19 179.81 35.8797 179.755 35.5876 179.625 35.34 179.43ZM21.45 125.29 37.17 173.4C41.49 167.2 45.8233 160.97 50.17 154.71L42.8 131.83Z" stroke="#040000" stroke-miterlimit="10" fill="#060001"/><path d="M45.2 40.24C53.9933 43 62.8133 45.7533 71.66 48.5 78.8133 43.32 85.9633 38.1233 93.11 32.91 93.2 23.66 93.26 14.43 93.35 5.17 85.3033 11.0567 77.2667 16.9133 69.24 22.74 61.2133 28.5667 53.2 34.4 45.2 40.24Z" stroke="#040000" stroke-miterlimit="10" fill="#ADD8E6" fill-rule="evenodd"/><path d="M44 41.86C43.572 41.5495 43.2843 41.0821 43.2 40.56 43.0828 39.8174 43.3918 39.0719 44 38.63 52 32.81 60 26.9733 68 21.12L68.4 20.83C76.28 15.11 84.18 9.35333 92.1 3.56 92.713 3.11257 93.5263 3.0506 94.2 3.4 94.868 3.74605 95.2853 4.4377 95.28 5.19L95.04 32.93C95.0353 33.5631 94.7312 34.1565 94.22 34.53 87.12 39.7233 79.99 44.9167 72.83 50.11 72.3213 50.4774 71.6697 50.5848 71.07 50.4 62.21 47.66 53.3867 44.91 44.6 42.15 44.3864 42.0845 44.184 41.9867 44 41.86ZM91.32 9.13C84.48 14.13 77.6467 19.1067 70.82 24.06 63.52 29.39 56.54 34.47 49.59 39.52 56.7967 41.7867 64.03 44.0433 71.29 46.29L91.13 31.89Z" stroke="#040000" stroke-miterlimit="10" fill="#060001"/><path d="M2.13 71.62C10.8433 74.42 19.5867 77.2133 28.36 80L71.66 48.5C62.8 45.76 53.98 43.0067 45.2 40.24 30.82 50.7467 16.4633 61.2067 2.13 71.62Z" stroke="#040000" stroke-miterlimit="10" fill="#ADD8E6" fill-rule="evenodd"/><path d="M73.63 48.17C73.5036 47.4224 72.9654 46.8106 72.24 46.59 63.39 43.86 54.59 41.09 45.8 38.34 45.1958 38.1456 44.5353 38.2495 44.02 38.62L1.15 69.86C0.694895 70.6614 0.492716 71.5816 0.57 72.5 0.576531 72.5565 0.576531 72.6135 0.57 72.67L0.57 72.81C0.682743 72.9744 0.821176 73.1196 0.98 73.24 1.15081 73.3622 1.33979 73.4566 1.54 73.52 8.61333 75.7933 15.7 78.0533 22.8 80.3L27.8 81.88C28.4027 82.0681 29.0588 81.9606 29.57 81.59L72.87 50.11C73.4668 49.6568 73.7601 48.908 73.63 48.17ZM28 77.77 24 76.5C18.1533 74.64 12.32 72.78 6.5 70.92L45.56 42.45C52.78 44.71 60.0133 46.97 67.26 49.23Z" stroke="#040000" stroke-miterlimit="10" fill="#060001"/><path d="M120.11 204.86C119.766 204.615 119.513 204.264 119.39 203.86L103.74 155.71C103.403 154.658 103.983 153.532 105.035 153.195 105.23 153.133 105.435 153.1 105.64 153.1L164.43 153.1C165.073 153.073 165.684 153.384 166.04 153.92 166.41 154.435 166.514 155.096 166.32 155.7L150.7 203.84C150.432 204.663 149.665 205.219 148.8 205.22L121.28 205.22C120.862 205.225 120.453 205.099 120.11 204.86ZM108.39 157.09 122.73 201.24 147.35 201.24 161.68 157.09Z" stroke="#040000" stroke-miterlimit="10" fill="#060001"/><path d="M51.53 156.71C51.1907 156.461 50.9388 156.111 50.81 155.71L42.75 130.9C42.4859 130.077 42.7804 129.178 43.48 128.67L86.31 97.57C86.8278 97.1963 87.4928 97.0922 88.1 97.29 88.7165 97.4713 89.1987 97.9535 89.38 98.57L107.53 154.48C107.728 155.087 107.624 155.752 107.25 156.27 106.874 156.784 106.277 157.088 105.64 157.09L52.7 157.09C52.2788 157.096 51.8674 156.962 51.53 156.71ZM47 131.05 54.16 153.05 102.89 153.05 86.44 102.41Z" stroke="#040000" stroke-miterlimit="10" fill="#060001"/><path d="M163.26 156.7C163.087 156.582 162.938 156.433 162.82 156.26 162.443 155.744 162.335 155.079 162.53 154.47L180.72 98.56C181.064 97.5103 182.193 96.9381 183.243 97.2819 183.439 97.3459 183.623 97.4397 183.79 97.56L226.63 128.68C227.326 129.19 227.616 130.089 227.35 130.91L219.35 155.71C219.082 156.533 218.315 157.089 217.45 157.09L164.45 157.09C164.021 157.096 163.602 156.959 163.26 156.7ZM183.66 102.4 167.18 153.1 216 153.1 223.16 131.1Z" stroke="#040000" stroke-miterlimit="10" fill="#060001"/><path d="M86.31 100.8C85.9707 100.551 85.7188 100.201 85.59 99.8L69.26 49.53C68.998 48.7048 69.2967 47.8048 70 47.3L91.12 31.94C91.8207 31.4313 92.7693 31.4313 93.47 31.94L136.22 63C136.742 63.3689 137.049 63.971 137.04 64.61 137.038 65.2466 136.734 65.8444 136.22 66.22L88.65 100.79C88.1364 101.164 87.4757 101.272 86.87 101.08 86.6687 101.019 86.4793 100.925 86.31 100.8ZM73.5 49.68 88.53 96 131.65 64.66 92.29 36Z" stroke="#040000" stroke-miterlimit="10" fill="#060001"/><path d="M43.47 131.91C43.1341 131.657 42.8829 131.309 42.75 130.91L26.42 80.64C26.1607 79.82 26.4547 78.9261 27.15 78.42L70 47.3C70.5095 46.9259 71.1657 46.8147 71.77 47 72.3827 47.1877 72.8623 47.6673 73.05 48.28L89.38 98.56C89.6441 99.383 89.3496 100.282 88.65 100.79L45.82 131.9C45.304 132.277 44.6387 132.385 44.03 132.19 43.8312 132.123 43.6428 132.029 43.47 131.91ZM30.67 80.79 45.67 127.06 85.13 98.42 70.13 52.15Z" stroke="#040000" stroke-miterlimit="10" fill="#060001"/><path d="M224.28 131.91 181.44 100.79C180.744 100.28 180.454 99.3808 180.72 98.56L197 48.3C197.344 47.2503 198.473 46.6781 199.523 47.0219 199.719 47.0859 199.903 47.1797 200.07 47.3L243 78.43C243.696 78.9402 243.986 79.8392 243.72 80.66L227.39 130.91C227.046 131.96 225.917 132.532 224.867 132.188 224.671 132.124 224.487 132.03 224.32 131.91ZM185 98.41 224.45 127.07 239.45 80.81 200 52.14Z" stroke="#040000" stroke-miterlimit="10" fill="#060001"/><path d="M133.87 66.23 91.12 35.16C90.2308 34.5047 90.0412 33.2526 90.6966 32.3634 90.8157 32.2018 90.9584 32.0591 91.12 31.94L133.88 0.88C134.579 0.376089 135.521 0.376089 136.22 0.88L179 31.94C179.892 32.5915 180.087 33.8428 179.435 34.7347 179.314 34.9014 179.167 35.0482 179 35.17L136.22 66.22C135.521 66.7317 134.573 66.7358 133.87 66.23ZM95.69 33.55 135.05 62.14 174.4 33.56 135.05 5Z" stroke="#040000" stroke-miterlimit="10" fill="#060001"/><path d="M181.44 100.79 133.87 66.23C133.353 65.8523 133.048 65.2501 133.05 64.61 133.054 63.9716 133.362 63.3734 133.88 63L176.62 31.94C177.321 31.4313 178.269 31.4313 178.97 31.94L200.11 47.3C200.806 47.8102 201.096 48.7092 200.83 49.53L184.51 99.79C184.312 100.396 183.836 100.872 183.23 101.07 182.623 101.268 181.958 101.164 181.44 100.79ZM138.44 64.61 181.57 95.94 196.57 49.68 177.8 36Z" stroke="#040000" stroke-miterlimit="10" fill="#060001"/><path d="M220.65 224.83C215.3 217.23 209.93 209.61 204.46 201.96 204.093 201.43 203.485 201.119 202.84 201.13L147.72 201.06C146.615 201.061 145.721 201.957 145.722 203.062 145.722 203.481 145.855 203.89 146.1 204.23 151.37 211.39 156.55 218.53 161.73 225.65L163.14 227.59C163.26 227.764 163.409 227.916 163.58 228.04 163.919 228.281 164.324 228.413 164.74 228.42L217.41 228.6C218.121 228.502 218.792 228.212 219.35 227.76 220.022 227.082 220.448 226.198 220.56 225.25 220.549 225.104 220.58 224.958 220.65 224.83ZM165.78 224.43 165 223.3C160.593 217.24 156.16 211.157 151.7 205.05L201.85 205.11C206.5 211.63 211.08 218.11 215.65 224.6Z" stroke="#040000" stroke-miterlimit="10" fill="#060001"/></g></g></g></svg>