<svg viewBox="0 0 269.22 208.02" xmlns="http://www.w3.org/2000/svg" xmlns:xlink="http://www.w3.org/1999/xlink" overflow="hidden"><defs></defs><g id="图层_2"><g id="图层_1-2"><path d="M163.25 155.16 104.44 155.15 86.27 99.22 133.84 64.68 181.42 99.24 163.25 155.16Z" fill="#808080"/><path d="M163.25 155.16 181.42 99.24 133.84 64.68 86.27 99.22 104.44 155.15 163.25 155.16Z" stroke="#040000" stroke-miterlimit="10" fill="none"/><path d="M84.37 98.61C84.5014 98.2078 84.757 97.8577 85.1 97.61L132.66 63.07C133.359 62.5661 134.301 62.5661 135 63.07L182.58 97.62C183.28 98.1275 183.574 99.027 183.31 99.85L165.14 155.77C164.872 156.593 164.105 157.149 163.24 157.15L104.44 157.15C103.575 157.149 102.808 156.593 102.54 155.77L84.37 99.84C84.2351 99.4411 84.2351 99.0089 84.37 98.61ZM133.83 67.15 88.61 100 105.89 153.16 161.79 153.16 179.06 100Z" stroke="#040000" stroke-miterlimit="10" fill="#211613"/><path d="M86.27 99.22 45.31 128.98 53.83 155.15 104.44 155.14 86.27 99.22Z" stroke="#040000" stroke-miterlimit="10" fill="#808080" fill-rule="evenodd"/><path d="M53.83 155.15 70.19 205.53 120.8 205.52 104.44 155.14 53.83 155.15Z" stroke="#040000" stroke-miterlimit="10" fill="#808080" fill-rule="evenodd"/><path d="M51.93 154.53C51.9963 154.332 52.0942 154.146 52.22 153.98 52.5934 153.462 53.1916 153.154 53.83 153.15L104.44 153.15C105.305 153.151 106.072 153.707 106.34 154.53L122.7 204.9C122.898 205.507 122.794 206.172 122.42 206.69 122.042 207.207 121.44 207.512 120.8 207.51L70.19 207.51C69.3285 207.505 68.567 206.949 68.3 206.13L51.93 155.76C51.8008 155.36 51.8008 154.93 51.93 154.53ZM102.99 157.13 56.58 157.13 71.65 203.51 118.06 203.51Z" stroke="#040000" stroke-miterlimit="10" fill="#060001"/><path d="M45.31 128.98 86.27 99.22 69.91 48.88 28.97 78.64 45.31 128.98Z" stroke="#040000" stroke-miterlimit="10" fill="#1B1B1B" fill-rule="evenodd"/><path d="M27.07 78C27.1988 77.5992 27.4507 77.2493 27.79 77L68.74 47.27C69.2595 46.8997 69.9244 46.7994 70.53 47 71.1364 47.1981 71.6119 47.6736 71.81 48.28L88.17 98.61C88.4293 99.43 88.1353 100.324 87.44 100.83L46.49 130.59C45.5971 131.24 44.3462 131.044 43.6959 130.151 43.5716 129.98 43.4751 129.791 43.41 129.59L27.07 79.26C26.9283 78.852 26.9283 78.408 27.07 78ZM68.86 52.12 31.31 79.41 46.36 125.74 83.93 98.46Z" stroke="#040000" stroke-miterlimit="10" fill="#060001"/><path d="M133.83 64.68 91.01 33.55 69.91 48.88 86.27 99.22 133.83 64.68Z" stroke="#040000" stroke-miterlimit="10" fill="#808080" fill-rule="evenodd"/><path d="M104.44 155.14 120.8 205.52 146.88 205.51 163.24 155.15 104.44 155.14Z" stroke="#040000" stroke-miterlimit="10" fill="#808080" fill-rule="evenodd"/><path d="M181.41 99.23 197.74 48.97 176.59 33.61 133.83 64.68 181.41 99.23Z" stroke="#040000" stroke-miterlimit="10" fill="#808080" fill-rule="evenodd"/><path d="M176.59 33.61 133.77 2.5 91.01 33.55 133.83 64.68 176.59 33.61Z" stroke="#040000" stroke-miterlimit="10" fill="#808080" fill-rule="evenodd"/><path d="M146.88 205.51 199.72 205.52 216.08 155.14 163.24 155.15 146.88 205.51Z" stroke="#040000" stroke-miterlimit="10" fill="#808080" fill-rule="evenodd"/><path d="M224.16 130.29 240.49 80.04 197.74 48.97 181.41 99.23 224.16 130.29Z" stroke="#040000" stroke-miterlimit="10" fill="#1B1B1B" fill-rule="evenodd"/><path d="M163.24 155.15 216.08 155.14 224.16 130.29 181.41 99.23 163.24 155.15Z" stroke="#040000" stroke-miterlimit="10" fill="#808080" fill-rule="evenodd"/><path d="M2.5 71C7.72 87.2867 12.97 103.62 18.25 120L45.35 128.37C40.0167 111.79 34.6833 95.27 29.35 78.81 20.33 76.1967 11.38 73.5933 2.5 71Z" stroke="#040000" stroke-miterlimit="10" fill="#808080" fill-rule="evenodd"/><path d="M0.6 70.41C0.69306 70.1218 0.850348 69.8585 1.06 69.64 1.5764 69.1054 2.34664 68.9013 3.06 69.11L29.89 76.91C30.5263 77.0975 31.0282 77.5882 31.23 78.22L47.23 127.78C47.5654 128.832 46.9841 129.957 45.9317 130.293 45.5444 130.416 45.1287 130.419 44.74 130.3L17.64 121.93C17.0137 121.739 16.5207 121.253 16.32 120.63L0.59 71.64C0.464041 71.2391 0.46754 70.8088 0.6 70.41ZM27.76 80.41 5.54 74 19.82 118.43 42.28 125.36Z" stroke="#040000" stroke-miterlimit="10" fill="#060001"/><path d="M267.17 71.34C258.337 74.26 249.507 77.1967 240.68 80.15L224.13 131.09C232.963 128.137 241.787 125.203 250.6 122.29 256.12 105.303 261.643 88.32 267.17 71.34Z" stroke="#040000" stroke-miterlimit="10" fill="#808080" fill-rule="evenodd"/><path d="M251.23 124.18C251.833 123.979 252.304 123.504 252.5 122.9L268.72 73C268.732 72.5611 268.698 72.1221 268.62 71.69 268.615 71.6301 268.615 71.5699 268.62 71.51 268.457 70.9899 268.249 70.4848 268 70 267.971 69.9759 267.944 69.9491 267.92 69.92 267.784 69.7474 267.637 69.5837 267.48 69.43 267.477 69.4068 267.477 69.3832 267.48 69.36 267.195 69.3219 266.905 69.3458 266.63 69.43 257.777 72.35 248.943 75.2867 240.13 78.24 239.53 78.4388 239.059 78.9097 238.86 79.51L222.31 130.46C222.091 131.166 222.28 131.935 222.8 132.46 223.327 132.977 224.096 133.161 224.8 132.94 233.6 130.013 242.41 127.093 251.23 124.18ZM242.23 81.72C249.497 79.2933 256.757 76.88 264.01 74.48L249.01 120.71C241.75 123.11 234.493 125.52 227.24 127.94Z" stroke="#040000" stroke-miterlimit="10" fill="#060001"/><path d="M43.41 128.36C43.5414 127.958 43.797 127.608 44.14 127.36L85.14 97.6C85.656 97.2229 86.3213 97.1151 86.93 97.31 87.5387 97.5101 88.0146 97.9898 88.21 98.6L106.38 154.51C106.589 155.118 106.48 155.789 106.09 156.3 105.714 156.814 105.117 157.118 104.48 157.12L53.83 157.12C52.9675 157.121 52.2017 156.569 51.93 155.75L43.41 129.6C43.2852 129.196 43.2852 128.764 43.41 128.36ZM85.22 102.46 47.66 129.74 55.28 153.15 101.7 153.15Z" stroke="#040000" stroke-miterlimit="10" fill="#060001"/><path d="M68 48.27C68.1255 47.8649 68.3824 47.513 68.73 47.27L89.83 31.94C90.5286 31.4361 91.4714 31.4361 92.17 31.94L135 63.07C135.518 63.4434 135.826 64.0416 135.83 64.68 135.84 65.3243 135.529 65.9314 135 66.3L87.44 100.83C86.928 101.217 86.2579 101.325 85.65 101.12 85.0436 100.922 84.5681 100.446 84.37 99.84L68 49.5C67.8651 49.1011 67.8651 48.6689 68 48.27ZM91 36 72.25 49.65 87.32 96 130.44 64.68Z" stroke="#040000" stroke-miterlimit="10" fill="#060001"/><path d="M102.54 154.52C102.808 153.697 103.575 153.141 104.44 153.14L163.24 153.14C164.345 153.143 165.238 154.04 165.235 155.145 165.235 155.35 165.203 155.554 165.14 155.75L148.78 206.11C148.508 206.929 147.742 207.481 146.88 207.48L120.8 207.48C119.939 207.475 119.177 206.919 118.91 206.1L102.54 155.72C102.421 155.329 102.421 154.911 102.54 154.52ZM160.54 157.15 107.23 157.15 122.3 203.54 145.47 203.54Z" stroke="#040000" stroke-miterlimit="10" fill="#060001"/><path d="M131.93 64.06C132.061 63.6578 132.317 63.3077 132.66 63.06L175.42 32C176.119 31.4961 177.061 31.4961 177.76 32L198.91 47.36C199.61 47.8675 199.904 48.767 199.64 49.59L183.31 99.85C183.112 100.456 182.636 100.932 182.03 101.13 181.421 101.325 180.756 101.217 180.24 100.84L132.66 66.29C132.146 65.9144 131.842 65.3166 131.84 64.68 131.839 64.47 131.869 64.261 131.93 64.06ZM176.59 36.06 137.23 64.67 180.36 96 195.36 49.72Z" stroke="#040000" stroke-miterlimit="10" fill="#060001"/><path d="M89.11 32.94C89.2414 32.5378 89.497 32.1877 89.84 31.94L132.6 0.88C133.299 0.376089 134.241 0.376089 134.94 0.88L177.76 32C178.278 32.3734 178.586 32.9716 178.59 33.61 178.606 34.2506 178.297 34.8559 177.77 35.22L135 66.29C134.299 66.7987 133.351 66.7987 132.65 66.29L89.84 35.16C89.3185 34.7887 89.0062 34.1902 89 33.55 89.0013 33.3419 89.0385 33.1355 89.11 32.94ZM133.77 5 94.41 33.55 133.83 62.21 173.2 33.62Z" stroke="#040000" stroke-miterlimit="10" fill="#060001"/><path d="M145 204.89 161.36 154.54C161.628 153.717 162.395 153.161 163.26 153.16L216.1 153.16C217.205 153.163 218.098 154.06 218.095 155.165 218.095 155.37 218.063 155.574 218 155.77L201.63 206.14C201.363 206.959 200.601 207.515 199.74 207.52L146.88 207.52C146.241 207.529 145.639 207.222 145.27 206.7 144.893 206.176 144.793 205.502 145 204.89ZM164.71 157.15 149.65 203.52 198.28 203.52 213.36 157.14Z" stroke="#040000" stroke-miterlimit="10" fill="#060001"/><path d="M179.51 98.62 195.84 48.35C196.04 47.7413 196.52 47.2654 197.13 47.07 197.736 46.8785 198.396 46.9861 198.91 47.36L241.66 78.43C242.352 78.9387 242.641 79.8322 242.38 80.65L226.06 130.91C225.86 131.519 225.38 131.995 224.77 132.19 224.164 132.382 223.504 132.274 222.99 131.9L180.24 100.84C179.545 100.334 179.251 99.44 179.51 98.62ZM198.79 52.2 183.79 98.47 223.14 127.06 238.14 80.8Z" stroke="#040000" stroke-miterlimit="10" fill="#060001"/><path d="M161.34 154.54 179.51 98.62C179.71 98.0113 180.19 97.5354 180.8 97.34 181.404 97.1456 182.065 97.2495 182.58 97.62L225.33 128.68C226.03 129.188 226.324 130.087 226.06 130.91L218 155.76C217.732 156.583 216.965 157.139 216.1 157.14L163.24 157.14C162.135 157.137 161.242 156.24 161.245 155.135 161.245 154.93 161.277 154.726 161.34 154.53ZM182.46 102.46 166 153.16 214.64 153.16 221.82 131.06Z" stroke="#040000" stroke-miterlimit="10" fill="#060001"/></g></g></svg>