<svg version="1.1" viewBox="0 0 296.22 298.03" xmlns="http://www.w3.org/2000/svg" xmlns:xlink="http://www.w3.org/1999/xlink" overflow="hidden"><defs></defs><g id="b7e1e5d1-4338-449c-a8e7-88570cd966ef"><g id="b19c2b3a-58b7-43c4-ad4f-56fc5247a894"><g id="a745fb1a-fca5-4b75-a397-762c67462a6a"><path d=" M 176.94 182.26 L 118.13 182.25 L 99.96 126.31 L 147.53 91.77 L 195.12 126.33 L 176.94 182.26 Z" fill="#808080"/><path d=" M 176.94 182.26 L 195.12 126.33 L 147.53 91.77 L 99.96 126.31 L 118.13 182.25 L 176.94 182.26 Z" stroke="#040000" stroke-miterlimit="10" fill="none"/><path d=" M 98.08 125.7 C 98.2114 125.298 98.467 124.948 98.81 124.7 L 146.37 90.16 C 147.069 89.6561 148.011 89.6561 148.71 90.16 L 196.29 124.72 C 197.004 125.24 197.293 126.167 197 127 L 178.83 182.92 C 178.558 183.739 177.792 184.291 176.93 184.29 L 118.13 184.29 C 117.265 184.289 116.498 183.733 116.23 182.91 L 98.08 126.93 C 97.9451 126.531 97.9451 126.099 98.08 125.7 Z M 147.54 94.24 L 102.32 127.08 L 119.6 180.24 L 175.5 180.24 L 192.77 127.08 Z" stroke="#040000" stroke-miterlimit="10" fill="#211613"/><path d=" M 67.27 255.24 L 83.7 232.81 L 134.52 232.8 L 118.08 255.23 L 67.27 255.24 Z" stroke="#040000" stroke-miterlimit="10" fill="#ADD8E6" fill-rule="evenodd"/><path d=" M 119.69 256.41 L 136.13 234 C 136.573 233.394 136.638 232.59 136.3 231.92 C 135.958 231.251 135.271 230.83 134.52 230.83 L 83.7 230.83 C 83.0634 230.832 82.4656 231.136 82.09 231.65 L 65.66 254.06 C 65.5343 254.23 65.4364 254.419 65.37 254.62 C 65.3744 254.653 65.3744 254.687 65.37 254.72 C 65.0814 255.558 65.3784 256.486 66.1 257 C 66.4701 257.205 66.8787 257.331 67.3 257.37 C 67.4866 257.366 67.6718 257.336 67.85 257.28 L 118.08 257.28 C 118.726 257.267 119.325 256.943 119.69 256.41 Z M 71.21 253.25 L 84.71 234.8 L 130.58 234.8 L 117.06 253.24 Z" stroke="#040000" stroke-miterlimit="10" fill="#060001"/><path d=" M 177.11 255.24 L 195.36 280.14 L 147.59 295.53 L 99.85 280.13 L 118.08 255.23 L 177.11 255.24 Z" stroke="#040000" stroke-miterlimit="10" fill="#FF1493" fill-rule="evenodd"/><path d=" M 197 279 L 178.76 254.1 C 178.382 253.583 177.78 253.278 177.14 253.28 L 118.14 253.28 C 117.503 253.282 116.906 253.586 116.53 254.1 L 98.24 279 C 98.1143 279.17 98.0164 279.359 97.95 279.56 L 97.95 279.56 C 97.95 279.66 97.95 279.75 97.88 279.84 C 97.9182 280.095 97.9416 280.352 97.95 280.61 C 98.32 281.26 98.74 281.89 99.44 282.03 C 99.6152 282.064 99.7798 282.139 99.92 282.25 L 147 297.43 C 147.397 297.557 147.823 297.557 148.22 297.43 L 196 282 C 197.062 281.576 197.579 280.372 197.155 279.31 C 197.112 279.203 197.06 279.099 197 279 Z M 147.62 293.47 L 103.1 279.08 L 119.1 257.23 L 176.1 257.23 L 192.1 279.08 Z" stroke="#040000" stroke-miterlimit="10" fill="#060001"/><path d=" M 118.08 255.23 L 134.52 232.8 L 160.69 232.81 L 177.11 255.24 L 118.08 255.23 Z" stroke="#040000" stroke-miterlimit="10" fill="#FF1493" fill-rule="evenodd"/><path d=" M 116.18 254.62 C 116.242 254.417 116.34 254.228 116.47 254.06 L 132.91 231.63 C 133.286 231.116 133.883 230.812 134.52 230.81 L 160.69 230.81 C 161.325 230.809 161.922 231.11 162.3 231.62 L 178.73 254.06 C 179.169 254.668 179.231 255.472 178.89 256.14 C 178.548 256.809 177.861 257.23 177.11 257.23 L 118.66 257.23 C 117.607 257.565 116.483 256.983 116.148 255.931 C 116.021 255.534 116.022 255.107 116.15 254.71 Z M 135.53 234.8 L 122 253.24 L 173.17 253.24 L 159.67 234.81 Z" stroke="#040000" stroke-miterlimit="10" fill="#060001"/><path d=" M 160.69 232.81 L 213.76 232.8 L 230.19 255.22 L 177.11 255.24 L 160.69 232.81 Z" stroke="#040000" stroke-miterlimit="10" fill="#00D800" fill-rule="evenodd"/><path d=" M 230.74 256.75 L 230.84 256.65 C 231.254 256.369 231.596 255.996 231.84 255.56 C 231.84 255.56 231.84 255.56 231.84 255.51 C 231.868 255.377 231.922 255.251 232 255.14 C 232 255.08 232.05 255.03 232.07 254.97 C 232.08 254.934 232.097 254.9 232.12 254.87 C 232.077 254.573 231.968 254.289 231.8 254.04 L 215.37 231.62 C 214.994 231.106 214.397 230.802 213.76 230.8 L 160.69 230.8 C 159.939 230.8 159.252 231.221 158.91 231.89 C 158.862 231.983 158.821 232.08 158.79 232.18 C 158.592 232.792 158.7 233.462 159.08 233.98 L 175.5 256.41 C 175.878 256.92 176.475 257.221 177.11 257.22 L 229.41 257.22 C 229.867 257.104 230.312 256.947 230.74 256.75 Z M 178.12 253.24 L 164.63 234.8 L 212.75 234.8 L 226.25 253.23 Z" stroke="#040000" stroke-miterlimit="10" fill="#060001"/><path d=" M 99.98 126.32 L 59.02 156.08 L 67.54 182.25 L 118.15 182.23 L 99.98 126.32 Z" stroke="#040000" stroke-miterlimit="10" fill="#808080" fill-rule="evenodd"/><path d=" M 67.54 182.25 L 83.9 232.63 L 134.51 232.62 L 118.15 182.23 L 67.54 182.25 Z" stroke="#040000" stroke-miterlimit="10" fill="#808080" fill-rule="evenodd"/><path d=" M 65.64 181.63 C 65.7083 181.43 65.8061 181.241 65.93 181.07 C 66.3056 180.556 66.9034 180.252 67.54 180.25 L 118.15 180.25 C 119.015 180.251 119.782 180.807 120.05 181.63 L 136.41 232 C 136.608 232.607 136.504 233.272 136.13 233.79 C 135.752 234.307 135.15 234.612 134.51 234.61 L 83.9 234.61 C 83.0375 234.611 82.2717 234.059 82 233.24 L 65.64 182.86 C 65.5108 182.46 65.5108 182.03 65.64 181.63 Z M 116.7 184.23 L 70.29 184.23 L 85.35 230.62 L 131.77 230.62 Z" stroke="#040000" stroke-miterlimit="10" fill="#060001"/><path d=" M 59.02 156.08 L 99.98 126.32 L 83.62 75.98 L 42.68 105.74 L 59.02 156.08 Z" stroke="#040000" stroke-miterlimit="10" fill="#808080" fill-rule="evenodd"/><path d=" M 40.78 105.13 C 40.9088 104.729 41.1607 104.379 41.5 104.13 L 82.44 74.37 C 83.3329 73.7197 84.5838 73.9164 85.2341 74.8092 C 85.3584 74.9799 85.4549 75.1692 85.52 75.37 L 101.87 125.71 C 102.131 126.528 101.842 127.421 101.15 127.93 L 60.15 157.69 C 59.634 158.067 58.9687 158.175 58.36 157.98 C 57.7513 157.78 57.2754 157.3 57.08 156.69 L 40.78 106.36 C 40.6451 105.961 40.6451 105.529 40.78 105.13 Z M 82.57 79.22 L 45 106.5 L 60 152.84 L 97.56 125.56 Z" stroke="#040000" stroke-miterlimit="10" fill="#060001"/><path d=" M 147.54 91.78 L 104.72 60.65 L 83.62 75.98 L 99.98 126.32 L 147.54 91.78 Z" stroke="#040000" stroke-miterlimit="10" fill="#808080" fill-rule="evenodd"/><path d=" M 118.15 182.23 L 134.51 232.62 L 160.59 232.61 L 176.95 182.25 L 118.15 182.23 Z" stroke="#040000" stroke-miterlimit="10" fill="#808080" fill-rule="evenodd"/><path d=" M 195.12 126.33 L 211.45 76.07 L 190.3 60.71 L 147.54 91.78 L 195.12 126.33 Z" stroke="#040000" stroke-miterlimit="10" fill="#808080" fill-rule="evenodd"/><path d=" M 190.3 60.71 L 147.48 29.59 L 104.72 60.65 L 147.54 91.78 L 190.3 60.71 Z" stroke="#040000" stroke-miterlimit="10" fill="#808080" fill-rule="evenodd"/><path d=" M 160.59 232.61 L 213.42 232.61 L 229.79 182.24 L 176.95 182.25 L 160.59 232.61 Z" stroke="#040000" stroke-miterlimit="10" fill="#808080" fill-rule="evenodd"/><path d=" M 237.87 157.39 L 254.19 107.14 L 211.45 76.07 L 195.12 126.33 L 237.87 157.39 Z" stroke="#040000" stroke-miterlimit="10" fill="#808080" fill-rule="evenodd"/><path d=" M 176.95 182.25 L 229.79 182.24 L 237.87 157.39 L 195.12 126.33 L 176.95 182.25 Z" stroke="#040000" stroke-miterlimit="10" fill="#808080" fill-rule="evenodd"/><path d=" M 2.5 188.8 C 12.2333 202.48 22.0167 216.247 31.85 230.1 C 34.92 225.9 38.01 221.64 41.09 217.41 C 44.17 213.18 47.28 208.85 50.41 204.58 C 47.3233 194.947 44.2433 185.35 41.17 175.79 C 38.0967 166.23 35.04 156.673 32 147.12 C 27.05 145.58 22.09 144.07 17.18 142.56 L 2.53 138.06 C 2.50333 154.98 2.49333 171.893 2.5 188.8 Z" stroke="#040000" stroke-miterlimit="10" fill="#00D800" fill-rule="evenodd"/><path d=" M 0.59 137.45 C 0.714947 137.047 0.967702 136.696 1.31 136.45 C 1.81531 136.076 2.46722 135.961 3.07 136.14 L 32.55 145.2 C 33.1725 145.394 33.6613 145.879 33.86 146.5 C 36.92 156.06 39.99 165.617 43.07 175.17 L 52.31 204 C 52.5153 204.608 52.4067 205.278 52.02 205.79 L 33.46 231.28 C 32.8122 232.175 31.5618 232.375 30.6671 231.727 C 30.4953 231.603 30.3444 231.452 30.22 231.28 L 0.87 190 C 0.63055 189.645 0.501773 189.228 0.5 188.8 L 0.5 138.06 C 0.499823 137.853 0.530149 137.648 0.59 137.45 Z M 30.37 148.72 L 4.49 140.72 L 4.49 188.12 L 31.86 226.64 L 48.2 204.22 L 39.26 176.4 C 36.3 167.18 33.3367 157.953 30.37 148.72 Z" stroke="#040000" stroke-miterlimit="10" fill="#040000"/><path d=" M 16.21 98.13 C 21.4033 114.423 26.6667 130.753 32 147.12 L 59.1 155.49 C 53.7667 138.91 48.4333 122.39 43.1 105.93 Z" stroke="#040000" stroke-miterlimit="10" fill="#00D800" fill-rule="evenodd"/><path d=" M 14.31 97.51 C 14.4039 97.2192 14.561 96.9529 14.77 96.73 C 15.2885 96.199 16.0585 95.9988 16.77 96.21 L 43.6 104 C 44.2339 104.185 44.7354 104.672 44.94 105.3 L 60.94 154.87 C 61.2754 155.922 60.6941 157.047 59.6417 157.383 C 59.2544 157.506 58.8387 157.509 58.45 157.39 L 31.37 149 C 30.7437 148.809 30.2507 148.323 30.05 147.7 L 14.3 98.7 C 14.1825 98.3115 14.186 97.8965 14.31 97.51 Z M 41.47 107.51 L 19.25 101.05 L 33.53 145.48 L 56 152.45 Z" stroke="#040000" stroke-miterlimit="10" fill="#060001"/><path d=" M 50.41 204.58 C 56.05 196.82 61.7167 189.013 67.41 181.16 C 64.63 172.593 61.86 164.037 59.1 155.49 L 32 147.12 C 35.0467 156.68 38.1167 166.237 41.21 175.79 C 44.3033 185.343 47.37 194.94 50.41 204.58 Z" stroke="#040000" stroke-miterlimit="10" fill="#00D800" fill-rule="evenodd"/><path d=" M 30.06 146.5 C 30.399 145.468 31.5002 144.895 32.54 145.21 L 59.66 153.59 C 60.2763 153.785 60.7606 154.265 60.96 154.88 L 69.27 180.54 C 69.4533 181.145 69.3502 181.801 68.99 182.32 C 63.8033 189.54 58.62 196.703 53.44 203.81 L 52 205.75 C 51.5623 206.358 50.8212 206.671 50.08 206.56 C 49.3337 206.44 48.7186 205.91 48.49 205.19 L 39.26 176.4 C 36.1933 166.847 33.1233 157.29 30.05 147.73 C 29.924 147.329 29.9275 146.899 30.06 146.5 Z M 57.48 157.09 L 35 150.16 C 37.6667 158.493 40.3333 166.827 43 175.16 L 51 200.16 C 55.6667 193.727 60.3533 187.257 65.06 180.75 Z" stroke="#040000" stroke-miterlimit="10" fill="#060001"/><path d=" M 67.14 256.67 C 72.86 249.037 78.5933 241.347 84.34 233.6 C 78.6733 216.08 73.0067 198.6 67.34 181.16 C 61.68 189.033 56.0133 196.84 50.34 204.58 C 55.9467 221.9 61.5467 239.263 67.14 256.67 Z" stroke="#040000" stroke-miterlimit="10" fill="#EEE8AA" fill-rule="evenodd"/><path d=" M 56.28 19.25 C 46.76 32.49 37.2967 45.67 27.89 58.79 C 32.69 60.26 37.54 61.68 42.39 63.18 L 57 67.6 C 64.78 61.9133 72.6 56.21 80.46 50.49 L 104.23 33.16 C 104.13 28.16 104.06 23.08 103.96 18.06 C 103.86 13.04 103.79 8 103.71 3 C 87.77 8.44667 71.96 13.8633 56.28 19.25 Z" stroke="#040000" stroke-miterlimit="10" fill="#FFA100" fill-rule="evenodd"/><path d=" M 26 58.18 C 26.0586 57.9809 26.1535 57.7945 26.28 57.63 C 33.7267 47.27 41.1833 36.8767 48.65 26.45 L 54.65 18.08 C 54.8993 17.7407 55.2492 17.4888 55.65 17.36 L 103.07 1.09 C 104.116 0.736506 105.251 1.29828 105.605 2.34476 C 105.676 2.55579 105.712 2.77726 105.71 3 L 106.24 33.17 C 106.249 33.8225 105.939 34.4383 105.41 34.82 L 58.19 69.21 C 57.683 69.5808 57.0312 69.6919 56.43 69.51 L 41.81 65.09 C 39.01 64.23 36.22 63.3867 33.44 62.56 L 27.31 60.7 C 26.2554 60.3716 25.6666 59.2505 25.995 58.1959 C 25.9966 58.1906 25.9983 58.1853 26 58.18 Z M 57.53 20.93 L 51.9 28.78 C 44.9733 38.4533 38.0533 48.09 31.14 57.69 L 34.58 58.69 C 37.38 59.5633 40.1867 60.4233 43 61.27 L 56.63 65.4 L 102.23 32.16 L 101.76 5.75 Z" stroke="#040000" stroke-miterlimit="10" fill="#060001"/><path d=" M 145.76 2.87 C 131.833 13.05 117.993 23.1467 104.24 33.16 C 104.39 42.24 104.54 51.3 104.71 60.39 L 146.28 30.39 C 146.093 21.2167 145.92 12.0433 145.76 2.87 Z" stroke="#040000" stroke-miterlimit="10" fill="#FFA100" fill-rule="evenodd"/><path d=" M 105.88 62 L 147.46 32 C 147.988 31.6141 148.295 30.9942 148.28 30.34 C 148.09 21.73 147.95 13.13 147.79 4.48 L 147.79 2.87 C 147.775 2.12551 147.347 1.45121 146.68 1.12 C 146.452 1.008 146.204 0.943365 145.95 0.93 L 145.95 0.93 L 145.95 0.93 C 145.811 0.991567 145.662 1.02553 145.51 1.03 L 144.78 1.35 L 144.26 1.56 C 130.467 11.6533 116.763 21.6533 103.15 31.56 C 102.807 31.8077 102.551 32.1578 102.42 32.56 C 102.35 32.7693 102.32 32.9896 102.33 33.21 L 102.79 60.44 C 102.853 61.5427 103.799 62.3853 104.901 62.322 C 105.25 62.3019 105.588 62.1909 105.88 62 Z M 106.25 34.15 C 118.71 25.0833 131.24 15.9467 143.84 6.74 C 143.967 14.28 144.11 21.8067 144.27 29.32 L 106.64 56.54 Z" stroke="#040000" stroke-miterlimit="10" fill="#060001"/><path d=" M 57 67.6 C 65.8 70.2667 74.6567 72.9533 83.57 75.66 L 104.7 60.39 C 104.53 51.3 104.38 42.24 104.23 33.16 L 80.47 50.49 C 72.63 56.2167 64.8067 61.92 57 67.6 Z" stroke="#040000" stroke-miterlimit="10" fill="#FFA100" fill-rule="evenodd"/><path d=" M 55.11 67 C 55.2361 66.6005 55.4845 66.2508 55.82 66 L 103.07 31.57 C 103.67 31.1321 104.463 31.0628 105.13 31.39 C 105.796 31.7256 106.22 32.4041 106.23 33.15 L 106.7 60.38 C 106.711 61.0307 106.405 61.6462 105.88 62.03 L 84.75 77.28 C 84.2438 77.6442 83.5966 77.7515 83 77.57 C 74.1 74.9033 65.2433 72.2167 56.43 69.51 C 55.6891 69.3023 55.133 68.6879 55 67.93 C 54.9626 67.6157 55.0002 67.2969 55.11 67 Z M 102.31 37 L 61.41 66.86 C 68.6433 69.06 75.91 71.26 83.21 73.46 L 102.69 59.38 Z" stroke="#040000" stroke-miterlimit="10" fill="#060001"/><path d=" M 15.44 97.92 L 41.44 106.11 C 55.38 96.0367 69.4267 85.8867 83.58 75.66 C 74.6733 72.9733 65.8133 70.2867 57 67.6 Z" stroke="#040000" stroke-miterlimit="10" fill="#FFA100" fill-rule="evenodd"/><path d=" M 42.61 107.72 L 84.75 77.28 C 85.3699 76.816 85.6755 76.0424 85.54 75.28 C 85.4153 74.535 84.8815 73.9238 84.16 73.7 L 57.58 65.69 C 56.9818 65.5114 56.3345 65.6224 55.83 65.99 L 15.33 95.53 C 15.2025 95.7093 15.092 95.9001 15 96.1 C 15 96.15 14.92 96.26 14.85 96.37 C 14.8141 96.5594 14.7278 96.7356 14.6 96.88 C 14.5727 97.0694 14.4969 97.2485 14.38 97.4 C 14.2457 97.9631 14.2911 98.5541 14.51 99.09 C 14.6046 99.282 14.6394 99.498 14.61 99.71 C 14.6825 99.7547 14.7596 99.7916 14.84 99.82 L 40.84 108.01 C 41.4427 108.198 42.0989 108.091 42.61 107.72 Z M 19.81 97.2 L 57.37 69.8 C 64.59 72 71.8467 74.2 79.14 76.4 L 41.14 103.9 Z" stroke="#040000" stroke-miterlimit="10" fill="#060001"/><path d=" M 237.84 18.68 C 221.947 13.4 206.053 8.11333 190.16 2.82 C 190.22 7.88 190.3 12.97 190.34 18.05 C 190.38 23.13 190.48 28.25 190.53 33.35 C 198.53 39.1767 206.557 44.9967 214.61 50.81 C 222.663 56.6233 230.717 62.4567 238.77 68.31 L 253.37 63.69 C 258.21 62.16 263.1 60.61 267.97 59.09 C 257.89 45.59 247.847 32.12 237.84 18.68 Z" stroke="#040000" stroke-miterlimit="10" fill="#ADD8E6" fill-rule="evenodd"/><path d=" M 188.26 2.2 C 188.389 1.7992 188.641 1.44925 188.98 1.2 C 189.501 0.816258 190.175 0.70821 190.79 0.91 C 206.71 6.24333 222.603 11.5333 238.47 16.78 C 238.87 16.8997 239.221 17.1451 239.47 17.48 L 269.57 57.9 C 270.209 58.8477 269.96 60.1343 269.012 60.7737 C 268.874 60.8666 268.726 60.9426 268.57 61 L 239.38 70.22 C 238.777 70.3972 238.125 70.2905 237.61 69.93 C 229.61 64.17 221.667 58.4167 213.78 52.67 C 205.4 46.61 197.38 40.8 189.37 34.96 C 188.862 34.5886 188.558 33.9995 188.55 33.37 L 188.45 26.2 C 188.41 23.48 188.377 20.7667 188.35 18.06 C 188.35 14.75 188.28 11.42 188.24 8.06 L 188.17 2.8 C 188.165 2.59629 188.195 2.39323 188.26 2.2 Z M 236.62 20.37 C 221.82 15.4567 207.01 10.5333 192.19 5.6 L 192.19 8.05 C 192.19 11.37 192.28 14.71 192.31 18.05 C 192.31 20.74 192.37 23.45 192.41 26.17 L 192.49 32.34 C 200.223 37.9733 207.977 43.5967 215.75 49.21 C 223.7 54.99 231.39 60.56 239.09 66.12 L 264.69 58 Z" stroke="#040000" stroke-miterlimit="10" fill="#060001"/><path d=" M 280.47 98.54 C 266.53 88.4467 252.63 78.37 238.77 68.31 C 229.93 71.08 221.13 73.88 212.31 76.65 L 254.07 107 C 262.86 104.15 271.69 101.34 280.47 98.54 Z" stroke="#040000" stroke-miterlimit="10" fill="#EEE8AA" fill-rule="evenodd"/><path d=" M 282.36 99.09 C 282.365 99.0034 282.365 98.9166 282.36 98.83 C 282.355 98.7701 282.355 98.7099 282.36 98.65 C 282.184 98.1175 281.959 97.6021 281.69 97.11 C 281.659 97.0922 281.632 97.0684 281.61 97.04 C 281.492 96.8896 281.365 96.7461 281.23 96.61 L 276 92.86 C 263.94 84.1267 251.91 75.4067 239.91 66.7 C 239.401 66.3259 238.744 66.2147 238.14 66.4 L 211.68 74.74 C 211.061 74.9367 210.577 75.4214 210.38 76.04 C 210.351 76.1352 210.327 76.232 210.31 76.33 C 210.193 77.0726 210.502 77.8181 211.11 78.26 L 252.86 108.59 C 253.376 108.967 254.041 109.075 254.65 108.88 C 261.92 106.53 269.22 104.22 276.5 101.88 L 281.04 100.43 C 281.676 100.231 282.171 99.7286 282.36 99.09 Z M 275.36 98.09 C 268.4 100.31 261.433 102.533 254.46 104.76 L 216.73 77.36 L 238.45 70.51 C 250.15 79.0433 261.897 87.5733 273.69 96.1 L 276.1 97.85 Z" stroke="#040000" stroke-miterlimit="10" fill="#060001"/><path d=" M 190.53 33.35 C 190.623 42.5633 190.733 51.8 190.86 61.06 C 197.987 66.26 205.137 71.4567 212.31 76.65 C 221.13 73.88 229.93 71.08 238.77 68.31 C 230.677 62.47 222.623 56.6367 214.61 50.81 C 206.597 44.9833 198.57 39.1633 190.53 33.35 Z" stroke="#040000" stroke-miterlimit="10" fill="#ADD8E6" fill-rule="evenodd"/><path d=" M 188.63 32.73 C 188.799 32.2297 189.158 31.8163 189.63 31.58 C 190.298 31.2389 191.102 31.3007 191.71 31.74 L 215.79 49.19 L 216.2 49.48 C 224.073 55.2133 231.987 60.95 239.94 66.69 C 240.556 67.1312 240.869 67.8821 240.75 68.63 C 240.612 69.3709 240.084 69.9791 239.37 70.22 L 212.92 78.56 C 212.317 78.7481 211.661 78.6406 211.15 78.27 L 189.69 62.68 C 189.181 62.3128 188.873 61.7278 188.86 61.1 C 188.727 51.82 188.62 42.5767 188.54 33.37 C 188.534 33.1531 188.564 32.9368 188.63 32.73 Z M 234.37 67.6 C 227.497 62.64 220.653 57.68 213.84 52.72 C 206.52 47.42 199.52 42.35 192.57 37.3 C 192.65 44.86 192.74 52.44 192.84 60.04 L 212.67 74.45 Z" stroke="#040000" stroke-miterlimit="10" fill="#060001"/><path d=" M 147.38 2.09 C 147.38 11.24 147.48 20.41 147.54 29.61 C 161.94 40.0767 176.38 50.56 190.86 61.06 C 190.72 51.8 190.61 42.5633 190.53 33.35 C 176.11 22.9233 161.727 12.5033 147.38 2.09 Z" stroke="#040000" stroke-miterlimit="10" fill="#ADD8E6" fill-rule="evenodd"/><path d=" M 191.78 62.84 C 192.461 62.4831 192.876 61.768 192.85 61 C 192.723 51.74 192.617 42.51 192.53 33.31 C 192.528 32.6734 192.224 32.0756 191.71 31.7 L 148.75 0.61 C 147.848 0.420304 146.909 0.511027 146.06 0.87 C 146.004 0.879511 145.946 0.879511 145.89 0.87 L 145.89 0.87 L 145.78 0.87 C 145.658 1.02622 145.563 1.20206 145.5 1.39 C 145.437 1.59072 145.403 1.79958 145.4 2.01 C 145.4 9.43 145.44 16.87 145.52 24.33 L 145.52 29.55 C 145.527 30.1848 145.835 30.7786 146.35 31.15 L 189.67 62.6 C 190.269 63.0776 191.089 63.1708 191.78 62.84 Z M 149.53 28.59 L 149.53 24.38 C 149.49 18.24 149.453 12.1167 149.42 6.01 L 188.57 34.38 C 188.65 41.94 188.74 49.5167 188.84 57.11 Z" stroke="#040000" stroke-miterlimit="10" fill="#060001"/><path d=" M 293.45 190.26 C 293.543 173.38 293.633 156.497 293.72 139.61 C 288.82 141.22 283.91 142.87 279.02 144.49 C 274.13 146.11 269.2 147.75 264.31 149.39 C 261.243 158.823 258.17 168.26 255.09 177.7 L 245.87 206.08 C 248.87 210.28 251.87 214.48 254.87 218.68 C 257.87 222.88 260.87 227.1 263.87 231.33 C 273.737 217.623 283.597 203.933 293.45 190.26 Z" stroke="#040000" stroke-miterlimit="10" fill="#EEE8AA" fill-rule="evenodd"/><path d=" M 244 205.46 L 262.44 148.77 C 262.636 148.166 263.107 147.691 263.71 147.49 L 293.13 137.71 C 293.742 137.512 294.412 137.62 294.93 138 C 295.447 138.378 295.752 138.98 295.75 139.62 C 295.677 151.433 295.613 163.243 295.56 175.05 L 295.48 190.27 C 295.474 190.685 295.345 191.088 295.11 191.43 C 285.16 205.23 275.35 218.85 265.54 232.49 C 264.892 233.385 263.642 233.585 262.747 232.937 C 262.575 232.813 262.424 232.662 262.3 232.49 L 244.3 207.24 C 243.923 206.728 243.811 206.067 244 205.46 Z M 265.9 151 L 248.08 205.78 L 263.9 227.93 C 273.087 215.163 282.273 202.403 291.46 189.65 L 291.53 175.07 C 291.59 164.19 291.65 153.307 291.71 142.42 Z" stroke="#040000" stroke-miterlimit="10" fill="#060001"/><path d=" M 230 254.87 C 235.293 238.597 240.583 222.333 245.87 206.08 C 240.47 198.467 235.07 190.883 229.67 183.33 L 213.81 232.13 C 219.19 239.71 224.587 247.29 230 254.87 Z" stroke="#040000" stroke-miterlimit="10" fill="#FF1493" fill-rule="evenodd"/><path d=" M 230.84 256.65 C 231.254 256.369 231.596 255.996 231.84 255.56 C 231.84 255.56 231.84 255.56 231.84 255.51 C 231.87 255.4 231.918 255.296 231.98 255.2 C 231.98 255.12 232.05 255.04 232.07 254.97 L 232.07 254.97 L 247.76 206.71 C 247.954 206.11 247.854 205.455 247.49 204.94 L 231.28 182.17 C 230.632 181.275 229.382 181.076 228.487 181.724 C 228.146 181.971 227.891 182.32 227.76 182.72 L 211.9 231.52 C 211.706 232.12 211.806 232.775 212.17 233.29 C 215.59 238.11 219.02 242.93 222.46 247.75 L 228.37 256.04 C 228.809 256.652 229.555 256.965 230.3 256.85 C 230.462 256.823 230.62 256.776 230.77 256.71 Z M 225.72 245.42 C 222.48 240.873 219.247 236.33 216.02 231.79 L 230.34 187.71 L 243.66 206.42 L 229.33 250.48 Z" stroke="#040000" stroke-miterlimit="10" fill="#060001"/><path d=" M 264.31 149.39 C 255.49 152.31 246.667 155.243 237.84 158.19 L 229.67 183.33 C 235.063 190.897 240.463 198.48 245.87 206.08 L 255.09 177.7 C 258.163 168.26 261.237 158.823 264.31 149.39 Z" stroke="#040000" stroke-miterlimit="10" fill="#EEE8AA" fill-rule="evenodd"/><path d=" M 227.77 182.71 L 235.94 157.57 C 236.137 156.972 236.604 156.501 237.2 156.3 C 246.04 153.34 254.867 150.403 263.68 147.49 C 264.729 147.145 265.86 147.715 266.205 148.764 C 266.337 149.165 266.339 149.598 266.21 150 L 247.77 206.7 C 247.537 207.419 246.918 207.946 246.17 208.06 C 245.421 208.171 244.675 207.849 244.24 207.23 L 228.05 184.49 C 227.68 183.975 227.576 183.314 227.77 182.71 Z M 239.42 159.71 L 231.88 183 L 245.2 201.7 L 261.2 152.52 Z" stroke="#040000" stroke-miterlimit="10" fill="#060001"/><path d=" M 280.88 98.44 C 272.04 101.36 263.21 104.297 254.39 107.25 L 237.84 158.19 C 246.667 155.243 255.49 152.31 264.31 149.39 C 269.83 132.39 275.353 115.407 280.88 98.44 Z" stroke="#040000" stroke-miterlimit="10" fill="#FF1493" fill-rule="evenodd"/><path d=" M 264.94 151.28 C 265.543 151.079 266.014 150.604 266.21 150 L 282.43 100.14 C 282.437 99.7012 282.403 99.2627 282.33 98.83 C 282.325 98.7701 282.325 98.7099 282.33 98.65 C 282.152 98.1215 281.927 97.6095 281.66 97.12 L 281.58 97.04 C 281.44 96.87 281.3 96.7 281.14 96.54 L 281.14 96.48 C 280.858 96.4434 280.572 96.4673 280.3 96.55 C 271.453 99.4567 262.62 102.39 253.8 105.35 C 253.197 105.551 252.726 106.026 252.53 106.63 L 235.98 157.57 C 235.761 158.276 235.95 159.045 236.47 159.57 C 236.997 160.087 237.766 160.271 238.47 160.05 C 247.303 157.117 256.127 154.193 264.94 151.28 Z M 255.94 108.82 C 263.2 106.393 270.46 103.98 277.72 101.58 L 262.72 147.81 C 255.467 150.21 248.227 152.607 241 155 Z" stroke="#040000" stroke-miterlimit="10" fill="#060001"/><path d=" M 57.12 155.46 C 57.2514 155.058 57.507 154.708 57.85 154.46 L 98.8 124.71 C 99.3185 124.33 99.9883 124.222 100.6 124.42 C 101.205 124.623 101.677 125.102 101.87 125.71 L 120.05 181.62 C 120.259 182.228 120.15 182.899 119.76 183.41 C 119.384 183.924 118.787 184.228 118.15 184.23 L 67.54 184.23 C 66.6775 184.231 65.9117 183.679 65.64 182.86 L 57.12 156.7 C 56.9886 156.297 56.9886 155.863 57.12 155.46 Z M 98.93 129.55 L 61.37 156.84 L 69 180.25 L 115.42 180.25 Z" stroke="#040000" stroke-miterlimit="10" fill="#060001"/><path d=" M 81.72 75.37 C 81.8488 74.9692 82.1007 74.6193 82.44 74.37 L 103.55 59 C 104.249 58.4961 105.191 58.4961 105.89 59 L 148.71 90.12 C 149.227 90.4977 149.532 91.0999 149.53 91.74 C 149.549 92.3815 149.24 92.9885 148.71 93.35 L 101.15 127.89 C 100.254 128.536 99.0039 128.333 98.3581 127.437 C 98.2378 127.27 98.144 127.085 98.08 126.89 L 81.72 76.6 C 81.5851 76.2011 81.5851 75.7689 81.72 75.37 Z M 104.72 63.12 L 86 76.74 L 101 123.09 L 144.12 91.78 Z" stroke="#040000" stroke-miterlimit="10" fill="#060001"/><path d=" M 116.25 181.62 C 116.316 181.419 116.414 181.23 116.54 181.06 C 116.916 180.546 117.513 180.242 118.15 180.24 L 176.95 180.24 C 177.59 180.238 178.192 180.543 178.57 181.06 C 178.944 181.578 179.048 182.243 178.85 182.85 L 162.49 233.21 C 162.218 234.029 161.452 234.581 160.59 234.58 L 134.51 234.58 C 133.649 234.575 132.887 234.019 132.62 233.2 L 116.25 182.82 C 116.127 182.429 116.127 182.011 116.25 181.62 Z M 174.2 184.24 L 120.9 184.24 L 136 230.62 L 159.17 230.62 Z" stroke="#040000" stroke-miterlimit="10" fill="#060001"/><path d=" M 145.64 91.16 C 145.776 90.76 146.03 90.4111 146.37 90.16 L 189.13 59.1 C 189.829 58.5961 190.771 58.5961 191.47 59.1 L 212.62 74.46 C 213.32 74.9675 213.614 75.867 213.35 76.69 L 197 127 C 196.656 128.05 195.527 128.622 194.477 128.278 C 194.281 128.214 194.097 128.12 193.93 128 L 146.37 93.39 C 145.856 93.0144 145.552 92.4166 145.55 91.78 C 145.549 91.57 145.579 91.361 145.64 91.16 Z M 190.3 63.16 L 150.94 91.77 L 194.07 123.1 L 209.07 76.83 Z" stroke="#040000" stroke-miterlimit="10" fill="#060001"/><path d=" M 102.82 60 C 102.955 59.5997 103.21 59.2506 103.55 59 L 146.31 28 C 147.009 27.4961 147.951 27.4961 148.65 28 L 191.47 59.1 C 191.992 59.4689 192.299 60.071 192.29 60.71 C 192.312 61.3495 192.006 61.9562 191.48 62.32 L 148.72 93.39 C 148.019 93.8987 147.071 93.8987 146.37 93.39 L 103.55 62.26 C 103.028 61.8911 102.721 61.289 102.73 60.65 C 102.721 60.4297 102.752 60.2096 102.82 60 Z M 147.48 32 L 108.12 60.65 L 147.54 89.31 L 186.91 60.72 Z" stroke="#040000" stroke-miterlimit="10" fill="#060001"/><path d=" M 158.69 232 L 175.05 181.64 C 175.322 180.821 176.088 180.269 176.95 180.27 L 229.79 180.27 C 230.429 180.261 231.031 180.568 231.4 181.09 C 231.777 181.606 231.885 182.271 231.69 182.88 L 215.32 233.25 C 215.052 234.073 214.285 234.629 213.42 234.63 L 160.59 234.63 C 159.951 234.639 159.349 234.332 158.98 233.81 C 158.596 233.289 158.488 232.615 158.69 232 Z M 178.4 184.26 L 163.34 230.63 L 212 230.63 L 227 184.24 Z" stroke="#040000" stroke-miterlimit="10" fill="#060001"/><path d=" M 193.22 125.71 L 209.55 75.45 C 209.75 74.8413 210.23 74.3654 210.84 74.17 C 211.446 73.9785 212.106 74.0861 212.62 74.46 L 255.37 105.52 C 256.066 106.03 256.356 106.929 256.09 107.75 L 239.76 158 C 239.416 159.05 238.287 159.622 237.237 159.278 C 237.041 159.214 236.857 159.12 236.69 159 L 194 127.94 C 193.282 127.446 192.966 126.544 193.22 125.71 Z M 212.5 79.3 L 197.5 125.57 L 236.85 154.16 L 251.85 107.9 Z" stroke="#040000" stroke-miterlimit="10" fill="#060001"/><path d=" M 175.05 181.63 L 193.22 125.71 C 193.42 125.101 193.9 124.625 194.51 124.43 C 195.116 124.238 195.776 124.346 196.29 124.72 L 239 155.78 C 239.696 156.29 239.986 157.189 239.72 158.01 L 231.65 182.86 C 231.378 183.679 230.612 184.231 229.75 184.23 L 177 184.23 C 176.361 184.239 175.759 183.932 175.39 183.41 C 174.999 182.905 174.873 182.244 175.05 181.63 Z M 196.17 129.56 L 179.7 180.26 L 228.34 180.26 L 235.52 158.16 Z" stroke="#040000" stroke-miterlimit="10" fill="#060001"/><path d=" M 69.19 257.25 C 74.77 249.82 80.36 242.36 85.95 234.79 C 86.3304 234.272 86.4383 233.602 86.24 232.99 L 69.24 180.54 C 69.0067 179.821 68.3876 179.294 67.64 179.18 C 66.8988 179.069 66.1577 179.382 65.72 179.99 C 60.5733 187.21 55.4033 194.37 50.21 201.47 L 48.8 203.41 C 48.6743 203.58 48.5764 203.769 48.51 203.97 C 48.3829 204.367 48.3829 204.793 48.51 205.19 L 64.61 255.34 C 64.9194 255.987 65.4045 256.535 66.01 256.92 C 66.8619 257.351 67.8334 257.485 68.77 257.3 C 68.9026 257.244 69.0481 257.227 69.19 257.25 Z M 52.62 204.94 L 53.44 203.81 C 57.8533 197.75 62.27 191.657 66.69 185.53 L 82.13 233.25 C 77.36 239.68 72.61 246.04 67.86 252.39 Z" stroke="#040000" stroke-miterlimit="10" fill="#060001"/><path d=" M 176.32 204.52 L 116.86 204.52 L 116.86 198.45 L 102.07 208 L 116.86 217.57 L 116.86 211.5 L 176.32 211.5 C 178.253 211.5 179.82 209.933 179.82 208 C 179.82 206.067 178.253 204.5 176.32 204.5 Z" fill="#FEFE00"/><path d=" M 212.54 136.69 L 212.54 136.69 L 194.17 193.24 L 188.39 191.36 L 192.92 208.36 L 206.59 197.25 L 200.82 195.38 L 219.19 138.83 C 219.874 137.022 218.964 135.002 217.156 134.318 C 215.348 133.633 213.328 134.544 212.643 136.352 C 212.604 136.456 212.569 136.562 212.54 136.67 Z" fill="#FEFE00"/><path d=" M 131.44 187.24 L 131.44 187.24 L 212.64 128.24 L 216.21 133.15 L 222.56 116.72 L 204.96 117.72 L 208.53 122.63 L 127.33 181.63 L 127.33 181.63 C 125.723 182.705 125.292 184.879 126.367 186.485 C 127.442 188.092 129.616 188.523 131.222 187.448 C 131.297 187.398 131.37 187.345 131.44 187.29 Z" fill="#FEFE00"/></g></g></g></svg>