<svg version="1.1" viewBox="0 0 491.508 491.508" xmlns="http://www.w3.org/2000/svg" xmlns:xlink="http://www.w3.org/1999/xlink" id="Layer_1" overflow="hidden"><rect x="43.73" y="91.982" width="422.398" height="215.003" fill="#31978C" transform="matrix(-0.863,0.5053,-0.5053,-0.863,575.716,242.819)"/><path d=" M 354.827 40.557 L 67.473 208.811 C 73.723 219.485 69.886 233.35 58.906 239.779 L 123.86 350.712 C 134.841 344.283 148.81 347.722 155.059 358.396 L 442.414 190.142 C 436.164 179.468 439.999 165.604 450.982 159.174 L 386.026 48.241 C 375.044 54.672 361.077 51.231 354.827 40.557 Z" fill="#44C4A1"/><g><ellipse cx="254.939" cy="199.481" rx="73.339" ry="57.938" fill="#31978C" transform="matrix(-0.5053,-0.863,0.863,-0.5053,211.612,520.276)"/><ellipse cx="396.545" cy="116.56" rx="13.107" ry="13.107" fill="#31978C"/></g><ellipse cx="113.32" cy="282.426" rx="13.107" ry="13.107" fill="#3EA69B"/><path d=" M 282.084 252.029 L 276.828 243.052 C 264.919 248.486 252.215 249.925 238.73 247.366 L 241.443 231.412 C 251.832 233.365 261.003 232.779 268.982 229.652 L 255.013 205.795 C 244.451 209.009 235.961 210.07 229.546 208.982 C 223.131 207.894 217.847 203.805 213.696 196.715 C 209.545 189.625 208.621 182.378 210.942 174.959 C 213.266 167.544 218.282 161.308 225.998 156.24 L 222.397 150.091 L 230.263 145.485 L 233.934 151.755 C 243.337 147.136 253.662 145.216 264.915 146.005 L 263.543 162 C 255.873 161.317 248.627 162.368 241.782 165.16 L 255.317 188.277 L 255.687 188.06 C 266.412 184.757 275.089 183.694 281.718 184.872 C 288.36 186.049 293.777 190.228 297.975 197.398 C 302.176 204.573 303.056 211.906 300.609 219.386 C 298.168 226.876 292.892 233.264 284.766 238.573 L 289.949 247.424 L 282.084 252.029 Z M 226.933 177.736 C 225.92 180.802 226.224 183.708 227.832 186.455 C 229.44 189.202 231.533 190.893 234.108 191.528 C 236.677 192.174 240.698 191.882 246.156 190.669 L 233.699 169.394 C 230.2 171.886 227.944 174.665 226.933 177.736 Z M 284.393 216.497 C 285.583 213.274 285.342 210.223 283.661 207.351 C 281.982 204.484 279.749 202.735 276.963 202.108 C 274.167 201.487 269.882 201.88 264.104 203.281 L 277.062 225.412 C 280.758 222.704 283.196 219.731 284.393 216.497 Z" fill="#44C4A1"/><rect x="213.926" y="91.977" width="82.022" height="215.003" fill="#F6C358" transform="matrix(-0.863,0.5053,-0.5053,-0.863,575.73,242.805)"/><g><rect x="224.363" y="108.07" width="6.272" height="215.003" fill="#FFFFFF" transform="matrix(-0.863,0.5053,-0.5053,-0.863,532.745,286.649)"/><rect x="279.249" y="75.894" width="6.272" height="215.003" fill="#FFFFFF" transform="matrix(-0.863,0.5053,-0.5053,-0.863,618.736,198.973)"/></g><rect x="45.201" y="165.264" width="422.398" height="215.003" fill="#3EA69B" transform="matrix(-0.982,0.1888,-0.1888,-0.982,559.676,492.232)"/><path d=" M 78.578 385.148 L 49.593 234.348 C 57.924 232.747 63.379 224.696 61.778 216.365 L 416.268 148.23 C 417.869 156.561 425.921 162.016 434.251 160.415 L 463.236 311.215 C 454.905 312.816 449.45 320.867 451.051 329.198 L 96.561 397.333 C 94.96 389.002 86.909 383.546 78.578 385.148 Z" fill="#44C4A1"/><g><ellipse cx="256.413" cy="272.781" rx="73.339" ry="57.938" fill="#3EA69B" transform="matrix(-0.1888,-0.982,0.982,-0.1888,36.9338,576.073)"/><ellipse cx="417.541" cy="241.809" rx="13.107" ry="13.107" fill="#3EA69B"/><ellipse cx="95.266" cy="303.757" rx="13.107" ry="13.107" fill="#3EA69B"/></g><path d=" M 264.488 331.374 L 262.525 321.159 C 249.486 322.313 237.029 319.435 225.168 312.527 L 233.043 298.39 C 242.187 303.694 251.029 306.199 259.594 305.91 L 254.376 278.761 C 243.347 278.271 234.989 276.441 229.303 273.277 C 223.617 270.113 219.999 264.497 218.448 256.428 C 216.897 248.36 218.442 241.22 223.103 234.998 C 227.765 228.782 234.573 224.574 243.537 222.367 L 242.192 215.369 L 251.143 213.649 L 252.514 220.784 C 262.919 219.563 273.294 221.195 283.64 225.689 L 277.015 240.312 C 270.011 237.112 262.829 235.688 255.446 236.038 L 260.502 262.344 L 260.923 262.263 C 272.135 262.724 280.67 264.614 286.528 267.934 C 292.398 271.258 296.112 277.003 297.68 285.163 C 299.249 293.328 297.635 300.535 292.835 306.771 C 288.037 313.019 280.933 317.283 271.502 319.58 L 273.438 329.653 L 264.488 331.374 Z M 237.254 242.948 C 235.277 245.501 234.595 248.342 235.195 251.468 C 235.796 254.594 237.205 256.886 239.421 258.343 C 241.627 259.808 245.517 260.873 251.067 261.549 L 246.413 237.338 C 242.284 238.521 239.23 240.389 237.254 242.948 Z M 278.508 298.644 C 280.704 296.002 281.494 293.045 280.866 289.777 C 280.239 286.514 278.716 284.121 276.298 282.601 C 273.869 281.084 269.698 280.026 263.784 279.421 L 268.625 304.606 C 273.012 303.284 276.302 301.294 278.508 298.644 Z" fill="#44C4A1"/><path d=" M 171.553 455.444 C 171.553 475.361 133.151 491.508 85.779 491.508 C 38.407 491.508 0.005 475.361 0.005 455.444 L 0.005 425.943 L 171.553 425.943 L 171.553 455.444 Z" fill="#F6C358"/><ellipse cx="85.781" cy="425.92" rx="85.775" ry="36.045" fill="#FCD462"/><g><path d=" M 85.779 396.924 C 44.436 396.924 10.92 409.916 10.92 425.943 C 10.92 441.97 44.436 454.962 85.779 454.962 C 127.122 454.962 160.638 441.97 160.638 425.943 C 160.638 409.916 127.122 396.924 85.779 396.924 Z M 85.779 451.737 C 49.03 451.737 19.238 440.188 19.238 425.942 C 19.238 411.696 49.03 400.147 85.779 400.147 C 122.528 400.147 152.32 411.696 152.32 425.942 C 152.32 440.189 122.528 451.737 85.779 451.737 Z" fill="#DC8744"/><path d=" M 83.038 445.989 L 83.038 442.458 C 71.636 442.007 61.401 440.25 52.345 437.188 L 61.452 432.981 C 68.437 435.335 75.626 436.736 83.038 437.188 L 83.038 427.805 C 73.636 426.935 66.752 425.79 62.386 424.371 C 58.02 422.952 55.837 420.848 55.837 418.06 C 55.837 415.271 58.345 412.991 63.381 411.215 C 68.417 409.442 74.966 408.476 83.038 408.314 L 83.038 405.895 L 91.018 405.895 L 91.018 408.361 C 100.166 408.621 108.817 409.829 116.97 411.99 L 108.858 416.44 C 103.365 414.925 97.425 413.99 91.019 413.634 L 91.019 422.726 L 91.395 422.726 C 100.959 423.598 107.985 424.775 112.473 426.256 C 116.971 427.74 119.215 429.893 119.215 432.713 C 119.215 435.535 116.636 437.834 111.478 439.605 C 106.32 441.38 99.507 442.346 91.019 442.508 L 91.019 445.989 L 83.038 445.989 Z M 74.235 414.772 C 72.113 415.496 71.057 416.4 71.057 417.48 C 71.057 418.56 71.89 419.415 73.555 420.042 C 75.21 420.672 78.378 421.276 83.038 421.856 L 83.038 413.488 C 79.291 413.618 76.357 414.046 74.235 414.772 Z M 100.501 435.978 C 102.826 435.238 103.994 434.303 103.994 433.174 C 103.994 432.046 103.08 431.151 101.253 430.49 C 99.415 429.829 96.004 429.209 91.019 428.628 L 91.019 437.332 C 95.008 437.173 98.166 436.72 100.501 435.978 Z" fill="#DC8744"/></g><path d=" M 171.553 419.615 C 171.553 439.532 133.151 455.679 85.779 455.679 C 38.407 455.679 0.005 439.533 0.005 419.615 L 0.005 390.114 L 171.553 390.114 L 171.553 419.615 Z" fill="#F6C358"/><ellipse cx="85.781" cy="390.132" rx="85.775" ry="36.045" fill="#FCD462"/><g><path d=" M 85.779 361.095 C 44.436 361.095 10.92 374.087 10.92 390.114 C 10.92 406.141 44.436 419.133 85.779 419.133 C 127.122 419.133 160.638 406.141 160.638 390.114 C 160.638 374.087 127.122 361.095 85.779 361.095 Z M 85.779 415.908 C 49.03 415.908 19.238 404.359 19.238 390.113 C 19.238 375.867 49.03 364.318 85.779 364.318 C 122.528 364.318 152.32 375.867 152.32 390.113 C 152.32 404.36 122.528 415.908 85.779 415.908 Z" fill="#DC8744"/><path d=" M 83.038 410.16 L 83.038 406.629 C 71.636 406.178 61.401 404.421 52.345 401.359 L 61.452 397.152 C 68.437 399.506 75.626 400.907 83.038 401.359 L 83.038 391.976 C 73.636 391.106 66.752 389.961 62.386 388.542 C 58.02 387.123 55.837 385.019 55.837 382.231 C 55.837 379.442 58.345 377.162 63.381 375.386 C 68.417 373.613 74.966 372.647 83.038 372.485 L 83.038 370.066 L 91.018 370.066 L 91.018 372.532 C 100.166 372.792 108.817 374 116.97 376.161 L 108.858 380.611 C 103.365 379.096 97.425 378.161 91.019 377.805 L 91.019 386.897 L 91.395 386.897 C 100.959 387.769 107.985 388.946 112.473 390.428 C 116.971 391.912 119.215 394.065 119.215 396.885 C 119.215 399.707 116.636 402.006 111.478 403.777 C 106.32 405.552 99.507 406.518 91.019 406.68 L 91.019 410.161 L 83.038 410.161 Z M 74.235 378.943 C 72.113 379.667 71.057 380.571 71.057 381.651 C 71.057 382.731 71.89 383.586 73.555 384.213 C 75.21 384.843 78.378 385.447 83.038 386.027 L 83.038 377.659 C 79.291 377.79 76.357 378.217 74.235 378.943 Z M 100.501 400.149 C 102.826 399.409 103.994 398.474 103.994 397.345 C 103.994 396.217 103.08 395.322 101.253 394.661 C 99.415 394 96.004 393.38 91.019 392.799 L 91.019 401.503 C 95.008 401.344 98.166 400.891 100.501 400.149 Z" fill="#DC8744"/></g><path d=" M 171.553 383.786 C 171.553 403.703 133.151 419.85 85.779 419.85 C 38.407 419.85 0.005 403.704 0.005 383.786 L 0.005 354.285 L 171.553 354.285 L 171.553 383.786 Z" fill="#F6C358"/><ellipse cx="85.781" cy="354.292" rx="85.775" ry="36.045" fill="#FCD462"/><g><path d=" M 85.779 325.266 C 44.436 325.266 10.92 338.258 10.92 354.285 C 10.92 370.312 44.436 383.304 85.779 383.304 C 127.122 383.304 160.638 370.312 160.638 354.285 C 160.638 338.258 127.122 325.266 85.779 325.266 Z M 85.779 380.08 C 49.03 380.08 19.238 368.531 19.238 354.285 C 19.238 340.039 49.03 328.49 85.779 328.49 C 122.528 328.49 152.32 340.039 152.32 354.285 C 152.32 368.531 122.528 380.08 85.779 380.08 Z" fill="#DC8744"/><path d=" M 83.038 374.332 L 83.038 370.801 C 71.636 370.35 61.401 368.593 52.345 365.531 L 61.452 361.324 C 68.437 363.678 75.626 365.079 83.038 365.531 L 83.038 356.148 C 73.636 355.278 66.752 354.133 62.386 352.714 C 58.02 351.295 55.837 349.191 55.837 346.403 C 55.837 343.615 58.345 341.334 63.381 339.558 C 68.417 337.785 74.966 336.819 83.038 336.657 L 83.038 334.238 L 91.018 334.238 L 91.018 336.704 C 100.166 336.964 108.817 338.172 116.97 340.333 L 108.858 344.783 C 103.365 343.268 97.425 342.333 91.019 341.977 L 91.019 351.069 L 91.395 351.069 C 100.959 351.941 107.985 353.118 112.473 354.6 C 116.971 356.084 119.215 358.237 119.215 361.057 C 119.215 363.879 116.636 366.178 111.478 367.949 C 106.32 369.724 99.507 370.69 91.019 370.852 L 91.019 374.333 L 83.038 374.333 Z M 74.235 343.114 C 72.113 343.838 71.057 344.742 71.057 345.822 C 71.057 346.902 71.89 347.756 73.555 348.384 C 75.21 349.014 78.378 349.618 83.038 350.198 L 83.038 341.83 C 79.291 341.961 76.357 342.388 74.235 343.114 Z M 100.501 364.321 C 102.826 363.581 103.994 362.646 103.994 361.517 C 103.994 360.389 103.08 359.494 101.253 358.833 C 99.415 358.172 96.004 357.552 91.019 356.971 L 91.019 365.675 C 95.008 365.515 98.166 365.062 100.501 364.321 Z" fill="#DC8744"/></g><path d=" M 171.553 347.957 C 171.553 367.874 133.151 384.021 85.779 384.021 C 38.407 384.021 0.005 367.875 0.005 347.957 L 0.005 318.456 L 171.553 318.456 L 171.553 347.957 Z" fill="#F6C358"/><ellipse cx="85.781" cy="318.452" rx="85.775" ry="36.045" fill="#FCD462"/><g><path d=" M 85.779 289.437 C 44.436 289.437 10.92 302.429 10.92 318.456 C 10.92 334.483 44.436 347.475 85.779 347.475 C 127.122 347.475 160.638 334.483 160.638 318.456 C 160.638 302.429 127.122 289.437 85.779 289.437 Z M 85.779 344.251 C 49.03 344.251 19.238 332.702 19.238 318.456 C 19.238 304.21 49.03 292.661 85.779 292.661 C 122.528 292.661 152.32 304.21 152.32 318.456 C 152.32 332.702 122.528 344.251 85.779 344.251 Z" fill="#DC8744"/><path d=" M 83.038 338.503 L 83.038 334.972 C 71.636 334.521 61.401 332.764 52.345 329.702 L 61.452 325.494 C 68.437 327.848 75.626 329.249 83.038 329.702 L 83.038 320.319 C 73.636 319.449 66.752 318.304 62.386 316.885 C 58.02 315.466 55.837 313.362 55.837 310.574 C 55.837 307.786 58.345 305.505 63.381 303.729 C 68.417 301.956 74.966 300.99 83.038 300.828 L 83.038 298.409 L 91.018 298.409 L 91.018 300.875 C 100.166 301.135 108.817 302.343 116.97 304.504 L 108.858 308.954 C 103.365 307.439 97.425 306.504 91.019 306.148 L 91.019 315.24 L 91.395 315.24 C 100.959 316.112 107.985 317.289 112.473 318.771 C 116.971 320.255 119.215 322.408 119.215 325.228 C 119.215 328.05 116.636 330.349 111.478 332.12 C 106.32 333.895 99.507 334.861 91.019 335.023 L 91.019 338.504 L 83.038 338.504 Z M 74.235 307.285 C 72.113 308.009 71.057 308.913 71.057 309.993 C 71.057 311.073 71.89 311.927 73.555 312.555 C 75.21 313.185 78.378 313.789 83.038 314.369 L 83.038 306.001 C 79.291 306.132 76.357 306.559 74.235 307.285 Z M 100.501 328.492 C 102.826 327.752 103.994 326.817 103.994 325.688 C 103.994 324.56 103.08 323.665 101.253 323.004 C 99.415 322.343 96.004 321.723 91.019 321.142 L 91.019 329.846 C 95.008 329.686 98.166 329.234 100.501 328.492 Z" fill="#DC8744"/></g><path d=" M 352.436 455.444 C 352.436 475.361 314.034 491.508 266.662 491.508 C 219.29 491.508 180.888 475.362 180.888 455.444 L 180.888 425.943 L 352.436 425.943 L 352.436 455.444 Z" fill="#F6C358"/><ellipse cx="266.655" cy="425.92" rx="85.775" ry="36.045" fill="#FCD462"/><g><path d=" M 266.662 396.924 C 225.319 396.924 191.803 409.916 191.803 425.943 C 191.803 441.97 225.319 454.962 266.662 454.962 C 308.005 454.962 341.521 441.97 341.521 425.943 C 341.521 409.916 308.006 396.924 266.662 396.924 Z M 266.662 451.737 C 229.913 451.737 200.121 440.188 200.121 425.942 C 200.121 411.696 229.913 400.147 266.662 400.147 C 303.411 400.147 333.203 411.696 333.203 425.942 C 333.203 440.189 303.411 451.737 266.662 451.737 Z" fill="#DC8744"/><path d=" M 263.921 445.989 L 263.921 442.458 C 252.519 442.007 242.284 440.25 233.228 437.188 L 242.335 432.981 C 249.32 435.335 256.509 436.736 263.921 437.188 L 263.921 427.805 C 254.519 426.935 247.635 425.79 243.269 424.371 C 238.903 422.952 236.72 420.848 236.72 418.06 C 236.72 415.271 239.228 412.991 244.264 411.215 C 249.3 409.442 255.849 408.476 263.921 408.314 L 263.921 405.895 L 271.901 405.895 L 271.901 408.361 C 281.049 408.621 289.7 409.829 297.853 411.99 L 289.741 416.44 C 284.248 414.925 278.308 413.99 271.902 413.634 L 271.902 422.726 L 272.278 422.726 C 281.842 423.598 288.868 424.775 293.356 426.256 C 297.854 427.74 300.098 429.893 300.098 432.713 C 300.098 435.535 297.519 437.834 292.361 439.605 C 287.203 441.38 280.39 442.346 271.902 442.508 L 271.902 445.989 L 263.921 445.989 Z M 255.118 414.772 C 252.996 415.496 251.94 416.4 251.94 417.48 C 251.94 418.56 252.773 419.415 254.438 420.042 C 256.093 420.672 259.261 421.276 263.921 421.856 L 263.921 413.488 C 260.174 413.618 257.24 414.046 255.118 414.772 Z M 281.385 435.978 C 283.71 435.238 284.878 434.303 284.878 433.174 C 284.878 432.046 283.964 431.151 282.137 430.49 C 280.299 429.829 276.888 429.209 271.903 428.628 L 271.903 437.332 C 275.892 437.173 279.049 436.72 281.385 435.978 Z" fill="#DC8744"/></g><path d=" M 352.436 419.615 C 352.436 439.532 314.034 455.679 266.662 455.679 C 219.29 455.679 180.888 439.533 180.888 419.615 L 180.888 390.114 L 352.436 390.114 L 352.436 419.615 Z" fill="#F6C358"/><ellipse cx="266.655" cy="390.132" rx="85.775" ry="36.045" fill="#FCD462"/><g><path d=" M 266.662 361.095 C 225.319 361.095 191.803 374.087 191.803 390.114 C 191.803 406.141 225.319 419.133 266.662 419.133 C 308.005 419.133 341.521 406.141 341.521 390.114 C 341.521 374.087 308.006 361.095 266.662 361.095 Z M 266.662 415.908 C 229.913 415.908 200.121 404.359 200.121 390.113 C 200.121 375.867 229.913 364.318 266.662 364.318 C 303.411 364.318 333.203 375.867 333.203 390.113 C 333.203 404.36 303.411 415.908 266.662 415.908 Z" fill="#DC8744"/><path d=" M 263.921 410.16 L 263.921 406.629 C 252.519 406.178 242.284 404.421 233.228 401.359 L 242.335 397.152 C 249.32 399.506 256.509 400.907 263.921 401.359 L 263.921 391.976 C 254.519 391.106 247.635 389.961 243.269 388.542 C 238.903 387.123 236.72 385.019 236.72 382.231 C 236.72 379.442 239.228 377.162 244.264 375.386 C 249.3 373.613 255.849 372.647 263.921 372.485 L 263.921 370.066 L 271.901 370.066 L 271.901 372.532 C 281.049 372.792 289.7 374 297.853 376.161 L 289.741 380.611 C 284.248 379.096 278.308 378.161 271.902 377.805 L 271.902 386.897 L 272.278 386.897 C 281.842 387.769 288.868 388.946 293.356 390.428 C 297.854 391.912 300.098 394.065 300.098 396.885 C 300.098 399.707 297.519 402.006 292.361 403.777 C 287.203 405.552 280.39 406.518 271.902 406.68 L 271.902 410.161 L 263.921 410.161 Z M 255.118 378.943 C 252.996 379.667 251.94 380.571 251.94 381.651 C 251.94 382.731 252.773 383.586 254.438 384.213 C 256.093 384.843 259.261 385.447 263.921 386.027 L 263.921 377.659 C 260.174 377.79 257.24 378.217 255.118 378.943 Z M 281.385 400.149 C 283.71 399.409 284.878 398.474 284.878 397.345 C 284.878 396.217 283.964 395.322 282.137 394.661 C 280.299 394 276.888 393.38 271.903 392.799 L 271.903 401.503 C 275.892 401.344 279.049 400.891 281.385 400.149 Z" fill="#DC8744"/></g><g></g><g></g><g></g><g></g><g></g><g></g><g></g><g></g><g></g><g></g><g></g><g></g><g></g><g></g><g></g></svg>