<svg version="1.1" viewBox="0 0 512 512" xmlns="http://www.w3.org/2000/svg" xmlns:xlink="http://www.w3.org/1999/xlink" id="Capa_1" overflow="hidden"><path d=" M 452.33 92.25 C 343.37 92.25 314.444 164.455 247.981 202.792 C 218.577 177.392 185.56 155.25 128 155.25 C 65.16 155.25 31.57 181.64 0 209.86 L 0 385.25 L 512 385.25 L 512 100.99 C 494.97 95.5 475.45 92.25 452.33 92.25 Z" fill="#9CCC65"/><path d=" M 512 167.25 C 432.646 167.25 391.54 204.339 355.273 237.063 C 351.233 240.709 347.256 244.293 343.284 247.79 C 316.718 237.665 297.467 220.313 276.41 201.3 C 272.81 198.05 269.16 194.76 265.42 191.46 C 259.87 195.47 254.09 199.27 247.99 202.79 C 272.495 223.955 294.49 247.393 326.082 262.16 C 314.847 270.895 303.035 278.556 289.454 284.42 L 274.284 269.25 L 222 269.25 L 222 236.25 L 142 236.25 L 142 269.25 L 77.716 269.25 L 0 346.966 L 0 385.25 L 361 385.25 L 361 355.966 L 304.466 299.432 C 376.121 264.273 401.378 187.25 512 187.25 L 512 167.25 Z" fill="#7CB342"/><rect x="0" y="385.25" width="512" height="125" fill="#BCAAA4"/><path d=" M 266 289.25 L 86 289.25 L 11 364.25 L 191 364.25 Z" fill="#F4511E"/><path d=" M 266 289.25 L 191 364.25 L 191 499.25 L 341 499.25 L 341 364.25 Z" fill="#FDD844"/><rect x="162" y="256.25" width="40" height="50" fill="#B39A7C"/><g><path d=" M 90 127.25 L 90 127.25 C 70.67 127.25 55 111.58 55 92.25 L 55 44.25 C 55 24.92 70.67 9.25 90 9.25 L 90 9.25 C 109.33 9.25 125 24.92 125 44.25 L 125 92.25 C 125 111.58 109.33 127.25 90 127.25 Z" fill="#9CCC65"/><path d=" M 160 127.25 L 160 127.25 C 140.67 127.25 125 111.58 125 92.25 L 125 59.25 C 125 39.92 140.67 24.25 160 24.25 L 160 24.25 C 179.33 24.25 195 39.92 195 59.25 L 195 92.25 C 195 111.58 179.33 127.25 160 127.25 Z" fill="#9CCC65"/></g><path d=" M 191 479.25 L 191 364.25 L 11 364.25 L 11 499.25 L 341 499.25 L 341 479.25 Z" fill="#FDAB08"/><g><rect x="46" y="404.25" width="40" height="40" fill="#80D8FF"/><rect x="116" y="404.25" width="40" height="40" fill="#80D8FF"/></g><path d=" M 31 344.25 L 11 364.25 L 191 364.25 L 211 344.25 Z" fill="#D84315"/><rect x="162" y="286.25" width="40" height="20" fill="#A78966"/><g><rect x="46" y="424.25" width="40" height="20" fill="#40C4FF"/><rect x="116" y="424.25" width="40" height="20" fill="#40C4FF"/></g><path d=" M 266 399.25 L 266 399.25 C 252.193 399.25 241 410.443 241 424.25 L 241 499.25 L 291 499.25 L 291 424.25 C 291 410.443 279.807 399.25 266 399.25 Z" fill="#B0BEC5"/><rect x="241" y="479.25" width="50" height="20" fill="#90A4AE"/><g><path d=" M 90 107.25 L 90 107.25 C 70.67 107.25 55 91.58 55 72.25 L 55 92.25 C 55 111.58 70.67 127.25 90 127.25 L 90 127.25 C 109.33 127.25 125 111.58 125 92.25 L 125 72.25 C 125 91.58 109.33 107.25 90 107.25 Z" fill="#7CB342"/><path d=" M 160 107.25 L 160 107.25 C 140.67 107.25 125 91.58 125 72.25 L 125 92.25 C 125 111.58 140.67 127.25 160 127.25 L 160 127.25 C 179.33 127.25 195 111.58 195 92.25 L 195 72.25 C 195 91.58 179.33 107.25 160 107.25 Z" fill="#7CB342"/></g><path d=" M 209.5 281.75 L 209.5 248.75 L 154.5 248.75 L 154.5 281.75 L 82.894 281.75 L 3.5 361.144 L 3.5 506.75 L 348.5 506.75 L 348.5 361.144 L 269.106 281.75 L 209.5 281.75 Z M 169.5 263.75 L 194.5 263.75 L 194.5 298.75 L 169.5 298.75 L 169.5 263.75 Z M 89.106 296.75 L 154.5 296.75 L 154.5 313.75 L 209.5 313.75 L 209.5 296.75 L 247.894 296.75 L 187.894 356.75 L 29.106 356.75 L 89.106 296.75 Z M 18.5 371.75 L 183.5 371.75 L 183.5 491.75 L 18.5 491.75 L 18.5 371.75 Z M 283.5 491.75 L 248.5 491.75 L 248.5 424.25 C 248.5 414.601 256.351 406.75 266 406.75 C 275.649 406.75 283.5 414.601 283.5 424.25 L 283.5 491.75 Z M 333.5 491.75 L 298.5 491.75 L 298.5 424.25 C 298.5 406.33 283.92 391.75 266 391.75 C 248.08 391.75 233.5 406.33 233.5 424.25 L 233.5 491.75 L 198.5 491.75 L 198.5 367.356 L 266 299.856 L 333.5 367.356 L 333.5 491.75 Z"/><rect x="366" y="377.75" width="146" height="15"/><path d=" M 363.64 246.343 C 345.219 262.964 327.819 278.662 305.645 290.425 L 312.674 303.676 C 336.488 291.044 355.399 273.981 373.688 257.48 C 409.442 225.22 443.214 194.75 512 194.75 L 512 179.75 C 437.447 179.75 399.926 213.604 363.64 246.343 Z"/><path d=" M 3.096 197.14 L 12.904 208.49 C 30.791 193.032 51.872 176.862 82.5 168.511 L 82.5 186.25 L 97.5 186.25 L 97.5 165.212 C 106.82 163.636 116.936 162.75 128 162.75 C 136.746 162.75 144.872 163.291 152.5 164.273 L 152.5 186.25 L 167.5 186.25 L 167.5 166.918 C 207.193 175.924 232.042 198.314 257.986 221.719 C 275.762 237.756 294.143 254.338 317.609 266.364 L 324.451 253.015 C 302.733 241.884 285.878 226.679 268.034 210.581 C 240.882 186.087 212.978 160.948 167.5 151.581 L 167.5 134.073 C 187.368 130.519 202.5 113.124 202.5 92.249 L 202.5 59.249 C 202.5 35.814 183.435 16.749 160 16.749 C 148.202 16.749 137.515 21.584 129.807 29.374 C 123.764 13.256 108.203 1.75 90 1.75 C 66.565 1.75 47.5 20.815 47.5 44.25 L 47.5 92.25 C 47.5 113.125 62.632 130.52 82.5 134.074 L 82.5 152.933 C 47.012 161.595 23.18 179.784 3.096 197.14 Z M 160 31.75 C 175.164 31.75 187.5 44.086 187.5 59.25 L 187.5 92.25 C 187.5 107.414 175.164 119.75 160 119.75 C 144.836 119.75 132.5 107.414 132.5 92.25 L 132.5 59.25 C 132.5 44.086 144.836 31.75 160 31.75 Z M 62.5 92.25 L 62.5 44.25 C 62.5 29.086 74.836 16.75 90 16.75 C 105.164 16.75 117.5 29.086 117.5 44.25 L 117.5 59.25 L 117.5 92.25 C 117.5 107.414 105.164 119.75 90 119.75 C 74.836 119.75 62.5 107.414 62.5 92.25 Z M 97.5 134.074 C 108.868 132.04 118.682 125.48 125 116.321 C 131.318 125.479 141.132 132.04 152.5 134.074 L 152.5 149.15 C 144.821 148.241 136.679 147.751 128 147.751 C 117.006 147.751 106.888 148.554 97.5 149.983 L 97.5 134.074 Z"/><path d=" M 309.02 164.726 C 346.061 131.311 381.047 99.75 452.33 99.75 C 471.556 99.75 488.76 102.014 504.923 106.671 L 509.076 92.257 C 491.542 87.205 472.98 84.75 452.329 84.75 C 375.28 84.75 336.487 119.745 298.972 153.588 C 288.128 163.371 276.914 173.486 265.02 182.437 L 274.039 194.422 C 286.467 185.071 297.933 174.729 309.02 164.726 Z"/><path d=" M 38.5 451.75 L 93.5 451.75 L 93.5 396.75 L 38.5 396.75 L 38.5 451.75 Z M 53.5 411.75 L 78.5 411.75 L 78.5 436.75 L 53.5 436.75 L 53.5 411.75 Z"/><path d=" M 108.5 396.75 L 108.5 451.75 L 163.5 451.75 L 163.5 396.75 L 108.5 396.75 Z M 148.5 436.75 L 123.5 436.75 L 123.5 411.75 L 148.5 411.75 L 148.5 436.75 Z"/><g><path d=" M 96 479.75 L 66 479.75 L 66 464.75 L 96 464.75 L 96 479.75 Z M 51 479.75 L 36 479.75 L 36 464.75 L 51 464.75 L 51 479.75 Z" fill="#FFFFFF"/><path d=" M 305.697 381.979 L 295.091 371.373 L 305.697 360.767 L 316.303 371.373 L 305.697 381.979 Z M 284.483 360.766 L 256.696 332.979 L 267.302 322.373 L 295.089 350.16 L 284.483 360.766 Z" fill="#FFFFFF"/><path d=" M 81.303 346.979 L 70.697 336.373 L 95.32 311.75 L 139 311.75 L 139 326.75 L 101.533 326.75 Z" fill="#FFFFFF"/><path d=" M 361.604 307.35 L 352.398 295.507 C 356.049 292.669 359.775 289.636 363.788 286.237 L 373.482 297.683 C 369.308 301.22 365.422 304.381 361.604 307.35 Z M 384.933 287.707 L 374.955 276.507 C 377.905 273.879 380.821 271.248 383.721 268.632 C 386.861 265.799 389.946 263.015 393.019 260.285 L 402.982 271.499 C 399.937 274.204 396.88 276.962 393.786 279.754 C 390.845 282.406 387.906 285.057 384.933 287.707 Z" fill="#FFFFFF"/><path d=" M 447.412 239.104 L 440.589 225.746 C 445.313 223.333 450.184 221.178 455.066 219.339 L 460.352 233.376 C 455.992 235.019 451.639 236.945 447.412 239.104 Z M 473.851 229.152 L 470.178 214.609 C 477.818 212.679 485.938 211.309 494.312 210.537 L 495.689 225.474 C 488.086 226.175 480.739 227.412 473.851 229.152 Z" fill="#FFFFFF"/><path d=" M 379.727 212.456 L 370.273 200.81 C 374.469 197.403 378.445 194.329 382.428 191.409 L 391.295 203.508 C 387.513 206.279 383.729 209.207 379.727 212.456 Z M 403.267 195.271 L 395.163 182.649 C 403.023 177.602 410.75 173.295 418.786 169.484 L 425.215 183.037 C 417.762 186.571 410.583 190.573 403.267 195.271 Z" fill="#FFFFFF"/><path d=" M 24.992 237.818 L 14.995 226.634 C 25.058 217.639 36.009 208.245 47.901 200.484 L 56.099 213.046 C 45.043 220.261 34.615 229.216 24.992 237.818 Z" fill="#FFFFFF"/><path d=" M 249.038 253.976 C 245.231 250.617 241.499 247.25 237.891 243.994 L 237.809 243.92 L 247.843 232.771 L 247.937 232.855 C 251.517 236.085 255.217 239.424 258.962 242.728 L 249.038 253.976 Z M 226.692 233.97 C 216.128 224.666 204.536 215.05 191.365 207.753 L 198.635 194.632 C 213.056 202.622 225.407 212.85 236.607 222.713 L 226.692 233.97 Z" fill="#FFFFFF"/><path d=" M 354.695 164.774 L 345.304 153.078 C 349.616 149.616 353.658 146.567 357.663 143.758 L 366.278 156.037 C 362.542 158.659 358.752 161.517 354.695 164.774 Z M 378.346 148.3 L 370.829 135.32 C 375.442 132.649 380.16 130.227 384.852 128.122 L 390.992 141.808 C 386.769 143.702 382.514 145.886 378.346 148.3 Z M 404.215 136.722 L 399.605 122.449 C 415.642 117.269 432.889 114.751 452.331 114.751 L 452.331 129.751 C 434.478 129.75 418.739 132.03 404.215 136.722 Z" fill="#FFFFFF"/><path d=" M 102.5 92.25 L 87.5 92.25 L 87.5 77.25 L 102.5 77.25 L 102.5 92.25 Z M 102.5 62.25 L 87.5 62.25 L 87.5 44.25 L 102.5 44.25 L 102.5 62.25 Z" fill="#FFFFFF"/><rect x="157.5" y="59.25" width="15" height="33" fill="#FFFFFF"/><rect x="375" y="412.75" width="21" height="15" fill="#FFFFFF"/><rect x="394" y="442.75" width="54" height="15" fill="#FFFFFF"/><rect x="439" y="408.75" width="31" height="15" fill="#FFFFFF"/><rect x="467" y="468.75" width="24" height="15" fill="#FFFFFF"/><rect x="409" y="481.75" width="39" height="15" fill="#FFFFFF"/><rect x="364" y="474.75" width="24" height="15" fill="#FFFFFF"/><rect x="483" y="434.75" width="19" height="15" fill="#FFFFFF"/></g><g></g><g></g><g></g><g></g><g></g><g></g><g></g><g></g><g></g><g></g><g></g><g></g><g></g><g></g><g></g></svg>