<svg width="128" height="128" viewBox="-0.9 -0.9 1.8 1.8" xmlns="http://www.w3.org/2000/svg" xmlns:xlink="http://www.w3.org/1999/xlink" overflow="hidden"><g stroke-width="0.1" stroke-linejoin="round" opacity="1"><path d="M0.206844-0.103422 0.654001-0.50224 0.59354 0.29677 0.184643 0.78142Z" stroke="#000000" fill="#000000"/><path d="M-0.161033-0.681501 0.654001-0.50224 0.206844-0.103422-0.699152-0.349576Z" stroke="#000000" fill="#000000"/><path d="M-0.699152-0.349576 0.206844-0.103422 0.184643 0.78142-0.630493 0.484187Z" stroke="#000000" fill="#000000"/></g><g stroke-width="0" stroke-linejoin="round" stroke-opacity="0.5" opacity="1"><path d="M0.229378-0.100367 0.343547-0.202194 0.335126 0.00907192 0.223919 0.117175Z" stroke="#000000" fill="#404040"/><path d="M0.362643-0.21995 0.467369-0.313354 0.456477-0.108085 0.354222-0.00868356Z" stroke="#000000" fill="#404040"/><path d="M0.484934-0.329688 0.581341-0.415673 0.568383-0.216128 0.474041-0.124419Z" stroke="#000000" fill="#404040"/><path d="M0.597552-0.430749 0.686593-0.510165 0.671907-0.316081 0.584594-0.231204Z" stroke="#000000" fill="#404040"/><path d="M0.222735 0.153998 0.333942 0.045894 0.325979 0.245668 0.217587 0.359204Z" stroke="#000000" fill="#404040"/><path d="M0.352568 0.027123 0.454823-0.0722784 0.4445 0.122263 0.344605 0.226897Z" stroke="#000000" fill="#404040"/><path d="M0.471995-0.0895851 0.566336-0.181294 0.55403 0.00821511 0.461672 0.104956Z" stroke="#000000" fill="#404040"/><path d="M0.582218-0.197302 0.669531-0.282179 0.655556-0.0975008 0.569911-0.00779234Z" stroke="#000000" fill="#404040"/><path d="M0.216467 0.394004 0.324859 0.280469 0.317317 0.469664 0.211602 0.587893Z" stroke="#000000" fill="#404040"/><path d="M0.343038 0.260816 0.442933 0.156181 0.433135 0.340814 0.335497 0.450011Z" stroke="#000000" fill="#404040"/><path d="M0.459728 0.138023 0.552087 0.0412816 0.540385 0.221494 0.449931 0.322656Z" stroke="#000000" fill="#404040"/><path d="M0.567651 0.0244532 0.653296-0.0652553 0.639982 0.110684 0.555949 0.204666Z" stroke="#000000" fill="#404040"/><path d="M0.210542 0.620834 0.316257 0.502604 0.309105 0.682039 0.205938 0.804319Z" stroke="#000000" fill="#404040"/><path d="M0.33401 0.482187 0.431648 0.37299 0.422338 0.548453 0.326857 0.661622Z" stroke="#000000" fill="#404040"/><path d="M0.448083 0.354087 0.538537 0.252925 0.527395 0.424508 0.438773 0.529549Z" stroke="#000000" fill="#404040"/><path d="M0.553796 0.235373 0.637829 0.141392 0.625132 0.309199 0.542654 0.406957Z" stroke="#000000" fill="#404040"/><path d="M-0.165264-0.715497 0.00755154-0.677488-0.0967242-0.607794-0.273637-0.648651Z" stroke="#000000" fill="#404040"/><path d="M0.0390944-0.670371 0.219211-0.630756 0.119489-0.55803-0.0651814-0.600677Z" stroke="#000000" fill="#404040"/><path d="M0.252128-0.623328 0.440018-0.582003 0.345355-0.506043 0.152406-0.550603Z" stroke="#000000" fill="#404040"/><path d="M0.474402-0.574245 0.670579-0.531097 0.581538-0.451681 0.37974-0.498284Z" stroke="#000000" fill="#404040"/><path d="M-0.29311-0.636128-0.116198-0.595272-0.228522-0.520199-0.409665-0.564234Z" stroke="#000000" fill="#404040"/><path d="M-0.0838759-0.587605 0.100794-0.544957-0.00680075-0.466489-0.196201-0.512532Z" stroke="#000000" fill="#404040"/><path d="M0.13458-0.536942 0.327529-0.492382 0.225219-0.410285 0.0269849-0.458474Z" stroke="#000000" fill="#404040"/><path d="M0.362881-0.483995 0.564679-0.437392 0.468271-0.351407 0.26057-0.401898Z" stroke="#000000" fill="#404040"/><path d="M-0.430656-0.550735-0.249513-0.5067-0.370856-0.425599-0.556358-0.473199Z" stroke="#000000" fill="#404040"/><path d="M-0.216385-0.498415-0.0269857-0.452373-0.143424-0.367456-0.337728-0.417315Z" stroke="#000000" fill="#404040"/><path d="M0.00770386-0.443697 0.205938-0.395507 0.0950142-0.306498-0.108734-0.35878Z" stroke="#000000" fill="#404040"/><path d="M0.242303-0.386412 0.450004-0.335921 0.345278-0.242517 0.131379-0.297403Z" stroke="#000000" fill="#404040"/><path d="M-0.579051-0.458603-0.39355-0.411003-0.525042-0.323119-0.715019-0.374735Z" stroke="#000000" fill="#404040"/><path d="M-0.35959-0.402024-0.165285-0.352165-0.291704-0.25997-0.491082-0.31414Z" stroke="#000000" fill="#404040"/><path d="M-0.129656-0.342744 0.0740927-0.290462-0.0465799-0.19363-0.256075-0.250548Z" stroke="#000000" fill="#EE0000"/><path d="M0.111518-0.280565 0.325417-0.225678 0.211247-0.123851-0.00915482-0.183733Z" stroke="#000000" fill="#404040"/><path d="M-0.725957-0.349084-0.535981-0.297468-0.523985-0.0906188-0.709202-0.145614Z" stroke="#000000" fill="#404040"/><path d="M-0.502089-0.287828-0.302711-0.233658-0.295965-0.0233374-0.490093-0.0809785Z" stroke="#000000" fill="#404040"/><path d="M-0.267146-0.223541-0.0576507-0.166623-0.0567011 0.0472618-0.2604-0.013221Z" stroke="#000000" fill="#FFFFFF"/><path d="M-0.020284-0.155994 0.200118-0.0961122 0.19466 0.12143-0.0193344 0.0578905Z" stroke="#000000" fill="#404040"/><path d="M-0.706721-0.110373-0.521504-0.0553782-0.510142 0.140546-0.690831 0.0825896Z" stroke="#000000" fill="#404040"/><path d="M-0.488472-0.0451726-0.294344 0.0124686-0.287962 0.21142-0.47711 0.150751Z" stroke="#000000" fill="#EE0000"/><path d="M-0.259725 0.0231643-0.0560267 0.0836471-0.0551297 0.285693-0.253344 0.222116Z" stroke="#000000" fill="#EE0000"/><path d="M-0.0197049 0.0948691 0.194289 0.158409 0.189141 0.363615-0.0188079 0.296915Z" stroke="#000000" fill="#404040"/><path d="M-0.688478 0.116014-0.507789 0.17397-0.497011 0.359811-0.673388 0.299263Z" stroke="#000000" fill="#404040"/><path d="M-0.475574 0.184669-0.286426 0.245338-0.280381 0.433819-0.464796 0.370511Z" stroke="#000000" fill="#404040"/><path d="M-0.252706 0.256538-0.0544918 0.320115-0.0536431 0.51128-0.24666 0.445019Z" stroke="#000000" fill="#404040"/><path d="M-0.019158 0.331851 0.188791 0.39855 0.183926 0.59244-0.0183093 0.523015Z" stroke="#000000" fill="#404040"/><path d="M-0.671153 0.331008-0.494777 0.391556-0.48454 0.568074-0.656804 0.50526Z" stroke="#000000" fill="#404040"/><path d="M-0.463339 0.402687-0.278924 0.465995-0.273188 0.64481-0.453103 0.579205Z" stroke="#000000" fill="#404040"/><path d="M-0.246056 0.477632-0.0530387 0.543893-0.0522345 0.725031-0.240321 0.656447Z" stroke="#000000" fill="#404040"/><path d="M-0.0186406 0.556072 0.183595 0.625498 0.178991 0.808982-0.0178364 0.737211Z" stroke="#000000" fill="#404040"/></g></svg>