<svg viewBox="0 0 535.84 535.84" xmlns="http://www.w3.org/2000/svg" xmlns:xlink="http://www.w3.org/1999/xlink" id="_图层_2" overflow="hidden"><defs></defs><g id="_图层_1-2"><circle cx="116.98" cy="116.98" r="75.47" stroke="#000000" stroke-width="7.55" stroke-linejoin="round" fill="none"/><circle cx="116.98" cy="418.86" r="75.47" stroke="#000000" stroke-width="7.55" stroke-linejoin="round" fill="none"/><circle cx="418.86" cy="116.98" r="75.47" stroke="#000000" stroke-width="7.55" stroke-linejoin="round" fill="none"/><circle cx="418.86" cy="418.86" r="75.47" stroke="#000000" stroke-width="7.55" stroke-linejoin="round" fill="none"/><circle cx="267.92" cy="267.92" r="264.14" stroke-width="0" fill="#55CCFF"/><circle cx="267.92" cy="267.92" r="264.14" stroke="#000000" stroke-width="7.55" stroke-linejoin="round" fill="none"/><circle cx="116.98" cy="116.98" r="71.7" stroke-width="0" fill="#55CCFF"/><circle cx="116.98" cy="418.86" r="71.7" stroke-width="0" fill="#55CCFF"/><circle cx="418.86" cy="116.98" r="71.7" stroke-width="0" fill="#55CCFF"/><circle cx="418.86" cy="418.86" r="71.7" stroke-width="0" fill="#55CCFF"/><circle cx="116.98" cy="116.98" r="52.83" stroke-width="0" fill="#3375B2"/><circle cx="116.98" cy="52.83" r="3.77" stroke-width="0" fill="#3375B2" transform="matrix(0.256627 -0.966511 0.966511 0.256627 35.89 152.33)"/><path d="M152.29 63.34C151.28 65.09 148.99 65.77 147.17 64.69 145.35 63.68 144.74 61.32 145.82 59.57 146.83 57.75 149.12 57.14 150.94 58.15 152.76 59.23 153.37 61.52 152.29 63.34Z" stroke-width="0" fill="#3375B2"/><path d="M174.39 88.14C172.64 89.22 170.28 88.61 169.27 86.79 168.19 84.97 168.87 82.68 170.62 81.67 172.44 80.59 174.73 81.2 175.81 83.02 176.82 84.84 176.21 87.13 174.39 88.14Z" stroke-width="0" fill="#3375B2"/><circle cx="181.13" cy="116.98" r="3.77" stroke-width="0" fill="#3375B2" transform="matrix(0.0709752 -0.997478 0.997478 0.0709752 51.6 289.36)"/><path d="M170.62 152.29C168.87 151.28 168.19 148.99 169.27 147.17 170.28 145.35 172.64 144.74 174.39 145.82 176.21 146.83 176.82 149.12 175.81 150.94 174.73 152.76 172.44 153.37 170.62 152.29Z" stroke-width="0" fill="#3375B2"/><path d="M145.82 174.39C144.74 172.64 145.35 170.28 147.17 169.27 148.99 168.19 151.28 168.87 152.29 170.62 153.37 172.44 152.76 174.73 150.94 175.81 149.12 176.82 146.83 176.21 145.82 174.39Z" stroke-width="0" fill="#3375B2"/><circle cx="116.98" cy="181.13" r="3.77" stroke-width="0" fill="#3375B2" transform="matrix(0.382683 -0.92388 0.92388 0.382683 -95.13 219.89)"/><path d="M81.67 170.62C82.68 168.87 84.97 168.19 86.79 169.27 88.61 170.28 89.22 172.64 88.14 174.39 87.13 176.21 84.84 176.82 83.02 175.81 81.2 174.73 80.59 172.44 81.67 170.62Z" stroke-width="0" fill="#3375B2"/><path d="M59.57 145.82C61.32 144.74 63.68 145.35 64.69 147.17 65.77 148.99 65.09 151.28 63.34 152.29 61.52 153.37 59.23 152.76 58.15 150.94 57.14 149.12 57.75 146.83 59.57 145.82Z" stroke-width="0" fill="#3375B2"/><circle cx="52.83" cy="116.98" r="3.77" stroke-width="0" fill="#3375B2"/><path d="M63.34 81.67C65.09 82.68 65.77 84.97 64.69 86.79 63.68 88.61 61.32 89.22 59.57 88.14 57.75 87.13 57.14 84.84 58.15 83.02 59.23 81.2 61.52 80.59 63.34 81.67Z" stroke-width="0" fill="#3375B2"/><path d="M88.14 59.57C89.22 61.32 88.61 63.68 86.79 64.69 84.97 65.77 82.68 65.09 81.67 63.34 80.59 61.52 81.2 59.23 83.02 58.15 84.84 57.14 87.13 57.75 88.14 59.57Z" stroke-width="0" fill="#3375B2"/><circle cx="116.98" cy="267.92" r="52.83" stroke-width="0" fill="#3375B2"/><circle cx="116.98" cy="203.77" r="3.77" stroke-width="0" fill="#3375B2"/><path d="M152.29 214.28C151.28 216.03 148.99 216.71 147.17 215.63 145.35 214.62 144.74 212.26 145.82 210.51 146.83 208.69 149.12 208.08 150.94 209.09 152.76 210.17 153.37 212.46 152.29 214.28Z" stroke-width="0" fill="#3375B2"/><path d="M174.39 239.08C172.64 240.16 170.28 239.55 169.27 237.73 168.19 235.91 168.87 233.62 170.62 232.61 172.44 231.53 174.73 232.14 175.81 233.96 176.82 235.78 176.21 238.07 174.39 239.08Z" stroke-width="0" fill="#3375B2"/><circle cx="181.13" cy="267.92" r="3.77" stroke-width="0" fill="#3375B2"/><path d="M170.62 303.23C168.87 302.22 168.19 299.93 169.27 298.11 170.28 296.29 172.64 295.68 174.39 296.76 176.21 297.77 176.82 300.06 175.81 301.88 174.73 303.7 172.44 304.31 170.62 303.23Z" stroke-width="0" fill="#3375B2"/><path d="M145.82 325.33C144.74 323.58 145.35 321.22 147.17 320.21 148.99 319.13 151.28 319.81 152.29 321.56 153.37 323.38 152.76 325.67 150.94 326.75 149.12 327.76 146.83 327.15 145.82 325.33Z" stroke-width="0" fill="#3375B2"/><circle cx="116.98" cy="332.07" r="3.77" stroke-width="0" fill="#3375B2" transform="matrix(0.382683 -0.92388 0.92388 0.382683 -234.58 313.06)"/><path d="M81.67 321.56C82.68 319.81 84.97 319.13 86.79 320.21 88.61 321.22 89.22 323.58 88.14 325.33 87.13 327.15 84.84 327.76 83.02 326.75 81.2 325.67 80.59 323.38 81.67 321.56Z" stroke-width="0" fill="#3375B2"/><path d="M59.57 296.76C61.32 295.68 63.68 296.29 64.69 298.11 65.77 299.93 65.09 302.22 63.34 303.23 61.52 304.31 59.23 303.7 58.15 301.88 57.14 300.06 57.75 297.77 59.57 296.76Z" stroke-width="0" fill="#3375B2"/><circle cx="52.83" cy="267.92" r="3.77" stroke-width="0" fill="#3375B2" transform="matrix(0.0709752 -0.997478 0.997478 0.0709752 -218.16 301.62)"/><path d="M63.34 232.61C65.09 233.62 65.77 235.91 64.69 237.73 63.68 239.55 61.32 240.16 59.57 239.08 57.75 238.07 57.14 235.78 58.15 233.96 59.23 232.14 61.52 231.53 63.34 232.61Z" stroke-width="0" fill="#3375B2"/><path d="M88.14 210.51C89.22 212.26 88.61 214.62 86.79 215.63 84.97 216.71 82.68 216.03 81.67 214.28 80.59 212.46 81.2 210.17 83.02 209.09 84.84 208.08 87.13 208.69 88.14 210.51Z" stroke-width="0" fill="#3375B2"/><circle cx="116.98" cy="418.86" r="52.83" stroke-width="0" fill="#3375B2"/><circle cx="116.98" cy="354.71" r="3.77" stroke-width="0" fill="#3375B2"/><path d="M152.29 365.22C151.28 366.97 148.99 367.65 147.17 366.57 145.35 365.56 144.74 363.2 145.82 361.45 146.83 359.63 149.12 359.02 150.94 360.03 152.76 361.11 153.37 363.4 152.29 365.22Z" stroke-width="0" fill="#3375B2"/><path d="M174.39 390.02C172.64 391.1 170.28 390.49 169.27 388.67 168.19 386.85 168.87 384.56 170.62 383.55 172.44 382.47 174.73 383.08 175.81 384.9 176.82 386.72 176.21 389.01 174.39 390.02Z" stroke-width="0" fill="#3375B2"/><circle cx="181.13" cy="418.86" r="3.77" stroke-width="0" fill="#3375B2" transform="matrix(0.160226 -0.98708 0.98708 0.160226 -261.33 530.55)"/><path d="M170.62 454.17C168.87 453.16 168.19 450.87 169.27 449.05 170.28 447.23 172.64 446.62 174.39 447.7 176.21 448.71 176.82 451 175.81 452.82 174.73 454.64 172.44 455.25 170.62 454.17Z" stroke-width="0" fill="#3375B2"/><path d="M145.82 476.27C144.74 474.52 145.35 472.16 147.17 471.15 148.99 470.07 151.28 470.75 152.29 472.5 153.37 474.32 152.76 476.61 150.94 477.69 149.12 478.7 146.83 478.09 145.82 476.27Z" stroke-width="0" fill="#3375B2"/><circle cx="116.98" cy="483.01" r="3.77" stroke-width="0" fill="#3375B2"/><path d="M81.67 472.49C82.68 470.74 84.97 470.06 86.79 471.14 88.61 472.15 89.22 474.51 88.14 476.26 87.13 478.08 84.84 478.69 83.02 477.68 81.2 476.6 80.59 474.31 81.67 472.49Z" stroke-width="0" fill="#3375B2"/><path d="M59.57 447.7C61.32 446.62 63.68 447.23 64.69 449.05 65.77 450.87 65.09 453.16 63.34 454.17 61.52 455.25 59.23 454.64 58.15 452.82 57.14 451 57.75 448.71 59.57 447.7Z" stroke-width="0" fill="#3375B2"/><circle cx="52.83" cy="418.86" r="3.77" stroke-width="0" fill="#3375B2"/><path d="M63.34 383.55C65.09 384.56 65.77 386.85 64.69 388.67 63.68 390.49 61.32 391.1 59.57 390.02 57.75 389.01 57.14 386.72 58.15 384.9 59.23 383.08 61.52 382.47 63.34 383.55Z" stroke-width="0" fill="#3375B2"/><path d="M88.14 361.45C89.22 363.2 88.61 365.56 86.79 366.57 84.97 367.65 82.68 366.97 81.67 365.22 80.59 363.4 81.2 361.11 83.02 360.03 84.84 359.02 87.13 359.63 88.14 361.45Z" stroke-width="0" fill="#3375B2"/><circle cx="267.92" cy="116.98" r="52.83" stroke-width="0" fill="#3375B2"/><circle cx="267.92" cy="52.83" r="3.77" stroke-width="0" fill="#3375B2" transform="matrix(0.382683 -0.92388 0.92388 0.382683 116.58 280.14)"/><path d="M303.23 63.34C302.22 65.09 299.93 65.77 298.11 64.69 296.29 63.68 295.68 61.32 296.76 59.57 297.77 57.75 300.06 57.14 301.88 58.15 303.7 59.23 304.31 61.52 303.23 63.34Z" stroke-width="0" fill="#3375B2"/><path d="M325.33 88.14C323.58 89.22 321.22 88.61 320.21 86.79 319.13 84.97 319.81 82.68 321.56 81.67 323.38 80.59 325.67 81.2 326.75 83.02 327.76 84.84 327.15 87.13 325.33 88.14Z" stroke-width="0" fill="#3375B2"/><circle cx="332.07" cy="116.98" r="3.77" stroke-width="0" fill="#3375B2" transform="matrix(0.160226 -0.98708 0.98708 0.160226 163.41 426.02)"/><path d="M321.56 152.29C319.81 151.28 319.13 148.99 320.21 147.17 321.22 145.35 323.58 144.74 325.33 145.82 327.15 146.83 327.76 149.12 326.75 150.94 325.67 152.76 323.38 153.37 321.56 152.29Z" stroke-width="0" fill="#3375B2"/><path d="M296.76 174.39C295.68 172.64 296.29 170.28 298.11 169.27 299.93 168.19 302.22 168.87 303.23 170.62 304.31 172.44 303.7 174.73 301.88 175.81 300.06 176.82 297.77 176.21 296.76 174.39Z" stroke-width="0" fill="#3375B2"/><circle cx="267.92" cy="181.13" r="3.77" stroke-width="0" fill="#3375B2" transform="matrix(0.22971 -0.973259 0.973259 0.22971 30.08 400.26)"/><path d="M232.61 170.62C233.62 168.87 235.91 168.19 237.73 169.27 239.55 170.28 240.16 172.64 239.08 174.39 238.07 176.21 235.78 176.82 233.96 175.81 232.14 174.73 231.53 172.44 232.61 170.62Z" stroke-width="0" fill="#3375B2"/><path d="M210.51 145.82C212.26 144.74 214.62 145.35 215.63 147.17 216.71 148.99 216.03 151.28 214.28 152.29 212.46 153.37 210.17 152.76 209.09 150.94 208.08 149.12 208.69 146.83 210.51 145.82Z" stroke-width="0" fill="#3375B2"/><circle cx="203.77" cy="116.98" r="3.77" stroke-width="0" fill="#3375B2" transform="matrix(0.382683 -0.92388 0.92388 0.382683 17.72 260.47)"/><path d="M214.28 81.67C216.03 82.68 216.71 84.97 215.63 86.79 214.62 88.61 212.26 89.22 210.51 88.14 208.69 87.13 208.08 84.84 209.09 83.02 210.17 81.2 212.46 80.59 214.28 81.67Z" stroke-width="0" fill="#3375B2"/><path d="M239.08 59.57C240.16 61.32 239.55 63.68 237.73 64.69 235.91 65.77 233.62 65.09 232.61 63.34 231.53 61.52 232.14 59.23 233.96 58.15 235.78 57.14 238.07 57.75 239.08 59.57Z" stroke-width="0" fill="#3375B2"/><circle cx="267.92" cy="267.92" r="52.83" stroke-width="0" fill="#3375B2"/><circle cx="267.92" cy="203.77" r="3.77" stroke-width="0" fill="#3375B2" transform="matrix(0.92388 -0.382683 0.382683 0.92388 -57.58 118.04)"/><path d="M303.23 214.28C302.22 216.03 299.93 216.71 298.11 215.63 296.29 214.62 295.68 212.26 296.76 210.51 297.77 208.69 300.06 208.08 301.88 209.09 303.7 210.17 304.31 212.46 303.23 214.28Z" stroke-width="0" fill="#3375B2"/><path d="M325.33 239.08C323.58 240.16 321.22 239.55 320.21 237.73 319.13 235.91 319.81 233.62 321.56 232.61 323.38 231.53 325.67 232.14 326.75 233.96 327.76 235.78 327.15 238.07 325.33 239.08Z" stroke-width="0" fill="#3375B2"/><circle cx="332.07" cy="267.92" r="3.77" stroke-width="0" fill="#3375B2"/><path d="M321.56 303.23C319.81 302.22 319.13 299.93 320.21 298.11 321.22 296.29 323.58 295.68 325.33 296.76 327.15 297.77 327.76 300.06 326.75 301.88 325.67 303.7 323.38 304.31 321.56 303.23Z" stroke-width="0" fill="#3375B2"/><path d="M296.76 325.33C295.68 323.58 296.29 321.22 298.11 320.21 299.93 319.13 302.22 319.81 303.23 321.56 304.31 323.38 303.7 325.67 301.88 326.75 300.06 327.76 297.77 327.15 296.76 325.33Z" stroke-width="0" fill="#3375B2"/><circle cx="267.92" cy="332.07" r="3.77" stroke-width="0" fill="#3375B2" transform="matrix(0.22971 -0.973259 0.973259 0.22971 -116.82 516.52)"/><path d="M232.61 321.56C233.62 319.81 235.91 319.13 237.73 320.21 239.55 321.22 240.16 323.58 239.08 325.33 238.07 327.15 235.78 327.76 233.96 326.75 232.14 325.67 231.53 323.38 232.61 321.56Z" stroke-width="0" fill="#3375B2"/><path d="M210.51 296.76C212.26 295.68 214.62 296.29 215.63 298.11 216.71 299.93 216.03 302.22 214.28 303.23 212.46 304.31 210.17 303.7 209.09 301.88 208.08 300.06 208.69 297.77 210.51 296.76Z" stroke-width="0" fill="#3375B2"/><circle cx="203.77" cy="267.92" r="3.77" stroke-width="0" fill="#3375B2" transform="matrix(0.160226 -0.98708 0.98708 0.160226 -93.33 426.14)"/><path d="M214.28 232.61C216.03 233.62 216.71 235.91 215.63 237.73 214.62 239.55 212.26 240.16 210.51 239.08 208.69 238.07 208.08 235.78 209.09 233.96 210.17 232.14 212.46 231.53 214.28 232.61Z" stroke-width="0" fill="#3375B2"/><path d="M239.08 210.51C240.16 212.26 239.55 214.62 237.73 215.63 235.91 216.71 233.62 216.03 232.61 214.28 231.53 212.46 232.14 210.17 233.96 209.09 235.78 208.08 238.07 208.69 239.08 210.51Z" stroke-width="0" fill="#3375B2"/><circle cx="267.92" cy="418.86" r="52.83" stroke-width="0" fill="#3375B2"/><circle cx="267.92" cy="354.71" r="3.77" stroke-width="0" fill="#3375B2"/><path d="M303.23 365.22C302.22 366.97 299.93 367.65 298.11 366.57 296.29 365.56 295.68 363.2 296.76 361.45 297.77 359.63 300.06 359.02 301.88 360.03 303.7 361.11 304.31 363.4 303.23 365.22Z" stroke-width="0" fill="#3375B2"/><path d="M325.33 390.02C323.58 391.1 321.22 390.49 320.21 388.67 319.13 386.85 319.81 384.56 321.56 383.55 323.38 382.47 325.67 383.08 326.75 384.9 327.76 386.72 327.15 389.01 325.33 390.02Z" stroke-width="0" fill="#3375B2"/><circle cx="332.07" cy="418.86" r="3.77" stroke-width="0" fill="#3375B2" transform="matrix(0.382683 -0.92388 0.92388 0.382683 -181.98 565.36)"/><path d="M321.56 454.17C319.81 453.16 319.13 450.87 320.21 449.05 321.22 447.23 323.58 446.62 325.33 447.7 327.15 448.71 327.76 451 326.75 452.82 325.67 454.64 323.38 455.25 321.56 454.17Z" stroke-width="0" fill="#3375B2"/><path d="M296.76 476.27C295.68 474.52 296.29 472.16 298.11 471.15 299.93 470.07 302.22 470.75 303.23 472.5 304.31 474.32 303.7 476.61 301.88 477.69 300.06 478.7 297.77 478.09 296.76 476.27Z" stroke-width="0" fill="#3375B2"/><circle cx="267.92" cy="483.01" r="3.77" stroke-width="0" fill="#3375B2"/><path d="M232.61 472.49C233.62 470.74 235.91 470.06 237.73 471.14 239.55 472.15 240.16 474.51 239.08 476.26 238.07 478.08 235.78 478.69 233.96 477.68 232.14 476.6 231.53 474.31 232.61 472.49Z" stroke-width="0" fill="#3375B2"/><path d="M210.51 447.7C212.26 446.62 214.62 447.23 215.63 449.05 216.71 450.87 216.03 453.16 214.28 454.17 212.46 455.25 210.17 454.64 209.09 452.82 208.08 451 208.69 448.71 210.51 447.7Z" stroke-width="0" fill="#3375B2"/><circle cx="203.77" cy="418.86" r="3.77" stroke-width="0" fill="#3375B2" transform="matrix(0.289867 -0.957067 0.957067 0.289867 -256.17 492.5)"/><path d="M214.28 383.55C216.03 384.56 216.71 386.85 215.63 388.67 214.62 390.49 212.26 391.1 210.51 390.02 208.69 389.01 208.08 386.72 209.09 384.9 210.17 383.08 212.46 382.47 214.28 383.55Z" stroke-width="0" fill="#3375B2"/><path d="M239.08 361.45C240.16 363.2 239.55 365.56 237.73 366.57 235.91 367.65 233.62 366.97 232.61 365.22 231.53 363.4 232.14 361.11 233.96 360.03 235.78 359.02 238.07 359.63 239.08 361.45Z" stroke-width="0" fill="#3375B2"/><circle cx="418.86" cy="116.98" r="52.83" stroke-width="0" fill="#3375B2"/><circle cx="418.86" cy="52.83" r="3.77" stroke-width="0" fill="#3375B2" transform="matrix(0.22971 -0.973259 0.973259 0.22971 271.21 448.34)"/><path d="M454.17 63.34C453.16 65.09 450.87 65.77 449.05 64.69 447.23 63.68 446.62 61.32 447.7 59.57 448.71 57.75 451 57.14 452.82 58.15 454.64 59.23 455.25 61.52 454.17 63.34Z" stroke-width="0" fill="#3375B2"/><path d="M476.27 88.14C474.52 89.22 472.16 88.61 471.15 86.79 470.07 84.97 470.75 82.68 472.5 81.67 474.32 80.59 476.61 81.2 477.69 83.02 478.7 84.84 478.09 87.13 476.27 88.14Z" stroke-width="0" fill="#3375B2"/><circle cx="483.01" cy="116.98" r="3.77" stroke-width="0" fill="#3375B2" transform="matrix(0.160226 -0.98708 0.98708 0.160226 290.17 575.01)"/><path d="M472.49 152.29C470.74 151.28 470.06 148.99 471.14 147.17 472.15 145.35 474.51 144.74 476.26 145.82 478.08 146.83 478.69 149.12 477.68 150.94 476.6 152.76 474.31 153.37 472.49 152.29Z" stroke-width="0" fill="#3375B2"/><path d="M447.7 174.39C446.62 172.64 447.23 170.28 449.05 169.27 450.87 168.19 453.16 168.87 454.17 170.62 455.25 172.44 454.64 174.73 452.82 175.81 451 176.82 448.71 176.21 447.7 174.39Z" stroke-width="0" fill="#3375B2"/><circle cx="418.86" cy="181.13" r="3.77" stroke-width="0" fill="#3375B2" transform="matrix(0.92388 -0.382683 0.382683 0.92388 -37.43 174.08)"/><path d="M383.55 170.62C384.56 168.87 386.85 168.19 388.67 169.27 390.49 170.28 391.1 172.64 390.02 174.39 389.01 176.21 386.72 176.82 384.9 175.81 383.08 174.73 382.47 172.44 383.55 170.62Z" stroke-width="0" fill="#3375B2"/><path d="M361.45 145.82C363.2 144.74 365.56 145.35 366.57 147.17 367.65 148.99 366.97 151.28 365.22 152.29 363.4 153.37 361.11 152.76 360.03 150.94 359.02 149.12 359.63 146.83 361.45 145.82Z" stroke-width="0" fill="#3375B2"/><circle cx="354.71" cy="116.98" r="3.77" stroke-width="0" fill="#3375B2" transform="matrix(0.382683 -0.92388 0.92388 0.382683 110.89 399.92)"/><path d="M365.22 81.67C366.97 82.68 367.65 84.97 366.57 86.79 365.56 88.61 363.2 89.22 361.45 88.14 359.63 87.13 359.02 84.84 360.03 83.02 361.11 81.2 363.4 80.59 365.22 81.67Z" stroke-width="0" fill="#3375B2"/><path d="M390.02 59.57C391.1 61.32 390.49 63.68 388.67 64.69 386.85 65.77 384.56 65.09 383.55 63.34 382.47 61.52 383.08 59.23 384.9 58.15 386.72 57.14 389.01 57.75 390.02 59.57Z" stroke-width="0" fill="#3375B2"/><circle cx="418.86" cy="267.92" r="52.83" stroke-width="0" fill="#3375B2"/><circle cx="418.86" cy="203.77" r="3.77" stroke-width="0" fill="#3375B2" transform="matrix(0.382683 -0.92388 0.92388 0.382683 70.31 512.76)"/><path d="M454.17 214.28C453.16 216.03 450.87 216.71 449.05 215.63 447.23 214.62 446.62 212.26 447.7 210.51 448.71 208.69 451 208.08 452.82 209.09 454.64 210.17 455.25 212.46 454.17 214.28Z" stroke-width="0" fill="#3375B2"/><path d="M476.27 239.08C474.52 240.16 472.16 239.55 471.15 237.73 470.07 235.91 470.75 233.62 472.5 232.61 474.32 231.53 476.61 232.14 477.69 233.96 478.7 235.78 478.09 238.07 476.27 239.08Z" stroke-width="0" fill="#3375B2"/><circle cx="483.01" cy="267.92" r="3.77" stroke-width="0" fill="#3375B2" transform="matrix(0.289867 -0.957067 0.957067 0.289867 86.62 652.56)"/><path d="M472.49 303.23C470.74 302.22 470.06 299.93 471.14 298.11 472.15 296.29 474.51 295.68 476.26 296.76 478.08 297.77 478.69 300.06 477.68 301.88 476.6 303.7 474.31 304.31 472.49 303.23Z" stroke-width="0" fill="#3375B2"/><path d="M447.7 325.33C446.62 323.58 447.23 321.22 449.05 320.21 450.87 319.13 453.16 319.81 454.17 321.56 455.25 323.38 454.64 325.67 452.82 326.75 451 327.76 448.71 327.15 447.7 325.33Z" stroke-width="0" fill="#3375B2"/><circle cx="418.86" cy="332.07" r="3.77" stroke-width="0" fill="#3375B2" transform="matrix(0.92388 -0.382683 0.382683 0.92388 -95.19 185.57)"/><path d="M383.55 321.56C384.56 319.81 386.85 319.13 388.67 320.21 390.49 321.22 391.1 323.58 390.02 325.33 389.01 327.15 386.72 327.76 384.9 326.75 383.08 325.67 382.47 323.38 383.55 321.56Z" stroke-width="0" fill="#3375B2"/><path d="M361.45 296.76C363.2 295.68 365.56 296.29 366.57 298.11 367.65 299.93 366.97 302.22 365.22 303.23 363.4 304.31 361.11 303.7 360.03 301.88 359.02 300.06 359.63 297.77 361.45 296.76Z" stroke-width="0" fill="#3375B2"/><circle cx="354.71" cy="267.92" r="3.77" stroke-width="0" fill="#3375B2" transform="matrix(0.160226 -0.98708 0.98708 0.160226 33.43 575.13)"/><path d="M365.22 232.61C366.97 233.62 367.65 235.91 366.57 237.73 365.56 239.55 363.2 240.16 361.45 239.08 359.63 238.07 359.02 235.78 360.03 233.96 361.11 232.14 363.4 231.53 365.22 232.61Z" stroke-width="0" fill="#3375B2"/><path d="M390.02 210.51C391.1 212.26 390.49 214.62 388.67 215.63 386.85 216.71 384.56 216.03 383.55 214.28 382.47 212.46 383.08 210.17 384.9 209.09 386.72 208.08 389.01 208.69 390.02 210.51Z" stroke-width="0" fill="#3375B2"/><circle cx="418.86" cy="418.86" r="52.83" stroke-width="0" fill="#3375B2"/><circle cx="418.86" cy="354.71" r="3.77" stroke-width="0" fill="#3375B2" transform="matrix(0.160226 -0.98708 0.98708 0.160226 1.64 711.34)"/><path d="M454.17 365.22C453.16 366.97 450.87 367.65 449.05 366.57 447.23 365.56 446.62 363.2 447.7 361.45 448.71 359.63 451 359.02 452.82 360.03 454.64 361.11 455.25 363.4 454.17 365.22Z" stroke-width="0" fill="#3375B2"/><path d="M476.27 390.02C474.52 391.1 472.16 390.49 471.15 388.67 470.07 386.85 470.75 384.56 472.5 383.55 474.32 382.47 476.61 383.08 477.69 384.9 478.7 386.72 478.09 389.01 476.27 390.02Z" stroke-width="0" fill="#3375B2"/><circle cx="483.01" cy="418.86" r="3.77" stroke-width="0" fill="#3375B2" transform="matrix(0.22971 -0.973259 0.973259 0.22971 -35.62 792.71)"/><path d="M472.49 454.17C470.74 453.16 470.06 450.87 471.14 449.05 472.15 447.23 474.51 446.62 476.26 447.7 478.08 448.71 478.69 451 477.68 452.82 476.6 454.64 474.31 455.25 472.49 454.17Z" stroke-width="0" fill="#3375B2"/><path d="M447.7 476.27C446.62 474.52 447.23 472.16 449.05 471.15 450.87 470.07 453.16 470.75 454.17 472.5 455.25 474.32 454.64 476.61 452.82 477.69 451 478.7 448.71 478.09 447.7 476.27Z" stroke-width="0" fill="#3375B2"/><circle cx="418.86" cy="483.01" r="3.77" stroke-width="0" fill="#3375B2" transform="matrix(0.99847 -0.0552987 0.0552987 0.99847 -26.07 23.9)"/><path d="M383.55 472.49C384.56 470.74 386.85 470.06 388.67 471.14 390.49 472.15 391.1 474.51 390.02 476.26 389.01 478.08 386.72 478.69 384.9 477.68 383.08 476.6 382.47 474.31 383.55 472.49Z" stroke-width="0" fill="#3375B2"/><path d="M361.45 447.7C363.2 446.62 365.56 447.23 366.57 449.05 367.65 450.87 366.97 453.16 365.22 454.17 363.4 455.25 361.11 454.64 360.03 452.82 359.02 451 359.63 448.71 361.45 447.7Z" stroke-width="0" fill="#3375B2"/><circle cx="354.71" cy="418.86" r="3.77" stroke-width="0" fill="#3375B2" transform="matrix(0.289867 -0.957067 0.957067 0.289867 -148.97 636.97)"/><path d="M365.22 383.55C366.97 384.56 367.65 386.85 366.57 388.67 365.56 390.49 363.2 391.1 361.45 390.02 359.63 389.01 359.02 386.72 360.03 384.9 361.11 383.08 363.4 382.47 365.22 383.55Z" stroke-width="0" fill="#3375B2"/><path d="M390.02 361.45C391.1 363.2 390.49 365.56 388.67 366.57 386.85 367.65 384.56 366.97 383.55 365.22 382.47 363.4 383.08 361.11 384.9 360.03 386.72 359.02 389.01 359.63 390.02 361.45Z" stroke-width="0" fill="#3375B2"/><g><circle cx="116.98" cy="116.98" r="52.83" stroke="#000000" stroke-width="7.55" stroke-linejoin="round" fill="none"/><path d="M116.98 116.98 124.14 119.4 135.85 84.3 111.3 111.99 116.98 116.98Z" stroke-width="0"/><path d="M116.98 116.98 124.14 119.4 135.85 84.3 111.3 111.99 116.98 116.98Z" stroke="#FF0000" stroke-width="7.55" stroke-linejoin="round" fill="none"/><circle cx="116.98" cy="116.98" r="7.55" stroke-width="0" transform="matrix(0.560205 -0.828354 0.828354 0.560205 -45.45 148.36)"/><circle cx="116.98" cy="116.98" r="7.55" stroke="#FF0000" stroke-width="7.55" stroke-linejoin="round" fill="none" transform="matrix(0.560205 -0.828354 0.828354 0.560205 -45.45 148.36)"/><path d="M116.98 116.98 124.14 119.4 135.85 84.3 111.3 111.99 116.98 116.98Z" stroke-width="0" fill="#FFFF00"/><circle cx="116.98" cy="116.98" r="7.55" stroke-width="0" fill="#FFFF00" transform="matrix(0.560205 -0.828354 0.828354 0.560205 -45.45 148.36)"/></g><g><circle cx="267.92" cy="116.98" r="52.83" stroke="#000000" stroke-width="7.55" stroke-linejoin="round" fill="none"/><path d="M267.92 116.98 275.08 119.4 286.79 84.3 262.24 111.99 267.92 116.98Z" stroke-width="0"/><path d="M267.92 116.98 275.08 119.4 286.79 84.3 262.24 111.99 267.92 116.98Z" stroke="#FF0000" stroke-width="7.55" stroke-linejoin="round" fill="none"/><circle cx="267.92" cy="116.98" r="7.55" stroke-width="0" transform="matrix(0.6323 -0.774724 0.774724 0.6323 7.89 250.59)"/><circle cx="267.92" cy="116.98" r="7.55" stroke="#FF0000" stroke-width="7.55" stroke-linejoin="round" fill="none" transform="matrix(0.6323 -0.774724 0.774724 0.6323 7.89 250.59)"/><path d="M267.92 116.98 275.08 119.4 286.79 84.3 262.24 111.99 267.92 116.98Z" stroke-width="0" fill="#FFFF00"/><circle cx="267.92" cy="116.98" r="7.55" stroke-width="0" fill="#FFFF00" transform="matrix(0.6323 -0.774724 0.774724 0.6323 7.89 250.59)"/></g><g><circle cx="418.86" cy="116.98" r="52.83" stroke="#000000" stroke-width="7.55" stroke-linejoin="round" fill="none" transform="matrix(0.707107 -0.707107 0.707107 0.707107 39.96 330.44)"/><path d="M418.86 116.98 426.02 119.4 437.72 84.3 413.18 111.99 418.86 116.98Z" stroke-width="0"/><path d="M418.86 116.98 426.02 119.4 437.72 84.3 413.18 111.99 418.86 116.98Z" stroke="#FF0000" stroke-width="7.55" stroke-linejoin="round" fill="none"/><circle cx="418.86" cy="116.98" r="7.55" stroke-width="0" transform="matrix(0.685564 -0.728012 0.728012 0.685564 46.53 341.7)"/><circle cx="418.86" cy="116.98" r="7.55" stroke="#FF0000" stroke-width="7.55" stroke-linejoin="round" fill="none" transform="matrix(0.685564 -0.728012 0.728012 0.685564 46.53 341.7)"/><path d="M418.86 116.98 426.02 119.4 437.72 84.3 413.18 111.99 418.86 116.98Z" stroke-width="0" fill="#FFFF00"/><circle cx="418.86" cy="116.98" r="7.55" stroke-width="0" fill="#FFFF00" transform="matrix(0.685564 -0.728012 0.728012 0.685564 46.53 341.7)"/></g><g><circle cx="116.98" cy="267.92" r="52.83" stroke="#000000" stroke-width="7.55" stroke-linejoin="round" fill="none"/><path d="M116.98 267.92 124.12 270.28 135.85 235.24 111.32 262.93 116.98 267.92Z" stroke-width="0"/><path d="M116.98 267.92 124.12 270.28 135.85 235.24 111.32 262.93 116.98 267.92Z" stroke="#FF0000" stroke-width="7.55" stroke-linejoin="round" fill="none"/><path d="M123.51 271.69C121.42 275.33 116.84 276.54 113.2 274.45 109.56 272.36 108.35 267.78 110.44 264.14 112.53 260.5 117.11 259.29 120.75 261.38 124.39 263.47 125.6 268.05 123.51 271.69Z" stroke-width="0"/><path d="M123.51 271.69C121.42 275.33 116.84 276.54 113.2 274.45 109.56 272.36 108.35 267.78 110.44 264.14 112.53 260.5 117.11 259.29 120.75 261.38 124.39 263.47 125.6 268.05 123.51 271.69Z" stroke="#FF0000" stroke-width="7.55" stroke-linejoin="round" fill="none"/><path d="M116.98 267.92 124.12 270.28 135.85 235.24 111.32 262.93 116.98 267.92Z" stroke-width="0" fill="#FFFF00"/><path d="M123.51 271.69C121.42 275.33 116.84 276.54 113.2 274.45 109.56 272.36 108.35 267.78 110.44 264.14 112.53 260.5 117.11 259.29 120.75 261.38 124.39 263.47 125.6 268.05 123.51 271.69Z" stroke-width="0" fill="#FFFF00"/></g><g><circle cx="267.92" cy="267.92" r="52.83" stroke="#000000" stroke-width="7.55" stroke-linejoin="round" fill="none"/><path d="M267.92 267.92 275.06 270.28 286.79 235.24 262.26 262.93 267.92 267.92Z" stroke-width="0"/><path d="M267.92 267.92 275.06 270.28 286.79 235.24 262.26 262.93 267.92 267.92Z" stroke="#FF0000" stroke-width="7.55" stroke-linejoin="round" fill="none"/><path d="M274.45 271.69C272.36 275.33 267.78 276.54 264.14 274.45 260.5 272.36 259.29 267.78 261.38 264.14 263.47 260.5 268.05 259.29 271.69 261.38 275.33 263.47 276.54 268.05 274.45 271.69Z" stroke-width="0"/><path d="M274.45 271.69C272.36 275.33 267.78 276.54 264.14 274.45 260.5 272.36 259.29 267.78 261.38 264.14 263.47 260.5 268.05 259.29 271.69 261.38 275.33 263.47 276.54 268.05 274.45 271.69Z" stroke="#FF0000" stroke-width="7.55" stroke-linejoin="round" fill="none"/><path d="M267.92 267.92 275.06 270.28 286.79 235.24 262.26 262.93 267.92 267.92Z" stroke-width="0" fill="#FFFF00"/><path d="M274.45 271.69C272.36 275.33 267.78 276.54 264.14 274.45 260.5 272.36 259.29 267.78 261.38 264.14 263.47 260.5 268.05 259.29 271.69 261.38 275.33 263.47 276.54 268.05 274.45 271.69Z" stroke-width="0" fill="#FFFF00"/></g><g><circle cx="418.86" cy="267.92" r="52.83" stroke="#000000" stroke-width="7.55" stroke-linejoin="round" fill="none" transform="matrix(0.707107 -0.707107 0.707107 0.707107 -66.77 374.65)"/><path d="M418.86 267.92 426.02 270.34 437.72 235.24 413.18 262.93 418.86 267.92Z" stroke-width="0"/><path d="M418.86 267.92 426.02 270.34 437.72 235.24 413.18 262.93 418.86 267.92Z" stroke="#FF0000" stroke-width="7.55" stroke-linejoin="round" fill="none"/><circle cx="418.86" cy="267.92" r="7.55" stroke-width="0" transform="matrix(0.793353 -0.608761 0.608761 0.793353 -76.54 310.35)"/><circle cx="418.86" cy="267.92" r="7.55" stroke="#FF0000" stroke-width="7.55" stroke-linejoin="round" fill="none" transform="matrix(0.793353 -0.608761 0.608761 0.793353 -76.54 310.35)"/><path d="M418.86 267.92 426.02 270.34 437.72 235.24 413.18 262.93 418.86 267.92Z" stroke-width="0" fill="#FFFF00"/><circle cx="418.86" cy="267.92" r="7.55" stroke-width="0" fill="#FFFF00" transform="matrix(0.793353 -0.608761 0.608761 0.793353 -76.54 310.35)"/></g><g><circle cx="116.98" cy="418.86" r="52.83" stroke="#000000" stroke-width="7.55" stroke-linejoin="round" fill="none"/><path d="M116.98 418.86 124.34 417.33 116.98 381.12 109.58 417.37 116.98 418.86Z" stroke-width="0"/><path d="M116.98 418.86 124.34 417.33 116.98 381.12 109.58 417.37 116.98 418.86Z" stroke="#FF0000" stroke-width="7.55" stroke-linejoin="round" fill="none"/><path d="M124.53 418.86C124.54 423.06 121.18 426.4 116.98 426.41 112.78 426.42 109.44 423.06 109.43 418.86 109.42 414.66 112.78 411.32 116.98 411.31 121.18 411.3 124.52 414.66 124.53 418.86Z" stroke-width="0"/><path d="M124.53 418.86C124.54 423.06 121.18 426.4 116.98 426.41 112.78 426.42 109.44 423.06 109.43 418.86 109.42 414.66 112.78 411.32 116.98 411.31 121.18 411.3 124.52 414.66 124.53 418.86Z" stroke="#FF0000" stroke-width="7.55" stroke-linejoin="round" fill="none"/><path d="M116.98 418.86 124.34 417.33 116.98 381.12 109.58 417.37 116.98 418.86Z" stroke-width="0" fill="#FFFF00"/><path d="M124.53 418.86C124.54 423.06 121.18 426.4 116.98 426.41 112.78 426.42 109.44 423.06 109.43 418.86 109.42 414.66 112.78 411.32 116.98 411.31 121.18 411.3 124.52 414.66 124.53 418.86Z" stroke-width="0" fill="#FFFF00"/></g><g><circle cx="267.92" cy="418.86" r="52.83" stroke="#000000" stroke-width="7.55" stroke-linejoin="round" fill="none"/><path d="M267.92 418.86 275.06 421.22 286.79 386.18 262.26 413.87 267.92 418.86Z" stroke-width="0"/><path d="M267.92 418.86 275.06 421.22 286.79 386.18 262.26 413.87 267.92 418.86Z" stroke="#FF0000" stroke-width="7.55" stroke-linejoin="round" fill="none"/><path d="M274.45 422.63C272.36 426.27 267.78 427.48 264.14 425.39 260.5 423.3 259.29 418.72 261.38 415.08 263.47 411.44 268.05 410.23 271.69 412.32 275.33 414.41 276.54 418.99 274.45 422.63Z" stroke-width="0"/><path d="M274.45 422.63C272.36 426.27 267.78 427.48 264.14 425.39 260.5 423.3 259.29 418.72 261.38 415.08 263.47 411.44 268.05 410.23 271.69 412.32 275.33 414.41 276.54 418.99 274.45 422.63Z" stroke="#FF0000" stroke-width="7.55" stroke-linejoin="round" fill="none"/><path d="M267.92 418.86 275.06 421.22 286.79 386.18 262.26 413.87 267.92 418.86Z" stroke-width="0" fill="#FFFF00"/><path d="M274.45 422.63C272.36 426.27 267.78 427.48 264.14 425.39 260.5 423.3 259.29 418.72 261.38 415.08 263.47 411.44 268.05 410.23 271.69 412.32 275.33 414.41 276.54 418.99 274.45 422.63Z" stroke-width="0" fill="#FFFF00"/></g><g><circle cx="418.86" cy="418.86" r="52.83" stroke="#000000" stroke-width="7.55" stroke-linejoin="round" fill="none"/><path d="M418.86 418.86 426 421.22 437.72 386.18 413.2 413.87 418.86 418.86Z" stroke-width="0"/><path d="M418.86 418.86 426 421.22 437.72 386.18 413.2 413.87 418.86 418.86Z" stroke="#FF0000" stroke-width="7.55" stroke-linejoin="round" fill="none"/><path d="M425.39 422.63C423.3 426.27 418.72 427.48 415.08 425.39 411.44 423.3 410.23 418.72 412.32 415.08 414.41 411.44 418.99 410.23 422.63 412.32 426.27 414.41 427.48 418.99 425.39 422.63Z" stroke-width="0"/><path d="M425.39 422.63C423.3 426.27 418.72 427.48 415.08 425.39 411.44 423.3 410.23 418.72 412.32 415.08 414.41 411.44 418.99 410.23 422.63 412.32 426.27 414.41 427.48 418.99 425.39 422.63Z" stroke="#FF0000" stroke-width="7.55" stroke-linejoin="round" fill="none"/><path d="M418.86 418.86 426 421.22 437.72 386.18 413.2 413.87 418.86 418.86Z" stroke-width="0" fill="#FFFF00"/><path d="M425.39 422.63C423.3 426.27 418.72 427.48 415.08 425.39 411.44 423.3 410.23 418.72 412.32 415.08 414.41 411.44 418.99 410.23 422.63 412.32 426.27 414.41 427.48 418.99 425.39 422.63Z" stroke-width="0" fill="#FFFF00"/></g><circle cx="192.45" cy="192.45" r="15.09" stroke-width="0" fill="#FFFF00"/><circle cx="192.45" cy="192.45" r="15.09" stroke="#000000" stroke-width="7.55" stroke-linejoin="round" fill="none"/><circle cx="343.39" cy="192.45" r="15.09" stroke-width="0" fill="#FFFF00" transform="matrix(0.92388 -0.382683 0.382683 0.92388 -47.51 146.06)"/><circle cx="343.39" cy="192.45" r="15.09" stroke="#000000" stroke-width="7.55" stroke-linejoin="round" fill="none" transform="matrix(0.92388 -0.382683 0.382683 0.92388 -47.51 146.06)"/><circle cx="192.45" cy="343.39" r="15.09" stroke-width="0" fill="#754C24"/><circle cx="192.45" cy="343.39" r="15.09" stroke="#000000" stroke-width="7.55" stroke-linejoin="round" fill="none"/><circle cx="343.39" cy="343.39" r="15.09" stroke-width="0" fill="#FFFF00" transform="matrix(0.92388 -0.382683 0.382683 0.92388 -105.27 157.55)"/><circle cx="343.39" cy="343.39" r="15.09" stroke="#000000" stroke-width="7.55" stroke-linejoin="round" fill="none" transform="matrix(0.92388 -0.382683 0.382683 0.92388 -105.27 157.55)"/></g></svg>