<svg version="1.1" width="128" height="128" viewBox="-0.9 -0.9 1.8 1.8" xmlns="http://www.w3.org/2000/svg" xmlns:xlink="http://www.w3.org/1999/xlink" overflow="hidden"><g stroke-width="0.1" stroke-linejoin="round" opacity="1"><path d=" M -0.522222 -0.522222 L 0.522222 -0.522222 L 0.522222 0.522222 L -0.522222 0.522222 Z" stroke="#FFFFFF" fill="#FFFFFF"/></g><g stroke-width="0" stroke-linejoin="round" stroke-opacity="0.5" opacity="1"><path d=" M -0.538889 -0.538889 L -0.35 -0.538889 L -0.35 -0.35 L -0.538889 -0.35 Z" stroke="#FFFFFF" fill="#EE0000"/><path d=" M -0.316667 -0.538889 L -0.127778 -0.538889 L -0.127778 -0.35 L -0.316667 -0.35 Z" stroke="#FFFFFF" fill="#EE0000"/><path d=" M -0.0944444 -0.538889 L 0.0944444 -0.538889 L 0.0944444 -0.35 L -0.0944444 -0.35 Z" stroke="#FFFFFF" fill="#EE0000"/><path d=" M 0.127778 -0.538889 L 0.316667 -0.538889 L 0.316667 -0.35 L 0.127778 -0.35 Z" stroke="#FFFFFF" fill="#EE0000"/><path d=" M 0.35 -0.538889 L 0.538889 -0.538889 L 0.538889 -0.35 L 0.35 -0.35 Z" stroke="#FFFFFF" fill="#EE0000"/><path d=" M -0.538889 -0.316667 L -0.35 -0.316667 L -0.35 -0.127778 L -0.538889 -0.127778 Z" stroke="#FFFFFF" fill="#0000F2"/><path d=" M -0.316667 -0.316667 L -0.127778 -0.316667 L -0.127778 -0.127778 L -0.316667 -0.127778 Z" stroke="#FFFFFF" fill="#0000F2"/><path d=" M -0.0944444 -0.316667 L 0.0944444 -0.316667 L 0.0944444 -0.127778 L -0.0944444 -0.127778 Z" stroke="#FFFFFF" fill="#EE0000"/><path d=" M 0.127778 -0.316667 L 0.316667 -0.316667 L 0.316667 -0.127778 L 0.127778 -0.127778 Z" stroke="#FFFFFF" fill="#0000F2"/><path d=" M 0.35 -0.316667 L 0.538889 -0.316667 L 0.538889 -0.127778 L 0.35 -0.127778 Z" stroke="#FFFFFF" fill="#0000F2"/><path d=" M -0.538889 -0.0944444 L -0.35 -0.0944444 L -0.35 0.0944444 L -0.538889 0.0944444 Z" stroke="#FFFFFF" fill="#0000F2"/><path d=" M -0.316667 -0.0944444 L -0.127778 -0.0944444 L -0.127778 0.0944444 L -0.316667 0.0944444 Z" stroke="#FFFFFF" fill="#0000F2"/><path d=" M -0.0944444 -0.0944444 L 0.0944444 -0.0944444 L 0.0944444 0.0944444 L -0.0944444 0.0944444 Z" stroke="#FFFFFF" fill="#EE0000"/><path d=" M 0.127778 -0.0944444 L 0.316667 -0.0944444 L 0.316667 0.0944444 L 0.127778 0.0944444 Z" stroke="#FFFFFF" fill="#0000F2"/><path d=" M 0.35 -0.0944444 L 0.538889 -0.0944444 L 0.538889 0.0944444 L 0.35 0.0944444 Z" stroke="#FFFFFF" fill="#0000F2"/><path d=" M -0.538889 0.127778 L -0.35 0.127778 L -0.35 0.316667 L -0.538889 0.316667 Z" stroke="#FFFFFF" fill="#0000F2"/><path d=" M -0.316667 0.127778 L -0.127778 0.127778 L -0.127778 0.316667 L -0.316667 0.316667 Z" stroke="#FFFFFF" fill="#0000F2"/><path d=" M -0.0944444 0.127778 L 0.0944444 0.127778 L 0.0944444 0.316667 L -0.0944444 0.316667 Z" stroke="#FFFFFF" fill="#EE0000"/><path d=" M 0.127778 0.127778 L 0.316667 0.127778 L 0.316667 0.316667 L 0.127778 0.316667 Z" stroke="#FFFFFF" fill="#0000F2"/><path d=" M 0.35 0.127778 L 0.538889 0.127778 L 0.538889 0.316667 L 0.35 0.316667 Z" stroke="#FFFFFF" fill="#0000F2"/><path d=" M -0.538889 0.35 L -0.35 0.35 L -0.35 0.538889 L -0.538889 0.538889 Z" stroke="#FFFFFF" fill="#0000F2"/><path d=" M -0.316667 0.35 L -0.127778 0.35 L -0.127778 0.538889 L -0.316667 0.538889 Z" stroke="#FFFFFF" fill="#0000F2"/><path d=" M -0.0944444 0.35 L 0.0944444 0.35 L 0.0944444 0.538889 L -0.0944444 0.538889 Z" stroke="#FFFFFF" fill="#EE0000"/><path d=" M 0.127778 0.35 L 0.316667 0.35 L 0.316667 0.538889 L 0.127778 0.538889 Z" stroke="#FFFFFF" fill="#0000F2"/><path d=" M 0.35 0.35 L 0.538889 0.35 L 0.538889 0.538889 L 0.35 0.538889 Z" stroke="#FFFFFF" fill="#0000F2"/></g></svg>