<svg version="1.1" viewBox="0 0 147.46 86.27" xmlns="http://www.w3.org/2000/svg" xmlns:xlink="http://www.w3.org/1999/xlink" overflow="hidden"><defs></defs><g id="图层_2"><g id="图层_1-2"><path d=" M 147.46 0 L 147.46 3.74 L 146.34 3.74 C 119.4 3.74 92.4567 3.74 65.51 3.74 C 64.8606 3.66144 64.2473 4.05633 64.05 4.68 C 55.11 23.7867 46.1567 42.8933 37.19 62 C 33.6567 69.5 30.1333 77.0033 26.62 84.51 C 26.19 85.42 25.78 86.3 24.54 86.31 C 23.7372 86.3675 23.0019 85.8607 22.77 85.09 C 21.26 81.65 19.77 78.23 18.22 74.79 L 6.57 48.38 L 6.18 47.59 C 4.98 48.52 3.82 49.43 2.65 50.31 C 2.18872 50.698 1.68561 51.0335 1.15 51.31 C 0.85 51.44 0.15 51.37 0.15 51.22 C -0.0203621 50.8312 -0.0203621 50.3888 0.15 50 C 0.68203 49.4304 1.27187 48.9176 1.91 48.47 L 8.82 43.08 C 8.94162 42.9755 9.07211 42.8818 9.21 42.8 C 10.32 42.07 10.83 42.15 11.37 43.31 C 12.19 45.06 12.95 46.84 13.72 48.61 C 17.8267 57.9433 21.9333 67.2767 26.04 76.61 C 26.11 76.77 26.21 76.91 26.34 77.15 C 27.34 75.15 28.23 73.15 29.15 71.2 C 33.65 61.6 38.1433 51.9967 42.63 42.39 C 48.83 29.15 55.0233 15.91 61.21 2.67 C 61.31 2.46 61.43 2.25 61.52 2.04 C 61.9764 0.725988 63.2762 -0.101924 64.66 0.04 C 91.86 0.08 119.06 0.08 146.26 0.04 Z"/><path d=" M 18.27 37 C 19.166 37.5035 20.1152 37.9059 21.1 38.2 C 22.8254 38.591 24.5911 38.7756 26.36 38.75 C 30.59 38.52 32.36 35.19 31.99 31.33 C 31.55 27.01 28.74 25.07 24.08 25.63 C 23.7451 25.6607 23.4074 25.6371 23.08 25.56 C 22.58 25.45 21.67 25.73 21.68 24.8 C 21.68 24.16 22.07 24.11 22.53 24.07 C 23.7287 24.0226 24.9238 23.9091 26.11 23.73 C 29.3061 22.8898 31.3931 19.8213 31 16.54 C 30.7939 14.6491 29.3483 13.1298 27.47 12.83 C 25.2583 12.4014 22.9675 12.6886 20.93 13.65 C 20.3869 13.9458 19.8655 14.28 19.37 14.65 C 20.3471 14.8922 21.1026 15.6671 21.32 16.65 C 21.6447 17.9579 20.8477 19.2813 19.5398 19.606 C 19.4673 19.624 19.3939 19.6387 19.32 19.65 C 18.0231 19.8269 16.8283 18.919 16.6514 17.6221 C 16.6387 17.5285 16.6315 17.4344 16.63 17.34 C 16.542 15.6888 17.2944 14.1049 18.63 13.13 C 20.3485 11.8543 22.4115 11.126 24.55 11.04 C 27.1117 10.7576 29.7003 11.2266 32 12.39 C 36.08 14.52 36.69 19.02 33.24 22.16 C 32.076 23.0809 30.8423 23.91 29.55 24.64 C 30.22 24.89 31.07 25.15 31.87 25.53 C 34.16 26.61 36.07 28.11 36.73 30.77 C 37.2718 33.0206 36.5834 35.39 34.92 37 C 32.7508 39.2443 29.7711 40.5233 26.65 40.55 C 24.2124 40.7445 21.7617 40.4031 19.47 39.55 C 17.57 38.8 15.9 37.7 15.36 35.55 C 15.195 34.7754 15.195 33.9746 15.36 33.2 C 15.6562 32.0579 16.7475 31.3076 17.92 31.44 C 19.0687 31.4955 20.0368 32.3159 20.28 33.44 C 20.6122 34.6457 20.0527 35.9191 18.94 36.49 C 18.74 36.59 18.53 36.66 18.32 36.75 Z"/><path d=" M 107 62.46 C 104.56 62.46 102.12 62.46 99.68 62.46 C 99.2466 62.5457 98.8257 62.2637 98.7401 61.8303 C 98.74 61.8302 98.74 61.8301 98.74 61.83 C 97.2533 57.1633 95.74 52.4967 94.2 47.83 C 94.0151 47.4678 94.1526 47.0241 94.51 46.83 C 98.51 43.95 102.51 41.0533 106.51 38.14 C 106.789 37.8708 107.231 37.8708 107.51 38.14 C 111.51 41.08 115.537 44.0067 119.59 46.92 C 119.915 47.0853 120.052 47.4782 119.9 47.81 C 118.353 52.53 116.817 57.25 115.29 61.97 C 115.14 62.42 114.92 62.5 114.5 62.5 C 112 62.45 109.53 62.46 107 62.46 Z" fill="#EE0000" fill-rule="evenodd"/><path d=" M 80.56 64.94 L 96.45 64.94 C 96.9043 64.8458 97.3489 65.1377 97.443 65.592 C 97.4456 65.6046 97.448 65.6173 97.45 65.63 C 98.99 70.46 100.57 75.27 102.14 80.09 C 102.2 80.28 102.25 80.48 102.33 80.75 C 102.1 80.75 101.91 80.81 101.72 80.81 L 86.36 80.81 C 85.93 80.81 85.66 80.81 85.51 80.27 C 83.92 75.27 82.3 70.33 80.69 65.36 Z" fill="#0000F2" fill-rule="evenodd"/><path d=" M 133.47 65 C 132.79 67.07 132.13 69.1 131.47 71.14 C 130.47 74.14 129.47 77.14 128.53 80.2 C 128.41 80.59 128.3 80.83 127.82 80.83 C 122.63 80.83 117.45 80.83 112.26 80.83 C 112.14 80.83 112.02 80.83 111.8 80.83 C 112.2 79.6 112.57 78.43 112.95 77.25 C 114.21 73.37 115.48 69.5 116.72 65.61 C 116.782 65.2228 117.142 64.9561 117.53 65.01 L 132.94 65.01 C 133.09 64.94 133.24 65 133.47 65 Z" fill="#0000F2" fill-rule="evenodd"/><path d=" M 77.65 56 C 76.95 53.86 76.27 51.81 75.6 49.75 C 74.6 46.75 73.69 43.8 72.71 40.83 C 72.58 40.44 72.56 40.19 72.94 39.91 C 77.2333 36.8167 81.5133 33.7167 85.78 30.61 C 85.857 30.575 85.9374 30.5482 86.02 30.53 C 87.7067 35.75 89.4067 40.98 91.12 46.22 Z" fill="#EE0000" fill-rule="evenodd"/><path d=" M 120.43 24.93 L 114.82 29 L 107.53 34.3 C 107.21 34.54 106.97 34.66 106.53 34.38 C 102.33 31.3 98.12 28.25 93.9 25.19 C 93.8 25.12 93.67 25.07 93.48 24.97 L 100.35 19.97 C 102.35 18.5 104.42 17.03 106.44 15.54 C 106.77 15.31 107 15.18 107.44 15.47 Z" fill="#EE0000" fill-rule="evenodd"/><path d=" M 128.11 30.51 L 137 37 C 138.34 38 139.69 38.93 141 39.94 C 141.227 40.1371 141.346 40.4307 141.32 40.73 C 139.73 45.73 138.1 50.73 136.47 55.73 C 136.436 55.8449 136.389 55.9556 136.33 56.06 L 130 51.41 C 127.82 49.83 125.64 48.25 123.48 46.64 C 123.241 46.4532 123.107 46.1628 123.12 45.86 C 124.77 40.77 126.43 35.69 128.11 30.51 Z" fill="#EE0000" fill-rule="evenodd"/><path d=" M 126 29 L 120.87 44.77 L 109.13 36.24 L 122.55 26.49 Z" fill="#EE0000" fill-rule="evenodd"/><path d=" M 99.91 65 L 114.3 65 C 113.95 66.07 113.63 67.08 113.3 68.1 C 111.99 72.1 110.67 76.1 109.38 80.18 C 109.326 80.6129 108.931 80.9199 108.498 80.8657 C 108.485 80.8641 108.473 80.8622 108.46 80.86 C 107.46 80.86 106.46 80.86 105.51 80.86 C 105.233 80.8334 104.986 80.6728 104.85 80.43 C 103.183 75.3767 101.517 70.32 99.85 65.26 C 99.8613 65.1716 99.8814 65.0845 99.91 65 Z" fill="#EE0000" fill-rule="evenodd"/><path d=" M 91.93 48.72 C 93.43 53.35 94.93 57.86 96.39 62.46 L 95.6 62.46 C 90.6 62.46 85.53 62.46 80.49 62.46 C 80.0091 62.5301 79.5623 62.1971 79.4922 61.7162 C 79.4914 61.7108 79.4907 61.7054 79.49 61.7 C 79.23 60.78 78.89 59.88 78.64 58.96 C 78.5909 58.7067 78.661 58.4449 78.83 58.25 C 83.13 55.1 87.47 52 91.93 48.72 Z" fill="#0000F2" fill-rule="evenodd"/><path d=" M 104.89 36.22 L 93.23 44.69 L 92.17 41.42 C 90.89 37.42 89.61 33.5 88.3 29.55 C 88.1223 29.1847 88.2632 28.7442 88.62 28.55 C 89.57 27.91 90.48 27.23 91.48 26.5 Z" fill="#EE0000" fill-rule="evenodd"/><path d=" M 117.75 62.41 C 119.22 57.88 120.68 53.41 122.18 48.78 L 126.43 51.87 C 129.3 53.96 132.17 56.05 135.05 58.11 C 135.416 58.2916 135.566 58.7356 135.384 59.1017 C 135.383 59.1045 135.381 59.1073 135.38 59.11 C 135.03 60.02 134.74 60.96 134.47 61.9 C 134.429 62.24 134.12 62.4823 133.78 62.4413 C 133.777 62.4409 133.773 62.4405 133.77 62.44 L 118.06 62.44 C 117.956 62.4381 117.852 62.428 117.75 62.41 Z" fill="#0000F2" fill-rule="evenodd"/></g></g></svg>