<svg viewBox="0 0 147.46 86.27" xmlns="http://www.w3.org/2000/svg" xmlns:xlink="http://www.w3.org/1999/xlink" overflow="hidden"><defs></defs><g id="图层_2"><g id="图层_1-2"><path d="M147.46 0 147.46 3.74 146.34 3.74C119.4 3.74 92.4567 3.74 65.51 3.74 64.8606 3.66144 64.2473 4.05633 64.05 4.68 55.11 23.7867 46.1567 42.8933 37.19 62 33.6567 69.5 30.1333 77.0033 26.62 84.51 26.19 85.42 25.78 86.3 24.54 86.31 23.7372 86.3675 23.0019 85.8607 22.77 85.09 21.26 81.65 19.77 78.23 18.22 74.79L6.57 48.38 6.18 47.59C4.98 48.52 3.82 49.43 2.65 50.31 2.18872 50.698 1.68561 51.0335 1.15 51.31 0.85 51.44 0.15 51.37 0.15 51.22-0.0203621 50.8312-0.0203621 50.3888 0.15 50 0.68203 49.4304 1.27187 48.9176 1.91 48.47L8.82 43.08C8.94162 42.9755 9.07211 42.8818 9.21 42.8 10.32 42.07 10.83 42.15 11.37 43.31 12.19 45.06 12.95 46.84 13.72 48.61 17.8267 57.9433 21.9333 67.2767 26.04 76.61 26.11 76.77 26.21 76.91 26.34 77.15 27.34 75.15 28.23 73.15 29.15 71.2 33.65 61.6 38.1433 51.9967 42.63 42.39 48.83 29.15 55.0233 15.91 61.21 2.67 61.31 2.46 61.43 2.25 61.52 2.04 61.9764 0.725988 63.2762-0.101924 64.66 0.04 91.86 0.08 119.06 0.08 146.26 0.04Z"/><path d="M18.27 37C19.166 37.5035 20.1152 37.9059 21.1 38.2 22.8254 38.591 24.5911 38.7756 26.36 38.75 30.59 38.52 32.36 35.19 31.99 31.33 31.55 27.01 28.74 25.07 24.08 25.63 23.7451 25.6607 23.4074 25.6371 23.08 25.56 22.58 25.45 21.67 25.73 21.68 24.8 21.68 24.16 22.07 24.11 22.53 24.07 23.7287 24.0226 24.9238 23.9091 26.11 23.73 29.3061 22.8898 31.3931 19.8213 31 16.54 30.7939 14.6491 29.3483 13.1298 27.47 12.83 25.2583 12.4014 22.9675 12.6886 20.93 13.65 20.3869 13.9458 19.8655 14.28 19.37 14.65 20.3471 14.8922 21.1026 15.6671 21.32 16.65 21.6447 17.9579 20.8477 19.2813 19.5398 19.606 19.4673 19.624 19.3939 19.6387 19.32 19.65 18.0231 19.8269 16.8283 18.919 16.6514 17.6221 16.6387 17.5285 16.6315 17.4344 16.63 17.34 16.542 15.6888 17.2944 14.1049 18.63 13.13 20.3485 11.8543 22.4115 11.126 24.55 11.04 27.1117 10.7576 29.7003 11.2266 32 12.39 36.08 14.52 36.69 19.02 33.24 22.16 32.076 23.0809 30.8423 23.91 29.55 24.64 30.22 24.89 31.07 25.15 31.87 25.53 34.16 26.61 36.07 28.11 36.73 30.77 37.2718 33.0206 36.5834 35.39 34.92 37 32.7508 39.2443 29.7711 40.5233 26.65 40.55 24.2124 40.7445 21.7617 40.4031 19.47 39.55 17.57 38.8 15.9 37.7 15.36 35.55 15.195 34.7754 15.195 33.9746 15.36 33.2 15.6562 32.0579 16.7475 31.3076 17.92 31.44 19.0687 31.4955 20.0368 32.3159 20.28 33.44 20.6122 34.6457 20.0527 35.9191 18.94 36.49 18.74 36.59 18.53 36.66 18.32 36.75Z"/><path d="M71.32 17.63 94.97 17.63 71.32 41.28 71.32 17.63Z" fill="#EE0000"/><path d="M55.7 80.17 55.7 56.52 79.35 80.17 55.7 80.17Z" fill="#0000F2"/><path d="M144.66 80.17 121 80.17 144.66 56.52 144.66 80.17Z" fill="#0000F2"/><path d="M129.44 17.63 129.44 41.28 105.79 17.63 129.44 17.63Z" fill="#EE0000"/><path d="M100.38 64.85C98.38 64.85 96.3 64.85 94.26 64.85 93.896 64.9166 93.5469 64.6756 93.4803 64.3116 93.4802 64.3111 93.4801 64.3105 93.48 64.31 92.23 60.41 90.96 56.5 89.68 52.61 89.5153 52.3035 89.6303 51.9215 89.9368 51.7569 89.9412 51.7545 89.9456 51.7522 89.95 51.75 93.2833 49.35 96.6167 46.9333 99.95 44.5 100.176 44.2653 100.55 44.2582 100.784 44.4842 100.79 44.4894 100.795 44.4946 100.8 44.5 104.133 46.9533 107.497 49.3967 110.89 51.83 111.165 51.9687 111.28 52.3008 111.15 52.58 109.85 56.5067 108.563 60.4467 107.29 64.4 107.235 64.6988 106.949 64.8966 106.65 64.8419 106.647 64.8413 106.643 64.8407 106.64 64.84Z" fill="#EE0000" fill-rule="evenodd"/><path d="M78.26 66.91 78.91 66.91C83.12 66.91 87.32 66.91 91.53 66.91 91.9186 66.8497 92.2836 67.1124 92.35 67.5 93.64 71.5 94.96 75.55 96.27 79.57 96.27 79.73 96.36 79.9 96.42 80.12 96.2511 80.1487 96.0809 80.1688 95.91 80.18L83.1 80.18C82.75 80.18 82.52 80.18 82.39 79.73 81.06 75.57 79.71 71.43 78.39 67.28 78.34 67.19 78.32 67.11 78.26 66.91Z" fill="#0000F2" fill-rule="evenodd"/><path d="M122.45 67C121.89 68.73 121.33 70.42 120.78 72.12 119.96 74.65 119.14 77.12 118.33 79.7 118.23 80.02 118.13 80.22 117.73 80.22 113.4 80.22 109.07 80.22 104.73 80.22 104.63 80.22 104.52 80.22 104.35 80.22 104.67 79.22 104.98 78.22 105.35 77.22 106.35 73.98 107.46 70.74 108.5 67.5 108.551 67.1741 108.853 66.9481 109.18 66.99 113.47 66.99 117.76 66.99 122.05 66.99 122.13 66.92 122.26 66.94 122.45 67Z" fill="#0000F2" fill-rule="evenodd"/><path d="M75.83 59.46C75.24 57.67 74.67 55.96 74.11 54.24 73.31 51.76 72.52 49.24 71.7 46.79 71.6 46.46 71.58 46.25 71.9 46.02 75.48 43.44 79.04 40.84 82.62 38.25L82.82 38.18C84.23 42.54 85.65 46.9 87.08 51.29Z" fill="#EE0000" fill-rule="evenodd"/><path d="M111.56 33.5 106.88 36.91C104.88 38.38 102.81 39.85 100.79 41.33 100.52 41.53 100.32 41.64 100 41.4 96.4867 38.8333 92.97 36.2733 89.45 33.72 89.3331 33.654 89.2129 33.5939 89.09 33.54L94.83 29.37C96.53 28.13 98.23 26.91 99.92 25.67 100.19 25.47 100.39 25.36 100.71 25.6 104.29 28.22 107.88 30.82 111.56 33.5Z" fill="#EE0000" fill-rule="evenodd"/><path d="M118 38.16 125.43 43.55C126.55 44.37 127.68 45.17 128.78 46.01 128.968 46.1755 129.068 46.4198 129.05 46.67 127.72 50.84 126.36 55 125.05 59.17 125.05 59.24 124.98 59.31 124.93 59.44L119.65 55.61C117.83 54.29 116.01 52.97 114.2 51.61 114.007 51.4498 113.897 51.2109 113.9 50.96 115.19 46.73 116.57 42.48 118 38.16Z" fill="#EE0000" fill-rule="evenodd"/><path d="M116.21 36.88C114.79 41.27 113.37 45.63 111.93 50.05L102.12 42.93C105.89 40.2 109.6 37.5 113.33 34.78Z" fill="#EE0000" fill-rule="evenodd"/><path d="M94.42 66.94 106.42 66.94C106.13 67.83 105.86 68.67 105.59 69.52 104.49 72.8533 103.397 76.22 102.31 79.62 102.26 79.9811 101.928 80.2337 101.566 80.1842 101.558 80.183 101.549 80.1816 101.54 80.18 100.72 80.18 99.9 80.18 99.08 80.18 98.8513 80.1578 98.647 80.0277 98.53 79.83 97.13 75.61 95.76 71.38 94.38 67.16 94.3835 67.0852 94.3969 67.0112 94.42 66.94Z" fill="#EE0000" fill-rule="evenodd"/><path d="M87.75 53.37C89 57.23 90.23 61 91.48 64.85L90.82 64.85C86.61 64.85 82.41 64.85 78.2 64.85 77.7964 64.9146 77.417 64.6397 77.3524 64.2362 77.3515 64.2308 77.3507 64.2254 77.35 64.22 77.13 63.45 76.85 62.7 76.64 61.93 76.5958 61.7207 76.6513 61.5028 76.79 61.34 80.41 58.7 84 56.07 87.75 53.37Z" fill="#0000F2" fill-rule="evenodd"/><path d="M98.59 42.93 88.84 50C88.53 49 88.25 48.15 87.96 47.26 86.8933 43.9267 85.8167 40.6233 84.73 37.35 84.5673 37.0487 84.6797 36.6726 84.9809 36.5099 84.9872 36.5065 84.9936 36.5032 85 36.5 85.79 35.96 86.55 35.39 87.39 34.78Z" fill="#EE0000" fill-rule="evenodd"/><path d="M109.32 64.8 113 53.42 116.57 56C118.97 57.74 121.36 59.49 123.77 61.21 124.082 61.363 124.212 61.7404 124.059 62.0529 124.056 62.0586 124.053 62.0643 124.05 62.07 123.758 62.8334 123.504 63.6111 123.29 64.4 123.254 64.685 122.994 64.887 122.709 64.8513 122.706 64.8509 122.703 64.8504 122.7 64.85L109.59 64.85C109.499 64.8383 109.409 64.8216 109.32 64.8Z" fill="#0000F2" fill-rule="evenodd"/></g></g></svg>