<svg viewBox="0 0 265.86 192.31" xmlns="http://www.w3.org/2000/svg" xmlns:xlink="http://www.w3.org/1999/xlink" overflow="hidden"><defs></defs><g id="图层_2"><g id="图层_1-2"><path d="M141.55 20.5C139.55 22.91 136.03 27.8 138.78 30.6 139.506 31.3361 140.496 31.7503 141.53 31.75L141.53 31.75C142.576 31.7532 143.58 31.3393 144.32 30.6 147 27.93 143.58 22.91 141.55 20.5Z" stroke="#000000" stroke-miterlimit="10" fill="#FEFE00"/><path d="M146.06 34.75 137 34.75C135.839 34.8454 134.959 35.8362 135 37L135 43.88C134.992 44.6326 135.341 45.3446 135.94 45.8 136.258 46.0369 136.643 46.1664 137.04 46.17 138.217 46.0742 139.103 45.059 139.04 43.88L139.04 42.78C138.896 41.5291 139.793 40.3981 141.044 40.2539 142.295 40.1097 143.426 41.0069 143.57 42.2578 143.59 42.4313 143.59 42.6065 143.57 42.78L143.57 47.48C143.513 48.7948 144.517 49.9142 145.83 50 146.315 49.9986 146.785 49.8289 147.16 49.52 147.763 49.0068 148.108 48.2521 148.1 47.46L148.1 37C148.14 35.8218 147.237 34.825 146.06 34.75Z" fill="#EE0000"/><path d="M143.57 42.78C143.714 41.5291 142.817 40.3981 141.566 40.2539 140.315 40.1097 139.184 41.0069 139.04 42.2578 139.02 42.4313 139.02 42.6065 139.04 42.78L139.04 43.92C139.103 45.099 138.217 46.1142 137.04 46.21 136.643 46.2064 136.258 46.0769 135.94 45.84L135.94 66.63 147.19 66.63 147.19 49.54C146.815 49.8489 146.345 50.0186 145.86 50.02 144.539 49.9342 143.532 48.8024 143.6 47.48L143.6 42.78Z" fill="#FF6666"/><path d="M255.54 0.05 255.54 6.49 253.61 6.49C206.91 6.49 160.217 6.49 113.53 6.49 112.41 6.35302 111.35 7.02764 111 8.1 95.5067 41.2 79.9867 74.29 64.44 107.37 58.34 120.37 52.2333 133.37 46.12 146.37 45.38 147.95 44.68 149.47 42.53 149.5 41.1355 149.592 39.8623 148.708 39.46 147.37 36.8533 141.423 34.2267 135.48 31.58 129.54 24.8533 114.3 18.12 99.0667 11.38 83.84 11.2 83.42 10.98 83.03 10.7 82.47 8.62 84.07 6.62 85.64 4.59 87.18 3.79735 87.8815 2.9286 88.492 2 89 1.49 89.23 0.33 89.11 0.22 88.84-0.0818551 88.1442-0.0635806 87.3511 0.27 86.67 1.18786 85.6768 2.20669 84.782 3.31 84 7.31 80.88 11.31 77.7667 15.31 74.66 15.53 74.49 15.76 74.32 15.99 74.17 17.92 72.91 18.8 73.04 19.74 75.06 21.16 78.06 22.46 81.18 23.81 84.25 30.93 100.423 38.0467 116.597 45.16 132.77 45.28 133.04 45.45 133.29 45.68 133.71 47.35 130.17 48.96 126.79 50.55 123.39 58.3367 106.723 66.1233 90.08 73.91 73.46 84.6367 50.4867 95.36 27.53 106.08 4.59 106.25 4.23 106.45 3.87 106.6 3.5 107.6 0.97 109.32 0 112.05 0 159.19 0.0733333 206.33 0.09 253.47 0.05Z"/><path d="M31.67 64.08C33.2166 64.9549 34.857 65.6527 36.56 66.16 39.5487 66.8593 42.6108 67.1951 45.68 67.16 53.01 66.75 56.11 60.98 55.43 54.31 54.67 46.81 49.8 43.46 41.74 44.42 41.1767 44.472 40.6086 44.4281 40.06 44.29 39.2 44.11 37.63 44.6 37.64 42.97 37.64 41.87 38.32 41.78 39.11 41.71 41.1898 41.6353 43.2634 41.4383 45.32 41.12 50.58 40.06 54.51 34.12 53.73 28.7 53.3629 25.4231 50.8557 22.7931 47.6 22.27 43.7675 21.5266 39.7976 22.0277 36.27 23.7 35.3277 24.2153 34.4252 24.8003 33.57 25.45 35.38 26.16 36.57 27.07 36.95 28.88 37.5365 31.1356 36.1835 33.4397 33.9279 34.0262 33.7738 34.0663 33.6176 34.0976 33.46 34.12 31.2113 34.4296 29.1374 32.8577 28.8278 30.609 28.8055 30.4469 28.7929 30.2836 28.79 30.12 28.6314 27.2717 29.9121 24.5338 32.2 22.83 35.2 20.4 38.76 19.55 42.46 19.21 46.926 18.6929 51.4456 19.496 55.46 21.52 62.52 25.21 63.57 33 57.59 38.43 55.67 40.18 53.26 41.43 51.21 42.75 52.36 43.18 53.84 43.63 55.21 44.29 59.21 46.16 62.5 48.76 63.64 53.37 64.64 57.56 63.26 61.13 60.48 64.16 56.61 68.38 51.59 69.99 46.15 70.3 41.9222 70.6238 37.675 70.0127 33.71 68.51 30.41 67.2 27.53 65.31 26.59 61.51 26.2751 60.1746 26.2445 58.788 26.5 57.44 27.0351 55.48 28.9219 54.2051 30.94 54.44 32.9133 54.5267 34.5845 55.9234 35.02 57.85 35.6045 59.9408 34.634 62.1537 32.7 63.14 32.35 63.3 31.99 63.43 31.64 63.58Z"/><path d="M125.86 66.63 159.51 66.63 159.51 100.28 125.86 100.28 125.86 66.63Z" fill="#0000F2"/><path d="M165.45 66.63 199.1 66.63 199.1 100.28 165.45 100.28 165.45 66.63Z" fill="#EE0000"/><path d="M205.04 66.63 238.69 66.63 238.69 100.28 205.04 100.28 205.04 66.63Z" fill="#0000F2"/><path d="M125.86 106.22 159.51 106.22 159.51 139.87 125.86 139.87 125.86 106.22Z" fill="#0000F2"/><path d="M165.45 106.22 199.1 106.22 199.1 139.87 165.45 139.87 165.45 106.22Z" fill="#EE0000"/><path d="M205.04 106.22 238.69 106.22 238.69 139.87 205.04 139.87 205.04 106.22Z" fill="#0000F2"/><path d="M182.29 20.5C180.29 22.91 176.78 27.8 179.52 30.6 180.246 31.3361 181.236 31.7503 182.27 31.75L182.27 31.75C183.313 31.7517 184.313 31.3378 185.05 30.6 187.73 27.93 184.32 22.91 182.29 20.5Z" stroke="#000000" stroke-miterlimit="10" fill="#FEFE00"/><path d="M186.8 34.75 177.75 34.75C176.573 34.8458 175.687 35.861 175.75 37.04L175.75 43.92C175.742 44.6726 176.091 45.3846 176.69 45.84 177.009 46.0756 177.394 46.2051 177.79 46.21 178.967 46.1142 179.853 45.099 179.79 43.92L179.79 42.78C179.624 41.5318 180.501 40.3851 181.749 40.2187 182.997 40.0522 184.144 40.9292 184.31 42.1773 184.337 42.3773 184.337 42.58 184.31 42.78L184.31 47.48C184.253 48.7948 185.257 49.9142 186.57 50 187.055 49.9986 187.525 49.8289 187.9 49.52 188.503 49.0068 188.848 48.2521 188.84 47.46L188.84 37C188.88 35.8218 187.977 34.825 186.8 34.75Z" fill="#EE0000"/><path d="M184.31 42.78C184.476 41.5318 183.599 40.3851 182.351 40.2187 181.103 40.0522 179.956 40.9292 179.79 42.1773 179.763 42.3773 179.763 42.58 179.79 42.78L179.79 43.92C179.853 45.099 178.967 46.1142 177.79 46.21 177.394 46.2051 177.009 46.0756 176.69 45.84L176.69 66.63 187.9 66.63 187.9 49.54C187.525 49.8489 187.055 50.0186 186.57 50.02 185.249 49.9342 184.242 48.8024 184.31 47.48L184.31 42.78Z" fill="#FF6666"/><path d="M221.88 20.5C219.88 22.91 216.37 27.8 219.11 30.6 219.836 31.3361 220.826 31.7503 221.86 31.75L221.86 31.75C222.906 31.7532 223.91 31.3393 224.65 30.6 227.32 27.93 223.91 22.91 221.88 20.5Z" stroke="#000000" stroke-miterlimit="10" fill="#FEFE00"/><path d="M226.39 34.75 217.39 34.75C216.213 34.8458 215.327 35.861 215.39 37.04L215.39 43.92C215.382 44.6726 215.731 45.3846 216.33 45.84 216.649 46.0756 217.034 46.2051 217.43 46.21 218.607 46.1142 219.493 45.099 219.43 43.92L219.43 42.78C219.264 41.5318 220.141 40.3851 221.389 40.2187 222.637 40.0522 223.784 40.9292 223.95 42.1773 223.977 42.3773 223.977 42.58 223.95 42.78L223.95 47.48C223.892 48.7803 224.873 49.8937 226.17 50 226.652 49.9963 227.118 49.8268 227.49 49.52 228.093 49.0068 228.438 48.2521 228.43 47.46L228.43 37C228.47 35.8218 227.567 34.825 226.39 34.75Z" fill="#EE0000"/><path d="M223.9 42.78C224.066 41.5318 223.189 40.3851 221.941 40.2187 220.693 40.0522 219.546 40.9292 219.38 42.1773 219.353 42.3773 219.353 42.58 219.38 42.78L219.38 43.92C219.443 45.099 218.557 46.1142 217.38 46.21 216.984 46.2051 216.599 46.0756 216.28 45.84L216.28 66.63 227.53 66.63 227.53 49.54C227.158 49.8468 226.692 50.0163 226.21 50.02 224.885 49.9395 223.872 48.806 223.94 47.48L223.94 42.78Z" fill="#FF6666"/><text fill="#393939" font-family="Orbitron-Bold,Orbitron" font-weight="700" font-size="32.15" transform="matrix(0.97 0 0 1 0 184.91)">Happy R<tspan letter-spacing="-0.02em" x="150.83" y="0">o</tspan><tspan letter-spacing="-0.02em" x="172.34" y="0">o</tspan><tspan letter-spacing="0em" x="193.78" y="0">tday</tspan></text></g></g></svg>