<svg version="1.1" width="128" height="128" viewBox="-0.9 -0.9 1.8 1.8" xmlns="http://www.w3.org/2000/svg" xmlns:xlink="http://www.w3.org/1999/xlink" overflow="hidden"><g stroke-width="0.1" stroke-linejoin="round" opacity="1"><path d=" M -0.522222 -0.522222 L 0.522222 -0.522222 L 0.522222 0.522222 L -0.522222 0.522222 Z" stroke="#FFFFFF" fill="#FFFFFF"/></g><g stroke-width="0" stroke-linejoin="round" stroke-opacity="0.5" opacity="1"><path d=" M -0.543651 -0.543651 L -0.40873 -0.543651 L -0.40873 -0.40873 L -0.543651 -0.40873 Z" stroke="#FFFFFF" fill="#EE0000"/><path d=" M -0.384921 -0.543651 L -0.25 -0.543651 L -0.25 -0.40873 L -0.384921 -0.40873 Z" stroke="#FFFFFF" fill="#EE0000"/><path d=" M -0.22619 -0.543651 L -0.0912698 -0.543651 L -0.0912698 -0.40873 L -0.22619 -0.40873 Z" stroke="#FFFFFF" fill="#EE0000"/><path d=" M -0.0674603 -0.543651 L 0.0674603 -0.543651 L 0.0674603 -0.40873 L -0.0674603 -0.40873 Z" stroke="#FFFFFF" fill="#EE0000"/><path d=" M 0.0912698 -0.543651 L 0.22619 -0.543651 L 0.22619 -0.40873 L 0.0912698 -0.40873 Z" stroke="#FFFFFF" fill="#EE0000"/><path d=" M 0.25 -0.543651 L 0.384921 -0.543651 L 0.384921 -0.40873 L 0.25 -0.40873 Z" stroke="#FFFFFF" fill="#EE0000"/><path d=" M 0.40873 -0.543651 L 0.543651 -0.543651 L 0.543651 -0.40873 L 0.40873 -0.40873 Z" stroke="#FFFFFF" fill="#EE0000"/><path d=" M -0.543651 -0.384921 L -0.40873 -0.384921 L -0.40873 -0.25 L -0.543651 -0.25 Z" stroke="#FFFFFF" fill="#EE0000"/><path d=" M -0.384921 -0.384921 L -0.25 -0.384921 L -0.25 -0.25 L -0.384921 -0.25 Z" stroke="#FFFFFF" fill="#EE0000"/><path d=" M -0.22619 -0.384921 L -0.0912698 -0.384921 L -0.0912698 -0.25 L -0.22619 -0.25 Z" stroke="#FFFFFF" fill="#EE0000"/><path d=" M -0.0674603 -0.384921 L 0.0674603 -0.384921 L 0.0674603 -0.25 L -0.0674603 -0.25 Z" stroke="#FFFFFF" fill="#EE0000"/><path d=" M 0.0912698 -0.384921 L 0.22619 -0.384921 L 0.22619 -0.25 L 0.0912698 -0.25 Z" stroke="#FFFFFF" fill="#EE0000"/><path d=" M 0.25 -0.384921 L 0.384921 -0.384921 L 0.384921 -0.25 L 0.25 -0.25 Z" stroke="#FFFFFF" fill="#EE0000"/><path d=" M 0.40873 -0.384921 L 0.543651 -0.384921 L 0.543651 -0.25 L 0.40873 -0.25 Z" stroke="#FFFFFF" fill="#EE0000"/><path d=" M -0.543651 -0.22619 L -0.40873 -0.22619 L -0.40873 -0.0912698 L -0.543651 -0.0912698 Z" stroke="#FFFFFF" fill="#0000F2"/><path d=" M -0.384921 -0.22619 L -0.25 -0.22619 L -0.25 -0.0912698 L -0.384921 -0.0912698 Z" stroke="#FFFFFF" fill="#0000F2"/><path d=" M -0.22619 -0.22619 L -0.0912698 -0.22619 L -0.0912698 -0.0912698 L -0.22619 -0.0912698 Z" stroke="#FFFFFF" fill="#EE0000"/><path d=" M -0.0674603 -0.22619 L 0.0674603 -0.22619 L 0.0674603 -0.0912698 L -0.0674603 -0.0912698 Z" stroke="#FFFFFF" fill="#EE0000"/><path d=" M 0.0912698 -0.22619 L 0.22619 -0.22619 L 0.22619 -0.0912698 L 0.0912698 -0.0912698 Z" stroke="#FFFFFF" fill="#EE0000"/><path d=" M 0.25 -0.22619 L 0.384921 -0.22619 L 0.384921 -0.0912698 L 0.25 -0.0912698 Z" stroke="#FFFFFF" fill="#0000F2"/><path d=" M 0.40873 -0.22619 L 0.543651 -0.22619 L 0.543651 -0.0912698 L 0.40873 -0.0912698 Z" stroke="#FFFFFF" fill="#0000F2"/><path d=" M -0.543651 -0.0674603 L -0.40873 -0.0674603 L -0.40873 0.0674603 L -0.543651 0.0674603 Z" stroke="#FFFFFF" fill="#0000F2"/><path d=" M -0.384921 -0.0674603 L -0.25 -0.0674603 L -0.25 0.0674603 L -0.384921 0.0674603 Z" stroke="#FFFFFF" fill="#0000F2"/><path d=" M -0.22619 -0.0674603 L -0.0912698 -0.0674603 L -0.0912698 0.0674603 L -0.22619 0.0674603 Z" stroke="#FFFFFF" fill="#EE0000"/><path d=" M -0.0674603 -0.0674603 L 0.0674603 -0.0674603 L 0.0674603 0.0674603 L -0.0674603 0.0674603 Z" stroke="#FFFFFF" fill="#EE0000"/><path d=" M 0.0912698 -0.0674603 L 0.22619 -0.0674603 L 0.22619 0.0674603 L 0.0912698 0.0674603 Z" stroke="#FFFFFF" fill="#EE0000"/><path d=" M 0.25 -0.0674603 L 0.384921 -0.0674603 L 0.384921 0.0674603 L 0.25 0.0674603 Z" stroke="#FFFFFF" fill="#0000F2"/><path d=" M 0.40873 -0.0674603 L 0.543651 -0.0674603 L 0.543651 0.0674603 L 0.40873 0.0674603 Z" stroke="#FFFFFF" fill="#0000F2"/><path d=" M -0.543651 0.0912698 L -0.40873 0.0912698 L -0.40873 0.22619 L -0.543651 0.22619 Z" stroke="#FFFFFF" fill="#0000F2"/><path d=" M -0.384921 0.0912698 L -0.25 0.0912698 L -0.25 0.22619 L -0.384921 0.22619 Z" stroke="#FFFFFF" fill="#0000F2"/><path d=" M -0.22619 0.0912698 L -0.0912698 0.0912698 L -0.0912698 0.22619 L -0.22619 0.22619 Z" stroke="#FFFFFF" fill="#EE0000"/><path d=" M -0.0674603 0.0912698 L 0.0674603 0.0912698 L 0.0674603 0.22619 L -0.0674603 0.22619 Z" stroke="#FFFFFF" fill="#EE0000"/><path d=" M 0.0912698 0.0912698 L 0.22619 0.0912698 L 0.22619 0.22619 L 0.0912698 0.22619 Z" stroke="#FFFFFF" fill="#EE0000"/><path d=" M 0.25 0.0912698 L 0.384921 0.0912698 L 0.384921 0.22619 L 0.25 0.22619 Z" stroke="#FFFFFF" fill="#0000F2"/><path d=" M 0.40873 0.0912698 L 0.543651 0.0912698 L 0.543651 0.22619 L 0.40873 0.22619 Z" stroke="#FFFFFF" fill="#0000F2"/><path d=" M -0.543651 0.25 L -0.40873 0.25 L -0.40873 0.384921 L -0.543651 0.384921 Z" stroke="#FFFFFF" fill="#0000F2"/><path d=" M -0.384921 0.25 L -0.25 0.25 L -0.25 0.384921 L -0.384921 0.384921 Z" stroke="#FFFFFF" fill="#0000F2"/><path d=" M -0.22619 0.25 L -0.0912698 0.25 L -0.0912698 0.384921 L -0.22619 0.384921 Z" stroke="#FFFFFF" fill="#EE0000"/><path d=" M -0.0674603 0.25 L 0.0674603 0.25 L 0.0674603 0.384921 L -0.0674603 0.384921 Z" stroke="#FFFFFF" fill="#EE0000"/><path d=" M 0.0912698 0.25 L 0.22619 0.25 L 0.22619 0.384921 L 0.0912698 0.384921 Z" stroke="#FFFFFF" fill="#EE0000"/><path d=" M 0.25 0.25 L 0.384921 0.25 L 0.384921 0.384921 L 0.25 0.384921 Z" stroke="#FFFFFF" fill="#0000F2"/><path d=" M 0.40873 0.25 L 0.543651 0.25 L 0.543651 0.384921 L 0.40873 0.384921 Z" stroke="#FFFFFF" fill="#0000F2"/><path d=" M -0.543651 0.40873 L -0.40873 0.40873 L -0.40873 0.543651 L -0.543651 0.543651 Z" stroke="#FFFFFF" fill="#0000F2"/><path d=" M -0.384921 0.40873 L -0.25 0.40873 L -0.25 0.543651 L -0.384921 0.543651 Z" stroke="#FFFFFF" fill="#0000F2"/><path d=" M -0.22619 0.40873 L -0.0912698 0.40873 L -0.0912698 0.543651 L -0.22619 0.543651 Z" stroke="#FFFFFF" fill="#EE0000"/><path d=" M -0.0674603 0.40873 L 0.0674603 0.40873 L 0.0674603 0.543651 L -0.0674603 0.543651 Z" stroke="#FFFFFF" fill="#EE0000"/><path d=" M 0.0912698 0.40873 L 0.22619 0.40873 L 0.22619 0.543651 L 0.0912698 0.543651 Z" stroke="#FFFFFF" fill="#EE0000"/><path d=" M 0.25 0.40873 L 0.384921 0.40873 L 0.384921 0.543651 L 0.25 0.543651 Z" stroke="#FFFFFF" fill="#0000F2"/><path d=" M 0.40873 0.40873 L 0.543651 0.40873 L 0.543651 0.543651 L 0.40873 0.543651 Z" stroke="#FFFFFF" fill="#0000F2"/></g></svg>