<svg viewBox="0 0 405 200" xmlns="http://www.w3.org/2000/svg" xmlns:xlink="http://www.w3.org/1999/xlink" id="svg" overflow="hidden"><g id="svgg" stroke-linejoin="round"><line x1="124.785" y1="10" x2="75.2147" y2="195" stroke="#111111" stroke-width="1"/><line x1="324.785" y1="10" x2="275.215" y2="195" stroke="#111111" stroke-width="1"/><path d="M100 100 118.756 30 170 30 170 81.2436Z" id="B8" stroke="#000000" stroke-width="4" fill="#D3D3D3"/><path d="M100 100 170 81.2436 195.622 125.622 151.244 151.244Z" id="B7" stroke="#000000" stroke-width="4" fill="#D3D3D3"/><path d="M100 100 151.244 151.244 125.622 195.622 81.2436 170Z" id="B6" stroke="#000000" stroke-width="4" fill="#D3D3D3"/><path d="M100 100 81.2436 170 30 170 30 118.756Z" id="B5" stroke="#000000" stroke-width="4" fill="#D3D3D3"/><path d="M100 100 30 118.756 4.37822 74.3782 48.7564 48.7564Z" id="B4" stroke="#000000" stroke-width="4" fill="#D3D3D3"/><path d="M100 100 48.7564 48.7564 74.3782 4.37822 118.756 30Z" id="B3" stroke="#000000" stroke-width="4" fill="#D3D3D3"/><path d="M300 100 318.756 30 351.244 48.7564Z" id="A8" stroke="#000000" stroke-width="4" fill="#D3D3D3"/><path d="M300 100 351.244 48.7564 370 81.2436Z" id="A7" stroke="#000000" stroke-width="4" fill="#D3D3D3"/><path d="M300 100 370 81.2436 370 118.756Z" id="A6" stroke="#000000" stroke-width="4" fill="#D3D3D3"/><path d="M300 100 370 118.756 370 170 318.756 170Z" id="B2" stroke="#000000" stroke-width="4" fill="#D3D3D3"/><path d="M300 100 318.756 170 281.244 170Z" id="A5" stroke="#000000" stroke-width="4" fill="#D3D3D3"/><path d="M300 100 281.244 170 230 170 230 118.756Z" id="B1" stroke="#000000" stroke-width="4" fill="#D3D3D3"/><path d="M300 100 230 118.756 230 81.2436Z" id="A4" stroke="#000000" stroke-width="4" fill="#D3D3D3"/><path d="M300 100 230 81.2436 248.756 48.7564Z" id="A3" stroke="#000000" stroke-width="4" fill="#D3D3D3"/><path d="M300 100 248.756 48.7564 281.244 30Z" id="A2" stroke="#000000" stroke-width="4" fill="#D3D3D3"/><path d="M300 100 281.244 30 318.756 30Z" id="A1" stroke="#000000" stroke-width="4" fill="#D3D3D3"/></g></svg>