<svg width="150" height="150" viewBox="-0.9 -0.9 1.8 1.8" xmlns="http://www.w3.org/2000/svg" xmlns:xlink="http://www.w3.org/1999/xlink" overflow="hidden"><g stroke-width="0.1" stroke-linejoin="round" opacity="1"><path d="M-0.547073 0.0674305 0.547073 0.0674305 0.464277 0.654089-0.464277 0.654089Z" stroke="#000000" fill="#000000"/><path d="M-0.475865-0.670414 0.475865-0.670414 0.547073 0.0674305-0.547073 0.0674305Z" stroke="#000000" fill="#000000"/></g><g stroke-width="0" stroke-linejoin="round" stroke-opacity="0.5" opacity="1"><path d="M-0.566603 0.0806618-0.401705 0.0806618-0.392186 0.181837-0.552324 0.181837Z" stroke="#000000" fill="#404040"/><path d="M-0.373026 0.0806618-0.208128 0.0806618-0.203368 0.181837-0.363506 0.181837Z" stroke="#000000" fill="#0000F2"/><path d="M-0.179448 0.0806618-0.0145498 0.0806618-0.0145498 0.181837-0.174688 0.181837Z" stroke="#000000" fill="#404040"/><path d="M0.0141299 0.0806618 0.179028 0.0806618 0.174268 0.181837 0.0141299 0.181837Z" stroke="#000000" fill="#EE0000"/><path d="M0.207708 0.0806618 0.372606 0.0806618 0.363086 0.181837 0.202948 0.181837Z" stroke="#000000" fill="#0000F2"/><path d="M0.401285 0.0806618 0.566183 0.0806618 0.551904 0.181837 0.391766 0.181837Z" stroke="#000000" fill="#404040"/><path d="M-0.550272 0.19919-0.390133 0.19919-0.381148 0.294688-0.536794 0.294688Z" stroke="#000000" fill="#404040"/><path d="M-0.36227 0.19919-0.202132 0.19919-0.197639 0.294688-0.353285 0.294688Z" stroke="#000000" fill="#404040"/><path d="M-0.174268 0.19919-0.0141299 0.19919-0.0141299 0.294688-0.169776 0.294688Z" stroke="#000000" fill="#404040"/><path d="M0.0137335 0.19919 0.173872 0.19919 0.169379 0.294688 0.0137335 0.294688Z" stroke="#000000" fill="#404040"/><path d="M0.201735 0.19919 0.361874 0.19919 0.352888 0.294688 0.197243 0.294688Z" stroke="#000000" fill="#404040"/><path d="M0.389737 0.19919 0.549875 0.19919 0.536397 0.294688 0.380752 0.294688Z" stroke="#000000" fill="#404040"/><path d="M-0.534855 0.311081-0.379209 0.311081-0.370714 0.401367-0.522113 0.401367Z" stroke="#000000" fill="#404040"/><path d="M-0.352117 0.311081-0.196471 0.311081-0.192224 0.401367-0.343622 0.401367Z" stroke="#000000" fill="#404040"/><path d="M-0.169379 0.311081-0.0137335 0.311081-0.0137335 0.401367-0.165132 0.401367Z" stroke="#000000" fill="#404040"/><path d="M0.0133587 0.311081 0.169004 0.311081 0.164757 0.401367 0.0133587 0.401367Z" stroke="#000000" fill="#404040"/><path d="M0.196097 0.311081 0.351742 0.311081 0.343248 0.401367 0.191849 0.401367Z" stroke="#000000" fill="#404040"/><path d="M0.378834 0.311081 0.53448 0.311081 0.521738 0.401367 0.37034 0.401367Z" stroke="#000000" fill="#404040"/><path d="M-0.520279 0.416877-0.36888 0.416877-0.360837 0.502366-0.508214 0.502366Z" stroke="#000000" fill="#404040"/><path d="M-0.342518 0.416877-0.19112 0.416877-0.187098 0.502366-0.334474 0.502366Z" stroke="#000000" fill="#404040"/><path d="M-0.164757 0.416877-0.0133587 0.416877-0.0133587 0.502366-0.160735 0.502366Z" stroke="#000000" fill="#404040"/><path d="M0.0130038 0.416877 0.164402 0.416877 0.16038 0.502366 0.0130038 0.502366Z" stroke="#000000" fill="#404040"/><path d="M0.190765 0.416877 0.342163 0.416877 0.33412 0.502366 0.186743 0.502366Z" stroke="#000000" fill="#404040"/><path d="M0.368526 0.416877 0.519924 0.416877 0.507859 0.502366 0.360482 0.502366Z" stroke="#000000" fill="#404040"/><path d="M-0.506476 0.517062-0.359099 0.517062-0.351472 0.598127-0.495035 0.598127Z" stroke="#000000" fill="#404040"/><path d="M-0.333428 0.517062-0.186052 0.517062-0.182238 0.598127-0.325801 0.598127Z" stroke="#000000" fill="#404040"/><path d="M-0.16038 0.517062-0.0130038 0.517062-0.0130038 0.598127-0.156567 0.598127Z" stroke="#000000" fill="#404040"/><path d="M0.0126673 0.517062 0.160044 0.517062 0.15623 0.598127 0.0126673 0.598127Z" stroke="#000000" fill="#404040"/><path d="M0.185715 0.517062 0.333092 0.517062 0.325464 0.598127 0.181901 0.598127Z" stroke="#000000" fill="#404040"/><path d="M0.358763 0.517062 0.506139 0.517062 0.494699 0.598127 0.351136 0.598127Z" stroke="#000000" fill="#404040"/><path d="M-0.493387 0.612072-0.349824 0.612072-0.342581 0.689047-0.482523 0.689047Z" stroke="#000000" fill="#404040"/><path d="M-0.324808 0.612072-0.181245 0.612072-0.177624 0.689047-0.317566 0.689047Z" stroke="#000000" fill="#404040"/><path d="M-0.15623 0.612072-0.0126673 0.612072-0.0126673 0.689047-0.152609 0.689047Z" stroke="#000000" fill="#404040"/><path d="M0.0123478 0.612072 0.155911 0.612072 0.15229 0.689047 0.0123478 0.689047Z" stroke="#000000" fill="#404040"/><path d="M0.180926 0.612072 0.324489 0.612072 0.317246 0.689047 0.177305 0.689047Z" stroke="#000000" fill="#404040"/><path d="M0.349504 0.612072 0.493067 0.612072 0.482203 0.689047 0.342262 0.689047Z" stroke="#000000" fill="#404040"/><path d="M-0.494145-0.704483-0.35071-0.704483-0.357072-0.605612-0.503687-0.605612Z" stroke="#000000" fill="#404040"/><path d="M-0.325118-0.704483-0.181683-0.704483-0.184864-0.605612-0.331479-0.605612Z" stroke="#000000" fill="#404040"/><path d="M-0.156091-0.704483-0.012656-0.704483-0.012656-0.605612-0.159271-0.605612Z" stroke="#000000" fill="#404040"/><path d="M0.0129366-0.704483 0.156371-0.704483 0.159552-0.605612 0.0129366-0.605612Z" stroke="#000000" fill="#0000F2"/><path d="M0.181964-0.704483 0.325398-0.704483 0.33176-0.605612 0.185144-0.605612Z" stroke="#000000" fill="#404040"/><path d="M0.350991-0.704483 0.494426-0.704483 0.503968-0.605612 0.357352-0.605612Z" stroke="#000000" fill="#404040"/><path d="M-0.505116-0.587768-0.3585-0.587768-0.36515-0.484413-0.51509-0.484413Z" stroke="#000000" fill="#404040"/><path d="M-0.332334-0.587768-0.185718-0.587768-0.189043-0.484413-0.338983-0.484413Z" stroke="#000000" fill="#404040"/><path d="M-0.159552-0.587768-0.0129366-0.587768-0.0129366-0.484413-0.162877-0.484413Z" stroke="#000000" fill="#404040"/><path d="M0.01323-0.587768 0.159845-0.587768 0.16317-0.484413 0.01323-0.484413Z" stroke="#000000" fill="#404040"/><path d="M0.186012-0.587768 0.332627-0.587768 0.339277-0.484413 0.189337-0.484413Z" stroke="#000000" fill="#404040"/><path d="M0.358794-0.587768 0.505409-0.587768 0.515384-0.484413 0.365443-0.484413Z" stroke="#000000" fill="#404040"/><path d="M-0.516584-0.465751-0.366644-0.465751-0.373603-0.357599-0.527022-0.357599Z" stroke="#000000" fill="#404040"/><path d="M-0.339877-0.465751-0.189937-0.465751-0.193416-0.357599-0.346836-0.357599Z" stroke="#000000" fill="#404040"/><path d="M-0.16317-0.465751-0.01323-0.465751-0.01323-0.357599-0.166649-0.357599Z" stroke="#000000" fill="#404040"/><path d="M0.013537-0.465751 0.163477-0.465751 0.166956-0.357599 0.013537-0.357599Z" stroke="#000000" fill="#404040"/><path d="M0.190244-0.465751 0.340184-0.465751 0.347143-0.357599 0.193723-0.357599Z" stroke="#000000" fill="#404040"/><path d="M0.366951-0.465751 0.516891-0.465751 0.527329-0.357599 0.37391-0.357599Z" stroke="#000000" fill="#404040"/><path d="M-0.528586-0.33806-0.375167-0.33806-0.382456-0.22477-0.539519-0.22477Z" stroke="#000000" fill="#404040"/><path d="M-0.347771-0.33806-0.194352-0.33806-0.197996-0.22477-0.35506-0.22477Z" stroke="#000000" fill="#404040"/><path d="M-0.166956-0.33806-0.013537-0.33806-0.013537-0.22477-0.170601-0.22477Z" stroke="#000000" fill="#404040"/><path d="M0.0138586-0.33806 0.167278-0.33806 0.170922-0.22477 0.0138586-0.22477Z" stroke="#000000" fill="#404040"/><path d="M0.194673-0.33806 0.348093-0.33806 0.355382-0.22477 0.198318-0.22477Z" stroke="#000000" fill="#404040"/><path d="M0.375488-0.33806 0.528907-0.33806 0.539841-0.22477 0.382777-0.22477Z" stroke="#000000" fill="#404040"/><path d="M-0.541158-0.204292-0.384095-0.204292-0.391738-0.0854882-0.552624-0.0854882Z" stroke="#000000" fill="#404040"/><path d="M-0.35604-0.204292-0.198977-0.204292-0.202798-0.0854882-0.363684-0.0854882Z" stroke="#000000" fill="#404040"/><path d="M-0.170922-0.204292-0.0138586-0.204292-0.0138586-0.0854882-0.174744-0.0854882Z" stroke="#000000" fill="#404040"/><path d="M0.0141958-0.204292 0.17126-0.204292 0.175081-0.0854882 0.0141958-0.0854882Z" stroke="#000000" fill="#404040"/><path d="M0.199314-0.204292 0.356378-0.204292 0.364021-0.0854882 0.203136-0.0854882Z" stroke="#000000" fill="#404040"/><path d="M0.384432-0.204292 0.541496-0.204292 0.552961-0.0854882 0.392076-0.0854882Z" stroke="#000000" fill="#404040"/><path d="M-0.554344-0.0640001-0.393458-0.0640001-0.401483 0.0607291-0.566381 0.0607291Z" stroke="#000000" fill="#404040"/><path d="M-0.364713-0.0640001-0.203827-0.0640001-0.207839 0.0607291-0.372737 0.0607291Z" stroke="#000000" fill="#EE0000"/><path d="M-0.175081-0.0640001-0.0141958-0.0640001-0.0141958 0.0607291-0.179094 0.0607291Z" stroke="#000000" fill="#404040"/><path d="M0.0145498-0.0640001 0.175435-0.0640001 0.179448 0.0607291 0.0145498 0.0607291Z" stroke="#000000" fill="#0000F2"/><path d="M0.204181-0.0640001 0.365067-0.0640001 0.373091 0.0607291 0.208193 0.0607291Z" stroke="#000000" fill="#EE0000"/><path d="M0.393812-0.0640001 0.554698-0.0640001 0.566735 0.0607291 0.401837 0.0607291Z" stroke="#000000" fill="#404040"/></g></svg>