<svg viewBox="0 0 165.66 144.11" xmlns="http://www.w3.org/2000/svg" xmlns:xlink="http://www.w3.org/1999/xlink" id="_图层_1" overflow="hidden"><defs></defs><path d="M164.14 142.61 82.83 142.37 123.55 119.02 164.14 142.61Z" stroke-width="0" fill="#FF0000"/><path d="M123.68 72.06 164.13 142.59 123.57 119.01 123.54 118.99 123.67 72.06 123.68 72.06Z" stroke-width="0" fill="#0000FF"/><path d="M123.55 119.02 82.83 142.37 42.25 118.78 42.26 118.77 123.54 119.01 123.55 119.02Z" stroke-width="0" fill="#0000FF"/><path d="M123.67 72.05 123.67 72.06 123.54 118.99 123.53 118.99 83.12 48.53 83.12 48.48 123.67 72.05Z" stroke-width="0" fill="#FF0000"/><path d="M83.26 1.57 123.67 72.05 83.12 48.48 83.12 48.46 83.26 1.57Z" stroke-width="0" fill="#FFFF00"/><path d="M123.54 119.01 42.26 118.77 82.97 95.43 123.54 119.01Z" stroke-width="0" fill="#404040"/><path d="M83.12 48.53 123.53 118.99 82.99 95.42 83.12 48.53Z" stroke-width="0" fill="#404040"/><path d="M82.83 142.37 1.52 142.13 42.25 118.78 82.83 142.37Z" stroke-width="0" fill="#404040"/><path d="M83.08 48.53 82.95 95.42 42.27 118.75 83.08 48.53Z" stroke-width="0" fill="#404040"/><path d="M83.08 48.48 83.08 48.53 42.27 118.75 42.26 118.75 42.39 71.82 42.39 71.81 83.08 48.48Z" stroke-width="0" fill="#404040"/><path d="M83.08 48.46 83.08 48.48 42.39 71.81 83.22 1.57 83.08 48.46Z" stroke-width="0" fill="#404040"/><path d="M42.39 71.94 42.39 118.87 42.36 118.89 1.73 142.35 42.38 71.94 42.39 71.94Z" stroke-width="0" fill="#404040"/><path d="M1.83 141.66 1.85 141.65 28.88 126.25 28.9 126.23 55.92 110.83 55.94 110.81 55.95 110.81 82.95 95.42 82.97 95.41" stroke="#000000" stroke-width="3" stroke-linecap="round" stroke-miterlimit="10" fill="none"/><path d="M164.13 142.59 123.57 119.01 123.54 118.99 123.53 118.99 82.99 95.42 82.97 95.41" stroke="#000000" stroke-width="3" stroke-linecap="round" stroke-miterlimit="10" fill="none"/><path d="M42.23 118.77 42.26 118.77 123.54 119.01 123.57 119.01" stroke="#000000" stroke-width="3" stroke-linecap="round" stroke-miterlimit="10" fill="none"/><path d="M1.5 142.13 1.52 142.13 82.83 142.37 164.14 142.61 164.16 142.61" stroke="#000000" stroke-width="3" stroke-linecap="round" stroke-miterlimit="10" fill="none"/><path d="M84.37 141.83 103.97 130.42 123.56 119.01 123.57 119.01" stroke="#000000" stroke-width="3" stroke-linecap="round" stroke-miterlimit="10" fill="none"/><path d="M84.37 141.83 63.3 130.3 42.24 118.78 42.23 118.77" stroke="#000000" stroke-width="3" stroke-linecap="round" stroke-miterlimit="10" fill="none"/><path d="M83.12 48.46 83.11 48.48 83.1 48.49 83.08 48.53 42.27 118.75 42.26 118.77" stroke="#000000" stroke-width="3" stroke-linecap="round" stroke-miterlimit="10" fill="none"/><path d="M42.38 71.94 1.73 142.35 1.72 142.37" stroke="#000000" stroke-width="3" stroke-linecap="round" stroke-miterlimit="10" fill="#00FF00"/><path d="M83.26 1.5 83.24 1.53 83.22 1.57 42.39 71.81" stroke="#000000" stroke-width="3" stroke-linecap="round" stroke-miterlimit="10" fill="none"/><path d="M42.39 71.94 42.39 118.87 42.39 118.89" stroke="#000000" stroke-width="3" stroke-linecap="round" stroke-miterlimit="10" fill="none"/><path d="M83.22 1.9 83.22 1.95 83.13 33.07 83.13 33.09 83.13 33.12 83.04 64.25 83.04 64.26 83.04 64.29 82.95 95.42" stroke="#000000" stroke-width="3" stroke-linecap="round" stroke-miterlimit="10" fill="none"/><path d="M123.54 119.01 123.53 118.99 83.12 48.53 83.1 48.49 83.09 48.48 83.08 48.46" stroke="#000000" stroke-width="3" stroke-linecap="round" stroke-miterlimit="10" fill="none"/><path d="M123.67 72.05 83.26 1.57 83.24 1.53 83.23 1.52 83.22 1.5" stroke="#000000" stroke-width="3" stroke-linecap="round" stroke-miterlimit="10" fill="none"/><path d="M164.14 142.6 164.13 142.59 123.68 72.06" stroke="#000000" stroke-width="3" stroke-linecap="round" stroke-miterlimit="10" fill="none"/><path d="M123.67 72.05 83.12 48.48 83.11 48.48 83.1 48.47 83.08 48.46" stroke="#000000" stroke-width="3" stroke-linecap="round" stroke-miterlimit="10" fill="none"/><path d="M123.67 72.02 123.61 95.51 123.61 95.52 123.54 119 123.54 119.01" stroke="#000000" stroke-width="3" stroke-linecap="round" stroke-miterlimit="10" fill="none"/><path d="M42.09 72.15 82.78 48.82 82.79 48.82 82.8 48.81 82.82 48.8" stroke="#000000" stroke-width="3" stroke-linecap="round" stroke-miterlimit="10" fill="none"/></svg>