<svg viewBox="0 0 550.01 550.01" xmlns="http://www.w3.org/2000/svg" xmlns:xlink="http://www.w3.org/1999/xlink" overflow="hidden"><defs></defs><g id="图层_2"><g id="图层_1-2"><path d="M544.62 347.25 544.62 544.62 490.69 490.7 490.69 332.8 544.62 347.25Z" fill="#EE0000"/><path d="M544.62 5.39 544.62 202.77 490.69 217.22 490.69 59.32 544.62 5.39Z" fill="#00D800"/><path d="M544.62 5.39 490.69 59.32 332.8 59.32 347.24 5.39 544.62 5.39Z" fill="#FFA100"/><path d="M544.62 544.62 347.24 544.62 332.8 490.7 490.69 490.7 544.62 544.62Z" fill="#00D800"/><path d="M490.69 332.8 490.69 490.7 332.8 490.7 275 275.01 490.69 332.8Z" fill="#FFFFFF"/><path d="M490.69 217.22 490.69 332.8 275 275.01 490.69 217.22Z" fill="#FFFFFF"/><path d="M490.69 59.32 490.69 217.22 275 275.01 332.8 59.32 490.69 59.32Z" fill="#FFFFFF"/><path d="M332.8 59.32 275 275.01 217.21 59.32 332.8 59.32Z" fill="#FFFFFF"/><path d="M275 275.01 332.8 490.7 217.21 490.7 275 275.01Z" fill="#FFFFFF"/><path d="M217.21 59.32 275 275.01 59.31 217.22 59.31 59.32 217.21 59.32Z" fill="#FFFFFF"/><path d="M275 275.01 217.21 490.7 59.31 490.7 59.31 332.8 275 275.01Z" fill="#FFFFFF"/><path d="M275 275.01 59.31 332.8 59.31 217.22 275 275.01Z" fill="#FFFFFF"/><path d="M202.76 5.39 217.21 59.32 59.31 59.32 5.39 5.39 202.76 5.39Z" fill="#FFA100"/><path d="M217.21 490.7 202.76 544.62 5.39 544.62 59.31 490.7 217.21 490.7Z" fill="#0000F2"/><path d="M59.31 332.8 59.31 490.7 5.39 544.62 5.39 347.25 59.31 332.8Z" fill="#EE0000"/><path d="M59.31 59.32 59.31 217.22 5.39 202.77 5.39 5.39 59.31 59.32Z" fill="#0000F2"/><path d="M5.39 544.62 202.76 544.62 217.21 490.7 59.31 490.7" stroke="#000000" stroke-width="10.78" stroke-linejoin="round" fill="none"/><path d="M59.31 490.7 5.39 544.62 5.39 347.25 59.31 332.8 59.31 490.7Z" stroke="#000000" stroke-width="10.78" stroke-linejoin="round" fill="none"/><path d="M275 275.01 59.31 332.8 59.31 217.22" stroke="#000000" stroke-width="10.78" stroke-linejoin="round" fill="none"/><line x1="275" y1="275.01" x2="59.31" y2="217.22" stroke="#000000" stroke-width="10.78" stroke-linejoin="round" fill="none"/><path d="M5.39 5.39 5.39 202.77 59.31 217.22 59.31 59.32" stroke="#000000" stroke-width="10.78" stroke-linejoin="round" fill="none"/><path d="M59.31 59.32 5.39 5.39 202.76 5.39 217.21 59.32 59.31 59.32Z" stroke="#000000" stroke-width="10.78" stroke-linejoin="round" fill="none"/><path d="M275 275.01 217.21 59.32 332.8 59.32" stroke="#000000" stroke-width="10.78" stroke-linejoin="round" fill="none"/><line x1="275" y1="275.01" x2="332.8" y2="59.32" stroke="#000000" stroke-width="10.78" stroke-linejoin="round" fill="none"/><path d="M544.62 5.39 347.24 5.39 332.8 59.32 490.69 59.32" stroke="#000000" stroke-width="10.78" stroke-linejoin="round" fill="none"/><path d="M490.69 59.32 544.62 5.39 544.62 202.77 490.69 217.22 490.69 59.32Z" stroke="#000000" stroke-width="10.78" stroke-linejoin="round" fill="none"/><path d="M275 275.01 490.69 217.22 490.69 332.8" stroke="#000000" stroke-width="10.78" stroke-linejoin="round" fill="none"/><line x1="275" y1="275.01" x2="490.69" y2="332.8" stroke="#000000" stroke-width="10.78" stroke-linejoin="round" fill="none"/><path d="M544.62 544.62 544.62 347.25 490.69 332.8 490.69 490.7" stroke="#000000" stroke-width="10.78" stroke-linejoin="round" fill="none"/><path d="M490.69 490.7 544.62 544.62 347.24 544.62 332.8 490.7 490.69 490.7Z" stroke="#000000" stroke-width="10.78" stroke-linejoin="round" fill="none"/><path d="M275 275.01 332.8 490.7 217.21 490.7 275 275.01Z" stroke="#000000" stroke-width="10.78" stroke-linejoin="round" fill="none"/><path d="M417.67 409.44 374.85 386.27 374.85 400.97 175.16 400.97 175.16 386.26 132.33 409.44 175.16 432.61 175.16 417.91 374.85 417.91 374.85 432.62 417.67 409.44Z" fill="#808080"/></g></g></svg>