<svg viewBox="0 0 550.01 550.01" xmlns="http://www.w3.org/2000/svg" xmlns:xlink="http://www.w3.org/1999/xlink" overflow="hidden"><defs></defs><g id="图层_2"><g id="图层_1-2"><path d="M275.01 275.01 332.8 59.31 217.21 59.31 275.01 275.01Z" stroke="#000000" stroke-width="10.78" stroke-linejoin="round" fill="#FFFFFF"/><path d="M332.8 59.31 347.25 5.39 202.76 5.39 217.21 59.31 332.8 59.31Z" stroke="#000000" stroke-width="10.78" stroke-linejoin="round" fill="#FFA100"/><path d="M275.01 275.01 217.21 59.31 59.31 59.31 59.31 217.21 275.01 275.01Z" stroke="#000000" stroke-width="10.78" stroke-linejoin="round" fill="#FFFFFF"/><path d="M59.31 59.31 5.39 5.39 202.76 5.39 217.21 59.31 59.31 59.31Z" stroke="#000000" stroke-width="10.78" stroke-linejoin="round" fill="#FFA100"/><path d="M59.31 59.31 5.39 5.39 5.39 202.76 59.31 217.21 59.31 59.31Z" stroke="#000000" stroke-width="10.78" stroke-linejoin="round" fill="#0000F2"/><path d="M275.01 275.01 59.31 217.21 59.31 332.8 275.01 275.01Z" stroke="#000000" stroke-width="10.78" stroke-linejoin="round" fill="#FFFFFF"/><path d="M59.31 217.21 5.39 202.76 5.39 347.25 59.31 332.8 59.31 217.21Z" stroke="#000000" stroke-width="10.78" stroke-linejoin="round" fill="#0000F2"/><path d="M275.01 275.01 59.31 332.8 59.31 490.7 217.21 490.7 275.01 275.01Z" stroke="#000000" stroke-width="10.78" stroke-linejoin="round" fill="#FFFFFF"/><path d="M59.31 490.7 5.39 544.62 5.39 347.25 59.31 332.8 59.31 490.7Z" stroke="#000000" stroke-width="10.78" stroke-linejoin="round" fill="#0000F2"/><path d="M59.31 490.7 5.39 544.62 202.76 544.62 217.21 490.7 59.31 490.7Z" stroke="#000000" stroke-width="10.78" stroke-linejoin="round" fill="#EE0000"/><path d="M275.01 275.01 217.21 490.7 332.8 490.7 275.01 275.01Z" stroke="#000000" stroke-width="10.78" stroke-linejoin="round" fill="#FFFFFF"/><path d="M217.21 490.7 202.76 544.62 347.25 544.62 332.8 490.7 217.21 490.7Z" stroke="#000000" stroke-width="10.78" stroke-linejoin="round" fill="#EE0000"/><path d="M275.01 275.01 332.8 490.7 490.7 490.7 490.7 332.8 275.01 275.01Z" stroke="#000000" stroke-width="10.78" stroke-linejoin="round" fill="#FFFFFF"/><path d="M490.7 490.7 544.62 544.62 347.25 544.62 332.8 490.7 490.7 490.7Z" stroke="#000000" stroke-width="10.78" stroke-linejoin="round" fill="#EE0000"/><path d="M490.7 490.7 544.62 544.62 544.62 347.25 490.7 332.8 490.7 490.7Z" stroke="#000000" stroke-width="10.78" stroke-linejoin="round" fill="#00D800"/><path d="M275.01 275.01 490.7 332.8 490.7 217.21 275.01 275.01Z" stroke="#000000" stroke-width="10.78" stroke-linejoin="round" fill="#FFFFFF"/><path d="M490.7 332.8 544.62 347.25 544.62 202.76 490.7 217.21 490.7 332.8Z" stroke="#000000" stroke-width="10.78" stroke-linejoin="round" fill="#00D800"/><path d="M275.01 275.01 490.7 217.21 490.7 59.31 332.8 59.31 275.01 275.01Z" stroke="#000000" stroke-width="10.78" stroke-linejoin="round" fill="#FFFFFF"/><path d="M490.7 59.31 544.62 5.39 544.62 202.76 490.7 217.21 490.7 59.31Z" stroke="#000000" stroke-width="10.78" stroke-linejoin="round" fill="#00D800"/><path d="M490.7 59.31 544.62 5.39 347.25 5.39 332.8 59.31 490.7 59.31Z" stroke="#000000" stroke-width="10.78" stroke-linejoin="round" fill="#FFA100"/></g></g></svg>