<svg version="1.1" viewBox="0 0 428.65 462.61" xmlns="http://www.w3.org/2000/svg" xmlns:xlink="http://www.w3.org/1999/xlink" overflow="hidden"><defs></defs><g id="图层_2"><g id="图层_1-2"><path d=" M 221.31 83.29 L 327.87 122.88 Z" stroke="#000000" stroke-width="10" stroke-linejoin="round" fill="#FFFF00"/><path d=" M 221.31 83.29 L 327.87 122.88 Z" stroke="#000000" stroke-width="10" stroke-linecap="round" stroke-linejoin="round" fill="none"/><path d=" M 221.31 83.29 L 327.88 122.88 L 346.08 129.65 L 382.2 97.43 L 221.31 83.29 Z" stroke="#000000" stroke-width="10" stroke-linejoin="round" fill="#FFFFFF"/><path d=" M 221.31 83.29 L 327.88 122.88 L 346.08 129.65 L 382.2 97.43 L 221.31 83.29 Z" stroke="#000000" stroke-width="10" stroke-linecap="round" stroke-linejoin="round" fill="none"/><path d=" M 221.31 83.29 L 221.31 83.29 L 182.64 155.96 L 285.3 183.85 L 346.08 129.65 L 327.88 122.88 L 221.31 83.29 Z" stroke="#000000" stroke-width="10" stroke-linejoin="round" fill="#FFFFFF"/><path d=" M 221.31 83.29 L 221.31 83.29 L 182.64 155.96 L 285.3 183.85 L 346.08 129.65 L 327.88 122.88 L 221.31 83.29 Z" stroke="#000000" stroke-width="10" stroke-linecap="round" stroke-linejoin="round" fill="none"/><path d=" M 221.31 83.29 L 182.64 155.96 L 221.31 83.29 L 107.01 135.41 L 182.64 155.96 L 221.31 83.29 Z" stroke="#000000" stroke-width="10" stroke-linejoin="round" fill="#FFFFFF"/><path d=" M 221.31 83.29 L 182.64 155.96 L 221.31 83.29 L 107.01 135.41 L 182.64 155.96 L 221.31 83.29 Z" stroke="#000000" stroke-width="10" stroke-linecap="round" stroke-linejoin="round" fill="none"/><path d=" M 221.31 83.29 L 221.31 83.29 L 66.61 69.69 L 5 107.69 L 107.01 135.41 L 221.31 83.29 Z" stroke="#000000" stroke-width="10" stroke-linejoin="round" fill="#FFFFFF"/><path d=" M 221.31 83.29 L 221.31 83.29 L 66.61 69.69 L 5 107.69 L 107.01 135.41 L 221.31 83.29 Z" stroke="#000000" stroke-width="10" stroke-linecap="round" stroke-linejoin="round" fill="none"/><path d=" M 327.88 122.88 L 346.08 129.65 Z" stroke="#000000" stroke-width="10" stroke-linejoin="round" fill="#FFFF00"/><path d=" M 327.88 122.88 L 346.08 129.65 Z" stroke="#000000" stroke-width="10" stroke-linecap="round" stroke-linejoin="round" fill="none"/><path d=" M 382.2 97.43 L 423.64 60.46 L 320.92 37.87 L 221.31 83.29 L 382.2 97.43 Z" stroke="#000000" stroke-width="10" stroke-linejoin="round" fill="#FFFFFF"/><path d=" M 382.2 97.43 L 423.64 60.46 L 320.92 37.87 L 221.31 83.29 L 382.2 97.43 Z" stroke="#000000" stroke-width="10" stroke-linecap="round" stroke-linejoin="round" fill="none"/><path d=" M 221.31 83.29 L 320.92 37.87 L 253.38 23.02 L 221.31 83.29 Z" stroke="#000000" stroke-width="10" stroke-linejoin="round" fill="#FFFFFF"/><path d=" M 221.31 83.29 L 320.92 37.87 L 253.38 23.02 L 221.31 83.29 Z" stroke="#000000" stroke-width="10" stroke-linecap="round" stroke-linejoin="round" fill="none"/><path d=" M 221.31 83.29 L 253.38 23.02 L 221.31 83.29 L 253.38 23.02 L 171.49 5 L 111 42.31 L 221.31 83.29 Z" stroke="#000000" stroke-width="10" stroke-linejoin="round" fill="#FFFFFF"/><path d=" M 221.31 83.29 L 253.38 23.02 L 221.31 83.29 L 253.38 23.02 L 171.49 5 L 111 42.31 L 221.31 83.29 Z" stroke="#000000" stroke-width="10" stroke-linecap="round" stroke-linejoin="round" fill="none"/><path d=" M 221.31 83.29 L 111 42.31 Z" stroke="#000000" stroke-width="10" stroke-linejoin="round" fill="#FFFF00"/><path d=" M 221.31 83.29 L 111 42.31 Z" stroke="#000000" stroke-width="10" stroke-linecap="round" stroke-linejoin="round" fill="none"/><path d=" M 111.01 42.31 L 66.6 69.7 L 221.31 83.29 L 111.01 42.31 Z" stroke="#000000" stroke-width="10" stroke-linejoin="round" fill="#FFFFFF"/><path d=" M 111.01 42.31 L 66.6 69.7 L 221.31 83.29 L 111.01 42.31 Z" stroke="#000000" stroke-width="10" stroke-linecap="round" stroke-linejoin="round" fill="none"/><path d=" M 114.94 311.41 L 185.27 334.72 Z" stroke="#000000" stroke-width="10" stroke-linejoin="round" fill="#FF0000"/><path d=" M 114.94 311.41 L 185.27 334.72 Z" stroke="#000000" stroke-width="10" stroke-linecap="round" stroke-linejoin="round" fill="none"/><path d=" M 110.97 223.4 L 110.97 223.4 L 183.96 245.34 L 110.97 223.4 Z" stroke="#000000" stroke-width="10" stroke-linejoin="round" fill="#FF0000"/><path d=" M 110.97 223.4 L 110.97 223.4 L 183.96 245.34 L 110.97 223.4 Z" stroke="#000000" stroke-width="10" stroke-linecap="round" stroke-linejoin="round" fill="none"/><path d=" M 19.16 279.67 L 19.16 279.67 L 114.94 311.41 L 19.16 279.67 Z" stroke="#000000" stroke-width="10" stroke-linejoin="round" fill="#FF0000"/><path d=" M 19.16 279.67 L 19.16 279.67 L 114.94 311.41 L 19.16 279.67 Z" stroke="#000000" stroke-width="10" stroke-linecap="round" stroke-linejoin="round" fill="none"/><path d=" M 111 223.4 L 90.58 217.26 Z" stroke="#000000" stroke-width="10" stroke-linejoin="round" fill="#FF0000"/><path d=" M 111 223.4 L 90.58 217.26 Z" stroke="#000000" stroke-width="10" stroke-linecap="round" stroke-linejoin="round" fill="none"/><path d=" M 110.97 223.4 L 90.55 217.26 L 12.08 193.68 L 90.55 217.26 L 12.08 193.68 L 19.16 279.67 L 114.94 311.41 L 110.97 223.4 Z" stroke="#000000" stroke-width="10" stroke-linejoin="round" fill="#EE0000"/><path d=" M 110.97 223.4 L 90.55 217.26 L 12.08 193.68 L 90.55 217.26 L 12.08 193.68 L 19.16 279.67 L 114.94 311.41 L 110.97 223.4 Z" stroke="#000000" stroke-width="10" stroke-linecap="round" stroke-linejoin="round" fill="none"/><path d=" M 114.93 311.41 L 110.93 223.41 Z" stroke="#000000" stroke-width="10" stroke-linejoin="round" fill="#FF0000"/><path d=" M 114.94 311.41 L 114.94 311.41 L 110.97 223.4 L 114.94 311.41 Z" stroke="#000000" stroke-width="10" stroke-linecap="round" stroke-linejoin="round" fill="none"/><path d=" M 111 223.4 L 109.84 197.69 Z" stroke="#000000" stroke-width="10" stroke-linejoin="round" fill="#FF0000"/><path d=" M 109.81 197.68 L 111 223.4 Z" stroke="#000000" stroke-width="10" stroke-linecap="round" stroke-linejoin="round" fill="none"/><path d=" M 283.01 275.1 L 285.3 183.85 L 182.65 155.96 L 183.96 245.33 L 283.01 275.1 Z" stroke="#000000" stroke-width="10" stroke-linejoin="round" fill="#EE0000"/><path d=" M 283.01 275.1 L 285.3 183.85 L 182.65 155.96 L 183.96 245.33 L 283.01 275.1 Z" stroke="#000000" stroke-width="10" stroke-linecap="round" stroke-linejoin="round" fill="none"/><path d=" M 114.94 311.41 L 118.94 399.41 L 114.94 311.41 L 118.94 399.41 L 186.62 424.08 L 185.31 334.69 Z M 185.27 334.72 L 186.58 424.11 Z" stroke="#000000" stroke-width="10" stroke-linejoin="round" fill="#EE0000"/><path d=" M 114.94 311.41 L 118.94 399.41 L 114.94 311.41 L 118.94 399.41 L 186.62 424.08 L 185.31 334.69 Z M 185.27 334.72 L 186.58 424.11 Z" stroke="#000000" stroke-width="10" stroke-linecap="round" stroke-linejoin="round" fill="none"/><path d=" M 183.96 245.33 L 283.01 275.11 L 283.01 275.1 L 183.96 245.33 Z" stroke="#000000" stroke-width="10" stroke-linejoin="round" fill="#FF0000"/><path d=" M 183.96 245.33 L 283.01 275.11 L 283.01 275.1 L 183.96 245.33 Z" stroke="#000000" stroke-width="10" stroke-linecap="round" stroke-linejoin="round" fill="none"/><path d=" M 19.16 279.67 L 19.16 279.67 L 26.24 365.65 L 19.16 279.67 Z" stroke="#000000" stroke-width="10" stroke-linejoin="round" fill="#FF0000"/><path d=" M 19.16 279.67 L 19.16 279.67 L 26.24 365.65 L 19.16 279.67 Z" stroke="#000000" stroke-width="10" stroke-linecap="round" stroke-linejoin="round" fill="none"/><path d=" M 185.27 334.72 L 280.72 366.35 L 185.27 334.72 L 186.58 424.11 L 278.43 457.61 L 280.72 366.35 L 185.27 334.72 Z" stroke="#000000" stroke-width="10" stroke-linejoin="round" fill="#EE0000"/><path d=" M 185.27 334.72 L 280.72 366.35 L 185.27 334.72 L 186.58 424.11 L 278.43 457.61 L 280.72 366.35 L 185.27 334.72 Z" stroke="#000000" stroke-width="10" stroke-linecap="round" stroke-linejoin="round" fill="none"/><path d=" M 183.96 245.33 L 110.97 223.4 L 114.94 311.41 L 185.27 334.72 L 280.72 366.35 L 283.01 275.11 L 183.96 245.33 Z" stroke="#000000" stroke-width="10" stroke-linejoin="round" fill="#EE0000"/><path d=" M 183.96 245.33 L 110.97 223.4 L 114.94 311.41 L 185.27 334.72 L 280.72 366.35 L 283.01 275.11 L 183.96 245.33 Z" stroke="#000000" stroke-width="10" stroke-linecap="round" stroke-linejoin="round" fill="none"/><path d=" M 19.16 279.67 L 26.24 365.65 L 118.9 399.44 L 114.94 311.41 L 19.16 279.67 Z" stroke="#000000" stroke-width="10" stroke-linejoin="round" fill="#EE0000"/><path d=" M 19.16 279.67 L 26.24 365.65 L 118.9 399.44 L 114.94 311.41 L 19.16 279.67 Z" stroke="#000000" stroke-width="10" stroke-linecap="round" stroke-linejoin="round" fill="none"/><path d=" M 12.08 193.68 L 12.08 193.68 L 19.16 279.67 L 12.08 193.68 Z" stroke="#000000" stroke-width="10" stroke-linejoin="round" fill="#FF0000"/><path d=" M 12.08 193.68 L 12.08 193.68 L 19.16 279.67 L 12.08 193.68 Z" stroke="#000000" stroke-width="10" stroke-linecap="round" stroke-linejoin="round" fill="none"/><path d=" M 90.55 217.26 L 110.97 223.4 L 109.81 197.69 L 107 135.41 L 109.81 197.69 L 107 135.41 L 5 107.69 L 12.08 193.68 L 90.55 217.26 Z" stroke="#000000" stroke-width="10" stroke-linejoin="round" fill="#EE0000"/><path d=" M 90.55 217.26 L 110.97 223.4 L 109.81 197.69 L 107 135.41 L 109.81 197.69 L 107 135.41 L 5 107.69 L 12.08 193.68 L 90.55 217.26 Z" stroke="#000000" stroke-width="10" stroke-linecap="round" stroke-linejoin="round" fill="none"/><path d=" M 110.97 223.4 L 183.96 245.34 L 182.65 155.96 L 183.96 245.34 L 182.65 155.96 L 107 135.41 L 109.81 197.69 L 110.97 223.4 Z" stroke="#000000" stroke-width="10" stroke-linejoin="round" fill="#EE0000"/><path d=" M 110.97 223.4 L 183.96 245.34 L 182.65 155.96 L 183.96 245.34 L 182.65 155.96 L 107 135.41 L 109.81 197.69 L 110.97 223.4 Z" stroke="#000000" stroke-width="10" stroke-linecap="round" stroke-linejoin="round" fill="none"/><path d=" M 5 107.69 L 5 107.69 L 12.08 193.68 L 5 107.69 Z" stroke="#000000" stroke-width="10" stroke-linejoin="round" fill="#FF0000"/><path d=" M 5 107.69 L 5 107.69 L 12.08 193.68 L 5 107.69 Z" stroke="#000000" stroke-width="10" stroke-linecap="round" stroke-linejoin="round" fill="none"/><path d=" M 378.85 180.81 L 382.2 97.43 L 346.08 129.65 L 342.01 217.06 L 378.85 180.81 Z" stroke="#000000" stroke-width="10" stroke-linejoin="round" fill="#0000F2"/><path d=" M 378.85 180.81 L 382.2 97.43 L 346.08 129.65 L 342.01 217.06 L 378.85 180.81 Z" stroke="#000000" stroke-width="10" stroke-linejoin="round" fill="none"/><path d=" M 417.41 142.86 L 423.65 60.47 L 382.2 97.43 L 378.85 180.81 L 417.41 142.86 Z" stroke="#000000" stroke-width="10" stroke-linejoin="round" fill="#0000F2"/><path d=" M 417.41 142.86 L 423.65 60.47 L 382.2 97.43 L 378.85 180.81 L 417.41 142.86 Z" stroke="#000000" stroke-width="10" stroke-linejoin="round" fill="none"/><path d=" M 342.01 217.06 L 283.01 275.1 L 342.01 217.06 L 346.08 129.65 L 342.01 217.06 L 346.08 129.65 L 285.3 183.85 L 283.01 275.11 L 342.01 217.06 Z" stroke="#000000" stroke-width="10" stroke-linejoin="round" fill="#0000F2"/><path d=" M 342.01 217.06 L 283.01 275.1 L 342.01 217.06 L 346.08 129.65 L 342.01 217.06 L 346.08 129.65 L 285.3 183.85 L 283.01 275.11 L 342.01 217.06 Z" stroke="#000000" stroke-width="10" stroke-linejoin="round" fill="none"/><path d=" M 342.01 217.06 L 342.01 217.06 L 378.85 180.81 L 342.01 217.06 Z" stroke="#000000" stroke-width="10" stroke-linejoin="round" fill="#00FF00"/><path d=" M 342.01 217.06 L 342.01 217.06 L 378.85 180.81 L 342.01 217.06 Z" stroke="#000000" stroke-width="10" stroke-linejoin="round" fill="none"/><path d=" M 375.51 263.84 L 367.58 272.42 Z" stroke="#000000" stroke-width="10" stroke-linejoin="round" fill="#00FF00"/><path d=" M 375.51 263.84 L 367.58 272.42 Z" stroke="#000000" stroke-width="10" stroke-linejoin="round" fill="none"/><path d=" M 378.85 180.81 L 417.41 142.86 Z" stroke="#000000" stroke-width="10" stroke-linejoin="round" fill="#00FF00"/><path d=" M 378.85 180.81 L 417.41 142.86 Z" stroke="#000000" stroke-width="10" stroke-linejoin="round" fill="none"/><path d=" M 367.58 272.42 L 337.93 304.48 L 334.15 385.68 L 333.86 391.91 L 372.19 346.49 L 375.51 263.84 L 367.58 272.42 Z" stroke="#000000" stroke-width="10" stroke-linejoin="round" fill="#0000F2"/><path d=" M 367.58 272.42 L 337.93 304.48 L 334.15 385.68 L 333.86 391.91 L 372.19 346.49 L 375.51 263.84 L 367.58 272.42 Z" stroke="#000000" stroke-width="10" stroke-linejoin="round" fill="none"/><path d=" M 367.58 272.42 L 337.93 304.48 Z" stroke="#000000" stroke-width="10" stroke-linejoin="round" fill="#00FF00"/><path d=" M 367.58 272.42 L 337.93 304.48 Z" stroke="#000000" stroke-width="10" stroke-linejoin="round" fill="none"/><path d=" M 378.85 180.81 L 342.01 217.06 L 283.01 275.11 L 280.72 366.35 L 337.93 304.48 L 367.57 272.42 L 375.51 263.84 L 411.18 225.26 L 417.41 142.86 L 378.85 180.81 Z" stroke="#000000" stroke-width="10" stroke-linejoin="round" fill="#00D800"/><path d=" M 378.85 180.81 L 342.01 217.06 L 283.01 275.11 L 280.72 366.35 L 337.93 304.48 L 367.57 272.42 L 375.51 263.84 L 411.18 225.26 L 417.41 142.86 L 378.85 180.81 Z" stroke="#000000" stroke-width="10" stroke-linejoin="round" fill="none"/><path d=" M 372.19 346.49 L 372.19 346.49 L 375.51 263.84 L 372.19 346.49 L 404.94 307.66 L 411.18 225.26 L 375.51 263.84 L 372.19 346.49 Z" stroke="#000000" stroke-width="10" stroke-linejoin="round" fill="#0000F2"/><path d=" M 372.19 346.49 L 372.19 346.49 L 375.51 263.84 L 372.19 346.49 L 404.94 307.66 L 411.18 225.26 L 375.51 263.84 L 372.19 346.49 Z" stroke="#000000" stroke-width="10" stroke-linejoin="round" fill="none"/><path d=" M 337.93 304.48 L 280.72 366.36 Z" stroke="#000000" stroke-width="10" stroke-linejoin="round" fill="#00FF00"/><path d=" M 337.93 304.48 L 280.72 366.36 Z" stroke="#000000" stroke-width="10" stroke-linejoin="round" fill="none"/><path d=" M 337.93 304.48 L 334.15 385.68 L 337.93 304.48 L 280.73 366.36 L 278.43 457.61 L 333.86 391.91 L 334.15 385.68 L 337.93 304.48 Z" stroke="#000000" stroke-width="10" stroke-linejoin="round" fill="#0000F2"/><path d=" M 337.93 304.48 L 334.15 385.68 L 337.93 304.48 L 280.73 366.36 L 278.43 457.61 L 333.86 391.91 L 334.15 385.68 L 337.93 304.48 Z" stroke="#000000" stroke-width="10" stroke-linejoin="round" fill="none"/><path d=" M 333.86 391.91 L 334.15 385.68 Z" stroke="#000000" stroke-width="10" stroke-linejoin="round" fill="#00FF00"/><path d=" M 333.86 391.91 L 333.86 391.91 L 334.15 385.68 L 333.86 391.91 Z" stroke="#000000" stroke-width="10" stroke-linejoin="round" fill="none"/></g></g></svg>