<svg version="1.1" viewBox="0 0 204.6 211.92" xmlns="http://www.w3.org/2000/svg" xmlns:xlink="http://www.w3.org/1999/xlink" overflow="hidden"><defs></defs><g id="图层_2"><g id="图层_1-2"><path d=" M 201.36 108.3 L 203.09 139.22 L 188.45 135.57 L 187.53 104.41 L 201.36 108.3 Z" fill="#DDC89C"/><path d=" M 203.09 139.22 L 183.39 161.2 L 169.02 158.48 L 188.46 135.98 L 188.45 135.57 L 203.09 139.22 Z" fill="#D71718"/><path d=" M 200.95 100.85 L 201.36 108.3 L 187.53 104.41 L 186.8 79.4 L 200.94 100.85 L 200.95 100.85 Z" fill="#DDC89C"/><path d=" M 199.34 72.09 L 200.95 100.85 L 200.94 100.85 L 186.8 79.4 L 185.99 51.76 L 199.34 72.09 Z" fill="#DDC89C"/><path d=" M 188.45 135.57 L 188.46 135.98 L 169.02 158.48 L 156.69 156.15 L 186.52 135.09 L 188.45 135.57 Z" fill="#D71718"/><path d=" M 187.53 104.41 L 188.45 135.57 L 186.52 135.09 L 175.31 100.96 L 187.53 104.41 Z" fill="#DDC89C"/><path d=" M 187.53 104.41 L 175.31 100.96 L 165.8 71.98 L 173.58 59.33 L 186.8 79.4 L 187.53 104.41 Z" fill="#DDC89C"/><path d=" M 186.8 79.4 L 173.58 59.33 L 181.99 45.66 L 185.99 51.76 L 186.8 79.4 Z" fill="#DDC89C"/><path d=" M 175.31 100.96 L 186.52 135.09 L 169.96 130.96 L 157.98 96.08 L 175.31 100.96 Z" fill="#717071"/><path d=" M 186.52 135.09 L 156.69 156.15 L 139.42 152.88 L 169.96 130.96 L 186.52 135.09 Z" fill="#717071"/><path d=" M 183.39 161.2 L 178.2 167 L 177.96 166.78 L 153.36 176.61 L 169.02 158.48 L 183.39 161.2 Z" fill="#D71718"/><path d=" M 181.99 45.66 L 173.58 59.33 L 156.31 33.13 L 165.04 19.84 L 181.99 45.66 Z" fill="#717071"/><path d=" M 178.2 167 L 161.21 185.96 L 136.25 196.42 L 153.36 176.61 L 177.96 166.78 L 178.2 167 Z" fill="#D71718"/><path d=" M 165.8 71.98 L 175.31 100.96 L 157.98 96.08 L 155.47 88.77 L 165.8 71.98 Z" fill="#717071"/><path d=" M 173.58 59.33 L 165.8 71.98 L 154.13 36.46 L 156.31 33.13 L 173.58 59.33 Z" fill="#717071"/><path d=" M 157.98 96.08 L 169.96 130.96 L 139.42 152.88 L 127.76 117.85 L 157.98 96.08 Z" fill="#717071"/><path d=" M 169.02 158.48 L 153.36 176.61 L 131.2 185.47 L 131.95 173.61 L 156.69 156.15 L 169.02 158.48 Z" fill="#D71718"/><path d=" M 165.8 71.98 L 155.47 88.77 L 143.21 53.09 L 153.75 37.04 L 154.13 36.46 L 165.8 71.98 Z" fill="#717071"/><path d=" M 165.04 19.84 L 156.31 33.13 L 126.97 24.27 L 136.29 11.32 L 165.04 19.84 Z" fill="#717071"/><path d=" M 155.47 88.77 L 157.98 96.08 L 127.76 117.85 L 118.15 88.96 L 155.35 88.96 L 155.47 88.77 Z" fill="#717071"/><path d=" M 156.69 156.15 L 131.95 173.61 L 132.96 157.51 L 139.42 152.88 L 156.69 156.15 Z" fill="#717071"/><path d=" M 156.31 33.13 L 154.13 36.46 L 153.75 37.04 L 117.72 37.11 L 126.97 24.27 L 156.31 33.13 Z" fill="#717071"/><path d=" M 143.21 53.09 L 155.47 88.77 L 155.35 88.96 L 118.15 88.96 L 106.21 53.09 L 143.21 53.09 Z" fill="#717071"/><path d=" M 153.75 37.04 L 143.21 53.09 L 106.21 53.09 L 117.72 37.11 L 153.75 37.04 Z" fill="#717071"/><path d=" M 153.36 176.61 L 136.25 196.42 L 130.36 198.89 L 131.2 185.47 L 153.36 176.61 Z" fill="#D71718"/><path d=" M 127.76 117.85 L 139.42 152.88 L 132.96 157.51 L 132.46 156.84 L 102.38 136.13 L 127.76 117.85 Z" fill="#717071"/><path d=" M 136.29 11.32 L 126.97 24.27 L 106.37 18.04 L 132.79 10.67 L 132.9 10.31 L 136.29 11.32 Z" fill="#717071"/><path d=" M 132.46 156.84 L 132.96 157.51 L 102.54 179.34 L 72.59 158.51 L 72.16 158.21 L 72.59 157.59 L 102.38 136.13 L 132.46 156.84 Z" fill="#717071"/><path d=" M 132.96 157.51 L 131.95 173.61 L 102.59 194.34 L 102.58 194.34 L 102.54 179.34 L 132.96 157.51 Z" fill="#717071"/><path d=" M 132.9 10.31 L 132.79 10.67 L 106.37 18.04 L 76.34 8.97 L 103.21 1.51 L 132.9 10.31 Z" fill="#717071"/><path d=" M 102.59 194.34 L 131.95 173.61 L 131.2 185.47 L 102.9 196.78 L 102.59 196.65 L 102.58 194.34 L 102.59 194.34 Z" fill="#D71718"/><path d=" M 131.2 185.47 L 130.36 198.89 L 102.63 210.51 L 102.59 196.65 L 102.9 196.78 L 131.2 185.47 Z" fill="#D71718"/><path d=" M 118.15 88.96 L 127.76 117.85 L 102.38 136.13 L 76.64 118.41 L 86.14 88.96 L 118.15 88.96 Z" fill="#E87EAF"/><path d=" M 126.97 24.27 L 117.72 37.11 L 87.69 37.17 L 80.24 25.33 L 106.37 18.04 L 126.97 24.27 Z" fill="#717071"/><path d=" M 106.21 53.09 L 118.15 88.96 L 86.14 88.96 L 97.71 53.09 L 106.21 53.09 Z" fill="#717071"/><path d=" M 117.72 37.11 L 106.21 53.09 L 97.71 53.09 L 87.69 37.17 L 117.72 37.11 Z" fill="#717071"/><path d=" M 106.37 18.04 L 80.24 25.33 L 70.89 10.49 L 70.89 10.48 L 76.33 8.97 L 76.34 8.97 L 106.37 18.04 Z" fill="#717071"/><path d=" M 102.59 196.65 L 102.63 210.51 L 73.53 197.76 L 73.53 197.75 L 73.21 184.42 L 102.59 196.65 Z" fill="#18459B"/><path d=" M 102.58 194.34 L 102.59 196.65 L 73.21 184.42 L 72.94 173.19 L 102.58 194.34 Z" fill="#18459B"/><path d=" M 102.58 194.34 L 72.94 173.19 L 72.59 158.51 L 102.54 179.34 L 102.58 194.34 Z" fill="#717071"/><path d=" M 102.38 136.13 L 72.59 157.59 L 72.16 158.21 L 65.33 153.46 L 76.64 118.41 L 102.38 136.13 Z" fill="#E87EAF"/><path d=" M 87.69 37.17 L 97.71 53.09 L 59.71 53.09 L 51.44 37.24 L 87.69 37.17 Z" fill="#717071"/><path d=" M 97.71 53.09 L 86.14 88.96 L 48.96 88.96 L 48.42 88.79 L 59.71 53.09 L 97.71 53.09 Z" fill="#717071"/><path d=" M 51.44 37.24 L 49.68 33.86 L 80.24 25.33 L 87.69 37.17 L 51.44 37.24 Z" fill="#717071"/><path d=" M 86.14 88.96 L 76.64 118.41 L 45.78 97.16 L 48.37 88.96 L 48.42 88.79 L 48.96 88.96 L 86.14 88.96 Z" fill="#E87EAF"/><path d=" M 80.24 25.33 L 49.68 33.86 L 41.71 18.59 L 70.89 10.49 L 80.24 25.33 Z" fill="#717071"/><path d=" M 45.78 97.16 L 76.64 118.41 L 65.33 153.46 L 34.71 132.17 L 45.78 97.16 Z" fill="#E87EAF"/><path d=" M 73.21 184.42 L 73.53 197.75 L 67.87 195.27 L 50.75 175.07 L 73.21 184.42 Z" fill="#18459B"/><path d=" M 72.94 173.19 L 73.21 184.42 L 50.75 175.07 L 34.81 156.25 L 47.57 155.08 L 72.94 173.19 Z" fill="#18459B"/><path d=" M 72.59 158.51 L 72.94 173.19 L 47.57 155.08 L 65.33 153.46 L 72.16 158.21 L 72.59 158.51 Z" fill="#D71718"/><path d=" M 50.75 175.07 L 67.87 195.27 L 42.54 184.17 L 26.05 164.78 L 50.75 175.07 Z" fill="#18459B"/><path d=" M 65.33 153.46 L 47.57 155.08 L 18.13 134.08 L 18.13 134.07 L 34.71 132.17 L 65.33 153.46 Z" fill="#D71718"/><path d=" M 51.44 37.24 L 59.71 53.09 L 48.42 88.79 L 48.37 88.96 L 39.7 71.38 L 51.44 37.24 Z" fill="#717071"/><path d=" M 49.68 33.86 L 51.44 37.24 L 39.7 71.38 L 32.82 57.44 L 49.68 33.86 Z" fill="#717071"/><path d=" M 50.75 175.07 L 26.05 164.78 L 19.94 157.61 L 34.81 156.25 L 50.75 175.07 Z" fill="#18459B"/><path d=" M 49.68 33.86 L 32.82 57.44 L 25.61 42.82 L 41.71 18.59 L 49.68 33.86 Z" fill="#717071"/><path d=" M 39.7 71.38 L 48.37 88.96 L 45.78 97.16 L 29.86 99.98 L 39.7 71.38 Z" fill="#18459B"/><path d=" M 47.57 155.08 L 34.81 156.25 L 16.21 134.3 L 16.21 134.29 L 18.13 134.08 L 47.57 155.08 Z" fill="#18459B"/><path d=" M 45.78 97.16 L 34.71 132.17 L 18.13 134.07 L 29.86 99.98 L 45.78 97.16 Z" fill="#18459B"/><path d=" M 32.82 57.44 L 39.7 71.38 L 29.86 99.98 L 18.51 102 L 20.45 74.75 L 32.82 57.44 Z" fill="#89B929"/><path d=" M 34.81 156.25 L 19.94 157.61 L 1.54 135.98 L 16.21 134.3 L 34.81 156.25 Z" fill="#18459B"/><path d=" M 25.61 42.82 L 32.82 57.44 L 20.45 74.75 L 22.37 47.7 L 25.61 42.82 Z" fill="#89B929"/><path d=" M 29.86 99.98 L 18.13 134.07 L 18.13 134.08 L 16.21 134.29 L 18.51 102 L 29.86 99.98 Z" fill="#89B929"/><path d=" M 7.88 69.51 L 22.37 47.7 L 20.45 74.75 L 5.37 95.83 L 7.88 69.51 Z" fill="#89B929"/><path d=" M 20.45 74.75 L 18.51 102 L 4.55 104.47 L 5.37 95.83 L 20.45 74.75 Z" fill="#89B929"/><path d=" M 18.51 102 L 16.21 134.29 L 16.21 134.3 L 1.54 135.98 L 4.55 104.47 L 18.51 102 Z" fill="#89B929"/><path d=" M 59.71 53.09 L 97.71 53.09 L 106.21 53.09 L 143.21 53.09" stroke="#1D110E" stroke-width="3" stroke-miterlimit="10" fill="none"/><path d=" M 41.71 18.59 L 49.68 33.86 L 51.44 37.24 L 59.71 53.09" stroke="#1D110E" stroke-width="3" stroke-miterlimit="10" fill="none"/><path d=" M 165.04 19.84 L 156.31 33.13 L 154.13 36.46 L 153.75 37.04 L 143.21 53.09" stroke="#1D110E" stroke-width="3" stroke-miterlimit="10" fill="none"/><path d=" M 103.21 1.51 L 132.9 10.31 L 136.29 11.32 L 165.04 19.84" stroke="#1D110E" stroke-width="3" stroke-miterlimit="10" fill="none"/><line x1="76.34" y1="8.97" x2="103.21" y2="1.51" stroke="#1D110E" stroke-width="3" stroke-miterlimit="10" fill="none"/><line x1="70.89" y1="10.48" x2="76.33" y2="8.97" stroke="#1D110E" stroke-width="3" stroke-miterlimit="10" fill="none"/><line x1="41.71" y1="18.59" x2="70.89" y2="10.49" stroke="#1D110E" stroke-width="3" stroke-miterlimit="10" fill="none"/><path d=" M 102.63 210.51 L 102.59 196.65 L 102.58 194.34 L 102.54 179.34" stroke="#1D110E" stroke-width="3" stroke-miterlimit="10" fill="none"/><path d=" M 34.71 132.17 L 65.33 153.46 L 72.16 158.21 L 72.59 158.51 L 102.54 179.34" stroke="#1D110E" stroke-width="3" stroke-miterlimit="10" fill="none"/><path d=" M 59.71 53.09 L 48.42 88.79 L 48.37 88.96 L 45.78 97.16 L 34.71 132.17" stroke="#1D110E" stroke-width="3" stroke-miterlimit="10" fill="none"/><line x1="73.53" y1="197.76" x2="102.63" y2="210.51" stroke="#1D110E" stroke-width="3" stroke-miterlimit="10" fill="none"/><path d=" M 42.54 184.17 L 67.87 195.27 L 73.53 197.75" stroke="#1D110E" stroke-width="3" stroke-miterlimit="10" fill="none"/><path d=" M 1.54 135.98 L 19.94 157.61 L 26.05 164.78 L 42.54 184.17" stroke="#1D110E" stroke-width="3" stroke-miterlimit="10" fill="none"/><line x1="16.21" y1="134.3" x2="1.54" y2="135.98" stroke="#1D110E" stroke-width="3" stroke-miterlimit="10" fill="none"/><line x1="18.13" y1="134.08" x2="16.21" y2="134.29" stroke="#1D110E" stroke-width="3" stroke-miterlimit="10" fill="none"/><line x1="34.71" y1="132.17" x2="18.13" y2="134.07" stroke="#1D110E" stroke-width="3" stroke-miterlimit="10" fill="none"/><path d=" M 41.71 18.59 L 25.61 42.82 L 22.37 47.7 L 7.88 69.51" stroke="#1D110E" stroke-width="3" stroke-miterlimit="10" fill="none"/><path d=" M 1.54 135.98 L 4.55 104.47 L 5.37 95.83 L 7.88 69.51" stroke="#1D110E" stroke-width="3" stroke-miterlimit="10" fill="none"/><path d=" M 143.21 53.09 L 155.47 88.77 L 157.98 96.08 L 169.96 130.96" stroke="#1D110E" stroke-width="3" stroke-miterlimit="10" fill="none"/><path d=" M 102.54 179.34 L 132.96 157.51 L 139.42 152.88 L 169.96 130.96" stroke="#1D110E" stroke-width="3" stroke-miterlimit="10" fill="none"/><path d=" M 203.09 139.22 L 188.45 135.57 L 186.52 135.09 L 169.96 130.96" stroke="#1D110E" stroke-width="3" stroke-miterlimit="10" fill="none"/><path d=" M 161.21 185.96 L 136.25 196.42 L 130.36 198.89 L 102.63 210.51" stroke="#1D110E" stroke-width="3" stroke-miterlimit="10" fill="none"/><path d=" M 203.09 139.22 L 183.39 161.2 L 178.2 167 L 161.21 185.96" stroke="#1D110E" stroke-width="3" stroke-miterlimit="10" fill="none"/><path d=" M 199.34 72.09 L 200.95 100.85 L 201.36 108.3 L 203.09 139.22" stroke="#1D110E" stroke-width="3" stroke-miterlimit="10" fill="none"/><path d=" M 165.04 19.84 L 181.99 45.66 L 185.99 51.76 L 199.34 72.09" stroke="#1D110E" stroke-width="3" stroke-miterlimit="10" fill="none"/><path d=" M 106.21 53.09 L 118.15 88.96 L 127.76 117.85 L 139.42 152.88" stroke="#1D110E" stroke-width="3" stroke-miterlimit="10" fill="none"/><path d=" M 72.59 157.59 L 102.38 136.13 L 127.76 117.85 L 157.98 96.08" stroke="#1D110E" stroke-width="3" stroke-miterlimit="10" fill="none"/><path d=" M 45.78 97.16 L 76.64 118.41 L 102.38 136.13 L 132.46 156.84" stroke="#1D110E" stroke-width="3" stroke-miterlimit="10" fill="none"/><path d=" M 97.71 53.09 L 86.14 88.96 L 76.64 118.41 L 65.33 153.46" stroke="#1D110E" stroke-width="3" stroke-miterlimit="10" fill="none"/><path d=" M 48.96 88.96 L 86.14 88.96 L 118.15 88.96 L 155.35 88.96" stroke="#1D110E" stroke-width="3" stroke-miterlimit="10" fill="none"/><path d=" M 182.19 45.34 L 181.99 45.66 L 173.58 59.33 L 165.8 71.98 L 155.47 88.77 L 155.35 88.96" stroke="#1D110E" stroke-width="3" stroke-miterlimit="10" fill="none"/><path d=" M 72.59 158.51 L 72.94 173.19 L 73.21 184.42 L 73.53 197.75 L 73.53 197.76" stroke="#1D110E" stroke-width="3" stroke-miterlimit="10" fill="none"/><path d=" M 132.96 157.51 L 131.95 173.61 L 131.2 185.47 L 130.36 198.89" stroke="#1D110E" stroke-width="3" stroke-miterlimit="10" fill="none"/><path d=" M 139.42 152.88 L 156.69 156.15 L 169.02 158.48 L 183.39 161.2" stroke="#1D110E" stroke-width="3" stroke-miterlimit="10" fill="none"/><path d=" M 102.9 196.78 L 131.2 185.47 L 153.36 176.61 L 177.96 166.78" stroke="#1D110E" stroke-width="3" stroke-miterlimit="10" fill="none"/><path d=" M 188.46 135.98 L 169.02 158.48 L 153.36 176.61 L 136.25 196.42" stroke="#1D110E" stroke-width="3" stroke-miterlimit="10" fill="none"/><path d=" M 102.59 194.34 L 131.95 173.61 L 156.69 156.15 L 186.52 135.09" stroke="#1D110E" stroke-width="3" stroke-miterlimit="10" fill="none"/><path d=" M 51.71 36.46 L 51.44 37.24 L 39.7 71.38 L 29.86 99.98 L 18.13 134.07 L 18.13 134.08" stroke="#1D110E" stroke-width="3" stroke-miterlimit="10" fill="none"/><path d=" M 22.37 47.7 L 20.45 74.75 L 18.51 102 L 16.21 134.29 L 16.21 134.3" stroke="#1D110E" stroke-width="3" stroke-miterlimit="10" fill="none"/><path d=" M 4.55 104.47 L 18.51 102 L 29.86 99.98 L 45.78 97.16" stroke="#1D110E" stroke-width="3" stroke-miterlimit="10" fill="none"/><path d=" M 48.37 88.96 L 39.7 71.38 L 32.82 57.44 L 25.61 42.82" stroke="#1D110E" stroke-width="3" stroke-miterlimit="10" fill="none"/><path d=" M 49.68 33.86 L 32.82 57.44 L 20.45 74.75 L 5.37 95.83" stroke="#1D110E" stroke-width="3" stroke-miterlimit="10" fill="none"/><path d=" M 65.33 153.46 L 47.57 155.08 L 34.81 156.25 L 19.94 157.61" stroke="#1D110E" stroke-width="3" stroke-miterlimit="10" fill="none"/><path d=" M 16.21 134.3 L 34.81 156.25 L 50.75 175.07 L 67.87 195.27" stroke="#1D110E" stroke-width="3" stroke-miterlimit="10" fill="none"/><path d=" M 102.9 196.78 L 102.59 196.65 L 73.21 184.42 L 50.75 175.07 L 26.05 164.78" stroke="#1D110E" stroke-width="3" stroke-miterlimit="10" fill="none"/><path d=" M 102.59 194.34 L 102.58 194.34 L 72.94 173.19 L 47.57 155.08 L 18.13 134.08" stroke="#1D110E" stroke-width="3" stroke-miterlimit="10" fill="none"/><path d=" M 185.99 51.76 L 186.8 79.4 L 187.53 104.41 L 188.45 135.57 L 188.46 135.98" stroke="#1D110E" stroke-width="3" stroke-miterlimit="10" fill="none"/><path d=" M 154.13 36.46 L 165.8 71.98 L 175.31 100.96 L 186.52 135.09" stroke="#1D110E" stroke-width="3" stroke-miterlimit="10" fill="none"/><path d=" M 201.36 108.3 L 187.53 104.41 L 175.31 100.96 L 157.98 96.08" stroke="#1D110E" stroke-width="3" stroke-miterlimit="10" fill="none"/><path d=" M 156.31 33.13 L 173.58 59.33 L 186.8 79.4 L 200.94 100.85" stroke="#1D110E" stroke-width="3" stroke-miterlimit="10" fill="none"/><path d=" M 97.71 53.09 L 87.69 37.17 L 80.24 25.33 L 70.89 10.49 L 70.89 10.48" stroke="#1D110E" stroke-width="3" stroke-miterlimit="10" fill="none"/><path d=" M 106.21 53.09 L 117.72 37.11 L 126.97 24.27 L 136.29 11.32" stroke="#1D110E" stroke-width="3" stroke-miterlimit="10" fill="none"/><path d=" M 76.33 8.97 L 76.34 8.97 L 106.37 18.04 L 126.97 24.27 L 156.31 33.13" stroke="#1D110E" stroke-width="3" stroke-miterlimit="10" fill="none"/><path d=" M 153.75 37.04 L 117.72 37.11 L 87.69 37.17 L 51.44 37.24" stroke="#1D110E" stroke-width="3" stroke-miterlimit="10" fill="none"/><path d=" M 49.68 33.86 L 80.24 25.33 L 106.37 18.04 L 132.79 10.67" stroke="#1D110E" stroke-width="3" stroke-miterlimit="10" fill="none"/><path d=" M 41.61 18.41 L 40.9 18.23 L 41.19 17.86 L 41.19 17.86 L 42.05 18.08 C 42.21 18.43 42.2 18.01 42.19 17.85 C 42.1775 17.6499 42.0921 17.4614 41.95 17.32 C 41.6639 17.0879 41.2618 17.0637 40.95 17.26 C 40.2 17.71 40.16 18.62 40.04 19.39 C 39.92 20.16 41.12 20.52 41.25 19.72 C 41.31 19.3 41.25 18.48 41.72 18.28 L 41.24 18.34 L 41.37 18.34 L 41 18.05 C 41 17.8433 40.97 17.8233 40.91 17.99 L 40.91 18.21 C 40.9108 18.3741 40.952 18.5356 41.03 18.68 C 41.2076 18.9771 41.5916 19.0754 41.89 18.9 C 42.99 18.21 41.42 16.48 40.64 17.72 C 40.21 18.4 41.29 19.03 41.72 18.35 Z" fill="#1D110E"/><path d=" M 165.56 19.11 L 165.48 19.11 L 165.77 19.82 L 165.66 19.95 L 165.18 20.01 C 165.235 20.0667 165.299 20.1139 165.37 20.15 C 165.673 20.3212 166.057 20.2145 166.228 19.9116 C 166.281 19.8195 166.309 19.7158 166.31 19.61 C 166.305 19.3876 166.22 19.1744 166.07 19.01 L 165.46 20.01 L 165.39 19.95 C 165.82 20.3 166.68 19.95 166.39 19.34 C 166.329 19.1455 166.215 18.9722 166.06 18.84 C 165.91 18.72 165.7 18.69 165.56 18.57 L 164.95 19.57 C 165.055 19.5729 165.147 19.6407 165.18 19.74 L 166.26 19.11 C 166.147 18.8907 165.986 18.6994 165.79 18.55 C 165.711 18.4907 165.623 18.4435 165.53 18.41 L 165.32 18.41 C 165.12 18.37 165.19 18.4367 165.53 18.61 L 164.99 19.55 C 165.46 19.55 165.51 21.04 165.57 21.38 C 165.7 22.17 166.91 21.84 166.78 21.05 C 166.61 20.05 166.49 18.19 164.99 18.31 C 164.642 18.3146 164.364 18.6005 164.368 18.9484 C 164.37 19.0542 164.398 19.1579 164.45 19.25 C 164.64 19.59 165.01 19.52 165.18 19.8 C 165.391 20.0765 165.786 20.1296 166.063 19.9184 C 166.292 19.7434 166.373 19.4351 166.26 19.17 C 166.057 18.7818 165.689 18.5061 165.26 18.42 C 164.69 18.29 164.16 19.03 164.65 19.42 C 164.757 19.5201 164.879 19.6043 165.01 19.67 L 165.16 19.73 C 165.287 19.7967 165.287 19.7633 165.16 19.63 L 166.16 19.02 C 166.022 18.896 165.858 18.8038 165.68 18.75 C 165.337 18.691 165.011 18.9211 164.952 19.264 C 164.923 19.4353 164.965 19.6112 165.07 19.75 L 165.13 19.82 L 164.95 19.38 L 164.95 19.47 L 165.89 18.93 C 165.58 18.72 165.29 18.53 164.89 18.72 C 164.656 18.8548 164.487 19.0784 164.42 19.34 C 164.352 19.6146 164.469 19.9017 164.71 20.05 C 164.825 20.1256 164.954 20.1767 165.09 20.2 C 165.87 20.37 166.21 19.2 165.42 18.99 Z" fill="#1D110E"/><path d=" M 198.83 71.56 C 198.993 71.8557 199.195 72.1282 199.43 72.37 C 199.679 72.6131 200.078 72.6083 200.321 72.3593 C 200.433 72.2443 200.497 72.0907 200.5 71.93 L 200.5 71.58 L 199.43 72.02 C 199.483 72.093 199.523 72.1741 199.55 72.26 C 199.673 72.5854 200.037 72.7491 200.362 72.6258 C 200.644 72.5189 200.811 72.2272 200.76 71.93 C 200.709 71.6958 200.625 71.4701 200.51 71.26 L 199.51 72.02 C 199.4 71.89 199.51 72.33 199.58 72.38 C 199.685 72.7116 200.04 72.8948 200.371 72.7894 C 200.625 72.7085 200.801 72.4765 200.81 72.21 C 200.781 71.9256 200.714 71.6463 200.61 71.38 L 199.47 71.86 L 199.47 71.86 C 199.9 72.54 200.98 71.91 200.55 71.23 L 200.55 71.23 C 200.356 70.9409 199.965 70.8635 199.676 71.0572 C 199.462 71.2002 199.357 71.4585 199.41 71.71 C 199.48 71.8708 199.534 72.0383 199.57 72.21 L 200.8 72.04 C 200.735 71.7096 200.602 71.3963 200.41 71.12 C 199.93 70.55 199.12 71.27 199.41 71.88 C 199.487 71.9889 199.532 72.117 199.54 72.25 L 200.75 71.92 C 200.662 71.6281 200.512 71.3586 200.31 71.13 C 200.061 70.8869 199.662 70.8917 199.419 71.1407 C 199.307 71.2557 199.243 71.4093 199.24 71.57 L 199.24 71.92 L 200.31 71.48 C 200.151 71.3128 200.017 71.1244 199.91 70.92 C 199.55 70.2 198.47 70.83 198.83 71.55 Z" fill="#1D110E"/><path d=" M 202.87 139.45 C 202.82 139.37 202.87 138.8 202.82 139.32 C 202.793 139.422 202.793 139.528 202.82 139.63 C 202.932 139.959 203.291 140.135 203.62 140.023 C 203.693 139.998 203.761 139.96 203.82 139.91 C 203.866 139.849 203.924 139.798 203.99 139.76 L 203.13 139.54 L 203.13 139.59 L 203.07 139.11 C 203.058 139.202 203.027 139.29 202.98 139.37 C 202.808 139.673 202.914 140.057 203.217 140.229 C 203.36 140.311 203.53 140.333 203.69 140.29 C 203.808 140.259 203.922 140.215 204.03 140.16 L 203.09 139.62 L 203.09 139.72 L 203.27 139.28 L 203.2 139.35 L 204.2 140.11 C 204.347 139.794 204.442 139.456 204.48 139.11 L 203.54 139.65 L 203.54 139.65 L 203.23 139.11 C 203.195 139.299 203.123 139.479 203.02 139.64 C 202.65 140.35 203.73 140.99 204.1 140.27 C 204.315 139.917 204.448 139.521 204.49 139.11 C 204.493 138.887 204.374 138.68 204.18 138.57 L 204.18 138.57 C 203.868 138.404 203.48 138.523 203.314 138.835 C 203.269 138.92 203.244 139.014 203.24 139.11 C 203.227 139.249 203.19 139.384 203.13 139.51 C 202.86 140.13 203.56 140.8 204.13 140.27 C 204.298 140.112 204.392 139.891 204.39 139.66 C 204.385 139.312 204.1 139.034 203.752 139.038 C 203.646 139.04 203.542 139.068 203.45 139.12 L 203.45 139.12 L 204.16 140.04 C 204.385 139.718 204.434 139.305 204.29 138.94 C 204.112 138.643 203.728 138.545 203.43 138.72 C 203.274 138.82 203.129 138.937 203 139.07 L 204 139.35 L 204 139.29 L 203.94 139.77 C 204.112 139.495 204.112 139.145 203.94 138.87 C 203.5 138.2 202.42 138.87 202.86 139.5 Z" fill="#1D110E"/><path d=" M 102.05 211.61 C 102.32 211.75 102.53 211.95 102.86 211.85 C 103.192 211.745 103.375 211.39 103.269 211.059 C 103.189 210.805 102.956 210.629 102.69 210.62 L 102.38 210.62 C 102.032 210.631 101.759 210.922 101.77 211.27 C 101.777 211.477 101.885 211.668 102.06 211.78 C 102.379 211.901 102.723 211.939 103.06 211.89 L 103.06 210.64 C 102.77 210.64 102.48 210.64 102.18 210.64 C 101.4 210.73 101.36 211.88 102.18 211.89 C 102.54 211.912 102.9 211.912 103.26 211.89 C 104.05 211.8 104.06 210.55 103.26 210.64 C 102.9 210.662 102.54 210.662 102.18 210.64 L 102.18 211.89 C 102.47 211.89 102.76 211.89 103.06 211.89 C 103.405 211.846 103.65 211.531 103.606 211.186 C 103.57 210.901 103.345 210.676 103.06 210.64 L 102.69 210.64 C 102.443 210.64 102.443 210.657 102.69 210.69 L 102.37 211.85 L 102.68 211.85 L 102.51 210.62 L 102.51 210.62 L 102.99 210.68 L 102.69 210.5 C 101.98 210.13 101.34 211.21 102.06 211.58 Z" fill="#1D110E"/><path d=" M 41.44 184.63 C 41.5491 184.735 41.6494 184.849 41.74 184.97 L 42.18 183.9 C 42.1097 183.93 42.0303 183.93 41.96 183.9 C 41.6236 183.811 41.2789 184.012 41.19 184.348 C 41.1621 184.454 41.1621 184.565 41.19 184.67 C 41.2338 184.816 41.3051 184.951 41.4 185.07 C 41.4782 185.14 41.5618 185.203 41.65 185.26 L 42.51 184.4 C 42.3749 184.302 42.2221 184.23 42.06 184.19 C 41.7171 184.131 41.3913 184.361 41.3324 184.704 C 41.2813 185.001 41.448 185.293 41.73 185.4 C 41.5 185.32 41.56 185.33 41.73 185.4 C 41.8386 185.46 41.9571 185.501 42.08 185.52 C 42.74 185.64 43.22 184.74 42.56 184.38 L 42.27 184.21 C 41.63 183.82 41.07 184.67 41.51 185.21 L 41.66 185.38 L 42.42 184.38 L 42.42 184.38 C 41.91 183.76 41.03 184.65 41.54 185.26 C 41.6171 185.348 41.7084 185.422 41.81 185.48 C 42.43 185.86 43.03 185.01 42.57 184.48 L 42.42 184.31 L 41.66 185.31 L 41.95 185.48 L 42.43 184.34 C 42.32 184.34 42.19 184.22 42.06 184.18 L 41.73 185.39 C 41.7881 185.397 41.8414 185.426 41.88 185.47 C 42.39 185.85 43.06 185.12 42.74 184.61 C 42.74 184.55 42.38 184.22 42.41 184.32 L 41.64 185.09 C 41.8175 185.147 42.0045 185.167 42.19 185.15 C 42.5379 185.144 42.8151 184.857 42.8091 184.509 C 42.8064 184.349 42.7423 184.195 42.63 184.08 C 42.5394 183.959 42.4391 183.845 42.33 183.74 C 41.74 183.2 40.85 184.08 41.45 184.62 Z" fill="#1D110E"/><path d=" M 0.21 135.35 C 0.0602897 135.732 0.178084 136.166 0.5 136.42 C 0.807356 136.644 1.23215 136.61 1.5 136.34 C 1.79289 136.152 1.87806 135.762 1.69023 135.47 C 1.57822 135.295 1.38739 135.187 1.18 135.18 C 0.74 135.18 0.18 135.18 0.04 135.68 C -0.021959 136.179 0.138983 136.68 0.48 137.05 C 1.1 137.56 1.99 136.68 1.36 136.17 C 1.36 136.17 1.36 135.67 1.24 135.98 L 0.8 136.42 C 0.919012 136.398 1.04099 136.398 1.16 136.42 L 0.84 135.26 C 0.76 135.26 0.726667 135.287 0.74 135.34 L 1.22 135.4 C 1.3 135.82 1.36333 135.91 1.41 135.67 C 1.46894 135.327 1.23873 135.001 0.895817 134.942 C 0.598609 134.891 0.306882 135.058 0.2 135.34 Z" fill="#1D110E"/><path d=" M 7 69.19 C 7.03749 69.3342 7.08769 69.4747 7.15 69.61 L 7.69 68.67 C 7.41 68.67 7.28 68.52 6.98 68.67 C 6.77902 68.773 6.60968 68.9285 6.49 69.12 L 7.65 69.44 C 7.65 69.55 7.55 69.75 7.65 69.55 C 7.71005 69.442 7.74748 69.3229 7.76 69.2 C 7.7724 69.1373 7.7724 69.0727 7.76 69.01 C 7.774 68.9576 7.774 68.9024 7.76 68.85 C 7.7 68.6967 7.7 68.7567 7.76 69.03 L 7.58 69.47 L 7.58 69.47 L 6.58 68.71 C 6.4951 68.8769 6.42484 69.0509 6.37 69.23 L 7.63 69.23 L 7.63 69.18 L 7.57 69.66 L 7.57 69.66 L 6.57 68.9 L 6.57 68.96 L 7.71 69.11 L 7.71 69.11 L 7.65 69.59 L 7.74 69.45 C 8.09 68.86 7.21 68.13 6.74 68.69 C 6.59499 68.8596 6.4861 69.0569 6.42 69.27 C 6.36106 69.6129 6.59127 69.9387 6.93418 69.9976 C 7.23139 70.0487 7.52312 69.882 7.63 69.6 L 7.63 69.6 L 6.63 68.84 C 6.49264 69.0343 6.44195 69.2769 6.49 69.51 C 6.58965 69.8434 6.94068 70.0328 7.27404 69.9332 C 7.4222 69.8889 7.54889 69.7917 7.63 69.66 L 7.63 69.6 C 7.92 69.01 7.11 68.25 6.63 68.84 C 6.41354 69.0494 6.31923 69.355 6.38 69.65 C 6.47704 69.9841 6.82658 70.1763 7.16071 70.0793 C 7.36787 70.0191 7.52984 69.8571 7.59 69.65 C 7.6072 69.5704 7.63406 69.4931 7.67 69.42 C 7.85788 69.1271 7.77279 68.7374 7.47994 68.5495 C 7.21947 68.3824 6.87621 68.4293 6.67 68.66 C 6.48473 68.8334 6.41148 69.0956 6.48 69.34 C 6.56 69.75 6.62 69.03 6.43 69.18 C 6.24 69.33 6.35 69.46 6.34 69.55 C 6.27 70.2 7.21 70.35 7.5 69.87 C 7.5 69.9167 7.52667 69.9167 7.58 69.87 L 7.1 69.93 C 7.26236 69.9974 7.43462 70.0379 7.61 70.05 C 8.14 70.05 8.32 69.5 8.15 69.11 L 8.15 68.98 C 8 68.08 6.8 68.41 7 69.19 Z" fill="#1D110E"/><path d=" M 161 186.66 L 161 186.66 L 162 185.9 L 161.93 185.81 L 161.22 186.73 L 161.12 186.49 L 161.3 186.05 C 161.254 186.108 161.2 186.158 161.14 186.2 C 160.62 186.58 160.9 187.62 161.62 187.34 C 161.818 187.27 162.006 187.176 162.18 187.06 L 161.32 186.2 C 161.407 186.12 161.407 186.12 161.32 186.2 C 161.043 186.411 160.99 186.807 161.202 187.083 C 161.377 187.312 161.685 187.393 161.95 187.28 C 162.147 187.168 162.318 187.014 162.45 186.83 C 162.83 186.34 162.09 185.63 161.59 185.97 C 161.512 186.036 161.424 186.09 161.33 186.13 L 161.81 187.27 C 162.13 187.03 162.43 186.81 162.39 186.37 C 162.334 185.944 162.012 185.602 161.59 185.52 C 161.254 185.43 160.909 185.63 160.819 185.966 C 160.776 186.126 160.798 186.296 160.88 186.44 C 160.947 186.573 161.039 186.692 161.15 186.79 C 161.382 187.049 161.78 187.072 162.04 186.84 C 162.27 186.634 162.317 186.29 162.15 186.03 L 162.15 186.03 C 161.939 185.753 161.543 185.7 161.267 185.912 C 161.038 186.087 160.957 186.395 161.07 186.66 Z" fill="#1D110E"/><path d=" M 101.54 1.68 L 101.6 2.03 C 101.72 2.69 102.82 2.65 103.28 2.51 C 103.74 2.37 104.62 1.94 104.5 1.25 L 104.43 0.9 C 104.31 0.24 103.21 0.28 102.75 0.42 C 102.29 0.56 101.41 0.99 101.53 1.68 Z" fill="#1D110E"/><path d=" M 102.49 2.36 C 103.49 2.36 105.59 0.84 103.65 0.84 C 102.65 0.84 100.55 2.36 102.49 2.36 Z" fill="#1D110E"/><path d=" M 104.28 0.8 C 104.28 0.67 104.28 0.57 104.28 0.44 C 104.28 0.31 104.08 0.24 103.97 0.16 C 103.49 -0.19 102.58 0.09 102.09 0.28 C 101.9 0.35 100.8 0.85 101.25 1.18 C 101.345 1.23843 101.433 1.30902 101.51 1.39 L 101.44 1.12 C 101.393 1.26626 101.393 1.42374 101.44 1.57 C 101.66 2.31 104.55 1.51 104.34 0.79 Z" fill="#1D110E"/></g></g></svg>