<svg width="128" height="128" viewBox="-0.9 -0.9 1.8 1.8" xmlns="http://www.w3.org/2000/svg" xmlns:xlink="http://www.w3.org/1999/xlink" overflow="hidden"><g stroke-width="0.1" stroke-linejoin="round" opacity="1"><path d="M0-0.547416 0.66468-0.47 0.66468 0.47 0 0.547416Z" id="1" stroke="#000000" fill="#000000"/><path d="M-0.66468-0.47 0-0.547416 0 0.547416-0.66468 0.47Z" id="2" stroke="#000000" fill="#000000"/></g><g stroke-width="0" stroke-linejoin="round" stroke-opacity="0.5" opacity="1"><path d="M0.0067398-0.572041 0.0831242-0.563145 0.0831242-0.455121 0.0067398-0.46204Z" id="1" stroke="#000000" fill="#00D800"/><path d="M0.0963659-0.561771 0.170053-0.553188 0.170053-0.447072 0.0963659-0.453747Z" id="2" stroke="#000000" fill="#00D800"/><path d="M0.182831-0.551862 0.253962-0.543578 0.253962-0.439302 0.182831-0.445746Z" id="3" stroke="#000000" fill="#00D800"/><path d="M0.2663-0.542298 0.335004-0.534295 0.335004-0.431798 0.2663-0.438022Z" id="4" stroke="#000000" fill="#00D800"/><path d="M0.346925-0.533059 0.413326-0.525325 0.413326-0.424546 0.346925-0.430561Z" id="5" stroke="#000000" fill="#00D800"/><path d="M0.42485-0.524129 0.489061-0.516651 0.489061-0.417534 0.42485-0.42335Z" id="6" stroke="#000000" fill="#00D800"/><path d="M0.500208-0.515494 0.562335-0.508258 0.562335-0.410749 0.500208-0.416377Z" id="7" stroke="#000000" fill="#00D800"/><path d="M0.573123-0.507139 0.633267-0.500134 0.633267-0.404182 0.573123-0.40963Z" id="8" stroke="#000000" fill="#00D800"/><path d="M0.643714-0.49905 0.701967-0.492265 0.701967-0.397821 0.643714-0.403098Z" id="9" stroke="#000000" fill="#00D800"/><path d="M0.0067398-0.442803 0.0831242-0.435883 0.0831242-0.327859 0.0067398-0.332802Z" id="10" stroke="#000000" fill="#00D800"/><path d="M0.0963659-0.434852 0.170053-0.428177 0.170053-0.32206 0.0963659-0.326828Z" id="11" stroke="#000000" fill="#00D800"/><path d="M0.182831-0.427182 0.253962-0.420738 0.253962-0.316462 0.182831-0.321065Z" id="12" stroke="#000000" fill="#FFFFFF"/><path d="M0.2663-0.419777 0.335004-0.413553 0.335004-0.311056 0.2663-0.315502Z" id="13" stroke="#000000" fill="#FFFFFF"/><path d="M0.346925-0.412625 0.413326-0.40661 0.413326-0.305831 0.346925-0.310128Z" id="14" stroke="#000000" fill="#00D800"/><path d="M0.42485-0.405713 0.489061-0.399896 0.489061-0.300779 0.42485-0.304934Z" id="15" stroke="#000000" fill="#00D800"/><path d="M0.500208-0.399028 0.562335-0.3934 0.562335-0.295891 0.500208-0.299911Z" id="16" stroke="#000000" fill="#EE0000"/><path d="M0.573123-0.39256 0.633267-0.387112 0.633267-0.291159 0.573123-0.295051Z" id="17" stroke="#000000" fill="#EE0000"/><path d="M0.643714-0.386298 0.701967-0.381021 0.701967-0.286577 0.643714-0.290346Z" id="18" stroke="#000000" fill="#00D800"/><path d="M0.0067398-0.313565 0.0831242-0.308622 0.0831242-0.200598 0.0067398-0.203564Z" id="19" stroke="#000000" fill="#00D800"/><path d="M0.0963659-0.307933 0.170053-0.303165 0.170053-0.197049 0.0963659-0.19991Z" id="20" stroke="#000000" fill="#FFFFFF"/><path d="M0.182831-0.302501 0.253962-0.297898 0.253962-0.193623 0.182831-0.196384Z" id="21" stroke="#000000" fill="#00D800"/><path d="M0.2663-0.297257 0.335004-0.292811 0.335004-0.190314 0.2663-0.192981Z" id="22" stroke="#000000" fill="#00D800"/><path d="M0.346925-0.292192 0.413326-0.287895 0.413326-0.187116 0.346925-0.189694Z" id="23" stroke="#000000" fill="#FFFFFF"/><path d="M0.42485-0.287296 0.489061-0.283141 0.489061-0.184024 0.42485-0.186517Z" id="24" stroke="#000000" fill="#EE0000"/><path d="M0.500208-0.282562 0.562335-0.278542 0.562335-0.181033 0.500208-0.183445Z" id="25" stroke="#000000" fill="#00D800"/><path d="M0.573123-0.277981 0.633267-0.274089 0.633267-0.178137 0.573123-0.180472Z" id="26" stroke="#000000" fill="#00D800"/><path d="M0.643714-0.273546 0.701967-0.269777 0.701967-0.175333 0.643714-0.177594Z" id="27" stroke="#000000" fill="#EE0000"/><path d="M0.0067398-0.184326 0.0831242-0.181361 0.0831242-0.0733367 0.0067398-0.0743252Z" id="28" stroke="#000000" fill="#00D800"/><path d="M0.0963659-0.181015 0.170053-0.178154 0.170053-0.0720372 0.0963659-0.0729908Z" id="29" stroke="#000000" fill="#FFFFFF"/><path d="M0.182831-0.17782 0.253962-0.175059 0.253962-0.0707831 0.182831-0.0717036Z" id="30" stroke="#000000" fill="#00D800"/><path d="M0.2663-0.174737 0.335004-0.172069 0.335004-0.0695718 0.2663-0.070461Z" id="31" stroke="#000000" fill="#00D800"/><path d="M0.346925-0.171758 0.413326-0.16918 0.413326-0.0684014 0.346925-0.0692607Z" id="32" stroke="#000000" fill="#FFFFFF"/><path d="M0.42485-0.168879 0.489061-0.166386 0.489061-0.0672696 0.42485-0.0681006Z" id="33" stroke="#000000" fill="#EE0000"/><path d="M0.500208-0.166096 0.562335-0.163684 0.562335-0.0661747 0.500208-0.0669787Z" id="34" stroke="#000000" fill="#00D800"/><path d="M0.573123-0.163402 0.633267-0.161067 0.633267-0.0651149 0.573123-0.0658932Z" id="35" stroke="#000000" fill="#00D800"/><path d="M0.643714-0.160794 0.701967-0.158533 0.701967-0.0640884 0.643714-0.0648423Z" id="36" stroke="#000000" fill="#EE0000"/><path d="M0.0067398-0.0550877 0.0831242-0.0540992 0.0831242 0.0539247 0.0067398 0.0549132Z" id="37" stroke="#000000" fill="#00D800"/><path d="M0.0963659-0.0540961 0.170053-0.0531425 0.170053 0.0529742 0.0963659 0.0539278Z" id="38" stroke="#000000" fill="#00D800"/><path d="M0.182831-0.0531396 0.253962-0.052219 0.253962 0.0520566 0.182831 0.0529771Z" id="39" stroke="#000000" fill="#00D800"/><path d="M0.2663-0.0522163 0.335004-0.0513272 0.335004 0.0511702 0.2663 0.0520594Z" id="40" stroke="#000000" fill="#FFFFFF"/><path d="M0.346925-0.0513245 0.413326-0.0504652 0.413326 0.0503136 0.346925 0.0511729Z" id="41" stroke="#000000" fill="#00D800"/><path d="M0.42485-0.0504627 0.489061-0.0496317 0.489061 0.0494851 0.42485 0.0503161Z" id="42" stroke="#000000" fill="#EE0000"/><path d="M0.500208-0.0496294 0.562335-0.0488254 0.562335 0.0486835 0.500208 0.0494875Z" id="43" stroke="#000000" fill="#00D800"/><path d="M0.573123-0.0488231 0.633267-0.0480448 0.633267 0.0479074 0.573123 0.0486857Z" id="44" stroke="#000000" fill="#00D800"/><path d="M0.643714-0.0480426 0.701967-0.0472887 0.701967 0.0471557 0.643714 0.0479096Z" id="45" stroke="#000000" fill="#EE0000"/><path d="M0.0067398 0.0741507 0.0831242 0.0731622 0.0831242 0.181186 0.0067398 0.184152Z" id="46" stroke="#000000" fill="#00D800"/><path d="M0.0963659 0.0728226 0.170053 0.071869 0.170053 0.177986 0.0963659 0.180846Z" id="47" stroke="#000000" fill="#00D800"/><path d="M0.182831 0.0715411 0.253962 0.0706206 0.253962 0.174896 0.182831 0.177658Z" id="48" stroke="#000000" fill="#FFFFFF"/><path d="M0.2663 0.0703041 0.335004 0.0694149 0.335004 0.171912 0.2663 0.17458Z" id="49" stroke="#000000" fill="#00D800"/><path d="M0.346925 0.069109 0.413326 0.0682497 0.413326 0.169028 0.346925 0.171606Z" id="50" stroke="#000000" fill="#00D800"/><path d="M0.42485 0.0679539 0.489061 0.067123 0.489061 0.16624 0.42485 0.168733Z" id="51" stroke="#000000" fill="#EE0000"/><path d="M0.500208 0.0668368 0.562335 0.0660328 0.562335 0.163542 0.500208 0.165954Z" id="52" stroke="#000000" fill="#00D800"/><path d="M0.573123 0.0657558 0.633267 0.0649775 0.633267 0.16093 0.573123 0.163265Z" id="53" stroke="#000000" fill="#00D800"/><path d="M0.643714 0.0647093 0.701967 0.0639554 0.701967 0.1584 0.643714 0.160661Z" id="54" stroke="#000000" fill="#EE0000"/><path d="M0.0067398 0.203389 0.0831242 0.200424 0.0831242 0.308447 0.0067398 0.31339Z" id="55" stroke="#000000" fill="#00D800"/><path d="M0.0963659 0.199741 0.170053 0.19688 0.170053 0.302997 0.0963659 0.307765Z" id="56" stroke="#000000" fill="#FFFFFF"/><path d="M0.182831 0.196222 0.253962 0.19346 0.253962 0.297736 0.182831 0.302339Z" id="57" stroke="#000000" fill="#00D800"/><path d="M0.2663 0.192824 0.335004 0.190157 0.335004 0.292654 0.2663 0.2971Z" id="58" stroke="#000000" fill="#00D800"/><path d="M0.346925 0.189543 0.413326 0.186965 0.413326 0.287743 0.346925 0.29204Z" id="59" stroke="#000000" fill="#00D800"/><path d="M0.42485 0.186371 0.489061 0.183878 0.489061 0.282995 0.42485 0.287149Z" id="60" stroke="#000000" fill="#EE0000"/><path d="M0.500208 0.183303 0.562335 0.180891 0.562335 0.2784 0.500208 0.28242Z" id="61" stroke="#000000" fill="#00D800"/><path d="M0.573123 0.180335 0.633267 0.178 0.633267 0.273952 0.573123 0.277844Z" id="62" stroke="#000000" fill="#00D800"/><path d="M0.643714 0.177461 0.701967 0.1752 0.701967 0.269644 0.643714 0.273413Z" id="63" stroke="#000000" fill="#EE0000"/><path d="M0.0067398 0.332628 0.0831242 0.327685 0.0831242 0.435709 0.0067398 0.442628Z" id="64" stroke="#000000" fill="#00D800"/><path d="M0.0963659 0.32666 0.170053 0.321892 0.170053 0.428009 0.0963659 0.434684Z" id="65" stroke="#000000" fill="#FFFFFF"/><path d="M0.182831 0.320903 0.253962 0.3163 0.253962 0.420576 0.182831 0.427019Z" id="66" stroke="#000000" fill="#FFFFFF"/><path d="M0.2663 0.315345 0.335004 0.310899 0.335004 0.413397 0.2663 0.41962Z" id="67" stroke="#000000" fill="#FFFFFF"/><path d="M0.346925 0.309976 0.413326 0.30568 0.413326 0.406458 0.346925 0.412473Z" id="68" stroke="#000000" fill="#FFFFFF"/><path d="M0.42485 0.304787 0.489061 0.300632 0.489061 0.399749 0.42485 0.405566Z" id="69" stroke="#000000" fill="#00D800"/><path d="M0.500208 0.299769 0.562335 0.295749 0.562335 0.393258 0.500208 0.398886Z" id="70" stroke="#000000" fill="#EE0000"/><path d="M0.573123 0.294914 0.633267 0.291022 0.633267 0.386974 0.573123 0.392423Z" id="71" stroke="#000000" fill="#EE0000"/><path d="M0.643714 0.290213 0.701967 0.286444 0.701967 0.380888 0.643714 0.386165Z" id="72" stroke="#000000" fill="#00D800"/><path d="M0.0067398 0.461866 0.0831242 0.454946 0.0831242 0.56297 0.0067398 0.571867Z" id="73" stroke="#000000" fill="#00D800"/><path d="M0.0963659 0.453579 0.170053 0.446903 0.170053 0.55302 0.0963659 0.561602Z" id="74" stroke="#000000" fill="#00D800"/><path d="M0.182831 0.445583 0.253962 0.43914 0.253962 0.543415 0.182831 0.5517Z" id="75" stroke="#000000" fill="#00D800"/><path d="M0.2663 0.437865 0.335004 0.431641 0.335004 0.534139 0.2663 0.542141Z" id="76" stroke="#000000" fill="#00D800"/><path d="M0.346925 0.43041 0.413326 0.424394 0.413326 0.525173 0.346925 0.532907Z" id="77" stroke="#000000" fill="#00D800"/><path d="M0.42485 0.423204 0.489061 0.417387 0.489061 0.516504 0.42485 0.523983Z" id="78" stroke="#000000" fill="#00D800"/><path d="M0.500208 0.416235 0.562335 0.410607 0.562335 0.508116 0.500208 0.515352Z" id="79" stroke="#000000" fill="#00D800"/><path d="M0.573123 0.409493 0.633267 0.404044 0.633267 0.499997 0.573123 0.507002Z" id="80" stroke="#000000" fill="#00D800"/><path d="M0.643714 0.402965 0.701967 0.397688 0.701967 0.492132 0.643714 0.498917Z" id="81" stroke="#000000" fill="#00D800"/><path d="M-0.701967-0.492132-0.643714-0.498917-0.643714-0.402965-0.701967-0.397688Z" id="82" stroke="#000000" fill="#FEFE00"/><path d="M-0.633267-0.499997-0.573123-0.507002-0.573123-0.409493-0.633267-0.404044Z" id="83" stroke="#000000" fill="#FEFE00"/><path d="M-0.562335-0.508116-0.500208-0.515352-0.500208-0.416235-0.562335-0.410607Z" id="84" stroke="#000000" fill="#FEFE00"/><path d="M-0.489061-0.516504-0.42485-0.523983-0.42485-0.423204-0.489061-0.417387Z" id="85" stroke="#000000" fill="#FEFE00"/><path d="M-0.413326-0.525173-0.346925-0.532907-0.346925-0.43041-0.413326-0.424394Z" id="86" stroke="#000000" fill="#FEFE00"/><path d="M-0.335004-0.534139-0.2663-0.542141-0.2663-0.437865-0.335004-0.431641Z" id="87" stroke="#000000" fill="#FEFE00"/><path d="M-0.253962-0.543415-0.182831-0.5517-0.182831-0.445583-0.253962-0.43914Z" id="88" stroke="#000000" fill="#FEFE00"/><path d="M-0.170053-0.55302-0.0963659-0.561602-0.0963659-0.453579-0.170053-0.446903Z" id="89" stroke="#000000" fill="#FEFE00"/><path d="M-0.0831242-0.56297-0.0067398-0.571867-0.0067398-0.461866-0.0831242-0.454946Z" id="90" stroke="#000000" fill="#FEFE00"/><path d="M-0.701967-0.380888-0.643714-0.386165-0.643714-0.290213-0.701967-0.286444Z" id="91" stroke="#000000" fill="#FEFE00"/><path d="M-0.633267-0.386974-0.573123-0.392423-0.573123-0.294914-0.633267-0.291022Z" id="92" stroke="#000000" fill="#FEFE00"/><path d="M-0.562335-0.393258-0.500208-0.398886-0.500208-0.299769-0.562335-0.295749Z" id="93" stroke="#000000" fill="#EE0000"/><path d="M-0.489061-0.399749-0.42485-0.405566-0.42485-0.304787-0.489061-0.300632Z" id="94" stroke="#000000" fill="#EE0000"/><path d="M-0.413326-0.406458-0.346925-0.412473-0.346925-0.309976-0.413326-0.30568Z" id="95" stroke="#000000" fill="#EE0000"/><path d="M-0.335004-0.413397-0.2663-0.41962-0.2663-0.315345-0.335004-0.310899Z" id="96" stroke="#000000" fill="#EE0000"/><path d="M-0.253962-0.420576-0.182831-0.427019-0.182831-0.320903-0.253962-0.3163Z" id="97" stroke="#000000" fill="#EE0000"/><path d="M-0.170053-0.428009-0.0963659-0.434684-0.0963659-0.32666-0.170053-0.321892Z" id="98" stroke="#000000" fill="#FEFE00"/><path d="M-0.0831242-0.435709-0.0067398-0.442628-0.0067398-0.332628-0.0831242-0.327685Z" id="99" stroke="#000000" fill="#FEFE00"/><path d="M-0.701967-0.269644-0.643714-0.273413-0.643714-0.177461-0.701967-0.1752Z" id="100" stroke="#000000" fill="#FEFE00"/><path d="M-0.633267-0.273952-0.573123-0.277844-0.573123-0.180335-0.633267-0.178Z" id="101" stroke="#000000" fill="#FEFE00"/><path d="M-0.562335-0.2784-0.500208-0.28242-0.500208-0.183303-0.562335-0.180891Z" id="102" stroke="#000000" fill="#EE0000"/><path d="M-0.489061-0.282995-0.42485-0.287149-0.42485-0.186371-0.489061-0.183878Z" id="103" stroke="#000000" fill="#FEFE00"/><path d="M-0.413326-0.287743-0.346925-0.29204-0.346925-0.189543-0.413326-0.186965Z" id="104" stroke="#000000" fill="#FEFE00"/><path d="M-0.335004-0.292654-0.2663-0.2971-0.2663-0.192824-0.335004-0.190157Z" id="105" stroke="#000000" fill="#FEFE00"/><path d="M-0.253962-0.297736-0.182831-0.302339-0.182831-0.196222-0.253962-0.19346Z" id="106" stroke="#000000" fill="#FEFE00"/><path d="M-0.170053-0.302997-0.0963659-0.307765-0.0963659-0.199741-0.170053-0.19688Z" id="107" stroke="#000000" fill="#FEFE00"/><path d="M-0.0831242-0.308447-0.0067398-0.31339-0.0067398-0.203389-0.0831242-0.200424Z" id="108" stroke="#000000" fill="#FEFE00"/><path d="M-0.701967-0.1584-0.643714-0.160661-0.643714-0.0647093-0.701967-0.0639554Z" id="109" stroke="#000000" fill="#FEFE00"/><path d="M-0.633267-0.16093-0.573123-0.163265-0.573123-0.0657558-0.633267-0.0649775Z" id="110" stroke="#000000" fill="#FEFE00"/><path d="M-0.562335-0.163542-0.500208-0.165954-0.500208-0.0668368-0.562335-0.0660328Z" id="111" stroke="#000000" fill="#EE0000"/><path d="M-0.489061-0.16624-0.42485-0.168733-0.42485-0.0679539-0.489061-0.067123Z" id="112" stroke="#000000" fill="#EE0000"/><path d="M-0.413326-0.169028-0.346925-0.171606-0.346925-0.069109-0.413326-0.0682497Z" id="113" stroke="#000000" fill="#EE0000"/><path d="M-0.335004-0.171912-0.2663-0.17458-0.2663-0.0703041-0.335004-0.0694149Z" id="114" stroke="#000000" fill="#EE0000"/><path d="M-0.253962-0.174896-0.182831-0.177658-0.182831-0.0715411-0.253962-0.0706206Z" id="115" stroke="#000000" fill="#FEFE00"/><path d="M-0.170053-0.177986-0.0963659-0.180846-0.0963659-0.0728226-0.170053-0.071869Z" id="116" stroke="#000000" fill="#FEFE00"/><path d="M-0.0831242-0.181186-0.0067398-0.184152-0.0067398-0.0741507-0.0831242-0.0731622Z" id="117" stroke="#000000" fill="#FEFE00"/><path d="M-0.701967-0.0471557-0.643714-0.0479096-0.643714 0.0480426-0.701967 0.0472887Z" id="118" stroke="#000000" fill="#FEFE00"/><path d="M-0.633267-0.0479074-0.573123-0.0486857-0.573123 0.0488231-0.633267 0.0480448Z" id="119" stroke="#000000" fill="#FEFE00"/><path d="M-0.562335-0.0486835-0.500208-0.0494875-0.500208 0.0496294-0.562335 0.0488254Z" id="120" stroke="#000000" fill="#FEFE00"/><path d="M-0.489061-0.0494851-0.42485-0.0503161-0.42485 0.0504627-0.489061 0.0496317Z" id="121" stroke="#000000" fill="#FEFE00"/><path d="M-0.413326-0.0503136-0.346925-0.0511729-0.346925 0.0513245-0.413326 0.0504652Z" id="122" stroke="#000000" fill="#FEFE00"/><path d="M-0.335004-0.0511702-0.2663-0.0520594-0.2663 0.0522163-0.335004 0.0513272Z" id="123" stroke="#000000" fill="#FEFE00"/><path d="M-0.253962-0.0520566-0.182831-0.0529771-0.182831 0.0531396-0.253962 0.052219Z" id="124" stroke="#000000" fill="#EE0000"/><path d="M-0.170053-0.0529742-0.0963659-0.0539278-0.0963659 0.0540961-0.170053 0.0531425Z" id="125" stroke="#000000" fill="#FEFE00"/><path d="M-0.0831242-0.0539247-0.0067398-0.0549132-0.0067398 0.0550877-0.0831242 0.0540992Z" id="126" stroke="#000000" fill="#FEFE00"/><path d="M-0.701967 0.0640884-0.643714 0.0648423-0.643714 0.160794-0.701967 0.158533Z" id="127" stroke="#000000" fill="#FEFE00"/><path d="M-0.633267 0.0651149-0.573123 0.0658932-0.573123 0.163402-0.633267 0.161067Z" id="128" stroke="#000000" fill="#FEFE00"/><path d="M-0.562335 0.0661747-0.500208 0.0669787-0.500208 0.166096-0.562335 0.163684Z" id="129" stroke="#000000" fill="#FEFE00"/><path d="M-0.489061 0.0672696-0.42485 0.0681006-0.42485 0.168879-0.489061 0.166386Z" id="130" stroke="#000000" fill="#FEFE00"/><path d="M-0.413326 0.0684014-0.346925 0.0692607-0.346925 0.171758-0.413326 0.16918Z" id="131" stroke="#000000" fill="#FEFE00"/><path d="M-0.335004 0.0695718-0.2663 0.070461-0.2663 0.174737-0.335004 0.172069Z" id="132" stroke="#000000" fill="#FEFE00"/><path d="M-0.253962 0.0707831-0.182831 0.0717036-0.182831 0.17782-0.253962 0.175059Z" id="133" stroke="#000000" fill="#EE0000"/><path d="M-0.170053 0.0720372-0.0963659 0.0729908-0.0963659 0.181015-0.170053 0.178154Z" id="134" stroke="#000000" fill="#FEFE00"/><path d="M-0.0831242 0.0733367-0.0067398 0.0743252-0.0067398 0.184326-0.0831242 0.181361Z" id="135" stroke="#000000" fill="#FEFE00"/><path d="M-0.701967 0.175333-0.643714 0.177594-0.643714 0.273546-0.701967 0.269777Z" id="136" stroke="#000000" fill="#FEFE00"/><path d="M-0.633267 0.178137-0.573123 0.180472-0.573123 0.277981-0.633267 0.274089Z" id="137" stroke="#000000" fill="#FEFE00"/><path d="M-0.562335 0.181033-0.500208 0.183445-0.500208 0.282562-0.562335 0.278542Z" id="138" stroke="#000000" fill="#EE0000"/><path d="M-0.489061 0.184024-0.42485 0.186517-0.42485 0.287296-0.489061 0.283141Z" id="139" stroke="#000000" fill="#FEFE00"/><path d="M-0.413326 0.187116-0.346925 0.189694-0.346925 0.292192-0.413326 0.287895Z" id="140" stroke="#000000" fill="#FEFE00"/><path d="M-0.335004 0.190314-0.2663 0.192981-0.2663 0.297257-0.335004 0.292811Z" id="141" stroke="#000000" fill="#FEFE00"/><path d="M-0.253962 0.193623-0.182831 0.196384-0.182831 0.302501-0.253962 0.297898Z" id="142" stroke="#000000" fill="#EE0000"/><path d="M-0.170053 0.197049-0.0963659 0.19991-0.0963659 0.307933-0.170053 0.303165Z" id="143" stroke="#000000" fill="#FEFE00"/><path d="M-0.0831242 0.200598-0.0067398 0.203564-0.0067398 0.313565-0.0831242 0.308622Z" id="144" stroke="#000000" fill="#FEFE00"/><path d="M-0.701967 0.286577-0.643714 0.290346-0.643714 0.386298-0.701967 0.381021Z" id="145" stroke="#000000" fill="#FEFE00"/><path d="M-0.633267 0.291159-0.573123 0.295051-0.573123 0.39256-0.633267 0.387112Z" id="146" stroke="#000000" fill="#FEFE00"/><path d="M-0.562335 0.295891-0.500208 0.299911-0.500208 0.399028-0.562335 0.3934Z" id="147" stroke="#000000" fill="#FEFE00"/><path d="M-0.489061 0.300779-0.42485 0.304934-0.42485 0.405713-0.489061 0.399896Z" id="148" stroke="#000000" fill="#EE0000"/><path d="M-0.413326 0.305831-0.346925 0.310128-0.346925 0.412625-0.413326 0.40661Z" id="149" stroke="#000000" fill="#EE0000"/><path d="M-0.335004 0.311056-0.2663 0.315502-0.2663 0.419777-0.335004 0.413553Z" id="150" stroke="#000000" fill="#EE0000"/><path d="M-0.253962 0.316462-0.182831 0.321065-0.182831 0.427182-0.253962 0.420738Z" id="151" stroke="#000000" fill="#FEFE00"/><path d="M-0.170053 0.32206-0.0963659 0.326828-0.0963659 0.434852-0.170053 0.428177Z" id="152" stroke="#000000" fill="#FEFE00"/><path d="M-0.0831242 0.327859-0.0067398 0.332802-0.0067398 0.442803-0.0831242 0.435883Z" id="153" stroke="#000000" fill="#FEFE00"/><path d="M-0.701967 0.397821-0.643714 0.403098-0.643714 0.49905-0.701967 0.492265Z" id="154" stroke="#000000" fill="#FEFE00"/><path d="M-0.633267 0.404182-0.573123 0.40963-0.573123 0.507139-0.633267 0.500134Z" id="155" stroke="#000000" fill="#FEFE00"/><path d="M-0.562335 0.410749-0.500208 0.416377-0.500208 0.515494-0.562335 0.508258Z" id="156" stroke="#000000" fill="#FEFE00"/><path d="M-0.489061 0.417534-0.42485 0.42335-0.42485 0.524129-0.489061 0.516651Z" id="157" stroke="#000000" fill="#FEFE00"/><path d="M-0.413326 0.424546-0.346925 0.430561-0.346925 0.533059-0.413326 0.525325Z" id="158" stroke="#000000" fill="#FEFE00"/><path d="M-0.335004 0.431798-0.2663 0.438022-0.2663 0.542298-0.335004 0.534295Z" id="159" stroke="#000000" fill="#FEFE00"/><path d="M-0.253962 0.439302-0.182831 0.445746-0.182831 0.551862-0.253962 0.543578Z" id="160" stroke="#000000" fill="#FEFE00"/><path d="M-0.170053 0.447072-0.0963659 0.453747-0.0963659 0.561771-0.170053 0.553188Z" id="161" stroke="#000000" fill="#FEFE00"/><path d="M-0.0831242 0.455121-0.0067398 0.46204-0.0067398 0.572041-0.0831242 0.563145Z" id="162" stroke="#000000" fill="#FEFE00"/></g></svg>