<svg width="128" height="128" viewBox="-0.9 -0.9 1.8 1.8" xmlns="http://www.w3.org/2000/svg" xmlns:xlink="http://www.w3.org/1999/xlink" overflow="hidden"><g stroke-width="0.1" stroke-linejoin="round"><path d="M0-0.689408 0.699664-0.428455 0-0.0902592-0.699664-0.428455Z" id="1" stroke="#000000"/><path d="M0-0.0902592 0.699664-0.428455 0.633029 0.387649 0 0.797145Z" id="2" stroke="#000000"/><path d="M-0.699664-0.428455 0-0.0902592 0 0.797145-0.633029 0.387649Z" id="3" stroke="#000000"/></g><g stroke-width="0" stroke-linejoin="round" stroke-opacity="0.5"><path d="M0-0.720104 0.194201-0.647673 0-0.569273-0.194201-0.647673Z" id="1" stroke="#000000" fill="#FFFFFF"/><path d="M0.229944-0.63377 0.440148-0.55537 0.246635-0.470233 0.0357434-0.55537Z" id="2" stroke="#000000" fill="#FFFFFF"/><path d="M0.478974-0.540266 0.707245-0.455128 0.515292-0.362345 0.285461-0.455128Z" id="3" stroke="#000000" fill="#FFFFFF"/><path d="M-0.229944-0.63377-0.0357434-0.55537-0.246635-0.470233-0.440148-0.55537Z" id="4" stroke="#000000" fill="#FFFFFF"/><path d="M0-0.540266 0.210892-0.455128 0-0.362345-0.210892-0.455128Z" id="5" stroke="#000000" fill="#FFFFFF"/><path d="M0.249857-0.438659 0.479688-0.345876 0.269687-0.244368 0.0389658-0.345876Z" id="6" stroke="#000000" fill="#FFFFFF"/><path d="M-0.478974-0.540266-0.285461-0.455128-0.515292-0.362345-0.707245-0.455128Z" id="7" stroke="#000000" fill="#FFFFFF"/><path d="M-0.249857-0.438659-0.0389658-0.345876-0.269687-0.244368-0.479688-0.345876Z" id="8" stroke="#000000" fill="#FFFFFF"/><path d="M0-0.327849 0.230721-0.226341 0-0.114817-0.230721-0.226341Z" id="9" stroke="#000000" fill="#FFFFFF"/><path d="M0.0196052-0.0812193 0.250326-0.192743 0.241797 0.0865257 0.0196052 0.206975Z" id="10" stroke="#000000" fill="#EE0000"/><path d="M0.288591-0.21229 0.498592-0.313798 0.483005-0.0430362 0.280062 0.0669783Z" id="11" stroke="#000000" fill="#EE0000"/><path d="M0.533542-0.331656 0.725494-0.42444 0.704047-0.161774 0.517955-0.060894Z" id="12" stroke="#000000" fill="#EE0000"/><path d="M0.0189063 0.255288 0.241098 0.134839 0.233177 0.394196 0.0189063 0.521996Z" id="13" stroke="#000000" fill="#00D800"/><path d="M0.278028 0.113878 0.480971 0.00386371 0.466449 0.256128 0.270107 0.373235Z" id="14" stroke="#000000" fill="#00D800"/><path d="M0.514811-0.0153466 0.700903-0.116226 0.680863 0.129216 0.500289 0.236918Z" id="15" stroke="#000000" fill="#00D800"/><path d="M0.0182554 0.566838 0.232526 0.439038 0.225151 0.680539 0.0182554 0.814376Z" id="16" stroke="#000000" fill="#EE0000"/><path d="M0.268211 0.416908 0.464554 0.299801 0.450991 0.5354 0.260835 0.658409Z" id="17" stroke="#000000" fill="#EE0000"/><path d="M0.497352 0.279458 0.677926 0.171756 0.659158 0.401615 0.483789 0.515058Z" id="18" stroke="#000000" fill="#EE0000"/><path d="M-0.726011-0.423725-0.534059-0.330942-0.518472-0.0601796-0.704564-0.161059Z" id="19" stroke="#000000" fill="#00D800"/><path d="M-0.499215-0.313048-0.289214-0.21154-0.280684 0.0677288-0.483628-0.0422857Z" id="20" stroke="#000000" fill="#00D800"/><path d="M-0.251079-0.191955-0.0203578-0.0804318-0.0203578 0.207762-0.24255 0.0873133Z" id="21" stroke="#000000" fill="#00D800"/><path d="M-0.70139-0.115624-0.515298-0.0147446-0.500776 0.23752-0.68135 0.129818Z" id="22" stroke="#000000" fill="#FFA100"/><path d="M-0.481554 0.00448951-0.27861 0.114504-0.270689 0.373861-0.467032 0.256754Z" id="23" stroke="#000000" fill="#FFA100"/><path d="M-0.241797 0.135488-0.0196052 0.255937-0.0196052 0.522644-0.233876 0.394844Z" id="24" stroke="#000000" fill="#FFA100"/><path d="M-0.678385 0.172263-0.497811 0.279965-0.484248 0.515564-0.659617 0.402121Z" id="25" stroke="#000000" fill="#00D800"/><path d="M-0.4651 0.300321-0.268757 0.417428-0.261381 0.658929-0.451537 0.535921Z" id="26" stroke="#000000" fill="#00D800"/><path d="M-0.233177 0.43957-0.0189063 0.56737-0.0189063 0.814908-0.225801 0.681072Z" id="27" stroke="#000000" fill="#00D800"/></g></svg>