<svg width="128" height="128" viewBox="-0.9 -0.9 1.8 1.8" xmlns="http://www.w3.org/2000/svg" xmlns:xlink="http://www.w3.org/1999/xlink" overflow="hidden"><g stroke-width="0.1" stroke-linejoin="round" opacity="0.5"><path d="M0-0.689408-0.699664-0.428455-0.633029 0.387649 0 0.0637044Z" id="1" stroke="#BFBFBF" fill="#BFBFBF"/><path d="M0.699664-0.428455 0-0.689408 0 0.0637044 0.633029 0.387649Z" id="2" stroke="#BFBFBF" fill="#BFBFBF"/><path d="M-0.633029 0.387649 0 0.797145 0.633029 0.387649 0 0.0637044Z" id="3" stroke="#BFBFBF" fill="#BFBFBF"/></g><g stroke-width="0" stroke-linejoin="round" stroke-opacity="0.5"><path d="M-0.016599-0.70517-0.2108-0.632739-0.204721-0.385093-0.016599-0.464483Z" id="1" stroke="#BFBFBF" fill="#00D800"/><path d="M-0.245857-0.618785-0.456061-0.540385-0.442899-0.285419-0.239779-0.371138Z" id="2" stroke="#BFBFBF" fill="#00D800"/><path d="M-0.494019-0.525276-0.722289-0.440139-0.700842-0.177473-0.480857-0.27031Z" id="3" stroke="#BFBFBF" fill="#00D800"/><path d="M-0.0160952-0.422721-0.204217-0.343331-0.198508-0.110716-0.0160952-0.19612Z" id="4" stroke="#BFBFBF" opacity="0"/><path d="M-0.238154-0.328208-0.441274-0.242489-0.428942-0.0035958-0.232445-0.0955935Z" id="5" stroke="#BFBFBF" opacity="0"/><path d="M-0.477927-0.226156-0.697913-0.133319-0.677873 0.112123-0.465595 0.0127371Z" id="6" stroke="#BFBFBF" opacity="0"/><path d="M-0.0156212-0.15681-0.198034-0.0714061-0.192661 0.147505-0.0156212 0.0569072Z" id="7" stroke="#BFBFBF" opacity="0"/><path d="M-0.23092-0.0552781-0.427417 0.0367196-0.415838 0.261012-0.225547 0.163633Z" id="8" stroke="#BFBFBF" opacity="0"/><path d="M-0.462851 0.0540975-0.675128 0.153484-0.656361 0.383342-0.451272 0.27839Z" id="9" stroke="#BFBFBF" opacity="0"/><path d="M0.72302-0.440818 0.49475-0.525956 0.481588-0.270989 0.701573-0.178152Z" id="10" stroke="#BFBFBF" opacity="0"/><path d="M0.456686-0.541031 0.246482-0.619431 0.240404-0.371784 0.443524-0.286065Z" id="11" stroke="#BFBFBF" opacity="0"/><path d="M0.211336-0.633354 0.0171353-0.705784 0.0171353-0.465097 0.205258-0.385707Z" id="12" stroke="#BFBFBF" fill="#EE0000"/><path d="M0.698593-0.133897 0.478607-0.226734 0.466275 0.0121592 0.678553 0.111545Z" id="13" stroke="#BFBFBF" opacity="0"/><path d="M0.441859-0.243043 0.238739-0.328762 0.233029-0.0961475 0.429526-0.00414976Z" id="14" stroke="#BFBFBF" opacity="0"/><path d="M0.204721-0.343861 0.016599-0.423252 0.016599-0.19665 0.199012-0.111247Z" id="15" stroke="#BFBFBF" opacity="0"/><path d="M0.675763 0.152993 0.463485 0.0536064 0.451906 0.277899 0.656995 0.382851Z" id="16" stroke="#BFBFBF" opacity="0"/><path d="M0.427964 0.0362447 0.231467-0.055753 0.226094 0.163158 0.416385 0.260538Z" id="17" stroke="#BFBFBF" opacity="0"/><path d="M0.198508-0.0718644 0.0160952-0.157268 0.0160952 0.0564489 0.193135 0.147047Z" id="18" stroke="#BFBFBF" opacity="0"/><path d="M-0.639763 0.412393-0.464394 0.525836-0.25815 0.412393-0.434675 0.307441Z" id="19" stroke="#BFBFBF" opacity="0"/><path d="M-0.432085 0.545856-0.241929 0.668864-0.0350339 0.545856-0.22584 0.432412Z" id="20" stroke="#BFBFBF" opacity="0"/><path d="M-0.206895 0.690571 0 0.824408 0.206895 0.690571 0 0.567563Z" id="21" stroke="#BFBFBF" opacity="0"/><path d="M-0.399743 0.28892-0.223218 0.393872-0.0324116 0.28892-0.209451 0.191541Z" id="22" stroke="#BFBFBF" opacity="0"/><path d="M-0.190807 0.412393 0 0.525836 0.190807 0.412393 0 0.307441Z" id="23" stroke="#BFBFBF" opacity="0"/><path d="M0.0350339 0.545856 0.241929 0.668864 0.432085 0.545856 0.22584 0.432412Z" id="24" stroke="#BFBFBF" opacity="0"/><path d="M-0.17704 0.174356 0 0.271736 0.17704 0.174356 0 0.0837585Z" id="25" stroke="#BFBFBF" opacity="0"/><path d="M0.0324116 0.28892 0.223218 0.393872 0.399743 0.28892 0.209451 0.191541Z" id="26" stroke="#BFBFBF" opacity="0"/><path d="M0.25815 0.412393 0.464394 0.525836 0.639763 0.412393 0.434675 0.307441Z" id="27" stroke="#BFBFBF" opacity="0"/></g><g stroke-width="0.1" stroke-linejoin="round" opacity="0.5"><path d="M0-0.689408 0.699664-0.428455 0-0.0902592-0.699664-0.428455Z" id="1" stroke="#BFBFBF" fill="#BFBFBF"/><path d="M0-0.0902592 0.699664-0.428455 0.633029 0.387649 0 0.797145Z" id="2" stroke="#BFBFBF" fill="#BFBFBF"/><path d="M-0.699664-0.428455 0-0.0902592 0 0.797145-0.633029 0.387649Z" id="3" stroke="#BFBFBF" fill="#BFBFBF"/></g><g stroke-width="0" stroke-linejoin="round" stroke-opacity="0.5"><path d="M0-0.720104 0.194201-0.647673 0-0.569273-0.194201-0.647673Z" id="1" stroke="#BFBFBF" opacity="0"/><path d="M0.229944-0.63377 0.440148-0.55537 0.246635-0.470233 0.0357434-0.55537Z" id="2" stroke="#BFBFBF" opacity="0"/><path d="M0.478974-0.540266 0.707245-0.455128 0.515292-0.362345 0.285461-0.455128Z" id="3" stroke="#BFBFBF" opacity="0"/><path d="M-0.229944-0.63377-0.0357434-0.55537-0.246635-0.470233-0.440148-0.55537Z" id="4" stroke="#BFBFBF" opacity="0"/><path d="M0-0.540266 0.210892-0.455128 0-0.362345-0.210892-0.455128Z" id="5" stroke="#BFBFBF" opacity="0"/><path d="M0.249857-0.438659 0.479688-0.345876 0.269687-0.244368 0.0389658-0.345876Z" id="6" stroke="#BFBFBF" opacity="0"/><path d="M-0.478974-0.540266-0.285461-0.455128-0.515292-0.362345-0.707245-0.455128Z" id="7" stroke="#BFBFBF" opacity="0"/><path d="M-0.249857-0.438659-0.0389658-0.345876-0.269687-0.244368-0.479688-0.345876Z" id="8" stroke="#BFBFBF" opacity="0"/><path d="M0-0.327849 0.230721-0.226341 0-0.114817-0.230721-0.226341Z" id="9" stroke="#BFBFBF" opacity="0"/><path d="M0.0196052-0.0812193 0.250326-0.192743 0.241797 0.0865257 0.0196052 0.206975Z" id="10" stroke="#BFBFBF" fill="#00D800"/><path d="M0.288591-0.21229 0.498592-0.313798 0.483005-0.0430362 0.280062 0.0669783Z" id="11" stroke="#BFBFBF" opacity="0"/><path d="M0.533542-0.331656 0.725494-0.42444 0.704047-0.161774 0.517955-0.060894Z" id="12" stroke="#BFBFBF" opacity="0"/><path d="M0.0189063 0.255288 0.241098 0.134839 0.233177 0.394196 0.0189063 0.521996Z" id="13" stroke="#BFBFBF" opacity="0"/><path d="M0.278028 0.113878 0.480971 0.00386371 0.466449 0.256128 0.270107 0.373235Z" id="14" stroke="#BFBFBF" opacity="0"/><path d="M0.514811-0.0153466 0.700903-0.116226 0.680863 0.129216 0.500289 0.236918Z" id="15" stroke="#BFBFBF" opacity="0"/><path d="M0.0182554 0.566838 0.232526 0.439038 0.225151 0.680539 0.0182554 0.814376Z" id="16" stroke="#BFBFBF" fill="#00D800"/><path d="M0.268211 0.416908 0.464554 0.299801 0.450991 0.5354 0.260835 0.658409Z" id="17" stroke="#BFBFBF" opacity="0"/><path d="M0.497352 0.279458 0.677926 0.171756 0.659158 0.401615 0.483789 0.515058Z" id="18" stroke="#BFBFBF" opacity="0"/><path d="M-0.726011-0.423725-0.534059-0.330942-0.518472-0.0601796-0.704564-0.161059Z" id="19" stroke="#BFBFBF" fill="#EE0000"/><path d="M-0.499215-0.313048-0.289214-0.21154-0.280684 0.0677288-0.483628-0.0422857Z" id="20" stroke="#BFBFBF" opacity="0"/><path d="M-0.251079-0.191955-0.0203578-0.0804318-0.0203578 0.207762-0.24255 0.0873133Z" id="21" stroke="#BFBFBF" fill="#EE0000"/><path d="M-0.70139-0.115624-0.515298-0.0147446-0.500776 0.23752-0.68135 0.129818Z" id="22" stroke="#BFBFBF" opacity="0"/><path d="M-0.481554 0.00448951-0.27861 0.114504-0.270689 0.373861-0.467032 0.256754Z" id="23" stroke="#BFBFBF" opacity="0"/><path d="M-0.241797 0.135488-0.0196052 0.255937-0.0196052 0.522644-0.233876 0.394844Z" id="24" stroke="#BFBFBF" opacity="0"/><path d="M-0.678385 0.172263-0.497811 0.279965-0.484248 0.515564-0.659617 0.402121Z" id="25" stroke="#BFBFBF" opacity="0"/><path d="M-0.4651 0.300321-0.268757 0.417428-0.261381 0.658929-0.451537 0.535921Z" id="26" stroke="#BFBFBF" fill="#EE0000"/><path d="M-0.233177 0.43957-0.0189063 0.56737-0.0189063 0.814908-0.225801 0.681072Z" id="27" stroke="#BFBFBF" fill="#EE0000"/></g></svg>