<svg xmlns="http://www.w3.org/2000/svg" width="300" height="100" viewBox="0 0 300 100">
    <!-- NOTE: 共享 SVG 图标库——calc 和 recon 键盘通过 <use href="/assets/icons.svg#xxx"> 引用 -->

    <!-- 退格键图标——尖角矩形 + 叉号 -->
    <symbol id="icon-backspace" viewBox="0 0 33 22" fill="none" stroke="currentColor" stroke-width="1.8" stroke-linecap="round" stroke-linejoin="round">
        <path d="M11 1h19a2 2 0 0 1 2 2v16a2 2 0 0 1-2 2H11L1 11z"/>
        <line x1="17" y1="7" x2="25" y2="15"/>
        <line x1="25" y1="7" x2="17" y2="15"/>
    </symbol>

    <!-- NOTE: iOS 风格 Shift 箭头——直角 90°
         实心态用同色 fill+stroke+stroke-linejoin:round 自动圆角，无需 Q 曲线 -->

    <!-- Shift 关闭态——空心描边 -->
    <symbol id="icon-shift-off" viewBox="0 0 24 24" fill="none" stroke="currentColor" stroke-width="2" stroke-linejoin="round">
        <path d="M4 14 L12 6 L20 14 H16 V19 H8 V14 Z"/>
    </symbol>

    <!-- Shift 单次态——实心，同色描边实现圆角 -->
    <symbol id="icon-shift-on" viewBox="0 0 24 24" stroke-linejoin="round">
        <path d="M4 14 L12 6 L20 14 H16 V19 H8 V14 Z" fill="currentColor" stroke="currentColor" stroke-width="2"/>
    </symbol>

    <!-- Shift Capslock 态——实心圆角 + 圆角下划线 -->
    <symbol id="icon-shift-caps" viewBox="0 0 24 28" stroke-linejoin="round">
        <path d="M4 14 L12 6 L20 14 H16 V19 H8 V14 Z" fill="currentColor" stroke="currentColor" stroke-width="2"/>
        <rect x="8" y="23" width="8" height="3" rx="1.5" fill="currentColor"/>
    </symbol>

    <!-- NOTE: 预览区 -->
    <text x="10" y="15" font-size="10" fill="#999">backspace</text>
    <use href="#icon-backspace" x="10" y="25" width="33" height="22" stroke="#333"/>

    <text x="60" y="15" font-size="10" fill="#999">shift-off</text>
    <use href="#icon-shift-off" x="65" y="20" width="24" height="24" stroke="#666"/>

    <text x="110" y="15" font-size="10" fill="#999">shift-on</text>
    <use href="#icon-shift-on" x="115" y="20" width="24" height="24" fill="#333" stroke="#333"/>

    <text x="160" y="15" font-size="10" fill="#999">shift-caps</text>
    <use href="#icon-shift-caps" x="168" y="18" width="24" height="28" fill="#333" stroke="#333"/>
</svg>
