<svg width="128" height="128" viewBox="-0.9 -0.9 1.8 1.8" xmlns="http://www.w3.org/2000/svg" xmlns:xlink="http://www.w3.org/1999/xlink" overflow="hidden"><g stroke-width="0.1" stroke-linejoin="round" opacity="0.5"><path d="M0.453404-0.619362-0.453404-0.619362-0.413513 0.151356 0.413513 0.151356Z" id="1" stroke="#BFBFBF" fill="#BFBFBF"/><path d="M-0.487857 0.666425 0.487857 0.666425 0.413513 0.151356-0.413513 0.151356Z" id="2" stroke="#BFBFBF" fill="#BFBFBF"/><path d="M0.544361-0.19925 0.453404-0.619362 0.413513 0.151356 0.487857 0.666425Z" id="3" stroke="#BFBFBF" fill="#BFBFBF"/></g><g stroke-width="0" stroke-linejoin="round" stroke-opacity="0.5"><path d="M0.457852-0.63712 0.184523-0.63712 0.180266-0.390337 0.445079-0.390337Z" id="1" stroke="#BFBFBF" opacity="0"/><path d="M0.13704-0.63712-0.136289-0.63712-0.132031-0.390337 0.132782-0.390337Z" id="2" stroke="#BFBFBF" opacity="0"/><path d="M-0.183772-0.63712-0.457101-0.63712-0.444328-0.390337-0.179514-0.390337Z" id="3" stroke="#BFBFBF" opacity="0"/><path d="M0.443599-0.348103 0.178785-0.348103 0.174785-0.116231 0.431598-0.116231Z" id="4" stroke="#BFBFBF" opacity="0"/><path d="M0.13276-0.348103-0.132054-0.348103-0.128053-0.116231 0.128759-0.116231Z" id="5" stroke="#BFBFBF" opacity="0"/><path d="M-0.17808-0.348103-0.442893-0.348103-0.430892-0.116231-0.174079-0.116231Z" id="6" stroke="#BFBFBF" opacity="0"/><path d="M0.430206-0.0765129 0.173394-0.0765129 0.169628 0.141758 0.418909 0.141758Z" id="7" stroke="#BFBFBF" opacity="0"/><path d="M0.128739-0.0765129-0.128074-0.0765129-0.124308 0.141758 0.124973 0.141758Z" id="8" stroke="#BFBFBF" opacity="0"/><path d="M-0.172729-0.0765129-0.429542-0.0765129-0.418244 0.141758-0.168963 0.141758Z" id="9" stroke="#BFBFBF" opacity="0"/><path d="M-0.492313 0.693715-0.198215 0.693715-0.189901 0.520908-0.467371 0.520908Z" id="10" stroke="#BFBFBF" opacity="0"/><path d="M-0.147783 0.693715 0.146315 0.693715 0.138001 0.520908-0.139468 0.520908Z" id="11" stroke="#BFBFBF" fill="#A83DD9"/><path d="M0.196748 0.693715 0.490846 0.693715 0.465903 0.520908 0.188434 0.520908Z" id="12" stroke="#BFBFBF" opacity="0"/><path d="M-0.464515 0.492044-0.187045 0.492044-0.179621 0.337733-0.442242 0.337733Z" id="13" stroke="#BFBFBF" opacity="0"/><path d="M-0.13939 0.492044 0.13808 0.492044 0.130655 0.337733-0.131966 0.337733Z" id="14" stroke="#BFBFBF" opacity="0"/><path d="M0.185735 0.492044 0.463205 0.492044 0.440932 0.337733 0.178311 0.337733Z" id="15" stroke="#BFBFBF" opacity="0"/><path d="M-0.439688 0.311885-0.177067 0.311885-0.170397 0.17325-0.419678 0.17325Z" id="16" stroke="#BFBFBF" opacity="0"/><path d="M-0.131899 0.311885 0.130722 0.311885 0.124052 0.17325-0.125229 0.17325Z" id="17" stroke="#BFBFBF" fill="#A83DD9"/><path d="M0.17589 0.311885 0.438511 0.311885 0.418501 0.17325 0.16922 0.17325Z" id="18" stroke="#BFBFBF" opacity="0"/><path d="M0.574964-0.200864 0.544111-0.343367 0.527997-0.0750185 0.556666 0.0794649Z" id="19" stroke="#BFBFBF" opacity="0"/><path d="M0.539147-0.368017 0.511934-0.49371 0.497636-0.236529 0.523034-0.0996683Z" id="20" stroke="#BFBFBF" opacity="0"/><path d="M0.507534-0.515573 0.483352-0.627265 0.470578-0.380482 0.493236-0.258392Z" id="21" stroke="#BFBFBF" opacity="0"/><path d="M0.553726 0.12628 0.525057-0.0282038 0.510031 0.222034 0.536739 0.386515Z" id="22" stroke="#BFBFBF" opacity="0"/><path d="M0.520431-0.0547449 0.495033-0.191605 0.481647 0.0491778 0.505405 0.195493Z" id="23" stroke="#BFBFBF" opacity="0"/><path d="M0.490915-0.21524 0.468258-0.33733 0.456257-0.105459 0.477529 0.0255429Z" id="24" stroke="#BFBFBF" opacity="0"/><path d="M0.534001 0.430115 0.507293 0.265634 0.493248 0.499535 0.518191 0.672342Z" id="25" stroke="#BFBFBF" opacity="0"/><path d="M0.502971 0.237506 0.479213 0.0911903 0.466653 0.317095 0.488926 0.471406Z" id="26" stroke="#BFBFBF" opacity="0"/><path d="M0.475351 0.0660477 0.454079-0.0649539 0.442781 0.153317 0.462792 0.291952Z" id="27" stroke="#BFBFBF" opacity="0"/></g><g stroke-width="0.1" stroke-linejoin="round" opacity="0.5"><path d="M-0.453404-0.619362-0.544361-0.19925-0.487857 0.666425-0.413513 0.151356Z" id="1" stroke="#BFBFBF" fill="#BFBFBF"/><path d="M-0.453404-0.619362 0.453404-0.619362 0.544361-0.19925-0.544361-0.19925Z" id="2" stroke="#BFBFBF" fill="#BFBFBF"/><path d="M-0.544361-0.19925 0.544361-0.19925 0.487857 0.666425-0.487857 0.666425Z" id="3" stroke="#BFBFBF" fill="#BFBFBF"/></g><g stroke-width="0" stroke-linejoin="round" stroke-opacity="0.5"><path d="M-0.483217-0.626348-0.507399-0.514656-0.493101-0.257474-0.470444-0.379564Z" id="1" stroke="#BFBFBF" opacity="0"/><path d="M-0.511774-0.492725-0.538987-0.367032-0.522874-0.0986829-0.497476-0.235543Z" id="2" stroke="#BFBFBF" opacity="0"/><path d="M-0.543918-0.34231-0.574771-0.199807-0.556473 0.080522-0.527805-0.0739615Z" id="3" stroke="#BFBFBF" opacity="0"/><path d="M-0.468136-0.336544-0.490793-0.214454-0.477406 0.0263292-0.456134-0.104672Z" id="4" stroke="#BFBFBF" opacity="0"/><path d="M-0.494888-0.190771-0.520286-0.0539106-0.505261 0.196327-0.481502 0.050012Z" id="5" stroke="#BFBFBF" opacity="0"/><path d="M-0.524884-0.0273217-0.553553 0.127162-0.536567 0.387397-0.509858 0.222916Z" id="6" stroke="#BFBFBF" opacity="0"/><path d="M-0.453967-0.0642804-0.475239 0.0667212-0.46268 0.292625-0.44267 0.153991Z" id="7" stroke="#BFBFBF" opacity="0"/><path d="M-0.479082 0.0918959-0.50284 0.238211-0.488795 0.472112-0.466522 0.3178Z" id="8" stroke="#BFBFBF" opacity="0"/><path d="M-0.507137 0.266369-0.533846 0.43085-0.518035 0.673077-0.493092 0.50027Z" id="9" stroke="#BFBFBF" opacity="0"/><path d="M-0.458939-0.64904-0.18561-0.64904-0.193671-0.537348-0.483121-0.537348Z" id="10" stroke="#BFBFBF" opacity="0"/><path d="M-0.135953-0.64904 0.137376-0.64904 0.145436-0.537348-0.144014-0.537348Z" id="11" stroke="#BFBFBF" opacity="0"/><path d="M0.187033-0.64904 0.460361-0.64904 0.484543-0.537348 0.195093-0.537348Z" id="12" stroke="#BFBFBF" opacity="0"/><path d="M-0.486055-0.516403-0.196605-0.516403-0.205676-0.39071-0.513268-0.39071Z" id="13" stroke="#BFBFBF" opacity="0"/><path d="M-0.143925-0.516403 0.145525-0.516403 0.154597-0.39071-0.152996-0.39071Z" id="14" stroke="#BFBFBF" opacity="0"/><path d="M0.198206-0.516403 0.487656-0.516403 0.514869-0.39071 0.207277-0.39071Z" id="15" stroke="#BFBFBF" opacity="0"/><path d="M-0.516577-0.367045-0.208985-0.367045-0.219269-0.224542-0.54743-0.224542Z" id="16" stroke="#BFBFBF" opacity="0"/><path d="M-0.152889-0.367045 0.154704-0.367045 0.164988-0.224542-0.163173-0.224542Z" id="17" stroke="#BFBFBF" opacity="0"/><path d="M0.2108-0.367045 0.518392-0.367045 0.549245-0.224542 0.221084-0.224542Z" id="18" stroke="#BFBFBF" opacity="0"/><path d="M-0.549614-0.187233-0.221453-0.187233-0.215354 0.0930958-0.531316 0.0930958Z" id="19" stroke="#BFBFBF" opacity="0"/><path d="M-0.164619-0.187233 0.163542-0.187233 0.157443 0.0930958-0.158519 0.0930958Z" id="20" stroke="#BFBFBF" opacity="0"/><path d="M0.220377-0.187233 0.548538-0.187233 0.53024 0.0930958 0.214278 0.0930958Z" id="21" stroke="#BFBFBF" opacity="0"/><path d="M-0.529202 0.140793-0.21324 0.140793-0.207578 0.401028-0.512216 0.401028Z" id="22" stroke="#BFBFBF" opacity="0"/><path d="M-0.158481 0.140793 0.157482 0.140793 0.15182 0.401028-0.152819 0.401028Z" id="23" stroke="#BFBFBF" opacity="0"/><path d="M0.212241 0.140793 0.528203 0.140793 0.511217 0.401028 0.206579 0.401028Z" id="24" stroke="#BFBFBF" opacity="0"/><path d="M-0.510252 0.445363-0.205614 0.445363-0.200344 0.68759-0.494442 0.68759Z" id="25" stroke="#BFBFBF" opacity="0"/><path d="M-0.152784 0.445363 0.151854 0.445363 0.146584 0.68759-0.147514 0.68759Z" id="26" stroke="#BFBFBF" opacity="0"/><path d="M0.204684 0.445363 0.509322 0.445363 0.493512 0.68759 0.199414 0.68759Z" id="27" stroke="#BFBFBF" opacity="0"/></g></svg>