<svg version="1.1" width="150" height="150" viewBox="-0.9 -0.9 1.8 1.8" xmlns="http://www.w3.org/2000/svg" xmlns:xlink="http://www.w3.org/1999/xlink" overflow="hidden"><rect x="-0.9" y="-0.9" width="1.8" height="1.8" fill="#FFFFFF"/><g stroke-width="0.1" stroke-linejoin="round" opacity="1"><path d=" M 0.267398 -0.756371 L 0.563471 -0.272546 L 0.616386 0.531972 L 0.297385 0.15008 Z" stroke="#000000" fill="#000000"/><path d=" M -0.680014 0.328917 L 0.297385 0.15008 L 0.616386 0.531972 L -0.232959 0.658957 Z" stroke="#000000" fill="#000000"/><path d=" M -0.616176 -0.53179 L 0.267398 -0.756371 L 0.297385 0.15008 L -0.680014 0.328917 Z" stroke="#000000" fill="#000000"/></g><g stroke-width="0" stroke-linejoin="round" stroke-opacity="0.5" opacity="1"><path d=" M 0.291805 -0.777557 L 0.367133 -0.65446 L 0.374983 -0.470495 L 0.298058 -0.588538 Z" stroke="#000000" fill="#404040"/><path d=" M 0.380009 -0.634039 L 0.44929 -0.520824 L 0.458461 -0.341731 L 0.387859 -0.450074 Z" stroke="#000000" fill="#404040"/><path d=" M 0.461141 -0.50203 L 0.525075 -0.397553 L 0.535342 -0.223146 L 0.470312 -0.322936 Z" stroke="#000000" fill="#404040"/><path d=" M 0.536018 -0.380198 L 0.595201 -0.283484 L 0.606376 -0.113579 L 0.546285 -0.205791 Z" stroke="#000000" fill="#404040"/><path d=" M 0.299338 -0.554804 L 0.376262 -0.43676 L 0.38451 -0.243457 L 0.305923 -0.35575 Z" stroke="#000000" fill="#404040"/><path d=" M 0.3894 -0.417271 L 0.460003 -0.308928 L 0.46962 -0.121126 L 0.397648 -0.223967 Z" stroke="#000000" fill="#FEFE00"/><path d=" M 0.47207 -0.291027 L 0.537099 -0.191237 L 0.547845 -0.00869232 L 0.481687 -0.103225 Z" stroke="#000000" fill="#FEFE00"/><path d=" M 0.548221 -0.174738 L 0.608312 -0.0825261 L 0.619989 0.0949995 L 0.558967 0.00780623 Z" stroke="#000000" fill="#404040"/><path d=" M 0.307269 -0.320242 L 0.385857 -0.207949 L 0.394534 -0.00457693 L 0.314214 -0.110331 Z" stroke="#000000" fill="#404040"/><path d=" M 0.399267 -0.189514 L 0.471239 -0.0866735 L 0.481335 0.110487 L 0.407944 0.0138575 Z" stroke="#000000" fill="#FEFE00"/><path d=" M 0.483529 -0.0697784 L 0.549687 0.0247548 L 0.560947 0.21602 L 0.493626 0.127383 Z" stroke="#000000" fill="#FEFE00"/><path d=" M 0.560993 0.0402957 L 0.622014 0.127489 L 0.634227 0.313159 L 0.572253 0.231561 Z" stroke="#000000" fill="#404040"/><path d=" M 0.315633 -0.0729055 L 0.395954 0.0328488 L 0.405095 0.247096 L 0.322966 0.148775 Z" stroke="#000000" fill="#404040"/><path d=" M 0.409646 0.0500877 L 0.483037 0.146718 L 0.49365 0.353956 L 0.418788 0.264335 Z" stroke="#000000" fill="#404040"/><path d=" M 0.495559 0.162482 L 0.56288 0.251119 L 0.57469 0.451746 L 0.506172 0.369719 Z" stroke="#000000" fill="#404040"/><path d=" M 0.574374 0.26559 L 0.636348 0.347187 L 0.649134 0.541576 L 0.586185 0.466217 Z" stroke="#000000" fill="#404040"/><path d=" M -0.695609 0.354268 L -0.487516 0.316193 L -0.380421 0.403636 L -0.581534 0.438484 Z" stroke="#000000" fill="#404040"/><path d=" M -0.450738 0.309642 L -0.23441 0.27006 L -0.134925 0.360919 L -0.343643 0.397085 Z" stroke="#000000" fill="#404040"/><path d=" M -0.196196 0.263253 L 0.0288655 0.222073 L 0.12005 0.316553 L -0.0967116 0.354112 Z" stroke="#000000" fill="#404040"/><path d=" M 0.0686015 0.214995 L 0.302937 0.172119 L 0.385066 0.270439 L 0.159786 0.309475 Z" stroke="#000000" fill="#404040"/><path d=" M -0.562811 0.452984 L -0.361697 0.418136 L -0.263573 0.498254 L -0.458124 0.530269 Z" stroke="#000000" fill="#404040"/><path d=" M -0.326164 0.412134 L -0.117446 0.375968 L -0.0264457 0.459079 L -0.22804 0.492252 Z" stroke="#000000" fill="#EE0000"/><path d=" M -0.0805866 0.369742 L 0.136175 0.332182 L 0.21944 0.418456 L 0.010414 0.452852 Z" stroke="#000000" fill="#EE0000"/><path d=" M 0.174437 0.325719 L 0.399717 0.286683 L 0.474579 0.376304 L 0.257702 0.411993 Z" stroke="#000000" fill="#404040"/><path d=" M -0.440925 0.543589 L -0.246374 0.511574 L -0.156138 0.585252 L -0.344514 0.614765 Z" stroke="#000000" fill="#404040"/><path d=" M -0.212009 0.506055 L -0.010415 0.472881 L 0.0731426 0.549194 L -0.121774 0.579732 Z" stroke="#000000" fill="#EE0000"/><path d=" M 0.0251789 0.467164 L 0.234205 0.432768 L 0.310539 0.51186 L 0.108736 0.543477 Z" stroke="#000000" fill="#EE0000"/><path d=" M 0.271095 0.426843 L 0.487972 0.391154 L 0.556491 0.473181 L 0.347429 0.505935 Z" stroke="#000000" fill="#404040"/><path d=" M -0.328661 0.627044 L -0.140285 0.59753 L -0.0570237 0.665513 L -0.239581 0.692807 Z" stroke="#000000" fill="#404040"/><path d=" M -0.107018 0.592438 L 0.0878979 0.561899 L 0.16489 0.632216 L -0.023757 0.66042 Z" stroke="#000000" fill="#404040"/><path d=" M 0.122306 0.556632 L 0.324109 0.525015 L 0.394344 0.597787 L 0.199298 0.626948 Z" stroke="#000000" fill="#404040"/><path d=" M 0.359719 0.519563 L 0.56878 0.486809 L 0.631729 0.562168 L 0.429953 0.592336 Z" stroke="#000000" fill="#404040"/><path d=" M -0.639604 -0.553865 L -0.450376 -0.601961 L -0.459378 -0.419346 L -0.652995 -0.373319 Z" stroke="#000000" fill="#404040"/><path d=" M -0.41597 -0.610415 L -0.219982 -0.66023 L -0.224266 -0.475513 L -0.424972 -0.4278 Z" stroke="#000000" fill="#404040"/><path d=" M -0.184319 -0.668993 L 0.0187987 -0.72062 L 0.0195893 -0.533768 L -0.188603 -0.484276 Z" stroke="#000000" fill="#404040"/><path d=" M 0.0557889 -0.729708 L 0.266432 -0.783248 L 0.272685 -0.59423 L 0.0565795 -0.542856 Z" stroke="#000000" fill="#404040"/><path d=" M -0.65501 -0.340467 L -0.461394 -0.386495 L -0.470848 -0.19472 L -0.669061 -0.151029 Z" stroke="#000000" fill="#404040"/><path d=" M -0.426164 -0.394556 L -0.225458 -0.442269 L -0.229961 -0.248112 L -0.435618 -0.202781 Z" stroke="#000000" fill="#0000F2"/><path d=" M -0.188908 -0.450631 L 0.0192847 -0.500124 L 0.0201165 -0.303541 L -0.193411 -0.256475 Z" stroke="#000000" fill="#404040"/><path d=" M 0.0572303 -0.508806 L 0.273336 -0.560179 L 0.27992 -0.361125 L 0.0580621 -0.312223 Z" stroke="#000000" fill="#404040"/><path d=" M -0.671178 -0.116522 L -0.472964 -0.160213 L -0.482904 0.0414284 L -0.685938 0.0824809 Z" stroke="#000000" fill="#404040"/><path d=" M -0.43687 -0.16783 L -0.231213 -0.213161 L -0.235952 -0.00882312 L -0.44681 0.0338114 Z" stroke="#000000" fill="#0000F2"/><path d=" M -0.193731 -0.221071 L 0.0197964 -0.268137 L 0.0206727 -0.0610424 L -0.19847 -0.0167326 Z" stroke="#000000" fill="#404040"/><path d=" M 0.0587482 -0.276356 L 0.280607 -0.325258 L 0.287551 -0.115347 L 0.0596245 -0.0692617 Z" stroke="#000000" fill="#404040"/><path d=" M -0.688164 0.118771 L -0.48513 0.0777189 L -0.495595 0.290008 L -0.703688 0.328084 Z" stroke="#000000" fill="#404040"/><path d=" M -0.448128 0.0706041 L -0.23727 0.0279695 L -0.242265 0.243312 L -0.458593 0.282894 Z" stroke="#000000" fill="#404040"/><path d=" M -0.198807 0.0205741 L 0.0203361 -0.0237357 L 0.0212605 0.194736 L -0.203801 0.235916 Z" stroke="#000000" fill="#404040"/><path d=" M 0.0603489 -0.0314286 L 0.288275 -0.0775144 L 0.295609 0.144166 L 0.0612733 0.187043 Z" stroke="#000000" fill="#404040"/></g></svg>