<svg version="1.1" width="640" height="640" viewBox="0 -16 480.008 480" xmlns="http://www.w3.org/2000/svg" xmlns:xlink="http://www.w3.org/1999/xlink" overflow="hidden"><path d=" M 112.008 224.004 C 63.5586 223.961 20.6367 192.746 5.67188 146.664 C -9.29297 100.582 7.09766 50.1055 46.2773 21.6055 C 85.457 -6.89453 138.531 -6.94531 177.766 21.4844 C 216.996 49.9102 233.48 100.359 218.602 146.469 C 217.836 149.324 215.555 151.523 212.676 152.188 C 209.797 152.855 206.781 151.879 204.84 149.648 C 202.898 147.422 202.344 144.301 203.402 141.539 C 216.191 101.984 202.066 58.6914 168.41 34.2852 C 134.754 9.88281 89.2148 9.91406 55.5938 34.3633 C 21.9727 58.8164 7.91016 102.129 20.7539 141.668 C 33.6016 181.207 70.4375 207.984 112.008 208.004 C 116.957 208.004 121.902 207.629 126.793 206.875 C 129.668 206.332 132.613 207.398 134.473 209.664 C 136.328 211.93 136.797 215.027 135.699 217.742 C 134.598 220.457 132.102 222.352 129.191 222.684 C 123.508 223.563 117.762 224.004 112.008 224.004 Z" fill="#EE6D20"/><path d=" M 104.008 191.563 C 103.715 191.563 103.422 191.547 103.129 191.516 C 68.3164 187.617 40.0859 161.52 33.4727 127.121 C 26.8555 92.7188 43.3906 58.0156 74.2773 41.4844 C 105.164 24.9492 143.211 30.4336 168.168 55.0156 C 193.129 79.5977 199.191 117.559 183.129 148.691 C 181.844 151.285 179.262 152.98 176.375 153.133 C 173.488 153.281 170.742 151.863 169.195 149.418 C 167.652 146.973 167.547 143.883 168.922 141.34 C 173.617 132.277 176.047 122.211 176.008 112.004 C 176.004 77.5859 148.781 49.332 114.383 48.0547 C 79.9883 46.7773 50.7422 72.9297 48.1836 107.254 C 45.6289 141.578 70.6758 171.777 104.879 175.613 C 109.102 176.078 112.227 179.762 111.992 184 C 111.762 188.242 108.258 191.563 104.008 191.563 Z" fill="#EE6D20"/><path d=" M 280.008 176.004 L 280.008 272.004 L 333.48 272.004 C 356.969 272.004 376.008 291.043 376.008 314.531 C 376.008 332.258 365.012 348.125 348.418 354.355 L 312.008 368.004 L 312.008 408.004 L 356.008 408.004 C 420.074 408.004 472.008 356.07 472.008 292.004 C 472.008 227.938 420.074 176.004 356.008 176.004 Z" fill="#FD9226"/><path d=" M 280.008 272.004 L 215.289 272.004 C 195.176 272.004 175.801 264.43 161.023 250.789 L 95.0391 189.883 C 92.6172 187.648 91.8125 184.156 93.0156 181.09 C 94.2148 178.02 97.1758 176 100.473 176.004 L 280.008 176.004 Z" fill="#FD9226"/><g fill="#FD7422"><path d=" M 312.008 384.004 C 291.195 384.004 270.902 377.5 253.969 365.402 L 224.008 344.004 L 288.008 344.004 C 301.262 344.004 312.008 354.75 312.008 368.004 Z"/><path d=" M 312.008 384.004 C 291.195 384.004 270.902 390.508 253.969 402.605 L 224.008 424.004 L 288.008 424.004 C 301.262 424.004 312.008 413.258 312.008 400.004 Z"/><path d=" M 356.008 176.004 L 280.008 176.004 L 280.008 272.004 L 333.48 272.004 C 339.438 272.016 345.328 273.289 350.762 275.738 L 382.922 179.27 C 374.109 177.133 365.074 176.039 356.008 176.004 Z"/><path d=" M 376.008 314.531 C 375.988 316.363 375.848 318.191 375.586 320.004 L 468.465 320.004 C 476.184 289.711 471.168 257.578 454.586 231.078 L 370.586 294.094 C 374.102 300.332 375.969 307.367 376.008 314.531 Z"/><path d=" M 348.418 354.355 L 347.559 354.668 L 365.16 407.539 C 386.352 405.895 406.676 398.418 423.879 385.941 L 365.609 342.219 C 360.988 347.645 355.074 351.82 348.418 354.355 Z"/></g><path d=" M 216.008 212.004 C 216.008 218.633 210.637 224.004 204.008 224.004 C 197.383 224.004 192.008 218.633 192.008 212.004 C 192.008 205.375 197.383 200.004 204.008 200.004 C 210.637 200.004 216.008 205.375 216.008 212.004 Z" fill="#EE6D20"/><path d=" M 336.008 432.004 L 352.008 432.004 L 352.008 448.004 L 336.008 448.004 Z" fill="#FD9226"/><path d=" M 368.008 432.004 L 400.008 432.004 L 400.008 448.004 L 368.008 448.004 Z" fill="#FD9226"/><path d=" M 256.008 136.004 L 272.008 136.004 L 272.008 152.004 L 256.008 152.004 Z" fill="#FD7422"/><path d=" M 288.008 136.004 L 320.008 136.004 L 320.008 152.004 L 288.008 152.004 Z" fill="#FD7422"/><path d=" M 479.09 277.5 C 478.77 274.832 478.363 272.195 477.871 269.582 C 477.586 268.027 477.289 266.492 476.953 264.965 C 476.367 262.379 475.703 259.816 474.969 257.277 C 474.441 255.477 473.848 253.715 473.25 251.957 C 472.762 250.539 472.242 249.141 471.695 247.738 C 469.184 241.176 466.109 234.84 462.512 228.805 C 462.129 228.156 461.793 227.484 461.391 226.836 C 461.215 226.563 461.016 226.324 460.848 226.035 C 459.152 223.348 457.352 220.75 455.465 218.211 C 454.848 217.414 454.25 216.555 453.617 215.75 C 451.922 213.59 450.145 211.5 448.32 209.461 C 447.352 208.371 446.383 207.277 445.383 206.262 C 443.785 204.598 442.129 203.012 440.441 201.461 C 439.121 200.219 437.801 198.98 436.441 197.805 C 434.84 196.461 433.242 195.188 431.586 193.918 C 430.063 192.75 428.559 191.582 426.992 190.484 C 425.191 189.219 423.344 188.086 421.48 186.898 C 420.031 185.996 418.602 185.086 417.113 184.246 C 414.832 182.949 412.488 181.773 410.129 180.621 C 409.023 180.086 407.938 179.523 406.816 179.02 C 403.895 177.707 400.906 176.539 397.871 175.445 C 397.25 175.219 396.641 174.973 396.008 174.766 C 392.551 173.582 389.016 172.57 385.434 171.691 C 385.215 171.645 385.016 171.563 384.809 171.516 L 384.543 171.469 C 379.969 170.371 375.336 169.535 370.664 168.973 L 370.184 168.898 C 365.48 168.328 360.746 168.031 356.008 168.004 L 81.4102 168.004 C 54.0234 153.023 41.4648 120.453 51.7031 90.9648 C 61.9414 61.4766 91.9805 43.6953 122.754 48.9063 C 153.531 54.1133 176.047 80.7891 176.008 112.004 C 176.039 122.223 173.598 132.301 168.895 141.371 C 166.871 145.301 168.414 150.125 172.34 152.152 C 176.27 154.18 181.094 152.637 183.121 148.707 C 198.313 119.234 193.742 83.4414 171.637 58.7266 C 149.531 34.0117 114.469 25.4961 83.4883 37.3164 C 52.5078 49.1367 32.0313 78.8438 32.0078 112.004 C 32.0977 142.238 49.1953 169.852 76.2227 183.402 L 102.352 207.516 C 50.8516 202.309 12.75 157.207 16.2266 105.559 C 19.6992 53.9102 63.4961 14.3203 115.234 16.0586 C 166.969 17.7969 208.008 60.2383 208.008 112.004 C 208.027 122.027 206.457 131.992 203.359 141.523 C 202.18 145.66 204.48 149.992 208.57 151.324 C 212.66 152.66 217.074 150.52 218.559 146.484 C 233.496 100.332 217.02 49.8086 177.746 21.332 C 138.477 -7.14453 85.3359 -7.10156 46.1094 21.4375 C 6.88281 49.9766 -9.51172 100.523 5.49609 146.652 C 20.5 192.781 63.5 224.008 112.008 224.004 C 114.879 224.004 117.426 223.867 119.848 223.668 L 155.602 256.668 C 171.844 271.691 193.164 280.027 215.289 280.004 L 333.48 280.004 C 338.316 280.016 343.09 281.055 347.496 283.043 C 350.656 284.469 353.578 286.379 356.152 288.699 C 356.344 288.867 356.559 289.012 356.746 289.188 C 358.074 290.426 359.305 291.762 360.426 293.188 C 361.59 294.68 362.633 296.266 363.543 297.926 C 364.746 300.117 365.719 302.43 366.449 304.82 C 366.609 305.348 366.809 305.859 366.945 306.422 C 367.152 307.219 367.281 308.02 367.426 308.82 C 368.109 312.152 368.184 315.582 367.648 318.941 C 367.441 320.477 367.129 322 366.711 323.492 C 366.711 323.637 366.648 323.781 366.609 323.926 C 366.207 325.309 365.715 326.66 365.137 327.98 C 365.039 328.211 364.961 328.453 364.855 328.676 C 364.254 329.98 363.574 331.242 362.816 332.461 C 362.695 332.66 362.586 332.867 362.457 333.066 C 361.645 334.324 360.75 335.527 359.785 336.668 C 359.672 336.805 359.559 336.957 359.441 337.094 C 358.641 337.98 357.84 338.789 357.039 339.582 C 356.68 339.926 356.32 340.262 355.945 340.59 C 355.242 341.203 354.512 341.781 353.777 342.332 C 353.039 342.883 352.359 343.316 351.625 343.773 C 351.074 344.117 350.527 344.484 349.953 344.797 C 348.551 345.578 347.098 346.254 345.602 346.828 L 318 357.18 C 313.465 344.508 301.469 336.039 288.008 336.004 L 224.008 336.004 C 220.535 336.008 217.461 338.254 216.398 341.563 C 215.34 344.871 216.535 348.484 219.359 350.508 L 249.32 371.918 C 256.121 376.781 263.469 380.84 271.207 384.004 C 263.48 387.18 256.145 391.234 249.344 396.094 L 219.383 417.5 C 216.563 419.52 215.367 423.129 216.422 426.434 C 217.473 429.738 220.539 431.988 224.008 432.004 L 288.008 432.004 C 299.391 431.969 309.887 425.871 315.559 416.004 L 356.008 416.004 C 359.32 416.004 362.57 415.773 365.816 415.516 L 365.953 415.516 C 368.305 415.324 370.633 415.043 372.945 414.715 C 373.961 414.582 374.961 414.422 375.969 414.254 C 383.223 413.078 390.352 411.254 397.281 408.805 C 398.242 408.461 399.199 408.109 400.152 407.75 C 402.281 406.949 404.383 406.148 406.457 405.18 C 407.039 404.918 407.609 404.613 408.191 404.34 C 411.953 402.586 415.625 400.641 419.191 398.516 C 420.352 397.828 421.504 397.141 422.641 396.422 C 424.313 395.348 425.961 394.246 427.578 393.094 C 427.914 392.859 428.266 392.652 428.594 392.414 C 429.176 391.988 429.711 391.5 430.289 391.066 C 432.441 389.469 434.578 387.797 436.617 386.043 C 437.352 385.414 438.039 384.738 438.762 384.094 C 440.855 382.211 442.93 380.309 444.887 378.285 C 445.223 377.941 445.527 377.57 445.855 377.219 C 457.961 364.477 467.219 349.305 473.008 332.707 L 473.176 332.262 C 474.273 329.059 475.215 325.859 476.055 322.523 C 476.105 322.332 476.176 322.141 476.223 321.949 C 476.273 321.758 476.305 321.555 476.352 321.363 C 477.023 318.629 477.602 315.875 478.082 313.078 C 478.473 310.852 478.832 308.637 479.098 306.43 C 479.258 305.102 479.367 303.773 479.48 302.43 C 479.793 298.934 480.008 295.453 480.008 292.027 C 480.008 288.332 479.777 284.652 479.449 280.98 C 479.344 279.797 479.207 278.652 479.09 277.5 Z M 448.617 347.293 L 447.711 348.781 C 444.266 354.316 440.332 359.531 435.953 364.363 C 435.383 364.996 434.816 365.637 434.234 366.262 C 432.914 367.648 431.559 369 430.16 370.324 C 429.457 370.988 428.727 371.629 428.008 372.277 C 426.641 373.5 425.281 374.73 423.848 375.883 L 376.703 340.523 C 376.992 340.051 377.191 339.531 377.465 339.051 C 378.152 337.813 378.824 336.563 379.41 335.27 C 379.809 334.387 380.145 333.484 380.488 332.59 C 381.008 331.246 381.527 329.898 381.93 328.508 C 381.984 328.34 382.063 328.18 382.113 328.004 L 457.703 328.004 L 457.656 328.148 C 455.277 334.809 452.25 341.223 448.617 347.293 Z M 401.121 390.004 L 400.496 390.301 C 397.504 391.66 394.461 392.875 391.359 393.941 L 390.855 394.125 C 387.762 395.18 384.617 396.086 381.434 396.859 L 380.809 397.02 C 377.688 397.75 374.535 398.34 371.352 398.789 L 370.738 398.875 L 357.441 358.996 L 357.777 358.789 C 358.434 358.43 359.031 357.988 359.672 357.621 C 360.879 356.867 362.074 356.086 363.223 355.219 C 364.074 354.598 364.906 353.965 365.711 353.285 C 365.93 353.109 366.16 352.957 366.375 352.773 L 409.93 385.445 L 409.695 385.582 C 406.895 387.195 404.039 388.672 401.121 390.004 Z M 462.879 277.246 C 463 278.133 463.184 278.996 463.281 279.891 C 463.754 283.914 464 287.957 464.008 292.004 C 464.008 295.371 463.809 298.691 463.504 301.98 C 463.199 305.27 462.703 308.645 462.039 312.004 L 383.945 312.004 C 383.945 311.738 383.855 311.492 383.84 311.203 C 383.523 306.172 382.441 301.219 380.641 296.508 L 452.105 242.91 L 452.266 243.227 C 453.992 246.656 455.543 250.172 456.906 253.766 C 457.137 254.371 457.359 254.988 457.586 255.605 C 458.719 258.766 459.688 262.004 460.527 265.203 C 460.738 266.004 460.977 266.859 461.168 267.707 C 461.887 270.875 462.41 274.051 462.879 277.246 Z M 443.68 229.246 L 372.543 282.605 C 369.102 278.422 365.016 274.813 360.441 271.918 L 362.039 267.156 L 388.105 189.02 C 410.266 196.016 429.609 209.918 443.305 228.691 C 443.441 228.859 443.586 229.035 443.711 229.219 Z M 166.457 244.91 L 100.473 184.004 L 272.008 184.004 L 272.008 264.004 L 215.289 264.004 C 197.188 264.023 179.746 257.203 166.457 244.91 Z M 288.008 264.004 L 288.008 184.004 L 356.008 184.004 C 359.137 184.004 362.207 184.211 365.273 184.477 C 367.113 184.645 368.969 184.875 370.824 185.141 L 372.426 185.387 L 345.703 265.539 C 345.578 265.539 345.457 265.5 345.328 265.477 C 343.727 265.086 342.105 264.773 340.473 264.547 C 340.074 264.492 339.672 264.414 339.289 264.371 C 337.359 264.137 335.422 264.016 333.48 264.004 Z M 248.969 352.004 L 288.008 352.004 C 296.844 352.004 304.008 359.168 304.008 368.004 L 304.008 375.66 C 287.648 374.254 271.965 368.465 258.617 358.898 Z M 288.008 416.004 L 248.969 416.004 L 258.617 409.117 C 271.965 399.547 287.645 393.754 304.008 392.348 L 304.008 400.004 C 304.008 408.84 296.844 416.004 288.008 416.004 Z M 320.008 400.004 L 320.008 373.547 L 342.602 365.078 L 354.242 400.004 Z"/><path d=" M 216.008 212.004 C 216.008 218.633 210.637 224.004 204.008 224.004 C 197.383 224.004 192.008 218.633 192.008 212.004 C 192.008 205.375 197.383 200.004 204.008 200.004 C 210.637 200.004 216.008 205.375 216.008 212.004 Z"/><path d=" M 336.008 432.004 L 352.008 432.004 L 352.008 448.004 L 336.008 448.004 Z"/><path d=" M 368.008 432.004 L 400.008 432.004 L 400.008 448.004 L 368.008 448.004 Z"/><path d=" M 256.008 136.004 L 272.008 136.004 L 272.008 152.004 L 256.008 152.004 Z"/><path d=" M 288.008 136.004 L 320.008 136.004 L 320.008 152.004 L 288.008 152.004 Z"/></svg>