<svg version="1.1" width="618.667" height="618.667" viewBox="-60 0 464 464" xmlns="http://www.w3.org/2000/svg" xmlns:xlink="http://www.w3.org/1999/xlink" overflow="hidden"><path d=" M 24 64 L 296 64 L 296 208 L 24 208 Z" fill="#D9176C"/><path d=" M 40 208 L 280 208 L 280 240 L 40 240 Z" fill="#9B1E5A"/><path d=" M 56 96 L 104 96 L 104 176 L 56 176 Z" fill="#CFDFE8"/><path d=" M 136 96 L 184 96 L 184 176 L 136 176 Z" fill="#CFDFE8"/><path d=" M 216 96 L 264 96 L 264 176 L 216 176 Z" fill="#CFDFE8"/><path d=" M 40 0 L 280 0 L 280 64 L 40 64 Z" fill="#DC93BF"/><g fill="#FFD782"><path d=" M 72 24 L 88 24 L 88 40 L 72 40 Z"/><path d=" M 104 24 L 120 24 L 120 40 L 104 40 Z"/><path d=" M 136 24 L 152 24 L 152 40 L 136 40 Z"/><path d=" M 168 24 L 184 24 L 184 40 L 168 40 Z"/><path d=" M 200 24 L 216 24 L 216 40 L 200 40 Z"/><path d=" M 232 24 L 248 24 L 248 40 L 232 40 Z"/></g><path d=" M 24 240 L 296 240 L 296 432 L 24 432 Z" fill="#D9176C"/><path d=" M 56 312 L 264 312 L 264 400 L 56 400 Z" fill="#CFDFE8"/><path d=" M 0 432 L 320 432 L 320 464 L 0 464 Z" fill="#9B1E5A"/><path d=" M 128 240 L 160 240 L 160 264 C 160 272.836 152.836 280 144 280 C 135.164 280 128 272.836 128 264 Z" fill="#FCF05A"/><path d=" M 64 240 L 96 240 L 96 264 C 96 272.836 88.8359 280 80 280 C 71.1641 280 64 272.836 64 264 Z" fill="#FCF05A"/><path d=" M 200 264 L 272 264 L 272 280 L 200 280 Z" fill="#CFDFE8"/><path d=" M 296 256 L 344 256 L 344 288 L 296 288 Z" fill="#DC93BF"/><path d=" M 344 128 C 344 136.836 336.836 144 328 144 C 319.164 144 312 136.836 312 128 C 312 119.164 319.164 112 328 112 C 336.836 112 344 119.164 344 128 Z" fill="#DA1C4B"/><path d=" M 320 144 L 336 144 L 336 256 L 320 256 Z" fill="#5A6470"/><path d=" M 133.68 368 L 101.68 400 L 79.0391 400 L 122.32 356.719 Z" fill="#F3F2F0"/><path d=" M 189.68 368 L 157.68 400 L 135.039 400 L 178.32 356.719 Z" fill="#F3F2F0"/><path d=" M 245.68 368 L 213.68 400 L 191.039 400 L 234.32 356.719 Z" fill="#F3F2F0"/></svg>