<svg version="1.1" width="512" height="512" viewBox="0 0 499.8 499.8" xmlns="http://www.w3.org/2000/svg" xmlns:xlink="http://www.w3.org/1999/xlink" id="Capa_1" overflow="hidden"><path d=" M 423.728 367.07 C 418.158 386.7 411.178 405.78 402.818 424.07 C 393.368 444.75 382.148 464.4 369.208 482.66 C 364.918 488.72 357.928 492.3 350.498 492.3 L 149.368 492.3 C 141.918 492.3 134.918 488.69 130.618 482.62 C 117.548 464.16 106.318 444.54 96.918 424.07 C 88.448 405.67 81.458 386.59 75.908 367.07 C 54.248 290.82 54.688 207.93 76.028 132.73 C 81.578 113.12 88.568 94.03 96.948 75.73 C 106.398 55.09 117.628 35.44 130.608 17.14 C 134.908 11.08 141.898 7.5 149.328 7.5 L 350.468 7.5 C 357.918 7.5 364.908 11.11 369.218 17.18 C 382.308 35.67 393.538 55.29 402.938 75.73 C 411.418 94.15 418.408 113.23 423.948 132.73 C 445.658 209.18 444.998 292.08 423.728 367.07 Z" fill="#C0694E"/><path d=" M 249.894 7.5 L 249.894 492.3 L 301.144 492.3 L 302.774 488.72 C 311.324 470.46 321.564 444.75 327.804 424.07 C 333.324 405.78 337.934 386.7 341.604 367.07 C 355.654 292.08 356.084 209.18 341.754 132.73 C 338.094 113.23 333.484 94.15 327.884 75.73 C 321.674 55.29 312.374 31.56 303.734 13.07 L 301.284 7.5 L 249.894 7.5 Z" fill="#AE583E"/><path d=" M 75.904 367.07 C 81.454 386.59 88.444 405.67 96.914 424.07 C 106.314 444.54 117.544 464.16 130.614 482.62 C 134.914 488.69 141.914 492.3 149.364 492.3 L 198.554 492.3 L 197.004 488.72 C 188.464 470.46 178.224 444.75 171.984 424.07 C 166.464 405.78 161.854 386.7 158.174 367.07 C 144.134 292.08 143.694 209.18 158.034 132.73 C 161.694 113.23 166.304 94.15 171.904 75.73 C 178.114 55.29 187.404 31.56 196.054 13.07 L 198.664 7.5 L 149.324 7.5 C 141.894 7.5 134.904 11.08 130.604 17.14 C 117.624 35.44 106.394 55.09 96.944 75.73 C 88.564 94.03 81.574 113.12 76.024 132.73 C 54.684 207.93 54.245 290.82 75.904 367.07 Z" fill="#AE583E"/><path d=" M 184.368 492.3 L 149.368 492.3 C 141.918 492.3 134.918 488.69 130.618 482.62 C 117.548 464.16 106.318 444.54 96.918 424.07 C 88.448 405.67 81.458 386.59 75.908 367.07 C 54.248 290.82 54.688 207.93 76.028 132.73 C 81.578 113.12 88.568 94.03 96.948 75.73 C 106.398 55.09 117.628 35.44 130.608 17.14 C 134.908 11.08 141.898 7.5 149.328 7.5 L 184.328 7.5 C 176.898 7.5 169.908 11.08 165.608 17.14 C 152.628 35.44 141.398 55.09 131.948 75.73 C 123.568 94.03 116.578 113.12 111.028 132.73 C 89.688 207.93 89.248 290.82 110.908 367.07 C 116.458 386.59 123.448 405.67 131.918 424.07 C 141.318 444.54 152.548 464.16 165.618 482.62 C 169.918 488.69 176.918 492.3 184.368 492.3 Z" fill="#954C35"/><path d=" M 423.948 132.73 L 76.028 132.73 C 81.578 113.12 88.568 94.03 96.948 75.73 L 402.938 75.73 C 411.418 94.15 418.408 113.23 423.948 132.73 Z" fill="#FDC202"/><path d=" M 423.728 367.07 C 418.158 386.7 411.178 405.78 402.818 424.07 L 96.918 424.07 C 88.448 405.67 81.458 386.59 75.908 367.07 Z" fill="#FDC202"/><path d=" M 131.948 75.73 L 96.948 75.73 C 88.568 94.03 81.578 113.12 76.028 132.73 L 111.028 132.73 C 116.578 113.12 123.568 94.03 131.948 75.73 Z" fill="#F0A70A"/><path d=" M 75.908 367.07 C 81.458 386.59 88.448 405.67 96.918 424.07 L 131.918 424.07 C 123.448 405.67 116.458 386.59 110.908 367.07 Z" fill="#F0A70A"/><path d=" M 375.305 12.8 C 369.618 4.785 360.334 0 350.468 0 L 149.328 0 C 139.467 0 130.172 4.799 124.457 12.846 C 90.197 61.24 68.583 117.027 58.689 174.481 C 57.987 178.563 60.726 182.442 64.808 183.145 C 68.89 183.85 72.769 181.108 73.472 177.026 C 75.607 164.621 78.324 152.27 81.559 140.23 L 149.08 140.23 C 136.927 211.08 136.979 288.252 149.229 359.57 L 81.789 359.57 C 68.143 308.825 64.443 256.345 69.495 206.226 C 69.911 202.105 66.907 198.427 62.785 198.011 C 58.654 197.603 54.986 200.601 54.571 204.721 C 44.714 302.462 67.539 406.657 124.467 486.993 C 130.145 495.012 139.428 499.799 149.299 499.799 L 350.429 499.799 C 360.305 499.799 369.602 494.997 375.299 486.953 C 377.163 484.322 379.013 481.633 380.798 478.961 C 383.1 475.517 382.174 470.86 378.73 468.558 C 375.287 466.257 370.628 467.183 368.328 470.627 C 363.249 478.225 359.746 484.798 350.43 484.798 L 312.82 484.798 C 320.495 467.609 328.088 447.901 333.322 431.568 L 390.957 431.568 C 388.597 436.299 386.151 440.979 383.616 445.551 C 380.841 450.558 384.49 456.689 390.169 456.689 C 392.807 456.689 395.365 455.294 396.735 452.824 C 428.434 395.648 447.454 325.896 447.454 250.28 C 447.454 167.274 424.164 81.689 375.305 12.8 Z M 350.468 15 C 355.481 15 360.193 17.422 363.071 21.479 C 373.398 36.039 382.73 51.732 390.933 68.23 L 333.399 68.23 C 327.929 51.135 320.527 31.936 312.874 15 Z M 257.398 15 L 296.497 15 C 296.497 15 308.228 40.106 317.616 68.23 L 257.398 68.23 Z M 242.398 15 L 242.398 68.23 L 182.181 68.23 C 191.548 40.179 203.299 15 203.299 15 Z M 136.693 21.522 C 139.593 17.438 144.316 15 149.328 15 L 186.924 15 C 179.258 31.978 171.856 51.177 166.398 68.23 L 108.797 68.23 C 116.982 51.844 126.327 36.165 136.693 21.522 Z M 85.923 125.23 C 90.411 110.824 95.574 97.031 101.714 83.23 L 327.861 83.23 C 327.869 83.23 327.877 83.232 327.885 83.232 C 328.448 83.232 322.367 83.23 397.981 83.23 C 403.632 96.001 408.795 109.412 413.705 125.23 Z M 242.398 140.23 L 242.398 359.57 L 164.453 359.57 C 151.894 288.344 151.841 210.964 164.303 140.23 Z M 149.298 484.8 C 144.285 484.8 139.578 482.38 136.706 478.323 C 126.395 463.773 117.076 448.08 108.883 431.57 L 166.473 431.57 C 171.713 447.921 179.308 467.629 186.983 484.8 Z M 242.398 484.8 L 203.468 484.8 C 195.798 468.331 187.916 448.49 182.257 431.57 L 242.398 431.57 Z M 296.336 484.8 L 257.398 484.8 L 257.398 431.57 L 317.539 431.57 C 311.886 448.471 304.009 468.31 296.336 484.8 Z M 398.022 416.57 C 393.035 416.57 106.955 416.57 101.848 416.57 C 95.881 403.052 90.75 389.421 86.137 374.57 L 413.812 374.57 C 409.127 389.6 404.029 403.055 398.022 416.57 Z M 350.575 359.57 C 353.206 344.247 355.307 328.529 356.819 312.71 C 357.214 308.586 354.19 304.924 350.067 304.53 C 345.951 304.134 342.282 307.158 341.887 311.282 C 340.326 327.605 338.13 343.817 335.355 359.57 L 257.398 359.57 L 257.398 140.23 L 335.496 140.23 C 341.69 175.33 344.833 211.965 344.833 249.23 C 344.833 260.029 344.562 270.955 344.029 281.705 C 343.824 285.842 347.011 289.362 351.149 289.567 C 351.275 289.573 351.401 289.576 351.526 289.576 C 355.498 289.576 358.812 286.458 359.011 282.448 C 359.556 271.452 359.832 260.276 359.832 249.23 C 359.832 212.014 356.763 175.395 350.717 140.23 L 418.048 140.23 C 427.602 175.752 432.453 212.743 432.453 250.281 C 432.453 287.627 427.642 324.362 418.169 359.57 Z"/><circle cx="117.31" cy="104.23" r="10.25"/><circle cx="183.56" cy="104.23" r="10.25"/><circle cx="249.81" cy="104.23" r="10.25"/><circle cx="316.06" cy="104.23" r="10.25"/><circle cx="382.31" cy="104.23" r="10.25"/><circle cx="117.48" cy="395.57" r="10.25"/><circle cx="183.73" cy="395.57" r="10.25"/><circle cx="249.98" cy="395.57" r="10.25"/><circle cx="316.23" cy="395.57" r="10.25"/><circle cx="382.48" cy="395.57" r="10.25"/></svg>