<svg version="1.1" width="618.667" height="618.667" viewBox="-68 0 464 464" xmlns="http://www.w3.org/2000/svg" xmlns:xlink="http://www.w3.org/1999/xlink" overflow="hidden"><path d=" M 232 440 C 232 426.746 196.184 416 152 416 C 107.816 416 72 426.746 72 440 C 72 453.254 107.816 464 152 464 C 196.184 464 232 453.254 232 440 Z" fill="#32B1CC"/><path d=" M 144 224 L 160 224 L 160 440 L 144 440 Z" fill="#7FCAC9"/><path d=" M 226.34 90.3438 L 266.34 50.3438 L 277.656 61.6563 L 237.656 101.656 Z" fill="#7FCAC9"/><path d=" M 152 240 L 40 96 L 264 96 Z" fill="#FCF05A"/><path d=" M 208 0 L 328 120 L 328 0 Z" fill="#FFD782"/><path d=" M 328 0 L 248 40 L 208 0 Z" fill="#D9176C"/><path d=" M 328 120 L 328 0 L 288 80 Z" fill="#D9176C"/><path d=" M 64.8867 128 L 152 240 L 239.113 128 Z" fill="#8EC13F"/><path d=" M 184 48 L 200 48 C 217.672 48 232 62.3281 232 80 L 232 96 L 216 96 C 198.328 96 184 81.6719 184 64 Z" fill="#55B56A"/><path d=" M 128 32 L 144 32 L 144 48 L 128 48 Z" fill="#87CEE9"/><path d=" M 152 8 L 168 8 L 168 24 L 152 24 Z" fill="#87CEE9"/><path d=" M 136.703 171.281 L 66.832 16 L 16 16 L 16 0 L 72 0 C 75.1484 0 78.0039 1.84766 79.2969 4.71875 L 151.297 164.719 Z" fill="#D9176C"/><g fill="#FFD782"><path d=" M 248 184 L 264 184 L 264 200 L 248 200 Z"/><path d=" M 248 216 L 264 216 L 264 232 L 248 232 Z"/><path d=" M 232 200 L 248 200 L 248 216 L 232 216 Z"/><path d=" M 264 200 L 280 200 L 280 216 L 264 216 Z"/><path d=" M 16 152 L 32 152 L 32 168 L 16 168 Z"/><path d=" M 16 184 L 32 184 L 32 200 L 16 200 Z"/><path d=" M 0 168 L 16 168 L 16 184 L 0 184 Z"/><path d=" M 32 168 L 48 168 L 48 184 L 32 184 Z"/></g><path d=" M 152 208 C 138.746 208 128 197.254 128 184 C 128 170.746 138.746 160 152 160 C 165.254 160 176 170.746 176 184 C 176 197.254 165.254 208 152 208 Z M 152 176 C 147.582 176 144 179.582 144 184 C 144 188.418 147.582 192 152 192 C 156.418 192 160 188.418 160 184 C 160 179.582 156.418 176 152 176 Z" fill="#FCF05A"/></svg>