<svg version="1.1" width="682.667" height="682.667" viewBox="-31 0 512 512.002" xmlns="http://www.w3.org/2000/svg" xmlns:xlink="http://www.w3.org/1999/xlink" overflow="hidden"><path d=" M 226.535 69.2461 L 174.195 69.2461 L 174.195 16.4336 C 174.195 12.0195 177.777 8.4375 182.191 8.4375 L 218.543 8.4375 C 222.957 8.4375 226.535 12.0195 226.535 16.4336 Z" fill="#87523E"/><path d=" M 226.535 69.2461 L 206.191 69.2461 L 206.191 8.4375 L 218.543 8.4375 C 222.957 8.4375 226.535 12.0195 226.535 16.4336 Z" fill="#6D4336"/><path d=" M 131.164 504.508 L 94.8125 504.508 C 90.3984 504.508 86.8203 500.926 86.8203 496.512 L 86.8203 355.289 L 139.16 355.289 L 139.16 496.512 C 139.16 500.926 135.578 504.508 131.164 504.508 Z" fill="#87523E"/><path d=" M 305.926 504.508 L 269.574 504.508 C 265.16 504.508 261.578 500.926 261.578 496.512 L 261.578 355.289 L 313.918 355.289 L 313.918 496.512 C 313.918 500.926 310.34 504.508 305.926 504.508 Z" fill="#87523E"/><path d=" M 305.926 504.508 L 293.578 504.508 L 293.578 355.289 L 313.918 355.289 L 313.918 496.512 C 313.918 500.926 310.34 504.508 305.926 504.508 Z" fill="#6D4336"/><path d=" M 131.164 504.508 L 118.816 504.508 L 118.816 355.289 L 139.16 355.289 L 139.16 496.512 C 139.16 500.926 135.578 504.508 131.164 504.508 Z" fill="#6D4336"/><path d=" M 393.246 250.441 C 393.246 356.961 306.891 443.316 200.371 443.316 C 93.8477 443.316 7.49609 356.961 7.49609 250.441 C 7.49609 143.918 93.8477 57.5664 200.371 57.5664 C 306.891 57.5664 393.246 143.918 393.246 250.441 Z" fill="#EFE2DD"/><path d=" M 393.246 250.438 C 393.246 356.961 306.895 443.313 200.371 443.313 C 159.172 443.313 120.992 430.402 89.6602 408.391 C 115.188 420.871 143.875 427.863 174.199 427.863 C 280.715 427.863 367.074 341.504 367.074 234.988 C 367.074 169.672 334.602 111.938 284.922 77.0469 C 349.07 108.371 393.246 174.25 393.246 250.438 Z" fill="#E1D3CE"/><path d=" M 346.613 250.441 C 346.613 331.207 281.137 396.684 200.371 396.684 C 119.602 396.684 54.125 331.207 54.125 250.441 C 54.125 169.672 119.602 104.195 200.371 104.195 C 281.137 104.195 346.613 169.672 346.613 250.441 Z" fill="#FF4343"/><path d=" M 346.613 250.438 C 346.613 331.211 281.133 396.68 200.371 396.68 C 168.477 396.68 138.98 386.477 114.949 369.141 C 133.063 377.184 153.109 381.652 174.199 381.652 C 254.965 381.652 320.441 316.176 320.441 235.41 C 320.441 186.539 296.473 143.262 259.641 116.715 C 310.879 139.445 346.613 190.773 346.613 250.438 Z" fill="#F72C2C"/><path d=" M 293.578 250.441 C 293.578 301.918 251.848 343.648 200.371 343.648 C 148.895 343.648 107.164 301.918 107.164 250.441 C 107.164 198.965 148.895 157.234 200.371 157.234 C 251.848 157.234 293.578 198.965 293.578 250.441 Z" fill="#EFE2DD"/><path d=" M 293.574 250.438 C 293.574 301.914 251.848 343.641 200.371 343.641 C 176.238 343.641 154.246 334.469 137.699 319.434 C 149.922 325.316 163.621 328.613 178.086 328.613 C 229.566 328.613 271.293 286.887 271.293 235.41 C 271.293 208.07 259.523 183.48 240.777 166.426 C 272.023 181.473 293.574 213.438 293.574 250.438 Z" fill="#E1D3CE"/><path d=" M 242.758 250.441 C 242.758 273.852 223.777 292.828 200.371 292.828 C 176.961 292.828 157.984 273.852 157.984 250.441 C 157.984 227.031 176.961 208.055 200.371 208.055 C 223.777 208.055 242.758 227.031 242.758 250.441 Z" fill="#FF4343"/><path d=" M 242.754 250.438 C 242.754 273.848 223.781 292.824 200.371 292.824 C 185.402 292.824 172.254 285.07 164.707 273.367 C 170.176 275.938 176.277 277.375 182.715 277.375 C 206.125 277.375 225.109 258.402 225.109 234.988 C 225.109 226.547 222.641 218.672 218.375 212.059 C 232.785 218.824 242.754 233.461 242.754 250.438 Z" fill="#F72C2C"/><path d=" M 353.246 96.8672 L 390.16 106.707 C 392.57 107.348 395.145 106.656 396.906 104.895 L 440.563 61.2383 C 444.609 57.1914 442.348 50.2617 436.695 49.3828 L 410.625 45.3242 C 407.617 44.8555 405.258 42.4961 404.793 39.4883 L 400.734 13.4219 C 399.852 7.76563 392.926 5.50391 388.879 9.55078 L 345.223 53.207 C 343.457 54.9727 342.766 57.543 343.41 59.9531 Z" fill="#83AFE4"/><path d=" M 440.566 61.2383 L 396.91 104.895 C 395.145 106.664 392.574 107.352 390.156 106.703 L 375.34 102.758 L 425.34 52.7578 C 426.727 51.3672 427.527 49.6992 427.797 47.9883 L 436.699 49.3789 C 442.344 50.2578 444.613 57.1914 440.566 61.2383 Z" fill="#5290D9"/><path d=" M 449.391 51.7969 C 447.691 46.5859 443.266 42.8203 437.848 41.9766 L 412.141 37.9766 L 408.137 12.2695 C 407.293 6.84766 403.531 2.42578 398.316 0.722656 C 393.105 -0.976562 387.457 0.371094 383.578 4.25 L 339.922 47.9063 C 336.277 51.5508 334.84 56.9023 336.168 61.8828 L 344.891 94.6211 L 336.211 103.301 C 308.301 77.5195 273.074 59.543 234.027 52.9141 L 234.027 16.4297 C 234.027 7.89063 227.082 0.945312 218.543 0.945312 L 182.191 0.945312 C 173.648 0.945312 166.703 7.89063 166.703 16.4297 L 166.703 52.9141 C 129.152 59.2852 94.0625 76.2461 65.5117 102.246 C 62.4492 105.031 62.2305 109.77 65.0156 112.832 C 67.8008 115.891 72.5391 116.117 75.6016 113.328 C 109.789 82.2031 154.098 65.0586 200.371 65.0586 C 248.613 65.0586 292.605 83.5898 325.617 113.898 L 303.23 136.285 C 275.969 111.695 239.891 96.6992 200.371 96.6992 C 115.598 96.6992 46.6328 165.668 46.6328 250.438 C 46.6328 335.211 115.598 404.176 200.371 404.176 C 285.141 404.176 354.109 335.211 354.109 250.441 C 354.109 210.566 338.848 174.195 313.867 146.848 L 336.242 124.469 C 366.945 157.563 385.75 201.844 385.75 250.441 C 385.75 352.66 302.59 435.82 200.371 435.82 C 98.1523 435.82 14.9883 352.66 14.9883 250.441 C 14.9883 209.328 28.168 170.387 53.0977 137.836 C 55.6133 134.547 54.9883 129.844 51.7031 127.328 C 48.418 124.813 43.7109 125.438 41.1953 128.723 C 14.2461 163.914 0 206.004 0 250.441 C 0 315.48 31.1602 373.375 79.3242 410.004 L 79.3242 496.512 C 79.3242 505.055 86.2734 512 94.8125 512 L 131.164 512 C 139.707 512 146.652 505.055 146.652 496.512 L 146.652 443.488 C 163.754 448.254 181.77 450.809 200.371 450.809 C 218.969 450.809 236.984 448.254 254.086 443.488 L 254.086 450.844 C 254.086 454.984 257.441 458.34 261.582 458.34 C 265.719 458.34 269.074 454.984 269.074 450.844 L 269.074 438.672 C 282.223 433.859 294.723 427.695 306.426 420.363 L 306.426 496.516 C 306.426 496.789 306.203 497.016 305.926 497.016 L 269.574 497.016 C 269.297 497.016 269.074 496.789 269.074 496.516 L 269.074 484.816 C 269.074 480.68 265.719 477.324 261.582 477.324 C 257.441 477.324 254.086 480.68 254.086 484.816 L 254.086 496.516 C 254.086 505.055 261.035 512 269.574 512 L 305.926 512 C 314.465 512 321.414 505.055 321.414 496.516 L 321.414 410.004 C 369.578 373.375 400.738 315.484 400.738 250.441 C 400.738 197.711 380.262 149.68 346.844 113.871 L 355.488 105.223 L 388.234 113.949 C 389.457 114.277 390.703 114.434 391.941 114.434 C 395.742 114.434 399.461 112.941 402.207 110.195 L 445.863 66.5391 C 449.742 62.6602 451.094 57.0117 449.391 51.7969 Z M 219.043 50.9492 C 212.891 50.3789 206.668 50.0703 200.371 50.0703 C 194.105 50.0703 187.871 50.3633 181.691 50.9375 L 181.691 16.4297 C 181.691 16.1563 181.914 15.9336 182.191 15.9336 L 218.543 15.9336 C 218.816 15.9336 219.043 16.1563 219.043 16.4297 Z M 339.121 250.441 C 339.121 326.949 276.879 389.191 200.371 389.191 C 123.863 389.191 61.6211 326.949 61.6211 250.441 C 61.6211 173.934 123.863 111.691 200.371 111.691 C 235.758 111.691 268.086 125.012 292.621 146.895 L 265.668 173.848 C 248.074 158.824 225.266 149.738 200.371 149.738 C 144.844 149.738 99.668 194.914 99.668 250.441 C 99.668 305.969 144.844 351.141 200.371 351.141 C 255.898 351.141 301.07 305.969 301.07 250.441 C 301.07 225.191 291.727 202.086 276.32 184.391 L 303.262 157.453 C 325.535 182.074 339.121 214.699 339.121 250.441 Z M 192.77 257.344 C 194.234 258.809 196.152 259.539 198.07 259.539 C 199.984 259.539 201.906 258.809 203.367 257.344 L 229.48 231.234 C 233.129 236.746 235.262 243.348 235.262 250.441 C 235.262 269.68 219.609 285.332 200.371 285.332 C 181.129 285.332 165.477 269.68 165.477 250.441 C 165.477 231.199 181.129 215.547 200.371 215.547 C 207.102 215.547 213.395 217.473 218.73 220.789 L 192.77 246.746 C 189.844 249.672 189.844 254.418 192.77 257.344 Z M 229.516 210 C 221.313 204.07 211.246 200.559 200.371 200.559 C 172.867 200.559 150.488 222.938 150.488 250.441 C 150.488 277.945 172.867 300.32 200.371 300.32 C 227.875 300.32 250.25 277.945 250.25 250.441 C 250.25 239.207 246.516 228.832 240.227 220.488 L 265.684 195.027 C 278.391 209.98 286.082 229.324 286.082 250.441 C 286.082 297.703 247.633 336.152 200.367 336.152 C 153.105 336.152 114.656 297.703 114.656 250.441 C 114.656 203.176 153.105 164.727 200.367 164.727 C 221.133 164.727 240.188 172.152 255.035 184.477 Z M 131.664 496.512 C 131.664 496.789 131.441 497.012 131.164 497.012 L 94.8125 497.012 C 94.5391 497.012 94.3125 496.789 94.3125 496.512 L 94.3125 420.363 C 106.016 427.691 118.516 433.859 131.664 438.672 Z M 391.813 99.3906 L 359.371 90.7461 L 350.727 58.3047 L 393.48 15.5469 L 397.387 40.6445 C 398.363 46.8984 403.219 51.7539 409.477 52.7305 L 434.57 56.6367 Z"/></svg>