<svg version="1.1" width="682.667" height="682.667" viewBox="0 0 512 512" xmlns="http://www.w3.org/2000/svg" xmlns:xlink="http://www.w3.org/1999/xlink" overflow="hidden"><path d=" M 321.008 242.074 C 301.527 232.266 276.57 228.332 256 228.332 C 235.434 228.332 210.48 232.27 191 242.078 L 191 234.5 C 191 201.363 164.137 174.5 131 174.5 L 113 174.5 C 101.953 174.5 93 183.453 93 194.5 L 93 213.5 C 93 246.637 119.863 273.5 153 273.5 L 161 273.5 C 148.621 311.523 158.289 339.297 162.945 355.945 L 190.387 454.094 C 191.051 456.465 191.852 458.77 192.758 461.02 L 319.234 461 L 349.035 305.941 Z" fill="#CE795F"/><path d=" M 131 204.5 C 147.543 204.5 161 217.957 161 234.5 L 161 243.059 L 160.621 242.676 L 161 243.5 L 153 243.5 C 136.457 243.5 123 230.043 123 213.5 L 123 204.5 Z" fill="#A05A4B"/><path d=" M 399 174.5 L 381 174.5 C 347.863 174.5 321 201.363 321 234.5 L 321 242.09 C 309.246 236.172 295.504 232.387 281.926 230.32 C 278.195 244.934 285.969 260.324 300.406 265.773 C 307.445 268.43 319.668 274.172 322.473 282.785 C 331.109 309.313 325.805 327.961 321.121 344.41 C 320.785 345.598 320.457 346.746 320.145 347.867 L 292.699 446.016 C 291.281 451.09 291.262 456.219 292.398 461.004 L 319.234 461 C 320.133 458.758 320.934 456.457 321.594 454.094 L 349.035 355.945 C 354.117 337.766 363.191 310.945 351 273.5 L 359 273.5 C 392.137 273.5 419 246.637 419 213.5 L 419 194.5 C 419 183.453 410.047 174.5 399 174.5 Z" fill="#B66652"/><path d=" M 381 204.5 C 364.457 204.5 351 217.957 351 234.5 L 351 243.059 L 351.379 242.676 L 351 243.5 L 359 243.5 C 375.543 243.5 389 230.043 389 213.5 L 389 204.5 Z" fill="#81493B"/><path d=" M 319.234 461 L 287.824 429.594 C 279.035 420.805 267.52 416.41 256 416.41 L 236 464.332 L 256 504.5 C 283.105 504.328 308.844 486.859 319.234 461 Z" fill="#C4BFB1"/><path d=" M 224.184 429.594 L 192.758 461.02 C 203.152 486.867 228.891 504.332 255.992 504.5 L 256 504.5 L 256 416.41 C 244.484 416.414 232.973 420.809 224.184 429.594 Z" fill="#E9E3D5"/><path d=" M 282.25 442.66 C 282.25 457.16 270.496 468.91 256 468.91 C 241.504 468.91 229.75 457.16 229.75 442.66 C 229.75 428.164 241.504 416.41 256 416.41 C 270.496 416.41 282.25 428.164 282.25 442.66 Z" fill="#FF7C8B"/><path d=" M 260.633 416.828 C 260.898 418.332 261.047 419.879 261.047 421.461 C 261.047 435.957 249.293 447.711 234.797 447.711 C 233.215 447.711 231.672 447.563 230.164 447.293 C 232.355 459.578 243.086 468.91 256 468.91 C 270.496 468.91 282.25 457.16 282.25 442.66 C 282.25 429.746 272.918 419.016 260.633 416.828 Z" fill="#FF5368"/><path d=" M 96.9922 11.8945 C 91.1367 6.03516 81.6406 6.03516 75.7813 11.8945 L 64.1133 23.5625 C 53.8203 33.8555 46.0977 45.75 40.9453 58.4492 L 40.9453 95.793 L 63.2539 95.793 C 63.8281 77.2695 71.1875 58.9141 85.3281 44.7734 L 96.9961 33.1055 C 102.852 27.25 102.852 17.75 96.9922 11.8945 Z" fill="#FFB578"/><path d=" M 250.848 228.41 C 247.82 168.188 200.188 119.523 140.402 114.863 C 135.926 114.516 131.434 114.422 126.938 114.418 C 126.926 95.0781 134.297 75.7344 149.051 60.9805 L 160.422 49.6133 C 166.133 43.9023 166.656 34.5977 161.219 28.625 C 155.414 22.2461 145.535 22.0703 139.508 28.0977 L 127.84 39.7656 C 107.648 59.957 97.3555 86.3086 96.9609 112.785 C 62.9688 105.441 37.5 75.1914 37.5 39 L 37.5 22.9258 C 37.5 14.8477 31.293 7.89844 23.2266 7.51563 C 14.6094 7.11328 7.5 13.9766 7.5 22.5 L 7.5 39 C 7.5 97.2305 54.6992 144.5 113 144.5 L 131 144.5 C 180.707 144.5 221 184.793 221 234.5 C 221 242.02 229.785 246.113 235.543 241.273 Z" fill="#FFC98C"/><path d=" M 447.887 23.5625 L 436.219 11.8945 C 430.359 6.03516 420.863 6.03516 415.004 11.8945 C 409.148 17.75 409.148 27.2461 415.004 33.1055 L 426.672 44.7734 C 440.734 58.8359 448.094 77.0703 448.738 95.4922 L 448.738 95.7969 L 471.598 95.7969 L 471.598 59.8125 C 466.453 46.6055 458.551 34.2227 447.887 23.5625 Z" fill="#F7A16E"/><path d=" M 488.773 7.51563 C 480.707 7.89844 474.5 14.8477 474.5 22.9258 L 474.5 39 C 474.5 75.1914 449.031 105.441 415.039 112.785 C 414.645 86.3086 404.352 59.957 384.16 39.7656 L 372.793 28.3984 C 367.082 22.6875 357.781 22.1641 351.805 27.5977 C 345.43 33.4023 345.254 43.2852 351.281 49.3125 L 362.949 60.9805 C 377.703 75.7344 385.074 95.0781 385.063 114.418 C 380.566 114.422 376.074 114.516 371.598 114.863 C 311.813 119.523 264.18 168.188 261.152 228.41 L 276.457 241.273 C 282.215 246.113 291 242.02 291 234.5 C 291 184.793 331.293 144.5 381 144.5 L 399 144.5 C 457.301 144.5 504.5 97.2344 504.5 39 L 504.5 22.5 C 504.5 13.9766 497.391 7.11328 488.773 7.51563 Z" fill="#FFB578"/><path d=" M 216 341.004 C 216 349.289 209.285 356.004 201 356.004 C 192.715 356.004 186 349.289 186 341.004 C 186 332.719 192.715 326.004 201 326.004 C 209.285 326.004 216 332.719 216 341.004 Z"/><path d=" M 326 341.004 C 326 349.289 319.285 356.004 311 356.004 C 302.715 356.004 296 349.289 296 341.004 C 296 332.719 302.715 326.004 311 326.004 C 319.285 326.004 326 332.719 326 341.004 Z"/><path d=" M 489.5 0 C 477.094 0 467 10.0938 467 22.5 L 467 34.9844 C 462.973 29.0273 458.367 23.4336 453.188 18.2578 L 441.523 6.58984 C 437.273 2.33984 431.621 8.88178e-16 425.613 8.88178e-16 C 419.602 8.88178e-16 413.953 2.33984 409.703 6.58984 C 400.91 15.3828 400.906 29.6133 409.703 38.4102 L 421.371 50.0781 C 432.777 61.4844 439.684 76.3945 441.039 92.3672 C 435.367 96.8672 428.961 100.496 421.984 103.008 C 419.406 77.1055 408.059 53.0586 389.465 34.4648 L 377.797 22.7969 C 369.004 14.0039 354.773 14.0039 345.977 22.7969 C 337.184 31.5898 337.184 45.8203 345.977 54.6172 L 357.645 66.2852 C 368.746 77.3867 375.535 91.6484 377.176 107.047 C 315.793 109.195 267.277 153.258 256 209.359 C 244.73 153.281 196.242 109.199 134.824 107.047 C 136.465 91.6484 143.254 77.3867 154.355 66.2852 L 166.023 54.6172 C 174.793 45.8438 174.793 31.5703 166.023 22.7969 C 157.25 14.0273 142.977 14.0234 134.203 22.7969 L 122.535 34.4648 C 103.941 53.0586 92.5938 77.1094 90.0156 103.008 C 83.0469 100.5 76.6367 96.8672 70.9688 92.375 C 72.3203 76.3984 79.2148 61.4922 90.6328 50.0781 L 102.301 38.4102 C 111.07 29.6367 111.07 15.3633 102.301 6.58984 C 93.5273 -2.18359 79.25 -2.18359 70.4805 6.58984 L 58.8125 18.2578 C 53.6367 23.4336 49.0273 29.0234 45 34.9844 L 45 22.5 C 45 10.0938 34.9063 0 22.5 0 C 10.0938 0 0 10.0938 0 22.5 L 0 39 C 0 101.309 50.6914 152 113 152 L 131 152 C 173.629 152 208.809 184.5 213.066 226.023 C 207.922 227.336 203.012 228.867 198.383 230.637 C 196.371 195.207 166.922 167 131 167 L 113 167 C 97.8359 167 85.5 179.336 85.5 194.5 L 85.5 213.5 C 85.5 250.078 114.75 279.934 151.09 280.949 C 143.055 313.766 150.262 338.898 154.73 354.465 C 155.078 355.684 155.414 356.848 155.727 357.965 L 183.168 456.113 C 192.086 488.004 222.512 511.793 256.039 512 C 289.625 511.789 319.941 487.855 328.816 456.113 L 356.258 357.965 C 356.559 356.898 356.867 355.801 357.191 354.676 C 361.949 337.953 368.914 313.449 360.922 280.949 C 397.254 279.926 426.504 250.074 426.504 213.5 L 426.504 194.5 C 426.504 179.336 414.164 167 399.004 167 L 381.004 167 C 345.078 167 315.633 195.207 313.621 230.633 C 308.988 228.867 304.078 227.332 298.938 226.02 C 303.191 184.5 338.371 152 381 152 L 399 152 C 461.309 152 512 101.309 512 39 L 512 22.5 C 512 10.0938 501.906 2.84217e-14 489.5 2.84217e-14 Z M 420.309 27.8047 C 417.379 24.8711 417.379 20.1289 420.309 17.1953 C 423.238 14.2656 427.984 14.2656 430.914 17.1953 L 442.582 28.8633 C 451.637 37.9141 458.699 48.4023 463.609 60.0703 C 461.387 66.8164 458.121 73.1367 454 78.8281 C 450.473 64.0273 442.93 50.4258 431.977 39.4727 Z M 69.418 28.8633 L 81.0859 17.1953 C 84.0078 14.2734 88.7695 14.2734 91.6914 17.1953 C 94.6133 20.1211 94.6133 24.8789 91.6914 27.8047 L 80.0234 39.4727 C 69.0625 50.4297 61.5273 64.0313 58 78.8281 C 53.8867 73.1484 50.625 66.8359 48.4023 60.1016 C 53.3164 48.4258 60.3672 37.9141 69.418 28.8633 Z M 256 423.91 C 266.34 423.91 274.75 432.324 274.75 442.66 C 274.75 453 266.34 461.41 256 461.41 C 245.66 461.41 237.25 453 237.25 442.66 C 237.25 432.324 245.66 423.91 256 423.91 Z M 263.5 496.461 L 263.5 475.563 C 278.656 472.109 289.996 458.426 289.734 442.117 L 310.266 462.648 C 301.219 480.691 283.359 493.711 263.5 496.461 Z M 497 39 C 497 93.0352 453.035 137 399 137 L 381 137 C 327.238 137 283.5 180.738 283.5 234.5 L 283.5 242.496 C 283.5 246.641 286.855 249.996 291 249.996 C 295.145 249.996 298.5 246.641 298.5 242.496 L 298.5 241.434 C 303.863 242.953 308.875 244.754 313.5 246.824 L 313.5 273.5 C 313.5 277.641 316.855 281 321 281 C 325.145 281 328.5 277.641 328.5 273.5 L 328.5 234.5 C 328.5 205.551 352.051 182 381 182 L 399 182 C 405.895 182 411.5 187.605 411.5 194.5 L 411.5 213.5 C 411.5 242.449 387.949 266 359 266 L 358.5 266 L 358.5 234.5 C 358.5 222.094 368.594 212 381 212 L 389 212 C 393.145 212 396.5 208.641 396.5 204.5 C 396.5 200.359 393.145 197 389 197 L 381 197 C 360.32 197 343.5 213.82 343.5 234.5 L 343.5 273.5 L 343.5 273.52 C 343.504 273.715 343.516 273.91 343.531 274.109 C 343.535 274.168 343.535 274.23 343.543 274.289 C 343.555 274.422 343.582 274.559 343.602 274.691 C 343.621 274.813 343.637 274.934 343.664 275.055 C 343.68 275.125 343.699 275.195 343.719 275.266 C 343.762 275.445 343.805 275.621 343.859 275.797 C 343.863 275.805 343.863 275.813 343.867 275.82 C 354.629 308.871 347.77 332.973 342.762 350.57 C 342.434 351.719 342.117 352.84 341.813 353.926 L 315.801 446.961 L 293.129 424.289 C 283.129 414.289 269.789 408.91 256.039 408.91 L 255.969 408.91 C 231.547 408.91 218.918 424.254 212.199 430.969 C 209.273 433.898 209.258 438.637 212.199 441.578 C 214.965 444.363 219.355 444.484 222.266 442.066 C 222.262 442.266 222.25 442.465 222.25 442.66 C 222.25 458.695 233.488 472.141 248.5 475.563 L 248.5 496.449 C 224.895 493.172 204.156 475.477 197.613 452.074 L 170.172 353.926 C 169.852 352.781 169.508 351.578 169.148 350.328 C 164.434 333.902 157.305 309.078 168.133 275.824 C 168.133 275.816 168.137 275.809 168.137 275.801 C 168.195 275.617 168.246 275.43 168.289 275.242 C 168.305 275.18 168.324 275.121 168.336 275.059 C 168.363 274.93 168.379 274.797 168.398 274.668 C 168.422 274.543 168.445 274.418 168.457 274.293 C 168.465 274.227 168.465 274.156 168.469 274.086 C 168.484 273.898 168.496 273.711 168.496 273.527 C 168.496 273.52 168.5 273.508 168.5 273.5 L 168.5 234.5 C 168.5 213.824 151.676 197 131 197 L 123 197 C 118.855 197 115.5 200.359 115.5 204.5 C 115.5 208.645 118.855 212 123 212 L 131 212 C 143.406 212 153.5 222.094 153.5 234.5 L 153.5 266 L 153 266 C 124.051 266 100.5 242.449 100.5 213.5 L 100.5 194.5 C 100.5 187.605 106.105 182 113 182 L 131 182 C 159.949 182 183.5 205.551 183.5 234.5 L 183.5 241.887 L 183.5 241.91 L 183.5 273.5 C 183.5 277.641 186.859 281 191 281 C 195.141 281 198.5 277.641 198.5 273.5 L 198.5 246.824 C 203.125 244.754 208.137 242.949 213.5 241.434 L 213.5 242.496 C 213.5 246.641 216.859 249.996 221 249.996 C 225.141 249.996 228.5 246.641 228.5 242.496 L 228.5 234.5 C 228.5 180.738 184.762 137 131 137 L 113 137 C 58.9648 137 15 93.0391 15 39 L 15 22.5 C 15 18.3633 18.3633 15 22.5 15 C 26.6367 15 30 18.3633 30 22.5 L 30 39 C 30 58.0742 36.6328 76.7031 48.6758 91.4531 C 60.5469 105.996 77.1328 116.176 95.3789 120.117 C 100.004 121.113 104.391 117.625 104.461 112.898 C 104.844 87.2734 115.027 63.1836 133.141 45.0703 L 144.809 33.4023 C 147.734 30.4805 152.492 30.4805 155.414 33.4023 C 158.34 36.3281 158.34 41.0859 155.414 44.0117 L 143.746 55.6797 C 128.059 71.3672 119.426 92.2305 119.438 114.422 C 119.438 118.559 122.789 121.914 126.93 121.918 C 132.156 121.926 136.133 122.055 139.82 122.344 C 196.02 126.723 240.527 172.48 243.355 228.785 C 243.363 228.887 243.379 228.98 243.387 229.078 C 243.398 229.203 243.406 229.332 243.426 229.457 C 243.441 229.586 243.469 229.711 243.492 229.84 C 243.516 229.953 243.535 230.07 243.563 230.188 C 243.598 230.316 243.637 230.445 243.676 230.578 C 243.707 230.68 243.734 230.781 243.77 230.883 C 243.816 231.02 243.871 231.152 243.926 231.285 C 243.965 231.371 244 231.461 244.039 231.551 C 244.102 231.684 244.172 231.816 244.242 231.949 C 244.285 232.027 244.324 232.105 244.367 232.184 C 244.445 232.316 244.531 232.441 244.617 232.57 C 244.664 232.641 244.707 232.711 244.758 232.777 C 244.848 232.906 244.945 233.027 245.043 233.148 C 245.094 233.211 245.145 233.273 245.199 233.336 C 245.301 233.453 245.406 233.563 245.516 233.676 C 245.574 233.734 245.633 233.793 245.691 233.848 C 245.805 233.953 245.918 234.055 246.035 234.152 C 246.102 234.207 246.164 234.262 246.234 234.316 C 246.352 234.406 246.473 234.492 246.598 234.578 C 246.672 234.633 246.742 234.68 246.82 234.73 C 246.941 234.809 247.07 234.883 247.199 234.953 C 247.277 235 247.359 235.043 247.441 235.086 C 247.57 235.152 247.703 235.215 247.836 235.273 C 247.922 235.309 248.012 235.348 248.102 235.383 C 248.234 235.438 248.371 235.484 248.508 235.527 C 248.602 235.559 248.691 235.59 248.785 235.617 C 248.93 235.656 249.07 235.691 249.215 235.723 C 249.309 235.742 249.402 235.766 249.496 235.781 C 249.645 235.809 249.797 235.828 249.945 235.848 C 250.039 235.859 250.133 235.867 250.23 235.879 C 250.387 235.891 250.543 235.898 250.703 235.898 C 250.75 235.902 250.797 235.906 250.844 235.906 C 250.918 235.906 250.988 235.906 251.063 235.902 C 254.324 235.809 257.676 235.809 260.938 235.902 C 260.996 235.906 261.055 235.898 261.113 235.898 C 261.297 235.902 261.477 235.898 261.652 235.887 C 261.75 235.883 261.848 235.867 261.941 235.859 C 262.09 235.844 262.234 235.828 262.379 235.805 C 262.52 235.781 262.66 235.75 262.801 235.719 C 262.891 235.695 262.98 235.68 263.07 235.656 C 263.266 235.605 263.453 235.543 263.641 235.48 C 263.676 235.469 263.707 235.461 263.738 235.445 C 265.566 234.781 267.055 233.426 267.898 231.691 C 267.902 231.68 267.906 231.672 267.91 231.664 C 268 231.477 268.078 231.285 268.156 231.09 C 268.172 231.047 268.188 231.008 268.203 230.965 C 268.266 230.797 268.316 230.625 268.363 230.453 C 268.387 230.379 268.406 230.309 268.426 230.234 C 268.465 230.086 268.492 229.934 268.52 229.777 C 268.539 229.68 268.559 229.582 268.574 229.48 C 268.594 229.344 268.605 229.199 268.617 229.059 C 268.625 228.969 268.641 228.879 268.645 228.785 C 271.473 172.484 315.984 126.723 372.18 122.344 C 375.871 122.055 379.848 121.926 385.074 121.918 C 389.211 121.914 392.563 118.559 392.566 114.422 C 392.574 92.2305 383.941 71.3672 368.254 55.6797 L 356.586 44.0117 C 353.656 41.0781 353.652 36.3359 356.586 33.4063 C 359.512 30.4805 364.27 30.4805 367.191 33.4063 L 378.859 45.0742 C 396.973 63.1836 407.156 87.2734 407.539 112.898 C 407.609 117.625 411.992 121.117 416.621 120.117 C 434.867 116.176 451.457 105.996 463.328 91.4531 C 475.367 76.7031 482 58.0742 482 39 L 482 22.5 C 482 18.3633 485.363 15 489.5 15 C 493.637 15 497 18.3633 497 22.5 Z"/></svg>