<svg version="1.1" viewBox="0 0 512.001 512.001" xmlns="http://www.w3.org/2000/svg" xmlns:xlink="http://www.w3.org/1999/xlink" id="Layer_1" overflow="hidden"><path d=" M 503.632 166.815 C 477.709 250.441 406.671 313.892 319.418 329.314 L 319.407 329.314 C 304.565 331.936 289.244 333.164 273.599 332.874 C 269.559 332.796 265.553 332.617 261.569 332.338 L 80.39 299.173 L 34.258 203.953 L 72.031 186.255 L 101.926 157.465 C 107.528 161.683 113.286 165.7 119.189 169.528 C 164.372 198.765 218.003 216.173 275.784 217.267 C 351.253 218.695 420.707 192.047 474.204 146.92 L 503.632 166.815 Z" fill="#FFD41D"/><path d=" M 9.093 178.012 C 9.093 178.012 31.375 132.653 46.021 79.226 L 68.519 81.954 C 68.519 81.954 53.641 136.182 61.086 164.19" fill="#4D4D4D"/><path d=" M 319.406 329.314 C 304.564 331.936 289.243 333.164 273.598 332.874 C 269.558 332.796 265.552 332.617 261.568 332.338 L 80.39 299.173 L 34.258 203.953 L 72.031 186.255 L 101.926 157.465 C 107.528 161.683 113.286 165.7 119.189 169.528 C 119.703 171.736 153.181 312.72 319.406 329.314 Z" fill="#E2BA14"/><path d=" M 63.175 194.781 C 63.175 194.781 60.645 144.307 47.523 90.487 L 68.519 81.955 C 68.519 81.955 81.826 136.589 101.928 157.465" fill="#4D4D4D"/><path d=" M 407.797 367.299 C 377.165 396.614 339.593 416.656 299.476 426.252 C 242.62 439.866 180.643 432.512 126.075 400.865 C 44.882 353.774 2.221 265.718 9.095 178.008 L 35.843 170.9 L 61.085 164.193 C 85.802 219.62 127.571 268.062 184.092 300.847 C 249.384 338.71 323.045 349.121 391.718 335.619 L 407.797 367.299 Z" fill="#FFD41D"/><path d=" M 299.476 426.253 C 242.62 439.867 180.643 432.513 126.075 400.866 C 44.882 353.774 2.221 265.718 9.095 178.008 L 35.843 170.9 C 35.843 170.9 13.737 399.338 299.443 426.253 L 299.476 426.253 Z" fill="#E2BA14"/><g><path d=" M 391.717 335.613 L 407.797 367.294 C 400.365 374.402 392.52 380.975 384.329 386.979 L 369.376 339.14 C 376.876 338.247 384.319 337.064 391.717 335.613 Z" fill="#4D4D4D"/><path d=" M 474.205 146.918 L 503.631 166.815 C 500.406 177.204 496.5 187.281 491.936 196.989 L 454.163 162.429 C 461.06 157.542 467.755 152.364 474.205 146.918 Z" fill="#4D4D4D"/></g><path d=" M 54.631 215.838 C 53.271 211.421 48.587 208.943 44.169 210.302 C 39.752 211.662 37.273 216.346 38.633 220.764 C 45.629 243.483 55.846 264.994 69.002 284.699 C 70.616 287.116 73.267 288.422 75.97 288.422 C 77.567 288.422 79.182 287.966 80.61 287.011 C 84.454 284.444 85.49 279.248 82.923 275.403 C 70.668 257.048 61.149 237.007 54.631 215.838 Z"/><path d=" M 149.63 360.262 C 161.575 367.19 174.135 373.133 186.964 377.926 C 187.929 378.286 188.919 378.458 189.893 378.458 C 193.285 378.458 196.477 376.38 197.733 373.017 C 199.351 368.687 197.153 363.865 192.823 362.247 C 180.871 357.781 169.164 352.241 158.028 345.783 C 135.26 332.578 115.179 315.791 98.345 295.886 C 95.361 292.357 90.081 291.914 86.55 294.901 C 83.02 297.886 82.58 303.167 85.565 306.696 C 103.641 328.07 125.196 346.093 149.63 360.262 Z"/><path d=" M 323.097 387.927 C 327.619 386.965 330.503 382.52 329.541 378 C 328.579 373.48 324.136 370.595 319.614 371.556 C 288.07 378.266 256.169 378.276 224.799 371.581 C 220.278 370.617 215.832 373.499 214.867 378.02 C 213.902 382.541 216.785 386.986 221.306 387.952 C 238.132 391.542 255.093 393.337 272.082 393.337 C 289.103 393.335 306.15 391.531 323.097 387.927 Z"/><path d=" M 508.32 159.882 L 478.894 139.985 C 475.793 137.887 471.673 138.106 468.81 140.521 C 414.957 185.949 346.452 210.228 275.945 208.897 C 233.197 208.086 192.202 198.246 154.099 179.648 C 149.944 177.622 144.934 179.344 142.906 183.499 C 140.878 187.652 142.602 192.664 146.757 194.692 C 187.067 214.365 230.426 224.776 275.628 225.634 C 339.223 226.846 401.229 208.347 453.426 173.1 L 481.65 198.911 C 465.491 230.95 441.748 259.205 412.637 280.558 C 372.141 310.26 324.122 325.467 273.762 324.507 C 270.236 324.439 266.697 324.278 263.213 324.051 C 237.153 317.489 211.921 307.309 188.291 293.603 C 143.879 267.846 107.756 231.611 82.498 187.795 L 102.657 168.38 C 108.637 172.663 114.797 176.749 121.035 180.574 C 124.977 182.991 130.13 181.752 132.544 177.812 C 134.96 173.871 133.722 168.718 129.782 166.303 C 122.173 161.64 114.696 156.557 107.536 151.201 C 92.542 135.119 80.174 94.429 76.647 79.969 C 76.641 79.947 76.63 79.928 76.624 79.905 C 76.391 78.983 76.008 78.096 75.466 77.289 C 74.109 75.269 71.941 73.939 69.526 73.646 L 47.028 70.919 C 42.913 70.418 39.046 73.012 37.949 77.014 C 23.699 128.999 1.8 173.876 1.582 174.323 C 1.553 174.381 1.541 174.441 1.518 174.5 C 1.106 175.386 0.829 176.345 0.749 177.358 C -2.797 222.648 6.32 267.993 27.115 308.493 C 48.476 350.093 81.244 384.539 121.881 408.107 C 151.692 425.397 184.043 436.035 218.033 439.723 C 222.625 440.218 226.757 436.901 227.256 432.306 C 227.755 427.711 224.434 423.582 219.839 423.083 C 188.188 419.648 158.056 409.738 130.28 393.627 C 92.424 371.671 61.899 339.589 42.007 300.847 C 23.532 264.865 14.948 224.783 17.054 184.556 L 56.427 174.089 C 83.091 230.398 125.654 276.624 179.894 308.082 C 235.66 340.426 299.844 354.281 363.433 348.173 L 374.542 383.724 C 336.738 410.049 291.754 424.315 244.773 424.407 C 240.151 424.416 236.411 428.171 236.42 432.793 C 236.429 437.41 240.174 441.147 244.789 441.146 C 244.795 441.146 244.8 441.146 244.806 441.146 C 308.1 441.022 368.04 416.943 413.584 373.342 C 416.249 370.791 416.928 366.797 415.259 363.509 L 399.178 331.827 C 397.482 328.487 393.774 326.679 390.1 327.404 C 374.378 330.495 358.525 332.248 342.695 332.717 C 371.194 324.941 398.137 311.951 422.536 294.056 C 464.619 263.19 496.259 218.883 511.627 169.295 C 512.717 165.77 511.375 161.948 508.32 159.882 Z M 69.033 161.443 C 66.091 149.619 67.52 131.582 70.053 115.395 C 75.148 129.443 82.097 145.36 90.527 156.823 L 74.269 172.48 C 72.452 168.846 70.705 165.168 69.033 161.443 Z M 52.132 88.398 L 58.113 89.123 C 54.555 104.481 48.528 135.401 51.433 158.096 L 24.09 165.365 C 31.454 148.538 42.884 120.36 52.132 88.398 Z M 397.482 365.467 C 394.622 368.062 391.699 370.569 388.728 373.003 L 380.318 346.094 C 382.576 345.75 384.832 345.381 387.085 344.986 L 397.482 365.467 Z M 467.322 163.126 C 469.806 161.239 472.274 159.326 474.706 157.36 L 493.724 170.219 C 492.266 174.497 490.672 178.729 488.956 182.91 L 467.322 163.126 Z"/><path d=" M 126.762 222.097 C 123.905 225.732 124.537 230.993 128.171 233.849 C 170.246 266.912 220.843 284.925 274.49 285.94 C 274.544 285.941 274.597 285.941 274.652 285.941 C 279.2 285.941 282.93 282.298 283.017 277.73 C 283.105 273.109 279.429 269.291 274.807 269.204 C 224.831 268.259 177.702 251.482 138.513 220.688 C 134.881 217.832 129.618 218.463 126.762 222.097 Z"/><path d=" M 312.301 283.674 C 312.689 283.674 313.082 283.647 313.477 283.591 C 346.158 278.992 377.074 267.993 405.37 250.899 C 409.326 248.509 410.596 243.364 408.205 239.407 C 405.815 235.451 400.67 234.179 396.713 236.571 C 370.363 252.491 341.574 262.732 311.144 267.015 C 306.567 267.659 303.378 271.892 304.022 276.469 C 304.613 280.652 308.196 283.674 312.301 283.674 Z"/><path d=" M 421.022 238.604 C 422.774 238.604 424.542 238.055 426.049 236.92 C 438.074 227.866 449.329 217.644 459.5 206.536 C 462.621 203.127 462.389 197.833 458.98 194.712 C 455.571 191.59 450.276 191.823 447.156 195.232 C 437.677 205.583 427.189 215.11 415.982 223.548 C 412.289 226.329 411.55 231.576 414.33 235.268 C 415.974 237.453 418.482 238.604 421.022 238.604 Z"/><g></g><g></g><g></g><g></g><g></g><g></g><g></g><g></g><g></g><g></g><g></g><g></g><g></g><g></g><g></g></svg>