<svg version="1.1" width="682.667" height="682.667" viewBox="0 0 512 512.001" xmlns="http://www.w3.org/2000/svg" xmlns:xlink="http://www.w3.org/1999/xlink" overflow="hidden"><path d=" M 441.797 155.055 L 356.945 70.1992 C 396.402 30.7461 461.102 33.9258 463.859 34.1367 L 477.227 34.7734 L 477.859 48.1406 C 478.074 50.8984 481.254 115.598 441.797 155.055 Z" fill="#9CDD05"/><path d=" M 441.797 155.055 L 399.371 112.629 L 477.227 34.7734 L 477.859 48.1406 C 478.074 50.8984 481.254 115.598 441.797 155.055 Z" fill="#66BB00"/><path d=" M 511.863 168.418 L 478.5 179.875 C 450.074 189.207 418.77 208.211 395.008 226.453 L 285.547 116.992 C 303.793 93.2305 322.793 61.9297 332.125 33.5039 L 343.582 0 L 400.008 111.992 Z" fill="#66BB00"/><path d=" M 395.008 226.453 L 340.277 171.723 L 400.008 111.992 L 511.863 168.422 L 478.5 179.875 C 450.074 189.207 418.77 208.211 395.008 226.453 Z" fill="#4A8900"/><path d=" M 490.895 259.969 L 436.797 259.758 C 397.98 259.969 355.645 276.426 323.824 298.484 L 213.516 188.176 C 235.578 156.355 252.031 114.02 252.246 75.1992 L 252.035 21.1055 L 341.766 170.234 Z" fill="#9CDD05"/><path d=" M 490.895 259.969 L 436.797 259.758 C 397.98 259.969 355.645 276.426 323.824 298.484 L 268.668 243.332 L 341.762 170.238 Z" fill="#66BB00"/><path d=" M 278.641 424.277 L 253.395 428.309 L 253.395 449.523 L 230.273 472.645 C 221.363 481.555 211.395 488.98 200.789 494.922 L 184.027 487.922 L 171.938 506.801 C 154.332 512.102 135.875 513.164 117.844 510.832 L 100.027 489.617 L 86.6641 503.406 C 69.4805 496.832 53.3555 486.648 39.3555 472.648 C 25.3555 458.648 15.1719 442.523 8.59375 425.34 L 21.1094 411.977 L 1.17188 394.156 C -1.16016 376.125 -0.101562 357.672 5.20313 340.063 L 25.9922 329.457 L 17.082 311.215 C 23.0234 300.605 30.4453 290.637 39.3555 281.727 L 62.4805 258.605 L 87.0859 256.484 L 87.7227 233.359 L 102.996 218.09 C 114.242 206.844 126.758 198.148 140.332 191.785 L 152.422 203.875 L 169.816 181.813 C 187.848 177.781 206.305 177.57 224.336 181.176 L 236.852 200.055 L 255.309 191.359 C 269.309 197.723 282.461 206.633 293.914 218.09 C 305.371 229.543 314.281 242.695 320.645 256.695 L 309.824 270.484 L 330.828 287.668 C 334.434 305.699 334.223 324.152 330.191 342.188 L 307.492 355.125 L 320.219 371.672 C 313.855 385.246 305.16 397.762 293.914 409.008 Z" fill="#FDBF00"/><path d=" M 278.641 424.277 L 253.395 428.309 L 253.395 449.523 L 230.273 472.645 C 221.363 481.555 211.395 488.98 200.789 494.922 L 184.027 487.922 L 171.938 506.801 C 154.332 512.102 135.875 513.164 117.844 510.832 L 100.027 489.617 L 86.6641 503.406 C 69.4805 496.832 53.3555 486.648 39.3555 472.648 L 293.914 218.09 C 305.371 229.547 314.277 242.695 320.645 256.695 L 309.824 270.484 L 330.828 287.668 C 334.434 305.699 334.219 324.156 330.188 342.188 L 307.492 355.125 L 320.219 371.672 C 313.855 385.246 305.156 397.766 293.914 409.008 Z" fill="#FF9100"/><path d=" M 278.641 424.277 L 272.914 366.793 L 320.219 371.672 C 324.887 362.336 328.066 352.367 330.188 342.188 L 269.941 336.242 L 264.426 281.09 L 330.824 287.664 C 328.703 277.063 325.523 266.664 320.641 256.695 L 261.246 250.754 L 255.305 191.359 C 245.336 186.477 234.941 183.297 224.336 181.176 L 230.91 247.574 L 175.758 242.059 L 169.813 181.813 C 159.633 183.934 149.664 187.113 140.328 191.781 L 145.207 239.09 L 87.7227 233.359 L 62.4766 258.605 L 67.9922 316.305 L 17.082 311.215 C 11.7773 320.336 7.95703 330.094 5.20313 340.063 L 71.1758 346.641 L 76.6875 401.797 L 1.17188 394.156 C 2.23438 404.977 4.77734 415.156 8.59375 425.34 L 79.6602 432.34 L 86.6602 503.406 C 96.8438 507.223 107.023 509.77 117.844 510.828 L 110.207 435.313 L 165.359 440.824 L 171.938 506.801 C 181.906 504.039 191.664 500.223 200.789 494.922 L 195.695 444.008 L 253.398 449.523 Z M 233.879 278.121 L 239.395 333.273 L 184.242 327.758 L 178.723 272.605 Z M 93.0234 264.121 L 148.18 269.637 L 153.691 324.789 L 98.5391 319.273 Z M 107.023 404.977 L 101.508 349.82 L 156.875 355.125 L 162.176 410.492 Z M 192.727 413.461 L 187.211 358.305 L 242.363 363.82 L 247.879 418.977 Z" fill="#FFDA2D"/><path d=" M 278.641 424.277 L 272.914 366.793 L 320.219 371.672 C 324.887 362.336 328.066 352.367 330.188 342.188 L 269.941 336.242 L 264.426 281.09 L 330.824 287.664 C 328.703 277.063 325.523 266.664 320.641 256.695 L 261.246 250.754 L 233.879 278.121 L 239.395 333.273 L 184.242 327.758 L 156.875 355.125 L 162.176 410.492 L 107.023 404.977 L 79.6602 432.34 L 86.6602 503.406 C 96.8438 507.223 107.023 509.766 117.844 510.828 L 110.207 435.309 L 165.359 440.824 L 171.938 506.797 C 181.906 504.039 191.664 500.223 200.789 494.918 L 195.695 444.008 L 253.398 449.523 Z M 192.727 413.461 L 187.211 358.305 L 242.363 363.82 L 247.879 418.977 Z" fill="#FDBF00"/></svg>