<svg version="1.1" width="128" height="128" viewBox="-0.9 -0.9 1.8 1.8" xmlns="http://www.w3.org/2000/svg" xmlns:xlink="http://www.w3.org/1999/xlink" overflow="hidden"><g stroke-width="0.1" stroke-linejoin="round" opacity="1"><path d=" M -0.453404 -0.619362 L 0.453404 -0.619362 L 0.544361 -0.19925 L -0.544361 -0.19925 Z" stroke="#000000" fill="#000000"/><path d=" M -0.544361 -0.19925 L 0.544361 -0.19925 L 0.487857 0.666425 L -0.487857 0.666425 Z" stroke="#000000" fill="#000000"/></g><g stroke-width="0" stroke-linejoin="round" stroke-opacity="0.5" opacity="1"><path d=" M -0.465046 -0.651612 L -0.260049 -0.651612 L -0.268985 -0.56906 L -0.482918 -0.56906 Z" stroke="#000000" fill="#404040"/><path d=" M -0.223085 -0.651612 L -0.0180879 -0.651612 L -0.0180879 -0.56906 L -0.232021 -0.56906 Z" stroke="#000000" fill="#404040"/><path d=" M 0.0188764 -0.651612 L 0.223873 -0.651612 L 0.23281 -0.56906 L 0.0188764 -0.56906 Z" stroke="#000000" fill="#404040"/><path d=" M 0.260837 -0.651612 L 0.465834 -0.651612 L 0.483707 -0.56906 L 0.269774 -0.56906 Z" stroke="#000000" fill="#404040"/><path d=" M -0.485356 -0.553828 L -0.271423 -0.553828 L -0.281174 -0.463751 L -0.504858 -0.463751 Z" stroke="#000000" fill="#404040"/><path d=" M -0.23281 -0.553828 L -0.0188764 -0.553828 L -0.0188764 -0.463751 L -0.242561 -0.463751 Z" stroke="#000000" fill="#404040"/><path d=" M 0.0197368 -0.553828 L 0.23367 -0.553828 L 0.243421 -0.463751 L 0.0197368 -0.463751 Z" stroke="#000000" fill="#00D800"/><path d=" M 0.272283 -0.553828 L 0.486216 -0.553828 L 0.505719 -0.463751 L 0.282034 -0.463751 Z" stroke="#000000" fill="#404040"/><path d=" M -0.507522 -0.447096 L -0.283837 -0.447096 L -0.29452 -0.348415 L -0.528886 -0.348415 Z" stroke="#000000" fill="#404040"/><path d=" M -0.243421 -0.447096 L -0.0197368 -0.447096 L -0.0197368 -0.348415 L -0.254104 -0.348415 Z" stroke="#000000" fill="#404040"/><path d=" M 0.0206794 -0.447096 L 0.244364 -0.447096 L 0.255046 -0.348415 L 0.0206794 -0.348415 Z" stroke="#000000" fill="#00D800"/><path d=" M 0.28478 -0.447096 L 0.508464 -0.447096 L 0.529829 -0.348415 L 0.295462 -0.348415 Z" stroke="#000000" fill="#404040"/><path d=" M -0.531809 -0.330127 L -0.297442 -0.330127 L -0.309196 -0.221549 L -0.555317 -0.221549 Z" stroke="#000000" fill="#404040"/><path d=" M -0.255046 -0.330127 L -0.0206794 -0.330127 L -0.0206794 -0.221549 L -0.2668 -0.221549 Z" stroke="#000000" fill="#404040"/><path d=" M 0.0217165 -0.330127 L 0.256083 -0.330127 L 0.267837 -0.221549 L 0.0217165 -0.221549 Z" stroke="#000000" fill="#404040"/><path d=" M 0.298479 -0.330127 L 0.532846 -0.330127 L 0.556354 -0.221549 L 0.310233 -0.221549 Z" stroke="#000000" fill="#404040"/><path d=" M -0.55678 -0.193243 L -0.310659 -0.193243 L -0.303733 0.018976 L -0.542928 0.018976 Z" stroke="#000000" fill="#404040"/><path d=" M -0.267837 -0.193243 L -0.0217165 -0.193243 L -0.0217165 0.018976 L -0.260911 0.018976 Z" stroke="#000000" fill="#404040"/><path d=" M 0.0211054 -0.193243 L 0.267226 -0.193243 L 0.2603 0.018976 L 0.0211054 0.018976 Z" stroke="#000000" fill="#404040"/><path d=" M 0.310048 -0.193243 L 0.556169 -0.193243 L 0.542317 0.018976 L 0.303122 0.018976 Z" stroke="#000000" fill="#404040"/><path d=" M -0.541128 0.0554014 L -0.301933 0.0554014 L -0.295386 0.256003 L -0.528034 0.256003 Z" stroke="#000000" fill="#A83DD9"/><path d=" M -0.2603 0.0554014 L -0.0211054 0.0554014 L -0.0211054 0.256003 L -0.253753 0.256003 Z" stroke="#000000" fill="#404040"/><path d=" M 0.0205278 0.0554014 L 0.259723 0.0554014 L 0.253176 0.256003 L 0.0205278 0.256003 Z" stroke="#000000" fill="#404040"/><path d=" M 0.301356 0.0554014 L 0.54055 0.0554014 L 0.527457 0.256003 L 0.294809 0.256003 Z" stroke="#000000" fill="#404040"/><path d=" M -0.526332 0.29046 L -0.293684 0.29046 L -0.287486 0.480374 L -0.513936 0.480374 Z" stroke="#000000" fill="#A83DD9"/><path d=" M -0.253176 0.29046 L -0.0205278 0.29046 L -0.0205278 0.480374 L -0.246978 0.480374 Z" stroke="#000000" fill="#404040"/><path d=" M 0.0199809 0.29046 L 0.252629 0.29046 L 0.246431 0.480374 L 0.0199809 0.480374 Z" stroke="#000000" fill="#404040"/><path d=" M 0.293137 0.29046 L 0.525785 0.29046 L 0.513389 0.480374 L 0.286939 0.480374 Z" stroke="#000000" fill="#404040"/><path d=" M -0.512324 0.513018 L -0.285874 0.513018 L -0.279998 0.693075 L -0.500571 0.693075 Z" stroke="#000000" fill="#404040"/><path d=" M -0.246431 0.513018 L -0.0199809 0.513018 L -0.0199809 0.693075 L -0.240554 0.693075 Z" stroke="#000000" fill="#404040"/><path d=" M 0.0194624 0.513018 L 0.245912 0.513018 L 0.240036 0.693075 L 0.0194624 0.693075 Z" stroke="#000000" fill="#404040"/><path d=" M 0.285356 0.513018 L 0.511805 0.513018 L 0.500053 0.693075 L 0.279479 0.693075 Z" stroke="#000000" fill="#404040"/></g></svg>