<svg version="1.1" viewBox="0 0 269.22 257.83" xmlns="http://www.w3.org/2000/svg" xmlns:xlink="http://www.w3.org/1999/xlink" overflow="hidden"><defs></defs><g id="b66f945c-b531-4c9d-88ff-1c1dd54be911"><g id="f7f6f8d1-fa35-43cf-b0e9-41b13bd60b21"><path d=" M 163.25 182.25 L 104.44 182.24 L 86.27 126.3 L 133.83 91.77 L 181.42 126.32 L 163.25 182.25 Z" fill="#808080"/><path d=" M 163.25 182.25 L 181.42 126.32 L 133.83 91.77 L 86.27 126.3 L 104.44 182.24 L 163.25 182.25 Z" stroke="#040000" stroke-miterlimit="10" fill="none"/><path d=" M 84.37 125.7 C 84.5014 125.298 84.757 124.948 85.1 124.7 L 132.66 90.16 C 133.359 89.6561 134.301 89.6561 135 90.16 L 182.58 124.72 C 183.28 125.228 183.574 126.127 183.31 126.95 L 165.14 182.87 C 164.868 183.689 164.102 184.241 163.24 184.24 L 104.44 184.24 C 103.575 184.239 102.808 183.683 102.54 182.86 L 84.37 126.93 C 84.2351 126.531 84.2351 126.099 84.37 125.7 Z M 133.83 94.24 L 88.61 127.08 L 105.89 180.24 L 161.79 180.24 L 179.06 127.08 Z" stroke="#040000" stroke-miterlimit="10" fill="#211613"/><path d=" M 104.37 255.23 L 120.81 232.8 L 146.98 232.81 L 163.4 255.24 L 104.37 255.23 Z" stroke="#040000" stroke-miterlimit="10" fill="#808080" fill-rule="evenodd"/><path d=" M 102.47 254.62 C 102.536 254.419 102.634 254.23 102.76 254.06 L 119.2 231.63 C 119.576 231.116 120.173 230.812 120.81 230.81 L 147 230.81 C 147.635 230.809 148.232 231.11 148.61 231.62 L 165 254.06 C 165.439 254.668 165.501 255.472 165.16 256.14 C 164.818 256.809 164.131 257.23 163.38 257.23 L 105 257.23 C 103.947 257.565 102.823 256.983 102.488 255.931 C 102.361 255.534 102.362 255.107 102.49 254.71 Z M 121.82 234.8 L 108.3 253.24 L 159.47 253.24 L 146 234.81 Z" stroke="#040000" stroke-miterlimit="10" fill="#060001"/><path d=" M 86.27 126.32 L 45.31 156.08 L 53.83 182.25 L 104.44 182.23 L 86.27 126.32 Z" stroke="#040000" stroke-miterlimit="10" fill="#1B1B1B" fill-rule="evenodd"/><path d=" M 53.83 182.25 L 70.19 232.63 L 120.8 232.62 L 104.44 182.23 L 53.83 182.25 Z" stroke="#040000" stroke-miterlimit="10" fill="#808080" fill-rule="evenodd"/><path d=" M 51.93 181.63 C 51.9983 181.43 52.0961 181.241 52.22 181.07 C 52.5956 180.556 53.1934 180.252 53.83 180.25 L 104.44 180.25 C 105.305 180.251 106.072 180.807 106.34 181.63 L 122.7 232 C 122.898 232.607 122.794 233.272 122.42 233.79 C 122.042 234.307 121.44 234.612 120.8 234.61 L 70.19 234.61 C 69.3285 234.605 68.567 234.049 68.3 233.23 L 51.93 182.86 C 51.8008 182.46 51.8008 182.03 51.93 181.63 Z M 102.99 184.23 L 56.58 184.23 L 71.65 230.62 L 118.06 230.62 Z" stroke="#040000" stroke-miterlimit="10" fill="#060001"/><path d=" M 45.31 156.08 L 86.27 126.32 L 69.91 75.98 L 28.97 105.74 L 45.31 156.08 Z" stroke="#040000" stroke-miterlimit="10" fill="#1B1B1B" fill-rule="evenodd"/><path d=" M 27.07 105.13 C 27.1988 104.729 27.4507 104.379 27.79 104.13 L 68.74 74.37 C 69.256 73.9929 69.9213 73.8851 70.53 74.08 C 71.1387 74.2801 71.6146 74.7598 71.81 75.37 L 88.17 125.71 C 88.4293 126.53 88.1353 127.424 87.44 127.93 L 46.49 157.69 C 45.5971 158.34 44.3462 158.144 43.6959 157.251 C 43.5716 157.08 43.4751 156.891 43.41 156.69 L 27.07 106.36 C 26.9351 105.961 26.9351 105.529 27.07 105.13 Z M 68.86 79.22 L 31.31 106.5 L 46.36 152.84 L 83.93 125.56 Z" stroke="#040000" stroke-miterlimit="10" fill="#060001"/><path d=" M 133.83 91.78 L 91.01 60.65 L 69.91 75.98 L 86.27 126.32 L 133.83 91.78 Z" stroke="#040000" stroke-miterlimit="10" fill="#1B1B1B" fill-rule="evenodd"/><path d=" M 104.44 182.23 L 120.8 232.62 L 146.88 232.61 L 163.24 182.25 L 104.44 182.23 Z" stroke="#040000" stroke-miterlimit="10" fill="#1B1B1B" fill-rule="evenodd"/><path d=" M 181.41 126.33 L 197.74 76.07 L 176.59 60.71 L 133.83 91.78 L 181.41 126.33 Z" stroke="#040000" stroke-miterlimit="10" fill="#808080" fill-rule="evenodd"/><path d=" M 176.59 60.71 L 133.77 29.59 L 91.01 60.65 L 133.83 91.78 L 176.59 60.71 Z" stroke="#040000" stroke-miterlimit="10" fill="#1B1B1B" fill-rule="evenodd"/><path d=" M 146.88 232.61 L 199.72 232.61 L 216.08 182.24 L 163.24 182.25 L 146.88 232.61 Z" stroke="#040000" stroke-miterlimit="10" fill="#1B1B1B" fill-rule="evenodd"/><path d=" M 224.16 157.39 L 240.49 107.14 L 197.74 76.07 L 181.41 126.33 L 224.16 157.39 Z" stroke="#040000" stroke-miterlimit="10" fill="#1B1B1B" fill-rule="evenodd"/><path d=" M 163.24 182.25 L 216.08 182.24 L 224.16 157.39 L 181.41 126.33 L 163.24 182.25 Z" stroke="#040000" stroke-miterlimit="10" fill="#1B1B1B" fill-rule="evenodd"/><path d=" M 2.5 98.13 C 7.72 114.423 12.97 130.757 18.25 147.13 L 45.35 155.5 C 40.0167 138.92 34.6833 122.4 29.35 105.94 C 20.33 103.313 11.38 100.71 2.5 98.13 Z" stroke="#040000" stroke-miterlimit="10" fill="#808080" fill-rule="evenodd"/><path d=" M 0.6 97.51 C 0.693888 97.2192 0.850979 96.9529 1.06 96.73 C 1.57854 96.199 2.34849 95.9988 3.06 96.21 L 29.89 104 C 30.5239 104.185 31.0254 104.672 31.23 105.3 L 47.23 154.87 C 47.5654 155.922 46.9841 157.047 45.9317 157.383 C 45.5444 157.506 45.1287 157.509 44.74 157.39 L 17.66 149 C 17.0337 148.809 16.5407 148.323 16.34 147.7 L 0.59 98.74 C 0.464041 98.3391 0.46754 97.9088 0.6 97.51 Z M 27.76 107.51 L 5.54 101.09 L 19.82 145.52 L 42.28 152.45 Z" stroke="#040000" stroke-miterlimit="10" fill="#060001"/><path d=" M 36.7 204.58 C 42.34 196.82 48.0067 189.013 53.7 181.16 C 50.92 172.593 48.15 164.037 45.39 155.49 L 18.29 147.12 C 21.3433 156.68 24.4133 166.237 27.5 175.79 C 30.5867 185.343 33.6533 194.94 36.7 204.58 Z" stroke="#040000" stroke-miterlimit="10" fill="#808080" fill-rule="evenodd"/><path d=" M 16.35 146.5 C 16.4432 146.204 16.6041 145.933 16.82 145.71 C 17.3428 145.186 18.1122 144.994 18.82 145.21 L 46 153.59 C 46.6163 153.785 47.1006 154.265 47.3 154.88 L 55.61 180.54 C 55.7934 181.145 55.6902 181.801 55.33 182.32 C 50.1433 189.54 44.96 196.703 39.78 203.81 L 38.36 205.75 C 37.9223 206.358 37.1812 206.671 36.44 206.56 C 35.6937 206.44 35.0786 205.91 34.85 205.19 L 25.56 176.4 C 22.48 166.847 19.4067 157.29 16.34 147.73 C 16.214 147.329 16.2175 146.899 16.35 146.5 Z M 43.78 157.09 L 21.31 150.16 C 23.9767 158.493 26.66 166.827 29.36 175.16 L 37.36 200.16 C 42.0267 193.727 46.71 187.257 51.41 180.75 Z" stroke="#040000" stroke-miterlimit="10" fill="#060001"/><path d=" M 43.3 67.6 C 52.1 70.2667 60.9567 72.9533 69.87 75.66 L 91 60.39 C 90.83 51.3 90.68 42.24 90.53 33.16 L 66.76 50.49 C 58.92 56.2167 51.1 61.92 43.3 67.6 Z" stroke="#040000" stroke-miterlimit="10" fill="#808080" fill-rule="evenodd"/><path d=" M 41.4 67 C 41.5308 66.6029 41.7782 66.2544 42.11 66 L 89.36 31.55 C 89.96 31.1121 90.7532 31.0428 91.42 31.37 C 92.0901 31.7029 92.5183 32.3819 92.53 33.13 L 93 60.36 C 93.0058 61.009 92.6964 61.6204 92.17 62 L 71 77.28 C 70.4938 77.6442 69.8466 77.7515 69.25 77.57 C 60.35 74.9033 51.4933 72.2167 42.68 69.51 C 41.9546 69.2894 41.4164 68.6776 41.29 67.93 C 41.2526 67.6157 41.2902 67.2969 41.4 67 Z M 88.6 37 L 47.7 66.86 C 54.9333 69.06 62.2 71.26 69.5 73.46 L 89 59.38 Z" stroke="#040000" stroke-miterlimit="10" fill="#060001"/><path d=" M 133.67 2.09 C 133.67 11.24 133.77 20.41 133.83 29.61 C 148.23 40.0767 162.67 50.56 177.15 61.06 C 177.01 51.8 176.9 42.5633 176.82 33.35 C 162.4 22.9233 148.017 12.5033 133.67 2.09 Z" stroke="#040000" stroke-miterlimit="10" fill="#808080" fill-rule="evenodd"/><path d=" M 178.07 62.84 C 178.754 62.4859 179.175 61.7702 179.15 61 C 179.01 51.74 178.9 42.51 178.82 33.31 C 178.818 32.6734 178.514 32.0756 178 31.7 L 135 0.61 C 134.098 0.420948 133.159 0.511652 132.31 0.87 C 132.254 0.879511 132.196 0.879511 132.14 0.87 L 132.14 0.87 L 132.03 0.87 C 131.908 1.02622 131.813 1.20206 131.75 1.39 C 131.685 1.59009 131.655 1.79973 131.66 2.01 C 131.66 9.43 131.7 16.87 131.78 24.33 L 131.78 29.55 C 131.787 30.1848 132.095 30.7786 132.61 31.15 L 176 62.68 C 176.606 63.1153 177.404 63.177 178.07 62.84 Z M 135.82 28.59 L 135.82 24.38 C 135.78 18.24 135.743 12.1167 135.71 6.01 L 174.86 34.38 C 174.94 41.94 175.03 49.5167 175.13 57.11 Z" stroke="#040000" stroke-miterlimit="10" fill="#060001"/><path d=" M 216.3 254.87 C 221.58 238.597 226.867 222.333 232.16 206.08 C 226.76 198.467 221.36 190.883 215.96 183.33 L 200.1 232.13 C 205.48 239.71 210.88 247.29 216.3 254.87 Z" stroke="#040000" stroke-miterlimit="10" fill="#808080" fill-rule="evenodd"/><path d=" M 217.13 256.65 C 217.544 256.369 217.886 255.996 218.13 255.56 C 218.13 255.56 218.13 255.56 218.13 255.51 C 218.16 255.4 218.208 255.296 218.27 255.2 C 218.27 255.12 218.34 255.04 218.36 254.97 L 218.36 254.97 L 234.05 206.71 C 234.244 206.11 234.144 205.455 233.78 204.94 L 217.57 182.17 C 216.922 181.275 215.672 181.076 214.777 181.724 C 214.436 181.971 214.181 182.32 214.05 182.72 L 198.19 231.52 C 197.996 232.12 198.096 232.775 198.46 233.29 C 201.88 238.11 205.31 242.93 208.75 247.75 L 214.66 256.04 C 215.099 256.652 215.845 256.965 216.59 256.85 C 216.752 256.823 216.91 256.776 217.06 256.71 Z M 212 245.42 C 208.76 240.873 205.527 236.33 202.3 231.79 L 216.62 187.71 L 230 206.42 L 215.67 250.48 Z" stroke="#040000" stroke-miterlimit="10" fill="#060001"/><path d=" M 250.6 149.39 C 241.78 152.31 232.957 155.243 224.13 158.19 L 216 183.33 C 221.387 190.897 226.787 198.48 232.2 206.08 L 241.42 177.7 C 244.473 168.26 247.533 158.823 250.6 149.39 Z" stroke="#040000" stroke-miterlimit="10" fill="#808080" fill-rule="evenodd"/><path d=" M 214.06 182.71 L 222.23 157.57 C 222.42 156.964 222.894 156.49 223.5 156.3 C 232.333 153.34 241.157 150.403 249.97 147.49 C 250.674 147.269 251.443 147.453 251.97 147.97 C 252.49 148.495 252.679 149.264 252.46 149.97 L 234.02 206.67 C 233.668 207.717 232.534 208.281 231.487 207.929 C 231.09 207.795 230.745 207.54 230.5 207.2 L 214.3 184.46 C 213.953 183.946 213.864 183.299 214.06 182.71 Z M 225.71 159.71 L 218.17 183 L 231.49 201.71 L 247.49 152.53 Z" stroke="#040000" stroke-miterlimit="10" fill="#040000"/><path d=" M 267.17 98.44 C 258.337 101.36 249.507 104.297 240.68 107.25 L 224.13 158.19 C 232.963 155.243 241.787 152.31 250.6 149.39 C 256.12 132.39 261.643 115.407 267.17 98.44 Z" stroke="#040000" stroke-miterlimit="10" fill="#808080" fill-rule="evenodd"/><path d=" M 251.23 151.28 C 251.833 151.079 252.304 150.604 252.5 150 L 268.72 100.14 C 268.732 99.701 268.698 99.2621 268.62 98.83 C 268.615 98.7701 268.615 98.7099 268.62 98.65 C 268.442 98.1215 268.217 97.6095 267.95 97.12 C 267.95 97.12 267.89 97.07 267.87 97.04 C 267.85 97.01 267.59 96.7 267.43 96.54 L 267.43 96.48 C 267.145 96.4419 266.855 96.4658 266.58 96.55 C 257.727 99.4567 248.893 102.39 240.08 105.35 C 239.477 105.551 239.006 106.026 238.81 106.63 L 222.26 157.57 C 222.041 158.276 222.23 159.045 222.75 159.57 C 223.277 160.087 224.046 160.271 224.75 160.05 C 233.583 157.117 242.41 154.193 251.23 151.28 Z M 242.23 108.82 C 249.497 106.393 256.757 103.98 264.01 101.58 L 249.01 147.81 C 241.75 150.21 234.493 152.62 227.24 155.04 Z" stroke="#040000" stroke-miterlimit="10" fill="#060001"/><path d=" M 43.41 155.46 C 43.5414 155.058 43.797 154.708 44.14 154.46 L 85.14 124.7 C 85.656 124.323 86.3213 124.215 86.93 124.41 C 87.5387 124.61 88.0146 125.09 88.21 125.7 L 106.38 181.61 C 106.589 182.218 106.48 182.889 106.09 183.4 C 105.714 183.914 105.117 184.218 104.48 184.22 L 53.83 184.22 C 52.9675 184.221 52.2017 183.669 51.93 182.85 L 43.41 156.7 C 43.2852 156.296 43.2852 155.864 43.41 155.46 Z M 85.22 129.55 L 47.66 156.84 L 55.28 180.25 L 101.7 180.25 Z" stroke="#040000" stroke-miterlimit="10" fill="#060001"/><path d=" M 68 75.37 C 68.1255 74.9649 68.3824 74.613 68.73 74.37 L 89.84 59 C 90.5386 58.4961 91.4814 58.4961 92.18 59 L 135 90.16 C 135.521 90.5355 135.829 91.1381 135.83 91.78 C 135.842 92.4221 135.53 93.027 135 93.39 L 87.44 127.93 C 86.5439 128.576 85.2939 128.373 84.6481 127.477 C 84.5278 127.31 84.434 127.125 84.37 126.93 L 68 76.6 C 67.8651 76.2011 67.8651 75.7689 68 75.37 Z M 91 63.12 L 72.25 76.74 L 87.32 123.09 L 130.44 91.78 Z" stroke="#040000" stroke-miterlimit="10" fill="#060001"/><path d=" M 102.54 181.62 C 102.606 181.419 102.704 181.23 102.83 181.06 C 103.206 180.546 103.803 180.242 104.44 180.24 L 163.24 180.24 C 163.88 180.238 164.482 180.543 164.86 181.06 C 165.234 181.578 165.338 182.243 165.14 182.85 L 148.78 233.21 C 148.508 234.029 147.742 234.581 146.88 234.58 L 120.8 234.58 C 119.939 234.575 119.177 234.019 118.91 233.2 L 102.54 182.82 C 102.421 182.429 102.421 182.011 102.54 181.62 Z M 160.54 184.24 L 107.19 184.24 L 122.26 230.63 L 145.43 230.63 Z" stroke="#040000" stroke-miterlimit="10" fill="#060001"/><path d=" M 131.93 91.16 C 132.066 90.76 132.32 90.4111 132.66 90.16 L 175.42 59.1 C 176.119 58.5961 177.061 58.5961 177.76 59.1 L 198.91 74.46 C 199.61 74.9675 199.904 75.867 199.64 76.69 L 183.31 127 C 182.966 128.05 181.837 128.622 180.787 128.278 C 180.591 128.214 180.407 128.12 180.24 128 L 132.66 93.39 C 132.146 93.0144 131.842 92.4166 131.84 91.78 C 131.839 91.57 131.869 91.361 131.93 91.16 Z M 176.59 63.16 L 137.23 91.77 L 180.36 123.1 L 195.36 76.83 Z" stroke="#040000" stroke-miterlimit="10" fill="#060001"/><path d=" M 89.11 60 C 89.245 59.5997 89.4999 59.2506 89.84 59 L 132.6 28 C 133.299 27.4961 134.241 27.4961 134.94 28 L 177.76 59.1 C 178.278 59.4734 178.586 60.0716 178.59 60.71 C 178.602 61.3498 178.295 61.9535 177.77 62.32 L 135 93.39 C 134.299 93.8987 133.351 93.8987 132.65 93.39 L 89.84 62.26 C 89.3185 61.8887 89.0062 61.2902 89 60.65 C 88.9977 60.4285 89.0349 60.2084 89.11 60 Z M 133.77 32 L 94.41 60.65 L 133.83 89.31 L 173.2 60.72 Z" stroke="#040000" stroke-miterlimit="10" fill="#060001"/><path d=" M 145 232 L 161.36 181.64 C 161.632 180.821 162.398 180.269 163.26 180.27 L 216.1 180.27 C 216.739 180.261 217.341 180.568 217.71 181.09 C 218.087 181.606 218.195 182.271 218 182.88 L 201.63 233.25 C 201.363 234.069 200.601 234.625 199.74 234.63 L 146.88 234.63 C 146.241 234.639 145.639 234.332 145.27 233.81 C 144.893 233.286 144.793 232.612 145 232 Z M 164.71 184.26 L 149.65 230.63 L 198.28 230.63 L 213.36 184.25 Z" stroke="#040000" stroke-miterlimit="10" fill="#060001"/><path d=" M 179.51 125.71 L 195.84 75.45 C 196.04 74.8413 196.52 74.3654 197.13 74.17 C 197.736 73.9785 198.396 74.0861 198.91 74.46 L 241.66 105.52 C 242.356 106.03 242.646 106.929 242.38 107.75 L 226.06 158 C 225.86 158.609 225.38 159.085 224.77 159.28 C 224.169 159.471 223.513 159.367 223 159 L 180.25 127.94 C 179.547 127.435 179.248 126.535 179.51 125.71 Z M 198.79 79.3 L 183.79 125.57 L 223.14 154.16 L 238.14 107.9 Z" stroke="#040000" stroke-miterlimit="10" fill="#060001"/><path d=" M 161.34 181.63 L 179.51 125.71 C 179.71 125.101 180.19 124.625 180.8 124.43 C 181.406 124.238 182.066 124.346 182.58 124.72 L 225.33 155.78 C 226.03 156.288 226.324 157.187 226.06 158.01 L 218 182.86 C 217.728 183.679 216.962 184.231 216.1 184.23 L 163.24 184.23 C 162.601 184.239 161.999 183.932 161.63 183.41 C 161.256 182.896 161.148 182.236 161.34 181.63 Z M 182.46 129.56 L 166 180.26 L 214.64 180.26 L 221.82 158.16 Z" stroke="#040000" stroke-miterlimit="10" fill="#060001"/></g></g></svg>