<svg version="1.1" viewBox="0 0 269.12 257.44" xmlns="http://www.w3.org/2000/svg" xmlns:xlink="http://www.w3.org/1999/xlink" overflow="hidden"><defs></defs><g id="a842b0d1-fa0b-4a6f-a961-1a99e64f1afc"><g id="ff49a524-471a-49d3-b017-d05f69b7e473"><path d=" M 163.14 181.85 L 104.33 181.84 L 86.15 125.94 L 133.72 91.4 L 181.31 125.92 L 163.14 181.85 Z" fill="#808080"/><path d=" M 163.14 181.85 L 181.31 125.92 L 133.72 91.4 L 86.15 125.94 L 104.33 181.84 L 163.14 181.85 Z" stroke="#040000" stroke-miterlimit="10" fill="none"/><path d=" M 84.27 125.31 C 84.4014 124.908 84.657 124.558 85 124.31 L 132.56 89.77 C 133.259 89.2661 134.201 89.2661 134.9 89.77 L 182.48 124.33 C 183.18 124.838 183.474 125.737 183.21 126.56 L 165 182.48 C 164.728 183.299 163.962 183.851 163.1 183.85 L 104.3 183.85 C 103.435 183.849 102.668 183.293 102.4 182.47 L 84.27 126.55 C 84.1386 126.147 84.1386 125.713 84.27 125.31 Z M 133.73 93.85 L 88.51 126.69 L 105.79 179.85 L 161.69 179.85 L 179 126.7 Z" stroke="#040000" stroke-miterlimit="10" fill="#211613"/><path d=" M 53.46 254.85 L 69.89 232.41 L 120.71 232.41 L 104.27 254.84 L 53.46 254.85 Z" stroke="#040000" stroke-miterlimit="10" fill="#808080" fill-rule="evenodd"/><path d=" M 105.88 256 L 122.32 233.57 C 122.759 232.962 122.821 232.158 122.48 231.49 C 122.14 230.825 121.457 230.404 120.71 230.4 L 69.89 230.4 C 69.2534 230.402 68.6556 230.706 68.28 231.22 L 51.85 253.67 C 51.7243 253.84 51.6264 254.029 51.56 254.23 C 51.5644 254.263 51.5644 254.297 51.56 254.33 C 51.2973 255.163 51.6049 256.069 52.32 256.57 C 52.6901 256.775 53.0987 256.901 53.52 256.94 C 53.7066 256.936 53.8918 256.906 54.07 256.85 L 104.3 256.85 C 104.931 256.832 105.517 256.517 105.88 256 Z M 57.4 252.86 L 70.9 234.41 L 116.77 234.41 L 103.25 252.85 Z" stroke="#040000" stroke-miterlimit="10" fill="#060001"/><path d=" M 104.27 254.84 L 120.71 232.41 L 146.88 232.42 L 163.3 254.85 L 104.27 254.84 Z" stroke="#040000" stroke-miterlimit="10" fill="#808080" fill-rule="evenodd"/><path d=" M 102.37 254.23 C 102.432 254.027 102.53 253.838 102.66 253.67 L 119.1 231.24 C 119.476 230.726 120.073 230.422 120.71 230.42 L 146.88 230.42 C 147.515 230.419 148.112 230.72 148.49 231.23 L 164.92 253.67 C 165.566 254.566 165.364 255.816 164.468 256.462 C 164.128 256.707 163.719 256.84 163.3 256.84 L 104.85 256.84 C 104.449 256.965 104.021 256.965 103.62 256.84 C 102.571 256.497 101.998 255.369 102.34 254.32 C 102.352 254.291 102.362 254.26 102.37 254.23 Z M 121.72 234.41 L 108.2 252.85 L 159.37 252.85 L 145.87 234.42 Z" stroke="#040000" stroke-miterlimit="10" fill="#060001"/><path d=" M 86.17 125.93 L 45.21 155.69 L 53.73 181.86 L 104.34 181.84 L 86.17 125.93 Z" stroke="#040000" stroke-miterlimit="10" fill="#1B1B1B" fill-rule="evenodd"/><path d=" M 53.73 181.86 L 70.09 232.24 L 120.7 232.22 L 104.34 181.84 L 53.73 181.86 Z" stroke="#040000" stroke-miterlimit="10" fill="#1B1B1B" fill-rule="evenodd"/><path d=" M 51.83 181.24 C 51.8983 181.04 51.9961 180.851 52.12 180.68 C 52.4956 180.166 53.0934 179.862 53.73 179.86 L 104.34 179.86 C 105.205 179.861 105.972 180.417 106.24 181.24 L 122.6 231.62 C 122.809 232.228 122.7 232.899 122.31 233.41 C 121.934 233.924 121.337 234.228 120.7 234.23 L 70.09 234.23 C 69.2248 234.229 68.4582 233.673 68.19 232.85 L 51.83 182.47 C 51.7008 182.07 51.7008 181.64 51.83 181.24 Z M 102.89 183.84 L 56.47 183.84 L 71.54 230.23 L 118 230.23 Z" stroke="#040000" stroke-miterlimit="10" fill="#060001"/><path d=" M 45.21 155.69 L 86.17 125.93 L 69.81 75.59 L 28.86 105.35 L 45.21 155.69 Z" stroke="#040000" stroke-miterlimit="10" fill="#1B1B1B" fill-rule="evenodd"/><path d=" M 27 104.74 C 27.1222 104.336 27.3756 103.984 27.72 103.74 L 68.63 74 C 69.146 73.6229 69.8113 73.5151 70.42 73.71 C 71.0287 73.9101 71.5046 74.3898 71.7 75 L 88.06 125.34 C 88.3214 126.158 88.0316 127.051 87.34 127.56 L 46.34 157.32 C 45.4439 157.966 44.1939 157.763 43.5481 156.867 C 43.4278 156.7 43.334 156.516 43.27 156.32 L 27 106 C 26.8583 105.592 26.8583 105.148 27 104.74 Z M 68.76 78.83 L 31.21 106.11 L 46.21 152.45 L 83.77 125.17 Z" stroke="#040000" stroke-miterlimit="10" fill="#060001"/><path d=" M 133.73 91.39 L 90.91 60.26 L 69.81 75.59 L 86.17 125.93 L 133.73 91.39 Z" stroke="#040000" stroke-miterlimit="10" fill="#808080" fill-rule="evenodd"/><path d=" M 104.34 181.84 L 120.7 232.22 L 146.78 232.22 L 163.14 181.86 L 104.34 181.84 Z" stroke="#040000" stroke-miterlimit="10" fill="#1B1B1B" fill-rule="evenodd"/><path d=" M 181.31 125.94 L 197.64 75.68 L 176.49 60.32 L 133.73 91.39 L 181.31 125.94 Z" stroke="#040000" stroke-miterlimit="10" fill="#1B1B1B" fill-rule="evenodd"/><path d=" M 176.49 60.32 L 133.66 29.2 L 90.91 60.26 L 133.73 91.39 L 176.49 60.32 Z" stroke="#040000" stroke-miterlimit="10" fill="#1B1B1B" fill-rule="evenodd"/><path d=" M 146.78 232.22 L 199.61 232.22 L 215.98 181.85 L 163.14 181.86 L 146.78 232.22 Z" stroke="#040000" stroke-miterlimit="10" fill="#808080" fill-rule="evenodd"/><path d=" M 224.06 157 L 240.38 106.75 L 197.64 75.68 L 181.31 125.94 L 224.06 157 Z" stroke="#040000" stroke-miterlimit="10" fill="#1B1B1B" fill-rule="evenodd"/><path d=" M 163.14 181.86 L 215.98 181.85 L 224.06 157 L 181.31 125.94 L 163.14 181.86 Z" stroke="#040000" stroke-miterlimit="10" fill="#1B1B1B" fill-rule="evenodd"/><path d=" M 36.6 204.19 C 42.24 196.43 47.9067 188.623 53.6 180.77 C 50.82 172.197 48.05 163.64 45.29 155.1 C 36.19 152.28 27.1533 149.49 18.18 146.73 C 21.24 156.29 24.3133 165.847 27.4 175.4 C 30.4867 184.953 33.5533 194.55 36.6 204.19 Z" stroke="#040000" stroke-miterlimit="10" fill="#808080" fill-rule="evenodd"/><path d=" M 16.24 146.11 C 16.3411 145.815 16.5049 145.546 16.72 145.32 C 17.2428 144.796 18.0122 144.604 18.72 144.82 L 45.84 153.2 C 46.4563 153.395 46.9406 153.875 47.14 154.49 L 55.44 180.15 C 55.6372 180.753 55.5371 181.413 55.17 181.93 C 49.9833 189.15 44.8 196.313 39.62 203.42 L 38.2 205.36 C 37.7623 205.968 37.0212 206.281 36.28 206.17 C 35.5299 206.054 34.9102 205.523 34.68 204.8 L 25.45 176 C 22.37 166.453 19.3 156.897 16.24 147.33 C 16.1168 146.933 16.1168 146.507 16.24 146.11 Z M 43.67 156.7 L 21.21 149.77 C 23.8767 158.11 26.5433 166.443 29.21 174.77 L 37.21 199.77 C 41.8767 193.337 46.5633 186.867 51.27 180.36 Z" stroke="#040000" stroke-miterlimit="10" fill="#060001"/><path d=" M 132 2.48 C 118.04 12.66 104.183 22.7567 90.43 32.77 C 90.58 41.85 90.73 50.91 90.89 60 L 132.47 30 C 132.283 20.8267 132.127 11.6533 132 2.48 Z" stroke="#040000" stroke-miterlimit="10" fill="#808080" fill-rule="evenodd"/><path d=" M 92.07 61.62 L 133.64 31.62 C 134.172 31.2363 134.482 30.616 134.47 29.96 C 134.28 21.35 134.13 12.75 133.98 4.1 L 133.98 2.49 C 133.978 1.72068 133.535 1.02081 132.84 0.69 C 132.612 0.577999 132.364 0.513365 132.11 0.5 C 132.11 0.5 132.11 0.5 132.11 0.5 L 132.11 0.5 C 131.971 0.561567 131.822 0.595532 131.67 0.6 L 130.94 0.92 L 130.42 1.13 C 116.633 11.2233 102.927 21.2233 89.3 31.13 C 88.9607 31.3792 88.7088 31.7292 88.58 32.13 C 88.5119 32.3399 88.4781 32.5594 88.48 32.78 L 88.9 60 C 88.9176 61.1044 89.8272 61.9855 90.9316 61.9679 C 91.3408 61.9613 91.7381 61.8295 92.07 61.59 Z M 92.44 33.77 C 104.9 24.7033 117.42 15.5667 130 6.36 C 130.127 13.9133 130.27 21.44 130.43 28.94 L 92.83 56.15 Z" stroke="#040000" stroke-miterlimit="10" fill="#060001"/><path d=" M 1.63 97.53 L 27.63 105.72 C 41.5633 95.64 55.61 85.49 69.77 75.27 C 60.8633 72.6033 52.0033 69.9167 43.19 67.21 C 29.2233 77.4033 15.37 87.51 1.63 97.53 Z" stroke="#040000" stroke-miterlimit="10" fill="#808080" fill-rule="evenodd"/><path d=" M 28.8 107.33 L 70.94 76.89 C 71.5599 76.426 71.8655 75.6524 71.73 74.89 C 71.6036 74.1424 71.0654 73.5306 70.34 73.31 C 61.4467 70.6567 52.59 67.9867 43.77 65.3 C 43.1718 65.1214 42.5245 65.2324 42.02 65.6 L 1.52 95.14 C 1.39248 95.3193 1.282 95.5101 1.19 95.71 L 1 96 C 0.960216 96.1881 0.874308 96.3633 0.75 96.51 C 0.729806 96.6853 0.6681 96.8533 0.57 97 C 0.433524 97.5662 0.479012 98.1611 0.7 98.7 C 0.794597 98.892 0.829431 99.108 0.8 99.32 C 0.871659 99.3663 0.948954 99.4033 1.03 99.43 L 27.03 107.62 C 27.6327 107.808 28.2889 107.701 28.8 107.33 Z M 6 96.81 L 43.56 69.41 C 50.78 71.61 58.0333 73.81 65.32 76.01 L 27.32 103.51 Z" stroke="#040000" stroke-miterlimit="10" fill="#040000"/><path d=" M 176.72 33 C 176.813 42.22 176.923 51.4567 177.05 60.71 C 184.177 65.91 191.327 71.1067 198.5 76.3 C 207.32 73.53 216.12 70.73 224.96 67.96 C 216.867 62.12 208.813 56.2867 200.8 50.46 C 192.787 44.6333 184.76 38.8133 176.72 33 Z" stroke="#040000" stroke-miterlimit="10" fill="#808080" fill-rule="evenodd"/><path d=" M 174.82 32.34 C 174.989 31.8397 175.348 31.4263 175.82 31.19 C 176.488 30.8489 177.292 30.9107 177.9 31.35 C 185.9 37.17 193.927 42.9867 201.98 48.8 L 202.39 49.09 C 210.263 54.8167 218.177 60.5533 226.13 66.3 C 226.746 66.7412 227.059 67.4921 226.94 68.24 C 226.798 68.979 226.272 69.5855 225.56 69.83 L 199.1 78.17 C 198.5 78.3548 197.849 78.2474 197.34 77.88 C 190.18 72.6933 183.03 67.4967 175.89 62.29 C 175.381 61.9228 175.073 61.3378 175.06 60.71 C 174.927 51.43 174.817 42.1867 174.73 32.98 C 174.73 32.7635 174.76 32.5481 174.82 32.34 Z M 220.56 67.21 C 213.693 62.25 206.84 57.29 200 52.33 C 192.71 47 185.71 42 178.76 36.91 C 178.84 44.47 178.93 52.05 179.03 59.65 L 198.86 74.06 Z" stroke="#040000" stroke-miterlimit="10" fill="#060001"/><path d=" M 250.5 149 C 241.68 151.92 232.853 154.853 224.02 157.8 L 215.86 182.94 C 221.247 190.507 226.647 198.09 232.06 205.69 L 241.28 177.31 C 244.353 167.87 247.427 158.433 250.5 149 Z" stroke="#040000" stroke-miterlimit="10" fill="#808080" fill-rule="evenodd"/><path d=" M 214 182.32 L 222.17 157.18 C 222.367 156.582 222.834 156.111 223.43 155.91 C 232.263 152.963 241.09 150.027 249.91 147.1 C 250.616 146.881 251.385 147.07 251.91 147.59 C 252.43 148.115 252.619 148.884 252.4 149.59 L 234 206.31 C 233.653 207.359 232.522 207.928 231.473 207.581 C 231.068 207.448 230.717 207.188 230.47 206.84 L 214.27 184.1 C 213.903 183.583 213.803 182.923 214 182.32 Z M 225.65 159.37 L 218.11 182.6 L 231.43 201.31 L 247.43 152.13 Z" stroke="#040000" stroke-miterlimit="10" fill="#040000"/><path d=" M 267.07 98.05 C 258.23 100.97 249.4 103.907 240.58 106.86 L 224 157.8 C 232.827 154.847 241.653 151.913 250.48 149 C 256.013 132 261.543 115.017 267.07 98.05 Z" stroke="#040000" stroke-miterlimit="10" fill="#808080" fill-rule="evenodd"/><path d=" M 251.13 150.89 C 251.733 150.689 252.204 150.214 252.4 149.61 L 268.62 99.75 C 268.622 99.3114 268.588 98.8733 268.52 98.44 C 268.52 98.37 268.52 98.32 268.52 98.26 C 268.349 97.7301 268.128 97.2178 267.86 96.73 L 267.78 96.65 C 267.64 96.48 267.5 96.31 267.34 96.15 L 267.34 96.09 C 267.058 96.0534 266.772 96.0773 266.5 96.16 C 257.653 99.0667 248.82 102 240 104.96 C 239.397 105.161 238.926 105.636 238.73 106.24 L 222.18 157.18 C 221.961 157.886 222.15 158.655 222.67 159.18 C 223.197 159.697 223.966 159.881 224.67 159.66 C 233.497 156.727 242.317 153.803 251.13 150.89 Z M 242.13 108.43 C 249.403 105.997 256.667 103.583 263.92 101.19 L 248.92 147.42 C 241.64 149.807 234.383 152.217 227.15 154.65 Z" stroke="#040000" stroke-miterlimit="10" fill="#060001"/><path d=" M 43.31 155.07 C 43.4414 154.668 43.697 154.318 44.04 154.07 L 85 124.32 C 85.8961 123.674 87.1461 123.877 87.7919 124.773 C 87.9122 124.94 88.006 125.125 88.07 125.32 L 106.25 181.23 C 106.463 181.825 106.37 182.487 106 183 C 105.624 183.514 105.027 183.818 104.39 183.82 L 53.73 183.82 C 52.8675 183.821 52.1017 183.269 51.83 182.45 L 43.31 156.28 C 43.1851 155.886 43.1851 155.464 43.31 155.07 Z M 85.12 129.16 L 47.56 156.45 L 55.18 179.86 L 101.59 179.86 Z" stroke="#040000" stroke-miterlimit="10" fill="#060001"/><path d=" M 67.91 75 C 68.0388 74.5992 68.2907 74.2493 68.63 74 L 89.73 58.67 C 90.4307 58.1613 91.3793 58.1613 92.08 58.67 L 134.9 89.77 C 135.417 90.1477 135.722 90.7499 135.72 91.39 C 135.739 92.0314 135.43 92.6385 134.9 93 L 87.34 127.54 C 86.4439 128.186 85.1939 127.983 84.5481 127.087 C 84.4278 126.92 84.334 126.735 84.27 126.54 L 67.91 76.21 C 67.7796 75.8172 67.7796 75.3928 67.91 75 Z M 90.91 62.75 L 72.15 76.35 L 87.22 122.71 L 130.34 91.39 Z" stroke="#040000" stroke-miterlimit="10" fill="#060001"/><path d=" M 102.44 181.23 C 102.506 181.029 102.604 180.84 102.73 180.67 C 103.106 180.156 103.703 179.852 104.34 179.85 L 163.14 179.85 C 163.78 179.848 164.382 180.153 164.76 180.67 C 165.134 181.188 165.238 181.853 165.04 182.46 L 148.68 232.82 C 148.408 233.639 147.642 234.191 146.78 234.19 L 120.7 234.19 C 119.839 234.185 119.077 233.629 118.81 232.81 L 102.44 182.43 C 102.317 182.039 102.317 181.621 102.44 181.23 Z M 160.39 183.86 L 107.08 183.86 L 122.15 230.25 L 145.33 230.25 Z" stroke="#040000" stroke-miterlimit="10" fill="#060001"/><path d=" M 131.83 90.77 C 131.961 90.3678 132.217 90.0177 132.56 89.77 L 175.32 58.71 C 176.019 58.2061 176.961 58.2061 177.66 58.71 L 198.81 74.07 C 199.51 74.5775 199.804 75.477 199.54 76.3 L 183.21 126.56 C 183.01 127.169 182.53 127.645 181.92 127.84 C 181.314 128.032 180.654 127.924 180.14 127.55 L 132.56 93 C 132.046 92.6244 131.742 92.0266 131.74 91.39 C 131.734 91.1797 131.765 90.97 131.83 90.77 Z M 176.49 62.77 L 137.13 91.38 L 180.26 122.71 L 195.26 76.44 Z" stroke="#040000" stroke-miterlimit="10" fill="#060001"/><path d=" M 89 59.64 C 89.135 59.2397 89.3899 58.8906 89.73 58.64 L 132.48 27.64 C 133.181 27.1313 134.129 27.1313 134.83 27.64 L 177.65 58.76 C 178.172 59.1289 178.479 59.731 178.47 60.37 C 178.493 61.0123 178.183 61.6211 177.65 61.98 L 134.9 93 C 134.201 93.5039 133.259 93.5039 132.56 93 L 89.74 61.87 C 89.2182 61.5011 88.9115 60.899 88.92 60.26 C 88.9067 60.0501 88.9338 59.8396 89 59.64 Z M 133.66 31.64 L 94.3 60.26 L 133.73 88.92 L 173.1 60.33 Z" stroke="#040000" stroke-miterlimit="10" fill="#060001"/><path d=" M 144.88 231.6 L 161.24 181.24 C 161.512 180.421 162.278 179.869 163.14 179.87 L 216 179.87 C 216.639 179.861 217.241 180.168 217.61 180.69 C 217.987 181.206 218.095 181.871 217.9 182.48 L 201.53 232.85 C 201.262 233.673 200.495 234.229 199.63 234.23 L 146.78 234.23 C 146.141 234.239 145.539 233.932 145.17 233.41 C 144.786 232.889 144.678 232.215 144.88 231.6 Z M 164.59 183.86 L 149.52 230.23 L 198.16 230.23 L 213.23 183.85 Z" stroke="#040000" stroke-miterlimit="10" fill="#060001"/><path d=" M 179.41 125.32 L 195.74 75.06 C 195.934 74.4581 196.401 73.9835 197 73.78 C 197.606 73.5885 198.266 73.6961 198.78 74.07 L 241.53 105.13 C 242.226 105.64 242.516 106.539 242.25 107.36 L 226 157.62 C 225.656 158.67 224.527 159.242 223.477 158.898 C 223.281 158.834 223.097 158.74 222.93 158.62 L 180.19 127.56 C 179.468 127.065 179.151 126.157 179.41 125.32 Z M 198.69 78.91 L 183.69 125.18 L 223 153.77 L 238 107.51 Z" stroke="#040000" stroke-miterlimit="10" fill="#060001"/><path d=" M 161.24 181.24 L 179.41 125.32 C 179.599 124.696 180.081 124.203 180.7 124 C 181.306 123.808 181.966 123.916 182.48 124.29 L 225.23 155.35 C 225.926 155.86 226.216 156.759 225.95 157.58 L 217.88 182.43 C 217.608 183.249 216.842 183.801 215.98 183.8 L 163.14 183.8 C 162.505 183.801 161.908 183.5 161.53 182.99 C 161.166 182.484 161.059 181.837 161.24 181.24 Z M 182.36 129.17 L 165.89 179.87 L 214.53 179.87 L 221.71 157.77 Z" stroke="#040000" stroke-miterlimit="10" fill="#060001"/></g></g></svg>