<svg version="1.1" viewBox="0 0 270.4 256.79" xmlns="http://www.w3.org/2000/svg" xmlns:xlink="http://www.w3.org/1999/xlink" overflow="hidden"><defs></defs><g id="b0f89ff2-1183-4073-bb22-fa6ca7c23fe3"><g id="b539bfe5-7036-47a6-81fb-c27a425b3243"><path d=" M 105.88 181.35 L 87.72 125.41 L 135.26 90.85 L 182.81 125.41 L 164.65 181.35 L 105.88 181.35 Z" fill="#808080"/><path d=" M 105.88 181.35 L 164.65 181.35 L 182.81 125.41 L 135.26 90.85 L 87.72 125.41 L 105.88 181.35 Z" stroke="#040000" stroke-miterlimit="10" fill="none"/><path d=" M 135.27 88.87 C 135.694 88.8685 136.107 89.0016 136.45 89.25 L 184 123.81 C 184.696 124.32 184.986 125.219 184.72 126.04 L 166.56 182 C 166.292 182.823 165.525 183.379 164.66 183.38 L 105.86 183.38 C 105.01 183.362 104.263 182.809 104 182 L 85.82 126 C 85.5538 125.179 85.8441 124.28 86.54 123.77 L 134.1 89.25 C 134.438 88.9991 134.849 88.8657 135.27 88.87 Z M 180.48 126.19 L 135.27 93.33 L 90.06 126.19 L 107.32 179.36 L 163.21 179.36 Z" stroke="#040000" stroke-miterlimit="10" fill="#211613"/><path d=" M 2.56 99.6 L 28.97 108.28 L 44.67 156.62 L 18.26 147.91 L 2.56 99.6 Z" stroke="#040000" stroke-miterlimit="10" fill="#808080" fill-rule="evenodd"/><path d=" M 17.64 149.81 L 44.05 158.51 C 45.1012 158.849 46.2283 158.272 46.5676 157.221 C 46.6956 156.824 46.6965 156.397 46.57 156 L 30.86 107.67 C 30.6727 107.061 30.1979 106.582 29.59 106.39 L 3.18 97.7 C 2.98045 97.632 2.77083 97.5981 2.56 97.6 C 2.56 97.6 2.48 97.6 2.45 97.6 C 1.57947 97.6034 0.811153 98.1696 0.55 99 C 0.465123 99.4123 0.465123 99.8377 0.55 100.25 C 0.608647 100.431 0.692829 100.603 0.8 100.76 L 16.34 148.52 C 16.5394 149.135 17.0237 149.615 17.64 149.81 Z M 5.64 102.72 L 27.35 109.87 L 41.52 153.49 L 19.81 146.33 Z" stroke="#040000" stroke-miterlimit="10" fill="#060001"/><path d=" M 52.76 181.51 L 69.17 231.98 L 52.91 254.53 L 36.5 204.06 L 52.76 181.51 Z" stroke="#040000" stroke-miterlimit="10" fill="#808080" fill-rule="evenodd"/><path d=" M 51.64 255.52 L 51.76 255.59 C 52.1541 255.891 52.6129 256.097 53.1 256.19 L 53.1 256.19 C 53.2325 256.169 53.3675 256.169 53.5 256.19 C 53.5629 256.2 53.6271 256.2 53.69 256.19 L 53.79 256.19 C 54.0627 256.059 54.302 255.867 54.49 255.63 L 70.74 233.08 C 71.1103 232.561 71.2106 231.896 71.01 231.29 L 54.65 180.89 C 54.4199 180.176 53.81 179.651 53.07 179.53 L 52.76 179.53 C 52.1181 179.531 51.5155 179.839 51.14 180.36 L 34.88 202.89 C 34.5097 203.409 34.4094 204.074 34.61 204.68 L 50.78 254.41 C 51.0296 254.807 51.3176 255.179 51.64 255.52 Z M 38.71 204.4 L 52.08 185.87 L 67 231.63 L 53.59 250.17 Z" stroke="#040000" stroke-miterlimit="10" fill="#060001"/><path d=" M 135.27 90.86 L 94.32 61.1 L 72.06 77.29 L 87.71 125.42 L 135.27 90.86 Z" stroke="#040000" stroke-miterlimit="10" fill="#1B1B1B" fill-rule="evenodd"/><path d=" M 72.06 77.29 L 29.2 108.42 L 44.85 156.55 L 87.71 125.42 L 72.06 77.29 Z" stroke="#040000" stroke-miterlimit="10" fill="#1B1B1B" fill-rule="evenodd"/><path d=" M 72.06 75.3 C 72.2708 75.2989 72.4803 75.3327 72.68 75.4 C 73.3017 75.5871 73.7938 76.0644 74 76.68 L 89.66 124.81 C 89.9241 125.633 89.6296 126.532 88.93 127.04 L 46 158.17 C 45.4893 158.552 44.8232 158.656 44.22 158.45 C 43.6366 158.236 43.1857 157.763 43 157.17 L 27.31 109 C 27.0438 108.179 27.3341 107.28 28.03 106.77 L 70.89 75.68 C 71.2304 75.4336 71.6398 75.3006 72.06 75.3 Z M 85.36 124.66 L 71 80.52 L 31.55 109.19 L 45.9 153.33 Z" stroke="#040000" stroke-miterlimit="10" fill="#060001"/><path d=" M 94.32 61.1 L 135.27 90.86 L 178.09 59.75 L 137.13 30.01 L 94.32 61.1 Z" stroke="#040000" stroke-miterlimit="10" fill="#1B1B1B" fill-rule="evenodd"/><path d=" M 137.13 28 C 137.551 27.9942 137.963 28.1278 138.3 28.38 L 179.3 58.12 C 179.821 58.4955 180.129 59.0981 180.13 59.74 C 180.126 60.3784 179.818 60.9766 179.3 61.35 L 136.44 92.48 C 135.741 92.9839 134.799 92.9839 134.1 92.48 L 93.15 62.72 C 92.2581 62.0685 92.0632 60.8172 92.7147 59.9253 C 92.8365 59.7586 92.9833 59.6118 93.15 59.49 L 136 28.39 C 136.325 28.1418 136.721 28.005 137.13 28 Z M 174.69 59.74 L 137.13 32.47 L 97.72 61.1 L 135.27 88.4 Z" stroke="#040000" stroke-miterlimit="10" fill="#060001"/><path d=" M 182.82 125.42 L 199.19 75.08 L 178.09 59.75 L 135.27 90.86 L 182.82 125.42 Z" stroke="#040000" stroke-miterlimit="10" fill="#1B1B1B" fill-rule="evenodd"/><path d=" M 87.71 125.42 L 44.85 156.55 L 52.91 181.35 L 105.86 181.35 L 87.71 125.42 Z" stroke="#040000" stroke-miterlimit="10" fill="#808080" fill-rule="evenodd"/><path d=" M 164.66 181.35 L 217.51 181.35 L 225.58 156.49 L 182.82 125.42 L 164.66 181.35 Z" stroke="#040000" stroke-miterlimit="10" fill="#1B1B1B" fill-rule="evenodd"/><path d=" M 225.58 156.49 L 241.94 106.15 L 199.19 75.08 L 182.82 125.42 L 225.58 156.49 Z" stroke="#040000" stroke-miterlimit="10" fill="#1B1B1B" fill-rule="evenodd"/><path d=" M 52.91 181.35 L 69.24 231.6 L 122.2 231.6 L 105.86 181.35 L 52.91 181.35 Z" stroke="#040000" stroke-miterlimit="10" fill="#1B1B1B" fill-rule="evenodd"/><path d=" M 148.33 231.6 L 201.17 231.6 L 217.51 181.35 L 164.66 181.35 L 148.33 231.6 Z" stroke="#040000" stroke-miterlimit="10" fill="#1B1B1B" fill-rule="evenodd"/><path d=" M 105.86 181.35 L 122.2 231.6 L 148.33 231.6 L 164.66 181.35 L 105.86 181.35 Z" stroke="#040000" stroke-miterlimit="10" fill="#1B1B1B" fill-rule="evenodd"/><path d=" M 45.52 67.9 C 54.65 70.9 63.8 73.85 73.04 76.8 C 80.3467 71.5133 87.6267 66.2467 94.88 61 C 94.76 51.48 94.6233 42.0267 94.47 32.64 C 86.3167 38.4733 78.1767 44.3333 70.05 50.22 Z" stroke="#040000" stroke-miterlimit="10" fill="#808080" fill-rule="evenodd"/><path d=" M 94.47 30.6 C 95.5746 30.6 96.47 31.4954 96.47 32.6 L 96.88 60.98 C 96.8858 61.629 96.5764 62.2404 96.05 62.62 L 74.21 78.41 C 73.6916 78.7722 73.0366 78.879 72.43 78.7 C 63.97 75.9867 55.5567 73.27 47.19 70.55 L 44.91 69.8 C 44.1963 69.5699 43.6713 68.96 43.55 68.22 C 43.4288 67.4741 43.7383 66.7236 44.35 66.28 L 68.88 48.6 C 77.0133 42.72 85.1533 36.8533 93.3 31 C 93.638 30.7464 94.0475 30.6064 94.47 30.6 Z M 92.87 60 L 92.53 36.49 C 85.43 41.5833 78.3267 46.6967 71.22 51.83 L 49.88 67.22 C 57.4467 69.68 65.05 72.1367 72.69 74.59 Z" stroke="#040000" stroke-miterlimit="10" fill="#060001"/><path d=" M 177.84 31.85 C 178 41.05 178.183 50.3033 178.39 59.61 C 185.39 64.7233 192.39 69.85 199.39 74.99 C 207.99 72.0233 216.577 69.07 225.15 66.13 L 201.36 48.88 C 193.49 43.19 185.65 37.49 177.84 31.85 Z" stroke="#040000" stroke-miterlimit="10" fill="#808080" fill-rule="evenodd"/><path d=" M 177.84 29.85 C 178.258 29.8529 178.666 29.9818 179.01 30.22 L 226.36 64.51 C 227.251 65.1631 227.443 66.4147 226.79 67.3055 C 226.552 67.6308 226.221 67.8764 225.84 68.01 L 200.08 76.87 C 199.465 77.081 198.787 76.9803 198.26 76.6 L 177.26 61.22 C 176.757 60.8528 176.454 60.2724 176.44 59.65 C 176.253 50.35 176.07 41.0967 175.89 31.89 C 175.875 31.1327 176.289 30.4321 176.96 30.08 C 177.233 29.9387 177.533 29.8601 177.84 29.85 Z M 220.9 65.49 L 179.9 35.81 C 180.04 43.3567 180.19 50.9467 180.35 58.58 L 199.76 72.76 Z" stroke="#040000" stroke-miterlimit="10" fill="#060001"/><path d=" M 136.16 1.68 C 136.24 10.7133 136.323 19.8033 136.41 28.95 C 150.303 39.0767 164.303 49.2967 178.41 59.61 C 178.21 50.31 178.027 41.0567 177.86 31.85 Z" stroke="#040000" stroke-miterlimit="10" fill="#808080" fill-rule="evenodd"/><path d=" M 135.23 30.56 L 177.23 61.22 C 177.848 61.6542 178.654 61.7156 179.33 61.38 C 180.001 61.028 180.415 60.3273 180.4 59.57 C 180.213 50.27 180.033 41.0167 179.86 31.81 C 179.847 31.1822 179.539 30.5972 179.03 30.23 L 138.4 0.84 C 138.188 0.772271 137.971 0.725381 137.75 0.7 C 137.69 0.7 137.57 0.7 137.45 0.7 C 137.26 0.714115 137.069 0.686821 136.89 0.62 C 136.698 0.651206 136.501 0.63049 136.32 0.56 C 135.746 0.613962 135.202 0.840595 134.76 1.21 C 134.606 1.36023 134.411 1.4612 134.2 1.5 C 134.2 1.59 134.2 1.67 134.2 1.75 L 134.41 29 C 134.427 29.6189 134.73 30.195 135.23 30.56 Z M 138.23 5.62 L 175.89 32.88 C 176.03 40.42 176.177 48 176.33 55.62 L 138.43 27.92 Z" stroke="#040000" stroke-miterlimit="10" fill="#040000"/><path d=" M 251.67 148.26 C 242.943 151.193 234.193 154.15 225.42 157.13 C 222.68 165.523 219.947 173.93 217.22 182.35 C 222.59 189.88 227.97 197.35 233.33 204.93 C 236.377 195.437 239.437 185.977 242.51 176.55 C 245.583 167.123 248.637 157.693 251.67 148.26 Z" stroke="#040000" stroke-miterlimit="10" fill="#808080" fill-rule="evenodd"/><path d=" M 251.67 146.26 C 252.198 146.26 252.705 146.468 253.08 146.84 C 253.6 147.365 253.789 148.134 253.57 148.84 C 250.523 158.28 247.47 167.72 244.41 177.16 L 244.26 177.64 C 241.253 186.9 238.253 196.2 235.26 205.54 C 235.03 206.263 234.41 206.794 233.66 206.91 C 232.913 207.008 232.17 206.695 231.72 206.09 L 215.59 183.5 C 215.226 182.985 215.126 182.33 215.32 181.73 L 223.52 156.52 C 223.712 155.92 224.175 155.446 224.77 155.24 C 233.55 152.247 242.307 149.287 251.04 146.36 C 251.243 146.292 251.456 146.258 251.67 146.26 Z M 232.67 200.54 C 235.263 192.46 237.867 184.417 240.48 176.41 C 243.26 167.81 245.91 159.59 248.57 151.41 C 241.39 153.803 234.2 156.233 227 158.7 C 224.46 166.46 221.933 174.23 219.42 182.01 Z" stroke="#040000" stroke-miterlimit="10" fill="#060001"/><path d=" M 268.07 97.55 C 259.403 100.41 250.693 103.297 241.94 106.21 C 236.44 123.15 230.933 140.123 225.42 157.13 C 234.193 154.137 242.943 151.18 251.67 148.26 C 257.143 131.32 262.61 114.417 268.07 97.55 Z" stroke="#040000" stroke-miterlimit="10" fill="#808080" fill-rule="evenodd"/><path d=" M 224 158.55 C 224.539 159.082 225.333 159.264 226.05 159.02 C 234.823 156.02 243.573 153.063 252.3 150.15 C 252.903 149.949 253.374 149.474 253.57 148.87 L 269.9 98.4 C 269.799 97.4831 269.423 96.6184 268.82 95.92 C 268.786 95.8744 268.759 95.8238 268.74 95.77 L 268.74 95.77 L 268.67 95.67 C 268.479 95.6073 268.281 95.5736 268.08 95.57 C 267.869 95.5681 267.66 95.602 267.46 95.67 C 260.413 97.9833 253.35 100.317 246.27 102.67 L 241.32 104.31 C 240.721 104.513 240.254 104.988 240.06 105.59 L 223.53 156.52 C 223.294 157.231 223.475 158.015 224 158.55 Z M 243.52 107.78 L 247.52 106.46 C 253.347 104.52 259.16 102.593 264.96 100.68 L 250.08 146.68 C 242.92 149.093 235.74 151.52 228.54 153.96 Z" stroke="#040000" stroke-miterlimit="10" fill="#060001"/><path d=" M 164.12 254.28 C 158.613 246.787 153.093 239.3 147.56 231.82 L 121.13 231.82 C 115.597 239.287 110.053 246.767 104.5 254.26 L 134.34 254.26 Z" stroke="#040000" stroke-miterlimit="10" fill="#808080" fill-rule="evenodd"/><path d=" M 121.13 229.82 L 147.56 229.82 C 148.197 229.822 148.794 230.126 149.17 230.64 C 154.697 238.12 160.213 245.603 165.72 253.09 C 166.377 253.978 166.19 255.23 165.303 255.887 C 164.96 256.141 164.546 256.278 164.12 256.28 L 104.5 256.28 C 103.395 256.276 102.503 255.377 102.507 254.273 C 102.509 253.847 102.647 253.432 102.9 253.09 L 119.53 230.66 C 119.899 230.141 120.493 229.829 121.13 229.82 Z M 146.56 233.82 L 122.14 233.82 L 108.46 252.27 L 160.17 252.27 C 155.643 246.09 151.107 239.94 146.56 233.82 Z" stroke="#040000" stroke-miterlimit="10" fill="#040000"/><path d=" M 217.69 254.3 C 212.183 246.787 206.663 239.293 201.13 231.82 L 147.56 231.82 C 153.1 239.313 158.62 246.8 164.12 254.28 C 181.98 254.28 199.837 254.287 217.69 254.3 Z" stroke="#040000" stroke-miterlimit="10" fill="#808080" fill-rule="evenodd"/><path d=" M 162.51 255.47 C 162.888 255.98 163.485 256.281 164.12 256.28 L 216.56 256.28 C 216.977 256.152 217.382 255.988 217.77 255.79 C 217.825 255.769 217.882 255.752 217.94 255.74 C 218.386 255.404 218.804 255.033 219.19 254.63 C 219.19 254.63 219.19 254.56 219.24 254.53 C 219.36 254.34 219.47 254.16 219.58 253.96 C 219.58 253.96 219.58 253.96 219.58 253.89 C 219.527 253.609 219.414 253.343 219.25 253.11 C 213.737 245.603 208.213 238.11 202.68 230.63 C 202.307 230.119 201.713 229.815 201.08 229.81 L 147.56 229.81 C 146.807 229.812 146.119 230.237 145.78 230.91 C 145.452 231.592 145.537 232.401 146 233 C 151.507 240.487 157.01 247.977 162.51 255.47 Z M 200.12 233.82 C 204.68 239.98 209.22 246.14 213.74 252.3 L 165.13 252.3 C 160.597 246.153 156.06 240 151.52 233.84 Z" stroke="#040000" stroke-miterlimit="10" fill="#060001"/><path d=" M 94.32 59.11 C 94.7402 59.1106 95.1496 59.2436 95.49 59.49 L 136.49 89.25 C 137.008 89.6234 137.316 90.2216 137.32 90.86 C 137.319 91.5019 137.011 92.1045 136.49 92.48 L 88.88 127 C 88.3676 127.387 87.696 127.492 87.09 127.28 C 86.4874 127.079 86.0161 126.604 85.82 126 L 70.16 77.91 C 69.8938 77.0892 70.1841 76.1902 70.88 75.68 L 93.14 59.49 C 93.4832 59.2416 93.8963 59.1085 94.32 59.11 Z M 131.87 90.86 L 94.32 63.58 L 74.41 78.06 L 88.76 122.2 Z" stroke="#040000" stroke-miterlimit="10" fill="#060001"/><path d=" M 178.09 57.75 C 178.51 57.7506 178.92 57.8836 179.26 58.13 L 200.36 73.46 C 201.064 73.9689 201.359 74.874 201.09 75.7 L 184.72 126 C 184.522 126.606 184.046 127.082 183.44 127.28 C 182.834 127.49 182.163 127.385 181.65 127 L 134.1 92.48 C 133.579 92.1045 133.271 91.5019 133.27 90.86 C 133.274 90.2216 133.582 89.6234 134.1 89.25 L 176.92 58.13 C 177.26 57.8836 177.67 57.7506 178.09 57.75 Z M 196.84 75.84 L 178.09 62.21 L 138.66 90.86 L 181.77 122.2 Z" stroke="#040000" stroke-miterlimit="10" fill="#060001"/><path d=" M 87.71 123.43 C 87.9208 123.429 88.1303 123.463 88.33 123.53 C 88.9364 123.728 89.4119 124.204 89.61 124.81 L 107.76 180.74 C 108.097 181.792 107.517 182.918 106.465 183.255 C 106.27 183.317 106.065 183.35 105.86 183.35 L 52.92 183.35 C 52.0555 183.362 51.2809 182.818 51 182 L 43 157.17 C 42.7338 156.349 43.0241 155.45 43.72 154.94 L 86.58 123.81 C 86.9093 123.571 87.3035 123.439 87.71 123.43 Z M 103.12 179.36 L 86.66 128.65 L 47.2 157.32 L 54.37 179.32 Z" stroke="#040000" stroke-miterlimit="10" fill="#060001"/><path d=" M 182.82 123.43 C 183.24 123.431 183.65 123.564 183.99 123.81 L 226.75 154.88 C 227.45 155.388 227.744 156.287 227.48 157.11 L 219.4 182 C 219.133 182.819 218.371 183.375 217.51 183.38 L 164.66 183.38 C 164.022 183.376 163.423 183.068 163.05 182.55 C 162.668 182.039 162.564 181.373 162.77 180.77 L 180.93 124.84 C 181.128 124.234 181.604 123.758 182.21 123.56 C 182.404 123.482 182.611 123.438 182.82 123.43 Z M 223.23 157.26 L 183.88 128.65 L 167.41 179.36 L 216.06 179.36 Z" stroke="#040000" stroke-miterlimit="10" fill="#060001"/><path d=" M 199.19 73.08 C 199.613 73.085 200.024 73.2175 200.37 73.46 L 243.12 104.53 C 243.816 105.04 244.106 105.939 243.84 106.76 L 227.48 157.11 C 227.282 157.716 226.806 158.192 226.2 158.39 C 225.594 158.6 224.923 158.495 224.41 158.11 L 181.65 127 C 180.954 126.49 180.664 125.591 180.93 124.77 L 197.3 74.46 C 197.498 73.8536 197.974 73.3781 198.58 73.18 C 198.776 73.1119 198.982 73.0781 199.19 73.08 Z M 239.59 106.91 L 200.24 78.31 L 185.17 124.66 L 224.53 153.26 Z" stroke="#040000" stroke-miterlimit="10" fill="#060001"/><path d=" M 52.92 179.36 L 105.86 179.36 C 106.725 179.361 107.492 179.917 107.76 180.74 L 124.1 231 C 124.294 231.604 124.19 232.265 123.82 232.78 C 123.444 233.301 122.842 233.609 122.2 233.61 L 69.2 233.61 C 68.3348 233.609 67.5682 233.053 67.3 232.23 L 51 182 C 50.6631 180.948 51.2428 179.822 52.2947 179.485 C 52.4904 179.423 52.6945 179.39 52.9 179.39 Z M 104.41 183.36 L 55.66 183.36 L 70.66 229.62 L 119.43 229.62 Z" stroke="#040000" stroke-miterlimit="10" fill="#060001"/><path d=" M 164.66 179.36 L 217.51 179.36 C 218.147 179.362 218.744 179.666 219.12 180.18 C 219.494 180.698 219.598 181.363 219.4 181.97 L 203.07 232.22 C 202.802 233.043 202.035 233.599 201.17 233.6 L 148.33 233.6 C 147.692 233.596 147.093 233.288 146.72 232.77 C 146.35 232.255 146.246 231.594 146.44 230.99 L 162.77 180.74 C 163.037 179.921 163.799 179.365 164.66 179.36 Z M 214.76 183.36 L 166.11 183.36 L 151.11 229.62 L 199.75 229.62 Z" stroke="#040000" stroke-miterlimit="10" fill="#060001"/><path d=" M 105.86 179.36 L 164.66 179.36 C 165.765 179.363 166.658 180.26 166.655 181.365 C 166.655 181.57 166.623 181.774 166.56 181.97 L 150.23 232.22 C 149.962 233.043 149.195 233.599 148.33 233.6 L 122.2 233.6 C 121.339 233.595 120.577 233.039 120.31 232.22 L 104 182 C 103.802 181.393 103.906 180.728 104.28 180.21 C 104.643 179.693 105.229 179.378 105.86 179.36 Z M 161.92 183.36 L 108.61 183.36 L 123.61 229.62 L 146.84 229.62 Z" stroke="#040000" stroke-miterlimit="10" fill="#060001"/></g></g></svg>