<svg version="1.1" viewBox="0 0 269.67 258.34" xmlns="http://www.w3.org/2000/svg" xmlns:xlink="http://www.w3.org/1999/xlink" overflow="hidden"><defs></defs><g id="a445d70d-740b-426d-b977-a47d98069793"><g id="f5bd4bb5-a0c4-4445-99ad-308bf3c4e9aa"><path d=" M 135.26 92.37 L 182.83 126.95 L 164.65 182.88 L 105.87 182.86 L 87.69 126.93 L 135.26 92.37 Z" fill="#808080"/><path d=" M 135.26 92.37 L 87.69 126.93 L 105.87 182.86 L 164.65 182.88 L 182.83 126.95 L 135.26 92.37 Z" stroke="#040000" stroke-miterlimit="10" fill="none"/><path d=" M 165.83 184.49 C 165.493 184.744 165.082 184.881 164.66 184.88 L 105.87 184.88 C 105.006 184.874 104.244 184.313 103.98 183.49 L 85.8 127.56 C 85.5338 126.739 85.8241 125.84 86.52 125.33 L 134.09 90.77 C 134.789 90.2661 135.731 90.2661 136.43 90.77 L 184 125.35 C 184.696 125.86 184.986 126.759 184.72 127.58 L 166.56 183.5 C 166.432 183.901 166.175 184.249 165.83 184.49 Z M 107.33 180.87 L 163.21 180.87 L 180.48 127.71 L 135.26 94.85 L 90 127.71 Z" stroke="#040000" stroke-miterlimit="10" fill="#211613"/><path d=" M 225.79 67.94 L 199.31 76.43 L 178.14 61.05 L 178.03 33.24 L 225.79 67.94 Z" stroke="#040000" stroke-miterlimit="10" fill="#808080" fill-rule="evenodd"/><path d=" M 227 69.56 C 226.829 69.684 226.64 69.7818 226.44 69.85 L 199.96 78.33 C 199.354 78.5215 198.694 78.4139 198.18 78.04 L 177 62.66 C 176.482 62.2866 176.174 61.6884 176.17 61.05 L 176.07 33.25 C 176.069 32.4933 176.494 31.8005 177.17 31.46 C 177.838 31.1259 178.636 31.1914 179.24 31.63 L 226.5 66 C 227.548 66.3495 228.114 67.4822 227.764 68.5301 C 227.633 68.9228 227.384 69.2652 227.05 69.51 Z M 199.7 74.22 L 221.48 67.22 L 180 37.17 L 180.13 60 Z" stroke="#040000" stroke-miterlimit="10" fill="#060001"/><path d=" M 178.14 61.05 L 135.2 29.86 L 135.09 2.06 L 178.03 33.24 L 178.14 61.05 Z" stroke="#040000" stroke-miterlimit="10" fill="#808080" fill-rule="evenodd"/><path d=" M 135.54 0.5 L 135.4 0.5 C 134.914 0.497964 134.434 0.611047 134 0.83 L 133.95 0.83 C 133.846 0.917106 133.728 0.98485 133.6 1.03 L 133.44 1.13 L 133.35 1.18 C 133.203 1.44305 133.124 1.73866 133.12 2.04 L 133.23 29.84 C 133.237 30.4748 133.545 31.0686 134.06 31.44 L 177 62.66 C 177.608 63.0993 178.412 63.1611 179.08 62.82 C 179.175 62.7749 179.265 62.7213 179.35 62.66 C 179.867 62.2823 180.172 61.6801 180.17 61.04 L 180.07 33.24 C 180.066 32.6016 179.758 32.0034 179.24 31.63 L 136.89 0.9 C 136.451 0.731963 136 0.598229 135.54 0.5 Z M 176 34.27 L 176.08 57.12 L 137.19 28.83 L 137.1 6 Z" stroke="#040000" stroke-miterlimit="10" fill="#060001"/><path d=" M 164.66 182.88 L 215.29 182.88 L 223.78 156.7 L 182.82 126.96 L 164.66 182.88 Z" stroke="#040000" stroke-miterlimit="10" fill="#1B1B1B" fill-rule="evenodd"/><path d=" M 223.78 156.7 L 240.15 106.32 L 199.2 76.58 L 182.82 126.96 L 223.78 156.7 Z" stroke="#040000" stroke-miterlimit="10" fill="#1B1B1B" fill-rule="evenodd"/><path d=" M 225 158.32 C 224.828 158.441 224.64 158.535 224.44 158.6 C 223.834 158.792 223.174 158.684 222.66 158.31 L 181.66 128.57 C 180.964 128.06 180.674 127.161 180.94 126.34 L 197.3 76 C 197.498 75.3936 197.974 74.9181 198.58 74.72 C 199.187 74.5222 199.852 74.6263 200.37 75 L 241.32 104.74 C 242.02 105.248 242.314 106.147 242.05 106.97 L 225.67 157.35 C 225.545 157.731 225.313 158.068 225 158.32 Z M 185.17 126.2 L 222.73 153.47 L 237.8 107.09 L 200.25 79.82 Z" stroke="#040000" stroke-miterlimit="10" fill="#060001"/><path d=" M 215.29 182.88 L 164.66 182.88 L 148.31 233.22 L 198.92 233.21 L 215.29 182.88 Z" stroke="#040000" stroke-miterlimit="10" fill="#808080" fill-rule="evenodd"/><path d=" M 200.1 234.82 C 199.76 235.066 199.35 235.199 198.93 235.2 L 148.31 235.2 C 147.67 235.202 147.068 234.897 146.69 234.38 C 146.316 233.862 146.212 233.197 146.41 232.59 L 162.77 182.25 C 163.037 181.431 163.799 180.875 164.66 180.87 L 215.28 180.87 C 215.92 180.868 216.522 181.173 216.9 181.69 C 217.274 182.208 217.378 182.873 217.18 183.48 L 200.82 233.81 C 200.693 234.214 200.441 234.568 200.1 234.82 Z M 151.1 231.22 L 197.52 231.22 L 212.58 184.89 L 166.11 184.89 Z" stroke="#040000" stroke-miterlimit="10" fill="#060001"/><path d=" M 105.88 182.87 L 122.22 233.22 L 148.31 233.22 L 164.66 182.88 L 105.88 182.87 Z" stroke="#040000" stroke-miterlimit="10" fill="#1B1B1B" fill-rule="evenodd"/><path d=" M 182.82 126.96 L 199.2 76.58 L 178.1 61.26 L 135.26 92.39 L 182.82 126.96 Z" stroke="#040000" stroke-miterlimit="10" fill="#1B1B1B" fill-rule="evenodd"/><path d=" M 87.69 126.95 L 44.94 158.01 L 53.02 182.87 L 105.88 182.87 L 87.69 126.95 Z" stroke="#040000" stroke-miterlimit="10" fill="#808080" fill-rule="evenodd"/><path d=" M 53.02 182.87 L 69.38 233.21 L 122.22 233.22 L 105.88 182.87 L 53.02 182.87 Z" stroke="#040000" stroke-miterlimit="10" fill="#1B1B1B" fill-rule="evenodd"/><path d=" M 178.1 61.26 L 135.36 30.2 L 92.51 61.33 L 135.26 92.39 L 178.1 61.26 Z" stroke="#040000" stroke-miterlimit="10" fill="#1B1B1B" fill-rule="evenodd"/><path d=" M 71.37 76.69 L 28.62 107.75 L 44.94 158.01 L 87.69 126.95 L 71.37 76.69 Z" stroke="#040000" stroke-miterlimit="10" fill="#1B1B1B" fill-rule="evenodd"/><path d=" M 135.26 92.39 L 92.51 61.33 L 71.37 76.69 L 87.69 126.95 L 135.26 92.39 Z" stroke="#040000" stroke-miterlimit="10" fill="#1B1B1B" fill-rule="evenodd"/><path d=" M 250.76 148.7 C 241.64 151.7 232.48 154.63 223.27 157.7 C 220.477 166.26 217.69 174.81 214.91 183.35 C 220.61 190.977 226.277 198.547 231.91 206.06 C 235.05 196.52 238.183 186.98 241.31 177.44 C 244.437 167.9 247.587 158.32 250.76 148.7 Z" stroke="#040000" stroke-miterlimit="10" fill="#808080" fill-rule="evenodd"/><path d=" M 233.09 207.65 C 232.839 207.835 232.548 207.958 232.24 208.01 C 231.505 208.128 230.765 207.827 230.32 207.23 L 213.32 184.52 C 212.933 184.001 212.821 183.326 213.02 182.71 L 221.39 157.06 C 221.596 156.462 222.063 155.99 222.66 155.78 C 231.1 153 239.503 150.253 247.87 147.54 L 250.16 146.8 C 251.213 146.465 252.337 147.047 252.672 148.099 C 252.799 148.496 252.798 148.923 252.67 149.32 L 243.23 178.05 C 240.103 187.583 236.97 197.12 233.83 206.66 C 233.694 207.06 233.435 207.406 233.09 207.65 Z M 217.09 182.96 L 231.18 201.78 C 233.92 193.46 236.653 185.127 239.38 176.78 L 247.6 151.78 C 240.033 154.233 232.44 156.713 224.82 159.22 Z" stroke="#040000" stroke-miterlimit="10" fill="#060001"/><path d=" M 267.85 96.73 C 258.73 99.53 249.57 102.38 240.37 105.28 C 234.663 122.793 228.963 140.26 223.27 157.68 C 232.48 154.63 241.64 151.68 250.76 148.68 C 256.447 131.413 262.143 114.097 267.85 96.73 Z" stroke="#040000" stroke-miterlimit="10" fill="#808080" fill-rule="evenodd"/><path d=" M 55.05 255.84 C 72.31 255.8 89.4433 255.767 106.45 255.74 C 111.67 248.307 116.88 240.873 122.08 233.44 L 70.78 233.31 C 65.5933 240.823 60.35 248.333 55.05 255.84 Z" stroke="#040000" stroke-miterlimit="10" fill="#808080" fill-rule="evenodd"/><path d=" M 122.09 231.44 L 70.79 231.31 C 70.1345 231.318 69.5218 231.637 69.14 232.17 C 64.24 239.243 59.3067 246.313 54.34 253.38 L 53.42 254.7 C 52.9943 255.312 52.9442 256.11 53.29 256.77 C 53.4132 256.991 53.5759 257.188 53.77 257.35 L 53.77 257.35 C 53.9162 257.385 54.055 257.446 54.18 257.53 C 54.44 257.53 54.7 257.65 54.96 257.71 L 55.51 257.83 C 72.59 257.783 89.5567 257.75 106.41 257.73 C 106.83 257.729 107.24 257.596 107.58 257.35 C 107.755 257.216 107.91 257.058 108.04 256.88 L 123.67 234.57 C 124.092 233.96 124.142 233.168 123.8 232.51 C 123.465 231.871 122.811 231.462 122.09 231.44 Z M 105.42 253.75 C 90.0133 253.75 74.5033 253.777 58.89 253.83 C 63.2167 247.65 67.5267 241.477 71.82 235.31 L 118.25 235.42 Z" stroke="#040000" stroke-miterlimit="10" fill="#060001"/><path d=" M 164.91 255.64 C 159.37 248.307 153.783 240.93 148.15 233.51 L 122.08 233.44 C 116.873 240.887 111.663 248.32 106.45 255.74 L 135.87 255.69 C 145.58 255.67 155.27 255.67 164.91 255.64 Z" stroke="#040000" stroke-miterlimit="10" fill="#808080" fill-rule="evenodd"/><path d=" M 166.08 257.26 C 165.742 257.504 165.337 257.637 164.92 257.64 L 106.46 257.74 C 105.355 257.738 104.461 256.841 104.463 255.737 C 104.464 255.33 104.588 254.934 104.82 254.6 L 120.45 232.29 C 120.825 231.756 121.437 231.439 122.09 231.44 L 148.16 231.51 C 148.781 231.514 149.364 231.806 149.74 232.3 C 155.36 239.713 160.947 247.093 166.5 254.44 C 167.165 255.322 166.988 256.576 166.106 257.241 C 166.097 257.247 166.089 257.254 166.08 257.26 Z M 110.3 253.74 L 160.91 253.65 C 156.363 247.65 151.78 241.6 147.16 235.5 L 123.16 235.44 Z" stroke="#040000" stroke-miterlimit="10" fill="#060001"/><path d=" M 2.32 99.26 C 7.65333 115.62 12.9867 131.953 18.32 148.26 C 27.1 151.26 35.86 154.12 44.63 157.06 C 39.2967 140.747 33.9633 124.39 28.63 107.99 C 19.86 105.08 11.06 102.16 2.32 99.26 Z" stroke="#040000" stroke-miterlimit="10" fill="#808080" fill-rule="evenodd"/><path d=" M 1.1 97.7 C 1.1 97.78 1.01 97.85 0.97 97.94 C 0.939112 97.9852 0.905727 98.0286 0.87 98.07 C 0.701438 98.6055 0.577678 99.154 0.5 99.71 C 0.504709 99.7465 0.504709 99.7835 0.5 99.82 C 0.510098 100.008 0.530126 100.195 0.56 100.38 L 2.56 106.47 C 7.18667 120.623 11.7933 134.75 16.38 148.85 C 16.5767 149.448 17.0435 149.919 17.64 150.12 L 44 158.93 C 44.6131 159.135 45.2874 159.03 45.81 158.65 L 46.04 158.45 C 46.5603 157.925 46.7488 157.156 46.53 156.45 L 30.53 107.34 C 30.3319 106.734 29.8564 106.258 29.25 106.06 C 21.99 103.68 14.72 101.26 7.47 98.87 L 2.94 97.37 C 2.30983 97.169 1.62103 97.2925 1.1 97.7 Z M 6.22 102.7 C 13.1533 105 20.0967 107.297 27.05 109.59 L 41.46 153.94 L 19.86 146.71 C 15.3933 132.903 10.8933 119.077 6.36 105.23 L 5.44 102.4 Z" stroke="#040000" stroke-miterlimit="10" fill="#060001"/><path d=" M 45.27 67.63 C 54.1167 70.45 62.98 73.26 71.86 76.06 L 93.25 60.53 C 93.33 51.1967 93.4167 41.8867 93.51 32.6 L 69.37 50.13 Z" stroke="#040000" stroke-miterlimit="10" fill="#808080" fill-rule="evenodd"/><path d=" M 94.42 62.14 L 73 77.68 C 72.4864 78.0539 71.8257 78.1615 71.22 77.97 C 62.34 75.1567 53.4767 72.3433 44.63 69.53 C 43.5812 69.1834 43.0119 68.0523 43.3585 67.0035 C 43.4923 66.5985 43.7522 66.2469 44.1 66 L 92.34 31 C 93.2358 30.3538 94.4859 30.5561 95.1321 31.4519 C 95.3814 31.7976 95.5138 32.2138 95.51 32.64 L 95.24 60.56 C 95.229 61.186 94.9256 61.7707 94.42 62.14 Z M 71.51 73.86 L 91.26 59.51 L 91.48 36.51 L 49.64 66.92 Z" stroke="#040000" stroke-miterlimit="10" fill="#040000"/><path d=" M 216.46 184.49 C 216.124 184.745 215.712 184.879 215.29 184.87 L 164.66 184.87 C 163.555 184.862 162.667 183.96 162.675 182.855 C 162.676 182.653 162.708 182.452 162.77 182.26 L 180.93 126.34 C 181.113 125.726 181.595 125.248 182.21 125.07 C 182.817 124.872 183.482 124.976 184 125.35 L 225 155.09 C 225.695 155.596 225.989 156.49 225.73 157.31 L 217.24 183.49 C 217.095 183.899 216.822 184.25 216.46 184.49 Z M 167.41 180.88 L 213.83 180.88 L 221.43 157.46 L 183.87 130.19 Z" stroke="#040000" stroke-miterlimit="10" fill="#060001"/><path d=" M 149.48 234.83 C 149.144 235.085 148.732 235.219 148.31 235.21 L 122.23 235.21 C 121.365 235.209 120.598 234.653 120.33 233.83 L 104 183.48 C 103.806 182.876 103.91 182.215 104.28 181.7 C 104.649 181.171 105.256 180.86 105.9 180.87 L 164.68 180.87 C 165.785 180.871 166.679 181.767 166.679 182.871 C 166.678 183.082 166.645 183.29 166.58 183.49 L 150.2 233.84 C 150.079 234.242 149.825 234.591 149.48 234.83 Z M 123.68 231.22 L 146.86 231.22 L 161.92 184.87 L 108.63 184.87 Z" stroke="#040000" stroke-miterlimit="10" fill="#060001"/><path d=" M 184 128.58 C 183.827 128.699 183.639 128.793 183.44 128.86 C 182.831 129.055 182.166 128.947 181.65 128.57 L 134.09 94 C 133.198 93.3484 133.003 92.0972 133.655 91.2053 C 133.776 91.0386 133.923 90.8918 134.09 90.77 L 176.93 59.65 C 177.629 59.1461 178.571 59.1461 179.27 59.65 L 200.37 75 C 201.066 75.5102 201.356 76.4092 201.09 77.23 L 184.72 127.61 C 184.582 127.998 184.331 128.335 184 128.58 Z M 138.66 92.39 L 181.78 123.73 L 196.85 77.35 L 178.1 63.73 Z" stroke="#040000" stroke-miterlimit="10" fill="#060001"/><path d=" M 107.05 184.48 C 106.71 184.726 106.3 184.859 105.88 184.86 L 53 184.86 C 52.1349 184.859 51.3682 184.303 51.1 183.48 L 43.02 158.62 C 42.7538 157.799 43.0441 156.9 43.74 156.39 L 86.49 125.33 C 87.0078 124.956 87.6728 124.852 88.28 125.05 C 88.8864 125.248 89.3619 125.724 89.56 126.33 L 107.74 182.25 C 107.938 182.857 107.834 183.522 107.46 184.04 C 107.348 184.208 107.21 184.357 107.05 184.48 Z M 54.47 180.87 L 103.13 180.87 L 86.65 130.17 L 47.29 158.77 Z" stroke="#040000" stroke-miterlimit="10" fill="#060001"/><path d=" M 123.4 234.83 C 123.056 235.078 122.644 235.215 122.22 235.22 L 69.38 235.22 C 68.5148 235.219 67.7482 234.663 67.48 233.84 L 51.13 183.48 C 50.9322 182.873 51.0363 182.208 51.41 181.69 C 51.7741 181.163 52.3794 180.854 53.02 180.87 L 105.87 180.87 C 106.735 180.871 107.502 181.427 107.77 182.25 L 124.12 232.6 C 124.318 233.207 124.214 233.872 123.84 234.39 C 123.719 234.561 123.571 234.709 123.4 234.83 Z M 70.83 231.21 L 119.48 231.21 L 104.48 184.85 L 55.77 184.85 Z" stroke="#040000" stroke-miterlimit="10" fill="#060001"/><path d=" M 179.27 62.88 L 136.44 94 C 135.739 94.5087 134.791 94.5087 134.09 94 L 91.34 63 C 90.826 62.6244 90.5215 62.0266 90.52 61.39 C 90.5183 60.7499 90.8232 60.1477 91.34 59.77 L 134.19 28.64 C 134.889 28.1361 135.831 28.1361 136.53 28.64 L 179.27 59.7 C 180.162 60.3516 180.357 61.6028 179.705 62.4947 C 179.584 62.6614 179.437 62.8082 179.27 62.93 Z M 135.27 89.88 L 174.72 61.22 L 135.36 32.67 L 95.9 61.34 Z" stroke="#040000" stroke-miterlimit="10" fill="#060001"/><path d=" M 88.87 128.56 L 46.11 159.62 C 45.2107 160.261 43.9618 160.052 43.3204 159.153 C 43.2041 158.99 43.1129 158.81 43.05 158.62 L 26.73 108.37 C 26.4638 107.549 26.7541 106.65 27.45 106.14 L 70.2 75.08 C 71.0993 74.4387 72.3482 74.6478 72.9896 75.5471 C 73.1059 75.7102 73.1971 75.8898 73.26 76.08 L 89.59 126.33 C 89.8562 127.151 89.5659 128.05 88.87 128.56 Z M 46 154.78 L 85.36 126.18 L 70.36 79.92 L 31 108.51 Z" stroke="#040000" stroke-miterlimit="10" fill="#060001"/><path d=" M 136.44 94 L 88.87 128.56 C 87.9739 129.206 86.7239 129.003 86.0781 128.107 C 85.9578 127.94 85.864 127.755 85.8 127.56 L 69.47 77.31 C 69.2059 76.487 69.5004 75.5875 70.2 75.08 L 91.34 59.72 C 92.0386 59.2161 92.9814 59.2161 93.68 59.72 L 136.43 90.77 C 136.948 91.1434 137.256 91.7416 137.26 92.38 C 137.262 93.0201 136.957 93.6223 136.44 94 Z M 88.74 123.72 L 131.87 92.38 L 92.51 63.8 L 73.72 77.46 Z" stroke="#040000" stroke-miterlimit="10" fill="#060001"/><path d=" M 266.53 95.05 C 257.64 97.79 248.74 100.53 239.77 103.37 C 239.152 103.558 238.668 104.042 238.48 104.66 L 221.38 157.06 C 221.039 158.111 221.614 159.239 222.664 159.58 C 223.066 159.71 223.498 159.71 223.9 159.58 C 232.34 156.78 240.73 154.06 249.1 151.34 L 251.38 150.59 C 251.582 150.531 251.772 150.437 251.94 150.31 C 252.279 150.061 252.531 149.711 252.66 149.31 L 269.11 99.31 C 269.235 98.6048 269.166 97.8788 268.91 97.21 C 268.481 96.3588 267.776 95.6784 266.91 95.28 C 266.765 95.2398 266.633 95.1602 266.53 95.05 Z M 249.18 147.11 L 247.86 147.54 C 240.73 149.86 233.57 152.18 226.39 154.54 L 242 106.87 C 249.64 104.46 257.23 102.11 264.8 99.77 Z" stroke="#040000" stroke-miterlimit="10" fill="#060001"/></g></g></svg>