<svg version="1.1" viewBox="0 0 270.23 257.19" xmlns="http://www.w3.org/2000/svg" xmlns:xlink="http://www.w3.org/1999/xlink" overflow="hidden"><defs></defs><g id="fadaa74c-f080-4898-858b-a382e0b3a87a"><g id="ab4e747f-a83b-42bc-9891-f07fe3919530"><path d=" M 88.02 126.13 L 135.57 91.58 L 183.14 126.12 L 164.97 182.05 L 106.19 182.06 L 88.02 126.13 Z" fill="#808080"/><path d=" M 88.02 126.13 L 106.19 182.06 L 164.97 182.05 L 183.14 126.12 L 135.57 91.58 L 88.02 126.13 Z" stroke="#040000" stroke-miterlimit="10" fill="none"/><path d=" M 185.05 125.52 C 185.185 125.919 185.185 126.351 185.05 126.75 L 166.88 182.66 C 166.6 183.46 165.847 183.997 165 184 L 106.17 184 C 105.311 183.996 104.551 183.445 104.28 182.63 L 86.11 126.75 C 85.8438 125.929 86.1341 125.03 86.83 124.52 L 134.41 90 C 135.111 89.4913 136.059 89.4913 136.76 90 L 184.33 124.55 C 184.664 124.791 184.916 125.13 185.05 125.52 Z M 163.52 180 L 180.81 126.85 L 135.58 94.05 L 90.35 126.89 L 107.62 180.05 Z" stroke="#040000" stroke-miterlimit="10" fill="#211613"/><path d=" M 92.73 32.48 L 92.62 60.29 L 71.44 75.67 L 44.97 67.18 L 92.73 32.48 Z" stroke="#040000" stroke-miterlimit="10" fill="#808080" fill-rule="evenodd"/><path d=" M 94.63 31.86 C 94.6988 32.0628 94.7326 32.2759 94.73 32.49 L 94.61 60.3 C 94.6152 60.9354 94.3089 61.5332 93.79 61.9 L 72.62 77.28 C 72.1057 77.6606 71.4403 77.7721 70.83 77.58 L 44.36 69.08 C 43.3092 68.7395 42.7334 67.6117 43.0739 66.5609 C 43.2041 66.1589 43.4583 65.8086 43.8 65.56 L 91.09 31.2 C 91.3421 30.8636 91.691 30.6123 92.09 30.48 C 93.1391 30.1458 94.2611 30.7224 94.6 31.77 C 94.6069 31.8009 94.617 31.8311 94.63 31.86 Z M 90.63 59.27 L 90.72 36.41 L 49.33 66.48 L 71.09 73.48 Z" stroke="#040000" stroke-miterlimit="10" fill="#060001"/><path d=" M 71.44 75.67 L 28.52 106.87 L 2.04 98.38 L 44.97 67.18 L 71.44 75.67 Z" stroke="#040000" stroke-miterlimit="10" fill="#808080" fill-rule="evenodd"/><path d=" M 0.7 97.48 C 0.7 97.48 0.7 97.56 0.7 97.61 C 0.529889 98.0767 0.478347 98.5784 0.55 99.07 C 0.543845 99.0861 0.543845 99.1039 0.55 99.12 C 0.603867 99.2464 0.6311 99.3826 0.63 99.52 C 0.63 99.58 0.63 99.64 0.68 99.7 C 0.73 99.76 0.68 99.77 0.68 99.8 C 0.886856 100.017 1.13975 100.184 1.42 100.29 L 27.9 108.78 C 28.5073 108.969 29.1681 108.857 29.68 108.48 L 72.61 77.28 C 73.2147 76.8399 73.5233 76.0992 73.41 75.36 C 73.394 75.2542 73.3672 75.1503 73.33 75.05 C 73.1319 74.4436 72.6564 73.9681 72.05 73.77 L 45.57 65.27 C 44.9643 65.0785 44.3036 65.1861 43.79 65.56 L 1.5 96.32 C 1.19625 96.6797 0.928315 97.0682 0.7 97.48 Z M 45.33 69.39 L 67.09 76.39 L 28.16 104.66 L 6.4 97.66 Z" stroke="#040000" stroke-miterlimit="10" fill="#060001"/><path d=" M 183.15 126.13 L 198.8 77.99 L 176.52 61.82 L 135.59 91.58 L 183.15 126.13 Z" stroke="#040000" stroke-miterlimit="10" fill="#808080" fill-rule="evenodd"/><path d=" M 176.52 61.82 L 133.67 30.68 L 92.73 60.44 L 135.59 91.58 L 176.52 61.82 Z" stroke="#040000" stroke-miterlimit="10" fill="#1B1B1B" fill-rule="evenodd"/><path d=" M 178.42 61.21 C 178.488 61.4061 178.522 61.6124 178.52 61.82 C 178.516 62.4584 178.208 63.0566 177.69 63.43 L 136.76 93.19 C 136.059 93.6987 135.111 93.6987 134.41 93.19 L 91.56 62.05 C 91.0382 61.6811 90.7315 61.079 90.74 60.44 C 90.7415 59.8034 91.046 59.2056 91.56 58.83 L 132.5 29.07 C 133.201 28.5613 134.149 28.5613 134.85 29.07 L 177.7 60.21 C 178.039 60.4592 178.291 60.8092 178.42 61.21 Z M 135.59 89.11 L 173.13 61.82 L 133.67 33.15 L 96.13 60.44 Z" stroke="#040000" stroke-miterlimit="10" fill="#060001"/><path d=" M 198.8 77.99 L 183.15 126.13 L 225.97 157.24 L 241.6 109.1 L 198.8 77.99 Z" stroke="#040000" stroke-miterlimit="10" fill="#1B1B1B" fill-rule="evenodd"/><path d=" M 243.5 108.48 C 243.635 108.879 243.635 109.311 243.5 109.71 L 227.87 157.86 C 227.526 158.91 226.397 159.482 225.347 159.138 C 225.151 159.074 224.967 158.98 224.8 158.86 L 182 127.74 C 181.305 127.234 181.011 126.34 181.27 125.52 L 196.9 77.37 C 197.098 76.7636 197.574 76.2881 198.18 76.09 C 198.789 75.8951 199.454 76.0029 199.97 76.38 L 242.78 107.49 C 243.122 107.732 243.375 108.08 243.5 108.48 Z M 224.92 154 L 239.26 109.85 L 199.85 81.22 L 185.5 125.37 Z" stroke="#040000" stroke-miterlimit="10" fill="#060001"/><path d=" M 164.98 182.04 L 217.92 182.05 L 225.97 157.24 L 183.15 126.13 L 164.98 182.04 Z" stroke="#040000" stroke-miterlimit="10" fill="#1B1B1B" fill-rule="evenodd"/><path d=" M 135.59 91.58 L 92.73 60.44 L 71.64 75.77 L 88 126.13 L 135.59 91.58 Z" stroke="#040000" stroke-miterlimit="10" fill="#1B1B1B" fill-rule="evenodd"/><path d=" M 106.17 182.05 L 122.5 232.31 L 148.64 232.3 L 164.98 182.04 L 106.17 182.05 Z" stroke="#040000" stroke-miterlimit="10" fill="#1B1B1B" fill-rule="evenodd"/><path d=" M 148.64 232.3 L 201.58 232.31 L 217.92 182.05 L 164.98 182.04 L 148.64 232.3 Z" stroke="#040000" stroke-miterlimit="10" fill="#1B1B1B" fill-rule="evenodd"/><path d=" M 71.64 75.77 L 28.89 106.82 L 45.26 157.19 L 88 126.13 L 71.64 75.77 Z" stroke="#040000" stroke-miterlimit="10" fill="#1B1B1B" fill-rule="evenodd"/><path d=" M 53.34 182.05 L 69.67 232.3 L 122.5 232.31 L 106.17 182.05 L 53.34 182.05 Z" stroke="#040000" stroke-miterlimit="10" fill="#1B1B1B" fill-rule="evenodd"/><path d=" M 88 126.13 L 45.26 157.19 L 53.34 182.05 L 106.17 182.05 L 88 126.13 Z" stroke="#040000" stroke-miterlimit="10" fill="#1B1B1B" fill-rule="evenodd"/><path d=" M 133.1 1.37 C 132.96 10.92 132.82 20.49 132.75 30.15 C 147.63 40.99 162.48 51.8067 177.3 62.6 C 177.25 52.9 177.25 43.28 177.25 33.68 C 162.583 22.94 147.867 12.17 133.1 1.37 Z" stroke="#040000" stroke-miterlimit="10" fill="#808080" fill-rule="evenodd"/><path d=" M 252.43 148.38 C 243.73 151.38 234.987 154.413 226.2 157.48 C 223.533 165.72 220.827 173.977 218.08 182.25 L 234.46 204 C 237.487 194.627 240.487 185.293 243.46 176 C 246.433 166.707 249.423 157.5 252.43 148.38 Z" stroke="#040000" stroke-miterlimit="10" fill="#808080" fill-rule="evenodd"/><path d=" M 254.33 147.77 C 254.457 148.167 254.457 148.593 254.33 148.99 L 236.33 204.62 C 235.986 205.669 234.856 206.241 233.806 205.897 C 233.422 205.771 233.085 205.531 232.84 205.21 L 216.45 183.45 C 216.06 182.928 215.948 182.249 216.15 181.63 L 224.27 156.86 C 224.465 156.264 224.927 155.794 225.52 155.59 C 234.3 152.537 243.043 149.507 251.75 146.5 C 252.463 146.251 253.257 146.425 253.8 146.95 C 254.038 147.178 254.22 147.459 254.33 147.77 Z M 233.75 199.77 L 249.31 151.61 C 242.157 154.077 234.983 156.567 227.79 159.08 L 220.3 181.92 Z" stroke="#040000" stroke-miterlimit="10" fill="#060001"/><path d=" M 268.24 99.42 L 242.39 108.08 C 237.057 124.42 231.66 140.887 226.2 157.48 C 234.98 154.42 243.723 151.387 252.43 148.38 C 257.75 131.933 263.02 115.613 268.24 99.42 Z" stroke="#040000" stroke-miterlimit="10" fill="#808080" fill-rule="evenodd"/><path d=" M 240.49 107.46 L 224.3 156.86 C 224.084 157.568 224.276 158.337 224.8 158.86 C 225.329 159.373 226.098 159.554 226.8 159.33 C 235.58 156.27 244.327 153.237 253.04 150.23 C 253.629 150.023 254.087 149.554 254.28 148.96 L 269.68 101.25 C 269.684 101.028 269.664 100.807 269.62 100.59 C 269.61 100.49 269.61 100.39 269.62 100.29 C 269.538 100.115 269.504 99.9222 269.52 99.73 C 269.429 99.5578 269.384 99.3648 269.39 99.17 C 269.163 98.638 268.779 98.188 268.29 97.88 C 268.099 97.7823 267.942 97.6288 267.84 97.44 C 267.76 97.4352 267.68 97.4352 267.6 97.44 L 241.74 106.1 C 241.126 106.322 240.66 106.83 240.49 107.46 Z M 265.12 102.57 L 250.84 146.82 C 243.713 149.28 236.55 151.763 229.35 154.27 L 244 109.66 Z" stroke="#040000" stroke-miterlimit="10" fill="#040000"/><path d=" M 53.46 254.69 C 70.6733 254.69 87.8433 254.69 104.97 254.69 C 110.49 247.25 115.97 239.81 121.47 232.38 L 69.86 232.38 C 64.41 239.81 58.92 247.27 53.46 254.69 Z" stroke="#040000" stroke-miterlimit="10" fill="#808080" fill-rule="evenodd"/><path d=" M 51.6 255.37 L 51.78 255.56 C 51.8175 255.604 51.851 255.65 51.88 255.7 C 52.3379 256.028 52.823 256.315 53.33 256.56 L 53.43 256.56 C 53.6145 256.61 53.8014 256.65 53.99 256.68 L 60.39 256.68 C 75.2767 256.68 90.1367 256.68 104.97 256.68 C 105.6 256.68 106.192 256.384 106.57 255.88 L 123.07 233.57 C 123.45 233.052 123.558 232.382 123.36 231.77 C 123.36 231.67 123.29 231.58 123.25 231.48 C 122.908 230.811 122.221 230.39 121.47 230.39 L 69.86 230.39 C 69.221 230.381 68.6189 230.688 68.25 231.21 C 63.7433 237.377 59.22 243.54 54.68 249.7 L 51.85 253.54 C 51.4731 254.073 51.3798 254.756 51.6 255.37 Z M 57.89 252 C 62.22 246.12 66.57 240.22 70.89 234.32 L 117.52 234.32 L 104 252.65 C 89.5133 252.65 74.9867 252.65 60.42 252.65 L 57.42 252.65 Z" stroke="#040000" stroke-miterlimit="10" fill="#060001"/><path d=" M 164.54 254.57 C 159.053 247.17 153.533 239.763 147.98 232.35 C 139.16 232.35 130.3 232.35 121.47 232.35 C 115.96 239.78 110.47 247.22 104.97 254.66 C 114.97 254.66 124.89 254.66 134.8 254.61 Z" stroke="#040000" stroke-miterlimit="10" fill="#808080" fill-rule="evenodd"/><path d=" M 166.44 254 C 166.6 254.5 166.556 255.042 166.32 255.51 C 165.981 256.183 165.293 256.608 164.54 256.61 L 134.8 256.61 L 134.3 256.61 C 124.57 256.61 114.78 256.61 104.98 256.61 C 104.22 256.615 103.522 256.189 103.18 255.51 C 102.857 254.831 102.93 254.03 103.37 253.42 L 119.86 231.12 C 120.241 230.619 120.831 230.32 121.46 230.31 L 148 230.31 C 148.63 230.31 149.222 230.606 149.6 231.11 C 155.16 238.53 160.68 245.943 166.16 253.35 C 166.29 253.549 166.385 253.769 166.44 254 Z M 108.94 252.67 C 117.42 252.67 125.873 252.67 134.3 252.67 L 160.57 252.67 C 156.063 246.597 151.533 240.517 146.98 234.43 L 122.47 234.43 Z" stroke="#040000" stroke-miterlimit="10" fill="#060001"/><path d=" M 217.83 254.5 C 212.417 247.113 206.98 239.72 201.52 232.32 L 147.98 232.32 C 153.54 239.727 159.06 247.133 164.54 254.54 Z" stroke="#040000" stroke-miterlimit="10" fill="#808080" fill-rule="evenodd"/><path d=" M 146.2 231.45 C 145.863 232.127 145.937 232.935 146.39 233.54 C 151.95 240.95 157.44 248.37 162.93 255.76 C 163.308 256.27 163.905 256.571 164.54 256.57 L 217.54 256.5 C 218.375 256.123 219.073 255.498 219.54 254.71 C 219.572 254.663 219.613 254.622 219.66 254.59 L 219.66 254.59 C 219.677 254.553 219.701 254.519 219.73 254.49 C 219.735 254.293 219.705 254.096 219.64 253.91 C 219.582 253.705 219.487 253.512 219.36 253.34 C 214.973 247.34 210.567 241.34 206.14 235.34 L 203.05 231.14 C 202.672 230.63 202.075 230.329 201.44 230.33 L 147.9 230.33 C 147.171 230.365 146.52 230.795 146.2 231.45 Z M 200.51 234.32 L 203.01 237.71 C 206.65 242.65 210.277 247.583 213.89 252.51 L 165.54 252.57 C 161.04 246.503 156.517 240.427 151.97 234.34 Z" stroke="#040000" stroke-miterlimit="10" fill="#060001"/><path d=" M 36.65 204.07 C 42.0633 196.523 47.4767 188.96 52.89 181.38 L 44.72 156.25 C 35.9067 153.29 27.08 150.327 18.24 147.36 L 27.46 175.74 C 30.5333 185.18 33.5967 194.623 36.65 204.07 Z" stroke="#040000" stroke-miterlimit="10" fill="#808080" fill-rule="evenodd"/><path d=" M 46.62 155.63 L 54.79 180.76 C 54.9844 181.364 54.8805 182.025 54.51 182.54 C 49.1033 190.12 43.69 197.683 38.27 205.23 C 37.8306 205.842 37.0845 206.155 36.34 206.04 C 35.5962 205.922 34.9817 205.397 34.75 204.68 L 16.34 148 C 16.0009 146.949 16.5782 145.822 17.6294 145.483 C 18.0363 145.351 18.4746 145.354 18.88 145.49 L 45.35 154.37 C 45.9481 154.567 46.4186 155.034 46.62 155.63 Z M 50.68 181 L 43.14 157.78 L 21.36 150.47 L 37.36 199.66 C 41.7867 193.467 46.2267 187.247 50.68 181 Z" stroke="#040000" stroke-miterlimit="10" fill="#040000"/><path d=" M 200.7 77.37 C 200.829 77.7698 200.829 78.2002 200.7 78.6 L 185.06 126.75 C 184.862 127.356 184.386 127.832 183.78 128.03 C 183.171 128.225 182.506 128.117 181.99 127.74 L 134.41 93.19 C 133.88 92.8285 133.571 92.2215 133.59 91.58 C 133.592 90.9434 133.896 90.3456 134.41 89.97 L 175.35 60.21 C 176.049 59.7061 176.991 59.7061 177.69 60.21 L 200 76.37 C 200.332 76.6222 200.577 76.9719 200.7 77.37 Z M 182.1 122.9 L 196.45 78.75 L 176.52 64.29 L 139 91.58 Z" stroke="#040000" stroke-miterlimit="10" fill="#060001"/><path d=" M 227.87 156.63 C 228.005 157.029 228.005 157.461 227.87 157.86 L 219.81 182.66 C 219.543 183.479 218.781 184.035 217.92 184.04 L 165 184.04 C 164.36 184.042 163.758 183.737 163.38 183.22 C 162.993 182.708 162.888 182.036 163.1 181.43 L 181.27 125.53 C 181.611 124.479 182.738 123.904 183.789 124.244 C 183.99 124.309 184.179 124.406 184.35 124.53 L 227.17 155.64 C 227.505 155.885 227.751 156.232 227.87 156.63 Z M 216.46 180.05 L 223.63 158 L 184.2 129.36 L 167.72 180 Z" stroke="#040000" stroke-miterlimit="10" fill="#060001"/><path d=" M 137.48 91 C 137.548 91.1996 137.582 91.4092 137.58 91.62 C 137.578 92.2566 137.274 92.8544 136.76 93.23 L 89.18 127.74 C 88.6615 128.12 87.9917 128.228 87.38 128.03 C 86.7774 127.829 86.3061 127.354 86.11 126.75 L 69.74 76.39 C 69.4759 75.567 69.7704 74.6675 70.47 74.16 L 91.56 58.83 C 92.2607 58.3213 93.2093 58.3213 93.91 58.83 L 136.76 90 C 137.099 90.2493 137.351 90.5992 137.48 91 Z M 89.05 122.9 L 132.19 91.58 L 92.73 62.91 L 74 76.53 Z" stroke="#040000" stroke-miterlimit="10" fill="#060001"/><path d=" M 166.88 181.42 C 167.005 181.82 167.005 182.25 166.88 182.65 L 150.55 232.92 C 150.282 233.743 149.515 234.299 148.65 234.3 L 122.5 234.3 C 121.641 234.296 120.881 233.745 120.61 232.93 L 104.28 182.67 C 104.079 182.06 104.183 181.39 104.56 180.87 C 104.938 180.36 105.535 180.059 106.17 180.06 L 165 180.06 C 165.862 180.059 166.628 180.611 166.9 181.43 Z M 147.19 230.31 L 162.19 184.04 L 108.92 184.04 L 123.92 230.31 Z" stroke="#040000" stroke-miterlimit="10" fill="#060001"/><path d=" M 219.81 181.43 C 219.941 181.833 219.941 182.267 219.81 182.67 L 203.48 232.93 C 203.208 233.749 202.442 234.301 201.58 234.3 L 148.64 234.3 C 148.002 234.296 147.403 233.988 147.03 233.47 C 146.64 232.963 146.534 232.292 146.75 231.69 L 163.08 181.43 C 163.348 180.607 164.115 180.051 164.98 180.05 L 217.92 180.05 C 218.557 180.052 219.154 180.356 219.53 180.87 C 219.658 181.037 219.753 181.227 219.81 181.43 Z M 200.13 230.31 L 215.13 184.05 L 166.43 184.05 L 151.43 230.31 Z" stroke="#040000" stroke-miterlimit="10" fill="#060001"/><path d=" M 73.54 75.15 L 89.9 125.51 C 90.1662 126.331 89.8759 127.23 89.18 127.74 L 46.43 158.81 C 45.5339 159.456 44.2839 159.253 43.6381 158.357 C 43.5178 158.19 43.424 158.005 43.36 157.81 L 27 107.44 C 26.7338 106.619 27.0241 105.72 27.72 105.21 L 70.47 74.21 C 71.3661 73.5642 72.6161 73.7671 73.2619 74.6632 C 73.3822 74.8301 73.476 75.0145 73.54 75.21 Z M 85.66 125.37 L 70.59 79 L 31.24 107.58 L 46.31 154 Z" stroke="#040000" stroke-miterlimit="10" fill="#060001"/><path d=" M 108.07 181.43 L 124.4 231.69 C 124.737 232.742 124.157 233.868 123.105 234.205 C 122.91 234.267 122.705 234.3 122.5 234.3 L 69.66 234.3 C 68.8012 234.296 68.0405 233.745 67.77 232.93 L 51.44 182.66 C 51.2422 182.053 51.3463 181.388 51.72 180.87 C 52.0977 180.353 52.6999 180.048 53.34 180.05 L 106.17 180.05 C 107.035 180.051 107.802 180.607 108.07 181.43 Z M 119.76 230.32 L 104.76 184.04 L 56.08 184.04 L 71.08 230.3 Z" stroke="#040000" stroke-miterlimit="10" fill="#060001"/><path d=" M 89.9 125.51 L 108.07 181.43 C 108.407 182.482 107.827 183.608 106.775 183.945 C 106.58 184.007 106.375 184.04 106.17 184.04 L 53.34 184.04 C 52.4749 184.039 51.7082 183.483 51.44 182.66 L 43.36 157.81 C 43.0959 156.987 43.3904 156.088 44.09 155.58 L 86.83 124.52 C 87.346 124.143 88.0113 124.035 88.62 124.23 C 89.2264 124.428 89.7019 124.904 89.9 125.51 Z M 103.43 180.05 L 87 129.36 L 47.61 158 L 54.79 180.09 Z" stroke="#040000" stroke-miterlimit="10" fill="#060001"/><path d=" M 131.1 2.11 C 130.96 11.41 130.82 20.73 130.75 30.11 C 130.745 30.7536 131.05 31.3603 131.57 31.74 L 176.13 64.19 C 177.026 64.8362 178.276 64.6338 178.922 63.7379 C 179.167 63.3979 179.3 62.9893 179.3 62.57 C 179.25 53.69 179.25 44.86 179.25 36.07 L 179.25 33.68 C 179.26 33.4727 179.23 33.2655 179.16 33.07 C 179.031 32.6692 178.779 32.3192 178.44 32.07 L 135.93 1 C 135.298 0.663207 134.585 0.507486 133.87 0.55 C 132.924 0.698163 132.056 1.16365 131.41 1.87 C 131.329 1.97573 131.223 2.05849 131.1 2.11 Z M 175.25 34.69 L 175.25 36.09 C 175.25 43.5767 175.25 51.1033 175.25 58.67 L 134.74 29.14 C 134.82 21.14 134.93 13.19 135.04 5.26 Z" stroke="#040000" stroke-miterlimit="10" fill="#060001"/></g></g></svg>