{
  "asset": {
    "generator": "Khronos glTF Blender I/O v1.6.16 / meshoptimizer 1.0.1, boundary-preserving 0.3% simplification",
    "version": "2.0"
  },
  "scene": 0,
  "scenes": [
    {
      "name": "Scene",
      "nodes": [
        0,
        1,
        2,
        3
      ]
    }
  ],
  "nodes": [
    {
      "mesh": 0,
      "name": "potted_plant_01_stem"
    },
    {
      "mesh": 1,
      "name": "potted_plant_01_pebbles",
      "scale": [
        1.0021867752075195,
        1.0021867752075195,
        1.0021867752075195
      ],
      "translation": [
        0,
        -0.013706685975193977,
        0
      ]
    },
    {
      "mesh": 2,
      "name": "potted_plant_01_pot"
    },
    {
      "mesh": 3,
      "name": "potted_plant_01_leaves"
    }
  ],
  "materials": [
    {
      "doubleSided": true,
      "name": "potted_plant_01_pot",
      "normalTexture": {
        "index": 0
      },
      "pbrMetallicRoughness": {
        "baseColorTexture": {
          "index": 1
        },
        "metallicFactor": 0,
        "metallicRoughnessTexture": {
          "index": 2
        }
      }
    },
    {
      "alphaCutoff": 0.5,
      "alphaMode": "MASK",
      "doubleSided": true,
      "name": "potted_plant_01_leaves",
      "normalTexture": {
        "index": 3
      },
      "pbrMetallicRoughness": {
        "baseColorTexture": {
          "index": 4
        },
        "metallicFactor": 0,
        "metallicRoughnessTexture": {
          "index": 5
        }
      }
    }
  ],
  "meshes": [
    {
      "name": "potted_plant_01_base_low",
      "primitives": [
        {
          "attributes": {
            "POSITION": 0,
            "NORMAL": 1,
            "TEXCOORD_0": 2
          },
          "indices": 3,
          "material": 0
        }
      ]
    },
    {
      "name": "Circle.008",
      "primitives": [
        {
          "attributes": {
            "POSITION": 4,
            "NORMAL": 5,
            "TEXCOORD_0": 6
          },
          "indices": 7,
          "material": 0
        }
      ]
    },
    {
      "name": "Circle.002",
      "primitives": [
        {
          "attributes": {
            "POSITION": 8,
            "NORMAL": 9,
            "TEXCOORD_0": 10
          },
          "indices": 11,
          "material": 0
        }
      ]
    },
    {
      "name": "Plane.070",
      "primitives": [
        {
          "attributes": {
            "POSITION": 12,
            "NORMAL": 13,
            "TEXCOORD_0": 14
          },
          "indices": 15,
          "material": 1
        }
      ]
    }
  ],
  "textures": [
    {
      "sampler": 0,
      "source": 0
    },
    {
      "sampler": 0,
      "source": 1
    },
    {
      "sampler": 0,
      "source": 2
    },
    {
      "sampler": 0,
      "source": 3
    },
    {
      "sampler": 0,
      "source": 4
    },
    {
      "sampler": 0,
      "source": 5
    }
  ],
  "images": [
    {
      "mimeType": "image/jpeg",
      "name": "potted_plant_01_pot_nor_gl",
      "uri": "textures/potted_plant_01_pot_nor_gl_1k.jpg"
    },
    {
      "mimeType": "image/jpeg",
      "name": "potted_plant_01_pot_diff",
      "uri": "textures/potted_plant_01_pot_diff_1k.jpg"
    },
    {
      "mimeType": "image/jpeg",
      "name": "potted_plant_01_pot_rough",
      "uri": "textures/potted_plant_01_pot_rough_1k.jpg"
    },
    {
      "mimeType": "image/jpeg",
      "name": "potted_plant_01_leaves_nor_gl.png",
      "uri": "textures/potted_plant_01_leaves_nor_gl_1k.jpg"
    },
    {
      "mimeType": "image/jpeg",
      "name": "potted_plant_01_leaves_diff.png",
      "uri": "textures/potted_plant_01_leaves_diff_1k.jpg"
    },
    {
      "mimeType": "image/jpeg",
      "name": "potted_plant_01_leaves_rough.png",
      "uri": "textures/potted_plant_01_leaves_rough_1k.jpg"
    }
  ],
  "accessors": [
    {
      "bufferView": 0,
      "componentType": 5126,
      "count": 1149,
      "type": "VEC3",
      "min": [
        -0.2345285266637802,
        0.41102948784828186,
        -0.21713386476039886
      ],
      "max": [
        0.13569629192352295,
        1.2668092250823975,
        0.1757177859544754
      ]
    },
    {
      "bufferView": 1,
      "componentType": 5126,
      "count": 1149,
      "type": "VEC3",
      "min": [
        -0.9985656142234802,
        -0.9946592450141907,
        -0.9984435439109802
      ],
      "max": [
        0.9940488934516907,
        0.9989623427391052,
        0.9989318251609802
      ]
    },
    {
      "bufferView": 2,
      "componentType": 5126,
      "count": 1149,
      "type": "VEC2",
      "min": [
        0.2812140882015228,
        0.005849897861480713
      ],
      "max": [
        0.8764647245407104,
        0.8062599897384644
      ]
    },
    {
      "bufferView": 3,
      "componentType": 5123,
      "count": 4620,
      "type": "SCALAR"
    },
    {
      "bufferView": 4,
      "componentType": 5126,
      "count": 16030,
      "type": "VEC3",
      "min": [
        -0.21813175082206726,
        0.48130929470062256,
        -0.21738101541996002
      ],
      "max": [
        0.2112395167350769,
        0.5428022146224976,
        0.21265316009521484
      ]
    },
    {
      "bufferView": 5,
      "componentType": 5126,
      "count": 16030,
      "type": "VEC3",
      "min": [
        -0.99993896484375,
        -0.999969482421875,
        -0.9998779296875
      ],
      "max": [
        0.9998779296875,
        1,
        0.99993896484375
      ]
    },
    {
      "bufferView": 6,
      "componentType": 5126,
      "count": 16030,
      "type": "VEC2",
      "min": [
        0.0053008198738098145,
        0.003283977508544922
      ],
      "max": [
        0.7950590252876282,
        0.695559024810791
      ]
    },
    {
      "bufferView": 7,
      "componentType": 5123,
      "count": 64956,
      "type": "SCALAR"
    },
    {
      "bufferView": 8,
      "componentType": 5126,
      "count": 1754,
      "type": "VEC3",
      "min": [
        -0.23310250043869019,
        0.00019317727128509432,
        -0.23310253024101257
      ],
      "max": [
        0.23310254514217377,
        0.53143310546875,
        0.233102485537529
      ]
    },
    {
      "bufferView": 9,
      "componentType": 5126,
      "count": 1754,
      "type": "VEC3",
      "min": [
        -0.999969482421875,
        -1,
        -0.999969482421875
      ],
      "max": [
        0.999969482421875,
        1,
        0.999969482421875
      ]
    },
    {
      "bufferView": 10,
      "componentType": 5126,
      "count": 1754,
      "type": "VEC2",
      "min": [
        0.003731480333954096,
        0.0037300586700439453
      ],
      "max": [
        0.9933742880821228,
        0.9962739944458008
      ]
    },
    {
      "bufferView": 11,
      "componentType": 5123,
      "count": 7806,
      "type": "SCALAR"
    },
    {
      "bufferView": 12,
      "componentType": 5126,
      "count": 20939,
      "type": "VEC3",
      "min": [
        -0.33836793899536133,
        0.5832836627960205,
        -0.36367878317832947
      ],
      "max": [
        0.24901919066905975,
        1.336457371711731,
        0.2698860168457031
      ]
    },
    {
      "bufferView": 13,
      "componentType": 5126,
      "count": 20939,
      "type": "VEC3",
      "min": [
        -0.9998639822006226,
        -0.9991315603256226,
        -0.9984176754951477
      ],
      "max": [
        0.9998863339424133,
        0.9999032616615295,
        0.9998134970664978
      ]
    },
    {
      "bufferView": 14,
      "componentType": 5126,
      "count": 20939,
      "type": "VEC2",
      "min": [
        0.00493179727345705,
        0.006458938121795654
      ],
      "max": [
        0.9856774210929871,
        0.9813818335533142
      ]
    },
    {
      "bufferView": 15,
      "componentType": 5123,
      "count": 70536,
      "type": "SCALAR"
    }
  ],
  "bufferViews": [
    {
      "buffer": 0,
      "byteOffset": 0,
      "byteLength": 13788
    },
    {
      "buffer": 0,
      "byteOffset": 13788,
      "byteLength": 13788
    },
    {
      "buffer": 0,
      "byteOffset": 27576,
      "byteLength": 9192
    },
    {
      "buffer": 0,
      "byteOffset": 36768,
      "byteLength": 9240
    },
    {
      "buffer": 0,
      "byteOffset": 46008,
      "byteLength": 192360
    },
    {
      "buffer": 0,
      "byteOffset": 238368,
      "byteLength": 192360
    },
    {
      "buffer": 0,
      "byteOffset": 430728,
      "byteLength": 128240
    },
    {
      "buffer": 0,
      "byteOffset": 558968,
      "byteLength": 129912
    },
    {
      "buffer": 0,
      "byteOffset": 688880,
      "byteLength": 21048
    },
    {
      "buffer": 0,
      "byteOffset": 709928,
      "byteLength": 21048
    },
    {
      "buffer": 0,
      "byteOffset": 730976,
      "byteLength": 14032
    },
    {
      "buffer": 0,
      "byteOffset": 745008,
      "byteLength": 15612
    },
    {
      "buffer": 0,
      "byteOffset": 760620,
      "byteLength": 251268
    },
    {
      "buffer": 0,
      "byteOffset": 1011888,
      "byteLength": 251268
    },
    {
      "buffer": 0,
      "byteOffset": 1263156,
      "byteLength": 167512
    },
    {
      "buffer": 0,
      "byteOffset": 1430668,
      "byteLength": 141072
    }
  ],
  "samplers": [
    {
      "magFilter": 9729,
      "minFilter": 9987
    }
  ],
  "buffers": [
    {
      "uri": "model-lite.bin",
      "byteLength": 1571740
    }
  ]
}
