<svg version="1.1" width="128" height="128" viewBox="-0.9 -0.9 1.8 1.8" xmlns="http://www.w3.org/2000/svg" xmlns:xlink="http://www.w3.org/1999/xlink" overflow="hidden"><g stroke-width="0.1" stroke-linejoin="round" opacity="1"><path d=" M 0.206844 -0.103422 L 0.654001 -0.50224 L 0.59354 0.29677 L 0.184643 0.78142 Z" stroke="#000000" fill="#000000"/><path d=" M -0.161033 -0.681501 L 0.654001 -0.50224 L 0.206844 -0.103422 L -0.699152 -0.349576 Z" stroke="#000000" fill="#000000"/><path d=" M -0.699152 -0.349576 L 0.206844 -0.103422 L 0.184643 0.78142 L -0.630493 0.484187 Z" stroke="#000000" fill="#000000"/></g><g stroke-width="0" stroke-linejoin="round" stroke-opacity="0.5" opacity="1"><path d=" M 0.232205 -0.0974414 L 0.382272 -0.231286 L 0.369992 0.045155 L 0.224997 0.189821 Z" stroke="#000000" fill="#EE0000"/><path d=" M 0.406982 -0.254538 L 0.540943 -0.374017 L 0.524671 -0.107772 L 0.394701 0.0219032 Z" stroke="#000000" fill="#404040"/><path d=" M 0.563101 -0.394874 L 0.683416 -0.502183 L 0.663995 -0.245529 L 0.54683 -0.128629 Z" stroke="#000000" fill="#404040"/><path d=" M 0.223354 0.237845 L 0.368349 0.0931789 L 0.356932 0.350187 L 0.216681 0.50379 Z" stroke="#000000" fill="#404040"/><path d=" M 0.392278 0.0682186 L 0.522248 -0.0614566 L 0.507063 0.18701 L 0.380861 0.325227 Z" stroke="#000000" fill="#00D800"/><path d=" M 0.543789 -0.0839309 L 0.660955 -0.200831 L 0.642769 0.0395027 L 0.528605 0.164536 Z" stroke="#000000" fill="#00D800"/><path d=" M 0.215154 0.548393 L 0.355404 0.39479 L 0.344762 0.634346 L 0.208958 0.795308 Z" stroke="#000000" fill="#404040"/><path d=" M 0.3786 0.368411 L 0.504803 0.230194 L 0.490599 0.462605 L 0.367958 0.607966 Z" stroke="#000000" fill="#00D800"/><path d=" M 0.525759 0.206358 L 0.639923 0.0813252 L 0.622858 0.306846 L 0.511555 0.438769 Z" stroke="#000000" fill="#00D800"/><path d=" M -0.163088 -0.712077 L 0.0689332 -0.661046 L -0.0698799 -0.565611 L -0.309358 -0.621854 Z" stroke="#000000" fill="#404040"/><path d=" M 0.111806 -0.651282 L 0.357083 -0.597335 L 0.226865 -0.496225 L -0.027007 -0.555848 Z" stroke="#000000" fill="#EE0000"/><path d=" M 0.402513 -0.586988 L 0.662215 -0.529869 L 0.5419 -0.42256 L 0.272296 -0.485878 Z" stroke="#000000" fill="#404040"/><path d=" M -0.335816 -0.604576 L -0.0963381 -0.548334 L -0.249928 -0.44274 L -0.497193 -0.505035 Z" stroke="#000000" fill="#404040"/><path d=" M -0.0520068 -0.537526 L 0.201865 -0.477903 L 0.0573471 -0.365688 L -0.205596 -0.431933 Z" stroke="#000000" fill="#404040"/><path d=" M 0.248986 -0.466414 L 0.51859 -0.403097 L 0.384629 -0.283617 L 0.104468 -0.3542 Z" stroke="#000000" fill="#404040"/><path d=" M -0.526507 -0.485888 L -0.279242 -0.423593 L -0.4501 -0.306128 L -0.705457 -0.375507 Z" stroke="#000000" fill="#404040"/><path d=" M -0.233382 -0.411564 L 0.0295617 -0.345319 L -0.13175 -0.220065 L -0.404239 -0.294099 Z" stroke="#000000" fill="#404040"/><path d=" M 0.0784748 -0.332488 L 0.358636 -0.261906 L 0.208568 -0.128061 L -0.0828369 -0.207234 Z" stroke="#000000" fill="#FFFFFF"/><path d=" M -0.720046 -0.341518 L -0.464688 -0.272139 L -0.451075 0.00268423 L -0.697901 -0.0726014 Z" stroke="#000000" fill="#404040"/><path d=" M -0.418971 -0.258946 L -0.146482 -0.184912 L -0.14259 0.096026 L -0.405358 0.0158778 Z" stroke="#000000" fill="#404040"/><path d=" M -0.0977062 -0.170836 L 0.193699 -0.0916626 L 0.186491 0.1956 L -0.0938144 0.110102 Z" stroke="#000000" fill="#00D800"/><path d=" M -0.69483 -0.0263151 L -0.448004 0.0489705 L -0.43534 0.304631 L -0.674184 0.2244 Z" stroke="#000000" fill="#EE0000"/><path d=" M -0.403838 0.0631333 L -0.141071 0.143282 L -0.137459 0.40402 L -0.391174 0.318794 Z" stroke="#000000" fill="#EE0000"/><path d=" M -0.0940598 0.158357 L 0.186246 0.243854 L 0.179573 0.509799 L -0.0904479 0.419096 Z" stroke="#000000" fill="#404040"/><path d=" M -0.67132 0.267561 L -0.432476 0.347792 L -0.420665 0.586226 L -0.652026 0.501862 Z" stroke="#000000" fill="#EE0000"/><path d=" M -0.38976 0.362762 L -0.136045 0.447988 L -0.132683 0.690631 L -0.37795 0.601197 Z" stroke="#000000" fill="#EE0000"/><path d=" M -0.0906758 0.463889 L 0.179345 0.554592 L 0.17315 0.801508 L -0.0873145 0.706531 Z" stroke="#000000" fill="#404040"/></g></svg>