<svg viewBox="0 0 328.56 328.56" xmlns="http://www.w3.org/2000/svg" xmlns:xlink="http://www.w3.org/1999/xlink" overflow="hidden"><defs></defs><g id="图层_2"><g id="图层_1-2"><path d="M164.27 164.28 323.99 207.07 323.99 323.99 207.07 323.99 164.27 164.28Z" fill="#1B1B1B"/><path d="M164.27 164.28 323.99 121.48 323.99 207.07 164.27 164.28Z" fill="#FFFFFF"/><path d="M207.07 4.56 323.99 4.56 323.99 121.48 164.27 164.28 207.07 4.56Z" fill="#1B1B1B"/><path d="M207.07 4.56 164.27 164.28 121.48 4.56 207.07 4.56Z" fill="#1B1B1B"/><path d="M164.27 164.28 207.07 323.99 121.48 323.99 164.27 164.28Z" fill="#1B1B1B"/><path d="M4.56 121.48 4.56 4.56 121.48 4.56 164.27 164.28 4.56 121.48Z" fill="#1B1B1B"/><path d="M164.27 164.28 4.56 207.07 4.56 121.48 164.27 164.28Z" fill="#1B1B1B"/><path d="M4.56 323.99 4.56 207.07 164.27 164.28 121.48 323.99 4.56 323.99Z" fill="#1B1B1B"/><path d="M207.07 4.56 323.99 4.56 323.99 121.48" stroke="#000000" stroke-width="9.13" stroke-linejoin="round" fill="none"/><path d="M164.27 164.28 323.99 121.48 323.99 207.07" stroke="#000000" stroke-width="9.13" stroke-linejoin="round" fill="none"/><path d="M164.27 164.28 323.99 207.07 323.99 323.99 207.07 323.99" stroke="#000000" stroke-width="9.13" stroke-linejoin="round" fill="none"/><path d="M164.27 164.28 207.07 323.99 121.48 323.99" stroke="#000000" stroke-width="9.13" stroke-linejoin="round" fill="none"/><path d="M164.27 164.28 121.48 323.99 4.56 323.99 4.56 207.07" stroke="#000000" stroke-width="9.13" stroke-linejoin="round" fill="none"/><path d="M164.27 164.28 4.56 207.07 4.56 121.48" stroke="#000000" stroke-width="9.13" stroke-linejoin="round" fill="none"/><path d="M164.27 164.28 4.56 121.48 4.56 4.56 121.48 4.56" stroke="#000000" stroke-width="9.13" stroke-linejoin="round" fill="none"/><path d="M164.27 164.28 121.48 4.56 207.07 4.56 164.27 164.28Z" stroke="#000000" stroke-width="9.13" stroke-linejoin="round" fill="none"/></g></g></svg>