<svg version="1.1" width="682.667" height="682.667" viewBox="0 0 512 512" xmlns="http://www.w3.org/2000/svg" xmlns:xlink="http://www.w3.org/1999/xlink" overflow="hidden"><path d=" M 364 74 L 324 74 L 324 30 C 324 18.9531 332.953 10 344 10 C 355.047 10 364 18.9531 364 30 Z" fill="#FFD89E"/><path d=" M 444 74 L 404 74 L 404 30 C 404 18.9531 412.953 10 424 10 C 435.047 10 444 18.9531 444 30 Z" fill="#FFD89E"/><path d=" M 384 211.668 C 346.445 211.668 316 181.223 316 143.668 L 316 74 L 452 74 L 452 143.668 C 452 181.223 421.555 211.668 384 211.668 Z" fill="#EFF3F3"/><path d=" M 118 355.938 L 87.668 355.938 C 77.9102 355.938 70 363.848 70 373.605 L 70 430.336 C 70 440.09 77.9102 448 87.668 448 L 118 448 Z" fill="#8690A6"/><path d=" M 138 502 L 482 502 C 493.047 502 502 493.047 502 482 L 502 321.938 C 502 310.891 493.047 301.938 482 301.938 L 138 301.938 C 126.953 301.938 118 310.891 118 321.938 L 118 482 C 118 493.047 126.953 502 138 502 Z" fill="#B5BCC9"/><path d=" M 160 401.969 L 216 401.969 L 216 462 L 160 462 Z" fill="#91DEF5"/><path d=" M 160 341.938 L 213.957 341.938 L 213.957 401.969 L 160 401.969 Z" fill="#FF6977"/><path d=" M 374 341.938 L 454 341.938 L 454 462 L 374 462 Z" fill="#FFFFFF"/><path d=" M 254 341.938 L 334 341.938 L 334 462 L 254 462 Z" fill="#FFFFFF"/><path d=" M 482 291.938 L 138 291.938 C 121.457 291.938 108 305.395 108 321.938 L 108 345.938 L 87.668 345.938 C 72.4102 345.938 60 358.348 60 373.605 L 60 390.965 C 37.2031 386.316 20 366.113 20 341.969 L 20 313.938 C 20 286.367 42.4297 263.938 70 263.938 L 354.102 263.938 C 376.102 263.938 394 246.039 394 224.039 L 394 221.004 C 432.301 216.078 462 183.285 462 143.668 L 462 74 C 462 69.1602 458.563 65.1289 454 64.1992 L 454 30 C 454 13.457 440.543 0 424 0 C 407.457 0 394 13.457 394 30 L 394 64 L 374 64 L 374 30 C 374 13.457 360.543 0 344 0 C 327.457 0 314 13.457 314 30 L 314 64.1992 C 309.438 65.1289 306 69.1602 306 74 L 306 143.668 C 306 183.285 335.699 216.078 374 221.004 L 374 224.039 C 374 235.012 365.07 243.938 354.102 243.938 L 70 243.938 C 31.4023 243.938 0 275.34 0 313.938 L 0 341.969 C 0 377.172 26.125 406.375 60 411.242 L 60 430.332 C 60 445.59 72.4102 458 87.668 458 L 108 458 L 108 482 C 108 498.543 121.457 512 138 512 L 265 512 C 270.523 512 275 507.523 275 502 C 275 496.477 270.523 492 265 492 L 138 492 C 132.484 492 128 487.516 128 482 L 128 321.938 C 128 316.422 132.484 311.938 138 311.938 L 482 311.938 C 487.516 311.938 492 316.422 492 321.938 L 492 482 C 492 487.516 487.516 492 482 492 L 355 492 C 349.477 492 345 496.477 345 502 C 345 507.523 349.477 512 355 512 L 482 512 C 498.543 512 512 498.543 512 482 L 512 321.938 C 512 305.395 498.543 291.938 482 291.938 Z M 414 30 C 414 24.4844 418.484 20 424 20 C 429.516 20 434 24.4844 434 30 L 434 64 L 414 64 Z M 334 30 C 334 24.4844 338.484 20 344 20 C 349.516 20 354 24.4844 354 30 L 354 64 L 334 64 Z M 326 143.668 L 326 84 L 442 84 L 442 143.668 C 442 175.648 415.98 201.668 384 201.668 C 352.02 201.668 326 175.648 326 143.668 Z M 87.668 438 C 83.4375 438 80 434.563 80 430.332 L 80 373.605 C 80 369.375 83.4375 365.938 87.668 365.938 L 108 365.938 L 108 438 Z"/><path d=" M 414 371.969 C 411.371 371.969 408.789 373.039 406.93 374.898 C 405.07 376.762 404 379.34 404 381.969 C 404 384.602 405.07 387.18 406.93 389.039 C 408.789 390.898 411.371 391.969 414 391.969 C 416.629 391.969 419.211 390.898 421.07 389.039 C 422.93 387.18 424 384.602 424 381.969 C 424 379.34 422.93 376.762 421.07 374.898 C 419.211 373.039 416.629 371.969 414 371.969 Z"/><path d=" M 414 411.969 C 411.359 411.969 408.789 413.039 406.93 414.898 C 405.07 416.762 404 419.34 404 421.969 C 404 424.602 405.07 427.18 406.93 429.039 C 408.789 430.898 411.371 431.969 414 431.969 C 416.629 431.969 419.211 430.898 421.07 429.039 C 422.93 427.18 424 424.602 424 421.969 C 424 419.34 422.93 416.762 421.07 414.898 C 419.211 413.039 416.629 411.969 414 411.969 Z"/><path d=" M 454 472 C 459.523 472 464 467.523 464 462 L 464 341.938 C 464 336.414 459.523 331.938 454 331.938 L 374 331.938 C 368.477 331.938 364 336.414 364 341.938 L 364 462 C 364 467.523 368.477 472 374 472 Z M 384 351.938 L 444 351.938 L 444 452 L 384 452 Z"/><path d=" M 294 391.969 C 296.629 391.969 299.211 390.898 301.07 389.039 C 302.93 387.18 304 384.602 304 381.969 C 304 379.34 302.93 376.762 301.07 374.898 C 299.211 373.039 296.629 371.969 294 371.969 C 291.371 371.969 288.789 373.039 286.93 374.898 C 285.07 376.762 284 379.328 284 381.969 C 284 384.602 285.07 387.18 286.93 389.039 C 288.789 390.898 291.371 391.969 294 391.969 Z"/><path d=" M 294 431.969 C 296.629 431.969 299.211 430.898 301.07 429.039 C 302.93 427.18 304 424.602 304 421.969 C 304 419.34 302.93 416.762 301.07 414.898 C 299.211 413.039 296.629 411.969 294 411.969 C 291.371 411.969 288.789 413.039 286.93 414.898 C 285.07 416.762 284 419.34 284 421.969 C 284 424.602 285.07 427.18 286.93 429.039 C 288.789 430.898 291.371 431.969 294 431.969 Z"/><path d=" M 334 331.938 L 254 331.938 C 248.477 331.938 244 336.414 244 341.938 L 244 462 C 244 467.523 248.477 472 254 472 L 334 472 C 339.523 472 344 467.523 344 462 L 344 341.938 C 344 336.414 339.523 331.938 334 331.938 Z M 324 452 L 264 452 L 264 351.938 L 324 351.938 Z"/><path d=" M 160 331.938 C 154.477 331.938 150 336.414 150 341.938 L 150 462 C 150 467.523 154.477 472 160 472 L 216 472 C 221.523 472 226 467.523 226 462 L 226 341.938 C 226 336.414 221.523 331.938 216 331.938 Z M 206 351.938 L 206 391.969 L 170 391.969 L 170 351.938 Z M 170 452 L 170 411.969 L 206 411.969 L 206 452 Z"/><path d=" M 393.172 169.82 L 403.172 146.82 C 404.516 143.73 404.211 140.172 402.363 137.352 C 400.516 134.531 397.371 132.836 394 132.836 L 390.18 132.836 L 394.227 123.996 C 396.523 118.977 394.316 113.039 389.297 110.742 C 384.277 108.441 378.34 110.648 376.039 115.672 L 365.512 138.672 C 364.094 141.766 364.348 145.371 366.188 148.234 C 368.027 151.102 371.195 152.836 374.602 152.836 L 378.746 152.836 L 374.828 161.848 C 372.629 166.91 374.949 172.805 380.012 175.004 C 381.313 175.57 382.664 175.836 383.996 175.836 C 387.855 175.836 391.531 173.586 393.172 169.82 Z"/><path d=" M 310 492 C 307.371 492 304.789 493.07 302.93 494.93 C 301.07 496.789 300 499.371 300 502 C 300 504.629 301.07 507.211 302.93 509.07 C 304.789 510.93 307.371 512 310 512 C 312.629 512 315.211 510.93 317.07 509.07 C 318.93 507.211 320 504.629 320 502 C 320 499.371 318.93 496.789 317.07 494.93 C 315.211 493.07 312.629 492 310 492 Z"/></svg>