<svg version="1.1" viewBox="0 0 512.001 512.001" xmlns="http://www.w3.org/2000/svg" xmlns:xlink="http://www.w3.org/1999/xlink" id="Capa_1" overflow="hidden"><g><g><path d=" M 408 392.001 C 350.656 392.001 304 352.524 304 304.001 C 304 299.579 307.578 296.001 312 296.001 L 504 296.001 C 508.422 296.001 512 299.579 512 304.001 C 512 352.524 465.344 392.001 408 392.001 Z M 320.539 312.001 C 325.422 347.954 362.781 376.001 408 376.001 C 453.219 376.001 490.578 347.954 495.461 312.001 L 320.539 312.001 Z" fill="#646464"/></g><g><g><path d=" M 7.993 312.001 C 6.821 312.001 5.634 311.743 4.509 311.196 C 0.532 309.266 -1.124 304.481 0.806 300.505 L 90.189 116.505 C 92.111 112.536 96.908 110.88 100.877 112.806 C 104.854 114.736 106.51 119.521 104.58 123.497 L 15.197 307.497 C 13.813 310.344 10.962 312.001 7.993 312.001 Z" fill="#5C546A"/></g></g><g><g><path d=" M 200.009 312.001 C 197.04 312.001 194.189 310.345 192.806 307.497 L 103.423 123.497 C 101.493 119.52 103.15 114.735 107.126 112.806 C 111.103 110.884 115.892 112.536 117.814 116.505 L 207.197 300.505 C 209.127 304.482 207.47 309.267 203.494 311.196 C 202.368 311.743 201.18 312.001 200.009 312.001 Z" fill="#5C546A"/></g></g><g><g><path d=" M 311.993 312.001 C 310.821 312.001 309.634 311.743 308.509 311.196 C 304.532 309.266 302.876 304.481 304.806 300.505 L 394.189 116.505 C 396.119 112.536 400.9 110.88 404.877 112.806 C 408.854 114.736 410.51 119.521 408.58 123.497 L 319.197 307.497 C 317.813 310.344 314.962 312.001 311.993 312.001 Z" fill="#5C546A"/></g></g><g><g><path d=" M 504.009 312.001 C 501.04 312.001 498.189 310.345 496.806 307.497 L 407.423 123.497 C 405.493 119.52 407.15 114.735 411.126 112.806 C 415.11 110.884 419.884 112.536 421.814 116.505 L 511.197 300.505 C 513.127 304.482 511.47 309.267 507.494 311.196 C 506.368 311.743 505.18 312.001 504.009 312.001 Z" fill="#5C546A"/></g></g><g><g><path d=" M 87.993 107.727 C 86.759 107.727 85.501 107.442 84.329 106.836 C 77.743 103.434 71.727 99.039 66.454 93.77 L 50.344 77.657 C 47.219 74.532 47.219 69.469 50.344 66.344 C 53.469 63.219 58.532 63.219 61.657 66.344 L 77.766 82.453 C 81.868 86.555 86.547 89.973 91.672 92.617 C 95.594 94.644 97.133 99.469 95.11 103.394 C 93.688 106.149 90.891 107.727 87.993 107.727 Z" fill="#DE8229"/></g></g><g><g><path d=" M 119.993 114.801 C 115.727 114.801 112.18 111.43 112.009 107.129 C 111.829 102.715 115.259 98.988 119.673 98.809 C 127.212 98.5 134.501 96.7 141.329 93.461 L 228.579 52.137 C 232.563 50.242 237.337 51.949 239.227 55.942 C 241.125 59.934 239.415 64.708 235.422 66.598 L 148.18 107.922 C 139.399 112.086 130.024 114.399 120.328 114.793 C 120.219 114.798 120.102 114.801 119.993 114.801 Z" fill="#DE8229"/></g></g><g><g><path d=" M 424.009 107.727 C 421.111 107.727 418.314 106.149 416.892 103.395 C 414.869 99.469 416.408 94.645 420.33 92.618 C 425.455 89.973 430.135 86.555 434.236 82.45 L 450.345 66.345 C 453.47 63.22 458.533 63.22 461.658 66.345 C 464.783 69.47 464.783 74.533 461.658 77.658 L 445.549 93.767 C 440.276 99.04 434.26 103.435 427.674 106.837 C 426.501 107.442 425.243 107.727 424.009 107.727 Z" fill="#DE8229"/></g></g><g><g><path d=" M 392.009 114.801 C 391.9 114.801 391.782 114.797 391.673 114.793 C 381.978 114.398 372.603 112.086 363.814 107.922 L 276.58 66.598 C 272.588 64.707 270.877 59.934 272.775 55.942 C 274.673 51.95 279.455 50.251 283.423 52.137 L 370.665 93.461 C 377.501 96.699 384.79 98.5 392.329 98.809 C 396.743 98.989 400.173 102.715 399.993 107.129 C 399.821 111.43 396.274 114.801 392.009 114.801 Z" fill="#DE8229"/></g></g><g><path d=" M 240.001 432.001 L 240.001 67.167 L 272.001 67.167 L 272.001 432.001" fill="#5C546A"/></g><g><path d=" M 256.001 424.001 C 220.712 424.001 192.001 452.712 192.001 488.001 C 192.001 492.419 195.579 496.001 200.001 496.001 C 204.423 496.001 208.001 492.419 208.001 488.001 L 304.001 488.001 C 304.001 492.419 307.579 496.001 312.001 496.001 C 316.423 496.001 320.001 492.419 320.001 488.001 C 320.001 452.712 291.29 424.001 256.001 424.001 Z" fill="#8A8895"/></g><g><g><path d=" M 352.001 496.001 L 160.001 496.001 C 155.579 496.001 152.001 492.419 152.001 488.001 C 152.001 483.583 155.579 480.001 160.001 480.001 L 352.001 480.001 C 356.423 480.001 360.001 483.583 360.001 488.001 C 360.001 492.419 356.423 496.001 352.001 496.001 Z" fill="#5C546A"/></g></g><g><g><path d=" M 200.001 296.001 L 8.001 296.001 C 3.579 296.001 0.001 299.583 0.001 304.001 C 0.001 352.524 46.657 392.001 104.001 392.001 C 161.345 392.001 208.001 352.524 208.001 304.001 C 208.001 299.583 204.423 296.001 200.001 296.001 Z" fill="#FFD100"/></g><g><path d=" M 8.001 296.001 C 3.579 296.001 0.001 299.583 0.001 304.001 C 0.001 352.524 46.657 392.001 104.001 392.001 L 104.001 296.001 L 8.001 296.001 Z" fill="#FF9500"/></g></g><g><g><path d=" M 504.001 296.001 L 312.001 296.001 C 307.579 296.001 304.001 299.583 304.001 304.001 C 304.001 352.524 350.657 392.001 408.001 392.001 C 465.345 392.001 512.001 352.524 512.001 304.001 C 512.001 299.583 508.423 296.001 504.001 296.001 Z" fill="#FFD100"/></g><g><path d=" M 312.001 296.001 C 307.579 296.001 304.001 299.583 304.001 304.001 C 304.001 352.524 350.657 392.001 408.001 392.001 L 408.001 296.001 L 312.001 296.001 Z" fill="#FF9500"/></g></g><g><circle cx="104.001" cy="104.001" r="24" fill="#8A8895"/></g><g><circle cx="408.001" cy="104.001" r="24" fill="#8A8895"/></g><g><circle cx="256.001" cy="48.001" r="32" fill="#8A8895"/></g><g><circle cx="256.001" cy="48.001" r="16" fill="#5C546A"/></g></g><g></g><g></g><g></g><g></g><g></g><g></g><g></g><g></g><g></g><g></g><g></g><g></g><g></g><g></g><g></g></svg>