<svg version="1.1" width="601.333" height="601.333" viewBox="0 -26 451.92 451" xmlns="http://www.w3.org/2000/svg" xmlns:xlink="http://www.w3.org/1999/xlink" overflow="hidden"><path d=" M 226.559 392.461 C 157.941 392.461 95.2383 353.617 64.6797 292.18 L 18.5586 199.461 L 434.559 199.461 L 388.441 292.18 C 357.883 353.617 295.176 392.461 226.559 392.461 Z" fill="#C3C3C3"/><path d=" M 443.91 172.461 C 443.91 81.8867 346.324 8.46094 225.945 8.46094 C 105.563 8.46094 7.97656 81.8867 7.97656 172.461 C 7.97656 263.035 105.563 336.461 225.945 336.461 C 346.324 336.461 443.91 263.035 443.91 172.461 Z" fill="#DBDBDB"/><path d=" M 407.559 171.707 C 407.559 101.719 326.523 44.9805 226.559 44.9805 C 126.598 44.9805 45.5586 101.719 45.5586 171.707 C 45.5586 241.699 126.598 298.438 226.559 298.438 C 326.523 298.438 407.559 241.699 407.559 171.707 Z" fill="#D1763E"/><path d=" M 91.5742 96.6914 L 150.703 89.5313 C 165.164 87.7227 178.957 82.3789 190.863 73.9805 C 206.156 63.2656 223.855 56.4883 242.391 54.2422 L 277.145 50.0352 C 269.176 48.4375 260.996 47.1914 252.609 46.3086 L 251.902 46.2539 C 248.344 45.8984 244.754 45.6367 241.129 45.4531 C 240.223 45.4023 239.313 45.3477 238.398 45.3086 C 234.488 45.1328 230.551 45.0117 226.566 45.0117 C 172.344 45.0117 123.719 61.7305 90.5664 88.2109 Z" fill="#FBB540"/><path d=" M 342.426 74.3555 C 322.133 62.7461 300.082 54.5313 277.145 50.0352 L 242.391 54.2422 C 224.875 56.3672 208.094 62.5391 193.375 72.2695 C 178.656 82 161.871 88.1758 144.352 90.3008 L 91.5508 96.6992 L 95.4258 128.461 L 148.223 122.059 C 165.742 119.934 182.527 113.762 197.246 104.027 C 211.969 94.2969 228.75 88.1289 246.266 86.0039 Z" fill="#EA9D2D"/><path d=" M 242.391 86.5547 C 224.875 88.6758 208.094 94.8477 193.375 104.578 C 178.656 114.313 161.871 120.484 144.352 122.605 L 91.5508 129.004 L 95.3984 160.773 L 148.199 154.371 C 165.719 152.25 182.504 146.078 197.223 136.348 C 211.941 126.613 228.723 120.445 246.238 118.324 L 362.559 104.227 L 360.398 86.3945 C 354.699 82.0234 348.727 78.0156 342.52 74.3945 Z" fill="#FBB540"/><path d=" M 282.863 104.379 L 166.559 118.477 C 149.043 120.598 132.262 126.77 117.543 136.5 C 102.824 146.234 86.0391 152.406 68.5195 154.531 L 46.8008 157.164 C 44.9961 167.828 45.1875 178.73 47.3594 189.324 L 72.3672 186.301 C 89.8867 184.176 106.672 178 121.391 168.27 C 136.109 158.539 152.891 152.367 170.406 150.242 L 286.727 136.148 Z" fill="#FBB540"/><path d=" M 286.711 136.148 L 170.391 150.242 C 152.875 152.367 136.094 158.539 121.375 168.27 C 106.656 178 89.8711 184.176 72.3516 186.301 L 47.3594 189.324 C 49.5625 200.191 53.5938 210.602 59.2891 220.117 L 76.2148 218.066 C 93.7344 215.941 110.52 209.77 125.238 200.035 C 139.957 190.305 156.738 184.137 174.258 182.012 L 290.559 167.914 Z" fill="#EA9D2D"/><path d=" M 281.945 292.363 L 180.777 234.531 C 165.457 225.773 148.309 220.707 130.688 219.723 C 113.07 218.742 95.9219 213.672 80.6016 204.914 L 46.6484 185.508 C 49.7734 203.949 57.875 221.191 70.0781 235.363 C 83.9961 242.445 99.2227 246.578 114.809 247.508 C 132.426 248.488 149.578 253.559 164.895 262.316 L 228.023 298.402 C 246.16 298.332 264.238 296.309 281.945 292.363 Z" fill="#FBB540"/><path d=" M 175.191 84.4609 C 161.121 84.1523 147.348 80.3359 135.129 73.3555 L 124.297 67.1641 C 113.258 72.4102 102.785 78.7773 93.0469 86.1641 L 119.246 101.133 C 131.465 108.117 145.234 111.938 159.305 112.242 C 178.234 112.66 196.762 117.801 213.199 127.195 L 306.559 184.461 L 330.801 157.555 L 229.078 99.4023 C 212.641 90.0117 194.117 84.875 175.191 84.4609 Z" fill="#FFAB31"/><path d=" M 159.305 112.234 C 145.234 111.93 131.465 108.109 119.246 101.125 L 93.0469 86.1563 C 84.1641 92.8945 76.1055 100.66 69.0469 109.293 L 103.367 128.906 C 115.586 135.887 129.355 139.707 143.426 140.012 C 162.355 140.434 180.883 145.574 197.32 154.973 L 299.039 213.117 L 314.559 200.461 L 314.922 185.332 C 322.559 192.461 213.199 127.188 213.199 127.188 C 196.762 117.793 178.234 112.652 159.305 112.234 Z" fill="#FBC15A"/><path d=" M 147.465 140.172 C 130.781 139.496 114.48 134.953 99.8555 126.898 L 69.0469 109.301 C 62.2539 117.602 56.707 126.852 52.5938 136.758 L 83.9766 154.691 C 98.6016 162.742 114.895 167.285 131.574 167.965 C 149.117 168.98 166.184 174.043 181.441 182.758 L 269.266 232.965 C 276.938 237.352 286.711 234.684 291.098 227.012 C 295.48 219.34 292.816 209.566 285.145 205.18 L 197.32 154.973 C 182.066 146.254 165.004 141.188 147.465 140.172 Z" fill="#FFAB31"/><path d=" M 228.801 275.57 L 181.496 291.57 C 172.414 294.641 162.434 293.48 154.301 288.402 C 146.172 283.328 140.742 274.871 139.512 265.363 L 137.414 249.18 C 135.469 234.063 144.457 219.668 158.895 214.781 L 200.16 200.82 C 214.609 195.93 230.5 201.922 238.129 215.133 L 246.289 229.27 C 251.078 237.574 251.891 247.59 248.504 256.559 C 245.113 265.527 237.883 272.504 228.801 275.57 Z" fill="#F26B32"/><path d=" M 238.207 272.086 L 190.902 288.086 C 181.828 291.141 171.859 289.969 163.738 284.895 C 155.613 279.82 150.191 271.375 148.961 261.875 L 146.863 245.691 C 144.918 230.57 153.91 216.176 168.352 211.293 L 209.594 197.348 C 224.043 192.465 239.93 198.457 247.551 211.668 L 255.711 225.797 C 260.496 234.102 261.301 244.117 257.91 253.082 C 254.52 262.047 247.289 269.02 238.207 272.086 Z" fill="#FF7135"/><path d=" M 268.801 278.766 L 221.496 294.766 C 212.414 297.836 202.434 296.672 194.301 291.594 C 186.172 286.52 180.742 278.063 179.512 268.555 L 177.414 252.371 C 175.469 237.254 184.457 222.859 198.895 217.973 L 240.16 204.004 C 254.609 199.117 270.5 205.105 278.129 218.316 L 286.266 232.461 C 291.055 240.762 291.871 250.773 288.488 259.742 C 285.105 268.711 277.879 275.691 268.801 278.766 Z" fill="#D85021"/><path d=" M 276.801 275.906 L 229.496 291.906 C 220.414 294.977 210.434 293.816 202.301 288.738 C 194.172 283.664 188.742 275.207 187.512 265.699 L 185.414 249.516 C 183.469 234.398 192.457 220.004 206.895 215.117 L 248.16 201.148 C 262.613 196.262 278.504 202.254 286.129 215.469 L 294.289 229.598 C 299.082 237.902 299.895 247.922 296.508 256.891 C 293.121 265.863 285.887 272.844 276.801 275.906 Z" fill="#E45423"/><path d=" M 308.801 278.766 L 261.496 294.766 C 252.414 297.836 242.434 296.672 234.301 291.594 C 226.172 286.52 220.742 278.063 219.512 268.555 L 217.414 252.371 C 215.469 237.254 224.457 222.859 238.895 217.973 L 280.16 204.004 C 294.609 199.117 310.5 205.105 318.129 218.316 L 326.266 232.461 C 331.055 240.762 331.871 250.773 328.488 259.742 C 325.105 268.711 317.879 275.691 308.801 278.766 Z" fill="#F26B32"/><path d=" M 316.801 275.57 L 269.496 291.57 C 260.414 294.641 250.434 293.48 242.301 288.402 C 234.172 283.328 228.742 274.871 227.512 265.363 L 225.414 249.18 C 223.469 234.063 232.457 219.668 246.895 214.781 L 288.16 200.82 C 302.609 195.93 318.5 201.922 326.129 215.133 L 334.289 229.27 C 339.078 237.574 339.891 247.59 336.504 256.559 C 333.113 265.527 325.883 272.504 316.801 275.57 Z" fill="#FF7135"/><path d=" M 358.207 262.766 L 310.902 278.766 C 301.824 281.82 291.855 280.648 283.734 275.57 C 275.613 270.496 270.191 262.047 268.961 252.547 L 266.863 236.363 C 264.918 221.242 273.91 206.848 288.352 201.965 L 329.594 188.02 C 344.039 183.137 359.926 189.125 367.551 202.332 L 375.672 216.461 C 380.461 224.762 381.277 234.773 377.895 243.742 C 374.512 252.711 367.289 259.691 358.207 262.766 Z" fill="#D85021"/><path d=" M 366.207 260.906 L 318.902 276.906 C 309.828 279.965 299.859 278.793 291.738 273.719 C 283.613 268.645 278.191 260.199 276.961 250.699 L 274.863 234.516 C 272.918 219.395 281.91 205 296.352 200.117 L 337.594 186.172 C 352.023 181.305 367.883 187.281 375.512 200.461 L 383.672 214.59 C 388.469 222.891 389.289 232.91 385.906 241.883 C 382.52 250.855 375.293 257.836 366.207 260.906 Z" fill="#E45423"/><path d=" M 388.336 115.215 C 369.344 81.5391 332.77 66.1875 306.648 80.9219 C 280.527 95.6563 274.746 134.895 293.738 168.57 C 312.73 202.242 349.305 217.598 375.426 202.863 C 401.551 188.129 407.328 148.887 388.336 115.215 Z" fill="#F9F9F9"/><path d=" M 363.816 134.133 C 363.816 149.129 351.66 161.285 336.664 161.285 C 321.668 161.285 309.512 149.129 309.512 134.133 C 309.512 119.137 321.668 106.98 336.664 106.98 C 351.66 106.98 363.816 119.137 363.816 134.133 Z" fill="#FD9226"/><path d=" M 57.5586 295.781 C 89.4883 359.887 154.941 400.41 226.559 400.41 C 298.18 400.41 363.633 359.887 395.559 295.781 L 404.465 277.973 C 434.074 250.789 451.227 212.648 451.922 172.461 C 451.922 77.6211 350.559 0.460938 225.922 0.460938 C 101.281 0.460938 0 77.6211 0 172.461 C 0.984375 213.699 18.9961 252.688 49.7617 280.172 Z M 226.559 384.461 C 167.406 384.676 112.316 354.383 80.8086 304.316 C 124.414 331.141 174.727 345.059 225.922 344.461 C 277.984 345.137 329.129 330.727 373.176 302.965 C 341.828 353.809 286.289 384.68 226.559 384.461 Z M 225.922 16.4609 C 341.711 16.4609 435.922 86.4453 435.922 172.461 C 435.137 208.832 419.348 243.262 392.289 267.578 C 352.16 306.27 291.512 328.461 225.922 328.461 C 161.762 328.461 101.961 307.02 61.8555 269.645 C 31.8555 241.707 16 208.109 16 172.461 C 16 86.4453 110.168 16.4609 225.922 16.4609 Z"/><path d=" M 301.93 128.73 C 298.973 147.91 312.094 165.863 331.266 168.867 C 333.059 169.145 334.871 169.285 336.688 169.285 C 355.398 169.27 370.816 154.605 371.77 135.922 C 372.723 117.238 358.871 101.082 340.262 99.1641 C 321.652 97.25 304.801 110.246 301.93 128.73 Z M 317.742 131.188 C 319.207 121.883 327.203 115.016 336.625 114.973 C 337.625 114.973 338.621 115.051 339.609 115.211 C 350.059 116.832 357.219 126.621 355.598 137.07 C 353.977 147.523 344.195 154.684 333.742 153.063 C 323.289 151.445 316.129 141.664 317.742 131.211 Z"/><path d=" M 74.2734 251.371 C 95.6328 271.293 121.266 286.066 149.207 294.57 C 155.691 298.914 163.316 301.242 171.121 301.27 C 172.129 301.27 173.137 301.188 174.145 301.109 C 191.391 304.652 208.953 306.434 226.559 306.43 C 272.102 307.148 316.867 294.609 355.406 270.34 L 360.785 268.523 C 372.004 264.723 380.953 256.125 385.191 245.059 C 404.227 225.324 415.086 199.113 415.594 171.699 C 415.34 149.605 408.078 128.16 394.848 110.461 C 394.711 110.227 394.617 110.027 394.449 109.773 C 385.793 94.707 372.973 82.457 357.527 74.5 C 357.273 74.3711 357 74.2773 356.727 74.1484 C 317.957 49.1836 272.668 36.25 226.559 36.9805 C 177.504 36.043 129.434 50.8281 89.3828 79.1719 C 88.7227 79.4922 88.1094 79.8984 87.5586 80.3867 C 87.4727 80.4766 87.4414 80.5977 87.3516 80.6914 C 78.7031 87.3594 70.8047 94.9531 63.8008 103.332 C 63.3203 103.801 62.8945 104.324 62.5352 104.891 C 46.75 123.613 37.9258 147.215 37.5586 171.699 C 38.2969 201.496 51.0391 229.73 72.8945 249.996 C 73.293 250.512 73.7578 250.973 74.2734 251.371 Z M 71.1289 119.66 L 93.1445 132.309 C 109.555 141.684 127.922 147.109 146.793 148.148 C 148.07 148.219 149.305 148.34 150.574 148.469 L 151.375 148.547 C 152.531 148.625 153.68 148.77 154.816 148.98 C 157.121 149.27 159.414 149.629 161.648 150.133 L 162.305 150.242 C 164.488 150.676 166.672 151.254 168.703 151.797 C 170.016 152.156 171.32 152.516 172.93 153.043 C 175.648 153.863 178.316 154.832 180.93 155.949 C 181.141 156.039 181.355 156.113 181.574 156.18 C 185.574 157.859 189.469 159.77 193.238 161.906 L 250.137 194.41 C 245.84 194.402 241.574 195.086 237.496 196.438 L 232.695 198.035 C 227.922 194.711 222.449 192.52 216.695 191.637 C 215.18 191.363 213.648 191.184 212.113 191.102 L 185.391 175.844 L 184.664 175.438 C 183.863 174.973 183.023 174.531 182.703 174.41 C 167.016 165.891 149.629 160.969 131.801 160.012 C 129.238 159.867 126.762 159.652 124.137 159.27 C 110.43 157.527 97.207 153.078 85.2383 146.18 L 84.1289 145.539 C 83.8945 145.41 83.6641 145.301 83.4258 145.188 L 62.832 133.43 C 65.2305 128.625 68.0039 124.023 71.1289 119.66 Z M 156.785 280.309 C 151.633 276.461 148.266 270.688 147.457 264.309 L 146.398 256.086 L 146.398 255.844 L 145.406 248.125 C 144.656 242.273 146.082 236.348 149.406 231.477 C 152.328 227.191 156.57 223.977 161.488 222.324 L 194.434 211.125 C 183.156 215.613 174.52 224.973 170.945 236.57 C 169.262 242.004 168.785 247.738 169.543 253.371 L 171.617 269.469 C 172.059 273.352 173.141 277.137 174.816 280.668 L 174.938 280.973 C 175.539 282.152 176.203 283.297 176.93 284.402 C 176.156 284.609 175.375 284.781 174.586 284.906 C 168.473 283.66 162.559 282.059 156.785 280.309 Z M 69.4492 162.477 C 72.4492 162.117 75.6094 161.547 78.9102 160.875 C 85.7813 164.711 93.0195 167.855 100.512 170.262 C 91.2109 174.328 81.3789 177.059 71.3125 178.363 L 54.0781 180.461 C 53.75 177.551 53.5742 174.629 53.5586 171.699 C 53.5586 169.242 53.7031 166.805 53.9219 164.379 Z M 73.3047 194.242 C 91.7344 191.922 109.406 185.477 125.008 175.387 C 126.969 175.605 128.902 175.852 130.938 175.965 C 137.668 176.379 144.348 177.453 150.871 179.164 C 140.668 182.375 130.938 186.922 121.93 192.684 C 121.648 192.852 121.383 193.027 121.129 193.219 L 120.832 193.402 C 111.652 199.398 101.598 203.938 91.0313 206.859 C 89.0313 205.891 87.0313 204.926 85.2578 203.891 L 69.1836 194.715 Z M 129.367 206.859 C 129.641 206.699 129.902 206.523 130.168 206.34 L 130.441 206.172 C 143.922 197.41 159.23 191.84 175.191 189.891 L 177.344 189.629 L 177.465 189.691 L 188.777 196.156 L 156.344 207.156 C 149.84 209.352 144.023 213.215 139.473 218.355 C 137.07 218.051 134.535 217.797 131.801 217.621 C 125.941 217.27 120.121 216.43 114.398 215.109 C 119.574 212.711 124.578 209.953 129.367 206.859 Z M 209.504 253.363 L 211.574 269.445 C 212.047 273.477 213.18 277.402 214.938 281.059 C 215.938 283.238 217.145 285.316 218.535 287.27 C 216.977 287.789 215.367 288.141 213.734 288.316 C 207.141 288.977 200.563 286.883 195.566 282.523 C 193.145 280.488 191.184 277.957 189.824 275.102 C 189.777 274.965 189.711 274.836 189.656 274.699 L 189.566 274.5 C 189.512 274.348 189.449 274.199 189.375 274.051 C 188.355 271.992 187.715 269.77 187.48 267.484 L 185.391 251.262 C 184.945 247.906 185.23 244.5 186.23 241.27 C 188.488 233.875 194.16 228.016 201.48 225.523 L 222.895 218.262 C 212.84 226.996 207.816 240.184 209.504 253.395 Z M 131.246 263.691 L 131.586 266.309 C 131.863 268.012 132.258 269.695 132.762 271.348 C 126.012 268.359 119.445 264.965 113.105 261.188 C 113.754 261.234 114.383 261.34 115.031 261.379 C 120.492 261.727 125.914 262.512 131.246 263.723 Z M 258.977 287.164 C 251.813 289.617 243.91 288.52 237.688 284.203 C 234.063 281.738 231.199 278.305 229.434 274.293 C 228.398 272.148 227.73 269.844 227.457 267.477 L 225.367 251.301 C 223.957 239.727 231.004 228.793 242.129 225.301 L 260.215 219.164 C 259.008 223.121 258.469 227.254 258.617 231.387 C 258.59 232.785 258.668 234.18 258.848 235.563 L 261 251.699 C 262.316 261.973 267.563 271.332 275.641 277.813 C 276.82 278.699 278.051 279.52 279.328 280.27 Z M 77.2461 217.773 C 80.4023 219.59 83.6484 221.242 86.9766 222.723 L 87.543 222.957 C 101.184 229.207 115.875 232.832 130.855 233.645 L 130.984 233.645 C 129.699 237.969 129.16 242.48 129.383 246.988 C 124.922 246.188 120.414 245.656 115.887 245.387 C 104.707 244.715 93.707 242.27 83.2969 238.141 C 74.8438 229.734 67.8164 220.008 62.4961 209.34 Z M 355.648 253.355 L 350.047 255.262 C 349.844 255.309 349.641 255.371 349.441 255.445 L 313.68 267.523 C 313.422 267.613 313.168 267.715 312.922 267.828 L 308.367 269.348 C 301.551 271.668 294.047 270.793 287.945 266.973 C 281.84 263.148 277.781 256.781 276.887 249.637 L 274.703 233.316 C 274.629 232.57 274.605 231.824 274.633 231.074 C 274.449 225.754 276.051 220.52 279.184 216.211 C 279.91 215.215 280.715 214.273 281.586 213.395 C 281.895 213.094 282.238 212.844 282.559 212.598 C 283.137 212.086 283.703 211.563 284.32 211.117 C 284.98 210.91 285.613 210.613 286.191 210.234 C 286.609 209.945 287 209.621 287.359 209.262 C 288.488 208.602 289.676 208.047 290.902 207.605 L 311.145 200.773 C 311.441 200.996 311.754 201.18 312.047 201.402 C 313.465 202.461 314.895 203.445 316.344 204.395 C 316.977 204.805 317.594 205.254 318.23 205.645 C 320.313 206.926 322.406 208.117 324.543 209.164 C 324.742 209.27 324.945 209.34 325.145 209.438 C 327.078 210.371 329.031 211.211 331 211.965 C 331.801 212.254 332.52 212.492 333.281 212.766 C 334.703 213.254 336.121 213.707 337.551 214.102 C 338.426 214.332 339.297 214.539 340.176 214.746 C 341.512 215.051 342.848 215.309 344.176 215.547 C 345.063 215.691 345.953 215.836 346.84 215.949 C 348.238 216.109 349.625 216.195 351.016 216.27 C 351.816 216.27 352.617 216.379 353.414 216.387 L 353.832 216.387 C 355.68 216.387 357.52 216.277 359.336 216.102 C 359.945 216.035 360.543 215.934 361.145 215.852 C 362.617 215.652 364.07 215.402 365.512 215.051 C 365.887 214.973 366.313 214.949 366.656 214.852 L 368.801 218.57 C 372.383 224.801 372.992 232.301 370.461 239.023 C 367.93 245.746 362.527 250.988 355.727 253.309 Z M 123.938 76.1953 L 124.93 76.7813 C 138.691 84.6133 153.848 89.6914 169.551 91.7305 C 172.504 92.1719 175.465 92.4375 178.527 92.6133 C 190.758 93.2656 202.777 96.043 214.055 100.82 C 217.594 102.379 221.313 104.254 225.078 106.371 L 274.992 134.898 C 275.582 142.043 277.059 149.082 279.391 155.859 L 217.152 120.219 C 214.098 118.473 210.953 116.887 207.734 115.461 C 205.98 114.566 204.168 113.789 202.313 113.125 C 201.434 112.723 200.535 112.371 199.617 112.074 C 197.734 111.297 195.813 110.625 193.855 110.059 C 192.398 109.57 190.945 109.102 189.488 108.738 C 188.992 108.559 188.488 108.41 187.977 108.293 L 187.809 108.293 C 187.551 108.219 187.273 108.152 186.969 108.102 C 185.859 107.773 184.734 107.508 183.602 107.301 C 177.035 105.746 170.34 104.797 163.602 104.461 C 147.227 103.531 131.289 98.8164 117.039 90.6914 L 107.93 85.5 C 113.098 82.1211 118.441 79.0156 123.938 76.1953 Z M 314.121 69.3711 C 313.32 69.5898 312.52 69.7813 311.777 70.0352 L 245.289 78.0352 C 235.711 79.2227 226.313 81.5508 217.289 84.9727 C 210.895 82.4609 204.301 80.4922 197.574 79.0859 L 197.777 78.9648 C 211.477 69.9219 227.082 64.1719 243.375 62.1641 L 276.977 58.1641 C 289.664 60.7969 302.094 64.5469 314.121 69.3711 Z M 379.719 116.57 C 380.121 117.211 380.594 117.758 380.969 118.41 L 381.055 118.355 C 381.215 118.578 381.391 118.797 381.551 119.02 L 381.391 119.148 C 396.785 146.395 394.23 178.914 375.586 193.172 L 375.281 193.41 C 374.113 194.387 372.848 195.238 371.504 195.949 C 370.18 196.703 368.809 197.367 367.398 197.941 C 357.809 201.402 347.277 201.238 337.801 197.477 C 330.543 194.816 323.828 190.855 317.992 185.789 L 317.664 185.516 C 317.449 185.281 317.223 185.063 316.984 184.852 C 312.414 180.844 308.367 176.273 304.938 171.254 C 303.434 169.141 302.055 166.945 300.801 164.676 C 299.512 162.371 298.289 160.012 297.238 157.645 C 297.184 157.461 297.105 157.277 297.031 157.102 L 297.031 156.957 C 293.172 148.391 291.035 139.148 290.742 129.758 C 290.531 124.906 290.93 120.051 291.938 115.301 C 293.91 103.922 300.699 93.9492 310.559 87.9414 C 312.152 87.0391 313.813 86.2695 315.527 85.6367 C 315.734 85.582 315.945 85.5195 316.152 85.4453 C 321.281 83.6484 326.738 82.9766 332.152 83.4688 C 338.41 84.0938 344.5 85.8711 350.113 88.707 C 361.32 96.4336 371.289 105.82 379.68 116.539 Z M 382.648 210.652 L 381.367 208.461 C 382.773 207.641 384.121 206.727 385.406 205.73 C 389.625 202.445 393.313 198.531 396.344 194.125 C 393.957 202.477 390.406 210.453 385.801 217.82 C 384.977 215.32 383.91 212.906 382.609 210.621 Z M 238.273 95.4531 C 241.246 94.8203 244.238 94.2773 247.238 93.9141 L 285.953 89.2539 C 281.191 96.0703 277.859 103.777 276.16 111.914 C 275.824 113.516 275.68 115.117 275.449 116.715 Z M 188.961 65.6289 C 182.922 69.582 176.484 72.8984 169.762 75.5234 C 160.496 74.1602 151.457 71.5781 142.871 67.8438 C 165.367 59.4297 189.035 54.5508 213.023 53.3789 C 204.57 56.5547 196.5 60.6602 188.961 65.6289 Z M 93.7617 95.7656 L 109.129 104.563 C 125.547 113.918 143.91 119.34 162.777 120.402 C 168.633 120.695 174.453 121.516 180.16 122.859 C 180.949 122.988 181.723 123.18 182.48 123.438 C 183 123.617 183.535 123.746 184.078 123.82 L 184.16 123.82 C 184.543 123.973 184.941 124.094 185.344 124.18 C 186.504 124.438 187.656 124.836 189.121 125.316 C 190.609 125.734 192.07 126.246 193.496 126.844 C 193.836 126.996 194.18 127.125 194.535 127.234 C 194.941 127.348 195.34 127.496 195.719 127.676 C 196.055 127.844 196.398 127.988 196.754 128.109 C 198.199 128.621 199.613 129.23 200.977 129.941 C 203.805 131.18 206.563 132.57 209.238 134.109 L 281.48 175.461 C 281.703 175.594 281.938 175.711 282.176 175.813 L 293.113 182.066 C 294.711 184.234 296.313 186.355 298 188.332 L 285.801 192.461 C 284.438 192.922 283.102 193.453 281.801 194.059 L 201.223 147.98 C 196.699 145.414 192.016 143.129 187.207 141.141 C 187.008 141.059 186.801 140.98 186.586 140.914 C 183.691 139.691 180.734 138.621 177.727 137.715 C 176.129 137.195 174.586 136.758 172.93 136.301 C 170.352 135.613 167.688 134.926 165.023 134.41 L 164.727 134.363 C 162.145 133.797 159.504 133.387 157.289 133.125 C 155.586 132.813 153.863 132.602 152.137 132.492 C 150.609 132.34 149.137 132.195 147.625 132.117 C 131.254 131.207 115.324 126.504 101.09 118.371 L 81.4727 107.109 C 85.3125 103.078 89.3984 99.2891 93.7031 95.7656 Z"/></svg>