<svg version="1.1" width="682.667" height="682.667" viewBox="0 -1 512.001 512" xmlns="http://www.w3.org/2000/svg" xmlns:xlink="http://www.w3.org/1999/xlink" overflow="hidden"><path d=" M 68.4531 502.625 L 68.4531 492.309 C 68.4531 479.879 78.5313 469.801 90.9609 469.801 C 103.391 469.801 113.465 479.879 113.465 492.309 L 113.465 502.625 L 150.977 502.625 L 150.977 492.309 C 150.977 479.879 161.051 469.801 173.48 469.801 C 185.91 469.801 195.984 479.879 195.984 492.309 L 195.984 502.625 L 233.496 502.625 L 233.496 492.309 C 233.496 479.879 243.57 469.801 256 469.801 C 268.43 469.801 278.508 479.879 278.508 489.496 L 278.508 502.625 L 316.016 502.625 L 316.016 489.496 C 316.016 479.879 326.09 469.801 338.52 469.801 C 350.949 469.801 361.027 479.879 361.027 489.496 L 361.027 502.625 L 398.535 502.625 L 398.535 489.496 C 398.535 479.879 408.613 469.801 421.039 469.801 C 433.469 469.801 443.547 479.879 443.547 489.496 L 443.547 502.625 L 487.504 502.625 C 496.891 502.625 504.5 495.012 504.5 485.625 L 504.5 444.484 L 491.371 444.484 C 478.941 444.484 468.863 434.406 468.863 421.98 C 468.863 409.551 478.941 399.473 491.371 399.473 L 504.5 399.473 L 504.5 361.965 L 491.371 361.965 C 478.941 361.965 468.863 351.887 468.863 339.457 C 468.863 327.031 478.941 316.953 491.371 316.953 L 504.5 316.953 L 504.5 279.445 L 491.371 279.445 C 478.941 279.445 468.863 269.367 468.863 256.938 C 468.863 244.508 478.941 234.434 491.371 234.434 L 504.5 234.434 L 504.5 196.922 L 491.371 196.922 C 478.941 196.922 468.863 186.848 468.863 174.418 C 468.863 161.988 478.941 151.914 491.371 151.914 L 504.5 151.914 L 504.5 114.402 L 491.371 114.402 C 478.941 114.402 468.863 104.328 468.863 91.8984 C 468.863 79.4688 478.941 69.3906 491.371 69.3906 L 504.5 69.3906 L 504.5 24.5 C 504.5 15.1094 496.887 7.5 487.5 7.5 L 443.547 7.5 L 443.547 21.5664 C 443.547 33.9961 433.469 44.0742 421.039 44.0742 C 408.609 44.0742 398.535 33.9961 398.535 21.5664 L 398.535 7.50391 L 361.023 7.50391 L 361.023 21.5664 C 361.023 33.9961 350.949 44.0742 338.52 44.0742 C 326.09 44.0742 316.016 33.9961 316.016 21.5664 L 316.016 7.50391 L 278.504 7.50391 L 278.504 21.5664 C 278.504 33.9961 268.43 44.0742 256 44.0742 C 243.57 44.0742 233.492 33.9961 233.492 21.5664 L 233.492 7.50391 L 195.984 7.50391 L 195.984 21.5664 C 195.984 33.9961 185.91 44.0742 173.48 44.0742 C 161.051 44.0742 150.973 33.9961 150.973 21.5664 L 150.973 7.50391 L 113.465 7.50391 L 113.465 21.5664 C 113.465 33.9961 103.387 44.0742 90.9609 44.0742 C 78.5313 44.0742 68.4531 33.9961 68.4531 21.5664 L 68.4531 7.50391 L 24.5 7.50391 C 15.1133 7.50391 7.5 15.1094 7.5 24.5 L 7.5 69.3906 L 20.6289 69.3906 C 33.0586 69.3906 43.1367 79.4688 43.1367 91.8984 C 43.1367 104.324 33.0586 114.402 20.6289 114.402 L 7.5 114.402 L 7.5 151.91 L 20.6289 151.91 C 33.0586 151.91 43.1367 161.988 43.1367 174.418 C 43.1367 186.848 33.0586 196.922 20.6289 196.922 L 7.5 196.922 L 7.5 234.434 L 20.6289 234.434 C 33.0586 234.434 43.1367 244.508 43.1367 256.938 C 43.1367 269.367 33.0586 279.441 20.6289 279.441 L 7.5 279.441 L 7.5 316.953 L 20.6289 316.953 C 33.0586 316.953 43.1367 327.027 43.1367 339.457 C 43.1367 351.887 33.0586 361.961 20.6289 361.961 L 7.5 361.961 L 7.5 399.473 L 20.6289 399.473 C 33.0586 399.473 43.1367 409.547 43.1367 421.977 C 43.1367 434.406 33.0586 444.484 20.6289 444.484 L 7.5 444.484 L 7.5 485.625 C 7.5 495.012 15.1133 502.621 24.5 502.621 L 68.4531 502.621 Z" fill="#FFFFFF"/><path d=" M 68.4531 502.625 L 68.4531 492.309 C 68.4531 479.879 78.5313 469.801 90.9609 469.801 C 103.391 469.801 113.465 479.879 113.465 492.309 L 113.465 502.625 L 150.977 502.625 L 150.977 492.309 C 150.977 479.879 161.051 469.801 173.48 469.801 C 185.91 469.801 195.984 479.879 195.984 492.309 L 195.984 502.625 L 233.496 502.625 L 233.496 492.309 C 233.496 479.879 243.57 469.801 256 469.801 C 268.43 469.801 278.508 479.879 278.508 489.496 L 278.508 502.625 L 316.016 502.625 L 316.016 489.496 C 316.016 479.879 326.09 469.801 338.52 469.801 C 350.949 469.801 361.027 479.879 361.027 489.496 L 361.027 502.625 L 398.535 502.625 L 398.535 489.496 C 398.535 479.879 408.613 469.801 421.039 469.801 C 433.469 469.801 443.547 479.879 443.547 489.496 L 443.547 502.625 L 487.504 502.625 C 496.891 502.625 504.5 495.012 504.5 485.625 L 504.5 444.484 L 491.371 444.484 C 478.941 444.484 468.863 434.406 468.863 421.98 C 468.863 409.551 478.941 399.473 491.371 399.473 L 504.5 399.473 L 504.5 361.965 L 491.371 361.965 C 478.941 361.965 468.863 351.887 468.863 339.457 C 468.863 327.031 478.941 316.953 491.371 316.953 L 504.5 316.953 L 504.5 279.445 L 491.371 279.445 C 478.941 279.445 468.863 269.367 468.863 256.938 C 468.863 244.508 478.941 234.434 491.371 234.434 L 504.5 234.434 L 504.5 196.922 L 491.371 196.922 C 478.941 196.922 468.863 186.848 468.863 174.418 C 468.863 161.988 478.941 151.914 491.371 151.914 L 504.5 151.914 L 504.5 114.402 L 491.371 114.402 C 478.941 114.402 468.863 104.328 468.863 91.8984 C 468.863 79.4688 478.941 69.3906 491.371 69.3906 L 504.5 69.3906 L 504.5 24.5 C 504.5 15.1094 496.887 7.5 487.5 7.5 L 443.547 7.5 L 443.547 21.5664 C 443.547 33.9961 433.469 44.0742 421.039 44.0742 C 408.609 44.0742 398.535 33.9961 398.535 21.5664 L 398.535 7.50391 L 361.023 7.50391 L 361.023 21.5664 C 361.023 33.9961 350.949 44.0742 338.52 44.0742 C 326.09 44.0742 316.016 33.9961 316.016 21.5664 L 316.016 7.50391 L 278.504 7.50391 L 278.504 21.5664 C 278.504 33.9961 268.43 44.0742 256 44.0742 C 243.57 44.0742 233.492 33.9961 233.492 21.5664 L 233.492 7.50391 L 195.984 7.50391 L 195.984 21.5664 C 195.984 33.9961 185.91 44.0742 173.48 44.0742 C 161.051 44.0742 150.973 33.9961 150.973 21.5664 L 150.973 7.50391 L 113.465 7.50391 L 113.465 21.5664 C 113.465 33.9961 103.387 44.0742 90.9609 44.0742 C 78.5313 44.0742 68.4531 33.9961 68.4531 21.5664 L 68.4531 7.50391 L 24.5 7.50391 C 15.1133 7.50391 7.5 15.1094 7.5 24.5 L 7.5 69.3906 L 20.6289 69.3906 C 33.0586 69.3906 43.1367 79.4688 43.1367 91.8984 C 43.1367 104.324 33.0586 114.402 20.6289 114.402 L 7.5 114.402 L 7.5 151.91 L 20.6289 151.91 C 33.0586 151.91 43.1367 161.988 43.1367 174.418 C 43.1367 186.848 33.0586 196.922 20.6289 196.922 L 7.5 196.922 L 7.5 234.434 L 20.6289 234.434 C 33.0586 234.434 43.1367 244.508 43.1367 256.938 C 43.1367 269.367 33.0586 279.441 20.6289 279.441 L 7.5 279.441 L 7.5 316.953 L 20.6289 316.953 C 33.0586 316.953 43.1367 327.027 43.1367 339.457 C 43.1367 351.887 33.0586 361.961 20.6289 361.961 L 7.5 361.961 L 7.5 399.473 L 20.6289 399.473 C 33.0586 399.473 43.1367 409.547 43.1367 421.977 C 43.1367 434.406 33.0586 444.484 20.6289 444.484 L 7.5 444.484 L 7.5 485.625 C 7.5 495.012 15.1133 502.621 24.5 502.621 L 68.4531 502.621 Z" fill="#FFFFFF"/><path d=" M 82.5195 84.3945 L 427.605 84.3945 L 427.605 429.48 L 82.5195 429.48 Z" fill="#54A7E9"/><g fill="#C4C4CA"><path d=" M 7.5 9.37891 L 28.1328 9.37891 L 28.1328 71.2695 L 7.5 71.2695 Z"/><path d=" M 7.5 112.527 L 28.1328 112.527 L 28.1328 151.914 L 7.5 151.914 Z"/><path d=" M 7.5 195.527 L 28.1328 195.527 L 28.1328 234.914 L 7.5 234.914 Z"/><path d=" M 7.5 278.527 L 28.1328 278.527 L 28.1328 317.914 L 7.5 317.914 Z"/><path d=" M 7.5 361.531 L 28.1328 361.531 L 28.1328 400.914 L 7.5 400.914 Z"/><path d=" M 7.5 444.531 L 28.1328 444.531 L 28.1328 496.996 L 7.5 496.996 Z"/></g><path d=" M 427.605 429.48 L 82.5195 429.48 L 86.2695 328.207 L 429.48 148.16 Z" fill="#FEF0BD"/><path d=" M 487.5 510.125 L 436.043 510.125 L 436.043 489.496 C 436.043 484.641 430.059 477.305 421.039 477.305 C 412.02 477.305 406.035 484.641 406.035 489.496 L 406.035 510.125 L 353.523 510.125 L 353.523 489.496 C 353.523 484.641 347.539 477.305 338.52 477.305 C 329.5 477.305 323.516 484.641 323.516 489.496 L 323.516 510.125 L 271.004 510.125 L 271.004 489.496 C 271.004 484.641 265.02 477.305 256 477.305 C 247.727 477.305 240.996 484.035 240.996 492.309 L 240.996 510.125 L 188.484 510.125 L 188.484 492.309 C 188.484 484.035 181.754 477.305 173.48 477.305 C 165.207 477.305 158.477 484.035 158.477 492.309 L 158.477 510.125 L 105.961 510.125 L 105.961 492.309 C 105.961 484.035 99.2305 477.305 90.9609 477.305 C 82.6875 477.305 75.957 484.035 75.957 492.309 L 75.957 510.125 L 24.5 510.125 C 10.9883 510.125 -8.52651e-14 499.133 -8.52651e-14 485.625 L -8.52651e-14 436.98 L 20.6289 436.98 C 28.9023 436.98 35.6328 430.25 35.6328 421.98 C 35.6328 413.707 28.9023 406.977 20.6289 406.977 L -8.52651e-14 406.977 L -8.52651e-14 354.461 L 20.6289 354.461 C 28.9023 354.461 35.6328 347.73 35.6328 339.457 C 35.6328 331.184 28.9023 324.453 20.6289 324.453 L -8.52651e-14 324.453 L -8.52651e-14 271.941 L 20.6289 271.941 C 28.9023 271.941 35.6328 265.211 35.6328 256.938 C 35.6328 248.664 28.9023 241.934 20.6289 241.934 L -8.52651e-14 241.934 L -8.52651e-14 189.422 L 20.6289 189.422 C 28.9023 189.422 35.6328 182.691 35.6328 174.418 C 35.6328 166.145 28.9023 159.414 20.6289 159.414 L -8.52651e-14 159.414 L -8.52651e-14 106.902 L 20.6289 106.902 C 28.9023 106.902 35.6328 100.172 35.6328 91.8984 C 35.6328 83.625 28.9023 76.8945 20.6289 76.8945 L -8.52651e-14 76.8945 L -8.52651e-14 24.5 C -8.52651e-14 10.9883 10.9883 -1.13687e-13 24.5 -1.13687e-13 L 75.957 -1.13687e-13 L 75.957 21.5664 C 75.957 29.8398 82.6875 36.5703 90.9609 36.5703 C 99.2344 36.5703 105.965 29.8398 105.965 21.5664 L 105.965 -1.13687e-13 L 158.477 -1.13687e-13 L 158.477 21.5664 C 158.477 29.8398 165.207 36.5703 173.48 36.5703 C 181.754 36.5703 188.484 29.8398 188.484 21.5664 L 188.484 -1.13687e-13 L 240.996 -1.13687e-13 L 240.996 21.5664 C 240.996 29.8398 247.727 36.5703 256 36.5703 C 264.273 36.5703 271.004 29.8398 271.004 21.5664 L 271.004 -1.13687e-13 L 323.516 -1.13687e-13 L 323.516 21.5664 C 323.516 29.8398 330.246 36.5703 338.52 36.5703 C 346.793 36.5703 353.523 29.8398 353.523 21.5664 L 353.523 -1.13687e-13 L 406.039 -1.13687e-13 L 406.039 21.5664 C 406.039 29.8398 412.77 36.5703 421.039 36.5703 C 429.313 36.5703 436.043 29.8398 436.043 21.5664 L 436.043 -1.13687e-13 L 487.504 -1.13687e-13 C 501.012 -1.13687e-13 512 10.9883 512 24.5 L 512 76.8945 L 491.371 76.8945 C 483.098 76.8945 476.367 83.625 476.367 91.8984 C 476.367 100.172 483.098 106.902 491.371 106.902 L 512 106.902 L 512 159.414 L 491.371 159.414 C 483.098 159.414 476.367 166.145 476.367 174.418 C 476.367 182.691 483.098 189.422 491.371 189.422 L 512 189.422 L 512 241.934 L 491.371 241.934 C 483.098 241.934 476.367 248.664 476.367 256.938 C 476.367 265.211 483.098 271.941 491.371 271.941 L 512 271.941 L 512 324.453 L 491.371 324.453 C 483.098 324.453 476.367 331.184 476.367 339.457 C 476.367 347.73 483.098 354.461 491.371 354.461 L 512 354.461 L 512 406.977 L 491.371 406.977 C 483.098 406.977 476.367 413.707 476.367 421.98 C 476.367 430.25 483.098 436.98 491.371 436.98 L 512 436.98 L 512 485.625 C 512 499.133 501.012 510.125 487.5 510.125 Z M 451.047 495.121 L 487.504 495.121 C 492.738 495.121 496.996 490.863 496.996 485.625 L 496.996 451.984 L 491.371 451.984 C 474.824 451.984 461.363 438.523 461.363 421.98 C 461.363 405.434 474.824 391.973 491.371 391.973 L 496.996 391.973 L 496.996 369.465 L 491.371 369.465 C 474.824 369.465 461.363 356.004 461.363 339.457 C 461.363 322.914 474.824 309.449 491.371 309.449 L 496.996 309.449 L 496.996 286.945 L 491.371 286.945 C 474.824 286.945 461.363 273.484 461.363 256.938 C 461.363 240.391 474.824 226.93 491.371 226.93 L 496.996 226.93 L 496.996 204.426 L 491.371 204.426 C 474.824 204.426 461.363 190.965 461.363 174.418 C 461.363 157.871 474.824 144.41 491.371 144.41 L 496.996 144.41 L 496.996 121.906 L 491.371 121.906 C 474.824 121.906 461.363 108.445 461.363 91.8984 C 461.363 75.3516 474.824 61.8906 491.371 61.8906 L 496.996 61.8906 L 496.996 24.5 C 496.996 19.2617 492.738 15.0039 487.504 15.0039 L 451.047 15.0039 L 451.047 21.5664 C 451.047 38.1133 437.586 51.5742 421.039 51.5742 C 404.496 51.5742 391.035 38.1133 391.035 21.5664 L 391.035 15.0039 L 368.527 15.0039 L 368.527 21.5664 C 368.527 38.1133 355.066 51.5742 338.52 51.5742 C 321.973 51.5742 308.512 38.1133 308.512 21.5664 L 308.512 15.0039 L 286.008 15.0039 L 286.008 21.5664 C 286.008 38.1133 272.547 51.5742 256 51.5742 C 239.453 51.5742 225.992 38.1133 225.992 21.5664 L 225.992 15.0039 L 203.488 15.0039 L 203.488 21.5664 C 203.488 38.1133 190.027 51.5742 173.48 51.5742 C 156.934 51.5742 143.473 38.1133 143.473 21.5664 L 143.473 15.0039 L 120.969 15.0039 L 120.969 21.5664 C 120.969 38.1133 107.508 51.5742 90.9609 51.5742 C 74.4141 51.5742 60.9531 38.1133 60.9531 21.5664 L 60.9531 15.0039 L 24.5 15.0039 C 19.2656 15.0039 15.0039 19.2617 15.0039 24.5 L 15.0039 61.8906 L 20.6289 61.8906 C 37.1758 61.8906 50.6367 75.3516 50.6367 91.8984 C 50.6367 108.441 37.1758 121.902 20.6289 121.902 L 15.0039 121.902 L 15.0039 144.41 L 20.6289 144.41 C 37.1758 144.41 50.6367 157.871 50.6367 174.418 C 50.6367 190.965 37.1758 204.426 20.6289 204.426 L 15.0039 204.426 L 15.0039 226.93 L 20.6289 226.93 C 37.1758 226.93 50.6367 240.391 50.6367 256.938 C 50.6367 273.484 37.1758 286.945 20.6289 286.945 L 15.0039 286.945 L 15.0039 309.449 L 20.6289 309.449 C 37.1758 309.449 50.6367 322.91 50.6367 339.457 C 50.6367 356.004 37.1758 369.465 20.6289 369.465 L 15.0039 369.465 L 15.0039 391.969 L 20.6289 391.969 C 37.1758 391.969 50.6367 405.43 50.6367 421.977 C 50.6367 438.523 37.1758 451.984 20.6289 451.984 L 15.0039 451.984 L 15.0039 485.625 C 15.0039 490.859 19.2617 495.121 24.5 495.121 L 60.9531 495.121 L 60.9531 492.309 C 60.9531 475.762 74.4141 462.301 90.9609 462.301 C 107.508 462.301 120.969 475.762 120.969 492.309 L 120.969 495.121 L 143.473 495.121 L 143.473 492.309 C 143.473 475.762 156.934 462.301 173.48 462.301 C 190.027 462.301 203.488 475.762 203.488 492.309 L 203.488 495.121 L 225.992 495.121 L 225.992 492.309 C 225.992 475.762 239.453 462.301 256 462.301 C 271.984 462.301 286.008 475.008 286.008 489.492 L 286.008 495.121 L 308.512 495.121 L 308.512 489.492 C 308.512 475.008 322.535 462.301 338.52 462.301 C 354.504 462.301 368.527 475.008 368.527 489.492 L 368.527 495.121 L 391.035 495.121 L 391.035 489.492 C 391.035 475.008 405.055 462.301 421.039 462.301 C 437.027 462.301 451.047 475.008 451.047 489.492 Z"/><path d=" M 277.566 271.941 L 382.594 271.941 L 382.594 376.969 L 277.566 376.969 Z" fill="#54A7E9"/><path d=" M 112.527 114.402 L 112.527 204.426 L 202.551 114.402 Z" fill="#FFFFFF"/><path d=" M 337.582 264.441 C 337.582 305.871 303.996 339.457 262.563 339.457 C 221.133 339.457 187.547 305.871 187.547 264.441 C 187.547 223.008 221.133 189.422 262.563 189.422 C 303.996 189.422 337.582 223.008 337.582 264.441 Z" fill="#FFFFFF"/><path d=" M 314.234 210.051 C 328.613 223.719 337.582 243.031 337.582 264.438 C 337.582 305.871 303.996 339.457 262.563 339.457 C 224.309 339.457 192.742 310.824 188.125 273.816" fill="#FE3934"/><path d=" M 337.582 271.941 L 277.566 271.941 L 277.566 337.582 C 277.566 337.582 311.324 330.082 320.703 313.203 C 330.082 296.324 337.582 271.941 337.582 271.941 Z" fill="#FFFFFF"/><path d=" M 75.0195 76.8945 L 75.0195 436.98 L 435.105 436.98 L 435.105 76.8945 Z M 420.102 91.8984 L 420.102 146.375 L 314.902 200.691 C 300.648 188.969 282.414 181.918 262.563 181.918 C 217.063 181.918 180.043 218.938 180.043 264.441 C 180.043 266.379 180.137 268.297 180.27 270.203 L 90.0234 316.797 L 90.0234 91.8984 Z M 285.07 343.813 C 314.961 335.328 337.98 310.391 343.691 279.445 L 375.09 279.445 L 375.09 369.465 L 285.07 369.465 Z M 285.07 328.086 L 285.07 279.441 L 328.379 279.441 C 323.219 302.086 306.66 320.426 285.07 328.086 Z M 270.066 264.441 L 270.066 331.531 C 267.602 331.805 265.102 331.957 262.563 331.957 C 230.219 331.957 203.125 309.086 196.57 278.672 L 312.352 218.891 C 323.355 230.91 330.082 246.902 330.082 264.441 Z M 195.094 262.547 C 196.105 226.191 225.969 196.922 262.563 196.922 C 276.441 196.922 289.348 201.133 300.086 208.34 Z M 90.0234 421.98 L 90.0234 333.684 L 182.852 285.754 C 192.273 320.957 224.434 346.961 262.563 346.961 C 265.094 346.961 267.594 346.828 270.066 346.602 L 270.066 384.469 L 390.094 384.469 L 390.094 264.438 L 345.086 264.438 C 345.086 244.453 337.938 226.105 326.07 211.809 L 420.102 163.258 L 420.102 421.977 L 90.0234 421.977 Z"/><path d=" M 105.027 222.535 L 105.027 106.902 L 220.66 106.902 Z M 120.031 121.906 L 120.031 186.316 L 184.438 121.906 Z"/><path d=" M 265.918 151.121 L 259.211 137.699 L 271.148 131.73 C 284.547 125.031 300.207 124.383 314.113 129.941 C 324.043 133.918 335.227 133.449 344.793 128.668 L 356.734 122.695 L 363.445 136.117 L 351.504 142.086 C 338.105 148.785 322.449 149.438 308.539 143.875 C 298.609 139.902 287.426 140.367 277.859 145.148 Z" fill="#FFFFFF"/><path d=" M 105.027 346.961 L 120.031 346.961 L 120.031 406.977 L 105.027 406.977 Z"/><path d=" M 135.031 346.961 L 150.035 346.961 L 150.035 406.977 L 135.031 406.977 Z"/><path d=" M 165.039 346.961 L 180.043 346.961 L 180.043 406.977 L 165.039 406.977 Z"/></svg>