<svg version="1.1" viewBox="0 0 512.002 512.002" xmlns="http://www.w3.org/2000/svg" xmlns:xlink="http://www.w3.org/1999/xlink" id="Capa_1" overflow="hidden"><linearGradient x1="420.519" y1="416.804" x2="496.878" y2="340.444" gradientUnits="userSpaceOnUse" id="SVGID_1_" gradientTransform="matrix(1.0039,0,0,-1.0039,0.1922,516.563)"><stop offset="0" stop-color="#FFE7A5"/><stop offset="0.175" stop-color="#FFDF96"/><stop offset="0.721" stop-color="#FFC86C"/><stop offset="1" stop-color="#FFBF5C"/></linearGradient><linearGradient x1="413.854" y1="418.589" x2="390.374" y2="395.108" gradientUnits="userSpaceOnUse" id="SVGID_2_" gradientTransform="matrix(1.0039,0,0,-1.0039,0.1922,516.563)"><stop offset="0" stop-color="#FFBF5C" stop-opacity="0"/><stop offset="1" stop-color="#FFBF5C"/></linearGradient><linearGradient x1="391.223" y1="395.96" x2="445.933" y2="450.667" gradientUnits="userSpaceOnUse" id="SVGID_3_" gradientTransform="matrix(1.0039,0,0,-1.0039,0.1922,516.563)"><stop offset="0" stop-color="#FFE7A5"/><stop offset="0.175" stop-color="#FFDF96"/><stop offset="0.721" stop-color="#FFC86C"/><stop offset="1" stop-color="#FFBF5C"/></linearGradient><linearGradient x1="448.038" y1="387.714" x2="421.708" y2="411.624" gradientUnits="userSpaceOnUse" id="SVGID_4_" gradientTransform="matrix(1.0039,0,0,-1.0039,0.1922,516.563)"><stop offset="0" stop-color="#FF931E" stop-opacity="0"/><stop offset="1" stop-color="#FF5D00"/></linearGradient><linearGradient x1="254.173" y1="244.549" x2="279.163" y2="221.889" gradientUnits="userSpaceOnUse" id="SVGID_5_" gradientTransform="matrix(1.0039,0,0,-1.0039,0.1922,516.563)"><stop offset="0" stop-color="#654E48"/><stop offset="1" stop-color="#503837"/></linearGradient><linearGradient x1="85.4444" y1="63.0715" x2="108.554" y2="42.1115" gradientUnits="userSpaceOnUse" id="SVGID_6_" gradientTransform="matrix(1.0039,0,0,-1.0039,0.1922,516.563)"><stop offset="0" stop-color="#FFE7A5"/><stop offset="0.216" stop-color="#FFE29C"/><stop offset="0.577" stop-color="#FFD482"/><stop offset="1" stop-color="#FFBF5C"/></linearGradient><linearGradient x1="112.591" y1="92.9975" x2="135.701" y2="72.0474" gradientUnits="userSpaceOnUse" id="SVGID_7_" gradientTransform="matrix(1.0039,0,0,-1.0039,0.1922,516.563)"><stop offset="0" stop-color="#FFE7A5"/><stop offset="0.216" stop-color="#FFE29C"/><stop offset="0.577" stop-color="#FFD482"/><stop offset="1" stop-color="#FFBF5C"/></linearGradient><linearGradient x1="246.899" y1="251.095" x2="224.239" y2="276.085" gradientUnits="userSpaceOnUse" id="SVGID_8_" gradientTransform="matrix(1.0039,0,0,-1.0039,0.1922,516.563)"><stop offset="0" stop-color="#503837"/><stop offset="1" stop-color="#654E48"/></linearGradient><linearGradient x1="63.9433" y1="83.9974" x2="42.9833" y2="107.107" gradientUnits="userSpaceOnUse" id="SVGID_9_" gradientTransform="matrix(1.0039,0,0,-1.0039,0.1922,516.563)"><stop offset="0" stop-color="#FFBF5C"/><stop offset="0.423" stop-color="#FFD482"/><stop offset="0.784" stop-color="#FFE29C"/><stop offset="1" stop-color="#FFE7A5"/></linearGradient><linearGradient x1="91.519" y1="113.733" x2="70.569" y2="136.843" gradientUnits="userSpaceOnUse" id="SVGID_10_" gradientTransform="matrix(1.0039,0,0,-1.0039,0.1922,516.563)"><stop offset="0" stop-color="#FFBF5C"/><stop offset="0.423" stop-color="#FFD482"/><stop offset="0.784" stop-color="#FFE29C"/><stop offset="1" stop-color="#FFE7A5"/></linearGradient><path d=" M 500.838 107.036 C 493.794 99.992 485.055 94.844 475.43 92.279 C 463.217 89.025 450.906 82.036 440.436 71.565 C 429.966 61.095 422.977 48.783 419.722 36.571 C 417.157 26.945 412.01 18.206 404.965 11.163 L 398.046 4.244 C 392.388 -1.414 383.215 -1.414 377.558 4.244 L 328.48 53.323 C 322.822 58.981 322.822 68.154 328.48 73.811 L 335.399 80.73 C 342.443 87.774 351.183 92.922 360.808 95.487 C 373.021 98.741 385.332 105.73 395.802 116.201 C 406.272 126.671 413.261 138.983 416.516 151.195 C 419.081 160.821 424.228 169.56 431.273 176.604 L 438.192 183.523 C 443.85 189.181 453.023 189.181 458.68 183.523 L 507.759 134.444 C 513.417 128.786 513.417 119.613 507.759 113.956 L 500.838 107.036 Z" fill="url(#SVGID_1_)"/><path d=" M 356.62 25.182 L 328.479 53.323 C 322.821 58.981 322.821 68.154 328.479 73.811 L 335.398 80.73 C 342.442 87.774 351.182 92.922 360.807 95.487 C 373.02 98.741 385.331 105.73 395.801 116.201 C 406.271 126.671 413.26 138.983 416.515 151.195 C 419.08 160.821 424.227 169.56 431.272 176.604 L 438.191 183.523 C 443.849 189.181 453.021 189.181 458.679 183.523 L 486.82 155.382 L 356.62 25.182 Z" fill="url(#SVGID_2_)"/><path d=" M 408.397 49.108 L 462.893 103.604 C 469.309 110.02 469.309 120.422 462.893 126.838 L 451.072 138.659 C 444.656 145.075 434.254 145.075 427.838 138.659 L 373.342 84.163 C 366.926 77.747 366.926 67.345 373.342 60.929 L 385.163 49.108 C 391.58 42.692 401.981 42.692 408.397 49.108 Z" fill="url(#SVGID_3_)"/><path d=" M 500.838 107.036 C 493.794 99.992 485.055 94.844 475.43 92.279 C 465.09 89.524 454.683 84.081 445.379 76.125 L 400.361 121.143 C 408.317 130.447 413.76 140.854 416.515 151.194 C 419.08 160.82 424.227 169.559 431.272 176.603 L 434.426 179.757 L 503.993 110.19 L 500.838 107.036 Z" fill="url(#SVGID_4_)"/><path d=" M 54.172 506.718 L 54.172 506.718 C 45.691 499.027 45.209 485.861 53.105 477.57 L 462.217 52.514 C 465.624 48.937 471.262 48.73 474.923 52.048 L 474.923 52.048 C 478.582 55.367 478.927 60.999 475.698 64.739 L 83.284 504.939 C 75.803 513.605 62.652 514.409 54.172 506.718 Z" fill="url(#SVGID_5_)"/><path d=" M 101.026 484.387 L 71.83 457.91 L 89.704 439.141 L 117.964 464.768 Z" fill="url(#SVGID_6_)"/><path d=" M 127.542 453.671 L 99.815 428.526 L 117.689 409.757 L 144.479 434.052 Z" fill="url(#SVGID_7_)"/><path d=" M 5.283 457.829 L 5.283 457.829 C 12.974 466.31 26.14 466.792 34.431 458.896 L 459.487 49.783 C 463.065 46.376 463.271 40.738 459.953 37.077 L 459.953 37.077 C 456.634 33.418 451.002 33.073 447.262 36.302 L 7.062 428.717 C -1.604 436.198 -2.408 449.349 5.283 457.829 Z" fill="url(#SVGID_8_)"/><path d=" M 27.614 410.975 L 54.091 440.171 L 72.861 422.297 L 47.233 394.037 Z" fill="url(#SVGID_9_)"/><path d=" M 58.33 384.459 L 83.475 412.186 L 102.244 394.312 L 77.949 367.522 Z" fill="url(#SVGID_10_)"/><g></g><g></g><g></g><g></g><g></g><g></g><g></g><g></g><g></g><g></g><g></g><g></g><g></g><g></g><g></g></svg>