<svg version="1.1" viewBox="0 0 512.001 512.001" xmlns="http://www.w3.org/2000/svg" xmlns:xlink="http://www.w3.org/1999/xlink" id="Capa_1" overflow="hidden"><path d=" M 374.207 181.196 L 398.525 115.161 L 450.852 167.487 Z" fill="#BEBEBE"/><g><path d=" M 391.228 288.729 L 446.887 233.52 C 466.121 214.441 466.185 183.362 447.028 164.206 L 447.028 164.206 L 375.745 177.792 L 343.39 249.406 L 391.228 288.729 Z" fill="#F0F0FA"/><path d=" M 341.148 254.368 L 401.442 120.915 L 390.368 109.841 C 379.711 99.184 363.954 95.451 349.649 100.192 L 306.922 114.352 C 299.794 116.715 291.943 114.854 286.632 109.544 L 257.274 80.186 L 211.938 125.522 L 260.362 173.946 L 341.148 254.368 Z" fill="#F0F0FA"/></g><rect x="207.507" y="71.013" width="31.523" height="41.376" fill="#FFB487" transform="matrix(0.7071,0.7071,-0.7071,0.7071,130.236,-131.016)"/><g><path d=" M 209.7 34.72 L 220.342 45.362 C 227.79 52.81 227.79 64.886 220.342 72.334 L 203.895 88.781 C 196.447 96.229 184.371 96.229 176.923 88.781 L 166.281 78.139 C 158.833 70.691 158.833 58.615 166.281 51.167 L 182.728 34.72 C 190.176 27.272 202.252 27.272 209.7 34.72 Z" fill="#FFCDAC"/><path d=" M 343.961 254.023 L 352.577 245.408 C 360.025 237.96 372.101 237.96 379.549 245.408 L 393.656 259.515 C 401.104 266.963 401.104 279.039 393.656 286.487 L 385.041 295.102 C 377.593 302.55 365.517 302.55 358.069 295.102 L 343.962 280.995 C 336.513 273.546 336.513 261.471 343.961 254.023 Z" fill="#FFCDAC"/></g><path d=" M 249.03 288.717 L 249.03 439.702 L 300.003 439.702 L 341.148 254.368 L 269.135 182.721 Z" fill="#D7D7E6"/><path d=" M 420.913 147.019 L 420.913 147.019 C 403.665 129.771 403.665 101.807 420.913 84.559 L 426.591 78.881 C 443.839 61.633 471.803 61.633 489.051 78.881 L 489.051 78.881 C 506.299 96.129 506.299 124.093 489.051 141.341 L 483.373 147.019 C 466.125 164.267 438.161 164.267 420.913 147.019 Z" fill="#FFCDAC"/><g><path d=" M 349.343 482.853 L 264.087 482.853 C 255.772 482.853 249.03 476.112 249.03 467.796 L 249.03 439.701 L 309.192 439.701 C 331.367 439.701 349.343 457.678 349.343 479.852 L 349.343 482.853 Z" fill="#BEBEBE"/><path d=" M 16.046 58.396 L 16.046 58.396 C 22.791 51.651 33.3 50.45 41.393 55.501 L 87.09 84.024 L 57.337 113.778 L 19.687 90.278 C 8.499 83.296 6.721 67.721 16.046 58.396 Z" fill="#BEBEBE"/></g><path d=" M 206.409 222.111 L 55.471 115.643 L 87.822 83.291 L 269.135 182.721 Z" fill="#D7D7E6"/><path d=" M 193.311 230.336 L 293.604 330.12 L 341.148 254.368 L 269.135 182.721 Z" fill="#F0F0FA"/><path d=" M 496.15 71.783 C 475.015 50.649 440.628 50.649 419.493 71.783 L 413.815 77.461 C 406.144 85.132 401.272 94.551 399.17 104.448 L 397.468 102.746 C 384.044 89.322 364.512 84.693 346.493 90.666 L 303.766 104.825 C 300.22 106 296.375 105.09 293.732 102.447 L 264.374 73.09 C 260.454 69.17 254.098 69.17 250.177 73.09 L 249.139 74.128 L 235.874 60.863 C 236.432 52.752 233.626 44.451 227.439 38.265 L 216.797 27.623 C 205.446 16.273 186.98 16.273 175.629 27.623 L 159.182 44.07 C 147.832 55.42 147.832 73.888 159.182 85.238 L 169.825 95.881 C 175.5 101.555 182.955 104.393 190.409 104.393 C 191.082 104.393 191.753 104.362 192.424 104.316 L 205.689 117.581 L 204.843 118.427 C 200.923 122.347 200.923 128.703 204.843 132.624 L 212.358 140.139 L 92.649 74.49 C 91.458 73.837 90.179 73.45 88.887 73.313 L 46.707 46.988 C 34.581 39.419 19.055 41.192 8.948 51.299 C 2.327 57.92 -0.862 67.053 0.201 76.355 C 1.264 85.657 6.428 93.836 14.371 98.794 L 45.839 118.435 C 46.464 120.593 47.795 122.502 49.658 123.825 L 88.638 151.515 C 93.157 154.725 99.423 153.664 102.634 149.145 C 105.844 144.626 104.784 138.359 100.264 135.149 L 70.97 114.34 L 89.597 95.713 L 249.327 183.306 L 206.656 210.103 L 154.748 174.447 C 150.178 171.308 143.93 172.468 140.79 177.038 C 137.651 181.607 138.811 187.857 143.381 190.996 L 188.133 221.737 L 187.973 221.837 C 185.382 223.464 183.675 226.184 183.336 229.225 C 182.997 232.266 184.064 235.295 186.232 237.453 L 238.993 289.946 L 238.993 439.703 L 238.993 467.798 C 238.993 481.635 250.25 492.893 264.088 492.893 L 349.345 492.893 C 354.889 492.893 359.383 488.399 359.383 482.855 L 359.383 479.855 C 359.383 453.289 338.632 431.49 312.489 429.786 L 342.659 293.889 L 350.971 302.201 C 356.646 307.875 364.1 310.713 371.555 310.713 C 379.01 310.713 386.464 307.875 392.139 302.201 L 400.755 293.585 C 401.328 293.012 401.868 292.415 402.387 291.803 L 453.958 240.647 C 465.169 229.526 471.362 214.705 471.394 198.913 C 471.416 188.153 468.57 177.837 463.227 168.82 C 473.218 166.748 482.736 161.856 490.474 154.118 L 496.152 148.44 C 517.284 127.305 517.284 92.916 496.15 71.783 Z M 226.746 80.126 L 234.84 88.219 L 219.78 103.279 L 211.685 95.184 L 226.746 80.126 Z M 173.379 71.041 C 169.857 67.519 169.857 61.787 173.379 58.265 L 189.826 41.818 C 191.587 40.056 193.9 39.176 196.214 39.176 C 198.528 39.176 200.84 40.056 202.602 41.818 L 213.245 52.461 C 216.767 55.983 216.767 61.715 213.245 65.237 L 196.798 81.684 C 193.276 85.207 187.544 85.207 184.022 81.684 L 173.379 71.041 Z M 403.751 140.185 C 406.28 145.211 409.625 149.927 413.815 154.117 C 415.675 155.977 417.642 157.664 419.69 159.197 L 392.85 164.312 L 403.751 140.185 Z M 279.535 116.643 C 287.578 124.686 299.282 127.461 310.08 123.881 L 352.807 109.721 C 363.574 106.152 375.249 108.918 383.27 116.94 L 389.437 123.106 L 337.962 237.038 L 280.366 179.734 L 321.052 170.58 C 326.46 169.363 329.858 163.992 328.643 158.584 C 327.425 153.175 322.054 149.778 316.647 150.993 L 263.553 162.938 L 226.136 125.521 L 257.276 94.381 L 279.535 116.643 Z M 20.147 74.077 C 19.784 70.891 20.876 67.762 23.143 65.495 C 25.171 63.467 27.834 62.419 30.528 62.419 C 32.434 62.419 34.355 62.944 36.076 64.018 L 71.063 85.854 L 55.881 101.036 L 25 81.763 C 22.28 80.065 20.511 77.263 20.147 74.077 Z M 267.713 195.466 L 328.381 255.827 L 311.997 281.931 L 287.762 257.696 C 283.842 253.776 277.486 253.776 273.565 257.696 C 269.645 261.616 269.645 267.972 273.565 271.893 L 301.048 299.376 L 291.778 314.147 L 209.338 232.126 L 267.713 195.466 Z M 286.524 337.236 C 288.416 339.118 290.966 340.158 293.604 340.158 C 293.982 340.158 294.363 340.137 294.743 340.094 C 297.774 339.748 300.484 338.041 302.106 335.457 L 318.751 308.936 L 291.949 429.664 L 259.067 429.664 L 259.067 309.918 L 286.524 337.236 Z M 338.475 472.815 L 264.087 472.815 C 261.32 472.815 259.068 470.564 259.068 467.796 L 259.068 449.739 L 300.003 449.739 L 309.192 449.739 C 323.374 449.739 335.298 459.593 338.475 472.815 Z M 365.166 288.003 L 351.059 273.896 C 349.388 272.226 348.519 270.058 348.434 267.864 L 349.443 263.319 C 349.857 262.528 350.395 261.785 351.059 261.121 L 351.059 261.121 L 359.673 252.506 C 361.435 250.744 363.748 249.864 366.061 249.864 C 367.064 249.864 368.064 250.04 369.021 250.371 C 369.996 251.252 371.097 251.911 372.266 252.341 C 372.325 252.397 372.389 252.447 372.448 252.506 L 386.555 266.613 C 388.261 268.319 389.201 270.588 389.201 273.001 C 389.201 274.958 388.574 276.814 387.429 278.359 L 384.157 281.604 C 383.777 281.981 383.444 282.387 383.136 282.807 L 377.938 288.005 C 374.42 291.526 368.688 291.526 365.166 288.003 Z M 439.818 226.394 L 406.127 259.813 C 404.753 257.116 402.955 254.618 400.753 252.416 L 390.606 242.269 L 406.599 226.276 C 410.519 222.356 410.519 216 406.599 212.079 C 402.679 208.159 396.323 208.159 392.402 212.079 L 373.671 230.81 C 370.253 229.891 366.702 229.595 363.2 229.938 L 382.747 186.675 L 443.286 175.137 C 448.507 181.915 451.334 190.173 451.316 198.871 C 451.295 209.287 447.212 219.06 439.818 226.394 Z M 481.954 134.243 L 476.276 139.921 C 462.97 153.228 441.317 153.228 428.011 139.921 C 414.704 126.615 414.704 104.962 428.011 91.656 L 433.689 85.978 C 440.342 79.325 449.082 75.997 457.822 75.997 C 466.562 75.997 475.302 79.324 481.955 85.978 C 495.261 99.285 495.261 120.936 481.954 134.243 Z"/><path d=" M 129.631 170.039 C 131.498 168.182 132.572 165.592 132.572 162.942 C 132.572 160.302 131.498 157.712 129.631 155.845 C 127.764 153.978 125.174 152.904 122.534 152.904 C 119.894 152.904 117.304 153.978 115.437 155.845 C 113.57 157.712 112.496 160.302 112.496 162.942 C 112.496 165.592 113.57 168.182 115.437 170.039 C 117.304 171.916 119.894 172.98 122.534 172.98 C 125.174 172.98 127.764 171.916 129.631 170.039 Z"/><path d=" M 252.805 226.893 C 250.155 226.893 247.575 227.967 245.708 229.834 C 243.841 231.701 242.767 234.291 242.767 236.931 C 242.767 239.571 243.841 242.161 245.708 244.028 C 247.575 245.895 250.155 246.969 252.805 246.969 C 255.445 246.969 258.035 245.895 259.902 244.028 C 261.769 242.161 262.843 239.571 262.843 236.931 C 262.843 234.291 261.769 231.701 259.902 229.834 C 258.035 227.967 255.445 226.893 252.805 226.893 Z"/><path d=" M 143.227 222.852 L 61.257 165.031 C 56.727 161.836 50.464 162.918 47.268 167.447 C 44.072 171.977 45.154 178.24 49.684 181.436 L 131.654 239.257 C 133.413 240.498 135.431 241.094 137.431 241.094 C 140.583 241.094 143.688 239.612 145.642 236.841 C 148.839 232.31 147.758 226.047 143.227 222.852 Z"/><g></g><g></g><g></g><g></g><g></g><g></g><g></g><g></g><g></g><g></g><g></g><g></g><g></g><g></g><g></g></svg>