<svg version="1.1" width="618.667" height="618.667" viewBox="-48 0 464 464" xmlns="http://www.w3.org/2000/svg" xmlns:xlink="http://www.w3.org/1999/xlink" overflow="hidden"><path d=" M 368 248 C 368 376.129 285.602 464 184 464 C 82.3984 464 0 376.129 0 248 C 0 119.871 82.3984 0 184 0 C 285.602 0 368 119.871 368 248 Z" fill="#FFD782"/><path d=" M 354.465 158.313 C 346.641 132.43 335.184 107.789 320.434 85.1289 L 313.504 80 L 270.305 112 L 227.105 80 L 183.902 112 L 140.703 80 L 97.5039 112 L 54.3047 80 L 47.6797 84.9023 C 32.9023 107.602 21.4297 132.289 13.6016 158.215 L 54.3281 128 L 97.5273 160 L 140.727 128 L 183.93 160 L 227.129 128 L 270.328 160 L 313.527 128 Z" fill="#F98C96"/><path d=" M 354.465 158.313 L 313.504 128 L 270.305 160 L 227.105 128 L 183.902 160 L 140.703 128 L 97.5039 160 L 54.3047 128 L 13.5039 158.215 C 9.08984 172.652 5.74609 187.395 3.49609 202.32 L 11.1523 208 L 54.3516 176 L 97.5508 208 L 140.754 176 L 183.953 208 L 227.152 176 L 270.352 208 L 313.551 176 L 356.801 208 L 364.543 202.273 C 362.266 187.391 358.895 172.699 354.465 158.313 Z" fill="#DD3E46"/><path d=" M 356.754 312 L 313.504 280 L 270.305 312 L 227.105 280 L 183.902 312 L 140.703 280 L 97.5039 312 L 54.3047 280 L 11.1055 312 L 6.625 308.68 C 10.0156 323.746 14.8789 338.441 21.1523 352.551 L 54.3281 328 L 97.5273 360 L 140.727 328 L 183.93 360 L 227.129 328 L 270.328 360 L 313.527 328 L 346.793 352.617 C 353.086 338.465 357.969 323.727 361.367 308.617 Z" fill="#DD3E46"/><g fill="#FFF69A"><path d=" M 48 216 L 64 216 L 64 232 L 48 232 Z"/><path d=" M 88 256 L 104 256 L 104 272 L 88 272 Z"/><path d=" M 128 216 L 144 216 L 144 232 L 128 232 Z"/><path d=" M 176 256 L 192 256 L 192 272 L 176 272 Z"/><path d=" M 216 216 L 232 216 L 232 232 L 216 232 Z"/><path d=" M 264 256 L 280 256 L 280 272 L 264 272 Z"/><path d=" M 304 216 L 320 216 L 320 232 L 304 232 Z"/><path d=" M 184 440 L 184 424 C 184.602 424 244.84 423.305 281.863 378.879 L 294.152 389.121 C 252.23 439.426 186.77 440 184 440 Z"/><path d=" M 152 424 L 168 424 L 168 440 L 152 440 Z"/><path d=" M 101.656 77.6563 L 90.3438 66.3438 C 115.215 41.082 148.605 25.9883 184 24 L 184 40 C 152.902 42.1836 123.648 55.5586 101.656 77.6563 Z"/><path d=" M 200 24 L 216 24 L 216 40 L 200 40 Z"/></g></svg>