<svg version="1.1" width="661.333" height="661.333" viewBox="-16 0 496 496" xmlns="http://www.w3.org/2000/svg" xmlns:xlink="http://www.w3.org/1999/xlink" overflow="hidden"><path d=" M 152 408 L 80 408 L 88 376 L 160 376" fill="#C3AD94"/><path d=" M 84 408 L 152 408 L 156 392 L 88 392 Z" fill="#F0E2D5"/><path d=" M 192 296 L 120 296 L 128 264 L 208 264" fill="#C3AD94"/><path d=" M 120 296 L 192 296 L 200 280 L 128 280 Z" fill="#F0E2D5"/><path d=" M 232 184 L 160 184 L 176 152 L 248 152" fill="#C3AD94"/><path d=" M 168 184 L 232 184 L 240 168 L 176 168 Z" fill="#F0E2D5"/><path d=" M 232 296 L 304 488 L 344 488 L 252 242.664" fill="#EB9238"/><path d=" M 232 296 L 304 488 L 328 488 L 244 264 Z" fill="#F3A546"/><path d=" M 288 146.664 L 416 488 L 456 488 L 308 93.3359" fill="#EB9238"/><path d=" M 288 146.664 L 416 488 L 440 488 L 300 114.664 Z" fill="#F3A546"/><path d=" M 216 40 L 48 488 L 8 488 L 176 40" fill="#F4B23E"/><path d=" M 176 40 L 8 488 L 32 488 L 200 40 Z" fill="#F8CD6D"/><path d=" M 328 40 L 160 488 L 120 488 L 288 40" fill="#F4B23E"/><path d=" M 288 40 L 120 488 L 144 488 L 312 40 Z" fill="#F8CD6D"/><path d=" M 128 8 L 368 8 L 368 40 L 128 40 Z" fill="#AB927A"/><path d=" M 128 24 L 368 24 L 368 40 L 128 40 Z" fill="#C3AD94"/><path d=" M 160 496 L 120 496 C 117.375 496 114.918 494.711 113.422 492.559 C 111.926 490.398 111.59 487.648 112.512 485.191 L 280.512 37.1914 L 295.496 42.8086 L 131.543 480 L 154.445 480 L 320.504 37.1914 L 335.484 42.8086 L 167.484 490.809 C 166.316 493.93 163.336 496 160 496 Z"/><path d=" M 48 496 L 8 496 C 5.375 496 2.91797 494.711 1.42188 492.559 C -0.0742188 490.398 -0.410156 487.648 0.511719 485.191 L 168.512 37.1914 L 183.496 42.8086 L 19.543 480 L 42.4453 480 L 208.504 37.1914 L 223.484 42.8086 L 55.4844 490.809 C 54.3164 493.93 51.3359 496 48 496 Z"/><path d=" M 344 496 L 304 496 C 300.664 496 297.68 493.93 296.504 490.809 L 224.504 298.809 L 239.484 293.191 L 309.543 480 L 332.445 480 L 244.504 245.48 L 259.484 239.863 L 351.484 485.199 C 352.406 487.656 352.063 490.406 350.574 492.566 C 349.078 494.711 346.621 496 344 496 Z"/><path d=" M 456 496 L 416 496 C 412.664 496 409.68 493.93 408.504 490.809 L 280.504 149.473 L 295.484 143.855 L 421.543 480 L 444.445 480 L 300.504 96.1445 L 315.484 90.5273 L 463.484 485.191 C 464.406 487.648 464.063 490.398 462.574 492.559 C 461.078 494.711 458.621 496 456 496 Z"/><path d=" M 368 48 L 128 48 C 123.574 48 120 44.4141 120 40 L 120 8 C 120 3.58594 123.574 0 128 0 L 368 0 C 372.422 0 376 3.58594 376 8 L 376 40 C 376 44.4141 372.422 48 368 48 Z M 136 32 L 360 32 L 360 16 L 136 16 Z"/><path d=" M 176 144 L 248 144 L 248 160 L 176 160 Z"/><path d=" M 160 176 L 232 176 L 232 192 L 160 192 Z"/><path d=" M 136 256 L 208 256 L 208 272 L 136 272 Z"/><path d=" M 120 288 L 192 288 L 192 304 L 120 304 Z"/><path d=" M 88 368 L 160 368 L 160 384 L 88 384 Z"/><path d=" M 80 400 L 152 400 L 152 416 L 80 416 Z"/></svg>