<svg version="1.1" width="618.667" height="618.667" viewBox="0 0 464 464" xmlns="http://www.w3.org/2000/svg" xmlns:xlink="http://www.w3.org/1999/xlink" overflow="hidden"><path d=" M 432 344 C 409.91 344 392 326.09 392 304 C 392 326.09 374.09 344 352 344 C 329.91 344 312 326.09 312 304 C 312 326.09 294.09 344 272 344 C 249.91 344 232 326.09 232 304 C 232 326.09 214.09 344 192 344 C 169.91 344 152 326.09 152 304 C 152 326.09 134.09 344 112 344 C 89.9102 344 72 326.09 72 304 C 72 321.219 60.9844 336.504 44.6484 341.949 C 28.3164 347.391 10.332 341.773 0 328 L 0 448 C 0 456.836 7.16406 464 16 464 L 448 464 C 456.836 464 464 456.836 464 448 L 464 328 C 456.438 338.063 444.586 343.988 432 344 Z" fill="#A25BCD"/><path d=" M 464 432 L 464 448 C 463.973 456.824 456.824 463.973 448 464 L 16 464 C 7.17578 463.973 0.0273438 456.824 0 448 L 0 432 C 0.0273438 440.824 7.17578 447.973 16 448 L 448 448 C 456.824 447.973 463.973 440.824 464 432 Z" fill="#8249A4"/><g fill="#E3CEF0"><path d=" M 272 344 C 294.09 344 312 326.09 312 304 L 232 304 C 232 326.09 249.91 344 272 344 Z"/><path d=" M 352 344 C 374.09 344 392 326.09 392 304 L 312 304 C 312 326.09 329.91 344 352 344 Z"/><path d=" M 448 304 L 392 304 C 392 321.219 403.016 336.504 419.352 341.949 C 435.684 347.391 453.668 341.773 464 328 L 464 320 C 464 311.164 456.836 304 448 304 Z"/><path d=" M 32 344 C 54.0898 344 72 326.09 72 304 L 16 304 C 7.16406 304 0 311.164 0 320 L 0 328 C 7.5625 338.063 19.4141 343.988 32 344 Z"/><path d=" M 112 344 C 134.09 344 152 326.09 152 304 L 72 304 C 72 326.09 89.9102 344 112 344 Z"/><path d=" M 192 344 C 214.09 344 232 326.09 232 304 L 152 304 C 152 326.09 169.91 344 192 344 Z"/></g><path d=" M 152 304 L 416 304 L 416 208 C 409.094 213.223 400.66 216.035 392 216 C 369.91 216 352 198.09 352 176 C 352 198.09 334.09 216 312 216 C 289.91 216 272 198.09 272 176 C 272 198.09 254.09 216 232 216 C 209.91 216 192 198.09 192 176 C 192 198.09 174.09 216 152 216 C 129.91 216 112 198.09 112 176 C 112 198.09 94.0898 216 72 216 C 63.3398 216.035 54.9063 213.223 48 208 L 48 304 Z" fill="#F072AE"/><path d=" M 232 216 C 254.09 216 272 198.09 272 176 L 192 176 C 192 198.09 209.91 216 232 216 Z" fill="#FF3051"/><path d=" M 312 216 C 334.09 216 352 198.09 352 176 L 272 176 C 272 198.09 289.91 216 312 216 Z" fill="#FF3051"/><path d=" M 392 216 C 400.66 216.035 409.094 213.223 416 208 L 416 192 C 416 183.164 408.836 176 400 176 L 352 176 C 352 198.09 369.91 216 392 216 Z" fill="#FF3051"/><path d=" M 152 216 C 174.09 216 192 198.09 192 176 L 112 176 C 112 198.09 129.91 216 152 216 Z" fill="#FF3051"/><path d=" M 112 176 L 64 176 C 55.1641 176 48 183.164 48 192 L 48 208 C 54.9063 213.223 63.3398 216.035 72 216 C 94.0898 216 112 198.09 112 176 Z" fill="#FF3051"/><path d=" M 216 96 L 248 96 L 248 176 L 216 176 Z" fill="#FFCD00"/><path d=" M 232 72 C 245.254 72 256 61.2539 256 48 C 256 34.7422 232 0 232 0 C 232 0 208 34.7422 208 48 C 208 61.2539 218.746 72 232 72 Z" fill="#FF5023"/><path d=" M 304 96 L 336 96 L 336 176 L 304 176 Z" fill="#FFCD00"/><path d=" M 320 72 C 333.254 72 344 61.2539 344 48 C 344 34.7422 320 0 320 0 C 320 0 296 34.7422 296 48 C 296 61.2539 306.746 72 320 72 Z" fill="#FF5023"/><path d=" M 128 96 L 160 96 L 160 176 L 128 176 Z" fill="#FFCD00"/><path d=" M 120 48 C 120 61.2539 130.746 72 144 72 C 157.254 72 168 61.2539 168 48 C 168 34.7422 144 0 144 0 C 144 0 120 34.7422 120 48 Z" fill="#FF5023"/><path d=" M 48 288 L 416 288 L 416 304 L 48 304 Z" fill="#D8679D"/><path d=" M 128 96 L 160 96 L 160 104 L 128 104 Z" fill="#E5B800"/><path d=" M 216 96 L 248 96 L 248 104 L 216 104 Z" fill="#E5B800"/><path d=" M 304 96 L 336 96 L 336 104 L 304 104 Z" fill="#E5B800"/></svg>