<svg version="1.1" viewBox="0 0 512 512" xmlns="http://www.w3.org/2000/svg" xmlns:xlink="http://www.w3.org/1999/xlink" id="Layer_1" overflow="hidden"><g><path d=" M 107.355 414.28 C 156.903 414.28 156.903 392.259 206.452 392.259 C 256.001 392.259 256 414.28 305.438 414.28 C 355.096 414.28 355.096 392.259 404.645 392.259 C 454.194 392.259 454.193 414.28 503.742 414.28 L 503.742 485.85 L 8.258 485.85 L 8.258 392.259 C 57.806 392.258 57.806 414.28 107.355 414.28 Z" fill="#704324"/><path d=" M 503.742 199.57 L 503.742 304.172 C 454.194 304.172 454.194 282.15 404.645 282.15 C 355.096 282.15 355.097 304.172 305.438 304.172 C 256 304.172 256 282.15 206.451 282.15 C 156.902 282.15 156.903 304.172 107.354 304.172 C 57.805 304.172 57.806 282.15 8.257 282.15 L 8.257 199.57 L 503.742 199.57 Z" fill="#704324"/></g><path d=" M 305.438 304.172 C 355.096 304.172 355.096 282.15 404.645 282.15 C 454.194 282.15 454.193 304.172 503.742 304.172 L 503.742 414.28 C 454.194 414.28 454.194 392.259 404.645 392.259 C 355.096 392.259 355.097 414.28 305.438 414.28 C 256 414.28 256 392.259 206.451 392.259 C 156.902 392.259 156.903 414.28 107.354 414.28 C 57.805 414.28 57.806 392.259 8.257 392.259 L 8.257 282.151 C 57.805 282.151 57.805 304.173 107.354 304.173 C 156.903 304.173 156.902 282.151 206.451 282.151 C 256 282.151 256 304.172 305.438 304.172 Z" fill="#A26234"/><path d=" M 151.398 161.032 C 151.398 161.032 159.216 114.236 185.531 77.791 L 189.935 78.452 L 326.909 78.452 C 352.894 114.787 360.602 161.033 360.602 161.033 C 360.602 161.033 368.42 114.237 394.735 77.792 L 399.139 78.453 L 503.741 78.453 L 503.741 199.57 L 8.258 199.57 L 8.258 78.452 L 117.705 78.452 C 143.69 114.787 151.398 161.032 151.398 161.032 Z" fill="#A58763"/><g><path d=" M 305.438 414.28 C 256 414.28 256 392.259 206.451 392.259 C 156.902 392.259 156.903 414.28 107.354 414.28 C 57.805 414.28 57.806 392.259 8.257 392.259 L 8.257 485.85 L 503.741 485.85 L 503.741 414.28 C 454.193 414.28 454.193 392.259 404.644 392.259 C 355.095 392.259 355.097 414.28 305.438 414.28 Z" fill="#61391B"/><path d=" M 206.452 282.151 C 238.876 282.151 250.127 291.562 267.855 298.08 C 235.567 270.075 208.01 236.807 186.486 199.57 L 8.258 199.57 L 8.258 282.151 C 57.806 282.151 57.806 304.173 107.355 304.173 C 156.904 304.173 156.903 282.151 206.452 282.151 Z" fill="#61391B"/></g><path d=" M 267.854 298.08 C 250.127 291.562 238.876 282.151 206.451 282.151 C 156.903 282.151 156.903 304.173 107.354 304.173 C 57.805 304.173 57.806 282.151 8.257 282.151 L 8.257 392.259 C 57.805 392.259 57.805 414.28 107.354 414.28 C 156.903 414.28 156.902 392.259 206.451 392.259 C 256 392.259 256 414.28 305.438 414.28 C 355.096 414.28 355.096 392.259 404.645 392.259 C 454.194 392.259 454.193 414.28 503.742 414.28 L 503.742 391.842 C 413.605 388.045 331.581 353.35 267.854 298.08 Z" fill="#8E562B"/><path d=" M 157.399 136.948 C 153.076 151.129 151.398 161.032 151.398 161.032 C 151.398 161.032 143.69 114.787 117.705 78.451 L 8.258 78.451 L 8.258 199.57 L 186.485 199.57 C 175.019 179.736 165.228 158.82 157.399 136.948 Z" fill="#997D5C"/><path d=" M 411.691 70.194 C 421.959 59.374 433.372 51.846 445.769 47.757 L 440.596 32.072 C 420.528 38.691 402.846 52.446 388.041 72.957 C 380.119 83.929 373.821 95.715 368.861 106.955 L 368.861 17.892 L 352.345 17.892 L 352.345 106.96 C 347.485 95.956 341.339 84.43 333.635 73.659 C 318.776 52.802 300.94 38.812 280.62 32.074 L 275.422 47.751 C 287.829 51.865 299.231 59.396 309.476 70.192 L 202.488 70.192 C 212.756 59.372 224.169 51.844 236.566 47.755 L 231.393 32.07 C 211.325 38.689 193.643 52.444 178.838 72.955 C 170.916 83.927 164.618 95.713 159.658 106.953 L 159.658 17.892 L 143.142 17.892 L 143.142 106.96 C 138.282 95.956 132.136 84.43 124.433 73.659 C 109.573 52.804 91.735 38.812 71.416 32.075 L 66.219 47.752 C 78.626 51.866 90.028 59.397 100.273 70.193 L 0 70.193 L 0 494.107 L 79.827 494.107 L 79.827 477.591 L 16.516 477.591 L 16.516 400.751 C 34.16 401.797 44.055 406.194 54.452 410.815 C 67.418 416.578 80.827 422.537 107.354 422.537 C 133.881 422.537 147.29 416.578 160.256 410.815 C 172.173 405.519 183.429 400.516 206.451 400.516 C 229.484 400.516 240.736 405.523 252.65 410.823 C 265.594 416.582 278.979 422.537 305.438 422.537 C 332.031 422.537 345.464 416.574 358.454 410.807 C 370.375 405.514 381.635 400.515 404.645 400.515 C 427.666 400.515 438.923 405.517 450.84 410.814 C 462.386 415.946 474.29 421.229 495.484 422.326 L 495.484 477.59 L 101.854 477.59 L 101.854 494.106 L 512 494.106 L 512 70.194 L 411.691 70.194 Z M 457.547 395.722 C 444.581 389.959 431.172 384 404.645 384 C 378.133 384 364.722 389.954 351.753 395.712 C 339.811 401.014 328.531 406.021 305.438 406.021 C 282.487 406.021 271.255 401.023 259.364 395.733 C 246.4 389.965 232.994 384 206.452 384 C 179.925 384 166.516 389.959 153.55 395.722 C 141.633 401.018 130.377 406.021 107.355 406.021 C 84.333 406.021 73.077 401.019 61.16 395.722 C 49.614 390.591 37.71 385.308 16.516 384.21 L 16.516 290.644 C 34.16 291.69 44.055 296.087 54.452 300.708 C 67.418 306.471 80.827 312.43 107.354 312.43 C 133.881 312.43 147.29 306.471 160.256 300.708 C 172.173 295.412 183.429 290.409 206.451 290.409 C 229.484 290.409 240.736 295.416 252.65 300.716 C 265.594 306.475 278.979 312.43 305.438 312.43 C 332.031 312.43 345.464 306.467 358.454 300.7 C 370.375 295.407 381.635 290.408 404.645 290.408 C 427.666 290.408 438.923 295.41 450.84 300.707 C 462.386 305.839 474.29 311.122 495.484 312.219 L 495.484 405.785 C 477.84 404.74 467.945 400.343 457.547 395.722 Z M 74.323 191.312 L 74.323 207.828 L 495.484 207.828 L 495.484 295.678 C 477.84 294.632 467.945 290.235 457.548 285.614 C 444.582 279.851 431.173 273.892 404.646 273.892 C 378.134 273.892 364.723 279.845 351.754 285.604 C 339.812 290.906 328.532 295.913 305.439 295.913 C 282.488 295.913 271.256 290.915 259.365 285.625 C 246.401 279.856 232.995 273.892 206.453 273.892 C 179.926 273.892 166.517 279.851 153.551 285.614 C 141.634 290.91 130.378 295.913 107.356 295.913 C 84.334 295.913 73.078 290.911 61.161 285.614 C 49.615 280.483 37.711 275.2 16.517 274.102 L 16.517 207.827 L 52.302 207.827 L 52.302 191.311 L 16.516 191.311 L 16.516 136.257 L 96.344 136.257 L 96.344 119.741 L 16.516 119.741 L 16.516 86.71 L 113.378 86.71 C 129.414 110.619 137.691 138.444 141.177 152.775 L 112.86 152.775 L 112.86 169.291 L 189.935 169.291 L 189.935 152.775 L 161.621 152.775 C 165.149 138.284 173.572 109.994 189.935 85.898 L 189.935 86.711 L 322.582 86.711 C 338.618 110.62 346.895 138.445 350.381 152.776 L 322.065 152.776 L 322.065 169.292 L 399.14 169.292 L 399.14 152.776 L 370.826 152.776 C 374.354 138.285 382.777 109.995 399.14 85.899 L 399.14 86.712 L 495.484 86.712 L 495.484 119.744 L 415.656 119.744 L 415.656 136.26 L 495.484 136.26 L 495.484 191.314 L 74.323 191.314 Z"/><rect x="74.323" y="251.871" width="27.527" height="16.516" fill="#FFFFFF"/><rect x="101.849" y="229.849" width="27.527" height="16.516"/><rect x="178.925" y="229.849" width="27.527" height="16.516" fill="#FFFFFF"/><rect x="283.527" y="251.871" width="27.527" height="16.516"/><rect x="426.667" y="229.849" width="27.527" height="16.516" fill="#FFFFFF"/><rect x="426.667" y="350.968" width="27.527" height="16.516"/><rect x="305.548" y="350.968" width="27.527" height="16.516" fill="#FFFFFF"/><rect x="283.527" y="328.946" width="27.527" height="16.516"/><rect x="173.419" y="328.946" width="27.527" height="16.516"/><rect x="52.301" y="350.968" width="27.527" height="16.516"/><rect x="107.355" y="350.968" width="27.527" height="16.516" fill="#FFFFFF"/><rect x="41.29" y="439.054" width="27.527" height="16.516"/><rect x="173.419" y="417.032" width="27.527" height="16.516" fill="#FFFFFF"/><rect x="217.462" y="439.054" width="27.527" height="16.516"/><rect x="448.688" y="439.054" width="27.527" height="16.516"/><rect x="360.602" y="439.054" width="27.527" height="16.516" fill="#FFFFFF"/><rect x="206.452" y="119.742" width="22.022" height="16.516"/><rect x="222.968" y="141.763" width="22.022" height="16.516"/><rect x="289.032" y="119.742" width="22.022" height="16.516"/><rect x="57.806" y="152.774" width="22.022" height="16.516"/><rect x="432.172" y="152.774" width="22.022" height="16.516"/><g></g><g></g><g></g><g></g><g></g><g></g><g></g><g></g><g></g><g></g><g></g><g></g><g></g><g></g><g></g></svg>