<svg version="1.1" viewBox="0 0 512.001 512.001" xmlns="http://www.w3.org/2000/svg" xmlns:xlink="http://www.w3.org/1999/xlink" id="Capa_1" overflow="hidden"><path d=" M 384.567 321.742 L 306.248 307.193 C 296.195 305.172 288.962 293.511 288.962 283.256 L 288.962 237.56 L 240.25 237.56 L 240.249 237.56 L 191.537 237.56 L 191.537 283.256 C 191.537 293.51 184.305 305.172 174.251 307.193 L 95.933 321.742 C 58.681 332.71 33.104 366.905 33.104 405.738 L 33.104 492.935 C 33.104 499.323 38.282 504.501 44.67 504.501 L 435.83 504.501 C 442.218 504.501 447.396 499.323 447.396 492.935 L 447.396 405.738 C 447.397 366.904 421.82 332.71 384.567 321.742 Z" fill="#FFE7CF"/><path d=" M 233.666 471.633 L 233.666 471.633 L 233.666 471.633 Z" fill="#EDEDED"/><path d=" M 384.567 321.742 L 306.248 307.193 L 306.248 307.193 C 269.449 342.788 211.052 342.788 174.253 307.193 L 174.253 307.193 L 95.934 321.742 C 58.682 332.71 33.105 366.905 33.105 405.738 L 33.105 492.935 C 33.105 499.323 38.283 504.501 44.671 504.501 L 435.83 504.501 C 442.218 504.501 447.396 499.323 447.396 492.935 L 447.396 405.738 C 447.397 366.904 421.82 332.71 384.567 321.742 Z" fill="#423E38"/><path d=" M 384.567 321.741 L 306.248 307.192 L 306.248 307.192 C 292.698 320.297 276.219 328.561 258.97 332.015 L 344.124 349.156 C 381.376 360.124 406.953 375.169 406.953 414.002 L 406.953 504.498 L 435.83 504.498 C 442.218 504.498 447.396 499.32 447.396 492.932 L 447.396 405.735 C 447.397 366.904 421.82 332.709 384.567 321.741 Z" fill="#332F2A"/><path d=" M 309.602 35.919 C 293.332 21.909 270.462 9.682 240.251 9.345 C 210.04 9.682 187.17 21.91 170.899 35.919 C 150.146 53.788 138.904 80.324 138.904 107.709 L 138.904 159.049 C 138.904 186.434 173.323 274.199 240.25 274.199 C 307.177 274.199 341.596 186.434 341.596 159.049 L 341.596 107.709 C 341.597 80.324 330.354 53.788 309.602 35.919 Z M 295.491 150.952 L 268.466 155.066 C 247.962 158.188 227.095 158.071 206.628 154.721 L 184.976 151.177 C 173.376 149.278 164.86 139.255 164.86 127.5 C 164.86 114.25 175.601 103.508 188.852 103.508 L 291.651 103.508 C 304.901 103.508 315.643 114.249 315.643 127.5 C 315.642 139.222 307.079 149.188 295.491 150.952 Z" fill="#423E38"/><path d=" M 309.602 35.919 C 293.332 21.909 270.462 9.682 240.251 9.345 C 233.07 9.425 226.307 10.184 219.945 11.472 C 240.346 15.603 256.588 25.241 268.991 35.919 C 289.743 53.788 300.986 80.324 300.986 107.71 L 300.986 159.05 C 300.986 183.514 273.516 256.153 219.945 271.376 C 226.343 273.194 233.109 274.2 240.251 274.2 C 307.177 274.2 341.597 186.435 341.597 159.05 L 341.597 107.71 C 341.597 80.324 330.354 53.788 309.602 35.919 Z" fill="#332F2A"/><path d=" M 295.491 150.952 L 268.466 155.066 C 247.962 158.188 227.095 158.071 206.628 154.721 L 184.976 151.177 C 173.376 149.278 164.86 139.255 164.86 127.5 L 164.86 127.5 C 164.86 114.25 175.601 103.508 188.852 103.508 L 291.65 103.508 C 304.9 103.508 315.642 114.249 315.642 127.5 L 315.642 127.5 C 315.642 139.222 307.079 149.188 295.491 150.952 Z" fill="#FFE7CF"/><path d=" M 372.289 279.48 C 360.379 263.901 320.233 252.524 303.803 242.726 C 299.263 247.799 294.313 252.502 288.966 256.653 L 288.966 283.257 C 288.966 293.511 296.198 305.173 306.252 307.194 C 288.45 324.414 265.593 333.275 242.573 333.831 C 241.8 333.85 241.026 333.837 240.253 333.837 C 239.479 333.837 238.706 333.85 237.933 333.831 C 214.912 333.275 192.056 324.414 174.255 307.194 C 184.308 305.173 191.541 293.512 191.541 283.257 L 191.541 256.653 C 186.195 252.503 181.245 247.801 176.704 242.726 C 160.275 252.524 120.129 263.902 108.218 279.48 C 100.311 289.821 99.88 304.816 105.684 315.774 C 109.56 323.092 121.901 330.669 137.637 337.778 C 202.792 367.214 277.71 367.214 342.866 337.779 C 358.605 330.669 370.946 323.092 374.823 315.774 C 380.627 304.816 380.196 289.822 372.289 279.48 Z" fill="#332F2A"/><path d=" M 372.289 279.48 C 360.379 263.901 320.233 252.524 303.803 242.725 C 299.72 247.288 295.287 251.527 290.55 255.358 C 306.84 262.259 324.219 270.109 331.383 279.48 C 339.29 289.821 339.721 304.816 333.917 315.774 C 330.041 323.092 317.698 330.669 301.961 337.779 C 275.731 349.628 247.919 356.699 219.8 359.008 C 261.532 362.434 303.94 355.364 342.867 337.779 C 358.606 330.669 370.947 323.092 374.823 315.774 C 380.627 304.816 380.196 289.822 372.289 279.48 Z" fill="#28231E"/><g><path d=" M 454.297 367.817 L 458.946 354.624 C 459.971 351.716 458.444 348.528 455.536 347.503 L 395.928 326.499 L 395.928 353.17 L 447.176 371.228 C 450.084 372.252 453.272 370.726 454.297 367.817 Z" fill="#82ADBC"/><path d=" M 376.297 274.722 C 403.823 262.606 428.549 245.167 450.245 222.498 C 452.57 220.069 456.385 219.877 458.924 222.082 C 464.858 227.234 470.791 232.387 476.726 237.54 C 479.429 239.887 479.639 244.024 477.175 246.621 C 448.273 277.098 414.387 299.592 376.297 313.707 L 376.297 274.722 Z" fill="#82ADBC"/></g><path d=" M 386.623 157.244 L 386.623 40.391 C 386.623 35.329 382.519 31.225 377.457 31.225 L 364.207 31.225 L 364.207 157.245 L 386.623 157.245 Z" fill="#9EBECC"/><path d=" M 388.272 499.17 L 371.443 373.084 L 368.644 373.084 C 363.436 373.084 359.214 368.862 359.214 363.654 L 359.214 146.176 C 359.214 143.529 361.36 141.384 364.006 141.384 L 381.831 141.384 C 384.478 141.384 386.623 143.53 386.623 146.176 L 386.623 185.208 C 386.623 194.039 389.523 202.716 395.221 209.462 C 401.091 216.411 404.307 225.211 404.307 234.299 L 404.307 373.082 L 440.39 485.697 C 441.456 489.069 439.494 492.65 436.078 493.566 L 396.03 504.305 C 392.427 505.275 388.789 502.866 388.272 499.17 Z" fill="#BF834C"/><path d=" M 404.308 373.083 L 440.391 485.698 C 441.457 489.07 439.495 492.651 436.079 493.567 L 396.031 504.306 C 392.426 505.273 388.79 502.864 388.273 499.168 L 371.444 373.082 L 404.308 373.082 Z" fill="#E8B287"/><path d=" M 385.317 478.01 L 433.846 464.997 L 440.392 485.699 C 441.458 489.071 439.496 492.652 436.08 493.568 L 396.032 504.307 C 392.427 505.274 388.791 502.865 388.274 499.169 L 385.317 478.01 Z" fill="#BF834C"/><g><path d=" M 288.963 283.257 L 288.963 256.67 C 277.142 265.848 263.351 272.273 247.63 273.825 L 247.63 310.589 C 247.63 318.657 252.118 327.576 258.923 332.005 C 276.191 328.566 292.689 320.314 306.252 307.194 L 306.249 307.194 C 296.195 305.172 288.963 293.511 288.963 283.257 Z" fill="#F4D3A6"/><path d=" M 291.65 103.508 L 275.262 103.508 L 275.262 154.032 L 295.49 150.952 C 307.079 149.187 315.642 139.223 315.642 127.5 C 315.642 114.249 304.9 103.508 291.65 103.508 Z" fill="#F4D3A6"/></g><path d=" M 193.723 137.915 L 207.563 137.915 C 211.705 137.915 215.062 134.558 215.062 130.416 C 215.062 126.274 211.704 122.917 207.563 122.917 L 193.723 122.917 C 189.581 122.917 186.224 126.274 186.224 130.416 C 186.224 134.558 189.582 137.915 193.723 137.915 Z"/><path d=" M 272.938 137.915 L 286.779 137.915 C 290.921 137.915 294.278 134.558 294.278 130.416 C 294.278 126.274 290.921 122.917 286.779 122.917 L 272.938 122.917 C 268.796 122.917 265.439 126.274 265.439 130.416 C 265.439 134.558 268.796 137.915 272.938 137.915 Z"/><path d=" M 205.416 162.122 C 216.432 163.926 227.531 164.827 238.634 164.827 C 248.974 164.827 259.319 164.045 269.595 162.481 L 296.619 158.367 L 296.619 158.366 C 311.988 156.026 323.141 143.045 323.141 127.5 C 323.141 110.135 309.013 96.009 291.649 96.009 L 188.852 96.009 C 171.487 96.009 157.361 110.136 157.361 127.5 C 157.361 143.005 168.465 156.074 183.765 158.578 L 205.416 162.122 Z M 172.359 127.5 C 172.359 118.407 179.757 111.008 188.851 111.008 L 291.649 111.008 C 300.743 111.008 308.142 118.406 308.142 127.5 C 308.142 135.577 302.347 142.322 294.361 143.538 L 267.337 147.653 C 247.579 150.66 227.56 150.55 207.839 147.321 L 186.187 143.776 C 178.175 142.464 172.359 135.619 172.359 127.5 Z"/><path d=" M 435.83 512 C 446.343 512 454.897 503.448 454.897 492.934 L 454.897 405.736 C 454.897 396.542 453.596 387.559 451.034 378.887 C 455.639 378.165 459.718 375.003 461.371 370.309 L 466.021 357.116 C 467.182 353.819 466.99 350.269 465.48 347.118 C 463.97 343.967 461.324 341.592 458.028 340.431 L 437.508 333.201 C 438.066 331.277 438.372 329.268 438.372 327.206 L 438.372 300.528 C 438.372 297.205 437.607 294.053 436.25 291.233 C 452.869 279.976 468.391 266.786 482.619 251.784 C 485.19 249.071 486.561 245.371 486.379 241.634 C 486.197 237.892 484.471 234.337 481.644 231.882 C 481.644 231.881 481.644 231.881 481.643 231.881 L 463.841 216.421 C 458.279 211.595 449.926 211.985 444.827 217.316 C 434.591 228.009 423.523 237.594 411.809 245.933 L 411.809 234.302 C 411.809 223.455 407.954 212.915 400.952 204.626 C 396.549 199.414 394.124 192.519 394.124 185.211 L 394.124 146.18 L 394.124 111.685 C 394.124 107.543 390.767 104.186 386.625 104.186 C 382.483 104.186 379.126 107.543 379.126 111.685 L 379.126 133.888 L 371.71 133.888 L 371.71 38.728 L 377.46 38.728 C 378.379 38.728 379.127 39.475 379.127 40.394 L 379.127 76.377 C 379.127 80.519 382.484 83.876 386.626 83.876 C 390.768 83.876 394.125 80.519 394.125 76.377 L 394.125 40.39 C 394.125 31.792 387.579 24.695 379.207 23.818 C 379.207 23.818 379.207 23.818 379.208 23.818 L 379.208 7.499 C 379.208 3.357 375.851 0 371.709 0 C 367.567 0 364.21 3.357 364.21 7.499 L 364.21 23.724 L 364.21 23.724 C 360.068 23.724 356.711 27.081 356.711 31.223 L 356.711 136.308 C 353.689 138.55 351.718 142.132 351.718 146.175 L 351.718 256.222 C 344.566 252.738 336.936 249.524 329.905 246.564 C 324.761 244.398 319.791 242.304 315.507 240.318 C 337.706 211.956 349.099 176.436 349.099 159.048 L 349.099 107.708 C 349.099 77.407 336.488 49.168 314.498 30.234 C 292.977 11.704 268.026 2.153 240.337 1.844 C 240.281 1.842 240.225 1.842 240.169 1.844 C 212.478 2.155 187.526 11.706 166.006 30.236 C 144.016 49.17 131.405 77.408 131.405 107.71 L 131.405 159.05 C 131.405 176.438 142.798 211.959 164.998 240.321 C 160.715 242.307 155.745 244.4 150.601 246.565 C 132.176 254.319 111.293 263.11 102.259 274.925 C 94.112 285.58 92.102 300.926 96.727 313.966 L 94.565 314.368 C 94.313 314.415 94.063 314.474 93.817 314.548 C 73.974 320.39 56.936 332.235 44.546 348.798 C 32.156 365.363 25.606 385.051 25.606 405.737 L 25.606 415.192 C 25.606 419.334 28.964 422.691 33.105 422.691 C 37.246 422.691 40.604 419.334 40.604 415.192 L 40.604 405.737 C 40.604 388.315 46.12 371.734 56.555 357.783 C 66.915 343.932 81.133 334.001 97.692 329.043 L 105.801 327.536 C 109.982 331.315 115.714 335.118 123.147 339.054 C 123.216 339.09 123.283 339.127 123.352 339.163 C 123.941 339.474 124.54 339.786 125.15 340.099 C 125.541 340.299 125.942 340.501 126.341 340.702 C 126.985 341.025 127.634 341.35 128.301 341.675 C 128.999 342.017 129.708 342.359 130.431 342.702 C 130.76 342.858 131.091 343.015 131.425 343.171 C 132.445 343.65 133.48 344.129 134.549 344.612 C 168.14 359.789 204.191 367.376 240.252 367.374 C 276.304 367.372 312.37 359.786 345.954 344.613 C 346.889 344.191 347.804 343.768 348.706 343.347 C 348.927 343.244 349.142 343.141 349.36 343.038 C 350.043 342.716 350.717 342.395 351.379 342.074 C 351.489 342.02 351.605 341.967 351.715 341.913 L 351.715 363.652 C 351.715 371.673 357.321 378.409 364.82 380.147 L 380.417 497.001 M 380.417 497.001 L 101.886 497.001 L 101.886 443.656 C 101.886 439.514 98.528 436.157 94.387 436.157 C 90.246 436.157 86.888 439.514 86.888 443.656 L 86.888 497.001 L 44.672 497.001 C 42.429 497.001 40.605 495.177 40.605 492.935 L 40.605 450.525 C 40.605 446.383 37.247 443.026 33.106 443.026 C 28.965 443.026 25.607 446.383 25.607 450.525 L 25.607 492.935 C 25.607 503.448 34.16 512.001 44.673 512.001 L 435.83 512.001 M 146.404 159.049 L 146.404 107.709 C 146.404 81.778 157.115 57.683 175.792 41.603 C 194.539 25.462 216.224 17.132 240.25 16.845 C 264.275 17.132 285.961 25.462 304.708 41.603 C 323.385 57.685 334.096 81.779 334.096 107.709 L 334.096 159.049 C 334.096 170.402 326.555 197.663 309.787 222.723 C 306.511 227.619 302.663 232.743 298.242 237.695 C 298.233 237.705 298.222 237.715 298.213 237.725 C 293.828 242.625 289.17 247 284.366 250.727 C 284.269 250.803 284.182 250.889 284.089 250.968 C 272.215 260.117 257.636 266.7 240.248 266.7 C 222.871 266.7 208.301 260.126 196.43 250.985 C 196.331 250.899 196.238 250.808 196.134 250.727 C 191.333 247.001 186.674 242.626 182.287 237.725 C 182.269 237.705 182.249 237.687 182.23 237.667 C 177.819 232.725 173.979 227.611 170.71 222.723 C 153.947 197.664 146.404 170.402 146.404 159.049 Z M 293.06 308.646 C 278.52 319.674 260.875 325.887 242.393 326.333 C 241.915 326.346 241.437 326.341 240.958 326.339 L 240.252 326.337 L 239.546 326.339 C 239.068 326.341 238.589 326.346 238.113 326.333 C 219.63 325.887 201.985 319.675 187.445 308.646 C 194.799 302.241 199.038 292.081 199.038 283.256 L 199.038 270.609 C 211.191 277.502 224.937 281.699 240.251 281.699 C 255.566 281.699 269.312 277.5 281.467 270.607 L 281.467 283.256 C 281.466 292.081 285.706 302.241 293.06 308.646 Z M 351.715 325.048 C 348.196 326.971 344.202 328.946 339.778 330.945 C 276.527 359.519 203.975 359.519 140.725 330.944 C 140.1 330.662 139.492 330.383 138.894 330.106 C 138.728 330.029 138.566 329.954 138.403 329.877 C 137.949 329.666 137.502 329.456 137.063 329.248 C 136.916 329.178 136.768 329.108 136.622 329.039 C 135.459 328.484 134.348 327.94 133.292 327.41 C 133.241 327.384 133.192 327.359 133.141 327.334 C 132.651 327.087 132.172 326.843 131.704 326.601 C 131.642 326.569 131.58 326.537 131.518 326.505 C 129.958 325.696 128.521 324.918 127.199 324.17 C 127.19 324.165 127.182 324.16 127.173 324.155 C 125.841 323.401 124.626 322.679 123.516 321.988 C 123.49 321.971 123.464 321.955 123.438 321.939 C 123.111 321.735 122.794 321.534 122.485 321.335 C 122.439 321.305 122.392 321.275 122.347 321.246 C 122.021 321.035 121.703 320.827 121.397 320.622 C 121.393 320.619 121.388 320.616 121.384 320.613 C 121.095 320.42 120.818 320.231 120.547 320.044 C 120.417 319.954 120.291 319.866 120.164 319.777 C 120.043 319.692 119.923 319.608 119.805 319.524 C 119.639 319.406 119.475 319.288 119.315 319.172 C 119.275 319.143 119.236 319.114 119.197 319.086 C 116.683 317.245 115.022 315.702 113.926 314.466 C 113.884 314.418 113.835 314.379 113.792 314.333 C 113.028 313.456 112.576 312.765 112.312 312.266 C 107.636 303.438 108.42 291.564 114.176 284.037 C 120.788 275.388 140.546 267.071 156.421 260.39 C 163.238 257.52 169.778 254.768 175.182 252.069 C 178.051 254.993 181.012 257.726 184.04 260.245 L 184.04 283.257 C 184.04 290.752 178.671 298.657 172.776 299.843 C 170.044 300.392 167.842 302.411 167.058 305.086 C 166.274 307.76 167.038 310.648 169.041 312.585 C 187.561 330.499 211.964 340.706 237.755 341.329 C 238.376 341.343 238.999 341.342 239.62 341.339 L 240.255 341.337 L 240.89 341.339 C 241.511 341.341 242.133 341.343 242.757 341.329 C 268.547 340.706 292.95 330.499 311.469 312.585 C 313.473 310.648 314.236 307.759 313.452 305.086 C 312.668 302.411 310.466 300.392 307.734 299.843 C 301.839 298.658 296.47 290.753 296.47 283.257 L 296.47 260.245 C 299.498 257.726 302.46 254.992 305.328 252.069 C 310.732 254.768 317.269 257.521 324.086 260.39 C 333.212 264.233 343.397 268.521 351.719 273.092 L 351.715 325.048 L 351.715 325.048 Z M 411.808 305.965 C 415.68 303.905 419.506 301.754 423.279 299.501 C 423.332 299.837 423.373 300.177 423.373 300.527 L 423.373 327.205 C 423.373 327.539 423.341 327.867 423.293 328.191 L 411.809 324.144 L 411.809 305.965 L 411.808 305.965 Z M 371.445 365.584 L 368.645 365.584 C 367.581 365.584 366.714 364.718 366.714 363.653 L 366.714 329.409 L 366.714 148.884 L 379.123 148.884 L 379.123 185.208 C 379.123 196.053 382.805 206.386 389.491 214.301 C 394.208 219.887 396.807 226.989 396.807 234.3 L 396.807 259.937 L 396.807 301.429 L 396.807 329.453 L 396.807 356.124 L 396.807 365.584 L 371.445 365.584 Z M 387.705 438.223 L 380.012 380.582 L 398.837 380.582 L 424.224 459.812 L 391.75 468.52 L 387.705 438.223 Z M 395.508 496.682 L 393.751 483.514 L 428.806 474.114 L 432.831 486.675 L 395.508 496.682 Z M 439.897 459.575 L 411.808 371.911 L 411.808 366.717 L 433.482 374.354 C 437.736 384.303 439.896 394.845 439.896 405.737 L 439.896 459.575 L 439.897 459.575 Z M 451.236 353.939 L 447.861 363.516 L 411.809 350.813 L 411.809 340.046 L 451.236 353.939 Z M 411.808 288.84 L 411.808 264.062 C 427.233 254.092 441.699 242.148 454.877 228.501 L 470.859 242.38 C 453.119 260.918 433.301 276.504 411.808 288.84 Z"/><g></g><g></g><g></g><g></g><g></g><g></g><g></g><g></g><g></g><g></g><g></g><g></g><g></g><g></g><g></g></svg>