<svg version="1.1" width="661.333" height="661.333" viewBox="0 0 496 496" xmlns="http://www.w3.org/2000/svg" xmlns:xlink="http://www.w3.org/1999/xlink" overflow="hidden"><path d=" M 488 392 C 488 445.02 445.02 488 392 488 C 338.98 488 296 445.02 296 392 C 296 338.98 338.98 296 392 296 C 445.02 296 488 338.98 488 392 Z" fill="#F7931E"/><path d=" M 8 8 L 360 8 L 360 248 L 8 248 Z" fill="#BCC3CC"/><path d=" M 56 152 L 312 152 L 312 200 L 56 200 Z" fill="#2F3133"/><path d=" M 56 152 L 288 152 L 288 200 L 56 200 Z" fill="#5E6266"/><path d=" M 88 56 L 280 56 L 280 152 L 88 152 Z" fill="#E6E6E6"/><path d=" M 88 56 L 256 56 L 256 152 L 88 152 Z" fill="#F2F2F2"/><path d=" M 312 208 L 56 208 C 51.5859 208 48 204.426 48 200 L 48 152 C 48 147.574 51.5859 144 56 144 L 312 144 C 316.414 144 320 147.574 320 152 L 320 200 C 320 204.426 316.414 208 312 208 Z M 64 192 L 304 192 L 304 160 L 64 160 Z"/><path d=" M 93.457 350.215 L 128.184 198.199 L 143.773 201.762 L 109.047 353.773 Z"/><path d=" M 224.199 201.777 L 239.789 198.215 L 274.559 350.211 L 258.969 353.777 Z"/><path d=" M 112 416 C 111.559 416 111.113 415.961 110.664 415.887 C 107.367 415.336 104.77 412.785 104.137 409.504 L 64.1367 201.504 L 79.8477 198.488 L 115.793 385.398 L 225.07 196 L 238.93 204 L 118.93 412 C 117.488 414.496 114.832 416 112 416 Z"/><path d=" M 256 416 C 253.176 416 250.52 414.496 249.07 412 L 129.07 204 L 142.93 196 L 252.199 385.406 L 288.145 198.496 L 303.855 201.512 L 263.855 409.512 C 263.223 412.793 260.625 415.344 257.328 415.895 C 256.879 415.961 256.441 416 256 416 Z"/><path d=" M 184 416 C 181.055 416 178.352 414.383 176.961 411.793 L 64.9609 203.793 L 79.0469 196.215 L 184 391.129 L 288.961 196.215 L 303.047 203.793 L 191.047 411.793 C 189.648 414.383 186.945 416 184 416 Z"/><path d=" M 360 256 L 8 256 C 3.58594 256 0 252.426 0 248 L 0 8 C 0 3.57422 3.58594 0 8 0 L 360 0 C 364.414 0 368 3.57422 368 8 L 368 248 C 368 252.426 364.414 256 360 256 Z M 16 240 L 352 240 L 352 16 L 16 16 Z"/><path d=" M 288 152 L 272 152 L 272 64 L 96 64 L 96 152 L 80 152 L 80 56 C 80 51.5742 83.5859 48 88 48 L 280 48 C 284.414 48 288 51.5742 288 56 Z"/><path d=" M 392 496 C 334.656 496 288 449.344 288 392 C 288 334.656 334.656 288 392 288 C 449.344 288 496 334.656 496 392 C 496 449.344 449.344 496 392 496 Z M 392 304 C 343.48 304 304 343.48 304 392 C 304 440.52 343.48 480 392 480 C 440.52 480 480 440.52 480 392 C 480 343.48 440.52 304 392 304 Z"/><path d=" M 384 296 L 400 296 L 400 488 L 384 488 Z"/><path d=" M 296 384 L 488 384 L 488 400 L 296 400 Z"/><path d=" M 328 466.879 L 320.238 452.879 C 339.832 442.031 352 421.367 352 398.977 L 352 385.023 C 352 362.633 339.832 341.969 320.238 331.121 L 328 317.121 C 352.672 330.801 368 356.816 368 385.023 L 368 398.977 C 368 427.184 352.672 453.199 328 466.879 Z"/><path d=" M 456 466.879 C 431.328 453.199 416 427.184 416 398.977 L 416 385.023 C 416 356.816 431.328 330.801 456 317.121 L 463.762 331.121 C 444.168 341.969 432 362.633 432 385.023 L 432 398.977 C 432 421.367 444.168 442.031 463.762 452.879 Z"/></svg>