<svg version="1.1" width="613.333" height="613.333" viewBox="-40 0 460 460" xmlns="http://www.w3.org/2000/svg" xmlns:xlink="http://www.w3.org/1999/xlink" overflow="hidden"><path d=" M 326.789 340.859 C 330.41 344.48 332.648 349.48 332.648 355 C 332.648 366.051 323.699 375 312.648 375 L 242.648 375 L 222.648 395 L 162.648 395 L 142.648 375 L 72.6484 375 C 67.1289 375 62.1289 372.762 58.5117 369.141 C 54.8906 365.52 52.6484 360.52 52.6484 355 C 52.6484 343.949 61.6094 335 72.6484 335 L 312.648 335 C 318.18 335 323.18 337.238 326.789 340.859 Z" fill="#A28671"/><path d=" M 57.6484 365 C 57.6484 353.949 66.6094 345 77.6484 345 L 317.648 345 C 323.18 345 328.18 347.238 331.789 350.859 C 331.973 351.043 332.141 351.246 332.316 351.438 C 331.578 347.348 329.609 343.68 326.789 340.859 C 323.18 337.238 318.18 335 312.648 335 L 72.6484 335 C 61.6094 335 52.6484 343.949 52.6484 355 C 52.6484 360.238 54.6836 364.996 57.9844 368.563 C 57.7773 367.402 57.6484 366.219 57.6484 365 Z" fill="#8E725D"/><path d=" M 322.648 145 L 322.648 175 L 62.6484 175 L 62.6484 145 Z" fill="#D7DEED"/><path d=" M 70.4844 153.332 L 322.648 153.332 L 322.648 145 L 62.6484 145 L 62.6484 175 L 70.4844 175 Z" fill="#AFB9D2"/><path d=" M 62.6484 175 L 322.648 175 C 322.648 262.77 263.969 335 192.648 335 C 121.34 335 62.6484 262.77 62.6484 175 Z" fill="#D8F2F1"/><path d=" M 72.1484 183.832 L 322.445 183.832 C 322.578 180.906 322.648 177.965 322.648 175 L 62.6484 175 C 62.6484 229.484 85.2734 277.977 119.484 306.922 C 90.6445 277.473 72.1484 233.105 72.1484 183.832 Z" fill="#C7ECEE"/><path d=" M 192.648 340 C 156.625 340 122.668 322.621 97.0273 291.066 C 71.6367 259.813 57.6484 218.594 57.6484 175 C 57.6484 172.238 59.8906 170 62.6484 170 C 65.4102 170 67.6484 172.238 67.6484 175 C 67.6484 260.469 123.727 330 192.648 330 C 261.574 330 317.648 260.469 317.648 175 C 317.648 172.238 319.887 170 322.648 170 C 325.41 170 327.648 172.238 327.648 175 C 327.648 218.594 313.668 259.813 288.273 291.066 C 262.637 322.621 228.68 340 192.648 340 Z"/><path d=" M 222.648 400 L 162.648 400 C 161.324 400 160.051 399.473 159.113 398.535 L 140.578 380 L 72.6484 380 C 65.9766 380 59.6992 377.398 54.9727 372.676 C 50.25 367.949 47.6484 361.676 47.6484 355 C 47.6484 341.215 58.8633 330 72.6484 330 L 312.648 330 C 319.34 330 325.617 332.605 330.328 337.328 C 335.051 342.047 337.648 348.324 337.648 355 C 337.648 368.785 326.434 380 312.648 380 L 244.723 380 L 226.184 398.535 C 225.246 399.473 223.977 400 222.648 400 Z M 164.723 390 L 220.578 390 L 239.113 371.465 C 240.055 370.527 241.324 370 242.648 370 L 312.648 370 C 320.922 370 327.648 363.27 327.648 355 C 327.648 350.996 326.09 347.23 323.254 344.395 C 320.426 341.559 316.66 340 312.648 340 L 72.6484 340 C 64.3789 340 57.6484 346.73 57.6484 355 C 57.6484 359.004 59.2109 362.77 62.0469 365.605 C 64.8789 368.438 68.6484 370 72.6484 370 L 142.648 370 C 143.977 370 145.246 370.527 146.188 371.465 Z"/><path d=" M 292.645 290 C 290.063 290 287.875 288.016 287.664 285.395 C 287.449 282.645 289.504 280.234 292.254 280.016 C 292.57 279.988 325.441 276.809 348.488 242.227 C 358.496 227.219 362.215 215.848 358.695 211.023 C 353.621 204.07 333.145 207.203 324.023 209.809 C 321.371 210.566 318.602 209.031 317.844 206.375 C 317.082 203.719 318.621 200.953 321.277 200.191 C 324.824 199.18 356.246 190.707 366.773 205.129 C 373.266 214.027 370.008 227.977 356.809 247.773 C 330.961 286.559 294.582 289.863 293.047 289.984 C 292.91 289.996 292.777 290 292.645 290 Z"/><path d=" M 322.648 180 L 62.6484 180 C 59.8906 180 57.6484 177.762 57.6484 175 L 57.6484 145 C 57.6484 142.238 59.8906 140 62.6484 140 L 322.648 140 C 325.41 140 327.648 142.238 327.648 145 L 327.648 175 C 327.648 177.762 325.41 180 322.648 180 Z M 67.6484 170 L 317.648 170 L 317.648 150 L 67.6484 150 Z"/><path d=" M 207.648 210 L 67.6484 210 C 64.8906 210 62.6484 207.762 62.6484 205 C 62.6484 202.238 64.8906 200 67.6484 200 L 207.648 200 C 210.41 200 212.648 202.238 212.648 205 C 212.648 207.762 210.41 210 207.648 210 Z"/><path d=" M 252.648 210 L 242.648 210 C 239.887 210 237.648 207.762 237.648 205 C 237.648 202.238 239.887 200 242.648 200 L 252.648 200 C 255.41 200 257.648 202.238 257.648 205 C 257.648 207.762 255.41 210 252.648 210 Z"/><path d=" M 265 430 L 5 430 C 2.23828 430 0 427.762 0 425 C 0 422.238 2.23828 420 5 420 L 265 420 C 267.762 420 270 422.238 270 425 C 270 427.762 267.762 430 265 430 Z"/><path d=" M 375 460 L 115 460 C 112.238 460 110 457.762 110 455 C 110 452.238 112.238 450 115 450 L 375 450 C 377.762 450 380 452.238 380 455 C 380 457.762 377.762 460 375 460 Z"/><path d=" M 145 150 C 142.238 150 140 147.762 140 145 C 140 120.188 160.188 100 185 100 L 265 100 C 269.004 100 272.77 98.4375 275.605 95.6055 C 278.438 92.7695 280 89.0039 280 85 C 280 76.7305 273.27 70 265 70 L 125 70 C 118.324 70 112.047 67.3984 107.324 62.6758 C 102.602 57.9531 100 51.6758 100 45 C 100 31.2148 111.215 20 125 20 L 185 20 C 193.27 20 200 13.2695 200 5 C 200 2.23828 202.238 0 205 0 C 207.762 0 210 2.23828 210 5 C 210 18.7852 198.785 30 185 30 L 125 30 C 116.73 30 110 36.7305 110 45 C 110 49.0039 111.563 52.7695 114.395 55.6055 C 117.23 58.4375 120.996 60 125 60 L 265 60 C 278.785 60 290 71.2148 290 85 C 290 91.6758 287.398 97.9531 282.676 102.676 C 277.949 107.398 271.676 110 265 110 L 185 110 C 165.699 110 150 125.699 150 145 C 150 147.762 147.762 150 145 150 Z"/></svg>