<svg version="1.1" viewBox="0 0 495.992 495.992" xmlns="http://www.w3.org/2000/svg" xmlns:xlink="http://www.w3.org/1999/xlink" id="Capa_1" overflow="hidden"><g><path d=" M 338.472 224.124 C 331.664 217.316 322.896 212.804 313.4 211.22 L 192 261.652 L 192 309.652 L 264 309.652 L 264 357.652 L 320 357.652 C 337.672 357.652 352 343.324 352 325.652 L 352 256.788 C 352 244.54 347.136 232.788 338.472 224.124 Z" fill="#FFA64D"/><path d=" M 439.544 397.652 C 437.256 382.236 426.496 369.156 411.384 364.116 L 347.008 342.66 C 341.344 351.644 331.4 357.652 319.992 357.652 L 176 357.652 C 164.592 357.652 154.648 351.644 148.984 342.66 L 84.608 364.116 C 69.496 369.148 58.736 382.236 56.448 397.652 L 56.432 399.78 L 75.992 423.252 L 103.992 389.652 L 131.992 423.252 L 159.992 389.652 L 187.992 423.252 L 215.992 389.652 L 247.824 427.852 C 247.888 427.924 247.928 428.02 247.992 428.092 C 248.056 428.02 248.096 427.924 248.16 427.852 L 280 389.652 L 308 423.252 L 336 389.652 L 364 423.252 L 392 389.652 L 420 423.252 L 439.56 399.78 L 439.544 397.652 Z" fill="#FFA64D"/></g><g><path d=" M 485.976 422.724 L 448 377.156 L 443.328 382.756 C 437.656 370.516 427.192 360.948 413.92 356.524 L 357.896 337.852 C 359.144 333.988 360 329.94 360 325.652 L 360 264.004 C 380.608 238.484 392 206.556 392 173.652 C 392 104.708 343.448 45.86 276.192 32.508 C 274.8 29.94 273.152 27.492 271.032 25.364 L 248 2.34 L 224.968 25.372 C 222.84 27.5 221.2 29.94 219.808 32.516 C 152.552 45.86 104 104.708 104 173.652 C 104 206.564 115.408 238.452 136 263.988 L 136 325.652 C 136 329.932 136.856 333.98 138.104 337.852 L 82.08 356.524 C 68.808 360.948 58.344 370.508 52.672 382.756 L 48 377.156 L 10.024 422.724 C 3.56 430.484 0 440.316 0 450.412 C 0 474.26 19.4 493.652 43.24 493.652 L 452.752 493.652 C 476.6 493.652 495.992 474.252 495.992 450.412 C 496 440.316 492.44 430.484 485.976 422.724 Z M 152 325.652 L 152 256.788 C 152 246.588 155.976 236.996 163.184 229.78 C 168.848 224.116 176.016 220.428 183.912 219.108 L 224 212.436 L 224 201.452 C 231.52 204.124 239.576 205.652 248 205.652 C 256.424 205.652 264.48 204.124 272 201.452 L 272 212.436 L 291.712 215.716 L 184 256.108 L 184 317.652 L 220.448 317.652 C 217.696 322.38 216 327.796 216 333.652 C 216 339.508 217.696 344.924 220.448 349.652 L 176 349.652 C 162.768 349.652 152 338.892 152 325.652 Z M 248 77.652 C 273.328 77.652 294.76 94.572 301.656 117.7 C 288.52 110.42 268.496 101.652 248 101.652 C 227.504 101.652 207.48 110.42 194.344 117.7 C 201.24 94.58 222.672 77.652 248 77.652 Z M 324 133.652 L 320 133.652 C 320 130.948 319.824 128.284 319.528 125.652 L 324 125.652 C 326.2 125.652 328 127.452 328 129.652 C 328 131.852 326.2 133.652 324 133.652 Z M 176 133.652 L 172 133.652 C 169.8 133.652 168 131.852 168 129.652 C 168 127.452 169.8 125.652 172 125.652 L 176.472 125.652 C 176.176 128.284 176 130.948 176 133.652 Z M 248 117.652 C 271.208 117.652 295.136 131.964 303.792 137.708 C 301.704 166.692 277.504 189.652 248 189.652 C 218.496 189.652 194.296 166.692 192.208 137.708 C 200.864 131.964 224.792 117.652 248 117.652 Z M 232 333.652 C 232 324.828 239.176 317.652 248 317.652 L 312 317.652 L 312 253.652 L 296 253.652 L 296 301.652 L 248 301.652 L 200 301.652 L 200 267.196 L 320.96 221.836 C 325.336 223.732 329.368 226.34 332.808 229.772 C 340.024 236.996 344 246.588 344 256.788 L 344 325.652 C 344 338.884 333.232 349.652 320 349.652 L 248 349.652 C 239.176 349.652 232 342.476 232 333.652 Z M 376 173.652 C 376 197.188 369.416 220.14 357.336 240.044 C 354.728 231.996 350.28 224.612 344.128 218.46 C 336.096 210.428 325.928 205.196 314.712 203.316 L 288 198.876 L 288 193.484 C 298.12 186.692 306.384 177.388 312 166.492 L 312 181.652 L 328 181.652 L 328 149.244 C 337.12 147.388 344 139.308 344 129.652 C 344 118.62 335.032 109.652 324 109.652 L 315.8 109.652 C 308.68 89.596 292.944 73.652 273.032 66.228 C 276.784 61.612 279.184 55.94 279.728 49.684 C 336.024 63.996 376 114.668 376 173.652 Z M 236.28 36.684 L 248 24.964 L 259.72 36.684 C 262.44 39.404 264 43.18 264 47.028 C 264 55.092 257.44 61.652 249.376 61.652 L 246.624 61.652 C 238.56 61.652 232 55.092 232 47.028 C 232 43.18 233.56 39.404 236.28 36.684 Z M 216.272 49.692 C 216.824 55.948 219.216 61.62 222.968 66.236 C 203.056 73.652 187.32 89.604 180.2 109.66 L 172 109.66 C 160.968 109.66 152 118.628 152 129.66 C 152 139.324 158.88 147.396 168 149.252 L 168 181.66 L 184 181.66 L 184 166.5 C 189.616 177.396 197.88 186.7 208 193.492 L 208 198.884 L 181.28 203.34 C 170.08 205.212 159.904 210.452 151.872 218.484 C 145.72 224.636 141.264 232.02 138.656 240.068 C 126.576 220.164 119.992 197.212 119.992 173.668 C 120 114.668 159.976 63.996 216.272 49.692 Z M 87.144 371.7 L 146.168 352.028 C 153.504 360.316 164.096 365.652 176 365.652 L 248 365.652 L 320 365.652 C 331.912 365.652 342.504 360.316 349.832 352.028 L 408.856 371.7 C 420.496 375.588 428.912 385.292 431.28 397.22 L 420 410.756 L 392 377.156 L 364 410.756 L 336 377.156 L 308 410.756 L 280 377.156 L 248 415.564 L 216 377.156 L 188 410.756 L 160 377.156 L 132 410.756 L 104 377.156 L 76 410.756 L 64.72 397.22 C 67.08 385.292 75.504 375.588 87.144 371.7 Z M 452.76 477.652 L 442.408 477.652 C 451.184 466.212 456 452.316 456 437.652 L 440 437.652 C 440 450.988 434.808 463.532 425.376 472.964 L 420.688 477.652 L 386.408 477.652 C 395.184 466.212 400 452.316 400 437.652 L 384 437.652 C 384 450.988 378.808 463.532 369.376 472.964 L 364.688 477.652 L 330.408 477.652 C 339.184 466.212 344 452.316 344 437.652 L 328 437.652 C 328 450.988 322.808 463.532 313.376 472.964 L 308.688 477.652 L 274.408 477.652 C 283.184 466.212 288 452.316 288 437.652 L 272 437.652 C 272 450.988 266.808 463.532 257.376 472.964 L 252.688 477.652 L 243.312 477.652 L 238.624 472.964 C 229.192 463.54 224 450.988 224 437.652 L 208 437.652 C 208 452.316 212.816 466.212 221.592 477.652 L 187.312 477.652 L 182.624 472.964 C 173.192 463.54 168 450.988 168 437.652 L 152 437.652 C 152 452.316 156.816 466.212 165.592 477.652 L 131.312 477.652 L 126.624 472.964 C 117.192 463.54 112 450.988 112 437.652 L 96 437.652 C 96 452.316 100.816 466.212 109.592 477.652 L 75.312 477.652 L 70.624 472.964 C 61.192 463.54 56 450.988 56 437.652 L 40 437.652 C 40 452.316 44.816 466.212 53.592 477.652 L 43.24 477.652 C 28.216 477.652 16 465.436 16 450.412 C 16 444.052 18.24 437.86 22.32 432.972 L 48 402.156 L 76 435.756 L 104 402.156 L 132 435.756 L 160 402.156 L 188 435.756 L 216 402.148 L 241.384 432.604 L 248 440.132 L 280 402.156 L 308 435.756 L 336 402.156 L 364 435.756 L 392 402.156 L 420 435.756 L 448 402.156 L 473.68 432.972 C 477.76 437.852 480 444.052 480 450.412 C 480 465.436 467.784 477.652 452.76 477.652 Z" fill="#333333"/><rect x="272" y="413.628" width="16" height="16" fill="#333333"/><rect x="208" y="413.628" width="16" height="16" fill="#333333"/></g><g></g><g></g><g></g><g></g><g></g><g></g><g></g><g></g><g></g><g></g><g></g><g></g><g></g><g></g><g></g></svg>