<svg version="1.1" viewBox="0 0 53 53" xmlns="http://www.w3.org/2000/svg" xmlns:xlink="http://www.w3.org/1999/xlink" id="Capa_1" overflow="hidden"><g><path d=" M 49 33 C 49 51.25 35.046 53 24 53 C 12.954 53 4 44.046 4 33 C 4 21.954 12.954 13 24 13 C 35.046 13 49 17.063 49 33 Z" fill="#8F7589"/><path d=" M 29.639 14.91 C 29.627 14.91 29.615 14.91 29.602 14.909 C 29.05 14.889 28.619 14.426 28.639 13.874 C 28.745 10.968 29.754 8.261 31.48 6.252 C 33.261 4.178 35.596 3.078 38.037 3.176 C 38.588 3.195 39.02 3.659 39 4.212 C 38.979 4.764 38.539 5.222 37.964 5.174 C 36.125 5.117 34.373 5.953 32.997 7.555 C 31.565 9.222 30.727 11.492 30.638 13.947 C 30.618 14.486 30.174 14.91 29.639 14.91 Z" fill="#6A3311"/><path d=" M 30.397 8.794 L 29.987 6.038 C 29.554 3.128 27.269 0.843 24.359 0.41 L 21.603 0 L 22.013 2.756 C 22.446 5.666 24.731 7.951 27.641 8.384 L 30.397 8.794 Z" fill="#436B1C"/><path d=" M 42.178 39.743 C 42.096 39.743 42.014 39.733 41.932 39.713 C 41.397 39.577 41.072 39.033 41.207 38.498 C 42.006 35.338 42.02 32.053 41.248 28.997 C 41.113 28.461 41.437 27.918 41.973 27.782 C 42.515 27.649 43.053 27.972 43.188 28.507 C 44.041 31.884 44.026 35.508 43.147 38.988 C 43.032 39.441 42.625 39.743 42.178 39.743 Z" fill="#583E68"/><path d=" M 40.309 24.998 C 39.961 24.998 39.623 24.816 39.438 24.492 C 38.945 23.624 38.376 22.793 37.748 22.021 C 37.399 21.592 37.464 20.962 37.892 20.614 C 38.32 20.264 38.95 20.33 39.299 20.758 C 39.998 21.616 40.63 22.54 41.177 23.504 C 41.449 23.984 41.281 24.595 40.802 24.867 C 40.646 24.956 40.477 24.998 40.309 24.998 Z" fill="#583E68"/><circle cx="21" cy="33" r="17" fill="#FDF0D7"/><path d=" M 21 39.879 C 20.448 39.879 20 39.432 20 38.879 L 20 27.122 C 20 26.569 20.448 26.122 21 26.122 C 21.552 26.122 22 26.569 22 27.122 L 22 38.879 C 22 39.431 21.552 39.879 21 39.879 Z" fill="#D13834"/><path d=" M 16.843 38.157 C 16.587 38.157 16.331 38.059 16.136 37.864 C 15.745 37.473 15.745 36.841 16.136 36.45 L 24.449 28.137 C 24.84 27.746 25.472 27.746 25.863 28.137 C 26.254 28.528 26.254 29.16 25.863 29.551 L 17.55 37.864 C 17.355 38.059 17.099 38.157 16.843 38.157 Z" fill="#D13834"/><path d=" M 26.878 34 L 15.121 34 C 14.569 34 14.121 33.553 14.121 33 C 14.121 32.447 14.569 32 15.121 32 L 26.878 32 C 27.43 32 27.878 32.447 27.878 33 C 27.878 33.553 27.431 34 26.878 34 Z" fill="#D13834"/><path d=" M 25.157 38.157 C 24.901 38.157 24.645 38.059 24.45 37.864 L 16.137 29.551 C 15.746 29.16 15.746 28.528 16.137 28.137 C 16.528 27.746 17.16 27.746 17.551 28.137 L 25.864 36.45 C 26.255 36.841 26.255 37.473 25.864 37.864 C 25.668 38.059 25.413 38.157 25.157 38.157 Z" fill="#D13834"/><circle cx="26" cy="22" r="1" fill="#F58265"/><circle cx="32" cy="28" r="1" fill="#F58265"/><circle cx="32" cy="38" r="1" fill="#F58265"/><circle cx="26" cy="44" r="1" fill="#F58265"/><circle cx="24" cy="40" r="1" fill="#F58265"/><circle cx="28" cy="36" r="1" fill="#F58265"/><circle cx="28" cy="30" r="1" fill="#F58265"/><circle cx="24" cy="26" r="1" fill="#F58265"/><circle cx="18" cy="26" r="1" fill="#F58265"/><circle cx="14" cy="30" r="1" fill="#F58265"/><circle cx="14" cy="36" r="1" fill="#F58265"/><circle cx="18" cy="40" r="1" fill="#F58265"/><circle cx="16" cy="44" r="1" fill="#F58265"/><circle cx="10" cy="38" r="1" fill="#F58265"/><circle cx="10" cy="28" r="1" fill="#F58265"/><circle cx="16" cy="22" r="1" fill="#F58265"/><circle cx="12" cy="24" r="1" fill="#F58265"/><circle cx="30" cy="24" r="1" fill="#F58265"/><circle cx="12" cy="42" r="1" fill="#F58265"/><circle cx="29" cy="41" r="1" fill="#F58265"/><circle cx="21" cy="45" r="1" fill="#F58265"/><circle cx="21" cy="21" r="1" fill="#F58265"/><circle cx="33" cy="33" r="1" fill="#F58265"/><circle cx="9" cy="33" r="1" fill="#F58265"/></g><g></g><g></g><g></g><g></g><g></g><g></g><g></g><g></g><g></g><g></g><g></g><g></g><g></g><g></g><g></g></svg>