<svg version="1.1" width="512" height="512" viewBox="0 0 512 512" xmlns="http://www.w3.org/2000/svg" xmlns:xlink="http://www.w3.org/1999/xlink" id="Layer_1" overflow="hidden"><g><path d=" M 379.421 363.999 L 257.02 363.398 L 133.72 362.799 C 107.32 318.998 88.119 260.498 92.92 210.098 L 104.32 77.8 C 127.42 28.9 183.22 0 257.021 0 C 330.822 0 386.621 28.9 409.722 77.8 L 421.12 210.099 C 425.921 260.2 406.12 320.499 379.421 363.999 Z" fill="#9CDD05"/><path d=" M 379.421 363.999 L 257.02 363.398 L 257.02 0 C 330.821 0 386.62 28.9 409.721 77.8 L 421.119 210.099 C 425.921 260.2 406.12 320.499 379.421 363.999 Z" fill="#66BB00"/><circle cx="152.021" cy="151" r="75" fill="#E0F4FF"/><circle cx="362.021" cy="151" r="75" fill="#BBDCFF"/><path d=" M 158.188 327.602 L 94.613 375.678 L 148.886 447.47 L 194.721 412.826 Z" fill="#575F64"/><path d=" M 355.927 329.228 L 318.559 413.793 L 363.134 447.484 L 417.377 375.663 Z" fill="#32393F"/><line x1="357.275" y1="405.443" x2="375.365" y2="381.522"/><g><g><rect x="137.022" y="76.008" width="29.997" height="149.984" fill="#BBDCFF" transform="matrix(0.7071,0.7071,-0.7071,0.7071,151.299,-63.268)"/></g></g><g><g><rect x="347.022" y="76.008" width="29.997" height="149.984" fill="#9ABADB" transform="matrix(0.7071,0.7071,-0.7071,0.7071,212.806,-211.76)"/></g></g><g><path d=" M 152.021 241 C 102.392 241 62.021 200.629 62.021 151 C 62.021 101.371 102.392 61 152.021 61 C 201.65 61 242.021 101.371 242.021 151 C 242.021 200.629 201.65 241 152.021 241 Z M 152.021 91 C 118.93 91 92.021 117.909 92.021 151 C 92.021 184.091 118.93 211 152.021 211 C 185.112 211 212.021 184.091 212.021 151 C 212.021 117.909 185.111 91 152.021 91 Z" fill="#575F64"/></g><g><path d=" M 362.021 241 C 312.392 241 272.021 200.629 272.021 151 C 272.021 101.371 312.392 61 362.021 61 C 411.65 61 452.021 101.371 452.021 151 C 452.021 200.629 411.65 241 362.021 241 Z M 362.021 91 C 328.93 91 302.021 117.909 302.021 151 C 302.021 184.091 328.93 211 362.021 211 C 395.112 211 422.021 184.091 422.021 151 C 422.021 117.909 395.111 91 362.021 91 Z" fill="#32393F"/></g><path d=" M 347.021 346 C 347.021 395.799 306.82 436 257.021 436 C 207.222 436 167.021 395.799 167.021 346 C 167.021 296.199 207.222 256 257.021 256 C 306.82 256 347.021 296.199 347.021 346 Z" fill="#BBDCFF"/><path d=" M 257.021 241 C 199.121 241 152.021 288.1 152.021 346 C 152.021 403.9 199.121 451 257.021 451 C 314.921 451 362.021 403.9 362.021 346 C 362.021 288.1 314.92 241 257.021 241 Z M 182.021 346 C 182.021 309.699 207.821 279.399 242.021 272.5 L 242.021 303.699 C 224.62 310 212.021 326.499 212.021 346 C 212.021 348.699 212.321 351.4 212.922 354.099 L 186.222 369.399 C 183.821 362.199 182.021 354.399 182.021 346 Z M 257.021 421 C 234.821 421 215.02 411.099 201.221 395.499 L 227.921 380.201 C 235.719 386.8 245.92 391.001 257.02 391.001 C 268.12 391.001 278.321 386.801 286.119 380.201 L 312.819 395.499 C 299.021 411.099 279.22 421 257.021 421 Z M 327.82 369.399 L 301.12 354.099 C 301.721 351.4 302.021 348.699 302.021 346 C 302.021 326.499 289.422 310 272.021 303.699 L 272.021 272.5 C 306.221 279.399 332.021 309.7 332.021 346 C 332.021 354.399 330.221 362.199 327.82 369.399 Z" fill="#575F64"/><path d=" M 347.021 346 C 347.021 395.799 306.82 436 257.021 436 L 257.021 256 C 306.82 256 347.021 296.199 347.021 346 Z" fill="#9ABADB"/><path d=" M 257.021 241 L 257.021 391 C 268.121 391 278.322 386.8 286.12 380.2 L 312.82 395.498 C 299.021 411.099 279.22 420.999 257.02 420.999 L 257.02 450.999 C 314.92 450.999 362.02 403.899 362.02 345.999 C 362.02 288.099 314.92 241 257.021 241 Z M 327.82 369.399 L 301.12 354.099 C 301.721 351.4 302.021 348.699 302.021 346 C 302.021 326.499 289.422 310 272.021 303.699 L 272.021 272.5 C 306.221 279.399 332.021 309.7 332.021 346 C 332.021 354.399 330.221 362.199 327.82 369.399 Z" fill="#32393F"/><g><path d=" M 110.068 494.105 L 37.705 398.377 C 22.716 378.574 26.584 350.395 46.479 335.359 L 82.353 308.215 L 208.989 475.735 L 173.086 502.879 C 153.238 517.894 125.072 513.96 110.068 494.105 Z" fill="#7C8388"/></g><path d=" M 338.905 502.929 L 303.016 475.785 L 429.637 308.28 L 465.526 335.409 C 485.381 350.414 489.305 378.586 474.3 398.441 L 401.937 494.154 C 387.023 513.893 358.722 517.908 338.905 502.929 Z" fill="#575F64"/></g></svg>