<svg version="1.1" width="640" height="640" viewBox="0 -16 480 480" xmlns="http://www.w3.org/2000/svg" xmlns:xlink="http://www.w3.org/1999/xlink" overflow="hidden"><path d=" M 472 327.938 L 472 407.938 L 8 407.938 L 8 327.938 C 8 310.266 22.3281 295.938 40 295.938 L 440 295.938 C 457.672 295.938 472 310.266 472 327.938 Z M 400 383.938 L 400 319.938 L 352 319.938 L 352 383.938 Z M 328 383.938 L 328 319.938 L 280 319.938 L 280 383.938 Z M 256 383.938 L 256 319.938 L 208 319.938 L 208 383.938 Z M 184 383.938 L 184 319.938 L 136 319.938 L 136 383.938 Z M 112 359.938 L 112 319.938 L 64 319.938 L 64 359.938 Z" fill="#57A4FF"/><path d=" M 432 84.418 L 432 295.938 L 400 295.938 L 400 84.418 C 400 75.582 407.164 68.418 416 68.418 C 424.836 68.418 432 75.582 432 84.418 Z" fill="#ACABB1"/><path d=" M 352 319.938 L 400 319.938 L 400 383.938 L 352 383.938 Z" fill="#D80027"/><path d=" M 336 159.938 L 336 295.938 L 304 295.938 L 304 159.938 C 304.016 154.906 306.383 150.168 310.398 147.137 C 313.137 145.055 316.48 143.93 319.922 143.938 C 324.18 143.902 328.277 145.574 331.301 148.582 C 334.32 151.586 336.012 155.676 336 159.938 Z" fill="#898890"/><path d=" M 280 319.938 L 328 319.938 L 328 383.938 L 280 383.938 Z" fill="#FFDA44"/><path d=" M 208 319.938 L 256 319.938 L 256 383.938 L 208 383.938 Z" fill="#D80027"/><path d=" M 256 127.938 C 256 136.773 248.836 143.938 240 143.938 C 231.164 143.938 224 136.773 224 127.938 C 224 119.102 231.164 111.938 240 111.938 C 248.836 111.938 256 119.102 256 127.938 Z" fill="#FFDA44"/><path d=" M 136 319.938 L 184 319.938 L 184 383.938 L 136 383.938 Z" fill="#FFDA44"/><path d=" M 176 159.938 L 176 295.938 L 144 295.938 L 144 159.938 C 144 151.102 151.164 143.938 160 143.938 C 168.836 143.938 176 151.102 176 159.938 Z" fill="#898890"/><path d=" M 64 319.938 L 112 319.938 L 112 359.938 L 64 359.938 Z" fill="#D80027"/><path d=" M 80 84.418 L 80 295.938 L 48 295.938 L 48 84.418 C 48 75.582 55.1641 68.418 64 68.418 C 72.8359 68.418 80 75.582 80 84.418 Z" fill="#ACABB1"/><path d=" M 440 287.938 L 440 84.4336 C 440 71.1797 429.254 60.4336 416 60.4336 C 402.746 60.4336 392 71.1797 392 84.4336 L 392 287.938 L 344 287.938 L 344 159.938 C 344 150.848 338.863 142.535 330.734 138.469 C 322.602 134.406 312.871 135.281 305.602 140.738 C 299.57 145.281 296.02 152.387 296 159.938 L 296 287.938 L 184 287.938 L 184 159.938 C 183.98 152.387 180.426 145.285 174.398 140.738 C 167.129 135.281 157.398 134.406 149.266 138.469 C 141.137 142.535 136 150.848 136 159.938 L 136 287.938 L 88 287.938 L 88 84.4336 C 88 71.1797 77.2539 60.4336 64 60.4336 C 50.7461 60.4336 40 71.1797 40 84.4336 L 40 287.938 C 17.918 287.965 0.0273438 305.855 0 327.938 L 0 407.938 C 0 412.355 3.58203 415.938 8 415.938 L 25.7539 415.938 L 29.3281 430.242 C 31.9336 440.641 41.2773 447.934 51.9961 447.934 C 62.7148 447.934 72.0586 440.641 74.6641 430.242 L 78.2383 415.938 L 401.754 415.938 L 405.328 430.242 C 407.914 440.652 417.273 447.957 428 447.938 C 438.723 447.953 448.07 440.656 450.656 430.25 L 454.238 415.938 L 472 415.938 C 476.418 415.938 480 412.355 480 407.938 L 480 327.938 C 479.973 305.855 462.082 287.965 440 287.938 Z M 408 84.4336 C 407.996 80.7617 410.492 77.5586 414.055 76.6641 C 416.449 76.0664 418.98 76.6016 420.926 78.1211 C 422.867 79.6367 424.004 81.9688 424 84.4336 L 424 287.938 L 408 287.938 Z M 312 159.938 C 312.008 157.422 313.191 155.051 315.199 153.535 C 317.625 151.719 320.867 151.426 323.578 152.781 C 326.289 154.137 328 156.906 328 159.938 L 328 287.938 L 312 287.938 Z M 152 159.938 C 152 156.906 153.711 154.137 156.422 152.781 C 159.133 151.426 162.375 151.719 164.801 153.535 C 166.809 155.055 167.992 157.422 168 159.938 L 168 287.938 L 152 287.938 Z M 56 84.4336 C 56 80.0156 59.582 76.4336 64 76.4336 C 68.418 76.4336 72 80.0156 72 84.4336 L 72 287.938 L 56 287.938 Z M 59.1445 426.336 C 58.3438 429.629 55.3906 431.945 52 431.938 C 48.6133 431.938 45.6641 429.625 44.8555 426.336 L 42.2461 415.938 L 61.7539 415.938 Z M 435.145 426.336 C 434.324 429.617 431.375 431.918 427.996 431.918 C 424.613 431.918 421.668 429.617 420.848 426.336 L 418.246 415.938 L 437.754 415.938 Z M 464 399.938 L 16 399.938 L 16 327.938 C 16 314.684 26.7461 303.938 40 303.938 L 440 303.938 C 453.254 303.938 464 314.684 464 327.938 Z"/><path d=" M 440 375.938 L 456 375.938 L 456 391.938 L 440 391.938 Z"/><path d=" M 416 375.938 L 432 375.938 L 432 391.938 L 416 391.938 Z"/><path d=" M 440 351.938 L 456 351.938 L 456 367.938 L 440 367.938 Z"/><path d=" M 56 375.938 L 120 375.938 L 120 391.938 L 56 391.938 Z"/><path d=" M 184 311.938 L 136 311.938 C 131.582 311.938 128 315.52 128 319.938 L 128 383.938 C 128 388.355 131.582 391.938 136 391.938 L 184 391.938 C 188.418 391.938 192 388.355 192 383.938 L 192 319.938 C 192 315.52 188.418 311.938 184 311.938 Z M 176 375.938 L 144 375.938 L 144 327.938 L 176 327.938 Z"/><path d=" M 256 311.938 L 208 311.938 C 203.582 311.938 200 315.52 200 319.938 L 200 383.938 C 200 388.355 203.582 391.938 208 391.938 L 256 391.938 C 260.418 391.938 264 388.355 264 383.938 L 264 319.938 C 264 315.52 260.418 311.938 256 311.938 Z M 248 375.938 L 216 375.938 L 216 327.938 L 248 327.938 Z"/><path d=" M 328 311.938 L 280 311.938 C 275.582 311.938 272 315.52 272 319.938 L 272 383.938 C 272 388.355 275.582 391.938 280 391.938 L 328 391.938 C 332.418 391.938 336 388.355 336 383.938 L 336 319.938 C 336 315.52 332.418 311.938 328 311.938 Z M 320 375.938 L 288 375.938 L 288 327.938 L 320 327.938 Z"/><path d=" M 400 311.938 L 352 311.938 C 347.582 311.938 344 315.52 344 319.938 L 344 383.938 C 344 388.355 347.582 391.938 352 391.938 L 400 391.938 C 404.418 391.938 408 388.355 408 383.938 L 408 319.938 C 408 315.52 404.418 311.938 400 311.938 Z M 392 375.938 L 360 375.938 L 360 327.938 L 392 327.938 Z"/><path d=" M 112 311.938 L 64 311.938 C 59.582 311.938 56 315.52 56 319.938 L 56 359.938 C 56 364.355 59.582 367.938 64 367.938 L 112 367.938 C 116.418 367.938 120 364.355 120 359.938 L 120 319.938 C 120 315.52 116.418 311.938 112 311.938 Z M 104 351.938 L 72 351.938 L 72 327.938 L 104 327.938 Z"/><path d=" M 232 167.938 L 248 167.938 L 248 183.938 L 232 183.938 Z"/><path d=" M 232 191.938 L 248 191.938 L 248 207.938 L 232 207.938 Z"/><path d=" M 232 215.938 L 248 215.938 L 248 231.938 L 232 231.938 Z"/><path d=" M 232 239.938 L 248 239.938 L 248 255.938 L 232 255.938 Z"/><path d=" M 232 263.938 L 248 263.938 L 248 279.938 L 232 279.938 Z"/><path d=" M 155.152 51.0898 C 202.043 4.29688 277.957 4.29688 324.848 51.0898 C 327.973 54.2148 333.043 54.2148 336.168 51.0898 C 339.293 47.9609 339.293 42.8945 336.168 39.7695 C 283.02 -13.2578 196.98 -13.2578 143.832 39.7695 C 140.707 42.8945 140.707 47.9609 143.832 51.0898 C 146.957 54.2148 152.027 54.2148 155.152 51.0898 Z"/><path d=" M 307.879 76.0586 C 311.113 76.0547 314.031 74.1055 315.27 71.1172 C 316.508 68.1289 315.824 64.6875 313.535 62.4023 C 272.902 21.8398 207.098 21.8398 166.465 62.4023 C 164.383 64.4102 163.551 67.3828 164.281 70.1797 C 165.016 72.9766 167.199 75.1641 169.996 75.8945 C 172.793 76.625 175.766 75.793 177.777 73.7109 C 212.164 39.4023 267.836 39.4023 302.223 73.7109 C 303.723 75.2148 305.758 76.0547 307.879 76.0586 Z"/><path d=" M 285.258 98.6797 C 288.492 98.6797 291.406 96.7305 292.645 93.7422 C 293.883 90.7539 293.199 87.3125 290.91 85.0234 C 262.777 56.9453 217.223 56.9453 189.09 85.0234 C 186.055 88.1641 186.098 93.1523 189.184 96.2383 C 192.27 99.3242 197.262 99.3672 200.398 96.3359 C 222.285 74.5039 257.715 74.5039 279.602 96.3359 C 281.102 97.8359 283.133 98.6797 285.258 98.6797 Z"/><path d=" M 264 127.938 C 264 114.684 253.254 103.938 240 103.938 C 226.746 103.938 216 114.684 216 127.938 C 216 141.191 226.746 151.938 240 151.938 C 253.254 151.938 264 141.191 264 127.938 Z M 240 135.938 C 235.582 135.938 232 132.355 232 127.938 C 232 123.52 235.582 119.938 240 119.938 C 244.418 119.938 248 123.52 248 127.938 C 248 132.355 244.418 135.938 240 135.938 Z"/></svg>