<svg version="1.1" width="512" height="512" viewBox="0 0 64 64" xmlns="http://www.w3.org/2000/svg" xmlns:xlink="http://www.w3.org/1999/xlink" id="Layer_3" overflow="hidden"><g><rect x="2" y="16" width="4" height="30" fill="#5A5A5A"/><rect x="58" y="16" width="4" height="30" fill="#5A5A5A"/><path d=" M 58 20 L 54 20 L 54 42 L 58 42" fill="#9C9C9C"/><path d=" M 10 20 L 6 20 L 6 42 L 10 42" fill="#9C9C9C"/><path d=" M 32 62 L 32 62 C 33.281 62 34.509 61.491 35.414 60.586 L 35.414 60.586 C 36.43 59.57 37 58.193 37 56.757 L 37 56.403 C 37 55.483 36.766 54.578 36.319 53.774 L 32 46 L 27.748 53.654 C 27.257 54.537 27 55.53 27 56.539 L 27 56.757 C 27 58.193 27.57 59.57 28.586 60.585 L 28.586 60.585 C 29.491 61.491 30.719 62 32 62 Z" fill="#1CA3BA"/><path d=" M 30.5 48.7 L 27.748 53.654 C 27.257 54.537 27 55.53 27 56.539 L 27 56.757 C 27 58.193 27.57 59.57 28.586 60.585 L 28.586 60.585 C 29.126 61.125 29.788 61.503 30.5 61.737 C 31.212 61.503 31.874 61.125 32.414 60.585 L 32.414 60.585 C 33.43 59.57 34 58.193 34 56.757 L 34 56.403 C 34 55.483 33.766 54.578 33.319 53.774 L 30.5 48.7 Z" fill="#25D9F8"/><path d=" M 54 40 L 10 40 L 10 22 L 29 22 L 33 26 L 29 30 L 36 36 L 34 30 L 38 26 L 35 22 L 54 22 Z" fill="#0090B5"/><path d=" M 27 18 L 20 11 L 27 11 L 27 3 L 31.5 7.5 L 37 2 L 37 8 L 44 8 L 39 13 L 44 18 L 38 18" fill="#FFD400"/><g><rect x="15" y="22" width="2" height="11" fill="#00485B"/></g><g><rect x="13" y="25" width="6" height="2" fill="#00485B"/></g><g><rect x="13" y="29" width="6" height="2" fill="#00485B"/></g><g><rect x="45" y="29" width="2" height="11" fill="#00485B"/></g><g><rect x="43" y="35" width="6" height="2" fill="#00485B"/></g><g><rect x="43" y="31" width="6" height="2" fill="#00485B"/></g></g></svg>