<svg version="1.1" viewBox="0 0 58.622 58.622" xmlns="http://www.w3.org/2000/svg" xmlns:xlink="http://www.w3.org/1999/xlink" id="Capa_1" overflow="hidden"><g><path d=" M 6.86 40.713 C 6.604 40.713 6.348 40.615 6.153 40.42 C 5.762 40.029 5.762 39.397 6.153 39.006 L 10.807 34.352 C 11.198 33.961 11.83 33.961 12.221 34.352 C 12.612 34.743 12.612 35.375 12.221 35.766 L 7.567 40.42 C 7.372 40.615 7.116 40.713 6.86 40.713 Z" fill="#D2D5D7"/><path d=" M 43.57 4.004 C 43.314 4.004 43.058 3.906 42.863 3.711 C 42.472 3.32 42.472 2.688 42.863 2.297 L 44.867 0.293 C 45.258 -0.098 45.89 -0.098 46.281 0.293 C 46.672 0.684 46.672 1.316 46.281 1.707 L 44.277 3.711 C 44.082 3.906 43.826 4.004 43.57 4.004 Z" fill="#D2D5D7"/><path d=" M 52.763 17.438 C 52.507 17.438 52.251 17.34 52.056 17.145 C 51.665 16.754 51.665 16.122 52.056 15.731 L 56.181 11.606 C 56.572 11.215 57.204 11.215 57.595 11.606 C 57.986 11.997 57.986 12.629 57.595 13.02 L 53.47 17.145 C 53.274 17.341 53.018 17.438 52.763 17.438 Z" fill="#D2D5D7"/><g><path d=" M 14.461 37.77 L 8.804 32.113 C 8.415 31.724 8.415 31.088 8.804 30.699 L 10.925 28.578 C 11.314 28.189 11.95 28.189 12.339 28.578 L 17.996 34.235 C 18.385 34.624 18.385 35.26 17.996 35.649 L 15.875 37.77 C 15.486 38.158 14.85 38.158 14.461 37.77 Z" fill="#6A3311"/><path d=" M 15.168 39.062 C 14.656 39.062 14.144 38.867 13.754 38.477 L 8.098 32.82 C 7.721 32.444 7.513 31.941 7.513 31.406 C 7.513 30.871 7.721 30.368 8.099 29.991 L 10.219 27.871 C 10.973 27.117 12.293 27.117 13.047 27.871 L 18.704 33.528 C 19.081 33.905 19.288 34.407 19.288 34.942 C 19.288 35.477 19.081 35.979 18.704 36.356 L 16.582 38.477 C 16.192 38.866 15.68 39.062 15.168 39.062 Z M 15.168 37.063 L 14.461 37.77 L 15.168 37.063 L 15.168 37.063 L 15.168 37.063 Z M 11.633 29.284 L 9.512 31.405 L 15.166 37.06 L 17.29 34.941 L 11.633 29.284 Z" fill="#6A3311"/></g><circle cx="18.704" cy="27.87" r="5" fill="#ED3F32"/><g><path d=" M 25.068 27.163 L 19.411 21.506 C 19.022 21.117 19.022 20.481 19.411 20.092 L 21.532 17.971 C 21.921 17.582 22.557 17.582 22.946 17.971 L 28.603 23.628 C 28.992 24.017 28.992 24.653 28.603 25.042 L 26.482 27.163 C 26.093 27.552 25.457 27.552 25.068 27.163 Z" fill="#6A3311"/><path d=" M 25.774 28.454 C 25.262 28.454 24.751 28.26 24.361 27.871 L 18.704 22.213 C 17.924 21.434 17.924 20.164 18.704 19.385 L 20.825 17.264 C 21.604 16.485 22.874 16.485 23.653 17.264 L 29.31 22.92 C 30.088 23.7 30.088 24.969 29.311 25.748 L 27.189 27.87 C 26.799 28.26 26.287 28.454 25.774 28.454 Z M 25.773 26.455 L 25.773 26.455 L 25.773 26.455 Z M 22.239 18.678 L 20.118 20.799 L 25.772 26.454 L 27.896 24.335 L 22.239 18.678 Z" fill="#6A3311"/></g><circle cx="29.31" cy="17.263" r="5" fill="#ED3F32"/><g><path d=" M 35.674 16.556 L 30.017 10.899 C 29.628 10.51 29.628 9.874 30.017 9.485 L 32.138 7.364 C 32.527 6.975 33.163 6.975 33.552 7.364 L 39.209 13.021 C 39.598 13.41 39.598 14.046 39.209 14.435 L 37.088 16.556 C 36.7 16.945 36.063 16.945 35.674 16.556 Z" fill="#6A3311"/><path d=" M 36.381 17.848 C 35.869 17.848 35.358 17.654 34.968 17.264 L 29.311 11.607 C 28.934 11.23 28.727 10.728 28.727 10.193 C 28.727 9.658 28.934 9.156 29.311 8.779 L 31.432 6.658 C 32.184 5.904 33.507 5.903 34.261 6.659 L 39.917 12.314 C 40.696 13.095 40.696 14.364 39.917 15.142 L 37.796 17.264 C 37.405 17.653 36.893 17.848 36.381 17.848 Z M 36.382 15.85 L 35.675 16.557 L 36.382 15.85 L 36.382 15.85 L 36.382 15.85 Z M 32.846 8.071 L 30.725 10.192 L 36.38 15.847 L 38.503 13.727 L 32.846 8.071 Z" fill="#6A3311"/></g><circle cx="39.917" cy="6.657" r="5" fill="#ED3F32"/><path d=" M 14.579 55.622 C 14.323 55.622 14.067 55.524 13.872 55.329 C 13.481 54.938 13.481 54.306 13.872 53.915 L 17.599 50.188 C 17.99 49.797 18.622 49.797 19.013 50.188 C 19.404 50.579 19.404 51.211 19.013 51.602 L 15.286 55.329 C 15.091 55.524 14.835 55.622 14.579 55.622 Z" fill="#D2D5D7"/><path d=" M 21.775 46.426 L 21.775 40.426 C 21.775 39.876 22.225 39.426 22.775 39.426 L 28.775 39.426 C 29.325 39.426 29.775 39.876 29.775 40.426 L 29.775 46.426 C 29.775 46.976 29.325 47.426 28.775 47.426 L 22.775 47.426 C 22.225 47.426 21.775 46.976 21.775 46.426 Z" fill="#F9DA49"/><g><path d=" M 20.074 52.663 L 16.538 49.127 C 15.566 48.155 15.566 46.564 16.538 45.591 L 16.538 45.591 C 17.51 44.619 19.101 44.619 20.074 45.591 L 23.61 49.127 C 24.582 50.099 24.582 51.69 23.61 52.663 L 23.61 52.663 C 22.637 53.635 21.046 53.635 20.074 52.663 Z" fill="#436B1C"/><path d=" M 21.841 54.394 C 20.945 54.394 20.049 54.052 19.367 53.371 L 15.831 49.835 C 14.467 48.471 14.467 46.251 15.831 44.886 C 17.196 43.523 19.416 43.523 20.781 44.886 L 24.316 48.421 C 25.681 49.785 25.681 52.007 24.316 53.371 C 23.634 54.052 22.737 54.394 21.841 54.394 Z M 18.307 45.86 C 17.922 45.86 17.537 46.006 17.245 46.298 C 16.661 46.883 16.661 47.834 17.245 48.419 L 20.781 51.955 C 21.364 52.538 22.317 52.539 22.902 51.955 C 23.183 51.674 23.339 51.297 23.339 50.894 C 23.339 50.491 23.184 50.114 22.902 49.832 L 19.367 46.297 C 19.075 46.007 18.69 45.86 18.307 45.86 Z" fill="#436B1C"/></g><g><path d=" M 31.785 40.952 L 28.249 37.416 C 27.277 36.444 27.277 34.853 28.249 33.88 L 28.249 33.88 C 29.221 32.908 30.812 32.908 31.785 33.88 L 35.321 37.416 C 36.293 38.388 36.293 39.979 35.321 40.952 L 35.321 40.952 C 34.348 41.924 32.757 41.924 31.785 40.952 Z" fill="#659C35"/><path d=" M 33.553 42.682 C 32.657 42.682 31.761 42.341 31.078 41.659 L 27.543 38.124 C 26.884 37.465 26.521 36.586 26.521 35.649 C 26.521 34.711 26.884 33.833 27.543 33.174 C 28.859 31.856 31.176 31.856 32.492 33.174 L 36.028 36.709 C 37.392 38.074 37.392 40.294 36.028 41.658 C 35.346 42.341 34.449 42.682 33.553 42.682 Z M 30.017 34.151 C 29.615 34.151 29.238 34.306 28.956 34.588 C 28.674 34.87 28.519 35.246 28.519 35.649 C 28.519 36.052 28.674 36.428 28.956 36.71 L 32.491 40.245 C 33.053 40.808 34.05 40.808 34.613 40.245 C 35.197 39.66 35.197 38.709 34.613 38.124 L 31.077 34.589 C 30.797 34.307 30.42 34.151 30.017 34.151 Z" fill="#659C35"/></g><path d=" M 40.867 27.335 L 40.867 21.335 C 40.867 20.785 41.317 20.335 41.867 20.335 L 47.867 20.335 C 48.417 20.335 48.867 20.785 48.867 21.335 L 48.867 27.335 C 48.867 27.885 48.417 28.335 47.867 28.335 L 41.867 28.335 C 41.317 28.335 40.867 27.885 40.867 27.335 Z" fill="#F9DA49"/><path d=" M 4.732 45.832 C 3.708 45.832 2.684 45.442 1.904 44.663 C 0.344 43.103 0.344 40.565 1.904 39.006 C 2.295 38.615 2.927 38.615 3.318 39.006 C 3.709 39.397 3.709 40.029 3.318 40.42 C 2.538 41.2 2.538 42.469 3.318 43.249 C 4.098 44.029 5.369 44.027 6.147 43.249 C 6.926 42.469 6.926 41.2 6.147 40.42 C 5.756 40.029 5.756 39.396 6.147 39.006 C 6.538 38.615 7.17 38.615 7.561 39.006 C 9.12 40.566 9.12 43.104 7.561 44.663 C 6.782 45.442 5.757 45.832 4.732 45.832 Z" fill="#D2D5D7"/><circle cx="37.796" cy="31.406" r="5" fill="#ED3F32"/><path d=" M 11.579 58.622 C 9.373 58.622 7.579 56.828 7.579 54.622 C 7.579 52.416 9.373 50.622 11.579 50.622 C 12.132 50.622 12.579 51.069 12.579 51.622 C 12.579 52.175 12.132 52.622 11.579 52.622 C 10.476 52.622 9.579 53.519 9.579 54.622 C 9.579 55.725 10.476 56.622 11.579 56.622 C 12.682 56.622 13.579 55.725 13.579 54.622 C 13.579 54.069 14.026 53.622 14.579 53.622 C 15.132 53.622 15.579 54.069 15.579 54.622 C 15.579 56.828 13.785 58.622 11.579 58.622 Z" fill="#D2D5D7"/><g><path d=" M 50.877 21.86 L 47.341 18.324 C 46.369 17.352 46.369 15.761 47.341 14.788 L 47.341 14.788 C 48.313 13.816 49.904 13.816 50.877 14.788 L 54.413 18.324 C 55.385 19.296 55.385 20.887 54.413 21.86 L 54.413 21.86 C 53.44 22.832 51.849 22.832 50.877 21.86 Z" fill="#A4E869"/><path d=" M 52.644 23.59 C 51.748 23.59 50.852 23.249 50.169 22.567 L 46.634 19.032 C 45.975 18.373 45.612 17.494 45.612 16.557 C 45.612 15.619 45.975 14.741 46.634 14.082 C 47.95 12.764 50.267 12.764 51.583 14.082 L 55.119 17.617 C 56.483 18.982 56.483 21.202 55.119 22.566 C 54.437 23.249 53.541 23.59 52.644 23.59 Z M 49.109 15.06 C 48.707 15.06 48.33 15.215 48.048 15.497 C 47.766 15.779 47.611 16.155 47.611 16.558 C 47.611 16.961 47.766 17.337 48.048 17.619 L 51.583 21.154 C 52.146 21.716 53.143 21.717 53.705 21.154 C 54.289 20.569 54.289 19.618 53.705 19.033 L 50.169 15.498 C 49.889 15.215 49.512 15.06 49.109 15.06 Z" fill="#A4E869"/></g></g><g></g><g></g><g></g><g></g><g></g><g></g><g></g><g></g><g></g><g></g><g></g><g></g><g></g><g></g><g></g></svg>