<svg version="1.1" width="79.531" height="79.531" viewBox="0 0 79.531 79.531" xmlns="http://www.w3.org/2000/svg" xmlns:xlink="http://www.w3.org/1999/xlink" id="Capa_1" overflow="hidden"><g><path d=" M 51.333 50.373 C 51.333 50.373 58.935 57.984 58.955 57.995 C 61.379 60.438 60.752 64.731 58.453 67.067 L 47.849 78.117 C 43.753 82.202 38.28 76.532 42.256 72.577 L 48.983 65.845 L 42.397 59.311 L 51.333 50.373 L 51.333 50.373 Z M 27.69 50.373 L 27.69 50.373 C 27.69 50.373 20.099 57.984 20.099 57.995 C 17.655 60.438 18.282 64.731 20.555 67.067 L 31.206 78.117 C 35.286 82.202 40.76 76.532 36.804 72.577 L 30.088 65.845 L 36.623 59.311 L 27.69 50.373 M 39.776 22.059 C 45.865 22.059 50.805 17.132 50.805 11.014 C 50.805 4.932 45.866 0 39.776 0 C 33.681 0 28.731 4.932 28.731 11.014 C 28.731 17.127 33.676 22.059 39.776 22.059 Z M 51.727 45.956 L 51.888 38.432 L 61.058 46.986 C 61.804 47.696 62.762 48.032 63.72 48.032 C 64.755 48.032 65.807 47.618 66.573 46.8 C 68.044 45.216 67.961 42.751 66.386 41.28 C 66.386 41.28 55.875 29.857 54.363 28.526 C 51.567 26.046 47.466 24.64 40.812 24.64 L 38.725 24.64 C 32.066 24.64 27.97 26.046 25.163 28.521 C 23.657 29.852 13.145 41.28 13.145 41.28 C 11.576 42.75 11.483 45.216 12.958 46.8 C 13.725 47.618 14.77 48.032 15.812 48.032 C 16.77 48.032 17.728 47.696 18.479 46.986 L 27.645 38.437 L 27.805 45.96 L 51.728 45.96 L 51.728 45.956 Z" fill="#010002"/></g><g></g><g></g><g></g><g></g><g></g><g></g><g></g><g></g><g></g><g></g><g></g><g></g><g></g><g></g><g></g></svg>