<svg version="1.1" width="661.333" height="661.333" viewBox="0 0 496 496" xmlns="http://www.w3.org/2000/svg" xmlns:xlink="http://www.w3.org/1999/xlink" overflow="hidden"><g fill="#F0BC5E"><path d=" M 100 8 C 66.8633 8 40 34.8633 40 68 L 40 104 L 160 72 L 160 68 C 160 34.8633 133.137 8 100 8 Z"/><path d=" M 264 312 C 264 294.328 249.672 280 232 280 L 132 280 L 160 240 L 136 216 L 96.8008 249.063 L 72 216 L 72 192 C 72 185.609 75.7695 180.145 81.1836 177.574 L 80 176 C 75.6719 171.672 73.0703 166.016 72.3281 160 L 48 160 L 46.9102 162.168 L 44.6797 155.313 L 26.7344 173.258 C 14.7422 185.258 8 201.535 8 218.512 L 8 352 C 8 377.105 24.2383 398.922 47.5273 406.574 L 48 448 L 188.305 486.977 C 190.754 487.656 193.289 488 195.84 488 C 211.391 488 224 475.391 224 459.84 L 224 458.414 C 224 454.816 223.258 451.297 221.945 448 L 264 448 Z M 208 338.383 L 208 429.336 L 148.586 360.016 L 149.055 359.922 C 169.016 355.93 190.281 348.441 208.656 337.961 Z"/><path d=" M 288 168 L 304 168 L 304 208 L 288 208 Z"/><path d=" M 320 168 L 336 168 L 336 208 L 320 208 Z"/></g><path d=" M 360 160 L 272 160 L 272 144 L 176 144 L 176 142.703 L 168 118.703 L 168 106.832 L 168.609 106.648 C 177.816 103.809 184 95.4336 184 85.8086 C 184 75.832 177.223 67.4883 167.84 64.9102 C 166.207 28.8477 136.449 0 100 0 C 62.5039 0 32 30.5039 32 68 L 32 144 C 32 147.695 32.9023 151.152 34.4063 154.281 L 21.0898 167.602 C 7.48828 181.191 0 199.281 0 218.504 L 0 352 C 0 370.953 8.13672 388.23 21.2227 400.281 C 9.3125 401.672 0 411.711 0 424 L 0 473.688 C 0 485.992 10.0078 496 22.3125 496 C 31.4883 496 39.625 490.496 43.0234 481.977 L 52.7617 457.625 L 186.145 494.68 C 189.297 495.551 192.559 496 195.84 496 C 197.266 496 198.617 495.742 200 495.574 L 200 496 L 289.688 496 C 301.992 496 312 485.992 312 473.688 C 312 464.512 306.496 456.375 297.977 452.977 L 272 442.586 L 272 312 C 272 291.375 256.246 274.543 236.176 272.426 L 290.215 240 L 296 240 C 312.359 240 326.414 230.105 332.609 216 L 368 216 L 368 208 L 432 208 L 432 160 Z M 276.688 229.457 L 209.938 269.504 C 203.84 273.16 195.586 272.617 190.016 268.168 L 164.391 247.672 L 164.84 247.039 L 180.328 243.168 C 191.91 240.273 200 229.902 200 217.969 C 200 217.297 199.855 216.664 199.801 216 L 234.16 216 L 207.367 233.281 L 216.039 246.727 L 263.688 216 L 267.719 216 Z M 97.9844 237.305 L 80 213.336 L 80 192 C 80 187.594 83.5938 184 88 184 L 131.719 184 L 141.48 198.648 Z M 56 168 C 59.3438 168 62.5195 167.305 65.4141 166.063 C 66.4141 169.695 67.8555 173.191 69.9688 176.328 C 66.2969 180.551 64 185.984 64 192 L 64 194.191 C 55.1133 185.887 44.8789 180.305 33.5938 177.719 L 45.7188 165.594 C 48.8477 167.098 52.3047 168 56 168 Z M 155.039 208 L 174.031 208 C 179.527 208 184 212.473 184 217.969 C 184 222.551 180.895 226.527 176.449 227.641 L 162.457 231.137 L 146.719 215.398 Z M 155.199 260.809 L 169.191 272 L 147.359 272 Z M 256 200 L 192.703 200 C 187.977 195.09 181.367 192 174.031 192 L 156.281 192 L 145.617 176 L 156.281 160 L 256 160 Z M 159.566 144 L 147.719 144 L 131.719 168 L 88 168 C 86.6563 168 85.3516 168.184 84.0625 168.398 C 81.5039 165.047 80 160.93 80 156.688 L 80 133.91 L 152 111.762 L 152 121.305 Z M 163.902 91.3516 L 64 122.09 L 64 144 C 64 148.406 60.4063 152 56 152 C 51.5938 152 48 148.406 48 144 L 48 110.145 L 160.313 80.1914 C 160.801 80.0625 161.305 80 162.191 80 C 165.391 80 168 82.6094 168 85.8086 C 168 88.3672 166.352 90.6016 163.902 91.3516 Z M 48 68 C 48 39.3281 71.3281 16 100 16 C 127.961 16 150.77 38.1914 151.895 65.8789 L 48 93.5938 Z M 22.5195 192.23 C 37.6875 193.367 50.5664 200.754 60.8008 214.398 L 85.9844 247.969 L 74.6797 258.016 L 85.3125 269.977 L 134.734 226.047 L 149.602 240.91 L 104.23 305.719 C 101.48 309.656 96.9688 312 92.168 312 C 87.2305 312 82.6563 309.543 79.9102 305.441 L 38.6563 243.559 L 25.3438 252.434 L 54.3828 296 L 16 296 L 16 218.504 C 16 209.191 18.2656 200.223 22.5195 192.23 Z M 120 312 C 124.406 312 128 315.594 128 320 C 128 324.406 124.406 328 120 328 L 56 328 L 56 312 L 65.0547 312 L 66.6016 314.32 C 72.3125 322.879 81.8633 328 92.168 328 C 102.191 328 111.609 323.098 117.344 314.887 L 119.359 312 Z M 16 312 L 40 312 L 40 352 L 16 352 Z M 40 446.465 L 28.168 476.039 C 27.207 478.449 24.9023 480 22.3125 480 C 18.832 480 16 477.168 16 473.688 L 16 424 C 16 419.594 19.5938 416 24 416 L 40 416 Z M 190.441 479.266 L 56 441.922 L 56 417.008 L 150.121 439.777 L 153.887 424.223 L 56.6563 400.711 C 56.4336 400.672 56.2227 400.574 56 400.535 L 56 400 L 54.0547 400 C 37.2656 395.992 24.1289 383.762 18.7344 368 L 40 368 C 48.8242 368 56 360.824 56 352 L 56 344 L 120 344 C 121.359 344 122.672 343.816 123.977 343.602 L 211.145 445.297 C 214.281 448.953 216 453.609 216 458.414 L 216 459.84 C 216 470.961 206.961 480 195.84 480 C 194.008 480 192.191 479.754 190.441 479.266 Z M 163.223 364.809 C 176.055 361.426 188.504 356.871 200 351.441 L 200 407.711 Z M 296 473.688 C 296 477.168 293.168 480 289.688 480 L 225.84 480 C 229.727 474.23 232 467.297 232 459.84 L 232 458.414 C 232 457.602 231.84 456.809 231.785 456 L 262.465 456 L 292.039 467.832 C 294.449 468.793 296 471.098 296 473.688 Z M 256 312 L 256 440 L 226.945 440 C 225.879 438.199 224.672 436.488 223.297 434.879 L 216 426.375 L 216 342.879 C 220.504 340.168 224.84 337.367 228.801 334.391 L 219.199 321.594 C 201.496 334.863 177.023 345.488 151.527 351.152 L 138.137 335.527 C 141.742 331.336 144 325.953 144 320 C 144 310.047 137.902 301.496 129.258 297.863 L 136.168 288 L 232 288 C 245.23 288 256 298.77 256 312 Z M 296 224 L 292.281 224 L 286.945 216 L 313.754 216 C 309.359 220.871 303.063 224 296 224 Z M 352 200 L 272 200 L 272 176 L 352 176 Z M 416 176 L 416 192 L 368 192 L 368 176 Z"/><path d=" M 436.41 136.848 L 468.406 120.848 L 475.563 135.156 L 443.563 151.156 Z"/><path d=" M 436.41 231.164 L 443.566 216.855 L 475.563 232.855 L 468.41 247.164 Z"/><path d=" M 448 176 L 496 176 L 496 192 L 448 192 Z"/></svg>