<svg version="1.1" viewBox="0 0 511.999 511.999" xmlns="http://www.w3.org/2000/svg" xmlns:xlink="http://www.w3.org/1999/xlink" id="Capa_1" overflow="hidden"><g><path d=" M 310.354 501.692 C 307.629 501.692 305 500.202 303.673 497.609 L 262.74 417.692 C 260.852 414.005 262.309 409.486 265.996 407.597 C 269.683 405.713 274.202 407.166 276.09 410.854 L 317.023 490.771 C 318.911 494.458 317.454 498.977 313.767 500.866 C 312.673 501.426 311.505 501.692 310.354 501.692 Z" fill="#1B3D66"/><path d=" M 136.384 501.692 C 135.233 501.692 134.065 501.426 132.971 500.866 C 129.284 498.977 127.826 494.458 129.715 490.771 L 170.648 410.854 C 172.537 407.166 177.058 405.71 180.742 407.597 C 184.429 409.486 185.887 414.005 183.998 417.692 L 143.065 497.609 C 141.737 500.202 139.109 501.692 136.384 501.692 Z" fill="#1B3D66"/></g><path d=" M 80.428 404.72 L 80.428 380.715 L 366.31 380.715 L 366.31 404.72 C 366.31 409.996 362.033 414.273 356.757 414.273 L 89.981 414.273 C 84.705 414.273 80.428 409.996 80.428 404.72 Z" fill="#F2DF33"/><path d=" M 342.06 380.715 L 342.06 404.72 C 342.06 409.996 337.783 414.273 332.507 414.273 L 356.757 414.273 C 362.033 414.273 366.31 409.996 366.31 404.72 L 366.31 380.715 L 342.06 380.715 Z" fill="#FCAB29"/><path d=" M 189.243 43.866 L 189.243 21.624 C 189.243 15.374 194.31 10.307 200.56 10.307 L 246.178 10.307 C 252.428 10.307 257.495 15.374 257.495 21.624 L 257.495 43.865 L 189.243 43.865 L 189.243 43.866 Z" fill="#F2DF33"/><path d=" M 246.178 10.308 L 221.756 10.308 C 228.006 10.308 233.073 15.375 233.073 21.625 L 233.073 43.866 L 257.495 43.866 L 257.495 21.625 C 257.495 15.374 252.428 10.308 246.178 10.308 Z" fill="#FCAB29"/><path d=" M 425.522 36.366 L 21.215 36.366 C 9.517 36.366 0 45.883 0 57.581 L 0 367 C 0 378.698 9.517 388.215 21.215 388.215 L 425.522 388.215 C 437.22 388.215 446.737 378.698 446.737 367 L 446.737 57.581 C 446.738 45.883 437.221 36.366 425.522 36.366 Z" fill="#EBEEF2"/><path d=" M 425.522 36.366 L 400.418 36.366 C 412.116 36.366 421.633 45.883 421.633 57.581 L 421.633 367 C 421.633 378.698 412.116 388.215 400.418 388.215 L 425.522 388.215 C 437.22 388.215 446.737 378.698 446.737 367 L 446.737 57.581 C 446.738 45.883 437.221 36.366 425.522 36.366 Z" fill="#D1D6DE"/><g><path d=" M 135.335 199.336 C 132.723 199.336 130.186 197.97 128.805 195.536 C 126.761 191.933 128.024 187.356 131.627 185.311 L 170.035 163.517 C 173.636 161.473 178.215 162.737 180.259 166.339 C 182.303 169.942 181.04 174.519 177.437 176.564 L 139.029 198.358 C 137.861 199.021 136.59 199.336 135.335 199.336 Z" fill="#1B3D66"/><path d=" M 242.566 199.336 C 241.312 199.336 240.041 199.022 238.872 198.358 L 200.464 176.564 C 196.861 174.519 195.598 169.942 197.642 166.339 C 199.686 162.735 204.263 161.473 207.866 163.517 L 246.274 185.311 C 249.877 187.356 251.14 191.933 249.096 195.536 C 247.715 197.97 245.177 199.336 242.566 199.336 Z" fill="#1B3D66"/><path d=" M 267.965 193.759 C 266.454 193.759 264.929 193.304 263.607 192.358 C 260.239 189.947 259.462 185.262 261.873 181.894 L 310.338 114.167 C 312.749 110.798 317.433 110.021 320.802 112.432 C 324.17 114.843 324.947 119.528 322.536 122.896 L 274.071 190.623 C 272.606 192.669 270.303 193.759 267.965 193.759 Z" fill="#1B3D66"/></g><g><path d=" M 104.902 274.326 L 104.902 334.599 C 104.902 336.256 106.245 337.599 107.902 337.599 L 132.329 337.599 C 133.986 337.599 135.329 336.256 135.329 334.599 L 135.329 274.326 C 135.329 272.669 133.986 271.326 132.329 271.326 L 107.902 271.326 C 106.245 271.326 104.902 272.669 104.902 274.326 Z" fill="#48CFB7"/><path d=" M 173.738 235.998 L 173.738 334.598 C 173.738 336.255 175.081 337.598 176.738 337.598 L 201.165 337.598 C 202.822 337.598 204.165 336.255 204.165 334.598 L 204.165 235.998 C 204.165 234.341 202.822 232.998 201.165 232.998 L 176.738 232.998 C 175.081 232.998 173.738 234.342 173.738 235.998 Z" fill="#48CFB7"/><path d=" M 242.573 274.326 L 242.573 334.599 C 242.573 336.256 243.916 337.599 245.573 337.599 L 270 337.599 C 271.657 337.599 273 336.256 273 334.599 L 273 274.326 C 273 272.669 271.657 271.326 270 271.326 L 245.573 271.326 C 243.916 271.326 242.573 272.669 242.573 274.326 Z" fill="#48CFB7"/><path d=" M 311.409 206.111 L 311.409 334.599 C 311.409 336.256 312.752 337.599 314.409 337.599 L 338.836 337.599 C 340.493 337.599 341.836 336.256 341.836 334.599 L 341.836 206.111 C 341.836 204.454 340.493 203.111 338.836 203.111 L 314.409 203.111 C 312.752 203.111 311.409 204.454 311.409 206.111 Z" fill="#48CFB7"/></g><path d=" M 411.253 309.909 L 470.435 412.416 C 476.585 423.069 490.207 426.719 500.859 420.568 L 500.859 420.568 C 511.512 414.418 515.161 400.796 509.011 390.144 L 449.83 287.637 L 411.253 309.909 Z" fill="#ED5575"/><path d=" M 449.83 287.637 L 411.253 309.909 L 434.323 349.868 C 441.249 347.427 448.052 344.323 454.642 340.518 C 461.233 336.713 467.322 332.374 472.899 327.596 L 449.83 287.637 Z" fill="#CC3A60"/><circle cx="394.38" cy="236.14" r="95.96" fill="#F2DF33"/><circle cx="394.38" cy="236.14" r="67.53" fill="#5C9CEE"/><path d=" M 188.951 136.396 C 175.166 136.396 163.951 147.611 163.951 161.396 C 163.951 175.181 175.166 186.397 188.951 186.397 C 202.736 186.397 213.951 175.181 213.951 161.396 C 213.951 147.611 202.736 136.396 188.951 136.396 Z" fill="#F2DF33"/><path d=" M 120.115 175.479 C 106.33 175.479 95.115 186.695 95.115 200.48 C 95.115 214.265 106.33 225.481 120.115 225.481 C 133.9 225.481 145.115 214.265 145.115 200.48 C 145.115 186.695 133.9 175.479 120.115 175.479 Z" fill="#5C9CEE"/><path d=" M 257.787 175.479 C 244.002 175.479 232.787 186.695 232.787 200.48 C 232.787 214.265 244.002 225.481 257.787 225.481 C 271.573 225.481 282.788 214.265 282.788 200.48 C 282.788 186.695 271.572 175.479 257.787 175.479 Z" fill="#ED5575"/><path d=" M 326.623 79.311 C 312.838 79.311 301.623 90.527 301.623 104.312 C 301.623 118.097 312.838 129.312 326.623 129.312 C 340.408 129.312 351.623 118.097 351.623 104.312 C 351.623 90.527 340.408 79.311 326.623 79.311 Z" fill="#9FD479"/><g></g><g></g><g></g><g></g><g></g><g></g><g></g><g></g><g></g><g></g><g></g><g></g><g></g><g></g><g></g></svg>