<svg version="1.1" viewBox="0 0 511.997 511.997" xmlns="http://www.w3.org/2000/svg" xmlns:xlink="http://www.w3.org/1999/xlink" id="Layer_1" overflow="hidden"><path d=" M 329.386 86.152 C 331.417 82.075 329.756 77.12 325.671 75.09 C 321.594 73.051 316.639 74.727 314.609 78.805 L 259.17 190.207 C 258.142 189.907 257.084 189.727 255.997 189.727 C 254.91 189.727 253.852 189.906 252.824 190.207 L 197.387 78.805 C 195.356 74.728 190.394 73.053 186.325 75.09 C 182.24 77.121 180.581 82.075 182.61 86.152 L 240.36 202.2 C 240.606 202.695 240.948 203.102 241.273 203.523 C 240.174 206.838 239.498 213.888 239.498 217.842 L 272.498 217.842 C 272.498 213.888 271.823 206.839 270.723 203.523 C 271.048 203.102 271.389 202.695 271.636 202.2 L 329.386 86.152 Z" fill="#6B676E"/><path d=" M 264.248 305.776 L 264.248 239.776 C 264.248 239.776 338.498 83.027 462.247 83.027 C 462.247 83.027 544.07 204.706 404.497 231.526 C 404.497 231.526 536.496 314.026 396.247 421.275 C 396.247 421.275 338.497 446.025 321.997 429.525 C 305.498 413.025 264.248 305.776 264.248 305.776 Z" fill="#FFAA64"/><g><path d=" M 272.498 289.276 L 354.998 429.525 L 330.248 437.775 L 297.248 396.525 L 264.248 297.526 Z" fill="#FFC878"/><path d=" M 445.747 215.026 L 437.497 190.276 L 338.498 190.276 L 280.748 239.776 L 280.748 248.026 L 330.248 239.776 L 379.748 223.276 Z" fill="#FFC878"/></g><g><path d=" M 297.248 215.026 C 297.248 215.026 387.998 149.026 462.247 132.526 L 453.997 99.526 L 371.497 107.776 L 288.997 206.776 L 297.248 215.026 Z" fill="#FF9155"/><path d=" M 272.498 264.526 L 272.498 248.026 C 272.498 248.026 354.998 223.276 396.247 231.526 C 437.497 239.776 462.247 297.526 445.747 297.526 C 429.247 297.526 272.498 264.526 272.498 264.526 Z" fill="#FF9155"/></g><path d=" M 255.998 310.249 C 271.297 360.617 300.649 442.992 329.546 445.444 C 334.017 445.822 338.409 446.016 342.718 446.016 C 387.222 446.016 423.236 425.713 452.489 384.23 C 471.092 357.853 476.723 325.167 467.934 294.544 C 460.78 269.626 444.607 248.215 421.485 232.176 C 422.098 232.18 422.731 232.211 423.34 232.211 C 444.28 232.211 463.749 229.724 478.746 214.478 C 499.43 193.451 509.418 120.707 511.746 98.978 C 513.293 84.541 508.652 65.978 470.496 65.978 C 343.653 65.978 255.997 235.65 255.997 248.025 C 255.997 248.025 266.568 253.312 286.223 253.312 C 301.287 253.312 321.69 250.204 346.747 239.227 C 359.423 233.674 372.935 232.015 386.547 231.693 C 386.668 231.751 386.744 231.859 386.87 231.912 C 396.018 235.751 404.311 240.366 411.822 245.554 C 365.354 244.247 347.179 257.565 341.328 263.727 C 298.639 257.063 267.279 258.238 264.926 258.345 L 256 258.732 L 255.998 310.249 L 255.998 310.249 Z M 393.551 128.088 C 391.062 136.169 387.043 145.099 380.678 154.268 C 344.161 170.135 316.463 189.05 297.452 204.57 C 315.716 176.75 343.146 142.092 377.326 116.811 C 385.402 110.84 396.507 118.49 393.551 128.088 Z M 441.571 133.737 C 428.642 136.924 416.432 140.619 404.954 144.69 C 408.161 137.387 410.27 130.411 411.619 124.022 C 412.813 118.364 417.935 114.194 423.719 114.285 C 431.434 114.407 437.668 115.76 442.689 117.76 C 450.312 120.798 449.539 131.774 441.571 133.737 Z M 463.158 187.72 C 433.529 176.696 400.053 174.719 374.834 175.4 C 396.488 164.918 421.784 155.381 450.671 148.601 C 468.925 144.316 484.764 162.19 478.694 179.93 C 478.641 180.083 478.589 180.236 478.536 180.389 C 476.348 186.724 469.44 190.057 463.158 187.72 Z M 408.51 215.43 C 403.112 215.279 397.67 215.129 392.227 215.129 C 376.608 215.129 358.204 216.196 340.128 224.115 C 321.024 232.485 303.01 236.734 286.568 236.791 C 295.89 227.45 313.698 211.346 339.86 194.814 C 346.693 193.812 385.823 188.666 425.354 194.998 C 437.913 197.008 436.578 215.686 423.86 215.712 C 423.688 215.712 423.516 215.713 423.342 215.713 C 418.467 215.712 413.509 215.571 408.51 215.43 Z M 431.245 287.974 C 408.616 278.86 386.034 272.505 365.124 268.094 C 374.933 264.234 391.727 260.709 419.217 262.409 C 428.248 262.967 436.41 268.012 441.288 275.632 C 441.357 275.74 441.426 275.85 441.495 275.958 C 445.812 282.764 438.72 290.986 431.245 287.974 Z M 425.138 340.173 C 412.599 327.204 399.067 310.252 391.976 291.989 C 409.666 297.132 427.852 303.805 445.617 312.444 C 451.795 315.449 455.684 321.977 455.239 328.832 C 455.215 329.202 455.188 329.572 455.16 329.942 C 454.009 344.712 435.436 350.824 425.138 340.173 Z M 396.919 388.231 C 367.872 342.852 317.1 297.922 289.41 275.177 C 309.193 276.113 339.485 278.96 373.072 286.974 C 381.189 318.722 407.212 346.92 425.243 363.344 C 433.177 370.571 433.496 382.716 426.303 390.682 C 426.201 390.794 426.099 390.908 425.998 391.02 C 417.882 399.953 403.425 398.394 396.919 388.231 Z M 285.687 293.648 C 314.862 318.257 361.896 361.418 386.5 402.707 C 391.142 410.497 387.156 420.558 378.592 423.536 C 378.502 423.568 378.412 423.6 378.322 423.631 C 371.984 425.816 364.96 423.17 361.46 417.452 L 285.687 293.648 Z M 270.175 299.91 L 340.08 414.125 C 344.214 420.881 339.03 429.68 331.138 429.025 C 331.075 429.019 331.011 429.014 330.948 429.008 C 316.643 427.791 289.664 364.762 270.175 299.91 Z" fill="#464655"/><path d=" M 247.748 305.776 L 247.748 239.776 C 247.748 239.776 173.498 83.027 49.749 83.027 C 49.749 83.027 -32.074 204.706 107.499 231.526 C 107.499 231.526 -24.5 314.026 115.749 421.275 C 115.749 421.275 173.499 446.025 189.999 429.525 C 206.498 413.025 247.748 305.776 247.748 305.776 Z" fill="#FFAA64"/><g><path d=" M 239.498 289.276 L 156.998 429.525 L 181.748 437.775 L 214.748 396.525 L 247.748 297.526 Z" fill="#FFC878"/><path d=" M 66.25 215.026 L 74.5 190.276 L 173.498 190.276 L 231.248 239.776 L 231.248 248.026 L 181.748 239.776 L 132.249 223.276 Z" fill="#FFC878"/></g><g><path d=" M 214.748 215.026 C 214.748 215.026 123.998 149.026 49.749 132.526 L 57.999 99.526 L 140.499 107.776 L 222.999 206.776 L 214.748 215.026 Z" fill="#FF9155"/><path d=" M 239.498 264.526 L 239.498 248.026 C 239.498 248.026 156.998 223.276 115.749 231.526 C 74.499 239.776 49.749 297.526 66.249 297.526 C 82.749 297.526 239.498 264.526 239.498 264.526 Z" fill="#FF9155"/></g><path d=" M 255.998 258.733 L 247.072 258.346 C 244.719 258.239 213.36 257.064 170.67 263.728 C 164.819 257.566 146.644 244.249 100.176 245.555 C 107.687 240.367 115.98 235.751 125.128 231.913 C 125.253 231.86 125.329 231.752 125.451 231.694 C 139.062 232.017 152.575 233.675 165.251 239.228 C 190.308 250.206 210.71 253.313 225.775 253.313 C 245.43 253.313 256.001 248.026 256.001 248.026 C 256 235.652 168.344 65.98 41.501 65.98 C 3.345 65.98 -1.296 84.542 0.251 98.98 C 2.579 120.708 12.567 193.452 33.251 214.48 C 48.248 229.726 67.716 232.213 88.657 232.213 C 89.266 232.213 89.9 232.182 90.512 232.178 C 67.389 248.218 51.216 269.628 44.063 294.546 C 35.274 325.169 40.905 357.855 59.508 384.232 C 88.761 425.716 124.775 446.018 169.279 446.018 C 173.59 446.018 177.98 445.824 182.451 445.446 C 211.349 442.993 240.701 360.618 255.999 310.251 L 255.999 258.734 L 255.998 258.734 Z M 134.671 116.812 C 168.852 142.093 196.282 176.751 214.546 204.571 C 195.534 189.05 167.837 170.135 131.319 154.269 C 124.954 145.1 120.935 136.17 118.446 128.089 C 115.49 118.49 126.595 110.84 134.671 116.812 Z M 69.309 117.76 C 74.33 115.759 80.565 114.406 88.279 114.285 C 94.062 114.194 99.184 118.364 100.379 124.022 C 101.728 130.412 103.837 137.387 107.044 144.69 C 95.565 140.619 83.354 136.924 70.427 133.737 C 62.458 131.774 61.685 120.798 69.309 117.76 Z M 33.461 180.389 C 33.408 180.236 33.356 180.083 33.303 179.93 C 27.233 162.189 43.072 144.316 61.326 148.601 C 90.213 155.381 115.509 164.918 137.162 175.4 C 111.943 174.719 78.468 176.696 48.838 187.72 C 42.557 190.057 35.649 186.724 33.461 180.389 Z M 88.656 215.712 C 88.483 215.712 88.311 215.711 88.138 215.711 C 75.42 215.685 74.085 197.007 86.644 194.997 C 126.176 188.665 165.305 193.812 172.138 194.813 C 198.3 211.345 216.107 227.449 225.43 236.79 C 208.987 236.733 190.974 232.484 171.87 224.114 C 153.794 216.195 135.391 215.128 119.771 215.128 C 114.328 215.128 108.884 215.279 103.487 215.429 C 98.488 215.571 93.53 215.712 88.656 215.712 Z M 70.502 275.958 C 70.571 275.85 70.64 275.74 70.709 275.632 C 75.587 268.011 83.749 262.967 92.78 262.409 C 120.27 260.71 137.064 264.234 146.873 268.094 C 125.963 272.506 103.381 278.86 80.752 287.974 C 73.277 290.986 66.185 282.764 70.502 275.958 Z M 56.838 329.941 C 56.809 329.572 56.783 329.202 56.759 328.831 C 56.314 321.977 60.202 315.449 66.381 312.443 C 84.146 303.804 102.332 297.131 120.022 291.988 C 112.932 310.251 99.399 327.202 86.86 340.172 C 76.561 350.824 57.988 344.712 56.838 329.941 Z M 86 391.021 C 85.898 390.909 85.796 390.795 85.695 390.683 C 78.502 382.717 78.821 370.572 86.755 363.345 C 104.785 346.921 130.809 318.724 138.926 286.975 C 172.513 278.96 202.804 276.114 222.588 275.178 C 194.898 297.923 144.127 342.853 115.079 388.232 C 108.572 398.394 94.115 399.953 86 391.021 Z M 150.538 417.452 C 147.038 423.17 140.014 425.816 133.676 423.631 C 133.586 423.6 133.496 423.568 133.406 423.536 C 124.842 420.557 120.857 410.496 125.498 402.707 C 150.101 361.418 197.136 318.256 226.311 293.648 L 150.538 417.452 Z M 181.048 429.01 C 180.985 429.015 180.921 429.02 180.858 429.027 C 172.966 429.682 167.782 420.882 171.916 414.127 L 241.821 299.912 C 222.333 364.762 195.354 427.791 181.048 429.01 Z" fill="#464655"/><path d=" M 255.998 395.978 C 251.438 395.978 247.748 392.288 247.748 387.728 L 247.748 288.728 C 247.748 284.168 251.438 280.478 255.998 280.478 C 260.558 280.478 264.248 284.168 264.248 288.728 L 264.248 387.728 C 264.248 392.287 260.558 395.978 255.998 395.978 Z" fill="#6B676E"/><path d=" M 255.998 396.525 L 255.998 396.525 C 251.442 396.525 247.748 392.831 247.748 388.275 L 247.748 363.525 C 247.748 358.969 251.442 355.275 255.998 355.275 L 255.998 355.275 C 260.554 355.275 264.248 358.969 264.248 363.525 L 264.248 388.275 C 264.248 392.831 260.555 396.525 255.998 396.525 Z" fill="#FF9155"/><ellipse cx="255.995" cy="251.601" rx="24.75" ry="44.828" fill="#464655"/><g></g><g></g><g></g><g></g><g></g><g></g><g></g><g></g><g></g><g></g><g></g><g></g><g></g><g></g><g></g></svg>