<svg version="1.1" width="629.333" height="629.333" viewBox="-3 0 471 472" xmlns="http://www.w3.org/2000/svg" xmlns:xlink="http://www.w3.org/1999/xlink" overflow="hidden"><path d=" M 160.5 272 C 160.5 294.09 142.59 312 120.5 312 C 98.4102 312 80.5 294.09 80.5 272 C 80.5 249.91 98.4102 232 120.5 232 C 142.59 232 160.5 249.91 160.5 272 Z" fill="#F9C170"/><path d=" M 144.5 288 C 131.5 287.961 119.336 281.605 111.871 270.961 C 104.41 260.32 102.586 246.715 106.98 234.48 C 89.4102 240.688 78.457 258.199 80.5586 276.715 C 82.6641 295.227 97.2734 309.836 115.785 311.941 C 134.301 314.043 151.813 303.09 158.02 285.52 C 153.691 287.121 149.117 287.961 144.5 288 Z" fill="#FAA108"/><path d=" M 16.5 240 L 24.5 240 C 33.3359 240 40.5 247.164 40.5 256 L 40.5 456 C 40.5 464.836 33.3359 472 24.5 472 L 16.5 472 C 7.66406 472 0.5 464.836 0.5 456 L 0.5 256 C 0.5 247.164 7.66406 240 16.5 240 Z" fill="#70DDA8"/><path d=" M 424.5 344 L 448.5 344 C 457.336 344 464.5 351.164 464.5 360 L 464.5 456 C 464.5 464.836 457.336 472 448.5 472 L 440.5 472 C 431.664 472 424.5 464.836 424.5 456 Z" fill="#70DDA8"/><path d=" M 72.5 312 L 136.5 312 L 136.5 344 L 72.5 344 Z" fill="#40BF7C"/><path d=" M 360.5 344 L 360.5 360 C 360.5 377.672 346.172 392 328.5 392 L 192.5 392 C 174.828 392 160.5 377.672 160.5 360 L 160.5 344 L 40.5 344 L 40.5 424 L 424.5 424 L 424.5 344 Z" fill="#FD412D"/><path d=" M 360.5 296 L 400.5 296 C 413.754 296 424.5 306.746 424.5 320 C 424.5 333.254 413.754 344 400.5 344 L 360.5 344 Z" fill="#F9C170"/><path d=" M 328.5 392 L 192.5 392 C 174.828 392 160.5 377.672 160.5 360 L 160.5 272.559 C 160.5 262.766 164.988 253.508 172.68 247.441 C 180.367 241.375 190.414 239.164 199.941 241.441 L 354.34 278.559 C 358.031 279.43 360.602 282.77 360.5 286.559 L 360.5 360 C 360.5 377.672 346.172 392 328.5 392 Z" fill="#70DDA8"/><path d=" M 272.5 8 L 464.5 8 L 464.5 200 L 272.5 200 Z" fill="#70DDA8"/><path d=" M 408.5 152 C 355.48 152 312.5 109.02 312.5 56 L 312.5 8 L 272.5 8 L 272.5 200 L 464.5 200 L 464.5 152 Z" fill="#40BF7C"/><g fill="#FAA108"><path d=" M 360.5 143.121 C 342.828 143.121 328.5 128.793 328.5 111.121 C 328.508 108.719 328.801 106.328 329.379 104 C 313.91 107.477 303.316 121.762 304.484 137.578 C 305.652 153.391 318.227 165.965 334.043 167.133 C 349.855 168.301 364.141 157.711 367.621 142.238 C 365.289 142.816 362.898 143.113 360.5 143.121 Z"/><path d=" M 428.5 96 L 428.5 92 L 432.5 92 C 436.918 92 440.5 88.418 440.5 84 C 440.5 79.582 436.918 76 432.5 76 L 428.5 76 L 428.5 72 C 428.5 67.582 424.918 64 420.5 64 C 416.082 64 412.5 67.582 412.5 72 L 412.5 76 L 408.5 76 C 404.082 76 400.5 79.582 400.5 84 C 400.5 88.418 404.082 92 408.5 92 L 412.5 92 L 412.5 96 C 412.5 100.418 416.082 104 420.5 104 C 424.918 104 428.5 100.418 428.5 96 Z"/><path d=" M 344.5 44 L 340.5 44 L 340.5 40 C 340.5 35.582 336.918 32 332.5 32 C 328.082 32 324.5 35.582 324.5 40 L 324.5 44 L 320.5 44 C 316.082 44 312.5 47.582 312.5 52 C 312.5 56.418 316.082 60 320.5 60 L 324.5 60 L 324.5 64 C 324.5 68.418 328.082 72 332.5 72 C 336.918 72 340.5 68.418 340.5 64 L 340.5 60 L 344.5 60 C 348.918 60 352.5 56.418 352.5 52 C 352.5 47.582 348.918 44 344.5 44 Z"/><path d=" M 392.5 40 C 392.5 44.418 388.918 48 384.5 48 C 380.082 48 376.5 44.418 376.5 40 C 376.5 35.582 380.082 32 384.5 32 C 388.918 32 392.5 35.582 392.5 40 Z"/><path d=" M 440.5 160 C 440.5 164.418 436.918 168 432.5 168 C 428.082 168 424.5 164.418 424.5 160 C 424.5 155.582 428.082 152 432.5 152 C 436.918 152 440.5 155.582 440.5 160 Z"/></g><path d=" M 104.5 112 L 83.7813 112 L 110.18 85.6797 C 112.449 83.3789 113.113 79.9375 111.859 76.9609 C 110.633 73.9727 107.73 72.0156 104.5 72 L 64.5 72 C 60.082 72 56.5 75.582 56.5 80 C 56.5 84.418 60.082 88 64.5 88 L 85.2188 88 L 58.8203 114.32 C 56.5508 116.621 55.8867 120.063 57.1406 123.039 C 58.3672 126.027 61.2695 127.984 64.5 128 L 104.5 128 C 108.918 128 112.5 124.418 112.5 120 C 112.5 115.582 108.918 112 104.5 112 Z" fill="#40BF7C"/><path d=" M 192.5 48 L 163.781 48 L 198.18 13.6797 C 200.449 11.3789 201.113 7.9375 199.859 4.96094 C 198.633 1.97266 195.73 0.015625 192.5 -8.88178e-16 L 144.5 -8.88178e-16 C 140.082 -8.88178e-16 136.5 3.58203 136.5 8 C 136.5 12.418 140.082 16 144.5 16 L 173.219 16 L 138.82 50.3203 C 136.551 52.6211 135.887 56.0625 137.141 59.0391 C 138.367 62.0273 141.27 63.9844 144.5 64 L 192.5 64 C 196.918 64 200.5 60.418 200.5 56 C 200.5 51.582 196.918 48 192.5 48 Z" fill="#40BF7C"/><path d=" M 160.5 184 L 145.141 184 L 166.738 156.961 C 168.633 154.57 169.008 151.313 167.699 148.559 C 166.375 145.781 163.578 144.008 160.5 144 L 128.5 144 C 124.082 144 120.5 147.582 120.5 152 C 120.5 156.418 124.082 160 128.5 160 L 143.859 160 L 122.262 187.039 C 120.367 189.43 119.992 192.688 121.301 195.441 C 122.625 198.219 125.422 199.992 128.5 200 L 160.5 200 C 164.918 200 168.5 196.418 168.5 192 C 168.5 187.582 164.918 184 160.5 184 Z" fill="#40BF7C"/><path d=" M 0.5 394.801 L 0.5 456 C 0.5 464.836 7.66406 472 16.5 472 L 24.5 472 C 33.3359 472 40.5 464.836 40.5 456 L 40.5 436.879 C 22.3672 428.355 8.09375 413.34 0.5 394.801 Z" fill="#40BF7C"/><path d=" M 424.5 392 L 424.5 456 C 424.5 464.836 431.664 472 440.5 472 L 448.5 472 C 457.336 472 464.5 464.836 464.5 456 L 464.5 444.48 C 447.301 436.961 432.898 417.84 424.5 392 Z" fill="#40BF7C"/><path d=" M 376.5 352.719 L 376.5 344 L 360.5 344 L 360.5 360 C 360.5 377.672 346.172 392 328.5 392 L 192.5 392 C 174.828 392 160.5 377.672 160.5 360 L 160.5 344 L 80.5 344 L 80.5 352.719 C 80.8945 392.203 113.016 424.004 152.5 424 L 304.5 424 C 343.984 424.004 376.105 392.203 376.5 352.719 Z" fill="#D6332B"/><path d=" M 372.18 296 L 360.5 296 L 360.5 344 L 400.5 344 C 403.742 343.988 406.949 343.336 409.941 342.078 C 391.891 332.152 378.363 315.648 372.18 296 Z" fill="#FAA108"/><path d=" M 160.5 304.48 L 160.5 360 C 160.5 377.672 174.828 392 192.5 392 L 328.5 392 C 336.91 392.008 344.988 388.703 350.98 382.801 C 263.539 376.48 191.301 345.84 160.5 304.48 Z" fill="#40BF7C"/></svg>