<svg version="1.1" width="640" height="640" viewBox="-40 0 480 480" xmlns="http://www.w3.org/2000/svg" xmlns:xlink="http://www.w3.org/1999/xlink" overflow="hidden"><path d=" M 160 248 L 288 248 L 288 328 L 160 328 Z" fill="#4398D1"/><path d=" M 296 96 L 152 96 L 152 51.832 C 152 31.4414 158.191 19.8711 168.504 13 C 173.391 9.73828 179.133 8 185.008 8 L 190.992 8 C 196.867 8 202.609 9.73828 207.496 13 C 217.492 19.6563 230.508 19.6563 240.504 13 C 245.391 9.73828 251.133 8 257.008 8 L 262.992 8 C 268.867 8 274.609 9.73828 279.496 13 C 289.809 19.8711 296 31.4414 296 51.832 Z" fill="#995023"/><path d=" M 279.496 13 C 274.609 9.73828 268.867 8 262.992 8 L 257.008 8 C 252.5 8.00781 248.051 9.04297 244 11.0234 C 245.211 11.6016 246.379 12.2617 247.496 13 C 257.809 19.8711 264 31.4414 264 51.832 L 264 112 L 296 112 L 296 51.832 C 296 31.4414 289.809 19.8711 279.496 13 Z" fill="#8F4B21"/><path d=" M 152 160 L 136 160 C 118.328 160 104 145.672 104 128 C 104 110.328 118.328 96 136 96 L 312 96 C 329.672 96 344 110.328 344 128 C 344 145.672 329.672 160 312 160 L 296 160" fill="#7A3E1A"/><path d=" M 152 72 L 296 72 L 296 96 L 152 96 Z" fill="#E3E3E1"/><path d=" M 264 72 L 296 72 L 296 96 L 264 96 Z" fill="#DBDBD9"/><path d=" M 152 104 L 152 176 C 152 215.766 184.234 248 224 248 C 263.766 248 296 215.766 296 176 L 296 104 Z" fill="#FEC9A3"/><path d=" M 152 104 L 296 104 L 296 128 L 152 128 Z" fill="#FEC093"/><path d=" M 264 112 L 264 176 C 263.977 209.582 240.742 238.688 208 246.152 C 229.359 251.094 251.809 246.004 268.949 232.34 C 286.094 218.672 296.055 197.926 296 176 L 296 112 Z" fill="#FEC093"/><path d=" M 188 144 C 181.371 144 176 138.629 176 132 C 176 125.371 181.371 120 188 120 C 194.629 120 200 125.371 200 132 C 200 138.629 194.629 144 188 144 Z" fill="#7A3E1A"/><path d=" M 260 144 C 253.371 144 248 138.629 248 132 C 248 125.371 253.371 120 260 120 C 266.629 120 272 125.371 272 132 C 272 138.629 266.629 144 260 144 Z" fill="#7A3E1A"/><path d=" M 72 408 L 72 472 C 102.93 472 128 446.93 128 416 L 128 408 Z" fill="#FEB784"/><path d=" M 72 408 L 128 408 L 128 424 L 72 424 Z" fill="#F4A876"/><g fill="#D13E37"><path d=" M 320 480 L 320 408 L 376 408 L 376 304 C 376 273.07 350.93 248 320 248 L 128 248 C 97.0742 248 72 273.07 72 304 L 72 408 L 128 408 L 128 480"/><path d=" M 128 280 L 160 280 L 160 312 L 128 312 Z"/><path d=" M 192 280 L 224 280 L 224 312 L 192 312 Z"/><path d=" M 320 280 L 352 280 L 352 312 L 320 312 Z"/><path d=" M 256 280 L 288 280 L 288 312 L 256 312 Z"/><path d=" M 128 344 L 160 344 L 160 376 L 128 376 Z"/><path d=" M 192 344 L 224 344 L 224 376 L 192 376 Z"/><path d=" M 320 344 L 352 344 L 352 376 L 320 376 Z"/><path d=" M 256 344 L 288 344 L 288 376 L 256 376 Z"/><path d=" M 96 280 L 77.4648 280 C 73.875 287.492 72.0078 295.691 72 304 L 72 312 L 96 312 Z"/></g><path d=" M 192 248 L 224 248 L 224 280 L 192 280 Z" fill="#DD4A43"/><path d=" M 128 248 L 160 248 L 160 280 L 128 280 Z" fill="#DD4A43"/><path d=" M 256 248 L 288 248 L 288 280 L 256 280 Z" fill="#DD4A43"/><path d=" M 96 258.078 C 88.0234 263.652 81.6367 271.207 77.4648 280 L 96 280 Z" fill="#DD4A43"/><path d=" M 352 280 L 352 258.078 C 342.625 251.512 331.449 247.992 320 248 L 320 280 Z" fill="#DD4A43"/><path d=" M 72 312 L 96 312 L 96 344 L 72 344 Z" fill="#DD4A43"/><path d=" M 256 312 L 288 312 L 288 344 L 256 344 Z" fill="#DD4A43"/><path d=" M 192 312 L 224 312 L 224 344 L 192 344 Z" fill="#DD4A43"/><path d=" M 128 312 L 160 312 L 160 344 L 128 344 Z" fill="#DD4A43"/><path d=" M 224 312 L 256 312 L 256 344 L 224 344 Z" fill="#C43A34"/><path d=" M 224 248 L 256 248 L 256 280 L 224 280 Z" fill="#C43A34"/><path d=" M 224 344 L 256 344 L 256 376 L 224 376 Z" fill="#B53630"/><path d=" M 224 280 L 256 280 L 256 312 L 224 312 Z" fill="#B53630"/><path d=" M 288 312 L 320 312 L 320 344 L 288 344 Z" fill="#C43A34"/><path d=" M 288 248 L 320 248 L 320 280 L 288 280 Z" fill="#C43A34"/><path d=" M 288 344 L 320 344 L 320 376 L 288 376 Z" fill="#B53630"/><path d=" M 288 280 L 320 280 L 320 312 L 288 312 Z" fill="#B53630"/><path d=" M 352 312 L 376 312 L 376 344 L 352 344 Z" fill="#C43A34"/><path d=" M 352 258.078 L 352 280 L 370.535 280 C 366.363 271.207 359.977 263.652 352 258.078 Z" fill="#C43A34"/><path d=" M 352 344 L 376 344 L 376 376 L 352 376 Z" fill="#B53630"/><path d=" M 352 312 L 376 312 L 376 304 C 375.992 295.691 374.125 287.492 370.535 280 L 352 280 Z" fill="#B53630"/><path d=" M 160 312 L 192 312 L 192 344 L 160 344 Z" fill="#C43A34"/><path d=" M 160 248 L 192 248 L 192 280 L 160 280 Z" fill="#C43A34"/><path d=" M 160 344 L 192 344 L 192 376 L 160 376 Z" fill="#B53630"/><path d=" M 160 280 L 192 280 L 192 312 L 160 312 Z" fill="#B53630"/><path d=" M 96 312 L 128 312 L 128 344 L 96 344 Z" fill="#C43A34"/><path d=" M 96 344 L 128 344 L 128 376 L 96 376 Z" fill="#B53630"/><path d=" M 96 280 L 128 280 L 128 312 L 96 312 Z" fill="#B53630"/><path d=" M 96 280 L 128 280 L 128 248 C 116.551 247.992 105.379 251.512 96 258.078 Z" fill="#C43A34"/><path d=" M 320 312 L 352 312 L 352 344 L 320 344 Z" fill="#DD4A43"/><path d=" M 72 344 L 96 344 L 96 376 L 72 376 Z" fill="#D13E37"/><path d=" M 176 248 L 224 328 L 272 248 Z" fill="#4398D1"/><path d=" M 392 408 L 320 408 L 320 376 L 392 376 Z" fill="#DD4A43"/><path d=" M 320 480 L 320 408 L 376 408 L 376 480" fill="#FEB784"/><path d=" M 128 248 L 160 248 L 160 328 L 128 328 Z" fill="#7A3E1A"/><path d=" M 288 248 L 320 248 L 320 328 L 288 328 Z" fill="#7A3E1A"/><path d=" M 128 328 L 128 480 L 320 480 L 320 328 Z" fill="#995023"/><path d=" M 128 456 L 128 480 L 320 480 L 320 338.695 C 268.543 413.656 183.887 443.93 128 456 Z" fill="#8F4B21"/><path d=" M 152 352 L 168 352 L 168 368 L 152 368 Z" fill="#7A3E1A"/><path d=" M 280 352 L 296 352 L 296 368 L 280 368 Z" fill="#7A3E1A"/><path d=" M 272 480 L 176 480 L 160 464 L 160 392 L 288 392 L 288 464 Z" fill="#7A3E1A"/><path d=" M 224 160 C 250.512 160 272 181.492 272 208 L 272 240 C 272 266.508 250.512 288 224 288 C 197.492 288 176 266.508 176 240 L 176 208 C 176 181.492 197.492 160 224 160 Z" fill="#DBDBD9"/><path d=" M 224 160 C 250.512 160 272 181.492 272 208 L 272 240 C 272 266.508 250.512 288 224 288 C 197.492 288 176 266.508 176 240 L 176 208 C 176 181.492 197.492 160 224 160 Z" fill="#E3E3E1"/><path d=" M 304 176 L 296 176 L 296 128 L 304 128 C 317.254 128 328 138.746 328 152 C 328 165.254 317.254 176 304 176 Z" fill="#FEB784"/><path d=" M 144 128 L 152 128 L 152 176 L 144 176 C 130.746 176 120 165.254 120 152 C 120 138.746 130.746 128 144 128 Z" fill="#FEB784"/><path d=" M 40 176 L 72 176 L 72 368 L 40 368 Z" fill="#995023"/><path d=" M 40 448 L 72 448 L 72 480 L 40 480 Z" fill="#995023"/><path d=" M 114.344 2.34375 C 102.559 14.0625 95.9531 30.0117 96 46.6328 L 96 112 C 95.957 122.133 89.5547 131.148 80 134.527 L 80 46.6328 C 79.9648 34.2578 84.8828 22.3828 93.6563 13.6563 L 82.3438 2.34375 C 70.5586 14.0625 63.9531 30.0117 64 46.6328 L 64 136 L 48 136 L 48 46.6328 C 47.9648 34.2578 52.8828 22.3828 61.6563 13.6563 L 50.3438 2.34375 C 38.5586 14.0625 31.9531 30.0117 32 46.6328 L 32 134.527 C 22.4453 131.148 16.043 122.133 16 112 L 16 46.6328 C 15.9648 34.2578 20.8828 22.3828 29.6563 13.6563 L 18.3438 2.34375 C 6.55859 14.0625 -0.046875 30.0117 0 46.6328 L 0 112 C 0.0273438 134.082 17.918 151.973 40 152 L 40 176 L 72 176 L 72 152 C 94.082 151.973 111.973 134.082 112 112 L 112 46.6328 C 111.965 34.2578 116.883 22.3828 125.656 13.6563 Z" fill="#DBDBD9"/><path d=" M 24 368 L 72 368 C 80.8359 368 88 375.164 88 384 L 88 432 C 88 440.836 80.8359 448 72 448 L 24 448 Z" fill="#FEC9A3"/><path d=" M 224 208 C 215.652 207.648 207.813 203.891 202.313 197.602 L 213.688 186.398 C 215.957 189.891 219.836 192 224 192 C 228.164 192 232.043 189.891 234.313 186.398 L 245.688 197.602 C 240.188 203.891 232.348 207.648 224 208 Z" fill="#995023"/><path d=" M 320 408 L 376 408 L 376 424 L 320 424 Z" fill="#F4A876"/><path d=" M 178.953 256.434 C 186.977 278.238 209.465 291.168 232.348 287.129 C 255.23 283.086 271.934 263.234 272 240 L 272 208 C 271.992 201.012 270.453 194.113 267.488 187.785 C 248 232 216 248 178.953 256.434 Z" fill="#DBDBD9"/><path d=" M 188 120 C 181.371 120 176 125.371 176 132 C 176 138.629 181.371 144 188 144 C 194.629 144 200 138.629 200 132 C 200 125.371 194.629 120 188 120 Z"/><path d=" M 260 120 C 253.371 120 248 125.371 248 132 C 248 138.629 253.371 144 260 144 C 266.629 144 272 138.629 272 132 C 272 125.371 266.629 120 260 120 Z"/><path d=" M 152 352 L 168 352 L 168 368 L 152 368 Z"/><path d=" M 280 352 L 296 352 L 296 368 L 280 368 Z"/><path d=" M 152 456 C 152 458.121 152.844 460.156 154.344 461.656 L 170.344 477.656 C 171.844 479.156 173.879 480 176 480 L 272 480 C 274.121 480 276.156 479.156 277.656 477.656 L 293.656 461.656 C 295.156 460.156 296 458.121 296 456 L 296 392 C 296 387.582 292.418 384 288 384 L 160 384 C 155.582 384 152 387.582 152 392 Z M 168 400 L 280 400 L 280 452.688 L 268.688 464 L 179.313 464 L 168 452.688 Z"/><path d=" M 32 360 L 24 360 C 19.582 360 16 363.582 16 368 L 16 448 C 16 452.418 19.582 456 24 456 L 32 456 L 32 480 L 48 480 L 48 456 L 64 456 L 64 480 L 80 480 L 80 479.449 C 95.4805 477.484 109.707 469.922 120 458.191 L 120 480 L 136 480 L 136 336 L 312 336 L 312 480 L 328 480 L 328 424 L 368 424 L 368 480 L 384 480 L 384 424 L 392 424 C 396.418 424 400 420.418 400 416 L 400 384 C 400 379.582 396.418 376 392 376 L 384 376 L 384 304 C 383.961 268.672 355.328 240.039 320 240 L 280 240 L 280 232.977 C 293.328 219.898 301.668 202.574 303.578 184 L 304 184 C 318.145 183.949 330.574 174.602 334.543 161.023 C 349.023 151.129 355.367 132.957 350.195 116.199 C 345.02 99.4453 329.535 88.0117 312 88 L 304 88 L 304 51.832 C 304 30.2305 297.441 15.3438 283.93 6.33594 C 277.73 2.19531 270.445 -0.0078125 262.992 -8.88178e-16 L 257.008 -8.88178e-16 C 249.555 -0.0078125 242.27 2.19531 236.07 6.33594 C 228.766 11.2227 219.234 11.2227 211.93 6.33594 C 205.73 2.19531 198.445 -0.0078125 190.992 -8.88178e-16 L 185.008 -8.88178e-16 C 177.555 -0.0078125 170.27 2.19531 164.07 6.33594 C 150.559 15.3438 144 30.2227 144 51.832 L 144 88 L 136 88 C 127.316 88.0313 118.883 90.9141 112 96.207 L 112 46.6094 C 111.965 34.2344 116.883 22.3594 125.656 13.6328 L 114.344 2.34375 C 102.559 14.0625 95.9531 30.0117 96 46.6328 L 96 112 C 95.957 122.133 89.5547 131.148 80 134.527 L 80 46.6328 C 79.9648 34.2578 84.8828 22.3828 93.6563 13.6563 L 82.3438 2.34375 C 70.5586 14.0625 63.9531 30.0117 64 46.6328 L 64 136 L 48 136 L 48 46.6328 C 47.9648 34.2578 52.8828 22.3828 61.6563 13.6563 L 50.3438 2.34375 C 38.5586 14.0625 31.9531 30.0117 32 46.6328 L 32 134.527 C 22.4453 131.148 16.043 122.133 16 112 L 16 46.6328 C 15.9648 34.2578 20.8828 22.3828 29.6563 13.6563 L 18.3438 2.34375 C 6.55859 14.0625 -0.046875 30.0117 -5.68434e-14 46.6328 L -5.68434e-14 112 C 0.0234375 131 13.3906 147.371 32 151.199 Z M 48 184 L 64 184 L 64 360 L 48 360 Z M 96 392 L 120 392 L 120 408 L 96 408 Z M 120 328 L 120 376 L 94.5273 376 C 92.1094 369.223 86.7773 363.891 80 361.473 L 80 304 C 80.043 280.602 96.9336 260.641 120 256.719 Z M 40 440 L 32 440 L 32 376 L 72 376 C 76.418 376 80 379.582 80 384 L 80 432 C 80 436.418 76.418 440 72 440 Z M 80 463.273 L 80 454.527 C 89.5547 451.148 95.957 442.133 96 432 L 96 424 L 119.336 424 C 115.887 444.113 100.117 459.855 80 463.273 Z M 136 320 L 136 256 L 152 256 L 152 320 Z M 170.398 256 C 173.434 266.102 179.258 275.141 187.199 282.078 L 209.887 320 L 168 320 L 168 256 Z M 224 280 C 201.918 279.973 184.027 262.082 184 240 L 184 208 C 184 185.91 201.91 168 224 168 C 246.09 168 264 185.91 264 208 L 264 240 C 263.973 262.082 246.082 279.973 224 280 Z M 234.258 295.016 L 224 312.375 L 213.602 294.984 C 217.027 295.648 220.508 295.988 224 296 C 227.441 295.984 230.875 295.656 234.258 295.016 Z M 384 408 L 328 408 L 328 392 L 384 392 Z M 368 304 L 368 376 L 328 376 L 328 256.719 C 351.066 260.641 367.957 280.602 368 304 Z M 312 256 L 312 320 L 296 320 L 296 256 Z M 280 256 L 280 320 L 238.047 320 L 260.184 282.664 C 268.457 275.652 274.523 266.391 277.641 256 Z M 279.945 206.953 C 279.43 176.422 254.531 151.945 224 151.945 C 193.469 151.945 168.574 176.422 168.055 206.953 C 162.793 197.484 160.023 186.832 160 176 L 160 104 L 288 104 L 288 176 C 287.977 186.832 285.207 197.484 279.945 206.953 Z M 304 168 L 304 136 C 312.836 136 320 143.164 320 152 C 320 160.836 312.836 168 304 168 Z M 312 104 C 320.395 104.004 328.176 108.395 332.52 115.578 C 336.863 122.762 337.141 131.691 333.25 139.129 C 328.148 127.52 316.68 120.02 304 120 L 304 104 Z M 172.945 19.6563 C 176.516 17.2695 180.715 15.9961 185.008 16 L 190.992 16 C 195.289 15.9961 199.488 17.2695 203.055 19.6563 C 215.734 28.1328 232.27 28.1328 244.945 19.6563 C 248.516 17.2695 252.715 15.9961 257.008 16 L 262.992 16 C 267.289 15.9961 271.488 17.2695 275.055 19.6563 C 280.609 23.3516 288 30.7188 288 51.832 L 288 56 L 160 56 L 160 51.832 C 160 30.7188 167.391 23.3516 172.945 19.6563 Z M 160 72 L 288 72 L 288 88 L 160 88 Z M 136 104 L 144 104 L 144 120 C 131.371 120.023 119.941 127.473 114.816 139.016 C 110.852 131.609 111.09 122.664 115.438 115.477 C 119.785 108.289 127.602 103.926 136 104 Z M 128 152 C 128 143.164 135.164 136 144 136 L 144 168 C 135.164 168 128 160.836 128 152 Z M 98.5195 141.711 C 101.383 149.5 106.59 156.207 113.426 160.91 C 117.352 174.547 129.809 183.953 144 184 L 144.426 184 C 146.332 202.574 154.672 219.898 168 232.977 L 168 240 L 128 240 C 109.605 240.012 92.1094 247.961 80 261.809 L 80 151.199 C 86.9063 149.738 93.3008 146.465 98.5195 141.711 Z M 64 168 L 48 168 L 48 152 L 64 152 Z"/><path d=" M 213.688 186.398 L 202.313 197.602 C 207.602 204.16 215.574 207.977 224 207.977 C 232.426 207.977 240.398 204.16 245.688 197.602 L 234.313 186.398 C 232.043 189.891 228.164 192 224 192 C 219.836 192 215.957 189.891 213.688 186.398 Z"/></svg>