<svg version="1.1" viewBox="0 0 512.001 512.001" xmlns="http://www.w3.org/2000/svg" xmlns:xlink="http://www.w3.org/1999/xlink" id="Layer_1" overflow="hidden"><path d=" M 262.826 134.503 C 262.826 192.356 176.184 420.207 146.228 497.257 C 142.66 506.435 129.705 506.435 126.137 497.257 C 96.181 420.207 9.539 192.356 9.539 134.503 C 9.539 64.559 66.239 7.86 136.182 7.86 C 206.125 7.86 262.826 64.559 262.826 134.503 Z" fill="#4D4D4D"/><path d=" M 218.911 38.753 C 238.109 60.953 249.8 89.823 249.8 121.477 C 249.8 179.329 163.158 407.181 133.202 484.231 C 131.5 488.607 127.657 490.832 123.723 491.035 C 124.554 493.181 125.376 495.3 126.137 497.257 C 129.705 506.436 142.66 506.436 146.228 497.257 C 176.184 420.208 262.826 192.356 262.826 134.503 C 262.826 96.216 245.763 61.975 218.911 38.753 Z" fill="#666666"/><path d=" M 55.588 38.753 C 36.391 60.953 24.699 89.823 24.699 121.477 C 24.699 179.329 111.341 407.181 141.297 484.231 C 142.999 488.607 146.842 490.832 150.777 491.035 C 149.946 493.181 149.124 495.3 148.363 497.257 C 144.795 506.436 131.84 506.436 128.272 497.257 C 98.316 420.207 11.673 192.356 11.673 134.503 C 11.673 96.216 28.736 61.975 55.588 38.753 Z" fill="#333333"/><path d=" M 502.931 377.497 C 502.931 319.645 416.289 91.793 386.333 14.743 C 382.765 5.565 369.81 5.565 366.242 14.743 C 336.286 91.793 249.644 319.645 249.644 377.497 C 249.644 447.441 306.344 504.14 376.287 504.14 C 446.23 504.14 502.931 447.441 502.931 377.497 Z" fill="#4D4D4D"/><path d=" M 459.017 473.247 C 478.214 451.047 489.906 422.177 489.906 390.523 C 489.906 332.671 403.264 104.819 373.308 27.769 C 371.606 23.393 367.763 21.168 363.829 20.965 C 364.66 18.819 365.482 16.7 366.243 14.743 C 369.811 5.564 382.766 5.564 386.334 14.743 C 416.29 91.793 502.932 319.644 502.932 377.497 C 502.931 415.784 485.868 450.025 459.017 473.247 Z" fill="#666666"/><path d=" M 431.746 384.025 C 431.746 414.967 406.663 440.05 375.721 440.05 L 375.721 440.05 C 344.779 440.05 319.696 414.967 319.696 384.025 L 319.696 287.983 C 319.696 257.041 344.779 231.958 375.721 231.958 L 375.721 231.958 C 406.663 231.958 431.746 257.041 431.746 287.983 L 431.746 328.001" fill="#F7931E"/><path d=" M 335.263 400.032 L 335.263 303.99 C 335.263 273.048 360.566 247.965 391.508 247.965 C 402.883 247.965 413.562 251.377 422.399 257.202 C 412.38 242.003 395.157 231.958 375.59 231.958 C 344.649 231.958 319.544 257.041 319.544 287.983 L 319.544 384.025 C 319.544 403.591 329.446 420.792 344.645 430.813 C 338.82 421.975 335.263 411.407 335.263 400.032 Z" fill="#F15A24"/><path d=" M 295.693 473.247 C 276.496 451.047 264.804 422.177 264.804 390.523 C 264.804 332.671 351.446 104.819 381.402 27.769 C 383.104 23.393 386.947 21.168 390.881 20.965 C 390.05 18.819 389.228 16.7 388.467 14.743 C 384.899 5.564 371.944 5.564 368.376 14.743 C 338.42 91.793 251.778 319.644 251.778 377.497 C 251.778 415.784 268.841 450.025 295.693 473.247 Z" fill="#333333"/><path d=" M 260.403 151.916 C 235.493 108.859 188.938 79.891 135.616 79.891 C 82.292 79.891 35.735 108.862 10.826 151.922 L 24.691 199.943 C 46.833 161.668 88.217 135.915 135.616 135.915 C 183.824 135.915 225.811 162.554 247.658 201.914 L 260.403 151.916 Z" fill="#999999"/><path d=" M 135.616 79.891 C 82.292 79.891 35.735 108.862 10.826 151.922 L 24.691 199.943 C 46.833 161.668 88.217 135.915 135.616 135.915" fill="#808080"/><path d=" M 375.722 447.909 C 340.496 447.909 311.838 419.25 311.838 384.025 L 311.838 287.983 C 311.838 252.758 340.497 224.1 375.722 224.1 C 410.947 224.1 439.605 252.759 439.605 287.983 L 439.605 328.001 L 423.886 328.001 L 423.886 287.983 C 423.886 261.424 402.28 239.818 375.721 239.818 C 349.162 239.818 327.555 261.424 327.555 287.983 L 327.555 384.025 C 327.555 410.584 349.162 432.191 375.721 432.191 C 402.28 432.191 423.886 410.584 423.886 384.025 L 439.605 384.025 C 439.606 419.251 410.947 447.909 375.722 447.909 Z"/><path d=" M 351.567 287.957 L 335.848 287.957 C 335.848 265.951 354.126 248.109 376.132 248.109 L 376.132 263.828 C 362.509 263.828 351.567 274.334 351.567 287.957 Z" fill="#FFFFFF"/><g><rect x="423.287" y="360.265" width="15.719" height="15.719" fill="#C7B299"/><rect x="423.287" y="336.163" width="15.719" height="15.719" fill="#C7B299"/></g><circle cx="391.723" cy="392.028" r="16.007" fill="#FFFFFF"/><path d=" M 391.728 415.895 C 378.568 415.895 367.863 405.188 367.863 392.029 C 367.863 378.87 378.57 368.163 391.728 368.163 C 404.889 368.163 415.594 378.87 415.594 392.029 C 415.594 405.188 404.889 415.895 391.728 415.895 Z M 391.728 383.88 C 387.236 383.88 383.581 387.535 383.581 392.028 C 383.581 396.52 387.235 400.176 391.728 400.176 C 396.22 400.176 399.876 396.521 399.876 392.028 C 399.876 387.535 396.221 383.88 391.728 383.88 Z"/><g><rect x="95.287" y="352.93" width="16.767" height="15.719" fill="#FFFFFF"/><rect x="112.054" y="327.78" width="15.719" height="15.719" fill="#FFFFFF"/><rect x="127.773" y="360.265" width="15.719" height="15.719" fill="#FFFFFF"/><rect x="335.261" y="160.112" width="15.719" height="15.719" fill="#FFFFFF"/><rect x="376.13" y="184.214" width="15.719" height="15.719" fill="#FFFFFF"/></g><path d=" M 393.187 11.896 C 390.379 4.67 383.56 0 375.818 0 C 375.818 0 375.818 0 375.817 0 C 368.074 0 361.255 4.668 358.447 11.895 C 323.229 102.479 241.316 319.439 241.316 377.497 C 241.316 451.662 301.653 512.001 375.819 512.001 C 449.985 512.001 510.323 451.663 510.323 377.497 C 510.32 319.432 428.405 102.477 393.187 11.896 Z M 485.033 424.187 C 483.965 426.676 482.819 429.124 481.588 431.522 L 464.157 431.522 L 464.157 447.241 L 471.905 447.241 C 450.291 476.937 415.272 496.281 375.815 496.281 C 326.884 496.281 284.775 466.54 266.6 424.187 L 272.388 424.187 L 272.388 408.468 L 261.136 408.468 C 260.391 405.712 259.743 402.916 259.195 400.085 L 279.722 400.085 L 279.722 384.366 L 257.235 384.366 C 257.104 382.092 257.032 379.802 257.032 377.496 C 257.032 361.03 265.123 317.89 303.67 205.877 C 326.258 140.237 351.804 72.711 367.748 31.397 L 367.748 96.188 L 383.467 96.188 L 383.467 30.32 C 393.738 56.917 408.124 94.727 423.164 136.009 L 400.233 136.009 L 400.233 151.728 L 428.86 151.728 C 435.276 169.529 441.732 187.774 447.962 205.877 C 486.509 317.891 494.6 361.031 494.6 377.496 C 494.6 388.208 493.166 398.59 490.495 408.468 L 472.54 408.468 L 472.54 424.187 L 485.033 424.187 Z"/><path d=" M 136.182 0 C 62.017 0 1.679 60.338 1.679 134.504 C 1.679 192.56 83.593 409.52 118.812 500.106 C 121.621 507.332 128.44 512.001 136.182 512.001 C 143.925 512.001 150.744 507.333 153.553 500.106 C 188.772 409.52 270.686 192.561 270.686 134.504 C 270.685 60.338 210.348 0 136.182 0 Z M 136.182 15.719 C 200.126 15.719 252.422 66.51 254.868 129.865 C 226.285 93.758 182.316 72.031 135.617 72.031 C 89.561 72.031 46.16 93.16 17.555 128.377 C 20.754 65.714 72.739 15.719 136.182 15.719 Z M 227.899 247.088 L 207.416 247.088 L 207.416 262.807 L 222.852 262.807 C 221.853 265.877 220.817 269.031 219.759 272.238 L 184.361 272.238 L 184.361 287.957 L 214.513 287.957 C 212.54 293.809 210.487 299.845 208.326 306.123 C 185.383 372.796 159.377 441.442 143.491 482.562 L 143.491 415.804 L 127.772 415.804 L 127.772 479.723 C 111.806 438.332 86.46 371.296 64.033 306.123 C 58.608 290.357 53.789 275.962 49.507 262.807 L 55.465 262.807 L 55.465 247.088 L 44.463 247.088 C 42.728 241.608 41.098 236.372 39.568 231.369 L 79.571 231.369 L 79.571 215.65 L 34.857 215.65 C 33.653 211.541 32.525 207.612 31.472 203.864 L 31.496 203.878 C 52.942 166.805 92.839 143.774 135.618 143.774 C 179.09 143.774 219.222 167.315 240.506 205.241 C 237.097 217.303 232.936 231.178 227.899 247.088 Z M 246.038 184.736 C 243.762 181.569 241.374 178.501 238.856 175.564 L 238.856 151.728 L 223.137 151.728 L 223.137 160.003 C 200.959 141.353 173.098 130.019 143.495 128.3 L 143.495 120.29 L 127.776 120.29 L 127.776 128.299 C 110.935 129.281 94.611 133.392 79.572 140.218 L 79.572 127.625 L 63.853 127.625 L 63.853 148.625 C 49.275 157.688 36.391 169.513 26.037 183.585 C 22.813 170.857 20.685 160.855 19.349 152.998 C 20.518 151.088 21.729 149.21 22.984 147.37 L 22.984 151.726 L 38.703 151.726 L 38.703 128.311 C 50.508 116.391 64.387 106.76 79.572 99.885 L 79.572 103.521 L 95.29 103.521 L 95.29 93.907 C 108.193 89.886 121.77 87.748 135.617 87.748 C 143.96 87.748 152.201 88.539 160.261 90.034 L 160.261 111.905 L 175.98 111.905 L 175.98 93.921 C 181.346 95.596 186.596 97.591 191.699 99.903 L 191.699 127.626 L 207.418 127.626 L 207.418 108.292 C 225.751 119.666 241.422 135.388 252.765 154.461 C 251.375 162.328 249.227 172.244 246.038 184.736 Z"/><g></g><g></g><g></g><g></g><g></g><g></g><g></g><g></g><g></g><g></g><g></g><g></g><g></g><g></g><g></g></svg>