<svg version="1.1" width="629.333" height="629.333" viewBox="-63 0 472 472" xmlns="http://www.w3.org/2000/svg" xmlns:xlink="http://www.w3.org/1999/xlink" overflow="hidden"><path d=" M 96 232 C 96 232 72 176 160 160 C 248 144 240 120 240 120 C 240 120 304 176 240 232 Z" fill="#AD6327"/><path d=" M 296 392 L 272 392 C 294.09 392 312 374.09 312 352 C 312 329.91 294.09 312 272 312 L 248 312 C 270.09 312 288 294.09 288 272 C 288 249.91 270.09 232 248 232 L 88 232 C 65.9102 232 48 249.91 48 272 C 48 294.09 65.9102 312 88 312 L 64 312 C 41.9102 312 24 329.91 24 352 C 24 374.09 41.9102 392 64 392 L 40 392 C 17.9102 392 0 409.91 0 432 C 0 454.09 17.9102 472 40 472 L 296 472 C 318.09 472 336 454.09 336 432 C 336 409.91 318.09 392 296 392 Z" fill="#D3843D"/><g fill="#FFD782"><path d=" M 208 400 L 64 400 C 59.582 400 56 396.418 56 392 C 56 387.582 59.582 384 64 384 L 208 384 C 212.418 384 216 387.582 216 392 C 216 396.418 212.418 400 208 400 Z"/><path d=" M 248 320 L 152 320 C 147.582 320 144 316.418 144 312 C 144 307.582 147.582 304 152 304 L 248 304 C 252.418 304 256 307.582 256 312 C 256 316.418 252.418 320 248 320 Z"/><path d=" M 56 432 L 48 432 C 43.582 432 40 428.418 40 424 C 40 419.582 43.582 416 48 416 L 56 416 C 60.418 416 64 419.582 64 424 C 64 428.418 60.418 432 56 432 Z"/><path d=" M 88 448 L 80 448 C 75.582 448 72 444.418 72 440 C 72 435.582 75.582 432 80 432 L 88 432 C 92.418 432 96 435.582 96 440 C 96 444.418 92.418 448 88 448 Z"/><path d=" M 240 352 L 232 352 C 227.582 352 224 348.418 224 344 C 224 339.582 227.582 336 232 336 L 240 336 C 244.418 336 248 339.582 248 344 C 248 348.418 244.418 352 240 352 Z"/><path d=" M 272 368 L 264 368 C 259.582 368 256 364.418 256 360 C 256 355.582 259.582 352 264 352 L 272 352 C 276.418 352 280 355.582 280 360 C 280 364.418 276.418 368 272 368 Z"/><path d=" M 120 272 L 112 272 C 107.582 272 104 268.418 104 264 C 104 259.582 107.582 256 112 256 L 120 256 C 124.418 256 128 259.582 128 264 C 128 268.418 124.418 272 120 272 Z"/><path d=" M 152 288 L 144 288 C 139.582 288 136 284.418 136 280 C 136 275.582 139.582 272 144 272 L 152 272 C 156.418 272 160 275.582 160 280 C 160 284.418 156.418 288 152 288 Z"/></g><path d=" M 48 200 L 40 200 C 35.582 200 32 196.418 32 192 C 32 187.582 35.582 184 40 184 L 48 184 C 52.418 184 56 187.582 56 192 C 56 196.418 52.418 200 48 200 Z" fill="#E97424"/><path d=" M 24 136 L 16 136 C 11.582 136 8 132.418 8 128 C 8 123.582 11.582 120 16 120 L 24 120 C 28.418 120 32 123.582 32 128 C 32 132.418 28.418 136 24 136 Z" fill="#E97424"/><path d=" M 338.664 136 L 330.664 136 C 326.246 136 322.664 132.418 322.664 128 C 322.664 123.582 326.246 120 330.664 120 L 338.664 120 C 343.082 120 346.664 123.582 346.664 128 C 346.664 132.418 343.082 136 338.664 136 Z" fill="#E97424"/><path d=" M 304 208 L 296 208 C 291.582 208 288 204.418 288 200 C 288 195.582 291.582 192 296 192 L 304 192 C 308.418 192 312 195.582 312 200 C 312 204.418 308.418 208 304 208 Z" fill="#E97424"/><path d=" M 176 128 C 171.582 128 168 124.418 168 120 C 168.859 109.695 174.152 100.277 182.504 94.1836 C 188.391 88.625 192 84.9688 192 80 C 192 76.3359 190.258 74.7539 183.832 70.832 C 174.629 66.8672 168.488 58.0078 168 48 C 168.863 37.6992 174.152 28.2773 182.504 22.1836 C 188.391 16.625 192 12.9609 192 8 C 192 3.58203 195.582 0 200 0 C 204.418 0 208 3.58203 208 8 C 207.137 18.3008 201.848 27.7227 193.496 33.8164 C 187.609 39.375 184 43.0391 184 48 C 184 51.6641 185.742 53.2461 192.168 57.168 C 201.371 61.1328 207.512 69.9922 208 80 C 207.141 90.3047 201.848 99.7227 193.496 105.816 C 187.609 111.375 184 115.031 184 120 C 184 124.418 180.418 128 176 128 Z" fill="#E97424"/><path d=" M 120 152 C 115.582 152 112 148.418 112 144 C 112.859 133.695 118.152 124.277 126.504 118.184 C 132.391 112.625 136 108.969 136 104 C 136 100.336 134.258 98.7539 127.832 94.832 C 118.629 90.8672 112.488 82.0078 112 72 C 112.863 61.6992 118.152 52.2773 126.504 46.1836 C 132.391 40.625 136 36.9609 136 32 C 136 27.582 139.582 24 144 24 C 148.418 24 152 27.582 152 32 C 151.137 42.3008 145.848 51.7227 137.496 57.8164 C 131.609 63.375 128 67.0391 128 72 C 128 75.6641 129.742 77.2461 136.168 81.168 C 145.371 85.1328 151.512 93.9922 152 104 C 151.141 114.305 145.848 123.723 137.496 129.816 C 131.609 135.375 128 139.031 128 144 C 128 148.418 124.418 152 120 152 Z" fill="#E97424"/></svg>