<svg version="1.1" viewBox="0 0 612.001 612.001" xmlns="http://www.w3.org/2000/svg" xmlns:xlink="http://www.w3.org/1999/xlink" id="Capa_1" overflow="hidden"><g><g><path d=" M 49.893 443.325 C 48.945 444.51 48.183 445.394 47.817 445.668 C 31.837 457.678 25.752 446.823 10.721 458.736 C 8.289 460.663 4.869 471.599 1.993 482.347 C -1.058 493.75 -2.037 504.944 9.767 504.944 L 10.721 504.944 L 37.047 504.944 L 387.275 504.944 L 408.672 504.944 L 474.012 504.944 C 480.326 504.944 486.556 503.428 492.137 500.475 C 701.567 389.702 581.667 261.917 539.518 200.789 C 507.413 154.229 526.224 107.057 526.224 107.057 C 526.224 107.057 452.576 132.205 542.39 248.456 C 600.882 324.165 567.951 377.678 537.868 405.798 C 540.907 394.412 542.491 382.431 542.385 370.061 C 541.753 296.107 480.521 237.106 406.566 237.511 C 360.013 237.765 317.473 246.447 278.991 260.535 C 283.352 274.089 283.917 288.799 280.46 303.685 C 275.799 323.757 264.221 341.846 247.861 354.62 C 231.681 367.253 211.444 374.211 190.875 374.211 L 126.821 374.211 L 108.387 374.211 C 84.562 398.441 65.044 422.541 49.893 443.325 Z M 120.612 407.733 C 132.155 408.337 141.023 418.185 140.419 429.728 C 139.815 441.271 129.967 450.139 118.424 449.535 C 106.881 448.931 98.013 439.083 98.617 427.54 C 99.221 415.997 109.069 407.129 120.612 407.733 Z"/><path d=" M 133.414 350.262 L 190.875 350.262 C 222.301 350.262 250.022 328.879 257.132 298.267 C 259.568 287.779 259.18 278.116 256.696 269.481 C 248.825 242.125 219.849 225.116 192.469 225.116 C 179.272 225.116 166.453 229.063 156.54 237.705 C 109.841 278.417 126.82 350.262 126.82 350.262 L 133.414 350.262 Z"/></g></g><g></g><g></g><g></g><g></g><g></g><g></g><g></g><g></g><g></g><g></g><g></g><g></g><g></g><g></g><g></g></svg>