<svg version="1.1" width="682.667" height="682.667" viewBox="0 0 512 512" xmlns="http://www.w3.org/2000/svg" xmlns:xlink="http://www.w3.org/1999/xlink" overflow="hidden"><g fill="#FF6523"><path d=" M 256 7.5 C 243.574 7.5 233.5 17.5742 233.5 30 C 233.5 30.9219 233.563 31.832 233.672 32.7266 L 241 91.6875 L 256 106 L 271 91.6875 L 278.328 32.7266 C 278.438 31.832 278.5 30.9258 278.5 30 C 278.5 17.5742 268.426 7.5 256 7.5 Z"/><path d=" M 80.2852 80.2852 C 71.4961 89.0703 71.4961 103.316 80.2852 112.105 C 80.9375 112.758 81.6211 113.355 82.332 113.91 L 129.207 150.418 L 149.934 149.934 L 150.418 129.207 L 113.91 82.332 C 113.355 81.6211 112.758 80.9375 112.105 80.2852 C 103.316 71.4961 89.0703 71.4961 80.2852 80.2852 Z"/><path d=" M 7.5 256 C 7.5 268.426 17.5742 278.5 30 278.5 C 30.9219 278.5 31.832 278.438 32.7266 278.328 L 91.6875 271 L 106 256 L 91.6875 241 L 32.7266 233.672 C 31.832 233.563 30.9258 233.5 30 233.5 C 17.5742 233.5 7.5 243.574 7.5 256 Z"/><path d=" M 80.2852 431.715 C 89.0703 440.504 103.316 440.504 112.105 431.715 C 112.758 431.063 113.355 430.379 113.91 429.668 L 150.418 382.793 L 149.934 362.066 L 129.207 361.582 L 82.332 398.09 C 81.6211 398.645 80.9375 399.242 80.2852 399.895 C 71.4961 408.684 71.4961 422.93 80.2852 431.715 Z"/></g><path d=" M 256 504.5 C 268.426 504.5 278.5 494.426 278.5 482 C 278.5 481.078 278.438 480.168 278.328 479.273 L 271 420.313 L 256 406 L 241 420.313 L 233.672 479.273 C 233.563 480.168 233.5 481.074 233.5 482 C 233.5 494.426 243.574 504.5 256 504.5 Z" fill="#FF451B"/><path d=" M 431.715 431.715 C 440.504 422.93 440.504 408.684 431.715 399.895 C 431.063 399.242 430.379 398.645 429.668 398.09 L 382.793 361.582 L 362.066 362.066 L 361.582 382.793 L 398.09 429.668 C 398.645 430.379 399.242 431.063 399.895 431.715 C 408.684 440.504 422.93 440.504 431.715 431.715 Z" fill="#FF451B"/><path d=" M 504.5 256 C 504.5 243.574 494.426 233.5 482 233.5 C 481.078 233.5 480.168 233.563 479.273 233.672 L 420.313 241 L 406 256 L 420.313 271 L 479.273 278.328 C 480.168 278.438 481.074 278.5 482 278.5 C 494.426 278.5 504.5 268.426 504.5 256 Z" fill="#FF451B"/><path d=" M 431.715 80.2852 C 422.93 71.4961 408.684 71.4961 399.895 80.2852 C 399.242 80.9375 398.645 81.6211 398.09 82.332 L 361.582 129.207 L 362.066 149.934 L 382.793 150.418 L 429.668 113.91 C 430.379 113.355 431.063 112.758 431.715 112.105 C 440.504 103.316 440.504 89.0703 431.715 80.2852 Z" fill="#FF451B"/><path d=" M 257.738 91.0117 C 347.922 91.9492 421 165.602 421 256 C 421 346.398 347.922 420.051 257.738 420.988 C 331.379 419.84 376 256 376 256 C 376 256 331.379 92.1602 257.738 91.0117 Z" fill="#FF6523"/><path d=" M 257.738 91.0117 C 331.379 92.1602 391 165.73 391 256 C 391 346.27 331.379 419.84 257.738 420.988 C 257.16 421 256.578 421 256 421 C 165.02 421 91 346.98 91 256 C 91 165.02 165.02 91 256 91 C 256.578 91 257.16 91 257.738 91.0117 Z M 376 256 C 376 189.828 322.172 136 256 136 C 189.828 136 136 189.828 136 256 C 136 322.172 189.828 376 256 376 C 322.172 376 376 322.172 376 256 Z" fill="#FF852B"/><path d=" M 256 211 L 256 301 C 280.813 301 301 280.813 301 256 C 301 231.188 280.813 211 256 211 Z" fill="#FFD87C"/><path d=" M 271 256 C 271 231.188 264.27 211 256 211 C 231.188 211 211 231.188 211 256 C 211 280.813 231.188 301 256 301 C 264.27 301 271 280.813 271 256 Z" fill="#FFEBBE"/><path d=" M 271 256 C 271 264.285 264.285 271 256 271 C 247.715 271 241 264.285 241 256 C 241 247.715 247.715 241 256 241 C 264.285 241 271 247.715 271 256 Z" fill="#FF6523"/><path d=" M 256 121 C 181.563 121 121 181.563 121 256 C 121 330.438 181.563 391 256 391 C 330.438 391 391 330.438 391 256 C 391 181.563 330.438 121 256 121 Z M 256 361 C 198.102 361 151 313.898 151 256 C 151 198.102 198.102 151 256 151 C 313.898 151 361 198.102 361 256 C 361 313.898 313.898 361 256 361 Z" fill="#FFD87C"/><path d=" M 482 226 C 480.824 226 479.602 226.074 478.348 226.227 L 426.91 232.621 C 422.813 202.508 410.914 174.84 393.32 151.727 L 434.301 119.813 C 435.277 119.043 436.195 118.234 437.02 117.406 C 442.688 111.742 445.805 104.207 445.805 96.1953 C 445.805 88.1797 442.684 80.6484 437.02 74.9805 C 425.324 63.2852 406.289 63.2813 394.59 74.9844 C 393.762 75.8125 392.953 76.7266 392.172 77.7227 L 360.273 118.68 C 337.16 101.086 309.492 89.1914 279.379 85.0898 L 285.777 33.625 C 285.926 32.3906 286 31.1719 286 30 C 286 13.457 272.543 0 256 0 C 239.457 0 226 13.457 226 30 C 226 31.1758 226.074 32.3984 226.227 33.6523 L 232.621 85.0898 C 202.508 89.1875 174.84 101.086 151.727 118.68 L 119.813 77.6992 C 119.043 76.7227 118.234 75.8047 117.406 74.9805 C 111.742 69.3125 104.207 66.1953 96.1953 66.1953 C 88.1797 66.1953 80.6484 69.3164 74.9805 74.9805 C 63.2852 86.6797 63.2852 105.711 74.9844 117.41 C 75.8125 118.238 76.7266 119.047 77.7227 119.828 L 118.68 151.727 C 101.086 174.84 89.1875 202.508 85.0898 232.621 L 33.625 226.227 C 32.3906 226.074 31.1719 226 30 226 C 13.457 226 -1.13687e-13 239.457 -1.13687e-13 256 C -1.13687e-13 272.543 13.457 286 30 286 C 31.1758 286 32.3984 285.926 33.6523 285.773 L 85.0898 279.379 C 89.1875 309.492 101.086 337.16 118.68 360.273 L 77.6992 392.188 C 76.7227 392.957 75.8047 393.766 74.9805 394.594 C 69.3125 400.258 66.1953 407.793 66.1953 415.805 C 66.1953 423.82 69.3164 431.352 74.9805 437.02 C 80.8281 442.867 88.5117 445.789 96.1914 445.789 C 103.875 445.789 111.559 442.867 117.41 437.016 C 118.238 436.188 119.047 435.273 119.828 434.277 L 151.727 393.32 C 174.84 410.914 202.508 422.809 232.621 426.91 L 226.223 478.375 C 226.074 479.609 226 480.828 226 482 C 226 498.543 239.457 512 256 512 C 272.543 512 286 498.543 286 482 C 286 480.824 285.926 479.602 285.773 478.348 L 279.379 426.91 C 309.492 422.813 337.16 410.914 360.273 393.32 L 392.188 434.301 C 392.957 435.277 393.766 436.195 394.594 437.02 C 400.258 442.688 407.793 445.805 415.805 445.805 C 423.82 445.805 431.352 442.684 437.02 437.02 C 448.715 425.32 448.715 406.289 437.016 394.59 C 436.188 393.762 435.273 392.953 434.277 392.172 L 393.32 360.273 C 410.914 337.16 422.813 309.492 426.91 279.379 L 478.375 285.773 C 479.609 285.926 480.828 286 482 286 C 498.543 286 512 272.543 512 256 C 512 239.457 498.543 226 482 226 Z M 256 413.5 C 169.152 413.5 98.5 342.848 98.5 256 C 98.5 169.152 169.152 98.5 256 98.5 C 342.848 98.5 413.5 169.152 413.5 256 C 413.5 342.848 342.848 413.5 256 413.5 Z M 403.988 86.9609 C 404.391 86.4492 404.789 86 405.199 85.5859 C 411.047 79.7383 420.563 79.7383 426.41 85.5859 C 429.246 88.4219 430.805 92.1875 430.805 96.1953 C 430.805 100.199 429.246 103.969 426.41 106.801 C 426 107.211 425.551 107.605 425.059 107.992 L 383.73 140.184 C 379.953 136.023 375.977 132.047 371.816 128.27 Z M 241.117 31.8242 C 241.039 31.1797 241 30.5859 241 30 C 241 21.7305 247.73 15 256 15 C 264.27 15 271 21.7305 271 30 C 271 30.582 270.961 31.1797 270.887 31.8008 L 264.434 83.7109 C 261.641 83.5742 258.828 83.5 256 83.5 C 253.172 83.5 250.359 83.5742 247.566 83.7109 Z M 86.9609 108.012 C 86.4492 107.609 86 107.211 85.5859 106.801 C 79.7383 100.953 79.7383 91.4375 85.5859 85.5898 C 88.4219 82.7539 92.1875 81.1953 96.1953 81.1953 C 100.199 81.1953 103.969 82.7539 106.801 85.5898 C 107.211 86 107.605 86.4492 107.992 86.9414 L 140.184 128.27 C 136.023 132.047 132.047 136.023 128.27 140.184 Z M 31.8242 270.883 C 31.1797 270.961 30.5859 271 30 271 C 21.7305 271 15 264.27 15 256 C 15 247.73 21.7305 241 30 241 C 30.582 241 31.1797 241.039 31.8008 241.113 L 83.707 247.566 C 83.5742 250.359 83.5 253.172 83.5 256 C 83.5 258.828 83.5703 261.641 83.707 264.434 Z M 108.012 425.039 C 107.609 425.551 107.211 426 106.801 426.414 C 100.953 432.262 91.4375 432.262 85.5898 426.414 C 82.7539 423.578 81.1953 419.813 81.1953 415.805 C 81.1953 411.801 82.7539 408.031 85.5898 405.199 C 86 404.789 86.4492 404.395 86.9414 404.008 L 128.27 371.816 C 132.047 375.977 136.023 379.953 140.184 383.73 Z M 270.883 480.176 C 270.961 480.82 271 481.414 271 482 C 271 490.27 264.27 497 256 497 C 247.73 497 241 490.27 241 482 C 241 481.418 241.039 480.82 241.113 480.199 L 247.566 428.293 C 250.359 428.426 253.172 428.5 256 428.5 C 258.828 428.5 261.641 428.426 264.434 428.293 Z M 425.039 403.988 C 425.551 404.391 426 404.789 426.414 405.199 C 432.262 411.047 432.262 420.563 426.414 426.41 C 423.578 429.246 419.813 430.805 415.805 430.805 C 411.801 430.805 408.031 429.246 405.199 426.41 C 404.789 426 404.395 425.551 404.008 425.059 L 371.816 383.73 C 375.977 379.953 379.953 375.977 383.73 371.816 Z M 482 271 C 481.418 271 480.82 270.961 480.199 270.887 L 428.293 264.434 C 428.426 261.641 428.5 258.828 428.5 256 C 428.5 253.172 428.43 250.359 428.293 247.566 L 480.176 241.117 C 480.82 241.039 481.414 241 482 241 C 490.27 241 497 247.73 497 256 C 497 264.27 490.27 271 482 271 Z"/><path d=" M 175.84 334.848 C 176.027 335.09 176.227 335.324 176.449 335.551 C 176.676 335.773 176.91 335.973 177.152 336.16 C 197.469 356.148 225.316 368.5 256 368.5 C 286.684 368.5 314.531 356.148 334.848 336.16 C 335.09 335.973 335.328 335.773 335.551 335.551 C 335.773 335.324 335.973 335.09 336.16 334.848 C 356.148 314.531 368.5 286.684 368.5 256 C 368.5 225.316 356.148 197.469 336.16 177.152 C 335.973 176.91 335.773 176.676 335.551 176.449 C 335.324 176.227 335.09 176.027 334.848 175.84 C 314.531 155.852 286.684 143.5 256 143.5 C 225.316 143.5 197.469 155.852 177.152 175.84 C 176.91 176.027 176.672 176.227 176.449 176.449 C 176.227 176.676 176.027 176.91 175.84 177.152 C 155.852 197.469 143.5 225.316 143.5 256 C 143.5 286.684 155.852 314.531 175.84 334.848 Z M 181.992 192.598 L 213.969 224.574 C 208.82 231.445 205.32 239.617 204.043 248.5 L 158.785 248.5 C 160.41 227.246 168.883 207.879 181.992 192.598 Z M 353.215 248.5 L 307.953 248.5 C 306.68 239.617 303.18 231.445 298.031 224.574 L 330.008 192.598 C 343.117 207.879 351.59 227.246 353.215 248.5 Z M 330.008 319.402 L 298.031 287.426 C 303.18 280.555 306.68 272.383 307.957 263.5 L 353.215 263.5 C 351.59 284.754 343.117 304.121 330.008 319.402 Z M 256 218.5 C 276.68 218.5 293.5 235.32 293.5 256 C 293.5 276.68 276.68 293.5 256 293.5 C 235.32 293.5 218.5 276.68 218.5 256 C 218.5 235.32 235.32 218.5 256 218.5 Z M 224.574 298.031 C 231.445 303.18 239.621 306.68 248.5 307.957 L 248.5 353.215 C 227.246 351.59 207.879 343.117 192.598 330.008 Z M 263.5 307.957 C 272.383 306.68 280.555 303.18 287.426 298.031 L 319.402 330.008 C 304.121 343.117 284.754 351.59 263.5 353.215 Z M 287.426 213.969 C 280.555 208.82 272.379 205.32 263.5 204.043 L 263.5 158.785 C 284.754 160.41 304.121 168.883 319.402 181.992 Z M 248.5 204.043 C 239.617 205.32 231.445 208.82 224.574 213.969 L 192.598 181.992 C 207.879 168.883 227.246 160.41 248.5 158.785 Z M 204.043 263.5 C 205.32 272.383 208.82 280.555 213.969 287.426 L 181.992 319.402 C 168.883 304.121 160.41 284.754 158.785 263.5 Z"/><path d=" M 256 278.5 C 268.406 278.5 278.5 268.406 278.5 256 C 278.5 243.594 268.406 233.5 256 233.5 C 243.594 233.5 233.5 243.594 233.5 256 C 233.5 268.406 243.594 278.5 256 278.5 Z M 256 248.5 C 260.137 248.5 263.5 251.863 263.5 256 C 263.5 260.137 260.137 263.5 256 263.5 C 251.863 263.5 248.5 260.137 248.5 256 C 248.5 251.863 251.863 248.5 256 248.5 Z"/><path d=" M 256 113.5 C 223.82 113.5 192.246 124.586 167.098 144.715 C 163.863 147.305 163.34 152.023 165.93 155.258 C 168.516 158.488 173.238 159.016 176.473 156.426 C 199.297 138.156 226.797 128.5 256 128.5 C 326.305 128.5 383.5 185.695 383.5 256 C 383.5 326.305 326.305 383.5 256 383.5 C 185.695 383.5 128.5 326.305 128.5 256 C 128.5 226.797 138.156 199.297 156.426 176.473 C 159.016 173.238 158.492 168.516 155.258 165.93 C 152.023 163.34 147.305 163.863 144.715 167.098 C 124.586 192.246 113.5 223.82 113.5 256 C 113.5 334.574 177.426 398.5 256 398.5 C 334.574 398.5 398.5 334.574 398.5 256 C 398.5 177.426 334.574 113.5 256 113.5 Z"/></svg>