<svg version="1.1" width="512" height="512" viewBox="0 0 60 53" xmlns="http://www.w3.org/2000/svg" xmlns:xlink="http://www.w3.org/1999/xlink" overflow="hidden"><defs></defs><g id="Page-1" stroke="none" stroke-width="1" fill="none" fill-rule="evenodd"><g id="008---Tape" fill-rule="nonzero"><path d=" M 59 17 C 59 8.16 46.02 1 30 1 C 29.5 1 29 1.01 28.51 1.02 L 28.49 1.02 C 13.17 1.46 1 8.44 1 17 L 1 36 C 1 44.84 13.98 52 30 52 L 54 52 L 50 48.83 L 54 45.67 L 53.57 45.33 C 56.99 42.7 59 39.48 59 36 C 59.0017 35.9066 58.9983 35.8131 58.99 35.72 L 59 35.72 L 59 17 Z M 30 25 C 29.49 25 28.99 24.99 28.5 24.96 C 23.78 24.75 19.66 23.51 17.03 21.69 C 20.7728 20.678 24.6239 20.1206 28.5 20.03 C 29 20.01 29.5 20 30 20 C 34.3795 19.9804 38.7418 20.5488 42.97 21.69 C 40.06 23.7 35.34 25 30 25 Z" id="Shape" fill="#F57C00"/><path d=" M 56 17 C 56 8.44 43.83 1.46 28.51 1.02 L 28.49 1.02 C 13.17 1.46 1 8.44 1 17 L 1 36 C 1 44.84 13.98 52 30 52 L 51 52 L 47 48.83 L 51 45.67 L 50.57 45.33 C 53.99 42.7 56 39.48 56 36 C 56.0017 35.9066 55.9983 35.8131 55.99 35.72 L 56 35.72 L 56 17 Z M 27 25 C 21.66 25 16.94 23.7 14.03 21.69 C 18.2582 20.5488 22.6205 19.9804 27 20 C 27.5 20 28 20.01 28.5 20.03 C 32.7267 20.2219 36.9191 20.8826 41 22 C 38.37 23.82 33.22 24.75 28.5 24.96 C 28.01 24.99 27.51 25 27 25 Z" id="Shape" fill="#FF9801"/><path d=" M 30 1 C 29.5 1 29 1.01 28.51 1.02 C 43.83 1.46 56 8.44 56 17 C 56 25.56 43.83 32.54 28.51 32.98 C 29 32.99 29.5 33 30 33 C 46.02 33 59 25.84 59 17 C 59 8.16 46.02 1 30 1 Z" id="Shape" fill="#FEC108"/><path d=" M 28.51 1.02 L 28.49 1.02 C 13.17 1.46 1 8.44 1 17 C 1 25.56 13.17 32.54 28.49 32.98 L 28.51 32.98 C 43.83 32.54 56 25.56 56 17 C 56 8.44 43.83 1.46 28.51 1.02 Z M 42.97 21.69 C 40.06 23.7 35.34 25 30 25 C 29.49 25 28.99 24.99 28.5 24.96 C 23.78 24.75 19.66 23.51 17.03 21.69 C 15.12 20.37 14 18.75 14 17 C 14 12.83 20.36 9.41 28.5 9.03 C 28.99 9.01 29.49 9 30 9 C 38.84 9 46 12.58 46 17 C 46 18.75 44.88 20.37 42.97 21.69 Z" id="Shape" fill="#FFDC00"/><rect x="41" y="33" width="3" height="19" id="Rectangle-path" fill="#FDD834"/><path d=" M 41 33 L 41 52 L 30 52 C 13.98 52 1 44.84 1 36 L 1 17 C 1 25.84 13.98 33 30 33 L 41 33 Z" id="Shape" fill="#FFEB3A"/><path d=" M 54 39.33 L 50 42.5 L 53.57 45.33 L 54 45.67 L 50 48.83 L 54 52 L 44 52 L 44 33 L 54 33 L 50 36.17 Z" id="Shape" fill="#DFC49C"/><path d=" M 51 39.33 L 47 42.5 L 50.57 45.33 L 51 45.67 L 47 48.83 L 51 52 L 44 52 L 44 33 L 51 33 L 47 36.17 Z" id="Shape" fill="#FFE0B2"/><path d=" M 30 34 C 13.458 34 0 26.374 0 17 C 0 7.626 13.458 0 30 0 C 46.542 0 60 7.626 60 17 C 60 26.374 46.542 34 30 34 Z M 30 2 C 14.561 2 2 8.729 2 17 C 2 25.271 14.561 32 30 32 C 45.439 32 58 25.271 58 17 C 58 8.729 45.439 2 30 2 Z" id="Shape" fill="#000000"/><path d=" M 42.971 22.69 C 42.8805 22.6898 42.7904 22.6777 42.703 22.654 C 34.3726 20.49 25.6274 20.49 17.297 22.654 C 16.9526 22.7492 16.5836 22.6535 16.3289 22.4028 C 16.0742 22.1521 15.9727 21.7847 16.0624 21.4388 C 16.1521 21.0929 16.4196 20.8212 16.764 20.726 C 21.0781 19.5572 25.5304 18.9766 30 19 C 34.4696 18.9766 38.9219 19.5572 43.236 20.726 C 43.7183 20.859 44.028 21.3279 43.9611 21.8237 C 43.8942 22.3195 43.4713 22.6895 42.971 22.69 Z" id="Shape" fill="#000000"/><path d=" M 30 53 C 13.458 53 0 45.374 0 36 C -6.76354e-17 35.4477 0.447715 35 1 35 C 1.55228 35 2 35.4477 2 36 C 2 44.271 14.561 51 30 51 C 30.5523 51 31 51.4477 31 52 C 31 52.5523 30.5523 53 30 53 Z" id="Shape" fill="#000000"/><path d=" M 53.571 46.33 C 53.1431 46.3298 52.7628 46.0573 52.6249 45.6522 C 52.487 45.2472 52.6221 44.7992 52.961 44.538 C 56.258 42 58 39.05 58 36 C 58.003 35.9427 58.003 35.8853 58 35.828 C 57.9505 35.2847 58.3455 34.802 58.8879 34.7431 C 59.4302 34.6841 59.9197 35.0708 59.988 35.612 C 59.999 35.741 60.003 35.8705 60 36 C 60 39.694 57.987 43.2 54.18 46.123 C 54.0056 46.2576 53.7913 46.3304 53.571 46.33 Z" id="Shape" fill="#000000"/><path d=" M 30 26 C 20.468 26 13 22.047 13 17 C 13 11.953 20.468 8 30 8 C 39.532 8 47 11.953 47 17 C 47 22.047 39.532 26 30 26 Z M 30 10 C 21.869 10 15 13.206 15 17 C 15 20.794 21.869 24 30 24 C 38.131 24 45 20.794 45 17 C 45 13.206 38.131 10 30 10 Z" id="Shape" fill="#000000"/><path d=" M 1 37 C 0.447715 37 6.76354e-17 36.5523 0 36 L 0 17 C -6.76354e-17 16.4477 0.447715 16 1 16 C 1.55228 16 2 16.4477 2 17 L 2 36 C 2 36.5523 1.55228 37 1 37 Z" id="Shape" fill="#000000"/><path d=" M 59 36.722 C 58.4477 36.722 58 36.2743 58 35.722 L 58 17 C 58 16.4477 58.4477 16 59 16 C 59.5523 16 60 16.4477 60 17 L 60 35.722 C 60 36.2743 59.5523 36.722 59 36.722 Z" id="Shape" fill="#000000"/><path d=" M 54 34 L 30 34 C 29.4477 34 29 33.5523 29 33 C 29 32.4477 29.4477 32 30 32 L 54 32 C 54.5523 32 55 32.4477 55 33 C 55 33.5523 54.5523 34 54 34 Z" id="Shape" fill="#000000"/><path d=" M 54 53 L 30 53 C 29.4477 53 29 52.5523 29 52 C 29 51.4477 29.4477 51 30 51 L 54 51 C 54.5523 51 55 51.4477 55 52 C 55 52.5523 54.5523 53 54 53 Z" id="Shape" fill="#000000"/><path d=" M 54 40.333 C 53.775 40.3331 53.5566 40.2574 53.38 40.118 L 49.38 36.951 C 49.1401 36.7613 49.0001 36.4723 49.0001 36.1665 C 49.0001 35.8607 49.1401 35.5717 49.38 35.382 L 53.38 32.216 C 53.6601 31.9941 54.0373 31.9386 54.3695 32.0702 C 54.7016 32.2018 54.9384 32.5007 54.9905 32.8542 C 55.0426 33.2077 54.9021 33.5621 54.622 33.784 L 51.612 36.167 L 54.622 38.549 C 54.9559 38.8133 55.0857 39.2601 54.9455 39.6622 C 54.8053 40.0643 54.4258 40.3335 54 40.333 Z" id="Shape" fill="#000000"/><path d=" M 54 46.667 C 53.7749 46.6668 53.5565 46.5907 53.38 46.451 L 49.38 43.284 C 49.1404 43.0943 49.0008 42.8055 49.0008 42.5 C 49.0008 42.1945 49.1404 41.9057 49.38 41.716 L 53.38 38.549 C 53.6603 38.3271 54.0376 38.2717 54.3699 38.4035 C 54.7022 38.5352 54.9389 38.8343 54.9909 39.1879 C 55.0429 39.5416 54.9023 39.8961 54.622 40.118 L 51.611 42.5 L 54.621 44.882 C 54.9556 45.146 55.086 45.5931 54.946 45.9956 C 54.8059 46.3981 54.4262 46.6676 54 46.667 Z" id="Shape" fill="#000000"/><path d=" M 54 53 C 53.7748 53.0003 53.5562 52.9241 53.38 52.784 L 49.38 49.618 C 49.1401 49.4283 49.0001 49.1393 49.0001 48.8335 C 49.0001 48.5277 49.1401 48.2387 49.38 48.049 L 53.38 44.882 C 53.8133 44.539 54.4425 44.6122 54.7855 45.0455 C 55.1285 45.4788 55.0553 46.108 54.622 46.451 L 51.612 48.833 L 54.622 51.216 C 54.9559 51.4803 55.0857 51.9271 54.9455 52.3292 C 54.8053 52.7313 54.4258 53.0005 54 53 Z" id="Shape" fill="#000000"/><path d=" M 44 53 C 43.4477 53 43 52.5523 43 52 L 43 33 C 43 32.4477 43.4477 32 44 32 C 44.5523 32 45 32.4477 45 33 L 45 52 C 45 52.5523 44.5523 53 44 53 Z" id="Shape" fill="#000000"/></g></g></svg>