<svg version="1.1" width="682.667" height="682.667" viewBox="-82 0 512 512.001" xmlns="http://www.w3.org/2000/svg" xmlns:xlink="http://www.w3.org/1999/xlink" overflow="hidden"><g fill-rule="evenodd"><path d=" M 153.602 10 L 258.816 10 L 258.816 191.496 L 153.602 191.496 Z" fill="#3C5485"/><path d=" M 153.602 153.859 L 258.816 153.859 L 258.816 191.496 L 153.602 191.496 Z" fill="#FD4A4A"/><path d=" M 229.926 307.176 L 178.742 307.176 C 149.707 307.176 125.949 330.934 125.949 359.969 L 125.949 501.996 L 282.723 501.996 L 282.723 359.969 C 282.723 330.934 258.965 307.176 229.926 307.176 Z" fill="#3C5485"/><path d=" M 199.238 303.086 C 229.609 292.77 251.48 264.035 251.48 230.18 C 251.48 216.078 247.684 202.863 241.063 191.492 L 157.41 191.492 C 150.793 202.863 146.992 216.078 146.992 230.18 C 146.992 264.035 168.863 292.773 199.238 303.086 Z" fill="#FFC397"/><path d=" M 174.488 384.52 L 229.926 307.176 L 119.047 307.176 L 146.766 345.848 Z" fill="#E1E6E9"/><path d=" M 66.2539 359.969 L 10 501.996 L 66.2539 501.996 Z" fill="#3C5485"/><path d=" M 282.723 359.969 L 338.973 501.996 L 282.723 501.996 Z" fill="#3C5485"/></g><path d=" M 80.5195 181.496 L 58.4531 181.496 C 52.9297 181.496 48.4531 185.973 48.4531 191.492 C 48.4531 197.016 52.9297 201.492 58.4531 201.492 L 92.3594 201.492 C 89.1602 210.672 87.4922 220.371 87.4922 230.184 C 87.4922 257.102 99.7852 281.207 119.055 297.176 L 119.047 297.176 C 118.988 297.176 118.93 297.18 118.871 297.18 C 118.805 297.18 118.73 297.184 118.664 297.184 C 84.8984 297.391 57.3828 324.375 56.3047 357.93 L 0.703125 498.313 C 0.667969 498.398 0.648438 498.484 0.617188 498.57 C 0.542969 498.77 0.46875 498.969 0.410156 499.176 C 0.367188 499.316 0.335938 499.461 0.300781 499.605 C 0.257812 499.773 0.214844 499.945 0.183594 500.117 C 0.148438 500.305 0.121094 500.496 0.0976562 500.684 C 0.078125 500.816 0.0585938 500.945 0.046875 501.078 C 0.0273438 501.309 0.015625 501.535 0.0117188 501.766 C 0.0117188 501.844 -1.21431e-17 501.918 -1.21431e-17 501.996 C -1.21431e-17 502.02 0.00390625 502.047 0.00390625 502.07 C 0.0078125 502.305 0.0234375 502.535 0.0390625 502.77 C 0.046875 502.875 0.0507812 502.98 0.0625 503.086 C 0.0820312 503.277 0.117188 503.473 0.148438 503.66 C 0.171875 503.805 0.191406 503.945 0.222656 504.082 C 0.25 504.223 0.289062 504.355 0.328125 504.492 C 0.375 504.676 0.417969 504.859 0.472656 505.043 C 0.503906 505.129 0.539062 505.215 0.570312 505.301 C 0.648438 505.52 0.722656 505.738 0.816406 505.949 C 0.84375 506.023 0.886719 506.094 0.917969 506.168 C 1.01953 506.383 1.11719 506.598 1.23047 506.809 C 1.29688 506.926 1.37109 507.035 1.44141 507.152 C 1.53516 507.309 1.625 507.465 1.72656 507.613 C 1.85156 507.805 1.99609 507.984 2.13672 508.164 C 2.19141 508.23 2.23828 508.305 2.29297 508.367 C 2.46875 508.582 2.65625 508.785 2.85156 508.984 C 2.87891 509.016 2.90625 509.047 2.93359 509.074 C 3.11719 509.258 3.3125 509.43 3.51172 509.602 C 3.55859 509.641 3.60547 509.684 3.65234 509.723 C 3.81641 509.859 3.99219 509.984 4.16406 510.109 C 4.26172 510.176 4.35156 510.25 4.44922 510.313 C 4.58203 510.402 4.72656 510.484 4.86719 510.566 C 5.01563 510.656 5.16016 510.75 5.31641 510.828 C 5.42578 510.891 5.53906 510.938 5.65234 510.992 C 5.84375 511.086 6.03906 511.18 6.23828 511.262 C 6.26563 511.27 6.28906 511.285 6.31641 511.297 C 6.41016 511.332 6.50781 511.359 6.60547 511.395 C 6.78516 511.457 6.96094 511.523 7.14453 511.578 C 7.30078 511.625 7.45703 511.66 7.61719 511.699 C 7.76563 511.738 7.91016 511.777 8.05859 511.805 C 8.30469 511.855 8.55078 511.891 8.79688 511.918 C 8.86719 511.926 8.92969 511.941 8.99609 511.945 C 9.33203 511.98 9.66406 512 9.99609 512 C 10.0078 512 10.0195 511.996 10.0352 511.996 L 95.5156 511.996 C 101.039 511.996 105.516 507.52 105.516 501.996 C 105.516 496.477 101.039 491.996 95.5156 491.996 L 76.25 491.996 L 76.25 359.969 C 76.25 338.039 92.832 319.918 114.117 317.469 L 164.484 387.734 L 164.484 502 C 164.484 502.344 164.5 502.684 164.535 503.02 C 165.047 508.063 169.305 511.996 174.484 511.996 L 338.934 511.996 C 338.945 511.996 338.961 512 338.973 512 C 339.305 512 339.637 511.98 339.969 511.945 C 340.039 511.941 340.105 511.926 340.172 511.918 C 340.418 511.891 340.664 511.855 340.906 511.809 C 341.055 511.777 341.203 511.738 341.348 511.703 C 341.508 511.664 341.668 511.629 341.824 511.578 C 342.008 511.523 342.184 511.461 342.363 511.395 C 342.457 511.359 342.555 511.336 342.652 511.297 C 342.68 511.285 342.703 511.273 342.73 511.262 C 342.93 511.18 343.125 511.086 343.316 510.992 C 343.426 510.938 343.543 510.891 343.652 510.832 C 343.805 510.75 343.953 510.656 344.102 510.566 C 344.242 510.484 344.383 510.406 344.52 510.316 C 344.617 510.25 344.707 510.176 344.801 510.109 C 344.977 509.984 345.152 509.859 345.316 509.727 C 345.363 509.688 345.406 509.641 345.457 509.602 C 345.652 509.43 345.852 509.258 346.035 509.074 C 346.063 509.047 346.086 509.016 346.113 508.988 C 346.309 508.789 346.5 508.586 346.676 508.371 C 346.73 508.305 346.777 508.234 346.828 508.168 C 346.973 507.984 347.113 507.805 347.242 507.613 C 347.344 507.465 347.434 507.309 347.523 507.152 C 347.594 507.039 347.672 506.926 347.734 506.809 C 347.848 506.602 347.949 506.383 348.051 506.168 C 348.082 506.094 348.121 506.023 348.152 505.949 C 348.242 505.738 348.32 505.52 348.398 505.301 C 348.43 505.215 348.465 505.129 348.492 505.043 C 348.551 504.863 348.594 504.676 348.641 504.492 C 348.676 504.355 348.719 504.223 348.746 504.086 C 348.773 503.945 348.793 503.805 348.816 503.664 C 348.852 503.473 348.883 503.281 348.906 503.086 C 348.918 502.98 348.922 502.875 348.93 502.77 C 348.945 502.535 348.961 502.305 348.965 502.07 C 348.965 502.047 348.969 502.023 348.969 502 C 348.969 501.922 348.957 501.844 348.957 501.766 C 348.949 501.539 348.941 501.309 348.922 501.078 C 348.906 500.945 348.887 500.816 348.871 500.684 C 348.848 500.496 348.82 500.309 348.785 500.117 C 348.75 499.945 348.711 499.777 348.668 499.605 C 348.633 499.465 348.598 499.32 348.559 499.176 C 348.496 498.969 348.426 498.77 348.352 498.57 C 348.32 498.484 348.297 498.398 348.266 498.316 L 292.664 357.93 C 291.582 324.371 264.063 297.383 230.293 297.184 C 230.23 297.184 230.168 297.18 230.105 297.18 C 230.043 297.18 229.98 297.176 229.918 297.176 L 229.914 297.176 C 249.18 281.207 261.473 257.102 261.473 230.184 C 261.473 220.375 259.809 210.672 256.605 201.492 L 290.883 201.492 C 296.406 201.492 300.883 197.016 300.883 191.492 C 300.883 185.973 296.406 181.496 290.883 181.496 L 268.816 181.496 L 268.816 10 C 268.816 4.47656 264.34 1.98952e-13 258.816 1.98952e-13 L 90.5195 1.98952e-13 C 84.9961 1.98952e-13 80.5195 4.47656 80.5195 10 Z M 56.2539 491.996 L 24.7148 491.996 L 56.25 412.375 L 56.25 491.996 Z M 292.723 412.375 L 324.258 491.996 L 292.723 491.996 Z M 272.723 359.969 L 272.723 491.996 L 184.488 491.996 L 184.488 387.734 L 234.852 317.465 C 256.137 319.918 272.723 338.039 272.723 359.969 Z M 210.457 317.176 L 174.488 367.355 L 138.52 317.176 Z M 100.52 163.859 L 133.824 163.859 C 139.348 163.859 143.824 159.383 143.824 153.859 C 143.824 148.336 139.348 143.859 133.824 143.859 L 100.52 143.859 L 100.52 20 L 248.816 20 L 248.816 143.859 L 212.789 143.859 C 207.27 143.859 202.789 148.336 202.789 153.859 C 202.789 159.383 207.27 163.859 212.789 163.859 L 248.816 163.859 L 248.816 181.496 L 100.52 181.496 Z M 107.492 230.184 C 107.492 220.227 109.719 210.414 113.949 201.492 L 235.027 201.492 C 239.258 210.418 241.48 220.227 241.48 230.184 C 241.48 263.723 216.703 291.586 184.488 296.426 L 184.488 292.313 C 184.488 286.793 180.008 282.313 174.484 282.313 C 168.965 282.313 164.488 286.793 164.488 292.316 L 164.488 296.426 C 132.273 291.582 107.492 263.723 107.492 230.184 Z"/><path d=" M 125.082 491.996 L 124.605 491.996 C 119.082 491.996 114.605 496.477 114.605 501.996 C 114.605 507.52 119.082 511.996 124.605 511.996 L 125.082 511.996 C 130.602 511.996 135.082 507.52 135.082 501.996 C 135.082 496.473 130.602 491.996 125.082 491.996 Z"/><path d=" M 183.707 143.859 L 183.23 143.859 C 177.707 143.859 173.23 148.336 173.23 153.859 C 173.23 159.383 177.707 163.859 183.23 163.859 L 183.707 163.859 C 189.227 163.859 193.707 159.383 193.707 153.859 C 193.707 148.34 189.227 143.859 183.707 143.859 Z"/><path d=" M 213.465 382 C 207.941 382 203.465 386.477 203.465 392 C 203.465 397.523 207.941 402 213.465 402 L 254.902 402 C 260.426 402 264.902 397.523 264.902 392 C 264.902 386.477 260.426 382 254.902 382 Z"/><path d=" M 155.492 273.867 C 161.016 273.867 165.492 269.387 165.492 263.867 C 165.492 261.676 168.996 258.5 174.488 258.5 C 179.977 258.5 183.48 261.68 183.48 263.867 C 183.48 269.387 187.957 273.867 193.48 273.867 C 199.004 273.867 203.48 269.387 203.48 263.867 C 203.48 249.879 190.473 238.5 174.488 238.5 C 158.5 238.5 145.492 249.879 145.492 263.867 C 145.492 269.391 149.973 273.867 155.492 273.867 Z"/></svg>