<svg version="1.1" width="682.667" height="682.667" viewBox="-110 0 512 512" xmlns="http://www.w3.org/2000/svg" xmlns:xlink="http://www.w3.org/1999/xlink" overflow="hidden"><path d=" M 282 462 L 10 462 C 32.0898 462 50 479.91 50 502 L 242 502 C 242 479.91 259.91 462 282 462 Z" fill="#D1DDDE"/><path d=" M 282 50 L 10 50 C 32.0898 50 50 32.0898 50 10 L 242 10 C 242 32.0898 259.91 50 282 50 Z" fill="#D1DDDE"/><path d=" M 10 50 L 282 50 L 282 462 L 10 462 Z" fill="#FF6977"/><path d=" M 206.914 50 L 188.902 66.75 C 131 120.582 131.824 212.516 190.68 265.305 C 247.219 316.008 250.566 403.445 198.07 458.328 L 194.555 462 L 282 462 L 282 50 Z" fill="#00CCF2"/><path d=" M 194.555 462 L 198.07 458.328 C 250.566 403.445 247.219 316.008 190.68 265.305 C 131.824 212.516 131 120.582 188.902 66.75 L 206.914 50 L 121.809 50 L 118.297 53.6719 C 65.8008 108.555 69.1484 195.992 125.684 246.695 C 184.543 299.484 185.367 391.418 127.465 445.25 L 109.449 462 Z" fill="#FFFFFF"/><path d=" M 282 40 C 268.727 40 257.441 31.3281 253.504 19.3555 C 257.297 17.9375 260 14.2891 260 10 C 260 4.47656 255.523 0 250 0 L 42 0 C 36.4766 0 32 4.47656 32 10 C 32 14.2891 34.7031 17.9375 38.4961 19.3555 C 34.5586 31.3281 23.2734 40 10 40 C 4.47656 40 0 44.4766 0 50 L 0 176 C 0 181.523 4.47656 186 10 186 C 15.5234 186 20 181.523 20 176 L 20 60 L 99.8242 60 C 79.9375 86.4102 69.8242 118.539 71.1094 152.133 C 72.6172 191.566 89.6289 227.793 119.008 254.141 C 144.973 277.43 160.047 310.793 160.359 345.672 C 160.672 380.551 146.199 414.176 120.656 437.93 L 105.52 452 L 20 452 L 20 256.129 C 20 250.605 15.5234 246.129 10 246.129 C 4.47656 246.129 0 250.605 0 256.129 L 0 462 C 0 467.523 4.47656 472 10 472 C 23.2734 472 34.5586 480.672 38.4961 492.645 C 34.7031 494.063 32 497.711 32 502 C 32 507.523 36.4766 512 42 512 L 250 512 C 255.523 512 260 507.523 260 502 C 260 497.711 257.297 494.063 253.504 492.645 C 257.441 480.672 268.727 472 282 472 C 287.523 472 292 467.523 292 462 L 292 50 C 292 44.4766 287.523 40 282 40 Z M 49.9766 40 C 54.3516 34.1836 57.4922 27.3828 58.9961 20 L 233.008 20 C 234.512 27.3828 237.648 34.1836 242.023 40 Z M 180.359 345.492 C 179.996 305.008 162.5 266.285 132.359 239.254 C 107.051 216.555 92.3945 185.344 91.0938 151.367 C 89.793 117.395 102.02 85.1523 125.52 60.5859 L 126.078 60 L 181.488 60 C 152.219 87.5352 135.645 126.301 136.008 166.508 C 136.367 206.992 153.863 245.715 184.004 272.746 C 209.316 295.445 223.969 326.656 225.27 360.633 C 226.57 394.605 214.344 426.848 190.844 451.414 L 190.285 452 L 134.875 452 C 164.148 424.465 180.719 385.699 180.359 345.492 Z M 233.004 492 L 58.9961 492 C 57.4883 484.617 54.3516 477.816 49.9766 472 L 242.023 472 C 237.648 477.816 234.512 484.617 233.004 492 Z M 272 452 L 216.539 452 C 236.426 425.59 246.539 393.461 245.258 359.867 C 243.746 320.434 226.734 284.207 197.359 257.859 C 171.391 234.57 156.316 201.207 156.004 166.328 C 155.691 131.449 170.164 97.8242 195.711 74.0703 L 210.844 60 L 272 60 Z"/><path d=" M 53.668 373 L 114 373 C 119.523 373 124 368.523 124 363 C 124 357.477 119.523 353 114 353 L 53.668 353 C 48.1445 353 43.668 357.477 43.668 363 C 43.668 368.523 48.1445 373 53.668 373 Z"/><path d=" M 53.668 421 L 92 421 C 97.5234 421 102 416.523 102 411 C 102 405.477 97.5234 401 92 401 L 53.668 401 C 48.1445 401 43.668 405.477 43.668 411 C 43.668 416.523 48.1445 421 53.668 421 Z"/><path d=" M 245.5 143 L 201 143 C 195.477 143 191 147.477 191 153 C 191 158.523 195.477 163 201 163 L 245.5 163 C 251.023 163 255.5 158.523 255.5 153 C 255.5 147.477 251.023 143 245.5 143 Z"/><path d=" M 245.5 191 L 214 191 C 208.477 191 204 195.477 204 201 C 204 206.523 208.477 211 214 211 L 245.5 211 C 251.023 211 255.5 206.523 255.5 201 C 255.5 195.477 251.023 191 245.5 191 Z"/><path d=" M 10 226 C 12.6289 226 15.2109 224.93 17.0703 223.07 C 18.9297 221.211 20 218.629 20 216 C 20 213.371 18.9297 210.789 17.0703 208.93 C 15.2109 207.07 12.6289 206 10 206 C 7.37109 206 4.78906 207.07 2.92969 208.93 C 1.07031 210.789 -4.44089e-16 213.371 -4.44089e-16 216 C -4.44089e-16 218.629 1.07031 221.211 2.92969 223.07 C 4.78906 224.93 7.37109 226 10 226 Z"/></svg>