<svg version="1.1" width="160" height="160" viewBox="0 0 160 160" xmlns="http://www.w3.org/2000/svg" xmlns:xlink="http://www.w3.org/1999/xlink" id="图层_1_1_" overflow="hidden"><g><g><path d=" M 80 9.134 C 119.032 9.134 150.866 40.968 150.866 79.999 C 150.866 119.031 119.032 150.865 80 150.865 C 40.969 150.865 9.134 119.031 9.134 79.999 C 9.134 40.968 40.969 9.134 80 9.134 L 80 9.134 Z M 80 11.958 C 42.524 11.958 11.958 42.523 11.958 79.999 C 11.958 117.476 42.524 148.041 80 148.041 C 117.477 148.041 148.043 117.476 148.043 79.999 C 148.043 42.523 117.477 11.958 80 11.958 L 80 11.958 Z" fill="#004EA2"/><path d=" M 55.109 110.202 C 50.672 106.538 47.05 101.916 44.564 96.657 C 42.171 91.595 40.832 85.946 40.832 79.999 C 40.832 58.428 58.427 40.833 80 40.833 C 101.572 40.833 119.167 58.428 119.167 79.999 C 119.167 85.946 117.827 91.596 115.435 96.657 C 112.95 101.916 109.328 106.538 104.89 110.202 L 103.992 109.116 C 108.272 105.58 111.766 101.123 114.162 96.056 C 116.466 91.181 117.756 85.737 117.756 79.998 C 117.756 59.204 100.796 42.243 80.001 42.243 C 59.205 42.243 42.245 59.204 42.245 79.998 C 42.245 85.736 43.535 91.181 45.839 96.056 C 48.234 101.122 51.728 105.579 56.008 109.116 L 55.109 110.202 L 55.109 110.202 Z" fill="#004EA2"/><path d=" M 80.237 116.169 L 72.216 103.93 C 74.679 102.662 74.374 98.708 72.264 98.379 C 69.915 98.011 68.045 97.898 66.397 94.205 L 70.218 94.205 L 69.045 91.002 C 64.673 91.386 63.781 90.171 61.708 86.756 L 67.169 86.569 L 66.065 83.782 C 60.114 84.058 58.544 82.599 57.058 79.208 L 63.992 78.965 L 62.491 75.649 C 55.39 75.847 53.887 75.646 51.283 70.844 L 60.104 70.801 L 58.86 67.642 C 50.82 67.989 48.812 67.202 46.536 63.181 L 64.608 62.724 C 67.242 62.657 70.249 64.452 71.357 66.841 L 73.53 71.53 L 75.817 63.638 C 76.996 59.572 85.882 61.046 88.742 63.752 L 83.367 65.696 L 85.997 72.1 C 87.903 67.64 90.238 62.722 95.262 62.722 L 112.991 62.722 C 111.627 66.639 108.334 68.592 101.176 67.325 L 99.918 70.641 L 108.759 70.614 C 106.643 75.547 104.295 76.167 97.719 75.419 L 96.346 78.735 L 103.384 78.964 C 102.03 82.09 99.579 83.959 94.146 83.309 L 93.002 86.538 L 98.606 86.512 C 97 90.44 95.963 91.317 90.855 91.087 L 89.684 94.289 L 93.721 94.304 C 92.024 97.723 91.521 98.129 87.899 98.45 C 85.746 98.641 84.786 102.088 87.653 104.131 L 80.237 116.169 L 80.237 116.169 Z" fill="#004EA2" fill-rule="evenodd" clip-rule="evenodd"/><path d=" M 19.315 103.654 L 16.643 96.484 L 18.103 95.976 L 30.351 97.844 L 28.477 92.815 L 29.937 92.307 L 32.383 98.873 L 30.924 99.382 L 18.676 97.517 L 20.774 103.146 L 19.315 103.654 Z" fill="#004EA2" fill-rule="evenodd" clip-rule="evenodd"/><path d=" M 23.979 113.432 L 23.241 111.999 L 29.002 109.036 L 27.175 105.483 L 21.414 108.445 L 20.676 107.014 L 32.991 100.68 L 33.729 102.113 L 28.542 104.779 L 30.37 108.333 L 35.557 105.665 L 36.293 107.099 L 23.979 113.432 Z" fill="#004EA2" fill-rule="evenodd" clip-rule="evenodd"/><path d=" M 29.82 121.233 L 25.445 115.123 L 36.995 107.95 L 41.157 113.762 L 39.874 114.559 L 36.698 110.124 L 33.116 112.349 L 36.034 116.423 L 34.752 117.22 L 31.834 113.145 L 27.713 115.705 L 31.103 120.438 L 29.82 121.233 Z" fill="#004EA2" fill-rule="evenodd" clip-rule="evenodd"/><path d=" M 39.635 130.837 L 38.169 129.6 L 46.67 119.156 L 48.137 120.394 L 39.635 130.837 Z" fill="#004EA2" fill-rule="evenodd" clip-rule="evenodd"/><path d=" M 46.219 135.438 L 47.961 131.735 L 45.85 130.206 L 42.707 133.266 L 41.272 132.157 L 51.237 122.31 L 53.236 123.529 L 47.928 136.4 L 46.219 135.438 L 46.219 135.438 Z M 48.765 129.924 L 50.843 125.152 L 50.651 124.995 L 47.058 128.65 L 48.765 129.924 L 48.765 129.924 Z" fill="#004EA2" fill-rule="evenodd" clip-rule="evenodd"/><path d=" M 56.208 140.266 L 54.408 139.429 L 55.458 129.82 L 51.522 137.898 L 49.726 137.072 L 55.972 124.703 L 57.594 125.455 L 56.84 134.584 L 60.9 127.046 L 62.411 127.674 L 56.208 140.266 Z" fill="#004EA2" fill-rule="evenodd" clip-rule="evenodd"/><path d=" M 65.508 143.04 L 64.347 142.661 L 64.454 141.573 C 64.183 141.806 63.822 141.955 63.374 142.022 C 62.925 142.091 62.476 142.05 62.02 141.902 C 61.06 141.59 60.351 140.837 59.893 139.643 C 59.433 138.449 59.524 136.806 60.168 134.714 C 60.873 132.43 61.739 130.839 62.769 129.943 C 63.797 129.05 65.361 128.551 66.744 128.994 C 68.233 129.469 69.199 131.3 68.771 133.834 L 66.993 133.688 C 67.3 132.603 67.144 130.91 66.084 130.565 C 65.225 130.286 64.262 130.55 63.65 131.234 C 63.037 131.919 62.441 133.208 61.856 135.106 C 61.302 136.905 61.148 138.218 61.393 139.048 C 61.638 139.878 62.06 140.389 62.651 140.582 C 63.244 140.775 63.782 140.697 64.267 140.345 C 64.75 139.996 65.144 139.332 65.443 138.362 L 65.691 137.559 L 63.571 136.868 L 63.998 135.483 L 67.486 136.621 L 65.508 143.04 L 65.508 143.04 Z" fill="#004EA2" fill-rule="evenodd" clip-rule="evenodd"/><path d=" M 83.931 139.989 C 83.891 141.236 83.557 142.213 82.933 142.919 C 82.308 143.625 81.344 143.951 80.043 143.902 C 78.743 143.853 77.802 143.455 77.225 142.704 C 76.648 141.952 76.377 140.953 76.418 139.706 L 76.723 130.271 L 78.385 130.333 L 78.08 139.768 C 78.051 140.652 78.224 141.309 78.596 141.739 C 78.968 142.17 79.467 142.398 80.092 142.423 C 80.718 142.445 81.23 142.255 81.629 141.854 C 82.027 141.453 82.242 140.812 82.271 139.927 L 82.577 130.492 L 84.238 130.554 L 83.931 139.989 L 83.931 139.989 Z" fill="#004EA2" fill-rule="evenodd" clip-rule="evenodd"/><path d=" M 93.385 142.508 L 91.903 142.732 L 87.231 133.728 L 87.945 143.395 L 86.184 143.647 L 85.15 130.092 L 87.177 129.904 L 91.03 136.22 L 90.315 129.422 L 91.786 129.17 L 93.385 142.508 Z" fill="#004EA2" fill-rule="evenodd" clip-rule="evenodd"/><path d=" M 98.448 141.088 L 96.71 141.615 L 93.097 128.785 L 94.835 128.258 L 98.448 141.088 Z" fill="#004EA2" fill-rule="evenodd" clip-rule="evenodd"/><path d=" M 103.136 124.829 L 105.333 138.994 L 103.619 139.839 L 96.116 127.816 L 97.767 127.121 L 102.982 135.319 L 101.536 125.525 L 103.136 124.829 Z" fill="#004EA2" fill-rule="evenodd" clip-rule="evenodd"/><path d=" M 117.071 132.858 L 110.739 136.281 L 103.845 124.443 L 109.867 121.189 L 110.633 122.503 L 106.038 124.986 L 108.176 128.657 L 112.397 126.376 L 113.163 127.69 L 108.94 129.972 L 111.4 134.195 L 116.306 131.544 L 117.071 132.858 Z" fill="#004EA2" fill-rule="evenodd" clip-rule="evenodd"/><path d=" M 124.285 127.8 L 122.892 128.99 L 117.985 124.925 L 116.716 126.074 L 120.032 130.584 L 118.64 132.042 L 110.518 120.64 L 113.107 118.786 C 113.935 118.192 115.023 117.768 116.003 117.885 C 118.532 118.186 119.613 119.89 119.497 121.871 C 119.461 122.496 119.425 123.105 119.18 123.725 L 124.285 127.8 L 124.285 127.8 Z M 115.533 119.768 C 114.502 119.487 113.69 120.284 112.948 120.864 L 115.647 124.428 C 116.472 123.834 116.856 123.705 117.48 122.629 C 117.75 121.335 117.172 120.216 115.533 119.768 L 115.533 119.768 Z" fill="#004EA2" fill-rule="evenodd" clip-rule="evenodd"/><path d=" M 128.666 116.791 C 131.497 118.492 130.837 123.318 127.116 123.882 C 126.115 124.033 124.938 123.731 124.432 123.411 L 125.068 121.967 C 125.681 122.104 126.302 122.325 126.89 122.214 C 129.301 121.755 129.195 119.25 127.789 118.212 C 127.299 117.85 126.598 117.804 126.018 117.868 C 124.391 118.05 123.349 119.264 121.539 119.377 C 119.56 119.502 118.182 118.295 117.859 116.369 C 117.688 115.348 117.932 114.358 118.439 113.563 C 119.486 111.924 121.708 111.702 123.327 112.657 L 122.697 114.146 C 121.822 113.681 120.268 113.683 119.683 114.598 C 119.378 115.077 119.272 115.567 119.364 116.066 C 119.567 117.153 120.31 117.784 121.357 117.658 C 123.114 117.444 124.302 115.999 126.031 116.055 C 126.855 116.083 127.832 116.29 128.666 116.791 L 128.666 116.791 Z" fill="#004EA2" fill-rule="evenodd" clip-rule="evenodd"/><path d=" M 134.638 115.032 L 133.618 116.283 L 121.945 108.964 L 122.965 107.713 L 134.638 115.032 Z" fill="#004EA2" fill-rule="evenodd" clip-rule="evenodd"/><path d=" M 128.746 100.267 L 127.454 102.661 L 138.479 109.144 L 137.736 110.521 L 126.712 104.037 L 125.42 106.431 L 124.043 105.621 L 127.369 99.457 L 128.746 100.267 Z" fill="#004EA2" fill-rule="evenodd" clip-rule="evenodd"/><path d=" M 130.768 91.16 L 137.492 97.17 L 141.982 99.092 L 141.435 100.606 L 137.275 98.996 L 127.698 98.774 L 128.158 97.24 L 134.841 97.348 L 130.109 92.994 L 130.768 91.16 Z" fill="#004EA2" fill-rule="evenodd" clip-rule="evenodd"/><path d=" M 38.605 124.806 C 37.416 125.99 36.305 126.602 35.275 126.636 C 34.245 126.671 33.313 126.262 32.474 125.407 C 31.71 124.63 31.332 123.724 31.341 122.688 C 31.345 122.163 31.498 121.623 31.797 121.068 L 33.311 121.993 C 33.182 122.256 33.114 122.506 33.108 122.745 C 33.093 123.309 33.267 123.779 33.63 124.15 C 34.141 124.67 34.677 124.904 35.238 124.857 C 35.8 124.81 36.483 124.387 37.29 123.585 L 44.021 116.921 L 45.277 118.2 L 38.605 124.806 L 38.605 124.806 Z" fill="#004EA2" fill-rule="evenodd" clip-rule="evenodd"/><path d=" M 61.508 122.472 L 56.789 119.544 L 57.217 118.803 L 58.969 119.892 L 61.776 115.006 L 60.022 113.917 L 60.404 113.254 C 61.068 113.665 61.596 113.899 61.992 113.949 C 62.385 113.999 62.717 113.844 62.985 113.473 L 63.991 114.095 L 60.221 120.664 L 61.934 121.726 L 61.508 122.472 L 61.508 122.472 Z M 75.58 119.489 C 75.655 119.114 75.525 118.775 75.188 118.468 C 74.847 118.166 74.333 117.965 73.642 117.869 C 73.008 117.782 72.471 117.823 72.022 117.992 C 71.571 118.157 71.308 118.431 71.23 118.815 C 71.173 119.094 71.23 119.341 71.397 119.561 C 71.562 119.781 71.836 119.996 72.216 120.206 C 72.385 120.293 72.639 120.422 72.987 120.586 C 73.332 120.746 73.648 120.884 73.939 120.988 C 74.495 120.81 74.888 120.595 75.124 120.362 C 75.358 120.12 75.511 119.828 75.58 119.489 L 75.58 119.489 Z M 74.967 123.716 C 75.038 123.368 74.988 123.085 74.823 122.852 C 74.652 122.619 74.292 122.358 73.737 122.065 C 73.554 121.969 73.307 121.855 72.998 121.727 C 72.687 121.598 72.337 121.448 71.948 121.279 C 71.427 121.421 71.006 121.622 70.69 121.887 C 70.372 122.152 70.175 122.482 70.098 122.866 C 69.995 123.374 70.148 123.817 70.553 124.216 C 70.958 124.61 71.518 124.862 72.232 124.957 C 72.962 125.062 73.575 124.998 74.071 124.778 C 74.571 124.554 74.869 124.201 74.967 123.716 L 74.967 123.716 Z M 72.042 125.793 C 71.399 125.701 70.825 125.56 70.322 125.363 C 69.819 125.166 69.407 124.928 69.082 124.64 C 68.764 124.366 68.542 124.063 68.416 123.725 C 68.29 123.391 68.263 123.052 68.331 122.704 C 68.425 122.251 68.695 121.862 69.148 121.533 C 69.598 121.204 70.202 120.979 70.961 120.851 L 70.968 120.819 C 70.378 120.49 69.96 120.165 69.708 119.836 C 69.461 119.507 69.379 119.131 69.466 118.706 C 69.594 118.07 70.07 117.599 70.889 117.283 C 71.712 116.963 72.689 116.885 73.819 117.041 C 75 117.205 75.903 117.535 76.53 118.038 C 77.159 118.532 77.41 119.095 77.285 119.712 C 77.209 120.088 76.965 120.436 76.551 120.755 C 76.134 121.075 75.588 121.295 74.906 121.409 L 74.901 121.446 C 75.608 121.78 76.125 122.136 76.447 122.516 C 76.772 122.896 76.879 123.344 76.774 123.852 C 76.628 124.57 76.106 125.115 75.203 125.485 C 74.301 125.857 73.247 125.963 72.042 125.793 L 72.042 125.793 Z M 88.366 120.619 C 88.366 120.043 88.286 119.571 88.129 119.21 C 87.969 118.849 87.749 118.569 87.468 118.373 C 87.221 118.189 86.967 118.061 86.711 117.993 C 86.454 117.929 86.173 117.892 85.864 117.892 C 85.164 117.892 84.606 118.061 84.192 118.395 C 83.773 118.729 83.567 119.209 83.567 119.845 C 83.567 120.206 83.633 120.494 83.771 120.728 C 83.908 120.961 84.129 121.163 84.441 121.328 C 84.654 121.442 84.901 121.524 85.173 121.566 C 85.444 121.607 85.739 121.626 86.051 121.626 C 86.414 121.626 86.811 121.58 87.229 121.497 C 87.653 121.41 88.018 121.296 88.332 121.159 C 88.339 121.099 88.349 121.026 88.355 120.93 C 88.364 120.839 88.366 120.738 88.366 120.619 L 88.366 120.619 Z M 81.834 119.892 C 81.834 119.453 81.941 119.055 82.151 118.698 C 82.367 118.333 82.657 118.021 83.03 117.76 C 83.38 117.508 83.812 117.317 84.325 117.174 C 84.835 117.032 85.349 116.964 85.876 116.964 C 86.461 116.964 86.992 117.028 87.466 117.16 C 87.942 117.289 88.353 117.48 88.7 117.727 C 89.139 118.039 89.478 118.446 89.721 118.949 C 89.961 119.457 90.084 120.093 90.084 120.866 C 90.084 121.566 89.966 122.234 89.728 122.86 C 89.493 123.492 89.147 124.013 88.685 124.424 C 88.196 124.863 87.608 125.202 86.921 125.431 C 86.233 125.664 85.386 125.779 84.377 125.779 C 84.151 125.779 83.908 125.774 83.652 125.757 C 83.396 125.738 83.156 125.706 82.933 125.66 L 82.933 124.571 L 83.02 124.571 C 83.163 124.627 83.384 124.681 83.688 124.727 C 83.988 124.777 84.296 124.8 84.608 124.8 C 85.724 124.8 86.602 124.557 87.239 124.068 C 87.877 123.574 88.238 122.874 88.323 121.964 C 87.868 122.17 87.435 122.321 87.023 122.417 C 86.607 122.513 86.159 122.559 85.676 122.559 C 85.202 122.559 84.775 122.523 84.386 122.454 C 83.999 122.386 83.608 122.253 83.217 122.057 C 82.759 121.824 82.416 121.531 82.183 121.178 C 81.95 120.82 81.834 120.395 81.834 119.892 L 81.834 119.892 Z M 100.334 112.641 L 100.023 121.388 L 98.682 122.235 L 98.801 113.964 L 93.691 116.443 L 93.241 115.46 L 99.666 112.125 L 100.334 112.641 L 100.334 112.641 Z" fill="#004EA2" fill-rule="evenodd" clip-rule="evenodd"/><g><path d=" M 106.759 45.746 C 105.815 45.112 106.559 45.031 106.749 44.082 C 106.912 43.267 106.52 42.244 106.766 41.688 C 107.431 40.189 109.346 41.063 110.334 42.02 C 110.51 42.19 110.631 42.609 110.723 43.01 C 110.951 44.008 111.137 45.398 109.952 45.923 C 108.93 46.377 107.58 46.298 106.759 45.746 L 106.759 45.746 Z" fill="#004EA2" fill-rule="evenodd" clip-rule="evenodd"/><path d=" M 95.636 39.468 C 95.608 39.441 95.579 39.413 95.551 39.386 C 95.605 39.274 95.658 39.161 95.707 39.066 C 96.078 39.072 99.622 38.357 99.647 38.279 C 100.727 37.956 101.75 37.522 102.403 36.565 C 100.124 36.418 97.63 37.126 95.481 36.448 C 94.608 35.822 94.156 35.033 93.595 34.469 C 93.612 34.419 93.621 34.385 93.632 34.352 C 92.818 33.191 93.086 32.223 94.462 32.306 C 96.376 33.612 100.191 33.395 102.469 33.431 C 102.991 33.411 104.451 33.466 104.959 33.202 C 106.531 30.616 107.337 27.714 108.559 25.128 C 110.002 23.48 110.781 25.377 111.479 26.695 C 111.568 26.863 111.699 27.171 111.794 27.626 C 111.828 27.637 112.091 29.085 111.012 29.52 C 109.966 30.612 109.136 31.956 108.599 33.484 C 110.124 33.854 111.501 32.942 113.182 33.583 C 113.275 34.517 112.962 35.156 111.965 35.507 C 110.514 35.603 108.984 35.599 107.354 35.676 C 106.472 36.947 105.231 38.439 103.792 39.184 C 103.582 39.293 102.604 39.671 102.392 39.703 C 101.289 39.866 100.232 40.179 99.141 40.06 C 96.132 39.732 96.149 39.593 95.636 39.468 L 95.636 39.468 Z" fill="#004EA2" fill-rule="evenodd" clip-rule="evenodd"/></g><g><path d=" M 60.162 44.365 C 58.921 44.142 57.567 43.069 56.752 42.392 C 56.775 42.069 56.799 41.746 56.845 41.435 C 58.942 38.799 61.051 36.308 62.804 33.359 C 63.232 32.07 63.866 30.675 64.35 29.385 C 64.378 29.358 64.445 29.224 64.434 29.191 C 64.966 28.497 65.211 28.287 65.999 28.991 C 66.23 29.693 65.082 30.776 64.92 31.569 C 64.638 32.959 63.894 36.46 63.376 37.792 C 63.045 38.642 61.63 43.363 60.77 44.128 C 60.552 44.199 60.356 44.282 60.162 44.365 L 60.162 44.365 Z" fill="#004EA2" fill-rule="evenodd" clip-rule="evenodd"/><path d=" M 73.17 31.189 C 71.544 31.54 70.818 30.629 69.696 29.923 C 69.558 29.505 69.749 29.183 69.705 28.882 C 70.084 28.684 71.194 28.17 71.913 27.934 C 72.783 27.481 74.728 25.228 75.706 25.722 C 76.339 27.646 74.727 30.177 73.17 31.189 L 73.17 31.189 Z" fill="#004EA2" fill-rule="evenodd" clip-rule="evenodd"/><path d=" M 60.006 31.334 C 59.25 30.952 58.481 28.501 58.227 27.731 C 58.322 26.217 59.704 25.799 61.104 26.395 C 62.353 27.374 63.114 27.716 62.517 29.395 C 61.667 30.639 61.193 30.832 60.006 31.334 L 60.006 31.334 Z" fill="#004EA2" fill-rule="evenodd" clip-rule="evenodd"/><path d=" M 71.611 27.015 C 71.246 26.301 71.866 24.411 71.466 24.098 C 71.092 24.258 70.73 24.507 70.328 24.639 C 69.238 24.423 67.867 23.522 68.015 22.509 C 68.52 21.509 68.296 21.786 69.4 21.424 C 70.338 20.67 71.281 19.934 72.242 19.192 C 73.959 18.385 75.047 19.158 75.619 20.897 C 75.598 22.126 75.07 23.227 74.559 24.322 C 73.738 25.093 73.022 25.902 72.301 26.695 C 72.057 26.794 71.834 26.904 71.611 27.015 L 71.611 27.015 Z" fill="#004EA2" fill-rule="evenodd" clip-rule="evenodd"/><path d=" M 60.399 24.478 C 59.932 24.243 60.045 24.021 60.157 23.631 C 59.915 22.896 59.31 22.409 59.079 21.706 C 58.978 20.331 58.602 19.918 59.524 19.003 C 60.464 19.157 63.801 19.894 63.532 21.724 C 62.993 22.957 61.531 24.031 60.399 24.478 L 60.399 24.478 Z" fill="#004EA2" fill-rule="evenodd" clip-rule="evenodd"/></g><g><path d=" M 37.702 74.021 C 36.278 75.088 33.442 74.409 33 72.485 C 32.688 71.126 30.963 67.298 30.226 65.232 C 29.855 64.588 29.424 64.092 29.663 63.361 C 30.141 63.22 30.705 63.729 31.132 64.122 C 31.347 64.06 31.68 63.526 31.654 63.164 C 31.547 61.657 31.491 60.008 31.221 58.518 C 30.83 58.205 30.44 57.891 30.073 57.571 C 29.818 58.335 28.956 60.832 28.057 59.54 C 28.251 58.522 28.327 56.84 27.724 55.85 C 26.964 55.075 25.895 54.572 25.539 53.716 C 25.638 52.507 27.477 52.147 28.581 52.588 C 29.462 52.627 29.378 50.978 30.48 53.664 C 30.519 54.106 30.959 54.366 31.455 54.597 C 31.529 54.497 31.604 54.397 31.679 54.297 C 31.61 53.137 31.537 51.874 31.589 50.64 C 30.461 49.583 29.515 48.706 28.821 47.406 C 28.772 46.136 30.186 45.344 31.423 44.916 C 31.802 44.221 31.784 43.629 31.721 42.753 C 31.794 42.472 31.794 42.472 32.078 42.025 C 32.511 42.04 32.876 42.179 33.37 42.449 C 34.412 43.699 32.481 47.719 34.458 47.954 C 34.829 47.274 34.254 46.6 33.927 46.06 C 34.001 45.079 35.465 43.791 36.511 43.379 C 38.086 43.176 38.023 44.064 38.084 45.42 C 38.165 45.605 38.244 45.788 38.333 45.957 C 40.387 47.338 40.387 47.338 43.238 49.094 C 44.124 49.857 44.22 51.121 44.31 51.503 C 44.367 51.745 44.78 53.544 43.853 53.7 C 41.518 52.246 39.19 50.596 36.922 49.278 C 36.897 49.324 36.887 49.379 36.885 49.418 C 37.909 50.298 39.325 52.774 39.416 54.188 C 38.91 55.115 37.919 55.537 36.997 55.315 C 36.824 55.08 36.879 54.87 36.834 54.585 C 36.119 53.433 34.124 52.385 33.107 51.75 C 32.756 52.541 33.628 54.801 33.902 55.732 C 33.961 56.286 34.02 56.838 34.087 57.377 C 34.791 58.183 35.513 58.917 36.295 59.725 C 36.586 60.184 36.892 60.652 37.198 61.12 C 37.173 61.167 37.156 61.197 37.139 61.228 C 37.5 61.926 38.309 63.971 36.952 64.034 C 36.813 63.958 36.689 63.89 36.574 63.807 C 36.108 62.75 35.242 61.618 34.326 61.017 C 34.059 62.095 34.48 63.238 33.994 64.124 C 33.697 64.667 33.113 64.939 32.698 65.112 C 32.258 65.296 31.979 65.391 31.95 65.555 C 32.35 66.034 32.808 66.487 33.19 66.993 C 34.71 69.006 36.001 70.992 37.736 72.921 C 37.864 73.467 37.843 73.616 37.702 74.021 L 37.702 74.021 Z" fill="#004EA2" fill-rule="evenodd" clip-rule="evenodd"/><path d=" M 27.727 65.292 C 27.151 65.318 26.837 64.646 26.383 64.338 C 24.79 63.95 23.595 63.679 23.011 62.139 C 23.072 61.991 23.147 61.852 23.223 61.713 C 24.031 61.371 25.552 61.118 26.579 61.037 C 28.551 61.391 27.982 63.867 27.727 65.292 L 27.727 65.292 Z" fill="#004EA2" fill-rule="evenodd" clip-rule="evenodd"/><path d=" M 23.428 60.822 C 23.103 61.086 23.034 61.028 22.877 61.022 C 22.654 60.66 22.561 60.389 22.196 60.25 C 20.454 60.282 18.6 59.051 18.853 57.264 C 19.158 56.889 19.504 57.098 20.176 57.264 C 21.63 56.914 23.781 55.911 23.968 58.262 C 23.842 59.124 23.615 60.002 23.428 60.822 L 23.428 60.822 Z" fill="#004EA2" fill-rule="evenodd" clip-rule="evenodd"/></g><g><path d=" M 122.887 56.453 C 122.141 55.058 124.09 53.487 124.976 52.951 C 126.255 53.223 126.261 55.282 125.407 56.264 C 124.204 57.085 124.065 57.244 122.887 56.453 L 122.887 56.453 Z" fill="#004EA2" fill-rule="evenodd" clip-rule="evenodd"/><path d=" M 120.665 70.357 C 120.647 70.296 120.644 70.247 120.63 70.21 C 119.168 68.94 117.984 67.514 117.182 65.86 C 117.233 65.694 117.233 65.694 117.382 65.521 C 118.526 65.815 119.441 66.937 120.747 66.72 C 121.423 66.211 121.991 65.773 122.438 65.205 C 120.99 63.946 119.31 64.188 117.84 63.517 C 116.858 62.663 116.036 60.2 116.49 59.195 C 117.667 58.002 117.385 58.783 118.739 59.961 C 120.521 61.184 122.898 61.804 125 62.606 C 125.542 62.68 125.542 62.68 125.786 62.775 C 127.087 62.111 127.489 62.158 128.719 62.969 C 129.319 63.164 129.319 63.164 131.197 63.608 C 131.341 63.523 131.484 63.438 131.641 63.365 C 129.649 61.819 126.782 61.845 124.417 61.399 C 123.521 60.9 123.102 60.255 122.828 59.551 C 122.473 59.288 120.389 57.85 121.945 57.99 C 122.678 58.301 123.453 58.321 124.26 58.627 C 126.485 59.046 128.795 59.795 131.058 60.386 C 131.266 60.147 131.301 59.945 131.32 59.843 C 131.624 59.547 131.829 59.446 132.142 59.299 C 131.781 59.125 131.724 59.028 131.473 59.184 C 130.243 58.721 129.112 59.137 129.204 57.608 C 128.27 58.172 127.222 58.171 126.425 57.478 C 126.046 56.332 127.29 55.035 127.738 54.304 C 127.754 54.179 128.136 53.577 128.493 52.792 C 128.844 51.744 128.982 50.324 130.039 50.101 C 130.914 50.302 131.258 50.39 130.991 51.582 C 131.09 52.273 131.185 53.593 131.06 54.186 C 130.859 55.14 130.511 56.505 129.629 57.278 C 130.264 57.433 131.294 57.536 131.5 56.736 C 131.192 55.721 132.174 55.478 132.863 55.705 C 133.174 56.045 133.174 56.045 133.636 56.425 C 133.786 56.252 133.773 56.24 133.785 56.065 C 133.422 55.33 133.657 55.3 134.247 54.998 C 133.837 54.128 134.26 53.213 134.979 52.976 C 137.308 54.348 137.308 54.348 138.459 54.928 C 139.758 54.776 142.345 53.409 143.109 54.891 C 143.05 55.656 142.604 56.598 141.85 57.224 C 141.412 57.379 140.966 57.436 140.586 57.712 C 140.705 57.816 140.814 57.933 140.921 58.05 C 142.083 58.431 142.9 58.323 142.214 59.944 C 142.568 61.091 142.942 61.253 141.576 62.072 C 139.944 62.635 138.189 63.232 136.49 63.738 C 136.43 63.779 136.371 63.821 136.325 63.874 C 136.436 64.041 136.548 64.208 136.648 64.388 C 136.239 64.966 135.646 65.594 135.039 66.185 C 133.883 66.415 133.293 65.833 132.45 65.194 C 131.032 64.731 129.791 64.281 128.369 63.931 C 128.194 64.106 127.992 64.257 127.852 64.578 C 128.319 65.008 128.788 65.461 129.256 65.915 C 129.439 66.751 128.478 67.642 127.621 67.876 C 127.028 67.431 126.649 67.195 126.038 67.014 C 125.741 67.221 125.443 67.429 125.135 67.651 C 124.203 68.676 122.359 71.574 120.665 70.357 L 120.665 70.357 Z M 135.62 61.016 C 135.603 60.954 135.588 60.918 135.573 60.882 C 136.384 60.164 136.626 59.885 135.787 59.295 C 135.554 59.349 135.112 59.455 135.103 59.168 C 135.093 58.859 136.581 58.516 136.808 58.388 C 137.233 58.757 137.856 59.462 137.907 60.183 C 137.318 60.859 136.542 61.001 135.62 61.016 L 135.62 61.016 Z" fill="#004EA2" fill-rule="evenodd" clip-rule="evenodd"/></g></g></g></svg>