<svg version="1.1" width="298.667" height="374.667" viewBox="0 0 224 281" xmlns="http://www.w3.org/2000/svg" xmlns:xlink="http://www.w3.org/1999/xlink" overflow="hidden"><g id="surface1"><path d=" M 112.656 10.2695 C 113.613 10.2695 114.453 10.2695 115.289 10.2695 C 116.129 10.2695 117.086 10.2695 117.922 10.3906 C 118.758 10.3906 119.715 10.5078 120.555 10.5078 C 121.391 10.6289 122.348 10.6289 123.188 10.7461 C 170.082 15.5234 207.648 52.5469 213.508 99.957 C 213.629 100.793 213.75 101.629 213.75 102.582 C 213.867 103.418 213.867 104.254 213.988 105.211 C 214.105 106.047 214.105 107.004 214.105 107.84 C 214.105 108.676 214.227 109.629 214.227 110.465 C 214.707 129.574 214.227 148.918 214.227 168.027 C 214.227 222.125 172.953 266.43 120.434 270.492 C 119.598 270.609 118.641 270.609 117.801 270.609 C 116.965 270.609 116.008 270.73 115.172 270.73 C 114.332 270.73 113.375 270.73 112.539 270.73 C 111.699 270.73 110.742 270.73 109.906 270.73 C 109.07 270.73 108.113 270.73 107.273 270.609 C 106.438 270.609 105.48 270.492 104.641 270.492 C 103.805 270.371 102.848 270.371 102.012 270.254 C 101.172 270.133 100.336 270.012 99.3789 270.012 C 98.543 269.895 97.7031 269.773 96.7461 269.656 C 46.3828 261.891 10.7305 218.543 10.7305 168.145 C 10.7305 149.039 10.25 129.691 10.7305 110.586 C 10.7305 109.75 10.7305 108.793 10.8516 107.957 C 10.8516 107.121 10.9688 106.168 10.9688 105.332 C 11.0898 104.496 11.0898 103.66 11.207 102.703 C 11.3281 101.867 11.4492 101.031 11.4492 100.074 C 17.1914 53.8594 53.082 17.0781 99.1406 11.2266 C 99.9766 11.1055 100.813 10.9883 101.77 10.9883 C 102.609 10.8672 103.566 10.8672 104.402 10.7461 C 105.242 10.6289 106.199 10.6289 107.035 10.6289 C 107.871 10.6289 108.828 10.5078 109.668 10.5078 C 110.863 10.2695 111.82 10.2695 112.656 10.2695 M 84.6641 172.086 C 85.9805 172.086 87.1758 173.16 87.1758 174.477 C 87.1758 175.789 86.0977 176.863 84.6641 176.863 C 83.3477 176.863 82.1523 175.789 82.1523 174.477 C 82.1523 173.16 83.2266 172.086 84.6641 172.086 Z M 176.543 93.2695 L 176.422 121.809 L 176.422 159.07 C 176.422 198.836 149.625 228.813 112.656 228.813 C 75.6914 228.813 48.8945 198.836 48.8945 159.07 L 48.8945 92.6719 L 69.9492 103.301 L 69.9492 155.012 C 69.9492 187.613 86.3398 209.348 112.539 209.348 C 140.414 209.348 155.129 186.18 155.129 155.012 L 155.129 105.449 Z M 77.6055 61.5039 C 77.6055 96.0156 77.6055 127.902 77.6055 162.293 C 97.5859 158.711 97.9414 170.059 98.4219 150.234 C 99.0195 126.348 91.0039 101.031 110.863 81.6836 C 107.871 74.6406 95.1914 67.4727 77.6055 61.5039 Z M 75.0938 175.43 C 84.1836 179.012 82.0313 188.449 93.875 195.852 C 107.754 204.094 123.188 202.539 137.063 190.477 C 146.156 181.641 147.23 170.895 147.949 159.07 C 147.949 139.961 147.949 120.855 147.949 101.629 C 150.344 100.195 152.855 98.8828 155.246 97.4492 C 155.246 86.3438 155.246 75.2344 155.246 64.1289 C 129.527 66.1602 106.559 86.1016 104.164 110.941 C 102.848 130.051 106.316 146.531 104.285 166.473 C 102.609 173.281 94.7148 169.938 90.6445 168.98 C 82.8711 167.551 76.6484 170.176 75.0938 175.43 Z M 112.656 43.9492 C 154.531 43.9492 188.387 75.3555 188.387 119.184 L 188.387 161.816 C 188.387 205.645 154.648 242.07 112.656 242.07 C 70.7852 242.07 36.9297 205.645 36.9297 161.816 L 36.9297 119.184 C 36.9297 75.3555 70.7852 43.9492 112.656 43.9492 Z M 182.164 215.797 C 181.566 215.438 180.969 215.199 180.25 215.078 C 179.652 215.078 178.934 215.316 178.336 215.797 C 178.098 215.914 177.977 216.152 177.738 216.395 C 177.5 216.633 177.262 216.871 177.02 217.348 L 175.703 219.02 L 181.09 222.602 L 182.645 220.691 C 183.004 220.215 183.359 219.738 183.48 219.258 C 183.602 218.781 183.719 218.305 183.602 217.945 C 183.602 217.586 183.359 217.109 183.121 216.871 C 182.883 216.395 182.523 216.035 182.164 215.797 Z M 195.684 220.332 C 195.805 220.332 195.805 220.453 195.805 220.453 C 195.805 220.453 195.805 220.574 195.805 220.691 C 195.805 220.813 195.684 220.93 195.684 221.051 C 195.563 221.168 195.445 221.41 195.324 221.648 C 195.203 221.887 195.086 222.004 194.965 222.125 C 194.848 222.246 194.727 222.363 194.605 222.363 C 194.488 222.363 194.367 222.484 194.367 222.484 C 194.246 222.484 194.129 222.484 194.008 222.484 L 189.223 221.289 C 188.625 221.168 188.148 221.051 187.668 221.051 C 187.191 220.93 186.711 220.93 186.234 221.051 C 185.754 221.168 185.395 221.289 185.035 221.527 C 184.676 221.766 184.32 222.125 183.961 222.484 L 182.883 223.797 L 189.703 228.336 C 189.82 228.336 189.82 228.453 189.82 228.453 C 189.82 228.574 189.82 228.574 189.82 228.691 C 189.82 228.813 189.703 228.934 189.703 229.051 C 189.582 229.172 189.461 229.41 189.344 229.527 C 189.223 229.77 189.105 229.887 188.984 230.008 C 188.863 230.125 188.746 230.246 188.625 230.246 C 188.504 230.246 188.504 230.363 188.387 230.363 C 188.266 230.363 188.266 230.363 188.148 230.246 L 173.434 220.453 C 173.074 220.215 172.953 219.977 172.953 219.738 C 172.953 219.496 173.074 219.258 173.191 219.141 L 175.703 216.035 C 175.945 215.676 176.305 215.316 176.422 215.078 C 176.66 214.84 176.781 214.602 177.02 214.48 C 177.617 214.004 178.098 213.645 178.695 213.289 C 179.293 213.051 179.891 212.809 180.488 212.809 C 181.09 212.809 181.688 212.809 182.285 212.93 C 182.883 213.051 183.359 213.406 183.961 213.766 C 184.438 214.125 184.918 214.48 185.277 214.961 C 185.633 215.316 185.875 215.797 185.992 216.273 C 186.113 216.75 186.113 217.23 186.113 217.707 C 186.113 218.184 185.992 218.781 185.754 219.258 C 186.113 219.141 186.352 219.02 186.711 218.902 C 187.07 218.781 187.43 218.781 187.789 218.781 C 188.148 218.781 188.625 218.781 188.984 218.902 C 189.461 219.02 189.941 219.02 190.418 219.141 L 194.965 220.215 C 195.324 220.332 195.563 220.332 195.805 220.453 C 195.445 220.332 195.563 220.332 195.684 220.332 Z M 183.602 234.066 C 183.719 234.188 183.84 234.305 183.961 234.426 C 184.078 234.543 184.078 234.664 184.078 234.664 C 184.078 234.785 184.078 234.785 184.078 234.902 C 184.078 235.023 184.078 235.023 183.961 235.141 L 177.379 241.352 C 177.262 241.473 177.02 241.59 176.781 241.59 C 176.543 241.59 176.305 241.473 175.945 241.234 L 163.262 230.008 C 163.023 229.77 162.902 229.527 162.902 229.289 C 162.902 229.051 163.023 228.813 163.145 228.691 L 169.602 222.484 C 169.602 222.484 169.723 222.363 169.844 222.363 C 169.961 222.363 169.961 222.363 170.082 222.363 C 170.203 222.363 170.32 222.484 170.441 222.484 C 170.559 222.602 170.68 222.602 170.801 222.84 C 170.918 222.961 171.039 223.082 171.16 223.199 C 171.277 223.32 171.277 223.438 171.277 223.438 C 171.277 223.559 171.277 223.559 171.277 223.676 C 171.277 223.797 171.277 223.797 171.16 223.918 L 165.773 229.051 L 170.203 232.992 L 174.746 228.574 C 174.746 228.574 174.867 228.453 174.988 228.453 C 175.105 228.453 175.105 228.453 175.227 228.453 C 175.348 228.453 175.465 228.574 175.586 228.574 C 175.703 228.691 175.824 228.691 175.945 228.813 C 176.063 228.934 176.184 229.051 176.305 229.172 C 176.422 229.289 176.422 229.41 176.422 229.41 C 176.422 229.527 176.422 229.527 176.422 229.648 C 176.422 229.77 176.422 229.77 176.305 229.887 L 171.758 234.305 L 176.781 238.844 L 182.164 233.707 C 182.164 233.707 182.285 233.59 182.402 233.59 C 182.523 233.59 182.523 233.59 182.645 233.59 C 182.762 233.59 182.883 233.707 183.004 233.707 C 183.359 233.828 183.48 233.949 183.602 234.066 Z M 167.93 248.398 C 167.93 248.516 167.93 248.637 167.93 248.637 C 167.93 248.758 167.809 248.875 167.809 248.875 C 167.688 248.996 167.57 249.113 167.449 249.234 C 167.332 249.352 167.09 249.473 166.852 249.594 C 166.613 249.711 166.492 249.832 166.375 249.949 C 166.254 250.07 166.133 250.07 166.016 250.188 C 165.895 250.188 165.773 250.309 165.773 250.309 C 165.656 250.309 165.656 250.309 165.535 250.309 C 165.418 250.309 165.418 250.309 165.297 250.309 C 165.176 250.309 165.176 250.309 165.059 250.188 L 149.266 239.801 C 149.027 239.68 148.906 239.563 148.906 239.441 C 148.789 239.32 148.789 239.203 148.789 239.082 C 148.789 238.965 148.906 238.844 149.027 238.723 C 149.145 238.605 149.387 238.484 149.625 238.246 C 149.863 238.129 150.102 238.008 150.223 237.887 C 150.344 237.77 150.461 237.77 150.582 237.77 C 150.703 237.77 150.82 237.77 150.82 237.77 C 150.941 237.77 150.941 237.887 151.059 237.887 L 165.176 247.441 L 160.152 232.035 C 160.152 231.918 160.031 231.797 160.031 231.797 C 160.031 231.68 160.031 231.68 160.152 231.559 C 160.152 231.441 160.273 231.32 160.512 231.32 C 160.633 231.199 160.871 231.082 161.109 230.961 C 161.348 230.844 161.59 230.723 161.707 230.605 C 161.828 230.484 161.945 230.484 162.066 230.484 C 162.188 230.484 162.188 230.605 162.305 230.723 C 162.426 230.844 162.426 230.961 162.547 231.199 Z M 155.246 255.922 C 155.246 256.039 155.246 256.039 155.246 256.16 C 155.246 256.281 155.246 256.281 155.129 256.398 C 155.008 256.52 154.887 256.52 154.77 256.637 C 154.648 256.758 154.41 256.875 154.172 256.875 C 153.93 256.996 153.813 256.996 153.574 257.117 C 153.453 257.117 153.215 257.234 153.215 257.234 C 153.094 257.234 152.973 257.234 152.973 257.234 C 152.855 257.234 152.855 257.117 152.855 257.117 L 144.602 241.473 C 144.602 241.352 144.602 241.352 144.602 241.234 C 144.602 241.113 144.719 241.113 144.719 240.992 C 144.84 240.875 144.961 240.875 145.078 240.754 C 145.199 240.637 145.438 240.516 145.559 240.516 C 145.797 240.398 146.035 240.398 146.156 240.277 C 146.273 240.277 146.395 240.156 146.516 240.156 C 146.633 240.156 146.754 240.156 146.754 240.156 C 146.875 240.156 146.875 240.277 146.875 240.277 Z M 146.395 259.266 C 146.395 259.383 146.516 259.625 146.395 259.742 C 146.395 259.863 146.273 259.98 146.273 260.102 C 146.156 260.219 146.156 260.34 146.035 260.34 C 145.918 260.461 145.797 260.461 145.676 260.461 L 144.84 260.699 C 144.602 260.816 144.359 260.816 144.121 260.816 C 143.883 260.816 143.762 260.816 143.523 260.699 C 143.285 260.578 143.043 260.461 142.805 260.34 C 142.566 260.219 142.328 259.98 141.969 259.625 L 132.758 251.504 C 132.277 251.023 131.801 250.668 131.32 250.188 C 130.844 249.711 130.363 249.234 129.887 248.758 C 130.125 249.352 130.363 250.07 130.602 250.668 C 130.844 251.383 131.082 251.98 131.32 252.695 L 134.789 263.086 C 134.789 263.086 134.789 263.207 134.789 263.324 C 134.789 263.445 134.672 263.445 134.672 263.563 C 134.551 263.563 134.43 263.684 134.313 263.805 C 134.191 263.922 133.953 263.922 133.715 264.043 C 133.473 264.16 133.234 264.16 133.117 264.16 C 132.996 264.16 132.875 264.16 132.758 264.16 C 132.637 264.16 132.516 264.16 132.516 264.043 C 132.516 264.043 132.398 263.922 132.398 263.922 L 127.133 247.922 C 127.016 247.563 127.016 247.324 127.254 247.086 C 127.371 246.844 127.613 246.727 127.852 246.605 L 129.047 246.25 C 129.285 246.129 129.527 246.129 129.766 246.129 C 130.004 246.129 130.125 246.129 130.363 246.25 C 130.602 246.25 130.723 246.367 130.961 246.605 C 131.199 246.727 131.441 246.965 131.68 247.203 L 138.738 253.531 C 139.215 253.891 139.574 254.25 140.055 254.609 C 140.414 254.965 140.891 255.324 141.25 255.684 C 141.609 256.039 141.969 256.398 142.445 256.758 C 142.805 257.117 143.164 257.473 143.523 257.832 C 143.285 257.117 143.043 256.398 142.805 255.684 C 142.566 254.965 142.328 254.129 142.086 253.531 L 138.977 244.098 C 138.977 243.98 138.977 243.98 138.977 243.859 C 138.977 243.742 139.098 243.742 139.098 243.621 C 139.215 243.5 139.336 243.5 139.457 243.383 C 139.574 243.262 139.816 243.262 140.055 243.145 C 140.293 243.023 140.414 243.023 140.652 243.023 C 140.773 243.023 140.891 243.023 141.012 243.023 C 141.129 243.023 141.25 243.023 141.25 243.145 C 141.25 243.145 141.371 243.262 141.371 243.262 Z M 125.102 258.547 C 125.219 259.625 125.102 260.578 124.742 261.535 C 124.5 262.371 124.023 263.207 123.426 263.805 C 122.828 264.398 122.109 264.996 121.152 265.355 C 120.195 265.715 119.238 265.953 118.043 266.07 C 116.965 266.191 116.008 266.07 115.051 265.832 C 114.094 265.594 113.375 265.234 112.656 264.758 C 111.941 264.281 111.461 263.563 110.984 262.727 C 110.625 261.891 110.387 260.938 110.266 259.863 L 109.43 248.637 C 109.43 248.516 109.43 248.516 109.43 248.398 C 109.43 248.398 109.547 248.277 109.668 248.277 C 109.785 248.277 109.906 248.16 110.027 248.16 C 110.145 248.16 110.387 248.039 110.625 248.039 C 110.863 248.039 111.102 248.039 111.223 248.039 C 111.344 248.039 111.582 248.039 111.582 248.039 C 111.699 248.039 111.699 248.16 111.82 248.16 C 111.82 248.16 111.941 248.277 111.941 248.398 L 112.777 259.266 C 112.898 260.102 113.016 260.816 113.258 261.414 C 113.496 262.012 113.855 262.488 114.332 262.969 C 114.813 263.324 115.289 263.684 115.887 263.805 C 116.484 263.922 117.203 264.043 117.922 264.043 C 118.641 264.043 119.359 263.805 119.957 263.563 C 120.555 263.324 121.031 262.969 121.391 262.488 C 121.75 262.012 121.988 261.535 122.23 260.938 C 122.348 260.34 122.469 259.625 122.348 258.789 L 121.512 247.801 C 121.512 247.68 121.512 247.68 121.512 247.563 C 121.512 247.441 121.629 247.441 121.75 247.441 C 121.871 247.441 121.988 247.324 122.109 247.324 C 122.23 247.324 122.469 247.203 122.707 247.203 C 122.945 247.203 123.188 247.203 123.305 247.203 C 123.426 247.203 123.664 247.203 123.664 247.203 C 123.785 247.203 123.785 247.324 123.902 247.324 C 123.902 247.324 124.023 247.441 124.023 247.563 Z M 98.0625 264.641 C 98.0625 264.758 98.0625 264.758 97.9414 264.879 C 97.9414 264.879 97.8242 264.996 97.7031 264.996 C 97.5859 264.996 97.4648 264.996 97.3438 264.996 C 97.2266 264.996 96.9844 264.996 96.7461 264.879 C 96.5078 264.879 96.2695 264.758 96.1484 264.758 C 96.0273 264.758 95.9102 264.641 95.7891 264.641 C 95.6719 264.641 95.6719 264.52 95.5508 264.52 C 95.5508 264.398 95.5508 264.398 95.5508 264.281 L 99.1406 247.203 C 99.1406 247.086 99.1406 247.086 99.2578 246.965 C 99.2578 246.965 99.3789 246.844 99.5 246.844 C 99.6172 246.844 99.7383 246.844 99.9766 246.844 C 100.098 246.844 100.336 246.844 100.574 246.965 C 100.813 246.965 101.055 247.086 101.172 247.086 C 101.293 247.086 101.414 247.203 101.531 247.203 C 101.652 247.203 101.652 247.324 101.77 247.324 C 101.77 247.441 101.77 247.441 101.77 247.563 Z M 88.1328 246.367 L 81.5547 253.773 L 88.0117 255.922 Z M 90.5273 262.969 C 90.5273 263.207 90.5273 263.324 90.4063 263.445 C 90.4063 263.563 90.2852 263.684 90.168 263.684 C 90.0469 263.684 89.9258 263.684 89.6875 263.684 C 89.4492 263.684 89.2109 263.563 88.9688 263.445 C 88.7305 263.324 88.4922 263.207 88.2539 263.207 C 88.1328 263.086 88.0117 263.086 87.8945 262.969 C 87.7734 262.848 87.7734 262.848 87.7734 262.727 C 87.7734 262.609 87.7734 262.609 87.7734 262.488 L 87.7734 257.832 L 80.1172 255.203 L 77.0078 258.789 C 76.8867 258.906 76.8867 258.906 76.7695 258.906 C 76.6484 258.906 76.6484 259.027 76.5273 259.027 C 76.4102 259.027 76.2891 259.027 76.0508 259.027 C 75.9297 259.027 75.6914 258.906 75.332 258.789 C 75.0938 258.668 74.8555 258.547 74.6133 258.547 C 74.4961 258.43 74.375 258.43 74.2539 258.309 C 74.2539 258.191 74.2539 258.07 74.2539 257.953 C 74.2539 257.832 74.375 257.711 74.6133 257.473 L 87.0547 243.742 C 87.1758 243.621 87.1758 243.621 87.2969 243.5 C 87.4141 243.5 87.5352 243.5 87.6563 243.5 C 87.7734 243.5 87.8945 243.5 88.1328 243.621 C 88.3711 243.621 88.6133 243.742 88.8516 243.859 C 89.2109 243.98 89.4492 244.098 89.5703 244.098 C 89.8086 244.219 89.9258 244.219 90.0469 244.336 C 90.168 244.457 90.2852 244.457 90.2852 244.578 C 90.2852 244.695 90.2852 244.816 90.2852 244.816 Z M 70.1875 256.16 C 70.1875 256.281 70.0703 256.281 70.0703 256.281 C 69.9492 256.281 69.9492 256.281 69.8281 256.281 C 69.7109 256.281 69.5898 256.16 69.4688 256.16 C 69.3516 256.039 69.1133 256.039 68.8711 255.922 C 68.6328 255.801 68.5117 255.684 68.3945 255.563 C 68.2734 255.445 68.1563 255.324 68.1563 255.324 C 68.0352 255.203 68.0352 255.203 68.0352 255.086 C 68.0352 254.965 68.0352 254.965 68.0352 254.848 L 72.6992 248.039 L 65.043 243.621 L 60.3789 250.43 C 60.3789 250.547 60.2578 250.547 60.2578 250.547 C 60.1406 250.547 60.1406 250.547 60.0195 250.547 C 59.8984 250.547 59.7813 250.43 59.6602 250.43 C 59.5391 250.309 59.3008 250.309 59.0625 250.188 C 58.8242 250.07 58.7031 249.949 58.582 249.832 C 58.4648 249.711 58.3438 249.594 58.2266 249.594 C 58.1055 249.473 58.1055 249.473 58.1055 249.352 C 58.1055 249.234 58.1055 249.234 58.1055 249.113 L 68.1563 234.426 C 68.1563 234.305 68.2734 234.305 68.2734 234.305 C 68.3945 234.305 68.3945 234.305 68.5117 234.305 C 68.6328 234.305 68.7539 234.426 68.8711 234.426 C 68.9922 234.543 69.2305 234.543 69.4688 234.664 C 69.7109 234.785 69.8281 234.902 69.9492 235.023 C 70.0703 235.141 70.1875 235.262 70.1875 235.262 C 70.3086 235.379 70.3086 235.379 70.3086 235.5 C 70.3086 235.621 70.3086 235.621 70.3086 235.738 L 66.1211 241.828 L 73.7773 246.25 L 77.9648 240.156 C 77.9648 240.039 78.082 240.039 78.082 240.039 C 78.2031 240.039 78.2031 240.039 78.3242 240.039 C 78.4414 240.039 78.5625 240.156 78.6836 240.156 C 78.8008 240.277 79.0391 240.277 79.2813 240.398 C 79.5195 240.516 79.6406 240.637 79.7578 240.754 C 79.8789 240.875 80 240.992 80 240.992 C 80.1172 241.113 80.1172 241.113 80.1172 241.234 C 80.1172 241.352 80.1172 241.352 80 241.473 Z M 64.5664 234.426 C 64.4453 234.543 64.3242 234.664 64.207 234.785 C 64.0859 234.902 63.9688 234.902 63.8477 235.023 C 63.7266 235.023 63.7266 235.023 63.6094 235.023 C 63.4883 235.023 63.4883 235.023 63.3672 234.902 C 63.25 234.785 63.25 234.664 63.1289 234.305 C 63.0117 233.949 62.8906 233.59 62.7695 233.113 C 62.5313 232.633 62.293 232.156 61.9336 231.559 C 61.5742 230.961 61.0977 230.484 60.3789 229.887 C 59.5391 229.172 58.7031 228.691 57.8672 228.453 C 57.0273 228.215 56.0703 228.098 55.1133 228.098 C 54.1563 228.215 53.3203 228.453 52.3633 228.813 C 51.4063 229.289 50.5664 229.887 49.8516 230.605 C 49.0117 231.441 48.2969 232.277 47.9375 233.113 C 47.457 233.949 47.3398 234.785 47.2188 235.621 C 47.2188 236.457 47.3398 237.293 47.6953 238.008 C 48.0547 238.723 48.6523 239.441 49.3711 240.156 C 49.8516 240.516 50.3281 240.875 50.8086 241.234 C 51.4063 241.59 51.8828 241.711 52.4805 241.949 L 56.4297 238.129 L 53.1992 235.262 C 53.082 235.141 53.082 235.023 53.082 234.785 C 53.082 234.664 53.3203 234.426 53.5586 234.188 C 53.6797 234.066 53.7969 233.949 53.918 233.828 C 54.0391 233.707 54.1563 233.707 54.2773 233.707 C 54.3984 233.707 54.3984 233.707 54.5156 233.707 C 54.6367 233.707 54.6367 233.707 54.7539 233.828 L 59.3008 237.77 C 59.4219 237.887 59.4219 237.887 59.5391 238.008 C 59.5391 238.129 59.6602 238.246 59.6602 238.367 C 59.6602 238.484 59.6602 238.605 59.5391 238.723 C 59.4219 238.844 59.4219 238.965 59.3008 239.082 L 54.0391 244.098 C 53.7969 244.219 53.6797 244.336 53.4414 244.457 C 53.1992 244.578 52.9609 244.578 52.7227 244.457 C 52.3633 244.336 52.0039 244.219 51.5234 244.098 C 51.0469 243.98 50.5664 243.742 50.2109 243.5 C 49.7305 243.262 49.3711 243.023 48.8945 242.664 C 48.5352 242.426 48.0547 242.07 47.6953 241.711 C 46.6211 240.754 45.7813 239.68 45.3047 238.605 C 44.707 237.531 44.4688 236.457 44.4688 235.379 C 44.4688 234.305 44.707 233.23 45.3047 232.156 C 45.7813 231.082 46.6211 230.008 47.6953 229.051 C 48.7734 227.977 49.9688 227.262 51.168 226.664 C 52.3633 226.184 53.5586 225.828 54.875 225.828 C 56.0703 225.828 57.3867 225.945 58.582 226.426 C 59.7813 226.902 60.9766 227.5 61.9336 228.453 C 62.5313 228.934 62.8906 229.41 63.3672 229.887 C 63.7266 230.363 64.0859 230.844 64.3242 231.32 C 64.5664 231.797 64.8047 232.156 64.8047 232.516 C 64.9258 232.871 64.9258 233.113 64.9258 233.352 C 64.9258 233.469 64.9258 233.707 64.8047 233.828 C 64.9258 234.066 64.6836 234.188 64.5664 234.426 Z M 38.2461 230.605 C 38.125 230.723 37.8867 230.723 37.7656 230.844 C 37.6484 230.844 37.5273 230.844 37.2891 230.844 C 37.168 230.844 37.0508 230.723 36.9297 230.723 C 36.8086 230.605 36.6914 230.605 36.6914 230.484 L 36.2109 229.887 C 36.0938 229.648 35.9727 229.527 35.8516 229.289 C 35.8516 229.051 35.7344 228.934 35.8516 228.691 C 35.8516 228.453 35.9727 228.215 36.0938 227.977 C 36.2109 227.738 36.332 227.379 36.5703 227.02 L 42.5547 216.633 C 42.9102 216.035 43.1523 215.559 43.5117 214.961 C 43.8672 214.363 44.2266 213.887 44.5859 213.289 C 43.9883 213.645 43.3906 214.004 42.793 214.48 C 42.1953 214.84 41.4766 215.199 40.8789 215.676 L 30.9492 221.648 C 30.9492 221.648 30.8281 221.648 30.7109 221.648 C 30.5898 221.648 30.5898 221.648 30.4688 221.527 C 30.3516 221.527 30.3516 221.41 30.2305 221.289 C 30.1094 221.168 29.9922 221.051 29.8711 220.813 C 29.7539 220.574 29.6328 220.453 29.6328 220.332 C 29.5117 220.215 29.5117 220.094 29.5117 219.977 C 29.5117 219.855 29.5117 219.855 29.5117 219.738 C 29.5117 219.617 29.6328 219.617 29.6328 219.617 L 44.8242 210.539 C 45.1836 210.301 45.4258 210.301 45.7813 210.422 C 46.0234 210.539 46.2617 210.66 46.3828 210.898 L 47.0977 211.855 C 47.2188 212.094 47.3398 212.332 47.457 212.453 C 47.5781 212.57 47.5781 212.809 47.5781 213.051 C 47.5781 213.168 47.457 213.406 47.457 213.645 C 47.3398 213.887 47.2188 214.125 47.0977 214.363 L 42.4336 222.363 C 42.1953 222.84 41.8359 223.32 41.5977 223.797 C 41.3555 224.273 40.9961 224.754 40.7578 225.109 C 40.5195 225.59 40.2813 225.945 39.9219 226.426 C 39.6797 226.902 39.4414 227.262 39.082 227.738 C 39.8008 227.379 40.3984 226.902 41.1172 226.426 C 41.8359 225.945 42.5547 225.59 43.2695 225.109 L 52.2422 219.738 C 52.3633 219.738 52.3633 219.738 52.4805 219.738 C 52.6016 219.738 52.6016 219.738 52.7227 219.855 C 52.8398 219.855 52.9609 219.977 52.9609 220.094 C 52.9609 220.215 53.1992 220.332 53.3203 220.574 C 53.4414 220.691 53.5586 220.93 53.5586 221.051 C 53.6797 221.168 53.6797 221.289 53.6797 221.41 C 53.6797 221.527 53.6797 221.527 53.6797 221.648 C 53.6797 221.766 53.5586 221.766 53.5586 221.766 Z M 39.3242 202.422 L 28.9141 202.898 L 31.4258 208.75 Z M 27.4805 215.316 C 27.3594 215.438 27.1211 215.559 27 215.559 C 26.8789 215.559 26.7617 215.559 26.6406 215.559 C 26.5234 215.559 26.4023 215.438 26.4023 215.316 C 26.2813 215.199 26.1641 214.961 26.043 214.723 C 25.9219 214.48 25.8047 214.242 25.8047 214.125 C 25.8047 214.004 25.6836 213.887 25.6836 213.766 C 25.6836 213.645 25.6836 213.645 25.6836 213.527 C 25.6836 213.406 25.8047 213.406 25.8047 213.289 L 29.6328 210.184 L 26.5234 203.258 L 21.4961 203.496 C 21.3789 203.496 21.2578 203.496 21.2578 203.496 C 21.1367 203.496 21.1367 203.375 21.0195 203.375 C 20.8984 203.258 20.8984 203.258 20.7813 203.016 C 20.6602 202.898 20.5391 202.66 20.5391 202.422 C 20.4219 202.18 20.3008 201.941 20.3008 201.824 C 20.3008 201.703 20.3008 201.465 20.3008 201.465 C 20.3008 201.344 20.4219 201.344 20.5391 201.227 C 20.6602 201.227 20.8984 201.105 21.1367 201.105 L 40.6406 200.391 C 40.7578 200.391 40.8789 200.391 40.9961 200.391 C 41.1172 200.391 41.1172 200.508 41.2383 200.629 C 41.3555 200.75 41.3555 200.867 41.4766 200.988 C 41.5977 201.105 41.7148 201.344 41.8359 201.586 C 41.9531 201.824 42.0742 202.063 42.0742 202.301 C 42.1953 202.539 42.1953 202.66 42.1953 202.777 C 42.1953 202.898 42.1953 203.016 42.1953 203.137 C 42.1953 203.258 42.0742 203.258 41.9531 203.375 Z M 19.3438 196.926 C 19.2227 196.926 19.2227 196.926 19.1055 196.926 C 18.9844 196.926 18.9844 196.809 18.8672 196.809 C 18.8672 196.688 18.7461 196.57 18.7461 196.449 C 18.7461 196.328 18.625 196.09 18.625 195.852 C 18.625 195.613 18.5078 195.375 18.5078 195.254 C 18.5078 195.137 18.5078 195.016 18.5078 194.898 C 18.5078 194.777 18.5078 194.777 18.625 194.656 C 18.625 194.656 18.7461 194.539 18.8672 194.539 L 27.3594 192.867 L 25.4453 184.867 L 16.9531 186.539 C 16.832 186.539 16.832 186.539 16.7109 186.539 C 16.5938 186.539 16.5938 186.418 16.4727 186.418 C 16.4727 186.297 16.3516 186.18 16.3516 186.059 C 16.2344 185.941 16.2344 185.703 16.2344 185.461 C 16.2344 185.223 16.1133 185.105 16.1133 184.867 C 16.1133 184.746 16.1133 184.625 16.1133 184.508 C 16.1133 184.387 16.1133 184.387 16.2344 184.27 C 16.2344 184.27 16.3516 184.148 16.4727 184.148 L 35.0156 180.566 C 35.1367 180.566 35.1367 180.566 35.2539 180.566 C 35.375 180.566 35.375 180.684 35.4961 180.684 C 35.4961 180.805 35.6133 180.926 35.6133 181.043 C 35.7344 181.164 35.7344 181.402 35.7344 181.641 C 35.7344 181.879 35.8516 182.117 35.8516 182.238 C 35.8516 182.355 35.8516 182.477 35.8516 182.598 C 35.8516 182.715 35.8516 182.715 35.7344 182.836 C 35.7344 182.836 35.6133 182.953 35.4961 182.953 L 27.7188 184.508 L 29.6328 192.508 L 37.4102 190.957 C 37.5273 190.957 37.5273 190.957 37.6484 190.957 C 37.7656 190.957 37.7656 191.074 37.8867 191.074 C 37.8867 191.195 38.0078 191.313 38.0078 191.434 C 38.0078 191.555 38.125 191.793 38.125 192.031 C 38.125 192.27 38.2461 192.391 38.2461 192.629 C 38.2461 192.746 38.2461 192.867 38.2461 192.984 C 38.2461 193.105 38.2461 193.105 38.125 193.227 C 38.125 193.227 38.0078 193.344 37.8867 193.344 Z M 203.219 170.895 L 210.52 171.371 C 210.637 171.371 210.637 171.371 210.758 171.488 C 210.758 171.488 210.879 171.609 210.879 171.73 C 210.879 171.848 210.879 171.969 210.879 172.086 C 210.879 172.207 210.879 172.445 210.879 172.684 C 210.879 172.922 210.879 173.16 210.758 173.281 C 210.758 173.402 210.637 173.52 210.637 173.641 C 210.637 173.758 210.52 173.758 210.52 173.879 C 210.398 173.879 210.398 173.879 210.277 173.879 L 202.98 173.402 L 191.496 177.82 C 191.258 177.938 191.02 177.938 190.898 177.938 C 190.777 177.938 190.66 177.938 190.66 177.82 C 190.539 177.699 190.539 177.582 190.539 177.461 C 190.539 177.223 190.539 176.984 190.539 176.746 C 190.539 176.504 190.539 176.266 190.66 176.027 C 190.66 175.91 190.777 175.668 190.777 175.668 C 190.777 175.551 190.898 175.551 190.898 175.43 C 191.02 175.43 191.02 175.313 191.137 175.313 L 197 173.16 C 197.598 172.922 198.078 172.805 198.793 172.566 C 199.391 172.324 199.992 172.207 200.59 171.969 C 199.992 171.73 199.512 171.488 198.914 171.25 C 198.316 171.012 197.836 170.773 197.238 170.414 L 191.734 167.551 C 191.617 167.551 191.496 167.43 191.496 167.43 C 191.375 167.43 191.375 167.309 191.375 167.191 C 191.375 167.07 191.375 166.953 191.375 166.832 C 191.375 166.715 191.375 166.473 191.375 166.234 C 191.375 165.879 191.496 165.637 191.496 165.398 C 191.496 165.16 191.617 165.043 191.617 165.043 C 191.734 164.922 191.734 164.922 191.977 165.043 C 192.094 165.043 192.332 165.16 192.453 165.281 Z M 191.496 179.254 C 191.734 179.254 191.855 179.371 191.977 179.371 C 192.094 179.371 192.215 179.492 192.332 179.492 C 192.453 179.492 192.453 179.609 192.453 179.73 C 192.453 179.848 192.453 179.848 192.453 179.969 L 191.258 184.984 L 208.004 188.211 C 208.125 188.211 208.125 188.211 208.246 188.328 C 208.246 188.328 208.363 188.449 208.363 188.566 C 208.363 188.688 208.363 188.805 208.363 188.926 C 208.363 189.047 208.363 189.285 208.246 189.523 C 208.246 189.762 208.125 189.883 208.125 190.121 C 208.004 190.238 208.004 190.359 208.004 190.477 C 208.004 190.598 207.887 190.598 207.766 190.598 C 207.648 190.598 207.648 190.598 207.527 190.598 L 190.777 187.375 L 189.582 192.391 C 189.582 192.508 189.582 192.508 189.461 192.629 C 189.461 192.629 189.344 192.746 189.223 192.746 C 189.105 192.746 188.984 192.746 188.863 192.746 C 188.746 192.746 188.504 192.746 188.387 192.629 C 188.148 192.629 188.027 192.508 187.906 192.508 C 187.789 192.508 187.668 192.391 187.547 192.391 C 187.43 192.391 187.43 192.27 187.43 192.148 C 187.43 192.031 187.43 192.031 187.43 191.91 L 190.301 179.609 C 190.301 179.492 190.301 179.492 190.418 179.371 C 190.418 179.371 190.539 179.254 190.66 179.254 C 190.777 179.254 190.898 179.254 191.02 179.254 C 191.137 179.133 191.375 179.133 191.496 179.254 Z M 204.895 199.914 C 205.016 199.914 205.016 200.031 205.016 200.031 C 205.016 200.031 205.133 200.152 205.133 200.27 C 205.133 200.391 205.133 200.508 205.133 200.629 C 205.133 200.75 205.016 200.988 205.016 201.227 C 204.895 201.465 204.895 201.586 204.777 201.703 C 204.656 201.824 204.656 201.941 204.535 202.063 C 204.418 202.18 204.418 202.18 204.297 202.18 C 204.176 202.18 204.176 202.18 204.059 202.18 L 186.234 196.211 C 186.113 196.211 186.113 196.09 186.113 196.09 C 186.113 195.973 186.113 195.973 186.113 195.852 C 186.113 195.734 186.113 195.613 186.113 195.492 C 186.113 195.375 186.234 195.137 186.234 195.016 C 186.352 194.777 186.352 194.656 186.473 194.539 C 186.59 194.418 186.59 194.301 186.711 194.18 C 186.832 194.063 186.832 194.063 186.949 194.063 C 187.07 194.063 187.07 194.063 187.191 194.063 Z M 197.598 205.168 C 198.434 205.523 199.152 206.004 199.633 206.602 C 200.109 207.195 200.469 207.793 200.707 208.512 C 200.949 209.227 200.949 209.945 200.828 210.781 C 200.707 211.617 200.469 212.332 200.109 213.168 C 199.871 213.766 199.512 214.242 199.152 214.602 C 198.793 215.078 198.434 215.438 198.195 215.676 C 197.836 216.035 197.598 216.273 197.238 216.395 C 197 216.633 196.762 216.75 196.52 216.75 C 196.402 216.75 196.16 216.75 196.043 216.75 C 195.805 216.75 195.563 216.633 195.324 216.512 C 195.086 216.395 194.965 216.395 194.848 216.273 C 194.727 216.152 194.605 216.152 194.605 216.035 C 194.488 215.914 194.488 215.914 194.488 215.797 C 194.488 215.676 194.488 215.676 194.488 215.559 C 194.488 215.438 194.727 215.316 194.965 215.199 C 195.203 215.078 195.563 214.84 195.922 214.602 C 196.281 214.363 196.641 214.004 197.121 213.645 C 197.477 213.289 197.836 212.691 198.195 212.094 C 198.434 211.617 198.555 211.137 198.676 210.66 C 198.793 210.184 198.676 209.824 198.555 209.348 C 198.434 208.988 198.195 208.629 197.957 208.273 C 197.719 207.914 197.238 207.676 196.762 207.555 C 196.281 207.316 195.805 207.316 195.324 207.316 C 194.848 207.316 194.367 207.555 194.008 207.793 C 193.531 208.031 193.172 208.273 192.691 208.629 C 192.215 208.988 191.734 209.348 191.258 209.703 C 190.777 210.063 190.301 210.422 189.82 210.781 C 189.344 211.137 188.746 211.379 188.266 211.496 C 187.668 211.734 187.07 211.734 186.473 211.734 C 185.875 211.734 185.156 211.617 184.438 211.258 C 183.719 210.898 183.121 210.539 182.645 210.063 C 182.164 209.586 181.926 208.988 181.688 208.391 C 181.566 207.793 181.445 207.078 181.566 206.359 C 181.688 205.645 181.926 204.93 182.285 204.211 C 182.523 203.852 182.645 203.496 183.004 203.137 C 183.242 202.777 183.48 202.539 183.84 202.18 C 184.078 201.941 184.438 201.703 184.676 201.465 C 184.918 201.227 185.156 201.105 185.277 201.105 C 185.395 201.105 185.516 200.988 185.516 200.988 C 185.633 200.988 185.633 200.988 185.754 200.988 C 185.875 200.988 185.992 200.988 186.113 201.105 C 186.234 201.105 186.352 201.227 186.59 201.227 C 186.711 201.344 186.949 201.344 187.07 201.465 C 187.191 201.586 187.309 201.586 187.309 201.703 C 187.43 201.824 187.43 201.824 187.43 201.941 C 187.43 202.063 187.43 202.063 187.43 202.18 C 187.43 202.301 187.191 202.422 187.07 202.539 C 186.832 202.66 186.59 202.898 186.234 203.137 C 185.875 203.375 185.633 203.613 185.277 203.973 C 184.918 204.332 184.676 204.688 184.438 205.168 C 184.199 205.645 184.078 206.004 184.078 206.48 C 184.078 206.84 184.078 207.195 184.199 207.555 C 184.32 207.914 184.438 208.152 184.676 208.391 C 184.918 208.629 185.156 208.867 185.516 208.988 C 185.992 209.227 186.473 209.227 186.949 209.227 C 187.43 209.227 187.906 208.988 188.387 208.75 C 188.863 208.512 189.344 208.273 189.703 207.914 C 190.18 207.555 190.66 207.195 191.137 206.84 C 191.617 206.48 192.094 206.121 192.574 205.766 C 193.051 205.406 193.648 205.168 194.129 205.047 C 194.727 204.809 195.324 204.809 195.922 204.809 C 196.16 204.688 196.879 204.809 197.598 205.168 Z M 85.6211 41.1992 L 85.6211 43.8281 C 85.6211 43.9492 85.5 44.0664 85.5 44.0664 C 85.5 44.1875 85.3828 44.1875 85.3828 44.3047 L 84.9023 45.0234 C 84.7852 45.0234 84.6641 45.0234 84.6641 45.0234 C 84.543 45.0234 84.4258 45.0234 84.4258 45.0234 L 83.5859 45.0234 L 83.4688 44.9023 L 83.3477 44.7852 L 83.1094 44.6641 L 82.8711 44.4258 L 82.2695 43.4688 L 82.1523 43.3516 C 81.9141 42.9922 81.793 42.6328 81.5547 42.2773 L 81.1953 41.5586 L 80.4766 39.8867 L 80.1172 38.9297 C 79.7578 37.9766 79.5195 36.9023 79.1602 35.8281 L 79.2813 35.4688 C 79.2813 35.3477 79.2813 35.1094 79.2813 34.9922 C 79.2813 34.8711 79.2813 34.75 79.2813 34.6328 L 79.2813 33.7969 C 79.2813 33.6758 79.2813 33.6758 79.2813 33.5586 C 79.2813 33.4375 79.2813 33.4375 79.2813 33.3203 C 79.2813 33.0781 79.1602 32.8398 79.1602 32.6016 L 79.1602 32.125 L 79.2813 31.7656 C 79.2813 31.7656 79.2813 31.6484 79.2813 31.6484 C 79.2813 31.6484 79.2813 31.5273 79.2813 31.5273 L 79.3984 31.4063 L 79.3984 31.0508 C 79.3984 30.9297 79.3984 30.9297 79.5195 30.8125 L 79.5195 30.5703 C 79.5195 30.5703 79.5195 30.5703 79.5195 30.4531 L 80.4766 30.0938 L 80.7148 30.0938 C 80.8359 30.0938 80.8359 30.0938 80.957 30.2148 C 80.957 30.332 81.0742 30.4531 81.0742 30.5703 C 81.1953 30.8125 81.3125 30.9297 81.4336 31.2891 L 81.4336 32.125 L 81.5547 32.2422 L 81.5547 32.4844 L 81.6719 32.8398 C 81.6719 33.1992 81.793 33.4375 81.793 33.6758 C 81.9141 34.5117 82.1523 35.2305 82.2695 36.0664 L 82.2695 36.3047 L 82.3906 37.5 L 82.5117 37.9766 L 82.6289 38.4531 L 82.8711 38.9297 L 82.9883 39.2891 L 83.1094 39.5273 L 83.2266 39.6484 L 83.3477 39.7656 L 83.4688 39.8867 L 83.5859 40.0078 L 83.707 40.125 L 84.0664 40.4844 L 84.4258 40.4844 L 84.543 40.3633 L 84.7852 40.125 L 84.7852 40.3633 L 84.9023 40.4844 L 85.1406 40.8438 Z M 79.6406 27.707 L 79.1602 27.707 L 78.8008 27.4688 L 78.5625 27.4688 L 78.4414 27.3477 L 78.082 27.3477 L 77.9648 27.2266 L 77.8438 27.2266 L 77.7266 27.1094 L 77.6055 27.1094 L 77.4844 26.8711 L 77.3672 26.75 L 77.2461 26.5117 L 77.125 26.5117 L 77.125 26.3906 C 77.125 26.3906 77.125 26.3906 77.125 26.2734 C 77.125 26.2734 77.125 26.1523 77.125 26.1523 C 77.125 26.1523 77.125 26.0352 77.125 26.0352 L 77.125 24.9609 L 77.6055 24.9609 L 77.8438 24.8398 C 77.9648 24.8398 77.9648 24.8398 78.082 24.7188 C 78.082 24.7188 78.2031 24.7188 78.2031 24.7188 C 78.2031 24.7188 78.3242 24.7188 78.3242 24.7188 L 78.9219 24.7188 L 79.0391 24.8398 L 79.2813 24.9609 L 79.3984 25.1992 L 79.8789 25.1992 L 80 25.3164 L 80.1172 25.4375 L 80.2383 25.5547 L 80.3555 25.6758 L 80.4766 25.7969 L 80.4766 26.0352 L 80.5977 26.6328 L 80.5977 26.8711 L 80.4766 27.2266 L 80.4766 27.3477 L 80.3555 27.4688 L 80.2383 27.4688 L 80.1172 27.5859 L 79.8789 27.5859 Z M 90.6445 31.4063 C 90.6445 31.4063 90.5273 31.4063 90.5273 31.4063 L 90.2852 31.4063 C 90.168 31.4063 90.168 31.4063 90.0469 31.4063 C 89.9258 31.4063 89.9258 31.4063 89.8086 31.4063 L 89.4492 31.4063 C 89.4492 31.4063 89.4492 31.4063 89.4492 31.5273 C 89.4492 31.5273 89.4492 31.5273 89.4492 31.6484 C 89.4492 31.6484 89.4492 31.6484 89.4492 31.7656 C 89.4492 31.7656 89.4492 31.8867 89.4492 31.8867 C 89.4492 32.0039 89.5703 32.2422 89.5703 32.3633 L 89.6875 32.4844 L 89.6875 32.6016 L 89.8086 32.7227 L 90.168 32.8398 C 90.2852 32.8398 90.4063 32.8398 90.6445 32.8398 C 90.8828 32.8398 90.8828 32.7227 90.8828 32.7227 C 90.8828 32.6016 90.8828 32.4844 91.125 32.3633 L 91.2422 32.2422 L 91.3633 32.125 L 91.4844 32.0039 L 91.4844 31.5273 L 91.2422 31.0508 L 91.125 31.0508 C 90.6445 31.4063 90.6445 31.4063 90.6445 31.4063 Z M 94.2344 29.3789 L 94.2344 29.1406 Z M 93.7578 30.6914 L 93.875 30.4531 L 94.1133 30.2148 L 94.1133 29.8555 Z M 93.3984 30.6914 L 93.6367 30.6914 L 93.7578 30.5703 Z M 90.168 29.2578 L 90.168 29.3789 L 90.2852 29.4961 L 90.5273 29.4961 Z M 89.9258 35.4688 C 90.0469 36.3047 90.168 36.9023 90.4063 37.5 C 90.6445 38.0938 90.7656 38.6914 91.125 39.4102 L 91.2422 39.6484 L 91.3633 39.7656 L 91.4844 39.8867 L 91.6016 40.0078 L 92.4414 40.0078 C 92.8008 39.8867 93.1563 39.7656 93.6367 39.6484 L 93.875 39.5273 C 93.9961 39.5273 94.2344 39.4102 94.3555 39.4102 L 94.5938 39.4102 C 94.5938 39.4102 94.7148 39.4102 94.7148 39.4102 C 94.7148 39.4102 94.832 39.4102 94.832 39.4102 L 94.9531 39.2891 L 95.0703 39.2891 L 95.1914 39.1719 L 95.3125 39.0508 L 95.4297 38.9297 L 95.5508 38.8125 C 95.5508 38.8125 95.5508 38.6914 95.5508 38.6914 C 95.5508 38.6914 95.5508 38.5742 95.5508 38.5742 L 95.5508 38.3359 C 95.5508 38.2148 95.5508 38.2148 95.5508 38.0938 L 95.5508 37.6172 C 95.5508 37.5 95.6719 37.5 95.6719 37.5 L 95.6719 37.1406 C 95.6719 37.0195 95.6719 37.0195 95.6719 36.9023 C 95.6719 36.7813 95.6719 36.7813 95.6719 36.6641 L 95.6719 36.543 L 95.5508 36.3047 C 95.5508 36.3047 95.5508 36.3047 95.5508 36.1836 L 95.3125 35.5859 C 95.3125 35.4688 95.3125 35.3477 95.3125 35.3477 C 95.3125 35.1094 95.1914 34.8711 95.1914 34.6328 C 95.1914 34.3945 95.0703 34.1563 95.0703 33.9141 L 95.0703 33.4375 L 94.832 33.1992 L 94.7148 33.1992 C 94.5938 33.1992 94.5938 33.1992 94.4727 33.1992 C 94.4727 33.1992 94.3555 33.1992 94.3555 33.1992 L 93.7578 33.1992 C 93.7578 33.1992 93.7578 33.1992 93.6367 33.3203 C 93.6367 33.3203 93.6367 33.3203 93.5156 33.4375 C 93.5156 33.4375 93.3984 33.4375 93.3984 33.5586 C 93.3984 33.5586 93.2773 33.5586 93.2773 33.6758 L 93.1563 33.6758 L 93.0391 33.7969 L 92.918 33.9141 L 92.918 34.2734 C 92.918 34.2734 92.918 34.3945 92.918 34.3945 C 92.918 34.3945 92.918 34.5117 92.918 34.5117 C 92.918 34.6328 92.918 34.6328 92.918 34.75 L 92.918 34.9922 C 93.0391 35.8281 93.6367 36.4219 94.1133 36.7813 L 94.2344 36.9023 C 94.3555 36.9023 94.4727 37.0195 94.5938 37.0195 C 94.5938 37.0195 94.5938 37.0195 94.7148 37.0195 C 94.7148 37.0195 94.832 37.1406 94.832 37.1406 L 94.832 37.2578 C 94.832 37.3789 94.7148 37.5 94.7148 37.6172 C 94.7148 37.6172 94.7148 37.6172 94.5938 37.7383 L 93.6367 37.2578 C 93.6367 37.2578 93.5156 37.3789 93.5156 37.3789 L 93.3984 37.3789 C 93.2773 37.3789 93.1563 37.2578 93.0391 37.2578 C 92.918 37.2578 92.8008 37.1406 92.6797 37.1406 L 92.5586 37.0195 C 92.5586 37.0195 92.4414 36.9023 92.4414 36.9023 C 92.4414 36.9023 92.3203 36.7813 92.3203 36.7813 L 91.8398 35.707 C 91.7227 35.4688 91.6016 35.2305 91.6016 35.1094 C 91.6016 34.9922 91.6016 34.9922 91.6016 34.9922 L 90.4063 34.9922 L 90.2852 35.1094 Z M 83.707 17.9141 L 83.9453 17.793 L 84.1836 17.6758 L 84.4258 17.5547 C 84.543 17.5547 84.543 17.5547 84.6641 17.5547 C 84.7852 17.5547 84.9023 17.5547 84.9023 17.4375 L 85.0234 17.5547 C 85.1406 17.5547 85.1406 17.6758 85.2617 17.6758 L 85.2617 17.9141 C 85.3828 18.1523 85.3828 18.3906 85.3828 18.5117 C 85.3828 18.75 85.5 18.9883 85.5 19.1094 C 85.5 19.3477 85.6211 19.7031 85.6211 19.9453 C 85.6211 20.3008 85.6211 20.5391 85.6211 20.8984 L 85.2617 23.6445 L 85.5 23.8828 L 86.3398 23.8828 L 87.2969 22.9297 L 89.0898 20.3008 C 89.0898 20.3008 89.2109 20.1836 89.2109 20.1836 C 89.2109 20.1836 89.3281 20.0625 89.3281 20.0625 C 89.3281 20.0625 89.4492 19.9453 89.4492 19.9453 C 89.4492 19.9453 89.5703 19.9453 89.5703 19.8242 C 89.5703 19.8242 89.6875 19.8242 89.6875 19.7031 C 89.6875 19.7031 89.8086 19.7031 89.8086 19.5859 C 89.8086 19.5859 89.9258 19.5859 89.9258 19.4648 C 89.9258 19.4648 90.0469 19.4648 90.0469 19.3477 C 90.0469 19.3477 90.168 19.3477 90.168 19.2266 C 90.168 19.2266 90.2852 19.2266 90.2852 19.2266 L 90.7656 19.2266 L 90.8828 19.3477 L 91.0039 19.4648 L 91.2422 19.7031 C 91.2422 19.8242 91.2422 19.8242 91.2422 19.9453 C 91.2422 20.0625 91.2422 20.0625 91.2422 20.1836 L 91.2422 20.5391 C 91.2422 20.6602 91.2422 20.6602 91.2422 20.7813 C 91.2422 20.8984 91.2422 20.8984 91.2422 21.0195 C 91.2422 21.1367 91.2422 21.1367 91.2422 21.2578 C 91.2422 21.375 91.2422 21.375 91.2422 21.4961 L 91.2422 21.9727 L 90.4063 24.7188 L 91.2422 24.8398 L 91.4844 24.7188 L 91.7227 24.4805 L 93.1563 24.4805 L 93.2773 24.6016 L 93.3984 24.6016 C 93.3984 24.6016 93.5156 24.6016 93.5156 24.7188 C 93.5156 24.7188 93.6367 24.7188 93.6367 24.8398 C 93.6367 24.8398 93.7578 24.8398 93.7578 24.9609 C 93.7578 24.9609 93.875 24.9609 93.875 25.0781 C 93.875 25.0781 93.9961 25.1992 93.9961 25.1992 C 93.9961 25.1992 94.1133 25.3164 94.1133 25.3164 L 94.2344 25.4375 L 94.3555 25.5547 L 94.4727 25.6758 L 94.7148 26.5117 C 94.9531 27.1094 95.0703 27.707 95.3125 28.3047 L 96.0273 28.6602 L 96.7461 28.1836 L 98.4219 27.5859 L 98.7813 27.4688 C 99.0195 27.3477 99.3789 27.3477 99.7383 27.2266 L 100.336 27.2266 L 100.457 27.3477 L 100.574 27.4688 L 100.695 27.5859 L 101.055 28.3047 L 100.934 28.7813 L 100.457 29.8555 L 99.5 30.2148 C 98.543 30.5703 97.7031 30.9297 96.7461 31.168 L 96.6289 31.8867 L 96.5078 32.6016 C 96.6289 33.1992 96.6289 33.6758 96.7461 34.2734 C 96.8672 34.75 96.8672 35.3477 96.9844 35.9453 C 97.3438 36.1836 97.5859 36.4219 97.9414 36.543 L 98.0625 36.6641 C 98.0625 36.6641 98.0625 36.7813 98.1836 36.7813 C 98.1836 36.7813 98.1836 36.9023 98.3008 36.9023 C 98.3008 36.9023 98.3008 37.0195 98.3008 37.0195 C 98.3008 37.0195 98.3008 37.1406 98.3008 37.1406 C 98.3008 37.1406 98.3008 37.2578 98.3008 37.2578 C 98.3008 37.2578 98.3008 37.3789 98.3008 37.3789 C 98.3008 37.3789 98.3008 37.5 98.3008 37.5 C 98.3008 37.5 98.3008 37.6172 98.3008 37.6172 C 98.3008 37.6172 98.3008 37.7383 98.3008 37.7383 C 98.3008 37.7383 98.3008 37.8555 98.3008 37.8555 C 98.1836 38.3359 98.0625 38.8125 97.8242 39.1719 L 97.5859 39.7656 L 97.3438 40.7227 C 97.1055 41.3203 96.9844 42.0352 96.7461 42.6328 L 96.5078 42.7539 L 96.2695 42.8711 L 96.0273 42.9922 C 95.9102 42.9922 95.7891 43.1133 95.7891 43.1133 C 95.6719 43.1133 95.5508 43.1133 95.4297 43.1133 L 94.832 42.6328 L 94.3555 42.1563 L 93.3984 42.1563 C 93.1563 42.1563 92.918 42.2773 92.8008 42.2773 C 92.5586 42.3945 92.1992 42.3945 91.9609 42.5156 C 91.8398 42.5156 91.8398 42.5156 91.7227 42.5156 C 91.6016 42.5156 91.4844 42.5156 91.4844 42.5156 L 90.0469 42.5156 L 89.8086 42.3945 L 89.5703 42.2773 L 89.3281 42.1563 L 89.2109 41.7969 C 89.2109 41.7969 89.0898 41.6797 89.0898 41.6797 C 89.0898 41.6797 88.9688 41.5586 88.9688 41.5586 L 88.8516 41.3203 L 88.3711 40.2461 L 87.8945 39.1719 L 87.7734 39.0508 L 87.6563 38.9297 L 87.5352 38.8125 L 87.1758 38.8125 C 87.1758 38.8125 87.0547 38.8125 87.0547 38.8125 C 87.0547 38.8125 86.9375 38.8125 86.9375 38.8125 C 86.8164 38.8125 86.8164 38.8125 86.6992 38.8125 C 86.5781 38.8125 86.5781 38.8125 86.457 38.8125 L 85.6211 38.8125 L 85.5 38.6914 C 85.3828 38.5742 85.2617 38.4531 85.1406 38.3359 C 85.0234 38.2148 85.0234 37.9766 85.0234 37.8555 C 85.2617 37.6172 85.5 37.3789 85.7422 37.2578 L 85.9805 37.1406 C 86.0977 37.1406 86.0977 37.0195 86.0977 37.0195 C 86.0977 37.0195 86.2188 36.9023 86.2188 36.9023 C 86.2188 36.9023 86.3398 36.7813 86.3398 36.7813 C 86.3398 36.7813 86.457 36.6641 86.457 36.6641 C 86.457 36.6641 86.5781 36.543 86.5781 36.543 C 86.5781 36.543 86.6992 36.4219 86.6992 36.4219 L 86.8164 36.1836 L 86.9375 35.9453 L 87.0547 35.707 C 87.0547 35.5859 87.1758 35.5859 87.1758 35.4688 C 87.1758 35.3477 87.1758 35.3477 87.2969 35.2305 L 87.2969 34.9922 C 87.4141 34.6328 87.4141 34.2734 87.4141 34.0352 C 87.4141 33.6758 87.4141 33.3203 87.4141 32.9609 C 87.4141 32.8398 87.4141 32.6016 87.4141 32.4844 C 87.4141 32.3633 87.4141 32.125 87.4141 32.0039 L 87.4141 31.6484 C 87.4141 31.5273 87.4141 31.4063 87.4141 31.2891 L 87.7734 26.9883 L 87.5352 26.8711 L 87.4141 26.75 L 87.0547 26.75 L 86.9375 26.8711 L 86.8164 26.9883 L 86.8164 27.1094 L 85.2617 27.9453 L 84.3047 27.9453 L 84.0664 27.8242 L 83.707 27.8242 L 83.707 27.5859 L 83.5859 27.4688 L 83.4688 27.2266 L 83.3477 26.8711 L 83.2266 26.6328 L 83.1094 26.2734 L 82.9883 25.5547 L 82.9883 25.0781 C 82.9883 24.0039 82.9883 22.9297 82.9883 21.8555 L 83.3477 19.3477 Z M 92.3203 27.2266 L 92.5586 27.1094 L 93.0391 27.1094 L 93.2773 27.3477 L 93.6367 27.5859 L 93.7578 27.707 L 93.7578 27.8242 L 93.875 27.9453 C 93.9961 28.0625 93.9961 28.1836 94.1133 28.3047 C 94.1133 28.4219 94.2344 28.543 94.2344 28.6602 L 94.2344 30.0938 L 93.875 30.4531 L 93.6367 30.8125 L 93.1563 30.8125 L 93.0391 30.6914 L 92.8008 30.5703 C 92.5586 30.4531 92.3203 30.2148 92.082 30.0938 L 91.7227 30.0938 L 91.2422 29.8555 C 91.0039 29.8555 90.7656 29.7344 90.5273 29.7344 C 90.5273 29.7344 90.4063 29.7344 90.4063 29.7344 L 90.2852 29.7344 L 90.0469 29.4961 L 90.0469 29.2578 L 90.168 29.1406 L 90.2852 29.0195 L 90.5273 28.7813 L 90.6445 28.6602 L 90.7656 28.543 C 90.8828 28.4219 91.0039 28.3047 91.0039 28.3047 L 91.125 28.1836 L 91.2422 28.0625 L 91.3633 27.9453 C 91.4844 27.8242 91.6016 27.707 91.7227 27.707 C 91.8398 27.5859 92.082 27.4688 92.1992 27.3477 C 92.1992 27.3477 92.1992 27.3477 92.3203 27.2266 Z M 142.805 29.8555 L 142.566 30.332 L 142.445 30.4531 C 142.328 30.4531 142.207 30.5703 142.086 30.5703 C 141.969 30.5703 141.73 30.6914 141.609 30.6914 C 141.488 30.6914 141.25 30.8125 141.129 30.8125 L 140.891 30.9297 L 140.414 30.9297 C 140.293 30.9297 140.172 30.9297 140.055 30.9297 L 139.934 30.9297 C 139.816 30.9297 139.695 30.9297 139.574 30.8125 C 139.457 30.8125 139.336 30.8125 139.215 30.6914 L 139.098 30.6914 C 138.977 30.6914 138.859 30.6914 138.738 30.5703 C 138.617 30.5703 138.5 30.5703 138.379 30.4531 L 137.543 30.4531 L 137.422 30.5703 L 137.301 30.6914 L 137.184 30.8125 L 137.063 30.9297 L 136.945 31.0508 C 136.824 31.168 136.824 31.2891 136.703 31.2891 L 136.227 32.7227 L 136.227 32.9609 C 136.227 32.9609 136.227 33.0781 136.227 33.0781 C 136.227 33.1992 136.227 33.1992 136.105 33.3203 L 136.227 33.6758 C 136.465 34.2734 136.703 34.8711 136.945 35.4688 C 136.945 35.5859 136.945 35.5859 137.063 35.707 C 137.063 35.8281 137.063 35.8281 137.184 35.9453 L 137.184 36.0664 C 137.184 36.3047 137.301 36.543 137.301 36.7813 L 137.301 37.0195 L 137.422 37.1406 L 137.422 37.2578 C 137.422 37.3789 137.543 37.3789 137.543 37.5 C 137.543 37.7383 137.66 37.9766 137.66 38.0938 C 137.66 38.3359 137.781 38.4531 137.781 38.6914 C 137.781 38.8125 137.902 38.8125 137.902 38.9297 C 137.902 38.9297 137.902 39.0508 137.902 39.0508 C 137.902 39.0508 138.02 39.1719 138.02 39.1719 L 138.141 39.6484 C 138.141 39.6484 138.141 39.7656 138.141 39.7656 L 138.258 39.8867 C 138.258 40.0078 138.379 40.125 138.379 40.2461 C 138.5 40.4844 138.738 40.8438 138.859 41.082 C 139.098 41.3203 139.215 41.5586 139.457 41.7969 C 139.574 41.918 139.695 42.0352 139.816 42.2773 C 139.934 42.3945 140.055 42.5156 140.172 42.6328 C 140.293 42.7539 140.414 42.8711 140.531 42.9922 C 140.652 43.1133 140.773 43.2305 140.891 43.3516 C 141.012 43.4688 141.012 43.5898 141.129 43.5898 C 141.25 43.707 141.371 43.8281 141.371 43.8281 L 141.73 44.1875 L 142.207 44.543 L 142.328 44.6641 L 142.445 44.7852 L 142.566 44.9023 L 142.805 45.1406 L 142.688 45.1406 C 142.688 45.1406 142.566 45.1406 142.566 45.2617 L 141.848 46.0977 C 141.848 46.0977 141.848 46.0977 141.73 46.0977 C 141.73 46.0977 141.609 46.0977 141.609 46.2148 C 141.609 46.2148 141.488 46.2148 141.488 46.3359 L 141.129 46.3359 C 141.129 46.3359 141.129 46.3359 141.012 46.3359 L 140.531 46.2148 L 139.816 45.8594 C 139.695 45.7383 139.574 45.7383 139.457 45.6211 C 139.336 45.5 139.215 45.5 139.098 45.3789 C 138.977 45.2617 138.859 45.2617 138.738 45.1406 C 138.617 45.0234 138.5 45.0234 138.379 44.9023 C 138.258 44.7852 138.141 44.7852 138.141 44.6641 C 138.02 44.543 137.902 44.543 137.902 44.4258 L 137.902 44.3047 C 137.781 44.1875 137.66 44.1875 137.543 44.0664 L 137.184 43.8281 L 136.824 43.4688 L 136.703 43.3516 L 136.586 43.2305 L 136.465 43.1133 L 136.344 42.9922 L 136.227 42.7539 L 135.988 42.3945 L 135.867 41.918 L 135.629 41.1992 C 135.629 41.082 135.508 40.9609 135.508 40.8438 C 135.508 40.7227 135.387 40.6016 135.387 40.4844 C 135.27 40.0078 135.148 39.5273 135.031 39.1719 C 134.91 38.6914 134.789 38.3359 134.672 37.8555 L 134.551 37.3789 L 134.43 37.2578 L 134.313 37.0195 L 134.313 36.1836 C 134.313 35.9453 134.313 35.8281 134.191 35.5859 L 134.191 35.3477 L 134.074 35.1094 L 133.953 34.8711 L 133.715 34.6328 L 133.473 34.5117 L 133.234 34.3945 L 132.637 34.3945 L 132.516 34.6328 C 132.516 34.75 132.398 34.75 132.398 34.8711 L 132.398 34.9922 L 132.277 35.1094 L 132.16 35.2305 L 132.16 35.3477 C 132.16 35.3477 132.039 35.4688 132.039 35.4688 L 131.918 35.5859 C 131.441 36.0664 130.961 36.6641 130.602 37.1406 L 130.484 37.2578 C 130.242 37.3789 130.125 37.6172 129.887 37.7383 L 129.766 37.8555 L 128.328 39.1719 L 128.09 39.4102 C 128.09 39.4102 128.09 39.4102 127.973 39.4102 C 127.973 39.4102 127.973 39.4102 127.852 39.4102 L 127.73 39.5273 L 127.613 39.5273 L 127.492 39.6484 L 127.371 39.7656 L 127.254 39.8867 C 127.254 39.8867 127.133 40.0078 127.133 40.125 L 127.016 40.2461 L 126.895 40.2461 L 126.656 40.3633 L 126.535 40.3633 C 126.535 40.3633 126.414 40.3633 126.414 40.3633 C 126.414 40.3633 126.297 40.3633 126.297 40.4844 C 126.059 40.4844 125.938 40.4844 125.699 40.4844 C 125.457 40.4844 125.219 40.4844 124.98 40.4844 C 124.859 40.4844 124.859 40.4844 124.742 40.4844 C 124.621 40.4844 124.621 40.4844 124.5 40.4844 L 124.262 40.4844 C 124.145 40.3633 124.023 40.3633 123.785 40.2461 C 123.785 40.2461 123.664 40.2461 123.664 40.125 C 123.664 40.125 123.543 40.125 123.543 40.0078 L 123.426 40.0078 L 123.543 40.0078 C 123.664 40.0078 123.664 39.8867 123.785 39.8867 L 124.262 39.6484 C 124.262 39.6484 124.262 39.6484 124.383 39.6484 L 124.5 39.6484 L 124.5 39.5273 L 124.621 39.4102 L 124.742 39.2891 C 124.98 39.0508 125.34 38.9297 125.699 38.6914 C 126.059 38.4531 126.297 38.3359 126.656 38.0938 L 126.773 38.0938 L 127.016 37.9766 L 127.133 37.9766 C 127.133 37.8555 127.254 37.8555 127.254 37.7383 C 127.254 37.7383 127.371 37.7383 127.371 37.6172 L 127.492 37.6172 C 127.852 37.2578 128.211 37.0195 128.57 36.6641 C 128.688 36.543 128.93 36.3047 129.047 36.1836 C 129.168 36.0664 129.406 35.8281 129.527 35.707 C 129.645 35.5859 129.645 35.5859 129.766 35.4688 L 130.125 35.1094 C 130.242 34.9922 130.242 34.8711 130.363 34.8711 C 130.363 34.8711 130.484 34.75 130.484 34.75 C 130.484 34.75 130.602 34.6328 130.602 34.6328 L 130.961 34.6328 L 131.082 34.5117 L 131.082 34.3945 C 131.32 34.0352 131.68 33.7969 131.918 33.4375 C 132.039 33.1992 132.277 33.0781 132.398 32.8398 C 132.516 32.7227 132.516 32.6016 132.637 32.6016 C 132.758 32.4844 132.758 32.3633 132.875 32.3633 C 132.875 32.2422 132.996 32.2422 132.996 32.125 L 132.996 31.7656 C 132.996 31.7656 132.996 31.6484 132.996 31.6484 L 132.996 31.4063 L 132.758 31.0508 C 132.637 31.0508 132.516 31.168 132.398 31.168 C 132.398 31.168 132.277 31.168 132.277 31.168 C 132.277 31.168 132.16 31.168 132.16 31.168 C 132.039 31.168 132.039 31.168 131.918 31.168 C 131.801 31.168 131.801 31.168 131.68 31.168 L 131.441 31.168 C 131.32 31.168 131.199 31.168 131.082 31.168 C 130.961 31.168 130.723 31.168 130.602 31.168 L 130.242 31.168 C 130.125 31.168 130.004 31.168 129.887 31.168 C 129.887 31.168 129.766 31.168 129.766 31.168 C 129.766 31.168 129.645 31.168 129.645 31.168 L 129.527 31.168 L 129.285 31.2891 L 128.57 31.2891 L 128.328 31.168 L 128.09 31.0508 L 127.852 30.9297 L 127.613 30.6914 L 127.613 30.8125 L 127.371 30.5703 L 127.254 30.332 L 127.133 30.0938 L 127.016 29.8555 L 127.016 28.8984 L 127.133 28.6602 L 127.254 28.4219 L 127.613 28.0625 L 127.852 27.9453 L 127.973 27.9453 C 128.09 27.9453 128.09 27.8242 128.211 27.8242 C 128.211 27.8242 128.328 27.8242 128.328 27.8242 L 128.809 27.8242 C 128.93 27.8242 129.047 27.8242 129.168 27.8242 C 129.285 27.8242 129.406 27.8242 129.645 27.9453 L 129.887 27.9453 L 130.125 28.0625 L 130.363 28.0625 C 130.484 28.0625 130.602 28.0625 130.723 28.0625 L 130.844 28.0625 L 131.32 27.9453 L 131.68 27.8242 L 132.039 27.707 L 132.637 27.707 C 132.758 27.707 132.758 27.707 132.875 27.707 C 132.996 27.707 132.996 27.707 133.117 27.707 L 133.832 27.8242 L 133.953 27.707 C 134.074 27.707 134.074 27.707 134.191 27.707 L 134.43 27.707 C 134.672 27.707 134.91 27.5859 135.148 27.4688 C 135.387 27.3477 135.629 27.3477 135.867 27.2266 L 136.105 27.1094 C 136.227 26.8711 136.227 26.6328 136.344 26.5117 L 136.465 26.3906 C 136.586 26.1523 136.703 25.9141 136.824 25.6758 C 136.945 25.4375 137.063 25.1992 137.063 24.9609 C 137.184 24.7188 137.184 24.6016 137.301 24.3633 C 137.422 24.125 137.422 24.0039 137.543 23.7656 C 137.543 23.6445 137.66 23.5273 137.66 23.2891 C 137.66 23.168 137.781 23.0469 137.781 22.8086 L 137.902 22.2109 L 138.02 21.9727 L 138.02 20.4219 L 137.902 20.3008 L 137.781 20.1836 C 137.781 20.1836 137.781 20.0625 137.781 20.0625 C 137.781 20.0625 137.781 20.0625 137.781 19.9453 C 137.781 19.9453 137.781 19.8242 137.66 19.8242 C 137.66 19.8242 137.66 19.7031 137.66 19.7031 C 137.66 19.7031 137.66 19.5859 137.66 19.5859 L 137.66 19.4648 L 137.902 18.9883 L 138.02 18.8672 L 138.141 18.75 L 138.258 18.6289 L 138.379 18.5117 L 138.617 18.2734 L 139.934 18.2734 L 140.055 18.3906 L 140.172 18.6289 C 140.293 18.8672 140.531 19.1094 140.652 19.4648 C 140.652 19.4648 140.652 19.5859 140.773 19.5859 C 140.773 19.5859 140.773 19.7031 140.773 19.7031 L 140.773 19.8242 C 140.773 19.8242 140.773 19.8242 140.773 19.9453 C 140.773 19.9453 140.773 19.9453 140.773 20.0625 C 140.773 20.0625 140.773 20.1836 140.891 20.1836 C 140.891 20.1836 140.891 20.1836 140.891 20.3008 L 140.891 20.4219 C 140.891 20.5391 140.891 20.6602 140.891 20.8984 C 140.891 21.0195 140.773 21.1367 140.773 21.2578 L 140.773 21.375 C 140.652 21.7344 140.531 22.0938 140.531 22.4531 C 140.414 22.8086 140.293 23.168 140.293 23.5273 L 140.055 24.2422 C 139.934 24.3633 139.934 24.6016 139.816 24.7188 C 139.695 24.8398 139.695 25.0781 139.574 25.1992 L 139.457 25.5547 C 139.336 25.6758 139.336 25.9141 139.215 26.0352 C 139.098 26.1523 139.098 26.3906 138.977 26.5117 C 138.977 26.6328 138.859 26.75 138.859 26.9883 L 138.859 27.4688 C 138.859 27.4688 138.977 27.5859 138.977 27.5859 L 139.098 27.707 L 139.336 27.707 C 139.457 27.707 139.457 27.707 139.574 27.707 L 139.816 27.8242 L 139.934 27.8242 C 139.934 27.8242 140.055 27.8242 140.055 27.8242 C 140.055 27.8242 140.172 27.8242 140.172 27.8242 L 140.652 27.9453 L 141.25 27.9453 L 141.488 28.0625 L 142.086 28.6602 L 142.688 28.6602 L 142.805 28.7813 L 142.926 28.8984 L 142.926 29.2578 Z M 185.992 55.7695 L 185.992 56.8438 C 185.992 56.9648 186.113 57.082 186.113 57.2031 C 186.113 57.3242 186.113 57.3242 186.113 57.4414 C 186.113 57.4414 186.113 57.5625 185.992 57.5625 C 185.992 57.5625 185.992 57.6797 185.875 57.6797 L 185.754 57.8008 C 185.754 57.8008 185.633 57.918 185.633 57.918 C 185.633 57.918 185.516 58.0391 185.516 58.0391 C 185.516 58.0391 185.395 58.1602 185.395 58.1602 C 185.395 58.1602 185.277 58.2773 185.277 58.2773 L 185.035 58.3984 C 185.035 58.3984 184.918 58.3984 184.918 58.5156 C 184.918 58.5156 184.797 58.5156 184.797 58.5156 C 184.676 58.5156 184.676 58.3984 184.559 58.3984 C 184.438 58.3984 184.438 58.2773 184.32 58.2773 C 184.199 58.1602 184.078 58.1602 183.84 58.0391 C 183.48 57.918 183.242 57.6797 183.004 57.5625 C 182.883 57.4414 182.645 57.3242 182.523 57.2031 C 182.402 57.082 182.285 56.8438 182.164 56.7266 C 182.285 56.6055 182.402 56.6055 182.523 56.4883 C 182.645 56.4883 182.645 56.3672 182.762 56.3672 C 183.004 56.2461 183.121 56.1289 183.359 56.1289 L 183.48 56.0078 C 183.48 55.8906 183.602 55.7695 183.602 55.6523 C 183.602 55.5313 183.719 55.5313 183.719 55.4102 L 183.719 54.9336 L 183.602 54.6953 C 183.48 54.6953 183.48 54.6953 183.359 54.6953 C 183.242 54.5742 183.121 54.457 183.004 54.457 L 182.883 54.457 C 182.645 54.3359 182.402 54.2188 182.285 53.9805 L 182.164 53.8594 C 182.047 53.8594 182.047 53.7383 181.926 53.7383 C 181.926 53.6211 181.805 53.6211 181.805 53.6211 C 181.805 53.6211 181.688 53.5 181.688 53.5 L 181.445 53.2617 L 180.969 52.7852 L 180.73 52.6641 L 180.371 52.5469 C 180.25 52.5469 180.25 52.4258 180.133 52.4258 C 180.012 52.4258 180.012 52.4258 179.891 52.3086 C 179.773 52.1875 179.652 52.0664 179.414 51.9492 C 179.293 51.8281 179.176 51.7109 178.934 51.7109 C 178.934 51.7109 178.816 51.7109 178.816 51.7109 L 178.457 51.3516 C 178.457 51.3516 178.336 51.3516 178.336 51.3516 L 178.219 51.2305 L 177.859 51.2305 C 177.738 51.2305 177.738 51.2305 177.617 51.2305 C 177.5 51.2305 177.5 51.2305 177.379 51.2305 L 177.141 51.1133 L 176.902 51.1133 L 176.781 50.9922 C 176.781 50.9922 176.66 50.9922 176.66 50.9922 C 176.66 50.9922 176.543 50.9922 176.543 50.875 C 176.543 50.875 176.422 50.875 176.422 50.7539 L 176.305 50.7539 C 176.305 50.7539 176.184 50.7539 176.184 50.7539 C 175.945 50.7539 175.824 50.6367 175.586 50.6367 C 175.465 50.5156 175.227 50.5156 175.105 50.3945 C 174.988 50.2773 174.867 50.2773 174.867 50.1563 C 174.746 50.0391 174.629 50.0391 174.629 49.918 C 174.508 49.8008 174.391 49.6797 174.27 49.5586 C 174.148 49.4414 174.031 49.3203 173.91 49.2031 L 173.789 49.2031 L 172.953 48.1289 C 172.832 48.1289 172.715 48.1289 172.594 48.2461 C 172.355 48.2461 172.234 48.2461 171.996 48.2461 L 171.52 48.2461 L 171.277 48.3672 L 171.039 48.4844 L 170.801 48.6055 L 170.441 48.7227 L 170.203 48.8438 C 169.961 48.9648 169.844 49.082 169.602 49.082 L 168.289 49.082 L 168.168 48.9648 C 168.168 48.9648 168.168 48.8438 168.168 48.8438 C 168.168 48.8438 168.168 48.7227 168.168 48.7227 C 168.168 48.7227 168.168 48.6055 168.168 48.6055 C 168.168 48.6055 168.168 48.4844 168.168 48.4844 L 168.168 48.3672 C 168.168 48.2461 168.168 48.1289 168.047 48.0078 L 168.047 47.1719 L 167.809 46.5742 C 167.93 46.457 168.047 46.3359 168.168 46.3359 C 168.168 46.3359 168.289 46.2148 168.289 46.2148 L 168.406 46.2148 C 168.527 46.2148 168.766 46.0977 168.887 46.0977 C 169.004 46.0977 169.246 45.9766 169.363 45.9766 C 169.484 45.9766 169.602 45.9766 169.602 45.8594 C 169.723 45.8594 169.723 45.8594 169.844 45.7383 L 170.32 45.7383 L 170.441 45.8594 L 170.68 45.7383 C 170.801 45.7383 170.801 45.7383 170.918 45.7383 C 171.039 45.7383 171.039 45.7383 171.16 45.6211 C 171.277 45.6211 171.277 45.6211 171.398 45.5 L 171.637 45.5 L 171.875 45.2617 L 172.477 45.1406 L 173.074 45.0234 L 173.191 45.0234 C 173.313 45.0234 173.434 45.0234 173.551 45.1406 L 173.672 45.1406 C 173.672 45.1406 173.789 45.1406 173.789 45.2617 C 173.789 45.2617 173.91 45.3789 173.91 45.3789 C 173.91 45.3789 174.031 45.5 174.031 45.5 C 174.031 45.6211 174.031 45.6211 174.031 45.7383 C 174.031 45.8594 174.031 45.8594 174.031 45.9766 L 174.031 46.457 L 173.91 46.5742 L 173.434 46.9336 L 173.91 47.293 C 174.031 47.4102 174.27 47.5313 174.391 47.6484 L 174.508 47.7695 L 174.629 47.8867 L 174.988 47.7695 L 176.063 47.7695 L 177.02 48.8438 L 178.219 48.8438 L 178.457 48.9648 C 178.574 49.082 178.695 49.2031 178.934 49.3203 C 179.055 49.4414 179.055 49.4414 179.176 49.5586 L 179.414 49.8008 L 180.371 49.8008 L 180.488 49.918 L 180.73 50.0391 C 180.848 50.1563 181.09 50.2773 181.207 50.5156 C 181.328 50.6367 181.328 50.6367 181.445 50.7539 L 181.566 50.7539 C 181.805 50.875 182.047 50.9922 182.285 51.1133 C 182.402 51.1133 182.402 51.2305 182.523 51.2305 C 182.645 51.2305 182.645 51.3516 182.762 51.3516 C 182.883 51.3516 182.883 51.4727 183.004 51.4727 C 183.004 51.4727 183.121 51.5898 183.242 51.5898 C 183.359 51.5898 183.359 51.7109 183.48 51.7109 C 183.602 51.7109 183.602 51.8281 183.719 51.8281 C 183.961 52.0664 184.078 52.1875 184.32 52.4258 L 184.438 52.5469 L 184.559 52.6641 C 184.676 52.7852 184.797 52.9023 184.918 53.0234 C 185.035 53.1445 185.156 53.2617 185.277 53.3828 L 185.754 54.0977 C 185.875 54.3359 185.992 54.457 186.113 54.6953 C 186.113 54.8164 186.234 54.9336 186.234 54.9336 L 186.352 55.1719 Z M 185.754 45.3789 L 185.992 45.3789 C 186.113 45.3789 186.113 45.3789 186.234 45.3789 C 186.352 45.3789 186.352 45.3789 186.473 45.3789 C 186.711 45.3789 186.949 45.3789 187.07 45.5 L 187.07 45.6211 C 187.07 45.7383 187.191 45.9766 187.191 46.0977 L 187.191 46.2148 C 187.191 46.3359 187.191 46.457 187.07 46.5742 C 187.07 46.6953 186.949 46.6953 186.832 46.6953 L 186.711 46.8125 C 186.711 46.8125 186.59 46.9336 186.59 46.9336 C 186.473 47.0508 186.473 47.0508 186.352 47.1719 L 185.516 47.1719 C 185.516 47.1719 185.395 47.1719 185.395 47.293 L 185.277 47.293 L 185.035 47.4102 L 185.035 47.6484 C 185.156 47.7695 185.156 47.8867 185.277 48.0078 L 185.992 48.7227 C 186.113 48.7227 186.113 48.7227 186.234 48.6055 C 186.352 48.6055 186.352 48.6055 186.473 48.6055 C 186.473 48.6055 186.59 48.6055 186.711 48.6055 L 187.07 48.6055 L 187.191 48.4844 L 187.309 48.4844 C 187.43 48.4844 187.547 48.4844 187.668 48.4844 C 187.789 48.4844 187.906 48.4844 188.027 48.6055 C 188.027 48.6055 188.148 48.6055 188.148 48.6055 C 188.148 48.6055 188.266 48.6055 188.266 48.6055 C 188.266 48.6055 188.387 48.6055 188.387 48.6055 C 188.504 48.6055 188.504 48.4844 188.625 48.4844 L 189.223 48.3672 L 189.344 48.3672 C 189.582 48.2461 189.703 48.2461 189.941 48.2461 C 189.941 48.2461 190.063 48.2461 190.063 48.2461 C 190.063 48.2461 190.18 48.2461 190.18 48.2461 L 190.539 48.4844 L 191.258 49.2031 L 191.258 49.6797 L 191.137 49.8008 L 191.02 50.0391 L 190.898 50.2773 L 190.66 50.5156 C 190.539 50.6367 190.301 50.7539 190.18 50.7539 L 189.941 50.875 C 189.82 50.875 189.82 50.9922 189.703 50.9922 C 189.582 50.9922 189.582 51.1133 189.461 51.1133 L 189.344 51.2305 L 188.504 51.2305 C 188.387 51.2305 188.387 51.2305 188.266 51.1133 C 188.266 51.1133 188.148 51.1133 188.148 51.1133 C 188.148 51.1133 188.027 51.1133 188.027 51.1133 L 187.906 51.1133 C 187.906 51.1133 187.789 51.1133 187.789 51.1133 C 187.789 51.1133 187.668 51.1133 187.668 51.1133 C 187.668 51.1133 187.547 51.1133 187.547 51.1133 C 187.547 51.1133 187.43 51.1133 187.43 51.1133 L 187.07 50.9922 L 186.234 50.9922 C 185.992 50.875 185.875 50.7539 185.633 50.7539 L 185.516 50.6367 L 185.395 50.6367 C 185.156 50.5156 184.918 50.3945 184.797 50.2773 L 184.676 50.2773 C 184.559 50.2773 184.559 50.1563 184.438 50.1563 C 184.32 50.1563 184.32 50.0391 184.199 50.0391 C 184.078 49.918 184.078 49.8008 183.961 49.6797 C 183.84 49.5586 183.84 49.4414 183.719 49.3203 C 183.719 49.2031 183.602 49.2031 183.602 49.082 C 183.602 48.9648 183.48 48.9648 183.48 48.8438 C 183.48 48.8438 183.48 48.7227 183.359 48.7227 C 183.359 48.7227 183.359 48.6055 183.242 48.6055 C 183.242 48.6055 183.242 48.4844 183.242 48.4844 C 183.242 48.4844 183.242 48.3672 183.242 48.3672 C 183.242 48.3672 183.242 48.2461 183.242 48.2461 C 183.242 48.2461 183.242 48.1289 183.242 48.1289 C 183.242 48.1289 183.242 48.0078 183.242 48.0078 C 183.242 48.0078 183.242 47.8867 183.242 47.8867 C 183.242 47.8867 183.242 47.7695 183.242 47.7695 C 183.242 47.7695 183.242 47.6484 183.242 47.6484 L 183.242 47.4102 C 183.242 47.293 183.359 47.1719 183.359 47.1719 C 183.359 47.0508 183.48 46.9336 183.48 46.9336 C 183.48 46.9336 183.602 46.8125 183.602 46.8125 C 183.602 46.8125 183.719 46.6953 183.719 46.6953 L 183.84 46.5742 C 183.84 46.5742 183.84 46.457 183.961 46.457 C 184.078 46.3359 184.078 46.3359 184.199 46.2148 C 184.32 46.0977 184.32 46.0977 184.438 45.9766 L 185.516 45.6211 C 185.633 45.6211 185.633 45.6211 185.754 45.6211 C 185.754 45.6211 185.754 45.6211 185.875 45.6211 L 186.113 45.5 Z M 176.66 46.0977 C 176.66 45.9766 176.66 45.9766 176.781 45.9766 C 176.781 45.9766 176.902 45.8594 176.902 45.8594 L 177.02 45.7383 L 177.5 45.2617 L 177.617 45.0234 L 179.531 43.5898 C 179.652 43.4688 179.773 43.4688 179.891 43.3516 C 180.012 43.2305 180.133 43.2305 180.25 43.1133 L 180.609 42.8711 C 180.609 42.8711 180.73 42.8711 180.73 42.8711 L 180.848 42.7539 C 180.969 42.7539 180.969 42.6328 181.09 42.6328 L 181.207 42.6328 L 181.328 42.7539 L 181.328 42.9922 C 181.328 42.9922 181.328 43.1133 181.328 43.2305 C 181.328 43.3516 181.328 43.3516 181.328 43.4688 C 181.328 43.4688 181.328 43.5898 181.328 43.5898 C 181.328 43.5898 181.328 43.707 181.328 43.707 C 181.328 43.707 181.328 43.8281 181.328 43.8281 C 181.328 43.8281 181.328 43.9492 181.328 43.9492 C 181.328 43.9492 181.328 44.0664 181.328 44.0664 C 181.328 44.0664 181.328 44.1875 181.328 44.1875 C 181.328 44.1875 181.328 44.3047 181.207 44.3047 C 181.207 44.3047 181.207 44.4258 181.09 44.4258 C 181.09 44.543 180.969 44.543 180.969 44.6641 C 180.969 44.6641 180.969 44.7852 180.848 44.7852 L 180.609 45.0234 L 180.609 45.1406 L 180.488 45.2617 L 180.488 45.5 L 180.371 45.6211 L 180.25 45.7383 L 180.012 45.8594 L 179.293 46.3359 L 178.695 46.9336 C 178.574 46.9336 178.457 47.0508 178.336 47.0508 C 178.098 47.1719 177.977 47.1719 177.738 47.293 L 176.781 47.293 L 176.66 47.1719 L 176.543 47.0508 C 176.543 46.9336 176.422 46.9336 176.422 46.8125 C 176.422 46.6953 176.305 46.6953 176.305 46.5742 L 176.305 46.457 C 176.305 46.3359 176.305 46.2148 176.184 46.0977 L 176.305 45.9766 C 176.66 46.2148 176.66 46.0977 176.66 46.0977 Z M 165.535 53.8594 L 165.297 53.7383 C 165.176 53.7383 165.176 53.6211 165.059 53.6211 C 165.059 53.5 164.938 53.5 164.938 53.3828 C 164.938 53.2617 164.816 53.2617 164.816 53.1445 L 164.699 53.0234 L 164.699 52.9023 C 164.699 52.7852 164.578 52.7852 164.578 52.6641 C 164.578 52.5469 164.461 52.5469 164.461 52.4258 L 164.461 52.0664 C 164.461 52.0664 164.578 51.9492 164.578 51.9492 C 164.699 51.8281 164.938 51.7109 165.059 51.5898 L 165.176 51.5898 C 165.176 51.5898 165.297 51.5898 165.297 51.5898 C 165.297 51.5898 165.418 51.5898 165.418 51.5898 C 165.418 51.5898 165.418 51.5898 165.535 51.5898 C 165.773 51.7109 165.895 51.8281 166.016 51.9492 L 166.133 52.0664 C 166.254 52.1875 166.492 52.4258 166.613 52.5469 L 166.852 52.7852 C 166.852 52.7852 166.973 52.7852 166.973 52.9023 C 166.973 52.9023 167.09 53.0234 167.09 53.0234 L 167.211 53.1445 L 167.332 53.3828 L 167.449 53.3828 C 167.57 53.3828 167.57 53.5 167.688 53.5 C 167.809 53.5 167.93 53.6211 167.93 53.6211 C 168.047 53.6211 168.047 53.7383 168.168 53.8594 C 168.289 53.9805 168.406 53.9805 168.406 54.0977 C 168.527 54.2188 168.645 54.2188 168.645 54.3359 C 168.887 54.5742 169.246 54.8164 169.484 55.0547 L 169.602 55.1719 C 169.602 55.1719 169.723 55.293 169.723 55.293 C 169.723 55.293 169.844 55.4102 169.844 55.4102 C 169.844 55.4102 169.961 55.5313 170.082 55.5313 C 170.082 55.5313 170.203 55.6523 170.203 55.6523 L 170.441 55.8906 C 170.559 55.8906 170.559 56.0078 170.68 56.0078 L 170.801 56.1289 L 170.918 56.1289 C 170.918 56.1289 171.039 56.2461 171.039 56.2461 C 171.039 56.2461 171.16 56.3672 171.16 56.3672 L 171.398 56.4883 C 171.52 56.3672 171.637 56.2461 171.758 56.2461 C 171.875 56.1289 171.996 56.0078 172.117 55.8906 L 172.477 55.6523 L 172.594 55.5313 L 172.715 55.4102 C 172.832 55.293 172.832 55.1719 172.953 55.1719 L 173.074 55.1719 C 173.074 55.1719 173.191 55.1719 173.191 55.1719 C 173.191 55.1719 173.191 55.1719 173.313 55.1719 L 173.551 55.1719 C 173.551 55.1719 173.672 55.1719 173.672 55.1719 C 173.672 55.1719 173.789 55.1719 173.789 55.293 C 173.789 55.293 173.91 55.293 173.91 55.293 C 173.91 55.293 173.91 55.293 174.031 55.293 C 174.031 55.293 174.031 55.293 174.148 55.293 C 174.148 55.293 174.27 55.293 174.27 55.293 L 174.391 55.293 L 174.629 55.0547 C 174.746 54.8164 174.867 54.6953 175.105 54.457 L 175.227 54.3359 L 175.227 54.0977 L 175.105 53.7383 L 175.105 53.6211 L 174.988 53.5 C 174.988 53.3828 174.867 53.2617 174.867 53.1445 L 174.867 52.7852 L 175.105 52.5469 L 175.348 52.4258 L 175.586 52.4258 C 175.586 52.4258 175.586 52.4258 175.703 52.4258 C 175.703 52.4258 175.824 52.4258 175.824 52.4258 C 175.824 52.4258 175.945 52.4258 175.945 52.4258 L 176.063 52.4258 C 176.063 52.4258 176.184 52.5469 176.305 52.5469 C 176.422 52.5469 176.422 52.6641 176.543 52.6641 C 176.66 52.7852 176.781 52.7852 176.902 52.9023 L 177.02 53.0234 L 177.141 53.1445 L 177.262 53.1445 C 177.379 53.1445 177.379 53.2617 177.5 53.2617 L 177.617 53.2617 C 177.738 53.3828 177.859 53.3828 177.859 53.5 C 177.977 53.6211 177.977 53.7383 178.098 53.7383 L 178.336 54.0977 C 178.336 54.2188 178.336 54.3359 178.336 54.3359 C 178.336 54.457 178.336 54.5742 178.457 54.6953 C 178.457 54.8164 178.574 54.9336 178.574 55.0547 L 178.574 55.293 C 178.574 55.293 178.574 55.293 178.574 55.4102 C 178.574 55.4102 178.574 55.5313 178.574 55.5313 C 178.574 55.5313 178.574 55.5313 178.574 55.6523 C 178.574 55.7695 178.457 55.7695 178.457 55.8906 C 178.457 55.8906 178.336 56.0078 178.336 56.0078 C 178.336 56.0078 178.219 56.1289 178.219 56.1289 C 178.098 56.2461 177.977 56.3672 177.738 56.3672 C 177.617 56.3672 177.5 56.4883 177.379 56.4883 C 177.379 56.4883 177.262 56.4883 177.262 56.4883 L 177.262 56.3672 C 177.141 56.3672 177.02 56.3672 176.902 56.3672 C 176.781 56.3672 176.66 56.3672 176.422 56.3672 C 176.305 56.3672 176.184 56.3672 176.063 56.3672 C 175.945 56.3672 175.824 56.3672 175.703 56.3672 L 175.586 56.3672 C 175.586 56.3672 175.465 56.3672 175.465 56.3672 C 175.465 56.3672 175.465 56.3672 175.348 56.3672 C 175.348 56.3672 175.348 56.3672 175.227 56.3672 C 175.227 56.3672 175.227 56.3672 175.105 56.3672 C 175.105 56.3672 175.105 56.3672 174.988 56.3672 C 174.988 56.3672 174.988 56.3672 174.867 56.3672 C 174.867 56.3672 174.867 56.3672 174.746 56.3672 L 174.629 56.3672 L 174.508 56.4883 L 174.27 56.4883 L 173.434 57.082 L 173.434 57.2031 L 173.313 57.3242 L 173.313 57.6797 L 173.434 57.918 L 174.391 59.1133 C 174.391 59.1133 174.508 59.1133 174.508 59.1133 L 174.867 59.5898 C 175.348 60.1875 175.824 60.9063 176.305 61.5039 L 176.422 61.7422 L 176.422 61.8594 C 176.422 61.8594 176.422 61.9805 176.422 61.9805 L 176.422 62.0977 C 176.422 62.0977 176.422 62.2188 176.422 62.3398 C 176.422 62.3398 176.422 62.457 176.422 62.457 C 176.422 62.457 176.422 62.5781 176.422 62.5781 C 176.422 62.5781 176.422 62.6953 176.422 62.6953 C 176.422 62.6953 176.422 62.6953 176.422 62.8164 L 176.422 62.9336 C 176.422 62.9336 176.422 63.0547 176.422 63.0547 C 176.422 63.1758 176.422 63.1758 176.422 63.293 L 176.422 63.5313 C 176.422 63.6523 176.422 63.6523 176.305 63.7695 L 176.305 63.8906 C 176.305 63.8906 176.305 63.8906 176.305 64.0117 L 176.184 64.0117 C 176.184 64.0117 176.063 64.0117 176.063 64.0117 C 176.063 64.0117 175.945 64.0117 175.945 64.0117 L 175.824 64.0117 C 175.824 64.0117 175.824 64.0117 175.703 64.0117 C 175.703 64.0117 175.703 64.0117 175.586 64.0117 C 175.586 64.0117 175.465 64.0117 175.465 63.8906 C 175.465 63.8906 175.348 63.8906 175.348 63.8906 C 175.348 63.8906 175.227 63.7695 175.105 63.7695 C 174.988 63.7695 174.988 63.7695 174.867 63.7695 C 174.867 63.7695 174.746 63.7695 174.746 63.7695 C 174.746 63.7695 174.629 63.7695 174.629 63.7695 L 173.91 62.9336 C 173.91 62.8164 173.91 62.8164 173.91 62.6953 C 173.91 62.5781 173.91 62.5781 173.91 62.457 C 173.91 62.457 173.91 62.3398 173.91 62.3398 C 173.91 62.3398 173.91 62.2188 173.91 62.2188 C 173.91 62.0977 173.91 61.9805 173.789 61.9805 L 173.789 61.7422 C 173.551 61.3828 173.313 61.1445 173.191 60.7852 C 173.074 60.668 172.953 60.4258 172.832 60.3086 C 172.715 60.1875 172.594 60.0703 172.477 59.832 L 172.355 59.7109 L 172.234 59.7109 C 172.117 59.7109 172.117 59.7109 171.996 59.7109 C 171.875 59.7109 171.875 59.7109 171.758 59.7109 C 171.637 59.7109 171.637 59.7109 171.52 59.7109 C 171.398 59.7109 171.398 59.7109 171.277 59.7109 C 171.16 59.7109 171.039 59.7109 170.918 59.832 C 170.801 59.832 170.68 59.832 170.559 59.9492 C 170.082 60.0703 169.723 60.1875 169.246 60.4258 C 169.246 60.4258 169.246 60.4258 169.125 60.4258 C 169.125 60.4258 169.004 60.4258 169.004 60.4258 C 168.766 60.5469 168.645 60.5469 168.406 60.668 C 168.168 60.7852 167.93 60.7852 167.809 60.9063 C 167.688 60.9063 167.57 61.0234 167.449 61.0234 C 167.332 61.0234 167.211 61.1445 167.09 61.1445 C 166.973 61.1445 166.852 61.1445 166.852 61.2617 C 166.73 61.2617 166.613 61.2617 166.613 61.3828 C 166.492 61.3828 166.492 61.3828 166.375 61.3828 C 166.254 61.3828 166.254 61.3828 166.133 61.3828 C 166.016 61.3828 166.016 61.3828 165.895 61.3828 C 165.773 61.3828 165.773 61.3828 165.656 61.3828 C 165.535 61.3828 165.535 61.3828 165.418 61.3828 C 165.297 61.3828 165.297 61.3828 165.176 61.3828 L 164.816 61.3828 C 164.816 61.3828 164.816 61.3828 164.699 61.3828 C 164.699 61.3828 164.699 61.3828 164.578 61.3828 C 164.578 61.3828 164.461 61.3828 164.461 61.3828 C 164.461 61.3828 164.461 61.3828 164.34 61.3828 C 164.34 61.3828 164.34 61.3828 164.219 61.3828 C 164.102 61.3828 163.98 61.3828 163.98 61.3828 C 163.859 61.3828 163.859 61.3828 163.742 61.3828 C 163.621 61.3828 163.621 61.3828 163.504 61.3828 L 163.145 61.3828 L 162.902 61.1445 L 162.664 60.9063 L 163.023 60.9063 L 162.902 60.668 L 162.785 60.4258 L 162.785 59.9492 L 163.145 59.5898 L 163.383 59.4727 L 163.621 59.3516 L 164.102 59.1133 C 164.219 59.2344 164.461 59.2344 164.578 59.3516 C 164.699 59.4727 164.816 59.4727 165.059 59.5898 L 165.176 59.5898 C 165.176 59.5898 165.297 59.5898 165.297 59.7109 L 165.418 59.7109 C 165.418 59.7109 165.535 59.7109 165.535 59.7109 C 165.535 59.7109 165.656 59.7109 165.656 59.7109 C 165.656 59.7109 165.773 59.7109 165.773 59.832 C 166.016 59.832 166.254 59.7109 166.492 59.7109 C 166.73 59.7109 166.852 59.5898 167.09 59.5898 C 167.211 59.5898 167.211 59.5898 167.332 59.5898 C 167.449 59.5898 167.449 59.5898 167.57 59.5898 L 168.289 59.5898 C 168.289 59.5898 168.289 59.5898 168.406 59.5898 C 168.406 59.5898 168.527 59.5898 168.645 59.4727 C 168.766 59.4727 168.766 59.4727 168.887 59.3516 C 168.887 59.3516 169.004 59.3516 169.004 59.2344 C 169.004 59.2344 169.125 59.2344 169.125 59.1133 C 169.246 59.1133 169.363 58.9961 169.363 58.9961 C 169.484 58.9961 169.484 58.875 169.602 58.7539 C 169.723 58.6367 169.844 58.6367 169.961 58.5156 L 170.082 58.3984 L 170.082 58.2773 C 170.082 58.2773 170.082 58.1602 170.203 58.1602 L 170.203 58.0391 C 170.203 58.0391 170.203 58.0391 170.203 57.918 C 170.203 57.918 170.203 57.8008 170.203 57.8008 L 170.082 57.5625 L 169.961 57.4414 L 169.723 57.082 L 169.484 56.7266 L 169.004 56.2461 L 168.289 55.6523 C 168.047 55.4102 167.809 55.293 167.57 55.0547 C 167.332 54.8164 167.09 54.6953 166.852 54.457 Z M 42.5547 49.4414 C 42.4336 49.2031 42.1953 48.9648 42.0742 48.7227 L 41.9531 48.4844 C 41.8359 48.2461 41.5977 48.0078 41.4766 47.7695 C 41.3555 47.5313 41.2383 47.293 41.1172 46.9336 C 41.1172 46.9336 41.1172 46.8125 41.2383 46.8125 C 41.2383 46.8125 41.2383 46.6953 41.3555 46.6953 L 41.4766 46.457 L 41.8359 46.2148 L 42.5547 45.9766 L 43.5117 45.9766 C 43.6289 45.9766 43.75 45.9766 43.8672 46.0977 L 43.9883 46.2148 L 44.1094 46.3359 L 44.2266 46.457 L 44.3477 46.5742 L 44.8242 47.0508 L 44.9453 47.293 L 45.0664 47.5313 L 45.4258 48.0078 L 45.7813 48.4844 L 47.5781 51.9492 L 48.0547 52.4258 L 48.2969 52.5469 L 48.5352 52.5469 L 48.7734 52.4258 L 49.0117 52.3086 L 49.1328 52.1875 L 49.3711 52.0664 C 49.6094 51.7109 49.7305 51.3516 49.9688 50.9922 C 50.2109 50.6367 50.3281 50.2773 50.5664 50.0391 L 50.6875 49.918 C 50.8086 49.8008 50.9258 49.6797 51.0469 49.5586 L 51.168 49.4414 L 51.2852 49.3203 L 51.8828 49.082 L 52.4805 49.082 L 52.6016 49.2031 L 52.7227 49.3203 L 52.8398 49.4414 C 52.8398 49.4414 52.8398 49.4414 52.8398 49.5586 C 52.8398 49.5586 52.8398 49.5586 52.8398 49.6797 C 52.8398 49.6797 52.8398 49.8008 52.8398 49.8008 C 52.8398 49.8008 52.8398 49.918 52.8398 49.918 C 52.8398 49.918 52.8398 50.0391 52.8398 50.0391 C 52.8398 50.0391 52.8398 50.1563 52.8398 50.1563 L 52.7227 50.3945 L 52.6016 50.6367 L 52.4805 50.875 L 52.9609 51.1133 L 52.8398 51.3516 L 52.7227 51.5898 L 52.6016 51.7109 L 52.3633 52.0664 L 52.125 52.3086 C 52.0039 52.4258 52.0039 52.4258 51.8828 52.4258 C 51.8828 52.5469 51.7656 52.5469 51.7656 52.6641 L 51.2852 53.0234 L 51.168 53.2617 L 50.9258 53.7383 L 50.8086 53.7383 L 50.6875 53.9805 L 50.6875 55.4102 L 50.8086 55.5313 L 50.9258 55.6523 L 51.0469 55.7695 L 51.5234 56.2461 C 51.8828 56.6055 52.125 57.082 52.4805 57.4414 C 52.7227 57.6797 52.8398 57.918 53.082 58.2773 C 53.1992 58.3984 53.3203 58.5156 53.4414 58.6367 C 53.5586 58.7539 53.6797 58.875 53.7969 58.9961 L 54.0391 59.1133 L 54.2773 59.2344 L 54.9961 59.2344 L 55.2344 59.1133 L 55.4727 58.9961 L 55.7109 58.875 L 56.5508 58.1602 C 56.9102 57.918 57.1484 57.6797 57.5078 57.4414 L 58.9414 56.3672 C 59.6602 55.8906 60.3789 55.293 60.8555 54.9336 C 60.9766 54.8164 61.0977 54.6953 61.2148 54.5742 C 61.3359 54.457 61.4531 54.3359 61.6953 54.2188 L 62.1719 53.9805 L 62.6523 53.7383 L 63.25 53.5 C 63.3672 53.5 63.3672 53.5 63.4883 53.5 C 63.6094 53.5 63.6094 53.5 63.7266 53.5 L 64.0859 53.5 C 64.0859 53.5 64.207 53.5 64.207 53.5 C 64.207 53.5 64.3242 53.5 64.3242 53.5 L 64.4453 53.5 L 64.8047 53.7383 L 64.9258 53.8594 L 65.043 53.9805 L 65.1641 54.0977 L 65.1641 55.5313 L 64.8047 55.8906 C 64.8047 55.8906 64.6836 56.0078 64.6836 56.0078 C 64.6836 56.0078 64.5664 56.1289 64.5664 56.1289 L 63.7266 56.7266 L 63.3672 56.8438 L 62.293 57.2031 L 61.9336 57.3242 C 61.8125 57.4414 61.6953 57.4414 61.5742 57.5625 L 61.3359 57.5625 L 60.6172 58.0391 L 58.7031 59.7109 L 56.5508 61.6211 L 55.5938 62.6953 L 54.6367 63.8906 L 53.7969 64.9648 L 52.9609 66.1602 L 51.2852 68.7852 L 51.168 69.0273 L 50.8086 69.2656 L 50.5664 69.6211 L 50.3281 69.8633 L 49.8516 70.3398 L 49.6094 70.4609 L 49.4922 70.4609 L 49.2539 70.5781 L 47.2188 70.5781 L 47.2188 70.2188 L 47.3398 69.8633 L 47.5781 69.3828 L 47.6953 69.0273 L 48.0547 68.4297 L 48.1758 68.1914 L 48.8945 67.3555 L 49.4922 66.7578 L 51.0469 64.6055 L 51.8828 62.8164 L 51.6445 61.8594 L 50.9258 60.9063 L 49.7305 59.2344 C 48.8945 58.1602 48.2969 57.2031 47.5781 56.2461 C 46.6211 54.9336 45.543 53.5 44.5859 52.1875 L 44.2266 51.8281 C 43.8672 51.3516 43.3906 50.7539 43.0313 50.1563 C 42.793 49.918 42.6719 49.6797 42.5547 49.4414 Z M 20.6602 178.773 C 19.7031 178.773 18.8672 178.773 18.1484 178.418 C 17.4297 178.176 16.7109 177.699 16.2344 177.223 C 15.6367 176.746 15.2773 176.027 14.918 175.313 C 14.5586 174.594 14.4375 173.758 14.3203 172.922 C 14.3203 172.324 14.3203 171.73 14.3203 171.25 C 14.4375 170.773 14.4375 170.297 14.6797 169.816 C 14.7969 169.461 14.918 169.102 15.1563 168.742 C 15.2773 168.504 15.3945 168.266 15.5156 168.145 C 15.6367 168.027 15.7539 167.906 15.9961 167.906 C 16.2344 167.789 16.4727 167.789 16.7109 167.789 C 16.9531 167.789 17.0703 167.789 17.3086 167.789 C 17.4297 167.789 17.5508 167.789 17.668 167.789 C 17.7891 167.789 17.7891 167.906 17.9102 167.906 C 17.9102 167.906 18.0273 168.027 18.0273 168.145 C 18.0273 168.266 18.0273 168.504 17.7891 168.742 C 17.668 168.98 17.4297 169.34 17.3086 169.699 C 17.1914 170.059 16.9531 170.535 16.832 171.133 C 16.7109 171.609 16.5938 172.324 16.7109 172.922 C 16.7109 173.402 16.832 173.879 17.0703 174.355 C 17.3086 174.832 17.5508 175.191 17.7891 175.43 C 18.1484 175.668 18.5078 175.91 18.8672 176.027 C 19.2227 176.148 19.7031 176.266 20.3008 176.148 C 20.8984 176.148 21.3789 175.91 21.7383 175.668 C 22.0938 175.43 22.4531 175.074 22.6953 174.715 C 22.9336 174.355 23.1719 173.879 23.4102 173.402 C 23.6523 172.922 23.8906 172.324 24.0078 171.848 C 24.25 171.371 24.4883 170.773 24.7266 170.297 C 24.9648 169.816 25.3242 169.34 25.6836 168.98 C 26.043 168.625 26.5234 168.266 27.1211 167.906 C 27.7188 167.668 28.3164 167.43 29.1523 167.43 C 29.9922 167.43 30.7109 167.43 31.4258 167.668 C 32.1445 167.906 32.625 168.266 33.1016 168.742 C 33.582 169.223 33.9375 169.816 34.1797 170.414 C 34.418 171.133 34.6563 171.848 34.6563 172.566 C 34.6563 172.922 34.6563 173.402 34.6563 173.758 C 34.6563 174.117 34.5391 174.594 34.418 174.953 C 34.2969 175.313 34.1797 175.668 34.0586 175.91 C 33.9375 176.148 33.8203 176.387 33.6992 176.504 C 33.582 176.625 33.582 176.625 33.4609 176.746 C 33.4609 176.746 33.3398 176.863 33.2227 176.863 C 33.1016 176.863 32.9805 176.863 32.8633 176.984 C 32.7422 176.984 32.625 176.984 32.3828 176.984 C 32.1445 176.984 32.0234 176.984 31.9063 176.984 C 31.7852 176.984 31.668 176.984 31.5469 176.984 C 31.4258 176.984 31.4258 176.863 31.3086 176.863 C 31.3086 176.863 31.1875 176.746 31.1875 176.746 C 31.1875 176.625 31.1875 176.504 31.3086 176.266 C 31.4258 176.027 31.5469 175.789 31.7852 175.43 C 31.9063 175.074 32.0234 174.715 32.1445 174.238 C 32.2656 173.758 32.2656 173.281 32.2656 172.805 C 32.2656 172.324 32.1445 171.848 31.9063 171.488 C 31.7852 171.133 31.5469 170.895 31.3086 170.652 C 31.0664 170.414 30.7109 170.297 30.3516 170.176 C 29.9922 170.059 29.6328 170.059 29.2734 170.059 C 28.6758 170.059 28.3164 170.297 27.8398 170.535 C 27.4805 170.773 27.1211 171.133 26.8789 171.488 C 26.6406 171.848 26.4023 172.324 26.1641 172.805 C 25.9219 173.281 25.6836 173.879 25.5664 174.355 C 25.3242 174.832 25.0859 175.43 24.8477 175.91 C 24.6094 176.387 24.25 176.863 23.8906 177.34 C 23.5313 177.699 23.0508 178.059 22.4531 178.418 C 22.0938 178.535 21.3789 178.656 20.6602 178.773 Z M 114.094 5.13672 C 171.996 5.97266 218.055 52.6641 219.609 110.348 C 220.09 129.574 219.609 148.801 219.609 168.145 C 218.176 226.305 174.988 274.551 115.172 275.863 C 51.4063 277.18 8.09766 228.098 5.70703 166.117 L 5.70703 110.227 C 7.37891 51.5898 54.7539 4.41797 114.094 5.13672 Z M 90.7656 34.9922 L 90.7656 34.9922 M 92.8008 33.0781 L 92.8008 33.0781 M 168.406 56.1289 L 168.406 56.1289 M 51.168 54.8164 L 51.168 54.8164 M 93.6367 32.6016 L 93.6367 32.6016" stroke="none" fill="#00447D" fill-rule="evenodd" fill-opacity="1"/></g></svg>