<svg viewBox="0 0 202.24 117.88" xmlns="http://www.w3.org/2000/svg" xmlns:xlink="http://www.w3.org/1999/xlink" overflow="hidden"><defs></defs><g id="Layer_2"><g id="图层_1"><path d="M201.12 29.87 201.24 58.74 176.29 73.27 201.12 29.87Z" fill="#404040"/><path d="M201 1 201.12 29.87 176.06 15.54 201 1Z" fill="#404040"/><path d="M176.29 73.27 151.35 87.81 151.24 58.95 176.29 73.27Z" fill="#404040"/><rect x="151.18" y="29.97" width="50" height="28.87" fill="#FFFF00" transform="matrix(0.496368 -0.868112 0.868112 0.496368 50.18 175.31)"/><path d="M151.12 30.07 176.06 15.54 151.24 58.95 151.12 30.07Z" fill="#404040"/><path d="M151.24 58.95 151.35 87.81 126.41 102.35 151.24 58.95Z" fill="#00D800"/><rect x="101.3" y="59.04" width="50" height="28.87" fill="#00D800" transform="matrix(0.49652 -0.868026 0.868026 0.49652 -0.19 146.63)"/><path d="M151.12 30.07 151.24 58.95 126.18 44.61 151.12 30.07Z" fill="#404040"/><path d="M151.12 30.07 126.18 44.61 126.06 15.75 151.12 30.07Z" fill="#FFFF00"/><path d="M126.18 44.61 101.36 88.01 101.24 59.15 126.18 44.61Z" fill="#404040"/><path d="M126.18 44.61 101.24 59.15 76.18 44.81 126.18 44.61Z" fill="#404040"/><path d="M126.41 102.35 101.47 116.88 101.36 88.01 126.41 102.35Z" fill="#00D800"/><rect x="76.12" y="15.85" width="50" height="28.86" fill="#404040" transform="matrix(0.999991 -0.00418878 0.00418878 0.999991 -0.12 0.42)"/><path d="M101.36 88.01 101.47 116.88 76.41 102.55 101.36 88.01Z" fill="#FF0000"/><path d="M101.24 59.15 101.36 88.01 76.18 44.81 101.24 59.15Z" fill="#FFFF00"/><rect x="61.86" y="48.68" width="28.87" height="50" fill="#FF0000" transform="matrix(0.863923 -0.503623 0.503623 0.863923 -26.72 48.44)"/><path d="M101 1.41 126.06 15.75 76.06 15.95 101 1.41Z" fill="#404040"/><path d="M76.06 15.95 76.18 44.81 51.12 30.49 76.06 15.95Z" fill="#FFFF00"/><path d="M51.24 59.36 76.41 102.55 51.35 88.22 51.24 59.36Z" fill="#FF0000"/><path d="M76.18 44.81 51.24 59.36 51.12 30.49 76.18 44.81Z" fill="#404040"/><path d="M51.24 59.36 51.35 88.22 26.3 73.89 51.24 59.36Z" fill="#404040"/><path d="M51.12 30.49 51.24 59.36 26.06 16.16 51.12 30.49Z" fill="#404040"/><rect x="11.74" y="20.02" width="28.87" height="50" fill="#404040" transform="matrix(0.863923 -0.503623 0.503623 0.863923 -19.11 19.31)"/><path d="M1.12 30.69 26.3 73.89 1.24 59.56 1.12 30.69Z" fill="#404040"/><path d="M26.06 16.16 1.12 30.69 1 1.82 26.06 16.16Z" fill="#FFFF00"/><path d="M126.06 15.75 101 1.41 76.06 15.95" stroke="#000000" stroke-width="2" stroke-linejoin="round" fill="none"/><line x1="151.12" y1="30.08" x2="126.06" y2="15.75" stroke="#000000" stroke-width="2" stroke-linejoin="round" fill="none"/><line x1="76.06" y1="15.95" x2="51.12" y2="30.49" stroke="#000000" stroke-width="2" stroke-linejoin="round" fill="none"/><rect x="76.12" y="15.85" width="50" height="28.86" stroke="#000000" stroke-width="2" stroke-linejoin="round" fill="none" transform="matrix(0.999991 -0.00418878 0.00418878 0.999991 -0.12 0.42)"/><line x1="126.18" y1="44.61" x2="101.24" y2="59.15" stroke="#000000" stroke-width="2" stroke-linejoin="round" fill="none"/><line x1="151.12" y1="30.08" x2="126.18" y2="44.61" stroke="#000000" stroke-width="2" stroke-linejoin="round" fill="none"/><line x1="101.47" y1="116.88" x2="126.41" y2="102.35" stroke="#000000" stroke-width="2" stroke-linejoin="round" fill="none"/><line x1="126.41" y1="102.35" x2="151.35" y2="87.8" stroke="#000000" stroke-width="2" stroke-linejoin="round" fill="none"/><rect x="101.3" y="59.04" width="50" height="28.87" stroke="#000000" stroke-width="2" stroke-linejoin="round" fill="none" transform="matrix(0.49652 -0.868026 0.868026 0.49652 -0.19 146.63)"/><line x1="76.18" y1="44.81" x2="51.12" y2="30.49" stroke="#000000" stroke-width="2" stroke-linejoin="round" fill="none"/><path d="M101.36 88.01 101.24 59.15 76.18 44.81" stroke="#000000" stroke-width="2" stroke-linejoin="round" fill="none"/><line x1="51.36" y1="88.22" x2="76.41" y2="102.55" stroke="#000000" stroke-width="2" stroke-linejoin="round" fill="none"/><path d="M76.41 102.55 101.47 116.88 101.36 88.01" stroke="#000000" stroke-width="2" stroke-linejoin="round" fill="none"/><rect x="61.86" y="48.68" width="28.87" height="50" stroke="#000000" stroke-width="2" stroke-linejoin="round" fill="none" transform="matrix(0.863923 -0.503623 0.503623 0.863923 -26.72 48.44)"/><path d="M26.06 16.16 1 1.82 1.12 30.69" stroke="#000000" stroke-width="2" stroke-linejoin="round" fill="none"/><path d="M51.24 59.36 51.12 30.49 26.06 16.16" stroke="#000000" stroke-width="2" stroke-linejoin="round" fill="none"/><path d="M1.12 30.69 1.24 59.56 26.3 73.89" stroke="#000000" stroke-width="2" stroke-linejoin="round" fill="none"/><path d="M26.3 73.89 51.35 88.22 51.24 59.36" stroke="#000000" stroke-width="2" stroke-linejoin="round" fill="none"/><rect x="11.74" y="20.02" width="28.87" height="50" stroke="#000000" stroke-width="2" stroke-linejoin="round" fill="none" transform="matrix(0.863923 -0.503623 0.503623 0.863923 -19.11 19.31)"/><path d="M176.06 15.54 151.12 30.07 151.24 58.95" stroke="#000000" stroke-width="2" stroke-linejoin="round" fill="none"/><path d="M201.12 29.87 201 1 176.06 15.54" stroke="#000000" stroke-width="2" stroke-linejoin="round" fill="none"/><path d="M151.24 58.95 151.35 87.81 176.29 73.27" stroke="#000000" stroke-width="2" stroke-linejoin="round" fill="none"/><path d="M176.29 73.27 201.24 58.74 201.12 29.87" stroke="#000000" stroke-width="2" stroke-linejoin="round" fill="none"/><rect x="151.18" y="29.97" width="50" height="28.87" stroke="#000000" stroke-width="2" stroke-linejoin="round" fill="none" transform="matrix(0.49652 -0.868026 0.868026 0.49652 50.17 175.29)"/></g></g></svg>