<svg width="128" height="128" viewBox="-0.9 -0.9 1.8 1.8" xmlns="http://www.w3.org/2000/svg" xmlns:xlink="http://www.w3.org/1999/xlink" overflow="hidden"><g stroke-width="0.1" stroke-linejoin="round" opacity="1"><path d="M0-0.547416 0.66468-0.47 0.66468 0.47 0 0.547416Z" id="1" stroke="#000000" fill="#000000"/><path d="M-0.66468-0.47 0-0.547416 0 0.547416-0.66468 0.47Z" id="2" stroke="#000000" fill="#000000"/></g><g stroke-width="0" stroke-linejoin="round" stroke-opacity="0.5" opacity="1"><path d="M0.00862119-0.569162 0.106328-0.557781 0.106328-0.419603 0.00862119-0.427732Z" id="1" stroke="#000000" fill="#FFFFFF"/><path d="M0.123183-0.556092 0.216498-0.545224 0.216498-0.410151 0.123183-0.417914Z" id="2" stroke="#000000" fill="#FFFFFF"/><path d="M0.232604-0.54361 0.321817-0.533219 0.321817-0.401115 0.232604-0.408537Z" id="3" stroke="#000000" fill="#FFFFFF"/><path d="M0.337222-0.531676 0.422598-0.521732 0.422598-0.392469 0.337222-0.399571Z" id="4" stroke="#000000" fill="#FFFFFF"/><path d="M0.437347-0.520254 0.519128-0.510729 0.519128-0.384187 0.437347-0.390991Z" id="5" stroke="#000000" fill="#FFFFFF"/><path d="M0.533262-0.509313 0.611671-0.50018 0.611671-0.376248 0.533262-0.382771Z" id="6" stroke="#000000" fill="#FFFFFF"/><path d="M0.625228-0.498822 0.700468-0.490059 0.700468-0.36863 0.625228-0.37489Z" id="7" stroke="#000000" fill="#FFFFFF"/><path d="M0.00862119-0.40306 0.106328-0.394932 0.106328-0.256754 0.00862119-0.261631Z" id="8" stroke="#000000" fill="#FFFFFF"/><path d="M0.123183-0.393804 0.216498-0.38604 0.216498-0.250967 0.123183-0.255625Z" id="9" stroke="#000000" fill="#0000F2"/><path d="M0.232604-0.384962 0.321817-0.37754 0.321817-0.245436 0.232604-0.249889Z" id="10" stroke="#000000" fill="#FFFFFF"/><path d="M0.337222-0.376509 0.422598-0.369407 0.422598-0.240144 0.337222-0.244405Z" id="11" stroke="#000000" fill="#0000F2"/><path d="M0.437347-0.36842 0.519128-0.361616 0.519128-0.235075 0.437347-0.239157Z" id="12" stroke="#000000" fill="#FFFFFF"/><path d="M0.533262-0.36067 0.611671-0.354147 0.611671-0.230215 0.533262-0.234129Z" id="13" stroke="#000000" fill="#FFFFFF"/><path d="M0.625228-0.35324 0.700468-0.346981 0.700468-0.225552 0.625228-0.229308Z" id="14" stroke="#000000" fill="#FFFFFF"/><path d="M0.00862119-0.236959 0.106328-0.232082 0.106328-0.0939039 0.00862119-0.0955296Z" id="15" stroke="#000000" fill="#FFFFFF"/><path d="M0.123183-0.231515 0.216498-0.226857 0.216498-0.0917839 0.123183-0.0933366Z" id="16" stroke="#000000" fill="#0000F2"/><path d="M0.232604-0.226315 0.321817-0.221862 0.321817-0.0897575 0.232604-0.0912419Z" id="17" stroke="#000000" fill="#0000F2"/><path d="M0.337222-0.221343 0.422598-0.217082 0.422598-0.0878187 0.337222-0.0892393Z" id="18" stroke="#000000" fill="#0000F2"/><path d="M0.437347-0.216586 0.519128-0.212504 0.519128-0.0859619 0.437347-0.0873226Z" id="19" stroke="#000000" fill="#0000F2"/><path d="M0.533262-0.212028 0.611671-0.208114 0.611671-0.084182 0.533262-0.0854866Z" id="20" stroke="#000000" fill="#0000F2"/><path d="M0.625228-0.207659 0.700468-0.203903 0.700468-0.0824742 0.625228-0.0837262Z" id="21" stroke="#000000" fill="#FFFFFF"/><path d="M0.00862119-0.0708583 0.106328-0.0692326 0.106328 0.0689457 0.00862119 0.0705714Z" id="22" stroke="#000000" fill="#0000F2"/><path d="M0.123183-0.0692262 0.216498-0.0676735 0.216498 0.0673995 0.123183 0.0689522Z" id="23" stroke="#000000" fill="#FFFFFF"/><path d="M0.232604-0.0676675 0.321817-0.0661831 0.321817 0.0659211 0.232604 0.0674055Z" id="24" stroke="#000000" fill="#FFFFFF"/><path d="M0.337222-0.0661774 0.422598-0.0647569 0.422598 0.0645062 0.337222 0.0659268Z" id="25" stroke="#000000" fill="#0000F2"/><path d="M0.437347-0.0647516 0.519128-0.0633909 0.519128 0.0631507 0.437347 0.0645115Z" id="26" stroke="#000000" fill="#FFFFFF"/><path d="M0.533262-0.0633859 0.611671-0.0620813 0.611671 0.0618511 0.533262 0.0631557Z" id="27" stroke="#000000" fill="#FFFFFF"/><path d="M0.625228-0.0620767 0.700468-0.0608247 0.700468 0.0606038 0.625228 0.0618557Z" id="28" stroke="#000000" fill="#FFFFFF"/><path d="M0.00862119 0.0952427 0.106328 0.093617 0.106328 0.231795 0.00862119 0.236672Z" id="29" stroke="#000000" fill="#FFFFFF"/><path d="M0.123183 0.0930626 0.216498 0.0915099 0.216498 0.226583 0.123183 0.231241Z" id="30" stroke="#000000" fill="#FFFFFF"/><path d="M0.232604 0.09098 0.321817 0.0894956 0.321817 0.2216 0.232604 0.226053Z" id="31" stroke="#000000" fill="#0000F2"/><path d="M0.337222 0.0889886 0.422598 0.087568 0.422598 0.216831 0.337222 0.221093Z" id="32" stroke="#000000" fill="#0000F2"/><path d="M0.437347 0.0870825 0.519128 0.0857218 0.519128 0.212263 0.437347 0.216346Z" id="33" stroke="#000000" fill="#0000F2"/><path d="M0.533262 0.0852563 0.611671 0.0839517 0.611671 0.207884 0.533262 0.211798Z" id="34" stroke="#000000" fill="#FFFFFF"/><path d="M0.625228 0.0835052 0.700468 0.0822533 0.700468 0.203682 0.625228 0.207438Z" id="35" stroke="#000000" fill="#FFFFFF"/><path d="M0.00862119 0.261344 0.106328 0.256467 0.106328 0.394645 0.00862119 0.402774Z" id="36" stroke="#000000" fill="#FFFFFF"/><path d="M0.123183 0.255351 0.216498 0.250693 0.216498 0.385766 0.123183 0.39353Z" id="37" stroke="#000000" fill="#FFFFFF"/><path d="M0.232604 0.249627 0.321817 0.245174 0.321817 0.377278 0.232604 0.3847Z" id="38" stroke="#000000" fill="#FFFFFF"/><path d="M0.337222 0.244155 0.422598 0.239893 0.422598 0.369156 0.337222 0.376259Z" id="39" stroke="#000000" fill="#0000F2"/><path d="M0.437347 0.238917 0.519128 0.234834 0.519128 0.361376 0.437347 0.36818Z" id="40" stroke="#000000" fill="#FFFFFF"/><path d="M0.533262 0.233899 0.611671 0.229985 0.611671 0.353917 0.533262 0.36044Z" id="41" stroke="#000000" fill="#FFFFFF"/><path d="M0.625228 0.229087 0.700468 0.225331 0.700468 0.34676 0.625228 0.353019Z" id="42" stroke="#000000" fill="#FFFFFF"/><path d="M0.00862119 0.427445 0.106328 0.419316 0.106328 0.557495 0.00862119 0.568875Z" id="43" stroke="#000000" fill="#FFFFFF"/><path d="M0.123183 0.41764 0.216498 0.409877 0.216498 0.54495 0.123183 0.555818Z" id="44" stroke="#000000" fill="#0000F2"/><path d="M0.232604 0.408275 0.321817 0.400853 0.321817 0.532957 0.232604 0.543348Z" id="45" stroke="#000000" fill="#0000F2"/><path d="M0.337222 0.399321 0.422598 0.392218 0.422598 0.521481 0.337222 0.531425Z" id="46" stroke="#000000" fill="#0000F2"/><path d="M0.437347 0.390751 0.519128 0.383947 0.519128 0.510489 0.437347 0.520014Z" id="47" stroke="#000000" fill="#0000F2"/><path d="M0.533262 0.382541 0.611671 0.376018 0.611671 0.49995 0.533262 0.509082Z" id="48" stroke="#000000" fill="#0000F2"/><path d="M0.625228 0.374669 0.700468 0.368409 0.700468 0.489838 0.625228 0.498601Z" id="49" stroke="#000000" fill="#FFFFFF"/><path d="M-0.700468-0.489838-0.625228-0.498601-0.625228-0.374669-0.700468-0.368409Z" id="50" stroke="#000000" fill="#EE0000"/><path d="M-0.611671-0.49995-0.533262-0.509082-0.533262-0.382541-0.611671-0.376018Z" id="51" stroke="#000000" fill="#EE0000"/><path d="M-0.519128-0.510489-0.437347-0.520014-0.437347-0.390751-0.519128-0.383947Z" id="52" stroke="#000000" fill="#EE0000"/><path d="M-0.422598-0.521481-0.337222-0.531425-0.337222-0.399321-0.422598-0.392218Z" id="53" stroke="#000000" fill="#EE0000"/><path d="M-0.321817-0.532957-0.232604-0.543348-0.232604-0.408275-0.321817-0.400853Z" id="54" stroke="#000000" fill="#EE0000"/><path d="M-0.216498-0.54495-0.123183-0.555818-0.123183-0.41764-0.216498-0.409877Z" id="55" stroke="#000000" fill="#EE0000"/><path d="M-0.106328-0.557495-0.00862119-0.568875-0.00862119-0.427445-0.106328-0.419316Z" id="56" stroke="#000000" fill="#EE0000"/><path d="M-0.700468-0.34676-0.625228-0.353019-0.625228-0.229087-0.700468-0.225331Z" id="57" stroke="#000000" fill="#EE0000"/><path d="M-0.611671-0.353917-0.533262-0.36044-0.533262-0.233899-0.611671-0.229985Z" id="58" stroke="#000000" fill="#EE0000"/><path d="M-0.519128-0.361376-0.437347-0.36818-0.437347-0.238917-0.519128-0.234834Z" id="59" stroke="#000000" fill="#EE0000"/><path d="M-0.422598-0.369156-0.337222-0.376259-0.337222-0.244155-0.422598-0.239893Z" id="60" stroke="#000000" fill="#EE0000"/><path d="M-0.321817-0.377278-0.232604-0.3847-0.232604-0.249627-0.321817-0.245174Z" id="61" stroke="#000000" fill="#EE0000"/><path d="M-0.216498-0.385766-0.123183-0.39353-0.123183-0.255351-0.216498-0.250693Z" id="62" stroke="#000000" fill="#EE0000"/><path d="M-0.106328-0.394645-0.00862119-0.402774-0.00862119-0.261344-0.106328-0.256467Z" id="63" stroke="#000000" fill="#EE0000"/><path d="M-0.700468-0.203682-0.625228-0.207438-0.625228-0.0835052-0.700468-0.0822533Z" id="64" stroke="#000000" fill="#EE0000"/><path d="M-0.611671-0.207884-0.533262-0.211798-0.533262-0.0852563-0.611671-0.0839517Z" id="65" stroke="#000000" fill="#EE0000"/><path d="M-0.519128-0.212263-0.437347-0.216346-0.437347-0.0870825-0.519128-0.0857218Z" id="66" stroke="#000000" fill="#EE0000"/><path d="M-0.422598-0.216831-0.337222-0.221093-0.337222-0.0889886-0.422598-0.087568Z" id="67" stroke="#000000" fill="#EE0000"/><path d="M-0.321817-0.2216-0.232604-0.226053-0.232604-0.09098-0.321817-0.0894956Z" id="68" stroke="#000000" fill="#EE0000"/><path d="M-0.216498-0.226583-0.123183-0.231241-0.123183-0.0930626-0.216498-0.0915099Z" id="69" stroke="#000000" fill="#EE0000"/><path d="M-0.106328-0.231795-0.00862119-0.236672-0.00862119-0.0952427-0.106328-0.093617Z" id="70" stroke="#000000" fill="#EE0000"/><path d="M-0.700468-0.0606038-0.625228-0.0618557-0.625228 0.0620767-0.700468 0.0608247Z" id="71" stroke="#000000" fill="#EE0000"/><path d="M-0.611671-0.0618511-0.533262-0.0631557-0.533262 0.0633859-0.611671 0.0620813Z" id="72" stroke="#000000" fill="#FEFE00"/><path d="M-0.519128-0.0631507-0.437347-0.0645115-0.437347 0.0647516-0.519128 0.0633909Z" id="73" stroke="#000000" fill="#FEFE00"/><path d="M-0.422598-0.0645062-0.337222-0.0659268-0.337222 0.0661774-0.422598 0.0647569Z" id="74" stroke="#000000" fill="#FEFE00"/><path d="M-0.321817-0.0659211-0.232604-0.0674055-0.232604 0.0676675-0.321817 0.0661831Z" id="75" stroke="#000000" fill="#FEFE00"/><path d="M-0.216498-0.0673995-0.123183-0.0689522-0.123183 0.0692262-0.216498 0.0676735Z" id="76" stroke="#000000" fill="#FEFE00"/><path d="M-0.106328-0.0689457-0.00862119-0.0705714-0.00862119 0.0708583-0.106328 0.0692326Z" id="77" stroke="#000000" fill="#EE0000"/><path d="M-0.700468 0.0824742-0.625228 0.0837262-0.625228 0.207659-0.700468 0.203903Z" id="78" stroke="#000000" fill="#EE0000"/><path d="M-0.611671 0.084182-0.533262 0.0854866-0.533262 0.212028-0.611671 0.208114Z" id="79" stroke="#000000" fill="#EE0000"/><path d="M-0.519128 0.0859619-0.437347 0.0873226-0.437347 0.216586-0.519128 0.212504Z" id="80" stroke="#000000" fill="#EE0000"/><path d="M-0.422598 0.0878187-0.337222 0.0892393-0.337222 0.221343-0.422598 0.217082Z" id="81" stroke="#000000" fill="#EE0000"/><path d="M-0.321817 0.0897575-0.232604 0.0912419-0.232604 0.226315-0.321817 0.221862Z" id="82" stroke="#000000" fill="#EE0000"/><path d="M-0.216498 0.0917839-0.123183 0.0933366-0.123183 0.231515-0.216498 0.226857Z" id="83" stroke="#000000" fill="#EE0000"/><path d="M-0.106328 0.0939039-0.00862119 0.0955296-0.00862119 0.236959-0.106328 0.232082Z" id="84" stroke="#000000" fill="#EE0000"/><path d="M-0.700468 0.225552-0.625228 0.229308-0.625228 0.35324-0.700468 0.346981Z" id="85" stroke="#000000" fill="#EE0000"/><path d="M-0.611671 0.230215-0.533262 0.234129-0.533262 0.36067-0.611671 0.354147Z" id="86" stroke="#000000" fill="#EE0000"/><path d="M-0.519128 0.235075-0.437347 0.239157-0.437347 0.36842-0.519128 0.361616Z" id="87" stroke="#000000" fill="#EE0000"/><path d="M-0.422598 0.240144-0.337222 0.244405-0.337222 0.376509-0.422598 0.369407Z" id="88" stroke="#000000" fill="#EE0000"/><path d="M-0.321817 0.245436-0.232604 0.249889-0.232604 0.384962-0.321817 0.37754Z" id="89" stroke="#000000" fill="#EE0000"/><path d="M-0.216498 0.250967-0.123183 0.255625-0.123183 0.393804-0.216498 0.38604Z" id="90" stroke="#000000" fill="#EE0000"/><path d="M-0.106328 0.256754-0.00862119 0.261631-0.00862119 0.40306-0.106328 0.394932Z" id="91" stroke="#000000" fill="#EE0000"/><path d="M-0.700468 0.36863-0.625228 0.37489-0.625228 0.498822-0.700468 0.490059Z" id="92" stroke="#000000" fill="#EE0000"/><path d="M-0.611671 0.376248-0.533262 0.382771-0.533262 0.509313-0.611671 0.50018Z" id="93" stroke="#000000" fill="#EE0000"/><path d="M-0.519128 0.384187-0.437347 0.390991-0.437347 0.520254-0.519128 0.510729Z" id="94" stroke="#000000" fill="#EE0000"/><path d="M-0.422598 0.392469-0.337222 0.399571-0.337222 0.531676-0.422598 0.521732Z" id="95" stroke="#000000" fill="#EE0000"/><path d="M-0.321817 0.401115-0.232604 0.408537-0.232604 0.54361-0.321817 0.533219Z" id="96" stroke="#000000" fill="#EE0000"/><path d="M-0.216498 0.410151-0.123183 0.417914-0.123183 0.556092-0.216498 0.545224Z" id="97" stroke="#000000" fill="#EE0000"/><path d="M-0.106328 0.419603-0.00862119 0.427732-0.00862119 0.569162-0.106328 0.557781Z" id="98" stroke="#000000" fill="#EE0000"/></g></svg>