<svg width="128" height="128" viewBox="-0.9 -0.9 1.8 1.8" xmlns="http://www.w3.org/2000/svg" xmlns:xlink="http://www.w3.org/1999/xlink" overflow="hidden"><g stroke-width="0.1" stroke-linejoin="round" opacity="1"><path d="M0.206844-0.103422 0.654001-0.50224 0.59354 0.29677 0.184643 0.78142Z" stroke="#000000" fill="#000000"/><path d="M-0.161033-0.681501 0.654001-0.50224 0.206844-0.103422-0.699152-0.349576Z" stroke="#000000" fill="#000000"/><path d="M-0.699152-0.349576 0.206844-0.103422 0.184643 0.78142-0.630493 0.484187Z" stroke="#000000" fill="#000000"/></g><g stroke-width="0" stroke-linejoin="round" stroke-opacity="0.5" opacity="1"><path d="M0.224361-0.105558 0.276349-0.151926 0.273259-0.0549538 0.221896-0.00727946Z" stroke="#000000" fill="#00D800"/><path d="M0.285296-0.160064 0.335281-0.204645 0.331616-0.108952 0.282206-0.0630916Z" stroke="#000000" fill="#00D800"/><path d="M0.343888-0.212474 0.391983-0.25537 0.387788-0.16093 0.340223-0.116781Z" stroke="#000000" fill="#00D800"/><path d="M0.40027-0.262908 0.446581-0.304212 0.441897-0.210997 0.396075-0.168467Z" stroke="#000000" fill="#00D800"/><path d="M0.454565-0.311474 0.499188-0.351274 0.494053-0.259259 0.44988-0.218259Z" stroke="#000000" fill="#00D800"/><path d="M0.506885-0.358275 0.549912-0.396651 0.544361-0.30581 0.50175-0.26626Z" stroke="#000000" fill="#00D800"/><path d="M0.557338-0.403405 0.598852-0.440432 0.592917-0.350741 0.551786-0.312565Z" stroke="#000000" fill="#00D800"/><path d="M0.606021-0.446952 0.646101-0.4827 0.639811-0.394134 0.600085-0.357261Z" stroke="#000000" fill="#00D800"/><path d="M0.653026-0.488999 0.691745-0.523533 0.685127-0.436066 0.646735-0.400432Z" stroke="#000000" fill="#00D800"/><path d="M0.221412 0.0097302 0.272776-0.0379441 0.269765 0.0565531 0.219011 0.105451Z" stroke="#000000" fill="#00D800"/><path d="M0.281618-0.0463031 0.331028-0.0921637 0.327455 0.00113279 0.278607 0.0481941Z" stroke="#000000" fill="#00D800"/><path d="M0.339539-0.10021 0.387104-0.144358 0.383011-0.0522389 0.335965-0.00691307Z" stroke="#000000" fill="#FEFE00"/><path d="M0.395301-0.152108 0.441123-0.194638 0.436552-0.103674 0.391209-0.0599889Z" stroke="#000000" fill="#FEFE00"/><path d="M0.449025-0.202108 0.493197-0.243108 0.488183-0.153275 0.444453-0.111144Z" stroke="#000000" fill="#00D800"/><path d="M0.500818-0.250313 0.543429-0.289863 0.538007-0.201139 0.495805-0.16048Z" stroke="#000000" fill="#FEFE00"/><path d="M0.550785-0.296817 0.591915-0.334993 0.586115-0.247355 0.545362-0.208093Z" stroke="#000000" fill="#FEFE00"/><path d="M0.599019-0.341709 0.638744-0.378581 0.632595-0.292008 0.593219-0.254071Z" stroke="#000000" fill="#00D800"/><path d="M0.645609-0.385071 0.684001-0.420705 0.677529-0.335175 0.639459-0.298497Z" stroke="#000000" fill="#00D800"/><path d="M0.21854 0.122025 0.269294 0.0731269 0.266359 0.165242 0.2162 0.215288Z" stroke="#000000" fill="#00D800"/><path d="M0.278034 0.0645605 0.326881 0.0174992 0.323396 0.108488 0.275099 0.156676Z" stroke="#000000" fill="#FEFE00"/><path d="M0.335298 0.00924971 0.382344-0.0360761 0.378351 0.0538056 0.331813 0.100238Z" stroke="#000000" fill="#00D800"/><path d="M0.390454-0.0440259 0.435797-0.0877106 0.431335 0.0010843 0.386462 0.0458558Z" stroke="#000000" fill="#00D800"/><path d="M0.443618-0.0953767 0.487348-0.137508 0.482452-0.0497797 0.439156-0.00658181Z" stroke="#000000" fill="#FEFE00"/><path d="M0.494895-0.144905 0.537097-0.185564 0.5318-0.0988829 0.489999-0.0571771Z" stroke="#000000" fill="#00D800"/><path d="M0.544384-0.192706 0.585136-0.231969 0.579468-0.146315 0.539086-0.106025Z" stroke="#000000" fill="#00D800"/><path d="M0.592176-0.238869 0.631553-0.276806 0.625541-0.19216 0.586507-0.153216Z" stroke="#000000" fill="#FEFE00"/><path d="M0.638358-0.283477 0.676427-0.320154 0.670097-0.236497 0.632346-0.198831Z" stroke="#000000" fill="#00D800"/><path d="M0.215741 0.231442 0.2659 0.181397 0.263037 0.27122 0.21346 0.322339Z" stroke="#000000" fill="#00D800"/><path d="M0.27454 0.172636 0.322837 0.124448 0.319437 0.213213 0.271677 0.262459Z" stroke="#000000" fill="#FEFE00"/><path d="M0.331161 0.116007 0.3777 0.0695745 0.373803 0.1573 0.327761 0.204773Z" stroke="#000000" fill="#00D800"/><path d="M0.385725 0.0614368 0.430598 0.0166652 0.426241 0.103367 0.381828 0.149162Z" stroke="#000000" fill="#00D800"/><path d="M0.43834 0.00881446 0.481636-0.0343834 0.476854 0.0513127 0.433983 0.0955164Z" stroke="#000000" fill="#00D800"/><path d="M0.48911-0.0419622 0.530911-0.083668 0.525734 0.00103973 0.484327 0.043734Z" stroke="#000000" fill="#00D800"/><path d="M0.53813-0.0909885 0.578511-0.131278 0.572969-0.0475416 0.532953-0.00628085Z" stroke="#000000" fill="#00D800"/><path d="M0.585488-0.138354 0.624522-0.177298 0.618642-0.0945154 0.579947-0.0546171Z" stroke="#000000" fill="#FEFE00"/><path d="M0.631269-0.18414 0.66902-0.221806 0.662827-0.13996 0.625389-0.101358Z" stroke="#000000" fill="#00D800"/><path d="M0.213013 0.33809 0.26259 0.286971 0.259798 0.374585 0.210789 0.42671Z" stroke="#000000" fill="#00D800"/><path d="M0.271132 0.278028 0.318892 0.228782 0.315574 0.315405 0.26834 0.365642Z" stroke="#000000" fill="#FEFE00"/><path d="M0.327126 0.220162 0.373167 0.172689 0.369362 0.258334 0.323808 0.306785Z" stroke="#000000" fill="#00D800"/><path d="M0.381108 0.164374 0.425522 0.11858 0.421266 0.203262 0.377304 0.250019Z" stroke="#000000" fill="#00D800"/><path d="M0.433187 0.110555 0.476057 0.0663512 0.471384 0.150085 0.428931 0.195237Z" stroke="#000000" fill="#00D800"/><path d="M0.483459 0.0586014 0.524865 0.0159071 0.519805 0.0987081 0.478786 0.142335Z" stroke="#000000" fill="#00D800"/><path d="M0.532018 0.00841833 0.572034-0.0328425 0.566615 0.0490406 0.526958 0.0912193Z" stroke="#000000" fill="#00D800"/><path d="M0.57895-0.0400832 0.617645-0.0799816 0.611893 0.000998637 0.573531 0.0417998Z" stroke="#000000" fill="#FEFE00"/><path d="M0.624335-0.0869864 0.661773-0.125589 0.655713-0.0454962 0.618584-0.00600622Z" stroke="#000000" fill="#00D800"/><path d="M0.210353 0.442072 0.259361 0.389948 0.256637 0.475434 0.208184 0.5285Z" stroke="#000000" fill="#00D800"/><path d="M0.267808 0.380834 0.315042 0.330596 0.311804 0.415153 0.265084 0.46632Z" stroke="#000000" fill="#00D800"/><path d="M0.323187 0.321808 0.368742 0.273357 0.365026 0.356995 0.319949 0.406364Z" stroke="#000000" fill="#FEFE00"/><path d="M0.376601 0.264876 0.420564 0.218119 0.416406 0.300851 0.372886 0.348514Z" stroke="#000000" fill="#00D800"/><path d="M0.428153 0.20993 0.470605 0.164778 0.466038 0.246617 0.423995 0.292662Z" stroke="#000000" fill="#00D800"/><path d="M0.477937 0.156867 0.518956 0.11324 0.514009 0.194198 0.47337 0.238706Z" stroke="#000000" fill="#00D800"/><path d="M0.526044 0.105592 0.565701 0.0634133 0.560401 0.143504 0.521096 0.18655Z" stroke="#000000" fill="#FEFE00"/><path d="M0.572556 0.0560162 0.610918 0.015215 0.60529 0.094451 0.567256 0.136107Z" stroke="#000000" fill="#00D800"/><path d="M0.617553 0.00805629 0.654682-0.0314337 0.64875 0.0469611 0.611925 0.0872922Z" stroke="#000000" fill="#00D800"/><path d="M0.207758 0.543488 0.256211 0.490422 0.253553 0.573858 0.205643 0.627805Z" stroke="#000000" fill="#00D800"/><path d="M0.264564 0.481148 0.311284 0.429981 0.308122 0.512545 0.261906 0.564584Z" stroke="#000000" fill="#00D800"/><path d="M0.319343 0.421034 0.36442 0.371665 0.360791 0.453366 0.31618 0.503598Z" stroke="#000000" fill="#00D800"/><path d="M0.3722 0.363028 0.41572 0.315364 0.411657 0.396213 0.36857 0.444729Z" stroke="#000000" fill="#FEFE00"/><path d="M0.423234 0.307022 0.465277 0.260976 0.460812 0.340983 0.419171 0.38787Z" stroke="#000000" fill="#00D800"/><path d="M0.47254 0.252913 0.513179 0.208405 0.50834 0.287581 0.468074 0.33292Z" stroke="#000000" fill="#FEFE00"/><path d="M0.520202 0.200607 0.559506 0.157561 0.554321 0.235917 0.515363 0.279783Z" stroke="#000000" fill="#00D800"/><path d="M0.566302 0.150016 0.604337 0.10836 0.598829 0.185908 0.561116 0.228372Z" stroke="#000000" fill="#00D800"/><path d="M0.610915 0.101056 0.647741 0.0607246 0.641933 0.137475 0.605407 0.178603Z" stroke="#000000" fill="#00D800"/><path d="M0.205227 0.642432 0.253137 0.588485 0.250541 0.669942 0.203163 0.724713Z" stroke="#000000" fill="#00D800"/><path d="M0.261399 0.579061 0.307615 0.527022 0.304526 0.607662 0.258803 0.660519Z" stroke="#000000" fill="#00D800"/><path d="M0.315588 0.517927 0.360199 0.467695 0.356653 0.547526 0.3125 0.598567Z" stroke="#000000" fill="#00D800"/><path d="M0.367899 0.458911 0.410987 0.410395 0.407015 0.489424 0.364353 0.538742Z" stroke="#000000" fill="#00D800"/><path d="M0.418428 0.401907 0.460068 0.35502 0.455702 0.433256 0.414456 0.480936Z" stroke="#000000" fill="#FEFE00"/><path d="M0.467263 0.346813 0.507528 0.301474 0.502795 0.378926 0.462897 0.425049Z" stroke="#000000" fill="#00D800"/><path d="M0.514488 0.293535 0.553446 0.249668 0.548371 0.326346 0.509755 0.370986Z" stroke="#000000" fill="#00D800"/><path d="M0.560183 0.241984 0.597895 0.19952 0.592503 0.275432 0.555108 0.318661Z" stroke="#000000" fill="#00D800"/><path d="M0.60442 0.192077 0.640945 0.150949 0.635258 0.226106 0.599028 0.267989Z" stroke="#000000" fill="#00D800"/><path d="M0.202757 0.738992 0.250135 0.684222 0.247601 0.76377 0.200741 0.81931Z" stroke="#000000" fill="#00D800"/><path d="M0.258308 0.674657 0.304031 0.621801 0.301013 0.700584 0.255773 0.754206Z" stroke="#000000" fill="#00D800"/><path d="M0.311921 0.612567 0.356074 0.561525 0.352608 0.639549 0.308904 0.69135Z" stroke="#000000" fill="#00D800"/><path d="M0.363698 0.552604 0.40636 0.503286 0.402477 0.580556 0.360232 0.630627Z" stroke="#000000" fill="#00D800"/><path d="M0.413729 0.494661 0.454975 0.446981 0.450704 0.523504 0.409846 0.571931Z" stroke="#000000" fill="#00D800"/><path d="M0.462103 0.438639 0.502001 0.392516 0.49737 0.468299 0.457832 0.515162Z" stroke="#000000" fill="#00D800"/><path d="M0.508899 0.384443 0.547515 0.339802 0.542548 0.414854 0.504268 0.460226Z" stroke="#000000" fill="#00D800"/><path d="M0.554195 0.331985 0.59159 0.288756 0.58631 0.363084 0.549228 0.407037Z" stroke="#000000" fill="#00D800"/><path d="M0.59806 0.281183 0.634291 0.2393 0.628721 0.312913 0.592781 0.355511Z" stroke="#000000" fill="#00D800"/><path d="M-0.168709-0.72091-0.0927744-0.704209-0.139207-0.674552-0.21592-0.691789Z" stroke="#000000" fill="#EE0000"/><path d="M-0.0791794-0.701186-0.00185198-0.684178-0.0474692-0.65397-0.125612-0.671529Z" stroke="#000000" fill="#EE0000"/><path d="M0.0119957-0.681099 0.0907548-0.663777 0.0459918-0.633002-0.0336215-0.650891Z" stroke="#000000" fill="#EE0000"/><path d="M0.104862-0.66064 0.185093-0.642994 0.141225-0.611636 0.0600993-0.629865Z" stroke="#000000" fill="#EE0000"/><path d="M0.199468-0.639797 0.281212-0.621818 0.238281-0.589862 0.1556-0.60844Z" stroke="#000000" fill="#EE0000"/><path d="M0.295862-0.618561 0.379163-0.600239 0.337213-0.567666 0.25293-0.586604Z" stroke="#000000" fill="#EE0000"/><path d="M0.394095-0.596919 0.478998-0.578245 0.438075-0.545038 0.352145-0.564346Z" stroke="#000000" fill="#EE0000"/><path d="M0.494221-0.57486 0.580772-0.555824 0.540926-0.521963 0.453299-0.541652Z" stroke="#000000" fill="#EE0000"/><path d="M0.596295-0.552372 0.684543-0.532963 0.645823-0.498429 0.556448-0.518511Z" stroke="#000000" fill="#EE0000"/><path d="M-0.224316-0.686518-0.147603-0.66928-0.195546-0.638659-0.273048-0.656459Z" stroke="#000000" fill="#EE0000"/><path d="M-0.133866-0.666159-0.0557234-0.6486-0.102838-0.617401-0.181809-0.635538Z" stroke="#000000" fill="#EE0000"/><path d="M-0.0417271-0.64542 0.0378862-0.627531-0.00835981-0.595737-0.0888414-0.614221Z" stroke="#000000" fill="#0000F2"/><path d="M0.0521494-0.62429 0.133275-0.606062 0.0879393-0.573655 0.00590336-0.592496Z" stroke="#000000" fill="#0000F2"/><path d="M0.147813-0.602758 0.230494-0.58418 0.186113-0.551144 0.102477-0.570352Z" stroke="#000000" fill="#EE0000"/><path d="M0.245315-0.580812 0.329597-0.561874 0.286216-0.52819 0.200933-0.547777Z" stroke="#000000" fill="#0000F2"/><path d="M0.344708-0.558441 0.430639-0.539132 0.388306-0.504781 0.301327-0.524757Z" stroke="#000000" fill="#0000F2"/><path d="M0.446049-0.535631 0.533677-0.515941 0.492444-0.480902 0.403717-0.501279Z" stroke="#000000" fill="#EE0000"/><path d="M0.549396-0.512369 0.638771-0.492287 0.59869-0.456539 0.508163-0.47733Z" stroke="#000000" fill="#EE0000"/><path d="M-0.281718-0.651015-0.204215-0.633216-0.253742-0.601582-0.332045-0.619972Z" stroke="#000000" fill="#EE0000"/><path d="M-0.190335-0.629991-0.111364-0.611854-0.16005-0.579614-0.239861-0.598358Z" stroke="#000000" fill="#0000F2"/><path d="M-0.0972165-0.608568-0.016735-0.590084-0.064539-0.557219-0.145903-0.576327Z" stroke="#000000" fill="#EE0000"/><path d="M-0.00231348-0.586734 0.0797224-0.567893 0.0328444-0.534385-0.0501175-0.553869Z" stroke="#000000" fill="#EE0000"/><path d="M0.0944263-0.564478 0.178062-0.54527 0.132156-0.511099 0.0475482-0.530969Z" stroke="#000000" fill="#0000F2"/><path d="M0.193057-0.541786 0.278339-0.5222 0.233453-0.487347 0.14715-0.507615Z" stroke="#000000" fill="#EE0000"/><path d="M0.293633-0.518647 0.380612-0.498671 0.336796-0.463115 0.248747-0.483794Z" stroke="#000000" fill="#EE0000"/><path d="M0.396215-0.495047 0.484941-0.474669 0.442248-0.438389 0.352399-0.459491Z" stroke="#000000" fill="#0000F2"/><path d="M0.500862-0.470971 0.591389-0.45018 0.549874-0.413153 0.458169-0.434691Z" stroke="#000000" fill="#EE0000"/><path d="M-0.341003-0.614348-0.2627-0.595958-0.31389-0.563262-0.393005-0.582272Z" stroke="#000000" fill="#EE0000"/><path d="M-0.248673-0.592625-0.168862-0.573881-0.2192-0.540547-0.299864-0.559929Z" stroke="#000000" fill="#0000F2"/><path d="M-0.154561-0.570483-0.0731974-0.551375-0.12264-0.517383-0.204899-0.537149Z" stroke="#000000" fill="#EE0000"/><path d="M-0.058615-0.54791 0.0243469-0.528426-0.0241536-0.493758-0.108057-0.513918Z" stroke="#000000" fill="#EE0000"/><path d="M0.0392197-0.524892 0.123827-0.505021 0.0763162-0.469656-0.00928074-0.490224Z" stroke="#000000" fill="#EE0000"/><path d="M0.138999-0.501416 0.225302-0.481148 0.17883-0.445064 0.0914883-0.466051Z" stroke="#000000" fill="#EE0000"/><path d="M0.240782-0.47747 0.328832-0.456791 0.283452-0.419966 0.194311-0.441386Z" stroke="#000000" fill="#EE0000"/><path d="M0.34463-0.453037 0.434479-0.431935 0.390247-0.394347 0.29925-0.416212Z" stroke="#000000" fill="#0000F2"/><path d="M0.450605-0.428104 0.54231-0.406566 0.499283-0.368191 0.406373-0.390516Z" stroke="#000000" fill="#EE0000"/><path d="M-0.402264-0.576458-0.32315-0.557448-0.37609-0.523635-0.456026-0.543297Z" stroke="#000000" fill="#EE0000"/><path d="M-0.308976-0.554001-0.228312-0.534619-0.280387-0.500134-0.361916-0.520188Z" stroke="#000000" fill="#0000F2"/><path d="M-0.213856-0.531104-0.131596-0.511338-0.182762-0.476161-0.265931-0.496619Z" stroke="#000000" fill="#EE0000"/><path d="M-0.11685-0.507752-0.0329463-0.487592-0.0831549-0.451702-0.168016-0.472576Z" stroke="#000000" fill="#EE0000"/><path d="M-0.0179015-0.483933 0.0676955-0.463365 0.018494-0.426742-0.0681101-0.448044Z" stroke="#000000" fill="#EE0000"/><path d="M0.0830483-0.459632 0.17039-0.438645 0.122248-0.401264 0.0338468-0.423008Z" stroke="#000000" fill="#EE0000"/><path d="M0.186061-0.434834 0.275202-0.413415 0.228174-0.375253 0.137919-0.397453Z" stroke="#000000" fill="#EE0000"/><path d="M0.2912-0.409525 0.382197-0.38766 0.336341-0.348692 0.244172-0.371363Z" stroke="#000000" fill="#0000F2"/><path d="M0.398533-0.383687 0.491443-0.361362 0.44682-0.321563 0.352677-0.344719Z" stroke="#000000" fill="#EE0000"/><path d="M-0.465603-0.537283-0.385668-0.517621-0.440449-0.482632-0.521216-0.50298Z" stroke="#000000" fill="#EE0000"/><path d="M-0.371343-0.514055-0.289815-0.494001-0.34372-0.458305-0.426125-0.479065Z" stroke="#000000" fill="#EE0000"/><path d="M-0.275201-0.490362-0.192031-0.469905-0.245013-0.43348-0.329106-0.454666Z" stroke="#000000" fill="#0000F2"/><path d="M-0.177119-0.466192-0.0922585-0.445318-0.144267-0.408142-0.230101-0.429767Z" stroke="#000000" fill="#EE0000"/><path d="M-0.0770388-0.441528 0.00956521-0.420226-0.0414186-0.382276-0.129047-0.404353Z" stroke="#000000" fill="#EE0000"/><path d="M0.0251021-0.416358 0.113504-0.394613 0.0635991-0.355864-0.0258817-0.378407Z" stroke="#000000" fill="#EE0000"/><path d="M0.129368-0.390663 0.219623-0.368463 0.170856-0.328889 0.0794633-0.351914Z" stroke="#000000" fill="#0000F2"/><path d="M0.235825-0.364428 0.327994-0.341758 0.280423-0.301332 0.187057-0.324854Z" stroke="#000000" fill="#EE0000"/><path d="M0.344544-0.337637 0.438687-0.31448 0.392377-0.273176 0.296973-0.297211Z" stroke="#000000" fill="#EE0000"/><path d="M-0.531128-0.496757-0.45036-0.476409-0.50708-0.440181-0.588688-0.461252Z" stroke="#000000" fill="#EE0000"/><path d="M-0.435884-0.472716-0.35348-0.451955-0.409311-0.414983-0.492604-0.436488Z" stroke="#000000" fill="#EE0000"/><path d="M-0.338706-0.448186-0.254613-0.427-0.309508-0.38926-0.394538-0.411214Z" stroke="#000000" fill="#EE0000"/><path d="M-0.239532-0.423153-0.153698-0.401528-0.207605-0.362995-0.294427-0.385412Z" stroke="#000000" fill="#0000F2"/><path d="M-0.138301-0.3976-0.0506721-0.375524-0.103537-0.336173-0.192208-0.359067Z" stroke="#000000" fill="#EE0000"/><path d="M-0.0349478-0.371512 0.054533-0.348969 0.00276758-0.308774-0.0878126-0.332161Z" stroke="#000000" fill="#0000F2"/><path d="M0.0705947-0.344871 0.161987-0.321846 0.111381-0.28078 0.0188292-0.304677Z" stroke="#000000" fill="#EE0000"/><path d="M0.178397-0.31766 0.271762-0.294138 0.222379-0.252172 0.127791-0.276594Z" stroke="#000000" fill="#EE0000"/><path d="M0.288532-0.289859 0.383936-0.265824 0.335841-0.222928 0.239148-0.247894Z" stroke="#000000" fill="#EE0000"/><path d="M-0.598952-0.454808-0.517344-0.433737-0.576106-0.396204-0.658565-0.418037Z" stroke="#000000" fill="#EE0000"/><path d="M-0.502714-0.429911-0.419422-0.408405-0.477286-0.370087-0.561477-0.392378Z" stroke="#000000" fill="#EE0000"/><path d="M-0.404486-0.404499-0.319456-0.382545-0.376371-0.343416-0.46235-0.366181Z" stroke="#000000" fill="#EE0000"/><path d="M-0.304204-0.378556-0.217383-0.356139-0.273294-0.316173-0.361119-0.339427Z" stroke="#000000" fill="#EE0000"/><path d="M-0.201804-0.352065-0.113133-0.32917-0.167985-0.288341-0.257716-0.312099Z" stroke="#000000" fill="#0000F2"/><path d="M-0.0972182-0.325008-0.00663806-0.301621-0.0603705-0.259899-0.15207-0.284178Z" stroke="#000000" fill="#EE0000"/><path d="M0.0096249-0.297367 0.102176-0.273471 0.0496259-0.230827-0.0441075-0.255645Z" stroke="#000000" fill="#EE0000"/><path d="M0.118799-0.269124 0.213387-0.244702 0.162084-0.201105 0.0662483-0.22648Z" stroke="#000000" fill="#EE0000"/><path d="M0.230381-0.240257 0.327073-0.215292 0.277088-0.17071 0.179078-0.196661Z" stroke="#000000" fill="#EE0000"/><path d="M-0.6692-0.411359-0.586741-0.389527-0.64766-0.350618-0.730976-0.373254Z" stroke="#000000" fill="#EE0000"/><path d="M-0.571957-0.38556-0.487766-0.363269-0.547775-0.32353-0.632875-0.346651Z" stroke="#000000" fill="#EE0000"/><path d="M-0.472666-0.359218-0.386687-0.336453-0.445734-0.295857-0.532676-0.319479Z" stroke="#000000" fill="#EE0000"/><path d="M-0.371261-0.332314-0.283436-0.309061-0.341466-0.267581-0.430309-0.291719Z" stroke="#000000" fill="#EE0000"/><path d="M-0.267674-0.304832-0.177944-0.281074-0.234896-0.23868-0.325704-0.263352Z" stroke="#000000" fill="#EE0000"/><path d="M-0.161834-0.276752-0.0701351-0.252472-0.125949-0.209134-0.218787-0.234358Z" stroke="#000000" fill="#EE0000"/><path d="M-0.0536671-0.248054 0.0400664-0.223236-0.0145427-0.178922-0.109481-0.204716Z" stroke="#000000" fill="#EE0000"/><path d="M0.0569055-0.218718 0.152741-0.193344 0.0994063-0.14802 0.00229646-0.174404Z" stroke="#000000" fill="#EE0000"/><path d="M0.169964-0.188723 0.267974-0.162772 0.215986-0.116404 0.116629-0.143399Z" stroke="#000000" fill="#EE0000"/><path d="M-0.735842-0.361733-0.652526-0.339096-0.645895-0.246627-0.728284-0.269951Z" stroke="#000000" fill="#FFFFFF"/><path d="M-0.637751-0.334997-0.552651-0.311876-0.546989-0.218712-0.63112-0.242528Z" stroke="#000000" fill="#FFFFFF"/><path d="M-0.53756-0.30769-0.450619-0.284068-0.445969-0.1902-0.531898-0.214526Z" stroke="#000000" fill="#FFFFFF"/><path d="M-0.435202-0.279791-0.346359-0.255653-0.342767-0.161072-0.430552-0.185923Z" stroke="#000000" fill="#FFFFFF"/><path d="M-0.330605-0.251283-0.239797-0.226611-0.237311-0.131308-0.327013-0.156702Z" stroke="#000000" fill="#FFFFFF"/><path d="M-0.223695-0.222144-0.130857-0.19692-0.129526-0.100887-0.221209-0.126841Z" stroke="#000000" fill="#FFFFFF"/><path d="M-0.114395-0.192353-0.0194567-0.166559-0.0193352-0.0697865-0.113065-0.0963201Z" stroke="#000000" fill="#FFFFFF"/><path d="M-0.00262282-0.161889 0.094487-0.135505 0.0933441-0.0379838-0.00250132-0.0651164Z" stroke="#000000" fill="#FFFFFF"/><path d="M0.111706-0.130728 0.211063-0.103734 0.208597-0.00545479 0.110563-0.033207Z" stroke="#000000" fill="#FFFFFF"/><path d="M-0.727046-0.253888-0.644657-0.230565-0.638184-0.140303-0.719666-0.164274Z" stroke="#000000" fill="#FFFFFF"/><path d="M-0.630048-0.226347-0.545916-0.202531-0.540391-0.111614-0.623575-0.136086Z" stroke="#000000" fill="#FFFFFF"/><path d="M-0.530998-0.198225-0.445069-0.173899-0.440533-0.0823188-0.525473-0.107307Z" stroke="#000000" fill="#EE0000"/><path d="M-0.429833-0.169501-0.342048-0.14465-0.338544-0.0523988-0.425297-0.0779205Z" stroke="#000000" fill="#EE0000"/><path d="M-0.326482-0.140157-0.23678-0.114763-0.234356-0.0218334-0.322979-0.0479056Z" stroke="#000000" fill="#FFFFFF"/><path d="M-0.220875-0.110172-0.129193-0.0842176-0.127896 0.00939831-0.218451-0.0172422Z" stroke="#000000" fill="#EE0000"/><path d="M-0.112937-0.0795251-0.0192073-0.0529915-0.0190889 0.0413185-0.11164 0.0140908Z" stroke="#000000" fill="#EE0000"/><path d="M-0.00258885-0.0481943 0.0932566-0.0210616 0.0921431 0.0739501-0.00247044 0.0461157Z" stroke="#000000" fill="#FFFFFF"/><path d="M0.11025-0.0161562 0.208284 0.011596 0.205882 0.107317 0.109136 0.0788555Z" stroke="#000000" fill="#FFFFFF"/><path d="M-0.718458-0.148591-0.636976-0.124619-0.630656-0.0364872-0.71125-0.0610697Z" stroke="#000000" fill="#FFFFFF"/><path d="M-0.622528-0.120291-0.539344-0.0958186-0.53395-0.00706831-0.616208-0.0321582Z" stroke="#000000" fill="#EE0000"/><path d="M-0.524595-0.0913993-0.439655-0.0664107-0.435228 0.0229642-0.519201-0.00264903Z" stroke="#000000" fill="#FFFFFF"/><path d="M-0.424595-0.0618982-0.337842-0.0363764-0.334424 0.0536297-0.420168 0.0274767Z" stroke="#000000" fill="#FFFFFF"/><path d="M-0.322461-0.0317677-0.233838-0.00569563-0.231473 0.0849484-0.319043 0.0582383Z" stroke="#000000" fill="#EE0000"/><path d="M-0.218125-0.000987637-0.12757 0.0256529-0.126306 0.116942-0.215761 0.0896564Z" stroke="#000000" fill="#FFFFFF"/><path d="M-0.111515 0.0304634-0.0189643 0.0576911-0.0188489 0.149631-0.110251 0.121752Z" stroke="#000000" fill="#FFFFFF"/><path d="M-0.00255574 0.0626075 0.0920578 0.090442 0.0909726 0.18304-0.00244031 0.154547Z" stroke="#000000" fill="#EE0000"/><path d="M0.108832 0.095468 0.205578 0.12393 0.203238 0.217192 0.107747 0.188066Z" stroke="#000000" fill="#FFFFFF"/><path d="M-0.71007-0.0457522-0.629475-0.0211696-0.623303 0.0649079-0.703029 0.0397487Z" stroke="#000000" fill="#FFFFFF"/><path d="M-0.615186-0.0167354-0.532928 0.00835454-0.527662 0.0950145-0.609014 0.0693421Z" stroke="#000000" fill="#EE0000"/><path d="M-0.518344 0.0128802-0.434371 0.0384934-0.430049 0.125742-0.513077 0.0995402Z" stroke="#000000" fill="#FFFFFF"/><path d="M-0.419483 0.0431134-0.333739 0.0692664-0.330403 0.157108-0.415161 0.130362Z" stroke="#000000" fill="#FFFFFF"/><path d="M-0.318538 0.0739837-0.230968 0.100694-0.228661 0.189136-0.315202 0.161826Z" stroke="#000000" fill="#FFFFFF"/><path d="M-0.215443 0.105512-0.125988 0.132797-0.124755 0.221844-0.213136 0.193953Z" stroke="#000000" fill="#FFFFFF"/><path d="M-0.110129 0.137718-0.0187274 0.165597-0.0186148 0.255255-0.108896 0.226765Z" stroke="#000000" fill="#FFFFFF"/><path d="M-0.00252347 0.170625 0.0908894 0.199118 0.0898314 0.289392-0.0024109 0.260283Z" stroke="#000000" fill="#EE0000"/><path d="M0.10745 0.204256 0.202941 0.233383 0.20066 0.324279 0.106392 0.294531Z" stroke="#000000" fill="#FFFFFF"/><path d="M-0.701876 0.054713-0.62215 0.0798721-0.61612 0.163966-0.694996 0.138263Z" stroke="#000000" fill="#FFFFFF"/><path d="M-0.608015 0.0844057-0.526663 0.110078-0.521519 0.194721-0.601985 0.168499Z" stroke="#000000" fill="#EE0000"/><path d="M-0.51224 0.114704-0.429212 0.140905-0.424992 0.226102-0.507096 0.199347Z" stroke="#000000" fill="#FFFFFF"/><path d="M-0.414492 0.145627-0.329735 0.172373-0.326478 0.258129-0.410272 0.230823Z" stroke="#000000" fill="#FFFFFF"/><path d="M-0.314709 0.177193-0.228168 0.204503-0.225916 0.290821-0.311452 0.262948Z" stroke="#000000" fill="#FFFFFF"/><path d="M-0.212826 0.209423-0.124445 0.237314-0.123241 0.324201-0.210574 0.295742Z" stroke="#000000" fill="#FFFFFF"/><path d="M-0.108777 0.242339-0.0184963 0.270829-0.0183864 0.358289-0.107573 0.329226Z" stroke="#000000" fill="#FFFFFF"/><path d="M-0.00249201 0.275962 0.0897503 0.305071 0.0887185 0.393109-0.00238219 0.363423Z" stroke="#000000" fill="#EE0000"/><path d="M0.106102 0.310316 0.20037 0.340064 0.198147 0.428684 0.10507 0.398354Z" stroke="#000000" fill="#FFFFFF"/><path d="M-0.693869 0.152886-0.614993 0.178589-0.6091 0.260767-0.687144 0.234551Z" stroke="#000000" fill="#FFFFFF"/><path d="M-0.60101 0.183216-0.520544 0.209437-0.515518 0.292132-0.595117 0.265394Z" stroke="#000000" fill="#FFFFFF"/><path d="M-0.506279 0.214158-0.424174 0.240913-0.420052 0.324129-0.501253 0.296852Z" stroke="#000000" fill="#EE0000"/><path d="M-0.409619 0.245729-0.325825 0.273035-0.322645 0.356777-0.405497 0.328945Z" stroke="#000000" fill="#FFFFFF"/><path d="M-0.310971 0.27795-0.225435 0.305824-0.223236 0.390095-0.30779 0.361692Z" stroke="#000000" fill="#FFFFFF"/><path d="M-0.210272 0.310841-0.122939 0.3393-0.121764 0.424105-0.208073 0.395112Z" stroke="#000000" fill="#FFFFFF"/><path d="M-0.107458 0.344423-0.0182708 0.373486-0.0181636 0.458828-0.106283 0.429228Z" stroke="#000000" fill="#EE0000"/><path d="M-0.00246132 0.378718 0.0886394 0.408404 0.0876329 0.494287-0.00235416 0.46406Z" stroke="#000000" fill="#FFFFFF"/><path d="M0.104788 0.413748 0.197865 0.444079 0.195696 0.530507 0.103781 0.499631Z" stroke="#000000" fill="#FFFFFF"/><path d="M-0.686042 0.248844-0.607998 0.27506-0.602238 0.355386-0.679467 0.328687Z" stroke="#000000" fill="#FFFFFF"/><path d="M-0.594164 0.279775-0.514565 0.306514-0.509653 0.387327-0.588404 0.360102Z" stroke="#000000" fill="#FFFFFF"/><path d="M-0.500454 0.311323-0.419253 0.3386-0.415226 0.419904-0.495543 0.392137Z" stroke="#000000" fill="#FFFFFF"/><path d="M-0.404859 0.343506-0.322007 0.371337-0.3189 0.453135-0.400832 0.42481Z" stroke="#000000" fill="#EE0000"/><path d="M-0.30732 0.376342-0.222766 0.404745-0.220619 0.487041-0.304214 0.458141Z" stroke="#000000" fill="#FFFFFF"/><path d="M-0.207778 0.409854-0.121469 0.438846-0.120322 0.521642-0.205631 0.492149Z" stroke="#000000" fill="#EE0000"/><path d="M-0.10617 0.444061-0.0180508 0.473661-0.0179462 0.556961-0.105023 0.526857Z" stroke="#000000" fill="#FFFFFF"/><path d="M-0.00243137 0.478985 0.0875557 0.509212 0.0865735 0.593019-0.00232678 0.562285Z" stroke="#000000" fill="#FFFFFF"/><path d="M0.103506 0.514649 0.195421 0.545524 0.193305 0.62984 0.102524 0.598456Z" stroke="#000000" fill="#FFFFFF"/><path d="M-0.67839 0.342662-0.601161 0.369361-0.59553 0.447898-0.67196 0.420743Z" stroke="#000000" fill="#FFFFFF"/><path d="M-0.587472 0.37416-0.508721 0.401385-0.503921 0.480381-0.58184 0.452697Z" stroke="#000000" fill="#FFFFFF"/><path d="M-0.494762 0.406278-0.414445 0.434045-0.410509 0.513503-0.489962 0.485274Z" stroke="#000000" fill="#FFFFFF"/><path d="M-0.400209 0.439036-0.318277 0.467361-0.315242 0.547283-0.396273 0.518493Z" stroke="#000000" fill="#FFFFFF"/><path d="M-0.303755 0.472451-0.22016 0.501352-0.218063 0.581741-0.300719 0.552373Z" stroke="#000000" fill="#EE0000"/><path d="M-0.205343 0.506545-0.120034 0.536038-0.118914 0.616897-0.203246 0.586934Z" stroke="#000000" fill="#FFFFFF"/><path d="M-0.104913 0.541339-0.017836 0.571443-0.0177338 0.652773-0.103793 0.622197Z" stroke="#000000" fill="#FFFFFF"/><path d="M-0.00240215 0.576853 0.0864981 0.607587 0.0855394 0.689392-0.00230003 0.658183Z" stroke="#000000" fill="#FFFFFF"/><path d="M0.102255 0.61311 0.193036 0.644495 0.190972 0.726776 0.101296 0.694915Z" stroke="#000000" fill="#FFFFFF"/><path d="M-0.670907 0.43441-0.594476 0.461565-0.588969 0.538372-0.664617 0.510787Z" stroke="#000000" fill="#FFFFFF"/><path d="M-0.580929 0.466442-0.503009 0.494126-0.498315 0.571365-0.575421 0.543249Z" stroke="#000000" fill="#FFFFFF"/><path d="M-0.489198 0.499098-0.409746 0.527327-0.405899 0.604999-0.484504 0.576336Z" stroke="#000000" fill="#FFFFFF"/><path d="M-0.395664 0.532396-0.314633 0.561186-0.311667 0.639295-0.391816 0.610069Z" stroke="#000000" fill="#FFFFFF"/><path d="M-0.300271 0.566356-0.217614 0.595723-0.215565 0.674271-0.297304 0.644465Z" stroke="#000000" fill="#FFFFFF"/><path d="M-0.202964 0.600997-0.118632 0.63096-0.117538 0.709947-0.200915 0.679545Z" stroke="#000000" fill="#FFFFFF"/><path d="M-0.103685 0.63634-0.0176262 0.666916-0.0175265 0.746346-0.102591 0.715328Z" stroke="#000000" fill="#FFFFFF"/><path d="M-0.00237362 0.672407 0.0854658 0.703616 0.0845298 0.783489-0.00227389 0.751837Z" stroke="#000000" fill="#FFFFFF"/><path d="M0.101034 0.70922 0.19071 0.741081 0.188694 0.8214 0.100098 0.789093Z" stroke="#000000" fill="#FFFFFF"/></g></svg>