<svg version="1.1" viewBox="0 0 228.53 229.08" xmlns="http://www.w3.org/2000/svg" xmlns:xlink="http://www.w3.org/1999/xlink" overflow="hidden"><defs></defs><g id="a08bb322-b2cc-4d35-b7a4-bb2d5312e8cb"><g id="aea5469c-2f45-40b7-aa5a-3c50c9dc9eeb"><path d=" M 61.61 97.96 L 109.19 63.4 L 156.76 97.94 L 138.58 153.84 L 79.77 153.85 L 61.61 97.96 Z" fill="#808080"/><path d=" M 61.61 97.96 L 79.77 153.85 L 138.58 153.84 L 156.76 97.94 L 109.19 63.4 L 61.61 97.96 Z" stroke="#040000" stroke-miterlimit="10" fill="none"/><path d=" M 158.65 97.33 C 158.781 97.7329 158.781 98.1671 158.65 98.57 L 140.48 154.47 C 140.208 155.289 139.442 155.841 138.58 155.84 L 79.78 155.84 C 78.9175 155.841 78.1517 155.289 77.88 154.47 L 59.71 98.56 C 59.4459 97.737 59.7404 96.8375 60.44 96.33 L 108 61.78 C 108.699 61.2761 109.641 61.2761 110.34 61.78 L 157.91 96.34 C 158.262 96.5766 158.523 96.9257 158.65 97.33 Z M 137.13 151.86 L 154.41 98.71 L 109.19 65.86 L 64 98.7 L 81.28 151.87 Z" stroke="#040000" stroke-miterlimit="10" fill="#211613"/><path d=" M 66.34 4.29 L 66.22 32.1 L 45.05 47.48 L 18.58 38.99 L 66.34 4.29 Z" stroke="#040000" stroke-miterlimit="10" fill="#808080" fill-rule="evenodd"/><path d=" M 68.24 3.68 C 68.3048 3.88009 68.3353 4.08973 68.33 4.3 L 68.22 32.11 C 68.213 32.7448 67.9049 33.3386 67.39 33.71 L 46.22 49.1 C 45.7064 49.4739 45.0457 49.5815 44.44 49.39 L 18 40.89 C 16.9509 40.5443 16.3807 39.4136 16.7264 38.3645 C 16.8563 37.9703 17.1057 37.6262 17.44 37.38 L 64.69 3 C 64.9362 2.6577 65.2873 2.40495 65.69 2.28 C 66.742 1.9466 67.8653 2.52837 68.2 3.58 C 68.2079 3.61525 68.2214 3.649 68.24 3.68 Z M 64.24 31.09 L 64.33 8.22 L 22.93 38.3 L 44.69 45.3 Z" stroke="#040000" stroke-miterlimit="10" fill="#060001"/><path d=" M 156.75 97.95 L 172.4 49.8 L 150.13 33.64 L 109.19 63.39 L 156.75 97.95 Z" stroke="#040000" stroke-miterlimit="10" fill="#1B1B1B" fill-rule="evenodd"/><path d=" M 150.13 33.64 L 107.28 2.5 L 66.34 32.25 L 109.19 63.39 L 150.13 33.64 Z" stroke="#040000" stroke-miterlimit="10" fill="#808080" fill-rule="evenodd"/><path d=" M 152 33 C 152.069 33.1994 152.103 33.4091 152.1 33.62 C 152.098 34.2566 151.794 34.8544 151.28 35.23 L 110.36 65 C 109.657 65.5136 108.703 65.5136 108 65 L 65.16 33.86 C 64.6368 33.4923 64.3297 32.8894 64.34 32.25 C 64.3439 31.6116 64.6522 31.0134 65.17 30.64 L 106.1 0.88 C 106.801 0.371264 107.749 0.371264 108.45 0.88 L 151.3 32 C 151.635 32.2488 151.881 32.5997 152 33 Z M 109.19 60.93 L 146.73 33.63 L 107.27 5 L 69.73 32.26 Z" stroke="#040000" stroke-miterlimit="10" fill="#060001"/><path d=" M 172.4 49.8 L 156.75 97.95 L 199.58 129.06 L 215.21 80.91 L 172.4 49.8 Z" stroke="#040000" stroke-miterlimit="10" fill="#808080" fill-rule="evenodd"/><path d=" M 217.11 80.3 C 217.235 80.7004 217.235 81.1296 217.11 81.53 L 201.47 129.67 C 201.272 130.276 200.796 130.752 200.19 130.95 C 199.583 131.148 198.918 131.044 198.4 130.67 L 155.58 99.56 C 154.884 99.0498 154.594 98.1508 154.86 97.33 L 170.5 49.19 C 170.844 48.1403 171.973 47.5681 173.023 47.9119 C 173.219 47.9759 173.403 48.0697 173.57 48.19 L 216.38 79.3 C 216.723 79.5477 216.979 79.8979 217.11 80.3 Z M 198.53 125.82 L 212.86 81.68 L 173.45 53 L 159.1 97.19 Z" stroke="#040000" stroke-miterlimit="10" fill="#060001"/><path d=" M 138.58 153.85 L 191.52 153.86 L 199.58 129.06 L 156.75 97.95 L 138.58 153.85 Z" stroke="#040000" stroke-miterlimit="10" fill="#1B1B1B" fill-rule="evenodd"/><path d=" M 109.19 63.39 L 66.34 32.25 L 45.24 47.58 L 61.61 97.94 L 109.19 63.39 Z" stroke="#040000" stroke-miterlimit="10" fill="#1B1B1B" fill-rule="evenodd"/><path d=" M 79.78 153.86 L 96.11 204.12 L 122.25 204.12 L 138.58 153.85 L 79.78 153.86 Z" stroke="#040000" stroke-miterlimit="10" fill="#1B1B1B" fill-rule="evenodd"/><path d=" M 122.25 204.12 L 175.18 204.12 L 191.52 153.86 L 138.58 153.85 L 122.25 204.12 Z" stroke="#040000" stroke-miterlimit="10" fill="#1B1B1B" fill-rule="evenodd"/><path d=" M 45.24 47.58 L 2.5 78.64 L 18.86 129.01 L 61.61 97.94 L 45.24 47.58 Z" stroke="#040000" stroke-miterlimit="10" fill="#808080" fill-rule="evenodd"/><path d=" M 26.94 153.86 L 43.27 204.11 L 96.11 204.12 L 79.78 153.86 L 26.94 153.86 Z" stroke="#040000" stroke-miterlimit="10" fill="#1B1B1B" fill-rule="evenodd"/><path d=" M 61.61 97.94 L 18.86 129.01 L 26.94 153.86 L 79.78 153.86 L 61.61 97.94 Z" stroke="#040000" stroke-miterlimit="10" fill="#808080" fill-rule="evenodd"/><path d=" M 150.85 5.5 C 150.85 15.09 150.85 24.72 150.9 34.42 L 172.71 50.3 L 199.56 41.14 C 191.473 35.2 183.37 29.2733 175.25 23.36 Z" stroke="#040000" stroke-miterlimit="10" fill="#808080" fill-rule="evenodd"/><path d=" M 201.46 40.52 C 201.552 40.8175 201.579 41.1311 201.54 41.44 C 201.417 42.1649 200.906 42.764 200.21 43 L 173.35 52.16 C 172.737 52.3646 172.063 52.2603 171.54 51.88 L 149.73 36 C 149.219 35.6265 148.915 35.0331 148.91 34.4 C 148.91 25.51 148.91 16.67 148.91 7.87 L 148.91 5.5 C 148.941 4.39587 149.861 3.52603 150.966 3.55715 C 151.334 3.56752 151.691 3.67924 152 3.88 L 176.4 21.74 C 184.5 27.66 192.6 33.5867 200.7 39.52 C 201.054 39.7631 201.321 40.1137 201.46 40.52 Z M 173 48.07 L 195.26 40.48 L 174.08 25 L 152.85 9.43 C 152.85 17.39 152.85 25.39 152.85 33.43 Z" stroke="#040000" stroke-miterlimit="10" fill="#060001"/><path d=" M 192.28 224.74 C 197.567 208.307 202.83 192 208.07 175.82 C 202.61 168.56 197.147 161.307 191.68 154.06 C 186.4 170.187 181.067 186.44 175.68 202.82 C 181.24 210.1 186.74 217.4 192.28 224.74 Z" stroke="#040000" stroke-miterlimit="10" fill="#808080" fill-rule="evenodd"/><path d=" M 189.78 153.44 L 173.78 202.2 C 173.58 202.821 173.696 203.5 174.09 204.02 C 179.297 210.873 184.497 217.75 189.69 224.65 L 190.69 225.94 C 191.141 226.533 191.885 226.826 192.62 226.7 C 192.87 226.655 193.108 226.56 193.32 226.42 L 193.32 226.42 L 193.32 226.42 C 193.401 226.291 193.502 226.176 193.62 226.08 C 193.75 225.85 193.89 225.62 194.03 225.4 C 194.17 225.18 194.22 225.07 194.31 224.92 C 199.537 208.653 204.747 192.507 209.94 176.48 C 210.069 176.08 210.069 175.65 209.94 175.25 C 209.875 175.038 209.773 174.838 209.64 174.66 L 193.26 152.9 C 192.596 152.017 191.343 151.839 190.46 152.502 C 190.132 152.749 189.887 153.09 189.76 153.48 Z M 205.85 176.19 C 201.103 190.857 196.337 205.613 191.55 220.46 C 187.01 214.46 182.47 208.46 177.93 202.46 L 192.38 158.33 Z" stroke="#040000" stroke-miterlimit="10" fill="#060001"/><path d=" M 226 120.2 C 217.333 123.2 208.587 126.23 199.76 129.29 C 197.06 137.53 194.353 145.787 191.64 154.06 C 197.12 161.32 202.583 168.573 208.03 175.82 C 211.05 166.447 214.05 157.113 217.03 147.82 C 220.01 138.527 223 129.32 226 120.2 Z" stroke="#040000" stroke-miterlimit="10" fill="#808080" fill-rule="evenodd"/><path d=" M 227.94 119.58 C 228.065 119.98 228.065 120.41 227.94 120.81 L 209.94 176.44 C 209.592 177.488 208.46 178.056 207.411 177.707 C 207.029 177.58 206.694 177.341 206.45 177.02 L 190.07 155.26 C 189.676 154.74 189.56 154.061 189.76 153.44 L 197.88 128.67 C 198.084 128.082 198.544 127.619 199.13 127.41 C 207.91 124.35 216.653 121.317 225.36 118.31 C 226.403 117.947 227.543 118.497 227.907 119.541 C 227.911 119.554 227.916 119.567 227.92 119.58 Z M 207.35 171.58 L 222.91 123.42 C 215.763 125.88 208.59 128.367 201.39 130.88 L 193.91 153.72 Z" stroke="#040000" stroke-miterlimit="10" fill="#060001"/><path d=" M 138.14 226.39 C 132.653 218.99 127.137 211.58 121.59 204.16 L 95.07 204.16 C 89.56 211.59 84.07 219.02 78.57 226.46 C 88.57 226.46 98.5 226.46 108.4 226.46 C 118.3 226.46 128.23 226.38 138.14 226.39 Z" stroke="#040000" stroke-miterlimit="10" fill="#808080" fill-rule="evenodd"/><path d=" M 140 225.77 C 140.337 226.822 139.757 227.948 138.705 228.285 C 138.51 228.347 138.305 228.38 138.1 228.38 C 128.2 228.38 118.287 228.38 108.36 228.38 L 107.86 228.38 C 98.13 228.38 88.34 228.38 78.54 228.43 C 77.7833 228.431 77.0905 228.006 76.75 227.33 C 76.4105 226.655 76.4801 225.847 76.93 225.24 L 93.47 203 C 93.8477 202.496 94.4405 202.2 95.07 202.2 L 121.59 202.2 C 122.214 202.201 122.802 202.493 123.18 202.99 C 128.74 210.417 134.263 217.83 139.75 225.23 C 139.86 225.397 139.944 225.579 140 225.77 Z M 82.5 224.45 C 90.98 224.45 99.4333 224.45 107.86 224.45 L 134.13 224.45 C 129.623 218.383 125.097 212.307 120.55 206.22 C 112.383 206.22 104.213 206.22 96.04 206.22 Z" stroke="#040000" stroke-miterlimit="10" fill="#060001"/><path d=" M 26.79 226.83 C 32.2233 219.283 37.6267 211.72 43 204.14 L 26.49 153.19 C 21.0833 160.77 15.67 168.333 10.25 175.88 C 15.77 192.873 21.2833 209.857 26.79 226.83 Z" stroke="#040000" stroke-miterlimit="10" fill="#808080" fill-rule="evenodd"/><path d=" M 8.63 174.72 C 8.25953 175.235 8.15563 175.896 8.35 176.5 L 24.54 226.37 C 24.7909 226.73 25.0755 227.064 25.39 227.37 C 25.4257 227.415 25.4591 227.462 25.49 227.51 C 25.9436 227.831 26.4217 228.115 26.92 228.36 L 27 228.36 C 27.21 228.42 27.42 228.47 27.64 228.51 L 27.72 228.51 C 27.9753 228.378 28.1975 228.19 28.37 227.96 C 33.81 220.4 39.23 212.833 44.63 205.26 C 44.9971 204.743 45.0972 204.083 44.9 203.48 L 28.39 152.58 C 28.0457 151.53 26.9158 150.959 25.8663 151.303 C 25.4659 151.434 25.1172 151.689 24.87 152.03 C 19.4633 159.61 14.05 167.173 8.63 174.72 Z M 40.84 203.8 C 36.3867 210.04 31.93 216.26 27.47 222.46 L 12.47 176.23 L 25.83 157.58 Z" stroke="#040000" stroke-miterlimit="10" fill="#060001"/><path d=" M 174.3 49.18 C 174.435 49.5789 174.435 50.0111 174.3 50.41 L 158.65 98.56 C 158.455 99.1702 157.979 99.6499 157.37 99.85 C 156.761 100.045 156.096 99.9371 155.58 99.56 L 108 65 C 107.473 64.6317 107.169 64.0222 107.19 63.38 C 107.192 62.7434 107.496 62.1456 108.01 61.77 L 149 32 C 149.701 31.4913 150.649 31.4913 151.35 32 L 173.62 48.16 C 173.945 48.4231 174.182 48.7789 174.3 49.18 Z M 155.7 94.71 L 170.05 50.56 L 150.12 36.1 L 112.58 63.4 Z" stroke="#040000" stroke-miterlimit="10" fill="#060001"/><path d=" M 201.48 128.44 C 201.609 128.84 201.609 129.27 201.48 129.67 L 193.42 154.48 C 193.149 155.295 192.389 155.846 191.53 155.85 L 138.58 155.85 C 137.946 155.842 137.356 155.524 137 155 C 136.606 154.491 136.497 153.817 136.71 153.21 L 154.89 97.31 C 155.088 96.7036 155.564 96.2281 156.17 96.03 C 156.779 95.8351 157.444 95.9429 157.96 96.32 L 200.78 127.42 C 201.115 127.677 201.36 128.035 201.48 128.44 Z M 190.07 151.87 L 197.23 129.82 L 157.8 101.17 L 141.32 151.85 Z" stroke="#040000" stroke-miterlimit="10" fill="#060001"/><path d=" M 111.09 62.78 C 111.15 62.9778 111.18 63.1833 111.18 63.39 C 111.182 64.0301 110.877 64.6323 110.36 65.01 L 62.78 99.55 C 61.8839 100.196 60.6339 99.9929 59.9881 99.0968 C 59.8678 98.9299 59.774 98.7455 59.71 98.55 L 43.35 48.2 C 43.0981 47.3882 43.3869 46.5058 44.07 46 L 65.17 30.67 C 65.8686 30.1661 66.8114 30.1661 67.51 30.67 L 110.36 61.81 C 110.698 62.0499 110.953 62.3888 111.09 62.78 Z M 62.66 94.71 L 105.79 63.39 L 66.34 34.72 L 47.59 48.35 Z" stroke="#040000" stroke-miterlimit="10" fill="#060001"/><path d=" M 140.48 153.24 C 140.609 153.64 140.609 154.07 140.48 154.47 L 124.14 204.73 C 123.872 205.553 123.105 206.109 122.24 206.11 L 96.11 206.11 C 95.2449 206.109 94.4782 205.553 94.21 204.73 L 77.88 154.48 C 77.5431 153.428 78.1228 152.302 79.1747 151.965 C 79.3704 151.903 79.5745 151.87 79.78 151.87 L 138.58 151.87 C 139.217 151.872 139.814 152.176 140.19 152.69 C 140.315 152.857 140.413 153.043 140.48 153.24 Z M 120.79 202.12 L 135.79 155.85 L 82.52 155.85 L 97.52 202.12 Z" stroke="#040000" stroke-miterlimit="10" fill="#060001"/><path d=" M 193.42 153.25 C 193.545 153.65 193.545 154.08 193.42 154.48 L 177.08 204.74 C 176.808 205.559 176.042 206.111 175.18 206.11 L 122.24 206.11 C 121.603 206.108 121.006 205.804 120.63 205.29 C 120.24 204.779 120.135 204.106 120.35 203.5 L 136.68 153.24 C 136.948 152.417 137.715 151.861 138.58 151.86 L 191.52 151.86 C 192.157 151.862 192.754 152.166 193.13 152.68 C 193.259 152.852 193.357 153.045 193.42 153.25 Z M 173.73 202.12 L 188.73 155.86 L 140 155.86 L 125 202.13 Z" stroke="#040000" stroke-miterlimit="10" fill="#060001"/><path d=" M 47.14 47 L 63.51 97.33 C 63.7693 98.15 63.4753 99.0439 62.78 99.55 L 20 130.62 C 19.1039 131.266 17.8539 131.063 17.2081 130.167 C 17.0878 130 16.994 129.815 16.93 129.62 L 0.6 79.25 C 0.326198 78.4211 0.621688 77.5103 1.33 77 L 44.07 46 C 44.5878 45.6263 45.2528 45.5222 45.86 45.72 C 46.4664 45.9181 46.9419 46.3936 47.14 47 Z M 59.26 97.18 L 44.19 50.81 L 4.84 79.4 L 19.91 125.78 Z" stroke="#040000" stroke-miterlimit="10" fill="#060001"/><path d=" M 81.68 153.25 L 98 203.51 C 98.3369 204.562 97.7572 205.688 96.7053 206.025 C 96.5096 206.087 96.3055 206.12 96.1 206.12 L 43.27 206.12 C 42.4049 206.119 41.6382 205.563 41.37 204.74 L 25 154.48 C 24.8051 153.871 24.9129 153.206 25.29 152.69 C 25.6589 152.168 26.261 151.861 26.9 151.87 L 79.78 151.87 C 80.6451 151.871 81.4118 152.427 81.68 153.25 Z M 93.36 202.13 L 78.36 155.86 L 29.69 155.86 L 44.69 202.13 Z" stroke="#040000" stroke-miterlimit="10" fill="#060001"/><path d=" M 63.51 97.33 L 81.68 153.25 C 81.8749 153.859 81.7671 154.524 81.39 155.04 C 81.0123 155.55 80.4148 155.851 79.78 155.85 L 26.94 155.85 C 26.0775 155.851 25.3117 155.299 25.04 154.48 L 17 129.63 C 16.7338 128.809 17.0241 127.91 17.72 127.4 L 60.44 96.33 C 60.9553 95.9595 61.6158 95.8556 62.22 96.05 C 62.8302 96.2454 63.3099 96.7213 63.51 97.33 Z M 77 151.87 L 60.53 101.17 L 21.18 129.77 L 28.36 151.86 Z" stroke="#040000" stroke-miterlimit="10" fill="#060001"/></g></g></svg>