<svg version="1.1" viewBox="0 0 258.65 233.67" xmlns="http://www.w3.org/2000/svg" xmlns:xlink="http://www.w3.org/1999/xlink" overflow="hidden"><defs></defs><g id="b80a502d-61ae-48ae-a9cd-a5ad4255dafb"><g id="fa4d462f-da48-40f7-a009-c6244e823286"><path d=" M 182.63 127.1 L 164.42 183.01 L 105.64 183.03 L 87.49 127.12 L 135.06 92.54 L 182.63 127.1 Z" fill="#808080"/><path d=" M 182.63 127.1 L 135.06 92.54 L 87.49 127.12 L 105.64 183.03 L 164.42 183.01 L 182.63 127.1 Z" stroke="#040000" stroke-miterlimit="10" fill="none"/><path d=" M 104.46 184.64 C 104.118 184.394 103.865 184.043 103.74 183.64 L 85.58 127.73 C 85.3159 126.907 85.6104 126.008 86.31 125.5 L 133.88 90.93 C 134.579 90.4261 135.521 90.4261 136.22 90.93 L 183.79 125.49 C 184.486 126 184.776 126.899 184.51 127.72 L 166.32 183.64 C 166.053 184.459 165.291 185.015 164.43 185.02 L 105.64 185.02 C 105.215 185.028 104.8 184.894 104.46 184.64 Z M 89.83 127.88 L 107.09 181 L 163 181 L 180.29 127.85 L 135.05 95 Z" stroke="#040000" stroke-miterlimit="10" fill="#211613"/><path d=" M 105.64 183.03 L 121.28 231.18 L 148.8 231.16 L 164.43 183.02 L 105.64 183.03 Z" stroke="#040000" stroke-miterlimit="10" fill="#808080" fill-rule="evenodd"/><path d=" M 148.8 231.16 L 201.77 231.17 L 217.4 183.03 L 164.43 183.02 L 148.8 231.16 Z" stroke="#040000" stroke-miterlimit="10" fill="#808080" fill-rule="evenodd"/><path d=" M 147.63 232.77 C 147.457 232.652 147.308 232.503 147.19 232.33 C 146.816 231.812 146.712 231.147 146.91 230.54 L 162.53 182.41 C 162.798 181.587 163.565 181.031 164.43 181.03 L 217.43 181.03 C 218.071 181.014 218.676 181.323 219.04 181.85 C 219.414 182.364 219.522 183.024 219.33 183.63 L 203.7 231.77 C 203.432 232.593 202.665 233.149 201.8 233.15 L 148.8 233.15 C 148.379 233.154 147.968 233.021 147.63 232.77 Z M 165.88 185 L 151.55 229.15 L 200.32 229.15 L 214.65 185 Z" stroke="#040000" stroke-miterlimit="10" fill="#060001"/><path d=" M 121.28 231.18 L 105.64 183.03 L 52.71 183.03 L 68.36 231.17 L 121.28 231.18 Z" stroke="#040000" stroke-miterlimit="10" fill="#808080" fill-rule="evenodd"/><path d=" M 67.19 232.78 C 66.844 232.535 66.5876 232.184 66.46 231.78 L 50.81 183.65 C 50.6122 183.043 50.7163 182.378 51.09 181.86 C 51.4677 181.343 52.0699 181.038 52.71 181.04 L 105.64 181.04 C 106.501 181.045 107.263 181.601 107.53 182.42 L 123.18 230.57 C 123.517 231.622 122.937 232.748 121.885 233.085 C 121.69 233.147 121.485 233.18 121.28 233.18 L 68.36 233.18 C 67.9367 233.179 67.5256 233.038 67.19 232.78 Z M 55.46 185 L 69.81 229.14 L 118.53 229.14 L 104.19 185 Z" stroke="#040000" stroke-miterlimit="10" fill="#060001"/><path d=" M 87.48 127.12 L 44.65 158.22 L 52.71 183.03 L 105.64 183.03 L 87.48 127.12 Z" stroke="#040000" stroke-miterlimit="10" fill="#808080" fill-rule="evenodd"/><path d=" M 164.43 183.02 L 217.4 183.03 L 225.45 158.23 L 182.62 127.11 L 164.43 183.02 Z" stroke="#040000" stroke-miterlimit="10" fill="#808080" fill-rule="evenodd"/><path d=" M 135.05 92.55 L 92.29 61.48 L 71.15 76.85 L 87.48 127.12 L 135.05 92.55 Z" stroke="#040000" stroke-miterlimit="10" fill="#808080" fill-rule="evenodd"/><path d=" M 71.15 76.85 L 28.32 107.96 L 44.65 158.22 L 87.48 127.12 L 71.15 76.85 Z" stroke="#040000" stroke-miterlimit="10" fill="#808080" fill-rule="evenodd"/><path d=" M 225.45 158.23 L 241.78 107.98 L 198.94 76.85 L 182.62 127.11 L 225.45 158.23 Z" stroke="#040000" stroke-miterlimit="10" fill="#808080" fill-rule="evenodd"/><path d=" M 177.79 61.49 L 135.05 30.43 L 92.29 61.48 L 135.05 92.55 L 177.79 61.49 Z" stroke="#040000" stroke-miterlimit="10" fill="#808080" fill-rule="evenodd"/><path d=" M 182.62 127.11 L 198.94 76.85 L 177.79 61.49 L 135.05 92.55 L 182.62 127.11 Z" stroke="#040000" stroke-miterlimit="10" fill="#808080" fill-rule="evenodd"/><path d=" M 2.37 101.33 C 7.75 117.73 13.0833 134.017 18.37 150.19 C 27.06 152.85 35.72 155.51 44.42 158.19 L 28.66 109.33 C 19.9133 106.69 11.15 104.023 2.37 101.33 Z" stroke="#040000" stroke-miterlimit="10" fill="#00D800" fill-rule="evenodd"/><path d=" M 46.3 157.54 L 30.56 108.71 C 30.3566 108.091 29.864 107.609 29.24 107.42 C 21 104.94 12.7533 102.433 4.5 99.9 L 3 99.42 C 2.28849 99.2088 1.51854 99.409 1 99.94 C 0.822453 100.122 0.686054 100.341 0.6 100.58 C 0.6 100.58 0.6 100.58 0.6 100.58 L 0.6 100.58 C 0.620596 100.733 0.620596 100.887 0.6 101.04 C 0.6 101.3 0.6 101.57 0.67 101.83 C 0.74 102.09 0.67 102.21 0.72 102.39 C 6.05333 118.617 11.33 134.74 16.55 150.76 C 16.6743 151.163 16.9272 151.514 17.27 151.76 C 17.4461 151.894 17.6464 151.992 17.86 152.05 L 43.86 160.05 C 44.9158 160.375 46.0349 159.782 46.3596 158.726 C 46.4807 158.333 46.4773 157.912 46.35 157.52 Z M 19.93 148.54 C 15.15 133.873 10.33 119.133 5.47 104.32 C 12.69 106.527 19.8933 108.717 27.08 110.89 L 41.33 155.09 Z" stroke="#040000" stroke-miterlimit="10" fill="#060001"/><path d=" M 45.87 18.65 C 35.9567 32.13 26 45.6133 16 59.1 C 20.84 60.61 25.71 62.1 30.55 63.63 C 35.39 65.16 40.3 66.63 45.16 68.18 C 53.16 62.36 61.16 56.5233 69.16 50.67 C 77.16 44.8167 85.2233 38.96 93.35 33.1 C 93.4 28.01 93.43 22.89 93.47 17.79 C 93.51 12.69 93.55 7.59 93.61 2.49 Z" stroke="#040000" stroke-miterlimit="10" fill="#00D800" fill-rule="evenodd"/><path d=" M 14.87 60.71 C 13.9784 60.0579 13.7843 58.8066 14.4363 57.915 C 14.4375 57.9133 14.4388 57.9117 14.44 57.91 C 24.44 44.41 34.38 30.93 44.26 17.47 C 44.5108 17.1344 44.8605 16.8861 45.26 16.76 L 93 0.59 C 94.0988 0.274551 95.2454 0.90962 95.5608 2.00847 C 95.6077 2.17176 95.6343 2.34021 95.64 2.51 L 95.38 33.12 C 95.3745 33.7477 95.0746 34.3365 94.57 34.71 C 86.6033 40.53 78.6633 46.31 70.75 52.05 C 62.4 58.14 54.4 64 46.37 69.79 C 45.8588 70.1606 45.2027 70.2681 44.6 70.08 L 37.76 68 C 35.15 67.2 32.56 66.4 29.98 65.58 C 26.83 64.58 23.64 63.58 20.47 62.58 L 15.47 61.02 C 15.2548 60.9492 15.0522 60.8446 14.87 60.71 Z M 47.1 20.34 C 37.8533 32.9 28.5933 45.4533 19.32 58 L 21.66 58.72 C 24.83 59.72 28.02 60.72 31.19 61.72 C 33.75 62.54 36.34 63.34 38.94 64.14 L 44.84 66 C 52.58 60.38 60.3233 54.7433 68.07 49.09 C 76.07 43.31 83.7 37.72 91.37 32.09 L 91.59 5.29 Z" stroke="#040000" stroke-miterlimit="10" fill="#060001"/><path d=" M 135 2.79 C 121.093 12.93 107.21 23.0333 93.35 33.1 C 93.26 42.37 93.2 51.6 93.11 60.84 L 134.86 30.5 C 134.88 21.27 134.94 12 135 2.79 Z" stroke="#040000" stroke-miterlimit="10" fill="#FFA100" fill-rule="evenodd"/><path d=" M 136.1 1.15 L 135.84 1.15 L 135.68 1.1 C 135.116 1.0968 134.553 1.15041 134 1.26 L 133.91 1.31 L 133.39 1.53 L 128.22 5.31 C 116.22 14.0833 104.22 22.8267 92.22 31.54 C 91.7116 31.9114 91.4078 32.5005 91.4 33.13 L 91.15 60.88 C 91.1474 61.5254 91.4565 62.1324 91.98 62.51 C 92.063 62.5691 92.1498 62.6226 92.24 62.67 C 92.9084 63.0111 93.7116 62.9493 94.32 62.51 L 136 32.12 C 136.514 31.7444 136.818 31.1466 136.82 30.51 C 136.82 22.87 136.89 15.2 136.93 7.57 L 136.93 2.8 C 136.939 2.14753 136.629 1.53167 136.1 1.15 Z M 133 7.55 C 133 14.85 132.91 22.18 132.89 29.49 L 95.14 56.9 L 95.34 34.12 C 107.067 25.6133 118.81 17.0667 130.57 8.48 L 133 6.73 Z" stroke="#040000" stroke-miterlimit="10" fill="#060001"/><path d=" M 45.2 68.18 C 53.9933 70.94 62.8133 73.69 71.66 76.43 C 78.8133 71.25 85.9633 66.0533 93.11 60.84 C 93.2 51.6 93.26 42.37 93.35 33.1 C 85.3033 39.0333 77.2667 44.89 69.24 50.67 C 61.2133 56.45 53.2 62.2867 45.2 68.18 Z" stroke="#040000" stroke-miterlimit="10" fill="#00D800" fill-rule="evenodd"/><path d=" M 44 69.79 C 43.5742 69.4818 43.2868 69.0184 43.2 68.5 C 43.0788 67.7541 43.3883 67.0036 44 66.56 C 52 60.74 60 54.9067 68 49.06 L 68.4 48.76 C 76.28 43.04 84.18 37.2833 92.1 31.49 C 92.713 31.0426 93.5263 30.9806 94.2 31.33 C 94.8616 31.6878 95.2756 32.3778 95.28 33.13 L 95.04 60.87 C 95.0322 61.4995 94.7284 62.0886 94.22 62.46 C 87.12 67.66 79.99 72.84 72.83 78 C 72.323 78.3708 71.6712 78.4819 71.07 78.3 C 62.21 75.5867 53.3867 72.8467 44.6 70.08 C 44.3846 70.0191 44.1816 69.9209 44 69.79 Z M 91.32 37.07 C 84.48 42.07 77.6467 47.0467 70.82 52 C 63.52 57.33 56.54 62.42 49.59 67.47 C 56.7967 69.73 64.03 71.9867 71.29 74.24 C 77.9033 69.4133 84.5167 64.6067 91.13 59.82 Z" stroke="#040000" stroke-miterlimit="10" fill="#060001"/><path d=" M 226.23 18.78 C 210.23 13.4467 194.203 8.14333 178.15 2.87 C 178.15 8.03 178.22 13.22 178.24 18.36 C 178.26 23.5 178.31 28.71 178.36 33.87 L 202.44 51.38 L 226.58 68.92 L 241.35 64.25 C 246.26 62.69 251.21 61.14 256.16 59.58 C 246.16 45.98 236.183 32.38 226.23 18.78 Z" stroke="#040000" stroke-miterlimit="10" fill="#FFA100" fill-rule="evenodd"/><path d=" M 225.4 70.54 L 177.18 35.48 C 176.669 35.1065 176.365 34.5131 176.36 33.88 L 176.15 2.88 C 176.155 2.23447 176.472 1.63117 177 1.26 C 177.516 0.89958 178.172 0.803252 178.77 1 C 189.99 4.73333 201.203 8.44667 212.41 12.14 L 226.86 16.91 C 227.261 17.0388 227.611 17.2907 227.86 17.63 C 237.92 31.35 247.86 44.9 257.79 58.43 C 258.445 59.3196 258.254 60.5715 257.365 61.2263 C 257.19 61.3547 256.996 61.4539 256.79 61.52 L 227.21 70.85 C 226.592 71.0461 225.917 70.9306 225.4 70.54 Z M 180.34 32.84 L 226.94 66.71 L 252.89 58.52 L 225 20.48 L 211.16 15.9 C 200.82 12.48 190.487 9.06 180.16 5.64 Z" stroke="#040000" stroke-miterlimit="10" fill="#060001"/><path d=" M 178.36 33.87 C 178.407 43.1567 178.47 52.4567 178.55 61.77 L 199.93 77.3 C 208.803 74.5133 217.687 71.72 226.58 68.92 L 202.44 51.38 Z" stroke="#040000" stroke-miterlimit="10" fill="#FFA100" fill-rule="evenodd"/><path d=" M 198.76 78.92 L 177.37 63.38 C 176.859 63.0065 176.555 62.4131 176.55 61.78 C 176.47 52.4467 176.407 43.1467 176.36 33.88 C 176.357 33.1255 176.778 32.4333 177.45 32.09 C 178.118 31.7489 178.922 31.8107 179.53 32.25 L 227.75 67.31 C 228.358 67.7519 228.667 68.4974 228.55 69.24 C 228.429 69.9888 227.894 70.6046 227.17 70.83 L 200.53 79.2 C 199.929 79.391 199.273 79.2872 198.76 78.92 Z M 180.54 60.74 L 200.29 75.09 L 222.2 68.21 L 180.37 37.8 C 180.423 45.4533 180.48 53.1 180.54 60.74 Z" stroke="#040000" stroke-miterlimit="10" fill="#060001"/><path d=" M 120.11 232.79 C 119.764 232.548 119.51 232.195 119.39 231.79 L 103.74 183.65 C 103.398 182.6 103.971 181.471 105.021 181.129 C 105.221 181.063 105.43 181.03 105.64 181.03 L 164.43 181.03 C 165.071 181.012 165.677 181.321 166.04 181.85 C 166.414 182.368 166.518 183.033 166.32 183.64 L 150.7 231.78 C 150.432 232.603 149.665 233.159 148.8 233.16 L 121.28 233.16 C 120.86 233.167 120.449 233.037 120.11 232.79 Z M 108.39 185 L 122.73 229.15 L 147.35 229.15 L 161.68 185 Z" stroke="#040000" stroke-miterlimit="10" fill="#060001"/><path d=" M 51.53 184.65 C 51.1907 184.401 50.9388 184.051 50.81 183.65 L 42.75 158.84 C 42.4859 158.017 42.7804 157.118 43.48 156.61 L 86.31 125.5 C 86.8278 125.126 87.4928 125.022 88.1 125.22 C 88.7127 125.408 89.1923 125.887 89.38 126.5 L 107.53 182.41 C 107.867 183.462 107.287 184.588 106.235 184.925 C 106.043 184.986 105.842 185.019 105.64 185.02 L 52.7 185.02 C 52.2809 185.022 51.8716 184.893 51.53 184.65 Z M 47 159 L 54.16 181 L 102.89 181 L 86.44 130.35 Z" stroke="#040000" stroke-miterlimit="10" fill="#060001"/><path d=" M 163.26 184.64 C 163.089 184.516 162.94 184.364 162.82 184.19 C 162.446 183.676 162.338 183.016 162.53 182.41 L 180.72 126.49 C 181.064 125.44 182.193 124.868 183.243 125.212 C 183.439 125.276 183.623 125.37 183.79 125.49 L 226.63 156.61 C 227.326 157.12 227.616 158.019 227.35 158.84 L 219.35 183.64 C 219.082 184.463 218.315 185.019 217.45 185.02 L 164.45 185.02 C 164.023 185.024 163.606 184.89 163.26 184.64 Z M 183.66 130.33 L 167.18 181 L 216 181 L 223.16 159 Z" stroke="#040000" stroke-miterlimit="10" fill="#060001"/><path d=" M 86.31 128.73 C 85.9672 128.484 85.7143 128.133 85.59 127.73 L 69.26 77.47 C 68.998 76.6449 69.2967 75.7448 70 75.24 L 91.12 59.87 C 91.8207 59.3613 92.7693 59.3613 93.47 59.87 L 136.22 90.93 C 136.737 91.3077 137.042 91.9099 137.04 92.55 C 137.038 93.1866 136.734 93.7844 136.22 94.16 L 88.65 128.73 C 88.1347 129.1 87.4742 129.204 86.87 129.01 C 86.6671 128.953 86.477 128.858 86.31 128.73 Z M 73.5 77.61 L 88.5 123.89 L 131.62 92.55 L 92.29 64 Z" stroke="#040000" stroke-miterlimit="10" fill="#060001"/><path d=" M 43.47 159.84 C 43.1307 159.591 42.8788 159.241 42.75 158.84 L 26.42 108.58 C 26.1559 107.757 26.4504 106.858 27.15 106.35 L 70 75.24 C 70.5195 74.8863 71.1751 74.7975 71.77 75 C 72.3832 75.181 72.8642 75.6583 73.05 76.27 L 89.38 126.5 C 89.6441 127.323 89.3496 128.222 88.65 128.73 L 45.82 159.84 C 45.3022 160.214 44.6372 160.318 44.03 160.12 C 43.8298 160.057 43.6408 159.962 43.47 159.84 Z M 30.67 108.72 L 45.67 154.99 L 85.11 126.35 L 70.11 80.08 Z" stroke="#040000" stroke-miterlimit="10" fill="#060001"/><path d=" M 224.28 159.84 L 181.44 128.72 C 180.744 128.21 180.454 127.311 180.72 126.49 L 197 76.23 C 197.22 75.6336 197.71 75.177 198.32 75 C 198.927 74.8022 199.592 74.9063 200.11 75.28 L 243 106.37 C 243.696 106.88 243.986 107.779 243.72 108.6 L 227.39 158.84 C 227.192 159.446 226.716 159.922 226.11 160.12 C 225.491 160.332 224.807 160.227 224.28 159.84 Z M 185 126.34 L 224.41 155 L 239.41 108.74 L 200 80.08 Z" stroke="#040000" stroke-miterlimit="10" fill="#060001"/><path d=" M 133.87 94.16 L 91.12 63.1 C 90.6032 62.7223 90.2983 62.1201 90.3 61.48 C 90.3015 60.8434 90.606 60.2456 91.12 59.87 L 133.88 28.87 C 134.579 28.3661 135.521 28.3661 136.22 28.87 L 179 59.87 C 179.517 60.2477 179.822 60.8499 179.82 61.49 C 179.818 62.1266 179.514 62.7244 179 63.1 L 136.22 94.16 C 135.519 94.6687 134.571 94.6687 133.87 94.16 Z M 95.69 61.48 L 135.05 90.08 L 174.4 61.49 L 135.05 32.9 Z" stroke="#040000" stroke-miterlimit="10" fill="#060001"/><path d=" M 181.44 128.72 L 133.87 94.16 C 132.978 93.5085 132.783 92.2572 133.435 91.3653 C 133.556 91.1986 133.703 91.0518 133.87 90.93 L 176.61 59.88 C 177.311 59.3713 178.259 59.3713 178.96 59.88 L 200.1 75.24 C 200.796 75.7502 201.086 76.6492 200.82 77.47 L 184.5 127.73 C 184.156 128.78 183.027 129.352 181.977 129.008 C 181.781 128.944 181.597 128.85 181.43 128.73 Z M 138.44 92.54 L 181.57 123.88 L 196.57 77.61 L 177.8 64 Z" stroke="#040000" stroke-miterlimit="10" fill="#060001"/></g></g></svg>