<svg version="1.1" viewBox="0 0 243.6 257.19" xmlns="http://www.w3.org/2000/svg" xmlns:xlink="http://www.w3.org/1999/xlink" overflow="hidden"><defs></defs><g id="ae371c7d-9ec9-49a6-8992-270aaaffffc3"><g id="b3329f24-cf96-4b4f-b840-0e222b30eb88"><path d=" M 61.63 126.13 L 109.18 91.58 L 156.74 126.12 L 138.57 182.05 L 79.8 182.05 L 61.63 126.13 Z" fill="#808080"/><path d=" M 61.63 126.13 L 79.8 182.05 L 138.57 182.05 L 156.74 126.12 L 109.18 91.58 L 61.63 126.13 Z" stroke="#040000" stroke-miterlimit="10" fill="none"/><path d=" M 158.65 125.52 C 158.785 125.919 158.785 126.351 158.65 126.75 L 140.48 182.66 C 140.208 183.479 139.442 184.031 138.58 184.03 L 79.78 184.03 C 78.9175 184.031 78.1517 183.479 77.88 182.66 L 59.71 126.75 C 59.4459 125.927 59.7404 125.028 60.44 124.52 L 108 90 C 108.699 89.4961 109.641 89.4961 110.34 90 L 157.91 124.55 C 158.257 124.783 158.517 125.124 158.65 125.52 Z M 137.13 180 L 154.41 126.85 L 109.19 94.05 L 64 126.89 L 81.28 180.05 Z" stroke="#040000" stroke-miterlimit="10" fill="#211613"/><path d=" M 156.75 126.13 L 172.4 77.99 L 150.13 61.82 L 109.19 91.58 L 156.75 126.13 Z" stroke="#040000" stroke-miterlimit="10" fill="#808080" fill-rule="evenodd"/><path d=" M 150.13 61.82 L 107.28 30.68 L 66.34 60.44 L 109.19 91.58 L 150.13 61.82 Z" stroke="#040000" stroke-miterlimit="10" fill="#808080" fill-rule="evenodd"/><path d=" M 152 61.21 C 152.068 61.4061 152.102 61.6124 152.1 61.82 C 152.098 62.4566 151.794 63.0544 151.28 63.43 L 110.36 93.19 C 109.659 93.6987 108.711 93.6987 108.01 93.19 L 65.16 62.05 C 64.6382 61.6811 64.3315 61.079 64.34 60.44 C 64.3439 59.8016 64.6522 59.2034 65.17 58.83 L 106.1 29.07 C 106.801 28.5613 107.749 28.5613 108.45 29.07 L 151.3 60.21 C 151.632 60.4622 151.877 60.8119 152 61.21 Z M 109.17 89.11 L 146.71 61.82 L 107.27 33.15 L 69.73 60.44 Z" stroke="#040000" stroke-miterlimit="10" fill="#060001"/><path d=" M 172.4 77.99 L 156.75 126.13 L 199.58 157.24 L 215.21 109.1 L 172.4 77.99 Z" stroke="#040000" stroke-miterlimit="10" fill="#808080" fill-rule="evenodd"/><path d=" M 217.11 108.48 C 217.235 108.88 217.235 109.31 217.11 109.71 L 201.47 157.86 C 201.126 158.91 199.997 159.482 198.947 159.138 C 198.751 159.074 198.567 158.98 198.4 158.86 L 155.58 127.75 C 154.888 127.241 154.599 126.348 154.86 125.53 L 170.5 77.37 C 170.698 76.7636 171.174 76.2881 171.78 76.09 C 172.388 75.8847 173.058 75.9933 173.57 76.38 L 216.38 107.49 C 216.721 107.735 216.977 108.082 217.11 108.48 Z M 198.53 154 L 212.86 109.85 L 173.45 81.22 L 159.1 125.37 Z" stroke="#040000" stroke-miterlimit="10" fill="#060001"/><path d=" M 138.58 182.04 L 191.52 182.05 L 199.58 157.24 L 156.75 126.13 L 138.58 182.04 Z" stroke="#040000" stroke-miterlimit="10" fill="#808080" fill-rule="evenodd"/><path d=" M 109.19 91.58 L 66.34 60.44 L 45.24 75.77 L 61.61 126.13 L 109.19 91.58 Z" stroke="#040000" stroke-miterlimit="10" fill="#808080" fill-rule="evenodd"/><path d=" M 79.78 182.05 L 96.11 232.31 L 122.25 232.3 L 138.58 182.04 L 79.78 182.05 Z" stroke="#040000" stroke-miterlimit="10" fill="#808080" fill-rule="evenodd"/><path d=" M 122.25 232.3 L 175.18 232.31 L 191.52 182.05 L 138.58 182.04 L 122.25 232.3 Z" stroke="#040000" stroke-miterlimit="10" fill="#808080" fill-rule="evenodd"/><path d=" M 45.24 75.77 L 2.5 106.82 L 18.86 157.19 L 61.61 126.13 L 45.24 75.77 Z" stroke="#040000" stroke-miterlimit="10" fill="#808080" fill-rule="evenodd"/><path d=" M 26.94 182.05 L 43.27 232.3 L 96.11 232.31 L 79.78 182.05 L 26.94 182.05 Z" stroke="#040000" stroke-miterlimit="10" fill="#808080" fill-rule="evenodd"/><path d=" M 61.61 126.13 L 18.86 157.19 L 26.94 182.05 L 79.78 182.05 L 61.61 126.13 Z" stroke="#040000" stroke-miterlimit="10" fill="#808080" fill-rule="evenodd"/><path d=" M 241.1 99.7 C 227.3 89.5867 213.453 79.4633 199.56 69.33 C 190.68 72.3633 181.73 75.4133 172.71 78.48 L 214.8 109.17 Z" stroke="#040000" stroke-miterlimit="10" fill="#EE0000" fill-rule="evenodd"/><path d=" M 243 99.09 C 243.092 99.3806 243.119 99.6877 243.08 99.99 C 242.973 100.719 242.473 101.33 241.78 101.58 L 215.48 111.05 C 214.857 111.272 214.164 111.17 213.63 110.78 L 171.54 80.1 C 170.647 79.4502 170.449 78.1994 171.099 77.3061 C 171.341 76.9732 171.68 76.7231 172.07 76.59 L 198.92 67.44 C 199.535 67.229 200.213 67.3297 200.74 67.71 L 242.28 98.09 C 242.619 98.3392 242.871 98.6892 243 99.09 Z M 215.13 106.93 L 236.89 99.09 L 199.23 71.55 L 177 79.14 Z" stroke="#040000" stroke-miterlimit="10" fill="#060001"/><path d=" M 150.85 33.68 C 150.85 43.28 150.85 52.9 150.9 62.6 C 158.187 67.9333 165.457 73.2267 172.71 78.48 C 181.73 75.42 190.68 72.37 199.56 69.33 C 191.473 63.39 183.37 57.46 175.25 51.54 Z" stroke="#040000" stroke-miterlimit="10" fill="#EE0000" fill-rule="evenodd"/><path d=" M 201.46 68.71 C 201.552 69.0075 201.579 69.3211 201.54 69.63 C 201.424 70.3625 200.912 70.9707 200.21 71.21 L 173.35 80.38 C 172.737 80.5846 172.063 80.4803 171.54 80.1 L 149.73 64.21 C 149.219 63.8365 148.915 63.2431 148.91 62.61 C 148.91 53.72 148.91 44.88 148.91 36.09 L 148.91 33.68 C 148.91 32.9291 149.331 32.2417 150 31.9 C 150.673 31.5576 151.481 31.6234 152.09 32.07 L 176.49 49.93 C 184.59 55.85 192.69 61.7767 200.79 67.71 C 201.111 67.9666 201.345 68.3158 201.46 68.71 Z M 173 76.26 L 195.26 68.67 L 174.08 53.15 L 152.85 37.62 C 152.85 45.5733 152.85 53.5733 152.85 61.62 Z" stroke="#040000" stroke-miterlimit="10" fill="#060001"/><path d=" M 106.71 1.37 C 106.56 10.92 106.42 20.49 106.35 30.15 C 121.243 40.99 136.093 51.8067 150.9 62.6 C 150.85 52.9 150.9 43.28 150.85 33.68 C 136.183 22.94 121.47 12.17 106.71 1.37 Z" stroke="#040000" stroke-miterlimit="10" fill="#EE0000" fill-rule="evenodd"/><path d=" M 27.06 254.69 C 44.2733 254.69 61.4433 254.69 78.57 254.69 C 84.09 247.25 89.57 239.81 95.07 232.38 L 43.46 232.38 C 38 239.81 32.52 247.27 27.06 254.69 Z" stroke="#040000" stroke-miterlimit="10" fill="#0000F2" fill-rule="evenodd"/><path d=" M 25.21 255.37 C 25.27 255.43 25.32 255.5 25.39 255.56 C 25.4209 255.608 25.4543 255.655 25.49 255.7 C 25.9445 256.027 26.4262 256.315 26.93 256.56 L 27 256.56 C 27.1811 256.61 27.3647 256.65 27.55 256.68 L 34 256.68 C 48.9 256.68 63.76 256.68 78.58 256.68 C 79.2095 256.68 79.8023 256.384 80.18 255.88 L 96.69 233.57 C 97.0704 233.052 97.1783 232.382 96.98 231.77 C 96.9486 231.67 96.9085 231.573 96.86 231.48 C 96.5183 230.811 95.8309 230.39 95.08 230.39 L 43.46 230.39 C 42.8234 230.392 42.2256 230.696 41.85 231.21 C 37.35 237.38 32.8 243.55 28.28 249.7 L 25.45 253.54 C 25.0765 254.074 24.9869 254.757 25.21 255.37 Z M 31.49 252 C 35.82 246.12 40.17 240.22 44.49 234.32 L 91.11 234.32 L 77.56 252.65 C 63.0733 252.65 48.55 252.65 33.99 252.65 L 31 252.65 Z" stroke="#040000" stroke-miterlimit="10" fill="#060001"/><path d=" M 138.14 254.57 C 132.653 247.17 127.137 239.763 121.59 232.35 C 112.76 232.35 103.9 232.35 95.07 232.35 C 89.56 239.78 84.07 247.22 78.57 254.66 C 88.57 254.66 98.5 254.66 108.4 254.61 Z" stroke="#040000" stroke-miterlimit="10" fill="#0000F2" fill-rule="evenodd"/><path d=" M 140 254 C 140.337 255.052 139.757 256.178 138.705 256.515 C 138.51 256.577 138.305 256.61 138.1 256.61 L 108.36 256.61 L 107.86 256.61 C 98.13 256.61 88.34 256.61 78.54 256.61 C 77.7833 256.611 77.0905 256.186 76.75 255.51 C 76.4105 254.835 76.4801 254.027 76.93 253.42 L 93.43 231.12 C 93.8056 230.613 94.3987 230.312 95.03 230.31 L 121.55 230.31 C 122.176 230.313 122.764 230.609 123.14 231.11 C 128.7 238.53 134.223 245.943 139.71 253.35 C 139.845 253.548 139.943 253.768 140 254 Z M 82.5 252.67 C 90.98 252.67 99.4333 252.67 107.86 252.67 L 134.13 252.67 C 129.623 246.597 125.097 240.517 120.55 234.43 L 96.08 234.43 Z" stroke="#040000" stroke-miterlimit="10" fill="#060001"/><path d=" M 191.43 254.5 C 186.03 247.113 180.593 239.72 175.12 232.32 L 121.59 232.32 C 127.15 239.727 132.667 247.133 138.14 254.54 Z" stroke="#040000" stroke-miterlimit="10" fill="#0000F2" fill-rule="evenodd"/><path d=" M 119.8 231.45 C 119.463 232.127 119.537 232.935 119.99 233.54 C 125.55 240.947 131.063 248.353 136.53 255.76 C 136.908 256.27 137.505 256.571 138.14 256.57 L 191.19 256.5 C 192.024 256.121 192.721 255.497 193.19 254.71 C 193.225 254.665 193.265 254.625 193.31 254.59 L 193.31 254.59 C 193.331 254.555 193.354 254.522 193.38 254.49 C 193.384 254.294 193.357 254.098 193.3 253.91 C 193.235 253.706 193.137 253.513 193.01 253.34 C 188.63 247.34 184.223 241.34 179.79 235.34 L 176.7 231.14 C 176.322 230.63 175.725 230.329 175.09 230.33 L 121.56 230.33 C 120.81 230.344 120.13 230.776 119.8 231.45 Z M 174.12 234.32 L 176.61 237.71 C 180.25 242.65 183.877 247.583 187.49 252.51 L 139.15 252.57 C 134.637 246.503 130.11 240.427 125.57 234.34 Z" stroke="#040000" stroke-miterlimit="10" fill="#060001"/><path d=" M 174.3 77.37 C 174.435 77.7689 174.435 78.2011 174.3 78.6 L 158.65 126.75 C 158.452 127.356 157.976 127.832 157.37 128.03 C 156.761 128.225 156.096 128.117 155.58 127.74 L 108 93.19 C 107.472 92.8274 107.167 92.22 107.19 91.58 C 107.189 90.9534 107.491 90.365 108 90 L 149 60.21 C 149.701 59.7013 150.649 59.7013 151.35 60.21 L 173.62 76.38 C 173.943 76.6325 174.18 76.9781 174.3 77.37 Z M 155.7 122.9 L 170.05 78.75 L 150.12 64.29 L 112.58 91.58 Z" stroke="#040000" stroke-miterlimit="10" fill="#060001"/><path d=" M 201.48 156.63 C 201.609 157.03 201.609 157.46 201.48 157.86 L 193.42 182.66 C 193.153 183.479 192.391 184.035 191.53 184.04 L 138.58 184.04 C 137.943 184.038 137.346 183.734 136.97 183.22 C 136.576 182.711 136.467 182.037 136.68 181.43 L 154.86 125.53 C 155.055 124.92 155.531 124.44 156.14 124.24 C 156.749 124.045 157.414 124.153 157.93 124.53 L 200.75 155.64 C 201.091 155.885 201.347 156.232 201.48 156.63 Z M 190.07 180.05 L 197.23 158 L 157.8 129.36 L 141.32 180 Z" stroke="#040000" stroke-miterlimit="10" fill="#060001"/><path d=" M 111.09 91 C 111.15 91.2012 111.18 91.4101 111.18 91.62 C 111.178 92.2566 110.874 92.8544 110.36 93.23 L 62.78 127.74 C 61.8839 128.386 60.6339 128.183 59.9881 127.287 C 59.8678 127.12 59.774 126.935 59.71 126.74 L 43.35 76.39 C 43.0838 75.5692 43.3741 74.6702 44.07 74.16 L 65.17 58.83 C 65.8686 58.3261 66.8114 58.3261 67.51 58.83 L 110.36 90 C 110.703 90.2477 110.959 90.5978 111.09 91 Z M 62.66 122.9 L 105.79 91.58 L 66.34 62.91 L 47.59 76.53 Z" stroke="#040000" stroke-miterlimit="10" fill="#060001"/><path d=" M 140.48 181.42 C 140.609 181.82 140.609 182.25 140.48 182.65 L 124.14 232.92 C 123.872 233.743 123.105 234.299 122.24 234.3 L 96.11 234.3 C 95.2475 234.301 94.4817 233.749 94.21 232.93 L 77.88 182.67 C 77.5431 181.618 78.1228 180.492 79.1747 180.155 C 79.3704 180.093 79.5745 180.06 79.78 180.06 L 138.58 180.06 C 139.442 180.059 140.208 180.611 140.48 181.43 Z M 120.79 230.31 L 135.79 184.04 L 82.52 184.04 L 97.52 230.31 Z" stroke="#040000" stroke-miterlimit="10" fill="#060001"/><path d=" M 193.42 181.43 C 193.545 181.834 193.545 182.266 193.42 182.67 L 177.08 232.93 C 176.808 233.749 176.042 234.301 175.18 234.3 L 122.24 234.3 C 121.602 234.296 121.003 233.988 120.63 233.47 C 120.24 232.963 120.134 232.292 120.35 231.69 L 136.68 181.43 C 136.948 180.607 137.715 180.051 138.58 180.05 L 191.52 180.05 C 192.382 180.049 193.148 180.601 193.42 181.42 Z M 173.73 230.31 L 188.73 184.05 L 140 184.05 L 125 230.3 Z" stroke="#040000" stroke-miterlimit="10" fill="#060001"/><path d=" M 47.14 75.15 L 63.51 125.51 C 63.7741 126.333 63.4796 127.232 62.78 127.74 L 20 158.81 C 19.4822 159.184 18.8172 159.288 18.21 159.09 C 17.6304 158.873 17.1836 158.401 17 157.81 L 0.6 107.44 C 0.335915 106.617 0.630374 105.718 1.33 105.21 L 44.07 74.21 C 44.9661 73.5642 46.2161 73.7671 46.8619 74.6632 C 46.9822 74.8301 47.076 75.0145 47.14 75.21 Z M 59.26 125.37 L 44.19 79 L 4.84 107.58 L 19.91 154 Z" stroke="#040000" stroke-miterlimit="10" fill="#060001"/><path d=" M 81.68 181.43 L 98 231.69 C 98.1949 232.299 98.0871 232.964 97.71 233.48 C 97.3344 233.994 96.7366 234.298 96.1 234.3 L 43.27 234.3 C 42.4075 234.301 41.6417 233.749 41.37 232.93 L 25 182.66 C 24.6631 181.608 25.2428 180.482 26.2947 180.145 C 26.4904 180.083 26.6945 180.05 26.9 180.05 L 79.78 180.05 C 80.6451 180.051 81.4118 180.607 81.68 181.43 Z M 93.36 230.32 L 78.33 184 L 29.69 184 L 44.69 230.26 Z" stroke="#040000" stroke-miterlimit="10" fill="#060001"/><path d=" M 63.51 125.51 L 81.68 181.43 C 81.8749 182.039 81.7671 182.704 81.39 183.22 C 81.0144 183.734 80.4166 184.038 79.78 184.04 L 26.94 184.04 C 26.0749 184.039 25.3082 183.483 25.04 182.66 L 17 157.81 C 16.7338 156.989 17.0241 156.09 17.72 155.58 L 60.47 124.52 C 60.9836 124.146 61.6443 124.038 62.25 124.23 C 62.8487 124.433 63.316 124.908 63.51 125.51 Z M 77 180.05 L 60.56 129.36 L 21.21 158 L 28.39 180.09 Z" stroke="#040000" stroke-miterlimit="10" fill="#060001"/><path d=" M 104.7 2.11 C 104.56 11.41 104.42 20.73 104.35 30.11 C 104.345 30.7536 104.65 31.3603 105.17 31.74 L 149.73 64.19 C 150.626 64.8362 151.876 64.6338 152.522 63.7379 C 152.767 63.3979 152.9 62.9893 152.9 62.57 C 152.85 53.69 152.85 44.86 152.85 36.07 L 152.85 33.68 C 152.852 33.4724 152.818 33.2661 152.75 33.07 C 152.624 32.6705 152.376 32.3208 152.04 32.07 L 109.53 1 C 108.898 0.66222 108.185 0.506437 107.47 0.55 C 106.525 0.682911 105.654 1.13448 105 1.83 C 104.926 1.94813 104.823 2.04472 104.7 2.11 Z M 148.85 34.69 L 148.85 36.09 C 148.85 43.5767 148.85 51.1033 148.85 58.67 L 108.35 29.14 C 108.42 21.14 108.53 13.19 108.64 5.26 Z" stroke="#040000" stroke-miterlimit="10" fill="#060001"/></g></g></svg>