<svg version="1.1" viewBox="0 0 271.67 256.28" xmlns="http://www.w3.org/2000/svg" xmlns:xlink="http://www.w3.org/1999/xlink" overflow="hidden"><defs></defs><g id="f561ba6b-39fb-4ae3-bac6-8de121217d7a"><g id="aa7b945d-7e49-418c-9e74-2be2b013fd38"><path d=" M 195.63 126.75 L 177.44 182.63 L 118.66 182.65 L 100.5 126.74 L 148.06 92.19 L 195.63 126.75 Z" fill="#808080"/><path d=" M 195.63 126.75 L 148.06 92.19 L 100.5 126.74 L 118.66 182.65 L 177.44 182.63 L 195.63 126.75 Z" stroke="#040000" stroke-miterlimit="10" fill="none"/><path d=" M 117.48 184.27 C 117.134 184.025 116.878 183.674 116.75 183.27 L 98.59 127.36 C 98.3259 126.537 98.6204 125.638 99.32 125.13 L 146.89 90.56 C 147.589 90.0561 148.531 90.0561 149.23 90.56 L 196.8 125.12 C 197.496 125.63 197.786 126.529 197.52 127.35 L 179.34 183.27 C 179.068 184.089 178.302 184.641 177.44 184.64 L 118.65 184.64 C 118.23 184.647 117.819 184.517 117.48 184.27 Z M 102.84 127.51 L 120.1 180.66 L 176 180.66 L 193.29 127.51 L 148.06 94.64 Z" stroke="#040000" stroke-miterlimit="10" fill="#211613"/><path d=" M 118.65 182.66 L 134.29 230.8 L 161.81 230.79 L 177.44 182.65 L 118.65 182.66 Z" stroke="#040000" stroke-miterlimit="10" fill="#808080" fill-rule="evenodd"/><path d=" M 161.81 230.79 L 214.79 230.79 L 230.41 182.66 L 177.44 182.65 L 161.81 230.79 Z" stroke="#040000" stroke-miterlimit="10" fill="#808080" fill-rule="evenodd"/><path d=" M 160.64 232.4 C 160.471 232.277 160.323 232.129 160.2 231.96 C 159.826 231.442 159.722 230.777 159.92 230.17 L 175.55 182 C 175.822 181.181 176.588 180.629 177.45 180.63 L 230.45 180.63 C 231.088 180.634 231.687 180.942 232.06 181.46 C 232.43 181.975 232.534 182.636 232.34 183.24 L 216.71 231.38 C 216.442 232.203 215.675 232.759 214.81 232.76 L 161.81 232.76 C 161.392 232.765 160.983 232.639 160.64 232.4 Z M 178.89 184.65 L 164.56 228.79 L 213.34 228.79 L 227.66 184.64 Z" stroke="#040000" stroke-miterlimit="10" fill="#060001"/><path d=" M 134.29 230.8 L 118.65 182.66 L 65.72 182.66 L 81.37 230.79 L 134.29 230.8 Z" stroke="#040000" stroke-miterlimit="10" fill="#808080" fill-rule="evenodd"/><path d=" M 80.2 232.41 C 79.8539 232.168 79.6001 231.815 79.48 231.41 L 63.83 183.28 C 63.4931 182.228 64.0727 181.102 65.1246 180.765 C 65.3171 180.704 65.5179 180.671 65.72 180.67 L 118.65 180.67 C 119.515 180.671 120.282 181.227 120.55 182.05 L 136.19 230.19 C 136.532 231.24 135.959 232.369 134.909 232.711 C 134.709 232.777 134.5 232.81 134.29 232.81 L 81.37 232.81 C 80.9475 232.804 80.538 232.664 80.2 232.41 Z M 68.47 184.66 L 82.82 228.8 L 131.54 228.8 L 117.2 184.65 Z" stroke="#040000" stroke-miterlimit="10" fill="#060001"/><path d=" M 100.49 126.74 L 57.66 157.85 L 65.72 182.66 L 118.65 182.66 L 100.49 126.74 Z" stroke="#040000" stroke-miterlimit="10" fill="#808080" fill-rule="evenodd"/><path d=" M 177.44 182.65 L 230.41 182.66 L 238.47 157.86 L 195.63 126.73 L 177.44 182.65 Z" stroke="#040000" stroke-miterlimit="10" fill="#808080" fill-rule="evenodd"/><path d=" M 148.06 92.17 L 105.31 61.11 L 84.17 76.48 L 100.49 126.74 L 148.06 92.17 Z" stroke="#040000" stroke-miterlimit="10" fill="#808080" fill-rule="evenodd"/><path d=" M 84.17 76.48 L 41.34 107.59 L 57.66 157.85 L 100.49 126.74 L 84.17 76.48 Z" stroke="#040000" stroke-miterlimit="10" fill="#808080" fill-rule="evenodd"/><path d=" M 238.47 157.86 L 254.8 107.61 L 211.95 76.48 L 195.63 126.73 L 238.47 157.86 Z" stroke="#040000" stroke-miterlimit="10" fill="#808080" fill-rule="evenodd"/><path d=" M 190.81 61.12 L 148.06 30.06 L 105.31 61.11 L 148.06 92.17 L 190.81 61.12 Z" stroke="#040000" stroke-miterlimit="10" fill="#808080" fill-rule="evenodd"/><path d=" M 195.63 126.73 L 211.95 76.48 L 190.81 61.12 L 148.06 92.17 L 195.63 126.73 Z" stroke="#040000" stroke-miterlimit="10" fill="#808080" fill-rule="evenodd"/><path d=" M 66 253.61 C 83.1133 253.677 100.267 253.733 117.46 253.78 C 122.86 246.1 128.307 238.367 133.8 230.58 L 81.71 230.5 Z" stroke="#040000" stroke-miterlimit="10" fill="#00D800" fill-rule="evenodd"/><path d=" M 64.78 255.23 C 64.532 255.051 64.327 254.818 64.18 254.55 C 63.8353 253.894 63.8815 253.101 64.3 252.49 L 80 229.38 C 80.3728 228.836 80.9902 228.51 81.65 228.51 L 133.74 228.59 C 134.845 228.593 135.737 229.492 135.734 230.596 C 135.732 231.006 135.605 231.405 135.37 231.74 L 119 254.92 C 118.627 255.458 118.014 255.779 117.36 255.78 L 65.9 255.61 C 65.4969 255.599 65.1065 255.467 64.78 255.23 Z M 82.72 232.5 L 69.72 251.63 L 116.38 251.78 L 129.92 232.57 Z" stroke="#040000" stroke-miterlimit="10" fill="#060001"/><path d=" M 3.32 191.12 C 12.9733 204.247 22.5833 217.323 32.15 230.35 C 35.03 226.23 37.88 222.06 40.8 217.92 C 43.72 213.78 46.59 209.57 49.52 205.38 C 46.52 196.22 43.52 187.02 40.52 177.78 C 37.52 168.54 34.4733 159.207 31.38 149.78 C 26.55 148.32 21.74 146.83 16.93 145.38 C 12.12 143.93 7.3 142.47 2.5 141 C 2.77333 157.847 3.04667 174.553 3.32 191.12 Z" stroke="#040000" stroke-miterlimit="10" fill="#00D800" fill-rule="evenodd"/><path d=" M 31 232 C 30.8296 231.883 30.6808 231.738 30.56 231.57 C 23.0067 221.257 15.4233 210.937 7.81 200.61 L 1.71 192.31 C 1.46396 191.976 1.32767 191.574 1.32 191.16 L 0.5 141 C 0.485642 139.896 1.36936 138.989 2.47383 138.974 C 2.6791 138.971 2.88355 139 3.08 139.06 L 31.94 147.88 C 32.558 148.079 33.0467 148.557 33.26 149.17 L 51.42 204.73 C 51.6089 205.329 51.5131 205.981 51.16 206.5 L 42.44 219.04 C 40.76 221.43 39.09 223.83 37.44 226.21 L 33.79 231.47 C 33.4209 231.995 32.822 232.312 32.18 232.32 C 31.7629 232.339 31.3503 232.227 31 232 Z M 5.3 190.45 L 11 198.24 C 18.0667 207.82 25.1 217.377 32.1 226.91 L 34.16 224 C 35.82 221.6 37.4867 219.203 39.16 216.81 L 47.31 205.1 L 29.79 151.42 L 4.54 143.7 Z" stroke="#040000" stroke-miterlimit="10" fill="#060001"/><path d=" M 49.52 205.38 C 54.8 197.84 60.0933 190.247 65.4 182.6 L 57.4 157.79 L 31.4 149.79 C 34.46 159.123 37.5067 168.457 40.54 177.79 C 43.5733 187.123 46.5667 196.32 49.52 205.38 Z" stroke="#040000" stroke-miterlimit="10" fill="#00D800" fill-rule="evenodd"/><path d=" M 48.35 207 C 48.007 206.752 47.7514 206.402 47.62 206 L 29.47 150.43 C 29.2461 149.728 29.4267 148.959 29.94 148.43 C 30.4628 147.906 31.2322 147.714 31.94 147.93 L 57.99 155.93 C 58.6101 156.122 59.0986 156.603 59.3 157.22 L 67.3 182.03 C 67.4934 182.625 67.3972 183.276 67.04 183.79 C 61.7067 191.417 56.4133 199.01 51.16 206.57 C 50.728 207.193 49.9806 207.519 49.23 207.41 C 48.9092 207.342 48.6082 207.202 48.35 207 Z M 34.46 152.85 L 50.18 201 C 54.5067 194.8 58.84 188.57 63.18 182.31 L 55.81 159.43 Z" stroke="#040000" stroke-miterlimit="10" fill="#060001"/><path d=" M 148 2.42 C 134.093 12.5533 120.213 22.6567 106.36 32.73 C 106.26 41.99 106.2 51.22 106.12 60.47 L 147.86 30.13 C 147.89 20.9 148 11.63 148 2.42 Z" stroke="#040000" stroke-miterlimit="10" fill="#ADD8E6" fill-rule="evenodd"/><path d=" M 149.11 0.78 L 148.85 0.73 C 148.795 0.714602 148.742 0.694529 148.69 0.67 C 148.123 0.675336 147.558 0.728862 147 0.83 L 146.91 0.88 L 146.38 1.11 L 141.21 4.88 C 129.21 13.66 117.21 22.4067 105.21 31.12 C 104.698 31.4893 104.39 32.0787 104.38 32.71 L 104.14 60.45 C 104.132 61.0971 104.437 61.7082 104.96 62.09 L 105.22 62.25 C 105.893 62.5924 106.701 62.5266 107.31 62.08 L 149 31.75 C 149.514 31.3744 149.818 30.7766 149.82 30.14 C 149.82 22.5 149.9 14.83 149.94 7.2 L 149.94 2.43 C 149.949 1.77753 149.639 1.16167 149.11 0.78 Z M 146 7.17 C 145.947 14.5033 145.907 21.8167 145.88 29.11 L 108.15 56.53 L 108.35 33.75 C 120.083 25.25 131.827 16.7033 143.58 8.11 L 146 6.36 Z" stroke="#040000" stroke-miterlimit="10" fill="#060001"/><path d=" M 239.25 18.41 C 223.25 13.0767 207.22 7.77333 191.16 2.5 C 191.16 7.66 191.23 12.84 191.26 17.99 C 191.29 23.14 191.33 28.34 191.37 33.49 C 199.37 39.3167 207.397 45.1567 215.45 51.01 L 239.59 68.55 C 244.51 66.99 249.44 65.42 254.36 63.88 C 259.28 62.34 264.22 60.77 269.17 59.21 C 259.183 45.61 249.21 32.01 239.25 18.41 Z" stroke="#040000" stroke-miterlimit="10" fill="#ADD8E6" fill-rule="evenodd"/><path d=" M 238.42 70.16 L 190.2 35.16 C 189.685 34.7886 189.377 34.1948 189.37 33.56 L 189.16 2.56 C 189.126 1.45596 189.993 0.533146 191.097 0.498828 C 191.332 0.491518 191.567 0.525767 191.79 0.6 L 225.42 11.74 L 239.87 16.51 C 240.271 16.6388 240.621 16.8907 240.87 17.23 C 250.87 30.95 260.87 44.49 270.79 58.03 C 271.445 58.9196 271.254 60.1715 270.365 60.8263 C 270.19 60.9547 269.996 61.0539 269.79 61.12 L 240.21 70.45 C 239.601 70.6449 238.936 70.5371 238.42 70.16 Z M 193.36 32.47 L 240 66.34 L 266 58.14 C 256.667 45.4733 247.367 32.8067 238.1 20.14 L 224.26 15.57 C 213.933 12.15 203.6 8.73 193.26 5.31 Z" stroke="#040000" stroke-miterlimit="10" fill="#060001"/><path d=" M 191.37 33.49 C 191.417 42.79 191.48 52.09 191.56 61.39 L 212.94 76.93 C 221.813 74.1367 230.697 71.3433 239.59 68.55 L 215.45 51 C 207.417 45.18 199.39 39.3433 191.37 33.49 Z" stroke="#040000" stroke-miterlimit="10" fill="#ADD8E6" fill-rule="evenodd"/><path d=" M 211.77 78.54 L 190.39 63 C 189.879 62.6265 189.575 62.0331 189.57 61.4 C 189.49 52.0667 189.423 42.7667 189.37 33.5 C 189.367 32.7455 189.788 32.0533 190.46 31.71 C 191.128 31.3689 191.932 31.4307 192.54 31.87 L 240.76 66.92 C 241.651 67.5731 241.843 68.8247 241.19 69.7155 C 240.939 70.0582 240.585 70.312 240.18 70.44 L 213.54 78.82 C 212.939 79.011 212.283 78.9072 211.77 78.54 Z M 193.55 60.37 L 213.3 74.72 L 235.21 67.83 L 193.39 37.43 C 193.43 45.07 193.483 52.7167 193.55 60.37 Z" stroke="#040000" stroke-miterlimit="10" fill="#060001"/><path d=" M 133.12 232.42 C 132.781 232.171 132.529 231.821 132.4 231.42 L 116.76 183.27 C 116.562 182.663 116.666 181.998 117.04 181.48 C 117.416 180.966 118.013 180.662 118.65 180.66 L 177.45 180.66 C 178.089 180.64 178.693 180.95 179.05 181.48 C 179.427 181.996 179.535 182.661 179.34 183.27 L 163.71 231.4 C 163.446 232.223 162.684 232.784 161.82 232.79 L 134.3 232.79 C 133.877 232.794 133.464 232.665 133.12 232.42 Z M 121.4 184.65 L 135.75 228.8 L 160.36 228.8 L 174.69 184.65 Z" stroke="#040000" stroke-miterlimit="10" fill="#060001"/><path d=" M 64.55 184.27 C 64.2028 184.029 63.9487 183.676 63.83 183.27 L 55.77 158.46 C 55.5038 157.639 55.7941 156.74 56.49 156.23 L 99.32 125.12 C 99.8378 124.746 100.503 124.642 101.11 124.84 C 101.729 125.02 102.215 125.502 102.4 126.12 L 120.55 182 C 120.887 183.052 120.307 184.178 119.255 184.515 C 119.06 184.577 118.855 184.61 118.65 184.61 L 65.72 184.61 C 65.303 184.63 64.8911 184.511 64.55 184.27 Z M 60 158.61 L 67.16 180.67 L 115.9 180.67 L 99.45 130 Z" stroke="#040000" stroke-miterlimit="10" fill="#060001"/><path d=" M 176.27 184.27 C 176.099 184.146 175.95 183.994 175.83 183.82 C 175.456 183.302 175.352 182.637 175.55 182.03 L 193.73 126.12 C 193.927 125.508 194.408 125.027 195.02 124.83 C 195.626 124.638 196.286 124.746 196.8 125.12 L 239.64 156.24 C 240.336 156.75 240.626 157.649 240.36 158.47 L 232.31 183.27 C 232.042 184.093 231.275 184.649 230.41 184.65 L 177.41 184.65 C 177 184.643 176.602 184.511 176.27 184.27 Z M 196.68 130 L 180.19 180.7 L 229 180.7 L 236.16 158.7 Z" stroke="#040000" stroke-miterlimit="10" fill="#060001"/><path d=" M 99.32 128.36 C 98.9807 128.111 98.7288 127.761 98.6 127.36 L 82.27 77.1 C 82.0059 76.277 82.3004 75.3775 83 74.87 L 104.14 59.5 C 104.839 58.9961 105.781 58.9961 106.48 59.5 L 149.23 90.57 C 150.119 91.2253 150.309 92.4774 149.653 93.3665 C 149.534 93.5281 149.392 93.6709 149.23 93.79 L 101.67 128.37 C 101.152 128.744 100.487 128.848 99.88 128.65 C 99.678 128.586 99.4886 128.488 99.32 128.36 Z M 86.51 77.24 L 101.51 123.51 L 144.64 92.17 L 105.31 63.58 Z" stroke="#040000" stroke-miterlimit="10" fill="#060001"/><path d=" M 56.49 159.47 C 56.1513 159.218 55.8968 158.869 55.76 158.47 L 39.44 108.2 C 39.1807 107.38 39.4747 106.486 40.17 105.98 L 83 74.87 C 83.516 74.4929 84.1813 74.3851 84.79 74.58 C 85.4046 74.7646 85.8854 75.2454 86.07 75.86 L 102.4 126.13 C 102.666 126.951 102.376 127.85 101.68 128.36 L 58.84 159.46 C 58.324 159.837 57.6587 159.945 57.05 159.75 C 56.8492 159.688 56.66 159.594 56.49 159.47 Z M 43.68 108.35 L 58.68 154.62 L 98.15 126 L 83.15 79.73 Z" stroke="#040000" stroke-miterlimit="10" fill="#060001"/><path d=" M 237.29 159.47 L 194.46 128.35 C 193.76 127.842 193.466 126.943 193.73 126.12 L 210.05 75.86 C 210.394 74.8103 211.523 74.2381 212.573 74.5819 C 212.769 74.6459 212.953 74.7397 213.12 74.86 L 256 106 C 256.696 106.51 256.986 107.409 256.72 108.23 L 240.39 158.48 C 240.046 159.53 238.917 160.102 237.867 159.758 C 237.671 159.694 237.487 159.6 237.32 159.48 Z M 198 126 L 237.44 154.66 L 252.44 108.4 L 213 79.7 Z" stroke="#040000" stroke-miterlimit="10" fill="#060001"/><path d=" M 146.89 93.79 L 104.13 62.72 C 103.616 62.3444 103.312 61.7466 103.31 61.11 C 103.314 60.4716 103.622 59.8734 104.14 59.5 L 146.89 28.5 C 147.589 27.9961 148.531 27.9961 149.23 28.5 L 192 59.5 C 192.892 60.1516 193.087 61.4028 192.435 62.2947 C 192.314 62.4614 192.167 62.6082 192 62.73 L 149.23 93.78 C 148.534 94.2869 147.591 94.2909 146.89 93.79 Z M 108.7 61.11 L 148.06 89.7 L 187.41 61.12 L 148.06 32.53 Z" stroke="#040000" stroke-miterlimit="10" fill="#060001"/><path d=" M 194.46 128.35 L 146.89 93.79 C 145.998 93.1385 145.803 91.8872 146.455 90.9953 C 146.576 90.8286 146.723 90.6818 146.89 90.56 L 189.64 59.5 C 190.339 58.9961 191.281 58.9961 191.98 59.5 L 213.12 74.86 C 213.816 75.3702 214.106 76.2692 213.84 77.09 L 197.52 127.35 C 197.324 127.954 196.853 128.429 196.25 128.63 C 195.643 128.828 194.978 128.724 194.46 128.35 Z M 151.46 92.17 L 194.58 123.5 L 209.58 77.24 L 190.81 63.58 Z" stroke="#040000" stroke-miterlimit="10" fill="#060001"/></g></g></svg>