<svg version="1.1" viewBox="0 0 242.65 230.63" xmlns="http://www.w3.org/2000/svg" xmlns:xlink="http://www.w3.org/1999/xlink" overflow="hidden"><defs></defs><g id="be952ae3-030f-4799-9078-145cf2142f76"><g id="f0fbaa88-169f-4434-b346-39bfbc8ed61c"><path d=" M 135.26 64.67 L 182.83 99.25 L 164.65 155.18 L 105.87 155.16 L 87.68 99.23 L 135.26 64.67 Z" fill="#808080"/><path d=" M 135.26 64.67 L 87.68 99.23 L 105.87 155.16 L 164.65 155.18 L 182.83 99.25 L 135.26 64.67 Z" stroke="#040000" stroke-miterlimit="10" fill="none"/><path d=" M 165.83 156.79 C 165.49 157.036 165.08 157.169 164.66 157.17 L 105.87 157.17 C 105.009 157.165 104.247 156.609 103.98 155.79 L 85.8 99.86 C 85.5338 99.0392 85.8241 98.1402 86.52 97.63 L 134.09 63.06 C 134.789 62.5561 135.731 62.5561 136.43 63.06 L 184 97.64 C 184.696 98.1502 184.986 99.0492 184.72 99.87 L 166.56 155.79 C 166.429 156.192 166.173 156.542 165.83 156.79 Z M 107.33 153.16 L 163.21 153.16 L 180.48 100 L 135.26 67.15 L 90 100 Z" stroke="#040000" stroke-miterlimit="10" fill="#211613"/><path d=" M 164.66 155.17 L 215.29 155.17 L 223.78 128.99 L 182.82 99.26 L 164.66 155.17 Z" stroke="#040000" stroke-miterlimit="10" fill="#808080" fill-rule="evenodd"/><path d=" M 223.78 128.99 L 240.15 78.62 L 199.2 48.88 L 182.82 99.26 L 223.78 128.99 Z" stroke="#040000" stroke-miterlimit="10" fill="#808080" fill-rule="evenodd"/><path d=" M 225 130.61 C 224.831 130.735 224.641 130.829 224.44 130.89 C 223.836 131.084 223.175 130.98 222.66 130.61 L 181.66 100.87 C 180.964 100.36 180.674 99.4608 180.94 98.64 L 197.3 48.26 C 197.503 47.6613 197.978 47.194 198.58 47 C 199.189 46.8051 199.854 46.9129 200.37 47.29 L 241.32 77 C 242.02 77.5075 242.314 78.407 242.05 79.23 L 225.67 129.6 C 225.557 129.998 225.322 130.351 225 130.61 Z M 185.17 98.49 L 222.73 125.76 L 237.8 79.38 L 200.25 52.11 Z" stroke="#040000" stroke-miterlimit="10" fill="#060001"/><path d=" M 215.29 155.17 L 164.66 155.17 L 148.31 205.51 L 198.92 205.5 L 215.29 155.17 Z" stroke="#040000" stroke-miterlimit="10" fill="#808080" fill-rule="evenodd"/><path d=" M 200.1 207.12 C 199.76 207.367 199.35 207.497 198.93 207.49 L 148.31 207.49 C 147.205 207.489 146.311 206.593 146.311 205.489 C 146.312 205.278 146.345 205.07 146.41 204.87 L 162.77 154.53 C 163.041 153.715 163.801 153.164 164.66 153.16 L 215.28 153.16 C 216.385 153.163 217.278 154.06 217.275 155.165 C 217.275 155.37 217.243 155.574 217.18 155.77 L 200.82 206.1 C 200.695 206.508 200.443 206.866 200.1 207.12 Z M 151.1 203.51 L 197.52 203.51 L 212.58 157.17 L 166.11 157.17 Z" stroke="#040000" stroke-miterlimit="10" fill="#060001"/><path d=" M 105.88 155.16 L 122.22 205.51 L 148.31 205.51 L 164.66 155.17 L 105.88 155.16 Z" stroke="#040000" stroke-miterlimit="10" fill="#808080" fill-rule="evenodd"/><path d=" M 182.82 99.26 L 199.2 48.88 L 178.1 33.56 L 135.26 64.68 L 182.82 99.26 Z" stroke="#040000" stroke-miterlimit="10" fill="#808080" fill-rule="evenodd"/><path d=" M 87.69 99.24 L 44.94 130.3 L 53.02 155.16 L 105.88 155.16 L 87.69 99.24 Z" stroke="#040000" stroke-miterlimit="10" fill="#808080" fill-rule="evenodd"/><path d=" M 53.02 155.16 L 69.38 205.51 L 122.22 205.51 L 105.88 155.16 L 53.02 155.16 Z" stroke="#040000" stroke-miterlimit="10" fill="#808080" fill-rule="evenodd"/><path d=" M 178.1 33.56 L 135.36 2.5 L 92.51 33.63 L 135.26 64.68 L 178.1 33.56 Z" stroke="#040000" stroke-miterlimit="10" fill="#808080" fill-rule="evenodd"/><path d=" M 71.37 48.99 L 28.62 80.05 L 44.94 130.3 L 87.69 99.24 L 71.37 48.99 Z" stroke="#040000" stroke-miterlimit="10" fill="#808080" fill-rule="evenodd"/><path d=" M 135.26 64.68 L 92.51 33.63 L 71.37 48.99 L 87.69 99.24 L 135.26 64.68 Z" stroke="#040000" stroke-miterlimit="10" fill="#808080" fill-rule="evenodd"/><path d=" M 55.05 228.14 C 72.31 228.093 89.4433 228.06 106.45 228.04 C 111.67 220.6 116.88 213.163 122.08 205.73 L 70.78 205.61 C 65.5933 213.123 60.35 220.633 55.05 228.14 Z" stroke="#040000" stroke-miterlimit="10" fill="#EEE8AA" fill-rule="evenodd"/><path d=" M 122.09 203.73 L 70.79 203.61 C 70.1339 203.606 69.5173 203.923 69.14 204.46 C 64.24 211.54 59.3067 218.61 54.34 225.67 L 53.42 227 C 52.9943 227.612 52.9442 228.41 53.29 229.07 C 53.4106 229.293 53.5737 229.49 53.77 229.65 L 53.77 229.65 C 53.9156 229.682 54.0545 229.74 54.18 229.82 L 55 230 L 55.55 230.12 C 72.63 230.073 89.5967 230.04 106.45 230.02 C 106.87 230.019 107.28 229.886 107.62 229.64 C 107.795 229.506 107.95 229.348 108.08 229.17 L 123.71 206.87 C 124.345 205.966 124.127 204.719 123.224 204.084 C 122.889 203.848 122.489 203.721 122.08 203.72 Z M 105.42 226 L 58.89 226.09 C 63.2167 219.91 67.5267 213.737 71.82 207.57 L 118.25 207.67 Z" stroke="#040000" stroke-miterlimit="10" fill="#060001"/><path d=" M 164.91 227.94 C 159.37 220.607 153.783 213.227 148.15 205.8 L 122.08 205.73 C 116.873 213.183 111.663 220.62 106.45 228.04 L 135.87 227.98 Z" stroke="#040000" stroke-miterlimit="10" fill="#FFA100" fill-rule="evenodd"/><path d=" M 166.08 229.55 C 165.744 229.798 165.338 229.934 164.92 229.94 L 106.46 230.03 C 105.355 230.028 104.461 229.131 104.463 228.027 C 104.464 227.62 104.588 227.224 104.82 226.89 L 120.45 204.58 C 120.825 204.046 121.437 203.729 122.09 203.73 L 148.16 203.8 C 148.782 203.806 149.367 204.102 149.74 204.6 C 155.36 212 160.947 219.377 166.5 226.73 C 166.96 227.335 167.038 228.149 166.7 228.83 C 166.554 229.116 166.342 229.363 166.08 229.55 Z M 110.3 226 L 160.91 225.92 C 156.363 219.92 151.78 213.867 147.16 207.76 L 123.16 207.7 Z" stroke="#040000" stroke-miterlimit="10" fill="#060001"/><path d=" M 216.36 227.84 C 210.987 220.58 205.577 213.277 200.13 205.93 C 182.943 205.93 165.61 205.887 148.13 205.8 C 153.75 213.213 159.337 220.593 164.89 227.94 Z" stroke="#040000" stroke-miterlimit="10" fill="#EEE8AA" fill-rule="evenodd"/><path d=" M 200.14 203.93 L 148.14 203.8 C 147.381 203.8 146.688 204.23 146.35 204.91 C 146.009 205.589 146.083 206.403 146.54 207.01 C 152.16 214.41 157.747 221.787 163.3 229.14 C 163.678 229.637 164.266 229.929 164.89 229.93 L 215.02 229.84 C 215.233 229.773 215.437 229.682 215.63 229.57 L 215.91 229.44 C 216.047 229.309 216.216 229.215 216.4 229.17 C 216.541 229.035 216.713 228.935 216.9 228.88 C 217.335 228.502 217.642 227.999 217.78 227.44 C 217.817 227.227 217.915 227.03 218.06 226.87 C 218.029 226.797 217.993 226.727 217.95 226.66 L 201.72 204.74 C 201.344 204.244 200.762 203.946 200.14 203.93 Z M 212.4 225.85 L 165.91 225.94 C 161.363 219.94 156.787 213.897 152.18 207.81 L 199.13 207.93 Z" stroke="#040000" stroke-miterlimit="10" fill="#040000"/><path d=" M 2.32 71.55 C 7.65333 87.91 12.9867 104.243 18.32 120.55 C 27.1 123.55 35.86 126.41 44.63 129.35 C 39.2967 113.03 33.9633 96.67 28.63 80.27 C 19.86 77.37 11.06 74.45 2.32 71.55 Z" stroke="#040000" stroke-miterlimit="10" fill="#FFA100" fill-rule="evenodd"/><path d=" M 1.1 70 L 1 70.23 C 0.969051 70.2783 0.935675 70.3251 0.9 70.37 C 0.719727 70.9007 0.58589 71.4461 0.5 72 C 0.505595 72.0331 0.505595 72.0669 0.5 72.1 C 0.510098 72.2909 0.530125 72.4812 0.56 72.67 L 2.56 78.75 C 7.18667 92.9167 11.7933 107.047 16.38 121.14 C 16.574 121.742 17.0413 122.217 17.64 122.42 L 44 131.22 C 44.6131 131.425 45.2874 131.32 45.81 130.94 C 45.8936 130.882 45.9707 130.815 46.04 130.74 C 46.5603 130.215 46.7488 129.446 46.53 128.74 L 30.53 79.63 C 30.3319 79.0236 29.8564 78.5481 29.25 78.35 C 22 76 14.72 73.56 7.47 71.16 L 2.94 69.66 C 2.3082 69.4617 1.61923 69.5891 1.1 70 Z M 6.22 75 C 13.15 77.29 20.1 79.61 27.05 81.89 L 41.46 126.23 L 19.86 119 C 15.3933 105.22 10.8933 91.41 6.36 77.57 L 5.44 74.74 Z" stroke="#040000" stroke-miterlimit="10" fill="#060001"/><path d=" M 36.75 177.16 C 42.0833 169.653 47.4167 162.117 52.75 154.55 C 50.05 146.183 47.33 137.777 44.59 129.33 C 35.82 126.39 27.06 123.48 18.28 120.53 C 21.4 130.003 24.4867 139.457 27.54 148.89 C 30.5933 158.323 33.6633 167.747 36.75 177.16 Z" stroke="#040000" stroke-miterlimit="10" fill="#FF1493" fill-rule="evenodd"/><path d=" M 37.93 178.77 C 37.0339 179.416 35.7839 179.213 35.1381 178.317 C 35.0178 178.15 34.924 177.965 34.86 177.77 C 31.8 168.363 28.7267 158.94 25.64 149.5 L 25.48 149.03 C 22.48 139.77 19.4467 130.477 16.38 121.15 C 16.1612 120.444 16.3497 119.675 16.87 119.15 C 17.4159 118.63 18.2002 118.447 18.92 118.67 L 45.23 127.47 C 45.8287 127.673 46.296 128.148 46.49 128.75 C 49.2167 137.15 51.9467 145.557 54.68 153.97 C 54.8705 154.567 54.7706 155.218 54.41 155.73 C 49.0767 163.317 43.7433 170.86 38.41 178.36 C 38.2762 178.525 38.1135 178.664 37.93 178.77 Z M 21.42 123.68 C 24.0867 131.74 26.7067 139.777 29.28 147.79 C 32.09 156.38 34.77 164.6 37.43 172.79 C 41.81 166.617 46.19 160.43 50.57 154.23 C 48.0633 146.457 45.54 138.68 43 130.9 Z" stroke="#040000" stroke-miterlimit="10" fill="#060001"/><path d=" M 53.29 227.82 C 58.6233 220.4 63.9733 212.947 69.34 205.46 C 63.84 188.52 58.32 171.55 52.78 154.55 C 47.4467 162.13 42.1133 169.667 36.78 177.16 C 42.3 194.067 47.8033 210.953 53.29 227.82 Z" stroke="#040000" stroke-miterlimit="10" fill="#FF1493" fill-rule="evenodd"/><path d=" M 53.08 152.57 C 52.3315 152.459 51.5845 152.781 51.15 153.4 C 45.8167 160.967 40.4833 168.5 35.15 176 C 34.7795 176.515 34.6756 177.176 34.87 177.78 L 51.33 228.21 C 51.9527 228.889 52.7641 229.366 53.66 229.58 C 53.7165 229.595 53.7704 229.619 53.82 229.65 L 53.82 229.65 C 53.8565 229.645 53.8935 229.645 53.93 229.65 C 54.3337 229.532 54.686 229.282 54.93 228.94 C 59.27 222.94 63.6033 216.9 67.93 210.82 L 70.93 206.58 C 71.2971 206.063 71.3972 205.403 71.2 204.8 L 54.68 153.93 C 54.4467 153.211 53.8276 152.684 53.08 152.57 Z M 67.08 205.12 L 64.63 208.54 C 61.0833 213.513 57.54 218.487 54 223.46 L 39 177.46 C 43.38 171.3 47.7633 165.117 52.15 158.91 Z" stroke="#040000" stroke-miterlimit="10" fill="#060001"/><path d=" M 45.27 39.92 C 54.1167 42.74 62.98 45.5533 71.86 48.36 L 93.25 32.82 C 93.33 23.5333 93.4167 14.2233 93.51 4.89 L 69.37 22.43 Z" stroke="#040000" stroke-miterlimit="10" fill="#ADD8E6" fill-rule="evenodd"/><path d=" M 94.42 34.44 L 73 50 C 72.4864 50.3739 71.8257 50.4815 71.22 50.29 C 62.34 47.49 53.4767 44.6767 44.63 41.85 C 43.578 41.5134 42.998 40.3876 43.3347 39.3356 C 43.4638 38.932 43.7178 38.5799 44.06 38.33 L 92.3 3.33 C 92.9107 2.88663 93.7189 2.82475 94.39 3.17 C 95.0612 3.51768 95.4791 4.21411 95.47 4.97 L 95.2 32.89 C 95.1893 33.4984 94.9023 34.0689 94.42 34.44 Z M 71.51 46.15 L 91.26 31.8 L 91.48 8.8 L 49.64 39.22 C 56.92 41.54 64.21 43.85 71.51 46.15 Z" stroke="#040000" stroke-miterlimit="10" fill="#040000"/><path d=" M 1.92 71.4 C 10.78 74.2333 19.65 77.0467 28.53 79.84 L 71.86 48.36 C 62.9933 45.56 54.13 42.7467 45.27 39.92 Z" stroke="#040000" stroke-miterlimit="10" fill="#ADD8E6" fill-rule="evenodd"/><path d=" M 45.87 38 C 45.2689 37.809 44.6128 37.9128 44.1 38.28 L 1.66 69.12 C 1.40799 69.47 1.18714 69.8414 1 70.23 C 0.969051 70.2783 0.935675 70.3251 0.9 70.37 C 0.718671 70.8998 0.588084 71.4455 0.51 72 C 0.51 72 0.51 72.07 0.51 72.11 C 0.51 72.33 0.51 72.55 0.58 72.77 C 0.575111 72.7964 0.575111 72.8236 0.58 72.85 C 0.782676 73.0505 1.02916 73.2011 1.3 73.29 C 10.1733 76.13 19.0467 78.95 27.92 81.75 C 28.5227 81.9381 29.1789 81.8306 29.69 81.46 L 73 50 C 73.6117 49.5564 73.9212 48.8059 73.8 48.06 C 73.677 47.3175 73.1476 46.707 72.43 46.48 C 63.5767 43.66 54.7233 40.8333 45.87 38 Z M 28.17 77.64 C 20.8367 75.3267 13.5433 72.9933 6.29 70.64 L 45.62 42.13 C 52.9067 44.45 60.1967 46.7633 67.49 49.07 Z" stroke="#040000" stroke-miterlimit="10" fill="#060001"/><path d=" M 216.46 156.79 C 216.12 157.036 215.71 157.169 215.29 157.17 L 164.66 157.17 C 164.023 157.168 163.426 156.864 163.05 156.35 C 162.673 155.83 162.569 155.16 162.77 154.55 L 180.93 98.64 C 181.108 98.0215 181.591 97.538 182.21 97.36 C 182.817 97.1622 183.482 97.2663 184 97.64 L 225 127.38 C 225.7 127.888 225.994 128.787 225.73 129.61 L 217.24 155.79 C 217.092 156.197 216.819 156.547 216.46 156.79 Z M 167.41 153.17 L 213.83 153.17 L 221.43 129.76 L 183.87 102.49 Z" stroke="#040000" stroke-miterlimit="10" fill="#060001"/><path d=" M 149.48 207.13 C 149.14 207.376 148.73 207.509 148.31 207.51 L 122.23 207.51 C 121.365 207.509 120.598 206.953 120.33 206.13 L 104 155.78 C 103.802 155.173 103.906 154.508 104.28 153.99 C 104.649 153.461 105.256 153.15 105.9 153.16 L 164.68 153.16 C 165.32 153.158 165.922 153.463 166.3 153.98 C 166.674 154.498 166.778 155.163 166.58 155.77 L 150.2 206.13 C 150.077 206.534 149.824 206.885 149.48 207.13 Z M 123.68 203.51 L 146.86 203.51 L 161.92 157.16 L 108.63 157.16 Z" stroke="#040000" stroke-miterlimit="10" fill="#060001"/><path d=" M 184 100.87 C 183.299 101.379 182.351 101.379 181.65 100.87 L 134.09 66.29 C 133.576 65.9144 133.272 65.3166 133.27 64.68 C 133.268 64.0399 133.573 63.4377 134.09 63.06 L 176.93 31.94 C 177.629 31.4361 178.571 31.4361 179.27 31.94 L 200.37 47.27 C 201.066 47.7802 201.356 48.6792 201.09 49.5 L 184.72 99.87 C 184.591 100.271 184.339 100.621 184 100.87 Z M 138.66 64.68 L 181.78 96 L 196.85 49.61 L 178.1 36 Z" stroke="#040000" stroke-miterlimit="10" fill="#060001"/><path d=" M 107.05 156.78 C 106.71 157.026 106.3 157.159 105.88 157.16 L 53 157.16 C 52.1375 157.161 51.3717 156.609 51.1 155.79 L 43.02 130.93 C 42.7538 130.109 43.0441 129.21 43.74 128.7 L 86.52 97.63 C 87.4161 96.9842 88.6661 97.1871 89.3119 98.0832 C 89.4322 98.2501 89.526 98.4345 89.59 98.63 L 107.77 154.56 C 107.964 155.164 107.86 155.825 107.49 156.34 C 107.369 156.51 107.22 156.659 107.05 156.78 Z M 54.47 153.16 L 103.13 153.16 L 86.65 102.46 L 47.29 131.06 Z" stroke="#040000" stroke-miterlimit="10" fill="#060001"/><path d=" M 123.4 207.13 C 123.057 207.378 122.644 207.512 122.22 207.51 L 69.38 207.51 C 68.5148 207.509 67.7482 206.953 67.48 206.13 L 51.13 155.78 C 50.9322 155.173 51.0363 154.508 51.41 153.99 C 51.7741 153.463 52.3794 153.154 53.02 153.17 L 105.87 153.17 C 106.735 153.171 107.502 153.727 107.77 154.55 L 124.12 204.9 C 124.314 205.504 124.21 206.165 123.84 206.68 C 123.717 206.851 123.569 207.003 123.4 207.13 Z M 70.83 203.51 L 119.48 203.51 L 104.48 157.15 L 55.77 157.15 Z" stroke="#040000" stroke-miterlimit="10" fill="#060001"/><path d=" M 179.27 35.17 L 136.44 66.29 C 135.739 66.7987 134.791 66.7987 134.09 66.29 L 91.34 35.24 C 90.4481 34.5885 90.2532 33.3372 90.9047 32.4453 C 91.0265 32.2786 91.1733 32.1318 91.34 32.01 L 134.19 0.88 C 134.889 0.376089 135.831 0.376089 136.53 0.88 L 179.27 31.94 C 179.784 32.3156 180.088 32.9134 180.09 33.55 C 180.092 34.1901 179.787 34.7923 179.27 35.17 Z M 135.27 62.17 L 174.72 33.52 L 135.36 5 L 95.9 33.63 Z" stroke="#040000" stroke-miterlimit="10" fill="#060001"/><path d=" M 88.87 100.86 L 46.11 131.92 C 45.5922 132.294 44.9272 132.398 44.32 132.2 C 43.7174 131.999 43.2461 131.524 43.05 130.92 L 26.73 80.66 C 26.4638 79.8392 26.7541 78.9402 27.45 78.43 L 70.2 47.37 C 70.7202 46.993 71.3899 46.8888 72 47.09 C 72.6026 47.2908 73.0739 47.7659 73.27 48.37 L 89.59 98.62 C 89.861 99.4438 89.5703 100.348 88.87 100.86 Z M 46 127.07 L 85.35 98.48 L 70.35 52.22 L 31 80.81 Z" stroke="#040000" stroke-miterlimit="10" fill="#060001"/><path d=" M 136.44 66.29 L 88.87 100.86 C 88.3522 101.234 87.6872 101.338 87.08 101.14 C 86.4736 100.942 85.9981 100.466 85.8 99.86 L 69.47 49.6 C 69.2059 48.777 69.5004 47.8775 70.2 47.37 L 91.34 32 C 92.0386 31.4961 92.9814 31.4961 93.68 32 L 136.43 63.05 C 136.948 63.4234 137.256 64.0216 137.26 64.66 C 137.265 65.3036 136.96 65.9103 136.44 66.29 Z M 88.74 96 L 131.87 64.67 L 92.51 36.1 L 73.72 49.75 Z" stroke="#040000" stroke-miterlimit="10" fill="#060001"/></g></g></svg>