<svg version="1.1" viewBox="0 0 270.64 297.54" xmlns="http://www.w3.org/2000/svg" xmlns:xlink="http://www.w3.org/1999/xlink" overflow="hidden"><defs></defs><g id="b4f84c33-6218-4e18-bb20-3ce925775e2d"><g id="ea20422e-cab0-4125-8d3a-c6309b7b7a7b"><path d=" M 182.61 127.1 L 164.43 183.03 L 105.64 183.05 L 87.47 127.12 L 135.04 92.54 L 182.61 127.1 Z" fill="#808080"/><path d=" M 182.61 127.1 L 135.04 92.54 L 87.47 127.12 L 105.64 183.05 L 164.43 183.03 L 182.61 127.1 Z" stroke="#040000" stroke-miterlimit="10" fill="none"/><path d=" M 104.46 184.64 C 104.118 184.394 103.865 184.043 103.74 183.64 L 85.58 127.73 C 85.3159 126.907 85.6104 126.008 86.31 125.5 L 133.88 90.93 C 134.579 90.4261 135.521 90.4261 136.22 90.93 L 183.79 125.49 C 184.486 126 184.776 126.899 184.51 127.72 L 166.32 183.64 C 166.053 184.459 165.291 185.015 164.43 185.02 L 105.64 185.02 C 105.215 185.028 104.8 184.894 104.46 184.64 Z M 89.83 127.88 L 107.09 181 L 163 181 L 180.29 127.85 L 135.05 95 Z" stroke="#040000" stroke-miterlimit="10" fill="#211613"/><path d=" M 218.14 253.97 L 201.88 231.42 L 217.58 183.09 L 233.84 205.65 L 218.14 253.97 Z" stroke="#040000" stroke-miterlimit="10" fill="#ADD8E6" fill-rule="evenodd"/><path d=" M 235.45 204.48 L 219.2 181.92 C 218.761 181.308 218.015 180.995 217.27 181.11 C 216.53 181.231 215.92 181.756 215.69 182.47 L 200 230.8 C 199.806 231.404 199.91 232.065 200.28 232.58 L 216.54 255.14 C 216.667 255.312 216.818 255.463 216.99 255.59 C 216.99 255.59 217.05 255.59 217.07 255.65 C 217.775 256.168 218.735 256.168 219.44 255.65 C 219.743 255.369 219.985 255.029 220.15 254.65 C 220.209 254.473 220.239 254.287 220.24 254.1 L 235.75 206.33 C 235.963 205.702 235.851 205.009 235.45 204.48 Z M 217.45 249.61 L 204.08 231.07 L 218.26 187.45 L 231.62 206 Z" stroke="#040000" stroke-miterlimit="10" fill="#060001"/><path d=" M 225.67 158.19 L 242.06 107.72 L 268.47 99.03 L 252.08 149.5 L 225.67 158.19 Z" stroke="#040000" stroke-miterlimit="10" fill="#ADD8E6" fill-rule="evenodd"/><path d=" M 270.09 99 C 270.066 98.9621 270.046 98.9219 270.03 98.88 C 269.885 98.405 269.632 97.9702 269.29 97.61 L 269.29 97.61 C 269.173 97.5413 269.071 97.4495 268.99 97.34 C 268.941 97.3029 268.894 97.2629 268.85 97.22 L 268.77 97.15 C 268.477 97.0807 268.173 97.0807 267.88 97.15 L 241.48 105.84 C 240.877 106.041 240.406 106.516 240.21 107.12 L 223.82 157.6 C 223.599 158.304 223.783 159.073 224.3 159.6 L 224.54 159.8 C 225.06 160.177 225.73 160.281 226.34 160.08 L 252.75 151.4 C 253.355 151.197 253.827 150.718 254.02 150.11 L 270.16 100.37 C 270.179 99.9122 270.156 99.4535 270.09 99 Z M 250.49 148 L 228.78 155.14 L 243.65 109.37 L 265.35 102.22 Z" stroke="#040000" stroke-miterlimit="10" fill="#060001"/><path d=" M 105.64 183.03 L 121.28 231.18 L 148.8 231.16 L 164.43 183.02 L 105.64 183.03 Z" stroke="#040000" stroke-miterlimit="10" fill="#808080" fill-rule="evenodd"/><path d=" M 148.8 231.16 L 201.77 231.17 L 217.4 183.03 L 164.43 183.02 L 148.8 231.16 Z" stroke="#040000" stroke-miterlimit="10" fill="#808080" fill-rule="evenodd"/><path d=" M 147.63 232.77 C 147.457 232.652 147.308 232.503 147.19 232.33 C 146.816 231.812 146.712 231.147 146.91 230.54 L 162.53 182.41 C 162.798 181.587 163.565 181.031 164.43 181.03 L 217.43 181.03 C 218.071 181.014 218.676 181.323 219.04 181.85 C 219.414 182.364 219.522 183.024 219.33 183.63 L 203.7 231.77 C 203.432 232.593 202.665 233.149 201.8 233.15 L 148.8 233.15 C 148.379 233.154 147.968 233.021 147.63 232.77 Z M 165.88 185 L 151.55 229.15 L 200.32 229.15 L 214.65 185 Z" stroke="#040000" stroke-miterlimit="10" fill="#060001"/><path d=" M 121.28 231.18 L 105.64 183.03 L 52.71 183.03 L 68.36 231.17 L 121.28 231.18 Z" stroke="#040000" stroke-miterlimit="10" fill="#808080" fill-rule="evenodd"/><path d=" M 67.19 232.78 C 66.844 232.535 66.5876 232.184 66.46 231.78 L 50.81 183.65 C 50.6122 183.043 50.7163 182.378 51.09 181.86 C 51.4677 181.343 52.0699 181.038 52.71 181.04 L 105.64 181.04 C 106.501 181.045 107.263 181.601 107.53 182.42 L 123.18 230.57 C 123.517 231.622 122.937 232.748 121.885 233.085 C 121.69 233.147 121.485 233.18 121.28 233.18 L 68.36 233.18 C 67.9367 233.179 67.5256 233.038 67.19 232.78 Z M 55.46 185 L 69.81 229.14 L 118.53 229.14 L 104.19 185 Z" stroke="#040000" stroke-miterlimit="10" fill="#060001"/><path d=" M 87.48 127.12 L 44.65 158.22 L 52.71 183.03 L 105.64 183.03 L 87.48 127.12 Z" stroke="#040000" stroke-miterlimit="10" fill="#808080" fill-rule="evenodd"/><path d=" M 164.43 183.02 L 217.4 183.03 L 225.45 158.23 L 182.62 127.11 L 164.43 183.02 Z" stroke="#040000" stroke-miterlimit="10" fill="#808080" fill-rule="evenodd"/><path d=" M 135.05 92.55 L 92.29 61.48 L 71.15 76.85 L 87.48 127.12 L 135.05 92.55 Z" stroke="#040000" stroke-miterlimit="10" fill="#808080" fill-rule="evenodd"/><path d=" M 71.15 76.85 L 28.32 107.96 L 44.65 158.22 L 87.48 127.12 L 71.15 76.85 Z" stroke="#040000" stroke-miterlimit="10" fill="#808080" fill-rule="evenodd"/><path d=" M 225.45 158.23 L 241.78 107.98 L 198.94 76.85 L 182.62 127.11 L 225.45 158.23 Z" stroke="#040000" stroke-miterlimit="10" fill="#808080" fill-rule="evenodd"/><path d=" M 177.79 61.49 L 135.05 30.43 L 92.29 61.48 L 135.05 92.55 L 177.79 61.49 Z" stroke="#040000" stroke-miterlimit="10" fill="#808080" fill-rule="evenodd"/><path d=" M 182.62 127.11 L 198.94 76.85 L 177.79 61.49 L 135.05 92.55 L 182.62 127.11 Z" stroke="#040000" stroke-miterlimit="10" fill="#808080" fill-rule="evenodd"/><path d=" M 134.94 295 L 183.29 279.85 C 180.29 275.63 177.15 271.38 174.07 267.14 C 170.99 262.9 167.85 258.61 164.75 254.31 L 134.51 254.21 L 104.4 254.11 C 101.4 258.34 98.4 262.58 95.48 266.79 C 92.56 271 89.58 275.17 86.68 279.33 Z" stroke="#040000" stroke-miterlimit="10" fill="#EEE8AA" fill-rule="evenodd"/><path d=" M 85.51 281 C 85.1666 280.755 84.9136 280.403 84.79 280 C 84.5904 279.404 84.683 278.748 85.04 278.23 L 102.77 253 C 103.145 252.473 103.753 252.16 104.4 252.16 L 134.52 252.26 L 164.76 252.36 C 165.4 252.366 165.999 252.678 166.37 253.2 L 184.91 278.73 C 185.287 279.25 185.391 279.92 185.19 280.53 C 184.988 281.141 184.504 281.617 183.89 281.81 L 135.54 297 C 135.143 297.127 134.717 297.127 134.32 297 L 86.06 281.27 C 85.8635 281.21 85.6778 281.119 85.51 281 Z M 105.43 256.17 L 89.87 278.3 L 135 292.94 L 180 278.81 L 163.69 256.35 L 134.47 256.25 Z" stroke="#040000" stroke-miterlimit="10" fill="#040000"/><path d=" M 164.75 254.35 C 159.11 246.59 153.46 238.8 147.75 230.99 L 120.75 230.99 C 115.25 238.77 109.803 246.5 104.41 254.18 L 134.52 254.28 Z" stroke="#040000" stroke-miterlimit="10" fill="#EEE8AA" fill-rule="evenodd"/><path d=" M 103.22 255.76 C 102.974 255.574 102.77 255.339 102.62 255.07 C 102.277 254.408 102.331 253.61 102.76 253 L 119.11 229.8 C 119.485 229.273 120.093 228.96 120.74 228.96 L 147.74 228.96 C 148.368 228.974 148.956 229.272 149.34 229.77 C 154.6 236.937 159.813 244.08 164.98 251.2 L 166.38 253.2 C 167.026 254.096 166.824 255.346 165.928 255.992 C 165.588 256.237 165.179 256.37 164.76 256.37 L 134.53 256.27 L 104.41 256.17 C 103.98 256.165 103.562 256.021 103.22 255.76 Z M 121.77 233 L 108.23 252.22 L 134.52 252.3 L 160.82 252.4 C 156.153 245.96 151.447 239.503 146.7 233.03 Z" stroke="#040000" stroke-miterlimit="10" fill="#060001"/><path d=" M 219.46 254.54 C 213.967 246.74 208.427 238.91 202.84 231.05 L 147.71 231 C 153.46 238.81 159.11 246.6 164.71 254.36 C 182.903 254.427 201.153 254.487 219.46 254.54 Z" stroke="#040000" stroke-miterlimit="10" fill="#EEE8AA" fill-rule="evenodd"/><path d=" M 2.37 101.33 C 7.75 117.73 13.0833 134.017 18.37 150.19 C 27.06 152.85 35.72 155.51 44.42 158.19 L 28.66 109.33 C 19.9133 106.69 11.15 104.023 2.37 101.33 Z" stroke="#040000" stroke-miterlimit="10" fill="#00D800" fill-rule="evenodd"/><path d=" M 46.3 157.54 L 30.56 108.71 C 30.3566 108.091 29.864 107.609 29.24 107.42 C 21 104.94 12.7533 102.433 4.5 99.9 L 3 99.42 C 2.28849 99.2088 1.51854 99.409 1 99.94 C 0.822453 100.122 0.686054 100.341 0.6 100.58 C 0.6 100.58 0.6 100.58 0.6 100.58 L 0.6 100.58 C 0.620596 100.733 0.620596 100.887 0.6 101.04 C 0.6 101.3 0.6 101.57 0.67 101.83 C 0.74 102.09 0.67 102.21 0.72 102.39 C 6.05333 118.617 11.33 134.74 16.55 150.76 C 16.6743 151.163 16.9272 151.514 17.27 151.76 C 17.4461 151.894 17.6464 151.992 17.86 152.05 L 43.86 160.05 C 44.9158 160.375 46.0349 159.782 46.3596 158.726 C 46.4807 158.333 46.4773 157.912 46.35 157.52 Z M 19.93 148.54 C 15.15 133.873 10.33 119.133 5.47 104.32 C 12.69 106.527 19.8933 108.717 27.08 110.89 L 41.33 155.09 Z" stroke="#040000" stroke-miterlimit="10" fill="#060001"/><path d=" M 52.5 254.65 C 57.7533 247.317 63.0267 239.917 68.32 232.45 C 63.04 216.09 57.7267 199.607 52.38 183 C 47.0467 190.64 41.7567 198.233 36.51 205.78 C 41.8833 222.2 47.2133 238.49 52.5 254.65 Z" stroke="#040000" stroke-miterlimit="10" fill="#00D800" fill-rule="evenodd"/><path d=" M 70.22 231.84 L 54.29 182.36 C 54.0551 181.638 53.4314 181.111 52.68 181 C 51.9315 180.889 51.1845 181.211 50.75 181.83 C 45.4167 189.457 40.1233 197.05 34.87 204.61 C 34.5128 205.124 34.4166 205.775 34.61 206.37 L 50.19 254 C 50.321 254.18 50.4719 254.344 50.64 254.49 L 50.85 254.71 C 51.0134 254.805 51.1507 254.939 51.25 255.1 C 51.425 255.186 51.5736 255.317 51.68 255.48 C 52.1743 255.783 52.7516 255.923 53.33 255.88 C 53.5605 255.84 53.7976 255.883 54 256 C 54.0639 255.947 54.121 255.887 54.17 255.82 L 70 233.6 C 70.3437 233.08 70.425 232.429 70.22 231.84 Z M 53.22 250.27 L 38.72 206.08 C 43.04 199.887 47.3733 193.667 51.72 187.42 L 66.11 232.11 Z" stroke="#040000" stroke-miterlimit="10" fill="#060001"/><path d=" M 45.87 18.65 C 35.9567 32.13 26 45.6133 16 59.1 C 20.84 60.61 25.71 62.1 30.55 63.63 C 35.39 65.16 40.3 66.63 45.16 68.18 C 53.16 62.36 61.16 56.5233 69.16 50.67 C 77.16 44.8167 85.2233 38.96 93.35 33.1 C 93.4 28.01 93.43 22.89 93.47 17.79 C 93.51 12.69 93.55 7.59 93.61 2.49 Z" stroke="#040000" stroke-miterlimit="10" fill="#00D800" fill-rule="evenodd"/><path d=" M 14.87 60.71 C 13.9784 60.0579 13.7843 58.8066 14.4363 57.915 C 14.4375 57.9133 14.4388 57.9117 14.44 57.91 C 24.44 44.41 34.38 30.93 44.26 17.47 C 44.5108 17.1344 44.8605 16.8861 45.26 16.76 L 93 0.59 C 94.0988 0.274551 95.2454 0.90962 95.5608 2.00847 C 95.6077 2.17176 95.6343 2.34021 95.64 2.51 L 95.38 33.12 C 95.3745 33.7477 95.0746 34.3365 94.57 34.71 C 86.6033 40.53 78.6633 46.31 70.75 52.05 C 62.4 58.14 54.4 64 46.37 69.79 C 45.8588 70.1606 45.2027 70.2681 44.6 70.08 L 37.76 68 C 35.15 67.2 32.56 66.4 29.98 65.58 C 26.83 64.58 23.64 63.58 20.47 62.58 L 15.47 61.02 C 15.2548 60.9492 15.0522 60.8446 14.87 60.71 Z M 47.1 20.34 C 37.8533 32.9 28.5933 45.4533 19.32 58 L 21.66 58.72 C 24.83 59.72 28.02 60.72 31.19 61.72 C 33.75 62.54 36.34 63.34 38.94 64.14 L 44.84 66 C 52.58 60.38 60.3233 54.7433 68.07 49.09 C 76.07 43.31 83.7 37.72 91.37 32.09 L 91.59 5.29 Z" stroke="#040000" stroke-miterlimit="10" fill="#060001"/><path d=" M 45.2 68.18 C 53.9933 70.94 62.8133 73.69 71.66 76.43 C 78.8133 71.25 85.9633 66.0533 93.11 60.84 C 93.2 51.6 93.26 42.37 93.35 33.1 C 85.3033 39.0333 77.2667 44.89 69.24 50.67 C 61.2133 56.45 53.2 62.2867 45.2 68.18 Z" stroke="#040000" stroke-miterlimit="10" fill="#00D800" fill-rule="evenodd"/><path d=" M 44 69.79 C 43.5742 69.4818 43.2868 69.0184 43.2 68.5 C 43.0788 67.7541 43.3883 67.0036 44 66.56 C 52 60.74 60 54.9067 68 49.06 L 68.4 48.76 C 76.28 43.04 84.18 37.2833 92.1 31.49 C 92.713 31.0426 93.5263 30.9806 94.2 31.33 C 94.8616 31.6878 95.2756 32.3778 95.28 33.13 L 95.04 60.87 C 95.0322 61.4995 94.7284 62.0886 94.22 62.46 C 87.12 67.66 79.99 72.84 72.83 78 C 72.323 78.3708 71.6712 78.4819 71.07 78.3 C 62.21 75.5867 53.3867 72.8467 44.6 70.08 C 44.3846 70.0191 44.1816 69.9209 44 69.79 Z M 91.32 37.07 C 84.48 42.07 77.6467 47.0467 70.82 52 C 63.52 57.33 56.54 62.42 49.59 67.47 C 56.7967 69.73 64.03 71.9867 71.29 74.24 C 77.9033 69.4133 84.5167 64.6067 91.13 59.82 Z" stroke="#040000" stroke-miterlimit="10" fill="#060001"/><path d=" M 120.11 232.79 C 119.764 232.548 119.51 232.195 119.39 231.79 L 103.74 183.65 C 103.398 182.6 103.971 181.471 105.021 181.129 C 105.221 181.063 105.43 181.03 105.64 181.03 L 164.43 181.03 C 165.071 181.012 165.677 181.321 166.04 181.85 C 166.414 182.368 166.518 183.033 166.32 183.64 L 150.7 231.78 C 150.432 232.603 149.665 233.159 148.8 233.16 L 121.28 233.16 C 120.86 233.167 120.449 233.037 120.11 232.79 Z M 108.39 185 L 122.73 229.15 L 147.35 229.15 L 161.68 185 Z" stroke="#040000" stroke-miterlimit="10" fill="#060001"/><path d=" M 51.53 184.65 C 51.1907 184.401 50.9388 184.051 50.81 183.65 L 42.75 158.84 C 42.4859 158.017 42.7804 157.118 43.48 156.61 L 86.31 125.5 C 86.8278 125.126 87.4928 125.022 88.1 125.22 C 88.7127 125.408 89.1923 125.887 89.38 126.5 L 107.53 182.41 C 107.867 183.462 107.287 184.588 106.235 184.925 C 106.043 184.986 105.842 185.019 105.64 185.02 L 52.7 185.02 C 52.2809 185.022 51.8716 184.893 51.53 184.65 Z M 47 159 L 54.16 181 L 102.89 181 L 86.44 130.35 Z" stroke="#040000" stroke-miterlimit="10" fill="#060001"/><path d=" M 163.26 184.64 C 163.089 184.516 162.94 184.364 162.82 184.19 C 162.446 183.676 162.338 183.016 162.53 182.41 L 180.72 126.49 C 181.064 125.44 182.193 124.868 183.243 125.212 C 183.439 125.276 183.623 125.37 183.79 125.49 L 226.63 156.61 C 227.326 157.12 227.616 158.019 227.35 158.84 L 219.35 183.64 C 219.082 184.463 218.315 185.019 217.45 185.02 L 164.45 185.02 C 164.023 185.024 163.606 184.89 163.26 184.64 Z M 183.66 130.33 L 167.18 181 L 216 181 L 223.16 159 Z" stroke="#040000" stroke-miterlimit="10" fill="#060001"/><path d=" M 86.31 128.73 C 85.9672 128.484 85.7143 128.133 85.59 127.73 L 69.26 77.47 C 68.998 76.6449 69.2967 75.7448 70 75.24 L 91.12 59.87 C 91.8207 59.3613 92.7693 59.3613 93.47 59.87 L 136.22 90.93 C 136.737 91.3077 137.042 91.9099 137.04 92.55 C 137.038 93.1866 136.734 93.7844 136.22 94.16 L 88.65 128.73 C 88.1347 129.1 87.4742 129.204 86.87 129.01 C 86.6671 128.953 86.477 128.858 86.31 128.73 Z M 73.5 77.61 L 88.5 123.89 L 131.62 92.55 L 92.29 64 Z" stroke="#040000" stroke-miterlimit="10" fill="#060001"/><path d=" M 43.47 159.84 C 43.1307 159.591 42.8788 159.241 42.75 158.84 L 26.42 108.58 C 26.1559 107.757 26.4504 106.858 27.15 106.35 L 70 75.24 C 70.5195 74.8863 71.1751 74.7975 71.77 75 C 72.3832 75.181 72.8642 75.6583 73.05 76.27 L 89.38 126.5 C 89.6441 127.323 89.3496 128.222 88.65 128.73 L 45.82 159.84 C 45.3022 160.214 44.6372 160.318 44.03 160.12 C 43.8298 160.057 43.6408 159.962 43.47 159.84 Z M 30.67 108.72 L 45.67 154.99 L 85.11 126.35 L 70.11 80.08 Z" stroke="#040000" stroke-miterlimit="10" fill="#060001"/><path d=" M 224.28 159.84 L 181.44 128.72 C 180.744 128.21 180.454 127.311 180.72 126.49 L 197 76.23 C 197.22 75.6336 197.71 75.177 198.32 75 C 198.927 74.8022 199.592 74.9063 200.11 75.28 L 243 106.37 C 243.696 106.88 243.986 107.779 243.72 108.6 L 227.39 158.84 C 227.192 159.446 226.716 159.922 226.11 160.12 C 225.491 160.332 224.807 160.227 224.28 159.84 Z M 185 126.34 L 224.41 155 L 239.41 108.74 L 200 80.08 Z" stroke="#040000" stroke-miterlimit="10" fill="#060001"/><path d=" M 133.87 94.16 L 91.12 63.1 C 90.6032 62.7223 90.2983 62.1201 90.3 61.48 C 90.3015 60.8434 90.606 60.2456 91.12 59.87 L 133.88 28.87 C 134.579 28.3661 135.521 28.3661 136.22 28.87 L 179 59.87 C 179.517 60.2477 179.822 60.8499 179.82 61.49 C 179.818 62.1266 179.514 62.7244 179 63.1 L 136.22 94.16 C 135.519 94.6687 134.571 94.6687 133.87 94.16 Z M 95.69 61.48 L 135.05 90.08 L 174.4 61.49 L 135.05 32.9 Z" stroke="#040000" stroke-miterlimit="10" fill="#060001"/><path d=" M 181.44 128.72 L 133.87 94.16 C 132.978 93.5085 132.783 92.2572 133.435 91.3653 C 133.556 91.1986 133.703 91.0518 133.87 90.93 L 176.61 59.88 C 177.311 59.3713 178.259 59.3713 178.96 59.88 L 200.1 75.24 C 200.796 75.7502 201.086 76.6492 200.82 77.47 L 184.5 127.73 C 184.156 128.78 183.027 129.352 181.977 129.008 C 181.781 128.944 181.597 128.85 181.43 128.73 Z M 138.44 92.54 L 181.57 123.88 L 196.57 77.61 L 177.8 64 Z" stroke="#040000" stroke-miterlimit="10" fill="#060001"/><path d=" M 220.65 252.77 C 215.3 245.16 209.93 237.54 204.46 229.89 C 204.084 229.369 203.482 229.061 202.84 229.06 L 147.72 229 C 146.615 228.997 145.718 229.89 145.715 230.995 C 145.714 231.421 145.849 231.836 146.1 232.18 C 151.37 239.34 156.55 246.48 161.73 253.59 L 163.14 255.53 C 163.26 255.704 163.409 255.856 163.58 255.98 C 163.918 256.224 164.323 256.357 164.74 256.36 L 217.41 256.55 C 218.121 256.446 218.791 256.152 219.35 255.7 C 220.024 255.023 220.45 254.139 220.56 253.19 C 220.546 253.044 220.577 252.897 220.65 252.77 Z M 165.78 252.36 L 164.96 251.23 C 160.553 245.17 156.12 239.09 151.66 232.99 L 201.81 233.05 C 206.46 239.56 211.04 246.05 215.61 252.53 Z" stroke="#040000" stroke-miterlimit="10" fill="#060001"/></g></g></svg>