<svg version="1.1" width="128" height="128" viewBox="-0.9 -0.9 1.8 1.8" xmlns="http://www.w3.org/2000/svg" xmlns:xlink="http://www.w3.org/1999/xlink" overflow="hidden"><g stroke-width="0.1" stroke-linejoin="round" opacity="1"><path d=" M -0.654001 -0.50224 L -0.206844 -0.103422 L -0.184643 0.78142 L -0.59354 0.29677 Z" stroke="#000000" fill="#000000"/><path d=" M -0.654001 -0.50224 L 0.161033 -0.681501 L 0.699152 -0.349576 L -0.206844 -0.103422 Z" stroke="#000000" fill="#000000"/><path d=" M -0.206844 -0.103422 L 0.699152 -0.349576 L 0.630493 0.484187 L -0.184643 0.78142 Z" stroke="#000000" fill="#000000"/></g><g stroke-width="0" stroke-linejoin="round" stroke-opacity="0.5" opacity="1"><path d=" M -0.686746 -0.509683 L -0.597704 -0.430267 L -0.584746 -0.230722 L -0.67206 -0.315599 Z" stroke="#000000" fill="#404040"/><path d=" M -0.581523 -0.415168 L -0.485116 -0.329183 L -0.474224 -0.123913 L -0.568565 -0.215623 Z" stroke="#000000" fill="#404040"/><path d=" M -0.467587 -0.312825 L -0.362861 -0.219421 L -0.35444 -0.00815441 L -0.456695 -0.107556 Z" stroke="#000000" fill="#404040"/><path d=" M -0.343809 -0.201641 L -0.229639 -0.0998133 L -0.224181 0.117729 L -0.335387 0.0096257 Z" stroke="#000000" fill="#404040"/><path d=" M -0.669678 -0.281753 L -0.582365 -0.196876 L -0.570059 -0.00736603 L -0.655703 -0.0970745 Z" stroke="#000000" fill="#404040"/><path d=" M -0.566511 -0.18085 L -0.47217 -0.0891411 L -0.461846 0.1054 L -0.554205 0.00865909 Z" stroke="#000000" fill="#FFFFFF"/><path d=" M -0.455031 -0.0718167 L -0.352776 0.0275847 L -0.344813 0.227359 L -0.444708 0.122725 Z" stroke="#000000" fill="#FFFFFF"/><path d=" M -0.33419 0.0463733 L -0.222984 0.154477 L -0.217835 0.359683 L -0.326227 0.246148 Z" stroke="#000000" fill="#404040"/><path d=" M -0.653438 -0.0648783 L -0.567793 0.0248302 L -0.556091 0.205043 L -0.640125 0.111061 Z" stroke="#000000" fill="#404040"/><path d=" M -0.552255 0.0416717 L -0.459896 0.138413 L -0.450099 0.323046 L -0.540553 0.221884 Z" stroke="#000000" fill="#FFFFFF"/><path d=" M -0.443132 0.156584 L -0.343237 0.261218 L -0.335696 0.450414 L -0.433334 0.341217 Z" stroke="#000000" fill="#FFFFFF"/><path d=" M -0.325095 0.280883 L -0.216703 0.394418 L -0.211838 0.588308 L -0.317554 0.470078 Z" stroke="#000000" fill="#404040"/><path d=" M -0.637967 0.141725 L -0.553933 0.235707 L -0.542791 0.40729 L -0.625269 0.309532 Z" stroke="#000000" fill="#404040"/><path d=" M -0.538699 0.253267 L -0.448245 0.354429 L -0.438934 0.529892 L -0.527557 0.424851 Z" stroke="#000000" fill="#404040"/><path d=" M -0.431839 0.37334 L -0.3342 0.482537 L -0.327048 0.661972 L -0.422528 0.548803 Z" stroke="#000000" fill="#404040"/><path d=" M -0.316482 0.502962 L -0.210767 0.621191 L -0.206163 0.804676 L -0.30933 0.682397 Z" stroke="#000000" fill="#404040"/><path d=" M -0.670083 -0.531402 L -0.473906 -0.57455 L -0.379244 -0.498589 L -0.581042 -0.451986 Z" stroke="#000000" fill="#404040"/><path d=" M -0.439572 -0.582289 L -0.251682 -0.623614 L -0.15196 -0.550888 L -0.344909 -0.506328 Z" stroke="#000000" fill="#EE0000"/><path d=" M -0.218809 -0.631023 L -0.0386926 -0.670639 L 0.0655832 -0.600945 L -0.119087 -0.558297 Z" stroke="#000000" fill="#404040"/><path d=" M -0.00719006 -0.677739 L 0.165626 -0.715749 L 0.273998 -0.648902 L 0.0970857 -0.608046 Z" stroke="#000000" fill="#404040"/><path d=" M -0.564158 -0.437735 L -0.36236 -0.484338 L -0.26005 -0.402241 L -0.467751 -0.35175 Z" stroke="#000000" fill="#404040"/><path d=" M -0.327063 -0.492702 L -0.134114 -0.537262 L -0.0265186 -0.458795 L -0.224753 -0.410605 Z" stroke="#000000" fill="#404040"/><path d=" M -0.100377 -0.545256 L 0.0842932 -0.587904 L 0.196618 -0.512831 L 0.00721807 -0.466789 Z" stroke="#000000" fill="#404040"/><path d=" M 0.116571 -0.595553 L 0.293483 -0.636409 L 0.410039 -0.564515 L 0.228895 -0.52048 Z" stroke="#000000" fill="#404040"/><path d=" M -0.449457 -0.336309 L -0.241756 -0.3868 L -0.130832 -0.297791 L -0.344731 -0.242905 Z" stroke="#000000" fill="#404040"/><path d=" M -0.205451 -0.395869 L -0.00721726 -0.444058 L 0.109221 -0.359141 L -0.0945276 -0.30686 Z" stroke="#000000" fill="#404040"/><path d=" M 0.0274185 -0.452709 L 0.216818 -0.498752 L 0.338161 -0.417651 L 0.143857 -0.367793 Z" stroke="#000000" fill="#404040"/><path d=" M 0.249898 -0.507014 L 0.431041 -0.551049 L 0.556742 -0.473514 L 0.371241 -0.425914 Z" stroke="#000000" fill="#404040"/><path d=" M -0.324843 -0.226119 L -0.110944 -0.281006 L 0.00972861 -0.184174 L -0.210673 -0.124292 Z" stroke="#000000" fill="#404040"/><path d=" M -0.0735857 -0.290871 L 0.130163 -0.343153 L 0.256582 -0.250958 L 0.0470869 -0.194039 Z" stroke="#000000" fill="#404040"/><path d=" M 0.165733 -0.352546 L 0.360037 -0.402404 L 0.49153 -0.31452 L 0.292152 -0.26035 Z" stroke="#000000" fill="#404040"/><path d=" M 0.393944 -0.411358 L 0.579446 -0.458957 L 0.715414 -0.375089 L 0.525437 -0.323474 Z" stroke="#000000" fill="#404040"/><path d=" M -0.200683 -0.096435 L 0.0197186 -0.156317 L 0.018769 0.0575677 L -0.195225 0.121108 Z" stroke="#000000" fill="#404040"/><path d=" M 0.0571392 -0.166937 L 0.266634 -0.223856 L 0.259888 -0.0135355 L 0.0561897 0.0469473 Z" stroke="#000000" fill="#404040"/><path d=" M 0.302248 -0.233964 L 0.501626 -0.288134 L 0.48963 -0.0812848 L 0.295502 -0.0236437 Z" stroke="#000000" fill="#404040"/><path d=" M 0.535561 -0.297766 L 0.725537 -0.349382 L 0.708782 -0.145912 L 0.523565 -0.090917 Z" stroke="#000000" fill="#404040"/><path d=" M -0.194823 0.15813 L 0.0191715 0.0945903 L 0.0182745 0.296636 L -0.189674 0.363336 Z" stroke="#000000" fill="#404040"/><path d=" M 0.0555428 0.0833741 L 0.259241 0.0228913 L 0.25286 0.221843 L 0.0546458 0.28542 Z" stroke="#000000" fill="#404040"/><path d=" M 0.293904 0.0122014 L 0.488032 -0.0454397 L 0.47667 0.150484 L 0.287523 0.211153 Z" stroke="#000000" fill="#404040"/><path d=" M 0.521105 -0.0556395 L 0.706322 -0.110635 L 0.690431 0.0823283 L 0.509742 0.140284 Z" stroke="#000000" fill="#404040"/><path d=" M -0.189295 0.39831 L 0.0186539 0.33161 L 0.0178052 0.522775 L -0.18443 0.5922 Z" stroke="#000000" fill="#404040"/><path d=" M 0.0540332 0.319879 L 0.252247 0.256301 L 0.246202 0.444782 L 0.0531845 0.511043 Z" stroke="#000000" fill="#404040"/><path d=" M 0.286009 0.245106 L 0.475156 0.184436 L 0.464379 0.370278 L 0.279963 0.433586 Z" stroke="#000000" fill="#404040"/><path d=" M 0.507408 0.173741 L 0.688097 0.115785 L 0.673007 0.299035 L 0.496631 0.359583 Z" stroke="#000000" fill="#404040"/><path d=" M -0.184072 0.62529 L 0.0181635 0.555865 L 0.0173593 0.737004 L -0.179468 0.808775 Z" stroke="#000000" fill="#404040"/><path d=" M 0.0526036 0.543688 L 0.245621 0.477427 L 0.239885 0.656242 L 0.0517994 0.724826 Z" stroke="#000000" fill="#404040"/><path d=" M 0.278527 0.465792 L 0.462942 0.402484 L 0.452705 0.579003 L 0.272791 0.644607 Z" stroke="#000000" fill="#FFFFFF"/><path d=" M 0.494414 0.391356 L 0.67079 0.330808 L 0.656441 0.50506 L 0.484177 0.567874 Z" stroke="#000000" fill="#404040"/></g></svg>