<svg version="1.1" viewBox="0 0 202 117.47" xmlns="http://www.w3.org/2000/svg" xmlns:xlink="http://www.w3.org/1999/xlink" overflow="hidden"><defs></defs><g id="fcd00e4c-94fd-41e5-bbab-6dba93537b0c"><g id="a51c1a38-2b54-47f0-90d5-f91c0bb475fe"><path d=" M 201 29.87 L 201 58.74 L 176 73.17 L 201 29.87 Z" fill="#0000F2"/><path d=" M 201 1 L 201 29.87 L 176 15.44 L 201 1 Z" fill="#404040"/><rect x="151" y="29.87" width="50" height="28.87" fill="#0000F2" transform="matrix(0.5,-0.87,0.87,0.5,49.63,174.57)"/><path d=" M 176 15.44 L 151 58.74 L 151 29.87 L 176 15.44 Z" fill="#404040"/><path d=" M 176 73.17 L 151 87.61 L 151 58.74 L 176 73.17 Z" fill="#0000F2"/><path d=" M 151 58.74 L 151 87.61 L 126 102.04 L 151 58.74 Z" fill="#FFA100"/><path d=" M 151 29.87 L 151 58.74 L 126 44.3 L 151 29.87 Z" fill="#404040"/><path d=" M 151 58.74 L 126 102.04 L 101 87.61 L 126 44.3 L 151 58.74 Z" fill="#FFA100"/><path d=" M 151 29.87 L 126 44.3 L 126 15.44 L 151 29.87 Z" fill="#404040"/><rect x="76" y="15.44" width="50" height="28.86" fill="#FEFE00"/><path d=" M 126 44.3 L 101 87.61 L 101 58.74 L 126 44.3 Z" fill="#404040"/><path d=" M 126 15.44 L 76 15.44 L 101 1 L 126 15.44 Z" fill="#404040"/><path d=" M 126 44.3 L 101 58.74 L 76 44.3 L 126 44.3 Z" fill="#404040"/><path d=" M 126 102.04 L 101 116.47 L 101 87.61 L 126 102.04 Z" fill="#FFA100"/><path d=" M 101 87.61 L 101 116.47 L 76 102.04 L 101 87.61 Z" fill="#00D800"/><path d=" M 101 58.74 L 101 87.61 L 76 44.3 L 101 58.74 Z" fill="#404040"/><path d=" M 76 44.3 L 101 87.61 L 76 102.04 L 51 58.74 L 76 44.3 Z" fill="#00D800"/><path d=" M 76 15.44 L 76 44.3 L 51 29.87 L 76 15.44 Z" fill="#404040"/><path d=" M 51 58.74 L 76 102.04 L 51 87.61 L 51 58.74 Z" fill="#00D800"/><path d=" M 76 44.3 L 51 58.74 L 51 29.87 L 76 44.3 Z" fill="#404040"/><path d=" M 51 58.74 L 51 87.61 L 26 73.17 L 51 58.74 Z" fill="#EE0000"/><path d=" M 51 29.87 L 51 58.74 L 26 15.44 L 51 29.87 Z" fill="#404040"/><rect x="11.57" y="19.31" width="28.87" height="50" fill="#EE0000" transform="matrix(0.866025,-0.5,0.5,0.866025,-18.67,18.94)"/><path d=" M 1 29.87 L 26 73.17 L 1 58.74 L 1 29.87 Z" fill="#EE0000"/><path d=" M 26 15.44 L 1 29.87 L 1 1 L 26 15.44 Z" fill="#404040"/><path d=" M 126 15.44 L 101 1 L 76 15.44" stroke="#000000" stroke-width="2" stroke-linejoin="round" fill="none"/><line x1="151" y1="29.87" x2="126" y2="15.44" stroke="#000000" stroke-width="2" stroke-linejoin="round" fill="none"/><line x1="76" y1="15.44" x2="51" y2="29.87" stroke="#000000" stroke-width="2" stroke-linejoin="round" fill="none"/><rect x="76" y="15.44" width="50" height="28.86" stroke="#000000" stroke-width="2" stroke-linejoin="round" fill="none"/><line x1="126" y1="44.3" x2="101" y2="58.74" stroke="#000000" stroke-width="2" stroke-linejoin="round" fill="none"/><line x1="151" y1="29.87" x2="126" y2="44.3" stroke="#000000" stroke-width="2" stroke-linejoin="round" fill="none"/><line x1="101" y1="116.47" x2="126" y2="102.04" stroke="#000000" stroke-width="2" stroke-linejoin="round" fill="none"/><line x1="126" y1="102.04" x2="151" y2="87.61" stroke="#000000" stroke-width="2" stroke-linejoin="round" fill="none"/><path d=" M 126 44.3 L 101 87.61 L 126 102.04 L 151 58.74 L 126 44.3 Z" stroke="#000000" stroke-width="2" stroke-linejoin="round" fill="none"/><line x1="76" y1="44.3" x2="51" y2="29.87" stroke="#000000" stroke-width="2" stroke-linejoin="round" fill="none"/><path d=" M 101 87.61 L 101 58.74 L 76 44.3" stroke="#000000" stroke-width="2" stroke-linejoin="round" fill="none"/><line x1="51" y1="87.61" x2="76" y2="102.04" stroke="#000000" stroke-width="2" stroke-linejoin="round" fill="none"/><path d=" M 76 102.04 L 101 116.47 L 101 87.61" stroke="#000000" stroke-width="2" stroke-linejoin="round" fill="none"/><path d=" M 101 87.61 L 76 44.3 L 51 58.74 L 76 102.04 L 101 87.61 Z" stroke="#000000" stroke-width="2" stroke-linejoin="round" fill="none"/><path d=" M 26 15.44 L 1 1 L 1 29.87" stroke="#000000" stroke-width="2" stroke-linejoin="round" fill="none"/><path d=" M 51 58.74 L 51 29.87 L 26 15.44" stroke="#000000" stroke-width="2" stroke-linejoin="round" fill="none"/><path d=" M 1 29.87 L 1 58.74 L 26 73.17" stroke="#000000" stroke-width="2" stroke-linejoin="round" fill="none"/><path d=" M 26 73.17 L 51 87.61 L 51 58.74" stroke="#000000" stroke-width="2" stroke-linejoin="round" fill="none"/><rect x="11.57" y="19.31" width="28.87" height="50" stroke="#000000" stroke-width="2" stroke-linejoin="round" fill="none" transform="matrix(0.866025,-0.5,0.5,0.866025,-18.67,18.94)"/><path d=" M 176 15.44 L 151 29.87 L 151 58.74" stroke="#000000" stroke-width="2" stroke-linejoin="round" fill="none"/><path d=" M 201 29.87 L 201 1 L 176 15.44" stroke="#000000" stroke-width="2" stroke-linejoin="round" fill="none"/><path d=" M 151 58.74 L 151 87.61 L 176 73.17" stroke="#000000" stroke-width="2" stroke-linejoin="round" fill="none"/><path d=" M 176 73.17 L 201 58.74 L 201 29.87" stroke="#000000" stroke-width="2" stroke-linejoin="round" fill="none"/><rect x="151" y="29.87" width="50" height="28.87" stroke="#000000" stroke-width="2" stroke-linejoin="round" fill="none" transform="matrix(0.5,-0.87,0.87,0.5,49.63,174.57)"/></g></g></svg>