<svg viewBox="0 0 202 117.47" xmlns="http://www.w3.org/2000/svg" xmlns:xlink="http://www.w3.org/1999/xlink" overflow="hidden"><defs></defs><g id="图层_2"><g id="图层_1-2"><path d="M76 102.04 54.12 64.14 51.08 58.74 76.18 44.62 79.19 49.82 100.57 87.85 76 102.04Z" fill="#00D800"/><path d="M1.54 29.56 25.92 72.89 25.8 72.82 1.39 30.54 1.4 29.64 1.54 29.56Z" fill="#FFA100"/><path d="M76.18 44.61 76.24 44.58 79.19 49.82 76.18 44.62 76.18 44.61Z" fill="#00D800"/><path d="M25.92 72.89 47.96 60.49 26.2 73.06 25.92 72.89Z" fill="#FFA100"/><path d="M51.08 58.88 51.02 58.77 51.08 58.74 51.08 58.88Z" fill="#00D800"/><path d="M100.75 88.16 100.57 87.85 101 87.6 101 116.47 76.03 102.06 100.75 88.16Z" fill="#FFA100"/><path d="M76 102.04 76.03 102.06 75.59 102.31 75.17 101.56 76 102.04Z" fill="#00D800"/><path d="M25.8 72.82 1.08 58.18 1.39 30.54 25.8 72.82Z" fill="#00D800"/><path d="M26 15.43 1.54 29.56 1.4 29.32 1.4 29.64 1 29.87 1 1 26 15.43Z" fill="#FEFE00"/><path d="M1.4 29.64 1.39 30.54 1 29.87 1.4 29.64Z" fill="#FFA100"/><path d="M51 65.96 51 58.78 51.02 58.77 51.08 58.88 51 65.96Z" fill="#FFA100"/><path d="M100.57 87.85 100.75 88.16 76.03 102.06 76 102.04 100.57 87.85Z" fill="#FFA100"/><path d="M101 87.6 79.19 49.82 76.24 44.58 76.18 44.61 76 44.3 101 58.74 101 87.6Z" fill="#FEFE00"/><path d="M54.12 64.14 76 102.04 75.17 101.56 54.12 64.14Z" fill="#FFA100"/><path d="M26 15.43 51 58.74 47.96 60.49 25.92 72.89 1.54 29.56 26 15.43Z" fill="#FFA100"/><path d="M1.54 29.56 1.4 29.64 1.4 29.32 1.54 29.56Z" fill="#00D800"/><path d="M51 87.6 51 65.96 51.08 58.88 54.12 64.14 75.17 101.56 51 87.6Z" fill="#FFA100"/><path d="M25.92 72.89 26.2 73.06 26 73.17 25.8 72.82 25.92 72.89Z" fill="#FFA100"/><path d="M50.76 87.6 26.2 73.06 47.96 60.49 51 58.78 51 65.96 50.76 87.6Z" fill="#00D800"/><path d="M51.02 58.77 51 58.78 51 58.74 51.02 58.77Z" fill="#FFA100"/><path d="M201 29.87 201 58.74 176 73.17 201 29.87Z" fill="#EE0000"/><path d="M201 1 201 29.87 176 15.43 201 1Z" fill="#404040"/><path d="M201 29.87 176 73.17 151 58.74 176 15.43 201 29.87Z" fill="#0000F2"/><path d="M176 15.43 151 58.74 151 29.87 176 15.43Z" fill="#404040"/><path d="M176 73.17 151 87.6 151 58.74 176 73.17Z" fill="#EE0000"/><path d="M151 58.74 151 87.6 126 102.04 151 58.74Z" fill="#0000F2"/><path d="M151 29.87 151 58.74 126 44.3 151 29.87Z" fill="#404040"/><rect x="101" y="58.73" width="50" height="28.87" fill="#EE0000" transform="matrix(0.5 -0.866025 0.866025 0.5 -0.37 145.7)"/><path d="M151 29.87 126 44.3 126 15.43 151 29.87Z" fill="#FEFE00"/><rect x="76" y="15.43" width="50" height="28.87" fill="#FEFE00"/><path d="M126 44.3 101 87.6 101 58.74 126 44.3Z" fill="#404040"/><path d="M126 15.43 76 15.43 101 1 126 15.43Z" fill="#404040"/><path d="M126 44.3 101 58.74 76 44.3 126 44.3Z" fill="#404040"/><path d="M126 102.04 101 116.47 101 87.6 126 102.04Z" fill="#0000F2"/><path d="M76 15.43 76 44.3 51 29.87 76 15.43Z" fill="#FEFE00"/><path d="M76 44.3 51 58.74 51 29.87 76 44.3Z" fill="#404040"/><path d="M51 29.87 51 58.74 26 15.43 51 29.87Z" fill="#404040"/><path d="M126 15.43 101 1 76 15.43" stroke="#000000" stroke-width="2" stroke-linejoin="round" fill="none"/><line x1="151" y1="29.87" x2="126" y2="15.43" stroke="#000000" stroke-width="2" stroke-linejoin="round" fill="none"/><line x1="76" y1="15.43" x2="51" y2="29.87" stroke="#000000" stroke-width="2" stroke-linejoin="round" fill="none"/><rect x="76" y="15.43" width="50" height="28.87" stroke="#000000" stroke-width="2" stroke-linejoin="round" fill="none"/><line x1="126" y1="44.3" x2="101" y2="58.74" stroke="#000000" stroke-width="2" stroke-linejoin="round" fill="none"/><line x1="151" y1="29.87" x2="126" y2="44.3" stroke="#000000" stroke-width="2" stroke-linejoin="round" fill="none"/><line x1="101" y1="116.47" x2="126" y2="102.04" stroke="#000000" stroke-width="2" stroke-linejoin="round" fill="none"/><line x1="126" y1="102.04" x2="151" y2="87.6" stroke="#000000" stroke-width="2" stroke-linejoin="round" fill="none"/><rect x="101" y="58.73" width="50" height="28.87" stroke="#000000" stroke-width="2" stroke-linejoin="round" fill="none" transform="matrix(0.5 -0.866025 0.866025 0.5 -0.37 145.7)"/><path d="M51 58.74 76 44.3 51 29.87" stroke="#000000" stroke-width="2" stroke-linejoin="round" fill="none"/><path d="M79.19 49.82 101 87.6 101 58.74 76 44.3 76.18 44.61" stroke="#000000" stroke-width="2" stroke-linejoin="round" fill="none"/><path d="M51.02 58.77 51 58.74 51 58.78" stroke="#000000" stroke-width="2" stroke-linejoin="round" fill="none"/><line x1="54.12" y1="64.14" x2="51.08" y2="58.88" stroke="#000000" stroke-width="2" stroke-linejoin="round" fill="none"/><path d="M51 65.96 51 87.6 75.17 101.56" stroke="#000000" stroke-width="2" stroke-linejoin="round" fill="none"/><path d="M76.03 102.06 101 116.47 101 87.6 100.57 87.85" stroke="#000000" stroke-width="2" stroke-linejoin="round" fill="none"/><path d="M76.03 102.06 100.75 88.16 100.57 87.85 79.19 49.82 76.24 44.58 76.18 44.61 76.18 44.62 51.08 58.74 54.12 64.14 75.17 101.56 75.59 102.31 76.03 102.06Z" stroke="#000000" stroke-width="2" stroke-linejoin="round" fill="none"/><path d="M26 15.43 1 1 1 29.87" stroke="#000000" stroke-width="2" stroke-linejoin="round" fill="none"/><path d="M51 58.74 51 29.87 26 15.43" stroke="#000000" stroke-width="2" stroke-linejoin="round" fill="none"/><path d="M1.39 30.54 1.08 58.18 25.8 72.82 25.92 72.89 1.54 29.56 1.4 29.32 1.4 29.64 1.39 30.54Z" stroke="#000000" stroke-width="2" stroke-linejoin="round" fill="none"/><path d="M26.2 73.06 50.76 87.6 51 65.96 51.08 58.88 51.08 58.74 51.02 58.77 51 58.78 47.96 60.49 25.92 72.89 26.2 73.06Z" stroke="#000000" stroke-width="2" stroke-linejoin="round" fill="none"/><path d="M47.96 60.49 51 58.74 26 15.43 1.54 29.56" stroke="#000000" stroke-width="2" stroke-linejoin="round" fill="none"/><path d="M25.8 72.82 26 73.17 26.2 73.06" stroke="#000000" stroke-width="2" stroke-linejoin="round" fill="none"/><path d="M1.4 29.64 1 29.87 1.39 30.54" stroke="#000000" stroke-width="2" stroke-linejoin="round" fill="none"/><path d="M176 15.43 151 29.87 151 58.74" stroke="#000000" stroke-width="2" stroke-linejoin="round" fill="none"/><path d="M201 29.87 201 1 176 15.43" stroke="#000000" stroke-width="2" stroke-linejoin="round" fill="none"/><path d="M151 58.74 151 87.6 176 73.17" stroke="#000000" stroke-width="2" stroke-linejoin="round" fill="none"/><path d="M176 73.17 201 58.74 201 29.87" stroke="#000000" stroke-width="2" stroke-linejoin="round" fill="none"/><path d="M176 15.43 151 58.74 176 73.17 201 29.87 176 15.43Z" stroke="#000000" stroke-width="2" stroke-linejoin="round" fill="none"/></g></g></svg>