<svg viewBox="0 0 550.01 550.02" xmlns="http://www.w3.org/2000/svg" xmlns:xlink="http://www.w3.org/1999/xlink" overflow="hidden"><defs></defs><g id="图层_2"><g id="图层_1-2"><path d="M59.32 490.7 5.39 544.63 5.39 347.25 59.32 332.81 59.32 490.7Z" stroke="#000000" stroke-width="10.78" stroke-linejoin="round" fill="#0000F2"/><path d="M59.32 332.81 5.39 347.25 5.39 202.77 59.32 217.22 59.32 332.81Z" stroke="#000000" stroke-width="10.78" stroke-linejoin="round" fill="#0000F2"/><path d="M59.32 59.32 5.39 5.4 5.39 202.77 59.32 217.22 59.32 59.32Z" stroke="#000000" stroke-width="10.78" stroke-linejoin="round" fill="#0000F2"/><path d="M544.62 347.25 544.62 544.62 490.7 490.7 490.7 332.8 544.62 347.25Z" fill="#00D800"/><path d="M544.62 202.77 544.62 347.25 490.7 332.8 490.7 217.21 544.62 202.77Z" fill="#00D800"/><path d="M544.62 5.39 544.62 202.77 490.7 217.21 490.7 59.32 544.62 5.39Z" fill="#00D800"/><path d="M544.62 5.39 490.7 59.32 332.8 59.32 347.25 5.39 544.62 5.39Z" fill="#FFA100"/><path d="M544.62 544.62 347.25 544.62 332.8 490.7 490.7 490.7 544.62 544.62Z" fill="#EE0000"/><path d="M490.7 332.8 490.7 490.7 332.8 490.7 275.01 275.01 490.7 332.8Z" fill="#1B1B1B"/><path d="M490.7 217.21 490.7 332.8 275.01 275.01 490.7 217.21Z" fill="#1B1B1B"/><path d="M490.7 59.32 490.7 217.21 275.01 275.01 332.8 59.32 490.7 59.32Z" fill="#1B1B1B"/><path d="M347.25 5.39 332.8 59.32 217.21 59.32 202.76 5.39 347.25 5.39Z" fill="#FFA100"/><path d="M332.8 490.7 347.25 544.62 202.76 544.62 217.21 490.7 332.8 490.7Z" fill="#EE0000"/><path d="M332.8 59.32 275.01 275.01 217.21 59.32 332.8 59.32Z" fill="#1B1B1B"/><path d="M275.01 275.01 332.8 490.7 217.21 490.7 275.01 275.01Z" fill="#1B1B1B"/><path d="M217.21 59.32 275.01 275.01 59.31 217.21 59.31 59.32 217.21 59.32Z" fill="#1B1B1B"/><path d="M275.01 275.01 217.21 490.7 59.31 490.7 59.31 332.8 275.01 275.01Z" fill="#1B1B1B"/><path d="M275.01 275.01 59.31 332.8 59.31 217.21 275.01 275.01Z" fill="#1B1B1B"/><path d="M202.76 5.39 217.21 59.32 59.31 59.32 5.39 5.39 202.76 5.39Z" fill="#FFA100"/><path d="M217.21 490.7 202.76 544.62 5.39 544.62 59.31 490.7 217.21 490.7Z" fill="#EE0000"/><line x1="59.31" y1="490.7" x2="59.31" y2="332.8" stroke="#000000" stroke-width="10.78" stroke-linejoin="round" fill="none"/><path d="M217.21 490.7 59.31 490.7 5.39 544.62 202.76 544.62" stroke="#000000" stroke-width="10.78" stroke-linejoin="round" fill="none"/><path d="M275.01 275.01 59.31 332.8 59.31 217.21" stroke="#000000" stroke-width="10.78" stroke-linejoin="round" fill="none"/><path d="M275.01 275.01 59.31 217.21 59.31 59.32" stroke="#000000" stroke-width="10.78" stroke-linejoin="round" fill="none"/><path d="M217.21 59.32 59.31 59.32 5.39 5.39 202.76 5.39" stroke="#000000" stroke-width="10.78" stroke-linejoin="round" fill="none"/><line x1="275.01" y1="275.01" x2="217.21" y2="59.32" stroke="#000000" stroke-width="10.78" stroke-linejoin="round" fill="none"/><path d="M332.8 59.32 217.21 59.32 202.76 5.39 347.25 5.39" stroke="#000000" stroke-width="10.78" stroke-linejoin="round" fill="none"/><line x1="275.01" y1="275.01" x2="332.8" y2="59.32" stroke="#000000" stroke-width="10.78" stroke-linejoin="round" fill="none"/><path d="M544.62 5.39 347.25 5.39 332.8 59.32 490.7 59.32" stroke="#000000" stroke-width="10.78" stroke-linejoin="round" fill="none"/><path d="M490.7 217.21 490.7 59.32 544.62 5.39 544.62 202.77" stroke="#000000" stroke-width="10.78" stroke-linejoin="round" fill="none"/><line x1="275.01" y1="275.01" x2="490.7" y2="217.21" stroke="#000000" stroke-width="10.78" stroke-linejoin="round" fill="none"/><path d="M490.7 332.8 490.7 217.21 544.62 202.77 544.62 347.25" stroke="#000000" stroke-width="10.78" stroke-linejoin="round" fill="none"/><line x1="275.01" y1="275.01" x2="490.7" y2="332.8" stroke="#000000" stroke-width="10.78" stroke-linejoin="round" fill="none"/><path d="M544.62 544.62 544.62 347.25 490.7 332.8 490.7 490.7" stroke="#000000" stroke-width="10.78" stroke-linejoin="round" fill="none"/><path d="M332.8 490.7 490.7 490.7 544.62 544.62 347.25 544.62" stroke="#000000" stroke-width="10.78" stroke-linejoin="round" fill="none"/><path d="M217.21 490.7 275.01 275.01 332.8 490.7" stroke="#000000" stroke-width="10.78" stroke-linejoin="round" fill="none"/><path d="M332.8 490.7 347.25 544.62 202.76 544.62 217.21 490.7 332.8 490.7Z" stroke="#000000" stroke-width="10.78" stroke-linejoin="round" fill="none"/></g></g></svg>