<svg viewBox="0 0 402.19 197.23" xmlns="http://www.w3.org/2000/svg" xmlns:xlink="http://www.w3.org/1999/xlink" overflow="hidden"><defs></defs><g id="图层_2"><g id="图层_1-2"><path d="M98.59 98.59 83.44 155.16 57.18 140 98.59 98.59Z" stroke="#000000" stroke-width="4" stroke-linejoin="round" fill="#1B1B1B"/><path d="M83.44 155.16 79.65 169.3 46.83 150.36 57.18 140 83.44 155.16Z" stroke="#000000" stroke-width="4" stroke-linejoin="round" fill="#00D800"/><path d="M98.59 98.59 57.18 140 21.32 119.3 42.02 83.44 98.59 98.59Z" stroke="#000000" stroke-width="4" stroke-linejoin="round" fill="#1B1B1B"/><path d="M21.32 119.3 2 124.47 46.83 150.36 57.18 140 21.32 119.3Z" stroke="#000000" stroke-width="4" stroke-linejoin="round" fill="#00D800"/><path d="M21.32 119.3 2 124.47 27.88 79.65 42.02 83.44 21.32 119.3Z" stroke="#000000" stroke-width="4" stroke-linejoin="round" fill="#EE0000"/><path d="M98.59 98.59 42.02 83.44 57.18 57.18 98.59 98.59Z" stroke="#000000" stroke-width="4" stroke-linejoin="round" fill="#1B1B1B"/><path d="M42.02 83.44 27.88 79.65 46.83 46.83 57.18 57.18 42.02 83.44Z" stroke="#000000" stroke-width="4" stroke-linejoin="round" fill="#EE0000"/><path d="M98.59 98.59 57.18 57.18 77.89 21.32 113.75 42.02 98.59 98.59Z" stroke="#000000" stroke-width="4" stroke-linejoin="round" fill="#1B1B1B"/><path d="M77.89 21.32 72.71 2 46.83 46.83 57.18 57.18 77.89 21.32Z" stroke="#000000" stroke-width="4" stroke-linejoin="round" fill="#EE0000"/><path d="M77.89 21.32 72.71 2 117.54 27.88 113.75 42.02 77.89 21.32Z" stroke="#000000" stroke-width="4" stroke-linejoin="round" fill="#0000F2"/><path d="M98.59 98.59 113.75 42.02 140 57.18 98.59 98.59Z" stroke="#000000" stroke-width="4" stroke-linejoin="round" fill="#1B1B1B"/><path d="M113.75 42.02 117.54 27.88 150.36 46.83 140 57.18 113.75 42.02Z" stroke="#000000" stroke-width="4" stroke-linejoin="round" fill="#0000F2"/><path d="M98.59 98.59 140 57.18 175.87 77.89 155.16 113.75 98.59 98.59Z" stroke="#000000" stroke-width="4" stroke-linejoin="round" fill="#1B1B1B"/><path d="M175.87 77.89 195.19 72.71 150.36 46.83 140 57.18 175.87 77.89Z" stroke="#000000" stroke-width="4" stroke-linejoin="round" fill="#0000F2"/><path d="M175.87 77.89 195.19 72.71 169.3 117.54 155.16 113.75 175.87 77.89Z" stroke="#000000" stroke-width="4" stroke-linejoin="round" fill="#FFA100"/><path d="M98.59 98.59 155.16 113.75 140 140 98.59 98.59Z" stroke="#000000" stroke-width="4" stroke-linejoin="round" fill="#1B1B1B"/><path d="M155.16 113.75 169.3 117.54 150.36 150.36 140 140 155.16 113.75Z" stroke="#000000" stroke-width="4" stroke-linejoin="round" fill="#FFA100"/><path d="M98.59 98.59 140 140 119.3 175.87 83.44 155.16 98.59 98.59Z" stroke="#000000" stroke-width="4" stroke-linejoin="round" fill="#1B1B1B"/><path d="M119.3 175.87 124.47 195.19 150.36 150.36 140 140 119.3 175.87Z" stroke="#000000" stroke-width="4" stroke-linejoin="round" fill="#FFA100"/><path d="M119.3 175.87 124.47 195.19 79.65 169.3 83.44 155.16 119.3 175.87Z" stroke="#000000" stroke-width="4" stroke-linejoin="round" fill="#00D800"/><path d="M303.59 98.59 318.75 42.02 282.89 21.32 262.18 57.18 303.59 98.59Z" stroke="#000000" stroke-width="4" stroke-linejoin="round" fill="#FFFFFF"/><path d="M282.89 21.32 277.71 2 322.54 27.88 318.75 42.02 282.89 21.32Z" stroke="#000000" stroke-width="4" stroke-linejoin="round" fill="#FFA100"/><path d="M282.89 21.32 277.71 2 251.83 46.83 262.18 57.18 282.89 21.32Z" stroke="#000000" stroke-width="4" stroke-linejoin="round" fill="#0000F2"/><path d="M303.59 98.59 262.18 57.18 247.02 83.44 303.59 98.59Z" stroke="#000000" stroke-width="4" stroke-linejoin="round" fill="#FFFFFF"/><path d="M262.18 57.18 251.83 46.83 232.88 79.65 247.02 83.44 262.18 57.18Z" stroke="#000000" stroke-width="4" stroke-linejoin="round" fill="#0000F2"/><path d="M303.59 98.59 247.02 83.44 226.32 119.3 262.18 140 303.59 98.59Z" stroke="#000000" stroke-width="4" stroke-linejoin="round" fill="#FFFFFF"/><path d="M226.32 119.3 207 124.47 232.88 79.65 247.02 83.44 226.32 119.3Z" stroke="#000000" stroke-width="4" stroke-linejoin="round" fill="#0000F2"/><path d="M226.32 119.3 207 124.47 251.83 150.36 262.18 140 226.32 119.3Z" stroke="#000000" stroke-width="4" stroke-linejoin="round" fill="#EE0000"/><path d="M303.59 98.59 262.18 140 288.44 155.16 303.59 98.59Z" stroke="#000000" stroke-width="4" stroke-linejoin="round" fill="#FFFFFF"/><path d="M262.18 140 251.83 150.36 284.65 169.3 288.44 155.16 262.18 140Z" stroke="#000000" stroke-width="4" stroke-linejoin="round" fill="#EE0000"/><path d="M303.59 98.59 288.44 155.16 324.3 175.87 345 140 303.59 98.59Z" stroke="#000000" stroke-width="4" stroke-linejoin="round" fill="#FFFFFF"/><path d="M324.3 175.87 329.47 195.19 284.65 169.3 288.44 155.16 324.3 175.87Z" stroke="#000000" stroke-width="4" stroke-linejoin="round" fill="#EE0000"/><path d="M324.3 175.87 329.47 195.19 355.36 150.36 345 140 324.3 175.87Z" stroke="#000000" stroke-width="4" stroke-linejoin="round" fill="#00D800"/><path d="M303.59 98.59 345 140 360.16 113.75 303.59 98.59Z" stroke="#000000" stroke-width="4" stroke-linejoin="round" fill="#FFFFFF"/><path d="M345 140 355.36 150.36 374.3 117.54 360.16 113.75 345 140Z" stroke="#000000" stroke-width="4" stroke-linejoin="round" fill="#00D800"/><path d="M303.59 98.59 360.16 113.75 380.87 77.89 345 57.18 303.59 98.59Z" stroke="#000000" stroke-width="4" stroke-linejoin="round" fill="#FFFFFF"/><path d="M380.87 77.89 400.19 72.71 374.3 117.54 360.16 113.75 380.87 77.89Z" stroke="#000000" stroke-width="4" stroke-linejoin="round" fill="#00D800"/><path d="M380.87 77.89 400.19 72.71 355.36 46.83 345 57.18 380.87 77.89Z" stroke="#000000" stroke-width="4" stroke-linejoin="round" fill="#FFA100"/><path d="M303.59 98.59 345 57.18 318.75 42.02 303.59 98.59Z" stroke="#000000" stroke-width="4" stroke-linejoin="round" fill="#FFFFFF"/><path d="M345 57.18 355.36 46.83 322.54 27.88 318.75 42.02 345 57.18Z" stroke="#000000" stroke-width="4" stroke-linejoin="round" fill="#FFA100"/><line x1="124.27" y1="7.66" x2="73.51" y2="197.1" stroke="#111111" stroke-width="1.02" stroke-linejoin="round" fill="none"/><line x1="329.27" y1="2.05" x2="278.51" y2="191.5" stroke="#111111" stroke-width="1.02" stroke-linejoin="round" fill="none"/></g></g></svg>