<svg viewBox="0 0 376.3 197.19" xmlns="http://www.w3.org/2000/svg" xmlns:xlink="http://www.w3.org/1999/xlink" overflow="hidden"><defs></defs><g id="图层_2"><g id="图层_1-2"><path d="M98.59 98.59 83.44 155.16 57.18 140 98.59 98.59Z" stroke="#000000" stroke-width="4" stroke-linejoin="round" fill="#1B1B1B"/><path d="M83.44 155.16 79.65 169.3 46.83 150.36 57.18 140 83.44 155.16Z" stroke="#000000" stroke-width="4" stroke-linejoin="round" fill="#EE0000"/><path d="M98.59 98.59 57.18 140 21.32 119.3 42.02 83.44 98.59 98.59Z" stroke="#000000" stroke-width="4" stroke-linejoin="round" fill="#1B1B1B"/><path d="M21.32 119.3 2 124.47 46.83 150.36 57.18 140 21.32 119.3Z" stroke="#000000" stroke-width="4" stroke-linejoin="round" fill="#EE0000"/><path d="M21.32 119.3 2 124.47 27.88 79.65 42.02 83.44 21.32 119.3Z" stroke="#000000" stroke-width="4" stroke-linejoin="round" fill="#0000F2"/><path d="M98.59 98.59 42.02 83.44 57.18 57.18 98.59 98.59Z" stroke="#000000" stroke-width="4" stroke-linejoin="round" fill="#1B1B1B"/><path d="M42.02 83.44 27.88 79.65 46.83 46.83 57.18 57.18 42.02 83.44Z" stroke="#000000" stroke-width="4" stroke-linejoin="round" fill="#0000F2"/><path d="M98.59 98.59 57.18 57.18 77.89 21.32 113.75 42.02 98.59 98.59Z" stroke="#000000" stroke-width="4" stroke-linejoin="round" fill="#1B1B1B"/><path d="M77.89 21.32 72.71 2 46.83 46.83 57.18 57.18 77.89 21.32Z" stroke="#000000" stroke-width="4" stroke-linejoin="round" fill="#0000F2"/><path d="M77.89 21.32 72.71 2 117.54 27.88 113.75 42.02 77.89 21.32Z" stroke="#000000" stroke-width="4" stroke-linejoin="round" fill="#FFA100"/><path d="M98.59 98.59 113.75 42.02 140 57.18 98.59 98.59Z" stroke="#000000" stroke-width="4" stroke-linejoin="round" fill="#1B1B1B"/><path d="M113.75 42.02 117.54 27.88 150.36 46.83 140 57.18 113.75 42.02Z" stroke="#000000" stroke-width="4" stroke-linejoin="round" fill="#FFA100"/><path d="M98.59 98.59 140 57.18 175.87 77.89 155.16 113.75 98.59 98.59Z" stroke="#000000" stroke-width="4" stroke-linejoin="round" fill="#1B1B1B"/><path d="M175.87 77.89 195.19 72.71 150.36 46.83 140 57.18 175.87 77.89Z" stroke="#000000" stroke-width="4" stroke-linejoin="round" fill="#FFA100"/><path d="M175.87 77.89 195.19 72.71 169.3 117.54 155.16 113.75 175.87 77.89Z" stroke="#000000" stroke-width="4" stroke-linejoin="round" fill="#00D800"/><path d="M98.59 98.59 155.16 113.75 140 140 98.59 98.59Z" stroke="#000000" stroke-width="4" stroke-linejoin="round" fill="#1B1B1B"/><path d="M155.16 113.75 169.3 117.54 150.36 150.36 140 140 155.16 113.75Z" stroke="#000000" stroke-width="4" stroke-linejoin="round" fill="#00D800"/><path d="M98.59 98.59 140 140 119.3 175.87 83.44 155.16 98.59 98.59Z" stroke="#000000" stroke-width="4" stroke-linejoin="round" fill="#1B1B1B"/><path d="M119.3 175.87 124.47 195.19 150.36 150.36 140 140 119.3 175.87Z" stroke="#000000" stroke-width="4" stroke-linejoin="round" fill="#00D800"/><path d="M119.3 175.87 124.47 195.19 79.65 169.3 83.44 155.16 119.3 175.87Z" stroke="#000000" stroke-width="4" stroke-linejoin="round" fill="#EE0000"/><path d="M303.59 98.59 318.75 42.02 288.44 42.02 303.59 98.59Z" stroke="#000000" stroke-width="4" stroke-linejoin="round" fill="#FFFFFF"/><path d="M318.75 42.02 322.54 27.88 284.65 27.88 288.44 42.02 318.75 42.02Z" stroke="#000000" stroke-width="4" stroke-linejoin="round" fill="#FFA100"/><path d="M303.59 98.59 288.44 42.02 247.02 42.02 247.02 83.44 303.59 98.59Z" stroke="#000000" stroke-width="4" stroke-linejoin="round" fill="#FFFFFF"/><path d="M247.02 42.02 232.88 27.88 284.65 27.88 288.44 42.02 247.02 42.02Z" stroke="#000000" stroke-width="4" stroke-linejoin="round" fill="#FFA100"/><path d="M247.02 42.02 232.88 27.88 232.88 79.65 247.02 83.44 247.02 42.02Z" stroke="#000000" stroke-width="4" stroke-linejoin="round" fill="#0000F2"/><path d="M303.59 98.59 247.02 83.44 247.02 113.75 303.59 98.59Z" stroke="#000000" stroke-width="4" stroke-linejoin="round" fill="#FFFFFF"/><path d="M247.02 83.44 232.88 79.65 232.88 117.54 247.02 113.75 247.02 83.44Z" stroke="#000000" stroke-width="4" stroke-linejoin="round" fill="#0000F2"/><path d="M303.59 98.59 247.02 113.75 247.02 155.16 288.44 155.16 303.59 98.59Z" stroke="#000000" stroke-width="4" stroke-linejoin="round" fill="#FFFFFF"/><path d="M247.02 155.16 232.88 169.3 232.88 117.54 247.02 113.75 247.02 155.16Z" stroke="#000000" stroke-width="4" stroke-linejoin="round" fill="#0000F2"/><path d="M247.02 155.16 232.88 169.3 284.65 169.3 288.44 155.16 247.02 155.16Z" stroke="#000000" stroke-width="4" stroke-linejoin="round" fill="#EE0000"/><path d="M303.59 98.59 288.44 155.16 318.75 155.16 303.59 98.59Z" stroke="#000000" stroke-width="4" stroke-linejoin="round" fill="#FFFFFF"/><path d="M288.44 155.16 284.65 169.3 322.54 169.3 318.75 155.16 288.44 155.16Z" stroke="#000000" stroke-width="4" stroke-linejoin="round" fill="#EE0000"/><path d="M303.59 98.59 318.75 155.16 360.16 155.16 360.16 113.75 303.59 98.59Z" stroke="#000000" stroke-width="4" stroke-linejoin="round" fill="#FFFFFF"/><path d="M360.16 155.16 374.3 169.3 322.54 169.3 318.75 155.16 360.16 155.16Z" stroke="#000000" stroke-width="4" stroke-linejoin="round" fill="#EE0000"/><path d="M360.16 155.16 374.3 169.3 374.3 117.54 360.16 113.75 360.16 155.16Z" stroke="#000000" stroke-width="4" stroke-linejoin="round" fill="#00D800"/><path d="M303.59 98.59 360.16 113.75 360.16 83.44 303.59 98.59Z" stroke="#000000" stroke-width="4" stroke-linejoin="round" fill="#FFFFFF"/><path d="M360.16 113.75 374.3 117.54 374.3 79.65 360.16 83.44 360.16 113.75Z" stroke="#000000" stroke-width="4" stroke-linejoin="round" fill="#00D800"/><path d="M303.59 98.59 360.16 83.44 360.16 42.02 318.75 42.02 303.59 98.59Z" stroke="#000000" stroke-width="4" stroke-linejoin="round" fill="#FFFFFF"/><path d="M360.16 42.02 374.3 27.88 374.3 79.65 360.16 83.44 360.16 42.02Z" stroke="#000000" stroke-width="4" stroke-linejoin="round" fill="#00D800"/><path d="M360.16 42.02 374.3 27.88 322.54 27.88 318.75 42.02 360.16 42.02Z" stroke="#000000" stroke-width="4" stroke-linejoin="round" fill="#FFA100"/><line x1="328.8" y1="3.96" x2="278.04" y2="193.4" stroke="#111111" stroke-width="1.02" stroke-linejoin="round" fill="none"/><line x1="123.8" y1="6.87" x2="73.04" y2="196.31" stroke="#111111" stroke-width="1.02" stroke-linejoin="round" fill="none"/></g></g></svg>