<svg version="1.1" viewBox="0 0 179.45 181.05" xmlns="http://www.w3.org/2000/svg" xmlns:xlink="http://www.w3.org/1999/xlink" overflow="hidden"><defs></defs><g id="图层_2"><g id="图层_1-2"><path d=" M 86.27 46.92 L 61.27 61.35 L 111.27 61.35 L 86.27 46.92 Z" stroke="#000000" stroke-width="2" stroke-linejoin="round" fill="#FFFF00"/><path d=" M 136.27 75.79 L 111.27 61.35 L 111.27 90.22 L 136.27 75.79 Z" stroke="#000000" stroke-width="2" stroke-linejoin="round" fill="#FFFF00"/><path d=" M 36.27 75.79 L 61.27 90.22 L 61.27 61.35 L 36.27 75.79 Z" stroke="#000000" stroke-width="2" stroke-linejoin="round" fill="#FFFF00"/><path d=" M 86.27 104.66 L 111.27 90.22 L 61.27 90.22 L 86.27 104.66 Z" stroke="#000000" stroke-width="2" stroke-linejoin="round" fill="#FFFF00"/><path d=" M 61.27 90.22 L 111.27 90.22 L 111.27 61.35 L 61.27 61.35 L 61.27 90.22 Z" stroke="#000000" stroke-width="2" stroke-linejoin="round" fill="#FFFF00"/><path d=" M 86.27 104.66 L 86.27 133.52 L 111.27 90.22 L 86.27 104.66 Z" stroke="#000000" stroke-width="2" stroke-linejoin="round" fill="#00D800"/><path d=" M 136.27 75.79 L 111.27 90.22 L 136.27 104.66 L 136.27 75.79 Z" stroke="#000000" stroke-width="2" stroke-linejoin="round" fill="#00D800"/><path d=" M 86.27 162.39 L 111.27 147.96 L 86.27 133.52 L 86.27 162.39 Z" stroke="#000000" stroke-width="2" stroke-linejoin="round" fill="#00D800"/><path d=" M 136.27 133.52 L 136.27 104.66 L 111.27 147.96 L 136.27 133.52 Z" stroke="#000000" stroke-width="2" stroke-linejoin="round" fill="#00D800"/><path d=" M 111.27 90.22 L 86.27 133.52 L 111.27 147.96 L 136.27 104.66 L 111.27 90.22 Z" stroke="#000000" stroke-width="2" stroke-linejoin="round" fill="#00D800"/><path d=" M 36.27 75.79 L 36.27 104.66 L 61.27 90.22 L 36.27 75.79 Z" stroke="#000000" stroke-width="2" stroke-linejoin="round" fill="#FF0000"/><path d=" M 86.27 104.66 L 61.27 90.22 L 86.27 133.52 L 86.27 104.66 Z" stroke="#000000" stroke-width="2" stroke-linejoin="round" fill="#FF0000"/><path d=" M 36.27 133.52 L 61.27 147.96 L 36.27 104.66 L 36.27 133.52 Z" stroke="#000000" stroke-width="2" stroke-linejoin="round" fill="#FF0000"/><path d=" M 86.27 162.39 L 86.27 133.52 L 61.27 147.96 L 86.27 162.39 Z" stroke="#000000" stroke-width="2" stroke-linejoin="round" fill="#FF0000"/><path d=" M 86.27 133.52 L 61.27 90.22 L 36.27 104.66 L 61.27 147.96 L 86.27 133.52 Z" stroke="#000000" stroke-width="2" stroke-linejoin="round" fill="#FF0000"/><text stroke="#000000" stroke-width="0.25" stroke-miterlimit="10" font-family="arialmt,arial" font-size="14" transform="matrix(1,0,0,1,88.13,117.14)">F</text><text stroke="#000000" stroke-width="0.25" stroke-miterlimit="10" font-family="arialmt,arial" font-size="14" transform="matrix(1,0,0,1,90.13,47.14)">B</text><text stroke="#000000" stroke-width="0.25" stroke-miterlimit="10" font-family="arialmt,arial" font-size="14" transform="matrix(1,0,0,1,139.13,82.14)">R</text><text stroke="#000000" stroke-width="0.25" stroke-miterlimit="10" font-family="arialmt,arial" font-size="14" letter-spacing="-0.04em" transform="matrix(1,0,0,1,25.27,80.14)">L</text><text stroke="#000000" stroke-width="0.25" stroke-miterlimit="10" font-family="arialmt,arial" font-size="12" transform="matrix(1,0,0,1,28.13,131.42)">l</text><text stroke="#000000" stroke-width="0.25" stroke-miterlimit="10" font-family="arialmt,arial" font-size="14" transform="matrix(1,0,0,1,84.13,175.14)">f</text><text stroke="#000000" stroke-width="0.25" stroke-miterlimit="10" font-family="arialmt,arial" font-size="14" transform="matrix(1,0,0,1,140.13,131.14)">r</text><line x1="111.27" y1="119.05" x2="162.27" y2="148.05" fill="none"/><line x1="61.27" y1="119.05" x2="8.27" y2="148.05" fill="none"/><line x1="61.27" y1="119.05" x2="8.27" y2="148.05" stroke="#808080" stroke-width="2" stroke-miterlimit="10" fill="#808080"/><line x1="111.27" y1="119.05" x2="163.27" y2="148.05" stroke="#808080" stroke-width="2" stroke-miterlimit="10" fill="none"/><line x1="86.27" y1="76.05" x2="86.27" y2="17.05" stroke="#808080" stroke-width="2" stroke-miterlimit="10" fill="none"/><text stroke="#000000" stroke-width="0.25" stroke-miterlimit="10" font-family="arialmt,arial" font-size="14" transform="matrix(1,0,0,1,83.13,12.14)">y</text><text stroke="#000000" stroke-width="0.25" stroke-miterlimit="10" font-family="arialmt,arial" font-size="14" transform="matrix(1,0,0,1,0.13,154.14)">z</text><text stroke="#000000" stroke-width="0.25" stroke-miterlimit="10" font-family="arialmt,arial" font-size="14" transform="matrix(1,0,0,1,165.15,156.09)">x</text><path d=" M 28.42 145.84 L 30.72 142.49 L 29.17 142.78 C 29.5168 139.868 28.1989 137.008 25.76 135.38 C 22.0652 132.837 17.0083 133.77 14.465 137.465 C 11.9217 141.16 12.8552 146.217 16.55 148.76 C 18.4856 150.096 20.9148 150.503 23.18 149.87 L 22.67 147.87 C 20.9625 148.345 19.1323 148.042 17.67 147.04 C 15.0306 144.955 14.581 141.126 16.6657 138.486 C 18.5646 136.082 21.9537 135.463 24.58 137.04 C 26.5109 138.428 27.5062 140.777 27.16 143.13 L 25.04 143.52 Z" fill="#575757"/><path d=" M 94.27 30 L 94.27 27.23 L 93.17 28.01 C 91.82 26.29 89.17 25.22 86.17 25.27 C 81.71 25.33 78.09 27.88 78.17 30.94 C 78.25 34 81.91 36.44 86.38 36.37 C 88.5675 36.4043 90.7026 35.6997 92.44 34.37 L 90.9 33.49 C 89.5666 34.5217 87.915 35.0558 86.23 35 C 82.88 35.05 80.11 33.22 80.07 30.93 C 80.03 28.64 82.75 26.72 86.07 26.67 C 88.2108 26.5401 90.2931 27.3988 91.72 29 L 90.21 30.06 Z" fill="#575757"/><path d=" M 153.28 134.51 L 149.75 132.51 L 150.17 134.03 C 147.247 133.93 144.513 135.475 143.09 138.03 C 140.949 141.971 142.408 146.9 146.349 149.041 C 150.192 151.129 154.999 149.798 157.22 146.03 C 158.381 143.986 158.575 141.531 157.75 139.33 L 155.85 140 C 156.453 141.645 156.307 143.472 155.45 145 C 153.902 147.986 150.226 149.151 147.24 147.603 C 144.254 146.055 143.089 142.379 144.637 139.393 C 144.707 139.259 144.781 139.128 144.86 139 C 146.071 136.953 148.326 135.756 150.7 135.9 L 151.27 137.98 Z" fill="#575757"/></g></g></svg>