<svg viewBox="0 0 202 117.47" xmlns="http://www.w3.org/2000/svg" xmlns:xlink="http://www.w3.org/1999/xlink" overflow="hidden"><defs></defs><g id="图层_2"><g id="图层_1-2"><path d="M201 29.86 201 58.73 176 73.17 201 29.86Z" fill="#404040"/><path d="M201 1 201 29.86 176 15.43 201 1Z" fill="#FFFF00"/><path d="M201 29.86 176 73.17 151 58.73 176 15.43 201 29.86Z" fill="#FFFF00"/><path d="M176 15.43 151 58.73 151 29.86 176 15.43Z" fill="#FFFF00"/><path d="M176 73.17 151 87.6 151 58.73 176 73.17Z" fill="#404040"/><path d="M151 58.73 151 87.6 126 102.03 151 58.73Z" fill="#00D800"/><path d="M151 29.86 151 58.73 126 44.3 151 29.86Z" fill="#404040"/><rect x="101" y="58.73" width="50" height="28.87" fill="#0000F2" transform="matrix(0.5 -0.866025 0.866025 0.5 -0.36 145.7)"/><path d="M151 29.86 126 44.3 126 15.43 151 29.86Z" fill="#00D800"/><rect x="76" y="15.43" width="50" height="28.87" fill="#00D800"/><path d="M126 44.3 101 87.6 101 58.73 126 44.3Z" fill="#FFFF00"/><path d="M126 15.43 76 15.43 101 1 126 15.43Z" fill="#404040"/><path d="M126 44.3 101 58.73 76 44.3 126 44.3Z" fill="#404040"/><path d="M126 102.03 101 116.47 101 87.6 126 102.03Z" fill="#00D800"/><path d="M101 87.6 101 116.47 76 102.03 101 87.6Z" fill="#FF0000"/><path d="M101 58.73 101 87.6 76 44.3 101 58.73Z" fill="#404040"/><rect x="61.57" y="48.17" width="28.87" height="50" fill="#FFA100" transform="matrix(0.866025 -0.5 0.5 0.866025 -26.4 47.8)"/><path d="M76 15.43 76 44.3 51 29.86 76 15.43Z" fill="#404040"/><path d="M51 58.73 76 102.03 51 87.6 51 58.73Z" fill="#FF0000"/><path d="M76 44.3 51 58.73 51 29.86 76 44.3Z" fill="#404040"/><path d="M51 58.73 51 87.6 26 73.17 51 58.73Z" fill="#404040"/><path d="M51 29.86 51 58.73 26 15.43 51 29.86Z" fill="#FFFF00"/><path d="M26 15.43 51 58.73 26 73.17 1 29.86 26 15.43Z" fill="#404040"/><path d="M1 29.86 26 73.17 1 58.73 1 29.86Z" fill="#404040"/><path d="M26 15.43 1 29.86 1 1 26 15.43Z" fill="#404040"/><path d="M126 15.43 101 1 76 15.43" stroke="#000000" stroke-width="2" stroke-linejoin="round" fill="none"/><line x1="151" y1="29.86" x2="126" y2="15.43" stroke="#000000" stroke-width="2" stroke-linejoin="round" fill="none"/><line x1="76" y1="15.43" x2="51" y2="29.86" stroke="#000000" stroke-width="2" stroke-linejoin="round" fill="none"/><rect x="76" y="15.43" width="50" height="28.87" stroke="#000000" stroke-width="2" stroke-linejoin="round" fill="none"/><line x1="126" y1="44.3" x2="101" y2="58.73" stroke="#000000" stroke-width="2" stroke-linejoin="round" fill="none"/><line x1="151" y1="29.86" x2="126" y2="44.3" stroke="#000000" stroke-width="2" stroke-linejoin="round" fill="none"/><line x1="101" y1="116.47" x2="126" y2="102.03" stroke="#000000" stroke-width="2" stroke-linejoin="round" fill="none"/><line x1="126" y1="102.03" x2="151" y2="87.6" stroke="#000000" stroke-width="2" stroke-linejoin="round" fill="none"/><rect x="101" y="58.73" width="50" height="28.87" stroke="#000000" stroke-width="2" stroke-linejoin="round" fill="none" transform="matrix(0.5 -0.866025 0.866025 0.5 -0.36 145.7)"/><line x1="76" y1="44.3" x2="51" y2="29.86" stroke="#000000" stroke-width="2" stroke-linejoin="round" fill="none"/><path d="M101 87.6 101 58.73 76 44.3" stroke="#000000" stroke-width="2" stroke-linejoin="round" fill="none"/><line x1="51" y1="87.6" x2="76" y2="102.03" stroke="#000000" stroke-width="2" stroke-linejoin="round" fill="none"/><path d="M76 102.03 101 116.47 101 87.6" stroke="#000000" stroke-width="2" stroke-linejoin="round" fill="none"/><rect x="61.57" y="48.17" width="28.87" height="50" stroke="#000000" stroke-width="2" stroke-linejoin="round" fill="none" transform="matrix(0.866025 -0.5 0.5 0.866025 -26.4 47.8)"/><path d="M26 15.43 1 1 1 29.86" stroke="#000000" stroke-width="2" stroke-linejoin="round" fill="none"/><path d="M51 58.73 51 29.86 26 15.43" stroke="#000000" stroke-width="2" stroke-linejoin="round" fill="none"/><path d="M1 29.86 1 58.73 26 73.17" stroke="#000000" stroke-width="2" stroke-linejoin="round" fill="none"/><path d="M26 73.17 51 87.6 51 58.73" stroke="#000000" stroke-width="2" stroke-linejoin="round" fill="none"/><path d="M51 58.73 26 15.43 1 29.86 26 73.17 51 58.73Z" stroke="#000000" stroke-width="2" stroke-linejoin="round" fill="none"/><path d="M176 15.43 151 29.86 151 58.73" stroke="#000000" stroke-width="2" stroke-linejoin="round" fill="none"/><path d="M201 29.86 201 1 176 15.43" stroke="#000000" stroke-width="2" stroke-linejoin="round" fill="none"/><path d="M151 58.73 151 87.6 176 73.17" stroke="#000000" stroke-width="2" stroke-linejoin="round" fill="none"/><path d="M176 73.17 201 58.73 201 29.86" stroke="#000000" stroke-width="2" stroke-linejoin="round" fill="none"/><path d="M176 15.43 151 58.73 176 73.17 201 29.86 176 15.43Z" stroke="#000000" stroke-width="2" stroke-linejoin="round" fill="none"/></g></g></svg>