<svg version="1.1" width="128" height="128" viewBox="-0.9 -0.9 1.8 1.8" xmlns="http://www.w3.org/2000/svg" xmlns:xlink="http://www.w3.org/1999/xlink" overflow="hidden"><g stroke-width="0.1" stroke-linejoin="round" opacity="1"><path d=" M -0.522222 -0.522222 L 0.522222 -0.522222 L 0.522222 0.522222 L -0.522222 0.522222 Z" stroke="#000000" fill="#000000"/></g><g stroke-width="0" stroke-linejoin="round" stroke-opacity="0.5" opacity="1"><path d=" M -0.513889 -0.513889 L -0.0416667 -0.513889 L -0.0416667 -0.0416667 L -0.513889 -0.0416667 Z" stroke="#000000" fill="#FEFE00"/><path d=" M 0.0416667 -0.513889 L 0.513889 -0.513889 L 0.513889 -0.0416667 L 0.0416667 -0.0416667 Z" stroke="#000000" fill="#FEFE00"/><path d=" M -0.513889 0.0416667 L -0.0416667 0.0416667 L -0.0416667 0.513889 L -0.513889 0.513889 Z" stroke="#000000" fill="#00D800"/><path d=" M 0.0416667 0.0416667 L 0.513889 0.0416667 L 0.513889 0.513889 L 0.0416667 0.513889 Z" stroke="#000000" fill="#EE0000"/></g><g stroke-width="0.02" stroke-linejoin="round" stroke-opacity="1" opacity="1"><path d=" M -0.538889 0.553889 L -0.0166667 0.553889 L -0.0166667 0.701667 L -0.486667 0.701667 Z" stroke="#000000" fill="#FEFE00"/><path d=" M 0.015 0.553889 L 0.537222 0.553889 L 0.485 0.701667 L 0.015 0.701667 Z" stroke="#000000" fill="#FEFE00"/><path d=" M -0.553889 -0.538889 L -0.553889 -0.0166667 L -0.701667 -0.0166667 L -0.701667 -0.486667 Z" stroke="#000000" fill="#00D800"/><path d=" M -0.553889 0.015 L -0.553889 0.537222 L -0.701667 0.485 L -0.701667 0.015 Z" stroke="#000000" fill="#FFA100"/><path d=" M 0.538889 -0.553889 L 0.0166667 -0.553889 L 0.0166667 -0.701667 L 0.486667 -0.701667 Z" stroke="#000000" fill="#0000F2"/><path d=" M -0.015 -0.553889 L -0.537222 -0.553889 L -0.485 -0.701667 L -0.015 -0.701667 Z" stroke="#000000" fill="#EE0000"/><path d=" M 0.553889 0.538889 L 0.553889 0.0166667 L 0.701667 0.0166667 L 0.701667 0.486667 Z" stroke="#000000" fill="#0000F2"/><path d=" M 0.553889 -0.015 L 0.553889 -0.537222 L 0.701667 -0.485 L 0.701667 -0.015 Z" stroke="#000000" fill="#FFA100"/></g></svg>