<svg viewBox="0 0 247 214.36" xmlns="http://www.w3.org/2000/svg" xmlns:xlink="http://www.w3.org/1999/xlink" overflow="hidden"><defs></defs><g id="图层_2"><g id="图层_1-2"><path d="M245.47 212.81 164.25 212.81 204.83 189.38 204.84 189.35 245.47 212.81Z" fill="#EE0000"/><path d="M204.81 142.38 245.45 212.78 204.83 189.33 204.81 189.32 204.81 142.38Z" fill="#00D800"/><path d="M204.83 189.38 164.25 212.81 164.16 212.81 123.5 189.33 204.8 189.33 204.81 189.33 204.84 189.35 204.83 189.38Z" fill="#EE0000"/><path d="M204.81 142.38 204.81 189.32 204.8 189.31 164.14 118.9 164.14 118.89 204.8 142.36 204.81 142.38Z" fill="#00D800"/><path d="M204.81 142.37 204.81 142.38 204.8 142.36 204.81 142.37Z" fill="#00D800"/><path d="M164.14 118.9 204.8 189.31 164.16 165.85 164.14 165.83 164.14 118.9Z" fill="#0000F2"/><path d="M204.8 142.36 164.14 118.89 164.14 71.94 204.8 142.36Z" fill="#00D800"/><path d="M204.8 189.33 123.5 189.33 164.15 165.86 204.8 189.33Z" fill="#EE0000"/><path d="M164.16 212.81 82.83 212.81 123.5 189.33 164.16 212.81Z" fill="#FEFE00"/><path d="M164.14 165.85 164.15 165.86 123.5 189.33 82.84 165.86 82.85 165.85 82.86 165.85 164.14 165.85Z" fill="#00D800"/><path d="M164.14 165.83 164.14 165.85 164.13 165.83 164.14 165.83Z" fill="#0000F2"/><path d="M164.14 118.9 164.14 165.83 164.13 165.83 123.52 95.5 123.52 95.44 164.14 118.89 164.14 118.9Z" fill="#0000F2"/><path d="M164.14 71.94 164.14 118.89 123.52 48.55 123.52 48.46 123.52 48.43 164.09 71.85 164.14 71.94Z" fill="#00D800"/><path d="M164.14 118.89 123.52 95.44 123.52 95.41 123.52 48.55 164.14 118.89Z" fill="#EE0000"/><path d="M164.14 165.85 82.86 165.85 82.86 165.84 123.49 142.38 123.5 142.38 164.14 165.85Z" fill="#00D800"/><path d="M164.09 71.85 123.52 48.43 123.52 1.59 164.09 71.85Z" fill="#00D800"/><path d="M123.52 142.37 123.52 95.5 164.13 165.83 123.51 142.38 123.52 142.37Z" fill="#0000F2"/><path d="M123.5 189.33 82.83 212.81 42.17 189.34 42.19 189.33 123.5 189.33Z" fill="#EE0000"/><path d="M123.5 189.33 42.19 189.33 82.84 165.86 123.5 189.33Z" fill="#0000F2"/><path d="M123.47 142.37 123.48 142.38 82.87 165.83 123.47 95.5 123.47 142.37Z" fill="#EE0000"/><path d="M123.47 95.44 123.47 95.5 82.87 165.83 82.86 165.83 82.86 118.89 123.47 95.44Z" fill="#EE0000"/><path d="M123.47 95.41 123.47 95.44 82.86 118.89 123.47 48.55 123.47 95.41Z" fill="#00D800"/><path d="M123.47 48.49 123.47 48.55 82.86 118.89 82.86 71.94 123.47 48.49Z" fill="#0000F2"/><path d="M123.47 48.46 123.47 48.49 82.86 71.94 82.85 71.94 123.47 1.59 123.47 48.46Z" fill="#0000F2"/><path d="M82.86 118.89 82.86 165.83 82.86 165.84 82.83 165.85 42.2 189.31 82.86 118.89Z" fill="#00D800"/><path d="M82.86 71.94 82.86 118.89 42.19 142.37 82.85 71.94 82.86 71.94Z" fill="#0000F2"/><path d="M82.83 212.81 1.52 212.81 42.17 189.34 82.83 212.81Z" fill="#EE0000"/><path d="M42.19 189.33 42.17 189.34 42.17 189.33 42.19 189.33Z" fill="#404040"/><path d="M42.2 189.31 42.17 189.33 42.16 189.33 42.14 189.3 42.14 142.45 42.19 142.37 82.86 118.89 42.2 189.31Z" fill="#0000F2"/><path d="M42.14 189.3 42.16 189.33 1.53 212.79 42.14 142.45 42.14 189.3Z" fill="#0000F2"/><line x1="123.49" y1="142.38" x2="123.5" y2="142.37" stroke="#000000" stroke-width="3" stroke-linecap="round" stroke-miterlimit="10" fill="none"/><path d="M82.86 165.83 82.87 165.83 123.48 142.38" stroke="#000000" stroke-width="3" stroke-linecap="round" stroke-miterlimit="10" fill="none"/><path d="M42.17 189.33 42.2 189.31 82.83 165.85 82.86 165.84" stroke="#000000" stroke-width="3" stroke-linecap="round" stroke-miterlimit="10" fill="none"/><path d="M1.5 212.81 1.53 212.79 42.16 189.33" stroke="#000000" stroke-width="3" stroke-linecap="round" stroke-miterlimit="10" fill="none"/><path d="M204.8 189.31 164.16 165.85 164.14 165.83 164.13 165.83 123.51 142.38 123.5 142.37" stroke="#000000" stroke-width="3" stroke-linecap="round" stroke-miterlimit="10" fill="none"/><path d="M245.5 212.81 245.45 212.78 204.83 189.33 204.81 189.32" stroke="#000000" stroke-width="3" stroke-linecap="round" stroke-miterlimit="10" fill="none"/><path d="M82.86 165.85 164.14 165.85 164.16 165.85" stroke="#000000" stroke-width="3" stroke-linecap="round" stroke-miterlimit="10" fill="none"/><line x1="82.83" y1="165.85" x2="82.85" y2="165.85" stroke="#000000" stroke-width="3" stroke-linecap="round" stroke-miterlimit="10" fill="none"/><line x1="204.81" y1="189.33" x2="204.83" y2="189.33" stroke="#000000" stroke-width="3" stroke-linecap="round" stroke-miterlimit="10" fill="none"/><path d="M42.17 189.33 42.19 189.33 123.5 189.33 204.8 189.33" stroke="#000000" stroke-width="3" stroke-linecap="round" stroke-miterlimit="10" fill="none"/><path d="M82.83 212.81 123.5 189.33 164.15 165.86 164.16 165.85" stroke="#000000" stroke-width="3" stroke-linecap="round" stroke-miterlimit="10" fill="none"/><path d="M164.16 212.81 123.5 189.33 82.84 165.86 82.83 165.85" stroke="#000000" stroke-width="3" stroke-linecap="round" stroke-miterlimit="10" fill="none"/><path d="M82.83 212.81 42.17 189.34 42.17 189.33 42.16 189.33" stroke="#000000" stroke-width="3" stroke-linecap="round" stroke-miterlimit="10" fill="none"/><path d="M164.16 212.86 164.25 212.81 204.83 189.38" stroke="#000000" stroke-width="3" stroke-linecap="round" stroke-miterlimit="10" fill="none"/><path d="M1.5 212.81 1.52 212.81 82.83 212.81 164.16 212.81 164.25 212.81 245.47 212.81 245.5 212.81" stroke="#000000" stroke-width="3" stroke-linecap="round" stroke-miterlimit="10" fill="none"/><path d="M123.52 1.5 123.52 1.59 123.52 48.43 123.52 48.46 123.52 48.55 123.52 95.41 123.52 95.44 123.52 95.5 123.52 142.37" stroke="#000000" stroke-width="3" stroke-linecap="round" stroke-miterlimit="10" fill="none"/><path d="M123.5 142.38 123.51 142.38 123.52 142.37" stroke="#000000" stroke-width="3" stroke-linecap="round" stroke-miterlimit="10" fill="none"/><line x1="82.86" y1="165.84" x2="123.49" y2="142.38" stroke="#000000" stroke-width="3" stroke-linecap="round" stroke-miterlimit="10" fill="none"/><path d="M1.52 212.81 42.17 189.34 42.19 189.33 82.84 165.86 82.85 165.85 82.86 165.85" stroke="#000000" stroke-width="3" stroke-linecap="round" stroke-miterlimit="10" fill="none"/><path d="M123.52 95.41 123.51 95.43 123.5 95.45 123.47 95.5 82.87 165.83 82.86 165.84" stroke="#000000" stroke-width="3" stroke-linecap="round" stroke-miterlimit="10" fill="none"/><path d="M123.52 48.46 123.5 48.5 123.47 48.55 82.86 118.89 42.2 189.31 42.19 189.33" stroke="#000000" stroke-width="3" stroke-linecap="round" stroke-miterlimit="10" fill="none"/><path d="M82.86 71.94 82.86 118.89 82.86 165.83 82.86 165.84 82.86 165.85" stroke="#000000" stroke-width="3" stroke-linecap="round" stroke-miterlimit="10" fill="none"/><path d="M42.19 142.37 82.86 118.89 123.47 95.44 123.48 95.43 123.5 95.42 123.52 95.41" stroke="#000000" stroke-width="3" stroke-linecap="round" stroke-miterlimit="10" fill="none"/><path d="M82.86 71.94 123.47 48.49 123.48 48.48 123.52 48.46" stroke="#000000" stroke-width="3" stroke-linecap="round" stroke-miterlimit="10" fill="none"/><path d="M42.14 142.34 42.14 142.45 42.14 189.3" stroke="#000000" stroke-width="3" stroke-linecap="round" stroke-miterlimit="10" fill="none"/><path d="M123.52 1.5 123.5 1.54 123.47 1.59 82.85 71.94 42.19 142.37 42.14 142.45 1.53 212.79 1.52 212.81" stroke="#000000" stroke-width="3" stroke-linecap="round" stroke-miterlimit="10" fill="none"/><path d="M245.47 212.81 204.84 189.35 204.81 189.33 204.8 189.33 164.15 165.86 164.14 165.85 123.5 142.38 123.49 142.38 123.48 142.38 123.47 142.37" stroke="#000000" stroke-width="3" stroke-linecap="round" stroke-miterlimit="10" fill="none"/><path d="M123.47 1.5 123.47 1.59 123.47 48.46 123.47 48.49 123.47 48.55 123.47 95.41 123.47 95.44 123.47 95.5 123.47 142.37" stroke="#000000" stroke-width="3" stroke-linecap="round" stroke-miterlimit="10" fill="none"/><path d="M164.14 165.85 164.13 165.83 123.52 95.5 123.5 95.45 123.48 95.43 123.47 95.41" stroke="#000000" stroke-width="3" stroke-linecap="round" stroke-miterlimit="10" fill="none"/><path d="M164.14 118.89 123.52 48.55 123.5 48.5 123.48 48.48 123.47 48.46" stroke="#000000" stroke-width="3" stroke-linecap="round" stroke-miterlimit="10" fill="none"/><path d="M204.81 189.32 204.8 189.31 164.14 118.9" stroke="#000000" stroke-width="3" stroke-linecap="round" stroke-miterlimit="10" fill="none"/><path d="M204.81 142.37 204.8 142.36 164.14 118.89 123.52 95.44 123.51 95.43 123.5 95.42 123.47 95.41" stroke="#000000" stroke-width="3" stroke-linecap="round" stroke-miterlimit="10" fill="none"/><path d="M164.14 71.94 164.14 118.89 164.14 118.9 164.14 165.83 164.14 165.85" stroke="#000000" stroke-width="3" stroke-linecap="round" stroke-miterlimit="10" fill="none"/><path d="M204.81 142.37 204.81 142.38 204.81 189.32 204.81 189.33" stroke="#000000" stroke-width="3" stroke-linecap="round" stroke-miterlimit="10" fill="none"/><path d="M164.19 71.91 164.09 71.85 123.52 48.43" stroke="#000000" stroke-width="3" stroke-linecap="round" stroke-miterlimit="10" fill="none"/><path d="M245.47 212.81 245.45 212.78 204.81 142.38 204.8 142.36 164.14 71.94 164.09 71.85 123.52 1.59 123.5 1.54 123.47 1.5" stroke="#000000" stroke-width="3" stroke-linecap="round" stroke-miterlimit="10" fill="none"/></g></g></svg>