<!-- Generated by scripts/deskpet-originals/build-originals.mjs -->
<svg xmlns="http://www.w3.org/2000/svg" width="240" height="240" viewBox="0 0 240 240" role="img" aria-labelledby="title desc" data-character="hermit-crab" data-scene="letter" data-duration="4.4">
<title id="title">寄居蟹 收到信了 / Hermit Crab A letter</title><desc id="desc">凑近信封，打开后认真看一看。 Leans toward an envelope and looks inside.</desc>
<style>.op11s26-1{transform-origin:92px 165px;animation:op11s26-1 4.4s steps(10,end) infinite}@keyframes op11s26-1{0%{transform:translate(0px,0px) rotate(0deg) scale(1,1);}100%{transform:translate(0px,0px) rotate(0deg) scale(1,1);}}
.op11s26-2{transform-origin:118px 168px;animation:op11s26-2 4.4s steps(10,end) infinite}@keyframes op11s26-2{0%{transform:translate(0px,0px) rotate(0deg) scale(1,1);}100%{transform:translate(0px,0px) rotate(0deg) scale(1,1);}}
.op11s26-3{transform-origin:151px 170px;animation:op11s26-3 4.4s steps(10,end) infinite}@keyframes op11s26-3{0%{transform:translate(0px,0px) rotate(0deg) scale(1,1);}100%{transform:translate(0px,0px) rotate(0deg) scale(1,1);}}
.op11s26-4{transform-origin:175px 168px;animation:op11s26-4 4.4s steps(10,end) infinite}@keyframes op11s26-4{0%{transform:translate(0px,0px) rotate(0deg) scale(1,1);}100%{transform:translate(0px,0px) rotate(0deg) scale(1,1);}}
.op11s26-5{transform-origin:91px 112px;animation:op11s26-5 4.4s steps(10,end) infinite}@keyframes op11s26-5{0%{transform:translate(0px,0px) rotate(0deg) scale(1,1);}32%{transform:translate(0px,2px) rotate(0deg) scale(1,1);}55%{transform:translate(0px,2px) rotate(0deg) scale(1,1);}68%{transform:translate(0px,-1px) rotate(0deg) scale(1,1);}100%{transform:translate(0px,0px) rotate(0deg) scale(1,1);}}
.op11s26-6{transform-origin:91px 112px;animation:op11s26-6 4.4s steps(10,end) infinite}@keyframes op11s26-6{0%{transform:translate(0px,0px) rotate(0deg) scale(1,1);}18%{transform:translate(0px,0px) rotate(0deg) scale(1,1);}20%{transform:translate(0px,0px) rotate(0deg) scale(1,0.08);}23%{transform:translate(0px,0px) rotate(0deg) scale(1,1);}76%{transform:translate(0px,0px) rotate(0deg) scale(1,1);}78%{transform:translate(0px,0px) rotate(0deg) scale(1,0.08);}81%{transform:translate(0px,0px) rotate(0deg) scale(1,1);}100%{transform:translate(0px,0px) rotate(0deg) scale(1,1);}}
.op11s26-7{transform-origin:89px 140px;animation:op11s26-7 4.4s steps(10,end) infinite}@keyframes op11s26-7{0%{transform:translate(0px,0px) rotate(0deg) scale(1,1);}32%{transform:translate(0px,0px) rotate(-5deg) scale(1,1);}64%{transform:translate(0px,0px) rotate(3deg) scale(1,1);}100%{transform:translate(0px,0px) rotate(0deg) scale(1,1);}}
.op11s26-8{transform-origin:120px 115px;animation:op11s26-8 4.4s steps(10,end) infinite}@keyframes op11s26-8{0%{transform:translate(0px,0px) rotate(0deg) scale(1,1);}32%{transform:translate(0px,2px) rotate(0deg) scale(1,1);}55%{transform:translate(0px,2px) rotate(0deg) scale(1,1);}68%{transform:translate(0px,-1px) rotate(0deg) scale(1,1);}100%{transform:translate(0px,0px) rotate(0deg) scale(1,1);}}
.op11s26-9{transform-origin:120px 115px;animation:op11s26-9 4.4s steps(10,end) infinite}@keyframes op11s26-9{0%{transform:translate(0px,0px) rotate(0deg) scale(1,1);}18%{transform:translate(0px,0px) rotate(0deg) scale(1,1);}20%{transform:translate(0px,0px) rotate(0deg) scale(1,0.08);}23%{transform:translate(0px,0px) rotate(0deg) scale(1,1);}76%{transform:translate(0px,0px) rotate(0deg) scale(1,1);}78%{transform:translate(0px,0px) rotate(0deg) scale(1,0.08);}81%{transform:translate(0px,0px) rotate(0deg) scale(1,1);}100%{transform:translate(0px,0px) rotate(0deg) scale(1,1);}}
.op11s26-10{transform-origin:119px 143px;animation:op11s26-10 4.4s steps(10,end) infinite}@keyframes op11s26-10{0%{transform:translate(0px,0px) rotate(0deg) scale(1,1);}38%{transform:translate(0px,0px) rotate(4deg) scale(1,1);}70%{transform:translate(0px,0px) rotate(-3deg) scale(1,1);}100%{transform:translate(0px,0px) rotate(0deg) scale(1,1);}}
.op11s26-11{transform-origin:106px 151px;animation:op11s26-11 4.4s steps(10,end) infinite}@keyframes op11s26-11{0%{transform:translate(0px,0px) rotate(0deg) scale(1,1);}100%{transform:translate(0px,0px) rotate(0deg) scale(1,1);}}
.op11s26-12{transform-origin:83px 146px;animation:op11s26-12 4.4s steps(10,end) infinite}@keyframes op11s26-12{0%{transform:translate(0px,0px) rotate(0deg) scale(1,1);}100%{transform:translate(0px,0px) rotate(0deg) scale(1,1);}}
.op11s26-13{transform-origin:134px 154px;animation:op11s26-13 4.4s steps(10,end) infinite}@keyframes op11s26-13{0%{transform:translate(0px,0px) rotate(0deg) scale(1,1);}100%{transform:translate(0px,0px) rotate(0deg) scale(1,1);}}
.op11s26-14{transform-origin:107px 142px;animation:op11s26-14 4.4s steps(10,end) infinite}@keyframes op11s26-14{0%{transform:translate(0px,0px) rotate(0deg) scale(1,1);}23%{transform:translate(0px,3px) rotate(5deg) scale(1,1);}52%{transform:translate(0px,3px) rotate(5deg) scale(1,1);}65%{transform:translate(0px,-2px) rotate(-4deg) scale(1,1);}100%{transform:translate(0px,0px) rotate(0deg) scale(1,1);}}
.op11s26-15{transform-origin:122px 154px;animation:op11s26-15 4.4s steps(10,end) infinite}@keyframes op11s26-15{0%{transform:translate(0px,0px) rotate(0deg) scale(1,1);}45%{transform:translate(0px,-1px) rotate(0deg) scale(1,1);}76%{transform:translate(0px,0px) rotate(0deg) scale(1,1);}100%{transform:translate(0px,0px) rotate(0deg) scale(1,1);}}
.op11s26-16{transform-origin:0px -11px;animation:op11s26-16 4.4s ease-in-out infinite}@keyframes op11s26-16{0%{transform:translate(0px,0px) rotate(0deg) scale(1,1);}31%{transform:translate(0px,0px) rotate(0deg) scale(1,1);}45%{transform:translate(0px,0px) rotate(0deg) scale(1,-1);}80%{transform:translate(0px,0px) rotate(0deg) scale(1,-1);}100%{transform:translate(0px,0px) rotate(0deg) scale(1,1);}}
.op11s26-17{transform-origin:0px 0px;animation:op11s26-17 4.4s ease-in-out infinite}@keyframes op11s26-17{0%{opacity:0;}12%{opacity:0;}13%{opacity:1;}88%{opacity:1;}89%{opacity:0;}100%{opacity:0;}}
@media(prefers-reduced-motion:reduce){g{animation-play-state:paused!important;animation-delay:-2.4640000000000004s!important}}
</style><ellipse cx="120" cy="198" rx="66" ry="6" fill="#263444" opacity=".12"/>
<g data-joint="body"><g class="op11s26-15"><path d="M110 80h12V68h56v8h20v12h12v16h8v62h-10v14h-80v-12h-18Z" fill="#233F67" stroke="none" stroke-width="1.8" stroke-linecap="round" stroke-linejoin="round"/><path d="M122 80h54v8h16v74h-62v-12h-8Z" fill="#FFF0D2" stroke="none" stroke-width="1.8" stroke-linecap="round" stroke-linejoin="round"/><rect x="134" y="89" width="16" height="17" rx="0" fill="#E56D3E"/><rect x="156" y="89" width="16" height="17" rx="0" fill="#347ABB"/><rect x="178" y="97" width="10" height="17" rx="0" fill="#347ABB"/><rect x="134" y="112" width="16" height="17" rx="0" fill="#347ABB"/><rect x="156" y="112" width="16" height="17" rx="0" fill="#E56D3E"/><rect x="178" y="119" width="10" height="17" rx="0" fill="#FFF0D2"/><rect x="134" y="135" width="16" height="17" rx="0" fill="#FFF0D2"/><rect x="156" y="135" width="16" height="17" rx="0" fill="#347ABB"/><rect x="178" y="141" width="10" height="17" rx="0" fill="#E56D3E"/><path d="M199 101h7v54h-7v13h-9v-7h4v-53h5Z" fill="#347ABB" stroke="none" stroke-width="1.8" stroke-linecap="round" stroke-linejoin="round"/><g data-joint="footLeft"><g class="op11s26-1"><path d="M87 165h10v8h8v12h-6v9h-6v-14h-6Z" fill="#9D4329" stroke="none" stroke-width="1.8" stroke-linecap="round" stroke-linejoin="round"/><path d="M90 167h5v8h8v12h-4v-9h-9Z" fill="#EE8944" stroke="none" stroke-width="1.8" stroke-linecap="round" stroke-linejoin="round"/></g></g><g data-joint="footRight"><g class="op11s26-2"><path d="M113 168h10v8h8v12h-6v9h-6v-14h-6Z" fill="#9D4329" stroke="none" stroke-width="1.8" stroke-linecap="round" stroke-linejoin="round"/><path d="M116 170h5v8h8v12h-4v-9h-9Z" fill="#EE8944" stroke="none" stroke-width="1.8" stroke-linecap="round" stroke-linejoin="round"/></g></g><g data-joint="footLeft"><g class="op11s26-3"><path d="M146 170h10v8h8v12h-6v9h-6v-14h-6Z" fill="#9D4329" stroke="none" stroke-width="1.8" stroke-linecap="round" stroke-linejoin="round"/><path d="M149 172h5v8h8v12h-4v-9h-9Z" fill="#EE8944" stroke="none" stroke-width="1.8" stroke-linecap="round" stroke-linejoin="round"/></g></g><g data-joint="footRight"><g class="op11s26-4"><path d="M170 168h10v8h8v12h-6v9h-6v-14h-6Z" fill="#9D4329" stroke="none" stroke-width="1.8" stroke-linecap="round" stroke-linejoin="round"/><path d="M173 170h5v8h8v12h-4v-9h-9Z" fill="#EE8944" stroke="none" stroke-width="1.8" stroke-linecap="round" stroke-linejoin="round"/></g></g><path d="M79 134h11v-8h32v8h13v10h8v25h-9v9H91v-7H78v-13h-7v-15h8Z" fill="#9D4329" stroke="none" stroke-width="1.8" stroke-linecap="round" stroke-linejoin="round"/><path d="M84 136h13v-6h22v8h12v10h7v17h-9v10H92v-9H81v-15h-5v-7h8Z" fill="#EE8944" stroke="none" stroke-width="1.8" stroke-linecap="round" stroke-linejoin="round"/><path d="M94 154h24v9h7v8H98v-7h-4Z" fill="#FFF0D2" stroke="none" stroke-width="1.8" stroke-linecap="round" stroke-linejoin="round"/><g data-joint="left"><g class="op11s26-12"><path d="M83 148H70v-8H58v-7H43v-11h-7v-18h7v-9h17v8h10v11h-5v8h-7v10h16v8h9Z" fill="#9D4329" stroke="none" stroke-width="1.8" stroke-linecap="round" stroke-linejoin="round"/><path d="M44 103h13v8h8v10h-8v8H45v-10h-5v-11h4Z" fill="#EE8944" stroke="none" stroke-width="1.8" stroke-linecap="round" stroke-linejoin="round"/><rect x="45" y="104" width="6" height="11" rx="0" fill="#F6B577"/></g></g><g data-joint="right"><g class="op11s26-13"><path d="M132 153h13v-7h19v8h7v24h-6v11h-18v-7h-8v-15h-7Z" fill="#9D4329" stroke="none" stroke-width="1.8" stroke-linecap="round" stroke-linejoin="round"/><path d="M146 152h13v8h7v16h-6v9h-10v-7h-7v-15h3Z" fill="#EE8944" stroke="none" stroke-width="1.8" stroke-linecap="round" stroke-linejoin="round"/><rect x="148" y="155" width="5" height="11" rx="0" fill="#F6B577"/></g></g><g data-joint="head"><g class="op11s26-14"><g data-joint="antennaLeft"><g class="op11s26-7"><path d="M87 118h5v27h-5Z" fill="#9D4329" stroke="none" stroke-width="1.8" stroke-linecap="round" stroke-linejoin="round"/><path d="M81 100h17v6h5v17h-5v5h-17v-6h-4v-17h4Z" fill="#EE8944" stroke="none" stroke-width="1.8" stroke-linecap="round" stroke-linejoin="round"/><g data-joint="blink"><g class="op11s26-6"><g data-joint="gaze"><g class="op11s26-5"><rect x="85" y="105" width="12" height="16" rx="0" fill="#253445"/><rect x="87" y="105" width="5" height="6" rx="0" fill="#FFF0D2"/></g></g></g></g></g></g><g data-joint="antennaRight"><g class="op11s26-10"><path d="M116 121h5v27h-5Z" fill="#9D4329" stroke="none" stroke-width="1.8" stroke-linecap="round" stroke-linejoin="round"/><path d="M110 103h17v6h5v17h-5v5h-17v-6h-4v-17h4Z" fill="#EE8944" stroke="none" stroke-width="1.8" stroke-linecap="round" stroke-linejoin="round"/><g data-joint="blink"><g class="op11s26-9"><g data-joint="gaze"><g class="op11s26-8"><rect x="114" y="108" width="12" height="16" rx="0" fill="#253445"/><rect x="116" y="108" width="5" height="6" rx="0" fill="#FFF0D2"/></g></g></g></g></g></g><g data-joint="mouth"><g class="op11s26-11"><path d="M98 148h16v5h-5v6h-6v-6h-5Z" fill="#9D4329" stroke="none" stroke-width="1.8" stroke-linecap="round" stroke-linejoin="round"/></g></g></g></g></g></g><g class="op11s26-17"><g transform="translate(106 190) scale(1) rotate(0)"><g transform="scale(1 .5)"><rect x="-22" y="-11" width="44" height="28" rx="2" fill="#fefbfa"/><path d="M-21-10 0 5 21-10" fill="none" stroke="#FF99BC" stroke-width="1.4" stroke-linecap="round" stroke-linejoin="round"/><g class="op11s26-16"><path d="M-22-11 0 5 22-11Z" fill="#FF99BC"/></g></g></g></g></svg>
