<svg version="1.1" viewBox="0 0 244.1 257.11" xmlns="http://www.w3.org/2000/svg" xmlns:xlink="http://www.w3.org/1999/xlink" overflow="hidden"><defs></defs><g id="f8eaf0ea-be90-4d8f-b401-d6916a249886"><g id="bc34f8d2-aeb9-4996-8dfd-5fc99502a3e8"><path d=" M 88.01 126.1 L 135.57 91.55 L 183.13 126.09 L 164.96 182.03 L 106.19 182.03 L 88.01 126.1 Z" fill="#808080"/><path d=" M 88.01 126.1 L 106.19 182.03 L 164.96 182.03 L 183.13 126.09 L 135.57 91.55 L 88.01 126.1 Z" stroke="#040000" stroke-miterlimit="10" fill="none"/><path d=" M 185.05 125.49 C 185.181 125.893 185.181 126.327 185.05 126.73 L 166.88 182.63 C 166.611 183.442 165.855 183.992 165 184 L 106.17 184 C 105.311 183.996 104.551 183.445 104.28 182.63 L 86.11 126.72 C 85.8438 125.899 86.1341 125 86.83 124.49 L 134.41 89.94 C 135.111 89.4313 136.059 89.4313 136.76 89.94 L 184.33 124.49 C 184.669 124.739 184.921 125.089 185.05 125.49 Z M 163.52 180 L 180.81 126.86 L 135.58 94 L 90.35 126.86 L 107.62 180 Z" stroke="#040000" stroke-miterlimit="10" fill="#211613"/><path d=" M 133.83 2.58 L 133.73 30.39 L 92.62 60.26 L 92.73 32.45 L 133.83 2.58 Z" stroke="#040000" stroke-miterlimit="10" fill="#808080" fill-rule="evenodd"/><path d=" M 90.74 32.44 L 90.62 60.25 C 90.6422 60.9869 91.0584 61.6551 91.71 62 C 92.3803 62.3382 93.1835 62.2726 93.79 61.83 L 134.91 32 C 135.424 31.6244 135.728 31.0266 135.73 30.39 L 135.83 2.59 C 135.832 2.37917 135.798 2.16955 135.73 1.97 C 135.73 1.97 135.73 1.9 135.73 1.87 C 135.452 1.03002 134.654 0.472788 133.77 0.5 C 133.352 0.552353 132.95 0.692048 132.59 0.91 C 132.437 1.02263 132.303 1.15745 132.19 1.31 L 91.56 30.84 C 91.0488 31.2135 90.7447 31.8069 90.74 32.44 Z M 131.82 6.51 L 131.74 29.37 L 94.63 56.37 L 94.73 33.51 Z" stroke="#040000" stroke-miterlimit="10" fill="#060001"/><path d=" M 92.73 32.45 L 92.62 60.26 L 71.44 75.64 L 44.97 67.15 L 92.73 32.45 Z" stroke="#040000" stroke-miterlimit="10" fill="#808080" fill-rule="evenodd"/><path d=" M 94.63 31.83 C 94.6988 32.0328 94.7326 32.2458 94.73 32.46 L 94.61 60.27 C 94.6187 60.9063 94.3116 61.5055 93.79 61.87 L 72.62 77.25 C 72.1057 77.6306 71.4403 77.7421 70.83 77.55 L 44.36 69.05 C 43.6435 68.8183 43.1178 68.2038 43 67.46 C 42.8867 66.7208 43.1953 65.9801 43.8 65.54 L 91.09 31.17 C 91.7467 30.2818 92.999 30.0941 93.8872 30.7508 C 94.222 30.9983 94.4711 31.3441 94.6 31.74 C 94.6069 31.7709 94.617 31.8011 94.63 31.83 Z M 90.63 59.24 L 90.72 36.38 L 49.33 66.45 L 71.09 73.45 Z" stroke="#040000" stroke-miterlimit="10" fill="#060001"/><path d=" M 183.15 126.1 L 198.8 77.96 L 176.52 61.79 L 135.59 91.55 L 183.15 126.1 Z" stroke="#040000" stroke-miterlimit="10" fill="#1B1B1B" fill-rule="evenodd"/><path d=" M 176.52 61.79 L 133.67 30.65 L 92.73 60.41 L 135.59 91.55 L 176.52 61.79 Z" stroke="#040000" stroke-miterlimit="10" fill="#1B1B1B" fill-rule="evenodd"/><path d=" M 178.42 61.18 C 178.488 61.3761 178.522 61.5824 178.52 61.79 C 178.519 62.4319 178.211 63.0345 177.69 63.41 L 136.76 93.16 C 136.059 93.6687 135.111 93.6687 134.41 93.16 L 91.56 62 C 91.0368 61.6323 90.7297 61.0294 90.74 60.39 C 90.7415 59.7534 91.046 59.1556 91.56 58.78 L 132.5 29 C 133.201 28.4913 134.149 28.4913 134.85 29 L 177.7 60.18 C 178.039 60.4292 178.291 60.7792 178.42 61.18 Z M 135.59 89.08 L 173.13 61.79 L 133.67 33.12 L 96.13 60.41 Z" stroke="#040000" stroke-miterlimit="10" fill="#060001"/><path d=" M 198.8 77.96 L 183.15 126.1 L 225.97 157.21 L 241.6 109.07 L 198.8 77.96 Z" stroke="#040000" stroke-miterlimit="10" fill="#808080" fill-rule="evenodd"/><path d=" M 243.5 108.45 C 243.635 108.849 243.635 109.281 243.5 109.68 L 227.87 157.83 C 227.672 158.436 227.196 158.912 226.59 159.11 C 225.981 159.305 225.316 159.197 224.8 158.82 L 182 127.72 C 181.3 127.212 181.006 126.313 181.27 125.49 L 196.9 77.34 C 197.244 76.2903 198.373 75.7181 199.423 76.0619 C 199.619 76.1259 199.803 76.2197 199.97 76.34 L 242.78 107.45 C 243.124 107.695 243.377 108.046 243.5 108.45 Z M 224.92 154 L 239.26 109.85 L 199.85 81.19 L 185.5 125.34 Z" stroke="#040000" stroke-miterlimit="10" fill="#060001"/><path d=" M 164.98 182.01 L 217.92 182.02 L 225.97 157.21 L 183.15 126.1 L 164.98 182.01 Z" stroke="#040000" stroke-miterlimit="10" fill="#808080" fill-rule="evenodd"/><path d=" M 135.59 91.55 L 92.73 60.41 L 71.64 75.74 L 88 126.1 L 135.59 91.55 Z" stroke="#040000" stroke-miterlimit="10" fill="#1B1B1B" fill-rule="evenodd"/><path d=" M 106.17 182.02 L 122.5 232.28 L 148.64 232.27 L 164.98 182.01 L 106.17 182.02 Z" stroke="#040000" stroke-miterlimit="10" fill="#1B1B1B" fill-rule="evenodd"/><path d=" M 148.64 232.27 L 201.58 232.28 L 217.92 182.02 L 164.98 182.01 L 148.64 232.27 Z" stroke="#040000" stroke-miterlimit="10" fill="#1B1B1B" fill-rule="evenodd"/><path d=" M 71.64 75.74 L 28.89 106.79 L 45.26 157.16 L 88 126.1 L 71.64 75.74 Z" stroke="#040000" stroke-miterlimit="10" fill="#1B1B1B" fill-rule="evenodd"/><path d=" M 53.34 182.02 L 69.67 232.27 L 122.5 232.28 L 106.17 182.02 L 53.34 182.02 Z" stroke="#040000" stroke-miterlimit="10" fill="#808080" fill-rule="evenodd"/><path d=" M 88 126.1 L 45.26 157.16 L 53.34 182.02 L 106.17 182.02 L 88 126.1 Z" stroke="#040000" stroke-miterlimit="10" fill="#1B1B1B" fill-rule="evenodd"/><path d=" M 177.25 33.65 C 177.25 43.25 177.25 52.88 177.3 62.57 C 184.58 67.9033 191.85 73.1967 199.11 78.45 C 208.13 75.39 217.093 72.34 226 69.3 C 217.9 63.36 209.797 57.43 201.69 51.51 Z" stroke="#040000" stroke-miterlimit="10" fill="#808080" fill-rule="evenodd"/><path d=" M 227.86 68.68 C 227.955 68.977 227.979 69.2921 227.93 69.6 C 227.816 70.3301 227.308 70.9376 226.61 71.18 L 199.75 80.35 C 199.134 80.5581 198.455 80.4537 197.93 80.07 L 176.13 64.19 C 175.625 63.8054 175.321 63.2142 175.3 62.58 C 175.3 53.69 175.3 44.85 175.25 36.06 L 175.25 33.65 C 175.25 32.8991 175.671 32.2117 176.34 31.87 C 177.01 31.5318 177.814 31.5974 178.42 32.04 L 202.82 49.9 C 210.94 55.82 219.047 61.7467 227.14 67.68 C 227.479 67.9293 227.731 68.2792 227.86 68.68 Z M 199.44 76.23 L 221.7 68.64 L 200.48 53.12 L 179.25 37.59 C 179.25 45.5367 179.25 53.5367 179.25 61.59 Z" stroke="#040000" stroke-miterlimit="10" fill="#060001"/><path d=" M 218.67 252.89 C 223.963 236.47 229.227 220.167 234.46 203.98 L 218.08 182.22 C 212.787 198.347 207.453 214.597 202.08 230.97 C 207.627 238.25 213.157 245.557 218.67 252.89 Z" stroke="#040000" stroke-miterlimit="10" fill="#808080" fill-rule="evenodd"/><path d=" M 216.18 181.6 L 200.18 230.35 C 199.974 230.972 200.086 231.656 200.48 232.18 C 205.687 239.027 210.887 245.903 216.08 252.81 L 217.08 254.09 C 217.529 254.687 218.273 254.984 219.01 254.86 C 219.259 254.813 219.497 254.718 219.71 254.58 L 219.71 254.58 L 219.71 254.58 C 219.785 254.45 219.883 254.334 220 254.24 C 220.14 254.01 220.28 253.78 220.41 253.55 C 220.54 253.32 220.61 253.23 220.7 253.07 C 225.933 236.81 231.143 220.663 236.33 204.63 C 236.459 204.23 236.459 203.8 236.33 203.4 C 236.258 203.193 236.157 202.998 236.03 202.82 L 219.67 181 C 219.001 180.121 217.747 179.95 216.867 180.619 C 216.547 180.862 216.307 181.198 216.18 181.58 Z M 232.25 204.35 C 227.503 219.017 222.737 233.773 217.95 248.62 C 213.41 242.62 208.87 236.62 204.33 230.62 L 218.78 186.5 Z" stroke="#040000" stroke-miterlimit="10" fill="#060001"/><path d=" M 164.54 254.54 C 159.053 247.14 153.533 239.733 147.98 232.32 L 121.47 232.32 C 115.96 239.75 110.47 247.19 104.97 254.63 C 114.97 254.63 124.89 254.63 134.8 254.58 Z" stroke="#040000" stroke-miterlimit="10" fill="#808080" fill-rule="evenodd"/><path d=" M 166.44 253.93 C 166.6 254.43 166.556 254.972 166.32 255.44 C 165.981 256.113 165.293 256.538 164.54 256.54 L 134.8 256.54 L 134.3 256.54 C 124.57 256.54 114.78 256.54 104.98 256.54 C 104.22 256.545 103.522 256.119 103.18 255.44 C 102.857 254.761 102.93 253.96 103.37 253.35 L 119.86 231.05 C 120.241 230.549 120.831 230.25 121.46 230.24 L 148 230.24 C 148.63 230.24 149.222 230.536 149.6 231.04 C 155.16 238.46 160.68 245.873 166.16 253.28 C 166.29 253.479 166.385 253.699 166.44 253.93 Z M 108.94 252.6 C 117.42 252.6 125.873 252.6 134.3 252.6 L 160.57 252.6 C 156.063 246.527 151.533 240.447 146.98 234.36 L 122.47 234.36 Z" stroke="#040000" stroke-miterlimit="10" fill="#060001"/><path d=" M 2.4 98.54 C 7.69333 114.807 12.9733 131.07 18.24 147.33 C 27.08 150.31 35.9067 153.273 44.72 156.22 L 28.87 107.42 C 20.06 104.44 11.24 101.5 2.4 98.54 Z" stroke="#040000" stroke-miterlimit="10" fill="#808080" fill-rule="evenodd"/><path d=" M 0.68 97.58 C 0.516441 98.0344 0.464984 98.5215 0.53 99 C 0.571346 99.1089 0.594979 99.2237 0.6 99.34 C 0.615266 99.4211 0.635301 99.5012 0.66 99.58 L 0.66 99.58 L 16.34 148 C 16.5367 148.598 17.0035 149.069 17.6 149.27 L 44.09 158.16 C 44.7923 158.384 45.5609 158.203 46.09 157.69 C 46.6103 157.165 46.7988 156.396 46.58 155.69 L 30.77 106.8 C 30.5733 106.202 30.1065 105.731 29.51 105.53 C 23.91 103.63 18.3 101.76 12.69 99.87 L 3 96.64 C 2.29766 96.4161 1.52911 96.5967 1 97.11 C 0.882816 97.2295 0.781943 97.364 0.7 97.51 C 0.7 97.51 0.69 97.56 0.68 97.58 Z M 11.42 103.66 C 16.71 105.44 22 107.2 27.28 109 L 41.6 153.07 L 19.83 145.76 L 5.52 101.69 Z" stroke="#040000" stroke-miterlimit="10" fill="#060001"/><path d=" M 36.65 204 C 42.0633 196.453 47.4767 188.89 52.89 181.31 L 44.72 156.18 C 35.9067 153.22 27.08 150.257 18.24 147.29 L 27.46 175.67 C 30.5333 185.137 33.5967 194.58 36.65 204 Z" stroke="#040000" stroke-miterlimit="10" fill="#808080" fill-rule="evenodd"/><path d=" M 46.62 155.6 L 54.79 180.73 C 54.9844 181.334 54.8805 181.995 54.51 182.51 C 49.1033 190.09 43.69 197.653 38.27 205.2 C 37.8306 205.812 37.0845 206.125 36.34 206.01 C 35.5962 205.892 34.9817 205.367 34.75 204.65 L 16.34 148 C 16.0009 146.949 16.5782 145.822 17.6294 145.483 C 18.0363 145.351 18.4746 145.354 18.88 145.49 L 45.35 154.37 C 45.9414 154.56 46.4107 155.015 46.62 155.6 Z M 50.68 181 L 43.14 157.78 L 21.36 150.47 L 37.36 199.66 C 41.7867 193.447 46.2267 187.227 50.68 181 Z" stroke="#040000" stroke-miterlimit="10" fill="#040000"/><path d=" M 200.7 77.34 C 200.829 77.7398 200.829 78.1702 200.7 78.57 L 185.06 126.72 C 184.716 127.77 183.587 128.342 182.537 127.998 C 182.341 127.934 182.157 127.84 181.99 127.72 L 134.41 93.16 C 133.88 92.7985 133.571 92.1915 133.59 91.55 C 133.592 90.9134 133.896 90.3156 134.41 89.94 L 175.35 60.18 C 176.049 59.6761 176.991 59.6761 177.69 60.18 L 200 76.34 C 200.332 76.5922 200.577 76.9419 200.7 77.34 Z M 182.1 122.87 L 196.45 78.72 L 176.52 64.26 L 139 91.56 Z" stroke="#040000" stroke-miterlimit="10" fill="#060001"/><path d=" M 227.87 156.6 C 228.005 156.999 228.005 157.431 227.87 157.83 L 219.81 182.63 C 219.543 183.449 218.781 184.005 217.92 184.01 L 165 184.01 C 164.36 184.012 163.758 183.707 163.38 183.19 C 162.993 182.678 162.888 182.006 163.1 181.4 L 181.27 125.5 C 181.611 124.449 182.738 123.874 183.789 124.214 C 183.99 124.279 184.179 124.376 184.35 124.5 L 227.17 155.61 C 227.505 155.855 227.751 156.202 227.87 156.6 Z M 216.46 180 L 223.63 158 L 184.2 129.33 L 167.72 180 Z" stroke="#040000" stroke-miterlimit="10" fill="#060001"/><path d=" M 137.48 90.93 C 137.548 91.1296 137.582 91.3392 137.58 91.55 C 137.578 92.1866 137.274 92.7844 136.76 93.16 L 89.18 127.71 C 88.6615 128.09 87.9917 128.198 87.38 128 C 86.7774 127.799 86.3061 127.324 86.11 126.72 L 69.74 76.36 C 69.4759 75.537 69.7704 74.6375 70.47 74.13 L 91.56 58.8 C 92.2607 58.2913 93.2093 58.2913 93.91 58.8 L 136.76 89.94 C 137.098 90.1866 137.349 90.5329 137.48 90.93 Z M 89.05 122.87 L 132.19 91.55 L 92.73 62.88 L 74 76.5 Z" stroke="#040000" stroke-miterlimit="10" fill="#060001"/><path d=" M 166.88 181.39 C 167.005 181.79 167.005 182.22 166.88 182.62 L 150.55 232.89 C 150.282 233.713 149.515 234.269 148.65 234.27 L 122.5 234.27 C 121.641 234.266 120.881 233.715 120.61 232.9 L 104.28 182.64 C 103.943 181.588 104.523 180.462 105.575 180.125 C 105.767 180.064 105.968 180.031 106.17 180.03 L 165 180.03 C 165.862 180.029 166.628 180.581 166.9 181.4 Z M 147.19 230.28 L 162.19 184.01 L 108.92 184.01 L 123.92 230.28 Z" stroke="#040000" stroke-miterlimit="10" fill="#060001"/><path d=" M 219.81 181.4 C 219.941 181.803 219.941 182.237 219.81 182.64 L 203.48 232.9 C 203.208 233.719 202.442 234.271 201.58 234.27 L 148.64 234.27 C 148.003 234.268 147.406 233.964 147.03 233.45 C 146.64 232.939 146.535 232.266 146.75 231.66 L 163.08 181.4 C 163.343 180.563 164.122 179.995 165 180 L 217.94 180 C 218.577 180.002 219.174 180.306 219.55 180.82 C 219.673 180.995 219.761 181.192 219.81 181.4 Z M 200.13 230.28 L 215.13 184.02 L 166.43 184.02 L 151.43 230.29 Z" stroke="#040000" stroke-miterlimit="10" fill="#060001"/><path d=" M 73.54 75.13 L 89.9 125.48 C 90.1662 126.301 89.8759 127.2 89.18 127.71 L 46.43 158.78 C 45.5339 159.426 44.2839 159.223 43.6381 158.327 C 43.5178 158.16 43.424 157.975 43.36 157.78 L 27 107.41 C 26.7338 106.589 27.0241 105.69 27.72 105.18 L 70.47 74.13 C 71.3661 73.4842 72.6161 73.6871 73.2619 74.5832 C 73.3822 74.7501 73.476 74.9345 73.54 75.13 Z M 85.66 125.34 L 70.59 79 L 31.24 107.56 L 46.31 153.94 Z" stroke="#040000" stroke-miterlimit="10" fill="#060001"/><path d=" M 108.07 181.4 L 124.4 231.66 C 124.737 232.712 124.157 233.838 123.105 234.175 C 122.91 234.237 122.705 234.27 122.5 234.27 L 69.66 234.27 C 68.8012 234.266 68.0405 233.715 67.77 232.9 L 51.44 182.63 C 51.1086 181.576 51.6942 180.453 52.7479 180.122 C 52.9395 180.062 53.1391 180.031 53.34 180.03 L 106.17 180.03 C 107.032 180.029 107.798 180.581 108.07 181.4 Z M 119.76 230.29 L 104.76 184.02 L 56.08 184.02 L 71.08 230.29 Z" stroke="#040000" stroke-miterlimit="10" fill="#060001"/><path d=" M 89.9 125.48 L 108.07 181.4 C 108.407 182.452 107.827 183.578 106.775 183.915 C 106.58 183.977 106.375 184.01 106.17 184.01 L 53.34 184.01 C 52.4749 184.009 51.7082 183.453 51.44 182.63 L 43.36 157.78 C 43.0959 156.957 43.3904 156.058 44.09 155.55 L 86.83 124.49 C 87.346 124.113 88.0113 124.005 88.62 124.2 C 89.2264 124.398 89.7019 124.874 89.9 125.48 Z M 103.43 180 L 87 129.33 L 47.66 157.93 L 54.79 180 Z" stroke="#040000" stroke-miterlimit="10" fill="#060001"/></g></g></svg>