<svg version="1.1" viewBox="0 0 243.84 257.17" xmlns="http://www.w3.org/2000/svg" xmlns:xlink="http://www.w3.org/1999/xlink" overflow="hidden"><defs></defs><g id="a0feaa4e-078d-4be5-8989-118aaf992ff4"><g id="a41074c5-6e98-4902-a04f-ff5f47e34bbe"><path d=" M 61.6 126.12 L 109.18 91.56 L 156.75 126.1 L 138.57 182 L 79.76 182.01 L 61.6 126.12 Z" fill="#808080"/><path d=" M 61.6 126.12 L 79.76 182.01 L 138.57 182 L 156.75 126.1 L 109.18 91.56 L 61.6 126.12 Z" stroke="#040000" stroke-miterlimit="10" fill="none"/><path d=" M 158.65 125.49 C 158.781 125.893 158.781 126.327 158.65 126.73 L 140.48 182.63 C 140.208 183.449 139.442 184.001 138.58 184 L 79.78 184 C 78.9175 184.001 78.1517 183.449 77.88 182.63 L 59.71 126.72 C 59.4459 125.897 59.7404 124.998 60.44 124.49 L 108 89.94 C 108.699 89.4361 109.641 89.4361 110.34 89.94 L 157.91 124.49 C 158.262 124.731 158.523 125.083 158.65 125.49 Z M 137.13 180 L 154.41 126.86 L 109.19 94 L 64 126.86 L 81.23 180 Z" stroke="#040000" stroke-miterlimit="10" fill="#211613"/><path d=" M 107.44 2.58 L 107.34 30.39 L 66.22 60.26 L 66.34 32.45 L 107.44 2.58 Z" stroke="#040000" stroke-miterlimit="10" fill="#808080" fill-rule="evenodd"/><path d=" M 64.34 32.44 L 64.23 60.25 C 64.2415 60.9901 64.6608 61.6633 65.32 62 C 65.9876 62.3341 66.7858 62.2686 67.39 61.83 L 108.51 32 C 109.024 31.6244 109.328 31.0266 109.33 30.39 L 109.43 2.59 C 109.435 2.37973 109.405 2.17009 109.34 1.97 C 109.342 1.93669 109.342 1.90331 109.34 1.87 C 109.061 1.02638 108.258 0.468277 107.37 0.5 C 106.952 0.552353 106.55 0.692048 106.19 0.91 C 106.037 1.02263 105.903 1.15745 105.79 1.31 L 65.17 30.84 C 64.6551 31.2114 64.347 31.8052 64.34 32.44 Z M 105.42 6.51 L 105.34 29.37 L 68.23 56.37 L 68.33 33.51 Z" stroke="#040000" stroke-miterlimit="10" fill="#060001"/><path d=" M 66.34 32.45 L 66.22 60.26 L 45.05 75.64 L 18.58 67.15 L 66.34 32.45 Z" stroke="#040000" stroke-miterlimit="10" fill="#808080" fill-rule="evenodd"/><path d=" M 68.24 31.83 C 68.3054 32.0334 68.3358 32.2464 68.33 32.46 L 68.22 60.27 C 68.213 60.9048 67.9049 61.4986 67.39 61.87 L 46.22 77.25 C 45.7081 77.6273 45.0473 77.7387 44.44 77.55 L 18 69.05 C 16.9509 68.7043 16.3807 67.5736 16.7264 66.5246 C 16.8563 66.1303 17.1057 65.7862 17.44 65.54 L 64.69 31.17 C 65.3467 30.2818 66.599 30.0941 67.4872 30.7508 C 67.822 30.9983 68.0712 31.3441 68.2 31.74 C 68.2067 31.7725 68.2203 31.8032 68.24 31.83 Z M 64.24 59.24 L 64.33 36.38 L 22.93 66.45 L 44.69 73.45 Z" stroke="#040000" stroke-miterlimit="10" fill="#060001"/><path d=" M 156.75 126.1 L 172.4 77.96 L 150.13 61.79 L 109.19 91.55 L 156.75 126.1 Z" stroke="#040000" stroke-miterlimit="10" fill="#1B1B1B" fill-rule="evenodd"/><path d=" M 150.13 61.79 L 107.28 30.65 L 66.34 60.41 L 109.19 91.55 L 150.13 61.79 Z" stroke="#040000" stroke-miterlimit="10" fill="#1B1B1B" fill-rule="evenodd"/><path d=" M 152 61.18 C 152.068 61.3761 152.102 61.5824 152.1 61.79 C 152.102 62.4301 151.797 63.0323 151.28 63.41 L 110.36 93.16 C 109.659 93.6687 108.711 93.6687 108.01 93.16 L 65.16 62 C 64.6368 61.6323 64.3297 61.0294 64.34 60.39 C 64.3439 59.7516 64.6522 59.1534 65.17 58.78 L 106.1 29 C 106.801 28.4913 107.749 28.4913 108.45 29 L 151.3 60.18 C 151.632 60.4322 151.877 60.7819 152 61.18 Z M 109.17 89.08 L 146.71 61.79 L 107.27 33.12 L 69.73 60.41 Z" stroke="#040000" stroke-miterlimit="10" fill="#060001"/><path d=" M 172.4 77.96 L 156.75 126.1 L 199.58 157.21 L 215.21 109.07 L 172.4 77.96 Z" stroke="#040000" stroke-miterlimit="10" fill="#1B1B1B" fill-rule="evenodd"/><path d=" M 217.11 108.45 C 217.235 108.85 217.235 109.28 217.11 109.68 L 201.47 157.83 C 201.126 158.88 199.997 159.452 198.947 159.108 C 198.751 159.044 198.567 158.95 198.4 158.83 L 155.58 127.73 C 154.884 127.22 154.594 126.321 154.86 125.5 L 170.5 77.34 C 170.844 76.2903 171.973 75.7181 173.023 76.0619 C 173.219 76.1259 173.403 76.2197 173.57 76.34 L 216.38 107.45 C 216.723 107.698 216.979 108.048 217.11 108.45 Z M 198.53 154 L 212.86 109.85 L 173.45 81.19 L 159.1 125.34 Z" stroke="#040000" stroke-miterlimit="10" fill="#060001"/><path d=" M 138.58 182.01 L 191.52 182.02 L 199.58 157.21 L 156.75 126.1 L 138.58 182.01 Z" stroke="#040000" stroke-miterlimit="10" fill="#1B1B1B" fill-rule="evenodd"/><path d=" M 109.19 91.55 L 66.34 60.41 L 45.24 75.74 L 61.61 126.1 L 109.19 91.55 Z" stroke="#040000" stroke-miterlimit="10" fill="#1B1B1B" fill-rule="evenodd"/><path d=" M 79.78 182.02 L 96.11 232.28 L 122.25 232.27 L 138.58 182.01 L 79.78 182.02 Z" stroke="#040000" stroke-miterlimit="10" fill="#1B1B1B" fill-rule="evenodd"/><path d=" M 122.25 232.27 L 175.18 232.28 L 191.52 182.02 L 138.58 182.01 L 122.25 232.27 Z" stroke="#040000" stroke-miterlimit="10" fill="#1B1B1B" fill-rule="evenodd"/><path d=" M 45.24 75.74 L 2.5 106.79 L 18.86 157.16 L 61.61 126.1 L 45.24 75.74 Z" stroke="#040000" stroke-miterlimit="10" fill="#808080" fill-rule="evenodd"/><path d=" M 26.94 182.02 L 43.27 232.27 L 96.11 232.28 L 79.78 182.02 L 26.94 182.02 Z" stroke="#040000" stroke-miterlimit="10" fill="#1B1B1B" fill-rule="evenodd"/><path d=" M 61.61 126.1 L 18.86 157.16 L 26.94 182.02 L 79.78 182.02 L 61.61 126.1 Z" stroke="#040000" stroke-miterlimit="10" fill="#808080" fill-rule="evenodd"/><path d=" M 150.85 33.65 C 150.85 43.25 150.85 52.88 150.9 62.57 C 158.187 67.9033 165.457 73.1967 172.71 78.45 C 181.73 75.39 190.68 72.34 199.56 69.3 C 191.473 63.36 183.37 57.43 175.25 51.51 Z" stroke="#040000" stroke-miterlimit="10" fill="#808080" fill-rule="evenodd"/><path d=" M 201.46 68.68 C 201.552 68.9775 201.579 69.2911 201.54 69.6 C 201.424 70.3325 200.912 70.9407 200.21 71.18 L 173.35 80.35 C 172.737 80.5546 172.063 80.4503 171.54 80.07 L 149.73 64.19 C 149.225 63.8072 148.922 63.2139 148.91 62.58 C 148.91 53.69 148.91 44.85 148.91 36.06 L 148.91 33.65 C 148.91 32.8991 149.331 32.2117 150 31.87 C 150.642 31.5521 151.405 31.6017 152 32 L 176.4 49.86 C 184.5 55.78 192.6 61.7067 200.7 67.64 C 201.061 67.8934 201.328 68.259 201.46 68.68 Z M 173 76.23 L 195.26 68.64 L 174.08 53.12 L 152.85 37.59 C 152.85 45.5367 152.85 53.5367 152.85 61.59 Z" stroke="#040000" stroke-miterlimit="10" fill="#060001"/><path d=" M 226 148.35 C 217.333 151.35 208.587 154.383 199.76 157.45 C 197.06 165.69 194.353 173.947 191.64 182.22 C 197.12 189.48 202.583 196.733 208.03 203.98 C 211.05 194.613 214.05 185.28 217.03 175.98 C 220.01 166.68 223 157.47 226 148.35 Z" stroke="#040000" stroke-miterlimit="10" fill="#808080" fill-rule="evenodd"/><path d=" M 227.94 147.74 C 228.067 148.137 228.067 148.563 227.94 148.96 L 209.94 204.59 C 209.596 205.639 208.466 206.211 207.416 205.867 C 207.032 205.741 206.695 205.501 206.45 205.18 L 190.07 183.42 C 189.676 182.9 189.56 182.221 189.76 181.6 L 197.88 156.83 C 198.075 156.234 198.537 155.764 199.13 155.56 C 207.91 152.507 216.653 149.477 225.36 146.47 C 226.073 146.221 226.867 146.395 227.41 146.92 C 227.652 147.145 227.834 147.427 227.94 147.74 Z M 207.35 199.74 L 222.91 151.58 C 215.763 154.053 208.59 156.543 201.39 159.05 L 193.91 181.89 Z" stroke="#040000" stroke-miterlimit="10" fill="#060001"/><path d=" M 241.84 99.39 L 216 108.05 C 210.667 124.403 205.27 140.87 199.81 157.45 C 208.59 154.39 217.337 151.357 226.05 148.35 C 231.35 131.903 236.613 115.583 241.84 99.39 Z" stroke="#040000" stroke-miterlimit="10" fill="#808080" fill-rule="evenodd"/><path d=" M 214.09 107.43 L 197.9 156.83 C 197.697 157.538 197.888 158.301 198.4 158.83 C 198.941 159.366 199.74 159.548 200.46 159.3 C 209.24 156.24 217.983 153.207 226.69 150.2 C 227.279 149.993 227.737 149.524 227.93 148.93 L 243.33 101.22 C 243.334 100.998 243.314 100.777 243.27 100.56 C 243.265 100.46 243.265 100.36 243.27 100.26 C 243.188 100.085 243.154 99.8922 243.17 99.7 C 243.078 99.5319 243.036 99.341 243.05 99.15 C 242.823 98.6184 242.439 98.1685 241.95 97.86 C 241.755 97.763 241.597 97.605 241.5 97.41 C 241.417 97.4043 241.333 97.4043 241.25 97.41 L 215.39 106.07 C 214.757 106.278 214.27 106.788 214.09 107.43 Z M 238.73 102.54 L 224.45 146.79 C 217.31 149.25 210.147 151.733 202.96 154.24 L 217.58 109.63 Z" stroke="#040000" stroke-miterlimit="10" fill="#040000"/><path d=" M 27.06 254.67 C 44.2733 254.67 61.4433 254.67 78.57 254.67 C 84.09 247.23 89.57 239.79 95.07 232.36 L 43.46 232.36 C 38 239.78 32.52 247.24 27.06 254.67 Z" stroke="#040000" stroke-miterlimit="10" fill="#808080" fill-rule="evenodd"/><path d=" M 25.21 255.34 C 25.27 255.4 25.32 255.47 25.39 255.53 L 25.49 255.68 C 25.947 256.001 26.4285 256.285 26.93 256.53 L 27 256.53 L 27.55 256.66 L 33.95 256.66 C 48.85 256.66 63.71 256.66 78.53 256.66 C 79.1595 256.66 79.7523 256.364 80.13 255.86 L 96.64 233.56 C 97.0565 233.036 97.1909 232.342 97 231.7 C 96.9704 231.603 96.9301 231.509 96.88 231.42 C 96.5411 230.747 95.8531 230.322 95.1 230.32 L 43.46 230.32 C 42.8234 230.322 42.2256 230.626 41.85 231.14 C 37.35 237.31 32.8 243.48 28.28 249.63 L 25.45 253.47 C 25.0628 254.014 24.9728 254.716 25.21 255.34 Z M 31.49 252 C 35.82 246.12 40.17 240.22 44.49 234.32 L 91.11 234.32 L 77.56 252.62 C 63.0733 252.62 48.55 252.62 33.99 252.62 L 31 252.62 Z" stroke="#040000" stroke-miterlimit="10" fill="#060001"/><path d=" M 138.14 254.54 C 132.653 247.14 127.137 239.733 121.59 232.32 L 95.07 232.32 C 89.56 239.75 84.07 247.19 78.57 254.63 C 88.57 254.63 98.5 254.63 108.4 254.58 Z" stroke="#040000" stroke-miterlimit="10" fill="#808080" fill-rule="evenodd"/><path d=" M 140 253.93 C 140.337 254.982 139.757 256.108 138.705 256.445 C 138.51 256.507 138.305 256.54 138.1 256.54 L 108.36 256.54 L 107.86 256.54 C 98.13 256.54 88.34 256.54 78.54 256.54 C 77.7833 256.542 77.0905 256.116 76.75 255.44 C 76.4105 254.765 76.4801 253.957 76.93 253.35 L 93.43 231.05 C 93.8056 230.543 94.3987 230.242 95.03 230.24 L 121.55 230.24 C 122.176 230.243 122.764 230.539 123.14 231.04 C 128.7 238.46 134.223 245.873 139.71 253.28 C 139.845 253.478 139.943 253.698 140 253.93 Z M 82.5 252.6 C 90.98 252.6 99.4333 252.6 107.86 252.6 L 134.13 252.6 C 129.623 246.527 125.097 240.447 120.55 234.36 L 96.08 234.36 Z" stroke="#040000" stroke-miterlimit="10" fill="#060001"/><path d=" M 191.43 254.47 C 186.03 247.09 180.593 239.7 175.12 232.3 C 157.307 232.3 139.463 232.3 121.59 232.3 C 127.15 239.713 132.667 247.12 138.14 254.52 Z" stroke="#040000" stroke-miterlimit="10" fill="#808080" fill-rule="evenodd"/><path d=" M 119.8 231.42 C 119.459 232.099 119.533 232.913 119.99 233.52 C 125.55 240.927 131.063 248.33 136.53 255.73 C 136.906 256.244 137.503 256.548 138.14 256.55 L 191.19 256.47 C 192.024 256.091 192.721 255.467 193.19 254.68 C 193.227 254.638 193.268 254.597 193.31 254.56 L 193.31 254.56 C 193.331 254.525 193.354 254.492 193.38 254.46 C 193.384 254.264 193.357 254.068 193.3 253.88 C 193.232 253.677 193.134 253.485 193.01 253.31 C 188.63 247.31 184.223 241.31 179.79 235.31 L 176.7 231.11 C 176.322 230.6 175.725 230.299 175.09 230.3 L 121.56 230.3 C 120.81 230.314 120.13 230.746 119.8 231.42 Z M 174.12 234.3 L 176.61 237.68 C 180.25 242.627 183.877 247.56 187.49 252.48 L 139.15 252.55 C 134.637 246.47 130.11 240.39 125.57 234.31 Z" stroke="#040000" stroke-miterlimit="10" fill="#060001"/><path d=" M 174.3 77.34 C 174.435 77.7389 174.435 78.1711 174.3 78.57 L 158.65 126.72 C 158.452 127.326 157.976 127.802 157.37 128 C 156.763 128.198 156.098 128.094 155.58 127.72 L 108 93.16 C 107.472 92.7974 107.167 92.19 107.19 91.55 C 107.181 90.911 107.488 90.3089 108.01 89.94 L 149 60.18 C 149.701 59.6713 150.649 59.6713 151.35 60.18 L 173.62 76.35 C 173.943 76.6025 174.18 76.9481 174.3 77.34 Z M 155.7 122.87 L 170.05 78.72 L 150.12 64.26 L 112.58 91.56 Z" stroke="#040000" stroke-miterlimit="10" fill="#060001"/><path d=" M 201.48 156.6 C 201.609 157 201.609 157.43 201.48 157.83 L 193.42 182.63 C 193.153 183.449 192.391 184.005 191.53 184.01 L 138.58 184.01 C 137.943 184.008 137.346 183.704 136.97 183.19 C 136.576 182.681 136.467 182.007 136.68 181.4 L 154.86 125.5 C 155.058 124.894 155.534 124.418 156.14 124.22 C 156.747 124.022 157.412 124.126 157.93 124.5 L 200.75 155.61 C 201.091 155.855 201.347 156.202 201.48 156.6 Z M 190.07 180 L 197.23 158 L 157.8 129.33 L 141.32 180 Z" stroke="#040000" stroke-miterlimit="10" fill="#060001"/><path d=" M 111.09 90.93 C 111.15 91.1312 111.18 91.3401 111.18 91.55 C 111.178 92.1866 110.874 92.7844 110.36 93.16 L 62.78 127.71 C 61.8839 128.356 60.6339 128.153 59.9881 127.257 C 59.8678 127.09 59.774 126.905 59.71 126.71 L 43.35 76.36 C 43.0838 75.5392 43.3741 74.6402 44.07 74.13 L 65.17 58.8 C 65.8686 58.2961 66.8114 58.2961 67.51 58.8 L 110.36 89.94 C 110.701 90.1851 110.957 90.5315 111.09 90.93 Z M 62.66 122.87 L 105.79 91.55 L 66.34 62.88 L 47.59 76.5 Z" stroke="#040000" stroke-miterlimit="10" fill="#060001"/><path d=" M 140.48 181.39 C 140.609 181.79 140.609 182.22 140.48 182.62 L 124.14 232.89 C 123.872 233.713 123.105 234.269 122.24 234.27 L 96.11 234.27 C 95.2475 234.271 94.4817 233.719 94.21 232.9 L 77.88 182.64 C 77.5431 181.588 78.1228 180.462 79.1747 180.125 C 79.3704 180.063 79.5745 180.03 79.78 180.03 L 138.58 180.03 C 139.442 180.029 140.208 180.581 140.48 181.4 Z M 120.79 230.28 L 135.79 184.01 L 82.52 184.01 L 97.52 230.28 Z" stroke="#040000" stroke-miterlimit="10" fill="#060001"/><path d=" M 193.42 181.4 C 193.545 181.804 193.545 182.236 193.42 182.64 L 177.08 232.9 C 176.808 233.719 176.042 234.271 175.18 234.27 L 122.24 234.27 C 121.603 234.268 121.006 233.964 120.63 233.45 C 120.24 232.939 120.135 232.266 120.35 231.66 L 136.68 181.4 C 136.948 180.577 137.715 180.021 138.58 180.02 L 191.52 180.02 C 192.382 180.019 193.148 180.571 193.42 181.39 Z M 173.73 230.28 L 188.73 184.02 L 140 184.02 L 125 230.29 Z" stroke="#040000" stroke-miterlimit="10" fill="#060001"/><path d=" M 47.14 75.13 L 63.51 125.48 C 63.7741 126.303 63.4796 127.202 62.78 127.71 L 20 158.78 C 19.4822 159.154 18.8172 159.258 18.21 159.06 C 17.6304 158.843 17.1836 158.371 17 157.78 L 0.6 107.41 C 0.335915 106.587 0.630374 105.688 1.33 105.18 L 44.07 74.13 C 44.5878 73.7563 45.2528 73.6522 45.86 73.85 C 46.4664 74.0481 46.9419 74.5236 47.14 75.13 Z M 59.26 125.34 L 44.19 79 L 4.84 107.56 L 19.91 153.94 Z" stroke="#040000" stroke-miterlimit="10" fill="#060001"/><path d=" M 81.68 181.4 L 98 231.66 C 98.1949 232.269 98.0871 232.934 97.71 233.45 C 97.3344 233.964 96.7366 234.268 96.1 234.27 L 43.27 234.27 C 42.4075 234.271 41.6417 233.719 41.37 232.9 L 25 182.63 C 24.8051 182.021 24.9129 181.356 25.29 180.84 C 25.6677 180.33 26.2652 180.029 26.9 180.03 L 79.78 180.03 C 80.6425 180.029 81.4083 180.581 81.68 181.4 Z M 93.36 230.29 L 78.33 184 L 29.69 184 L 44.69 230.27 Z" stroke="#040000" stroke-miterlimit="10" fill="#060001"/><path d=" M 63.51 125.48 L 81.68 181.4 C 81.8749 182.009 81.7671 182.674 81.39 183.19 C 81.0144 183.704 80.4166 184.008 79.78 184.01 L 26.94 184.01 C 26.0749 184.009 25.3082 183.453 25.04 182.63 L 17 157.78 C 16.7338 156.959 17.0241 156.06 17.72 155.55 L 60.47 124.49 C 60.9836 124.116 61.6443 124.008 62.25 124.2 C 62.8487 124.403 63.316 124.878 63.51 125.48 Z M 77 180 L 60.53 129.3 L 21.18 157.9 L 28.39 180 Z" stroke="#040000" stroke-miterlimit="10" fill="#060001"/></g></g></svg>