<svg version="1.1" viewBox="0 0 254.74 229.28" xmlns="http://www.w3.org/2000/svg" xmlns:xlink="http://www.w3.org/1999/xlink" overflow="hidden"><defs></defs><g id="a0a49a11-bb88-490d-91e1-5f35619c12bc"><g id="f707a225-9b95-4549-be6f-9eec0f334927"><path d=" M 90.19 153.85 L 72.06 97.91 L 119.61 63.35 L 167.16 97.91 L 149 153.85 L 90.19 153.85 Z" fill="#808080"/><path d=" M 90.19 153.85 L 149 153.85 L 167.16 97.91 L 119.61 63.35 L 72.06 97.91 L 90.19 153.85 Z" stroke="#040000" stroke-miterlimit="10" fill="none"/><path d=" M 119.61 61.36 C 120.034 61.3585 120.447 61.4916 120.79 61.74 L 168.34 96.3 C 169.036 96.8102 169.326 97.7092 169.06 98.53 L 150.89 154.46 C 150.623 155.279 149.861 155.835 149 155.84 L 90.2 155.84 C 89.3385 155.835 88.577 155.279 88.31 154.46 L 70.15 98.53 C 69.8859 97.707 70.1804 96.8075 70.88 96.3 L 118.44 61.74 C 118.777 61.4878 119.189 61.3542 119.61 61.36 Z M 164.81 98.68 L 119.61 65.82 L 74.4 98.68 L 91.65 151.85 L 147.55 151.85 Z" stroke="#040000" stroke-miterlimit="10" fill="#211613"/><path d=" M 2.6 120.4 L 29.01 129.11 L 37.1 154 L 20.84 176.55 L 2.6 120.4 Z" stroke="#040000" stroke-miterlimit="10" fill="#808080" fill-rule="evenodd"/><path d=" M 2.6 118.41 C 2.81083 118.408 3.02045 118.442 3.22 118.51 L 29.63 127.21 C 30.2326 127.411 30.7039 127.886 30.9 128.49 L 39 153.38 C 39.2006 153.986 39.1003 154.651 38.73 155.17 L 22.46 177.72 C 21.812 178.615 20.5615 178.814 19.667 178.166 C 19.3258 177.919 19.0713 177.57 18.94 177.17 L 0.87 121.57 C 0.22935 120.67 0.439432 119.421 1.33923 118.781 C 1.67817 118.539 2.08393 118.41 2.5 118.41 Z M 27.43 130.69 L 5.71 123.53 L 21.52 172.19 L 34.88 153.65 Z" stroke="#040000" stroke-miterlimit="10" fill="#060001"/><path d=" M 37.1 154 L 53.5 204.47 L 37.25 227.02 L 20.84 176.55 L 37.1 154 Z" stroke="#040000" stroke-miterlimit="10" fill="#808080" fill-rule="evenodd"/><path d=" M 36 228 L 36.13 228.07 C 36.5216 228.369 36.9766 228.574 37.46 228.67 L 37.52 228.67 C 37.6525 228.649 37.7875 228.649 37.92 228.67 C 37.9829 228.68 38.0471 228.68 38.11 228.67 L 38.21 228.67 C 38.4814 228.541 38.7181 228.349 38.9 228.11 L 55.16 205.56 C 55.5303 205.041 55.6306 204.376 55.43 203.77 L 39 153.38 C 38.7746 152.656 38.1588 152.121 37.41 152 L 37.1 152 C 36.4569 152.007 35.854 152.314 35.47 152.83 L 19.22 175.38 C 18.8463 175.898 18.7422 176.563 18.94 177.17 L 35.12 226.9 C 35.3794 227.293 35.6739 227.661 36 228 Z M 23.05 176.89 L 36.42 158.36 L 51.29 204.12 L 37.93 222.66 Z" stroke="#040000" stroke-miterlimit="10" fill="#060001"/><path d=" M 119.61 63.35 L 78.65 33.59 L 56.4 49.78 L 72.05 97.91 L 119.61 63.35 Z" stroke="#040000" stroke-miterlimit="10" fill="#808080" fill-rule="evenodd"/><path d=" M 56.4 49.78 L 13.54 80.91 L 29.19 129.04 L 72.05 97.91 L 56.4 49.78 Z" stroke="#040000" stroke-miterlimit="10" fill="#808080" fill-rule="evenodd"/><path d=" M 56.4 47.79 C 56.6076 47.7881 56.8139 47.8219 57.01 47.89 C 57.6164 48.0881 58.0919 48.5636 58.29 49.17 L 73.94 97.3 C 74.2062 98.1208 73.9159 99.0198 73.22 99.53 L 30.36 130.66 C 29.8422 131.034 29.1772 131.138 28.57 130.94 C 27.9636 130.742 27.4881 130.266 27.29 129.66 L 11.64 81.53 C 11.3759 80.707 11.6704 79.8075 12.37 79.3 L 55.23 48.17 C 55.5704 47.9236 55.9798 47.7906 56.4 47.79 Z M 69.7 97.15 L 55.34 53 L 15.89 81.68 L 30.24 125.82 Z" stroke="#040000" stroke-miterlimit="10" fill="#060001"/><path d=" M 78.65 33.59 L 119.61 63.35 L 162.43 32.24 L 121.47 2.5 L 78.65 33.59 Z" stroke="#040000" stroke-miterlimit="10" fill="#808080" fill-rule="evenodd"/><path d=" M 121.47 0.5 C 121.891 0.494171 122.303 0.62777 122.64 0.88 L 163.64 30.62 C 164.157 30.9977 164.462 31.5999 164.46 32.24 C 164.458 32.8766 164.154 33.4744 163.64 33.85 L 120.78 65 C 120.081 65.5039 119.139 65.5039 118.44 65 L 77.44 35.24 C 76.5481 34.5885 76.3532 33.3372 77.0047 32.4453 C 77.1265 32.2786 77.2733 32.1318 77.44 32.01 L 120.3 0.88 C 120.64 0.63356 121.05 0.500601 121.47 0.5 Z M 159 32.24 L 121.47 5 L 82.05 33.59 L 119.61 60.89 Z" stroke="#040000" stroke-miterlimit="10" fill="#060001"/><path d=" M 167.16 97.91 L 183.53 47.57 L 162.43 32.24 L 119.61 63.35 L 167.16 97.91 Z" stroke="#040000" stroke-miterlimit="10" fill="#1B1B1B" fill-rule="evenodd"/><path d=" M 72.05 97.91 L 29.19 129.04 L 37.25 153.84 L 90.2 153.84 L 72.05 97.91 Z" stroke="#040000" stroke-miterlimit="10" fill="#1B1B1B" fill-rule="evenodd"/><path d=" M 149 153.84 L 201.85 153.84 L 209.92 128.98 L 167.16 97.91 L 149 153.84 Z" stroke="#040000" stroke-miterlimit="10" fill="#1B1B1B" fill-rule="evenodd"/><path d=" M 209.92 128.98 L 226.28 78.64 L 183.53 47.57 L 167.16 97.91 L 209.92 128.98 Z" stroke="#040000" stroke-miterlimit="10" fill="#1B1B1B" fill-rule="evenodd"/><path d=" M 37.25 153.84 L 53.57 204.09 L 106.54 204.09 L 90.2 153.84 L 37.25 153.84 Z" stroke="#040000" stroke-miterlimit="10" fill="#1B1B1B" fill-rule="evenodd"/><path d=" M 132.67 204.09 L 185.51 204.09 L 201.85 153.84 L 149 153.84 L 132.67 204.09 Z" stroke="#040000" stroke-miterlimit="10" fill="#1B1B1B" fill-rule="evenodd"/><path d=" M 90.2 153.84 L 106.54 204.09 L 132.67 204.09 L 149 153.84 L 90.2 153.84 Z" stroke="#040000" stroke-miterlimit="10" fill="#1B1B1B" fill-rule="evenodd"/><path d=" M 162.18 4.34 C 162.34 13.54 162.52 22.7933 162.72 32.1 C 169.727 37.2067 176.743 42.3333 183.77 47.48 C 192.363 44.5133 200.95 41.56 209.53 38.62 L 185.7 21.37 C 177.83 15.68 170 10 162.18 4.34 Z" stroke="#040000" stroke-miterlimit="10" fill="#808080" fill-rule="evenodd"/><path d=" M 162.18 2.34 C 162.598 2.34287 163.006 2.47181 163.35 2.71 L 210.7 37 C 211.591 37.6531 211.783 38.9047 211.13 39.7955 C 210.892 40.1208 210.561 40.3664 210.18 40.5 L 184.42 49.36 C 183.803 49.5745 183.119 49.4736 182.59 49.09 L 161.59 33.71 C 161.087 33.3428 160.784 32.7624 160.77 32.14 C 160.57 22.8067 160.387 13.5533 160.22 4.38 C 160.205 3.62273 160.619 2.92205 161.29 2.57 C 161.566 2.42728 161.87 2.34865 162.18 2.34 Z M 205.24 38 L 164.24 8.32 C 164.387 15.8733 164.54 23.4633 164.7 31.09 L 184.11 45.27 Z" stroke="#040000" stroke-miterlimit="10" fill="#060001"/><path d=" M 236 120.75 C 227.273 123.683 218.52 126.64 209.74 129.62 C 207.013 138.007 204.283 146.413 201.55 154.84 C 206.91 162.37 212.29 169.84 217.66 177.42 C 220.713 167.933 223.773 158.473 226.84 149.04 C 229.907 139.607 232.96 130.177 236 120.75 Z" stroke="#040000" stroke-miterlimit="10" fill="#808080" fill-rule="evenodd"/><path d=" M 236 118.75 C 236.525 118.752 237.027 118.961 237.4 119.33 C 237.924 119.853 238.116 120.622 237.9 121.33 C 234.84 130.75 231.787 140.18 228.74 149.62 L 228.58 150.1 C 225.573 159.36 222.573 168.66 219.58 178 C 219.35 178.723 218.73 179.254 217.98 179.37 C 217.236 179.467 216.497 179.153 216.05 178.55 L 199.93 156 C 199.566 155.485 199.466 154.83 199.66 154.23 C 202.387 145.83 205.12 137.423 207.86 129.01 C 208.055 128.414 208.517 127.944 209.11 127.74 C 217.89 124.747 226.647 121.787 235.38 118.86 C 235.579 118.79 235.789 118.752 236 118.75 Z M 217 173 C 219.6 164.92 222.207 156.877 224.82 148.87 C 227.59 140.27 230.25 132.05 232.9 123.87 C 225.74 126.27 218.563 128.697 211.37 131.15 C 208.83 138.91 206.303 146.68 203.79 154.46 Z" stroke="#040000" stroke-miterlimit="10" fill="#060001"/><path d=" M 252.41 70 C 243.743 72.86 235.033 75.7467 226.28 78.66 C 220.773 95.6 215.263 112.573 209.75 129.58 C 218.53 126.587 227.283 123.63 236.01 120.71 C 241.477 103.797 246.943 86.8933 252.41 70 Z" stroke="#040000" stroke-miterlimit="10" fill="#808080" fill-rule="evenodd"/><path d=" M 208.35 131 C 208.889 131.532 209.683 131.714 210.4 131.47 C 219.167 128.47 227.913 125.513 236.64 122.6 C 237.243 122.399 237.714 121.924 237.91 121.32 L 254.24 70.85 C 254.139 69.9331 253.763 69.0684 253.16 68.37 C 253.126 68.3244 253.099 68.2738 253.08 68.22 L 253.08 68.22 C 253.063 68.1829 253.039 68.1491 253.01 68.12 C 252.823 68.0569 252.627 68.0232 252.43 68.02 C 252.219 68.0182 252.01 68.052 251.81 68.12 C 244.763 70.4267 237.7 72.76 230.62 75.12 L 225.67 76.76 C 225.067 76.9608 224.596 77.4359 224.4 78.04 L 207.86 129 C 207.641 129.706 207.83 130.475 208.35 131 Z M 227.87 80.23 L 231.87 78.91 C 237.697 76.97 243.51 75.0433 249.31 73.13 L 234.43 119.13 C 227.263 121.537 220.083 123.963 212.89 126.41 Z" stroke="#040000" stroke-miterlimit="10" fill="#060001"/><path d=" M 148.45 226.77 C 142.95 219.277 137.433 211.79 131.9 204.31 L 105.47 204.31 C 99.93 211.777 94.3867 219.257 88.84 226.75 L 118.67 226.75 Z" stroke="#040000" stroke-miterlimit="10" fill="#808080" fill-rule="evenodd"/><path d=" M 105.47 202.31 L 131.9 202.31 C 132.533 202.315 133.126 202.619 133.5 203.13 C 139.04 210.61 144.56 218.093 150.06 225.58 C 150.507 226.189 150.572 226.997 150.23 227.67 C 149.891 228.343 149.203 228.768 148.45 228.77 L 88.84 228.77 C 87.7354 228.766 86.8433 227.867 86.8475 226.763 C 86.849 226.337 86.9866 225.922 87.24 225.58 L 103.86 203.15 C 104.231 202.628 104.83 202.316 105.47 202.31 Z M 130.89 206.31 L 106.48 206.31 L 92.8 224.76 L 144.51 224.76 C 139.977 218.607 135.437 212.457 130.89 206.31 Z" stroke="#040000" stroke-miterlimit="10" fill="#040000"/><path d=" M 202 226.79 C 196.493 219.283 190.97 211.79 185.43 204.31 L 131.9 204.31 C 137.44 211.803 142.957 219.29 148.45 226.77 C 166.323 226.77 184.173 226.777 202 226.79 Z" stroke="#040000" stroke-miterlimit="10" fill="#808080" fill-rule="evenodd"/><path d=" M 146.85 228 C 147.226 228.507 147.819 228.808 148.45 228.81 L 200.89 228.81 C 201.31 228.682 201.718 228.518 202.11 228.32 C 202.163 228.316 202.217 228.316 202.27 228.32 C 202.72 227.99 203.139 227.618 203.52 227.21 C 203.536 227.175 203.556 227.141 203.58 227.11 C 203.7 226.926 203.81 226.735 203.91 226.54 C 203.91 226.54 203.91 226.54 203.96 226.47 C 203.916 226.187 203.803 225.919 203.63 225.69 C 198.13 218.177 192.61 210.683 187.07 203.21 C 186.694 202.696 186.097 202.392 185.46 202.39 L 131.9 202.39 C 130.795 202.389 129.899 203.283 129.897 204.387 C 129.897 204.817 130.035 205.235 130.29 205.58 C 135.83 213.007 141.35 220.48 146.85 228 Z M 184.46 206.35 C 189.02 212.51 193.56 218.67 198.08 224.83 L 149.47 224.83 C 144.943 218.683 140.407 212.53 135.86 206.37 Z" stroke="#040000" stroke-miterlimit="10" fill="#060001"/><path d=" M 78.65 31.6 C 79.0712 31.5942 79.4826 31.7278 79.82 31.98 L 120.82 61.74 C 121.334 62.1156 121.638 62.7134 121.64 63.35 C 121.642 63.9901 121.337 64.5923 120.82 64.97 L 73.22 99.53 C 72.7076 99.9167 72.036 100.022 71.43 99.81 C 70.8236 99.6119 70.3481 99.1364 70.15 98.53 L 54.5 50.4 C 54.2338 49.5792 54.5241 48.6802 55.22 48.17 L 77.48 32 C 77.818 31.7464 78.2275 31.6064 78.65 31.6 Z M 116.21 63.35 L 78.65 36.07 L 58.74 50.55 L 73.1 94.69 Z" stroke="#040000" stroke-miterlimit="10" fill="#060001"/><path d=" M 162.43 30.24 C 162.85 30.2406 163.26 30.3736 163.6 30.62 L 184.7 46 C 185.4 46.5116 185.691 47.4162 185.42 48.24 L 169.06 98.53 C 168.862 99.1364 168.386 99.6119 167.78 99.81 C 167.17 100.011 166.5 99.907 165.98 99.53 L 118.44 65 C 117.919 64.6245 117.611 64.0219 117.61 63.38 C 117.614 62.7416 117.922 62.1434 118.44 61.77 L 161.26 30.65 C 161.597 30.3929 162.006 30.2493 162.43 30.24 Z M 181.18 48.33 L 162.43 34.7 L 123 63.35 L 166.11 94.69 Z" stroke="#040000" stroke-miterlimit="10" fill="#060001"/><path d=" M 72.05 95.92 C 72.2576 95.9181 72.4639 95.9519 72.66 96.02 C 73.2664 96.2181 73.7419 96.6936 73.94 97.3 L 92.1 153.23 C 92.4369 154.282 91.8572 155.408 90.8053 155.745 C 90.6096 155.807 90.4055 155.84 90.2 155.84 L 37.25 155.84 C 36.3885 155.835 35.627 155.279 35.36 154.46 L 27.29 129.66 C 27.0259 128.837 27.3204 127.938 28.02 127.43 L 70.88 96.3 C 71.2204 96.0536 71.6298 95.9206 72.05 95.92 Z M 87.46 151.85 L 71 101.14 L 31.54 129.81 L 38.7 151.81 Z" stroke="#040000" stroke-miterlimit="10" fill="#060001"/><path d=" M 167.16 95.92 C 167.58 95.9206 167.99 96.0536 168.33 96.3 L 211.09 127.37 C 211.786 127.88 212.076 128.779 211.81 129.6 L 203.74 154.46 C 203.473 155.279 202.711 155.835 201.85 155.84 L 149 155.84 C 147.895 155.837 147.002 154.94 147.005 153.835 C 147.005 153.63 147.037 153.426 147.1 153.23 L 165.27 97.3 C 165.463 96.686 165.939 96.2022 166.55 96 C 166.747 95.9387 166.954 95.9117 167.16 95.92 Z M 207.57 129.75 L 168.21 101.14 L 151.74 151.85 L 200.4 151.85 Z" stroke="#040000" stroke-miterlimit="10" fill="#060001"/><path d=" M 183.53 45.57 C 183.952 45.5763 184.363 45.7086 184.71 45.95 L 227.46 77 C 228.152 77.5128 228.438 78.4113 228.17 79.23 L 211.81 129.6 C 211.612 130.206 211.136 130.682 210.53 130.88 C 209.927 131.09 209.259 130.985 208.75 130.6 L 166 99.53 C 165.304 99.0198 165.014 98.1208 165.28 97.3 L 181.63 47 C 181.828 46.3936 182.304 45.9181 182.91 45.72 C 183.107 45.6356 183.316 45.5849 183.53 45.57 Z M 223.93 79.4 L 184.58 50.8 L 169.51 97.15 L 208.87 125.75 Z" stroke="#040000" stroke-miterlimit="10" fill="#060001"/><path d=" M 37.25 151.85 L 90.25 151.85 C 91.1152 151.851 91.8818 152.407 92.15 153.23 L 108.48 203.48 C 108.688 204.083 108.583 204.75 108.2 205.26 C 107.827 205.778 107.228 206.086 106.59 206.09 L 53.59 206.09 C 52.7285 206.085 51.967 205.529 51.7 204.71 L 35.36 154.46 C 35.1622 153.853 35.2663 153.188 35.64 152.67 C 36.0156 152.156 36.6134 151.852 37.25 151.85 Z M 88.75 155.85 L 40 155.85 L 55 202.1 L 103.77 202.1 Z" stroke="#040000" stroke-miterlimit="10" fill="#060001"/><path d=" M 149 151.85 L 201.85 151.85 C 202.955 151.858 203.843 152.76 203.835 153.865 C 203.834 154.067 203.802 154.268 203.74 154.46 L 187.41 204.71 C 187.142 205.533 186.375 206.089 185.51 206.09 L 132.67 206.09 C 132.032 206.086 131.433 205.778 131.06 205.26 C 130.677 204.75 130.572 204.083 130.78 203.48 L 147.1 153.23 C 147.368 152.407 148.135 151.851 149 151.85 Z M 199.1 155.85 L 150.45 155.85 L 135.45 202.11 L 184.1 202.11 Z" stroke="#040000" stroke-miterlimit="10" fill="#060001"/><path d=" M 90.2 151.85 L 149 151.85 C 149.637 151.852 150.234 152.156 150.61 152.67 C 150.984 153.188 151.088 153.853 150.89 154.46 L 134.57 204.71 C 134.302 205.533 133.535 206.089 132.67 206.09 L 106.54 206.09 C 105.675 206.089 104.908 205.533 104.64 204.71 L 88.31 154.46 C 88.1122 153.853 88.2163 153.188 88.59 152.67 C 88.9656 152.156 89.5634 151.852 90.2 151.85 Z M 146.25 155.85 L 93 155.85 L 108 202.11 L 131.23 202.11 Z" stroke="#040000" stroke-miterlimit="10" fill="#060001"/></g></g></svg>