<svg version="1.1" viewBox="0 0 216.52 230.63" xmlns="http://www.w3.org/2000/svg" xmlns:xlink="http://www.w3.org/1999/xlink" overflow="hidden"><defs></defs><g id="ef459fb4-5fe3-48e7-a36b-1db5887b6fd6"><g id="bc7db88f-18d6-47ce-8d03-52012a738e8a"><path d=" M 109.14 64.68 L 156.71 99.26 L 138.53 155.19 L 79.75 155.17 L 61.57 99.25 L 109.14 64.68 Z" fill="#808080"/><path d=" M 109.14 64.68 L 61.57 99.25 L 79.75 155.17 L 138.53 155.19 L 156.71 99.26 L 109.14 64.68 Z" stroke="#040000" stroke-miterlimit="10" fill="none"/><path d=" M 139.71 156.79 C 139.367 157.038 138.954 157.172 138.53 157.17 L 79.75 157.17 C 78.8885 157.165 78.127 156.609 77.86 155.79 L 59.67 99.86 C 59.4059 99.037 59.7004 98.1375 60.4 97.63 L 108 63.06 C 108.701 62.5513 109.649 62.5513 110.35 63.06 L 157.91 97.63 C 158.606 98.1402 158.896 99.0392 158.63 99.86 L 140.47 155.78 C 140.333 156.19 140.066 156.544 139.71 156.79 Z M 81.2 153.16 L 137.09 153.16 L 154.35 100 L 109.14 67.15 L 63.92 100 Z" stroke="#040000" stroke-miterlimit="10" fill="#211613"/><path d=" M 138.54 155.17 L 189.16 155.17 L 197.65 128.99 L 156.7 99.26 L 138.54 155.17 Z" stroke="#040000" stroke-miterlimit="10" fill="#1B1B1B" fill-rule="evenodd"/><path d=" M 197.65 128.99 L 214.03 78.62 L 173.07 48.88 L 156.7 99.26 L 197.65 128.99 Z" stroke="#040000" stroke-miterlimit="10" fill="#1B1B1B" fill-rule="evenodd"/><path d=" M 198.82 130.61 C 198.653 130.733 198.467 130.827 198.27 130.89 C 197.663 131.088 196.998 130.984 196.48 130.61 L 155.53 100.87 C 154.83 100.362 154.536 99.463 154.8 98.64 L 171.18 48.26 C 171.373 47.655 171.852 47.1838 172.46 47 C 173.069 46.8051 173.734 46.9129 174.25 47.29 L 215.2 77 C 215.896 77.5102 216.186 78.4092 215.92 79.23 L 199.55 129.6 C 199.42 130.006 199.165 130.36 198.82 130.61 Z M 159.05 98.49 L 196.6 125.76 L 211.68 79.38 L 174.12 52.11 Z" stroke="#040000" stroke-miterlimit="10" fill="#060001"/><path d=" M 189.16 155.17 L 138.54 155.17 L 122.18 205.51 L 172.8 205.5 L 189.16 155.17 Z" stroke="#040000" stroke-miterlimit="10" fill="#1B1B1B" fill-rule="evenodd"/><path d=" M 174 207.12 C 173.661 207.368 173.25 207.498 172.83 207.49 L 122.22 207.49 C 121.115 207.489 120.221 206.593 120.221 205.489 C 120.222 205.278 120.255 205.07 120.32 204.87 L 136.67 154.53 C 136.941 153.715 137.701 153.164 138.56 153.16 L 189.19 153.16 C 190.295 153.163 191.188 154.06 191.185 155.165 C 191.185 155.37 191.153 155.574 191.09 155.77 L 174.72 206.1 C 174.601 206.511 174.347 206.87 174 207.12 Z M 125 203.51 L 171.42 203.51 L 186.48 157.17 L 140 157.17 Z" stroke="#040000" stroke-miterlimit="10" fill="#060001"/><path d=" M 79.75 155.16 L 96.1 205.51 L 122.18 205.51 L 138.54 155.17 L 79.75 155.16 Z" stroke="#040000" stroke-miterlimit="10" fill="#1B1B1B" fill-rule="evenodd"/><path d=" M 156.7 99.26 L 173.07 48.88 L 151.98 33.56 L 109.14 64.68 L 156.7 99.26 Z" stroke="#040000" stroke-miterlimit="10" fill="#1B1B1B" fill-rule="evenodd"/><path d=" M 61.57 99.24 L 18.82 130.3 L 26.9 155.16 L 79.75 155.16 L 61.57 99.24 Z" stroke="#040000" stroke-miterlimit="10" fill="#808080" fill-rule="evenodd"/><path d=" M 26.9 155.16 L 43.26 205.51 L 96.1 205.51 L 79.75 155.16 L 26.9 155.16 Z" stroke="#040000" stroke-miterlimit="10" fill="#1B1B1B" fill-rule="evenodd"/><path d=" M 151.98 33.56 L 109.23 2.5 L 66.39 33.63 L 109.14 64.68 L 151.98 33.56 Z" stroke="#040000" stroke-miterlimit="10" fill="#1B1B1B" fill-rule="evenodd"/><path d=" M 45.24 48.99 L 2.5 80.05 L 18.82 130.3 L 61.57 99.24 L 45.24 48.99 Z" stroke="#040000" stroke-miterlimit="10" fill="#1B1B1B" fill-rule="evenodd"/><path d=" M 109.14 64.68 L 66.39 33.63 L 45.24 48.99 L 61.57 99.24 L 109.14 64.68 Z" stroke="#040000" stroke-miterlimit="10" fill="#1B1B1B" fill-rule="evenodd"/><path d=" M 28.93 228.14 C 46.19 228.093 63.3233 228.06 80.33 228.04 C 85.55 220.6 90.7733 213.163 96 205.73 L 44.7 205.61 C 39.4533 213.123 34.1967 220.633 28.93 228.14 Z" stroke="#040000" stroke-miterlimit="10" fill="#808080" fill-rule="evenodd"/><path d=" M 96 203.73 L 44.7 203.61 C 44.0474 203.609 43.4352 203.926 43.06 204.46 C 38.1467 211.54 33.2133 218.61 28.26 225.67 L 27.3 227 C 26.8711 227.61 26.8171 228.408 27.16 229.07 C 27.281 229.295 27.4479 229.493 27.65 229.65 L 27.65 229.65 C 27.7982 229.684 27.94 229.741 28.07 229.82 L 28.85 230 L 29.39 230.12 C 46.4833 230.073 63.45 230.04 80.29 230.02 C 80.711 230.024 81.1219 229.891 81.46 229.64 C 81.6376 229.509 81.793 229.35 81.92 229.17 L 97.55 206.87 C 98.1808 205.963 97.957 204.717 97.0503 204.086 C 96.7408 203.871 96.3767 203.747 96 203.73 Z M 79.29 226 L 32.77 226.09 C 37.0967 219.91 41.4067 213.737 45.7 207.57 L 92.13 207.67 Z" stroke="#040000" stroke-miterlimit="10" fill="#060001"/><path d=" M 138.78 227.94 C 133.24 220.607 127.657 213.227 122.03 205.8 L 96 205.73 C 90.7667 213.183 85.5433 220.607 80.33 228 L 109.75 227.94 Z" stroke="#040000" stroke-miterlimit="10" fill="#808080" fill-rule="evenodd"/><path d=" M 140 229.55 C 139.661 229.8 139.251 229.936 138.83 229.94 L 80.33 230 C 79.2255 229.993 78.336 229.091 78.3433 227.987 C 78.346 227.584 78.4703 227.191 78.7 226.86 L 94.33 204.55 C 94.7032 204.019 95.3109 203.702 95.96 203.7 L 122.03 203.77 C 122.656 203.773 123.244 204.069 123.62 204.57 C 129.24 211.97 134.827 219.347 140.38 226.7 C 140.84 227.305 140.918 228.119 140.58 228.8 C 140.447 229.092 140.249 229.348 140 229.55 Z M 84.17 226 L 134.78 225.92 C 130.227 219.92 125.643 213.867 121.03 207.76 L 97.03 207.7 Z" stroke="#040000" stroke-miterlimit="10" fill="#060001"/><path d=" M 190.24 227.84 C 184.86 220.613 179.447 213.31 174 205.93 C 156.8 205.93 139.467 205.887 122 205.8 C 127.62 213.213 133.203 220.593 138.75 227.94 Z" stroke="#040000" stroke-miterlimit="10" fill="#808080" fill-rule="evenodd"/><path d=" M 174 203.93 L 122 203.8 C 121.244 203.812 120.556 204.238 120.21 204.91 C 119.869 205.589 119.943 206.403 120.4 207.01 C 126.027 214.41 131.613 221.787 137.16 229.14 C 137.54 229.64 138.132 229.932 138.76 229.93 L 188.89 229.84 C 189.099 229.771 189.3 229.681 189.49 229.57 L 189.77 229.44 C 189.91 229.308 190.083 229.215 190.27 229.17 C 190.407 229.035 190.575 228.935 190.76 228.88 C 191.198 228.503 191.508 228 191.65 227.44 C 191.687 227.227 191.785 227.03 191.93 226.87 C 191.896 226.797 191.856 226.726 191.81 226.66 L 175.58 204.74 C 175.209 204.238 174.624 203.939 174 203.93 Z M 186.26 225.85 L 139.77 225.94 C 135.217 219.94 130.643 213.897 126.05 207.81 L 172.99 207.93 Z" stroke="#040000" stroke-miterlimit="10" fill="#040000"/><path d=" M 190.33 156.79 C 189.99 157.036 189.58 157.169 189.16 157.17 L 138.54 157.17 C 137.435 157.169 136.541 156.273 136.541 155.169 C 136.542 154.958 136.575 154.75 136.64 154.55 L 154.8 98.64 C 154.981 98.0235 155.463 97.5413 156.08 97.36 C 156.687 97.1622 157.352 97.2663 157.87 97.64 L 198.82 127.38 C 199.52 127.888 199.814 128.787 199.55 129.61 L 191.06 155.79 C 190.932 156.194 190.676 156.545 190.33 156.79 Z M 141.33 153.17 L 187.75 153.17 L 195.34 129.76 L 157.78 102.49 Z" stroke="#040000" stroke-miterlimit="10" fill="#060001"/><path d=" M 123.36 207.13 C 123.02 207.376 122.61 207.509 122.19 207.51 L 96.1 207.51 C 95.2385 207.505 94.477 206.949 94.21 206.13 L 77.86 155.78 C 77.6622 155.173 77.7663 154.508 78.14 153.99 C 78.503 153.46 79.1079 153.148 79.75 153.16 L 138.53 153.16 C 139.17 153.158 139.772 153.463 140.15 153.98 C 140.524 154.498 140.628 155.163 140.43 155.77 L 124.08 206.11 C 123.955 206.518 123.703 206.876 123.36 207.13 Z M 97.55 203.51 L 120.73 203.51 L 135.79 157.16 L 82.5 157.16 Z" stroke="#040000" stroke-miterlimit="10" fill="#060001"/><path d=" M 157.87 100.87 C 157.701 100.995 157.511 101.089 157.31 101.15 C 156.706 101.344 156.045 101.24 155.53 100.87 L 108 66.29 C 107.482 65.9166 107.174 65.3184 107.17 64.68 C 107.168 64.0399 107.473 63.4377 107.99 63.06 L 150.8 31.94 C 151.501 31.4313 152.449 31.4313 153.15 31.94 L 174.25 47.27 C 174.957 47.7721 175.26 48.6727 175 49.5 L 158.59 99.87 C 158.466 100.273 158.213 100.624 157.87 100.87 Z M 112.53 64.68 L 155.65 96 L 170.73 49.61 L 152 36 Z" stroke="#040000" stroke-miterlimit="10" fill="#060001"/><path d=" M 80.92 156.78 C 80.5796 157.026 80.1702 157.159 79.75 157.16 L 26.9 157.16 C 26.0375 157.161 25.2717 156.609 25 155.79 L 16.92 130.93 C 16.6538 130.109 16.9441 129.21 17.64 128.7 L 60.4 97.63 C 60.9138 97.2467 61.5837 97.1419 62.19 97.35 C 62.7941 97.5461 63.2692 98.0174 63.47 98.62 L 81.65 154.55 C 81.8415 155.156 81.7339 155.816 81.36 156.33 C 81.2397 156.504 81.0909 156.656 80.92 156.78 Z M 28.35 153.16 L 77 153.16 L 60.52 102.46 L 21.16 131.06 Z" stroke="#040000" stroke-miterlimit="10" fill="#060001"/><path d=" M 97.27 207.13 C 96.9296 207.376 96.5202 207.509 96.1 207.51 L 43.25 207.51 C 42.3885 207.505 41.627 206.949 41.36 206.13 L 25 155.78 C 24.8051 155.171 24.9129 154.506 25.29 153.99 C 25.6515 153.46 26.2586 153.151 26.9 153.17 L 79.75 153.17 C 80.6152 153.171 81.3818 153.727 81.65 154.55 L 98 204.9 C 98.1915 205.506 98.0839 206.166 97.71 206.68 C 97.5897 206.854 97.4409 207.006 97.27 207.13 Z M 44.7 203.51 L 93.35 203.51 L 78.35 157.15 L 29.65 157.15 Z" stroke="#040000" stroke-miterlimit="10" fill="#060001"/><path d=" M 153.15 35.17 L 110.31 66.29 C 109.611 66.7939 108.669 66.7939 107.97 66.29 L 65.21 35.24 C 64.696 34.8644 64.3915 34.2666 64.39 33.63 C 64.3851 32.9864 64.6903 32.3797 65.21 32 L 108.06 0.88 C 108.759 0.376089 109.701 0.376089 110.4 0.88 L 153.15 31.94 C 153.664 32.3156 153.968 32.9134 153.97 33.55 C 153.972 34.1901 153.667 34.7923 153.15 35.17 Z M 109.15 62.17 L 148.59 33.52 L 109.23 5 L 69.78 33.63 Z" stroke="#040000" stroke-miterlimit="10" fill="#060001"/><path d=" M 62.74 100.86 L 20 131.92 C 19.4822 132.294 18.8172 132.398 18.21 132.2 C 17.6036 132.002 17.1281 131.526 16.93 130.92 L 0.6 80.66 C 0.333798 79.8392 0.624059 78.9402 1.32 78.43 L 44.07 47.37 C 44.5878 46.9963 45.2528 46.8922 45.86 47.09 C 46.4664 47.2881 46.9419 47.7636 47.14 48.37 L 63.47 98.62 C 63.7389 99.446 63.444 100.351 62.74 100.86 Z M 19.86 127.07 L 59.22 98.48 L 44.22 52.22 L 4.84 80.81 Z" stroke="#040000" stroke-miterlimit="10" fill="#060001"/><path d=" M 110.31 66.29 L 62.74 100.86 C 61.8439 101.506 60.5939 101.303 59.9481 100.407 C 59.8278 100.24 59.734 100.055 59.67 99.86 L 43.35 49.6 C 43.0838 48.7792 43.3741 47.8802 44.07 47.37 L 65.21 32 C 65.9107 31.4913 66.8593 31.4913 67.56 32 L 110.31 63.05 C 110.824 63.4256 111.128 64.0234 111.13 64.66 C 111.145 65.306 110.838 65.9171 110.31 66.29 Z M 62.62 96 L 105.74 64.67 L 66.38 36.1 L 47.59 49.75 Z" stroke="#040000" stroke-miterlimit="10" fill="#060001"/></g></g></svg>