<svg version="1.1" viewBox="0 0 239.19 257.24" xmlns="http://www.w3.org/2000/svg" xmlns:xlink="http://www.w3.org/1999/xlink" overflow="hidden"><defs></defs><g id="e20822ab-c85d-4e64-8abd-213535f12711"><g id="eece784f-84ea-4717-83c5-652c78d8636d"><path d=" M 72.25 126.1 L 119.83 91.54 L 167.41 126.11 L 149.23 182.01 L 90.42 182.02 L 72.25 126.1 Z" fill="#808080"/><path d=" M 72.25 126.1 L 90.42 182.02 L 149.23 182.01 L 167.41 126.11 L 119.83 91.54 L 72.25 126.1 Z" stroke="#040000" stroke-miterlimit="10" fill="none"/><path d=" M 169.31 125.49 C 169.441 125.893 169.441 126.327 169.31 126.73 L 151.13 182.63 C 150.858 183.449 150.092 184.001 149.23 184 L 90.43 184 C 89.5675 184.001 88.8017 183.449 88.53 182.63 L 70.36 126.72 C 70.0959 125.897 70.3904 124.998 71.09 124.49 L 118.67 89.94 C 119.371 89.4313 120.319 89.4313 121.02 89.94 L 168.58 124.49 C 168.923 124.738 169.179 125.088 169.31 125.49 Z M 147.78 180 L 165.07 126.86 L 119.84 94 L 74.61 126.86 L 91.88 180 Z" stroke="#040000" stroke-miterlimit="10" fill="#211613"/><path d=" M 118.09 2.58 L 117.99 30.39 L 76.88 60.26 L 76.99 32.45 L 118.09 2.58 Z" stroke="#040000" stroke-miterlimit="10" fill="#808080" fill-rule="evenodd"/><path d=" M 75 32.44 L 74.88 60.25 C 74.8973 60.9967 75.3292 61.6716 76 62 C 76.6703 62.3382 77.4735 62.2726 78.08 61.83 L 119.16 32 C 119.678 31.6266 119.986 31.0284 119.99 30.39 L 120.09 2.59 C 120.087 2.39013 120.057 2.19158 120 2 C 120 2 120 1.93 120 1.9 C 119.729 1.03338 118.907 0.458468 118 0.5 C 117.582 0.552353 117.18 0.692048 116.82 0.91 C 116.665 1.01991 116.53 1.15514 116.42 1.31 L 75.82 30.84 C 75.2984 31.2045 74.9913 31.8037 75 32.44 Z M 116.08 6.51 L 116 29.37 L 78.89 56.37 L 79 33.47 Z" stroke="#040000" stroke-miterlimit="10" fill="#060001"/><path d=" M 167.41 126.1 L 183.06 77.96 L 160.78 61.79 L 119.84 91.55 L 167.41 126.1 Z" stroke="#040000" stroke-miterlimit="10" fill="#1B1B1B" fill-rule="evenodd"/><path d=" M 160.78 61.79 L 117.93 30.65 L 76.99 60.41 L 119.84 91.55 L 160.78 61.79 Z" stroke="#040000" stroke-miterlimit="10" fill="#1B1B1B" fill-rule="evenodd"/><path d=" M 162.68 61.18 C 162.745 61.3767 162.775 61.583 162.77 61.79 C 162.772 62.4301 162.467 63.0323 161.95 63.41 L 121 93.16 C 120.301 93.6639 119.359 93.6639 118.66 93.16 L 75.82 62 C 75.3027 61.6363 74.9964 61.0423 75 60.41 C 75.0015 59.7734 75.306 59.1756 75.82 58.8 L 116.76 29 C 117.459 28.4961 118.401 28.4961 119.1 29 L 162 60.18 C 162.324 60.4352 162.562 60.7845 162.68 61.18 Z M 119.84 89.08 L 157.38 61.79 L 117.93 33.12 L 80.39 60.41 Z" stroke="#040000" stroke-miterlimit="10" fill="#060001"/><path d=" M 183.06 77.96 L 167.41 126.1 L 210.23 157.21 L 225.86 109.07 L 183.06 77.96 Z" stroke="#040000" stroke-miterlimit="10" fill="#808080" fill-rule="evenodd"/><path d=" M 227.76 108.45 C 227.895 108.849 227.895 109.281 227.76 109.68 L 212.13 157.83 C 211.932 158.436 211.456 158.912 210.85 159.11 C 210.241 159.305 209.576 159.197 209.06 158.82 L 166.24 127.72 C 165.54 127.212 165.246 126.313 165.51 125.49 L 181.16 77.34 C 181.504 76.2903 182.633 75.7181 183.683 76.0619 C 183.879 76.1259 184.063 76.2197 184.23 76.34 L 227 107.46 C 227.352 107.7 227.619 108.047 227.76 108.45 Z M 209.18 154 L 223.52 109.85 L 184.1 81.19 L 169.75 125.34 Z" stroke="#040000" stroke-miterlimit="10" fill="#060001"/><path d=" M 149.23 182.01 L 202.17 182.02 L 210.23 157.21 L 167.41 126.1 L 149.23 182.01 Z" stroke="#040000" stroke-miterlimit="10" fill="#1B1B1B" fill-rule="evenodd"/><path d=" M 119.84 91.55 L 76.99 60.41 L 55.9 75.74 L 72.26 126.1 L 119.84 91.55 Z" stroke="#040000" stroke-miterlimit="10" fill="#808080" fill-rule="evenodd"/><path d=" M 90.43 182.02 L 106.76 232.28 L 132.9 232.27 L 149.23 182.01 L 90.43 182.02 Z" stroke="#040000" stroke-miterlimit="10" fill="#1B1B1B" fill-rule="evenodd"/><path d=" M 132.9 232.27 L 185.84 232.28 L 202.17 182.02 L 149.23 182.01 L 132.9 232.27 Z" stroke="#040000" stroke-miterlimit="10" fill="#808080" fill-rule="evenodd"/><path d=" M 55.9 75.74 L 13.15 106.79 L 29.52 157.16 L 72.26 126.1 L 55.9 75.74 Z" stroke="#040000" stroke-miterlimit="10" fill="#808080" fill-rule="evenodd"/><path d=" M 37.59 182.02 L 53.92 232.27 L 106.76 232.28 L 90.43 182.02 L 37.59 182.02 Z" stroke="#040000" stroke-miterlimit="10" fill="#1B1B1B" fill-rule="evenodd"/><path d=" M 72.26 126.1 L 29.52 157.16 L 37.59 182.02 L 90.43 182.02 L 72.26 126.1 Z" stroke="#040000" stroke-miterlimit="10" fill="#1B1B1B" fill-rule="evenodd"/><path d=" M 161.51 33.65 C 161.51 43.25 161.51 52.88 161.56 62.57 C 168.84 67.9033 176.107 73.1967 183.36 78.45 C 192.387 75.39 201.34 72.34 210.22 69.3 C 202.12 63.36 194.017 57.43 185.91 51.51 Z" stroke="#040000" stroke-miterlimit="10" fill="#808080" fill-rule="evenodd"/><path d=" M 212.12 68.68 C 212.215 68.977 212.239 69.2921 212.19 69.6 C 212.074 70.3325 211.562 70.9407 210.86 71.18 L 184 80.35 C 183.387 80.5546 182.713 80.4503 182.19 80.07 L 160.38 64.19 C 159.881 63.8016 159.581 63.2118 159.56 62.58 C 159.56 53.69 159.56 44.85 159.51 36.06 L 159.51 33.65 C 159.508 32.9013 159.925 32.2144 160.59 31.87 C 161.263 31.5276 162.071 31.5934 162.68 32.04 L 187.08 49.9 C 195.18 55.82 203.283 61.7467 211.39 67.68 C 211.728 67.9324 211.983 68.2809 212.12 68.68 Z M 183.7 76.23 L 206 68.64 L 184.73 53.12 L 163.51 37.59 C 163.51 45.5367 163.51 53.5367 163.51 61.59 Z" stroke="#040000" stroke-miterlimit="10" fill="#060001"/><path d=" M 236.69 148.35 C 228.023 151.35 219.28 154.383 210.46 157.45 C 207.76 165.69 205.053 173.947 202.34 182.22 L 218.72 204 C 221.74 194.633 224.74 185.3 227.72 176 C 230.74 166.74 233.74 157.53 236.69 148.35 Z" stroke="#040000" stroke-miterlimit="10" fill="#808080" fill-rule="evenodd"/><path d=" M 238.59 147.74 C 238.717 148.137 238.717 148.563 238.59 148.96 L 220.59 204.59 C 220.246 205.639 219.116 206.211 218.066 205.867 C 217.682 205.741 217.345 205.501 217.1 205.18 L 200.71 183.42 C 200.32 182.898 200.208 182.219 200.41 181.6 L 208.53 156.83 C 208.723 156.236 209.181 155.767 209.77 155.56 C 218.59 152.52 227.333 149.49 236 146.47 C 236.713 146.221 237.507 146.395 238.05 146.92 C 238.292 147.147 238.477 147.428 238.59 147.74 Z M 218 199.7 L 233.56 151.54 L 212.05 159 L 204.56 181.84 Z" stroke="#040000" stroke-miterlimit="10" fill="#060001"/><path d=" M 148.79 254.54 C 143.31 247.14 137.793 239.733 132.24 232.32 L 105.72 232.32 C 100.22 239.75 94.72 247.19 89.22 254.63 C 99.22 254.63 109.15 254.63 119.06 254.58 Z" stroke="#040000" stroke-miterlimit="10" fill="#808080" fill-rule="evenodd"/><path d=" M 150.69 253.93 C 151.027 254.982 150.447 256.108 149.395 256.445 C 149.2 256.507 148.995 256.54 148.79 256.54 L 119.06 256.54 L 118.56 256.54 C 108.82 256.54 99.0433 256.54 89.23 256.54 C 88.4733 256.542 87.7805 256.116 87.44 255.44 C 87.1142 254.763 87.1832 253.962 87.62 253.35 L 104.12 231.05 C 104.496 230.543 105.089 230.242 105.72 230.24 L 132.24 230.24 C 132.87 230.24 133.462 230.536 133.84 231.04 C 139.4 238.46 144.92 245.873 150.4 253.28 C 150.539 253.475 150.637 253.696 150.69 253.93 Z M 93.19 252.6 C 101.67 252.6 110.127 252.6 118.56 252.6 L 144.82 252.6 C 140.32 246.527 135.793 240.447 131.24 234.36 L 106.73 234.36 Z" stroke="#040000" stroke-miterlimit="10" fill="#060001"/><path d=" M 20.9 204 C 26.3 196.48 31.7167 188.93 37.15 181.35 L 29 156.22 C 20.18 153.26 11.3533 150.297 2.52 147.33 L 11.74 175.71 Z" stroke="#040000" stroke-miterlimit="10" fill="#808080" fill-rule="evenodd"/><path d=" M 30.88 155.6 L 39.05 180.73 C 39.2444 181.334 39.1405 181.995 38.77 182.51 C 33.3567 190.09 27.9433 197.653 22.53 205.2 C 22.0888 205.816 21.3379 206.129 20.59 206.01 C 19.8462 205.892 19.2317 205.367 19 204.65 L 0.6 148 C 0.260889 146.949 0.838172 145.822 1.8894 145.483 C 2.29634 145.351 2.73465 145.354 3.14 145.49 L 29.61 154.37 C 30.2014 154.56 30.6707 155.015 30.88 155.6 Z M 34.94 181 L 27.39 157.78 L 5.62 150.48 L 21.62 199.67 C 26.0533 193.45 30.4933 187.227 34.94 181 Z" stroke="#040000" stroke-miterlimit="10" fill="#040000"/><path d=" M 37.44 255 C 42.88 247.447 48.3 239.88 53.7 232.3 L 37.15 181.3 C 31.7167 188.913 26.3 196.48 20.9 204 C 26.4333 221.02 31.9467 238.02 37.44 255 Z" stroke="#040000" stroke-miterlimit="10" fill="#808080" fill-rule="evenodd"/><path d=" M 19.28 202.87 C 18.9095 203.385 18.8056 204.046 19 204.65 L 35.2 254.53 C 35.4495 254.888 35.7306 255.222 36.04 255.53 C 36.0768 255.578 36.1102 255.628 36.14 255.68 C 36.5934 256.003 37.0754 256.284 37.58 256.52 L 37.69 256.52 C 37.91 256.58 38.12 256.63 38.34 256.67 L 38.42 256.67 C 38.6682 256.532 38.8859 256.345 39.06 256.12 C 44.5 248.56 49.92 240.993 55.32 233.42 C 55.6905 232.905 55.7944 232.244 55.6 231.64 L 39.05 180.64 C 38.7072 179.59 37.5781 179.017 36.5281 179.359 C 36.1215 179.492 35.7682 179.752 35.52 180.1 C 30.1067 187.74 24.6933 195.33 19.28 202.87 Z M 51.49 232 C 47.0367 238.253 42.58 244.477 38.12 250.67 L 23.12 204.43 C 27.5733 198.223 32.0233 192.01 36.47 185.79 Z" stroke="#040000" stroke-miterlimit="10" fill="#060001"/><path d=" M 185 77.34 C 185.135 77.7389 185.135 78.1711 185 78.57 L 169.36 126.72 C 169.146 127.345 168.637 127.824 168 128 C 167.393 128.198 166.728 128.094 166.21 127.72 L 118.67 93.16 C 118.14 92.7985 117.831 92.1915 117.85 91.55 C 117.852 90.9134 118.156 90.3156 118.67 89.94 L 159.61 60.18 C 160.309 59.6761 161.251 59.6761 161.95 60.18 L 184.23 76.35 C 184.586 76.5889 184.856 76.936 185 77.34 Z M 166.41 122.87 L 180.7 78.72 L 160.78 64.26 L 123.24 91.56 Z" stroke="#040000" stroke-miterlimit="10" fill="#060001"/><path d=" M 212.13 156.6 C 212.265 156.999 212.265 157.431 212.13 157.83 L 204.07 182.63 C 203.802 183.453 203.035 184.009 202.17 184.01 L 149.23 184.01 C 148.593 184.008 147.996 183.704 147.62 183.19 C 147.232 182.679 147.123 182.008 147.33 181.4 L 165.51 125.5 C 165.854 124.45 166.983 123.878 168.033 124.222 C 168.229 124.286 168.413 124.38 168.58 124.5 L 211.41 155.61 C 211.748 155.857 211.999 156.203 212.13 156.6 Z M 200.72 180 L 207.89 158 L 168.46 129.36 L 152 180 Z" stroke="#040000" stroke-miterlimit="10" fill="#060001"/><path d=" M 121.74 90.93 C 121.81 91.129 121.84 91.3395 121.83 91.55 C 121.839 92.189 121.532 92.7911 121.01 93.16 L 73.43 127.71 C 72.914 128.087 72.2487 128.195 71.64 128 C 71.0336 127.802 70.5581 127.326 70.36 126.72 L 54 76.36 C 53.7359 75.537 54.0304 74.6375 54.73 74.13 L 75.82 58.8 C 76.5207 58.2913 77.4693 58.2913 78.17 58.8 L 121 89.94 C 121.345 90.1836 121.604 90.5302 121.74 90.93 Z M 73.31 122.87 L 116.45 91.55 L 77 62.88 L 58.25 76.5 Z" stroke="#040000" stroke-miterlimit="10" fill="#060001"/><path d=" M 151.13 181.39 C 151.259 181.79 151.259 182.22 151.13 182.62 L 134.8 232.89 C 134.532 233.713 133.765 234.269 132.9 234.27 L 106.76 234.27 C 105.898 234.271 105.132 233.719 104.86 232.9 L 88.53 182.64 C 88.3351 182.031 88.4429 181.366 88.82 180.85 C 89.1889 180.328 89.791 180.021 90.43 180.03 L 149.23 180.03 C 149.87 180.028 150.472 180.333 150.85 180.85 C 150.975 181.011 151.07 181.194 151.13 181.39 Z M 131.45 230.28 L 146.45 184.01 L 93.18 184.01 L 108.18 230.28 Z" stroke="#040000" stroke-miterlimit="10" fill="#060001"/><path d=" M 204.07 181.4 C 204.201 181.803 204.201 182.237 204.07 182.64 L 187.73 232.9 C 187.459 233.715 186.699 234.266 185.84 234.27 L 132.9 234.27 C 132.263 234.268 131.666 233.964 131.29 233.45 C 130.896 232.941 130.787 232.267 131 231.66 L 147.34 181.4 C 147.607 180.581 148.369 180.025 149.23 180.02 L 202.17 180.02 C 202.809 180.011 203.411 180.318 203.78 180.84 C 203.911 181.007 204.009 181.197 204.07 181.4 Z M 184.38 230.28 L 199.43 184 L 150.69 184 L 135.64 230.27 Z" stroke="#040000" stroke-miterlimit="10" fill="#060001"/><path d=" M 57.8 75.13 L 74.16 125.48 C 74.4241 126.303 74.1296 127.202 73.43 127.71 L 30.69 158.78 C 29.7939 159.426 28.5439 159.223 27.8981 158.327 C 27.7778 158.16 27.684 157.975 27.62 157.78 L 11.25 107.41 C 10.9859 106.587 11.2804 105.688 11.98 105.18 L 54.73 74.13 C 55.6261 73.4842 56.8761 73.6871 57.5219 74.5832 C 57.6422 74.7501 57.736 74.9345 57.8 75.13 Z M 69.91 125.34 L 54.85 79 L 15.5 107.56 L 30.57 153.94 Z" stroke="#040000" stroke-miterlimit="10" fill="#060001"/><path d=" M 92.33 181.4 L 108.66 231.66 C 108.855 232.269 108.747 232.934 108.37 233.45 C 108.001 233.972 107.399 234.279 106.76 234.27 L 53.92 234.27 C 53.0575 234.271 52.2917 233.719 52.02 232.9 L 35.69 182.63 C 35.4951 182.021 35.6029 181.356 35.98 180.84 C 36.3577 180.33 36.9552 180.029 37.59 180.03 L 90.43 180.03 C 91.2925 180.029 92.0583 180.581 92.33 181.4 Z M 104 230.29 L 89 184 L 40.34 184 L 55.34 230.27 Z" stroke="#040000" stroke-miterlimit="10" fill="#060001"/><path d=" M 74.16 125.48 L 92.33 181.4 C 92.5249 182.009 92.4171 182.674 92.04 183.19 C 91.6711 183.712 91.069 184.018 90.43 184.01 L 37.59 184.01 C 36.7249 184.009 35.9582 183.453 35.69 182.63 L 27.62 157.78 C 27.3559 156.957 27.6504 156.058 28.35 155.55 L 71.09 124.49 C 71.9861 123.844 73.2361 124.047 73.8819 124.943 C 74.0022 125.11 74.096 125.295 74.16 125.49 Z M 87.68 180 L 71.21 129.3 L 31.87 157.9 L 39 180 Z" stroke="#040000" stroke-miterlimit="10" fill="#060001"/></g></g></svg>