<svg version="1.1" viewBox="0 0 202 117.47" xmlns="http://www.w3.org/2000/svg" xmlns:xlink="http://www.w3.org/1999/xlink" overflow="hidden"><defs></defs><g id="图层_2"><g id="图层_1-2"><path d=" M 201 29.87 L 201 58.73 L 176 73.17 L 201 29.87 Z" fill="#404040"/><path d=" M 201 1 L 201 29.87 L 176 15.43 L 201 1 Z" fill="#404040"/><rect x="151" y="29.86" width="50" height="28.87" fill="#404040" transform="matrix(0.5,-0.87,0.87,0.5,49.63,174.57)"/><path d=" M 176 15.43 L 151 58.73 L 151 29.87 L 176 15.43 Z" fill="#404040"/><path d=" M 176 73.17 L 151 87.6 L 151 58.73 L 176 73.17 Z" fill="#404040"/><path d=" M 151 58.73 L 151 87.6 L 126 102.03 L 151 58.73 Z" fill="#404040"/><path d=" M 151 29.87 L 151 58.73 L 126 44.3 L 151 29.87 Z" fill="#FEFE00"/><rect x="101" y="58.73" width="50" height="28.87" fill="#404040" transform="matrix(0.5,-0.866025,0.866025,0.5,-0.36,145.7)"/><path d=" M 151 29.87 L 126 44.3 L 126 15.43 L 151 29.87 Z" fill="#404040"/><rect x="76" y="15.43" width="50" height="28.87" fill="#404040"/><path d=" M 126 44.3 L 101 87.6 L 101 58.73 L 126 44.3 Z" fill="#404040"/><path d=" M 126 15.43 L 76 15.43 L 101 1 L 126 15.43 Z" fill="#FEFE00"/><path d=" M 126 44.3 L 101 58.73 L 76 44.3 L 126 44.3 Z" fill="#FEFE00"/><path d=" M 126 102.03 L 101 116.47 L 101 87.6 L 126 102.03 Z" fill="#404040"/><path d=" M 101 87.6 L 101 116.47 L 76 102.03 L 101 87.6 Z" fill="#404040"/><path d=" M 101 58.73 L 101 87.6 L 76 44.3 L 101 58.73 Z" fill="#404040"/><rect x="61.57" y="48.17" width="28.87" height="50" fill="#FEFE00" transform="matrix(0.866025,-0.5,0.5,0.866025,-26.4,47.8)"/><path d=" M 76 15.43 L 76 44.3 L 51 29.87 L 76 15.43 Z" fill="#404040"/><path d=" M 51 58.73 L 76 102.03 L 51 87.6 L 51 58.73 Z" fill="#404040"/><path d=" M 76 44.3 L 51 58.73 L 51 29.87 L 76 44.3 Z" fill="#FEFE00"/><path d=" M 51 58.73 L 51 87.6 L 26 73.17 L 51 58.73 Z" fill="#EE0000"/><path d=" M 51 29.87 L 51 58.73 L 26 15.43 L 51 29.87 Z" fill="#404040"/><rect x="11.56" y="19.3" width="28.87" height="50" fill="#FFA100" transform="matrix(0.866025,-0.5,0.5,0.866025,-18.67,18.94)"/><path d=" M 1 29.87 L 26 73.17 L 1 58.73 L 1 29.87 Z" fill="#EE0000"/><path d=" M 26 15.43 L 1 29.87 L 1 1 L 26 15.43 Z" fill="#404040"/><path d=" M 126 15.43 L 101 1 L 76 15.43" stroke="#000000" stroke-width="2" stroke-linejoin="round" fill="none"/><line x1="151" y1="29.87" x2="126" y2="15.43" stroke="#000000" stroke-width="2" stroke-linejoin="round" fill="none"/><line x1="76" y1="15.43" x2="51" y2="29.87" stroke="#000000" stroke-width="2" stroke-linejoin="round" fill="none"/><rect x="76" y="15.43" width="50" height="28.87" stroke="#000000" stroke-width="2" stroke-linejoin="round" fill="none"/><line x1="126" y1="44.3" x2="101" y2="58.73" stroke="#000000" stroke-width="2" stroke-linejoin="round" fill="none"/><line x1="151" y1="29.87" x2="126" y2="44.3" stroke="#000000" stroke-width="2" stroke-linejoin="round" fill="none"/><line x1="101" y1="116.47" x2="126" y2="102.03" stroke="#000000" stroke-width="2" stroke-linejoin="round" fill="none"/><line x1="126" y1="102.03" x2="151" y2="87.6" stroke="#000000" stroke-width="2" stroke-linejoin="round" fill="none"/><rect x="101" y="58.73" width="50" height="28.87" stroke="#000000" stroke-width="2" stroke-linejoin="round" fill="none" transform="matrix(0.5,-0.87,0.87,0.5,-0.36,145.7)"/><line x1="76" y1="44.3" x2="51" y2="29.87" stroke="#000000" stroke-width="2" stroke-linejoin="round" fill="none"/><path d=" M 101 87.6 L 101 58.73 L 76 44.3" stroke="#000000" stroke-width="2" stroke-linejoin="round" fill="none"/><line x1="51" y1="87.6" x2="76" y2="102.03" stroke="#000000" stroke-width="2" stroke-linejoin="round" fill="none"/><path d=" M 76 102.03 L 101 116.47 L 101 87.6" stroke="#000000" stroke-width="2" stroke-linejoin="round" fill="none"/><rect x="61.57" y="48.17" width="28.87" height="50" stroke="#000000" stroke-width="2" stroke-linejoin="round" fill="none" transform="matrix(0.866025,-0.5,0.5,0.866025,-26.4,47.8)"/><path d=" M 26 15.43 L 1 1 L 1 29.87" stroke="#000000" stroke-width="2" stroke-linejoin="round" fill="none"/><path d=" M 51 58.73 L 51 29.87 L 26 15.43" stroke="#000000" stroke-width="2" stroke-linejoin="round" fill="none"/><path d=" M 1 29.87 L 1 58.73 L 26 73.17" stroke="#000000" stroke-width="2" stroke-linejoin="round" fill="none"/><path d=" M 26 73.17 L 51 87.6 L 51 58.73" stroke="#000000" stroke-width="2" stroke-linejoin="round" fill="none"/><rect x="11.56" y="19.3" width="28.87" height="50" stroke="#000000" stroke-width="2" stroke-linejoin="round" fill="none" transform="matrix(0.866025,-0.5,0.5,0.866025,-18.67,18.94)"/><path d=" M 176 15.43 L 151 29.87 L 151 58.73" stroke="#000000" stroke-width="2" stroke-linejoin="round" fill="none"/><path d=" M 201 29.87 L 201 1 L 176 15.43" stroke="#000000" stroke-width="2" stroke-linejoin="round" fill="none"/><path d=" M 151 58.73 L 151 87.6 L 176 73.17" stroke="#000000" stroke-width="2" stroke-linejoin="round" fill="none"/><path d=" M 176 73.17 L 201 58.73 L 201 29.87" stroke="#000000" stroke-width="2" stroke-linejoin="round" fill="none"/><rect x="151" y="29.86" width="50" height="28.87" stroke="#000000" stroke-width="2" stroke-linejoin="round" fill="none" transform="matrix(0.5,-0.87,0.87,0.5,49.63,174.57)"/></g></g></svg>