<svg version="1.1" width="150" height="150" viewBox="-0.9 -0.9 1.8 1.8" xmlns="http://www.w3.org/2000/svg" xmlns:xlink="http://www.w3.org/1999/xlink" overflow="hidden"><g stroke-width="0.1" stroke-linejoin="round" opacity="1"><path d=" M 0.27151 -0.193479 L 0.623613 -0.521219 L 0.575081 0.303738 L 0.246614 0.748443 Z" stroke="#000000" fill="#000000"/><path d=" M -0.21085 -0.639903 L 0.623613 -0.521219 L 0.27151 -0.193479 L -0.683439 -0.360968 Z" stroke="#000000" fill="#000000"/><path d=" M -0.683439 -0.360968 L 0.27151 -0.193479 L 0.246614 0.748443 L -0.625581 0.522864 Z" stroke="#000000" fill="#000000"/></g><g stroke-width="0" stroke-linejoin="round" stroke-opacity="0.5" opacity="1"><path d=" M 0.294771 -0.196114 L 0.368067 -0.264338 L 0.361991 -0.0860148 L 0.289912 -0.0122817 Z" stroke="#000000" fill="#404040"/><path d=" M 0.38044 -0.276399 L 0.448402 -0.339659 L 0.441295 -0.166542 L 0.374364 -0.0980757 Z" stroke="#000000" fill="#404040"/><path d=" M 0.459897 -0.350865 L 0.523087 -0.409683 L 0.515104 -0.241492 L 0.45279 -0.177748 Z" stroke="#000000" fill="#404040"/><path d=" M 0.533795 -0.420122 L 0.592698 -0.47495 L 0.583971 -0.311426 L 0.525811 -0.251932 Z" stroke="#000000" fill="#404040"/><path d=" M 0.602696 -0.484699 L 0.657736 -0.53593 L 0.648376 -0.37683 L 0.593969 -0.321174 Z" stroke="#000000" fill="#404040"/><path d=" M 0.288968 0.0190848 L 0.361047 -0.0546483 L 0.355198 0.117006 L 0.284298 0.195782 Z" stroke="#000000" fill="#404040"/><path d=" M 0.373224 -0.0676175 L 0.440154 -0.136084 L 0.433303 0.0307856 L 0.367375 0.104037 Z" stroke="#000000" fill="#0000F2"/><path d=" M 0.451483 -0.14815 L 0.513797 -0.211894 L 0.506091 -0.0495678 L 0.444632 0.0187192 Z" stroke="#000000" fill="#0000F2"/><path d=" M 0.524363 -0.223149 L 0.582522 -0.282643 L 0.574089 -0.124634 L 0.516657 -0.0608226 Z" stroke="#000000" fill="#0000F2"/><path d=" M 0.5924 -0.293166 L 0.646807 -0.348822 L 0.637753 -0.194917 L 0.583966 -0.135156 Z" stroke="#000000" fill="#EE0000"/><path d=" M 0.283388 0.225963 L 0.354289 0.147187 L 0.348656 0.312538 L 0.278896 0.395933 Z" stroke="#000000" fill="#404040"/><path d=" M 0.366276 0.133384 L 0.432204 0.0601334 L 0.425596 0.221087 L 0.360643 0.298736 Z" stroke="#000000" fill="#FFA100"/><path d=" M 0.443371 0.047275 L 0.50483 -0.0210119 L 0.497389 0.135752 L 0.436762 0.208229 Z" stroke="#000000" fill="#FFA100"/><path d=" M 0.515258 -0.0330201 L 0.572689 -0.0968311 L 0.564536 0.0559383 L 0.507817 0.123744 Z" stroke="#000000" fill="#FFA100"/><path d=" M 0.582449 -0.108071 L 0.636236 -0.167832 L 0.627472 -0.0188724 L 0.574295 0.0446987 Z" stroke="#000000" fill="#404040"/><path d=" M 0.278021 0.424994 L 0.34778 0.341599 L 0.34235 0.50099 L 0.273696 0.588614 Z" stroke="#000000" fill="#404040"/><path d=" M 0.359583 0.327033 L 0.424536 0.249384 L 0.418158 0.404731 L 0.354152 0.486423 Z" stroke="#000000" fill="#0000F2"/><path d=" M 0.435545 0.235797 L 0.496172 0.16332 L 0.488981 0.314802 L 0.429167 0.391144 Z" stroke="#000000" fill="#0000F2"/><path d=" M 0.506464 0.150616 L 0.563183 0.0828103 L 0.555296 0.230596 L 0.499274 0.302098 Z" stroke="#000000" fill="#0000F2"/><path d=" M 0.572827 0.0709062 L 0.626004 0.00733514 L 0.617518 0.151584 L 0.564939 0.218692 Z" stroke="#000000" fill="#404040"/><path d=" M 0.272852 0.616617 L 0.341506 0.528993 L 0.336268 0.682738 L 0.268686 0.774235 Z" stroke="#000000" fill="#404040"/><path d=" M 0.35313 0.513725 L 0.417135 0.432033 L 0.410976 0.582062 L 0.347891 0.667471 Z" stroke="#000000" fill="#404040"/><path d=" M 0.427991 0.417774 L 0.487805 0.341432 L 0.480853 0.487895 L 0.421831 0.567803 Z" stroke="#000000" fill="#404040"/><path d=" M 0.497966 0.328085 L 0.553987 0.256583 L 0.546353 0.399625 L 0.491014 0.474548 Z" stroke="#000000" fill="#404040"/><path d=" M 0.563518 0.244063 L 0.616097 0.176956 L 0.607875 0.316715 L 0.555884 0.387105 Z" stroke="#000000" fill="#404040"/><path d=" M -0.218051 -0.674956 L -0.0758393 -0.65473 L -0.147137 -0.609325 L -0.292774 -0.630853 Z" stroke="#000000" fill="#404040"/><path d=" M -0.0500529 -0.650988 L 0.096319 -0.63017 L 0.0286842 -0.583406 L -0.121351 -0.605584 Z" stroke="#000000" fill="#A83DD9"/><path d=" M 0.122878 -0.626317 L 0.273595 -0.604881 L 0.209879 -0.556695 L 0.0552436 -0.579552 Z" stroke="#000000" fill="#A83DD9"/><path d=" M 0.300963 -0.600909 L 0.456221 -0.578828 L 0.396697 -0.529154 L 0.237246 -0.552724 Z" stroke="#000000" fill="#A83DD9"/><path d=" M 0.484435 -0.574734 L 0.644443 -0.551976 L 0.589404 -0.500745 L 0.42491 -0.52506 Z" stroke="#000000" fill="#404040"/><path d=" M -0.306073 -0.622691 L -0.160436 -0.601164 L -0.236432 -0.552767 L -0.385645 -0.575726 Z" stroke="#000000" fill="#404040"/><path d=" M -0.134009 -0.597175 L 0.016026 -0.574997 L -0.0561354 -0.525103 L -0.210005 -0.548779 Z" stroke="#000000" fill="#404040"/><path d=" M 0.0432715 -0.570885 L 0.197907 -0.548028 L 0.129858 -0.496566 L -0.0288899 -0.520991 Z" stroke="#000000" fill="#404040"/><path d=" M 0.226009 -0.543786 L 0.38546 -0.520217 L 0.321823 -0.467112 L 0.157961 -0.492324 Z" stroke="#000000" fill="#404040"/><path d=" M 0.41446 -0.51584 L 0.578954 -0.491524 L 0.520051 -0.436696 L 0.350824 -0.462734 Z" stroke="#000000" fill="#404040"/><path d=" M -0.399829 -0.56702 L -0.250616 -0.544062 L -0.331791 -0.492367 L -0.484739 -0.516904 Z" stroke="#000000" fill="#404040"/><path d=" M -0.223519 -0.539801 L -0.0696491 -0.516126 L -0.146807 -0.462777 L -0.304694 -0.488106 Z" stroke="#000000" fill="#404040"/><path d=" M -0.041684 -0.511729 L 0.117064 -0.487303 L 0.044226 -0.432219 L -0.118842 -0.45838 Z" stroke="#000000" fill="#404040"/><path d=" M 0.14594 -0.482762 L 0.309801 -0.45755 L 0.241611 -0.400645 L 0.0731017 -0.427678 Z" stroke="#000000" fill="#404040"/><path d=" M 0.339633 -0.452859 L 0.50886 -0.426821 L 0.44567 -0.368003 L 0.271442 -0.395954 Z" stroke="#000000" fill="#404040"/><path d=" M -0.499899 -0.507599 L -0.346951 -0.483062 L -0.433853 -0.42772 L -0.590702 -0.454004 Z" stroke="#000000" fill="#404040"/><path d=" M -0.319153 -0.4785 L -0.161266 -0.453171 L -0.243959 -0.395995 L -0.406055 -0.423158 Z" stroke="#000000" fill="#404040"/><path d=" M -0.132546 -0.448457 L 0.0305222 -0.422297 L -0.0476291 -0.363194 L -0.215239 -0.391282 Z" stroke="#000000" fill="#404040"/><path d=" M 0.0602115 -0.417424 L 0.228721 -0.390391 L 0.15547 -0.329263 L -0.0179399 -0.358322 Z" stroke="#000000" fill="#404040"/><path d=" M 0.259429 -0.385351 L 0.433656 -0.3574 L 0.365694 -0.294141 L 0.186178 -0.324223 Z" stroke="#000000" fill="#404040"/><path d=" M -0.606943 -0.444035 L -0.450093 -0.417751 L -0.54335 -0.358362 L -0.704275 -0.386587 Z" stroke="#000000" fill="#404040"/><path d=" M -0.421562 -0.412855 L -0.259466 -0.385692 L -0.348311 -0.324262 L -0.514818 -0.353466 Z" stroke="#000000" fill="#404040"/><path d=" M -0.229953 -0.380627 L -0.0623433 -0.35254 L -0.146412 -0.288963 L -0.318798 -0.319198 Z" stroke="#000000" fill="#404040"/><path d=" M -0.0317971 -0.347298 L 0.141613 -0.318239 L 0.0627161 -0.2524 L -0.115865 -0.283721 Z" stroke="#000000" fill="#404040"/><path d=" M 0.173247 -0.31281 L 0.352764 -0.282727 L 0.279468 -0.214503 L 0.0943508 -0.246971 Z" stroke="#000000" fill="#404040"/><path d=" M -0.712118 -0.366183 L -0.551193 -0.337958 L -0.542753 -0.164156 L -0.700895 -0.194729 Z" stroke="#000000" fill="#404040"/><path d=" M -0.522566 -0.332678 L -0.356058 -0.303474 L -0.350601 -0.127263 L -0.514125 -0.158876 Z" stroke="#000000" fill="#404040"/><path d=" M -0.326438 -0.298011 L -0.154052 -0.267776 L -0.151794 -0.0890914 L -0.320981 -0.1218 Z" stroke="#000000" fill="#404040"/><path d=" M -0.123387 -0.262121 L 0.0551948 -0.230799 L 0.0540206 -0.0495749 L -0.121129 -0.0834359 Z" stroke="#000000" fill="#404040"/><path d=" M 0.0869607 -0.224941 L 0.272077 -0.192473 L 0.267219 -0.00864062 L 0.0857865 -0.0437163 Z" stroke="#000000" fill="#404040"/><path d=" M -0.699187 -0.164821 L -0.541045 -0.134248 L -0.532911 0.0332512 L -0.688363 0.000515846 Z" stroke="#000000" fill="#EE0000"/><path d=" M -0.512917 -0.128566 L -0.349393 -0.0969523 L -0.344137 0.0727629 L -0.504783 0.0389338 Z" stroke="#000000" fill="#FFA100"/><path d=" M -0.320308 -0.0910765 L -0.15112 -0.0583681 L -0.148947 0.113617 L -0.315052 0.0786387 Z" stroke="#000000" fill="#FFA100"/><path d=" M -0.121029 -0.052289 L 0.0541201 -0.018428 L 0.0529907 0.155884 L -0.118856 0.119697 Z" stroke="#000000" fill="#FFA100"/><path d=" M 0.0852708 -0.0121349 L 0.266703 0.0229407 L 0.262033 0.199638 L 0.0841414 0.162177 Z" stroke="#000000" fill="#404040"/><path d=" M -0.686716 0.0293574 L -0.531264 0.0620928 L -0.52342 0.223627 L -0.676272 0.1889 Z" stroke="#000000" fill="#404040"/><path d=" M -0.503618 0.0681459 L -0.342972 0.101975 L -0.337907 0.265547 L -0.495774 0.22968 Z" stroke="#000000" fill="#00D800"/><path d=" M -0.314404 0.10823 L -0.148299 0.143209 L -0.146206 0.308865 L -0.309338 0.271802 Z" stroke="#000000" fill="#00D800"/><path d=" M -0.11876 0.149677 L 0.0530865 0.185864 L 0.0519994 0.353653 L -0.116667 0.315332 Z" stroke="#000000" fill="#00D800"/><path d=" M 0.0836453 0.192555 L 0.261537 0.230016 L 0.257044 0.399986 L 0.0825582 0.360344 Z" stroke="#000000" fill="#404040"/><path d=" M -0.674682 0.216731 L -0.52183 0.251458 L -0.51426 0.40734 L -0.664598 0.370778 Z" stroke="#000000" fill="#404040"/><path d=" M -0.494651 0.257853 L -0.336784 0.293719 L -0.331898 0.451475 L -0.487081 0.413734 Z" stroke="#000000" fill="#FFA100"/><path d=" M -0.308713 0.300323 L -0.145581 0.337386 L -0.143563 0.497056 L -0.303828 0.458079 Z" stroke="#000000" fill="#FFA100"/><path d=" M -0.116575 0.34421 L 0.0520917 0.38253 L 0.0510445 0.544154 L -0.114557 0.503879 Z" stroke="#000000" fill="#FFA100"/><path d=" M 0.0820807 0.389585 L 0.256567 0.429228 L 0.252242 0.592848 L 0.0810335 0.551209 Z" stroke="#000000" fill="#404040"/><path d=" M -0.663063 0.397651 L -0.512726 0.434214 L -0.505416 0.584734 L -0.653321 0.546481 Z" stroke="#000000" fill="#404040"/><path d=" M -0.485997 0.440922 L -0.330815 0.478663 L -0.3261 0.630907 L -0.478687 0.591443 Z" stroke="#000000" fill="#404040"/><path d=" M -0.303225 0.485587 L -0.14296 0.524564 L -0.141014 0.678565 L -0.298511 0.637831 Z" stroke="#000000" fill="#404040"/><path d=" M -0.114468 0.531714 L 0.0511334 0.571989 L 0.050124 0.727782 L -0.112522 0.685716 Z" stroke="#000000" fill="#404040"/><path d=" M 0.0805735 0.579378 L 0.251782 0.621016 L 0.247617 0.778635 L 0.0795641 0.735171 Z" stroke="#000000" fill="#404040"/></g></svg>