<svg width="128" height="128" viewBox="-0.9 -0.9 1.8 1.8" xmlns="http://www.w3.org/2000/svg" xmlns:xlink="http://www.w3.org/1999/xlink" overflow="hidden"><g stroke-width="0.1" stroke-linejoin="round"><path d="M-0.654001-0.50224-0.206844-0.103422-0.184643 0.78142-0.59354 0.29677Z" id="1" stroke="#000000"/><path d="M-0.654001-0.50224 0.161033-0.681501 0.699152-0.349576-0.206844-0.103422Z" id="2" stroke="#000000"/><path d="M-0.206844-0.103422 0.699152-0.349576 0.630493 0.484187-0.184643 0.78142Z" id="3" stroke="#000000"/></g><g stroke-width="0" stroke-linejoin="round" stroke-opacity="0.5"><path d="M-0.683694-0.501337-0.563379-0.394028-0.547108-0.127783-0.664273-0.244682Z" id="1" stroke="#000000" fill="#404040"/><path d="M-0.541295-0.373118-0.407334-0.253639-0.395054 0.0228028-0.525024-0.106872Z" id="2" stroke="#000000" fill="#404040"/><path d="M-0.38272-0.230332-0.232652-0.0964866-0.225445 0.190776-0.37044 0.0461098Z" id="3" stroke="#000000" fill="#404040"/><path d="M-0.66122-0.200113-0.544054-0.0832132-0.528869 0.165253-0.643034 0.0402203Z" id="4" stroke="#000000" fill="#00D800"/><path d="M-0.522581-0.0607029-0.39261 0.0689723-0.381193 0.325981-0.507396 0.187764Z" id="5" stroke="#000000" fill="#00D800"/><path d="M-0.368767 0.0939674-0.223772 0.238633-0.2171 0.504578-0.35735 0.350976Z" id="6" stroke="#000000" fill="#404040"/><path d="M-0.640176 0.0819331-0.526012 0.206966-0.511808 0.439377-0.623111 0.307454Z" id="7" stroke="#000000" fill="#404040"/><path d="M-0.505117 0.230824-0.378915 0.369042-0.368273 0.608597-0.490913 0.463236Z" id="8" stroke="#000000" fill="#00D800"/><path d="M-0.355796 0.39544-0.215546 0.549042-0.209351 0.795958-0.345155 0.634995Z" id="9" stroke="#000000" fill="#00D800"/><path d="M-0.661341-0.530416-0.40164-0.587535-0.271422-0.486425-0.541026-0.423107Z" id="10" stroke="#000000" fill="#404040"/><path d="M-0.356324-0.597836-0.111048-0.651783 0.0277654-0.556349-0.226107-0.496726Z" id="11" stroke="#000000" fill="#404040"/><path d="M-0.0682752-0.661506 0.163746-0.712537 0.310016-0.622314 0.0705379-0.566071Z" id="12" stroke="#000000" fill="#404040"/><path d="M-0.517658-0.403738-0.248054-0.467055-0.103536-0.354841-0.383697-0.284258Z" id="13" stroke="#000000" fill="#404040"/><path d="M-0.201065-0.478487 0.0528072-0.53811 0.206397-0.432517-0.0565467-0.366273Z" id="14" stroke="#000000" fill="#404040"/><path d="M0.0970252-0.548868 0.336503-0.60511 0.49788-0.505569 0.250615-0.443274Z" id="15" stroke="#000000" fill="#404040"/><path d="M-0.357644-0.262664-0.0774827-0.333246 0.083829-0.207992-0.207576-0.128819Z" id="16" stroke="#000000" fill="#404040"/><path d="M-0.0287194-0.346007 0.234224-0.412251 0.405081-0.294786 0.132592-0.220752Z" id="17" stroke="#000000" fill="#404040"/><path d="M0.279956-0.424218 0.527222-0.486513 0.706171-0.376132 0.450814-0.306753Z" id="18" stroke="#000000" fill="#404040"/><path d="M-0.194678-0.0922206 0.0967269-0.171394 0.0928351 0.109544-0.187471 0.195042Z" id="19" stroke="#000000" fill="#404040"/><path d="M0.145624-0.185451 0.418114-0.259485 0.4045 0.0153383 0.141733 0.0954865Z" id="20" stroke="#000000" fill="#404040"/><path d="M0.463936-0.27266 0.719293-0.34204 0.697148-0.0731226 0.450322 0.00216307Z" id="21" stroke="#000000" fill="#404040"/><path d="M-0.187153 0.243395 0.0931524 0.157897 0.0895404 0.418636-0.180481 0.50934Z" id="22" stroke="#000000" fill="#404040"/><path d="M0.140272 0.142833 0.40304 0.0626853 0.390376 0.318346 0.13666 0.403572Z" id="23" stroke="#000000" fill="#FFA100"/><path d="M0.4473 0.0485342 0.694125-0.0267515 0.673479 0.223964 0.434636 0.304195Z" id="24" stroke="#000000" fill="#FFA100"/><path d="M-0.180189 0.554215 0.0898326 0.463512 0.0864713 0.706154-0.173993 0.801131Z" id="25" stroke="#000000" fill="#FFFFFF"/><path d="M0.135299 0.447617 0.389015 0.362391 0.377204 0.600825 0.131938 0.69026Z" id="26" stroke="#000000" fill="#FFA100"/><path d="M0.431816 0.347427 0.67066 0.267196 0.651365 0.501498 0.420005 0.585862Z" id="27" stroke="#000000" fill="#FFA100"/></g></svg>