<svg version="1.1" viewBox="0 0 269.67 258.22" xmlns="http://www.w3.org/2000/svg" xmlns:xlink="http://www.w3.org/1999/xlink" overflow="hidden"><defs></defs><g id="ae8f8829-b3d1-415e-9c24-9af66d4e4a19"><g id="af5deb90-301a-4f63-b285-26c441987391"><path d=" M 135.26 92.38 L 182.83 126.96 L 164.68 182.87 L 105.87 182.88 L 87.69 126.95 L 135.26 92.38 Z" fill="#808080"/><path d=" M 135.26 92.38 L 87.69 126.95 L 105.87 182.88 L 164.68 182.87 L 182.83 126.96 L 135.26 92.38 Z" stroke="#040000" stroke-miterlimit="10" fill="none"/><path d=" M 165.83 184.48 C 165.49 184.726 165.08 184.859 164.66 184.86 L 105.87 184.86 C 105.009 184.855 104.247 184.299 103.98 183.48 L 85.8 127.55 C 85.5338 126.729 85.8241 125.83 86.52 125.32 L 134.09 90.76 C 134.789 90.2561 135.731 90.2561 136.43 90.76 L 184 125.34 C 184.696 125.85 184.986 126.749 184.72 127.57 L 166.56 183.48 C 166.432 183.884 166.176 184.235 165.83 184.48 Z M 107.33 180.86 L 163.21 180.86 L 180.48 127.7 L 135.26 94.84 L 90 127.69 Z" stroke="#040000" stroke-miterlimit="10" fill="#211613"/><path d=" M 225.79 67.93 L 199.31 76.42 L 178.14 61.03 L 178.03 33.23 L 225.79 67.93 Z" stroke="#040000" stroke-miterlimit="10" fill="#808080" fill-rule="evenodd"/><path d=" M 227 69.55 C 226.831 69.6746 226.641 69.7693 226.44 69.83 L 199.96 78.32 C 199.354 78.5115 198.694 78.4039 198.18 78.03 L 177 62.64 C 176.485 62.2686 176.177 61.6748 176.17 61.04 L 176.07 33.24 C 176.069 32.4833 176.494 31.7905 177.17 31.45 C 177.838 31.1159 178.636 31.1814 179.24 31.62 L 226.5 66 C 227.55 66.3443 228.121 67.4742 227.777 68.5237 C 227.646 68.9241 227.391 69.2728 227.05 69.52 C 227.032 69.5275 227.015 69.5376 227 69.55 Z M 199.7 74.2 L 221.48 67.2 L 180 37.16 L 180.13 60 Z" stroke="#040000" stroke-miterlimit="10" fill="#060001"/><path d=" M 164.66 182.86 L 215.29 182.87 L 223.78 156.69 L 182.82 126.95 L 164.66 182.86 Z" stroke="#040000" stroke-miterlimit="10" fill="#1B1B1B" fill-rule="evenodd"/><path d=" M 223.78 156.69 L 240.15 106.31 L 199.2 76.57 L 182.82 126.95 L 223.78 156.69 Z" stroke="#040000" stroke-miterlimit="10" fill="#1B1B1B" fill-rule="evenodd"/><path d=" M 225 158.3 C 224.831 158.425 224.641 158.519 224.44 158.58 C 223.836 158.774 223.175 158.67 222.66 158.3 L 181.66 128.56 C 180.964 128.05 180.674 127.151 180.94 126.33 L 197.3 76 C 197.489 75.3902 197.969 74.9142 198.58 74.73 C 199.187 74.5322 199.852 74.6363 200.37 75.01 L 241.32 104.75 C 242.02 105.258 242.314 106.157 242.05 106.98 L 225.67 157.3 C 225.555 157.694 225.321 158.043 225 158.3 Z M 185.22 126.19 L 222.78 153.46 L 237.85 107.07 L 200.25 79.8 Z" stroke="#040000" stroke-miterlimit="10" fill="#060001"/><path d=" M 215.29 182.87 L 164.66 182.86 L 148.31 233.2 L 198.92 233.19 L 215.29 182.87 Z" stroke="#040000" stroke-miterlimit="10" fill="#808080" fill-rule="evenodd"/><path d=" M 200.1 234.81 C 199.76 235.056 199.35 235.189 198.93 235.19 L 148.31 235.19 C 147.67 235.192 147.068 234.887 146.69 234.37 C 146.316 233.852 146.212 233.187 146.41 232.58 L 162.77 182.24 C 163.037 181.421 163.799 180.865 164.66 180.86 L 215.28 180.86 C 216.385 180.863 217.278 181.76 217.275 182.865 C 217.275 183.07 217.243 183.274 217.18 183.47 L 200.82 233.8 C 200.693 234.204 200.441 234.558 200.1 234.81 Z M 151.1 231.21 L 197.52 231.21 L 212.58 184.87 L 166.11 184.87 Z" stroke="#040000" stroke-miterlimit="10" fill="#060001"/><path d=" M 105.88 182.85 L 122.22 233.21 L 148.31 233.2 L 164.66 182.86 L 105.88 182.85 Z" stroke="#040000" stroke-miterlimit="10" fill="#1B1B1B" fill-rule="evenodd"/><path d=" M 182.82 126.95 L 199.2 76.57 L 178.1 61.25 L 135.26 92.37 L 182.82 126.95 Z" stroke="#040000" stroke-miterlimit="10" fill="#1B1B1B" fill-rule="evenodd"/><path d=" M 87.69 126.93 L 44.94 158 L 53.02 182.85 L 105.88 182.85 L 87.69 126.93 Z" stroke="#040000" stroke-miterlimit="10" fill="#808080" fill-rule="evenodd"/><path d=" M 53.02 182.85 L 69.38 233.2 L 122.22 233.21 L 105.88 182.85 L 53.02 182.85 Z" stroke="#040000" stroke-miterlimit="10" fill="#1B1B1B" fill-rule="evenodd"/><path d=" M 178.1 61.25 L 135.36 30.19 L 92.51 61.32 L 135.26 92.37 L 178.1 61.25 Z" stroke="#040000" stroke-miterlimit="10" fill="#1B1B1B" fill-rule="evenodd"/><path d=" M 71.37 76.68 L 28.62 107.74 L 44.94 158 L 87.69 126.93 L 71.37 76.68 Z" stroke="#040000" stroke-miterlimit="10" fill="#1B1B1B" fill-rule="evenodd"/><path d=" M 135.26 92.37 L 92.51 61.32 L 71.37 76.68 L 87.69 126.93 L 135.26 92.37 Z" stroke="#040000" stroke-miterlimit="10" fill="#1B1B1B" fill-rule="evenodd"/><path d=" M 250.76 148.68 C 241.64 151.68 232.48 154.62 223.27 157.68 C 220.477 166.24 217.69 174.787 214.91 183.32 C 220.61 190.96 226.277 198.53 231.91 206.03 C 235.05 196.503 238.183 186.967 241.31 177.42 Z" stroke="#040000" stroke-miterlimit="10" fill="#808080" fill-rule="evenodd"/><path d=" M 233.09 207.64 C 232.838 207.821 232.547 207.941 232.24 207.99 C 231.507 208.11 230.767 207.813 230.32 207.22 L 213.32 184.51 C 212.93 183.988 212.818 183.309 213.02 182.69 L 221.39 157.05 C 221.596 156.452 222.063 155.98 222.66 155.77 C 231.1 152.977 239.503 150.23 247.87 147.53 L 250.16 146.79 C 250.864 146.569 251.633 146.753 252.16 147.27 C 252.677 147.797 252.861 148.566 252.64 149.27 L 243.22 178 C 240.093 187.54 236.96 197.08 233.82 206.62 C 233.689 207.028 233.433 207.384 233.09 207.64 Z M 217.09 182.94 L 231.18 201.76 C 233.92 193.44 236.653 185.107 239.38 176.76 L 247.6 151.76 C 240.033 154.207 232.44 156.69 224.82 159.21 Z" stroke="#040000" stroke-miterlimit="10" fill="#060001"/><path d=" M 267.85 96.71 C 258.73 99.5233 249.57 102.373 240.37 105.26 C 234.663 122.767 228.963 140.237 223.27 157.67 C 232.48 154.67 241.64 151.67 250.76 148.67 C 256.447 131.41 262.143 114.09 267.85 96.71 Z" stroke="#040000" stroke-miterlimit="10" fill="#808080" fill-rule="evenodd"/><path d=" M 164.91 255.63 C 159.37 248.297 153.783 240.917 148.15 233.49 L 122.08 233.42 C 116.873 240.873 111.663 248.31 106.45 255.73 L 135.87 255.73 C 145.58 255.66 155.27 255.66 164.91 255.63 Z" stroke="#040000" stroke-miterlimit="10" fill="#808080" fill-rule="evenodd"/><path d=" M 166.08 257.25 C 165.742 257.494 165.337 257.627 164.92 257.63 L 106.46 257.72 C 105.355 257.718 104.461 256.821 104.463 255.717 C 104.464 255.31 104.588 254.914 104.82 254.58 L 120.45 232.28 C 120.823 231.742 121.436 231.421 122.09 231.42 L 148.16 231.49 C 148.782 231.496 149.367 231.792 149.74 232.29 C 155.36 239.69 160.947 247.07 166.5 254.43 C 166.956 255.033 167.034 255.842 166.7 256.52 C 166.553 256.808 166.34 257.058 166.08 257.25 Z M 110.3 253.72 L 160.91 253.64 C 156.363 247.64 151.78 241.587 147.16 235.48 L 123.16 235.42 Z" stroke="#040000" stroke-miterlimit="10" fill="#060001"/><path d=" M 2.32 99.25 C 7.65333 115.61 12.9867 131.943 18.32 148.25 C 27.1 151.2 35.86 154.11 44.63 157.05 C 39.2967 140.73 33.9633 124.37 28.63 107.97 C 19.86 105.07 11.06 102.14 2.32 99.25 Z" stroke="#040000" stroke-miterlimit="10" fill="#808080" fill-rule="evenodd"/><path d=" M 1.1 97.69 L 1 97.92 C 0.969051 97.9683 0.935675 98.0151 0.9 98.06 C 0.720218 98.5943 0.586398 99.1429 0.5 99.7 C 0.504652 99.7332 0.504652 99.7668 0.5 99.8 C 0.510098 99.9909 0.530125 100.181 0.56 100.37 L 2.56 106.45 C 7.18 120.61 11.7833 134.737 16.37 148.83 C 16.564 149.432 17.0313 149.907 17.63 150.11 L 44 158.92 C 44.6147 159.122 45.2891 159.014 45.81 158.63 C 45.8911 158.572 45.9679 158.509 46.04 158.44 C 46.5603 157.915 46.7488 157.146 46.53 156.44 L 30.53 107.33 C 30.3319 106.724 29.8564 106.248 29.25 106.05 C 21.99 103.67 14.72 101.25 7.47 98.85 L 2.94 97.35 C 2.3082 97.1517 1.61923 97.2791 1.1 97.69 Z M 6.22 102.69 C 13.1533 104.99 20.0967 107.287 27.05 109.58 L 41.46 153.92 L 19.86 146.69 C 15.3933 132.897 10.8933 119.07 6.36 105.21 L 5.44 102.38 Z" stroke="#040000" stroke-miterlimit="10" fill="#060001"/><path d=" M 53.29 255.51 C 58.6233 248.09 63.9733 240.637 69.34 233.15 C 63.84 216.21 58.32 199.24 52.78 182.24 C 47.4467 189.82 42.1133 197.357 36.78 204.85 C 42.3 221.77 47.8033 238.657 53.29 255.51 Z" stroke="#040000" stroke-miterlimit="10" fill="#808080" fill-rule="evenodd"/><path d=" M 53.08 180.26 C 52.3315 180.149 51.5845 180.471 51.15 181.09 C 45.8167 188.67 40.4833 196.203 35.15 203.69 C 34.7795 204.205 34.6756 204.866 34.87 205.47 L 51.31 255.9 C 51.9327 256.579 52.7441 257.056 53.64 257.27 C 53.6987 257.284 53.7534 257.312 53.8 257.35 L 53.8 257.35 L 53.91 257.35 C 54.0991 257.287 54.2778 257.196 54.44 257.08 C 54.6137 256.96 54.7658 256.811 54.89 256.64 C 59.23 250.64 63.5633 244.597 67.89 238.51 L 70.89 234.27 C 71.2571 233.753 71.3572 233.093 71.16 232.49 L 54.68 181.62 C 54.4467 180.901 53.8276 180.374 53.08 180.26 Z M 67.08 232.81 L 64.63 236.23 C 61.0833 241.223 57.54 246.197 54 251.15 L 39 205.15 C 43.38 198.99 47.7633 192.807 52.15 186.6 Z" stroke="#040000" stroke-miterlimit="10" fill="#060001"/><path d=" M 135 2.44 L 93.51 32.58 C 93.41 41.9133 93.3233 51.2267 93.25 60.52 L 134.76 30.35 C 134.87 21.06 134.93 11.76 135 2.44 Z" stroke="#040000" stroke-miterlimit="10" fill="#808080" fill-rule="evenodd"/><path d=" M 135.4 0.51 C 134.906 0.493458 134.416 0.596372 133.97 0.81 L 133.92 0.81 C 133.832 0.885068 133.73 0.942747 133.62 0.98 C 133.55 1.03 133.48 1.06 133.41 1.12 L 133.41 1.12 L 92.34 31 C 91.8316 31.3714 91.5278 31.9605 91.52 32.59 L 91.25 60.5 C 91.2456 61.6046 92.1375 62.5035 93.242 62.5079 C 93.6648 62.5096 94.0772 62.3773 94.42 62.13 L 135.93 32 C 136.438 31.6286 136.742 31.0395 136.75 30.41 C 136.817 24.5033 136.877 18.59 136.93 12.67 L 137 2.45 C 137.009 1.70206 136.6 1.0115 135.94 0.66 C 135.792 0.591881 135.638 0.538296 135.48 0.5 Z M 132.94 12.6 C 132.88 18.18 132.84 23.76 132.77 29.33 L 95.28 56.57 L 95.5 33.57 L 133 6.38 Z" stroke="#040000" stroke-miterlimit="10" fill="#060001"/><path d=" M 45.27 67.61 C 54.1167 70.43 62.98 73.2433 71.86 76.05 L 93.25 60.52 C 93.33 51.1867 93.4167 41.8733 93.51 32.58 L 69.37 50.12 Z" stroke="#040000" stroke-miterlimit="10" fill="#808080" fill-rule="evenodd"/><path d=" M 94.42 62.13 L 73 77.66 C 72.4864 78.0339 71.8257 78.1415 71.22 77.95 C 62.34 75.15 53.4767 72.3367 44.63 69.51 C 43.9096 69.2814 43.3796 68.6663 43.26 67.92 C 43.1554 67.1728 43.4803 66.4303 44.1 66 L 92.34 31 C 92.9507 30.5566 93.7589 30.4948 94.43 30.84 C 95.1012 31.1877 95.5191 31.8841 95.51 32.64 L 95.24 60.56 C 95.2259 61.1824 94.9228 61.7628 94.42 62.13 Z M 71.51 73.84 L 91.26 59.49 L 91.48 36.49 L 49.64 66.91 C 56.92 69.23 64.21 71.54 71.51 73.84 Z" stroke="#040000" stroke-miterlimit="10" fill="#040000"/><path d=" M 216.46 184.48 C 216.12 184.726 215.71 184.859 215.29 184.86 L 164.66 184.86 C 164.023 184.858 163.426 184.554 163.05 184.04 C 162.676 183.522 162.572 182.857 162.77 182.25 L 180.93 126.33 C 181.108 125.711 181.591 125.228 182.21 125.05 C 182.819 124.855 183.484 124.963 184 125.34 L 225 155.07 C 225.7 155.578 225.994 156.477 225.73 157.3 L 217.24 183.48 C 217.092 183.887 216.819 184.237 216.46 184.48 Z M 167.41 180.86 L 213.83 180.86 L 221.43 157.45 L 183.87 130.18 Z" stroke="#040000" stroke-miterlimit="10" fill="#060001"/><path d=" M 149.48 234.82 C 149.14 235.066 148.73 235.199 148.31 235.2 L 122.23 235.2 C 121.365 235.199 120.598 234.643 120.33 233.82 L 104 183.47 C 103.802 182.863 103.906 182.198 104.28 181.68 C 104.647 181.151 105.256 180.843 105.9 180.86 L 164.68 180.86 C 165.785 180.863 166.678 181.76 166.675 182.865 C 166.675 183.07 166.643 183.274 166.58 183.47 L 150.2 233.82 C 150.08 234.225 149.826 234.578 149.48 234.82 Z M 123.68 231.21 L 146.86 231.21 L 161.92 184.86 L 108.63 184.86 Z" stroke="#040000" stroke-miterlimit="10" fill="#060001"/><path d=" M 184 128.56 C 183.832 128.687 183.642 128.781 183.44 128.84 C 182.833 129.038 182.168 128.934 181.65 128.56 L 134.09 94 C 133.201 93.3447 133.011 92.0926 133.667 91.2035 C 133.786 91.0419 133.928 90.8991 134.09 90.78 L 176.93 59.65 C 177.629 59.1461 178.571 59.1461 179.27 59.65 L 200.37 75 C 201.066 75.5102 201.356 76.4092 201.09 77.23 L 184.72 127.61 C 184.582 127.992 184.331 128.324 184 128.56 Z M 138.66 92.37 L 181.78 123.72 L 196.85 77.33 L 178.1 63.72 Z" stroke="#040000" stroke-miterlimit="10" fill="#060001"/><path d=" M 107.05 184.47 C 106.71 184.716 106.3 184.849 105.88 184.85 L 53 184.85 C 52.1375 184.851 51.3717 184.299 51.1 183.48 L 43.02 158.62 C 42.7538 157.799 43.0441 156.9 43.74 156.39 L 86.49 125.33 C 87.3861 124.684 88.6361 124.887 89.2819 125.783 C 89.4022 125.95 89.496 126.135 89.56 126.33 L 107.74 182.25 C 107.934 182.854 107.83 183.515 107.46 184.03 C 107.348 184.198 107.209 184.346 107.05 184.47 Z M 54.47 180.85 L 103.13 180.85 L 86.65 130.15 L 47.29 158.75 Z" stroke="#040000" stroke-miterlimit="10" fill="#060001"/><path d=" M 123.4 234.82 C 123.057 235.068 122.644 235.202 122.22 235.2 L 69.38 235.2 C 68.5122 235.198 67.7447 234.636 67.48 233.81 L 51.13 183.47 C 50.9322 182.863 51.0363 182.198 51.41 181.68 C 51.7741 181.153 52.3794 180.844 53.02 180.86 L 105.87 180.86 C 106.735 180.861 107.502 181.417 107.77 182.24 L 124.12 232.59 C 124.318 233.197 124.214 233.862 123.84 234.38 C 123.717 234.549 123.569 234.697 123.4 234.82 Z M 70.83 231.2 L 119.48 231.2 L 104.48 184.84 L 55.77 184.84 Z" stroke="#040000" stroke-miterlimit="10" fill="#060001"/><path d=" M 179.27 62.86 L 136.44 94 C 135.739 94.5087 134.791 94.5087 134.09 94 L 91.34 62.93 C 90.826 62.5544 90.5215 61.9566 90.52 61.32 C 90.5115 60.681 90.8182 60.0789 91.34 59.71 L 134.19 28.57 C 134.889 28.0661 135.831 28.0661 136.53 28.57 L 179.27 59.63 C 179.784 60.0056 180.088 60.6034 180.09 61.24 C 180.102 61.8825 179.795 62.4891 179.27 62.86 Z M 135.27 89.86 L 174.72 61.21 L 135.36 32.66 L 95.9 61.32 Z" stroke="#040000" stroke-miterlimit="10" fill="#060001"/><path d=" M 88.87 128.55 L 46.11 159.61 C 45.2107 160.251 43.9618 160.042 43.3204 159.143 C 43.2041 158.98 43.1129 158.8 43.05 158.61 L 26.73 108.35 C 26.4638 107.529 26.7541 106.63 27.45 106.12 L 70.2 75.06 C 70.7202 74.683 71.3899 74.5788 72 74.78 C 72.6026 74.9808 73.0739 75.4559 73.27 76.06 L 89.6 126.32 C 89.8641 127.143 89.5696 128.042 88.87 128.55 Z M 46 154.77 L 85.36 126.17 L 70.36 79.91 L 31 108.5 Z" stroke="#040000" stroke-miterlimit="10" fill="#060001"/><path d=" M 136.44 94 L 88.87 128.55 C 88.3522 128.924 87.6872 129.028 87.08 128.83 C 86.4736 128.632 85.9981 128.156 85.8 127.55 L 69.47 77.3 C 69.2011 76.474 69.496 75.5689 70.2 75.06 L 91.34 59.71 C 92.0386 59.2061 92.9814 59.2061 93.68 59.71 L 136.43 90.76 C 136.948 91.1334 137.256 91.7316 137.26 92.37 C 137.265 93.0136 136.96 93.6203 136.44 94 Z M 88.74 123.7 L 131.87 92.37 L 92.51 63.79 L 73.72 77.44 Z" stroke="#040000" stroke-miterlimit="10" fill="#060001"/><path d=" M 266.53 95 C 257.64 97.74 248.74 100.49 239.77 103.33 C 239.154 103.516 238.671 103.996 238.48 104.61 L 221.38 157.02 C 221.045 158.073 221.627 159.197 222.679 159.532 C 223.076 159.659 223.503 159.658 223.9 159.53 C 232.34 156.74 240.73 154.02 249.1 151.29 L 251.38 150.55 C 251.58 150.487 251.769 150.392 251.94 150.27 C 252.279 150.021 252.531 149.671 252.66 149.27 L 269.11 99.27 C 269.235 98.5648 269.166 97.8388 268.91 97.17 C 268.481 96.3188 267.776 95.6384 266.91 95.24 C 266.761 95.202 266.628 95.118 266.53 95 Z M 249.18 147.06 L 247.86 147.5 C 240.727 149.813 233.57 152.147 226.39 154.5 L 242 106.85 C 249.64 104.45 257.24 102.083 264.8 99.75 Z" stroke="#040000" stroke-miterlimit="10" fill="#060001"/></g></g></svg>