<svg version="1.1" viewBox="0 0 237.35 257.86" xmlns="http://www.w3.org/2000/svg" xmlns:xlink="http://www.w3.org/1999/xlink" overflow="hidden"><defs></defs><g id="b44ed752-9e2c-42a0-bc66-b810b048a634"><g id="f5aa0450-4797-4397-9682-83fa4d9b947e"><path d=" M 147.51 182.24 L 88.7 182.23 L 70.52 126.33 L 118.09 91.79 L 165.67 126.35 L 147.51 182.24 Z" fill="#808080"/><path d=" M 147.51 182.24 L 165.67 126.35 L 118.09 91.79 L 70.52 126.33 L 88.7 182.23 L 147.51 182.24 Z" stroke="#040000" stroke-miterlimit="10" fill="none"/><path d=" M 68.62 125.7 C 68.755 125.3 69.0099 124.951 69.35 124.7 L 116.91 90.16 C 117.611 89.6513 118.559 89.6513 119.26 90.16 L 166.84 124.72 C 167.536 125.23 167.826 126.129 167.56 126.95 L 149.39 182.87 C 149.118 183.689 148.352 184.241 147.49 184.24 L 88.69 184.24 C 87.8285 184.235 87.067 183.679 86.8 182.86 L 68.62 126.93 C 68.4908 126.53 68.4908 126.1 68.62 125.7 Z M 118.09 94.24 L 72.86 127.08 L 90.15 180.24 L 146 180.24 L 163.28 127.08 Z" stroke="#040000" stroke-miterlimit="10" fill="#211613"/><path d=" M 88.62 255.23 L 105.06 232.8 L 131.23 232.81 L 147.66 255.24 L 88.62 255.23 Z" stroke="#040000" stroke-miterlimit="10" fill="#808080" fill-rule="evenodd"/><path d=" M 86.72 254.62 C 86.7864 254.419 86.8843 254.23 87.01 254.06 L 103.45 231.63 C 103.826 231.116 104.423 230.812 105.06 230.81 L 131.23 230.81 C 131.868 230.806 132.47 231.107 132.85 231.62 L 149.27 254.06 C 149.916 254.956 149.714 256.206 148.818 256.852 C 148.481 257.095 148.076 257.228 147.66 257.23 L 89.2 257.23 C 88.1475 257.565 87.0226 256.983 86.6876 255.931 C 86.5611 255.534 86.562 255.107 86.69 254.71 C 86.7059 254.682 86.7161 254.652 86.72 254.62 Z M 106.08 234.8 L 92.56 253.24 L 143.72 253.24 L 130.22 234.81 Z" stroke="#040000" stroke-miterlimit="10" fill="#060001"/><path d=" M 131.23 232.81 L 184.3 232.8 L 200.73 255.22 L 147.66 255.24 L 131.23 232.81 Z" stroke="#040000" stroke-miterlimit="10" fill="#808080" fill-rule="evenodd"/><path d=" M 201.28 256.75 L 201.38 256.65 C 201.794 256.369 202.136 255.996 202.38 255.56 C 202.38 255.56 202.38 255.56 202.38 255.51 C 202.408 255.377 202.462 255.251 202.54 255.14 C 202.572 255.087 202.595 255.03 202.61 254.97 C 202.608 254.937 202.608 254.903 202.61 254.87 C 202.567 254.573 202.458 254.289 202.29 254.04 L 185.87 231.62 C 185.486 231.111 184.888 230.808 184.25 230.8 L 131.23 230.8 C 130.479 230.8 129.792 231.221 129.45 231.89 C 129.45 231.99 129.37 232.08 129.33 232.18 C 129.132 232.792 129.24 233.462 129.62 233.98 L 146 256.42 C 146.38 256.933 146.982 257.234 147.62 257.23 L 199.91 257.23 C 200.381 257.115 200.84 256.954 201.28 256.75 Z M 148.67 253.24 L 135.17 234.8 L 183.29 234.8 L 196.79 253.23 Z" stroke="#040000" stroke-miterlimit="10" fill="#060001"/><path d=" M 70.52 126.32 L 29.56 156.08 L 38.08 182.25 L 88.69 182.23 L 70.52 126.32 Z" stroke="#040000" stroke-miterlimit="10" fill="#1B1B1B" fill-rule="evenodd"/><path d=" M 38.08 182.25 L 54.45 232.63 L 105.06 232.62 L 88.69 182.23 L 38.08 182.25 Z" stroke="#040000" stroke-miterlimit="10" fill="#1B1B1B" fill-rule="evenodd"/><path d=" M 36.18 181.63 C 36.2483 181.43 36.3461 181.241 36.47 181.07 C 36.8456 180.556 37.4434 180.252 38.08 180.25 L 88.69 180.25 C 89.5552 180.251 90.3218 180.807 90.59 181.63 L 107 232 C 107.198 232.607 107.094 233.272 106.72 233.79 C 106.344 234.304 105.747 234.608 105.11 234.61 L 54.45 234.61 C 53.5849 234.609 52.8182 234.053 52.55 233.23 L 36.19 182.86 C 36.0615 182.461 36.058 182.031 36.18 181.63 Z M 87.24 184.23 L 40.83 184.23 L 55.9 230.63 L 102.31 230.63 Z" stroke="#040000" stroke-miterlimit="10" fill="#060001"/><path d=" M 29.56 156.08 L 70.52 126.32 L 54.16 75.98 L 13.22 105.74 L 29.56 156.08 Z" stroke="#040000" stroke-miterlimit="10" fill="#808080" fill-rule="evenodd"/><path d=" M 11.32 105.13 C 11.4455 104.725 11.7024 104.373 12.05 104.13 L 53 74.37 C 53.8961 73.7242 55.1461 73.9271 55.7919 74.8232 C 55.9122 74.9901 56.006 75.1745 56.07 75.37 L 72.43 125.71 C 72.6893 126.53 72.3953 127.424 71.7 127.93 L 30.74 157.69 C 30.2396 158.058 29.5967 158.172 29 158 C 28.3913 157.8 27.9154 157.32 27.72 156.71 L 11.32 106.36 C 11.1851 105.961 11.1851 105.529 11.32 105.13 Z M 53.11 79.22 L 15.56 106.5 L 30.61 152.84 L 68.18 125.56 Z" stroke="#040000" stroke-miterlimit="10" fill="#060001"/><path d=" M 118.09 91.78 L 75.26 60.65 L 54.16 75.98 L 70.52 126.32 L 118.09 91.78 Z" stroke="#040000" stroke-miterlimit="10" fill="#808080" fill-rule="evenodd"/><path d=" M 88.69 182.23 L 105.06 232.62 L 131.13 232.61 L 147.49 182.25 L 88.69 182.23 Z" stroke="#040000" stroke-miterlimit="10" fill="#1B1B1B" fill-rule="evenodd"/><path d=" M 165.66 126.33 L 181.99 76.07 L 160.84 60.71 L 118.09 91.78 L 165.66 126.33 Z" stroke="#040000" stroke-miterlimit="10" fill="#1B1B1B" fill-rule="evenodd"/><path d=" M 160.84 60.71 L 118.02 29.59 L 75.26 60.65 L 118.09 91.78 L 160.84 60.71 Z" stroke="#040000" stroke-miterlimit="10" fill="#1B1B1B" fill-rule="evenodd"/><path d=" M 131.13 232.61 L 183.97 232.61 L 200.33 182.24 L 147.49 182.25 L 131.13 232.61 Z" stroke="#040000" stroke-miterlimit="10" fill="#1B1B1B" fill-rule="evenodd"/><path d=" M 208.41 157.39 L 224.74 107.14 L 181.99 76.07 L 165.66 126.33 L 208.41 157.39 Z" stroke="#040000" stroke-miterlimit="10" fill="#808080" fill-rule="evenodd"/><path d=" M 147.49 182.25 L 200.33 182.24 L 208.41 157.39 L 165.66 126.33 L 147.49 182.25 Z" stroke="#040000" stroke-miterlimit="10" fill="#1B1B1B" fill-rule="evenodd"/><path d=" M 21 204.58 C 26.64 196.82 32.3067 189.013 38 181.16 C 35.2333 172.593 32.4667 164.037 29.7 155.49 C 20.5667 152.67 11.5 149.88 2.5 147.12 C 5.56 156.68 8.63 166.237 11.71 175.79 C 14.79 185.343 17.8867 194.94 21 204.58 Z" stroke="#040000" stroke-miterlimit="10" fill="#808080" fill-rule="evenodd"/><path d=" M 0.6 146.5 C 0.696114 146.203 0.860505 145.932 1.08 145.71 C 1.6028 145.186 2.37217 144.994 3.08 145.21 L 30.2 153.59 C 30.8163 153.785 31.3006 154.265 31.5 154.88 L 39.81 180.54 C 39.9934 181.145 39.8902 181.801 39.53 182.32 C 34.3433 189.54 29.1667 196.703 24 203.81 L 22.59 205.75 C 21.9403 206.643 20.6894 206.841 19.7962 206.191 C 19.4544 205.942 19.2002 205.592 19.07 205.19 L 9.81 176.4 C 6.73 166.847 3.65667 157.29 0.59 147.73 C 0.464041 147.329 0.46754 146.899 0.6 146.5 Z M 28 157.09 L 5.56 150.16 C 8.22667 158.493 10.91 166.827 13.61 175.16 L 21.61 200.16 C 26.2767 193.727 30.96 187.257 35.66 180.75 Z" stroke="#040000" stroke-miterlimit="10" fill="#060001"/><path d=" M 37.68 256.67 C 43.4067 249.037 49.14 241.347 54.88 233.6 C 49.2067 216.08 43.54 198.6 37.88 181.16 C 32.24 189.053 26.6133 196.86 21 204.58 C 26.5267 221.9 32.0867 239.263 37.68 256.67 Z" stroke="#040000" stroke-miterlimit="10" fill="#808080" fill-rule="evenodd"/><path d=" M 161.08 33.35 C 161.167 42.5633 161.273 51.8 161.4 61.06 C 168.54 66.26 175.69 71.4567 182.85 76.65 C 191.68 73.88 200.47 71.08 209.31 68.31 C 201.223 62.47 193.17 56.6367 185.15 50.81 C 177.13 44.9833 169.107 39.1633 161.08 33.35 Z" stroke="#040000" stroke-miterlimit="10" fill="#808080" fill-rule="evenodd"/><path d=" M 159.18 32.73 C 159.348 32.2297 159.708 31.8163 160.18 31.58 C 160.851 31.2348 161.659 31.2966 162.27 31.74 C 170.27 37.56 178.297 43.3767 186.35 49.19 L 186.75 49.48 C 194.623 55.2133 202.54 60.95 210.5 66.69 C 211.112 67.1336 211.421 67.8841 211.3 68.63 C 211.166 69.3694 210.641 69.978 209.93 70.22 L 183.47 78.56 C 182.867 78.7481 182.211 78.6406 181.7 78.27 L 160.23 62.68 C 159.724 62.3107 159.421 61.726 159.41 61.1 C 159.27 51.82 159.16 42.5767 159.08 33.37 C 159.072 33.1523 159.106 32.9351 159.18 32.73 Z M 204.92 67.6 C 198.04 62.64 191.193 57.68 184.38 52.72 L 163.11 37.3 C 163.19 44.86 163.28 52.44 163.38 60.04 L 183.21 74.45 Z" stroke="#040000" stroke-miterlimit="10" fill="#060001"/><path d=" M 117.92 2.09 C 117.92 11.24 118.02 20.41 118.08 29.61 L 161.4 61.06 C 161.273 51.8 161.167 42.5633 161.08 33.35 C 146.66 22.9233 132.273 12.5033 117.92 2.09 Z" stroke="#040000" stroke-miterlimit="10" fill="#808080" fill-rule="evenodd"/><path d=" M 162.32 62.84 C 163.004 62.4859 163.425 61.7702 163.4 61 C 163.26 51.74 163.17 42.51 163.07 33.31 C 163.068 32.6734 162.764 32.0756 162.25 31.7 L 119.29 0.61 C 118.388 0.420948 117.449 0.511652 116.6 0.87 C 116.544 0.879511 116.486 0.879511 116.43 0.87 L 116.43 0.87 L 116.31 0.87 C 116.195 1.03093 116.101 1.20563 116.03 1.39 C 115.965 1.59009 115.935 1.79973 115.94 2.01 C 115.94 9.43 115.98 16.87 116.06 24.33 L 116.06 29.55 C 116.067 30.1848 116.375 30.7786 116.89 31.15 L 160.21 62.6 C 160.809 63.0776 161.629 63.1708 162.32 62.84 Z M 120.07 28.59 L 120.07 24.38 C 120.023 18.24 119.977 12.1133 119.93 6 L 159.09 34.37 C 159.157 41.93 159.243 49.5067 159.35 57.1 Z" stroke="#040000" stroke-miterlimit="10" fill="#060001"/><path d=" M 234.85 149.39 C 226.03 152.31 217.207 155.243 208.38 158.19 L 200.21 183.33 C 205.61 190.897 211.013 198.48 216.42 206.08 L 225.64 177.7 C 228.7 168.26 231.77 158.823 234.85 149.39 Z" stroke="#040000" stroke-miterlimit="10" fill="#808080" fill-rule="evenodd"/><path d=" M 198.31 182.71 L 206.48 157.57 C 206.67 156.964 207.144 156.49 207.75 156.3 C 216.583 153.34 225.407 150.403 234.22 147.49 C 234.924 147.269 235.693 147.453 236.22 147.97 C 236.74 148.495 236.929 149.264 236.71 149.97 L 218.27 206.67 C 218.038 207.387 217.424 207.912 216.68 208.03 C 215.931 208.141 215.185 207.819 214.75 207.2 L 198.55 184.46 C 198.203 183.946 198.114 183.299 198.31 182.71 Z M 209.97 159.71 L 202.42 183 L 215.74 201.71 L 231.74 152.53 Z" stroke="#040000" stroke-miterlimit="10" fill="#040000"/><path d=" M 27.67 155.46 C 27.7901 155.055 28.0439 154.702 28.39 154.46 L 69.39 124.7 C 70.2861 124.054 71.5361 124.257 72.1819 125.153 C 72.3022 125.32 72.396 125.505 72.46 125.7 L 90.63 181.61 C 90.8474 182.215 90.7419 182.89 90.35 183.4 C 89.9723 183.917 89.3701 184.222 88.73 184.22 L 38.08 184.22 C 37.2175 184.221 36.4517 183.669 36.18 182.85 L 27.66 156.7 C 27.5319 156.296 27.5354 155.862 27.67 155.46 Z M 69.47 129.55 L 31.92 156.84 L 39.54 180.25 L 85.95 180.25 Z" stroke="#040000" stroke-miterlimit="10" fill="#060001"/><path d=" M 52.26 75.37 C 52.3914 74.9678 52.647 74.6177 52.99 74.37 L 74.09 59 C 74.7886 58.4961 75.7314 58.4961 76.43 59 L 119.26 90.12 C 119.777 90.4977 120.082 91.0999 120.08 91.74 C 120.096 92.3806 119.787 92.986 119.26 93.35 L 71.69 127.93 C 71.174 128.307 70.5087 128.415 69.9 128.22 C 69.2913 128.02 68.8154 127.54 68.62 126.93 L 52.26 76.6 C 52.1308 76.2002 52.1308 75.7698 52.26 75.37 Z M 75.26 63.12 L 56.5 76.74 L 71.57 123.09 L 114.69 91.78 Z" stroke="#040000" stroke-miterlimit="10" fill="#060001"/><path d=" M 86.8 181.62 C 86.8585 181.418 86.9534 181.228 87.08 181.06 C 87.4556 180.546 88.0534 180.242 88.69 180.24 L 147.49 180.24 C 148.595 180.243 149.488 181.14 149.485 182.245 C 149.485 182.45 149.453 182.654 149.39 182.85 L 133 233.23 C 132.728 234.049 131.962 234.601 131.1 234.6 L 105.06 234.6 C 104.195 234.599 103.428 234.043 103.16 233.22 L 86.8 182.85 C 86.6708 182.45 86.6708 182.02 86.8 181.62 Z M 144.8 184.24 L 91.44 184.24 L 106.51 230.63 L 129.68 230.63 Z" stroke="#040000" stroke-miterlimit="10" fill="#060001"/><path d=" M 116.19 91.16 C 116.319 90.7592 116.571 90.4093 116.91 90.16 L 159.67 59.1 C 160.371 58.5913 161.319 58.5913 162.02 59.1 L 183.17 74.46 C 183.866 74.9702 184.156 75.8692 183.89 76.69 L 167.56 127 C 167.216 128.05 166.087 128.622 165.037 128.278 C 164.841 128.214 164.657 128.12 164.49 128 L 116.91 93.39 C 116.396 93.0144 116.092 92.4166 116.09 91.78 C 116.087 91.5691 116.121 91.3594 116.19 91.16 Z M 160.85 63.16 L 121.48 91.77 L 164.61 123.1 L 179.61 76.83 Z" stroke="#040000" stroke-miterlimit="10" fill="#060001"/><path d=" M 73.36 60 C 73.4984 59.6015 73.7526 59.2533 74.09 59 L 116.85 28 C 117.549 27.4961 118.491 27.4961 119.19 28 L 162 59.1 C 162.514 59.4756 162.818 60.0734 162.82 60.71 C 162.832 61.3498 162.525 61.9535 162 62.32 L 119.26 93.39 C 118.559 93.8987 117.611 93.8987 116.91 93.39 L 74.09 62.26 C 73.576 61.8844 73.2715 61.2866 73.27 60.65 C 73.2667 60.43 73.2971 60.2108 73.36 60 Z M 118.02 32 L 78.66 60.65 L 118.08 89.31 L 157.45 60.72 Z" stroke="#040000" stroke-miterlimit="10" fill="#060001"/><path d=" M 129.23 232 L 145.6 181.64 C 145.871 180.825 146.631 180.274 147.49 180.27 L 200.33 180.27 C 201.435 180.273 202.328 181.17 202.325 182.275 C 202.325 182.48 202.293 182.684 202.23 182.88 L 185.87 233.25 C 185.602 234.073 184.835 234.629 183.97 234.63 L 131.13 234.63 C 130.491 234.639 129.889 234.332 129.52 233.81 C 129.136 233.289 129.028 232.615 129.23 232 Z M 148.94 184.26 L 133.88 230.63 L 182.52 230.63 L 197.59 184.25 Z" stroke="#040000" stroke-miterlimit="10" fill="#060001"/><path d=" M 163.77 125.71 L 180.1 75.45 C 180.298 74.8436 180.774 74.3681 181.38 74.17 C 181.989 73.9751 182.654 74.0829 183.17 74.46 L 225.91 105.52 C 226.61 106.028 226.904 106.927 226.64 107.75 L 210.31 158 C 210.11 158.609 209.63 159.085 209.02 159.28 C 208.414 159.472 207.754 159.364 207.24 158.99 L 164.49 127.93 C 163.798 127.421 163.509 126.528 163.77 125.71 Z M 183 79.3 L 168 125.57 L 207.35 154.16 L 222.35 107.9 Z" stroke="#040000" stroke-miterlimit="10" fill="#060001"/><path d=" M 145.6 181.63 L 163.77 125.71 C 164.114 124.66 165.243 124.088 166.293 124.432 C 166.489 124.496 166.673 124.59 166.84 124.71 L 209.58 155.77 C 210.28 156.278 210.574 157.177 210.31 158 L 202.23 182.85 C 201.958 183.669 201.192 184.221 200.33 184.22 L 147.49 184.22 C 146.385 184.212 145.497 183.31 145.505 182.205 C 145.506 182.003 145.538 181.803 145.6 181.61 Z M 166.71 129.56 L 150.24 180.26 L 198.88 180.26 L 206.06 158.16 Z" stroke="#040000" stroke-miterlimit="10" fill="#060001"/><path d=" M 39.74 257.25 C 45.31 249.82 50.9 242.36 56.49 234.79 C 56.8704 234.272 56.9783 233.602 56.78 232.99 L 39.78 180.54 C 39.4357 179.49 38.3058 178.919 37.2563 179.263 C 36.8559 179.394 36.5072 179.649 36.26 179.99 C 31.08 187.21 25.9 194.37 20.72 201.47 L 19.31 203.41 C 19.1843 203.58 19.0864 203.769 19.02 203.97 C 18.8999 204.368 18.8999 204.792 19.02 205.19 L 35.12 255.34 C 35.4368 255.983 35.9203 256.528 36.52 256.92 C 37.3719 257.351 38.3434 257.485 39.28 257.3 C 39.4249 257.238 39.5851 257.22 39.74 257.25 Z M 23.17 204.94 L 23.98 203.81 C 28.3867 197.75 32.8033 191.657 37.23 185.53 L 52.67 233.25 C 47.91 239.68 43.15 246.04 38.4 252.39 Z" stroke="#040000" stroke-miterlimit="10" fill="#060001"/></g></g></svg>