<svg version="1.1" viewBox="0 0 202 117.47" xmlns="http://www.w3.org/2000/svg" xmlns:xlink="http://www.w3.org/1999/xlink" overflow="hidden"><defs></defs><g id="b99023fb-ea75-4d4f-bc8a-4d22e9be249c"><g id="e29e1eb3-8a9d-44fb-971a-7e90d0413edc"><path d=" M 201 29.87 L 201 58.74 L 176 73.17 L 201 29.87 Z" fill="#0000F2"/><path d=" M 201 1 L 201 29.87 L 176 15.44 L 201 1 Z" fill="#0000F2"/><rect x="151" y="29.87" width="50" height="28.87" fill="#404040" transform="matrix(0.5,-0.87,0.87,0.5,49.63,174.57)"/><path d=" M 176 15.44 L 151 58.74 L 151 29.87 L 176 15.44 Z" fill="#0000F2"/><path d=" M 176 73.17 L 151 87.61 L 151 58.74 L 176 73.17 Z" fill="#0000F2"/><path d=" M 151 58.74 L 151 87.61 L 126 102.04 L 151 58.74 Z" fill="#FFA100"/><path d=" M 151 29.87 L 151 58.74 L 126 44.3 L 151 29.87 Z" fill="#FFA100"/><path d=" M 151 58.74 L 126 102.04 L 101 87.61 L 126 44.3 L 151 58.74 Z" fill="#404040"/><path d=" M 151 29.87 L 126 44.3 L 126 15.44 L 151 29.87 Z" fill="#FEFE00"/><rect x="76" y="15.44" width="50" height="28.86" fill="#404040"/><path d=" M 126 44.3 L 101 87.61 L 101 58.74 L 126 44.3 Z" fill="#FFA100"/><path d=" M 126 15.44 L 76 15.44 L 101 1 L 126 15.44 Z" fill="#FEFE00"/><path d=" M 126 44.3 L 101 58.74 L 76 44.3 L 126 44.3 Z" fill="#FEFE00"/><path d=" M 126 102.04 L 101 116.47 L 101 87.61 L 126 102.04 Z" fill="#FFA100"/><path d=" M 101 87.61 L 101 116.47 L 76 102.04 L 101 87.61 Z" fill="#00D800"/><path d=" M 101 58.74 L 101 87.61 L 76 44.3 L 101 58.74 Z" fill="#00D800"/><path d=" M 76 15.44 L 76 44.3 L 51 29.87 L 76 15.44 Z" fill="#FEFE00"/><path d=" M 51.21 59.1 L 76 102.04 L 51 87.61 L 51 73.7 L 51.21 59.1 Z" fill="#00D800"/><path d=" M 76 44.3 L 51 58.74 L 51 29.87 L 76 44.3 Z" fill="#00D800"/><path d=" M 51.21 58.92 L 51.21 59.1 L 51.13 58.97 L 51.13 58.96 L 51.21 58.92 Z" fill="#404040"/><path d=" M 51.21 59.1 L 51 73.7 L 51 59.04 L 51.13 58.97 L 51.21 59.1 Z" fill="#00D800"/><path d=" M 51.21 58.92 L 51.13 58.96 L 51 58.74 L 76 44.3 L 101 87.61 L 76 102.04 L 51.21 59.1 L 51.21 58.92 Z" fill="#404040"/><path d=" M 51.13 58.96 L 51.13 58.97 L 51 59.04 L 51 58.74 L 51.13 58.96 Z" fill="#00D800"/><path d=" M 51 59.04 L 51 73.7 L 50.8 87.78 L 26.16 73.08 L 35.24 67.83 L 51 59.04 Z" fill="#EE0000"/><path d=" M 51 29.87 L 51 58.74 L 26 15.44 L 51 29.87 Z" fill="#EE0000"/><path d=" M 26.01 72.99 L 35.24 67.83 L 26.16 73.08 L 26.01 72.99 Z" fill="#404040"/><path d=" M 26.01 72.99 L 26.16 73.08 L 26 73.17 L 1 29.87 L 26 15.44 L 51 58.74 L 35.24 67.83 L 26.01 72.99 Z" fill="#404040"/><path d=" M 1 29.87 L 26 73.17 L 1 58.74 L 1 29.87 Z" fill="#EE0000"/><path d=" M 26 15.44 L 1 29.87 L 1 1 L 26 15.44 Z" fill="#EE0000"/><path d=" M 126 15.44 L 101 1 L 76 15.44" stroke="#000000" stroke-width="2" stroke-linejoin="round" fill="none"/><line x1="151" y1="29.87" x2="126" y2="15.44" stroke="#000000" stroke-width="2" stroke-linejoin="round" fill="none"/><line x1="76" y1="15.44" x2="51" y2="29.87" stroke="#000000" stroke-width="2" stroke-linejoin="round" fill="none"/><rect x="76" y="15.44" width="50" height="28.86" stroke="#000000" stroke-width="2" stroke-linejoin="round" fill="none"/><line x1="126" y1="44.3" x2="101" y2="58.74" stroke="#000000" stroke-width="2" stroke-linejoin="round" fill="none"/><line x1="151" y1="29.87" x2="126" y2="44.3" stroke="#000000" stroke-width="2" stroke-linejoin="round" fill="none"/><line x1="101" y1="116.47" x2="126" y2="102.04" stroke="#000000" stroke-width="2" stroke-linejoin="round" fill="none"/><line x1="126" y1="102.04" x2="151" y2="87.61" stroke="#000000" stroke-width="2" stroke-linejoin="round" fill="none"/><path d=" M 126 44.3 L 101 87.61 L 126 102.04 L 151 58.74 L 126 44.3 Z" stroke="#000000" stroke-width="2" stroke-linejoin="round" fill="none"/><line x1="76" y1="44.3" x2="51" y2="29.87" stroke="#000000" stroke-width="2" stroke-linejoin="round" fill="none"/><path d=" M 101 87.61 L 101 58.74 L 76 44.3" stroke="#000000" stroke-width="2" stroke-linejoin="round" fill="none"/><line x1="51" y1="58.74" x2="51" y2="59.04" stroke="#000000" stroke-width="2" stroke-linejoin="round" fill="none"/><path d=" M 51 73.7 L 51 87.61 L 76 102.04" stroke="#000000" stroke-width="2" stroke-linejoin="round" fill="none"/><path d=" M 76 102.04 L 101 116.47 L 101 87.61" stroke="#000000" stroke-width="2" stroke-linejoin="round" fill="none"/><path d=" M 51.21 59.1 L 76 102.04 L 101 87.61 L 76 44.3 L 51 58.74 L 51.13 58.96" stroke="#000000" stroke-width="2" stroke-linejoin="round" fill="none"/><path d=" M 26 15.44 L 1 1 L 1 29.87" stroke="#000000" stroke-width="2" stroke-linejoin="round" fill="none"/><path d=" M 51 58.74 L 51 29.87 L 26 15.44" stroke="#000000" stroke-width="2" stroke-linejoin="round" fill="none"/><path d=" M 1 29.87 L 1 58.74 L 26 73.17" stroke="#000000" stroke-width="2" stroke-linejoin="round" fill="none"/><path d=" M 51.13 58.97 L 51 59.04 L 35.24 67.83 L 26.01 72.99 L 26.16 73.08 L 50.8 87.78 L 51 73.7 L 51.21 59.1 L 51.21 58.92 L 51.13 58.96" stroke="#000000" stroke-width="2" stroke-linejoin="round" fill="none"/><path d=" M 35.24 67.83 L 51 58.74 L 26 15.44 L 1 29.87 L 26 73.17 L 26.16 73.08" stroke="#000000" stroke-width="2" stroke-linejoin="round" fill="none"/><path d=" M 176 15.44 L 151 29.87 L 151 58.74" stroke="#000000" stroke-width="2" stroke-linejoin="round" fill="none"/><path d=" M 201 29.87 L 201 1 L 176 15.44" stroke="#000000" stroke-width="2" stroke-linejoin="round" fill="none"/><path d=" M 151 58.74 L 151 87.61 L 176 73.17" stroke="#000000" stroke-width="2" stroke-linejoin="round" fill="none"/><path d=" M 176 73.17 L 201 58.74 L 201 29.87" stroke="#000000" stroke-width="2" stroke-linejoin="round" fill="none"/><rect x="151" y="29.87" width="50" height="28.87" stroke="#000000" stroke-width="2" stroke-linejoin="round" fill="none" transform="matrix(0.5,-0.87,0.87,0.5,49.63,174.57)"/></g></g></svg>