<svg version="1.1" viewBox="0 0 405 200" xmlns="http://www.w3.org/2000/svg" xmlns:xlink="http://www.w3.org/1999/xlink" overflow="hidden"><g stroke-linejoin="round"><path d=" M 100 100 L 81.0531 170.711 L 29.2893 170.711 L 29.2893 118.947 Z" stroke="#000000" stroke-width="4" fill="#D3D3D3"/><path d=" M 100 100 L 29.2893 118.947 L 29.2893 81.0531 Z" stroke="#000000" stroke-width="4" fill="#D3D3D3"/><path d=" M 100 100 L 29.2893 81.0531 L 48.2362 48.2362 Z" stroke="#000000" stroke-width="4" fill="#D3D3D3"/><path d=" M 100 100 L 48.2362 48.2362 L 81.0531 29.2893 Z" stroke="#000000" stroke-width="4" fill="#D3D3D3"/><path d=" M 100 100 L 81.0531 29.2893 L 118.947 29.2893 Z" stroke="#000000" stroke-width="4" fill="#D3D3D3"/><path d=" M 100 100 L 118.947 29.2893 L 151.764 48.2362 Z" stroke="#000000" stroke-width="4" fill="#D3D3D3"/><path d=" M 100 100 L 151.764 48.2362 L 196.593 74.1181 L 170.711 118.947 Z" stroke="#000000" stroke-width="4" fill="#D3D3D3"/><path d=" M 100 100 L 170.711 118.947 L 151.764 151.764 Z" stroke="#000000" stroke-width="4" fill="#D3D3D3"/><path d=" M 100 100 L 151.764 151.764 L 125.882 196.593 L 81.0531 170.711 Z" stroke="#000000" stroke-width="4" fill="#D3D3D3"/><path d=" M 305 100 L 323.947 29.2893 L 279.118 3.40742 L 253.236 48.2362 Z" stroke="#000000" stroke-width="4" fill="#D3D3D3"/><path d=" M 305 100 L 253.236 48.2362 L 208.407 74.1181 L 234.289 118.947 Z" stroke="#000000" stroke-width="4" fill="#D3D3D3"/><path d=" M 305 100 L 234.289 118.947 L 234.289 170.711 L 286.053 170.711 Z" stroke="#000000" stroke-width="4" fill="#D3D3D3"/><path d=" M 305 100 L 286.053 170.711 L 323.947 170.711 Z" stroke="#000000" stroke-width="4" fill="#D3D3D3"/><path d=" M 305 100 L 323.947 170.711 L 375.711 170.711 L 375.711 118.947 Z" stroke="#000000" stroke-width="4" fill="#D3D3D3"/><path d=" M 305 100 L 375.711 118.947 L 401.593 74.1181 L 356.764 48.2362 Z" stroke="#000000" stroke-width="4" fill="#D3D3D3"/><path d=" M 305 100 L 356.764 48.2362 L 323.947 29.2893 Z" stroke="#000000" stroke-width="4" fill="#D3D3D3"/></g></svg>