<svg version="1.1" width="150" height="150" viewBox="-0.9 -0.9 1.8 1.8" xmlns="http://www.w3.org/2000/svg" xmlns:xlink="http://www.w3.org/1999/xlink" overflow="hidden"><rect x="-0.9" y="-0.9" width="1.8" height="1.8" fill="#FFFFFF"/><g stroke-width="0.1" stroke-linejoin="round" opacity="1"><path d=" M 0.297385 -0.15008 L 0.616386 -0.531972 L 0.563471 0.272546 L 0.267398 0.756371 Z" stroke="#000000" fill="#000000"/><path d=" M -0.232959 -0.658957 L 0.616386 -0.531972 L 0.297385 -0.15008 L -0.680014 -0.328917 Z" stroke="#000000" fill="#000000"/><path d=" M -0.680014 -0.328917 L 0.297385 -0.15008 L 0.267398 0.756371 L -0.616176 0.53179 Z" stroke="#000000" fill="#000000"/></g><g stroke-width="0" stroke-linejoin="round" stroke-opacity="0.5" opacity="1"><path d=" M 0.322807 -0.149431 L 0.404936 -0.247752 L 0.395794 -0.0335047 L 0.315473 0.0722495 Z" stroke="#000000" fill="#404040"/><path d=" M 0.418658 -0.264953 L 0.49352 -0.354574 L 0.482908 -0.147336 L 0.409517 -0.0507062 Z" stroke="#000000" fill="#404040"/><path d=" M 0.506066 -0.370303 L 0.574585 -0.45233 L 0.562774 -0.251703 L 0.495453 -0.163065 Z" stroke="#000000" fill="#FFFFFF"/><path d=" M 0.586099 -0.466767 L 0.649048 -0.542126 L 0.636262 -0.347738 L 0.574288 -0.26614 Z" stroke="#000000" fill="#404040"/><path d=" M 0.314061 0.109754 L 0.394382 0.00399994 L 0.385704 0.207372 L 0.307117 0.319665 Z" stroke="#000000" fill="#404040"/><path d=" M 0.407819 -0.0144055 L 0.48121 -0.111035 L 0.471114 0.0861255 L 0.399142 0.188966 Z" stroke="#000000" fill="#FEFE00"/><path d=" M 0.493523 -0.127903 L 0.560844 -0.216541 L 0.549585 -0.025275 L 0.483427 0.0692582 Z" stroke="#000000" fill="#FEFE00"/><path d=" M 0.572169 -0.232055 L 0.634142 -0.313653 L 0.62193 -0.127983 L 0.560909 -0.0407895 Z" stroke="#000000" fill="#404040"/><path d=" M 0.305776 0.355243 L 0.384363 0.242949 L 0.376115 0.436253 L 0.299191 0.554297 Z" stroke="#000000" fill="#404040"/><path d=" M 0.397527 0.223481 L 0.469499 0.120641 L 0.459882 0.308442 L 0.389279 0.416785 Z" stroke="#000000" fill="#FEFE00"/><path d=" M 0.481588 0.102762 L 0.547746 0.00822845 L 0.537 0.190773 L 0.47197 0.290563 Z" stroke="#000000" fill="#FEFE00"/><path d=" M 0.558885 -0.00824907 L 0.619907 -0.0954423 L 0.60823 0.0820833 L 0.548139 0.174295 Z" stroke="#000000" fill="#404040"/><path d=" M 0.297917 0.588093 L 0.374842 0.470049 L 0.366992 0.654014 L 0.291664 0.777111 Z" stroke="#000000" fill="#404040"/><path d=" M 0.387742 0.449644 L 0.458345 0.341301 L 0.449173 0.520394 L 0.379893 0.633609 Z" stroke="#000000" fill="#404040"/><path d=" M 0.470216 0.322523 L 0.535245 0.222732 L 0.524978 0.397139 L 0.461044 0.501616 Z" stroke="#000000" fill="#404040"/><path d=" M 0.546205 0.205394 L 0.606296 0.113182 L 0.595121 0.283087 L 0.535938 0.3798 Z" stroke="#000000" fill="#404040"/><path d=" M -0.239068 -0.692611 L -0.0565103 -0.665317 L -0.139772 -0.597334 L -0.328148 -0.626848 Z" stroke="#000000" fill="#404040"/><path d=" M -0.0232038 -0.660214 L 0.165443 -0.63201 L 0.0884511 -0.561694 L -0.106465 -0.592232 Z" stroke="#000000" fill="#404040"/><path d=" M 0.199894 -0.626732 L 0.39494 -0.59757 L 0.324705 -0.524798 L 0.122903 -0.556415 Z" stroke="#000000" fill="#404040"/><path d=" M 0.430596 -0.592107 L 0.632372 -0.56194 L 0.569423 -0.486581 L 0.360362 -0.519335 Z" stroke="#000000" fill="#404040"/><path d=" M -0.343969 -0.614544 L -0.155593 -0.585031 L -0.245829 -0.511354 L -0.440381 -0.543368 Z" stroke="#000000" fill="#EE0000"/><path d=" M -0.121184 -0.5795 L 0.0737318 -0.548962 L -0.00982576 -0.472649 L -0.21142 -0.505822 Z" stroke="#000000" fill="#404040"/><path d=" M 0.109374 -0.543232 L 0.311177 -0.511615 L 0.234842 -0.432523 L 0.0258162 -0.466919 Z" stroke="#000000" fill="#404040"/><path d=" M 0.348119 -0.505676 L 0.55718 -0.472922 L 0.488661 -0.390895 L 0.271785 -0.426584 Z" stroke="#000000" fill="#EE0000"/><path d=" M -0.457545 -0.530019 L -0.262994 -0.498004 L -0.361118 -0.417886 L -0.562232 -0.452734 Z" stroke="#000000" fill="#404040"/><path d=" M -0.227411 -0.491988 L -0.0258172 -0.458815 L -0.116818 -0.375704 L -0.325536 -0.41187 Z" stroke="#000000" fill="#404040"/><path d=" M 0.0110966 -0.452573 L 0.220123 -0.418177 L 0.136858 -0.331903 L -0.0799041 -0.369463 Z" stroke="#000000" fill="#404040"/><path d=" M 0.258444 -0.411697 L 0.475321 -0.376009 L 0.400459 -0.286388 L 0.175179 -0.325424 Z" stroke="#000000" fill="#404040"/><path d=" M -0.580918 -0.438199 L -0.379805 -0.403351 L -0.4869 -0.315908 L -0.694993 -0.353983 Z" stroke="#000000" fill="#404040"/><path d=" M -0.342972 -0.396784 L -0.134254 -0.360618 L -0.233739 -0.269759 L -0.450067 -0.309341 Z" stroke="#000000" fill="#404040"/><path d=" M -0.0959793 -0.353793 L 0.120782 -0.316233 L 0.0295979 -0.221754 L -0.195464 -0.262934 Z" stroke="#000000" fill="#404040"/><path d=" M 0.160585 -0.309136 L 0.385865 -0.2701 L 0.303736 -0.17178 L 0.0694006 -0.214657 Z" stroke="#000000" fill="#404040"/><path d=" M -0.704135 -0.327821 L -0.496042 -0.289746 L -0.485577 -0.0774562 L -0.68861 -0.118509 Z" stroke="#000000" fill="#404040"/><path d=" M -0.459076 -0.282624 L -0.242747 -0.243042 L -0.237753 -0.0277002 L -0.44861 -0.0703347 Z" stroke="#000000" fill="#404040"/><path d=" M -0.204324 -0.23564 L 0.0207383 -0.19446 L 0.0198138 0.0240118 L -0.199329 -0.020298 Z" stroke="#000000" fill="#404040"/><path d=" M 0.0607078 -0.18676 L 0.295043 -0.143883 L 0.28771 0.0777975 L 0.0597834 0.0317118 Z" stroke="#000000" fill="#404040"/><path d=" M -0.686363 -0.0822481 L -0.48333 -0.0411956 L -0.47339 0.160446 L -0.671603 0.116755 Z" stroke="#000000" fill="#404040"/><path d=" M -0.447269 -0.0335735 L -0.236411 0.00906106 L -0.231672 0.213399 L -0.437329 0.168068 Z" stroke="#000000" fill="#404040"/><path d=" M -0.198966 0.0169758 L 0.0201772 0.0612856 L 0.019301 0.26838 L -0.194226 0.221314 Z" stroke="#000000" fill="#404040"/><path d=" M 0.0590891 0.0695102 L 0.287015 0.115596 L 0.280071 0.325507 L 0.0582128 0.276604 Z" stroke="#000000" fill="#404040"/><path d=" M -0.669467 0.151236 L -0.471253 0.194926 L -0.461799 0.386701 L -0.655416 0.340673 Z" stroke="#000000" fill="#404040"/><path d=" M -0.436054 0.202991 L -0.230398 0.248322 L -0.225894 0.442479 L -0.426601 0.394766 Z" stroke="#000000" fill="#404040"/><path d=" M -0.193882 0.256689 L 0.0196457 0.303755 L 0.0188139 0.500338 L -0.189378 0.450846 Z" stroke="#000000" fill="#404040"/><path d=" M 0.0575545 0.312441 L 0.279413 0.361343 L 0.272828 0.560397 L 0.0567227 0.509024 Z" stroke="#000000" fill="#404040"/><path d=" M -0.653382 0.373502 L -0.459765 0.419529 L -0.450763 0.602144 L -0.639991 0.554047 Z" stroke="#000000" fill="#404040"/><path d=" M -0.425388 0.427986 L -0.224682 0.475699 L -0.220398 0.660416 L -0.416386 0.610601 Z" stroke="#000000" fill="#404040"/><path d=" M -0.189051 0.484464 L 0.0191415 0.533956 L 0.0183509 0.720808 L -0.184767 0.669181 Z" stroke="#000000" fill="#404040"/><path d=" M 0.0560976 0.543047 L 0.272203 0.594421 L 0.26595 0.783439 L 0.0553069 0.729899 Z" stroke="#000000" fill="#404040"/></g></svg>