<svg version="1.1" width="128" height="128" viewBox="-0.9 -0.9 1.8 1.8" xmlns="http://www.w3.org/2000/svg" xmlns:xlink="http://www.w3.org/1999/xlink" overflow="hidden"><g stroke-width="0.1" stroke-linejoin="round" opacity="1"><path d=" M 0.206844 -0.103422 L 0.654001 -0.50224 L 0.59354 0.29677 L 0.184643 0.78142 Z" stroke="#000000" fill="#000000"/><path d=" M -0.161033 -0.681501 L 0.654001 -0.50224 L 0.206844 -0.103422 L -0.699152 -0.349576 Z" stroke="#000000" fill="#000000"/><path d=" M -0.699152 -0.349576 L 0.206844 -0.103422 L 0.184643 0.78142 L -0.630493 0.484187 Z" stroke="#000000" fill="#000000"/></g><g stroke-width="0" stroke-linejoin="round" stroke-opacity="0.5" opacity="1"><path d=" M 0.229378 -0.100367 L 0.343547 -0.202194 L 0.335126 0.00907192 L 0.223919 0.117175 Z" stroke="#000000" fill="#00D800"/><path d=" M 0.362643 -0.21995 L 0.467369 -0.313354 L 0.456477 -0.108085 L 0.354222 -0.00868356 Z" stroke="#000000" fill="#404040"/><path d=" M 0.484934 -0.329688 L 0.581341 -0.415673 L 0.568383 -0.216128 L 0.474041 -0.124419 Z" stroke="#000000" fill="#404040"/><path d=" M 0.597552 -0.430749 L 0.686593 -0.510165 L 0.671907 -0.316081 L 0.584594 -0.231204 Z" stroke="#000000" fill="#404040"/><path d=" M 0.222735 0.153998 L 0.333942 0.045894 L 0.325979 0.245668 L 0.217587 0.359204 Z" stroke="#000000" fill="#404040"/><path d=" M 0.352568 0.027123 L 0.454823 -0.0722784 L 0.4445 0.122263 L 0.344605 0.226897 Z" stroke="#000000" fill="#404040"/><path d=" M 0.471995 -0.0895851 L 0.566336 -0.181294 L 0.55403 0.00821511 L 0.461672 0.104956 Z" stroke="#000000" fill="#404040"/><path d=" M 0.582218 -0.197302 L 0.669531 -0.282179 L 0.655556 -0.0975008 L 0.569911 -0.00779234 Z" stroke="#000000" fill="#404040"/><path d=" M 0.216467 0.394004 L 0.324859 0.280469 L 0.317317 0.469664 L 0.211602 0.587893 Z" stroke="#000000" fill="#404040"/><path d=" M 0.343038 0.260816 L 0.442933 0.156181 L 0.433135 0.340814 L 0.335497 0.450011 Z" stroke="#000000" fill="#404040"/><path d=" M 0.459728 0.138023 L 0.552087 0.0412816 L 0.540385 0.221494 L 0.449931 0.322656 Z" stroke="#000000" fill="#404040"/><path d=" M 0.567651 0.0244532 L 0.653296 -0.0652553 L 0.639982 0.110684 L 0.555949 0.204666 Z" stroke="#000000" fill="#404040"/><path d=" M 0.210542 0.620834 L 0.316257 0.502604 L 0.309105 0.682039 L 0.205938 0.804319 Z" stroke="#000000" fill="#404040"/><path d=" M 0.33401 0.482187 L 0.431648 0.37299 L 0.422338 0.548453 L 0.326857 0.661622 Z" stroke="#000000" fill="#404040"/><path d=" M 0.448083 0.354087 L 0.538537 0.252925 L 0.527395 0.424508 L 0.438773 0.529549 Z" stroke="#000000" fill="#404040"/><path d=" M 0.553796 0.235373 L 0.637829 0.141392 L 0.625132 0.309199 L 0.542654 0.406957 Z" stroke="#000000" fill="#404040"/><path d=" M -0.165264 -0.715497 L 0.00755154 -0.677488 L -0.0967242 -0.607794 L -0.273637 -0.648651 Z" stroke="#000000" fill="#404040"/><path d=" M 0.0390944 -0.670371 L 0.219211 -0.630756 L 0.119489 -0.55803 L -0.0651814 -0.600677 Z" stroke="#000000" fill="#404040"/><path d=" M 0.252128 -0.623328 L 0.440018 -0.582003 L 0.345355 -0.506043 L 0.152406 -0.550603 Z" stroke="#000000" fill="#404040"/><path d=" M 0.474402 -0.574245 L 0.670579 -0.531097 L 0.581538 -0.451681 L 0.37974 -0.498284 Z" stroke="#000000" fill="#404040"/><path d=" M -0.29311 -0.636128 L -0.116198 -0.595272 L -0.228522 -0.520199 L -0.409665 -0.564234 Z" stroke="#000000" fill="#404040"/><path d=" M -0.0838759 -0.587605 L 0.100794 -0.544957 L -0.00680075 -0.466489 L -0.196201 -0.512532 Z" stroke="#000000" fill="#404040"/><path d=" M 0.13458 -0.536942 L 0.327529 -0.492382 L 0.225219 -0.410285 L 0.0269849 -0.458474 Z" stroke="#000000" fill="#404040"/><path d=" M 0.362881 -0.483995 L 0.564679 -0.437392 L 0.468271 -0.351407 L 0.26057 -0.401898 Z" stroke="#000000" fill="#404040"/><path d=" M -0.430656 -0.550735 L -0.249513 -0.5067 L -0.370856 -0.425599 L -0.556358 -0.473199 Z" stroke="#000000" fill="#404040"/><path d=" M -0.216385 -0.498415 L -0.0269857 -0.452373 L -0.143424 -0.367456 L -0.337728 -0.417315 Z" stroke="#000000" fill="#404040"/><path d=" M 0.00770386 -0.443697 L 0.205938 -0.395507 L 0.0950142 -0.306498 L -0.108734 -0.35878 Z" stroke="#000000" fill="#404040"/><path d=" M 0.242303 -0.386412 L 0.450004 -0.335921 L 0.345278 -0.242517 L 0.131379 -0.297403 Z" stroke="#000000" fill="#404040"/><path d=" M -0.579051 -0.458603 L -0.39355 -0.411003 L -0.525042 -0.323119 L -0.715019 -0.374735 Z" stroke="#000000" fill="#404040"/><path d=" M -0.35959 -0.402024 L -0.165285 -0.352165 L -0.291704 -0.25997 L -0.491082 -0.31414 Z" stroke="#000000" fill="#404040"/><path d=" M -0.129656 -0.342744 L 0.0740927 -0.290462 L -0.0465799 -0.19363 L -0.256075 -0.250548 Z" stroke="#000000" fill="#404040"/><path d=" M 0.111518 -0.280565 L 0.325417 -0.225678 L 0.211247 -0.123851 L -0.00915482 -0.183733 Z" stroke="#000000" fill="#FEFE00"/><path d=" M -0.725957 -0.349084 L -0.535981 -0.297468 L -0.523985 -0.0906188 L -0.709202 -0.145614 Z" stroke="#000000" fill="#404040"/><path d=" M -0.502089 -0.287828 L -0.302711 -0.233658 L -0.295965 -0.0233374 L -0.490093 -0.0809785 Z" stroke="#000000" fill="#404040"/><path d=" M -0.267146 -0.223541 L -0.0576507 -0.166623 L -0.0567011 0.0472618 L -0.2604 -0.013221 Z" stroke="#000000" fill="#404040"/><path d=" M -0.020284 -0.155994 L 0.200118 -0.0961122 L 0.19466 0.12143 L -0.0193344 0.0578905 Z" stroke="#000000" fill="#EE0000"/><path d=" M -0.706721 -0.110373 L -0.521504 -0.0553782 L -0.510142 0.140546 L -0.690831 0.0825896 Z" stroke="#000000" fill="#404040"/><path d=" M -0.488472 -0.0451726 L -0.294344 0.0124686 L -0.287962 0.21142 L -0.47711 0.150751 Z" stroke="#000000" fill="#404040"/><path d=" M -0.259725 0.0231643 L -0.0560267 0.0836471 L -0.0551297 0.285693 L -0.253344 0.222116 Z" stroke="#000000" fill="#404040"/><path d=" M -0.0197049 0.0948691 L 0.194289 0.158409 L 0.189141 0.363615 L -0.0188079 0.296915 Z" stroke="#000000" fill="#404040"/><path d=" M -0.688478 0.116014 L -0.507789 0.17397 L -0.497011 0.359811 L -0.673388 0.299263 Z" stroke="#000000" fill="#404040"/><path d=" M -0.475574 0.184669 L -0.286426 0.245338 L -0.280381 0.433819 L -0.464796 0.370511 Z" stroke="#000000" fill="#404040"/><path d=" M -0.252706 0.256538 L -0.0544918 0.320115 L -0.0536431 0.51128 L -0.24666 0.445019 Z" stroke="#000000" fill="#404040"/><path d=" M -0.019158 0.331851 L 0.188791 0.39855 L 0.183926 0.59244 L -0.0183093 0.523015 Z" stroke="#000000" fill="#404040"/><path d=" M -0.671153 0.331008 L -0.494777 0.391556 L -0.48454 0.568074 L -0.656804 0.50526 Z" stroke="#000000" fill="#404040"/><path d=" M -0.463339 0.402687 L -0.278924 0.465995 L -0.273188 0.64481 L -0.453103 0.579205 Z" stroke="#000000" fill="#404040"/><path d=" M -0.246056 0.477632 L -0.0530387 0.543893 L -0.0522345 0.725031 L -0.240321 0.656447 Z" stroke="#000000" fill="#404040"/><path d=" M -0.0186406 0.556072 L 0.183595 0.625498 L 0.178991 0.808982 L -0.0178364 0.737211 Z" stroke="#000000" fill="#404040"/></g></svg>