<svg xmlns="http://www.w3.org/2000/svg" viewBox="0 0 200 100" preserveAspectRatio="xMidYMid meet"><path d="M117.4,76.1L116.8,75.5L116.6,74.3L117.4,75.4L117.4,76.1Z M117.1,72.7L115.7,72.9L116.2,72.3L117.0,72.4L117.1,72.7Z M118.0,72.7L117.8,73.5L117.6,72.8L117.1,72.3L118.0,72.7Z M103.4,83.3L104.2,82.4L104.7,82.9L104.6,83.6L104.4,84.8L103.7,85.6L103.4,84.2L103.4,83.3Z M134.1,48.7L135.0,48.8L136.1,48.8L135.5,49.3L133.5,48.8L133.7,48.1L134.1,48.7Z M136.3,45.6L134.2,45.2L133.1,44.7L135.1,44.9L136.3,45.4L136.3,45.6Z M62.1,46.3L61.4,46.5L59.5,45.9L58.0,45.1L56.6,44.5L56.1,43.9L57.5,43.8L58.2,44.0L59.3,44.1L60.4,45.1L61.6,45.6L62.1,46.3Z M143.2,43.7L142.4,44.7L143.2,44.3L144.0,44.6L144.6,45.3L145.2,45.0L146.4,45.4L146.0,46.3L146.8,46.1L147.0,46.7L147.4,47.5L146.9,48.5L145.5,48.3L145.8,47.4L144.0,48.3L143.3,48.2L144.2,47.6L143.0,47.4L141.7,47.4L139.4,47.4L140.0,46.6L139.4,46.3L140.4,45.6L141.7,43.6L142.4,43.0L143.5,42.5L143.2,43.7Z M50.4,39.5L52.1,39.5L51.8,40.9L52.8,41.9L51.6,41.3L51.2,40.8L50.6,40.4L50.4,39.5Z M115.3,29.9L114.8,30.5L114.0,30.0L114.5,29.6L115.3,29.9Z M112.1,29.2L110.7,29.9L109.9,29.8L110.5,29.0L112.2,29.0L112.1,29.2Z M108.2,25.7L109.1,26.0L109.8,26.3L111.1,26.7L112.5,27.1L113.4,27.6L114.3,28.0L113.2,28.4L111.4,28.1L110.7,27.5L109.5,28.2L107.8,28.8L107.4,28.1L105.7,28.2L106.8,27.6L106.9,26.7L107.3,25.6L108.2,25.7Z M119.4,23.9L118.1,23.9L117.8,23.3L118.3,22.7L119.4,22.5L120.3,22.8L120.2,23.5L119.4,23.9Z M95.6,21.5L94.8,21.9L93.2,21.6L92.2,21.7L90.6,21.1L91.7,20.8L92.5,20.3L93.8,20.6L94.5,20.8L95.6,21.5Z M128.6,47.7L127.8,47.9L126.5,48.5L126.1,49.4L125.7,50.0L124.8,50.2L122.4,50.5L120.6,50.5L118.8,51.6L118.3,52.2L117.2,52.2L116.0,52.2L115.7,53.0L114.1,53.7L112.9,53.9L111.5,54.5L110.8,54.3L110.9,53.6L111.5,53.0L111.9,52.2L111.6,51.2L111.4,50.1L110.1,49.5L109.5,49.0L108.9,48.8L108.6,48.2L107.6,47.9L106.7,47.4L105.5,47.0L104.3,46.5L103.3,46.9L101.4,46.6L100.4,46.7L99.3,46.4L98.0,46.2L97.2,46.1L96.6,45.2L96.2,45.7L93.7,45.7L89.6,45.7L85.5,45.7L81.9,45.7L78.3,45.7L74.7,45.7L71.0,45.7L69.9,45.7L66.3,45.7L62.9,45.7L60.4,44.5L59.5,44.0L57.3,43.5L56.7,42.4L56.8,41.7L55.3,41.2L55.1,40.2L53.6,39.3L53.6,38.7L54.3,38.1L54.2,37.4L52.2,36.6L51.0,35.2L50.2,34.4L49.1,33.8L48.3,33.3L47.6,32.7L46.4,33.1L45.3,33.8L44.2,33.0L43.4,32.5L42.2,32.1L41.0,32.1L41.0,25.2L41.0,20.8L43.3,21.1L45.2,21.6L46.4,21.8L47.5,21.3L48.9,20.9L50.7,21.0L52.5,20.5L54.5,20.2L55.3,20.7L56.2,20.4L56.5,19.8L57.3,20.0L59.3,21.1L61.0,20.2L61.1,21.1L62.6,21.0L64.5,20.7L66.3,21.2L69.2,21.6L70.8,21.8L72.0,21.7L73.6,22.4L71.9,23.0L74.1,23.2L77.4,23.1L78.4,22.9L79.7,23.6L81.0,23.0L79.7,22.5L80.5,22.0L82.0,22.0L83.0,21.9L83.9,22.2L85.1,22.8L86.5,22.7L88.6,23.3L90.5,23.1L92.2,23.1L92.1,22.3L93.2,22.1L95.0,22.5L95.0,23.7L95.8,22.7L96.8,22.8L97.3,21.5L96.0,20.8L94.6,20.3L94.7,19.0L96.1,18.1L97.7,18.3L98.9,18.8L100.6,20.2L99.5,20.8L101.7,21.0L101.7,22.3L103.3,21.3L104.8,22.1L104.4,23.0L105.6,23.8L106.8,22.9L107.7,21.9L107.8,20.6L109.5,20.7L111.3,20.8L112.9,21.4L112.1,22.7L112.9,23.3L112.8,23.9L110.4,24.7L108.7,24.9L107.5,24.6L107.1,25.2L106.0,26.2L105.6,26.7L104.2,27.5L102.5,27.6L101.5,28.1L101.5,28.9L100.1,29.1L98.6,30.0L97.3,31.4L96.8,32.3L96.8,33.7L98.5,33.9L99.1,35.1L99.6,36.0L101.3,35.7L103.5,36.3L104.8,36.7L105.6,37.3L107.1,37.6L108.4,38.1L110.4,38.2L111.7,38.3L111.5,39.3L111.9,40.6L112.7,41.9L114.5,43.0L115.5,42.7L116.1,41.4L115.5,39.5L114.6,38.9L116.6,38.3L117.9,37.5L118.6,36.6L118.5,35.8L117.7,34.8L116.2,33.9L117.6,32.6L117.1,31.6L116.7,29.7L117.5,29.4L119.6,29.7L120.9,29.8L121.8,29.5L123.0,29.9L124.5,30.6L127.0,31.2L126.9,32.2L127.3,33.7L128.4,33.9L129.3,34.6L131.0,33.9L132.2,32.6L133.0,32.1L133.9,33.1L135.5,34.7L136.8,36.1L136.3,36.9L137.9,37.6L139.0,38.2L140.9,38.6L141.7,38.9L142.2,40.0L143.1,40.1L143.6,40.6L143.7,41.9L142.8,42.4L142.0,42.8L140.0,43.2L138.5,44.2L136.4,44.4L133.9,44.2L132.1,44.1L130.8,44.2L129.8,45.1L128.3,45.6L126.5,47.2L125.1,48.3L126.2,48.1L128.1,46.6L130.6,45.5L132.4,45.4L133.5,46.0L132.4,46.8L132.7,48.1L133.1,49.0L134.7,49.6L136.7,49.5L137.9,48.1L138.0,49.0L138.7,49.4L137.3,50.2L134.6,50.9L133.4,51.4L132.1,52.3L131.1,52.2L131.1,51.2L133.2,50.2L131.3,50.2L129.9,50.4L129.1,49.7L129.1,48.0L128.6,47.7Z M73.3,16.7L72.7,17.2L75.4,16.9L77.1,17.5L78.4,16.9L79.5,17.3L80.5,18.4L81.1,17.9L80.2,16.7L81.3,16.5L82.5,16.7L83.9,17.2L84.6,18.4L85.0,19.2L87.0,19.8L89.2,20.4L87.1,21.0L87.8,21.5L85.2,21.7L83.2,21.4L81.8,21.5L79.5,21.9L76.5,22.1L74.3,22.2L73.7,21.6L72.0,21.3L71.0,21.4L69.5,20.5L70.3,20.3L72.1,20.1L73.8,20.2L75.4,20.0L73.1,19.7L70.5,19.8L68.8,19.8L68.2,19.3L71.0,18.9L69.1,18.9L67.0,18.6L68.0,17.6L68.8,17.2L72.1,16.4L73.3,16.7Z M84.9,16.3L83.9,17.1L82.0,16.3L84.0,16.0L84.9,16.3Z M118.8,16.7L117.7,17.0L116.4,17.0L115.0,17.1L113.4,16.4L114.0,15.9L116.8,16.0L118.8,16.7Z M106.5,16.6L107.5,17.4L108.6,16.4L111.6,15.9L113.7,17.2L113.5,17.9L115.9,17.6L117.1,17.1L119.7,17.7L121.4,18.3L123.8,18.6L125.0,19.3L127.9,19.8L129.0,20.3L130.1,21.4L127.9,22.0L130.7,22.8L132.7,23.0L134.4,24.1L136.3,24.2L135.9,25.0L133.8,26.4L132.3,25.9L130.4,24.8L128.9,24.9L128.7,25.6L130.0,26.3L131.6,26.9L132.9,28.4L132.5,29.2L131.0,28.9L127.9,28.0L129.6,29.0L130.9,29.7L127.8,29.7L125.2,29.0L123.8,28.4L122.4,27.4L120.6,26.8L117.2,27.4L116.2,27.0L117.0,26.1L119.2,26.1L121.7,25.9L121.7,24.9L123.3,23.7L122.9,23.2L122.5,22.8L120.6,22.2L118.2,21.8L119.0,21.5L117.7,20.7L116.6,20.6L115.7,20.2L115.0,20.6L112.9,20.7L108.5,20.5L105.9,20.1L104.0,19.9L103.0,19.5L104.2,19.0L102.5,19.0L102.1,17.7L103.1,16.7L104.3,16.2L107.4,15.8L106.5,16.6Z M89.9,15.8L91.4,16.1L93.5,15.9L92.7,16.8L94.5,17.3L94.3,18.4L92.3,18.9L91.2,18.8L90.3,18.3L87.3,17.4L89.8,17.2L88.5,16.4L89.9,15.8Z M98.5,17.1L97.3,18.0L95.9,17.9L95.1,16.9L95.8,15.8L97.0,15.4L99.5,15.5L101.8,15.8L100.0,16.9L98.5,17.1Z M65.7,18.8L62.6,19.3L61.9,18.8L59.1,18.2L59.7,17.7L60.5,16.8L61.5,16.0L60.4,15.3L64.4,15.1L66.1,15.3L69.2,15.4L70.4,15.7L71.7,16.2L70.2,16.5L67.2,17.4L65.7,18.2L65.7,18.8Z M98.0,14.4L97.4,14.9L95.6,14.8L94.2,14.5L94.8,14.0L96.6,13.6L97.6,14.1L98.0,14.4Z M92.2,12.3L93.1,12.9L93.1,13.5L92.6,14.4L90.6,14.5L89.3,14.3L89.3,13.6L87.3,13.7L87.3,12.8L88.6,12.8L90.4,12.4L92.1,12.5L92.2,12.3Z M80.5,13.0L80.9,13.4L82.0,13.2L83.3,13.2L83.5,13.8L82.8,14.4L78.7,14.6L75.6,15.1L73.8,15.1L76.2,14.2L70.7,14.4L69.0,14.1L70.7,13.0L71.8,12.6L75.2,13.0L77.3,13.7L79.4,13.8L77.7,12.7L78.8,12.2L80.1,12.4L80.5,13.0Z M96.8,11.9L98.1,12.3L100.5,12.3L101.5,12.7L102.6,13.4L103.4,13.7L105.0,13.7L106.8,13.8L108.7,13.6L111.1,13.5L113.1,13.5L114.4,14.0L113.9,14.8L112.1,15.1L110.5,14.9L107.1,15.1L104.6,15.1L102.7,15.0L99.5,14.6L99.1,13.9L98.9,13.3L97.7,12.8L95.2,12.7L93.8,12.3L94.3,11.8L96.8,11.9Z M70.9,11.2L70.7,12.1L69.8,12.6L68.6,12.6L66.4,13.1L64.5,13.3L62.8,13.1L64.9,12.2L67.4,11.4L69.2,11.4L70.9,11.2Z M97.8,11.4L95.0,11.3L97.1,11.0L97.9,11.2L97.8,11.4Z M78.1,11.2L75.8,11.5L74.1,11.1L75.0,10.7L76.8,10.6L78.5,10.8L78.1,11.2Z M78.7,10.1L77.3,10.3L75.3,10.3L76.5,9.8L77.2,9.8L78.7,10.1Z M95.4,10.7L93.6,11.0L92.6,10.7L92.1,10.2L93.6,9.8L94.3,9.9L95.7,10.3L95.4,10.7Z M90.3,10.4L90.8,10.9L88.8,10.8L86.8,10.4L84.1,10.3L85.3,10.0L83.8,9.7L86.1,9.4L89.4,9.8L90.3,10.4Z M106.0,8.8L107.4,9.2L105.8,9.5L103.6,10.5L101.4,10.5L98.9,10.4L97.6,9.9L98.6,9.1L96.4,9.1L95.1,8.7L94.3,8.2L95.1,7.7L96.0,7.3L97.2,7.2L99.5,6.9L101.0,7.5L103.1,7.8L105.0,8.0L106.0,8.8Z M128.3,4.6L131.5,4.7L134.1,4.9L136.3,5.2L133.3,6.1L130.4,6.3L129.3,6.6L131.9,6.6L129.1,7.3L127.1,7.6L125.0,8.6L122.6,8.8L121.8,9.1L118.2,9.2L119.8,9.4L119.0,9.6L120.0,10.2L118.8,10.6L117.0,10.9L116.4,11.4L114.7,11.7L116.9,12.0L113.8,13.0L110.6,12.7L107.1,12.8L105.3,12.7L103.0,12.6L105.1,11.8L104.5,10.9L105.2,10.8L108.4,11.4L106.8,10.6L104.8,10.3L105.8,9.9L108.0,9.6L106.6,8.7L106.1,8.1L109.4,8.1L110.3,8.3L112.2,7.8L109.5,7.7L105.3,7.8L103.2,7.4L102.2,6.9L100.7,6.5L102.3,5.9L103.7,5.8L106.0,5.6L107.8,5.2L109.3,5.3L110.6,5.6L111.5,4.9L113.1,4.8L115.3,4.6L118.9,4.6L119.6,4.7L123.1,4.5L125.7,4.6L128.3,4.6Z M110.9,94.8L110.2,94.5L110.1,93.8L109.3,93.3L108.8,92.8L108.3,93.2L107.6,92.7L107.5,92.1L107.6,91.3L108.5,91.5L109.2,91.5L109.7,91.8L110.3,92.2L110.8,92.7L111.4,93.2L110.9,93.8L110.9,94.6L110.9,94.8Z M111.7,76.8L112.7,76.9L113.7,76.9L114.8,77.3L115.3,77.7L116.4,77.6L117.9,78.6L118.6,79.2L119.7,79.4L120.5,79.8L121.4,80.3L120.5,80.7L119.7,80.8L118.9,80.7L117.1,80.8L117.9,80.1L116.7,79.7L116.0,78.7L115.3,78.7L114.2,78.4L112.2,78.0L111.1,77.4L110.2,78.0L109.6,78.3L109.0,78.5L109.3,77.5L109.9,77.3L110.5,77.0L111.4,76.9L111.7,76.8Z M124.4,81.0L125.5,80.8L126.2,81.1L126.7,81.5L127.4,81.4L127.9,81.8L128.5,82.3L128.0,82.8L127.5,82.5L126.5,82.5L125.8,82.8L124.8,83.5L124.4,83.0L124.1,82.3L124.5,81.6L124.4,81.0Z M154.4,5.2L158.5,4.5L162.7,4.6L164.2,4.1L168.5,4.0L178.1,4.2L185.6,5.1L183.4,5.6L178.8,5.6L172.3,5.7L172.9,6.0L177.2,5.8L180.8,6.2L183.2,5.9L184.2,6.3L182.8,7.0L185.9,6.6L191.8,6.1L195.4,6.3L196.0,6.8L191.1,7.7L190.5,8.0L186.6,8.2L189.4,8.2L188.0,9.1L187.0,9.9L187.1,11.2L188.5,12.0L186.6,12.1L184.6,12.4L186.9,13.1L187.1,14.1L185.9,14.2L187.4,15.3L184.7,15.3L186.1,15.8L184.0,16.4L182.4,16.4L183.9,17.3L181.5,17.3L180.9,17.6L182.5,17.9L184.1,18.7L184.6,19.6L182.4,19.9L181.5,19.4L180.0,18.7L180.4,19.5L179.0,20.2L182.2,20.2L183.8,20.3L180.6,21.3L177.3,22.3L173.8,22.7L172.5,22.7L171.2,23.2L169.6,24.4L167.0,25.3L166.1,25.3L164.5,25.6L162.8,25.9L161.8,26.6L161.8,27.5L161.2,28.3L159.2,29.2L159.7,30.2L159.1,31.2L158.5,32.3L156.8,32.4L155.0,31.4L152.6,31.4L151.5,30.8L150.7,29.6L148.6,28.1L148.0,27.3L147.8,26.2L146.1,25.1L146.6,24.2L145.8,23.8L147.0,22.4L148.8,22.0L149.2,21.5L149.5,20.5L148.1,20.9L147.5,21.1L146.4,21.3L144.9,20.9L144.8,20.1L145.3,19.4L146.4,19.4L148.9,19.7L146.8,19.0L145.7,18.6L144.5,18.7L143.5,18.4L144.9,17.3L144.1,16.9L143.2,16.0L141.7,14.8L140.2,14.3L137.0,13.1L134.4,13.0L131.2,13.0L128.3,13.1L126.9,12.7L124.8,12.0L127.9,11.6L130.4,11.5L125.2,11.2L122.5,10.7L127.2,9.7L131.6,9.1L132.1,8.7L128.8,8.2L129.9,7.8L134.1,6.9L135.8,6.8L135.3,6.3L138.2,5.9L141.9,5.8L145.6,5.7L146.9,6.1L150.1,5.5L152.9,5.9L154.6,6.0L157.1,6.4L154.3,5.7L154.4,5.2Z M103.4,83.3L103.4,84.2L103.3,85.6L104.1,85.8L103.4,86.6L103.2,87.3L102.3,88.0L101.7,88.0L100.9,87.9L99.7,87.2L99.9,86.6L100.3,85.4L101.8,85.4L101.5,84.6L100.6,83.9L101.2,83.2L102.3,83.2L103.4,83.3Z M103.2,87.3L103.4,86.6L104.0,86.2L104.5,85.8L105.3,85.6L106.1,85.7L107.1,85.6L107.9,85.6L109.0,85.6L109.5,85.9L110.3,86.3L109.6,86.9L108.8,87.0L108.2,87.2L107.8,87.7L107.1,87.8L106.3,88.1L106.1,88.7L105.6,89.1L105.0,88.6L105.0,88.0L104.2,88.0L103.5,87.4L103.2,87.3Z M124.4,81.0L124.5,81.6L124.1,82.3L124.4,83.0L123.6,82.8L122.3,82.8L121.7,83.0L121.1,82.6L122.3,82.4L123.2,82.5L123.1,81.7L122.4,81.1L123.4,80.8L124.4,81.0Z M117.4,82.4L118.2,82.5L118.8,82.8L118.2,83.2L117.1,83.2L116.4,82.8L117.1,82.4L117.4,82.4Z M104.4,82.4L103.8,83.2L102.3,83.2L101.2,83.2L101.2,83.9L101.5,84.6L101.8,85.4L100.3,85.4L99.7,86.3L99.7,87.2L98.3,85.9L97.7,85.5L96.7,85.2L96.1,85.3L95.1,85.7L94.5,85.9L93.6,85.5L92.7,85.3L91.6,84.8L90.7,84.6L89.4,84.0L88.3,83.4L87.4,83.1L86.1,82.7L85.6,82.1L84.3,81.4L83.7,80.7L83.5,80.1L84.0,79.3L83.6,78.4L83.1,77.3L82.0,76.1L80.8,75.1L80.2,74.4L79.2,73.9L79.2,72.9L78.6,72.6L77.8,72.0L77.5,71.2L76.9,71.1L76.2,70.4L75.6,69.8L74.9,68.6L74.5,67.6L73.7,66.7L72.6,66.4L72.6,67.5L72.7,68.4L73.1,68.9L74.0,69.7L74.5,70.5L75.0,71.3L75.6,72.0L76.4,72.6L76.8,73.7L77.1,74.2L77.5,74.8L77.5,75.4L78.6,76.0L79.0,76.6L78.5,77.2L78.0,76.5L77.2,75.8L76.3,75.2L75.7,74.9L75.7,74.0L75.5,73.4L75.0,73.0L74.1,72.5L72.9,72.0L72.2,71.3L73.3,70.9L72.4,69.4L71.7,69.1L71.2,68.4L70.8,67.6L70.2,66.6L69.7,65.5L71.1,65.4L72.6,65.3L74.3,66.1L77.1,67.0L79.5,67.0L80.4,67.0L82.5,66.5L83.0,66.9L83.6,67.3L84.3,67.8L84.7,68.4L85.0,69.1L85.6,69.5L86.6,69.8L87.4,68.9L88.4,68.8L89.2,69.3L89.8,70.2L90.2,70.9L90.9,71.5L91.2,72.4L91.5,73.0L92.5,73.3L93.3,73.6L93.3,74.6L93.1,75.5L93.0,77.1L93.1,78.3L93.5,78.9L93.7,79.9L94.5,80.8L94.8,81.4L95.3,82.0L96.6,82.3L97.1,82.9L98.1,82.5L99.0,82.4L99.9,82.2L100.7,82.0L101.5,81.5L101.8,80.8L101.8,79.8L102.9,79.1L104.1,78.8L105.2,78.9L105.9,78.8L106.2,79.6L105.5,80.3L105.3,81.0L105.3,81.8L105.0,82.7L104.4,82.4Z M110.0,91.5L109.4,91.7L108.8,91.4L107.7,91.2L107.1,91.0L106.6,90.5L105.8,89.7L105.2,89.2L106.0,89.0L106.3,88.1L107.1,87.8L107.8,87.7L108.2,87.2L108.8,87.0L109.6,86.9L110.2,86.6L110.6,87.5L110.2,88.4L110.2,89.2L110.1,89.9L110.0,90.7L109.8,91.3L110.0,91.5Z M117.6,94.3L117.8,95.1L117.1,95.4L117.0,96.0L116.3,95.0L116.1,94.2L115.5,93.9L114.7,94.4L114.0,94.7L114.4,95.6L113.9,95.9L113.2,95.3L112.4,94.9L111.6,94.7L111.0,95.0L111.0,94.3L110.9,93.3L111.8,93.6L112.4,93.8L113.3,94.0L114.5,93.5L115.6,93.2L116.2,93.4L117.2,93.9L117.6,94.3Z M130.9,82.4L131.6,82.5L130.6,83.0L129.9,83.1L130.0,82.4L130.9,82.4Z M102.3,88.2L102.7,87.7L103.5,87.4L104.1,87.9L105.0,88.0L105.0,88.6L104.2,88.8L103.3,88.5L102.6,88.4L102.3,88.2Z M136.5,91.7L137.2,91.6L137.4,92.5L136.4,92.7L136.5,91.7Z M62.9,45.7L66.3,45.7L69.9,45.7L71.0,45.7L74.7,45.7L78.3,45.7L81.9,45.7L85.5,45.7L89.6,45.7L93.7,45.7L96.2,45.7L96.6,45.2L96.8,45.9L98.0,46.2L99.3,46.4L100.4,46.7L101.4,46.6L102.9,46.9L104.3,46.5L105.5,47.0L106.7,47.4L107.6,47.9L108.6,48.2L108.9,48.8L109.5,49.0L110.1,49.2L111.4,50.1L111.6,51.2L111.9,52.2L111.5,53.0L110.9,53.6L110.6,54.2L111.2,54.5L112.9,53.9L114.1,53.7L115.7,53.1L115.4,52.4L117.2,52.2L118.3,52.2L118.6,51.7L120.1,50.7L122.4,50.5L124.7,50.5L125.2,50.2L126.1,49.4L126.5,48.5L127.4,47.6L128.6,47.7L129.1,48.0L129.1,49.7L129.9,50.4L128.8,51.3L127.6,51.8L126.3,52.1L125.7,52.8L125.5,53.7L125.9,54.4L126.6,54.2L125.7,54.8L124.2,55.0L123.0,55.1L122.0,55.4L123.8,55.2L122.4,55.8L121.7,55.8L121.4,56.9L120.6,57.8L119.8,57.1L120.1,57.8L120.4,58.5L120.0,58.9L119.3,59.9L119.6,59.0L119.0,58.6L118.8,57.6L118.9,58.8L118.1,58.7L118.9,59.0L118.9,60.2L119.4,60.7L119.6,61.9L118.8,62.8L117.6,63.1L116.8,63.9L116.2,63.9L115.6,64.4L114.1,65.6L113.4,66.1L112.8,66.8L112.6,67.7L112.8,68.5L113.3,69.6L113.8,70.4L114.4,72.3L114.3,73.1L114.0,74.4L113.0,74.4L112.4,73.6L111.7,72.5L111.2,71.6L111.2,70.3L110.9,69.7L110.0,68.7L108.3,69.0L107.5,68.4L106.7,68.1L105.4,68.3L104.3,68.1L103.4,68.2L103.1,69.2L102.2,69.6L101.3,69.6L100.4,69.0L99.4,69.1L98.5,68.8L97.8,68.9L96.7,69.2L95.7,70.1L94.5,70.6L93.8,71.2L93.5,71.7L93.5,72.6L93.8,73.6L92.5,73.3L91.5,73.0L91.2,72.4L90.9,71.5L90.2,70.9L89.8,70.2L89.2,69.3L88.4,68.8L87.4,68.9L86.6,69.8L85.6,69.5L85.0,69.1L84.7,68.4L84.3,67.8L83.6,67.3L83.0,66.9L82.5,66.5L80.4,66.5L79.5,67.0L77.1,67.0L74.3,66.1L72.5,65.5L71.1,65.4L69.7,65.5L69.5,64.9L68.8,64.2L68.1,63.7L67.4,63.7L65.8,63.2L65.4,62.4L64.2,61.2L63.2,59.5L62.7,58.8L61.8,57.8L61.6,56.8L61.0,56.2L61.2,55.2L61.2,54.1L60.8,53.2L61.3,52.1L61.4,51.0L61.6,49.9L61.4,48.3L61.0,47.2L60.6,46.7L62.5,46.9L63.2,48.0L63.3,46.7L62.9,45.7Z M41.0,20.8L41.0,25.2L41.0,32.1L42.2,32.1L43.4,32.5L44.2,33.0L45.3,33.8L46.4,33.1L47.6,32.7L48.3,33.3L49.1,33.8L50.2,34.4L51.0,35.2L52.2,36.6L54.2,37.4L54.3,38.1L53.6,38.7L52.9,38.3L51.9,37.9L51.5,36.8L50.0,35.9L49.3,34.7L48.2,34.6L46.3,34.6L44.8,34.3L42.4,33.0L41.2,32.8L39.1,32.4L37.4,32.5L35.1,31.9L33.6,31.4L32.3,31.7L32.5,32.5L31.9,32.6L30.5,32.8L29.4,33.2L28.1,33.5L27.9,32.8L28.5,31.6L29.7,31.2L27.9,31.6L27.1,32.4L25.3,33.2L26.2,33.8L25.1,34.7L23.8,35.2L22.6,35.6L22.3,36.1L20.4,36.7L20.0,37.3L18.6,37.8L17.8,37.7L16.7,38.0L15.4,38.5L14.4,38.9L12.4,39.2L13.5,38.4L14.7,38.1L16.0,37.4L17.4,37.3L18.0,36.8L19.7,36.1L20.9,35.4L21.1,34.5L21.7,33.8L20.3,34.1L19.3,34.4L18.5,33.8L17.7,33.6L16.5,34.1L15.8,34.1L15.6,33.3L15.1,32.5L13.5,32.7L12.5,32.1L11.7,31.9L11.7,31.2L10.8,30.7L11.2,30.0L12.2,29.3L12.6,28.7L13.6,28.6L14.4,28.8L15.4,28.2L16.3,28.3L17.2,27.9L16.3,27.2L17.2,26.7L16.4,26.7L15.2,27.0L13.9,27.0L12.2,27.1L10.4,26.8L9.9,26.3L8.4,25.6L10.1,25.1L12.7,24.5L13.7,24.5L13.6,25.1L16.1,25.1L15.1,24.4L13.6,23.9L12.8,23.3L11.6,22.8L10.0,22.4L10.7,21.8L12.8,21.7L14.3,21.2L14.6,20.6L15.8,20.0L17.0,19.9L19.3,19.4L20.4,19.4L22.2,18.8L24.1,19.0L24.9,19.6L27.5,19.4L29.3,19.9L30.5,19.8L33.0,20.2L35.4,20.3L36.3,20.4L37.9,20.2L39.7,20.6L41.0,20.8L41.0,20.8Z M23.5,81.7L22.9,81.0L23.1,80.3L23.9,80.6L24.4,81.2L23.5,81.7Z M22.8,79.8L22.2,79.7L22.9,79.7L22.8,79.8Z M22.0,79.2L21.3,79.3L22.0,79.2Z M20.9,79.0L20.2,78.8L20.9,79.0Z M18.9,78.2L18.9,78.2Z M26.5,35.9L25.3,36.4L24.7,36.1L25.6,35.1L26.3,34.9L27.1,35.0L27.6,35.4L26.5,35.9Z M11.4,32.6L10.7,32.8L9.9,32.5L9.1,32.2L10.3,32.0L11.3,32.1L11.4,32.6Z M4.0,27.9L4.7,28.1L5.5,28.0L6.5,28.3L7.7,28.5L6.7,28.9L5.7,28.6L4.2,28.5L4.0,27.9Z" fill="#a8b3cf" stroke="none"/></svg>
