<svg width="128" height="128" viewBox="-0.9 -0.9 1.8 1.8" xmlns="http://www.w3.org/2000/svg" xmlns:xlink="http://www.w3.org/1999/xlink" overflow="hidden"><g stroke-width="0.1" stroke-linejoin="round" opacity="1"><path d="M-0.522222-0.522222 0.522222-0.522222 0.522222 0.522222-0.522222 0.522222Z" stroke="#000000" fill="#000000"/></g><g stroke-width="0" stroke-linejoin="round" stroke-opacity="0.5" opacity="1"><path d="M-0.513889-0.513889-0.0416667-0.513889-0.0416667-0.0416667-0.513889-0.0416667Z" stroke="#000000" fill="#404040"/><path d="M0.0416667-0.513889 0.513889-0.513889 0.513889-0.0416667 0.0416667-0.0416667Z" stroke="#000000" fill="#404040"/><path d="M-0.513889 0.0416667-0.0416667 0.0416667-0.0416667 0.513889-0.513889 0.513889Z" stroke="#000000" fill="#404040"/><path d="M0.0416667 0.0416667 0.513889 0.0416667 0.513889 0.513889 0.0416667 0.513889Z" stroke="#000000" fill="#404040"/></g><g stroke-width="0.02" stroke-linejoin="round" stroke-opacity="1" opacity="1"><path d="M-0.553889-0.538889-0.553889-0.0166667-0.701667-0.0166667-0.701667-0.486667Z" stroke="#000000" fill="#FEFE00"/><path d="M-0.553889 0.015-0.553889 0.537222-0.701667 0.485-0.701667 0.015Z" stroke="#000000" fill="#FEFE00"/><path d="M0.538889-0.553889 0.0166667-0.553889 0.0166667-0.701667 0.486667-0.701667Z" stroke="#000000" fill="#FEFE00"/><path d="M0.015 0.553889 0.537222 0.553889 0.485 0.701667 0.015 0.701667Z" stroke="#000000" fill="#FEFE00"/></g></svg>