<svg viewBox="0 0 197.72 156.09" xmlns="http://www.w3.org/2000/svg" xmlns:xlink="http://www.w3.org/1999/xlink" overflow="hidden"><defs></defs><g id="Layer_2"><g id="图层_1"><path d="M196.45 0 196.45 5 195 5C159.42 5 123.837 5 88.25 5 87.3871 4.89692 86.5727 5.42164 86.31 6.25 74.49 31.4167 62.6533 56.61 50.8 81.83 46.1333 91.7367 41.4667 101.647 36.8 111.56 36.24 112.76 35.7 113.92 34.07 113.94 33.0073 114.013 32.0358 113.34 31.73 112.32 29.73 107.793 27.73 103.263 25.73 98.73L10.37 63.9C10.23 63.59 10.06 63.28 9.85 62.9 8.27 64.12 6.74 65.32 5.19 66.49 4.57628 67.011 3.9053 67.4606 3.19 67.83 2.8 68.01 1.91 67.92 1.83 67.71 1.58952 67.1828 1.58952 66.5772 1.83 66.05 2.53664 65.3058 3.31735 64.6357 4.16 64.05 7.16 61.67 10.24 59.3 13.28 56.93 13.4468 56.7977 13.6204 56.6743 13.8 56.56 15.26 55.56 15.94 55.7 16.66 57.23 17.73 59.55 18.73 61.9 19.76 64.23 25.18 76.55 30.6033 88.8833 36.03 101.23 36.12 101.43 36.25 101.62 36.43 101.94 37.76 99.18 39 96.6 40.19 94 46.13 81.3333 52.0667 68.6667 58 56L82.54 3.5C82.67 3.22 82.83 2.95 82.94 2.66 83.5198 0.903203 85.2516-0.206774 87.09 8.58307e-08 123.03 0.0533334 158.957 0.0533333 194.87 0Z"/><path d="M25.83 48.84C27.0111 49.503 28.2621 50.0329 29.56 50.42 31.8546 50.9494 34.2056 51.1946 36.56 51.15 42.15 50.84 44.56 46.44 43.99 41.36 43.41 35.64 39.69 33.09 33.55 33.83 33.1207 33.8669 32.6883 33.8331 32.27 33.73 31.62 33.59 30.42 33.96 30.43 32.73 30.43 31.89 30.95 31.82 31.55 31.73 33.1373 31.6707 34.7199 31.5205 36.29 31.28 40.29 30.47 43.29 25.95 42.69 21.82 42.401 19.3242 40.4824 17.3278 38 16.94 35.0741 16.3619 32.0401 16.7333 29.34 18 28.6252 18.3982 27.9371 18.8424 27.28 19.33 28.574 19.6635 29.571 20.6954 29.86 22 30.3079 23.721 29.2759 25.4793 27.5549 25.9272 27.4348 25.9585 27.3129 25.9828 27.19 26 25.4834 26.2382 23.9069 25.0478 23.6687 23.3413 23.6529 23.2281 23.6433 23.1142 23.64 23 23.5158 20.8323 24.4888 18.7472 26.23 17.45 28.4981 15.7614 31.2244 14.7992 34.05 14.69 37.4597 14.2597 40.9206 14.844 44 16.37 49.39 19.18 50.19 25.12 45.63 29.26 44.0962 30.4788 42.4714 31.5787 40.77 32.55 41.64 32.88 42.77 33.22 43.83 33.72 46.83 35.15 49.38 37.13 50.24 40.64 51.04 43.84 49.96 46.56 47.84 48.87 44.84 52.08 41.06 53.31 36.92 53.55 33.6977 53.7974 30.4604 53.3296 27.44 52.18 24.93 51.18 22.73 49.74 22.01 46.85 21.7719 45.8327 21.748 44.777 21.94 43.75 22.3332 42.2382 23.7778 41.2453 25.33 41.42 26.8157 41.5006 28.0702 42.5514 28.41 44 28.8364 45.5838 28.0989 47.2504 26.64 48L25.83 48.34Z"/><text fill="#393939" font-family="Orbitron-Bold,Orbitron" font-weight="700" font-size="37.28" transform="matrix(0.97 0 0 1 0 147.51)">C<tspan letter-spacing="-0.01em" x="30.64" y="0">u</tspan><tspan x="55.99" y="0">beR</tspan><tspan letter-spacing="-0.02em" x="137.4" y="0">o</tspan><tspan letter-spacing="-0.02em" x="162.34" y="0">o</tspan><tspan letter-spacing="0em" x="187.2" y="0">t</tspan></text><path d="M97.61 20.6 123.26 20.6 123.26 46.25 97.61 46.25 97.61 20.6Z" fill="#EE0000"/><path d="M127.79 20.6 153.43 20.6 153.43 46.25 127.79 46.25 127.79 20.6Z" fill="#EE0000"/><path d="M157.96 20.6 183.61 20.6 183.61 46.25 157.96 46.25 157.96 20.6Z" fill="#EE0000"/><path d="M97.61 50.78 123.26 50.78 123.26 76.42 97.61 76.42 97.61 50.78Z" fill="#0000F2"/><path d="M127.79 50.78 153.43 50.78 153.43 76.42 127.79 76.42 127.79 50.78Z" fill="#EE0000"/><path d="M157.96 50.78 183.61 50.78 183.61 76.42 157.96 76.42 157.96 50.78Z" fill="#0000F2"/><path d="M97.61 80.95 123.26 80.95 123.26 106.6 97.61 106.6 97.61 80.95Z" fill="#0000F2"/><path d="M127.79 80.95 153.43 80.95 153.43 106.6 127.79 106.6 127.79 80.95Z" fill="#EE0000"/><path d="M157.96 80.95 183.61 80.95 183.61 106.6 157.96 106.6 157.96 80.95Z" fill="#0000F2"/></g></g></svg>