<svg viewBox="0 0 265.86 192.31" xmlns="http://www.w3.org/2000/svg" xmlns:xlink="http://www.w3.org/1999/xlink" overflow="hidden"><defs></defs><g id="图层_2"><g id="图层_1-2"><path d="M255.54 0.05 255.54 6.49 253.61 6.49C206.91 6.49 160.217 6.49 113.53 6.49 112.41 6.35302 111.35 7.02764 111 8.1 95.5067 41.2 79.9867 74.29 64.44 107.37 58.34 120.37 52.2333 133.37 46.12 146.37 45.38 147.95 44.68 149.47 42.53 149.5 41.1355 149.592 39.8623 148.708 39.46 147.37 36.8533 141.423 34.2267 135.48 31.58 129.54 24.8533 114.3 18.12 99.0667 11.38 83.84 11.2 83.42 10.98 83.03 10.7 82.47 8.62 84.07 6.62 85.64 4.59 87.18 3.79735 87.8815 2.9286 88.492 2 89 1.49 89.23 0.33 89.11 0.22 88.84-0.0818551 88.1442-0.0635806 87.3511 0.27 86.67 1.18786 85.6768 2.20669 84.782 3.31 84 7.31 80.88 11.31 77.7667 15.31 74.66 15.53 74.49 15.76 74.32 15.99 74.17 17.92 72.91 18.8 73.04 19.74 75.06 21.16 78.06 22.46 81.18 23.81 84.25 30.93 100.423 38.0467 116.597 45.16 132.77 45.28 133.04 45.45 133.29 45.68 133.71 47.35 130.17 48.96 126.79 50.55 123.39 58.3367 106.723 66.1233 90.08 73.91 73.46 84.6367 50.4867 95.36 27.53 106.08 4.59 106.25 4.23 106.45 3.87 106.6 3.5 107.6 0.97 109.32 0 112.05 0 159.19 0.0733333 206.33 0.09 253.47 0.05Z"/><path d="M125.86 66.63 159.51 66.63 159.51 100.28 125.86 100.28 125.86 66.63Z" fill="#0000F2"/><path d="M165.45 66.63 199.1 66.63 199.1 100.28 165.45 100.28 165.45 66.63Z" fill="#EE0000"/><path d="M205.04 66.63 238.69 66.63 238.69 100.28 205.04 100.28 205.04 66.63Z" fill="#0000F2"/><path d="M125.86 106.22 159.51 106.22 159.51 139.87 125.86 139.87 125.86 106.22Z" fill="#0000F2"/><path d="M165.45 106.22 199.1 106.22 199.1 139.87 165.45 139.87 165.45 106.22Z" fill="#EE0000"/><path d="M205.04 106.22 238.69 106.22 238.69 139.87 205.04 139.87 205.04 106.22Z" fill="#0000F2"/><text fill="#393939" font-family="Orbitron-Bold,Orbitron" font-weight="700" font-size="32.15" transform="matrix(0.97 0 0 1 0 184.91)">Happy R<tspan letter-spacing="-0.02em" x="150.83" y="0">o</tspan><tspan letter-spacing="-0.02em" x="172.34" y="0">o</tspan><tspan letter-spacing="0em" x="193.78" y="0">tday</tspan></text><path d="M147 32.91 147 66.11C147 66.4359 146.736 66.7 146.41 66.7001 146.407 66.7001 146.403 66.7001 146.4 66.7L139.53 66.7C139.358 66.7035 139.193 66.6302 139.08 66.5 138.984 66.3927 138.931 66.2539 138.93 66.11L138.93 32.91Z" fill="#63CEC1"/><path d="M146.98 49.86 138.91 56.36 138.91 52.32 146.98 45.82 146.98 49.86Z" fill="#5BBAAC"/><path d="M147 56.08 147 60.13 139.08 66.5C138.984 66.3927 138.931 66.2539 138.93 66.11L138.93 62.58Z" fill="#5BBAAC"/><path d="M147 32.91 147 38.37 146.58 38.37 146.53 38.42 146.53 40.42C146.53 42.121 145.151 43.5 143.45 43.5 141.749 43.5 140.37 42.121 140.37 40.42L140.37 38.42 140.37 38.37 140.37 38.37 139 38.37 139 32.91Z" fill="#5BBAAC"/><path d="M140.31 36.43C141.415 36.43 142.31 37.3254 142.31 38.43L142.31 40.43C142.304 41.0541 142.806 41.5644 143.43 41.57 143.433 41.57 143.437 41.57 143.44 41.57L143.44 41.57C144.064 41.57 144.57 41.0641 144.57 40.44 144.57 40.4367 144.57 40.4333 144.57 40.43L144.57 38.43C144.57 37.3254 145.465 36.43 146.57 36.43L147.27 36.43C148.227 36.4245 149 35.6471 149 34.69L149 34.69C149 33.729 148.221 32.95 147.26 32.95L139 32.95C138.039 32.95 137.26 33.729 137.26 34.69L137.26 34.69C137.282 35.6353 138.054 36.3902 139 36.39Z" fill="#CEFFFB"/><path d="M146.98 47.17 138.91 53.67 138.91 49.63 146.98 43.13 146.98 47.17Z" fill="#FFEB96"/><path d="M146.98 57.39 138.91 63.89 138.91 59.85 146.98 53.35 146.98 57.39Z" fill="#FFEB96"/><path d="M143.69 21.1C143.69 21.1 136.81 28.84 143.69 28.84 149 28.84 143.69 21.1 143.69 21.1Z" fill="#FFC988"/><path d="M225.72 32.44 225.72 65.64C225.72 65.9714 225.451 66.24 225.12 66.24L218.25 66.24C218.079 66.2395 217.915 66.1669 217.8 66.04 217.706 65.9278 217.653 65.7866 217.65 65.64L217.65 32.44Z" fill="#FFA6B7"/><path d="M225.72 49.39 217.65 55.89 217.65 51.85 225.72 45.35 225.72 49.39Z" fill="#FC819C"/><path d="M225.72 55.62 225.72 59.62 217.8 66C217.706 65.8878 217.653 65.7466 217.65 65.6L217.65 62.11Z" fill="#FC819C"/><path d="M225.72 32.44 225.72 37.91 225.29 37.91 225.29 37.91 225.29 39.91C225.29 41.611 223.911 42.99 222.21 42.99 220.509 42.99 219.13 41.611 219.13 39.91L219.13 38 219.08 38 219.08 38 217.71 38 217.71 32.44Z" fill="#FC819C"/><path d="M219 36C220.105 36 221 36.8954 221 38L221 40C221.005 40.6257 221.514 41.13 222.14 41.13L222.14 41.13C222.77 41.1411 223.289 40.6397 223.3 40.0102 223.3 40.0068 223.3 40.0034 223.3 40L223.3 38C223.3 36.8954 224.195 36 225.3 36L226 36C226.961 36 227.74 35.221 227.74 34.26L227.74 34.26C227.784 33.3 227.042 32.486 226.082 32.4418 226.055 32.4406 226.027 32.44 226 32.44L217.76 32.44C216.799 32.429 216.011 33.199 216 34.1599 216 34.1666 216 34.1733 216 34.18L216 34.18C216 35.1218 216.749 35.8929 217.69 35.92Z" fill="#FFC7D4"/><path d="M225.72 46.7 217.65 53.2 217.65 49.16 225.72 42.66 225.72 46.7Z" fill="#8FE5D8"/><path d="M225.72 56.92 217.65 63.42 217.65 59.38 225.72 52.88 225.72 56.92Z" fill="#8FE5D8"/><path d="M222.43 20.63C222.43 20.63 215.55 28.38 222.43 28.38 227.69 28.38 222.43 20.63 222.43 20.63Z" fill="#FFC988"/><path d="M147.25 32.22 144 32.22 144 29.52C144.977 29.5556 145.895 29.0526 146.39 28.21 147.64 25.84 144.59 21.21 144.24 20.71 144.125 20.5324 143.931 20.4208 143.72 20.41 143.508 20.3963 143.301 20.4812 143.16 20.64 142.467 21.4414 141.835 22.2938 141.27 23.19 140.02 25.19 139.64 26.8 140.15 27.92 140.634 28.8422 141.579 29.4311 142.62 29.46L142.62 32.22 139 32.22C137.658 32.2223 136.572 33.3121 136.574 34.6541 136.576 35.6925 137.237 36.6149 138.22 36.95L138.22 66.11C138.22 66.8169 138.793 67.39 139.5 67.39L146.37 67.39C147.077 67.3955 147.654 66.8269 147.66 66.12 147.66 66.1167 147.66 66.1133 147.66 66.11L147.66 37.11C148.815 36.8983 149.655 35.8941 149.66 34.72L149.66 34.72C149.699 33.3785 148.643 32.2596 147.301 32.2209 147.284 32.2204 147.267 32.2201 147.25 32.22ZM141.42 27.36C140.94 26.3 142.28 23.96 143.61 22.26 144.61 23.9 145.77 26.48 145.19 27.57 145.12 27.7 144.93 28.07 144.02 28.14L144.02 26C144.02 25.6189 143.711 25.31 143.33 25.31 142.949 25.31 142.64 25.6189 142.64 26L142.64 28.06C142.145 28.0336 141.692 27.7738 141.42 27.36ZM143.42 42.27C144.425 42.27 145.24 41.4552 145.24 40.45L145.24 38.45C145.237 37.8432 145.65 37.3136 146.24 37.17L146.24 42.8 143.16 45.28C142.858 45.5122 142.801 45.9454 143.033 46.2476 143.042 46.2586 143.051 46.2695 143.06 46.28 143.276 46.5805 143.695 46.6491 143.995 46.4331 144.018 46.4168 144.039 46.399 144.06 46.38L146.28 44.6 146.28 46.87 139.59 52.26 139.59 50 141.76 48.25C142.047 47.9988 142.075 47.5629 141.824 47.2763 141.586 47.0046 141.179 46.9626 140.89 47.18L139.59 48.18 139.59 37.09 140.28 37.09 140.28 37.09C141 37.0955 141.58 37.6804 141.58 38.4L141.58 40.4C141.552 41.4048 142.344 42.2418 143.349 42.2696 143.376 42.2703 143.403 42.2705 143.43 42.27ZM139.6 54 146.29 48.61 146.29 53 139.6 58.39ZM139.6 60.18 146.29 54.79 146.29 57.06 139.6 62.45ZM139.6 66.02 139.6 64.22 146.29 58.83 146.29 66ZM148.3 34.69C148.328 35.2416 147.904 35.7117 147.353 35.74 147.318 35.7418 147.284 35.7418 147.25 35.74L146.55 35.74C145.074 35.7455 143.88 36.9438 143.88 38.42L143.88 40.42C143.88 40.6685 143.679 40.87 143.43 40.87 143.181 40.87 142.98 40.6685 142.98 40.42L142.98 38.42C142.986 36.9454 141.795 35.7455 140.32 35.74 140.32 35.74 140.32 35.74 140.32 35.74L138.98 35.74C138.4 35.74 137.93 35.2699 137.93 34.69 137.93 34.1101 138.4 33.64 138.98 33.64L147.22 33.64C147.772 33.6124 148.241 34.0372 148.269 34.5887 148.27 34.6058 148.27 34.6229 148.27 34.64L148.27 34.64Z"/><path d="M226 31.75 222.77 31.75 222.77 29.05C223.745 29.0899 224.664 28.5904 225.16 27.75 226.41 25.38 223.36 20.75 223.01 20.24 222.886 20.0665 222.692 19.9567 222.48 19.94 222.272 19.9323 222.071 20.0164 221.93 20.17 221.222 20.9694 220.577 21.8219 220 22.72 218.75 24.72 218.37 26.33 218.87 27.46 219.369 28.387 220.327 28.9749 221.38 29L221.38 31.75 217.75 31.75C216.408 31.75 215.32 32.8379 215.32 34.18 215.31 35.2213 215.972 36.1503 216.96 36.48L216.96 42.65C216.96 43.0311 217.269 43.34 217.65 43.34 218.031 43.34 218.34 43.0311 218.34 42.65L218.34 36.65 219.02 36.65 219.02 36.65C219.74 36.65 220.325 37.2304 220.33 37.95L220.33 39.95C220.316 40.9634 221.127 41.7962 222.14 41.81 223.153 41.8238 223.986 41.0134 224 40L224 38C224 37.3945 224.413 36.8668 225 36.72L225 42.38 218.31 47.77 218.31 45.63C218.31 45.2489 218.001 44.94 217.62 44.94 217.239 44.94 216.93 45.2489 216.93 45.63L216.93 65.63C216.93 66.3424 217.508 66.92 218.22 66.92L225.09 66.92C225.797 66.92 226.37 66.347 226.37 65.64 226.37 65.6367 226.37 65.6333 226.37 65.63L226.37 36.63C227.527 36.422 228.369 35.4156 228.37 34.24L228.37 34.24C228.404 32.8984 227.343 31.7836 226.001 31.75 226.001 31.75 226 31.75 226 31.75ZM220.17 26.89C219.69 25.83 221.03 23.49 222.36 21.8 223.36 23.43 224.52 26.01 223.94 27.1 223.87 27.23 223.67 27.6 222.77 27.68L222.77 25.54C222.77 25.1589 222.461 24.85 222.08 24.85 221.699 24.85 221.39 25.1589 221.39 25.54L221.39 27.61C220.888 27.5806 220.431 27.313 220.16 26.89ZM218.35 53.53 225 48.14 225 52.55 218.31 57.94 218.31 53.53ZM218.35 59.71 225 54.32 225 56.6 218.34 62 218.34 59.71ZM225 44.1 225 46.38 218.31 51.76 218.31 49.49ZM218.31 65.55 218.31 63.75 225 58.36 225 65.55ZM227 34.22C227.028 34.7716 226.603 35.2411 226.051 35.2688 226.034 35.2696 226.017 35.27 226 35.27L225.3 35.27C223.814 35.2698 222.61 36.4741 222.61 37.9597 222.61 37.9731 222.61 37.9866 222.61 38L222.61 40C222.573 40.2458 222.344 40.4151 222.098 40.3781 221.903 40.3487 221.749 40.1954 221.72 40L221.72 38C221.72 36.5238 220.526 35.3255 219.05 35.32L217.72 35.32C217.168 35.32 216.72 34.8723 216.72 34.32 216.752 33.7581 217.217 33.3191 217.78 33.32L226 33.32C226.552 33.32 227 33.7677 227 34.32L227 34.32Z"/><path d="M165.04 26.3 199.51 26.3 199.51 60.77 165.04 60.77 165.04 26.3Z" fill="#EE0000"/></g></g></svg>