<svg version="1.1" viewBox="0 0 147.46 86.27" xmlns="http://www.w3.org/2000/svg" xmlns:xlink="http://www.w3.org/1999/xlink" overflow="hidden"><defs></defs><g id="图层_2"><g id="图层_1-2"><path d=" M 147.46 0 L 147.46 3.74 L 146.34 3.74 C 119.4 3.74 92.4567 3.74 65.51 3.74 C 64.8606 3.66144 64.2473 4.05633 64.05 4.68 C 55.11 23.7867 46.1567 42.8933 37.19 62 C 33.6567 69.5 30.1333 77.0033 26.62 84.51 C 26.19 85.42 25.78 86.3 24.54 86.31 C 23.7372 86.3675 23.0019 85.8607 22.77 85.09 C 21.26 81.65 19.77 78.23 18.22 74.79 L 6.57 48.38 L 6.18 47.59 C 4.98 48.52 3.82 49.43 2.65 50.31 C 2.18872 50.698 1.68561 51.0335 1.15 51.31 C 0.85 51.44 0.15 51.37 0.15 51.22 C -0.0203621 50.8312 -0.0203621 50.3888 0.15 50 C 0.68203 49.4304 1.27187 48.9176 1.91 48.47 L 8.82 43.08 C 8.94162 42.9755 9.07211 42.8818 9.21 42.8 C 10.32 42.07 10.83 42.15 11.37 43.31 C 12.19 45.06 12.95 46.84 13.72 48.61 C 17.8267 57.9433 21.9333 67.2767 26.04 76.61 C 26.11 76.77 26.21 76.91 26.34 77.15 C 27.34 75.15 28.23 73.15 29.15 71.2 C 33.65 61.6 38.1433 51.9967 42.63 42.39 C 48.83 29.15 55.0233 15.91 61.21 2.67 C 61.31 2.46 61.43 2.25 61.52 2.04 C 61.9764 0.725988 63.2762 -0.101924 64.66 0.04 C 91.86 0.08 119.06 0.08 146.26 0.04 Z"/><path d=" M 18.27 37 C 19.166 37.5035 20.1152 37.9059 21.1 38.2 C 22.8254 38.591 24.5911 38.7756 26.36 38.75 C 30.59 38.52 32.36 35.19 31.99 31.33 C 31.55 27.01 28.74 25.07 24.08 25.63 C 23.7451 25.6607 23.4074 25.6371 23.08 25.56 C 22.58 25.45 21.67 25.73 21.68 24.8 C 21.68 24.16 22.07 24.11 22.53 24.07 C 23.7287 24.0226 24.9238 23.9091 26.11 23.73 C 29.3061 22.8898 31.3931 19.8213 31 16.54 C 30.7939 14.6491 29.3483 13.1298 27.47 12.83 C 25.2583 12.4014 22.9675 12.6886 20.93 13.65 C 20.3869 13.9458 19.8655 14.28 19.37 14.65 C 20.3471 14.8922 21.1026 15.6671 21.32 16.65 C 21.6447 17.9579 20.8477 19.2813 19.5398 19.606 C 19.4673 19.624 19.3939 19.6387 19.32 19.65 C 18.0231 19.8269 16.8283 18.919 16.6514 17.6221 C 16.6387 17.5285 16.6315 17.4344 16.63 17.34 C 16.542 15.6888 17.2944 14.1049 18.63 13.13 C 20.3485 11.8543 22.4115 11.126 24.55 11.04 C 27.1117 10.7576 29.7003 11.2266 32 12.39 C 36.08 14.52 36.69 19.02 33.24 22.16 C 32.076 23.0809 30.8423 23.91 29.55 24.64 C 30.22 24.89 31.07 25.15 31.87 25.53 C 34.16 26.61 36.07 28.11 36.73 30.77 C 37.2718 33.0206 36.5834 35.39 34.92 37 C 32.7508 39.2443 29.7711 40.5233 26.65 40.55 C 24.2124 40.7445 21.7617 40.4031 19.47 39.55 C 17.57 38.8 15.9 37.7 15.36 35.55 C 15.195 34.7754 15.195 33.9746 15.36 33.2 C 15.6562 32.0579 16.7475 31.3076 17.92 31.44 C 19.0687 31.4955 20.0368 32.3159 20.28 33.44 C 20.6122 34.6457 20.0527 35.9191 18.94 36.49 C 18.74 36.59 18.53 36.66 18.32 36.75 Z"/><path d=" M 72.63 15.6 L 92.05 15.6 L 92.05 35.02 L 72.63 35.02 L 72.63 15.6 Z" fill="#EE0000"/><path d=" M 95.47 15.6 L 114.89 15.6 L 114.89 35.02 L 95.47 35.02 L 95.47 15.6 Z" fill="#EE0000"/><path d=" M 118.32 15.6 L 137.74 15.6 L 137.74 35.02 L 118.32 35.02 L 118.32 15.6 Z" fill="#EE0000"/><path d=" M 72.63 38.45 L 92.05 38.45 L 92.05 57.87 L 72.63 57.87 L 72.63 38.45 Z" fill="#0000F2"/><path d=" M 95.47 38.45 L 114.89 38.45 L 114.89 57.87 L 95.47 57.87 L 95.47 38.45 Z" fill="#EE0000"/><path d=" M 118.32 38.45 L 137.74 38.45 L 137.74 57.87 L 118.32 57.87 L 118.32 38.45 Z" fill="#0000F2"/><path d=" M 72.63 61.29 L 92.05 61.29 L 92.05 80.71 L 72.63 80.71 L 72.63 61.29 Z" fill="#0000F2"/><path d=" M 95.47 61.29 L 114.89 61.29 L 114.89 80.71 L 95.47 80.71 L 95.47 61.29 Z" fill="#EE0000"/><path d=" M 118.32 61.29 L 137.74 61.29 L 137.74 80.71 L 118.32 80.71 L 118.32 61.29 Z" fill="#0000F2"/></g></g></svg>