<svg viewBox="0 0 147.46 86.27" xmlns="http://www.w3.org/2000/svg" xmlns:xlink="http://www.w3.org/1999/xlink" overflow="hidden"><defs></defs><g id="图层_2"><g id="图层_1-2"><path d="M112.44 15.82 136.21 15.82C135.83 18.13 135.46 20.33 135.13 22.54 134.37 27.54 133.54 32.45 132.93 37.44 132.48 41.09 132.19 44.78 132.08 48.44 131.917 54.852 132.562 61.2591 134 67.51 134.66 70.46 135.22 73.45 135.67 76.45 136.12 78.2274 135.045 80.0334 133.267 80.4838 133.179 80.5062 133.09 80.5249 133 80.54 131.704 80.9444 130.357 81.1632 129 81.19 123.32 81.19 117.63 80.96 112 81.06 108.35 81.13 104.72 81.68 101.08 81.91 98.27 82.09 95.44 82.23 92.62 82.2 89.23 82.2 85.83 81.95 82.44 81.77 80.5892 81.5987 79.1339 80.1138 79 78.26 79 77.63 79.14 77.32 79.78 77.21 90.12 75.45 99.25 70.79 108.17 65.53 112.17 63.15 113.91 59.53 114.65 55.18 115.475 49.8866 115.613 44.5087 115.06 39.18 114.48 32.87 113.76 26.57 113.06 20.26 112.89 18.79 112.65 17.34 112.44 15.82Z" stroke="#231815" stroke-width="2" stroke-miterlimit="10" fill="#FEFE00" fill-rule="evenodd"/><rect x="72.52" y="25.23" width="8.69" height="8.69" fill="#EE0000"/><rect x="84.69" y="25.23" width="8.69" height="8.69" fill="#EE0000"/><rect x="96.86" y="25.23" width="8.69" height="8.69" fill="#EE0000"/><rect x="72.56" y="37.4" width="8.69" height="8.69" fill="#0000F2"/><rect x="84.73" y="37.4" width="8.69" height="8.69" fill="#EE0000"/><rect x="96.9" y="37.4" width="8.69" height="8.69" fill="#0000F2"/><rect x="72.58" y="49.57" width="8.69" height="8.69" fill="#0000F2"/><rect x="84.75" y="49.57" width="8.69" height="8.69" fill="#EE0000"/><rect x="96.93" y="49.57" width="8.69" height="8.69" fill="#0000F2"/><path d="M147.46 0 147.46 3.74 146.34 3.74C119.4 3.74 92.4567 3.74 65.51 3.74 64.8606 3.66144 64.2473 4.05633 64.05 4.68 55.11 23.7867 46.1567 42.8933 37.19 62 33.6567 69.5 30.1333 77.0033 26.62 84.51 26.19 85.42 25.78 86.3 24.54 86.31 23.7372 86.3675 23.0019 85.8607 22.77 85.09 21.26 81.65 19.77 78.23 18.22 74.79L6.57 48.38 6.18 47.59C4.98 48.52 3.82 49.43 2.65 50.31 2.18872 50.698 1.68561 51.0335 1.15 51.31 0.85 51.44 0.15 51.37 0.15 51.22-0.0203621 50.8312-0.0203621 50.3888 0.15 50 0.68203 49.4304 1.27187 48.9176 1.91 48.47L8.82 43.08C8.94162 42.9755 9.07211 42.8818 9.21 42.8 10.32 42.07 10.83 42.15 11.37 43.31 12.19 45.06 12.95 46.84 13.72 48.61 17.8267 57.9433 21.9333 67.2767 26.04 76.61 26.11 76.77 26.21 76.91 26.34 77.15 27.34 75.15 28.23 73.15 29.15 71.2 33.65 61.6 38.1433 51.9967 42.63 42.39 48.83 29.15 55.0233 15.91 61.21 2.67 61.31 2.46 61.43 2.25 61.52 2.04 61.9764 0.725988 63.2762-0.101924 64.66 0.04 91.86 0.08 119.06 0.08 146.26 0.04Z"/><path d="M18.27 37C19.166 37.5035 20.1152 37.9059 21.1 38.2 22.8254 38.591 24.5911 38.7756 26.36 38.75 30.59 38.52 32.36 35.19 31.99 31.33 31.55 27.01 28.74 25.07 24.08 25.63 23.7451 25.6607 23.4074 25.6371 23.08 25.56 22.58 25.45 21.67 25.73 21.68 24.8 21.68 24.16 22.07 24.11 22.53 24.07 23.7287 24.0226 24.9238 23.9091 26.11 23.73 29.3061 22.8898 31.3931 19.8213 31 16.54 30.7939 14.6491 29.3483 13.1298 27.47 12.83 25.2583 12.4014 22.9675 12.6886 20.93 13.65 20.3869 13.9458 19.8655 14.28 19.37 14.65 20.3471 14.8922 21.1026 15.6671 21.32 16.65 21.6447 17.9579 20.8477 19.2813 19.5398 19.606 19.4673 19.624 19.3939 19.6387 19.32 19.65 18.0231 19.8269 16.8283 18.919 16.6514 17.6221 16.6387 17.5285 16.6315 17.4344 16.63 17.34 16.542 15.6888 17.2944 14.1049 18.63 13.13 20.3485 11.8543 22.4115 11.126 24.55 11.04 27.1117 10.7576 29.7003 11.2266 32 12.39 36.08 14.52 36.69 19.02 33.24 22.16 32.076 23.0809 30.8423 23.91 29.55 24.64 30.22 24.89 31.07 25.15 31.87 25.53 34.16 26.61 36.07 28.11 36.73 30.77 37.2718 33.0206 36.5834 35.39 34.92 37 32.7508 39.2443 29.7711 40.5233 26.65 40.55 24.2124 40.7445 21.7617 40.4031 19.47 39.55 17.57 38.8 15.9 37.7 15.36 35.55 15.195 34.7754 15.195 33.9746 15.36 33.2 15.6562 32.0579 16.7475 31.3076 17.92 31.44 19.0687 31.4955 20.0368 32.3159 20.28 33.44 20.6122 34.6457 20.0527 35.9191 18.94 36.49 18.74 36.59 18.53 36.66 18.32 36.75Z"/></g></g></svg>