<svg viewBox="0 0 202 117.47" xmlns="http://www.w3.org/2000/svg" xmlns:xlink="http://www.w3.org/1999/xlink" overflow="hidden"><defs></defs><g id="Layer_2"><g id="图层_1"><path d="M201 29.87 201 58.74 176.14 73.09 176.07 73.05 201 29.87Z" fill="#404040"/><path d="M201 1 201 29.87 176 15.44 201 1Z" fill="#404040"/><path d="M201 29.87 176.07 73.05 151.3 58.75 151.3 58.91 151 58.74 176 15.44 201 29.87Z" fill="#404040"/><path d="M176.34 73.21 151.3 87.68 151.3 58.91 176 73.17 176.14 73.09 176.34 73.21Z" fill="#404040"/><path d="M176.14 73.09 176 73.17 176.07 73.05 176.14 73.09Z" fill="#404040"/><path d="M176.07 73.05 176 73.17 151.3 58.91 151.3 58.75 176.07 73.05Z" fill="#404040"/><path d="M176 15.44 151 58.74 151 29.87 176 15.44Z" fill="#FFFF00"/><path d="M151 58.74 151 87.6 126 102.04 151 58.74Z" fill="#404040"/><path d="M151 29.87 151 58.74 126 44.3 151 29.87Z" fill="#404040"/><rect x="101" y="58.73" width="50" height="28.87" fill="#404040" transform="matrix(0.5 -0.866025 0.866025 0.5 -0.37 145.7)"/><path d="M151 29.87 126 44.3 126 15.44 151 29.87Z" fill="#404040"/><rect x="76" y="15.44" width="50" height="28.86" fill="#FFFF00"/><path d="M126 44.3 101 87.6 101 58.74 126 44.3Z" fill="#404040"/><path d="M126 15.44 76 15.44 101 1 126 15.44Z" fill="#FFFF00"/><path d="M126 44.3 101 58.74 76 44.3 126 44.3Z" fill="#FFFF00"/><path d="M126 102.04 101 116.47 101 87.6 126 102.04Z" fill="#404040"/><path d="M101 87.6 101 116.47 76 102.04 101 87.6Z" fill="#FF0000"/><path d="M101 58.74 101 87.6 76 44.3 101 58.74Z" fill="#404040"/><path d="M76 44.3 101 87.6 76 102.04 51.1 58.91 51.1 58.75 51.07 58.7 76 44.3Z" fill="#FF0000"/><path d="M76 15.44 76 44.3 51 29.87 76 15.44Z" fill="#404040"/><path d="M51.1 58.91 76 102.04 51.1 87.66 51.1 58.91Z" fill="#FF0000"/><path d="M76 44.3 51.07 58.7 51 58.58 51 29.87 76 44.3Z" fill="#404040"/><path d="M51.1 87.66 51.1 87.68 26.05 73.21 51 58.81 51 87.6 51.1 87.66Z" fill="#0000F2"/><path d="M51.1 58.91 51.1 87.66 51 87.6 51 58.81 51.03 58.79 51.1 58.91Z" fill="#0000F2"/><path d="M51.1 58.75 51.1 58.91 51.03 58.79 51.1 58.75Z" fill="#0000F2"/><path d="M51.07 58.7 51.1 58.75 51.03 58.79 51 58.74 51.07 58.7Z" fill="#00D800"/><path d="M51 58.58 51.07 58.7 51 58.74 51 58.58Z" fill="#00D800"/><path d="M51 58.74 51.03 58.79 51 58.81 51 58.74Z" fill="#00D800"/><path d="M51 58.74 51 58.81 26.05 73.21 1.02 29.86 26 15.44 51 58.74Z" fill="#00D800"/><path d="M51 58.58 51 58.74 26 15.44 26.14 15.52 51 58.58Z" fill="#00D800"/><path d="M51 29.87 51 58.58 26.14 15.52 51 29.87Z" fill="#FFFF00"/><path d="M26.14 15.52 26 15.44 25.96 15.42 26.05 15.37 26.14 15.52Z" fill="#00D800"/><path d="M1.02 29.86 26.05 73.21 1 58.75 1 29.87 1.02 29.86Z" fill="#0000F2"/><path d="M26 15.44 1.02 29.86 1 29.83 25.96 15.42 26 15.44Z" fill="#00D800"/><path d="M1 1 25.96 15.42 1 29.83 1 1Z" fill="#404040"/><path d="M1.02 29.86 1 29.87 1 29.83 1.02 29.86Z" fill="#0000F2"/><path d="M126 15.44 101 1 76 15.44" stroke="#000000" stroke-width="2" stroke-linejoin="round" fill="none"/><line x1="151" y1="29.87" x2="126" y2="15.44" stroke="#000000" stroke-width="2" stroke-linejoin="round" fill="none"/><line x1="76" y1="15.44" x2="51" y2="29.87" stroke="#000000" stroke-width="2" stroke-linejoin="round" fill="none"/><rect x="76" y="15.44" width="50" height="28.86" stroke="#000000" stroke-width="2" stroke-linejoin="round" fill="none"/><line x1="126" y1="44.3" x2="101" y2="58.74" stroke="#000000" stroke-width="2" stroke-linejoin="round" fill="none"/><line x1="151" y1="29.87" x2="126" y2="44.3" stroke="#000000" stroke-width="2" stroke-linejoin="round" fill="none"/><line x1="101" y1="116.47" x2="126" y2="102.04" stroke="#000000" stroke-width="2" stroke-linejoin="round" fill="none"/><path d="M126 102.04 151 87.6 151 58.74" stroke="#000000" stroke-width="2" stroke-linejoin="round" fill="none"/><rect x="101" y="58.73" width="50" height="28.87" stroke="#000000" stroke-width="2" stroke-linejoin="round" fill="none" transform="matrix(0.5 -0.866025 0.866025 0.5 -0.37 145.7)"/><line x1="76" y1="44.3" x2="51" y2="29.87" stroke="#000000" stroke-width="2" stroke-linejoin="round" fill="none"/><path d="M101 87.6 101 58.74 76 44.3" stroke="#000000" stroke-width="2" stroke-linejoin="round" fill="none"/><line x1="51.1" y1="87.66" x2="76" y2="102.04" stroke="#000000" stroke-width="2" stroke-linejoin="round" fill="none"/><path d="M76 102.04 101 116.47 101 87.6" stroke="#000000" stroke-width="2" stroke-linejoin="round" fill="none"/><path d="M51.1 58.91 76 102.04 101 87.6 76 44.3 51.07 58.7" stroke="#000000" stroke-width="2" stroke-linejoin="round" fill="none"/><path d="M25.96 15.42 1 1 1 29.83" stroke="#000000" stroke-width="2" stroke-linejoin="round" fill="none"/><path d="M51 58.58 51 29.87 26.14 15.52" stroke="#000000" stroke-width="2" stroke-linejoin="round" fill="none"/><path d="M1 29.87 1 58.75 26.05 73.21" stroke="#000000" stroke-width="2" stroke-linejoin="round" fill="none"/><path d="M26.05 73.21 51.1 87.68 51.1 87.66 51.1 58.91 51.1 58.75" stroke="#000000" stroke-width="2" stroke-linejoin="round" fill="none"/><path d="M51.1 58.75 51.07 58.7 51 58.58 26.14 15.52 26.05 15.37 25.96 15.42 1 29.83 1.02 29.86 26.05 73.21 51 58.81 51.03 58.79 51.1 58.75Z" stroke="#000000" stroke-width="2" stroke-linejoin="round" fill="none"/><path d="M176 15.44 151 29.87 151 58.74" stroke="#000000" stroke-width="2" stroke-linejoin="round" fill="none"/><path d="M201 29.87 201 1 176 15.44" stroke="#000000" stroke-width="2" stroke-linejoin="round" fill="none"/><path d="M151.3 58.91 151.3 87.68 176.34 73.21 176.14 73.09 176.07 73.05 151.3 58.75 151.3 58.91Z" stroke="#000000" stroke-width="2" stroke-linejoin="round" fill="none"/><path d="M176.14 73.09 201 58.74 201 29.87" stroke="#000000" stroke-width="2" stroke-linejoin="round" fill="none"/><path d="M176.07 73.05 201 29.87 176 15.44 151 58.74 151.3 58.91" stroke="#000000" stroke-width="2" stroke-linejoin="round" fill="none"/></g></g></svg>