<svg width="79.9997" height="79.9997" viewBox="0 0 2117 2117" xmlns="http://www.w3.org/2000/svg" xmlns:xlink="http://www.w3.org/1999/xlink" fill-rule="evenodd" clip-rule="evenodd" overflow="hidden"><defs></defs><g id="Layer_x0020_1"><path d="M2074 1058C2074 497 1619 42 1058 42 497 42 42 497 42 1058 42 1619 497 2074 1058 2074 1619 2074 2074 1619 2074 1058ZM2040 1058C2040 516 1601 76 1058 76 516 76 76 516 76 1058 76 1601 516 2040 1058 2040 1601 2040 2040 1601 2040 1058Z" fill="#005CAA"/><path d="M1187 605C1116 587 1041 574 960 570 996 578 1075 649 1089 670 1097 682 1072 636 1083 621 1094 606 1154 601 1187 605Z" fill="#005CAA"/><path d="M1054 1385 1065 1385 1092 1385C1072 1290 1254 1329 1321 1337 1412 1348 1455 1343 1479 1344 1479 1344 1479 1346 1466 1337 1452 1327 1437 1307 1437 1307 1350 1306 1304 1298 1228 1269 1187 1254 1081 1234 1061 1327L1058 1327C1038 1234 932 1254 891 1269 815 1298 769 1306 682 1307 682 1307 667 1327 654 1337 640 1346 640 1344 640 1344 664 1343 707 1348 798 1337 865 1329 1047 1290 1027 1385L1054 1385Z" fill="#005CAA"/><path d="M1385 1274C1438 1164 1477 1012 1410 870 1349 741 1208 672 1132 647 1142 652 1149 656 1166 666 1200 691 1226 726 1237 767 1238 771 1239 775 1239 779 1242 792 1243 805 1243 818 1243 821 1243 823 1243 825 1244 890 1226 962 1184 1024 1088 1170 897 1248 851 1272 972 1238 1141 1125 1195 1035 1253 948 1265 837 1249 762 1313 880 1312 1057 1098 1255 1158 1219 1257 1106 1284 1007 1321 880 1279 773 1230 715 1282 770 1350 875 1348 977 1349 1032 1312 1170 1251 1263 1304 1188 1363 1085 1363 968 1363 859 1290 752 1231 702 1292 741 1365 803 1405 894 1467 1037 1411 1193 1385 1274Z" fill="#005CAA"/><path d="M719 910 719 1019 692 1019 692 948C688 951 684 954 679 957 675 959 670 961 664 963L664 939C673 936 680 932 685 927 690 923 694 917 697 910L719 910Z" fill="#005CAA" fill-rule="nonzero"/><path d="M758 995 784 991C785 995 786 998 787 1000 789 1002 791 1002 793 1002 798 1002 801 1000 803 995 805 992 807 984 807 973 804 976 801 979 798 981 794 982 790 983 786 983 777 983 770 980 764 973 759 966 756 958 756 947 756 940 757 934 760 928 763 922 767 918 772 915 778 912 784 910 792 910 802 910 809 912 815 916 821 920 826 925 829 933 832 941 834 952 834 965 834 984 830 998 823 1007 816 1016 806 1020 793 1020 786 1020 780 1019 775 1018 771 1016 767 1013 764 1009 761 1005 759 1001 758 995ZM806 947C806 942 805 937 803 934 800 931 797 929 793 929 790 929 787 930 784 933 782 936 781 941 781 947 781 953 782 957 784 960 787 963 790 965 793 965 797 965 800 964 803 960 805 957 806 953 806 947Z" id="_1" fill="#005CAA" fill-rule="nonzero"/><path d="M865 912 928 912 928 936 885 936 883 952C886 950 889 949 892 948 894 948 897 947 900 947 910 947 917 950 923 957 929 963 932 971 932 981 932 988 931 995 928 1001 925 1007 920 1012 915 1015 909 1019 902 1020 893 1020 887 1020 881 1020 877 1018 872 1017 869 1015 866 1012 862 1010 860 1007 858 1003 856 1000 854 996 853 991L880 988C880 993 882 996 884 999 887 1001 889 1003 893 1003 897 1003 900 1001 902 998 904 995 906 990 906 984 906 977 904 973 902 970 900 967 896 965 892 965 890 965 887 966 885 968 883 969 881 970 879 973L856 969 865 912Z" id="_2" fill="#005CAA" fill-rule="nonzero"/><path d="M968 961C964 959 960 956 959 953 956 949 955 944 955 939 955 930 958 923 966 917 972 913 980 910 989 910 1002 910 1011 913 1017 919 1024 924 1027 931 1027 939 1027 944 1025 948 1023 952 1021 956 1018 958 1014 961 1019 964 1023 968 1026 972 1028 977 1030 982 1030 988 1030 993 1029 998 1026 1002 1024 1007 1021 1011 1018 1013 1015 1016 1011 1018 1006 1019 1002 1020 997 1020 991 1020 981 1020 973 1019 968 1017 963 1014 959 1010 956 1005 953 1000 952 994 952 987 952 981 953 976 956 972 958 967 962 964 968 961ZM980 941C980 944 981 947 983 949 985 952 987 953 991 953 994 953 996 952 998 950 1000 947 1001 944 1001 941 1001 937 1000 934 998 932 996 930 994 928 990 928 987 928 985 930 983 932 981 934 980 937 980 941ZM978 986C978 991 979 995 982 998 984 1001 987 1002 991 1002 994 1002 997 1001 999 998 1002 995 1003 991 1003 986 1003 982 1002 978 999 975 997 972 994 970 990 970 987 970 984 972 982 975 979 977 978 981 978 986Z" id="_3" fill="#005CAA" fill-rule="nonzero"/><path d="M1058 519C1356 519 1597 761 1597 1058 1597 1356 1356 1597 1058 1597 761 1597 519 1356 519 1058 519 761 761 519 1058 519ZM1058 541C1344 541 1576 773 1576 1058 1576 1344 1344 1576 1058 1576 773 1576 541 1344 541 1058 541 773 773 541 1058 541Z" fill="#005CAA"/><path d="M197 705C212 690 225 682 235 683L255 694 265 657C271 646 277 640 281 641L287 645C292 656 295 667 298 678L300 697C304 687 310 680 319 675L324 675C330 678 330 686 326 701 325 706 327 719 332 741 350 751 361 760 365 768 375 775 380 779 381 781 379 785 371 785 356 781 352 781 342 780 328 777 326 785 320 789 311 787 305 799 292 805 272 807L248 802C237 797 233 793 235 787 240 781 245 778 249 777 246 768 245 754 246 736L244 734C210 720 194 711 197 705ZM283 712 286 713C290 716 292 717 293 716 290 696 286 681 280 671L279 670C274 684 272 696 273 705L283 712ZM277 772C293 776 302 777 303 774L304 773 299 761 299 761 293 758 288 756 284 753 278 751 271 747 271 747C269 752 271 761 277 772ZM379 408C391 398 401 393 411 393 426 398 441 408 458 423L471 436 501 461 522 479C530 486 534 495 533 504 531 516 527 526 519 535L492 546 486 560 486 560 472 581C468 585 462 587 454 587L454 588C457 592 457 596 455 598 449 602 442 600 432 593 421 577 410 564 398 555L367 534C352 517 347 507 350 504 347 491 347 480 351 471 353 451 363 430 379 408ZM384 508C382 490 385 477 393 467 401 461 407 460 408 462 415 466 421 473 425 484 428 482 431 480 435 478 437 478 440 478 443 475L445 474C457 464 465 461 469 464L471 464 473 465C477 473 478 482 476 490 476 512 471 531 461 546L459 549C454 551 450 551 445 548L444 548C440 544 438 537 436 527L436 527 432 532 431 533C426 536 420 536 413 533 408 529 408 518 414 499L407 488 406 487C395 507 392 519 395 522 399 525 403 531 409 539L411 543 415 547 434 562 443 573C449 578 455 577 463 569 473 555 477 547 476 545L468 545 466 543 468 541 483 534 492 517 493 517 493 517 494 523 502 515C508 502 509 493 504 487 502 485 498 480 490 473L482 465 476 460 461 449 443 433 403 410C399 409 395 411 392 414L385 422C373 435 368 451 369 468 367 485 372 498 384 508ZM433 503 434 505 433 500 429 495C430 499 431 501 433 503ZM443 480 451 487 456 494 458 488C458 484 457 481 455 479 451 478 448 478 446 478L443 480ZM418 522 420 524 422 524 422 524C423 521 423 517 421 513L419 512 418 515 418 522ZM642 203C647 201 655 204 666 210 672 214 677 221 681 228L687 237C700 243 710 248 716 253 730 254 737 256 738 258 741 262 737 269 724 278 717 286 715 292 717 296L721 309 722 317C725 324 729 337 732 356L738 376 740 380 740 383 739 384C727 380 714 366 700 342L694 331 691 328C690 333 681 342 665 355 660 357 655 358 652 357L650 355 648 352 647 350 645 345C644 342 645 337 649 331 653 311 655 298 654 292L645 285C642 295 640 308 639 323 638 340 638 349 639 350L641 355C646 365 653 374 660 382 661 386 662 389 661 389L659 390C649 390 641 384 634 372L633 372 631 375C631 377 628 384 622 395 620 400 615 404 607 408 602 407 597 404 593 399L592 395C590 391 591 379 596 360L600 334 599 332C590 345 583 352 580 354 576 357 572 355 570 351 567 346 569 338 574 328L581 303 586 278C587 272 587 264 584 255L588 245C593 241 598 241 604 247L605 247C606 255 605 263 603 272 598 285 594 297 591 309L580 337 581 337 583 336C586 332 595 323 609 309 607 299 607 288 611 276 611 275 612 274 614 273 619 270 628 272 642 279 642 273 642 268 639 263L638 263 637 264 636 265C635 265 634 265 633 263 631 252 633 245 640 242 644 243 649 245 653 249L655 248 654 244 650 235 647 227 641 209 642 203ZM620 299 620 300 622 299C624 295 625 292 625 288L623 285 621 286C620 288 620 292 620 299ZM659 274C661 275 662 275 664 276 665 277 665 275 662 269L660 266 659 267C658 269 658 271 659 274ZM628 331C629 330 631 323 635 307L636 302 637 296 631 301C625 306 623 311 624 315 625 320 627 325 628 331ZM701 266 703 271 703 272 704 271 705 273C705 271 705 269 704 267 703 265 702 265 702 265L701 266ZM606 324 607 325 612 323 613 323 612 319 611 320 606 324ZM670 318 671 316C676 311 678 307 678 305L677 302 673 301C671 309 670 314 670 318ZM614 369 616 369 617 369C622 358 624 351 622 348L619 342 614 369ZM860 131 861 131C863 131 866 135 872 145 875 147 877 151 878 157L881 159C882 168 881 174 878 176 872 177 866 173 859 163L855 155 854 135C856 133 858 132 860 131ZM944 127C957 124 966 128 969 137 967 141 960 145 949 149L935 160 935 161C947 163 957 168 966 177 971 184 973 190 974 194 973 206 969 213 960 215L943 220C944 230 942 239 937 247 938 253 939 256 941 255L949 252 949 251 944 248 949 247C969 247 979 250 981 257L981 258C981 264 978 268 972 269L960 267 950 267 953 283C954 291 949 298 938 305L919 306 896 298 896 296C918 293 932 286 936 277L935 274 933 275 919 279C900 283 890 282 889 276L888 276C888 273 898 269 919 265 921 264 924 262 928 260L925 257 921 251C920 248 922 243 926 234L927 225 924 222 922 223C919 224 913 229 905 240 904 240 902 239 901 236 902 220 905 211 911 210L915 208 919 207 923 208C925 207 928 209 934 213L954 198C955 192 956 189 956 187 954 180 947 175 933 172 924 175 912 187 896 210 886 219 881 232 879 251L876 260C866 261 857 255 850 240 850 232 856 221 870 205 897 177 915 161 923 157L923 156C914 155 907 154 902 150 899 151 897 150 897 147L903 144 915 143C926 138 936 133 944 127ZM929 150 930 150C935 147 938 144 938 141L937 140C935 142 932 145 929 150ZM1236 133C1246 137 1250 144 1248 154L1247 159C1245 161 1251 166 1263 173 1270 172 1274 175 1278 180L1277 185C1269 190 1253 198 1229 208 1227 208 1225 211 1224 217 1237 219 1245 226 1246 236L1244 251C1242 259 1240 266 1238 271 1258 285 1267 296 1264 307 1259 313 1254 317 1248 318 1245 317 1238 311 1228 301L1222 294C1215 298 1202 299 1183 297 1176 297 1169 290 1162 278L1161 278 1161 279 1162 302 1160 305 1155 305C1152 302 1147 294 1142 280 1137 269 1133 263 1131 263 1127 264 1120 265 1110 263 1098 259 1092 253 1093 245L1106 234 1106 232 1106 231C1107 226 1110 224 1114 225L1120 227C1130 229 1143 226 1160 218L1174 179 1161 180C1154 178 1149 175 1147 172 1148 165 1153 163 1160 165L1175 165C1179 165 1182 163 1185 158 1189 152 1192 147 1194 144 1199 137 1204 134 1209 132 1214 133 1217 136 1220 141L1217 148C1212 155 1206 163 1200 173 1195 182 1189 193 1183 206L1181 211 1182 210 1194 202 1192 199C1192 196 1200 194 1214 193 1222 169 1227 154 1229 150 1230 146 1229 143 1228 139L1228 136C1229 133 1232 132 1236 133ZM1245 164 1233 190C1247 187 1255 184 1256 182 1254 175 1251 169 1246 165L1245 164ZM1197 206C1192 215 1183 226 1170 238 1168 241 1167 245 1166 250L1163 267C1170 278 1178 285 1186 286 1197 285 1205 283 1209 279L1201 267 1184 250 1191 248C1205 253 1216 258 1222 263L1229 249C1230 239 1230 234 1228 234L1225 234C1223 235 1219 238 1215 244L1213 243C1208 243 1206 235 1207 220L1211 210 1210 209 1204 210 1201 209 1197 206ZM1145 259 1146 262 1147 263 1146 260 1146 258 1147 257 1145 259ZM1541 252C1553 264 1561 276 1565 286L1564 286 1563 288 1563 289C1560 295 1554 297 1545 298 1537 293 1532 288 1533 282 1532 280 1531 274 1532 265L1532 257 1533 253C1534 251 1537 251 1541 252ZM1509 237C1515 240 1512 252 1503 271L1502 273 1500 276C1496 280 1492 287 1485 297L1485 298 1486 298C1498 299 1505 298 1507 297L1508 285 1509 284 1510 285C1512 289 1515 293 1520 297L1525 298C1530 303 1532 306 1531 309 1529 312 1522 313 1510 311L1491 311C1486 312 1480 312 1473 312L1455 337C1459 339 1466 339 1474 336L1477 338C1484 347 1486 355 1483 360 1479 371 1478 377 1480 378 1480 382 1480 387 1480 393 1476 401 1469 403 1457 399 1446 393 1443 385 1448 375 1452 360 1452 351 1448 349L1448 349 1436 368 1424 393C1422 396 1420 397 1419 397L1418 396C1414 392 1413 384 1413 372L1417 362 1430 344 1429 344C1412 347 1402 350 1399 354 1383 364 1374 368 1370 364 1363 354 1362 345 1368 335 1376 321 1398 313 1436 309L1441 310 1445 317 1445 323 1451 314 1454 310 1454 310 1453 309 1438 305C1433 303 1431 295 1432 282 1434 279 1436 278 1439 278L1446 285C1451 288 1458 290 1467 292L1500 248 1502 243C1505 238 1507 236 1509 237ZM1417 333 1418 334 1434 336 1437 331C1439 324 1440 320 1438 319 1433 321 1426 325 1417 333ZM1727 429C1734 437 1726 450 1705 468L1687 481 1708 494 1709 494C1712 491 1713 485 1714 475L1717 477C1719 488 1725 500 1735 513 1736 518 1734 521 1731 523 1728 526 1719 523 1706 515 1680 500 1666 494 1663 496 1646 507 1627 512 1604 511L1595 508C1589 501 1586 494 1587 486L1589 483C1595 482 1602 484 1610 490 1613 493 1622 493 1638 490L1649 485 1648 484 1633 471C1628 463 1627 452 1632 439L1632 438 1634 436C1635 435 1637 436 1640 437 1643 447 1646 454 1649 456 1660 469 1669 473 1674 469L1694 454 1696 452C1705 443 1710 435 1711 429L1713 425C1717 422 1722 423 1727 429ZM1660 525C1665 539 1666 555 1662 573L1658 579C1652 584 1643 583 1630 576 1625 571 1628 562 1637 548 1642 538 1642 529 1640 522L1639 521 1640 520C1650 519 1657 521 1660 525ZM1889 658 1890 659C1890 661 1887 665 1878 672 1877 676 1874 679 1868 681L1867 684C1858 687 1852 688 1849 685 1847 680 1850 672 1858 663L1865 658 1884 653C1887 654 1888 656 1889 658ZM1911 739C1916 752 1915 761 1907 766 1902 765 1896 759 1890 749L1877 738 1876 738C1876 749 1873 761 1867 772 1861 778 1855 781 1852 783 1839 784 1832 781 1829 774L1819 758C1810 760 1801 760 1792 757 1787 760 1784 762 1785 763L1790 770 1790 770 1793 765 1795 769C1799 788 1798 800 1791 802L1790 803C1784 804 1780 802 1778 796L1778 784 1775 774 1760 781C1753 783 1745 780 1736 770L1731 752 1734 728 1735 727C1743 748 1752 760 1762 763L1765 762 1764 759 1757 747C1750 729 1749 719 1754 717L1754 716C1757 715 1763 724 1771 744 1772 745 1774 748 1777 752L1780 748 1785 743C1787 741 1793 742 1802 744L1811 743 1814 739 1812 738C1811 735 1804 730 1792 724 1792 723 1793 722 1795 719 1811 718 1821 719 1823 725L1825 727 1827 732 1828 735C1828 737 1827 741 1825 747L1844 763C1849 764 1853 764 1854 763 1862 760 1865 752 1864 738 1860 730 1845 720 1820 709 1809 702 1795 699 1777 702L1767 700C1763 690 1768 681 1781 671 1788 669 1801 673 1819 683 1852 704 1872 718 1877 725L1878 725C1877 716 1877 709 1879 703 1878 700 1879 698 1882 697L1886 703 1890 714C1896 724 1904 733 1911 739ZM1885 729 1886 730C1890 735 1893 737 1896 737L1896 736C1894 734 1891 732 1885 729Z" fill="#005CAA" fill-rule="nonzero"/><path d="M245 1066 248 1066C249 1073 249 1079 249 1082 250 1086 250 1091 251 1098L248 1099 247 1095C247 1091 246 1089 245 1088 243 1088 237 1088 227 1089L205 1091C197 1091 192 1092 189 1093 186 1094 183 1097 182 1101 180 1104 179 1109 180 1115 180 1122 182 1127 184 1131 186 1134 189 1136 192 1137 196 1138 202 1138 211 1137L232 1136C242 1135 247 1134 248 1133 250 1132 250 1129 250 1126L250 1123 253 1122C253 1130 254 1135 254 1137 254 1140 254 1144 255 1149L252 1150 251 1146C251 1143 250 1141 249 1140 247 1140 241 1140 232 1141L212 1142C202 1143 196 1143 192 1142 189 1142 186 1140 183 1138 180 1136 178 1133 176 1129 174 1125 173 1120 173 1114 172 1108 172 1103 173 1099 174 1094 176 1091 178 1089 180 1086 182 1084 185 1083 188 1082 192 1081 199 1081L210 1080 227 1079C237 1078 243 1077 244 1076 245 1075 245 1073 245 1070L245 1066Z" fill="#005CAA" fill-rule="nonzero"/><path d="M223 1176 232 1183C233 1184 233 1185 234 1186 235 1188 236 1191 236 1193 237 1197 237 1200 236 1204 235 1207 233 1209 231 1211 228 1212 225 1214 219 1215L202 1217C196 1218 193 1219 192 1220 191 1221 191 1222 191 1224L192 1228 189 1229C188 1225 188 1221 187 1219 187 1216 186 1213 185 1210 192 1209 202 1208 214 1206 219 1205 222 1204 224 1203 226 1201 227 1200 228 1198 229 1195 229 1193 229 1190 228 1186 227 1184 225 1181 222 1179 220 1178 218 1178 217 1178 213 1178 207 1179 200 1180 194 1182 189 1183 187 1183 186 1183 185 1184 185 1185 185 1187 185 1189L186 1192 182 1193C182 1187 181 1182 180 1178 180 1175 179 1170 178 1165L181 1165 182 1169C182 1171 183 1173 184 1173 185 1173 193 1172 207 1170 213 1169 218 1168 221 1167 222 1167 223 1166 224 1166 224 1165 224 1164 223 1161L223 1157 226 1157C227 1160 228 1163 229 1165 230 1167 231 1170 233 1173 233 1173 233 1173 233 1174 234 1174 233 1175 232 1175L230 1175 223 1176Z" id="_1_0" fill="#005CAA" fill-rule="nonzero"/><path d="M270 1233C270 1234 270 1236 269 1237 268 1239 266 1240 265 1240 263 1241 262 1240 260 1239 259 1238 258 1237 257 1236 257 1234 257 1232 258 1231 259 1229 260 1228 262 1228 264 1228 265 1228 267 1229 268 1230 269 1231 270 1233ZM247 1243 246 1244C244 1244 241 1245 237 1246 227 1248 219 1250 214 1251 210 1252 206 1253 202 1254 201 1254 200 1255 200 1256 200 1256 200 1258 200 1260L200 1264 197 1264C196 1259 195 1254 194 1250 193 1246 192 1241 191 1237L194 1237 195 1241C196 1243 197 1244 197 1244 198 1244 200 1244 203 1244 207 1243 213 1241 221 1239 227 1238 231 1237 234 1236 235 1236 236 1235 236 1235 236 1234 236 1233 236 1231L235 1227 238 1226C240 1230 241 1233 242 1235 243 1237 245 1240 247 1243Z" id="_2_1" fill="#005CAA" fill-rule="nonzero"/><path d="M257 1298 260 1297C260 1300 261 1304 262 1307 263 1310 264 1313 265 1317L262 1318 262 1316C262 1316 261 1315 261 1314 260 1314 260 1313 259 1313 259 1313 256 1312 251 1311 242 1310 234 1308 229 1307 224 1307 216 1306 207 1305L206 1299C216 1291 226 1283 236 1275 239 1273 242 1271 243 1270 245 1268 246 1267 247 1266 247 1265 247 1263 247 1262L246 1260 249 1259C251 1265 252 1269 253 1272 254 1276 255 1280 256 1285L253 1285 253 1283C252 1281 251 1280 251 1279 250 1278 250 1278 249 1278 248 1278 247 1279 245 1280 244 1281 234 1289 217 1302L242 1305C248 1306 252 1306 255 1306 255 1306 256 1306 256 1306 257 1306 257 1305 257 1305 258 1304 257 1303 257 1301L257 1298Z" id="_3_2" fill="#005CAA" fill-rule="nonzero"/><path d="M248 1342C242 1345 237 1349 235 1353 233 1358 233 1363 235 1368 236 1371 237 1373 239 1375 241 1377 243 1379 245 1381L245 1382 240 1382C237 1380 235 1377 233 1375 231 1372 229 1369 228 1366 225 1359 225 1352 228 1346 230 1340 235 1336 243 1333 249 1330 254 1330 259 1330 263 1331 266 1333 270 1336 274 1339 277 1343 279 1347 281 1353 281 1359 279 1364 277 1369 273 1372 266 1375L263 1376C262 1374 261 1372 260 1370 258 1366 256 1361 253 1355L248 1342ZM252 1341C254 1346 256 1352 259 1358 260 1361 261 1363 262 1366L265 1365C268 1363 270 1362 273 1359 274 1358 275 1356 275 1354 276 1351 275 1349 274 1346 273 1343 270 1340 266 1339 263 1338 258 1338 252 1341Z" id="_4" fill="#005CAA" fill-rule="nonzero"/><path d="M286 1397C288 1398 290 1399 293 1400 296 1400 299 1401 300 1403 302 1404 303 1405 304 1407 305 1409 305 1410 305 1412 305 1412 305 1413 305 1413L304 1413C301 1414 297 1415 292 1417L291 1415C293 1413 293 1412 294 1411 294 1409 294 1408 293 1406 292 1404 291 1403 288 1402 286 1401 284 1400 281 1401 279 1401 274 1403 267 1406 262 1408 258 1410 255 1412 254 1413 254 1414 253 1414 253 1416 254 1418 255 1420L256 1423 253 1425C251 1419 249 1415 247 1410 245 1405 243 1401 241 1397L244 1395 246 1400C247 1402 248 1403 249 1403 250 1403 251 1403 254 1402 259 1400 265 1397 272 1394 280 1391 284 1388 285 1387 286 1386 286 1384 285 1382L283 1378 286 1377C288 1380 289 1382 291 1385 293 1387 295 1389 296 1390 297 1391 297 1391 297 1391 297 1392 297 1392 297 1392 297 1393 297 1393 296 1393L286 1397Z" id="_5" fill="#005CAA" fill-rule="nonzero"/><path d="M280 1441 277 1442C275 1444 273 1445 273 1445 272 1447 272 1449 272 1452 272 1455 273 1458 275 1460 276 1464 279 1466 281 1467 284 1468 287 1468 290 1467 292 1466 293 1465 294 1463 294 1461 294 1458 293 1454 291 1447 290 1442 290 1439 289 1437 290 1435 291 1433 292 1431 294 1429 296 1428 301 1426 305 1426 309 1427 314 1429 317 1433 320 1439 323 1443 324 1448 324 1454 322 1455 318 1456 313 1459L311 1456C314 1455 316 1453 317 1452 317 1451 318 1449 318 1446 318 1444 317 1441 316 1439 315 1436 313 1434 310 1433 308 1432 305 1432 303 1433 301 1435 300 1436 299 1438 299 1440 300 1445 302 1452 303 1457 304 1461 304 1463 304 1464 303 1466 302 1468 301 1470 299 1471 297 1472 292 1475 287 1475 282 1473 277 1470 273 1466 270 1460 268 1456 266 1451 265 1445 265 1444 265 1444 265 1443L266 1443C267 1443 267 1443 269 1442 272 1441 275 1440 276 1439L279 1438 280 1441Z" id="_6" fill="#005CAA" fill-rule="nonzero"/><path d="M362 1464C363 1466 363 1467 363 1469 363 1470 362 1472 360 1473 359 1473 357 1474 355 1473 354 1473 352 1472 352 1470 351 1469 350 1467 351 1466 351 1464 352 1463 354 1462 355 1461 357 1461 359 1461 360 1462 362 1463 362 1464ZM343 1480 343 1482C341 1483 338 1484 335 1486 326 1491 319 1495 314 1497 310 1499 307 1502 304 1504 303 1504 302 1505 302 1506 302 1507 302 1508 303 1510L304 1513 302 1515C299 1510 297 1506 295 1502 293 1498 290 1494 288 1491L291 1489 294 1493C295 1494 295 1495 296 1495 297 1496 298 1495 301 1493 305 1491 311 1488 318 1484 323 1481 327 1479 329 1478 330 1477 331 1476 331 1475 331 1475 331 1473 330 1472L328 1468 331 1467C333 1470 335 1473 337 1474 338 1476 341 1478 343 1480Z" id="_7" fill="#005CAA" fill-rule="nonzero"/><path d="M354 1515 336 1527C331 1530 328 1532 327 1533 326 1534 325 1536 325 1537 325 1538 325 1540 326 1541 327 1542 328 1543 328 1544 329 1544 330 1545 332 1545L331 1548 323 1546C322 1546 321 1545 320 1544 319 1543 319 1542 318 1542 317 1539 316 1537 316 1535 315 1533 316 1531 317 1530 317 1528 319 1526 322 1525L331 1519 348 1508C347 1505 345 1503 343 1500L345 1499C348 1501 351 1503 353 1504 358 1502 363 1498 368 1495 371 1498 374 1499 376 1500L376 1502C373 1503 368 1507 358 1512 361 1516 363 1519 364 1522L367 1525 362 1528 361 1526 355 1517 354 1515Z" id="_8" fill="#005CAA" fill-rule="nonzero"/><path d="M308 1578 316 1575 317 1576C317 1577 317 1579 317 1580 317 1581 317 1582 318 1583 319 1585 321 1586 324 1586 327 1586 334 1584 344 1581 346 1577 351 1569 357 1558L364 1546 369 1537C371 1534 371 1531 369 1529L368 1527 370 1525C372 1529 375 1531 376 1534 378 1535 381 1540 386 1546L384 1548 382 1545C381 1544 380 1543 379 1543 378 1543 378 1543 377 1543 377 1544 376 1545 375 1546 369 1556 363 1566 357 1577 369 1574 379 1571 389 1568 392 1567 394 1566 394 1566 395 1565 395 1564 394 1561L392 1558 394 1556C397 1559 399 1562 401 1565 403 1568 405 1570 408 1572L405 1574 404 1573C403 1572 402 1572 402 1571 401 1571 400 1571 399 1571 396 1571 389 1573 376 1576 372 1577 362 1580 347 1584 333 1588 326 1590 324 1590 322 1591 319 1590 317 1589 314 1588 312 1587 310 1585 310 1584 309 1583 309 1582 308 1581 308 1580 308 1578Z" id="_9" fill="#005CAA" fill-rule="nonzero"/><path d="M427 1635C431 1631 435 1629 439 1628 444 1626 449 1627 453 1628 458 1630 462 1632 466 1636 471 1642 474 1648 473 1655 473 1661 470 1667 465 1673 458 1679 451 1682 443 1681 436 1680 429 1677 424 1672 419 1666 417 1660 417 1653 417 1647 421 1640 427 1635ZM437 1639C431 1645 428 1650 426 1656 424 1662 425 1667 429 1672 432 1675 436 1676 440 1676 445 1676 449 1673 454 1668 458 1664 461 1661 463 1657 465 1653 466 1649 465 1646 465 1643 463 1640 461 1637 459 1635 457 1634 454 1633 452 1632 449 1633 446 1633 443 1635 440 1637 437 1639Z" id="_10" fill="#005CAA" fill-rule="nonzero"/><path d="M497 1678 482 1694C476 1702 472 1707 472 1708 471 1709 472 1711 475 1713L478 1716 476 1719C472 1714 469 1711 467 1710L453 1699 456 1696 458 1699C460 1700 462 1701 463 1701 465 1700 469 1696 476 1688L490 1672 483 1667 485 1665C488 1666 490 1667 493 1668L498 1662C500 1660 503 1658 505 1657 507 1656 510 1655 514 1655 520 1654 524 1654 527 1654 528 1655 530 1656 531 1657 532 1658 534 1659 535 1661 533 1662 532 1663 531 1664 531 1665 530 1666 528 1668L527 1667C527 1664 525 1662 523 1660 521 1658 519 1658 516 1658 514 1659 510 1662 505 1669L500 1674C505 1678 508 1681 511 1683L511 1684 507 1687 502 1683C501 1682 499 1680 497 1678Z" id="_11" fill="#005CAA" fill-rule="nonzero"/><path d="M611 1727C608 1730 605 1733 601 1739L598 1736 601 1733C602 1730 603 1728 603 1727 603 1726 602 1724 600 1721 598 1718 596 1716 593 1714 588 1710 583 1709 579 1709 574 1710 571 1712 568 1716 566 1718 565 1721 565 1723 565 1726 566 1728 567 1730 569 1732 572 1736 578 1741 584 1746 587 1750 589 1752 590 1755 591 1757 591 1761 590 1764 589 1767 587 1770 583 1776 577 1779 569 1780 560 1781 552 1778 544 1772 541 1770 538 1768 536 1765 533 1763 531 1760 529 1756 532 1753 535 1749 539 1743L542 1745 541 1748C539 1750 538 1752 537 1753 537 1754 537 1755 538 1757 539 1759 540 1762 542 1764 544 1766 546 1768 549 1770 554 1774 560 1776 565 1775 570 1775 574 1772 576 1768 578 1766 579 1764 579 1761 579 1759 579 1756 577 1754 576 1752 573 1749 568 1745 562 1740 558 1735 556 1733 554 1730 554 1727 554 1724 554 1720 556 1717 558 1713 562 1707 568 1704 574 1703 581 1703 588 1705 596 1710 599 1712 602 1715 604 1718 607 1720 609 1724 611 1727Z" id="_12" fill="#005CAA" fill-rule="nonzero"/><path d="M621 1810 621 1812 618 1814C615 1814 612 1814 610 1813 607 1812 604 1811 602 1810 597 1807 594 1804 592 1801 589 1797 588 1793 588 1788 589 1784 590 1779 593 1775 595 1771 598 1767 601 1765 604 1763 607 1762 611 1761 614 1761 618 1761 623 1761 626 1762 629 1763 633 1765 635 1766 637 1767 638 1769 640 1770 642 1772 643 1774 640 1778 637 1782 634 1786L632 1785 633 1782C634 1780 634 1778 634 1777 634 1776 633 1774 632 1772 630 1770 628 1769 626 1767 621 1765 617 1764 613 1765 610 1767 606 1770 603 1775 599 1782 598 1788 599 1795 600 1800 603 1804 608 1807 610 1808 612 1809 614 1809 616 1810 619 1810 621 1810Z" id="_13" fill="#005CAA" fill-rule="nonzero"/><path d="M677 1761C679 1762 679 1763 680 1765 681 1767 680 1768 680 1770 679 1771 678 1772 676 1773 674 1773 673 1773 671 1772 670 1772 669 1770 668 1769 668 1767 668 1765 669 1764 669 1762 671 1761 672 1761 674 1760 676 1760 677 1761ZM670 1785 671 1786C669 1789 667 1791 666 1794 661 1804 657 1811 655 1815 652 1820 651 1823 649 1826 649 1828 649 1829 649 1829 649 1830 650 1831 652 1832L655 1834 654 1837C649 1835 645 1832 641 1830 637 1828 633 1826 629 1824L630 1822 635 1823C637 1824 638 1824 638 1824 639 1824 640 1822 642 1820 644 1816 647 1810 651 1802 653 1797 655 1794 657 1791 657 1790 657 1789 657 1788 657 1787 656 1786 654 1786L650 1784 652 1781C656 1782 659 1783 661 1784 663 1784 666 1785 670 1785Z" id="_14" fill="#005CAA" fill-rule="nonzero"/><path d="M684 1822C681 1829 681 1835 682 1840 684 1845 687 1848 693 1851 695 1852 697 1853 700 1853 703 1853 705 1853 708 1852L709 1854 705 1857C702 1857 698 1857 695 1857 692 1856 689 1855 686 1854 679 1851 674 1846 672 1840 670 1833 671 1827 674 1819 677 1814 680 1809 684 1806 687 1804 691 1803 696 1803 701 1802 706 1803 710 1805 716 1808 719 1811 721 1816 723 1822 723 1827 720 1834L718 1837C716 1836 714 1835 712 1835 708 1833 703 1831 697 1828L684 1822ZM686 1819C691 1821 697 1824 703 1827 705 1828 708 1829 710 1830L712 1827C713 1824 714 1821 714 1818 714 1816 713 1814 712 1812 710 1810 709 1809 706 1807 702 1806 699 1806 695 1807 692 1809 689 1813 686 1819Z" id="_15" fill="#005CAA" fill-rule="nonzero"/><path d="M747 1832 757 1828C759 1827 760 1827 761 1827 763 1827 766 1827 768 1828 772 1829 775 1831 777 1834 779 1836 781 1839 781 1842 781 1844 781 1848 779 1854L773 1870C771 1876 770 1879 771 1880 771 1881 772 1882 774 1883L778 1884 777 1887C773 1886 770 1885 767 1884 764 1883 762 1882 759 1881 762 1875 765 1866 769 1854 770 1849 771 1846 771 1844 771 1841 770 1839 768 1838 767 1836 765 1834 762 1833 759 1832 755 1832 752 1833 750 1834 747 1835 746 1837 745 1839 744 1842 742 1848 740 1854 738 1860 736 1866 736 1867 736 1868 736 1869 737 1870 738 1871 740 1872L744 1873 743 1876C737 1874 732 1872 729 1871 725 1870 721 1868 716 1867L717 1864 721 1865C723 1866 725 1866 726 1865 727 1864 729 1857 734 1843 736 1837 737 1833 738 1829 739 1828 739 1827 738 1827 738 1826 737 1825 734 1825L731 1823 732 1820C735 1821 738 1821 740 1822 743 1822 746 1822 749 1822 749 1822 750 1822 750 1822 750 1822 751 1822 750 1823L750 1825 747 1832Z" id="_16" fill="#005CAA" fill-rule="nonzero"/><path d="M827 1894 828 1896 825 1899C822 1899 820 1900 817 1900 814 1900 811 1899 809 1899 804 1897 800 1895 796 1892 793 1889 791 1885 791 1881 790 1876 790 1872 791 1866 793 1862 795 1858 797 1855 800 1852 802 1850 806 1849 809 1848 813 1847 818 1846 821 1846 824 1846 828 1847 830 1848 833 1849 835 1850 836 1851 838 1852 840 1854 838 1858 836 1863 835 1868L831 1867 832 1864C833 1862 833 1860 833 1859 832 1858 831 1856 829 1855 827 1853 824 1852 822 1851 817 1850 813 1850 809 1852 806 1855 804 1859 802 1864 800 1872 800 1878 802 1884 805 1889 809 1892 814 1894 816 1895 818 1895 820 1895 823 1895 825 1895 827 1894Z" id="_17" fill="#005CAA" fill-rule="nonzero"/><path d="M855 1881C854 1889 854 1894 857 1899 859 1903 863 1906 869 1907 872 1908 874 1908 877 1908 879 1908 882 1907 885 1906L886 1907 883 1911C880 1912 876 1913 873 1913 870 1913 866 1913 863 1912 856 1910 850 1907 847 1901 844 1895 843 1888 844 1881 846 1875 848 1869 852 1866 854 1863 858 1861 863 1860 868 1858 872 1858 877 1859 883 1861 888 1863 890 1868 893 1873 894 1878 892 1885L891 1888C889 1888 887 1888 884 1888 881 1887 875 1886 868 1884L855 1881ZM856 1877C862 1879 868 1881 874 1882 877 1883 880 1883 882 1884L883 1880C884 1877 884 1874 883 1871 883 1869 882 1867 880 1866 878 1864 876 1863 874 1862 870 1861 866 1862 863 1865 860 1867 858 1871 856 1877Z" id="_18" fill="#005CAA" fill-rule="nonzero"/><path d="M955 1887 956 1883 956 1879 962 1876C965 1875 968 1874 970 1874 972 1873 974 1873 976 1873 981 1874 985 1875 988 1878 991 1880 993 1883 993 1887 993 1890 993 1896 992 1907 991 1916 991 1922 992 1923 992 1924 993 1925 994 1925L998 1925 998 1929C994 1928 991 1928 989 1928 987 1928 985 1927 981 1927L982 1922C982 1921 982 1919 982 1918L970 1925C969 1926 968 1927 967 1927 966 1927 964 1927 963 1927 958 1927 954 1925 952 1923 950 1920 949 1917 949 1913 950 1909 951 1906 953 1903 955 1901 957 1899 961 1898 964 1897 972 1896 984 1895 984 1890 983 1886 982 1884 979 1881 976 1879 971 1879 970 1878 968 1878 966 1879 965 1879 963 1880 962 1880 961 1883 959 1885 958 1888L955 1887ZM984 1898C973 1899 967 1901 964 1902 961 1904 959 1907 959 1911 959 1914 959 1916 961 1918 962 1920 964 1921 967 1921 969 1921 972 1920 975 1919 977 1918 980 1916 982 1913L983 1900 984 1898Z" id="_19" fill="#005CAA" fill-rule="nonzero"/><path d="M1027 1886 1036 1879C1037 1878 1038 1878 1039 1877 1042 1877 1044 1876 1047 1876 1050 1877 1054 1877 1057 1879 1059 1881 1061 1883 1063 1885 1064 1888 1064 1892 1064 1898L1063 1915C1063 1921 1063 1924 1064 1925 1064 1927 1066 1927 1068 1927L1072 1927 1072 1931C1068 1930 1064 1930 1062 1930 1059 1930 1056 1930 1053 1930 1053 1923 1054 1913 1054 1901 1055 1896 1054 1892 1053 1890 1053 1888 1051 1887 1049 1885 1047 1884 1045 1883 1042 1883 1038 1883 1035 1884 1033 1886 1030 1887 1029 1889 1028 1891 1028 1893 1027 1897 1027 1903 1027 1909 1027 1916 1027 1922 1027 1923 1027 1924 1027 1925 1028 1926 1030 1926 1032 1926L1036 1926 1036 1930C1030 1929 1025 1929 1021 1929 1017 1929 1013 1929 1008 1929L1008 1926 1012 1926C1014 1926 1016 1925 1017 1924 1017 1923 1017 1915 1018 1901 1018 1895 1018 1890 1018 1886 1018 1885 1018 1884 1017 1884 1017 1883 1015 1883 1013 1883L1009 1883 1009 1879C1012 1879 1015 1879 1018 1878 1020 1878 1023 1877 1026 1876 1026 1876 1027 1875 1027 1876 1028 1876 1028 1876 1028 1877L1028 1879 1027 1886Z" id="_20" fill="#005CAA" fill-rule="nonzero"/><path d="M1120 1875 1119 1855C1119 1853 1118 1852 1118 1851 1117 1851 1116 1850 1114 1851L1109 1851 1109 1848C1116 1847 1122 1845 1127 1842L1128 1843C1128 1846 1128 1851 1128 1856L1129 1871 1130 1876 1132 1909C1133 1915 1133 1918 1134 1919 1134 1920 1136 1920 1138 1921L1142 1921 1143 1924C1138 1924 1134 1924 1131 1924 1130 1924 1128 1925 1124 1925 1124 1923 1124 1919 1124 1915 1121 1917 1117 1921 1113 1926 1109 1927 1107 1928 1104 1928 1098 1929 1093 1927 1088 1922 1084 1918 1081 1912 1081 1904 1080 1899 1081 1895 1082 1892 1083 1888 1085 1885 1087 1884 1089 1882 1093 1879 1097 1877 1101 1875 1104 1873 1107 1873 1109 1873 1111 1873 1113 1873 1116 1874 1118 1875 1120 1875ZM1121 1885C1118 1882 1116 1881 1113 1879 1110 1878 1107 1878 1104 1878 1099 1878 1096 1881 1093 1884 1090 1888 1089 1893 1090 1900 1090 1907 1093 1912 1096 1916 1100 1920 1104 1921 1109 1921 1112 1921 1114 1920 1117 1918 1119 1916 1121 1914 1122 1911 1123 1908 1123 1904 1122 1898L1121 1885Z" id="_21" fill="#005CAA" fill-rule="nonzero"/><path d="M1225 1835C1226 1840 1227 1846 1228 1852L1235 1883C1238 1894 1240 1900 1241 1901 1241 1902 1244 1903 1247 1902L1251 1901 1252 1904C1245 1905 1240 1907 1236 1908 1231 1909 1226 1910 1220 1912L1219 1908 1224 1907C1226 1907 1227 1906 1228 1905 1229 1904 1229 1903 1228 1901 1228 1897 1227 1891 1225 1885L1218 1854C1217 1848 1215 1842 1214 1837L1209 1839C1200 1841 1195 1842 1194 1843 1193 1843 1193 1845 1193 1848L1194 1855 1191 1856 1190 1849C1189 1847 1188 1843 1186 1839 1206 1834 1217 1832 1221 1831L1250 1824C1251 1830 1252 1836 1253 1842L1250 1842 1248 1835C1247 1833 1246 1832 1246 1831 1245 1831 1244 1831 1243 1831 1239 1832 1234 1833 1229 1834L1225 1835Z" id="_22" fill="#005CAA" fill-rule="nonzero"/><path d="M1281 1869C1283 1876 1286 1880 1290 1883 1295 1886 1300 1886 1305 1885 1308 1884 1310 1883 1312 1881 1314 1880 1317 1878 1319 1876L1320 1876 1319 1881C1317 1884 1314 1886 1311 1887 1308 1889 1305 1891 1302 1891 1295 1893 1288 1893 1283 1890 1277 1886 1273 1881 1271 1873 1269 1867 1269 1861 1270 1856 1271 1853 1273 1849 1277 1846 1281 1842 1285 1840 1289 1838 1295 1837 1300 1837 1305 1840 1310 1842 1313 1847 1315 1854L1316 1857C1314 1858 1311 1859 1309 1860 1306 1861 1301 1863 1294 1865L1281 1869ZM1280 1864C1285 1863 1291 1862 1298 1860 1300 1859 1303 1858 1305 1857L1304 1854C1304 1851 1302 1848 1300 1846 1299 1844 1297 1843 1295 1843 1293 1842 1290 1842 1288 1843 1284 1844 1281 1846 1279 1850 1278 1854 1278 1858 1280 1864Z" id="_23" fill="#005CAA" fill-rule="nonzero"/><path d="M1371 1857 1373 1858 1372 1862C1370 1864 1368 1866 1366 1868 1363 1869 1361 1871 1358 1872 1353 1874 1349 1874 1345 1874 1340 1873 1337 1871 1333 1869 1330 1866 1327 1862 1325 1857 1324 1852 1323 1848 1323 1844 1323 1840 1324 1837 1326 1834 1328 1831 1331 1828 1334 1825 1336 1822 1339 1821 1343 1819 1345 1818 1348 1817 1350 1817 1352 1817 1354 1817 1357 1817 1358 1822 1359 1827 1361 1831L1357 1832 1357 1830C1356 1828 1355 1826 1354 1826 1353 1825 1351 1825 1348 1825 1346 1825 1343 1825 1341 1826 1336 1828 1333 1831 1331 1835 1330 1838 1330 1843 1333 1849 1335 1856 1339 1861 1345 1864 1350 1867 1355 1867 1360 1865 1362 1864 1364 1863 1366 1862 1367 1861 1369 1859 1371 1857Z" id="_24" fill="#005CAA" fill-rule="nonzero"/><path d="M1384 1813 1388 1804C1389 1802 1390 1800 1391 1799 1392 1798 1394 1796 1396 1795 1400 1794 1403 1793 1407 1793 1410 1794 1413 1794 1415 1796 1417 1798 1419 1802 1422 1808L1428 1823C1430 1826 1431 1828 1432 1830 1433 1831 1433 1831 1434 1832 1435 1832 1436 1832 1437 1831L1441 1830 1443 1833C1439 1834 1436 1835 1433 1837 1431 1838 1428 1839 1425 1841 1422 1832 1419 1824 1415 1816 1412 1810 1410 1806 1409 1805 1407 1803 1405 1802 1403 1802 1401 1802 1398 1802 1396 1803 1393 1805 1391 1806 1389 1809 1387 1811 1386 1813 1386 1816 1386 1817 1387 1820 1389 1825L1394 1834C1397 1842 1399 1846 1400 1847 1401 1847 1402 1847 1405 1846L1409 1845 1411 1848C1405 1850 1401 1852 1398 1853 1395 1855 1390 1857 1385 1859L1384 1856 1387 1855C1389 1854 1390 1853 1390 1852 1391 1852 1391 1851 1390 1849 1390 1847 1388 1843 1385 1837L1369 1803C1365 1794 1363 1789 1362 1788 1361 1788 1360 1788 1357 1789L1354 1791 1352 1788C1357 1785 1361 1782 1364 1780L1367 1776C1368 1776 1368 1776 1368 1777L1369 1779 1373 1788C1375 1793 1377 1797 1378 1799L1384 1813Z" id="_25" fill="#005CAA" fill-rule="nonzero"/><path d="M1445 1782 1448 1772C1449 1771 1449 1769 1450 1769 1452 1767 1454 1765 1456 1764 1459 1762 1462 1761 1466 1761 1469 1761 1472 1762 1474 1763 1476 1765 1479 1768 1482 1773L1490 1788C1493 1793 1495 1796 1496 1797 1497 1798 1498 1797 1500 1796L1504 1794 1505 1797C1502 1799 1499 1801 1496 1802 1494 1803 1491 1805 1488 1807 1485 1800 1481 1792 1475 1781 1473 1777 1471 1774 1469 1772 1467 1771 1465 1770 1463 1770 1460 1770 1458 1771 1455 1772 1452 1774 1450 1776 1449 1779 1447 1782 1447 1784 1448 1786 1448 1788 1450 1791 1453 1797 1456 1802 1459 1808 1462 1813 1463 1814 1464 1815 1464 1815 1466 1816 1467 1815 1469 1814L1472 1812 1474 1815C1468 1818 1464 1820 1461 1822 1457 1824 1454 1826 1449 1829L1448 1826 1451 1824C1454 1823 1455 1822 1454 1820 1454 1819 1451 1812 1444 1800 1441 1794 1438 1790 1436 1787 1436 1786 1435 1785 1434 1785 1434 1785 1432 1786 1430 1787L1427 1789 1425 1786C1428 1784 1430 1782 1432 1781 1434 1779 1436 1777 1438 1774 1438 1774 1438 1773 1439 1773 1439 1773 1440 1773 1440 1774L1441 1776 1445 1782Z" id="_26" fill="#005CAA" fill-rule="nonzero"/><path d="M1498 1770C1495 1766 1493 1762 1493 1757 1492 1752 1493 1748 1495 1743 1498 1739 1501 1735 1505 1732 1511 1727 1518 1726 1524 1727 1531 1728 1536 1731 1541 1738 1546 1745 1548 1753 1546 1761 1544 1768 1541 1774 1534 1778 1528 1782 1522 1784 1515 1783 1509 1781 1503 1777 1498 1770ZM1504 1761C1509 1767 1514 1771 1519 1774 1525 1777 1530 1776 1535 1773 1538 1770 1540 1767 1541 1762 1541 1758 1539 1753 1535 1747 1532 1743 1528 1739 1525 1737 1521 1735 1518 1734 1514 1734 1511 1734 1508 1735 1506 1736 1503 1738 1501 1740 1500 1743 1499 1745 1499 1748 1500 1751 1500 1754 1502 1758 1504 1761Z" id="_27" fill="#005CAA" fill-rule="nonzero"/><path d="M1531 1677C1537 1686 1543 1694 1549 1701L1566 1723C1573 1732 1577 1736 1579 1737 1579 1738 1581 1737 1582 1736L1587 1734 1589 1736C1585 1739 1582 1741 1579 1743 1576 1746 1572 1749 1567 1753L1565 1751 1569 1748C1570 1746 1571 1745 1570 1744 1570 1743 1566 1737 1559 1728L1541 1706 1535 1698 1530 1692C1529 1691 1528 1690 1528 1690 1527 1690 1526 1691 1524 1692L1521 1695 1518 1692C1524 1687 1528 1682 1530 1677L1531 1677Z" id="_28" fill="#005CAA" fill-rule="nonzero"/><path d="M1581 1708C1578 1704 1576 1700 1575 1696 1574 1691 1575 1686 1576 1682 1578 1677 1581 1673 1585 1670 1591 1665 1597 1662 1604 1663 1610 1663 1616 1666 1621 1672 1627 1679 1629 1687 1628 1695 1627 1702 1624 1708 1618 1713 1612 1718 1606 1720 1599 1719 1593 1719 1587 1715 1581 1708ZM1587 1699C1591 1704 1597 1708 1603 1710 1609 1712 1614 1712 1618 1708 1621 1705 1623 1701 1623 1697 1623 1693 1621 1688 1616 1682 1613 1678 1609 1675 1605 1673 1601 1671 1598 1670 1594 1670 1591 1671 1588 1672 1586 1674 1584 1676 1582 1678 1581 1681 1581 1684 1580 1686 1581 1689 1582 1692 1584 1696 1587 1699Z" id="_29" fill="#005CAA" fill-rule="nonzero"/><path d="M1649 1621C1651 1622 1652 1623 1654 1624 1656 1626 1658 1629 1658 1633 1659 1636 1659 1640 1658 1644 1657 1648 1655 1652 1652 1655L1650 1657C1650 1660 1650 1662 1650 1663 1650 1664 1650 1665 1651 1665 1652 1666 1653 1666 1655 1666 1657 1665 1659 1664 1662 1660 1663 1659 1665 1657 1667 1655 1670 1651 1672 1649 1673 1647 1675 1645 1677 1644 1679 1643 1680 1643 1683 1643 1685 1644 1688 1645 1690 1646 1692 1648 1695 1651 1697 1655 1698 1659 1699 1664 1699 1668 1697 1673 1695 1678 1693 1683 1688 1688 1683 1693 1678 1696 1673 1697 1668 1698 1663 1697 1660 1693 1658 1691 1656 1688 1655 1685 1657 1681 1658 1677 1658 1674 1655 1675 1653 1676 1652 1676 1651 1676 1650 1676 1649 1675 1648 1674 1647 1673 1646 1671 1646 1670 1646 1668 1646 1666L1647 1659C1643 1662 1640 1663 1637 1663 1634 1663 1630 1662 1627 1659 1624 1656 1623 1653 1622 1650 1621 1646 1621 1643 1622 1639 1624 1634 1626 1630 1629 1626 1631 1624 1633 1623 1635 1622 1637 1621 1639 1620 1642 1620L1645 1616C1649 1613 1651 1610 1653 1608L1654 1608C1654 1610 1655 1612 1655 1614L1649 1621ZM1649 1633C1646 1630 1642 1628 1639 1628 1635 1628 1632 1629 1629 1632 1627 1634 1626 1637 1626 1640 1626 1643 1628 1646 1631 1649 1634 1653 1638 1654 1642 1655 1645 1655 1648 1654 1651 1651 1653 1648 1654 1646 1654 1642 1654 1639 1652 1636 1649 1633ZM1664 1668C1663 1670 1662 1672 1661 1673 1661 1676 1661 1679 1661 1680 1662 1682 1663 1684 1665 1686 1668 1689 1672 1690 1675 1690 1679 1690 1683 1688 1687 1684 1690 1681 1691 1677 1693 1674 1694 1671 1694 1668 1693 1665 1692 1662 1691 1659 1689 1657 1687 1656 1685 1655 1683 1654 1681 1654 1679 1654 1677 1655 1677 1655 1675 1657 1673 1659L1664 1668Z" id="_30" fill="#005CAA" fill-rule="nonzero"/><path d="M1717 1654 1712 1646 1713 1646C1715 1646 1716 1645 1717 1645 1718 1645 1719 1644 1720 1643 1721 1642 1722 1639 1721 1636 1721 1634 1718 1627 1713 1618 1709 1616 1701 1613 1688 1609L1676 1605 1666 1601C1662 1600 1660 1600 1658 1602L1657 1604 1654 1602C1657 1599 1659 1597 1661 1594 1663 1593 1666 1589 1671 1582L1674 1584 1671 1587C1670 1588 1670 1589 1670 1590 1669 1591 1670 1591 1670 1592 1671 1592 1672 1593 1674 1594 1684 1598 1695 1601 1707 1605 1702 1595 1697 1585 1692 1575 1691 1573 1690 1571 1689 1571 1688 1570 1687 1570 1685 1572L1682 1575 1680 1573C1682 1569 1685 1567 1687 1564 1689 1562 1691 1559 1693 1557L1696 1559 1695 1560C1694 1561 1694 1562 1693 1563 1693 1564 1693 1565 1694 1566 1694 1568 1697 1575 1703 1587 1705 1591 1709 1600 1716 1615 1722 1627 1725 1634 1726 1636 1726 1638 1727 1641 1726 1643 1726 1646 1725 1648 1723 1650 1722 1651 1721 1652 1720 1652 1719 1653 1718 1654 1717 1654Z" id="_31" fill="#005CAA" fill-rule="nonzero"/><path d="M1746 1525C1742 1522 1739 1519 1736 1515 1734 1510 1733 1506 1733 1501 1734 1496 1735 1491 1738 1487 1742 1480 1748 1476 1754 1475 1760 1473 1767 1474 1773 1478 1781 1483 1786 1490 1787 1498 1788 1505 1787 1512 1783 1518 1779 1525 1773 1529 1767 1530 1760 1531 1753 1529 1746 1525ZM1748 1514C1755 1518 1761 1520 1767 1520 1773 1521 1778 1518 1781 1513 1784 1509 1784 1506 1783 1501 1781 1497 1778 1493 1772 1490 1767 1487 1763 1485 1758 1484 1754 1483 1750 1484 1747 1485 1744 1486 1742 1488 1740 1491 1739 1493 1738 1496 1738 1499 1738 1501 1739 1504 1740 1506 1742 1509 1745 1512 1748 1514Z" id="_32" fill="#005CAA" fill-rule="nonzero"/><path d="M1773 1447 1792 1457C1801 1462 1806 1464 1808 1464 1809 1464 1810 1463 1812 1460L1814 1455 1817 1457C1814 1462 1812 1466 1810 1468L1803 1484 1800 1483 1802 1479C1803 1477 1803 1475 1802 1474 1801 1473 1796 1470 1788 1465L1769 1455 1765 1462 1763 1461C1763 1458 1763 1455 1763 1452L1757 1449C1754 1447 1752 1446 1750 1444 1749 1442 1747 1439 1746 1435 1744 1429 1743 1425 1743 1423 1743 1421 1743 1419 1744 1418 1745 1416 1746 1415 1747 1414 1749 1415 1750 1415 1751 1416 1752 1416 1754 1417 1755 1418L1755 1419C1753 1420 1751 1422 1749 1425 1748 1427 1748 1430 1749 1432 1750 1434 1755 1437 1762 1441L1768 1444C1771 1439 1773 1435 1774 1431L1775 1431 1779 1434 1776 1440C1775 1442 1774 1444 1773 1447Z" id="_33" fill="#005CAA" fill-rule="nonzero"/><path d="M1815 1313 1806 1309C1803 1312 1800 1314 1798 1317 1795 1320 1793 1324 1792 1327 1788 1336 1788 1345 1792 1353 1795 1361 1802 1366 1811 1370 1818 1373 1824 1374 1830 1373 1837 1372 1842 1370 1847 1365 1852 1361 1856 1357 1858 1351 1860 1346 1861 1341 1862 1336 1862 1333 1862 1329 1861 1324L1862 1324C1864 1325 1865 1326 1866 1327 1867 1332 1867 1337 1866 1341 1866 1346 1864 1350 1863 1354 1860 1363 1855 1370 1849 1375 1844 1380 1837 1383 1830 1384 1823 1385 1816 1385 1809 1382 1801 1379 1796 1375 1791 1369 1787 1363 1785 1357 1784 1349 1783 1341 1785 1333 1788 1324 1790 1319 1793 1313 1797 1308 1799 1305 1801 1302 1802 1300 1805 1303 1810 1306 1816 1309L1815 1313Z" id="_34" fill="#005CAA" fill-rule="nonzero"/><path d="M1838 1289 1834 1280C1833 1278 1833 1276 1832 1274 1832 1272 1833 1270 1833 1268 1834 1264 1836 1261 1838 1259 1841 1256 1844 1255 1846 1254 1849 1254 1853 1255 1859 1256L1875 1261C1878 1262 1881 1263 1883 1263 1884 1263 1885 1263 1885 1263 1886 1262 1887 1261 1887 1260L1889 1256 1892 1257C1891 1260 1890 1264 1889 1267 1888 1270 1887 1272 1887 1275 1878 1272 1869 1269 1861 1267 1855 1265 1851 1264 1849 1265 1846 1265 1845 1266 1843 1267 1841 1269 1840 1271 1839 1274 1838 1277 1838 1279 1839 1282 1839 1285 1841 1287 1842 1289 1843 1290 1846 1291 1851 1292L1860 1295C1869 1297 1874 1299 1875 1298 1876 1298 1876 1297 1877 1295L1879 1290 1882 1291C1880 1297 1879 1301 1878 1304 1877 1308 1876 1312 1874 1318L1871 1317 1872 1314C1872 1312 1872 1310 1872 1310 1872 1309 1871 1308 1870 1308 1868 1307 1864 1306 1857 1304L1822 1294C1812 1291 1807 1290 1806 1290 1805 1290 1804 1291 1803 1294L1802 1297 1799 1296C1800 1291 1801 1286 1800 1282L1800 1278C1800 1277 1801 1277 1801 1277L1804 1278 1813 1281C1818 1283 1822 1284 1824 1285L1838 1289Z" id="_35" fill="#005CAA" fill-rule="nonzero"/><path d="M1820 1217C1821 1215 1822 1214 1823 1213 1824 1212 1826 1212 1828 1213 1829 1213 1831 1214 1832 1215 1832 1217 1833 1218 1832 1220 1832 1222 1831 1223 1830 1224 1828 1225 1827 1225 1825 1225 1823 1224 1822 1223 1821 1222 1820 1220 1820 1219 1820 1217ZM1845 1218 1846 1217C1849 1218 1852 1219 1855 1220 1865 1222 1873 1224 1878 1225 1883 1226 1886 1227 1890 1228 1891 1228 1892 1228 1893 1227 1893 1227 1894 1225 1895 1223L1896 1220 1899 1221C1898 1226 1897 1230 1896 1235 1895 1239 1894 1243 1893 1248L1890 1247 1891 1242C1891 1240 1891 1239 1890 1239 1890 1238 1888 1238 1885 1237 1881 1236 1875 1234 1867 1232 1861 1231 1857 1230 1854 1230 1853 1229 1852 1230 1851 1230 1851 1230 1850 1232 1850 1234L1849 1238 1846 1237C1846 1232 1846 1229 1846 1227 1846 1225 1846 1222 1845 1218Z" id="_36" fill="#005CAA" fill-rule="nonzero"/><path d="M1862 1187 1856 1178C1855 1177 1854 1176 1854 1175 1854 1172 1854 1169 1854 1167 1855 1163 1856 1160 1858 1157 1860 1155 1862 1153 1865 1152 1868 1151 1872 1151 1877 1152L1894 1154C1900 1155 1903 1155 1904 1155 1906 1154 1906 1153 1907 1151L1907 1147 1910 1148C1910 1152 1909 1155 1909 1158 1908 1161 1908 1164 1908 1167 1901 1165 1891 1163 1879 1162 1874 1161 1871 1161 1869 1162 1867 1162 1865 1163 1863 1165 1862 1167 1861 1169 1860 1172 1860 1176 1860 1179 1862 1182 1863 1184 1865 1186 1867 1187 1868 1188 1872 1188 1878 1189 1885 1190 1891 1191 1897 1192 1898 1192 1899 1192 1900 1191 1901 1191 1902 1189 1902 1187L1902 1183 1906 1184C1904 1190 1904 1195 1903 1198 1903 1202 1902 1207 1902 1211L1899 1211 1899 1207C1899 1204 1899 1203 1898 1202 1897 1201 1889 1200 1875 1198 1869 1197 1864 1197 1861 1197 1860 1196 1859 1197 1858 1197 1858 1198 1857 1199 1857 1201L1856 1205 1853 1205C1853 1202 1853 1199 1853 1196 1853 1194 1852 1191 1851 1187 1851 1187 1851 1187 1851 1186 1851 1186 1852 1186 1853 1186L1855 1186 1862 1187Z" id="_37" fill="#005CAA" fill-rule="nonzero"/><path d="M1873 1131 1870 1130 1866 1130 1863 1124C1862 1121 1861 1118 1860 1116 1860 1114 1860 1112 1860 1110 1860 1105 1862 1101 1864 1098 1867 1095 1870 1093 1873 1093 1876 1093 1883 1093 1893 1094 1903 1094 1908 1095 1909 1094 1910 1094 1911 1093 1911 1092L1912 1087 1915 1088C1915 1092 1914 1095 1914 1096 1914 1099 1914 1101 1914 1105L1909 1104C1907 1104 1906 1104 1904 1104L1912 1116C1913 1117 1913 1118 1913 1119 1913 1120 1914 1122 1913 1123 1913 1128 1912 1132 1909 1134 1906 1136 1903 1137 1899 1137 1896 1137 1892 1136 1890 1133 1887 1131 1885 1129 1884 1125 1883 1122 1882 1114 1881 1102 1876 1102 1873 1102 1870 1104 1867 1107 1866 1110 1865 1115 1865 1116 1865 1118 1865 1120 1866 1121 1866 1123 1867 1124 1870 1125 1872 1127 1874 1128L1873 1131ZM1884 1102C1886 1113 1887 1119 1889 1122 1891 1125 1893 1127 1897 1127 1900 1127 1902 1127 1904 1125 1906 1124 1907 1122 1907 1119 1907 1117 1907 1114 1905 1111 1904 1109 1902 1106 1899 1104L1887 1103 1884 1102Z" id="_38" fill="#005CAA" fill-rule="nonzero"/><path d="M695 563C269 672 347 1135 477 1243 439 1524 726 1793 1057 1673 1387 1793 1674 1524 1637 1243 1766 1135 1844 672 1418 563 1339 440 1248 360 1057 361 866 360 775 440 695 563ZM1057 499C1366 499 1617 750 1617 1060 1617 1370 1366 1621 1057 1621 747 1621 496 1370 496 1060 496 750 747 499 1057 499Z" fill="#005CAA"/></g></svg>