<svg width="90" height="68" viewBox="0 0 90 68" xmlns="http://www.w3.org/2000/svg" xmlns:xlink="http://www.w3.org/1999/xlink" overflow="hidden"><g transform="translate(0.5 0.5)"><rect x="2" y="24" width="10" height="10" stroke="#000000" fill="#FF8000"/><rect x="12" y="24" width="10" height="10" stroke="#000000" fill="#FF8000"/><rect x="2" y="34" width="10" height="10" stroke="#000000" fill="#FF8000"/><rect x="12" y="34" width="10" height="10" stroke="#000000" fill="#FF8000"/><rect x="24" y="46" width="10" height="10" stroke="#000000" fill="#FFFF00"/><rect x="34" y="46" width="10" height="10" stroke="#000000" fill="#FFFF00"/><rect x="24" y="56" width="10" height="10" stroke="#000000" fill="#FFFF00"/><rect x="34" y="56" width="10" height="10" stroke="#000000" fill="#FFFF00"/><rect x="68" y="24" width="10" height="10" stroke="#000000" fill="#0000FF"/><rect x="78" y="24" width="10" height="10" stroke="#000000" fill="#0000FF"/><rect x="68" y="34" width="10" height="10" stroke="#000000" fill="#0000FF"/><rect x="78" y="34" width="10" height="10" stroke="#000000" fill="#0000FF"/><rect x="46" y="24" width="10" height="10" stroke="#000000" fill="#FF0000"/><rect x="56" y="24" width="10" height="10" stroke="#000000" fill="#FF0000"/><rect x="46" y="34" width="10" height="10" stroke="#000000" fill="#FF0000"/><rect x="56" y="34" width="10" height="10" stroke="#000000" fill="#FF0000"/><rect x="24" y="2" width="10" height="10" stroke="#000000" fill="#FFFFFF"/><rect x="34" y="2" width="10" height="10" stroke="#000000" fill="#FFFFFF"/><rect x="24" y="12" width="10" height="10" stroke="#000000" fill="#FFFFFF"/><rect x="34" y="12" width="10" height="10" stroke="#000000" fill="#FFFFFF"/><rect x="24" y="24" width="10" height="10" stroke="#000000" fill="#00FF00"/><rect x="34" y="24" width="10" height="10" stroke="#000000" fill="#00FF00"/><rect x="24" y="34" width="10" height="10" stroke="#000000" fill="#00FF00"/><rect x="34" y="34" width="10" height="10" stroke="#000000" fill="#00FF00"/></g></svg>