<svg width="304" height="146" viewBox="0 0 304 146" xmlns="http://www.w3.org/2000/svg" xmlns:xlink="http://www.w3.org/1999/xlink" overflow="hidden"><g transform="translate(0.5 0.5)"><path d="M112.729 56.2705 126.835 56.2705 122.476 69.6869 108.369 69.6869Z" stroke="#000000" fill="#FFFFFF"/><path d="M126.835 56.2705 133.889 56.2705 138.248 69.6869 122.476 69.6869Z" stroke="#000000" fill="#FF99FF"/><path d="M147.996 56.2705 152.355 69.6869 138.248 69.6869 133.889 56.2705Z" stroke="#000000" fill="#8A1AFF"/><path d="M152.355 69.6869 154.535 76.3951 143.122 84.6869 138.248 69.6869Z" stroke="#000000" fill="#0000B3"/><path d="M158.894 89.8115 147.481 98.1033 143.122 84.6869 154.535 76.3951Z" stroke="#000000" fill="#0000B3"/><path d="M147.481 98.1033 141.775 102.249 130.362 93.9574 143.122 84.6869Z" stroke="#000000" fill="#FFCC00"/><path d="M130.362 110.541 118.95 102.249 130.362 93.9574 141.775 102.249Z" stroke="#000000" fill="#006600"/><path d="M118.95 102.249 113.243 98.1033 117.602 84.6869 130.362 93.9574Z" stroke="#000000" fill="#FF8433"/><path d="M101.831 89.8115 106.19 76.3951 117.602 84.6869 113.243 98.1033Z" stroke="#000000" fill="#0000B3"/><path d="M106.19 76.3951 108.369 69.6869 122.476 69.6869 117.602 84.6869Z" stroke="#000000" fill="#006600"/><path d="M122.476 69.6869 138.248 69.6869 143.122 84.6869 130.362 93.9574 117.602 84.6869Z" stroke="#000000" fill="#FF8433"/><path d="M20.3981 56.2705 34.505 56.2705 30.1457 69.6869 16.0389 69.6869Z" stroke="#000000" fill="#88DDFF"/><path d="M34.505 56.2705 41.5584 56.2705 45.9177 69.6869 30.1457 69.6869Z" stroke="#000000" fill="#71E600"/><path d="M55.6653 56.2705 60.0245 69.6869 45.9177 69.6869 41.5584 56.2705Z" stroke="#000000" fill="#DD0000"/><path d="M60.0245 69.6869 62.2041 76.3951 50.7915 84.6869 45.9177 69.6869Z" stroke="#000000" fill="#FF8433"/><path d="M66.5634 89.8115 55.1507 98.1033 50.7915 84.6869 62.2041 76.3951Z" stroke="#000000" fill="#006600"/><path d="M55.1507 98.1033 49.4444 102.249 38.0317 93.9574 50.7915 84.6869Z" stroke="#000000" fill="#DD0000"/><path d="M38.0317 110.541 26.619 102.249 38.0317 93.9574 49.4444 102.249Z" stroke="#000000" fill="#FF8433"/><path d="M26.619 102.249 20.9127 98.1033 25.2719 84.6869 38.0317 93.9574Z" stroke="#000000" fill="#DD0000"/><path d="M9.5 89.8115 13.8593 76.3951 25.2719 84.6869 20.9127 98.1033Z" stroke="#000000" fill="#8A1AFF"/><path d="M13.8593 76.3951 16.0389 69.6869 30.1457 69.6869 25.2719 84.6869Z" stroke="#000000" fill="#0000B3"/><path d="M30.1457 69.6869 45.9177 69.6869 50.7915 84.6869 38.0317 93.9574 25.2719 84.6869Z" stroke="#000000" fill="#FFFFFF"/><path d="M240.33 56.2705 251.742 47.9787 256.102 61.3951 244.689 69.6869Z" stroke="#000000" fill="#FF8433"/><path d="M251.742 47.9787 257.449 43.8328 268.861 52.1246 256.102 61.3951Z" stroke="#000000" fill="#DD0000"/><path d="M268.861 35.541 280.274 43.8328 268.861 52.1246 257.449 43.8328Z" stroke="#000000" fill="#FF99FF"/><path d="M280.274 43.8328 285.98 47.9787 281.621 61.3951 268.861 52.1246Z" stroke="#000000" fill="#88DDFF"/><path d="M297.393 56.2705 293.034 69.6869 281.621 61.3951 285.98 47.9787Z" stroke="#000000" fill="#999999"/><path d="M293.034 69.6869 290.854 76.3951 276.747 76.3951 281.621 61.3951Z" stroke="#000000" fill="#FFFFFF"/><path d="M286.495 89.8115 272.388 89.8115 276.747 76.3951 290.854 76.3951Z" stroke="#000000" fill="#FF8433"/><path d="M272.388 89.8115 265.335 89.8115 260.975 76.3951 276.747 76.3951Z" stroke="#000000" fill="#FFCC00"/><path d="M251.228 89.8115 246.869 76.3951 260.975 76.3951 265.335 89.8115Z" stroke="#000000" fill="#FFFFB3"/><path d="M246.869 76.3951 244.689 69.6869 256.102 61.3951 260.975 76.3951Z" stroke="#000000" fill="#FFFFFF"/><path d="M256.102 61.3951 268.861 52.1246 281.621 61.3951 276.747 76.3951 260.975 76.3951Z" stroke="#000000" fill="#DD0000"/><path d="M66.5634 89.8115 80.6702 89.8115 76.311 103.228 62.2041 103.228Z" stroke="#000000" fill="#8A1AFF"/><path d="M80.6702 89.8115 87.7237 89.8115 92.0829 103.228 76.311 103.228Z" stroke="#000000" fill="#88DDFF"/><path d="M101.831 89.8115 106.19 103.228 92.0829 103.228 87.7237 89.8115Z" stroke="#000000" fill="#FFFFFF"/><path d="M106.19 103.228 108.369 109.936 96.9567 118.228 92.0829 103.228Z" stroke="#000000" fill="#88DDFF"/><path d="M112.729 123.353 101.316 131.644 96.9567 118.228 108.369 109.936Z" stroke="#000000" fill="#FFFFB3"/><path d="M101.316 131.644 95.6096 135.79 84.1969 127.498 96.9567 118.228Z" stroke="#000000" fill="#FFFFFF"/><path d="M84.1969 144.082 72.7843 135.79 84.1969 127.498 95.6096 135.79Z" stroke="#000000" fill="#006600"/><path d="M72.7843 135.79 67.0779 131.644 71.4372 118.228 84.1969 127.498Z" stroke="#000000" fill="#88DDFF"/><path d="M55.6653 123.353 60.0245 109.936 71.4372 118.228 67.0779 131.644Z" stroke="#000000" fill="#71E600"/><path d="M60.0245 109.936 62.2041 103.228 76.311 103.228 71.4372 118.228Z" stroke="#000000" fill="#006600"/><path d="M76.311 103.228 92.0829 103.228 96.9567 118.228 84.1969 127.498 71.4372 118.228Z" stroke="#000000" fill="#FFCC00"/><text text-anchor="middle" x="84.1969" y="114.082" dy="0.35em">F</text><path d="M194.164 22.7295 205.577 14.4377 209.936 27.8541 198.524 36.1459Z" stroke="#000000" fill="#71E600"/><path d="M205.577 14.4377 211.283 10.2918 222.696 18.5836 209.936 27.8541Z" stroke="#000000" fill="#0000B3"/><path d="M222.696 2 234.109 10.2918 222.696 18.5836 211.283 10.2918Z" stroke="#000000" fill="#8A1AFF"/><path d="M234.109 10.2918 239.815 14.4377 235.456 27.8541 222.696 18.5836Z" stroke="#000000" fill="#FFFFB3"/><path d="M251.228 22.7295 246.869 36.1459 235.456 27.8541 239.815 14.4377Z" stroke="#000000" fill="#FFFFB3"/><path d="M246.869 36.1459 244.689 42.8541 230.582 42.8541 235.456 27.8541Z" stroke="#000000" fill="#0000B3"/><path d="M240.33 56.2705 226.223 56.2705 230.582 42.8541 244.689 42.8541Z" stroke="#000000" fill="#71E600"/><path d="M226.223 56.2705 219.169 56.2705 214.81 42.8541 230.582 42.8541Z" stroke="#000000" fill="#FFFFB3"/><path d="M205.063 56.2705 200.703 42.8541 214.81 42.8541 219.169 56.2705Z" stroke="#000000" fill="#999999"/><path d="M200.703 42.8541 198.524 36.1459 209.936 27.8541 214.81 42.8541Z" stroke="#000000" fill="#71E600"/><path d="M209.936 27.8541 222.696 18.5836 235.456 27.8541 230.582 42.8541 214.81 42.8541Z" stroke="#000000" fill="#FFFFB3"/><path d="M205.063 56.2705 219.169 56.2705 214.81 69.6869 200.703 69.6869Z" stroke="#000000" fill="#88DDFF"/><path d="M219.169 56.2705 226.223 56.2705 230.582 69.6869 214.81 69.6869Z" stroke="#000000" fill="#999999"/><path d="M240.33 56.2705 244.689 69.6869 230.582 69.6869 226.223 56.2705Z" stroke="#000000" fill="#999999"/><path d="M244.689 69.6869 246.869 76.3951 235.456 84.6869 230.582 69.6869Z" stroke="#000000" fill="#8A1AFF"/><path d="M251.228 89.8115 239.815 98.1033 235.456 84.6869 246.869 76.3951Z" stroke="#000000" fill="#999999"/><path d="M239.815 98.1033 234.109 102.249 222.696 93.9574 235.456 84.6869Z" stroke="#000000" fill="#71E600"/><path d="M222.696 110.541 211.283 102.249 222.696 93.9574 234.109 102.249Z" stroke="#000000" fill="#8A1AFF"/><path d="M211.283 102.249 205.577 98.1033 209.936 84.6869 222.696 93.9574Z" stroke="#000000" fill="#FFFFFF"/><path d="M194.164 89.8115 198.524 76.3951 209.936 84.6869 205.577 98.1033Z" stroke="#000000" fill="#0000B3"/><path d="M198.524 76.3951 200.703 69.6869 214.81 69.6869 209.936 84.6869Z" stroke="#000000" fill="#0000B3"/><path d="M214.81 69.6869 230.582 69.6869 235.456 84.6869 222.696 93.9574 209.936 84.6869Z" stroke="#000000" fill="#FF99FF"/><path d="M55.6653 56.2705 67.0779 47.9787 71.4372 61.3951 60.0245 69.6869Z" stroke="#000000" fill="#FF99FF"/><path d="M67.0779 47.9787 72.7843 43.8328 84.1969 52.1246 71.4372 61.3951Z" stroke="#000000" fill="#999999"/><path d="M84.1969 35.541 95.6096 43.8328 84.1969 52.1246 72.7843 43.8328Z" stroke="#000000" fill="#DD0000"/><path d="M95.6096 43.8328 101.316 47.9787 96.9567 61.3951 84.1969 52.1246Z" stroke="#000000" fill="#8A1AFF"/><path d="M112.729 56.2705 108.369 69.6869 96.9567 61.3951 101.316 47.9787Z" stroke="#000000" fill="#0000B3"/><path d="M108.369 69.6869 106.19 76.3951 92.0829 76.3951 96.9567 61.3951Z" stroke="#000000" fill="#FFFFFF"/><path d="M101.831 89.8115 87.7237 89.8115 92.0829 76.3951 106.19 76.3951Z" stroke="#000000" fill="#FFCC00"/><path d="M87.7237 89.8115 80.6702 89.8115 76.311 76.3951 92.0829 76.3951Z" stroke="#000000" fill="#FFFFB3"/><path d="M66.5634 89.8115 62.2041 76.3951 76.311 76.3951 80.6702 89.8115Z" stroke="#000000" fill="#88DDFF"/><path d="M62.2041 76.3951 60.0245 69.6869 71.4372 61.3951 76.311 76.3951Z" stroke="#000000" fill="#8A1AFF"/><path d="M71.4372 61.3951 84.1969 52.1246 96.9567 61.3951 92.0829 76.3951 76.311 76.3951Z" stroke="#000000" fill="#8A1AFF"/><text text-anchor="middle" x="84.1969" y="65.541" dy="0.35em">U</text><path d="M147.999 56.2705 159.412 47.9787 163.771 61.3951 152.358 69.6869Z" stroke="#000000" fill="#006600"/><path d="M159.412 47.9787 165.118 43.8328 176.531 52.1246 163.771 61.3951Z" stroke="#000000" fill="#006600"/><path d="M176.531 35.541 187.944 43.8328 176.531 52.1246 165.118 43.8328Z" stroke="#000000" fill="#999999"/><path d="M187.944 43.8328 193.65 47.9787 189.291 61.3951 176.531 52.1246Z" stroke="#000000" fill="#999999"/><path d="M205.063 56.2705 200.703 69.6869 189.291 61.3951 193.65 47.9787Z" stroke="#000000" fill="#FFFFB3"/><path d="M200.703 69.6869 198.524 76.3951 184.417 76.3951 189.291 61.3951Z" stroke="#000000" fill="#FFCC00"/><path d="M194.164 89.8115 180.058 89.8115 184.417 76.3951 198.524 76.3951Z" stroke="#000000" fill="#71E600"/><path d="M180.058 89.8115 173.004 89.8115 168.645 76.3951 184.417 76.3951Z" stroke="#000000" fill="#FF8433"/><path d="M158.897 89.8115 154.538 76.3951 168.645 76.3951 173.004 89.8115Z" stroke="#000000" fill="#71E600"/><path d="M154.538 76.3951 152.358 69.6869 163.771 61.3951 168.645 76.3951Z" stroke="#000000" fill="#71E600"/><path d="M163.771 61.3951 176.531 52.1246 189.291 61.3951 184.417 76.3951 168.645 76.3951Z" stroke="#000000" fill="#999999"/><path d="M95.0951 2 109.202 2 104.843 15.4164 90.7358 15.4164Z" stroke="#000000" fill="#FF8433"/><path d="M109.202 2 116.255 2 120.615 15.4164 104.843 15.4164Z" stroke="#000000" fill="#FF99FF"/><path d="M130.362 2 134.721 15.4164 120.615 15.4164 116.255 2Z" stroke="#000000" fill="#FF99FF"/><path d="M134.721 15.4164 136.901 22.1246 125.488 30.4164 120.615 15.4164Z" stroke="#000000" fill="#8A1AFF"/><path d="M141.26 35.541 129.848 43.8328 125.488 30.4164 136.901 22.1246Z" stroke="#000000" fill="#FFFFFF"/><path d="M129.848 43.8328 124.141 47.9787 112.729 39.6869 125.488 30.4164Z" stroke="#000000" fill="#FFFFB3"/><path d="M112.729 56.2705 101.316 47.9787 112.729 39.6869 124.141 47.9787Z" stroke="#000000" fill="#DD0000"/><path d="M101.316 47.9787 95.6096 43.8328 99.9689 30.4164 112.729 39.6869Z" stroke="#000000" fill="#88DDFF"/><path d="M84.1969 35.541 88.5562 22.1246 99.9689 30.4164 95.6096 43.8328Z" stroke="#000000" fill="#FFFFFF"/><path d="M88.5562 22.1246 90.7358 15.4164 104.843 15.4164 99.9689 30.4164Z" stroke="#000000" fill="#71E600"/><path d="M104.843 15.4164 120.615 15.4164 125.488 30.4164 112.729 39.6869 99.9689 30.4164Z" stroke="#000000" fill="#88DDFF"/><path d="M38.0317 2 52.1385 2 47.7793 15.4164 33.6724 15.4164Z" stroke="#000000" fill="#DD0000"/><path d="M52.1385 2 59.192 2 63.5512 15.4164 47.7793 15.4164Z" stroke="#000000" fill="#006600"/><path d="M73.2988 2 77.6581 15.4164 63.5512 15.4164 59.192 2Z" stroke="#000000" fill="#FFCC00"/><path d="M77.6581 15.4164 79.8377 22.1246 68.425 30.4164 63.5512 15.4164Z" stroke="#000000" fill="#FFCC00"/><path d="M84.1969 35.541 72.7843 43.8328 68.425 30.4164 79.8377 22.1246Z" stroke="#000000" fill="#006600"/><path d="M72.7843 43.8328 67.0779 47.9787 55.6653 39.6869 68.425 30.4164Z" stroke="#000000" fill="#FF99FF"/><path d="M55.6653 56.2705 44.2526 47.9787 55.6653 39.6869 67.0779 47.9787Z" stroke="#000000" fill="#0000B3"/><path d="M44.2526 47.9787 38.5462 43.8328 42.9055 30.4164 55.6653 39.6869Z" stroke="#000000" fill="#FF99FF"/><path d="M27.1336 35.541 31.4928 22.1246 42.9055 30.4164 38.5462 43.8328Z" stroke="#000000" fill="#FF8433"/><path d="M31.4928 22.1246 33.6724 15.4164 47.7793 15.4164 42.9055 30.4164Z" stroke="#000000" fill="#006600"/><path d="M47.7793 15.4164 63.5512 15.4164 68.425 30.4164 55.6653 39.6869 42.9055 30.4164Z" stroke="#000000" fill="#006600"/><path d="M222.696 110.541 234.109 102.249 238.468 115.666 227.055 123.957Z" stroke="#000000" fill="#FFCC00"/><path d="M234.109 102.249 239.815 98.1033 251.228 106.395 238.468 115.666Z" stroke="#000000" fill="#FF8433"/><path d="M251.228 89.8115 262.64 98.1033 251.228 106.395 239.815 98.1033Z" stroke="#000000" fill="#FF99FF"/><path d="M262.64 98.1033 268.347 102.249 263.988 115.666 251.228 106.395Z" stroke="#000000" fill="#FF8433"/><path d="M279.759 110.541 275.4 123.957 263.988 115.666 268.347 102.249Z" stroke="#000000" fill="#88DDFF"/><path d="M275.4 123.957 273.221 130.666 259.114 130.666 263.988 115.666Z" stroke="#000000" fill="#FFFFB3"/><path d="M268.861 144.082 254.755 144.082 259.114 130.666 273.221 130.666Z" stroke="#000000" fill="#FFCC00"/><path d="M254.755 144.082 247.701 144.082 243.342 130.666 259.114 130.666Z" stroke="#000000" fill="#999999"/><path d="M233.594 144.082 229.235 130.666 243.342 130.666 247.701 144.082Z" stroke="#000000" fill="#88DDFF"/><path d="M229.235 130.666 227.055 123.957 238.468 115.666 243.342 130.666Z" stroke="#000000" fill="#DD0000"/><path d="M238.468 115.666 251.228 106.395 263.988 115.666 259.114 130.666 243.342 130.666Z" stroke="#000000" fill="#0000B3"/><path d="M165.633 110.541 177.045 102.249 181.405 115.666 169.992 123.957Z" stroke="#000000" fill="#FF99FF"/><path d="M177.045 102.249 182.752 98.1033 194.164 106.395 181.405 115.666Z" stroke="#000000" fill="#999999"/><path d="M194.164 89.8115 205.577 98.1033 194.164 106.395 182.752 98.1033Z" stroke="#000000" fill="#FFCC00"/><path d="M205.577 98.1033 211.283 102.249 206.924 115.666 194.164 106.395Z" stroke="#000000" fill="#DD0000"/><path d="M222.696 110.541 218.337 123.957 206.924 115.666 211.283 102.249Z" stroke="#000000" fill="#FFFFFF"/><path d="M218.337 123.957 216.157 130.666 202.05 130.666 206.924 115.666Z" stroke="#000000" fill="#FF99FF"/><path d="M211.798 144.082 197.691 144.082 202.05 130.666 216.157 130.666Z" stroke="#000000" fill="#FFFFB3"/><path d="M197.691 144.082 190.638 144.082 186.278 130.666 202.05 130.666Z" stroke="#000000" fill="#FFCC00"/><path d="M176.531 144.082 172.172 130.666 186.278 130.666 190.638 144.082Z" stroke="#000000" fill="#DD0000"/><path d="M172.172 130.666 169.992 123.957 181.405 115.666 186.278 130.666Z" stroke="#000000" fill="#8A1AFF"/><path d="M181.405 115.666 194.164 106.395 206.924 115.666 202.05 130.666 186.278 130.666Z" stroke="#000000" fill="#71E600"/></g></svg>