<svg viewBox="0 0 870.8 528.95" xmlns="http://www.w3.org/2000/svg" xmlns:xlink="http://www.w3.org/1999/xlink" overflow="hidden"><defs></defs><g id="Layer_2"><g id="图层_1"><rect x="406.87" y="294.67" rx="12" width="88.71" height="88.71" fill="#1481EF"/><rect x="618.07" y="188.3" rx="12" width="88.71" height="88.71" fill="#1481EF"/><rect x="618.07" y="294.67" rx="12" width="88.71" height="88.71" fill="#1481EF"/><rect x="512.24" y="82.7" rx="12" width="88.71" height="88.71" fill="#FF1212"/><rect x="512.24" y="294.67" rx="12" width="88.71" height="88.71" fill="#FF1212"/><rect x="406.87" y="188.3" rx="12" width="88.71" height="88.71" fill="#1481EF"/><rect x="406.87" y="82.7" rx="12" width="88.71" height="88.71" fill="#FF1212"/><rect x="512.24" y="188.3" rx="12" width="88.71" height="88.71" fill="#FF1212"/><rect x="618.07" y="82.7" rx="12" width="88.71" height="88.71" fill="#FF1212"/><path d="M370.11 4.82 753.2 4.82C756.252 4.8255 758.724 7.29815 758.73 10.35L758.73 15.63C758.724 18.6819 756.252 21.1545 753.2 21.16L375.2 21.16C373.07 21.1555 371.126 22.3723 370.2 24.29L192 394.68C190.695 397.441 187.399 398.622 184.638 397.318 183.479 396.77 182.547 395.838 182 394.68L105.14 234.44C103.816 231.688 100.512 230.53 97.7593 231.854 97.4467 232.004 97.149 232.184 96.87 232.39L82.39 243.09C80.2747 244.662 77.3429 244.52 75.39 242.75L73.61 241.15C71.3414 239.105 71.16 235.608 73.2049 233.34 73.4624 233.054 73.749 232.796 74.06 232.57L115.06 202.8C117.533 201.007 120.99 201.558 122.783 204.031 123.005 204.337 123.195 204.665 123.35 205.01L187.23 347.38C188.484 350.165 191.758 351.406 194.543 350.152 195.712 349.626 196.662 348.709 197.23 347.56L365.15 7.9C366.088 6.01802 368.007 4.82616 370.11 4.82Z" fill="#3F3F3F"/><text fill="#3F3F3F" font-family="SimSun-ExtB" font-size="219.11" transform="matrix(1.26 0 0 1 136.12 188.3)">3</text><path d="M21.1 529C15.6585 529.128 10.3547 527.281 6.17 523.8 2.05667 520.373 0 516.217 0 511.33L0 449C0 444.12 2.05667 439.967 6.17 436.54 10.3618 433.077 15.6648 431.248 21.1 431.39L116.52 431.39 116.52 446 23.52 446C21.14 446 19.52 446.34 18.73 447 17.94 447.66 17.52 449 17.52 451L17.52 509.3C17.52 511.3 17.92 512.62 18.73 513.3 19.54 513.98 21.14 514.3 23.52 514.3L116.52 514.3 116.52 529Z" fill="#3F3F3F"/><path d="M154 529C148.565 529.142 143.262 527.313 139.07 523.85 134.95 520.423 132.893 516.267 132.9 511.38L132.9 450.38 150.42 450.38 150.42 509.3C150.42 511.3 150.83 512.62 151.64 513.3 152.45 513.98 154.05 514.3 156.43 514.3L205.11 514.3C207.49 514.3 209.11 513.96 209.9 513.3 210.69 512.64 211.12 511.3 211.12 509.3L211.12 450.38 228.65 450.38 228.65 511.33C228.65 516.21 226.593 520.367 222.48 523.8 218.297 527.277 212.998 529.124 207.56 529Z" fill="#3F3F3F"/><path d="M242.77 529 242.77 424.64 260.3 424.64 260.3 450.38 317.42 450.38C322.854 450.235 328.157 452.061 332.35 455.52 336.457 458.96 338.513 463.117 338.52 467.99L338.52 511.33C338.52 516.21 336.463 520.367 332.35 523.8 328.165 527.281 322.862 529.128 317.42 529ZM266.3 514.37 315 514.37C317.38 514.37 319 514.03 319.79 513.37 320.58 512.71 321 511.37 321 509.37L321 470C321 468 320.6 466.68 319.79 466 318.98 465.32 317.38 465 315 465L266.3 465C263.92 465 262.3 465.33 261.52 466 260.74 466.67 260.3 468 260.3 470L260.3 509.3C260.3 511.3 260.71 512.62 261.52 513.3 262.33 513.98 263.92 514.32 266.3 514.32Z" fill="#3F3F3F"/><path d="M371.62 529C366.188 529.139 360.889 527.31 356.7 523.85 352.58 520.423 350.523 516.267 350.53 511.38L350.53 468C350.53 463.12 352.587 458.963 356.7 455.53 360.89 452.072 366.189 450.247 371.62 450.39L425.18 450.39C430.614 450.247 435.916 452.073 440.11 455.53 444.223 458.97 446.28 463.127 446.28 468L446.28 497 368.05 497 368.05 509.3C368.05 511.3 368.46 512.62 369.27 513.3 370.08 513.98 371.68 514.3 374.06 514.3L446.28 514.3 446.28 529ZM368.05 483.34 428.59 483.34 428.59 470C428.59 468 428.21 466.68 427.45 466 426.69 465.32 425.12 465 422.74 465L374.06 465C371.68 465 370.06 465.33 369.27 466 368.48 466.67 368.05 468 368.05 470Z" fill="#3F3F3F"/><path d="M463.48 529 463.48 431.6 559.06 431.6C564.524 431.473 569.851 433.323 574.06 436.81 578.227 440.29 580.31 444.423 580.31 449.21L580.31 476.57C580.31 481.363 578.227 485.497 574.06 488.97 569.851 492.457 564.524 494.307 559.06 494.18L547.38 494.18 579.83 526.29 579.83 529 559.38 529 524.49 494.18 481 494.18 481 529ZM487 479.37 556.62 479.37C559.1 479.37 560.73 479.05 561.48 478.42 562.23 477.79 562.62 476.48 562.62 474.49L562.62 451.19C562.62 449.19 562.24 447.87 561.48 447.19 560.72 446.51 559.1 446.19 556.62 446.19L487 446.19C484.61 446.19 483 446.52 482.21 447.19 481.42 447.86 480.99 449.19 480.99 451.19L480.99 474.49C480.99 476.49 481.4 477.79 482.21 478.42 483.02 479.05 484.62 479.37 487 479.37Z" fill="#3F3F3F"/><path d="M617.81 529C612.375 529.142 607.072 527.313 602.88 523.85 598.76 520.423 596.703 516.267 596.71 511.38L596.71 468C596.71 463.12 598.767 458.963 602.88 455.53 607.073 452.071 612.376 450.245 617.81 450.39L671.36 450.39C676.794 450.247 682.096 452.073 686.29 455.53 690.397 458.97 692.453 463.127 692.46 468L692.46 511.34C692.46 516.22 690.403 520.377 686.29 523.81 682.103 527.285 676.8 529.129 671.36 529ZM620.24 514.37 668.92 514.37C671.3 514.37 672.87 514.037 673.63 513.37 674.39 512.69 674.77 511.37 674.77 509.37L674.77 470C674.77 468 674.39 466.68 673.63 466 672.87 465.32 671.3 465 668.92 465L620.24 465C617.86 465 616.24 465.33 615.45 466 614.66 466.67 614.24 468 614.24 470L614.24 509.3C614.24 511.3 614.64 512.62 615.45 513.3 616.26 513.98 617.86 514.32 620.24 514.32Z" fill="#3F3F3F"/><path d="M726.54 529C721.105 529.142 715.802 527.313 711.61 523.85 707.49 520.423 705.433 516.267 705.44 511.38L705.44 468C705.44 463.12 707.497 458.963 711.61 455.53 715.803 452.071 721.106 450.245 726.54 450.39L780.09 450.39C785.516 450.249 790.81 452.071 795 455.52 799.107 458.96 801.163 463.117 801.17 467.99L801.17 511.33C801.17 516.21 799.113 520.367 795 523.8 790.82 527.274 785.524 529.121 780.09 529ZM729 514.32 777.68 514.32C780.06 514.32 781.63 513.987 782.39 513.32 783.15 512.64 783.53 511.32 783.53 509.32L783.53 470C783.53 468 783.15 466.68 782.39 466 781.63 465.32 780.06 465 777.68 465L729 465C726.62 465 725 465.33 724.21 466 723.42 466.67 722.99 468 722.99 470L722.99 509.3C722.99 511.3 723.4 512.62 724.21 513.3 725.02 513.98 726.59 514.32 729 514.32Z" fill="#3F3F3F"/><path d="M835.75 529C830.315 529.14 825.013 527.311 820.82 523.85 816.707 520.423 814.65 516.267 814.65 511.38L814.65 425.59 832.18 425.59 832.18 450.38 870.8 450.38 870.8 465 832.18 465 832.18 509.3C832.18 511.3 832.59 512.62 833.4 513.3 834.21 513.98 835.8 514.3 838.18 514.3L870.8 514.3 870.8 529Z" fill="#3F3F3F"/></g></g></svg>