<svg version="1.1" viewBox="0 0 204.6 211.87" xmlns="http://www.w3.org/2000/svg" xmlns:xlink="http://www.w3.org/1999/xlink" overflow="hidden"><defs></defs><g id="图层_2"><g id="图层_1-2"><path d=" M 201.36 108.25 L 203.09 139.17 L 188.45 135.52 L 187.53 104.36 L 201.36 108.25 Z" fill="#DDC89C"/><path d=" M 203.09 139.17 L 183.39 161.15 L 169.02 158.43 L 188.46 135.93 L 188.45 135.52 L 203.09 139.17 Z" fill="#D71718"/><path d=" M 200.95 100.8 L 201.36 108.25 L 187.53 104.36 L 186.8 79.35 L 200.94 100.8 L 200.95 100.8 Z" fill="#DDC89C"/><path d=" M 199.34 72.04 L 200.95 100.8 L 200.94 100.8 L 186.8 79.35 L 185.99 51.71 L 199.34 72.04 Z" fill="#DDC89C"/><path d=" M 188.45 135.52 L 188.46 135.93 L 169.02 158.43 L 156.69 156.1 L 186.52 135.04 L 188.45 135.52 Z" fill="#D71718"/><path d=" M 187.53 104.36 L 188.45 135.52 L 186.52 135.04 L 175.31 100.91 L 187.53 104.36 Z" fill="#DDC89C"/><path d=" M 187.53 104.36 L 175.31 100.91 L 165.8 71.93 L 173.58 59.28 L 186.8 79.35 L 187.53 104.36 Z" fill="#DDC89C"/><path d=" M 186.8 79.35 L 173.58 59.28 L 181.99 45.61 L 185.99 51.71 L 186.8 79.35 Z" fill="#DDC89C"/><path d=" M 175.31 100.91 L 186.52 135.04 L 169.96 130.91 L 157.98 96.03 L 175.31 100.91 Z" fill="#DDC89C"/><path d=" M 186.52 135.04 L 156.69 156.1 L 139.42 152.83 L 169.96 130.91 L 186.52 135.04 Z" fill="#D71718"/><path d=" M 183.39 161.15 L 178.2 166.95 L 177.96 166.73 L 153.36 176.56 L 169.02 158.43 L 183.39 161.15 Z" fill="#D71718"/><path d=" M 181.99 45.61 L 173.58 59.28 L 156.31 33.08 L 165.04 19.79 L 181.99 45.61 Z" fill="#DDC89C"/><path d=" M 178.2 166.95 L 161.21 185.91 L 136.25 196.37 L 153.36 176.56 L 177.96 166.73 L 178.2 166.95 Z" fill="#D71718"/><path d=" M 165.8 71.93 L 175.31 100.91 L 157.98 96.03 L 155.47 88.72 L 165.8 71.93 Z" fill="#DDC89C"/><path d=" M 173.58 59.28 L 165.8 71.93 L 154.13 36.41 L 156.31 33.08 L 173.58 59.28 Z" fill="#DDC89C"/><path d=" M 157.98 96.03 L 169.96 130.91 L 139.42 152.83 L 127.76 117.8 L 157.98 96.03 Z" fill="#E87EAF"/><path d=" M 169.02 158.43 L 153.36 176.56 L 131.2 185.42 L 131.95 173.56 L 156.69 156.1 L 169.02 158.43 Z" fill="#D71718"/><path d=" M 165.8 71.93 L 155.47 88.72 L 143.21 53.04 L 153.75 36.99 L 154.13 36.41 L 165.8 71.93 Z" fill="#DDC89C"/><path d=" M 165.04 19.79 L 156.31 33.08 L 126.97 24.22 L 136.29 11.27 L 165.04 19.79 Z" fill="#F0E428"/><path d=" M 155.47 88.72 L 157.98 96.03 L 127.76 117.8 L 118.15 88.91 L 155.35 88.91 L 155.47 88.72 Z" fill="#E87EAF"/><path d=" M 156.69 156.1 L 131.95 173.56 L 132.96 157.46 L 139.42 152.83 L 156.69 156.1 Z" fill="#D71718"/><path d=" M 156.31 33.08 L 154.13 36.41 L 153.75 36.99 L 117.72 37.06 L 126.97 24.22 L 156.31 33.08 Z" fill="#F0E428"/><path d=" M 143.21 53.04 L 155.47 88.72 L 155.35 88.91 L 118.15 88.91 L 106.21 53.04 L 143.21 53.04 Z" fill="#E87EAF"/><path d=" M 153.75 36.99 L 143.21 53.04 L 106.21 53.04 L 117.72 37.06 L 153.75 36.99 Z" fill="#F0E428"/><path d=" M 153.36 176.56 L 136.25 196.37 L 130.36 198.84 L 131.2 185.42 L 153.36 176.56 Z" fill="#D71718"/><path d=" M 127.76 117.8 L 139.42 152.83 L 132.96 157.46 L 132.46 156.79 L 102.38 136.08 L 127.76 117.8 Z" fill="#E87EAF"/><path d=" M 136.29 11.27 L 126.97 24.22 L 106.37 17.99 L 132.79 10.62 L 132.9 10.26 L 136.29 11.27 Z" fill="#F0E428"/><path d=" M 132.46 156.79 L 132.96 157.46 L 102.54 179.29 L 72.59 158.46 L 72.16 158.16 L 72.59 157.54 L 102.38 136.08 L 132.46 156.79 Z" fill="#E87EAF"/><path d=" M 132.96 157.46 L 131.95 173.56 L 102.59 194.29 L 102.58 194.29 L 102.54 179.29 L 132.96 157.46 Z" fill="#D71718"/><path d=" M 132.9 10.26 L 132.79 10.62 L 106.37 17.99 L 76.34 8.92 L 103.21 1.46 L 132.9 10.26 Z" fill="#F0E428"/><path d=" M 102.59 194.29 L 131.95 173.56 L 131.2 185.42 L 102.9 196.73 L 102.59 196.6 L 102.58 194.29 L 102.59 194.29 Z" fill="#D71718"/><path d=" M 131.2 185.42 L 130.36 198.84 L 102.63 210.46 L 102.59 196.6 L 102.9 196.73 L 131.2 185.42 Z" fill="#D71718"/><path d=" M 118.15 88.91 L 127.76 117.8 L 102.38 136.08 L 76.64 118.36 L 86.14 88.91 L 118.15 88.91 Z" fill="#E87EAF"/><path d=" M 126.97 24.22 L 117.72 37.06 L 87.69 37.12 L 80.24 25.28 L 106.37 17.99 L 126.97 24.22 Z" fill="#F0E428"/><path d=" M 106.21 53.04 L 118.15 88.91 L 86.14 88.91 L 97.71 53.04 L 106.21 53.04 Z" fill="#E87EAF"/><path d=" M 117.72 37.06 L 106.21 53.04 L 97.71 53.04 L 87.69 37.12 L 117.72 37.06 Z" fill="#F0E428"/><path d=" M 106.37 17.99 L 80.24 25.28 L 70.89 10.44 L 70.89 10.43 L 76.33 8.92 L 76.34 8.92 L 106.37 17.99 Z" fill="#F0E428"/><path d=" M 102.59 196.6 L 102.63 210.46 L 73.53 197.71 L 73.53 197.7 L 73.21 184.37 L 102.59 196.6 Z" fill="#18459B"/><path d=" M 102.58 194.29 L 102.59 196.6 L 73.21 184.37 L 72.94 173.14 L 102.58 194.29 Z" fill="#18459B"/><path d=" M 102.58 194.29 L 72.94 173.14 L 72.59 158.46 L 102.54 179.29 L 102.58 194.29 Z" fill="#18459B"/><path d=" M 102.38 136.08 L 72.59 157.54 L 72.16 158.16 L 65.33 153.41 L 76.64 118.36 L 102.38 136.08 Z" fill="#E87EAF"/><path d=" M 87.69 37.12 L 97.71 53.04 L 59.71 53.04 L 51.44 37.19 L 87.69 37.12 Z" fill="#F0E428"/><path d=" M 97.71 53.04 L 86.14 88.91 L 48.96 88.91 L 48.42 88.74 L 59.71 53.04 L 97.71 53.04 Z" fill="#E87EAF"/><path d=" M 51.44 37.19 L 49.68 33.81 L 80.24 25.28 L 87.69 37.12 L 51.44 37.19 Z" fill="#F0E428"/><path d=" M 86.14 88.91 L 76.64 118.36 L 45.78 97.11 L 48.37 88.91 L 48.42 88.74 L 48.96 88.91 L 86.14 88.91 Z" fill="#E87EAF"/><path d=" M 80.24 25.28 L 49.68 33.81 L 41.71 18.54 L 70.89 10.44 L 80.24 25.28 Z" fill="#F0E428"/><path d=" M 45.78 97.11 L 76.64 118.36 L 65.33 153.41 L 34.71 132.12 L 45.78 97.11 Z" fill="#E87EAF"/><path d=" M 73.21 184.37 L 73.53 197.7 L 67.87 195.22 L 50.75 175.02 L 73.21 184.37 Z" fill="#18459B"/><path d=" M 72.94 173.14 L 73.21 184.37 L 50.75 175.02 L 34.81 156.2 L 47.57 155.03 L 72.94 173.14 Z" fill="#18459B"/><path d=" M 72.59 158.46 L 72.94 173.14 L 47.57 155.03 L 65.33 153.41 L 72.16 158.16 L 72.59 158.46 Z" fill="#18459B"/><path d=" M 50.75 175.02 L 67.87 195.22 L 42.54 184.12 L 26.05 164.73 L 50.75 175.02 Z" fill="#18459B"/><path d=" M 65.33 153.41 L 47.57 155.03 L 18.13 134.03 L 18.13 134.02 L 34.71 132.12 L 65.33 153.41 Z" fill="#18459B"/><path d=" M 51.44 37.19 L 59.71 53.04 L 48.42 88.74 L 48.37 88.91 L 39.7 71.33 L 51.44 37.19 Z" fill="#89B929"/><path d=" M 49.68 33.81 L 51.44 37.19 L 39.7 71.33 L 32.82 57.39 L 49.68 33.81 Z" fill="#89B929"/><path d=" M 50.75 175.02 L 26.05 164.73 L 19.94 157.56 L 34.81 156.2 L 50.75 175.02 Z" fill="#18459B"/><path d=" M 49.68 33.81 L 32.82 57.39 L 25.61 42.77 L 41.71 18.54 L 49.68 33.81 Z" fill="#89B929"/><path d=" M 39.7 71.33 L 48.37 88.91 L 45.78 97.11 L 29.86 99.93 L 39.7 71.33 Z" fill="#89B929"/><path d=" M 47.57 155.03 L 34.81 156.2 L 16.21 134.25 L 16.21 134.24 L 18.13 134.03 L 47.57 155.03 Z" fill="#18459B"/><path d=" M 45.78 97.11 L 34.71 132.12 L 18.13 134.02 L 29.86 99.93 L 45.78 97.11 Z" fill="#89B929"/><path d=" M 32.82 57.39 L 39.7 71.33 L 29.86 99.93 L 18.51 101.95 L 20.45 74.7 L 32.82 57.39 Z" fill="#89B929"/><path d=" M 34.81 156.2 L 19.94 157.56 L 1.54 135.93 L 16.21 134.25 L 34.81 156.2 Z" fill="#18459B"/><path d=" M 25.61 42.77 L 32.82 57.39 L 20.45 74.7 L 22.37 47.65 L 25.61 42.77 Z" fill="#89B929"/><path d=" M 29.86 99.93 L 18.13 134.02 L 18.13 134.03 L 16.21 134.24 L 18.51 101.95 L 29.86 99.93 Z" fill="#89B929"/><path d=" M 7.88 69.46 L 22.37 47.65 L 20.45 74.7 L 5.37 95.78 L 7.88 69.46 Z" fill="#89B929"/><path d=" M 20.45 74.7 L 18.51 101.95 L 4.55 104.42 L 5.37 95.78 L 20.45 74.7 Z" fill="#89B929"/><path d=" M 18.51 101.95 L 16.21 134.24 L 16.21 134.25 L 1.54 135.93 L 4.55 104.42 L 18.51 101.95 Z" fill="#89B929"/><path d=" M 59.71 53.04 L 97.71 53.04 L 106.21 53.04 L 143.21 53.04" stroke="#1D110E" stroke-width="3" stroke-miterlimit="10" fill="none"/><path d=" M 41.71 18.54 L 49.68 33.81 L 51.44 37.19 L 59.71 53.04" stroke="#1D110E" stroke-width="3" stroke-miterlimit="10" fill="none"/><path d=" M 165.04 19.79 L 156.31 33.08 L 154.13 36.41 L 153.75 36.99 L 143.21 53.04" stroke="#1D110E" stroke-width="3" stroke-miterlimit="10" fill="none"/><path d=" M 103.21 1.46 L 132.9 10.26 L 136.29 11.27 L 165.04 19.79" stroke="#1D110E" stroke-width="3" stroke-miterlimit="10" fill="none"/><line x1="76.34" y1="8.92" x2="103.21" y2="1.46" stroke="#1D110E" stroke-width="3" stroke-miterlimit="10" fill="none"/><line x1="70.89" y1="10.43" x2="76.33" y2="8.92" stroke="#1D110E" stroke-width="3" stroke-miterlimit="10" fill="none"/><line x1="41.71" y1="18.54" x2="70.89" y2="10.44" stroke="#1D110E" stroke-width="3" stroke-miterlimit="10" fill="none"/><path d=" M 102.63 210.46 L 102.59 196.6 L 102.58 194.29 L 102.54 179.29" stroke="#1D110E" stroke-width="3" stroke-miterlimit="10" fill="none"/><path d=" M 34.71 132.12 L 65.33 153.41 L 72.16 158.16 L 72.59 158.46 L 102.54 179.29" stroke="#1D110E" stroke-width="3" stroke-miterlimit="10" fill="none"/><path d=" M 59.71 53.04 L 48.42 88.74 L 48.37 88.91 L 45.78 97.11 L 34.71 132.12" stroke="#1D110E" stroke-width="3" stroke-miterlimit="10" fill="none"/><line x1="73.53" y1="197.71" x2="102.63" y2="210.46" stroke="#1D110E" stroke-width="3" stroke-miterlimit="10" fill="none"/><path d=" M 42.54 184.12 L 67.87 195.22 L 73.53 197.7" stroke="#1D110E" stroke-width="3" stroke-miterlimit="10" fill="none"/><path d=" M 1.54 135.93 L 19.94 157.56 L 26.05 164.73 L 42.54 184.12" stroke="#1D110E" stroke-width="3" stroke-miterlimit="10" fill="none"/><line x1="16.21" y1="134.25" x2="1.54" y2="135.93" stroke="#1D110E" stroke-width="3" stroke-miterlimit="10" fill="none"/><line x1="18.13" y1="134.03" x2="16.21" y2="134.24" stroke="#1D110E" stroke-width="3" stroke-miterlimit="10" fill="none"/><line x1="34.71" y1="132.12" x2="18.13" y2="134.02" stroke="#1D110E" stroke-width="3" stroke-miterlimit="10" fill="none"/><path d=" M 41.71 18.54 L 25.61 42.77 L 22.37 47.65 L 7.88 69.46" stroke="#1D110E" stroke-width="3" stroke-miterlimit="10" fill="none"/><path d=" M 1.54 135.93 L 4.55 104.42 L 5.37 95.78 L 7.88 69.46" stroke="#1D110E" stroke-width="3" stroke-miterlimit="10" fill="none"/><path d=" M 143.21 53.04 L 155.47 88.72 L 157.98 96.03 L 169.96 130.91" stroke="#1D110E" stroke-width="3" stroke-miterlimit="10" fill="none"/><path d=" M 102.54 179.29 L 132.96 157.46 L 139.42 152.83 L 169.96 130.91" stroke="#1D110E" stroke-width="3" stroke-miterlimit="10" fill="none"/><path d=" M 203.09 139.17 L 188.45 135.52 L 186.52 135.04 L 169.96 130.91" stroke="#1D110E" stroke-width="3" stroke-miterlimit="10" fill="none"/><path d=" M 161.21 185.91 L 136.25 196.37 L 130.36 198.84 L 102.63 210.46" stroke="#1D110E" stroke-width="3" stroke-miterlimit="10" fill="none"/><path d=" M 203.09 139.17 L 183.39 161.15 L 178.2 166.95 L 161.21 185.91" stroke="#1D110E" stroke-width="3" stroke-miterlimit="10" fill="none"/><path d=" M 199.34 72.04 L 200.95 100.8 L 201.36 108.25 L 203.09 139.17" stroke="#1D110E" stroke-width="3" stroke-miterlimit="10" fill="none"/><path d=" M 165.04 19.79 L 181.99 45.61 L 185.99 51.71 L 199.34 72.04" stroke="#1D110E" stroke-width="3" stroke-miterlimit="10" fill="none"/><path d=" M 106.21 53.04 L 118.15 88.91 L 127.76 117.8 L 139.42 152.83" stroke="#1D110E" stroke-width="3" stroke-miterlimit="10" fill="none"/><path d=" M 72.59 157.54 L 102.38 136.08 L 127.76 117.8 L 157.98 96.03" stroke="#1D110E" stroke-width="3" stroke-miterlimit="10" fill="none"/><path d=" M 45.78 97.11 L 76.64 118.36 L 102.38 136.08 L 132.46 156.79" stroke="#1D110E" stroke-width="3" stroke-miterlimit="10" fill="none"/><path d=" M 97.71 53.04 L 86.14 88.91 L 76.64 118.36 L 65.33 153.41" stroke="#1D110E" stroke-width="3" stroke-miterlimit="10" fill="none"/><path d=" M 48.96 88.91 L 86.14 88.91 L 118.15 88.91 L 155.35 88.91" stroke="#1D110E" stroke-width="3" stroke-miterlimit="10" fill="none"/><path d=" M 182.19 45.29 L 181.99 45.61 L 173.58 59.28 L 165.8 71.93 L 155.47 88.72 L 155.35 88.91" stroke="#1D110E" stroke-width="3" stroke-miterlimit="10" fill="none"/><path d=" M 72.59 158.46 L 72.94 173.14 L 73.21 184.37 L 73.53 197.7 L 73.53 197.71" stroke="#1D110E" stroke-width="3" stroke-miterlimit="10" fill="none"/><path d=" M 132.96 157.46 L 131.95 173.56 L 131.2 185.42 L 130.36 198.84" stroke="#1D110E" stroke-width="3" stroke-miterlimit="10" fill="none"/><path d=" M 139.42 152.83 L 156.69 156.1 L 169.02 158.43 L 183.39 161.15" stroke="#1D110E" stroke-width="3" stroke-miterlimit="10" fill="none"/><path d=" M 102.9 196.73 L 131.2 185.42 L 153.36 176.56 L 177.96 166.73" stroke="#1D110E" stroke-width="3" stroke-miterlimit="10" fill="none"/><path d=" M 188.46 135.93 L 169.02 158.43 L 153.36 176.56 L 136.25 196.37" stroke="#1D110E" stroke-width="3" stroke-miterlimit="10" fill="none"/><path d=" M 102.59 194.29 L 131.95 173.56 L 156.69 156.1 L 186.52 135.04" stroke="#1D110E" stroke-width="3" stroke-miterlimit="10" fill="none"/><path d=" M 51.71 36.41 L 51.44 37.19 L 39.7 71.33 L 29.86 99.93 L 18.13 134.02 L 18.13 134.03" stroke="#1D110E" stroke-width="3" stroke-miterlimit="10" fill="none"/><path d=" M 22.37 47.65 L 20.45 74.7 L 18.51 101.95 L 16.21 134.24 L 16.21 134.25" stroke="#1D110E" stroke-width="3" stroke-miterlimit="10" fill="none"/><path d=" M 4.55 104.42 L 18.51 101.95 L 29.86 99.93 L 45.78 97.11" stroke="#1D110E" stroke-width="3" stroke-miterlimit="10" fill="none"/><path d=" M 48.37 88.91 L 39.7 71.33 L 32.82 57.39 L 25.61 42.77" stroke="#1D110E" stroke-width="3" stroke-miterlimit="10" fill="none"/><path d=" M 49.68 33.81 L 32.82 57.39 L 20.45 74.7 L 5.37 95.78" stroke="#1D110E" stroke-width="3" stroke-miterlimit="10" fill="none"/><path d=" M 65.33 153.41 L 47.57 155.03 L 34.81 156.2 L 19.94 157.56" stroke="#1D110E" stroke-width="3" stroke-miterlimit="10" fill="none"/><path d=" M 16.21 134.25 L 34.81 156.2 L 50.75 175.02 L 67.87 195.22" stroke="#1D110E" stroke-width="3" stroke-miterlimit="10" fill="none"/><path d=" M 102.9 196.73 L 102.59 196.6 L 73.21 184.37 L 50.75 175.02 L 26.05 164.73" stroke="#1D110E" stroke-width="3" stroke-miterlimit="10" fill="none"/><path d=" M 102.59 194.29 L 102.58 194.29 L 72.94 173.14 L 47.57 155.03 L 18.13 134.03" stroke="#1D110E" stroke-width="3" stroke-miterlimit="10" fill="none"/><path d=" M 185.99 51.71 L 186.8 79.35 L 187.53 104.36 L 188.45 135.52 L 188.46 135.93" stroke="#1D110E" stroke-width="3" stroke-miterlimit="10" fill="none"/><path d=" M 154.13 36.41 L 165.8 71.93 L 175.31 100.91 L 186.52 135.04" stroke="#1D110E" stroke-width="3" stroke-miterlimit="10" fill="none"/><path d=" M 201.36 108.25 L 187.53 104.36 L 175.31 100.91 L 157.98 96.03" stroke="#1D110E" stroke-width="3" stroke-miterlimit="10" fill="none"/><path d=" M 156.31 33.08 L 173.58 59.28 L 186.8 79.35 L 200.94 100.8" stroke="#1D110E" stroke-width="3" stroke-miterlimit="10" fill="none"/><path d=" M 97.71 53.04 L 87.69 37.12 L 80.24 25.28 L 70.89 10.44 L 70.89 10.43" stroke="#1D110E" stroke-width="3" stroke-miterlimit="10" fill="none"/><path d=" M 106.21 53.04 L 117.72 37.06 L 126.97 24.22 L 136.29 11.27" stroke="#1D110E" stroke-width="3" stroke-miterlimit="10" fill="none"/><path d=" M 76.33 8.92 L 76.34 8.92 L 106.37 17.99 L 126.97 24.22 L 156.31 33.08" stroke="#1D110E" stroke-width="3" stroke-miterlimit="10" fill="none"/><path d=" M 153.75 36.99 L 117.72 37.06 L 87.69 37.12 L 51.44 37.19" stroke="#1D110E" stroke-width="3" stroke-miterlimit="10" fill="none"/><path d=" M 49.68 33.81 L 80.24 25.28 L 106.37 17.99 L 132.79 10.62" stroke="#1D110E" stroke-width="3" stroke-miterlimit="10" fill="none"/><path d=" M 41.61 18.36 L 40.9 18.18 L 41.19 17.81 L 41.19 17.81 L 42.05 18.03 C 42.21 18.38 42.2 17.96 42.19 17.8 C 42.1775 17.5999 42.0921 17.4114 41.95 17.27 C 41.6639 17.0379 41.2618 17.0137 40.95 17.21 C 40.2 17.66 40.16 18.57 40.04 19.34 C 39.92 20.11 41.12 20.47 41.25 19.67 C 41.31 19.25 41.25 18.43 41.72 18.23 L 41.24 18.29 L 41.37 18.29 L 41 18 C 41 17.7933 40.97 17.7733 40.91 17.94 L 40.91 18.16 C 40.9108 18.3241 40.952 18.4856 41.03 18.63 C 41.2076 18.9271 41.5916 19.0254 41.89 18.85 C 42.99 18.16 41.42 16.43 40.64 17.67 C 40.21 18.35 41.29 18.98 41.72 18.3 Z" fill="#1D110E"/><path d=" M 165.56 19.07 L 165.48 19.07 L 165.77 19.78 L 165.66 19.91 L 165.18 19.97 C 165.235 20.0267 165.299 20.0739 165.37 20.11 C 165.673 20.2812 166.057 20.1745 166.228 19.8716 C 166.281 19.7795 166.309 19.6758 166.31 19.57 C 166.305 19.3476 166.22 19.1344 166.07 18.97 L 165.46 19.97 L 165.39 19.91 C 165.82 20.26 166.68 19.91 166.39 19.3 C 166.329 19.1055 166.215 18.9322 166.06 18.8 C 165.91 18.68 165.7 18.65 165.56 18.53 L 164.95 19.53 C 165.055 19.5329 165.147 19.6007 165.18 19.7 L 166.26 19.07 C 166.147 18.8507 165.986 18.6594 165.79 18.51 C 165.711 18.4507 165.623 18.4035 165.53 18.37 L 165.32 18.37 C 165.12 18.33 165.19 18.3967 165.53 18.57 L 164.99 19.51 C 165.46 19.51 165.51 21 165.57 21.34 C 165.7 22.13 166.91 21.8 166.78 21.01 C 166.61 20.01 166.49 18.15 164.99 18.27 C 164.642 18.2747 164.364 18.5605 164.368 18.9084 C 164.37 19.0142 164.398 19.1179 164.45 19.21 C 164.64 19.55 165.01 19.48 165.18 19.76 C 165.391 20.0365 165.786 20.0896 166.063 19.8784 C 166.292 19.7034 166.373 19.3951 166.26 19.13 C 166.057 18.7418 165.689 18.4661 165.26 18.38 C 164.69 18.25 164.16 18.99 164.65 19.38 C 164.757 19.4801 164.879 19.5643 165.01 19.63 L 165.16 19.69 C 165.287 19.7567 165.287 19.7233 165.16 19.59 L 166.16 18.98 C 166.022 18.856 165.858 18.7638 165.68 18.71 C 165.337 18.651 165.011 18.8811 164.952 19.224 C 164.923 19.3953 164.965 19.5712 165.07 19.71 L 165.13 19.78 L 164.95 19.34 L 164.95 19.43 L 166 19 C 165.69 18.79 165.4 18.6 165 18.79 C 164.766 18.9248 164.597 19.1484 164.53 19.41 C 164.462 19.6846 164.579 19.9717 164.82 20.12 C 164.935 20.1956 165.064 20.2467 165.2 20.27 C 165.98 20.44 166.32 19.27 165.53 19.06 Z" fill="#1D110E"/><path d=" M 198.83 71.51 C 198.993 71.8057 199.195 72.0782 199.43 72.32 C 199.679 72.5631 200.078 72.5583 200.321 72.3093 C 200.433 72.1943 200.497 72.0407 200.5 71.88 L 200.5 71.53 L 199.43 71.97 C 199.483 72.0431 199.523 72.1241 199.55 72.21 C 199.673 72.5354 200.037 72.6991 200.362 72.5758 C 200.644 72.4689 200.811 72.1772 200.76 71.88 C 200.709 71.6458 200.625 71.4201 200.51 71.21 L 199.51 71.97 C 199.4 71.84 199.51 72.28 199.58 72.33 C 199.685 72.6616 200.04 72.8448 200.371 72.7394 C 200.625 72.6585 200.801 72.4265 200.81 72.16 C 200.781 71.8756 200.714 71.5964 200.61 71.33 L 199.47 71.81 L 199.47 71.81 C 199.9 72.49 200.98 71.86 200.55 71.18 L 200.55 71.18 C 200.356 70.8909 199.965 70.8135 199.676 71.0072 C 199.462 71.1502 199.357 71.4085 199.41 71.66 C 199.48 71.8207 199.534 71.9883 199.57 72.16 L 200.8 71.99 C 200.735 71.6596 200.602 71.3463 200.41 71.07 C 199.93 70.5 199.12 71.22 199.41 71.83 C 199.487 71.9389 199.532 72.067 199.54 72.2 L 200.75 71.87 C 200.662 71.5781 200.512 71.3086 200.31 71.08 C 200.061 70.8369 199.662 70.8417 199.419 71.0907 C 199.307 71.2057 199.243 71.3593 199.24 71.52 L 199.24 71.87 L 200.31 71.43 C 200.151 71.2628 200.017 71.0743 199.91 70.87 C 199.55 70.15 198.47 70.78 198.83 71.5 Z" fill="#1D110E"/><path d=" M 202.87 139.41 C 202.82 139.33 202.87 138.76 202.82 139.28 C 202.793 139.382 202.793 139.488 202.82 139.59 C 202.932 139.919 203.291 140.095 203.62 139.983 C 203.693 139.958 203.761 139.919 203.82 139.87 C 203.866 139.809 203.924 139.758 203.99 139.72 L 203.13 139.5 L 203.13 139.55 L 203.07 139.07 C 203.058 139.162 203.027 139.25 202.98 139.33 C 202.808 139.633 202.914 140.017 203.217 140.189 C 203.36 140.271 203.53 140.293 203.69 140.25 C 203.808 140.219 203.922 140.175 204.03 140.12 L 203.09 139.58 L 203.09 139.68 L 203.27 139.24 L 203.2 139.31 L 204.2 140.07 C 204.347 139.754 204.442 139.416 204.48 139.07 L 203.54 139.61 L 203.54 139.61 L 203.23 139.07 C 203.195 139.259 203.123 139.439 203.02 139.6 C 202.65 140.31 203.73 140.95 204.1 140.23 C 204.315 139.877 204.448 139.481 204.49 139.07 C 204.493 138.847 204.374 138.64 204.18 138.53 L 204.18 138.53 C 203.868 138.364 203.48 138.482 203.314 138.795 C 203.269 138.88 203.244 138.974 203.24 139.07 C 203.227 139.209 203.19 139.344 203.13 139.47 C 202.86 140.09 203.56 140.76 204.13 140.23 C 204.298 140.072 204.392 139.851 204.39 139.62 C 204.385 139.272 204.1 138.994 203.752 138.998 C 203.646 139 203.542 139.028 203.45 139.08 L 203.45 139.08 L 204.16 140 C 204.385 139.678 204.434 139.265 204.29 138.9 C 204.112 138.603 203.728 138.505 203.43 138.68 C 203.274 138.78 203.129 138.897 203 139.03 L 204 139.31 L 204 139.25 L 203.94 139.73 C 204.112 139.455 204.112 139.105 203.94 138.83 C 203.5 138.16 202.42 138.83 202.86 139.46 Z" fill="#1D110E"/><path d=" M 102.05 211.56 C 102.32 211.7 102.53 211.9 102.86 211.8 C 103.192 211.695 103.375 211.34 103.269 211.009 C 103.189 210.755 102.956 210.579 102.69 210.57 L 102.38 210.57 C 102.032 210.581 101.759 210.872 101.77 211.22 C 101.777 211.427 101.885 211.618 102.06 211.73 C 102.379 211.851 102.723 211.889 103.06 211.84 L 103.06 210.6 C 102.77 210.6 102.48 210.6 102.18 210.6 C 101.4 210.69 101.36 211.84 102.18 211.85 C 102.54 211.872 102.9 211.872 103.26 211.85 C 104.05 211.76 104.06 210.51 103.26 210.6 C 102.9 210.622 102.54 210.622 102.18 210.6 L 102.18 211.85 C 102.47 211.85 102.76 211.85 103.06 211.85 C 103.405 211.806 103.65 211.491 103.606 211.146 C 103.57 210.861 103.345 210.636 103.06 210.6 L 102.69 210.6 C 102.443 210.6 102.443 210.617 102.69 210.65 L 102.37 211.81 L 102.68 211.81 L 102.51 210.58 L 102.51 210.58 L 102.99 210.64 L 102.69 210.46 C 101.98 210.09 101.34 211.17 102.06 211.54 Z" fill="#1D110E"/><path d=" M 41.44 184.59 C 41.5491 184.695 41.6494 184.809 41.74 184.93 L 42.18 183.86 C 42.1097 183.89 42.0303 183.89 41.96 183.86 C 41.6236 183.771 41.2789 183.972 41.19 184.308 C 41.1621 184.414 41.1621 184.525 41.19 184.63 C 41.2338 184.776 41.3051 184.911 41.4 185.03 C 41.4782 185.1 41.5618 185.163 41.65 185.22 L 42.51 184.36 C 42.3749 184.262 42.2221 184.19 42.06 184.15 C 41.7171 184.091 41.3913 184.321 41.3324 184.664 C 41.2813 184.961 41.448 185.253 41.73 185.36 C 41.5 185.28 41.56 185.29 41.73 185.36 C 41.8386 185.42 41.9571 185.461 42.08 185.48 C 42.74 185.6 43.22 184.7 42.56 184.34 L 42.27 184.17 C 41.63 183.78 41.07 184.63 41.51 185.17 L 41.66 185.34 L 42.42 184.34 L 42.42 184.34 C 41.91 183.72 41.03 184.61 41.54 185.22 C 41.6171 185.308 41.7084 185.382 41.81 185.44 C 42.43 185.82 43.03 184.97 42.57 184.44 L 42.42 184.27 L 41.66 185.27 L 41.95 185.44 L 42.43 184.3 C 42.32 184.3 42.19 184.18 42.06 184.14 L 41.73 185.35 C 41.7881 185.357 41.8414 185.386 41.88 185.43 C 42.39 185.81 43.06 185.08 42.74 184.57 C 42.74 184.51 42.38 184.18 42.41 184.28 L 41.64 185.05 C 41.8175 185.107 42.0045 185.127 42.19 185.11 C 42.5379 185.104 42.8151 184.817 42.8091 184.469 C 42.8064 184.309 42.7423 184.155 42.63 184.04 C 42.5394 183.919 42.4391 183.805 42.33 183.7 C 41.74 183.16 40.85 184.04 41.45 184.58 Z" fill="#1D110E"/><path d=" M 0.21 135.3 C 0.0602897 135.682 0.178084 136.116 0.5 136.37 C 0.807356 136.594 1.23215 136.56 1.5 136.29 C 1.79289 136.102 1.87806 135.712 1.69023 135.42 C 1.57822 135.245 1.38739 135.137 1.18 135.13 C 0.74 135.13 0.18 135.13 0.04 135.63 C -0.0246308 136.128 0.132589 136.629 0.47 137 C 1.09 137.51 1.98 136.63 1.35 136.12 C 1.35 136.12 1.35 135.62 1.23 135.93 L 0.79 136.37 C 0.909012 136.348 1.03099 136.348 1.15 136.37 L 0.83 135.21 C 0.75 135.21 0.716667 135.237 0.73 135.29 L 1.21 135.35 C 1.29 135.77 1.35333 135.86 1.4 135.62 C 1.45894 135.277 1.22873 134.951 0.885817 134.892 C 0.588609 134.841 0.296882 135.008 0.19 135.29 Z" fill="#1D110E"/><path d=" M 7 69.14 C 7.03749 69.2842 7.08769 69.4247 7.15 69.56 L 7.69 68.62 C 7.41 68.62 7.28 68.47 6.98 68.62 C 6.77902 68.723 6.60968 68.8785 6.49 69.07 L 7.65 69.39 C 7.65 69.5 7.55 69.7 7.65 69.5 C 7.71005 69.392 7.74748 69.2729 7.76 69.15 C 7.7724 69.0873 7.7724 69.0227 7.76 68.96 C 7.774 68.9076 7.774 68.8524 7.76 68.8 C 7.7 68.6467 7.7 68.7067 7.76 68.98 L 7.58 69.42 L 7.58 69.42 L 6.58 68.66 C 6.4951 68.8269 6.42484 69.0009 6.37 69.18 L 7.63 69.18 L 7.63 69.13 L 7.57 69.61 L 7.57 69.61 L 6.57 68.85 L 6.57 68.91 L 7.69 69 L 7.69 69 L 7.63 69.48 L 7.72 69.34 C 8.07 68.75 7.19 68.02 6.72 68.58 C 6.57499 68.7496 6.4661 68.9469 6.4 69.16 C 6.34106 69.5029 6.57127 69.8287 6.91418 69.8876 C 7.21139 69.9387 7.50312 69.772 7.61 69.49 L 7.61 69.49 L 6.61 68.73 C 6.47264 68.9243 6.42195 69.1669 6.47 69.4 C 6.56965 69.7334 6.92068 69.9228 7.25404 69.8232 C 7.4022 69.7789 7.52889 69.6817 7.61 69.55 L 7.61 69.49 C 7.9 68.9 7.09 68.14 6.61 68.73 C 6.39354 68.9394 6.29923 69.245 6.36 69.54 C 6.45704 69.8741 6.80658 70.0663 7.14071 69.9693 C 7.34787 69.9091 7.50984 69.7472 7.57 69.54 C 7.5872 69.4604 7.61406 69.3831 7.65 69.31 C 7.83788 69.0171 7.75279 68.6274 7.45994 68.4396 C 7.19947 68.2724 6.85621 68.3193 6.65 68.55 C 6.46473 68.7234 6.39148 68.9856 6.46 69.23 C 6.54 69.64 6.6 68.92 6.41 69.07 C 6.22 69.22 6.33 69.35 6.32 69.44 C 6.25 70.09 7.19 70.24 7.48 69.76 C 7.48 69.8067 7.50667 69.8067 7.56 69.76 L 7.08 69.82 C 7.24236 69.8874 7.41462 69.9279 7.59 69.94 C 8.12 69.94 8.3 69.39 8.13 69 L 8.13 68.87 C 8 68 6.8 68.36 7 69.14 Z" fill="#1D110E"/><path d=" M 161 186.61 L 161 186.61 L 162 185.85 L 161.93 185.76 L 161.22 186.68 L 161.12 186.44 L 161.3 186 C 161.254 186.058 161.2 186.108 161.14 186.15 C 160.62 186.53 160.9 187.57 161.62 187.29 C 161.818 187.22 162.006 187.126 162.18 187.01 L 161.32 186.15 C 161.407 186.07 161.407 186.07 161.32 186.15 C 161.043 186.361 160.99 186.757 161.202 187.033 C 161.377 187.262 161.685 187.343 161.95 187.23 C 162.147 187.118 162.318 186.964 162.45 186.78 C 162.83 186.29 162.09 185.58 161.59 185.92 C 161.512 185.986 161.424 186.04 161.33 186.08 L 161.81 187.22 C 162.13 186.98 162.43 186.76 162.39 186.32 C 162.334 185.894 162.012 185.552 161.59 185.47 C 161.254 185.38 160.909 185.58 160.819 185.916 C 160.776 186.076 160.798 186.246 160.88 186.39 C 160.947 186.523 161.039 186.642 161.15 186.74 C 161.382 186.999 161.78 187.022 162.04 186.79 C 162.27 186.584 162.317 186.24 162.15 185.98 L 162.15 185.98 C 161.939 185.703 161.543 185.65 161.267 185.862 C 161.038 186.037 160.957 186.345 161.07 186.61 Z" fill="#1D110E"/><path d=" M 101.67 1.14 L 101.8 1 L 103.52 0.4 L 103.45 0.4 L 104.04 0.53 C 103.88 0.45 103.98 0.53 103.92 0.43 L 104.03 0.83 L 104.03 0.83 L 102.78 1.76 L 102.85 1.76 L 101.77 1.81 L 101.93 1.81 C 102.549 1.90706 103.183 1.78316 103.72 1.46 C 103.97 1.3 104.57 0.73 104.16 0.46 C 103.976 0.303267 103.756 0.193477 103.52 0.14 L 101.76 1.77 L 102.31 1.84 C 102.94 1.84 104.79 1.32 104.21 0.41 C 103.95 3.88578e-16 103.21 0.08 102.8 0.11 C 102.198 0.144735 101.639 0.431564 101.26 0.9 C 101.1 1.17089 101.189 1.5205 101.46 1.68086 C 101.542 1.72937 101.635 1.75658 101.73 1.76 C 102.062 1.80626 102.398 1.80626 102.73 1.76 C 103.28 1.69 104.24 1.4 104.37 0.76 C 104.5 0.12 103.52 0 103.11 0 L 102.95 0 L 103.64 0 L 103.48 0 L 102.42 1.7 L 102.6 1.7 L 101.91 1.7 L 102 1.7 L 101.54 1.46 L 101.54 1.46 L 103.42 0 L 103.52 0 C 102.805 -0.116287 102.075 0.0844991 101.52 0.55 C 101.09 0.96 101.19 1.55 101.81 1.63 L 101.91 1.63 L 101.45 1.39 L 101.53 1.45 L 103.7 0.14 C 103.263 0.0627874 102.817 0.0627874 102.38 0.14 C 101.99 0.22 101.19 0.58 101.13 1.07 C 101.06 1.71 101.84 2.07 102.37 2.07 C 103.301 2.16819 104.189 1.65538 104.57 0.8 C 104.66 0.58 104.43 0.34 104.27 0.25 C 103.956 0.112293 103.608 0.0705432 103.27 0.13 C 102.589 0.161826 101.97 0.538787 101.63 1.13 Z" fill="#1D110E"/></g></g></svg>