<svg viewBox="0 0 98.04 105.84" xmlns="http://www.w3.org/2000/svg" xmlns:xlink="http://www.w3.org/1999/xlink" overflow="hidden"><defs></defs><g id="Layer_2"><g id="图层_1"><path d="M50.62 18.91 75.11 28Z" stroke="#000000" stroke-width="1.84" stroke-linejoin="round" fill="#FFFF00"/><path d="M50.62 18.91 75.11 28Z" stroke="#000000" stroke-width="1.84" stroke-linecap="round" stroke-linejoin="round" fill="none"/><path d="M50.62 18.91 75.11 28.01 79.29 29.56 87.59 22.16 50.62 18.91Z" stroke="#000000" stroke-width="1.84" stroke-linejoin="round" fill="#1B1B1B"/><path d="M50.62 18.91 75.11 28.01 79.29 29.56 87.59 22.16 50.62 18.91Z" stroke="#000000" stroke-width="1.84" stroke-linecap="round" stroke-linejoin="round" fill="none"/><path d="M50.62 18.91 50.62 18.91 41.74 35.61 65.33 42.02 79.29 29.56 75.11 28.01 50.62 18.91Z" stroke="#000000" stroke-width="1.84" stroke-linejoin="round" fill="#1B1B1B"/><path d="M50.62 18.91 50.62 18.91 41.74 35.61 65.33 42.02 79.29 29.56 75.11 28.01 50.62 18.91Z" stroke="#000000" stroke-width="1.84" stroke-linecap="round" stroke-linejoin="round" fill="none"/><path d="M50.62 18.91 41.74 35.61 50.62 18.91 24.36 30.88 41.74 35.61 50.62 18.91Z" stroke="#000000" stroke-width="1.84" stroke-linejoin="round" fill="#1B1B1B"/><path d="M50.62 18.91 41.74 35.61 50.62 18.91 24.36 30.88 41.74 35.61 50.62 18.91Z" stroke="#000000" stroke-width="1.84" stroke-linecap="round" stroke-linejoin="round" fill="none"/><path d="M50.62 18.91 50.62 18.91 15.07 15.79 0.92 24.52 24.36 30.88 50.62 18.91Z" stroke="#000000" stroke-width="1.84" stroke-linejoin="round" fill="#1B1B1B"/><path d="M50.62 18.91 50.62 18.91 15.07 15.79 0.92 24.52 24.36 30.88 50.62 18.91Z" stroke="#000000" stroke-width="1.84" stroke-linecap="round" stroke-linejoin="round" fill="none"/><path d="M75.11 28 79.29 29.55Z" stroke="#000000" stroke-width="1.84" stroke-linejoin="round" fill="#FFFF00"/><path d="M75.11 28 79.29 29.55Z" stroke="#000000" stroke-width="1.84" stroke-linecap="round" stroke-linejoin="round" fill="none"/><path d="M87.59 22.16 97.11 13.66 73.51 8.47 50.62 18.91 87.59 22.16Z" stroke="#000000" stroke-width="1.84" stroke-linejoin="round" fill="#1B1B1B"/><path d="M87.59 22.16 97.11 13.66 73.51 8.47 50.62 18.91 87.59 22.16Z" stroke="#000000" stroke-width="1.84" stroke-linecap="round" stroke-linejoin="round" fill="none"/><path d="M50.62 18.91 73.51 8.47 57.99 5.06 50.62 18.91Z" stroke="#000000" stroke-width="1.84" stroke-linejoin="round" fill="#1B1B1B"/><path d="M50.62 18.91 73.51 8.47 57.99 5.06 50.62 18.91Z" stroke="#000000" stroke-width="1.84" stroke-linecap="round" stroke-linejoin="round" fill="none"/><path d="M50.62 18.91 57.99 5.06 50.62 18.91 57.99 5.06 39.17 0.92 25.28 9.49 50.62 18.91Z" stroke="#000000" stroke-width="1.84" stroke-linejoin="round" fill="#1B1B1B"/><path d="M50.62 18.91 57.99 5.06 50.62 18.91 57.99 5.06 39.17 0.92 25.28 9.49 50.62 18.91Z" stroke="#000000" stroke-width="1.84" stroke-linecap="round" stroke-linejoin="round" fill="none"/><path d="M50.62 18.91 25.28 9.49Z" stroke="#000000" stroke-width="1.84" stroke-linejoin="round" fill="#FFFF00"/><path d="M50.62 18.91 25.28 9.49Z" stroke="#000000" stroke-width="1.84" stroke-linecap="round" stroke-linejoin="round" fill="none"/><path d="M25.28 9.49 15.07 15.79 50.62 18.91 25.28 9.49Z" stroke="#000000" stroke-width="1.84" stroke-linejoin="round" fill="#1B1B1B"/><path d="M25.28 9.49 15.07 15.79 50.62 18.91 25.28 9.49Z" stroke="#000000" stroke-width="1.84" stroke-linecap="round" stroke-linejoin="round" fill="none"/><path d="M26.18 71.33 42.34 76.68Z" stroke="#000000" stroke-width="1.84" stroke-linejoin="round" fill="#FF0000"/><path d="M26.18 71.33 42.34 76.68Z" stroke="#000000" stroke-width="1.84" stroke-linecap="round" stroke-linejoin="round" fill="none"/><path d="M25.27 51.1 25.27 51.1 42.04 56.14 25.27 51.1Z" stroke="#000000" stroke-width="1.84" stroke-linejoin="round" fill="#FF0000"/><path d="M25.27 51.1 25.27 51.1 42.04 56.14 25.27 51.1Z" stroke="#000000" stroke-width="1.84" stroke-linecap="round" stroke-linejoin="round" fill="none"/><path d="M4.17 64.03 4.17 64.03 26.18 71.33 4.17 64.03Z" stroke="#000000" stroke-width="1.84" stroke-linejoin="round" fill="#FF0000"/><path d="M4.17 64.03 4.17 64.03 26.18 71.33 4.17 64.03Z" stroke="#000000" stroke-width="1.84" stroke-linecap="round" stroke-linejoin="round" fill="none"/><path d="M25.27 51.1 20.58 49.69Z" stroke="#000000" stroke-width="1.84" stroke-linejoin="round" fill="#FF0000"/><path d="M25.27 51.1 20.58 49.69Z" stroke="#000000" stroke-width="1.84" stroke-linecap="round" stroke-linejoin="round" fill="none"/><path d="M25.27 51.1 20.58 49.69 2.55 44.27 20.58 49.69 2.55 44.27 4.17 64.03 26.18 71.33 25.27 51.1Z" stroke="#000000" stroke-width="1.84" stroke-linejoin="round" fill="#EE0000"/><path d="M25.27 51.1 20.58 49.69 2.55 44.27 20.58 49.69 2.55 44.27 4.17 64.03 26.18 71.33 25.27 51.1Z" stroke="#000000" stroke-width="1.84" stroke-linecap="round" stroke-linejoin="round" fill="none"/><path d="M26.18 71.33 25.27 51.1Z" stroke="#000000" stroke-width="1.84" stroke-linejoin="round" fill="#FF0000"/><path d="M26.18 71.33 26.18 71.33 25.27 51.1 26.18 71.33Z" stroke="#000000" stroke-width="1.84" stroke-linecap="round" stroke-linejoin="round" fill="none"/><path d="M25.27 51.1 25 45.19Z" stroke="#000000" stroke-width="1.84" stroke-linejoin="round" fill="#FF0000"/><path d="M25 45.19 25.27 51.1Z" stroke="#000000" stroke-width="1.84" stroke-linecap="round" stroke-linejoin="round" fill="none"/><path d="M64.8 62.98 65.33 42.02 41.74 35.61 42.04 56.14 64.8 62.98Z" stroke="#000000" stroke-width="1.84" stroke-linejoin="round" fill="#EE0000"/><path d="M64.8 62.98 65.33 42.02 41.74 35.61 42.04 56.14 64.8 62.98Z" stroke="#000000" stroke-width="1.84" stroke-linecap="round" stroke-linejoin="round" fill="none"/><path d="M26.18 71.33 27.09 91.55 26.18 71.33 27.09 91.55 42.64 97.22 42.34 76.68ZM42.34 76.68 42.64 97.22Z" stroke="#000000" stroke-width="1.84" stroke-linejoin="round" fill="#BFBFBF"/><path d="M26.18 71.33 27.09 91.55 26.18 71.33 27.09 91.55 42.64 97.22 42.34 76.68ZM42.34 76.68 42.64 97.22Z" stroke="#000000" stroke-width="1.84" stroke-linecap="round" stroke-linejoin="round" fill="none"/><path d="M42.04 56.14 64.8 62.98 64.8 62.98 42.04 56.14Z" stroke="#000000" stroke-width="1.84" stroke-linejoin="round" fill="#FF0000"/><path d="M42.04 56.14 64.8 62.98 64.8 62.98 42.04 56.14Z" stroke="#000000" stroke-width="1.84" stroke-linecap="round" stroke-linejoin="round" fill="none"/><path d="M42.34 76.68 64.27 83.95 42.34 76.68 42.64 97.22 63.75 104.92 64.27 83.95 42.34 76.68Z" stroke="#000000" stroke-width="1.84" stroke-linejoin="round" fill="#EE0000"/><path d="M42.34 76.68 64.27 83.95 42.34 76.68 42.64 97.22 63.75 104.92 64.27 83.95 42.34 76.68Z" stroke="#000000" stroke-width="1.84" stroke-linecap="round" stroke-linejoin="round" fill="none"/><path d="M42.04 56.14 25.27 51.1 26.18 71.33 42.34 76.68 64.27 83.95 64.8 62.98 42.04 56.14Z" stroke="#000000" stroke-width="1.84" stroke-linejoin="round" fill="#EE0000"/><path d="M42.04 56.14 25.27 51.1 26.18 71.33 42.34 76.68 64.27 83.95 64.8 62.98 42.04 56.14Z" stroke="#000000" stroke-width="1.84" stroke-linecap="round" stroke-linejoin="round" fill="none"/><path d="M4.17 64.03 5.8 83.79 27.09 91.55 26.18 71.33 4.17 64.03Z" stroke="#000000" stroke-width="1.84" stroke-linejoin="round" fill="#EE0000"/><path d="M4.17 64.03 5.8 83.79 27.09 91.55 26.18 71.33 4.17 64.03Z" stroke="#000000" stroke-width="1.84" stroke-linecap="round" stroke-linejoin="round" fill="none"/><path d="M20.58 49.69 25.27 51.1 25 45.19 24.36 30.88 25 45.19 24.36 30.88 0.92 24.52 2.55 44.27 20.58 49.69Z" stroke="#000000" stroke-width="1.84" stroke-linejoin="round" fill="#EE0000"/><path d="M20.58 49.69 25.27 51.1 25 45.19 24.36 30.88 25 45.19 24.36 30.88 0.92 24.52 2.55 44.27 20.58 49.69Z" stroke="#000000" stroke-width="1.84" stroke-linecap="round" stroke-linejoin="round" fill="none"/><path d="M25.27 51.1 42.04 56.14 41.74 35.61 42.04 56.14 41.74 35.61 24.36 30.89 25 45.2 25.27 51.1Z" stroke="#000000" stroke-width="1.84" stroke-linejoin="round" fill="#BFBFBF"/><path d="M25.27 51.1 42.04 56.14 41.74 35.61 42.04 56.14 41.74 35.61 24.36 30.89 25 45.2 25.27 51.1Z" stroke="#000000" stroke-width="1.84" stroke-linecap="round" stroke-linejoin="round" fill="none"/><path d="M86.82 41.32 87.59 22.16 79.29 29.56 78.36 49.65 86.82 41.32Z" stroke="#000000" stroke-width="1.84" stroke-linejoin="round" fill="#BFBFBF"/><path d="M86.82 41.32 87.59 22.16 79.29 29.56 78.36 49.65 86.82 41.32Z" stroke="#000000" stroke-width="1.84" stroke-linejoin="round" fill="none"/><path d="M95.68 32.6 97.12 13.66 87.59 22.16 86.82 41.32 95.68 32.6Z" stroke="#000000" stroke-width="1.84" stroke-linejoin="round" fill="#00D800"/><path d="M95.68 32.6 97.12 13.66 87.59 22.16 86.82 41.32 95.68 32.6Z" stroke="#000000" stroke-width="1.84" stroke-linejoin="round" fill="none"/><path d="M78.36 49.65 64.8 62.98 78.36 49.65 79.29 29.56 78.36 49.65 79.29 29.56 65.33 42.02 64.8 62.98 78.36 49.65Z" stroke="#000000" stroke-width="1.84" stroke-linejoin="round" fill="#00D800"/><path d="M78.36 49.65 64.8 62.98 78.36 49.65 79.29 29.56 78.36 49.65 79.29 29.56 65.33 42.02 64.8 62.98 78.36 49.65Z" stroke="#000000" stroke-width="1.84" stroke-linejoin="round" fill="none"/><path d="M78.36 49.65 78.36 49.65 86.82 41.32 78.36 49.65Z" stroke="#000000" stroke-width="1.84" stroke-linejoin="round" fill="#00FF00"/><path d="M78.36 49.65 78.36 49.65 86.82 41.32 78.36 49.65Z" stroke="#000000" stroke-width="1.84" stroke-linejoin="round" fill="none"/><path d="M86.05 60.4 84.23 62.4Z" stroke="#000000" stroke-width="1.84" stroke-linejoin="round" fill="#00FF00"/><path d="M86.05 60.4 84.23 62.4Z" stroke="#000000" stroke-width="1.84" stroke-linejoin="round" fill="none"/><path d="M86.82 41.32 95.68 32.6Z" stroke="#000000" stroke-width="1.84" stroke-linejoin="round" fill="#00FF00"/><path d="M86.82 41.32 95.68 32.6Z" stroke="#000000" stroke-width="1.84" stroke-linejoin="round" fill="none"/><path d="M84.23 62.37 77.42 69.73 76.55 88.39 76.48 89.82 85.29 79.39 86.05 60.4 84.23 62.37Z" stroke="#000000" stroke-width="1.84" stroke-linejoin="round" fill="#BFBFBF"/><path d="M84.23 62.37 77.42 69.73 76.55 88.39 76.48 89.82 85.29 79.39 86.05 60.4 84.23 62.37Z" stroke="#000000" stroke-width="1.84" stroke-linejoin="round" fill="none"/><path d="M84.23 62.37 77.42 69.73Z" stroke="#000000" stroke-width="1.84" stroke-linejoin="round" fill="#00FF00"/><path d="M84.23 62.37 77.42 69.73Z" stroke="#000000" stroke-width="1.84" stroke-linejoin="round" fill="none"/><path d="M86.82 41.32 78.36 49.65 64.8 62.98 64.27 83.95 77.42 69.73 84.23 62.37 86.05 60.4 94.25 51.53 95.68 32.6 86.82 41.32Z" stroke="#000000" stroke-width="1.84" stroke-linejoin="round" fill="#00D800"/><path d="M86.82 41.32 78.36 49.65 64.8 62.98 64.27 83.95 77.42 69.73 84.23 62.37 86.05 60.4 94.25 51.53 95.68 32.6 86.82 41.32Z" stroke="#000000" stroke-width="1.84" stroke-linejoin="round" fill="none"/><path d="M85.29 79.39 85.29 79.39 86.06 60.4 85.29 79.39 92.82 70.47 94.25 51.53 86.06 60.4 85.29 79.39Z" stroke="#000000" stroke-width="1.84" stroke-linejoin="round" fill="#00D800"/><path d="M85.29 79.39 85.29 79.39 86.06 60.4 85.29 79.39 92.82 70.47 94.25 51.53 86.06 60.4 85.29 79.39Z" stroke="#000000" stroke-width="1.84" stroke-linejoin="round" fill="none"/><path d="M77.42 69.73 64.28 84Z" stroke="#000000" stroke-width="1.84" stroke-linejoin="round" fill="#00FF00"/><path d="M77.42 69.73 64.28 84Z" stroke="#000000" stroke-width="1.84" stroke-linejoin="round" fill="none"/><path d="M77.42 69.73 76.55 88.39 77.42 69.73 64.28 83.95 63.75 104.92 76.48 89.82 76.55 88.39 77.42 69.73Z" stroke="#000000" stroke-width="1.84" stroke-linejoin="round" fill="#00D800"/><path d="M77.42 69.73 76.55 88.39 77.42 69.73 64.28 83.95 63.75 104.92 76.48 89.82 76.55 88.39 77.42 69.73Z" stroke="#000000" stroke-width="1.84" stroke-linejoin="round" fill="none"/><path d="M76.49 89.82 76.55 88.39Z" stroke="#000000" stroke-width="1.84" stroke-linejoin="round" fill="#00FF00"/><path d="M76.48 89.82 76.48 89.82 76.55 88.39 76.48 89.82Z" stroke="#000000" stroke-width="1.84" stroke-linejoin="round" fill="none"/></g></g></svg>