<svg viewBox="0 0 202 117.47" xmlns="http://www.w3.org/2000/svg" xmlns:xlink="http://www.w3.org/1999/xlink" id="_图层_2" overflow="hidden"><defs></defs><g id="_图层_1-2"><path d="M101 1 126 15.43 76 15.43 101 1Z" stroke-width="0" fill="#FFFF00"/><path d="M126 16.43 76 16.43C75.55 16.43 75.15 16.13 75.03 15.69 74.91 15.25 75.1 14.79 75.5 14.57L100.5 0.13C100.81-0.05 101.19-0.05 101.5 0.13L126.5 14.56C126.89 14.79 127.08 15.25 126.97 15.68 126.86 16.11 126.46 16.42 126 16.42ZM79.73 14.43 122.27 14.43 101 2.15 79.73 14.43Z" stroke-width="0"/><path d="M51 29.87 76 15.43 76 44.3 51 29.87Z" stroke-width="0" fill="#404040"/><path d="M76 45.3C75.83 45.3 75.65 45.26 75.5 45.17L50.5 30.74C50.19 30.56 50 30.23 50 29.87 50 29.51 50.19 29.18 50.5 29L75.5 14.57C75.81 14.39 76.19 14.39 76.5 14.57 76.81 14.75 77 15.08 77 15.44L77 44.31C77 44.67 76.81 45 76.5 45.18 76.35 45.27 76.17 45.31 76 45.31ZM53 29.87 75 42.57 75 17.17 53 29.87Z" stroke-width="0"/><path d="M151 29.87 126 44.3 126 15.43 151 29.87Z" stroke-width="0" fill="#404040"/><path d="M126 45.3C125.83 45.3 125.65 45.26 125.5 45.17 125.19 44.99 125 44.66 125 44.3L125 15.43C125 15.07 125.19 14.74 125.5 14.56 125.81 14.38 126.19 14.38 126.5 14.56L151.5 28.99C151.81 29.17 152 29.5 152 29.86 152 30.22 151.81 30.55 151.5 30.73L126.5 45.16C126.35 45.25 126.17 45.29 126 45.29ZM127 17.17 127 42.57 149 29.87 127 17.17Z" stroke-width="0"/><path d="M101 58.73 76 44.3 126 44.3 101 58.73Z" stroke-width="0" fill="#FFFF00"/><path d="M101 59.73C100.83 59.73 100.65 59.69 100.5 59.6L75.5 45.17C75.11 44.94 74.92 44.48 75.03 44.05 75.14 43.62 75.54 43.31 76 43.31L126 43.31C126.45 43.31 126.85 43.61 126.97 44.05 127.09 44.49 126.9 44.95 126.5 45.17L101.5 59.6C101.35 59.69 101.17 59.73 101 59.73ZM79.73 45.3 101 57.58 122.27 45.3 79.73 45.3Z" stroke-width="0"/><path d="M126 44.3 76 44.3 76 15.43 126 15.43 126 44.3Z" stroke-width="0" fill="#404040"/><path d="M126 45.3 76 45.3C75.45 45.3 75 44.85 75 44.3L75 15.43C75 14.88 75.45 14.43 76 14.43L126 14.43C126.55 14.43 127 14.88 127 15.43L127 44.3C127 44.85 126.55 45.3 126 45.3ZM77 43.3 125 43.3 125 16.43 77 16.43 77 43.3Z" stroke-width="0"/><path d="M101 58.73 101 87.6 76 44.3 101 58.73Z" stroke-width="0" fill="#404040"/><path d="M101 88.6C100.65 88.6 100.32 88.41 100.13 88.1L75.13 44.8C74.9 44.41 74.97 43.91 75.29 43.59 75.61 43.27 76.11 43.21 76.5 43.43L101.5 57.86C101.81 58.04 102 58.37 102 58.73L102 87.6C102 88.05 101.7 88.45 101.26 88.57 101.17 88.59 101.09 88.6 101 88.6ZM78.73 47.03 100 83.87 100 59.31 78.73 47.03Z" stroke-width="0"/><path d="M51 29.87 76 44.3 51 58.73 51 29.87Z" stroke-width="0" fill="#FFFF00"/><path d="M51 59.73C50.83 59.73 50.65 59.69 50.5 59.6 50.19 59.42 50 59.09 50 58.73L50 29.86C50 29.5 50.19 29.17 50.5 28.99 50.81 28.81 51.19 28.81 51.5 28.99L76.5 43.42C76.81 43.6 77 43.93 77 44.29 77 44.65 76.81 44.98 76.5 45.16L51.5 59.59C51.35 59.68 51.17 59.72 51 59.72ZM52 31.6 52 57 74 44.3 52 31.6Z" stroke-width="0"/><path d="M101 116.47 76 102.04 101 87.6 101 116.47Z" stroke-width="0" fill="#FF0000"/><path d="M101 117.47C100.83 117.47 100.65 117.43 100.5 117.34L75.5 102.91C75.19 102.73 75 102.4 75 102.04 75 101.68 75.19 101.35 75.5 101.17L100.5 86.74C100.81 86.56 101.19 86.56 101.5 86.74 101.81 86.92 102 87.25 102 87.61L102 116.48C102 116.84 101.81 117.17 101.5 117.35 101.35 117.44 101.17 117.48 101 117.48ZM78 102.04 100 114.74 100 89.34 78 102.04Z" stroke-width="0"/><path d="M51 87.6 51 58.73 76 102.04 51 87.6Z" stroke-width="0" fill="#FF0000"/><path d="M76 103.04C75.83 103.04 75.66 103 75.5 102.91L50.5 88.48C50.19 88.3 50 87.97 50 87.61L50 58.74C50 58.29 50.3 57.89 50.74 57.77 51.18 57.65 51.64 57.84 51.86 58.24L76.86 101.54C77.09 101.93 77.02 102.43 76.7 102.75 76.51 102.94 76.25 103.04 75.99 103.04ZM52 87.03 73.27 99.31 52 62.47 52 87.03Z" stroke-width="0"/><path d="M76 44.3 101 87.6 76 102.04 51 58.73 76 44.3Z" stroke-width="0" fill="#404040"/><path d="M76 103.04C75.91 103.04 75.83 103.03 75.74 103.01 75.48 102.94 75.27 102.77 75.13 102.54L50.13 59.24C50 59.01 49.96 58.74 50.03 58.48 50.1 58.22 50.27 58.01 50.5 57.87L75.5 43.44C75.98 43.16 76.59 43.33 76.87 43.81L101.87 87.11C102.15 87.59 101.98 88.2 101.5 88.48L76.5 102.91C76.35 103 76.17 103.04 76 103.04ZM52.37 59.1 76.37 100.67 99.64 87.24 75.64 45.67 52.37 59.1Z" stroke-width="0"/><path d="M151 29.87 151 58.73 126 44.3 151 29.87Z" stroke-width="0" fill="#FFFF00"/><path d="M151 59.73C150.83 59.73 150.65 59.69 150.5 59.6L125.5 45.17C125.19 44.99 125 44.66 125 44.3 125 43.94 125.19 43.61 125.5 43.43L150.5 29C150.81 28.82 151.19 28.82 151.5 29 151.81 29.18 152 29.51 152 29.87L152 58.74C152 59.1 151.81 59.43 151.5 59.61 151.35 59.7 151.17 59.74 151 59.74ZM128 44.3 150 57 150 31.6 128 44.3Z" stroke-width="0"/><path d="M101 58.73 126 44.3 101 87.6 101 58.73Z" stroke-width="0" fill="#404040"/><path d="M101 88.6C100.91 88.6 100.83 88.59 100.74 88.57 100.3 88.45 100 88.06 100 87.6L100 58.73C100 58.37 100.19 58.04 100.5 57.86L125.5 43.43C125.89 43.21 126.39 43.27 126.71 43.59 127.03 43.91 127.1 44.41 126.87 44.8L101.87 88.1C101.69 88.41 101.35 88.6 101 88.6ZM102 59.31 102 83.87 123.27 47.03 102 59.31Z" stroke-width="0"/><path d="M151 87.6 126 102.04 151 58.73 151 87.6Z" stroke-width="0" fill="#00D800"/><path d="M126 103.04C125.74 103.04 125.49 102.94 125.29 102.75 124.97 102.43 124.9 101.93 125.13 101.54L150.13 58.24C150.36 57.85 150.82 57.66 151.25 57.77 151.69 57.89 151.99 58.28 151.99 58.74L151.99 87.61C151.99 87.97 151.8 88.3 151.49 88.48L126.49 102.91C126.33 103 126.16 103.04 125.99 103.04ZM150 62.47 128.73 99.31 150 87.03 150 62.47Z" stroke-width="0"/><path d="M101 116.47 101 87.6 126 102.04 101 116.47Z" stroke-width="0" fill="#00D800"/><path d="M101 117.47C100.83 117.47 100.65 117.43 100.5 117.34 100.19 117.16 100 116.83 100 116.47L100 87.6C100 87.24 100.19 86.91 100.5 86.73 100.81 86.55 101.19 86.55 101.5 86.73L126.5 101.16C126.81 101.34 127 101.67 127 102.03 127 102.39 126.81 102.72 126.5 102.9L101.5 117.33C101.35 117.42 101.17 117.46 101 117.46ZM102 89.33 102 114.73 124 102.03 102 89.33Z" stroke-width="0"/><path d="M101 87.6 126 44.3 151 58.73 126 102.04 101 87.6Z" stroke-width="0" fill="#404040"/><path d="M126 103.04C125.83 103.04 125.65 102.99 125.5 102.91L100.5 88.48C100.02 88.2 99.86 87.59 100.13 87.11L125.13 43.81C125.41 43.33 126.02 43.17 126.5 43.44L151.5 57.87C151.73 58 151.9 58.22 151.97 58.48 152.04 58.74 152 59.01 151.87 59.24L126.87 102.54C126.74 102.77 126.52 102.94 126.26 103.01 126.18 103.03 126.09 103.04 126 103.04ZM102.37 87.24 125.64 100.67 149.64 59.1 126.37 45.67 102.37 87.24Z" stroke-width="0"/><path d="M201 1 201 29.87 176 15.43 201 1Z" stroke-width="0" fill="#404040"/><path d="M201 30.87C200.83 30.87 200.65 30.83 200.5 30.74L175.5 16.31C175.19 16.13 175 15.8 175 15.44 175 15.08 175.19 14.75 175.5 14.57L200.5 0.13C200.81-0.05 201.19-0.05 201.5 0.13 201.81 0.31 202 0.64 202 1L202 29.87C202 30.23 201.81 30.56 201.5 30.74 201.35 30.83 201.17 30.87 201 30.87ZM178 15.44 200 28.14 200 2.73 178 15.43Z" stroke-width="0"/><path d="M151 29.87 176 15.43 151 58.74 151 29.87Z" stroke-width="0" fill="#404040"/><path d="M151 59.73C150.91 59.73 150.83 59.72 150.74 59.7 150.3 59.58 150 59.19 150 58.73L150 29.86C150 29.5 150.19 29.17 150.5 28.99L175.5 14.56C175.89 14.34 176.39 14.4 176.71 14.72 177.03 15.04 177.1 15.54 176.87 15.93L151.87 59.23C151.69 59.54 151.35 59.73 151 59.73ZM152 30.44 152 55 173.27 18.16 152 30.44Z" stroke-width="0"/><path d="M201 58.74 176 73.17 201 29.87 201 58.74Z" stroke-width="0" fill="#FFA100"/><path d="M176 74.17C175.74 74.17 175.49 74.07 175.29 73.88 174.97 73.56 174.9 73.06 175.13 72.67L200.13 29.37C200.36 28.98 200.82 28.79 201.25 28.9 201.69 29.02 201.99 29.41 201.99 29.87L201.99 58.74C201.99 59.1 201.8 59.43 201.49 59.61L176.49 74.04C176.33 74.13 176.16 74.17 175.99 74.17ZM200 33.6 178.73 70.44 200 58.16 200 33.6Z" stroke-width="0"/><path d="M151 87.6 151 58.74 176 73.17 151 87.6Z" stroke-width="0" fill="#FFA100"/><path d="M151 88.6C150.83 88.6 150.65 88.56 150.5 88.47 150.19 88.29 150 87.96 150 87.6L150 58.73C150 58.37 150.19 58.04 150.5 57.86 150.81 57.68 151.19 57.68 151.5 57.86L176.5 72.29C176.81 72.47 177 72.8 177 73.16 177 73.52 176.81 73.85 176.5 74.03L151.5 88.46C151.35 88.55 151.17 88.59 151 88.59ZM152 60.46 152 85.86 174 73.16 152 60.46Z" stroke-width="0"/><path d="M151 58.74 176 15.43 201 29.87 176 73.17 151 58.74Z" stroke-width="0" fill="#FFFF00"/><path d="M176 74.17C175.83 74.17 175.66 74.13 175.5 74.04L150.5 59.61C150.27 59.48 150.1 59.26 150.03 59 149.96 58.74 150 58.47 150.13 58.24L175.13 14.94C175.41 14.46 176.02 14.3 176.5 14.57L201.5 29C201.73 29.13 201.9 29.35 201.97 29.61 202.04 29.87 202 30.14 201.87 30.37L176.87 73.67C176.68 73.99 176.35 74.17 176 74.17ZM152.37 58.37 175.64 71.8 199.64 30.23 176.37 16.8 152.37 58.37Z" stroke-width="0"/><path d="M51 29.87 51 58.74 26 15.43 51 29.87Z" stroke-width="0" fill="#404040"/><path d="M51 59.73C50.65 59.73 50.32 59.54 50.13 59.23L25.13 15.93C24.9 15.54 24.97 15.04 25.29 14.72 25.61 14.4 26.11 14.34 26.5 14.56L51.5 28.99C51.81 29.17 52 29.5 52 29.86L52 58.73C52 59.18 51.7 59.58 51.26 59.7 51.17 59.72 51.09 59.73 51 59.73ZM28.73 18.17 50 55.01 50 30.45 28.73 18.17Z" stroke-width="0"/><path d="M1 1 26 15.43 1 29.87 1 1Z" stroke-width="0" fill="#404040"/><path d="M1 30.87C0.83 30.87 0.65 30.83 0.5 30.74 0.19 30.56 0 30.23 0 29.87L0 1C0 0.64 0.19 0.31 0.5 0.13 0.81-0.04 1.19-0.04 1.5 0.13L26.5 14.56C26.81 14.74 27 15.07 27 15.43 27 15.79 26.81 16.12 26.5 16.3L1.5 30.73C1.35 30.82 1.17 30.86 1 30.86ZM2 2.73 2 28.13 24 15.43 2 2.73Z" stroke-width="0"/><path d="M51 87.6 26 73.17 51 58.74 51 87.6Z" stroke-width="0" fill="#0000F2"/><path d="M51 88.6C50.83 88.6 50.65 88.56 50.5 88.47L25.5 74.04C25.19 73.86 25 73.53 25 73.17 25 72.81 25.19 72.48 25.5 72.3L50.5 57.87C50.81 57.69 51.19 57.69 51.5 57.87 51.81 58.05 52 58.38 52 58.74L52 87.61C52 87.97 51.81 88.3 51.5 88.48 51.35 88.57 51.17 88.61 51 88.61ZM28 73.17 50 85.87 50 60.47 28 73.17Z" stroke-width="0"/><path d="M1 58.74 1 29.87 26 73.17 1 58.74Z" stroke-width="0" fill="#0000F2"/><path d="M26 74.17C25.83 74.17 25.66 74.13 25.5 74.04L0.5 59.6C0.19 59.42 0 59.09 0 58.73L0 29.86C0 29.41 0.3 29.01 0.74 28.89 1.18 28.77 1.64 28.96 1.86 29.36L26.86 72.66C27.09 73.05 27.02 73.55 26.7 73.87 26.51 74.06 26.25 74.16 25.99 74.16ZM2 58.16 23.27 70.44 2 33.6 2 58.16Z" stroke-width="0"/><path d="M26 15.43 51 58.74 26 73.17 1 29.87 26 15.43Z" stroke-width="0" fill="#404040"/><path d="M26 74.17C25.65 74.17 25.32 73.99 25.13 73.67L0.13 30.37C0 30.14-0.04 29.87 0.03 29.61 0.1 29.35 0.27 29.14 0.5 29L25.5 14.57C25.98 14.29 26.59 14.46 26.87 14.94L51.87 58.24C52 58.47 52.04 58.74 51.97 59 51.9 59.26 51.73 59.47 51.5 59.61L26.5 74.04C26.34 74.13 26.17 74.17 26 74.17ZM2.37 30.23 26.37 71.8 49.64 58.37 25.63 16.8 2.37 30.23Z" stroke-width="0"/></g></svg>