<svg version="1.1" width="150" height="150" viewBox="-0.9 -0.9 1.8 1.8" xmlns="http://www.w3.org/2000/svg" xmlns:xlink="http://www.w3.org/1999/xlink" overflow="hidden"><rect x="-0.9" y="-0.9" width="1.8" height="1.8" fill="#FFFFFF"/><g stroke-width="0.1" stroke-linejoin="round" opacity="1"><path d=" M -0.457651 -0.635324 L 0.457651 -0.635324 L 0.545765 -0.147272 L -0.545765 -0.147272 Z" stroke="#000000" fill="#000000"/><path d=" M -0.545765 -0.147272 L 0.545765 -0.147272 L 0.483034 0.670563 L -0.483034 0.670563 Z" stroke="#000000" fill="#000000"/></g><g stroke-width="0" stroke-linejoin="round" stroke-opacity="0.5" opacity="1"><path d=" M -0.475364 -0.670284 L -0.33742 -0.670284 L -0.345049 -0.6069 L -0.486807 -0.6069 Z" stroke="#000000" fill="#404040"/><path d=" M -0.31274 -0.670284 L -0.174796 -0.670284 L -0.17861 -0.6069 L -0.320369 -0.6069 Z" stroke="#000000" fill="#404040"/><path d=" M -0.150116 -0.670284 L -0.0121716 -0.670284 L -0.0121716 -0.6069 L -0.15393 -0.6069 Z" stroke="#000000" fill="#404040"/><path d=" M 0.0125081 -0.670284 L 0.150452 -0.670284 L 0.154267 -0.6069 L 0.0125081 -0.6069 Z" stroke="#000000" fill="#404040"/><path d=" M 0.175132 -0.670284 L 0.313076 -0.670284 L 0.320705 -0.6069 L 0.178947 -0.6069 Z" stroke="#000000" fill="#404040"/><path d=" M 0.337756 -0.670284 L 0.4757 -0.670284 L 0.487144 -0.6069 L 0.345385 -0.6069 Z" stroke="#000000" fill="#404040"/><path d=" M -0.488529 -0.595397 L -0.34677 -0.595397 L -0.354833 -0.528407 L -0.500623 -0.528407 Z" stroke="#000000" fill="#404040"/><path d=" M -0.321398 -0.595397 L -0.179639 -0.595397 L -0.18367 -0.528407 L -0.329461 -0.528407 Z" stroke="#000000" fill="#404040"/><path d=" M -0.154267 -0.595397 L -0.0125081 -0.595397 L -0.0125081 -0.528407 L -0.158298 -0.528407 Z" stroke="#000000" fill="#404040"/><path d=" M 0.0128639 -0.595397 L 0.154623 -0.595397 L 0.158654 -0.528407 L 0.0128639 -0.528407 Z" stroke="#000000" fill="#404040"/><path d=" M 0.179995 -0.595397 L 0.321753 -0.595397 L 0.329816 -0.528407 L 0.184026 -0.528407 Z" stroke="#000000" fill="#404040"/><path d=" M 0.347125 -0.595397 L 0.488884 -0.595397 L 0.500979 -0.528407 L 0.355188 -0.528407 Z" stroke="#000000" fill="#404040"/><path d=" M -0.502443 -0.516239 L -0.356653 -0.516239 L -0.365188 -0.445328 L -0.515246 -0.445328 Z" stroke="#000000" fill="#404040"/><path d=" M -0.330549 -0.516239 L -0.184758 -0.516239 L -0.189026 -0.445328 L -0.339084 -0.445328 Z" stroke="#000000" fill="#404040"/><path d=" M -0.158654 -0.516239 L -0.0128639 -0.516239 L -0.0128639 -0.445328 L -0.162922 -0.445328 Z" stroke="#000000" fill="#404040"/><path d=" M 0.0132404 -0.516239 L 0.159031 -0.516239 L 0.163298 -0.445328 L 0.0132404 -0.445328 Z" stroke="#000000" fill="#404040"/><path d=" M 0.185135 -0.516239 L 0.330925 -0.516239 L 0.33946 -0.445328 L 0.189402 -0.445328 Z" stroke="#000000" fill="#404040"/><path d=" M 0.357029 -0.516239 L 0.50282 -0.516239 L 0.515622 -0.445328 L 0.365564 -0.445328 Z" stroke="#000000" fill="#404040"/><path d=" M -0.517174 -0.432437 L -0.367116 -0.432437 L -0.376166 -0.357249 L -0.530748 -0.357249 Z" stroke="#000000" fill="#404040"/><path d=" M -0.340236 -0.432437 L -0.190178 -0.432437 L -0.194703 -0.357249 L -0.349286 -0.357249 Z" stroke="#000000" fill="#404040"/><path d=" M -0.163298 -0.432437 L -0.0132404 -0.432437 L -0.0132404 -0.357249 L -0.167823 -0.357249 Z" stroke="#000000" fill="#404040"/><path d=" M 0.0136396 -0.432437 L 0.163697 -0.432437 L 0.168222 -0.357249 L 0.0136396 -0.357249 Z" stroke="#000000" fill="#FEFE00"/><path d=" M 0.190577 -0.432437 L 0.340635 -0.432437 L 0.349685 -0.357249 L 0.195102 -0.357249 Z" stroke="#000000" fill="#FEFE00"/><path d=" M 0.367515 -0.432437 L 0.517573 -0.432437 L 0.531148 -0.357249 L 0.376565 -0.357249 Z" stroke="#000000" fill="#404040"/><path d=" M -0.532794 -0.343568 L -0.378212 -0.343568 L -0.387824 -0.263705 L -0.547213 -0.263705 Z" stroke="#000000" fill="#404040"/><path d=" M -0.350508 -0.343568 L -0.195926 -0.343568 L -0.200732 -0.263705 L -0.360121 -0.263705 Z" stroke="#000000" fill="#404040"/><path d=" M -0.168222 -0.343568 L -0.0136396 -0.343568 L -0.0136396 -0.263705 L -0.173029 -0.263705 Z" stroke="#000000" fill="#404040"/><path d=" M 0.0140637 -0.343568 L 0.168646 -0.343568 L 0.173453 -0.263705 L 0.0140637 -0.263705 Z" stroke="#000000" fill="#404040"/><path d=" M 0.19635 -0.343568 L 0.350932 -0.343568 L 0.360545 -0.263705 L 0.201156 -0.263705 Z" stroke="#000000" fill="#404040"/><path d=" M 0.378636 -0.343568 L 0.533218 -0.343568 L 0.547637 -0.263705 L 0.388248 -0.263705 Z" stroke="#000000" fill="#404040"/><path d=" M -0.549388 -0.24916 L -0.389999 -0.24916 L -0.400228 -0.164171 L -0.564732 -0.164171 Z" stroke="#000000" fill="#404040"/><path d=" M -0.36142 -0.24916 L -0.202031 -0.24916 L -0.207146 -0.164171 L -0.37165 -0.164171 Z" stroke="#000000" fill="#404040"/><path d=" M -0.173453 -0.24916 L -0.0140637 -0.24916 L -0.0140637 -0.164171 L -0.178567 -0.164171 Z" stroke="#000000" fill="#404040"/><path d=" M 0.014515 -0.24916 L 0.173904 -0.24916 L 0.179019 -0.164171 L 0.014515 -0.164171 Z" stroke="#000000" fill="#404040"/><path d=" M 0.202483 -0.24916 L 0.361872 -0.24916 L 0.372101 -0.164171 L 0.207597 -0.164171 Z" stroke="#000000" fill="#404040"/><path d=" M 0.39045 -0.24916 L 0.549839 -0.24916 L 0.565183 -0.164171 L 0.40068 -0.164171 Z" stroke="#000000" fill="#404040"/><path d=" M -0.565471 -0.144645 L -0.400967 -0.144645 L -0.393997 -0.00833287 L -0.555015 -0.00833287 Z" stroke="#000000" fill="#404040"/><path d=" M -0.372245 -0.144645 L -0.207741 -0.144645 L -0.204256 -0.00833287 L -0.365274 -0.00833287 Z" stroke="#000000" fill="#404040"/><path d=" M -0.179019 -0.144645 L -0.014515 -0.144645 L -0.014515 -0.00833287 L -0.175533 -0.00833287 Z" stroke="#000000" fill="#404040"/><path d=" M 0.0142075 -0.144645 L 0.178711 -0.144645 L 0.175226 -0.00833287 L 0.0142075 -0.00833287 Z" stroke="#000000" fill="#404040"/><path d=" M 0.207434 -0.144645 L 0.371937 -0.144645 L 0.364967 -0.00833287 L 0.203948 -0.00833287 Z" stroke="#000000" fill="#404040"/><path d=" M 0.40066 -0.144645 L 0.565163 -0.144645 L 0.554708 -0.00833287 L 0.393689 -0.00833287 Z" stroke="#000000" fill="#404040"/><path d=" M -0.553503 0.0152231 L -0.392485 0.0152231 L -0.385804 0.145879 L -0.543481 0.145879 Z" stroke="#000000" fill="#404040"/><path d=" M -0.364365 0.0152231 L -0.203346 0.0152231 L -0.200006 0.145879 L -0.357683 0.145879 Z" stroke="#000000" fill="#404040"/><path d=" M -0.175226 0.0152231 L -0.0142075 0.0152231 L -0.0142075 0.145879 L -0.171885 0.145879 Z" stroke="#000000" fill="#404040"/><path d=" M 0.0139127 0.0152231 L 0.174931 0.0152231 L 0.171591 0.145879 L 0.0139127 0.145879 Z" stroke="#000000" fill="#404040"/><path d=" M 0.203051 0.0152231 L 0.36407 0.0152231 L 0.357389 0.145879 L 0.199711 0.145879 Z" stroke="#000000" fill="#404040"/><path d=" M 0.39219 0.0152231 L 0.553208 0.0152231 L 0.543187 0.145879 L 0.385509 0.145879 Z" stroke="#000000" fill="#404040"/><path d=" M -0.542032 0.168467 L -0.384354 0.168467 L -0.377944 0.293812 L -0.532417 0.293812 Z" stroke="#000000" fill="#404040"/><path d=" M -0.356811 0.168467 L -0.199133 0.168467 L -0.195929 0.293812 L -0.350402 0.293812 Z" stroke="#000000" fill="#404040"/><path d=" M -0.171591 0.168467 L -0.0139127 0.168467 L -0.0139127 0.293812 L -0.168386 0.293812 Z" stroke="#000000" fill="#404040"/><path d=" M 0.01363 0.168467 L 0.171308 0.168467 L 0.168103 0.293812 L 0.01363 0.293812 Z" stroke="#000000" fill="#FEFE00"/><path d=" M 0.198851 0.168467 L 0.356528 0.168467 L 0.350119 0.293812 L 0.195646 0.293812 Z" stroke="#000000" fill="#FEFE00"/><path d=" M 0.384071 0.168467 L 0.541749 0.168467 L 0.532135 0.293812 L 0.377662 0.293812 Z" stroke="#000000" fill="#404040"/><path d=" M -0.531026 0.315491 L -0.376553 0.315491 L -0.370399 0.435842 L -0.521795 0.435842 Z" stroke="#000000" fill="#404040"/><path d=" M -0.349565 0.315491 L -0.195091 0.315491 L -0.192014 0.435842 L -0.34341 0.435842 Z" stroke="#000000" fill="#404040"/><path d=" M -0.168103 0.315491 L -0.01363 0.315491 L -0.01363 0.435842 L -0.165026 0.435842 Z" stroke="#000000" fill="#404040"/><path d=" M 0.0133585 0.315491 L 0.167832 0.315491 L 0.164754 0.435842 L 0.0133585 0.435842 Z" stroke="#000000" fill="#404040"/><path d=" M 0.19482 0.315491 L 0.349293 0.315491 L 0.343139 0.435842 L 0.191743 0.435842 Z" stroke="#000000" fill="#404040"/><path d=" M 0.376281 0.315491 L 0.530755 0.315491 L 0.521523 0.435842 L 0.370127 0.435842 Z" stroke="#000000" fill="#404040"/><path d=" M -0.520458 0.456665 L -0.369062 0.456665 L -0.363149 0.572315 L -0.511588 0.572315 Z" stroke="#000000" fill="#404040"/><path d=" M -0.342606 0.456665 L -0.19121 0.456665 L -0.188254 0.572315 L -0.336693 0.572315 Z" stroke="#000000" fill="#404040"/><path d=" M -0.164754 0.456665 L -0.0133585 0.456665 L -0.0133585 0.572315 L -0.161798 0.572315 Z" stroke="#000000" fill="#404040"/><path d=" M 0.0130976 0.456665 L 0.164494 0.456665 L 0.161537 0.572315 L 0.0130976 0.572315 Z" stroke="#000000" fill="#404040"/><path d=" M 0.19095 0.456665 L 0.342346 0.456665 L 0.336432 0.572315 L 0.187993 0.572315 Z" stroke="#000000" fill="#404040"/><path d=" M 0.368802 0.456665 L 0.520198 0.456665 L 0.511327 0.572315 L 0.362888 0.572315 Z" stroke="#000000" fill="#404040"/><path d=" M -0.510303 0.592333 L -0.361864 0.592333 L -0.356177 0.703552 L -0.501772 0.703552 Z" stroke="#000000" fill="#404040"/><path d=" M -0.33592 0.592333 L -0.187481 0.592333 L -0.184637 0.703552 L -0.330233 0.703552 Z" stroke="#000000" fill="#404040"/><path d=" M -0.161537 0.592333 L -0.0130976 0.592333 L -0.0130976 0.703552 L -0.158693 0.703552 Z" stroke="#000000" fill="#404040"/><path d=" M 0.0128467 0.592333 L 0.161286 0.592333 L 0.158442 0.703552 L 0.0128467 0.703552 Z" stroke="#000000" fill="#404040"/><path d=" M 0.18723 0.592333 L 0.335669 0.592333 L 0.329982 0.703552 L 0.184386 0.703552 Z" stroke="#000000" fill="#404040"/><path d=" M 0.361613 0.592333 L 0.510052 0.592333 L 0.501522 0.703552 L 0.355926 0.703552 Z" stroke="#000000" fill="#404040"/></g></svg>