<svg version="1.1" width="640" height="640" viewBox="-4 0 480 480" xmlns="http://www.w3.org/2000/svg" xmlns:xlink="http://www.w3.org/1999/xlink" overflow="hidden"><path d=" M 63.8867 177.594 L 48.3203 181.266 L 42.3594 190.887 L 19 196.391 L 8 149.672 L 31.3594 144.168 L 40.9766 150.121 L 56.5508 146.449 L 66.9453 144 L 74.9453 176 Z" fill="#A8A8A8"/><path d=" M 54.7188 138.664 L 125.742 121.93 L 136.75 168.652 L 65.7266 185.383 Z" fill="#277BAA"/><path d=" M 250.945 216 L 218.945 216 L 218.945 162.191 L 250.945 154.191 Z" fill="#B9B9B9"/><path d=" M 218.945 250.191 L 250.945 250.191 L 250.945 472 L 218.945 472 Z" fill="#B9B9B9"/><path d=" M 218.945 267.559 C 228.789 273.48 241.098 273.48 250.945 267.559 L 250.945 250.191 L 218.945 250.191 Z" fill="#A8A8A8"/><path d=" M 250.945 169.473 L 250.945 154.191 L 218.945 162.191 L 218.945 177.008 Z" fill="#A8A8A8"/><path d=" M 113.344 108.414 L 315.801 60.7148 L 334.148 138.582 L 131.691 186.281 Z" fill="#428DC5"/><path d=" M 313.965 52.9219 L 345.113 45.5859 L 367.129 139.027 L 335.98 146.363 Z" fill="#226B93"/><path d=" M 345.113 45.6016 L 349.672 44.5195 C 356.727 42.8594 362.828 38.4648 366.641 32.3047 C 370.449 26.1445 376.551 21.75 383.602 20.0898 L 434.887 8 L 464.242 132.594 L 412.953 144.672 C 405.902 146.336 398.48 145.129 392.32 141.313 C 386.16 137.504 378.738 136.297 371.688 137.953 L 367.129 139.031 Z" fill="#277BAA"/><path d=" M 222.359 82.7266 L 191.207 90.0625 L 176.09 60.7539 L 207.234 53.418 Z" fill="#226B93"/><path d=" M 129.816 38.7813 L 238.832 13.0977 L 246.172 44.2461 L 137.156 69.9297 Z" fill="#428DC5"/><path d=" M 405.473 145.246 C 407.582 143.332 408.5 140.43 407.871 137.648 L 402.367 114.281 C 401.355 109.98 397.047 107.313 392.746 108.328 C 388.441 109.344 385.777 113.652 386.793 117.953 L 392.297 141.313 C 396.277 143.73 400.816 145.086 405.473 145.246 Z" fill="#2D8FC5"/><path d=" M 387.266 92.9766 C 383.555 92.9727 380.332 90.4219 379.48 86.8086 L 375.809 71.1992 C 374.793 66.8984 377.461 62.5898 381.762 61.5742 C 386.063 60.5625 390.371 63.2266 391.383 67.5273 L 395.055 83.1055 C 396.055 87.3984 393.395 91.6914 389.105 92.7031 C 388.504 92.8633 387.887 92.957 387.266 92.9766 Z" fill="#2D8FC5"/><path d=" M 207.676 20.4297 L 238.82 13.0898 L 246.16 44.2383 L 215.012 51.5781 Z" fill="#A8A8A8"/><path d=" M 129.813 38.7734 L 160.957 31.4336 L 168.297 62.582 L 137.148 69.918 Z" fill="#A8A8A8"/><g fill="#4BA0E0"><path d=" M 149.543 157.418 L 165.117 153.746 L 170.621 177.109 L 155.047 180.777 Z"/><path d=" M 177.031 134.5 L 192.605 130.832 L 201.777 169.766 L 186.203 173.438 Z"/><path d=" M 211.844 142.734 L 227.418 139.066 L 232.922 162.426 L 217.348 166.098 Z"/></g><path d=" M 148.336 472 L 116.336 472 L 205.672 218.688 L 234.945 229.535 Z" fill="#D9D9D9"/><path d=" M 322.945 472 L 354.945 472 L 265.609 218.688 L 236.336 229.535 Z" fill="#D9D9D9"/><path d=" M 266.945 226.191 C 266.945 243.863 252.617 258.191 234.945 258.191 C 217.27 258.191 202.945 243.863 202.945 226.191 C 202.945 208.52 217.27 194.191 234.945 194.191 C 252.617 194.191 266.945 208.52 266.945 226.191 Z" fill="#D9D9D9"/><path d=" M 242.945 226.191 C 242.945 230.609 239.363 234.191 234.945 234.191 C 230.527 234.191 226.945 230.609 226.945 226.191 C 226.945 221.773 230.527 218.191 234.945 218.191 C 239.363 218.191 242.945 221.773 242.945 226.191 Z" fill="#B9B9B9"/><path d=" M 242.945 226.191 C 242.945 230.609 239.363 234.191 234.945 234.191 C 230.527 234.191 226.945 230.609 226.945 226.191 C 226.945 221.773 230.527 218.191 234.945 218.191 C 239.363 218.191 242.945 221.773 242.945 226.191 Z"/><path d=" M 11.2148 198.223 C 12.2305 202.516 16.5234 205.176 20.8164 204.176 L 44.1758 198.672 C 46.2422 198.188 48.0273 196.898 49.1445 195.098 L 53.3516 188.297 L 57.9141 187.215 C 58.7617 190.824 61.9805 193.379 65.6875 193.383 C 66.3086 193.387 66.9258 193.313 67.5273 193.168 L 122.031 180.328 L 123.871 188.121 C 124.727 191.73 127.949 194.281 131.656 194.281 C 132.273 194.281 132.887 194.207 133.488 194.063 L 210.945 175.824 L 210.945 194.398 C 202.898 200.438 197.434 209.297 195.648 219.199 L 107.402 469.336 C 106.535 471.785 106.914 474.5 108.414 476.621 C 109.914 478.738 112.348 480 114.945 480 L 146.945 480 C 150.328 480 153.344 477.875 154.48 474.688 L 210.945 316.648 L 210.945 472 C 210.945 476.418 214.527 480 218.945 480 L 250.945 480 C 255.363 480 258.945 476.418 258.945 472 L 258.945 320.48 L 314.047 474.688 C 315.184 477.875 318.203 480 321.586 480 L 353.586 480 C 356.18 480 358.617 478.738 360.117 476.621 C 361.617 474.5 361.992 471.785 361.129 469.336 L 274.777 224.535 C 274.281 212.625 268.473 201.566 258.945 194.398 L 258.945 164.52 L 328.191 148.199 C 329.043 151.809 332.262 154.363 335.969 154.367 C 336.59 154.371 337.207 154.301 337.809 154.152 L 368.961 146.816 L 373.52 145.742 C 378.512 144.57 383.762 145.434 388.113 148.145 C 393.668 151.605 400.078 153.445 406.625 153.449 C 409.375 153.445 412.117 153.125 414.793 152.488 L 466.074 140.406 C 470.363 139.395 473.023 135.102 472.023 130.809 L 442.672 6.16797 C 442.184 4.10156 440.898 2.3125 439.098 1.19141 C 437.289 0.078125 435.113 -0.273438 433.047 0.214844 L 381.777 12.2969 C 372.645 14.4102 364.742 20.1016 359.84 28.0898 C 357.156 32.4531 352.832 35.5664 347.84 36.7266 L 343.281 37.8086 L 312.145 45.1445 C 307.855 46.1563 305.191 50.4492 306.191 54.7422 L 226.625 73.4961 L 219.055 58.8398 L 248.016 52.0078 C 250.082 51.5234 251.867 50.2344 252.984 48.4336 C 254.09 46.6328 254.438 44.4688 253.953 42.418 L 246.609 11.2656 C 246.367 10.2344 245.922 9.26172 245.297 8.40625 C 244.789 7.76172 244.184 7.19922 243.504 6.73438 C 243.328 6.60938 243.215 6.41797 243.031 6.29688 C 242.148 5.74609 241.164 5.37891 240.137 5.20703 C 239.094 5.02734 238.027 5.06641 237 5.32031 L 127.977 30.9922 C 127.094 31.2188 126.258 31.6016 125.504 32.1211 C 125.391 32.1914 125.25 32.207 125.137 32.2891 C 123.426 33.5273 122.277 35.3945 121.938 37.4805 C 121.773 38.5195 121.813 39.5781 122.047 40.6016 L 129.344 71.7617 C 130.195 75.3711 133.414 77.9219 137.121 77.9297 C 137.738 77.9258 138.359 77.8555 138.961 77.7109 L 147.352 75.7344 L 170.145 70.3984 L 171.84 70 L 179.402 84.6641 L 111.504 100.664 C 107.219 101.68 104.559 105.973 105.559 110.266 L 107.391 118.047 L 52.8789 130.871 C 48.5938 131.891 45.9375 136.18 46.9375 140.473 L 42.3672 141.543 L 35.5703 137.336 C 33.7656 136.215 31.5859 135.859 29.5195 136.352 L 6.16016 141.855 C 1.87109 142.871 -0.792969 147.164 0.207031 151.457 Z M 143.105 60.3047 L 139.434 44.7266 L 155.008 41.0625 L 158.68 56.6328 Z M 211.617 267.305 L 211.543 267.488 L 141.344 464 L 126.25 464 L 202.145 248.93 C 205.32 253.473 209.41 257.313 214.145 260.199 Z M 242.945 464 L 226.945 464 L 226.945 271.871 L 229.191 265.617 C 231.094 265.945 233.016 266.137 234.945 266.191 C 236.434 266.129 237.914 265.977 239.383 265.742 L 242.945 275.703 Z M 234.945 250.191 C 221.691 250.191 210.945 239.445 210.945 226.191 C 210.945 212.938 221.691 202.191 234.945 202.191 C 248.199 202.191 258.945 212.938 258.945 226.191 C 258.945 239.445 248.199 250.191 234.945 250.191 Z M 226.945 186.992 L 226.945 172.055 L 242.945 168.289 L 242.945 187 C 237.664 185.922 232.223 185.922 226.945 187 Z M 266.824 250.09 L 342.281 464 L 327.223 464 L 254.609 260.801 C 259.367 258.102 263.527 254.461 266.824 250.098 Z M 373.441 36.4883 C 376.125 32.1211 380.449 29.0117 385.441 27.8477 L 428.938 17.6016 L 454.617 126.617 L 411.121 136.863 C 410.035 137.105 408.93 137.254 407.816 137.305 L 402.391 114.258 C 401.379 109.953 397.07 107.289 392.77 108.305 C 388.469 109.316 385.801 113.625 386.816 117.93 L 390.016 131.398 C 384.637 129.359 378.832 128.719 373.137 129.535 L 354.738 51.3672 C 362.523 48.7617 369.141 43.5 373.441 36.5039 Z M 339.16 55.1992 L 357.504 133.07 L 341.938 136.734 L 323.586 58.8789 Z M 232.871 22.7109 L 236.543 38.2891 L 220.969 41.9609 L 217.344 26.3984 Z M 174.25 52.9688 L 170.578 37.3906 L 201.727 30.0547 L 205.402 45.6016 Z M 210.551 77.2891 L 195.457 80.8477 L 187.895 66.1914 L 202.945 62.6484 L 203.008 62.6484 Z M 309.848 70.3359 L 324.543 132.633 L 231.105 154.648 L 227.441 139.07 L 211.863 142.742 L 215.535 158.313 L 199.961 161.984 L 192.625 130.832 L 177.047 134.504 L 184.383 165.648 L 168.809 169.32 L 165.137 153.742 L 149.57 157.418 L 153.242 172.992 L 137.664 176.664 L 122.945 114.398 Z M 111.055 133.602 L 118.402 164.742 L 71.6797 175.754 L 64.3359 144.609 Z M 29.9688 152.711 L 36.7695 156.922 C 38.5703 158.035 40.7461 158.391 42.8086 157.902 L 50.6016 156.07 L 54.2734 171.648 L 46.4805 173.48 C 44.4141 173.965 42.6289 175.254 41.5117 177.055 L 37.3047 183.855 L 24.9531 186.77 L 17.6172 155.625 Z"/><path d=" M 379.48 86.8086 C 380.496 91.1094 384.805 93.7734 389.105 92.7617 C 393.406 91.7461 396.07 87.4375 395.055 83.1367 L 391.383 67.5586 C 390.371 63.2578 386.063 60.5938 381.762 61.6094 C 377.461 62.6211 374.793 66.9297 375.809 71.2305 Z"/></svg>