<svg version="1.1" viewBox="0 0 42 42" xmlns="http://www.w3.org/2000/svg" xmlns:xlink="http://www.w3.org/1999/xlink" id="Capa_1" overflow="hidden"><g><circle cx="21" cy="21" r="21" fill="#FBD971"/><circle cx="12" cy="14" r="6" fill="#FFFFFF"/><circle cx="30" cy="14" r="6" fill="#FFFFFF"/><path d=" M 32.419 28.704 C 32.074 28.704 31.759 28.512 31.581 28.217 C 29.251 24.356 25.947 23.166 25.947 23.166 C 23.993 22.584 22.427 23.661 21.597 24.447 C 21.236 24.789 20.659 24.789 20.298 24.447 C 19.468 23.66 17.901 22.584 15.948 23.166 C 15.948 23.166 12.751 24.356 10.421 28.217 C 10.243 28.512 9.928 28.704 9.583 28.704 L 7.47 28.704 C 6.608 28.704 6.176 29.746 6.786 30.356 L 7.994 31.564 C 9.364 32.934 11.222 33.703 13.159 33.703 L 13.159 33.703 C 15.3 33.703 17.324 32.754 18.721 31.131 C 19.429 30.308 20.242 29.624 20.946 29.703 C 21.65 29.625 22.463 30.308 23.171 31.131 C 24.568 32.754 26.591 33.703 28.733 33.703 L 28.841 33.703 C 30.778 33.703 32.636 32.933 34.006 31.564 L 35.214 30.356 C 35.824 29.746 35.392 28.704 34.53 28.704 L 32.419 28.704 Z" fill="#414141"/><circle cx="12" cy="14" r="3" fill="#AF8066"/><circle cx="30" cy="14" r="3" fill="#AF8066"/></g><g></g><g></g><g></g><g></g><g></g><g></g><g></g><g></g><g></g><g></g><g></g><g></g><g></g><g></g><g></g></svg>