<svg version="1.1" width="682.667" height="682.667" viewBox="-25 0 512 512.001" xmlns="http://www.w3.org/2000/svg" xmlns:xlink="http://www.w3.org/1999/xlink" overflow="hidden"><path d=" M 454.973 366.152 C 454.973 337.176 354.801 313.688 231.234 313.688 C 107.672 313.688 7.5 337.176 7.5 366.152 C 7.5 395.125 107.672 418.613 231.234 418.613 C 354.801 418.613 454.973 395.125 454.973 366.152 Z" fill="#ABE0DA"/><g fill="#38AAFF"><path d=" M 37.8086 481.617 C 32.4766 481.617 28.1523 477.293 28.1523 471.961 L 28.1523 343.266 L 47.4609 343.266 L 47.4609 471.961 C 47.4609 477.293 43.1406 481.617 37.8086 481.617 Z"/><path d=" M 231.422 504.504 L 231.047 504.504 C 225.715 504.504 221.395 500.18 221.395 494.848 L 221.395 366.152 L 241.078 366.152 L 241.078 494.848 C 241.078 500.18 236.758 504.504 231.422 504.504 Z"/><path d=" M 424.664 481.617 C 419.332 481.617 415.008 477.293 415.008 471.961 L 415.008 343.266 L 434.316 343.266 L 434.316 471.961 C 434.32 477.293 429.996 481.617 424.664 481.617 Z"/></g><path d=" M 454.973 337.711 C 454.973 308.738 354.801 285.25 231.234 285.25 C 107.672 285.25 7.5 308.738 7.5 337.711 C 7.5 366.688 107.672 390.176 231.234 390.176 C 354.801 390.176 454.973 366.688 454.973 337.711 Z" fill="#FFDF49"/><path d=" M 454.965 337.711 C 454.965 340.133 454.266 342.523 452.906 344.852 C 438.066 319.262 344.477 299.531 231.234 299.531 C 117.996 299.531 24.4063 319.262 9.56641 344.852 C 8.20703 342.523 7.50391 340.133 7.50391 337.711 C 7.50391 308.742 107.664 285.254 231.234 285.254 C 354.805 285.254 454.965 308.742 454.965 337.711 Z" fill="#FFBD47"/><path d=" M 394.492 337.711 C 394.492 322.953 321.398 310.988 231.234 310.988 C 141.07 310.988 67.9805 322.953 67.9805 337.711 C 67.9805 352.469 141.07 364.434 231.234 364.434 C 321.398 364.434 394.492 352.469 394.492 337.711 Z" fill="#4C78A0"/><path d=" M 111.473 198.148 L 66.8594 198.148 C 58.4375 198.148 54.5508 187.68 60.9336 182.188 C 72.4805 172.246 87.2109 166.777 102.449 166.777 L 111.469 166.777 C 116.043 166.777 119.75 170.484 119.75 175.059 L 119.75 189.867 C 119.754 194.441 116.043 198.148 111.473 198.148 Z" fill="#628FB1"/><path d=" M 122.938 113.293 L 78.3242 113.293 C 69.9023 113.293 66.0195 102.824 72.3984 97.332 C 83.9453 87.3867 98.6797 81.918 113.914 81.918 L 122.938 81.918 C 127.512 81.918 131.219 85.625 131.219 90.1992 L 131.219 105.008 C 131.219 109.586 127.512 113.293 122.938 113.293 Z" fill="#4C78A0"/><path d=" M 243.852 133.699 C 239.934 133.699 236.039 132.035 233.316 128.805 L 189.098 76.3516 L 125.445 93.6367 C 118.109 95.6328 110.539 91.2969 108.547 83.957 C 106.555 76.6172 110.887 69.0508 118.227 67.0547 L 190.355 47.4688 C 195.523 46.0664 201.039 47.7891 204.492 51.8828 L 254.375 111.051 C 259.273 116.867 258.535 125.555 252.719 130.457 C 250.137 132.637 246.984 133.699 243.852 133.699 Z" fill="#BFA394"/><path d=" M 108.195 175.859 C 104.418 175.859 100.66 174.32 97.9414 171.289 C 92.8594 165.629 93.3281 156.922 98.9883 151.84 C 123.18 130.129 154.52 118.313 189.629 117.68 C 215.824 117.207 235.082 123.125 235.891 123.375 C 243.148 125.645 247.195 133.371 244.926 140.629 C 242.66 147.879 234.957 151.922 227.707 149.676 C 227.547 149.625 211.188 144.691 189.246 145.238 C 160.824 145.934 136.648 155.051 117.391 172.336 C 114.758 174.699 111.473 175.859 108.195 175.859 Z" fill="#D6BCAB"/><path d=" M 259.168 52.2383 C 277.457 86.8516 306.285 108.676 328.77 121.383 L 342.754 101.594 C 322.945 90.7031 296.473 71.5 280.379 41.0313 C 277.891 36.3242 272.719 33.957 267.742 34.8125 C 266.523 35.0195 265.32 35.4219 264.168 36.0313 C 258.313 39.125 256.074 46.3789 259.168 52.2383 Z" fill="#2081F6"/><path d=" M 373.656 127.832 C 373.656 127.832 372.77 149.211 364.691 167.027 C 355.82 186.574 335.555 211.828 289.316 221.16 C 288.52 221.316 287.715 221.395 286.926 221.395 C 281.078 221.395 275.883 217.105 275.055 210.992 C 274.211 204.715 278.598 198.867 284.801 197.598 C 312.703 191.918 331.836 179.082 341.719 159.457 C 341.629 159.508 341.531 159.555 341.441 159.605 C 338.98 160.953 336.414 162.262 333.734 163.512 C 317.309 171.141 300.086 175.008 282.484 175.008 C 281.137 175.008 279.777 174.977 278.422 174.938 C 257.297 174.223 236.098 167.953 215.34 156.289 C 212.289 154.566 211.297 150.629 213.125 147.637 L 218.688 138.523 L 240.594 102.645 C 242.316 99.8203 245.949 98.8477 248.863 100.422 C 269.414 111.535 288.254 112.844 306.285 104.469 C 312.277 101.684 317.289 98.2383 321.098 95.168 C 326.473 90.8438 334.137 90.8672 339.582 95.1055 L 368.008 117.262 C 371.461 119.969 373.359 123.836 373.656 127.832 Z" fill="#38AAFF"/><path d=" M 341.441 159.605 C 338.98 160.953 336.414 162.262 333.734 163.512 C 317.309 171.141 300.082 175.008 282.484 175.008 C 281.137 175.008 279.777 174.977 278.418 174.938 C 257.297 174.219 236.098 167.949 215.34 156.289 C 212.289 154.566 211.293 150.629 213.125 147.637 L 218.684 138.52 C 238.715 150.941 284.953 171.09 345.75 143.473 C 345.754 143.473 346.234 151.316 341.441 159.605 Z" fill="#2081F6"/><path d=" M 272.434 224.223 L 259.051 224.223 C 255.723 224.223 252.699 222.273 251.332 219.234 L 246.984 209.598 C 244.457 203.992 248.555 197.645 254.703 197.645 L 272.434 197.645 C 279.77 197.645 285.723 203.594 285.723 210.934 C 285.723 218.273 279.77 224.223 272.434 224.223 Z" fill="#FECAA8"/><path d=" M 256.121 34.957 L 255.164 21.6133 C 254.926 18.2891 256.656 15.1367 259.586 13.5547 L 268.887 8.52734 C 274.297 5.60547 280.922 9.23828 281.363 15.375 L 282.633 33.0547 C 283.156 40.375 277.648 46.7344 270.328 47.2617 C 263.008 47.7891 256.648 42.2773 256.121 34.957 Z" fill="#FFB38C"/><path d=" M 378.863 84.6641 C 378.863 92.3125 375.977 99.2813 371.223 104.547 C 365.793 110.57 357.926 114.348 349.176 114.348 C 332.781 114.348 319.492 101.063 319.492 84.6641 C 319.492 75.8047 323.371 67.8633 329.512 62.4297 C 334.75 57.7852 341.637 54.9805 349.176 54.9805 C 365.574 54.9805 378.863 68.2656 378.863 84.6641 Z" fill="#FECAA8"/><path d=" M 378.863 84.6641 C 378.863 92.3125 375.977 99.2813 371.223 104.547 C 367.906 103.453 364.855 101.613 362.277 99.1133 L 338.883 76.4063 C 334.75 72.3906 331.578 67.6367 329.512 62.4297 C 334.75 57.7852 341.637 54.9805 349.176 54.9805 C 365.574 54.9805 378.863 68.2656 378.863 84.6641 Z" fill="#FFB38C"/><path d=" M 347.109 67.9336 L 370.504 90.6367 C 375.109 95.1094 382.469 95 386.941 90.3906 L 395.023 82.0664 C 401.578 75.3125 401.418 64.5234 394.664 57.9688 L 354.762 19.2422 L 346.512 27.7422 C 335.578 39.0078 335.844 57.0039 347.109 67.9336 Z" fill="#FFDF49"/><path d=" M 231.234 371.934 C 275.234 371.934 316.664 369.121 347.887 364.008 C 395.844 356.16 401.992 345.832 401.992 337.711 C 401.992 329.59 395.844 319.266 347.887 311.414 C 316.664 306.305 275.234 303.488 231.234 303.488 C 187.234 303.488 145.809 306.301 114.586 311.414 C 66.6289 319.266 60.4805 329.59 60.4805 337.711 C 60.4805 345.832 66.6289 356.16 114.586 364.008 C 145.809 369.121 187.234 371.934 231.234 371.934 Z M 123.012 325.285 C 152.684 320.902 191.117 318.488 231.234 318.488 C 271.355 318.488 309.789 320.902 339.461 325.285 C 371.535 330.02 382.414 335.355 385.836 337.711 C 382.414 340.066 371.535 345.402 339.461 350.141 C 309.789 354.523 271.355 356.934 231.234 356.934 C 191.117 356.934 152.684 354.523 123.012 350.141 C 90.9375 345.402 80.0586 340.066 76.6367 337.711 C 80.0586 335.355 90.9375 330.02 123.012 325.285 Z"/><path d=" M 462.469 337.711 C 462.469 319.348 438.477 304.41 391.152 293.313 C 348.348 283.277 291.559 277.75 231.234 277.75 C 166.395 277.75 104.488 284.328 61.3867 295.797 C 57.3828 296.863 55.0039 300.973 56.0703 304.977 C 57.1328 308.98 61.25 311.359 65.2461 310.293 C 107.141 299.145 167.645 292.75 231.234 292.75 C 290.438 292.75 346.016 298.137 387.727 307.918 C 434.887 318.977 447.469 331.848 447.469 337.711 C 447.469 343.574 434.887 356.449 387.727 367.508 C 346.016 377.289 290.438 382.676 231.234 382.676 C 172.035 382.676 116.457 377.289 74.7422 367.508 C 27.5859 356.449 15 343.574 15 337.711 C 15 332.98 22.0547 326.82 33.8633 321.23 C 37.6094 319.461 39.207 314.988 37.4375 311.246 C 35.6641 307.5 31.1914 305.902 27.4492 307.672 C 9.23438 316.289 -5.68434e-14 326.398 -5.68434e-14 337.711 C -5.68434e-14 342.707 1.79297 347.449 5.33203 351.93 C 1.79297 356.418 -5.68434e-14 361.184 -5.68434e-14 366.148 C -5.68434e-14 375.973 6.94922 384.891 20.6523 392.68 L 20.6523 471.961 C 20.6523 481.418 28.3477 489.113 37.8047 489.113 C 47.2656 489.113 54.9609 481.418 54.9609 471.961 L 54.9609 406.281 C 94.4336 417.762 151.434 424.844 213.891 425.953 L 213.891 494.848 C 213.891 504.305 221.59 512 231.047 512 L 231.422 512 C 240.883 512 248.578 504.305 248.578 494.848 L 248.578 425.949 C 269.918 425.566 290.824 424.488 310.805 422.723 C 314.934 422.359 317.98 418.719 317.617 414.594 C 317.254 410.465 313.598 407.43 309.484 407.781 C 289.938 409.508 269.477 410.566 248.578 410.945 L 248.578 397.52 C 302.379 396.563 352.477 391.176 391.152 382.109 C 396.957 380.746 402.406 379.328 407.508 377.852 L 407.508 390.613 C 390.191 395.969 368.125 400.578 343.301 403.992 C 339.195 404.559 336.328 408.344 336.895 412.445 C 337.41 416.203 340.625 418.926 344.313 418.926 C 344.656 418.926 345 418.902 345.348 418.852 C 369.273 415.559 390.121 411.336 407.508 406.273 L 407.508 471.961 C 407.508 481.422 415.203 489.117 424.664 489.117 C 434.121 489.117 441.816 481.422 441.816 471.961 L 441.816 392.68 C 455.523 384.887 462.469 375.973 462.469 366.148 C 462.469 361.184 460.676 356.418 457.137 351.93 C 460.68 347.449 462.469 342.707 462.469 337.711 Z M 15 366.152 C 15 364.68 15.6953 363.191 16.6602 361.824 C 17.9219 362.648 19.25 363.457 20.6523 364.258 L 20.6523 374.637 C 16.9961 371.605 15 368.68 15 366.152 Z M 37.8086 474.117 C 36.6211 474.117 35.6523 473.148 35.6523 471.961 L 35.6523 371.332 C 37.0547 371.887 38.4805 372.438 39.9648 372.98 L 39.9648 471.961 C 39.9609 473.148 38.9961 474.117 37.8086 474.117 Z M 54.9609 390.625 L 54.9609 377.852 C 60.0664 379.328 65.5156 380.75 71.3203 382.109 C 109.992 391.18 160.09 396.566 213.891 397.52 L 213.891 410.953 C 150.5 409.809 93.1445 402.473 54.9609 390.625 Z M 233.578 494.848 C 233.578 496.035 232.609 497.004 231.422 497.004 L 231.047 497.004 C 229.859 497.004 228.895 496.035 228.895 494.848 L 228.895 397.668 C 230.453 397.672 232.016 397.672 233.578 397.668 Z M 424.664 474.117 C 423.477 474.117 422.508 473.148 422.508 471.961 L 422.508 372.98 C 423.988 372.438 425.418 371.887 426.82 371.332 L 426.82 471.961 C 426.82 473.148 425.852 474.117 424.664 474.117 Z M 441.82 374.637 L 441.82 364.258 C 443.223 363.457 444.547 362.648 445.809 361.824 C 446.77 363.184 447.473 364.676 447.473 366.148 C 447.469 368.68 445.477 371.605 441.82 374.637 Z"/><path d=" M 131.574 434.477 C 127.48 433.871 123.668 436.707 123.066 440.809 L 121.461 451.703 C 120.859 455.801 123.691 459.609 127.789 460.215 C 128.16 460.27 128.527 460.297 128.891 460.297 C 132.551 460.297 135.754 457.613 136.301 453.887 L 137.906 442.988 C 138.508 438.891 135.672 435.082 131.574 434.477 Z"/><path d=" M 164.215 438.25 C 162.691 434.398 158.328 432.516 154.48 434.043 C 150.629 435.57 148.746 439.93 150.273 443.777 L 154.332 454.016 C 155.5 456.961 158.32 458.754 161.309 458.754 C 162.227 458.754 163.16 458.582 164.07 458.223 C 167.922 456.699 169.805 452.34 168.277 448.488 Z"/><path d=" M 109.77 427.465 C 106.523 424.895 101.809 425.441 99.2344 428.691 L 92.3984 437.324 C 89.8281 440.57 90.375 445.289 93.6211 447.859 C 95 448.949 96.6445 449.48 98.2734 449.48 C 100.484 449.48 102.676 448.504 104.156 446.637 L 110.996 438 C 113.566 434.754 113.02 430.035 109.77 427.465 Z"/><path d=" M 329.363 440.805 C 328.758 436.707 324.953 433.867 320.852 434.477 C 316.754 435.082 313.918 438.891 314.523 442.988 L 316.129 453.887 C 316.676 457.613 319.879 460.297 323.539 460.297 C 323.898 460.297 324.27 460.27 324.641 460.215 C 328.738 459.609 331.57 455.801 330.969 451.703 Z"/><path d=" M 297.949 434.043 C 294.098 432.516 289.738 434.398 288.215 438.25 L 284.152 448.488 C 282.625 452.34 284.508 456.699 288.359 458.223 C 289.266 458.582 290.203 458.754 291.125 458.754 C 294.105 458.754 296.93 456.961 298.098 454.016 L 302.156 443.777 C 303.684 439.93 301.801 435.57 297.949 434.043 Z"/><path d=" M 353.195 428.691 C 350.625 425.441 345.91 424.895 342.66 427.465 C 339.41 430.035 338.863 434.75 341.434 438 L 348.27 446.637 C 349.75 448.504 351.941 449.48 354.156 449.48 C 355.785 449.48 357.426 448.949 358.805 447.859 C 362.055 445.289 362.602 440.574 360.031 437.324 Z"/><path d=" M 66.8594 205.648 L 111.469 205.648 C 120.172 205.648 127.25 198.57 127.25 189.867 L 127.25 175.059 C 127.25 174.676 127.215 174.305 127.16 173.941 C 138.887 164.688 152.43 158.434 167.633 155.23 L 167.633 224.223 C 167.633 228.367 170.992 231.723 175.133 231.723 C 179.277 231.723 182.633 228.367 182.633 224.223 L 182.633 153.102 C 184.871 152.926 187.133 152.789 189.434 152.734 C 194.547 152.605 199.734 152.797 204.926 153.273 C 204.992 153.641 205.059 154.004 205.152 154.367 C 206.098 157.992 208.41 160.992 211.668 162.824 C 228.168 172.098 245.117 178.168 262.047 180.867 C 262.445 180.93 262.844 180.961 263.234 180.961 C 266.855 180.961 270.047 178.332 270.633 174.641 C 271.285 170.551 268.496 166.703 264.406 166.055 C 249.641 163.699 234.781 158.441 220.215 150.414 L 246.367 107.59 C 268.465 119.215 289.68 120.453 309.445 111.266 C 312.633 109.785 315.758 108.043 318.797 106.074 C 325.539 115.609 336.637 121.852 349.176 121.852 C 352.805 121.852 356.348 121.316 359.715 120.316 L 363.395 123.184 C 364.93 124.379 365.895 126.074 366.141 127.988 C 365.965 130.828 364.828 145.848 359.621 159.664 C 359.164 159.578 358.688 159.527 358.203 159.527 C 354.063 159.527 350.703 162.883 350.703 167.027 L 350.703 176.457 C 340.746 190.668 323.371 205.344 293.137 212.625 C 293.18 212.066 293.223 211.504 293.223 210.934 C 293.223 208.383 292.738 205.949 291.895 203.691 C 319.141 196.973 338.141 183.246 348.418 162.824 C 348.621 162.418 348.777 162 348.902 161.578 C 353.645 152.309 353.301 143.984 353.238 143.012 C 352.984 138.879 349.406 135.691 345.293 135.949 C 341.156 136.203 338.008 139.723 338.262 143.859 C 338.266 143.914 338.418 148.672 335.879 154.059 C 334.105 154.988 332.332 155.887 330.57 156.707 C 319.52 161.844 307.977 165.184 296.262 166.641 C 292.148 167.152 289.23 170.898 289.742 175.008 C 290.254 179.117 293.992 182.039 298.109 181.527 C 303.613 180.844 309.078 179.793 314.48 178.387 C 306.012 183.777 295.602 187.742 283.305 190.25 C 282.008 190.512 280.754 190.914 279.547 191.426 C 277.324 190.613 274.934 190.145 272.43 190.145 L 254.703 190.145 C 249.258 190.145 244.242 192.875 241.289 197.449 C 238.336 202.023 237.906 207.719 240.145 212.68 L 244.492 222.32 C 247.07 228.031 252.785 231.723 259.051 231.723 L 272.43 231.723 C 276.453 231.723 280.199 230.555 283.383 228.57 C 284.551 228.785 285.734 228.898 286.93 228.898 C 288.219 228.898 289.52 228.766 290.801 228.508 C 318.598 222.895 337.648 211.785 350.703 199.371 L 350.703 241.895 C 350.703 246.039 354.059 249.395 358.203 249.395 C 362.344 249.395 365.703 246.039 365.703 241.895 L 365.703 180.973 C 368.016 177.258 369.938 173.605 371.516 170.121 C 380.102 151.191 381.113 129.07 381.148 128.137 C 381.164 127.848 381.16 127.559 381.137 127.27 C 380.711 121.566 378.09 116.25 373.887 112.434 C 377.461 109.258 380.438 105.387 382.594 100.98 C 386.176 100.219 389.582 98.4336 392.32 95.6133 L 400.402 87.2891 C 404.965 82.5859 407.426 76.3867 407.332 69.832 C 407.234 63.2734 404.586 57.1484 399.883 52.5859 L 359.98 13.8594 C 357.008 10.9727 352.262 11.0469 349.379 14.0156 L 341.129 22.5156 C 334.445 29.4023 330.844 38.4766 330.984 48.0703 C 331.008 49.4219 331.109 50.7539 331.273 52.0742 C 323.289 56.4805 317.23 63.6875 314.18 72.1484 C 303.848 62.7031 295.387 52.2695 288.934 41.0078 C 289.887 38.3633 290.324 35.4922 290.109 32.5156 L 288.84 14.8359 C 288.449 9.40234 285.367 4.59766 280.594 1.97656 C 275.82 -0.640625 270.113 -0.660156 265.324 1.92969 L 256.02 6.95313 C 250.508 9.93359 247.234 15.8945 247.684 22.1484 L 248.641 35.4922 C 248.832 38.1719 249.531 40.6914 250.629 42.9766 C 249.793 47.3164 250.441 51.7734 252.535 55.7383 C 261.535 72.7734 273.715 88.2539 288.816 101.902 C 277.336 103.461 265.316 100.789 252.43 93.8203 C 251.16 93.1328 249.824 92.6758 248.477 92.418 L 210.227 47.0469 C 204.914 40.7422 196.34 38.0703 188.387 40.2266 L 116.262 59.8164 C 110.777 61.3047 106.203 64.8398 103.379 69.7695 C 102.32 71.6133 101.559 73.5703 101.094 75.5859 C 88.6719 77.8555 77.1367 83.3477 67.5039 91.6445 C 62.1953 96.2148 60.3398 103.41 62.7773 109.977 C 65.2148 116.547 71.3164 120.789 78.3203 120.789 L 122.938 120.789 C 131.637 120.789 138.719 113.711 138.719 105.008 L 138.719 97.8047 L 186.445 84.8438 L 208.379 110.855 C 202.633 110.348 196.293 110.055 189.492 110.176 C 152.559 110.848 119.531 123.324 93.9805 146.258 C 89.6055 150.188 87.2422 155.535 86.957 160.988 C 75.5508 163.527 64.9648 168.813 56.0391 176.5 C 50.7305 181.074 48.875 188.27 51.3125 194.836 C 53.75 201.406 59.8516 205.648 66.8594 205.648 Z M 259.051 216.723 C 258.672 216.723 258.324 216.5 258.168 216.152 L 253.82 206.512 C 253.766 206.395 253.602 206.031 253.891 205.59 C 254.176 205.145 254.574 205.145 254.703 205.145 L 272.43 205.145 C 275.625 205.145 278.219 207.742 278.219 210.934 C 278.219 214.125 275.625 216.723 272.43 216.723 Z M 351.891 32.9648 L 354.918 29.8477 L 389.438 63.3516 C 391.266 65.1289 392.297 67.5078 392.336 70.0547 C 392.371 72.6055 391.414 75.0156 389.641 76.8438 L 381.559 85.168 C 379.977 86.8008 377.359 86.8398 375.727 85.2578 L 352.332 62.5508 C 348.32 58.6602 346.066 53.4375 345.984 47.8516 C 345.902 42.2617 348 36.9766 351.891 32.9648 Z M 336.406 66.543 C 337.934 68.9844 339.766 71.2578 341.887 73.3164 L 365.281 96.0234 C 365.883 96.6055 366.52 97.125 367.176 97.6133 C 363.074 103.297 356.418 106.852 349.176 106.852 C 336.941 106.852 326.988 96.8984 326.988 84.6641 C 326.988 77.3828 330.625 70.6406 336.406 66.543 Z M 263.148 20.1523 L 272.453 15.1289 C 272.523 15.0898 272.688 15.0039 272.91 15.0039 C 273.047 15.0039 273.207 15.0352 273.383 15.1328 C 273.844 15.3867 273.871 15.7813 273.883 15.9141 L 275.152 33.5938 C 275.383 36.7773 272.977 39.5547 269.793 39.7813 C 268.254 39.8867 266.758 39.3945 265.59 38.3828 C 264.418 37.3711 263.715 35.9648 263.605 34.4219 L 262.645 21.0781 C 262.617 20.6953 262.816 20.3359 263.148 20.1523 Z M 269.199 54.7891 C 269.254 54.7891 269.309 54.7969 269.359 54.7969 C 269.859 54.7969 270.359 54.7773 270.863 54.7422 C 273.582 54.5469 276.133 53.8203 278.441 52.6953 C 287.094 66.5859 298.5 79.2266 312.43 90.3789 C 312.516 90.9492 312.617 91.5156 312.73 92.0781 C 310.379 93.7305 307.965 95.1992 305.512 96.4805 C 290.535 84.2422 278.355 70.25 269.199 54.7891 Z M 122.938 105.793 L 78.3242 105.793 C 78.0508 105.793 77.2227 105.793 76.8398 104.762 C 76.457 103.73 77.0859 103.191 77.293 103.016 C 84.7266 96.6133 93.5898 92.3242 103.141 90.4648 C 105.004 93.918 107.773 96.8086 111.266 98.8047 C 115.094 101 119.41 101.914 123.719 101.523 L 123.719 105.012 C 123.719 105.441 123.367 105.793 122.938 105.793 Z M 187.129 69.1133 L 123.48 86.3984 C 121.867 86.8398 120.172 86.625 118.719 85.7891 C 117.266 84.957 116.223 83.6055 115.785 81.9922 C 115.344 80.375 115.563 78.6836 116.395 77.2305 C 117.227 75.7773 118.574 74.7344 120.191 74.293 L 192.32 54.707 C 194.66 54.0703 197.191 54.8594 198.758 56.7188 L 234.191 98.7461 L 227.301 110.031 L 194.832 71.5195 C 192.949 69.2891 189.945 68.3516 187.129 69.1133 Z M 104 157.422 C 126.828 136.93 156.484 125.781 189.762 125.176 C 200.223 124.988 209.508 125.855 216.949 126.98 L 209.801 138.688 C 202.867 137.891 195.906 137.57 189.063 137.738 C 186.887 137.793 184.738 137.906 182.609 138.051 C 182.367 134.129 179.117 131.023 175.137 131.023 C 170.992 131.023 167.637 134.379 167.637 138.523 L 167.637 139.914 C 146.473 143.797 127.949 152.781 112.379 166.754 C 111.227 167.789 109.742 168.359 108.191 168.359 C 106.387 168.359 104.727 167.621 103.523 166.281 C 101.211 163.707 101.426 159.73 104 157.422 Z M 65.8281 187.871 C 73.2266 181.5 82.0664 177.215 91.582 175.34 C 91.8398 175.664 92.082 175.992 92.3594 176.301 C 96.3906 180.789 102.16 183.363 108.188 183.363 L 108.195 183.363 C 109.566 183.363 110.922 183.223 112.254 182.965 L 112.254 189.867 C 112.254 190.301 111.902 190.652 111.473 190.652 L 66.8594 190.652 C 66.5859 190.652 65.7578 190.652 65.375 189.621 C 64.9922 188.586 65.6211 188.047 65.8281 187.871 Z"/><path d=" M 192.41 181.375 L 192.41 198.148 C 192.41 202.293 195.77 205.648 199.91 205.648 C 204.055 205.648 207.41 202.293 207.41 198.148 L 207.41 181.375 C 207.41 177.23 204.055 173.875 199.91 173.875 C 195.77 173.875 192.41 177.23 192.41 181.375 Z"/><path d=" M 371.363 195.453 L 371.363 213.473 C 371.363 217.613 374.719 220.973 378.863 220.973 C 383.008 220.973 386.363 217.613 386.363 213.473 L 386.363 195.453 C 386.363 191.309 383.008 187.953 378.863 187.953 C 374.719 187.953 371.363 191.309 371.363 195.453 Z"/><path d=" M 81.2539 221.395 L 81.2539 233.039 C 81.2539 237.184 84.6133 240.539 88.7539 240.539 C 92.8984 240.539 96.2539 237.184 96.2539 233.039 L 96.2539 221.395 C 96.2539 217.254 92.8984 213.895 88.7539 213.895 C 84.6133 213.895 81.2539 217.254 81.2539 221.395 Z"/><path d=" M 102.621 221.395 L 102.621 251.922 C 102.621 256.066 105.977 259.422 110.121 259.422 C 114.262 259.422 117.621 256.066 117.621 251.922 L 117.621 221.395 C 117.621 217.254 114.262 213.895 110.121 213.895 C 105.977 213.895 102.621 217.254 102.621 221.395 Z"/></svg>