<svg version="1.1" width="128" height="128" viewBox="-0.9 -0.9 1.8 1.8" xmlns="http://www.w3.org/2000/svg" xmlns:xlink="http://www.w3.org/1999/xlink" overflow="hidden"><g stroke-width="0.1" stroke-linejoin="round" opacity="1"><path d=" M -0.547073 0.0674305 L 0.547073 0.0674305 L 0.464277 0.654089 L -0.464277 0.654089 Z" stroke="#000000" fill="#000000"/><path d=" M -0.475865 -0.670414 L 0.475865 -0.670414 L 0.547073 0.0674305 L -0.547073 0.0674305 Z" stroke="#000000" fill="#000000"/></g><g stroke-width="0" stroke-linejoin="round" stroke-opacity="0.5" opacity="1"><path d=" M -0.568747 0.0794182 L -0.427406 0.0794182 L -0.418628 0.166499 L -0.556457 0.166499 Z" stroke="#000000" fill="#404040"/><path d=" M -0.402773 0.0794182 L -0.261432 0.0794182 L -0.256165 0.166499 L -0.393995 0.166499 Z" stroke="#000000" fill="#EE0000"/><path d=" M -0.236799 0.0794182 L -0.0954582 0.0794182 L -0.0937025 0.166499 L -0.231532 0.166499 Z" stroke="#000000" fill="#00D800"/><path d=" M -0.0708255 0.0794182 L 0.0705157 0.0794182 L 0.06876 0.166499 L -0.0690698 0.166499 Z" stroke="#000000" fill="#EE0000"/><path d=" M 0.0951484 0.0794182 L 0.23649 0.0794182 L 0.231223 0.166499 L 0.0933927 0.166499 Z" stroke="#000000" fill="#EE0000"/><path d=" M 0.261122 0.0794182 L 0.402463 0.0794182 L 0.393685 0.166499 L 0.255855 0.166499 Z" stroke="#000000" fill="#EE0000"/><path d=" M 0.427096 0.0794182 L 0.568437 0.0794182 L 0.556148 0.166499 L 0.418318 0.166499 Z" stroke="#000000" fill="#404040"/><path d=" M -0.554636 0.181493 L -0.416806 0.181493 L -0.408453 0.264352 L -0.542942 0.264352 Z" stroke="#000000" fill="#404040"/><path d=" M -0.392778 0.181493 L -0.254948 0.181493 L -0.249937 0.264352 L -0.384425 0.264352 Z" stroke="#000000" fill="#404040"/><path d=" M -0.23092 0.181493 L -0.0930904 0.181493 L -0.0914198 0.264352 L -0.225909 0.264352 Z" stroke="#000000" fill="#404040"/><path d=" M -0.0690623 0.181493 L 0.0687675 0.181493 L 0.0670969 0.264352 L -0.0673917 0.264352 Z" stroke="#000000" fill="#404040"/><path d=" M 0.0927956 0.181493 L 0.230625 0.181493 L 0.225614 0.264352 L 0.091125 0.264352 Z" stroke="#000000" fill="#404040"/><path d=" M 0.254653 0.181493 L 0.392483 0.181493 L 0.38413 0.264352 L 0.249642 0.264352 Z" stroke="#000000" fill="#404040"/><path d=" M 0.416511 0.181493 L 0.554341 0.181493 L 0.542647 0.264352 L 0.408159 0.264352 Z" stroke="#000000" fill="#404040"/><path d=" M -0.541208 0.278628 L -0.406719 0.278628 L -0.398762 0.357565 L -0.530068 0.357565 Z" stroke="#000000" fill="#404040"/><path d=" M -0.383267 0.278628 L -0.248778 0.278628 L -0.244004 0.357565 L -0.375309 0.357565 Z" stroke="#000000" fill="#404040"/><path d=" M -0.225326 0.278628 L -0.0908372 0.278628 L -0.0892457 0.357565 L -0.220551 0.357565 Z" stroke="#000000" fill="#404040"/><path d=" M -0.0673848 0.278628 L 0.0671039 0.278628 L 0.0655124 0.357565 L -0.0657933 0.357565 Z" stroke="#000000" fill="#404040"/><path d=" M 0.0905563 0.278628 L 0.225045 0.278628 L 0.220271 0.357565 L 0.0889649 0.357565 Z" stroke="#000000" fill="#404040"/><path d=" M 0.248497 0.278628 L 0.382986 0.278628 L 0.375029 0.357565 L 0.243723 0.357565 Z" stroke="#000000" fill="#404040"/><path d=" M 0.406439 0.278628 L 0.540927 0.278628 L 0.529787 0.357565 L 0.398481 0.357565 Z" stroke="#000000" fill="#404040"/><path d=" M -0.528415 0.371172 L -0.397109 0.371172 L -0.38952 0.446459 L -0.51779 0.446459 Z" stroke="#000000" fill="#404040"/><path d=" M -0.374206 0.371172 L -0.2429 0.371172 L -0.238346 0.446459 L -0.366616 0.446459 Z" stroke="#000000" fill="#404040"/><path d=" M -0.219996 0.371172 L -0.0886905 0.371172 L -0.0871726 0.446459 L -0.215442 0.446459 Z" stroke="#000000" fill="#404040"/><path d=" M -0.0657868 0.371172 L 0.0655189 0.371172 L 0.064001 0.446459 L -0.0642689 0.446459 Z" stroke="#000000" fill="#404040"/><path d=" M 0.0884226 0.371172 L 0.219728 0.371172 L 0.215175 0.446459 L 0.0869047 0.446459 Z" stroke="#000000" fill="#404040"/><path d=" M 0.242632 0.371172 L 0.373938 0.371172 L 0.366348 0.446459 L 0.238078 0.446459 Z" stroke="#000000" fill="#404040"/><path d=" M 0.396841 0.371172 L 0.528147 0.371172 L 0.517522 0.446459 L 0.389252 0.446459 Z" stroke="#000000" fill="#404040"/><path d=" M -0.516213 0.459445 L -0.387943 0.459445 L -0.380696 0.531329 L -0.506068 0.531329 Z" stroke="#000000" fill="#404040"/><path d=" M -0.365563 0.459445 L -0.237293 0.459445 L -0.232945 0.531329 L -0.358316 0.531329 Z" stroke="#000000" fill="#404040"/><path d=" M -0.214913 0.459445 L -0.0866429 0.459445 L -0.0851936 0.531329 L -0.210565 0.531329 Z" stroke="#000000" fill="#404040"/><path d=" M -0.0642628 0.459445 L 0.0640071 0.459445 L 0.0625578 0.531329 L -0.0628135 0.531329 Z" stroke="#000000" fill="#404040"/><path d=" M 0.0863872 0.459445 L 0.214657 0.459445 L 0.210309 0.531329 L 0.0849379 0.531329 Z" stroke="#000000" fill="#404040"/><path d=" M 0.237037 0.459445 L 0.365307 0.459445 L 0.358061 0.531329 L 0.232689 0.531329 Z" stroke="#000000" fill="#404040"/><path d=" M 0.387687 0.459445 L 0.515957 0.459445 L 0.505812 0.531329 L 0.380441 0.531329 Z" stroke="#000000" fill="#404040"/><path d=" M -0.504561 0.543734 L -0.37919 0.543734 L -0.372264 0.612441 L -0.494865 0.612441 Z" stroke="#000000" fill="#404040"/><path d=" M -0.35731 0.543734 L -0.231939 0.543734 L -0.227783 0.612441 L -0.350384 0.612441 Z" stroke="#000000" fill="#404040"/><path d=" M -0.210059 0.543734 L -0.0846878 0.543734 L -0.0833025 0.612441 L -0.205903 0.612441 Z" stroke="#000000" fill="#404040"/><path d=" M -0.0628079 0.543734 L 0.0625634 0.543734 L 0.0611782 0.612441 L -0.0614226 0.612441 Z" stroke="#000000" fill="#404040"/><path d=" M 0.0844433 0.543734 L 0.209815 0.543734 L 0.205659 0.612441 L 0.0830581 0.612441 Z" stroke="#000000" fill="#404040"/><path d=" M 0.231694 0.543734 L 0.357066 0.543734 L 0.35014 0.612441 L 0.227539 0.612441 Z" stroke="#000000" fill="#404040"/><path d=" M 0.378946 0.543734 L 0.504317 0.543734 L 0.49462 0.612441 L 0.372019 0.612441 Z" stroke="#000000" fill="#404040"/><path d=" M -0.493424 0.624303 L -0.370824 0.624303 L -0.364197 0.690039 L -0.484147 0.690039 Z" stroke="#000000" fill="#404040"/><path d=" M -0.349422 0.624303 L -0.226821 0.624303 L -0.222845 0.690039 L -0.342795 0.690039 Z" stroke="#000000" fill="#404040"/><path d=" M -0.20542 0.624303 L -0.0828189 0.624303 L -0.0814935 0.690039 L -0.201444 0.690039 Z" stroke="#000000" fill="#404040"/><path d=" M -0.0614173 0.624303 L 0.0611835 0.624303 L 0.0598581 0.690039 L -0.060092 0.690039 Z" stroke="#000000" fill="#404040"/><path d=" M 0.082585 0.624303 L 0.205186 0.624303 L 0.20121 0.690039 L 0.0812597 0.690039 Z" stroke="#000000" fill="#404040"/><path d=" M 0.226587 0.624303 L 0.349188 0.624303 L 0.342561 0.690039 L 0.222611 0.690039 Z" stroke="#000000" fill="#404040"/><path d=" M 0.37059 0.624303 L 0.49319 0.624303 L 0.483913 0.690039 L 0.363963 0.690039 Z" stroke="#000000" fill="#404040"/><path d=" M -0.495906 -0.705753 L -0.372962 -0.705753 L -0.378785 -0.621274 L -0.504058 -0.621274 Z" stroke="#000000" fill="#404040"/><path d=" M -0.35106 -0.705753 L -0.228116 -0.705753 L -0.23161 -0.621274 L -0.356884 -0.621274 Z" stroke="#000000" fill="#00D800"/><path d=" M -0.206215 -0.705753 L -0.0832707 -0.705753 L -0.0844354 -0.621274 L -0.209709 -0.621274 Z" stroke="#000000" fill="#EE0000"/><path d=" M -0.0613692 -0.705753 L 0.0615747 -0.705753 L 0.0627394 -0.621274 L -0.0625339 -0.621274 Z" stroke="#000000" fill="#00D800"/><path d=" M 0.0834763 -0.705753 L 0.20642 -0.705753 L 0.209914 -0.621274 L 0.084641 -0.621274 Z" stroke="#000000" fill="#00D800"/><path d=" M 0.228322 -0.705753 L 0.351266 -0.705753 L 0.357089 -0.621274 L 0.231816 -0.621274 Z" stroke="#000000" fill="#00D800"/><path d=" M 0.373167 -0.705753 L 0.496111 -0.705753 L 0.504264 -0.621274 L 0.378991 -0.621274 Z" stroke="#000000" fill="#404040"/><path d=" M -0.505312 -0.606078 L -0.380038 -0.606078 L -0.386087 -0.518336 L -0.513779 -0.518336 Z" stroke="#000000" fill="#404040"/><path d=" M -0.357718 -0.606078 L -0.232444 -0.606078 L -0.236073 -0.518336 L -0.363766 -0.518336 Z" stroke="#000000" fill="#404040"/><path d=" M -0.210124 -0.606078 L -0.0848505 -0.606078 L -0.0860602 -0.518336 L -0.213753 -0.518336 Z" stroke="#000000" fill="#404040"/><path d=" M -0.0625299 -0.606078 L 0.0627434 -0.606078 L 0.0639531 -0.518336 L -0.0637396 -0.518336 Z" stroke="#000000" fill="#404040"/><path d=" M 0.0850639 -0.606078 L 0.210337 -0.606078 L 0.213966 -0.518336 L 0.0862736 -0.518336 Z" stroke="#000000" fill="#404040"/><path d=" M 0.232658 -0.606078 L 0.357931 -0.606078 L 0.36398 -0.518336 L 0.236287 -0.518336 Z" stroke="#000000" fill="#404040"/><path d=" M 0.380252 -0.606078 L 0.505525 -0.606078 L 0.513993 -0.518336 L 0.3863 -0.518336 Z" stroke="#000000" fill="#404040"/><path d=" M -0.515081 -0.502547 L -0.387389 -0.502547 L -0.393675 -0.41135 L -0.523883 -0.41135 Z" stroke="#000000" fill="#404040"/><path d=" M -0.364633 -0.502547 L -0.23694 -0.502547 L -0.240712 -0.41135 L -0.370919 -0.41135 Z" stroke="#000000" fill="#404040"/><path d=" M -0.214184 -0.502547 L -0.0864913 -0.502547 L -0.0877486 -0.41135 L -0.217956 -0.41135 Z" stroke="#000000" fill="#404040"/><path d=" M -0.0637354 -0.502547 L 0.0639573 -0.502547 L 0.0652146 -0.41135 L -0.0649927 -0.41135 Z" stroke="#000000" fill="#404040"/><path d=" M 0.0867132 -0.502547 L 0.214406 -0.502547 L 0.218178 -0.41135 L 0.0879705 -0.41135 Z" stroke="#000000" fill="#404040"/><path d=" M 0.237162 -0.502547 L 0.364855 -0.502547 L 0.371141 -0.41135 L 0.240934 -0.41135 Z" stroke="#000000" fill="#404040"/><path d=" M 0.38761 -0.502547 L 0.515303 -0.502547 L 0.524104 -0.41135 L 0.393897 -0.41135 Z" stroke="#000000" fill="#404040"/><path d=" M -0.525236 -0.394932 L -0.395029 -0.394932 L -0.401568 -0.300071 L -0.534391 -0.300071 Z" stroke="#000000" fill="#404040"/><path d=" M -0.37182 -0.394932 L -0.241613 -0.394932 L -0.245536 -0.300071 L -0.378359 -0.300071 Z" stroke="#000000" fill="#404040"/><path d=" M -0.218404 -0.394932 L -0.0881969 -0.394932 L -0.0895047 -0.300071 L -0.222328 -0.300071 Z" stroke="#000000" fill="#404040"/><path d=" M -0.0649883 -0.394932 L 0.0652191 -0.394932 L 0.0665269 -0.300071 L -0.0662961 -0.300071 Z" stroke="#000000" fill="#404040"/><path d=" M 0.0884277 -0.394932 L 0.218635 -0.394932 L 0.222559 -0.300071 L 0.0897355 -0.300071 Z" stroke="#000000" fill="#404040"/><path d=" M 0.241844 -0.394932 L 0.372051 -0.394932 L 0.37859 -0.300071 L 0.245767 -0.300071 Z" stroke="#000000" fill="#404040"/><path d=" M 0.39526 -0.394932 L 0.525467 -0.394932 L 0.534622 -0.300071 L 0.401799 -0.300071 Z" stroke="#000000" fill="#404040"/><path d=" M -0.5358 -0.282987 L -0.402976 -0.282987 L -0.409784 -0.184236 L -0.54533 -0.184236 Z" stroke="#000000" fill="#404040"/><path d=" M -0.379297 -0.282987 L -0.246474 -0.282987 L -0.250558 -0.184236 L -0.386104 -0.184236 Z" stroke="#000000" fill="#404040"/><path d=" M -0.222794 -0.282987 L -0.089971 -0.282987 L -0.0913325 -0.184236 L -0.226879 -0.184236 Z" stroke="#000000" fill="#404040"/><path d=" M -0.0662914 -0.282987 L 0.0665317 -0.282987 L 0.0678931 -0.184236 L -0.0676529 -0.184236 Z" stroke="#000000" fill="#404040"/><path d=" M 0.0902113 -0.282987 L 0.223034 -0.282987 L 0.227119 -0.184236 L 0.0915728 -0.184236 Z" stroke="#000000" fill="#404040"/><path d=" M 0.246714 -0.282987 L 0.379537 -0.282987 L 0.386344 -0.184236 L 0.250798 -0.184236 Z" stroke="#000000" fill="#404040"/><path d=" M 0.403217 -0.282987 L 0.53604 -0.282987 L 0.54557 -0.184236 L 0.410024 -0.184236 Z" stroke="#000000" fill="#404040"/><path d=" M -0.546797 -0.166444 L -0.411251 -0.166444 L -0.418343 -0.0635595 L -0.556726 -0.0635595 Z" stroke="#000000" fill="#404040"/><path d=" M -0.38708 -0.166444 L -0.251534 -0.166444 L -0.25579 -0.0635595 L -0.394173 -0.0635595 Z" stroke="#000000" fill="#404040"/><path d=" M -0.227364 -0.166444 L -0.0918181 -0.166444 L -0.0932365 -0.0635595 L -0.231619 -0.0635595 Z" stroke="#000000" fill="#404040"/><path d=" M -0.0676479 -0.166444 L 0.0678982 -0.166444 L 0.0693166 -0.0635595 L -0.0690663 -0.0635595 Z" stroke="#000000" fill="#404040"/><path d=" M 0.0920684 -0.166444 L 0.227614 -0.166444 L 0.23187 -0.0635595 L 0.0934868 -0.0635595 Z" stroke="#000000" fill="#404040"/><path d=" M 0.251785 -0.166444 L 0.387331 -0.166444 L 0.394423 -0.0635595 L 0.25604 -0.0635595 Z" stroke="#000000" fill="#404040"/><path d=" M 0.411501 -0.166444 L 0.547047 -0.166444 L 0.556976 -0.0635595 L 0.418593 -0.0635595 Z" stroke="#000000" fill="#404040"/><path d=" M -0.558254 -0.0450152 L -0.419871 -0.0450152 L -0.427267 0.0622684 L -0.568608 0.0622684 Z" stroke="#000000" fill="#404040"/><path d=" M -0.39519 -0.0450152 L -0.256807 -0.0450152 L -0.261244 0.0622684 L -0.402585 0.0622684 Z" stroke="#000000" fill="#0000F2"/><path d=" M -0.232125 -0.0450152 L -0.0937425 -0.0450152 L -0.0952216 0.0622684 L -0.236563 0.0622684 Z" stroke="#000000" fill="#FFFFFF"/><path d=" M -0.069061 -0.0450152 L 0.069322 -0.0450152 L 0.0708011 0.0622684 L -0.0705401 0.0622684 Z" stroke="#000000" fill="#0000F2"/><path d=" M 0.0940035 -0.0450152 L 0.232386 -0.0450152 L 0.236824 0.0622684 L 0.0954826 0.0622684 Z" stroke="#000000" fill="#0000F2"/><path d=" M 0.257068 -0.0450152 L 0.395451 -0.0450152 L 0.402847 0.0622684 L 0.261505 0.0622684 Z" stroke="#000000" fill="#0000F2"/><path d=" M 0.420133 -0.0450152 L 0.558515 -0.0450152 L 0.568869 0.0622684 L 0.427528 0.0622684 Z" stroke="#000000" fill="#404040"/></g></svg>