<svg viewBox="0 0 670.35 697.09" xmlns="http://www.w3.org/2000/svg" xmlns:xlink="http://www.w3.org/1999/xlink" overflow="hidden"><defs></defs><g id="图层_2"><g id="图层_1-2"><path d="M393.29 275.82 424.85 383.27 332.48 446.5 243.84 378.15 281.42 272.65 393.29 275.82Z" fill="#006600"/><path d="M393.29 275.82 281.42 272.65 243.84 378.15 332.48 446.5 424.85 383.27 393.29 275.82Z" stroke="#040000" stroke-width="1.9" stroke-miterlimit="10" fill="none"/><path d="M331.29 449.18C330.486 449.154 329.71 448.878 329.07 448.39L240.41 380C239.111 378.99 238.606 377.26 239.16 375.71L276.75 270.23C277.295 268.677 278.785 267.656 280.43 267.71L392.35 270.87C393.996 270.914 395.423 272.018 395.88 273.6L427.43 381.04C427.904 382.617 427.296 384.32 425.93 385.24L333.54 448.47C332.886 448.943 332.097 449.192 331.29 449.18ZM247.29 375.7 331.57 440.7 419.4 380.58 389.4 278.44 283 275.44Z" stroke="#040000" stroke-width="1.9" stroke-miterlimit="10" fill="#211613"/><path d="M612.48 363 610.36 445.24 584.5 435.89 557.2 343.08 612.48 363Z" stroke="#040000" stroke-width="1.9" stroke-miterlimit="10" fill="#EE0000" fill-rule="evenodd"/><path d="M610.45 449.05 610.25 449.05C609.847 449.042 609.449 448.967 609.07 448.83L583.21 439.48C582.068 439.073 581.19 438.144 580.85 436.98L553.56 344.16C553.143 342.794 553.53 341.309 554.56 340.32 555.61 339.348 557.11 339.037 558.46 339.51L613.74 359.44C615.28 359.989 616.293 361.466 616.25 363.1L614.17 444.16C614.281 444.553 614.331 444.961 614.32 445.37 614.255 447.449 612.53 449.089 610.45 449.05ZM587.59 433 606.7 439.9 608.6 365.66 563 349.2Z" stroke="#040000" stroke-width="1.9" stroke-miterlimit="10" fill="#211613"/><path d="M584.5 435.89 534.69 417.94 507.39 325.09 557.2 343.08 584.5 435.89Z" stroke="#040000" stroke-width="1.9" stroke-miterlimit="10" fill="#EE0000" fill-rule="evenodd"/><path d="M584.39 439.7C583.987 439.683 583.59 439.606 583.21 439.47L533.4 421.47C532.254 421.072 531.376 420.138 531.05 418.97L503.75 326.12C503.337 324.757 503.723 323.277 504.75 322.29 505.8 321.318 507.3 321.007 508.65 321.48L558.46 339.48C559.602 339.889 560.478 340.823 560.81 341.99L587.81 433.74C588.254 434.405 588.482 435.191 588.46 435.99 588.395 438.087 586.647 439.736 584.55 439.68 584.52 439.68 584.45 439.71 584.39 439.7ZM537.78 415 578.78 429.77 554.1 346 513.16 331.2Z" stroke="#040000" stroke-width="1.9" stroke-miterlimit="10" fill="#060001"/><path d="M525.5 235.22 561.2 188.51 614.97 267.52 612.48 363 557.2 343.08 525.5 235.22Z" stroke="#040000" stroke-width="1.9" stroke-miterlimit="10" fill="#EE0000" fill-rule="evenodd"/><path d="M612.37 366.8C611.967 366.792 611.569 366.717 611.19 366.58L555.91 346.65C554.766 346.249 553.889 345.316 553.56 344.15L521.86 236.29C521.516 235.129 521.747 233.874 522.48 232.91L558.17 186.2C559.573 184.536 562.058 184.325 563.722 185.727 563.948 185.918 564.152 186.134 564.33 186.37L618.11 265.37C618.556 266.027 618.786 266.806 618.77 267.6L616.31 361.9C616.424 362.293 616.478 362.701 616.47 363.11 616.49 365.131 614.867 366.786 612.846 366.806 612.72 366.807 612.595 366.802 612.47 366.79ZM560.3 340.15 608.81 357.64 611.14 268.64 561 195 529.7 236Z" stroke="#040000" stroke-width="1.9" stroke-miterlimit="10" fill="#060001"/><path d="M610.4 443.94 612.48 363 662.27 380.99 662.31 463.2 610.4 443.94Z" stroke="#040000" stroke-width="1.9" stroke-miterlimit="10" fill="#EE0000" fill-rule="evenodd"/><path d="M662.4 467 662.2 467C661.785 466.994 661.376 466.912 660.99 466.76L609.08 447.49C607.553 446.935 606.554 445.464 606.6 443.84L608.68 362.91C608.715 361.7 609.334 360.583 610.34 359.91 611.333 359.186 612.627 359.02 613.77 359.47L663.56 377.47C665.072 378.005 666.083 379.436 666.08 381.04L666.08 462.04C666.08 462.63 666.08 462.87 666.08 463.33 665.56 465.101 664.172 466.485 662.4 467ZM614.28 441.3 658.51 457.72 658.51 383.65 616.19 368.35Z" stroke="#040000" stroke-width="1.9" stroke-miterlimit="10" fill="#060001"/><path d="M614.97 267.52 663.38 338.62 662.27 380.99 612.48 363 614.97 267.52Z" stroke="#040000" stroke-width="1.9" stroke-miterlimit="10" fill="#EE0000" fill-rule="evenodd"/><path d="M662.16 384.79C661.756 384.782 661.357 384.705 660.98 384.56L611.19 366.56C609.648 366.007 608.636 364.527 608.68 362.89L611.17 267.41C611.219 265.312 612.96 263.651 615.058 263.7 616.283 263.728 617.42 264.347 618.11 265.36L666.52 336.46C666.966 337.117 667.196 337.896 667.18 338.69L666.11 379.87C666.11 380.66 666.11 380.66 666.11 381.08 666.132 383.096 664.517 384.748 662.501 384.77 662.464 384.771 662.427 384.771 662.39 384.77ZM616.36 360.36 658.61 375.63 659.55 339.75 618.47 279.4Z" stroke="#040000" stroke-width="1.9" stroke-miterlimit="10" fill="#060001"/><path d="M557.2 343.08 507.39 325.09 493.34 277.27 525.5 235.22 557.2 343.08Z" stroke="#040000" stroke-width="1.9" stroke-miterlimit="10" fill="#EE0000" fill-rule="evenodd"/><path d="M557.09 346.88C556.686 346.873 556.287 346.795 555.91 346.65L506.1 328.65C504.958 328.246 504.082 327.315 503.75 326.15L489.7 278.34C489.355 277.18 489.582 275.926 490.31 274.96L522.48 232.96C523.351 231.819 524.789 231.266 526.2 231.53 527.609 231.785 528.75 232.822 529.14 234.2L560.54 340.99C561.717 342.734 561.257 345.102 559.513 346.279 558.857 346.722 558.081 346.949 557.29 346.93ZM510.49 322.16 551.49 336.96 524 243.48 497.58 278.05Z" stroke="#040000" stroke-width="1.9" stroke-miterlimit="10" fill="#060001"/><path d="M564.57 188.61 594.81 146.59 617.22 181.66 614.97 267.52 564.57 188.61Z" stroke="#040000" stroke-width="1.9" stroke-miterlimit="10" fill="#EE0000" fill-rule="evenodd"/><path d="M614.86 271.32C613.65 271.285 612.533 270.666 611.86 269.66L558.08 190.66C557.162 189.305 557.207 187.518 558.19 186.21L590.3 144.21C591.705 142.549 594.191 142.341 595.853 143.746 596.079 143.937 596.282 144.153 596.46 144.39L620.36 179.5C620.817 180.152 621.052 180.934 621.03 181.73L618.83 266.41C618.941 266.8 618.991 267.205 618.98 267.61 618.926 269.708 617.181 271.365 615.083 271.31 615.082 271.31 615.081 271.31 615.08 271.31ZM565.86 188.65 611.44 255.65 613.34 182.8 593.12 153Z" stroke="#040000" stroke-width="1.9" stroke-miterlimit="10" fill="#060001"/><path d="M617.21 181.66 665.6 252.79 663.38 338.62 614.97 267.52 617.21 181.66Z" stroke="#040000" stroke-width="1.9" stroke-miterlimit="10" fill="#EE0000" fill-rule="evenodd"/><path d="M663.27 342.42C662.06 342.385 660.943 341.766 660.27 340.76L611.86 269.66C611.404 269.007 611.17 268.226 611.19 267.43L613.43 181.57C613.462 179.916 614.57 178.476 616.16 178.02 617.743 177.553 619.447 178.159 620.38 179.52L668.77 250.65C669.21 251.309 669.437 252.088 669.42 252.88L667.24 337.53 667.24 338.71C667.273 340.731 665.662 342.397 663.641 342.43 663.604 342.43 663.567 342.431 663.53 342.43 663.448 342.393 663.355 342.39 663.27 342.42ZM618.81 266.42 659.88 326.75 661.77 253.93 620.7 193.55Z" stroke="#040000" stroke-width="1.9" stroke-miterlimit="10" fill="#060001"/><path d="M493.34 277.27 464.82 180.32 496.97 138.26 525.5 235.22 493.34 277.27Z" stroke="#040000" stroke-width="1.9" stroke-miterlimit="10" fill="#EE0000" fill-rule="evenodd"/><path d="M493.23 281.07C493.032 281.069 492.834 281.049 492.64 281.01 491.233 280.75 490.094 279.716 489.7 278.34L461.18 181.39C460.836 180.229 461.067 178.974 461.8 178.01L494 136C494.9 134.899 496.316 134.359 497.72 134.58 499.13 134.835 500.27 135.872 500.66 137.25L529.19 234.25C529.536 235.41 529.31 236.665 528.58 237.63L496.41 279.69C495.632 280.632 494.45 281.145 493.23 281.07ZM469 181.09 494.87 269 521.3 234.44 495.45 146.52Z" stroke="#040000" stroke-width="1.9" stroke-miterlimit="10" fill="#060001"/><path d="M512.86 117.5 544.93 75.5 593.3 146.55 561.2 188.51 512.86 117.5Z" stroke="#040000" stroke-width="1.9" stroke-miterlimit="10" fill="#EE0000" fill-rule="evenodd"/><path d="M561.09 192.31C559.881 192.273 558.764 191.655 558.09 190.65L509.76 119.65C508.833 118.298 508.877 116.504 509.87 115.2L541.94 73.2C542.668 72.2488 543.802 71.6966 545 71.71L545 71.71C546.22 71.71 548.78 71.95 549.47 72.97L596.4 144.41C597.318 145.766 597.269 147.556 596.28 148.86L564.18 190.86C563.436 191.803 562.291 192.341 561.09 192.31ZM517.55 117.63 561.38 182 588.61 146.38 544.75 82Z" stroke="#040000" stroke-width="1.9" stroke-miterlimit="10" fill="#060001"/><path d="M525.5 235.22 496.97 138.26 512.86 117.5 561.2 188.51 525.5 235.22Z" stroke="#040000" stroke-width="1.9" stroke-miterlimit="10" fill="#EE0000" fill-rule="evenodd"/><path d="M525.39 239 524.8 238.94C523.393 238.68 522.254 237.646 521.86 236.27L493.33 139.32C493.022 138.169 493.27 136.941 494 136L509.89 115.24C511.293 113.576 513.778 113.365 515.442 114.767 515.668 114.958 515.872 115.174 516.05 115.41L564.38 186.41C565.309 187.765 565.264 189.562 564.27 190.87L528.58 237.57C527.808 238.531 526.621 239.063 525.39 239ZM501.17 139 527 227 556.48 188.42 512.68 124Z" stroke="#040000" stroke-width="1.9" stroke-miterlimit="10" fill="#060001"/><path d="M331.4 445.38 407.75 504.23 450.99 474.61 423.79 382.15 331.4 445.38Z" stroke="#040000" stroke-width="1.9" stroke-miterlimit="10" fill="#006600" fill-rule="evenodd"/><path d="M450.99 474.61 534.25 417.66 507.05 325.2 423.79 382.15 450.99 474.61Z" stroke="#040000" stroke-width="1.9" stroke-miterlimit="10" fill="#006600" fill-rule="evenodd"/><path d="M450.88 478.41C450.483 478.403 450.09 478.325 449.72 478.18 448.571 477.78 447.688 476.848 447.35 475.68L420.15 383.22C419.678 381.64 420.285 379.936 421.65 379.01L504.91 322.06C505.905 321.362 507.18 321.198 508.32 321.62 509.468 322.026 510.35 322.96 510.69 324.13L537.89 416.59C538.357 418.167 537.751 419.866 536.39 420.79L453.13 477.74C452.469 478.195 451.682 478.429 450.88 478.41ZM428.22 383.73 453.17 468.52 529.82 416.08 504.82 331.29Z" stroke="#040000" stroke-width="1.9" stroke-miterlimit="10" fill="#060001"/><path d="M408.82 505.36 332.47 446.51 249.28 503.43 325.64 562.25 408.82 505.36Z" stroke="#040000" stroke-width="1.9" stroke-miterlimit="10" fill="#A83DD9" fill-rule="evenodd"/><path d="M324.47 564.92C323.667 564.905 322.891 564.627 322.26 564.13L245.9 505.31C244.236 504.041 243.915 501.663 245.184 499.998 245.432 499.673 245.731 499.39 246.07 499.16L329.26 442.24C330.61 441.3 332.417 441.352 333.71 442.37L410.07 501.22C411.73 502.477 412.057 504.841 410.801 506.501 410.547 506.836 410.239 507.126 409.89 507.36L326.71 564.25C326.057 564.713 325.27 564.948 324.47 564.92ZM254.69 502.48 324.69 556.43 401.28 504 331.28 450Z" stroke="#040000" stroke-width="1.9" stroke-miterlimit="10" fill="#060001"/><path d="M242.35 377.34 208.93 471.05 247.76 500.97 329.85 444.8 242.35 377.34Z" stroke="#040000" stroke-width="1.88" stroke-miterlimit="10" fill="#A83DD9" fill-rule="evenodd"/><path d="M423.79 382.15 507.05 325.2 493.03 277.56 392.25 274.71 423.79 382.15Z" stroke="#040000" stroke-width="1.9" stroke-miterlimit="10" fill="#006600" fill-rule="evenodd"/><path d="M281.39 272.68 180.79 269.84 164.09 316.72 243.81 378.16 281.39 272.68Z" stroke="#040000" stroke-width="1.9" stroke-miterlimit="10" fill="#006600" fill-rule="evenodd"/><path d="M163.69 316.71 130.28 410.42 208.93 471.05 242.35 377.34 163.69 316.71Z" stroke="#040000" stroke-width="1.88" stroke-miterlimit="10" fill="#A83DD9" fill-rule="evenodd"/><path d="M493.03 277.56 464.67 181.03 363.85 178.18 392.25 274.71 493.03 277.56Z" stroke="#040000" stroke-width="1.9" stroke-miterlimit="10" fill="#006600" fill-rule="evenodd"/><path d="M315.18 177.91 214.6 175.06 180.79 269.84 281.39 272.68 315.18 177.91Z" stroke="#040000" stroke-width="1.9" stroke-miterlimit="10" fill="#006600" fill-rule="evenodd"/><path d="M393.31 275.85 364.92 179.31 315.18 177.91 281.39 272.68 393.31 275.85Z" stroke="#040000" stroke-width="1.9" stroke-miterlimit="10" fill="#006600" fill-rule="evenodd"/><path d="M405.92 558.49C378.84 576.883 351.823 595.243 324.87 613.57 324.87 622.69 324.92 631.75 324.97 640.79 351.75 632.93 378.493 625.06 405.2 617.18 405.29 607.52 405.44 597.72 405.55 588.01 405.66 578.3 405.78 568.35 405.92 558.49Z" stroke="#040000" stroke-width="1.9" stroke-miterlimit="10" fill="#006600" fill-rule="evenodd"/><path d="M324.86 644.59C324.079 644.557 323.324 644.297 322.69 643.84 321.744 643.13 321.179 642.023 321.16 640.84L321.16 635.76C321.12 628.427 321.097 621.04 321.09 613.6 321.099 612.345 321.718 611.174 322.75 610.46L403.75 555.38C404.942 554.575 406.483 554.498 407.75 555.18 409.004 555.851 409.776 557.168 409.75 558.59L409 617.21C408.982 618.885 407.875 620.352 406.27 620.83 386.09 626.723 365.94 632.647 345.82 638.6L326 644.43C325.631 644.543 325.246 644.597 324.86 644.59ZM328.68 615.59C328.68 622.32 328.68 629.02 328.75 635.69L328.75 635.69 343.67 631.3C362.95 625.62 382.203 619.953 401.43 614.3L402.03 565.71Z" stroke="#040000" stroke-width="1.9" stroke-miterlimit="10" fill="#211613"/><path d="M325 640.79C325.073 658.05 325.11 675.233 325.11 692.34 351.657 684.5 378.143 676.683 404.57 668.89 404.82 651.75 404.99 634.52 405.23 617.18 378.49 625.007 351.747 632.877 325 640.79Z" stroke="#040000" stroke-width="1.9" stroke-miterlimit="10" fill="#006600" fill-rule="evenodd"/><path d="M325 696.14C322.949 696.07 321.32 694.392 321.31 692.34 321.31 675.24 321.27 658.06 321.19 640.8 321.175 639.108 322.292 637.614 323.92 637.15L343.73 631.3C363.89 625.373 384.033 619.447 404.16 613.52 406.181 612.935 408.294 614.098 408.88 616.119 408.983 616.477 409.034 616.848 409.03 617.22L408.37 668.93C408.356 670.602 407.246 672.066 405.64 672.53L326.15 696C325.777 696.108 325.388 696.155 325 696.14ZM328.81 643.63C328.87 658.23 328.903 672.77 328.91 687.25L400.77 666 401.33 622.24C382.837 627.66 364.34 633.103 345.84 638.57Z" stroke="#040000" stroke-width="1.9" stroke-miterlimit="10" fill="#060001"/><path d="M497.9 589.91C517.667 564.79 537.563 539.523 557.59 514.11 548.25 510.75 538.83 507.4 529.44 504.04 520.05 500.68 510.44 497.33 501 493.91L453.36 526.25C437.567 537.01 421.753 547.757 405.92 558.49 405.78 568.35 405.68 578.21 405.55 588.01 405.42 597.81 405.29 607.52 405.2 617.18 436.12 608.1 467.02 599.01 497.9 589.91Z" stroke="#040000" stroke-width="1.9" stroke-miterlimit="10" fill="#EEE8AA" fill-rule="evenodd"/><path d="M405.09 621C404.297 620.973 403.532 620.7 402.9 620.22 401.941 619.497 401.384 618.361 401.4 617.16L402.12 558.44C402.146 557.206 402.764 556.06 403.78 555.36 419.613 544.627 435.427 533.887 451.22 523.14L498.86 490.78C499.866 490.09 501.144 489.93 502.29 490.35L558.88 510.55C560.029 510.961 560.91 511.898 561.25 513.07 561.588 514.25 561.343 515.52 560.59 516.49L500.89 592.29C500.391 592.9 499.723 593.348 498.97 593.58L406.27 620.84C405.888 620.957 405.489 621.011 405.09 621ZM409.7 560.54 409.06 612.09 495.66 586.63 551.33 515.93 501.53 498.16 455.53 529.42C440.263 539.807 424.987 550.173 409.7 560.52Z" stroke="#040000" stroke-width="1.9" stroke-miterlimit="10" fill="#040000"/><path d="M324.87 613.57C351.83 595.277 378.847 576.917 405.92 558.49 406.16 540.61 406.41 522.61 406.67 504.49 379.25 523.157 351.933 541.787 324.72 560.38 324.76 578.24 324.82 596 324.87 613.57Z" stroke="#040000" stroke-width="1.9" stroke-miterlimit="10" fill="#006600" fill-rule="evenodd"/><path d="M324.77 617.37C324.188 617.347 323.618 617.197 323.1 616.93 321.866 616.269 321.097 614.98 321.1 613.58L320.94 560.36C320.94 559.101 321.561 557.922 322.6 557.21L404.55 501.33C406.261 500.114 408.633 500.516 409.849 502.226 410.324 502.895 410.57 503.7 410.55 504.52L409.81 558.52C409.793 559.767 409.17 560.927 408.14 561.63L327 616.72C326.341 617.16 325.562 617.387 324.77 617.37ZM328.52 562.37 328.66 606.37 402.15 556.42 402.76 511.68Z" stroke="#040000" stroke-width="1.9" stroke-miterlimit="10" fill="#060001"/><path d="M501 493.91C483.793 487.77 466.49 481.633 449.09 475.5 434.93 485.18 420.79 494.847 406.67 504.5 406.39 522.653 406.14 540.653 405.92 558.5 421.747 547.767 437.56 537.02 453.36 526.26Z" stroke="#040000" stroke-width="1.9" stroke-miterlimit="10" fill="#EEE8AA" fill-rule="evenodd"/><path d="M405.82 562.29C405.227 562.268 404.646 562.114 404.12 561.84 402.876 561.163 402.107 559.856 402.12 558.44L402.86 504.44C402.878 503.207 403.498 502.06 404.52 501.37L446.95 472.37C447.954 471.704 449.208 471.538 450.35 471.92 466.35 477.52 482.22 483.143 497.96 488.79L502.27 490.33C503.624 490.799 504.594 491.998 504.77 493.42 504.949 494.842 504.32 496.246 503.14 497.06L455.5 529.4C439.7 540.16 423.887 550.907 408.06 561.64 407.398 562.082 406.616 562.309 405.82 562.29ZM410.44 506.49 409.83 551.26C423.63 541.887 437.427 532.507 451.22 523.12L492.66 495C478.4 489.9 464.067 484.813 449.66 479.74Z" stroke="#040000" stroke-width="1.9" stroke-miterlimit="10" fill="#060001"/><path d="M405.2 617.18C404.96 634.52 404.79 651.75 404.54 668.89 418.107 664.843 431.673 660.843 445.24 656.89 462.72 634.69 480.273 612.38 497.9 589.96 467.053 598.98 436.153 608.053 405.2 617.18Z" stroke="#040000" stroke-width="1.9" stroke-miterlimit="10" fill="#EEE8AA" fill-rule="evenodd"/><path d="M404.43 672.69C403.637 672.663 402.872 672.39 402.24 671.91 401.28 671.184 400.723 670.044 400.74 668.84L401.4 617.13C401.415 615.461 402.526 614 404.13 613.54L496.83 586.25C498.844 585.661 500.955 586.817 501.543 588.832 501.888 590.011 501.641 591.285 500.88 592.25L448.24 659.2C447.746 659.817 447.071 660.265 446.31 660.48 432.77 664.48 419.21 668.48 405.63 672.48 405.244 672.614 404.839 672.685 404.43 672.69ZM409 620 408.44 663.74C419.98 660.3 431.51 656.89 443.03 653.51L487.58 596.88Z" stroke="#040000" stroke-width="1.9" stroke-miterlimit="10" fill="#060001"/><path d="M557.59 514.11C575.71 491.09 593.937 467.933 612.27 444.64 603.93 441.56 595.56 438.44 587.18 435.38 558.393 454.893 529.667 474.403 501 493.91 510.48 497.33 520 500.69 529.44 504.04 538.88 507.39 548.25 510.75 557.59 514.11Z" stroke="#040000" stroke-width="1.9" stroke-miterlimit="10" fill="#EEE8AA" fill-rule="evenodd"/><path d="M557.49 517.91C557.083 517.902 556.68 517.824 556.3 517.68L499.71 497.48C497.735 496.771 496.709 494.594 497.418 492.619 497.69 491.863 498.195 491.212 498.86 490.76L585 432.23C586.011 431.532 587.299 431.371 588.45 431.8 594.89 434.16 601.32 436.533 607.74 438.92L613.54 441.09C614.69 441.495 615.566 442.442 615.88 443.62 616.214 444.784 615.969 446.038 615.22 446.99L560.55 516.47C559.804 517.393 558.677 517.923 557.49 517.91ZM509.33 492.85 556.33 509.61 606.09 446.4 605.16 446.05C599.37 443.91 593.57 441.75 587.74 439.61Z" stroke="#040000" stroke-width="1.9" stroke-miterlimit="10" fill="#060001"/><path d="M587.18 435.38C570.18 429.01 553.08 422.65 535.8 416.38 506.82 436.127 477.917 455.833 449.09 475.5 466.523 481.613 483.827 487.75 501 493.91 529.667 474.457 558.393 454.947 587.18 435.38Z" stroke="#040000" stroke-width="1.9" stroke-miterlimit="10" fill="#EEE8AA" fill-rule="evenodd"/><path d="M445.24 656.84C472.733 648.68 500.2 640.573 527.64 632.52 545.28 610.32 563.07 587.967 581.01 565.46L497.9 589.91C480.273 612.29 462.72 634.6 445.24 656.84Z" stroke="#040000" stroke-width="1.9" stroke-miterlimit="10" fill="#EEE8AA" fill-rule="evenodd"/><path d="M445.14 660.64C443.042 660.587 441.384 658.844 441.436 656.746 441.457 655.926 441.742 655.134 442.25 654.49L494.9 587.55C495.394 586.933 496.069 586.485 496.83 586.27L579.94 561.82C581.526 561.324 583.248 561.941 584.16 563.33 585.091 564.707 585.022 566.528 583.99 567.83 566.077 590.29 548.287 612.643 530.62 634.89 530.132 635.503 529.464 635.947 528.71 636.16 501.31 644.213 473.85 652.32 446.33 660.48 445.947 660.607 445.543 660.661 445.14 660.64ZM500.14 593.21 455.62 649.8C478.913 642.9 502.177 636.04 525.41 629.22 540.343 610.42 555.383 591.513 570.53 572.5Z" stroke="#040000" stroke-width="1.9" stroke-miterlimit="10" fill="#060001"/><path d="M607.7 531.93C625.79 509.17 644.02 486.19 662.31 463.2 645.74 457.06 629.04 450.82 612.31 444.64 593.983 467.973 575.757 491.13 557.63 514.11 574.383 520.11 591.073 526.05 607.7 531.93Z" stroke="#040000" stroke-width="1.9" stroke-miterlimit="10" fill="#EEE8AA" fill-rule="evenodd"/><path d="M607.6 535.73C607.202 535.711 606.808 535.637 606.43 535.51L594.43 531.24C581.763 526.747 569.077 522.227 556.37 517.68 554.392 516.98 553.355 514.808 554.056 512.83 554.194 512.44 554.394 512.075 554.65 511.75L609.32 442.3C610.345 441.01 612.078 440.515 613.63 441.07 624.69 445.137 635.69 449.223 646.63 453.33L663.63 459.64C665.597 460.357 666.61 462.532 665.893 464.499 665.751 464.886 665.548 465.248 665.29 465.57L610.68 534.3C609.931 535.229 608.793 535.758 607.6 535.73ZM563.85 512.31C574.91 516.25 585.933 520.167 596.92 524.06L606.42 527.43 656.07 464.94 644 460.46C633.893 456.693 623.75 452.93 613.57 449.17Z" stroke="#040000" stroke-width="1.9" stroke-miterlimit="10" fill="#060001"/><path d="M497.9 589.91 581 565.46C589.873 554.3 598.77 543.123 607.69 531.93 591.063 526.023 574.36 520.083 557.58 514.11 537.553 539.57 517.66 564.837 497.9 589.91Z" stroke="#040000" stroke-width="1.9" stroke-miterlimit="10" fill="#EEE8AA" fill-rule="evenodd"/><path d="M497.79 593.71C495.681 593.639 494.029 591.873 494.1 589.764 494.127 588.96 494.407 588.185 494.9 587.55L554.6 511.75C555.605 510.456 557.333 509.963 558.87 510.53 571.537 515.05 584.157 519.537 596.73 523.99L609 528.34C610.989 529.043 612.032 531.226 611.328 533.215 611.184 533.623 610.972 534.003 610.7 534.34L584 567.83C583.506 568.437 582.84 568.879 582.09 569.1L499 593.55C498.608 593.67 498.199 593.724 497.79 593.71ZM558.89 518.6 508.26 582.89 578.79 562.16 601.41 533.72 594.19 531.16C582.45 527 570.69 522.83 558.89 518.6Z" stroke="#040000" stroke-width="1.9" stroke-miterlimit="10" fill="#060001"/><path d="M158.9 487.62C133.22 467.873 107.34 448 81.26 428 72.65 430.73 64.02 433.43 55.42 436.16 71.72 459.153 87.9133 482.03 104 504.79 113.14 501.96 122.31 499.07 131.41 496.23 140.51 493.39 149.76 490.51 158.9 487.62Z" stroke="#040000" stroke-width="1.9" stroke-miterlimit="10" fill="#ADD8E6" fill-rule="evenodd"/><path d="M103.94 508.59C102.746 508.553 101.637 507.961 100.94 506.99L52.31 438.38C51.1046 436.649 51.5311 434.268 53.2626 433.062 53.5834 432.839 53.9367 432.666 54.31 432.55L80.15 424.4C81.3329 424.035 82.619 424.258 83.61 425 109.703 445 135.583 464.87 161.25 484.61 162.917 485.885 163.234 488.27 161.959 489.937 161.485 490.556 160.833 491.014 160.09 491.25L105.21 508.42C104.799 508.549 104.37 508.606 103.94 508.59ZM61.54 438.24 105.54 500.34 150.78 486.19C127.533 468.303 104.107 450.323 80.5 432.25Z" stroke="#040000" stroke-width="1.9" stroke-miterlimit="10" fill="#060001"/><path d="M55.42 436.18C38.81 441.38 22.17 446.62 5.53 451.79 22.0567 474.75 38.4367 497.557 54.67 520.21 71.13 515.09 87.5867 509.95 104.04 504.79 87.94 482.05 71.7333 459.18 55.42 436.18Z" stroke="#040000" stroke-width="1.9" stroke-miterlimit="10" fill="#ADD8E6" fill-rule="evenodd"/><path d="M54.56 524C53.3657 523.971 52.2545 523.382 51.56 522.41L2.45 454C1.35263 452.087 0.847977 449.891 1 447.69 1 446.32 1 446.33 1.82 446.1 14.53 442.69 29.56 440.32 42.11 436.38L54.32 432.55C55.8859 432.089 57.5721 432.671 58.52 434L107.15 502.61C108.361 504.324 107.954 506.695 106.241 507.906 105.908 508.142 105.54 508.322 105.15 508.44L55.8 523.84C55.3987 523.963 54.9794 524.017 54.56 524ZM11.7 453.85 56.16 515.76 97.92 502.71 53.92 440.64 44.37 443.64C33.4567 447.047 22.5667 450.45 11.7 453.85Z" stroke="#040000" stroke-width="1.9" stroke-miterlimit="10" fill="#060001"/><path d="M159.24 582.71C188.533 592.963 217.7 603.177 246.74 613.35 246.83 603.78 246.83 594.16 246.96 584.51 247.09 574.86 247.09 565.17 247.19 555.42 232.623 544.26 218.007 533.033 203.34 521.74 188.673 510.447 173.86 499.073 158.9 487.62 149.76 490.51 140.59 493.34 131.45 496.23 122.31 499.12 113.18 502 104 504.79 122.58 530.983 140.993 556.957 159.24 582.71Z" stroke="#040000" stroke-width="1.9" stroke-miterlimit="10" fill="#ADD8E6" fill-rule="evenodd"/><path d="M246.63 617.15C246.238 617.139 245.85 617.069 245.48 616.94 222.56 608.88 199.56 600.827 176.48 592.78L158 586.3C157.26 586.029 156.616 585.545 156.15 584.91L100.94 507C99.7285 505.286 100.136 502.915 101.849 501.703 102.182 501.468 102.55 501.288 102.94 501.17L157.76 484C158.943 483.647 160.224 483.878 161.21 484.62L249.5 552.4C250.443 553.135 250.993 554.265 250.99 555.46L250.76 584.54C250.69 590.11 250.66 595.66 250.63 601.19L250.54 613.38C250.519 615.484 248.796 617.172 246.692 617.151 246.671 617.151 246.65 617.151 246.63 617.15ZM161.63 579.52 179 585.6C200.393 593.073 221.727 600.54 243 608L243.06 601.15C243.06 595.603 243.103 590.04 243.19 584.46L243.41 557.29 158.19 491.83 110.19 506.83Z" stroke="#040000" stroke-width="1.9" stroke-miterlimit="10" fill="#060001"/><path d="M81.26 428C107.34 448 133.22 467.867 158.9 487.6 175.42 482.453 191.923 477.293 208.41 472.12 182.85 452.333 157.103 432.393 131.17 412.3 114.57 417.587 97.9333 422.82 81.26 428Z" stroke="#040000" stroke-width="1.9" stroke-miterlimit="10" fill="#ADD8E6" fill-rule="evenodd"/><path d="M158.79 491.42C157.992 491.394 157.222 491.117 156.59 490.63 130.91 470.877 105.027 451.017 78.94 431.05 77.8191 430.183 77.2721 428.765 77.52 427.37 77.7445 425.953 78.7578 424.788 80.13 424.37L83.05 423.45C98.76 418.52 114.4 413.63 130.05 408.66 131.243 408.302 132.534 408.532 133.53 409.28L210.77 469.11C211.882 469.984 212.423 471.397 212.18 472.79 211.932 474.185 210.924 475.323 209.57 475.74L160 491.25C159.608 491.368 159.2 491.426 158.79 491.42ZM89.39 429.42C112.97 447.513 136.393 465.513 159.66 483.42L200.32 470.69 130.41 416.56C116.803 420.853 103.13 425.153 89.39 429.46Z" stroke="#040000" stroke-width="1.9" stroke-miterlimit="10" fill="#060001"/><path d="M247.19 555.42C247.37 537.9 247.52 520.277 247.64 502.55 234.593 492.437 221.517 482.3 208.41 472.14 191.89 477.32 175.387 482.48 158.9 487.62 173.78 499.027 188.593 510.4 203.34 521.74 218.087 533.08 232.703 544.307 247.19 555.42Z" stroke="#040000" stroke-width="1.9" stroke-miterlimit="10" fill="#ADD8E6" fill-rule="evenodd"/><path d="M247.08 559.22C246.281 559.2 245.509 558.93 244.87 558.45L156.59 490.63C155.456 489.772 154.902 488.348 155.16 486.95 155.398 485.539 156.406 484.381 157.77 483.95L207.28 468.48C208.466 468.112 209.756 468.343 210.74 469.1L250 499.54C250.922 500.263 251.463 501.368 251.47 502.54 251.35 520.253 251.2 537.88 251.02 555.42 251.004 557.513 249.295 559.197 247.202 559.182 247.171 559.182 247.141 559.181 247.11 559.18ZM167 489.07 243.44 547.77C243.58 533.377 243.7 518.92 243.8 504.4L207.62 476.4Z" stroke="#040000" stroke-width="1.9" stroke-miterlimit="10" fill="#060001"/><path d="M104 504.79C87.52 509.937 71.0633 515.077 54.63 520.21 62.95 531.79 71.25 543.343 79.53 554.87L159.2 582.71C140.987 556.943 122.587 530.97 104 504.79Z" stroke="#040000" stroke-width="1.9" stroke-miterlimit="10" fill="#ADD8E6" fill-rule="evenodd"/><path d="M159.13 586.51C158.738 586.498 158.351 586.428 157.98 586.3L78.31 558.46C77.5716 558.206 76.9316 557.727 76.48 557.09L51.58 522.42C50.367 520.701 50.7776 518.323 52.497 517.11 52.8275 516.877 53.1931 516.698 53.58 516.58L102.95 501.16C104.524 500.685 106.225 501.259 107.19 502.59L162.39 580.51C163.6 582.231 163.186 584.608 161.465 585.818 160.794 586.29 159.989 586.532 159.17 586.51ZM82 551.69 149.3 575.19 102.58 509.25 60.88 522.25Z" stroke="#040000" stroke-width="1.9" stroke-miterlimit="10" fill="#060001"/><path d="M246.74 613.35C272.74 622.397 298.63 631.447 324.41 640.5 324.57 632.073 324.733 623.6 324.9 615.08 299.213 595.367 273.31 575.48 247.19 555.42 247.09 565.17 247.05 574.88 246.96 584.51 246.87 594.14 246.83 603.78 246.74 613.35Z" stroke="#040000" stroke-width="1.9" stroke-miterlimit="10" fill="#ADD8E6" fill-rule="evenodd"/><path d="M324.3 644.3C323.908 644.288 323.521 644.218 323.15 644.09 297.317 635.037 271.43 625.987 245.49 616.94 243.95 616.407 242.923 614.949 242.94 613.32L243.03 601.15C243.03 595.603 243.073 590.04 243.16 584.46L243.39 555.39C243.388 553.297 245.084 551.599 247.177 551.597 248.018 551.596 248.835 551.875 249.5 552.39L327.22 612.05C328.178 612.785 328.731 613.932 328.71 615.14L328.21 640.56C328.177 641.763 327.571 642.877 326.58 643.56 325.923 644.052 325.121 644.312 324.3 644.3ZM250.56 610.65C274.02 618.83 297.403 627.007 320.71 635.18L321.06 616.94 250.92 563.09 250.76 584.54C250.69 590.11 250.66 595.66 250.63 601.19Z" stroke="#040000" stroke-width="1.9" stroke-miterlimit="10" fill="#060001"/><path d="M324.9 615.08C325.24 597.887 325.573 580.583 325.9 563.17 300 543.13 273.913 522.923 247.64 502.55 247.513 520.263 247.363 537.887 247.19 555.42 273.303 575.48 299.207 595.367 324.9 615.08Z" stroke="#040000" stroke-width="1.9" stroke-miterlimit="10" fill="#ADD8E6" fill-rule="evenodd"/><path d="M324.8 618.88C323.997 618.865 323.221 618.587 322.59 618.09L244.87 558.43C243.936 557.716 243.388 556.606 243.39 555.43 243.57 537.91 243.72 520.287 243.84 502.56 243.85 501.112 244.685 499.797 245.99 499.17 247.296 498.551 248.837 498.709 249.99 499.58L328.25 560.21C329.192 560.948 329.735 562.084 329.72 563.28L328.72 615.2C328.689 616.632 327.853 617.924 326.56 618.54 326.011 618.799 325.406 618.916 324.8 618.88ZM251 553.57 321.23 607.48 322.05 565.01 251.38 510.26C251.28 524.753 251.153 539.19 251 553.57Z" stroke="#040000" stroke-width="1.9" stroke-miterlimit="10" fill="#060001"/><path d="M79.57 554.87C96.27 578.103 112.813 601.147 129.2 624 155.56 633.147 181.773 642.237 207.84 651.27 191.773 628.563 175.573 605.703 159.24 582.69Z" stroke="#040000" stroke-width="1.9" stroke-miterlimit="10" fill="#ADD8E6" fill-rule="evenodd"/><path d="M207.74 655.09C207.351 655.081 206.966 655.01 206.6 654.88L128 627.61C127.255 627.353 126.609 626.871 126.15 626.23 109.757 603.37 93.2167 580.323 76.53 557.09 75.5512 555.753 75.5512 553.937 76.53 552.6 77.5379 551.292 79.2618 550.763 80.83 551.28L160.5 579.12C161.244 579.384 161.89 579.869 162.35 580.51 178.683 603.503 194.9 626.363 211 649.09 212.21 650.811 211.796 653.188 210.074 654.398 209.407 654.867 208.606 655.11 207.79 655.09ZM131.59 620.82 197.89 643.82C184.31 624.607 170.643 605.297 156.89 585.89L89.68 562.44C103.76 582.027 117.73 601.487 131.59 620.82Z" stroke="#040000" stroke-width="1.9" stroke-miterlimit="10" fill="#060001"/><path d="M246.3 664.62C272.087 673.487 297.793 682.373 323.42 691.28 323.78 674.41 324.09 657.52 324.42 640.5 298.587 631.453 272.697 622.403 246.75 613.35 246.597 630.49 246.447 647.58 246.3 664.62Z" stroke="#040000" stroke-width="1.9" stroke-miterlimit="10" fill="#ADD8E6" fill-rule="evenodd"/><path d="M323 695C322.61 695 324.36 696.1 324 696L314.52 692.28C291.367 684.28 268.113 676.237 244.76 668.15 243.208 667.629 242.17 666.167 242.19 664.53L242.63 613.26C242.636 612.036 243.237 610.891 244.24 610.19 245.221 609.442 246.521 609.26 247.67 609.71 273.67 618.757 299.567 627.807 325.36 636.86 326.908 637.41 327.93 638.888 327.9 640.53L327.9 641.8C327.593 658.387 327.26 674.89 326.9 691.31 326.84 693.405 325.095 695.056 323 695ZM249.81 661.83C272.27 669.563 294.67 677.31 317.01 685.07L319.41 685.89C319.71 671.67 319.99 657.407 320.25 643.1 296.917 634.933 273.56 626.767 250.18 618.6Z" stroke="#040000" stroke-width="1.9" stroke-miterlimit="10" fill="#060001"/><path d="M159.24 582.71C175.567 605.717 191.767 628.577 207.84 651.29 220.69 655.75 233.52 660.16 246.3 664.62 246.447 647.573 246.593 630.483 246.74 613.35 217.693 603.117 188.527 592.903 159.24 582.71Z" stroke="#040000" stroke-width="1.9" stroke-miterlimit="10" fill="#ADD8E6" fill-rule="evenodd"/><path d="M246.19 668.42C245.801 668.409 245.417 668.339 245.05 668.21L206.6 654.88C205.849 654.619 205.196 654.134 204.73 653.49 188.663 630.777 172.463 607.917 156.13 584.91 154.919 583.189 155.333 580.812 157.054 579.602 158.058 578.895 159.341 578.716 160.5 579.12L179.14 585.63C202.16 593.703 225.113 601.747 248 609.76 249.534 610.299 250.555 611.754 250.54 613.38L250.1 664.65C250.079 666.754 248.356 668.443 246.252 668.421 246.231 668.421 246.211 668.421 246.19 668.42ZM210.19 648.1 242.5 659.3 242.88 616.03C220.84 608.29 198.74 600.55 176.58 592.81L169.19 590.24C182.977 609.633 196.657 628.92 210.23 648.1Z" stroke="#040000" stroke-width="1.9" stroke-miterlimit="10" fill="#060001"/><path d="M150.87 223C161.83 192.287 172.78 161.48 183.72 130.58 178.62 123.04 173.5 115.49 168.36 108.01 151.693 130.27 135.027 152.467 118.36 174.6 123.74 182.69 129.2 190.78 134.59 198.8 139.98 206.82 145.47 214.91 150.87 223Z" stroke="#040000" stroke-width="1.9" stroke-miterlimit="10" fill="#A83DD9" fill-rule="evenodd"/><path d="M150.77 226.76C149.54 226.73 148.401 226.108 147.71 225.09L115.19 176.67C114.288 175.33 114.341 173.564 115.32 172.28L165.32 105.68C166.062 104.71 167.219 104.15 168.44 104.17 169.44 103.84 170.8 104.8 171.49 105.81 176.63 113.31 181.757 120.843 186.87 128.41 187.544 129.411 187.707 130.671 187.31 131.81L183 144C173.493 170.793 163.987 197.527 154.48 224.2 154 225.549 152.801 226.512 151.38 226.69 151.18 226.735 150.975 226.759 150.77 226.76ZM123 174.7 149.8 214.58C158.467 190.287 167.133 165.923 175.8 141.49L179.5 131.07C175.753 125.543 171.993 120.017 168.22 114.49Z" stroke="#040000" stroke-width="1.9" stroke-miterlimit="10" fill="#211613"/><path d="M168.36 108C158.58 93.5 148.793 78.98 139 64.44 122.34 86.85 105.75 109 89.2 131.19 98.9 145.637 108.62 160.093 118.36 174.56 135 152.387 151.667 130.2 168.36 108Z" stroke="#040000" stroke-width="1.9" stroke-miterlimit="10" fill="#A83DD9" fill-rule="evenodd"/><path d="M118.25 178.36C117.04 178.316 115.925 177.695 115.25 176.69L86.05 133.32C85.144 131.98 85.1882 130.213 86.16 128.92L136 62.17C136.737 61.182 137.907 60.6119 139.14 60.64L139.14 60.64C140.351 60.6881 141.466 61.3125 142.14 62.32 151.907 76.86 161.683 91.3667 171.47 105.84 172.378 107.183 172.333 108.954 171.36 110.25L121.36 176.85C120.619 177.832 119.449 178.394 118.22 178.36ZM93.87 131.31 118.53 168 163.7 107.85C155.407 95.6033 147.13 83.32 138.87 71Z" stroke="#040000" stroke-width="1.9" stroke-miterlimit="10" fill="#060001"/><path d="M60.7 251.31C59.5667 283.163 58.4433 315.06 57.33 347 66.54 344.17 75.81 341.28 85.05 338.48 94.29 335.68 103.62 332.74 112.91 329.91 119.25 312.137 125.583 294.35 131.91 276.55 138.237 258.75 144.57 240.903 150.91 223.01 145.51 214.96 140.05 206.87 134.63 198.81 129.21 190.75 123.78 182.7 118.4 174.61 99.1067 200.237 79.8733 225.803 60.7 251.31Z" stroke="#040000" stroke-width="1.9" stroke-miterlimit="10" fill="#A83DD9" fill-rule="evenodd"/><path d="M57.22 350.75C55.1168 350.685 53.4645 348.927 53.5295 346.824 53.5297 346.819 53.5298 346.815 53.53 346.81 54.6767 314.87 55.8 282.993 56.9 251.18 56.9266 250.402 57.192 249.652 57.66 249.03L115.32 172.28C116.709 170.605 119.192 170.372 120.868 171.761 121.112 171.964 121.331 172.195 121.52 172.45L154 220.84C154.652 221.842 154.807 223.089 154.42 224.22 148.187 241.9 141.94 259.507 135.68 277.04 129.11 295.6 122.8 313.37 116.45 331.14 116.049 332.268 115.142 333.142 114 333.5L101 337.5C96 339.03 91.11 340.56 86.18 342.05 80.18 343.87 74.09 345.75 68.05 347.62L58.47 350.57C58.066 350.698 57.6437 350.759 57.22 350.75ZM64.45 252.64C63.4167 282.32 62.3733 312.02 61.32 341.74L65.77 340.37C71.83 338.497 77.89 336.637 83.95 334.79 88.85 333.31 93.7767 331.797 98.73 330.25L110 326.79C116.127 309.63 122.233 292.44 128.32 275.22 134.61 257.59 140.66 240.56 146.69 223.5L118.22 181.13Z" stroke="#040000" stroke-width="1.9" stroke-miterlimit="10" fill="#060001"/><path d="M183.72 130.54C172.76 161.42 161.81 192.24 150.87 223 160.68 237.66 170.52 252.23 180.33 266.86 191.303 236.093 202.303 205.237 213.33 174.29 203.41 159.71 193.54 145.08 183.72 130.54Z" stroke="#040000" stroke-width="1.9" stroke-miterlimit="10" fill="#A83DD9" fill-rule="evenodd"/><path d="M180.22 270.62C178.99 270.583 177.852 269.958 177.16 268.94L147.71 225.07C147.037 224.075 146.884 222.817 147.3 221.69 156.767 195.103 166.24 168.437 175.72 141.69L180.13 129.24C180.841 127.26 183.023 126.23 185.003 126.941 185.763 127.214 186.417 127.721 186.87 128.39L191.96 135.92C200.1 147.92 208.26 160.06 216.44 172.09 217.133 173.087 217.297 174.359 216.88 175.5L183.88 268.07C183.407 269.426 182.205 270.395 180.78 270.57 180.594 270.596 180.407 270.613 180.22 270.62ZM155.09 222.43 179.27 258.43 209.07 174.79C201.24 163.28 193.45 151.7 185.66 140.18L184.79 138.89 182.89 144.23C173.63 170.357 164.363 196.423 155.09 222.43Z" stroke="#040000" stroke-width="1.9" stroke-miterlimit="10" fill="#060001"/><path d="M112.91 329.86C129.697 324.747 146.517 319.587 163.37 314.38 169.03 298.56 174.69 282.67 180.37 266.82 170.56 252.19 160.72 237.62 150.91 222.96 144.597 240.88 138.263 258.727 131.91 276.5 125.557 294.273 119.223 312.06 112.91 329.86Z" stroke="#040000" stroke-width="1.9" stroke-miterlimit="10" fill="#A83DD9" fill-rule="evenodd"/><path d="M112.8 333.66C111.802 333.627 110.855 333.208 110.16 332.49 109.168 331.451 108.85 329.94 109.34 328.59 115.66 310.823 121.977 293.033 128.29 275.22L128.61 274.33C134.837 256.87 141.063 239.327 147.29 221.7 147.763 220.339 148.97 219.365 150.4 219.19 151.825 219.04 153.219 219.676 154.04 220.85L183.49 264.71C184.151 265.708 184.31 266.958 183.92 268.09 178.273 283.95 172.607 299.807 166.92 315.66 166.524 316.776 165.629 317.642 164.5 318 147.62 323.24 130.787 328.407 114 333.5 113.611 333.616 113.206 333.67 112.8 333.66ZM151.94 231.37C146.567 246.597 141.177 261.767 135.77 276.88 130 293.1 124.52 308.6 119 324 132.773 319.8 146.57 315.563 160.39 311.29 165.643 296.663 170.873 281.997 176.08 267.29Z" stroke="#040000" stroke-width="1.9" stroke-miterlimit="10" fill="#060001"/><path d="M118.36 174.56C108.613 160.093 98.8933 145.637 89.2 131.19 80.73 142.54 72.2 153.92 63.73 165.19 62.73 193.93 61.73 222.57 60.73 251.27 79.89 225.757 99.1 200.187 118.36 174.56Z" stroke="#040000" stroke-width="1.9" stroke-miterlimit="10" fill="#A83DD9" fill-rule="evenodd"/><path d="M60.59 255.11C60.195 255.099 59.8039 255.028 59.43 254.9 57.8665 254.343 56.8431 252.839 56.9 251.18L59.9 165.1C59.9298 164.323 60.1948 163.573 60.66 162.95 68.32 152.77 75.9633 142.563 83.59 132.33L86.13 128.92C86.8641 127.928 88.0363 127.357 89.27 127.39L89.27 127.39C90.4811 127.438 91.5962 128.063 92.27 129.07L121.43 172.44C122.338 173.783 122.294 175.554 121.32 176.85L63.74 253.6C62.9984 254.586 61.8232 255.149 60.59 255.11ZM67.48 166.56 64.93 239.35 113.7 174.45 89.05 137.77C81.87 147.37 74.68 156.967 67.48 166.56Z" stroke="#040000" stroke-width="1.9" stroke-miterlimit="10" fill="#060001"/><path d="M57.33 347C56.33 375.613 55.33 404.247 54.33 432.9 62.5433 430.46 70.7567 428.007 78.97 425.54 90.2633 393.74 101.597 361.863 112.97 329.91 103.68 332.74 94.36 335.68 85.11 338.48 75.86 341.28 66.54 344.12 57.33 347Z" stroke="#040000" stroke-width="1.9" stroke-miterlimit="10" fill="#FFA100" fill-rule="evenodd"/><path d="M54.21 436.65C52.1175 436.596 50.4647 434.857 50.5182 432.764 50.5187 432.746 50.5193 432.728 50.52 432.71L53.52 346.81C53.5792 345.193 54.6539 343.789 56.2 343.31L65.78 340.37C71.78 338.5 77.89 336.63 83.94 334.79 88.84 333.31 93.76 331.797 98.7 330.25L111.8 326.25C113.17 325.861 114.643 326.244 115.65 327.25 116.642 328.292 116.967 329.802 116.49 331.16L82.55 426.77C82.1378 427.908 81.2102 428.784 80.05 429.13L55.41 436.49C55.0212 436.607 54.616 436.661 54.21 436.65ZM61 349.79 58.26 427.69 76 422.41 106.78 335.72 100.95 337.52C95.95 339.05 91.06 340.58 86.13 342.07 80.13 343.89 74.04 345.77 68 347.64Z" stroke="#040000" stroke-width="1.9" stroke-miterlimit="10" fill="#060001"/><path d="M79 425.49C95.71 420.49 112.43 415.49 129.21 410.42 140.61 378.48 152.01 346.48 163.41 314.42 146.55 319.653 129.73 324.813 112.95 329.9 101.603 361.827 90.2867 393.69 79 425.49Z" stroke="#040000" stroke-width="1.9" stroke-miterlimit="10" fill="#FFA100" fill-rule="evenodd"/><path d="M78.86 429.29C76.7621 429.234 75.1066 427.488 75.1624 425.39 75.173 424.991 75.2464 424.596 75.38 424.22L109.32 328.59C109.73 327.452 110.653 326.574 111.81 326.22 128.583 321.107 145.393 315.95 162.24 310.75 164.245 310.13 166.373 311.254 166.992 313.259 167.235 314.044 167.217 314.886 166.94 315.66L132.75 411.66C132.346 412.796 131.425 413.673 130.27 414.02L120.76 416.89C107.147 420.99 93.5767 425.057 80.05 429.09 79.6681 429.226 79.2653 429.294 78.86 429.29ZM115.86 332.94 85.06 419.71C96.2 416.377 107.367 413.023 118.56 409.65L126.23 407.34 157.23 320.25C143.403 324.53 129.61 328.76 115.85 332.94Z" stroke="#040000" stroke-width="1.9" stroke-miterlimit="10" fill="#060001"/><path d="M63.73 165.23C46.5433 188.25 29.3967 211.173 12.29 234 11.3033 262.613 10.3033 291.197 9.29 319.75 26.41 297.03 43.56 274.22 60.74 251.32 61.73 222.61 62.72 194 63.73 165.23Z" stroke="#040000" stroke-width="1.9" stroke-miterlimit="10" fill="#A83DD9" fill-rule="evenodd"/><path d="M9.14 323.54C8.75173 323.527 8.36757 323.456 8 323.33 6.43693 322.767 5.41507 321.26 5.47 319.6 6.50333 291.047 7.50333 262.463 8.47 233.85 8.49532 233.072 8.7608 232.321 9.23 231.7L12 228C28.18 206.407 44.3967 184.74 60.65 163 61.655 161.688 63.384 161.161 64.95 161.69 66.5196 162.24 67.5487 163.748 67.49 165.41L64.49 251.49C64.4602 252.267 64.1952 253.017 63.73 253.64 46.5767 276.487 29.43 299.273 12.29 322 11.5537 322.996 10.3782 323.571 9.14 323.54ZM16 235.31C15.16 259.49 14.3067 283.653 13.44 307.8 27.9267 288.6 42.4467 269.333 57 250L59.56 177.25C45.7067 195.75 31.9 214.177 18.14 232.53Z" stroke="#040000" stroke-width="1.9" stroke-miterlimit="10" fill="#060001"/><path d="M7.76 362.1C6.76 390.68 5.76 419.203 4.76 447.67 21.2067 442.79 37.7233 437.85 54.31 432.85 55.33 404.237 56.33 375.603 57.31 346.95 40.75 352 24.29 357.07 7.76 362.1Z" stroke="#040000" stroke-width="1.9" stroke-miterlimit="10" fill="#FFA100" fill-rule="evenodd"/><path d="M4.67 451.47C2.57784 451.405 0.934169 449.657 0.998764 447.565 0.999122 447.553 0.999535 447.542 1 447.53L4 362C4.06087 360.374 5.14447 358.966 6.7 358.49L56.25 343.35C57.4267 342.972 58.7143 343.209 59.68 343.98 60.6624 344.718 61.2194 345.892 61.17 347.12L58.17 433.03C58.105 434.652 57.0222 436.055 55.47 436.53 38.8367 441.51 22.3 446.437 5.86 451.31 5.47461 451.427 5.07271 451.481 4.67 451.47ZM11.46 364.93 8.75 442.52C22.65 438.38 36.6033 434.207 50.61 430L53.35 352.15Z" stroke="#040000" stroke-width="1.9" stroke-miterlimit="10" fill="#060001"/><path d="M60.7 251.31C43.5333 274.183 26.3833 296.993 9.25 319.74 8.75 333.913 8.25333 348.033 7.76 362.1 24.29 357.1 40.76 352.01 57.33 346.95 58.4767 314.983 59.6 283.103 60.7 251.31Z" stroke="#040000" stroke-width="1.9" stroke-miterlimit="10" fill="#A83DD9" fill-rule="evenodd"/><path d="M7.65 365.9C6.84957 365.87 6.07777 365.595 5.44 365.11 4.49193 364.362 3.9571 363.207 4 362L5.45 319.6C5.47978 318.823 5.74481 318.073 6.21 317.45 23.33 294.73 40.48 271.913 57.66 249 58.9172 247.32 61.2986 246.976 62.9791 248.234 63.9787 248.981 64.5472 250.173 64.5 251.42 63.38 283.7 62.28 315.34 61.13 347.05 61.0676 348.672 59.9898 350.078 58.44 350.56L8.86 365.74C8.46778 365.857 8.05928 365.911 7.65 365.9ZM13 321.06 11.75 356.9 53.62 344.11C54.6133 317.11 55.57 290.163 56.49 263.27 41.97 282.57 27.4733 301.833 13 321.06Z" stroke="#040000" stroke-width="1.9" stroke-miterlimit="10" fill="#060001"/><path d="M398.77 136C431.323 136.947 463.873 137.88 496.42 138.8 502.14 131.527 507.823 124.26 513.47 117 487.39 107.86 461.303 98.6967 435.21 89.51 429.11 97.28 423 105 417 112.77 411 120.54 404.82 128.26 398.77 136Z" stroke="#040000" stroke-width="1.9" stroke-miterlimit="10" fill="#FFFFFF" fill-rule="evenodd"/><path d="M496.32 142.59 398.66 139.79C396.562 139.733 394.908 137.986 394.964 135.888 394.986 135.075 395.269 134.291 395.77 133.65L432.22 87.17C433.212 85.8697 434.935 85.367 436.47 85.93 462.543 95.0967 488.63 104.26 514.73 113.42 515.882 113.833 516.769 114.768 517.12 115.94 517.464 117.12 517.219 118.393 516.46 119.36L499.46 141.13C498.71 142.094 497.541 142.638 496.32 142.59ZM406.4 132.41 494.62 134.93 507.21 118.84C483.643 110.58 460.077 102.3 436.51 94Z" stroke="#040000" stroke-width="1.9" stroke-miterlimit="10" fill="#060001"/><path d="M513.47 117C524.43 103.053 535.407 89.1033 546.4 75.15 520.23 66 494.13 56.84 468 47.63 457.04 61.63 446.097 75.5933 435.17 89.52 461.263 98.6933 487.363 107.853 513.47 117Z" stroke="#040000" stroke-width="1.9" stroke-miterlimit="10" fill="#FFFFFF" fill-rule="evenodd"/><path d="M513.36 120.81C512.968 120.798 512.581 120.728 512.21 120.6 486.13 111.46 460.06 102.297 434 93.11 432.019 92.4175 430.974 90.25 431.667 88.2689 431.806 87.8717 432.01 87.5004 432.27 87.17L465.1 45.29C466.067 43.9881 467.769 43.4656 469.3 44L547.66 71.53C549.649 72.2153 550.707 74.3837 550.021 76.3732 549.877 76.7932 549.66 77.1847 549.38 77.53 538.36 91.4767 527.387 105.423 516.46 119.37 515.718 120.32 514.565 120.856 513.36 120.81ZM441.48 87.69C465.027 95.97 488.587 104.247 512.16 112.52 521.493 100.68 530.827 88.8367 540.16 76.99L469.35 52.12Z" stroke="#040000" stroke-width="1.9" stroke-miterlimit="10" fill="#060001"/><path d="M344.31 57.56C313.437 66.46 282.543 75.3633 251.63 84.27 257.2 92.36 262.86 100.45 268.44 108.51 274.02 116.57 279.67 124.69 285.29 132.76 304.17 133.293 323.063 133.837 341.97 134.39L398.77 135.99C404.823 128.257 410.883 120.517 416.95 112.77 422.95 105.04 429.11 97.28 435.21 89.52 404.883 78.88 374.583 68.2267 344.31 57.56Z" stroke="#040000" stroke-width="1.9" stroke-miterlimit="10" fill="#FFFFFF" fill-rule="evenodd"/><path d="M398.66 139.79 285.18 136.56C283.981 136.511 282.873 135.909 282.18 134.93L248.49 86.42C247.305 84.6746 247.759 82.299 249.504 81.1138 249.831 80.8917 250.191 80.7218 250.57 80.61 272.19 74.4033 293.803 68.18 315.41 61.94L343.25 53.94C344.011 53.7196 344.821 53.7405 345.57 54 376.14 64.76 406.29 75.37 436.47 86 438.449 86.6825 439.5 88.8399 438.817 90.8186 438.679 91.2205 438.473 91.5962 438.21 91.93L401.76 138.41C401 139.33 399.852 139.841 398.66 139.79ZM287.31 129 397 132.14 429 91.34C400.733 81.42 372.487 71.49 344.26 61.55L317.58 69.25C297.66 74.99 277.743 80.7267 257.83 86.46Z" stroke="#040000" stroke-width="1.9" stroke-miterlimit="10" fill="#060001"/><path d="M496.42 138.79C463.853 137.863 431.303 136.93 398.77 135.99 387.763 149.95 376.807 163.893 365.9 177.82L463.57 180.58C474.523 166.693 485.473 152.763 496.42 138.79Z" stroke="#040000" stroke-width="1.9" stroke-miterlimit="10" fill="#FFFFFF" fill-rule="evenodd"/><path d="M463.46 184.38 365.79 181.62C363.692 181.563 362.038 179.816 362.094 177.718 362.116 176.905 362.399 176.121 362.9 175.48L395.79 133.64C396.528 132.694 397.671 132.156 398.87 132.19L398.87 132.19 496.53 134.99C498.628 135.047 500.283 136.794 500.226 138.892 500.204 139.705 499.921 140.489 499.42 141.13L487.42 156.39C480.473 165.25 473.517 174.1 466.55 182.94 465.807 183.884 464.66 184.418 463.46 184.38ZM373.54 174.23 461.76 176.73C468.34 168.403 474.903 160.07 481.45 151.73L488.77 142.41 400.57 139.89Z" stroke="#040000" stroke-width="1.9" stroke-miterlimit="10" fill="#060001"/><path d="M285.29 132.76C295.357 147.3 305.457 161.847 315.59 176.4L365.9 177.82C376.84 163.9 387.797 149.957 398.77 135.99L341.97 134.39C323.083 133.85 304.19 133.307 285.29 132.76Z" stroke="#040000" stroke-width="1.9" stroke-miterlimit="10" fill="#FFFFFF" fill-rule="evenodd"/><path d="M365.79 181.62 315.48 180.2C314.278 180.165 313.164 179.56 312.48 178.57 302.34 164.023 292.237 149.477 282.17 134.93 281.351 133.743 281.269 132.196 281.96 130.93 282.631 129.661 283.966 128.886 285.4 128.93L398.88 132.16C400.978 132.219 402.631 133.968 402.571 136.066 402.548 136.886 402.26 137.677 401.75 138.32L368.9 180.13C368.159 181.093 367.005 181.646 365.79 181.62ZM317.61 172.62 364.09 174 391.09 139.61 292.66 136.8C300.973 148.753 309.29 160.703 317.61 172.65Z" stroke="#040000" stroke-width="1.9" stroke-miterlimit="10" fill="#060001"/><path d="M435.21 89.52C446.143 75.56 457.073 61.5967 468 47.63 454.58 42.9633 441.157 38.2467 427.73 33.48 399.91 41.52 372.103 49.5467 344.31 57.56 374.603 68.22 404.903 78.8733 435.21 89.52Z" stroke="#040000" stroke-width="1.9" stroke-miterlimit="10" fill="#FFFFFF" fill-rule="evenodd"/><path d="M435.11 93.32C434.715 93.3086 434.324 93.2378 433.95 93.11 403.623 82.4433 373.323 71.7767 343.05 61.11 341.068 60.4191 340.022 58.2526 340.713 56.2709 341.119 55.1062 342.065 54.2111 343.25 53.87L426.71 29.78C427.475 29.5587 428.29 29.5831 429.04 29.85 442.44 34.6167 455.86 39.3333 469.3 44 471.281 44.6754 472.34 46.8289 471.664 48.8101 471.517 49.2437 471.292 49.6468 471 50L438.21 91.86C437.466 92.8101 436.316 93.3517 435.11 93.32ZM356.78 57.91C382.48 66.9567 408.187 75.9867 433.9 85L461.78 49.44C450.393 45.44 439.017 41.44 427.65 37.44Z" stroke="#040000" stroke-width="1.9" stroke-miterlimit="10" fill="#060001"/><path d="M251.63 84.27C223.87 92.31 196.11 100.31 168.35 108.27 173.35 115.45 178.35 122.63 183.35 129.81 217.31 130.803 251.31 131.777 285.35 132.73 279.73 124.66 274.07 116.54 268.5 108.48 262.93 100.42 257.2 92.36 251.63 84.27Z" stroke="#040000" stroke-width="1.9" stroke-miterlimit="10" fill="#FFFFFF" fill-rule="evenodd"/><path d="M285.18 136.56 183.18 133.64C181.978 133.605 180.864 133 180.18 132.01L165.18 110.46C163.978 108.746 164.393 106.383 166.107 105.181 166.452 104.939 166.835 104.756 167.24 104.64L250.52 80.64C252.094 80.1744 253.789 80.781 254.71 82.14L288.36 130.62C289.576 132.33 289.176 134.703 287.466 135.919 286.785 136.403 285.964 136.649 285.13 136.62ZM185.33 126.1 277.87 128.74 250.06 88.68 174.5 110.47Z" stroke="#040000" stroke-width="1.9" stroke-miterlimit="10" fill="#060001"/><path d="M183.31 129.84C193.377 144.42 203.483 158.977 213.63 173.51L315.63 176.4C305.49 161.847 295.39 147.3 285.33 132.76 251.29 131.8 217.283 130.827 183.31 129.84Z" stroke="#040000" stroke-width="1.9" stroke-miterlimit="10" fill="#FFFFFF" fill-rule="evenodd"/><path d="M315.48 180.2 213.48 177.31C212.278 177.275 211.164 176.67 210.48 175.68 200.34 161.14 190.243 146.58 180.19 132 178.974 130.29 179.374 127.917 181.084 126.701 181.765 126.217 182.586 125.971 183.42 126L183.42 126 285.42 128.92C286.621 128.961 287.732 129.565 288.42 130.55 298.487 145.09 308.587 159.637 318.72 174.19 319.936 175.9 319.536 178.273 317.826 179.489 317.145 179.973 316.324 180.219 315.49 180.19ZM215.65 169.77 308.16 172.38C299.827 160.433 291.523 148.473 283.25 136.5L190.71 133.86C199.003 145.84 207.317 157.81 215.65 169.77Z" stroke="#040000" stroke-width="1.9" stroke-miterlimit="10" fill="#060001"/><path d="M427.77 33.48C400.483 23.9133 373.227 14.3367 346 4.75 318.167 12.75 290.337 20.77 262.51 28.81 289.77 38.4033 317.037 47.9867 344.31 57.56 372.103 49.5467 399.923 41.52 427.77 33.48Z" stroke="#040000" stroke-width="1.9" stroke-miterlimit="10" fill="#FFFFFF" fill-rule="evenodd"/><path d="M344.2 61.36C343.808 61.3494 343.42 61.2786 343.05 61.15 315.783 51.5833 288.53 42 261.29 32.4 259.307 31.6972 258.269 29.5196 258.971 27.5362 259.381 26.3802 260.322 25.4921 261.5 25.15L345 1.1C345.762 0.884112 346.571 0.905038 347.32 1.16L429 29.89C430.981 30.5833 432.025 32.7512 431.331 34.732 430.924 35.8965 429.976 36.7906 428.79 37.13L345.36 61.22C344.982 61.3213 344.591 61.3684 344.2 61.36ZM275 29.17C298.12 37.31 321.253 45.4433 344.4 53.57L415.3 33.13 345.93 8.75Z" stroke="#040000" stroke-width="1.9" stroke-miterlimit="10" fill="#060001"/><path d="M221.37 40.69C193.63 48.69 165.89 56.69 138.15 64.69 148.15 79.23 158.217 93.7567 168.35 108.27 196.123 100.27 223.883 92.27 251.63 84.27 241.563 69.7833 231.477 55.2567 221.37 40.69Z" stroke="#040000" stroke-width="1.9" stroke-miterlimit="10" fill="#FFFFFF" fill-rule="evenodd"/><path d="M168.24 112.09C167.036 112.061 165.919 111.455 165.24 110.46L160.63 103.83C152.09 91.5167 143.553 79.1833 135.02 66.83 134.44 65.8612 134.405 64.6601 134.93 63.66 135.33 62.5 137.57 60.9 138.27 60.66L220.31 37C221.879 36.5405 223.565 37.1417 224.49 38.49L254.75 82.1C255.951 83.8146 255.534 86.1778 253.819 87.3785 253.473 87.6214 253.087 87.8044 252.68 87.92L169.4 112C169.021 112.094 168.629 112.125 168.24 112.09ZM144.24 66.91C151.747 77.77 159.277 88.63 166.83 99.49L169.83 103.88 245.4 82.09 219.72 45.09Z" stroke="#040000" stroke-width="1.9" stroke-miterlimit="10" fill="#060001"/><path d="M344.31 57.56C317.043 47.9867 289.79 38.4033 262.55 28.81L221.37 40.69C231.457 55.23 241.543 69.7567 251.63 84.27 282.543 75.4233 313.437 66.52 344.31 57.56Z" stroke="#040000" stroke-width="1.9" stroke-miterlimit="10" fill="#FFFFFF" fill-rule="evenodd"/><path d="M251.52 88.07C250.319 88.0286 249.208 87.4249 248.52 86.44L218.24 42.85C217.029 41.1361 217.436 38.7649 219.15 37.5536 219.502 37.3045 219.895 37.1173 220.31 37L261.5 25.15C262.259 24.9375 263.065 24.9619 263.81 25.22 291.043 34.8133 318.297 44.4067 345.57 54 347.553 54.7028 348.591 56.8804 347.889 58.8638 347.479 60.0198 346.538 60.9079 345.36 61.25L317.51 69.25C295.89 75.49 274.28 81.7133 252.68 87.92 252.303 88.0282 251.912 88.0788 251.52 88.07ZM227.52 42.86 253.2 79.86C273.953 73.9133 294.687 67.9433 315.4 61.95L331.84 57.22C308.673 49.0733 285.54 40.9333 262.44 32.8Z" stroke="#040000" stroke-width="1.9" stroke-miterlimit="10" fill="#060001"/><path d="M407.65 508C406.849 507.975 406.076 507.699 405.44 507.21L329.08 448.36C327.418 447.079 327.109 444.693 328.39 443.03 328.635 442.713 328.929 442.436 329.26 442.21L421.65 379C422.638 378.281 423.925 378.119 425.06 378.57 426.209 378.97 427.092 379.902 427.43 381.07L454.63 473.53C455.101 475.103 454.503 476.8 453.15 477.73L409.91 507.35C409.244 507.8 408.453 508.027 407.65 508ZM337.87 445.53 407.87 499.53 446.56 473 421.61 388.21Z" stroke="#040000" stroke-width="1.9" stroke-miterlimit="10" fill="#060001"/><path d="M248.11 506.1C247.307 506.085 246.531 505.807 245.9 505.31L206.56 475C205.247 474.004 204.737 472.269 205.3 470.72L239.16 375.72C239.57 374.577 240.503 373.699 241.67 373.36 242.837 372.984 244.115 373.221 245.07 373.99L333.71 442.34C335.372 443.604 335.695 445.975 334.431 447.637 334.182 447.965 333.881 448.249 333.54 448.48L250.35 505.4C249.701 505.874 248.913 506.12 248.11 506.1ZM213.38 470.65 248.38 497.65 324.97 445.23 244.6 383.23Z" stroke="#040000" stroke-width="1.9" stroke-miterlimit="10" fill="#060001"/><path d="M423.68 386C423.283 385.993 422.89 385.915 422.52 385.77 421.371 385.37 420.488 384.438 420.15 383.27L388.6 275.78C388.003 273.774 389.144 271.663 391.151 271.066 391.539 270.95 391.944 270.897 392.35 270.91L493.14 273.76C494.786 273.804 496.213 274.908 496.67 276.49L510.67 324.13C511.137 325.707 510.531 327.406 509.17 328.33L425.91 385.28C425.261 385.748 424.481 386 423.68 386ZM397.36 278.66 426 376.06 502.65 323.62 490.2 281.28Z" stroke="#040000" stroke-width="1.9" stroke-miterlimit="10" fill="#060001"/><path d="M242.63 380.83C241.832 380.805 241.062 380.529 240.43 380.04L160.71 318.6C159.397 317.604 158.887 315.869 159.45 314.32L176.15 267.43C176.697 265.877 178.184 264.854 179.83 264.9L280.43 267.75C282.522 267.809 284.171 269.553 284.112 271.645 284.1 272.046 284.026 272.443 283.89 272.82L246.31 378.3C245.91 379.449 244.978 380.332 243.81 380.67 243.428 380.787 243.029 380.841 242.63 380.83ZM167.53 314.26 240.91 370.83 275 275.2 182.39 272.58Z" stroke="#040000" stroke-width="1.9" stroke-miterlimit="10" fill="#060001"/><path d="M208.76 475.78C207.956 475.751 207.181 475.475 206.54 474.99L126.84 413.55C125.54 412.544 125.039 410.815 125.6 409.27L159.45 314.32C159.873 313.179 160.824 312.314 162 312 163.164 311.628 164.437 311.864 165.39 312.63L245.05 374C246.363 374.996 246.873 376.731 246.31 378.28L212.45 473.28C212.04 474.423 211.107 475.301 209.94 475.64 209.557 475.751 209.158 475.799 208.76 475.78ZM133.68 409.21 207 465.78 238.19 378.36 164.81 321.79Z" stroke="#040000" stroke-width="1.9" stroke-miterlimit="10" fill="#060001"/><path d="M492.93 281.36 392.14 278.51C390.492 278.467 389.061 277.363 388.6 275.78L360.21 179.25C359.613 177.244 360.754 175.133 362.76 174.536 363.149 174.42 363.554 174.367 363.96 174.38L464.78 177.23C466.426 177.274 467.853 178.378 468.31 179.96L496.67 276.49C497.262 278.504 496.109 280.615 494.095 281.207 493.717 281.318 493.324 281.37 492.93 281.36ZM395.11 271 487.92 273.62 461.8 184.75 369 182.13Z" stroke="#040000" stroke-width="1.9" stroke-miterlimit="10" fill="#060001"/><path d="M280.21 275.35 179.62 272.5C177.522 272.439 175.871 270.688 175.933 268.591 175.944 268.195 176.017 267.803 176.15 267.43L210 172.65C210.548 171.099 212.036 170.08 213.68 170.13L314.22 173C315.427 173.044 316.542 173.66 317.22 174.66 317.913 175.661 318.077 176.936 317.66 178.08L283.87 272.85C283.318 274.386 281.842 275.394 280.21 275.35ZM185.06 265.05 277.67 267.67 308.78 180.42 216.18 177.81Z" stroke="#040000" stroke-width="1.9" stroke-miterlimit="10" fill="#060001"/><path d="M392.14 278.51 280.21 275.35C279.003 275.306 277.888 274.69 277.21 273.69 276.517 272.689 276.353 271.414 276.77 270.27L310.55 175.5C311.098 173.943 312.59 172.92 314.24 172.97L364 174.38C365.648 174.418 367.079 175.525 367.53 177.11L395.92 273.64C396.512 275.654 395.359 277.766 393.345 278.357 392.967 278.468 392.574 278.52 392.18 278.51ZM285.65 267.89 387.13 270.76 361 181.9 316.78 180.65Z" stroke="#040000" stroke-width="1.9" stroke-miterlimit="10" fill="#060001"/><path d="M500.89 497.71C500.49 497.702 500.094 497.624 499.72 497.48L495.42 495.95C479.63 490.33 463.81 484.69 447.83 479.09 445.853 478.404 444.806 476.244 445.493 474.267 445.761 473.494 446.272 472.828 446.95 472.37L533.66 413.2C534.666 412.492 535.958 412.327 537.11 412.76 554.4 419.07 571.48 425.46 588.52 431.82 590.488 432.565 591.48 434.764 590.735 436.732 590.459 437.462 589.965 438.09 589.32 438.53L503.14 497.06C502.473 497.5 501.689 497.726 500.89 497.71ZM457.44 474.4C471.02 479.18 484.527 483.977 497.96 488.79L500.47 489.67 579 436.36C564.86 431.087 550.647 425.823 536.36 420.57Z" stroke="#040000" stroke-width="1.9" stroke-miterlimit="10" fill="#060001"/><path d="M368.78 586.19C282.3 381.11 88.72 381 88.72 381" stroke="#404040" stroke-width="14" stroke-linecap="round" stroke-miterlimit="10" fill="none"/><path d="M385.79 572.95 379.51 614.36 346.79 588.22 385.79 572.95Z" fill="#404040"/></g></g></svg>