<svg viewBox="0 0 451.41 474.42" xmlns="http://www.w3.org/2000/svg" xmlns:xlink="http://www.w3.org/1999/xlink" overflow="hidden"><defs></defs><g id="图层_2"><g id="图层_1-2"><g id="layer3"><g id="L1"><path d="M325.71 205.23 117.95 321.79 18.66 288.18 180.28 166.04 325.71 205.23Z" stroke="#000000" stroke-width="7.81" stroke-linecap="round" stroke-linejoin="round"/><path d="M117.95 321.79 122.07 413.04 26.01 378.02 18.66 288.18 117.95 321.79Z" stroke="#000000" stroke-width="7.81" stroke-linecap="round" stroke-linejoin="round" fill="#FF0000"/></g><g id="R2"><path d="M442.37 260.97 439.75 342.18 350.68 386.26 352.06 300.24 442.37 260.97Z" stroke="#000000" stroke-width="7.81" stroke-linecap="round" stroke-linejoin="round" fill="#00FF00"/><path d="M281.21 331.05 280.84 420.81 178.31 470.51 179.25 375.37 281.21 331.05Z" stroke="#000000" stroke-width="7.81" stroke-linecap="round" stroke-linejoin="round" fill="#00FF00"/><path d="M352.06 300.24 350.68 386.26 280.84 420.81 281.21 331.05 352.06 300.24Z" stroke="#000000" stroke-width="7.81" stroke-linecap="round" stroke-linejoin="round" fill="#00FF00"/><path d="M178.31 470.51 122.07 413.04 117.95 321.79 179.25 375.37 178.31 470.51Z" stroke="#000000" stroke-width="7.81" stroke-linecap="round" stroke-linejoin="round" fill="#F7931E"/><path d="M327.67 189.4 327.18 190.55 117.95 321.79 179.25 375.37 442.37 260.97 327.67 189.4Z" id="B" stroke="#000000" stroke-width="7.81" stroke-linecap="round" stroke-linejoin="round"/></g></g><g id="layer2"><g id="L1-2"><path d="M113.84 230.55 59.09 214.09 11.33 199.74 18.67 288.88 117.95 321.79 113.84 230.55Z" stroke="#000000" stroke-width="7.81" stroke-linecap="round" stroke-linejoin="round" fill="#FF0000"/><path d="M314.07 119.86 113.85 230.55 113.78 230.78 11.48 200.24 178.45 87.09 314.07 119.86Z" stroke="#000000" stroke-width="7.81" stroke-linecap="round" stroke-linejoin="round"/></g><g id="R2-2"><path d="M178.55 280.93 179.25 375.37 442.37 261.5 444.94 181.17 178.55 280.93Z" stroke="#000000" stroke-width="7.81" stroke-linecap="round" stroke-linejoin="round" fill="#00FF00"/><path d="M179.25 375.37 117.95 321.79 113.84 230.55 178.55 280.93 179.25 375.37Z" stroke="#000000" stroke-width="7.81" stroke-linecap="round" stroke-linejoin="round" fill="#F7931E"/><path d="M327.31 107.78 326.81 108.9 113.84 230.55 178.55 280.93 444.94 180.71 327.31 107.78Z" id="B-2" stroke="#000000" stroke-width="7.81" stroke-linecap="round" stroke-linejoin="round"/></g></g><g id="layer1"><g id="L1-3"><g id="B-3"><path d="M228.15 85.06 331.42 37.98 261.39 22.58 228.15 85.06 228.15 85.06Z" stroke="#000000" stroke-width="7.81" stroke-linecap="round" stroke-linejoin="round" fill="#1A1A1A"/><path d="M228.15 85.06 261.39 22.58 176.5 3.91 113.8 42.58 228.15 85.06 228.15 85.06Z" stroke="#000000" stroke-width="7.81" stroke-linecap="round" stroke-linejoin="round" fill="#1A1A1A"/><path d="M113.8 42.58 67.77 70.97 228.15 85.06 113.8 42.58Z" stroke="#000000" stroke-width="7.81" stroke-linecap="round" stroke-linejoin="round" fill="#1A1A1A"/><path d="M228.15 85.06 67.77 70.97 3.91 110.36 109.65 139.1 228.15 85.06 228.15 85.06Z" stroke="#000000" stroke-width="7.81" stroke-linecap="round" stroke-linejoin="round" fill="#1A1A1A"/></g><path d="M113.84 230.55 109.73 139.33 3.91 110.36 11.33 199.74 113.84 230.55Z" stroke="#000000" stroke-width="7.81" stroke-linecap="round" stroke-linejoin="round" fill="#FF0000"/></g><g id="R2-3"><g id="B-4"><path d="M447.5 101.31 354.76 131.02 354.75 131.02 228.15 85.07 377.22 62.22 447.5 101.31Z" stroke="#000000" stroke-width="7.81" stroke-linecap="round" stroke-linejoin="round" fill="#FFFFFF"/><path d="M354.75 131.02 281.91 154.35 228.15 85.07 354.75 131.02Z" stroke="#000000" stroke-width="7.81" stroke-linecap="round" stroke-linejoin="round" fill="#FFFFFF"/><path d="M281.91 154.35 176.99 187.95 110.71 138.62 228.14 85.07 228.15 85.07 281.91 154.35Z" stroke="#000000" stroke-width="7.81" stroke-linecap="round" stroke-linejoin="round" fill="#FFFFFF"/><path d="M377.22 62.22 228.15 85.07 331.42 37.98 377.22 62.22Z" stroke="#000000" stroke-width="7.81" stroke-linecap="round" stroke-linejoin="round" fill="#FFFFFF"/></g><path d="M178.55 280.93 113.84 230.55 110.71 138.62 176.99 187.95 178.55 280.93Z" stroke="#000000" stroke-width="7.81" stroke-linecap="round" stroke-linejoin="round" fill="#F7931E"/><path d="M447.49 101.31 444.94 180.64 353.41 215.14 354.76 131.01 447.49 101.31Z" stroke="#000000" stroke-width="7.81" stroke-linecap="round" stroke-linejoin="round" fill="#00FF00"/><path d="M281.91 154.35 281.57 242.21 178.55 280.93 176.99 187.94 281.91 154.35Z" stroke="#000000" stroke-width="7.81" stroke-linecap="round" stroke-linejoin="round" fill="#00FF00"/><path d="M354.76 131.01 353.41 215.14 281.57 242.21 281.91 154.35 354.76 131.01Z" stroke="#000000" stroke-width="7.81" stroke-linecap="round" stroke-linejoin="round" fill="#00FF00"/></g></g><path d="M225 148.39C111 236.603 108.367 325.863 217.1 416.17" stroke="#404040" stroke-width="8.34" stroke-linecap="round" stroke-miterlimit="284.44" fill="none"/><path d="M213.73 143.51 225 161.9 236.12 139.74Z" fill="#404040"/></g></g></svg>