<svg viewBox="0 0 571.28 607.31" xmlns="http://www.w3.org/2000/svg" xmlns:xlink="http://www.w3.org/1999/xlink" overflow="hidden"><defs></defs><g id="图层_2"><g id="图层_1-2"><g id="layer3"><g id="L2"><path d="M156.26 528.74 91.02 461.85 91.02 357.96 150.99 411.92 156.26 528.74Z" stroke="#000000" stroke-width="10" stroke-linecap="round" stroke-linejoin="round" fill="#F7931E"/><path d="M91.02 461.85 24.36 393.5 22.96 296.74 91.02 357.96 91.02 461.85Z" stroke="#000000" stroke-width="10" stroke-linecap="round" stroke-linejoin="round" fill="#F7931E"/><path d="M336.53 189.04 22.96 296.74 151.81 411.48 418.82 243.92 419.45 242.45 336.53 189.04Z" id="B" stroke="#000000" stroke-width="10" stroke-linecap="round" stroke-linejoin="round"/></g><g id="R2"><path d="M566.28 334.07 562.93 438.03 448.91 494.45 450.67 384.34 566.28 334.07Z" stroke="#000000" stroke-width="10" stroke-linecap="round" stroke-linejoin="round" fill="#0000FF"/><path d="M359.98 423.78 359.51 538.69 228.26 602.31 229.46 480.52 359.98 423.78Z" stroke="#000000" stroke-width="10" stroke-linecap="round" stroke-linejoin="round" fill="#0000FF"/><path d="M450.67 384.34 448.91 494.45 359.51 538.69 359.98 423.78 450.67 384.34Z" stroke="#000000" stroke-width="10" stroke-linecap="round" stroke-linejoin="round" fill="#0000FF"/><path d="M228.26 602.31 156.26 528.74 150.99 411.92 229.46 480.52 228.26 602.31Z" stroke="#000000" stroke-width="10" stroke-linecap="round" stroke-linejoin="round" fill="#F7931E"/><path d="M419.45 242.45 418.82 243.92 150.99 411.92 229.46 480.52 566.28 334.07 419.45 242.45Z" id="B-2" stroke="#000000" stroke-width="10" stroke-linecap="round" stroke-linejoin="round"/></g></g><g id="layer2"><g id="L1"><path d="M145.73 295.13 75.64 274.06 14.5 255.69 23.9 369.8 150.99 411.92 145.73 295.13Z" stroke="#000000" stroke-width="10" stroke-linecap="round" stroke-linejoin="round" fill="#FF0000"/><path d="M402.04 153.43 145.74 295.13 145.65 295.42 14.7 256.33 228.44 111.48 402.04 153.43Z" stroke="#000000" stroke-width="10" stroke-linecap="round" stroke-linejoin="round"/></g><g id="R1"><path d="M145.73 295.13 150.99 411.92 371.01 484.84 374.56 363.75 145.73 295.13Z" stroke="#000000" stroke-width="10" stroke-linecap="round" stroke-linejoin="round" fill="#EE0000"/><path d="M374.56 363.75 371.01 484.84 544.13 297.61 552.17 189.7 374.56 363.75Z" stroke="#000000" stroke-width="10" stroke-linecap="round" stroke-linejoin="round" fill="#00D800"/><path d="M552.17 189.71 374.56 363.75 145.65 295.42 145.74 295.13 402.04 153.43 552.17 189.71Z" stroke="#000000" stroke-width="10" stroke-linecap="round" stroke-linejoin="round"/></g></g><g id="layer1"><g id="L1-2"><g id="B-3"><path d="M292.06 108.89 424.25 48.62 334.61 28.9 292.06 108.89 292.06 108.89Z" stroke="#000000" stroke-width="10" stroke-linecap="round" stroke-linejoin="round" fill="#1A1A1A"/><path d="M292.06 108.89 334.61 28.9 225.94 5 145.68 54.51 292.06 108.89 292.06 108.89Z" stroke="#000000" stroke-width="10" stroke-linecap="round" stroke-linejoin="round" fill="#1A1A1A"/><path d="M145.68 54.51 86.75 90.85 292.06 108.89 145.68 54.51Z" stroke="#000000" stroke-width="10" stroke-linecap="round" stroke-linejoin="round" fill="#1A1A1A"/><path d="M292.06 108.89 86.75 90.85 5 141.28 140.36 178.06 292.06 108.89 292.06 108.89Z" stroke="#000000" stroke-width="10" stroke-linecap="round" stroke-linejoin="round" fill="#1A1A1A"/></g><path d="M145.73 295.13 140.47 178.36 5 141.28 14.5 255.69 145.73 295.13Z" stroke="#000000" stroke-width="10" stroke-linecap="round" stroke-linejoin="round" fill="#FF0000"/></g><g id="R1-2"><path d="M292.06 108.89 292.06 108.89 292.06 108.89 457.63 170.41 505.57 127.66 292.06 108.89Z" stroke="#000000" stroke-width="10" stroke-linecap="round" stroke-linejoin="round" fill="#1B1B1B"/><path d="M505.57 127.66 560.57 78.6 424.25 48.62 292.06 108.89 505.57 127.66Z" stroke="#000000" stroke-width="10" stroke-linecap="round" stroke-linejoin="round" fill="#1B1B1B"/><path d="M292.06 108.89 140.36 178.06 240.75 205.33 292.06 108.89 292.06 108.89Z" stroke="#000000" stroke-width="10" stroke-linecap="round" stroke-linejoin="round" fill="#1B1B1B"/><path d="M240.75 205.33 376.98 242.34 457.63 170.41 292.06 108.89 240.75 205.33Z" stroke="#000000" stroke-width="10" stroke-linecap="round" stroke-linejoin="round" fill="#1B1B1B"/><path d="M377.08 242.65 240.85 205.63 242.59 324.24 240.85 205.88 242.58 324.24 374.05 363.75 242.58 324.24 242.58 324.24 374.05 363.75 377.08 242.65Z" stroke="#000000" stroke-width="10" stroke-linecap="round" stroke-linejoin="round" fill="#EE0000"/><path d="M240.85 205.88 240.85 205.63 240.85 205.88 240.85 205.63 140.47 178.36 145.73 295.13 242.58 324.24 240.85 205.88Z" stroke="#000000" stroke-width="10" stroke-linecap="round" stroke-linejoin="round" fill="#EE0000"/><path d="M377.08 242.21 374.08 363.31 452.37 286.31 457.77 170.31ZM457.73 170.28 452.33 286.28Z" stroke="#000000" stroke-width="10" stroke-linecap="round" stroke-linejoin="round" fill="#00D800"/><path d="M552.4 189.25 560.68 79.9 505.67 128.96 501.22 237.91 552.4 189.25Z" stroke="#000000" stroke-width="10" stroke-linecap="round" stroke-linejoin="round" fill="#00D800"/><path d="M501.22 237.91 501.22 237.91 505.57 127.66 457.74 170.01 452.33 286.01 501.22 237.91" stroke="#000000" stroke-width="10" stroke-linecap="round" stroke-linejoin="round" fill="#00D800"/></g></g></g></g></svg>