<svg version="1.1" viewBox="0 0 269.22 230.73" xmlns="http://www.w3.org/2000/svg" xmlns:xlink="http://www.w3.org/1999/xlink" overflow="hidden"><defs></defs><g id="b2d660d9-ef61-43cb-a45c-22924c140fdf"><g id="a2bd3038-c58f-4fbc-88ca-cf4b892fae22"><path d=" M 163.26 155.15 L 104.44 155.14 L 86.27 99.24 L 133.84 64.67 L 181.43 99.22 L 163.26 155.15 Z" fill="#808080"/><path d=" M 163.26 155.15 L 181.43 99.22 L 133.84 64.67 L 86.27 99.24 L 104.44 155.14 L 163.26 155.15 Z" stroke="#040000" stroke-miterlimit="10" fill="none"/><path d=" M 84.37 98.61 C 84.5014 98.2078 84.757 97.8577 85.1 97.61 L 132.66 63.07 C 133.359 62.5661 134.301 62.5661 135 63.07 L 182.58 97.62 C 183.28 98.1275 183.574 99.027 183.31 99.85 L 165.14 155.77 C 164.872 156.593 164.105 157.149 163.24 157.15 L 104.44 157.15 C 103.575 157.149 102.808 156.593 102.54 155.77 L 84.37 99.84 C 84.2351 99.4411 84.2351 99.0089 84.37 98.61 Z M 133.83 67.15 L 88.61 100 L 105.89 153.16 L 161.79 153.16 L 179.06 100 Z" stroke="#040000" stroke-miterlimit="10" fill="#211613"/><path d=" M 104.37 228.14 L 120.81 205.71 L 146.98 205.71 L 163.4 228.14 L 104.37 228.14 Z" stroke="#040000" stroke-miterlimit="10" fill="#808080" fill-rule="evenodd"/><path d=" M 102.47 227.52 C 102.536 227.319 102.634 227.13 102.76 226.96 L 119.2 204.53 C 119.576 204.016 120.173 203.712 120.81 203.71 L 147 203.71 C 147.637 203.712 148.234 204.016 148.61 204.53 L 165 227 C 165.443 227.611 165.505 228.419 165.16 229.09 C 164.816 229.755 164.129 230.172 163.38 230.17 L 105 230.17 C 103.947 230.505 102.823 229.923 102.488 228.871 C 102.361 228.474 102.362 228.047 102.49 227.65 C 102.488 227.606 102.481 227.563 102.47 227.52 Z M 121.82 207.7 L 108.3 226.14 L 159.47 226.14 L 146 207.71 Z" stroke="#040000" stroke-miterlimit="10" fill="#060001"/><path d=" M 86.27 99.22 L 45.31 128.98 L 53.83 155.15 L 104.44 155.14 L 86.27 99.22 Z" stroke="#040000" stroke-miterlimit="10" fill="#1B1B1B" fill-rule="evenodd"/><path d=" M 53.83 155.15 L 70.19 205.53 L 120.8 205.52 L 104.44 155.14 L 53.83 155.15 Z" stroke="#040000" stroke-miterlimit="10" fill="#808080" fill-rule="evenodd"/><path d=" M 51.93 154.53 C 51.9963 154.332 52.0942 154.146 52.22 153.98 C 52.5934 153.462 53.1916 153.154 53.83 153.15 L 104.44 153.15 C 105.305 153.151 106.072 153.707 106.34 154.53 L 122.7 204.9 C 122.898 205.507 122.794 206.172 122.42 206.69 C 122.042 207.207 121.44 207.512 120.8 207.51 L 70.19 207.51 C 69.3285 207.505 68.567 206.949 68.3 206.13 L 51.93 155.76 C 51.8008 155.36 51.8008 154.93 51.93 154.53 Z M 102.99 157.13 L 56.58 157.13 L 71.65 203.51 L 118.06 203.51 Z" stroke="#040000" stroke-miterlimit="10" fill="#060001"/><path d=" M 45.31 128.98 L 86.27 99.22 L 69.91 48.88 L 28.97 78.64 L 45.31 128.98 Z" stroke="#040000" stroke-miterlimit="10" fill="#1B1B1B" fill-rule="evenodd"/><path d=" M 27.07 78 C 27.1988 77.5992 27.4507 77.2493 27.79 77 L 68.74 47.27 C 69.2595 46.8997 69.9244 46.7994 70.53 47 C 71.1364 47.1981 71.6119 47.6736 71.81 48.28 L 88.17 98.61 C 88.4293 99.43 88.1353 100.324 87.44 100.83 L 46.49 130.59 C 45.5971 131.24 44.3462 131.044 43.6959 130.151 C 43.5716 129.98 43.4751 129.791 43.41 129.59 L 27.07 79.26 C 26.9283 78.852 26.9283 78.408 27.07 78 Z M 68.86 52.12 L 31.31 79.41 L 46.36 125.74 L 83.93 98.46 Z" stroke="#040000" stroke-miterlimit="10" fill="#060001"/><path d=" M 133.83 64.68 L 91.01 33.55 L 69.91 48.88 L 86.27 99.22 L 133.83 64.68 Z" stroke="#040000" stroke-miterlimit="10" fill="#1B1B1B" fill-rule="evenodd"/><path d=" M 104.44 155.14 L 120.8 205.52 L 146.88 205.51 L 163.24 155.15 L 104.44 155.14 Z" stroke="#040000" stroke-miterlimit="10" fill="#1B1B1B" fill-rule="evenodd"/><path d=" M 181.41 99.23 L 197.74 48.97 L 176.59 33.61 L 133.83 64.68 L 181.41 99.23 Z" stroke="#040000" stroke-miterlimit="10" fill="#808080" fill-rule="evenodd"/><path d=" M 176.59 33.61 L 133.77 2.5 L 91.01 33.55 L 133.83 64.68 L 176.59 33.61 Z" stroke="#040000" stroke-miterlimit="10" fill="#808080" fill-rule="evenodd"/><path d=" M 146.88 205.51 L 199.72 205.52 L 216.08 155.14 L 163.24 155.15 L 146.88 205.51 Z" stroke="#040000" stroke-miterlimit="10" fill="#808080" fill-rule="evenodd"/><path d=" M 224.16 130.29 L 240.49 80.04 L 197.74 48.97 L 181.41 99.23 L 224.16 130.29 Z" stroke="#040000" stroke-miterlimit="10" fill="#1B1B1B" fill-rule="evenodd"/><path d=" M 163.24 155.15 L 216.08 155.14 L 224.16 130.29 L 181.41 99.23 L 163.24 155.15 Z" stroke="#040000" stroke-miterlimit="10" fill="#1B1B1B" fill-rule="evenodd"/><path d=" M 2.5 71 C 7.72 87.2867 12.97 103.62 18.25 120 L 45.35 128.37 C 40.0167 111.79 34.6833 95.27 29.35 78.81 C 20.33 76.1967 11.38 73.5933 2.5 71 Z" stroke="#040000" stroke-miterlimit="10" fill="#808080" fill-rule="evenodd"/><path d=" M 0.6 70.41 C 0.69306 70.1218 0.850348 69.8585 1.06 69.64 C 1.5764 69.1054 2.34664 68.9013 3.06 69.11 L 29.89 76.91 C 30.5263 77.0975 31.0282 77.5882 31.23 78.22 L 47.23 127.78 C 47.5654 128.832 46.9841 129.957 45.9317 130.293 C 45.5444 130.416 45.1287 130.419 44.74 130.3 L 17.64 121.93 C 17.0137 121.739 16.5207 121.253 16.32 120.63 L 0.59 71.64 C 0.464041 71.2391 0.46754 70.8088 0.6 70.41 Z M 27.76 80.41 L 5.54 74 L 19.82 118.43 L 42.28 125.36 Z" stroke="#040000" stroke-miterlimit="10" fill="#060001"/><path d=" M 36.7 177.48 C 42.34 169.72 48 161.94 53.7 154.06 C 50.92 145.493 48.15 136.937 45.39 128.39 L 18.25 120 C 21.3033 129.56 24.3733 139.117 27.46 148.67 C 30.5467 158.223 33.6267 167.827 36.7 177.48 Z" stroke="#040000" stroke-miterlimit="10" fill="#808080" fill-rule="evenodd"/><path d=" M 16.35 119.4 C 16.4411 119.106 16.6024 118.838 16.82 118.62 C 17.3407 118.093 18.1103 117.896 18.82 118.11 L 46 126.49 C 46.6163 126.685 47.1006 127.165 47.3 127.78 L 55.61 153.45 C 55.7916 154.052 55.6885 154.704 55.33 155.22 C 50.1433 162.44 44.96 169.603 39.78 176.71 L 38.36 178.66 C 37.705 179.549 36.4531 179.74 35.5636 179.085 C 35.2293 178.838 34.9799 178.494 34.85 178.1 L 25.61 149.31 C 22.4967 139.77 19.4067 130.21 16.34 120.63 C 16.214 120.229 16.2175 119.799 16.35 119.4 Z M 43.78 130 L 21.31 123.06 C 23.9767 131.4 26.66 139.733 29.36 148.06 L 37.36 173.06 C 42.0267 166.62 46.71 160.147 51.41 153.64 Z" stroke="#040000" stroke-miterlimit="10" fill="#060001"/><path d=" M 43.3 40.5 C 52.1 43.1667 60.9567 45.8533 69.87 48.56 L 91 33.29 C 90.8333 24.21 90.6767 15.1333 90.53 6.06 L 66.76 23.39 C 58.92 29.13 51.1 34.8333 43.3 40.5 Z" stroke="#040000" stroke-miterlimit="10" fill="#808080" fill-rule="evenodd"/><path d=" M 41.4 39.88 C 41.5261 39.4805 41.7745 39.1308 42.11 38.88 L 89.36 4.45 C 89.9619 4.01539 90.755 3.94994 91.42 4.28 C 92.0776 4.60619 92.5037 5.26641 92.53 6 L 93 33.26 C 93.0114 33.9106 92.7055 34.5262 92.18 34.91 L 71 50.18 C 70.4938 50.5442 69.8466 50.6515 69.25 50.47 C 60.35 47.8033 51.4933 45.1167 42.68 42.41 C 41.9546 42.1894 41.4164 41.5776 41.29 40.83 C 41.2493 40.5091 41.287 40.1831 41.4 39.88 Z M 88.6 9.94 L 47.7 39.76 C 54.9333 41.96 62.2 44.16 69.5 46.36 L 89 32.29 Z" stroke="#040000" stroke-miterlimit="10" fill="#060001"/><path d=" M 250.6 122.29 C 241.78 125.21 232.957 128.143 224.13 131.09 L 216 156.23 C 221.333 163.803 226.72 171.393 232.16 179 L 241.38 150.63 C 244.46 141.177 247.533 131.73 250.6 122.29 Z" stroke="#040000" stroke-miterlimit="10" fill="#808080" fill-rule="evenodd"/><path d=" M 214.06 155.61 L 222.23 130.48 C 222.426 129.876 222.897 129.401 223.5 129.2 C 232.333 126.253 241.157 123.317 249.97 120.39 C 250.676 120.171 251.445 120.36 251.97 120.88 C 252.49 121.405 252.679 122.174 252.46 122.88 L 234.02 179.58 C 233.668 180.627 232.534 181.191 231.487 180.839 C 231.09 180.705 230.745 180.45 230.5 180.11 L 214.3 157.37 C 213.95 156.853 213.861 156.202 214.06 155.61 Z M 225.71 132.67 L 218.17 155.89 L 231.49 174.6 L 247.49 125.42 C 240.223 127.807 232.963 130.223 225.71 132.67 Z" stroke="#040000" stroke-miterlimit="10" fill="#040000"/><path d=" M 267.17 71.34 C 258.337 74.26 249.507 77.1967 240.68 80.15 L 224.13 131.09 C 232.963 128.137 241.787 125.203 250.6 122.29 C 256.12 105.303 261.643 88.32 267.17 71.34 Z" stroke="#040000" stroke-miterlimit="10" fill="#808080" fill-rule="evenodd"/><path d=" M 251.23 124.18 C 251.833 123.979 252.304 123.504 252.5 122.9 L 268.72 73 C 268.732 72.5611 268.698 72.1221 268.62 71.69 C 268.615 71.6301 268.615 71.5699 268.62 71.51 C 268.457 70.9899 268.249 70.4848 268 70 C 267.971 69.9759 267.944 69.9491 267.92 69.92 C 267.784 69.7474 267.637 69.5837 267.48 69.43 C 267.477 69.4068 267.477 69.3832 267.48 69.36 C 267.195 69.3219 266.905 69.3458 266.63 69.43 C 257.777 72.35 248.943 75.2867 240.13 78.24 C 239.53 78.4388 239.059 78.9097 238.86 79.51 L 222.31 130.46 C 222.091 131.166 222.28 131.935 222.8 132.46 C 223.327 132.977 224.096 133.161 224.8 132.94 C 233.6 130.013 242.41 127.093 251.23 124.18 Z M 242.23 81.72 C 249.497 79.2933 256.757 76.88 264.01 74.48 L 249.01 120.71 C 241.75 123.11 234.493 125.52 227.24 127.94 Z" stroke="#040000" stroke-miterlimit="10" fill="#060001"/><path d=" M 43.41 128.36 C 43.5414 127.958 43.797 127.608 44.14 127.36 L 85.14 97.6 C 85.656 97.2229 86.3213 97.1151 86.93 97.31 C 87.5387 97.5101 88.0146 97.9898 88.21 98.6 L 106.38 154.51 C 106.589 155.118 106.48 155.789 106.09 156.3 C 105.714 156.814 105.117 157.118 104.48 157.12 L 53.83 157.12 C 52.9675 157.121 52.2017 156.569 51.93 155.75 L 43.41 129.6 C 43.2852 129.196 43.2852 128.764 43.41 128.36 Z M 85.22 102.46 L 47.66 129.74 L 55.28 153.15 L 101.7 153.15 Z" stroke="#040000" stroke-miterlimit="10" fill="#060001"/><path d=" M 68 48.27 C 68.1255 47.8649 68.3824 47.513 68.73 47.27 L 89.83 31.94 C 90.5286 31.4361 91.4714 31.4361 92.17 31.94 L 135 63.07 C 135.518 63.4434 135.826 64.0416 135.83 64.68 C 135.84 65.3243 135.529 65.9314 135 66.3 L 87.44 100.83 C 86.928 101.217 86.2579 101.325 85.65 101.12 C 85.0436 100.922 84.5681 100.446 84.37 99.84 L 68 49.5 C 67.8651 49.1011 67.8651 48.6689 68 48.27 Z M 91 36 L 72.25 49.65 L 87.32 96 L 130.44 64.68 Z" stroke="#040000" stroke-miterlimit="10" fill="#060001"/><path d=" M 102.54 154.52 C 102.808 153.697 103.575 153.141 104.44 153.14 L 163.24 153.14 C 164.345 153.143 165.238 154.04 165.235 155.145 C 165.235 155.35 165.203 155.554 165.14 155.75 L 148.78 206.11 C 148.508 206.929 147.742 207.481 146.88 207.48 L 120.8 207.48 C 119.939 207.475 119.177 206.919 118.91 206.1 L 102.54 155.72 C 102.421 155.329 102.421 154.911 102.54 154.52 Z M 160.54 157.15 L 107.23 157.15 L 122.3 203.54 L 145.47 203.54 Z" stroke="#040000" stroke-miterlimit="10" fill="#060001"/><path d=" M 131.93 64.06 C 132.061 63.6578 132.317 63.3077 132.66 63.06 L 175.42 32 C 176.119 31.4961 177.061 31.4961 177.76 32 L 198.91 47.36 C 199.61 47.8675 199.904 48.767 199.64 49.59 L 183.31 99.85 C 183.112 100.456 182.636 100.932 182.03 101.13 C 181.421 101.325 180.756 101.217 180.24 100.84 L 132.66 66.29 C 132.146 65.9144 131.842 65.3166 131.84 64.68 C 131.839 64.47 131.869 64.261 131.93 64.06 Z M 176.59 36.06 L 137.23 64.67 L 180.36 96 L 195.36 49.72 Z" stroke="#040000" stroke-miterlimit="10" fill="#060001"/><path d=" M 89.11 32.94 C 89.2414 32.5378 89.497 32.1877 89.84 31.94 L 132.6 0.88 C 133.299 0.376089 134.241 0.376089 134.94 0.88 L 177.76 32 C 178.278 32.3734 178.586 32.9716 178.59 33.61 C 178.606 34.2506 178.297 34.8559 177.77 35.22 L 135 66.29 C 134.299 66.7987 133.351 66.7987 132.65 66.29 L 89.84 35.16 C 89.3185 34.7887 89.0062 34.1902 89 33.55 C 89.0013 33.3419 89.0385 33.1355 89.11 32.94 Z M 133.77 5 L 94.41 33.55 L 133.83 62.21 L 173.2 33.62 Z" stroke="#040000" stroke-miterlimit="10" fill="#060001"/><path d=" M 145 204.89 L 161.36 154.54 C 161.628 153.717 162.395 153.161 163.26 153.16 L 216.1 153.16 C 217.205 153.163 218.098 154.06 218.095 155.165 C 218.095 155.37 218.063 155.574 218 155.77 L 201.63 206.14 C 201.363 206.959 200.601 207.515 199.74 207.52 L 146.88 207.52 C 146.241 207.529 145.639 207.222 145.27 206.7 C 144.893 206.176 144.793 205.502 145 204.89 Z M 164.71 157.15 L 149.65 203.52 L 198.28 203.52 L 213.36 157.14 Z" stroke="#040000" stroke-miterlimit="10" fill="#060001"/><path d=" M 179.51 98.62 L 195.84 48.35 C 196.04 47.7413 196.52 47.2654 197.13 47.07 C 197.736 46.8785 198.396 46.9861 198.91 47.36 L 241.66 78.43 C 242.352 78.9387 242.641 79.8322 242.38 80.65 L 226.06 130.91 C 225.86 131.519 225.38 131.995 224.77 132.19 C 224.164 132.382 223.504 132.274 222.99 131.9 L 180.24 100.84 C 179.545 100.334 179.251 99.44 179.51 98.62 Z M 198.79 52.2 L 183.79 98.47 L 223.14 127.06 L 238.14 80.8 Z" stroke="#040000" stroke-miterlimit="10" fill="#060001"/><path d=" M 161.34 154.54 L 179.51 98.62 C 179.71 98.0113 180.19 97.5354 180.8 97.34 C 181.404 97.1456 182.065 97.2495 182.58 97.62 L 225.33 128.68 C 226.03 129.188 226.324 130.087 226.06 130.91 L 218 155.76 C 217.732 156.583 216.965 157.139 216.1 157.14 L 163.24 157.14 C 162.135 157.137 161.242 156.24 161.245 155.135 C 161.245 154.93 161.277 154.726 161.34 154.53 Z M 182.46 102.46 L 166 153.16 L 214.64 153.16 L 221.82 131.06 Z" stroke="#040000" stroke-miterlimit="10" fill="#060001"/></g></g></svg>