<svg version="1.1" viewBox="0 0 104.31 185.2" xmlns="http://www.w3.org/2000/svg" xmlns:xlink="http://www.w3.org/1999/xlink" overflow="hidden"><defs></defs><g id="图层_2"><g id="图层_1-2"><path d=" M 102.92 145 C 103.767 145.487 104.059 146.569 103.572 147.417 C 103.571 147.418 103.571 147.419 103.57 147.42 L 102.34 149.55 C 101.853 150.397 100.771 150.689 99.9232 150.202 C 99.9221 150.201 99.9211 150.201 99.92 150.2 L 81.44 139.52 C 80.5984 139.034 80.3104 137.957 80.7968 137.116 C 80.7979 137.114 80.7989 137.112 80.8 137.11 L 82 135 C 82.4864 134.158 83.5629 133.87 84.4045 134.357 C 84.4063 134.358 84.4082 134.359 84.41 134.36 Z" fill="#0000F2"/><path d=" M 102.09 58.73 L 102.09 87.6 L 77.09 102.03 L 102.09 58.73 Z" fill="#EE0000"/><path d=" M 102.09 29.87 L 102.09 58.73 L 77.09 44.3 L 102.09 29.87 Z" fill="#404040"/><rect x="52.09" y="58.73" width="50" height="28.87" fill="#404040" transform="matrix(0.5,-0.866025,0.866025,0.5,-24.82,103.34)"/><path d=" M 102.09 29.87 L 77.09 44.3 L 77.09 15.43 L 102.09 29.87 Z" fill="#404040"/><path d=" M 102.09 155.34 L 77.09 169.77 L 77.09 140.9 L 102.09 155.34 Z" fill="#FEFE00"/><path d=" M 78.8 131.21 C 79.6416 131.696 79.9296 132.773 79.4432 133.614 C 79.4421 133.616 79.4411 133.618 79.44 133.62 L 78.21 135.76 C 77.7236 136.602 76.6471 136.89 75.8055 136.403 C 75.8037 136.402 75.8018 136.401 75.8 136.4 L 57.32 125.74 C 56.4726 125.253 56.1808 124.171 56.6682 123.323 C 56.6688 123.322 56.6694 123.321 56.67 123.32 L 57.91 121.19 C 58.3846 120.348 59.4519 120.05 60.2938 120.525 C 60.3026 120.53 60.3113 120.535 60.32 120.54 Z" fill="#0000F2"/><rect x="27.09" y="140.9" width="50" height="28.87" fill="#FEFE00"/><rect x="27.09" y="15.43" width="50" height="28.87" fill="#404040"/><path d=" M 77.09 44.3 L 52.09 87.6 L 52.09 58.73 L 77.09 44.3 Z" fill="#404040"/><path d=" M 77.09 15.43 L 27.09 15.43 L 52.09 1 L 77.09 15.43 Z" fill="#404040"/><path d=" M 77.09 44.3 L 52.09 58.73 L 27.09 44.3 L 77.09 44.3 Z" fill="#404040"/><path d=" M 77.09 102.03 L 52.09 116.47 L 52.09 87.6 L 77.09 102.03 Z" fill="#EE0000"/><path d=" M 77.09 140.9 L 27.09 140.9 L 52.09 126.47 L 77.09 140.9 Z" fill="#FEFE00"/><path d=" M 77.09 169.77 L 52.09 184.2 L 27.09 169.77 L 77.09 169.77 Z" fill="#FEFE00"/><path d=" M 52.09 87.6 L 52.09 116.47 L 27.09 102.03 L 52.09 87.6 Z" fill="#00D800"/><path d=" M 52.09 58.73 L 52.09 87.6 L 27.09 44.3 L 52.09 58.73 Z" fill="#404040"/><rect x="12.66" y="48.17" width="28.87" height="50" fill="#404040" transform="matrix(0.866025,-0.5,0.5,0.866025,-32.95,23.35)"/><path d=" M 47.51 123.21 C 47.9882 124.059 47.6993 125.135 46.86 125.63 L 28.38 136.3 C 27.5388 136.787 26.462 136.5 25.975 135.659 C 25.9733 135.656 25.9717 135.653 25.97 135.65 L 24.74 133.52 C 24.2485 132.675 24.535 131.592 25.38 131.1 C 25.38 131.1 25.38 131.1 25.38 131.1 L 43.86 120.43 C 44.7061 119.953 45.7786 120.242 46.27 121.08 Z" fill="#FFA100"/><path d=" M 27.09 140.9 L 27.09 169.77 L 2.09 155.34 L 27.09 140.9 Z" fill="#FEFE00"/><path d=" M 27.09 15.43 L 27.09 44.3 L 2.09 29.87 L 27.09 15.43 Z" fill="#404040"/><path d=" M 2.09 58.73 L 27.09 102.03 L 2.09 87.6 L 2.09 58.73 Z" fill="#00D800"/><path d=" M 27.09 44.3 L 2.09 58.73 L 2.09 29.87 L 27.09 44.3 Z" fill="#404040"/><path d=" M 23.51 137.21 C 23.9882 138.059 23.6993 139.135 22.86 139.63 L 4.38 150.3 C 3.54217 150.769 2.48328 150.48 2 149.65 L 0.74 147.52 C 0.248461 146.675 0.534977 145.592 1.37995 145.1 C 1.37997 145.1 1.37998 145.1 1.38 145.1 L 19.86 134.43 C 20.7061 133.953 21.7786 134.242 22.27 135.08 Z" fill="#FFA100"/><path d=" M 77.09 15.43 L 52.09 1 L 27.09 15.43" stroke="#000000" stroke-width="2" stroke-linejoin="round" fill="none"/><line x1="102.09" y1="29.87" x2="77.09" y2="15.43" stroke="#000000" stroke-width="2" stroke-linejoin="round" fill="none"/><line x1="27.09" y1="15.43" x2="2.09" y2="29.87" stroke="#000000" stroke-width="2" stroke-linejoin="round" fill="none"/><rect x="27.09" y="15.43" width="50" height="28.87" stroke="#000000" stroke-width="2" stroke-linejoin="round" fill="none"/><line x1="77.09" y1="44.3" x2="52.09" y2="58.73" stroke="#000000" stroke-width="2" stroke-linejoin="round" fill="none"/><path d=" M 102.09 58.73 L 102.09 29.87 L 77.09 44.3" stroke="#000000" stroke-width="2" stroke-linejoin="round" fill="none"/><line x1="52.09" y1="116.47" x2="77.09" y2="102.03" stroke="#000000" stroke-width="2" stroke-linejoin="round" fill="none"/><path d=" M 77.09 102.03 L 102.09 87.6 L 102.09 58.73" stroke="#000000" stroke-width="2" stroke-linejoin="round" fill="none"/><rect x="52.09" y="58.73" width="50" height="28.87" stroke="#000000" stroke-width="2" stroke-linejoin="round" fill="none" transform="matrix(0.5,-0.87,0.87,0.5,-24.82,103.34)"/><path d=" M 27.09 44.3 L 2.09 29.87 L 2.09 58.73" stroke="#000000" stroke-width="2" stroke-linejoin="round" fill="none"/><path d=" M 52.09 87.6 L 52.09 58.73 L 27.09 44.3" stroke="#000000" stroke-width="2" stroke-linejoin="round" fill="none"/><path d=" M 2.09 58.73 L 2.09 87.6 L 27.09 102.03" stroke="#000000" stroke-width="2" stroke-linejoin="round" fill="none"/><path d=" M 27.09 102.03 L 52.09 116.47 L 52.09 87.6" stroke="#000000" stroke-width="2" stroke-linejoin="round" fill="none"/><rect x="12.66" y="48.17" width="28.87" height="50" stroke="#000000" stroke-width="2" stroke-linejoin="round" fill="none" transform="matrix(0.866025,-0.5,0.5,0.866025,-32.95,23.35)"/><path d=" M 27.09 140.9 L 2.09 155.34 L 27.09 169.77" stroke="#000000" stroke-width="2" stroke-linejoin="round" fill="none"/><path d=" M 27.09 169.77 L 52.09 184.2 L 77.09 169.77" stroke="#000000" stroke-width="2" stroke-linejoin="round" fill="none"/><path d=" M 77.09 140.9 L 52.09 126.47 L 27.09 140.9" stroke="#000000" stroke-width="2" stroke-linejoin="round" fill="none"/><path d=" M 77.09 169.77 L 102.09 155.34 L 77.09 140.9" stroke="#000000" stroke-width="2" stroke-linejoin="round" fill="none"/><rect x="27.09" y="140.9" width="50" height="28.87" stroke="#000000" stroke-width="2" stroke-linejoin="round" fill="none"/><path d=" M 22.86 139.63 L 4.38 150.3 C 3.54217 150.769 2.48328 150.48 2 149.65 L 0.74 147.52 C 0.248461 146.675 0.534977 145.592 1.37995 145.1 C 1.37997 145.1 1.37998 145.1 1.38 145.1 L 19.86 134.43 C 20.7061 133.953 21.7786 134.242 22.27 135.08 L 23.51 137.21 C 23.9882 138.059 23.6993 139.135 22.86 139.63 Z" stroke="#000000" stroke-linejoin="round" fill="none"/><path d=" M 46.86 125.63 L 28.38 136.3 C 27.5388 136.787 26.462 136.5 25.975 135.659 C 25.9733 135.656 25.9717 135.653 25.97 135.65 L 24.74 133.52 C 24.2485 132.675 24.535 131.592 25.38 131.1 C 25.38 131.1 25.38 131.1 25.38 131.1 L 43.86 120.43 C 44.7061 119.953 45.7786 120.242 46.27 121.08 L 47.51 123.21 C 47.9882 124.059 47.6993 125.135 46.86 125.63 Z" stroke="#000000" stroke-linejoin="round" fill="none"/><path d=" M 84.44 134.33 L 102.92 145 C 103.767 145.487 104.059 146.569 103.572 147.417 C 103.571 147.418 103.571 147.419 103.57 147.42 L 102.34 149.55 C 101.853 150.397 100.771 150.689 99.9232 150.202 C 99.9221 150.201 99.9211 150.201 99.92 150.2 L 81.44 139.52 C 80.5984 139.034 80.3104 137.957 80.7968 137.116 C 80.7979 137.114 80.7989 137.112 80.8 137.11 L 82 135 C 82.4666 134.147 83.5361 133.834 84.3888 134.301 C 84.406 134.31 84.4231 134.32 84.44 134.33 Z" stroke="#000000" stroke-linejoin="round" fill="none"/><path d=" M 60.32 120.54 L 78.8 131.21 C 79.6416 131.696 79.9296 132.773 79.4432 133.614 C 79.4421 133.616 79.4411 133.618 79.44 133.62 L 78.21 135.76 C 77.7236 136.602 76.6471 136.89 75.8055 136.403 C 75.8037 136.402 75.8018 136.401 75.8 136.4 L 57.32 125.74 C 56.4726 125.253 56.1808 124.171 56.6682 123.323 C 56.6688 123.322 56.6694 123.321 56.67 123.32 L 57.91 121.19 C 58.3846 120.348 59.4519 120.05 60.2938 120.525 C 60.3026 120.53 60.3113 120.535 60.32 120.54 Z" stroke="#000000" stroke-linejoin="round" fill="none"/></g></g></svg>