<svg version="1.1" width="200" height="200" viewBox="-0.9 -0.9 1.8 1.8" xmlns="http://www.w3.org/2000/svg" xmlns:xlink="http://www.w3.org/1999/xlink" overflow="hidden"><rect x="-0.9" y="-0.9" width="1.8" height="1.8" fill="#FFFFFF"/><g stroke-width="0.1" stroke-linejoin="round" opacity="1"><path d=" M 0.366183 0.66437 L 0.388331 -0.356386 L 0.552206 -0.518027 L 0.526082 0.336296 Z" stroke="#808080" fill="#808080"/><path d=" M 0.388331 -0.356386 L -0.635482 -0.406229 L -0.304224 -0.551958 L 0.552206 -0.518027 Z" stroke="#808080" fill="#808080"/><path d=" M -0.635482 -0.406229 L 0.388331 -0.356386 L 0.366183 0.66437 L -0.60113 0.563922 Z" stroke="#808080" fill="#808080"/></g><g stroke-width="0" stroke-linejoin="round" stroke-opacity="0.5" opacity="1"><path d=" M 0.391941 0.691619 L 0.394661 0.566257 L 0.418968 0.519831 L 0.416133 0.641983 Z" stroke="#808080" fill="#FEFE00"/><path d=" M 0.395155 0.544245 L 0.39792 0.416807 L 0.422342 0.373701 L 0.419462 0.497818 Z" stroke="#808080" fill="#FEFE00"/><path d=" M 0.398422 0.394433 L 0.401234 0.264866 L 0.425772 0.225199 L 0.422844 0.351328 Z" stroke="#808080" fill="#FEFE00"/><path d=" M 0.401744 0.242123 L 0.404603 0.110374 L 0.429257 0.0742641 L 0.426282 0.202455 Z" stroke="#808080" fill="#FEFE00"/><path d=" M 0.405122 0.0872513 L 0.408029 -0.0467361 L 0.4328 -0.0791625 L 0.429776 0.0511417 Z" stroke="#808080" fill="#FEFE00"/><path d=" M 0.408557 -0.070247 L 0.411514 -0.20653 L 0.436403 -0.235143 L 0.433328 -0.102673 Z" stroke="#808080" fill="#FEFE00"/><path d=" M 0.412051 -0.230439 L 0.415059 -0.369078 L 0.440065 -0.393743 L 0.436939 -0.259053 Z" stroke="#808080" fill="#FEFE00"/><path d=" M 0.420292 0.633736 L 0.423127 0.511584 L 0.446075 0.467753 L 0.443142 0.586854 Z" stroke="#808080" fill="#FEFE00"/><path d=" M 0.42364 0.490133 L 0.42652 0.366016 L 0.449566 0.32534 L 0.446588 0.446302 Z" stroke="#808080" fill="#FEFE00"/><path d=" M 0.427042 0.344223 L 0.429969 0.218094 L 0.453113 0.180679 L 0.450087 0.303547 Z" stroke="#808080" fill="#FEFE00"/><path d=" M 0.430498 0.195951 L 0.433473 0.0677602 L 0.456716 0.0337178 L 0.453643 0.158537 Z" stroke="#808080" fill="#FEFE00"/><path d=" M 0.434011 0.0452595 L 0.437035 -0.0850447 L 0.460377 -0.1156 L 0.457254 0.0112171 Z" stroke="#808080" fill="#FEFE00"/><path d=" M 0.437582 -0.107912 L 0.440657 -0.240382 L 0.464097 -0.267331 L 0.460924 -0.138468 Z" stroke="#808080" fill="#FEFE00"/><path d=" M 0.441212 -0.263626 L 0.444338 -0.398316 L 0.467878 -0.421535 L 0.464653 -0.290575 Z" stroke="#808080" fill="#FEFE00"/><path d=" M 0.447073 0.57906 L 0.450005 0.45996 L 0.471705 0.418513 L 0.468689 0.534709 Z" stroke="#808080" fill="#FEFE00"/><path d=" M 0.450534 0.439042 L 0.453513 0.31808 L 0.475296 0.279634 L 0.472234 0.397596 Z" stroke="#808080" fill="#FEFE00"/><path d=" M 0.45405 0.296839 L 0.457076 0.173971 L 0.478942 0.138623 L 0.475833 0.258392 Z" stroke="#808080" fill="#FEFE00"/><path d=" M 0.457621 0.152399 L 0.460695 0.0275799 L 0.482644 -0.00456793 L 0.479487 0.117051 Z" stroke="#808080" fill="#FEFE00"/><path d=" M 0.461249 0.00566846 L 0.464372 -0.121149 L 0.486405 -0.14999 L 0.483198 -0.0264794 Z" stroke="#808080" fill="#FEFE00"/><path d=" M 0.464935 -0.143407 L 0.468108 -0.272271 L 0.490224 -0.297696 L 0.486967 -0.172249 Z" stroke="#808080" fill="#FEFE00"/><path d=" M 0.46868 -0.294885 L 0.471905 -0.425845 L 0.494103 -0.447741 L 0.490796 -0.32031 Z" stroke="#808080" fill="#FEFE00"/><path d=" M 0.472409 0.527332 L 0.475426 0.411136 L 0.495976 0.371885 L 0.492889 0.485313 Z" stroke="#808080" fill="#FEFE00"/><path d=" M 0.475968 0.390727 L 0.47903 0.272765 L 0.499651 0.236369 L 0.496518 0.351476 Z" stroke="#808080" fill="#FEFE00"/><path d=" M 0.479581 0.252049 L 0.48269 0.132279 L 0.503381 0.0988307 L 0.500202 0.215653 Z" stroke="#808080" fill="#FEFE00"/><path d=" M 0.483249 0.111249 L 0.486406 -0.0103699 L 0.507167 -0.040777 L 0.50394 0.0778001 Z" stroke="#808080" fill="#FEFE00"/><path d=" M 0.486973 -0.031722 L 0.490179 -0.155233 L 0.51101 -0.182501 L 0.507734 -0.0621291 Z" stroke="#808080" fill="#FEFE00"/><path d=" M 0.490756 -0.176914 L 0.494012 -0.302361 L 0.514912 -0.326389 L 0.511586 -0.204182 Z" stroke="#808080" fill="#FEFE00"/><path d=" M 0.494597 -0.324379 L 0.497905 -0.451809 L 0.518874 -0.472492 L 0.515497 -0.348407 Z" stroke="#808080" fill="#FEFE00"/><path d=" M 0.496416 0.47832 L 0.499503 0.364892 L 0.518993 0.327666 L 0.515847 0.438453 Z" stroke="#808080" fill="#FEFE00"/><path d=" M 0.500057 0.344968 L 0.503189 0.229861 L 0.522738 0.195357 L 0.519547 0.307741 Z" stroke="#808080" fill="#FEFE00"/><path d=" M 0.503751 0.209645 L 0.50693 0.0928224 L 0.526538 0.0611245 L 0.5233 0.17514 Z" stroke="#808080" fill="#FEFE00"/><path d=" M 0.507501 0.0723072 L 0.510727 -0.0462699 L 0.530394 -0.075074 L 0.527109 0.0406093 Z" stroke="#808080" fill="#FEFE00"/><path d=" M 0.511306 -0.0670903 L 0.514582 -0.187462 L 0.534306 -0.213282 L 0.530973 -0.0958944 Z" stroke="#808080" fill="#FEFE00"/><path d=" M 0.51517 -0.208594 L 0.518495 -0.330802 L 0.538277 -0.353544 L 0.534894 -0.234414 Z" stroke="#808080" fill="#FEFE00"/><path d=" M 0.519092 -0.352253 L 0.522468 -0.476339 L 0.542307 -0.495907 L 0.538873 -0.374996 Z" stroke="#808080" fill="#FEFE00"/><path d=" M 0.519195 0.431816 L 0.522341 0.321028 L 0.540851 0.285674 L 0.537655 0.39394 Z" stroke="#808080" fill="#FEFE00"/><path d=" M 0.522904 0.301566 L 0.526096 0.189182 L 0.544655 0.156425 L 0.541414 0.266211 Z" stroke="#808080" fill="#FEFE00"/><path d=" M 0.526667 0.169442 L 0.529905 0.0554257 L 0.548513 0.0253444 L 0.545227 0.136684 Z" stroke="#808080" fill="#FEFE00"/><path d=" M 0.530485 0.0354014 L 0.53377 -0.0802818 L 0.552426 -0.107606 L 0.549093 0.00532011 Z" stroke="#808080" fill="#FEFE00"/><path d=" M 0.534358 -0.100596 L 0.537692 -0.217984 L 0.556396 -0.242468 L 0.553014 -0.127921 Z" stroke="#808080" fill="#FEFE00"/><path d=" M 0.538289 -0.238595 L 0.541672 -0.357724 L 0.560423 -0.379282 L 0.556992 -0.263079 Z" stroke="#808080" fill="#FEFE00"/><path d=" M 0.542277 -0.378638 L 0.545711 -0.499549 L 0.564508 -0.51809 L 0.561028 -0.400196 Z" stroke="#808080" fill="#FEFE00"/><path d=" M 0.540837 0.387631 L 0.544033 0.279365 L 0.561635 0.245745 L 0.558398 0.3516 Z" stroke="#808080" fill="#FEFE00"/><path d=" M 0.544604 0.260344 L 0.547845 0.150558 L 0.565487 0.119419 L 0.562206 0.226724 Z" stroke="#808080" fill="#FEFE00"/><path d=" M 0.548424 0.131272 L 0.551711 0.0199319 L 0.569393 -0.00865336 L 0.566067 0.100133 Z" stroke="#808080" fill="#FEFE00"/><path d=" M 0.552298 0.000375633 L 0.555632 -0.112551 L 0.573354 -0.138507 L 0.569981 -0.0282096 Z" stroke="#808080" fill="#FEFE00"/><path d=" M 0.556228 -0.132383 L 0.559609 -0.24693 L 0.57737 -0.27018 L 0.57395 -0.158339 Z" stroke="#808080" fill="#FEFE00"/><path d=" M 0.560213 -0.267045 L 0.563643 -0.383248 L 0.581442 -0.40371 L 0.577974 -0.290294 Z" stroke="#808080" fill="#FEFE00"/><path d=" M 0.564256 -0.40365 L 0.567736 -0.521545 L 0.585572 -0.539137 L 0.582055 -0.424112 Z" stroke="#808080" fill="#FEFE00"/><path d=" M 0.403425 -0.381871 L 0.264601 -0.38863 L 0.293566 -0.412894 L 0.428431 -0.406537 Z" stroke="#808080" fill="#FEFE00"/><path d=" M 0.240642 -0.389778 L 0.104097 -0.396426 L 0.136891 -0.420299 L 0.269607 -0.414043 Z" stroke="#808080" fill="#FEFE00"/><path d=" M 0.080524 -0.397556 L -0.0537967 -0.404095 L -0.0173011 -0.427587 L 0.113318 -0.421429 Z" stroke="#808080" fill="#FEFE00"/><path d=" M -0.076993 -0.405207 L -0.209144 -0.41164 L -0.169068 -0.43476 L -0.0404974 -0.428699 Z" stroke="#808080" fill="#FEFE00"/><path d=" M -0.231972 -0.412734 L -0.362006 -0.419065 L -0.318466 -0.441821 L -0.191896 -0.435854 Z" stroke="#808080" fill="#FEFE00"/><path d=" M -0.384475 -0.420142 L -0.512441 -0.426372 L -0.465551 -0.448773 L -0.340935 -0.442898 Z" stroke="#808080" fill="#FEFE00"/><path d=" M -0.53456 -0.427432 L -0.660508 -0.433564 L -0.610376 -0.455618 L -0.48767 -0.449833 Z" stroke="#808080" fill="#FEFE00"/><path d=" M 0.433044 -0.410729 L 0.29818 -0.417087 L 0.325459 -0.43994 L 0.456584 -0.433948 Z" stroke="#808080" fill="#FEFE00"/><path d=" M 0.274889 -0.418169 L 0.142173 -0.424425 L 0.173073 -0.446921 L 0.302169 -0.441021 Z" stroke="#808080" fill="#FEFE00"/><path d=" M 0.119247 -0.42549 L -0.0113719 -0.431648 L 0.0230328 -0.453794 L 0.150147 -0.447985 Z" stroke="#808080" fill="#FEFE00"/><path d=" M -0.0339421 -0.432696 L -0.162513 -0.438757 L -0.124715 -0.460562 L 0.000462588 -0.454842 Z" stroke="#808080" fill="#FEFE00"/><path d=" M -0.184735 -0.439789 L -0.311305 -0.445756 L -0.270222 -0.467228 L -0.146937 -0.461594 Z" stroke="#808080" fill="#FEFE00"/><path d=" M -0.333188 -0.446772 L -0.457804 -0.452647 L -0.41354 -0.473793 L -0.292105 -0.468244 Z" stroke="#808080" fill="#FEFE00"/><path d=" M -0.479355 -0.453647 L -0.602062 -0.459432 L -0.554717 -0.48026 L -0.43509 -0.474794 Z" stroke="#808080" fill="#FEFE00"/><path d=" M 0.460932 -0.437899 L 0.329807 -0.443891 L 0.355545 -0.465452 L 0.48313 -0.459795 Z" stroke="#808080" fill="#FEFE00"/><path d=" M 0.307149 -0.444911 L 0.178054 -0.450811 L 0.20722 -0.472044 L 0.332887 -0.466472 Z" stroke="#808080" fill="#FEFE00"/><path d=" M 0.15574 -0.451815 L 0.0286259 -0.457624 L 0.0611143 -0.478537 L 0.184906 -0.473048 Z" stroke="#808080" fill="#FEFE00"/><path d=" M 0.006649 -0.458614 L -0.118528 -0.464334 L -0.0828204 -0.484934 L 0.0391374 -0.479526 Z" stroke="#808080" fill="#FEFE00"/><path d=" M -0.140176 -0.465309 L -0.263461 -0.470942 L -0.224633 -0.491236 L -0.104468 -0.485908 Z" stroke="#808080" fill="#FEFE00"/><path d=" M -0.284787 -0.471903 L -0.406222 -0.477452 L -0.364369 -0.497446 L -0.245959 -0.492196 Z" stroke="#808080" fill="#FEFE00"/><path d=" M -0.427233 -0.478398 L -0.546859 -0.483865 L -0.502075 -0.503566 L -0.385381 -0.498392 Z" stroke="#808080" fill="#FEFE00"/><path d=" M 0.487235 -0.463525 L 0.35965 -0.469181 L 0.383972 -0.489557 L 0.508204 -0.484208 Z" stroke="#808080" fill="#FEFE00"/><path d=" M 0.337591 -0.470146 L 0.211924 -0.475717 L 0.239498 -0.495791 L 0.361913 -0.490521 Z" stroke="#808080" fill="#FEFE00"/><path d=" M 0.190191 -0.476667 L 0.0663991 -0.482156 L 0.097127 -0.501935 L 0.217765 -0.496741 Z" stroke="#808080" fill="#FEFE00"/><path d=" M 0.0449852 -0.483092 L -0.0769726 -0.488499 L -0.0431856 -0.50799 L 0.0757132 -0.502871 Z" stroke="#808080" fill="#FEFE00"/><path d=" M -0.0980745 -0.489421 L -0.218239 -0.494749 L -0.181485 -0.513959 L -0.0642875 -0.508913 Z" stroke="#808080" fill="#FEFE00"/><path d=" M -0.239036 -0.495658 L -0.357446 -0.500908 L -0.317813 -0.519842 L -0.202281 -0.514867 Z" stroke="#808080" fill="#FEFE00"/><path d=" M -0.377944 -0.501804 L -0.494639 -0.506977 L -0.452213 -0.525642 L -0.338311 -0.520738 Z" stroke="#808080" fill="#FEFE00"/><path d=" M 0.512085 -0.487734 L 0.387853 -0.493083 L 0.410874 -0.512368 L 0.531924 -0.507302 Z" stroke="#808080" fill="#FEFE00"/><path d=" M 0.366363 -0.493996 L 0.243947 -0.499266 L 0.270056 -0.518274 L 0.389383 -0.51328 Z" stroke="#808080" fill="#FEFE00"/><path d=" M 0.222766 -0.500166 L 0.102128 -0.50536 L 0.131235 -0.524096 L 0.248875 -0.519173 Z" stroke="#808080" fill="#FEFE00"/><path d=" M 0.0812495 -0.506246 L -0.0376493 -0.511365 L -0.00563237 -0.529836 L 0.110356 -0.524982 Z" stroke="#808080" fill="#FEFE00"/><path d=" M -0.058232 -0.512239 L -0.175429 -0.517285 L -0.140587 -0.535496 L -0.0262151 -0.53071 Z" stroke="#808080" fill="#FEFE00"/><path d=" M -0.195722 -0.518147 L -0.311254 -0.523121 L -0.273668 -0.541077 L -0.16088 -0.536357 Z" stroke="#808080" fill="#FEFE00"/><path d=" M -0.331263 -0.523971 L -0.445164 -0.528875 L -0.404915 -0.546581 L -0.293677 -0.541926 Z" stroke="#808080" fill="#FEFE00"/><path d=" M 0.5356 -0.510642 L 0.414549 -0.515707 L 0.43637 -0.533987 L 0.554397 -0.529183 Z" stroke="#808080" fill="#FEFE00"/><path d=" M 0.393599 -0.516572 L 0.274272 -0.521565 L 0.299029 -0.539589 L 0.415419 -0.534852 Z" stroke="#808080" fill="#FEFE00"/><path d=" M 0.253615 -0.522418 L 0.135975 -0.527341 L 0.163585 -0.545114 L 0.278372 -0.540442 Z" stroke="#808080" fill="#FEFE00"/><path d=" M 0.115605 -0.528182 L -0.000383334 -0.533035 L 0.0299991 -0.550563 L 0.143216 -0.545955 Z" stroke="#808080" fill="#FEFE00"/><path d=" M -0.0204716 -0.533865 L -0.134843 -0.538651 L -0.101768 -0.555938 L 0.0099108 -0.551392 Z" stroke="#808080" fill="#FEFE00"/><path d=" M -0.154656 -0.539469 L -0.267444 -0.544188 L -0.231752 -0.56124 L -0.12158 -0.556756 Z" stroke="#808080" fill="#FEFE00"/><path d=" M -0.286987 -0.544995 L -0.398225 -0.54965 L -0.359989 -0.566471 L -0.251294 -0.562047 Z" stroke="#808080" fill="#FEFE00"/><path d=" M 0.557883 -0.53235 L 0.439856 -0.537154 L 0.460568 -0.554505 L 0.575719 -0.549942 Z" stroke="#808080" fill="#FEFE00"/><path d=" M 0.419419 -0.537975 L 0.303029 -0.542712 L 0.326537 -0.559826 L 0.440131 -0.555326 Z" stroke="#808080" fill="#FEFE00"/><path d=" M 0.282871 -0.543522 L 0.168084 -0.548194 L 0.194311 -0.565076 L 0.306379 -0.560636 Z" stroke="#808080" fill="#FEFE00"/><path d=" M 0.148199 -0.548992 L 0.0349826 -0.553601 L 0.0638526 -0.570256 L 0.174426 -0.565875 Z" stroke="#808080" fill="#FEFE00"/><path d=" M 0.0153657 -0.554389 L -0.0963128 -0.558934 L -0.0648728 -0.575366 L 0.0442357 -0.571043 Z" stroke="#808080" fill="#FEFE00"/><path d=" M -0.115667 -0.559712 L -0.225839 -0.564196 L -0.191899 -0.58041 L -0.0842273 -0.576144 Z" stroke="#808080" fill="#FEFE00"/><path d=" M -0.244936 -0.564963 L -0.353631 -0.569387 L -0.317261 -0.585387 L -0.210997 -0.581177 Z" stroke="#808080" fill="#FEFE00"/><path d=" M -0.664608 -0.419935 L -0.53866 -0.413804 L -0.534998 -0.281405 L -0.659955 -0.288523 Z" stroke="#808080" fill="#FEFE00"/><path d=" M -0.516346 -0.412625 L -0.38838 -0.406395 L -0.385741 -0.272996 L -0.512684 -0.280226 Z" stroke="#808080" fill="#000000"/><path d=" M -0.365708 -0.405197 L -0.235675 -0.398866 L -0.234093 -0.264451 L -0.36307 -0.271798 Z" stroke="#808080" fill="#FEFE00"/><path d=" M -0.212637 -0.397649 L -0.080486 -0.391215 L -0.0799967 -0.255769 L -0.211056 -0.263234 Z" stroke="#808080" fill="#FEFE00"/><path d=" M -0.0570733 -0.389978 L 0.0772475 -0.383439 L 0.0766089 -0.246945 L -0.056584 -0.254532 Z" stroke="#808080" fill="#FEFE00"/><path d=" M 0.101045 -0.382182 L 0.237589 -0.375534 L 0.235785 -0.237976 L 0.100406 -0.245688 Z" stroke="#808080" fill="#000000"/><path d=" M 0.26178 -0.374256 L 0.400604 -0.367498 L 0.397595 -0.228859 L 0.259976 -0.236698 Z" stroke="#808080" fill="#FEFE00"/><path d=" M -0.659227 -0.265435 L -0.53427 -0.258317 L -0.530667 -0.128062 L -0.654648 -0.136133 Z" stroke="#808080" fill="#000000"/><path d=" M -0.512132 -0.256966 L -0.385189 -0.249735 L -0.382594 -0.118513 L -0.508529 -0.126711 Z" stroke="#808080" fill="#000000"/><path d=" M -0.3627 -0.248362 L -0.233723 -0.241016 L -0.232168 -0.108811 L -0.360104 -0.11714 Z" stroke="#808080" fill="#000000"/><path d=" M -0.210874 -0.239621 L -0.0798147 -0.232156 L -0.0793335 -0.0989546 L -0.209319 -0.107416 Z" stroke="#808080" fill="#FEFE00"/><path d=" M -0.0565962 -0.230738 L 0.0765966 -0.223152 L 0.0759687 -0.0889388 L -0.056115 -0.0975372 Z" stroke="#808080" fill="#000000"/><path d=" M 0.100193 -0.221711 L 0.235572 -0.214 L 0.233798 -0.0787599 L 0.0995651 -0.0874983 Z" stroke="#808080" fill="#000000"/><path d=" M 0.259556 -0.212536 L 0.397175 -0.204697 L 0.394218 -0.068414 L 0.257782 -0.0772958 Z" stroke="#808080" fill="#000000"/><path d=" M -0.653931 -0.113416 L -0.52995 -0.105345 L -0.526405 0.0228178 L -0.649426 0.0138246 Z" stroke="#808080" fill="#FEFE00"/><path d=" M -0.507986 -0.103827 L -0.382051 -0.0956286 L -0.379497 0.0334697 L -0.504441 0.0243359 Z" stroke="#808080" fill="#FEFE00"/><path d=" M -0.35974 -0.0940866 L -0.231804 -0.0857581 L -0.230274 0.0442894 L -0.357187 0.0350117 Z" stroke="#808080" fill="#FEFE00"/><path d=" M -0.20914 -0.0841916 L -0.0791545 -0.0757298 L -0.0786812 0.055281 L -0.20761 0.0458559 Z" stroke="#808080" fill="#FEFE00"/><path d=" M -0.056127 -0.0741382 L 0.0759566 -0.0655397 L 0.0753391 0.0664485 L -0.0556537 0.0568725 Z" stroke="#808080" fill="#FEFE00"/><path d=" M 0.0993558 -0.0639224 L 0.233589 -0.055184 L 0.231845 0.0777963 L 0.0987383 0.0680658 Z" stroke="#808080" fill="#FEFE00"/><path d=" M 0.257369 -0.0535404 L 0.393805 -0.0446586 L 0.390898 0.0893288 L 0.255625 0.0794399 Z" stroke="#808080" fill="#FEFE00"/><path d=" M -0.648721 0.03618 L -0.5257 0.0451732 L -0.522212 0.171294 L -0.644286 0.161409 Z" stroke="#808080" fill="#FEFE00"/><path d=" M -0.503907 0.0468525 L -0.378963 0.0559863 L -0.376451 0.183012 L -0.500419 0.172973 Z" stroke="#808080" fill="#FEFE00"/><path d=" M -0.356829 0.0576918 L -0.229916 0.0669695 L -0.228411 0.194913 L -0.354317 0.184717 Z" stroke="#808080" fill="#000000"/><path d=" M -0.207434 0.0687019 L -0.0785051 0.078127 L -0.0780395 0.207001 L -0.205929 0.196645 Z" stroke="#808080" fill="#000000"/><path d=" M -0.0556655 0.0798869 L 0.0753273 0.0894629 L 0.0747199 0.219281 L -0.0551999 0.208761 Z" stroke="#808080" fill="#000000"/><path d=" M 0.0985324 0.0912509 L 0.231639 0.100981 L 0.229924 0.231758 L 0.0979251 0.221069 Z" stroke="#808080" fill="#FEFE00"/><path d=" M 0.255219 0.102798 L 0.390492 0.112687 L 0.387633 0.244437 L 0.253504 0.233575 Z" stroke="#808080" fill="#FEFE00"/><path d=" M -0.643592 0.183411 L -0.521518 0.193296 L -0.518084 0.317423 L -0.639228 0.306675 Z" stroke="#808080" fill="#000000"/><path d=" M -0.499893 0.195131 L -0.375925 0.20517 L -0.373452 0.330172 L -0.496459 0.319258 Z" stroke="#808080" fill="#FEFE00"/><path d=" M -0.353964 0.207033 L -0.228059 0.217229 L -0.226578 0.343118 L -0.351492 0.332035 Z" stroke="#808080" fill="#FEFE00"/><path d=" M -0.205755 0.219121 L -0.0778663 0.229477 L -0.0774082 0.356267 L -0.204274 0.345011 Z" stroke="#808080" fill="#000000"/><path d=" M -0.0552116 0.2314 L 0.0747082 0.24192 L 0.0741107 0.369622 L -0.0547535 0.358189 Z" stroke="#808080" fill="#FEFE00"/><path d=" M 0.0977226 0.243874 L 0.229722 0.254562 L 0.228035 0.38319 L 0.0971251 0.371575 Z" stroke="#808080" fill="#FEFE00"/><path d=" M 0.253105 0.256547 L 0.387234 0.267408 L 0.384422 0.396975 L 0.251418 0.385174 Z" stroke="#808080" fill="#000000"/><path d=" M -0.638544 0.328332 L -0.517401 0.33908 L -0.514022 0.461261 L -0.634247 0.449678 Z" stroke="#808080" fill="#000000"/><path d=" M -0.495942 0.341066 L -0.372935 0.351979 L -0.370502 0.475006 L -0.492562 0.463247 Z" stroke="#808080" fill="#000000"/><path d=" M -0.351145 0.353996 L -0.226231 0.365079 L -0.224774 0.488963 L -0.348712 0.477023 Z" stroke="#808080" fill="#FEFE00"/><path d=" M -0.204104 0.367126 L -0.0772378 0.378382 L -0.0767871 0.503137 L -0.202647 0.491011 Z" stroke="#808080" fill="#FEFE00"/><path d=" M -0.054765 0.380462 L 0.0740993 0.391895 L 0.0735115 0.517532 L -0.0543143 0.505217 Z" stroke="#808080" fill="#FEFE00"/><path d=" M 0.096926 0.394008 L 0.227836 0.405622 L 0.226176 0.532153 L 0.0963382 0.519644 Z" stroke="#808080" fill="#000000"/><path d=" M 0.251025 0.407768 L 0.384029 0.419569 L 0.381264 0.547007 L 0.249365 0.534299 Z" stroke="#808080" fill="#000000"/><path d=" M -0.633575 0.470998 L -0.513349 0.48258 L -0.510022 0.60286 L -0.629344 0.590469 Z" stroke="#808080" fill="#FEFE00"/><path d=" M -0.492053 0.484712 L -0.369992 0.496472 L -0.367597 0.61757 L -0.488726 0.604992 Z" stroke="#808080" fill="#000000"/><path d=" M -0.348371 0.498636 L -0.224433 0.510577 L -0.222998 0.632504 L -0.345976 0.619734 Z" stroke="#808080" fill="#000000"/><path d=" M -0.202479 0.512775 L -0.0766194 0.5249 L -0.0761758 0.647669 L -0.201045 0.634702 Z" stroke="#808080" fill="#000000"/><path d=" M -0.0543255 0.527132 L 0.0735002 0.539447 L 0.0729218 0.663068 L -0.053882 0.649901 Z" stroke="#808080" fill="#000000"/><path d=" M 0.0961422 0.541714 L 0.225981 0.554223 L 0.224348 0.678708 L 0.0955638 0.665335 Z" stroke="#808080" fill="#000000"/><path d=" M 0.248979 0.556525 L 0.380878 0.569233 L 0.378158 0.694594 L 0.247346 0.68101 Z" stroke="#808080" fill="#FEFE00"/></g></svg>