<svg width="512" height="512" viewBox="0 0 512 512" xmlns="http://www.w3.org/2000/svg" xmlns:xlink="http://www.w3.org/1999/xlink" overflow="hidden"><path d="M287.987 400C284.529 400.003 281.163 398.879 278.4 396.8L214.4 348.8C207.331 343.498 205.898 333.469 211.2 326.4 216.502 319.331 226.531 317.898 233.6 323.2L297.6 371.2C304.669 376.502 306.102 386.531 300.8 393.6 297.776 397.633 293.028 400.004 287.987 400Z" fill="#3C413C"/><g fill="#FAA01E"><rect x="48" y="16" rx="32" width="64" height="160"/><rect x="400" y="16" rx="32" width="64" height="160"/><path d="M112 47.999 400 47.999 400 141.332 112 141.332Z"/></g><path d="M112 96 400 96 400 141.333 112 141.333Z" fill="#DC6E1E"/><path d="M112 48 96 48C87.1634 48 80 55.1634 80 64L80 128C80 136.837 72.8366 144 64 144L48 144C48 161.673 62.3269 176 80 176 97.6731 176 112 161.673 112 144Z" fill="#DC6E1E"/><path d="M464 48 448 48C439.163 48 432 55.1634 432 64L432 128C432 136.837 424.837 144 416 144L400 144C400 161.673 414.327 176 432 176 449.673 176 464 161.673 464 144Z" fill="#DC6E1E"/><circle cx="256" cy="96" r="24" fill="#3C413C"/><path d="M256 72C242.745 72 232 82.7452 232 96L280 96C280 82.7452 269.255 72 256 72Z" fill="#736969"/><path d="M299.313 276.686 278.627 256C274.37 251.766 271.983 246.004 272 240L272 141.333 240 141.333 240 240C239.96 254.496 245.722 268.404 256 278.626L276.687 299.313C282.879 305.617 293.009 305.708 299.314 299.516 305.618 293.324 305.709 283.194 299.517 276.89 299.449 276.821 299.382 276.753 299.313 276.686Z" fill="#3C413C"/><path d="M240 165.333 256 165.333 256 165.333 256 224C256 232.837 248.837 240 240 240L240 240 240 165.333 240 165.333Z" fill="#736969"/><path d="M224.013 352C215.176 352.007 208.007 344.85 208 336.013 207.996 330.972 210.367 326.224 214.4 323.2L278.4 275.2C285.469 269.898 295.498 271.331 300.8 278.4 306.102 285.469 304.669 295.498 297.6 300.8L233.6 348.8C230.837 350.879 227.471 352.003 224.013 352Z" fill="#736969"/><path d="M287.987 496C284.529 496.003 281.163 494.879 278.4 492.8L214.4 444.8C207.331 439.498 205.898 429.469 211.2 422.4 216.502 415.331 226.531 413.898 233.6 419.2L297.6 467.2C304.669 472.502 306.102 482.531 300.8 489.6 297.776 493.633 293.028 496.004 287.987 496Z" fill="#3C413C"/><path d="M224.013 448C215.176 448.007 208.007 440.85 208 432.013 207.996 426.972 210.367 422.224 214.4 419.2L278.4 371.2C285.469 365.898 295.498 367.331 300.8 374.4 306.102 381.469 304.669 391.498 297.6 396.8L233.6 444.8C230.837 446.879 227.471 448.003 224.013 448Z" fill="#736969"/></svg>