<svg version="1.1" width="500" height="500" viewBox="0 0 500 500" xmlns="http://www.w3.org/2000/svg" xmlns:xlink="http://www.w3.org/1999/xlink" id="Layer_1" overflow="hidden"><rect x="32.565" y="107.062" width="40" height="40" fill="#000000" transform="matrix(0.7071,-0.7071,0.7071,0.7071,-74.4511,74.3862)"/><rect x="72.164" y="67.464" width="39.999" height="40.001" fill="#000000" transform="matrix(0.7071,-0.7071,0.7071,0.7071,-34.8528,90.788)"/><rect x="111.761" y="27.866" width="39.999" height="40.001" fill="#000000" transform="matrix(0.7071,-0.7071,0.7071,0.7071,4.746,107.191)"/><rect x="72.305" y="146.519" width="40.001" height="40.001" fill="#000000" transform="matrix(0.7071,-0.7071,0.7071,0.7071,-90.7112,114.042)"/><rect x="111.903" y="106.922" width="40.001" height="39.999" fill="#000000" transform="matrix(0.7071,-0.7071,0.7071,0.7071,-51.1134,130.441)"/><rect x="151.501" y="67.323" width="40" height="40" fill="#000000" transform="matrix(0.7071,-0.7071,0.7071,0.7071,-11.5154,146.846)"/><rect x="111.974" y="186.046" width="39.999" height="40.001" fill="#000000" transform="matrix(0.7071,-0.7071,0.7071,0.7071,-107.043,153.673)"/><rect x="151.572" y="146.448" width="39.999" height="40.001" fill="#000000" transform="matrix(0.7071,-0.7071,0.7071,0.7071,-67.4445,170.067)"/><rect x="191.17" y="106.85" width="40.001" height="40.001" fill="#000000" transform="matrix(0.7071,-0.7071,0.7071,0.7071,-27.8474,186.469)"/><rect x="32.458" y="341.045" width="40.001" height="40.001" fill="#000000" transform="matrix(0.7071,-0.7071,0.7071,0.7071,-239.936,142.846)"/><rect x="72.056" y="301.447" width="39.999" height="40.001" fill="#000000" transform="matrix(0.7071,-0.7071,0.7071,0.7071,-200.338,159.248)"/><rect x="111.654" y="261.849" width="39.999" height="40.001" fill="#000000" transform="matrix(0.7071,-0.7071,0.7071,0.7071,-160.739,175.65)"/><rect x="72.197" y="380.502" width="40.001" height="40.001" fill="#000000" transform="matrix(0.7071,-0.7071,0.7071,0.7071,-256.193,182.498)"/><rect x="111.796" y="340.905" width="40" height="39.998" fill="#000000" transform="matrix(0.7071,-0.7071,0.7071,0.7071,-216.59,198.888)"/><rect x="151.394" y="301.307" width="39.999" height="39.999" fill="#000000" transform="matrix(0.7071,-0.7071,0.7071,0.7071,-176.996,215.296)"/><rect x="111.867" y="420.029" width="39.998" height="40" fill="#000000" transform="matrix(0.7071,-0.7071,0.7071,0.7071,-272.525,222.125)"/><rect x="151.465" y="380.43" width="39.999" height="40.001" fill="#000000" transform="matrix(0.7071,-0.7071,0.7071,0.7071,-232.924,238.52)"/><rect x="191.062" y="340.833" width="40.001" height="40.001" fill="#000000" transform="matrix(0.7071,-0.7071,0.7071,0.7071,-193.327,254.922)"/><path d=" M 443.368 249.918 C 448.298 173.26 517.304 59.755 384.636 59.755 C 273.497 59.755 266.04 155.947 266.04 249.918 C 266.04 334.887 270.083 436.504 372.565 440.081 C 515.438 445.067 448.847 335.106 443.368 249.918 Z" fill="#000000"/></svg>