<svg viewBox="0 0 300 150" xmlns="http://www.w3.org/2000/svg" xmlns:xlink="http://www.w3.org/1999/xlink" id="图层_1" overflow="hidden"><defs></defs><path d="M153 97.1 176.16 79.2C176.621 78.8394 176.703 78.1732 176.342 77.712 176.289 77.6442 176.228 77.5831 176.16 77.53L153 59.63C152.533 59.2765 151.869 59.3682 151.515 59.8348 151.378 60.0149 151.303 60.234 151.3 60.46L151.3 69.94 127 69.94C126.448 69.94 126 70.3877 126 70.94L126 85.74C125.972 86.2916 126.397 86.7611 126.949 86.7887 126.966 86.7896 126.983 86.79 127 86.79L151.22 86.79 151.22 96.27C151.228 96.8554 151.709 97.3232 152.295 97.315 152.521 97.3118 152.74 97.2365 152.92 97.1Z"/><path d="M16.1 38.05 47.89 66.41 49.47 129.33 20.4 94.87 16.1 38.05Z" stroke="#000000" stroke-width="7.11" stroke-linejoin="round"/><path d="M16.1 38.05 74.06 25.3 112.32 48.91 47.89 66.41 16.1 38.05Z" stroke="#000000" stroke-width="7.11" stroke-linejoin="round"/><path d="M47.89 66.41 112.32 48.91 107.44 108.2 49.47 129.33 47.89 66.41Z" stroke="#000000" stroke-width="7.11" stroke-linejoin="round"/><path d="M13.98 38.12 22.54 45.75 23.7 64.68 15.37 56.37 13.98 38.12Z" fill="#404040"/><path d="M24.11 47.23 33.64 55.73 34.51 75.39 25.27 66.17 24.11 47.23Z" fill="#404040"/><path d="M35.39 57.39 46.06 66.91 46.57 87.33 36.26 77.05 35.39 57.39Z" fill="#404040"/><path d="M15.58 59.54 23.91 67.85 25 85.52 16.88 76.63 15.58 59.54Z" fill="#404040"/><path d="M25.44 69.45 34.68 78.67 35.5 96.95 26.52 87.12 25.44 69.45Z" fill="#0000F2"/><path d="M36.38 80.45 46.69 90.74 47.16 109.65 37.19 98.72 36.38 80.45Z" fill="#0000F2"/><path d="M17.08 79.59 25.2 88.48 26.21 105.01 18.29 95.63 17.08 79.59Z" fill="#404040"/><path d="M26.68 90.18 35.66 100.01 36.41 117.04 27.69 106.71 26.68 90.18Z" fill="#0000F2"/><path d="M37.3 101.89 47.28 112.81 47.72 130.37 38.06 118.92 37.3 101.89Z" fill="#0000F2"/><path d="M15.57 36.05 34.04 31.99 43.3 39.18 24.13 43.68 15.57 36.05Z" fill="#404040"/><path d="M37.27 31.25 54.71 27.42 64.58 34.2 46.52 38.44 37.27 31.25Z" fill="#404040"/><path d="M57.75 26.73 74.25 23.1 84.65 29.51 67.62 33.51 57.75 26.73Z" fill="#404040"/><path d="M25.79 45.06 44.96 40.55 55.24 48.53 35.32 53.55 25.79 45.06Z" fill="#404040"/><path d="M48.3 39.74 66.36 35.5 77.28 43.01 58.58 47.72 48.3 39.74Z" fill="#404040"/><path d="M69.5 34.74 86.53 30.74 98.01 37.81 80.42 42.24 69.5 34.74Z" fill="#404040"/><path d="M37.17 55.09 57.09 50.07 68.56 58.98 47.84 64.61 37.17 55.09Z" fill="#404040"/><path d="M60.56 49.16 79.26 44.45 91.41 52.8 72.03 58.07 60.56 49.16Z" fill="#404040"/><path d="M82.51 43.6 100.09 39.17 112.82 47.02 94.66 51.95 82.51 43.6Z" fill="#404040"/><path d="M48.76 67.21 69.48 61.58 69.2 81.56 49.27 87.64 48.76 67.21Z" fill="#404040"/><path d="M72.96 60.58 92.34 55.31 91.37 74.86 72.68 80.56 72.96 60.58Z" fill="#404040"/><path d="M95.59 54.38 113.75 49.44 112.18 68.57 94.63 73.92 95.59 54.38Z" fill="#404040"/><path d="M49.3 91.07 69.23 84.99 68.97 103.54 49.77 109.99 49.3 91.07Z" fill="#EE0000"/><path d="M72.58 83.92 91.26 78.22 90.36 96.4 72.32 102.47 72.58 83.92Z" fill="#404040"/><path d="M94.41 77.22 111.96 71.86 110.5 89.69 93.51 95.4 94.41 77.22Z" fill="#404040"/><path d="M49.79 113.18 68.99 106.73 68.75 123.98 50.23 130.74 49.79 113.18Z" fill="#EE0000"/><path d="M72.22 105.6 90.27 99.54 89.43 116.49 71.99 122.85 72.22 105.6Z" fill="#404040"/><path d="M93.31 98.47 110.3 92.77 108.92 109.43 92.47 115.43 93.31 98.47Z" fill="#404040"/><path d="M188.1 38.05 219.89 66.41 221.47 129.33 192.4 94.87 188.1 38.05Z" stroke="#000000" stroke-width="7.11" stroke-linejoin="round"/><path d="M188.1 38.05 246.06 25.3 284.32 48.91 219.89 66.41 188.1 38.05Z" stroke="#000000" stroke-width="7.11" stroke-linejoin="round"/><path d="M219.89 66.41 284.32 48.91 279.44 108.2 221.47 129.33 219.89 66.41Z" stroke="#000000" stroke-width="7.11" stroke-linejoin="round"/><path d="M185.99 38.12 194.54 45.75 195.7 64.68 187.37 56.37 185.99 38.12Z" fill="#404040"/><path d="M196.11 47.23 205.64 55.73 206.51 75.39 197.27 66.17 196.11 47.23Z" fill="#404040"/><path d="M207.39 57.39 218.06 66.91 218.57 87.33 208.26 77.05 207.39 57.39Z" fill="#404040"/><path d="M187.58 59.54 195.91 67.85 197 85.52 188.88 76.63 187.58 59.54Z" fill="#0000F2"/><path d="M197.44 69.45 206.68 78.67 207.5 96.95 198.52 87.12 197.44 69.45Z" fill="#0000F2"/><path d="M208.38 80.45 218.69 90.74 219.16 109.65 209.19 98.72 208.38 80.45Z" fill="#0000F2"/><path d="M189.08 79.59 197.2 88.48 198.21 105.01 190.29 95.63 189.08 79.59Z" fill="#0000F2"/><path d="M198.68 90.18 207.66 100.01 208.41 117.04 199.69 106.71 198.68 90.18Z" fill="#0000F2"/><path d="M209.3 101.89 219.28 112.81 219.72 130.37 210.06 118.92 209.3 101.89Z" fill="#0000F2"/><path d="M187.57 36.05 206.04 31.99 215.3 39.18 196.13 43.68 187.57 36.05Z" fill="#404040"/><path d="M209.26 31.25 226.71 27.42 236.58 34.2 218.53 38.44 209.26 31.25Z" fill="#404040"/><path d="M229.75 26.73 246.25 23.1 256.65 29.51 239.62 33.51 229.75 26.73Z" fill="#404040"/><path d="M197.79 45.06 216.96 40.55 227.24 48.53 207.32 53.55 197.79 45.06Z" fill="#404040"/><path d="M220.31 39.74 238.36 35.5 249.28 43.01 230.58 47.72 220.31 39.74Z" fill="#404040"/><path d="M241.5 34.74 258.53 30.74 270.01 37.81 252.43 42.24 241.5 34.74Z" fill="#404040"/><path d="M209.17 55.09 229.09 50.07 240.56 58.98 219.84 64.61 209.17 55.09Z" fill="#404040"/><path d="M232.56 49.16 251.26 44.45 263.41 52.8 244.03 58.07 232.56 49.16Z" fill="#404040"/><path d="M254.51 43.6 272.1 39.17 284.82 47.02 266.66 51.95 254.51 43.6Z" fill="#404040"/><path d="M220.76 67.21 241.48 61.58 241.21 81.56 221.27 87.64 220.76 67.21Z" fill="#404040"/><path d="M244.96 60.58 264.34 55.31 263.37 74.86 244.68 80.56 244.96 60.58Z" fill="#404040"/><path d="M267.59 54.38 285.75 49.44 284.18 68.57 266.63 73.92 267.59 54.38Z" fill="#404040"/><path d="M221.29 91.07 241.23 84.99 240.97 103.54 221.77 109.99 221.29 91.07Z" fill="#EE0000"/><path d="M244.58 83.92 263.26 78.22 262.36 96.4 244.32 102.47 244.58 83.92Z" fill="#404040"/><path d="M266.41 77.22 283.96 71.86 282.5 89.69 265.51 95.4 266.41 77.22Z" fill="#404040"/><path d="M221.79 113.18 240.99 106.73 240.75 123.98 222.23 130.74 221.79 113.18Z" fill="#EE0000"/><path d="M244.22 105.6 262.27 99.54 261.43 116.49 243.99 122.85 244.22 105.6Z" fill="#404040"/><path d="M265.31 98.47 282.3 92.77 280.92 109.43 264.47 115.43 265.31 98.47Z" fill="#404040"/></svg>