<svg viewBox="0 0 300 150" xmlns="http://www.w3.org/2000/svg" xmlns:xlink="http://www.w3.org/1999/xlink" id="图层_1" overflow="hidden"><defs></defs><path d="M153 95.1 176.16 77.2C176.621 76.8394 176.703 76.1732 176.342 75.712 176.289 75.6442 176.228 75.5831 176.16 75.53L153 57.63C152.533 57.2765 151.869 57.3682 151.515 57.8348 151.378 58.0149 151.303 58.234 151.3 58.46L151.3 67.94 127 67.94C126.448 67.94 126 68.3877 126 68.94L126 83.74C125.972 84.2916 126.397 84.7611 126.949 84.7887 126.966 84.7896 126.983 84.79 127 84.79L151.22 84.79 151.22 94.27C151.228 94.8554 151.709 95.3232 152.295 95.315 152.521 95.3118 152.74 95.2365 152.92 95.1Z"/><path d="M62.79 19.08 87.79 33.51 37.79 33.51 62.79 19.08Z" fill="#404040"/><path d="M87.79 34.51 37.79 34.51C37.2377 34.5044 36.7946 34.0521 36.8003 33.4998 36.8038 33.1505 36.9895 32.8283 37.29 32.65L62.29 18.21C62.5994 18.0314 62.9806 18.0314 63.29 18.21L88.29 32.65C88.765 32.9318 88.9216 33.5453 88.6398 34.0203 88.4616 34.3208 88.1394 34.5064 87.79 34.51ZM41.53 32.51 84.06 32.51 62.79 20.23Z"/><path d="M12.79 47.95 37.79 33.51 37.79 62.38 12.79 47.95Z" fill="#404040"/><path d="M37.79 63.38C37.6148 63.3812 37.4424 63.3364 37.29 63.25L12.29 48.81C11.9825 48.6325 11.7921 48.3051 11.79 47.95 11.7886 47.5913 11.9794 47.2593 12.29 47.08L37.29 32.65C37.7683 32.3738 38.3799 32.5377 38.656 33.016 38.7428 33.1663 38.789 33.3365 38.79 33.51L38.79 62.38C38.7914 62.7387 38.6006 63.0707 38.29 63.25 38.1376 63.3364 37.9652 63.3812 37.79 63.38ZM14.79 48 36.79 60.7 36.79 35.25Z"/><path d="M112.79 47.95 87.79 62.38 87.79 33.51 112.79 47.95Z" fill="#404040"/><path d="M87.79 63.38C87.2377 63.38 86.79 62.9323 86.79 62.38L86.79 33.51C86.7933 32.9577 87.2437 32.5127 87.796 32.516 87.9695 32.5171 88.1397 32.5632 88.29 32.65L113.29 47.08C113.601 47.2593 113.791 47.5913 113.79 47.95 113.788 48.3051 113.598 48.6325 113.29 48.81L88.29 63.25C88.1376 63.3364 87.9652 63.3812 87.79 63.38ZM88.79 35.25 88.79 60.65 110.79 47.95Z"/><path d="M62.79 76.82 37.79 62.38 87.79 62.38 62.79 76.82Z" fill="#404040"/><path d="M62.79 77.82C62.6139 77.8182 62.4414 77.7699 62.29 77.68L37.29 63.25C36.8095 62.9777 36.6407 62.3675 36.913 61.887 37.0918 61.5715 37.4274 61.3775 37.79 61.38L87.79 61.38C88.2549 61.3641 88.6693 61.6708 88.79 62.12 88.909 62.5598 88.7158 63.0244 88.32 63.25L63.32 77.68C63.1598 77.7751 62.9763 77.8236 62.79 77.82ZM41.53 63.38 62.79 75.66 84.06 63.38Z"/><path d="M87.79 62.38 37.79 62.38 37.79 33.51 87.79 33.51 87.79 62.38Z" fill="#404040"/><path d="M87.79 63.38 37.79 63.38C37.2377 63.38 36.79 62.9323 36.79 62.38L36.79 33.51C36.79 32.9577 37.2377 32.51 37.79 32.51L87.79 32.51C88.3423 32.51 88.79 32.9577 88.79 33.51L88.79 62.38C88.79 62.9323 88.3423 63.38 87.79 63.38ZM38.79 61.38 86.79 61.38 86.79 34.51 38.79 34.51Z"/><path d="M62.79 76.82 62.79 105.68 37.79 62.38 62.79 76.82Z" fill="#404040"/><path d="M62.79 106.68C62.4349 106.678 62.1076 106.488 61.93 106.18L36.93 62.88C36.7025 62.4871 36.7682 61.9902 37.09 61.67 37.411 61.3564 37.9017 61.2951 38.29 61.52L63.29 76C63.6006 76.1793 63.7914 76.5113 63.79 76.87L63.79 105.73C63.8059 106.195 63.4992 106.609 63.05 106.73 62.9616 106.724 62.8743 106.707 62.79 106.68ZM40.53 65.11 61.79 102 61.79 77.39Z"/><path d="M12.79 47.95 37.79 62.38 12.79 76.82 12.79 47.95Z" fill="#404040"/><path d="M12.79 77.82C12.6139 77.8182 12.4414 77.7699 12.29 77.68 11.9825 77.5024 11.7921 77.1751 11.79 76.82L11.79 48C11.7886 47.6413 11.9794 47.3093 12.29 47.13 12.5994 46.9514 12.9806 46.9514 13.29 47.13L38.29 61.57C38.5975 61.7476 38.7879 62.0749 38.79 62.43 38.7914 62.7887 38.6006 63.1207 38.29 63.3L13.29 77.73C13.1339 77.8025 12.9616 77.8335 12.79 77.82ZM13.79 49.68 13.79 75.08 35.79 62.38Z"/><path d="M62.79 134.55 37.79 120.12 62.79 105.68 62.79 134.55Z" fill="#FF0000"/><path d="M62.79 135.55C62.6148 135.551 62.4424 135.506 62.29 135.42L37.29 121C36.8123 120.723 36.6497 120.111 36.9268 119.633 37.0142 119.483 37.1394 119.357 37.29 119.27L62.29 104.84C62.7683 104.564 63.3799 104.728 63.656 105.206 63.7428 105.356 63.789 105.526 63.79 105.7L63.79 134.57C63.7914 134.929 63.6006 135.261 63.29 135.44 63.1357 135.519 62.9634 135.557 62.79 135.55ZM39.79 120.12 61.79 132.82 61.79 107.42Z"/><path d="M12.79 105.68 12.79 76.82 37.79 120.12 12.79 105.68Z" fill="#FF0000"/><path d="M37.79 121.12C37.6139 121.118 37.4414 121.07 37.29 120.98L12.29 106.55C11.9794 106.371 11.7886 106.039 11.79 105.68L11.79 76.82C11.7741 76.3551 12.0808 75.9407 12.53 75.82 12.9698 75.701 13.4344 75.8942 13.66 76.29L38.66 119.59C38.9361 120.068 38.7723 120.68 38.294 120.956 38.1408 121.044 37.9669 121.091 37.79 121.09ZM13.79 105.12 35.06 117.39 13.79 80.55Z"/><path d="M37.79 62.38 62.79 105.68 37.79 120.12 12.79 76.82 37.79 62.38Z" fill="#404040"/><path d="M37.79 121.12C37.7039 121.134 37.6161 121.134 37.53 121.12 37.2775 121.051 37.0621 120.886 36.93 120.66L11.93 77.36C11.797 77.13 11.7611 76.8566 11.83 76.6 11.8966 76.3438 12.062 76.1244 12.29 75.99L37.29 61.56C37.7665 61.2808 38.3791 61.4407 38.6584 61.9172 38.6589 61.9181 38.6595 61.9191 38.66 61.92L63.66 105.22C63.9368 105.698 63.7739 106.31 63.296 106.587 63.294 106.588 63.292 106.589 63.29 106.59L38.29 121C38.1366 121.083 37.9643 121.124 37.79 121.12ZM14.16 77.18 38.16 118.75 61.43 105.32 37.43 63.75Z"/><path d="M112.79 47.95 112.79 76.82 87.79 62.38 112.79 47.95Z" fill="#404040"/><path d="M112.79 77.82C112.614 77.8182 112.441 77.7699 112.29 77.68L87.29 63.25C86.9794 63.0707 86.7886 62.7387 86.79 62.38 86.7921 62.0249 86.9825 61.6976 87.29 61.52L112.29 47.08C112.599 46.9014 112.981 46.9014 113.29 47.08 113.601 47.2593 113.791 47.5913 113.79 47.95L113.79 76.82C113.788 77.1751 113.598 77.5024 113.29 77.68 113.139 77.7699 112.966 77.8182 112.79 77.82ZM89.79 62.38 111.79 75.08 111.79 49.68Z"/><path d="M62.79 76.82 87.79 62.38 62.79 105.68 62.79 76.82Z" fill="#404040"/><path d="M62.79 106.68 62.53 106.68C62.0808 106.559 61.7741 106.145 61.79 105.68L61.79 76.82C61.7886 76.4613 61.9794 76.1293 62.29 75.95L87.29 61.52C87.768 61.2434 88.3798 61.4067 88.6564 61.8848 88.8343 62.1923 88.8357 62.5712 88.66 62.88L63.66 106.18C63.4807 106.491 63.1487 106.681 62.79 106.68ZM63.79 77.39 63.79 102 85.06 65.11Z"/><path d="M112.79 105.68 87.79 120.12 112.79 76.82 112.79 105.68Z" fill="#00D800"/><path d="M87.79 121.12C87.5262 121.116 87.2746 121.008 87.09 120.82 86.7731 120.501 86.7076 120.011 86.93 119.62L111.93 76.32C112.155 75.9286 112.613 75.736 113.05 75.85 113.499 75.9707 113.806 76.3851 113.79 76.85L113.79 105.71C113.791 106.069 113.601 106.401 113.29 106.58L88.29 121C88.1366 121.083 87.9643 121.124 87.79 121.12ZM111.79 80.55 90.53 117.38 111.79 105.11Z"/><path d="M62.79 134.55 62.79 105.68 87.79 120.12 62.79 134.55Z" fill="#00D800"/><path d="M62.79 135.55C62.2377 135.55 61.79 135.102 61.79 134.55L61.79 105.68C61.7933 105.128 62.2437 104.683 62.796 104.686 62.9695 104.687 63.1397 104.733 63.29 104.82L88.29 119.25C88.7677 119.527 88.9304 120.139 88.6532 120.617 88.5658 120.767 88.4406 120.893 88.29 120.98L63.29 135.42C63.1376 135.506 62.9652 135.551 62.79 135.55ZM63.79 107.42 63.79 132.82 85.79 120.12Z"/><path d="M62.79 105.68 87.79 62.38 112.79 76.82 87.79 120.12 62.79 105.68Z" fill="#404040"/><path d="M87.79 121.12C87.6139 121.118 87.4414 121.07 87.29 120.98L62.29 106.55C61.8126 106.272 61.6507 105.66 61.9284 105.183 61.9289 105.182 61.9295 105.181 61.93 105.18L86.93 61.88C87.208 61.4075 87.8146 61.2469 88.29 61.52L113.29 75.95C113.522 76.0824 113.691 76.3021 113.76 76.56 113.829 76.8166 113.793 77.09 113.66 77.32L88.66 120.62C88.5256 120.848 88.3062 121.013 88.05 121.08 87.9664 121.109 87.8783 121.122 87.79 121.12ZM64.16 105.32 87.43 118.75 111.43 77.18 88.16 63.75Z"/><path d="M235.48 18.08 260.48 32.51 210.48 32.51 235.48 18.08Z" fill="#FFFF00"/><path d="M260.48 33.51 210.48 33.51C209.928 33.5044 209.485 33.0521 209.49 32.4998 209.494 32.1505 209.679 31.8283 209.98 31.65L234.98 17.21C235.289 17.0314 235.671 17.0314 235.98 17.21L260.98 31.65C261.455 31.9318 261.612 32.5453 261.33 33.0203 261.152 33.3208 260.829 33.5064 260.48 33.51ZM214.21 31.51 256.75 31.51 235.48 19.23Z"/><path d="M185.48 46.95 210.48 32.51 210.48 61.38 185.48 46.95Z" fill="#FFFF00"/><path d="M210.48 62.38C210.305 62.3812 210.132 62.3364 209.98 62.25L185 47.81C184.692 47.6325 184.502 47.3051 184.5 46.95 184.499 46.5913 184.689 46.2593 185 46.08L210 31.65C210.478 31.3738 211.09 31.5377 211.366 32.016 211.453 32.1663 211.499 32.3365 211.5 32.51L211.5 61.38C211.501 61.7387 211.311 62.0707 211 62.25 210.842 62.3398 210.662 62.3848 210.48 62.38ZM187.48 47 209.48 59.7 209.48 34.25Z"/><path d="M285.48 46.95 260.48 61.38 260.48 32.51 285.48 46.95Z" fill="#FFFF00"/><path d="M260.48 62.38C259.928 62.38 259.48 61.9323 259.48 61.38L259.48 32.51C259.483 31.9577 259.934 31.5127 260.486 31.516 260.66 31.5171 260.83 31.5632 260.98 31.65L285.98 46.08C286.291 46.2593 286.481 46.5913 286.48 46.95 286.478 47.3051 286.288 47.6325 285.98 47.81L261 62.25C260.842 62.3398 260.662 62.3848 260.48 62.38ZM261.48 34.25 261.48 59.65 283.48 46.95Z"/><path d="M235.48 75.82 210.48 61.38 260.48 61.38 235.48 75.82Z" fill="#FFFF00"/><path d="M235.48 76.82C235.304 76.8182 235.131 76.7699 234.98 76.68L210 62.25C209.52 61.9777 209.351 61.3675 209.623 60.887 209.802 60.5715 210.137 60.3775 210.5 60.38L260.5 60.38C261.052 60.3761 261.503 60.8207 261.507 61.373 261.509 61.7356 261.315 62.0712 261 62.25L236 76.68C235.843 76.7733 235.663 76.8218 235.48 76.82ZM214.21 62.38 235.48 74.66 256.75 62.38Z"/><path d="M260.48 61.38 210.48 61.38 210.48 32.51 260.48 32.51 260.48 61.38Z" fill="#FFFF00"/><path d="M260.48 62.38 210.48 62.38C209.928 62.38 209.48 61.9323 209.48 61.38L209.48 32.51C209.48 31.9577 209.928 31.51 210.48 31.51L260.48 31.51C261.032 31.51 261.48 31.9577 261.48 32.51L261.48 61.38C261.48 61.9323 261.032 62.38 260.48 62.38ZM211.48 60.38 259.48 60.38 259.48 33.51 211.48 33.51Z"/><path d="M235.48 75.82 235.48 104.68 210.48 61.38 235.48 75.82Z" fill="#FF0000"/><path d="M235.48 105.68C235.125 105.678 234.798 105.488 234.62 105.18L209.62 61.88C209.342 61.4028 209.503 60.7906 209.981 60.5126 210.296 60.3287 210.687 60.3315 211 60.52L236 75C236.311 75.1793 236.501 75.5113 236.5 75.87L236.5 104.73C236.516 105.195 236.209 105.609 235.76 105.73 235.665 105.725 235.571 105.708 235.48 105.68ZM213.21 64.11 234.48 101 234.48 76.39Z"/><path d="M185.48 46.95 210.48 61.38 185.48 75.82 185.48 46.95Z" fill="#FF0000"/><path d="M185.48 76.82C185.304 76.8182 185.131 76.7699 184.98 76.68 184.672 76.5024 184.482 76.1751 184.48 75.82L184.48 47C184.479 46.6413 184.669 46.3093 184.98 46.13 185.289 45.9514 185.671 45.9514 185.98 46.13L210.98 60.57C211.288 60.7476 211.478 61.0749 211.48 61.43 211.481 61.7887 211.291 62.1207 210.98 62.3L186 76.68C185.843 76.7733 185.663 76.8218 185.48 76.82ZM186.48 48.68 186.48 74.08 208.48 61.38Z"/><path d="M235.48 133.55 210.48 119.12 235.48 104.68 235.48 133.55Z" fill="#FF0000"/><path d="M235.48 134.55C235.305 134.551 235.132 134.506 234.98 134.42L210 120C209.522 119.723 209.36 119.111 209.637 118.633 209.724 118.483 209.849 118.357 210 118.27L235 103.84C235.478 103.564 236.09 103.728 236.366 104.206 236.453 104.356 236.499 104.526 236.5 104.7L236.5 133.57C236.501 133.929 236.311 134.261 236 134.44 235.84 134.523 235.66 134.561 235.48 134.55ZM212.48 119.12 234.48 131.82 234.48 106.42Z"/><path d="M185.48 104.68 185.48 75.82 210.48 119.12 185.48 104.68Z" fill="#FF0000"/><path d="M210.48 120.12C210.304 120.118 210.131 120.07 209.98 119.98L184.98 105.55C184.669 105.371 184.479 105.039 184.48 104.68L184.48 75.82C184.464 75.3551 184.771 74.9407 185.22 74.82 185.66 74.701 186.124 74.8942 186.35 75.29L211.35 118.59C211.572 118.981 211.507 119.471 211.19 119.79 211.008 119.992 210.752 120.111 210.48 120.12ZM186.48 104.12 207.75 116.39 186.48 79.55Z"/><path d="M210.48 61.38 235.48 104.68 210.48 119.12 185.48 75.82 210.48 61.38Z" fill="#FF0000"/><path d="M210.48 120.12C210.394 120.135 210.306 120.135 210.22 120.12 209.968 120.051 209.752 119.886 209.62 119.66L184.62 76.36C184.487 76.13 184.451 75.8566 184.52 75.6 184.594 75.3441 184.766 75.1281 185 75L210 60.57C210.477 60.2908 211.089 60.4507 211.368 60.9272 211.369 60.9281 211.369 60.9291 211.37 60.93L236.37 104.23C236.647 104.708 236.484 105.32 236.006 105.597 236.004 105.598 236.002 105.599 236 105.6L211 120C210.841 120.086 210.661 120.128 210.48 120.12ZM186.85 76.18 210.85 117.75 234.12 104.32 210.12 62.75Z"/><path d="M285.48 46.95 285.48 75.82 260.48 61.38 285.48 46.95Z" fill="#00D800"/><path d="M285.48 76.82C285.304 76.8182 285.131 76.7699 284.98 76.68L260 62.25C259.689 62.0707 259.499 61.7387 259.5 61.38 259.502 61.0249 259.692 60.6976 260 60.52L285 46.08C285.309 45.9014 285.691 45.9014 286 46.08 286.311 46.2593 286.501 46.5913 286.5 46.95L286.5 75.82C286.5 76.3723 286.052 76.82 285.5 76.82ZM262.48 61.38 284.48 74.08 284.48 48.68Z"/><path d="M235.48 75.82 260.48 61.38 235.48 104.68 235.48 75.82Z" fill="#00D800"/><path d="M235.48 105.68 235.22 105.68C234.771 105.559 234.464 105.145 234.48 104.68L234.48 75.82C234.5 75.4752 234.697 75.1652 235 75L260 60.57C260.391 60.3399 260.887 60.4015 261.21 60.72 261.532 61.0402 261.598 61.5371 261.37 61.93L236.37 105.23C236.175 105.528 235.836 105.699 235.48 105.68ZM236.48 76.39 236.48 101 257.75 64.16Z"/><path d="M285.48 104.68 260.48 119.12 285.48 75.82 285.48 104.68Z" fill="#00D800"/><path d="M260.48 120.12C259.928 120.117 259.483 119.666 259.486 119.114 259.487 118.941 259.533 118.77 259.62 118.62L284.62 75.32C284.845 74.9286 285.303 74.736 285.74 74.85 286.189 74.9707 286.496 75.3851 286.48 75.85L286.48 104.71C286.481 105.069 286.291 105.401 285.98 105.58L261 120C260.841 120.086 260.661 120.128 260.48 120.12ZM284.48 79.55 263.21 116.38 284.48 104.11Z"/><path d="M235.48 133.55 235.48 104.68 260.48 119.12 235.48 133.55Z" fill="#00D800"/><path d="M235.48 134.55C234.928 134.55 234.48 134.102 234.48 133.55L234.48 104.68C234.483 104.128 234.934 103.683 235.486 103.686 235.66 103.687 235.83 103.733 235.98 103.82L260.98 118.25C261.458 118.527 261.62 119.139 261.343 119.617 261.256 119.767 261.131 119.893 260.98 119.98L235.98 134.42C235.828 134.506 235.655 134.551 235.48 134.55ZM236.48 106.42 236.48 131.82 258.48 119.12Z"/><path d="M235.48 104.68 260.48 61.38 285.48 75.82 260.48 119.12 235.48 104.68Z" fill="#00D800"/><path d="M260.48 120.12C260.304 120.118 260.131 120.07 259.98 119.98L234.98 105.55C234.503 105.272 234.341 104.66 234.618 104.183 234.619 104.182 234.619 104.181 234.62 104.18L259.62 60.88C259.898 60.4075 260.505 60.2469 260.98 60.52L286 75C286.232 75.1324 286.401 75.3521 286.47 75.61 286.539 75.8666 286.503 76.14 286.37 76.37L261.37 119.67C261.236 119.898 261.016 120.063 260.76 120.13 260.667 120.144 260.572 120.141 260.48 120.12ZM236.85 104.32 260.12 117.75 284.12 76.18 260.85 62.75Z"/></svg>