<svg viewBox="0 0 256 128" xmlns="http://www.w3.org/2000/svg" xmlns:xlink="http://www.w3.org/1999/xlink" id="图层_1" overflow="hidden"><defs></defs><path d="M85.92 54.65 117.71 26.29 113.41 83.11 84.34 117.57 85.92 54.65Z" stroke="#000000" stroke-width="7.11" stroke-linejoin="round"/><path d="M59.76 13.54 117.71 26.29 85.92 54.65 21.49 37.14 59.76 13.54Z" stroke="#000000" stroke-width="7.11" stroke-linejoin="round"/><path d="M21.49 37.14 85.92 54.65 84.34 117.57 26.37 96.43 21.49 37.14Z" stroke="#000000" stroke-width="7.11" stroke-linejoin="round"/><path d="M87.72 55.07 98.39 45.55 97.52 65.21 87.21 75.5 87.72 55.07Z" fill="#00D800"/><path d="M100.15 43.9 109.67 35.41 108.52 54.34 99.27 63.56 100.15 43.9Z" fill="#FEFE00"/><path d="M111.25 33.92 119.81 26.29 118.42 44.54 110.09 52.85 111.25 33.92Z" fill="#00D800"/><path d="M87.09 78.92 97.4 68.63 96.59 86.91 86.61 97.83 87.09 78.92Z" fill="#EE0000"/><path d="M99.1 66.85 108.34 57.63 107.26 75.3 98.29 85.13 99.1 66.85Z" fill="#00D800"/><path d="M109.88 56.03 118.21 47.72 116.91 64.81 108.8 73.7 109.88 56.03Z" fill="#FEFE00"/><path d="M86.51 101 96.48 90.08 95.72 107.11 86.07 118.56 86.51 101Z" fill="#00D800"/><path d="M98.13 88.2 107.1 78.37 106.09 94.9 97.37 105.24 98.13 88.2Z" fill="#EE0000"/><path d="M108.59 76.68 116.71 67.78 115.5 83.82 107.58 93.2 108.59 76.68Z" fill="#00D800"/><path d="M59.61 11.37 76.11 14.99 66.24 21.78 49.21 17.78 59.61 11.37Z" fill="#FEFE00"/><path d="M79.16 15.69 96.6 19.52 87.34 26.71 69.29 22.48 79.16 15.69Z" fill="#00D800"/><path d="M99.83 20.26 118.3 24.32 109.74 31.95 90.57 27.45 99.83 20.26Z" fill="#FEFE00"/><path d="M47.33 19.01 64.36 23.01 53.43 30.52 35.85 26.09 47.33 19.01Z" fill="#EE0000"/><path d="M67.51 23.78 85.56 28.02 75.28 36 56.59 31.29 67.51 23.78Z" fill="#FEFE00"/><path d="M88.91 28.84 108.08 33.34 98.56 41.83 78.64 36.81 88.91 28.84Z" fill="#EE0000"/><path d="M33.77 27.45 51.35 31.88 39.2 40.23 21.04 35.3 33.77 27.45Z" fill="#FEFE00"/><path d="M54.61 32.74 73.31 37.45 61.84 46.35 42.46 41.09 54.61 32.74Z" fill="#FEFE00"/><path d="M76.79 38.36 96.71 43.38 86.04 52.9 65.32 47.27 76.79 38.36Z" fill="#FEFE00"/><path d="M20 37.72 38.16 42.65 39.13 62.19 21.58 56.84 20 37.72Z" fill="#EE0000"/><path d="M41.41 43.59 60.79 48.85 61.07 68.83 42.38 63.13 41.41 43.59Z" fill="#00D800"/><path d="M64.26 49.85 84.98 55.48 84.47 75.91 64.53 69.83 64.26 49.85Z" fill="#EE0000"/><path d="M21.8 60.13 39.35 65.48 40.25 83.67 23.26 77.96 21.8 60.13Z" fill="#FEFE00"/><path d="M42.49 66.49 61.17 72.19 61.43 90.73 43.39 84.67 42.49 66.49Z" fill="#EE0000"/><path d="M64.52 73.26 84.45 79.34 83.98 98.25 64.77 91.81 64.52 73.26Z" fill="#00D800"/><path d="M23.47 81.03 40.45 86.73 41.29 103.69 24.84 97.69 23.47 81.03Z" fill="#EE0000"/><path d="M43.49 87.8 61.53 93.86 61.77 111.11 44.33 104.75 43.49 87.8Z" fill="#00D800"/><path d="M64.76 94.99 83.96 101.44 83.52 119 65 112.25 64.76 94.99Z" fill="#EE0000"/><path d="M204.91 54.65 236.71 26.29 232.41 83.11 203.34 117.57 204.91 54.65Z" stroke="#000000" stroke-width="7.11" stroke-linejoin="round"/><path d="M178.75 13.54 236.71 26.29 204.91 54.65 140.49 37.14 178.75 13.54Z" stroke="#000000" stroke-width="7.11" stroke-linejoin="round"/><path d="M140.49 37.14 204.91 54.65 203.34 117.57 145.37 96.43 140.49 37.14Z" stroke="#000000" stroke-width="7.11" stroke-linejoin="round"/><path d="M206.72 55.07 217.39 45.55 216.52 65.21 206.21 75.5 206.72 55.07Z" fill="#FFA100"/><path d="M219.15 43.9 228.67 35.41 227.52 54.34 218.27 63.56 219.15 43.9Z" fill="#FFA100"/><path d="M230.25 33.92 238.81 26.29 237.42 44.54 229.09 52.85 230.25 33.92Z" fill="#FFA100"/><path d="M206.09 78.92 216.4 68.63 215.59 86.91 205.62 97.83 206.09 78.92Z" fill="#FFA100"/><path d="M218.1 66.85 227.34 57.63 226.26 75.3 217.29 85.13 218.1 66.85Z" fill="#FFA100"/><path d="M228.88 56.03 237.21 47.72 235.91 64.81 227.8 73.7 228.88 56.03Z" fill="#FFA100"/><path d="M205.51 101 215.48 90.08 214.72 107.11 205.07 118.56 205.51 101Z" fill="#FFA100"/><path d="M217.13 88.2 226.1 78.37 225.09 94.9 216.37 105.24 217.13 88.2Z" fill="#FFA100"/><path d="M227.59 76.68 235.71 67.78 234.5 83.82 226.58 93.2 227.59 76.68Z" fill="#FFA100"/><path d="M178.61 11.37 195.11 14.99 185.24 21.78 168.21 17.78 178.61 11.37Z" fill="#FFFFFF"/><path d="M198.16 15.69 215.6 19.52 206.34 26.71 188.29 22.48 198.16 15.69Z" fill="#FFFFFF"/><path d="M218.83 20.26 237.3 24.32 228.74 31.95 209.57 27.45 218.83 20.26Z" fill="#FFFFFF"/><path d="M166.33 19.01 183.36 23.01 172.43 30.52 154.85 26.09 166.33 19.01Z" fill="#FFFFFF"/><path d="M186.51 23.78 204.56 28.02 194.28 36 175.59 31.29 186.51 23.78Z" fill="#FFFFFF"/><path d="M207.91 28.84 227.08 33.34 217.56 41.83 197.63 36.81 207.91 28.84Z" fill="#FFFFFF"/><path d="M152.77 27.45 170.35 31.88 158.2 40.23 140.04 35.3 152.77 27.45Z" fill="#FFFFFF"/><path d="M173.61 32.74 192.31 37.45 180.84 46.35 161.46 41.09 173.61 32.74Z" fill="#FFFFFF"/><path d="M195.79 38.36 215.71 43.38 205.04 52.9 184.32 47.27 195.79 38.36Z" fill="#FFFFFF"/><path d="M139 37.72 157.16 42.65 158.13 62.19 140.58 56.84 139 37.72Z" fill="#0000F2"/><path d="M160.41 43.59 179.79 48.85 180.07 68.83 161.38 63.13 160.41 43.59Z" fill="#0000F2"/><path d="M183.26 49.85 203.98 55.48 203.47 75.91 183.53 69.83 183.26 49.85Z" fill="#0000F2"/><path d="M140.8 60.13 158.35 65.48 159.25 83.67 142.26 77.96 140.8 60.13Z" fill="#0000F2"/><path d="M161.49 66.49 180.18 72.19 180.43 90.73 162.39 84.67 161.49 66.49Z" fill="#0000F2"/><path d="M183.52 73.26 203.45 79.34 202.98 98.25 183.77 91.81 183.52 73.26Z" fill="#0000F2"/><path d="M142.47 81.03 159.45 86.73 160.29 103.69 143.84 97.69 142.47 81.03Z" fill="#0000F2"/><path d="M162.49 87.8 180.53 93.86 180.77 111.11 163.33 104.75 162.49 87.8Z" fill="#0000F2"/><path d="M183.76 94.99 202.96 101.44 202.52 119 184 112.25 183.76 94.99Z" fill="#0000F2"/></svg>