<svg width="128" height="128" viewBox="-0.9 -0.9 1.8 1.8" xmlns="http://www.w3.org/2000/svg" xmlns:xlink="http://www.w3.org/1999/xlink" overflow="hidden"><g stroke-width="0.1" stroke-linejoin="round" opacity="0.5"><path d="M0.654001-0.50224-0.161033-0.681501-0.14725 0.0736248 0.59354 0.29677Z" stroke="#BFBFBF" fill="#BFBFBF"/><path d="M-0.630493 0.484187 0.184643 0.78142 0.59354 0.29677-0.14725 0.0736248Z" stroke="#BFBFBF" fill="#BFBFBF"/><path d="M-0.161033-0.681501-0.699152-0.349576-0.630493 0.484187-0.14725 0.0736248Z" stroke="#BFBFBF" fill="#BFBFBF"/></g><g stroke-width="0" stroke-linejoin="round" stroke-opacity="0.5"><path d="M0.671896-0.517157 0.412195-0.574276 0.401604-0.322895 0.652476-0.260502Z" stroke="#BFBFBF" fill="#00D800"/><path d="M0.368336-0.584525 0.123059-0.638472 0.120374-0.392179 0.357744-0.333144Z" stroke="#BFBFBF" opacity="0"/><path d="M0.0815702-0.648168-0.150451-0.699199-0.146045-0.457817 0.0788854-0.401875Z" stroke="#BFBFBF" opacity="0"/><path d="M0.649885-0.217049 0.399013-0.279442 0.389078-0.0436179 0.631699 0.0232848Z" stroke="#BFBFBF" opacity="0"/><path d="M0.356587-0.290542 0.119217-0.349577 0.116694-0.118129 0.346652-0.0547183Z" stroke="#BFBFBF" opacity="0"/><path d="M0.0790144-0.360096-0.145916-0.416038-0.141768-0.188833 0.0764914-0.128648Z" stroke="#BFBFBF" opacity="0"/><path d="M0.629271 0.0640496 0.386649-0.00285319 0.37731 0.218814 0.612206 0.289571Z" stroke="#BFBFBF" opacity="0"/><path d="M0.345565-0.0146833 0.115608-0.0780939 0.113232 0.139812 0.336226 0.206984Z" stroke="#BFBFBF" opacity="0"/><path d="M0.0766138-0.089323-0.141646-0.149508-0.137735 0.0647313 0.0742384 0.128583Z" stroke="#BFBFBF" opacity="0"/><path d="M-0.63686 0.509905-0.405499 0.594269-0.252911 0.451117-0.477566 0.37457Z" stroke="#BFBFBF" opacity="0"/><path d="M-0.36413 0.608853-0.118864 0.698287 0.0259478 0.546621-0.211542 0.465701Z" stroke="#BFBFBF" opacity="0"/><path d="M-0.0750353 0.713738 0.18543 0.808715 0.321233 0.647752 0.0697763 0.562073Z" stroke="#BFBFBF" opacity="0"/><path d="M-0.451283 0.351157-0.226628 0.427704-0.0880466 0.297693-0.306235 0.227924Z" stroke="#BFBFBF" opacity="0"/><path d="M-0.186506 0.44095 0.0509841 0.52187 0.182141 0.384505-0.0479242 0.310938Z" stroke="#BFBFBF" opacity="0"/><path d="M0.093375 0.535864 0.344832 0.621544 0.467473 0.476183 0.224532 0.398499Z" stroke="#BFBFBF" fill="#FFFFFF"/><path d="M-0.282281 0.206586-0.0640935 0.276354 0.0623259 0.157753-0.149648 0.0939011Z" stroke="#BFBFBF" opacity="0"/><path d="M-0.0251657 0.288437 0.2049 0.362004 0.324247 0.237008 0.101254 0.169836Z" stroke="#BFBFBF" opacity="0"/><path d="M0.245926 0.374738 0.488866 0.452422 0.600169 0.320499 0.365273 0.249742Z" stroke="#BFBFBF" opacity="0"/><path d="M-0.183402-0.694981-0.329672-0.604758-0.32042-0.354758-0.178996-0.453598Z" stroke="#BFBFBF" opacity="0"/><path d="M-0.356303-0.587205-0.517679-0.487664-0.502595-0.228498-0.347051-0.337205Z" stroke="#BFBFBF" opacity="0"/><path d="M-0.547085-0.468281-0.726035-0.357901-0.70389-0.0889837-0.532001-0.209115Z" stroke="#BFBFBF" fill="#EE0000"/><path d="M-0.177841-0.411596-0.319266-0.312756-0.310582-0.0781183-0.173694-0.184392Z" stroke="#BFBFBF" opacity="0"/><path d="M-0.34499-0.293752-0.500534-0.185044-0.486421 0.0574282-0.336306-0.059114Z" stroke="#BFBFBF" opacity="0"/><path d="M-0.528848-0.164125-0.700737-0.0439941-0.680092 0.206721-0.514736 0.0783472Z" stroke="#BFBFBF" opacity="0"/><path d="M-0.172607-0.144876-0.309496-0.0386018-0.30133 0.182049-0.168697 0.0693636Z" stroke="#BFBFBF" opacity="0"/><path d="M-0.334373-0.0183512-0.484488 0.098191-0.471256 0.325532-0.326207 0.202299Z" stroke="#BFBFBF" opacity="0"/><path d="M-0.511788 0.120415-0.677144 0.24879-0.65785 0.483091-0.498556 0.347757Z" stroke="#BFBFBF" opacity="0"/></g><g stroke-width="0.1" stroke-linejoin="round" opacity="0.5"><path d="M0.206844-0.103422 0.654001-0.50224 0.59354 0.29677 0.184643 0.78142Z" stroke="#BFBFBF" fill="#BFBFBF"/><path d="M-0.161033-0.681501 0.654001-0.50224 0.206844-0.103422-0.699152-0.349576Z" stroke="#BFBFBF" fill="#BFBFBF"/><path d="M-0.699152-0.349576 0.206844-0.103422 0.184643 0.78142-0.630493 0.484187Z" stroke="#BFBFBF" fill="#BFBFBF"/></g><g stroke-width="0" stroke-linejoin="round" stroke-opacity="0.5"><path d="M0.232205-0.0974414 0.382272-0.231286 0.369992 0.045155 0.224997 0.189821Z" stroke="#BFBFBF" opacity="0"/><path d="M0.406982-0.254538 0.540943-0.374017 0.524671-0.107772 0.394701 0.0219032Z" stroke="#BFBFBF" opacity="0"/><path d="M0.563101-0.394874 0.683416-0.502183 0.663995-0.245529 0.54683-0.128629Z" stroke="#BFBFBF" fill="#FFA100"/><path d="M0.223354 0.237845 0.368349 0.0931789 0.356932 0.350187 0.216681 0.50379Z" stroke="#BFBFBF" opacity="0"/><path d="M0.392278 0.0682186 0.522248-0.0614566 0.507063 0.18701 0.380861 0.325227Z" stroke="#BFBFBF" opacity="0"/><path d="M0.543789-0.0839309 0.660955-0.200831 0.642769 0.0395027 0.528605 0.164536Z" stroke="#BFBFBF" opacity="0"/><path d="M0.215154 0.548393 0.355404 0.39479 0.344762 0.634346 0.208958 0.795308Z" stroke="#BFBFBF" opacity="0"/><path d="M0.3786 0.368411 0.504803 0.230194 0.490599 0.462605 0.367958 0.607966Z" stroke="#BFBFBF" fill="#00D800"/><path d="M0.525759 0.206358 0.639923 0.0813252 0.622858 0.306846 0.511555 0.438769Z" stroke="#BFBFBF" opacity="0"/><path d="M-0.163088-0.712077 0.0689332-0.661046-0.0698799-0.565611-0.309358-0.621854Z" stroke="#BFBFBF" opacity="0"/><path d="M0.111806-0.651282 0.357083-0.597335 0.226865-0.496225-0.027007-0.555848Z" stroke="#BFBFBF" opacity="0"/><path d="M0.402513-0.586988 0.662215-0.529869 0.5419-0.42256 0.272296-0.485878Z" stroke="#BFBFBF" fill="#FFFFFF"/><path d="M-0.335816-0.604576-0.0963381-0.548334-0.249928-0.44274-0.497193-0.505035Z" stroke="#BFBFBF" opacity="0"/><path d="M-0.0520068-0.537526 0.201865-0.477903 0.0573471-0.365688-0.205596-0.431933Z" stroke="#BFBFBF" opacity="0"/><path d="M0.248986-0.466414 0.51859-0.403097 0.384629-0.283617 0.104468-0.3542Z" stroke="#BFBFBF" opacity="0"/><path d="M-0.526507-0.485888-0.279242-0.423593-0.4501-0.306128-0.705457-0.375507Z" stroke="#BFBFBF" fill="#00D800"/><path d="M-0.233382-0.411564 0.0295617-0.345319-0.13175-0.220065-0.404239-0.294099Z" stroke="#BFBFBF" opacity="0"/><path d="M0.0784748-0.332488 0.358636-0.261906 0.208568-0.128061-0.0828369-0.207234Z" stroke="#BFBFBF" opacity="0"/><path d="M-0.720046-0.341518-0.464688-0.272139-0.451075 0.00268423-0.697901-0.0726014Z" stroke="#BFBFBF" fill="#FFFFFF"/><path d="M-0.418971-0.258946-0.146482-0.184912-0.14259 0.096026-0.405358 0.0158778Z" stroke="#BFBFBF" opacity="0"/><path d="M-0.0977062-0.170836 0.193699-0.0916626 0.186491 0.1956-0.0938144 0.110102Z" stroke="#BFBFBF" opacity="0"/><path d="M-0.69483-0.0263151-0.448004 0.0489705-0.43534 0.304631-0.674184 0.2244Z" stroke="#BFBFBF" opacity="0"/><path d="M-0.403838 0.0631333-0.141071 0.143282-0.137459 0.40402-0.391174 0.318794Z" stroke="#BFBFBF" opacity="0"/><path d="M-0.0940598 0.158357 0.186246 0.243854 0.179573 0.509799-0.0904479 0.419096Z" stroke="#BFBFBF" opacity="0"/><path d="M-0.67132 0.267561-0.432476 0.347792-0.420665 0.586226-0.652026 0.501862Z" stroke="#BFBFBF" opacity="0"/><path d="M-0.38976 0.362762-0.136045 0.447988-0.132683 0.690631-0.37795 0.601197Z" stroke="#BFBFBF" opacity="0"/><path d="M-0.0906758 0.463889 0.179345 0.554592 0.17315 0.801508-0.0873145 0.706531Z" stroke="#BFBFBF" opacity="0"/></g></svg>