<svg viewBox="0 0 247 214.36" xmlns="http://www.w3.org/2000/svg" xmlns:xlink="http://www.w3.org/1999/xlink" overflow="hidden"><defs></defs><g id="Layer_2"><g id="图层_1"><path d="M123.52 142.37 123.52 95.5 164.12 165.82 123.51 142.38 123.52 142.37Z" fill="#EE0000"/><path d="M245.45 212.77 204.81 189.31 204.81 142.38 245.45 212.77Z" fill="#00D800"/><path d="M245.45 212.8 164.27 212.8 204.83 189.38 204.84 189.35 245.45 212.8Z" fill="#EE0000"/><path d="M204.81 189.33 204.84 189.35 204.83 189.38 164.27 212.8 164.17 212.8 123.51 189.33 204.8 189.33 204.81 189.33Z" fill="#EE0000"/><path d="M204.81 189.31 204.81 189.33 204.79 189.3 204.81 189.31Z" fill="#00D800"/><path d="M204.81 142.38 204.81 189.31 204.79 189.3 164.14 118.89 204.8 142.36 204.81 142.38Z" fill="#00D800"/><path d="M204.81 142.37 204.81 142.38 204.8 142.36 204.81 142.37Z" fill="#00D800"/><path d="M204.8 142.36 164.14 118.89 164.14 71.94 204.8 142.36Z" fill="#00D800"/><path d="M204.8 189.33 123.51 189.33 123.5 189.33 164.15 165.86 204.8 189.33Z" fill="#0000F2"/><path d="M164.14 118.89 204.79 189.3 164.17 165.85 164.14 165.83 164.14 118.89Z" fill="#00D800"/><path d="M164.17 212.8 82.83 212.8 123.49 189.33 123.5 189.33 123.51 189.33 164.17 212.8Z" fill="#00D800"/><path d="M164.14 165.85 164.15 165.86 123.5 189.33 82.84 165.86 82.85 165.85 82.86 165.85 164.14 165.85Z" fill="#0000F2"/><path d="M164.14 165.83 164.14 165.85 164.12 165.82 164.14 165.83Z" fill="#404040"/><path d="M164.14 118.89 164.14 165.83 164.12 165.82 123.52 95.5 123.52 95.44 164.14 118.89Z" fill="#EE0000"/><path d="M164.14 71.94 164.14 118.89 123.52 48.54 123.52 48.45 123.52 48.43 164.09 71.85 164.14 71.93 164.14 71.94Z" fill="#FEFE00"/><path d="M123.52 48.54 164.14 118.89 123.52 95.44 123.52 95.41 123.52 48.54Z" fill="#EE0000"/><path d="M164.14 165.85 82.86 165.85 82.86 165.84 123.5 142.38 164.14 165.85Z" fill="#0000F2"/><path d="M164.09 71.85 123.52 48.43 123.52 1.59 164.09 71.85Z" fill="#FEFE00"/><path d="M82.84 165.86 123.5 189.33 123.49 189.33 42.19 189.33 82.84 165.86Z" fill="#EE0000"/><path d="M123.49 189.33 82.83 212.8 42.18 189.33 42.19 189.33 123.49 189.33Z" fill="#EE0000"/><path d="M123.47 142.37 123.48 142.38 82.88 165.82 123.47 95.5 123.47 142.37Z" fill="#00D800"/><path d="M123.47 95.44 123.47 95.5 82.88 165.82 82.86 165.83 82.86 118.89 82.86 118.88 123.47 95.44Z" fill="#00D800"/><path d="M123.47 95.41 123.47 95.44 82.86 118.88 123.47 48.54 123.47 95.41Z" fill="#FEFE00"/><path d="M123.47 48.48 123.47 48.54 82.86 118.88 82.86 71.93 123.47 48.48Z" fill="#00D800"/><path d="M123.47 48.45 123.47 48.48 82.86 71.93 123.47 1.59 123.47 48.45Z" fill="#00D800"/><path d="M82.86 118.89 82.86 165.83 82.83 165.85 42.21 189.3 82.86 118.89Z" fill="#0000F2"/><path d="M82.86 71.93 82.86 118.88 82.86 118.89 42.19 142.37 82.86 71.93Z" fill="#0000F2"/><path d="M82.83 212.8 1.54 212.8 42.18 189.33 82.83 212.8Z" fill="#EE0000"/><path d="M42.18 189.33 1.54 212.8 1.53 212.8 1.54 212.78 42.16 189.33 42.16 189.32 42.21 189.3 42.19 189.33 42.18 189.33Z" fill="#EE0000"/><path d="M42.16 189.32 42.16 189.33 1.54 212.78 42.14 142.45 42.14 189.3 42.16 189.32Z" fill="#0000F2"/><path d="M42.16 189.32 42.14 189.3 42.14 142.45 42.19 142.37 82.86 118.89 42.21 189.3 42.16 189.32Z" fill="#0000F2"/><path d="M1.5 212.8 1.54 212.78 42.16 189.33 42.16 189.32 42.21 189.3 82.83 165.85 82.86 165.83 82.88 165.82 123.48 142.38 123.5 142.37" stroke="#000000" stroke-width="3" stroke-linecap="round" stroke-miterlimit="10" fill="none"/><path d="M245.5 212.8 245.45 212.77 204.81 189.31 204.79 189.3 164.17 165.85 164.14 165.83 164.12 165.82 123.51 142.38 123.5 142.37" stroke="#000000" stroke-width="3" stroke-linecap="round" stroke-miterlimit="10" fill="none"/><path d="M82.86 165.85 164.14 165.85 164.17 165.85" stroke="#000000" stroke-width="3" stroke-linecap="round" stroke-miterlimit="10" fill="none"/><line x1="82.83" y1="165.85" x2="82.85" y2="165.85" stroke="#000000" stroke-width="3" stroke-linecap="round" stroke-miterlimit="10" fill="none"/><line x1="204.81" y1="189.33" x2="204.83" y2="189.33" stroke="#000000" stroke-width="3" stroke-linecap="round" stroke-miterlimit="10" fill="none"/><line x1="123.51" y1="189.33" x2="204.8" y2="189.33" stroke="#000000" stroke-width="3" stroke-linecap="round" stroke-miterlimit="10" fill="none"/><line x1="42.19" y1="189.33" x2="123.49" y2="189.33" stroke="#000000" stroke-width="3" stroke-linecap="round" stroke-miterlimit="10" fill="none"/><path d="M82.83 212.8 123.49 189.33 123.5 189.33 164.15 165.86 164.17 165.85" stroke="#000000" stroke-width="3" stroke-linecap="round" stroke-miterlimit="10" fill="none"/><path d="M164.17 212.8 123.51 189.33 123.5 189.33 82.84 165.86 82.83 165.85" stroke="#000000" stroke-width="3" stroke-linecap="round" stroke-miterlimit="10" fill="none"/><path d="M82.83 212.8 42.18 189.33 42.17 189.33" stroke="#000000" stroke-width="3" stroke-linecap="round" stroke-miterlimit="10" fill="none"/><path d="M164.17 212.86 164.27 212.8 204.83 189.38" stroke="#000000" stroke-width="3" stroke-linecap="round" stroke-miterlimit="10" fill="none"/><line x1="245.46" y1="212.8" x2="245.5" y2="212.8" stroke="#000000" stroke-width="3" stroke-linecap="round" stroke-miterlimit="10" fill="none"/><path d="M1.54 212.8 82.83 212.8 164.17 212.8 164.27 212.8 245.45 212.8" stroke="#000000" stroke-width="3" stroke-linecap="round" stroke-miterlimit="10" fill="none"/><line x1="1.5" y1="212.8" x2="1.53" y2="212.8" stroke="#000000" stroke-width="3" stroke-linecap="round" stroke-miterlimit="10" fill="none"/><path d="M123.52 1.5 123.52 1.59 123.52 48.43 123.52 48.45 123.52 48.54 123.52 95.41 123.52 95.44 123.52 95.5 123.52 142.37" stroke="#000000" stroke-width="3" stroke-linecap="round" stroke-miterlimit="10" fill="none"/><path d="M82.86 165.84 123.5 142.38 123.51 142.38 123.52 142.37" stroke="#000000" stroke-width="3" stroke-linecap="round" stroke-miterlimit="10" fill="none"/><path d="M1.53 212.8 1.54 212.8 42.18 189.33 42.19 189.33 82.84 165.86 82.85 165.85 82.86 165.85" stroke="#000000" stroke-width="3" stroke-linecap="round" stroke-miterlimit="10" fill="none"/><path d="M123.52 95.41 123.51 95.43 123.5 95.45 123.47 95.5 82.88 165.82 82.86 165.84" stroke="#000000" stroke-width="3" stroke-linecap="round" stroke-miterlimit="10" fill="none"/><path d="M82.86 118.89 42.21 189.3 42.19 189.33" stroke="#000000" stroke-width="3" stroke-linecap="round" stroke-miterlimit="10" fill="none"/><path d="M123.52 48.45 123.5 48.49 123.47 48.54 82.86 118.88" stroke="#000000" stroke-width="3" stroke-linecap="round" stroke-miterlimit="10" fill="none"/><path d="M82.86 118.89 82.86 165.83 82.86 165.84 82.86 165.85" stroke="#000000" stroke-width="3" stroke-linecap="round" stroke-miterlimit="10" fill="none"/><line x1="82.86" y1="71.93" x2="82.86" y2="118.88" stroke="#000000" stroke-width="3" stroke-linecap="round" stroke-miterlimit="10" fill="none"/><path d="M42.19 142.37 82.86 118.89 82.86 118.88 123.47 95.44 123.48 95.43 123.5 95.42 123.52 95.41" stroke="#000000" stroke-width="3" stroke-linecap="round" stroke-miterlimit="10" fill="none"/><path d="M82.86 71.93 123.47 48.48 123.48 48.47 123.52 48.45" stroke="#000000" stroke-width="3" stroke-linecap="round" stroke-miterlimit="10" fill="none"/><path d="M42.14 142.34 42.14 142.45 42.14 189.3" stroke="#000000" stroke-width="3" stroke-linecap="round" stroke-miterlimit="10" fill="none"/><path d="M123.52 1.5 123.5 1.54 123.47 1.59 82.86 71.93 42.19 142.37 42.14 142.45 1.54 212.78 1.53 212.8 1.52 212.81" stroke="#000000" stroke-width="3" stroke-linecap="round" stroke-miterlimit="10" fill="none"/><path d="M245.46 212.8 245.45 212.8 204.84 189.35 204.81 189.33 204.8 189.33 164.15 165.86 164.14 165.85 123.5 142.38 123.48 142.38 123.47 142.37" stroke="#000000" stroke-width="3" stroke-linecap="round" stroke-miterlimit="10" fill="none"/><path d="M123.47 1.5 123.47 1.59 123.47 48.45 123.47 48.48 123.47 48.54 123.47 95.41 123.47 95.44 123.47 95.5 123.47 142.37" stroke="#000000" stroke-width="3" stroke-linecap="round" stroke-miterlimit="10" fill="none"/><path d="M164.14 165.85 164.12 165.82 123.52 95.5 123.5 95.45 123.48 95.43 123.47 95.41" stroke="#000000" stroke-width="3" stroke-linecap="round" stroke-miterlimit="10" fill="none"/><path d="M204.81 189.33 204.79 189.3 164.14 118.89 123.52 48.54 123.5 48.49 123.48 48.47 123.47 48.45" stroke="#000000" stroke-width="3" stroke-linecap="round" stroke-miterlimit="10" fill="none"/><path d="M204.81 142.37 204.8 142.36 164.14 118.89 123.52 95.44 123.51 95.43 123.5 95.42 123.47 95.41" stroke="#000000" stroke-width="3" stroke-linecap="round" stroke-miterlimit="10" fill="none"/><path d="M164.14 71.94 164.14 118.89 164.14 165.83 164.14 165.85" stroke="#000000" stroke-width="3" stroke-linecap="round" stroke-miterlimit="10" fill="none"/><path d="M204.81 142.37 204.81 142.38 204.81 189.31 204.81 189.33" stroke="#000000" stroke-width="3" stroke-linecap="round" stroke-miterlimit="10" fill="none"/><path d="M164.19 71.91 164.09 71.85 123.52 48.43" stroke="#000000" stroke-width="3" stroke-linecap="round" stroke-miterlimit="10" fill="none"/><path d="M245.47 212.81 245.46 212.8 245.45 212.77 204.81 142.38 204.8 142.36 164.14 71.94 164.14 71.93 164.09 71.85 123.52 1.59 123.5 1.54 123.47 1.5" stroke="#000000" stroke-width="3" stroke-linecap="round" stroke-miterlimit="10" fill="none"/></g></g></svg>