<svg version="1.1" viewBox="0 0 252.4 292.21" xmlns="http://www.w3.org/2000/svg" xmlns:xlink="http://www.w3.org/1999/xlink" overflow="hidden"><defs></defs><g id="图层_2"><g id="图层_1-2"><path d=" M 250.83 218.35 L 250.7 218.42 L 250.66 218.35 L 250.83 218.35 Z" fill="#404040"/><path d=" M 250.71 218.44 L 250.72 218.46 L 250.7 218.44 L 250.71 218.44 Z" fill="#404040"/><path d=" M 250.72 218.48 L 250.63 218.48 L 250.68 218.45 L 250.72 218.48 Z" fill="#404040"/><path d=" M 250.7 218.42 L 250.71 218.44 L 250.7 218.44 L 250.68 218.44 L 250.7 218.42 Z" fill="#404040"/><path d=" M 250.7 218.42 L 250.68 218.44 L 250.52 218.35 L 250.66 218.35 L 250.7 218.42 Z" fill="#404040"/><path d=" M 250.7 218.44 L 250.68 218.45 L 250.66 218.45 L 250.68 218.44 L 250.7 218.44 Z" fill="#404040"/><path d=" M 250.52 218.35 L 250.68 218.44 L 250.66 218.45 L 250.49 218.35 L 250.52 218.35 Z" fill="#404040"/><path d=" M 250.68 218.45 L 250.63 218.48 L 250.59 218.48 L 250.66 218.45 L 250.68 218.45 Z" fill="#404040"/><path d=" M 250.49 218.35 L 250.66 218.45 L 250.59 218.48 L 168.01 218.48 L 167.9 218.42 L 168.03 218.35 L 250.49 218.35 Z" fill="#404040"/><path d=" M 209.2 146.17 L 250.66 218.35 L 250.52 218.35 L 209.2 194.37 L 209.2 146.17 Z" fill="#00D800"/><path d=" M 250.59 218.48 L 209.31 242.45 L 168.01 218.48 L 250.59 218.48 Z" fill="#FEFE00"/><path d=" M 250.49 218.35 L 168.03 218.35 L 209.22 194.44 L 209.24 194.41 L 250.49 218.35 Z" fill="#EE0000"/><path d=" M 209.32 242.46 L 209.29 242.46 L 209.31 242.45 L 209.32 242.46 Z" fill="#404040"/><path d=" M 209.29 242.46 L 167.77 266.56 L 126.25 242.46 L 209.29 242.46 Z" fill="#FEFE00"/><path d=" M 209.2 194.39 L 209.24 194.41 L 209.22 194.44 L 168.03 218.35 L 167.78 218.35 L 167.45 218.35 L 126.16 194.39 L 209.2 194.39 Z" fill="#EE0000"/><path d=" M 209.2 194.37 L 209.2 194.39 L 209.18 194.36 L 209.2 194.37 Z" fill="#00D800"/><path d=" M 209.2 146.17 L 209.2 194.37 L 209.18 194.36 L 167.67 122.06 L 209.2 146.17 Z" fill="#00D800"/><path d=" M 167.66 73.85 L 209.2 146.17 L 167.67 122.06 L 167.66 122.06 L 167.66 122.05 L 167.66 73.85 Z" fill="#00D800"/><path d=" M 209.2 194.39 L 126.16 194.39 L 126.15 194.39 L 167.68 170.29 L 209.2 194.39 Z" fill="#EE0000"/><path d=" M 167.67 122.06 L 209.18 194.36 L 167.69 170.28 L 167.66 170.26 L 167.66 122.06 L 167.67 122.06 Z" fill="#00D800"/><path d=" M 168.03 218.35 L 167.9 218.42 L 167.78 218.35 L 168.03 218.35 Z" fill="#404040"/><path d=" M 168.01 218.48 L 167.79 218.48 L 167.9 218.42 L 168.01 218.48 Z" fill="#404040"/><path d=" M 167.9 218.42 L 167.79 218.48 L 167.69 218.48 L 167.63 218.44 L 167.78 218.35 L 167.9 218.42 Z" fill="#404040"/><path d=" M 167.78 218.35 L 167.63 218.44 L 167.62 218.44 L 167.45 218.35 L 167.78 218.35 Z" fill="#404040"/><path d=" M 167.77 266.56 L 167.76 266.57 L 84.73 266.57 L 84.72 266.56 L 126.25 242.46 L 167.77 266.56 Z" fill="#FEFE00"/><path d=" M 167.76 266.57 L 126.25 290.66 L 126.24 290.66 L 84.73 266.57 L 167.76 266.57 Z" fill="#FEFE00"/><path d=" M 167.79 218.48 L 168.01 218.48 L 209.31 242.45 L 209.29 242.46 L 126.25 242.46 L 167.54 218.48 L 167.69 218.48 L 167.79 218.48 Z" fill="#FEFE00"/><path d=" M 167.67 170.28 L 167.68 170.29 L 126.15 194.39 L 84.62 170.29 L 84.63 170.28 L 84.64 170.28 L 167.66 170.28 L 167.67 170.28 Z" fill="#EE0000"/><path d=" M 167.66 122.05 L 167.66 122.06 L 167.66 170.26 L 167.64 170.25 L 126.17 98.03 L 126.17 97.98 L 167.66 122.05 Z" fill="#00D800"/><path d=" M 167.66 170.26 L 167.66 170.27 L 167.64 170.25 L 167.66 170.26 Z" fill="#404040"/><path d=" M 167.66 73.85 L 167.66 122.05 L 126.17 49.81 L 126.17 49.74 L 126.17 49.72 L 167.62 73.78 L 167.66 73.85 Z" fill="#00D800"/><path d=" M 126.17 49.81 L 167.66 122.05 L 126.17 97.98 L 126.17 97.96 L 126.17 49.81 Z" fill="#00D800"/><path d=" M 167.63 218.44 L 167.69 218.48 L 167.54 218.48 L 167.62 218.44 L 167.63 218.44 Z" fill="#404040"/><path d=" M 126.17 1.61 L 167.62 73.78 L 126.17 49.72 L 126.17 1.61 Z" fill="#00D800"/><path d=" M 167.62 218.44 L 167.54 218.48 L 84.94 218.48 L 84.77 218.39 L 84.84 218.35 L 167.45 218.35 L 167.62 218.44 Z" fill="#404040"/><path d=" M 167.54 218.48 L 126.25 242.46 L 84.94 218.48 L 167.54 218.48 Z" fill="#FEFE00"/><path d=" M 126.16 194.39 L 167.45 218.35 L 84.84 218.35 L 126.14 194.39 L 126.15 194.39 L 126.16 194.39 Z" fill="#EE0000"/><path d=" M 126.25 242.46 L 84.72 266.56 L 43.2 242.46 L 126.25 242.46 Z" fill="#FEFE00"/><path d=" M 126.17 146.17 L 126.17 98.03 L 167.64 170.25 L 126.16 146.18 L 126.17 146.17 Z" fill="#00D800"/><path d=" M 84.62 170.29 L 126.15 194.39 L 126.14 194.39 L 43.1 194.39 L 84.62 170.29 Z" fill="#EE0000"/><path d=" M 126.14 146.18 L 126.16 146.18 L 167.66 170.27 L 167.66 170.28 L 84.64 170.28 L 84.64 170.27 L 126.14 146.18 Z" fill="#EE0000"/><path d=" M 126.13 146.17 L 126.14 146.18 L 84.66 170.25 L 126.13 98.03 L 126.13 146.17 Z" fill="#0000F2"/><path d=" M 126.13 97.98 L 126.13 98.03 L 84.66 170.25 L 84.64 170.26 L 84.64 122.06 L 84.64 122.05 L 126.13 97.98 Z" fill="#0000F2"/><path d=" M 126.13 97.96 L 126.13 97.98 L 84.64 122.05 L 126.13 49.81 L 126.13 97.96 Z" fill="#0000F2"/><path d=" M 126.13 49.76 L 126.13 49.81 L 84.64 122.05 L 84.64 73.85 L 126.13 49.76 Z" fill="#0000F2"/><path d=" M 126.13 49.74 L 126.13 49.76 L 84.64 73.85 L 126.13 1.61 L 126.13 49.74 Z" fill="#0000F2"/><path d=" M 84.94 218.48 L 84.61 218.48 L 84.77 218.39 L 84.94 218.48 Z" fill="#404040"/><path d=" M 84.84 218.35 L 84.77 218.39 L 84.71 218.35 L 84.84 218.35 Z" fill="#404040"/><path d=" M 84.71 218.35 L 84.62 218.35 L 84.37 218.35 L 43.09 194.39 L 43.1 194.39 L 126.14 194.39 L 84.84 218.35 L 84.71 218.35 Z" fill="#EE0000"/><path d=" M 84.64 122.06 L 84.64 170.26 L 84.61 170.28 L 43.12 194.36 L 84.64 122.06 Z" fill="#0000F2"/><path d=" M 84.64 73.85 L 84.64 122.05 L 84.64 122.06 L 43.1 146.17 L 84.64 73.85 Z" fill="#0000F2"/><path d=" M 84.62 218.35 L 84.5 218.42 L 84.37 218.35 L 84.62 218.35 Z" fill="#404040"/><path d=" M 84.5 218.42 L 84.62 218.35 L 84.71 218.35 L 84.77 218.39 L 84.61 218.48 L 84.5 218.42 Z" fill="#404040"/><path d=" M 84.61 218.48 L 84.39 218.48 L 84.5 218.42 L 84.61 218.48 Z" fill="#404040"/><path d=" M 84.37 218.35 L 84.5 218.42 L 84.39 218.48 L 1.89 218.48 L 1.73 218.39 L 1.8 218.35 L 84.37 218.35 Z" fill="#404040"/><path d=" M 43.17 242.41 L 43.15 242.43 L 1.89 218.48 L 84.39 218.48 L 43.17 242.41 Z" fill="#FEFE00"/><path d=" M 43.09 194.39 L 84.37 218.35 L 1.8 218.35 L 43.09 194.39 Z" fill="#EE0000"/><path d=" M 43.17 242.41 L 84.39 218.48 L 84.61 218.48 L 84.94 218.48 L 126.25 242.46 L 43.2 242.46 L 43.17 242.45 L 43.15 242.43 L 43.17 242.41 Z" fill="#FEFE00"/><path d=" M 43.07 194.38 L 43.12 194.36 L 43.1 194.39 L 43.09 194.39 L 1.8 218.35 L 1.77 218.35 L 43.07 194.39 L 43.07 194.38 Z" fill="#404040"/><path d=" M 43.07 194.38 L 43.05 194.36 L 43.05 146.25 L 43.1 146.17 L 84.64 122.06 L 43.12 194.36 L 43.07 194.38 Z" fill="#0000F2"/><path d=" M 1.89 218.48 L 1.87 218.48 L 1.72 218.4 L 1.73 218.39 L 1.89 218.48 Z" fill="#404040"/><path d=" M 1.87 218.48 L 1.58 218.48 L 1.72 218.4 L 1.87 218.48 Z" fill="#404040"/><path d=" M 1.8 218.35 L 1.73 218.39 L 1.71 218.38 L 1.77 218.35 L 1.8 218.35 Z" fill="#404040"/><path d=" M 1.77 218.35 L 1.71 218.38 L 1.66 218.35 L 1.77 218.35 Z" fill="#404040"/><path d=" M 1.64 218.35 L 1.7 218.39 L 1.58 218.46 L 1.64 218.35 Z" fill="#404040"/><path d=" M 1.66 218.35 L 1.71 218.38 L 1.7 218.39 L 1.64 218.35 L 1.66 218.35 Z" fill="#404040"/><path d=" M 1.64 218.35 L 43.05 146.25 L 43.05 194.36 L 43.07 194.38 L 43.07 194.39 L 1.77 218.35 L 1.66 218.35 L 1.64 218.35 Z" fill="#0000F2"/><path d=" M 1.77 218.35 L 43.07 194.39 L 43.07 194.38 L 43.12 194.36 L 84.61 170.28 L 84.64 170.26 L 84.66 170.25 L 126.14 146.18 L 126.15 146.17" stroke="#000000" stroke-width="3.07" stroke-linecap="round" stroke-miterlimit="10" fill="none"/><path d=" M 1.54 218.48 L 1.58 218.46 L 1.7 218.39 L 1.71 218.38" stroke="#000000" stroke-width="3.07" stroke-linecap="round" stroke-miterlimit="10" fill="none"/><path d=" M 250.52 218.35 L 209.2 194.37 L 209.18 194.36 L 167.69 170.28 L 167.66 170.26 L 167.64 170.25 L 126.16 146.18 L 126.15 146.17" stroke="#000000" stroke-width="3.07" stroke-linecap="round" stroke-miterlimit="10" fill="none"/><path d=" M 250.76 218.48 L 250.72 218.46 L 250.7 218.44 L 250.68 218.44" stroke="#000000" stroke-width="3.07" stroke-linecap="round" stroke-miterlimit="10" fill="none"/><line x1="167.67" y1="170.28" x2="167.69" y2="170.28" stroke="#000000" stroke-width="3.07" stroke-linecap="round" stroke-miterlimit="10" fill="none"/><line x1="84.64" y1="170.28" x2="167.66" y2="170.28" stroke="#000000" stroke-width="3.07" stroke-linecap="round" stroke-miterlimit="10" fill="none"/><line x1="84.61" y1="170.28" x2="84.63" y2="170.28" stroke="#000000" stroke-width="3.07" stroke-linecap="round" stroke-miterlimit="10" fill="none"/><path d=" M 126.16 194.39 L 209.2 194.39 L 209.22 194.39" stroke="#000000" stroke-width="3.07" stroke-linecap="round" stroke-miterlimit="10" fill="none"/><line x1="43.1" y1="194.39" x2="126.14" y2="194.39" stroke="#000000" stroke-width="3.07" stroke-linecap="round" stroke-miterlimit="10" fill="none"/><path d=" M 84.84 218.35 L 126.14 194.39 L 126.15 194.39 L 167.68 170.29 L 167.69 170.28" stroke="#000000" stroke-width="3.07" stroke-linecap="round" stroke-miterlimit="10" fill="none"/><path d=" M 167.45 218.35 L 126.16 194.39 L 126.15 194.39 L 84.62 170.29 L 84.61 170.28" stroke="#000000" stroke-width="3.07" stroke-linecap="round" stroke-miterlimit="10" fill="none"/><path d=" M 84.37 218.35 L 43.09 194.39 L 43.08 194.39" stroke="#000000" stroke-width="3.07" stroke-linecap="round" stroke-miterlimit="10" fill="none"/><line x1="168.02" y1="218.35" x2="209.22" y2="194.44" stroke="#000000" stroke-width="3.07" stroke-linecap="round" stroke-miterlimit="10" fill="none"/><line x1="250.73" y1="218.48" x2="250.76" y2="218.48" stroke="#000000" stroke-width="3.07" stroke-linecap="round" stroke-miterlimit="10" fill="none"/><path d=" M 250.59 218.48 L 250.63 218.48 L 250.72 218.48" stroke="#000000" stroke-width="3.07" stroke-linecap="round" stroke-miterlimit="10" fill="none"/><path d=" M 1.58 218.48 L 1.87 218.48 L 1.89 218.48" stroke="#000000" stroke-width="3.07" stroke-linecap="round" stroke-miterlimit="10" fill="none"/><line x1="1.54" y1="218.48" x2="1.57" y2="218.48" stroke="#000000" stroke-width="3.07" stroke-linecap="round" stroke-miterlimit="10" fill="none"/><path d=" M 126.17 1.54 L 126.17 1.61 L 126.17 49.72 L 126.17 49.74 L 126.17 49.81 L 126.17 97.96 L 126.17 97.98 L 126.17 98.03 L 126.17 146.17" stroke="#000000" stroke-width="3.07" stroke-linecap="round" stroke-miterlimit="10" fill="none"/><line x1="126.16" y1="146.18" x2="126.17" y2="146.17" stroke="#000000" stroke-width="3.07" stroke-linecap="round" stroke-miterlimit="10" fill="none"/><line x1="84.64" y1="170.27" x2="126.14" y2="146.18" stroke="#000000" stroke-width="3.07" stroke-linecap="round" stroke-miterlimit="10" fill="none"/><path d=" M 1.8 218.35 L 43.09 194.39 L 43.1 194.39 L 84.62 170.29 L 84.63 170.28 L 84.64 170.28" stroke="#000000" stroke-width="3.07" stroke-linecap="round" stroke-miterlimit="10" fill="none"/><path d=" M 1.57 218.48 L 1.58 218.48 L 1.72 218.4 L 1.73 218.39" stroke="#000000" stroke-width="3.07" stroke-linecap="round" stroke-miterlimit="10" fill="none"/><path d=" M 126.17 97.96 L 126.16 97.98 L 126.15 97.99 L 126.13 98.03 L 84.66 170.25 L 84.64 170.27" stroke="#000000" stroke-width="3.07" stroke-linecap="round" stroke-miterlimit="10" fill="none"/><path d=" M 84.64 122.06 L 43.12 194.36 L 43.1 194.39" stroke="#000000" stroke-width="3.07" stroke-linecap="round" stroke-miterlimit="10" fill="none"/><path d=" M 126.17 49.74 L 126.15 49.77 L 126.13 49.81 L 84.64 122.05" stroke="#000000" stroke-width="3.07" stroke-linecap="round" stroke-miterlimit="10" fill="none"/><path d=" M 84.64 122.06 L 84.64 170.26 L 84.64 170.27 L 84.64 170.28" stroke="#000000" stroke-width="3.07" stroke-linecap="round" stroke-miterlimit="10" fill="none"/><line x1="84.64" y1="73.85" x2="84.64" y2="122.05" stroke="#000000" stroke-width="3.07" stroke-linecap="round" stroke-miterlimit="10" fill="none"/><path d=" M 43.1 146.17 L 84.64 122.06 L 84.64 122.05 L 126.13 97.98 L 126.14 97.98 L 126.15 97.97 L 126.17 97.96" stroke="#000000" stroke-width="3.07" stroke-linecap="round" stroke-miterlimit="10" fill="none"/><path d=" M 84.64 73.85 L 126.13 49.76 L 126.14 49.76 L 126.17 49.74" stroke="#000000" stroke-width="3.07" stroke-linecap="round" stroke-miterlimit="10" fill="none"/><path d=" M 43.05 146.14 L 43.05 146.25 L 43.05 194.36" stroke="#000000" stroke-width="3.07" stroke-linecap="round" stroke-miterlimit="10" fill="none"/><path d=" M 126.17 1.54 L 126.15 1.57 L 126.13 1.61 L 84.64 73.85 L 43.1 146.17 L 43.05 146.25 L 1.64 218.35 L 1.58 218.46 L 1.57 218.48 L 1.56 218.5" stroke="#000000" stroke-width="3.07" stroke-linecap="round" stroke-miterlimit="10" fill="none"/><path d=" M 167.66 170.27 L 126.16 146.18 L 126.14 146.18 L 126.13 146.17" stroke="#000000" stroke-width="3.07" stroke-linecap="round" stroke-miterlimit="10" fill="none"/><path d=" M 250.49 218.35 L 209.24 194.41 L 209.2 194.39 L 167.68 170.29 L 167.67 170.28 L 167.66 170.28" stroke="#000000" stroke-width="3.07" stroke-linecap="round" stroke-miterlimit="10" fill="none"/><path d=" M 250.73 218.48 L 250.72 218.48 L 250.68 218.45 L 250.66 218.45" stroke="#000000" stroke-width="3.07" stroke-linecap="round" stroke-miterlimit="10" fill="none"/><path d=" M 126.13 1.54 L 126.13 1.61 L 126.13 49.74 L 126.13 49.76 L 126.13 49.81 L 126.13 97.96 L 126.13 97.98 L 126.13 98.03 L 126.13 146.17" stroke="#000000" stroke-width="3.07" stroke-linecap="round" stroke-miterlimit="10" fill="none"/><path d=" M 167.66 170.27 L 167.64 170.25 L 126.17 98.03 L 126.15 97.99 L 126.14 97.98 L 126.13 97.96" stroke="#000000" stroke-width="3.07" stroke-linecap="round" stroke-miterlimit="10" fill="none"/><path d=" M 167.66 122.05 L 126.17 49.81 L 126.15 49.77 L 126.14 49.76 L 126.13 49.74" stroke="#000000" stroke-width="3.07" stroke-linecap="round" stroke-miterlimit="10" fill="none"/><path d=" M 209.2 194.39 L 209.18 194.36 L 167.67 122.06" stroke="#000000" stroke-width="3.07" stroke-linecap="round" stroke-miterlimit="10" fill="none"/><path d=" M 167.66 122.05 L 126.17 97.98 L 126.16 97.98 L 126.15 97.97 L 126.13 97.96" stroke="#000000" stroke-width="3.07" stroke-linecap="round" stroke-miterlimit="10" fill="none"/><path d=" M 209.2 146.17 L 167.67 122.06 L 167.66 122.06" stroke="#000000" stroke-width="3.07" stroke-linecap="round" stroke-miterlimit="10" fill="none"/><path d=" M 167.66 73.85 L 167.66 122.05 L 167.66 122.06 L 167.66 170.26 L 167.66 170.27 L 167.66 170.28" stroke="#000000" stroke-width="3.07" stroke-linecap="round" stroke-miterlimit="10" fill="none"/><path d=" M 209.2 146.17 L 209.2 194.37 L 209.2 194.39" stroke="#000000" stroke-width="3.07" stroke-linecap="round" stroke-miterlimit="10" fill="none"/><path d=" M 167.71 73.83 L 167.62 73.78 L 126.17 49.72" stroke="#000000" stroke-width="3.07" stroke-linecap="round" stroke-miterlimit="10" fill="none"/><path d=" M 250.66 218.35 L 209.2 146.17 L 167.66 73.85 L 167.62 73.78 L 126.17 1.61 L 126.15 1.57 L 126.13 1.54" stroke="#000000" stroke-width="3.07" stroke-linecap="round" stroke-miterlimit="10" fill="none"/><path d=" M 250.74 218.5 L 250.73 218.48 L 250.72 218.46 L 250.71 218.44 L 250.7 218.42" stroke="#000000" stroke-width="3.07" stroke-linecap="round" stroke-miterlimit="10" fill="none"/><path d=" M 250.86 218.35 L 250.71 218.44 L 250.7 218.44 L 250.68 218.45 L 250.63 218.48 L 209.32 242.46 L 167.78 266.57 L 126.26 290.66 L 126.25 290.67" stroke="#000000" stroke-width="3.07" stroke-linecap="round" stroke-miterlimit="10" fill="none"/><path d=" M 43.18 242.46 L 84.71 266.57 L 126.24 290.66 L 126.25 290.67" stroke="#000000" stroke-width="3.07" stroke-linecap="round" stroke-miterlimit="10" fill="none"/><path d=" M 1.64 218.35 L 1.7 218.39 L 1.72 218.4 L 1.87 218.48 L 43.17 242.45 L 43.17 242.46" stroke="#000000" stroke-width="3.07" stroke-linecap="round" stroke-miterlimit="10" fill="none"/><path d=" M 167.78 266.57 L 167.76 266.57 L 84.73 266.57 L 84.71 266.57" stroke="#000000" stroke-width="3.07" stroke-linecap="round" stroke-miterlimit="10" fill="none"/><path d=" M 209.32 242.46 L 209.29 242.46 L 126.25 242.46 L 43.2 242.46 L 43.18 242.46 L 43.17 242.46" stroke="#000000" stroke-width="3.07" stroke-linecap="round" stroke-miterlimit="10" fill="none"/><path d=" M 167.78 218.35 L 167.63 218.44 L 167.62 218.44 L 167.54 218.48 L 126.25 242.46 L 84.72 266.56 L 84.71 266.57" stroke="#000000" stroke-width="3.07" stroke-linecap="round" stroke-miterlimit="10" fill="none"/><path d=" M 84.71 218.35 L 84.77 218.39 L 84.94 218.48 L 126.25 242.46 L 167.77 266.56 L 167.78 266.57" stroke="#000000" stroke-width="3.07" stroke-linecap="round" stroke-miterlimit="10" fill="none"/><path d=" M 167.78 218.35 L 167.9 218.42 L 168.01 218.48 L 209.31 242.45 L 209.32 242.46" stroke="#000000" stroke-width="3.07" stroke-linecap="round" stroke-miterlimit="10" fill="none"/><path d=" M 84.71 218.3 L 84.62 218.35 L 84.5 218.42 L 84.39 218.48 L 43.17 242.41" stroke="#000000" stroke-width="3.07" stroke-linecap="round" stroke-miterlimit="10" fill="none"/><path d=" M 250.86 218.35 L 250.83 218.35 L 250.66 218.35 L 250.52 218.35 L 250.49 218.35 L 168.03 218.35 L 167.78 218.35 L 167.45 218.35 L 84.84 218.35 L 84.71 218.35 L 84.62 218.35 L 84.37 218.35 L 1.8 218.35 L 1.77 218.35 L 1.66 218.35 L 1.64 218.35" stroke="#000000" stroke-width="3.07" stroke-linecap="round" stroke-miterlimit="10" fill="none"/><line x1="126.24" y1="290.66" x2="126.22" y2="290.67" stroke="#000000" stroke-width="3.07" stroke-linecap="round" stroke-miterlimit="10" fill="none"/><path d=" M 250.83 218.35 L 250.7 218.42 L 250.68 218.44 L 250.66 218.45 L 250.59 218.48 L 209.31 242.45 L 209.29 242.46 L 167.77 266.56 L 167.76 266.57 L 126.25 290.66" stroke="#000000" stroke-width="3.07" stroke-linecap="round" stroke-miterlimit="10" fill="none"/><path d=" M 1.66 218.35 L 1.71 218.38 L 1.73 218.39 L 1.89 218.48 L 43.15 242.43 L 43.17 242.45 L 43.2 242.46 L 84.72 266.56 L 84.73 266.57 L 126.24 290.66 L 126.25 290.66 L 126.26 290.66 L 126.27 290.67" stroke="#000000" stroke-width="3.07" stroke-linecap="round" stroke-miterlimit="10" fill="none"/></g></g></svg>