<svg viewBox="0 0 247 214.37" xmlns="http://www.w3.org/2000/svg" xmlns:xlink="http://www.w3.org/1999/xlink" overflow="hidden"><defs></defs><g id="Layer_2"><g id="图层_1"><path d="M123.5 142.38 123.49 142.39 123.48 142.38 123.48 95.51 123.5 95.46 123.53 95.51 164.12 165.83 123.51 142.39 123.5 142.38Z" fill="#0000F2"/><path d="M204.81 142.38 245.46 212.79 204.83 189.33 204.81 189.32 204.81 142.38Z" fill="#00D800"/><path d="M245.46 212.81 164.27 212.81 204.83 189.39 204.85 189.36 245.46 212.81Z" fill="#EE0000"/><path d="M204.81 189.34 204.85 189.36 204.83 189.39 164.27 212.81 164.17 212.81 123.5 189.34 123.51 189.33 204.8 189.33 204.81 189.34Z" fill="#EE0000"/><path d="M204.81 189.32 204.81 189.33 204.8 189.33 204.79 189.31 204.81 189.32Z" fill="#00D800"/><path d="M204.81 142.38 204.81 189.32 204.79 189.31 164.15 118.9 204.81 142.38Z" fill="#00D800"/><path d="M204.8 189.33 123.51 189.33 164.16 165.87 204.8 189.33Z" fill="#00D800"/><path d="M164.15 118.9 204.79 189.31 164.17 165.86 164.14 165.84 164.14 118.9 164.15 118.9Z" fill="#0000F2"/><path d="M164.17 212.81 82.83 212.81 123.5 189.34 164.17 212.81Z" fill="#FEFE00"/><path d="M164.14 71.94 204.81 142.38 164.15 118.9 164.14 118.9 164.14 118.89 164.14 71.94Z" fill="#00D800"/><path d="M164.15 165.86 164.16 165.87 123.51 189.33 123.49 189.33 82.84 165.87 82.86 165.86 164.14 165.86 164.15 165.86Z" fill="#00D800"/><path d="M164.14 118.89 164.14 118.9 164.14 165.84 164.12 165.83 123.53 95.51 123.53 95.45 164.14 118.89Z" fill="#0000F2"/><path d="M164.1 71.86 164.14 71.94 164.14 118.89 123.53 48.55 123.53 48.46 123.53 48.44 164.1 71.86Z" fill="#FEFE00"/><path d="M164.14 165.84 164.14 165.85 164.12 165.83 164.14 165.84Z" fill="#404040"/><path d="M123.53 48.55 164.14 118.89 123.53 95.45 123.53 95.42 123.53 48.55Z" fill="#0000F2"/><path d="M123.53 1.59 164.1 71.86 123.53 48.44 123.53 1.59Z" fill="#FEFE00"/><path d="M123.51 189.33 123.5 189.34 123.49 189.33 123.51 189.33Z" fill="#404040"/><path d="M123.49 189.33 123.5 189.34 82.83 212.81 42.19 189.34 42.2 189.33 42.21 189.33 123.49 189.33Z" fill="#EE0000"/><path d="M123.49 142.39 123.51 142.39 164.14 165.85 164.14 165.86 82.86 165.86 123.49 142.39Z" fill="#00D800"/><path d="M123.49 189.33 42.21 189.33 82.84 165.87 123.49 189.33Z" fill="#EE0000"/><path d="M123.48 142.38 123.49 142.39 82.88 165.83 123.48 95.51 123.48 142.38Z" fill="#EE0000"/><path d="M123.48 95.45 123.48 95.51 82.88 165.83 82.86 165.84 82.86 118.9 123.48 95.45Z" fill="#EE0000"/><path d="M123.48 95.42 123.48 95.45 82.86 118.9 123.48 48.55 123.48 95.42Z" fill="#EE0000"/><path d="M123.48 48.49 123.48 48.55 82.86 118.9 82.86 71.95 82.86 71.94 123.48 48.49Z" fill="#00D800"/><path d="M123.48 48.46 123.48 48.49 82.86 71.94 123.48 1.59 123.48 48.46Z" fill="#00D800"/><path d="M82.86 118.9 82.86 165.84 82.83 165.86 42.21 189.31 82.86 118.9Z" fill="#00D800"/><path d="M82.86 71.95 82.86 118.9 42.2 142.37 82.86 71.95Z" fill="#0000F2"/><path d="M82.86 118.9 42.21 189.31 42.17 189.33 42.14 189.31 42.14 142.48 42.19 142.38 42.2 142.37 82.86 118.9Z" fill="#0000F2"/><path d="M82.83 212.81 1.55 212.81 42.19 189.34 82.83 212.81Z" fill="#EE0000"/><path d="M42.2 189.33 42.19 189.34 42.17 189.33 42.2 189.33Z" fill="#EE0000"/><path d="M42.14 189.31 42.17 189.33 1.55 212.78 42.14 142.48 42.14 189.31Z" fill="#0000F2"/><path d="M1.5 212.81 1.55 212.78 42.17 189.33 42.21 189.31 82.83 165.86 82.86 165.84 82.88 165.83 123.49 142.39 123.5 142.38" stroke="#000000" stroke-width="3" stroke-linecap="round" stroke-miterlimit="10" fill="none"/><path d="M245.5 212.81 245.46 212.79 204.83 189.33 204.81 189.32 204.79 189.31 164.17 165.86 164.14 165.84 164.12 165.83 123.51 142.39 123.5 142.38" stroke="#000000" stroke-width="3" stroke-linecap="round" stroke-miterlimit="10" fill="none"/><line x1="164.15" y1="165.86" x2="164.17" y2="165.86" stroke="#000000" stroke-width="3" stroke-linecap="round" stroke-miterlimit="10" fill="none"/><path d="M82.83 165.86 82.86 165.86 164.14 165.86" stroke="#000000" stroke-width="3" stroke-linecap="round" stroke-miterlimit="10" fill="none"/><line x1="204.81" y1="189.33" x2="204.83" y2="189.33" stroke="#000000" stroke-width="3" stroke-linecap="round" stroke-miterlimit="10" fill="none"/><path d="M42.21 189.33 123.49 189.33 123.51 189.33 204.8 189.33" stroke="#000000" stroke-width="3" stroke-linecap="round" stroke-miterlimit="10" fill="none"/><line x1="42.17" y1="189.33" x2="42.2" y2="189.33" stroke="#000000" stroke-width="3" stroke-linecap="round" stroke-miterlimit="10" fill="none"/><path d="M82.83 212.81 123.5 189.34 123.51 189.33 164.16 165.87 164.17 165.86" stroke="#000000" stroke-width="3" stroke-linecap="round" stroke-miterlimit="10" fill="none"/><path d="M164.17 212.81 123.5 189.34 123.49 189.33 82.84 165.87 82.83 165.86" stroke="#000000" stroke-width="3" stroke-linecap="round" stroke-miterlimit="10" fill="none"/><path d="M82.83 212.81 42.19 189.34 42.17 189.33" stroke="#000000" stroke-width="3" stroke-linecap="round" stroke-miterlimit="10" fill="none"/><path d="M164.17 212.87 164.27 212.81 204.83 189.39" stroke="#000000" stroke-width="3" stroke-linecap="round" stroke-miterlimit="10" fill="none"/><line x1="245.47" y1="212.81" x2="245.5" y2="212.81" stroke="#000000" stroke-width="3" stroke-linecap="round" stroke-miterlimit="10" fill="none"/><path d="M1.55 212.81 82.83 212.81 164.17 212.81 164.27 212.81 245.46 212.81" stroke="#000000" stroke-width="3" stroke-linecap="round" stroke-miterlimit="10" fill="none"/><line x1="1.5" y1="212.81" x2="1.54" y2="212.81" stroke="#000000" stroke-width="3" stroke-linecap="round" stroke-miterlimit="10" fill="none"/><path d="M123.53 1.5 123.53 1.59 123.53 48.44 123.53 48.46 123.53 48.55 123.53 95.42 123.53 95.45 123.53 95.51 123.53 142.38" stroke="#000000" stroke-width="3" stroke-linecap="round" stroke-miterlimit="10" fill="none"/><line x1="123.51" y1="142.39" x2="123.52" y2="142.38" stroke="#000000" stroke-width="3" stroke-linecap="round" stroke-miterlimit="10" fill="none"/><path d="M42.2 189.33 42.21 189.33 82.84 165.87 82.86 165.86 123.49 142.39" stroke="#000000" stroke-width="3" stroke-linecap="round" stroke-miterlimit="10" fill="none"/><path d="M1.54 212.81 1.55 212.81 42.19 189.34" stroke="#000000" stroke-width="3" stroke-linecap="round" stroke-miterlimit="10" fill="none"/><path d="M123.53 95.42 123.52 95.44 123.5 95.46 123.48 95.51 82.88 165.83 82.86 165.86" stroke="#000000" stroke-width="3" stroke-linecap="round" stroke-miterlimit="10" fill="none"/><path d="M123.53 48.46 123.5 48.5 123.48 48.55 82.86 118.9 42.21 189.31 42.2 189.33 42.19 189.34" stroke="#000000" stroke-width="3" stroke-linecap="round" stroke-miterlimit="10" fill="none"/><path d="M82.86 71.95 82.86 118.9 82.86 165.84 82.86 165.86" stroke="#000000" stroke-width="3" stroke-linecap="round" stroke-miterlimit="10" fill="none"/><path d="M42.2 142.37 82.86 118.9 123.48 95.45 123.49 95.44 123.5 95.43 123.53 95.42" stroke="#000000" stroke-width="3" stroke-linecap="round" stroke-miterlimit="10" fill="none"/><path d="M82.86 71.94 123.48 48.49 123.49 48.48 123.53 48.46" stroke="#000000" stroke-width="3" stroke-linecap="round" stroke-miterlimit="10" fill="none"/><path d="M42.14 142.35 42.14 142.48 42.14 189.31" stroke="#000000" stroke-width="3" stroke-linecap="round" stroke-miterlimit="10" fill="none"/><path d="M123.53 1.5 123.51 1.54 123.48 1.59 82.86 71.94 82.86 71.95 42.2 142.37 42.19 142.38 42.14 142.48 1.55 212.78 1.54 212.81 1.53 212.82" stroke="#000000" stroke-width="3" stroke-linecap="round" stroke-miterlimit="10" fill="none"/><path d="M164.14 165.85 123.51 142.39 123.49 142.39 123.48 142.38" stroke="#000000" stroke-width="3" stroke-linecap="round" stroke-miterlimit="10" fill="none"/><path d="M245.47 212.81 245.46 212.81 204.85 189.36 204.81 189.34 204.8 189.33 164.16 165.87 164.15 165.86 164.14 165.86" stroke="#000000" stroke-width="3" stroke-linecap="round" stroke-miterlimit="10" fill="none"/><path d="M123.48 1.5 123.48 1.59 123.48 48.46 123.48 48.49 123.48 48.55 123.48 95.42 123.48 95.45 123.48 95.51 123.48 142.38" stroke="#000000" stroke-width="3" stroke-linecap="round" stroke-miterlimit="10" fill="none"/><path d="M164.14 165.85 164.12 165.83 123.53 95.51 123.5 95.46 123.49 95.44 123.48 95.42" stroke="#000000" stroke-width="3" stroke-linecap="round" stroke-miterlimit="10" fill="none"/><path d="M164.14 118.89 123.53 48.55 123.5 48.5 123.49 48.48 123.48 48.46" stroke="#000000" stroke-width="3" stroke-linecap="round" stroke-miterlimit="10" fill="none"/><path d="M204.81 189.33 204.8 189.33 204.79 189.31 164.15 118.9" stroke="#000000" stroke-width="3" stroke-linecap="round" stroke-miterlimit="10" fill="none"/><path d="M164.14 118.89 123.53 95.45 123.52 95.44 123.5 95.43 123.48 95.42" stroke="#000000" stroke-width="3" stroke-linecap="round" stroke-miterlimit="10" fill="none"/><path d="M204.81 142.38 164.15 118.9 164.14 118.9" stroke="#000000" stroke-width="3" stroke-linecap="round" stroke-miterlimit="10" fill="none"/><path d="M164.14 71.94 164.14 118.89 164.14 118.9 164.14 165.84 164.14 165.85 164.14 165.86" stroke="#000000" stroke-width="3" stroke-linecap="round" stroke-miterlimit="10" fill="none"/><path d="M204.81 142.38 204.81 189.32 204.81 189.33 204.81 189.34" stroke="#000000" stroke-width="3" stroke-linecap="round" stroke-miterlimit="10" fill="none"/><path d="M164.19 71.91 164.1 71.86 123.53 48.44" stroke="#000000" stroke-width="3" stroke-linecap="round" stroke-miterlimit="10" fill="none"/><path d="M245.48 212.82 245.47 212.81 245.46 212.79 204.81 142.38 164.14 71.94 164.1 71.86 123.53 1.59 123.51 1.54 123.48 1.5" stroke="#000000" stroke-width="3" stroke-linecap="round" stroke-miterlimit="10" fill="none"/></g></g></svg>