<svg version="1.1" width="128" height="128" viewBox="-0.9 -0.9 1.8 1.8" xmlns="http://www.w3.org/2000/svg" xmlns:xlink="http://www.w3.org/1999/xlink" overflow="hidden"><rect x="-0.9" y="-0.9" width="1.8" height="1.8" fill="#FFFFFF"/><g stroke-width="0.1" stroke-linejoin="round" opacity="1"><path d=" M -5.20033e-17 -0.758747 L 0.666752 -0.390862 L 5.26873e-17 -0.0181376 L -0.666752 -0.390862 Z" stroke="#000000" fill="#000000"/><path d=" M 5.26873e-17 -0.0181376 L 0.666752 -0.390862 L 0.662622 0.388441 L 5.23589e-17 0.763935 Z" stroke="#000000" fill="#000000"/><path d=" M -0.666752 -0.390862 L 5.26873e-17 -0.0181376 L 5.23589e-17 0.763935 L -0.662622 0.388441 Z" stroke="#000000" fill="#000000"/></g><g stroke-width="0" stroke-linejoin="round" stroke-opacity="0.5" opacity="1"><path d=" M -5.22153e-17 -0.787652 L 0.2001 -0.677246 L -1.69982e-17 -0.566359 L -0.2001 -0.677246 Z" stroke="#000000" fill="#FEFE00"/><path d=" M 0.235488 -0.657677 L 0.436458 -0.546791 L 0.23636 -0.435421 L 0.0353886 -0.546791 Z" stroke="#000000" fill="#FEFE00"/><path d=" M 0.472 -0.527137 L 0.673845 -0.415768 L 0.473751 -0.303912 L 0.271903 -0.415768 Z" stroke="#000000" fill="#FEFE00"/><path d=" M -0.235488 -0.657677 L -0.0353886 -0.546791 L -0.23636 -0.435421 L -0.436458 -0.546791 Z" stroke="#000000" fill="#FEFE00"/><path d=" M -1.18026e-17 -0.527137 L 0.200971 -0.415768 L 1.18633e-17 -0.303912 L -0.200971 -0.415768 Z" stroke="#000000" fill="#FEFE00"/><path d=" M 0.236514 -0.396028 L 0.438363 -0.284173 L 0.237394 -0.171828 L 0.0355431 -0.284173 Z" stroke="#000000" fill="#FEFE00"/><path d=" M -0.472 -0.527137 L -0.271903 -0.415768 L -0.473751 -0.303912 L -0.673845 -0.415768 Z" stroke="#000000" fill="#FEFE00"/><path d=" M -0.236514 -0.396028 L -0.0355431 -0.284173 L -0.237394 -0.171828 L -0.438363 -0.284173 Z" stroke="#000000" fill="#FEFE00"/><path d=" M 1.71088e-17 -0.264347 L 0.201851 -0.152002 L 5.28929e-17 -0.0391644 L -0.201851 -0.152002 Z" stroke="#000000" fill="#FEFE00"/><path d=" M 0.0177733 -0.00838982 L 0.219624 -0.121227 L 0.219203 0.115206 L 0.0177733 0.228325 Z" stroke="#000000" fill="#EE0000"/><path d=" M 0.25513 -0.141121 L 0.456099 -0.253466 L 0.455262 -0.0173145 L 0.25471 0.095312 Z" stroke="#000000" fill="#EE0000"/><path d=" M 0.491451 -0.273273 L 0.691545 -0.385129 L 0.690295 -0.149259 L 0.490614 -0.0371217 Z" stroke="#000000" fill="#EE0000"/><path d=" M 0.0177363 0.269987 L 0.219167 0.156868 L 0.218748 0.392318 L 0.0177363 0.505716 Z" stroke="#000000" fill="#EE0000"/><path d=" M 0.254599 0.136924 L 0.455152 0.0242977 L 0.454318 0.25947 L 0.25418 0.372375 Z" stroke="#000000" fill="#EE0000"/><path d=" M 0.49043 0.00444114 L 0.690111 -0.107696 L 0.688866 0.127198 L 0.489597 0.239613 Z" stroke="#000000" fill="#EE0000"/><path d=" M 0.0176995 0.547204 L 0.218711 0.433807 L 0.218294 0.668281 L 0.0176995 0.781954 Z" stroke="#000000" fill="#EE0000"/><path d=" M 0.25407 0.413814 L 0.454208 0.30091 L 0.453378 0.535109 L 0.253653 0.648289 Z" stroke="#000000" fill="#EE0000"/><path d=" M 0.489414 0.281004 L 0.688683 0.168589 L 0.687444 0.402514 L 0.488584 0.515203 Z" stroke="#000000" fill="#EE0000"/><path d=" M -0.691581 -0.385104 L -0.491487 -0.273248 L -0.49065 -0.0370969 L -0.690331 -0.149234 Z" stroke="#000000" fill="#0000F2"/><path d=" M -0.456136 -0.253441 L -0.255167 -0.141096 L -0.254746 0.0953368 L -0.455299 -0.0172897 Z" stroke="#000000" fill="#0000F2"/><path d=" M -0.219661 -0.121202 L -0.0178103 -0.00836495 L -0.0178103 0.22835 L -0.219241 0.115231 Z" stroke="#000000" fill="#0000F2"/><path d=" M -0.690147 -0.107671 L -0.490466 0.00446567 L -0.489633 0.239638 L -0.688902 0.127223 Z" stroke="#000000" fill="#0000F2"/><path d=" M -0.455188 0.0243223 L -0.254636 0.136949 L -0.254217 0.372399 L -0.454355 0.259495 Z" stroke="#000000" fill="#0000F2"/><path d=" M -0.219203 0.156892 L -0.0177733 0.270011 L -0.0177733 0.50574 L -0.218785 0.392343 Z" stroke="#000000" fill="#0000F2"/><path d=" M -0.688719 0.168614 L -0.48945 0.281029 L -0.48862 0.515228 L -0.68748 0.402538 Z" stroke="#000000" fill="#0000F2"/><path d=" M -0.454244 0.300934 L -0.254107 0.413839 L -0.25369 0.648313 L -0.453414 0.535133 Z" stroke="#000000" fill="#0000F2"/><path d=" M -0.218748 0.433831 L -0.0177363 0.547229 L -0.0177363 0.781978 L -0.218331 0.668305 Z" stroke="#000000" fill="#0000F2"/></g></svg>