<svg viewBox="0 0 450 200" xmlns="http://www.w3.org/2000/svg" xmlns:xlink="http://www.w3.org/1999/xlink" overflow="hidden"><g stroke-linejoin="round"><path d="M100 100 78.5641 180 20 180 20 121.436Z" stroke="#000000" stroke-width="4" fill="#FEFE00"/><path d="M20 180 0 200 73.2051 200 78.5641 180Z" stroke="#000000" stroke-width="4" fill="#FFA100"/><path d="M20 180 0 200 0 126.795 20 121.436Z" stroke="#000000" stroke-width="4" fill="#00D800"/><path d="M100 100 20 121.436 20 78.5641Z" stroke="#000000" stroke-width="4" fill="#FEFE00"/><path d="M20 121.436 0 126.795-1.42109e-14 73.2051 20 78.5641Z" stroke="#000000" stroke-width="4" fill="#00D800"/><path d="M100 100 20 78.5641 20 20 78.5641 20Z" stroke="#000000" stroke-width="4" fill="#FEFE00"/><path d="M20 20-1.42109e-14 0-1.42109e-14 73.2051 20 78.5641Z" stroke="#000000" stroke-width="4" fill="#00D800"/><path d="M20 20-1.42109e-14 0 73.2051 0 78.5641 20Z" stroke="#000000" stroke-width="4" fill="#EE0000"/><path d="M100 100 78.5641 20 121.436 20Z" stroke="#000000" stroke-width="4" fill="#FEFE00"/><path d="M78.5641 20 73.2051 0 126.795-1.42109e-14 121.436 20Z" stroke="#000000" stroke-width="4" fill="#EE0000"/><path d="M100 100 121.436 20 180 20 180 78.5641Z" stroke="#000000" stroke-width="4" fill="#FEFE00"/><path d="M180 20 200-5.68434e-14 126.795-1.42109e-14 121.436 20Z" stroke="#000000" stroke-width="4" fill="#EE0000"/><path d="M180 20 200-5.68434e-14 200 73.2051 180 78.5641Z" stroke="#000000" stroke-width="4" fill="#0000F2"/><path d="M100 100 180 78.5641 180 121.436Z" stroke="#000000" stroke-width="4" fill="#FEFE00"/><path d="M180 78.5641 200 73.2051 200 126.795 180 121.436Z" stroke="#000000" stroke-width="4" fill="#0000F2"/><path d="M100 100 180 121.436 180 180 121.436 180Z" stroke="#000000" stroke-width="4" fill="#FEFE00"/><path d="M180 180 200 200 200 126.795 180 121.436Z" stroke="#000000" stroke-width="4" fill="#0000F2"/><path d="M180 180 200 200 126.795 200 121.436 180Z" stroke="#000000" stroke-width="4" fill="#FFA100"/><path d="M100 100 121.436 180 78.5641 180Z" stroke="#000000" stroke-width="4" fill="#FEFE00"/><path d="M121.436 180 126.795 200 73.2051 200 78.5641 180Z" stroke="#000000" stroke-width="4" fill="#FFA100"/><path d="M350 100 371.436 20 328.564 20Z" stroke="#000000" stroke-width="4" fill="#FFFFFF"/><path d="M371.436 20 376.795 0 323.205-1.42109e-14 328.564 20Z" stroke="#000000" stroke-width="4" fill="#EE0000"/><path d="M350 100 328.564 20 270 20 270 78.5641Z" stroke="#000000" stroke-width="4" fill="#FFFFFF"/><path d="M270 20 250-5.68434e-14 323.205-1.42109e-14 328.564 20Z" stroke="#000000" stroke-width="4" fill="#EE0000"/><path d="M270 20 250-5.68434e-14 250 73.2051 270 78.5641Z" stroke="#000000" stroke-width="4" fill="#00D800"/><path d="M350 100 270 78.5641 270 121.436Z" stroke="#000000" stroke-width="4" fill="#FFFFFF"/><path d="M270 78.5641 250 73.2051 250 126.795 270 121.436Z" stroke="#000000" stroke-width="4" fill="#00D800"/><path d="M350 100 270 121.436 270 180 328.564 180Z" stroke="#000000" stroke-width="4" fill="#FFFFFF"/><path d="M270 180 250 200 250 126.795 270 121.436Z" stroke="#000000" stroke-width="4" fill="#00D800"/><path d="M270 180 250 200 323.205 200 328.564 180Z" stroke="#000000" stroke-width="4" fill="#FFA100"/><path d="M350 100 328.564 180 371.436 180Z" stroke="#000000" stroke-width="4" fill="#FFFFFF"/><path d="M328.564 180 323.205 200 376.795 200 371.436 180Z" stroke="#000000" stroke-width="4" fill="#FFA100"/><path d="M350 100 371.436 180 430 180 430 121.436Z" stroke="#000000" stroke-width="4" fill="#FFFFFF"/><path d="M430 180 450 200 376.795 200 371.436 180Z" stroke="#000000" stroke-width="4" fill="#FFA100"/><path d="M430 180 450 200 450 126.795 430 121.436Z" stroke="#000000" stroke-width="4" fill="#0000F2"/><path d="M350 100 430 121.436 430 78.5641Z" stroke="#000000" stroke-width="4" fill="#FFFFFF"/><path d="M430 121.436 450 126.795 450 73.2051 430 78.5641Z" stroke="#000000" stroke-width="4" fill="#0000F2"/><path d="M350 100 430 78.5641 430 20 371.436 20Z" stroke="#000000" stroke-width="4" fill="#FFFFFF"/><path d="M430 20 450 0 450 73.2051 430 78.5641Z" stroke="#000000" stroke-width="4" fill="#0000F2"/><path d="M430 20 450 0 376.795 0 371.436 20Z" stroke="#000000" stroke-width="4" fill="#EE0000"/></g></svg>