<svg viewBox="0 0 200 405" xmlns="http://www.w3.org/2000/svg" xmlns:xlink="http://www.w3.org/1999/xlink" overflow="hidden"><g stroke-linejoin="round"><path d="M100 100 78.5641 180 20 180 20 121.436Z" stroke="#000000" stroke-width="4" fill="#FEFE00"/><path d="M20 180 0 200 73.2051 200 78.5641 180Z" stroke="#000000" stroke-width="4" fill="#FFA100"/><path d="M20 180 0 200 0 126.795 20 121.436Z" stroke="#000000" stroke-width="4" fill="#00D800"/><path d="M100 100 20 121.436 20 78.5641Z" stroke="#000000" stroke-width="4" fill="#FEFE00"/><path d="M20 121.436 0 126.795-1.42109e-14 73.2051 20 78.5641Z" stroke="#000000" stroke-width="4" fill="#00D800"/><path d="M100 100 20 78.5641 20 20 78.5641 20Z" stroke="#000000" stroke-width="4" fill="#FEFE00"/><path d="M20 20-1.42109e-14 0-1.42109e-14 73.2051 20 78.5641Z" stroke="#000000" stroke-width="4" fill="#00D800"/><path d="M20 20-1.42109e-14 0 73.2051 0 78.5641 20Z" stroke="#000000" stroke-width="4" fill="#EE0000"/><path d="M100 100 78.5641 20 121.436 20Z" stroke="#000000" stroke-width="4" fill="#FEFE00"/><path d="M78.5641 20 73.2051 0 126.795-1.42109e-14 121.436 20Z" stroke="#000000" stroke-width="4" fill="#EE0000"/><path d="M100 100 121.436 20 180 20 180 78.5641Z" stroke="#000000" stroke-width="4" fill="#FEFE00"/><path d="M180 20 200-5.68434e-14 126.795-1.42109e-14 121.436 20Z" stroke="#000000" stroke-width="4" fill="#EE0000"/><path d="M180 20 200-5.68434e-14 200 73.2051 180 78.5641Z" stroke="#000000" stroke-width="4" fill="#0000F2"/><path d="M100 100 180 78.5641 180 121.436Z" stroke="#000000" stroke-width="4" fill="#FEFE00"/><path d="M180 78.5641 200 73.2051 200 126.795 180 121.436Z" stroke="#000000" stroke-width="4" fill="#0000F2"/><path d="M100 100 180 121.436 180 180 121.436 180Z" stroke="#000000" stroke-width="4" fill="#FEFE00"/><path d="M180 180 200 200 200 126.795 180 121.436Z" stroke="#000000" stroke-width="4" fill="#0000F2"/><path d="M180 180 200 200 126.795 200 121.436 180Z" stroke="#000000" stroke-width="4" fill="#FFA100"/><path d="M100 100 121.436 180 78.5641 180Z" stroke="#000000" stroke-width="4" fill="#FEFE00"/><path d="M121.436 180 126.795 200 73.2051 200 78.5641 180Z" stroke="#000000" stroke-width="4" fill="#FFA100"/><path d="M100 305 121.436 225 78.5641 225Z" stroke="#000000" stroke-width="4" fill="#FFFFFF"/><path d="M121.436 225 126.795 205 73.2051 205 78.5641 225Z" stroke="#000000" stroke-width="4" fill="#EE0000"/><path d="M100 305 78.5641 225 20 225 20 283.564Z" stroke="#000000" stroke-width="4" fill="#FFFFFF"/><path d="M20 225 5.68434e-14 205 73.2051 205 78.5641 225Z" stroke="#000000" stroke-width="4" fill="#EE0000"/><path d="M20 225 5.68434e-14 205 1.42109e-14 278.205 20 283.564Z" stroke="#000000" stroke-width="4" fill="#00D800"/><path d="M100 305 20 283.564 20 326.436Z" stroke="#000000" stroke-width="4" fill="#FFFFFF"/><path d="M20 283.564 1.42109e-14 278.205-1.42109e-14 331.795 20 326.436Z" stroke="#000000" stroke-width="4" fill="#00D800"/><path d="M100 305 20 326.436 20 385 78.5641 385Z" stroke="#000000" stroke-width="4" fill="#FFFFFF"/><path d="M20 385-2.84217e-14 405-1.42109e-14 331.795 20 326.436Z" stroke="#000000" stroke-width="4" fill="#00D800"/><path d="M20 385-2.84217e-14 405 73.2051 405 78.5641 385Z" stroke="#000000" stroke-width="4" fill="#FFA100"/><path d="M100 305 78.5641 385 121.436 385Z" stroke="#000000" stroke-width="4" fill="#FFFFFF"/><path d="M78.5641 385 73.2051 405 126.795 405 121.436 385Z" stroke="#000000" stroke-width="4" fill="#FFA100"/><path d="M100 305 121.436 385 180 385 180 326.436Z" stroke="#000000" stroke-width="4" fill="#FFFFFF"/><path d="M180 385 200 405 126.795 405 121.436 385Z" stroke="#000000" stroke-width="4" fill="#FFA100"/><path d="M180 385 200 405 200 331.795 180 326.436Z" stroke="#000000" stroke-width="4" fill="#0000F2"/><path d="M100 305 180 326.436 180 283.564Z" stroke="#000000" stroke-width="4" fill="#FFFFFF"/><path d="M180 326.436 200 331.795 200 278.205 180 283.564Z" stroke="#000000" stroke-width="4" fill="#0000F2"/><path d="M100 305 180 283.564 180 225 121.436 225Z" stroke="#000000" stroke-width="4" fill="#FFFFFF"/><path d="M180 225 200 205 200 278.205 180 283.564Z" stroke="#000000" stroke-width="4" fill="#0000F2"/><path d="M180 225 200 205 126.795 205 121.436 225Z" stroke="#000000" stroke-width="4" fill="#EE0000"/></g></svg>