<svg version="1.1" width="128" height="128" viewBox="-0.9 -0.9 1.8 1.8" xmlns="http://www.w3.org/2000/svg" xmlns:xlink="http://www.w3.org/1999/xlink" overflow="hidden"><rect x="-0.9" y="-0.9" width="1.8" height="1.8" fill="#FFFFFF"/><g stroke-width="0.1" stroke-linejoin="round" opacity="1"><path d=" M 0.332293 -0.278724 L 0.58946 -0.526176 L 0.55248 0.31694 L 0.307418 0.708818 Z" stroke="#000000" fill="#000000"/><path d=" M -0.258604 -0.596268 L 0.58946 -0.526176 L 0.332293 -0.278724 L -0.662249 -0.379911 Z" stroke="#000000" fill="#000000"/><path d=" M -0.662249 -0.379911 L 0.332293 -0.278724 L 0.307418 0.708818 L -0.615931 0.549805 Z" stroke="#000000" fill="#000000"/></g><g stroke-width="0" stroke-linejoin="round" stroke-opacity="0.5" opacity="1"><path d=" M 0.360391 -0.277881 L 0.447999 -0.362179 L 0.438453 -0.0667021 L 0.352499 0.0354179 Z" stroke="#000000" fill="#EE0000"/><path d=" M 0.462408 -0.377552 L 0.539305 -0.451545 L 0.528552 -0.172 L 0.452862 -0.0820748 Z" stroke="#000000" fill="#EE0000"/><path d=" M 0.552016 -0.465114 L 0.620055 -0.530583 L 0.608422 -0.26536 L 0.541262 -0.185569 Z" stroke="#000000" fill="#EE0000"/><path d=" M 0.351001 0.0878818 L 0.436955 -0.0142383 L 0.427868 0.267053 L 0.343513 0.385145 Z" stroke="#000000" fill="#EE0000"/><path d=" M 0.451114 -0.0324526 L 0.526803 -0.122377 L 0.516536 0.14453 L 0.442027 0.248838 Z" stroke="#000000" fill="#EE0000"/><path d=" M 0.539331 -0.138501 L 0.606491 -0.218292 L 0.595355 0.0356021 L 0.529063 0.128407 Z" stroke="#000000" fill="#EE0000"/><path d=" M 0.342088 0.43503 L 0.426443 0.316938 L 0.417782 0.58504 L 0.334974 0.717458 Z" stroke="#000000" fill="#EE0000"/><path d=" M 0.440359 0.296168 L 0.514868 0.191859 L 0.505054 0.446967 L 0.431698 0.56427 Z" stroke="#000000" fill="#EE0000"/><path d=" M 0.527216 0.173423 L 0.593507 0.0806182 L 0.582837 0.323893 L 0.517402 0.42853 Z" stroke="#000000" fill="#EE0000"/><path d=" M -0.261904 -0.627231 L -0.0165694 -0.606954 L -0.11223 -0.546797 L -0.369627 -0.56949 Z" stroke="#000000" fill="#FEFE00"/><path d=" M 0.0287779 -0.603075 L 0.284189 -0.581966 L 0.201718 -0.519237 L -0.0668826 -0.542918 Z" stroke="#000000" fill="#FEFE00"/><path d=" M 0.33148 -0.57792 L 0.5976 -0.555926 L 0.529562 -0.490457 L 0.249009 -0.515192 Z" stroke="#000000" fill="#FEFE00"/><path d=" M -0.388622 -0.558428 L -0.131225 -0.535734 L -0.238777 -0.468099 L -0.509441 -0.493668 Z" stroke="#000000" fill="#FEFE00"/><path d=" M -0.0835256 -0.531371 L 0.185075 -0.50769 L 0.0921153 -0.436983 L -0.191078 -0.463736 Z" stroke="#000000" fill="#FEFE00"/><path d=" M 0.234947 -0.503128 L 0.5155 -0.478393 L 0.438602 -0.4044 L 0.141987 -0.432421 Z" stroke="#000000" fill="#FEFE00"/><path d=" M -0.530849 -0.481195 L -0.260186 -0.455626 L -0.381995 -0.379024 L -0.667306 -0.408053 Z" stroke="#000000" fill="#FEFE00"/><path d=" M -0.209885 -0.450681 L 0.0733089 -0.423929 L -0.0322781 -0.343617 L -0.331694 -0.37408 Z" stroke="#000000" fill="#FEFE00"/><path d=" M 0.126055 -0.418744 L 0.422669 -0.390723 L 0.335061 -0.306425 L 0.0204678 -0.338433 Z" stroke="#000000" fill="#FEFE00"/><path d=" M -0.678653 -0.375117 L -0.393343 -0.346089 L -0.385496 -0.0459636 L -0.66401 -0.0811783 Z" stroke="#000000" fill="#0000F2"/><path d=" M -0.34241 -0.340271 L -0.0429941 -0.309808 L -0.0426323 -0.00323427 L -0.334563 -0.0401454 Z" stroke="#000000" fill="#0000F2"/><path d=" M 0.010455 -0.303702 L 0.325049 -0.271695 L 0.317157 0.0416043 L 0.0108168 0.00287128 Z" stroke="#000000" fill="#0000F2"/><path d=" M -0.662059 -0.0300541 L -0.383545 0.00516066 L -0.376081 0.29063 L -0.648114 0.249852 Z" stroke="#000000" fill="#0000F2"/><path d=" M -0.33384 0.0120348 L -0.0419095 0.048946 L -0.0415658 0.340196 L -0.326376 0.297504 Z" stroke="#000000" fill="#0000F2"/><path d=" M 0.010188 0.056151 L 0.316528 0.0948841 L 0.30904 0.392147 L 0.0105317 0.347401 Z" stroke="#000000" fill="#0000F2"/><path d=" M -0.646257 0.298538 L -0.374223 0.339315 L -0.367115 0.611175 L -0.632962 0.565393 Z" stroke="#000000" fill="#0000F2"/><path d=" M -0.325688 0.347138 L -0.0408784 0.38983 L -0.0405514 0.666878 L -0.31858 0.618998 Z" stroke="#000000" fill="#0000F2"/><path d=" M 0.00993435 0.39802 L 0.308443 0.442766 L 0.301329 0.725194 L 0.0102613 0.675068 Z" stroke="#000000" fill="#0000F2"/></g></svg>