<svg width="128" height="128" viewBox="-0.9 -0.9 1.8 1.8" xmlns="http://www.w3.org/2000/svg" xmlns:xlink="http://www.w3.org/1999/xlink" overflow="hidden"><g stroke-width="0.1" stroke-linejoin="round" opacity="1"><path d="M-0.522222-0.522222 0.522222-0.522222 0.522222 0.522222-0.522222 0.522222Z" stroke="#FFFFFF" fill="#FFFFFF"/></g><g stroke-width="0" stroke-linejoin="round" stroke-opacity="0.5" opacity="1"><path d="M-0.546296-0.546296-0.441358-0.546296-0.441358-0.441358-0.546296-0.441358Z" stroke="#FFFFFF" fill="#FFFFFF"/><path d="M-0.422839-0.546296-0.317901-0.546296-0.317901-0.441358-0.422839-0.441358Z" stroke="#FFFFFF" fill="#FFFFFF"/><path d="M-0.299383-0.546296-0.194444-0.546296-0.194444-0.441358-0.299383-0.441358Z" stroke="#FFFFFF" fill="#FFFFFF"/><path d="M-0.175926-0.546296-0.0709877-0.546296-0.0709877-0.441358-0.175926-0.441358Z" stroke="#FFFFFF" fill="#FFFFFF"/><path d="M-0.0524691-0.546296 0.0524691-0.546296 0.0524691-0.441358-0.0524691-0.441358Z" stroke="#FFFFFF" fill="#FFFFFF"/><path d="M0.0709877-0.546296 0.175926-0.546296 0.175926-0.441358 0.0709877-0.441358Z" stroke="#FFFFFF" fill="#FFFFFF"/><path d="M0.194444-0.546296 0.299383-0.546296 0.299383-0.441358 0.194444-0.441358Z" stroke="#FFFFFF" fill="#FFFFFF"/><path d="M0.317901-0.546296 0.422839-0.546296 0.422839-0.441358 0.317901-0.441358Z" stroke="#FFFFFF" fill="#FFFFFF"/><path d="M0.441358-0.546296 0.546296-0.546296 0.546296-0.441358 0.441358-0.441358Z" stroke="#FFFFFF" fill="#FFFFFF"/><path d="M-0.546296-0.422839-0.441358-0.422839-0.441358-0.317901-0.546296-0.317901Z" stroke="#FFFFFF" fill="#FFFFFF"/><path d="M-0.422839-0.422839-0.317901-0.422839-0.317901-0.317901-0.422839-0.317901Z" stroke="#FFFFFF" fill="#FFFFFF"/><path d="M-0.299383-0.422839-0.194444-0.422839-0.194444-0.317901-0.299383-0.317901Z" stroke="#FFFFFF" fill="#FFFFFF"/><path d="M-0.175926-0.422839-0.0709877-0.422839-0.0709877-0.317901-0.175926-0.317901Z" stroke="#FFFFFF" fill="#FFFFFF"/><path d="M-0.0524691-0.422839 0.0524691-0.422839 0.0524691-0.317901-0.0524691-0.317901Z" stroke="#FFFFFF" fill="#FFFFFF"/><path d="M0.0709877-0.422839 0.175926-0.422839 0.175926-0.317901 0.0709877-0.317901Z" stroke="#FFFFFF" fill="#FFFFFF"/><path d="M0.194444-0.422839 0.299383-0.422839 0.299383-0.317901 0.194444-0.317901Z" stroke="#FFFFFF" fill="#FFFFFF"/><path d="M0.317901-0.422839 0.422839-0.422839 0.422839-0.317901 0.317901-0.317901Z" stroke="#FFFFFF" fill="#FFFFFF"/><path d="M0.441358-0.422839 0.546296-0.422839 0.546296-0.317901 0.441358-0.317901Z" stroke="#FFFFFF" fill="#FFFFFF"/><path d="M-0.546296-0.299383-0.441358-0.299383-0.441358-0.194444-0.546296-0.194444Z" stroke="#FFFFFF" fill="#FFFFFF"/><path d="M-0.422839-0.299383-0.317901-0.299383-0.317901-0.194444-0.422839-0.194444Z" stroke="#FFFFFF" fill="#FFFFFF"/><path d="M-0.299383-0.299383-0.194444-0.299383-0.194444-0.194444-0.299383-0.194444Z" stroke="#FFFFFF" fill="#FFFFFF"/><path d="M-0.175926-0.299383-0.0709877-0.299383-0.0709877-0.194444-0.175926-0.194444Z" stroke="#FFFFFF" fill="#FFFFFF"/><path d="M-0.0524691-0.299383 0.0524691-0.299383 0.0524691-0.194444-0.0524691-0.194444Z" stroke="#FFFFFF" fill="#FFFFFF"/><path d="M0.0709877-0.299383 0.175926-0.299383 0.175926-0.194444 0.0709877-0.194444Z" stroke="#FFFFFF" fill="#FFFFFF"/><path d="M0.194444-0.299383 0.299383-0.299383 0.299383-0.194444 0.194444-0.194444Z" stroke="#FFFFFF" fill="#FFFFFF"/><path d="M0.317901-0.299383 0.422839-0.299383 0.422839-0.194444 0.317901-0.194444Z" stroke="#FFFFFF" fill="#FFFFFF"/><path d="M0.441358-0.299383 0.546296-0.299383 0.546296-0.194444 0.441358-0.194444Z" stroke="#FFFFFF" fill="#FFFFFF"/><path d="M-0.546296-0.175926-0.441358-0.175926-0.441358-0.0709877-0.546296-0.0709877Z" stroke="#FFFFFF" fill="#FFFFFF"/><path d="M-0.422839-0.175926-0.317901-0.175926-0.317901-0.0709877-0.422839-0.0709877Z" stroke="#FFFFFF" fill="#FFFFFF"/><path d="M-0.299383-0.175926-0.194444-0.175926-0.194444-0.0709877-0.299383-0.0709877Z" stroke="#FFFFFF" fill="#FFFFFF"/><path d="M-0.175926-0.175926-0.0709877-0.175926-0.0709877-0.0709877-0.175926-0.0709877Z" stroke="#FFFFFF" fill="#FFFFFF"/><path d="M-0.0524691-0.175926 0.0524691-0.175926 0.0524691-0.0709877-0.0524691-0.0709877Z" stroke="#FFFFFF" fill="#FFFFFF"/><path d="M0.0709877-0.175926 0.175926-0.175926 0.175926-0.0709877 0.0709877-0.0709877Z" stroke="#FFFFFF" fill="#FFFFFF"/><path d="M0.194444-0.175926 0.299383-0.175926 0.299383-0.0709877 0.194444-0.0709877Z" stroke="#FFFFFF" fill="#FFFFFF"/><path d="M0.317901-0.175926 0.422839-0.175926 0.422839-0.0709877 0.317901-0.0709877Z" stroke="#FFFFFF" fill="#FFFFFF"/><path d="M0.441358-0.175926 0.546296-0.175926 0.546296-0.0709877 0.441358-0.0709877Z" stroke="#FFFFFF" fill="#FFFFFF"/><path d="M-0.546296-0.0524691-0.441358-0.0524691-0.441358 0.0524691-0.546296 0.0524691Z" stroke="#FFFFFF" fill="#FFFFFF"/><path d="M-0.422839-0.0524691-0.317901-0.0524691-0.317901 0.0524691-0.422839 0.0524691Z" stroke="#FFFFFF" fill="#FFFFFF"/><path d="M-0.299383-0.0524691-0.194444-0.0524691-0.194444 0.0524691-0.299383 0.0524691Z" stroke="#FFFFFF" fill="#FFFFFF"/><path d="M-0.175926-0.0524691-0.0709877-0.0524691-0.0709877 0.0524691-0.175926 0.0524691Z" stroke="#FFFFFF" fill="#FFFFFF"/><path d="M-0.0524691-0.0524691 0.0524691-0.0524691 0.0524691 0.0524691-0.0524691 0.0524691Z" stroke="#FFFFFF" fill="#FFFFFF"/><path d="M0.0709877-0.0524691 0.175926-0.0524691 0.175926 0.0524691 0.0709877 0.0524691Z" stroke="#FFFFFF" fill="#FFFFFF"/><path d="M0.194444-0.0524691 0.299383-0.0524691 0.299383 0.0524691 0.194444 0.0524691Z" stroke="#FFFFFF" fill="#FFFFFF"/><path d="M0.317901-0.0524691 0.422839-0.0524691 0.422839 0.0524691 0.317901 0.0524691Z" stroke="#FFFFFF" fill="#FFFFFF"/><path d="M0.441358-0.0524691 0.546296-0.0524691 0.546296 0.0524691 0.441358 0.0524691Z" stroke="#FFFFFF" fill="#FFFFFF"/><path d="M-0.546296 0.0709877-0.441358 0.0709877-0.441358 0.175926-0.546296 0.175926Z" stroke="#FFFFFF" fill="#FFFFFF"/><path d="M-0.422839 0.0709877-0.317901 0.0709877-0.317901 0.175926-0.422839 0.175926Z" stroke="#FFFFFF" fill="#FFFFFF"/><path d="M-0.299383 0.0709877-0.194444 0.0709877-0.194444 0.175926-0.299383 0.175926Z" stroke="#FFFFFF" fill="#FFFFFF"/><path d="M-0.175926 0.0709877-0.0709877 0.0709877-0.0709877 0.175926-0.175926 0.175926Z" stroke="#FFFFFF" fill="#FFFFFF"/><path d="M-0.0524691 0.0709877 0.0524691 0.0709877 0.0524691 0.175926-0.0524691 0.175926Z" stroke="#FFFFFF" fill="#FFFFFF"/><path d="M0.0709877 0.0709877 0.175926 0.0709877 0.175926 0.175926 0.0709877 0.175926Z" stroke="#FFFFFF" fill="#FFFFFF"/><path d="M0.194444 0.0709877 0.299383 0.0709877 0.299383 0.175926 0.194444 0.175926Z" stroke="#FFFFFF" fill="#FFFFFF"/><path d="M0.317901 0.0709877 0.422839 0.0709877 0.422839 0.175926 0.317901 0.175926Z" stroke="#FFFFFF" fill="#FFFFFF"/><path d="M0.441358 0.0709877 0.546296 0.0709877 0.546296 0.175926 0.441358 0.175926Z" stroke="#FFFFFF" fill="#FFFFFF"/><path d="M-0.546296 0.194444-0.441358 0.194444-0.441358 0.299383-0.546296 0.299383Z" stroke="#FFFFFF" fill="#FFFFFF"/><path d="M-0.422839 0.194444-0.317901 0.194444-0.317901 0.299383-0.422839 0.299383Z" stroke="#FFFFFF" fill="#FFFFFF"/><path d="M-0.299383 0.194444-0.194444 0.194444-0.194444 0.299383-0.299383 0.299383Z" stroke="#FFFFFF" fill="#FFFFFF"/><path d="M-0.175926 0.194444-0.0709877 0.194444-0.0709877 0.299383-0.175926 0.299383Z" stroke="#FFFFFF" fill="#FFFFFF"/><path d="M-0.0524691 0.194444 0.0524691 0.194444 0.0524691 0.299383-0.0524691 0.299383Z" stroke="#FFFFFF" fill="#FFFFFF"/><path d="M0.0709877 0.194444 0.175926 0.194444 0.175926 0.299383 0.0709877 0.299383Z" stroke="#FFFFFF" fill="#FFFFFF"/><path d="M0.194444 0.194444 0.299383 0.194444 0.299383 0.299383 0.194444 0.299383Z" stroke="#FFFFFF" fill="#FFFFFF"/><path d="M0.317901 0.194444 0.422839 0.194444 0.422839 0.299383 0.317901 0.299383Z" stroke="#FFFFFF" fill="#FFFFFF"/><path d="M0.441358 0.194444 0.546296 0.194444 0.546296 0.299383 0.441358 0.299383Z" stroke="#FFFFFF" fill="#FFFFFF"/><path d="M-0.546296 0.317901-0.441358 0.317901-0.441358 0.422839-0.546296 0.422839Z" stroke="#FFFFFF" fill="#FFFFFF"/><path d="M-0.422839 0.317901-0.317901 0.317901-0.317901 0.422839-0.422839 0.422839Z" stroke="#FFFFFF" fill="#FFFFFF"/><path d="M-0.299383 0.317901-0.194444 0.317901-0.194444 0.422839-0.299383 0.422839Z" stroke="#FFFFFF" fill="#FFFFFF"/><path d="M-0.175926 0.317901-0.0709877 0.317901-0.0709877 0.422839-0.175926 0.422839Z" stroke="#FFFFFF" fill="#FFFFFF"/><path d="M-0.0524691 0.317901 0.0524691 0.317901 0.0524691 0.422839-0.0524691 0.422839Z" stroke="#FFFFFF" fill="#FFFFFF"/><path d="M0.0709877 0.317901 0.175926 0.317901 0.175926 0.422839 0.0709877 0.422839Z" stroke="#FFFFFF" fill="#FFFFFF"/><path d="M0.194444 0.317901 0.299383 0.317901 0.299383 0.422839 0.194444 0.422839Z" stroke="#FFFFFF" fill="#FFFFFF"/><path d="M0.317901 0.317901 0.422839 0.317901 0.422839 0.422839 0.317901 0.422839Z" stroke="#FFFFFF" fill="#FFFFFF"/><path d="M0.441358 0.317901 0.546296 0.317901 0.546296 0.422839 0.441358 0.422839Z" stroke="#FFFFFF" fill="#FFFFFF"/><path d="M-0.546296 0.441358-0.441358 0.441358-0.441358 0.546296-0.546296 0.546296Z" stroke="#FFFFFF" fill="#FFFFFF"/><path d="M-0.422839 0.441358-0.317901 0.441358-0.317901 0.546296-0.422839 0.546296Z" stroke="#FFFFFF" fill="#FFFFFF"/><path d="M-0.299383 0.441358-0.194444 0.441358-0.194444 0.546296-0.299383 0.546296Z" stroke="#FFFFFF" fill="#FFFFFF"/><path d="M-0.175926 0.441358-0.0709877 0.441358-0.0709877 0.546296-0.175926 0.546296Z" stroke="#FFFFFF" fill="#FFFFFF"/><path d="M-0.0524691 0.441358 0.0524691 0.441358 0.0524691 0.546296-0.0524691 0.546296Z" stroke="#FFFFFF" fill="#FFFFFF"/><path d="M0.0709877 0.441358 0.175926 0.441358 0.175926 0.546296 0.0709877 0.546296Z" stroke="#FFFFFF" fill="#FFFFFF"/><path d="M0.194444 0.441358 0.299383 0.441358 0.299383 0.546296 0.194444 0.546296Z" stroke="#FFFFFF" fill="#FFFFFF"/><path d="M0.317901 0.441358 0.422839 0.441358 0.422839 0.546296 0.317901 0.546296Z" stroke="#FFFFFF" fill="#FFFFFF"/><path d="M0.441358 0.441358 0.546296 0.441358 0.546296 0.546296 0.441358 0.546296Z" stroke="#FFFFFF" fill="#FFFFFF"/></g><g stroke-width="0.02" stroke-linejoin="round" stroke-opacity="1" opacity="1"><path d="M-0.551539 0.555154-0.43549 0.555154-0.425703 0.74257-0.538956 0.74257Z" stroke="#FFFFFF" fill="#FFFFFF"/><path d="M-0.428172 0.555154-0.312123 0.555154-0.305132 0.74257-0.418385 0.74257Z" stroke="#FFFFFF" fill="#FFFFFF"/><path d="M-0.304804 0.555154-0.188755 0.555154-0.18456 0.74257-0.297813 0.74257Z" stroke="#FFFFFF" fill="#FFFFFF"/><path d="M-0.181437 0.555154-0.0653875 0.555154-0.0639893 0.74257-0.177242 0.74257Z" stroke="#FFFFFF" fill="#FFFFFF"/><path d="M-0.0580693 0.555154 0.0579801 0.555154 0.0565819 0.74257-0.0566711 0.74257Z" stroke="#FFFFFF" fill="#FFFFFF"/><path d="M0.0652982 0.555154 0.181348 0.555154 0.177153 0.74257 0.0639 0.74257Z" stroke="#FFFFFF" fill="#FFFFFF"/><path d="M0.188666 0.555154 0.304715 0.555154 0.297724 0.74257 0.184471 0.74257Z" stroke="#FFFFFF" fill="#FFFFFF"/><path d="M0.312033 0.555154 0.428083 0.555154 0.418295 0.74257 0.305042 0.74257Z" stroke="#FFFFFF" fill="#FFFFFF"/><path d="M0.435401 0.555154 0.55145 0.555154 0.538867 0.74257 0.425614 0.74257Z" stroke="#FFFFFF" fill="#FFFFFF"/><path d="M-0.555154-0.551539-0.555154-0.43549-0.74257-0.425703-0.74257-0.538956Z" stroke="#FFFFFF" fill="#FFFFFF"/><path d="M-0.555154-0.428172-0.555154-0.312123-0.74257-0.305132-0.74257-0.418385Z" stroke="#FFFFFF" fill="#FFFFFF"/><path d="M-0.555154-0.304804-0.555154-0.188755-0.74257-0.18456-0.74257-0.297813Z" stroke="#FFFFFF" fill="#FFFFFF"/><path d="M-0.555154-0.181437-0.555154-0.0653875-0.74257-0.0639893-0.74257-0.177242Z" stroke="#FFFFFF" fill="#FFFFFF"/><path d="M-0.555154-0.0580693-0.555154 0.0579801-0.74257 0.0565819-0.74257-0.0566711Z" stroke="#FFFFFF" fill="#FFFFFF"/><path d="M-0.555154 0.0652982-0.555154 0.181348-0.74257 0.177153-0.74257 0.0639Z" stroke="#FFFFFF" fill="#FFFFFF"/><path d="M-0.555154 0.188666-0.555154 0.304715-0.74257 0.297724-0.74257 0.184471Z" stroke="#FFFFFF" fill="#FFFFFF"/><path d="M-0.555154 0.312033-0.555154 0.428083-0.74257 0.418295-0.74257 0.305042Z" stroke="#FFFFFF" fill="#FFFFFF"/><path d="M-0.555154 0.435401-0.555154 0.55145-0.74257 0.538867-0.74257 0.425614Z" stroke="#FFFFFF" fill="#FFFFFF"/><path d="M0.551539-0.555154 0.43549-0.555154 0.425703-0.74257 0.538956-0.74257Z" stroke="#FFFFFF" fill="#FFFFFF"/><path d="M0.428172-0.555154 0.312123-0.555154 0.305132-0.74257 0.418385-0.74257Z" stroke="#FFFFFF" fill="#FFFFFF"/><path d="M0.304804-0.555154 0.188755-0.555154 0.18456-0.74257 0.297813-0.74257Z" stroke="#FFFFFF" fill="#FFFFFF"/><path d="M0.181437-0.555154 0.0653875-0.555154 0.0639893-0.74257 0.177242-0.74257Z" stroke="#FFFFFF" fill="#FFFFFF"/><path d="M0.0580693-0.555154-0.0579801-0.555154-0.0565819-0.74257 0.0566711-0.74257Z" stroke="#FFFFFF" fill="#FFFFFF"/><path d="M-0.0652982-0.555154-0.181348-0.555154-0.177153-0.74257-0.0639-0.74257Z" stroke="#FFFFFF" fill="#FFFFFF"/><path d="M-0.188666-0.555154-0.304715-0.555154-0.297724-0.74257-0.184471-0.74257Z" stroke="#FFFFFF" fill="#FFFFFF"/><path d="M-0.312033-0.555154-0.428083-0.555154-0.418295-0.74257-0.305042-0.74257Z" stroke="#FFFFFF" fill="#FFFFFF"/><path d="M-0.435401-0.555154-0.55145-0.555154-0.538867-0.74257-0.425614-0.74257Z" stroke="#FFFFFF" fill="#FFFFFF"/><path d="M0.555154 0.551539 0.555154 0.43549 0.74257 0.425703 0.74257 0.538956Z" stroke="#FFFFFF" fill="#FFFFFF"/><path d="M0.555154 0.428172 0.555154 0.312123 0.74257 0.305132 0.74257 0.418385Z" stroke="#FFFFFF" fill="#FFFFFF"/><path d="M0.555154 0.304804 0.555154 0.188755 0.74257 0.18456 0.74257 0.297813Z" stroke="#FFFFFF" fill="#FFFFFF"/><path d="M0.555154 0.181437 0.555154 0.0653875 0.74257 0.0639893 0.74257 0.177242Z" stroke="#FFFFFF" fill="#FFFFFF"/><path d="M0.555154 0.0580693 0.555154-0.0579801 0.74257-0.0565819 0.74257 0.0566711Z" stroke="#FFFFFF" fill="#FFFFFF"/><path d="M0.555154-0.0652982 0.555154-0.181348 0.74257-0.177153 0.74257-0.0639Z" stroke="#FFFFFF" fill="#FFFFFF"/><path d="M0.555154-0.188666 0.555154-0.304715 0.74257-0.297724 0.74257-0.184471Z" stroke="#FFFFFF" fill="#FFFFFF"/><path d="M0.555154-0.312033 0.555154-0.428083 0.74257-0.418295 0.74257-0.305042Z" stroke="#FFFFFF" fill="#FFFFFF"/><path d="M0.555154-0.435401 0.555154-0.55145 0.74257-0.538867 0.74257-0.425614Z" stroke="#FFFFFF" fill="#FFFFFF"/></g><g stroke-width="0.0133333" stroke-linecap="round" stroke-opacity="1" opacity="1"><path d="M0-0.493827C-0.156379-0.485597-0.279835-0.444444-0.37037-0.37037" stroke="#000000" stroke-opacity="1" fill="none"/><path d="M5.77 0-2.88 5-2.88-5 5.77 0Z" stroke-width="0" stroke-linejoin="round" fill="#000000" transform="matrix(-0.00283784 0.00232187 -0.00232187 -0.00283784 -0.37037 -0.37037)"/><path d="M0-0.493827C0.156379-0.485597 0.279835-0.444444 0.37037-0.37037" stroke="#000000" stroke-opacity="1" fill="none"/><path d="M5.77 0-2.88 5-2.88-5 5.77 0Z" stroke-width="0" stroke-linejoin="round" fill="#000000" transform="matrix(0.00283784 0.00232187 -0.00232187 0.00283784 0.37037 -0.37037)"/><path d="M-0.493827 -2.77556e-17C-0.485597-0.156379-0.444444-0.279835-0.37037-0.37037" stroke="#000000" stroke-opacity="1" fill="none"/><path d="M5.77 0-2.88 5-2.88-5 5.77 0Z" stroke-width="0" stroke-linejoin="round" fill="#000000" transform="matrix(0.00232187 -0.00283784 0.00283784 0.00232187 -0.37037 -0.37037)"/><path d="M-0.493827 -2.77556e-17C-0.485597 0.156379-0.444444 0.279835-0.37037 0.37037" stroke="#000000" stroke-opacity="1" fill="none"/><path d="M5.77 0-2.88 5-2.88-5 5.77 0Z" stroke-width="0" stroke-linejoin="round" fill="#000000" transform="matrix(0.00232187 0.00283784 -0.00283784 0.00232187 -0.37037 0.37037)"/><path d="M0 0.493827C-0.156379 0.485597-0.279835 0.444444-0.37037 0.37037" stroke="#000000" stroke-opacity="1" fill="none"/><path d="M5.77 0-2.88 5-2.88-5 5.77 0Z" stroke-width="0" stroke-linejoin="round" fill="#000000" transform="matrix(-0.00283784 -0.00232187 0.00232187 -0.00283784 -0.37037 0.37037)"/><path d="M0.493827 -2.77556e-17C0.485597-0.156379 0.444444-0.279835 0.37037-0.37037" stroke="#000000" stroke-opacity="1" fill="none"/><path d="M5.77 0-2.88 5-2.88-5 5.77 0Z" stroke-width="0" stroke-linejoin="round" fill="#000000" transform="matrix(-0.00232187 -0.00283784 0.00283784 -0.00232187 0.37037 -0.37037)"/><path d="M0.493827 -2.77556e-17C0.485597 0.156379 0.444444 0.279835 0.37037 0.37037" stroke="#000000" stroke-opacity="1" fill="none"/><path d="M5.77 0-2.88 5-2.88-5 5.77 0Z" stroke-width="0" stroke-linejoin="round" fill="#000000" transform="matrix(-0.00232187 0.00283784 -0.00283784 -0.00232187 0.37037 0.37037)"/><path d="M0 0.493827C0.156379 0.485597 0.279835 0.444444 0.37037 0.37037" stroke="#000000" stroke-opacity="1" fill="none"/><path d="M5.77 0-2.88 5-2.88-5 5.77 0Z" stroke-width="0" stroke-linejoin="round" fill="#000000" transform="matrix(0.00283784 -0.00232187 0.00232187 0.00283784 0.37037 0.37037)"/><path d="M-0.493827-0.123457 0.493827-0.123457" stroke="#000000" stroke-opacity="1" fill="none"/><path d="M5.77 0-2.88 5-2.88-5 5.77 0Z" stroke-width="0" stroke-linejoin="round" fill="#000000" transform="matrix(0.00366667 0 0 0.00366667 0.493827 -0.123457)"/><path d="M-0.123457-0.123457-0.123457 0.493827" stroke="#000000" stroke-opacity="1" fill="none"/><path d="M5.77 0-2.88 5-2.88-5 5.77 0Z" stroke-width="0" stroke-linejoin="round" fill="#000000" transform="matrix(2.24519e-19 0.00366667 -0.00366667 2.24519e-19 -0.123457 0.493827)"/><path d="M0.123457-0.123457 0.123457 0.493827" stroke="#000000" stroke-opacity="1" fill="none"/><path d="M5.77 0-2.88 5-2.88-5 5.77 0Z" stroke-width="0" stroke-linejoin="round" fill="#000000" transform="matrix(2.24519e-19 0.00366667 -0.00366667 2.24519e-19 0.123457 0.493827)"/></g></svg>