<svg viewBox="0 0 550.01 550.01" xmlns="http://www.w3.org/2000/svg" xmlns:xlink="http://www.w3.org/1999/xlink" overflow="hidden"><defs></defs><g id="图层_2"><g id="图层_1-2"><path d="M544.62 347.24 544.62 544.62 490.7 490.69 490.7 332.8 544.62 347.24Z" fill="#0000F2"/><path d="M544.62 5.39 544.62 202.76 490.7 217.21 490.7 59.31 544.62 5.39Z" fill="#00D800"/><path d="M544.62 5.39 490.7 59.31 332.8 59.31 347.25 5.39 544.62 5.39Z" fill="#FFA100"/><path d="M490.7 490.69 544.62 544.62 347.25 544.62 332.8 490.69 490.7 490.69Z" fill="#FFA100"/><path d="M490.7 332.8 490.7 490.69 332.8 490.69 275.01 275 490.7 332.8Z" fill="#1B1B1B"/><path d="M490.7 217.21 490.7 332.8 275.01 275 490.7 217.21Z" fill="#1B1B1B"/><path d="M490.7 59.31 490.7 217.21 275.01 275 332.8 59.31 490.7 59.31Z" fill="#1B1B1B"/><path d="M332.8 59.31 275.01 275 217.21 59.31 332.8 59.31Z" fill="#1B1B1B"/><path d="M275.01 275 332.8 490.69 217.21 490.69 275.01 275Z" fill="#1B1B1B"/><path d="M217.21 59.31 275.01 275 59.32 217.21 59.32 59.31 217.21 59.31Z" fill="#1B1B1B"/><path d="M275.01 275 217.21 490.69 59.32 490.69 59.32 332.8 275.01 275Z" fill="#1B1B1B"/><path d="M275.01 275 59.32 332.8 59.32 217.21 275.01 275Z" fill="#1B1B1B"/><path d="M202.77 5.39 217.21 59.31 59.32 59.31 5.39 5.39 202.77 5.39Z" fill="#EE0000"/><path d="M217.21 490.69 202.77 544.62 5.39 544.62 59.32 490.69 217.21 490.69Z" fill="#EE0000"/><path d="M59.32 332.8 59.32 490.69 5.39 544.62 5.39 347.24 59.32 332.8Z" fill="#0000F2"/><path d="M59.32 59.31 59.32 217.21 5.39 202.76 5.39 5.39 59.32 59.31Z" fill="#00D800"/><path d="M5.39 544.62 202.77 544.62 217.21 490.69 59.32 490.69" stroke="#000000" stroke-width="10.78" stroke-linejoin="round" fill="none"/><path d="M59.32 490.69 5.39 544.62 5.39 347.24 59.32 332.8 59.32 490.69Z" stroke="#000000" stroke-width="10.78" stroke-linejoin="round" fill="none"/><path d="M275.01 275 59.32 332.8 59.32 217.21" stroke="#000000" stroke-width="10.78" stroke-linejoin="round" fill="none"/><line x1="275.01" y1="275" x2="59.32" y2="217.21" stroke="#000000" stroke-width="10.78" stroke-linejoin="round" fill="none"/><path d="M5.39 5.39 5.39 202.76 59.32 217.21 59.32 59.31" stroke="#000000" stroke-width="10.78" stroke-linejoin="round" fill="none"/><path d="M59.32 59.31 5.39 5.39 202.77 5.39 217.21 59.31 59.32 59.31Z" stroke="#000000" stroke-width="10.78" stroke-linejoin="round" fill="none"/><path d="M275.01 275 217.21 59.31 332.8 59.31" stroke="#000000" stroke-width="10.78" stroke-linejoin="round" fill="none"/><line x1="275.01" y1="275" x2="332.8" y2="59.31" stroke="#000000" stroke-width="10.78" stroke-linejoin="round" fill="none"/><path d="M544.62 5.39 347.25 5.39 332.8 59.31 490.7 59.31" stroke="#000000" stroke-width="10.78" stroke-linejoin="round" fill="none"/><path d="M490.7 59.31 544.62 5.39 544.62 202.76 490.7 217.21 490.7 59.31Z" stroke="#000000" stroke-width="10.78" stroke-linejoin="round" fill="none"/><path d="M275.01 275 490.7 217.21 490.7 332.8" stroke="#000000" stroke-width="10.78" stroke-linejoin="round" fill="none"/><line x1="275.01" y1="275" x2="490.7" y2="332.8" stroke="#000000" stroke-width="10.78" stroke-linejoin="round" fill="none"/><path d="M544.62 544.62 544.62 347.24 490.7 332.8 490.7 490.69" stroke="#000000" stroke-width="10.78" stroke-linejoin="round" fill="none"/><path d="M490.7 490.69 544.62 544.62 347.25 544.62 332.8 490.69 490.7 490.69Z" stroke="#000000" stroke-width="10.78" stroke-linejoin="round" fill="none"/><path d="M275.01 275 332.8 490.69 217.21 490.69 275.01 275Z" stroke="#000000" stroke-width="10.78" stroke-linejoin="round" fill="none"/><path d="M146.08 176.76 180.17 142.67 136.78 133.37 146.08 176.76Z" fill="#808080"/><path d="M413.25 409.84 403.94 366.45 393.13 377.26 169.35 153.49 156.89 165.95 380.66 389.73 369.85 400.54 413.25 409.84Z" fill="#808080"/></g></g></svg>