<svg viewBox="0 0 550.01 550.01" xmlns="http://www.w3.org/2000/svg" xmlns:xlink="http://www.w3.org/1999/xlink" overflow="hidden"><defs></defs><g id="图层_2"><g id="图层_1-2"><path d="M202.76 5.39 217.21 59.31 59.31 59.31 5.39 5.39 202.76 5.39Z" fill="#FFA100"/><path d="M332.8 59.31 275 275 217.21 59.31 332.8 59.31Z" fill="#1B1B1B"/><path d="M217.21 59.31 275 275 59.31 217.21 59.31 59.31 217.21 59.31Z" fill="#1B1B1B"/><path d="M59.31 332.8 59.31 490.69 5.39 544.62 5.39 347.25 59.31 332.8Z" fill="#EE0000"/><path d="M59.31 59.31 59.31 217.21 5.39 202.76 5.39 5.39 59.31 59.31Z" fill="#0000F2"/><path d="M490.7 217.21 490.7 332.8 275 275 490.7 217.21Z" fill="#1B1B1B"/><path d="M544.62 5.39 490.7 59.31 332.8 59.31 347.25 5.39 544.62 5.39Z" fill="#FFA100"/><path d="M544.62 5.39 544.62 202.76 490.7 217.21 490.7 59.31 544.62 5.39Z" fill="#00D800"/><path d="M275 275 217.21 490.69 59.31 490.69 59.31 332.8 275 275Z" fill="#1B1B1B"/><path d="M275 275 59.31 332.8 59.31 217.21 275 275Z" fill="#1B1B1B"/><path d="M217.21 490.69 202.76 544.62 5.39 544.62 59.31 490.69 217.21 490.69Z" fill="#0000F2"/><path d="M490.7 59.31 490.7 217.21 275 275 332.8 59.31 490.7 59.31Z" fill="#1B1B1B"/><path d="M275 275 332.8 490.69 217.21 490.69 275 275Z" fill="#1B1B1B"/><path d="M490.7 490.69 544.62 544.62 347.25 544.62 332.8 490.69 490.7 490.69Z" fill="#00D800"/><path d="M544.62 347.25 544.62 544.62 490.7 490.69 490.7 332.8 544.62 347.25Z" fill="#EE0000"/><path d="M490.7 332.8 490.7 490.69 332.8 490.69 275 275 490.7 332.8Z" fill="#1B1B1B"/><path d="M5.39 544.62 202.76 544.62 217.21 490.69 59.31 490.69" stroke="#000000" stroke-width="10.78" stroke-linejoin="round" fill="none"/><path d="M59.31 490.69 5.39 544.62 5.39 347.25 59.31 332.8 59.31 490.69Z" stroke="#000000" stroke-width="10.78" stroke-linejoin="round" fill="none"/><path d="M275 275 59.31 332.8 59.31 217.21" stroke="#000000" stroke-width="10.78" stroke-linejoin="round" fill="none"/><line x1="275" y1="275" x2="59.31" y2="217.21" stroke="#000000" stroke-width="10.78" stroke-linejoin="round" fill="none"/><path d="M5.39 5.39 5.39 202.76 59.31 217.21 59.31 59.31" stroke="#000000" stroke-width="10.78" stroke-linejoin="round" fill="none"/><path d="M59.31 59.31 5.39 5.39 202.76 5.39 217.21 59.31 59.31 59.31Z" stroke="#000000" stroke-width="10.78" stroke-linejoin="round" fill="none"/><path d="M275 275 217.21 59.31 332.8 59.31" stroke="#000000" stroke-width="10.78" stroke-linejoin="round" fill="none"/><line x1="275" y1="275" x2="332.8" y2="59.31" stroke="#000000" stroke-width="10.78" stroke-linejoin="round" fill="none"/><path d="M544.62 5.39 347.25 5.39 332.8 59.31 490.7 59.31" stroke="#000000" stroke-width="10.78" stroke-linejoin="round" fill="none"/><path d="M490.7 59.31 544.62 5.39 544.62 202.76 490.7 217.21 490.7 59.31Z" stroke="#000000" stroke-width="10.78" stroke-linejoin="round" fill="none"/><path d="M275 275 490.7 217.21 490.7 332.8" stroke="#000000" stroke-width="10.78" stroke-linejoin="round" fill="none"/><line x1="275" y1="275" x2="490.7" y2="332.8" stroke="#000000" stroke-width="10.78" stroke-linejoin="round" fill="none"/><path d="M544.62 544.62 544.62 347.25 490.7 332.8 490.7 490.69" stroke="#000000" stroke-width="10.78" stroke-linejoin="round" fill="none"/><path d="M490.7 490.69 544.62 544.62 347.25 544.62 332.8 490.69 490.7 490.69Z" stroke="#000000" stroke-width="10.78" stroke-linejoin="round" fill="none"/><path d="M275 275 332.8 490.69 217.21 490.69 275 275Z" stroke="#000000" stroke-width="10.78" stroke-linejoin="round" fill="none"/><path d="M417.23 409.44 374.4 386.26 374.4 400.96 174.71 400.96 174.71 386.25 131.88 409.43 174.71 432.6 174.71 417.91 374.4 417.91 374.4 432.61 417.23 409.44Z" fill="#808080"/></g></g></svg>