<svg version="1.1" viewBox="0 0 296.54 298.6" xmlns="http://www.w3.org/2000/svg" xmlns:xlink="http://www.w3.org/1999/xlink" overflow="hidden"><defs></defs><g id="fc17ce24-4cc3-429d-ae1e-ce793af6f758"><g id="a978de0d-2079-4ed8-ab61-780987247b64"><g id="fe4dcc78-dab6-4611-b868-b98fea7925c6"><path d=" M 148.53 93.29 L 196.08 127.89 L 177.93 183.8 L 119.15 183.78 L 100.96 127.85 L 148.53 93.29 Z" fill="#808080"/><path d=" M 148.53 93.29 L 100.96 127.85 L 119.15 183.78 L 177.93 183.8 L 196.08 127.89 L 148.53 93.29 Z" stroke="#040000" stroke-miterlimit="10" fill="none"/><path d=" M 179.09 185.41 C 178.752 185.661 178.341 185.794 177.92 185.79 L 119.13 185.79 C 118.269 185.785 117.507 185.229 117.24 184.41 L 99.06 128.48 C 98.7938 127.659 99.0841 126.76 99.78 126.25 L 147.35 91.69 C 148.049 91.1861 148.991 91.1861 149.69 91.69 L 197.25 126.27 C 197.95 126.778 198.244 127.677 197.98 128.5 L 179.81 184.41 C 179.69 184.815 179.436 185.168 179.09 185.41 Z M 120.58 181.79 L 176.47 181.79 L 193.73 128.63 L 148.52 95.77 L 103.3 128.63 Z" stroke="#040000" stroke-miterlimit="10" fill="#211613"/><path d=" M 280.15 98.72 L 253.68 107.22 L 212.57 77.35 L 239.05 68.86 L 280.15 98.72 Z" stroke="#040000" stroke-miterlimit="10" fill="#EEE8AA" fill-rule="evenodd"/><path d=" M 238.44 67 L 212 75.45 C 211.275 75.6594 210.73 76.2588 210.59 77 C 210.473 77.7426 210.782 78.4881 211.39 78.93 L 252.51 108.8 C 253.024 109.174 253.684 109.282 254.29 109.09 L 280.76 100.59 C 280.964 100.529 281.157 100.435 281.33 100.31 C 281.33 100.31 281.38 100.31 281.41 100.25 C 282.115 99.7329 282.403 98.8175 282.12 97.99 C 281.939 97.6077 281.68 97.2672 281.36 96.99 C 281.208 96.878 281.039 96.7903 280.86 96.73 L 240.22 67.25 C 239.7 66.8897 239.039 66.797 238.44 67 Z M 275.8 98 L 254 105 L 216.9 78 L 238.67 71 Z" stroke="#040000" stroke-miterlimit="10" fill="#060001"/><path d=" M 191.29 34.16 L 191.17 3.29 L 238.86 18.92 L 268.43 59.43 L 239.05 68.86 L 191.29 34.16 Z" stroke="#040000" stroke-miterlimit="10" fill="#FF1493" fill-rule="evenodd"/><path d=" M 189.17 3.3 L 189.29 34.17 C 189.297 34.8048 189.605 35.3986 190.12 35.77 L 237.88 70.48 C 238.395 70.8505 239.056 70.9544 239.66 70.76 L 269 61.33 C 269.2 61.2666 269.389 61.1722 269.56 61.05 L 269.56 61.05 L 269.78 60.87 C 269.898 60.6377 270.031 60.4138 270.18 60.2 C 270.354 59.5099 270.215 58.7784 269.8 58.2 C 269.683 58.0675 269.598 57.9103 269.55 57.74 L 240.47 17.74 C 240.224 17.3977 239.873 17.1449 239.47 17.02 L 191.78 1.4 C 190.684 1.09528 189.548 1.73685 189.244 2.83299 C 189.201 2.98532 189.176 3.14203 189.17 3.3 Z M 237.62 20.61 L 265.18 58.38 L 239.4 66.65 L 193.28 33.14 L 193.17 6.05 Z" stroke="#040000" stroke-miterlimit="10" fill="#060001"/><path d=" M 239.05 68.86 L 212.57 77.35 L 191.39 61.96 L 191.29 34.16 L 239.05 68.86 Z" stroke="#040000" stroke-miterlimit="10" fill="#FF1493" fill-rule="evenodd"/><path d=" M 240.22 70.48 C 240.049 70.6022 239.86 70.6966 239.66 70.76 L 213.17 79.25 C 212.564 79.4415 211.904 79.3339 211.39 78.96 L 190.22 63.57 C 189.705 63.1986 189.397 62.6048 189.39 61.97 L 189.29 34.17 C 189.291 33.0654 190.187 32.1709 191.292 32.1721 C 191.711 32.1725 192.12 32.3047 192.46 32.55 L 239.76 66.9 C 240.16 67.0362 240.508 67.2908 240.76 67.63 C 241.405 68.5249 241.204 69.7733 240.31 70.42 C 240.31 70.42 240.26 70.44 240.22 70.48 Z M 212.92 75.14 L 234.69 68.14 L 193.3 38.09 L 193.39 60.94 Z" stroke="#040000" stroke-miterlimit="10" fill="#060001"/><path d=" M 191.39 61.96 L 148.45 30.78 L 148.34 2.98 L 191.29 34.16 L 191.39 61.96 Z" stroke="#040000" stroke-miterlimit="10" fill="#ADD8E6" fill-rule="evenodd"/><path d=" M 148.8 1.42 L 148.66 1.42 C 148.166 1.40346 147.676 1.50637 147.23 1.72 C 147.23 1.72 147.23 1.72 147.23 1.72 C 147.125 1.80223 147.006 1.86643 146.88 1.91 L 146.72 2.02 L 146.63 2.02 C 146.482 2.28256 146.403 2.57848 146.4 2.88 L 146.5 30.67 C 146.504 31.3084 146.812 31.9066 147.33 32.28 L 190.27 63.46 C 190.876 63.9026 191.68 63.9682 192.35 63.63 L 192.62 63.47 C 193.137 63.0923 193.442 62.4901 193.44 61.85 L 193.34 34.04 C 193.333 33.4052 193.025 32.8114 192.51 32.44 L 150.14 1.82 C 149.706 1.64747 149.258 1.51361 148.8 1.42 Z M 189.3 35.18 L 189.38 58 L 150.45 29.75 L 150.36 6.9 Z" stroke="#040000" stroke-miterlimit="10" fill="#060001"/><path d=" M 177.92 183.79 L 228.54 183.8 L 237.03 157.62 L 196.08 127.88 L 177.92 183.79 Z" stroke="#040000" stroke-miterlimit="10" fill="#808080" fill-rule="evenodd"/><path d=" M 237.03 157.62 L 253.41 107.24 L 212.46 77.5 L 196.08 127.88 L 237.03 157.62 Z" stroke="#040000" stroke-miterlimit="10" fill="#808080" fill-rule="evenodd"/><path d=" M 238.21 159.23 C 238.042 159.357 237.852 159.451 237.65 159.51 C 237.043 159.708 236.378 159.604 235.86 159.23 L 194.86 129.49 C 194.164 128.98 193.874 128.081 194.14 127.26 L 210.51 76.88 C 210.699 76.2702 211.179 75.7942 211.79 75.61 C 212.397 75.4122 213.062 75.5163 213.58 75.89 L 254.58 105.63 C 255.276 106.14 255.566 107.039 255.3 107.86 L 238.93 158.24 C 238.799 158.637 238.548 158.983 238.21 159.23 Z M 198.43 127.12 L 236 154.39 L 251.06 108 L 213.5 80.73 Z" stroke="#040000" stroke-miterlimit="10" fill="#060001"/><path d=" M 228.54 183.8 L 177.92 183.79 L 161.57 234.14 L 212.18 234.12 L 228.54 183.8 Z" stroke="#040000" stroke-miterlimit="10" fill="#808080" fill-rule="evenodd"/><path d=" M 213.35 235.74 C 213.01 235.986 212.6 236.119 212.18 236.12 L 161.57 236.12 C 160.93 236.122 160.328 235.817 159.95 235.3 C 159.576 234.782 159.472 234.117 159.67 233.51 L 176 183.18 C 176.268 182.357 177.035 181.801 177.9 181.8 L 228.52 181.8 C 229.625 181.801 230.519 182.697 230.519 183.801 C 230.518 184.012 230.485 184.22 230.42 184.42 L 214.06 234.74 C 213.938 235.141 213.689 235.492 213.35 235.74 Z M 164.35 232.14 L 210.76 232.14 L 225.82 185.8 L 179.37 185.8 Z" stroke="#040000" stroke-miterlimit="10" fill="#060001"/><path d=" M 119.13 183.78 L 135.48 234.14 L 161.57 234.14 L 177.92 183.79 L 119.13 183.78 Z" stroke="#040000" stroke-miterlimit="10" fill="#808080" fill-rule="evenodd"/><path d=" M 196.08 127.88 L 212.46 77.5 L 191.36 62.18 L 148.52 93.3 L 196.08 127.88 Z" stroke="#040000" stroke-miterlimit="10" fill="#808080" fill-rule="evenodd"/><path d=" M 100.95 127.86 L 58.2 158.93 L 66.28 183.78 L 119.13 183.78 L 100.95 127.86 Z" stroke="#040000" stroke-miterlimit="10" fill="#808080" fill-rule="evenodd"/><path d=" M 66.28 183.78 L 82.64 234.13 L 135.48 234.14 L 119.13 183.78 L 66.28 183.78 Z" stroke="#040000" stroke-miterlimit="10" fill="#808080" fill-rule="evenodd"/><path d=" M 191.36 62.18 L 148.62 31.12 L 105.77 62.25 L 148.52 93.3 L 191.36 62.18 Z" stroke="#040000" stroke-miterlimit="10" fill="#808080" fill-rule="evenodd"/><path d=" M 84.63 77.61 L 41.88 108.67 L 58.2 158.93 L 100.95 127.86 L 84.63 77.61 Z" stroke="#040000" stroke-miterlimit="10" fill="#808080" fill-rule="evenodd"/><path d=" M 148.52 93.3 L 105.77 62.25 L 84.63 77.61 L 100.95 127.86 L 148.52 93.3 Z" stroke="#040000" stroke-miterlimit="10" fill="#808080" fill-rule="evenodd"/><path d=" M 293.5 190.54 C 293.68 173.76 293.86 156.873 294.04 139.88 L 279.1 144.71 C 274.1 146.33 269.1 148 264.02 149.62 C 260.86 159.22 257.71 168.793 254.57 178.34 C 251.43 187.887 248.297 197.44 245.17 207 C 248.27 211.15 251.4 215.29 254.48 219.4 C 257.56 223.51 260.63 227.6 263.69 231.65 C 273.643 217.93 283.58 204.227 293.5 190.54 Z" stroke="#040000" stroke-miterlimit="10" fill="#00D800" fill-rule="evenodd"/><path d=" M 264.86 233.21 C 263.981 233.844 262.757 233.662 262.1 232.8 L 243.57 208.15 C 243.183 207.627 243.075 206.948 243.28 206.33 C 246.42 196.79 249.553 187.253 252.68 177.72 L 262.12 149 C 262.323 148.395 262.802 147.923 263.41 147.73 L 293.41 137.99 C 294.019 137.795 294.684 137.903 295.2 138.28 C 295.72 138.66 296.025 139.266 296.02 139.91 L 295.48 190.57 C 295.477 190.987 295.344 191.392 295.1 191.73 L 265.3 232.77 C 265.179 232.941 265.031 233.089 264.86 233.21 Z M 247.4 206.59 L 263.66 228.24 L 291.51 189.88 L 292.01 142.63 L 265.6 151.21 L 256.48 179 C 253.447 188.18 250.42 197.377 247.4 206.59 Z" stroke="#040000" stroke-miterlimit="10" fill="#040000"/><path d=" M 229.12 255.85 C 234.453 239.603 239.787 223.303 245.12 206.95 C 239.493 199.443 233.827 191.873 228.12 184.24 C 222.707 200.813 217.333 217.32 212 233.76 Z" stroke="#040000" stroke-miterlimit="10" fill="#FF1493" fill-rule="evenodd"/><path d=" M 230.29 257.46 C 230.045 257.641 229.76 257.761 229.46 257.81 C 228.732 257.937 227.994 257.652 227.54 257.07 L 210.42 235 C 210.016 234.477 209.896 233.789 210.1 233.16 L 226.27 183.65 C 226.613 182.6 227.742 182.027 228.792 182.37 C 229.182 182.498 229.524 182.742 229.77 183.07 L 246.77 205.77 C 247.164 206.294 247.276 206.978 247.07 207.6 L 231.07 256.49 C 230.92 256.888 230.647 257.228 230.29 257.46 Z M 214.22 233.38 L 228.4 251.65 L 243 207.32 L 228.91 188.52 Z" stroke="#040000" stroke-miterlimit="10" fill="#060001"/><path d=" M 264 149.62 C 254.88 152.62 245.72 155.55 236.51 158.62 C 233.723 167.18 230.937 175.727 228.15 184.26 C 233.85 191.9 239.517 199.47 245.15 206.97 C 248.297 197.437 251.43 187.9 254.55 178.36 C 257.67 168.82 260.82 159.24 264 149.62 Z" stroke="#040000" stroke-miterlimit="10" fill="#00D800" fill-rule="evenodd"/><path d=" M 246.35 208.57 C 245.466 209.208 244.235 209.021 243.58 208.15 L 226.58 185.44 C 226.196 184.919 226.088 184.245 226.29 183.63 L 234.64 158 C 234.836 157.396 235.307 156.921 235.91 156.72 C 244.35 153.927 252.753 151.18 261.12 148.48 L 263.41 147.74 C 264.114 147.519 264.883 147.703 265.41 148.22 C 265.93 148.745 266.119 149.514 265.9 150.22 L 256.48 179 C 253.347 188.54 250.21 198.08 247.07 207.62 C 246.932 208.002 246.681 208.334 246.35 208.57 Z M 230.35 183.88 L 244.45 202.7 C 247.19 194.373 249.923 186.04 252.65 177.7 L 260.87 152.7 C 253.303 155.16 245.707 157.643 238.08 160.15 Z" stroke="#040000" stroke-miterlimit="10" fill="#060001"/><path d=" M 281.11 97.64 C 271.99 100.453 262.83 103.303 253.63 106.19 C 247.923 123.71 242.223 141.18 236.53 158.6 C 245.74 155.6 254.9 152.6 264.02 149.6 C 269.707 132.333 275.403 115.013 281.11 97.64 Z" stroke="#040000" stroke-miterlimit="10" fill="#FF1493" fill-rule="evenodd"/><path d=" M 150.33 296.1 C 165.803 290.98 181.21 285.88 196.55 280.8 C 193.55 276.8 190.44 272.8 187.4 268.73 C 184.36 264.66 181.25 260.65 178.17 256.56 C 168.53 256.56 158.84 256.56 149.17 256.61 L 119.75 256.66 C 116.87 260.79 113.97 264.91 111.1 269.04 C 108.23 273.17 105.33 277.28 102.44 281.39 Z" stroke="#040000" stroke-miterlimit="10" fill="#FFA100" fill-rule="evenodd"/><path d=" M 197.72 282.41 C 197.556 282.534 197.374 282.632 197.18 282.7 C 185.06 286.7 172.913 290.72 160.74 294.76 L 151 298 C 150.606 298.125 150.184 298.125 149.79 298 L 101.81 283.3 C 100.761 282.953 100.193 281.822 100.54 280.773 C 100.603 280.583 100.694 280.403 100.81 280.24 L 118.12 255.52 C 118.495 254.986 119.107 254.669 119.76 254.67 L 178.21 254.56 C 178.84 254.56 179.432 254.856 179.81 255.36 L 189 267.53 C 190.75 269.86 192.52 272.19 194.28 274.53 L 198.15 279.63 C 198.537 280.145 198.653 280.815 198.46 281.43 C 198.329 281.83 198.068 282.174 197.72 282.41 Z M 150.31 294 L 159.48 291 C 170.773 287.253 182.037 283.523 193.27 279.81 L 191.1 276.95 C 189.32 274.63 187.553 272.297 185.8 269.95 L 177.18 258.58 L 120.75 258.67 L 105.61 280.31 Z" stroke="#040000" stroke-miterlimit="10" fill="#060001"/><path d=" M 68.31 256.76 C 85.57 256.707 102.703 256.673 119.71 256.66 C 124.93 249.22 130.14 241.783 135.34 234.35 L 84 234.23 C 78.8067 241.743 73.5767 249.253 68.31 256.76 Z" stroke="#040000" stroke-miterlimit="10" fill="#ADD8E6" fill-rule="evenodd"/><path d=" M 135.35 232.36 L 84 232.23 C 83.3456 232.231 82.733 232.552 82.36 233.09 C 77.4533 240.163 72.5333 247.233 67.6 254.3 L 66.68 255.61 C 66.2503 256.224 66.2001 257.027 66.55 257.69 C 66.6708 257.91 66.8339 258.104 67.03 258.26 L 67.03 258.26 L 67.03 258.26 C 67.1813 258.289 67.3246 258.35 67.45 258.44 L 68.23 258.61 L 68.77 258.74 C 85.8633 258.687 102.83 258.65 119.67 258.63 C 120.089 258.632 120.498 258.503 120.84 258.26 C 121.02 258.132 121.176 257.973 121.3 257.79 L 137 235.5 C 137.63 234.592 137.404 233.346 136.497 232.717 C 136.166 232.487 135.773 232.363 135.37 232.36 Z M 118.68 254.67 C 103.267 254.67 87.7567 254.697 72.15 254.75 C 76.4833 248.57 80.7933 242.397 85.08 236.23 L 131.51 236.34 Z" stroke="#040000" stroke-miterlimit="10" fill="#060001"/><path d=" M 178.17 256.56 C 172.63 249.227 167.043 241.847 161.41 234.42 L 135.34 234.35 C 130.127 241.803 124.917 249.24 119.71 256.66 L 149.13 256.61 C 158.84 256.59 168.53 256.59 178.17 256.56 Z" stroke="#040000" stroke-miterlimit="10" fill="#FFA100" fill-rule="evenodd"/><path d=" M 179.34 258.18 C 179 258.426 178.59 258.559 178.17 258.56 L 119.71 258.65 C 118.967 258.65 118.285 258.238 117.94 257.58 C 117.597 256.918 117.651 256.12 118.08 255.51 L 133.71 233.21 C 134.085 232.676 134.697 232.359 135.35 232.36 L 161.41 232.43 C 162.034 232.431 162.622 232.723 163 233.22 C 168.62 240.62 174.207 248 179.76 255.36 C 180.216 255.963 180.294 256.772 179.96 257.45 C 179.813 257.738 179.6 257.988 179.34 258.18 Z M 123.56 254.66 L 174.17 254.57 C 169.61 248.57 165.027 242.52 160.42 236.42 L 136.42 236.36 Z" stroke="#040000" stroke-miterlimit="10" fill="#060001"/><path d=" M 229.62 256.47 C 224.247 249.197 218.837 241.893 213.39 234.56 C 196.203 234.52 178.87 234.473 161.39 234.42 C 167.01 241.833 172.597 249.213 178.15 256.56 Z" stroke="#040000" stroke-miterlimit="10" fill="#00D800" fill-rule="evenodd"/><path d=" M 213.4 232.56 L 161.4 232.43 C 160.647 232.442 159.961 232.864 159.61 233.53 C 159.272 234.211 159.35 235.025 159.81 235.63 C 165.43 243.03 171.017 250.41 176.57 257.77 C 176.948 258.267 177.536 258.559 178.16 258.56 L 228.29 258.46 C 228.504 258.397 228.709 258.307 228.9 258.19 L 229.17 258.06 C 229.315 257.937 229.486 257.848 229.67 257.8 C 229.802 257.658 229.972 257.557 230.16 257.51 C 230.601 257.132 230.913 256.625 231.05 256.06 C 231.087 255.85 231.184 255.656 231.33 255.5 C 231.296 255.424 231.256 255.35 231.21 255.28 L 215 233.36 C 214.622 232.856 214.03 232.56 213.4 232.56 Z M 225.66 254.48 L 179.17 254.57 L 165.44 236.43 L 212.38 236.55 Z" stroke="#040000" stroke-miterlimit="10" fill="#060001"/><path d=" M 3.12 189.85 C 12.8733 203.45 22.6233 217.07 32.37 230.71 C 35.3 226.58 38.22 222.4 41.17 218.28 C 44.12 214.16 47.05 209.94 50.01 205.78 C 46.9633 196.36 43.8933 186.937 40.8 177.51 C 37.7067 168.083 34.62 158.63 31.54 149.15 L 17 144.3 C 12.18 142.69 7.32 141.08 2.49 139.44 C 2.71 156.287 2.92 173.09 3.12 189.85 Z" stroke="#040000" stroke-miterlimit="10" fill="#ADD8E6" fill-rule="evenodd"/><path d=" M 33.54 232.32 C 33.1996 232.566 32.7902 232.699 32.37 232.7 C 31.7281 232.699 31.1255 232.391 30.75 231.87 C 20.99 218.21 11.2367 204.587 1.49 191 C 1.25303 190.667 1.12389 190.269 1.12 189.86 L 0.5 139.47 C 0.53846 138.327 1.49588 137.432 2.63847 137.471 C 2.80826 137.477 2.97671 137.503 3.14 137.55 L 32.14 147.25 C 32.7315 147.459 33.1953 147.927 33.4 148.52 C 36.48 157.853 39.5267 167.187 42.54 176.52 C 45.76 186.35 48.83 195.76 51.88 205.19 C 52.0739 205.79 51.9738 206.445 51.61 206.96 L 47.47 212.81 C 45.9 215.04 44.34 217.26 42.77 219.46 C 40.84 222.15 38.92 224.87 37.01 227.59 L 34.01 231.88 C 33.8781 232.051 33.7194 232.2 33.54 232.32 Z M 5.1 189.19 C 14.1933 201.857 23.28 214.547 32.36 227.26 L 33.77 225.26 C 35.69 222.55 37.62 219.82 39.55 217.12 C 41.11 214.93 42.67 212.71 44.24 210.49 L 47.8 205.49 C 44.8533 196.383 41.8833 187.277 38.89 178.17 C 35.89 168.82 32.89 159.79 29.95 150.76 L 4.53 142.23 Z" stroke="#040000" stroke-miterlimit="10" fill="#060001"/><path d=" M 15.57 100.18 C 20.9033 116.54 26.2367 132.873 31.57 149.18 C 40.35 152.13 49.11 155.04 57.88 157.98 C 52.5467 141.667 47.2133 125.307 41.88 108.9 C 33.11 106 24.32 103.08 15.57 100.18 Z" stroke="#040000" stroke-miterlimit="10" fill="#00D800" fill-rule="evenodd"/><path d=" M 14.36 98.62 L 14.23 98.85 C 14.1991 98.8983 14.1657 98.9451 14.13 98.99 C 13.9614 99.5255 13.8377 100.074 13.76 100.63 C 13.7638 100.663 13.7638 100.697 13.76 100.73 C 13.7696 100.921 13.7896 101.111 13.82 101.3 L 15.82 107.39 C 20.44 121.543 25.0433 135.667 29.63 149.76 C 29.8367 150.349 30.3064 150.807 30.9 151 L 57.21 159.81 C 57.8247 160.012 58.4991 159.904 59.02 159.52 C 59.1011 159.462 59.1779 159.399 59.25 159.33 C 59.7703 158.805 59.9588 158.036 59.74 157.33 L 43.74 108.26 C 43.5469 107.672 43.0928 107.207 42.51 107 C 35.25 104.62 27.98 102.2 20.73 99.8 L 16.2 98.3 C 15.5715 98.0962 14.8828 98.2159 14.36 98.62 Z M 19.47 103.57 C 26.41 105.87 33.3567 108.167 40.31 110.46 L 54.72 154.8 L 33.12 147.57 C 28.6533 133.79 24.1533 119.98 19.62 106.14 L 18.7 103.31 Z" stroke="#040000" stroke-miterlimit="10" fill="#060001"/><path d=" M 50 205.78 C 55.3333 198.28 60.6667 190.743 66 183.17 C 63.3333 174.77 60.6167 166.38 57.85 158 C 49.08 155.06 40.32 152.15 31.54 149.2 C 34.6467 158.673 37.7333 168.127 40.8 177.56 C 43.8667 186.993 46.9333 196.4 50 205.78 Z" stroke="#040000" stroke-miterlimit="10" fill="#ADD8E6" fill-rule="evenodd"/><path d=" M 51.19 207.4 C 50.7599 207.703 50.2311 207.831 49.71 207.76 C 48.9662 207.642 48.3517 207.117 48.12 206.4 C 45.0533 196.98 41.9767 187.557 38.89 178.13 L 38.74 177.65 C 35.74 168.39 32.7067 159.1 29.64 149.78 C 29.4008 149.059 29.5906 148.265 30.13 147.73 C 30.6748 147.208 31.4622 147.027 32.18 147.26 L 58.48 156.06 C 59.0803 156.259 59.5512 156.73 59.75 157.33 C 62.48 165.73 65.22 174.16 67.93 182.55 C 68.1267 183.148 68.0304 183.804 67.67 184.32 C 62.3367 191.9 57.0033 199.44 51.67 206.94 C 51.5345 207.117 51.3726 207.272 51.19 207.4 Z M 34.68 152.3 C 37.3467 160.36 39.9667 168.4 42.54 176.42 C 45.35 185.01 48.03 193.22 50.69 201.42 C 55.07 195.26 59.45 189.077 63.83 182.87 C 61.3167 175.103 58.7933 167.33 56.26 159.55 Z" stroke="#040000" stroke-miterlimit="10" fill="#060001"/><path d=" M 66.55 256.44 C 71.8833 249.02 77.2167 241.567 82.55 234.08 C 77.0833 217.14 71.5667 200.17 66 183.17 C 60.6667 190.75 55.3333 198.287 50 205.78 C 55.5467 222.7 61.0633 239.587 66.55 256.44 Z" stroke="#040000" stroke-miterlimit="10" fill="#EEE8AA" fill-rule="evenodd"/><path d=" M 66.34 181.2 C 65.5901 181.083 64.8387 181.401 64.4 182.02 C 59.0667 189.6 53.7333 197.133 48.4 204.62 C 48.0295 205.135 47.9256 205.796 48.12 206.4 L 64.58 256.83 C 65.1983 257.514 66.0115 257.992 66.91 258.2 C 66.964 258.218 67.0146 258.245 67.06 258.28 L 67.06 258.28 L 67.18 258.28 C 67.5837 258.162 67.936 257.912 68.18 257.57 C 72.52 251.57 76.8533 245.527 81.18 239.44 L 84.18 235.2 C 84.5471 234.683 84.6472 234.023 84.45 233.42 L 67.93 182.55 C 67.6952 181.837 67.0813 181.316 66.34 181.2 Z M 80.34 233.74 L 77.89 237.16 C 74.31 242.153 70.74 247.127 67.18 252.08 L 52.18 206.08 C 56.56 199.92 60.94 193.74 65.32 187.54 Z" stroke="#040000" stroke-miterlimit="10" fill="#060001"/><path d=" M 59 18.35 C 49 31.95 39 45.5533 29 59.16 C 33.92 60.74 38.87 62.29 43.77 63.86 C 48.67 65.43 53.61 67 58.53 68.54 L 82.63 51.05 L 106.77 33.51 C 106.77 28.36 106.84 23.19 106.89 18.02 C 106.94 12.85 107 7.68 107 2.5 C 91 7.8 75 13.0833 59 18.35 Z" stroke="#040000" stroke-miterlimit="10" fill="#EEE8AA" fill-rule="evenodd"/><path d=" M 107.94 35.13 L 59.7 70.13 C 59.1889 70.5006 58.5327 70.6081 57.93 70.42 L 28.37 61.06 C 27.7636 60.8619 27.2881 60.3864 27.09 59.78 C 26.8888 59.1699 26.993 58.5002 27.37 57.98 C 34.3833 48.4733 41.3833 38.9567 48.37 29.43 L 57.37 17.16 C 57.6208 16.8244 57.9705 16.5761 58.37 16.45 C 74.51 11.13 90.46 5.87 106.4 0.6 C 107.013 0.395363 107.687 0.499664 108.21 0.88 C 108.718 1.26611 109.012 1.87172 109 2.51 L 108.73 33.51 C 108.739 34.1448 108.446 34.746 107.94 35.13 Z M 58.17 66.34 L 104.78 32.49 L 105 5.27 C 90.0667 10.21 75.1367 15.12 60.21 20 L 51.58 31.8 C 45.1333 40.6 38.69 49.3667 32.25 58.1 Z" stroke="#040000" stroke-miterlimit="10" fill="#060001"/><path d=" M 148.28 3.37 C 134.44 13.43 120.603 23.4767 106.77 33.51 C 106.66 42.84 106.59 52.15 106.5 61.45 L 148 31.29 C 148.13 22 148.19 12.69 148.28 3.37 Z" stroke="#040000" stroke-miterlimit="10" fill="#FFA100" fill-rule="evenodd"/><path d=" M 148.66 1.44 C 148.166 1.42346 147.676 1.52637 147.23 1.74 C 147.23 1.74 147.23 1.74 147.23 1.74 C 147.139 1.80856 147.038 1.86254 146.93 1.9 C 146.86 1.95 146.78 1.99 146.72 2.04 L 146.72 2.04 L 105.59 31.9 C 105.082 32.2714 104.778 32.8605 104.77 33.49 L 104.51 61.43 C 104.506 62.5346 105.397 63.4335 106.502 63.4379 C 106.925 63.4396 107.337 63.3073 107.68 63.06 L 149.19 32.9 C 149.698 32.5286 150.002 31.9395 150.01 31.31 C 150.08 25.4 150.13 19.49 150.19 13.57 L 150.28 3.39 C 150.285 2.6377 149.868 1.94605 149.2 1.6 C 149.051 1.5239 148.893 1.46679 148.73 1.43 Z M 146.19 13.54 C 146.14 19.12 146.1 24.69 146.03 30.26 L 108.53 57.5 L 108.76 34.5 L 146.25 7.31 Z" stroke="#040000" stroke-miterlimit="10" fill="#060001"/><path d=" M 58.53 68.54 C 67.3767 71.36 76.24 74.18 85.12 77 L 106.5 61.45 C 106.59 52.15 106.66 42.84 106.77 33.51 L 82.63 51.05 Z" stroke="#040000" stroke-miterlimit="10" fill="#EEE8AA" fill-rule="evenodd"/><path d=" M 107.68 63.06 L 86.3 78.6 C 85.7847 78.9705 85.1242 79.0744 84.52 78.88 C 75.64 76.08 66.7767 73.27 57.93 70.45 C 57.2096 70.2214 56.6796 69.6063 56.56 68.86 C 56.4428 68.1174 56.7518 67.3719 57.36 66.93 L 105.59 31.93 C 106.203 31.4826 107.016 31.4206 107.69 31.77 C 108.357 32.1204 108.771 32.8163 108.76 33.57 L 108.5 61.49 C 108.486 62.1124 108.183 62.6928 107.68 63.06 Z M 84.76 74.78 L 104.52 60.42 L 104.74 37.42 L 62.89 67.84 Z" stroke="#040000" stroke-miterlimit="10" fill="#060001"/><path d=" M 15.18 100 C 24.04 102.827 32.91 105.643 41.79 108.45 L 85.12 77 C 76.24 74.2 67.3767 71.3867 58.53 68.56 C 44.07 79.0467 29.62 89.5267 15.18 100 Z" stroke="#040000" stroke-miterlimit="10" fill="#FFA100" fill-rule="evenodd"/><path d=" M 59.13 66.64 C 58.5273 66.4519 57.8712 66.5594 57.36 66.93 L 14.92 97.74 C 14.6598 98.0903 14.429 98.4616 14.23 98.85 C 14.1991 98.8983 14.1657 98.9451 14.13 98.99 C 13.9604 99.5218 13.8366 100.067 13.76 100.62 C 13.7647 100.657 13.7647 100.693 13.76 100.73 C 13.76 100.96 13.76 101.17 13.82 101.39 C 13.825 101.42 13.825 101.45 13.82 101.48 C 14.0289 101.677 14.2779 101.827 14.55 101.92 C 23.4233 104.76 32.2933 107.577 41.16 110.37 C 41.7657 110.562 42.4264 110.454 42.94 110.08 L 86.3 78.6 C 87.192 77.9486 87.3871 76.6973 86.7356 75.8053 C 86.4857 75.4631 86.1336 75.2091 85.73 75.08 C 76.85 72.28 67.9833 69.4667 59.13 66.64 Z M 41.43 106.26 C 34.0967 103.96 26.8 101.647 19.54 99.32 L 58.88 70.75 C 66.16 73.07 73.4467 75.3833 80.74 77.69 Z" stroke="#040000" stroke-miterlimit="10" fill="#060001"/><path d=" M 229.72 185.41 C 229.38 185.656 228.97 185.789 228.55 185.79 L 177.92 185.79 C 176.815 185.787 175.922 184.89 175.925 183.785 C 175.925 183.58 175.957 183.376 176.02 183.18 L 194.19 127.26 C 194.368 126.641 194.852 126.158 195.47 125.98 C 196.076 125.788 196.736 125.896 197.25 126.27 L 238.2 156 C 238.895 156.506 239.189 157.4 238.93 158.22 L 230.45 184.4 C 230.317 184.804 230.062 185.157 229.72 185.41 Z M 180.67 181.8 L 227.09 181.8 L 234.69 158.38 L 197.13 131.11 Z" stroke="#040000" stroke-miterlimit="10" fill="#060001"/><path d=" M 162.74 235.75 C 162.402 236.001 161.991 236.134 161.57 236.13 L 135.49 236.13 C 134.625 236.129 133.858 235.573 133.59 234.75 L 117.24 184.4 C 117.042 183.793 117.146 183.128 117.52 182.61 C 117.887 182.081 118.496 181.773 119.14 181.79 L 177.92 181.79 C 178.557 181.792 179.154 182.096 179.53 182.61 C 179.904 183.128 180.008 183.793 179.81 184.4 L 163.46 234.74 C 163.333 235.144 163.081 235.498 162.74 235.75 Z M 136.93 232.14 L 160.12 232.14 L 175.12 185.79 L 121.88 185.79 Z" stroke="#040000" stroke-miterlimit="10" fill="#060001"/><path d=" M 197.25 129.49 C 197.086 129.617 196.899 129.711 196.7 129.77 C 196.093 129.968 195.428 129.864 194.91 129.49 L 147.35 94.92 C 146.829 94.5445 146.521 93.9419 146.52 93.3 C 146.524 92.6616 146.832 92.0634 147.35 91.69 L 190.18 60.57 C 190.881 60.0613 191.829 60.0613 192.53 60.57 L 213.63 75.89 C 214.326 76.4002 214.616 77.2992 214.35 78.12 L 198 128.5 C 197.861 128.901 197.599 129.248 197.25 129.49 Z M 151.92 93.3 L 195 124.65 L 210.07 78.26 L 191.36 64.65 Z" stroke="#040000" stroke-miterlimit="10" fill="#060001"/><path d=" M 120.31 185.4 C 119.97 185.646 119.56 185.779 119.14 185.78 L 66.28 185.78 C 65.4185 185.775 64.657 185.219 64.39 184.4 L 56.3 159.54 C 56.0338 158.719 56.3241 157.82 57.02 157.31 L 99.78 126.25 C 100.676 125.604 101.926 125.807 102.572 126.703 C 102.692 126.87 102.786 127.055 102.85 127.25 L 121 183.17 C 121.198 183.777 121.094 184.442 120.72 184.96 C 120.606 185.126 120.468 185.275 120.31 185.4 Z M 67.73 181.79 L 116.38 181.79 L 99.91 131.09 L 60.54 159.69 Z" stroke="#040000" stroke-miterlimit="10" fill="#060001"/><path d=" M 136.66 235.75 C 136.317 235.998 135.904 236.132 135.48 236.13 L 82.63 236.13 C 81.7659 236.124 81.0035 235.563 80.74 234.74 L 64.39 184.4 C 64.1922 183.793 64.2963 183.128 64.67 182.61 C 65.0328 182.081 65.639 181.773 66.28 181.79 L 119.13 181.79 C 119.995 181.791 120.762 182.347 121.03 183.17 L 137.38 233.52 C 137.578 234.127 137.474 234.792 137.1 235.31 C 136.977 235.479 136.829 235.627 136.66 235.75 Z M 84.09 232.13 L 132.73 232.13 L 117.73 185.77 L 69 185.77 Z" stroke="#040000" stroke-miterlimit="10" fill="#060001"/><path d=" M 192.53 63.8 L 149.69 94.92 C 148.991 95.4239 148.049 95.4239 147.35 94.92 L 104.6 63.86 C 104.082 63.4866 103.774 62.8884 103.77 62.25 C 103.772 61.6134 104.076 61.0156 104.59 60.64 L 147.44 29.51 C 148.141 29.0013 149.089 29.0013 149.79 29.51 L 192.53 60.57 C 193.422 61.2215 193.617 62.4728 192.965 63.3647 C 192.844 63.5314 192.697 63.6782 192.53 63.8 Z M 148.53 90.8 L 188 62.18 L 148.62 33.59 L 109.16 62.25 Z" stroke="#040000" stroke-miterlimit="10" fill="#060001"/><path d=" M 102.13 129.48 L 59.37 160.54 C 58.4739 161.186 57.2239 160.983 56.5781 160.087 C 56.4578 159.92 56.364 159.735 56.3 159.54 L 40 109.29 C 39.7338 108.469 40.0241 107.57 40.72 107.06 L 83.45 76 C 83.9678 75.6263 84.6328 75.5222 85.24 75.72 C 85.8527 75.9077 86.3323 76.3873 86.52 77 L 102.85 127.25 C 103.116 128.071 102.826 128.97 102.13 129.48 Z M 59.25 155.7 L 98.61 127.1 L 83.61 80.84 L 44.23 109.43 Z" stroke="#040000" stroke-miterlimit="10" fill="#060001"/><path d=" M 149.69 94.92 L 102.13 129.48 C 101.61 129.857 100.94 129.961 100.33 129.76 C 99.7274 129.559 99.2561 129.084 99.06 128.48 L 82.73 78.23 C 82.4638 77.4092 82.7541 76.5102 83.45 76 L 104.59 60.64 C 105.291 60.1313 106.239 60.1313 106.94 60.64 L 149.69 91.69 C 150.582 92.3416 150.777 93.5928 150.125 94.4847 C 150.004 94.6514 149.857 94.7982 149.69 94.92 Z M 102 124.64 L 145.13 93.3 L 105.77 64.72 L 87 78.37 Z" stroke="#040000" stroke-miterlimit="10" fill="#060001"/><path d=" M 279.78 96 C 270.9 98.7 262 101.45 253 104.29 C 252.382 104.478 251.898 104.962 251.71 105.58 L 234.64 158 C 234.419 158.704 234.603 159.473 235.12 160 C 235.647 160.517 236.416 160.701 237.12 160.48 C 245.56 157.68 253.95 154.96 262.31 152.23 L 264.6 151.49 C 264.797 151.427 264.983 151.333 265.15 151.21 C 265.493 150.962 265.749 150.612 265.88 150.21 L 282.33 100.21 C 282.456 99.5049 282.387 98.7787 282.13 98.11 C 281.698 97.2612 280.994 96.5816 280.13 96.18 C 280.001 96.1489 279.881 96.0872 279.78 96 Z M 262.44 148 L 261.12 148.43 C 253.993 150.743 246.837 153.077 239.65 155.43 L 255.21 107.75 C 262.837 105.35 270.437 102.987 278.01 100.66 Z" stroke="#040000" stroke-miterlimit="10" fill="#060001"/><path d=" M 203.84 188.54 L 203.84 188.54 L 222.21 132 L 227.99 133.88 L 223.46 116.88 L 209.79 128 L 215.56 129.88 L 197.18 186.43 C 196.584 188.269 197.591 190.244 199.43 190.84 C 201.269 191.436 203.244 190.429 203.84 188.59 Z" fill="#FEFE00"/><path d=" M 98.07 187.53 L 98.07 187.53 L 79.69 131 L 85.47 129.12 L 71.8 118 L 67.27 135 L 73 133.14 L 91.37 189.69 C 91.9665 191.529 93.9409 192.536 95.78 191.94 C 97.6191 191.344 98.6265 189.369 98.03 187.53 Z" fill="#FEFE00"/><path d=" M 210.16 103.18 L 210.16 103.18 L 162.06 68.23 L 165.63 63.32 L 148.04 62.32 L 154.38 78.75 L 158 73.89 L 206.1 108.89 C 207.619 110.085 209.82 109.822 211.015 108.303 C 212.21 106.783 211.947 104.583 210.428 103.388 C 210.357 103.333 210.285 103.28 210.21 103.23 Z" fill="#FEFE00"/><path d=" M 134.92 98.92 L 134.92 98.92 L 103.92 194.38 L 98.14 192.51 L 102.67 209.51 L 116.34 198.4 L 110.57 196.53 L 141.57 101.06 L 141.57 101.06 C 142.079 99.1951 140.979 97.271 139.114 96.7624 C 137.374 96.2878 135.559 97.2132 134.92 98.9 Z" fill="#FEFE00"/><path d=" M 100.48 144.18 L 100.48 144.18 L 181.68 203.18 L 178.11 208.1 L 195.71 209.1 L 189.36 192.66 L 185.8 197.57 L 104.59 138.57 L 104.59 138.57 C 102.983 137.495 100.81 137.926 99.7348 139.533 C 98.7179 141.053 99.0426 143.099 100.48 144.23 Z" fill="#FEFE00"/></g></g></g></svg>