<svg version="1.1" viewBox="0 0 405 200" xmlns="http://www.w3.org/2000/svg" xmlns:xlink="http://www.w3.org/1999/xlink" overflow="hidden"><g stroke-linejoin="round"><path d=" M 100 100 L 73.2051 200 L 0 200 L 1.42109e-14 126.795 Z" stroke="#000000" stroke-width="4" fill="#FFFFFF"/><path d=" M 100 100 L 1.42109e-14 126.795 L 0 73.2051 Z" stroke="#000000" stroke-width="4" fill="#D3D3D3"/><path d=" M 100 100 L 0 73.2051 L -1.42109e-14 0 L 73.2051 1.42109e-14 Z" stroke="#000000" stroke-width="4" fill="#FFFFFF"/><path d=" M 100 100 L 73.2051 1.42109e-14 L 126.795 0 Z" stroke="#000000" stroke-width="4" fill="#D3D3D3"/><path d=" M 100 100 L 126.795 0 L 200 -5.68434e-14 L 200 73.2051 Z" stroke="#000000" stroke-width="4" fill="#FFFFFF"/><path d=" M 100 100 L 200 73.2051 L 200 126.795 Z" stroke="#000000" stroke-width="4" fill="#D3D3D3"/><path d=" M 100 100 L 200 126.795 L 200 200 L 126.795 200 Z" stroke="#000000" stroke-width="4" fill="#FEFE00"/><path d=" M 100 100 L 126.795 200 L 73.2051 200 Z" stroke="#000000" stroke-width="4" fill="#D3D3D3"/><path d=" M 305 100 L 331.795 1.42109e-14 L 278.205 0 Z" stroke="#000000" stroke-width="4" fill="#D3D3D3"/><path d=" M 305 100 L 278.205 0 L 205 -5.68434e-14 L 205 73.2051 Z" stroke="#000000" stroke-width="4" fill="#FEFE00"/><path d=" M 305 100 L 205 73.2051 L 205 126.795 Z" stroke="#000000" stroke-width="4" fill="#D3D3D3"/><path d=" M 305 100 L 205 126.795 L 205 200 L 278.205 200 Z" stroke="#000000" stroke-width="4" fill="#FFFFFF"/><path d=" M 305 100 L 278.205 200 L 331.795 200 Z" stroke="#000000" stroke-width="4" fill="#D3D3D3"/><path d=" M 305 100 L 331.795 200 L 405 200 L 405 126.795 Z" stroke="#000000" stroke-width="4" fill="#FEFE00"/><path d=" M 305 100 L 405 126.795 L 405 73.2051 Z" stroke="#000000" stroke-width="4" fill="#D3D3D3"/><path d=" M 305 100 L 405 73.2051 L 405 0 L 331.795 1.42109e-14 Z" stroke="#000000" stroke-width="4" fill="#FEFE00"/></g></svg>