<svg width="128" height="128" viewBox="-0.9 -0.9 1.8 1.8" xmlns="http://www.w3.org/2000/svg" xmlns:xlink="http://www.w3.org/1999/xlink" overflow="hidden"><g stroke-width="0.1" stroke-linejoin="round" opacity="0.2"><path d="M0.654001-0.50224-0.161033-0.681501-0.14725 0.0736248 0.59354 0.29677Z" stroke="#808080" fill="#808080"/><path d="M-0.630493 0.484187 0.184643 0.78142 0.59354 0.29677-0.14725 0.0736248Z" stroke="#808080" fill="#808080"/><path d="M-0.161033-0.681501-0.699152-0.349576-0.630493 0.484187-0.14725 0.0736248Z" stroke="#808080" fill="#808080"/></g><g stroke-width="0" stroke-linejoin="round" stroke-opacity="0.5" opacity="1"><path d="M0.683455-0.525464 0.551723-0.554437 0.544159-0.425351 0.673582-0.394994Z" stroke="#808080" fill="#000000" opacity="0"/><path d="M0.529-0.559597 0.401031-0.587743 0.39565-0.460013 0.521436-0.43051Z" stroke="#808080" fill="#000000" opacity="0"/><path d="M0.378948-0.592758 0.254583-0.620111 0.251266-0.493713 0.373567-0.465028Z" stroke="#808080" fill="#000000" opacity="0"/><path d="M0.233113-0.624986 0.112202-0.65158 0.110839-0.52649 0.229796-0.498589Z" stroke="#808080" fill="#000000" opacity="0"/><path d="M0.0913203-0.656322-0.026279-0.682187-0.0257934-0.558381 0.0899567-0.531232Z" stroke="#808080" fill="#000000" opacity="0"/><path d="M-0.0465969-0.686801-0.161018-0.711967-0.158782-0.589422-0.0461113-0.562995Z" stroke="#808080" fill="#000000" opacity="0"/><path d="M0.672065-0.372461 0.542642-0.402817 0.535322-0.27791 0.662517-0.246276Z" stroke="#808080" fill="#000000" opacity="0"/><path d="M0.520309-0.40821 0.394522-0.437713 0.389313-0.314062 0.51299-0.283303Z" stroke="#808080" fill="#000000" opacity="0"/><path d="M0.372809-0.442956 0.250508-0.471642 0.247295-0.349225 0.367599-0.319305Z" stroke="#808080" fill="#000000" opacity="0"/><path d="M0.229387-0.476742 0.110429-0.504643 0.109108-0.38344 0.226175-0.354325Z" stroke="#808080" fill="#000000" opacity="0"/><path d="M0.0898779-0.509606-0.0258722-0.536755-0.0254014-0.416745 0.0885567-0.388403Z" stroke="#808080" fill="#000000" opacity="0"/><path d="M-0.0458771-0.541586-0.158547-0.568012-0.156378-0.449175-0.0454063-0.421576Z" stroke="#808080" fill="#000000" opacity="0"/><path d="M0.661049-0.224472 0.533855-0.256106 0.526769-0.135179 0.65181-0.102364Z" stroke="#808080" fill="#000000" opacity="0"/><path d="M0.511899-0.261714 0.388222-0.292473 0.383176-0.172708 0.504813-0.140787Z" stroke="#808080" fill="#000000" opacity="0"/><path d="M0.366865-0.297928 0.246561-0.327848 0.243448-0.209228 0.361819-0.178163Z" stroke="#808080" fill="#000000" opacity="0"/><path d="M0.225778-0.333157 0.108712-0.362272 0.107431-0.244777 0.222665-0.214536Z" stroke="#808080" fill="#000000" opacity="0"/><path d="M0.0884804-0.367439-0.0254777-0.395781-0.0250212-0.279395 0.0871996-0.249945Z" stroke="#808080" fill="#000000" opacity="0"/><path d="M-0.0451791-0.400813-0.156151-0.428413-0.154046-0.313117-0.0447225-0.284427Z" stroke="#808080" fill="#000000" opacity="0"/><path d="M0.650389-0.0812549 0.525348-0.11407 0.518484 0.00306488 0.641443 0.0369706Z" stroke="#808080" fill="#000000" opacity="0"/><path d="M0.503756-0.119876 0.382119-0.151798 0.377229-0.0357391 0.496893-0.00274204Z" stroke="#808080" fill="#000000" opacity="0"/><path d="M0.361107-0.157449 0.242736-0.188513 0.239718-0.0735148 0.356217-0.0413902Z" stroke="#808080" fill="#000000" opacity="0"/><path d="M0.222281-0.194015 0.107047-0.224256 0.105804-0.110302 0.219263-0.0790163Z" stroke="#808080" fill="#000000" opacity="0"/><path d="M0.0871257-0.229614-0.0250951-0.259064-0.0246522-0.14614 0.0858834-0.11566Z" stroke="#808080" fill="#000000" opacity="0"/><path d="M-0.044502-0.264284-0.153826-0.292974-0.151783-0.181065-0.0440591-0.15136Z" stroke="#808080" fill="#000000" opacity="0"/><path d="M0.640066 0.0574185 0.517108 0.0235128 0.510456 0.13703 0.6314 0.171944Z" stroke="#808080" fill="#000000" opacity="0"/><path d="M0.495869 0.0175218 0.376206-0.0154753 0.371465 0.097047 0.489217 0.131039Z" stroke="#808080" fill="#000000" opacity="0"/><path d="M0.355528-0.021308 0.239029-0.0534325 0.236102 0.0581074 0.350787 0.0912143Z" stroke="#808080" fill="#000000" opacity="0"/><path d="M0.21889-0.0591131 0.105432-0.0903993 0.104226 0.0201712 0.215963 0.0524268Z" stroke="#808080" fill="#000000" opacity="0"/><path d="M0.0858118-0.0959336-0.0247238-0.126414-0.0242939-0.0168 0.0846065 0.0146369Z" stroke="#808080" fill="#000000" opacity="0"/><path d="M-0.043845-0.131807-0.151569-0.161512-0.149586-0.0528425-0.043415-0.0221937Z" stroke="#808080" fill="#000000" opacity="0"/><path d="M0.630067 0.19176 0.509123 0.156847 0.502673 0.266912 0.621668 0.302757Z" stroke="#808080" fill="#000000" opacity="0"/><path d="M0.488224 0.150686 0.370472 0.116694 0.365874 0.225839 0.481775 0.260751Z" stroke="#808080" fill="#000000" opacity="0"/><path d="M0.350118 0.110693 0.235433 0.077586 0.232592 0.185821 0.34552 0.219838Z" stroke="#808080" fill="#000000" opacity="0"/><path d="M0.215602 0.0717394 0.103865 0.0394838 0.102695 0.14682 0.212761 0.179975Z" stroke="#808080" fill="#000000" opacity="0"/><path d="M0.0845369 0.0337855-0.0243634 0.00234867-0.0239458 0.108796 0.0833669 0.141121Z" stroke="#808080" fill="#000000" opacity="0"/><path d="M-0.043207-0.00320693-0.149378-0.0338557-0.147451 0.0717136-0.0427895 0.10324Z" stroke="#808080" fill="#000000" opacity="0"/><path d="M-0.653625 0.512472-0.539608 0.554047-0.459679 0.482776-0.572069 0.443183Z" stroke="#808080" fill="#000000" opacity="0"/><path d="M-0.519348 0.561309-0.402005 0.604097-0.323831 0.530757-0.43942 0.490038Z" stroke="#808080" fill="#000000" opacity="0"/><path d="M-0.381158 0.611569-0.26034 0.655624-0.184058 0.580125-0.302983 0.538229Z" stroke="#808080" fill="#000000" opacity="0"/><path d="M-0.238879 0.663317-0.11443 0.708696-0.0401877 0.630939-0.162597 0.587817Z" stroke="#808080" fill="#000000" opacity="0"/><path d="M-0.0923275 0.716618 0.0359182 0.763382 0.107963 0.683266-0.0180851 0.638861Z" stroke="#808080" fill="#000000" opacity="0"/><path d="M0.0586914 0.771544 0.190911 0.819757 0.260587 0.737172 0.130736 0.691428Z" stroke="#808080" fill="#000000" opacity="0"/><path d="M-0.558155 0.431079-0.445765 0.470672-0.369628 0.402782-0.480417 0.365033Z" stroke="#808080" fill="#000000" opacity="0"/><path d="M-0.425801 0.477589-0.310212 0.518309-0.235799 0.448497-0.349665 0.409699Z" stroke="#808080" fill="#000000" opacity="0"/><path d="M-0.289683 0.525422-0.170758 0.567317-0.0981967 0.4955-0.21527 0.45561Z" stroke="#808080" fill="#000000" opacity="0"/><path d="M-0.149639 0.574634-0.0272302 0.617756 0.0433389 0.543847-0.0770782 0.502817Z" stroke="#808080" fill="#000000" opacity="0"/><path d="M-0.00549648 0.625286 0.120551 0.669691 0.188979 0.593596 0.0650726 0.551377Z" stroke="#808080" fill="#000000" opacity="0"/><path d="M0.142927 0.677443 0.272779 0.723187 0.338906 0.644809 0.211356 0.601349Z" stroke="#808080" fill="#000000" opacity="0"/><path d="M-0.467152 0.353493-0.356362 0.391242-0.283754 0.326499-0.392969 0.290468Z" stroke="#808080" fill="#000000" opacity="0"/><path d="M-0.336689 0.397839-0.222823 0.436636-0.151905 0.370104-0.264081 0.333095Z" stroke="#808080" fill="#000000" opacity="0"/><path d="M-0.202606 0.443415-0.0855332 0.483305-0.0164275 0.414908-0.131688 0.376882Z" stroke="#808080" fill="#000000" opacity="0"/><path d="M-0.0647497 0.490274 0.0556674 0.531304 0.122829 0.460963 0.00435596 0.421877Z" stroke="#808080" fill="#000000" opacity="0"/><path d="M0.0770415 0.53847 0.200948 0.580689 0.266026 0.50832 0.144203 0.468129Z" stroke="#808080" fill="#000000" opacity="0"/><path d="M0.222938 0.588062 0.350489 0.631523 0.413332 0.557037 0.288016 0.515694Z" stroke="#808080" fill="#000000" opacity="0"/><path d="M-0.380307 0.279453-0.271093 0.315484-0.201773 0.253673-0.309441 0.219245Z" stroke="#808080" fill="#000000" opacity="0"/><path d="M-0.251704 0.321781-0.139528 0.35879-0.0718645 0.295311-0.182385 0.259971Z" stroke="#808080" fill="#000000" opacity="0"/><path d="M-0.119616 0.365257-0.00435607 0.403283 0.0615354 0.338068-0.0519529 0.301778Z" stroke="#808080" fill="#000000" opacity="0"/><path d="M0.0161002 0.409928 0.134573 0.449014 0.198569 0.381989 0.0819917 0.344712Z" stroke="#808080" fill="#000000" opacity="0"/><path d="M0.155597 0.455843 0.27742 0.496034 0.339387 0.427124 0.219593 0.388818Z" stroke="#808080" fill="#000000" opacity="0"/><path d="M0.299035 0.503054 0.42435 0.544398 0.484148 0.473522 0.361002 0.434145Z" stroke="#808080" fill="#000000" opacity="0"/><path d="M-0.297342 0.20872-0.189675 0.243148-0.123426 0.184075-0.229576 0.151146Z" stroke="#808080" fill="#000000" opacity="0"/><path d="M-0.170566 0.249167-0.0600456 0.284507 0.00458203 0.223876-0.104317 0.190094Z" stroke="#808080" fill="#000000" opacity="0"/><path d="M-0.0404329 0.290685 0.0730554 0.326974 0.135952 0.264723 0.0241947 0.230054Z" stroke="#808080" fill="#000000" opacity="0"/><path d="M0.0931922 0.333316 0.20977 0.370594 0.270818 0.306656 0.156089 0.271065Z" stroke="#808080" fill="#000000" opacity="0"/><path d="M0.230452 0.377108 0.350246 0.415413 0.409321 0.34972 0.2915 0.31317Z" stroke="#808080" fill="#000000" opacity="0"/><path d="M0.371496 0.422107 0.494642 0.461484 0.55161 0.393962 0.430571 0.356413Z" stroke="#808080" fill="#000000" opacity="0"/><path d="M-0.218004 0.141079-0.111854 0.174009-0.0484762 0.117495-0.153137 0.0859687Z" stroke="#808080" fill="#000000" opacity="0"/><path d="M-0.0930195 0.179766 0.0158797 0.213549 0.0776714 0.155579-0.0296413 0.123253Z" stroke="#808080" fill="#000000" opacity="0"/><path d="M0.0352002 0.219455 0.146957 0.254124 0.207058 0.19464 0.0969919 0.161485Z" stroke="#808080" fill="#000000" opacity="0"/><path d="M0.166782 0.260185 0.281511 0.295776 0.339811 0.234717 0.226883 0.2007Z" stroke="#808080" fill="#000000" opacity="0"/><path d="M0.301861 0.301997 0.419682 0.338547 0.476062 0.27585 0.36016 0.240938Z" stroke="#808080" fill="#000000" opacity="0"/><path d="M0.440577 0.344935 0.561617 0.382483 0.615952 0.318082 0.496957 0.282238Z" stroke="#808080" fill="#000000" opacity="0"/><path d="M-0.177309-0.710109-0.248692-0.666078-0.24528-0.541335-0.175072-0.587563Z" stroke="#808080" fill="#000000" opacity="0"/><path d="M-0.261485-0.657917-0.336372-0.611724-0.331672-0.484712-0.258073-0.533174Z" stroke="#808080" fill="#000000" opacity="0"/><path d="M-0.349796-0.603161-0.428453-0.554643-0.422338-0.425287-0.345095-0.476148Z" stroke="#808080" fill="#000000" opacity="0"/><path d="M-0.442555-0.545647-0.525274-0.494623-0.517604-0.362848-0.43644-0.416291Z" stroke="#808080" fill="#000000" opacity="0"/><path d="M-0.540107-0.48516-0.627211-0.431433-0.617829-0.297158-0.532438-0.353384Z" stroke="#808080" fill="#000000" opacity="0"/><path d="M-0.642834-0.421466-0.73468-0.364813-0.72341-0.227957-0.633452-0.287191Z" stroke="#808080" fill="#000000" opacity="0"/><path d="M-0.174583-0.566085-0.244791-0.519856-0.241485-0.398975-0.172414-0.447247Z" stroke="#808080" fill="#000000" opacity="0"/><path d="M-0.25737-0.511315-0.330969-0.462853-0.326418-0.339866-0.254064-0.390434Z" stroke="#808080" fill="#000000" opacity="0"/><path d="M-0.344158-0.453898-0.421401-0.403037-0.415485-0.277881-0.339607-0.330911Z" stroke="#808080" fill="#000000" opacity="0"/><path d="M-0.435246-0.393636-0.51641-0.340193-0.508996-0.212803-0.42933-0.26848Z" stroke="#808080" fill="#000000" opacity="0"/><path d="M-0.530961-0.330314-0.616353-0.274087-0.607291-0.144395-0.523547-0.202923Z" stroke="#808080" fill="#000000" opacity="0"/><path d="M-0.631665-0.26369-0.721623-0.204457-0.710748-0.0723953-0.622603-0.133998Z" stroke="#808080" fill="#000000" opacity="0"/><path d="M-0.17194-0.426421-0.24101-0.378148-0.237805-0.260953-0.169835-0.311126Z" stroke="#808080" fill="#000000" opacity="0"/><path d="M-0.253383-0.369255-0.325737-0.318687-0.321328-0.199538-0.250177-0.252059Z" stroke="#808080" fill="#000000" opacity="0"/><path d="M-0.3387-0.309369-0.414578-0.256339-0.408851-0.135181-0.334291-0.19022Z" stroke="#808080" fill="#000000" opacity="0"/><path d="M-0.428175-0.246565-0.507841-0.190887-0.50067-0.0676668-0.422448-0.125408Z" stroke="#808080" fill="#000000" opacity="0"/><path d="M-0.52212-0.180623-0.605864-0.122095-0.597107 0.00324435-0.514948-0.0574029Z" stroke="#808080" fill="#000000" opacity="0"/><path d="M-0.620877-0.111304-0.709022-0.0497005-0.698521 0.077815-0.61212 0.0140361Z" stroke="#808080" fill="#000000" opacity="0"/><path d="M-0.169375-0.290922-0.237345-0.240749-0.234235-0.127073-0.167333-0.179013Z" stroke="#808080" fill="#000000" opacity="0"/><path d="M-0.249517-0.231528-0.320668-0.179007-0.316394-0.0635182-0.246408-0.117852Z" stroke="#808080" fill="#000000" opacity="0"/><path d="M-0.333412-0.169352-0.407973-0.114314-0.402425 0.00303306-0.329138-0.0538637Z" stroke="#808080" fill="#000000" opacity="0"/><path d="M-0.42133-0.104195-0.499552-0.0464543-0.492611 0.0727977-0.415783 0.0131522Z" stroke="#808080" fill="#000000" opacity="0"/><path d="M-0.513568-0.0358361-0.595727 0.0248111-0.587259 0.146014-0.506627 0.0834158Z" stroke="#808080" fill="#000000" opacity="0"/><path d="M-0.610452 0.0359661-0.696853 0.099745-0.686708 0.222945-0.601984 0.157169Z" stroke="#808080" fill="#000000" opacity="0"/><path d="M-0.166886-0.159405-0.233789-0.107465-0.230772 0.00284757-0.164903-0.0507356Z" stroke="#808080" fill="#000000" opacity="0"/><path d="M-0.245768-0.0979399-0.315754-0.0436061-0.311609 0.0683882-0.242751 0.012373Z" stroke="#808080" fill="#000000" opacity="0"/><path d="M-0.328287-0.0336399-0.401574 0.0232568-0.396199 0.136971-0.324142 0.0783544Z" stroke="#808080" fill="#000000" opacity="0"/><path d="M-0.414701 0.0336951-0.491529 0.0933405-0.484808 0.208813-0.409325 0.147409Z" stroke="#808080" fill="#000000" opacity="0"/><path d="M-0.505292 0.104285-0.585923 0.166883-0.57773 0.284151-0.498571 0.219757Z" stroke="#808080" fill="#000000" opacity="0"/><path d="M-0.600371 0.178372-0.685095 0.244148-0.675288 0.363248-0.592178 0.29564Z" stroke="#808080" fill="#000000" opacity="0"/><path d="M-0.164469-0.0316974-0.230338 0.0218858-0.227409 0.128982-0.162542 0.073872Z" stroke="#808080" fill="#000000" opacity="0"/><path d="M-0.242129 0.0316938-0.310988 0.0877089-0.306967 0.196365-0.2392 0.138791Z" stroke="#808080" fill="#000000" opacity="0"/><path d="M-0.323317 0.0979639-0.395373 0.15658-0.390162 0.266827-0.319296 0.20662Z" stroke="#808080" fill="#000000" opacity="0"/><path d="M-0.408277 0.167314-0.483759 0.228717-0.477248 0.340586-0.403065 0.277561Z" stroke="#808080" fill="#000000" opacity="0"/><path d="M-0.497279 0.239963-0.576437 0.304356-0.568505 0.417877-0.490767 0.351832Z" stroke="#808080" fill="#000000" opacity="0"/><path d="M-0.590618 0.316152-0.673728 0.38376-0.664241 0.498962-0.582686 0.429673Z" stroke="#808080" fill="#000000" opacity="0"/></g><g stroke-width="0.1" stroke-linejoin="round" opacity="0.2"><path d="M0.206844-0.103422 0.654001-0.50224 0.59354 0.29677 0.184643 0.78142Z" stroke="#808080" fill="#808080"/><path d="M-0.161033-0.681501 0.654001-0.50224 0.206844-0.103422-0.699152-0.349576Z" stroke="#808080" fill="#808080"/><path d="M-0.699152-0.349576 0.206844-0.103422 0.184643 0.78142-0.630493 0.484187Z" stroke="#808080" fill="#808080"/></g><g stroke-width="0" stroke-linejoin="round" stroke-opacity="0.5" opacity="1"><path d="M0.226416-0.103432 0.303639-0.172308 0.298596-0.0287326 0.222741 0.0430206Z" stroke="#808080" fill="#000000" opacity="0"/><path d="M0.316774-0.184364 0.389618-0.249333 0.383364-0.108548 0.311731-0.0407886Z" stroke="#808080" fill="#000000" opacity="0"/><path d="M0.402024-0.260721 0.470851-0.322108 0.463524-0.184026 0.39577-0.119936Z" stroke="#808080" fill="#000000" opacity="0"/><path d="M0.482587-0.332881 0.547721-0.390974 0.539442-0.255511 0.47526-0.1948Z" stroke="#808080" fill="#000000" opacity="0"/><path d="M0.55884-0.401181 0.62057-0.456237 0.611447-0.323312 0.550562-0.265719Z" stroke="#808080" fill="#000000" opacity="0"/><path d="M0.63112-0.465923 0.689705-0.518175 0.679833-0.387705 0.621997-0.332997Z" stroke="#808080" fill="#000000" opacity="0"/><path d="M0.221989 0.0681369 0.297844-0.00361634 0.29299 0.134582 0.218456 0.208946Z" stroke="#808080" fill="#000000" opacity="0"/><path d="M0.310754-0.0161506 0.382387-0.0839102 0.376361 0.0517461 0.3059 0.122047Z" stroke="#808080" fill="#000000" opacity="0"/><path d="M0.394594-0.0957622 0.462349-0.159853 0.455281-0.0266677 0.388568 0.0398942Z" stroke="#808080" fill="#000000" opacity="0"/><path d="M0.473908-0.171077 0.538091-0.231788 0.530098-0.101005 0.466841-0.0378916Z" stroke="#808080" fill="#000000" opacity="0"/><path d="M0.549053-0.242433 0.609939-0.300025 0.601123-0.171575 0.541061-0.111649Z" stroke="#808080" fill="#000000" opacity="0"/><path d="M0.620349-0.310134 0.678185-0.364843 0.668637-0.238658 0.611534-0.181684Z" stroke="#808080" fill="#000000" opacity="0"/><path d="M0.217731 0.233116 0.292265 0.158752 0.28759 0.291869 0.214332 0.368602Z" stroke="#808080" fill="#000000" opacity="0"/><path d="M0.304959 0.145783 0.37542 0.0754815 0.369609 0.206285 0.300283 0.2789Z" stroke="#808080" fill="#000000" opacity="0"/><path d="M0.387434 0.0632061 0.454148-0.0033559 0.447327 0.125189 0.381624 0.194009Z" stroke="#808080" fill="#000000" opacity="0"/><path d="M0.465536-0.0149921 0.528793-0.0781054 0.521072 0.0482371 0.458715 0.113552Z" stroke="#808080" fill="#000000" opacity="0"/><path d="M0.539603-0.0891511 0.599665-0.149077 0.591142-0.0248799 0.531882 0.0371914Z" stroke="#808080" fill="#000000" opacity="0"/><path d="M0.60994-0.159576 0.667044-0.21655 0.657804-0.094442 0.601416-0.0353789Z" stroke="#808080" fill="#000000" opacity="0"/><path d="M0.213635 0.391879 0.286892 0.315145 0.282385 0.443457 0.210361 0.522338Z" stroke="#808080" fill="#000000" opacity="0"/><path d="M0.299376 0.301782 0.368702 0.229166 0.363096 0.355371 0.294869 0.430093Z" stroke="#808080" fill="#000000" opacity="0"/><path d="M0.38053 0.216504 0.446233 0.147684 0.439645 0.271826 0.374923 0.34271Z" stroke="#808080" fill="#000000" opacity="0"/><path d="M0.457455 0.13567 0.519811 0.0703549 0.512348 0.192479 0.450867 0.259813Z" stroke="#808080" fill="#000000" opacity="0"/><path d="M0.530473 0.0589409 0.589733-0.0031304 0.581486 0.117021 0.52301 0.181065Z" stroke="#808080" fill="#000000" opacity="0"/><path d="M0.599875-0.0139887 0.656263-0.0730517 0.647317 0.0451737 0.591629 0.106163Z" stroke="#808080" fill="#000000" opacity="0"/><path d="M0.209689 0.544769 0.281713 0.465888 0.277366 0.58965 0.206535 0.670475Z" stroke="#808080" fill="#000000" opacity="0"/><path d="M0.293994 0.452166 0.36222 0.377444 0.356808 0.49929 0.289647 0.575928Z" stroke="#808080" fill="#000000" opacity="0"/><path d="M0.373867 0.36443 0.438589 0.293547 0.432223 0.41351 0.368454 0.486277Z" stroke="#808080" fill="#000000" opacity="0"/><path d="M0.449649 0.281188 0.51113 0.213855 0.503911 0.331968 0.443284 0.401151Z" stroke="#808080" fill="#000000" opacity="0"/><path d="M0.521647 0.202103 0.580124 0.138059 0.572142 0.25436 0.514428 0.320216Z" stroke="#808080" fill="#000000" opacity="0"/><path d="M0.590137 0.12687 0.645824 0.0658805 0.637158 0.180406 0.582155 0.243171Z" stroke="#808080" fill="#000000" opacity="0"/><path d="M0.205886 0.692107 0.276717 0.611282 0.272522 0.730731 0.202845 0.813316Z" stroke="#808080" fill="#000000" opacity="0"/><path d="M0.288802 0.597234 0.355963 0.520597 0.350734 0.638306 0.284606 0.716684Z" stroke="#808080" fill="#000000" opacity="0"/><path d="M0.367434 0.507262 0.431203 0.434495 0.425048 0.550486 0.362205 0.624971Z" stroke="#808080" fill="#000000" opacity="0"/><path d="M0.442106 0.421821 0.502733 0.352638 0.495748 0.466936 0.435951 0.537811Z" stroke="#808080" fill="#000000" opacity="0"/><path d="M0.51311 0.340576 0.570823 0.274719 0.563092 0.387352 0.506124 0.454874Z" stroke="#808080" fill="#000000" opacity="0"/><path d="M0.580709 0.263226 0.635713 0.200461 0.627314 0.311457 0.572979 0.375858Z" stroke="#808080" fill="#000000" opacity="0"/><path d="M-0.167357-0.718787-0.0529358-0.69362-0.12254-0.64836-0.23874-0.674756Z" stroke="#808080" fill="#000000" opacity="0"/><path d="M-0.0322951-0.689004 0.0853042-0.663139 0.0176082-0.616598-0.101899-0.643745Z" stroke="#808080" fill="#000000" opacity="0"/><path d="M0.10653-0.658393 0.227441-0.631799 0.161791-0.583921 0.0388337-0.611851Z" stroke="#808080" fill="#000000" opacity="0"/><path d="M0.249277-0.626916 0.373642-0.599563 0.310185-0.55029 0.183626-0.579038Z" stroke="#808080" fill="#000000" opacity="0"/><path d="M0.396114-0.594537 0.524083-0.566391 0.462977-0.515662 0.332657-0.545264Z" stroke="#808080" fill="#000000" opacity="0"/><path d="M0.547221-0.561217 0.678953-0.532243 0.620367-0.479991 0.486115-0.510487Z" stroke="#808080" fill="#000000" opacity="0"/><path d="M-0.251486-0.666678-0.135286-0.640283-0.208356-0.592769-0.326374-0.620486Z" stroke="#808080" fill="#000000" opacity="0"/><path d="M-0.114315-0.635437 0.00519162-0.60829-0.0659254-0.559397-0.187386-0.587923Z" stroke="#808080" fill="#FEFE00"/><path d="M0.0267708-0.603304 0.149728-0.575374 0.0807107-0.52504-0.0443462-0.554411Z" stroke="#808080" fill="#FEFE00"/><path d="M0.171943-0.57024 0.298501-0.541491 0.231741-0.489654 0.102926-0.519907Z" stroke="#808080" fill="#FEFE00"/><path d="M0.321381-0.536204 0.451702-0.506601 0.387366-0.453191 0.254621-0.484366Z" stroke="#808080" fill="#FEFE00"/><path d="M0.475276-0.501153 0.609529-0.470657 0.547799-0.415601 0.410941-0.447742Z" stroke="#808080" fill="#000000" opacity="0"/><path d="M-0.339758-0.612003-0.221741-0.584287-0.298544-0.534345-0.418416-0.563486Z" stroke="#808080" fill="#000000" opacity="0"/><path d="M-0.200434-0.579193-0.0789732-0.550667-0.153777-0.499239-0.277237-0.529252Z" stroke="#808080" fill="#FEFE00"/><path d="M-0.0570315-0.545422 0.0680254-0.516051-0.00462418-0.463069-0.131836-0.493994Z" stroke="#808080" fill="#FEFE00"/><path d="M0.0906307-0.510647 0.219446-0.480394 0.149118-0.425786 0.0179811-0.457665Z" stroke="#808080" fill="#FEFE00"/><path d="M0.242745-0.474824 0.375491-0.443648 0.307663-0.387338 0.172417-0.420216Z" stroke="#808080" fill="#FEFE00"/><path d="M0.399517-0.437904 0.536376-0.405762 0.471242-0.34767 0.33169-0.381594Z" stroke="#808080" fill="#000000" opacity="0"/><path d="M-0.432488-0.554567-0.312616-0.525427-0.393445-0.472868-0.515207-0.503544Z" stroke="#808080" fill="#000000" opacity="0"/><path d="M-0.290965-0.520066-0.167506-0.490053-0.246291-0.435888-0.371794-0.467507Z" stroke="#808080" fill="#FEFE00"/><path d="M-0.145193-0.484528-0.0179813-0.453604-0.0945579-0.397758-0.223978-0.430363Z" stroke="#808080" fill="#FEFE00"/><path d="M0.00502469-0.447907 0.136161-0.416028 0.0619712-0.358422-0.0715519-0.392061Z" stroke="#808080" fill="#FEFE00"/><path d="M0.159893-0.410152 0.295139-0.377274 0.223527-0.317823 0.0857031-0.352545Z" stroke="#808080" fill="#FEFE00"/><path d="M0.319632-0.371209 0.459184-0.337285 0.390357-0.275898 0.24802-0.311758Z" stroke="#808080" fill="#000000" opacity="0"/><path d="M-0.530022-0.494155-0.40826-0.463479-0.49344-0.408091-0.617125-0.440427Z" stroke="#808080" fill="#000000" opacity="0"/><path d="M-0.386258-0.457829-0.260755-0.42621-0.343848-0.369083-0.471438-0.402441Z" stroke="#808080" fill="#FEFE00"/><path d="M-0.238062-0.420383-0.108642-0.387777-0.189472-0.328828-0.321155-0.363256Z" stroke="#808080" fill="#FEFE00"/><path d="M-0.0852244-0.381763 0.0482987-0.348124-0.0300802-0.287265-0.166055-0.322815Z" stroke="#808080" fill="#FEFE00"/><path d="M0.0724755-0.341916 0.2103-0.307193 0.134578-0.244329-0.00590332-0.281056Z" stroke="#808080" fill="#FEFE00"/><path d="M0.235274-0.300779 0.377611-0.26492 0.304766-0.19995 0.159552-0.237915Z" stroke="#808080" fill="#000000" opacity="0"/><path d="M-0.632742-0.430529-0.509057-0.398192-0.598949-0.33974-0.724589-0.373876Z" stroke="#808080" fill="#000000" opacity="0"/><path d="M-0.486698-0.39223-0.359108-0.358872-0.446872-0.298534-0.57659-0.333777Z" stroke="#808080" fill="#000000" opacity="0"/><path d="M-0.336026-0.352717-0.204344-0.318289-0.289794-0.255972-0.423791-0.292378Z" stroke="#808080" fill="#000000" opacity="0"/><path d="M-0.180505-0.311931-0.0445299-0.276382-0.127463-0.211987-0.265955-0.249614Z" stroke="#808080" fill="#000000" opacity="0"/><path d="M-0.0198953-0.269812 0.120586-0.233084 0.0403889-0.166506-0.102828-0.205417Z" stroke="#808080" fill="#000000" opacity="0"/><path d="M0.146057-0.226291 0.291271-0.188326 0.214048-0.119451 0.0658597-0.159712Z" stroke="#808080" fill="#000000" opacity="0"/><path d="M-0.731883-0.356667-0.606243-0.322531-0.597072-0.184148-0.720614-0.219812Z" stroke="#808080" fill="#000000" opacity="0"/><path d="M-0.58391-0.316272-0.454192-0.281029-0.44726-0.14109-0.574738-0.177889Z" stroke="#808080" fill="#000000" opacity="0"/><path d="M-0.431134-0.274567-0.297137-0.238161-0.292598-0.0966367-0.424202-0.134628Z" stroke="#808080" fill="#000000" opacity="0"/><path d="M-0.273319-0.231486-0.134827-0.193858-0.132845-0.0507207-0.26878-0.0899619Z" stroke="#808080" fill="#000000" opacity="0"/><path d="M-0.110212-0.18696 0.0330051-0.148049 0.0322546-0.00326819-0.108229-0.0438223Z" stroke="#808080" fill="#000000" opacity="0"/><path d="M0.0584593-0.140915 0.206647-0.100654 0.202973 0.0457993 0.0577088 0.00386522Z" stroke="#808080" fill="#000000" opacity="0"/><path d="M-0.718839-0.19596-0.595297-0.160297-0.586451-0.0268354-0.707964-0.0638985Z" stroke="#808080" fill="#000000" opacity="0"/><path d="M-0.573339-0.153777-0.445861-0.116978-0.43918 0.0179065-0.564494-0.0203161Z" stroke="#808080" fill="#000000" opacity="0"/><path d="M-0.423205-0.110251-0.2916-0.0722599-0.287227 0.0640706-0.416524 0.0246333Z" stroke="#808080" fill="#000000" opacity="0"/><path d="M-0.268211-0.0653157-0.132276-0.0260745-0.130367 0.111726-0.263838 0.0710148Z" stroke="#808080" fill="#000000" opacity="0"/><path d="M-0.108118-0.0189019 0.0323659 0.0216522 0.0316438 0.160945-0.106209 0.118898Z" stroke="#808080" fill="#000000" opacity="0"/><path d="M0.0573309 0.0290643 0.202595 0.0709984 0.199062 0.211808 0.0566088 0.168358Z" stroke="#808080" fill="#000000" opacity="0"/><path d="M-0.706251-0.0408815-0.584739-0.00381845-0.576202 0.124979-0.69575 0.086634Z" stroke="#808080" fill="#000000" opacity="0"/><path d="M-0.563145 0.00293918-0.437831 0.0411617-0.431387 0.17126-0.554608 0.131737Z" stroke="#808080" fill="#000000" opacity="0"/><path d="M-0.415562 0.0481305-0.286266 0.0875678-0.282051 0.218985-0.409118 0.178229Z" stroke="#808080" fill="#000000" opacity="0"/><path d="M-0.26329 0.0947577-0.129819 0.135469-0.12798 0.268224-0.259075 0.226175Z" stroke="#808080" fill="#000000" opacity="0"/><path d="M-0.106102 0.14289 0.0317509 0.184938 0.0310557 0.31905-0.104263 0.275646Z" stroke="#808080" fill="#000000" opacity="0"/><path d="M0.0562452 0.192603 0.198698 0.236053 0.195299 0.371539 0.05555 0.326715Z" stroke="#808080" fill="#000000" opacity="0"/><path d="M-0.694096 0.108859-0.574548 0.147205-0.566305 0.271578-0.683951 0.23206Z" stroke="#808080" fill="#000000" opacity="0"/><path d="M-0.553306 0.15418-0.430085 0.193703-0.423865 0.319266-0.545063 0.278554Z" stroke="#808080" fill="#000000" opacity="0"/><path d="M-0.40819 0.200893-0.281123 0.24165-0.277057 0.368416-0.401971 0.326456Z" stroke="#808080" fill="#000000" opacity="0"/><path d="M-0.258547 0.249064-0.127451 0.291113-0.125678 0.419096-0.254481 0.375829Z" stroke="#808080" fill="#000000" opacity="0"/><path d="M-0.10416 0.298761 0.0311589 0.342165 0.0304891 0.471379-0.102387 0.426744Z" stroke="#808080" fill="#000000" opacity="0"/><path d="M0.0551998 0.350059 0.194949 0.394884 0.191675 0.525343 0.05453 0.479274Z" stroke="#808080" fill="#000000" opacity="0"/><path d="M-0.682353 0.253534-0.564707 0.293053-0.556742 0.413227-0.672546 0.372634Z" stroke="#808080" fill="#000000" opacity="0"/><path d="M-0.543806 0.300228-0.422608 0.34094-0.416601 0.462199-0.535841 0.420402Z" stroke="#808080" fill="#000000" opacity="0"/><path d="M-0.401076 0.348331-0.276162 0.390291-0.272238 0.512647-0.395069 0.469591Z" stroke="#808080" fill="#000000" opacity="0"/><path d="M-0.253971 0.397909-0.125169 0.441175-0.123458 0.564638-0.250046 0.520265Z" stroke="#808080" fill="#000000" opacity="0"/><path d="M-0.102287 0.449029 0.0305885 0.493664 0.0299427 0.618245-0.100577 0.572493Z" stroke="#808080" fill="#000000" opacity="0"/><path d="M0.0541926 0.501767 0.191338 0.547836 0.188184 0.673542 0.0535468 0.626347Z" stroke="#808080" fill="#000000" opacity="0"/><path d="M-0.671001 0.393394-0.555198 0.433987-0.547497 0.550171-0.661514 0.508596Z" stroke="#808080" fill="#000000" opacity="0"/><path d="M-0.534626 0.441344-0.415386 0.483142-0.409582 0.600317-0.526925 0.557528Z" stroke="#808080" fill="#000000" opacity="0"/><path d="M-0.394205 0.490717-0.271373 0.533774-0.267583 0.651947-0.3884 0.607892Z" stroke="#808080" fill="#000000" opacity="0"/><path d="M-0.249554 0.541577-0.122966 0.58595-0.121315 0.70513-0.245764 0.65975Z" stroke="#808080" fill="#000000" opacity="0"/><path d="M-0.100481 0.593992 0.0300387 0.639744 0.0294156 0.759935-0.09883 0.713171Z" stroke="#808080" fill="#000000" opacity="0"/><path d="M0.0532215 0.648035 0.187859 0.695229 0.184818 0.816439 0.0525985 0.768226Z" stroke="#808080" fill="#000000" opacity="0"/></g></svg>